<?xml version="1.0" encoding="UTF-8"?>
<svg id="For_Sheets" xmlns="http://www.w3.org/2000/svg" version="1.1" viewBox="0 0 1743.5 1743.5">
  <!-- Generator: Adobe Illustrator 29.1.0, SVG Export Plug-In . SVG Version: 2.1.0 Build 142)  -->
  <defs>
    <style>
      .st0 {
        fill: #231f20;
      }

      .st1, .st2 {
        fill: #ffd046;
      }

      .st2 {
        stroke: #010101;
        stroke-miterlimit: 10;
        stroke-width: .5px;
      }
    </style>
  </defs>
  <g>
    <path class="st1" d="M871.8,1743.5c-28.9,0-56-11.2-76.5-31.7L31.6,948.2C11.2,927.8,0,900.6,0,871.8s11.2-56,31.7-76.5L795.3,31.6C815.7,11.2,842.9,0,871.8,0s56,11.2,76.5,31.7l763.7,763.7c42.2,42.2,42.2,110.8,0,152.9l-763.7,763.7c-20.4,20.4-47.6,31.7-76.5,31.7Z"/>
    <path class="st0" d="M871.8,0c27.6,0,55.3,10.5,76.4,31.6l763.7,763.7c42.2,42.2,42.2,110.6,0,152.7l-763.7,763.7c-21.1,21.1-48.7,31.6-76.4,31.6s-55.3-10.5-76.4-31.6L31.7,948.1c-42.2-42.2-42.2-110.6,0-152.7L795.4,31.7C816.5,10.6,844.1,0,871.8,0M871.8-.2c-28.9,0-56.1,11.3-76.5,31.7L31.5,795.2C11.1,815.7-.2,842.8-.2,871.8s11.3,56.1,31.7,76.5l763.7,763.7c20.4,20.4,47.6,31.7,76.5,31.7s56.1-11.3,76.5-31.7l763.7-763.7c20.4-20.4,31.7-47.6,31.7-76.5s-11.3-56.1-31.7-76.5L948.3,31.5C927.9,11.1,900.7-.2,871.8-.2h0Z"/>
  </g>
  <path class="st2" d="M597.9,706.1c-59.5,0-108-48.5-108-108,0-59.5,48.5-108,108-108,59.5,0,108,48.5,108,108,0,59.5-48.5,108-108,108Z"/>
  <path class="st2" d="M432.6,871.7c0,59.5-48.5,108-108,108-59.5,0-108-48.5-108-108,0-59.5,48.5-108,108-108,59.5,0,108,48.5,108,108Z"/>
  <path class="st2" d="M979.8,871.8c0,59.5-48.5,108-108,108-59.5,0-108-48.5-108-108,0-59.5,48.5-108,108-108,59.5,0,108,48.5,108,108Z"/>
  <path class="st2" d="M1419,763.7c59.5,0,108,48.5,108,108,0,59.5-48.5,108-108,108-59.5,0-108-48.5-108-108,0-59.5,48.5-108,108-108Z"/>
  <path class="st2" d="M1145.6,706.1c-59.5,0-108-48.5-108-108,0-59.5,48.5-108,108-108,59.5,0,108,48.5,108,108,0,59.5-48.5,108-108,108Z"/>
  <path class="st2" d="M871.8,432.5c-59.5,0-108-48.5-108-108,0-59.5,48.5-108,108-108,59.5,0,108,48.5,108,108,0,59.5-48.5,108-108,108Z"/>
  <path class="st2" d="M597.9,1037.4c-59.5,0-108,48.5-108,108,0,59.5,48.5,108,108,108,59.5,0,108-48.5,108-108,0-59.5-48.5-108-108-108Z"/>
  <path class="st2" d="M1145.6,1037.4c-59.5,0-108,48.5-108,108,0,59.5,48.5,108,108,108,59.5,0,108-48.5,108-108,0-59.5-48.5-108-108-108Z"/>
  <path class="st2" d="M979.8,1419c0,59.5-48.5,108-108,108-59.5,0-108-48.5-108-108,0-59.5,48.5-108,108-108,59.5,0,108,48.5,108,108Z"/>
</svg>