<?xml version="1.0" encoding="UTF-8"?>
<svg id="For_Sheets" xmlns="http://www.w3.org/2000/svg" version="1.1" viewBox="0 0 1743.5 1743.5">
  <!-- Generator: Adobe Illustrator 29.1.0, SVG Export Plug-In . SVG Version: 2.1.0 Build 142)  -->
  <defs>
    <style>
      .st0 {
        fill: #231f20;
      }

      .st1 {
        fill: #bf311a;
      }
    </style>
  </defs>
  <rect class="st0" x="223.8" y="223.8" width="1296" height="1296" rx="108" ry="108" transform="translate(-361.1 871.8) rotate(-45)"/>
  <path class="st1" d="M597.9,706.1c-59.5,0-108-48.5-108-108,0-59.5,48.5-108,108-108,59.5,0,108,48.5,108,108,0,59.5-48.5,108-108,108Z"/>
  <path class="st1" d="M432.6,871.7c0,59.5-48.5,108-108,108-59.5,0-108-48.5-108-108,0-59.5,48.5-108,108-108,59.5,0,108,48.5,108,108Z"/>
  <path class="st1" d="M979.8,871.8c0,59.5-48.5,108-108,108-59.5,0-108-48.5-108-108,0-59.5,48.5-108,108-108,59.5,0,108,48.5,108,108Z"/>
  <path class="st1" d="M1419,763.7c59.5,0,108,48.5,108,108,0,59.5-48.5,108-108,108-59.5,0-108-48.5-108-108,0-59.5,48.5-108,108-108Z"/>
  <path class="st1" d="M1145.6,706.1c-59.5,0-108-48.5-108-108,0-59.5,48.5-108,108-108,59.5,0,108,48.5,108,108,0,59.5-48.5,108-108,108Z"/>
  <path class="st1" d="M871.8,432.5c-59.5,0-108-48.5-108-108,0-59.5,48.5-108,108-108,59.5,0,108,48.5,108,108,0,59.5-48.5,108-108,108Z"/>
  <path class="st1" d="M597.9,1037.4c-59.5,0-108,48.5-108,108,0,59.5,48.5,108,108,108,59.5,0,108-48.5,108-108,0-59.5-48.5-108-108-108Z"/>
  <path class="st1" d="M1145.6,1037.4c-59.5,0-108,48.5-108,108,0,59.5,48.5,108,108,108,59.5,0,108-48.5,108-108,0-59.5-48.5-108-108-108Z"/>
  <path class="st1" d="M979.8,1419c0,59.5-48.5,108-108,108-59.5,0-108-48.5-108-108,0-59.5,48.5-108,108-108,59.5,0,108,48.5,108,108Z"/>
</svg>