<?xml version="1.0" encoding="UTF-8" standalone="no"?>
<!-- Created with Inkscape (http://www.inkscape.org/) -->

<svg
   version="1.1"
   id="svg1"
   width="4709.2402"
   height="4709.2402"
   viewBox="0 0 4709.2402 4709.2402"
   sodipodi:docname="tmpvxlggwhg.pdf"
   xmlns:inkscape="http://www.inkscape.org/namespaces/inkscape"
   xmlns:sodipodi="http://sodipodi.sourceforge.net/DTD/sodipodi-0.dtd"
   xmlns="http://www.w3.org/2000/svg"
   xmlns:svg="http://www.w3.org/2000/svg">
  <defs
     id="defs1" />
  <sodipodi:namedview
     id="namedview1"
     pagecolor="#ffffff"
     bordercolor="#000000"
     borderopacity="0.25"
     inkscape:showpageshadow="2"
     inkscape:pageopacity="0.0"
     inkscape:pagecheckerboard="0"
     inkscape:deskcolor="#d1d1d1">
    <inkscape:page
       x="0"
       y="0"
       inkscape:label="1"
       id="page1"
       width="4709.2402"
       height="4709.2402"
       margin="0"
       bleed="0" />
  </sodipodi:namedview>
  <g
     id="g1"
     inkscape:groupmode="layer"
     inkscape:label="1">
    <g
       id="group-R5">
      <path
         id="path2"
         d="m 18805.2,476.902 c -632.7,-632.601 -1658.4,-632.601 -2291,0 L 476.988,16514.1 c -632.652,632.7 -632.648,1658.4 0,2291 L 16514.2,34842.3 c 632.6,632.7 1658.3,632.7 2291,0 L 34842.4,18805.1 c 632.6,-632.6 632.6,-1658.3 0,-2291 L 18805.2,476.902"
         style="fill:#b3dc26;fill-opacity:1;fill-rule:nonzero;stroke:#231f20;stroke-width:5;stroke-linecap:butt;stroke-linejoin:miter;stroke-miterlimit:4;stroke-dasharray:none;stroke-opacity:1"
         transform="matrix(0.13333333,0,0,-0.13333333,0,4709.24)" />
      <path
         id="path3"
         d="m 795.188,16832.3 c -456.184,456.2 -456.184,1198.5 0,1654.6 L 16832.4,34524.1 c 456.1,456.2 1198.4,456.2 1654.6,0 L 34524.2,18486.9 c 456.1,-456.1 456.1,-1198.4 0,-1654.6 L 18487,795.102 C 18030.8,339 17288.5,339 16832.4,795.102 L 795.188,16832.3"
         style="fill:#231f20;fill-opacity:1;fill-rule:nonzero;stroke:none"
         transform="matrix(0.13333333,0,0,-0.13333333,0,4709.24)" />
      <path
         id="path4"
         d="m 1240.66,17277.8 c -210.54,210.5 -210.54,553.1 0,763.7 L 17277.8,34078.6 c 210.6,210.6 553.2,210.6 763.7,0 L 34078.7,18041.5 c 210.5,-210.6 210.5,-553.2 0,-763.7 L 18041.5,1240.6 c -210.5,-210.5 -553.1,-210.5 -763.7,0 L 1240.66,17277.8"
         style="fill:#b3dc26;fill-opacity:1;fill-rule:nonzero;stroke:none"
         transform="matrix(0.13333333,0,0,-0.13333333,0,4709.24)" />
      <path
         id="path5"
         d="m 24324.8,26873.3 -6665.1,6283.5 -6665.1,-6283.5 c -52.3,-49.2 -84.9,-119 -84.9,-196.5 0,-149.1 120.9,-270 270,-270 11,0 21.9,0.7 32.6,2 l 4287.4,537.3 v -3509.3 h 4320 v 3509.3 l 4287.3,-537.3 c 10.7,-1.3 21.6,-2 32.7,-2 149.1,0 270,120.9 270,270 0,77.5 -32.7,147.3 -84.9,196.5"
         style="fill:#231f20;fill-opacity:1;fill-rule:nonzero;stroke:none"
         transform="matrix(0.13333333,0,0,-0.13333333,0,4709.24)" />
      <path
         id="path6"
         d="m 25914.2,14554.2 283.6,-433.2 -70.9,-267.7 -94.7,-23.8 z m -1843,-969.1 -86.7,-15.4 78.8,354.5 70.9,-149.7 z m 2047.7,-448.6 646,188.8 -173.6,630.1 -165,-23.3 55,338.6 -527.9,1000.3 -283.6,125.9 -47.1,110 c -35.4,-28.4 -72.3,-52.5 -114.2,-69.8 -42.5,-17.3 -89,-29.2 -135,-31.1 -32.9,-1.5 -64.9,0.5 -97.2,6.8 l -15.9,-94.7 -220.6,-204.8 -275.6,-929.4 -401.5,-165.6 -228.5,504.1 -346.5,196.8 c -28.1,-15.9 -56.4,-30.6 -87.6,-39.7 -29,-8.2 -58.7,-16.1 -89.1,-16.4 -44.2,-0.6 -88.2,5.1 -130.7,17 h -7.9 l -243.9,-259.7 -244.4,-779.8 -464.4,-441.2 133.8,-125.8 551.2,362.3 70.9,290.9 86.8,-267.6 -354.5,-1094.5 125.9,-39.7 -370.3,-1393.9 197.4,-70.9 527.4,1393.9 212.6,-15.9 583,-1354.2 204.7,63 -417.4,1315.1 c 42.3,9.3 83.9,21.2 126.5,30.6 37.1,8.5 73.7,20.4 110,32.3 l -212.7,653.8 527.4,125.9 -110,535.9 h -125.9 l 86.2,133.9 -15.3,31.1 456.5,126.5 118,204.7 173.5,-724.7 -338.6,-1071.2 -94.7,-1630.4 370.3,-31.7 133.9,1354.7 228.5,504.1 173,-692.9 645.9,-1205.1 338.5,165.6 -606.2,1252.1 62.9,1079.2"
         style="fill:#231f20;fill-opacity:1;fill-rule:evenodd;stroke:none"
         transform="matrix(0.13333333,0,0,-0.13333333,0,4709.24)" />
      <path
         id="path7"
         d="m 25044.6,15534.7 c 141.2,-96.4 330.1,-99.5 471.2,-2 121.7,83.9 182.1,206.4 185.8,352.4 3.4,139.6 -70.3,274.2 -184.9,352.5 -117.7,80.2 -267.9,94.1 -398.7,38.3 -155.3,-66.7 -259.1,-221.2 -259.1,-390.8 -0.3,-139.5 70.6,-271.9 185.7,-350.4"
         style="fill:#231f20;fill-opacity:1;fill-rule:evenodd;stroke:none"
         transform="matrix(0.13333333,0,0,-0.13333333,0,4709.24)" />
      <path
         id="path8"
         d="m 23725.3,14751 c 152,64.9 246.4,206.1 251.2,370.3 4,132.4 -74.3,265.7 -183.2,337.1 -155.9,101.8 -371.7,80 -503,-51.9 -131.2,-131.5 -155.1,-347 -52.4,-503 105.2,-159.9 309.9,-228.2 487.4,-152.5"
         style="fill:#231f20;fill-opacity:1;fill-rule:evenodd;stroke:none"
         transform="matrix(0.13333333,0,0,-0.13333333,0,4709.24)" />
      <path
         id="path9"
         d="m 18739.7,10144.6 v -1395 h 1809.2 v 1395 h 980.8 v 8824.5 c 0,1240.2 -2417.2,2245.5 -5310,2245.5 -2892.8,0 -5310,-1005.3 -5310,-2245.5 v -8824.5 h 980.8 v -1395 h 1809.2 v 1395 h 5040"
         style="fill:#231f20;fill-opacity:1;fill-rule:nonzero;stroke:none"
         transform="matrix(0.13333333,0,0,-0.13333333,0,4709.24)" />
      <path
         id="path10"
         d="m 7538.6,13069.6 -948.92,949 v 1342.1 l 948.92,948.9 h 1342.14 l 948.94,-948.9 v -1342.1 l -948.94,-949 H 7538.6"
         style="fill:#bf2519;fill-opacity:1;fill-rule:nonzero;stroke:none"
         transform="matrix(0.13333333,0,0,-0.13333333,0,4709.24)" />
      <path
         id="path11"
         d="m 18154.7,12799.6 c 0,-99.4 -80.6,-180 -180,-180 h -3510 c -99.4,0 -180,80.6 -180,180 v 1620 c 0,99.4 80.6,180 180,180 h 3510 c 99.4,0 180,-80.6 180,-180 v -1620"
         style="fill:#b3dc26;fill-opacity:1;fill-rule:nonzero;stroke:none"
         transform="matrix(0.13333333,0,0,-0.13333333,0,4709.24)" />
      <path
         id="path12"
         d="m 13924.7,15904.6 c 0,-99.4 -80.6,-180 -180,-180 h -2205 c -99.4,0 -180,80.6 -180,180 v 2205 c 0,99.4 80.6,180 180,180 h 2205 c 99.4,0 180,-80.6 180,-180 v -2205"
         style="fill:#b3dc26;fill-opacity:1;fill-rule:nonzero;stroke:none"
         transform="matrix(0.13333333,0,0,-0.13333333,0,4709.24)" />
      <path
         id="path13"
         d="m 18154.7,15904.6 c 0,-99.4 -80.6,-180 -180,-180 h -3510 c -99.4,0 -180,80.6 -180,180 v 2205 c 0,99.4 80.6,180 180,180 h 3510 c 99.4,0 180,-80.6 180,-180 v -2205"
         style="fill:#b3dc26;fill-opacity:1;fill-rule:nonzero;stroke:none"
         transform="matrix(0.13333333,0,0,-0.13333333,0,4709.24)" />
      <path
         id="path14"
         d="m 21079.7,15904.6 c 0,-99.4 -80.6,-180 -180,-180 h -2205 c -99.4,0 -180,80.6 -180,180 v 2205 c 0,99.4 80.6,180 180,180 h 2205 c 99.4,0 180,-80.6 180,-180 v -2205"
         style="fill:#b3dc26;fill-opacity:1;fill-rule:nonzero;stroke:none"
         transform="matrix(0.13333333,0,0,-0.13333333,0,4709.24)" />
      <path
         id="path15"
         d="m 12529.6,19144.6 c 0,-248.5 -201.4,-450 -449.9,-450 -248.5,0 -450.1,201.5 -450.1,450 0,248.5 201.6,450 450.1,450 248.5,0 449.9,-201.5 449.9,-450"
         style="fill:#bf2519;fill-opacity:1;fill-rule:nonzero;stroke:none"
         transform="matrix(0.13333333,0,0,-0.13333333,0,4709.24)" />
      <path
         id="path16"
         d="m 12349.6,14689.6 c 0,-248.5 -201.4,-450 -449.9,-450 -248.5,0 -450.1,201.5 -450.1,450 0,248.5 201.6,450 450.1,450 248.5,0 449.9,-201.5 449.9,-450"
         style="fill:#bf2519;fill-opacity:1;fill-rule:nonzero;stroke:none"
         transform="matrix(0.13333333,0,0,-0.13333333,0,4709.24)" />
      <path
         id="path17"
         d="m 13429.6,14689.6 c 0,-248.5 -201.4,-450 -449.9,-450 -248.5,0 -450.1,201.5 -450.1,450 0,248.5 201.6,450 450.1,450 248.5,0 449.9,-201.5 449.9,-450"
         style="fill:#bf2519;fill-opacity:1;fill-rule:nonzero;stroke:none"
         transform="matrix(0.13333333,0,0,-0.13333333,0,4709.24)" />
      <path
         id="path18"
         d="m 13384.6,13789.6 h -1890 v -180 h 1890 v 180"
         style="fill:#b3dc26;fill-opacity:1;fill-rule:nonzero;stroke:none"
         transform="matrix(0.13333333,0,0,-0.13333333,0,4709.24)" />
      <path
         id="path19"
         d="m 20089.7,14689.6 c 0,-248.5 201.4,-450 450,-450 248.5,0 450,201.5 450,450 0,248.5 -201.5,450 -450,450 -248.6,0 -450,-201.5 -450,-450"
         style="fill:#bf2519;fill-opacity:1;fill-rule:nonzero;stroke:none"
         transform="matrix(0.13333333,0,0,-0.13333333,0,4709.24)" />
      <path
         id="path20"
         d="m 19009.7,14689.6 c 0,-248.5 201.4,-450 450,-450 248.5,0 450,201.5 450,450 0,248.5 -201.5,450 -450,450 -248.6,0 -450,-201.5 -450,-450"
         style="fill:#bf2519;fill-opacity:1;fill-rule:nonzero;stroke:none"
         transform="matrix(0.13333333,0,0,-0.13333333,0,4709.24)" />
      <path
         id="path21"
         d="m 19054.7,13789.6 h 1890 v -180 h -1890 v 180"
         style="fill:#b3dc26;fill-opacity:1;fill-rule:nonzero;stroke:none"
         transform="matrix(0.13333333,0,0,-0.13333333,0,4709.24)" />
      <path
         id="path22"
         d="m 20989.7,11224.6 c 0,-49.7 -40.3,-90 -90,-90 h -9360 c -49.7,0 -90,40.3 -90,90 v 0 c 0,49.7 40.3,90 90,90 h 9360 c 49.7,0 90,-40.3 90,-90 v 0"
         style="fill:#b3dc26;fill-opacity:1;fill-rule:nonzero;stroke:none"
         transform="matrix(0.13333333,0,0,-0.13333333,0,4709.24)" />
      <path
         id="path23"
         d="m 20989.7,10684.6 c 0,-49.7 -40.3,-90 -90,-90 h -9360 c -49.7,0 -90,40.3 -90,90 v 0 c 0,49.7 40.3,90 90,90 h 9360 c 49.7,0 90,-40.3 90,-90 v 0"
         style="fill:#b3dc26;fill-opacity:1;fill-rule:nonzero;stroke:none"
         transform="matrix(0.13333333,0,0,-0.13333333,0,4709.24)" />
      <path
         id="path24"
         d="m 9919.68,14374.6 h 900.02 v 630 h -900.02 v -630"
         style="fill:#231f20;fill-opacity:1;fill-rule:nonzero;stroke:none"
         transform="matrix(0.13333333,0,0,-0.13333333,0,4709.24)" />
      <path
         id="path25"
         d="m 19458.5,22249.6 c 0,0 -117.9,-294.1 -418.8,-1033.9 -234.1,-664.6 -522.5,-376.2 -581,-342.8 -58.5,33.5 -1079.5,676.4 -1079.5,676.4 l 480.9,-1089.5 c 291,-498.3 -221,-765.3 -221,-765.3 l -1689.4,-661.4 1663.4,-13 c 753.8,-12.9 589.7,-747.2 589.7,-747.2 l -222.1,-1043.6 827.1,897.4 c 361.9,336.8 699.6,40.7 699.6,40.7 l 743.8,-1092.8 -173.3,1232.5 c -129.2,580.1 516.7,569.4 516.7,569.4 l 1385.1,52.8 -1325.6,518.8 c -649.8,259.4 -181.9,700.4 -181.9,700.4 l 1039.6,985.7 -1182.6,-441 c -545.8,-233.4 -636.8,194.6 -636.8,194.6 l -233.9,1361.8"
         style="fill:#bf2519;fill-opacity:1;fill-rule:nonzero;stroke:none"
         transform="matrix(0.13333333,0,0,-0.13333333,0,4709.24)" />
    </g>
  </g>
</svg>
