<?xml version="1.0" encoding="UTF-8" standalone="no"?>
<!-- Created with Inkscape (http://www.inkscape.org/) -->

<svg
   version="1.1"
   id="svg1"
   width="6278.7734"
   height="6278.7734"
   viewBox="0 0 6278.7734 6278.7734"
   sodipodi:docname="tmp49vw2_zw.pdf"
   xmlns:inkscape="http://www.inkscape.org/namespaces/inkscape"
   xmlns:sodipodi="http://sodipodi.sourceforge.net/DTD/sodipodi-0.dtd"
   xmlns="http://www.w3.org/2000/svg"
   xmlns:svg="http://www.w3.org/2000/svg">
  <defs
     id="defs1" />
  <sodipodi:namedview
     id="namedview1"
     pagecolor="#ffffff"
     bordercolor="#000000"
     borderopacity="0.25"
     inkscape:showpageshadow="2"
     inkscape:pageopacity="0.0"
     inkscape:pagecheckerboard="0"
     inkscape:deskcolor="#d1d1d1">
    <inkscape:page
       x="0"
       y="0"
       inkscape:label="1"
       id="page1"
       width="6278.7734"
       height="6278.7734"
       margin="0"
       bleed="0" />
  </sodipodi:namedview>
  <g
     id="g1"
     inkscape:groupmode="layer"
     inkscape:label="1">
    <g
       id="group-R5">
      <path
         id="path2"
         d="m 25072.7,635.102 c -843.5,-843.5 -2211.1,-843.5 -3054.6,0 L 635.152,22018 c -843.535,843.6 -843.535,2211.2 0,3054.7 l 21382.948,21383 c 843.5,843.5 2211.1,843.5 3054.6,0 l 21383,-21383 c 843.5,-843.5 843.5,-2211.1 0,-3054.7 L 25072.7,635.102"
         style="fill:#b3dc26;fill-opacity:1;fill-rule:nonzero;stroke:#231f20;stroke-width:5;stroke-linecap:butt;stroke-linejoin:miter;stroke-miterlimit:4;stroke-dasharray:none;stroke-opacity:1"
         transform="matrix(0.13333333,0,0,-0.13333333,0,6278.7733)" />
      <path
         id="path3"
         d="m 1016.99,22399.9 c -631.642,631.6 -631.642,1659.4 0,2291 L 22399.9,46073.8 c 631.6,631.7 1659.4,631.7 2291,0 L 46073.8,24690.9 c 631.7,-631.6 631.7,-1659.4 0,-2291 L 24690.9,1017 c -631.6,-631.699 -1659.4,-631.699 -2291,0 L 1016.99,22399.9"
         style="fill:#231f20;fill-opacity:1;fill-rule:nonzero;stroke:none"
         transform="matrix(0.13333333,0,0,-0.13333333,0,6278.7733)" />
      <path
         id="path4"
         d="m 1653.38,23036.3 c -280.73,280.7 -280.73,737.5 0,1018.2 L 23036.3,45437.4 c 280.7,280.7 737.5,280.7 1018.2,0 L 45437.4,24054.5 c 280.8,-280.7 280.8,-737.5 0,-1018.2 L 24054.5,1653.4 c -280.7,-280.8 -737.5,-280.8 -1018.2,0 L 1653.38,23036.3"
         style="fill:#b3dc26;fill-opacity:1;fill-rule:nonzero;stroke:none"
         transform="matrix(0.13333333,0,0,-0.13333333,0,6278.7733)" />
      <path
         id="path5"
         d="m 32433.5,35823.3 -8886.8,8378.1 -8886.8,-8378.1 c -69.7,-65.6 -113.2,-158.7 -113.2,-261.9 0,-198.8 161.1,-360 360,-360 14.7,0 29.2,1 43.5,2.7 l 5716.5,716.4 v -4679.1 h 5760 v 4679.1 l 5716.4,-716.4 c 14.3,-1.7 28.8,-2.7 43.6,-2.7 198.8,0 360,161.2 360,360 0,103.2 -43.6,196.3 -113.2,261.9"
         style="fill:#231f20;fill-opacity:1;fill-rule:nonzero;stroke:none"
         transform="matrix(0.13333333,0,0,-0.13333333,0,6278.7733)" />
      <path
         id="path6"
         d="m 34551.5,19404.8 378,-577.6 -94.5,-356.9 -126.3,-31.8 z m -2457.4,-1292.2 -115.7,-20.4 105.1,472.6 94.6,-199.6 z m 2730.3,-598.1 861.2,251.9 -231.3,840 -220.1,-31 73.4,451.4 -704,1333.7 -378,167.9 -62.8,146.7 c -47.2,-37.8 -96.4,-70 -152.3,-93 -56.7,-23.1 -118.7,-38.9 -180,-41.6 -43.8,-1.9 -86.5,0.7 -129.7,9.1 l -21.1,-126.3 -294.1,-272.9 -367.5,-1239.3 -535.4,-220.8 -304.6,672.2 -462,262.3 c -37.5,-21.1 -75.3,-40.8 -116.8,-52.9 -38.6,-11 -78.3,-21.5 -118.8,-21.9 -59,-0.8 -117.5,6.8 -174.2,22.7 h -10.6 l -325.1,-346.3 -325.9,-1039.7 -619.3,-588.2 178.4,-167.9 735,483.2 94.5,387.8 115.7,-356.8 -472.6,-1459.3 167.9,-53 -493.8,-1858.5 263.2,-94.5 703.1,1858.5 283.6,-21.1 777.3,-1805.6 272.9,83.9 -556.5,1753.4 c 56.3,12.5 111.9,28.4 168.6,40.9 49.6,11.3 98.3,27.2 146.7,43 l -283.5,871.8 703.1,167.9 -146.6,714.5 h -167.9 l 114.9,178.5 -20.4,41.6 608.7,168.6 157.3,272.9 231.4,-966.3 -451.5,-1428.3 -126.2,-2173.8 493.7,-42.3 178.4,1806.3 304.8,672.2 230.6,-924 861.2,-1606.7 451.4,220.8 -808.3,1669.5 83.9,1438.8"
         style="fill:#231f20;fill-opacity:1;fill-rule:evenodd;stroke:none"
         transform="matrix(0.13333333,0,0,-0.13333333,0,6278.7733)" />
      <path
         id="path7"
         d="m 33392,20712.1 c 188.3,-128.5 440,-132.7 628.3,-2.6 162.2,111.9 242.7,275.2 247.6,469.9 4.6,186 -93.7,365.6 -246.4,469.9 -157,107 -357.3,125.5 -531.6,51.1 -207.2,-88.9 -345.5,-294.9 -345.5,-521 -0.4,-186 94.1,-362.6 247.6,-467.3"
         style="fill:#231f20;fill-opacity:1;fill-rule:evenodd;stroke:none"
         transform="matrix(0.13333333,0,0,-0.13333333,0,6278.7733)" />
      <path
         id="path8"
         d="m 31632.9,19667.2 c 202.6,86.6 328.5,274.8 334.9,493.7 5.4,176.6 -99,354.3 -244.2,449.6 -207.9,135.7 -495.6,106.5 -670.6,-69.3 -175.1,-175.4 -206.8,-462.7 -70,-670.6 140.3,-213.2 413.2,-304.3 649.9,-203.4"
         style="fill:#231f20;fill-opacity:1;fill-rule:evenodd;stroke:none"
         transform="matrix(0.13333333,0,0,-0.13333333,0,6278.7733)" />
      <path
         id="path9"
         d="m 24985.4,13525.4 v -1860 h 2412.3 v 1860 h 1307.7 v 11766 c 0,1653.5 -3222.9,2994 -7080,2994 -3857.1,0 -7080,-1340.5 -7080,-2994 v -11766 h 1307.8 v -1860 h 2412.2 v 1860 h 6720"
         style="fill:#231f20;fill-opacity:1;fill-rule:nonzero;stroke:none"
         transform="matrix(0.13333333,0,0,-0.13333333,0,6278.7733)" />
      <path
         id="path10"
         d="m 10050.6,17425.4 -1265.19,1265.3 v 1789.5 l 1265.19,1265.2 h 1789.6 l 1265.2,-1265.2 v -1789.5 l -1265.2,-1265.3 h -1789.6"
         style="fill:#bf2519;fill-opacity:1;fill-rule:nonzero;stroke:none"
         transform="matrix(0.13333333,0,0,-0.13333333,0,6278.7733)" />
      <path
         id="path11"
         d="m 24205.4,17065.4 c 0,-132.6 -107.4,-240 -240,-240 h -4680 c -132.5,0 -240,107.4 -240,240 v 2160 c 0,132.5 107.5,240 240,240 h 4680 c 132.6,0 240,-107.5 240,-240 v -2160"
         style="fill:#b3dc26;fill-opacity:1;fill-rule:nonzero;stroke:none"
         transform="matrix(0.13333333,0,0,-0.13333333,0,6278.7733)" />
      <path
         id="path12"
         d="m 18565.4,21205.4 c 0,-132.6 -107.4,-240 -240,-240 h -2940 c -132.5,0 -240,107.4 -240,240 v 2940 c 0,132.5 107.5,240 240,240 h 2940 c 132.6,0 240,-107.5 240,-240 v -2940"
         style="fill:#b3dc26;fill-opacity:1;fill-rule:nonzero;stroke:none"
         transform="matrix(0.13333333,0,0,-0.13333333,0,6278.7733)" />
      <path
         id="path13"
         d="m 24205.4,21205.4 c 0,-132.6 -107.4,-240 -240,-240 h -4680 c -132.5,0 -240,107.4 -240,240 v 2940 c 0,132.5 107.5,240 240,240 h 4680 c 132.6,0 240,-107.5 240,-240 v -2940"
         style="fill:#b3dc26;fill-opacity:1;fill-rule:nonzero;stroke:none"
         transform="matrix(0.13333333,0,0,-0.13333333,0,6278.7733)" />
      <path
         id="path14"
         d="m 28105.4,21205.4 c 0,-132.6 -107.4,-240 -240,-240 h -2940 c -132.5,0 -240,107.4 -240,240 v 2940 c 0,132.5 107.5,240 240,240 h 2940 c 132.6,0 240,-107.5 240,-240 v -2940"
         style="fill:#b3dc26;fill-opacity:1;fill-rule:nonzero;stroke:none"
         transform="matrix(0.13333333,0,0,-0.13333333,0,6278.7733)" />
      <path
         id="path15"
         d="m 16705.4,25525.4 c 0,-331.4 -268.6,-600 -600,-600 -331.4,0 -600,268.6 -600,600 0,331.4 268.6,600 600,600 331.4,0 600,-268.6 600,-600"
         style="fill:#bf2519;fill-opacity:1;fill-rule:nonzero;stroke:none"
         transform="matrix(0.13333333,0,0,-0.13333333,0,6278.7733)" />
      <path
         id="path16"
         d="m 16465.4,19585.4 c 0,-331.4 -268.6,-600 -600,-600 -331.4,0 -600,268.6 -600,600 0,331.4 268.6,600 600,600 331.4,0 600,-268.6 600,-600"
         style="fill:#bf2519;fill-opacity:1;fill-rule:nonzero;stroke:none"
         transform="matrix(0.13333333,0,0,-0.13333333,0,6278.7733)" />
      <path
         id="path17"
         d="m 17905.4,19585.4 c 0,-331.4 -268.6,-600 -600,-600 -331.4,0 -600,268.6 -600,600 0,331.4 268.6,600 600,600 331.4,0 600,-268.6 600,-600"
         style="fill:#bf2519;fill-opacity:1;fill-rule:nonzero;stroke:none"
         transform="matrix(0.13333333,0,0,-0.13333333,0,6278.7733)" />
      <path
         id="path18"
         d="m 17845.4,18385.4 h -2520 v -240 h 2520 v 240"
         style="fill:#b3dc26;fill-opacity:1;fill-rule:nonzero;stroke:none"
         transform="matrix(0.13333333,0,0,-0.13333333,0,6278.7733)" />
      <path
         id="path19"
         d="m 26785.5,19585.4 c 0,-331.4 268.5,-600 599.9,-600 331.4,0 600.1,268.6 600.1,600 0,331.4 -268.7,600 -600.1,600 -331.4,0 -599.9,-268.6 -599.9,-600"
         style="fill:#bf2519;fill-opacity:1;fill-rule:nonzero;stroke:none"
         transform="matrix(0.13333333,0,0,-0.13333333,0,6278.7733)" />
      <path
         id="path20"
         d="m 25345.5,19585.4 c 0,-331.4 268.5,-600 599.9,-600 331.4,0 600.1,268.6 600.1,600 0,331.4 -268.7,600 -600.1,600 -331.4,0 -599.9,-268.6 -599.9,-600"
         style="fill:#bf2519;fill-opacity:1;fill-rule:nonzero;stroke:none"
         transform="matrix(0.13333333,0,0,-0.13333333,0,6278.7733)" />
      <path
         id="path21"
         d="m 25405.5,18385.4 h 2520 v -240 h -2520 v 240"
         style="fill:#b3dc26;fill-opacity:1;fill-rule:nonzero;stroke:none"
         transform="matrix(0.13333333,0,0,-0.13333333,0,6278.7733)" />
      <path
         id="path22"
         d="m 27985.4,14965.4 c 0,-66.3 -53.7,-120 -120,-120 h -12480 c -66.3,0 -120,53.7 -120,120 v 0 c 0,66.3 53.7,120 120,120 h 12480 c 66.3,0 120,-53.7 120,-120 v 0"
         style="fill:#b3dc26;fill-opacity:1;fill-rule:nonzero;stroke:none"
         transform="matrix(0.13333333,0,0,-0.13333333,0,6278.7733)" />
      <path
         id="path23"
         d="m 27985.4,14245.4 c 0,-66.3 -53.7,-120 -120,-120 h -12480 c -66.3,0 -120,53.7 -120,120 v 0 c 0,66.3 53.7,120 120,120 h 12480 c 66.3,0 120,-53.7 120,-120 v 0"
         style="fill:#b3dc26;fill-opacity:1;fill-rule:nonzero;stroke:none"
         transform="matrix(0.13333333,0,0,-0.13333333,0,6278.7733)" />
      <path
         id="path24"
         d="m 13225.4,19165.4 h 1200 v 840 h -1200 v -840"
         style="fill:#231f20;fill-opacity:1;fill-rule:nonzero;stroke:none"
         transform="matrix(0.13333333,0,0,-0.13333333,0,6278.7733)" />
      <path
         id="path25"
         d="m 25943.8,29665.4 c 0,0 -157.2,-392.2 -558.4,-1378.6 -312.1,-886.1 -696.6,-501.6 -774.6,-457 -78,44.6 -1439.3,901.8 -1439.3,901.8 l 641.1,-1452.7 c 388,-664.3 -294.6,-1020.3 -294.6,-1020.3 l -2252.6,-882 2217.9,-17.2 c 1005.1,-17.3 786.3,-996.3 786.3,-996.3 l -296.1,-1391.5 1102.7,1196.6 c 482.6,449.1 932.8,54.3 932.8,54.3 l 991.8,-1457.1 -231.1,1643.3 c -172.3,773.5 688.9,759.2 688.9,759.2 l 1846.8,70.4 -1767.4,691.7 c -866.4,345.9 -242.6,933.9 -242.6,933.9 l 1386.1,1314.3 -1576.7,-588 c -727.8,-311.3 -849.1,259.4 -849.1,259.4 l -311.9,1815.8"
         style="fill:#bf2519;fill-opacity:1;fill-rule:nonzero;stroke:none"
         transform="matrix(0.13333333,0,0,-0.13333333,0,6278.7733)" />
    </g>
  </g>
</svg>
