<?xml version="1.0" encoding="UTF-8" standalone="no"?>
<!-- Created with Inkscape (http://www.inkscape.org/) -->

<svg
   version="1.1"
   id="svg1"
   width="4709.2534"
   height="4709.2534"
   viewBox="0 0 4709.2534 4709.2534"
   sodipodi:docname="tmpj6hkqcfh.pdf"
   xmlns:inkscape="http://www.inkscape.org/namespaces/inkscape"
   xmlns:sodipodi="http://sodipodi.sourceforge.net/DTD/sodipodi-0.dtd"
   xmlns="http://www.w3.org/2000/svg"
   xmlns:svg="http://www.w3.org/2000/svg">
  <defs
     id="defs1" />
  <sodipodi:namedview
     id="namedview1"
     pagecolor="#ffffff"
     bordercolor="#000000"
     borderopacity="0.25"
     inkscape:showpageshadow="2"
     inkscape:pageopacity="0.0"
     inkscape:pagecheckerboard="0"
     inkscape:deskcolor="#d1d1d1">
    <inkscape:page
       x="0"
       y="0"
       inkscape:label="1"
       id="page1"
       width="4709.2534"
       height="4709.2534"
       margin="0"
       bleed="0" />
  </sodipodi:namedview>
  <g
     id="g1"
     inkscape:groupmode="layer"
     inkscape:label="1">
    <g
       id="group-R5">
      <path
         id="path2"
         d="m 18805.2,477 c -632.7,-632.602 -1658.4,-632.602 -2291,0 L 476.988,16514.2 c -632.652,632.7 -632.648,1658.4 0,2291 L 16514.2,34842.4 c 632.6,632.7 1658.3,632.7 2291,0 L 34842.4,18805.2 c 632.6,-632.6 632.6,-1658.3 0,-2291 L 18805.2,477"
         style="fill:#b3dc26;fill-opacity:1;fill-rule:nonzero;stroke:#231f20;stroke-width:5;stroke-linecap:butt;stroke-linejoin:miter;stroke-miterlimit:4;stroke-dasharray:none;stroke-opacity:1"
         transform="matrix(0.13333333,0,0,-0.13333333,0,4709.2533)" />
      <path
         id="path3"
         d="m 795.188,16832.4 c -456.184,456.2 -456.184,1198.5 0,1654.6 L 16832.4,34524.2 c 456.1,456.2 1198.4,456.2 1654.6,0 L 34524.2,18487 c 456.2,-456.1 456.2,-1198.4 0,-1654.6 L 18487,795.199 C 18030.8,339 17288.5,339 16832.4,795.199 L 795.188,16832.4"
         style="fill:#231f20;fill-opacity:1;fill-rule:nonzero;stroke:none"
         transform="matrix(0.13333333,0,0,-0.13333333,0,4709.2533)" />
      <path
         id="path4"
         d="m 1240.66,17277.9 c -210.54,210.5 -210.54,553.1 0,763.7 L 17277.8,34078.7 c 210.6,210.6 553.2,210.6 763.7,0 L 34078.7,18041.6 c 210.5,-210.6 210.5,-553.2 0,-763.7 L 18041.5,1240.7 c -210.5,-210.5 -553.1,-210.5 -763.7,0 L 1240.66,17277.9"
         style="fill:#b3dc26;fill-opacity:1;fill-rule:nonzero;stroke:none"
         transform="matrix(0.13333333,0,0,-0.13333333,0,4709.2533)" />
      <path
         id="path5"
         d="m 7037.88,17455.1 h -620.2 V 16106 h 620.2 c 347.91,0 574.82,242.6 574.82,621.5 0,409.3 -257.16,727.6 -574.82,727.6 z m 30.25,1758.3 h -650.45 v -1152 h 650.45 c 287.41,0 468.93,242.5 468.93,636.7 0,363.7 -136.13,515.3 -468.93,515.3 z m 0,-3713.7 H 5797.48 v 4320 h 1361.41 c 574.81,0 983.24,-454.7 983.24,-1121.6 0,-394.2 -105.88,-576.1 -453.8,-939.8 332.78,-272.9 529.43,-636.7 529.43,-1076.2 0,-651.8 -514.31,-1182.4 -1149.63,-1182.4"
         style="fill:#231f20;fill-opacity:1;fill-rule:nonzero;stroke:none"
         transform="matrix(0.13333333,0,0,-0.13333333,0,4709.2533)" />
      <path
         id="path6"
         d="m 29052.9,15499.7 -1331.1,2895.2 v -2895.2 h -620.2 v 4320 h 620.2 l 1179.9,-2592 v 2592 h 620.2 v -4320 h -469"
         style="fill:#231f20;fill-opacity:1;fill-rule:nonzero;stroke:none"
         transform="matrix(0.13333333,0,0,-0.13333333,0,4709.2533)" />
      <path
         id="path7"
         d="m 25202.4,19213.4 h -635.3 V 18122 h 635.3 c 363.1,0 559.7,197.1 559.7,545.7 0,333.5 -226.9,545.7 -559.7,545.7 z m 529.5,-3713.7 -574.9,2031.2 h -589.9 v -2031.2 h -620.2 v 4320 h 1285.8 c 680.7,0 1134.5,-454.7 1134.5,-1152 0,-515.3 -211.8,-894.3 -620.2,-1045.9 l 620.2,-2122.1 h -635.3"
         style="fill:#231f20;fill-opacity:1;fill-rule:nonzero;stroke:none"
         transform="matrix(0.13333333,0,0,-0.13333333,0,4709.2533)" />
      <path
         id="path8"
         d="m 13337,17494.8 c -186.9,121 -368.4,242.6 -484.3,324.1 -348.3,245.1 -532.7,576 -532.7,954.9 0,621.5 487.1,1121.7 1111.2,1121.7 608.8,0 1080.7,-469.9 1095.9,-1121.7 h -593.6 c -15.2,303.2 -228.3,500.2 -502.3,500.2 -289.3,0 -517.6,-212.2 -517.6,-500.2 0,-212.2 91.4,-333.4 411,-515.3 837.2,-485.1 1202.5,-955 1202.5,-1576.5 0,-697.2 -532.7,-1258.1 -1202.5,-1258.1 -761.1,0 -1217.7,636.7 -1217.7,1349.1 h 608.8 c 0,-363.8 182.7,-742.8 608.9,-742.8 334.9,0 608.9,303.2 608.9,651.8 0,270.7 -111.9,498.7 -596.5,812.8"
         style="fill:#231f20;fill-opacity:1;fill-rule:nonzero;stroke:none"
         transform="matrix(0.13333333,0,0,-0.13333333,0,4709.2533)" />
      <path
         id="path9"
         d="m 19180.9,19243.7 v -3744 h -623.3 v 3744 h -790.5 v 576 h 2204.3 v -576 h -790.5"
         style="fill:#231f20;fill-opacity:1;fill-rule:nonzero;stroke:none"
         transform="matrix(0.13333333,0,0,-0.13333333,0,4709.2533)" />
      <path
         id="path10"
         d="m 11206.1,16030.2 c -211.8,-348.6 -620.2,-606.3 -1028.6,-606.3 -423.61,0 -847.18,242.6 -1058.94,606.3 -121.02,227.4 -166.4,409.3 -166.4,757.9 v 3031.6 h 620.2 v -3107.4 c 0,-409.2 242.03,-682.1 605.14,-682.1 332.7,0 574.8,272.9 574.8,682.1 v 3107.4 h 620.2 v -3031.6 c 0,-348.6 -45.4,-530.5 -166.4,-757.9"
         style="fill:#231f20;fill-opacity:1;fill-rule:nonzero;stroke:none"
         transform="matrix(0.13333333,0,0,-0.13333333,0,4709.2533)" />
      <path
         id="path11"
         d="m 22830.1,16030.3 c -211.8,-348.7 -620.2,-606.4 -1028.6,-606.4 -423.5,0 -847.1,242.6 -1058.9,606.4 -121,227.3 -166.4,409.2 -166.4,757.8 v 3031.6 h 620.2 v -3107.4 c 0,-409.2 242,-682 605.1,-682 332.8,0 574.8,272.8 574.8,682 v 3107.4 h 620.2 v -3031.6 c 0,-348.6 -45.4,-530.5 -166.4,-757.8"
         style="fill:#231f20;fill-opacity:1;fill-rule:nonzero;stroke:none"
         transform="matrix(0.13333333,0,0,-0.13333333,0,4709.2533)" />
      <path
         id="path12"
         d="m 11734.7,12051.3 -304,-1242.9 h 623.2 z m 775.1,-3031.6 -304,1182.3 h -927 L 10990,9019.7 h -623 l 1078.9,4320 h 608 l 1078.9,-4320 h -623"
         style="fill:#231f20;fill-opacity:1;fill-rule:nonzero;stroke:none"
         transform="matrix(0.13333333,0,0,-0.13333333,0,4709.2533)" />
      <path
         id="path13"
         d="m 21069.1,12051.3 -303.9,-1242.9 h 623.1 z m 775.1,-3031.6 -304,1182.3 h -927 l -288.7,-1182.3 h -623.1 l 1079,4320 h 607.9 l 1079,-4320 h -623.1"
         style="fill:#231f20;fill-opacity:1;fill-rule:nonzero;stroke:none"
         transform="matrix(0.13333333,0,0,-0.13333333,0,4709.2533)" />
      <path
         id="path14"
         d="m 24766.3,12293.8 c -105.9,303.2 -287.4,439.6 -559.7,439.6 h -514.3 V 9626.1 h 514.3 c 363.1,0 559.7,287.9 620.2,621.4 30.3,272.9 60.5,576 60.5,909.5 0,485 -45.4,954.9 -121,1136.8 z m 105.9,-3077 c -151.3,-136.4 -363.1,-197.1 -605.1,-197.1 h -1195 v 4320 h 1104.3 c 363,0 544.5,-45.4 695.8,-166.7 257.1,-181.9 438.7,-515.4 514.3,-954.9 60.5,-318.4 105.9,-697.3 105.9,-1030.8 0,-1000.4 -196.7,-1637.1 -620.2,-1970.5"
         style="fill:#231f20;fill-opacity:1;fill-rule:nonzero;stroke:none"
         transform="matrix(0.13333333,0,0,-0.13333333,0,4709.2533)" />
      <path
         id="path15"
         d="m 17108.3,9019.7 v 4320 h 2037.1 v -606.3 H 17731.6 V 11642 h 896.9 v -591.1 h -896.9 V 9626.1 h 1581 v -606.4 h -2204.3"
         style="fill:#231f20;fill-opacity:1;fill-rule:nonzero;stroke:none"
         transform="matrix(0.13333333,0,0,-0.13333333,0,4709.2533)" />
      <path
         id="path16"
         d="m 15537.7,9019.7 v 1955.4 H 14357.9 V 9019.7 h -620.3 v 4320 h 620.3 v -1758.3 h 1179.8 v 1758.3 h 620.2 v -4320 h -620.2"
         style="fill:#231f20;fill-opacity:1;fill-rule:nonzero;stroke:none"
         transform="matrix(0.13333333,0,0,-0.13333333,0,4709.2533)" />
      <path
         id="path17"
         d="m 13865.1,25147.7 c -60.9,424.4 -228.4,621.5 -517.6,621.5 -502.3,0 -685,-394.1 -685,-1515.8 0,-1242.9 213.1,-1743.1 745.9,-1743.1 365.3,0 456.7,303.1 456.7,621.4 h 624.1 c -15.3,-712.4 -471.9,-1227.8 -1080.8,-1227.8 -928.5,0 -1339.5,742.8 -1339.5,2334.3 0,1394.6 441.4,2137.3 1293.8,2137.3 350.1,0 654.6,-151.6 852.5,-439.6 167.4,-212.2 228.3,-394.1 274,-788.2 h -624.1"
         style="fill:#231f20;fill-opacity:1;fill-rule:nonzero;stroke:none"
         transform="matrix(0.13333333,0,0,-0.13333333,0,4709.2533)" />
      <path
         id="path18"
         d="m 16980.4,21979.7 v 1955.4 h -1179.8 v -1955.4 h -620.2 v 4320 h 620.2 v -1758.3 h 1179.8 v 1758.3 h 620.2 v -4320 h -620.2"
         style="fill:#231f20;fill-opacity:1;fill-rule:nonzero;stroke:none"
         transform="matrix(0.13333333,0,0,-0.13333333,0,4709.2533)" />
      <path
         id="path19"
         d="m 24704.8,21979.7 v 4320 h 623.3 v -3744 h 1581 v -576 h -2204.3"
         style="fill:#231f20;fill-opacity:1;fill-rule:nonzero;stroke:none"
         transform="matrix(0.13333333,0,0,-0.13333333,0,4709.2533)" />
      <path
         id="path20"
         d="m 20108.8,25223.5 c -106.9,378.9 -274.8,545.7 -534.4,545.7 -274.8,0 -442.8,-166.8 -549.7,-530.5 -106.9,-333.5 -137.4,-621.5 -137.4,-1106.5 0,-469.9 45.8,-742.8 137.4,-1091.4 106.9,-363.8 274.9,-530.5 549.7,-530.5 259.6,0 427.5,166.7 534.4,530.5 106.9,348.6 137.4,606.3 137.4,1106.5 0,485.1 -45.8,757.9 -137.4,1076.2 z m 488.6,-2576.8 c -213.8,-515.4 -534.4,-742.8 -1023,-742.8 -519.2,0 -824.5,227.4 -1038.3,742.8 -183.2,424.4 -244.3,833.7 -244.3,1500.6 0,651.8 61.1,1091.4 244.3,1500.6 229,515.4 534.4,727.6 1038.3,727.6 503.9,0 809.2,-212.2 1023,-742.7 183.2,-424.4 244.3,-833.7 244.3,-1485.5 0,-666.9 -61.1,-1091.4 -244.3,-1500.6"
         style="fill:#231f20;fill-opacity:1;fill-rule:nonzero;stroke:none"
         transform="matrix(0.13333333,0,0,-0.13333333,0,4709.2533)" />
      <path
         id="path21"
         d="m 23280.7,25223.5 c -106.8,378.9 -274.8,545.7 -534.4,545.7 -274.8,0 -442.8,-166.8 -549.6,-530.5 -106.9,-333.5 -137.4,-621.5 -137.4,-1106.5 0,-469.9 45.8,-742.8 137.4,-1091.4 106.8,-363.8 274.8,-530.5 549.6,-530.5 259.6,0 427.6,166.7 534.4,530.5 107,348.6 137.5,606.3 137.5,1106.5 0,485.1 -45.9,757.9 -137.5,1076.2 z m 488.7,-2576.8 c -213.8,-515.4 -534.4,-742.8 -1023.1,-742.8 -519.1,0 -824.5,227.4 -1038.2,742.8 -183.3,424.4 -244.3,833.7 -244.3,1500.6 0,651.8 61,1091.4 244.3,1500.6 229,515.4 534.4,727.6 1038.2,727.6 503.9,0 809.3,-212.2 1023.1,-742.7 183.2,-424.4 244.3,-833.7 244.3,-1485.5 0,-666.9 -61.1,-1091.4 -244.3,-1500.6"
         style="fill:#231f20;fill-opacity:1;fill-rule:nonzero;stroke:none"
         transform="matrix(0.13333333,0,0,-0.13333333,0,4709.2533)" />
      <path
         id="path22"
         d="m 10360.3,23974.8 c -186.9,121.1 -368.37,242.5 -484.23,324.1 -348.28,245.1 -532.76,576 -532.76,954.9 0,621.5 487.1,1121.7 1111.19,1121.7 608.9,0 1080.8,-469.9 1096,-1121.7 h -593.7 c -15.2,303.2 -228.3,500.3 -502.3,500.3 -289.2,0 -517.53,-212.3 -517.53,-500.3 0,-212.2 91.33,-333.4 411.03,-515.3 837.2,-485.1 1202.5,-955 1202.5,-1576.5 0,-697.2 -532.8,-1258.1 -1202.5,-1258.1 -761.15,0 -1217.8,636.7 -1217.8,1349.1 h 608.87 c 0,-363.8 182.67,-742.8 608.93,-742.8 334.8,0 608.8,303.2 608.8,651.8 0,270.7 -111.8,498.7 -596.5,812.8"
         style="fill:#231f20;fill-opacity:1;fill-rule:nonzero;stroke:none"
         transform="matrix(0.13333333,0,0,-0.13333333,0,4709.2533)" />
    </g>
  </g>
</svg>
