<?xml version="1.0" standalone="no"?>
<svg width="4749px" height="4749px" viewBox="-20 -3937 4749 4749 " xmlns="http://www.w3.org/2000/svg" xmlns:xlink="http://www.w3.org/1999/xlink">
<title>generated by pstoedit</title>
<!-- generated by pstoedit version:4.02 -->
<g xml:space='preserve'>
<clipPath id="clippath1"> 	<path d="
	M 0 -3917.08 
	L 0 792 
	L 4709.08 792 
	L 4709.08 -3917.08 
	Z 
	" style="clip-rule:nonzero"/>
</clipPath>
<g style="clip-path:url(#clippath1)"> 
<g fill="#87ffd8" fill-rule="nonzero" stroke-width="0" stroke-linejoin="miter" stroke-linecap="butt" stroke-miterlimit="10" >
	<path d="
	M 2507.27 728.488 
	C 2422.92 812.84 2286.16 812.84 2201.81 728.488 
	L 63.5156 -1409.8 
	C -20.8398 -1494.16 -20.8398 -1630.92 63.5156 -1715.27 
	L 2201.81 -3853.57 
	C 2286.16 -3937.92 2422.92 -3937.92 2507.27 -3853.57 
	L 4645.57 -1715.27 
	C 4729.92 -1630.92 4729.92 -1494.16 4645.57 -1409.8 
	Z 
	"/>
</g>
<g stroke="#7f7f7f" fill="none" stroke-width="0.5" stroke-linejoin="miter" stroke-linecap="butt" stroke-miterlimit="4" >
	<path d="
	M 2507.27 728.488 
	C 2422.92 812.84 2286.16 812.84 2201.81 728.488 
	L 63.5156 -1409.8 
	C -20.8398 -1494.16 -20.8398 -1630.92 63.5156 -1715.27 
	L 2201.81 -3853.57 
	C 2286.16 -3937.92 2422.92 -3937.92 2507.27 -3853.57 
	L 4645.57 -1715.27 
	C 4729.92 -1630.92 4729.92 -1494.16 4645.57 -1409.8 
	Z 
	"/>
</g>
<g fill="#7f7f7f" fill-rule="nonzero" stroke-width="0" stroke-linejoin="miter" stroke-linecap="butt" stroke-miterlimit="4" >
	<path d="
	M 101.699 -1447.99 
	C 38.5352 -1511.15 38.5352 -1613.93 101.699 -1677.09 
	L 2239.99 -3815.38 
	C 2303.15 -3878.55 2405.93 -3878.55 2469.09 -3815.38 
	L 4607.38 -1677.09 
	C 4670.55 -1613.93 4670.55 -1511.15 4607.38 -1447.99 
	L 2469.09 690.301 
	C 2405.93 753.469 2303.15 753.469 2239.99 690.301 
	Z 
	"/>
</g>
<g fill="#87ffd8" fill-rule="nonzero" stroke-width="0" stroke-linejoin="miter" stroke-linecap="butt" stroke-miterlimit="4" >
	<path d="
	M 165.34 -1511.63 
	C 137.266 -1539.7 137.266 -1585.38 165.34 -1613.45 
	L 2303.63 -3751.74 
	C 2331.7 -3779.81 2377.38 -3779.81 2405.45 -3751.74 
	L 4543.74 -1613.45 
	C 4571.82 -1585.38 4571.82 -1539.7 4543.74 -1511.63 
	L 2405.45 626.66 
	C 2377.38 654.738 2331.7 654.738 2303.63 626.66 
	Z 
	"/>
</g>
<g fill="#7f7f7f" fill-rule="nonzero" stroke-width="0" stroke-linejoin="miter" stroke-linecap="butt" stroke-miterlimit="4" >
	<path d="
	M 938.301 -1535.25 
	L 855.609 -1535.25 
	L 855.609 -1355.38 
	L 938.301 -1355.38 
	C 984.691 -1355.38 1014.94 -1387.72 1014.94 -1438.25 
	C 1014.94 -1492.81 980.656 -1535.25 938.301 -1535.25 
	Z 
	M 942.336 -1769.7 
	L 855.609 -1769.7 
	L 855.609 -1616.1 
	L 942.336 -1616.1 
	C 980.656 -1616.1 1004.86 -1648.43 1004.86 -1700.98 
	C 1004.86 -1749.49 986.707 -1769.7 942.336 -1769.7 
	Z 
	M 942.336 -1274.54 
	L 772.918 -1274.54 
	L 772.918 -1850.54 
	L 954.438 -1850.54 
	C 1031.08 -1850.54 1085.53 -1789.91 1085.53 -1700.98 
	C 1085.53 -1648.43 1071.42 -1624.18 1025.03 -1575.68 
	C 1069.4 -1539.3 1095.62 -1490.79 1095.62 -1432.18 
	C 1095.62 -1345.28 1027.04 -1274.54 942.336 -1274.54 
	Z 
	"/>
</g>
<g fill="#7f7f7f" fill-rule="nonzero" stroke-width="0" stroke-linejoin="miter" stroke-linecap="butt" stroke-miterlimit="4" >
	<path d="
	M 3873.64 -1274.54 
	L 3696.15 -1660.56 
	L 3696.15 -1274.54 
	L 3613.46 -1274.54 
	L 3613.46 -1850.54 
	L 3696.15 -1850.54 
	L 3853.47 -1504.94 
	L 3853.47 -1850.54 
	L 3936.17 -1850.54 
	L 3936.17 -1274.54 
	Z 
	"/>
</g>
<g fill="#7f7f7f" fill-rule="nonzero" stroke-width="0" stroke-linejoin="miter" stroke-linecap="butt" stroke-miterlimit="4" >
	<path d="
	M 3360.24 -1769.7 
	L 3275.53 -1769.7 
	L 3275.53 -1624.18 
	L 3360.24 -1624.18 
	C 3408.65 -1624.18 3434.87 -1650.45 3434.87 -1696.94 
	C 3434.87 -1741.4 3404.61 -1769.7 3360.24 -1769.7 
	Z 
	M 3430.83 -1274.54 
	L 3354.19 -1545.36 
	L 3275.53 -1545.36 
	L 3275.53 -1274.54 
	L 3192.84 -1274.54 
	L 3192.84 -1850.54 
	L 3364.27 -1850.54 
	C 3455.04 -1850.54 3515.54 -1789.91 3515.54 -1696.94 
	C 3515.54 -1628.22 3487.31 -1577.7 3432.85 -1557.49 
	L 3515.54 -1274.54 
	Z 
	"/>
</g>
<g fill="#7f7f7f" fill-rule="nonzero" stroke-width="0" stroke-linejoin="miter" stroke-linecap="butt" stroke-miterlimit="4" >
	<path d="
	M 1778.18 -1540.55 
	C 1753.26 -1556.69 1729.06 -1572.89 1713.61 -1583.76 
	C 1667.18 -1616.45 1642.58 -1660.56 1642.58 -1711.09 
	C 1642.58 -1793.95 1707.53 -1860.64 1790.74 -1860.64 
	C 1871.92 -1860.64 1934.84 -1797.99 1936.87 -1711.09 
	L 1857.72 -1711.09 
	C 1855.69 -1751.51 1827.27 -1777.78 1790.74 -1777.78 
	C 1752.18 -1777.78 1721.73 -1749.49 1721.73 -1711.09 
	C 1721.73 -1682.79 1733.91 -1666.62 1776.53 -1642.37 
	C 1888.16 -1577.7 1936.87 -1515.05 1936.87 -1432.18 
	C 1936.87 -1339.21 1865.83 -1264.43 1776.53 -1264.43 
	C 1675.05 -1264.43 1614.17 -1349.32 1614.17 -1444.31 
	L 1695.35 -1444.31 
	C 1695.35 -1395.8 1719.7 -1345.27 1776.53 -1345.27 
	C 1821.18 -1345.27 1857.72 -1385.7 1857.72 -1432.18 
	C 1857.72 -1468.27 1842.8 -1498.67 1778.18 -1540.55 
	Z 
	"/>
</g>
<g fill="#7f7f7f" fill-rule="nonzero" stroke-width="0" stroke-linejoin="miter" stroke-linecap="butt" stroke-miterlimit="4" >
	<path d="
	M 2557.37 -1773.74 
	L 2557.37 -1274.54 
	L 2474.27 -1274.54 
	L 2474.27 -1773.74 
	L 2368.87 -1773.74 
	L 2368.87 -1850.54 
	L 2662.77 -1850.54 
	L 2662.77 -1773.74 
	Z 
	"/>
</g>
<g fill="#7f7f7f" fill-rule="nonzero" stroke-width="0" stroke-linejoin="miter" stroke-linecap="butt" stroke-miterlimit="4" >
	<path d="
	M 1494.06 -1345.27 
	C 1465.82 -1298.79 1411.37 -1264.43 1356.91 -1264.43 
	C 1300.44 -1264.43 1243.96 -1296.77 1215.73 -1345.27 
	C 1199.59 -1375.59 1193.54 -1399.85 1193.54 -1446.33 
	L 1193.54 -1850.54 
	L 1276.23 -1850.54 
	L 1276.23 -1436.22 
	C 1276.23 -1381.66 1308.5 -1345.27 1356.91 -1345.27 
	C 1401.28 -1345.27 1433.55 -1381.66 1433.55 -1436.22 
	L 1433.55 -1850.54 
	L 1516.25 -1850.54 
	L 1516.25 -1446.33 
	C 1516.25 -1399.85 1510.2 -1375.59 1494.06 -1345.27 
	Z 
	"/>
</g>
<g fill="#7f7f7f" fill-rule="nonzero" stroke-width="0" stroke-linejoin="miter" stroke-linecap="butt" stroke-miterlimit="4" >
	<path d="
	M 3043.94 -1345.28 
	C 3015.7 -1298.79 2961.24 -1264.43 2906.78 -1264.43 
	C 2850.31 -1264.43 2793.84 -1296.77 2765.6 -1345.28 
	C 2749.46 -1375.59 2743.41 -1399.85 2743.41 -1446.33 
	L 2743.41 -1850.54 
	L 2826.1 -1850.54 
	L 2826.1 -1436.22 
	C 2826.1 -1381.66 2858.38 -1345.28 2906.78 -1345.28 
	C 2951.15 -1345.28 2983.43 -1381.66 2983.43 -1436.22 
	L 2983.43 -1850.54 
	L 3066.12 -1850.54 
	L 3066.12 -1446.33 
	C 3066.12 -1399.85 3060.07 -1375.59 3043.94 -1345.28 
	Z 
	"/>
</g>
<g fill="#7f7f7f" fill-rule="nonzero" stroke-width="0" stroke-linejoin="miter" stroke-linecap="butt" stroke-miterlimit="4" >
	<path d="
	M 1582.54 -850.75 
	L 1542.02 -685.02 
	L 1625.1 -685.02 
	Z 
	M 1685.88 -446.54 
	L 1645.36 -604.18 
	L 1521.76 -604.18 
	L 1483.26 -446.54 
	L 1400.18 -446.54 
	L 1544.04 -1022.54 
	L 1625.1 -1022.54 
	L 1768.96 -446.54 
	Z 
	"/>
</g>
<g fill="#7f7f7f" fill-rule="nonzero" stroke-width="0" stroke-linejoin="miter" stroke-linecap="butt" stroke-miterlimit="4" >
	<path d="
	M 2827.14 -850.75 
	L 2786.61 -685.02 
	L 2869.69 -685.02 
	Z 
	M 2930.48 -446.54 
	L 2889.95 -604.18 
	L 2766.35 -604.18 
	L 2727.85 -446.54 
	L 2644.77 -446.54 
	L 2788.64 -1022.54 
	L 2869.69 -1022.54 
	L 3013.56 -446.54 
	Z 
	"/>
</g>
<g fill="#7f7f7f" fill-rule="nonzero" stroke-width="0" stroke-linejoin="miter" stroke-linecap="butt" stroke-miterlimit="4" >
	<path d="
	M 3320.09 -883.09 
	C 3305.97 -923.51 3281.77 -941.7 3245.46 -941.7 
	L 3176.89 -941.7 
	L 3176.89 -527.38 
	L 3245.46 -527.38 
	C 3293.87 -527.38 3320.09 -565.78 3328.16 -610.24 
	C 3332.19 -646.62 3336.23 -687.04 3336.23 -731.51 
	C 3336.23 -796.18 3330.17 -858.84 3320.09 -883.09 
	Z 
	M 3334.21 -472.81 
	C 3314.04 -454.62 3285.8 -446.54 3253.53 -446.54 
	L 3094.2 -446.54 
	L 3094.2 -1022.54 
	L 3241.43 -1022.54 
	C 3289.84 -1022.54 3314.04 -1016.48 3334.21 -1000.31 
	C 3368.5 -976.05 3392.7 -931.59 3402.78 -872.98 
	C 3410.85 -830.54 3416.9 -780.01 3416.9 -735.55 
	C 3416.9 -602.16 3390.68 -517.27 3334.21 -472.81 
	Z 
	"/>
</g>
<g fill="#7f7f7f" fill-rule="nonzero" stroke-width="0" stroke-linejoin="miter" stroke-linecap="butt" stroke-miterlimit="4" >
	<path d="
	M 2299.03 -446.54 
	L 2299.03 -1022.54 
	L 2570.63 -1022.54 
	L 2570.63 -941.7 
	L 2382.13 -941.7 
	L 2382.13 -796.18 
	L 2501.72 -796.18 
	L 2501.72 -717.36 
	L 2382.13 -717.36 
	L 2382.13 -527.38 
	L 2592.93 -527.38 
	L 2592.93 -446.54 
	Z 
	"/>
</g>
<g fill="#7f7f7f" fill-rule="nonzero" stroke-width="0" stroke-linejoin="miter" stroke-linecap="butt" stroke-miterlimit="4" >
	<path d="
	M 2089.61 -446.54 
	L 2089.61 -707.26 
	L 1932.3 -707.26 
	L 1932.3 -446.54 
	L 1849.6 -446.54 
	L 1849.6 -1022.54 
	L 1932.3 -1022.54 
	L 1932.3 -788.1 
	L 2089.61 -788.1 
	L 2089.61 -1022.54 
	L 2172.31 -1022.54 
	L 2172.31 -446.54 
	Z 
	"/>
</g>
<g fill="#7f7f7f" fill-rule="nonzero" stroke-width="0" stroke-linejoin="miter" stroke-linecap="butt" stroke-miterlimit="4" >
	<path d="
	M 1854.59 -2524.94 
	C 1846.47 -2581.53 1824.15 -2607.8 1785.59 -2607.8 
	C 1718.61 -2607.8 1694.26 -2555.25 1694.26 -2405.7 
	C 1694.26 -2239.97 1722.67 -2173.27 1793.71 -2173.27 
	C 1842.42 -2173.27 1854.59 -2213.7 1854.59 -2256.14 
	L 1937.81 -2256.14 
	C 1935.78 -2161.15 1874.89 -2092.43 1793.71 -2092.43 
	C 1669.9 -2092.43 1615.1 -2191.46 1615.1 -2403.67 
	C 1615.1 -2589.61 1673.96 -2688.64 1787.62 -2688.64 
	C 1834.3 -2688.64 1874.89 -2668.43 1901.27 -2630.03 
	C 1923.6 -2601.74 1931.72 -2577.48 1937.81 -2524.94 
	Z 
	"/>
</g>
<g fill="#7f7f7f" fill-rule="nonzero" stroke-width="0" stroke-linejoin="miter" stroke-linecap="butt" stroke-miterlimit="4" >
	<path d="
	M 2269.98 -2102.54 
	L 2269.98 -2363.25 
	L 2112.66 -2363.25 
	L 2112.66 -2102.54 
	L 2029.97 -2102.54 
	L 2029.97 -2678.54 
	L 2112.66 -2678.54 
	L 2112.66 -2444.09 
	L 2269.98 -2444.09 
	L 2269.98 -2678.54 
	L 2352.67 -2678.54 
	L 2352.67 -2102.54 
	Z 
	"/>
</g>
<g fill="#7f7f7f" fill-rule="nonzero" stroke-width="0" stroke-linejoin="miter" stroke-linecap="butt" stroke-miterlimit="4" >
	<path d="
	M 3299.9 -2102.54 
	L 3299.9 -2678.54 
	L 3383 -2678.54 
	L 3383 -2179.34 
	L 3593.8 -2179.34 
	L 3593.8 -2102.54 
	Z 
	"/>
</g>
<g fill="#7f7f7f" fill-rule="nonzero" stroke-width="0" stroke-linejoin="miter" stroke-linecap="butt" stroke-miterlimit="4" >
	<path d="
	M 2687.09 -2535.04 
	C 2672.84 -2585.57 2650.44 -2607.8 2615.84 -2607.8 
	C 2579.19 -2607.8 2556.8 -2585.57 2542.55 -2537.06 
	C 2528.3 -2492.6 2524.23 -2454.2 2524.23 -2389.53 
	C 2524.23 -2326.87 2530.33 -2290.5 2542.55 -2244.01 
	C 2556.8 -2195.51 2579.19 -2173.27 2615.84 -2173.27 
	C 2650.44 -2173.27 2672.84 -2195.51 2687.09 -2244.01 
	C 2701.34 -2290.5 2705.41 -2324.85 2705.41 -2391.55 
	C 2705.41 -2456.22 2699.3 -2492.6 2687.09 -2535.04 
	Z 
	M 2752.24 -2191.46 
	C 2723.73 -2122.75 2680.98 -2092.43 2615.84 -2092.43 
	C 2546.62 -2092.43 2505.9 -2122.75 2477.4 -2191.46 
	C 2452.97 -2248.05 2444.83 -2302.62 2444.83 -2391.55 
	C 2444.83 -2478.45 2452.97 -2537.06 2477.4 -2591.63 
	C 2507.94 -2660.35 2548.66 -2688.64 2615.84 -2688.64 
	C 2683.02 -2688.64 2723.73 -2660.35 2752.24 -2589.61 
	C 2776.67 -2533.02 2784.81 -2478.45 2784.81 -2391.55 
	C 2784.81 -2302.62 2776.67 -2246.03 2752.24 -2191.46 
	Z 
	"/>
</g>
<g fill="#7f7f7f" fill-rule="nonzero" stroke-width="0" stroke-linejoin="miter" stroke-linecap="butt" stroke-miterlimit="4" >
	<path d="
	M 3110.02 -2535.04 
	C 3095.77 -2585.57 3073.37 -2607.8 3038.76 -2607.8 
	C 3002.12 -2607.8 2979.72 -2585.57 2965.47 -2537.06 
	C 2951.22 -2492.6 2947.15 -2454.2 2947.15 -2389.53 
	C 2947.15 -2326.87 2953.26 -2290.5 2965.47 -2244.01 
	C 2979.72 -2195.51 3002.12 -2173.27 3038.76 -2173.27 
	C 3073.37 -2173.27 3095.77 -2195.51 3110.02 -2244.01 
	C 3124.27 -2290.5 3128.34 -2324.85 3128.34 -2391.55 
	C 3128.34 -2456.22 3122.23 -2492.6 3110.02 -2535.04 
	Z 
	M 3175.17 -2191.46 
	C 3146.66 -2122.75 3103.91 -2092.43 3038.76 -2092.43 
	C 2969.54 -2092.43 2928.83 -2122.75 2900.33 -2191.46 
	C 2875.9 -2248.05 2867.76 -2302.62 2867.76 -2391.55 
	C 2867.76 -2478.45 2875.9 -2537.06 2900.33 -2591.63 
	C 2930.86 -2660.35 2971.58 -2688.64 3038.76 -2688.64 
	C 3105.95 -2688.64 3146.66 -2660.35 3175.17 -2589.61 
	C 3199.6 -2533.02 3207.74 -2478.45 3207.74 -2391.55 
	C 3207.74 -2302.62 3199.6 -2246.03 3175.17 -2191.46 
	Z 
	"/>
</g>
<g fill="#7f7f7f" fill-rule="nonzero" stroke-width="0" stroke-linejoin="miter" stroke-linecap="butt" stroke-miterlimit="4" >
	<path d="
	M 1387.29 -2368.54 
	C 1362.37 -2384.69 1338.17 -2400.89 1322.73 -2411.76 
	C 1276.29 -2444.45 1251.69 -2488.56 1251.69 -2539.09 
	C 1251.69 -2621.95 1316.64 -2688.64 1399.85 -2688.64 
	C 1481.04 -2688.64 1543.95 -2625.99 1545.98 -2539.09 
	L 1466.83 -2539.09 
	C 1464.8 -2579.51 1436.39 -2605.78 1399.85 -2605.78 
	C 1361.29 -2605.78 1330.85 -2577.49 1330.85 -2539.09 
	C 1330.85 -2510.79 1343.02 -2494.62 1385.65 -2470.37 
	C 1497.27 -2405.7 1545.98 -2343.04 1545.98 -2260.18 
	C 1545.98 -2167.21 1474.95 -2092.43 1385.65 -2092.43 
	C 1284.17 -2092.43 1223.28 -2177.32 1223.28 -2272.31 
	L 1304.46 -2272.31 
	C 1304.46 -2223.8 1328.82 -2173.27 1385.65 -2173.27 
	C 1430.3 -2173.27 1466.83 -2213.7 1466.83 -2260.18 
	C 1466.83 -2296.27 1451.91 -2326.67 1387.29 -2368.54 
	Z 
	"/>
</g>
</g >
</g>
</svg>
