<?xml version="1.0" encoding="UTF-8" standalone="no"?>
<!-- Created with Inkscape (http://www.inkscape.org/) -->

<svg
   version="1.1"
   id="svg1"
   width="3924.48"
   height="3924.48"
   viewBox="0 0 3924.48 3924.48"
   sodipodi:docname="tmpn6cs1s2y.pdf"
   xmlns:inkscape="http://www.inkscape.org/namespaces/inkscape"
   xmlns:sodipodi="http://sodipodi.sourceforge.net/DTD/sodipodi-0.dtd"
   xmlns="http://www.w3.org/2000/svg"
   xmlns:svg="http://www.w3.org/2000/svg">
  <defs
     id="defs1" />
  <sodipodi:namedview
     id="namedview1"
     pagecolor="#ffffff"
     bordercolor="#000000"
     borderopacity="0.25"
     inkscape:showpageshadow="2"
     inkscape:pageopacity="0.0"
     inkscape:pagecheckerboard="0"
     inkscape:deskcolor="#d1d1d1">
    <inkscape:page
       x="0"
       y="0"
       inkscape:label="1"
       id="page1"
       width="3924.48"
       height="3924.48"
       margin="0"
       bleed="0" />
  </sodipodi:namedview>
  <g
     id="g1"
     inkscape:groupmode="layer"
     inkscape:label="1">
    <g
       id="group-R5">
      <path
         id="path2"
         d="m 15671.4,397.902 c -527.2,-527.199 -1382,-527.199 -1909.2,0 L 397.898,13762.2 c -527.207,527.2 -527.207,1382 0,1909.2 L 13762.2,29035.7 c 527.2,527.2 1382,527.2 1909.2,0 L 29035.7,15671.4 c 527.2,-527.2 527.2,-1382 0,-1909.2 L 15671.4,397.902"
         style="fill:#b3dc26;fill-opacity:1;fill-rule:nonzero;stroke:#231f20;stroke-width:5;stroke-linecap:butt;stroke-linejoin:miter;stroke-miterlimit:4;stroke-dasharray:none;stroke-opacity:1"
         transform="matrix(0.13333333,0,0,-0.13333333,0,3924.48)" />
      <path
         id="path3"
         d="m 652.461,14016.7 c -386,386.1 -385.996,1014.1 0,1400.1 L 14016.8,28781.1 c 386,386 1014,386 1400,0 L 28781.2,15416.8 c 386,-386 386,-1014 0,-1400.1 L 15416.8,652.402 c -386,-386 -1014,-386 -1400,0 L 652.461,14016.7"
         style="fill:#231f20;fill-opacity:1;fill-rule:nonzero;stroke:none"
         transform="matrix(0.13333333,0,0,-0.13333333,0,3924.48)" />
      <path
         id="path4"
         d="m 1034.3,14398.6 c -175.456,175.4 -175.452,460.9 0,636.4 l 13364.3,13364.3 c 175.5,175.5 461,175.5 636.4,0 L 28399.3,15035 c 175.5,-175.5 175.5,-461 0,-636.4 L 15035,1034.3 c -175.4,-175.499 -460.9,-175.499 -636.4,0 L 1034.3,14398.6"
         style="fill:#b3dc26;fill-opacity:1;fill-rule:nonzero;stroke:none"
         transform="matrix(0.13333333,0,0,-0.13333333,0,3924.48)" />
      <path
         id="path5"
         d="M 20284.3,22392.2 14730,27628.5 9175.79,22392.2 c -43.55,-41 -70.77,-99.2 -70.77,-163.7 0,-124.3 100.73,-225 225,-225 9.22,0 18.29,0.6 27.22,1.7 l 3572.76,447.7 v -2924.4 h 3600 v 2924.4 l 3572.8,-447.7 c 8.9,-1.1 18,-1.7 27.2,-1.7 124.3,0 225,100.7 225,225 0,64.5 -27.2,122.7 -70.7,163.7"
         style="fill:#231f20;fill-opacity:1;fill-rule:nonzero;stroke:none"
         transform="matrix(0.13333333,0,0,-0.13333333,0,3924.48)" />
      <path
         id="path6"
         d="m 21622.5,12205 238.6,-364.5 -59.6,-225.2 -79.7,-20 z m -1550.4,-815.3 -73,-12.9 66.3,298.2 59.6,-126 z m 1722.7,-377.4 543.4,158.9 -146,530 -138.9,-19.5 46.3,284.8 -444.1,841.5 -238.5,105.9 -39.7,92.6 c -29.8,-23.9 -60.8,-44.2 -96.1,-58.7 -35.8,-14.6 -74.9,-24.6 -113.5,-26.3 -27.7,-1.1 -54.7,0.5 -81.9,5.8 l -13.3,-79.7 -185.6,-172.2 -231.8,-781.9 -337.8,-139.3 -192.3,424.1 -291.5,165.5 c -23.6,-13.3 -47.4,-25.8 -73.7,-33.4 -24.3,-6.9 -49.3,-13.6 -74.9,-13.8 -37.2,-0.5 -74.1,4.3 -109.9,14.3 h -6.7 l -205.1,-218.5 -205.7,-656 -390.7,-371.1 112.6,-105.9 463.7,304.8 59.7,244.7 72.9,-225.1 -298.1,-920.8 105.9,-33.4 -311.5,-1172.6 166,-59.6 443.7,1172.6 178.8,-13.4 490.5,-1139.2 172.2,53 -351.1,1106.3 c 35.5,7.8 70.6,17.9 106.4,25.7 31.2,7.2 62,17.2 92.5,27.2 l -178.9,550.1 443.7,105.9 -92.6,450.8 h -105.8 l 72.4,112.6 -12.8,26.3 384,106.4 99.2,172.2 146,-609.7 -284.8,-901.2 -79.7,-1371.6 311.6,-26.7 112.5,1139.7 192.3,424.1 145.5,-582.9 543.4,-1013.8 284.8,139.3 -510,1053.4 53,907.8"
         style="fill:#231f20;fill-opacity:1;fill-rule:evenodd;stroke:none"
         transform="matrix(0.13333333,0,0,-0.13333333,0,3924.48)" />
      <path
         id="path7"
         d="m 20891,13029.8 c 118.7,-81.1 277.6,-83.7 396.4,-1.6 102.3,70.6 153.2,173.6 156.3,296.5 2.8,117.3 -59.2,230.6 -155.6,296.5 -99,67.5 -225.4,79.2 -335.3,32.2 -130.8,-56.1 -218.1,-186.1 -218.1,-328.7 -0.2,-117.4 59.4,-228.8 156.3,-294.9"
         style="fill:#231f20;fill-opacity:1;fill-rule:evenodd;stroke:none"
         transform="matrix(0.13333333,0,0,-0.13333333,0,3924.48)" />
      <path
         id="path8"
         d="m 19781.1,12370.5 c 127.8,54.7 207.3,173.5 211.3,311.6 3.4,111.4 -62.5,223.5 -154.1,283.6 -131.2,85.6 -312.7,67.2 -423.1,-43.7 -110.5,-110.6 -130.5,-291.9 -44.2,-423.1 88.5,-134.6 260.7,-192.1 410.1,-128.4"
         style="fill:#231f20;fill-opacity:1;fill-rule:evenodd;stroke:none"
         transform="matrix(0.13333333,0,0,-0.13333333,0,3924.48)" />
      <path
         id="path9"
         d="M 15616.8,8499.3 V 7336.8 h 1507.7 v 1162.5 h 817.3 V 15853 c 0,1033.5 -2014.3,1871.3 -4425,1871.3 -2410.6,0 -4424.98,-837.8 -4424.98,-1871.3 V 8499.3 h 817.35 V 7336.8 h 1507.63 v 1162.5 h 4200"
         style="fill:#231f20;fill-opacity:1;fill-rule:nonzero;stroke:none"
         transform="matrix(0.13333333,0,0,-0.13333333,0,3924.48)" />
      <path
         id="path10"
         d="m 6282.59,10936.8 -790.77,790.8 V 12846 l 790.77,790.8 h 1118.45 l 790.78,-790.8 v -1118.4 l -790.78,-790.8 H 6282.59"
         style="fill:#bf2519;fill-opacity:1;fill-rule:nonzero;stroke:none"
         transform="matrix(0.13333333,0,0,-0.13333333,0,3924.48)" />
      <path
         id="path11"
         d="m 15129.3,10711.8 c 0,-82.9 -67.1,-150 -150,-150 h -2925 c -82.8,0 -150,67.1 -150,150 v 1350 c 0,82.8 67.2,150 150,150 h 2925 c 82.9,0 150,-67.2 150,-150 v -1350"
         style="fill:#b3dc26;fill-opacity:1;fill-rule:nonzero;stroke:none"
         transform="matrix(0.13333333,0,0,-0.13333333,0,3924.48)" />
      <path
         id="path12"
         d="m 11604.3,13299.3 c 0,-82.9 -67.1,-150 -150,-150 H 9616.82 c -82.84,0 -150,67.1 -150,150 v 1837.5 c 0,82.8 67.16,150 150,150 h 1837.48 c 82.9,0 150,-67.2 150,-150 v -1837.5"
         style="fill:#b3dc26;fill-opacity:1;fill-rule:nonzero;stroke:none"
         transform="matrix(0.13333333,0,0,-0.13333333,0,3924.48)" />
      <path
         id="path13"
         d="m 15129.3,13299.3 c 0,-82.9 -67.1,-150 -150,-150 h -2925 c -82.8,0 -150,67.1 -150,150 v 1837.5 c 0,82.8 67.2,150 150,150 h 2925 c 82.9,0 150,-67.2 150,-150 v -1837.5"
         style="fill:#b3dc26;fill-opacity:1;fill-rule:nonzero;stroke:none"
         transform="matrix(0.13333333,0,0,-0.13333333,0,3924.48)" />
      <path
         id="path14"
         d="m 17566.8,13299.3 c 0,-82.9 -67.1,-150 -150,-150 h -1837.5 c -82.8,0 -150,67.1 -150,150 v 1837.5 c 0,82.8 67.2,150 150,150 h 1837.5 c 82.9,0 150,-67.2 150,-150 v -1837.5"
         style="fill:#b3dc26;fill-opacity:1;fill-rule:nonzero;stroke:none"
         transform="matrix(0.13333333,0,0,-0.13333333,0,3924.48)" />
      <path
         id="path15"
         d="m 10441.8,15999.3 c 0,-207.1 -167.9,-375 -375,-375 -207.08,0 -375,167.9 -375,375 0,207.1 167.92,375 375,375 207.1,0 375,-167.9 375,-375"
         style="fill:#bf2519;fill-opacity:1;fill-rule:nonzero;stroke:none"
         transform="matrix(0.13333333,0,0,-0.13333333,0,3924.48)" />
      <path
         id="path16"
         d="m 10291.8,12286.8 c 0,-207.1 -167.9,-375 -374.98,-375 -207.1,0 -375.02,167.9 -375.02,375 0,207.1 167.92,375 375.02,375 207.08,0 374.98,-167.9 374.98,-375"
         style="fill:#bf2519;fill-opacity:1;fill-rule:nonzero;stroke:none"
         transform="matrix(0.13333333,0,0,-0.13333333,0,3924.48)" />
      <path
         id="path17"
         d="m 11191.8,12286.8 c 0,-207.1 -167.9,-375 -375,-375 -207.1,0 -375,167.9 -375,375 0,207.1 167.9,375 375,375 207.1,0 375,-167.9 375,-375"
         style="fill:#bf2519;fill-opacity:1;fill-rule:nonzero;stroke:none"
         transform="matrix(0.13333333,0,0,-0.13333333,0,3924.48)" />
      <path
         id="path18"
         d="m 11154.3,11536.8 h -1575 v -150 h 1575 v 150"
         style="fill:#b3dc26;fill-opacity:1;fill-rule:nonzero;stroke:none"
         transform="matrix(0.13333333,0,0,-0.13333333,0,3924.48)" />
      <path
         id="path19"
         d="m 16741.9,12286.8 c 0,-207.1 167.8,-375 374.9,-375 207.1,0 375.1,167.9 375.1,375 0,207.1 -168,375 -375.1,375 -207.1,0 -374.9,-167.9 -374.9,-375"
         style="fill:#bf2519;fill-opacity:1;fill-rule:nonzero;stroke:none"
         transform="matrix(0.13333333,0,0,-0.13333333,0,3924.48)" />
      <path
         id="path20"
         d="m 15841.9,12286.8 c 0,-207.1 167.8,-375 374.9,-375 207.1,0 375.1,167.9 375.1,375 0,207.1 -168,375 -375.1,375 -207.1,0 -374.9,-167.9 -374.9,-375"
         style="fill:#bf2519;fill-opacity:1;fill-rule:nonzero;stroke:none"
         transform="matrix(0.13333333,0,0,-0.13333333,0,3924.48)" />
      <path
         id="path21"
         d="m 15879.4,11536.8 h 1575 v -150 h -1575 v 150"
         style="fill:#b3dc26;fill-opacity:1;fill-rule:nonzero;stroke:none"
         transform="matrix(0.13333333,0,0,-0.13333333,0,3924.48)" />
      <path
         id="path22"
         d="m 17491.8,9399.3 c 0,-41.4 -33.6,-75 -75,-75 H 9616.82 c -41.42,0 -75,33.6 -75,75 v 0 c 0,41.4 33.58,75 75,75 h 7799.98 c 41.4,0 75,-33.6 75,-75 v 0"
         style="fill:#b3dc26;fill-opacity:1;fill-rule:nonzero;stroke:none"
         transform="matrix(0.13333333,0,0,-0.13333333,0,3924.48)" />
      <path
         id="path23"
         d="m 17491.8,8949.3 c 0,-41.4 -33.6,-75 -75,-75 H 9616.82 c -41.42,0 -75,33.6 -75,75 v 0 c 0,41.4 33.58,75 75,75 h 7799.98 c 41.4,0 75,-33.6 75,-75 v 0"
         style="fill:#b3dc26;fill-opacity:1;fill-rule:nonzero;stroke:none"
         transform="matrix(0.13333333,0,0,-0.13333333,0,3924.48)" />
      <path
         id="path24"
         d="m 8266.82,12024.3 h 750 v 525 h -750 v -525"
         style="fill:#231f20;fill-opacity:1;fill-rule:nonzero;stroke:none"
         transform="matrix(0.13333333,0,0,-0.13333333,0,3924.48)" />
      <path
         id="path25"
         d="m 16215.8,18586.8 c 0,0 -98.2,-245.2 -349,-861.6 -195,-553.8 -435.4,-313.5 -484.1,-285.7 -48.8,27.9 -899.6,563.7 -899.6,563.7 l 400.7,-908 c 242.5,-415.2 -184.1,-637.7 -184.1,-637.7 l -1407.9,-551.2 1386.2,-10.8 c 628.2,-10.8 491.4,-622.6 491.4,-622.6 l -185,-869.7 689.2,747.9 c 301.6,280.6 582.9,33.9 582.9,33.9 l 619.9,-910.7 -144.4,1027 c -107.7,483.5 430.6,474.5 430.6,474.5 l 1154.2,44.1 -1104.6,432.3 c -541.5,216.2 -151.6,583.7 -151.6,583.7 l 866.3,821.4 -985.5,-367.5 c -454.8,-194.6 -530.7,162.1 -530.7,162.1 l -194.9,1134.9"
         style="fill:#bf2519;fill-opacity:1;fill-rule:nonzero;stroke:none"
         transform="matrix(0.13333333,0,0,-0.13333333,0,3924.48)" />
    </g>
  </g>
</svg>
