<?xml version="1.0" encoding="UTF-8" standalone="no"?>
<!-- Created with Inkscape (http://www.inkscape.org/) -->

<svg
   version="1.1"
   id="svg1"
   width="6278.7734"
   height="6278.7734"
   viewBox="0 0 6278.7734 6278.7734"
   sodipodi:docname="tmpgjqv92mp.pdf"
   xmlns:inkscape="http://www.inkscape.org/namespaces/inkscape"
   xmlns:sodipodi="http://sodipodi.sourceforge.net/DTD/sodipodi-0.dtd"
   xmlns="http://www.w3.org/2000/svg"
   xmlns:svg="http://www.w3.org/2000/svg">
  <defs
     id="defs1" />
  <sodipodi:namedview
     id="namedview1"
     pagecolor="#ffffff"
     bordercolor="#000000"
     borderopacity="0.25"
     inkscape:showpageshadow="2"
     inkscape:pageopacity="0.0"
     inkscape:pagecheckerboard="0"
     inkscape:deskcolor="#d1d1d1">
    <inkscape:page
       x="0"
       y="0"
       inkscape:label="1"
       id="page1"
       width="6278.7734"
       height="6278.7734"
       margin="0"
       bleed="0" />
  </sodipodi:namedview>
  <g
     id="g1"
     inkscape:groupmode="layer"
     inkscape:label="1">
    <g
       id="group-R5">
      <path
         id="path2"
         d="m 23545.4,1.19922 c -577.3,0 -1120,224.80078 -1528.2,632.99978 L 634.27,22017.2 c -408.211,408.2 -633.02,950.9 -633.02,1528.2 0,577.3 224.809,1120 633.02,1528.2 L 22017.2,46456.5 c 408.2,408.2 950.9,633 1528.2,633 577.3,0 1120,-224.8 1528.2,-633 L 46456.5,25073.6 c 408.3,-408.2 633.1,-950.9 633.1,-1528.2 0,-577.3 -224.8,-1120 -633.1,-1528.2 L 25073.6,634.199 C 24665.4,226 24122.7,1.19922 23545.4,1.19922"
         style="fill:#b3dc26;fill-opacity:1;fill-rule:nonzero;stroke:none"
         transform="matrix(0.13333333,0,0,-0.13333333,0,6278.7733)" />
      <path
         id="path3"
         d="m 23545.6,47090.8 v -2.5 l -0.1,2.5 c -280.9,0 -554.7,-53.3 -813.8,-158.4 -268.3,-108.8 -509,-268.6 -715.4,-475 L 633.383,25074.5 C 426.953,24868.1 267.129,24627.4 158.348,24359.1 53.2773,24100 0,23826.3 0,23545.4 c 0,-280.9 53.2773,-554.7 158.348,-813.8 108.781,-268.2 268.605,-508.9 475.035,-715.3 L 22016.3,633.398 c 206.4,-206.5 447.1,-366.3 715.4,-475.097 C 22990.7,53.2031 23264.5,0 23545.4,0 c 280.8,0 554.6,53.3008 813.7,158.301 268.3,108.797 509,268.703 715.4,475.097 L 46457.4,22016.3 c 206.5,206.4 366.3,447.1 475.1,715.3 105,259.1 158.3,532.9 158.3,813.8 0,280.9 -53.3,554.6 -158.3,813.7 -108.8,268.3 -268.6,509 -475.1,715.4 L 25074.5,46457.4 c -206.4,206.4 -447.1,366.3 -715.2,475 -259.1,105.1 -532.9,158.4 -813.7,158.4 z m -0.2,-2.5 c 552.9,0.1 1105.5,-210.8 1527.3,-632.6 l 21383,-21383 c 843.5,-843.5 843.5,-2211.1 0,-3054.7 L 25072.7,635.102 C 24651,213.398 24098.1,2.5 23545.4,2.5 c -552.8,0 -1105.5,210.801 -1527.3,632.602 L 635.152,22018 c -843.535,843.6 -843.535,2211.2 0,3054.7 l 21382.948,21383 c 421.7,421.7 974.6,632.6 1527.3,632.6"
         style="fill:#231f20;fill-opacity:1;fill-rule:nonzero;stroke:none"
         transform="matrix(0.13333333,0,0,-0.13333333,0,6278.7733)" />
      <path
         id="path4"
         d="m 1016.99,22399.9 c -631.642,631.6 -631.642,1659.4 0,2291 L 22399.9,46073.8 c 631.6,631.7 1659.4,631.7 2291,0 L 46073.8,24690.9 c 631.7,-631.6 631.7,-1659.4 0,-2291 L 24690.9,1017 c -631.6,-631.699 -1659.4,-631.699 -2291,0 L 1016.99,22399.9"
         style="fill:#231f20;fill-opacity:1;fill-rule:nonzero;stroke:none"
         transform="matrix(0.13333333,0,0,-0.13333333,0,6278.7733)" />
      <path
         id="path5"
         d="m 1653.38,23036.3 c -280.73,280.7 -280.73,737.5 0,1018.2 L 23036.3,45437.4 c 280.7,280.7 737.5,280.7 1018.2,0 L 45437.4,24054.5 c 280.8,-280.7 280.8,-737.5 0,-1018.2 L 24054.5,1653.4 c -280.7,-280.8 -737.5,-280.8 -1018.2,0 L 1653.38,23036.3"
         style="fill:#b3dc26;fill-opacity:1;fill-rule:nonzero;stroke:none"
         transform="matrix(0.13333333,0,0,-0.13333333,0,6278.7733)" />
      <path
         id="path6"
         d="m 15970.2,30372.9 v -707.5 h -2823.6 c 40.3,1588.2 739,2375.1 1319.2,2837.5 445.4,355.3 811.4,447.3 811.4,875.1 0,391.8 -318.1,710.6 -710,710.6 -391.8,0 -710,-318.8 -710,-710.6 h -710.6 c 17.6,796.3 623,1414.9 1420.6,1414.9 781.2,0 1403,-636.9 1403,-1414.9 0,-1481.2 -1583.8,-974 -2042.4,-3005.1 h 2042.4"
         style="fill:#231f20;fill-opacity:1;fill-rule:nonzero;stroke:none"
         transform="matrix(0.13333333,0,0,-0.13333333,0,6278.7733)" />
      <path
         id="path7"
         d="m 18213.8,34086.7 c -143.7,0 -792.6,29.6 -792.6,-1894.4 0,-1937.2 648.9,-1907.6 792.6,-1907.6 143.6,0 792.5,-29.6 792.5,1907.6 0,1924 -648.9,1894.4 -792.5,1894.4 z m -1487.4,-1892.5 c 0,2640.3 1224.7,2598.7 1496.2,2598.7 271.5,0 1478.6,40.3 1478.6,-2600 0,-2657.3 -1207.1,-2615.7 -1478.6,-2615.7 -271.5,0 -1496.2,-41 -1496.2,2617"
         style="fill:#231f20;fill-opacity:1;fill-rule:nonzero;stroke:none"
         transform="matrix(0.13333333,0,0,-0.13333333,0,6278.7733)" />
      <path
         id="path8"
         d="m 25454.3,32494.7 -938.7,-2829.3 -938.7,2829.3 v -2829.3 h -725.7 v 5040 h 725.7 l 938.7,-2829.4 938.7,2829.4 h 725.7 v -5040 h -725.7 v 2829.3"
         style="fill:#231f20;fill-opacity:1;fill-rule:nonzero;stroke:none"
         transform="matrix(0.13333333,0,0,-0.13333333,0,6278.7733)" />
      <path
         id="path9"
         d="m 28012.2,32565.9 h 740.9 c 423.3,0 653.2,264.6 653.2,724.5 0,424.6 -267.1,707.5 -652.6,707.5 h -741.5 z m 0,-689.9 V 29665.4 H 27289 v 5040 h 1500 c 794.4,0 1323.5,-568.3 1323.5,-1415 0,-919.8 -476.9,-1414.4 -1323.5,-1414.4 h -776.8"
         style="fill:#231f20;fill-opacity:1;fill-rule:nonzero;stroke:none"
         transform="matrix(0.13333333,0,0,-0.13333333,0,6278.7733)" />
      <path
         id="path10"
         d="m 33221,31946.6 h -1377.1 v -2281.2 h -723.2 v 5040 h 723.2 v -2051.3 h 1376.5 v 2051.3 h 723.8 v -5040 H 33221 v 2281.2"
         style="fill:#231f20;fill-opacity:1;fill-rule:nonzero;stroke:none"
         transform="matrix(0.13333333,0,0,-0.13333333,0,6278.7733)" />
      <path
         id="path11"
         d="m 15963.2,14471.9 h 727 l -372.3,1450.3 z m 904,-707.4 h -1081 l -337,-1379.1 h -727 l 1258.7,5040 h 710 l 1258,-5040 h -727 l -354.7,1379.1"
         style="fill:#231f20;fill-opacity:1;fill-rule:nonzero;stroke:none"
         transform="matrix(0.13333333,0,0,-0.13333333,0,6278.7733)" />
      <path
         id="path12"
         d="m 20755.1,14666.6 h -1377.2 v -2281.2 h -723.2 v 5040 h 723.2 v -2051.3 h 1376.5 v 2051.3 h 723.9 v -5040 h -723.2 v 2281.2"
         style="fill:#231f20;fill-opacity:1;fill-rule:nonzero;stroke:none"
         transform="matrix(0.13333333,0,0,-0.13333333,0,6278.7733)" />
      <path
         id="path13"
         d="m 22587.3,17425.4 h 2376.3 v -707.5 H 23314.3 V 15444.7 H 24360 v -689.9 h -1045.7 v -1662.6 h 1844.6 v -706.8 h -2571.6 v 5040"
         style="fill:#231f20;fill-opacity:1;fill-rule:nonzero;stroke:none"
         transform="matrix(0.13333333,0,0,-0.13333333,0,6278.7733)" />
      <path
         id="path14"
         d="m 26853.6,14471.9 h 727 l -372.3,1450.3 z m 904.1,-707.4 h -1081.1 l -337,-1379.1 h -727 l 1258.7,5040 h 710 l 1258,-5040 h -727 l -354.6,1379.1"
         style="fill:#231f20;fill-opacity:1;fill-rule:nonzero;stroke:none"
         transform="matrix(0.13333333,0,0,-0.13333333,0,6278.7733)" />
      <path
         id="path15"
         d="m 30833.4,16717.9 h -565.1 v -3625 h 502.7 c 589.7,0 891.4,257.6 891.4,1786 0,1771 -441.6,1839 -829,1839 z m -1288.3,-4332.5 v 5040 h 1438.2 c 307.5,0 1385.3,-15.1 1385.3,-2511.2 0,-2283.7 -995.3,-2528.8 -1325.4,-2528.8 h -1498.1"
         style="fill:#231f20;fill-opacity:1;fill-rule:nonzero;stroke:none"
         transform="matrix(0.13333333,0,0,-0.13333333,0,6278.7733)" />
      <path
         id="path16"
         d="m 28927.2,21800.9 1906.3,3559.4 H 29125 v 705 h 2625.1 v -458.6 l -2067.5,-3894 h 2068.2 v -687.4 h -2823.6 v 775.6"
         style="fill:#231f20;fill-opacity:1;fill-rule:nonzero;stroke:none"
         transform="matrix(0.13333333,0,0,-0.13333333,0,6278.7733)" />
      <path
         id="path17"
         d="m 33994.2,25446 c -143.6,0 -793.1,29.6 -793.1,-1893.7 0,-1937.3 649.5,-1907.7 793.1,-1907.7 143.7,0 792.6,-29.6 792.6,1907.7 0,1923.3 -648.9,1893.7 -792.6,1893.7 z m -1487.3,-1890 c 0,2639.1 1224,2596.9 1495.5,2596.9 271.6,0 1479.2,40.3 1479.2,-2598.8 0,-2657.9 -1207.6,-2616.3 -1479.2,-2616.3 -271.5,0 -1495.5,-41.6 -1495.5,2618.2"
         style="fill:#231f20;fill-opacity:1;fill-rule:nonzero;stroke:none"
         transform="matrix(0.13333333,0,0,-0.13333333,0,6278.7733)" />
      <path
         id="path18"
         d="m 37213,24402.8 v -3377.5 h -723.2 v 5040 h 723.2 l 1376.5,-3024 v 3024 h 723.8 v -5040 h -546.8 L 37213,24402.8"
         style="fill:#231f20;fill-opacity:1;fill-rule:nonzero;stroke:none"
         transform="matrix(0.13333333,0,0,-0.13333333,0,6278.7733)" />
      <path
         id="path19"
         d="m 40422.3,26065.3 h 2376.3 v -707.5 h -1649.3 v -1273.2 h 1045.8 v -689.8 h -1045.8 v -1662.6 h 1844.6 v -706.9 h -2571.6 v 5040"
         style="fill:#231f20;fill-opacity:1;fill-rule:nonzero;stroke:none"
         transform="matrix(0.13333333,0,0,-0.13333333,0,6278.7733)" />
      <path
         id="path20"
         d="m 5543.11,24229.5 c 551.24,-345.9 1377.78,-830.3 1377.78,-1825.1 0,-815.8 -621.8,-1467.3 -1402.97,-1467.3 -887.65,0 -1420.61,751 -1420.61,1573.8 h 710.61 c 0,-429.1 212.94,-866.9 710,-866.9 390.58,0 709.98,353.4 709.98,760.4 0,1095.6 -1881.76,1032.6 -1881.76,2440.6 0,725.1 568.25,1307.9 1295.88,1307.9 710.62,0 1261.23,-548.1 1278.87,-1308.5 H 6227.9 c -17.64,353.4 -266.47,583.4 -585.88,583.4 -337.67,0 -603.52,-247 -603.52,-582.8 0,-327.6 173.87,-408.2 504.61,-615.5"
         style="fill:#231f20;fill-opacity:1;fill-rule:nonzero;stroke:none"
         transform="matrix(0.13333333,0,0,-0.13333333,0,6278.7733)" />
      <path
         id="path21"
         d="m 9772.34,24721.5 c -69.93,495.2 -265.86,725.2 -603.52,725.2 -585.89,0 -799.46,-459.9 -799.46,-1767.8 0,-1450.3 248.85,-2033.6 870.65,-2033.6 426.49,0 532.33,354 532.33,725.1 h 728.26 c -17.6,-831 -549.98,-1432.6 -1260.59,-1432.6 -1082.95,0 -1563,866.2 -1563,2723.4 0,1626.1 514.7,2491.7 1509.44,2491.7 923.55,0 1289.55,-842.3 1314.15,-1431.4 h -728.26"
         style="fill:#231f20;fill-opacity:1;fill-rule:nonzero;stroke:none"
         transform="matrix(0.13333333,0,0,-0.13333333,0,6278.7733)" />
      <path
         id="path22"
         d="M 13609.1,23306.6 H 12232 v -2281.3 h -723.3 v 5040 H 12232 V 24014 h 1376.5 v 2051.3 h 723.8 v -5040 h -723.2 v 2281.3"
         style="fill:#231f20;fill-opacity:1;fill-rule:nonzero;stroke:none"
         transform="matrix(0.13333333,0,0,-0.13333333,0,6278.7733)" />
      <path
         id="path23"
         d="m 16827.9,25446 c -143.6,0 -793.1,29.6 -793.1,-1893.7 0,-1937.3 649.5,-1907.7 793.1,-1907.7 143.7,0 792.6,-29.6 792.6,1907.7 0,1923.3 -648.9,1893.7 -792.6,1893.7 z m -1487.3,-1890 c 0,2639.1 1224,2596.9 1495.5,2596.9 271.6,0 1479.2,40.3 1479.2,-2598.8 0,-2657.9 -1207.6,-2616.3 -1479.2,-2616.3 -271.5,0 -1495.5,-41.6 -1495.5,2618.2"
         style="fill:#231f20;fill-opacity:1;fill-rule:nonzero;stroke:none"
         transform="matrix(0.13333333,0,0,-0.13333333,0,6278.7733)" />
      <path
         id="path24"
         d="m 20710.1,25446 c -143.7,0 -793.2,29.6 -793.2,-1893.7 0,-1937.3 649.5,-1907.7 793.2,-1907.7 143.6,0 792.5,-29.6 792.5,1907.7 0,1923.3 -648.9,1893.7 -792.5,1893.7 z m -1487.4,-1890 c 0,2639.1 1224.1,2596.9 1495.6,2596.9 271.5,0 1479.2,40.3 1479.2,-2598.8 0,-2657.9 -1207.7,-2616.3 -1479.2,-2616.3 -271.5,0 -1495.6,-41.6 -1495.6,2618.2"
         style="fill:#231f20;fill-opacity:1;fill-rule:nonzero;stroke:none"
         transform="matrix(0.13333333,0,0,-0.13333333,0,6278.7733)" />
      <path
         id="path25"
         d="m 23205.6,26065.3 h 727 v -4367.8 h 1844.6 v -672.2 h -2571.6 v 5040"
         style="fill:#231f20;fill-opacity:1;fill-rule:nonzero;stroke:none"
         transform="matrix(0.13333333,0,0,-0.13333333,0,6278.7733)" />
    </g>
  </g>
</svg>
