<?xml version="1.0" encoding="UTF-8"?>
<svg id="For_Sheets" xmlns="http://www.w3.org/2000/svg" version="1.1" viewBox="0 0 4708.6 4708.6">
  <!-- Generator: Adobe Illustrator 29.1.0, SVG Export Plug-In . SVG Version: 2.1.0 Build 142)  -->
  <defs>
    <style>
      .st0 {
        fill: #bed73d;
      }

      .st1 {
        fill: #231f20;
      }
    </style>
  </defs>
  <g>
    <path class="st0" d="M2354.3,4708.7c-57.7,0-112-22.5-152.8-63.3L63.2,2507.1C22.4,2466.3-.1,2412-.1,2354.3s22.5-112,63.3-152.8L2201.5,63.2C2242.3,22.4,2296.6-.1,2354.3-.1s112,22.5,152.8,63.3l2138.3,2138.3c40.8,40.8,63.3,95.1,63.3,152.8s-22.5,112-63.3,152.8l-2138.3,2138.3c-40.8,40.8-95.1,63.3-152.8,63.3Z"/>
    <path class="st1" d="M2354.3,0c55.3,0,110.6,21.1,152.7,63.3l2138.3,2138.3c84.4,84.4,84.4,221.1,0,305.5l-2138.3,2138.3c-42.2,42.2-97.5,63.3-152.7,63.3s-110.6-21.1-152.7-63.3L63.3,2507c-84.4-84.4-84.4-221.1,0-305.5L2201.6,63.3C2243.7,21.1,2299,0,2354.3,0M2354.3-.2V0-.2c-28.1,0-55.5,5.3-81.4,15.8-26.8,10.9-50.9,26.9-71.5,47.5L63.1,2201.4c-20.6,20.6-36.6,44.7-47.5,71.5-10.5,25.9-15.8,53.3-15.8,81.4s5.3,55.5,15.8,81.4c10.9,26.8,26.9,50.9,47.5,71.5l2138.3,2138.3c20.6,20.6,44.7,36.6,71.5,47.5,25.9,10.5,53.3,15.8,81.4,15.8s55.5-5.3,81.4-15.8c26.8-10.9,50.9-26.9,71.5-47.5l2138.3-2138.3c20.6-20.6,36.6-44.7,47.5-71.5,10.5-25.9,15.8-53.3,15.8-81.4s-5.3-55.5-15.8-81.4c-10.9-26.8-26.9-50.9-47.5-71.5L2507.2,63.1c-20.6-20.6-44.7-36.6-71.5-47.5-25.9-10.5-53.3-15.8-81.4-15.8h0Z"/>
  </g>
  <path class="st1" d="M101.5,2468.8c-63.2-63.2-63.2-165.9,0-229.1L2239.7,101.4c63.2-63.2,165.9-63.2,229.1,0l2138.3,2138.3c63.2,63.2,63.2,165.9,0,229.1l-2138.3,2138.3c-63.2,63.2-165.9,63.2-229.1,0L101.5,2468.8Z"/>
  <path class="st0" d="M165.1,2405.2c-28.1-28.1-28.1-73.7,0-101.8L2303.4,165.1c28.1-28.1,73.8-28.1,101.8,0l2138.3,2138.3c28.1,28.1,28.1,73.7,0,101.8l-2138.3,2138.3c-28.1,28.1-73.8,28.1-101.8,0L165.1,2405.2Z"/>
  <g>
    <g>
      <path class="st1" d="M1596.8,1671.5v70.7h-282.4c4-158.8,73.9-237.5,131.9-283.8,44.5-35.5,81.1-44.7,81.1-87.5s-31.8-71.1-71-71.1-71,31.9-71,71.1h-71.1c1.8-79.6,62.3-141.5,142.1-141.5s140.3,63.7,140.3,141.5c0,148.1-158.4,97.4-204.2,300.5h204.2Z"/>
      <path class="st1" d="M1672.4,1489.4c0-264,122.5-259.9,149.6-259.9s147.9-4,147.9,260-120.7,261.6-147.9,261.6-149.6,4.1-149.6-261.7ZM1821.1,1300.2c-14.4,0-79.3-3-79.3,189.4s64.9,190.8,79.3,190.8,79.3,3,79.3-190.8-64.9-189.4-79.3-189.4Z"/>
    </g>
    <g>
      <path class="st1" d="M2545.2,1459.4l-93.9,282.9-93.9-282.9v282.9h-72.6v-504h72.6l93.9,282.9,93.9-282.9h72.6v504h-72.6v-282.9Z"/>
      <path class="st1" d="M2801,1521.2v221.1h-72.3v-504h150c79.4,0,132.4,56.8,132.4,141.5s-47.7,141.4-132.4,141.4h-77.7ZM2801,1452.2h74.1c42.3,0,65.3-26.5,65.3-72.4s-26.7-70.7-65.3-70.7h-74.1v143.2Z"/>
      <path class="st1" d="M3321.9,1514.2h-137.7v228.1h-72.3v-504h72.3v205.1h137.6v-205.1h72.4v504h-72.3v-228.1Z"/>
    </g>
  </g>
  <g>
    <path class="st1" d="M1686.5,3332.4h-108.1l-33.7,137.9h-72.7l125.9-504h71l125.8,504h-72.7l-35.5-137.9ZM1596.1,3261.6h72.7l-37.2-145-35.5,145Z"/>
    <path class="st1" d="M2075.3,3242.2h-137.7v228.1h-72.3v-504h72.3v205.1h137.6v-205.1h72.4v504h-72.3v-228.1Z"/>
    <path class="st1" d="M2258.5,2966.3h237.6v70.7h-164.9v127.3h104.6v69h-104.6v166.3h184.5v70.7h-257.2v-504Z"/>
    <path class="st1" d="M2775.5,3332.4h-108.1l-33.7,137.9h-72.7l125.9-504h71l125.8,504h-72.7l-35.5-137.9ZM2685.1,3261.6h72.7l-37.2-145-35.5,145Z"/>
    <path class="st1" d="M2954.3,3470.3v-504h143.8c30.7,0,138.5,1.5,138.5,251.1s-99.5,252.9-132.5,252.9h-149.8ZM3083.1,3037h-56.5v362.5h50.3c59,0,89.1-25.8,89.1-178.6s-44.2-183.9-82.9-183.9Z"/>
  </g>
  <g>
    <path class="st1" d="M2892.5,2528.7l190.6-355.9h-170.8v-70.5h262.5v45.9l-206.8,389.4h206.8v68.7h-282.4v-77.6Z"/>
    <path class="st1" d="M3250.4,2353.2c0-263.9,122.4-259.7,149.6-259.7s147.9-4,147.9,259.9-120.8,261.6-147.9,261.6-149.6,4.2-149.6-261.8ZM3399.2,2164.2c-14.4,0-79.3-3-79.3,189.4s65,190.8,79.3,190.8,79.3,3,79.3-190.8-64.9-189.4-79.3-189.4Z"/>
    <path class="st1" d="M3721,2268.6v337.7h-72.3v-504h72.3l137.6,302.4v-302.4h72.4v504h-54.7l-155.4-337.7Z"/>
    <path class="st1" d="M4042,2102.3h237.6v70.7h-164.9v127.3h104.6v69h-104.6v166.3h184.5v70.7h-257.2v-504Z"/>
  </g>
  <g>
    <path class="st1" d="M554.1,2285.9c55.1,34.6,137.8,83,137.8,182.5s-62.2,146.7-140.3,146.7-142.1-75.1-142.1-157.4h71.1c0,42.9,21.3,86.7,71,86.7s71-35.3,71-76c0-109.6-188.2-103.3-188.2-244.1s56.8-130.8,129.6-130.8,126.1,54.8,127.9,130.9h-69.3c-1.8-35.3-26.6-58.3-58.6-58.3s-60.4,24.7-60.4,58.3,17.4,40.8,50.5,61.6Z"/>
    <path class="st1" d="M977,2236.7c-7-49.5-26.6-72.5-60.4-72.5-58.6,0-79.9,46-79.9,176.8s24.9,203.4,87.1,203.4,53.2-35.4,53.2-72.5h72.8c-1.8,83.1-55,143.3-126.1,143.3-108.3,0-156.3-86.6-156.3-272.3s51.5-249.2,150.9-249.2,129,84.2,131.4,143.1h-72.8Z"/>
    <path class="st1" d="M1360.7,2378.2h-137.7v228.1h-72.3v-504h72.3v205.1h137.7v-205.1h72.4v504h-72.3v-228.1Z"/>
    <path class="st1" d="M1533.8,2353.2c0-263.9,122.4-259.7,149.6-259.7s147.9-4,147.9,259.9-120.8,261.6-147.9,261.6-149.6,4.2-149.6-261.8ZM1682.5,2164.2c-14.4,0-79.3-3-79.3,189.4s65,190.8,79.3,190.8,79.3,3,79.3-190.8-64.9-189.4-79.3-189.4Z"/>
    <path class="st1" d="M1922,2353.2c0-263.9,122.4-259.7,149.6-259.7s147.9-4,147.9,259.9-120.8,261.6-147.9,261.6-149.6,4.2-149.6-261.8ZM2070.8,2164.2c-14.4,0-79.3-3-79.3,189.4s65,190.8,79.3,190.8,79.3,3,79.3-190.8-64.9-189.4-79.3-189.4Z"/>
    <path class="st1" d="M2320.3,2102.3h72.7v436.8h184.5v67.2h-257.2v-504Z"/>
  </g>
</svg>