<?xml version="1.0" encoding="UTF-8"?>
<svg id="For_Sheets" xmlns="http://www.w3.org/2000/svg" version="1.1" viewBox="0 0 2942.6 2942.9">
  <!-- Generator: Adobe Illustrator 29.1.0, SVG Export Plug-In . SVG Version: 2.1.0 Build 142)  -->
  <defs>
    <style>
      .st0 {
        fill: #bed73d;
      }

      .st1 {
        fill: #231f20;
      }
    </style>
  </defs>
  <g>
    <path class="st0" d="M1471.4,2943c-36.1,0-70-14.1-95.5-39.6L39.5,1567C13.9,1541.5-.1,1507.5-.1,1471.4s14.1-70,39.6-95.5L1375.9,39.5C1401.4,13.9,1435.3-.1,1471.4-.1s70,14.1,95.5,39.6l1336.4,1336.4c25.5,25.5,39.6,59.5,39.6,95.5s-14.1,70-39.6,95.5l-1336.4,1336.4c-25.5,25.5-59.5,39.6-95.5,39.6Z"/>
    <path class="st1" d="M1471.4,0c34.5,0,69.1,13.2,95.5,39.5l1336.4,1336.4c52.7,52.7,52.7,138.2,0,190.9l-1336.4,1336.4c-26.4,26.4-60.9,39.5-95.5,39.5s-69.1-13.2-95.5-39.5L39.5,1566.9c-52.7-52.7-52.7-138.2,0-190.9L1376,39.5C1402.3,13.2,1436.9,0,1471.4,0M1471.4-.3c-36.1,0-70.1,14.1-95.6,39.6L39.4,1375.8c-25.5,25.5-39.6,59.5-39.6,95.6s14.1,70.1,39.6,95.6l1336.4,1336.4c25.5,25.5,59.5,39.6,95.6,39.6s70.1-14.1,95.6-39.6l1336.4-1336.4c25.5-25.5,39.6-59.5,39.6-95.6s-14.1-70.1-39.6-95.6L1567.1,39.4c-25.5-25.5-59.5-39.6-95.6-39.6h0Z"/>
  </g>
  <path class="st1" d="M65,1541.4c-38.6-38.6-38.6-101.4,0-140L1401.4,65c38.6-38.6,101.4-38.6,140,0l1336.4,1336.4c38.6,38.6,38.6,101.4,0,140l-1336.4,1336.4c-38.6,38.6-101.4,38.6-140,0L65,1541.4Z"/>
  <path class="st0" d="M103.2,1503.3c-17.5-17.5-17.5-46.1,0-63.6L1439.6,103.2c17.5-17.5,46.1-17.5,63.6,0l1336.4,1336.4c17.5,17.5,17.5,46.1,0,63.6l-1336.4,1336.4c-17.5,17.5-46.1,17.5-63.6,0L103.2,1503.3Z"/>
  <g>
    <g>
      <path class="st1" d="M1038.5,1035v40.4h-161.4c2.3-90.8,42.2-135.7,75.4-162.1,25.5-20.3,46.4-25.6,46.4-50s-18.2-40.6-40.6-40.6-40.6,18.2-40.6,40.6h-40.6c1-45.5,35.6-80.9,81.2-80.9s80.2,36.4,80.2,80.9c0,84.6-90.5,55.7-116.7,171.7h116.7Z"/>
      <path class="st1" d="M1081.7,930.9c0-150.9,70-148.5,85.5-148.5s84.5-2.3,84.5,148.6-69,149.5-84.5,149.5-85.5,2.3-85.5-149.5ZM1166.7,822.8c-8.2,0-45.3-1.7-45.3,108.3s37.1,109,45.3,109,45.3,1.7,45.3-109-37.1-108.3-45.3-108.3Z"/>
    </g>
    <g>
      <path class="st1" d="M1580.4,913.8l-53.6,161.7-53.6-161.7v161.7h-41.5v-288h41.5l53.6,161.7,53.6-161.7h41.5v288h-41.5v-161.7Z"/>
      <path class="st1" d="M1726.6,949.1v126.3h-41.3v-288h85.7c45.4,0,75.6,32.5,75.6,80.9s-27.3,80.8-75.6,80.8h-44.4ZM1726.6,909.7h42.3c24.2,0,37.3-15.1,37.3-41.4s-15.3-40.4-37.3-40.4h-42.4v81.8Z"/>
      <path class="st1" d="M2024.2,945.1h-78.7v130.4h-41.3v-288h41.3v117.2h78.7v-117.2h41.4v288h-41.3v-130.4Z"/>
    </g>
  </g>
  <g>
    <path class="st1" d="M1089.7,2076.6h-61.8l-19.3,78.8h-41.5l71.9-288h40.6l71.9,288h-41.5l-20.3-78.8ZM1038.1,2036.2h41.5l-21.3-82.9-20.3,82.9Z"/>
    <path class="st1" d="M1311.9,2025.1h-78.7v130.4h-41.3v-288h41.3v117.2h78.7v-117.2h41.4v288h-41.3v-130.4Z"/>
    <path class="st1" d="M1416.6,1867.4h135.8v40.4h-94.2v72.8h59.8v39.4h-59.8v95h105.4v40.4h-146.9v-288Z"/>
    <path class="st1" d="M1712,2076.6h-61.8l-19.3,78.8h-41.5l71.9-288h40.6l71.9,288h-41.5l-20.3-78.8ZM1660.4,2036.2h41.5l-21.3-82.9-20.3,82.9Z"/>
    <path class="st1" d="M1814.2,2155.4v-288h82.2c17.6,0,79.2.9,79.2,143.5s-56.9,144.5-75.7,144.5h-85.6ZM1887.8,1907.9h-32.3v207.1h28.7c33.7,0,50.9-14.7,50.9-102.1s-25.2-105.1-47.4-105.1Z"/>
  </g>
  <g>
    <g>
      <path class="st1" d="M1778.8,1571.1l108.9-203.4h-97.6v-40.3h150v26.2l-118.1,222.5h118.2v39.3h-161.3v-44.3Z"/>
      <path class="st1" d="M1983.4,1470.8c0-150.8,69.9-148.4,85.5-148.4s84.5-2.3,84.5,148.5-69,149.5-84.5,149.5-85.5,2.4-85.5-149.6ZM2068.4,1362.8c-8.2,0-45.3-1.7-45.3,108.2s37.1,109,45.3,109,45.3,1.7,45.3-109-37.1-108.2-45.3-108.2Z"/>
      <path class="st1" d="M2252.3,1422.4v193h-41.3v-288h41.3l78.7,172.8v-172.8h41.4v288h-31.2l-88.8-193Z"/>
      <path class="st1" d="M2435.7,1327.4h135.8v40.4h-94.2v72.8h59.8v39.4h-59.8v95h105.4v40.4h-146.9v-288Z"/>
    </g>
    <g>
      <path class="st1" d="M442.6,1432.3c31.5,19.8,78.7,47.4,78.7,104.3s-35.5,83.8-80.2,83.8-81.2-42.9-81.2-89.9h40.6c0,24.5,12.2,49.5,40.6,49.5s40.6-20.2,40.6-43.5c0-62.6-107.5-59-107.5-139.5s32.5-74.7,74-74.7,72.1,31.3,73.1,74.8h-39.6c-1-20.2-15.2-33.3-33.5-33.3s-34.5,14.1-34.5,33.3,9.9,23.3,28.8,35.2Z"/>
      <path class="st1" d="M684.3,1404.2c-4-28.3-15.2-41.4-34.5-41.4-33.5,0-45.7,26.3-45.7,101s14.2,116.2,49.8,116.2,30.4-20.2,30.4-41.4h41.6c-1,47.5-31.4,81.9-72,81.9-61.9,0-89.3-49.5-89.3-155.6s29.4-142.4,86.3-142.4,73.7,48.1,75.1,81.8h-41.6Z"/>
      <path class="st1" d="M903.5,1485.1h-78.7v130.4h-41.3v-288h41.3v117.2h78.7v-117.2h41.4v288h-41.3v-130.4Z"/>
      <path class="st1" d="M1002.5,1470.8c0-150.8,69.9-148.4,85.5-148.4s84.5-2.3,84.5,148.5-69,149.5-84.5,149.5-85.5,2.4-85.5-149.6ZM1087.5,1362.8c-8.2,0-45.3-1.7-45.3,108.2s37.1,109,45.3,109,45.3,1.7,45.3-109-37.1-108.2-45.3-108.2Z"/>
      <path class="st1" d="M1224.3,1470.8c0-150.8,69.9-148.4,85.5-148.4s84.5-2.3,84.5,148.5-69,149.5-84.5,149.5-85.5,2.4-85.5-149.6ZM1309.3,1362.8c-8.2,0-45.3-1.7-45.3,108.2s37.1,109,45.3,109,45.3,1.7,45.3-109-37.1-108.2-45.3-108.2Z"/>
      <path class="st1" d="M1451.9,1327.4h41.5v249.6h105.4v38.4h-146.9v-288Z"/>
    </g>
  </g>
</svg>