<?xml version="1.0" standalone="no"?>
<svg width="4749px" height="4749px" viewBox="-20 -3937 4749 4749 " xmlns="http://www.w3.org/2000/svg" xmlns:xlink="http://www.w3.org/1999/xlink">
<title>generated by pstoedit</title>
<!-- generated by pstoedit version:4.02 -->
<g xml:space='preserve'>
<clipPath id="clippath1"> 	<path d="
	M 0 -3917.08 
	L 0 792 
	L 4709.08 792 
	L 4709.08 -3917.08 
	Z 
	" style="clip-rule:nonzero"/>
</clipPath>
<g style="clip-path:url(#clippath1)"> 
<g fill="#95e8ff" fill-rule="nonzero" stroke-width="0" stroke-linejoin="miter" stroke-linecap="butt" stroke-miterlimit="10" >
	<path d="
	M 2507.27 728.488 
	C 2422.92 812.84 2286.16 812.84 2201.81 728.488 
	L 63.5156 -1409.8 
	C -20.8398 -1494.16 -20.8398 -1630.92 63.5156 -1715.27 
	L 2201.81 -3853.57 
	C 2286.16 -3937.92 2422.92 -3937.92 2507.27 -3853.57 
	L 4645.57 -1715.27 
	C 4729.92 -1630.92 4729.92 -1494.16 4645.57 -1409.8 
	Z 
	"/>
</g>
<g stroke="#7f7f7f" fill="none" stroke-width="0.5" stroke-linejoin="miter" stroke-linecap="butt" stroke-miterlimit="4" >
	<path d="
	M 2507.27 728.488 
	C 2422.92 812.84 2286.16 812.84 2201.81 728.488 
	L 63.5156 -1409.8 
	C -20.8398 -1494.16 -20.8398 -1630.92 63.5156 -1715.27 
	L 2201.81 -3853.57 
	C 2286.16 -3937.92 2422.92 -3937.92 2507.27 -3853.57 
	L 4645.57 -1715.27 
	C 4729.92 -1630.92 4729.92 -1494.16 4645.57 -1409.8 
	Z 
	"/>
</g>
<g fill="#7f7f7f" fill-rule="nonzero" stroke-width="0" stroke-linejoin="miter" stroke-linecap="butt" stroke-miterlimit="4" >
	<path d="
	M 101.699 -1447.99 
	C 38.5352 -1511.15 38.5352 -1613.93 101.699 -1677.09 
	L 2239.99 -3815.38 
	C 2303.15 -3878.55 2405.93 -3878.55 2469.09 -3815.38 
	L 4607.38 -1677.09 
	C 4670.55 -1613.93 4670.55 -1511.15 4607.38 -1447.99 
	L 2469.09 690.301 
	C 2405.93 753.469 2303.15 753.469 2239.99 690.301 
	Z 
	"/>
</g>
<g fill="#95e8ff" fill-rule="nonzero" stroke-width="0" stroke-linejoin="miter" stroke-linecap="butt" stroke-miterlimit="4" >
	<path d="
	M 165.34 -1511.63 
	C 137.266 -1539.7 137.266 -1585.38 165.34 -1613.45 
	L 2303.63 -3751.74 
	C 2331.7 -3779.81 2377.38 -3779.81 2405.45 -3751.74 
	L 4543.74 -1613.45 
	C 4571.82 -1585.38 4571.82 -1539.7 4543.74 -1511.63 
	L 2405.45 626.66 
	C 2377.38 654.738 2331.7 654.738 2303.63 626.66 
	Z 
	"/>
</g>
<g fill="#7f7f7f" fill-rule="nonzero" stroke-width="0" stroke-linejoin="miter" stroke-linecap="butt" stroke-miterlimit="4" >
	<path d="
	M 2225.78 -2066.54 
	L 2048.29 -2452.56 
	L 2048.29 -2066.54 
	L 1965.6 -2066.54 
	L 1965.6 -2642.54 
	L 2048.29 -2642.54 
	L 2205.61 -2296.94 
	L 2205.61 -2642.54 
	L 2288.3 -2642.54 
	L 2288.3 -2066.54 
	Z 
	"/>
</g>
<g fill="#7f7f7f" fill-rule="nonzero" stroke-width="0" stroke-linejoin="miter" stroke-linecap="butt" stroke-miterlimit="4" >
	<path d="
	M 2645.77 -2499.05 
	C 2631.52 -2549.58 2609.12 -2571.81 2574.51 -2571.81 
	C 2537.87 -2571.81 2515.47 -2549.58 2501.22 -2501.07 
	C 2486.97 -2456.61 2482.9 -2418.21 2482.9 -2353.53 
	C 2482.9 -2290.88 2489.01 -2254.5 2501.22 -2208.02 
	C 2515.47 -2159.51 2537.87 -2137.28 2574.51 -2137.28 
	C 2609.12 -2137.28 2631.52 -2159.51 2645.77 -2208.02 
	C 2660.02 -2254.5 2664.09 -2288.86 2664.09 -2355.55 
	C 2664.09 -2420.23 2657.98 -2456.61 2645.77 -2499.05 
	Z 
	M 2710.91 -2155.47 
	C 2682.41 -2086.75 2639.66 -2056.44 2574.51 -2056.44 
	C 2505.29 -2056.44 2464.58 -2086.75 2436.08 -2155.47 
	C 2411.65 -2212.06 2403.5 -2266.63 2403.5 -2355.55 
	C 2403.5 -2442.46 2411.65 -2501.07 2436.08 -2555.64 
	C 2466.61 -2624.36 2507.33 -2652.65 2574.51 -2652.65 
	C 2641.7 -2652.65 2682.41 -2624.36 2710.91 -2553.62 
	C 2735.35 -2497.03 2743.49 -2442.46 2743.49 -2355.55 
	C 2743.49 -2266.63 2735.35 -2210.04 2710.91 -2155.47 
	Z 
	"/>
</g>
<g fill="#7f7f7f" fill-rule="nonzero" stroke-width="0" stroke-linejoin="miter" stroke-linecap="butt" stroke-miterlimit="4" >
	<path d="
	M 3037.06 -1495.09 
	C 3022.94 -1535.51 2998.74 -1553.7 2962.43 -1553.7 
	L 2893.86 -1553.7 
	L 2893.86 -1139.38 
	L 2962.43 -1139.38 
	C 3010.84 -1139.38 3037.06 -1177.78 3045.13 -1222.25 
	C 3049.16 -1258.63 3053.19 -1299.05 3053.19 -1343.51 
	C 3053.19 -1408.18 3047.14 -1470.84 3037.06 -1495.09 
	Z 
	M 3051.18 -1084.82 
	C 3031.01 -1066.62 3002.77 -1058.54 2970.5 -1058.54 
	L 2811.16 -1058.54 
	L 2811.16 -1634.54 
	L 2958.4 -1634.54 
	C 3006.81 -1634.54 3031.01 -1628.48 3051.18 -1612.31 
	C 3085.46 -1588.06 3109.67 -1543.6 3119.75 -1484.98 
	C 3127.82 -1442.54 3133.87 -1392.02 3133.87 -1347.55 
	C 3133.87 -1214.16 3107.65 -1129.28 3051.18 -1084.82 
	Z 
	"/>
</g>
<g fill="#7f7f7f" fill-rule="nonzero" stroke-width="0" stroke-linejoin="miter" stroke-linecap="butt" stroke-miterlimit="4" >
	<path d="
	M 3249.07 -1058.54 
	L 3249.07 -1634.54 
	L 3520.67 -1634.54 
	L 3520.67 -1553.7 
	L 3332.17 -1553.7 
	L 3332.17 -1408.18 
	L 3451.76 -1408.18 
	L 3451.76 -1329.36 
	L 3332.17 -1329.36 
	L 3332.17 -1139.38 
	L 3542.97 -1139.38 
	L 3542.97 -1058.54 
	Z 
	"/>
</g>
<g fill="#7f7f7f" fill-rule="nonzero" stroke-width="0" stroke-linejoin="miter" stroke-linecap="butt" stroke-miterlimit="4" >
	<path d="
	M 1334.12 -1058.54 
	L 1334.12 -1319.26 
	L 1176.81 -1319.26 
	L 1176.81 -1058.54 
	L 1094.11 -1058.54 
	L 1094.11 -1634.54 
	L 1176.81 -1634.54 
	L 1176.81 -1400.1 
	L 1334.12 -1400.1 
	L 1334.12 -1634.54 
	L 1416.81 -1634.54 
	L 1416.81 -1058.54 
	Z 
	"/>
</g>
<g fill="#7f7f7f" fill-rule="nonzero" stroke-width="0" stroke-linejoin="miter" stroke-linecap="butt" stroke-miterlimit="4" >
	<path d="
	M 2436.62 -1058.54 
	L 2436.62 -1634.54 
	L 2519.73 -1634.54 
	L 2519.73 -1135.34 
	L 2730.52 -1135.34 
	L 2730.52 -1058.54 
	Z 
	"/>
</g>
<g fill="#7f7f7f" fill-rule="nonzero" stroke-width="0" stroke-linejoin="miter" stroke-linecap="butt" stroke-miterlimit="4" >
	<path d="
	M 1774.28 -1491.05 
	C 1760.03 -1541.57 1737.63 -1563.81 1703.02 -1563.81 
	C 1666.38 -1563.81 1643.98 -1541.57 1629.73 -1493.07 
	C 1615.48 -1448.61 1611.41 -1410.21 1611.41 -1345.53 
	C 1611.41 -1282.88 1617.52 -1246.5 1629.73 -1200.02 
	C 1643.98 -1151.51 1666.38 -1129.28 1703.02 -1129.28 
	C 1737.63 -1129.28 1760.03 -1151.51 1774.28 -1200.02 
	C 1788.53 -1246.5 1792.6 -1280.86 1792.6 -1347.55 
	C 1792.6 -1412.22 1786.49 -1448.61 1774.28 -1491.05 
	Z 
	M 1839.42 -1147.47 
	C 1810.92 -1078.75 1768.17 -1048.44 1703.02 -1048.44 
	C 1633.8 -1048.44 1593.09 -1078.75 1564.59 -1147.47 
	C 1540.16 -1204.06 1532.01 -1258.63 1532.01 -1347.55 
	C 1532.01 -1434.46 1540.16 -1493.07 1564.59 -1547.64 
	C 1595.12 -1616.35 1635.84 -1644.65 1703.02 -1644.65 
	C 1770.21 -1644.65 1810.92 -1616.35 1839.42 -1545.62 
	C 1863.86 -1489.03 1872 -1434.46 1872 -1347.55 
	C 1872 -1258.63 1863.86 -1202.04 1839.42 -1147.47 
	Z 
	"/>
</g>
<g fill="#7f7f7f" fill-rule="nonzero" stroke-width="0" stroke-linejoin="miter" stroke-linecap="butt" stroke-miterlimit="4" >
	<path d="
	M 3808.3 -1553.7 
	L 3723.59 -1553.7 
	L 3723.59 -1408.18 
	L 3808.3 -1408.18 
	C 3856.7 -1408.18 3882.92 -1434.46 3882.92 -1480.94 
	C 3882.92 -1525.41 3852.67 -1553.7 3808.3 -1553.7 
	Z 
	M 3878.89 -1058.54 
	L 3802.25 -1329.36 
	L 3723.59 -1329.36 
	L 3723.59 -1058.54 
	L 3640.9 -1058.54 
	L 3640.9 -1634.54 
	L 3812.33 -1634.54 
	C 3903.09 -1634.54 3963.6 -1573.91 3963.6 -1480.94 
	C 3963.6 -1412.23 3935.36 -1361.7 3880.91 -1341.49 
	L 3963.6 -1058.54 
	Z 
	"/>
</g>
<g fill="#7f7f7f" fill-rule="nonzero" stroke-width="0" stroke-linejoin="miter" stroke-linecap="butt" stroke-miterlimit="4" >
	<path d="
	M 837.5 -1324.55 
	C 812.582 -1340.69 788.383 -1356.89 772.938 -1367.76 
	C 726.5 -1400.45 701.898 -1444.56 701.898 -1495.09 
	C 701.898 -1577.95 766.848 -1644.65 850.063 -1644.65 
	C 931.242 -1644.65 994.16 -1582 996.191 -1495.09 
	L 917.039 -1495.09 
	C 915.008 -1535.51 886.594 -1561.78 850.063 -1561.78 
	C 811.5 -1561.78 781.055 -1533.49 781.055 -1495.09 
	C 781.055 -1466.79 793.234 -1450.63 835.855 -1426.37 
	C 947.48 -1361.7 996.191 -1299.05 996.191 -1216.18 
	C 996.191 -1123.21 925.156 -1048.44 835.855 -1048.44 
	C 734.375 -1048.44 673.488 -1133.32 673.488 -1228.31 
	L 754.672 -1228.31 
	C 754.672 -1179.8 779.023 -1129.28 835.855 -1129.28 
	C 880.504 -1129.28 917.039 -1169.7 917.039 -1216.18 
	C 917.039 -1252.28 902.121 -1282.68 837.5 -1324.55 
	Z 
	"/>
</g>
<g fill="#7f7f7f" fill-rule="nonzero" stroke-width="0" stroke-linejoin="miter" stroke-linecap="butt" stroke-miterlimit="4" >
	<path d="
	M 2287.72 -1129.28 
	C 2259.48 -1082.79 2205.02 -1048.44 2150.57 -1048.44 
	C 2094.09 -1048.44 2037.62 -1080.77 2009.38 -1129.28 
	C 1993.24 -1159.59 1987.19 -1183.85 1987.19 -1230.33 
	L 1987.19 -1634.54 
	L 2069.89 -1634.54 
	L 2069.89 -1220.22 
	C 2069.89 -1165.66 2102.16 -1129.28 2150.57 -1129.28 
	C 2194.94 -1129.28 2227.21 -1165.66 2227.21 -1220.22 
	L 2227.21 -1634.54 
	L 2309.9 -1634.54 
	L 2309.9 -1230.33 
	C 2309.9 -1183.85 2303.85 -1159.59 2287.72 -1129.28 
	Z 
	"/>
</g>
</g >
</g>
</svg>
