<?xml version="1.0" encoding="UTF-8" standalone="no"?>
<!-- Created with Inkscape (http://www.inkscape.org/) -->

<svg
   version="1.1"
   id="svg1"
   width="3139.72"
   height="3139.72"
   viewBox="0 0 3139.72 3139.72"
   sodipodi:docname="tmp77b_dzkf.pdf"
   xmlns:inkscape="http://www.inkscape.org/namespaces/inkscape"
   xmlns:sodipodi="http://sodipodi.sourceforge.net/DTD/sodipodi-0.dtd"
   xmlns="http://www.w3.org/2000/svg"
   xmlns:svg="http://www.w3.org/2000/svg">
  <defs
     id="defs1" />
  <sodipodi:namedview
     id="namedview1"
     pagecolor="#ffffff"
     bordercolor="#000000"
     borderopacity="0.25"
     inkscape:showpageshadow="2"
     inkscape:pageopacity="0.0"
     inkscape:pagecheckerboard="0"
     inkscape:deskcolor="#d1d1d1">
    <inkscape:page
       x="0"
       y="0"
       inkscape:label="1"
       id="page1"
       width="3139.72"
       height="3139.72"
       margin="0"
       bleed="0" />
  </sodipodi:namedview>
  <g
     id="g1"
     inkscape:groupmode="layer"
     inkscape:label="1">
    <g
       id="group-R5">
      <path
         id="path2"
         d="m 12537.6,318.801 c -421.7,-421.699 -1105.6,-421.699 -1527.3,0 L 318.828,11010.3 c -421.766,421.7 -421.766,1105.6 -0.004,1527.3 L 11010.3,23229.1 c 421.7,421.8 1105.6,421.8 1527.3,0 L 23229.1,12537.6 c 421.8,-421.7 421.8,-1105.6 0,-1527.3 L 12537.6,318.801"
         style="fill:#fccc2d;fill-opacity:1;fill-rule:nonzero;stroke:#231f20;stroke-width:5;stroke-linecap:butt;stroke-linejoin:miter;stroke-miterlimit:4;stroke-dasharray:none;stroke-opacity:1"
         transform="matrix(0.13333333,0,0,-0.13333333,0,3139.72)" />
      <path
         id="path3"
         d="m 509.746,11201.2 c -315.82,315.8 -315.82,829.7 -0.004,1145.5 L 11201.2,23038.2 c 315.8,315.8 829.7,315.8 1145.5,0 L 23038.2,12346.7 c 315.8,-315.8 315.8,-829.7 0,-1145.5 L 12346.7,509.699 c -315.8,-315.797 -829.7,-315.797 -1145.5,0 L 509.746,11201.2"
         style="fill:#231f20;fill-opacity:1;fill-rule:nonzero;stroke:none"
         transform="matrix(0.13333333,0,0,-0.13333333,0,3139.72)" />
      <path
         id="path4"
         d="m 827.945,11519.4 c -140.367,140.4 -140.367,368.7 -0.007,509.1 L 11519.4,22720 c 140.4,140.3 368.8,140.3 509.1,0 L 22720,12028.5 c 140.3,-140.4 140.3,-368.7 0,-509.1 L 12028.5,827.902 c -140.3,-140.3 -368.7,-140.3 -509.1,0 L 827.945,11519.4"
         style="fill:#fccc2d;fill-opacity:1;fill-rule:nonzero;stroke:none"
         transform="matrix(0.13333333,0,0,-0.13333333,0,3139.72)" />
      <path
         id="path5"
         d="m 11130.2,14293.9 -887.5,1930.2 v -1930.2 h -413.44 v 2880 h 413.44 l 786.6,-1728 v 1728 h 413.5 v -2880 h -312.6"
         style="fill:#231f20;fill-opacity:1;fill-rule:nonzero;stroke:none"
         transform="matrix(0.13333333,0,0,-0.13333333,0,3139.72)" />
      <path
         id="path6"
         d="m 13230.1,16456.5 c -71.3,252.6 -183.2,363.8 -356.3,363.8 -183.2,0 -295.2,-111.2 -366.4,-353.7 -71.3,-222.3 -91.6,-414.3 -91.6,-737.7 0,-313.3 30.5,-495.2 91.6,-727.6 71.2,-242.5 183.2,-353.7 366.4,-353.7 173.1,0 285,111.2 356.3,353.7 71.3,232.4 91.6,404.2 91.6,737.7 0,323.4 -30.5,505.3 -91.6,717.5 z m 325.7,-1717.9 c -142.5,-343.6 -356.2,-495.2 -682,-495.2 -346.1,0 -549.6,151.6 -692.1,495.2 -122.2,282.9 -162.9,555.8 -162.9,1000.4 0,434.5 40.7,727.6 162.9,1000.4 152.6,343.6 356.2,485.1 692.1,485.1 335.9,0 539.5,-141.5 682,-495.2 122.2,-282.9 162.9,-555.8 162.9,-990.3 0,-444.6 -40.7,-727.6 -162.9,-1000.4"
         style="fill:#231f20;fill-opacity:1;fill-rule:nonzero;stroke:none"
         transform="matrix(0.13333333,0,0,-0.13333333,0,3139.72)" />
      <path
         id="path7"
         d="m 15186.5,11436.7 c -70.5,202.1 -191.6,293 -373.1,293 h -342.8 V 9658.1 h 342.8 c 242.1,0 373.1,192 413.5,414.4 20.2,181.9 40.3,384 40.3,606.3 0,323.3 -30.2,636.6 -80.7,757.9 z m 70.6,-2051.4 c -100.8,-90.9 -242,-131.4 -403.3,-131.4 h -796.7 v 2880 h 736.2 c 242,0 363,-30.3 463.8,-111.1 171.5,-121.3 292.5,-343.6 342.9,-636.6 40.4,-212.3 70.6,-464.9 70.6,-687.2 0,-667 -131.1,-1091.4 -413.5,-1313.7"
         style="fill:#231f20;fill-opacity:1;fill-rule:nonzero;stroke:none"
         transform="matrix(0.13333333,0,0,-0.13333333,0,3139.72)" />
      <path
         id="path8"
         d="m 16246.6,9253.9 v 2880 h 1358 v -404.2 h -942.5 v -727.6 h 598 V 10608 h -598 v -949.9 h 1054 v -404.2 h -1469.5"
         style="fill:#231f20;fill-opacity:1;fill-rule:nonzero;stroke:none"
         transform="matrix(0.13333333,0,0,-0.13333333,0,3139.72)" />
      <path
         id="path9"
         d="m 6671.88,9253.9 v 1303.6 H 5885.29 V 9253.9 h -413.47 v 2880 h 413.47 v -1172.2 h 786.59 v 1172.2 h 413.45 v -2880 h -413.45"
         style="fill:#231f20;fill-opacity:1;fill-rule:nonzero;stroke:none"
         transform="matrix(0.13333333,0,0,-0.13333333,0,3139.72)" />
      <path
         id="path10"
         d="m 12184.4,9253.9 v 2880 h 415.5 v -2496 h 1054 v -384 h -1469.5"
         style="fill:#231f20;fill-opacity:1;fill-rule:nonzero;stroke:none"
         transform="matrix(0.13333333,0,0,-0.13333333,0,3139.72)" />
      <path
         id="path11"
         d="m 8872.65,11416.5 c -71.25,252.6 -183.23,363.8 -356.27,363.8 -183.23,0 -295.2,-111.2 -366.45,-353.7 -71.26,-222.3 -91.61,-414.3 -91.61,-737.7 0,-313.3 30.54,-495.2 91.61,-727.6 71.25,-242.5 183.22,-353.7 366.45,-353.7 173.04,0 285.02,111.2 356.27,353.7 71.26,232.4 91.61,404.2 91.61,737.7 0,323.3 -30.54,505.3 -91.61,717.5 z m 325.73,-1717.9 c -142.51,-343.6 -356.27,-495.2 -682,-495.2 -346.1,0 -549.67,151.6 -692.18,495.2 -122.16,282.9 -162.87,555.8 -162.87,1000.4 0,434.5 40.71,727.6 162.87,1000.4 152.68,343.6 356.27,485.1 692.18,485.1 335.91,0 539.49,-141.5 682,-495.2 122.16,-282.9 162.87,-555.8 162.87,-990.3 0,-444.6 -40.71,-727.6 -162.87,-1000.4"
         style="fill:#231f20;fill-opacity:1;fill-rule:nonzero;stroke:none"
         transform="matrix(0.13333333,0,0,-0.13333333,0,3139.72)" />
      <path
         id="path12"
         d="m 19042.7,11729.7 h -423.5 v -727.6 h 423.5 c 242.1,0 373.2,131.4 373.2,363.8 0,222.4 -151.3,363.8 -373.2,363.8 z m 353,-2475.8 -383.2,1354.1 h -393.3 V 9253.9 h -413.5 v 2880 h 857.2 c 453.8,0 756.4,-303.1 756.4,-768 0,-343.5 -141.2,-596.2 -413.5,-697.2 l 413.5,-1414.8 h -423.6"
         style="fill:#231f20;fill-opacity:1;fill-rule:nonzero;stroke:none"
         transform="matrix(0.13333333,0,0,-0.13333333,0,3139.72)" />
      <path
         id="path13"
         d="m 4188.77,10584 c -124.6,80.7 -245.59,161.7 -322.82,216 -232.19,163.5 -355.19,384 -355.19,636.7 0,414.3 324.74,747.8 740.81,747.8 405.91,0 720.5,-313.3 730.65,-747.8 h -395.76 c -10.15,202.1 -152.23,333.4 -334.89,333.4 -192.81,0 -345.03,-141.4 -345.03,-333.4 0,-141.5 60.89,-222.3 274,-343.6 558.13,-323.4 801.68,-636.6 801.68,-1051 0,-464.8 -355.18,-838.7 -801.68,-838.7 -507.41,0 -811.84,424.4 -811.84,899.4 h 405.92 c 0,-242.5 121.77,-495.2 405.92,-495.2 223.25,0 405.92,202.1 405.92,434.5 0,180.5 -74.58,332.5 -397.69,541.9"
         style="fill:#231f20;fill-opacity:1;fill-rule:nonzero;stroke:none"
         transform="matrix(0.13333333,0,0,-0.13333333,0,3139.72)" />
      <path
         id="path14"
         d="m 11439.9,9607.6 c -141.2,-232.4 -413.5,-404.2 -685.8,-404.2 -282.4,0 -564.7,161.7 -705.9,404.2 -80.72,151.6 -110.96,272.9 -110.96,505.3 v 2021 h 413.46 v -2071.6 c 0,-272.8 161.4,-454.7 403.4,-454.7 221.9,0 383.2,181.9 383.2,454.7 v 2071.6 h 413.5 v -2021 c 0,-232.4 -30.3,-353.7 -110.9,-505.3"
         style="fill:#231f20;fill-opacity:1;fill-rule:nonzero;stroke:none"
         transform="matrix(0.13333333,0,0,-0.13333333,0,3139.72)" />
    </g>
  </g>
</svg>
