<?xml version="1.0" standalone="no"?>
<svg width="2375px" height="2375px" viewBox="-10 -1573 2375 2375 " xmlns="http://www.w3.org/2000/svg" xmlns:xlink="http://www.w3.org/1999/xlink">
<title>generated by pstoedit</title>
<!-- generated by pstoedit version:4.02 -->
<g xml:space='preserve'>
<clipPath id="clippath1"> 	<path d="
	M 0 -1562.79 
	L 0 792 
	L 2354.79 792 
	L 2354.79 -1562.79 
	Z 
	" style="clip-rule:nonzero"/>
</clipPath>
<g style="clip-path:url(#clippath1)"> 
<g fill="#95e8ff" fill-rule="nonzero" stroke-width="0" stroke-linejoin="miter" stroke-linecap="butt" stroke-miterlimit="10" >
	<path d="
	M 1253.76 760.121 
	C 1211.59 802.289 1143.2 802.289 1101.03 760.121 
	L 31.8828 -309.03 
	C -10.293 -351.2 -10.293 -419.59 31.8828 -461.76 
	L 1101.03 -1530.91 
	C 1143.2 -1573.09 1211.59 -1573.09 1253.76 -1530.91 
	L 2322.91 -461.76 
	C 2365.09 -419.59 2365.09 -351.2 2322.91 -309.03 
	Z 
	"/>
</g>
<g stroke="#7f7f7f" fill="none" stroke-width="0.5" stroke-linejoin="miter" stroke-linecap="butt" stroke-miterlimit="4" >
	<path d="
	M 1253.76 760.121 
	C 1211.59 802.289 1143.2 802.289 1101.03 760.121 
	L 31.8828 -309.03 
	C -10.293 -351.2 -10.293 -419.59 31.8828 -461.76 
	L 1101.03 -1530.91 
	C 1143.2 -1573.09 1211.59 -1573.09 1253.76 -1530.91 
	L 2322.91 -461.76 
	C 2365.09 -419.59 2365.09 -351.2 2322.91 -309.03 
	Z 
	"/>
</g>
<g fill="#7f7f7f" fill-rule="nonzero" stroke-width="0" stroke-linejoin="miter" stroke-linecap="butt" stroke-miterlimit="4" >
	<path d="
	M 50.9727 -328.12 
	C 19.3945 -359.7 19.3945 -411.09 50.9727 -442.67 
	L 1120.12 -1511.82 
	C 1151.7 -1543.4 1203.09 -1543.4 1234.67 -1511.82 
	L 2303.82 -442.67 
	C 2335.4 -411.09 2335.4 -359.7 2303.82 -328.12 
	L 1234.67 741.031 
	C 1203.09 772.609 1151.7 772.609 1120.12 741.031 
	Z 
	"/>
</g>
<g fill="#95e8ff" fill-rule="nonzero" stroke-width="0" stroke-linejoin="miter" stroke-linecap="butt" stroke-miterlimit="4" >
	<path d="
	M 82.793 -359.94 
	C 68.7578 -373.98 68.7578 -396.81 82.793 -410.85 
	L 1151.94 -1480 
	C 1165.98 -1494.03 1188.82 -1494.03 1202.85 -1480 
	L 2272 -410.85 
	C 2286.03 -396.81 2286.03 -373.98 2272 -359.94 
	L 1202.85 709.211 
	C 1188.82 723.238 1165.98 723.238 1151.94 709.211 
	Z 
	"/>
</g>
<g fill="#7f7f7f" fill-rule="nonzero" stroke-width="0" stroke-linejoin="miter" stroke-linecap="butt" stroke-miterlimit="4" >
	<path d="
	M 982.723 -177.461 
	C 973.605 -192.621 962.465 -198.68 945.242 -199.691 
	C 922.957 -200.699 908.773 -189.59 898.645 -164.32 
	C 891.555 -147.141 887.504 -120.871 887.504 -96.621 
	C 887.504 -66.301 893.578 -34.98 904.723 -16.789 
	C 913.84 -1.62903 925.996 5.44897 944.23 5.44897 
	C 965.504 5.44897 978.672 -5.672 988.801 -30.93 
	C 994.879 -46.09 999.945 -74.391 999.945 -96.621 
	C 999.945 -128.949 993.867 -158.262 982.723 -177.461 
	Z 
	M 1014.12 19.59 
	C 997.918 41.82 974.617 51.93 944.23 51.93 
	C 903.711 51.93 878.383 35.762 861.164 0.390991 
	C 849.008 -23.859 840.906 -62.262 840.906 -96.621 
	C 840.906 -144.109 853.059 -186.551 872.309 -213.84 
	C 889.527 -236.07 912.828 -246.18 946.254 -246.18 
	C 982.723 -246.18 1008.05 -230.01 1026.28 -194.641 
	C 1038.44 -169.379 1045.53 -133 1045.53 -96.621 
	C 1045.53 -51.141 1034.39 -5.672 1014.12 19.59 
	Z 
	"/>
</g>
<g fill="#7f7f7f" fill-rule="nonzero" stroke-width="0" stroke-linejoin="miter" stroke-linecap="butt" stroke-miterlimit="4" >
	<path d="
	M 1511.57 46.52 
	L 1438.58 -89.898 
	L 1408.16 -52.512 
	L 1408.16 46.52 
	L 1362.54 46.52 
	L 1362.54 -241.48 
	L 1408.16 -241.48 
	L 1408.16 -127.289 
	L 1499.4 -241.48 
	L 1558.2 -241.48 
	L 1468.99 -129.309 
	L 1564.29 46.52 
	Z 
	"/>
</g>
<g fill="#7f7f7f" fill-rule="nonzero" stroke-width="0" stroke-linejoin="miter" stroke-linecap="butt" stroke-miterlimit="4" >
	<path d="
	M 727.969 -190.949 
	C 720.898 -194.988 716.855 -196 701.695 -196 
	L 647.125 -196 
	L 647.125 -125.27 
	L 701.695 -125.27 
	C 715.844 -125.27 720.898 -126.27 727.969 -130.32 
	C 739.09 -136.379 746.164 -148.512 746.164 -160.629 
	C 746.164 -172.762 739.09 -184.891 727.969 -190.949 
	Z 
	M 748.184 46.52 
	L 701.695 -78.781 
	L 647.125 -78.781 
	L 647.125 46.52 
	L 601.648 46.52 
	L 601.648 -241.48 
	L 696.641 -241.48 
	C 718.875 -241.48 734.035 -239.45 748.184 -232.38 
	C 773.449 -220.25 791.641 -189.941 791.641 -160.629 
	C 791.641 -130.32 773.449 -100 747.172 -87.871 
	L 797.703 46.52 
	Z 
	"/>
</g>
<g fill="#7f7f7f" fill-rule="nonzero" stroke-width="0" stroke-linejoin="miter" stroke-linecap="butt" stroke-miterlimit="4" >
	<path d="
	M 1760.85 28.988 
	C 1744.68 43.141 1722.44 51.23 1698.19 51.23 
	C 1648.67 51.23 1612.29 21.922 1593.09 -21.531 
	L 1636.54 -37.699 
	C 1648.67 -10.422 1670.9 4.73798 1698.19 4.73798 
	C 1724.47 4.73798 1742.65 -13.449 1742.65 -37.699 
	C 1742.65 -76.102 1698.19 -82.16 1660.8 -97.32 
	C 1643.62 -104.391 1605.22 -121.57 1605.22 -169.07 
	C 1605.22 -225.66 1643.62 -246.88 1695.16 -246.88 
	C 1735.58 -246.88 1762.87 -223.64 1777.01 -188.27 
	L 1736.59 -176.141 
	C 1736.59 -176.141 1726.49 -200.391 1694.15 -201.41 
	C 1672.93 -202.422 1647.66 -194.328 1649.68 -168.059 
	C 1653.72 -114.5 1789.14 -149.871 1789.14 -36.691 
	C 1789.14 -10.422 1779.04 12.82 1760.85 28.988 
	Z 
	"/>
</g>
<g fill="#7f7f7f" fill-rule="nonzero" stroke-width="0" stroke-linejoin="miter" stroke-linecap="butt" stroke-miterlimit="4" >
	<path d="
	M 1212.27 51.578 
	C 1169.82 51.578 1142.54 35.41 1124.35 0.0390015 
	C 1111.21 -25.219 1103.12 -61.602 1103.12 -97.98 
	C 1103.12 -143.461 1115.25 -188.93 1135.46 -214.19 
	C 1152.64 -235.41 1176.9 -246.53 1209.24 -246.53 
	C 1252.69 -246.53 1279.98 -228.34 1299.18 -187.922 
	L 1256.74 -169.73 
	C 1240.57 -193.98 1231.47 -200.039 1209.24 -200.039 
	C 1185.99 -200.039 1170.83 -189.941 1160.73 -164.68 
	C 1153.66 -147.5 1149.61 -122.23 1149.61 -97.98 
	C 1149.61 -66.648 1156.69 -35.328 1167.8 -17.141 
	C 1177.91 -1.97998 1191.05 5.09003 1211.26 5.09003 
	C 1230.46 5.09003 1244.61 -5.01202 1255.73 -28.25 
	L 1299.18 -12.09 
	C 1282 30.359 1253.71 51.578 1212.27 51.578 
	Z 
	"/>
</g>
<g fill="#7f7f7f" fill-rule="nonzero" stroke-width="0" stroke-linejoin="miter" stroke-linecap="butt" stroke-miterlimit="4" >
	<path d="
	M 1812.66 -457.48 
	L 1702.5 -652.51 
	L 1702.5 -457.48 
	L 1657.02 -457.48 
	L 1657.02 -745.48 
	L 1702.5 -745.48 
	L 1807.6 -561.56 
	L 1807.6 -745.48 
	L 1853.08 -745.48 
	L 1853.08 -457.48 
	Z 
	"/>
</g>
<g fill="#7f7f7f" fill-rule="nonzero" stroke-width="0" stroke-linejoin="miter" stroke-linecap="butt" stroke-miterlimit="4" >
	<path d="
	M 985.77 -457.48 
	L 985.77 -745.48 
	L 1031.18 -745.48 
	L 1031.18 -499.92 
	L 1164.4 -499.92 
	L 1164.4 -457.48 
	Z 
	"/>
</g>
<g fill="#7f7f7f" fill-rule="nonzero" stroke-width="0" stroke-linejoin="miter" stroke-linecap="butt" stroke-miterlimit="4" >
	<path d="
	M 1207.6 -457.48 
	L 1207.6 -745.48 
	L 1253.02 -745.48 
	L 1253.02 -499.92 
	L 1386.23 -499.92 
	L 1386.23 -457.48 
	Z 
	"/>
</g>
<g fill="#7f7f7f" fill-rule="nonzero" stroke-width="0" stroke-linejoin="miter" stroke-linecap="butt" stroke-miterlimit="4" >
	<path d="
	M 1429.43 -457.48 
	L 1429.43 -745.48 
	L 1598.98 -745.48 
	L 1598.98 -700 
	L 1474.85 -700 
	L 1474.85 -629.27 
	L 1558.61 -629.27 
	L 1558.61 -582.79 
	L 1474.85 -582.79 
	L 1474.85 -503.96 
	L 1608.06 -503.96 
	L 1608.06 -457.48 
	Z 
	"/>
</g>
<g fill="#7f7f7f" fill-rule="nonzero" stroke-width="0" stroke-linejoin="miter" stroke-linecap="butt" stroke-miterlimit="4" >
	<path d="
	M 820.605 -665.65 
	L 791.133 -584.8 
	L 849.063 -584.8 
	Z 
	M 893.785 -457.48 
	L 865.324 -538.32 
	L 774.867 -538.32 
	L 746.41 -457.48 
	L 697.625 -457.48 
	L 797.23 -745.48 
	L 842.965 -745.48 
	L 942.57 -457.48 
	Z 
	"/>
</g>
<g fill="#7f7f7f" fill-rule="nonzero" stroke-width="0" stroke-linejoin="miter" stroke-linecap="butt" stroke-miterlimit="4" >
	<path d="
	M 547.129 -700 
	L 547.129 -629.27 
	L 630.891 -629.27 
	L 630.891 -582.79 
	L 547.129 -582.79 
	L 547.129 -457.48 
	L 501.711 -457.48 
	L 501.711 -745.48 
	L 680.344 -745.48 
	L 680.344 -700 
	Z 
	"/>
</g>
</g >
</g>
</svg>
