<?xml version="1.0" standalone="no"?>
<svg width="4749px" height="4749px" viewBox="-20 -3937 4749 4749 " xmlns="http://www.w3.org/2000/svg" xmlns:xlink="http://www.w3.org/1999/xlink">
<title>generated by pstoedit</title>
<!-- generated by pstoedit version:4.02 -->
<g xml:space='preserve'>
<clipPath id="clippath1"> 	<path d="
	M 0 -3917.08 
	L 0 792 
	L 4709.08 792 
	L 4709.08 -3917.08 
	Z 
	" style="clip-rule:nonzero"/>
</clipPath>
<g style="clip-path:url(#clippath1)"> 
<g fill="#95e8ff" fill-rule="nonzero" stroke-width="0" stroke-linejoin="miter" stroke-linecap="butt" stroke-miterlimit="10" >
	<path d="
	M 2507.27 728.488 
	C 2422.92 812.84 2286.16 812.84 2201.81 728.488 
	L 63.5156 -1409.8 
	C -20.8398 -1494.16 -20.8398 -1630.92 63.5156 -1715.27 
	L 2201.81 -3853.57 
	C 2286.16 -3937.92 2422.92 -3937.92 2507.27 -3853.57 
	L 4645.57 -1715.27 
	C 4729.92 -1630.92 4729.92 -1494.16 4645.57 -1409.8 
	Z 
	"/>
</g>
<g stroke="#7f7f7f" fill="none" stroke-width="0.5" stroke-linejoin="miter" stroke-linecap="butt" stroke-miterlimit="4" >
	<path d="
	M 2507.27 728.488 
	C 2422.92 812.84 2286.16 812.84 2201.81 728.488 
	L 63.5156 -1409.8 
	C -20.8398 -1494.16 -20.8398 -1630.92 63.5156 -1715.27 
	L 2201.81 -3853.57 
	C 2286.16 -3937.92 2422.92 -3937.92 2507.27 -3853.57 
	L 4645.57 -1715.27 
	C 4729.92 -1630.92 4729.92 -1494.16 4645.57 -1409.8 
	Z 
	"/>
</g>
<g fill="#7f7f7f" fill-rule="nonzero" stroke-width="0" stroke-linejoin="miter" stroke-linecap="butt" stroke-miterlimit="4" >
	<path d="
	M 101.699 -1447.99 
	C 38.5352 -1511.15 38.5352 -1613.93 101.699 -1677.09 
	L 2239.99 -3815.38 
	C 2303.15 -3878.55 2405.93 -3878.55 2469.09 -3815.38 
	L 4607.38 -1677.09 
	C 4670.55 -1613.93 4670.55 -1511.15 4607.38 -1447.99 
	L 2469.09 690.301 
	C 2405.93 753.469 2303.15 753.469 2239.99 690.301 
	Z 
	"/>
</g>
<g fill="#95e8ff" fill-rule="nonzero" stroke-width="0" stroke-linejoin="miter" stroke-linecap="butt" stroke-miterlimit="4" >
	<path d="
	M 165.34 -1511.63 
	C 137.266 -1539.7 137.266 -1585.38 165.34 -1613.45 
	L 2303.63 -3751.74 
	C 2331.7 -3779.81 2377.38 -3779.81 2405.45 -3751.74 
	L 4543.74 -1613.45 
	C 4571.82 -1585.38 4571.82 -1539.7 4543.74 -1511.63 
	L 2405.45 626.66 
	C 2377.38 654.738 2331.7 654.738 2303.63 626.66 
	Z 
	"/>
</g>
<g fill="#7f7f7f" fill-rule="nonzero" stroke-width="0" stroke-linejoin="miter" stroke-linecap="butt" stroke-miterlimit="4" >
	<path d="
	M 1965.19 -1146.51 
	C 1946.96 -1176.82 1924.68 -1188.94 1890.23 -1190.97 
	C 1845.66 -1192.99 1817.29 -1170.76 1797.04 -1120.23 
	C 1782.86 -1085.87 1774.75 -1033.33 1774.75 -984.82 
	C 1774.75 -924.19 1786.9 -861.54 1809.19 -825.16 
	C 1827.43 -794.84 1851.74 -780.69 1888.21 -780.69 
	C 1930.75 -780.69 1957.09 -802.93 1977.35 -853.45 
	C 1989.51 -883.76 1999.64 -940.36 1999.64 -984.82 
	C 1999.64 -1049.49 1987.48 -1108.1 1965.19 -1146.51 
	Z 
	M 2028 -752.4 
	C 1995.58 -707.94 1948.98 -687.73 1888.21 -687.73 
	C 1807.17 -687.73 1756.51 -720.06 1722.07 -790.8 
	C 1697.76 -839.31 1681.56 -916.1 1681.56 -984.82 
	C 1681.56 -1079.81 1705.86 -1164.69 1744.36 -1219.26 
	C 1778.8 -1263.73 1825.4 -1283.94 1892.26 -1283.94 
	C 1965.19 -1283.94 2015.84 -1251.6 2052.31 -1180.86 
	C 2076.62 -1130.34 2090.8 -1057.58 2090.8 -984.82 
	C 2090.8 -893.87 2068.52 -802.93 2028 -752.4 
	Z 
	"/>
</g>
<g fill="#7f7f7f" fill-rule="nonzero" stroke-width="0" stroke-linejoin="miter" stroke-linecap="butt" stroke-miterlimit="4" >
	<path d="
	M 3022.89 -698.54 
	L 2876.9 -971.38 
	L 2816.07 -896.6 
	L 2816.07 -698.54 
	L 2724.83 -698.54 
	L 2724.83 -1274.54 
	L 2816.07 -1274.54 
	L 2816.07 -1046.16 
	L 2998.56 -1274.54 
	L 3116.15 -1274.54 
	L 2937.73 -1050.2 
	L 3128.32 -698.54 
	Z 
	"/>
</g>
<g fill="#7f7f7f" fill-rule="nonzero" stroke-width="0" stroke-linejoin="miter" stroke-linecap="butt" stroke-miterlimit="4" >
	<path d="
	M 1455.69 -1173.48 
	C 1441.54 -1181.57 1433.46 -1183.59 1403.14 -1183.59 
	L 1294 -1183.59 
	L 1294 -1042.12 
	L 1403.14 -1042.12 
	C 1431.44 -1042.12 1441.54 -1044.13 1455.69 -1052.22 
	C 1477.93 -1064.34 1492.07 -1088.6 1492.07 -1112.85 
	C 1492.07 -1137.1 1477.93 -1161.36 1455.69 -1173.48 
	Z 
	M 1496.11 -698.54 
	L 1403.14 -949.15 
	L 1294 -949.15 
	L 1294 -698.54 
	L 1203.04 -698.54 
	L 1203.04 -1274.54 
	L 1393.03 -1274.54 
	C 1437.5 -1274.54 1467.82 -1270.49 1496.11 -1256.34 
	C 1546.65 -1232.09 1583.03 -1171.46 1583.03 -1112.85 
	C 1583.03 -1052.22 1546.65 -991.59 1494.09 -967.33 
	L 1595.16 -698.54 
	Z 
	"/>
</g>
<g fill="#7f7f7f" fill-rule="nonzero" stroke-width="0" stroke-linejoin="miter" stroke-linecap="butt" stroke-miterlimit="4" >
	<path d="
	M 3521.44 -733.6 
	C 3489.1 -705.3 3444.64 -689.13 3396.13 -689.13 
	C 3297.09 -689.13 3224.33 -747.74 3185.92 -834.65 
	L 3272.84 -866.98 
	C 3297.09 -812.42 3341.56 -782.1 3396.13 -782.1 
	C 3448.68 -782.1 3485.06 -818.48 3485.06 -866.98 
	C 3485.06 -943.79 3396.13 -955.91 3321.34 -986.23 
	C 3286.98 -1000.37 3210.18 -1034.73 3210.18 -1129.73 
	C 3210.18 -1242.91 3286.98 -1285.34 3390.07 -1285.34 
	C 3470.91 -1285.34 3525.48 -1238.86 3553.78 -1168.12 
	L 3472.93 -1143.87 
	C 3472.93 -1143.87 3452.73 -1192.37 3388.04 -1194.4 
	C 3345.6 -1196.42 3295.07 -1180.25 3299.11 -1127.7 
	C 3307.2 -1020.59 3578.04 -1091.32 3578.04 -864.97 
	C 3578.04 -812.42 3557.82 -765.94 3521.44 -733.6 
	Z 
	"/>
</g>
<g fill="#7f7f7f" fill-rule="nonzero" stroke-width="0" stroke-linejoin="miter" stroke-linecap="butt" stroke-miterlimit="4" >
	<path d="
	M 2424.29 -688.43 
	C 2339.4 -688.43 2284.83 -720.77 2248.44 -791.51 
	C 2222.17 -842.03 2206 -914.79 2206 -987.55 
	C 2206 -1078.5 2230.25 -1169.44 2270.68 -1219.97 
	C 2305.04 -1262.41 2353.55 -1284.64 2418.23 -1284.64 
	C 2505.14 -1284.64 2559.71 -1248.26 2598.11 -1167.42 
	L 2513.22 -1131.04 
	C 2480.88 -1179.55 2462.69 -1191.67 2418.23 -1191.67 
	C 2371.74 -1191.67 2341.42 -1171.46 2321.21 -1120.94 
	C 2307.06 -1086.58 2298.98 -1036.05 2298.98 -987.55 
	C 2298.98 -924.89 2313.12 -862.24 2335.36 -825.86 
	C 2355.57 -795.55 2381.84 -781.4 2422.27 -781.4 
	C 2460.67 -781.4 2488.97 -801.61 2511.2 -848.09 
	L 2598.11 -815.76 
	C 2563.75 -730.87 2507.16 -688.43 2424.29 -688.43 
	Z 
	"/>
</g>
<g fill="#7f7f7f" fill-rule="nonzero" stroke-width="0" stroke-linejoin="miter" stroke-linecap="butt" stroke-miterlimit="4" >
	<path d="
	M 3625.07 -1706.54 
	L 3404.76 -2096.61 
	L 3404.76 -1706.54 
	L 3313.8 -1706.54 
	L 3313.8 -2282.55 
	L 3404.76 -2282.55 
	L 3614.96 -1914.71 
	L 3614.96 -2282.55 
	L 3705.91 -2282.55 
	L 3705.91 -1706.54 
	Z 
	"/>
</g>
<g fill="#7f7f7f" fill-rule="nonzero" stroke-width="0" stroke-linejoin="miter" stroke-linecap="butt" stroke-miterlimit="4" >
	<path d="
	M 1971.29 -1706.54 
	L 1971.29 -2282.55 
	L 2062.12 -2282.55 
	L 2062.12 -1791.42 
	L 2328.56 -1791.42 
	L 2328.56 -1706.54 
	Z 
	"/>
</g>
<g fill="#7f7f7f" fill-rule="nonzero" stroke-width="0" stroke-linejoin="miter" stroke-linecap="butt" stroke-miterlimit="4" >
	<path d="
	M 2414.96 -1706.54 
	L 2414.96 -2282.55 
	L 2505.79 -2282.55 
	L 2505.79 -1791.42 
	L 2772.22 -1791.42 
	L 2772.22 -1706.54 
	Z 
	"/>
</g>
<g fill="#7f7f7f" fill-rule="nonzero" stroke-width="0" stroke-linejoin="miter" stroke-linecap="butt" stroke-miterlimit="4" >
	<path d="
	M 2858.62 -1706.54 
	L 2858.62 -2282.54 
	L 3197.71 -2282.54 
	L 3197.71 -2191.6 
	L 2949.44 -2191.6 
	L 2949.44 -2050.12 
	L 3116.98 -2050.12 
	L 3116.98 -1957.15 
	L 2949.44 -1957.15 
	L 2949.44 -1799.51 
	L 3215.88 -1799.51 
	L 3215.88 -1706.54 
	Z 
	"/>
</g>
<g fill="#7f7f7f" fill-rule="nonzero" stroke-width="0" stroke-linejoin="miter" stroke-linecap="butt" stroke-miterlimit="4" >
	<path d="
	M 1640.96 -2122.88 
	L 1582.02 -1961.19 
	L 1697.88 -1961.19 
	Z 
	M 1787.32 -1706.54 
	L 1730.41 -1868.22 
	L 1549.49 -1868.22 
	L 1492.57 -1706.54 
	L 1395 -1706.54 
	L 1594.21 -2282.54 
	L 1685.68 -2282.54 
	L 1884.89 -1706.54 
	Z 
	"/>
</g>
<g fill="#7f7f7f" fill-rule="nonzero" stroke-width="0" stroke-linejoin="miter" stroke-linecap="butt" stroke-miterlimit="4" >
	<path d="
	M 1094.01 -2191.6 
	L 1094.01 -2050.12 
	L 1261.54 -2050.12 
	L 1261.54 -1957.15 
	L 1094.01 -1957.15 
	L 1094.01 -1706.54 
	L 1003.18 -1706.54 
	L 1003.18 -2282.54 
	L 1360.44 -2282.54 
	L 1360.44 -2191.6 
	Z 
	"/>
</g>
</g >
</g>
</svg>
