<?xml version="1.0" standalone="no"?>
<svg width="3562px" height="3562px" viewBox="-15 -2755 3562 3562 " xmlns="http://www.w3.org/2000/svg" xmlns:xlink="http://www.w3.org/1999/xlink">
<title>generated by pstoedit</title>
<!-- generated by pstoedit version:4.02 -->
<g xml:space='preserve'>
<clipPath id="clippath1"> 	<path d="
	M 0 -2739.94 
	L 0 792 
	L 3531.94 792 
	L 3531.94 -2739.94 
	Z 
	" style="clip-rule:nonzero"/>
</clipPath>
<g style="clip-path:url(#clippath1)"> 
<g fill="#95e8ff" fill-rule="nonzero" stroke-width="0" stroke-linejoin="miter" stroke-linecap="butt" stroke-miterlimit="10" >
	<path d="
	M 1880.52 744.301 
	C 1817.25 807.559 1714.68 807.559 1651.42 744.301 
	L 47.6992 -859.42 
	C -15.5664 -922.69 -15.5664 -1025.26 47.6992 -1088.52 
	L 1651.42 -2692.24 
	C 1714.68 -2755.51 1817.25 -2755.51 1880.52 -2692.24 
	L 3484.24 -1088.52 
	C 3547.5 -1025.26 3547.5 -922.69 3484.24 -859.42 
	Z 
	"/>
</g>
<g stroke="#7f7f7f" fill="none" stroke-width="0.5" stroke-linejoin="miter" stroke-linecap="butt" stroke-miterlimit="4" >
	<path d="
	M 1880.52 744.301 
	C 1817.25 807.559 1714.68 807.559 1651.42 744.301 
	L 47.6992 -859.42 
	C -15.5664 -922.69 -15.5664 -1025.26 47.6992 -1088.52 
	L 1651.42 -2692.24 
	C 1714.68 -2755.51 1817.25 -2755.51 1880.52 -2692.24 
	L 3484.24 -1088.52 
	C 3547.5 -1025.26 3547.5 -922.69 3484.24 -859.42 
	Z 
	"/>
</g>
<g fill="#7f7f7f" fill-rule="nonzero" stroke-width="0" stroke-linejoin="miter" stroke-linecap="butt" stroke-miterlimit="4" >
	<path d="
	M 79.5195 -891.24 
	C 33.9023 -936.86 33.9023 -1011.08 79.5195 -1056.7 
	L 1683.24 -2660.42 
	C 1728.85 -2706.04 1803.08 -2706.04 1848.7 -2660.42 
	L 3452.42 -1056.7 
	C 3498.04 -1011.08 3498.04 -936.86 3452.42 -891.24 
	L 1848.7 712.48 
	C 1803.08 758.102 1728.85 758.102 1683.24 712.48 
	Z 
	"/>
</g>
<g fill="#95e8ff" fill-rule="nonzero" stroke-width="0" stroke-linejoin="miter" stroke-linecap="butt" stroke-miterlimit="4" >
	<path d="
	M 124.066 -935.79 
	C 103.012 -956.84 103.012 -991.1 124.066 -1012.15 
	L 1727.78 -2615.88 
	C 1748.84 -2636.93 1783.1 -2636.93 1804.15 -2615.88 
	L 3407.87 -1012.15 
	C 3428.92 -991.1 3428.92 -956.84 3407.87 -935.79 
	L 1804.15 667.93 
	C 1783.1 688.98 1748.84 688.98 1727.78 667.93 
	Z 
	"/>
</g>
<g fill="#7f7f7f" fill-rule="nonzero" stroke-width="0" stroke-linejoin="miter" stroke-linecap="butt" stroke-miterlimit="4" >
	<path d="
	M 1651.38 -1585.53 
	L 1486.15 -1878.07 
	L 1486.15 -1585.53 
	L 1417.94 -1585.53 
	L 1417.94 -2017.53 
	L 1486.15 -2017.53 
	L 1643.8 -1741.65 
	L 1643.8 -2017.53 
	L 1712.02 -2017.53 
	L 1712.02 -1585.53 
	Z 
	"/>
</g>
<g fill="#7f7f7f" fill-rule="nonzero" stroke-width="0" stroke-linejoin="miter" stroke-linecap="butt" stroke-miterlimit="4" >
	<path d="
	M 2019.79 -1921.5 
	C 2006.11 -1944.24 1989.4 -1953.33 1963.57 -1954.85 
	C 1930.14 -1956.36 1908.87 -1939.69 1893.67 -1901.8 
	C 1883.04 -1876.03 1876.96 -1836.62 1876.96 -1800.24 
	C 1876.96 -1754.77 1886.07 -1707.77 1902.79 -1680.49 
	C 1916.46 -1657.75 1934.7 -1647.14 1962.05 -1647.14 
	C 1993.96 -1647.14 2013.71 -1663.82 2028.91 -1701.71 
	C 2038.02 -1724.45 2045.62 -1766.89 2045.62 -1800.24 
	C 2045.62 -1848.74 2036.5 -1892.7 2019.79 -1921.5 
	Z 
	M 2066.89 -1625.92 
	C 2042.58 -1592.57 2007.63 -1577.42 1962.05 -1577.42 
	C 1901.27 -1577.42 1863.28 -1601.67 1837.45 -1654.72 
	C 1819.22 -1691.1 1807.06 -1748.7 1807.06 -1800.24 
	C 1807.06 -1871.48 1825.29 -1935.14 1854.17 -1976.07 
	C 1880 -2009.42 1914.95 -2024.57 1965.09 -2024.57 
	C 2019.79 -2024.57 2057.78 -2000.32 2085.13 -1947.27 
	C 2103.36 -1909.38 2114 -1854.8 2114 -1800.24 
	C 2114 -1732.03 2097.28 -1663.82 2066.89 -1625.92 
	Z 
	"/>
</g>
<g fill="#7f7f7f" fill-rule="nonzero" stroke-width="0" stroke-linejoin="miter" stroke-linecap="butt" stroke-miterlimit="4" >
	<path d="
	M 1919.33 -73.52 
	L 1754.1 -366.07 
	L 1754.1 -73.52 
	L 1685.88 -73.52 
	L 1685.88 -505.52 
	L 1754.1 -505.52 
	L 1911.75 -229.65 
	L 1911.75 -505.52 
	L 1979.96 -505.52 
	L 1979.96 -73.52 
	Z 
	"/>
</g>
<g fill="#7f7f7f" fill-rule="nonzero" stroke-width="0" stroke-linejoin="miter" stroke-linecap="butt" stroke-miterlimit="4" >
	<path d="
	M 1513.08 -73.52 
	L 1513.08 -505.52 
	L 1582.2 -505.52 
	L 1582.2 -73.52 
	Z 
	"/>
</g>
<g fill="#7f7f7f" fill-rule="nonzero" stroke-width="0" stroke-linejoin="miter" stroke-linecap="butt" stroke-miterlimit="4" >
	<path d="
	M 1180.34 -73.52 
	L 1180.34 -505.53 
	L 1248.46 -505.53 
	L 1248.46 -137.18 
	L 1448.29 -137.18 
	L 1448.29 -73.52 
	Z 
	"/>
</g>
<g fill="#7f7f7f" fill-rule="nonzero" stroke-width="0" stroke-linejoin="miter" stroke-linecap="butt" stroke-miterlimit="4" >
	<path d="
	M 2083.65 -73.52 
	L 2083.65 -505.52 
	L 2337.97 -505.52 
	L 2337.97 -437.31 
	L 2151.77 -437.31 
	L 2151.77 -331.21 
	L 2277.42 -331.21 
	L 2277.42 -261.48 
	L 2151.77 -261.48 
	L 2151.77 -143.25 
	L 2351.6 -143.25 
	L 2351.6 -73.52 
	Z 
	"/>
</g>
<g fill="#7f7f7f" fill-rule="nonzero" stroke-width="0" stroke-linejoin="miter" stroke-linecap="butt" stroke-miterlimit="4" >
	<path d="
	M 1701.12 -829.52 
	L 1535.88 -1122.07 
	L 1535.88 -829.52 
	L 1467.67 -829.52 
	L 1467.67 -1261.53 
	L 1535.88 -1261.53 
	L 1693.54 -985.65 
	L 1693.54 -1261.53 
	L 1761.75 -1261.53 
	L 1761.75 -829.52 
	Z 
	"/>
</g>
<g fill="#7f7f7f" fill-rule="nonzero" stroke-width="0" stroke-linejoin="miter" stroke-linecap="butt" stroke-miterlimit="4" >
	<path d="
	M 1994.02 -1200.89 
	L 1994.02 -829.53 
	L 1925.51 -829.53 
	L 1925.51 -1200.89 
	L 1826.55 -1200.89 
	L 1826.55 -1261.53 
	L 2094.5 -1261.53 
	L 2094.5 -1200.89 
	Z 
	"/>
</g>
<g fill="#7f7f7f" fill-rule="nonzero" stroke-width="0" stroke-linejoin="miter" stroke-linecap="butt" stroke-miterlimit="4" >
	<path d="
	M 2690.17 -1185.73 
	C 2679.57 -1191.8 2673.5 -1193.31 2650.76 -1193.31 
	L 2568.9 -1193.31 
	L 2568.9 -1087.21 
	L 2650.76 -1087.21 
	C 2671.99 -1087.21 2679.57 -1088.72 2690.17 -1094.79 
	C 2706.85 -1103.88 2717.46 -1122.07 2717.46 -1140.26 
	C 2717.46 -1158.45 2706.85 -1176.64 2690.17 -1185.73 
	Z 
	M 2720.49 -829.52 
	L 2650.76 -1017.48 
	L 2568.9 -1017.48 
	L 2568.9 -829.52 
	L 2500.69 -829.52 
	L 2500.69 -1261.53 
	L 2643.18 -1261.53 
	C 2676.53 -1261.53 2699.27 -1258.49 2720.49 -1247.88 
	C 2758.39 -1229.69 2785.68 -1184.22 2785.68 -1140.26 
	C 2785.68 -1094.79 2758.39 -1049.31 2718.98 -1031.12 
	L 2794.78 -829.52 
	Z 
	"/>
</g>
<g fill="#7f7f7f" fill-rule="nonzero" stroke-width="0" stroke-linejoin="miter" stroke-linecap="butt" stroke-miterlimit="4" >
	<path d="
	M 1126.28 -829.52 
	L 1126.28 -1261.53 
	L 1380.6 -1261.53 
	L 1380.6 -1193.31 
	L 1194.4 -1193.31 
	L 1194.4 -1087.21 
	L 1320.05 -1087.21 
	L 1320.05 -1017.48 
	L 1194.4 -1017.48 
	L 1194.4 -899.25 
	L 1394.23 -899.25 
	L 1394.23 -829.52 
	Z 
	"/>
</g>
<g fill="#7f7f7f" fill-rule="nonzero" stroke-width="0" stroke-linejoin="miter" stroke-linecap="butt" stroke-miterlimit="4" >
	<path d="
	M 2159.3 -829.52 
	L 2159.3 -1261.53 
	L 2413.62 -1261.53 
	L 2413.62 -1193.31 
	L 2227.42 -1193.31 
	L 2227.42 -1087.21 
	L 2353.07 -1087.21 
	L 2353.07 -1017.48 
	L 2227.42 -1017.48 
	L 2227.42 -899.25 
	L 2427.25 -899.25 
	L 2427.25 -829.52 
	Z 
	"/>
</g>
<g fill="#7f7f7f" fill-rule="nonzero" stroke-width="0" stroke-linejoin="miter" stroke-linecap="butt" stroke-miterlimit="4" >
	<path d="
	M 900.871 -821.94 
	C 837.207 -821.94 796.277 -846.2 768.992 -899.25 
	C 749.285 -937.15 737.156 -991.71 737.156 -1046.28 
	C 737.156 -1114.49 755.348 -1182.7 785.664 -1220.6 
	C 811.434 -1252.43 847.816 -1269.1 896.324 -1269.1 
	C 961.512 -1269.1 1002.44 -1241.82 1031.24 -1181.19 
	L 967.57 -1153.9 
	C 943.316 -1190.28 929.676 -1199.38 896.324 -1199.38 
	C 861.461 -1199.38 838.723 -1184.22 823.563 -1146.32 
	C 812.953 -1120.56 806.887 -1082.66 806.887 -1046.28 
	C 806.887 -999.29 817.5 -952.3 834.176 -925.02 
	C 849.332 -902.28 869.043 -891.67 899.355 -891.67 
	C 928.16 -891.67 949.383 -906.83 966.059 -941.69 
	L 1031.24 -917.44 
	C 1005.47 -853.78 963.023 -821.94 900.871 -821.94 
	Z 
	"/>
</g>
</g >
</g>
</svg>
