<?xml version="1.0" standalone="no"?>
<svg width="2968px" height="2968px" viewBox="-12 -2164 2968 2968 " xmlns="http://www.w3.org/2000/svg" xmlns:xlink="http://www.w3.org/1999/xlink">
<title>generated by pstoedit</title>
<!-- generated by pstoedit version:4.02 -->
<g xml:space='preserve'>
<clipPath id="clippath1"> 	<path d="
	M 0 -2151.36 
	L 0 792 
	L 2943.37 792 
	L 2943.37 -2151.36 
	Z 
	" style="clip-rule:nonzero"/>
</clipPath>
<g style="clip-path:url(#clippath1)"> 
<g fill="#95e8ff" fill-rule="nonzero" stroke-width="0" stroke-linejoin="miter" stroke-linecap="butt" stroke-miterlimit="10" >
	<path d="
	M 1567.14 752.211 
	C 1514.42 804.93 1428.94 804.93 1376.22 752.211 
	L 39.7891 -584.22 
	C -12.9297 -636.94 -12.9297 -722.42 39.7891 -775.14 
	L 1376.22 -2111.57 
	C 1428.94 -2164.29 1514.42 -2164.29 1567.14 -2111.57 
	L 2903.57 -775.14 
	C 2956.29 -722.42 2956.29 -636.94 2903.57 -584.22 
	Z 
	"/>
</g>
<g stroke="#7f7f7f" fill="none" stroke-width="0.5" stroke-linejoin="miter" stroke-linecap="butt" stroke-miterlimit="4" >
	<path d="
	M 1567.14 752.211 
	C 1514.42 804.93 1428.94 804.93 1376.22 752.211 
	L 39.7891 -584.22 
	C -12.9297 -636.94 -12.9297 -722.42 39.7891 -775.14 
	L 1376.22 -2111.57 
	C 1428.94 -2164.29 1514.42 -2164.29 1567.14 -2111.57 
	L 2903.57 -775.14 
	C 2956.29 -722.42 2956.29 -636.94 2903.57 -584.22 
	Z 
	"/>
</g>
<g fill="#7f7f7f" fill-rule="nonzero" stroke-width="0" stroke-linejoin="miter" stroke-linecap="butt" stroke-miterlimit="4" >
	<path d="
	M 65.2461 -609.67 
	C 26.6484 -648.27 26.6484 -711.08 65.2461 -749.68 
	L 1401.68 -2086.11 
	C 1440.28 -2124.71 1503.08 -2124.71 1541.69 -2086.11 
	L 2878.12 -749.68 
	C 2916.72 -711.08 2916.72 -648.27 2878.12 -609.67 
	L 1541.69 726.762 
	C 1503.09 765.359 1440.28 765.359 1401.68 726.762 
	Z 
	"/>
</g>
<g fill="#95e8ff" fill-rule="nonzero" stroke-width="0" stroke-linejoin="miter" stroke-linecap="butt" stroke-miterlimit="4" >
	<path d="
	M 103.43 -647.86 
	C 85.8867 -665.4 85.8867 -693.95 103.43 -711.5 
	L 1439.86 -2047.93 
	C 1457.41 -2065.47 1485.96 -2065.47 1503.5 -2047.93 
	L 2839.93 -711.5 
	C 2857.48 -693.95 2857.48 -665.4 2839.93 -647.86 
	L 1503.5 688.57 
	C 1485.96 706.121 1457.41 706.121 1439.86 688.57 
	Z 
	"/>
</g>
<g fill="#7f7f7f" fill-rule="nonzero" stroke-width="0" stroke-linejoin="miter" stroke-linecap="butt" stroke-miterlimit="4" >
	<path d="
	M 1223.84 -419.49 
	C 1212.44 -438.44 1198.52 -446.01 1176.99 -447.28 
	C 1149.13 -448.54 1131.4 -434.65 1118.74 -403.07 
	C 1109.88 -381.6 1104.82 -348.75 1104.82 -318.44 
	C 1104.82 -280.54 1112.41 -241.39 1126.34 -218.65 
	C 1137.74 -199.699 1152.93 -190.859 1175.72 -190.859 
	C 1202.32 -190.859 1218.78 -204.75 1231.44 -236.33 
	C 1239.04 -255.28 1245.37 -290.65 1245.37 -318.44 
	C 1245.37 -358.86 1237.77 -395.49 1223.84 -419.49 
	Z 
	M 1263.09 -173.172 
	C 1242.83 -145.379 1213.71 -132.75 1175.72 -132.75 
	C 1125.08 -132.75 1093.42 -152.961 1071.89 -197.172 
	C 1056.7 -227.49 1046.57 -275.49 1046.57 -318.44 
	C 1046.57 -377.81 1061.76 -430.86 1085.82 -464.96 
	C 1107.35 -492.75 1136.47 -505.38 1178.25 -505.38 
	C 1223.84 -505.38 1255.5 -485.17 1278.29 -440.96 
	C 1293.48 -409.39 1302.35 -363.91 1302.35 -318.44 
	C 1302.35 -261.6 1288.42 -204.75 1263.09 -173.172 
	Z 
	"/>
</g>
<g fill="#7f7f7f" fill-rule="nonzero" stroke-width="0" stroke-linejoin="miter" stroke-linecap="butt" stroke-miterlimit="4" >
	<path d="
	M 1884.9 -139.512 
	L 1793.66 -310.04 
	L 1755.64 -263.3 
	L 1755.64 -139.512 
	L 1698.62 -139.512 
	L 1698.62 -499.51 
	L 1755.64 -499.51 
	L 1755.64 -356.77 
	L 1869.69 -499.51 
	L 1943.19 -499.51 
	L 1831.68 -359.3 
	L 1950.8 -139.512 
	Z 
	"/>
</g>
<g fill="#7f7f7f" fill-rule="nonzero" stroke-width="0" stroke-linejoin="miter" stroke-linecap="butt" stroke-miterlimit="4" >
	<path d="
	M 905.398 -436.35 
	C 896.559 -441.4 891.508 -442.67 872.559 -442.67 
	L 804.344 -442.67 
	L 804.344 -354.25 
	L 872.559 -354.25 
	C 890.242 -354.25 896.559 -355.51 905.398 -360.56 
	C 919.301 -368.14 928.141 -383.3 928.141 -398.46 
	C 928.141 -413.61 919.301 -428.77 905.398 -436.35 
	Z 
	M 930.668 -139.512 
	L 872.559 -296.14 
	L 804.344 -296.14 
	L 804.344 -139.512 
	L 747.496 -139.512 
	L 747.496 -499.51 
	L 866.238 -499.51 
	C 894.031 -499.51 912.98 -496.98 930.668 -488.14 
	C 962.246 -472.98 984.988 -435.09 984.988 -398.46 
	C 984.988 -360.56 962.246 -322.67 929.402 -307.51 
	L 992.566 -139.512 
	Z 
	"/>
</g>
<g fill="#7f7f7f" fill-rule="nonzero" stroke-width="0" stroke-linejoin="miter" stroke-linecap="butt" stroke-miterlimit="4" >
	<path d="
	M 2196.5 -161.422 
	C 2176.28 -143.738 2148.49 -133.629 2118.18 -133.629 
	C 2056.28 -133.629 2010.8 -170.262 1986.8 -224.58 
	L 2041.12 -244.79 
	C 2056.28 -210.69 2084.07 -191.738 2118.18 -191.738 
	C 2151.02 -191.738 2173.76 -214.48 2173.76 -244.79 
	C 2173.76 -292.79 2118.18 -300.37 2071.43 -319.32 
	C 2049.96 -328.16 2001.96 -349.63 2001.96 -409 
	C 2001.96 -479.74 2049.96 -506.26 2114.39 -506.26 
	C 2164.92 -506.26 2199.02 -477.21 2216.71 -433 
	L 2166.18 -417.85 
	C 2166.18 -417.85 2153.55 -448.16 2113.12 -449.42 
	C 2086.59 -450.69 2055.01 -440.58 2057.54 -407.74 
	C 2062.59 -340.79 2231.87 -385 2231.87 -243.53 
	C 2231.87 -210.69 2219.23 -181.629 2196.5 -161.422 
	Z 
	"/>
</g>
<g fill="#7f7f7f" fill-rule="nonzero" stroke-width="0" stroke-linejoin="miter" stroke-linecap="butt" stroke-miterlimit="4" >
	<path d="
	M 1510.77 -133.191 
	C 1457.72 -133.191 1423.61 -153.398 1400.87 -197.621 
	C 1384.45 -229.19 1374.34 -274.67 1374.34 -320.14 
	C 1374.34 -376.98 1389.5 -433.83 1414.77 -465.4 
	C 1436.24 -491.93 1466.56 -505.83 1506.99 -505.83 
	C 1561.31 -505.83 1595.41 -483.09 1619.42 -432.56 
	L 1566.36 -409.83 
	C 1546.15 -440.14 1534.78 -447.72 1506.99 -447.72 
	C 1477.93 -447.72 1458.98 -435.09 1446.35 -403.51 
	C 1437.51 -382.04 1432.45 -350.46 1432.45 -320.14 
	C 1432.45 -280.98 1441.3 -241.82 1455.19 -219.09 
	C 1467.83 -200.141 1484.25 -191.301 1509.51 -191.301 
	C 1533.51 -191.301 1551.2 -203.93 1565.1 -232.98 
	L 1619.42 -212.77 
	C 1597.94 -159.719 1562.57 -133.191 1510.77 -133.191 
	Z 
	"/>
</g>
<g fill="#7f7f7f" fill-rule="nonzero" stroke-width="0" stroke-linejoin="miter" stroke-linecap="butt" stroke-miterlimit="4" >
	<path d="
	M 2265.76 -760.51 
	L 2128.07 -1004.3 
	L 2128.07 -760.51 
	L 2071.22 -760.51 
	L 2071.22 -1120.52 
	L 2128.07 -1120.52 
	L 2259.44 -890.62 
	L 2259.44 -1120.52 
	L 2316.29 -1120.52 
	L 2316.29 -760.51 
	Z 
	"/>
</g>
<g fill="#7f7f7f" fill-rule="nonzero" stroke-width="0" stroke-linejoin="miter" stroke-linecap="butt" stroke-miterlimit="4" >
	<path d="
	M 1232.15 -760.51 
	L 1232.15 -1120.52 
	L 1288.92 -1120.52 
	L 1288.92 -813.56 
	L 1455.44 -813.56 
	L 1455.44 -760.51 
	Z 
	"/>
</g>
<g fill="#7f7f7f" fill-rule="nonzero" stroke-width="0" stroke-linejoin="miter" stroke-linecap="butt" stroke-miterlimit="4" >
	<path d="
	M 1509.44 -760.51 
	L 1509.44 -1120.52 
	L 1566.21 -1120.52 
	L 1566.21 -813.56 
	L 1732.73 -813.56 
	L 1732.73 -760.51 
	Z 
	"/>
</g>
<g fill="#7f7f7f" fill-rule="nonzero" stroke-width="0" stroke-linejoin="miter" stroke-linecap="butt" stroke-miterlimit="4" >
	<path d="
	M 1786.73 -760.51 
	L 1786.73 -1120.51 
	L 1998.66 -1120.51 
	L 1998.66 -1063.67 
	L 1843.5 -1063.67 
	L 1843.5 -975.25 
	L 1948.2 -975.25 
	L 1948.2 -917.15 
	L 1843.5 -917.15 
	L 1843.5 -818.62 
	L 2010.02 -818.62 
	L 2010.02 -760.51 
	Z 
	"/>
</g>
<g fill="#7f7f7f" fill-rule="nonzero" stroke-width="0" stroke-linejoin="miter" stroke-linecap="butt" stroke-miterlimit="4" >
	<path d="
	M 1025.69 -1020.72 
	L 988.852 -919.67 
	L 1061.27 -919.67 
	Z 
	M 1117.17 -760.51 
	L 1081.6 -861.57 
	L 968.523 -861.57 
	L 932.949 -760.51 
	L 871.969 -760.51 
	L 996.473 -1120.51 
	L 1053.64 -1120.51 
	L 1178.15 -760.51 
	Z 
	"/>
</g>
<g fill="#7f7f7f" fill-rule="nonzero" stroke-width="0" stroke-linejoin="miter" stroke-linecap="butt" stroke-miterlimit="4" >
	<path d="
	M 683.848 -1063.67 
	L 683.848 -975.25 
	L 788.551 -975.25 
	L 788.551 -917.15 
	L 683.848 -917.15 
	L 683.848 -760.51 
	L 627.078 -760.51 
	L 627.078 -1120.51 
	L 850.367 -1120.51 
	L 850.367 -1063.67 
	Z 
	"/>
</g>
</g >
</g>
</svg>
