<?xml version="1.0" encoding="UTF-8" standalone="no"?>
<!-- Created with Inkscape (http://www.inkscape.org/) -->

<svg
   version="1.1"
   id="svg1"
   width="4709.2534"
   height="4709.2534"
   viewBox="0 0 4709.2534 4709.2534"
   sodipodi:docname="tmp3x7v3pzg.pdf"
   xmlns:inkscape="http://www.inkscape.org/namespaces/inkscape"
   xmlns:sodipodi="http://sodipodi.sourceforge.net/DTD/sodipodi-0.dtd"
   xmlns="http://www.w3.org/2000/svg"
   xmlns:svg="http://www.w3.org/2000/svg">
  <defs
     id="defs1" />
  <sodipodi:namedview
     id="namedview1"
     pagecolor="#ffffff"
     bordercolor="#000000"
     borderopacity="0.25"
     inkscape:showpageshadow="2"
     inkscape:pageopacity="0.0"
     inkscape:pagecheckerboard="0"
     inkscape:deskcolor="#d1d1d1">
    <inkscape:page
       x="0"
       y="0"
       inkscape:label="1"
       id="page1"
       width="4709.2534"
       height="4709.2534"
       margin="0"
       bleed="0" />
  </sodipodi:namedview>
  <g
     id="g1"
     inkscape:groupmode="layer"
     inkscape:label="1">
    <g
       id="group-R5">
      <path
         id="path2"
         d="m 18805.2,477 c -632.7,-632.602 -1658.4,-632.602 -2291,0 L 476.988,16514.2 c -632.652,632.7 -632.648,1658.4 0,2291 L 16514.2,34842.4 c 632.6,632.7 1658.3,632.7 2291,0 L 34842.4,18805.2 c 632.6,-632.6 632.6,-1658.3 0,-2291 L 18805.2,477"
         style="fill:#fccc2d;fill-opacity:1;fill-rule:nonzero;stroke:#231f20;stroke-width:5;stroke-linecap:butt;stroke-linejoin:miter;stroke-miterlimit:4;stroke-dasharray:none;stroke-opacity:1"
         transform="matrix(0.13333333,0,0,-0.13333333,0,4709.2533)" />
      <path
         id="path3"
         d="m 795.188,16832.4 c -456.184,456.2 -456.184,1198.5 0,1654.6 L 16832.4,34524.2 c 456.1,456.2 1198.4,456.2 1654.6,0 L 34524.2,18487 c 456.2,-456.1 456.2,-1198.4 0,-1654.6 L 18487,795.199 C 18030.8,339 17288.5,339 16832.4,795.199 L 795.188,16832.4"
         style="fill:#231f20;fill-opacity:1;fill-rule:nonzero;stroke:none"
         transform="matrix(0.13333333,0,0,-0.13333333,0,4709.2533)" />
      <path
         id="path4"
         d="m 1240.66,17277.9 c -210.54,210.5 -210.54,553.1 0,763.7 L 17277.8,34078.7 c 210.6,210.6 553.2,210.6 763.7,0 L 34078.7,18041.6 c 210.5,-210.6 210.5,-553.2 0,-763.7 L 18041.5,1240.7 c -210.5,-210.5 -553.1,-210.5 -763.7,0 L 1240.66,17277.9"
         style="fill:#fccc2d;fill-opacity:1;fill-rule:nonzero;stroke:none"
         transform="matrix(0.13333333,0,0,-0.13333333,0,4709.2533)" />
      <path
         id="path5"
         d="m 16693.9,21439.7 -1331.1,2895.2 v -2895.2 h -620.2 v 4320.1 h 620.2 l 1179.9,-2592.1 v 2592.1 h 620.2 v -4320.1 h -469"
         style="fill:#231f20;fill-opacity:1;fill-rule:nonzero;stroke:none"
         transform="matrix(0.13333333,0,0,-0.13333333,0,4709.2533)" />
      <path
         id="path6"
         d="m 19843.8,24683.5 c -106.8,379 -274.8,545.7 -534.4,545.7 -274.8,0 -442.8,-166.7 -549.6,-530.5 -106.9,-333.5 -137.4,-621.5 -137.4,-1106.5 0,-469.9 45.8,-742.8 137.4,-1091.4 106.8,-363.8 274.8,-530.5 549.6,-530.5 259.6,0 427.6,166.7 534.4,530.5 106.9,348.6 137.5,606.3 137.5,1106.5 0,485.1 -45.8,757.9 -137.5,1076.2 z m 488.7,-2576.8 c -213.8,-515.4 -534.4,-742.7 -1023.1,-742.7 -519.1,0 -824.5,227.3 -1038.2,742.7 -183.3,424.4 -244.3,833.7 -244.3,1500.6 0,651.8 61,1091.4 244.3,1500.7 229,515.3 534.4,727.6 1038.2,727.6 503.9,0 809.3,-212.3 1023.1,-742.8 183.2,-424.4 244.2,-833.7 244.2,-1485.5 0,-666.9 -61,-1091.3 -244.2,-1500.6"
         style="fill:#231f20;fill-opacity:1;fill-rule:nonzero;stroke:none"
         transform="matrix(0.13333333,0,0,-0.13333333,0,4709.2533)" />
      <path
         id="path7"
         d="m 22778.5,17153.8 c -105.9,303.2 -287.4,439.6 -559.6,439.6 h -514.4 V 14486 h 514.4 c 363,0 559.6,288 620.1,621.5 30.3,272.9 60.5,576 60.5,909.5 0,485 -45.3,955 -121,1136.8 z m 105.9,-3077 c -151.2,-136.4 -363,-197.1 -605,-197.1 h -1195.1 v 4320 h 1104.3 c 363,0 544.6,-45.4 695.8,-166.7 257.2,-181.9 438.7,-515.4 514.3,-954.9 60.5,-318.4 105.9,-697.3 105.9,-1030.8 0,-1000.4 -196.6,-1637.1 -620.2,-1970.5"
         style="fill:#231f20;fill-opacity:1;fill-rule:nonzero;stroke:none"
         transform="matrix(0.13333333,0,0,-0.13333333,0,4709.2533)" />
      <path
         id="path8"
         d="m 24368.6,13879.7 v 4320 h 2037 v -606.3 H 24991.9 V 16502 h 896.9 v -591.1 h -896.9 V 14486 h 1581 v -606.3 h -2204.3"
         style="fill:#231f20;fill-opacity:1;fill-rule:nonzero;stroke:none"
         transform="matrix(0.13333333,0,0,-0.13333333,0,4709.2533)" />
      <path
         id="path9"
         d="m 10006.5,13879.7 v 1955.4 H 8826.65 v -1955.4 h -620.22 v 4320 h 620.22 v -1758.3 h 1179.85 v 1758.3 h 620.2 v -4320 h -620.2"
         style="fill:#231f20;fill-opacity:1;fill-rule:nonzero;stroke:none"
         transform="matrix(0.13333333,0,0,-0.13333333,0,4709.2533)" />
      <path
         id="path10"
         d="m 18275.3,13879.7 v 4320 h 623.2 v -3744 h 1581 v -576 h -2204.2"
         style="fill:#231f20;fill-opacity:1;fill-rule:nonzero;stroke:none"
         transform="matrix(0.13333333,0,0,-0.13333333,0,4709.2533)" />
      <path
         id="path11"
         d="m 13307.7,17123.5 c -106.9,379 -274.9,545.7 -534.4,545.7 -274.9,0 -442.8,-166.7 -549.7,-530.5 -106.9,-333.5 -137.4,-621.5 -137.4,-1106.5 0,-469.9 45.8,-742.8 137.4,-1091.4 106.9,-363.8 274.8,-530.5 549.7,-530.5 259.5,0 427.5,166.7 534.4,530.5 106.9,348.6 137.4,606.3 137.4,1106.5 0,485 -45.8,757.9 -137.4,1076.2 z m 488.6,-2576.8 c -213.8,-515.4 -534.4,-742.8 -1023,-742.8 -519.2,0 -824.5,227.4 -1038.3,742.8 -183.2,424.4 -244.3,833.7 -244.3,1500.6 0,651.8 61.1,1091.4 244.3,1500.6 229,515.4 534.4,727.6 1038.3,727.6 503.8,0 809.2,-212.2 1023,-742.7 183.2,-424.4 244.3,-833.7 244.3,-1485.5 0,-666.9 -61.1,-1091.4 -244.3,-1500.6"
         style="fill:#231f20;fill-opacity:1;fill-rule:nonzero;stroke:none"
         transform="matrix(0.13333333,0,0,-0.13333333,0,4709.2533)" />
      <path
         id="path12"
         d="m 28562.8,17593.4 h -635.3 V 16502 h 635.3 c 363.1,0 559.7,197.1 559.7,545.7 0,333.5 -226.9,545.7 -559.7,545.7 z m 529.5,-3713.7 -574.9,2031.2 h -589.9 v -2031.2 h -620.2 v 4320 h 1285.8 c 680.7,0 1134.5,-454.7 1134.5,-1152 0,-515.3 -211.8,-894.3 -620.2,-1045.9 l 620.2,-2122.1 h -635.3"
         style="fill:#231f20;fill-opacity:1;fill-rule:nonzero;stroke:none"
         transform="matrix(0.13333333,0,0,-0.13333333,0,4709.2533)" />
      <path
         id="path13"
         d="m 6281.86,15874.8 c -186.9,121.1 -368.38,242.6 -484.24,324.1 -348.28,245.1 -532.77,576 -532.77,954.9 0,621.5 487.11,1121.7 1111.21,1121.7 608.87,0 1080.75,-469.9 1095.98,-1121.7 h -593.66 c -15.21,303.2 -228.33,500.2 -502.32,500.2 -289.22,0 -517.55,-212.2 -517.55,-500.2 0,-212.2 91.34,-333.4 411,-515.3 837.19,-485.1 1202.53,-955 1202.53,-1576.5 0,-697.2 -532.78,-1258.1 -1202.53,-1258.1 -761.11,0 -1217.76,636.7 -1217.76,1349.1 h 608.88 c 0,-363.8 182.66,-742.8 608.88,-742.8 334.88,0 608.87,303.2 608.87,651.8 0,270.7 -111.86,498.7 -596.52,812.8"
         style="fill:#231f20;fill-opacity:1;fill-rule:nonzero;stroke:none"
         transform="matrix(0.13333333,0,0,-0.13333333,0,4709.2533)" />
      <path
         id="path14"
         d="m 17158.5,14410.2 c -211.8,-348.6 -620.2,-606.3 -1028.7,-606.3 -423.5,0 -847.1,242.6 -1058.8,606.3 -121.1,227.4 -166.4,409.3 -166.4,757.9 v 3031.6 h 620.2 v -3107.4 c 0,-409.2 242,-682.1 605,-682.1 332.8,0 574.9,272.9 574.9,682.1 v 3107.4 h 620.2 v -3031.6 c 0,-348.6 -45.4,-530.5 -166.4,-757.9"
         style="fill:#231f20;fill-opacity:1;fill-rule:nonzero;stroke:none"
         transform="matrix(0.13333333,0,0,-0.13333333,0,4709.2533)" />
    </g>
  </g>
</svg>
