<?xml version="1.0" encoding="UTF-8" standalone="no"?>
<!-- Created with Inkscape (http://www.inkscape.org/) -->

<svg
   version="1.1"
   id="svg1"
   width="3139.72"
   height="3139.72"
   viewBox="0 0 3139.72 3139.72"
   sodipodi:docname="tmpny9i8yk6.pdf"
   xmlns:inkscape="http://www.inkscape.org/namespaces/inkscape"
   xmlns:sodipodi="http://sodipodi.sourceforge.net/DTD/sodipodi-0.dtd"
   xmlns="http://www.w3.org/2000/svg"
   xmlns:svg="http://www.w3.org/2000/svg">
  <defs
     id="defs1" />
  <sodipodi:namedview
     id="namedview1"
     pagecolor="#ffffff"
     bordercolor="#000000"
     borderopacity="0.25"
     inkscape:showpageshadow="2"
     inkscape:pageopacity="0.0"
     inkscape:pagecheckerboard="0"
     inkscape:deskcolor="#d1d1d1">
    <inkscape:page
       x="0"
       y="0"
       inkscape:label="1"
       id="page1"
       width="3139.72"
       height="3139.72"
       margin="0"
       bleed="0" />
  </sodipodi:namedview>
  <g
     id="g1"
     inkscape:groupmode="layer"
     inkscape:label="1">
    <g
       id="group-R5">
      <path
         id="path2"
         d="m 12537.6,318.801 c -421.7,-421.699 -1105.6,-421.699 -1527.3,0 L 318.828,11010.3 c -421.766,421.7 -421.766,1105.6 -0.004,1527.3 L 11010.3,23229.1 c 421.7,421.8 1105.6,421.8 1527.3,0 L 23229.1,12537.6 c 421.8,-421.7 421.8,-1105.6 0,-1527.3 L 12537.6,318.801"
         style="fill:#fccc2d;fill-opacity:1;fill-rule:nonzero;stroke:#231f20;stroke-width:5;stroke-linecap:butt;stroke-linejoin:miter;stroke-miterlimit:4;stroke-dasharray:none;stroke-opacity:1"
         transform="matrix(0.13333333,0,0,-0.13333333,0,3139.72)" />
      <path
         id="path3"
         d="m 509.746,11201.2 c -315.82,315.8 -315.82,829.7 -0.004,1145.5 L 11201.2,23038.2 c 315.8,315.8 829.7,315.8 1145.5,0 L 23038.2,12346.7 c 315.8,-315.8 315.8,-829.7 0,-1145.5 L 12346.7,509.699 c -315.8,-315.797 -829.7,-315.797 -1145.5,0 L 509.746,11201.2"
         style="fill:#231f20;fill-opacity:1;fill-rule:nonzero;stroke:none"
         transform="matrix(0.13333333,0,0,-0.13333333,0,3139.72)" />
      <path
         id="path4"
         d="m 827.945,11519.4 c -140.367,140.4 -140.367,368.7 -0.007,509.1 L 11519.4,22720 c 140.4,140.3 368.8,140.3 509.1,0 L 22720,12028.5 c 140.3,-140.4 140.3,-368.7 0,-509.1 L 12028.5,827.902 c -140.3,-140.3 -368.7,-140.3 -509.1,0 L 827.945,11519.4"
         style="fill:#fccc2d;fill-opacity:1;fill-rule:nonzero;stroke:none"
         transform="matrix(0.13333333,0,0,-0.13333333,0,3139.72)" />
      <path
         id="path5"
         d="m 13115.4,7405.9 c -40.6,283 -152.2,414.4 -345,414.4 -334.9,0 -456.7,-262.8 -456.7,-1010.6 0,-828.6 142.1,-1162.1 497.3,-1162.1 243.5,0 304.4,202.1 304.4,414.4 h 416.1 c -10.2,-475 -314.6,-818.6 -720.5,-818.6 -619.1,0 -893,495.2 -893,1556.2 0,929.7 294.2,1424.9 862.5,1424.9 233.4,0 436.4,-101.1 568.3,-293.1 111.6,-141.5 152.2,-262.7 182.7,-525.5 h -416.1"
         style="fill:#231f20;fill-opacity:1;fill-rule:nonzero;stroke:none"
         transform="matrix(0.13333333,0,0,-0.13333333,0,3139.72)" />
      <path
         id="path6"
         d="m 8956.37,7476.7 c -70.58,202.1 -191.6,293 -373.12,293 H 8240.38 V 5698.1 h 342.87 c 242.03,0 373.12,192.1 413.46,414.4 20.17,181.9 40.35,384 40.35,606.3 0,323.3 -30.26,636.6 -80.69,757.9 z m 70.59,-2051.4 c -100.84,-90.9 -242.01,-131.4 -403.37,-131.4 h -796.68 v 2880 h 736.17 c 242.03,0 363.04,-30.3 463.88,-111.1 171.44,-121.3 292.46,-343.6 342.88,-636.6 40.35,-212.3 70.59,-464.9 70.59,-687.2 0,-667 -131.1,-1091.4 -413.47,-1313.7"
         style="fill:#231f20;fill-opacity:1;fill-rule:nonzero;stroke:none"
         transform="matrix(0.13333333,0,0,-0.13333333,0,3139.72)" />
      <path
         id="path7"
         d="m 10016.4,5293.9 v 2880 h 1358.1 v -404.2 h -942.6 v -727.6 h 598 V 6648 h -598 v -949.9 h 1054 v -404.2 h -1469.5"
         style="fill:#231f20;fill-opacity:1;fill-rule:nonzero;stroke:none"
         transform="matrix(0.13333333,0,0,-0.13333333,0,3139.72)" />
      <path
         id="path8"
         d="m 15287.4,5293.9 -504.3,1404.7 -262.2,-485.1 v -919.6 h -413.4 v 2880 h 413.4 v -1152 l 655.5,1152 h 474 l -595,-1010.5 665.6,-1869.5 h -433.6"
         style="fill:#231f20;fill-opacity:1;fill-rule:nonzero;stroke:none"
         transform="matrix(0.13333333,0,0,-0.13333333,0,3139.72)" />
      <path
         id="path9"
         d="m 7083.88,11277.5 h -413.47 v -899.4 h 413.47 c 231.94,0 383.21,161.7 383.21,414.4 0,272.8 -171.45,485 -383.21,485 z m 20.16,1172.2 h -433.63 v -768 h 433.63 c 191.6,0 312.62,161.7 312.62,424.5 0,242.5 -90.75,343.5 -312.62,343.5 z m 0,-2475.8 h -847.09 v 2880 h 907.6 c 383.21,0 655.49,-303.1 655.49,-747.7 0,-262.8 -70.58,-384 -302.53,-626.6 221.86,-181.9 352.95,-424.4 352.95,-717.4 0,-434.6 -342.87,-788.3 -766.42,-788.3"
         style="fill:#231f20;fill-opacity:1;fill-rule:nonzero;stroke:none"
         transform="matrix(0.13333333,0,0,-0.13333333,0,3139.72)" />
      <path
         id="path10"
         d="m 12629.4,12156.7 c -70.5,202.1 -191.5,293 -373.1,293 h -342.8 v -2071.6 h 342.8 c 242.1,0 373.1,192 413.5,414.4 20.2,181.9 40.3,384 40.3,606.3 0,323.4 -30.2,636.6 -80.7,757.9 z m 70.7,-2051.4 c -100.9,-90.9 -242.1,-131.4 -403.4,-131.4 H 11500 v 2880 h 736.1 c 242.1,0 363.1,-30.3 464,-111.1 171.4,-121.3 292.4,-343.6 342.8,-636.6 40.4,-212.3 70.6,-464.9 70.6,-687.2 0,-667 -131.1,-1091.4 -413.4,-1313.7"
         style="fill:#231f20;fill-opacity:1;fill-rule:nonzero;stroke:none"
         transform="matrix(0.13333333,0,0,-0.13333333,0,3139.72)" />
      <path
         id="path11"
         d="m 15821.4,9973.9 v 2880 h 1358.1 v -404.2 h -942.6 v -727.5 h 598 V 11328 h -598 v -949.9 H 17291 v -404.2 h -1469.6"
         style="fill:#231f20;fill-opacity:1;fill-rule:nonzero;stroke:none"
         transform="matrix(0.13333333,0,0,-0.13333333,0,3139.72)" />
      <path
         id="path12"
         d="m 15164.3,10327.6 c -111.7,-252.6 -345.1,-404.2 -639.4,-404.2 -345,0 -598.7,171.8 -740.8,495.2 -91.3,212.2 -152.2,616.4 -152.2,990.3 0,404.2 30.5,697.3 131.9,970.1 101.5,303.2 395.8,525.5 730.7,525.5 416,0 730.6,-303.2 750.9,-727.6 h -416 c -10.2,192 -142.1,323.4 -345,323.4 -142.1,0 -253.8,-70.8 -324.8,-212.2 -81.2,-141.5 -131.9,-464.9 -131.9,-808.5 0,-242.5 20.3,-495.1 60.9,-717.4 60.8,-283 202.9,-434.6 426.2,-434.6 213.1,0 314.6,141.5 314.6,444.6 v 192 h -324.8 v 404.3 h 740.8 v -596.3 c 0,-202.1 -20.3,-323.3 -81.1,-444.6"
         style="fill:#231f20;fill-opacity:1;fill-rule:nonzero;stroke:none"
         transform="matrix(0.13333333,0,0,-0.13333333,0,3139.72)" />
      <path
         id="path13"
         d="m 10463.2,9973.9 v 2880 h 403.2 v -2880 h -403.2"
         style="fill:#231f20;fill-opacity:1;fill-rule:nonzero;stroke:none"
         transform="matrix(0.13333333,0,0,-0.13333333,0,3139.72)" />
      <path
         id="path14"
         d="m 9197.09,12449.7 h -423.55 v -727.5 h 423.55 c 242.03,0 373.12,131.3 373.12,363.8 0,222.3 -151.27,363.7 -373.12,363.7 z m 352.95,-2475.8 -383.21,1354.2 H 8773.54 V 9973.9 h -413.47 v 2880 h 857.18 c 453.81,0 756.34,-303.1 756.34,-767.9 0,-343.6 -141.18,-596.3 -413.46,-697.3 l 413.46,-1414.8 h -423.55"
         style="fill:#231f20;fill-opacity:1;fill-rule:nonzero;stroke:none"
         transform="matrix(0.13333333,0,0,-0.13333333,0,3139.72)" />
      <path
         id="path15"
         d="m 14050.9,16675 -202.6,-828.6 h 415.4 z m 516.7,-2021.1 -202.6,788.3 h -618 l -192.5,-788.3 h -415.4 l 719.3,2880 h 405.3 l 719.3,-2880 h -415.4"
         style="fill:#231f20;fill-opacity:1;fill-rule:nonzero;stroke:none"
         transform="matrix(0.13333333,0,0,-0.13333333,0,3139.72)" />
      <path
         id="path16"
         d="m 9768.03,14653.9 v 2880 h 1358.07 v -404.2 h -942.6 v -727.5 h 598 v -394.1 h -598 v -949.9 h 1054 v -404.3 H 9768.03"
         style="fill:#231f20;fill-opacity:1;fill-rule:nonzero;stroke:none"
         transform="matrix(0.13333333,0,0,-0.13333333,0,3139.72)" />
      <path
         id="path17"
         d="m 15386.2,14653.9 v 2880 h 415.5 v -2496 h 1054 v -384 h -1469.5"
         style="fill:#231f20;fill-opacity:1;fill-rule:nonzero;stroke:none"
         transform="matrix(0.13333333,0,0,-0.13333333,0,3139.72)" />
      <path
         id="path18"
         d="m 8719.58,14653.9 v 1616.9 l -536.28,-1616.9 -536.28,1616.9 v -1616.9 h -414.83 v 2880 h 414.83 l 536.28,-1616.8 536.28,1616.8 h 414.84 v -2880 h -414.84"
         style="fill:#231f20;fill-opacity:1;fill-rule:nonzero;stroke:none"
         transform="matrix(0.13333333,0,0,-0.13333333,0,3139.72)" />
      <path
         id="path19"
         d="m 12439.3,17150 v -2496.1 h -415.5 V 17150 h -527.1 v 384 h 1469.6 v -384 h -527"
         style="fill:#231f20;fill-opacity:1;fill-rule:nonzero;stroke:none"
         transform="matrix(0.13333333,0,0,-0.13333333,0,3139.72)" />
    </g>
  </g>
</svg>
