<?xml version="1.0" standalone="no"?>
<svg width="4749px" height="4749px" viewBox="-20 -3937 4749 4749 " xmlns="http://www.w3.org/2000/svg" xmlns:xlink="http://www.w3.org/1999/xlink">
<title>generated by pstoedit</title>
<!-- generated by pstoedit version:4.02 -->
<g xml:space='preserve'>
<clipPath id="clippath1"> 	<path d="
	M 0 -3917.08 
	L 0 792 
	L 4709.08 792 
	L 4709.08 -3917.08 
	Z 
	" style="clip-rule:nonzero"/>
</clipPath>
<g style="clip-path:url(#clippath1)"> 
<g fill="#95e8ff" fill-rule="nonzero" stroke-width="0" stroke-linejoin="miter" stroke-linecap="butt" stroke-miterlimit="10" >
	<path d="
	M 2507.28 728.488 
	C 2422.92 812.84 2286.16 812.84 2201.81 728.488 
	L 63.5156 -1409.8 
	C -20.8398 -1494.16 -20.8398 -1630.92 63.5156 -1715.27 
	L 2201.81 -3853.57 
	C 2286.16 -3937.92 2422.92 -3937.92 2507.28 -3853.57 
	L 4645.57 -1715.27 
	C 4729.92 -1630.92 4729.92 -1494.16 4645.57 -1409.8 
	Z 
	"/>
</g>
<g stroke="#7f7f7f" fill="none" stroke-width="0.5" stroke-linejoin="miter" stroke-linecap="butt" stroke-miterlimit="4" >
	<path d="
	M 2507.28 728.488 
	C 2422.92 812.84 2286.16 812.84 2201.81 728.488 
	L 63.5156 -1409.8 
	C -20.8398 -1494.16 -20.8398 -1630.92 63.5156 -1715.27 
	L 2201.81 -3853.57 
	C 2286.16 -3937.92 2422.92 -3937.92 2507.28 -3853.57 
	L 4645.57 -1715.27 
	C 4729.92 -1630.92 4729.92 -1494.16 4645.57 -1409.8 
	Z 
	"/>
</g>
<g fill="#7f7f7f" fill-rule="nonzero" stroke-width="0" stroke-linejoin="miter" stroke-linecap="butt" stroke-miterlimit="4" >
	<path d="
	M 101.699 -1447.99 
	C 38.5352 -1511.15 38.5352 -1613.93 101.699 -1677.09 
	L 2239.99 -3815.38 
	C 2303.15 -3878.55 2405.93 -3878.55 2469.09 -3815.38 
	L 4607.38 -1677.09 
	C 4670.55 -1613.93 4670.55 -1511.15 4607.38 -1447.99 
	L 2469.09 690.301 
	C 2405.93 753.469 2303.15 753.469 2239.99 690.301 
	Z 
	"/>
</g>
<g fill="#95e8ff" fill-rule="nonzero" stroke-width="0" stroke-linejoin="miter" stroke-linecap="butt" stroke-miterlimit="4" >
	<path d="
	M 165.34 -1511.63 
	C 137.266 -1539.7 137.266 -1585.38 165.34 -1613.45 
	L 2303.63 -3751.74 
	C 2331.7 -3779.81 2377.38 -3779.81 2405.45 -3751.74 
	L 4543.74 -1613.45 
	C 4571.82 -1585.38 4571.82 -1539.7 4543.74 -1511.63 
	L 2405.45 626.66 
	C 2377.38 654.738 2331.7 654.738 2303.63 626.66 
	Z 
	"/>
</g>
<g fill="#7f7f7f" fill-rule="nonzero" stroke-width="0" stroke-linejoin="miter" stroke-linecap="butt" stroke-miterlimit="4" >
	<path d="
	M 2201.77 -2408.09 
	L 1981.45 -2798.16 
	L 1981.45 -2408.09 
	L 1890.5 -2408.09 
	L 1890.5 -2984.09 
	L 1981.45 -2984.09 
	L 2191.66 -2616.26 
	L 2191.66 -2984.09 
	L 2282.61 -2984.09 
	L 2282.61 -2408.09 
	Z 
	"/>
</g>
<g fill="#7f7f7f" fill-rule="nonzero" stroke-width="0" stroke-linejoin="miter" stroke-linecap="butt" stroke-miterlimit="4" >
	<path d="
	M 2692.97 -2856.06 
	C 2674.74 -2886.37 2652.45 -2898.5 2618.01 -2900.52 
	C 2573.44 -2902.54 2545.07 -2880.31 2524.82 -2829.79 
	C 2510.63 -2795.43 2502.53 -2742.88 2502.53 -2694.37 
	C 2502.53 -2633.74 2514.68 -2571.09 2536.97 -2534.71 
	C 2555.21 -2504.39 2579.52 -2490.25 2615.98 -2490.25 
	C 2658.53 -2490.25 2684.87 -2512.48 2705.13 -2563 
	C 2717.28 -2593.32 2727.41 -2649.91 2727.41 -2694.37 
	C 2727.41 -2759.05 2715.26 -2817.66 2692.97 -2856.06 
	Z 
	M 2755.78 -2461.95 
	C 2723.36 -2417.49 2676.76 -2397.28 2615.98 -2397.28 
	C 2534.95 -2397.28 2484.29 -2429.62 2449.85 -2500.35 
	C 2425.54 -2548.86 2409.34 -2625.66 2409.34 -2694.37 
	C 2409.34 -2789.36 2433.64 -2874.25 2472.14 -2928.82 
	C 2506.58 -2973.28 2553.18 -2993.49 2620.03 -2993.49 
	C 2692.97 -2993.49 2743.62 -2961.15 2780.09 -2890.41 
	C 2804.4 -2839.89 2818.58 -2767.13 2818.58 -2694.37 
	C 2818.58 -2603.43 2796.3 -2512.48 2755.78 -2461.95 
	Z 
	"/>
</g>
<g fill="#7f7f7f" fill-rule="nonzero" stroke-width="0" stroke-linejoin="miter" stroke-linecap="butt" stroke-miterlimit="4" >
	<path d="
	M 2559.03 -392.09 
	L 2338.72 -782.15 
	L 2338.72 -392.09 
	L 2247.76 -392.09 
	L 2247.76 -968.09 
	L 2338.72 -968.09 
	L 2548.92 -600.25 
	L 2548.92 -968.09 
	L 2639.87 -968.09 
	L 2639.87 -392.09 
	Z 
	"/>
</g>
<g fill="#7f7f7f" fill-rule="nonzero" stroke-width="0" stroke-linejoin="miter" stroke-linecap="butt" stroke-miterlimit="4" >
	<path d="
	M 2017.37 -392.09 
	L 2017.37 -968.09 
	L 2109.53 -968.09 
	L 2109.53 -392.09 
	Z 
	"/>
</g>
<g fill="#7f7f7f" fill-rule="nonzero" stroke-width="0" stroke-linejoin="miter" stroke-linecap="butt" stroke-miterlimit="4" >
	<path d="
	M 1573.7 -392.09 
	L 1573.7 -968.09 
	L 1664.53 -968.09 
	L 1664.53 -476.97 
	L 1930.97 -476.97 
	L 1930.97 -392.09 
	Z 
	"/>
</g>
<g fill="#7f7f7f" fill-rule="nonzero" stroke-width="0" stroke-linejoin="miter" stroke-linecap="butt" stroke-miterlimit="4" >
	<path d="
	M 2778.12 -392.09 
	L 2778.12 -968.09 
	L 3117.21 -968.09 
	L 3117.21 -877.14 
	L 2868.94 -877.14 
	L 2868.94 -735.67 
	L 3036.48 -735.67 
	L 3036.48 -642.7 
	L 2868.94 -642.7 
	L 2868.94 -485.06 
	L 3135.38 -485.06 
	L 3135.38 -392.09 
	Z 
	"/>
</g>
<g fill="#7f7f7f" fill-rule="nonzero" stroke-width="0" stroke-linejoin="miter" stroke-linecap="butt" stroke-miterlimit="4" >
	<path d="
	M 2268.08 -1400.09 
	L 2047.76 -1790.15 
	L 2047.76 -1400.09 
	L 1956.81 -1400.09 
	L 1956.81 -1976.09 
	L 2047.76 -1976.09 
	L 2257.97 -1608.26 
	L 2257.97 -1976.09 
	L 2348.92 -1976.09 
	L 2348.92 -1400.09 
	Z 
	"/>
</g>
<g fill="#7f7f7f" fill-rule="nonzero" stroke-width="0" stroke-linejoin="miter" stroke-linecap="butt" stroke-miterlimit="4" >
	<path d="
	M 2658.61 -1895.25 
	L 2658.61 -1400.09 
	L 2567.27 -1400.09 
	L 2567.27 -1895.25 
	L 2435.32 -1895.25 
	L 2435.32 -1976.09 
	L 2792.59 -1976.09 
	L 2792.59 -1895.25 
	Z 
	"/>
</g>
<g fill="#7f7f7f" fill-rule="nonzero" stroke-width="0" stroke-linejoin="miter" stroke-linecap="butt" stroke-miterlimit="4" >
	<path d="
	M 3586.82 -1875.04 
	C 3572.67 -1883.12 3564.59 -1885.14 3534.27 -1885.14 
	L 3425.12 -1885.14 
	L 3425.12 -1743.67 
	L 3534.27 -1743.67 
	C 3562.57 -1743.67 3572.67 -1745.69 3586.82 -1753.77 
	C 3609.06 -1765.9 3623.2 -1790.15 3623.2 -1814.4 
	C 3623.2 -1838.66 3609.06 -1862.91 3586.82 -1875.04 
	Z 
	M 3627.24 -1400.09 
	L 3534.27 -1650.7 
	L 3425.12 -1650.7 
	L 3425.12 -1400.09 
	L 3334.17 -1400.09 
	L 3334.17 -1976.09 
	L 3524.16 -1976.09 
	C 3568.63 -1976.09 3598.95 -1972.05 3627.24 -1957.9 
	C 3677.77 -1933.65 3714.15 -1873.02 3714.15 -1814.4 
	C 3714.15 -1753.77 3677.77 -1693.14 3625.22 -1668.89 
	L 3726.29 -1400.09 
	Z 
	"/>
</g>
<g fill="#7f7f7f" fill-rule="nonzero" stroke-width="0" stroke-linejoin="miter" stroke-linecap="butt" stroke-miterlimit="4" >
	<path d="
	M 1501.62 -1400.09 
	L 1501.62 -1976.09 
	L 1840.72 -1976.09 
	L 1840.72 -1885.14 
	L 1592.45 -1885.14 
	L 1592.45 -1743.67 
	L 1759.99 -1743.67 
	L 1759.99 -1650.7 
	L 1592.45 -1650.7 
	L 1592.45 -1493.06 
	L 1858.89 -1493.06 
	L 1858.89 -1400.09 
	Z 
	"/>
</g>
<g fill="#7f7f7f" fill-rule="nonzero" stroke-width="0" stroke-linejoin="miter" stroke-linecap="butt" stroke-miterlimit="4" >
	<path d="
	M 2878.99 -1400.09 
	L 2878.99 -1976.09 
	L 3218.08 -1976.09 
	L 3218.08 -1885.14 
	L 2969.81 -1885.14 
	L 2969.81 -1743.67 
	L 3137.35 -1743.67 
	L 3137.35 -1650.7 
	L 2969.81 -1650.7 
	L 2969.81 -1493.06 
	L 3236.25 -1493.06 
	L 3236.25 -1400.09 
	Z 
	"/>
</g>
<g fill="#7f7f7f" fill-rule="nonzero" stroke-width="0" stroke-linejoin="miter" stroke-linecap="butt" stroke-miterlimit="4" >
	<path d="
	M 1201.08 -1389.98 
	C 1116.19 -1389.98 1061.62 -1422.32 1025.24 -1493.06 
	C 998.965 -1543.58 982.797 -1616.34 982.797 -1689.1 
	C 982.797 -1780.05 1007.05 -1871 1047.47 -1921.52 
	C 1081.83 -1963.96 1130.34 -1986.2 1195.02 -1986.2 
	C 1281.93 -1986.2 1336.5 -1949.81 1374.91 -1868.97 
	L 1290.01 -1832.6 
	C 1257.67 -1881.1 1239.49 -1893.23 1195.02 -1893.23 
	C 1148.53 -1893.23 1118.21 -1873.02 1098 -1822.49 
	C 1083.85 -1788.13 1075.77 -1737.6 1075.77 -1689.1 
	C 1075.77 -1626.45 1089.92 -1563.8 1112.15 -1527.41 
	C 1132.36 -1497.1 1158.64 -1482.95 1199.06 -1482.95 
	C 1237.46 -1482.95 1265.76 -1503.16 1288 -1549.65 
	L 1374.91 -1517.31 
	C 1340.55 -1432.43 1283.95 -1389.98 1201.08 -1389.98 
	Z 
	"/>
</g>
</g >
</g>
</svg>
