<?xml version="1.0" standalone="no"?>
<svg width="3562px" height="3562px" viewBox="-15 -2755 3562 3562 " xmlns="http://www.w3.org/2000/svg" xmlns:xlink="http://www.w3.org/1999/xlink">
<title>generated by pstoedit</title>
<!-- generated by pstoedit version:4.02 -->
<g xml:space='preserve'>
<clipPath id="clippath1"> 	<path d="
	M 0 -2739.94 
	L 0 792 
	L 3531.94 792 
	L 3531.94 -2739.94 
	Z 
	" style="clip-rule:nonzero"/>
</clipPath>
<g style="clip-path:url(#clippath1)"> 
<g fill="#95e8ff" fill-rule="nonzero" stroke-width="0" stroke-linejoin="miter" stroke-linecap="butt" stroke-miterlimit="10" >
	<path d="
	M 1880.52 744.301 
	C 1817.25 807.559 1714.68 807.559 1651.42 744.301 
	L 47.6992 -859.42 
	C -15.5664 -922.69 -15.5664 -1025.26 47.6992 -1088.52 
	L 1651.42 -2692.24 
	C 1714.68 -2755.51 1817.25 -2755.51 1880.52 -2692.24 
	L 3484.24 -1088.52 
	C 3547.5 -1025.26 3547.5 -922.69 3484.24 -859.42 
	Z 
	"/>
</g>
<g stroke="#7f7f7f" fill="none" stroke-width="0.5" stroke-linejoin="miter" stroke-linecap="butt" stroke-miterlimit="4" >
	<path d="
	M 1880.52 744.301 
	C 1817.25 807.559 1714.68 807.559 1651.42 744.301 
	L 47.6992 -859.42 
	C -15.5664 -922.69 -15.5664 -1025.26 47.6992 -1088.52 
	L 1651.42 -2692.24 
	C 1714.68 -2755.51 1817.25 -2755.51 1880.52 -2692.24 
	L 3484.24 -1088.52 
	C 3547.5 -1025.26 3547.5 -922.69 3484.24 -859.42 
	Z 
	"/>
</g>
<g fill="#7f7f7f" fill-rule="nonzero" stroke-width="0" stroke-linejoin="miter" stroke-linecap="butt" stroke-miterlimit="4" >
	<path d="
	M 79.5195 -891.24 
	C 33.9023 -936.86 33.9023 -1011.09 79.5195 -1056.7 
	L 1683.24 -2660.42 
	C 1728.85 -2706.04 1803.08 -2706.04 1848.7 -2660.42 
	L 3452.42 -1056.7 
	C 3498.04 -1011.09 3498.04 -936.86 3452.42 -891.24 
	L 1848.7 712.48 
	C 1803.08 758.102 1728.85 758.102 1683.24 712.48 
	Z 
	"/>
</g>
<g fill="#95e8ff" fill-rule="nonzero" stroke-width="0" stroke-linejoin="miter" stroke-linecap="butt" stroke-miterlimit="4" >
	<path d="
	M 124.066 -935.79 
	C 103.012 -956.84 103.012 -991.1 124.066 -1012.16 
	L 1727.78 -2615.88 
	C 1748.84 -2636.93 1783.1 -2636.93 1804.15 -2615.88 
	L 3407.87 -1012.16 
	C 3428.92 -991.1 3428.92 -956.84 3407.87 -935.79 
	L 1804.15 667.93 
	C 1783.1 688.98 1748.84 688.98 1727.78 667.93 
	Z 
	"/>
</g>
<g fill="#7f7f7f" fill-rule="nonzero" stroke-width="0" stroke-linejoin="miter" stroke-linecap="butt" stroke-miterlimit="4" >
	<path d="
	M 1633.98 -777.55 
	C 1621.6 -784.63 1614.53 -786.39 1588 -786.39 
	L 1492.5 -786.39 
	L 1492.5 -662.6 
	L 1588 -662.6 
	C 1612.76 -662.6 1621.6 -664.37 1633.98 -671.44 
	C 1653.44 -682.06 1665.82 -703.28 1665.82 -724.5 
	C 1665.82 -745.72 1653.44 -766.94 1633.98 -777.55 
	Z 
	M 1669.35 -361.97 
	L 1588 -581.26 
	L 1492.5 -581.26 
	L 1492.5 -361.97 
	L 1412.91 -361.97 
	L 1412.91 -865.97 
	L 1579.15 -865.97 
	C 1618.06 -865.97 1644.59 -862.44 1669.35 -850.06 
	C 1713.57 -828.83 1745.4 -775.78 1745.4 -724.5 
	C 1745.4 -671.44 1713.57 -618.39 1667.58 -597.17 
	L 1756.01 -361.97 
	Z 
	"/>
</g>
<g fill="#7f7f7f" fill-rule="nonzero" stroke-width="0" stroke-linejoin="miter" stroke-linecap="butt" stroke-miterlimit="4" >
	<path d="
	M 1841.69 -361.97 
	L 1841.69 -865.97 
	L 2138.4 -865.97 
	L 2138.4 -786.4 
	L 1921.17 -786.4 
	L 1921.17 -662.6 
	L 2067.76 -662.6 
	L 2067.76 -581.25 
	L 1921.17 -581.25 
	L 1921.17 -443.32 
	L 2154.3 -443.32 
	L 2154.3 -361.97 
	Z 
	"/>
</g>
<g fill="#7f7f7f" fill-rule="nonzero" stroke-width="0" stroke-linejoin="miter" stroke-linecap="butt" stroke-miterlimit="4" >
	<path d="
	M 1123.88 -726.27 
	L 1072.3 -584.79 
	L 1173.68 -584.79 
	Z 
	M 1251.94 -361.97 
	L 1202.14 -503.45 
	L 1043.84 -503.45 
	L 994.039 -361.97 
	L 908.664 -361.97 
	L 1082.97 -865.97 
	L 1163.01 -865.97 
	L 1337.31 -361.97 
	Z 
	"/>
</g>
<g fill="#7f7f7f" fill-rule="nonzero" stroke-width="0" stroke-linejoin="miter" stroke-linecap="butt" stroke-miterlimit="4" >
	<path d="
	M 2409.83 -726.27 
	L 2358.25 -584.79 
	L 2459.64 -584.79 
	Z 
	M 2537.9 -361.97 
	L 2488.09 -503.45 
	L 2329.79 -503.45 
	L 2279.99 -361.97 
	L 2194.62 -361.97 
	L 2368.93 -865.97 
	L 2448.97 -865.97 
	L 2623.27 -361.97 
	Z 
	"/>
</g>
<g fill="#7f7f7f" fill-rule="nonzero" stroke-width="0" stroke-linejoin="miter" stroke-linecap="butt" stroke-miterlimit="4" >
	<path d="
	M 1829.22 -1618.56 
	C 1813.27 -1645.09 1793.77 -1655.7 1763.63 -1657.47 
	C 1724.63 -1659.24 1699.81 -1639.79 1682.09 -1595.58 
	C 1669.67 -1565.51 1662.59 -1519.53 1662.59 -1477.09 
	C 1662.59 -1424.04 1673.22 -1369.22 1692.72 -1337.39 
	C 1708.68 -1310.86 1729.95 -1298.48 1761.86 -1298.48 
	C 1799.09 -1298.48 1822.13 -1317.93 1839.86 -1362.14 
	C 1850.49 -1388.67 1859.36 -1438.18 1859.36 -1477.09 
	C 1859.36 -1533.68 1848.72 -1584.96 1829.22 -1618.56 
	Z 
	M 1884.18 -1273.72 
	C 1855.81 -1234.82 1815.04 -1217.13 1761.86 -1217.13 
	C 1690.95 -1217.13 1646.63 -1245.43 1616.49 -1307.32 
	C 1595.22 -1349.77 1581.04 -1416.96 1581.04 -1477.09 
	C 1581.04 -1560.21 1602.31 -1634.48 1635.99 -1682.23 
	C 1666.13 -1721.13 1706.9 -1738.82 1765.4 -1738.82 
	C 1829.22 -1738.82 1873.54 -1710.52 1905.45 -1648.63 
	C 1926.72 -1604.42 1939.13 -1540.75 1939.13 -1477.09 
	C 1939.13 -1397.51 1919.63 -1317.93 1884.18 -1273.72 
	Z 
	"/>
</g>
<g fill="#7f7f7f" fill-rule="nonzero" stroke-width="0" stroke-linejoin="miter" stroke-linecap="butt" stroke-miterlimit="4" >
	<path d="
	M 1282.39 -1650.4 
	L 1282.39 -1526.61 
	L 1428.97 -1526.61 
	L 1428.97 -1445.26 
	L 1282.39 -1445.26 
	L 1282.39 -1225.97 
	L 1202.91 -1225.97 
	L 1202.91 -1729.98 
	L 1515.52 -1729.98 
	L 1515.52 -1650.4 
	Z 
	"/>
</g>
<g fill="#7f7f7f" fill-rule="nonzero" stroke-width="0" stroke-linejoin="miter" stroke-linecap="butt" stroke-miterlimit="4" >
	<path d="
	M 2223.86 -1217.13 
	C 2147.81 -1217.13 2103.6 -1245.43 2073.53 -1309.09 
	C 2052.31 -1353.3 2039.93 -1415.2 2039.93 -1477.09 
	C 2039.93 -1558.44 2062.92 -1638.02 2096.52 -1682.23 
	C 2126.59 -1719.37 2169.03 -1738.82 2225.63 -1738.82 
	C 2303.44 -1738.82 2349.43 -1706.98 2383.02 -1627.4 
	L 2306.98 -1597.34 
	C 2285.76 -1641.56 2264.53 -1657.47 2225.63 -1657.47 
	C 2184.95 -1657.47 2158.42 -1639.79 2140.73 -1595.58 
	C 2128.36 -1565.51 2121.28 -1519.53 2121.28 -1477.09 
	C 2121.28 -1424.04 2130.12 -1370.98 2146.04 -1339.15 
	C 2161.96 -1310.86 2184.95 -1298.48 2215.01 -1298.48 
	C 2266.3 -1298.48 2303.44 -1330.31 2303.44 -1376.29 
	L 2303.44 -1397.51 
	L 2211.48 -1397.51 
	L 2211.48 -1477.09 
	L 2383.02 -1477.09 
	L 2383.02 -1376.29 
	C 2383.02 -1284.33 2315.82 -1217.13 2223.86 -1217.13 
	Z 
	"/>
</g>
</g >
</g>
</svg>
