<?xml version="1.0" encoding="UTF-8" standalone="no"?>
<!-- Created with Inkscape (http://www.inkscape.org/) -->

<svg
   version="1.1"
   id="svg1"
   width="3139.0532"
   height="3139.0532"
   viewBox="0 0 3139.0532 3139.0532"
   sodipodi:docname="tmp1ds8yztj.pdf"
   xmlns:inkscape="http://www.inkscape.org/namespaces/inkscape"
   xmlns:sodipodi="http://sodipodi.sourceforge.net/DTD/sodipodi-0.dtd"
   xmlns="http://www.w3.org/2000/svg"
   xmlns:svg="http://www.w3.org/2000/svg">
  <defs
     id="defs1" />
  <sodipodi:namedview
     id="namedview1"
     pagecolor="#ffffff"
     bordercolor="#000000"
     borderopacity="0.25"
     inkscape:showpageshadow="2"
     inkscape:pageopacity="0.0"
     inkscape:pagecheckerboard="0"
     inkscape:deskcolor="#d1d1d1">
    <inkscape:page
       x="0"
       y="0"
       inkscape:label="1"
       id="page1"
       width="3139.0532"
       height="3139.0532"
       margin="0"
       bleed="0" />
  </sodipodi:namedview>
  <g
     id="g1"
     inkscape:groupmode="layer"
     inkscape:label="1">
    <g
       id="group-R5">
      <path
         id="path2"
         d="m 12535.1,316.301 c -421.7,-421.699 -1105.6,-421.699 -1527.3,0 L 316.328,11007.8 c -421.766,421.7 -421.766,1105.6 -0.004,1527.3 L 11007.8,23226.6 c 421.7,421.8 1105.6,421.8 1527.3,0 L 23226.6,12535.1 c 421.8,-421.7 421.8,-1105.6 0,-1527.3 L 12535.1,316.301"
         style="fill:#fccc2d;fill-opacity:1;fill-rule:nonzero;stroke:none"
         transform="matrix(0.13333333,0,0,-0.13333333,0,3139.0533)" />
      <path
         id="path3"
         d="m 507.246,11198.7 c -315.82,315.8 -315.82,829.7 -0.004,1145.5 L 11198.7,23035.7 c 315.8,315.8 829.7,315.8 1145.5,0 L 23035.7,12344.2 c 315.8,-315.8 315.8,-829.7 0,-1145.5 L 12344.2,507.199 c -315.8,-315.797 -829.7,-315.797 -1145.5,0 L 507.246,11198.7"
         style="fill:#231f20;fill-opacity:1;fill-rule:nonzero;stroke:none"
         transform="matrix(0.13333333,0,0,-0.13333333,0,3139.0533)" />
      <path
         id="path4"
         d="m 825.445,11516.9 c -140.367,140.4 -140.367,368.7 -0.007,509.1 L 11516.9,22717.5 c 140.4,140.3 368.8,140.3 509.1,0 L 22717.5,12026 c 140.3,-140.4 140.3,-368.7 0,-509.1 L 12026,825.402 c -140.3,-140.3 -368.7,-140.3 -509.1,0 L 825.445,11516.9"
         style="fill:#fccc2d;fill-opacity:1;fill-rule:nonzero;stroke:none"
         transform="matrix(0.13333333,0,0,-0.13333333,0,3139.0533)" />
      <path
         id="path5"
         d="m 8721.84,7672.5 -202.63,-828.6 h 415.4 z m 516.71,-2021.1 -202.64,788.3 h -618 l -192.5,-788.3 h -415.4 l 719.33,2880 h 405.27 l 719.33,-2880 h -415.39"
         style="fill:#231f20;fill-opacity:1;fill-rule:nonzero;stroke:none"
         transform="matrix(0.13333333,0,0,-0.13333333,0,3139.0533)" />
      <path
         id="path6"
         d="m 14800.8,7672.5 -202.6,-828.6 h 415.4 z m 516.7,-2021.1 -202.6,788.3 h -618 l -192.5,-788.3 H 13889 l 719.3,2880 h 405.3 l 719.3,-2880 h -415.4"
         style="fill:#231f20;fill-opacity:1;fill-rule:nonzero;stroke:none"
         transform="matrix(0.13333333,0,0,-0.13333333,0,3139.0533)" />
      <path
         id="path7"
         d="m 12160.3,5651.4 v 2880 h 1358 v -404.2 h -942.5 v -727.5 h 597.9 v -394.2 h -597.9 v -949.8 h 1054 v -404.3 h -1469.5"
         style="fill:#231f20;fill-opacity:1;fill-rule:nonzero;stroke:none"
         transform="matrix(0.13333333,0,0,-0.13333333,0,3139.0533)" />
      <path
         id="path8"
         d="m 10894.2,8127.2 h -423.6 v -727.6 h 423.6 c 242,0 373.1,131.4 373.1,363.8 0,222.4 -151.3,363.8 -373.1,363.8 z m 352.9,-2475.8 -383.2,1354.1 h -393.3 V 5651.4 h -413.5 v 2880 h 857.2 c 453.8,0 756.4,-303.1 756.4,-768 0,-343.5 -141.2,-596.2 -413.5,-697.2 l 413.5,-1414.8 h -423.6"
         style="fill:#231f20;fill-opacity:1;fill-rule:nonzero;stroke:none"
         transform="matrix(0.13333333,0,0,-0.13333333,0,3139.0533)" />
      <path
         id="path9"
         d="m 14010.1,12154.2 c -70.6,202.1 -191.6,293 -373.1,293 h -342.9 v -2071.5 h 342.9 c 242,0 373.1,192 413.4,414.3 20.2,181.9 40.4,384 40.4,606.3 0,323.4 -30.3,636.6 -80.7,757.9 z m 70.6,-2051.4 c -100.9,-90.9 -242.1,-131.4 -403.4,-131.4 h -796.7 v 2880 h 736.2 c 242,0 363,-30.3 463.9,-111.1 171.4,-121.3 292.4,-343.6 342.8,-636.6 40.4,-212.3 70.6,-464.9 70.6,-687.2 0,-667 -131.1,-1091.4 -413.4,-1313.7"
         style="fill:#231f20;fill-opacity:1;fill-rule:nonzero;stroke:none"
         transform="matrix(0.13333333,0,0,-0.13333333,0,3139.0533)" />
      <path
         id="path10"
         d="m 9596.69,9971.4 v 2880 h 403.2 v -2880 h -403.2"
         style="fill:#231f20;fill-opacity:1;fill-rule:nonzero;stroke:none"
         transform="matrix(0.13333333,0,0,-0.13333333,0,3139.0533)" />
      <path
         id="path11"
         d="M 11934.4,9971.4 11047,11901.6 V 9971.4 h -413.5 v 2880 h 413.5 l 786.5,-1728 v 1728 h 413.5 v -2880 h -312.6"
         style="fill:#231f20;fill-opacity:1;fill-rule:nonzero;stroke:none"
         transform="matrix(0.13333333,0,0,-0.13333333,0,3139.0533)" />
      <path
         id="path12"
         d="m 15746.2,11301.5 c -124.6,80.7 -245.6,161.7 -322.8,216 -232.2,163.5 -355.2,384 -355.2,636.7 0,414.3 324.7,747.8 740.8,747.8 405.9,0 720.5,-313.3 730.7,-747.8 h -395.8 c -10.2,202.1 -152.2,333.5 -334.9,333.5 -192.8,0 -345,-141.5 -345,-333.5 0,-141.5 60.9,-222.3 274,-343.6 558.1,-323.4 801.7,-636.6 801.7,-1051 0,-464.8 -355.2,-838.7 -801.7,-838.7 -507.4,0 -811.9,424.4 -811.9,899.4 h 406 c 0,-242.5 121.7,-495.2 405.9,-495.2 223.2,0 405.9,202.1 405.9,434.5 0,180.5 -74.6,332.5 -397.7,541.9"
         style="fill:#231f20;fill-opacity:1;fill-rule:nonzero;stroke:none"
         transform="matrix(0.13333333,0,0,-0.13333333,0,3139.0533)" />
      <path
         id="path13"
         d="m 8727.05,9971.4 h -354.9 l -273.79,1505.7 -273.78,-1505.7 h -365.03 l -456.3,2880 h 405.59 l 243.38,-1536 283.91,1536 h 324.49 l 273.77,-1536 253.51,1536 h 405.59 l -466.44,-2880"
         style="fill:#231f20;fill-opacity:1;fill-rule:nonzero;stroke:none"
         transform="matrix(0.13333333,0,0,-0.13333333,0,3139.0533)" />
      <path
         id="path14"
         d="m 8477.98,14645.1 c -111.62,-252.6 -345.03,-404.2 -639.32,-404.2 -345.03,0 -598.71,171.8 -740.78,495.2 -91.35,212.2 -152.23,616.4 -152.23,990.3 0,404.2 30.44,697.3 131.92,970.1 101.48,303.2 395.77,525.5 730.66,525.5 416.05,0 730.63,-303.2 750.94,-727.6 H 8143.1 c -10.15,192 -142.06,323.4 -345.03,323.4 -142.07,0 -253.7,-70.8 -324.73,-212.2 -81.18,-141.5 -131.92,-464.9 -131.92,-808.5 0,-242.5 20.29,-495.1 60.87,-717.4 60.9,-283 202.97,-434.6 426.22,-434.6 213.12,0 314.59,141.5 314.59,444.7 v 192 h -324.73 v 404.2 h 740.8 v -596.2 c 0,-202.1 -20.31,-323.4 -81.19,-444.7"
         style="fill:#231f20;fill-opacity:1;fill-rule:nonzero;stroke:none"
         transform="matrix(0.13333333,0,0,-0.13333333,0,3139.0533)" />
      <path
         id="path15"
         d="m 12058.4,15621.5 c -124.6,80.7 -245.6,161.7 -322.9,216.1 -232.2,163.4 -355.2,384 -355.2,636.6 0,414.3 324.8,747.8 740.9,747.8 405.9,0 720.5,-313.3 730.6,-747.8 H 12456 c -10.1,202.1 -152.2,333.5 -334.8,333.5 -192.8,0 -345.1,-141.5 -345.1,-333.5 0,-141.5 60.9,-222.3 274,-343.6 558.2,-323.4 801.7,-636.6 801.7,-1050.9 0,-464.9 -355.2,-838.8 -801.7,-838.8 -507.4,0 -811.8,424.4 -811.8,899.4 h 405.9 c 0,-242.5 121.8,-495.2 405.9,-495.2 223.3,0 405.9,202.1 405.9,434.6 0,180.4 -74.5,332.4 -397.6,541.8"
         style="fill:#231f20;fill-opacity:1;fill-rule:nonzero;stroke:none"
         transform="matrix(0.13333333,0,0,-0.13333333,0,3139.0533)" />
      <path
         id="path16"
         d="M 14053.5,16787.5 V 14291.4 H 13638 v 2496.1 h -527 v 383.9 h 1469.5 v -383.9 h -527"
         style="fill:#231f20;fill-opacity:1;fill-rule:nonzero;stroke:none"
         transform="matrix(0.13333333,0,0,-0.13333333,0,3139.0533)" />
      <path
         id="path17"
         d="m 10637.8,14645.1 c -141.2,-232.4 -413.5,-404.2 -685.78,-404.2 -282.38,0 -564.76,161.7 -705.93,404.2 -80.67,151.6 -110.94,272.9 -110.94,505.3 v 2021 h 413.47 v -2071.5 c 0,-272.9 161.37,-454.8 403.4,-454.8 221.88,0 383.18,181.9 383.18,454.8 v 2071.5 h 413.5 v -2021 c 0,-232.4 -30.3,-353.7 -110.9,-505.3"
         style="fill:#231f20;fill-opacity:1;fill-rule:nonzero;stroke:none"
         transform="matrix(0.13333333,0,0,-0.13333333,0,3139.0533)" />
      <path
         id="path18"
         d="m 15877.9,15595 v -1303.6 h -415.3 V 15595 l -709.3,1576.4 h 435.7 l 486.3,-1040.8 476.2,1040.8 h 445.8 L 15877.9,15595"
         style="fill:#231f20;fill-opacity:1;fill-rule:nonzero;stroke:none"
         transform="matrix(0.13333333,0,0,-0.13333333,0,3139.0533)" />
    </g>
  </g>
</svg>
