<?xml version="1.0" standalone="no"?>
<svg width="3562px" height="3562px" viewBox="-15 -2755 3562 3562 " xmlns="http://www.w3.org/2000/svg" xmlns:xlink="http://www.w3.org/1999/xlink">
<title>generated by pstoedit</title>
<!-- generated by pstoedit version:4.02 -->
<g xml:space='preserve'>
<clipPath id="clippath1"> 	<path d="
	M 0 -2739.94 
	L 0 792 
	L 3531.94 792 
	L 3531.94 -2739.94 
	Z 
	" style="clip-rule:nonzero"/>
</clipPath>
<g style="clip-path:url(#clippath1)"> 
<g fill="#95e8ff" fill-rule="nonzero" stroke-width="0" stroke-linejoin="miter" stroke-linecap="butt" stroke-miterlimit="10" >
	<path d="
	M 1880.52 744.301 
	C 1817.25 807.559 1714.68 807.559 1651.42 744.301 
	L 47.6992 -859.42 
	C -15.5664 -922.69 -15.5664 -1025.26 47.6992 -1088.52 
	L 1651.42 -2692.24 
	C 1714.68 -2755.51 1817.25 -2755.51 1880.52 -2692.24 
	L 3484.24 -1088.52 
	C 3547.5 -1025.26 3547.5 -922.69 3484.24 -859.42 
	Z 
	"/>
</g>
<g stroke="#7f7f7f" fill="none" stroke-width="0.5" stroke-linejoin="miter" stroke-linecap="butt" stroke-miterlimit="4" >
	<path d="
	M 1880.52 744.301 
	C 1817.25 807.559 1714.68 807.559 1651.42 744.301 
	L 47.6992 -859.42 
	C -15.5664 -922.69 -15.5664 -1025.26 47.6992 -1088.52 
	L 1651.42 -2692.24 
	C 1714.68 -2755.51 1817.25 -2755.51 1880.52 -2692.24 
	L 3484.24 -1088.52 
	C 3547.5 -1025.26 3547.5 -922.69 3484.24 -859.42 
	Z 
	"/>
</g>
<g fill="#7f7f7f" fill-rule="nonzero" stroke-width="0" stroke-linejoin="miter" stroke-linecap="butt" stroke-miterlimit="4" >
	<path d="
	M 79.5195 -891.24 
	C 33.9023 -936.86 33.9023 -1011.09 79.5195 -1056.7 
	L 1683.24 -2660.42 
	C 1728.85 -2706.04 1803.08 -2706.04 1848.7 -2660.42 
	L 3452.42 -1056.7 
	C 3498.04 -1011.09 3498.04 -936.86 3452.42 -891.24 
	L 1848.7 712.48 
	C 1803.08 758.102 1728.85 758.102 1683.24 712.48 
	Z 
	"/>
</g>
<g fill="#95e8ff" fill-rule="nonzero" stroke-width="0" stroke-linejoin="miter" stroke-linecap="butt" stroke-miterlimit="4" >
	<path d="
	M 124.066 -935.79 
	C 103.012 -956.84 103.012 -991.1 124.066 -1012.16 
	L 1727.78 -2615.88 
	C 1748.84 -2636.93 1783.1 -2636.93 1804.15 -2615.88 
	L 3407.87 -1012.16 
	C 3428.92 -991.1 3428.92 -956.84 3407.87 -935.79 
	L 1804.15 667.93 
	C 1783.1 688.98 1748.84 688.98 1727.78 667.93 
	Z 
	"/>
</g>
<g fill="#7f7f7f" fill-rule="nonzero" stroke-width="0" stroke-linejoin="miter" stroke-linecap="butt" stroke-miterlimit="4" >
	<path d="
	M 1669.39 -1351.97 
	L 1536.28 -1641.49 
	L 1536.28 -1351.97 
	L 1474.26 -1351.97 
	L 1474.26 -1783.98 
	L 1536.28 -1783.98 
	L 1654.27 -1524.77 
	L 1654.27 -1783.98 
	L 1716.29 -1783.98 
	L 1716.29 -1351.97 
	Z 
	"/>
</g>
<g fill="#7f7f7f" fill-rule="nonzero" stroke-width="0" stroke-linejoin="miter" stroke-linecap="butt" stroke-miterlimit="4" >
	<path d="
	M 1984.38 -1676.35 
	C 1973.7 -1714.25 1956.9 -1730.92 1930.94 -1730.92 
	C 1903.46 -1730.92 1886.66 -1714.25 1875.98 -1677.87 
	C 1865.29 -1644.52 1862.24 -1615.72 1862.24 -1567.22 
	C 1862.24 -1520.23 1866.82 -1492.94 1875.98 -1458.08 
	C 1886.66 -1421.7 1903.46 -1405.03 1930.94 -1405.03 
	C 1956.9 -1405.03 1973.7 -1421.7 1984.38 -1458.08 
	C 1995.07 -1492.94 1998.13 -1518.71 1998.13 -1568.73 
	C 1998.13 -1617.24 1993.55 -1644.52 1984.38 -1676.35 
	Z 
	M 2033.25 -1418.67 
	C 2011.87 -1367.13 1979.81 -1344.4 1930.94 -1344.4 
	C 1879.03 -1344.4 1848.49 -1367.13 1827.12 -1418.67 
	C 1808.79 -1461.11 1802.69 -1502.04 1802.69 -1568.73 
	C 1802.69 -1633.91 1808.79 -1677.87 1827.12 -1718.8 
	C 1850.02 -1770.33 1880.56 -1791.55 1930.94 -1791.55 
	C 1981.33 -1791.55 2011.87 -1770.33 2033.25 -1717.28 
	C 2051.57 -1674.84 2057.67 -1633.91 2057.67 -1568.73 
	C 2057.67 -1502.04 2051.57 -1459.6 2033.25 -1418.67 
	Z 
	"/>
</g>
<g fill="#7f7f7f" fill-rule="nonzero" stroke-width="0" stroke-linejoin="miter" stroke-linecap="butt" stroke-miterlimit="4" >
	<path d="
	M 2277.85 -923.38 
	C 2267.26 -953.7 2249.11 -967.34 2221.89 -967.34 
	L 2170.45 -967.34 
	L 2170.45 -656.6 
	L 2221.89 -656.6 
	C 2258.19 -656.6 2277.85 -685.4 2283.9 -718.75 
	C 2286.93 -746.04 2289.95 -776.35 2289.95 -809.7 
	C 2289.95 -858.2 2285.42 -905.2 2277.85 -923.38 
	Z 
	M 2288.44 -615.68 
	C 2273.32 -602.04 2252.14 -595.97 2227.94 -595.97 
	L 2108.43 -595.97 
	L 2108.43 -1027.97 
	L 2218.86 -1027.97 
	C 2255.16 -1027.97 2273.32 -1023.43 2288.44 -1011.3 
	C 2314.16 -993.11 2332.31 -959.76 2339.87 -915.81 
	C 2345.92 -883.97 2350.46 -846.08 2350.46 -812.73 
	C 2350.46 -712.69 2330.8 -649.02 2288.44 -615.68 
	Z 
	"/>
</g>
<g fill="#7f7f7f" fill-rule="nonzero" stroke-width="0" stroke-linejoin="miter" stroke-linecap="butt" stroke-miterlimit="4" >
	<path d="
	M 2436.86 -595.97 
	L 2436.86 -1027.97 
	L 2640.56 -1027.97 
	L 2640.56 -967.34 
	L 2499.19 -967.34 
	L 2499.19 -858.2 
	L 2588.88 -858.2 
	L 2588.88 -799.09 
	L 2499.19 -799.09 
	L 2499.19 -656.6 
	L 2657.29 -656.6 
	L 2657.29 -595.97 
	Z 
	"/>
</g>
<g fill="#7f7f7f" fill-rule="nonzero" stroke-width="0" stroke-linejoin="miter" stroke-linecap="butt" stroke-miterlimit="4" >
	<path d="
	M 1000.65 -595.97 
	L 1000.65 -791.51 
	L 882.664 -791.51 
	L 882.664 -595.97 
	L 820.645 -595.97 
	L 820.645 -1027.97 
	L 882.664 -1027.97 
	L 882.664 -852.14 
	L 1000.65 -852.14 
	L 1000.65 -1027.97 
	L 1062.67 -1027.97 
	L 1062.67 -595.97 
	Z 
	"/>
</g>
<g fill="#7f7f7f" fill-rule="nonzero" stroke-width="0" stroke-linejoin="miter" stroke-linecap="butt" stroke-miterlimit="4" >
	<path d="
	M 1827.53 -595.97 
	L 1827.53 -1027.97 
	L 1889.85 -1027.97 
	L 1889.85 -653.57 
	L 2047.95 -653.57 
	L 2047.95 -595.97 
	Z 
	"/>
</g>
<g fill="#7f7f7f" fill-rule="nonzero" stroke-width="0" stroke-linejoin="miter" stroke-linecap="butt" stroke-miterlimit="4" >
	<path d="
	M 1330.77 -920.35 
	C 1320.08 -958.25 1303.28 -974.92 1277.33 -974.92 
	C 1249.84 -974.92 1233.05 -958.25 1222.36 -921.87 
	C 1211.67 -888.52 1208.62 -859.72 1208.62 -811.22 
	C 1208.62 -764.23 1213.2 -736.94 1222.36 -702.08 
	C 1233.05 -665.7 1249.84 -649.03 1277.33 -649.03 
	C 1303.28 -649.03 1320.08 -665.7 1330.77 -702.08 
	C 1341.46 -736.94 1344.51 -762.71 1344.51 -812.73 
	C 1344.51 -861.23 1339.93 -888.52 1330.77 -920.35 
	Z 
	M 1379.63 -662.67 
	C 1358.25 -611.13 1326.19 -588.39 1277.33 -588.39 
	C 1225.41 -588.39 1194.88 -611.13 1173.5 -662.67 
	C 1155.18 -705.11 1149.07 -746.04 1149.07 -812.73 
	C 1149.07 -877.91 1155.18 -921.87 1173.5 -962.79 
	C 1196.4 -1014.33 1226.94 -1035.55 1277.33 -1035.55 
	C 1327.71 -1035.55 1358.25 -1014.33 1379.63 -961.28 
	C 1397.95 -918.84 1404.06 -877.91 1404.06 -812.73 
	C 1404.06 -746.04 1397.95 -703.59 1379.63 -662.67 
	Z 
	"/>
</g>
<g fill="#7f7f7f" fill-rule="nonzero" stroke-width="0" stroke-linejoin="miter" stroke-linecap="butt" stroke-miterlimit="4" >
	<path d="
	M 2856.28 -967.34 
	L 2792.75 -967.34 
	L 2792.75 -858.2 
	L 2856.28 -858.2 
	C 2892.59 -858.2 2912.25 -877.91 2912.25 -912.77 
	C 2912.25 -946.12 2889.56 -967.34 2856.28 -967.34 
	Z 
	M 2909.23 -595.97 
	L 2851.74 -799.09 
	L 2792.75 -799.09 
	L 2792.75 -595.97 
	L 2730.73 -595.97 
	L 2730.73 -1027.97 
	L 2859.31 -1027.97 
	C 2927.38 -1027.97 2972.76 -982.5 2972.76 -912.77 
	C 2972.76 -861.24 2951.58 -823.34 2910.74 -808.18 
	L 2972.76 -595.97 
	Z 
	"/>
</g>
<g fill="#7f7f7f" fill-rule="nonzero" stroke-width="0" stroke-linejoin="miter" stroke-linecap="butt" stroke-miterlimit="4" >
	<path d="
	M 628.188 -795.48 
	C 609.496 -807.59 591.348 -819.74 579.762 -827.89 
	C 544.934 -852.4 526.484 -885.49 526.484 -923.38 
	C 526.484 -985.53 575.195 -1035.55 637.605 -1035.55 
	C 698.492 -1035.55 745.68 -988.56 747.203 -923.38 
	L 687.84 -923.38 
	C 686.316 -953.7 665.004 -973.4 637.605 -973.4 
	C 608.684 -973.4 585.852 -952.18 585.852 -923.38 
	C 585.852 -902.16 594.984 -890.04 626.949 -871.85 
	C 710.672 -823.34 747.203 -776.35 747.203 -714.2 
	C 747.203 -644.48 693.926 -588.39 626.949 -588.39 
	C 550.84 -588.39 505.176 -652.06 505.176 -723.3 
	L 566.063 -723.3 
	C 566.063 -686.92 584.328 -649.02 626.949 -649.02 
	C 660.438 -649.02 687.84 -679.34 687.84 -714.2 
	C 687.84 -741.27 676.652 -764.07 628.188 -795.48 
	Z 
	"/>
</g>
<g fill="#7f7f7f" fill-rule="nonzero" stroke-width="0" stroke-linejoin="miter" stroke-linecap="butt" stroke-miterlimit="4" >
	<path d="
	M 1715.85 -649.02 
	C 1694.67 -614.16 1653.83 -588.39 1612.98 -588.39 
	C 1570.63 -588.39 1528.27 -612.65 1507.1 -649.02 
	C 1494.99 -671.76 1490.46 -689.95 1490.46 -724.81 
	L 1490.46 -1027.97 
	L 1552.48 -1027.97 
	L 1552.48 -717.23 
	C 1552.48 -676.31 1576.68 -649.02 1612.98 -649.02 
	C 1646.26 -649.02 1670.47 -676.31 1670.47 -717.23 
	L 1670.47 -1027.97 
	L 1732.49 -1027.97 
	L 1732.49 -724.81 
	C 1732.49 -689.95 1727.95 -671.76 1715.85 -649.02 
	Z 
	"/>
</g>
</g >
</g>
</svg>
