<?xml version="1.0" encoding="UTF-8" standalone="no"?>
<!-- Created with Inkscape (http://www.inkscape.org/) -->

<svg
   version="1.1"
   id="svg1"
   width="3139.72"
   height="3139.72"
   viewBox="0 0 3139.72 3139.72"
   sodipodi:docname="tmpgdglxkwq.pdf"
   xmlns:inkscape="http://www.inkscape.org/namespaces/inkscape"
   xmlns:sodipodi="http://sodipodi.sourceforge.net/DTD/sodipodi-0.dtd"
   xmlns="http://www.w3.org/2000/svg"
   xmlns:svg="http://www.w3.org/2000/svg">
  <defs
     id="defs1" />
  <sodipodi:namedview
     id="namedview1"
     pagecolor="#ffffff"
     bordercolor="#000000"
     borderopacity="0.25"
     inkscape:showpageshadow="2"
     inkscape:pageopacity="0.0"
     inkscape:pagecheckerboard="0"
     inkscape:deskcolor="#d1d1d1">
    <inkscape:page
       x="0"
       y="0"
       inkscape:label="1"
       id="page1"
       width="3139.72"
       height="3139.72"
       margin="0"
       bleed="0" />
  </sodipodi:namedview>
  <g
     id="g1"
     inkscape:groupmode="layer"
     inkscape:label="1">
    <g
       id="group-R5">
      <path
         id="path2"
         d="m 12537.6,318.801 c -421.7,-421.699 -1105.6,-421.699 -1527.3,0 L 318.828,11010.3 c -421.766,421.7 -421.766,1105.6 -0.004,1527.3 L 11010.3,23229.1 c 421.7,421.8 1105.6,421.8 1527.3,0 L 23229.1,12537.6 c 421.8,-421.7 421.8,-1105.6 0,-1527.3 L 12537.6,318.801"
         style="fill:#fccc2d;fill-opacity:1;fill-rule:nonzero;stroke:#231f20;stroke-width:5;stroke-linecap:butt;stroke-linejoin:miter;stroke-miterlimit:4;stroke-dasharray:none;stroke-opacity:1"
         transform="matrix(0.13333333,0,0,-0.13333333,0,3139.72)" />
      <path
         id="path3"
         d="m 509.746,11201.2 c -315.82,315.8 -315.82,829.7 -0.004,1145.5 L 11201.2,23038.2 c 315.8,315.8 829.7,315.8 1145.5,0 L 23038.2,12346.7 c 315.8,-315.8 315.8,-829.7 0,-1145.5 L 12346.7,509.699 c -315.8,-315.797 -829.7,-315.797 -1145.5,0 L 509.746,11201.2"
         style="fill:#231f20;fill-opacity:1;fill-rule:nonzero;stroke:none"
         transform="matrix(0.13333333,0,0,-0.13333333,0,3139.72)" />
      <path
         id="path4"
         d="m 827.945,11519.4 c -140.367,140.4 -140.367,368.7 -0.007,509.1 L 11519.4,22720 c 140.4,140.3 368.8,140.3 509.1,0 L 22720,12028.5 c 140.3,-140.4 140.3,-368.7 0,-509.1 L 12028.5,827.902 c -140.3,-140.3 -368.7,-140.3 -509.1,0 L 827.945,11519.4"
         style="fill:#fccc2d;fill-opacity:1;fill-rule:nonzero;stroke:none"
         transform="matrix(0.13333333,0,0,-0.13333333,0,3139.72)" />
      <path
         id="path5"
         d="m 9827.22,9694.6 c -91.18,151.6 -202.59,212.2 -374.81,222.3 -222.85,10.1 -364.69,-101 -465.97,-353.7 -70.91,-171.8 -111.42,-434.5 -111.42,-677 0,-303.2 60.75,-616.4 172.19,-798.3 91.18,-151.6 212.74,-222.4 395.08,-222.4 212.73,0 344.41,111.2 445.71,363.8 60.78,151.6 111.44,434.6 111.44,656.9 0,323.3 -60.78,616.4 -172.22,808.4 z m 313.98,-1970.5 c -162.03,-222.3 -395.04,-323.4 -698.91,-323.4 -405.2,0 -658.47,161.7 -830.66,515.4 -121.56,242.5 -202.58,626.5 -202.58,970.1 0,474.9 121.53,899.3 314.02,1172.2 172.19,222.3 405.2,323.4 739.46,323.4 364.69,0 617.97,-161.7 800.27,-515.4 121.6,-252.6 192.5,-616.4 192.5,-980.2 0,-454.8 -111.4,-909.5 -314.1,-1162.1"
         style="fill:#231f20;fill-opacity:1;fill-rule:nonzero;stroke:none"
         transform="matrix(0.13333333,0,0,-0.13333333,0,3139.72)" />
      <path
         id="path6"
         d="m 15115.7,7454.8 -729.9,1364.2 -304.2,-373.9 v -990.3 h -456.2 v 2880 h 456.2 V 9192.9 l 912.4,1141.9 h 588 l -892.1,-1121.7 953,-1758.3 h -527.2"
         style="fill:#231f20;fill-opacity:1;fill-rule:nonzero;stroke:none"
         transform="matrix(0.13333333,0,0,-0.13333333,0,3139.72)" />
      <path
         id="path7"
         d="m 7279.69,9829.5 c -70.72,40.4 -111.15,50.5 -262.75,50.5 h -545.7 v -707.3 h 545.7 c 141.5,0 192.03,10 262.75,50.5 111.19,60.6 181.94,181.9 181.94,303.1 0,121.3 -70.75,242.6 -181.94,303.2 z m 202.13,-2374.7 -464.88,1253 h -545.7 v -1253 h -454.77 v 2880 h 949.94 c 222.34,0 373.93,-20.3 515.41,-91 252.66,-121.3 434.57,-424.4 434.57,-717.5 0,-303.1 -181.91,-606.3 -444.67,-727.6 l 505.32,-1343.9 h -495.22"
         style="fill:#231f20;fill-opacity:1;fill-rule:nonzero;stroke:none"
         transform="matrix(0.13333333,0,0,-0.13333333,0,3139.72)" />
      <path
         id="path8"
         d="m 17608.5,7630.1 c -161.7,-141.5 -384.1,-222.4 -626.6,-222.4 -495.2,0 -859,293.1 -1051,727.6 l 434.5,161.7 c 121.3,-272.8 343.6,-424.4 616.5,-424.4 262.8,0 444.6,181.9 444.6,424.4 0,384 -444.6,444.6 -818.5,596.2 -171.8,70.7 -555.8,242.5 -555.8,717.5 0,565.9 384,778.1 899.4,778.1 404.2,0 677.1,-232.4 818.5,-586.1 l -404.2,-121.3 c 0,0 -101,242.5 -424.4,252.7 -212.2,10.1 -464.9,-70.8 -444.7,-333.5 40.4,-535.6 1394.6,-181.9 1394.6,-1313.7 0,-262.7 -101,-495.1 -282.9,-656.8"
         style="fill:#231f20;fill-opacity:1;fill-rule:nonzero;stroke:none"
         transform="matrix(0.13333333,0,0,-0.13333333,0,3139.72)" />
      <path
         id="path9"
         d="m 12122.7,7404.2 c -424.5,0 -697.3,161.7 -879.2,515.4 -131.4,252.6 -212.3,616.4 -212.3,980.2 0,454.8 121.3,909.5 323.4,1162.1 171.8,212.2 414.4,323.4 737.8,323.4 434.5,0 707.4,-181.9 899.4,-586.1 l -424.4,-181.9 c -161.7,242.5 -252.7,303.1 -475,303.1 -232.5,0 -384.1,-101 -485.1,-353.6 -70.7,-171.8 -111.2,-424.5 -111.2,-667 0,-313.3 70.8,-626.5 181.9,-808.4 101.1,-151.6 232.5,-222.3 434.6,-222.3 192,0 333.5,101 444.7,333.4 l 434.5,-161.6 c -171.8,-424.5 -454.7,-636.7 -869.1,-636.7"
         style="fill:#231f20;fill-opacity:1;fill-rule:nonzero;stroke:none"
         transform="matrix(0.13333333,0,0,-0.13333333,0,3139.72)" />
      <path
         id="path10"
         d="M 18126.6,12494.8 17025,14445.1 v -1950.3 h -454.8 v 2880 h 454.8 l 1051,-1839.2 v 1839.2 h 454.8 v -2880 h -404.2"
         style="fill:#231f20;fill-opacity:1;fill-rule:nonzero;stroke:none"
         transform="matrix(0.13333333,0,0,-0.13333333,0,3139.72)" />
      <path
         id="path11"
         d="m 9857.69,12494.8 v 2880 h 454.11 V 12919.2 H 11644 v -424.4 H 9857.69"
         style="fill:#231f20;fill-opacity:1;fill-rule:nonzero;stroke:none"
         transform="matrix(0.13333333,0,0,-0.13333333,0,3139.72)" />
      <path
         id="path12"
         d="m 12076,12494.8 v 2880 h 454.2 v -2455.6 h 1332.1 v -424.4 H 12076"
         style="fill:#231f20;fill-opacity:1;fill-rule:nonzero;stroke:none"
         transform="matrix(0.13333333,0,0,-0.13333333,0,3139.72)" />
      <path
         id="path13"
         d="m 14294.3,12494.8 v 2880 h 1695.5 v -454.7 h -1241.3 v -707.4 h 837.6 v -464.9 h -837.6 v -788.2 h 1332.1 v -464.8 h -1786.3"
         style="fill:#231f20;fill-opacity:1;fill-rule:nonzero;stroke:none"
         transform="matrix(0.13333333,0,0,-0.13333333,0,3139.72)" />
      <path
         id="path14"
         d="m 8206.05,14576.5 -294.74,-808.4 h 579.33 z m 731.79,-2081.7 -284.58,808.4 h -904.57 l -284.58,-808.4 h -487.86 l 996.04,2880 h 457.36 l 996.04,-2880 h -487.85"
         style="fill:#231f20;fill-opacity:1;fill-rule:nonzero;stroke:none"
         transform="matrix(0.13333333,0,0,-0.13333333,0,3139.72)" />
      <path
         id="path15"
         d="m 5471.27,14920.1 v -707.4 h 837.64 v -464.9 h -837.64 v -1253 h -454.16 v 2880 h 1786.33 v -454.7 H 5471.27"
         style="fill:#231f20;fill-opacity:1;fill-rule:nonzero;stroke:none"
         transform="matrix(0.13333333,0,0,-0.13333333,0,3139.72)" />
    </g>
  </g>
</svg>
