<?xml version="1.0" encoding="UTF-8" standalone="no"?>
<!-- Created with Inkscape (http://www.inkscape.org/) -->

<svg
   version="1.1"
   id="svg1"
   width="4709.2534"
   height="4709.2534"
   viewBox="0 0 4709.2534 4709.2534"
   sodipodi:docname="tmpcxfkydct.pdf"
   xmlns:inkscape="http://www.inkscape.org/namespaces/inkscape"
   xmlns:sodipodi="http://sodipodi.sourceforge.net/DTD/sodipodi-0.dtd"
   xmlns="http://www.w3.org/2000/svg"
   xmlns:svg="http://www.w3.org/2000/svg">
  <defs
     id="defs1" />
  <sodipodi:namedview
     id="namedview1"
     pagecolor="#ffffff"
     bordercolor="#000000"
     borderopacity="0.25"
     inkscape:showpageshadow="2"
     inkscape:pageopacity="0.0"
     inkscape:pagecheckerboard="0"
     inkscape:deskcolor="#d1d1d1">
    <inkscape:page
       x="0"
       y="0"
       inkscape:label="1"
       id="page1"
       width="4709.2534"
       height="4709.2534"
       margin="0"
       bleed="0" />
  </sodipodi:namedview>
  <g
     id="g1"
     inkscape:groupmode="layer"
     inkscape:label="1">
    <g
       id="group-R5">
      <path
         id="path2"
         d="m 18805.2,477 c -632.7,-632.602 -1658.4,-632.602 -2291,0 L 476.988,16514.2 c -632.652,632.7 -632.648,1658.4 0,2291 L 16514.2,34842.4 c 632.6,632.7 1658.3,632.7 2291,0 L 34842.4,18805.2 c 632.6,-632.6 632.6,-1658.3 0,-2291 L 18805.2,477"
         style="fill:#fccc2d;fill-opacity:1;fill-rule:nonzero;stroke:#231f20;stroke-width:5;stroke-linecap:butt;stroke-linejoin:miter;stroke-miterlimit:4;stroke-dasharray:none;stroke-opacity:1"
         transform="matrix(0.13333333,0,0,-0.13333333,0,4709.2533)" />
      <path
         id="path3"
         d="m 795.188,16832.4 c -456.184,456.2 -456.184,1198.5 0,1654.6 L 16832.4,34524.2 c 456.1,456.2 1198.4,456.2 1654.6,0 L 34524.2,18487 c 456.2,-456.1 456.2,-1198.4 0,-1654.6 L 18487,795.199 C 18030.8,339 17288.5,339 16832.4,795.199 L 795.188,16832.4"
         style="fill:#231f20;fill-opacity:1;fill-rule:nonzero;stroke:none"
         transform="matrix(0.13333333,0,0,-0.13333333,0,4709.2533)" />
      <path
         id="path4"
         d="m 1240.66,17277.9 c -210.54,210.5 -210.54,553.1 0,763.7 L 17277.8,34078.7 c 210.6,210.6 553.2,210.6 763.7,0 L 34078.7,18041.6 c 210.5,-210.6 210.5,-553.2 0,-763.7 L 18041.5,1240.7 c -210.5,-210.5 -553.1,-210.5 -763.7,0 L 1240.66,17277.9"
         style="fill:#fccc2d;fill-opacity:1;fill-rule:nonzero;stroke:none"
         transform="matrix(0.13333333,0,0,-0.13333333,0,4709.2533)" />
      <path
         id="path5"
         d="m 16339.8,15695.5 c -123.8,70.8 -194.5,88.4 -459.8,88.4 h -955 V 14546 h 955 c 247.6,0 336,17.7 459.8,88.4 194.6,106.2 318.4,318.4 318.4,530.6 0,212.2 -123.8,424.4 -318.4,530.5 z m 353.7,-4155.8 -813.5,2192.9 h -955 v -2192.9 h -795.9 v 5040 h 1662.4 c 389.1,0 654.4,-35.3 902,-159.1 442.2,-212.3 760.5,-742.8 760.5,-1255.6 0,-530.6 -318.3,-1061.1 -778.2,-1273.3 l 884.3,-2352 h -866.6"
         style="fill:#231f20;fill-opacity:1;fill-rule:nonzero;stroke:none"
         transform="matrix(0.13333333,0,0,-0.13333333,0,4709.2533)" />
      <path
         id="path6"
         d="m 18416.9,11539.7 v 5040 H 21384 V 15784 h -2172.3 v -1238 h 1465.9 v -813.5 H 19211.7 V 12353.2 H 21543 v -813.5 h -3126.1"
         style="fill:#231f20;fill-opacity:1;fill-rule:nonzero;stroke:none"
         transform="matrix(0.13333333,0,0,-0.13333333,0,4709.2533)" />
      <path
         id="path7"
         d="M 11238.8,15182.7 10723,13767.9 h 1013.8 z m 1280.6,-3643 -498,1414.8 h -1583 l -498.01,-1414.8 h -853.75 l 1743.06,5040 h 800.4 l 1743,-5040 h -853.7"
         style="fill:#231f20;fill-opacity:1;fill-rule:nonzero;stroke:none"
         transform="matrix(0.13333333,0,0,-0.13333333,0,4709.2533)" />
      <path
         id="path8"
         d="m 24098.3,15182.7 -515.8,-1414.8 h 1013.9 z m 1280.7,-3643 -498.1,1414.8 h -1583 l -498,-1414.8 h -853.7 l 1743.1,5040 h 800.4 l 1743,-5040 H 25379"
         style="fill:#231f20;fill-opacity:1;fill-rule:nonzero;stroke:none"
         transform="matrix(0.13333333,0,0,-0.13333333,0,4709.2533)" />
      <path
         id="path9"
         d="m 18292.2,24105.6 c -159.5,265.3 -354.5,371.4 -655.9,389.1 -390,17.7 -638.2,-176.8 -815.4,-618.9 -124.2,-300.7 -195,-760.5 -195,-1184.9 0,-530.5 106.3,-1078.7 301.3,-1397 159.6,-265.3 372.3,-389.1 691.4,-389.1 372.3,0 602.7,194.5 780,636.6 106.3,265.3 195,760.4 195,1149.5 0,565.9 -106.4,1078.7 -301.4,1414.7 z m 549.6,-3448.4 c -283.7,-389 -691.4,-565.9 -1223.2,-565.9 -709.1,0 -1152.3,283 -1453.7,901.9 -212.7,424.5 -354.5,1096.4 -354.5,1697.7 0,831.2 212.7,1573.9 549.5,2051.4 301.4,389 709.1,565.9 1294.1,565.9 638.2,0 1081.4,-283 1400.5,-901.9 212.7,-442.1 336.8,-1078.8 336.8,-1715.4 0,-795.8 -195,-1591.6 -549.5,-2033.7"
         style="fill:#231f20;fill-opacity:1;fill-rule:nonzero;stroke:none"
         transform="matrix(0.13333333,0,0,-0.13333333,0,4709.2533)" />
      <path
         id="path10"
         d="m 12823.9,24424 v -1237.9 h 1465.8 v -813.5 h -1465.8 v -2192.9 h -794.8 v 5040.1 h 3126.1 V 24424 h -2331.3"
         style="fill:#231f20;fill-opacity:1;fill-rule:nonzero;stroke:none"
         transform="matrix(0.13333333,0,0,-0.13333333,0,4709.2533)" />
      <path
         id="path11"
         d="m 22238.6,20091.3 c -760.5,0 -1202.6,283 -1503.3,919.6 -212.2,442.1 -336,1061.1 -336,1680 0,813.5 229.9,1609.3 565.9,2051.4 300.7,371.4 725.1,565.9 1291.1,565.9 778.1,0 1238,-318.4 1573.9,-1114.2 l -760.4,-300.6 c -212.2,442.2 -424.5,601.3 -813.5,601.3 -406.8,0 -672.1,-176.8 -849,-618.9 -123.7,-300.7 -194.5,-760.5 -194.5,-1184.9 0,-530.5 88.4,-1061.1 247.6,-1379.4 159.2,-282.9 389.1,-406.7 689.7,-406.7 512.9,0 884.3,318.3 884.3,778.1 v 212.2 h -919.6 v 795.8 h 1715.4 v -1008 c 0,-919.6 -672,-1591.6 -1591.6,-1591.6"
         style="fill:#231f20;fill-opacity:1;fill-rule:nonzero;stroke:none"
         transform="matrix(0.13333333,0,0,-0.13333333,0,4709.2533)" />
    </g>
  </g>
</svg>
