<?xml version="1.0" standalone="no"?>
<svg width="4750px" height="4750px" viewBox="-21 -3937 4750 4750 " xmlns="http://www.w3.org/2000/svg" xmlns:xlink="http://www.w3.org/1999/xlink">
<title>generated by pstoedit</title>
<!-- generated by pstoedit version:4.02 -->
<g xml:space='preserve'>
<clipPath id="clippath1"> 	<path d="
	M 0 -3916.58 
	L 0 792 
	L 4708.58 792 
	L 4708.58 -3916.58 
	Z 
	" style="clip-rule:nonzero"/>
</clipPath>
<g style="clip-path:url(#clippath1)"> 
<g fill="#95e8ff" fill-rule="nonzero" stroke-width="0" stroke-linejoin="miter" stroke-linecap="butt" stroke-miterlimit="10" >
	<path d="
	M 2507.02 728.738 
	C 2422.67 813.09 2285.91 813.09 2201.56 728.738 
	L 63.2656 -1409.55 
	C -21.0898 -1493.91 -21.0898 -1630.67 63.2656 -1715.02 
	L 2201.56 -3853.32 
	C 2285.91 -3937.67 2422.67 -3937.67 2507.02 -3853.32 
	L 4645.32 -1715.02 
	C 4729.67 -1630.67 4729.67 -1493.91 4645.32 -1409.55 
	Z 
	"/>
</g>
<g fill="#7f7f7f" fill-rule="nonzero" stroke-width="0" stroke-linejoin="miter" stroke-linecap="butt" stroke-miterlimit="10" >
	<path d="
	M 101.449 -1447.74 
	C 38.2852 -1510.9 38.2852 -1613.68 101.449 -1676.84 
	L 2239.74 -3815.13 
	C 2302.9 -3878.3 2405.68 -3878.3 2468.84 -3815.13 
	L 4607.13 -1676.84 
	C 4670.3 -1613.68 4670.3 -1510.9 4607.13 -1447.74 
	L 2468.84 690.551 
	C 2405.68 753.719 2302.9 753.719 2239.74 690.551 
	Z 
	"/>
</g>
<g fill="#95e8ff" fill-rule="nonzero" stroke-width="0" stroke-linejoin="miter" stroke-linecap="butt" stroke-miterlimit="10" >
	<path d="
	M 165.09 -1511.38 
	C 137.016 -1539.45 137.016 -1585.13 165.09 -1613.2 
	L 2303.38 -3751.49 
	C 2331.45 -3779.56 2377.13 -3779.56 2405.2 -3751.49 
	L 4543.49 -1613.2 
	C 4571.57 -1585.13 4571.57 -1539.45 4543.49 -1511.38 
	L 2405.2 626.91 
	C 2377.13 654.988 2331.45 654.988 2303.38 626.91 
	Z 
	"/>
</g>
<g fill="#7f7f7f" fill-rule="nonzero" stroke-width="0" stroke-linejoin="miter" stroke-linecap="butt" stroke-miterlimit="10" >
	<path d="
	M 1744.37 -724.5 
	L 1703.84 -558.77 
	L 1786.92 -558.77 
	Z 
	M 1847.71 -320.29 
	L 1807.18 -477.93 
	L 1683.58 -477.93 
	L 1645.08 -320.29 
	L 1562 -320.29 
	L 1705.87 -896.29 
	L 1786.92 -896.29 
	L 1930.79 -320.29 
	Z 
	"/>
</g>
<g fill="#7f7f7f" fill-rule="nonzero" stroke-width="0" stroke-linejoin="miter" stroke-linecap="butt" stroke-miterlimit="10" >
	<path d="
	M 2960.16 -724.5 
	L 2919.63 -558.77 
	L 3002.72 -558.77 
	Z 
	M 3063.5 -320.29 
	L 3022.98 -477.93 
	L 2899.37 -477.93 
	L 2860.87 -320.29 
	L 2777.8 -320.29 
	L 2921.66 -896.29 
	L 3002.72 -896.29 
	L 3146.58 -320.29 
	Z 
	"/>
</g>
<g fill="#7f7f7f" fill-rule="nonzero" stroke-width="0" stroke-linejoin="miter" stroke-linecap="butt" stroke-miterlimit="10" >
	<path d="
	M 2432.05 -320.29 
	L 2432.05 -896.29 
	L 2703.66 -896.29 
	L 2703.66 -815.45 
	L 2515.15 -815.45 
	L 2515.15 -669.93 
	L 2634.74 -669.93 
	L 2634.74 -591.11 
	L 2515.15 -591.11 
	L 2515.15 -401.13 
	L 2725.96 -401.13 
	L 2725.96 -320.29 
	Z 
	"/>
</g>
<g fill="#7f7f7f" fill-rule="nonzero" stroke-width="0" stroke-linejoin="miter" stroke-linecap="butt" stroke-miterlimit="10" >
	<path d="
	M 2178.83 -815.45 
	L 2094.12 -815.45 
	L 2094.12 -669.93 
	L 2178.83 -669.93 
	C 2227.24 -669.93 2253.46 -696.2 2253.46 -742.69 
	C 2253.46 -787.15 2223.2 -815.45 2178.83 -815.45 
	Z 
	M 2249.42 -320.29 
	L 2172.78 -591.11 
	L 2094.12 -591.11 
	L 2094.12 -320.29 
	L 2011.43 -320.29 
	L 2011.43 -896.29 
	L 2182.86 -896.29 
	C 2273.63 -896.29 2334.13 -835.66 2334.13 -742.69 
	C 2334.13 -673.97 2305.9 -623.45 2251.44 -603.23 
	L 2334.13 -320.29 
	Z 
	"/>
</g>
<g fill="#7f7f7f" fill-rule="nonzero" stroke-width="0" stroke-linejoin="miter" stroke-linecap="butt" stroke-miterlimit="10" >
	<path d="
	M 2802.02 -1620.84 
	C 2787.9 -1661.26 2763.7 -1679.45 2727.39 -1679.45 
	L 2658.82 -1679.45 
	L 2658.82 -1265.13 
	L 2727.39 -1265.13 
	C 2775.8 -1265.13 2802.02 -1303.53 2810.08 -1347.99 
	C 2814.12 -1384.37 2818.15 -1424.79 2818.15 -1469.26 
	C 2818.15 -1533.93 2812.1 -1596.59 2802.02 -1620.84 
	Z 
	M 2816.14 -1210.56 
	C 2795.97 -1192.37 2767.73 -1184.29 2735.46 -1184.29 
	L 2576.12 -1184.29 
	L 2576.12 -1760.29 
	L 2723.36 -1760.29 
	C 2771.76 -1760.29 2795.97 -1754.23 2816.14 -1738.06 
	C 2850.42 -1713.81 2874.63 -1669.34 2884.71 -1610.73 
	C 2892.78 -1568.29 2898.83 -1517.76 2898.83 -1473.3 
	C 2898.83 -1339.91 2872.61 -1255.03 2816.14 -1210.56 
	Z 
	"/>
</g>
<g fill="#7f7f7f" fill-rule="nonzero" stroke-width="0" stroke-linejoin="miter" stroke-linecap="butt" stroke-miterlimit="10" >
	<path d="
	M 1919.34 -1184.29 
	L 1919.34 -1760.29 
	L 1999.98 -1760.29 
	L 1999.98 -1184.29 
	Z 
	"/>
</g>
<g fill="#7f7f7f" fill-rule="nonzero" stroke-width="0" stroke-linejoin="miter" stroke-linecap="butt" stroke-miterlimit="10" >
	<path d="
	M 2386.88 -1184.29 
	L 2209.39 -1570.31 
	L 2209.39 -1184.29 
	L 2126.7 -1184.29 
	L 2126.7 -1760.29 
	L 2209.39 -1760.29 
	L 2366.71 -1414.69 
	L 2366.71 -1760.29 
	L 2449.4 -1760.29 
	L 2449.4 -1184.29 
	Z 
	"/>
</g>
<g fill="#7f7f7f" fill-rule="nonzero" stroke-width="0" stroke-linejoin="miter" stroke-linecap="butt" stroke-miterlimit="10" >
	<path d="
	M 3149.24 -1450.29 
	C 3124.32 -1466.44 3100.12 -1482.64 3084.68 -1493.51 
	C 3038.24 -1526.2 3013.64 -1570.31 3013.64 -1620.84 
	C 3013.64 -1703.7 3078.59 -1770.39 3161.8 -1770.39 
	C 3242.98 -1770.39 3305.9 -1707.74 3307.93 -1620.84 
	L 3228.78 -1620.84 
	C 3226.75 -1661.26 3198.33 -1687.53 3161.8 -1687.53 
	C 3123.24 -1687.53 3092.8 -1659.24 3092.8 -1620.84 
	C 3092.8 -1592.54 3104.98 -1576.37 3147.6 -1552.12 
	C 3259.22 -1487.45 3307.93 -1424.79 3307.93 -1341.93 
	C 3307.93 -1248.96 3236.9 -1174.18 3147.6 -1174.18 
	C 3046.12 -1174.18 2985.23 -1259.07 2985.23 -1354.06 
	L 3066.41 -1354.06 
	C 3066.41 -1305.55 3090.77 -1255.02 3147.6 -1255.02 
	C 3192.24 -1255.02 3228.78 -1295.45 3228.78 -1341.93 
	C 3228.78 -1378.02 3213.86 -1408.42 3149.24 -1450.29 
	Z 
	"/>
</g>
<g fill="#7f7f7f" fill-rule="nonzero" stroke-width="0" stroke-linejoin="miter" stroke-linecap="butt" stroke-miterlimit="10" >
	<path d="
	M 1745.41 -1184.29 
	L 1674.43 -1184.29 
	L 1619.67 -1485.42 
	L 1564.92 -1184.29 
	L 1491.91 -1184.29 
	L 1400.65 -1760.29 
	L 1481.77 -1760.29 
	L 1530.44 -1453.09 
	L 1587.23 -1760.29 
	L 1652.12 -1760.29 
	L 1706.88 -1453.09 
	L 1757.58 -1760.29 
	L 1838.7 -1760.29 
	Z 
	"/>
</g>
<g fill="#7f7f7f" fill-rule="nonzero" stroke-width="0" stroke-linejoin="miter" stroke-linecap="butt" stroke-miterlimit="10" >
	<path d="
	M 1695.6 -2119.03 
	C 1673.27 -2068.5 1626.59 -2038.18 1567.73 -2038.18 
	C 1498.73 -2038.18 1447.99 -2072.54 1419.57 -2137.22 
	C 1401.31 -2179.66 1389.13 -2260.5 1389.13 -2335.28 
	C 1389.13 -2416.12 1395.22 -2474.73 1415.51 -2529.3 
	C 1435.81 -2589.93 1494.67 -2634.4 1561.65 -2634.4 
	C 1644.86 -2634.4 1707.77 -2573.76 1711.83 -2488.88 
	L 1628.62 -2488.88 
	C 1626.59 -2527.28 1600.21 -2553.56 1559.61 -2553.56 
	C 1531.2 -2553.56 1508.87 -2539.41 1494.67 -2511.11 
	C 1478.43 -2482.82 1468.28 -2418.14 1468.28 -2349.43 
	C 1468.28 -2300.92 1472.34 -2250.4 1480.46 -2205.93 
	C 1492.64 -2149.34 1521.05 -2119.03 1565.7 -2119.03 
	C 1608.32 -2119.03 1628.62 -2147.32 1628.62 -2207.95 
	L 1628.62 -2246.35 
	L 1563.67 -2246.35 
	L 1563.67 -2327.2 
	L 1711.83 -2327.2 
	L 1711.83 -2207.95 
	C 1711.83 -2167.53 1707.77 -2143.28 1695.6 -2119.03 
	Z 
	"/>
</g>
<g fill="#7f7f7f" fill-rule="nonzero" stroke-width="0" stroke-linejoin="miter" stroke-linecap="butt" stroke-miterlimit="10" >
	<path d="
	M 2411.67 -2314.29 
	C 2386.75 -2330.44 2362.55 -2346.64 2347.11 -2357.51 
	C 2300.67 -2390.2 2276.07 -2434.31 2276.07 -2484.84 
	C 2276.07 -2567.7 2341.02 -2634.4 2424.23 -2634.4 
	C 2505.41 -2634.4 2568.33 -2571.74 2570.36 -2484.84 
	L 2491.21 -2484.84 
	C 2489.18 -2525.26 2460.76 -2551.53 2424.23 -2551.53 
	C 2385.67 -2551.53 2355.23 -2523.24 2355.23 -2484.84 
	C 2355.23 -2456.54 2367.4 -2440.37 2410.03 -2416.12 
	C 2521.65 -2351.45 2570.36 -2288.79 2570.36 -2205.93 
	C 2570.36 -2112.96 2499.33 -2038.18 2410.03 -2038.18 
	C 2308.54 -2038.18 2247.66 -2123.07 2247.66 -2218.06 
	L 2328.84 -2218.06 
	C 2328.84 -2169.55 2353.19 -2119.03 2410.03 -2119.03 
	C 2454.68 -2119.03 2491.21 -2159.45 2491.21 -2205.93 
	C 2491.21 -2242.03 2476.29 -2272.43 2411.67 -2314.29 
	Z 
	"/>
</g>
<g fill="#7f7f7f" fill-rule="nonzero" stroke-width="0" stroke-linejoin="miter" stroke-linecap="butt" stroke-miterlimit="10" >
	<path d="
	M 2810.71 -2547.49 
	L 2810.71 -2048.29 
	L 2727.6 -2048.29 
	L 2727.6 -2547.49 
	L 2622.2 -2547.49 
	L 2622.2 -2624.29 
	L 2916.11 -2624.29 
	L 2916.11 -2547.49 
	Z 
	"/>
</g>
<g fill="#7f7f7f" fill-rule="nonzero" stroke-width="0" stroke-linejoin="miter" stroke-linecap="butt" stroke-miterlimit="10" >
	<path d="
	M 2127.55 -2119.03 
	C 2099.31 -2072.54 2044.86 -2038.18 1990.4 -2038.18 
	C 1933.93 -2038.18 1877.45 -2070.52 1849.22 -2119.03 
	C 1833.08 -2149.34 1827.03 -2173.59 1827.03 -2220.08 
	L 1827.03 -2624.29 
	L 1909.72 -2624.29 
	L 1909.72 -2209.97 
	C 1909.72 -2155.41 1942 -2119.03 1990.4 -2119.03 
	C 2034.77 -2119.03 2067.04 -2155.41 2067.04 -2209.97 
	L 2067.04 -2624.29 
	L 2149.74 -2624.29 
	L 2149.74 -2220.08 
	C 2149.74 -2173.59 2143.69 -2149.34 2127.55 -2119.03 
	Z 
	"/>
</g>
<g fill="#7f7f7f" fill-rule="nonzero" stroke-width="0" stroke-linejoin="miter" stroke-linecap="butt" stroke-miterlimit="10" >
	<path d="
	M 3175.59 -2309.01 
	L 3175.59 -2048.29 
	L 3092.51 -2048.29 
	L 3092.51 -2309.01 
	L 2950.67 -2624.29 
	L 3037.8 -2624.29 
	L 3135.06 -2416.12 
	L 3230.3 -2624.29 
	L 3319.45 -2624.29 
	Z 
	"/>
</g>
</g >
</g>
</svg>
