<?xml version="1.0" standalone="no"?>
<svg width="2968px" height="2968px" viewBox="-12 -2164 2968 2968 " xmlns="http://www.w3.org/2000/svg" xmlns:xlink="http://www.w3.org/1999/xlink">
<title>generated by pstoedit</title>
<!-- generated by pstoedit version:4.02 -->
<g xml:space='preserve'>
<clipPath id="clippath1"> 	<path d="
	M 0 -2151.36 
	L 0 792 
	L 2943.36 792 
	L 2943.36 -2151.36 
	Z 
	" style="clip-rule:nonzero"/>
</clipPath>
<g style="clip-path:url(#clippath1)"> 
<g fill="#95e8ff" fill-rule="nonzero" stroke-width="0" stroke-linejoin="miter" stroke-linecap="butt" stroke-miterlimit="10" >
	<path d="
	M 1567.14 752.211 
	C 1514.42 804.93 1428.94 804.93 1376.22 752.211 
	L 39.7891 -584.22 
	C -12.9297 -636.94 -12.9297 -722.42 39.7891 -775.14 
	L 1376.22 -2111.57 
	C 1428.94 -2164.29 1514.42 -2164.29 1567.14 -2111.57 
	L 2903.57 -775.14 
	C 2956.29 -722.42 2956.29 -636.94 2903.57 -584.22 
	Z 
	"/>
</g>
<g stroke="#7f7f7f" fill="none" stroke-width="0.5" stroke-linejoin="miter" stroke-linecap="butt" stroke-miterlimit="4" >
	<path d="
	M 1567.14 752.211 
	C 1514.42 804.93 1428.94 804.93 1376.22 752.211 
	L 39.7891 -584.22 
	C -12.9297 -636.94 -12.9297 -722.42 39.7891 -775.14 
	L 1376.22 -2111.57 
	C 1428.94 -2164.29 1514.42 -2164.29 1567.14 -2111.57 
	L 2903.57 -775.14 
	C 2956.29 -722.42 2956.29 -636.94 2903.57 -584.22 
	Z 
	"/>
</g>
<g fill="#7f7f7f" fill-rule="nonzero" stroke-width="0" stroke-linejoin="miter" stroke-linecap="butt" stroke-miterlimit="4" >
	<path d="
	M 65.2461 -609.67 
	C 26.6445 -648.28 26.6484 -711.08 65.2461 -749.68 
	L 1401.68 -2086.11 
	C 1440.28 -2124.71 1503.08 -2124.71 1541.68 -2086.11 
	L 2878.12 -749.68 
	C 2916.72 -711.08 2916.72 -648.28 2878.12 -609.67 
	L 1541.68 726.762 
	C 1503.08 765.359 1440.28 765.359 1401.68 726.762 
	Z 
	"/>
</g>
<g fill="#95e8ff" fill-rule="nonzero" stroke-width="0" stroke-linejoin="miter" stroke-linecap="butt" stroke-miterlimit="4" >
	<path d="
	M 103.43 -647.86 
	C 85.8828 -665.4 85.8867 -693.95 103.43 -711.5 
	L 1439.86 -2047.93 
	C 1457.41 -2065.48 1485.96 -2065.48 1503.5 -2047.93 
	L 2839.93 -711.5 
	C 2857.48 -693.95 2857.48 -665.4 2839.93 -647.86 
	L 1503.5 688.57 
	C 1485.96 706.121 1457.41 706.121 1439.86 688.57 
	Z 
	"/>
</g>
<g fill="#7f7f7f" fill-rule="nonzero" stroke-width="0" stroke-linejoin="miter" stroke-linecap="butt" stroke-miterlimit="4" >
	<path d="
	M 1376.2 -1201.4 
	L 1238.5 -1445.19 
	L 1238.5 -1201.4 
	L 1181.66 -1201.4 
	L 1181.66 -1561.4 
	L 1238.5 -1561.4 
	L 1369.88 -1331.5 
	L 1369.88 -1561.4 
	L 1426.72 -1561.4 
	L 1426.72 -1201.4 
	Z 
	"/>
</g>
<g fill="#7f7f7f" fill-rule="nonzero" stroke-width="0" stroke-linejoin="miter" stroke-linecap="butt" stroke-miterlimit="4" >
	<path d="
	M 1683.2 -1481.38 
	C 1671.8 -1500.32 1657.88 -1507.9 1636.35 -1509.16 
	C 1608.49 -1510.43 1590.76 -1496.54 1578.1 -1464.95 
	C 1569.24 -1443.48 1564.18 -1410.64 1564.18 -1380.32 
	C 1564.18 -1342.43 1571.77 -1303.27 1585.7 -1280.54 
	C 1597.1 -1261.59 1612.29 -1252.74 1635.08 -1252.74 
	C 1661.68 -1252.74 1678.14 -1266.64 1690.8 -1298.22 
	C 1698.4 -1317.16 1704.73 -1352.53 1704.73 -1380.32 
	C 1704.73 -1420.74 1697.13 -1457.38 1683.2 -1481.38 
	Z 
	M 1722.45 -1235.06 
	C 1702.19 -1207.27 1673.07 -1194.64 1635.08 -1194.64 
	C 1584.43 -1194.64 1552.78 -1214.85 1531.25 -1259.06 
	C 1516.06 -1289.38 1505.93 -1337.38 1505.93 -1380.32 
	C 1505.93 -1439.69 1521.12 -1492.74 1545.18 -1526.85 
	C 1566.71 -1554.64 1595.83 -1567.27 1637.62 -1567.27 
	C 1683.2 -1567.27 1714.86 -1547.06 1737.65 -1502.85 
	C 1752.84 -1471.27 1761.71 -1425.8 1761.71 -1380.32 
	C 1761.71 -1323.48 1747.78 -1266.64 1722.45 -1235.06 
	Z 
	"/>
</g>
<g fill="#7f7f7f" fill-rule="nonzero" stroke-width="0" stroke-linejoin="miter" stroke-linecap="butt" stroke-miterlimit="4" >
	<path d="
	M 1599.49 58.609 
	L 1461.79 -185.191 
	L 1461.79 58.609 
	L 1404.95 58.609 
	L 1404.95 -301.4 
	L 1461.79 -301.4 
	L 1593.17 -71.5 
	L 1593.17 -301.4 
	L 1650.01 -301.4 
	L 1650.01 58.609 
	Z 
	"/>
</g>
<g fill="#7f7f7f" fill-rule="nonzero" stroke-width="0" stroke-linejoin="miter" stroke-linecap="butt" stroke-miterlimit="4" >
	<path d="
	M 1260.95 58.609 
	L 1260.95 -301.4 
	L 1318.55 -301.4 
	L 1318.55 58.609 
	Z 
	"/>
</g>
<g fill="#7f7f7f" fill-rule="nonzero" stroke-width="0" stroke-linejoin="miter" stroke-linecap="butt" stroke-miterlimit="4" >
	<path d="
	M 983.656 58.609 
	L 983.656 -301.4 
	L 1040.42 -301.4 
	L 1040.42 5.55103 
	L 1206.95 5.55103 
	L 1206.95 58.609 
	Z 
	"/>
</g>
<g fill="#7f7f7f" fill-rule="nonzero" stroke-width="0" stroke-linejoin="miter" stroke-linecap="butt" stroke-miterlimit="4" >
	<path d="
	M 1736.42 58.609 
	L 1736.42 -301.4 
	L 1948.35 -301.4 
	L 1948.35 -244.55 
	L 1793.18 -244.55 
	L 1793.18 -156.129 
	L 1897.89 -156.129 
	L 1897.89 -98.031 
	L 1793.18 -98.031 
	L 1793.18 0.5 
	L 1959.71 0.5 
	L 1959.71 58.609 
	Z 
	"/>
</g>
<g fill="#7f7f7f" fill-rule="nonzero" stroke-width="0" stroke-linejoin="miter" stroke-linecap="butt" stroke-miterlimit="4" >
	<path d="
	M 1417.64 -571.4 
	L 1279.95 -815.19 
	L 1279.95 -571.4 
	L 1223.1 -571.4 
	L 1223.1 -931.4 
	L 1279.95 -931.4 
	L 1411.32 -701.5 
	L 1411.32 -931.4 
	L 1468.17 -931.4 
	L 1468.17 -571.4 
	Z 
	"/>
</g>
<g fill="#7f7f7f" fill-rule="nonzero" stroke-width="0" stroke-linejoin="miter" stroke-linecap="butt" stroke-miterlimit="4" >
	<path d="
	M 1661.73 -880.87 
	L 1661.73 -571.4 
	L 1604.64 -571.4 
	L 1604.64 -880.87 
	L 1522.17 -880.87 
	L 1522.17 -931.4 
	L 1745.46 -931.4 
	L 1745.46 -880.87 
	Z 
	"/>
</g>
<g fill="#7f7f7f" fill-rule="nonzero" stroke-width="0" stroke-linejoin="miter" stroke-linecap="butt" stroke-miterlimit="4" >
	<path d="
	M 2241.85 -868.24 
	C 2233.01 -873.29 2227.96 -874.55 2209.01 -874.55 
	L 2140.79 -874.55 
	L 2140.79 -786.13 
	L 2209.01 -786.13 
	C 2226.7 -786.13 2233.01 -787.4 2241.85 -792.45 
	C 2255.75 -800.03 2264.6 -815.19 2264.6 -830.34 
	C 2264.6 -845.5 2255.75 -860.66 2241.85 -868.24 
	Z 
	M 2267.12 -571.4 
	L 2209.01 -728.03 
	L 2140.79 -728.03 
	L 2140.79 -571.4 
	L 2083.95 -571.4 
	L 2083.95 -931.4 
	L 2202.69 -931.4 
	C 2230.49 -931.4 2249.44 -928.87 2267.12 -920.03 
	C 2298.7 -904.87 2321.44 -866.98 2321.44 -830.34 
	C 2321.44 -792.45 2298.7 -754.55 2265.86 -739.39 
	L 2329.02 -571.4 
	Z 
	"/>
</g>
<g fill="#7f7f7f" fill-rule="nonzero" stroke-width="0" stroke-linejoin="miter" stroke-linecap="butt" stroke-miterlimit="4" >
	<path d="
	M 938.609 -571.4 
	L 938.609 -931.4 
	L 1150.54 -931.4 
	L 1150.54 -874.55 
	L 995.375 -874.55 
	L 995.375 -786.13 
	L 1100.09 -786.13 
	L 1100.09 -728.03 
	L 995.375 -728.03 
	L 995.375 -629.5 
	L 1161.9 -629.5 
	L 1161.9 -571.4 
	Z 
	"/>
</g>
<g fill="#7f7f7f" fill-rule="nonzero" stroke-width="0" stroke-linejoin="miter" stroke-linecap="butt" stroke-miterlimit="4" >
	<path d="
	M 1799.46 -571.4 
	L 1799.46 -931.4 
	L 2011.4 -931.4 
	L 2011.4 -874.55 
	L 1856.23 -874.55 
	L 1856.23 -786.13 
	L 1960.94 -786.13 
	L 1960.94 -728.03 
	L 1856.23 -728.03 
	L 1856.23 -629.5 
	L 2022.75 -629.5 
	L 2022.75 -571.4 
	Z 
	"/>
</g>
<g fill="#7f7f7f" fill-rule="nonzero" stroke-width="0" stroke-linejoin="miter" stroke-linecap="butt" stroke-miterlimit="4" >
	<path d="
	M 750.77 -565.08 
	C 697.715 -565.08 663.605 -585.29 640.867 -629.5 
	C 624.445 -661.08 614.34 -706.55 614.34 -752.03 
	C 614.34 -808.87 629.5 -865.71 654.766 -897.29 
	C 676.238 -923.82 706.559 -937.71 746.98 -937.71 
	C 801.301 -937.71 835.406 -914.97 859.41 -864.45 
	L 806.352 -841.71 
	C 786.141 -872.03 774.773 -879.61 746.98 -879.61 
	C 717.93 -879.61 698.977 -866.98 686.348 -835.4 
	C 677.504 -813.92 672.449 -782.34 672.449 -752.03 
	C 672.449 -712.87 681.293 -673.71 695.188 -650.97 
	C 707.82 -632.03 724.242 -623.18 749.508 -623.18 
	C 773.508 -623.18 791.195 -635.82 805.09 -664.87 
	L 859.41 -644.66 
	C 837.934 -591.61 802.563 -565.08 750.77 -565.08 
	Z 
	"/>
</g>
</g >
</g>
</svg>
