<?xml version="1.0" standalone="no"?>
<svg width="3562px" height="3562px" viewBox="-15 -2755 3562 3562 " xmlns="http://www.w3.org/2000/svg" xmlns:xlink="http://www.w3.org/1999/xlink">
<title>generated by pstoedit</title>
<!-- generated by pstoedit version:4.02 -->
<g xml:space='preserve'>
<clipPath id="clippath1"> 	<path d="
	M 0 -2739.44 
	L 0 792 
	L 3531.44 792 
	L 3531.44 -2739.44 
	Z 
	" style="clip-rule:nonzero"/>
</clipPath>
<g style="clip-path:url(#clippath1)"> 
<g fill="#95e8ff" fill-rule="nonzero" stroke-width="0" stroke-linejoin="miter" stroke-linecap="butt" stroke-miterlimit="10" >
	<path d="
	M 1880.27 744.551 
	C 1817 807.809 1714.43 807.809 1651.17 744.551 
	L 47.4492 -859.17 
	C -15.8164 -922.44 -15.8164 -1025.01 47.4492 -1088.27 
	L 1651.17 -2691.99 
	C 1714.43 -2755.26 1817 -2755.26 1880.27 -2691.99 
	L 3483.99 -1088.27 
	C 3547.25 -1025.01 3547.25 -922.44 3483.99 -859.17 
	Z 
	"/>
</g>
<g fill="#7f7f7f" fill-rule="nonzero" stroke-width="0" stroke-linejoin="miter" stroke-linecap="butt" stroke-miterlimit="10" >
	<path d="
	M 79.2695 -890.99 
	C 33.6523 -936.61 33.6523 -1010.84 79.2695 -1056.45 
	L 1682.99 -2660.17 
	C 1728.6 -2705.79 1802.83 -2705.79 1848.45 -2660.17 
	L 3452.17 -1056.45 
	C 3497.79 -1010.84 3497.79 -936.61 3452.17 -890.99 
	L 1848.45 712.73 
	C 1802.83 758.352 1728.6 758.352 1682.99 712.73 
	Z 
	"/>
</g>
<g fill="#95e8ff" fill-rule="nonzero" stroke-width="0" stroke-linejoin="miter" stroke-linecap="butt" stroke-miterlimit="10" >
	<path d="
	M 123.816 -935.54 
	C 102.762 -956.59 102.762 -990.85 123.816 -1011.91 
	L 1727.53 -2615.63 
	C 1748.59 -2636.68 1782.85 -2636.68 1803.9 -2615.63 
	L 3407.62 -1011.91 
	C 3428.67 -990.85 3428.67 -956.59 3407.62 -935.54 
	L 1803.9 668.18 
	C 1782.85 689.23 1748.59 689.23 1727.53 668.18 
	Z 
	"/>
</g>
<g fill="#7f7f7f" fill-rule="nonzero" stroke-width="0" stroke-linejoin="miter" stroke-linecap="butt" stroke-miterlimit="10" >
	<path d="
	M 1308.27 -358.88 
	L 1277.88 -234.59 
	L 1340.19 -234.59 
	Z 
	M 1385.78 -55.719 
	L 1355.39 -173.961 
	L 1262.69 -173.961 
	L 1233.81 -55.719 
	L 1171.5 -55.719 
	L 1279.4 -487.72 
	L 1340.19 -487.72 
	L 1448.09 -55.719 
	Z 
	"/>
</g>
<g fill="#7f7f7f" fill-rule="nonzero" stroke-width="0" stroke-linejoin="miter" stroke-linecap="butt" stroke-miterlimit="10" >
	<path d="
	M 2220.12 -358.88 
	L 2189.72 -234.59 
	L 2252.04 -234.59 
	Z 
	M 2297.62 -55.719 
	L 2267.23 -173.961 
	L 2174.53 -173.961 
	L 2145.65 -55.719 
	L 2083.35 -55.719 
	L 2191.25 -487.72 
	L 2252.04 -487.72 
	L 2359.93 -55.719 
	Z 
	"/>
</g>
<g fill="#7f7f7f" fill-rule="nonzero" stroke-width="0" stroke-linejoin="miter" stroke-linecap="butt" stroke-miterlimit="10" >
	<path d="
	M 1824.04 -55.719 
	L 1824.04 -487.72 
	L 2027.74 -487.72 
	L 2027.74 -427.09 
	L 1886.37 -427.09 
	L 1886.37 -317.96 
	L 1976.06 -317.96 
	L 1976.06 -258.84 
	L 1886.37 -258.84 
	L 1886.37 -116.352 
	L 2044.47 -116.352 
	L 2044.47 -55.719 
	Z 
	"/>
</g>
<g fill="#7f7f7f" fill-rule="nonzero" stroke-width="0" stroke-linejoin="miter" stroke-linecap="butt" stroke-miterlimit="10" >
	<path d="
	M 1634.12 -427.09 
	L 1570.59 -427.09 
	L 1570.59 -317.95 
	L 1634.12 -317.95 
	C 1670.43 -317.95 1690.09 -337.66 1690.09 -372.52 
	C 1690.09 -405.87 1667.4 -427.09 1634.12 -427.09 
	Z 
	M 1687.07 -55.719 
	L 1629.58 -258.84 
	L 1570.59 -258.84 
	L 1570.59 -55.719 
	L 1508.57 -55.719 
	L 1508.57 -487.72 
	L 1637.15 -487.72 
	C 1705.22 -487.72 1750.6 -442.25 1750.6 -372.52 
	C 1750.6 -320.99 1729.42 -283.09 1688.58 -267.93 
	L 1750.6 -55.719 
	Z 
	"/>
</g>
<g fill="#7f7f7f" fill-rule="nonzero" stroke-width="0" stroke-linejoin="miter" stroke-linecap="butt" stroke-miterlimit="10" >
	<path d="
	M 2101.51 -1031.13 
	C 2090.92 -1061.45 2072.77 -1075.09 2045.54 -1075.09 
	L 1994.11 -1075.09 
	L 1994.11 -764.35 
	L 2045.54 -764.35 
	C 2081.85 -764.35 2101.51 -793.15 2107.56 -826.5 
	C 2110.59 -853.79 2113.61 -884.1 2113.61 -917.45 
	C 2113.61 -965.96 2109.07 -1012.95 2101.51 -1031.13 
	Z 
	M 2112.1 -723.43 
	C 2096.98 -709.79 2075.8 -703.72 2051.59 -703.72 
	L 1932.09 -703.72 
	L 1932.09 -1135.72 
	L 2042.52 -1135.72 
	C 2078.82 -1135.72 2096.98 -1131.18 2112.1 -1119.05 
	C 2137.82 -1100.86 2155.97 -1067.51 2163.53 -1023.56 
	C 2169.58 -991.72 2174.12 -953.83 2174.12 -920.48 
	C 2174.12 -820.44 2154.46 -756.78 2112.1 -723.43 
	Z 
	"/>
</g>
<g fill="#7f7f7f" fill-rule="nonzero" stroke-width="0" stroke-linejoin="miter" stroke-linecap="butt" stroke-miterlimit="10" >
	<path d="
	M 1439.5 -703.72 
	L 1439.5 -1135.72 
	L 1499.98 -1135.72 
	L 1499.98 -703.72 
	Z 
	"/>
</g>
<g fill="#7f7f7f" fill-rule="nonzero" stroke-width="0" stroke-linejoin="miter" stroke-linecap="butt" stroke-miterlimit="10" >
	<path d="
	M 1790.16 -703.72 
	L 1657.04 -993.24 
	L 1657.04 -703.72 
	L 1595.02 -703.72 
	L 1595.02 -1135.72 
	L 1657.04 -1135.72 
	L 1775.03 -876.52 
	L 1775.03 -1135.72 
	L 1837.05 -1135.72 
	L 1837.05 -703.72 
	Z 
	"/>
</g>
<g fill="#7f7f7f" fill-rule="nonzero" stroke-width="0" stroke-linejoin="miter" stroke-linecap="butt" stroke-miterlimit="10" >
	<path d="
	M 2361.93 -903.23 
	C 2343.24 -915.33 2325.09 -927.49 2313.51 -935.64 
	C 2278.68 -960.15 2260.23 -993.24 2260.23 -1031.13 
	C 2260.23 -1093.28 2308.94 -1143.3 2371.35 -1143.3 
	C 2432.24 -1143.3 2479.43 -1096.31 2480.95 -1031.13 
	L 2421.58 -1031.13 
	C 2420.06 -1061.45 2398.75 -1081.15 2371.35 -1081.15 
	C 2342.43 -1081.15 2319.6 -1059.93 2319.6 -1031.13 
	C 2319.6 -1009.91 2328.73 -997.79 2360.7 -979.6 
	C 2444.42 -931.09 2480.95 -884.1 2480.95 -821.95 
	C 2480.95 -752.23 2427.67 -696.14 2360.7 -696.14 
	C 2284.59 -696.14 2238.92 -759.81 2238.92 -831.05 
	L 2299.81 -831.05 
	C 2299.81 -794.67 2318.07 -756.77 2360.7 -756.77 
	C 2394.18 -756.77 2421.58 -787.09 2421.58 -821.95 
	C 2421.58 -849.02 2410.4 -871.82 2361.93 -903.23 
	Z 
	"/>
</g>
<g fill="#7f7f7f" fill-rule="nonzero" stroke-width="0" stroke-linejoin="miter" stroke-linecap="butt" stroke-miterlimit="10" >
	<path d="
	M 1309.06 -703.72 
	L 1255.82 -703.72 
	L 1214.75 -929.57 
	L 1173.69 -703.72 
	L 1118.93 -703.72 
	L 1050.49 -1135.72 
	L 1111.33 -1135.72 
	L 1147.83 -905.32 
	L 1190.42 -1135.72 
	L 1239.09 -1135.72 
	L 1280.16 -905.32 
	L 1318.18 -1135.72 
	L 1379.02 -1135.72 
	Z 
	"/>
</g>
<g fill="#7f7f7f" fill-rule="nonzero" stroke-width="0" stroke-linejoin="miter" stroke-linecap="butt" stroke-miterlimit="10" >
	<path d="
	M 1271.7 -1404.78 
	C 1254.95 -1366.88 1219.94 -1344.14 1175.8 -1344.14 
	C 1124.04 -1344.14 1085.99 -1369.91 1064.68 -1418.42 
	C 1050.98 -1450.25 1041.85 -1510.88 1041.85 -1566.97 
	C 1041.85 -1627.6 1046.41 -1671.56 1061.63 -1712.48 
	C 1076.86 -1757.96 1121 -1791.3 1171.23 -1791.3 
	C 1233.64 -1791.3 1280.83 -1745.83 1283.87 -1682.17 
	L 1221.46 -1682.17 
	C 1219.94 -1710.97 1200.15 -1730.67 1169.71 -1730.67 
	C 1148.4 -1730.67 1131.65 -1720.06 1121 -1698.84 
	C 1108.82 -1677.62 1101.21 -1629.11 1101.21 -1577.58 
	C 1101.21 -1541.2 1104.26 -1503.3 1110.34 -1469.96 
	C 1119.48 -1427.51 1140.79 -1404.78 1174.28 -1404.78 
	C 1206.24 -1404.78 1221.46 -1426 1221.46 -1471.47 
	L 1221.46 -1500.27 
	L 1172.75 -1500.27 
	L 1172.75 -1560.9 
	L 1283.87 -1560.9 
	L 1283.87 -1471.47 
	C 1283.87 -1441.16 1280.83 -1422.96 1271.7 -1404.78 
	Z 
	"/>
</g>
<g fill="#7f7f7f" fill-rule="nonzero" stroke-width="0" stroke-linejoin="miter" stroke-linecap="butt" stroke-miterlimit="10" >
	<path d="
	M 1808.75 -1551.23 
	C 1790.06 -1563.34 1771.91 -1575.49 1760.33 -1583.64 
	C 1725.5 -1608.15 1707.05 -1641.24 1707.05 -1679.13 
	C 1707.05 -1741.28 1755.76 -1791.3 1818.17 -1791.3 
	C 1879.06 -1791.3 1926.25 -1744.31 1927.77 -1679.13 
	L 1868.4 -1679.13 
	C 1866.88 -1709.45 1845.57 -1729.16 1818.17 -1729.16 
	C 1789.25 -1729.16 1766.42 -1707.93 1766.42 -1679.13 
	C 1766.42 -1657.91 1775.55 -1645.79 1807.52 -1627.6 
	C 1891.24 -1579.09 1927.77 -1532.1 1927.77 -1469.95 
	C 1927.77 -1400.23 1874.49 -1344.14 1807.52 -1344.14 
	C 1731.41 -1344.14 1685.74 -1407.81 1685.74 -1479.05 
	L 1746.63 -1479.05 
	C 1746.63 -1442.67 1764.9 -1404.77 1807.52 -1404.77 
	C 1841.01 -1404.77 1868.4 -1435.09 1868.4 -1469.95 
	C 1868.4 -1497.02 1857.22 -1519.83 1808.75 -1551.23 
	Z 
	"/>
</g>
<g fill="#7f7f7f" fill-rule="nonzero" stroke-width="0" stroke-linejoin="miter" stroke-linecap="butt" stroke-miterlimit="10" >
	<path d="
	M 2108.03 -1726.12 
	L 2108.03 -1351.72 
	L 2045.7 -1351.72 
	L 2045.7 -1726.12 
	L 1966.65 -1726.12 
	L 1966.65 -1783.72 
	L 2187.08 -1783.72 
	L 2187.08 -1726.12 
	Z 
	"/>
</g>
<g fill="#7f7f7f" fill-rule="nonzero" stroke-width="0" stroke-linejoin="miter" stroke-linecap="butt" stroke-miterlimit="10" >
	<path d="
	M 1595.66 -1404.78 
	C 1574.48 -1369.91 1533.64 -1344.14 1492.8 -1344.14 
	C 1450.44 -1344.14 1408.09 -1368.4 1386.91 -1404.78 
	C 1374.81 -1427.51 1370.27 -1445.7 1370.27 -1480.57 
	L 1370.27 -1783.72 
	L 1432.29 -1783.72 
	L 1432.29 -1472.99 
	C 1432.29 -1432.06 1456.5 -1404.78 1492.8 -1404.78 
	C 1526.08 -1404.78 1550.28 -1432.06 1550.28 -1472.99 
	L 1550.28 -1783.72 
	L 1612.3 -1783.72 
	L 1612.3 -1480.57 
	C 1612.3 -1445.7 1607.76 -1427.51 1595.66 -1404.78 
	Z 
	"/>
</g>
<g fill="#7f7f7f" fill-rule="nonzero" stroke-width="0" stroke-linejoin="miter" stroke-linecap="butt" stroke-miterlimit="10" >
	<path d="
	M 2381.69 -1547.26 
	L 2381.69 -1351.72 
	L 2319.38 -1351.72 
	L 2319.38 -1547.26 
	L 2213 -1783.72 
	L 2278.35 -1783.72 
	L 2351.3 -1627.6 
	L 2422.72 -1783.72 
	L 2489.59 -1783.72 
	Z 
	"/>
</g>
</g >
</g>
</svg>
