<?xml version="1.0" standalone="no"?>
<svg width="4749px" height="4749px" viewBox="-20 -3937 4749 4749 " xmlns="http://www.w3.org/2000/svg" xmlns:xlink="http://www.w3.org/1999/xlink">
<title>generated by pstoedit</title>
<!-- generated by pstoedit version:4.02 -->
<g xml:space='preserve'>
<clipPath id="clippath1"> 	<path d="
	M 0 -3917.08 
	L 0 792 
	L 4709.08 792 
	L 4709.08 -3917.08 
	Z 
	" style="clip-rule:nonzero"/>
</clipPath>
<g style="clip-path:url(#clippath1)"> 
<g fill="#95e8ff" fill-rule="nonzero" stroke-width="0" stroke-linejoin="miter" stroke-linecap="butt" stroke-miterlimit="10" >
	<path d="
	M 2507.27 728.488 
	C 2422.92 812.84 2286.16 812.84 2201.81 728.488 
	L 63.5156 -1409.8 
	C -20.8398 -1494.16 -20.8398 -1630.92 63.5156 -1715.27 
	L 2201.81 -3853.57 
	C 2286.16 -3937.92 2422.92 -3937.92 2507.27 -3853.57 
	L 4645.57 -1715.27 
	C 4729.92 -1630.92 4729.92 -1494.16 4645.57 -1409.8 
	Z 
	"/>
</g>
<g stroke="#7f7f7f" fill="none" stroke-width="0.5" stroke-linejoin="miter" stroke-linecap="butt" stroke-miterlimit="4" >
	<path d="
	M 2507.27 728.488 
	C 2422.92 812.84 2286.16 812.84 2201.81 728.488 
	L 63.5156 -1409.8 
	C -20.8398 -1494.16 -20.8398 -1630.92 63.5156 -1715.27 
	L 2201.81 -3853.57 
	C 2286.16 -3937.92 2422.92 -3937.92 2507.27 -3853.57 
	L 4645.57 -1715.27 
	C 4729.92 -1630.92 4729.92 -1494.16 4645.57 -1409.8 
	Z 
	"/>
</g>
<g fill="#7f7f7f" fill-rule="nonzero" stroke-width="0" stroke-linejoin="miter" stroke-linecap="butt" stroke-miterlimit="4" >
	<path d="
	M 4543.74 -1511.63 
	L 2405.45 626.66 
	C 2377.38 654.738 2331.7 654.738 2303.63 626.66 
	L 165.34 -1511.63 
	C 137.266 -1539.7 137.266 -1585.38 165.34 -1613.45 
	L 2303.63 -3751.74 
	C 2331.7 -3779.81 2377.38 -3779.81 2405.45 -3751.74 
	L 4543.74 -1613.45 
	C 4571.82 -1585.38 4571.82 -1539.7 4543.74 -1511.63 
	Z 
	M 4607.38 -1677.09 
	L 2469.09 -3815.38 
	C 2405.93 -3878.55 2303.15 -3878.55 2239.99 -3815.38 
	L 101.699 -1677.09 
	C 38.5352 -1613.93 38.5352 -1511.15 101.699 -1447.99 
	L 2239.99 690.301 
	C 2303.15 753.469 2405.93 753.469 2469.09 690.301 
	L 4607.38 -1447.99 
	C 4670.55 -1511.15 4670.55 -1613.93 4607.38 -1677.09 
	Z 
	"/>
</g>
<g fill="#7f7f7f" fill-rule="evenodd" stroke-width="0" stroke-linejoin="miter" stroke-linecap="butt" stroke-miterlimit="4" >
	<path d="
	M 3492.35 -673.62 
	C 3488.49 -684.6 3485.26 -696.12 3480.64 -706.9 
	C 3476.02 -717.5 3473.05 -729.87 3464.82 -738.09 
	C 3459.45 -743.44 3454.2 -748.75 3448.82 -754.1 
	C 3445.34 -757.61 3436.48 -757.29 3431.87 -758.11 
	C 3422.63 -759.85 3406.94 -755.8 3399.48 -750.24 
	C 3393.85 -746.06 3389.61 -744.32 3383.03 -742.14 
	C 3379.86 -741.06 3370.63 -745.75 3369.3 -748.88 
	C 3366.9 -754.47 3363.54 -758.97 3365.06 -764.82 
	C 3366.51 -769.94 3370.75 -778.23 3369.68 -783.48 
	C 3368.54 -790.22 3367.27 -796.89 3366.14 -803.57 
	C 3365.06 -808.79 3357.53 -815.9 3354.56 -820.27 
	C 3347.22 -830.67 3337.22 -839.53 3328.62 -848.77 
	C 3314.89 -863.48 3302.81 -883.06 3294.2 -901.31 
	C 3283.83 -923.26 3271.62 -945.03 3263.27 -967.8 
	C 3252.71 -996.52 3242.21 -1025.21 3231.64 -1053.9 
	C 3223.73 -1075.28 3219.49 -1098.41 3213.67 -1120.42 
	C 3207.41 -1144.36 3201.08 -1167.39 3197.54 -1191.88 
	C 3195.96 -1203.17 3195.83 -1217.31 3185.33 -1224.3 
	C 3174.51 -1231.54 3159.77 -1235.09 3147.68 -1239.89 
	C 3125.73 -1248.69 3103.65 -1258.46 3084.23 -1271.94 
	C 3062.03 -1287.28 3050.01 -1307.68 3036.09 -1330.36 
	C 3024.58 -1349.37 3029.7 -1381 3029.7 -1402 
	C 3029.7 -1411.37 3032.48 -1421.46 3033.81 -1430.76 
	C 3036.35 -1447.97 3038.94 -1465.24 3041.41 -1482.44 
	C 3047.79 -1526.48 3050.14 -1571.62 3052.03 -1616.06 
	C 3053.93 -1663.16 3058.99 -1711.08 3050.51 -1757.67 
	C 3046.4 -1780.54 3037.8 -1801.13 3029.7 -1822.96 
	C 3026.98 -1830.3 3025.08 -1839.28 3020.59 -1845.76 
	C 3013.25 -1856.11 3005.92 -1866.42 2998.64 -1876.83 
	C 3011.61 -1873.09 3024.45 -1869.45 3037.42 -1865.72 
	C 3048.68 -1862.53 3059.88 -1854.49 3070.25 -1849.02 
	C 3081.32 -1843.2 3085.18 -1837.22 3092.84 -1826.94 
	C 3099.04 -1818.78 3107.64 -1810.59 3110.74 -1800.69 
	C 3118.27 -1776.49 3128.2 -1752.86 3129.85 -1727.56 
	C 3130.86 -1713.2 3131.75 -1698.87 3132.82 -1684.48 
	C 3133.45 -1674.99 3129.85 -1663.63 3128.46 -1654.24 
	C 3125.35 -1632.79 3120.48 -1610.77 3119.22 -1589.14 
	C 3117.89 -1566.49 3120.36 -1542.99 3120.86 -1520.31 
	C 3121.37 -1500.35 3123.02 -1480.45 3124.34 -1460.55 
	C 3125.61 -1442.18 3130.86 -1424.33 3134.72 -1406.43 
	L 3146.42 -1447.21 
	C 3149.52 -1433.7 3152.56 -1420.23 3155.66 -1406.68 
	C 3158.06 -1396.47 3161.67 -1391.41 3167.74 -1382.61 
	C 3176.85 -1369.39 3185.96 -1356.17 3195.07 -1342.95 
	C 3201.21 -1334 3203.8 -1321.82 3207.66 -1311.73 
	C 3211.52 -1301.2 3214.49 -1293.13 3215.63 -1282.12 
	C 3217.15 -1267.88 3218.67 -1253.62 3220.25 -1239.39 
	C 3221.64 -1226.36 3224.11 -1213.32 3226.01 -1200.35 
	C 3226.52 -1196.43 3226.26 -1190.45 3227.97 -1186.78 
	C 3229.74 -1182.89 3234.48 -1178.97 3237.21 -1175.68 
	C 3247.07 -1163.82 3256.94 -1151.92 3266.87 -1140.13 
	C 3260.55 -1156.29 3254.16 -1172.49 3247.83 -1188.59 
	C 3242.83 -1201.36 3243.09 -1216.01 3241.57 -1229.49 
	L 3266.87 -1200.35 
	C 3263.02 -1212.47 3259.28 -1224.61 3255.42 -1236.67 
	C 3252.32 -1246.57 3253.91 -1259.92 3253.21 -1270.32 
	C 3259.41 -1261.84 3268.27 -1253.81 3269.53 -1243.22 
	C 3271.24 -1229.61 3272.89 -1215.95 3274.66 -1202.34 
	L 3286.36 -1245.08 
	C 3290.22 -1218.83 3293.7 -1192.63 3296.8 -1166.19 
	C 3298.06 -1154.36 3295.34 -1147.69 3291.61 -1136.08 
	C 3287.25 -1122.54 3282.88 -1108.97 3278.52 -1095.43 
	L 3317.42 -1142.06 
	L 3305.78 -1099.29 
	L 3327.23 -1118.74 
	L 3332.99 -1081.83 
	L 3358.29 -1144.05 
	C 3356.33 -1124.22 3354.43 -1104.42 3352.47 -1084.65 
	C 3351.84 -1077.47 3346.84 -1069.31 3344.25 -1062.69 
	C 3340.57 -1052.89 3336.72 -1043.05 3332.99 -1033.24 
	L 3362.15 -1070.16 
	C 3360.06 -1057.7 3359.17 -1044.35 3355.44 -1032.33 
	C 3350.57 -1017.05 3345.7 -1001.77 3340.83 -986.56 
	C 3352.09 -1002.28 3363.41 -1018 3374.74 -1033.81 
	C 3378.41 -1038.94 3379.23 -1047.29 3381 -1053.2 
	C 3383.85 -1062.75 3386.5 -1072.28 3389.35 -1081.83 
	L 3391.25 -1048.78 
	L 3408.71 -1093.44 
	L 3408.71 -1056.53 
	C 3416.43 -1068.23 3424.02 -1079.9 3431.61 -1091.57 
	C 3437.12 -1100.11 3435.15 -1113.43 3435.85 -1123.3 
	C 3436.48 -1133.39 3440.09 -1147.31 3437.5 -1157.21 
	C 3433.64 -1172.23 3429.78 -1187.2 3425.92 -1202.22 
	C 3419.53 -1226.8 3406.81 -1249.13 3395.87 -1272.06 
	C 3386 -1293.07 3374.99 -1313.47 3364.3 -1334.06 
	C 3350.57 -1360.47 3342.35 -1387.61 3334.88 -1416.11 
	L 3364.05 -1402.51 
	C 3356.83 -1414.53 3349.69 -1426.52 3342.48 -1438.54 
	C 3337.22 -1447.21 3337.61 -1460.62 3336.09 -1470.42 
	C 3331.97 -1495.86 3330.14 -1519.93 3329 -1545.68 
	C 3326.4 -1599.99 3319.64 -1653.79 3313.69 -1707.85 
	C 3311.41 -1728.79 3305.91 -1747.74 3300.34 -1768.14 
	C 3296.92 -1780.41 3293.57 -1792.59 3290.22 -1804.8 
	C 3287.37 -1814.89 3277.76 -1826.06 3272.5 -1835.04 
	C 3265.42 -1846.9 3258.52 -1858.8 3251.44 -1870.66 
	C 3249.92 -1873.31 3245.55 -1875.62 3243.22 -1877.52 
	C 3236 -1883.37 3228.86 -1889.23 3221.64 -1895.01 
	C 3201.21 -1911.49 3177.36 -1923.13 3154.64 -1936.23 
	C 3146.68 -1940.79 3139.08 -1943.54 3130.35 -1946.67 
	C 3118.14 -1951.03 3104.67 -1958.12 3091.95 -1960.36 
	C 3080 -1962.48 3065.76 -1960.36 3053.55 -1960.36 
	C 3043.18 -1960.36 3030.84 -1962.23 3020.47 -1960.11 
	C 3008.76 -1957.58 2995.54 -1952.58 2983.58 -1952.58 
	C 2972.19 -1952.58 2958.15 -1950.27 2947.02 -1952.84 
	C 2932.34 -1956.25 2917.6 -1959.64 2902.86 -1963.05 
	C 2894.26 -1965.05 2884.57 -1967.23 2877.17 -1971.97 
	C 2866.36 -1978.71 2854.91 -1988.74 2843.14 -1993.42 
	C 2832.7 -1997.53 2822.33 -2001.71 2811.95 -2005.82 
	C 2789.81 -2014.55 2767.1 -2026.47 2743.88 -2031.69 
	C 2727.56 -2035.33 2711.23 -2039.06 2694.98 -2042.73 
	C 2686.5 -2044.66 2677.77 -2047.54 2669.04 -2047.98 
	C 2652.97 -2048.9 2636.9 -2049.79 2620.83 -2050.61 
	C 2610.33 -2051.21 2601.48 -2052.03 2591.23 -2049.85 
	C 2563.33 -2044 2537.39 -2035.33 2510.31 -2026.35 
	C 2496.46 -2021.73 2482.86 -2017.11 2468.18 -2016.13 
	C 2408.21 -2012.18 2348.42 -2008.26 2288.45 -2004.27 
	C 2234.49 -2000.73 2180.59 -1997.15 2126.62 -1993.61 
	C 2122.76 -1993.36 2119.22 -1994.37 2115.36 -1995.22 
	C 2099.8 -1998.42 2084.3 -2001.64 2068.74 -2004.84 
	C 2044.57 -2009.87 2019.71 -2011.77 1998.51 -2024.23 
	C 1991.68 -2028.21 1984.92 -2032.2 1978.21 -2036.18 
	C 1999.4 -2034.07 2019.58 -2029.26 2040.33 -2024.48 
	C 2029.32 -2035.52 2018.25 -2046.59 2007.25 -2057.63 
	C 1998.39 -2066.55 1981.94 -2068.23 1970.11 -2071.99 
	C 1957.27 -2076.04 1945.56 -2087.08 1934.43 -2094.48 
	C 1924.06 -2101.41 1912.98 -2107.52 1902.29 -2113.93 
	L 1952.9 -2110.08 
	C 1933.16 -2117.32 1913.36 -2124.53 1893.56 -2131.46 
	C 1885.28 -2134.34 1875.72 -2136.27 1868.19 -2141.14 
	C 1858.14 -2147.62 1848.14 -2154.11 1838.14 -2160.59 
	C 1858.77 -2156.42 1879.58 -2152.72 1900.39 -2148.92 
	C 1888.69 -2159.39 1877.18 -2169.83 1865.47 -2180.3 
	C 1855.86 -2188.97 1840.8 -2191.94 1828.91 -2196.62 
	C 1816.07 -2201.55 1804.11 -2211.65 1792.53 -2219.02 
	C 1781.9 -2225.63 1771.09 -2231.92 1760.46 -2238.34 
	L 1812.84 -2234.42 
	C 1805.25 -2238.28 1798.48 -2241.09 1792.53 -2247.07 
	C 1784.94 -2254.54 1777.54 -2261.97 1770.07 -2269.4 
	L 1814.86 -2261.65 
	C 1803.73 -2273.45 1792.53 -2285.22 1781.4 -2297.02 
	C 1774.57 -2304.29 1767.86 -2311.47 1761.09 -2318.65 
	C 1756.85 -2323.21 1753.12 -2328.43 1747.61 -2331.31 
	C 1715.98 -2347.94 1683.91 -2363.16 1651.58 -2378.31 
	C 1665.44 -2375.27 1679.29 -2372.27 1693.15 -2369.27 
	C 1703.2 -2367.08 1717.69 -2375.21 1727.31 -2378.31 
	C 1713.96 -2382.36 1700.48 -2386.47 1687.01 -2390.55 
	C 1675.81 -2393.97 1666.2 -2404 1656.83 -2410.86 
	C 1647.6 -2417.6 1637.79 -2423.58 1628.18 -2429.81 
	C 1619.44 -2435.56 1610.59 -2442.68 1601.1 -2447.2 
	C 1578.89 -2457.64 1556.81 -2469.41 1534.04 -2478.52 
	C 1519.3 -2484.43 1504.43 -2490.41 1489.63 -2496.3 
	C 1479.76 -2500.22 1471.03 -2504.33 1460.59 -2505.75 
	C 1454.2 -2506.58 1447.94 -2507.4 1441.48 -2508.32 
	C 1438.01 -2508.76 1436.11 -2513.06 1433.89 -2515.69 
	C 1426.87 -2524.61 1420.29 -2531.22 1411.44 -2538.62 
	C 1404.22 -2544.79 1398.59 -2549.72 1393.09 -2557.34 
	C 1386.51 -2566.36 1380.5 -2575.91 1373.42 -2584.52 
	C 1370 -2588.75 1360.19 -2605.71 1354.82 -2605.71 
	C 1351.08 -2605.71 1341.85 -2607.58 1338.62 -2605.71 
	C 1336.47 -2604.48 1331.34 -2594.61 1330.84 -2592.08 
	C 1330.02 -2588 1332.23 -2581.64 1332.74 -2577.53 
	C 1333.37 -2572.84 1333.37 -2567.31 1334.76 -2562.75 
	C 1337.99 -2552.47 1341.21 -2542.13 1344.44 -2531.88 
	C 1338.87 -2534.25 1333.37 -2536.69 1327.87 -2539.06 
	C 1323.5 -2540.99 1316.16 -2542.61 1312.81 -2545.99 
	C 1304.33 -2554.47 1296.17 -2563.39 1286.87 -2570.98 
	C 1281.49 -2575.41 1276.12 -2579.77 1270.74 -2584.2 
	C 1270.04 -2584.77 1264.41 -2581.23 1263.4 -2580.72 
	C 1262.01 -2580.03 1262.77 -2574.84 1262.77 -2573.35 
	C 1262.77 -2567.31 1261.31 -2559.08 1262.77 -2553.26 
	C 1264.41 -2546.78 1270.04 -2539.76 1273.14 -2533.94 
	C 1277.13 -2526.54 1311.92 -2478.96 1308.44 -2476.78 
	C 1287.69 -2463.5 1266.88 -2450.27 1246.57 -2436.07 
	C 1234.24 -2427.4 1221.78 -2418.8 1209.44 -2410.2 
	C 1201.4 -2404.5 1189.7 -2401.27 1183.25 -2393.65 
	C 1179.7 -2389.22 1175.59 -2386.12 1175.09 -2380.37 
	C 1174.64 -2376.76 1175.59 -2365.03 1173.12 -2362.43 
	C 1162.62 -2351.99 1152.18 -2341.59 1141.81 -2331.12 
	C 1125.36 -2314.73 1107.78 -2299.45 1090.69 -2283.8 
	C 1071.97 -2266.78 1055.14 -2248.24 1032.56 -2236.86 
	C 1020.85 -2231.1 1010.35 -2224.49 999.277 -2217.47 
	C 995.672 -2215.16 993.773 -2205.35 992.191 -2201.36 
	C 989.918 -2195.64 990.676 -2189.88 990.676 -2183.65 
	C 990.676 -2171.88 986.816 -2160.78 986.816 -2149.11 
	C 986.816 -2138.32 985.172 -2122.98 989.918 -2113.46 
	C 992.699 -2107.96 993.902 -2100.78 1000.16 -2099.73 
	C 1009.78 -2098.12 1008.9 -2096.41 1011.99 -2087.14 
	C 1012.63 -2084.96 1024.2 -2082.91 1026.23 -2082.21 
	C 1033.69 -2079.9 1041.03 -2077.59 1048.31 -2075.28 
	C 1059.25 -2071.8 1067.86 -2064.05 1079.12 -2061.21 
	C 1082.22 -2060.45 1091.45 -2057.63 1094.3 -2057.88 
	C 1103.91 -2058.64 1117.39 -2073.41 1122.96 -2078.92 
	C 1128.84 -2084.96 1134.72 -2100.9 1142.44 -2102.74 
	C 1157.75 -2106.47 1173 -2110.2 1188.31 -2113.93 
	C 1198.68 -2116.5 1209.18 -2119.19 1219.75 -2121.12 
	C 1225.38 -2122.13 1231.2 -2122.73 1236.45 -2124.72 
	C 1241.45 -2126.56 1246.57 -2129.78 1251.82 -2129.21 
	C 1267.64 -2127.6 1283.46 -2125.92 1299.08 -2124.31 
	C 1310.66 -2123.11 1321.92 -2126.37 1333.37 -2128.3 
	C 1345.07 -2130.22 1356.21 -2133.96 1367.53 -2137.15 
	C 1375.63 -2139.46 1376.26 -2143.64 1380.37 -2135.38 
	C 1382.15 -2131.71 1383.35 -2127.66 1384.61 -2123.74 
	C 1396.32 -2088.63 1408.08 -2053.65 1420.29 -2018.72 
	C 1424.15 -2007.27 1434.53 -1979.09 1438.51 -1967.74 
	C 1447.94 -1940.72 1457.43 -1913.74 1466.79 -1886.73 
	C 1475.14 -1862.91 1484.88 -1839.41 1493.87 -1815.84 
	C 1499.25 -1801.38 1504.81 -1786.96 1510.32 -1772.57 
	C 1513.79 -1763.52 1513.54 -1756.91 1513.54 -1746.95 
	C 1513.54 -1736.73 1514.05 -1727.3 1511.58 -1717.5 
	C 1507.85 -1702.47 1504.18 -1687.45 1500.32 -1672.42 
	C 1494.5 -1648.99 1496.21 -1623.17 1499.25 -1599.54 
	C 1500.19 -1592.81 1504.05 -1587.81 1507.34 -1581.83 
	C 1515.06 -1568.1 1522.78 -1554.34 1530.62 -1540.62 
	C 1545.62 -1513.92 1560.67 -1487.19 1575.67 -1460.49 
	C 1584.65 -1444.55 1558.71 -1418.1 1550.23 -1405.73 
	C 1539.23 -1389.48 1528.16 -1373.25 1517.15 -1356.93 
	C 1497.47 -1328.11 1477.8 -1299.33 1458.19 -1270.51 
	C 1448.07 -1255.55 1438.01 -1237.58 1425.16 -1224.81 
	C 1415.42 -1214.97 1405.43 -1205.54 1395.11 -1196.24 
	C 1386.26 -1188.02 1380.5 -1177.61 1373.67 -1167.55 
	C 1371.39 -1163.95 1371.26 -1156.29 1370.38 -1152.18 
	C 1368.92 -1145 1367.4 -1137.75 1365.89 -1130.54 
	C 1363.93 -1121.49 1362.03 -1112.51 1360.07 -1103.47 
	C 1349.69 -1055.07 1340.71 -1005.88 1324.77 -958.88 
	C 1315.15 -930.7 1305.66 -902.57 1295.98 -874.39 
	C 1292.31 -863.16 1292.57 -849.03 1290.86 -837.35 
	C 1289.21 -825.42 1289.97 -813.21 1289.97 -801.19 
	C 1289.97 -791.39 1291.36 -777.56 1287.95 -768.65 
	C 1283.2 -756.15 1278.84 -744.39 1272 -732.9 
	C 1266.12 -723.06 1264.79 -714.71 1262.51 -703.36 
	C 1259.16 -686.81 1255.94 -670.24 1252.58 -653.67 
	C 1250.56 -643.67 1250.05 -633.51 1249.29 -623.3 
	C 1249.17 -621.91 1263.65 -616.62 1265.55 -615.8 
	C 1269.41 -614.07 1278.39 -619 1282.25 -620.17 
	C 1303.95 -626.97 1327.36 -635.07 1345.2 -649.36 
	C 1351.97 -654.77 1358.68 -660.15 1365.51 -665.56 
	C 1368.67 -668.12 1373.67 -670.75 1375.88 -674.22 
	C 1379.87 -680.05 1383.73 -685.96 1387.71 -691.81 
	C 1390.12 -695.48 1395.11 -700.22 1394.86 -704.85 
	C 1393.85 -718.06 1392.71 -729.55 1389.36 -742.26 
	C 1387.46 -749.38 1385.5 -756.53 1383.73 -763.58 
	C 1382.52 -767.89 1374.36 -769.12 1373.54 -773.01 
	C 1372.4 -779.69 1371.14 -786.36 1370 -793.06 
	C 1369.05 -797.43 1375.38 -805.43 1377.28 -809.35 
	C 1379.61 -813.91 1384.86 -816.89 1387.21 -821.37 
	C 1390.24 -827.32 1391 -835.8 1392.84 -842.29 
	C 1398.97 -865.59 1400.81 -889.73 1400.81 -913.8 
	C 1400.81 -940 1405.93 -964.92 1410.3 -990.79 
	C 1411.94 -1000.76 1418.14 -1011.07 1422 -1020.4 
	C 1426.49 -1031.63 1430.16 -1043.94 1435.85 -1054.72 
	C 1448.19 -1078.22 1460.59 -1100.65 1475.02 -1122.92 
	C 1487.22 -1141.74 1508.93 -1156.17 1526.39 -1169.86 
	C 1545.87 -1185.14 1565.17 -1201.81 1585.41 -1215.95 
	C 1604.83 -1229.36 1626.15 -1240.53 1646.65 -1252.04 
	C 1659.62 -1259.22 1675.43 -1265.39 1687.01 -1274.56 
	C 1700.74 -1285.6 1714.59 -1296.58 1728.45 -1307.55 
	C 1742.75 -1318.91 1757.1 -1330.3 1771.34 -1341.72 
	C 1776.72 -1345.95 1782.41 -1349.81 1787.92 -1353.8 
	C 1795.38 -1359.24 1794.24 -1364.11 1795.38 -1373.37 
	C 1801.14 -1371.45 1806.76 -1369.58 1812.59 -1367.66 
	C 1813.85 -1367.21 1814.74 -1361.11 1815.12 -1359.94 
	C 1819.61 -1344.59 1824.23 -1329.31 1828.78 -1313.97 
	C 1835.17 -1292.28 1842.76 -1270.95 1846.11 -1248.56 
	C 1849.91 -1223.51 1853.9 -1198.49 1857.63 -1173.37 
	C 1859.97 -1157.27 1862.37 -1141.08 1864.71 -1124.97 
	C 1866.23 -1115.2 1866.87 -1104.6 1869.97 -1095.31 
	C 1874.08 -1082.91 1873.95 -1068.48 1875.47 -1055.51 
	C 1876.8 -1045.17 1877.94 -1034.83 1879.08 -1024.42 
	C 1881.67 -1001.14 1882.05 -972.23 1895.4 -952.2 
	C 1903.11 -940.66 1908.87 -933.79 1919.5 -924.91 
	C 1927.6 -918.17 1935.7 -911.43 1943.79 -904.75 
	C 1966 -886.28 1988.2 -867.78 2010.28 -849.31 
	C 2029.45 -833.43 2045.39 -811.85 2062.29 -793.7 
	C 2078.35 -776.49 2094.42 -759.47 2111.12 -742.83 
	C 2143.7 -710.22 2191.85 -684.69 2236.7 -673.62 
	C 2249.92 -670.37 2264.41 -669.92 2277.88 -668.12 
	C 2289.84 -666.51 2300.91 -665.87 2313.06 -665.87 
	C 2342.73 -665.87 2317.29 -711.08 2311.67 -724.23 
	C 2307.68 -733.53 2304.71 -745.02 2297.94 -752.67 
	C 2288.07 -763.78 2278.01 -774.88 2268.14 -785.98 
	C 2265.04 -789.4 2259.79 -791.89 2256.06 -794.45 
	C 2251.82 -797.43 2246.45 -803 2241.19 -804.17 
	C 2237.46 -804.99 2227.72 -809.17 2224.24 -807.3 
	C 2217.66 -803.72 2211.02 -800.12 2204.44 -796.51 
	C 2199.95 -794.08 2196.09 -789.84 2192.23 -786.58 
	C 2190.84 -785.35 2177.74 -785.41 2176.22 -786.58 
	C 2173.63 -788.29 2163.25 -793.57 2162.87 -796.32 
	C 2161.54 -803.72 2160.28 -811.03 2159.14 -818.4 
	C 2155.28 -841.4 2132.06 -856.8 2113.78 -868.76 
	C 2090.56 -883.91 2068.48 -899.38 2046.28 -915.99 
	C 2028.19 -929.62 2008 -943.03 1997.19 -963.18 
	C 1985.8 -984.88 1975.74 -1008 1976.31 -1033.31 
	C 1976.82 -1061.62 1977.2 -1089.99 1977.7 -1118.36 
	C 1978.59 -1162.84 1986.94 -1206.84 1990.17 -1251.25 
	C 1991.31 -1269.25 1992.57 -1287.15 1993.9 -1305.12 
	C 1994.28 -1311.29 1992.82 -1328.11 1997.57 -1330.61 
	C 1999.91 -1331.81 2006.36 -1330.61 2008.89 -1330.61 
	C 2017.87 -1330.61 2026.86 -1330.61 2035.84 -1330.61 
	C 2046.66 -1330.61 2059.12 -1328.94 2069.88 -1330.68 
	C 2093.41 -1334.47 2119.1 -1335.67 2141.81 -1342.35 
	C 2167.87 -1350 2193.81 -1357.63 2219.75 -1365.22 
	C 2269.79 -1379.93 2319.76 -1394.6 2369.81 -1409.37 
	C 2388.85 -1415.04 2407.57 -1420.67 2426.36 -1427.31 
	C 2450.59 -1435.88 2476.53 -1442.84 2500.06 -1453.5 
	C 2528.28 -1466.34 2556.43 -1479.09 2584.65 -1491.93 
	C 2585.15 -1464.1 2585.79 -1436.29 2586.42 -1408.43 
	C 2586.86 -1384.48 2595.02 -1360.06 2599.96 -1336.72 
	C 2609.32 -1292.28 2630.26 -1252.17 2647.72 -1210.41 
	C 2658.22 -1185.14 2669.42 -1160.28 2677.64 -1134.09 
	C 2678.78 -1130.22 2682.26 -1124.12 2681.69 -1120.04 
	C 2680.93 -1112.26 2680.05 -1104.48 2679.29 -1096.73 
	C 2678.15 -1085.94 2676.57 -1076.11 2669.8 -1067.12 
	C 2638.99 -1026.03 2607.61 -985.51 2573.64 -947.08 
	C 2540.49 -909.56 2500.57 -877.61 2462.93 -844.47 
	C 2453.82 -836.4 2446.61 -827.45 2438.89 -817.96 
	C 2432.5 -810.05 2434.27 -791.96 2433.13 -782 
	C 2431.87 -770.51 2434.27 -761.78 2429.15 -751.31 
	C 2423.14 -739.26 2416.81 -727.3 2410.55 -715.44 
	C 2398.34 -692.64 2394.1 -668.56 2388.22 -643.54 
	C 2385.75 -633.58 2380.5 -621.24 2380.5 -610.9 
	C 2380.5 -602.83 2378.41 -600.4 2386.13 -598.09 
	C 2391.63 -596.41 2397.45 -593.25 2402.96 -594.74 
	C 2426.62 -601.03 2448.7 -609.13 2468.94 -623.17 
	C 2482.29 -632.41 2495.7 -641.68 2509.05 -650.91 
	C 2511.32 -652.53 2516.32 -654.52 2516.7 -657.46 
	C 2517.52 -663.76 2518.16 -670.05 2519.55 -676.22 
	C 2520.82 -682.04 2523.03 -687.19 2521.32 -692.89 
	C 2519.93 -698.42 2519.29 -706.96 2515.82 -711.52 
	C 2510.44 -718.7 2494.62 -734.64 2499.12 -743.63 
	C 2502.22 -749.79 2508.67 -748.43 2515.19 -749.26 
	C 2520.56 -749.92 2526.64 -755.68 2531.13 -758.52 
	C 2538.4 -763.14 2544.35 -777.44 2548.97 -785.16 
	C 2563.45 -808.85 2579.52 -830.17 2596.48 -852.12 
	C 2612.1 -872.4 2631.78 -890.4 2649.37 -909.12 
	C 2661.95 -922.66 2677.52 -933.99 2691.5 -946.04 
	C 2717.94 -968.72 2744.39 -991.36 2770.83 -1014.04 
	C 2786.27 -1027.2 2801.51 -1040.36 2816.82 -1053.52 
	C 2826.06 -1061.62 2834.41 -1066.49 2835.42 -1079.84 
	C 2835.67 -1084.77 2831.69 -1091.98 2833.9 -1096.41 
	C 2836.56 -1101.79 2833.33 -1108.72 2832.2 -1114.44 
	C 2828.21 -1133.07 2822.71 -1148.79 2815.62 -1166.57 
	C 2812.59 -1174.61 2809.36 -1182.54 2806.26 -1190.58 
	C 2803.47 -1197.5 2803.73 -1207.34 2802.65 -1214.71 
	C 2800 -1232.3 2798.41 -1248.06 2798.41 -1265.83 
	C 2798.41 -1276.24 2798.41 -1286.65 2798.41 -1297.08 
	C 2798.41 -1304.61 2802.4 -1313.53 2804.23 -1320.9 
	C 2822.45 -1306.86 2840.17 -1292.28 2859.46 -1279.81 
	C 2879.58 -1266.78 2900.52 -1254.98 2918.49 -1238.94 
	C 2958.4 -1203.36 2998.13 -1167.55 3038.18 -1132.03 
	C 3046.15 -1124.91 3054.25 -1117.73 3062.15 -1110.52 
	C 3071.71 -1101.92 3083.98 -1093.63 3092.08 -1083.63 
	C 3109.03 -1062.38 3123.96 -1041.19 3138.71 -1018.41 
	C 3152.43 -997.41 3162.87 -973.65 3174.51 -951.51 
	C 3186.6 -928.7 3197.66 -905.33 3209.18 -882.24 
	C 3230.75 -839.03 3248.47 -793.57 3265.17 -748.25 
	C 3268.39 -739.58 3276.87 -729.8 3284.46 -724.74 
	C 3288.95 -721.8 3294.97 -715.69 3300.22 -714.33 
	C 3307.55 -712.53 3314.89 -710.7 3322.17 -708.89 
	C 3347.85 -702.47 3358.92 -680.11 3371.89 -660.02 
	C 3374.99 -655.09 3380.75 -642.81 3385.87 -640.38 
	C 3392.58 -637.19 3399.1 -633.96 3405.8 -630.76 
	C 3429.78 -619.25 3453.69 -607.71 3477.67 -596.22 
	C 3480.01 -595.05 3489.25 -588.69 3491.27 -591.06 
	C 3492.98 -593.19 3500.13 -599.23 3500.13 -601.92 
	C 3500.13 -607.45 3500.13 -612.96 3500.13 -618.49 
	C 3500.13 -637.12 3495.51 -655.34 3492.35 -673.62 
	"/>
</g>
</g >
</g>
</svg>
