<?xml version="1.0" standalone="no"?>
<svg width="2375px" height="2375px" viewBox="-10 -1573 2375 2375 " xmlns="http://www.w3.org/2000/svg" xmlns:xlink="http://www.w3.org/1999/xlink">
<title>generated by pstoedit</title>
<!-- generated by pstoedit version:4.02 -->
<g xml:space='preserve'>
<clipPath id="clippath1"> 	<path d="
	M 0 -1562.79 
	L 0 792 
	L 2354.79 792 
	L 2354.79 -1562.79 
	Z 
	" style="clip-rule:nonzero"/>
</clipPath>
<g style="clip-path:url(#clippath1)"> 
<g fill="#95e8ff" fill-rule="nonzero" stroke-width="0" stroke-linejoin="miter" stroke-linecap="butt" stroke-miterlimit="10" >
	<path d="
	M 1253.76 760.121 
	C 1211.59 802.289 1143.2 802.289 1101.03 760.121 
	L 31.8828 -309.03 
	C -10.293 -351.2 -10.293 -419.59 31.8828 -461.76 
	L 1101.03 -1530.91 
	C 1143.2 -1573.09 1211.59 -1573.09 1253.76 -1530.91 
	L 2322.91 -461.76 
	C 2365.09 -419.59 2365.09 -351.2 2322.91 -309.03 
	Z 
	"/>
</g>
<g stroke="#7f7f7f" fill="none" stroke-width="0.5" stroke-linejoin="miter" stroke-linecap="butt" stroke-miterlimit="4" >
	<path d="
	M 1253.76 760.121 
	C 1211.59 802.289 1143.2 802.289 1101.03 760.121 
	L 31.8828 -309.03 
	C -10.293 -351.2 -10.293 -419.59 31.8828 -461.76 
	L 1101.03 -1530.91 
	C 1143.2 -1573.09 1211.59 -1573.09 1253.76 -1530.91 
	L 2322.91 -461.76 
	C 2365.09 -419.59 2365.09 -351.2 2322.91 -309.03 
	Z 
	"/>
</g>
<g fill="#7f7f7f" fill-rule="nonzero" stroke-width="0" stroke-linejoin="miter" stroke-linecap="butt" stroke-miterlimit="4" >
	<path d="
	M 2272 -359.94 
	L 1202.85 709.211 
	C 1188.82 723.238 1165.98 723.238 1151.94 709.211 
	L 82.793 -359.94 
	C 68.7578 -373.98 68.7578 -396.81 82.793 -410.85 
	L 1151.94 -1480 
	C 1165.98 -1494.03 1188.82 -1494.03 1202.85 -1480 
	L 2272 -410.85 
	C 2286.03 -396.81 2286.03 -373.98 2272 -359.94 
	Z 
	M 2303.82 -442.67 
	L 1234.67 -1511.82 
	C 1203.09 -1543.4 1151.7 -1543.4 1120.12 -1511.82 
	L 50.9727 -442.67 
	C 19.3945 -411.09 19.3945 -359.7 50.9727 -328.12 
	L 1120.12 741.031 
	C 1151.7 772.609 1203.09 772.609 1234.67 741.031 
	L 2303.82 -328.12 
	C 2335.4 -359.7 2335.4 -411.09 2303.82 -442.67 
	Z 
	"/>
</g>
<g fill="#7f7f7f" fill-rule="evenodd" stroke-width="0" stroke-linejoin="miter" stroke-linecap="butt" stroke-miterlimit="4" >
	<path d="
	M 1658.88 77.922 
	C 1656.49 72.77 1654.28 67.641 1651.38 62.73 
	C 1648.68 58.289 1650.06 51.18 1650.06 46.18 
	C 1650.06 35.129 1649.5 23.301 1648.23 12.371 
	C 1647.55 5.60199 1646.79 -1.172 1646.02 -7.90997 
	C 1645.65 -11.391 1648.49 -22.191 1646.54 -23.148 
	C 1641.8 -25.512 1644.89 -51.5 1645.41 -56.75 
	C 1646.15 -64.02 1646.97 -66.441 1643.39 -72.371 
	C 1640.42 -77.398 1638.59 -81.531 1638.15 -87.219 
	C 1637.27 -98.73 1634.57 -112.43 1636.13 -123.891 
	C 1636.9 -129.602 1637.45 -134.969 1639.22 -140.41 
	C 1640.48 -144.191 1645.02 -153.82 1643.88 -157.828 
	C 1643.08 -160.711 1633.93 -167.078 1631.15 -168.66 
	C 1626.18 -171.488 1621.2 -174.25 1616.28 -177.27 
	C 1609.1 -181.641 1598.13 -185.84 1593.66 -193.57 
	C 1586.86 -205.52 1580.04 -217.45 1573.18 -229.43 
	C 1568.19 -238.13 1563.27 -246.85 1558.12 -255.42 
	C 1552.25 -265.23 1555.03 -277.81 1555.46 -288.99 
	C 1555.65 -293.68 1560.51 -297.75 1563.21 -301.44 
	C 1566.3 -305.51 1568.64 -310.35 1571.28 -314.73 
	C 1575.94 -322.53 1585.66 -328.61 1590.19 -335.6 
	C 1596.99 -346.13 1600.6 -351.68 1600.6 -364.35 
	C 1600.6 -376.56 1602.1 -386.24 1605.01 -398.04 
	C 1605.01 -397.45 1605.01 -396.86 1605.01 -396.3 
	C 1607.58 -406.49 1611.99 -418.97 1613.82 -428.1 
	C 1616.4 -440.4 1616.34 -451.89 1615.78 -464.68 
	C 1615.33 -475.86 1608.9 -485.89 1603.42 -495.3 
	C 1597.24 -505.82 1589.62 -512.31 1581.75 -521.32 
	C 1566.11 -539.14 1552 -558.08 1536.61 -576 
	C 1520.93 -594.29 1493.33 -599.45 1470.57 -602.71 
	C 1458.53 -604.45 1446.56 -607.71 1434.39 -609.51 
	C 1424.25 -611.03 1415.29 -609.38 1405.16 -608.2 
	C 1392.3 -606.71 1379.76 -605.47 1366.77 -604.97 
	C 1356.75 -604.6 1343.95 -603.67 1334.89 -608.17 
	C 1324.36 -613.45 1312.64 -620.87 1301.23 -624.13 
	C 1296.3 -625.53 1290.51 -624.35 1285.65 -626.09 
	C 1279.16 -628.48 1272.67 -630.56 1266 -632.52 
	C 1243.11 -639.22 1219.98 -645.34 1196.74 -650.5 
	C 1184.38 -653.23 1171.71 -660.9 1160.05 -665.77 
	C 1149.83 -670.06 1142.72 -677.14 1134.46 -684.37 
	C 1125.95 -691.86 1110.32 -691.82 1099.67 -693.38 
	C 1088.89 -694.99 1078.12 -696.89 1067.47 -698.41 
	C 1055.87 -700.05 1045.4 -705.7 1033.62 -706.7 
	C 1022.47 -707.63 1011 -702.91 999.711 -701.89 
	C 996 -701.54 987.492 -701.08 984.152 -702.73 
	C 979.109 -705.21 976.328 -714.46 973.938 -718.9 
	C 969.203 -727.94 962.715 -737.72 956.348 -745.67 
	C 947.902 -756.23 934.984 -768.46 940.465 -783.09 
	C 945.137 -795.54 966.813 -796.32 974 -807.12 
	C 977.586 -812.43 977.789 -821.37 978.656 -827.43 
	C 979.047 -829.91 982.012 -833.48 981.438 -835.6 
	C 980.613 -838.36 979.992 -845.69 977.977 -847.55 
	C 970.273 -854.72 942.543 -840.29 940.027 -847.55 
	C 949.359 -846.9 960.262 -858.48 969.59 -860.38 
	C 978.719 -862.18 992.398 -857.89 999.711 -852.55 
	C 1004.45 -849.13 1006.08 -847.27 1009.04 -842.27 
	C 1011.25 -838.52 1016.85 -832.37 1016.85 -827.83 
	C 1016.85 -814.51 1015.66 -802.68 1013.7 -789.55 
	C 1012.26 -779.95 1007.66 -769.52 1008.16 -760.05 
	C 1008.86 -748.71 1009.6 -737.22 1011.82 -726.07 
	C 1012.32 -723.75 1013.26 -712.44 1015.41 -712.44 
	C 1020.89 -712.44 1027.7 -713.62 1032.98 -712.38 
	C 1039.86 -710.8 1046.72 -709.21 1053.6 -707.63 
	C 1060.09 -706.14 1060.73 -703 1065.45 -708.9 
	C 1065.45 -708.63 1065.45 -708.31 1065.45 -708 
	C 1074.39 -728.93 1082.53 -751.32 1089.26 -773.06 
	C 1092.42 -783.43 1097.34 -792.77 1098.16 -803.8 
	C 1098.98 -815.23 1100.61 -827.93 1098.1 -839.16 
	C 1095.13 -852.49 1090.34 -860.84 1082.65 -872.2 
	C 1076.67 -880.96 1067.28 -887.76 1061.66 -896.49 
	C 1058.65 -901.18 1056.12 -906.77 1051.71 -910.24 
	C 1046.86 -914.06 1042.07 -917.73 1037.72 -922.07 
	C 1029.02 -930.8 1020.27 -939.43 1010.49 -947.01 
	C 1004.38 -951.76 988.301 -960.02 980.117 -957.79 
	C 968.707 -954.68 957.293 -951.17 945.512 -949.68 
	C 940.09 -949.03 934.922 -946.79 929.566 -946.32 
	C 921.242 -945.64 918.914 -944.34 912.113 -939.4 
	C 901.961 -932.04 893.699 -920.02 885.191 -910.86 
	C 882.039 -907.51 878.266 -904.28 875.551 -900.55 
	C 872.785 -896.7 871.141 -888.16 865.023 -888.16 
	C 852.23 -888.16 848.457 -903.79 843.039 -913.5 
	C 831.688 -933.94 808.246 -944.9 789.023 -956.17 
	C 789.023 -955.89 789.023 -955.61 789.023 -955.3 
	C 764.883 -971.7 745.227 -951.51 728.27 -936.02 
	C 719.578 -928.07 715.727 -917.17 710.246 -907.05 
	C 704.129 -895.71 703.43 -885.19 703.816 -872.73 
	C 703.941 -867.05 703.305 -860.9 705.137 -855.5 
	C 707.156 -849.45 703.816 -841.37 702.621 -835.22 
	C 701.488 -829.45 699.207 -826 696.055 -820.88 
	C 692.84 -815.69 691.148 -809.61 688.945 -803.92 
	C 684.598 -792.68 678.668 -782.25 673.246 -771.44 
	C 668.898 -762.75 662.66 -751.54 655.406 -745.02 
	C 648.855 -739.09 648.918 -737.69 640.535 -740.11 
	C 633.797 -742 630.645 -746.26 625.66 -751.26 
	C 617.602 -759.33 608.645 -765.98 600.195 -773.59 
	C 597.496 -775.98 588.988 -782 585.898 -776.91 
	C 584.004 -773.8 588.043 -764.83 589.797 -761.66 
	C 593.645 -754.89 597.434 -748.18 601.27 -741.45 
	C 603.926 -736.79 609.031 -734.18 613.254 -730.98 
	C 623.145 -723.62 633.281 -716.88 643.313 -709.77 
	C 654.523 -701.82 661.09 -695.64 675.203 -695.64 
	C 687.625 -695.64 694.859 -696.02 704.949 -704.15 
	C 710.371 -708.59 715.789 -713 721.27 -717.38 
	C 724.996 -720.39 726.129 -726.57 727.883 -730.98 
	C 731.98 -741.14 741.188 -747.78 745.102 -757.69 
	C 749.324 -768.24 753.859 -778.89 755.426 -790.16 
	C 766.34 -785.51 775.098 -779.73 784.289 -772.4 
	C 794.379 -764.33 781.074 -752.47 775.656 -745.02 
	C 770.563 -738.12 759.977 -729.99 759.836 -720.39 
	C 759.773 -710.43 770.113 -700.49 774.91 -692.14 
	C 774.91 -692.73 774.91 -693.29 774.91 -693.91 
	C 777.426 -689.84 781.34 -685.4 782.285 -680.64 
	C 784.102 -671.7 781.711 -672.42 777.551 -664.75 
	C 771.121 -652.98 773.965 -642.08 773.453 -629.26 
	C 772.953 -617.58 773.141 -605.88 773.141 -594.2 
	C 773.141 -583.45 772.566 -570.1 774.91 -559.64 
	C 777.055 -549.79 785.746 -537.78 791.664 -529.64 
	C 798.789 -519.89 809.566 -514.89 816.055 -504.55 
	C 818.523 -500.64 818.137 -494.27 819.906 -489.89 
	C 822.543 -483.53 826.707 -477.47 829.98 -471.42 
	C 832.063 -467.63 837.418 -465.89 837.746 -461.42 
	C 838.242 -453.59 838.754 -445.71 839.313 -437.82 
	C 840.137 -425.49 842.711 -417.48 853.055 -410.09 
	C 858.797 -405.96 858.859 -404.04 861.004 -397.61 
	C 862.941 -391.71 866.547 -386.24 870.258 -381.28 
	C 876.684 -372.74 882.039 -361.12 889.863 -353.89 
	C 899.055 -345.32 908.262 -338.24 918.727 -331.28 
	C 929.316 -324.23 936.18 -320.14 941.801 -308.33 
	C 945.961 -299.58 950.93 -290.67 953.77 -281.51 
	C 957.48 -269.49 960.074 -256.17 965.43 -244.77 
	C 969.652 -235.64 978.859 -221.73 977.977 -211.27 
	C 976.02 -187.789 974.574 -162.52 981.375 -139.789 
	C 987.926 -117.93 998.145 -97.648 1003.75 -75.262 
	C 1006.46 -64.359 1008.34 -54.211 1009.8 -43.031 
	C 1011.12 -32.84 1014.03 -19.77 1012.32 -9.55103 
	C 1010.49 1.44098 1004.32 12.148 1000.1 22.309 
	C 995.813 32.578 989.371 42.359 986.855 53.328 
	C 984.527 63.57 980.863 66.551 971.098 70.09 
	C 961.906 73.352 958.18 75.621 955.027 85.031 
	C 963.164 84.871 970.785 85.898 978.922 85.031 
	C 976.516 88.539 974.188 92.078 971.797 95.621 
	C 977.914 98.629 982.137 101.391 989.059 101.828 
	C 996.188 102.301 1003.23 102.762 1010.36 103.16 
	C 1017.12 103.602 1023.85 103.57 1030.59 103.57 
	C 1036.07 103.57 1043.39 99.191 1048.68 97.391 
	C 1046.93 93.379 1045.47 92.141 1047.48 88.449 
	C 1050.64 82.789 1053.85 77.109 1057 71.43 
	C 1059.52 66.828 1059.52 67.328 1064.87 67.078 
	C 1066.52 67.02 1078.43 67.422 1078.82 66.09 
	C 1081.52 55.75 1083.23 48.82 1081.58 38.23 
	C 1080.26 29.57 1074.2 20.66 1070.74 12.621 
	C 1066.83 3.69897 1064.95 -3.15997 1063.49 -12.719 
	C 1062.23 -21.48 1059.39 -30.051 1059.02 -38.809 
	C 1058.2 -58.68 1058.26 -77.059 1060.15 -96.898 
	C 1060.15 -96.621 1060.15 -96.34 1060.15 -96.031 
	C 1060.91 -105.531 1062.23 -114.852 1063.68 -124.289 
	C 1063.68 -124.012 1063.68 -123.672 1063.68 -123.391 
	C 1066.95 -126.219 1067.47 -131.371 1069.92 -135 
	C 1073.01 -139.629 1077.81 -144.941 1077.81 -150.75 
	C 1077.81 -155.34 1080.01 -161.309 1080.38 -166.211 
	C 1080.83 -171.121 1080.32 -176.52 1081.7 -181.211 
	C 1088.13 -203.07 1092.29 -227.85 1105.15 -247.04 
	C 1112.15 -257.44 1114.73 -267.22 1115.55 -279.83 
	C 1116.25 -290.42 1134.83 -289.55 1139.88 -281.94 
	C 1146.76 -271.66 1156.07 -267.31 1165.78 -260.17 
	C 1175.23 -253.22 1185.2 -247.63 1197.05 -250.58 
	C 1196.74 -250.58 1196.41 -250.58 1196.16 -250.58 
	C 1207.39 -251.6 1211.53 -250.36 1221.75 -245.3 
	C 1221.19 -245.58 1220.55 -245.86 1219.98 -246.17 
	C 1231.14 -243.31 1243.5 -244.09 1254.71 -245.7 
	C 1265.87 -247.29 1275.39 -255.42 1285.34 -246.17 
	C 1294.67 -237.44 1298.57 -228.81 1310.93 -223.63 
	C 1316.98 -221.11 1321.46 -217.54 1326.69 -213.6 
	C 1331.47 -209.99 1337.09 -209.12 1341.87 -205.52 
	C 1360.08 -191.859 1380.89 -178.852 1401.55 -169.25 
	C 1413.03 -163.91 1423.55 -160.219 1435.52 -156.551 
	C 1450.27 -152.078 1455.01 -147.801 1464.78 -135.781 
	C 1471.2 -127.859 1478.13 -119.98 1484.94 -112.371 
	C 1491.37 -105.102 1487.83 -98.801 1486.08 -89.512 
	C 1481.28 -63.398 1478.45 -36.039 1470.07 -10.828 
	C 1466.34 0.289001 1463.7 9.289 1463.7 21.441 
	C 1463.77 27.461 1464.9 33.672 1465.46 39.66 
	C 1465.97 45.352 1463.19 52.711 1462.12 58.32 
	C 1460.16 69.262 1448.95 75.961 1441.15 82.949 
	C 1438.12 85.59 1432.44 91.051 1431.05 94.719 
	C 1430.17 96.98 1431.05 101.211 1431.05 103.691 
	C 1431.05 106.422 1429.03 108.379 1427.53 110.621 
	C 1428.09 110.93 1428.66 111.211 1429.28 111.488 
	C 1427.9 110.68 1428.15 112.109 1427.53 110.621 
	C 1419.45 116.801 1404.21 124.621 1399.68 133.602 
	C 1392.61 147.691 1413.15 145.922 1421.6 145.922 
	C 1435.03 145.922 1448.32 145.77 1461.75 145.211 
	C 1468.18 144.961 1465.78 138.531 1466.03 132.73 
	C 1466.22 128.012 1465.78 120.371 1468.49 116.27 
	C 1472.09 110.859 1474.48 109.719 1480.85 109.719 
	C 1488.98 109.719 1493.58 109.16 1501.14 106.391 
	C 1504.79 105.09 1501.71 74.262 1501.71 70.121 
	C 1501.71 58.699 1506.68 49.512 1508.2 38.422 
	C 1509.83 26.441 1511.66 14.512 1513.56 2.55902 
	C 1514.88 -5.89099 1516.26 -14.309 1517.58 -22.719 
	C 1517.02 -22.16 1516.38 -21.539 1515.82 -20.949 
	C 1522.44 -40.82 1524.77 -61.91 1530.51 -82.059 
	C 1533.46 -92.52 1535.93 -103.461 1539.64 -113.699 
	C 1543.31 -123.551 1549.73 -132.711 1554.7 -141.961 
	C 1570.79 -122.609 1586.1 -101.129 1592.65 -76.602 
	C 1592.65 -76.871 1592.65 -77.219 1592.65 -77.5 
	C 1594.48 -71.16 1596.37 -64.828 1598.19 -58.488 
	C 1599.52 -54.051 1597.94 -48.648 1598.13 -43.898 
	C 1598.64 -32.281 1597.57 -20.98 1598 -9.461 
	C 1598.39 1.28101 1596.93 14.539 1601.67 24.57 
	C 1607.09 36 1611.19 46.121 1611.19 59.07 
	C 1611.19 72.422 1608.78 83.352 1605.13 96.18 
	C 1601.98 107.051 1591.2 113.039 1587.17 123.809 
	C 1585.4 128.559 1588.3 133.07 1584.71 138 
	C 1581.17 142.852 1575.01 147.539 1570.91 152.102 
	C 1567.19 156.262 1563.78 160.52 1560.32 164.93 
	C 1559.44 166.078 1563.27 170.672 1564.1 171.91 
	C 1564.85 173.148 1568.64 172.352 1569.9 172.32 
	C 1585.72 171.91 1601.53 171.48 1617.35 170.922 
	C 1625.98 170.609 1626.49 169.031 1625.36 160.52 
	C 1624.66 155.609 1623.03 146.789 1625.86 142.512 
	C 1628.88 138 1633.11 127.48 1637.72 124.781 
	C 1640.11 123.32 1645.02 123.531 1647.86 123.07 
	C 1649.44 122.82 1650.76 117.391 1651.32 115.859 
	C 1652.65 111.922 1667.08 78.109 1658.88 77.922 
	"/>
</g>
<g fill="#7f7f7f" fill-rule="evenodd" stroke-width="0" stroke-linejoin="miter" stroke-linecap="butt" stroke-miterlimit="4" >
	<path d="
	M 976.266 -806.93 
	C 974.246 -806.25 972.293 -805.04 970.91 -803.39 
	C 972.742 -804.57 974.496 -805.75 976.266 -806.93 
	"/>
</g>
<g fill="#7f7f7f" fill-rule="evenodd" stroke-width="0" stroke-linejoin="miter" stroke-linecap="butt" stroke-miterlimit="4" >
	<path d="
	M 1064.56 -699.18 
	C 1068.17 -698.75 1071.69 -697.76 1075.15 -699.18 
	C 1071.63 -699.18 1068.1 -699.18 1064.56 -699.18 
	"/>
</g>
</g >
</g>
</svg>
