<?xml version="1.0" encoding="UTF-8" standalone="no"?>
<!-- Created with Inkscape (http://www.inkscape.org/) -->

<svg
   version="1.1"
   id="svg1"
   width="3139.72"
   height="3139.72"
   viewBox="0 0 3139.72 3139.72"
   sodipodi:docname="tmpad0ehhor.pdf"
   xmlns:inkscape="http://www.inkscape.org/namespaces/inkscape"
   xmlns:sodipodi="http://sodipodi.sourceforge.net/DTD/sodipodi-0.dtd"
   xmlns="http://www.w3.org/2000/svg"
   xmlns:svg="http://www.w3.org/2000/svg">
  <defs
     id="defs1" />
  <sodipodi:namedview
     id="namedview1"
     pagecolor="#ffffff"
     bordercolor="#000000"
     borderopacity="0.25"
     inkscape:showpageshadow="2"
     inkscape:pageopacity="0.0"
     inkscape:pagecheckerboard="0"
     inkscape:deskcolor="#d1d1d1">
    <inkscape:page
       x="0"
       y="0"
       inkscape:label="1"
       id="page1"
       width="3139.72"
       height="3139.72"
       margin="0"
       bleed="0" />
  </sodipodi:namedview>
  <g
     id="g1"
     inkscape:groupmode="layer"
     inkscape:label="1">
    <g
       id="group-R5">
      <path
         id="path2"
         d="m 12537.6,318.801 c -421.7,-421.699 -1105.6,-421.699 -1527.3,0 L 318.828,11010.3 c -421.766,421.7 -421.766,1105.6 -0.004,1527.3 L 11010.3,23229.1 c 421.7,421.7 1105.6,421.7 1527.3,0 L 23229.1,12537.6 c 421.8,-421.7 421.8,-1105.6 0,-1527.3 L 12537.6,318.801"
         style="fill:#fccc2d;fill-opacity:1;fill-rule:nonzero;stroke:#231f20;stroke-width:5;stroke-linecap:butt;stroke-linejoin:miter;stroke-miterlimit:4;stroke-dasharray:none;stroke-opacity:1"
         transform="matrix(0.13333333,0,0,-0.13333333,0,3139.72)" />
      <path
         id="path3"
         d="M 22720,11519.4 12028.5,827.902 c -140.3,-140.3 -368.7,-140.3 -509.1,0 L 827.945,11519.4 c -140.367,140.4 -140.367,368.7 -0.007,509.1 L 11519.4,22720 c 140.4,140.3 368.8,140.3 509.1,0 L 22720,12028.5 c 140.3,-140.4 140.3,-368.7 0,-509.1 z m 318.2,827.3 -10691.5,10691.5 c -315.8,315.8 -829.7,315.8 -1145.5,0 L 509.742,12346.7 C 193.926,12030.9 193.926,11517 509.746,11201.2 L 11201.2,509.699 c 315.8,-315.797 829.7,-315.797 1145.5,0 L 23038.2,11201.2 c 315.8,315.8 315.8,829.7 0,1145.5"
         style="fill:#231f20;fill-opacity:1;fill-rule:nonzero;stroke:none"
         transform="matrix(0.13333333,0,0,-0.13333333,0,3139.72)" />
      <path
         id="path4"
         d="m 8999.74,14453.1 c 25.71,-89.3 157.09,-88.1 228.26,-74.6 122.27,23.2 243.3,34.2 366.2,48.9 110.68,13.2 202.24,68.1 303.19,110.7 100.96,42.3 188.71,85.3 260.21,170.9 66.5,79.6 134.5,174.6 227.6,225.4 101.9,55.5 202.6,92.5 291.6,169.6 87.2,75.6 175.6,156.8 256.2,238.9 78.4,79.4 115.7,170.6 162.4,269.4 46.7,99 107.2,174.6 110.4,287.5 0.9,29.8 -9.8,237.6 -46.4,237 -26.7,-0.3 -60.2,-234.8 -69.3,-267.4 -31.1,-108.8 -71.5,-211.3 -126.4,-310.4 -54.5,-97.8 -133.6,-186.6 -201.3,-275.6 -49.5,-65.5 -148.6,-159 -235.1,-168.7 -119.5,-13.5 134.5,482.5 79.9,496.3 -42.3,10.7 -138.6,-183.4 -154.2,-215.7 -48.9,-101.6 -80.9,-209.4 -127,-312.3 -43.9,-98.4 -116.3,-195.6 -201.3,-262.1 -78.7,-61.7 -193.13,-54.8 -199.09,61.5 -2.83,55.5 12.85,106.9 4.07,162.7 -9.41,56.4 -27.59,111.6 -46.71,165.2 -19.76,54.9 -47.97,142.1 -53.93,32.6 -12.22,-212.5 9.09,-449 -145.16,-623.3 -116.33,-131.7 -166.17,-45.4 -183.1,88.8 -5.65,41.4 -70.56,271.8 -100.34,155.5 -34.48,-136.1 56.44,-230.8 -78.07,-332.4 -57.68,-44.2 -102.53,-55.1 -174.32,-49.8 -37,2.5 -137.02,25.7 -148.31,-28.6 m -1140.93,93.2 c 26.02,88.1 -76.2,129.1 -144.85,126.3 -111,-5.3 -214.46,4.1 -324.83,16.6 -98.45,11.3 -181.53,41.7 -229.81,134.2 -29.16,56.2 -64.28,261.5 -154.26,263.4 -58,1.3 8.15,-169.6 21.31,-206.9 27.6,-76.8 107.23,-201.6 55.82,-282.2 -53.3,-83.4 -191.88,-64 -268.07,-32 -45.15,19.1 -83.09,44.8 -116.01,80.6 -24.77,27.3 -42.95,97.8 -76.82,112.5 -79.63,34.8 -42.33,-87.1 -25.7,-122.6 38.24,-80.2 72.11,-193.1 -49.86,-220.4 -99.07,-22.5 -192.51,60.9 -274.34,101.3 -41.7,20.4 -215.08,41.4 -149.55,-52.3 65.53,-93.8 153.62,-126.7 259.92,-154 114.43,-28.8 188.11,-65.5 304.74,-18.5 114.45,46.1 226.69,94.1 343.01,133.9 110.99,37.9 227.63,41.1 340.82,65.8 86.21,18.8 171.49,52.4 260.22,55.5 57.69,2.2 185.93,-46.4 228.26,-1.2 m 2493.79,212.2 c 238.3,15.1 469.7,48.6 708.9,32.9 230.2,-15 442.7,-99.7 647.5,-200 224.8,-110.4 444.9,-230.1 672.8,-334.5 222,-101.6 457.2,-152.7 691.3,-218.9 221.7,-62.4 419.2,-93.4 649.4,-62.4 236.7,31.7 486.3,50.8 716.7,113.2 227.3,62.1 423.9,149.6 666,128.6 230.7,-19.8 448,-61.5 641.4,-196 379.1,-263.4 713.6,-677.5 883.2,-1105.2 81,-203.8 175.3,-444 94.4,-655.6 -85.2,-222.6 -21.6,-467.5 24.5,-690.7 46.4,-225.4 89.6,-454.3 108.8,-683.5 17.9,-219.2 -28.2,-492.5 74.6,-692.9 98.5,-191.9 310.4,-336.7 341.1,-564 15.7,-117.9 -17.2,-234.6 -8.4,-352.5 8.1,-109.7 38.5,-215.4 57.6,-323.5 43.3,-244.3 83.4,-491.3 149.9,-730.6 32.3,-116.6 72.8,-227.3 126.1,-336.1 44.5,-91.5 115.3,-193.4 99.7,-299.7 -13.8,-90.9 -104.8,-147.7 -120.1,-244.9 -16.6,-107.5 4.7,-210.7 26.3,-315.1 42,-204.1 -192.8,-381.9 -383.1,-355.5 -69,10 -232.7,-16 -280.9,39.8 -58.7,68.7 -5.4,220.1 11.2,296.6 46.1,212.6 212.3,375.9 232.1,596.4 20.6,228.8 -101.3,453 -165.3,668.1 -70.5,238 -136.7,477.2 -209.1,714.5 -33.9,111.9 -69.6,210.4 -138.6,306.3 -68.6,95 -137.3,180.6 -177.1,292.6 -38.6,109.1 -33.9,232.6 -79.7,339.2 -47.3,109.1 -113.2,188.4 -196.9,271.2 -163.9,161.5 -291.9,345.5 -408.5,544 -42.9,73.1 -253.9,543.7 -379,372.8 -45.8,-63 -25.8,-223.9 -25.8,-297.2 0,-116.4 1.9,-233.9 18.2,-350.3 34.8,-242 76.8,-461.2 217.6,-665 58.3,-84.9 158.3,-170.8 161.2,-279.3 2.5,-98.5 -57.4,-198.2 -90.6,-288.5 -86.9,-236.4 -145.8,-474 -187.2,-722.3 -18.8,-114.5 -33.9,-229.9 -50.5,-344.6 -16.6,-115.4 -47.3,-232.7 -47.6,-349.6 -0.7,-127.3 7.2,-229.2 -66.2,-338.6 -60.2,-89.1 -171.2,-142.1 -173.7,-259.3 -2.2,-123.2 14.4,-201 -58.3,-311 -45.5,-68.1 -173.7,-141.8 -253,-160.2 -81.2,-18.6 -239.3,-55.5 -296.3,16.9 -20.4,25.7 -17.9,74.6 -58.3,74 -29.8,-0.6 -42.4,-41.4 -80.9,-33.3 -90,18.2 -58.7,125.4 -16.7,171.5 83.1,90.6 167.5,176.6 244.3,272.8 126.3,158.7 301.9,352.7 322,562.5 24.1,250.8 36,503.2 51.7,755 13.5,220.7 29.8,451.8 -25.1,668.4 -57.3,227 -159.9,440.9 -282.2,640 -115.3,186.8 -275.5,367.7 -339.8,579.7 -15.7,53 -28.5,106.6 -40.1,160.5 -3.5,15.7 -1.6,67.1 -12.3,75.6 -12.8,9.4 -90.9,-12.6 -106.9,-14.8 -112.5,-15.3 -225.4,-31.3 -339.2,-38.5 -254.6,-17 -495.7,4.7 -748.8,30.4 -235.7,23.5 -455.2,-27.6 -677.5,-99.7 -109.4,-35.8 -226.7,-83.1 -343,-88.5 -116,-5.3 -231.1,12.3 -346.5,5.7 -95.9,-5.3 -170.2,-60.8 -177.1,-158.6 -7.8,-116.4 5.7,-214.5 -40.1,-326.1 -89.7,-217.3 -193.2,-386.3 -153,-630.5 37.3,-224.5 136.4,-443.7 206.3,-659.1 77.4,-237.6 142.3,-478.1 211.9,-717.3 34.5,-118.6 67.7,-237.4 109.7,-353.1 27,-74.6 119.8,-173.4 114.2,-250.8 -3.2,-43.9 -38.6,-91.9 -53.6,-132.3 -20.7,-54.9 -22,-117.9 -20.4,-175.6 2.5,-79 56.4,-262.4 2.5,-326.4 -54.3,-65.2 -193.1,-81.8 -272.8,-80.2 -121.6,1.2 -147.3,-19.2 -199.4,-134.2 -101.9,-225.2 -291.6,-229.2 -510.7,-239.6 -70.6,-3.1 -181.2,-54.2 -210.7,33.2 -39.8,119.2 -63.7,22.3 -144.6,45.2 -147.3,40.8 153.4,443 212.6,483.1 87.2,59 226.7,76.6 287.8,165.9 55.8,81.5 51.2,204.7 53.7,299.4 6.9,249.3 -18.9,491 -56.2,736.5 -70.8,471 -138.2,951.9 -251.7,1414.4 -56.8,230.7 -122.6,458 -157.4,693.2 -17.6,119.1 59.9,218.2 50.8,327.9 -8.2,101.9 -66.8,223.3 -142.4,293.2 -71.8,66.5 -152.7,131 -206,215.7 -22.2,35.8 -70.8,216.7 -134.2,198.2 -64.5,-19.5 4.8,-201.3 24.8,-236.1 54.6,-96.9 147.4,-165 214.5,-252.4 47.3,-62.1 162.1,-169.6 158,-251.8 -5,-92.8 -91.6,-94.1 -150.8,-54.5 -92.2,61.4 -155.2,157.3 -242.7,222.6 -79.3,59.2 -196.6,36 -262.7,106.2 -156.8,167.5 3.7,418 -156.8,578.5 -71.48,71.8 -24.14,-189.7 -21.63,-212.9 7.83,-74.3 49.85,-224.8 -16.62,-281.8 -89.36,-76.2 -197.21,58.9 -238.6,124.4 -63.02,99.7 -64.9,208.5 -86.53,320.8 -21.01,108.1 -68.35,228.9 -105.97,333 -34.8,96.8 -157.09,179.3 -235.78,240.4 -191.57,149 -254.9,414.2 -346.46,631.8 -36.99,89.4 -85.59,142.3 19.13,185 101.89,41.1 184.04,121.6 221.66,228.5 10.36,29.8 23.52,182.5 -26.02,166.8 -18.18,-5.6 -46.09,-118.5 -58.95,-142 -25.39,-44.5 -59.25,-86.8 -98.44,-120.1 -81.2,-69.6 -190.94,-99.7 -275.28,-166.8 -92.8,-73.6 -104.09,-137.6 -75.25,-250.5 20.38,-80.9 42.65,-177.4 -10.65,-250.8 -58.95,-80.9 -180.29,-87.8 -262.74,-139.2 -88.11,-54.9 -171.82,-144.2 -284.7,-114.1 -111.61,29.4 -181.53,108.4 -306.94,97.2 -110.68,-9.8 -119.14,-20.7 -159.91,91.8 -19.12,52.4 -34.79,85.3 -86.53,111 -43.9,21.6 -89.67,27 -117.57,71.8 -56.75,91.2 22.57,217.9 31.35,314.2 10.03,109.4 -7.84,220.4 3.13,329.8 11.29,109.7 53.3,217.9 105.04,315.4 55.8,105.7 116.32,169.3 118.51,294.4 2.51,109.1 51.42,212.3 78.39,316.7 30.41,116.6 7.21,236.7 22.88,355.2 6.28,48.3 104.41,212 82.46,243.6 -34.17,49.3 -244.87,-39.5 -291.89,-47 -54.25,-8.8 -109.12,4.1 -163.36,4.7 -63.33,0.3 -115.38,-21.3 -176.2,-32.6 -122.9,-22.6 -233.9,-61.8 -349.59,-108.2 -100.95,-40.4 -203.17,-84 -313.22,-59.2 -96.88,21.6 -216.96,52.3 -300.05,107.2 -87.79,58.3 -179.33,102.8 -267.44,158 -46.41,29.5 -84.97,67.1 -134.19,92.2 -43.59,22.6 -96.57,35.8 -122.28,82.2 -46.4,83.7 9.41,182.7 95,211 99.7,32.6 170.25,-45.8 250.83,-86.9 45.77,-23.5 95.62,-38.6 142.03,-59.9 47.02,-21.3 106.28,-63.3 157.07,-68.6 34.8,-4.1 28.85,-17.3 33.87,4.7 6.27,27.2 -59.26,121.6 -76.82,144.2 -133.56,171.2 -276.85,344.9 -394.74,529.2 -72.42,113.2 -88.41,223.6 -111.61,354 -9.09,48.3 -11.29,98.8 -22.89,146.4 -10.35,42 -38.57,77.8 -48.6,118.9 -11.29,48.2 0.63,93.7 -17.24,142.6 -20.38,54.6 -53.62,101.9 -65.84,159.6 -11.61,53.9 -24.14,202.8 61.45,204.7 31.04,0.7 68.35,-36.3 93.43,-49.8 28.85,-15.4 56.12,-5.7 85.91,-12.6 88.73,-19.7 124.16,-112.8 122.28,-195.9 -0.94,-38.9 -26.34,-85.6 -10.04,-123.6 15.37,-36 63.65,-58.9 88.1,-89.6 47.04,-59.3 138.59,-189.7 114.45,-33.6 -16.31,107 -34.81,204.1 -84.35,302 -26.65,52.6 -57.68,105.6 -78.69,160.8 -11.91,31.7 -41.39,110.7 -40.77,141.1 0.95,51.1 82.78,152.4 136.08,138.9 66.78,-16.9 119.15,-204.7 145.48,-261.2 17.87,-37.9 97.82,-149.5 125.1,-55.5 24.14,83.4 -17.56,238.6 -42.33,320.8 -29.15,96.5 -213.82,467.5 45.16,422.6 211.63,-36.4 155.5,-356.2 328.88,-440.8 62.71,-30.4 10.35,124.5 11.92,153.3 2.51,46.1 -10.97,188.4 45.77,208.8 86.85,31.4 135.45,-46.7 135.77,-122.9 0.31,-36 19.44,-193.4 79.01,-100.3 37.93,58.9 -45.16,158.9 -27.91,233.9 26.65,116.9 70.55,58.9 137.32,16.3 63.66,-40.8 105.67,21 167.12,-1.6 79.32,-28.8 72.74,-155.2 111.93,-215.1 35.44,43.9 -10.66,170.6 62.08,193.2 79.32,24.4 116.94,-138.6 131.37,-184.1 33.55,-105.3 69.6,-196.6 51.73,-308.5 -16.61,-104.1 -35.43,-210.4 -53.92,-314.2 -18.81,-105 -95.95,-183.4 -125.73,-284.3 -30.41,-103.2 -40.45,-206.6 -47.03,-313.2 -5.01,-83.1 -35.43,-217.3 5.95,-292.6 45.47,-84 26.03,-181.2 54.25,-269.6 9.72,-31.1 95.94,-198.2 147.98,-140.8 20.07,22 -15.36,66.8 -21,85.6 -13.8,47.4 -15.36,103.2 -17.25,152.1 -4.38,111.3 -20.06,218.5 9.73,327 9.72,33.5 27.28,66.5 28.21,100.9 1.25,46.8 -33.23,86.6 -12.54,135.2 30.41,71.1 165.55,72.1 227.62,47.3 104.72,-41.7 139.84,-139.2 202.86,-222.9 64.59,-85.9 99.08,-175 139.84,-273.7 17.56,-43.3 21.94,-90 41.38,-132.3 12.23,-27 67.1,-112.3 97.82,-119.5 35.44,-8.5 43.9,19.5 72.11,38.3 26.03,17.2 52.99,13.5 80.9,17.8 87.79,13.2 146.42,61.2 239.85,62.4 47.97,1 86.54,-3.1 133.25,-14.7 41.39,-10.3 34.49,21.9 42.02,51.7 18.18,75.3 27.9,163.7 50.47,235.8 10.35,34.2 40.45,52.7 56.44,85 17.56,36 13.49,75.5 43.58,106.6 58.64,61.1 58,171.5 112.25,242.6 80.25,105.7 337.98,420.5 457.75,183.5 42.33,-83.7 -43.59,-175 -19.12,-265.9 11.91,-44.2 45.15,-78.4 60.82,-120.7 19.75,-53.3 23.83,-111.6 31.99,-167.7 14.72,-101.3 41.38,-204.5 -8.47,-299.8 -22.58,-43.6 -49.23,-71.5 -42.64,-122.6 3.13,-24.1 30.72,-103.8 66.15,-100.3 25.09,2.5 57.69,76.8 69.3,96.2 31.34,53.7 18.49,108.8 21.31,167.8 4.7,108.1 16.31,206.6 -7.21,314.1 -15.67,72.2 -52.67,213.6 49.86,248.7 114.75,39.5 84.96,-103.8 89.03,-159.3 4.08,-62.4 27.9,-208.8 109.12,-215.7 120.1,-10 138.6,170.5 143.9,249.2 3.8,51.8 -23.8,94.1 -33.5,143 -10.4,51.1 -3.2,103.8 -16,154.6 -27,107.5 -85,210.1 -99.42,319.2 -16.63,125.7 7.2,231 46.4,349.9 12.82,39.8 13.82,74.6 15.72,116 2.5,45.7 26.6,79.6 37.6,122.9 11.9,45.1 6.6,93.7 16.6,139.5 9.1,42 44.5,80.3 63.3,118.8 21.4,44.2 22.6,98.8 76.5,84.4 35.5,-9.4 84.7,-86.6 106.6,-117 47.7,-65.5 70.6,109.7 81.2,123.6 57.4,72.1 176.2,42.3 258.1,63.9 90,24.2 183.7,47.7 219.8,-69.3 28.8,-92.8 -75,-59.5 -79,-125.1 -2.6,-39.2 55.8,-107.8 66.4,-43.6 7.2,46.7 83.7,167.8 143,139.2 197.8,-95.3 -8.8,-438 -19.4,-577.8 -7.9,-100.6 82.4,-94.7 126.3,-24.4 19.8,32.6 17.6,54.5 53.9,73.9 28.9,15.7 61.5,3.8 80.3,35.8 13.2,23.8 -4.1,67.4 0,94.4 5.6,42 27.3,95.9 59.2,124.4 65.3,58.4 101,-4.7 123.9,-70.2 78.1,-223.9 -16,-474.4 -52,-701.4 -36.1,-227 -107.6,-457.4 -228,-653.7 -92.5,-151.4 -237.3,-268.7 -361.5,-392.5 -58.9,-58.7 -153.9,-75 -225.4,-115.7 -81.2,-46.1 -141.7,-114.5 -207.3,-179.7 m -987.27,858.2 c -175.9,100.6 -223.87,-300.7 -221.04,-397.6 0.94,-28.2 15.36,-190 63.33,-180 54.87,11.3 14.73,169.7 24.46,205.1 61.76,221.7 184.67,-136.7 238.59,-109.4 42.33,21.3 -8.15,188.4 -21.63,221.9 -28.85,71.2 -25.08,211.4 -83.71,260 M 7627.1,15345.8 c -66.46,-89.7 -20.69,-269.4 -8.15,-376.9 9.4,-83.7 29.16,-71.5 84.03,-110.4 40.44,-28.5 60.52,-112.8 111.61,-117.2 13.49,-1 40.77,-27.3 48.92,-24.5 15.99,5.4 22.57,68.1 21.94,82.5 -4.7,102.5 -112.87,213.5 -150.49,304.4 -34.17,83.7 -68.35,159.9 -107.86,242.1 m 1030.89,-1352.6 c -65.21,45.8 -117.25,46.4 -184.98,7.8 -50.16,-28.5 -91.23,-75.2 -52.04,-135.1 71.8,-108.8 229.82,37.6 237.02,127.3 M 11461.9,8093.5 c 21.7,67.7 -32,62.7 -42.9,0 -18.2,-100.7 20,-233.9 28.8,-335.8 11.3,-123.6 63.3,-240.5 110.7,-349.6 5.3,-11.9 48,-120.4 58.9,-72.8 19.2,83.1 -30.4,221.4 -48.3,303.2 -29.4,134.5 -129.1,314.5 -107.2,455 m -3229.99,4317 c -57.69,29.8 -92.8,5 -103.16,-54.3 -4.07,-21.6 -16.61,-41.3 5.97,-55.4 22.57,-14.2 26.64,17.2 45.46,14.1 30.41,-4.8 74.61,-59.9 103.78,-17.3 20.69,30.1 -32.29,91.6 -52.05,112.9 m -211.01,2265.3 c 112.25,-38.6 96.26,192.1 44.52,230.7 -40.44,30.1 -41.07,5.3 -41.7,-44.2 -0.62,-46.1 -35.43,-153 -2.82,-186.5"
         style="fill:#231f20;fill-opacity:1;fill-rule:evenodd;stroke:none"
         transform="matrix(0.13333333,0,0,-0.13333333,0,3139.72)" />
    </g>
  </g>
</svg>
