<?xml version="1.0" standalone="no"?>
<svg width="2968px" height="2968px" viewBox="-12 -2164 2968 2968 " xmlns="http://www.w3.org/2000/svg" xmlns:xlink="http://www.w3.org/1999/xlink">
<title>generated by pstoedit</title>
<!-- generated by pstoedit version:4.02 -->
<g xml:space='preserve'>
<clipPath id="clippath1"> 	<path d="
	M 0 -2151.36 
	L 0 792 
	L 2943.36 792 
	L 2943.36 -2151.36 
	Z 
	" style="clip-rule:nonzero"/>
</clipPath>
<g style="clip-path:url(#clippath1)"> 
<g fill="#95e8ff" fill-rule="nonzero" stroke-width="0" stroke-linejoin="miter" stroke-linecap="butt" stroke-miterlimit="10" >
	<path d="
	M 1567.14 752.211 
	C 1514.42 804.93 1428.94 804.93 1376.22 752.211 
	L 39.7891 -584.22 
	C -12.9297 -636.94 -12.9297 -722.42 39.7891 -775.14 
	L 1376.22 -2111.57 
	C 1428.94 -2164.29 1514.42 -2164.29 1567.14 -2111.57 
	L 2903.57 -775.14 
	C 2956.29 -722.42 2956.29 -636.94 2903.57 -584.22 
	Z 
	"/>
</g>
<g stroke="#7f7f7f" fill="none" stroke-width="0.5" stroke-linejoin="miter" stroke-linecap="butt" stroke-miterlimit="4" >
	<path d="
	M 1567.14 752.211 
	C 1514.42 804.93 1428.94 804.93 1376.22 752.211 
	L 39.7891 -584.22 
	C -12.9297 -636.94 -12.9297 -722.42 39.7891 -775.14 
	L 1376.22 -2111.57 
	C 1428.94 -2164.29 1514.42 -2164.29 1567.14 -2111.57 
	L 2903.57 -775.14 
	C 2956.29 -722.42 2956.29 -636.94 2903.57 -584.22 
	Z 
	"/>
</g>
<g fill="#7f7f7f" fill-rule="nonzero" stroke-width="0" stroke-linejoin="miter" stroke-linecap="butt" stroke-miterlimit="4" >
	<path d="
	M 2839.93 -647.86 
	L 1503.5 688.57 
	C 1485.96 706.121 1457.41 706.121 1439.86 688.57 
	L 103.43 -647.86 
	C 85.8828 -665.4 85.8867 -693.95 103.43 -711.5 
	L 1439.86 -2047.93 
	C 1457.41 -2065.48 1485.96 -2065.48 1503.5 -2047.93 
	L 2839.93 -711.5 
	C 2857.48 -693.95 2857.48 -665.4 2839.93 -647.86 
	Z 
	M 2878.12 -749.68 
	L 1541.68 -2086.11 
	C 1503.08 -2124.71 1440.28 -2124.71 1401.68 -2086.11 
	L 65.2461 -749.68 
	C 26.6484 -711.08 26.6445 -648.28 65.2461 -609.67 
	L 1401.68 726.762 
	C 1440.28 765.359 1503.08 765.359 1541.68 726.762 
	L 2878.12 -609.67 
	C 2916.72 -648.28 2916.72 -711.08 2878.12 -749.68 
	Z 
	"/>
</g>
<g fill="#7f7f7f" fill-rule="evenodd" stroke-width="0" stroke-linejoin="miter" stroke-linecap="butt" stroke-miterlimit="4" >
	<path d="
	M 2235.94 -552.82 
	C 2234.57 -560.81 2233.15 -568.77 2231.69 -576.71 
	C 2230.51 -583.21 2227.55 -591.36 2227.88 -597.96 
	C 2228.97 -616.28 2230.03 -634.62 2231.08 -652.91 
	C 2232.74 -681.82 2234.32 -710.65 2240.16 -739.02 
	C 2243.28 -754.11 2248.14 -769.65 2248.95 -785.11 
	C 2249.76 -801.19 2252.15 -817.73 2249.84 -833.71 
	C 2248.46 -843.92 2246.96 -854.07 2245.51 -864.29 
	C 2244.66 -870.24 2241.78 -876.04 2239.83 -881.67 
	C 2234.08 -898.24 2228.04 -913.34 2220.26 -929 
	C 2217.46 -934.67 2215.08 -940.14 2211.1 -945.04 
	C 2204.46 -953.19 2197.77 -961.37 2191.13 -969.5 
	C 2182.01 -980.68 2168.27 -989.66 2157.17 -998.84 
	C 2134.12 -1017.86 2105.75 -1028.84 2077.46 -1037.86 
	C 2064.62 -1041.97 2051.74 -1046.08 2038.89 -1050.19 
	C 2030.99 -1052.69 2022.93 -1053.32 2014.62 -1054.35 
	L 2016.93 -1054.35 
	C 1986.34 -1059.03 1955.66 -1062.19 1924.66 -1059.82 
	C 1891.36 -1057.26 1858.61 -1051.05 1825.71 -1045.7 
	C 1806.71 -1042.62 1787.99 -1035.38 1769.55 -1030.16 
	C 1747.83 -1024 1726.19 -1017.82 1704.51 -1011.66 
	L 1707.96 -1011.66 
	C 1689.93 -1010.38 1672.18 -1011.11 1654.06 -1011.66 
	C 1650.86 -1011.78 1646.69 -1014.42 1643.73 -1015.53 
	C 1639.03 -1017.29 1634.33 -1019.05 1629.67 -1020.86 
	C 1622.09 -1023.76 1617.8 -1034.19 1610.02 -1037.03 
	C 1612.9 -1025.44 1617.15 -1014.7 1623.84 -1004.75 
	C 1616.66 -1006.19 1609.74 -1009.11 1604.22 -1013.95 
	C 1597.82 -1019.54 1595.19 -1025.01 1591.58 -1032.43 
	C 1586.55 -1025.8 1582.63 -1018.77 1575.05 -1014.94 
	C 1567.47 -1011.15 1560.5 -1011.19 1552.36 -1012.82 
	C 1557.3 -1016.14 1560.91 -1018.32 1562.69 -1024.36 
	C 1564.51 -1030.48 1563.95 -1035.18 1560.42 -1040.49 
	C 1560.91 -1031.64 1554.75 -1021.32 1546 -1018.41 
	C 1544.78 -1017.98 1541.26 -1016.3 1540.57 -1018.1 
	C 1539.43 -1021.28 1538.29 -1024.44 1537.12 -1027.61 
	C 1535.5 -1032.14 1539.67 -1036.46 1541.98 -1040.49 
	C 1534.33 -1035.71 1528.73 -1030.74 1522.33 -1024.36 
	C 1520.27 -1022.26 1516.58 -1016.62 1513.7 -1016.18 
	C 1508.84 -1015.45 1504.05 -1014.7 1499.32 -1013.95 
	C 1499.32 -1016.1 1498.3 -1019.34 1500.45 -1020.21 
	C 1503.08 -1021.24 1504.75 -1021.53 1506.29 -1023.84 
	C 1509.57 -1028.76 1512.12 -1033.82 1514.75 -1039.13 
	C 1519.05 -1047.6 1527.92 -1054.92 1533.92 -1062.39 
	C 1528.17 -1061.26 1521.08 -1060.99 1515.85 -1058.58 
	C 1507.87 -1054.96 1499.96 -1051.37 1491.98 -1047.76 
	C 1487.04 -1045.49 1479.66 -1046.24 1474.31 -1046.24 
	C 1465.84 -1046.24 1461.06 -1046.77 1453.16 -1049.69 
	L 1454.3 -1050.84 
	L 1454.3 -1049.69 
	C 1455.55 -1053.8 1456.6 -1057.67 1458.43 -1061.54 
	C 1460.33 -1065.69 1464.67 -1071.57 1464.75 -1076.21 
	C 1459.56 -1071.08 1455.88 -1066.42 1449.15 -1063.83 
	C 1440.92 -1060.67 1432.62 -1057.51 1424.39 -1054.35 
	C 1426.34 -1061.66 1429.74 -1068.77 1427.84 -1076.21 
	C 1426.09 -1071.65 1425.69 -1067.78 1421.51 -1065.31 
	C 1416.08 -1062.15 1412.19 -1058.95 1405.95 -1058.95 
	C 1408.18 -1066.71 1409.8 -1073.88 1414.02 -1080.83 
	C 1409.88 -1077.87 1404.9 -1075.16 1401.33 -1071.61 
	C 1397.32 -1067.7 1394.28 -1062.23 1390.92 -1057.79 
	C 1390.92 -1060.38 1389.99 -1064.94 1391.08 -1067.25 
	C 1392.78 -1071.04 1394.61 -1074.81 1396.31 -1078.6 
	C 1399.71 -1085.83 1406.04 -1094.61 1405.95 -1102.73 
	C 1394.77 -1089.99 1381.68 -1068.17 1363.29 -1068.17 
	C 1370.26 -1074.36 1374.79 -1079.27 1379.82 -1087.11 
	C 1383.59 -1093.03 1387.68 -1101.47 1387.44 -1108.5 
	C 1380.06 -1101.09 1372.89 -1093.53 1365.8 -1085.87 
	C 1359.72 -1079.31 1351.33 -1074.85 1343.71 -1070.45 
	C 1345.82 -1072.6 1350.12 -1075.36 1350.85 -1078.36 
	C 1351.49 -1081.15 1351.66 -1088.3 1355.22 -1088.93 
	C 1351.01 -1087.62 1352.02 -1098.76 1351.74 -1101.6 
	C 1348.78 -1095.66 1346.59 -1089.46 1341.81 -1084.78 
	C 1337.03 -1080 1332.25 -1075.24 1327.51 -1070.45 
	C 1327.83 -1073.25 1327.26 -1079.43 1329.21 -1081.4 
	C 1332.08 -1084.27 1334.31 -1087.98 1336.79 -1091.22 
	L 1321.75 -1083.16 
	C 1326.17 -1093.82 1329.9 -1104.05 1332.17 -1115.41 
	C 1329.45 -1112.78 1326.82 -1110.15 1324.18 -1107.51 
	C 1322.08 -1105.36 1321.14 -1101.8 1319.44 -1099.29 
	C 1314.98 -1092.74 1310.04 -1088.93 1302.18 -1088.93 
	C 1306.92 -1093.69 1310.12 -1098.13 1313.69 -1103.88 
	L 1313.69 -1101.6 
	C 1315.71 -1107.11 1317.38 -1111.95 1318.27 -1117.74 
	C 1314.74 -1115.74 1309.88 -1114.1 1307.08 -1111.04 
	C 1303.15 -1106.72 1299.47 -1102.16 1295.25 -1098.13 
	C 1294.77 -1102.24 1296.83 -1108.2 1297.24 -1112.44 
	C 1297.72 -1116.89 1297.56 -1121.33 1297.56 -1125.81 
	C 1296.47 -1122.85 1293.79 -1120.58 1292.38 -1117.74 
	C 1290.47 -1114.06 1288.28 -1110.75 1286.05 -1107.31 
	C 1281.92 -1101.21 1276.25 -1096.41 1271.06 -1091.22 
	C 1276.33 -1103.11 1281.43 -1121.25 1269.84 -1131.56 
	C 1267.62 -1128.36 1268.1 -1123.25 1267.78 -1119.53 
	C 1267.37 -1115.66 1264.5 -1112.11 1262.59 -1108.75 
	C 1259.07 -1102.45 1252.58 -1095.25 1245.65 -1093.53 
	C 1245.65 -1099.04 1247.88 -1105.71 1246.83 -1110.96 
	C 1245.98 -1114.87 1245.82 -1128.48 1241.08 -1129.27 
	C 1239.25 -1121.9 1237.51 -1115.15 1234.47 -1108.2 
	C 1233.34 -1105.36 1228.96 -1106.07 1228.23 -1108.99 
	C 1227.34 -1112.82 1227.26 -1116.1 1227.26 -1120.05 
	C 1221.75 -1114.54 1221.46 -1106.88 1221.46 -1099.29 
	C 1215.3 -1104.72 1212.43 -1116.22 1208.82 -1123.5 
	C 1206.83 -1115.78 1204.69 -1108.2 1203.07 -1100.44 
	L 1203.07 -1101.6 
	C 1201.97 -1100.04 1199.01 -1091.38 1197.96 -1091.1 
	C 1195.57 -1090.49 1193.58 -1089.22 1192.37 -1091.81 
	C 1191.48 -1093.65 1190.3 -1094.65 1189.82 -1096.65 
	C 1188.6 -1101.29 1188.07 -1107.76 1185.72 -1111.95 
	C 1183.66 -1115.74 1179.36 -1119.1 1176.48 -1122.36 
	L 1181.1 -1098.13 
	C 1176.73 -1099.61 1174.42 -1099.37 1173.04 -1103.88 
	C 1171.91 -1107.67 1170.89 -1111.5 1169.76 -1115.33 
	C 1167.45 -1123.46 1164.98 -1130.75 1161.53 -1138.47 
	C 1161.61 -1131.44 1158.74 -1124.41 1159.3 -1117.46 
	C 1160.03 -1108.71 1160.8 -1099.93 1161.53 -1091.22 
	C 1154.6 -1098.13 1151.32 -1107.03 1150.02 -1116.59 
	C 1147.88 -1113.35 1148.61 -1096.98 1143.66 -1096.98 
	C 1135.96 -1096.98 1133.9 -1104.09 1133.41 -1110.84 
	C 1132.16 -1127.37 1130.37 -1143.82 1130.37 -1160.39 
	C 1129.28 -1156 1128.22 -1151.6 1127.05 -1147.24 
	C 1126 -1142.66 1123.44 -1141.19 1123.44 -1136.18 
	L 1120 -1137.32 
	L 1121.13 -1137.32 
	C 1120.24 -1140.03 1117.85 -1140.98 1117.53 -1143.82 
	C 1117.12 -1147.4 1116.39 -1151.01 1116.55 -1154.64 
	C 1112.75 -1148.46 1113.07 -1139.1 1113.07 -1132.11 
	C 1113.07 -1129.31 1111.85 -1123.84 1110.8 -1121.21 
	C 1110.52 -1120.46 1109.63 -1122.1 1109.63 -1120.58 
	C 1109.63 -1119.57 1109.95 -1119.06 1109.06 -1118.57 
	C 1106.42 -1117.3 1105.37 -1119.22 1103.06 -1120.92 
	C 1100.51 -1122.85 1097.23 -1124.49 1096.54 -1127.69 
	C 1095.56 -1132.07 1094.67 -1136.26 1094.19 -1140.66 
	C 1093.34 -1148.13 1093.82 -1156.32 1098.12 -1162.7 
	C 1088.92 -1164.5 1086.77 -1147.36 1081.99 -1143.09 
	C 1077.98 -1148.42 1076.88 -1150.36 1078.55 -1156.95 
	C 1073.28 -1155.16 1071.54 -1151.01 1069.27 -1146.21 
	C 1067.52 -1142.58 1065.78 -1138.98 1064.08 -1135.31 
	C 1063.59 -1134.19 1062.34 -1129.88 1061.2 -1129.27 
	C 1058.73 -1127.91 1056.26 -1129.76 1057.48 -1132.11 
	C 1058.73 -1134.64 1059.46 -1136.99 1060.27 -1139.7 
	C 1061.93 -1145.54 1065.05 -1150.61 1068.09 -1155.79 
	C 1058.97 -1152.13 1052.37 -1144.73 1044.91 -1138.31 
	C 1036.85 -1131.4 1028.54 -1124.77 1019.75 -1118.9 
	C 1017.36 -1121.37 1020.72 -1123.5 1022.06 -1125.81 
	C 1023.76 -1128.93 1024.57 -1132.43 1025.75 -1135.8 
	C 1027.81 -1141.89 1028.79 -1148.09 1032.39 -1153.48 
	C 1025.5 -1146.57 1018.58 -1139.67 1011.69 -1132.76 
	C 1008.73 -1129.8 1005.24 -1130.91 1008.97 -1134.64 
	C 1011.69 -1137.36 1013.31 -1143.05 1015.13 -1146.53 
	C 1012.82 -1143.17 1010.43 -1140.86 1006.99 -1138.47 
	C 1004.68 -1136.87 997.625 -1132.35 1000.75 -1138.51 
	C 1002.73 -1142.54 1003.7 -1146.78 1005.77 -1150.81 
	C 1006.42 -1152.25 1006.09 -1155.08 1007.39 -1156.04 
	C 1009.21 -1157.43 1011.2 -1158.71 1012.82 -1160.39 
	C 1005.53 -1157.92 1002.65 -1154.84 997.141 -1149.29 
	C 992.926 -1145.09 989.398 -1140.29 985.105 -1136.18 
	C 985.105 -1144.97 986.281 -1152.13 988.996 -1160.51 
	C 991.547 -1168.05 996.613 -1174.13 1000.1 -1181.12 
	C 989.156 -1173.8 979.027 -1165.9 972.141 -1154.6 
	C 970.559 -1152.17 969.262 -1149.17 967.273 -1147.1 
	C 964.805 -1144.65 961.035 -1144.93 963.547 -1148.8 
	C 964.965 -1150.93 964.723 -1154.36 965.777 -1156.99 
	C 967.031 -1160.11 968.574 -1163.11 970.152 -1166.14 
	C 963.305 -1162.74 958.563 -1156.85 953.215 -1151.52 
	C 951.715 -1150.04 949.246 -1144.69 946.527 -1145.58 
	C 943.977 -1146.41 943.57 -1146.01 943.895 -1148.56 
	C 944.141 -1150.89 944.219 -1153.44 944.828 -1155.79 
	C 946.449 -1162.82 950.5 -1168.86 952.891 -1175.57 
	C 954.43 -1179.68 955.93 -1183.75 957.391 -1187.86 
	C 958.238 -1190.21 962.816 -1194.02 964.398 -1196.13 
	C 960.832 -1193.66 954.918 -1191.11 952.527 -1187.62 
	C 949.164 -1182.8 945.152 -1178.08 942.438 -1172.93 
	C 939.559 -1167.54 936.684 -1162.11 933.805 -1156.72 
	C 932.547 -1154.52 931.496 -1152.21 930.32 -1149.96 
	C 929.188 -1147.61 925.984 -1149.37 924 -1150.04 
	C 928.293 -1156.32 929.754 -1162.98 929.754 -1170.46 
	C 929.754 -1177.75 934.371 -1185.43 937.898 -1191.51 
	C 931.254 -1186.55 925.66 -1180.47 919.824 -1174.57 
	C 918.328 -1173.14 918.082 -1169.61 917.516 -1167.7 
	C 915.773 -1162.07 914.152 -1156.4 912.492 -1150.77 
	C 912.004 -1149.33 911.355 -1143.74 909.938 -1142.95 
	C 906.574 -1141.06 903.375 -1137.11 900.496 -1140.33 
	C 895.148 -1146.29 891.504 -1152.09 887.168 -1158.67 
	C 877.809 -1172.73 866.582 -1184.36 854.75 -1196.25 
	C 843.648 -1207.36 833.191 -1219.11 822.453 -1230.55 
	C 817.023 -1236.39 810.664 -1240.54 804.098 -1245.18 
	C 798.75 -1249.05 793.727 -1254.16 787 -1255.29 
	C 778.773 -1256.65 772.531 -1254.44 766.578 -1248.48 
	C 760.902 -1242.83 759.77 -1237.04 760.418 -1229.24 
	C 761.754 -1214.43 761.512 -1196.66 770.793 -1184.04 
	C 773.75 -1180 776.707 -1176.01 779.664 -1171.98 
	C 781.488 -1169.57 783.352 -1165.62 785.742 -1163.75 
	C 791.941 -1159.04 798.266 -1154.52 803.938 -1149.33 
	C 809.934 -1143.98 814.957 -1139.7 818.891 -1132.72 
	C 821.199 -1128.52 821.359 -1127.95 820.633 -1123.21 
	C 819.98 -1119.61 818.809 -1115.7 819.133 -1111.95 
	C 814.957 -1118.21 811.516 -1125.36 806.168 -1130.67 
	C 801.547 -1135.31 794.656 -1138.63 789.227 -1142.3 
	C 783.352 -1146.17 776.141 -1148.05 769.574 -1150.73 
	C 763.051 -1153.32 755.555 -1156.48 749.961 -1160.63 
	C 746.602 -1163.19 744.207 -1164.99 740.035 -1166.02 
	C 738.129 -1166.51 732.621 -1169.69 731.242 -1171.01 
	C 728.852 -1173.46 725.406 -1174.54 723.18 -1176.8 
	C 720.625 -1179.32 718.156 -1181.81 715.602 -1184.32 
	C 710.578 -1189.38 705.309 -1194.98 697.609 -1194.98 
	C 694.043 -1194.98 690.195 -1195.18 687.398 -1192.43 
	C 685.25 -1190.25 680.145 -1186.3 679.578 -1183.13 
	C 676.703 -1168.78 680.145 -1151.36 685.008 -1137.66 
	C 688.047 -1129.15 691.574 -1121.82 695.867 -1113.83 
	C 698.906 -1108.34 702.105 -1101.01 706.566 -1096.57 
	C 712.316 -1090.82 718.074 -1085.02 724.07 -1079.51 
	C 730.637 -1073.49 737.16 -1069.26 744.816 -1064.62 
	C 757.621 -1056.72 766.414 -1043.81 773.91 -1031.23 
	C 775.168 -1029.2 776.625 -1023.05 778.773 -1023.21 
	C 771.035 -1020.61 763.539 -1024.65 758.027 -1030.12 
	C 761.27 -1022.44 764.469 -1014.74 767.672 -1007 
	C 770.145 -1001 774.398 -996.97 778.773 -992.09 
	L 776.465 -994.38 
	C 777.883 -989.17 765.441 -991.5 762.645 -992.09 
	C 770.793 -984.84 779.664 -978.76 784.688 -968.77 
	C 785.094 -967.86 788.375 -962.3 787.73 -961.94 
	C 785.582 -960.5 783.27 -958.31 780.84 -957.42 
	C 775.574 -955.44 770.305 -953.51 764.957 -951.71 
	C 767.508 -947.47 770.063 -943.18 772.613 -938.9 
	C 775.816 -933.56 774.723 -933.23 771.844 -927.52 
	L 771.844 -928.67 
	C 769.211 -924.96 766.332 -921.93 765.359 -917.49 
	C 763.859 -910.7 764.145 -909.51 767.266 -903.31 
	C 769.453 -906.87 771.602 -910.54 774.074 -913.98 
	C 777.598 -919.01 778.855 -920.61 784.527 -922.92 
	C 786.676 -915.34 790.363 -907.26 791.496 -899.56 
	C 792.754 -890.54 792.59 -882.38 791.418 -873.32 
	C 795.629 -875.39 796.52 -876.32 798.91 -880.23 
	C 799.641 -881.43 801.629 -883.43 801.789 -884.83 
	C 801.949 -885.58 800.332 -887.79 800.656 -889.49 
	C 803.367 -881.47 801.789 -871.56 801.789 -863.17 
	C 801.789 -854.03 801.789 -844.96 801.789 -835.82 
	C 801.789 -816.41 800.656 -797.12 800.656 -777.63 
	L 801.789 -778.79 
	C 801.789 -765.92 802.965 -753.08 802.965 -740.21 
	C 802.965 -733.93 804.02 -727.14 805.313 -721 
	C 806.57 -715.01 806.895 -707.82 810.258 -702.67 
	C 814.555 -696.33 817.672 -690.33 820.875 -683.42 
	C 823.508 -677.79 827.52 -672.32 834.125 -670.44 
	C 840.203 -668.65 849.156 -670.44 855.602 -670.44 
	C 861.191 -670.44 867.188 -673.51 870.957 -677.34 
	C 872.699 -674.83 874.078 -671.12 876.957 -669.81 
	C 879.914 -668.45 885.102 -664.68 888.383 -664.68 
	C 896.043 -664.68 903.859 -663.57 911.031 -666.32 
	C 919.504 -669.56 925.418 -672.07 929.754 -680.79 
	C 933.645 -688.36 929.754 -695.19 929.754 -702.99 
	C 929.754 -718.71 934.535 -733.97 946.043 -745.48 
	C 957.391 -756.82 968.168 -767.77 977.973 -780.55 
	C 983.809 -788.33 989.156 -795.52 996.289 -802.07 
	C 1004.76 -809.7 1013.31 -816.33 1019.35 -825.99 
	C 1021.61 -829.66 1024.49 -833.11 1027.57 -836.19 
	C 1032.31 -840.97 1034.3 -837.26 1034.7 -831.83 
	C 1035.43 -821.92 1036.93 -812.62 1039.32 -803 
	C 1040.94 -808.06 1042.44 -813.82 1044.75 -818.56 
	C 1046.05 -821.01 1048.11 -822.95 1049.41 -825.47 
	C 1050.59 -827.88 1050.51 -830.63 1051.96 -832.98 
	C 1051.48 -829.7 1053.87 -826.9 1054.52 -823.76 
	C 1055.17 -820.36 1055.85 -815.88 1057.96 -813.05 
	C 1060.68 -809.5 1062.5 -806.14 1064.57 -802.15 
	C 1065.7 -799.8 1064.65 -794.04 1064.65 -791.49 
	C 1066.71 -795.6 1071.05 -798.85 1072.71 -803 
	C 1074.41 -807.23 1073.93 -813.37 1075.1 -817.97 
	C 1080.21 -809.38 1081.99 -801.44 1081.99 -791.49 
	C 1081.99 -781.22 1077.98 -773.64 1072.71 -764.97 
	C 1075.59 -764.44 1078.71 -766.53 1080.86 -768.17 
	C 1083.65 -770.24 1087.42 -771.55 1089.81 -773.92 
	C 1095 -779.07 1097.79 -785.07 1100.99 -791.53 
	C 1103.55 -796.56 1104.03 -794.69 1107.07 -790.66 
	C 1109.3 -787.74 1110.03 -785.29 1110.96 -781.78 
	C 1112.75 -774.35 1111.61 -766.77 1107.32 -760.37 
	C 1118.5 -759.42 1122.31 -770.97 1122.31 -779.94 
	C 1124.78 -776.68 1123.6 -771.51 1124.78 -767.89 
	C 1126 -764.26 1124.62 -759.86 1124.62 -755.75 
	C 1131.59 -762.66 1134.95 -769.99 1134.95 -779.94 
	C 1139.49 -774 1143.5 -765.8 1141.96 -758.02 
	C 1140.14 -749.31 1133.57 -744.53 1126.89 -739.6 
	C 1142.77 -739.97 1152.9 -753.42 1159.22 -766.12 
	C 1160.97 -764.81 1160.97 -762.46 1161.37 -760.45 
	C 1162.42 -755.51 1163.6 -750.58 1164.65 -745.64 
	C 1166.31 -738.24 1167.94 -730.83 1169.6 -723.48 
	C 1171.91 -730.3 1174.34 -739.1 1181.1 -742.48 
	C 1189.33 -746.59 1191.23 -729.51 1192.45 -725.16 
	C 1196.83 -710.02 1198.77 -694.4 1203.23 -679.19 
	C 1204.28 -675.52 1205.38 -671.87 1206.43 -668.2 
	C 1207.24 -665.37 1213.08 -661.54 1215.22 -659.41 
	C 1220.57 -654.06 1227.05 -649.54 1232.93 -644.72 
	C 1245.49 -634.41 1256.84 -623.51 1268.35 -612 
	C 1273.94 -606.37 1278.39 -599.71 1282.93 -593.24 
	C 1286.62 -587.93 1286.05 -577.99 1286.05 -571.67 
	C 1286.05 -557.06 1283.91 -541.6 1277.26 -528.39 
	C 1263.16 -500.19 1238.16 -480.53 1219.6 -455.37 
	C 1215.47 -449.78 1208.17 -443.03 1206.11 -436.33 
	C 1203.31 -427.15 1200.43 -417.99 1197.64 -408.77 
	C 1193.34 -395 1194.52 -379.82 1191.64 -365.76 
	C 1188.52 -350.18 1182.24 -335.85 1175.59 -321.47 
	C 1169.27 -307.69 1161.29 -293.79 1156.91 -279.29 
	C 1155.7 -275.13 1154.68 -271.71 1152.5 -268.06 
	C 1150.59 -264.84 1151.16 -261.92 1151.16 -258.18 
	C 1151.16 -250.46 1151.4 -243.55 1152.66 -235.89 
	C 1155.13 -221.06 1150.02 -206.211 1138.23 -196.461 
	C 1126.97 -187.039 1115.38 -177.262 1109.63 -163.148 
	C 1103.87 -149.012 1103.87 -134.359 1103.87 -119.352 
	C 1110.52 -121.578 1117.04 -121.781 1123.93 -120.629 
	C 1131.43 -119.352 1138.4 -119.352 1146.05 -119.352 
	C 1160.52 -119.352 1174.26 -122.109 1182.08 -135.191 
	C 1183.41 -137.441 1185.72 -140.75 1185.72 -143.461 
	C 1185.72 -147.07 1185.28 -149.699 1187.1 -152.781 
	C 1191.48 -160.07 1195.89 -165.629 1201.57 -171.91 
	C 1203.88 -174.539 1204.28 -174.012 1205.13 -178.172 
	C 1205.7 -181.078 1203.47 -184.789 1202.58 -187.512 
	C 1200.43 -193.988 1198.28 -200.488 1196.06 -207 
	L 1197.23 -204.691 
	C 1202.05 -211.92 1207.32 -215.59 1214.41 -220.71 
	C 1215.79 -221.75 1215.87 -229.36 1216.15 -231.05 
	C 1216.8 -234.83 1218.02 -239.03 1218.02 -242.84 
	C 1218.02 -250.21 1216.48 -259.21 1218.18 -266.4 
	C 1220.09 -274.63 1222.07 -282.49 1224.7 -290.47 
	C 1234.63 -320.31 1253.47 -345.86 1267.45 -373.9 
	C 1275.03 -389.04 1286.38 -401.66 1296.91 -414.81 
	C 1299.26 -417.83 1308.1 -431.02 1312.19 -424.82 
	C 1315.63 -419.63 1314.34 -407.5 1314.82 -401.3 
	C 1316 -386 1315.39 -370.91 1317.94 -355.61 
	C 1318.96 -349.59 1318.27 -343.23 1318.27 -337.21 
	C 1318.27 -325.66 1318.27 -314.16 1318.27 -302.61 
	C 1318.27 -296.59 1318.96 -290.43 1317.62 -284.53 
	C 1315.8 -276.53 1313.69 -268.63 1311.54 -260.69 
	C 1309.8 -254.2 1308.83 -246.87 1305.87 -240.79 
	C 1301.25 -231.41 1296.75 -222.03 1292.21 -212.67 
	C 1290.88 -210.04 1289.66 -207.398 1288.36 -204.73 
	C 1287.03 -202.012 1284.23 -200.328 1283.18 -197.41 
	C 1280.22 -189.43 1278.23 -180.422 1273.05 -173.59 
	C 1270.82 -170.59 1268.67 -167.551 1266.56 -164.512 
	C 1264.58 -161.711 1260.36 -159.449 1257.85 -156.891 
	C 1255.46 -154.48 1252.26 -152.129 1250.27 -149.34 
	C 1247.88 -145.969 1246.3 -141.391 1244.44 -137.711 
	C 1242.21 -133.09 1239.98 -128.73 1238.36 -123.852 
	C 1237.59 -121.578 1237.19 -119.309 1236.78 -116.941 
	C 1236.21 -113.391 1239.09 -114.18 1242.37 -113.43 
	C 1251.97 -111.309 1261.78 -109 1271.75 -109 
	C 1292.62 -109 1312.84 -111.078 1332.17 -119.352 
	L 1332.17 -118.219 
	C 1333.75 -126.102 1336.46 -133.012 1333.91 -140.711 
	C 1331.44 -148.059 1331.44 -155.762 1329.29 -163.398 
	C 1328.23 -167.059 1331.11 -170.352 1332.77 -173.648 
	C 1334.39 -177.012 1335.57 -180.328 1336.79 -183.922 
	C 1339.09 -191.031 1342.54 -196.34 1347.73 -201.891 
	C 1359.23 -214.23 1370.82 -226.02 1383.18 -237.43 
	C 1387.76 -241.66 1397.89 -243.51 1397.89 -250.58 
	C 1397.89 -259.33 1397 -265.19 1393.03 -273.03 
	C 1389.91 -279.45 1389.5 -285.73 1388.85 -292.76 
	C 1388 -301.41 1386.71 -310.12 1386.3 -318.8 
	C 1385.57 -335.77 1385.9 -352.89 1385.33 -369.87 
	C 1384.32 -401.78 1388.45 -433.37 1391.33 -465.08 
	C 1392.62 -479.06 1396.59 -492.83 1400.36 -506.31 
	C 1402.92 -515.44 1405.47 -524.54 1408.02 -533.62 
	C 1409.72 -539.65 1412.68 -548.06 1417.06 -552.5 
	C 1418.43 -553.86 1423.78 -553.73 1425.85 -554.06 
	C 1430.06 -554.75 1434.24 -555.42 1438.45 -555.98 
	C 1445.5 -557.02 1453.08 -556.27 1460.25 -556.27 
	C 1463.37 -556.27 1466.49 -556.27 1469.61 -556.27 
	C 1471.84 -556.27 1474.15 -556.27 1476.34 -556.27 
	C 1478.08 -556.27 1476.87 -555.3 1478.49 -554.87 
	C 1486.39 -552.9 1494.29 -550.9 1502.19 -549.03 
	C 1563.78 -534.57 1628.42 -533.78 1690.53 -544.76 
	C 1721.86 -550.27 1752.86 -557.97 1782.55 -569.15 
	C 1795.89 -574.12 1810.11 -580.5 1822.59 -587.16 
	C 1837.22 -594.96 1852.05 -602.46 1866.03 -611.42 
	C 1871.38 -614.88 1876.81 -618.37 1882.16 -621.83 
	C 1884.18 -623.11 1887.22 -624.24 1888.96 -625.44 
	C 1892 -627.58 1893.58 -630.1 1897.03 -631.78 
	C 1908.94 -637.78 1921.38 -634.62 1930.5 -625.44 
	L 1930.5 -626.63 
	C 1940.46 -613.81 1950.39 -600.98 1960.44 -588.14 
	C 1964.37 -583.01 1969.72 -579.26 1972.6 -573.43 
	C 1977.3 -564.05 1982 -554.67 1986.66 -545.25 
	C 1989.98 -538.76 1994.96 -533.13 1999.26 -527.3 
	C 2002.87 -522.35 2008.13 -518.85 2011.74 -513.96 
	C 2021.95 -500.27 2032.33 -486.9 2041.04 -472.31 
	C 2043.59 -468.03 2045.74 -463.37 2048.01 -458.98 
	C 2050.48 -454.09 2054.61 -448.62 2056.15 -443.32 
	C 2058.79 -434.22 2057.73 -421.52 2057 -412.2 
	C 2056.07 -399.94 2054.45 -390.07 2046.87 -379.9 
	C 2040.23 -370.95 2031.6 -363.75 2024.99 -354.53 
	L 2028.44 -356.84 
	L 2024.99 -353.38 
	L 2024.99 -354.53 
	C 2020.58 -350.58 2016.36 -346.35 2011.26 -343.31 
	C 2005.99 -340.15 2001.98 -337.35 1997.44 -333.28 
	C 1987.43 -324.14 1977.87 -314.28 1966.2 -307.29 
	L 1967.33 -308.44 
	C 1945.13 -292.6 1933.46 -268.71 1927.05 -242.72 
	L 1928.19 -243.87 
	L 1921.3 -219.66 
	L 1923.61 -219.66 
	C 1920.65 -216.74 1918.83 -214.15 1914.78 -213.16 
	C 1910.76 -212.12 1907.24 -208.31 1904.04 -205.84 
	C 1898.53 -201.77 1895.53 -196.828 1893.42 -190.34 
	C 1892.81 -188.48 1876.97 -143.262 1879.85 -142.391 
	C 1895.29 -137.871 1910.03 -132.891 1925.71 -138.148 
	C 1934.02 -140.91 1941.92 -144.109 1949.99 -147.41 
	C 1954.28 -149.172 1964.62 -151.34 1965.71 -154.969 
	C 1967.09 -159.828 1968.51 -164.672 1969.8 -169.5 
	C 1970.45 -171.699 1972.68 -175.898 1971.95 -178.289 
	C 1970.74 -182.32 1969.56 -186.352 1968.34 -190.379 
	C 1967.41 -193.301 1964.7 -198.391 1965.14 -201.488 
	C 1965.38 -203.531 1964.98 -210.44 1967.25 -210.44 
	C 1972.6 -210.44 1977.87 -210.44 1983.21 -210.44 
	C 1986.34 -210.44 1986.66 -209.91 1988.24 -212.51 
	C 1990.87 -217.03 1993.51 -221.5 1996.22 -225.98 
	C 2004.04 -239.19 2011.01 -252.81 2019.4 -265.67 
	C 2023.53 -271.91 2027.14 -278.98 2032.16 -284.59 
	C 2038.24 -291.36 2044.24 -298.15 2050.32 -304.9 
	C 2054.61 -309.72 2057.57 -316.91 2060.93 -322.42 
	C 2066.53 -331.66 2072.12 -340.92 2077.71 -350.14 
	C 2078.6 -351.62 2079.37 -353.54 2080.59 -354.78 
	C 2084.8 -359.01 2086.1 -359.3 2092.01 -360.17 
	C 2098.86 -361.16 2099.1 -343.19 2099.59 -339.85 
	C 2100.56 -332.33 2101.09 -325.38 2101.09 -317.76 
	C 2101.09 -311.2 2102.06 -303.82 2100.73 -297.42 
	C 2098.62 -287.63 2096.55 -277.89 2094.4 -268.1 
	C 2093.19 -262.08 2092.7 -255.05 2090.15 -249.42 
	C 2087.03 -242.51 2081.92 -234.79 2080.26 -227.38 
	C 2078.36 -218.79 2076.57 -210.16 2074.67 -201.57 
	C 2073.09 -194.352 2069.4 -187.629 2067.7 -180.461 
	C 2066.85 -177.172 2065.96 -173.43 2065.39 -170.102 
	C 2064.54 -165.711 2066.93 -163.879 2062.68 -161.922 
	C 2055.67 -158.68 2049.43 -156.57 2044.24 -151.02 
	C 2036.99 -143.141 2029.69 -135.23 2022.36 -127.328 
	C 2020.9 -125.691 2019.32 -124.699 2019.08 -122.488 
	C 2018.91 -120.422 2016.93 -111.711 2018.91 -110.961 
	C 2027.14 -107.879 2035.12 -106.359 2043.83 -104.719 
	C 2059.31 -101.852 2075.4 -105.488 2090.47 -108.672 
	C 2092.62 -109.078 2096.55 -109.078 2098.21 -110.641 
	C 2100.32 -112.871 2106.07 -116.641 2106.93 -119.648 
	C 2109.32 -127.738 2110.37 -135.281 2110.37 -143.699 
	C 2110.37 -151.93 2112.68 -158.641 2116.85 -165.422 
	C 2120.5 -171.141 2124.92 -178.449 2130.02 -182.809 
	C 2137.03 -188.91 2144.08 -194.98 2151.17 -201.059 
	C 2156.93 -206.129 2163.65 -209.37 2170.42 -213.16 
	C 2173.7 -215 2174.76 -216.44 2176.99 -219.66 
	C 2179.46 -223.02 2179.46 -225.21 2180.27 -229.24 
	C 2180.83 -232.04 2182.5 -235.6 2181.08 -238.24 
	C 2178.57 -242.84 2176.01 -247.5 2173.46 -252.14 
	C 2166.53 -264.68 2161.51 -279.45 2160.7 -293.79 
	C 2159.88 -309.8 2160.62 -325.87 2158.63 -341.79 
	C 2157.74 -349.02 2156.16 -356.22 2156.93 -363.53 
	C 2157.82 -373.38 2158.79 -383.2 2159.8 -393.07 
	C 2161.34 -408.08 2163.57 -423 2166.04 -437.89 
	C 2166.86 -442.95 2167.63 -448 2168.44 -453.06 
	C 2169.17 -457.26 2169.08 -457.21 2166.21 -460.62 
	C 2161.34 -466.51 2155.67 -471.68 2150.57 -477.41 
	C 2128.97 -501.38 2122.61 -534.81 2132.01 -565.45 
	C 2134.56 -573.55 2138.25 -579.87 2142.54 -587.29 
	C 2142.79 -587.69 2141.37 -588.26 2141.61 -589.13 
	C 2142.02 -590.45 2142.42 -591.76 2142.79 -593.08 
	C 2144.41 -598.35 2146.07 -603.66 2147.61 -608.94 
	C 2152.15 -623.88 2155.59 -638.65 2158.87 -653.94 
	C 2165.56 -684.9 2174.11 -714.97 2182.9 -745.44 
	C 2189.83 -769.61 2196.8 -793.8 2203.73 -817.97 
	C 2201.26 -781.95 2198.7 -745.96 2196.23 -709.94 
	C 2195.5 -699.08 2194.49 -688.28 2194.49 -677.42 
	C 2194.49 -662.33 2194.9 -647.44 2193.19 -632.47 
	C 2191.45 -617.01 2189.75 -601.55 2187.93 -586.09 
	C 2186.75 -575.94 2186.87 -568.2 2188.01 -557.93 
	C 2189.22 -546.95 2194.17 -536.78 2197.98 -526.42 
	C 2199.92 -520.99 2200.57 -515.28 2201.5 -509.53 
	C 2202.55 -503.23 2204.13 -501.34 2208.31 -496.36 
	L 2207.17 -507.89 
	L 2215.24 -484.81 
	L 2222.13 -499.82 
	L 2232.5 -475.59 
	L 2239.39 -483.65 
	C 2242.02 -476.54 2244.66 -469.63 2247.78 -462.77 
	C 2250.57 -456.69 2257.91 -452.23 2264.83 -452.53 
	L 2235.94 -552.82 
	"/>
</g>
</g >
</g>
</svg>
