<?xml version="1.0" standalone="no"?>
<svg width="4749px" height="4749px" viewBox="-20 -3937 4749 4749 " xmlns="http://www.w3.org/2000/svg" xmlns:xlink="http://www.w3.org/1999/xlink">
<title>generated by pstoedit</title>
<!-- generated by pstoedit version:4.02 -->
<g xml:space='preserve'>
<clipPath id="clippath1"> 	<path d="
	M 0 -3917.08 
	L 0 792 
	L 4709.08 792 
	L 4709.08 -3917.08 
	Z 
	" style="clip-rule:nonzero"/>
</clipPath>
<g style="clip-path:url(#clippath1)"> 
<g fill="#95e8ff" fill-rule="nonzero" stroke-width="0" stroke-linejoin="miter" stroke-linecap="butt" stroke-miterlimit="10" >
	<path d="
	M 2507.27 728.488 
	C 2422.92 812.84 2286.16 812.84 2201.81 728.488 
	L 63.5156 -1409.8 
	C -20.8398 -1494.16 -20.8398 -1630.92 63.5156 -1715.27 
	L 2201.81 -3853.57 
	C 2286.16 -3937.92 2422.92 -3937.92 2507.27 -3853.57 
	L 4645.57 -1715.27 
	C 4729.92 -1630.92 4729.92 -1494.16 4645.57 -1409.8 
	Z 
	"/>
</g>
<g stroke="#7f7f7f" fill="none" stroke-width="0.5" stroke-linejoin="miter" stroke-linecap="butt" stroke-miterlimit="4" >
	<path d="
	M 2507.27 728.488 
	C 2422.92 812.84 2286.16 812.84 2201.81 728.488 
	L 63.5156 -1409.8 
	C -20.8398 -1494.16 -20.8398 -1630.92 63.5156 -1715.27 
	L 2201.81 -3853.57 
	C 2286.16 -3937.92 2422.92 -3937.92 2507.27 -3853.57 
	L 4645.57 -1715.27 
	C 4729.92 -1630.92 4729.92 -1494.16 4645.57 -1409.8 
	Z 
	"/>
</g>
<g fill="#7f7f7f" fill-rule="nonzero" stroke-width="0" stroke-linejoin="miter" stroke-linecap="butt" stroke-miterlimit="4" >
	<path d="
	M 4543.74 -1511.63 
	L 2405.45 626.66 
	C 2377.38 654.738 2331.7 654.738 2303.63 626.66 
	L 165.34 -1511.63 
	C 137.266 -1539.7 137.266 -1585.38 165.34 -1613.45 
	L 2303.63 -3751.74 
	C 2331.7 -3779.81 2377.38 -3779.81 2405.45 -3751.74 
	L 4543.74 -1613.45 
	C 4571.82 -1585.38 4571.82 -1539.7 4543.74 -1511.63 
	Z 
	M 4607.38 -1677.09 
	L 2469.09 -3815.38 
	C 2405.93 -3878.55 2303.15 -3878.55 2239.99 -3815.38 
	L 101.699 -1677.09 
	C 38.5352 -1613.93 38.5352 -1511.15 101.699 -1447.99 
	L 2239.99 690.301 
	C 2303.15 753.469 2405.93 753.469 2469.09 690.301 
	L 4607.38 -1447.99 
	C 4670.55 -1511.15 4670.55 -1613.93 4607.38 -1677.09 
	Z 
	"/>
</g>
<g fill="#7f7f7f" fill-rule="evenodd" stroke-width="0" stroke-linejoin="miter" stroke-linecap="butt" stroke-miterlimit="4" >
	<path d="
	M 2754.51 -2885.88 
	C 2740.79 -2831.13 2730.91 -2775.86 2719.12 -2720.72 
	C 2713.86 -2696.42 2712.7 -2671.87 2702.51 -2649.04 
	C 2690.01 -2621.02 2676.8 -2594.67 2661.92 -2567.74 
	C 2648.33 -2543.19 2630.12 -2522.16 2612.88 -2499.97 
	C 2606.79 -2492.21 2601.79 -2484.46 2594.67 -2477.66 
	C 2582.49 -2466.06 2570.3 -2454.45 2558.19 -2442.85 
	C 2537.67 -2423.29 2510.81 -2412.14 2485.99 -2398.61 
	C 2463.62 -2386.42 2437.78 -2392.39 2417.9 -2406.56 
	C 2410.97 -2411.56 2402.58 -2417.33 2397.77 -2424.57 
	C 2395.59 -2427.84 2390.65 -2432.72 2390.01 -2436.56 
	C 2389.37 -2440.34 2390.01 -2447.59 2386.1 -2448.04 
	C 2386.1 -2463.36 2386.1 -2478.75 2386.1 -2494.14 
	C 2386.1 -2507.03 2389.44 -2520.3 2391.29 -2533.12 
	C 2395.14 -2558.64 2400.08 -2583.96 2404.05 -2609.48 
	C 2405.21 -2617.24 2406.49 -2625 2407.64 -2632.75 
	C 2408.42 -2638.01 2416.81 -2641.41 2420.92 -2644.36 
	C 2425.6 -2647.69 2430.92 -2653.01 2436.24 -2655.13 
	C 2442.39 -2657.63 2450.41 -2659.43 2455.99 -2663.08 
	C 2481.05 -2679.75 2503.62 -2696.93 2526.7 -2716.36 
	C 2546.65 -2733.09 2567.87 -2748.55 2588.39 -2764.45 
	C 2609.61 -2780.99 2628.14 -2800.48 2647.5 -2819.14 
	C 2665.9 -2836.9 2683.47 -2855.56 2701.23 -2873.96 
	C 2718.15 -2891.52 2739.5 -2901.53 2760.47 -2913.71 
	Z 
	M 2326.34 -2551.52 
	C 2323.33 -2524.27 2320.25 -2497.09 2316.4 -2469.9 
	C 2314.35 -2456.12 2312.94 -2443.49 2308.26 -2430.47 
	C 2303.71 -2417.71 2298.65 -2407.52 2291.91 -2395.78 
	C 2279.09 -2373.34 2266.71 -2346.61 2248.12 -2328.14 
	C 2237.09 -2317.05 2226 -2305.96 2214.91 -2294.87 
	C 2211.44 -2291.34 2201 -2289.87 2196.31 -2288.14 
	C 2188.49 -2285.38 2187.34 -2284.67 2179.71 -2287.43 
	C 2172.08 -2290.12 2161.31 -2291.28 2156.69 -2298.27 
	C 2149.83 -2308.59 2142.97 -2318.91 2136.05 -2329.3 
	C 2131.94 -2335.39 2131.43 -2345.58 2129.7 -2352.51 
	C 2126.88 -2363.66 2124.06 -2374.69 2121.36 -2385.78 
	C 2117 -2403.22 2118.54 -2423.99 2117.26 -2441.88 
	C 2115.91 -2460.73 2118.86 -2479.2 2121.24 -2497.79 
	C 2108.48 -2477.92 2097.13 -2459.71 2092.13 -2436.24 
	C 2086.36 -2409.57 2080.71 -2384.44 2071.55 -2358.73 
	C 2070.01 -2354.56 2073.34 -2345.2 2073.92 -2340.9 
	C 2074.56 -2336.8 2074.95 -2332.57 2075.97 -2328.59 
	C 2079.95 -2313.27 2083.85 -2298.01 2087.83 -2282.75 
	C 2090.65 -2271.79 2095.65 -2261.53 2099.95 -2251.14 
	C 2104.5 -2240.11 2112.77 -2233.57 2121.24 -2225.11 
	L 2043.53 -2211.2 
	L 2047.5 -2270.89 
	C 2040.13 -2258.51 2032.82 -2246.14 2025.51 -2233.77 
	C 2021.28 -2226.65 2017.05 -2219.6 2012.88 -2212.54 
	C 2009.42 -2206.71 2008.97 -2207.03 2001.92 -2205.49 
	C 1976.78 -2199.91 1948.77 -2195.04 1923.44 -2200.3 
	C 1914.59 -2202.16 1905.68 -2204.02 1896.83 -2205.81 
	C 1889.07 -2207.42 1889.2 -2208.95 1885.03 -2216.2 
	C 1879.46 -2225.94 1875.03 -2241.07 1877.28 -2252.1 
	C 1879.78 -2264.86 1882.41 -2277.49 1885.68 -2290.12 
	C 1887.98 -2299.23 1890.36 -2308.27 1892.79 -2317.37 
	C 1893.75 -2321.09 1894.08 -2327.82 1896.51 -2330.96 
	C 1912.09 -2351.87 1926.9 -2373.86 1944.28 -2393.35 
	C 1962.49 -2413.74 1980.63 -2434.25 1999.03 -2454.45 
	C 2011.85 -2468.56 2024.68 -2482.66 2037.57 -2496.76 
	C 2045.84 -2505.87 2048.27 -2507.99 2059.94 -2511.7 
	C 2073.98 -2516.26 2088.79 -2522.92 2103.28 -2525.62 
	C 2118.16 -2528.37 2134.31 -2527.86 2149.45 -2528.95 
	C 2182.72 -2531.32 2216.06 -2539.85 2248.63 -2546.84 
	C 2255.36 -2548.25 2264.28 -2548.64 2270.56 -2551.52 
	C 2276.39 -2554.21 2282.04 -2560.11 2287.1 -2563.9 
	C 2302.88 -2575.69 2318.52 -2587.49 2334.29 -2599.29 
	Z 
	M 1991.79 -2095.73 
	C 1991.79 -2098.42 1990.18 -2108.1 1991.98 -2109.89 
	C 1996.53 -2114.38 2001.02 -2118.94 2005.57 -2123.42 
	C 2012.82 -2130.67 2023.78 -2131.12 2033.66 -2133.62 
	Z 
	M 1882.21 -2109.7 
	L 1876.25 -2123.62 
	L 1864.33 -2109.7 
	L 1858.3 -2127.59 
	L 1840.41 -2103.74 
	L 1836.43 -2127.59 
	L 1816.5 -2109.7 
	L 1826.5 -2141.51 
	C 1855.86 -2137.34 1884.97 -2133.04 1914.08 -2127.59 
	Z 
	M 2526.13 -793.42 
	C 2533.19 -807.59 2540.3 -821.82 2547.42 -835.93 
	L 2569.28 -853.82 
	C 2577.35 -829.77 2585.11 -805.54 2592.87 -781.3 
	C 2595.76 -772.32 2599.67 -762.52 2598.51 -753.03 
	C 2596.79 -738.86 2594.99 -724.75 2593.26 -710.58 
	C 2581.72 -715.58 2566.65 -719.18 2557.74 -728.15 
	C 2546.65 -739.24 2538.89 -751.23 2530.17 -764.37 
	C 2526.64 -769.57 2523.12 -774.76 2519.59 -780.14 
	C 2518.76 -781.37 2525.36 -791.95 2526.13 -793.42 
	Z 
	M 3101.05 -2704.76 
	C 3074.7 -2709.5 3048.99 -2714.44 3022.26 -2716.36 
	C 3010.71 -2717.2 2997.89 -2719.89 2986.28 -2718.22 
	C 2969.49 -2715.85 2952.69 -2713.48 2935.89 -2711.04 
	C 2911.85 -2707.64 2888.12 -2701.94 2864.02 -2698.47 
	C 2851.51 -2696.74 2835.42 -2697.13 2823.56 -2692.57 
	C 2809.84 -2687.38 2796.12 -2682.12 2782.46 -2676.93 
	C 2787.02 -2690.65 2791.57 -2704.31 2796.12 -2718.03 
	C 2800.48 -2731.04 2800.41 -2747.14 2802.34 -2760.73 
	C 2805.8 -2784.97 2812.02 -2809.07 2814.58 -2833.44 
	C 2816.44 -2850.17 2818.24 -2866.97 2820.03 -2883.77 
	C 2821.32 -2896.08 2815.55 -2911.4 2813.3 -2923.45 
	C 2812.34 -2928.58 2812.15 -2934.74 2810.29 -2939.61 
	C 2806.57 -2949.68 2801.5 -2947.63 2811.38 -2954.48 
	C 2822.86 -2962.56 2833.5 -2967.43 2846.51 -2973.02 
	C 2857.67 -2977.82 2868.82 -2982.63 2879.98 -2987.38 
	C 2850.94 -2991.55 2825.42 -2991.55 2796.38 -2987.38 
	C 2796.38 -3005.52 2787.91 -3022.77 2782.14 -3039.82 
	C 2777.08 -3055.21 2770.66 -3069.96 2764.51 -3084.89 
	C 2767.85 -3056.04 2768.48 -3028.54 2768.48 -2999.49 
	C 2768.48 -2991.35 2772.84 -2974.87 2764.31 -2972.12 
	C 2748.1 -2966.93 2731.87 -2961.66 2715.59 -2956.47 
	C 2704.11 -2952.75 2693.28 -2945.45 2682.51 -2939.93 
	C 2672.76 -2934.87 2662.63 -2930.38 2653.66 -2923.84 
	C 2630.12 -2906.78 2607.62 -2889.21 2581.85 -2875.82 
	C 2570.3 -2869.92 2558.89 -2863.95 2547.42 -2858.06 
	C 2536.2 -2910.37 2535.87 -2964.81 2531.96 -3018.15 
	C 2529.72 -3047.84 2524.97 -3076.18 2519.72 -3105.54 
	C 2517.47 -3118.43 2510.68 -3131.57 2506.32 -3143.82 
	C 2501.89 -3156.19 2497.98 -3168.37 2494.33 -3181 
	C 2490.55 -3194.21 2483.81 -3205.94 2477.72 -3218.25 
	C 2479.65 -3191.13 2481.5 -3164.08 2484.45 -3137.08 
	C 2487.47 -3108.43 2487.66 -3080.54 2487.66 -3051.62 
	C 2487.66 -3026.36 2482.02 -2999.75 2478.56 -2974.62 
	C 2474.45 -2945.25 2469.39 -2916.27 2464 -2887.16 
	C 2461.25 -2872.1 2454.51 -2857.09 2449.83 -2842.6 
	C 2445.28 -2828.5 2442.01 -2814.26 2438.61 -2799.9 
	C 2435.6 -2787.15 2433.61 -2776.44 2425.08 -2766.31 
	C 2413.35 -2752.46 2401.75 -2738.55 2390.08 -2724.7 
	C 2378.98 -2749.06 2367.06 -2772.78 2354.24 -2796.31 
	C 2355.26 -2784.45 2356.42 -2772.53 2357.7 -2760.73 
	C 2358.66 -2751.3 2359.69 -2741.81 2360.78 -2732.45 
	C 2361.22 -2727.97 2363.02 -2721.87 2361.87 -2717.51 
	C 2360.14 -2710.97 2359.17 -2702.83 2356.23 -2696.81 
	C 2353.34 -2691.1 2346.41 -2687.64 2341.03 -2683.66 
	C 2331.92 -2676.99 2321.41 -2666.8 2311.08 -2662.38 
	C 2283.51 -2650.58 2256.77 -2638.14 2229.91 -2624.74 
	C 2208.3 -2613.97 2182.72 -2603.71 2158.81 -2599.29 
	C 2145.28 -2596.72 2132.2 -2592.04 2118.73 -2595.44 
	C 2104.24 -2599.03 2089.82 -2603 2075.39 -2607.04 
	C 2068.28 -2609.03 2067.7 -2608.13 2066.03 -2615.25 
	C 2064.75 -2620.9 2060.45 -2630.32 2061.67 -2636.02 
	C 2064.3 -2648.21 2067.06 -2660.33 2068.85 -2672.63 
	C 2076.48 -2726.3 2087.58 -2781.37 2104.24 -2833.12 
	C 2109.76 -2850.36 2113.35 -2870.75 2121.75 -2886.84 
	C 2130.85 -2904.47 2139.96 -2922.04 2149.13 -2939.61 
	C 2127.01 -2922.36 2105.4 -2905.89 2085.59 -2886.07 
	C 2076.1 -2876.58 2069.17 -2862.03 2061.61 -2850.94 
	C 2055.45 -2841.83 2048.66 -2833.63 2045.26 -2823.11 
	C 2035.96 -2794.13 2027.37 -2765.6 2020 -2736.04 
	C 2013.91 -2711.49 2002.3 -2687.51 1997.75 -2662.83 
	C 1994.35 -2644.87 1991.98 -2626.47 1987.68 -2608.71 
	C 1985.18 -2598.45 1982.68 -2588.2 1980.25 -2577.94 
	C 1978.45 -2570.69 1977.94 -2557.68 1973.77 -2551.39 
	C 1952.29 -2519.27 1930.62 -2487.47 1908.12 -2455.99 
	L 1910.1 -2457.98 
	L 1908.12 -2455.99 
	L 1908.12 -2455.99 
	C 1896.19 -2444.06 1888.37 -2441.05 1871.76 -2445.15 
	C 1858.17 -2448.55 1849 -2459.77 1840.28 -2469.77 
	C 1824 -2488.3 1821.5 -2514.85 1822.78 -2538.31 
	C 1824.19 -2566.2 1822.07 -2595.89 1830.92 -2622.5 
	C 1840.67 -2651.86 1851.5 -2680.01 1863.43 -2708.54 
	C 1863.75 -2709.31 1864 -2710.02 1864.33 -2710.72 
	C 1846.57 -2693.09 1826.75 -2676.16 1811.37 -2656.35 
	C 1800.21 -2642.05 1789.12 -2627.69 1777.96 -2613.39 
	C 1770.97 -2604.48 1772 -2590.05 1770.52 -2579.16 
	C 1766.74 -2551.52 1767.19 -2525.68 1770.72 -2497.79 
	C 1772.64 -2482.34 1776.17 -2467.02 1778.92 -2451.69 
	C 1781.1 -2439.64 1779.24 -2428.93 1777.96 -2416.62 
	C 1776.94 -2407.13 1773.22 -2394.63 1774.88 -2385.08 
	C 1777.58 -2370.14 1780.21 -2355.2 1782.9 -2340.26 
	C 1786.75 -2318.85 1793.16 -2297.88 1798.61 -2276.85 
	C 1788.22 -2279.8 1775.33 -2281.02 1766.87 -2287.94 
	C 1753.02 -2299.42 1739.04 -2310.83 1725.13 -2322.25 
	C 1703.78 -2339.81 1685.57 -2361.1 1666.34 -2380.97 
	C 1658.58 -2388.99 1656.66 -2399.05 1652.87 -2409.57 
	C 1648.71 -2421.37 1644.22 -2433.04 1640.37 -2444.96 
	C 1635.11 -2461.18 1629.86 -2477.47 1624.66 -2493.62 
	C 1620.94 -2505.23 1621.78 -2518.69 1620.88 -2530.68 
	C 1620.17 -2541.01 1619.41 -2551.14 1619.41 -2561.46 
	C 1612.74 -2550.43 1611.46 -2541.07 1609.08 -2528.31 
	C 1606.9 -2516.26 1603.89 -2504.2 1603.06 -2491.96 
	C 1602.03 -2478.3 1601.71 -2465.93 1602.74 -2452.33 
	C 1603.57 -2440.22 1607.03 -2429.57 1610.37 -2417.78 
	C 1624.15 -2369.75 1643.83 -2323.65 1661.21 -2276.85 
	C 1646.91 -2290.12 1632.68 -2303.4 1618.38 -2316.67 
	C 1605.56 -2328.59 1599.34 -2337.76 1590.55 -2353.15 
	C 1572.6 -2384.5 1553.24 -2415.08 1543.68 -2450.03 
	C 1537.27 -2437.2 1541.06 -2423.42 1542.02 -2409.31 
	C 1542.85 -2397.71 1543.68 -2386.23 1544.97 -2374.69 
	C 1545.93 -2365.27 1546.96 -2355.9 1547.92 -2346.54 
	C 1548.3 -2343.15 1547.53 -2333.34 1549.78 -2330.51 
	C 1559.39 -2318.08 1569.08 -2305.64 1578.82 -2293.2 
	C 1586.71 -2283.01 1594.79 -2273.07 1603.18 -2263.26 
	C 1611.58 -2253.38 1626.84 -2245.95 1637.29 -2238.38 
	C 1660.7 -2221.52 1684.29 -2204.98 1708.01 -2188.5 
	C 1727.95 -2174.59 1748.79 -2157.66 1744.17 -2129.83 
	C 1741.93 -2116.18 1738.66 -2102.65 1727.5 -2094.19 
	C 1716.54 -2085.98 1703.59 -2079.63 1691.92 -2072.58 
	C 1666.79 -2057.38 1643.38 -2041.1 1619.6 -2023.92 
	C 1609.98 -2016.93 1603.31 -2012.12 1592.22 -2008.4 
	C 1578.18 -2003.72 1563.18 -2000 1549.58 -1994.17 
	C 1522.91 -1982.82 1497.27 -1971.34 1469.5 -1963.39 
	C 1457.77 -1960.06 1448.6 -1948.65 1438.15 -1942.49 
	C 1425.14 -1934.86 1410.39 -1929.28 1396.8 -1922.81 
	C 1388.01 -1918.58 1385.83 -1899.21 1382.76 -1890.11 
	C 1381.67 -1886.71 1385 -1881.45 1386.09 -1878.25 
	C 1389.55 -1868.69 1392.95 -1859.14 1396.41 -1849.59 
	C 1398.34 -1844.14 1400.32 -1838.62 1402.25 -1833.17 
	C 1404.23 -1827.66 1403.34 -1819.77 1406.48 -1814.84 
	C 1409.62 -1809.77 1412.51 -1802.98 1416.67 -1798.81 
	C 1423.53 -1791.82 1426.93 -1790.47 1436.36 -1787.78 
	C 1444.05 -1785.6 1458.67 -1779.77 1466.3 -1781.3 
	C 1477.26 -1783.68 1488.42 -1787.27 1499.7 -1787.27 
	C 1512.59 -1787.27 1523.17 -1786.95 1535.67 -1784.32 
	C 1545.54 -1782.2 1559.39 -1781.37 1568.24 -1776.95 
	C 1579.91 -1771.11 1591.58 -1765.34 1603.25 -1759.51 
	C 1612.87 -1754.63 1628.9 -1755.02 1639.41 -1753.22 
	C 1648.51 -1751.62 1657.68 -1750.98 1666.14 -1747.32 
	C 1678.39 -1742.07 1690.7 -1736.81 1703.01 -1731.55 
	L 1651.21 -1665.9 
	L 1683.07 -1679.81 
	L 1669.16 -1661.92 
	L 1705 -1671.86 
	L 1673.13 -1626.02 
	L 1705 -1638.01 
	L 1683.07 -1602.17 
	L 1720.9 -1620.05 
	L 1705 -1602.17 
	L 1728.85 -1606.14 
	L 1715 -1588.26 
	L 1742.83 -1592.23 
	L 1705 -1542.47 
	L 1746.8 -1556.39 
	L 1724.88 -1528.5 
	L 1770.72 -1542.47 
	L 1742.83 -1500.67 
	L 1770.72 -1510.61 
	L 1752.77 -1482.79 
	L 1784.63 -1500.67 
	L 1762.7 -1458.8 
	L 1794.63 -1462.85 
	L 1766.74 -1427.07 
	L 1794.63 -1440.98 
	L 1766.74 -1399.18 
	L 1816.5 -1417.07 
	L 1780.72 -1385.26 
	L 1812.52 -1389.24 
	L 1780.72 -1357.38 
	L 1822.52 -1375.26 
	L 1794.63 -1343.46 
	L 1836.43 -1357.38 
	L 1816.5 -1325.51 
	L 1840.41 -1339.49 
	L 1826.5 -1311.6 
	L 1848.36 -1329.49 
	L 1836.43 -1283.77 
	C 1849.45 -1291.66 1862.47 -1299.55 1875.42 -1307.5 
	C 1878.62 -1309.36 1881 -1312.56 1884.01 -1310.25 
	C 1891.06 -1304.87 1898.11 -1299.55 1905.1 -1294.23 
	C 1911.06 -1289.67 1917.03 -1285.12 1922.99 -1280.5 
	C 1925.56 -1278.58 1923.12 -1270.95 1922.8 -1268.13 
	C 1921.2 -1253.51 1920.62 -1238.38 1918.05 -1223.89 
	C 1912.99 -1195.74 1908.12 -1169.01 1907.09 -1140.47 
	C 1906.13 -1112.39 1903.18 -1084.89 1900.17 -1056.99 
	C 1898.75 -1043.47 1895.68 -1031.86 1897.79 -1018.46 
	C 1899.84 -1005.06 1902.8 -992.3 1906 -979.03 
	C 1908.82 -967.17 1910.36 -953.71 1915.36 -942.55 
	C 1922.35 -926.91 1929.21 -911.26 1936.2 -895.62 
	C 1945.94 -873.76 1961.01 -854.33 1971.4 -832.72 
	C 1978.13 -818.62 1984.93 -804.45 1991.72 -790.28 
	C 1998.01 -777.13 1997.75 -768.67 1997.75 -754.05 
	C 1997.75 -725.46 1998.07 -698.08 2001.66 -669.68 
	C 2003.33 -656.02 2010.89 -641.28 2015.25 -628.26 
	C 2018.84 -617.42 2023.07 -608.13 2028.2 -597.87 
	C 2034.62 -585.11 2040.96 -572.35 2047.37 -559.65 
	C 2063.6 -490.15 2068.15 -422.38 2071.03 -351.09 
	C 2116.3 -289.86 2096.1 -177.199 2104.76 -116.23 
	C 2154.06 -27.75 1962.49 70.789 2153.23 59.629 
	C 2313.33 10.781 2158.29 -8.19897 2240.68 -88.352 
	C 2238.76 -98.859 2192.85 -203.039 2181.63 -340.06 
	C 2182.34 -380.13 2184.2 -429.63 2180.99 -447.71 
	C 2176.44 -473.1 2177.14 -500.6 2175.35 -526.51 
	C 2173.17 -556.19 2168.49 -584.47 2163.29 -613.77 
	C 2158.23 -642.04 2159.06 -669.49 2159.06 -698.08 
	C 2159.06 -707.83 2156.18 -715.13 2153.04 -724.5 
	C 2165.15 -724.5 2178.55 -722.7 2190.48 -725.27 
	C 2203.36 -728.02 2216.19 -730.65 2229.21 -732.7 
	C 2238.25 -734.18 2247.28 -735.65 2256.32 -737.12 
	C 2264.47 -738.41 2264.15 -739.63 2266.84 -731.68 
	C 2271.46 -717.76 2271.78 -704.43 2272.94 -689.81 
	C 2273.89 -677.69 2274.98 -667.18 2278 -655.44 
	C 2281.52 -642.04 2286.65 -628.19 2288.58 -614.41 
	C 2290.95 -598.19 2293.26 -581.78 2295.63 -565.43 
	C 2297.17 -554.27 2302.49 -542.47 2302.49 -531.38 
	C 2302.49 -519.2 2296.66 -506.37 2295.76 -493.94 
	C 2294.67 -478.36 2295.12 -461.69 2292.17 -446.3 
	C 2291.14 -440.53 2289.22 -434.18 2287.68 -427.64 
	C 2276.33 -400.07 2272.87 -372.5 2285.75 -341.86 
	C 2330.96 -272.42 2302.68 -156.949 2313.65 -82.699 
	C 2348.66 -34.039 2275.94 48.41 2328.2 93.738 
	C 2365.97 93.738 2482.66 73.93 2469.71 17.059 
	C 2422.97 -41.859 2429.57 -33.012 2434.32 -103.469 
	C 2417.77 -177.398 2368.73 -251.64 2389.95 -331.98 
	C 2417.26 -371.41 2421.5 -399.69 2417.71 -445.66 
	C 2417.84 -446.55 2417.9 -447.45 2417.97 -448.35 
	C 2420.08 -477.4 2422.26 -505.28 2427.39 -533.88 
	C 2429.51 -546.06 2432.2 -556.77 2430.92 -569.02 
	C 2429.19 -584.27 2427.9 -599.73 2425.92 -615.05 
	C 2422.46 -642.3 2417.77 -669.55 2412.96 -696.61 
	C 2411.36 -705.9 2409.63 -715.2 2407.96 -724.5 
	C 2424.89 -705.2 2441.31 -685.64 2457.98 -666.15 
	C 2468.94 -653.39 2479.84 -640.7 2490.8 -627.94 
	C 2497.79 -619.8 2507.99 -617.29 2514.27 -608.13 
	C 2530.49 -584.21 2546.58 -560.42 2563.89 -537.34 
	C 2569.53 -529.78 2575.24 -522.21 2580.95 -514.58 
	C 2583.32 -511.44 2588.26 -507.02 2589.35 -503.1 
	C 2590.76 -498.23 2594.29 -492.14 2592.23 -487.33 
	C 2588.64 -478.93 2585.05 -470.54 2581.4 -462.13 
	C 2572.36 -440.98 2561.65 -420.66 2551.39 -400.07 
	C 2548.76 -394.81 2546.26 -388.47 2544.02 -381.54 
	C 2534.02 -362.88 2524.91 -344.94 2519.27 -328.14 
	C 2527.16 -276.46 2437.91 -241.26 2460.6 -185.352 
	C 2476.31 -177.328 2511.57 -164.828 2543.05 -162.391 
	C 2538.95 -147.59 2539.27 -132.781 2549.15 -118.41 
	C 2581.01 -110.02 2683.85 -100.781 2685.52 -151.691 
	C 2659.17 -211.7 2662.82 -202.789 2682.44 -261.2 
	C 2683.6 -292.29 2678.66 -325 2676.93 -357.44 
	C 2679.17 -378.02 2682.19 -399.82 2685.39 -417.51 
	C 2690.46 -445.98 2696.42 -474.19 2702.44 -502.4 
	C 2705.39 -515.99 2707.38 -529.78 2709.88 -543.37 
	C 2712.32 -556.9 2711.94 -563.88 2709.43 -577.54 
	C 2704.18 -607.16 2699.56 -636.79 2695.07 -666.54 
	C 2693.28 -679.1 2696.61 -693.72 2697.44 -706.29 
	C 2698.28 -718.02 2699.56 -728.85 2701.61 -740.39 
	C 2707 -770.72 2712.45 -801.05 2717.83 -831.31 
	C 2719.82 -842.6 2728.35 -852.92 2733.99 -862.66 
	C 2739.82 -872.98 2747.78 -883.5 2751.56 -894.79 
	C 2761.18 -923.63 2770.86 -950.31 2784 -977.56 
	C 2796.38 -1003.14 2807.91 -1029.04 2819.39 -1055.01 
	C 2829.01 -1076.55 2834.33 -1100.6 2841.58 -1123.04 
	C 2850.94 -1152.34 2859.27 -1181.12 2866.77 -1211 
	C 2872.61 -1234.34 2878.51 -1259.09 2880.24 -1283.07 
	C 2881.39 -1299.48 2882.67 -1315.83 2883.89 -1332.25 
	C 2884.85 -1345.51 2882.1 -1360 2881.14 -1373.28 
	C 2880.24 -1385.53 2878.44 -1394.11 2874.66 -1405.85 
	C 2870.75 -1417.96 2868.44 -1434.45 2861.84 -1445.34 
	C 2832.28 -1494.01 2802.59 -1541.84 2780.15 -1594.22 
	C 2769.06 -1619.99 2753.87 -1641.08 2737.84 -1664.1 
	C 2721.42 -1687.7 2696.81 -1698.02 2672.25 -1710.71 
	C 2650.39 -1722.06 2624.93 -1724.05 2600.63 -1727.64 
	C 2584.47 -1730.08 2568.25 -1732.45 2552.1 -1734.82 
	C 2539.92 -1736.68 2526.84 -1734.05 2514.65 -1733.15 
	C 2502.79 -1732.32 2492.02 -1731.61 2480.61 -1728.79 
	C 2466.18 -1725.14 2449.64 -1723.22 2435.92 -1717.64 
	C 2422.32 -1712.06 2409.25 -1702.38 2396.49 -1695.14 
	C 2392.06 -1692.57 2371.35 -1677.95 2366.03 -1679.81 
	C 2352.95 -1684.43 2339.81 -1690.26 2326.34 -1693.72 
	C 2311.4 -1697.57 2295.5 -1699.24 2280.24 -1702 
	C 2256.97 -1706.1 2232.22 -1698.98 2208.69 -1697.31 
	C 2196.7 -1696.42 2184.77 -1695.58 2172.78 -1694.68 
	C 2167.4 -1694.3 2161.31 -1692.57 2156.37 -1695.07 
	C 2138.67 -1703.92 2120.98 -1712.77 2103.28 -1721.55 
	L 2135.15 -1717.64 
	L 2103.28 -1735.53 
	L 2153.04 -1731.55 
	C 2141.05 -1738.35 2128.93 -1745.08 2116.88 -1751.81 
	C 2105.52 -1758.16 2098.6 -1764.06 2089.37 -1773.29 
	C 2104.89 -1773.29 2119.76 -1775.41 2135.15 -1777.33 
	L 2089.37 -1791.24 
	L 2113.29 -1791.24 
	L 2075.46 -1815.16 
	L 2103.28 -1815.16 
	L 2061.42 -1841 
	L 2093.34 -1837.02 
	L 2047.5 -1874.85 
	L 2099.37 -1868.89 
	L 2051.54 -1898.7 
	L 2099.37 -1892.74 
	L 2029.61 -1940.5 
	L 2057.44 -1934.54 
	L 2029.61 -1958.45 
	L 2057.44 -1958.45 
	L 1977.81 -2002.25 
	C 2003.84 -2013.34 2024.42 -2035.01 2046.22 -2052.9 
	C 2054.36 -2059.57 2060.71 -2069.5 2067.51 -2077.45 
	C 2078.73 -2090.72 2089.95 -2103.93 2101.23 -2117.2 
	C 2108.22 -2125.41 2120.21 -2130.48 2129.12 -2136.25 
	C 2139.25 -2142.79 2149.7 -2151.44 2160.86 -2156.25 
	C 2187.27 -2167.54 2212.41 -2177.79 2236.51 -2193.25 
	C 2246.77 -2199.91 2262.61 -2206.33 2270.82 -2215.43 
	C 2281.14 -2226.9 2291.46 -2238.32 2301.78 -2249.73 
	C 2309.29 -2258.07 2317.36 -2270.89 2326.73 -2277.11 
	C 2340.52 -2286.28 2354.24 -2295.44 2367.96 -2304.61 
	C 2388.41 -2318.21 2413.28 -2320.96 2437.01 -2326.93 
	C 2464.83 -2333.85 2492.21 -2340.78 2519.52 -2349.5 
	C 2572.17 -2366.42 2618.13 -2394.76 2658.98 -2432.14 
	C 2678.34 -2449.9 2694.04 -2471.82 2713.03 -2490.1 
	C 2732.07 -2508.5 2750.6 -2527.67 2770.41 -2545.24 
	C 2790.48 -2563.25 2809.84 -2585.63 2833.75 -2598.45 
	C 2861.45 -2613.2 2888 -2626.47 2917.04 -2638.2 
	C 2966.28 -2658.27 3018.47 -2672.12 3070.72 -2681.42 
	C 3099.38 -2686.55 3127.85 -2689.69 3156.83 -2692.83 
	Z 
	"/>
</g>
</g >
</g>
</svg>
