<?xml version="1.0" encoding="UTF-8" standalone="no"?>
<!-- Created with Inkscape (http://www.inkscape.org/) -->

<svg
   version="1.1"
   id="svg1"
   width="3139.72"
   height="3139.72"
   viewBox="0 0 3139.72 3139.72"
   sodipodi:docname="tmpei605scj.pdf"
   xmlns:inkscape="http://www.inkscape.org/namespaces/inkscape"
   xmlns:sodipodi="http://sodipodi.sourceforge.net/DTD/sodipodi-0.dtd"
   xmlns="http://www.w3.org/2000/svg"
   xmlns:svg="http://www.w3.org/2000/svg">
  <defs
     id="defs1" />
  <sodipodi:namedview
     id="namedview1"
     pagecolor="#ffffff"
     bordercolor="#000000"
     borderopacity="0.25"
     inkscape:showpageshadow="2"
     inkscape:pageopacity="0.0"
     inkscape:pagecheckerboard="0"
     inkscape:deskcolor="#d1d1d1">
    <inkscape:page
       x="0"
       y="0"
       inkscape:label="1"
       id="page1"
       width="3139.72"
       height="3139.72"
       margin="0"
       bleed="0" />
  </sodipodi:namedview>
  <g
     id="g1"
     inkscape:groupmode="layer"
     inkscape:label="1">
    <g
       id="group-R5">
      <path
         id="path2"
         d="m 12537.6,318.801 c -421.7,-421.699 -1105.6,-421.699 -1527.3,0 L 318.828,11010.3 c -421.766,421.7 -421.766,1105.6 -0.004,1527.3 L 11010.3,23229.1 c 421.7,421.7 1105.6,421.7 1527.3,0 L 23229.1,12537.6 c 421.8,-421.7 421.8,-1105.6 0,-1527.3 L 12537.6,318.801"
         style="fill:#fccc2d;fill-opacity:1;fill-rule:nonzero;stroke:#231f20;stroke-width:5;stroke-linecap:butt;stroke-linejoin:miter;stroke-miterlimit:4;stroke-dasharray:none;stroke-opacity:1"
         transform="matrix(0.13333333,0,0,-0.13333333,0,3139.72)" />
      <path
         id="path3"
         d="M 22720,11519.4 12028.5,827.902 c -140.3,-140.3 -368.7,-140.3 -509.1,0 L 827.945,11519.4 c -140.367,140.4 -140.367,368.7 -0.007,509.1 L 11519.4,22720 c 140.4,140.3 368.8,140.3 509.1,0 L 22720,12028.5 c 140.3,-140.4 140.3,-368.7 0,-509.1 z m 318.2,827.3 -10691.5,10691.5 c -315.8,315.8 -829.7,315.8 -1145.5,0 L 509.742,12346.7 C 193.926,12030.9 193.926,11517 509.746,11201.2 L 11201.2,509.699 c 315.8,-315.797 829.7,-315.797 1145.5,0 L 23038.2,11201.2 c 315.8,315.8 315.8,829.7 0,1145.5"
         style="fill:#231f20;fill-opacity:1;fill-rule:nonzero;stroke:none"
         transform="matrix(0.13333333,0,0,-0.13333333,0,3139.72)" />
      <path
         id="path4"
         d="m 17744.7,10782.9 c -10.7,62.4 -21.8,124.6 -33.2,186.6 -9.2,50.8 -32.3,114.4 -29.7,166.1 8.5,143 16.7,286.3 25,429.2 12.9,225.9 25.3,451.1 70.9,672.7 24.3,117.9 62.3,239.4 68.7,360.1 6.3,125.7 25,254.9 6.9,379.7 -10.7,79.8 -22.4,159.1 -33.8,238.9 -6.7,46.5 -29.2,91.8 -44.4,135.8 -44.9,129.5 -92.1,247.4 -152.9,369.8 -21.8,44.3 -40.5,87 -71.5,125.3 -51.9,63.7 -104.2,127.6 -156.1,191.1 -71.2,87.3 -178.5,157.5 -265.3,229.2 -180.1,148.6 -401.7,234.4 -622.7,304.8 -100.3,32.2 -201,64.3 -301.3,96.4 -61.8,19.5 -124.8,24.4 -189.7,32.5 h 18.1 c -239,36.5 -478.7,61.2 -720.8,42.7 -260.2,-19.9 -516,-68.5 -773.1,-110.3 -148.5,-24.1 -294.7,-80.6 -438.8,-121.4 -169.6,-48.2 -338.7,-96.4 -508,-144.5 h 26.8 c -140.8,-10 -279.5,-4.3 -421,0 -25,0.9 -57.6,21.5 -80.7,30.2 -36.7,13.8 -73.5,27.5 -109.9,41.6 -59.2,22.7 -92.7,104.2 -153.5,126.3 22.5,-90.5 55.7,-174.4 108,-252.1 -56.1,11.2 -110.2,34 -153.3,71.8 -50,43.7 -70.6,86.5 -98.7,144.4 -39.3,-51.8 -70,-106.7 -129.2,-136.6 -59.2,-29.6 -113.6,-29.3 -177.3,-16.6 38.7,25.9 66.8,43 80.8,90.2 14.2,47.8 9.8,84.5 -17.8,126 3.8,-69.2 -44.3,-149.7 -112.7,-172.5 -9.5,-3.4 -37,-16.5 -42.4,-2.4 -8.9,24.8 -17.7,49.5 -26.9,74.2 -12.7,35.5 19.9,69.2 38,100.7 -59.8,-37.4 -103.5,-76.1 -153.5,-126 -16.2,-16.5 -45,-60.5 -67.5,-63.9 -38,-5.7 -75.3,-11.6 -112.4,-17.5 0,16.8 -7.9,42.2 8.9,49 20.6,8 33.6,10.3 45.6,28.3 25.6,38.5 45.6,78 66.2,119.5 33.5,66.2 102.8,123.3 149.7,181.7 -45,-8.9 -100.4,-10.9 -141.2,-29.8 -62.4,-28.3 -124.1,-56.3 -186.5,-84.5 -38.6,-17.7 -96.2,-11.8 -138,-11.8 -66.2,0 -103.5,4.1 -165.2,26.9 l 8.8,9 v -9 c 9.8,32.1 18.1,62.3 32.3,92.6 14.9,32.4 48.8,78.3 49.4,114.6 -40.5,-40.1 -69.3,-76.5 -121.9,-96.8 -64.2,-24.7 -129.1,-49.3 -193.4,-74 15.2,57.1 41.8,112.7 26.9,170.8 -13.6,-35.7 -16.8,-65.9 -49.4,-85.2 -42.4,-24.7 -72.8,-49.7 -121.5,-49.7 17.4,60.6 30,116.7 63,170.9 -32.3,-23.1 -71.3,-44.3 -99.1,-72 -31.4,-30.5 -55.1,-73.3 -81.4,-107.9 0,20.2 -7.3,55.9 1.3,73.9 13.3,29.6 27.5,59 40.8,88.6 26.6,56.5 76,125.1 75.4,188.6 -87.4,-99.6 -189.7,-270.1 -333.4,-270.1 54.5,48.4 89.9,86.8 129.2,148 29.4,46.2 61.4,112.2 59.5,167.2 -57.6,-58 -113.7,-117 -169.1,-176.8 -47.4,-51.3 -113,-86.2 -172.5,-120.5 16.5,16.8 50,38.3 55.7,61.7 5.1,21.9 6.4,77.8 34.2,82.7 -32.9,-10.3 -25,76.7 -27.2,98.9 -23.1,-46.4 -40.2,-94.8 -77.6,-131.4 -37.3,-37.4 -74.7,-74.5 -111.7,-111.9 2.5,21.8 -1.9,70.1 13.3,85.5 22.5,22.5 39.9,51.4 59.2,76.7 l -117.5,-63 c 34.5,83.3 63.7,163.2 81.4,252 -21.2,-20.5 -41.8,-41.1 -62.4,-61.7 -16.4,-16.8 -23.7,-44.6 -37,-64.3 -34.8,-51.1 -73.5,-80.8 -134.9,-80.8 37.1,37.1 62.1,71.8 89.9,116.8 v -17.9 c 15.9,43 28.8,80.9 35.8,126.1 -27.5,-15.6 -65.5,-28.5 -87.4,-52.4 -30.7,-33.7 -59.5,-69.3 -92.4,-100.8 -3.8,32.2 12.3,78.7 15.5,111.8 3.8,34.8 2.5,69.5 2.5,104.4 -8.5,-23.1 -29.4,-40.8 -40.5,-63 -14.9,-28.8 -32,-54.6 -49.4,-81.5 -32.3,-47.6 -76.6,-85.1 -117.1,-125.7 41.2,93 81.1,234.6 -9.5,315.2 -17.4,-25 -13.6,-64.9 -16.1,-94 -3.2,-30.3 -25.7,-58 -40.6,-84.2 -27.5,-49.3 -78.1,-105.5 -132.3,-118.9 0,43 17.4,95.1 9.2,136.1 -6.7,30.6 -7.9,136.9 -44.95,143.1 -14.25,-57.6 -27.86,-110.3 -51.61,-164.6 -8.86,-22.2 -43.05,-16.6 -48.75,6.1 -6.96,30 -7.59,55.6 -7.59,86.5 -43.06,-43.1 -45.27,-102.9 -45.27,-162.3 -48.12,42.5 -70.6,132.4 -98.77,189.2 -15.52,-60.3 -32.29,-119.5 -44.95,-180.1 v 9 c -8.55,-12.2 -31.66,-79.8 -39.89,-82 -18.68,-4.8 -34.19,-14.7 -43.69,5.5 -6.97,14.4 -16.15,22.2 -19.94,37.9 -9.5,36.2 -13.61,86.7 -31.98,119.5 -16.14,29.6 -49.7,55.8 -72.18,81.3 l 36.09,-189.3 c -34.19,11.6 -52.23,9.7 -62.99,45 -8.87,29.6 -16.78,59.5 -25.64,89.4 -18.05,63.5 -37.36,120.4 -64.27,180.8 0.63,-55 -21.84,-109.9 -17.41,-164.2 5.7,-68.4 11.71,-136.9 17.41,-205 -54.13,54 -79.77,123.5 -89.9,198.2 -16.78,-25.3 -11.08,-153.2 -49.71,-153.2 -60.14,0 -76.29,55.6 -80.09,108.3 -9.81,129.1 -23.74,257.7 -23.74,387.1 -8.55,-34.3 -16.78,-68.7 -25.96,-102.7 -8.23,-35.8 -28.17,-47.3 -28.17,-86.4 l -26.91,8.8 h 8.86 c -6.97,21.2 -25.64,28.7 -28.17,50.9 -3.17,28 -8.86,56.1 -7.6,84.5 -29.76,-48.3 -27.23,-121.4 -27.23,-176 0,-21.9 -9.49,-64.6 -17.72,-85.2 -2.22,-5.9 -9.18,7 -9.18,-4.9 0,-7.9 2.53,-11.9 -4.44,-15.7 -20.57,-9.9 -28.81,5.1 -46.84,18.4 -19.95,15 -45.59,27.9 -50.98,52.9 -7.59,34.1 -14.56,66.9 -18.36,101.3 -6.65,58.4 -2.84,122.3 30.71,172.2 -71.86,14.1 -88.64,-119.8 -125.99,-153.2 -31.35,41.6 -39.89,56.8 -26.91,108.2 -41.15,-13.9 -54.77,-46.4 -72.5,-83.9 -13.61,-28.3 -27.22,-56.5 -40.51,-85.1 -3.8,-8.7 -13.62,-42.4 -22.48,-47.2 -19.32,-10.6 -38.62,3.8 -29.13,22.2 9.81,19.7 15.52,38.1 21.84,59.3 12.99,45.6 37.36,85.2 61.1,125.7 -71.22,-28.6 -122.83,-86.4 -181.08,-136.6 -62.99,-54 -127.89,-105.7 -196.58,-151.6 -18.68,19.3 7.59,35.9 18.04,53.9 13.3,24.4 19.63,51.8 28.81,78.1 16.15,47.6 23.74,96 51.92,138.2 -53.82,-54 -107.95,-108 -161.77,-162 -23.11,-23.1 -50.33,-14.4 -21.21,14.7 21.21,21.3 33.88,65.7 48.12,93 -18.04,-26.3 -36.73,-44.4 -63.63,-63 -18.05,-12.5 -73.12,-47.8 -48.75,0.3 15.51,31.5 23.11,64.6 39.25,96.1 5.07,11.2 2.53,33.4 12.66,40.8 14.25,10.9 29.77,20.9 42.43,34 -56.99,-19.3 -79.47,-43.3 -122.52,-86.7 -32.92,-32.8 -60.46,-70.3 -94.02,-102.4 0,68.7 9.18,124.6 30.39,190.1 19.95,58.9 59.52,106.3 86.74,160.9 -85.47,-57.1 -164.61,-118.8 -218.43,-207.1 -12.35,-19 -22.48,-42.5 -37.99,-58.6 -19.31,-19.2 -48.75,-16.9 -29.12,13.3 11.07,16.6 9.17,43.4 17.41,63.9 9.81,24.4 21.84,47.8 34.19,71.6 -53.5,-26.6 -90.54,-72.7 -132.33,-114.3 -11.71,-11.6 -31.02,-53.3 -52.23,-46.4 -19.95,6.5 -23.11,3.3 -20.58,23.3 1.9,18.2 2.53,38.1 7.28,56.5 12.67,54.9 44.32,102.1 63,154.5 12.02,32.1 23.74,63.9 35.14,96.1 6.65,18.3 42.42,48.1 54.77,64.5 -27.86,-19.3 -74.09,-39.2 -92.76,-66.4 -26.28,-37.7 -57.62,-74.6 -78.83,-114.8 -22.48,-42.1 -44.95,-84.5 -67.43,-126.6 -9.81,-17.3 -18.04,-35.3 -27.22,-52.9 -8.86,-18.3 -33.88,-4.6 -49.38,0.6 33.55,49.1 44.95,101.2 44.95,159.6 0,57 36.09,117 63.63,164.5 -51.92,-38.8 -95.61,-86.3 -141.19,-132.4 -11.71,-11.2 -13.62,-38.8 -18.04,-53.6 -13.62,-44 -26.28,-88.4 -39.26,-132.4 -3.8,-11.2 -8.86,-54.9 -19.94,-61.1 -26.28,-14.7 -51.29,-45.5 -73.76,-20.4 -41.79,46.6 -70.28,91.8 -104.16,143.3 -73.12,109.8 -160.81,200.7 -253.26,293.6 -86.73,86.7 -168.4,178.5 -252.29,268 -42.43,45.6 -92.13,78 -143.41,114.2 -41.79,30.3 -81.04,70.2 -133.59,79 -64.26,10.6 -113.02,-6.6 -159.55,-53.1 -44.32,-44.2 -53.19,-89.5 -48.12,-150.4 10.45,-115.7 8.55,-254.5 81.04,-353.2 23.11,-31.5 46.22,-62.6 69.33,-94.1 14.24,-18.9 28.81,-49.7 47.48,-64.3 48.44,-36.9 97.83,-72.2 142.14,-112.7 46.86,-41.8 86.11,-75.2 116.82,-129.8 18.04,-32.7 19.31,-37.2 13.61,-74.2 -5.07,-28.2 -14.25,-58.7 -11.71,-88 -32.61,48.9 -59.52,104.8 -101.31,146.2 -36.09,36.3 -89.9,62.2 -132.32,90.9 -45.9,30.2 -102.26,44.9 -153.54,65.8 -50.97,20.3 -109.53,45 -153.22,77.4 -26.27,20 -44.95,34 -77.56,42.1 -14.87,3.8 -57.93,28.7 -68.69,39 -18.68,19.1 -45.59,27.5 -63,45.2 -19.94,19.7 -39.25,39.1 -59.2,58.7 -39.25,39.6 -80.41,83.3 -140.56,83.3 -27.85,0 -57.93,1.6 -79.77,-19.9 -16.77,-17 -56.67,-47.8 -61.1,-72.7 -22.47,-112 4.43,-248.2 42.43,-355.2 23.73,-66.5 51.28,-123.7 84.84,-186.1 23.74,-42.9 48.75,-100.2 83.57,-134.9 44.95,-44.9 89.91,-90.2 136.76,-133.2 51.28,-47.1 102.25,-80.1 162.08,-116.4 100.04,-61.7 168.73,-162.5 227.29,-260.8 9.82,-15.9 21.22,-64 38,-62.7 -60.47,-20.3 -119.04,11.2 -162.09,54 25.33,-60 50.33,-120.2 75.34,-180.6 19.31,-46.9 52.56,-78.4 86.75,-116.5 l -18.05,17.8 c 11.08,-40.6 -86.11,-22.4 -107.95,-17.8 63.63,-56.7 132.96,-104.2 172.22,-182.2 3.16,-7.1 28.8,-50.5 23.74,-53.4 -16.78,-11.2 -34.83,-28.3 -53.82,-35.3 -41.15,-15.5 -82.31,-30.5 -124.09,-44.6 19.94,-33.1 39.88,-66.6 59.82,-100 25.01,-41.8 16.47,-44.4 -6.01,-89 v 9 c -20.58,-28.9 -43.05,-52.7 -50.65,-87.3 -11.72,-53.1 -9.5,-62.4 14.88,-110.8 17.09,27.8 33.87,56.5 53.18,83.4 27.54,39.2 37.36,51.7 81.68,69.8 16.77,-59.2 45.58,-122.4 54.44,-182.5 9.82,-70.5 8.55,-134.3 -0.63,-205 32.93,16.1 39.89,23.4 58.56,54 5.71,9.3 21.22,25 22.48,35.9 1.27,5.9 -11.39,23.1 -8.86,36.4 21.21,-62.7 8.86,-140.1 8.86,-205.6 0,-71.4 0,-142.3 0,-213.7 0,-151.6 -8.86,-302.3 -8.86,-454.6 l 8.86,9 c 0,-100.5 9.18,-200.8 9.18,-301.3 0,-49.1 8.24,-102.1 18.37,-150.1 9.81,-46.8 12.34,-103 38.62,-143.2 33.55,-49.6 57.93,-96.4 82.94,-150.4 20.58,-44 51.92,-86.8 103.51,-101.5 47.49,-13.9 117.45,0 167.79,0 43.69,0 90.54,24.1 119.98,54 13.61,-19.6 24.38,-48.6 46.85,-58.9 23.11,-10.6 63.63,-40 89.27,-40 59.83,0 120.93,-8.7 176.96,12.8 66.17,25.3 112.38,45 146.26,113 30.39,59.2 0,112.6 0,173.5 0,122.8 37.35,242 127.26,331.9 88.64,88.7 172.84,174.1 249.46,274 45.58,60.8 87.37,117 143.08,168.1 66.17,59.7 132.97,111.4 180.13,186.9 17.73,28.7 40.2,55.6 64.27,79.7 37.03,37.3 52.54,8.3 55.71,-34.1 5.7,-77.4 17.42,-150 36.09,-225.2 12.66,39.6 24.38,84.5 42.42,121.5 10.13,19.2 26.27,34.4 36.41,54 9.18,18.9 8.55,40.4 19.94,58.7 -3.8,-25.6 14.88,-47.4 19.94,-72 5.07,-26.6 10.45,-61.5 26.91,-83.7 21.21,-27.7 35.46,-54 51.6,-85.2 8.87,-18.3 0.63,-63.3 0.63,-83.2 16.15,32.1 50.02,57.4 63,89.9 13.3,33.1 9.5,81 18.68,117 39.89,-67.2 53.82,-129.2 53.82,-206.9 0,-80.3 -31.35,-139.5 -72.5,-207.2 22.48,-4.1 46.86,12.2 63.63,25 21.85,16.1 51.28,26.4 69.96,44.9 40.53,40.2 62.37,87.1 87.37,137.6 19.95,39.3 23.75,24.7 47.49,-6.8 17.41,-22.8 23.11,-42 30.39,-69.3 13.93,-58.1 5.07,-117.3 -28.49,-167.3 87.37,-7.5 117.14,82.7 117.14,152.9 19.3,-25.5 10.12,-65.9 19.3,-94.2 9.5,-28.4 -1.27,-62.7 -1.27,-94.8 54.46,53.9 80.73,111.2 80.73,189 35.46,-46.4 66.79,-110.5 54.77,-171.3 -14.25,-68.1 -65.53,-105.4 -117.76,-143.9 124.09,2.9 203.23,108 252.62,207.2 13.61,-10.3 13.61,-28.6 16.77,-44.3 8.24,-38.6 17.42,-77.1 25.65,-115.7 12.98,-57.8 25.64,-115.7 38.62,-173.2 18.04,53.4 37.04,122.1 89.9,148.5 64.27,32.1 79.14,-101.3 88.65,-135.3 34.19,-118.3 49.38,-240.3 84.2,-359.2 8.23,-28.6 16.78,-57.1 25,-85.8 6.34,-22.1 51.93,-52 68.71,-68.7 41.78,-41.8 92.43,-77.1 138.34,-114.7 98.18,-80.6 186.78,-165.8 276.68,-255.7 43.7,-44 78.5,-96 114,-146.5 28.8,-41.5 24.3,-119.2 24.3,-168.6 0,-114.1 -16.7,-234.9 -68.7,-338.1 -110.1,-220.3 -305.45,-373.9 -450.43,-570.5 -32.29,-43.6 -89.28,-96.4 -105.42,-148.7 -21.85,-71.7 -44.32,-143.3 -66.17,-215.3 -33.55,-107.6 -24.37,-226.2 -46.85,-336.1 -24.37,-121.7 -73.44,-233.6 -125.36,-346 -49.38,-107.6 -111.75,-216.2 -145.94,-329.5 -9.49,-32.5 -17.41,-59.2 -34.5,-87.7 -14.88,-25.2 -10.45,-48 -10.45,-77.2 0,-60.4 1.9,-114.3 11.71,-174.2 19.31,-115.8 -20.57,-231.9 -112.7,-308 -88,-73.6 -178.54,-150 -223.49,-260.2 -44.96,-110.5 -44.96,-224.9 -44.96,-342.2 51.92,17.4 102.89,19 156.7,10 58.57,-10 113.02,-10 172.85,-10 113.02,0 220.34,21.5 281.43,123.8 10.45,17.5 28.49,43.3 28.49,64.6 0,28.1 -3.48,48.7 10.76,72.8 34.19,56.9 68.7,100.3 113.02,149.4 18.05,20.6 21.21,16.4 27.86,48.9 4.43,22.8 -12.98,51.7 -19.94,73 -16.78,50.6 -33.56,101.4 -50.98,152.2 l 9.19,-18 c 37.67,56.5 78.83,85.1 134.22,125.2 10.76,8.1 11.4,67.6 13.62,80.7 5.06,29.6 14.56,62.4 14.56,92.1 0,57.6 -12.03,127.9 1.26,184.1 14.88,64.3 30.4,125.7 50.97,188 77.56,233.2 224.75,432.8 333.95,651.9 59.2,118.2 147.9,216.8 230.2,319.6 18.3,23.5 87.3,126.6 119.3,78.2 26.9,-40.6 16.8,-135.4 20.6,-183.8 9.2,-119.5 4.4,-237.4 24.4,-356.9 7.9,-47.1 2.5,-96.8 2.5,-143.8 0,-90.2 0,-180.1 0,-270.3 0,-47 5.4,-95.2 -5.1,-141.2 -14.2,-62.5 -30.7,-124.3 -47.4,-186.3 -13.7,-50.7 -21.2,-108 -44.4,-155.5 -36,-73.2 -71.2,-146.5 -106.6,-219.6 -10.5,-20.6 -20,-41.2 -30.1,-62.1 -10.5,-21.2 -32.3,-34.4 -40.5,-57.1 -23.1,-62.4 -38.7,-132.8 -79.2,-186.2 -17.4,-23.4 -34.2,-47.1 -50.6,-70.9 -15.5,-21.9 -48.5,-39.6 -68.1,-59.5 -18.7,-18.9 -43.7,-37.2 -59.2,-59.1 -18.7,-26.2 -31,-62 -45.58,-90.8 -17.41,-36.1 -34.82,-70.1 -47.49,-108.3 -6.01,-17.7 -9.17,-35.4 -12.34,-54 -4.43,-27.7 18.05,-21.5 43.69,-27.3 75.02,-16.7 151.62,-34.7 229.52,-34.7 163,0 321,16.3 472,80.9 v -8.9 c 12.3,61.6 33.5,115.6 13.6,175.7 -19.3,57.5 -19.3,117.6 -36.1,177.3 -8.2,28.6 14.3,54.3 27.2,80.1 12.7,26.3 21.9,52.2 31.4,80.2 18,55.6 44.9,97.1 85.5,140.4 89.9,96.4 180.4,188.6 277,277.7 35.7,33.1 114.9,47.5 114.9,102.7 0,68.4 -7,114.1 -38,175.4 -24.4,50.2 -27.6,99.2 -32.6,154.1 -6.7,67.6 -16.8,135.7 -20,203.5 -5.7,132.6 -3.1,266.3 -7.6,399 -7.9,249.3 24.4,496.1 46.9,743.8 10.1,109.2 41.1,216.8 70.6,322.1 19.9,71.4 39.9,142.4 59.8,213.3 13.3,47.2 36.4,112.9 70.6,147.6 10.8,10.6 52.6,9.6 68.7,12.1 32.9,5.4 65.5,10.6 98.5,15.1 55,8 114.2,2.2 170.3,2.2 24.3,0 48.7,0 73.1,0 17.4,0 35.5,0 52.6,0 13.6,0 4.1,-7.6 16.7,-10.9 61.8,-15.4 123.5,-31 185.2,-45.6 481.2,-113 986.1,-119.2 1471.4,-33.4 244.7,43.1 486.9,103.2 719,190.6 104.1,38.8 215.2,88.6 312.7,140.7 114.3,60.9 230.2,119.5 339.4,189.4 41.8,27.1 84.2,54.3 126,81.4 15.8,10 39.6,18.8 53.2,28.2 23.7,16.8 36.1,36.4 63,49.5 93,46.9 190.2,22.2 261.5,-49.5 v 9.3 c 77.8,-100.2 155.4,-200.4 233.9,-300.7 30.7,-40.1 72.5,-69.3 95,-114.9 36.7,-73.3 73.4,-146.6 109.8,-220.2 26,-50.6 64.9,-94.7 98.5,-140.2 28.1,-38.7 69.3,-66.1 97.5,-104.2 79.7,-107 160.8,-211.5 228.9,-325.4 19.9,-33.4 36.7,-69.8 54.4,-104.2 19.3,-38.1 51.6,-80.9 63.6,-122.3 20.6,-71.1 12.4,-170.3 6.7,-243.2 -7.3,-95.7 -20,-172.8 -79.2,-252.3 -51.9,-69.9 -119.3,-126.1 -170.9,-198.1 l 26.9,18 -26.9,-27 v 9 c -34.5,-30.9 -67.4,-64 -107.3,-87.7 -41.2,-24.7 -72.5,-46.6 -108,-78.4 -78.2,-71.4 -152.9,-148.4 -244.1,-203 l 8.9,9 c -173.5,-123.8 -264.6,-310.4 -314.7,-513.5 l 8.9,9 -53.8,-189.1 h 18 c -23.1,-22.8 -37.3,-43.1 -69,-50.9 -31.3,-8 -58.9,-37.8 -83.9,-57.1 -43,-31.8 -66.4,-70.4 -82.9,-121.1 -4.8,-14.6 -128.5,-367.8 -106.1,-374.6 120.7,-35.3 235.9,-74.3 358.4,-33.1 64.9,21.5 126.6,46.5 189.6,72.3 33.6,13.8 114.3,30.7 122.8,59.1 10.8,37.9 21.9,75.8 32,113.4 5.1,17.3 22.5,50.1 16.8,68.7 -9.5,31.5 -18.7,63 -28.2,94.5 -7.2,22.8 -28.5,62.6 -25,86.8 1.9,16 -1.2,69.9 16.5,69.9 41.8,0 82.9,0 124.7,0 24.4,0 26.9,-4.1 39.3,16.2 20.5,35.3 41.1,70.3 62.3,105.2 61.1,103.2 115.6,209.6 181.1,310.1 32.3,48.8 60.5,104 99.7,147.8 47.5,52.9 94.4,106 141.8,158.7 33.6,37.6 56.7,93.8 83,136.9 43.7,72.2 87.4,144.5 131,216.5 7,11.6 13,26.6 22.5,36.3 33,33.1 43.1,35.3 89.3,42.1 53.5,7.7 55.4,-132.7 59.2,-158.8 7.6,-58.7 11.7,-113 11.7,-172.5 0,-51.3 7.6,-108.9 -2.8,-158.9 -16.5,-76.5 -32.7,-152.6 -49.4,-229.1 -9.5,-47 -13.3,-101.9 -33.3,-145.9 -24.3,-54 -64.2,-114.3 -77.2,-172.2 -14.9,-67.2 -28.8,-134.6 -43.7,-201.7 -12.3,-56.4 -41.2,-108.9 -54.5,-164.9 -6.6,-25.7 -13.6,-54.9 -18,-80.9 -6.6,-34.4 12,-48.6 -21.2,-64 -54.8,-25.3 -103.5,-41.7 -144,-85.1 -56.7,-61.6 -113.7,-123.3 -171,-185 -11.4,-12.9 -23.7,-20.6 -25.6,-37.9 -1.3,-16.1 -16.8,-84.2 -1.3,-90 64.3,-24.1 126.6,-36 194.7,-48.8 120.9,-22.5 246.6,6 364.4,30.9 16.7,3.1 47.4,3.1 60.4,15.3 16.5,17.4 61.4,46.9 68.1,70.5 18.7,63.1 26.9,122 26.9,187.8 0,64.3 18,116.7 50.6,169.7 28.5,44.7 63,101.8 102.9,135.8 54.8,47.7 109.9,95.2 165.3,142.7 44.9,39.5 97.5,64.9 150.4,94.4 25.6,14.5 33.8,25.7 51.2,50.9 19.4,26.2 19.4,43.3 25.7,74.8 4.4,21.9 17.4,49.7 6.3,70.3 -19.6,35.9 -39.6,72.3 -59.5,108.6 -54.1,98 -93.4,213.4 -99.7,325.4 -6.3,125.1 -0.7,250.6 -16.2,375 -6.9,56.5 -19.3,112.7 -13.3,169.8 7,77 14.6,153.7 22.5,230.8 12,117.3 29.5,233.8 48.8,350.1 6.3,39.6 12.3,79 18.6,118.6 5.7,32.8 5.1,32.4 -17.4,59 -38,46.1 -82.3,86.5 -122.2,131.3 -168.7,187.2 -218.4,448.4 -145,687.7 20,63.3 48.8,112.7 82.4,170.6 1.9,3.2 -9.2,7.6 -7.3,14.4 3.1,10.3 6.3,20.6 9.2,30.9 12.6,41.2 25.6,82.6 37.6,123.9 35.5,116.7 62.4,232.1 88,351.6 52.3,241.8 119.1,476.7 187.8,714.8 54.1,188.8 108.5,377.8 162.7,566.7 -19.3,-281.5 -39.3,-562.6 -58.6,-844 -5.7,-84.9 -13.6,-169.2 -13.6,-254.1 0,-117.9 3.2,-234.2 -10.1,-351.2 -13.6,-120.8 -26.9,-241.5 -41.2,-362.3 -9.2,-79.3 -8.2,-139.8 0.6,-220 9.6,-85.8 48.2,-165.3 77.9,-246.2 15.2,-42.4 20.3,-87 27.6,-132 8.2,-49.2 20.5,-63.9 53.1,-102.9 l -8.8,90.1 63,-180.3 53.8,117.3 81,-189.3 53.9,63 c 20.5,-55.5 41.1,-109.5 65.5,-163.2 21.8,-47.5 79.1,-82.3 133.3,-79.9 l -225.8,783.5"
         style="fill:#231f20;fill-opacity:1;fill-rule:evenodd;stroke:none"
         transform="matrix(0.13333333,0,0,-0.13333333,0,3139.72)" />
    </g>
  </g>
</svg>
