<?xml version="1.0" encoding="UTF-8" standalone="no"?>
<!-- Created with Inkscape (http://www.inkscape.org/) -->

<svg
   version="1.1"
   id="svg1"
   width="3924.48"
   height="3924.48"
   viewBox="0 0 3924.48 3924.48"
   sodipodi:docname="tmp0gaid8bg.pdf"
   xmlns:inkscape="http://www.inkscape.org/namespaces/inkscape"
   xmlns:sodipodi="http://sodipodi.sourceforge.net/DTD/sodipodi-0.dtd"
   xmlns="http://www.w3.org/2000/svg"
   xmlns:svg="http://www.w3.org/2000/svg">
  <defs
     id="defs1" />
  <sodipodi:namedview
     id="namedview1"
     pagecolor="#ffffff"
     bordercolor="#000000"
     borderopacity="0.25"
     inkscape:showpageshadow="2"
     inkscape:pageopacity="0.0"
     inkscape:pagecheckerboard="0"
     inkscape:deskcolor="#d1d1d1">
    <inkscape:page
       x="0"
       y="0"
       inkscape:label="1"
       id="page1"
       width="3924.48"
       height="3924.48"
       margin="0"
       bleed="0" />
  </sodipodi:namedview>
  <g
     id="g1"
     inkscape:groupmode="layer"
     inkscape:label="1">
    <g
       id="group-R5">
      <path
         id="path2"
         d="m 29035.7,15671.4 c 527.2,-527.2 527.2,-1382 0,-1909.2 L 15671.4,397.902 c -527.2,-527.199 -1382,-527.199 -1909.2,0 L 397.906,13762.2 c -527.207,527.2 -527.207,1382 0,1909.2 L 13762.2,29035.7 c 527.2,527.2 1382,527.2 1909.2,0 L 29035.7,15671.4"
         style="fill:#fccc2d;fill-opacity:1;fill-rule:nonzero;stroke:#231f20;stroke-width:5;stroke-linecap:butt;stroke-linejoin:miter;stroke-miterlimit:4;stroke-dasharray:none;stroke-opacity:1"
         transform="matrix(0.13333333,0,0,-0.13333333,0,3924.48)" />
      <path
         id="path3"
         d="M 28399.3,14398.6 15035,1034.3 c -86.2,-86.3 -196.2,-131.8 -318.2,-131.8 -121.9,0 -232,45.5 -318.2,131.8 L 1034.3,14398.6 c -86.23,86.2 -131.804,196.2 -131.804,318.2 0,121.9 45.574,232 131.804,318.2 l 13364.3,13364.3 c 86.2,86.2 196.3,131.8 318.2,131.8 122,0 232,-45.6 318.2,-131.8 L 28399.3,15035 c 86.2,-86.2 131.8,-196.3 131.8,-318.2 0,-122 -45.6,-232 -131.8,-318.2 z m 381.9,1018.2 -13364.3,13364.3 c -187,187 -435.7,290 -700.1,290 -264.4,0 -513,-103 -700,-290 L 652.457,15416.8 c -186.984,-187 -289.961,-435.6 -289.961,-700 0,-264.5 102.977,-513.1 289.961,-700.1 L 14016.8,652.402 c 187,-187 435.6,-289.902 700,-289.902 264.4,0 513.1,102.902 700.1,289.902 L 28781.2,14016.7 c 187,187 289.9,435.6 289.9,700.1 0,264.4 -102.9,513 -289.9,700"
         style="fill:#231f20;fill-opacity:1;fill-rule:nonzero;stroke:none"
         transform="matrix(0.13333333,0,0,-0.13333333,0,3924.48)" />
      <path
         id="path4"
         d="m 14080.2,14895.7 c 435.3,0 790.3,-355 790.3,-790.3 0,-435.3 -355,-790.2 -790.3,-790.2 -435.2,0 -790.2,354.9 -790.2,790.2 0,435.3 355,790.3 790.2,790.3"
         style="fill:#231f20;fill-opacity:1;fill-rule:evenodd;stroke:none"
         transform="matrix(0.13333333,0,0,-0.13333333,0,3924.48)" />
      <path
         id="path5"
         d="m 11687.5,9912.7 1657.8,1105.1 c 76.6,323.9 394.4,1761.9 1032.1,2094.7 631.5,417.5 2960.2,-1297.9 2973.6,-1312 V 9298.1 l -504.9,87.8 -197.6,1997.5 c -190.2,38.3 -380.5,76.6 -570.7,114.8 415.7,-1074.7 568.4,-2110.5 329.3,-2792.8 l 1009.7,-4126.9 -680.5,-482.8 -1470.7,3819.4 -680.5,-724.4 -943.9,-2875.5 -900,329.2 812.2,3029.3 943.9,1690.2 -361.8,1247.5 -384.6,-501.1 -1799.9,-592.7 -263.5,395.1"
         style="fill:#231f20;fill-opacity:1;fill-rule:evenodd;stroke:none"
         transform="matrix(0.13333333,0,0,-0.13333333,0,3924.48)" />
      <path
         id="path6"
         d="m 18925.4,16464.8 c -927.1,0 -1712.4,606.7 -1981,1444.6 l 1849.2,398.2 c 39.1,-21.7 84,-34.1 131.8,-34.1 150,0 271.5,121.5 271.5,271.5 0,130.8 -92.5,240.1 -215.8,265.7 L 17844,20322.2 c 315.1,192.2 685.3,302.9 1081.4,302.9 1148.9,0 2080.2,-931.3 2080.2,-2080.1 0,-1148.8 -931.3,-2080.2 -2080.2,-2080.2 z M 16845.3,18545 c 0,605.9 259.1,1151.2 672.5,1531.3 l 1052.4,-1398.9 -1711.5,-368.6 c -8.7,77.5 -13.4,156.3 -13.4,236.2 z m -461.5,-338.5 -813.7,-175.2 944.7,3378.3 711,-945.2 c -530,-469.7 -864.2,-1155.5 -864.2,-1919.4 0,-114.8 7.6,-227.7 22.2,-338.5 z m -1158.5,108.6 -126.2,479.9 h 197.1 v 193.5 h -622.9 V 18795 h 247.9 l 125.3,-476.1 -2680.1,2917 c 43.5,138.8 88.1,282 132.1,424.5 h 3662.2 z m -2637,229.9 c 0,-1148.8 -931.3,-2080.2 -2080.1,-2080.2 -1148.83,0 -2080.14,931.4 -2080.14,2080.2 0,1148.8 931.31,2080.1 2080.14,2080.1 408.4,0 789.2,-117.8 1110.6,-321.1 -255.5,-554.2 -753.7,-1151.1 -1112.7,-1487.6 -149,-1.1 -269.4,-122.2 -269.4,-271.4 0,-150 121.5,-271.5 271.5,-271.5 138.6,0 252.8,103.9 269.4,238 175.6,164.5 404.9,406.6 631.6,696.6 168.7,215.8 378.9,514.1 539.2,837.7 394.4,-378.5 639.9,-911 639.9,-1500.8 z m 6337.1,2563.9 c -505.2,0 -976.3,-146.3 -1373.4,-398.6 l -898.7,1194.6 117.9,421.6 c 563.4,48.5 875,262.7 855.9,469.9 -18.5,200.9 -577.5,50.4 -1199.1,42.4 -170.5,-2.1 -1075,1.9 -1069.8,-164 5.4,-170.1 583.7,-308.7 989,-347.6 l -72.2,-258.3 h -3650.8 c 77.8,253.9 149,488.2 204,669.8 47,155.2 82.1,272 99.5,329.9 l -265.5,203 125.5,127 h 977.7 v 322.5 h -1112.5 l -477.4,-483.3 306.1,-234 c -141.8,-469.4 -476.6,-1572.2 -693.3,-2236.9 -376.7,217.5 -813.9,342 -1280.1,342 -1416,0 -2563.89,-1147.9 -2563.89,-2563.9 0,-1416 1147.89,-2563.9 2563.89,-2563.9 1416,0 2563.9,1147.9 2563.9,2563.9 0,796.7 -363.5,1508.6 -933.6,1978.9 26.4,80 55.2,168.5 85.6,263.1 L 14983,17784.2 c -0.7,-7.9 -1.1,-15.8 -1.1,-23.9 0,-162.5 129.1,-294.8 290.4,-300.1 l 193.2,-734.6 h -197.1 v -193.5 h 622.9 v 193.5 h -247.9 l -204.7,778.3 c 41.8,25.5 76.8,61 101.9,103.1 l 928.9,200.1 c 317,-1056.3 1296.5,-1826 2455.9,-1826 1416,0 2563.9,1147.9 2563.9,2563.9 0,1416 -1147.9,2563.9 -2563.9,2563.9"
         style="fill:#231f20;fill-opacity:1;fill-rule:nonzero;stroke:none"
         transform="matrix(0.13333333,0,0,-0.13333333,0,3924.48)" />
    </g>
  </g>
</svg>
