<?xml version="1.0" encoding="UTF-8" standalone="no"?>
<!-- Created with Inkscape (http://www.inkscape.org/) -->

<svg
   version="1.1"
   id="svg1"
   width="3924.48"
   height="3924.48"
   viewBox="0 0 3924.48 3924.48"
   sodipodi:docname="tmpqowhlv8v.pdf"
   xmlns:inkscape="http://www.inkscape.org/namespaces/inkscape"
   xmlns:sodipodi="http://sodipodi.sourceforge.net/DTD/sodipodi-0.dtd"
   xmlns="http://www.w3.org/2000/svg"
   xmlns:svg="http://www.w3.org/2000/svg">
  <defs
     id="defs1" />
  <sodipodi:namedview
     id="namedview1"
     pagecolor="#ffffff"
     bordercolor="#000000"
     borderopacity="0.25"
     inkscape:showpageshadow="2"
     inkscape:pageopacity="0.0"
     inkscape:pagecheckerboard="0"
     inkscape:deskcolor="#d1d1d1">
    <inkscape:page
       x="0"
       y="0"
       inkscape:label="1"
       id="page1"
       width="3924.48"
       height="3924.48"
       margin="0"
       bleed="0" />
  </sodipodi:namedview>
  <g
     id="g1"
     inkscape:groupmode="layer"
     inkscape:label="1">
    <g
       id="group-R5">
      <path
         id="path2"
         d="m 15671.4,397.902 c -527.2,-527.199 -1382,-527.199 -1909.2,0 L 397.898,13762.2 c -527.207,527.2 -527.207,1382 0,1909.2 L 13762.2,29035.7 c 527.2,527.2 1382,527.2 1909.2,0 L 29035.7,15671.4 c 527.2,-527.2 527.2,-1382 0,-1909.2 L 15671.4,397.902"
         style="fill:#fccc2d;fill-opacity:1;fill-rule:nonzero;stroke:#231f20;stroke-width:5;stroke-linecap:butt;stroke-linejoin:miter;stroke-miterlimit:4;stroke-dasharray:none;stroke-opacity:1"
         transform="matrix(0.13333333,0,0,-0.13333333,0,3924.48)" />
      <path
         id="path3"
         d="M 28399.3,14398.6 15035,1034.3 c -175.4,-175.499 -460.9,-175.499 -636.4,0 L 1034.3,14398.6 c -175.456,175.4 -175.452,460.9 0,636.4 l 13364.3,13364.3 c 175.5,175.5 461,175.5 636.4,0 L 28399.3,15035 c 175.5,-175.5 175.5,-461 0,-636.4 z m 381.9,1018.2 -13364.4,13364.3 c -386,386 -1014,386 -1400,0 L 652.461,15416.8 c -385.996,-386 -386,-1014 0,-1400.1 L 14016.8,652.402 c 386,-386 1014,-386 1400,0 L 28781.2,14016.7 c 386,386.1 386,1014.1 0,1400.1"
         style="fill:#231f20;fill-opacity:1;fill-rule:nonzero;stroke:none"
         transform="matrix(0.13333333,0,0,-0.13333333,0,3924.48)" />
      <path
         id="path4"
         d="m 22299.3,11956.3 c -16.7,142.8 3.6,370.3 30,540.2 30.7,197.9 29.9,386.4 29.9,587.3 0,157.5 29.9,314.9 29.9,472.4 v 1287.2 c 0,19.4 1,38.8 0,58.2 -12.9,252.6 -56.8,645.5 -152.7,932.8 -118.5,355.5 -227.8,739.5 -406,1073.5 -214.6,402.5 -441.7,658.7 -741.5,992.1 -99.9,111 -500.2,452 -830.7,653.6 -163.2,99.6 -571.5,279.7 -1048.4,345.1 -375.3,51.5 -760.1,107.9 -1139.2,107.9 -191.1,0 -380.9,30.3 -571.3,30.3 -165,0 -332.9,-26.1 -497.9,-38.3 -432.7,-32 -863.3,-94.3 -1297.1,-103.5 -115.4,-2.5 -472.1,-75.1 -494.4,-65 -172.1,77.4 -358.8,77.4 -545.5,101.8 -414.2,54.3 -826.1,121 -1238.8,186 -226.5,35.7 -509.9,91.6 -696.4,98.7 -78.4,2.9 -215.2,-24.5 -310,-45.5 -65.9,-14.6 -386.3,-80.1 -505,-199.2 -56.3,-56.4 -114.7,-115 -114.7,-115 0,0 -589.4,107.5 -1080.3,59.9 -482.1,-46.8 -865.46,-248.6 -907.39,-262.6 -7.25,-2.4 -17.92,-9.6 -26.59,-4 -67.69,43.9 -169.47,27.2 -221.95,30.1 -85.11,4.6 -179.78,-12.1 -253.83,-33.6 -28.77,301.1 -213.35,463.6 -478.76,463.6 -293.39,0 -531.24,-237.8 -531.24,-531.2 0,-101.2 28.3,-195.7 77.4,-276.2 -2.33,-24.3 -11.2,-47 -23.66,-68.6 -25.68,-44.6 -35.35,-68.9 -66.69,-95 -43.4,-36.1 -85.86,-71.1 -126.13,-106.7 -104.63,-61.4 -195.22,-176.3 -250.89,-322.5 -14.52,-35.5 -26.24,-73.5 -34.7,-114.5 -5.13,-22.3 -9.57,-45 -13.11,-68.2 -18.19,-119.5 -11.82,-234.5 14.07,-335 -1.77,-68 -13.8,-133.7 -50.73,-194.8 -42.91,-71 -118.01,-122.5 -147.17,-203.8 -23.26,-64.9 -57.08,-143.2 -129.43,-182.3 -111.27,-60.2 -269.53,-63.8 -276.65,-64.2 -13.37,2.3 -27.02,3.7 -41.03,3.7 -136.34,0 -246.87,-110.5 -246.87,-246.9 0,-103.6 63.99,-192.2 154.56,-228.8 28.07,-20.5 58.98,-41 91.29,-62.6 53.47,-35.8 53.25,-98.8 55.07,-157.3 -0.06,-0.4 -0.18,-0.7 -0.22,-1.1 -2.81,-23.6 0.32,-46.9 8.03,-68.9 1.8,-6.5 4.03,-12.7 6.87,-18.5 0.47,-0.9 1.26,-1.9 1.82,-2.9 0.12,-0.1 0.3,-0.1 0.43,-0.2 33.65,-66.1 111.1,-117.8 206.37,-129.1 31.35,-3.8 61.79,-2.6 90.37,2.4 -19.73,-69.6 -0.82,-157.6 56.66,-230.7 3.72,-4.7 7.64,-9.1 11.55,-13.5 56.49,-114.1 173.86,-192.7 309.78,-192.7 29.2,0 57.53,3.7 84.61,10.5 15.87,1.4 32.7,3.6 51.22,6.7 70.22,11.8 145,20.2 213.31,-2.6 174.32,-58.2 348.22,-117 530.09,-147.3 210.04,-34.9 412.15,-58.3 624.54,-73.7 100.92,-7.3 145.44,-12.7 128.31,-133 -12.76,-89.5 -35.02,-174.3 -17.32,-263.2 34.96,-175.3 92.65,-335.2 48.08,-510.8 -40.42,-159.2 -200.62,-290.7 -320.72,-410.8 -125.82,-125.9 -281.88,-254 -362.68,-416 -94.54,-189.4 -126.48,-346.6 -126.48,-556.8 0,-380 186.45,-680.4 486.66,-901.8 625.55,-461.2 1043.35,-385 1043.35,-385 0,0 0,549.9 0,601.9 0,41.4 0,238.3 0,238.3 0,0 -1.9,-0.6 0,0 52,17.4 219.4,72.2 272.9,91 350.4,122.9 699.1,305 982.8,452.4 74.3,38.5 133.9,75.4 198.5,108.6 5.3,2.8 85,71.7 133.9,152 28.9,47.6 40.9,93.3 57.2,147 4.4,64 4.4,206.9 4.4,278.9 v 269.9 c 95.9,-112.2 182.1,-102.2 293.8,-147.6 66.2,-26.9 126.4,-61.9 126.4,-61.9 0,0 -19,-95.4 -36.3,-182 -43.4,-217.3 -55.3,-438.8 -84,-658.4 -25,-191.8 -50,-384.3 -96.1,-572 -43.7,-177.5 -12.7,-344.6 -24.4,-520.7 -7.6,-113.5 -20.3,-304.5 -28.9,-458.5 -2.4,-42.1 -32.5,-74.2 -60.1,-98.4 -130.6,-114.3 -381.9,-55.3 -540,-90.2 -184.2,-40.6 -307,-117.1 -401.2,-286.2 -42.4,-76.1 -109.2,-164.3 -109.2,-164.3 0,-30.4 0,-119.8 0,-119.8 0,0 68.3,0 84.1,0 h 2020.1 c 508.5,0 666.6,424.5 746.1,570.3 87.3,160.4 141.5,345.9 211.5,514 133.3,319.8 262.4,717.6 372.8,1092.3 58.5,198.6 132.7,499.3 179.9,761.3 3.8,21.4 42.2,341.5 45.7,362.3 l 329.8,-210 c 77.1,-31.3 332.7,-227.1 330,-239.7 -2.6,-12.2 11.4,-117.7 -27.3,-177.3 -16.1,-69.1 -34.7,-138.8 -41.7,-195.1 -11.3,-90 -36,-196.4 -21,-287.7 5.6,-34.4 28.4,-201.4 39.4,-219.4 55.8,-92.3 98.1,-145.3 170.7,-230.6 51.8,-60.7 106.2,-115.4 157.3,-176.9 133.6,-160.5 242.4,-291.1 416.6,-437.8 82.3,-69.4 361,-301.9 386.3,-375.8 16.5,-48.3 -350.1,-140 -480.4,-209.9 -146.7,-78.9 -341.9,-159.3 -434.8,-314.7 -27.4,-45.8 -222.3,-404.9 -90.6,-404.9 h 2050.7 c 196.5,0 670.3,0 670.3,0 0,0 114,40.4 160.1,166.3 93.2,254.5 56.1,362.6 74.3,574.6 10.6,123.6 -89.8,429.2 -89.8,429.2 0,0 22.1,11 31.2,15.6 359,179.7 616.3,421.7 898.9,704 293.1,-441.7 662.6,-837.1 1020,-1230 -129.3,-86 -304.4,-153.6 -413.5,-263.1 -52.2,-52.5 -109.9,-107.9 -134,-179.8 -2.5,-7.4 -74.4,-216.8 -51.7,-216.8 h 1327.7 c 77.7,0 193.3,0 193.3,0 0,0 104.6,50.2 177,105.3 174.9,133.1 338.6,238.3 514.4,351.2 147.4,94.8 308.5,176.2 433.4,299.7 116.8,115.6 133.3,316.9 143.1,474.6 12.6,202.5 -135.3,385.8 -149.7,508.7"
         style="fill:#231f20;fill-opacity:1;fill-rule:nonzero;stroke:none"
         transform="matrix(0.13333333,0,0,-0.13333333,0,3924.48)" />
    </g>
  </g>
</svg>
