<?xml version="1.0" standalone="no"?>
<svg width="2375px" height="2375px" viewBox="-10 -1573 2375 2375 " xmlns="http://www.w3.org/2000/svg" xmlns:xlink="http://www.w3.org/1999/xlink">
<title>generated by pstoedit</title>
<!-- generated by pstoedit version:4.02 -->
<g xml:space='preserve'>
<clipPath id="clippath1"> 	<path d="
	M 0 -1562.79 
	L 0 792 
	L 2354.79 792 
	L 2354.79 -1562.79 
	Z 
	" style="clip-rule:nonzero"/>
</clipPath>
<g style="clip-path:url(#clippath1)"> 
<g fill="#95e8ff" fill-rule="nonzero" stroke-width="0" stroke-linejoin="miter" stroke-linecap="butt" stroke-miterlimit="10" >
	<path d="
	M 1253.76 760.121 
	C 1211.59 802.289 1143.21 802.289 1101.03 760.121 
	L 31.8828 -309.03 
	C -10.293 -351.2 -10.293 -419.59 31.8828 -461.76 
	L 1101.03 -1530.91 
	C 1143.21 -1573.09 1211.59 -1573.09 1253.76 -1530.91 
	L 2322.91 -461.76 
	C 2365.09 -419.59 2365.09 -351.2 2322.91 -309.03 
	Z 
	"/>
</g>
<g stroke="#7f7f7f" fill="none" stroke-width="0.5" stroke-linejoin="miter" stroke-linecap="butt" stroke-miterlimit="4" >
	<path d="
	M 1253.76 760.121 
	C 1211.59 802.289 1143.21 802.289 1101.03 760.121 
	L 31.8828 -309.03 
	C -10.293 -351.2 -10.293 -419.59 31.8828 -461.76 
	L 1101.03 -1530.91 
	C 1143.21 -1573.09 1211.59 -1573.09 1253.76 -1530.91 
	L 2322.91 -461.76 
	C 2365.09 -419.59 2365.09 -351.2 2322.91 -309.03 
	Z 
	"/>
</g>
<g fill="#7f7f7f" fill-rule="nonzero" stroke-width="0" stroke-linejoin="miter" stroke-linecap="butt" stroke-miterlimit="4" >
	<path d="
	M 2272 -359.94 
	L 1202.85 709.211 
	C 1188.82 723.238 1165.98 723.238 1151.94 709.211 
	L 82.793 -359.94 
	C 68.7578 -373.98 68.7578 -396.81 82.793 -410.85 
	L 1151.94 -1480 
	C 1165.98 -1494.03 1188.82 -1494.03 1202.85 -1480 
	L 2272 -410.85 
	C 2286.03 -396.81 2286.03 -373.98 2272 -359.94 
	Z 
	M 2303.82 -442.67 
	L 1234.67 -1511.82 
	C 1203.09 -1543.4 1151.7 -1543.4 1120.12 -1511.82 
	L 50.9766 -442.67 
	C 19.3945 -411.09 19.3945 -359.7 50.9766 -328.12 
	L 1120.12 741.031 
	C 1151.7 772.609 1203.09 772.609 1234.67 741.031 
	L 2303.82 -328.12 
	C 2335.4 -359.7 2335.4 -411.09 2303.82 -442.67 
	Z 
	"/>
</g>
<g fill="#7f7f7f" fill-rule="evenodd" stroke-width="0" stroke-linejoin="miter" stroke-linecap="butt" stroke-miterlimit="4" >
	<path d="
	M 1126.47 -394.26 
	C 1161.29 -394.26 1189.69 -365.86 1189.69 -331.04 
	C 1189.69 -296.22 1161.29 -267.82 1126.47 -267.82 
	C 1091.65 -267.82 1063.25 -296.22 1063.25 -331.04 
	C 1063.25 -365.86 1091.65 -394.26 1126.47 -394.26 
	Z 
	"/>
</g>
<g fill="#7f7f7f" fill-rule="evenodd" stroke-width="0" stroke-linejoin="miter" stroke-linecap="butt" stroke-miterlimit="4" >
	<path d="
	M 935.055 4.37903 
	L 1067.67 -84.031 
	C 1073.8 -109.941 1099.23 -224.98 1150.24 -251.6 
	C 1200.76 -285.01 1387.06 -147.77 1388.13 -146.648 
	L 1388.13 53.551 
	L 1347.74 46.52 
	L 1331.93 -113.281 
	C 1316.71 -116.34 1301.49 -119.398 1286.27 -122.461 
	C 1319.53 -36.48 1331.75 46.379 1312.62 100.969 
	L 1393.4 431.109 
	L 1338.96 469.738 
	L 1221.3 164.18 
	L 1166.86 222.141 
	L 1091.35 452.18 
	L 1019.35 425.84 
	L 1084.32 183.5 
	L 1159.84 48.281 
	L 1130.89 -51.512 
	L 1100.13 -11.43 
	L 956.129 35.988 
	Z 
	"/>
</g>
<g fill="#7f7f7f" fill-rule="nonzero" stroke-width="0" stroke-linejoin="miter" stroke-linecap="butt" stroke-miterlimit="4" >
	<path d="
	M 1510.17 -522.51 
	C 1436.86 -522.51 1374.77 -570.47 1353.53 -636.73 
	L 1499.75 -668.22 
	C 1502.83 -666.5 1506.39 -665.52 1510.17 -665.52 
	C 1522.03 -665.52 1531.64 -675.13 1531.64 -686.98 
	C 1531.64 -697.33 1524.32 -705.97 1514.57 -708 
	L 1424.66 -827.51 
	C 1449.58 -842.7 1478.85 -851.46 1510.17 -851.46 
	C 1601.01 -851.46 1674.65 -777.82 1674.65 -686.98 
	C 1674.65 -596.15 1601.01 -522.51 1510.17 -522.51 
	Z 
	M 1345.7 -686.98 
	C 1345.7 -734.89 1366.18 -778.01 1398.87 -808.07 
	L 1482.08 -697.45 
	L 1346.76 -668.31 
	C 1346.06 -674.44 1345.7 -680.67 1345.7 -686.98 
	Z 
	M 1309.21 -660.22 
	L 1244.87 -646.36 
	L 1319.56 -913.48 
	L 1375.79 -838.75 
	C 1333.87 -801.61 1307.45 -747.39 1307.45 -686.98 
	C 1307.45 -677.91 1308.05 -668.98 1309.21 -660.22 
	Z 
	M 1217.6 -668.8 
	L 1207.62 -706.75 
	L 1223.21 -706.75 
	L 1223.21 -722.05 
	L 1173.96 -722.05 
	L 1173.96 -706.75 
	L 1193.56 -706.75 
	L 1203.46 -669.11 
	L 991.551 -899.75 
	C 994.992 -910.73 998.512 -922.05 1002 -933.32 
	L 1291.57 -933.32 
	Z 
	M 1009.1 -686.98 
	C 1009.1 -596.15 935.457 -522.51 844.621 -522.51 
	C 753.785 -522.51 680.145 -596.15 680.145 -686.98 
	C 680.145 -777.82 753.785 -851.46 844.621 -851.46 
	C 876.914 -851.46 907.027 -842.14 932.434 -826.07 
	C 912.234 -782.25 872.84 -735.05 844.457 -708.45 
	C 832.676 -708.36 823.152 -698.79 823.152 -686.98 
	C 823.152 -675.13 832.766 -665.52 844.621 -665.52 
	C 855.582 -665.52 864.613 -673.73 865.922 -684.34 
	C 879.809 -697.34 897.938 -716.48 915.867 -739.42 
	C 929.203 -756.48 945.82 -780.07 958.496 -805.66 
	C 989.68 -775.72 1009.1 -733.62 1009.1 -686.98 
	Z 
	M 1510.17 -889.71 
	C 1470.22 -889.71 1432.97 -878.14 1401.58 -858.19 
	L 1330.51 -952.65 
	L 1339.83 -985.99 
	C 1384.38 -989.82 1409.02 -1006.76 1407.51 -1023.14 
	C 1406.05 -1039.02 1361.85 -1027.13 1312.7 -1026.5 
	C 1299.22 -1026.33 1227.7 -1026.65 1228.11 -1013.52 
	C 1228.54 -1000.08 1274.26 -989.11 1306.31 -986.05 
	L 1300.6 -965.62 
	L 1011.94 -965.62 
	C 1018.08 -985.7 1023.71 -1004.22 1028.06 -1018.58 
	C 1031.78 -1030.86 1034.56 -1040.09 1035.93 -1044.66 
	L 1014.94 -1060.72 
	L 1024.86 -1070.76 
	L 1102.17 -1070.76 
	L 1102.17 -1096.26 
	L 1014.2 -1096.26 
	L 976.457 -1058.04 
	L 1000.65 -1039.54 
	C 989.445 -1002.43 962.973 -915.23 945.84 -862.66 
	C 916.055 -879.86 881.488 -889.71 844.621 -889.71 
	C 732.66 -889.71 641.895 -798.95 641.895 -686.98 
	C 641.895 -575.02 732.66 -484.26 844.621 -484.26 
	C 956.582 -484.26 1047.35 -575.02 1047.35 -686.98 
	C 1047.35 -749.98 1018.61 -806.27 973.527 -843.45 
	C 975.621 -849.78 977.895 -856.78 980.301 -864.26 
	L 1198.44 -626.83 
	C 1198.39 -626.21 1198.36 -625.58 1198.36 -624.94 
	C 1198.36 -612.09 1208.57 -601.63 1221.32 -601.21 
	L 1236.6 -543.13 
	L 1221.01 -543.13 
	L 1221.01 -527.83 
	L 1270.26 -527.83 
	L 1270.26 -543.13 
	L 1250.66 -543.13 
	L 1234.47 -604.66 
	C 1237.78 -606.68 1240.55 -609.49 1242.53 -612.82 
	L 1315.98 -628.64 
	C 1341.04 -545.12 1418.49 -484.26 1510.17 -484.26 
	C 1622.13 -484.26 1712.9 -575.02 1712.9 -686.98 
	C 1712.9 -798.95 1622.13 -889.71 1510.17 -889.71 
	Z 
	"/>
</g>
</g >
</g>
</svg>
