<?xml version="1.0" encoding="UTF-8" standalone="no"?>
<!-- Created with Inkscape (http://www.inkscape.org/) -->

<svg
   version="1.1"
   id="svg1"
   width="3924.48"
   height="3924.48"
   viewBox="0 0 3924.48 3924.48"
   sodipodi:docname="tmp587bjbjw.pdf"
   xmlns:inkscape="http://www.inkscape.org/namespaces/inkscape"
   xmlns:sodipodi="http://sodipodi.sourceforge.net/DTD/sodipodi-0.dtd"
   xmlns="http://www.w3.org/2000/svg"
   xmlns:svg="http://www.w3.org/2000/svg">
  <defs
     id="defs1" />
  <sodipodi:namedview
     id="namedview1"
     pagecolor="#ffffff"
     bordercolor="#000000"
     borderopacity="0.25"
     inkscape:showpageshadow="2"
     inkscape:pageopacity="0.0"
     inkscape:pagecheckerboard="0"
     inkscape:deskcolor="#d1d1d1">
    <inkscape:page
       x="0"
       y="0"
       inkscape:label="1"
       id="page1"
       width="3924.48"
       height="3924.48"
       margin="0"
       bleed="0" />
  </sodipodi:namedview>
  <g
     id="g1"
     inkscape:groupmode="layer"
     inkscape:label="1">
    <g
       id="group-R5">
      <path
         id="path2"
         d="m 15671.4,397.902 c -527.2,-527.199 -1382,-527.199 -1909.2,0 L 397.898,13762.2 c -527.207,527.2 -527.207,1382 0,1909.2 L 13762.2,29035.7 c 527.2,527.2 1382,527.2 1909.2,0 L 29035.7,15671.4 c 527.2,-527.2 527.2,-1382 0,-1909.2 L 15671.4,397.902"
         style="fill:#fccc2d;fill-opacity:1;fill-rule:nonzero;stroke:#231f20;stroke-width:5;stroke-linecap:butt;stroke-linejoin:miter;stroke-miterlimit:4;stroke-dasharray:none;stroke-opacity:1"
         transform="matrix(0.13333333,0,0,-0.13333333,0,3924.48)" />
      <path
         id="path3"
         d="M 28399.3,14398.6 15035,1034.3 c -175.4,-175.499 -460.9,-175.499 -636.4,0 L 1034.3,14398.6 c -175.456,175.4 -175.452,460.9 0,636.4 l 13364.3,13364.3 c 175.5,175.5 461,175.5 636.4,0 L 28399.3,15035 c 175.5,-175.5 175.5,-461 0,-636.4 z m 381.9,1018.2 -13364.4,13364.3 c -386,386 -1014,386 -1400,0 L 652.461,15416.8 c -385.996,-386 -386,-1014 0,-1400.1 L 14016.8,652.402 c 386,-386 1014,-386 1400,0 L 28781.2,14016.7 c 386,386.1 386,1014.1 0,1400.1"
         style="fill:#231f20;fill-opacity:1;fill-rule:nonzero;stroke:none"
         transform="matrix(0.13333333,0,0,-0.13333333,0,3924.48)" />
      <path
         id="path4"
         d="m 21478.2,9810.9 c -35.8,70.9 -69,139.9 -96.7,214.6 -28,74.1 11.7,155 39.6,221.2 29.3,69.8 61,133 83.3,206.1 17.4,59 -65.1,143.8 -100.8,191.9 -22.1,28.9 -42.1,58.6 -62.6,89.3 -28.7,42.5 -29.5,56.3 -29.5,108.3 0,23.9 50.8,70.2 65.9,90.1 19.1,25.8 58,32.9 77.7,59.8 26.2,34.3 56.3,60.1 56.3,103.3 0,44.3 -31.6,74 -57,109.8 -19.8,28.1 -38.9,56.3 -57.9,84.8 -7.2,10.8 -62.7,71.6 -62.7,80.2 0,77.4 8.8,153.6 11.1,231 1.6,32.1 1.6,65.1 -2.3,97.2 -4.9,35.7 4.7,76.2 -7.3,102.4 -15.8,34 -28.5,71.7 -47.5,104 -29.5,47.9 -31,55.5 -23.8,109.8 11.9,82.1 27.7,161.5 45.1,242.4 7.3,33.6 6.5,53.6 23.1,86 17.4,35.8 25.4,80.1 37.3,117.9 18.2,60.7 13.5,142.8 -24.6,196.8 -19.9,29.3 -60.4,53.2 -87.4,76.6 -28.5,25 -49.8,67.8 -72.1,98.3 -37.3,51.2 -60.4,128.3 -50,191.6 9.6,58.8 32.6,97.3 66.6,145.6 22.3,31.1 87.4,100.8 87.4,137.8 0,61 -22.3,117.5 -38.9,176.1 -6.4,22.3 -5.7,41.6 -5.7,65.1 0,29.7 -11.1,55.1 -20.5,83.7 -38.1,113.9 -21.5,216.9 1.6,332.1 20.5,103.9 91.2,188.8 152.2,272.8 v -22.5 c 22.3,22.1 47.7,42.5 63.6,69 16.6,27.8 58.6,73.3 58.6,106.4 0,28.5 11.1,80.9 -1.5,107.1 -22.1,43.6 -43.7,87.2 -65.9,131 -69.8,139.5 75.4,297.1 153.2,401 30.1,40.9 -3.9,133 -19.9,179.7 -21.3,64.3 -65.9,142.9 -65.9,210.7 0,161.4 4.9,319.8 -16.6,480 -19,140.2 -69.8,286.6 -148.4,403.9 -86.4,129.8 -188.8,247.2 -288.1,366.7 -46.7,56.3 -134.1,98.7 -193.5,141.5 -53.2,38.9 -106.3,64.7 -166.7,93.6 -151.5,72.7 -294.4,124.3 -454.7,175.1 -136.4,43.2 -262.5,72.6 -403.8,97.6 -142.1,25 -292,69 -435.7,74.1 -188,6.8 -375.3,13.4 -562.5,20.3 -123,4.3 -248.3,17 -371.4,11.1 -627.6,-29.7 -1256,-64.3 -1884.5,-85.8 -633.9,-21.3 -1264,-88.7 -1896.7,-141.1 -281.7,-23.9 -567.5,-28.2 -841.9,52.4 -288.9,85.2 -578.6,218.1 -803.7,424.1 -115.2,105 -223.9,211.7 -319.1,335.6 -95.1,124.6 -168.2,262.9 -241.9,401.5 -63.6,118.7 -110.5,278.2 -133.3,409.5 -8.1,45.2 -16.1,89.9 -23.9,135.3 -5.7,30.5 66.7,30.9 90.5,35.9 60.2,13.5 145.8,56.9 197.4,90.9 115.2,76.3 206.4,185.3 278.6,300.5 18.4,29.3 36.5,58.2 54.7,87.1 3.3,5.3 -76,63.6 -84.8,70.2 -46.9,37.7 -100.1,74.7 -154.1,101.3 -129.9,65.4 -253.9,120.6 -395.8,153.6 -142.9,32.8 -274.6,44 -421.4,44 1.6,-10 -2.3,-17 -11.1,-22.3 -0.8,54.3 -65.1,142.1 -89.6,191.4 -34.2,67.4 -68.4,133.7 -123.1,188 -103.8,104.2 -204.7,193.9 -336.4,263.3 -134.9,70.7 -268.9,139 -418.9,174.5 -145.2,34.6 -301.6,79.4 -453,72.3 -75.5,-3.5 -154.1,-1.1 -228.6,-11.5 -77.7,-10.7 -166.7,-10.7 -242.13,-32.8 -155.38,-46.9 -295.94,-100.1 -443.5,-166.8 h 10.36 c -178.46,-89.7 -343.63,-206.6 -488.85,-344.8 -45.94,-43.5 -406.18,-444.6 -356.14,-478.4 -156.38,16 -300.03,9.1 -453.86,-21.7 -69.97,-13.9 -146.8,-59.7 -211.89,-88.6 -72.31,-32 -131.74,-70.9 -195.26,-118.2 -21.5,-16.3 191.93,-336.1 226.93,-372.2 50.83,-52 134.87,-89.5 195.27,-129.6 51.6,-35 115.71,-97 175.33,-115.9 80.14,-25.8 161.07,-51.2 241.2,-77 -52.38,-149.9 -103.21,-300.3 -151.48,-451.9 -18.38,-58.3 -36.56,-132.9 -71.55,-182.4 -47.5,-68.8 -95.18,-137.4 -143.66,-206 -36.36,-53.2 -99.87,-115.9 -116.5,-179.6 -11.13,-45.8 -17.58,-68.3 -8.01,-113.2 9.57,-42.4 20.73,-72.2 40.46,-111 15.84,-32.3 26.19,-70.6 56.29,-90.9 12.71,-8 42.23,-20.2 49.26,-32.9 13.49,-21.5 5.48,-29.5 -3.91,-56.9 -23.84,-71.7 3.13,-141.1 39.69,-202.3 38.88,-64.7 81.69,-110.2 153.03,-138.7 49.26,-19.6 34.22,-44.6 34.22,-96 0,-35.4 7.03,-68.4 13.48,-103.2 7.81,-42.8 7.81,-47.3 42.03,-73.1 23.84,-18.2 45.15,-38.5 73.69,-47.1 86.58,-26.6 172.98,-53.2 259.57,-79.8 57.08,-18 145.23,8.2 204.65,13.9 62.75,5.5 114.35,27.8 173.77,49.7 63.53,22.8 157.16,38.8 212.66,77.9 62.74,44.2 125.49,88.6 188.03,132.6 10.38,-42.8 92.86,-66.7 127.06,-85.6 41.25,-21.9 77.01,-59.5 112.58,-88.6 74.68,-59.4 127.88,-136 181.78,-213.4 116.7,-166.6 123.7,-363.4 123.7,-557.7 h 11.2 c -11.2,-342.8 -21.5,-686.1 -32.5,-1029.3 -4.1,-134.1 -8,-268.6 -11.9,-402.7 -1.5,-55.9 28.5,-126.4 42,-180.4 19,-81.3 38.1,-163.2 57.1,-244.5 8.8,-34.8 6.5,-75.6 8.8,-111.4 3.1,-38.5 17.4,-65.9 36.6,-100.5 18.9,-35.2 29.3,-53.6 64.1,-70.9 34.2,-17 87.3,-31.7 111.2,-63.2 45.1,-60.2 55.5,-142.3 69,-216.2 15,-84.4 48.5,-139.1 96,-210.7 15.8,-23.6 73.8,-34 100.8,-44.7 35.6,-14.3 74.5,-19.4 112.6,-27.8 23.1,-5.1 51.6,-61.2 69,-78.2 27,-27.3 65.9,-48 88.9,-78.1 42.1,-55.2 62.8,-139.2 89.7,-202.3 34.9,-81.8 69.8,-122.6 157,-147.6 48.5,-13.9 77.8,-26.2 119,-55.9 45.4,-32.3 46.2,-47.3 46.2,-102.8 0,-43.2 -2.4,-79.8 -11.2,-122.2 -5.4,-29.3 -29.3,-91.7 10.4,-107.5 40.5,-15.8 82.5,-52 123,-62.4 14.2,-3.5 48.4,8.8 57.8,-3.1 15.8,-21.5 30.3,-38.9 39.7,-63.1 19.9,-49.1 4.1,-92.1 -4.7,-144.1 -8,-44.4 -3.9,-89.5 -3.9,-134.5 25.4,-1.1 49.8,-32.4 69.8,-48.3 39.6,-32.6 79.3,-65.4 119,-98.5 17.4,-14.2 59.4,-34.4 66.6,-53.5 11.2,-28.2 -24.6,-72.5 -37.3,-96.8 -72.9,-145.6 -119,-303.5 -173,-457 -23.8,-66.6 -11.9,-166.3 -16.6,-236.9 -4.1,-59 -7.2,-118.2 -11.1,-177.3 -5.5,-96.5 -11.2,-193.3 -16.6,-289.6 -3.4,-48.9 -104.8,-82.5 -145.3,-113.4 -250.8,-187.8 -459.5,-449.2 -511.9,-764.6 330.9,0.3 663.4,-14.3 994.3,-21.4 38.2,-0.7 109.5,1.2 123.8,36 19.1,45 38.1,89.7 57.2,134.5 3.9,10.7 25.3,82.3 40.5,85.4 33.2,6.7 61,10.4 95.2,10.4 27.7,0 104.8,-14.5 126.8,2.3 40.5,30.5 41.3,34.8 41.3,84.8 0,40.9 0,81.7 0,123 0,18.8 -10.2,98.1 0,112.4 11.1,14.6 27.7,3.9 35.7,13.5 14.3,17.8 28.6,34.8 42.1,53.1 48.5,65.5 56.3,123.4 56.3,205.1 0,72.7 2.5,147.6 12.7,219.5 6.4,45.5 12.7,91.1 19.1,136.8 4.7,30.5 42.8,56.3 57.1,83.7 6.5,13.8 2.3,36.1 22.3,33.8 15,-2.6 18.2,-41.3 20.5,-51.2 6.5,-25.8 -22.1,-94.1 -27.7,-119.9 -15.1,-65 -3.9,-139.3 -3.9,-206.4 0,-78.1 2.3,-150.3 11.9,-227.7 7.8,-70.9 7.8,-146.4 30.8,-214.2 11.2,-34 46.2,-201.9 79.4,-204.3 l -11.1,-11.1 v 11.1 c -165.8,-82.5 -302.2,-179.4 -433.2,-310.2 -56.5,-56.8 -108.7,-152.8 -145.2,-223.4 -43.6,-83.6 -66.7,-165.5 -89,-255.8 318.3,3.5 635.7,7 953.9,11.1 28.5,0 46,3.1 73.7,12.1 19.9,6.9 40.5,13.5 60.4,20.4 7.8,2.7 0,47.1 1.6,56.2 15,68.7 65.1,139.8 90.5,206.9 12.7,33.2 32.4,58.6 53.1,87.9 35.6,52 30.1,42.8 90.3,50 70.8,8.4 154.1,34.6 222.3,55.6 27.7,8.7 54.7,20.7 81.7,30.4 17.4,6.9 16.6,48.1 19.9,65.1 11,56.5 -8,90.2 -13.5,146.4 -11.9,117.9 -40.4,225.4 -87.3,334.5 -84.1,197.6 -100.7,424.9 -111.8,636 l 11.1,-77.8 c 0,141.7 103.8,280.9 244.3,309 27,5.7 50.1,34.2 69.8,50.9 38.1,31 76.2,62.3 113.6,93.2 27.7,22.7 7,43.6 -4.1,76.6 -13.5,41.7 -12,75.9 -12,119.8 0,38.2 -10.9,71.8 -19.7,108.7 -4.7,17.4 -11.9,75.1 -2.3,87.4 41.2,54.3 149.9,-5.7 194.3,38.9 24.6,24.8 58.8,45.9 64.3,81.3 6.4,44.8 15.8,77.2 32.6,119.4 13.5,33.3 22.9,61.4 53.2,82.9 21.3,14.7 82.5,51.2 88.7,11.1 46.1,46 87.4,85.7 120.6,141.2 37.3,62.3 13.5,112 -6.3,173.7 -22.2,66.3 50.1,74.7 54.8,131 3.1,36.2 6.2,72.3 8.8,108.3 2.3,28.1 35,50 34.2,79.7 19.1,1.2 88.3,-159.1 108.9,-186 16.8,-22.1 -8.7,-64.8 8,-89.2 29.3,-44.5 45.1,-62.7 91.3,-90.1 22.8,-13.5 80.1,3.5 103.9,7.5 42.1,7.2 53.2,49.2 72.2,82.6 15.8,27 61.9,43.6 87.1,59.8 23.1,13.9 91.3,-17 116.7,-23.4 64.3,-16.3 107.9,-86.4 177.9,-96.4 86.4,-12.3 153.8,-3.9 239.6,11.6 23.7,4.3 36.4,53.1 53.2,70.1 39.5,39.7 57.1,45.8 111.8,59.6 42,10.2 40.5,-36.1 53.2,-61.9 11.1,-24.3 45.1,-75.9 68.2,-90.1 27,-16.7 53.9,-33.7 80.9,-50.5 20.7,-13.5 37.3,-14.2 60.4,-25.6 42.8,-21.5 46.7,-22.6 91.1,-7.6 28,9.2 51.6,23.1 77,36.9 54.7,30.1 105.6,49.5 165.2,69.4 60.2,20.2 107.9,6.7 165.7,-9.5 51.6,-14.7 94.4,-57.5 146,-74.5 50.1,-16.8 126.9,-13.1 171.5,20.5 30.9,22.7 50.8,34.2 87.1,46.1 31.9,10.6 58.1,-2.5 90.5,-10.3 54.8,-13.9 115.2,-33.1 164.2,-60.8 v 11.1 c 14.5,0 66.7,-7.4 78.6,0.8 33.4,23.1 65.9,46.2 99.3,68.6 50,34.6 97.5,72.3 149.9,102.1 111.8,63.9 223.1,165.3 361.8,162.6 l -22.2,-11.2 c 31,-48.6 62.7,-97.5 93.8,-146.4 23.6,-36.3 5.4,-96.7 45.1,-119.4 56.3,-32.1 95.2,-40.5 160.3,-51 52.4,-8.8 90.5,-43 134.1,-72.7 -37.3,-55.9 -50,-92.1 -64.3,-158 -11.2,-49.8 12.7,-120.2 19.1,-170.4 4.7,-34.2 67.5,-82.3 89.6,-114 35,-48.8 66.6,-106.3 111.9,-147.1 -45.3,-29.7 -65.8,-42.5 -89.7,-90.1 -10.3,-19.4 -52.3,-96.8 -43.6,-111.1 49.9,-77 96.8,-151.1 155.4,-221.4 -64.1,-25.4 -77.6,-54 -117.2,-111.4 -38.9,-55.6 -38.2,-75.1 -38.2,-144.5 l -23,22.3 c 0,-62.8 -18.2,-155.2 1.5,-214.2 27.8,-84.3 55.6,-167.9 84.1,-252 9.6,-28.5 17.6,-57.6 26.2,-86.6 15,-51.2 -7,-50.6 -49.9,-84 -53.1,-41.3 -106.3,-97.6 -160.2,-124.5 -139,-69.6 -262,-161.5 -346,-295.2 -81.7,-129.4 -115.9,-280.1 -129.4,-430.2 -1.6,-16.2 -3.1,-32.1 -4.7,-48.3 57.9,0 113.4,-1.2 170.5,8.2 69.9,11.6 137.4,25.5 207.9,25.5 l -11.1,-11.2 c 185.7,8.8 370.6,11.2 556.3,11.2 V 9143 c 65.8,49.6 126,90.1 175.3,156 50.8,67.4 69,130.1 69,213 0,37.3 -6.2,58.8 20.7,85 39.7,39.7 40.5,47.5 94.4,42.4 84.8,-7.6 127.7,-32.6 200,-75.4 53.2,-32.1 125.3,-125.3 188,-62.4 11.9,11.6 68.2,57.3 64.3,77.8 -8.8,37.8 -12.7,79 -30.3,114 -15,30.9 -36.3,59.4 -36.3,94.4 0,56.3 7.8,65.9 42,111.4 22.3,30.5 46.7,59.2 71.3,88.2 32.7,38.1 47,37.7 20,84.4 -22.3,39.7 -26.2,69 -32.7,114.4 -4.6,30.8 -36.3,68.6 -45.1,102.6 -19.9,80.9 -3.1,144.4 22.3,222.6 v -11.1 c 31.6,79.7 50.6,146 64.9,231 4.1,28.2 -17.4,51.8 -22.1,79.8 -5.7,35.1 -20.7,75.6 -20.7,111 0,65.1 22.3,149.5 83.2,182.5 38.9,20.6 77,41.7 115.9,62.2 5.7,3.1 73.1,-86.8 81,-96 38.1,-47.3 76.2,-130.5 76.2,-191.1 0,-83.9 -46.1,-161.1 -77,-238.1 -24.7,-60.8 53.9,-132.9 87.4,-184.9 13.4,-21.1 52.3,-46 57,-70.6 8.8,-53.6 9.6,-65.9 -15,-114.3 -13.5,-27.8 -65.9,-99.5 -29.3,-128.1 44.3,-34.6 87.9,-69.2 132.5,-103.9 27,-20.8 109.4,-63.6 122.1,-95.6 13.5,-33.1 -37.3,-117.9 -55.5,-144.9 v 11.6 c -5.6,-50.5 -16.8,-88.2 5.5,-133.3 22.3,-45 47.7,-88.2 71.4,-132.2 26.1,-48.4 -40.5,-76.2 -69.8,-96.9 -34,-24.5 -67.5,-54.4 -96.8,-84.1 -136.4,-136 -231.8,-285.5 -299.2,-465.8 140.5,-13.5 282.6,-35.7 424.5,-31.2 166.7,5 331.7,11.5 498.4,21.7 44.4,2.9 88.8,5.2 133.3,8 37.2,2.3 40.5,10.7 64.2,42.4 21.5,28.9 50,52 72.3,80.9 22.1,30.3 38.1,67.8 57.1,100.9 15,25 65.8,172.6 87.3,165.3 69,-22.5 145.3,-43.2 218.2,-43.2 30.1,0 72.9,-12.7 88.1,16.3 11.9,24.2 31.7,45.3 38.9,71.5 7.8,28.5 18.2,56.7 21.3,86 2.4,22.7 -2.3,69.4 13.5,87 24.6,28.1 50,56.3 75.4,84.8 16.7,19 9.6,49.3 9.6,74.1 0,46.9 -57.2,115.1 -89.7,147.8"
         style="fill:#231f20;fill-opacity:1;fill-rule:evenodd;stroke:none"
         transform="matrix(0.13333333,0,0,-0.13333333,0,3924.48)" />
    </g>
  </g>
</svg>
