<?xml version="1.0" encoding="UTF-8" standalone="no"?>
<!-- Created with Inkscape (http://www.inkscape.org/) -->

<svg
   version="1.1"
   id="svg1"
   width="4709.2402"
   height="4709.2534"
   viewBox="0 0 4709.2402 4709.2534"
   sodipodi:docname="tmpxvmb8izz.pdf"
   xmlns:inkscape="http://www.inkscape.org/namespaces/inkscape"
   xmlns:sodipodi="http://sodipodi.sourceforge.net/DTD/sodipodi-0.dtd"
   xmlns="http://www.w3.org/2000/svg"
   xmlns:svg="http://www.w3.org/2000/svg">
  <defs
     id="defs1" />
  <sodipodi:namedview
     id="namedview1"
     pagecolor="#ffffff"
     bordercolor="#000000"
     borderopacity="0.25"
     inkscape:showpageshadow="2"
     inkscape:pageopacity="0.0"
     inkscape:pagecheckerboard="0"
     inkscape:deskcolor="#d1d1d1">
    <inkscape:page
       x="0"
       y="0"
       inkscape:label="1"
       id="page1"
       width="4709.2402"
       height="4709.2534"
       margin="0"
       bleed="0" />
  </sodipodi:namedview>
  <g
     id="g1"
     inkscape:groupmode="layer"
     inkscape:label="1">
    <g
       id="group-R5">
      <path
         id="path2"
         d="m 18805.2,477 c -632.7,-632.602 -1658.4,-632.602 -2291,0 L 476.98,16514.2 c -632.648,632.7 -632.644,1658.4 0,2291 L 16514.2,34842.4 c 632.6,632.7 1658.3,632.7 2291,0 L 34842.4,18805.2 c 632.6,-632.6 632.6,-1658.3 0,-2291 L 18805.2,477"
         style="fill:#fccc2d;fill-opacity:1;fill-rule:nonzero;stroke:#231f20;stroke-width:5;stroke-linecap:butt;stroke-linejoin:miter;stroke-miterlimit:4;stroke-dasharray:none;stroke-opacity:1"
         transform="matrix(0.13333333,0,0,-0.13333333,0,4709.2533)" />
      <path
         id="path3"
         d="M 34078.7,17277.9 18041.5,1240.7 c -210.5,-210.5 -553.1,-210.5 -763.7,0 L 1240.66,17277.9 c -210.54,210.5 -210.54,553.1 0,763.6 L 17277.8,34078.7 c 210.6,210.6 553.2,210.6 763.7,0 L 34078.7,18041.5 c 210.5,-210.5 210.5,-553.1 0,-763.6 z M 34524.2,18487 18487,34524.2 c -456.2,456.2 -1198.5,456.2 -1654.6,0 L 795.188,18487 c -456.184,-456.1 -456.184,-1198.4 0,-1654.6 L 16832.4,795.199 C 17288.5,339 18030.8,339 18487,795.199 L 34524.2,16832.4 c 456.2,456.2 456.2,1198.5 0,1654.6"
         style="fill:#231f20;fill-opacity:1;fill-rule:nonzero;stroke:none"
         transform="matrix(0.13333333,0,0,-0.13333333,0,4709.2533)" />
      <path
         id="path4"
         d="m 20600.2,27443 c -101.4,-404.7 -174.4,-813.2 -261.6,-1220.7 -38.8,-179.6 -47.4,-361.1 -122.7,-529.8 -92.4,-207.1 -190,-401.9 -300,-600.9 -100.4,-181.5 -235,-337 -362.5,-500.9 -45,-57.4 -82,-114.7 -134.6,-165 -90,-85.7 -180.1,-171.5 -269.6,-257.3 -151.7,-144.5 -350.2,-227 -533.6,-327 -165.4,-90 -356.4,-45.9 -503.3,58.8 -51.2,37 -113.3,79.6 -148.8,133.2 -16.1,24.1 -52.6,60.2 -57.4,88.6 -4.7,27.9 0,81.5 -28.9,84.8 0,113.3 0,227 0,340.7 0,95.3 24.7,193.4 38.4,288.2 28.5,188.6 64.9,375.8 94.3,564.4 8.5,57.3 18,114.7 26.6,172 5.7,38.9 67.7,64 98.1,85.8 34.6,24.6 73.9,64 113.2,79.6 45.5,18.5 104.7,31.7 146,58.8 185.3,123.2 352.1,250.2 522.7,393.8 147.4,123.7 304.2,237.8 455.9,355.4 156.8,122.3 293.8,266.3 436.9,404.2 136,131.3 265.8,269.2 397.1,405.2 125.1,129.8 282.9,203.8 437.9,293.8 z m -3164.6,-2471.3 c -22.3,-201.4 -45,-402.4 -73.5,-603.3 -15.2,-101.9 -25.6,-195.2 -60.2,-291.4 -33.6,-94.3 -71,-169.7 -120.8,-256.4 -94.8,-165.9 -186.3,-363.5 -323.7,-500 -81.5,-82 -163.5,-163.9 -245.5,-245.9 -25.6,-26.1 -102.8,-37 -137.4,-49.8 -57.8,-20.4 -66.3,-25.6 -122.7,-5.2 -56.4,19.9 -136,28.4 -170.2,80.1 -50.7,76.3 -101.4,152.6 -152.6,229.3 -30.3,45.1 -34.1,120.4 -46.9,171.6 -20.8,82.5 -41.7,164 -61.6,246 -32.2,128.9 -20.8,282.4 -30.3,414.6 -10,139.3 11.8,275.8 29.4,413.3 -94.3,-147 -178.2,-281.5 -215.2,-455 -42.6,-197.1 -84.3,-382.9 -152.1,-572.9 -11.4,-30.8 13.3,-100 17.5,-131.8 4.8,-30.3 7.6,-61.6 15.2,-90.9 29.4,-113.3 58.3,-226.1 87.7,-338.9 20.8,-81 57.8,-156.8 89.5,-233.6 33.7,-81.5 94.8,-129.9 157.4,-192.4 l -574.4,-102.9 29.4,441.2 c -54.5,-91.4 -108.5,-182.9 -162.5,-274.3 -31.3,-52.6 -62.6,-104.8 -93.4,-156.9 -25.6,-43.1 -28.9,-40.8 -81,-52.1 -185.8,-41.3 -392.9,-77.3 -580.1,-38.4 -65.4,13.7 -131.3,27.5 -196.7,40.7 -57.3,11.9 -56.4,23.3 -87.2,76.8 -41.2,72 -73.9,183.9 -57.3,265.4 18.5,94.3 37.9,187.7 62.1,281 17,67.3 34.6,134.1 52.6,201.4 7.1,27.5 9.5,77.3 27.5,100.5 115.1,154.5 224.6,317 353,461.1 134.6,150.7 268.7,302.3 404.7,451.6 94.8,104.3 189.6,208.5 284.8,312.8 61.2,67.3 79.2,82.9 165.4,110.4 103.8,33.6 213.3,82.9 320.4,102.8 109.9,20.4 229.4,16.6 341.2,24.7 245.9,17.5 492.4,80.5 733.1,132.2 49.8,10.4 115.7,13.3 162.1,34.6 43.1,19.9 84.8,63.5 122.2,91.4 116.6,87.2 232.2,174.4 348.8,261.6 z m -2472.8,-3368.9 c 0,19.9 -11.9,91.4 1.4,104.7 33.6,33.2 66.8,66.8 100.5,100 53.5,53.5 134.6,56.8 207.5,75.3 z m -809.9,103.3 -44.1,102.8 -88.1,-102.8 -44.6,132.2 -132.2,-176.3 -29.4,176.3 -147.3,-132.2 73.9,235 c 217,-30.8 432.2,-62.5 647.3,-102.8 z M 18912.2,11977 c 52.2,104.8 104.8,209.9 157.4,314.2 l 161.5,132.2 c 59.7,-177.7 117.1,-356.8 174.4,-536 21.4,-66.3 50.3,-138.8 41.7,-208.9 -12.7,-104.8 -26,-209 -38.8,-313.8 -85.3,37 -196.7,63.6 -262.6,129.9 -81.9,82 -139.3,170.6 -203.7,267.7 -26.1,38.4 -52.1,76.8 -78.2,116.6 -6.2,9 42.6,87.2 48.3,98.1 z m 4249.4,14127.3 c -194.7,35.1 -384.8,71.6 -582.4,85.8 -85.3,6.1 -180.1,26 -265.8,13.7 -124.2,-17.5 -248.4,-35 -372.5,-53.1 -177.7,-25.1 -353.1,-67.3 -531.2,-92.9 -92.5,-12.8 -211.4,-9.9 -299.1,-43.5 -101.4,-38.4 -202.8,-77.3 -303.7,-115.7 33.6,101.4 67.3,202.4 100.9,303.8 32.2,96.2 31.7,215.1 46,315.6 25.5,179.1 71.5,357.3 90.5,537.4 13.7,123.7 27,247.9 40.3,372 9.4,91 -33.2,204.3 -49.8,293.4 -7.1,37.9 -8.5,83.3 -22.3,119.4 -27.5,74.4 -64.9,59.2 8.1,109.9 84.8,59.7 163.5,95.7 259.7,137 82.4,35.5 164.9,71 247.3,106.1 -214.6,30.8 -403.2,30.8 -617.9,0 0,134.1 -62.6,261.6 -105.2,387.7 -37.5,113.7 -84.9,222.7 -130.3,333.1 24.6,-213.2 29.3,-416.6 29.3,-631.2 0,-60.2 32.3,-182 -30.8,-202.4 -119.9,-38.3 -239.8,-77.2 -360.1,-115.6 -84.8,-27.5 -164.9,-81.5 -244.5,-122.3 -72.1,-37.4 -147,-70.6 -213.3,-118.9 -173.9,-126.1 -340.3,-255.9 -530.7,-355 -85.4,-43.6 -169.7,-87.6 -254.5,-131.2 -83,386.7 -85.4,789 -114.3,1183.3 -16.6,219.4 -51.6,428.9 -90.5,645.9 -16.5,95.3 -66.8,192.4 -99,282.9 -32.7,91.5 -61.6,181.5 -88.6,274.9 -28,97.6 -77.8,184.3 -122.8,275.3 14.3,-200.4 28,-400.4 49.8,-599.9 22.3,-211.9 23.7,-418 23.7,-631.7 0,-186.8 -41.7,-383.4 -67.3,-569.2 -30.3,-217 -67.8,-431.2 -107.6,-646.4 -20.4,-111.3 -70.1,-222.2 -104.7,-329.3 -33.7,-104.3 -57.8,-209.5 -82.9,-315.7 -22.3,-94.2 -37,-173.4 -100,-248.3 -86.8,-102.3 -172.5,-205.2 -258.8,-307.5 -82,180.1 -170.1,355.4 -264.9,529.3 7.6,-87.7 16.1,-175.8 25.6,-263 7.1,-69.7 14.7,-139.8 22.7,-209 3.4,-33.2 16.7,-78.2 8.1,-110.4 -12.8,-48.3 -19.9,-108.5 -41.7,-153.1 -21.3,-42.2 -72.5,-67.7 -112.3,-97.1 -67.3,-49.3 -145,-124.7 -221.3,-157.4 -203.8,-87.2 -401.4,-179.1 -600,-278.1 -159.7,-79.6 -348.8,-155.5 -525.5,-188.2 -100,-18.9 -196.7,-53.5 -296.2,-28.4 -107.1,26.5 -213.7,55.9 -320.4,85.8 -52.6,14.7 -56.8,8 -69.2,60.6 -9.4,41.7 -41.2,111.4 -32.2,153.6 19.5,90 39.8,179.6 53.1,270.6 56.4,396.6 138.4,803.7 261.6,1186.1 40.7,127.5 67.3,278.2 129.4,397.1 67.3,130.4 134.5,260.2 202.3,390.1 -163.5,-127.5 -323.2,-249.3 -469.6,-395.7 -70.1,-70.2 -121.3,-177.7 -177.3,-259.7 -45.4,-67.3 -95.7,-128 -120.8,-205.7 -68.7,-214.2 -132.2,-425.1 -186.7,-643.6 -45,-181.4 -130.8,-358.7 -164.4,-541.1 -25.2,-132.7 -42.7,-268.8 -74.4,-400 -18.5,-75.8 -37,-151.7 -55,-227.5 -13.3,-53.5 -17.1,-149.7 -47.9,-196.2 -158.7,-237.4 -318.9,-472.4 -485.2,-705.1 l 14.6,14.7 -14.6,-14.7 v 0 c -88.2,-88.2 -146,-110.4 -268.8,-80.1 -100.4,25.1 -168.2,108 -232.6,182 -120.4,136.9 -138.9,333.1 -129.4,506.6 10.4,206.1 -5.2,425.5 60.2,622.2 72,217 152.1,425 240.2,636 2.4,5.6 4.3,10.9 6.7,16.1 -131.3,-130.4 -277.7,-255.5 -391.5,-401.9 -82.4,-105.7 -164.4,-211.8 -246.9,-317.5 -51.6,-65.9 -44,-172.5 -54.9,-253.1 -28,-204.2 -24.7,-395.2 1.4,-601.3 14.2,-114.2 40.3,-227.5 60.7,-340.8 16.1,-89.1 2.3,-168.2 -7.2,-259.2 -7.5,-70.1 -35,-162.5 -22.7,-233.1 19.9,-110.5 39.3,-220.9 59.2,-331.3 28.5,-158.3 75.9,-313.2 116.1,-468.7 -76.7,21.8 -172,30.8 -234.5,82 -102.4,84.8 -205.7,169.2 -308.5,253.5 -157.9,129.9 -292.4,287.2 -434.6,434.1 -57.3,59.3 -71.6,133.7 -99.5,211.4 -30.8,87.2 -64,173.4 -92.4,261.6 -38.9,119.9 -77.8,240.2 -116.1,359.6 -27.5,85.8 -21.4,185.3 -28,274 -5.2,76.3 -10.9,151.1 -10.9,227.4 -49.3,-81.5 -58.8,-150.7 -76.3,-245 -16.1,-89.1 -38.4,-178.2 -44.5,-268.7 -7.6,-100.9 -10,-192.4 -2.4,-292.8 6.2,-89.6 31.7,-168.3 56.4,-255.5 101.9,-354.9 247.4,-695.6 375.8,-1041.6 -105.7,98.1 -210.9,196.2 -316.6,294.3 -94.8,88.2 -140.7,155.9 -205.7,269.6 -132.6,231.8 -275.8,457.8 -346.4,716.1 -47.4,-94.8 -19.4,-196.7 -12.3,-300.9 6.2,-85.8 12.3,-170.6 21.8,-255.9 7.1,-69.7 14.7,-138.9 21.8,-208.1 2.8,-25.1 -2.8,-97.6 13.7,-118.4 71.1,-92 142.7,-183.9 214.7,-275.9 58.3,-75.3 118,-148.7 180.1,-221.2 62.1,-73 174.9,-128 252.1,-183.9 173,-124.7 347.4,-246.9 522.7,-368.7 147.4,-102.8 301.4,-228 267.3,-433.6 -16.6,-101 -40.8,-201 -123.2,-263.5 -81.1,-60.7 -176.8,-107.6 -263,-159.7 -185.8,-112.3 -358.8,-232.7 -534.6,-359.7 -71.1,-51.7 -120.3,-87.2 -202.3,-114.7 -103.8,-34.6 -214.7,-62.1 -315.2,-105.2 -197.1,-83.9 -386.7,-168.7 -591.9,-227.5 -86.7,-24.6 -154.5,-109 -231.7,-154.4 -96.2,-56.4 -205.2,-97.7 -305.7,-145.5 -64.9,-31.3 -81,-174.4 -103.7,-241.7 -8.1,-25.1 16.5,-64 24.6,-87.7 25.6,-70.6 50.7,-141.2 76.3,-211.8 14.2,-40.3 28.9,-81.1 43.1,-121.3 14.7,-40.8 8.1,-99.1 31.3,-135.6 23.2,-37.4 44.5,-87.6 75.3,-118.4 50.8,-51.7 75.9,-61.7 145.5,-81.6 56.9,-16.1 164.9,-59.2 221.3,-47.8 81.1,17.5 163.5,44.1 246.9,44.1 95.3,0 173.5,-2.4 265.9,-21.8 73,-15.7 175.3,-21.8 240.7,-54.5 86.3,-43.2 172.5,-85.8 258.8,-128.9 71.1,-36.1 189.5,-33.2 267.3,-46.5 67.2,-11.8 135,-16.6 197.6,-43.6 90.5,-38.8 181.5,-77.7 272.5,-116.6 l -383,-485.2 235.6,102.8 -102.9,-132.2 264.9,73.4 -235.5,-338.8 235.5,88.6 -162,-264.9 279.6,132.2 -117.6,-132.2 176.3,29.4 -102.3,-132.2 205.7,29.4 -279.7,-367.8 309,102.9 -162,-206.2 338.8,103.3 -206.1,-309 206.1,73.5 -132.7,-205.6 235.5,132.1 -162,-309.4 236,29.9 -206.2,-264.5 206.2,102.9 -206.2,-309 367.8,132.2 -264.5,-235.1 235.1,29.4 -235.1,-235.5 309,132.2 -206.1,-235 308.9,102.8 -147.3,-235.5 176.7,103.3 -102.8,-206.2 161.6,132.3 -88.2,-337.9 c 96.2,58.3 192.4,116.6 288.2,175.3 23.7,13.7 41.2,37.4 63.5,20.4 52.1,-39.8 104.2,-79.1 155.9,-118.5 44,-33.6 88.1,-67.3 132.2,-101.4 18.9,-14.2 0.9,-70.6 -1.4,-91.5 -11.9,-108 -16.1,-219.8 -35.1,-326.9 -37.4,-208.1 -73.4,-405.7 -81,-616.6 -7.1,-207.6 -28.9,-410.8 -51.2,-617 -10.4,-100 -33.2,-185.8 -17.5,-284.8 15.1,-99.1 36.9,-193.4 60.6,-291.5 20.9,-87.6 32.2,-187.1 69.2,-269.6 51.6,-115.6 102.4,-231.3 154,-346.9 72.1,-161.6 183.4,-305.2 260.2,-464.9 49.7,-104.3 100,-209 150.2,-313.7 46.5,-97.1 44.6,-159.7 44.6,-267.8 0,-211.3 2.3,-413.7 28.9,-623.6 12.3,-100.9 68.2,-209.9 100.4,-306.1 26.6,-80.1 57.8,-148.8 95.8,-224.7 47.4,-94.3 94.3,-188.6 141.6,-282.4 119.9,-513.7 153.6,-1014.6 174.9,-1541.6 334.6,-452.5 185.3,-1285.2 249.3,-1735.9 364.4,-653.9 -1051.6,-1382.3 358.2,-1299.8 1183.4,361 37.5,501.3 646.4,1093.7 -14.2,77.7 -353.5,847.8 -436.4,1860.5 5.2,296.2 18.9,662.1 -4.8,795.7 -33.6,187.6 -28.4,390.9 -41.7,582.4 -16.1,219.4 -50.7,428.4 -89,645 -37.5,208.9 -31.3,411.8 -31.3,623.1 0,72.1 -21.4,126.1 -44.6,195.3 89.6,0 188.6,-13.3 276.8,5.7 95.2,20.3 190,39.8 286.2,54.9 66.8,10.9 133.6,21.8 200.5,32.7 60.2,9.5 57.8,18.5 77.7,-40.2 34.1,-102.9 36.5,-201.5 45,-309.5 7.1,-89.6 15.2,-167.3 37.4,-254 26.1,-99.1 64,-201.4 78.3,-303.3 17.5,-119.9 34.5,-241.2 52.1,-362 11.3,-82.5 50.7,-169.7 50.7,-251.7 0,-90 -43.1,-184.8 -49.8,-276.8 -8,-115.1 -4.7,-238.3 -26.5,-352.1 -7.6,-42.6 -21.8,-89.5 -33.2,-137.8 -83.9,-203.8 -109.5,-407.6 -14.2,-634.1 334.1,-513.2 125.1,-1366.7 206.1,-1915.5 258.8,-359.7 -278.6,-969.1 107.6,-1304.2 279.1,0 1141.6,146.5 1045.9,566.8 -345.5,435.5 -296.6,370.1 -261.6,890.9 -122.3,546.4 -484.8,1095.2 -327.9,1689 201.8,291.4 233.1,500.4 205.1,840.2 1,6.6 1.5,13.3 2,19.9 15.6,214.7 31.7,420.8 69.6,632.2 15.7,90 35.6,169.2 26.1,259.7 -12.8,112.8 -22.3,227 -37,340.2 -25.6,201.5 -60.2,402.9 -95.7,602.9 -11.8,68.7 -24.7,137.4 -37,206.1 125.2,-142.7 246.5,-287.2 369.7,-431.3 81,-94.3 161.6,-188.1 242.6,-282.4 51.6,-60.2 127,-78.7 173.4,-146.4 119.9,-176.8 238.9,-352.6 366.8,-523.2 41.7,-55.9 83.9,-111.9 126.1,-168.2 17.5,-23.3 54,-56 62.1,-84.9 10.4,-36 36.5,-81 21.3,-116.5 -26.5,-62.1 -53.1,-124.2 -80.1,-186.3 -66.8,-156.4 -145.9,-306.6 -221.8,-458.7 -19.4,-38.9 -37.9,-85.8 -54.5,-137 -73.9,-137.9 -141.2,-270.6 -182.9,-394.7 58.3,-382 -601.4,-642.2 -433.6,-1055.4 116.1,-59.3 376.7,-151.7 609.4,-169.7 -30.3,-109.4 -27.9,-218.9 45.1,-325.1 235.5,-62 995.6,-130.3 1007.9,246 -194.7,443.6 -167.7,377.7 -22.7,809.4 8.5,229.9 -28,471.6 -40.8,711.3 16.6,152.2 38.9,313.3 62.6,444.1 37.4,210.4 81.5,418.9 126,627.4 21.8,100.5 36.5,202.4 55,302.8 18,100 15.2,151.7 -3.3,252.6 -38.9,218.9 -73,437.9 -106.2,657.8 -13.2,92.9 11.4,200.9 17.6,293.8 6.1,86.7 15.6,166.8 30.8,252.1 39.8,224.2 80,448.3 119.9,672 14.7,83.4 77.7,159.7 119.4,231.7 43.1,76.3 101.9,154.1 129.8,237.4 71.1,213.3 142.7,410.4 239.8,611.8 91.5,189.2 176.8,380.6 261.6,572.5 71.1,159.2 110.4,337 164,502.8 69.2,216.6 130.8,429.4 186.2,650.2 43.2,172.5 86.7,355.4 99.5,532.6 8.6,121.4 18,242.2 27.1,363.5 7.1,98.1 -13.3,205.2 -20.4,303.3 -6.7,90.6 -19.9,154 -47.9,240.8 -28.9,89.5 -45.9,211.3 -94.8,291.9 -218.4,359.7 -437.8,713.2 -603.7,1100.4 -82,190.5 -194.3,346.4 -312.8,516.5 -121.3,174.4 -303.3,250.7 -484.8,344.5 -161.6,83.9 -349.7,98.6 -529.3,125.1 -119.5,18 -239.3,35.6 -358.7,53.1 -90.1,13.7 -186.7,-5.7 -276.8,-12.3 -87.7,-6.2 -167.3,-11.4 -251.6,-32.2 -106.7,-27 -228.9,-41.3 -330.3,-82.5 -100.5,-41.2 -197.2,-112.8 -291.5,-166.3 -32.7,-19 -185.8,-127 -225.1,-113.3 -96.7,34.1 -193.8,77.2 -293.3,102.8 -110.4,28.5 -228,40.8 -340.8,61.2 -172,30.3 -354.9,-22.3 -528.8,-34.6 -88.7,-6.6 -176.8,-12.8 -265.4,-19.5 -39.8,-2.8 -84.8,-15.6 -121.3,2.9 -130.8,65.4 -261.6,130.8 -392.4,195.7 l 235.5,-28.9 -235.5,132.2 367.7,-29.4 c -88.6,50.3 -178.2,100 -267.3,149.8 -83.8,46.9 -135,90.5 -203.3,158.7 114.7,0 224.7,15.7 338.4,29.9 l -338.4,102.8 h 176.8 l -279.6,176.8 h 205.7 l -309.5,191 236,-29.4 -338.8,279.6 383.4,-44.1 -353.6,220.4 353.6,-44.1 -515.6,353.1 205.7,-44.1 -205.7,176.7 h 205.7 l -588.6,323.7 c 192.4,82 344.5,242.2 505.6,374.4 60.2,49.3 107.1,122.7 157.4,181.5 82.9,98.1 165.8,195.7 249.2,293.8 51.7,60.7 140.3,98.1 206.2,140.8 74.8,48.3 152.1,112.3 234.5,147.8 195.3,83.4 381.1,159.3 559.2,273.5 75.9,49.2 192.9,96.6 253.6,163.9 76.3,84.8 152.6,169.2 228.9,253.6 55.4,61.6 115.1,156.3 184.3,202.3 101.9,67.8 203.3,135.5 304.7,203.3 151.2,100.5 335.1,120.9 510.4,164.9 205.7,51.2 408,102.4 609.9,166.8 389.1,125.2 728.9,334.6 1030.7,610.9 143.1,131.3 259.2,293.3 399.5,428.4 140.8,136 277.7,277.7 424.2,407.5 148.3,133.2 291.4,298.6 468.1,393.4 204.8,109 401,207 615.7,293.8 363.9,148.3 749.7,250.7 1135.9,319.4 211.8,37.9 422.2,61.1 636.4,84.3 l -412.3,88.2"
         style="fill:#231f20;fill-opacity:1;fill-rule:evenodd;stroke:none"
         transform="matrix(0.13333333,0,0,-0.13333333,0,4709.2533)" />
    </g>
  </g>
</svg>
