<?xml version="1.0" encoding="UTF-8" standalone="no"?>
<!-- Created with Inkscape (http://www.inkscape.org/) -->

<svg
   version="1.1"
   id="svg1"
   width="3139.72"
   height="3139.72"
   viewBox="0 0 3139.72 3139.72"
   sodipodi:docname="tmp87p091u4.pdf"
   xmlns:inkscape="http://www.inkscape.org/namespaces/inkscape"
   xmlns:sodipodi="http://sodipodi.sourceforge.net/DTD/sodipodi-0.dtd"
   xmlns="http://www.w3.org/2000/svg"
   xmlns:svg="http://www.w3.org/2000/svg">
  <defs
     id="defs1" />
  <sodipodi:namedview
     id="namedview1"
     pagecolor="#ffffff"
     bordercolor="#000000"
     borderopacity="0.25"
     inkscape:showpageshadow="2"
     inkscape:pageopacity="0.0"
     inkscape:pagecheckerboard="0"
     inkscape:deskcolor="#d1d1d1">
    <inkscape:page
       x="0"
       y="0"
       inkscape:label="1"
       id="page1"
       width="3139.72"
       height="3139.72"
       margin="0"
       bleed="0" />
  </sodipodi:namedview>
  <g
     id="g1"
     inkscape:groupmode="layer"
     inkscape:label="1">
    <g
       id="group-R5">
      <path
         id="path2"
         d="m 12537.6,318.801 c -421.7,-421.699 -1105.6,-421.699 -1527.3,0 L 318.828,11010.3 c -421.766,421.7 -421.766,1105.6 -0.004,1527.3 L 11010.3,23229.1 c 421.7,421.7 1105.6,421.7 1527.3,0 L 23229.1,12537.6 c 421.8,-421.7 421.8,-1105.6 0,-1527.3 L 12537.6,318.801"
         style="fill:#fccc2d;fill-opacity:1;fill-rule:nonzero;stroke:#231f20;stroke-width:5;stroke-linecap:butt;stroke-linejoin:miter;stroke-miterlimit:4;stroke-dasharray:none;stroke-opacity:1"
         transform="matrix(0.13333333,0,0,-0.13333333,0,3139.72)" />
      <path
         id="path3"
         d="M 22720,11519.4 12028.5,827.902 c -140.3,-140.3 -368.7,-140.3 -509.1,0 L 827.945,11519.4 c -140.367,140.4 -140.367,368.7 -0.007,509.1 L 11519.4,22720 c 140.4,140.3 368.8,140.3 509.1,0 L 22720,12028.5 c 140.3,-140.4 140.3,-368.7 0,-509.1 z m 318.2,827.3 -10691.5,10691.5 c -315.8,315.8 -829.7,315.8 -1145.5,0 L 509.742,12346.7 C 193.926,12030.9 193.926,11517 509.746,11201.2 L 11201.2,509.699 c 315.8,-315.797 829.7,-315.797 1145.5,0 L 23038.2,11201.2 c 315.8,315.8 315.8,829.7 0,1145.5"
         style="fill:#231f20;fill-opacity:1;fill-rule:nonzero;stroke:none"
         transform="matrix(0.13333333,0,0,-0.13333333,0,3139.72)" />
      <path
         id="path4"
         d="m 17183.1,7849.2 c -28.6,56.8 -55.2,112 -77.4,171.7 -22.4,59.3 9.3,124 31.7,177 23.5,55.9 48.8,106.4 66.6,164.8 13.9,47.3 -52,115.1 -80.7,153.6 -17.6,23.1 -33.6,46.9 -50,71.5 -23,33.9 -23.6,45 -23.6,86.6 0,19.1 40.6,56.1 52.7,72.1 15.3,20.6 46.4,26.2 62.2,47.8 21,27.4 45.1,48 45.1,82.6 0,35.5 -25.4,59.3 -45.7,87.9 -15.8,22.5 -31.1,45 -46.3,67.8 -5.8,8.6 -50.2,57.3 -50.2,64.1 0,62 7.1,123 8.9,184.9 1.3,25.6 1.3,52 -1.8,77.7 -4,28.6 3.7,61 -5.8,81.9 -12.7,27.2 -22.9,57.4 -38,83.2 -23.6,38.3 -24.9,44.4 -19.1,87.9 9.5,65.7 22.2,129.2 36.1,193.9 5.8,26.9 5.2,42.8 18.5,68.8 13.9,28.6 20.3,64.1 29.8,94.3 14.6,48.6 10.8,114.3 -19.7,157.5 -15.9,23.4 -48.3,42.5 -69.9,61.3 -22.8,20 -39.8,54.2 -57.7,78.6 -29.8,41 -48.3,102.6 -40,153.3 7.7,47 26.1,77.8 53.3,116.4 17.8,24.9 69.9,80.7 69.9,110.3 0,48.8 -17.8,94 -31.1,140.9 -5.2,17.8 -4.5,33.3 -4.5,52.1 0,23.7 -9,44.1 -16.5,66.9 -30.4,91.1 -17.2,173.6 1.3,265.7 16.4,83.1 73,151 121.8,218.2 v -17.9 c 17.8,17.6 38.2,33.9 50.8,55.2 13.3,22.2 46.9,58.6 46.9,85 0,22.9 9,64.8 -1.2,85.7 -17.7,34.9 -34.9,69.8 -52.7,104.8 -55.8,111.6 60.4,237.7 122.6,320.9 24.1,32.6 -3.1,106.3 -16,143.7 -17,51.4 -52.7,114.3 -52.7,168.5 0,129.2 4,255.9 -13.3,384.1 -15.1,112.1 -55.8,229.2 -118.6,323 -69.1,103.9 -151.1,197.8 -230.5,293.4 -37.4,45 -107.3,79 -154.8,113.2 -42.6,31.1 -85.1,51.8 -133.4,74.9 -121.2,58.2 -235.5,99.5 -363.7,140.1 -109.2,34.6 -210,58 -323.1,78 -113.7,20.1 -233.6,55.2 -348.5,59.3 -150.5,5.5 -300.3,10.8 -450.1,16.3 -98.3,3.4 -198.6,13.6 -297.1,8.9 -502.1,-23.8 -1004.8,-51.5 -1507.6,-68.7 -507.1,-17 -1011.2,-71 -1517.4,-112.9 -225.3,-19 -453.9,-22.5 -673.5,41.9 -231.1,68.2 -462.8,174.6 -643,339.4 -92.1,83.9 -179,169.3 -255.2,268.5 -76.1,99.6 -134.6,210.3 -193.54,321.1 -50.82,95 -88.35,222.6 -106.65,327.6 -6.41,36.2 -12.82,72 -19.07,108.3 -4.54,24.3 53.32,24.6 72.39,28.7 48.17,10.8 116.67,45.5 157.97,72.7 92.1,61 165.1,148.3 222.8,240.4 14.7,23.4 29.2,46.6 43.8,69.7 2.6,4.2 -60.8,50.8 -67.9,56.1 -37.5,30.2 -80,59.8 -123.2,81 -104,52.4 -203.13,96.5 -316.66,123 -114.3,26.2 -219.69,35.1 -337.13,35.1 1.25,-7.9 -1.87,-13.6 -8.91,-17.8 -0.63,43.5 -52.08,113.7 -71.62,153.1 -27.36,54 -54.73,107 -98.51,150.4 -83.03,83.4 -163.72,155.2 -269.12,210.7 -107.89,56.6 -215.16,111.1 -335.1,139.6 -116.18,27.7 -241.28,63.5 -362.47,57.9 -60.36,-2.9 -123.22,-1 -182.79,-9.3 -62.24,-8.6 -133.39,-8.6 -193.75,-26.2 -124.31,-37.6 -236.74,-80.1 -354.8,-133.4 h 8.29 c -142.77,-71.8 -274.91,-165.3 -391.09,-275.9 -36.75,-34.8 -324.94,-355.7 -284.9,-382.8 -125.1,12.9 -240.03,7.4 -363.1,-17.3 -55.98,-11.1 -117.43,-47.7 -169.5,-70.8 -57.86,-25.7 -105.4,-56.8 -156.22,-94.6 -17.2,-13 153.56,-268.9 181.55,-297.8 40.65,-41.6 107.9,-71.6 156.22,-103.6 41.28,-28 92.56,-77.6 140.26,-92.8 64.11,-20.6 128.85,-41 192.96,-61.6 -41.91,-119.9 -82.57,-240.2 -121.19,-361.5 -14.7,-46.6 -29.24,-106.3 -57.23,-145.9 -38,-55.1 -76.15,-109.9 -114.93,-164.8 -29.09,-42.6 -79.91,-92.8 -93.2,-143.7 -8.91,-36.6 -14.07,-54.6 -6.41,-90.6 7.66,-33.9 16.58,-57.7 32.37,-88.8 12.66,-25.8 20.95,-56.4 45.03,-72.7 10.17,-6.4 33.78,-16.1 39.41,-26.3 10.79,-17.2 4.38,-23.6 -3.13,-45.5 -19.08,-57.4 2.5,-112.9 31.74,-161.8 31.12,-51.8 65.37,-88.2 122.44,-111 39.41,-15.7 27.37,-35.7 27.37,-76.8 0,-28.3 5.63,-54.8 10.79,-82.6 6.25,-34.2 6.25,-37.8 33.62,-58.5 19.08,-14.5 36.12,-30.8 58.95,-37.7 69.27,-21.2 138.39,-42.5 207.66,-63.8 45.66,-14.3 116.18,6.6 163.72,11.1 50.2,4.4 91.47,22.3 139.01,39.8 50.82,18.3 125.73,31.1 170.13,62.4 50.2,35.3 100.39,70.8 150.43,106 8.29,-34.3 74.28,-53.3 101.64,-68.5 33,-17.5 61.61,-47.6 90.07,-70.9 59.74,-47.5 102.27,-108.8 145.43,-170.7 93.35,-133.2 98.98,-290.7 98.98,-446.1 h 8.91 c -8.91,-274.3 -17.2,-548.9 -25.96,-823.5 -3.28,-107.2 -6.4,-214.8 -9.53,-322.1 -1.25,-44.7 22.82,-101.2 33.61,-144.3 15.18,-65.1 30.5,-130.6 45.67,-195.7 7.03,-27.8 5.16,-60.5 7.03,-89.1 2.5,-30.8 13.92,-52.7 29.24,-80.4 15.17,-28.1 23.46,-42.8 51.29,-56.7 27.37,-13.6 69.9,-25.4 88.98,-50.5 36.12,-48.2 44.41,-113.9 55.2,-173 12.04,-67.5 38.78,-111.3 76.77,-168.5 12.67,-19 59.12,-27.3 80.69,-35.8 28.46,-11.5 59.58,-15.5 90.07,-22.3 18.45,-4 41.29,-48.9 55.2,-62.5 21.58,-21.9 52.7,-38.5 71.15,-62.6 33.62,-44.1 50.19,-111.3 71.77,-161.8 27.84,-65.4 55.83,-98 125.57,-118.1 38.78,-11.1 62.23,-20.9 95.23,-44.7 36.28,-25.8 36.9,-37.8 36.9,-82.2 0,-34.6 -1.87,-63.8 -8.91,-97.8 -4.38,-23.4 -23.46,-73.3 8.29,-86 32.36,-12.6 65.99,-41.6 98.36,-49.8 11.41,-2.9 38.78,7 46.28,-2.5 12.67,-17.2 24.24,-31.2 31.74,-50.6 15.96,-39.2 3.29,-73.6 -3.75,-115.2 -6.41,-35.5 -3.13,-71.6 -3.13,-107.6 20.33,-0.9 39.88,-25.9 55.83,-38.6 31.74,-26.1 63.48,-52.4 95.23,-78.8 13.91,-11.4 47.53,-27.5 53.32,-42.9 8.91,-22.5 -19.7,-58 -29.86,-77.4 -58.33,-116.5 -95.24,-242.8 -138.39,-365.6 -19.08,-53.3 -9.54,-133 -13.29,-189.5 -3.29,-47.2 -5.79,-94.6 -8.92,-141.8 -4.38,-77.3 -8.91,-154.7 -13.29,-231.8 -2.66,-39 -83.82,-65.9 -116.18,-90.6 -200.63,-150.3 -367.63,-359.4 -409.54,-611.8 264.74,0.3 530.72,-11.4 795.46,-17 30.49,-0.6 87.56,0.9 98.98,28.8 15.33,35.9 30.49,71.7 45.82,107.5 3.12,8.6 20.17,65.9 32.37,68.4 26.58,5.3 48.78,8.3 76.15,8.3 22.2,0 83.81,-11.6 101.48,1.8 32.35,24.4 32.95,27.9 32.95,67.9 0,32.7 0,65.4 0,98.4 0,15 -8.1,78.5 0,89.9 9,11.7 22.2,3.1 28.7,10.8 11.4,14.2 22.8,27.8 33.6,42.5 38.8,52.4 45,98.7 45,164 0,58.2 2,118.1 10.2,175.6 5.1,36.5 10.1,72.9 15.3,109.5 3.8,24.4 34.2,45 45.7,66.9 5.1,11.1 1.8,28.9 17.8,27.1 12,-2.1 14.5,-33 16.4,-41 5.2,-20.6 -17.7,-75.2 -22.2,-95.9 -12,-52 -3.1,-111.4 -3.1,-165.1 0,-62.5 1.9,-120.2 9.5,-182.2 6.3,-56.7 6.3,-117.1 24.7,-171.3 8.9,-27.2 36.9,-161.6 63.5,-163.4 l -8.9,-9 v 9 c -132.6,-66 -241.8,-143.6 -346.52,-248.2 -45.19,-45.5 -86.94,-122.3 -116.19,-178.7 -34.86,-67 -53.32,-132.5 -71.14,-204.7 254.55,2.8 508.55,5.6 763.05,8.9 22.9,0 36.8,2.5 59,9.7 15.9,5.5 32.4,10.8 48.3,16.2 6.3,2.2 0,37.7 1.3,45.1 12,54.9 52,111.8 72.4,165.4 10.1,26.6 25.9,46.9 42.5,70.4 28.5,41.6 24.1,34.2 72.2,40 56.6,6.7 123.3,27.7 177.8,44.4 22.2,7.1 43.8,16.6 65.4,24.4 13.9,5.5 13.3,38.5 15.9,52.1 8.8,45.2 -6.4,72.1 -10.7,117.1 -9.6,94.3 -32.4,180.3 -69.9,267.6 -67.3,158.1 -80.6,339.9 -89.5,508.8 l 8.9,-62.2 c 0,113.3 83.1,224.7 195.5,247.2 21.6,4.5 40,27.3 55.8,40.6 30.5,24.9 61,49.9 90.9,74.6 22.2,18.2 5.6,34.9 -3.3,61.3 -10.8,33.3 -9.6,60.7 -9.6,95.9 0,30.5 -8.7,57.4 -15.8,86.9 -3.7,13.9 -9.5,60.1 -1.8,69.9 33,43.5 119.9,-4.5 155.4,31.1 19.7,19.9 47.1,36.8 51.4,65.1 5.2,35.8 12.7,61.8 26.2,95.5 10.8,26.6 18.3,49.1 42.5,66.3 17,11.8 66,41 71,8.9 36.9,36.8 69.9,68.5 96.5,112.9 29.8,49.9 10.8,89.6 -5,139.1 -17.9,53 40,59.7 43.7,104.7 2.5,29 5,57.9 7.1,86.7 1.9,22.5 28,40 27.3,63.8 15.4,0.9 70.7,-127.3 87.1,-148.9 13.5,-17.7 -6.8,-51.8 6.5,-71.3 23.4,-35.7 36.1,-50.2 73,-72.1 18.3,-10.8 64.1,2.8 83.2,5.9 33.6,5.8 42.5,39.4 57.7,66.2 12.6,21.6 49.5,34.9 69.7,47.8 18.5,11.1 73,-13.6 93.4,-18.7 51.4,-13 86.3,-69.1 142.3,-77.1 69.1,-9.9 123,-3.2 191.7,9.2 18.9,3.4 29.1,42.5 42.5,56.1 31.6,31.8 45.7,36.6 89.5,47.7 33.6,8.2 32.3,-28.9 42.5,-49.5 8.9,-19.4 36.1,-60.7 54.6,-72.1 21.5,-13.3 43.1,-26.9 64.7,-40.4 16.6,-10.8 29.9,-11.4 48.3,-20.4 34.3,-17.2 37.4,-18.2 72.9,-6.1 22.3,7.3 41.3,18.4 61.6,29.5 43.8,24.1 84.4,39.6 132.1,55.5 48.2,16.1 86.3,5.3 132.6,-7.6 41.3,-11.8 75.6,-46 116.8,-59.6 40.1,-13.5 101.5,-10.5 137.2,16.4 24.7,18.1 40.6,27.4 69.7,36.9 25.5,8.4 46.5,-2 72.4,-8.3 43.8,-11.1 92.1,-26.4 131.4,-48.6 v 8.9 c 11.5,0 53.3,-5.9 62.8,0.6 26.8,18.5 52.7,36.9 79.5,54.9 40,27.7 78,57.9 119.9,81.6 89.4,51.2 178.4,132.3 289.4,130.1 l -17.8,-8.9 c 24.9,-38.9 50.2,-78 75.1,-117.1 18.9,-29.1 4.4,-77.4 36.1,-95.5 45,-25.7 76.1,-32.4 128.2,-40.9 41.9,-7 72.4,-34.4 107.3,-58.1 -29.9,-44.7 -40,-73.7 -51.5,-126.4 -8.9,-39.8 10.2,-96.1 15.4,-136.3 3.7,-27.4 53.9,-65.9 71.6,-91.2 28,-39.1 53.3,-85.1 89.6,-117.7 -36.3,-23.8 -52.7,-34 -71.8,-72.1 -8.3,-15.5 -41.9,-77.4 -34.9,-88.9 39.9,-61.6 77.4,-120.8 124.4,-177.1 -51.3,-20.3 -62.1,-43.2 -93.9,-89.1 -31.1,-44.5 -30.5,-60.1 -30.5,-115.6 l -18.4,17.8 c 0,-50.2 -14.5,-124.1 1.2,-171.4 22.2,-67.4 44.4,-134.3 67.3,-201.5 7.6,-22.9 14.1,-46.2 20.9,-69.3 12.1,-41 -5.6,-40.5 -39.8,-67.2 -42.6,-33 -85.1,-78.1 -128.3,-99.6 -111.1,-55.7 -209.5,-129.2 -276.7,-236.2 -65.4,-103.5 -92.8,-224 -103.6,-344.1 -1.2,-13 -2.5,-25.7 -3.7,-38.7 46.3,0 90.7,-0.9 136.3,6.6 56,9.2 110,20.3 166.4,20.3 l -8.9,-8.9 c 148.6,7.1 296.5,8.9 445,8.9 v -18.1 c 52.7,39.7 100.9,72.1 140.3,124.8 40.7,53.9 55.2,104.1 55.2,170.4 0,29.9 -5,47.1 16.6,68 31.7,31.8 32.3,38 75.5,34 67.9,-6.1 102.1,-26.1 160,-60.4 42.5,-25.6 100.2,-100.2 150.4,-49.9 9.5,9.3 54.6,45.9 51.4,62.3 -7,30.2 -10.1,63.2 -24.2,91.1 -12,24.7 -29.1,47.6 -29.1,75.6 0,45 6.3,52.7 33.6,89.1 17.9,24.4 37.4,47.4 57.1,70.5 26.1,30.5 37.6,30.2 16,67.6 -17.9,31.7 -21,55.2 -26.1,91.5 -3.8,24.7 -29.1,54.8 -36.2,82 -15.9,64.8 -2.5,115.6 17.9,178.2 v -9 c 25.3,63.8 40.5,116.8 51.9,184.9 3.3,22.5 -13.9,41.4 -17.7,63.8 -4.5,28.1 -16.6,60.5 -16.6,88.8 0,52.1 17.9,119.6 66.6,146 31.2,16.5 61.7,33.3 92.8,49.8 4.5,2.5 58.5,-69.5 64.7,-76.8 30.5,-37.9 61,-104.5 61,-152.9 0,-67.1 -36.9,-128.9 -61.6,-190.5 -19.7,-48.6 43.1,-106.3 69.9,-147.9 10.8,-16.9 41.9,-36.8 45.6,-56.5 7.1,-42.8 7.7,-52.7 -12,-91.5 -10.8,-22.2 -52.7,-79.6 -23.5,-102.4 35.5,-27.7 70.4,-55.3 106.1,-83.2 21.5,-16.5 87.5,-50.8 97.7,-76.4 10.8,-26.5 -29.9,-94.3 -44.4,-115.9 v 9.2 c -4.5,-40.3 -13.5,-70.5 4.4,-106.6 17.8,-36 38.1,-70.5 57,-105.7 21,-38.8 -32.3,-61 -55.8,-77.6 -27.2,-19.5 -53.9,-43.5 -77.4,-67.2 -109.1,-108.9 -185.4,-228.5 -239.4,-372.7 112.4,-10.8 226.1,-28.6 339.6,-25 133.4,4.1 265.4,9.2 398.8,17.4 35.5,2.3 71,4.2 106.6,6.4 29.7,1.9 32.4,8.6 51.3,33.9 17.2,23.2 40.1,41.6 57.9,64.8 17.6,24.2 30.5,54.2 45.6,80.6 12.1,20.1 52.7,138.1 69.9,132.3 55.2,-17.9 116.2,-34.5 174.5,-34.5 24.1,0 58.4,-10.2 70.6,13 9.5,19.3 25.3,36.2 31.1,57.2 6.2,22.8 14.5,45.3 17,68.8 1.9,18.1 -1.8,55.5 10.8,69.6 19.7,22.5 40.1,45 60.4,67.8 13.3,15.2 7.6,39.4 7.6,59.3 0,37.5 -45.8,92.1 -71.7,118.2"
         style="fill:#231f20;fill-opacity:1;fill-rule:evenodd;stroke:none"
         transform="matrix(0.13333333,0,0,-0.13333333,0,3139.72)" />
    </g>
  </g>
</svg>
