<?xml version="1.0" standalone="no"?>
<svg width="3562px" height="3562px" viewBox="-15 -2755 3562 3562 " xmlns="http://www.w3.org/2000/svg" xmlns:xlink="http://www.w3.org/1999/xlink">
<title>generated by pstoedit</title>
<!-- generated by pstoedit version:4.02 -->
<g xml:space='preserve'>
<clipPath id="clippath1"> 	<path d="
	M 0 -2739.94 
	L 0 792 
	L 3531.93 792 
	L 3531.93 -2739.94 
	Z 
	" style="clip-rule:nonzero"/>
</clipPath>
<g style="clip-path:url(#clippath1)"> 
<g fill="#95e8ff" fill-rule="nonzero" stroke-width="0" stroke-linejoin="miter" stroke-linecap="butt" stroke-miterlimit="10" >
	<path d="
	M 1880.52 744.301 
	C 1817.25 807.559 1714.68 807.559 1651.42 744.301 
	L 47.6992 -859.42 
	C -15.5664 -922.69 -15.5664 -1025.26 47.6992 -1088.52 
	L 1651.42 -2692.24 
	C 1714.68 -2755.51 1817.25 -2755.51 1880.52 -2692.24 
	L 3484.24 -1088.52 
	C 3547.5 -1025.26 3547.5 -922.69 3484.24 -859.42 
	Z 
	"/>
</g>
<g stroke="#7f7f7f" fill="none" stroke-width="0.5" stroke-linejoin="miter" stroke-linecap="butt" stroke-miterlimit="4" >
	<path d="
	M 1880.52 744.301 
	C 1817.25 807.559 1714.68 807.559 1651.42 744.301 
	L 47.6992 -859.42 
	C -15.5664 -922.69 -15.5664 -1025.26 47.6992 -1088.52 
	L 1651.42 -2692.24 
	C 1714.68 -2755.51 1817.25 -2755.51 1880.52 -2692.24 
	L 3484.24 -1088.52 
	C 3547.5 -1025.26 3547.5 -922.69 3484.24 -859.42 
	Z 
	"/>
</g>
<g fill="#7f7f7f" fill-rule="nonzero" stroke-width="0" stroke-linejoin="miter" stroke-linecap="butt" stroke-miterlimit="4" >
	<path d="
	M 3407.87 -935.79 
	L 1804.15 667.93 
	C 1783.1 688.98 1748.84 688.98 1727.78 667.93 
	L 124.066 -935.79 
	C 103.012 -956.84 103.012 -991.1 124.066 -1012.16 
	L 1727.78 -2615.87 
	C 1748.84 -2636.93 1783.1 -2636.93 1804.15 -2615.87 
	L 3407.87 -1012.16 
	C 3428.92 -991.1 3428.92 -956.84 3407.87 -935.79 
	Z 
	M 3452.42 -1056.7 
	L 1848.7 -2660.42 
	C 1803.08 -2706.04 1728.85 -2706.04 1683.24 -2660.42 
	L 79.5195 -1056.7 
	C 33.9023 -1011.09 33.9023 -936.86 79.5195 -891.24 
	L 1683.24 712.48 
	C 1728.85 758.102 1803.08 758.102 1848.7 712.48 
	L 3452.42 -891.24 
	C 3498.03 -936.86 3498.03 -1011.09 3452.42 -1056.7 
	Z 
	"/>
</g>
<g fill="#7f7f7f" fill-rule="evenodd" stroke-width="0" stroke-linejoin="miter" stroke-linecap="butt" stroke-miterlimit="4" >
	<path d="
	M 2577.33 -385.26 
	C 2573.04 -393.78 2569.06 -402.05 2565.72 -411.02 
	C 2562.37 -419.91 2567.13 -429.62 2570.49 -437.57 
	C 2574 -445.94 2577.8 -453.52 2580.48 -462.29 
	C 2582.57 -469.37 2572.67 -479.55 2568.38 -485.32 
	C 2565.72 -488.79 2563.33 -492.36 2560.87 -496.04 
	C 2557.42 -501.13 2557.33 -502.8 2557.33 -509.04 
	C 2557.33 -511.9 2563.43 -517.46 2565.23 -519.85 
	C 2567.53 -522.94 2572.2 -523.79 2574.57 -527.03 
	C 2577.71 -531.13 2581.32 -534.23 2581.32 -539.41 
	C 2581.32 -544.74 2577.52 -548.3 2574.47 -552.59 
	C 2572.1 -555.97 2569.81 -559.35 2567.53 -562.77 
	C 2566.66 -564.06 2560 -571.36 2560 -572.39 
	C 2560 -581.68 2561.06 -590.83 2561.34 -600.12 
	C 2561.53 -603.96 2561.53 -607.93 2561.06 -611.77 
	C 2560.47 -616.07 2561.62 -620.92 2560.19 -624.06 
	C 2558.29 -628.14 2556.76 -632.67 2554.49 -636.54 
	C 2550.95 -642.29 2550.76 -643.2 2551.63 -649.72 
	C 2553.06 -659.57 2554.96 -669.1 2557.05 -678.81 
	C 2557.91 -682.84 2557.82 -685.24 2559.81 -689.13 
	C 2561.9 -693.42 2562.86 -698.75 2564.29 -703.27 
	C 2566.47 -710.57 2565.91 -720.42 2561.34 -726.89 
	C 2558.94 -730.41 2554.09 -733.27 2550.85 -736.09 
	C 2547.43 -739.09 2544.87 -744.23 2542.2 -747.88 
	C 2537.72 -754.03 2534.95 -763.27 2536.19 -770.87 
	C 2537.34 -777.93 2540.11 -782.55 2544.19 -788.35 
	C 2546.87 -792.08 2554.68 -800.45 2554.68 -804.88 
	C 2554.68 -812.2 2552 -818.98 2550.01 -826.02 
	C 2549.24 -828.69 2549.33 -831.01 2549.33 -833.83 
	C 2549.33 -837.39 2547.99 -840.44 2546.87 -843.87 
	C 2542.29 -857.54 2544.28 -869.9 2547.05 -883.72 
	C 2549.52 -896.19 2558.01 -906.37 2565.33 -916.46 
	L 2565.33 -913.76 
	C 2568 -916.41 2571.05 -918.86 2572.95 -922.04 
	C 2574.94 -925.37 2579.99 -930.84 2579.99 -934.8 
	C 2579.99 -938.23 2581.32 -944.52 2579.8 -947.66 
	C 2577.15 -952.89 2574.57 -958.12 2571.89 -963.37 
	C 2563.52 -980.12 2580.95 -999.03 2590.28 -1011.5 
	C 2593.9 -1016.41 2589.81 -1027.45 2587.89 -1033.06 
	C 2585.33 -1040.78 2579.99 -1050.21 2579.99 -1058.34 
	C 2579.99 -1077.72 2580.57 -1096.72 2577.99 -1115.95 
	C 2575.72 -1132.77 2569.62 -1150.34 2560.19 -1164.41 
	C 2549.82 -1179.98 2537.53 -1194.08 2525.62 -1208.41 
	C 2520.01 -1215.17 2509.52 -1220.26 2502.39 -1225.4 
	C 2496.01 -1230.06 2489.64 -1233.16 2482.39 -1236.63 
	C 2464.21 -1245.36 2447.06 -1251.55 2427.83 -1257.65 
	C 2411.46 -1262.83 2396.33 -1266.35 2379.37 -1269.35 
	C 2362.32 -1272.35 2344.33 -1277.63 2327.09 -1278.24 
	C 2304.52 -1279.06 2282.05 -1279.86 2259.58 -1280.68 
	C 2244.83 -1281.2 2229.79 -1282.72 2215.02 -1282.02 
	C 2139.7 -1278.45 2064.29 -1274.3 1988.88 -1271.72 
	C 1912.82 -1269.16 1837.19 -1261.07 1761.27 -1254.79 
	C 1727.47 -1251.92 1693.18 -1251.41 1660.25 -1261.07 
	C 1625.58 -1271.3 1590.82 -1287.25 1563.8 -1311.97 
	C 1549.98 -1324.57 1536.94 -1337.37 1525.52 -1352.24 
	C 1514.09 -1367.19 1505.32 -1383.79 1496.48 -1400.42 
	C 1488.86 -1414.66 1483.23 -1433.8 1480.48 -1449.56 
	C 1479.52 -1454.98 1478.56 -1460.35 1477.62 -1465.79 
	C 1476.94 -1469.45 1485.62 -1469.5 1488.48 -1470.11 
	C 1495.7 -1471.73 1505.98 -1476.93 1512.17 -1481.02 
	C 1525.98 -1490.16 1536.94 -1503.25 1545.59 -1517.07 
	C 1547.8 -1520.58 1549.98 -1524.06 1552.16 -1527.53 
	C 1552.56 -1528.16 1543.04 -1535.15 1541.98 -1535.95 
	C 1536.35 -1540.47 1529.97 -1544.91 1523.5 -1548.1 
	C 1507.9 -1555.95 1493.03 -1562.57 1476 -1566.53 
	C 1458.86 -1570.47 1443.05 -1571.81 1425.43 -1571.81 
	C 1425.62 -1570.61 1425.15 -1569.77 1424.09 -1569.14 
	C 1424 -1575.66 1416.28 -1586.19 1413.35 -1592.1 
	C 1409.25 -1600.19 1405.14 -1608.14 1398.58 -1614.66 
	C 1386.12 -1627.17 1374.02 -1637.93 1358.21 -1646.26 
	C 1342.02 -1654.75 1325.93 -1662.94 1307.94 -1667.21 
	C 1290.51 -1671.36 1271.75 -1676.73 1253.57 -1675.88 
	C 1244.52 -1675.46 1235.09 -1675.74 1226.15 -1674.5 
	C 1216.82 -1673.21 1206.14 -1673.21 1197.09 -1670.56 
	C 1178.45 -1664.93 1161.58 -1658.55 1143.87 -1650.55 
	L 1145.11 -1650.55 
	C 1123.7 -1639.78 1103.88 -1625.76 1086.45 -1609.18 
	C 1080.94 -1603.95 1037.71 -1555.81 1043.71 -1551.76 
	C 1024.95 -1553.68 1007.71 -1552.86 989.254 -1549.15 
	C 980.855 -1547.49 971.637 -1542 963.824 -1538.53 
	C 955.148 -1534.68 948.016 -1530.01 940.395 -1524.34 
	C 937.813 -1522.39 963.426 -1484.02 967.625 -1479.68 
	C 973.727 -1473.44 983.809 -1468.93 991.059 -1464.13 
	C 997.25 -1459.93 1004.94 -1452.49 1012.1 -1450.22 
	C 1021.71 -1447.12 1031.42 -1444.07 1041.04 -1440.98 
	C 1034.76 -1422.98 1028.66 -1404.95 1022.86 -1386.75 
	C 1020.66 -1379.76 1018.48 -1370.8 1014.28 -1364.86 
	C 1008.58 -1356.61 1002.86 -1348.37 997.039 -1340.14 
	C 992.676 -1333.76 985.055 -1326.23 983.059 -1318.58 
	C 981.723 -1313.1 980.949 -1310.4 982.098 -1305 
	C 983.246 -1299.91 984.586 -1296.35 986.953 -1291.68 
	C 988.855 -1287.81 990.098 -1283.21 993.707 -1280.77 
	C 995.23 -1279.81 998.773 -1278.36 999.617 -1276.83 
	C 1001.24 -1274.25 1000.28 -1273.29 999.148 -1270.01 
	C 996.289 -1261.4 999.523 -1253.07 1003.91 -1245.73 
	C 1008.58 -1237.97 1013.71 -1232.5 1022.28 -1229.08 
	C 1028.19 -1226.73 1026.38 -1223.73 1026.38 -1217.56 
	C 1026.38 -1213.32 1027.23 -1209.35 1028 -1205.18 
	C 1028.94 -1200.04 1028.94 -1199.5 1033.04 -1196.4 
	C 1035.9 -1194.22 1038.46 -1191.78 1041.89 -1190.75 
	C 1052.28 -1187.56 1062.64 -1184.37 1073.04 -1181.18 
	C 1079.88 -1179.02 1090.46 -1182.17 1097.59 -1182.85 
	C 1105.12 -1183.5 1111.31 -1186.18 1118.45 -1188.81 
	C 1126.07 -1191.55 1137.3 -1193.47 1143.96 -1198.16 
	C 1151.49 -1203.46 1159.02 -1208.79 1166.53 -1214.07 
	C 1167.77 -1208.93 1177.67 -1206.07 1181.77 -1203.79 
	C 1186.72 -1201.17 1191.02 -1196.66 1195.29 -1193.17 
	C 1204.25 -1186.04 1210.63 -1176.84 1217.1 -1167.55 
	C 1231.1 -1147.57 1231.95 -1123.95 1231.95 -1100.63 
	L 1233.28 -1100.63 
	C 1231.95 -1059.49 1230.7 -1018.31 1229.39 -977.12 
	C 1228.9 -961.03 1228.43 -944.89 1227.96 -928.8 
	C 1227.77 -922.09 1231.38 -913.62 1233 -907.15 
	C 1235.28 -897.39 1237.57 -887.56 1239.85 -877.81 
	C 1240.91 -873.63 1240.63 -868.73 1240.91 -864.44 
	C 1241.28 -859.82 1243 -856.53 1245.29 -852.38 
	C 1247.57 -848.16 1248.81 -845.95 1252.98 -843.87 
	C 1257.09 -841.82 1263.47 -840.07 1266.33 -836.29 
	C 1271.75 -829.07 1272.99 -819.21 1274.61 -810.35 
	C 1276.42 -800.21 1280.43 -793.65 1286.13 -785.06 
	C 1288.03 -782.23 1295 -780.98 1298.23 -779.69 
	C 1302.5 -777.98 1307.17 -777.37 1311.74 -776.36 
	C 1314.51 -775.75 1317.93 -769.02 1320.02 -766.98 
	C 1323.26 -763.69 1327.93 -761.21 1330.7 -757.6 
	C 1335.74 -750.98 1338.22 -740.9 1341.46 -733.32 
	C 1345.64 -723.52 1349.83 -718.61 1360.29 -715.61 
	C 1366.11 -713.94 1369.63 -712.47 1374.58 -708.9 
	C 1380.02 -705.03 1380.12 -703.23 1380.12 -696.57 
	C 1380.12 -691.38 1379.83 -686.99 1378.78 -681.91 
	C 1378.12 -678.39 1375.26 -670.9 1380.02 -669 
	C 1384.88 -667.11 1389.92 -662.77 1394.78 -661.52 
	C 1396.49 -661.1 1400.59 -662.58 1401.72 -661.15 
	C 1403.62 -658.57 1405.35 -656.48 1406.48 -653.57 
	C 1408.87 -647.68 1406.97 -642.52 1405.92 -636.28 
	C 1404.95 -630.96 1405.45 -625.54 1405.45 -620.15 
	C 1408.5 -620.01 1411.43 -616.25 1413.82 -614.35 
	C 1418.58 -610.44 1423.34 -606.5 1428.11 -602.53 
	C 1430.19 -600.82 1435.23 -598.4 1436.1 -596.1 
	C 1437.44 -592.73 1433.15 -587.4 1431.62 -584.49 
	C 1422.88 -567.02 1417.34 -548.07 1410.87 -529.66 
	C 1408 -521.66 1409.43 -509.69 1408.87 -501.23 
	C 1408.38 -494.14 1408 -487.03 1407.54 -479.95 
	C 1406.88 -468.37 1406.2 -456.75 1405.54 -445.19 
	C 1405.14 -439.33 1392.97 -435.29 1388.11 -431.59 
	C 1358.02 -409.05 1332.97 -377.69 1326.68 -339.83 
	C 1366.39 -339.87 1406.29 -338.12 1446 -337.27 
	C 1450.58 -337.18 1459.14 -337.41 1460.85 -341.59 
	C 1463.15 -346.98 1465.42 -352.35 1467.72 -357.73 
	C 1468.19 -359.02 1470.75 -367.6 1472.58 -367.97 
	C 1476.56 -368.77 1479.89 -369.22 1484 -369.22 
	C 1487.33 -369.22 1496.57 -367.48 1499.22 -369.5 
	C 1504.08 -373.16 1504.17 -373.68 1504.17 -379.68 
	C 1504.17 -384.58 1504.17 -389.48 1504.17 -394.43 
	C 1504.17 -396.69 1502.95 -406.21 1504.17 -407.92 
	C 1505.51 -409.68 1507.5 -408.39 1508.46 -409.54 
	C 1510.18 -411.67 1511.89 -413.71 1513.51 -415.92 
	C 1519.32 -423.78 1520.26 -430.72 1520.26 -440.52 
	C 1520.26 -449.25 1520.57 -458.23 1521.79 -466.86 
	C 1522.56 -472.33 1523.31 -477.79 1524.09 -483.28 
	C 1524.65 -486.94 1529.22 -490.04 1530.93 -493.32 
	C 1531.71 -494.99 1531.22 -497.66 1533.61 -497.38 
	C 1535.42 -497.07 1535.79 -492.43 1536.07 -491.23 
	C 1536.85 -488.14 1533.42 -479.95 1532.74 -476.86 
	C 1530.93 -469.05 1532.27 -460.13 1532.27 -452.09 
	C 1532.27 -442.7 1532.55 -434.05 1533.7 -424.76 
	C 1534.64 -416.25 1534.64 -407.19 1537.41 -399.05 
	C 1538.75 -394.97 1542.95 -374.82 1546.93 -374.54 
	L 1545.59 -373.21 
	L 1545.59 -374.54 
	C 1525.7 -364.64 1509.33 -353.01 1493.62 -337.32 
	C 1486.84 -330.49 1480.57 -318.98 1476.19 -310.51 
	C 1470.96 -300.47 1468.19 -290.64 1465.52 -279.8 
	C 1503.7 -280.23 1541.79 -280.65 1579.98 -281.14 
	C 1583.4 -281.14 1585.49 -281.52 1588.82 -282.6 
	C 1591.22 -283.42 1593.68 -284.21 1596.07 -285.04 
	C 1597.01 -285.36 1596.07 -290.69 1596.26 -291.79 
	C 1598.06 -300.02 1604.07 -308.56 1607.12 -316.61 
	C 1608.64 -320.6 1611.01 -323.64 1613.5 -327.16 
	C 1617.77 -333.4 1617.11 -332.3 1624.33 -333.17 
	C 1632.82 -334.18 1642.82 -337.32 1651 -339.83 
	C 1654.33 -340.88 1657.57 -342.32 1660.81 -343.49 
	C 1662.89 -344.31 1662.8 -349.26 1663.2 -351.3 
	C 1664.52 -358.08 1662.24 -362.11 1661.58 -368.87 
	C 1660.15 -383.01 1656.73 -395.91 1651.1 -409 
	C 1641.01 -432.71 1639.02 -459.99 1637.68 -485.32 
	L 1639.02 -475.99 
	C 1639.02 -492.99 1651.47 -509.69 1668.34 -513.07 
	C 1671.57 -513.75 1674.34 -517.18 1676.71 -519.17 
	C 1681.29 -522.9 1685.86 -526.65 1690.34 -530.36 
	C 1693.67 -533.08 1691.18 -535.59 1689.85 -539.55 
	C 1688.23 -544.55 1688.42 -548.65 1688.42 -553.93 
	C 1688.42 -558.51 1687.1 -562.54 1686.05 -566.97 
	C 1685.48 -569.06 1684.62 -575.98 1685.76 -577.46 
	C 1690.71 -583.98 1703.76 -576.78 1709.08 -582.12 
	C 1712.04 -585.11 1716.14 -587.64 1716.8 -591.88 
	C 1717.57 -597.25 1718.7 -601.15 1720.71 -606.21 
	C 1722.33 -610.2 1723.46 -613.58 1727.09 -616.16 
	C 1729.65 -617.92 1736.99 -622.3 1737.74 -617.5 
	C 1743.28 -623.01 1748.23 -627.77 1752.21 -634.43 
	C 1756.7 -641.91 1753.83 -647.87 1751.46 -655.28 
	C 1748.79 -663.23 1757.47 -664.24 1758.03 -671 
	C 1758.41 -675.34 1758.78 -679.68 1759.09 -683.99 
	C 1759.37 -687.37 1763.29 -690 1763.19 -693.56 
	C 1765.49 -693.7 1773.79 -674.47 1776.26 -671.23 
	C 1778.27 -668.58 1775.22 -663.47 1777.22 -660.53 
	C 1780.74 -655.19 1782.64 -653.01 1788.17 -649.72 
	C 1790.92 -648.11 1797.79 -650.15 1800.65 -650.62 
	C 1805.69 -651.48 1807.03 -656.52 1809.3 -660.53 
	C 1811.21 -663.77 1816.74 -665.77 1819.77 -667.71 
	C 1822.53 -669.38 1830.72 -665.68 1833.77 -664.9 
	C 1841.49 -662.95 1846.72 -654.53 1855.11 -653.34 
	C 1865.48 -651.86 1873.57 -652.87 1883.87 -654.72 
	C 1886.71 -655.24 1888.23 -661.1 1890.25 -663.14 
	C 1894.99 -667.9 1897.1 -668.63 1903.67 -670.29 
	C 1908.71 -671.51 1908.52 -665.96 1910.05 -662.86 
	C 1911.39 -659.95 1915.47 -653.76 1918.23 -652.05 
	C 1921.47 -650.05 1924.71 -648.01 1927.94 -646 
	C 1930.43 -644.37 1932.42 -644.28 1935.19 -642.92 
	C 1940.33 -640.34 1940.8 -640.2 1946.12 -642.01 
	C 1949.48 -643.11 1952.31 -644.77 1955.36 -646.44 
	C 1961.93 -650.05 1968.03 -652.37 1975.18 -654.77 
	C 1982.41 -657.18 1988.13 -655.56 1995.07 -653.62 
	C 2001.27 -651.86 2006.4 -646.72 2012.59 -644.68 
	C 2018.6 -642.66 2027.82 -643.11 2033.17 -647.14 
	C 2036.87 -649.86 2039.26 -651.25 2043.63 -652.68 
	C 2047.45 -653.94 2050.59 -652.37 2054.49 -651.44 
	C 2061.05 -649.77 2068.3 -647.47 2074.19 -644.14 
	L 2074.19 -645.48 
	C 2075.92 -645.48 2082.19 -644.59 2083.62 -645.57 
	C 2087.63 -648.34 2091.52 -651.11 2095.53 -653.8 
	C 2101.54 -657.96 2107.24 -662.48 2113.52 -666.05 
	C 2126.94 -673.72 2140.29 -685.89 2156.94 -685.56 
	L 2154.27 -684.23 
	C 2158 -678.39 2161.8 -672.52 2165.52 -666.66 
	C 2168.36 -662.3 2166.18 -655.05 2170.94 -652.33 
	C 2177.7 -648.48 2182.37 -647.47 2190.18 -646.21 
	C 2196.46 -645.15 2201.04 -641.04 2206.27 -637.48 
	C 2201.79 -630.77 2200.26 -626.43 2198.55 -618.53 
	C 2197.21 -612.55 2200.08 -604.1 2200.85 -598.07 
	C 2201.41 -593.97 2208.94 -588.2 2211.59 -584.4 
	C 2215.79 -578.54 2219.59 -571.64 2225.03 -566.74 
	C 2219.59 -563.17 2217.13 -561.65 2214.27 -555.93 
	C 2213.02 -553.6 2207.98 -544.32 2209.03 -542.6 
	C 2215.02 -533.36 2220.65 -524.47 2227.68 -516.03 
	C 2219.99 -512.98 2218.37 -509.55 2213.61 -502.66 
	C 2208.94 -496 2209.03 -493.65 2209.03 -485.32 
	L 2206.27 -488 
	C 2206.27 -480.47 2204.09 -469.37 2206.46 -462.29 
	C 2209.78 -452.18 2213.12 -442.14 2216.54 -432.05 
	C 2217.69 -428.63 2218.65 -425.14 2219.68 -421.67 
	C 2221.49 -415.52 2218.84 -415.59 2213.7 -411.58 
	C 2207.32 -406.63 2200.94 -399.87 2194.47 -396.64 
	C 2177.79 -388.29 2163.04 -377.27 2152.95 -361.22 
	C 2143.15 -345.69 2139.05 -327.61 2137.42 -309.59 
	C 2137.24 -307.65 2137.05 -305.75 2136.86 -303.8 
	C 2143.81 -303.8 2150.47 -303.66 2157.32 -304.78 
	C 2165.71 -306.17 2173.81 -307.84 2182.27 -307.84 
	L 2180.94 -306.5 
	C 2203.22 -307.55 2225.41 -307.84 2247.69 -307.84 
	L 2247.69 -305.11 
	C 2255.59 -311.07 2262.82 -315.93 2268.73 -323.83 
	C 2274.83 -331.93 2277.01 -339.45 2277.01 -349.4 
	C 2277.01 -353.88 2276.26 -356.46 2279.5 -359.6 
	C 2284.26 -364.36 2284.35 -365.3 2290.82 -364.69 
	C 2301 -363.78 2306.14 -360.77 2314.82 -355.64 
	C 2321.2 -351.79 2329.85 -340.6 2337.39 -348.16 
	C 2338.82 -349.54 2345.57 -355.03 2345.1 -357.49 
	C 2344.05 -362.02 2343.58 -366.97 2341.47 -371.16 
	C 2339.66 -374.87 2337.1 -378.3 2337.1 -382.49 
	C 2337.1 -389.25 2338.04 -390.4 2342.15 -395.86 
	C 2344.82 -399.52 2347.75 -402.97 2350.71 -406.44 
	C 2354.62 -411.02 2356.34 -410.97 2353.1 -416.57 
	C 2350.42 -421.34 2349.96 -424.86 2349.18 -430.3 
	C 2348.62 -434 2344.82 -438.53 2343.76 -442.61 
	C 2341.37 -452.32 2343.39 -459.94 2346.44 -469.33 
	L 2346.44 -467.99 
	C 2350.24 -477.56 2352.51 -485.51 2354.22 -495.71 
	C 2354.72 -499.09 2352.14 -501.93 2351.57 -505.28 
	C 2350.9 -509.51 2349.09 -514.36 2349.09 -518.61 
	C 2349.09 -526.42 2351.76 -536.55 2359.08 -540.52 
	C 2363.75 -542.98 2368.32 -545.51 2372.99 -547.97 
	C 2373.67 -548.35 2381.76 -537.56 2382.7 -536.46 
	C 2387.27 -530.78 2391.85 -520.79 2391.85 -513.52 
	C 2391.85 -503.45 2386.31 -494.19 2382.61 -484.95 
	C 2379.65 -477.65 2389.08 -469 2393.09 -462.76 
	C 2394.71 -460.23 2399.38 -457.25 2399.94 -454.29 
	C 2401 -447.86 2401.09 -446.39 2398.14 -440.57 
	C 2396.52 -437.24 2390.23 -428.63 2394.62 -425.21 
	C 2399.94 -421.05 2405.17 -416.9 2410.52 -412.73 
	C 2413.76 -410.24 2423.65 -405.11 2425.18 -401.26 
	C 2426.8 -397.29 2420.7 -387.11 2418.52 -383.88 
	L 2418.52 -385.26 
	C 2417.84 -379.21 2416.5 -374.68 2419.17 -369.27 
	C 2421.85 -363.87 2424.9 -358.69 2427.74 -353.41 
	C 2430.88 -347.59 2422.88 -344.26 2419.36 -341.78 
	C 2415.28 -338.84 2411.27 -335.26 2407.75 -331.69 
	C 2391.38 -315.36 2379.93 -297.42 2371.84 -275.79 
	C 2388.71 -274.18 2405.76 -271.5 2422.78 -272.04 
	C 2442.79 -272.65 2462.59 -273.43 2482.6 -274.65 
	C 2487.92 -275 2493.25 -275.28 2498.59 -275.61 
	C 2503.05 -275.89 2503.45 -276.9 2506.29 -280.69 
	C 2508.87 -284.17 2512.29 -286.94 2514.97 -290.41 
	C 2517.62 -294.04 2519.54 -298.55 2521.82 -302.51 
	C 2523.62 -305.51 2529.72 -323.22 2532.3 -322.35 
	C 2540.58 -319.66 2549.73 -317.17 2558.48 -317.17 
	C 2562.09 -317.17 2567.23 -315.65 2569.06 -319.12 
	C 2570.49 -322.02 2572.85 -324.56 2573.72 -327.7 
	C 2574.66 -331.13 2575.91 -334.5 2576.28 -338.02 
	C 2576.56 -340.74 2576 -346.35 2577.9 -348.46 
	C 2580.85 -351.84 2583.9 -355.21 2586.95 -358.64 
	C 2588.94 -360.92 2588.1 -364.55 2588.1 -367.53 
	C 2588.1 -373.16 2581.23 -381.35 2577.33 -385.26 
	"/>
</g>
</g >
</g>
</svg>
