<?xml version="1.0" standalone="no"?>
<svg width="2375px" height="2375px" viewBox="-10 -1573 2375 2375 " xmlns="http://www.w3.org/2000/svg" xmlns:xlink="http://www.w3.org/1999/xlink">
<title>generated by pstoedit</title>
<!-- generated by pstoedit version:4.02 -->
<g xml:space='preserve'>
<clipPath id="clippath1"> 	<path d="
	M 0 -1562.79 
	L 0 792 
	L 2354.79 792 
	L 2354.79 -1562.79 
	Z 
	" style="clip-rule:nonzero"/>
</clipPath>
<g style="clip-path:url(#clippath1)"> 
<g fill="#95e8ff" fill-rule="nonzero" stroke-width="0" stroke-linejoin="miter" stroke-linecap="butt" stroke-miterlimit="10" >
	<path d="
	M 1253.76 760.121 
	C 1211.59 802.289 1143.2 802.289 1101.03 760.121 
	L 31.8828 -309.03 
	C -10.293 -351.2 -10.293 -419.59 31.8828 -461.76 
	L 1101.03 -1530.91 
	C 1143.2 -1573.09 1211.59 -1573.09 1253.76 -1530.91 
	L 2322.91 -461.76 
	C 2365.09 -419.59 2365.09 -351.2 2322.91 -309.03 
	Z 
	"/>
</g>
<g stroke="#7f7f7f" fill="none" stroke-width="0.5" stroke-linejoin="miter" stroke-linecap="butt" stroke-miterlimit="4" >
	<path d="
	M 1253.76 760.121 
	C 1211.59 802.289 1143.2 802.289 1101.03 760.121 
	L 31.8828 -309.03 
	C -10.293 -351.2 -10.293 -419.59 31.8828 -461.76 
	L 1101.03 -1530.91 
	C 1143.2 -1573.09 1211.59 -1573.09 1253.76 -1530.91 
	L 2322.91 -461.76 
	C 2365.09 -419.59 2365.09 -351.2 2322.91 -309.03 
	Z 
	"/>
</g>
<g fill="#7f7f7f" fill-rule="nonzero" stroke-width="0" stroke-linejoin="miter" stroke-linecap="butt" stroke-miterlimit="4" >
	<path d="
	M 2272 -359.94 
	L 1202.85 709.211 
	C 1188.82 723.238 1165.98 723.238 1151.94 709.211 
	L 82.793 -359.94 
	C 68.7578 -373.98 68.7578 -396.81 82.793 -410.85 
	L 1151.94 -1480 
	C 1165.98 -1494.03 1188.82 -1494.03 1202.85 -1480 
	L 2272 -410.85 
	C 2286.03 -396.81 2286.03 -373.98 2272 -359.94 
	Z 
	M 2303.82 -442.67 
	L 1234.67 -1511.82 
	C 1203.09 -1543.4 1151.7 -1543.4 1120.12 -1511.82 
	L 50.9727 -442.67 
	C 19.3945 -411.09 19.3945 -359.7 50.9727 -328.12 
	L 1120.12 741.031 
	C 1151.7 772.609 1203.09 772.609 1234.67 741.031 
	L 2303.82 -328.12 
	C 2335.4 -359.7 2335.4 -411.09 2303.82 -442.67 
	Z 
	"/>
</g>
<g fill="#7f7f7f" fill-rule="evenodd" stroke-width="0" stroke-linejoin="miter" stroke-linecap="butt" stroke-miterlimit="4" >
	<path d="
	M 899.973 -653.31 
	C 902.547 -644.38 915.684 -644.5 922.801 -645.85 
	C 935.027 -648.17 947.129 -649.27 959.422 -650.74 
	C 970.488 -652.06 979.645 -657.55 989.738 -661.81 
	C 999.836 -666.04 1008.61 -670.34 1015.76 -678.9 
	C 1022.41 -686.86 1029.21 -696.36 1038.52 -701.44 
	C 1048.71 -706.99 1058.78 -710.69 1067.68 -718.4 
	C 1076.4 -725.96 1085.24 -734.08 1093.3 -742.3 
	C 1101.14 -750.23 1104.87 -759.35 1109.54 -769.23 
	C 1114.21 -779.13 1120.26 -786.69 1120.58 -797.98 
	C 1120.67 -800.96 1119.6 -821.74 1115.94 -821.68 
	C 1113.27 -821.65 1109.92 -798.2 1109.01 -794.94 
	C 1105.9 -784.06 1101.86 -773.8 1096.37 -763.9 
	C 1090.92 -754.11 1083.01 -745.24 1076.24 -736.34 
	C 1071.29 -729.79 1061.38 -720.44 1052.73 -719.47 
	C 1040.78 -718.12 1066.18 -767.72 1060.72 -769.1 
	C 1056.49 -770.17 1046.86 -750.76 1045.3 -747.53 
	C 1040.41 -737.37 1037.21 -726.59 1032.6 -716.3 
	C 1028.21 -706.46 1020.97 -696.74 1012.47 -690.09 
	C 1004.6 -683.91 993.156 -684.61 992.563 -696.24 
	C 992.277 -701.79 993.848 -706.93 992.969 -712.51 
	C 992.027 -718.15 990.211 -723.67 988.297 -729.03 
	C 986.32 -734.52 983.5 -743.23 982.902 -732.29 
	C 981.684 -711.04 983.813 -687.39 968.387 -669.96 
	C 956.754 -656.8 951.77 -665.42 950.078 -678.84 
	C 949.512 -682.98 943.023 -706.02 940.043 -694.39 
	C 936.598 -680.78 945.688 -671.31 932.238 -661.15 
	C 926.469 -656.73 921.984 -655.64 914.805 -656.17 
	C 911.105 -656.42 901.102 -658.74 899.973 -653.31 
	M 785.883 -662.63 
	C 788.484 -671.44 778.262 -675.54 771.395 -675.26 
	C 760.297 -674.73 749.949 -675.67 738.914 -676.92 
	C 729.066 -678.05 720.762 -681.09 715.934 -690.34 
	C 713.016 -695.95 709.504 -716.49 700.508 -716.68 
	C 694.707 -716.8 701.32 -699.72 702.637 -695.98 
	C 705.398 -688.3 713.359 -675.82 708.219 -667.77 
	C 702.891 -659.43 689.031 -661.37 681.41 -664.57 
	C 676.898 -666.48 673.102 -669.05 669.813 -672.63 
	C 667.336 -675.36 665.516 -682.41 662.129 -683.88 
	C 654.168 -687.36 657.895 -675.17 659.559 -671.63 
	C 663.383 -663.6 666.77 -652.31 654.574 -649.58 
	C 644.668 -647.32 635.32 -655.66 627.141 -659.71 
	C 622.969 -661.75 605.633 -663.85 612.184 -654.48 
	C 618.738 -645.1 627.547 -641.81 638.176 -639.08 
	C 649.617 -636.2 656.988 -632.53 668.648 -637.23 
	C 680.094 -641.84 691.32 -646.64 702.949 -650.62 
	C 714.051 -654.41 725.715 -654.73 737.031 -657.2 
	C 745.652 -659.08 754.184 -662.44 763.055 -662.75 
	C 768.824 -662.97 781.648 -658.11 785.883 -662.63 
	M 1035.26 -683.85 
	C 1059.09 -685.36 1082.23 -688.71 1106.15 -687.14 
	C 1129.17 -685.64 1150.42 -677.18 1170.9 -667.14 
	C 1193.38 -656.11 1215.39 -644.13 1238.18 -633.69 
	C 1260.38 -623.53 1283.9 -618.42 1307.31 -611.8 
	C 1329.48 -605.56 1349.23 -602.46 1372.25 -605.56 
	C 1395.92 -608.73 1420.88 -610.64 1443.92 -616.88 
	C 1466.65 -623.09 1486.31 -631.84 1510.52 -629.74 
	C 1533.59 -627.76 1555.32 -623.59 1574.66 -610.14 
	C 1612.57 -583.8 1646.02 -542.39 1662.98 -499.62 
	C 1671.08 -479.24 1680.51 -455.22 1672.42 -434.06 
	C 1663.9 -411.8 1670.26 -387.31 1674.87 -364.99 
	C 1679.51 -342.45 1683.83 -319.56 1685.75 -296.64 
	C 1687.54 -274.72 1682.93 -247.39 1693.21 -227.35 
	C 1703.06 -208.16 1724.25 -193.68 1727.32 -170.949 
	C 1728.89 -159.16 1725.6 -147.488 1726.48 -135.699 
	C 1727.29 -124.73 1730.33 -114.16 1732.24 -103.352 
	C 1736.57 -78.922 1740.58 -54.219 1747.23 -30.289 
	C 1750.46 -18.629 1754.51 -7.55902 1759.84 3.32001 
	C 1764.29 12.469 1771.37 22.66 1769.81 33.289 
	C 1768.43 42.379 1759.33 48.059 1757.8 57.781 
	C 1756.14 68.531 1758.27 78.852 1760.43 89.289 
	C 1764.63 109.699 1741.15 127.48 1722.12 124.84 
	C 1715.22 123.84 1698.85 126.441 1694.03 120.859 
	C 1688.16 113.988 1693.49 98.852 1695.15 91.199 
	C 1699.76 69.941 1716.38 53.609 1718.36 31.559 
	C 1720.42 8.67999 1708.23 -13.738 1701.83 -35.25 
	C 1694.78 -59.051 1688.16 -82.969 1680.92 -106.699 
	C 1677.53 -117.891 1673.96 -127.738 1667.06 -137.328 
	C 1660.2 -146.828 1653.33 -155.391 1649.35 -166.59 
	C 1645.49 -177.5 1645.96 -189.852 1641.38 -200.512 
	C 1636.65 -211.42 1630.06 -219.35 1621.69 -227.63 
	C 1605.3 -243.78 1592.5 -262.18 1580.84 -282.03 
	C 1576.55 -289.34 1555.45 -336.4 1542.94 -319.31 
	C 1538.36 -313.01 1540.36 -296.92 1540.36 -289.59 
	C 1540.36 -277.95 1540.55 -266.2 1542.18 -254.56 
	C 1545.66 -230.36 1549.86 -208.44 1563.94 -188.059 
	C 1569.77 -179.57 1579.77 -170.98 1580.06 -160.129 
	C 1580.31 -150.281 1574.32 -140.309 1571 -131.281 
	C 1562.31 -107.641 1556.42 -83.879 1552.28 -59.051 
	C 1550.4 -47.602 1548.89 -36.059 1547.23 -24.59 
	C 1545.57 -13.051 1542.5 -1.32001 1542.47 10.371 
	C 1542.4 23.102 1543.19 33.289 1535.85 44.23 
	C 1529.83 53.141 1518.73 58.441 1518.48 70.16 
	C 1518.26 82.48 1519.92 90.262 1512.65 101.262 
	C 1508.1 108.07 1495.28 115.441 1487.35 117.281 
	C 1479.23 119.141 1463.42 122.828 1457.72 115.59 
	C 1455.68 113.02 1455.93 108.129 1451.89 108.191 
	C 1448.91 108.25 1447.65 112.328 1443.8 111.52 
	C 1434.8 109.699 1437.93 98.98 1442.13 94.371 
	C 1450.44 85.309 1458.88 76.711 1466.56 67.09 
	C 1479.19 51.219 1496.75 31.82 1498.76 10.84 
	C 1501.17 -14.238 1502.36 -39.48 1503.93 -64.66 
	C 1505.28 -86.73 1506.91 -109.84 1501.42 -131.5 
	C 1495.69 -154.199 1485.43 -175.59 1473.2 -195.5 
	C 1461.67 -214.18 1445.65 -232.27 1439.22 -253.47 
	C 1437.65 -258.77 1436.37 -264.13 1435.21 -269.52 
	C 1434.86 -271.09 1435.05 -276.23 1433.98 -277.08 
	C 1432.7 -278.02 1424.89 -275.82 1423.29 -275.6 
	C 1412.04 -274.07 1400.75 -272.47 1389.37 -271.75 
	C 1363.91 -270.05 1339.8 -272.22 1314.49 -274.79 
	C 1290.92 -277.14 1268.97 -272.03 1246.74 -264.82 
	C 1235.8 -261.24 1224.07 -256.51 1212.44 -255.97 
	C 1200.84 -255.44 1189.33 -257.2 1177.79 -256.54 
	C 1168.2 -256.01 1160.77 -250.46 1160.08 -240.68 
	C 1159.3 -229.04 1160.65 -219.23 1156.07 -208.07 
	C 1147.1 -186.34 1136.75 -169.441 1140.77 -145.02 
	C 1144.5 -122.57 1154.41 -100.648 1161.4 -79.109 
	C 1169.14 -55.352 1175.63 -31.301 1182.59 -7.37903 
	C 1186.04 4.47998 1189.36 16.359 1193.56 27.93 
	C 1196.26 35.391 1205.54 45.27 1204.98 53.012 
	C 1204.66 57.398 1201.12 62.199 1199.62 66.238 
	C 1197.55 71.73 1197.42 78.031 1197.58 83.801 
	C 1197.83 91.699 1203.22 110.039 1197.83 116.441 
	C 1192.4 122.961 1178.52 124.621 1170.55 124.461 
	C 1158.39 124.34 1155.82 126.379 1150.61 137.879 
	C 1140.42 160.398 1121.45 160.801 1099.54 161.84 
	C 1092.48 162.148 1081.42 167.262 1078.47 158.52 
	C 1074.49 146.602 1072.1 156.289 1064.01 154 
	C 1049.28 149.922 1079.35 109.699 1085.27 105.691 
	C 1093.99 99.789 1107.94 98.031 1114.05 89.102 
	C 1119.63 80.949 1119.17 68.629 1119.42 59.16 
	C 1120.11 34.23 1117.53 10.059 1113.8 -14.488 
	C 1106.72 -61.59 1099.98 -109.68 1088.63 -155.93 
	C 1082.95 -179 1076.37 -201.73 1072.89 -225.25 
	C 1071.13 -237.16 1078.88 -247.07 1077.97 -258.04 
	C 1077.15 -268.23 1071.29 -280.37 1063.73 -287.36 
	C 1056.55 -294.01 1048.46 -300.46 1043.13 -308.93 
	C 1040.91 -312.51 1036.05 -330.6 1029.71 -328.75 
	C 1023.26 -326.8 1030.19 -308.62 1032.19 -305.14 
	C 1037.65 -295.45 1046.93 -288.64 1053.64 -279.9 
	C 1058.37 -273.69 1069.85 -262.94 1069.44 -254.72 
	C 1068.94 -245.44 1060.28 -245.31 1054.36 -249.27 
	C 1045.14 -255.41 1038.84 -265 1030.09 -271.53 
	C 1022.16 -277.45 1010.43 -275.13 1003.82 -282.15 
	C 988.141 -298.9 1004.19 -323.95 988.141 -340 
	C 980.992 -347.18 985.727 -321.03 985.977 -318.71 
	C 986.762 -311.28 990.961 -296.23 984.316 -290.53 
	C 975.379 -282.91 964.594 -296.42 960.453 -302.97 
	C 954.152 -312.94 953.965 -323.82 951.801 -335.05 
	C 949.699 -345.86 944.969 -357.94 941.203 -368.35 
	C 937.727 -378.03 925.496 -386.28 917.629 -392.39 
	C 898.469 -407.29 892.137 -433.81 882.98 -455.57 
	C 879.281 -464.51 874.422 -469.8 884.895 -474.07 
	C 895.082 -478.18 903.297 -486.23 907.059 -496.92 
	C 908.098 -499.9 909.41 -515.17 904.457 -513.6 
	C 902.641 -513.04 899.848 -501.75 898.563 -499.4 
	C 896.023 -494.95 892.637 -490.72 888.719 -487.39 
	C 880.598 -480.43 869.625 -477.42 861.191 -470.71 
	C 851.91 -463.35 850.781 -456.95 853.668 -445.66 
	C 855.703 -437.57 857.93 -427.92 852.602 -420.58 
	C 846.707 -412.49 834.57 -411.8 826.328 -406.66 
	C 817.516 -401.17 809.145 -392.24 797.855 -395.25 
	C 786.695 -398.19 779.703 -406.09 767.164 -404.97 
	C 756.094 -403.99 755.25 -402.9 751.172 -414.15 
	C 749.262 -419.39 747.691 -422.68 742.52 -425.25 
	C 738.129 -427.41 733.551 -427.95 730.762 -432.43 
	C 725.086 -441.55 733.02 -454.22 733.898 -463.85 
	C 734.898 -474.79 733.113 -485.89 734.211 -496.83 
	C 735.34 -507.8 739.539 -518.62 744.715 -528.37 
	C 750.293 -538.94 756.348 -545.3 756.566 -557.81 
	C 756.816 -568.72 761.707 -579.04 764.402 -589.48 
	C 767.445 -601.14 765.125 -613.15 766.691 -625 
	C 767.32 -629.83 777.133 -646.2 774.938 -649.36 
	C 771.52 -654.29 750.449 -645.41 745.75 -644.66 
	C 740.324 -643.78 734.836 -645.07 729.414 -645.13 
	C 723.078 -645.16 717.875 -643 711.793 -641.87 
	C 699.504 -639.61 688.402 -635.7 676.836 -631.05 
	C 666.738 -627.01 656.516 -622.65 645.512 -625.13 
	C 635.824 -627.29 623.816 -630.36 615.508 -635.85 
	C 606.727 -641.68 597.574 -646.13 588.762 -651.65 
	C 584.121 -654.6 580.266 -658.36 575.344 -660.87 
	C 570.984 -663.13 565.688 -664.45 563.117 -669.09 
	C 558.477 -677.46 564.059 -687.36 572.617 -690.19 
	C 582.586 -693.45 589.641 -685.61 597.699 -681.5 
	C 602.277 -679.15 607.262 -677.64 611.902 -675.51 
	C 616.605 -673.38 622.531 -669.18 627.609 -668.64 
	C 631.09 -668.24 630.492 -666.92 630.996 -669.12 
	C 631.621 -671.84 625.07 -681.28 623.313 -683.54 
	C 609.957 -700.66 595.629 -718.03 583.84 -736.46 
	C 576.598 -747.78 575 -758.82 572.68 -771.86 
	C 571.77 -776.69 571.551 -781.74 570.391 -786.5 
	C 569.355 -790.7 566.531 -794.28 565.531 -798.39 
	C 564.402 -803.21 565.594 -807.76 563.805 -812.65 
	C 561.77 -818.11 558.445 -822.84 557.223 -828.61 
	C 556.063 -834 554.809 -848.89 563.367 -849.08 
	C 566.473 -849.15 570.203 -845.45 572.711 -844.1 
	C 575.594 -842.56 578.32 -843.54 581.301 -842.84 
	C 590.176 -840.87 593.719 -831.56 593.527 -823.25 
	C 593.434 -819.36 590.895 -814.69 592.523 -810.89 
	C 594.063 -807.29 598.891 -805 601.336 -801.93 
	C 606.039 -796 615.195 -782.96 612.781 -798.57 
	C 611.148 -809.27 609.301 -818.98 604.344 -828.77 
	C 601.68 -834.04 598.578 -839.33 596.477 -844.85 
	C 595.285 -848.02 592.336 -855.92 592.398 -858.96 
	C 592.492 -864.07 600.676 -874.2 606.008 -872.85 
	C 612.684 -871.16 617.922 -852.38 620.555 -846.73 
	C 622.344 -842.94 630.336 -831.78 633.066 -841.18 
	C 635.48 -849.52 631.309 -865.04 628.832 -873.26 
	C 625.918 -882.91 607.449 -920 633.348 -915.52 
	C 654.512 -911.88 648.898 -879.9 666.234 -871.44 
	C 672.508 -868.4 667.27 -883.89 667.43 -886.77 
	C 667.68 -891.38 666.332 -905.61 672.004 -907.65 
	C 680.691 -910.79 685.551 -902.98 685.582 -895.36 
	C 685.613 -891.75 687.527 -876.02 693.484 -885.33 
	C 697.277 -891.22 688.969 -901.22 690.691 -908.72 
	C 693.355 -920.41 697.746 -914.61 704.426 -910.35 
	C 710.789 -906.27 714.992 -912.45 721.137 -910.19 
	C 729.066 -907.31 728.41 -894.67 732.328 -888.68 
	C 735.871 -893.07 731.262 -905.74 738.535 -908 
	C 746.469 -910.44 750.23 -894.14 751.676 -889.59 
	C 755.027 -879.06 758.633 -869.93 756.848 -858.74 
	C 755.188 -848.33 753.305 -837.7 751.453 -827.32 
	C 749.574 -816.82 741.859 -808.98 738.883 -798.89 
	C 735.84 -788.57 734.836 -778.23 734.18 -767.57 
	C 733.68 -759.26 730.637 -745.84 734.773 -738.31 
	C 739.32 -729.91 737.379 -720.19 740.199 -711.35 
	C 741.172 -708.25 749.793 -691.54 754.996 -697.27 
	C 757.004 -699.46 753.461 -703.95 752.898 -705.83 
	C 751.516 -710.57 751.359 -716.14 751.172 -721.04 
	C 750.734 -732.17 749.168 -742.89 752.145 -753.74 
	C 753.117 -757.09 754.871 -760.39 754.965 -763.84 
	C 755.09 -768.51 751.645 -772.49 753.711 -777.35 
	C 756.754 -784.46 770.266 -784.56 776.473 -782.08 
	C 786.945 -777.91 790.457 -768.16 796.762 -759.79 
	C 803.219 -751.2 806.668 -742.3 810.742 -732.42 
	C 812.5 -728.09 812.938 -723.42 814.883 -719.19 
	C 816.105 -716.49 821.594 -707.96 824.664 -707.24 
	C 828.207 -706.39 829.055 -709.19 831.875 -711.07 
	C 834.477 -712.79 837.176 -712.41 839.965 -712.86 
	C 848.742 -714.17 854.605 -718.97 863.949 -719.09 
	C 868.746 -719.19 872.605 -718.78 877.273 -717.62 
	C 881.414 -716.59 880.723 -719.81 881.477 -722.79 
	C 883.297 -730.32 884.266 -739.16 886.523 -746.37 
	C 887.559 -749.79 890.57 -751.64 892.168 -754.87 
	C 893.926 -758.47 893.516 -762.42 896.527 -765.53 
	C 902.391 -771.64 902.324 -782.68 907.75 -789.79 
	C 915.777 -800.36 941.551 -831.84 953.527 -808.14 
	C 957.758 -799.77 949.168 -790.64 951.613 -781.55 
	C 952.805 -777.13 956.129 -773.71 957.695 -769.48 
	C 959.672 -764.15 960.078 -758.32 960.895 -752.7 
	C 962.367 -742.58 965.031 -732.26 960.047 -722.73 
	C 957.789 -718.37 955.125 -715.58 955.785 -710.47 
	C 956.098 -708.06 958.855 -700.09 962.398 -700.44 
	C 964.906 -700.69 968.168 -708.12 969.328 -710.06 
	C 972.465 -715.43 971.18 -720.94 971.461 -726.84 
	C 971.93 -737.65 973.09 -747.5 970.738 -758.25 
	C 969.172 -765.46 965.473 -779.61 975.727 -783.12 
	C 987.199 -787.07 984.223 -772.74 984.629 -767.19 
	C 985.035 -760.95 987.418 -746.31 995.539 -745.62 
	C 1007.55 -744.61 1009.4 -762.68 1009.93 -770.54 
	C 1010.31 -775.72 1007.55 -779.95 1006.58 -784.84 
	C 1005.54 -789.95 1006.26 -795.22 1004.98 -800.3 
	C 1002.28 -811.05 996.48 -821.3 995.039 -832.21 
	C 993.375 -844.79 995.758 -855.32 999.68 -867.21 
	C 1000.96 -871.19 1001.06 -874.67 1001.25 -878.81 
	C 1001.5 -883.38 1003.91 -886.77 1005.01 -891.1 
	C 1006.2 -895.61 1005.67 -900.47 1006.67 -905.05 
	C 1007.58 -909.25 1011.12 -913.07 1013 -916.93 
	C 1015.14 -921.35 1015.26 -926.81 1020.65 -925.37 
	C 1024.2 -924.43 1029.12 -916.71 1031.31 -913.67 
	C 1036.08 -907.12 1038.37 -924.64 1039.43 -926.02 
	C 1045.17 -933.23 1057.05 -930.26 1065.24 -932.42 
	C 1074.24 -934.84 1083.61 -937.19 1087.22 -925.49 
	C 1090.1 -916.21 1079.72 -919.54 1079.32 -912.98 
	C 1079.06 -909.06 1084.9 -902.2 1085.96 -908.62 
	C 1086.68 -913.3 1094.33 -925.4 1100.26 -922.54 
	C 1120.04 -913.01 1099.38 -878.74 1098.32 -864.76 
	C 1097.53 -854.7 1106.56 -855.29 1110.95 -862.32 
	C 1112.93 -865.57 1112.71 -867.77 1116.34 -869.71 
	C 1119.23 -871.28 1122.49 -870.09 1124.37 -873.29 
	C 1125.69 -875.67 1123.96 -880.03 1124.37 -882.73 
	C 1124.93 -886.93 1127.1 -892.32 1130.29 -895.17 
	C 1136.82 -901 1140.39 -894.7 1142.68 -888.15 
	C 1150.49 -865.77 1141.08 -840.71 1137.48 -818.01 
	C 1133.87 -795.31 1126.72 -772.27 1114.68 -752.64 
	C 1105.43 -737.5 1090.95 -725.77 1078.53 -713.39 
	C 1072.64 -707.52 1063.14 -705.89 1055.99 -701.82 
	C 1047.87 -697.21 1041.82 -690.37 1035.26 -683.85 
	M 936.531 -769.66 
	C 918.941 -779.73 914.145 -739.6 914.43 -729.91 
	C 914.523 -727.09 915.965 -710.91 920.762 -711.91 
	C 926.25 -713.04 922.234 -728.88 923.207 -732.42 
	C 929.383 -754.59 941.676 -718.75 947.066 -721.48 
	C 951.301 -723.61 946.254 -740.32 944.902 -743.68 
	C 942.02 -750.79 942.395 -764.8 936.531 -769.66 
	M 762.711 -742.58 
	C 756.063 -733.61 760.641 -715.64 761.895 -704.89 
	C 762.836 -696.52 764.813 -697.74 770.297 -693.86 
	C 774.344 -691 776.352 -682.57 781.461 -682.13 
	C 782.809 -682.04 785.535 -679.4 786.352 -679.68 
	C 787.949 -680.21 788.609 -686.48 788.547 -687.93 
	C 788.074 -698.18 777.258 -709.28 773.496 -718.37 
	C 770.078 -726.74 766.66 -734.36 762.711 -742.58 
	M 865.801 -607.32 
	C 859.277 -611.89 854.074 -611.96 847.301 -608.1 
	C 842.285 -605.25 838.18 -600.58 842.098 -594.59 
	C 849.277 -583.71 865.078 -598.35 865.801 -607.32 
	M 1146.19 -17.352 
	C 1148.36 -24.121 1142.99 -23.621 1141.9 -17.352 
	C 1140.08 -7.28101 1143.9 6.039 1144.78 16.23 
	C 1145.91 28.59 1151.11 40.281 1155.85 51.191 
	C 1156.38 52.379 1160.65 63.23 1161.74 58.469 
	C 1163.66 50.16 1158.7 36.328 1156.91 28.148 
	C 1153.97 14.699 1144 -3.30103 1146.19 -17.352 
	M 823.191 -449.05 
	C 817.422 -452.03 813.91 -449.55 812.875 -443.62 
	C 812.469 -441.46 811.215 -439.49 813.473 -438.08 
	C 815.73 -436.66 816.137 -439.8 818.02 -439.49 
	C 821.059 -439.01 825.48 -433.5 828.395 -437.76 
	C 830.465 -440.77 825.168 -446.92 823.191 -449.05 
	M 802.09 -675.57 
	C 813.316 -671.72 811.715 -694.79 806.543 -698.65 
	C 802.496 -701.66 802.434 -699.18 802.371 -694.23 
	C 802.309 -689.62 798.828 -678.93 802.09 -675.57 
	"/>
</g>
</g >
</g>
</svg>
