<?xml version="1.0" encoding="UTF-8" standalone="no"?>
<!-- Created with Inkscape (http://www.inkscape.org/) -->

<svg
   version="1.1"
   id="svg1"
   width="6278.7734"
   height="6278.7734"
   viewBox="0 0 6278.7734 6278.7734"
   sodipodi:docname="tmp1f2bro9_.pdf"
   xmlns:inkscape="http://www.inkscape.org/namespaces/inkscape"
   xmlns:sodipodi="http://sodipodi.sourceforge.net/DTD/sodipodi-0.dtd"
   xmlns="http://www.w3.org/2000/svg"
   xmlns:svg="http://www.w3.org/2000/svg">
  <defs
     id="defs1" />
  <sodipodi:namedview
     id="namedview1"
     pagecolor="#ffffff"
     bordercolor="#000000"
     borderopacity="0.25"
     inkscape:showpageshadow="2"
     inkscape:pageopacity="0.0"
     inkscape:pagecheckerboard="0"
     inkscape:deskcolor="#d1d1d1">
    <inkscape:page
       x="0"
       y="0"
       inkscape:label="1"
       id="page1"
       width="6278.7734"
       height="6278.7734"
       margin="0"
       bleed="0" />
  </sodipodi:namedview>
  <g
     id="g1"
     inkscape:groupmode="layer"
     inkscape:label="1">
    <g
       id="group-R5">
      <path
         id="path2"
         d="m 25072.7,635.102 c -843.5,-843.5 -2211.1,-843.5 -3054.6,0 L 635.152,22018 c -843.535,843.6 -843.535,2211.2 0,3054.7 l 21382.948,21383 c 843.5,843.5 2211.1,843.5 3054.6,0 l 21383,-21383 c 843.5,-843.5 843.5,-2211.1 0,-3054.7 L 25072.7,635.102"
         style="fill:#fccc2d;fill-opacity:1;fill-rule:nonzero;stroke:#231f20;stroke-width:5;stroke-linecap:butt;stroke-linejoin:miter;stroke-miterlimit:4;stroke-dasharray:none;stroke-opacity:1"
         transform="matrix(0.13333333,0,0,-0.13333333,0,6278.7733)" />
      <path
         id="path3"
         d="M 45437.4,23036.3 24054.5,1653.4 c -280.7,-280.8 -737.5,-280.8 -1018.2,0 L 1653.38,23036.3 c -280.73,280.7 -280.73,737.5 0,1018.2 L 23036.3,45437.4 c 280.7,280.7 737.5,280.7 1018.2,0 L 45437.4,24054.5 c 280.8,-280.7 280.8,-737.5 0,-1018.2 z m 636.4,1654.6 -21382.9,21382.9 c -631.6,631.7 -1659.4,631.7 -2291,0 L 1016.99,24690.9 c -631.642,-631.6 -631.642,-1659.4 0,-2291 L 22399.9,1017 c 631.6,-631.699 1659.4,-631.699 2291,0 l 21382.9,21382.9 c 631.7,631.6 631.7,1659.4 0,2291"
         style="fill:#231f20;fill-opacity:1;fill-rule:nonzero;stroke:none"
         transform="matrix(0.13333333,0,0,-0.13333333,0,6278.7733)" />
      <path
         id="path4"
         d="m 18244.4,28815.9 c 50.5,-175.7 309,-173.3 449,-146.8 240.5,45.7 478.6,67.3 720.4,96.3 217.7,25.9 397.8,133.8 596.4,217.7 198.6,83.3 371.3,167.8 512,336.1 130.7,156.7 264.6,343.6 447.7,443.5 200.5,109.2 398.5,182 573.6,333.7 171.5,148.6 345.4,308.4 504,470 154.2,156 227.5,335.5 319.5,529.8 91.8,194.9 210.9,343.5 217.1,565.6 1.8,58.6 -19.2,467.5 -91.3,466.3 -52.5,-0.6 -118.4,-462 -136.3,-526.1 -61.1,-214.1 -140.7,-415.8 -248.6,-610.7 -107.3,-192.4 -262.7,-366.9 -396,-542.1 -97.4,-128.9 -292.3,-312.7 -462.6,-331.9 -235,-26.5 264.6,949.3 157.3,976.4 -83.2,21 -272.6,-360.8 -303.4,-424.3 -96.3,-199.9 -159.2,-412 -249.8,-614.4 -86.4,-193.6 -228.8,-384.8 -396,-515.6 -154.8,-121.5 -379.9,-107.9 -391.7,120.9 -5.5,109.2 25.3,210.3 8.1,320.1 -18.6,111.1 -54.3,219.6 -91.9,325.1 -38.9,107.9 -94.4,279.4 -106.1,64.1 -24.1,-418.2 17.9,-883.2 -285.6,-1226.1 -228.8,-259.1 -326.9,-89.5 -360.2,174.5 -11.1,81.4 -138.8,534.8 -197.4,305.9 -67.8,-267.7 111,-453.9 -153.5,-653.8 -113.5,-86.9 -201.7,-108.5 -343,-98 -72.8,4.9 -269.5,50.5 -291.7,-56.2 m -2244.5,183.2 c 51.2,173.3 -149.9,254.2 -285,248.6 -218.3,-10.5 -421.8,8 -638.9,32.7 -193.7,22.2 -357.2,82 -452.1,264 -57.4,110.4 -126.5,514.4 -303.5,518.1 -114.1,2.4 16,-333.7 41.9,-407.1 54.3,-151.1 211,-396.6 109.8,-555.1 -104.8,-164.1 -377.4,-125.8 -527.3,-62.9 -88.8,37.6 -163.5,88.2 -228.2,158.5 -48.8,53.6 -84.5,192.4 -151.2,221.4 -156.6,68.5 -83.2,-171.5 -50.5,-241.2 75.2,-157.9 141.8,-379.9 -98.1,-433.5 -194.9,-44.5 -378.7,119.6 -539.7,199.2 -82,40 -423.1,81.4 -294.2,-103 128.9,-184.4 302.2,-249.2 511.3,-302.9 225.2,-56.7 370.1,-128.9 599.5,-36.4 225.2,90.7 446,185 674.8,263.4 218.3,74.6 447.8,80.8 670.5,129.5 169.6,37 337.3,103 511.9,109.2 113.5,4.3 365.7,-91.3 449,-2.5 m 4905.9,417.6 c 468.8,29.6 923.9,95.6 1394.6,64.7 452.7,-29.6 870.8,-196.1 1273.6,-393.5 442.2,-217.1 875.2,-452.7 1323.6,-658.1 436.7,-199.8 899.3,-300.3 1360,-430.5 436,-122.7 824.6,-183.8 1277.4,-122.7 465.6,62.3 956.6,99.9 1409.9,222.7 447.2,122.1 833.9,294.1 1310.1,252.8 453.9,-38.8 881.4,-120.9 1261.9,-385.5 745.7,-518.1 1403.8,-1332.9 1737.5,-2174.1 159.1,-401 344.8,-873.4 185.7,-1289.7 -167.8,-437.9 -42.6,-919.7 48.1,-1358.8 91.2,-443.5 176.3,-893.7 214,-1344.6 35.1,-431.1 -55.5,-969 146.8,-1363.1 193.6,-377.5 610.6,-662.4 671,-1109.6 30.9,-231.9 -33.9,-461.3 -16.6,-693.3 16,-215.8 75.8,-423.7 113.4,-636.5 85.2,-480.4 164.1,-966.5 294.9,-1437.1 63.5,-229.4 143.1,-447.2 248,-661.2 87.5,-180.1 226.9,-380.5 196.1,-589.6 -27.2,-178.9 -206,-290.5 -236.3,-481.7 -32.6,-211.6 9.3,-414.5 51.9,-619.9 82.6,-401.5 -379.4,-751.2 -753.7,-699.4 -135.7,19.8 -457.7,-31.5 -552.7,78.3 -115.4,135.1 -10.5,433 22.2,583.5 90.7,418.2 417.6,739.5 456.5,1173.1 40.7,450.2 -199.3,891.3 -325.1,1314.4 -138.8,468.1 -269,938.7 -411.5,1405.6 -66.5,220.2 -136.9,413.9 -272.6,602.6 -135,186.9 -270.1,355.3 -348.4,575.5 -75.9,214.7 -66.6,457.7 -156.7,667.4 -93.1,214.6 -222.7,370.7 -387.3,533.5 -322.6,317.6 -574.3,679.7 -803.7,1070.1 -84.5,143.7 -499.6,1069.5 -745.6,733.3 -90.1,-123.9 -50.7,-440.4 -50.7,-584.7 0,-228.8 3.8,-460.1 35.8,-688.9 68.5,-476.2 151.2,-907.3 428.1,-1308.2 114.8,-167.2 311.5,-336.1 317,-549.6 5,-193.7 -112.8,-389.8 -178.2,-567.4 -170.9,-465.1 -286.8,-932.6 -368.3,-1421.1 -37,-225.1 -66.5,-452.1 -99.2,-677.8 -32.8,-227 -93.2,-457.7 -93.8,-687.8 -1.2,-250.4 14.2,-450.8 -130.1,-666.1 -118.4,-175.2 -336.8,-279.4 -341.8,-510 -4.3,-242.5 28.4,-395.4 -114.7,-611.9 -89.4,-133.9 -341.7,-278.8 -497.7,-315.1 -159.8,-36.5 -470.7,-109.2 -582.9,33.2 -40.1,50.6 -35.2,146.9 -114.7,145.6 -58.6,-1.2 -83.2,-81.4 -159.1,-65.4 -177,35.8 -115.4,246.7 -32.7,337.4 163.4,178.2 329.3,347.3 480.4,536.6 248.6,312.1 594,693.9 633.5,1106.5 47.5,493.4 70.9,990 101.7,1485.2 26.6,434.2 58.6,888.8 -49.3,1315 -112.9,446.5 -314.5,867.2 -555.1,1258.9 -227,367.6 -542.1,723.5 -668.6,1140.4 -30.8,104.2 -56.1,209.7 -78.9,315.8 -6.8,30.8 -3.1,132 -24.1,148.6 -25.3,18.5 -178.8,-24.7 -210.3,-29 -221.4,-30.2 -443.5,-61.7 -667.4,-75.8 -500.8,-33.3 -975.1,9.2 -1472.9,59.8 -463.8,46.3 -895.5,-54.3 -1332.8,-196.1 -215.3,-70.4 -446,-163.5 -674.8,-174 -228.2,-10.5 -454.6,24.1 -681.6,11.1 -188.6,-10.4 -334.8,-119.6 -348.4,-312.1 -15.4,-228.8 11.1,-421.9 -78.9,-641.4 -176.4,-427.5 -380,-759.9 -301,-1240.3 73.4,-441.7 268.3,-872.8 405.8,-1296.6 152.4,-467.5 280,-940.5 416.9,-1411.1 67.9,-233.2 133.3,-467 215.9,-694.5 53,-146.8 235.6,-341.1 224.5,-493.5 -6.1,-86.3 -75.9,-180.7 -105.4,-260.3 -40.8,-107.9 -43.2,-231.9 -40.1,-345.3 4.9,-155.4 111,-516.3 4.9,-642.1 -106.7,-128.3 -380,-161 -536.6,-157.9 -239.3,2.5 -289.9,-37.7 -392.3,-264 -200.4,-442.9 -573.6,-450.9 -1004.7,-471.2 -138.8,-6.2 -356.5,-106.7 -414.5,65.3 -78.3,234.4 -125.2,43.8 -284.3,88.9 -289.9,80.2 301.6,871.5 418.2,950.4 171.4,116 445.9,150.5 566.2,326.3 109.8,160.4 100.5,402.7 105.5,589 13.5,490.4 -37.1,965.9 -110.5,1448.9 -139.4,926.4 -272,1872.5 -495.3,2782.3 -111.6,453.9 -241.1,901.1 -309.6,1363.7 -34.5,234.4 117.9,429.3 100,645.2 -16.1,200.4 -131.4,439.1 -280.1,576.6 -141.2,130.8 -300.3,257.8 -405.2,424.4 -43.8,70.3 -139.4,426.2 -264,389.8 -127,-38.3 9.3,-396 48.8,-464.5 107.3,-190.5 289.8,-324.4 421.8,-496.5 93.2,-122.1 318.9,-333.7 310.9,-495.3 -9.9,-182.5 -180.1,-185 -296.7,-107.3 -181.3,120.9 -305.3,309.6 -477.4,438 -156,116.5 -386.7,70.8 -516.8,209.1 -308.4,329.3 7.4,822.1 -308.4,1137.9 -140.6,141.3 -47.5,-373.1 -42.6,-418.8 15.4,-146.2 98.1,-442.2 -32.7,-554.5 -175.8,-149.8 -387.9,116 -469.3,244.9 -124,196.1 -127.7,410.1 -170.3,631 -41.3,212.7 -134.4,450.2 -208.4,655 -68.5,190.5 -309.1,352.8 -463.9,473 -376.8,293 -501.4,814.8 -681.5,1242.9 -72.8,175.8 -168.4,280 37.6,363.9 200.4,80.8 362.1,239.3 436.1,449.6 20.3,58.6 46.2,359 -51.2,328.1 -35.8,-11 -90.7,-233.1 -116,-279.3 -49.9,-87.6 -116.6,-170.9 -193.7,-236.3 -159.7,-136.9 -375.6,-196.1 -541.5,-328.1 -182.5,-145 -204.7,-270.8 -148,-492.8 40.1,-159.1 83.9,-349.1 -21,-493.5 -115.9,-159.1 -354.6,-172.6 -516.8,-273.8 -173.4,-107.9 -338,-283.7 -560.1,-224.5 -219.6,58 -357.1,213.4 -603.8,191.2 -217.7,-19.1 -234.4,-40.7 -314.6,180.7 -37.6,103 -68.4,167.8 -170.2,218.4 -86.4,42.5 -176.4,53 -231.3,141.2 -111.6,179.5 44.4,428.7 61.7,618 19.7,215.3 -15.4,433.6 6.1,648.9 22.2,215.9 104.9,428.6 206.7,620.5 109.7,207.8 228.8,333 233.1,579.1 4.9,214.7 101.1,417.6 154.2,622.9 59.8,229.5 14.2,465.8 45,698.9 12.4,95 205.4,416.9 162.2,479.2 -67.2,96.9 -481.7,-77.7 -574.2,-92.5 -106.7,-17.3 -214.7,8 -321.3,9.3 -124.6,0.6 -227,-42 -346.7,-64.2 -241.7,-44.4 -460.1,-121.5 -687.7,-212.8 -198.6,-79.5 -399.7,-165.3 -616.2,-116.6 -190.5,42.6 -426.8,103.1 -590.2,211 -172.7,114.7 -352.8,202.3 -526.1,310.9 -91.3,57.9 -167.2,132 -264,181.3 -85.8,44.4 -190,70.3 -240.5,161.6 -91.3,164.7 18.5,359.6 186.8,415.1 196.2,64.1 334.9,-90.1 493.5,-170.9 90,-46.2 188.1,-75.8 279.4,-117.8 92.5,-41.9 209.1,-124.6 309,-135.1 68.4,-8 56.7,-33.9 66.6,9.3 12.3,53.6 -116.6,239.3 -151.1,283.7 -262.8,336.8 -544.6,678.5 -776.6,1041.1 -142.4,222.7 -173.9,439.8 -219.5,696.4 -17.9,95 -22.2,194.3 -45.1,288 -20.3,82.7 -75.8,153 -95.6,233.8 -22.2,95 1.3,184.4 -33.9,280.6 -40.1,107.3 -105.5,200.5 -129.5,314 -22.8,106 -47.5,399 120.9,402.7 61,1.3 134.5,-71.5 183.8,-98 56.7,-30.3 110.4,-11.2 169,-24.7 174.5,-38.9 244.2,-222 240.5,-385.5 -1.8,-76.5 -51.8,-168.4 -19.7,-243 30.2,-70.9 125.2,-116 173.3,-176.4 92.5,-116.6 272.6,-373.2 225.1,-66 -32,210.3 -68.4,401.5 -165.9,594 -52.4,103.6 -113.5,207.8 -154.8,316.4 -23.4,62.3 -81.4,217.7 -80.2,277.5 1.9,100.6 162.9,299.8 267.7,273.3 131.4,-33.4 234.4,-402.8 286.2,-513.8 35.2,-74.6 192.4,-294.2 246.1,-109.2 47.5,164.1 -34.5,469.4 -83.3,631 -57.3,189.9 -420.6,919.6 88.8,831.4 416.4,-71.5 306,-700.7 647.1,-867.2 123.3,-59.8 20.3,244.9 23.4,301.6 4.9,90.7 -21.6,370.7 90,410.8 170.9,61.7 266.5,-91.9 267.1,-241.8 0.6,-70.9 38.3,-380.5 155.4,-197.4 74.7,116 -88.8,312.7 -54.9,460.2 52.5,230 138.8,115.9 270.2,32 125.2,-80.1 207.9,41.3 328.7,-3 156.1,-56.8 143.1,-305.4 220.2,-423.2 69.7,86.4 -21,335.6 122.2,380 156,48.1 230,-272.6 258.4,-362.1 66,-207.2 136.9,-386.7 101.8,-606.9 -32.7,-204.8 -69.8,-413.9 -106.1,-618 -37,-206.6 -188.8,-360.8 -247.4,-559.4 -59.8,-203 -79.6,-406.5 -92.5,-616.2 -9.8,-163.4 -69.7,-427.4 11.7,-575.5 89.5,-165.3 51.2,-356.5 106.7,-530.4 19.2,-61.1 188.8,-389.8 291.1,-276.9 39.6,43.1 -30.1,131.3 -41.3,168.3 -27.1,93.2 -30.2,203 -33.9,299.2 -8.6,219 -39.4,429.9 19.1,643.3 19.2,66 53.7,130.8 55.5,198.6 2.5,91.9 -65.3,170.2 -24.6,265.8 59.8,140 325.6,141.9 447.8,93.2 206,-82.1 275,-273.9 399,-438.5 127.1,-169.1 194.9,-344.2 275.1,-538.5 34.6,-85.1 43.2,-177 81.4,-260.3 24.1,-53 132,-220.8 192.5,-235 69.7,-16.7 86.3,38.2 141.8,75.3 51.2,33.9 104.3,26.5 159.1,35.1 172.8,25.9 288.1,120.3 471.9,122.8 94.4,1.8 170.2,-6.2 262.1,-29 81.4,-20.4 67.8,43.1 82.7,101.7 35.7,148.1 54.9,322 99.3,463.9 20.3,67.2 79.5,103.6 111,167.1 34.5,70.9 26.5,148.6 85.7,209.7 115.4,120.3 114.1,337.4 220.8,477.4 157.9,207.9 664.9,827.1 900.5,360.8 83.3,-164.7 -85.7,-344.1 -37.6,-523 23.4,-87 88.8,-154.2 119.7,-237.5 38.8,-104.8 46.9,-219.6 62.9,-330 29,-199.2 81.4,-402.1 -16.7,-589.6 -44.4,-85.7 -96.8,-140.6 -83.9,-241.1 6.2,-47.6 60.5,-204.2 130.2,-197.4 49.3,4.9 113.5,151.1 136.3,189.3 61.7,105.5 36.4,214.1 42,330 9.2,212.8 32,406.4 -14.2,618 -30.9,141.9 -103.7,420 98,489.1 225.8,77.7 167.2,-204.1 175.2,-313.3 8,-122.7 54.9,-410.8 214.6,-424.3 236.3,-19.8 272.6,335.5 283.1,490.3 7.4,101.8 -46.8,185 -66,281.2 -20.3,100.6 -6.1,204.2 -31.4,304.1 -53.1,211.6 -167.2,413.3 -195.6,627.9 -32.6,247.3 14.2,454.6 91.3,688.3 25.3,78.4 27.2,146.8 30.9,228.2 4.9,90.1 52.4,156.7 74,241.8 23.4,88.8 12.9,184.4 32.7,274.5 17.9,82.6 87.6,157.9 124.6,233.7 41.9,87 44.4,194.3 150.5,166 69.7,-18.5 166.5,-170.3 209.7,-230.1 93.7,-128.9 138.8,215.9 159.7,243 112.9,141.9 346.7,83.3 507.6,125.8 177.1,47.5 361.5,93.8 432.4,-136.3 56.7,-182.6 -147.4,-117.2 -155.4,-246.1 -4.9,-77.1 109.8,-212.1 130.7,-85.7 14.2,91.9 164.7,330 281.3,273.9 389.2,-187.5 -17.3,-861.7 -38.2,-1136.8 -15.5,-198 162.2,-186.3 248.5,-48.1 38.9,64.1 34.6,107.3 106.1,145.6 56.7,30.8 120.9,7.4 157.9,70.3 25.9,46.9 -8,132.6 0,185.6 11.1,82.7 53.7,188.8 116.6,244.9 128.2,114.7 198.6,-9.2 243.6,-138.2 153.6,-440.3 -31.5,-933.1 -102.4,-1379.7 -70.9,-446.5 -211.5,-899.9 -448.4,-1286 -181.9,-297.9 -466.9,-528.6 -711.1,-772.2 -116,-115.3 -302.9,-147.4 -443.5,-227.6 -159.8,-90.7 -278.8,-225.1 -407.7,-353.4 m -1942.2,1688.1 c -346.1,198 -440.5,-591.5 -434.9,-782.1 1.9,-55.4 30.2,-373.7 124.6,-354 107.9,22.2 29,333.7 48.1,403.4 121.5,436 363.3,-268.9 469.4,-215.3 83.3,42 -16.1,370.7 -42.6,436.7 -56.7,140 -49.3,415.7 -164.6,511.3 m -3419.5,-532.9 c -130.7,-176.4 -40.7,-529.8 -16,-741.3 18.4,-164.7 57.3,-140.7 165.3,-217.2 79.5,-56.1 119,-222 219.5,-230.6 26.6,-1.9 80.2,-53.7 96.3,-48.1 31.4,10.4 44.4,133.8 43.1,162.2 -9.2,201.7 -222,420 -296,598.9 -67.2,164.6 -134.5,314.5 -212.2,476.1 m 2028,-2660.8 c -128.3,90.1 -230.7,91.3 -363.9,15.4 -98.7,-56.1 -179.5,-148 -102.4,-265.8 141.2,-214 452.1,74 466.3,250.4 m 5515.9,-11606 c 42.5,133.2 -62.9,123.3 -84.5,0 -35.8,-198 39.5,-460.1 56.7,-660.6 22.2,-243 124.6,-473.1 217.7,-687.7 10.5,-23.4 94.4,-236.8 116,-143.1 37.6,163.4 -59.8,435.5 -95,596.4 -58,264.6 -254.1,618.7 -210.9,895 m -6354.1,8492.5 c -113.5,58.6 -182.6,9.9 -203,-106.7 -8,-42.6 -32.6,-81.4 11.8,-109.2 44.4,-27.7 52.4,33.9 89.4,27.8 59.8,-9.3 146.8,-117.8 204.2,-33.9 40.7,59.2 -63.6,180 -102.4,222 m -415.1,4456.3 c 220.8,-75.9 189.3,378 87.5,453.9 -79.5,59.2 -80.7,10.5 -82,-87 -1.2,-90.6 -69.7,-300.9 -5.5,-366.9"
         style="fill:#231f20;fill-opacity:1;fill-rule:evenodd;stroke:none"
         transform="matrix(0.13333333,0,0,-0.13333333,0,6278.7733)" />
    </g>
  </g>
</svg>
