<?xml version="1.0" encoding="UTF-8" standalone="no"?>
<!-- Created with Inkscape (http://www.inkscape.org/) -->

<svg
   version="1.1"
   id="svg1"
   width="3139.72"
   height="3139.72"
   viewBox="0 0 3139.72 3139.72"
   sodipodi:docname="tmptx6yl1ax.pdf"
   xmlns:inkscape="http://www.inkscape.org/namespaces/inkscape"
   xmlns:sodipodi="http://sodipodi.sourceforge.net/DTD/sodipodi-0.dtd"
   xmlns="http://www.w3.org/2000/svg"
   xmlns:svg="http://www.w3.org/2000/svg">
  <defs
     id="defs1" />
  <sodipodi:namedview
     id="namedview1"
     pagecolor="#ffffff"
     bordercolor="#000000"
     borderopacity="0.25"
     inkscape:showpageshadow="2"
     inkscape:pageopacity="0.0"
     inkscape:pagecheckerboard="0"
     inkscape:deskcolor="#d1d1d1">
    <inkscape:page
       x="0"
       y="0"
       inkscape:label="1"
       id="page1"
       width="3139.72"
       height="3139.72"
       margin="0"
       bleed="0" />
  </sodipodi:namedview>
  <g
     id="g1"
     inkscape:groupmode="layer"
     inkscape:label="1">
    <g
       id="group-R5">
      <path
         id="path2"
         d="m 12537.6,318.801 c -421.7,-421.699 -1105.6,-421.699 -1527.3,0 L 318.828,11010.3 c -421.766,421.7 -421.766,1105.6 -0.004,1527.3 L 11010.3,23229.1 c 421.7,421.7 1105.6,421.7 1527.3,0 L 23229.1,12537.6 c 421.8,-421.7 421.8,-1105.6 0,-1527.3 L 12537.6,318.801"
         style="fill:#fccc2d;fill-opacity:1;fill-rule:nonzero;stroke:#231f20;stroke-width:5;stroke-linecap:butt;stroke-linejoin:miter;stroke-miterlimit:4;stroke-dasharray:none;stroke-opacity:1"
         transform="matrix(0.13333333,0,0,-0.13333333,0,3139.72)" />
      <path
         id="path3"
         d="M 22720,11519.4 12028.5,827.902 c -140.3,-140.3 -368.7,-140.3 -509.1,0 L 827.945,11519.4 c -140.367,140.4 -140.367,368.8 -0.007,509.1 L 11519.4,22720 c 140.4,140.3 368.8,140.3 509.1,0 L 22720,12028.5 c 140.3,-140.3 140.3,-368.7 0,-509.1 z m 318.2,827.3 -10691.5,10691.5 c -315.8,315.8 -829.7,315.8 -1145.5,0 L 509.742,12346.7 C 193.926,12030.9 193.926,11517 509.746,11201.2 L 11201.2,509.699 c 315.8,-315.797 829.7,-315.797 1145.5,0 L 23038.2,11201.2 c 315.8,315.8 315.8,829.7 0,1145.5"
         style="fill:#231f20;fill-opacity:1;fill-rule:nonzero;stroke:none"
         transform="matrix(0.13333333,0,0,-0.13333333,0,3139.72)" />
      <path
         id="path4"
         d="m 13804.7,18248.2 c -67.1,-267.8 -115.4,-538.1 -173.1,-807.8 -25.8,-118.9 -31.4,-239 -81.3,-350.6 -61.1,-137.1 -125.7,-266 -198.5,-397.7 -66.5,-120.1 -155.5,-223 -239.9,-331.5 -29.8,-37.9 -54.2,-75.9 -89.1,-109.1 -59.5,-56.8 -119.1,-113.6 -178.4,-170.3 -100.4,-95.7 -231.8,-150.2 -353.1,-216.4 -109.5,-59.6 -235.9,-30.4 -333.1,38.9 -33.8,24.4 -74.9,52.7 -98.4,88.1 -10.7,16 -34.9,39.8 -38,58.6 -3.1,18.5 0,54 -19.1,56.2 0,74.9 0,150.2 0,225.5 0,63 16.3,127.9 25.4,190.6 18.8,124.9 42.9,248.7 62.4,373.6 5.6,37.9 11.9,75.8 17.6,113.8 3.7,25.7 44.8,42.3 64.9,56.8 22.9,16.3 48.9,42.3 74.9,52.6 30.1,12.3 69.3,21.1 96.6,38.9 122.6,81.6 233,165.6 345.9,260.6 97.5,81.9 201.4,157.5 301.7,235.2 103.8,81 194.4,176.3 289.2,267.5 90,86.9 175.9,178.2 262.8,268.2 82.8,85.9 187.2,134.8 289.7,194.4 z m -2094.3,-1635.4 c -14.8,-133.3 -29.8,-266.3 -48.6,-399.3 -10.1,-67.4 -17,-129.2 -39.8,-192.8 -22.3,-62.4 -47.1,-112.3 -80,-169.7 -62.7,-109.8 -123.3,-240.5 -214.2,-330.9 -54,-54.2 -108.2,-108.5 -162.5,-162.7 -16.9,-17.3 -68,-24.5 -90.9,-32.9 -38.3,-13.5 -43.9,-17 -81.2,-3.5 -37.4,13.2 -90,18.8 -112.6,53 -33.6,50.5 -67.1,101 -101,151.8 -20.1,29.8 -22.6,79.6 -31,113.5 -13.8,54.6 -27.6,108.5 -40.8,162.8 -21.3,85.3 -13.8,186.9 -20.1,274.4 -6.6,92.2 7.9,182.5 19.5,273.5 -62.4,-97.3 -118,-186.3 -142.4,-301.1 -28.2,-130.5 -55.8,-253.4 -100.7,-379.2 -7.5,-20.3 8.8,-66.1 11.6,-87.1 3.2,-20.1 5,-40.8 10.1,-60.3 19.4,-74.9 38.5,-149.5 58,-224.2 13.8,-53.6 38.2,-103.8 59.2,-154.6 22.3,-53.9 62.8,-85.9 104.2,-127.3 l -380.1,-68.1 19.4,292 c -36.1,-60.5 -71.8,-121.1 -107.6,-181.6 -20.7,-34.8 -41.4,-69.3 -61.7,-103.8 -17,-28.5 -19.2,-27 -53.7,-34.5 -122.9,-27.3 -259.94,-51.1 -383.82,-25.4 -43.27,9.1 -86.87,18.2 -130.14,27 -37.95,7.8 -37.32,15.3 -57.71,50.8 -27.28,47.7 -48.92,121.7 -37.94,175.6 12.23,62.4 25.08,124.2 41.08,186 11.28,44.5 22.89,88.7 34.81,133.3 4.7,18.1 6.27,51.1 18.19,66.4 76.2,102.3 148.65,209.8 233.64,305.2 89.06,99.7 177.79,200.1 267.79,298.8 62.7,69 125.5,138 188.5,207 40.5,44.6 52.4,54.9 109.4,73.1 68.7,22.3 141.2,54.9 212.1,68.1 72.7,13.4 151.7,10.9 225.7,16.3 162.8,11.6 325.9,53.3 485.2,87.5 32.9,6.9 76.5,8.7 107.3,22.9 28.5,13.1 56.1,42 80.9,60.5 77.1,57.7 153.6,115.4 230.8,173.1 z M 10074,14383.3 c 0,13.2 -7.9,60.5 0.9,69.3 22.3,22 44.2,44.2 66.5,66.2 35.5,35.4 89.1,37.6 137.4,49.9 z m -535.97,68.4 -29.16,68 -58.33,-68 -29.48,87.5 -87.5,-116.7 -19.44,116.7 -97.53,-87.5 48.92,155.5 c 143.63,-20.3 286.01,-41.4 428.39,-68 z M 12687.6,8013.3 c 34.5,69.3 69.3,139 104.1,208 l 106.9,87.5 c 39.6,-117.7 77.5,-236.2 115.5,-354.7 14.1,-44 33.2,-91.9 27.6,-138.3 -8.5,-69.3 -17.3,-138.3 -25.8,-207.6 -56.4,24.4 -130.1,42 -173.7,85.9 -54.3,54.2 -92.2,112.9 -134.9,177.2 -17.2,25.4 -34.4,50.8 -51.7,77.1 -4.1,6 28.2,57.7 32,64.9 z m 2812.1,9349 c -128.9,23.2 -254.6,47.3 -385.4,56.7 -56.5,4.1 -119.2,17.3 -175.9,9.1 -82.2,-11.6 -164.4,-23.2 -246.5,-35.1 -117.6,-16.6 -233.7,-44.5 -351.6,-61.5 -61.1,-8.4 -139.9,-6.5 -197.9,-28.8 -67.1,-25.4 -134.2,-51.1 -201,-76.5 22.3,67.1 44.5,133.9 66.8,201 21.3,63.7 21,142.4 30.4,208.9 17,118.5 47.4,236.4 59.9,355.6 9.1,81.8 17.9,164 26.7,246.2 6.2,60.2 -22,135.1 -33,194.1 -4.7,25.1 -5.6,55.2 -14.7,79 -18.2,49.3 -43,39.2 5.3,72.8 56.2,39.5 108.2,63.3 171.9,90.6 54.6,23.5 109.1,47 163.7,70.3 -142.1,20.3 -266.9,20.3 -409,0 0,88.7 -41.3,173.1 -69.6,256.5 -24.7,75.3 -56.1,147.4 -86.2,220.5 16.3,-141.2 19.4,-275.7 19.4,-417.8 0,-39.8 21.4,-120.4 -20.4,-133.9 -79.3,-25.4 -158.6,-51.1 -238.3,-76.5 -56.1,-18.2 -109.1,-53.9 -161.8,-80.9 -47.7,-24.8 -97.2,-46.7 -141.1,-78.7 -115.1,-83.5 -225.2,-169.4 -351.3,-234.9 -56.4,-28.9 -112.3,-58 -168.4,-86.9 -54.9,255.9 -56.4,522.2 -75.6,783.1 -10.9,145.2 -34.2,283.8 -59.9,427.4 -10.9,63.1 -44.2,127.4 -65.5,187.3 -21.7,60.5 -40.8,120.1 -58.7,181.8 -18.5,64.7 -51.4,122 -81.2,182.3 9.4,-132.7 18.5,-265 32.9,-397.1 14.8,-140.2 15.7,-276.6 15.7,-418 0,-123.6 -27.6,-253.7 -44.5,-376.7 -20.1,-143.6 -44.8,-285.3 -71.2,-427.7 -13.5,-73.7 -46.4,-147.1 -69.3,-218 -22.3,-69 -38.3,-138.6 -54.9,-208.8 -14.7,-62.4 -24.4,-114.8 -66.1,-164.4 -57.4,-67.7 -114.2,-135.8 -171.3,-203.5 -54.2,119.2 -112.6,235.2 -175.3,350.3 5,-58 10.7,-116.3 16.9,-174 4.8,-46.1 9.8,-92.6 15.1,-138.3 2.2,-22 11,-51.8 5.3,-73.1 -8.4,-32 -13.1,-71.8 -27.6,-101.3 -14.1,-27.9 -48,-44.9 -74.3,-64.3 -44.5,-32.6 -96,-82.5 -146.4,-104.1 -134.9,-57.7 -265.7,-118.6 -397.1,-184.1 -105.7,-52.7 -230.8,-102.9 -347.8,-124.5 -66.1,-12.6 -130.1,-35.5 -196,-18.8 -70.8,17.5 -141.4,37 -212,56.7 -34.8,9.8 -37.6,5.4 -45.8,40.2 -6.2,27.6 -27.2,73.7 -21.3,101.6 12.9,59.6 26.4,118.8 35.1,179.1 37.4,262.4 91.6,531.8 173.2,784.9 26.9,84.4 44.5,184.1 85.6,262.8 44.5,86.3 89,172.2 133.9,258.1 -108.2,-84.3 -213.9,-164.9 -310.8,-261.8 -46.4,-46.5 -80.3,-117.6 -117.3,-171.9 -30.1,-44.5 -63.3,-84.7 -80,-136.1 -45.4,-141.8 -87.5,-281.3 -123.5,-425.9 -29.8,-120.1 -86.6,-237.4 -108.8,-358.1 -16.7,-87.8 -28.3,-177.8 -49.3,-264.7 -12.2,-50.2 -24.4,-100.4 -36.4,-150.5 -8.7,-35.5 -11.2,-99.1 -31.64,-129.9 -105.05,-157.1 -211.06,-312.6 -321.13,-466.6 l 9.72,9.7 -9.72,-9.7 v 0 c -58.33,-58.4 -96.59,-73.1 -177.82,-53 -66.48,16.6 -111.32,71.5 -153.98,120.4 -79.65,90.6 -91.89,220.5 -85.61,335.3 6.9,136.4 -3.45,281.6 39.83,411.7 47.66,143.6 100.67,281.3 159,420.9 1.56,3.7 2.82,7.2 4.39,10.6 -86.87,-86.2 -183.78,-169 -259.04,-265.9 -54.57,-69.9 -108.82,-140.2 -163.39,-210.1 -34.18,-43.6 -29.17,-114.2 -36.38,-167.5 -18.5,-135.1 -16.31,-261.5 0.94,-397.9 9.41,-75.6 26.66,-150.6 40.14,-225.5 10.66,-59 1.57,-111.4 -4.7,-171.6 -5.02,-46.4 -23.21,-107.5 -15.06,-154.3 13.18,-73 26.03,-146.1 39.21,-219.2 18.81,-104.7 50.17,-207.3 76.83,-310.1 -50.8,14.4 -113.84,20.3 -155.24,54.2 -67.74,56.1 -136.1,112 -204.15,167.8 -104.44,85.9 -193.5,190 -287.58,287.3 -37.95,39.2 -47.36,88.4 -65.86,139.8 -20.39,57.7 -42.34,114.8 -61.15,173.1 -25.72,79.4 -51.43,159 -76.84,238.1 -18.19,56.7 -14.11,122.6 -18.5,181.2 -3.45,50.5 -7.21,100.1 -7.21,150.6 -32.62,-54 -38.89,-99.8 -50.49,-162.2 -10.67,-58.9 -25.4,-117.9 -29.48,-177.8 -5.02,-66.8 -6.59,-127.3 -1.57,-193.8 4.08,-59.3 21.01,-111.3 37.32,-169 67.43,-234.9 163.7,-460.4 248.69,-689.3 -69.94,64.9 -139.55,129.8 -209.49,194.7 -62.72,58.3 -93.14,103.2 -136.1,178.5 -87.82,153.3 -182.52,302.9 -229.25,473.8 -31.36,-62.7 -12.86,-130.1 -8.16,-199.1 4.08,-56.8 8.16,-112.9 14.43,-169.4 4.7,-46.1 9.72,-91.9 14.43,-137.6 1.88,-16.7 -1.89,-64.7 9.09,-78.5 47.04,-60.8 94.4,-121.6 142.06,-182.5 38.58,-49.8 78.09,-98.4 119.17,-146.4 41.09,-48.3 115.73,-84.7 166.84,-121.7 114.47,-82.5 229.88,-163.4 345.91,-244 97.53,-68 199.46,-150.8 176.88,-286.9 -10.98,-66.8 -26.98,-133 -81.54,-174.4 -53.63,-40.1 -116.98,-71.2 -174.05,-105.7 -122.94,-74.3 -237.4,-154 -353.75,-238 -47.04,-34.2 -79.66,-57.7 -133.92,-75.9 -68.67,-22.9 -142.06,-41.1 -208.54,-69.6 -130.46,-55.5 -255.9,-111.7 -391.7,-150.6 -57.39,-16.3 -102.23,-72.1 -153.35,-102.2 -63.66,-37.3 -135.79,-64.6 -202.28,-96.3 -42.96,-20.7 -53.62,-115.4 -68.68,-159.9 -5.33,-16.6 10.98,-42.4 16.31,-58 16.94,-46.8 33.56,-93.5 50.49,-140.2 9.41,-26.7 19.13,-53.6 28.54,-80.3 9.72,-27 5.33,-65.6 20.7,-89.7 15.37,-24.8 29.48,-58 49.86,-78.4 33.56,-34.2 50.18,-40.8 96.28,-53.9 37.63,-10.7 109.13,-39.2 146.45,-31.7 53.63,11.6 108.2,29.2 163.39,29.2 63.04,0 114.78,-1.6 175.93,-14.5 48.3,-10.3 116.04,-14.4 159.32,-36 57.08,-28.6 114.15,-56.8 171.23,-85.3 47.04,-23.9 125.44,-22 176.87,-30.8 44.54,-7.8 89.38,-10.9 130.78,-28.8 59.89,-25.7 120.11,-51.5 180.32,-77.2 l -253.39,-321.1 155.86,68 -68.05,-87.5 175.3,48.7 -155.86,-224.3 155.86,58.7 -107.25,-175.3 185.03,87.5 -77.78,-87.5 116.67,19.4 -67.74,-87.5 136.1,19.5 -185.03,-243.4 204.47,68.1 -107.25,-136.5 224.23,68.4 -136.42,-204.5 136.42,48.6 -87.81,-136.1 155.86,87.5 -107.25,-204.8 156.17,19.8 -136.41,-175 136.41,68.1 -136.41,-204.5 243.36,87.5 -175,-155.6 155.55,19.5 -155.55,-155.9 204.47,87.5 -136.42,-155.5 204.48,68 -97.53,-155.8 116.97,68.3 -68.05,-136.4 106.94,87.5 -58.33,-223.6 c 63.66,38.6 127.32,77.2 190.67,116 15.68,9.1 27.29,24.8 42.02,13.5 34.5,-26.3 69,-52.3 103.18,-78.4 29.17,-22.2 58.33,-44.5 87.5,-67.1 12.54,-9.4 0.63,-46.7 -0.94,-60.5 -7.84,-71.5 -10.67,-145.5 -23.21,-216.4 -24.78,-137.7 -48.61,-268.5 -53.63,-408 -4.7,-137.4 -19.13,-271.9 -33.87,-408.3 -6.89,-66.2 -21.95,-123 -11.6,-188.5 10.03,-65.6 24.46,-128 40.14,-192.9 13.8,-58 21.33,-123.8 45.79,-178.4 34.18,-76.5 67.74,-153.1 101.92,-229.6 47.67,-106.9 121.37,-201.9 172.17,-307.6 32.94,-69 66.14,-138.3 99.44,-207.6 30.7,-64.3 29.5,-105.7 29.5,-177.2 0,-139.9 1.5,-273.8 19.1,-412.7 8.1,-66.8 45.1,-139 66.5,-202.6 17.5,-53 38.2,-98.5 63.3,-148.7 31.4,-62.4 62.4,-124.8 93.8,-186.9 79.3,-339.9 101.6,-671.4 115.7,-1020.1 221.4,-299.5 122.6,-850.6 165,-1148.8 241.1,-432.8 -695.93,-914.8 237,-860.2 783.1,239 24.8,331.8 427.8,723.8 -9.4,51.4 -233.9,561 -288.8,1231.2 3.4,196 12.5,438.1 -3.2,526.6 -22.2,124.2 -18.8,258.7 -27.6,385.4 -10.6,145.2 -33.5,283.5 -58.9,426.8 -24.8,138.3 -20.7,272.5 -20.7,412.4 0,47.7 -14.1,83.4 -29.5,129.2 59.3,0 124.8,-8.8 183.2,3.8 63,13.4 125.7,26.3 189.4,36.3 44.2,7.3 88.4,14.5 132.6,21.7 39.9,6.3 38.3,12.2 51.5,-26.7 22.5,-68 24.1,-133.3 29.8,-204.7 4.7,-59.3 10,-110.8 24.7,-168.2 17.3,-65.5 42.4,-133.2 51.8,-200.7 11.6,-79.3 22.9,-159.6 34.5,-239.5 7.5,-54.6 33.5,-112.3 33.5,-166.6 0,-59.6 -28.5,-122.3 -32.9,-183.1 -5.3,-76.2 -3.1,-157.8 -17.6,-233 -5,-28.3 -14.4,-59.3 -21.9,-91.3 -55.5,-134.9 -72.5,-269.7 -9.4,-419.6 221.1,-339.6 82.8,-904.5 136.4,-1267.6 171.2,-238 -184.4,-641.3 71.2,-863 184.7,0 755.5,96.8 692.1,375 -228.6,288.2 -196.3,245 -173.1,589.6 -80.9,361.6 -320.8,724.7 -217,1117.7 133.6,192.9 154.3,331.2 135.8,556 0.6,4.4 0.9,8.8 1.2,13.2 10.4,142.1 21,278.5 46.1,418.4 10.4,59.5 23.6,111.9 17.3,171.8 -8.5,74.6 -14.8,150.2 -24.5,225.2 -16.9,133.3 -39.8,266.6 -63.3,398.9 -7.9,45.5 -16.3,90.9 -24.5,136.4 82.8,-94.4 163.1,-190 244.6,-285.4 53.7,-62.4 107,-124.5 160.6,-186.9 34.2,-39.8 84,-52.1 114.8,-96.9 79.3,-117 158,-233.3 242.7,-346.2 27.6,-37 55.5,-74 83.4,-111.3 11.6,-15.4 35.8,-37 41.1,-56.2 6.9,-23.8 24.2,-53.6 14.1,-77.1 -17.5,-41.1 -35.1,-82.2 -53,-123.3 -44.2,-103.5 -96.6,-202.9 -146.7,-303.6 -12.9,-25.7 -25.1,-56.7 -36.1,-90.6 -48.9,-91.2 -93.5,-179 -121.1,-261.2 38.6,-252.8 -397.9,-425 -286.9,-698.4 76.8,-39.2 249.3,-100.4 403.3,-112.3 -20.1,-72.4 -18.5,-144.9 29.8,-215.1 155.8,-41.1 658.9,-86.3 667,162.7 -128.9,293.6 -111,250 -15,535.7 5.6,152.1 -18.5,312 -27,470.7 11,100.7 25.7,207.3 41.4,293.9 24.8,139.2 53.9,277.2 83.4,415.2 14.4,66.5 24.2,133.9 36.4,200.4 11.9,66.1 10,100.3 -2.2,167.1 -25.7,144.9 -48.3,289.8 -70.2,435.3 -8.8,61.5 7.5,133 11.6,194.4 4,57.4 10.3,110.4 20.3,166.9 26.4,148.3 53,296.7 79.4,444.7 9.7,55.2 51.4,105.7 79,153.3 28.5,50.5 67.4,102 85.9,157.1 47.1,141.2 94.4,271.6 158.7,404.9 60.5,125.1 117,251.8 173.1,378.8 47.1,105.4 73.1,223 108.5,332.8 45.8,143.3 86.6,284.1 123.3,430.2 28.5,114.2 57.4,235.3 65.8,352.5 5.7,80.3 12,160.3 17.9,240.6 4.7,64.9 -8.8,135.8 -13.5,200.7 -4.4,59.9 -13.1,101.9 -31.6,159.3 -19.2,59.3 -30.5,139.9 -62.8,193.2 -144.5,238 -289.7,472 -399.5,728.2 -54.2,126.1 -128.6,229.2 -207,341.8 -80.3,115.4 -200.7,165.9 -320.8,228 -106.9,55.5 -231.4,65.2 -350.3,82.8 -79,11.9 -158.4,23.5 -237.4,35.1 -59.6,9.1 -123.6,-3.7 -183.1,-8.1 -58.1,-4.1 -110.7,-7.6 -166.6,-21.4 -70.5,-17.8 -151.4,-27.2 -218.5,-54.5 -66.5,-27.3 -130.5,-74.7 -192.9,-110.1 -21.7,-12.5 -123,-84 -149,-75 -64,22.6 -128.2,51.2 -194.1,68.1 -73.1,18.8 -150.9,27 -225.5,40.5 -113.8,20 -234.9,-14.8 -350,-22.9 -58.6,-4.4 -117,-8.5 -175.6,-12.9 -26.3,-1.9 -56.1,-10.3 -80.3,1.9 -86.5,43.3 -173.1,86.5 -259.6,129.5 l 155.8,-19.1 -155.8,87.5 243.3,-19.5 c -58.6,33.3 -117.9,66.2 -176.9,99.1 -55.5,31.1 -89.3,59.9 -134.5,105.1 75.9,0 148.6,10.3 223.9,19.7 l -223.9,68.1 h 117 l -185.1,117 h 136.2 l -204.8,126.4 156.1,-19.5 -224.2,185 253.7,-29.1 -233.9,145.8 233.9,-29.2 -341.2,233.7 136.1,-29.2 -136.1,117 h 136.1 l -389.5,214.2 c 127.3,54.2 228,160.2 334.6,247.7 39.9,32.6 70.9,81.3 104.2,120.1 54.8,65 109.7,129.6 164.9,194.5 34.2,40.1 92.8,64.9 136.4,93.1 49.6,32 100.7,74.3 155.3,97.9 129.2,55.2 252.1,105.3 370,180.9 50.2,32.6 127.7,64 167.8,108.5 50.5,56.2 101,112 151.5,167.8 36.7,40.8 76.2,103.5 122,133.9 67.4,44.9 134.5,89.7 201.6,134.6 100.1,66.4 221.7,79.9 337.8,109.1 136.1,33.9 270,67.7 403.6,110.4 257.5,82.8 482.3,221.4 682.1,404.2 94.7,86.9 171.5,194.1 264.4,283.5 93.1,90 183.7,183.8 280.6,269.7 98.2,88.1 192.9,197.6 309.9,260.3 135.5,72.1 265.3,137.1 407.4,194.5 240.8,98.1 496.1,165.8 751.7,211.3 140.2,25.1 279.4,40.5 421.2,55.8 l -272.9,58.4"
         style="fill:#231f20;fill-opacity:1;fill-rule:evenodd;stroke:none"
         transform="matrix(0.13333333,0,0,-0.13333333,0,3139.72)" />
    </g>
  </g>
</svg>
