<?xml version="1.0" encoding="UTF-8" standalone="no"?>
<!-- Created with Inkscape (http://www.inkscape.org/) -->

<svg
   version="1.1"
   id="svg1"
   width="6278.7734"
   height="6278.7734"
   viewBox="0 0 6278.7734 6278.7734"
   sodipodi:docname="tmpq310zwcs.pdf"
   xmlns:inkscape="http://www.inkscape.org/namespaces/inkscape"
   xmlns:sodipodi="http://sodipodi.sourceforge.net/DTD/sodipodi-0.dtd"
   xmlns="http://www.w3.org/2000/svg"
   xmlns:svg="http://www.w3.org/2000/svg">
  <defs
     id="defs1" />
  <sodipodi:namedview
     id="namedview1"
     pagecolor="#ffffff"
     bordercolor="#000000"
     borderopacity="0.25"
     inkscape:showpageshadow="2"
     inkscape:pageopacity="0.0"
     inkscape:pagecheckerboard="0"
     inkscape:deskcolor="#d1d1d1">
    <inkscape:page
       x="0"
       y="0"
       inkscape:label="1"
       id="page1"
       width="6278.7734"
       height="6278.7734"
       margin="0"
       bleed="0" />
  </sodipodi:namedview>
  <g
     id="g1"
     inkscape:groupmode="layer"
     inkscape:label="1">
    <g
       id="group-R5">
      <path
         id="path2"
         d="m 25072.7,635.102 c -843.5,-843.5 -2211.1,-843.5 -3054.6,0 L 635.152,22018 c -843.535,843.6 -843.535,2211.2 0,3054.7 l 21382.948,21383 c 843.5,843.5 2211.1,843.5 3054.6,0 l 21383,-21383 c 843.5,-843.5 843.5,-2211.1 0,-3054.7 L 25072.7,635.102"
         style="fill:#fccc2d;fill-opacity:1;fill-rule:nonzero;stroke:#231f20;stroke-width:5;stroke-linecap:butt;stroke-linejoin:miter;stroke-miterlimit:4;stroke-dasharray:none;stroke-opacity:1"
         transform="matrix(0.13333333,0,0,-0.13333333,0,6278.7733)" />
      <path
         id="path3"
         d="M 45437.4,23036.3 24054.5,1653.4 c -280.7,-280.8 -737.5,-280.8 -1018.2,0 L 1653.38,23036.3 c -280.73,280.7 -280.73,737.5 0,1018.2 L 23036.3,45437.4 c 280.7,280.7 737.5,280.7 1018.2,0 L 45437.4,24054.5 c 280.8,-280.7 280.8,-737.5 0,-1018.2 z m 636.4,1654.6 -21382.9,21382.9 c -631.6,631.7 -1659.4,631.7 -2291,0 L 1016.99,24690.9 c -631.642,-631.6 -631.642,-1659.4 0,-2291 L 22399.9,1017 c 631.6,-631.699 1659.4,-631.699 2291,0 l 21382.9,21382.9 c 631.7,631.6 631.7,1659.4 0,2291"
         style="fill:#231f20;fill-opacity:1;fill-rule:nonzero;stroke:none"
         transform="matrix(0.13333333,0,0,-0.13333333,0,6278.7733)" />
      <path
         id="path4"
         d="m 35248.1,21602.9 c -21,122.3 -42.7,244.2 -65.1,365.8 -17.9,99.6 -63.3,224.2 -58.3,325.4 16.8,280.5 32.9,561.3 49,841.4 25.5,442.7 49.7,884.1 139,1318.5 47.8,231.1 122.2,469 134.6,705.8 12.5,246.3 49.1,499.5 13.7,744.2 -21.1,156.4 -44,311.8 -66.4,468.2 -13,91.2 -57.1,179.9 -86.9,266.2 -88.1,253.7 -180.5,484.9 -299.6,724.7 -42.9,86.9 -79.4,170.6 -140.3,245.7 -101.7,124.7 -204.1,250.1 -305.9,374.5 -139.6,171.2 -349.9,308.7 -519.9,449.2 -353.1,291.3 -787.4,459.4 -1220.5,597.5 -196.7,63 -394,126 -590.7,188.9 -121,38.2 -244.4,47.8 -371.7,63.6 h 35.4 c -468.5,71.7 -938.1,120.1 -1412.8,83.8 -510,-39.1 -1011.4,-134.3 -1515.2,-216.2 -291.1,-47.2 -577.7,-158 -860.1,-238 -332.5,-94.3 -663.8,-188.9 -995.7,-283.2 h 52.7 c -276.1,-19.6 -547.9,-8.4 -825.2,0 -49.1,1.8 -113,42.1 -158.3,59.2 -72,27 -143.9,54 -215.3,81.6 -116,44.4 -181.8,204.1 -300.9,247.6 44.1,-177.5 109.2,-341.9 211.6,-494.3 -109.9,22.1 -215.9,66.8 -300.3,140.9 -98.1,85.6 -138.5,169.4 -193.6,282.9 -77,-101.4 -137.2,-209.1 -253.2,-267.7 -116,-58 -222.7,-57.4 -347.5,-32.6 75.8,50.9 131,84.4 158.2,176.9 28,93.7 19.3,165.6 -34.6,246.9 7.4,-135.5 -86.9,-293.5 -220.9,-338.2 -18.7,-6.5 -72.6,-32.2 -83.2,-4.6 -17.4,48.7 -34.8,97.1 -52.7,145.5 -24.9,69.5 39,135.6 74.4,197.3 -117.2,-73.2 -202.8,-149.2 -300.9,-246.9 -31.6,-32.3 -88.1,-118.5 -132.2,-125.4 -74.4,-11.1 -147.7,-22.6 -220.3,-34.1 0,32.9 -15.5,82.5 17.4,95.9 40.4,15.8 65.8,20.2 89.3,55.5 50.3,75.4 89.4,152.9 129.8,234.2 65.7,129.7 201.6,241.7 293.4,356.2 -88.1,-17.4 -196.6,-21.4 -276.7,-58.3 -122.2,-55.6 -243.2,-110.5 -365.5,-165.7 -75.7,-34.8 -188.6,-23.3 -270.5,-23.3 -129.7,0 -202.9,8.1 -323.9,52.8 l 17.4,17.6 v -17.6 c 19.2,62.9 35.3,122.2 63.3,181.5 29.2,63.5 95.5,153.5 96.8,224.6 -79.5,-78.5 -135.9,-149.9 -238.9,-189.6 -126,-48.4 -253.2,-96.8 -379.1,-145.2 29.7,112 81.9,220.9 52.7,334.8 -26.7,-69.9 -32.9,-129.1 -96.8,-166.9 -83.1,-48.4 -142.7,-97.5 -238.2,-97.5 34.1,118.9 58.9,228.7 123.4,335.1 -63.3,-45.3 -139.6,-86.9 -194.2,-141.1 -61.4,-59.9 -107.9,-143.7 -159.5,-211.6 0,39.7 -14.2,109.5 2.6,144.8 26,58.1 53.9,115.8 80,173.8 52.1,110.7 148.9,245.1 147.7,369.5 -171.3,-195.2 -371.7,-529.3 -653.4,-529.3 106.7,94.9 176.2,170 253.1,290.1 57.7,90.6 120.4,219.9 116.7,327.6 -112.9,-113.6 -222.8,-229.3 -331.4,-346.5 -93,-100.6 -221.4,-168.8 -338.1,-236.2 32.3,32.9 98,75.1 109.2,121 9.9,42.9 12.4,152.4 67,162 -64.5,-20.2 -49,150.5 -53.3,193.9 -45.4,-90.9 -78.9,-185.8 -152.1,-257.5 -73.2,-73.2 -146.4,-146.1 -219,-219.4 5,42.9 -3.7,137.5 26.1,167.6 44,44.1 78.1,100.8 116,150.4 l -230.2,-123.4 c 67.6,163.2 124.7,319.8 159.4,493.9 -41.5,-40.3 -81.8,-80.7 -122.2,-121 -32.3,-32.9 -46.5,-87.5 -72.6,-126 -68.2,-100.2 -143.9,-158.5 -264.3,-158.5 72.6,72.9 121.6,140.8 176.2,229 v -35.1 c 31.1,84.4 56.5,158.5 70.1,247.3 -54,-30.7 -128.4,-55.9 -171.2,-102.7 -60.2,-66.1 -116.7,-135.9 -181.2,-197.7 -7.4,63 24.2,154.2 30.4,219.1 7.5,68.2 5,136.1 5,204.7 -16.8,-45.3 -57.7,-80 -79.4,-123.4 -29.2,-56.5 -62.7,-107.1 -96.9,-159.8 -63.2,-93.4 -150.1,-166.9 -229.5,-246.4 80.6,182.2 158.8,459.8 -18.6,617.8 -34.2,-49.1 -26.7,-127.2 -31.7,-184.3 -6.2,-59.3 -50.2,-113.6 -79.4,-165.1 -53.9,-96.5 -153.3,-206.6 -259.3,-233 0,84.4 34.1,186.5 17.9,266.8 -13,59.9 -15.5,268.4 -88,280.5 -28,-112.9 -54.7,-216.2 -101.2,-322.7 -17.4,-43.4 -84.4,-32.6 -95.6,12.1 -13.6,58.7 -14.8,108.9 -14.8,169.4 -84.4,-84.3 -88.8,-201.6 -88.8,-318 -94.3,83.2 -138.3,259.4 -193.6,370.8 -30.4,-118.2 -63.2,-234.3 -88.1,-353.1 v 17.7 c -16.7,-23.9 -62,-156.4 -78.2,-160.7 -36.6,-9.3 -67,-28.9 -85.6,10.9 -13.6,28.2 -31.6,43.4 -39,74.1 -18.7,71 -26.7,170 -62.7,234.2 -31.7,58.1 -97.5,109.5 -141.5,159.5 l 70.7,-371.1 c -67,22.7 -102.4,19 -123.5,88.2 -17.3,58 -32.9,116.6 -50.2,175.2 -35.4,124.4 -73.2,236.1 -126,354.3 1.3,-107.6 -42.8,-215.3 -34.1,-321.7 11.2,-134 23,-268.3 34.1,-401.8 -106,105.8 -156.3,242 -176.2,388.5 -32.8,-49.7 -21.7,-300.3 -97.4,-300.3 -117.9,0 -149.5,108.8 -157,212.2 -19.2,253.1 -46.5,505 -46.5,758.8 -16.8,-67.3 -32.9,-134.6 -50.9,-201.3 -16.2,-70.1 -55.2,-92.8 -55.2,-169.4 l -52.8,17.4 h 17.4 c -13.6,41.5 -50.2,56.1 -55.2,99.5 -6.2,55 -17.4,110.2 -14.9,165.7 -58.3,-94.6 -53.4,-238 -53.4,-345 0,-42.8 -18.6,-126.6 -34.7,-166.9 -4.3,-11.5 -18,13.6 -18,-9.6 0,-15.5 5,-23.3 -8.7,-30.7 -40.3,-19.6 -56.5,9.9 -91.8,36 -39.1,29.4 -89.4,54.6 -99.9,103.6 -14.9,67 -28.6,131.2 -36,198.5 -13,114.5 -5.6,239.9 60.2,337.6 -140.9,27.6 -173.7,-234.9 -247,-300.3 -61.4,81.5 -78.1,111.3 -52.7,212.2 -80.7,-27.3 -107.4,-90.9 -142.1,-164.5 -26.7,-55.5 -53.3,-110.7 -79.4,-166.9 -7.5,-17 -26.7,-83.1 -44.1,-92.4 -37.8,-20.8 -75.7,7.4 -57,43.4 19.2,38.8 30.4,74.8 42.7,116.3 25.5,89.4 73.3,167 119.8,246.4 -139.6,-56.2 -240.7,-169.4 -354.9,-267.7 -123.5,-105.8 -250.7,-207.3 -385.3,-297.3 -36.6,37.9 14.9,70.5 35.4,105.8 26,47.8 38.4,101.5 56.4,153 31.7,93.4 46.5,188.3 101.8,270.8 -105.5,-105.8 -211.6,-211.5 -317.1,-317.3 -45.3,-45.3 -98.6,-28.3 -41.6,28.8 41.6,41.6 66.4,128.7 94.3,182.1 -35.3,-51.5 -71.9,-86.8 -124.7,-123.5 -35.3,-24.5 -143.3,-93.7 -95.5,0.7 30.4,61.7 45.3,126.5 76.9,188.3 10,22 5,65.4 24.8,80 27.9,21.4 58.4,40.9 83.2,66.7 -111.7,-37.9 -155.7,-85 -240.1,-170 -64.6,-64.2 -118.5,-137.7 -184.3,-200.7 0,134.6 18,244.1 59.6,372.6 39,115.4 116.6,208.4 170,315.5 -167.5,-112 -322.7,-233 -428.2,-406.1 -24.2,-37.2 -44,-83.2 -74.4,-114.8 -37.9,-37.5 -95.6,-33.2 -57.1,26 21.7,32.6 18,85.1 34.1,125.4 19.3,47.8 42.8,93.7 67,140.2 -104.8,-52.1 -177.4,-142.4 -259.3,-224 -23,-22.6 -60.8,-104.5 -102.4,-90.9 -39.1,12.7 -45.3,6.5 -40.4,45.6 3.8,35.7 5,74.8 14.3,110.8 24.8,107.6 86.9,200.1 123.5,302.8 23.6,63 46.5,125.3 68.9,188.3 13,36 83.1,94.3 107.3,126.6 -54.6,-37.9 -145.2,-77 -181.8,-130.3 -51.5,-73.8 -112.9,-146.2 -154.5,-225 -44,-82.5 -88.1,-165.6 -132.2,-248.2 -19.2,-33.8 -35.3,-69.1 -53.3,-103.6 -17.4,-35.9 -66.4,-8.9 -96.8,1.3 65.8,96.2 88.1,198.2 88.1,312.7 0,111.7 70.7,229.3 124.7,322.4 -101.7,-76.1 -187.4,-169.1 -276.7,-259.4 -22.9,-22.1 -26.7,-76 -35.4,-105.2 -26.6,-86.2 -51.5,-173.1 -76.9,-259.4 -7.5,-22 -17.4,-107.6 -39.1,-119.7 -51.5,-28.8 -100.5,-89.4 -144.6,-40 -81.9,91.2 -137.7,179.9 -204.1,280.8 -143.3,215.3 -315.2,393.3 -496.4,575.4 -170,170 -330.1,350 -494.5,525.3 -83.2,89.3 -180.6,152.9 -281.1,224 -81.9,59.2 -158.8,137.4 -261.8,154.8 -126,20.8 -221.5,-13.1 -312.7,-104.3 -86.9,-86.5 -104.3,-175.3 -94.4,-294.7 20.5,-226.8 16.8,-498.9 158.9,-692.2 45.3,-61.7 90.6,-122.8 135.9,-184.5 27.9,-37 56.4,-97.4 93,-126 95,-72.3 191.8,-141.5 278.6,-220.9 91.9,-81.9 168.8,-147.4 229,-254.4 35.4,-64.2 37.8,-72.9 26.7,-145.5 -10,-55.2 -28,-115.1 -23,-172.5 -63.9,95.9 -116.6,205.4 -198.5,286.7 -70.8,71 -176.3,121.9 -259.4,178.1 -90,59.2 -200.4,88.1 -300.9,129 -99.9,39.7 -214.7,88.1 -300.4,151.7 -51.4,39.1 -88,66.7 -151.9,82.5 -29.2,7.5 -113.6,56.2 -134.7,76.4 -36.6,37.5 -89.3,53.9 -123.5,88.7 -39.1,38.5 -76.9,76.6 -116,115.1 -76.9,77.6 -157.6,163.2 -275.5,163.2 -54.6,0 -113.6,3.1 -156.3,-39.1 -32.9,-33.2 -111.1,-93.7 -119.8,-142.4 -44.1,-219.7 8.7,-486.5 83.1,-696.2 46.6,-130.3 100.5,-242.6 166.3,-364.8 46.6,-84.1 95.6,-196.4 163.8,-264.3 88.1,-88.2 176.3,-176.9 268.1,-261.3 100.5,-92.1 200.4,-156.9 317.7,-228 196,-121 330.7,-318.6 445.4,-511.2 19.3,-31.1 41.6,-125.4 74.5,-122.9 -118.5,-39.7 -233.3,22 -317.7,105.8 49.7,-117.6 98.7,-235.5 147.7,-354 37.9,-91.8 103,-153.6 170,-228.3 l -35.4,35 c 21.8,-79.7 -168.7,-44 -211.5,-35 124.7,-111.1 260.6,-204.2 337.5,-357.1 6.2,-14 56.5,-99 46.5,-104.6 -32.8,-22 -68.2,-55.5 -105.4,-69.2 -80.7,-30.4 -161.4,-59.9 -243.3,-87.4 39.1,-64.9 78.2,-130.6 117.3,-196.1 49,-81.9 32.3,-86.9 -11.8,-174.4 v 17.7 c -40.3,-56.8 -84.3,-103.3 -99.3,-171.2 -22.9,-104 -18.6,-122.3 29.2,-217.2 33.5,54.6 66.4,110.8 104.3,163.5 54,76.9 73.2,101.4 160.1,136.8 32.8,-116.1 89.3,-239.8 106.7,-357.7 19.2,-138 16.7,-263.1 -1.3,-401.8 64.5,31.7 78.2,45.9 114.8,105.8 11.2,18.3 41.6,49.1 44,70.5 2.5,11.4 -22.3,45.2 -17.3,71.3 41.5,-122.8 17.3,-274.6 17.3,-403 0,-139.9 0,-278.9 0,-418.8 0,-297.2 -17.3,-592.6 -17.3,-891 l 17.3,17.7 c 0,-197.1 18,-393.7 18,-590.7 0,-96.2 16.2,-200.1 36,-294.1 19.3,-91.9 24.2,-202 75.7,-280.8 65.8,-97.1 113.6,-188.9 162.6,-294.7 40.3,-86.3 101.7,-170 202.9,-198.9 93,-27.3 230.2,0 328.8,0 85.7,0 177.5,47.2 235.2,105.8 26.7,-38.4 47.8,-95.2 91.9,-115.4 45.2,-20.8 124.6,-78.5 174.9,-78.5 117.3,0 237,-17 346.8,25.1 129.7,49.7 220.3,88.2 286.7,221.6 59.6,116 0,220.5 0,340 0,240.7 73.2,474.3 249.4,650.5 173.8,173.7 338.8,341.3 489,537.1 89.3,119.1 171.3,229.3 280.4,329.5 129.7,116.9 260.6,218.3 353.1,366.3 34.7,56.2 78.8,108.9 126,156.1 72.5,73.2 103,16.4 109.2,-66.7 11.1,-151.7 34.1,-294.1 70.7,-441.5 24.8,77.6 47.8,165.7 83.1,238.3 19.9,37.5 51.5,67.3 71.4,105.7 17.9,37 16.7,79.2 39.1,115.2 -7.5,-50.3 29.1,-93.1 39.1,-141.2 9.9,-52.1 20.5,-120.7 52.7,-164.1 41.6,-54.3 69.5,-105.8 101.1,-166.9 17.4,-36 1.3,-124.1 1.3,-163.2 31.6,63 98,112.6 123.4,176.2 26.1,64.8 18.7,158.8 36.7,229.3 78.1,-131.6 105.4,-253.2 105.4,-405.5 0,-157.3 -61.4,-273.3 -142.1,-406.1 44.1,-8.1 91.9,23.9 124.8,49 42.8,31.6 100.5,51.8 137.1,88.1 79.4,78.8 122.2,170.6 171.2,269.6 39.1,76.9 46.6,48.4 93.1,-13.3 34.1,-44.7 45.3,-82.2 59.6,-135.9 27.3,-113.9 9.9,-229.9 -55.9,-327.9 171.3,-14.6 229.6,162.2 229.6,299.7 37.9,-50 19.9,-129.1 37.9,-184.6 18.5,-55.6 -2.5,-122.9 -2.5,-185.9 106.7,105.8 158.2,218.2 158.2,370.5 69.5,-90.9 130.9,-216.6 107.3,-335.7 -27.9,-133.4 -128.4,-206.6 -230.8,-282 243.3,5.5 398.4,211.5 495.2,406.1 26.7,-20.2 26.7,-56.2 32.8,-86.9 16.2,-75.7 34.2,-151.1 50.3,-226.8 25.4,-113.2 50.3,-226.8 75.7,-339.4 35.4,104.6 72.6,239.2 176.2,291 126,63 155.1,-198.5 173.8,-265.2 67,-231.8 96.7,-471 165,-704 16.2,-56.1 32.9,-112 49,-168.1 12.4,-43.4 101.8,-102.1 134.7,-134.6 81.9,-82 181.1,-151.2 271.1,-225 192.4,-157.9 366.1,-324.7 542.3,-501 85.6,-86.2 153.9,-188.3 223.4,-287.2 56.4,-81.4 47.7,-233.7 47.7,-330.5 0,-223.6 -32.8,-460.4 -134.6,-662.7 -215.9,-431.8 -598.7,-732.8 -882.9,-1118 -63.3,-85.6 -175,-189 -206.6,-291.7 -42.9,-140.5 -86.9,-280.7 -129.7,-421.9 -65.8,-210.9 -47.8,-443.3 -91.8,-658.6 -47.8,-238.6 -144,-458 -245.8,-678.2 -96.7,-211 -219,-423.8 -286,-646 -18.6,-63.5 -34.1,-116 -67.6,-171.8 -29.2,-49.3 -20.5,-94 -20.5,-151.4 0,-118.2 3.7,-224 23,-341.2 37.8,-227.2 -40.4,-454.6 -221,-603.8 -172.4,-144.2 -349.9,-294.1 -438,-510 -88.1,-216.6 -88.1,-440.9 -88.1,-670.7 101.8,34 201.7,37.1 307.1,19.5 114.8,-19.5 221.5,-19.5 338.8,-19.5 221.5,0 431.9,42.1 551.6,242.5 20.5,34.5 55.9,85.1 55.9,126.7 0,55.1 -6.9,95.5 21,142.7 67.1,111.6 134.7,196.6 221.6,292.8 35.3,40.3 41.6,32.3 54.6,95.9 8.7,44.6 -25.5,101.4 -39.1,142.9 -32.9,99.4 -65.8,198.9 -99.9,298.5 l 18,-35.4 c 73.8,110.9 154.5,167 263.1,245.5 21,15.8 22.3,132.4 26.6,158.2 10,58 28.6,122.2 28.6,180.6 0,112.8 -23.6,250.6 2.5,360.7 29.1,126 59.5,246.4 99.9,368.6 152,457 440.5,848.2 654.6,1277.6 116,231.8 289.7,425 451,626.3 36,46.3 171.3,248.3 234,153.3 52.7,-79.4 32.9,-265.2 40.3,-360.2 18,-234.2 8.7,-465.3 47.8,-699.6 15.5,-92.1 4.9,-189.5 4.9,-281.6 0,-176.9 0,-353.1 0,-530 0,-92.1 10.6,-186.4 -9.9,-276.7 -27.9,-122.5 -60.2,-243.5 -93.1,-365.2 -26.7,-99.2 -41.5,-211.5 -86.8,-304.6 -70.8,-143.6 -139.6,-287.3 -209.1,-430.6 -20.5,-40.3 -39.1,-80.6 -59,-121.6 -20.4,-41.6 -63.3,-67.3 -79.4,-112 -45.3,-122.2 -75.7,-260.3 -155.1,-364.9 -34.2,-45.9 -67,-92.3 -99.3,-139 -30.4,-42.8 -94.9,-77.5 -133.4,-116.6 -36.6,-36.9 -85.6,-72.9 -116,-115.7 -36.6,-51.5 -60.8,-121.6 -89.4,-178.1 -34.1,-70.8 -68.2,-137.4 -93.1,-212.2 -11.7,-34.8 -17.9,-69.5 -24.1,-105.8 -8.7,-54.3 35.3,-42.2 85.6,-53.7 147,-32.6 297.2,-67.9 449.8,-67.9 319.6,0 629.2,31.9 925.1,158.6 v -17.4 c 24.3,120.6 65.8,226.4 26.7,344.4 -37.8,112.6 -37.8,230.5 -70.7,347.4 -16.2,56.2 27.9,106.4 53.4,157 24.8,51.5 42.8,102.3 61.4,157.3 35.3,108.8 88.1,190.2 167.5,275.1 176.2,188.9 353.7,369.5 542.9,544.2 70.2,64.9 225.3,93.1 225.3,201.3 0,134.1 -13.7,223.8 -74.5,343.8 -47.8,98.3 -54,194.5 -63.9,302.2 -13,132.4 -32.8,265.9 -39.1,398.6 -11.2,260 -6.2,522.2 -14.9,782.1 -15.5,488.7 47.8,972.3 91.8,1457.8 19.9,214.1 80.7,425 138.4,631.5 39.1,139.8 78.2,279.1 117.3,418.1 26,92.4 71.3,221.2 138.4,289.1 21.1,20.8 102.9,19 134.6,23.9 64.5,10.6 128.5,20.8 193,29.5 107.9,15.8 224,4.4 333.8,4.4 47.8,0 95.5,0 143.3,0 34.1,0 69.6,0 103.1,0 26.6,0 8,-14.9 32.8,-21.5 121,-30 242,-60.8 363,-89.3 943.1,-221.5 1932.8,-233.6 2884,-65.5 479.6,84.5 954.3,202.3 1409.1,373.6 204.1,76 421.9,173.7 613,275.7 224,119.5 451,234.3 665.2,371.4 81.8,53.1 165,106.4 246.9,159.5 31,19.5 77.6,36.9 104.2,55.2 46.6,32.9 70.8,71.3 123.5,97.1 182.4,91.9 372.9,43.5 512.5,-97.1 v 18.4 c 152.7,-196.5 304.7,-392.8 458.6,-589.5 60.1,-78.5 142.1,-135.9 186.1,-225.3 72,-143.7 143.9,-287.3 215.3,-431.5 50.9,-99.2 127.2,-185.6 193,-274.9 55.2,-75.7 135.8,-129.4 191.1,-204.1 156.3,-209.7 315.2,-414.5 448.6,-637.9 39.1,-65.5 72,-136.8 106.7,-204.1 37.8,-74.8 101.1,-158.6 124.8,-239.8 40.2,-139.3 24.2,-333.8 13,-476.5 -14.3,-187.7 -39.1,-338.8 -155.1,-494.5 -101.8,-137.2 -234,-247.3 -335.1,-388.5 l 52.7,35.4 -52.7,-53.1 v 17.7 c -67.6,-60.5 -132.2,-125.3 -210.4,-171.9 -80.6,-48.4 -142,-91.2 -211.6,-153.5 -153.2,-139.9 -299.6,-291 -478.3,-398.1 l 17.4,17.7 c -340.1,-242.6 -518.8,-608.4 -616.8,-1006.4 l 17.3,17.7 -105.4,-370.7 h 35.3 c -45.2,-44.7 -73.1,-84.4 -135.2,-99.7 -61.4,-15.8 -115.4,-74.1 -164.4,-112 -84.4,-62.3 -130.3,-138.1 -162.6,-237.3 -9.3,-28.5 -251.9,-721 -207.8,-734.3 236.4,-69.2 462.2,-145.5 702.3,-64.8 127.2,42.1 248.2,91.2 371.7,141.7 65.8,27 223.9,60.2 240.7,115.8 21.1,74.4 42.8,148.6 62.7,222.4 9.9,33.8 44,98.1 32.8,134.6 -18.5,61.7 -36.6,123.5 -55.1,185.2 -14.3,44.7 -55.9,122.5 -49.1,170 3.7,31.4 -2.4,137.2 32.3,137.2 81.9,0 162.6,0 244.5,0 47.7,0 52.7,-8.2 76.9,31.6 40.3,69.2 80.7,137.8 122.2,206.3 119.8,202.3 226.5,410.8 354.9,607.8 63.3,95.5 118.5,203.8 195.5,289.7 93.1,103.7 184.9,207.6 278,310.9 65.7,73.9 111.1,184 162.5,268.4 85.7,141.4 171.3,283.2 256.9,424.3 13.7,22.8 25.5,52.2 44,71.2 64.6,64.8 84.5,69.1 175.1,82.4 104.8,15.3 108.5,-259.9 116,-311.1 14.9,-115.2 22.9,-221.5 22.9,-338.2 0,-100.5 14.9,-213.4 -5.5,-311.4 -32.3,-149.9 -64,-299.1 -96.8,-449 -18.7,-92.2 -26.1,-199.8 -65.1,-286 -47.9,-105.8 -126,-224.1 -151.5,-337.6 -29.1,-131.5 -56.4,-263.7 -85.6,-395.2 -24.2,-110.5 -80.7,-213.5 -106.8,-323.3 -12.9,-50.3 -26.6,-107.6 -35.3,-158.5 -13,-67.3 23.5,-95.2 -41.6,-125.3 -107.3,-49.7 -202.9,-81.9 -282.3,-167 -111.1,-120.7 -222.7,-241.6 -335,-362.7 -22.4,-25.1 -46.6,-40.3 -50.3,-74 -2.5,-31.7 -32.9,-165.2 -2.5,-176.6 125.9,-47.2 248.2,-70.4 381.6,-95.5 237,-44.1 483.4,11.8 714.1,60.4 32.9,6.2 93.1,6.2 118.5,30.2 32.4,34.1 120.5,91.8 133.5,138 36.6,123.8 52.7,239.2 52.7,368.3 0,125.9 35.4,228.6 99.3,332.5 55.8,87.5 123.5,199.5 201.6,266.2 107.4,93.4 215.4,186.4 324,279.6 88.1,77.4 191.1,127.1 294.7,185.1 50.2,28.3 66.4,50.3 100.5,99.7 37.9,51.5 37.9,84.9 50.3,146.7 8.6,42.7 34.1,97.4 12.4,137.7 -38.5,70.5 -77.6,141.8 -116.7,212.9 -106.1,192 -183,418.1 -195.5,637.8 -12.4,245.1 -1.2,491.1 -31.6,735 -13.6,110.7 -37.8,220.8 -26,332.9 13.6,150.8 28.5,301.2 44,452.2 23.6,230 57.7,458.3 95.5,686.4 12.5,77.5 24.2,154.7 36.7,232.3 11.1,64.2 9.9,63.5 -34.2,115.7 -74.4,90.3 -161.3,169.4 -239.5,257.2 -330.7,367.1 -428.1,878.9 -284.1,1348 39.1,124 95.5,220.9 161.3,334.4 3.8,6.2 -18,15 -14.3,28.3 6.2,20.1 12.5,40.3 18.1,60.5 24.7,80.6 50.2,161.9 73.7,242.9 69.5,228.6 122.3,454.7 172.5,689 102.4,474 233.3,934.4 368,1401 106.1,370.1 212.8,740.6 318.9,1110.7 -37.9,-551.6 -76.9,-1102.6 -114.7,-1654.2 -11.3,-166.3 -26.7,-331.7 -26.7,-498 0,-231.1 6.2,-459.1 -19.9,-688.4 -26.7,-236.7 -52.8,-473.4 -80.7,-710.1 -18,-155.3 -16.2,-273.9 1.3,-431.2 18.5,-168.2 94.3,-323.9 152.6,-482.5 29.8,-83.1 39.7,-170.5 54,-258.7 16.1,-96.4 40.3,-125.3 104.2,-201.6 l -17.3,176.6 123.4,-353.5 105.5,229.9 158.8,-371 105.5,123.4 c 40.4,-108.9 80.7,-214.6 128.5,-319.8 42.8,-93.1 155.1,-161.4 261.2,-156.7 l -442.5,1535.7"
         style="fill:#231f20;fill-opacity:1;fill-rule:evenodd;stroke:none"
         transform="matrix(0.13333333,0,0,-0.13333333,0,6278.7733)" />
    </g>
  </g>
</svg>
