<?xml version="1.0" encoding="UTF-8" standalone="no"?>
<!-- Created with Inkscape (http://www.inkscape.org/) -->

<svg
   version="1.1"
   id="svg1"
   width="3924.48"
   height="3924.48"
   viewBox="0 0 3924.48 3924.48"
   sodipodi:docname="tmp_zkltynh.pdf"
   xmlns:inkscape="http://www.inkscape.org/namespaces/inkscape"
   xmlns:sodipodi="http://sodipodi.sourceforge.net/DTD/sodipodi-0.dtd"
   xmlns="http://www.w3.org/2000/svg"
   xmlns:svg="http://www.w3.org/2000/svg">
  <defs
     id="defs1" />
  <sodipodi:namedview
     id="namedview1"
     pagecolor="#ffffff"
     bordercolor="#000000"
     borderopacity="0.25"
     inkscape:showpageshadow="2"
     inkscape:pageopacity="0.0"
     inkscape:pagecheckerboard="0"
     inkscape:deskcolor="#d1d1d1">
    <inkscape:page
       x="0"
       y="0"
       inkscape:label="1"
       id="page1"
       width="3924.48"
       height="3924.48"
       margin="0"
       bleed="0" />
  </sodipodi:namedview>
  <g
     id="g1"
     inkscape:groupmode="layer"
     inkscape:label="1">
    <g
       id="group-R5">
      <path
         id="path2"
         d="m 15671.4,397.902 c -527.2,-527.199 -1382,-527.199 -1909.2,0 L 397.898,13762.2 c -527.207,527.2 -527.207,1382 0,1909.2 L 13762.2,29035.7 c 527.2,527.2 1382,527.2 1909.2,0 L 29035.7,15671.4 c 527.2,-527.2 527.2,-1382 0,-1909.2 L 15671.4,397.902"
         style="fill:#fccc2d;fill-opacity:1;fill-rule:nonzero;stroke:#231f20;stroke-width:5;stroke-linecap:butt;stroke-linejoin:miter;stroke-miterlimit:4;stroke-dasharray:none;stroke-opacity:1"
         transform="matrix(0.13333333,0,0,-0.13333333,0,3924.48)" />
      <path
         id="path3"
         d="M 28399.3,14398.6 15035,1034.3 c -175.4,-175.499 -460.9,-175.499 -636.4,0 L 1034.3,14398.6 c -175.456,175.4 -175.452,460.9 0,636.4 l 13364.3,13364.3 c 175.5,175.5 461,175.5 636.4,0 L 28399.3,15035 c 175.5,-175.5 175.5,-461 0,-636.4 z m 381.9,1018.2 -13364.4,13364.3 c -386,386 -1014,386 -1400,0 L 652.461,15416.8 c -385.996,-386 -386,-1014 0,-1400.1 L 14016.8,652.402 c 386,-386 1014,-386 1400,0 L 28781.2,14016.7 c 386,386.1 386,1014.1 0,1400.1"
         style="fill:#231f20;fill-opacity:1;fill-rule:nonzero;stroke:none"
         transform="matrix(0.13333333,0,0,-0.13333333,0,3924.48)" />
      <path
         id="path4"
         d="m 11257.5,18054.8 c 32,-111.3 195.7,-109.8 284.4,-93 152.3,28.9 303.1,42.6 456.2,61 137.9,16.4 252,84.7 377.8,137.8 125.8,52.8 235.1,106.3 324.2,212.9 82.8,99.3 167.6,217.6 283.6,280.9 126.9,69.2 252.3,115.2 363.3,211.3 108.6,94.2 218.7,195.4 319.1,297.7 97.7,98.8 144.2,212.5 202.4,335.6 58.2,123.4 133.6,217.5 137.5,358.2 1.2,37.1 -12.1,296.1 -57.8,295.3 -33.2,-0.4 -75,-292.6 -86.4,-333.2 -38.6,-135.6 -89,-263.3 -157.4,-386.8 -67.9,-121.8 -166.4,-232.4 -250.8,-343.3 -61.7,-81.7 -185.1,-198.1 -292.9,-210.2 -148.9,-16.8 167.5,601.2 99.6,618.4 -52.8,13.3 -172.7,-228.5 -192.2,-268.8 -61,-126.5 -100.8,-260.9 -158.2,-389 -54.7,-122.7 -144.9,-243.8 -250.8,-326.6 -98.1,-76.9 -240.6,-68.4 -248.1,76.6 -3.5,69.1 16,133.2 5.1,202.7 -11.7,70.3 -34.4,139.1 -58.2,205.9 -24.6,68.3 -59.8,176.9 -67.2,40.6 -15.2,-264.8 11.4,-559.4 -180.8,-776.6 -145,-164 -207.1,-56.6 -228.2,110.6 -7,51.5 -87.9,338.6 -125,193.7 -42.9,-169.5 70.3,-287.5 -97.2,-414.1 -71.9,-55 -127.8,-68.7 -217.2,-62.1 -46.1,3.2 -170.7,32.1 -184.8,-35.5 m -1421.48,116 c 32.41,109.8 -94.95,161 -180.48,157.4 -138.28,-6.6 -267.19,5.1 -404.7,20.7 -122.65,14.1 -226.17,52 -286.32,167.2 -36.34,69.9 -80.09,325.8 -192.19,328.2 -72.27,1.5 10.15,-211.4 26.55,-257.9 34.38,-95.7 133.6,-251.1 69.54,-351.5 -66.4,-103.9 -239.05,-79.7 -333.99,-39.9 -56.25,23.9 -103.52,55.9 -144.53,100.4 -30.86,34 -53.52,121.9 -95.72,140.3 -99.2,43.3 -52.72,-108.6 -32.02,-152.8 47.66,-100 89.85,-240.6 -62.11,-274.6 -123.43,-28.1 -239.84,75.8 -341.8,126.2 -51.95,25.4 -267.97,51.5 -186.33,-65.3 81.64,-116.7 191.41,-157.8 323.83,-191.8 142.58,-35.9 234.38,-81.6 379.69,-23 142.58,57.4 282.42,117.2 427.35,166.8 138.28,47.3 283.6,51.2 424.62,82 107.42,23.5 213.66,65.3 324.22,69.2 71.87,2.7 231.65,-57.8 284.39,-1.6 m 3107.08,264.5 c 296.9,18.7 585.1,60.5 883.2,41 286.7,-18.8 551.6,-124.2 806.6,-249.3 280.1,-137.5 554.3,-286.7 838.3,-416.7 276.6,-126.6 569.6,-190.3 861.4,-272.7 276.1,-77.7 522.2,-116.4 809,-77.7 294.9,39.4 605.8,63.3 892.9,141 283.2,77.3 528.1,186.3 829.7,160.1 287.5,-24.6 558.2,-76.5 799.3,-244.1 472.2,-328.1 889,-844.2 1100.3,-1377 100.9,-253.9 218.4,-553.1 117.6,-816.8 -106.2,-277.3 -26.9,-582.4 30.5,-860.5 57.8,-280.9 111.7,-566.1 135.6,-851.6 22.2,-273.1 -35.2,-613.7 92.9,-863.3 122.7,-239.1 386.8,-419.5 425,-702.7 19.6,-146.9 -21.4,-292.2 -10.5,-439.1 10.1,-136.7 48,-268.4 71.8,-403.1 54,-304.3 104,-612.2 186.8,-910.2 40.2,-145.3 90.6,-283.2 157,-418.8 55.5,-114 143.8,-241 124.2,-373.4 -17.2,-113.3 -130.4,-184 -149.6,-305.1 -20.7,-134 5.9,-262.5 32.8,-392.6 52.4,-254.3 -240.2,-475.8 -477.3,-443 -85.9,12.6 -289.9,-19.9 -350,49.7 -73.1,85.5 -6.7,274.2 14,369.5 57.5,264.8 264.5,468.4 289.1,743 25.8,285.1 -126.2,564.5 -205.9,832.4 -87.8,296.5 -170.3,594.5 -260.5,890.3 -42.2,139.4 -86.7,262.1 -172.7,381.6 -85.5,118.4 -171,225 -220.7,364.5 -48,135.9 -42.2,289.8 -99.2,422.6 -59,136 -141,234.8 -245.3,337.9 -204.3,201.2 -363.7,430.5 -509,677.8 -53.5,91 -316.4,677.3 -472.2,464.4 -57.1,-78.5 -32.1,-278.9 -32.1,-370.3 0,-144.9 2.4,-291.4 22.7,-436.3 43.3,-301.6 95.7,-574.6 271.1,-828.6 72.6,-105.8 197.2,-212.9 200.7,-348 3.2,-122.7 -71.4,-246.9 -112.8,-359.4 -108.2,-294.5 -181.7,-590.6 -233.2,-900 -23.5,-142.6 -42.2,-286.3 -62.9,-429.3 -20.7,-143.7 -59,-289.9 -59.4,-435.6 -0.8,-158.6 9,-285.5 -82.4,-421.8 -75,-111 -213.3,-177 -216.5,-323.1 -2.7,-153.5 18,-250.4 -72.6,-387.5 -56.7,-84.8 -216.4,-176.6 -315.2,-199.6 -101.2,-23.1 -298.1,-69.1 -369.2,21.1 -25.4,32 -22.3,93 -72.6,92.2 -37.2,-0.8 -52.8,-51.6 -100.8,-41.4 -112.1,22.6 -73.1,156.2 -20.7,213.6 103.5,112.9 208.5,220 304.3,339.9 157.4,197.7 376.1,439.4 401.1,700.8 30.1,312.5 45,626.9 64.5,940.6 16.8,275 37.1,562.9 -31.2,832.8 -71.5,282.9 -199.3,549.3 -351.6,797.3 -143.8,232.8 -343.4,458.2 -423.5,722.3 -19.5,66 -35.5,132.8 -50,200 -4.3,19.5 -1.9,83.6 -15.2,94.1 -16,11.8 -113.3,-15.6 -133.2,-18.3 -140.2,-19.2 -280.9,-39.1 -422.6,-48.1 -317.2,-21.1 -617.6,5.9 -932.9,37.9 -293.8,29.3 -567.2,-34.4 -844.1,-124.2 -136.4,-44.5 -282.5,-103.5 -427.4,-110.2 -144.5,-6.6 -287.9,15.3 -431.6,7.1 -119.6,-6.7 -212.1,-75.8 -220.7,-197.7 -9.8,-144.9 7,-267.2 -50,-406.2 -111.7,-270.8 -240.7,-481.3 -190.7,-785.6 46.5,-279.7 170,-552.7 257.1,-821.1 96.5,-296.1 177.3,-595.7 264,-893.8 43,-147.6 84.4,-295.7 136.7,-439.8 33.6,-93 149.3,-216 142.2,-312.5 -3.9,-54.7 -48,-114.5 -66.7,-164.9 -25.8,-68.3 -27.4,-146.9 -25.4,-218.7 3.1,-98.4 70.3,-327 3.1,-406.7 -67.6,-81.2 -240.6,-101.9 -339.9,-100 -151.5,1.6 -183.6,-23.8 -248.4,-167.1 -127,-280.5 -363.3,-285.6 -636.3,-298.5 -87.9,-3.9 -225.8,-67.6 -262.5,41.4 -49.6,148.4 -79.3,27.7 -180.1,56.3 -183.6,50.8 191,551.9 264.8,601.9 108.6,73.5 282.5,95.3 358.6,206.7 69.6,101.5 63.7,255 66.8,373 8.6,310.6 -23.4,611.8 -69.9,917.6 -88.3,586.7 -172.3,1186 -313.7,1762.1 -70.7,287.5 -152.7,570.8 -196.1,863.7 -21.8,148.5 74.6,271.9 63.3,408.6 -10.1,127 -83.2,278.1 -177.3,365.3 -89.5,82.8 -190.3,163.2 -256.7,268.7 -27.7,44.5 -88.3,269.9 -167.2,246.9 -80.4,-24.2 5.9,-250.8 30.9,-294.1 68,-120.8 183.6,-205.5 267.2,-314.5 59,-77.4 201.9,-211.3 196.9,-313.7 -6.3,-115.6 -114.1,-117.2 -187.9,-68 -114.9,76.6 -193.4,196.1 -302.4,277.4 -98.8,73.8 -244.9,44.9 -327.3,132.4 -195.3,208.6 4.7,520.7 -195.3,720.7 -89.1,89.5 -30.1,-236.3 -27,-265.2 9.8,-92.6 62.1,-280.1 -20.7,-351.2 -111.3,-94.9 -245.7,73.5 -297.3,155.1 -78.5,124.2 -80.8,259.8 -107.8,399.6 -26.1,134.8 -85.1,285.2 -132,414.9 -43.4,120.7 -195.7,223.4 -293.8,299.6 -238.6,185.5 -317.5,516 -431.6,787.1 -46.1,111.3 -106.7,177.3 23.8,230.5 127,51.1 229.3,151.5 276.2,284.7 12.9,37.1 29.3,227.4 -32.4,207.8 -22.7,-7 -57.5,-147.6 -73.5,-176.9 -31.6,-55.5 -73.8,-108.2 -122.6,-149.6 -101.2,-86.7 -237.9,-124.2 -343,-207.8 -115.6,-91.8 -129.7,-171.5 -93.7,-312.2 25.3,-100.7 53.1,-221 -13.3,-312.5 -73.5,-100.7 -224.6,-109.3 -327.4,-173.4 -109.7,-68.3 -214,-179.7 -354.68,-142.2 -139.05,36.8 -226.17,135.2 -382.42,121.1 -137.89,-12.1 -148.44,-25.8 -199.22,114.5 -23.82,65.2 -43.36,106.2 -107.81,138.3 -54.69,26.9 -111.73,33.5 -146.49,89.4 -70.7,113.7 28.12,271.5 39.06,391.4 12.51,136.4 -9.76,274.6 3.91,411 14.06,136.7 66.4,271.4 130.86,392.9 69.53,131.7 144.93,211 147.65,366.8 3.13,136 64.07,264.5 97.67,394.6 37.89,145.3 8.98,294.9 28.51,442.5 7.83,60.2 130.08,264.1 102.74,303.6 -42.58,61.3 -305.08,-49.2 -363.68,-58.6 -67.58,-11 -135.95,5.1 -203.51,5.8 -78.91,0.4 -143.75,-26.5 -219.54,-40.6 -153.12,-28.1 -291.41,-76.9 -435.55,-134.7 -125.78,-50.4 -253.13,-104.7 -390.25,-73.9 -120.69,27 -270.31,65.2 -373.82,133.6 -109.38,72.7 -223.44,128.1 -333.21,196.9 -57.82,36.7 -105.86,83.6 -167.19,114.8 -54.31,28.2 -120.32,44.6 -152.34,102.4 -57.82,104.3 11.72,227.7 118.36,262.9 124.22,40.6 212.1,-57.1 312.5,-108.2 57.02,-29.3 119.14,-48.1 176.95,-74.6 58.6,-26.6 132.43,-78.9 195.71,-85.6 43.35,-5.1 35.93,-21.5 42.19,5.9 7.82,33.9 -73.83,151.5 -95.7,179.7 -166.42,213.2 -344.93,429.6 -491.81,659.3 -90.24,141.1 -110.15,278.6 -139.05,441.1 -11.34,60.1 -14.08,123 -28.53,182.4 -12.88,52.3 -48.05,96.9 -60.55,148 -14.06,60.2 0.78,116.8 -21.49,177.8 -25.38,67.9 -66.8,126.9 -82.02,198.8 -14.47,67.2 -30.08,252.7 76.56,255.1 38.67,0.8 85.16,-45.3 116.41,-62.1 35.93,-19.2 69.92,-7.1 107.03,-15.6 110.55,-24.7 154.7,-140.7 152.35,-244.2 -1.17,-48.4 -32.82,-106.6 -12.5,-153.9 19.14,-44.9 79.3,-73.4 109.76,-111.7 58.61,-73.8 172.66,-236.3 142.59,-41.8 -20.32,133.2 -43.37,254.3 -105.09,376.2 -33.2,65.6 -71.87,131.6 -98.03,200.4 -14.86,39.4 -51.58,137.8 -50.81,175.7 1.18,63.7 103.14,189.9 169.55,173.1 83.19,-21.1 148.44,-255.1 181.25,-325.4 22.26,-47.3 121.88,-186.3 155.86,-69.1 30.07,103.9 -21.87,297.2 -52.74,399.6 -36.33,120.3 -266.4,582.4 56.26,526.5 263.67,-45.3 193.75,-443.7 409.77,-549.2 78.13,-37.9 12.89,155.1 14.84,191 3.12,57.5 -13.68,234.8 57.03,260.2 108.21,39 168.75,-58.2 169.14,-153.1 0.39,-45 24.23,-241.1 98.44,-125 47.26,73.4 -56.26,198 -34.77,291.4 33.21,145.7 87.9,73.4 171.09,20.3 79.31,-50.8 131.66,26.1 208.22,-2 98.83,-35.9 90.63,-193.3 139.44,-268 44.16,54.7 -13.28,212.6 77.36,240.7 98.83,30.4 145.69,-172.7 163.67,-229.3 41.8,-131.3 86.72,-244.9 64.45,-384.4 -20.7,-129.7 -44.13,-262.1 -67.19,-391.4 -23.43,-130.9 -119.54,-228.5 -156.64,-354.3 -37.88,-128.5 -50.4,-257.4 -58.59,-390.2 -6.24,-103.6 -44.15,-270.8 7.41,-364.5 56.65,-104.7 32.43,-225.8 67.59,-336 12.11,-38.6 119.54,-246.8 184.37,-175.3 25.02,27.3 -19.13,83.2 -26.17,106.6 -17.18,59 -19.13,128.5 -21.48,189.5 -5.46,138.6 -25,272.2 12.11,407.4 12.12,41.8 33.99,82.8 35.14,125.8 1.58,58.2 -41.39,107.8 -15.61,168.3 37.89,88.7 206.25,89.9 283.59,59 130.47,-52 174.22,-173.4 252.75,-277.7 80.44,-107.1 123.44,-218 174.24,-341 21.9,-54 27.3,-112.2 51.5,-164.9 15.3,-33.6 83.6,-139.8 121.9,-148.8 44.2,-10.6 54.7,24.2 89.9,47.6 32.4,21.5 66,16.8 100.7,22.3 109.4,16.4 182.5,76.2 298.9,77.7 59.7,1.2 107.8,-3.9 166,-18.3 51.6,-12.9 43,27.3 52.3,64.4 22.7,93.8 34.8,203.9 62.9,293.8 12.9,42.6 50.4,65.6 70.3,105.8 21.9,45 16.8,94.2 54.3,132.9 73.1,76.1 72.3,213.6 139.9,302.3 100,131.7 421.1,523.8 570.3,228.5 52.7,-104.3 -54.3,-217.9 -23.8,-331.2 14.8,-55.1 56.2,-97.7 75.8,-150.4 24.6,-66.4 29.6,-139.1 39.8,-209 18.4,-126.2 51.6,-254.7 -10.5,-373.5 -28.2,-54.3 -61.4,-89 -53.2,-152.7 3.9,-30.1 38.3,-129.3 82.5,-125 31.2,3.1 71.8,95.7 86.3,119.9 39,66.8 23,135.6 26.6,209 5.8,134.8 20.3,257.4 -9,391.4 -19.6,89.9 -65.7,266.1 62.1,309.8 142.9,49.2 105.8,-129.3 110.9,-198.4 5.1,-77.8 34.8,-260.2 135.9,-268.8 149.7,-12.5 172.7,212.5 179.3,310.6 4.7,64.4 -29.6,117.2 -41.8,178.1 -12.8,63.7 -3.9,129.3 -19.9,192.6 -33.6,134 -105.8,261.7 -123.8,397.6 -20.7,156.7 9,287.9 57.8,436 16,49.6 17.2,92.9 19.5,144.5 3.2,57 33.2,99.2 46.9,153.1 14.9,56.3 8.2,116.8 20.7,173.9 11.3,52.3 55.5,100 78.9,148 26.6,55.1 28.2,123.1 95.3,105.1 44.2,-11.7 105.5,-107.8 132.9,-145.7 59.3,-81.7 87.8,136.7 101.1,153.9 71.5,89.8 219.6,52.7 321.5,79.7 112.1,30.1 228.9,59.4 273.9,-86.3 35.9,-115.7 -93.4,-74.3 -98.5,-155.9 -3.1,-48.8 69.6,-134.4 82.8,-54.3 9,58.2 104.3,209 178.2,173.4 246.4,-118.7 -11,-545.7 -24.3,-719.9 -9.7,-125.4 102.8,-118 157.5,-30.5 24.6,40.7 21.8,68 67.1,92.2 36,19.6 76.6,4.7 100,44.6 16.4,29.6 -5,83.9 0,117.5 7.1,52.4 34,119.6 73.9,155.1 81.2,72.7 125.8,-5.8 154.3,-87.5 97.2,-278.9 -19.9,-591 -64.9,-873.8 -44.9,-282.8 -134,-570 -284,-814.5 -115.2,-188.7 -295.7,-334.8 -450.4,-489.1 -73.4,-73 -191.8,-93.3 -280.8,-144.1 -101.2,-57.4 -176.6,-142.6 -258.2,-223.8 M 11713,19504.4 c -219.2,125.4 -278.9,-374.6 -275.4,-495.3 1.2,-35.2 19.1,-236.7 78.9,-224.2 68.4,14 18.3,211.3 30.5,255.5 76.9,276.1 230.1,-170.4 297.2,-136.4 52.8,26.6 -10.1,234.8 -26.9,276.6 -36,88.7 -31.3,263.3 -104.3,323.8 m -2165.66,-337.5 c -82.81,-111.7 -25.79,-335.5 -10.16,-469.5 11.72,-104.3 36.32,-89.1 104.69,-137.5 50.38,-35.6 75.4,-140.7 139.05,-146.1 16.8,-1.2 50.79,-34 60.95,-30.5 19.92,6.7 28.13,84.8 27.34,102.8 -5.87,127.7 -140.62,266 -187.52,379.2 -42.55,104.3 -85.14,199.3 -134.35,301.6 m 1284.36,-1685.2 c -81.2,57.1 -146.1,57.9 -230.4,9.8 -62.6,-35.5 -113.7,-93.7 -64.9,-168.4 89.5,-135.5 286.3,46.9 295.3,158.6 m 3493.4,-7350.4 c 27,84.3 -39.8,78.1 -53.5,0 -22.6,-125.4 25,-291.4 35.9,-418.4 14.1,-153.9 79,-299.6 137.9,-435.5 6.7,-14.9 59.8,-150.1 73.5,-90.7 23.8,103.5 -37.9,275.8 -60.2,377.7 -36.7,167.6 -160.9,391.8 -133.6,566.9 m -4024.2,5378.5 c -71.9,37.1 -115.7,6.3 -128.6,-67.5 -5,-27 -20.7,-51.6 7.5,-69.2 28.1,-17.6 33.2,21.5 56.6,17.6 37.9,-5.9 93,-74.6 129.3,-21.5 25.8,37.5 -40.2,114.1 -64.8,140.6 m -262.9,2822.3 c 139.8,-48 119.9,239.5 55.4,287.5 -50.4,37.5 -51.1,6.7 -51.9,-55 -0.8,-57.5 -44.17,-190.7 -3.5,-232.5"
         style="fill:#231f20;fill-opacity:1;fill-rule:evenodd;stroke:none"
         transform="matrix(0.13333333,0,0,-0.13333333,0,3924.48)" />
    </g>
  </g>
</svg>
