<?xml version="1.0" standalone="no"?>
<svg width="2968px" height="2968px" viewBox="-12 -2164 2968 2968 " xmlns="http://www.w3.org/2000/svg" xmlns:xlink="http://www.w3.org/1999/xlink">
<title>generated by pstoedit</title>
<!-- generated by pstoedit version:4.02 -->
<g xml:space='preserve'>
<clipPath id="clippath1"> 	<path d="
	M 0 -2151.36 
	L 0 792 
	L 2943.36 792 
	L 2943.36 -2151.36 
	Z 
	" style="clip-rule:nonzero"/>
</clipPath>
<g style="clip-path:url(#clippath1)"> 
<g fill="#95e8ff" fill-rule="nonzero" stroke-width="0" stroke-linejoin="miter" stroke-linecap="butt" stroke-miterlimit="10" >
	<path d="
	M 1567.14 752.211 
	C 1514.42 804.93 1428.94 804.93 1376.22 752.211 
	L 39.7891 -584.22 
	C -12.9297 -636.94 -12.9297 -722.42 39.7891 -775.14 
	L 1376.22 -2111.57 
	C 1428.94 -2164.29 1514.42 -2164.29 1567.14 -2111.57 
	L 2903.57 -775.14 
	C 2956.29 -722.42 2956.29 -636.94 2903.57 -584.22 
	Z 
	"/>
</g>
<g stroke="#7f7f7f" fill="none" stroke-width="0.5" stroke-linejoin="miter" stroke-linecap="butt" stroke-miterlimit="4" >
	<path d="
	M 1567.14 752.211 
	C 1514.42 804.93 1428.94 804.93 1376.22 752.211 
	L 39.7891 -584.22 
	C -12.9297 -636.94 -12.9297 -722.42 39.7891 -775.14 
	L 1376.22 -2111.57 
	C 1428.94 -2164.29 1514.42 -2164.29 1567.14 -2111.57 
	L 2903.57 -775.14 
	C 2956.29 -722.42 2956.29 -636.94 2903.57 -584.22 
	Z 
	"/>
</g>
<g fill="#7f7f7f" fill-rule="nonzero" stroke-width="0" stroke-linejoin="miter" stroke-linecap="butt" stroke-miterlimit="4" >
	<path d="
	M 2839.93 -647.86 
	L 1503.5 688.57 
	C 1485.96 706.121 1457.41 706.121 1439.86 688.57 
	L 103.43 -647.86 
	C 85.8828 -665.4 85.8867 -693.95 103.43 -711.5 
	L 1439.86 -2047.93 
	C 1457.41 -2065.48 1485.96 -2065.48 1503.5 -2047.93 
	L 2839.93 -711.5 
	C 2857.48 -693.95 2857.48 -665.4 2839.93 -647.86 
	Z 
	M 2878.12 -749.68 
	L 1541.68 -2086.11 
	C 1503.08 -2124.71 1440.28 -2124.71 1401.68 -2086.11 
	L 65.2461 -749.68 
	C 26.6484 -711.08 26.6445 -648.28 65.2461 -609.67 
	L 1401.68 726.762 
	C 1440.28 765.359 1503.08 765.359 1541.68 726.762 
	L 2878.12 -609.67 
	C 2916.72 -648.28 2916.72 -711.08 2878.12 -749.68 
	Z 
	"/>
</g>
<g fill="#7f7f7f" fill-rule="evenodd" stroke-width="0" stroke-linejoin="miter" stroke-linecap="butt" stroke-miterlimit="4" >
	<path d="
	M 2075.66 -96.379 
	C 2072.66 -102.84 2069.9 -109.262 2066.26 -115.41 
	C 2062.87 -120.98 2064.6 -129.898 2064.6 -136.172 
	C 2064.6 -150.031 2063.9 -164.871 2062.31 -178.57 
	C 2061.45 -187.059 2060.5 -195.551 2059.54 -204 
	C 2059.08 -208.36 2062.64 -221.91 2060.19 -223.12 
	C 2054.25 -226.08 2058.12 -258.67 2058.77 -265.25 
	C 2059.7 -274.36 2060.73 -277.4 2056.23 -284.83 
	C 2052.51 -291.14 2050.21 -296.32 2049.67 -303.45 
	C 2048.56 -317.89 2045.17 -335.06 2047.14 -349.43 
	C 2048.09 -356.6 2048.79 -363.33 2051.01 -370.15 
	C 2052.59 -374.9 2058.28 -386.97 2056.86 -391.99 
	C 2055.84 -395.61 2044.38 -403.6 2040.89 -405.58 
	C 2034.66 -409.12 2028.41 -412.59 2022.24 -416.37 
	C 2013.25 -421.86 1999.48 -427.11 1993.87 -436.81 
	C 1985.35 -451.8 1976.8 -466.75 1968.19 -481.78 
	C 1961.95 -492.69 1955.77 -503.63 1949.31 -514.37 
	C 1941.95 -526.68 1945.43 -542.45 1945.98 -556.47 
	C 1946.21 -562.34 1952.31 -567.45 1955.7 -572.08 
	C 1959.57 -577.18 1962.51 -583.25 1965.82 -588.74 
	C 1971.66 -598.52 1983.85 -606.15 1989.53 -614.91 
	C 1998.06 -628.11 2002.57 -635.08 2002.57 -650.97 
	C 2002.57 -666.27 2004.46 -678.42 2008.1 -693.22 
	C 2008.1 -692.48 2008.1 -691.74 2008.1 -691.04 
	C 2011.34 -703.81 2016.87 -719.46 2019.16 -730.91 
	C 2022.4 -746.33 2022.32 -760.73 2021.62 -776.78 
	C 2021.05 -790.8 2012.99 -803.37 2006.12 -815.17 
	C 1998.37 -828.37 1988.81 -836.51 1978.94 -847.8 
	C 1959.33 -870.15 1941.64 -893.9 1922.34 -916.37 
	C 1902.68 -939.3 1868.06 -945.77 1839.52 -949.86 
	C 1824.44 -952.04 1809.42 -956.13 1794.16 -958.38 
	C 1781.45 -960.29 1770.21 -958.23 1757.5 -956.75 
	C 1741.38 -954.88 1725.65 -953.32 1709.37 -952.7 
	C 1696.8 -952.23 1680.75 -951.06 1669.38 -956.71 
	C 1656.18 -963.33 1641.48 -972.64 1627.18 -976.72 
	C 1621 -978.48 1613.74 -977 1607.65 -979.18 
	C 1599.51 -982.18 1591.37 -984.78 1583 -987.24 
	C 1554.3 -995.65 1525.29 -1003.32 1496.15 -1009.78 
	C 1480.65 -1013.21 1464.76 -1022.83 1450.14 -1028.94 
	C 1437.33 -1034.31 1428.41 -1043.19 1418.06 -1052.26 
	C 1407.39 -1061.65 1387.78 -1061.61 1374.43 -1063.56 
	C 1360.91 -1065.58 1347.4 -1067.96 1334.05 -1069.86 
	C 1319.5 -1071.93 1306.38 -1079.01 1291.6 -1080.26 
	C 1277.63 -1081.43 1263.24 -1075.51 1249.08 -1074.22 
	C 1244.43 -1073.8 1233.76 -1073.21 1229.58 -1075.28 
	C 1223.25 -1078.39 1219.76 -1090 1216.77 -1095.56 
	C 1210.83 -1106.89 1202.69 -1119.16 1194.71 -1129.13 
	C 1184.12 -1142.37 1167.92 -1157.71 1174.79 -1176.05 
	C 1180.65 -1191.66 1207.83 -1192.64 1216.84 -1206.19 
	C 1221.34 -1212.84 1221.59 -1224.06 1222.68 -1231.65 
	C 1223.17 -1234.77 1226.89 -1239.25 1226.17 -1241.89 
	C 1225.14 -1245.36 1224.36 -1254.55 1221.83 -1256.88 
	C 1212.17 -1265.88 1177.4 -1247.77 1174.25 -1256.88 
	C 1185.95 -1256.07 1199.61 -1270.59 1211.31 -1272.96 
	C 1222.76 -1275.22 1239.91 -1269.85 1249.08 -1263.15 
	C 1255.02 -1258.87 1257.07 -1256.53 1260.79 -1250.27 
	C 1263.55 -1245.55 1270.58 -1237.84 1270.58 -1232.16 
	C 1270.58 -1215.45 1269.08 -1200.62 1266.63 -1184.15 
	C 1264.82 -1172.12 1259.05 -1159.03 1259.68 -1147.16 
	C 1260.55 -1132.94 1261.49 -1118.54 1264.27 -1104.56 
	C 1264.89 -1101.64 1266.08 -1087.46 1268.77 -1087.46 
	C 1275.64 -1087.46 1284.19 -1088.94 1290.81 -1087.39 
	C 1299.43 -1085.4 1308.04 -1083.42 1316.66 -1081.43 
	C 1324.8 -1079.56 1325.6 -1075.63 1331.52 -1083.03 
	C 1331.52 -1082.67 1331.52 -1082.29 1331.52 -1081.9 
	C 1342.73 -1108.14 1352.93 -1136.21 1361.38 -1163.47 
	C 1365.33 -1176.48 1371.51 -1188.2 1372.54 -1202.02 
	C 1373.57 -1216.35 1375.61 -1232.27 1372.46 -1246.37 
	C 1368.74 -1263.07 1362.73 -1273.55 1353.09 -1287.8 
	C 1345.59 -1298.78 1333.81 -1307.31 1326.77 -1318.25 
	C 1322.99 -1324.13 1319.82 -1331.14 1314.29 -1335.5 
	C 1308.21 -1340.29 1302.2 -1344.88 1296.74 -1350.34 
	C 1285.84 -1361.28 1274.86 -1372.1 1262.6 -1381.6 
	C 1254.94 -1387.56 1234.77 -1397.92 1224.51 -1395.11 
	C 1210.21 -1391.22 1195.9 -1386.82 1181.12 -1384.95 
	C 1174.32 -1384.13 1167.84 -1381.33 1161.12 -1380.75 
	C 1150.69 -1379.89 1147.77 -1378.25 1139.24 -1372.06 
	C 1126.51 -1362.84 1116.15 -1347.77 1105.48 -1336.28 
	C 1101.53 -1332.07 1096.8 -1328.02 1093.39 -1323.35 
	C 1089.92 -1318.52 1087.86 -1307.82 1080.19 -1307.82 
	C 1064.15 -1307.82 1059.42 -1327.4 1052.62 -1339.59 
	C 1038.39 -1365.21 1008.99 -1378.95 984.891 -1393.09 
	C 984.891 -1392.74 984.891 -1392.39 984.891 -1392 
	C 954.613 -1412.56 929.969 -1387.25 908.707 -1367.82 
	C 897.805 -1357.85 892.977 -1344.18 886.105 -1331.49 
	C 878.434 -1317.28 877.559 -1304.08 878.043 -1288.46 
	C 878.199 -1281.34 877.402 -1273.63 879.699 -1266.85 
	C 882.23 -1259.26 878.043 -1249.14 876.543 -1241.43 
	C 875.125 -1234.18 872.262 -1229.86 868.309 -1223.43 
	C 864.277 -1216.93 862.156 -1209.3 859.395 -1202.18 
	C 853.941 -1188.08 846.504 -1175 839.711 -1161.45 
	C 834.258 -1150.54 826.434 -1136.49 817.34 -1128.31 
	C 809.121 -1120.87 809.203 -1119.12 798.688 -1122.16 
	C 790.238 -1124.53 786.285 -1129.87 780.035 -1136.14 
	C 769.934 -1146.26 758.699 -1154.59 748.105 -1164.13 
	C 744.719 -1167.13 734.051 -1174.68 730.176 -1168.3 
	C 727.801 -1164.41 732.863 -1153.15 735.063 -1149.18 
	C 739.891 -1140.69 744.641 -1132.28 749.449 -1123.83 
	C 752.781 -1117.99 759.184 -1114.72 764.48 -1110.71 
	C 776.883 -1101.48 789.598 -1093.03 802.172 -1084.12 
	C 816.23 -1074.15 824.465 -1066.4 842.164 -1066.4 
	C 857.738 -1066.4 866.813 -1066.87 879.465 -1077.07 
	C 886.262 -1082.64 893.055 -1088.16 899.926 -1093.66 
	C 904.602 -1097.43 906.02 -1105.18 908.223 -1110.71 
	C 913.359 -1123.44 924.906 -1131.78 929.813 -1144.2 
	C 935.105 -1157.44 940.793 -1170.79 942.758 -1184.93 
	C 956.445 -1179.09 967.426 -1171.84 978.953 -1162.65 
	C 991.605 -1152.53 974.922 -1137.65 968.129 -1128.31 
	C 961.742 -1119.67 948.465 -1109.46 948.289 -1097.43 
	C 948.211 -1084.93 961.176 -1072.47 967.191 -1062 
	C 967.191 -1062.74 967.191 -1063.44 967.191 -1064.22 
	C 970.348 -1059.12 975.254 -1053.55 976.441 -1047.59 
	C 978.719 -1036.38 975.719 -1037.27 970.504 -1027.66 
	C 962.441 -1012.9 966.004 -999.23 965.363 -983.15 
	C 964.738 -968.51 964.973 -953.83 964.973 -939.19 
	C 964.973 -925.72 964.254 -908.97 967.191 -895.85 
	C 969.879 -883.51 980.781 -868.44 988.199 -858.24 
	C 997.137 -846.01 1010.65 -839.74 1018.79 -826.77 
	C 1021.88 -821.87 1021.39 -813.89 1023.61 -808.4 
	C 1026.92 -800.41 1032.14 -792.82 1036.25 -785.23 
	C 1038.86 -780.48 1045.57 -778.3 1045.98 -772.69 
	C 1046.61 -762.88 1047.25 -752.99 1047.95 -743.1 
	C 1048.98 -727.64 1052.21 -717.59 1065.18 -708.32 
	C 1072.38 -703.15 1072.46 -700.73 1075.15 -692.67 
	C 1077.58 -685.27 1082.1 -678.42 1086.75 -672.19 
	C 1094.81 -661.48 1101.53 -646.92 1111.34 -637.85 
	C 1122.87 -627.1 1134.41 -618.22 1147.53 -609.5 
	C 1160.81 -600.66 1169.42 -595.52 1176.47 -580.72 
	C 1181.68 -569.74 1187.91 -558.57 1191.48 -547.08 
	C 1196.13 -532.01 1199.38 -515.31 1206.1 -501.02 
	C 1211.39 -489.57 1222.94 -472.13 1221.83 -459 
	C 1219.37 -429.57 1217.56 -397.87 1226.09 -369.37 
	C 1234.31 -341.96 1247.12 -316.53 1254.15 -288.46 
	C 1257.55 -274.79 1259.91 -262.06 1261.74 -248.04 
	C 1263.39 -235.27 1267.04 -218.87 1264.89 -206.059 
	C 1262.6 -192.281 1254.87 -178.852 1249.57 -166.109 
	C 1244.2 -153.23 1236.12 -140.961 1232.96 -127.211 
	C 1230.04 -114.359 1225.45 -110.629 1213.2 -106.191 
	C 1201.68 -102.102 1197 -99.262 1193.05 -87.461 
	C 1203.25 -87.648 1212.81 -86.371 1223.02 -87.461 
	C 1220 -83.059 1217.08 -78.621 1214.08 -74.18 
	C 1221.75 -70.398 1227.05 -66.941 1235.73 -66.391 
	C 1244.67 -65.809 1253.5 -65.23 1262.44 -64.719 
	C 1270.91 -64.172 1279.36 -64.211 1287.81 -64.211 
	C 1294.68 -64.211 1303.85 -69.699 1310.49 -71.961 
	C 1308.29 -76.98 1306.46 -78.539 1308.99 -83.172 
	C 1312.94 -90.262 1316.97 -97.391 1320.92 -104.512 
	C 1324.08 -110.281 1324.08 -109.648 1330.8 -109.969 
	C 1332.86 -110.039 1347.79 -109.539 1348.28 -111.211 
	C 1351.67 -124.18 1353.81 -132.859 1351.74 -146.141 
	C 1350.09 -157 1342.5 -168.18 1338.16 -178.262 
	C 1333.25 -189.441 1330.89 -198.039 1329.06 -210.04 
	C 1327.49 -221.01 1323.92 -231.76 1323.46 -242.74 
	C 1322.42 -267.66 1322.5 -290.71 1324.88 -315.6 
	C 1324.88 -315.24 1324.88 -314.9 1324.88 -314.5 
	C 1325.83 -326.42 1327.49 -338.1 1329.3 -349.94 
	C 1329.3 -349.59 1329.3 -349.16 1329.3 -348.81 
	C 1333.4 -352.35 1334.05 -358.82 1337.12 -363.37 
	C 1341 -369.17 1347.01 -375.83 1347.01 -383.11 
	C 1347.01 -388.88 1349.78 -396.35 1350.25 -402.51 
	C 1350.81 -408.66 1350.17 -415.43 1351.9 -421.31 
	C 1359.96 -448.72 1365.18 -479.8 1381.3 -503.86 
	C 1390.08 -516.9 1393.31 -529.17 1394.34 -544.98 
	C 1395.22 -558.26 1418.52 -557.17 1424.85 -547.63 
	C 1433.48 -534.74 1445.16 -529.29 1457.33 -520.33 
	C 1469.18 -511.61 1481.68 -504.6 1496.54 -508.3 
	C 1496.15 -508.3 1495.74 -508.3 1495.43 -508.3 
	C 1509.5 -509.59 1514.7 -508.03 1527.51 -501.68 
	C 1526.81 -502.03 1526.01 -502.38 1525.29 -502.77 
	C 1539.29 -499.19 1554.79 -500.16 1568.84 -502.19 
	C 1582.84 -504.17 1594.78 -514.37 1607.26 -502.77 
	C 1618.96 -491.83 1623.84 -481 1639.34 -474.5 
	C 1646.94 -471.35 1652.54 -466.87 1659.1 -461.93 
	C 1665.1 -457.41 1672.15 -456.32 1678.14 -451.8 
	C 1700.98 -434.67 1727.07 -418.35 1752.98 -406.32 
	C 1767.37 -399.62 1780.57 -394.99 1795.58 -390.4 
	C 1814.08 -384.79 1820.01 -379.42 1832.26 -364.35 
	C 1840.32 -354.42 1849.01 -344.53 1857.55 -334.99 
	C 1865.61 -325.88 1861.17 -317.97 1858.97 -306.33 
	C 1852.96 -273.58 1849.41 -239.28 1838.9 -207.66 
	C 1834.23 -193.719 1830.92 -182.43 1830.92 -167.199 
	C 1830.99 -159.648 1832.42 -151.859 1833.12 -144.352 
	C 1833.76 -137.219 1830.28 -127.988 1828.93 -120.949 
	C 1826.48 -107.238 1812.42 -98.828 1802.63 -90.07 
	C 1798.83 -86.762 1791.71 -79.898 1789.97 -75.309 
	C 1788.86 -72.469 1789.97 -67.172 1789.97 -64.059 
	C 1789.97 -60.629 1787.44 -58.18 1785.55 -55.371 
	C 1786.25 -54.98 1786.97 -54.629 1787.75 -54.281 
	C 1786.02 -55.289 1786.33 -53.5 1785.55 -55.371 
	C 1775.43 -47.629 1756.31 -37.809 1750.63 -26.559 
	C 1741.77 -8.87903 1767.53 -11.102 1778.12 -11.102 
	C 1794.96 -11.102 1811.62 -11.301 1828.46 -12 
	C 1836.52 -12.309 1833.53 -20.371 1833.84 -27.648 
	C 1834.07 -33.57 1833.53 -43.148 1836.91 -48.289 
	C 1841.43 -55.059 1844.43 -56.5 1852.41 -56.5 
	C 1862.61 -56.5 1868.38 -57.199 1877.86 -60.672 
	C 1882.43 -62.301 1878.58 -100.969 1878.58 -106.148 
	C 1878.58 -120.48 1884.81 -132 1886.71 -145.898 
	C 1888.76 -160.93 1891.06 -175.891 1893.43 -190.879 
	C 1895.09 -201.469 1896.82 -212.02 1898.47 -222.57 
	C 1897.78 -221.87 1896.98 -221.09 1896.27 -220.35 
	C 1904.57 -245.27 1907.49 -271.71 1914.69 -296.98 
	C 1918.39 -310.11 1921.49 -323.81 1926.14 -336.66 
	C 1930.74 -349 1938.8 -360.49 1945.02 -372.09 
	C 1965.2 -347.84 1984.39 -320.89 1992.61 -290.13 
	C 1992.61 -290.48 1992.61 -290.91 1992.61 -291.26 
	C 1994.91 -283.32 1997.28 -275.37 1999.56 -267.43 
	C 2001.23 -261.86 1999.25 -255.09 1999.48 -249.13 
	C 2000.12 -234.57 1998.78 -220.39 1999.32 -205.949 
	C 1999.81 -192.469 1997.98 -175.852 2003.92 -163.27 
	C 2010.71 -148.941 2015.85 -136.25 2015.85 -120.012 
	C 2015.85 -103.27 2012.84 -89.559 2008.26 -73.48 
	C 2004.31 -59.852 1990.8 -52.34 1985.73 -38.82 
	C 1983.52 -32.871 1987.16 -27.219 1982.66 -21.031 
	C 1978.22 -14.961 1970.49 -9.078 1965.35 -3.35199 
	C 1960.68 1.87097 1956.42 7.19897 1952.07 12.73 
	C 1950.96 14.172 1955.77 19.93 1956.8 21.488 
	C 1957.76 23.051 1962.51 22.039 1964.09 22 
	C 1983.92 21.488 2003.74 20.949 2023.58 20.238 
	C 2034.41 19.852 2035.05 17.871 2033.63 7.19897 
	C 2032.75 1.05103 2030.71 -10.012 2034.25 -15.379 
	C 2038.05 -21.031 2043.35 -34.23 2049.13 -37.621 
	C 2052.13 -39.449 2058.28 -39.172 2061.84 -39.762 
	C 2063.83 -40.07 2065.48 -46.879 2066.18 -48.789 
	C 2067.85 -53.738 2085.94 -96.141 2075.66 -96.379 
	"/>
</g>
<g fill="#7f7f7f" fill-rule="evenodd" stroke-width="0" stroke-linejoin="miter" stroke-linecap="butt" stroke-miterlimit="4" >
	<path d="
	M 1219.69 -1205.95 
	C 1217.16 -1205.1 1214.7 -1203.58 1212.97 -1201.51 
	C 1215.27 -1202.99 1217.47 -1204.47 1219.69 -1205.95 
	"/>
</g>
<g fill="#7f7f7f" fill-rule="evenodd" stroke-width="0" stroke-linejoin="miter" stroke-linecap="butt" stroke-miterlimit="4" >
	<path d="
	M 1330.41 -1070.84 
	C 1334.92 -1070.29 1339.34 -1069.05 1343.68 -1070.84 
	C 1339.27 -1070.84 1334.85 -1070.84 1330.41 -1070.84 
	"/>
</g>
</g >
</g>
</svg>
