<?xml version="1.0" standalone="no"?>
<svg width="3562px" height="3562px" viewBox="-15 -2755 3562 3562 " xmlns="http://www.w3.org/2000/svg" xmlns:xlink="http://www.w3.org/1999/xlink">
<title>generated by pstoedit</title>
<!-- generated by pstoedit version:4.02 -->
<g xml:space='preserve'>
<clipPath id="clippath1"> 	<path d="
	M 0 -2739.94 
	L 0 792 
	L 3531.93 792 
	L 3531.93 -2739.94 
	Z 
	" style="clip-rule:nonzero"/>
</clipPath>
<g style="clip-path:url(#clippath1)"> 
<g fill="#95e8ff" fill-rule="nonzero" stroke-width="0" stroke-linejoin="miter" stroke-linecap="butt" stroke-miterlimit="10" >
	<path d="
	M 1880.52 744.301 
	C 1817.25 807.559 1714.68 807.559 1651.42 744.301 
	L 47.6992 -859.42 
	C -15.5664 -922.69 -15.5664 -1025.26 47.6992 -1088.52 
	L 1651.42 -2692.24 
	C 1714.68 -2755.51 1817.25 -2755.51 1880.52 -2692.24 
	L 3484.24 -1088.52 
	C 3547.5 -1025.26 3547.5 -922.69 3484.24 -859.42 
	Z 
	"/>
</g>
<g stroke="#7f7f7f" fill="none" stroke-width="0.5" stroke-linejoin="miter" stroke-linecap="butt" stroke-miterlimit="4" >
	<path d="
	M 1880.52 744.301 
	C 1817.25 807.559 1714.68 807.559 1651.42 744.301 
	L 47.6992 -859.42 
	C -15.5664 -922.69 -15.5664 -1025.26 47.6992 -1088.52 
	L 1651.42 -2692.24 
	C 1714.68 -2755.51 1817.25 -2755.51 1880.52 -2692.24 
	L 3484.24 -1088.52 
	C 3547.5 -1025.26 3547.5 -922.69 3484.24 -859.42 
	Z 
	"/>
</g>
<g fill="#7f7f7f" fill-rule="nonzero" stroke-width="0" stroke-linejoin="miter" stroke-linecap="butt" stroke-miterlimit="4" >
	<path d="
	M 3407.87 -935.79 
	L 1804.15 667.93 
	C 1783.1 688.98 1748.84 688.98 1727.78 667.93 
	L 124.066 -935.79 
	C 103.012 -956.84 103.012 -991.1 124.066 -1012.15 
	L 1727.78 -2615.88 
	C 1748.84 -2636.93 1783.1 -2636.93 1804.15 -2615.88 
	L 3407.87 -1012.15 
	C 3428.92 -991.1 3428.92 -956.84 3407.87 -935.79 
	Z 
	M 3452.42 -1056.7 
	L 1848.7 -2660.42 
	C 1803.08 -2706.04 1728.85 -2706.04 1683.24 -2660.42 
	L 79.5195 -1056.7 
	C 33.9023 -1011.09 33.9023 -936.86 79.5195 -891.24 
	L 1683.24 712.48 
	C 1728.85 758.102 1803.08 758.102 1848.7 712.48 
	L 3452.42 -891.24 
	C 3498.04 -936.86 3498.04 -1011.09 3452.42 -1056.7 
	Z 
	"/>
</g>
<g fill="#7f7f7f" fill-rule="evenodd" stroke-width="0" stroke-linejoin="miter" stroke-linecap="butt" stroke-miterlimit="4" >
	<path d="
	M 2634.06 -334.29 
	C 2631.16 -342.52 2628.74 -351.15 2625.28 -359.24 
	C 2621.81 -367.19 2619.58 -376.47 2613.42 -382.64 
	C 2609.38 -386.65 2605.45 -390.63 2601.41 -394.64 
	C 2598.8 -397.27 2592.16 -397.03 2588.7 -397.65 
	C 2581.77 -398.96 2570 -395.92 2564.4 -391.74 
	C 2560.18 -388.61 2557 -387.31 2552.07 -385.67 
	C 2549.69 -384.86 2542.77 -388.38 2541.77 -390.73 
	C 2539.97 -394.92 2537.45 -398.29 2538.59 -402.68 
	C 2539.68 -406.52 2542.86 -412.74 2542.05 -416.68 
	C 2541.2 -421.73 2540.25 -426.74 2539.4 -431.74 
	C 2538.59 -435.66 2532.95 -440.99 2530.72 -444.27 
	C 2525.21 -452.07 2517.71 -458.72 2511.26 -465.64 
	C 2500.97 -476.68 2491.9 -491.36 2485.45 -505.05 
	C 2477.67 -521.52 2468.51 -537.84 2462.25 -554.92 
	C 2454.33 -576.46 2446.45 -597.97 2438.52 -619.49 
	C 2432.59 -635.53 2429.42 -652.87 2425.05 -669.38 
	C 2420.35 -687.34 2415.61 -704.61 2412.95 -722.98 
	C 2411.76 -731.45 2411.67 -742.05 2403.79 -747.29 
	C 2395.68 -752.72 2384.62 -755.38 2375.56 -758.99 
	C 2359.1 -765.58 2342.54 -772.91 2327.97 -783.02 
	C 2311.32 -794.52 2302.3 -809.83 2291.86 -826.84 
	C 2283.23 -841.1 2287.07 -864.82 2287.07 -880.57 
	C 2287.07 -887.6 2289.16 -895.16 2290.16 -902.14 
	C 2292.06 -915.04 2294 -928 2295.85 -940.9 
	C 2300.64 -973.93 2302.4 -1007.78 2303.82 -1041.11 
	C 2305.25 -1076.44 2309.04 -1112.38 2302.68 -1147.32 
	C 2299.6 -1164.47 2293.15 -1179.92 2287.07 -1196.29 
	C 2285.03 -1201.79 2283.61 -1208.53 2280.24 -1213.39 
	C 2274.74 -1221.15 2269.23 -1228.88 2263.77 -1236.69 
	C 2273.5 -1233.89 2283.13 -1231.16 2292.86 -1228.36 
	C 2301.31 -1225.97 2309.7 -1219.94 2317.49 -1215.84 
	C 2325.79 -1211.47 2328.68 -1206.99 2334.42 -1199.28 
	C 2339.08 -1193.16 2345.53 -1187.01 2347.85 -1179.59 
	C 2353.5 -1161.44 2360.95 -1143.71 2362.18 -1124.74 
	C 2362.94 -1113.97 2363.61 -1103.22 2364.41 -1092.43 
	C 2364.88 -1085.31 2362.18 -1076.79 2361.14 -1069.74 
	C 2358.81 -1053.66 2355.16 -1037.15 2354.21 -1020.92 
	C 2353.21 -1003.94 2355.06 -986.31 2355.44 -969.3 
	C 2355.82 -954.33 2357.06 -939.41 2358.05 -924.48 
	C 2359 -910.7 2362.94 -897.32 2365.83 -883.9 
	L 2374.61 -914.47 
	C 2376.94 -904.34 2379.22 -894.24 2381.54 -884.08 
	C 2383.34 -876.42 2386.05 -872.62 2390.6 -866.03 
	C 2397.43 -856.11 2404.27 -846.2 2411.1 -836.28 
	C 2415.7 -829.57 2417.65 -820.43 2420.54 -812.86 
	C 2423.44 -804.97 2425.67 -798.92 2426.52 -790.66 
	C 2427.66 -779.98 2428.8 -769.28 2429.99 -758.61 
	C 2431.03 -748.84 2432.88 -739.06 2434.3 -729.33 
	C 2434.68 -726.39 2434.49 -721.91 2435.77 -719.15 
	C 2437.1 -716.24 2440.66 -713.3 2442.7 -710.83 
	C 2450.1 -701.93 2457.5 -693.01 2464.95 -684.16 
	C 2460.21 -696.29 2455.42 -708.43 2450.67 -720.51 
	C 2446.92 -730.09 2447.11 -741.08 2445.97 -751.18 
	L 2464.95 -729.33 
	C 2462.06 -738.42 2459.26 -747.53 2456.36 -756.57 
	C 2454.04 -763.99 2455.23 -774.01 2454.7 -781.81 
	C 2459.35 -775.45 2466 -769.43 2466.95 -761.48 
	C 2468.23 -751.28 2469.46 -741.03 2470.79 -730.83 
	L 2479.57 -762.88 
	C 2482.46 -743.19 2485.07 -723.54 2487.4 -703.71 
	C 2488.34 -694.84 2486.3 -689.83 2483.5 -681.13 
	C 2480.23 -670.97 2476.96 -660.8 2473.68 -650.64 
	L 2502.86 -685.61 
	L 2494.13 -653.54 
	L 2510.22 -668.13 
	L 2514.54 -640.44 
	L 2533.51 -687.1 
	C 2532.04 -672.23 2530.62 -657.38 2529.15 -642.55 
	C 2528.68 -637.17 2524.93 -631.05 2522.98 -626.09 
	C 2520.23 -618.73 2517.33 -611.36 2514.54 -604 
	L 2536.41 -631.69 
	C 2534.84 -622.34 2534.18 -612.33 2531.38 -603.31 
	C 2527.72 -591.85 2524.07 -580.4 2520.42 -568.99 
	C 2528.86 -580.77 2537.36 -592.57 2545.85 -604.43 
	C 2548.6 -608.27 2549.22 -614.54 2550.55 -618.97 
	C 2552.68 -626.13 2554.67 -633.28 2556.81 -640.44 
	L 2558.24 -615.65 
	L 2571.33 -649.15 
	L 2571.33 -621.46 
	C 2577.12 -630.24 2582.81 -638.99 2588.5 -647.75 
	C 2592.63 -654.15 2591.16 -664.14 2591.68 -671.54 
	C 2592.16 -679.11 2594.86 -689.55 2592.92 -696.97 
	C 2590.02 -708.24 2587.13 -719.47 2584.24 -730.73 
	C 2579.44 -749.17 2569.91 -765.92 2561.7 -783.12 
	C 2554.3 -798.87 2546.04 -814.17 2538.02 -829.61 
	C 2527.72 -849.42 2521.56 -869.78 2515.96 -891.15 
	L 2537.83 -880.95 
	C 2532.42 -889.97 2527.06 -898.96 2521.65 -907.97 
	C 2517.71 -914.47 2518 -924.53 2516.86 -931.89 
	C 2513.78 -950.96 2512.4 -969.01 2511.55 -988.33 
	C 2509.6 -1029.06 2504.52 -1069.41 2500.06 -1109.96 
	C 2498.36 -1125.66 2494.23 -1139.87 2490.05 -1155.17 
	C 2487.49 -1164.38 2484.98 -1173.51 2482.46 -1182.67 
	C 2480.33 -1190.24 2473.11 -1198.61 2469.17 -1205.35 
	C 2463.86 -1214.25 2458.69 -1223.17 2453.38 -1232.06 
	C 2452.24 -1234.05 2448.96 -1235.79 2447.21 -1237.21 
	C 2441.8 -1241.6 2436.44 -1245.99 2431.03 -1250.33 
	C 2415.7 -1262.69 2397.82 -1271.42 2380.78 -1281.24 
	C 2374.8 -1284.66 2369.11 -1286.72 2362.56 -1289.07 
	C 2353.4 -1292.34 2343.3 -1297.66 2333.76 -1299.34 
	C 2324.79 -1300.93 2314.12 -1299.34 2304.96 -1299.34 
	C 2297.18 -1299.34 2287.93 -1300.74 2280.15 -1299.15 
	C 2271.37 -1297.26 2261.45 -1293.51 2252.48 -1293.51 
	C 2243.94 -1293.51 2233.41 -1291.78 2225.06 -1293.7 
	C 2214.05 -1296.26 2203 -1298.8 2191.94 -1301.36 
	C 2185.49 -1302.85 2178.23 -1304.49 2172.68 -1308.05 
	C 2164.56 -1313.1 2155.98 -1320.62 2147.15 -1324.13 
	C 2139.32 -1327.22 2131.54 -1330.35 2123.76 -1333.43 
	C 2107.15 -1339.98 2090.12 -1348.92 2072.71 -1352.84 
	C 2060.46 -1355.57 2048.22 -1358.37 2036.03 -1361.12 
	C 2029.67 -1362.57 2023.12 -1364.72 2016.58 -1365.06 
	C 2004.52 -1365.75 1992.47 -1366.41 1980.42 -1367.03 
	C 1972.54 -1367.48 1965.9 -1368.09 1958.22 -1366.46 
	C 1937.29 -1362.07 1917.84 -1355.57 1897.53 -1348.83 
	C 1887.14 -1345.37 1876.94 -1341.9 1865.93 -1341.17 
	C 1820.95 -1338.2 1776.11 -1335.26 1731.13 -1332.27 
	C 1690.66 -1329.61 1650.23 -1326.93 1609.76 -1324.28 
	C 1606.87 -1324.09 1604.21 -1324.85 1601.32 -1325.49 
	C 1589.65 -1327.88 1578.02 -1330.3 1566.35 -1332.7 
	C 1548.22 -1336.47 1529.58 -1337.89 1513.68 -1347.24 
	C 1508.56 -1350.23 1503.48 -1353.22 1498.45 -1356.21 
	C 1514.35 -1354.62 1529.48 -1351.01 1545.04 -1347.43 
	C 1536.79 -1355.71 1528.49 -1364.01 1520.23 -1372.29 
	C 1513.59 -1378.98 1501.25 -1380.24 1492.38 -1383.06 
	C 1482.75 -1386.1 1473.97 -1394.38 1465.62 -1399.93 
	C 1457.84 -1405.13 1449.53 -1409.71 1441.52 -1414.52 
	L 1479.47 -1411.63 
	C 1464.67 -1417.06 1449.82 -1422.47 1434.97 -1427.66 
	C 1428.75 -1429.82 1421.59 -1431.27 1415.94 -1434.92 
	C 1408.4 -1439.79 1400.9 -1444.65 1393.4 -1449.51 
	C 1408.87 -1446.38 1424.48 -1443.61 1440.09 -1440.76 
	C 1431.31 -1448.61 1422.68 -1456.44 1413.9 -1464.29 
	C 1406.69 -1470.79 1395.4 -1473.02 1386.48 -1476.54 
	C 1376.84 -1480.24 1367.88 -1487.8 1359.19 -1493.33 
	C 1351.22 -1498.29 1343.11 -1503.01 1335.14 -1507.83 
	L 1374.42 -1504.88 
	C 1368.73 -1507.78 1363.65 -1509.89 1359.19 -1514.38 
	C 1353.5 -1519.97 1347.95 -1525.55 1342.35 -1531.12 
	L 1375.94 -1525.31 
	C 1367.59 -1534.16 1359.19 -1542.98 1350.84 -1551.83 
	C 1345.72 -1557.29 1340.69 -1562.67 1335.61 -1568.06 
	C 1332.43 -1571.48 1329.63 -1575.39 1325.51 -1577.55 
	C 1301.78 -1590.03 1277.73 -1601.44 1253.48 -1612.8 
	C 1263.87 -1610.53 1274.26 -1608.27 1284.65 -1606.02 
	C 1292.2 -1604.38 1303.06 -1610.48 1310.27 -1612.8 
	C 1300.26 -1615.84 1290.16 -1618.92 1280.05 -1621.98 
	C 1271.65 -1624.55 1264.44 -1632.07 1257.42 -1637.21 
	C 1250.49 -1642.27 1243.14 -1646.75 1235.93 -1651.43 
	C 1229.38 -1655.74 1222.74 -1661.08 1215.62 -1664.47 
	C 1198.96 -1672.3 1182.4 -1681.13 1165.32 -1687.96 
	C 1154.27 -1692.4 1143.12 -1696.88 1132.02 -1701.29 
	C 1124.61 -1704.23 1118.07 -1707.32 1110.24 -1708.39 
	C 1105.44 -1709 1100.75 -1709.62 1095.91 -1710.31 
	C 1093.3 -1710.64 1091.87 -1713.87 1090.21 -1715.84 
	C 1084.95 -1722.53 1080.01 -1727.48 1073.37 -1733.04 
	C 1067.96 -1737.66 1063.74 -1741.36 1059.61 -1747.08 
	C 1054.68 -1753.84 1050.17 -1761 1044.86 -1767.46 
	C 1042.29 -1770.64 1034.94 -1783.35 1030.91 -1783.35 
	C 1028.11 -1783.35 1021.18 -1784.75 1018.76 -1783.35 
	C 1017.15 -1782.43 1013.3 -1775.02 1012.92 -1773.13 
	C 1012.31 -1770.07 1013.97 -1765.3 1014.35 -1762.21 
	C 1014.82 -1758.7 1014.82 -1754.55 1015.86 -1751.14 
	C 1018.28 -1743.43 1020.7 -1735.67 1023.12 -1727.98 
	C 1018.95 -1729.76 1014.82 -1731.59 1010.69 -1733.37 
	C 1007.42 -1734.81 1001.92 -1736.02 999.402 -1738.56 
	C 993.043 -1744.92 986.922 -1751.61 979.945 -1757.3 
	C 975.914 -1760.63 971.883 -1763.9 967.848 -1767.22 
	C 967.328 -1767.65 963.102 -1764.99 962.344 -1764.61 
	C 961.301 -1764.09 961.871 -1760.2 961.871 -1759.08 
	C 961.871 -1754.55 960.777 -1748.38 961.871 -1744.02 
	C 963.102 -1739.16 967.328 -1733.89 969.652 -1729.52 
	C 972.641 -1723.97 998.738 -1688.29 996.125 -1686.66 
	C 980.563 -1676.69 964.953 -1666.77 949.723 -1656.12 
	C 940.473 -1649.62 931.125 -1643.17 921.871 -1636.72 
	C 915.848 -1632.45 907.07 -1630.03 902.23 -1624.31 
	C 899.57 -1620.99 896.488 -1618.66 896.109 -1614.34 
	C 895.777 -1611.64 896.488 -1602.84 894.637 -1600.89 
	C 886.762 -1593.06 878.934 -1585.26 871.152 -1577.41 
	C 858.813 -1565.12 845.625 -1553.66 832.813 -1541.92 
	C 818.77 -1529.15 806.148 -1515.25 789.211 -1506.71 
	C 780.43 -1502.39 772.555 -1497.44 764.254 -1492.17 
	C 761.547 -1490.44 760.125 -1483.08 758.938 -1480.09 
	C 757.23 -1475.8 757.801 -1471.48 757.801 -1466.81 
	C 757.801 -1457.98 754.906 -1449.66 754.906 -1440.9 
	C 754.906 -1432.81 753.672 -1421.31 757.23 -1414.16 
	C 759.316 -1410.04 760.219 -1404.65 764.918 -1403.87 
	C 772.129 -1402.66 771.465 -1401.38 773.789 -1394.43 
	C 774.262 -1392.79 782.945 -1391.25 784.465 -1390.73 
	C 790.063 -1388.99 795.566 -1387.26 801.023 -1385.53 
	C 809.23 -1382.92 815.684 -1377.11 824.129 -1374.97 
	C 826.457 -1374.4 833.383 -1372.29 835.52 -1372.48 
	C 842.73 -1373.05 852.836 -1384.13 857.012 -1388.26 
	C 861.422 -1392.79 865.836 -1404.75 871.625 -1406.12 
	C 883.105 -1408.92 894.543 -1411.72 906.023 -1414.52 
	C 913.805 -1416.44 921.684 -1418.46 929.605 -1419.91 
	C 933.828 -1420.67 938.195 -1421.12 942.133 -1422.61 
	C 945.879 -1423.99 949.723 -1426.41 953.66 -1425.98 
	C 965.523 -1424.77 977.387 -1423.51 989.105 -1422.3 
	C 997.789 -1421.4 1006.23 -1423.84 1014.82 -1425.29 
	C 1023.6 -1426.74 1031.95 -1429.54 1040.44 -1431.93 
	C 1046.52 -1433.67 1046.99 -1436.8 1050.07 -1430.61 
	C 1051.4 -1427.85 1052.3 -1424.82 1053.25 -1421.88 
	C 1062.03 -1395.54 1070.86 -1369.3 1080.01 -1343.11 
	C 1082.91 -1334.52 1090.69 -1313.39 1093.68 -1304.87 
	C 1100.75 -1284.61 1107.86 -1264.37 1114.89 -1244.11 
	C 1121.15 -1226.25 1128.46 -1208.62 1135.2 -1190.95 
	C 1139.23 -1180.11 1143.4 -1169.29 1147.53 -1158.5 
	C 1150.14 -1151.71 1149.95 -1146.75 1149.95 -1139.28 
	C 1149.95 -1131.62 1150.33 -1124.55 1148.48 -1117.19 
	C 1145.68 -1105.92 1142.93 -1094.65 1140.04 -1083.39 
	C 1135.67 -1065.81 1136.95 -1046.45 1139.23 -1028.73 
	C 1139.94 -1023.67 1142.83 -1019.93 1145.3 -1015.44 
	C 1151.09 -1005.15 1156.88 -994.83 1162.76 -984.53 
	C 1174.01 -964.51 1185.3 -944.46 1196.54 -924.44 
	C 1203.28 -912.48 1183.83 -892.65 1177.47 -883.37 
	C 1169.22 -871.18 1160.91 -859.01 1152.65 -846.77 
	C 1137.9 -825.15 1123.14 -803.56 1108.43 -781.95 
	C 1100.84 -770.73 1093.3 -757.26 1083.67 -747.67 
	C 1076.36 -740.29 1068.86 -733.22 1061.13 -726.25 
	C 1054.49 -720.08 1050.17 -712.28 1045.05 -704.73 
	C 1043.34 -702.03 1043.24 -696.29 1042.58 -693.2 
	C 1041.49 -687.82 1040.35 -682.38 1039.21 -676.98 
	C 1037.74 -670.19 1036.31 -663.45 1034.84 -656.67 
	C 1027.06 -620.37 1020.32 -583.48 1008.37 -548.23 
	C 1001.16 -527.09 994.039 -506 986.781 -484.86 
	C 984.027 -476.44 984.219 -465.84 982.938 -457.08 
	C 981.703 -448.14 982.273 -438.98 982.273 -429.96 
	C 982.273 -422.61 983.316 -412.24 980.754 -405.55 
	C 977.195 -396.18 973.922 -387.36 968.797 -378.74 
	C 964.383 -371.37 963.387 -365.1 961.68 -356.59 
	C 959.168 -344.18 956.746 -331.75 954.23 -319.32 
	C 952.711 -311.82 952.332 -304.2 951.762 -296.54 
	C 951.668 -295.5 962.535 -291.54 963.957 -290.92 
	C 966.852 -289.62 973.59 -293.32 976.484 -294.19 
	C 992.758 -299.29 1010.31 -305.37 1023.69 -316.09 
	C 1028.77 -320.15 1033.8 -324.18 1038.92 -328.24 
	C 1041.3 -330.16 1045.05 -332.13 1046.71 -334.74 
	C 1049.7 -339.1 1052.59 -343.54 1055.58 -347.93 
	C 1057.38 -350.68 1061.13 -354.24 1060.94 -357.7 
	C 1060.18 -367.62 1059.33 -376.23 1056.81 -385.77 
	C 1055.39 -391.1 1053.92 -396.47 1052.59 -401.76 
	C 1051.69 -404.98 1045.57 -405.91 1044.95 -408.83 
	C 1044.1 -413.83 1043.15 -418.84 1042.29 -423.87 
	C 1041.58 -427.14 1046.32 -433.14 1047.75 -436.08 
	C 1049.51 -439.5 1053.44 -441.73 1055.2 -445.1 
	C 1057.48 -449.56 1058.05 -455.92 1059.42 -460.78 
	C 1064.02 -478.26 1065.4 -496.37 1065.4 -514.42 
	C 1065.4 -534.06 1069.24 -552.76 1072.52 -572.16 
	C 1073.75 -579.64 1078.4 -587.37 1081.29 -594.37 
	C 1084.66 -602.79 1087.42 -612.02 1091.69 -620.11 
	C 1100.94 -637.74 1110.24 -654.56 1121.06 -671.26 
	C 1130.21 -685.37 1146.49 -696.19 1159.58 -706.46 
	C 1174.2 -717.92 1188.67 -730.42 1203.85 -741.03 
	C 1218.42 -751.09 1234.41 -759.46 1249.78 -768.1 
	C 1259.51 -773.48 1271.37 -778.11 1280.05 -784.99 
	C 1290.35 -793.27 1300.74 -801.5 1311.13 -809.73 
	C 1321.85 -818.25 1332.62 -826.79 1343.3 -835.36 
	C 1347.33 -838.53 1351.6 -841.43 1355.73 -844.42 
	C 1361.33 -848.5 1360.47 -852.15 1361.33 -859.1 
	C 1365.65 -857.66 1369.87 -856.25 1374.23 -854.81 
	C 1375.18 -854.48 1375.85 -849.9 1376.13 -849.02 
	C 1379.5 -837.51 1382.97 -826.05 1386.38 -814.55 
	C 1391.17 -798.27 1396.87 -782.28 1399.38 -765.49 
	C 1402.23 -746.7 1405.22 -727.93 1408.02 -709.1 
	C 1409.77 -697.02 1411.57 -684.88 1413.33 -672.8 
	C 1414.47 -665.47 1414.94 -657.52 1417.27 -650.55 
	C 1420.35 -641.25 1420.26 -630.43 1421.4 -620.7 
	C 1422.39 -612.95 1423.25 -605.19 1424.1 -597.38 
	C 1426.05 -579.92 1426.33 -558.24 1436.34 -543.22 
	C 1442.13 -534.56 1446.45 -529.41 1454.42 -522.75 
	C 1460.49 -517.7 1466.57 -512.64 1472.64 -507.63 
	C 1489.29 -493.78 1505.95 -479.9 1522.51 -466.05 
	C 1536.88 -454.14 1548.84 -437.96 1561.51 -424.34 
	C 1573.56 -411.44 1585.61 -398.67 1598.14 -386.19 
	C 1622.57 -361.73 1658.68 -342.59 1692.32 -334.29 
	C 1702.24 -331.84 1713.1 -331.51 1723.21 -330.16 
	C 1732.18 -328.95 1740.48 -328.47 1749.59 -328.47 
	C 1771.84 -328.47 1752.77 -362.38 1748.54 -372.24 
	C 1745.56 -379.22 1743.33 -387.83 1738.25 -393.57 
	C 1730.85 -401.9 1723.3 -410.23 1715.9 -418.55 
	C 1713.58 -421.11 1709.64 -422.99 1706.84 -424.91 
	C 1703.66 -427.14 1699.63 -431.32 1695.69 -432.2 
	C 1692.89 -432.81 1685.58 -435.94 1682.97 -434.54 
	C 1678.04 -431.86 1673.06 -429.16 1668.12 -426.45 
	C 1664.75 -424.63 1661.86 -421.45 1658.97 -419 
	C 1657.92 -418.08 1648.1 -418.13 1646.96 -419 
	C 1645.02 -420.28 1637.23 -424.25 1636.95 -426.31 
	C 1635.95 -431.86 1635 -437.34 1634.15 -442.87 
	C 1631.26 -460.12 1613.84 -471.67 1600.13 -480.64 
	C 1582.72 -492 1566.16 -503.6 1549.5 -516.06 
	C 1535.93 -526.28 1520.8 -536.34 1512.68 -551.45 
	C 1504.14 -567.73 1496.6 -585.07 1497.03 -604.05 
	C 1497.41 -625.28 1497.69 -646.56 1498.07 -667.84 
	C 1498.74 -701.2 1505 -734.2 1507.42 -767.5 
	C 1508.27 -781 1509.22 -794.43 1510.22 -807.91 
	C 1510.5 -812.53 1509.41 -825.15 1512.97 -827.03 
	C 1514.73 -827.93 1519.56 -827.03 1521.46 -827.03 
	C 1528.2 -827.03 1534.94 -827.03 1541.68 -827.03 
	C 1549.79 -827.03 1559.14 -825.77 1567.2 -827.08 
	C 1584.85 -829.92 1604.12 -830.82 1621.15 -835.83 
	C 1640.7 -841.57 1660.15 -847.29 1679.6 -852.98 
	C 1717.13 -864.01 1754.62 -875.02 1792.15 -886.1 
	C 1806.43 -890.35 1820.48 -894.57 1834.57 -899.55 
	C 1852.74 -905.98 1872.19 -911.2 1889.84 -919.19 
	C 1911 -928.83 1932.12 -938.39 1953.28 -948.02 
	C 1953.66 -927.14 1954.14 -906.29 1954.61 -885.39 
	C 1954.94 -867.43 1961.06 -849.11 1964.76 -831.61 
	C 1971.79 -798.27 1987.49 -768.19 2000.58 -736.88 
	C 2008.46 -717.92 2016.86 -699.28 2023.03 -679.63 
	C 2023.88 -676.74 2026.49 -672.16 2026.07 -669.1 
	C 2025.5 -663.26 2024.83 -657.43 2024.26 -651.61 
	C 2023.41 -643.52 2022.22 -636.15 2017.15 -629.41 
	C 1994.04 -598.59 1970.5 -568.2 1945.02 -539.38 
	C 1920.16 -511.24 1890.22 -487.28 1861.99 -462.42 
	C 1855.16 -456.37 1849.75 -449.65 1843.96 -442.54 
	C 1839.17 -436.6 1840.5 -423.04 1839.65 -415.56 
	C 1838.7 -406.95 1840.5 -400.4 1836.66 -392.55 
	C 1832.15 -383.51 1827.4 -374.54 1822.71 -365.65 
	C 1813.55 -348.54 1810.37 -330.49 1805.96 -311.72 
	C 1804.11 -304.25 1800.17 -295 1800.17 -287.24 
	C 1800.17 -281.19 1798.6 -279.36 1804.39 -277.63 
	C 1808.52 -276.38 1812.88 -274 1817.01 -275.12 
	C 1834.76 -279.84 1851.32 -285.91 1866.5 -296.45 
	C 1876.51 -303.37 1886.57 -310.33 1896.58 -317.25 
	C 1898.29 -318.46 1902.04 -319.96 1902.32 -322.16 
	C 1902.94 -326.88 1903.42 -331.6 1904.46 -336.23 
	C 1905.41 -340.6 1907.07 -344.46 1905.79 -348.73 
	C 1904.74 -352.89 1904.27 -359.29 1901.66 -362.71 
	C 1897.62 -368.09 1885.76 -380.05 1889.13 -386.79 
	C 1891.46 -391.41 1896.3 -390.39 1901.18 -391.01 
	C 1905.22 -391.51 1909.77 -395.83 1913.14 -397.96 
	C 1918.6 -401.42 1923.06 -412.15 1926.52 -417.94 
	C 1937.39 -435.7 1949.44 -451.69 1962.15 -468.16 
	C 1973.87 -483.37 1988.63 -496.86 2001.82 -510.91 
	C 2011.26 -521.06 2022.93 -529.56 2033.42 -538.6 
	C 2053.25 -555.61 2073.08 -572.59 2092.92 -589.6 
	C 2104.5 -599.47 2115.93 -609.34 2127.41 -619.21 
	C 2134.34 -625.28 2140.6 -628.94 2141.36 -638.95 
	C 2141.55 -642.65 2138.56 -648.06 2140.22 -651.38 
	C 2142.22 -655.41 2139.8 -660.61 2138.94 -664.9 
	C 2135.95 -678.87 2131.83 -690.66 2126.51 -704 
	C 2124.24 -710.02 2121.81 -715.98 2119.49 -722 
	C 2117.4 -727.2 2117.59 -734.58 2116.78 -740.1 
	C 2114.79 -753.29 2113.61 -765.11 2113.61 -778.44 
	C 2113.61 -786.25 2113.61 -794.05 2113.61 -801.88 
	C 2113.61 -807.53 2116.59 -814.22 2117.97 -819.74 
	C 2131.64 -809.21 2144.92 -798.27 2159.39 -788.93 
	C 2174.48 -779.15 2190.19 -770.31 2203.66 -758.27 
	C 2233.6 -731.59 2263.4 -704.73 2293.43 -678.09 
	C 2299.41 -672.75 2305.48 -667.37 2311.41 -661.96 
	C 2318.58 -655.51 2327.78 -649.29 2333.85 -641.79 
	C 2346.57 -625.85 2357.77 -609.96 2368.83 -592.87 
	C 2379.12 -577.12 2386.95 -559.31 2395.68 -542.7 
	C 2404.74 -525.59 2413.04 -508.06 2421.68 -490.74 
	C 2437.86 -458.34 2451.15 -424.25 2463.67 -390.25 
	C 2466.09 -383.75 2472.45 -376.42 2478.14 -372.62 
	C 2481.51 -370.42 2486.02 -365.84 2489.96 -364.82 
	C 2495.46 -363.47 2500.97 -362.09 2506.42 -360.74 
	C 2525.68 -355.92 2533.99 -339.15 2543.72 -324.08 
	C 2546.04 -320.38 2550.36 -311.18 2554.2 -309.35 
	C 2559.23 -306.96 2564.12 -304.54 2569.15 -302.14 
	C 2587.13 -293.5 2605.06 -284.85 2623.05 -276.23 
	C 2624.8 -275.36 2631.73 -270.59 2633.25 -272.37 
	C 2634.53 -273.96 2639.89 -278.49 2639.89 -280.51 
	C 2639.89 -284.66 2639.89 -288.78 2639.89 -292.94 
	C 2639.89 -306.91 2636.43 -320.57 2634.06 -334.29 
	"/>
</g>
</g >
</g>
</svg>
