<?xml version="1.0" standalone="no"?>
<svg width="4749px" height="4749px" viewBox="-20 -3937 4749 4749 " xmlns="http://www.w3.org/2000/svg" xmlns:xlink="http://www.w3.org/1999/xlink">
<title>generated by pstoedit</title>
<!-- generated by pstoedit version:4.02 -->
<g xml:space='preserve'>
<clipPath id="clippath1"> 	<path d="
	M 0 -3917.08 
	L 0 792 
	L 4709.08 792 
	L 4709.08 -3917.08 
	Z 
	" style="clip-rule:nonzero"/>
</clipPath>
<g style="clip-path:url(#clippath1)"> 
<g fill="#95e8ff" fill-rule="nonzero" stroke-width="0" stroke-linejoin="miter" stroke-linecap="butt" stroke-miterlimit="10" >
	<path d="
	M 2507.27 728.488 
	C 2422.92 812.84 2286.16 812.84 2201.81 728.488 
	L 63.5156 -1409.8 
	C -20.8398 -1494.16 -20.8398 -1630.92 63.5156 -1715.27 
	L 2201.81 -3853.57 
	C 2286.16 -3937.92 2422.92 -3937.92 2507.27 -3853.57 
	L 4645.57 -1715.27 
	C 4729.92 -1630.92 4729.92 -1494.16 4645.57 -1409.8 
	Z 
	"/>
</g>
<g stroke="#7f7f7f" fill="none" stroke-width="0.5" stroke-linejoin="miter" stroke-linecap="butt" stroke-miterlimit="4" >
	<path d="
	M 2507.27 728.488 
	C 2422.92 812.84 2286.16 812.84 2201.81 728.488 
	L 63.5156 -1409.8 
	C -20.8398 -1494.16 -20.8398 -1630.92 63.5156 -1715.27 
	L 2201.81 -3853.57 
	C 2286.16 -3937.92 2422.92 -3937.92 2507.27 -3853.57 
	L 4645.57 -1715.27 
	C 4729.92 -1630.92 4729.92 -1494.16 4645.57 -1409.8 
	Z 
	"/>
</g>
<g fill="#7f7f7f" fill-rule="nonzero" stroke-width="0" stroke-linejoin="miter" stroke-linecap="butt" stroke-miterlimit="4" >
	<path d="
	M 101.699 -1447.99 
	C 38.5352 -1511.15 38.5352 -1613.93 101.699 -1677.09 
	L 2239.99 -3815.38 
	C 2303.15 -3878.55 2405.93 -3878.55 2469.09 -3815.38 
	L 4607.38 -1677.09 
	C 4670.55 -1613.93 4670.55 -1511.15 4607.38 -1447.99 
	L 2469.09 690.301 
	C 2405.93 753.469 2303.15 753.469 2239.99 690.301 
	Z 
	"/>
</g>
<g fill="#95e8ff" fill-rule="nonzero" stroke-width="0" stroke-linejoin="miter" stroke-linecap="butt" stroke-miterlimit="4" >
	<path d="
	M 165.34 -1511.63 
	C 137.266 -1539.7 137.266 -1585.38 165.34 -1613.45 
	L 2303.63 -3751.74 
	C 2331.7 -3779.81 2377.38 -3779.81 2405.45 -3751.74 
	L 4543.74 -1613.45 
	C 4571.82 -1585.38 4571.82 -1539.7 4543.74 -1511.63 
	L 2405.45 626.66 
	C 2377.38 654.738 2331.7 654.738 2303.63 626.66 
	Z 
	"/>
</g>
<g fill="#7f7f7f" fill-rule="nonzero" stroke-width="0" stroke-linejoin="miter" stroke-linecap="butt" stroke-miterlimit="4" >
	<path d="
	M 1067.13 -1408.94 
	C 1059.01 -1465.53 1036.69 -1491.8 998.121 -1491.8 
	C 931.145 -1491.8 906.793 -1439.25 906.793 -1289.7 
	C 906.793 -1123.97 935.203 -1057.27 1006.24 -1057.27 
	C 1054.95 -1057.27 1067.13 -1097.7 1067.13 -1140.14 
	L 1150.34 -1140.14 
	C 1148.31 -1045.15 1087.43 -976.43 1006.24 -976.43 
	C 882.438 -976.43 827.637 -1075.46 827.637 -1287.68 
	C 827.637 -1473.61 886.496 -1572.64 1000.15 -1572.64 
	C 1046.83 -1572.64 1087.43 -1552.44 1113.81 -1514.03 
	C 1136.13 -1485.74 1144.25 -1461.48 1150.34 -1408.94 
	Z 
	"/>
</g>
<g fill="#7f7f7f" fill-rule="nonzero" stroke-width="0" stroke-linejoin="miter" stroke-linecap="butt" stroke-miterlimit="4" >
	<path d="
	M 3865.21 -1057.27 
	C 3842.88 -1006.75 3796.2 -976.43 3737.34 -976.43 
	C 3668.34 -976.43 3617.6 -1010.79 3589.19 -1075.46 
	C 3570.92 -1117.91 3558.74 -1198.75 3558.74 -1273.53 
	C 3558.74 -1354.37 3564.83 -1412.98 3585.12 -1467.55 
	C 3605.42 -1528.18 3664.28 -1572.64 3731.26 -1572.64 
	C 3814.47 -1572.64 3877.38 -1512.01 3881.44 -1427.13 
	L 3798.23 -1427.13 
	C 3796.2 -1465.53 3769.82 -1491.8 3729.22 -1491.8 
	C 3700.81 -1491.8 3678.48 -1477.66 3664.28 -1449.36 
	C 3648.04 -1421.06 3637.9 -1356.39 3637.9 -1287.68 
	C 3637.9 -1239.17 3641.95 -1188.64 3650.07 -1144.18 
	C 3662.25 -1087.59 3690.66 -1057.27 3735.31 -1057.27 
	C 3777.94 -1057.27 3798.23 -1085.57 3798.23 -1146.2 
	L 3798.23 -1184.6 
	L 3733.29 -1184.6 
	L 3733.29 -1265.45 
	L 3881.44 -1265.45 
	L 3881.44 -1146.2 
	C 3881.44 -1105.78 3877.38 -1081.53 3865.21 -1057.27 
	Z 
	"/>
</g>
<g fill="#7f7f7f" fill-rule="nonzero" stroke-width="0" stroke-linejoin="miter" stroke-linecap="butt" stroke-miterlimit="4" >
	<path d="
	M 2913.47 -986.54 
	L 2913.47 -1562.54 
	L 2994.11 -1562.54 
	L 2994.11 -986.54 
	Z 
	"/>
</g>
<g fill="#7f7f7f" fill-rule="nonzero" stroke-width="0" stroke-linejoin="miter" stroke-linecap="butt" stroke-miterlimit="4" >
	<path d="
	M 3381.01 -986.54 
	L 3203.53 -1372.56 
	L 3203.53 -986.54 
	L 3120.83 -986.54 
	L 3120.83 -1562.54 
	L 3203.53 -1562.54 
	L 3360.84 -1216.94 
	L 3360.84 -1562.54 
	L 3443.54 -1562.54 
	L 3443.54 -986.54 
	Z 
	"/>
</g>
<g fill="#7f7f7f" fill-rule="nonzero" stroke-width="0" stroke-linejoin="miter" stroke-linecap="butt" stroke-miterlimit="4" >
	<path d="
	M 1916.91 -1419.04 
	C 1902.66 -1469.57 1880.26 -1491.8 1845.65 -1491.8 
	C 1809.01 -1491.8 1786.62 -1469.57 1772.37 -1421.06 
	C 1758.11 -1376.6 1754.04 -1338.2 1754.04 -1273.53 
	C 1754.04 -1210.87 1760.15 -1174.5 1772.37 -1128.01 
	C 1786.62 -1079.51 1809.01 -1057.28 1845.65 -1057.28 
	C 1880.26 -1057.28 1902.66 -1079.51 1916.91 -1128.01 
	C 1931.16 -1174.5 1935.23 -1208.85 1935.23 -1275.55 
	C 1935.23 -1340.22 1929.12 -1376.6 1916.91 -1419.04 
	Z 
	M 1982.06 -1075.46 
	C 1953.55 -1006.75 1910.8 -976.43 1845.65 -976.43 
	C 1776.44 -976.43 1735.72 -1006.75 1707.22 -1075.46 
	C 1682.79 -1132.05 1674.65 -1186.62 1674.65 -1275.55 
	C 1674.65 -1362.45 1682.79 -1421.06 1707.22 -1475.63 
	C 1737.76 -1544.35 1778.47 -1572.64 1845.65 -1572.64 
	C 1912.84 -1572.64 1953.55 -1544.35 1982.06 -1473.61 
	C 2006.49 -1417.02 2014.63 -1362.45 2014.63 -1275.55 
	C 2014.63 -1186.62 2006.49 -1130.03 1982.06 -1075.46 
	Z 
	"/>
</g>
<g fill="#7f7f7f" fill-rule="nonzero" stroke-width="0" stroke-linejoin="miter" stroke-linecap="butt" stroke-miterlimit="4" >
	<path d="
	M 1432.95 -1481.7 
	L 1348.23 -1481.7 
	L 1348.23 -1336.18 
	L 1432.95 -1336.18 
	C 1481.35 -1336.18 1507.57 -1362.45 1507.57 -1408.94 
	C 1507.57 -1453.4 1477.32 -1481.7 1432.95 -1481.7 
	Z 
	M 1503.54 -986.54 
	L 1426.89 -1257.36 
	L 1348.23 -1257.36 
	L 1348.23 -986.54 
	L 1265.54 -986.54 
	L 1265.54 -1562.54 
	L 1436.98 -1562.54 
	C 1527.74 -1562.54 1588.25 -1501.91 1588.25 -1408.94 
	C 1588.25 -1340.22 1560.01 -1289.7 1505.55 -1269.48 
	L 1588.25 -986.54 
	Z 
	"/>
</g>
<g fill="#7f7f7f" fill-rule="nonzero" stroke-width="0" stroke-linejoin="miter" stroke-linecap="butt" stroke-miterlimit="4" >
	<path d="
	M 2265.04 -1252.54 
	C 2240.12 -1268.69 2215.92 -1284.89 2200.48 -1295.76 
	C 2154.04 -1328.45 2129.44 -1372.56 2129.44 -1423.09 
	C 2129.44 -1505.95 2194.39 -1572.64 2277.6 -1572.64 
	C 2358.78 -1572.64 2421.7 -1509.99 2423.73 -1423.09 
	L 2344.58 -1423.09 
	C 2342.55 -1463.51 2314.13 -1489.78 2277.6 -1489.78 
	C 2239.04 -1489.78 2208.6 -1461.48 2208.6 -1423.09 
	C 2208.6 -1394.79 2220.77 -1378.62 2263.4 -1354.37 
	C 2375.02 -1289.7 2423.73 -1227.04 2423.73 -1144.18 
	C 2423.73 -1051.21 2352.7 -976.43 2263.4 -976.43 
	C 2161.92 -976.43 2101.03 -1061.32 2101.03 -1156.31 
	L 2182.21 -1156.31 
	C 2182.21 -1107.8 2206.56 -1057.27 2263.4 -1057.27 
	C 2308.04 -1057.27 2344.58 -1097.7 2344.58 -1144.18 
	C 2344.58 -1180.27 2329.66 -1210.67 2265.04 -1252.54 
	Z 
	"/>
</g>
<g fill="#7f7f7f" fill-rule="nonzero" stroke-width="0" stroke-linejoin="miter" stroke-linecap="butt" stroke-miterlimit="4" >
	<path d="
	M 2656.86 -1252.54 
	C 2631.94 -1268.69 2607.75 -1284.89 2592.3 -1295.76 
	C 2545.86 -1328.45 2521.26 -1372.56 2521.26 -1423.09 
	C 2521.26 -1505.95 2586.21 -1572.64 2669.42 -1572.64 
	C 2750.61 -1572.64 2813.52 -1509.99 2815.56 -1423.09 
	L 2736.4 -1423.09 
	C 2734.37 -1463.51 2705.96 -1489.78 2669.42 -1489.78 
	C 2630.86 -1489.78 2600.42 -1461.48 2600.42 -1423.09 
	C 2600.42 -1394.79 2612.6 -1378.62 2655.22 -1354.37 
	C 2766.84 -1289.7 2815.56 -1227.04 2815.56 -1144.18 
	C 2815.56 -1051.21 2744.52 -976.43 2655.22 -976.43 
	C 2553.74 -976.43 2492.85 -1061.32 2492.85 -1156.31 
	L 2574.03 -1156.31 
	C 2574.03 -1107.8 2598.39 -1057.27 2655.22 -1057.27 
	C 2699.87 -1057.27 2736.4 -1097.7 2736.4 -1144.18 
	C 2736.4 -1180.27 2721.49 -1210.67 2656.86 -1252.54 
	Z 
	"/>
</g>
<g fill="#7f7f7f" fill-rule="nonzero" stroke-width="0" stroke-linejoin="miter" stroke-linecap="butt" stroke-miterlimit="4" >
	<path d="
	M 2508.1 -2398.75 
	L 2467.58 -2233.02 
	L 2550.66 -2233.02 
	Z 
	M 2611.44 -1994.54 
	L 2570.92 -2152.18 
	L 2447.32 -2152.18 
	L 2408.82 -1994.54 
	L 2325.74 -1994.54 
	L 2469.6 -2570.54 
	L 2550.66 -2570.54 
	L 2694.52 -1994.54 
	Z 
	"/>
</g>
<g fill="#7f7f7f" fill-rule="nonzero" stroke-width="0" stroke-linejoin="miter" stroke-linecap="butt" stroke-miterlimit="4" >
	<path d="
	M 2775.16 -1994.54 
	L 2775.16 -2570.54 
	L 2855.8 -2570.54 
	L 2855.8 -1994.54 
	Z 
	"/>
</g>
<g fill="#7f7f7f" fill-rule="nonzero" stroke-width="0" stroke-linejoin="miter" stroke-linecap="butt" stroke-miterlimit="4" >
	<path d="
	M 2982.52 -1994.54 
	L 2982.52 -2570.54 
	L 3065.63 -2570.54 
	L 3065.63 -2071.34 
	L 3276.43 -2071.34 
	L 3276.43 -1994.54 
	Z 
	"/>
</g>
<g fill="#7f7f7f" fill-rule="nonzero" stroke-width="0" stroke-linejoin="miter" stroke-linecap="butt" stroke-miterlimit="4" >
	<path d="
	M 2118.6 -2489.7 
	L 2033.89 -2489.7 
	L 2033.89 -2344.18 
	L 2118.6 -2344.18 
	C 2167.01 -2344.18 2193.22 -2370.45 2193.22 -2416.94 
	C 2193.22 -2461.4 2162.97 -2489.7 2118.6 -2489.7 
	Z 
	M 2189.19 -1994.54 
	L 2112.55 -2265.36 
	L 2033.89 -2265.36 
	L 2033.89 -1994.54 
	L 1951.2 -1994.54 
	L 1951.2 -2570.54 
	L 2122.63 -2570.54 
	C 2213.39 -2570.54 2273.9 -2509.91 2273.9 -2416.94 
	C 2273.9 -2348.22 2245.66 -2297.7 2191.2 -2277.49 
	L 2273.9 -1994.54 
	Z 
	"/>
</g>
<g fill="#7f7f7f" fill-rule="nonzero" stroke-width="0" stroke-linejoin="miter" stroke-linecap="butt" stroke-miterlimit="4" >
	<path d="
	M 1765.15 -2493.74 
	L 1765.15 -1994.54 
	L 1682.05 -1994.54 
	L 1682.05 -2493.74 
	L 1576.65 -2493.74 
	L 1576.65 -2570.54 
	L 1870.56 -2570.54 
	L 1870.56 -2493.74 
	Z 
	"/>
</g>
</g >
</g>
</svg>
