<?xml version="1.0" encoding="UTF-8" standalone="no"?>
<!-- Created with Inkscape (http://www.inkscape.org/) -->

<svg
   version="1.1"
   id="svg1"
   width="3924.48"
   height="3924.48"
   viewBox="0 0 3924.48 3924.48"
   sodipodi:docname="tmpfe5fx3e4.pdf"
   xmlns:inkscape="http://www.inkscape.org/namespaces/inkscape"
   xmlns:sodipodi="http://sodipodi.sourceforge.net/DTD/sodipodi-0.dtd"
   xmlns="http://www.w3.org/2000/svg"
   xmlns:svg="http://www.w3.org/2000/svg">
  <defs
     id="defs1" />
  <sodipodi:namedview
     id="namedview1"
     pagecolor="#ffffff"
     bordercolor="#000000"
     borderopacity="0.25"
     inkscape:showpageshadow="2"
     inkscape:pageopacity="0.0"
     inkscape:pagecheckerboard="0"
     inkscape:deskcolor="#d1d1d1">
    <inkscape:page
       x="0"
       y="0"
       inkscape:label="1"
       id="page1"
       width="3924.48"
       height="3924.48"
       margin="0"
       bleed="0" />
  </sodipodi:namedview>
  <g
     id="g1"
     inkscape:groupmode="layer"
     inkscape:label="1">
    <g
       id="group-R5">
      <path
         id="path2"
         d="m 15671.4,397.902 c -527.2,-527.199 -1382,-527.199 -1909.2,0 L 397.898,13762.2 c -527.207,527.2 -527.207,1382 0,1909.2 L 13762.2,29035.7 c 527.2,527.2 1382,527.2 1909.2,0 L 29035.7,15671.4 c 527.2,-527.2 527.2,-1382 0,-1909.2 L 15671.4,397.902"
         style="fill:#fccc2d;fill-opacity:1;fill-rule:nonzero;stroke:#231f20;stroke-width:5;stroke-linecap:butt;stroke-linejoin:miter;stroke-miterlimit:4;stroke-dasharray:none;stroke-opacity:1"
         transform="matrix(0.13333333,0,0,-0.13333333,0,3924.48)" />
      <path
         id="path3"
         d="M 28399.3,14398.6 15035,1034.3 c -175.4,-175.499 -460.9,-175.499 -636.4,0 L 1034.3,14398.6 c -175.456,175.4 -175.452,460.9 0,636.4 l 13364.3,13364.3 c 175.5,175.5 461,175.5 636.4,0 L 28399.3,15035 c 175.5,-175.5 175.5,-461 0,-636.4 z m 381.9,1018.2 -13364.4,13364.3 c -386,386 -1014,386 -1400,0 L 652.461,15416.8 c -385.996,-386 -386,-1014 0,-1400.1 L 14016.8,652.402 c 386,-386 1014,-386 1400,0 L 28781.2,14016.7 c 386,386.1 386,1014.1 0,1400.1"
         style="fill:#231f20;fill-opacity:1;fill-rule:nonzero;stroke:none"
         transform="matrix(0.13333333,0,0,-0.13333333,0,3924.48)" />
      <path
         id="path4"
         d="m 22458.1,10016 c -24.1,68.6 -44.3,140.6 -73.1,208 -28.9,66.3 -47.5,143.5 -98.9,195 -33.6,33.4 -66.4,66.6 -100,100 -21.8,21.9 -77.1,19.9 -106,25.1 -57.7,10.9 -155.8,-14.4 -202.4,-49.2 -35.2,-26.1 -61.7,-37 -102.8,-50.6 -19.8,-6.8 -77.5,22.5 -85.8,42.1 -15,35 -36,63 -26.5,99.6 9.1,32 35.6,83.8 28.8,116.6 -7.1,42.2 -15,83.9 -22.1,125.6 -6.7,32.6 -53.8,77.1 -72.3,104.4 -45.9,65 -108.4,120.4 -162.2,178.1 -85.8,91.9 -161.3,214.3 -215.1,328.4 -64.8,137.2 -141.1,273.2 -193.3,415.5 -66,179.5 -131.7,358.8 -197.7,538.2 -49.4,133.6 -75.9,278.1 -112.3,415.7 -39.1,149.7 -78.7,293.6 -100.8,446.6 -9.9,70.6 -10.7,159 -76.3,202.7 -67.6,45.2 -159.8,67.4 -235.3,97.4 -137.2,55 -275.2,116.1 -396.6,200.3 -138.8,95.9 -213.9,223.4 -300.9,365.2 -71.9,118.8 -39.9,316.5 -39.9,447.7 0,58.6 17.4,121.6 25.7,179.7 15.8,107.6 32,215.5 47.5,323.1 39.9,275.2 54.5,557.3 66.4,835.1 11.8,294.3 43.5,593.8 -9.5,885 -25.7,143 -79.5,271.7 -130.1,408.1 -17,45.9 -28.9,102 -56.9,142.5 -45.9,64.7 -91.8,129.1 -137.2,194.2 81,-23.4 161.3,-46.1 242.3,-69.4 70.4,-20 140.4,-70.2 205.2,-104.4 69.2,-36.4 93.4,-73.7 141.2,-138 38.8,-51 92.5,-102.2 111.9,-164.1 47,-151.2 109.1,-298.9 119.4,-457.1 6.3,-89.7 11.9,-179.3 18.6,-269.2 3.9,-59.3 -18.6,-130.3 -27.3,-189 -19.4,-134.1 -49.8,-271.7 -57.7,-406.9 -8.3,-141.5 7.1,-288.4 10.3,-430.2 3.1,-124.7 13.4,-249.1 21.7,-373.4 7.9,-114.9 40.7,-226.4 64.8,-338.3 l 73.2,254.8 c 19.4,-84.4 38.4,-168.6 57.7,-253.2 15.1,-63.9 37.6,-95.5 75.5,-150.5 57,-82.6 113.9,-165.2 170.9,-247.9 38.3,-55.9 54.5,-132 78.6,-195.1 24.2,-65.8 42.7,-116.2 49.9,-185 9.4,-89 18.9,-178.2 28.8,-267.1 8.7,-81.5 24.2,-162.9 36,-244 3.2,-24.5 1.6,-61.9 12.3,-84.8 11.1,-24.3 40.7,-48.8 57.7,-69.4 61.7,-74.1 123.4,-148.5 185.4,-222.2 -39.5,101 -79.4,202.2 -119,302.9 -31.2,79.8 -29.6,171.4 -39.1,255.6 l 158.1,-182.1 c -24.1,75.7 -47.4,151.6 -71.5,227 -19.4,61.8 -9.5,145.3 -13.9,210.3 38.8,-53 94.1,-103.2 102,-169.4 10.7,-85 21,-170.4 32.1,-255.4 l 73.1,267 c 24.1,-164 45.9,-327.7 65.3,-493 7.9,-73.9 -9.1,-115.7 -32.5,-188.2 -27.2,-84.6 -54.5,-169.4 -81.8,-254.1 l 243.1,291.5 -72.7,-267.3 134,121.6 36,-230.8 158.2,388.9 c -12.3,-123.9 -24.1,-247.7 -36.4,-371.3 -3.9,-44.8 -35.2,-95.8 -51.4,-137.2 -22.9,-61.2 -47.1,-122.7 -70.4,-184 l 182.3,230.7 c -13.1,-77.9 -18.6,-161.3 -41.9,-236.4 -30.5,-95.6 -60.9,-191 -91.3,-286.1 70.3,98.2 141.1,196.5 211.9,295.3 22.9,32.1 28.1,84.3 39.1,121.2 17.8,59.7 34.4,119.2 52.2,178.9 l 11.9,-206.6 109.1,279.2 v -230.7 c 48.3,73.1 95.7,146.1 143.1,219 34.4,53.4 22.2,136.6 26.5,198.3 4,63.1 26.5,150.1 10.3,211.9 -24.1,93.9 -48.2,187.5 -72.4,281.4 -39.9,153.6 -119.3,293.2 -187.8,436.5 -61.6,131.3 -130.4,258.8 -197.2,387.5 -85.9,165.1 -137.3,334.7 -183.9,512.8 l 182.3,-85 c -45.1,75.1 -89.8,150 -134.9,225.2 -32.8,54.1 -30.4,138 -39.9,199.3 -25.7,158.9 -37.2,309.3 -44.3,470.3 -16.2,339.4 -58.5,675.7 -95.7,1013.6 -14.2,130.8 -48.6,249.3 -83.4,376.8 -21.4,76.7 -42.3,152.8 -63.3,229.1 -17.8,63.1 -77.8,132.9 -110.7,189 -44.3,74.1 -87.4,148.5 -131.6,222.6 -9.5,16.6 -36.8,31.1 -51.4,42.9 -45.1,36.6 -89.8,73.2 -134.9,109.3 -127.7,103 -276.7,175.8 -418.7,257.6 -49.8,28.5 -97.3,45.7 -151.8,65.3 -76.3,27.3 -160.6,71.5 -240,85.6 -74.8,13.2 -163.7,0 -240,0 -64.9,0 -142,11.6 -206.8,-1.6 -73.2,-15.8 -155.8,-47.1 -230.6,-47.1 -71.1,0 -158.9,-14.4 -228.5,1.6 -91.7,21.4 -183.8,42.5 -276,63.9 -53.7,12.4 -114.2,26.1 -160.5,55.7 -67.6,42.1 -139.2,104.8 -212.7,134.1 -65.3,25.7 -130.1,51.8 -194.9,77.5 -138.4,54.5 -280.4,129.1 -425.5,161.7 -102,22.7 -204,46.1 -305.6,69 -53,12 -107.6,30 -162.1,32.8 -100.5,5.7 -200.9,11.3 -301.3,16.4 -65.7,3.8 -121,8.9 -185.1,-4.7 -174.4,-36.6 -336.5,-90.8 -505.7,-146.9 -86.6,-28.9 -171.6,-57.8 -263.3,-63.9 -374.9,-24.7 -748.5,-49.2 -1123.3,-74.1 -337.3,-22.2 -674.2,-44.5 -1011.4,-66.6 -24.2,-1.6 -46.3,4.7 -70.4,10.1 -97.3,19.9 -194.2,40.1 -291.4,60 -151.1,31.5 -306.5,43.3 -438.9,121.2 -42.7,24.9 -85,49.9 -126.9,74.8 132.4,-13.3 258.6,-43.3 388.2,-73.2 -68.8,69 -137.9,138.2 -206.8,207.2 -55.3,55.8 -158.1,66.2 -232,89.8 -80.3,25.3 -153.5,94.3 -223.1,140.5 -64.8,43.3 -134,81.5 -200.8,121.6 l 316.3,-24.1 c -123.4,45.3 -247.1,90.3 -370.9,133.6 -51.8,18 -111.5,30.1 -158.5,60.5 -62.9,40.5 -125.4,81.1 -187.8,121.6 128.9,-26.1 258.9,-49.2 389,-73 -73.1,65.5 -145.1,130.7 -218.2,196.2 -60.1,54.1 -154.2,72.7 -228.6,102 -80.2,30.8 -155,93.9 -227.3,140 -66.4,41.3 -134.1,80.6 -200.5,120.8 l 327.4,-24.6 c -47.4,24.2 -89.7,41.7 -126.9,79.1 -47.5,46.7 -93.7,93.1 -140.4,139.6 l 280,-48.4 c -69.6,73.7 -139.6,147.2 -209.2,221 -42.7,45.4 -84.6,90.3 -126.9,135.2 -26.5,28.5 -49.8,61.1 -84.3,79.1 -197.6,104 -398.1,199.1 -600.2,293.8 86.6,-19 173.2,-37.8 259.8,-56.6 62.9,-13.6 153.4,37.2 213.5,56.6 -83.4,25.3 -167.6,51 -251.8,76.5 -70,21.3 -130.1,84 -188.6,126.9 -57.8,42.1 -119.1,79.5 -179.2,118.4 -54.5,36 -109.9,80.5 -169.2,108.7 -138.8,65.3 -276.8,138.8 -419.1,195.8 -92.1,36.9 -185,74.3 -277.56,111.1 -61.68,24.5 -116.25,50.2 -181.49,59.1 -39.94,5.1 -79.09,10.3 -119.42,16 -21.74,2.8 -33.6,29.7 -47.44,46.1 -43.89,55.7 -85.01,97 -140.36,143.3 -45.07,38.5 -80.27,69.4 -114.67,117 -41.11,56.4 -78.68,116.1 -122.96,169.8 -21.36,26.5 -82.64,132.5 -116.25,132.5 -23.33,0 -81.05,11.7 -101.22,0 -13.45,-7.7 -45.48,-69.4 -48.63,-85.2 -5.15,-25.5 8.7,-65.2 11.85,-90.9 3.97,-29.3 3.97,-63.9 12.66,-92.4 20.16,-64.2 40.33,-128.9 60.5,-192.9 -34.8,14.8 -69.19,30 -103.6,44.9 -27.28,12 -73.14,22.1 -94.1,43.2 -52.99,53 -103.99,108.8 -162.12,156.2 -33.6,27.7 -67.21,55 -100.82,82.7 -4.34,3.5 -39.54,-18.6 -45.87,-21.8 -8.69,-4.3 -3.94,-36.8 -3.94,-46.1 0,-37.7 -9.1,-89.1 0,-125.5 10.27,-40.5 45.47,-84.4 64.83,-120.8 24.91,-46.2 242.38,-343.6 220.64,-357.2 -129.69,-83 -259.78,-165.7 -386.69,-254.4 -77.1,-54.2 -154.99,-108 -232.1,-161.8 -50.22,-35.6 -123.36,-55.7 -163.69,-103.4 -22.15,-27.6 -47.86,-47 -51.01,-83 -2.77,-22.5 3.15,-95.9 -12.27,-112.1 -65.62,-65.2 -130.87,-130.3 -195.71,-195.7 -102.81,-102.4 -212.71,-197.9 -319.48,-295.8 -117.03,-106.3 -222.21,-222.2 -363.36,-293.3 -73.16,-36 -138.79,-77.3 -207.98,-121.2 -22.55,-14.5 -34.4,-75.8 -44.29,-100.7 -14.23,-35.7 -9.49,-71.7 -9.49,-110.7 0,-73.5 -24.11,-142.9 -24.11,-215.9 0,-67.4 -10.28,-163.3 19.37,-222.8 17.4,-34.4 24.91,-79.2 64.06,-85.8 60.1,-10 54.56,-20.7 73.93,-78.7 3.95,-13.6 76.31,-26.4 88.97,-30.8 46.65,-14.4 92.52,-28.9 137.99,-43.3 68.39,-21.7 122.17,-70.2 192.55,-88 19.38,-4.7 77.1,-22.3 94.9,-20.7 60.1,4.7 144.31,97.1 179.11,131.4 36.77,37.8 73.54,137.4 121.78,148.9 95.68,23.3 190.98,46.7 286.67,70 64.84,16 130.47,32.8 196.5,44.9 35.2,6.3 71.57,10.1 104.39,22.5 31.23,11.5 63.27,31.6 96.08,28.1 98.85,-10.1 197.69,-20.6 295.36,-30.7 72.35,-7.5 142.73,12.9 214.31,25 73.14,12 142.73,35.3 213.5,55.3 50.61,14.4 54.56,40.5 80.27,-11.1 11.07,-22.9 18.58,-48.2 26.49,-72.7 73.14,-219.5 146.69,-438.1 223,-656.4 24.12,-71.5 88.96,-247.7 113.88,-318.6 58.9,-168.9 118.22,-337.5 176.73,-506.4 52.19,-148.8 113.09,-295.7 169.24,-443 33.57,-90.3 68.37,-180.5 102.77,-270.4 21.8,-56.6 20.2,-97.9 20.2,-160.2 0,-63.8 3.2,-122.8 -12.3,-184 -23.3,-93.9 -46.2,-187.9 -70.3,-281.7 -36.42,-146.5 -25.74,-307.9 -6.8,-455.5 6,-42.2 30.1,-73.4 50.7,-110.8 48.2,-85.8 96.4,-171.7 145.4,-257.6 93.8,-166.8 187.9,-333.9 281.6,-500.7 56.1,-99.7 -106,-265 -159,-342.3 -68.8,-101.6 -138,-203 -206.8,-305 -122.94,-180.1 -245.9,-360 -368.48,-540.1 -63.26,-93.5 -126.13,-205.8 -206.39,-285.7 -60.89,-61.5 -123.36,-120.4 -187.81,-178.5 -55.36,-51.4 -91.34,-116.4 -134.04,-179.3 -14.24,-22.5 -15.03,-70.4 -20.56,-96.1 -9.1,-44.9 -18.59,-90.1 -28.08,-135.2 -12.26,-56.6 -24.12,-112.7 -36.38,-169.2 -64.84,-302.5 -120.98,-609.9 -220.62,-903.7 -60.1,-176.1 -119.41,-351.9 -179.91,-528.1 -22.92,-70.1 -21.34,-158.5 -32.03,-231.5 -10.27,-74.5 -5.53,-150.8 -5.53,-226 0,-61.2 8.7,-147.6 -12.65,-203.4 -29.66,-78.1 -56.93,-151.6 -99.64,-223.4 -36.78,-61.5 -45.08,-113.6 -59.31,-184.6 -20.95,-103.4 -41.12,-207 -62.09,-310.6 -12.64,-62.5 -15.81,-125.9 -20.55,-189.8 -0.79,-8.7 89.76,-41.7 101.62,-46.9 24.11,-10.8 80.26,20 104.38,27.3 135.62,42.5 281.92,93.1 393.41,182.5 42.32,33.8 84.23,67.4 126.94,101.2 19.76,16 51,32.5 64.84,54.2 24.91,36.4 49.03,73.3 73.94,109.9 15.02,23 46.26,52.6 44.67,81.5 -6.32,82.6 -13.43,154.4 -34.39,233.8 -11.87,44.5 -24.12,89.2 -35.19,133.3 -7.52,26.9 -58.52,34.6 -63.67,58.9 -7.11,41.7 -15.02,83.4 -22.14,125.3 -5.93,27.3 33.61,77.3 45.48,101.9 14.63,28.4 47.44,47 62.07,75.1 18.99,37.2 23.73,90.1 35.2,130.7 38.35,145.7 49.81,296.5 49.81,447 0,163.7 32.03,319.4 59.31,481.2 10.28,62.3 49.02,126.7 73.14,185 28.09,70.2 51.02,147.1 86.59,214.5 77.11,146.9 154.61,287.1 244.76,426.2 76.31,117.7 211.9,207.8 321.1,293.4 121.7,95.5 242.3,199.7 368.9,288.1 121.3,83.8 254.6,153.6 382.7,225.6 81.1,44.8 179.9,83.4 252.3,140.7 85.8,69 172.4,137.6 258.9,206.2 89.4,71 179.2,142.2 268.1,213.5 33.6,26.5 69.2,50.6 103.6,75.5 46.7,34 39.6,64.5 46.7,122.4 36,-12 71.1,-23.7 107.5,-35.8 7.9,-2.7 13.5,-40.9 15.8,-48.2 28.1,-95.9 57,-191.4 85.4,-287.3 40,-135.6 87.4,-268.8 108.4,-408.8 23.7,-156.6 48.6,-313 71.9,-469.9 14.7,-100.7 29.7,-201.9 44.3,-302.5 9.5,-61.1 13.5,-127.3 32.8,-185.4 25.7,-77.5 24.9,-167.7 34.4,-248.7 8.4,-64.7 15.5,-129.3 22.6,-194.4 16.2,-145.5 18.6,-326.2 102,-451.3 48.2,-72.2 84.2,-115.1 150.6,-170.6 50.7,-42.1 101.3,-84.3 151.9,-126 138.8,-115.4 277.5,-231.1 415.5,-346.5 119.8,-99.3 219.5,-234.1 325,-347.6 100.5,-107.5 200.9,-213.9 305.3,-317.9 203.6,-203.8 504.5,-363.4 784.8,-432.6 82.7,-20.3 173.2,-23.1 257.4,-34.4 74.8,-10.1 144,-14 219.9,-14 185.4,0 26.5,282.5 -8.7,364.7 -24.9,58.2 -43.5,130 -85.8,177.8 -61.7,69.4 -124.6,138.8 -186.3,208.2 -19.3,21.3 -52.1,36.9 -75.5,52.9 -26.5,18.6 -60.1,53.4 -92.9,60.8 -23.3,5.1 -84.2,31.2 -106,19.5 -41.1,-22.3 -82.6,-44.9 -123.7,-67.4 -28.1,-15.2 -52.2,-41.7 -76.3,-62.1 -8.7,-7.7 -90.6,-7.3 -100.1,0 -16.2,10.7 -81,43.7 -83.4,60.9 -8.3,46.3 -16.2,91.9 -23.3,138 -24.1,143.8 -169.2,240 -283.5,314.8 -145.1,94.6 -283.1,191.3 -421.9,295.1 -113.1,85.2 -239.2,169 -306.8,295 -71.2,135.6 -134.1,280.1 -130.5,438.3 3.2,176.9 5.5,354.2 8.7,531.6 5.5,277.9 57.7,552.9 77.9,830.5 7.1,112.5 15,224.4 23.3,336.7 2.4,38.5 -6.7,143.7 23,159.3 14.6,7.5 54.9,0 70.7,0 56.2,0 112.3,0 168.5,0 67.6,0 145.5,-10.5 212.7,0.4 147.1,23.7 307.6,31.3 449.6,73 162.9,47.8 325,95.5 487.1,142.9 312.7,91.9 625.1,183.7 937.9,276 119,35.4 236,70.6 353.4,112.1 151.5,53.6 313.6,97.1 460.7,163.7 176.3,80.3 352.3,159.9 528.6,240.2 3.2,-174 7.1,-347.8 11.1,-521.9 2.7,-149.7 53.8,-302.3 84.6,-448.2 58.5,-277.8 189.4,-528.5 298.5,-789.4 65.6,-158 135.6,-313.4 187,-477 7.1,-24.2 28.9,-62.3 25.3,-87.8 -4.7,-48.7 -10.2,-97.3 -15,-145.7 -7.1,-67.5 -17,-128.9 -59.3,-185.1 -192.6,-256.8 -388.7,-510 -601,-750.3 -207.2,-234.4 -456.7,-434.1 -691.9,-641.3 -57,-50.4 -102,-106.4 -150.3,-165.7 -39.9,-49.4 -28.9,-162.5 -36,-224.7 -7.9,-71.8 7.1,-126.4 -24.9,-191.8 -37.5,-75.3 -77.1,-150.1 -116.2,-224.2 -76.3,-142.5 -102.8,-293 -139.6,-449.4 -15.4,-62.2 -48.2,-139.4 -48.2,-204 0,-50.4 -13.1,-65.6 35.2,-80 34.4,-10.5 70.7,-30.3 105.1,-21 147.9,39.3 285.9,89.9 412.4,177.7 83.5,57.7 167.3,115.7 250.7,173.4 14.2,10.1 45.5,22.5 47.8,40.9 5.2,39.4 9.2,78.7 17.8,117.3 8,36.3 21.8,68.5 11.1,104.2 -8.7,34.5 -12.6,87.9 -34.4,116.4 -33.6,44.9 -132.4,144.5 -104.4,200.7 19.4,38.5 59.7,30 100.5,35.1 33.6,4.2 71.5,40.2 99.6,57.9 45.5,28.9 82.6,118.3 111.5,166.5 90.5,148.1 191,281.3 296.9,418.6 97.7,126.7 220.7,239.2 330.6,356.2 78.7,84.6 175.9,155.4 263.3,230.7 165.3,141.8 330.6,283.3 495.9,425.1 96.4,82.2 191.7,164.5 287.4,246.7 57.7,50.6 109.9,81.1 116.2,164.5 1.6,30.8 -23.3,75.9 -9.4,103.6 16.6,33.6 -3.6,76.9 -10.7,112.7 -24.9,116.4 -59.3,214.7 -103.6,325.8 -19,50.2 -39.2,99.8 -58.5,150 -17.4,43.3 -15.8,104.8 -22.6,150.9 -16.6,109.9 -26.5,208.4 -26.5,319.4 0,65.1 0,130.1 0,195.4 0,47 24.9,102.8 36.4,148.8 113.9,-87.7 224.6,-178.9 345.2,-256.8 125.7,-81.4 256.6,-155.2 368.9,-255.4 249.5,-222.4 497.8,-446.2 748.1,-668.2 49.8,-44.5 100.4,-89.4 149.8,-134.5 59.7,-53.7 136.4,-105.5 187.1,-168 105.9,-132.9 199.2,-265.3 291.4,-407.7 85.8,-131.2 151,-279.7 223.8,-418.1 75.5,-142.5 144.7,-288.6 216.6,-432.9 134.9,-270.1 245.6,-554.2 350,-837.5 20.1,-54.2 73.1,-115.2 120.5,-146.9 28.1,-18.4 65.7,-56.5 98.5,-65 45.9,-11.3 91.7,-22.7 137.2,-34 160.5,-40.1 229.7,-179.9 310.8,-305.5 19.4,-30.8 55.3,-107.5 87.4,-122.7 41.9,-20 82.6,-40.2 124.5,-60.1 149.9,-72 299.3,-144.2 449.2,-215.9 14.6,-7.3 72.4,-47.1 85,-32.3 10.7,13.3 55.4,51.1 55.4,67.9 0,34.6 0,69 0,103.6 0,116.4 -28.9,230.3 -48.7,344.5"
         style="fill:#231f20;fill-opacity:1;fill-rule:evenodd;stroke:none"
         transform="matrix(0.13333333,0,0,-0.13333333,0,3924.48)" />
    </g>
  </g>
</svg>
