<?xml version="1.0" standalone="no"?>
<svg width="2968px" height="2968px" viewBox="-12 -2164 2968 2968 " xmlns="http://www.w3.org/2000/svg" xmlns:xlink="http://www.w3.org/1999/xlink">
<title>generated by pstoedit</title>
<!-- generated by pstoedit version:4.02 -->
<g xml:space='preserve'>
<clipPath id="clippath1"> 	<path d="
	M 0 -2151.36 
	L 0 792 
	L 2943.36 792 
	L 2943.36 -2151.36 
	Z 
	" style="clip-rule:nonzero"/>
</clipPath>
<g style="clip-path:url(#clippath1)"> 
<g fill="#95e8ff" fill-rule="nonzero" stroke-width="0" stroke-linejoin="miter" stroke-linecap="butt" stroke-miterlimit="10" >
	<path d="
	M 1567.14 752.211 
	C 1514.42 804.93 1428.94 804.93 1376.22 752.211 
	L 39.7891 -584.22 
	C -12.9297 -636.94 -12.9297 -722.42 39.7891 -775.14 
	L 1376.22 -2111.57 
	C 1428.94 -2164.29 1514.42 -2164.29 1567.14 -2111.57 
	L 2903.57 -775.14 
	C 2956.29 -722.42 2956.29 -636.94 2903.57 -584.22 
	Z 
	"/>
</g>
<g stroke="#7f7f7f" fill="none" stroke-width="0.5" stroke-linejoin="miter" stroke-linecap="butt" stroke-miterlimit="4" >
	<path d="
	M 1567.14 752.211 
	C 1514.42 804.93 1428.94 804.93 1376.22 752.211 
	L 39.7891 -584.22 
	C -12.9297 -636.94 -12.9297 -722.42 39.7891 -775.14 
	L 1376.22 -2111.57 
	C 1428.94 -2164.29 1514.42 -2164.29 1567.14 -2111.57 
	L 2903.57 -775.14 
	C 2956.29 -722.42 2956.29 -636.94 2903.57 -584.22 
	Z 
	"/>
</g>
<g fill="#7f7f7f" fill-rule="nonzero" stroke-width="0" stroke-linejoin="miter" stroke-linecap="butt" stroke-miterlimit="4" >
	<path d="
	M 2839.93 -647.86 
	L 1503.5 688.57 
	C 1485.96 706.121 1457.41 706.121 1439.86 688.57 
	L 103.43 -647.86 
	C 85.8828 -665.4 85.8867 -693.95 103.43 -711.5 
	L 1439.86 -2047.93 
	C 1457.41 -2065.48 1485.96 -2065.48 1503.5 -2047.93 
	L 2839.93 -711.5 
	C 2857.48 -693.95 2857.48 -665.4 2839.93 -647.86 
	Z 
	M 2878.12 -749.68 
	L 1541.68 -2086.11 
	C 1503.08 -2124.71 1440.28 -2124.71 1401.68 -2086.11 
	L 65.2461 -749.68 
	C 26.6484 -711.08 26.6445 -648.28 65.2461 -609.67 
	L 1401.68 726.762 
	C 1440.28 765.359 1503.08 765.359 1541.68 726.762 
	L 2878.12 -609.67 
	C 2916.72 -648.28 2916.72 -711.08 2878.12 -749.68 
	Z 
	"/>
</g>
<g fill="#7f7f7f" fill-rule="evenodd" stroke-width="0" stroke-linejoin="miter" stroke-linecap="butt" stroke-miterlimit="4" >
	<path d="
	M 1724.61 -1514.14 
	C 1715.96 -1479.62 1709.74 -1444.78 1702.3 -1410.02 
	C 1698.99 -1394.7 1698.26 -1379.21 1691.83 -1364.82 
	C 1683.95 -1347.16 1675.62 -1330.55 1666.25 -1313.57 
	C 1657.68 -1298.09 1646.2 -1284.83 1635.32 -1270.85 
	C 1631.48 -1265.96 1628.33 -1261.07 1623.84 -1256.78 
	C 1616.17 -1249.46 1608.48 -1242.15 1600.84 -1234.83 
	C 1587.91 -1222.5 1570.97 -1215.47 1555.33 -1206.94 
	C 1541.23 -1199.26 1524.94 -1203.02 1512.41 -1211.96 
	C 1508.04 -1215.11 1502.75 -1218.75 1499.71 -1223.31 
	C 1498.34 -1225.38 1495.23 -1228.45 1494.82 -1230.87 
	C 1494.42 -1233.26 1494.82 -1237.82 1492.36 -1238.11 
	C 1492.36 -1247.77 1492.36 -1257.47 1492.36 -1267.17 
	C 1492.36 -1275.29 1494.46 -1283.66 1495.63 -1291.75 
	C 1498.06 -1307.83 1501.17 -1323.8 1503.67 -1339.89 
	C 1504.4 -1344.78 1505.21 -1349.67 1505.94 -1354.56 
	C 1506.42 -1357.87 1511.72 -1360.02 1514.3 -1361.88 
	C 1517.25 -1363.98 1520.61 -1367.33 1523.96 -1368.66 
	C 1527.85 -1370.24 1532.9 -1371.38 1536.42 -1373.68 
	C 1552.22 -1384.19 1566.45 -1395.02 1581 -1407.27 
	C 1593.57 -1417.82 1606.95 -1427.56 1619.88 -1437.58 
	C 1633.26 -1448.01 1644.94 -1460.3 1657.15 -1472.06 
	C 1668.75 -1483.26 1679.83 -1495.02 1691.02 -1506.62 
	C 1701.7 -1517.7 1715.15 -1524 1728.37 -1531.68 
	Z 
	M 1454.68 -1303.35 
	C 1452.78 -1286.17 1450.84 -1269.03 1448.42 -1251.89 
	C 1447.12 -1243.2 1446.24 -1235.24 1443.28 -1227.03 
	C 1440.41 -1218.99 1437.22 -1212.56 1432.98 -1205.16 
	C 1424.89 -1191.02 1417.09 -1174.16 1405.37 -1162.52 
	C 1398.42 -1155.53 1391.43 -1148.54 1384.43 -1141.54 
	C 1382.25 -1139.32 1375.66 -1138.39 1372.71 -1137.3 
	C 1367.78 -1135.56 1367.05 -1135.11 1362.24 -1136.85 
	C 1357.43 -1138.55 1350.64 -1139.28 1347.73 -1143.69 
	C 1343.41 -1150.19 1339.08 -1156.7 1334.72 -1163.25 
	C 1332.13 -1167.09 1331.81 -1173.52 1330.71 -1177.88 
	C 1328.94 -1184.91 1327.16 -1191.87 1325.46 -1198.86 
	C 1322.71 -1209.86 1323.68 -1222.95 1322.87 -1234.23 
	C 1322.02 -1246.11 1323.88 -1257.75 1325.38 -1269.47 
	C 1317.33 -1256.94 1310.18 -1245.46 1307.03 -1230.67 
	C 1303.39 -1213.86 1299.83 -1198.01 1294.05 -1181.8 
	C 1293.08 -1179.18 1295.18 -1173.27 1295.55 -1170.57 
	C 1295.95 -1167.98 1296.19 -1165.31 1296.84 -1162.8 
	C 1299.35 -1153.14 1301.81 -1143.52 1304.32 -1133.9 
	C 1306.1 -1126.99 1309.25 -1120.52 1311.96 -1113.98 
	C 1314.83 -1107.02 1320.04 -1102.9 1325.38 -1097.57 
	L 1276.39 -1088.79 
	L 1278.89 -1126.43 
	C 1274.25 -1118.63 1269.64 -1110.82 1265.03 -1103.02 
	C 1262.36 -1098.53 1259.7 -1094.09 1257.07 -1089.64 
	C 1254.89 -1085.96 1254.6 -1086.17 1250.16 -1085.2 
	C 1234.31 -1081.68 1216.65 -1078.61 1200.68 -1081.92 
	C 1195.1 -1083.09 1189.48 -1084.27 1183.91 -1085.4 
	C 1179.02 -1086.41 1179.1 -1087.38 1176.47 -1091.95 
	C 1172.95 -1098.09 1170.16 -1107.63 1171.58 -1114.58 
	C 1173.16 -1122.63 1174.81 -1130.59 1176.87 -1138.55 
	C 1178.33 -1144.29 1179.82 -1149.99 1181.36 -1155.73 
	C 1181.97 -1158.07 1182.17 -1162.32 1183.7 -1164.3 
	C 1193.53 -1177.48 1202.86 -1191.34 1213.82 -1203.63 
	C 1225.3 -1216.48 1236.74 -1229.42 1248.34 -1242.15 
	C 1256.42 -1251.04 1264.51 -1259.93 1272.63 -1268.82 
	C 1277.84 -1274.57 1279.38 -1275.9 1286.74 -1278.25 
	C 1295.59 -1281.11 1304.93 -1285.32 1314.06 -1287.02 
	C 1323.44 -1288.75 1333.63 -1288.43 1343.16 -1289.12 
	C 1364.14 -1290.61 1385.16 -1295.99 1405.69 -1300.39 
	C 1409.94 -1301.28 1415.56 -1301.53 1419.52 -1303.35 
	C 1423.2 -1305.04 1426.75 -1308.76 1429.95 -1311.15 
	C 1439.89 -1318.59 1449.75 -1326.02 1459.7 -1333.46 
	Z 
	M 1243.77 -1016 
	C 1243.77 -1017.69 1242.76 -1023.8 1243.89 -1024.93 
	C 1246.76 -1027.76 1249.59 -1030.63 1252.46 -1033.46 
	C 1257.03 -1038.03 1263.94 -1038.31 1270.16 -1039.89 
	Z 
	M 1174.69 -1024.81 
	L 1170.93 -1033.58 
	L 1163.41 -1024.81 
	L 1159.61 -1036.09 
	L 1148.34 -1021.05 
	L 1145.83 -1036.09 
	L 1133.26 -1024.81 
	L 1139.56 -1044.86 
	C 1158.08 -1042.23 1176.43 -1039.52 1194.78 -1036.09 
	Z 
	M 1580.63 -194.98 
	C 1585.08 -203.91 1589.57 -212.88 1594.05 -221.78 
	L 1607.84 -233.05 
	C 1612.93 -217.89 1617.82 -202.621 1622.71 -187.34 
	C 1624.53 -181.68 1627 -175.488 1626.27 -169.512 
	C 1625.18 -160.578 1624.05 -151.68 1622.96 -142.75 
	C 1615.68 -145.898 1606.18 -148.172 1600.56 -153.828 
	C 1593.57 -160.82 1588.68 -168.379 1583.18 -176.66 
	C 1580.96 -179.941 1578.74 -183.211 1576.51 -186.609 
	C 1575.99 -187.379 1580.15 -194.051 1580.63 -194.98 
	Z 
	M 1943.09 -1399.95 
	C 1926.47 -1402.94 1910.26 -1406.05 1893.41 -1407.27 
	C 1886.13 -1407.79 1878.05 -1409.49 1870.73 -1408.44 
	C 1860.14 -1406.95 1849.55 -1405.45 1838.96 -1403.91 
	C 1823.8 -1401.77 1808.85 -1398.17 1793.65 -1395.99 
	C 1785.77 -1394.9 1775.62 -1395.14 1768.15 -1392.27 
	C 1759.5 -1389 1750.85 -1385.68 1742.24 -1382.41 
	C 1745.11 -1391.06 1747.98 -1399.67 1750.85 -1408.32 
	C 1753.59 -1416.52 1753.55 -1426.67 1754.77 -1435.24 
	C 1756.95 -1450.52 1760.87 -1465.71 1762.49 -1481.07 
	C 1763.66 -1491.63 1764.79 -1502.21 1765.92 -1512.8 
	C 1766.73 -1520.57 1763.09 -1530.23 1761.68 -1537.82 
	C 1761.07 -1541.06 1760.95 -1544.94 1759.78 -1548.01 
	C 1757.43 -1554.36 1754.24 -1553.06 1760.47 -1557.39 
	C 1767.7 -1562.48 1774.41 -1565.55 1782.62 -1569.07 
	C 1789.65 -1572.1 1796.68 -1575.13 1803.72 -1578.13 
	C 1785.4 -1580.75 1769.32 -1580.75 1751.01 -1578.13 
	C 1751.01 -1589.56 1745.67 -1600.44 1742.04 -1611.19 
	C 1738.84 -1620.89 1734.8 -1630.19 1730.92 -1639.61 
	C 1733.02 -1621.41 1733.43 -1604.07 1733.43 -1585.76 
	C 1733.43 -1580.63 1736.17 -1570.24 1730.8 -1568.5 
	C 1720.57 -1565.23 1710.34 -1561.92 1700.08 -1558.64 
	C 1692.84 -1556.3 1686.01 -1551.69 1679.22 -1548.21 
	C 1673.08 -1545.02 1666.69 -1542.19 1661.03 -1538.07 
	C 1646.2 -1527.32 1632.01 -1516.24 1615.76 -1507.79 
	C 1608.48 -1504.07 1601.29 -1500.32 1594.05 -1496.6 
	C 1586.98 -1529.58 1586.78 -1563.9 1584.31 -1597.53 
	C 1582.9 -1616.24 1579.91 -1634.11 1576.59 -1652.62 
	C 1575.18 -1660.74 1570.89 -1669.03 1568.14 -1676.75 
	C 1565.36 -1684.55 1562.89 -1692.23 1560.59 -1700.2 
	C 1558.2 -1708.52 1553.96 -1715.92 1550.12 -1723.68 
	C 1551.33 -1706.58 1552.5 -1689.52 1554.36 -1672.51 
	C 1556.26 -1654.44 1556.38 -1636.86 1556.38 -1618.63 
	C 1556.38 -1602.7 1552.83 -1585.93 1550.64 -1570.08 
	C 1548.06 -1551.57 1544.86 -1533.3 1541.47 -1514.95 
	C 1539.73 -1505.45 1535.49 -1495.99 1532.54 -1486.86 
	C 1529.67 -1477.96 1527.6 -1468.99 1525.46 -1459.93 
	C 1523.56 -1451.89 1522.31 -1445.14 1516.93 -1438.75 
	C 1509.54 -1430.02 1502.22 -1421.25 1494.86 -1412.52 
	C 1487.87 -1427.88 1480.35 -1442.84 1472.27 -1457.67 
	C 1472.91 -1450.2 1473.64 -1442.68 1474.45 -1435.24 
	C 1475.06 -1429.3 1475.7 -1423.31 1476.39 -1417.41 
	C 1476.67 -1414.58 1477.81 -1410.74 1477.08 -1407.99 
	C 1475.99 -1403.87 1475.38 -1398.74 1473.52 -1394.94 
	C 1471.7 -1391.34 1467.34 -1389.16 1463.94 -1386.65 
	C 1458.2 -1382.45 1451.57 -1376.02 1445.06 -1373.23 
	C 1427.68 -1365.8 1410.83 -1357.95 1393.89 -1349.51 
	C 1380.27 -1342.71 1364.14 -1336.25 1349.06 -1333.46 
	C 1340.54 -1331.84 1332.29 -1328.89 1323.8 -1331.04 
	C 1314.67 -1333.3 1305.57 -1335.8 1296.48 -1338.35 
	C 1291.99 -1339.61 1291.63 -1339.04 1290.58 -1343.52 
	C 1289.77 -1347.08 1287.06 -1353.02 1287.83 -1356.62 
	C 1289.48 -1364.3 1291.22 -1371.94 1292.35 -1379.7 
	C 1297.16 -1413.53 1304.16 -1448.25 1314.67 -1480.87 
	C 1318.14 -1491.75 1320.41 -1504.6 1325.7 -1514.75 
	C 1331.44 -1525.86 1337.18 -1536.93 1342.96 -1548.01 
	C 1329.02 -1537.14 1315.39 -1526.75 1302.9 -1514.26 
	C 1296.92 -1508.28 1292.56 -1499.1 1287.79 -1492.11 
	C 1283.91 -1486.37 1279.62 -1481.2 1277.48 -1474.57 
	C 1271.62 -1456.3 1266.2 -1438.31 1261.55 -1419.68 
	C 1257.71 -1404.2 1250.4 -1389.08 1247.53 -1373.52 
	C 1245.39 -1362.2 1243.89 -1350.6 1241.18 -1339.4 
	C 1239.61 -1332.93 1238.03 -1326.47 1236.49 -1320 
	C 1235.36 -1315.43 1235.04 -1307.23 1232.41 -1303.27 
	C 1218.87 -1283.02 1205.21 -1262.96 1191.02 -1243.12 
	L 1192.27 -1244.37 
	L 1191.02 -1243.12 
	L 1191.02 -1243.12 
	C 1183.5 -1235.6 1178.57 -1233.7 1168.1 -1236.29 
	C 1159.53 -1238.43 1153.75 -1245.5 1148.26 -1251.81 
	C 1137.99 -1263.49 1136.41 -1280.23 1137.22 -1295.02 
	C 1138.11 -1312.6 1136.78 -1331.32 1142.35 -1348.09 
	C 1148.5 -1366.61 1155.33 -1384.35 1162.85 -1402.34 
	C 1163.05 -1402.82 1163.21 -1403.27 1163.41 -1403.71 
	C 1152.22 -1392.59 1139.73 -1381.92 1130.03 -1369.43 
	C 1122.99 -1360.42 1116 -1351.37 1108.97 -1342.35 
	C 1104.56 -1336.73 1105.21 -1327.64 1104.28 -1320.77 
	C 1101.89 -1303.35 1102.18 -1287.06 1104.4 -1269.47 
	C 1105.61 -1259.73 1107.83 -1250.07 1109.57 -1240.41 
	C 1110.95 -1232.81 1109.77 -1226.06 1108.97 -1218.3 
	C 1108.32 -1212.32 1105.98 -1204.44 1107.03 -1198.41 
	C 1108.72 -1189 1110.38 -1179.58 1112.08 -1170.16 
	C 1114.5 -1156.66 1118.55 -1143.44 1121.98 -1130.18 
	C 1115.44 -1132.04 1107.31 -1132.81 1101.97 -1137.18 
	C 1093.24 -1144.41 1084.43 -1151.61 1075.66 -1158.8 
	C 1062.2 -1169.88 1050.72 -1183.3 1038.6 -1195.83 
	C 1033.7 -1200.88 1032.49 -1207.23 1030.11 -1213.86 
	C 1027.48 -1221.29 1024.65 -1228.65 1022.22 -1236.17 
	C 1018.91 -1246.39 1015.6 -1256.66 1012.32 -1266.85 
	C 1009.98 -1274.16 1010.5 -1282.65 1009.94 -1290.21 
	C 1009.49 -1296.72 1009.01 -1303.1 1009.01 -1309.61 
	C 1004.8 -1302.66 1004 -1296.76 1002.5 -1288.71 
	C 1001.12 -1281.11 999.227 -1273.52 998.699 -1265.8 
	C 998.055 -1257.18 997.852 -1249.39 998.5 -1240.82 
	C 999.023 -1233.18 1001.21 -1226.47 1003.31 -1219.03 
	C 1012 -1188.75 1024.41 -1159.69 1035.36 -1130.18 
	C 1026.35 -1138.55 1017.37 -1146.92 1008.36 -1155.29 
	C 1000.28 -1162.8 996.355 -1168.59 990.82 -1178.29 
	C 979.5 -1198.05 967.293 -1217.33 961.27 -1239.36 
	C 957.23 -1231.28 959.613 -1222.59 960.219 -1213.69 
	C 960.746 -1206.38 961.27 -1199.14 962.078 -1191.87 
	C 962.688 -1185.93 963.332 -1180.02 963.938 -1174.12 
	C 964.18 -1171.98 963.695 -1165.79 965.109 -1164.02 
	C 971.172 -1156.18 977.277 -1148.33 983.422 -1140.49 
	C 988.395 -1134.06 993.484 -1127.8 998.781 -1121.62 
	C 1004.08 -1115.39 1013.7 -1110.7 1020.28 -1105.93 
	C 1035.04 -1095.3 1049.91 -1084.87 1064.87 -1074.48 
	C 1077.44 -1065.71 1090.58 -1055.04 1087.67 -1037.5 
	C 1086.25 -1028.89 1084.19 -1020.36 1077.16 -1015.03 
	C 1070.24 -1009.85 1062.08 -1005.85 1054.72 -1001.4 
	C 1038.88 -991.82 1024.12 -981.56 1009.13 -970.73 
	C 1003.06 -966.32 998.863 -963.29 991.867 -960.94 
	C 983.016 -957.99 973.559 -955.65 964.988 -951.97 
	C 948.176 -944.82 932.004 -937.58 914.504 -932.57 
	C 907.105 -930.47 901.328 -923.27 894.738 -919.39 
	C 886.531 -914.58 877.238 -911.07 868.668 -906.98 
	C 863.129 -904.32 861.754 -892.11 859.816 -886.37 
	C 859.129 -884.23 861.23 -880.91 861.918 -878.89 
	C 864.098 -872.87 866.242 -866.84 868.426 -860.82 
	C 869.637 -857.39 870.891 -853.91 872.102 -850.48 
	C 873.355 -847 872.789 -842.03 874.77 -838.91 
	C 876.754 -835.72 878.57 -831.44 881.195 -828.81 
	C 885.523 -824.4 887.664 -823.55 893.605 -821.86 
	C 898.457 -820.48 907.672 -816.8 912.48 -817.77 
	C 919.395 -819.27 926.43 -821.53 933.543 -821.53 
	C 941.668 -821.53 948.336 -821.33 956.219 -819.67 
	C 962.441 -818.34 971.172 -817.81 976.754 -815.03 
	C 984.109 -811.35 991.465 -807.71 998.82 -804.03 
	C 1004.89 -800.96 1014.99 -801.2 1021.62 -800.07 
	C 1027.36 -799.06 1033.14 -798.66 1038.47 -796.35 
	C 1046.19 -793.04 1053.96 -789.72 1061.72 -786.41 
	L 1029.06 -745.02 
	L 1049.15 -753.79 
	L 1040.37 -742.51 
	L 1062.97 -748.78 
	L 1042.88 -719.88 
	L 1062.97 -727.44 
	L 1049.15 -704.84 
	L 1072.99 -716.12 
	L 1062.97 -704.84 
	L 1078.01 -707.35 
	L 1069.27 -696.07 
	L 1086.82 -698.57 
	L 1062.97 -667.21 
	L 1089.32 -675.98 
	L 1075.5 -658.4 
	L 1104.4 -667.21 
	L 1086.82 -640.85 
	L 1104.4 -647.12 
	L 1093.08 -629.58 
	L 1113.17 -640.85 
	L 1099.35 -614.46 
	L 1119.48 -617.01 
	L 1101.89 -594.45 
	L 1119.48 -603.22 
	L 1101.89 -576.87 
	L 1133.26 -588.15 
	L 1110.7 -568.1 
	L 1130.75 -570.6 
	L 1110.7 -550.52 
	L 1137.06 -561.79 
	L 1119.48 -541.74 
	L 1145.83 -550.52 
	L 1133.26 -530.43 
	L 1148.34 -539.24 
	L 1139.56 -521.65 
	L 1153.35 -532.93 
	L 1145.83 -504.11 
	C 1154.04 -509.08 1162.24 -514.06 1170.41 -519.07 
	C 1172.43 -520.24 1173.92 -522.26 1175.82 -520.81 
	C 1180.27 -517.41 1184.71 -514.06 1189.12 -510.7 
	C 1192.88 -507.83 1196.64 -504.96 1200.4 -502.05 
	C 1202.02 -500.84 1200.48 -496.03 1200.28 -494.25 
	C 1199.27 -485.03 1198.9 -475.5 1197.29 -466.36 
	C 1194.09 -448.61 1191.02 -431.76 1190.37 -413.77 
	C 1189.77 -396.07 1187.91 -378.73 1186.01 -361.14 
	C 1185.12 -352.61 1183.18 -345.3 1184.51 -336.85 
	C 1185.81 -328.4 1187.67 -320.36 1189.69 -311.99 
	C 1191.47 -304.52 1192.44 -296.03 1195.59 -288.99 
	C 1199.99 -279.13 1204.32 -269.27 1208.72 -259.41 
	C 1214.87 -245.62 1224.37 -233.38 1230.92 -219.75 
	C 1235.16 -210.86 1239.44 -201.93 1243.73 -192.988 
	C 1247.69 -184.711 1247.53 -179.371 1247.53 -170.16 
	C 1247.53 -152.129 1247.73 -134.871 1249.99 -116.969 
	C 1251.04 -108.359 1255.81 -99.059 1258.56 -90.852 
	C 1260.83 -84.02 1263.49 -78.16 1266.73 -71.691 
	C 1270.77 -63.648 1274.77 -55.609 1278.81 -47.602 
	C 1289.04 -3.789 1291.91 38.941 1293.73 83.891 
	C 1322.27 122.488 1309.53 193.512 1314.99 231.949 
	C 1346.07 287.73 1225.3 349.852 1345.55 342.82 
	C 1446.48 312.02 1348.74 300.051 1400.68 249.531 
	C 1399.47 242.898 1370.53 177.219 1363.45 90.84 
	C 1363.9 65.57 1365.07 34.371 1363.05 22.969 
	C 1360.18 6.96899 1360.63 -10.371 1359.49 -26.699 
	C 1358.12 -45.422 1355.17 -63.238 1351.89 -81.719 
	C 1348.7 -99.539 1349.23 -116.852 1349.23 -134.871 
	C 1349.23 -141.012 1347.41 -145.621 1345.43 -151.52 
	C 1353.07 -151.52 1361.51 -150.391 1369.03 -152.012 
	C 1377.16 -153.75 1385.24 -155.398 1393.45 -156.699 
	C 1399.15 -157.629 1404.85 -158.559 1410.54 -159.488 
	C 1415.68 -160.301 1415.48 -161.059 1417.17 -156.051 
	C 1420.08 -147.281 1420.29 -138.871 1421.01 -129.66 
	C 1421.62 -122.02 1422.31 -115.391 1424.21 -107.988 
	C 1426.43 -99.539 1429.66 -90.809 1430.88 -82.121 
	C 1432.37 -71.898 1433.83 -61.551 1435.32 -51.238 
	C 1436.29 -44.211 1439.65 -36.77 1439.65 -29.781 
	C 1439.65 -22.102 1435.97 -14.012 1435.4 -6.172 
	C 1434.72 3.64801 1435 14.16 1433.14 23.859 
	C 1432.49 27.5 1431.28 31.5 1430.31 35.621 
	C 1423.16 53.012 1420.97 70.391 1429.1 89.711 
	C 1457.59 133.48 1439.77 206.281 1446.68 253.078 
	C 1468.75 283.762 1422.91 335.738 1455.86 364.32 
	C 1479.66 364.32 1553.23 351.828 1545.06 315.98 
	C 1515.6 278.828 1519.76 284.41 1522.75 239.988 
	C 1512.32 193.391 1481.4 146.578 1494.78 95.93 
	C 1512 71.07 1514.67 53.25 1512.28 24.262 
	C 1512.37 23.699 1512.41 23.129 1512.45 22.57 
	C 1513.78 4.26202 1515.15 -13.328 1518.39 -31.359 
	C 1519.72 -39.031 1521.42 -45.781 1520.61 -53.5 
	C 1519.52 -63.121 1518.71 -72.871 1517.46 -82.531 
	C 1515.28 -99.711 1512.32 -116.879 1509.29 -133.941 
	C 1508.28 -139.801 1507.19 -145.66 1506.14 -151.52 
	C 1516.81 -139.359 1527.16 -127.031 1537.67 -114.738 
	C 1544.58 -106.699 1551.45 -98.691 1558.36 -90.648 
	C 1562.77 -85.52 1569.2 -83.941 1573.16 -78.16 
	C 1583.38 -63.078 1593.53 -48.09 1604.44 -33.539 
	C 1608 -28.77 1611.6 -24 1615.19 -19.191 
	C 1616.69 -17.211 1619.8 -14.422 1620.49 -11.949 
	C 1621.38 -8.87903 1623.6 -5.039 1622.31 -2.01202 
	C 1620.04 3.289 1617.78 8.578 1615.48 13.879 
	C 1609.78 27.211 1603.03 40.031 1596.56 53.012 
	C 1594.9 56.32 1593.33 60.32 1591.91 64.68 
	C 1585.61 76.449 1579.87 87.762 1576.31 98.352 
	C 1581.28 130.93 1525.02 153.129 1539.33 188.371 
	C 1549.23 193.43 1571.46 201.309 1591.31 202.84 
	C 1588.72 212.18 1588.92 221.52 1595.15 230.57 
	C 1615.23 235.871 1680.07 241.691 1681.12 209.59 
	C 1664.51 171.762 1666.81 177.379 1679.18 140.551 
	C 1679.91 120.949 1676.79 100.34 1675.71 79.879 
	C 1677.12 66.91 1679.02 53.172 1681.04 42.012 
	C 1684.23 24.059 1687.99 6.28101 1691.79 -11.512 
	C 1693.65 -20.078 1694.9 -28.77 1696.48 -37.34 
	C 1698.02 -45.859 1697.77 -50.27 1696.2 -58.879 
	C 1692.88 -77.551 1689.97 -96.23 1687.14 -114.98 
	C 1686.01 -122.898 1688.11 -132.121 1688.64 -140.039 
	C 1689.16 -147.441 1689.97 -154.27 1691.27 -161.551 
	C 1694.66 -180.672 1698.1 -199.789 1701.49 -218.86 
	C 1702.75 -225.98 1708.12 -232.49 1711.68 -238.63 
	C 1715.36 -245.14 1720.37 -251.77 1722.75 -258.88 
	C 1728.82 -277.07 1734.92 -293.88 1743.21 -311.06 
	C 1751.01 -327.19 1758.28 -343.52 1765.52 -359.89 
	C 1771.58 -373.47 1774.94 -388.63 1779.5 -402.78 
	C 1785.4 -421.25 1790.66 -439.4 1795.39 -458.23 
	C 1799.07 -472.95 1802.79 -488.55 1803.88 -503.67 
	C 1804.6 -514.02 1805.41 -524.32 1806.18 -534.67 
	C 1806.79 -543.04 1805.05 -552.17 1804.44 -560.54 
	C 1803.88 -568.26 1802.75 -573.67 1800.36 -581.07 
	C 1797.9 -588.71 1796.44 -599.1 1792.28 -605.97 
	C 1773.64 -636.65 1754.93 -666.81 1740.78 -699.83 
	C 1733.79 -716.08 1724.21 -729.37 1714.1 -743.89 
	C 1703.76 -758.76 1688.23 -765.27 1672.75 -773.27 
	C 1658.97 -780.42 1642.92 -781.68 1627.6 -783.94 
	C 1617.42 -785.48 1607.19 -786.97 1597 -788.47 
	C 1589.32 -789.64 1581.08 -787.98 1573.4 -787.42 
	C 1565.92 -786.89 1559.13 -786.45 1551.94 -784.67 
	C 1542.84 -782.37 1532.41 -781.15 1523.76 -777.64 
	C 1515.19 -774.12 1506.95 -768.02 1498.9 -763.45 
	C 1496.12 -761.83 1483.06 -752.62 1479.71 -753.79 
	C 1471.46 -756.7 1463.17 -760.38 1454.68 -762.56 
	C 1445.27 -764.99 1435.24 -766.04 1425.62 -767.77 
	C 1410.95 -770.36 1395.35 -765.87 1380.51 -764.82 
	C 1372.95 -764.26 1365.44 -763.73 1357.88 -763.17 
	C 1354.48 -762.92 1350.64 -761.83 1347.53 -763.41 
	C 1336.37 -768.99 1325.22 -774.57 1314.06 -780.1 
	L 1334.15 -777.64 
	L 1314.06 -788.91 
	L 1345.43 -786.41 
	C 1337.87 -790.69 1330.23 -794.94 1322.63 -799.18 
	C 1315.48 -803.18 1311.11 -806.9 1305.29 -812.72 
	C 1315.07 -812.72 1324.45 -814.06 1334.15 -815.27 
	L 1305.29 -824.04 
	L 1320.37 -824.04 
	L 1296.52 -839.12 
	L 1314.06 -839.12 
	L 1287.67 -855.41 
	L 1307.8 -852.9 
	L 1278.89 -876.75 
	L 1311.6 -872.99 
	L 1281.44 -891.78 
	L 1311.6 -888.02 
	L 1267.62 -918.14 
	L 1285.16 -914.38 
	L 1267.62 -929.46 
	L 1285.16 -929.46 
	L 1234.96 -957.06 
	C 1251.37 -964.06 1264.34 -977.72 1278.09 -989 
	C 1283.22 -993.2 1287.22 -999.46 1291.51 -1004.48 
	C 1298.58 -1012.84 1305.65 -1021.17 1312.77 -1029.54 
	C 1317.17 -1034.71 1324.73 -1037.9 1330.35 -1041.54 
	C 1336.74 -1045.67 1343.32 -1051.12 1350.36 -1054.15 
	C 1367.01 -1061.27 1382.86 -1067.73 1398.05 -1077.48 
	C 1404.52 -1081.68 1414.51 -1085.72 1419.68 -1091.46 
	C 1426.19 -1098.7 1432.7 -1105.89 1439.2 -1113.09 
	C 1443.93 -1118.34 1449.02 -1126.43 1454.92 -1130.35 
	C 1463.62 -1136.13 1472.27 -1141.91 1480.92 -1147.69 
	C 1493.81 -1156.26 1509.49 -1157.99 1524.45 -1161.75 
	C 1541.99 -1166.12 1559.25 -1170.48 1576.47 -1175.98 
	C 1609.66 -1186.65 1638.64 -1204.52 1664.39 -1228.08 
	C 1676.59 -1239.28 1686.5 -1253.1 1698.46 -1264.63 
	C 1710.47 -1276.22 1722.15 -1288.31 1734.64 -1299.38 
	C 1747.29 -1310.74 1759.5 -1324.85 1774.57 -1332.93 
	C 1792.03 -1342.23 1808.77 -1350.6 1827.08 -1358 
	C 1858.12 -1370.64 1891.02 -1379.38 1923.97 -1385.24 
	C 1942.04 -1388.47 1959.98 -1390.45 1978.25 -1392.43 
	Z 
	"/>
</g>
</g >
</g>
</svg>
