<?xml version="1.0" encoding="UTF-8" standalone="no"?>
<!-- Created with Inkscape (http://www.inkscape.org/) -->

<svg
   version="1.1"
   id="svg1"
   width="4709.2534"
   height="4709.2402"
   viewBox="0 0 4709.2534 4709.2402"
   sodipodi:docname="tmpju1bufct.pdf"
   xmlns:inkscape="http://www.inkscape.org/namespaces/inkscape"
   xmlns:sodipodi="http://sodipodi.sourceforge.net/DTD/sodipodi-0.dtd"
   xmlns="http://www.w3.org/2000/svg"
   xmlns:svg="http://www.w3.org/2000/svg">
  <defs
     id="defs1" />
  <sodipodi:namedview
     id="namedview1"
     pagecolor="#ffffff"
     bordercolor="#000000"
     borderopacity="0.25"
     inkscape:showpageshadow="2"
     inkscape:pageopacity="0.0"
     inkscape:pagecheckerboard="0"
     inkscape:deskcolor="#d1d1d1">
    <inkscape:page
       x="0"
       y="0"
       inkscape:label="1"
       id="page1"
       width="4709.2534"
       height="4709.2402"
       margin="0"
       bleed="0" />
  </sodipodi:namedview>
  <g
     id="g1"
     inkscape:groupmode="layer"
     inkscape:label="1">
    <g
       id="group-R5">
      <path
         id="path2"
         d="m 18805.2,476.902 c -632.7,-632.601 -1658.4,-632.601 -2291,0 L 476.988,16514.1 c -632.656,632.7 -632.648,1658.4 0,2291 L 16514.2,34842.3 c 632.6,632.7 1658.3,632.7 2291,0 L 34842.4,18805.1 c 632.6,-632.6 632.6,-1658.3 0,-2291 L 18805.2,476.902"
         style="fill:#fccc2d;fill-opacity:1;fill-rule:nonzero;stroke:#231f20;stroke-width:5;stroke-linecap:butt;stroke-linejoin:miter;stroke-miterlimit:4;stroke-dasharray:none;stroke-opacity:1"
         transform="matrix(0.13333333,0,0,-0.13333333,0,4709.24)" />
      <path
         id="path3"
         d="M 34078.7,17277.8 18041.5,1240.6 c -210.5,-210.5 -553.1,-210.5 -763.6,0 L 1240.66,17277.8 c -210.54,210.5 -210.53,553.1 0,763.7 L 17277.9,34078.6 c 210.5,210.6 553.1,210.6 763.6,0 L 34078.7,18041.5 c 210.5,-210.6 210.5,-553.2 0,-763.7 z m 445.5,1209.1 L 18487,34524.1 c -456.2,456.2 -1198.5,456.2 -1654.6,0 L 795.18,18486.9 C 339,18030.8 339,17288.5 795.18,16832.3 L 16832.4,795.102 C 17288.5,339 18030.8,339 18487,795.102 L 34524.2,16832.3 c 456.2,456.2 456.2,1198.5 0,1654.6"
         style="fill:#231f20;fill-opacity:1;fill-rule:nonzero;stroke:none"
         transform="matrix(0.13333333,0,0,-0.13333333,0,4709.24)" />
      <path
         id="path4"
         d="m 16895.8,17929.9 c 522.3,0 948.3,-426 948.3,-948.3 0,-522.4 -426,-948.3 -948.3,-948.3 -522.3,0 -948.3,425.9 -948.3,948.3 0,522.3 426,948.3 948.3,948.3"
         style="fill:#231f20;fill-opacity:1;fill-rule:evenodd;stroke:none"
         transform="matrix(0.13333333,0,0,-0.13333333,0,4709.24)" />
      <path
         id="path5"
         d="m 14024.6,11950.3 1989.2,1326.2 c 91.9,388.7 473.3,2114.2 1238.5,2513.5 757.9,501.1 3552.3,-1557.4 3568.4,-1574.3 v -3003 l -605.9,105.5 -237.1,2397 c -228.3,45.9 -456.6,91.8 -684.9,137.7 498.9,-1289.6 682.1,-2532.5 395.2,-3351.4 l 1211.7,-4952.2 -816.6,-579.4 -1764.9,4583.3 -816.6,-869.3 -1132.7,-3450.6 -1079.9,395.1 974.6,3635.1 1132.7,2028.3 -434.2,1496.9 -461.5,-601.3 -2159.9,-711.2 -316.1,474.1"
         style="fill:#231f20;fill-opacity:1;fill-rule:evenodd;stroke:none"
         transform="matrix(0.13333333,0,0,-0.13333333,0,4709.24)" />
      <path
         id="path6"
         d="m 22651.3,19762.3 c -1099.6,0 -2031,719.4 -2349.6,1713.2 l 2193.2,472.4 c 46.4,-25.8 99.7,-40.5 156.4,-40.5 177.9,0 322,144.2 322,322 0,155.2 -109.8,284.7 -256,315.2 l -1348.6,1792.6 c 373.7,228 812.8,359.3 1282.6,359.3 1362.6,0 2467.1,-1104.5 2467.1,-2467.1 0,-1362.6 -1104.5,-2467.1 -2467.1,-2467.1 z m -2467.1,2467.1 c 0,718.6 307.3,1365.3 797.6,1816.2 l 1248.2,-1659.1 -2029.9,-437.2 c -10.4,91.9 -15.9,185.4 -15.9,280.1 z m -547.3,-401.4 -965.1,-207.9 1120.3,4006.8 843.4,-1121 c -628.6,-557.1 -1025.1,-1370.5 -1025.1,-2276.5 0,-136.1 9.1,-270.1 26.5,-401.4 z m -1374.1,128.7 -149.7,569.3 h 233.7 v 229.5 h -738.7 V 22526 h 294.1 l 148.5,-564.7 -3178.7,3459.6 c 51.6,164.7 104.4,334.5 156.7,503.6 h 4343.6 z m -3127.6,272.7 c 0,-1362.6 -1104.6,-2467.1 -2467.1,-2467.1 -1362.6,0 -2467.2,1104.5 -2467.2,2467.1 0,1362.6 1104.6,2467.1 2467.2,2467.1 484.3,0 936,-139.7 1317.2,-380.8 -303,-657.3 -894,-1365.3 -1319.7,-1764.4 -176.7,-1.3 -319.5,-144.9 -319.5,-321.9 0,-177.8 144.1,-322 322,-322 164.4,0 299.9,123.2 319.5,282.3 208.3,195.1 480.2,482.2 749.1,826.2 200.1,256 449.4,609.7 639.5,993.6 467.8,-449 759,-1080.5 759,-1780.1 z m 7516.1,3040.9 c -599.3,0 -1158,-173.5 -1628.9,-472.8 l -1066,1416.9 139.8,500.1 c 668.3,57.5 1037.8,311.5 1015.2,557.3 -22,238.2 -685,59.7 -1422.2,50.3 -202.2,-2.6 -1275,2.2 -1268.8,-194.6 6.4,-201.7 692.3,-366.1 1173,-412.2 l -85.7,-306.4 h -4329.9 c 92.2,301.1 176.6,579 241.9,794.4 55.7,184.2 97.4,322.7 118.1,391.3 l -315,240.8 148.8,150.6 h 1159.7 v 382.5 h -1319.5 l -566.2,-573.2 363,-277.6 c -168.1,-556.7 -565.3,-1864.6 -822.3,-2653.1 -446.8,258 -965.2,405.7 -1518.2,405.7 -1679.5,0 -3040.91,-1361.5 -3040.91,-3040.9 0,-1679.4 1361.41,-3040.9 3040.91,-3040.9 1679.4,0 3040.8,1361.5 3040.8,3040.9 0,945 -431,1789.3 -1107.3,2347 31.5,95 65.6,199.9 101.7,312.1 l 3272.1,-3561.4 c -0.8,-9.3 -1.3,-18.8 -1.3,-28.3 0,-192.8 153.2,-349.7 344.4,-356 l 229.2,-871.2 h -233.8 v -229.5 h 738.8 v 229.5 h -294.1 l -242.7,923 c 49.5,30.3 91.1,72.4 120.8,122.3 l 1101.8,237.3 c 375.9,-1252.8 1537.6,-2165.7 2912.8,-2165.7 1679.4,0 3040.9,1361.5 3040.9,3040.9 0,1679.4 -1361.5,3040.9 -3040.9,3040.9"
         style="fill:#231f20;fill-opacity:1;fill-rule:nonzero;stroke:none"
         transform="matrix(0.13333333,0,0,-0.13333333,0,4709.24)" />
    </g>
  </g>
</svg>
