<?xml version="1.0" standalone="no"?>
<svg width="4749px" height="4749px" viewBox="-20 -3937 4749 4749 " xmlns="http://www.w3.org/2000/svg" xmlns:xlink="http://www.w3.org/1999/xlink">
<title>generated by pstoedit</title>
<!-- generated by pstoedit version:4.02 -->
<g xml:space='preserve'>
<clipPath id="clippath1"> 	<path d="
	M 0 -3917.08 
	L 0 792 
	L 4709.08 792 
	L 4709.08 -3917.08 
	Z 
	" style="clip-rule:nonzero"/>
</clipPath>
<g style="clip-path:url(#clippath1)"> 
<g fill="#95e8ff" fill-rule="nonzero" stroke-width="0" stroke-linejoin="miter" stroke-linecap="butt" stroke-miterlimit="10" >
	<path d="
	M 2507.27 728.488 
	C 2422.92 812.84 2286.16 812.84 2201.81 728.488 
	L 63.5156 -1409.8 
	C -20.8398 -1494.16 -20.8398 -1630.92 63.5156 -1715.27 
	L 2201.81 -3853.57 
	C 2286.16 -3937.92 2422.92 -3937.92 2507.27 -3853.57 
	L 4645.57 -1715.27 
	C 4729.92 -1630.92 4729.92 -1494.16 4645.57 -1409.8 
	Z 
	"/>
</g>
<g stroke="#7f7f7f" fill="none" stroke-width="0.5" stroke-linejoin="miter" stroke-linecap="butt" stroke-miterlimit="4" >
	<path d="
	M 2507.27 728.488 
	C 2422.92 812.84 2286.16 812.84 2201.81 728.488 
	L 63.5156 -1409.8 
	C -20.8398 -1494.16 -20.8398 -1630.92 63.5156 -1715.27 
	L 2201.81 -3853.57 
	C 2286.16 -3937.92 2422.92 -3937.92 2507.27 -3853.57 
	L 4645.57 -1715.27 
	C 4729.92 -1630.92 4729.92 -1494.16 4645.57 -1409.8 
	Z 
	"/>
</g>
<g fill="#7f7f7f" fill-rule="nonzero" stroke-width="0" stroke-linejoin="miter" stroke-linecap="butt" stroke-miterlimit="4" >
	<path d="
	M 4543.74 -1511.63 
	L 2405.45 626.66 
	C 2377.38 654.738 2331.7 654.738 2303.63 626.66 
	L 165.34 -1511.63 
	C 137.266 -1539.7 137.266 -1585.38 165.34 -1613.45 
	L 2303.63 -3751.74 
	C 2331.7 -3779.81 2377.38 -3779.81 2405.45 -3751.74 
	L 4543.74 -1613.45 
	C 4571.82 -1585.38 4571.82 -1539.7 4543.74 -1511.63 
	Z 
	M 4607.38 -1677.09 
	L 2469.09 -3815.38 
	C 2405.93 -3878.55 2303.15 -3878.55 2239.99 -3815.38 
	L 101.699 -1677.09 
	C 38.5352 -1613.93 38.5352 -1511.15 101.699 -1447.99 
	L 2239.99 690.301 
	C 2303.15 753.469 2405.93 753.469 2469.09 690.301 
	L 4607.38 -1447.99 
	C 4670.55 -1511.15 4670.55 -1613.93 4607.38 -1677.09 
	Z 
	"/>
</g>
<g fill="#7f7f7f" fill-rule="evenodd" stroke-width="0" stroke-linejoin="miter" stroke-linecap="butt" stroke-miterlimit="4" >
	<path d="
	M 3524.81 -1368.29 
	C 3522.71 -1380.52 3520.54 -1392.71 3518.3 -1404.87 
	C 3516.51 -1414.83 3511.97 -1427.29 3512.47 -1437.41 
	C 3514.15 -1465.46 3515.76 -1493.54 3517.37 -1521.55 
	C 3519.92 -1565.82 3522.34 -1609.96 3531.27 -1653.4 
	C 3536.05 -1676.51 3543.49 -1700.3 3544.73 -1723.98 
	C 3545.98 -1748.61 3549.64 -1773.93 3546.1 -1798.4 
	C 3543.99 -1814.04 3541.7 -1829.58 3539.46 -1845.22 
	C 3538.16 -1854.34 3533.75 -1863.21 3530.77 -1871.84 
	C 3521.96 -1897.21 3512.72 -1920.33 3500.81 -1944.31 
	C 3496.52 -1953 3492.87 -1961.37 3486.78 -1968.88 
	C 3476.61 -1981.35 3466.37 -1993.89 3456.19 -2006.33 
	C 3442.23 -2023.45 3421.2 -2037.2 3404.2 -2051.25 
	C 3368.89 -2080.38 3325.46 -2097.19 3282.15 -2111 
	C 3262.48 -2117.3 3242.75 -2123.6 3223.08 -2129.89 
	C 3210.98 -2133.71 3198.64 -2134.67 3185.91 -2136.25 
	L 3189.45 -2136.25 
	C 3142.6 -2143.42 3095.64 -2148.26 3048.17 -2144.63 
	C 2997.17 -2140.72 2947.03 -2131.2 2896.65 -2123.01 
	C 2867.54 -2118.29 2838.88 -2107.21 2810.64 -2099.21 
	C 2777.39 -2089.78 2744.26 -2080.32 2711.07 -2070.89 
	L 2716.34 -2070.89 
	C 2688.73 -2068.93 2661.55 -2070.05 2633.82 -2070.89 
	C 2628.91 -2071.07 2622.52 -2075.1 2617.99 -2076.81 
	C 2610.79 -2079.51 2603.6 -2082.21 2596.46 -2084.97 
	C 2584.86 -2089.41 2578.28 -2105.38 2566.37 -2109.73 
	C 2570.78 -2091.98 2577.29 -2075.54 2587.53 -2060.3 
	C 2576.54 -2062.51 2565.94 -2066.98 2557.5 -2074.39 
	C 2547.69 -2082.95 2543.65 -2091.33 2538.14 -2102.68 
	C 2530.44 -2092.54 2524.42 -2081.77 2512.82 -2075.91 
	C 2501.22 -2070.11 2490.55 -2070.17 2478.07 -2072.65 
	C 2485.65 -2077.74 2491.17 -2081.09 2493.89 -2090.34 
	C 2496.69 -2099.71 2495.82 -2106.9 2490.43 -2115.03 
	C 2491.17 -2101.48 2481.74 -2085.68 2468.34 -2081.21 
	C 2466.47 -2080.56 2461.08 -2077.99 2460.02 -2080.75 
	C 2458.28 -2085.62 2456.54 -2090.46 2454.75 -2095.3 
	C 2452.26 -2102.25 2458.65 -2108.86 2462.19 -2115.03 
	C 2450.47 -2107.71 2441.91 -2100.11 2432.1 -2090.34 
	C 2428.94 -2087.11 2423.29 -2078.49 2418.88 -2077.8 
	C 2411.44 -2076.69 2404.11 -2075.54 2396.85 -2074.39 
	C 2396.85 -2077.68 2395.3 -2082.64 2398.59 -2083.98 
	C 2402.63 -2085.56 2405.17 -2086 2407.52 -2089.53 
	C 2412.55 -2097.07 2416.46 -2104.82 2420.5 -2112.95 
	C 2427.07 -2125.92 2440.66 -2137.12 2449.84 -2148.57 
	C 2441.03 -2146.83 2430.18 -2146.43 2422.17 -2142.74 
	C 2409.95 -2137.18 2397.85 -2131.69 2385.62 -2126.17 
	C 2378.05 -2122.69 2366.76 -2123.84 2358.57 -2123.84 
	C 2345.6 -2123.84 2338.28 -2124.65 2326.18 -2129.12 
	L 2327.92 -2130.88 
	L 2327.92 -2129.12 
	C 2329.84 -2135.41 2331.45 -2141.34 2334.25 -2147.27 
	C 2337.17 -2153.62 2343.8 -2162.62 2343.93 -2169.73 
	C 2335.98 -2161.88 2330.34 -2154.74 2320.04 -2150.77 
	C 2307.44 -2145.93 2294.72 -2141.09 2282.13 -2136.25 
	C 2285.1 -2147.45 2290.32 -2158.34 2287.4 -2169.73 
	C 2284.73 -2162.74 2284.11 -2156.82 2277.72 -2153.04 
	C 2269.41 -2148.2 2263.45 -2143.29 2253.9 -2143.29 
	C 2257.31 -2155.18 2259.79 -2166.16 2266.24 -2176.8 
	C 2259.91 -2172.27 2252.28 -2168.11 2246.82 -2162.69 
	C 2240.68 -2156.7 2236.03 -2148.32 2230.87 -2141.53 
	C 2230.87 -2145.5 2229.45 -2152.48 2231.13 -2156.01 
	C 2233.73 -2161.82 2236.52 -2167.59 2239.13 -2173.39 
	C 2244.34 -2184.46 2254.02 -2197.9 2253.9 -2210.34 
	C 2236.77 -2190.82 2216.73 -2157.41 2188.56 -2157.41 
	C 2199.23 -2166.9 2206.18 -2174.41 2213.87 -2186.42 
	C 2219.64 -2195.48 2225.91 -2208.41 2225.54 -2219.18 
	C 2214.25 -2207.82 2203.26 -2196.25 2192.4 -2184.53 
	C 2183.1 -2174.47 2170.26 -2167.65 2158.59 -2160.91 
	C 2161.82 -2164.2 2168.39 -2168.42 2169.51 -2173.01 
	C 2170.5 -2177.3 2170.75 -2188.25 2176.21 -2189.21 
	C 2169.76 -2187.19 2171.31 -2204.26 2170.88 -2208.6 
	C 2166.34 -2199.51 2162.99 -2190.02 2155.67 -2182.85 
	C 2148.35 -2175.53 2141.03 -2168.24 2133.77 -2160.91 
	C 2134.27 -2165.2 2133.4 -2174.66 2136.38 -2177.67 
	C 2140.78 -2182.08 2144.19 -2187.75 2147.98 -2192.71 
	L 2124.96 -2180.37 
	C 2131.72 -2196.69 2137.43 -2212.35 2140.9 -2229.76 
	C 2136.75 -2225.73 2132.72 -2221.69 2128.68 -2217.66 
	C 2125.45 -2214.37 2124.03 -2208.91 2121.42 -2205.06 
	C 2114.6 -2195.04 2107.03 -2189.21 2094.99 -2189.21 
	C 2102.25 -2196.5 2107.15 -2203.29 2112.61 -2212.11 
	L 2112.61 -2208.6 
	C 2115.72 -2217.04 2118.26 -2224.45 2119.62 -2233.33 
	C 2114.22 -2230.26 2106.78 -2227.74 2102.5 -2223.06 
	C 2096.48 -2216.45 2090.83 -2209.47 2084.38 -2203.29 
	C 2083.64 -2209.59 2086.8 -2218.71 2087.42 -2225.2 
	C 2088.17 -2232.02 2087.92 -2238.81 2087.92 -2245.67 
	C 2086.24 -2241.14 2082.15 -2237.67 2079.98 -2233.33 
	C 2077.06 -2227.68 2073.71 -2222.62 2070.29 -2217.35 
	C 2063.97 -2208.01 2055.28 -2200.66 2047.34 -2192.71 
	C 2055.4 -2210.93 2063.22 -2238.69 2045.48 -2254.49 
	C 2042.06 -2249.58 2042.81 -2241.77 2042.31 -2236.06 
	C 2041.69 -2230.13 2037.29 -2224.7 2034.37 -2219.55 
	C 2028.98 -2209.9 2019.04 -2198.89 2008.44 -2196.25 
	C 2008.44 -2204.69 2011.85 -2214.9 2010.23 -2222.93 
	C 2008.93 -2228.92 2008.68 -2249.77 2001.43 -2250.98 
	C 1998.63 -2239.69 1995.96 -2229.36 1991.31 -2218.71 
	C 1989.57 -2214.37 1982.87 -2215.45 1981.75 -2219.92 
	C 1980.39 -2225.79 1980.27 -2230.81 1980.27 -2236.86 
	C 1971.83 -2228.43 1971.39 -2216.7 1971.39 -2205.06 
	C 1961.96 -2213.38 1957.56 -2231 1952.03 -2242.14 
	C 1948.99 -2230.32 1945.71 -2218.71 1943.22 -2206.83 
	L 1943.22 -2208.6 
	C 1941.55 -2206.21 1937.02 -2192.96 1935.4 -2192.53 
	C 1931.74 -2191.6 1928.7 -2189.64 1926.84 -2193.62 
	C 1925.48 -2196.44 1923.68 -2197.96 1922.94 -2201.03 
	C 1921.07 -2208.13 1920.27 -2218.03 1916.67 -2224.45 
	C 1913.5 -2230.26 1906.92 -2235.4 1902.52 -2240.4 
	L 1909.59 -2203.29 
	C 1902.89 -2205.56 1899.35 -2205.19 1897.24 -2212.11 
	C 1895.51 -2217.91 1893.95 -2223.77 1892.22 -2229.63 
	C 1888.68 -2242.07 1884.9 -2253.24 1879.62 -2265.06 
	C 1879.75 -2254.3 1875.34 -2243.53 1876.21 -2232.89 
	C 1877.33 -2219.49 1878.51 -2206.06 1879.62 -2192.71 
	C 1869.02 -2203.29 1863.99 -2216.91 1862 -2231.56 
	C 1858.72 -2226.59 1859.83 -2201.53 1852.26 -2201.53 
	C 1840.47 -2201.53 1837.31 -2212.41 1836.56 -2222.75 
	C 1834.64 -2248.06 1831.91 -2273.25 1831.91 -2298.63 
	C 1830.23 -2291.9 1828.62 -2285.17 1826.82 -2278.5 
	C 1825.2 -2271.49 1821.3 -2269.22 1821.3 -2261.56 
	L 1816.02 -2263.3 
	L 1817.76 -2263.3 
	C 1816.4 -2267.45 1812.74 -2268.91 1812.24 -2273.25 
	C 1811.62 -2278.75 1810.5 -2284.27 1810.75 -2289.82 
	C 1804.92 -2280.36 1805.41 -2266.02 1805.41 -2255.32 
	C 1805.41 -2251.04 1803.55 -2242.66 1801.94 -2238.63 
	C 1801.51 -2237.48 1800.14 -2239.99 1800.14 -2237.67 
	C 1800.14 -2236.12 1800.64 -2235.34 1799.27 -2234.6 
	C 1795.24 -2232.64 1793.62 -2235.59 1790.09 -2238.2 
	C 1786.18 -2241.14 1781.15 -2243.66 1780.1 -2248.56 
	C 1778.61 -2255.26 1777.24 -2261.68 1776.5 -2268.41 
	C 1775.2 -2279.86 1775.94 -2292.4 1782.52 -2302.17 
	C 1768.43 -2304.93 1765.15 -2278.68 1757.82 -2272.14 
	C 1751.68 -2280.29 1750.01 -2283.27 1752.55 -2293.36 
	C 1744.48 -2290.63 1741.81 -2284.27 1738.34 -2276.91 
	C 1735.67 -2271.36 1733.01 -2265.84 1730.4 -2260.22 
	C 1729.65 -2258.52 1727.73 -2251.91 1725.99 -2250.98 
	C 1722.21 -2248.9 1718.42 -2251.72 1720.29 -2255.32 
	C 1722.21 -2259.2 1723.33 -2262.8 1724.56 -2266.95 
	C 1727.11 -2275.89 1731.89 -2283.65 1736.54 -2291.59 
	C 1722.58 -2285.97 1712.47 -2274.65 1701.05 -2264.82 
	C 1688.7 -2254.24 1675.98 -2244.09 1662.52 -2235.09 
	C 1658.86 -2238.88 1664.01 -2242.14 1666.06 -2245.67 
	C 1668.66 -2250.45 1669.9 -2255.82 1671.7 -2260.97 
	C 1674.87 -2270.31 1676.35 -2279.8 1681.88 -2288.05 
	C 1671.33 -2277.47 1660.72 -2266.9 1650.17 -2256.32 
	C 1645.64 -2251.79 1640.31 -2253.49 1646.01 -2259.2 
	C 1650.17 -2263.36 1652.65 -2272.07 1655.44 -2277.41 
	C 1651.91 -2272.26 1648.25 -2268.73 1642.97 -2265.06 
	C 1639.44 -2262.61 1628.64 -2255.69 1633.42 -2265.13 
	C 1636.46 -2271.3 1637.95 -2277.78 1641.11 -2283.96 
	C 1642.11 -2286.16 1641.61 -2290.5 1643.59 -2291.96 
	C 1646.38 -2294.1 1649.43 -2296.05 1651.91 -2298.63 
	C 1640.74 -2294.84 1636.34 -2290.13 1627.9 -2281.63 
	C 1621.44 -2275.21 1616.05 -2267.86 1609.47 -2261.56 
	C 1609.47 -2275.02 1611.27 -2285.97 1615.43 -2298.82 
	C 1619.33 -2310.36 1627.09 -2319.66 1632.43 -2330.37 
	C 1615.68 -2319.17 1600.16 -2307.07 1589.61 -2289.76 
	C 1587.19 -2286.04 1585.21 -2281.44 1582.17 -2278.28 
	C 1578.38 -2274.53 1572.61 -2274.96 1576.46 -2280.88 
	C 1578.63 -2284.14 1578.26 -2289.39 1579.87 -2293.42 
	C 1581.8 -2298.2 1584.15 -2302.79 1586.57 -2307.44 
	C 1576.09 -2302.23 1568.83 -2293.2 1560.64 -2285.04 
	C 1558.34 -2282.78 1554.56 -2274.59 1550.4 -2275.95 
	C 1546.49 -2277.22 1545.87 -2276.6 1546.36 -2280.51 
	C 1546.74 -2284.08 1546.86 -2287.99 1547.79 -2291.59 
	C 1550.27 -2302.35 1556.48 -2311.6 1560.14 -2321.87 
	C 1562.5 -2328.17 1564.79 -2334.4 1567.03 -2340.7 
	C 1568.33 -2344.3 1575.34 -2350.13 1577.76 -2353.36 
	C 1572.3 -2349.57 1563.24 -2345.66 1559.58 -2340.33 
	C 1554.43 -2332.95 1548.29 -2325.71 1544.13 -2317.83 
	C 1539.73 -2309.58 1535.32 -2301.27 1530.91 -2293.01 
	C 1528.99 -2289.63 1527.38 -2286.1 1525.58 -2282.65 
	C 1523.84 -2279.06 1518.94 -2281.76 1515.9 -2282.78 
	C 1522.48 -2292.4 1524.71 -2302.6 1524.71 -2314.05 
	C 1524.71 -2325.22 1531.78 -2336.98 1537.18 -2346.29 
	C 1527.01 -2338.68 1518.44 -2329.38 1509.51 -2320.35 
	C 1507.22 -2318.14 1506.84 -2312.75 1505.97 -2309.83 
	C 1503.31 -2301.21 1500.82 -2292.52 1498.28 -2283.89 
	C 1497.53 -2281.69 1496.54 -2273.13 1494.37 -2271.92 
	C 1489.22 -2269.04 1484.32 -2262.98 1479.91 -2267.92 
	C 1471.72 -2277.04 1466.14 -2285.91 1459.5 -2296 
	C 1445.17 -2317.53 1427.98 -2335.33 1409.86 -2353.54 
	C 1392.86 -2370.54 1376.85 -2388.54 1360.41 -2406.07 
	C 1352.09 -2415 1342.35 -2421.36 1332.3 -2428.47 
	C 1324.11 -2434.39 1316.42 -2442.21 1306.12 -2443.95 
	C 1293.52 -2446.03 1283.97 -2442.64 1274.85 -2433.52 
	C 1266.16 -2424.87 1264.42 -2415.99 1265.41 -2404.05 
	C 1267.46 -2381.37 1267.09 -2354.16 1281.3 -2334.83 
	C 1285.83 -2328.66 1290.36 -2322.55 1294.89 -2316.38 
	C 1297.68 -2312.68 1300.53 -2306.64 1304.19 -2303.78 
	C 1313.69 -2296.55 1323.37 -2289.63 1332.05 -2281.69 
	C 1341.24 -2273.5 1348.93 -2266.95 1354.95 -2256.25 
	C 1358.49 -2249.83 1358.73 -2248.96 1357.62 -2241.7 
	C 1356.62 -2236.18 1354.82 -2230.19 1355.32 -2224.45 
	C 1348.93 -2234.04 1343.66 -2244.99 1335.47 -2253.12 
	C 1328.39 -2260.22 1317.84 -2265.31 1309.53 -2270.93 
	C 1300.53 -2276.85 1289.49 -2279.74 1279.44 -2283.83 
	C 1269.45 -2287.8 1257.97 -2292.64 1249.4 -2299 
	C 1244.26 -2302.91 1240.6 -2305.67 1234.21 -2307.25 
	C 1231.29 -2308 1222.85 -2312.87 1220.74 -2314.89 
	C 1217.08 -2318.64 1211.81 -2320.28 1208.39 -2323.76 
	C 1204.48 -2327.61 1200.7 -2331.42 1196.79 -2335.27 
	C 1189.1 -2343.03 1181.03 -2351.59 1169.24 -2351.59 
	C 1163.78 -2351.59 1157.88 -2351.9 1153.61 -2347.68 
	C 1150.32 -2344.36 1142.5 -2338.31 1141.63 -2333.44 
	C 1137.22 -2311.47 1142.5 -2284.79 1149.94 -2263.82 
	C 1154.6 -2250.79 1159.99 -2239.56 1166.57 -2227.34 
	C 1171.23 -2218.93 1176.13 -2207.7 1182.95 -2200.91 
	C 1191.76 -2192.09 1200.58 -2183.22 1209.76 -2174.78 
	C 1219.81 -2165.57 1229.8 -2159.09 1241.53 -2151.98 
	C 1261.13 -2139.88 1274.6 -2120.12 1286.07 -2100.86 
	C 1288 -2097.75 1290.23 -2088.32 1293.52 -2088.57 
	C 1281.67 -2084.6 1270.19 -2090.77 1261.75 -2099.15 
	C 1266.72 -2087.39 1271.62 -2075.6 1276.52 -2063.75 
	C 1280.31 -2054.57 1286.82 -2048.39 1293.52 -2040.92 
	L 1289.98 -2044.42 
	C 1292.16 -2036.45 1273.11 -2040.02 1268.83 -2040.92 
	C 1281.3 -2029.81 1294.89 -2020.5 1302.58 -2005.21 
	C 1303.2 -2003.81 1308.23 -1995.31 1307.23 -1994.75 
	C 1303.95 -1992.55 1300.41 -1989.2 1296.69 -1987.83 
	C 1288.62 -1984.79 1280.55 -1981.84 1272.36 -1979.09 
	C 1276.27 -1972.6 1280.18 -1966.03 1284.09 -1959.48 
	C 1288.99 -1951.29 1287.32 -1950.79 1282.91 -1942.04 
	L 1282.91 -1943.81 
	C 1278.88 -1938.13 1274.48 -1933.48 1272.98 -1926.69 
	C 1270.69 -1916.29 1271.12 -1914.46 1275.9 -1904.97 
	C 1279.25 -1910.43 1282.54 -1916.05 1286.33 -1921.32 
	C 1291.73 -1929.01 1293.65 -1931.46 1302.34 -1935 
	C 1305.62 -1923.39 1311.27 -1911.02 1313.01 -1899.23 
	C 1314.93 -1885.43 1314.68 -1872.92 1312.88 -1859.05 
	C 1319.33 -1862.22 1320.7 -1863.64 1324.36 -1869.63 
	C 1325.48 -1871.46 1328.52 -1874.54 1328.76 -1876.68 
	C 1329.01 -1877.82 1326.53 -1881.2 1327.03 -1883.81 
	C 1331.18 -1871.53 1328.76 -1856.35 1328.76 -1843.51 
	C 1328.76 -1829.52 1328.76 -1815.62 1328.76 -1801.63 
	C 1328.76 -1771.91 1327.03 -1742.37 1327.03 -1712.53 
	L 1328.76 -1714.3 
	C 1328.76 -1694.59 1330.56 -1674.93 1330.56 -1655.23 
	C 1330.56 -1645.61 1332.18 -1635.22 1334.16 -1625.82 
	C 1336.09 -1616.63 1336.58 -1605.62 1341.73 -1597.74 
	C 1348.31 -1588.03 1353.09 -1578.85 1357.99 -1568.27 
	C 1362.02 -1559.64 1368.16 -1551.27 1378.28 -1548.38 
	C 1387.58 -1545.65 1401.3 -1548.38 1411.16 -1548.38 
	C 1419.73 -1548.38 1428.91 -1553.1 1434.68 -1558.96 
	C 1437.35 -1555.12 1439.46 -1549.44 1443.87 -1547.42 
	C 1448.39 -1545.34 1456.33 -1539.57 1461.36 -1539.57 
	C 1473.09 -1539.57 1485.06 -1537.87 1496.04 -1542.08 
	C 1509.01 -1547.05 1518.07 -1550.9 1524.71 -1564.24 
	C 1530.67 -1575.84 1524.71 -1586.29 1524.71 -1598.24 
	C 1524.71 -1622.31 1532.03 -1645.67 1549.65 -1663.29 
	C 1567.03 -1680.66 1583.53 -1697.42 1598.55 -1717 
	C 1607.48 -1728.91 1615.68 -1739.93 1626.59 -1749.95 
	C 1639.56 -1761.64 1652.65 -1771.78 1661.9 -1786.58 
	C 1665.37 -1792.2 1669.78 -1797.47 1674.5 -1802.19 
	C 1681.75 -1809.51 1684.8 -1803.83 1685.42 -1795.52 
	C 1686.53 -1780.35 1688.83 -1766.11 1692.49 -1751.37 
	C 1694.97 -1759.13 1697.27 -1767.94 1700.8 -1775.2 
	C 1702.79 -1778.95 1705.95 -1781.93 1707.94 -1785.77 
	C 1709.73 -1789.47 1709.61 -1793.69 1711.85 -1797.29 
	C 1711.1 -1792.26 1714.76 -1787.98 1715.76 -1783.17 
	C 1716.75 -1777.96 1717.81 -1771.1 1721.03 -1766.76 
	C 1725.19 -1761.33 1727.98 -1756.18 1731.14 -1750.07 
	C 1732.88 -1746.47 1731.27 -1737.66 1731.27 -1733.75 
	C 1734.43 -1740.05 1741.07 -1745.01 1743.61 -1751.37 
	C 1746.22 -1757.85 1745.48 -1767.25 1747.28 -1774.3 
	C 1755.09 -1761.14 1757.82 -1748.98 1757.82 -1733.75 
	C 1757.82 -1718.02 1751.68 -1706.42 1743.61 -1693.14 
	C 1748.02 -1692.33 1752.8 -1695.53 1756.09 -1698.04 
	C 1760.37 -1701.2 1766.14 -1703.22 1769.8 -1706.85 
	C 1777.74 -1714.73 1782.02 -1723.91 1786.92 -1733.81 
	C 1790.83 -1741.5 1791.58 -1738.65 1796.23 -1732.48 
	C 1799.64 -1728.01 1800.76 -1724.26 1802.19 -1718.89 
	C 1804.92 -1707.5 1803.18 -1695.9 1796.6 -1686.1 
	C 1813.73 -1684.64 1819.56 -1702.32 1819.56 -1716.07 
	C 1823.35 -1711.07 1821.55 -1703.16 1823.35 -1697.61 
	C 1825.2 -1692.05 1823.1 -1685.32 1823.1 -1679.02 
	C 1833.77 -1689.6 1838.92 -1700.84 1838.92 -1716.07 
	C 1845.87 -1706.98 1852.01 -1694.41 1849.65 -1682.5 
	C 1846.86 -1669.16 1836.81 -1661.84 1826.57 -1654.3 
	C 1850.9 -1654.85 1866.41 -1675.45 1876.09 -1694.91 
	C 1878.76 -1692.89 1878.76 -1689.29 1879.37 -1686.22 
	C 1880.99 -1678.65 1882.79 -1671.11 1884.4 -1663.54 
	C 1886.94 -1652.22 1889.43 -1640.86 1891.97 -1629.6 
	C 1895.51 -1640.06 1899.23 -1653.52 1909.59 -1658.7 
	C 1922.19 -1665 1925.1 -1638.85 1926.97 -1632.18 
	C 1933.67 -1609 1936.64 -1585.08 1943.47 -1561.78 
	C 1945.09 -1556.17 1946.76 -1550.58 1948.37 -1544.97 
	C 1949.61 -1540.63 1958.55 -1534.76 1961.84 -1531.51 
	C 1970.03 -1523.31 1979.95 -1516.39 1988.95 -1509.01 
	C 2008.19 -1493.22 2025.56 -1476.54 2043.18 -1458.91 
	C 2051.74 -1450.29 2058.57 -1440.08 2065.52 -1430.19 
	C 2071.16 -1422.05 2070.29 -1406.82 2070.29 -1397.14 
	C 2070.29 -1374.78 2067.01 -1351.1 2056.83 -1330.87 
	C 2035.24 -1287.69 1996.96 -1257.59 1968.54 -1219.07 
	C 1962.21 -1210.51 1951.04 -1200.17 1947.88 -1189.9 
	C 1943.59 -1175.85 1939.19 -1161.83 1934.91 -1147.71 
	C 1928.33 -1126.62 1930.13 -1103.38 1925.73 -1081.85 
	C 1920.95 -1057.99 1911.33 -1036.05 1901.15 -1014.03 
	C 1891.48 -992.93 1879.25 -971.65 1872.55 -949.43 
	C 1870.69 -943.08 1869.14 -937.83 1865.79 -932.25 
	C 1862.87 -927.32 1863.74 -922.85 1863.74 -917.11 
	C 1863.74 -905.29 1864.11 -894.71 1866.04 -882.99 
	C 1869.82 -860.27 1862 -837.53 1843.94 -822.61 
	C 1826.7 -808.19 1808.95 -793.2 1800.14 -771.61 
	C 1791.33 -749.95 1791.33 -727.52 1791.33 -704.54 
	C 1801.51 -707.94 1811.5 -708.25 1822.04 -706.49 
	C 1833.52 -704.54 1844.19 -704.54 1855.92 -704.54 
	C 1878.07 -704.54 1899.11 -708.75 1911.08 -728.79 
	C 1913.13 -732.24 1916.67 -737.3 1916.67 -741.46 
	C 1916.67 -746.97 1915.98 -751.01 1918.77 -755.73 
	C 1925.48 -766.89 1932.24 -775.39 1940.93 -785.01 
	C 1944.46 -789.04 1945.09 -788.24 1946.39 -794.6 
	C 1947.26 -799.06 1943.84 -804.74 1942.48 -808.89 
	C 1939.19 -818.83 1935.9 -828.78 1932.49 -838.74 
	L 1934.29 -835.2 
	C 1941.67 -846.29 1949.74 -851.9 1960.6 -859.75 
	C 1962.7 -861.33 1962.83 -872.99 1963.26 -875.57 
	C 1964.26 -881.37 1966.12 -887.79 1966.12 -893.63 
	C 1966.12 -904.91 1963.76 -918.69 1966.37 -929.7 
	C 1969.28 -942.3 1972.32 -954.34 1976.36 -966.56 
	C 1991.56 -1012.26 2020.41 -1051.38 2041.82 -1094.32 
	C 2053.42 -1117.5 2070.79 -1136.82 2086.92 -1156.95 
	C 2090.52 -1161.58 2104.05 -1181.78 2110.32 -1172.28 
	C 2115.59 -1164.34 2113.61 -1145.76 2114.35 -1136.26 
	C 2116.15 -1112.84 2115.22 -1089.73 2119.13 -1066.3 
	C 2120.68 -1057.09 2119.62 -1047.35 2119.62 -1038.14 
	C 2119.62 -1020.45 2119.62 -1002.83 2119.62 -985.14 
	C 2119.62 -975.93 2120.68 -966.5 2118.63 -957.47 
	C 2115.84 -945.22 2112.61 -933.12 2109.32 -920.95 
	C 2106.65 -911.03 2105.17 -899.8 2100.64 -890.49 
	C 2093.56 -876.13 2086.68 -861.76 2079.73 -847.43 
	C 2077.68 -843.4 2075.82 -839.37 2073.83 -835.27 
	C 2071.79 -831.11 2067.5 -828.54 2065.89 -824.07 
	C 2061.36 -811.85 2058.32 -798.04 2050.38 -787.58 
	C 2046.96 -782.99 2043.68 -778.35 2040.45 -773.68 
	C 2037.41 -769.4 2030.96 -765.93 2027.11 -762.02 
	C 2023.45 -758.33 2018.55 -754.73 2015.51 -750.45 
	C 2011.85 -745.3 2009.43 -738.29 2006.57 -732.64 
	C 2003.16 -725.56 1999.75 -718.9 1997.26 -711.42 
	C 1996.09 -707.94 1995.47 -704.47 1994.85 -700.84 
	C 1993.98 -695.41 1998.38 -696.62 2003.41 -695.47 
	C 2018.11 -692.21 2033.13 -688.68 2048.39 -688.68 
	C 2080.35 -688.68 2111.31 -691.87 2140.9 -704.54 
	L 2140.9 -702.8 
	C 2143.33 -714.86 2147.48 -725.44 2143.57 -737.24 
	C 2139.79 -748.5 2139.79 -760.29 2136.5 -771.98 
	C 2134.88 -777.6 2139.29 -782.62 2141.84 -787.68 
	C 2144.32 -792.83 2146.12 -797.91 2147.98 -803.41 
	C 2151.51 -814.29 2156.79 -822.43 2164.73 -830.92 
	C 2182.35 -849.81 2200.1 -867.87 2219.02 -885.34 
	C 2226.04 -891.83 2241.55 -894.65 2241.55 -905.47 
	C 2241.55 -918.88 2240.18 -927.85 2234.1 -939.85 
	C 2229.32 -949.68 2228.7 -959.3 2227.71 -970.07 
	C 2226.41 -983.31 2224.43 -996.66 2223.8 -1009.93 
	C 2222.68 -1035.93 2223.18 -1062.15 2222.31 -1088.14 
	C 2220.76 -1137.01 2227.09 -1185.37 2231.49 -1233.92 
	C 2233.48 -1255.33 2239.56 -1276.42 2245.33 -1297.07 
	C 2249.24 -1311.05 2253.15 -1324.98 2257.06 -1338.88 
	C 2259.66 -1348.12 2264.19 -1361 2270.9 -1367.79 
	C 2273.01 -1369.87 2281.19 -1369.69 2284.36 -1370.18 
	C 2290.81 -1371.24 2297.21 -1372.26 2303.66 -1373.13 
	C 2314.45 -1374.71 2326.06 -1373.57 2337.04 -1373.57 
	C 2341.82 -1373.57 2346.59 -1373.57 2351.37 -1373.57 
	C 2354.78 -1373.57 2358.33 -1373.57 2361.68 -1373.57 
	C 2364.34 -1373.57 2362.48 -1372.08 2364.96 -1371.42 
	C 2377.06 -1368.42 2389.16 -1365.34 2401.26 -1362.49 
	C 2495.57 -1340.34 2594.54 -1339.13 2689.66 -1355.94 
	C 2737.62 -1364.39 2785.09 -1376.17 2830.57 -1393.3 
	C 2850.98 -1400.9 2872.76 -1410.67 2891.87 -1420.87 
	C 2914.27 -1432.82 2936.97 -1444.3 2958.39 -1458.01 
	C 2966.57 -1463.32 2974.89 -1468.65 2983.08 -1473.96 
	C 2986.18 -1475.91 2990.84 -1477.65 2993.5 -1479.48 
	C 2998.16 -1482.77 3000.58 -1486.61 3005.85 -1489.19 
	C 3024.09 -1498.38 3043.14 -1493.54 3057.1 -1479.48 
	L 3057.1 -1481.32 
	C 3072.37 -1461.67 3087.57 -1442.04 3102.96 -1422.37 
	C 3108.97 -1414.52 3117.17 -1408.78 3121.57 -1399.84 
	C 3128.77 -1385.47 3135.96 -1371.11 3143.1 -1356.69 
	C 3148.19 -1346.77 3155.82 -1338.13 3162.4 -1329.2 
	C 3167.92 -1321.63 3175.98 -1316.26 3181.51 -1308.79 
	C 3197.14 -1287.82 3213.03 -1267.34 3226.37 -1245 
	C 3230.28 -1238.45 3233.57 -1231.32 3237.04 -1224.59 
	C 3240.82 -1217.11 3247.15 -1208.73 3249.52 -1200.61 
	C 3253.54 -1186.68 3251.94 -1167.23 3250.82 -1152.96 
	C 3249.39 -1134.19 3246.91 -1119.08 3235.31 -1103.51 
	C 3225.13 -1089.79 3211.91 -1078.78 3201.8 -1064.66 
	L 3207.07 -1068.2 
	L 3201.8 -1062.89 
	L 3201.8 -1064.66 
	C 3195.04 -1058.61 3188.58 -1052.13 3180.76 -1047.47 
	C 3172.7 -1042.63 3166.56 -1038.35 3159.6 -1032.12 
	C 3144.28 -1018.13 3129.64 -1003.02 3111.77 -992.31 
	L 3113.51 -994.08 
	C 3079.5 -969.82 3061.63 -933.24 3051.83 -893.44 
	L 3053.56 -895.21 
	L 3043.02 -858.14 
	L 3046.55 -858.14 
	C 3042.03 -853.67 3039.24 -849.7 3033.03 -848.17 
	C 3026.89 -846.59 3021.49 -840.76 3016.59 -836.97 
	C 3008.15 -830.74 3003.56 -823.16 3000.33 -813.24 
	C 2999.4 -810.39 2975.14 -741.14 2979.55 -739.81 
	C 3003.19 -732.89 3025.77 -725.26 3049.78 -733.33 
	C 3062.5 -737.54 3074.6 -742.45 3086.95 -747.5 
	C 3093.53 -750.2 3109.34 -753.52 3111.02 -759.08 
	C 3113.13 -766.52 3115.3 -773.94 3117.29 -781.32 
	C 3118.28 -784.7 3121.69 -791.13 3120.57 -794.78 
	C 3118.72 -800.95 3116.91 -807.13 3115.06 -813.3 
	C 3113.63 -817.77 3109.47 -825.55 3110.15 -830.3 
	C 3110.52 -833.44 3109.91 -844.02 3113.38 -844.02 
	C 3121.57 -844.02 3129.64 -844.02 3137.83 -844.02 
	C 3142.6 -844.02 3143.1 -843.2 3145.52 -847.18 
	C 3149.55 -854.1 3153.59 -860.96 3157.74 -867.81 
	C 3169.72 -888.04 3180.39 -908.89 3193.23 -928.59 
	C 3199.56 -938.14 3205.08 -948.97 3212.78 -957.56 
	C 3222.09 -967.93 3231.27 -978.32 3240.58 -988.65 
	C 3247.15 -996.04 3251.69 -1007.05 3256.83 -1015.49 
	C 3265.4 -1029.63 3273.96 -1043.81 3282.52 -1057.92 
	C 3283.89 -1060.2 3285.07 -1063.14 3286.92 -1065.04 
	C 3293.38 -1071.52 3295.37 -1071.95 3304.43 -1073.28 
	C 3314.91 -1074.81 3315.28 -1047.29 3316.03 -1042.17 
	C 3317.52 -1030.65 3318.32 -1020.02 3318.32 -1008.35 
	C 3318.32 -998.3 3319.81 -987.01 3317.77 -977.21 
	C 3314.54 -962.22 3311.37 -947.3 3308.09 -932.31 
	C 3306.22 -923.09 3305.48 -912.33 3301.58 -903.71 
	C 3296.79 -893.13 3288.98 -881.3 3286.43 -869.95 
	C 3283.52 -856.8 3280.79 -843.58 3277.87 -830.43 
	C 3275.45 -819.38 3269.8 -809.08 3267.19 -798.1 
	C 3265.9 -793.07 3264.53 -787.34 3263.66 -782.25 
	C 3262.36 -775.52 3266.01 -772.73 3259.5 -769.72 
	C 3248.77 -764.75 3239.21 -761.53 3231.27 -753.02 
	C 3220.16 -740.95 3209 -728.86 3197.77 -716.75 
	C 3195.53 -714.24 3193.11 -712.72 3192.74 -709.35 
	C 3192.49 -706.18 3189.45 -692.83 3192.49 -691.69 
	C 3205.08 -686.97 3217.31 -684.65 3230.65 -682.14 
	C 3254.35 -677.73 3278.99 -683.32 3302.06 -688.18 
	C 3305.35 -688.8 3311.37 -688.8 3313.91 -691.2 
	C 3317.15 -694.61 3325.96 -700.38 3327.26 -705 
	C 3330.92 -717.38 3332.53 -728.92 3332.53 -741.83 
	C 3332.53 -754.42 3336.07 -764.69 3342.46 -775.08 
	C 3348.04 -783.83 3354.81 -795.03 3362.62 -801.7 
	C 3373.36 -811.04 3384.16 -820.34 3395.02 -829.66 
	C 3403.83 -837.4 3414.13 -842.37 3424.49 -848.17 
	C 3429.51 -851 3431.13 -853.2 3434.54 -858.14 
	C 3438.33 -863.29 3438.33 -866.63 3439.57 -872.81 
	C 3440.43 -877.08 3442.98 -882.55 3440.81 -886.58 
	C 3436.96 -893.63 3433.05 -900.76 3429.14 -907.87 
	C 3418.53 -927.07 3410.84 -949.68 3409.59 -971.65 
	C 3408.35 -996.16 3409.47 -1020.76 3406.43 -1045.15 
	C 3405.07 -1056.22 3402.65 -1067.23 3403.83 -1078.44 
	C 3405.19 -1093.52 3406.68 -1108.56 3408.23 -1123.66 
	C 3410.59 -1146.66 3414 -1169.49 3417.78 -1192.3 
	C 3419.03 -1200.05 3420.2 -1207.77 3421.45 -1215.53 
	C 3422.56 -1221.95 3422.44 -1221.88 3418.03 -1227.1 
	C 3410.59 -1236.13 3401.9 -1244.04 3394.08 -1252.82 
	C 3361.01 -1289.53 3351.27 -1340.71 3365.67 -1387.62 
	C 3369.58 -1400.02 3375.22 -1409.71 3381.8 -1421.06 
	C 3382.18 -1421.68 3380 -1422.56 3380.37 -1423.89 
	C 3380.99 -1425.9 3381.62 -1427.92 3382.18 -1429.94 
	C 3384.65 -1438 3387.2 -1446.13 3389.55 -1454.23 
	C 3396.5 -1477.09 3401.78 -1499.7 3406.8 -1523.13 
	C 3417.04 -1570.53 3430.13 -1616.57 3443.6 -1663.23 
	C 3454.21 -1700.24 3464.88 -1737.29 3475.49 -1774.3 
	C 3471.7 -1719.14 3467.8 -1664.04 3464.02 -1608.88 
	C 3462.89 -1592.25 3461.35 -1575.71 3461.35 -1559.08 
	C 3461.35 -1535.97 3461.97 -1513.17 3459.36 -1490.24 
	C 3456.69 -1466.57 3454.08 -1442.9 3451.29 -1419.23 
	C 3449.49 -1403.7 3449.67 -1391.84 3451.42 -1376.11 
	C 3453.27 -1359.29 3460.85 -1343.72 3466.68 -1327.86 
	C 3469.66 -1319.55 3470.65 -1310.81 3472.08 -1301.99 
	C 3473.69 -1292.35 3476.11 -1289.46 3482.5 -1281.83 
	L 3480.77 -1299.49 
	L 3493.11 -1264.14 
	L 3503.66 -1287.13 
	L 3519.54 -1250.03 
	L 3530.09 -1262.37 
	C 3534.13 -1251.48 3538.16 -1240.91 3542.94 -1230.39 
	C 3547.22 -1221.08 3558.45 -1214.25 3569.06 -1214.72 
	L 3524.81 -1368.29 
	"/>
</g>
</g >
</g>
</svg>
