<?xml version="1.0" encoding="UTF-8" standalone="no"?>
<!-- Created with Inkscape (http://www.inkscape.org/) -->

<svg
   version="1.1"
   id="svg1"
   width="3139.72"
   height="3139.72"
   viewBox="0 0 3139.72 3139.72"
   sodipodi:docname="tmp41uzaear.pdf"
   xmlns:inkscape="http://www.inkscape.org/namespaces/inkscape"
   xmlns:sodipodi="http://sodipodi.sourceforge.net/DTD/sodipodi-0.dtd"
   xmlns="http://www.w3.org/2000/svg"
   xmlns:svg="http://www.w3.org/2000/svg">
  <defs
     id="defs1" />
  <sodipodi:namedview
     id="namedview1"
     pagecolor="#ffffff"
     bordercolor="#000000"
     borderopacity="0.25"
     inkscape:showpageshadow="2"
     inkscape:pageopacity="0.0"
     inkscape:pagecheckerboard="0"
     inkscape:deskcolor="#d1d1d1">
    <inkscape:page
       x="0"
       y="0"
       inkscape:label="1"
       id="page1"
       width="3139.72"
       height="3139.72"
       margin="0"
       bleed="0" />
  </sodipodi:namedview>
  <g
     id="g1"
     inkscape:groupmode="layer"
     inkscape:label="1">
    <g
       id="group-R5">
      <path
         id="path2"
         d="m 12537.6,318.801 c -421.7,-421.699 -1105.6,-421.699 -1527.3,0 L 318.828,11010.3 c -421.766,421.7 -421.766,1105.6 -0.004,1527.3 L 11010.3,23229.1 c 421.7,421.7 1105.6,421.7 1527.3,0 L 23229.1,12537.6 c 421.8,-421.7 421.8,-1105.6 0,-1527.3 L 12537.6,318.801"
         style="fill:#fccc2d;fill-opacity:1;fill-rule:nonzero;stroke:#231f20;stroke-width:5;stroke-linecap:butt;stroke-linejoin:miter;stroke-miterlimit:4;stroke-dasharray:none;stroke-opacity:1"
         transform="matrix(0.13333333,0,0,-0.13333333,0,3139.72)" />
      <path
         id="path3"
         d="M 22720,11519.4 12028.5,827.902 c -140.3,-140.3 -368.7,-140.3 -509.1,0 L 827.945,11519.4 c -140.367,140.4 -140.367,368.7 -0.007,509.1 L 11519.4,22720 c 140.4,140.3 368.8,140.3 509.1,0 L 22720,12028.5 c 140.3,-140.4 140.3,-368.7 0,-509.1 z m 318.2,827.3 -10691.5,10691.5 c -315.8,315.8 -829.7,315.8 -1145.5,0 L 509.742,12346.7 C 193.926,12030.9 193.926,11517 509.746,11201.2 L 11201.2,509.699 c 315.8,-315.797 829.7,-315.797 1145.5,0 L 23038.2,11201.2 c 315.8,315.8 315.8,829.7 0,1145.5"
         style="fill:#231f20;fill-opacity:1;fill-rule:nonzero;stroke:none"
         transform="matrix(0.13333333,0,0,-0.13333333,0,3139.72)" />
      <path
         id="path4"
         d="m 17832.8,9565.5 c -13.4,114.3 2.9,296.2 24,432.1 24.5,158.4 23.9,309.2 23.9,469.8 0,126.1 24,252 24,378 v 1029.7 c 0,15.6 0.7,31.1 0,46.6 -10.4,202.1 -45.5,516.4 -122.2,746.3 -94.8,284.4 -182.3,591.6 -324.8,858.8 -171.7,321.9 -353.3,526.9 -593.2,793.6 -79.9,88.8 -400.2,361.6 -664.5,523 -130.6,79.6 -457.3,223.7 -838.8,276 -300.2,41.2 -608.1,86.3 -911.3,86.3 -152.9,0 -304.8,24.3 -457.1,24.3 -132,0 -266.3,-20.9 -398.3,-30.7 -346.2,-25.6 -690.7,-75.4 -1037.7,-82.8 -92.3,-2 -377.7,-60.1 -395.5,-52 -137.7,61.9 -287.1,61.9 -436.4,81.5 -331.4,43.4 -660.9,96.7 -991,148.8 -181.2,28.5 -408,73.3 -557.2,78.9 -62.7,2.3 -172.2,-19.6 -247.97,-36.4 -52.73,-11.7 -309.02,-64.1 -404.03,-159.3 -44.98,-45.1 -91.78,-92.1 -91.78,-92.1 0,0 -471.48,86.1 -864.22,47.9 -385.63,-37.4 -692.35,-198.8 -725.89,-210 -5.8,-1.9 -14.34,-7.7 -21.27,-3.2 -54.16,35.1 -135.58,21.7 -177.56,24 -68.09,3.8 -143.83,-9.6 -203.07,-26.8 -23.01,240.9 -170.68,370.9 -383,370.9 -234.72,0 -424.99,-190.3 -424.99,-425 0,-80.9 22.64,-156.6 61.91,-221 -1.86,-19.4 -8.96,-37.5 -18.92,-54.8 -20.55,-35.7 -28.28,-55.2 -53.36,-76 -34.72,-28.9 -68.69,-56.9 -100.9,-85.4 -83.71,-49.1 -156.18,-141 -200.71,-258 -11.62,-28.4 -20.99,-58.8 -27.77,-91.6 -4.1,-17.8 -7.65,-36 -10.48,-54.6 -14.56,-95.5 -9.45,-187.5 11.26,-267.9 -1.42,-54.5 -11.04,-107 -40.59,-155.9 -34.33,-56.8 -94.4,-98 -117.73,-163 -18.61,-51.9 -45.67,-114.6 -103.55,-145.9 -89.02,-48.2 -215.62,-51 -221.32,-51.3 -10.7,1.8 -21.62,2.9 -32.82,2.9 -109.08,0 -197.5,-88.4 -197.5,-197.5 0,-82.9 51.2,-153.8 123.65,-183 22.46,-16.5 47.18,-32.8 73.03,-50.1 42.78,-28.7 42.6,-79 44.05,-125.8 -0.04,-0.3 -0.14,-0.6 -0.17,-0.9 -2.25,-18.9 0.26,-37.5 6.42,-55.2 1.45,-5.2 3.23,-10.1 5.5,-14.7 0.38,-0.8 1.01,-1.6 1.46,-2.4 0.09,0 0.24,-0.1 0.34,-0.1 26.92,-52.9 88.88,-94.3 165.09,-103.3 25.09,-3 49.44,-2.1 72.3,1.9 -15.78,-55.7 -0.65,-126.1 45.33,-184.5 2.98,-3.8 6.11,-7.3 9.24,-10.9 45.2,-91.2 139.09,-154.1 247.82,-154.1 23.36,0 46.03,2.9 67.7,8.4 12.69,1.1 26.15,2.8 40.96,5.3 56.19,9.5 116.01,16.2 170.65,-2 139.47,-46.6 278.58,-93.6 424.08,-117.8 168.03,-28 329.72,-46.7 499.62,-59 80.75,-5.9 116.37,-10.2 102.66,-106.4 -10.21,-71.6 -28.02,-139.5 -13.86,-210.6 27.97,-140.3 74.12,-268.1 38.47,-408.6 -32.34,-127.4 -160.5,-232.6 -256.58,-328.7 -100.65,-100.7 -225.5,-203.1 -290.14,-332.7 -75.64,-151.6 -101.18,-277.3 -101.18,-445.5 0,-304 149.15,-544.4 389.33,-721.4 500.43,-369 834.65,-308.1 834.65,-308.1 0,0 0,440 0,481.6 0,33.1 0,190.6 0,190.6 0,0 -1.5,-0.5 0,0 41.61,13.9 175.5,57.8 218.37,72.8 280.28,98.3 559.23,244 786.25,361.9 59.4,30.9 107.11,60.4 158.74,86.9 4.23,2.2 68.01,57.4 107.11,121.6 23.15,38.1 32.77,74.7 45.79,117.6 3.55,51.2 3.55,165.5 3.55,223.1 v 216 c 76.73,-89.8 145.64,-81.8 234.99,-118.1 53.01,-21.6 101.15,-49.6 101.15,-49.6 0,0 -15.22,-76.2 -29.04,-145.5 -34.69,-173.9 -44.22,-351 -67.17,-526.8 -20.04,-153.4 -40.04,-307.4 -76.95,-457.6 -34.9,-142 -10.15,-275.6 -19.52,-416.6 -6.04,-90.7 -16.21,-243.6 -23.11,-366.7 -1.89,-33.7 -25.97,-59.4 -48.07,-78.7 -104.43,-91.5 -305.51,-44.3 -431.96,-72.2 -147.39,-32.5 -245.63,-93.7 -320.99,-229 -33.92,-60.9 -87.33,-131.4 -87.33,-131.4 0,-24.4 0,-95.8 0,-95.8 0,0 54.64,0 67.25,0 H 10516 c 406.8,0 533.3,339.5 596.8,456.2 70,128.3 113.3,276.7 169.3,411.2 106.6,255.8 209.9,574.1 298.2,873.8 46.8,158.9 106.2,399.5 143.9,609.1 3.1,17.1 33.8,273.2 36.6,289.8 l 263.9,-168 c 61.6,-25 266.1,-181.6 263.9,-191.8 -2.1,-9.7 9.2,-94.1 -21.8,-141.8 -12.9,-55.3 -27.8,-111 -33.4,-156.1 -9,-72 -28.7,-157.1 -16.7,-230.2 4.5,-27.5 22.7,-161 31.4,-175.5 44.7,-73.8 78.6,-116.2 136.7,-184.4 41.4,-48.6 84.9,-92.4 125.8,-141.5 106.8,-128.4 193.8,-232.9 333.2,-350.3 65.9,-55.5 288.8,-241.5 309.1,-300.6 13.2,-38.7 -280.1,-112 -384.3,-168 -117.4,-63.1 -273.6,-127.3 -347.9,-251.7 -21.9,-36.7 -177.8,-323.9 -72.5,-323.9 h 1640.6 c 157.2,0 536.2,0 536.2,0 0,0 91.2,32.3 128.1,133 74.6,203.6 44.9,290.1 59.5,459.7 8.5,98.9 -71.9,343.3 -71.9,343.3 0,0 17.7,8.9 25,12.5 287.2,143.8 493,337.4 719.1,563.2 234.5,-353.4 530.1,-669.6 816,-984 -103.5,-68.8 -243.5,-122.8 -330.8,-210.5 -41.8,-41.9 -87.9,-86.2 -107.2,-143.8 -2,-5.9 -59.5,-173.4 -41.3,-173.4 h 1062.1 c 62.1,0 154.7,0 154.7,0 0,0 83.6,40.1 141.5,84.2 140,106.5 271,190.6 411.6,281 117.9,75.8 246.8,140.9 346.6,239.8 93.5,92.4 106.7,253.4 114.6,379.6 10.1,162 -108.3,308.7 -119.8,407"
         style="fill:#231f20;fill-opacity:1;fill-rule:nonzero;stroke:none"
         transform="matrix(0.13333333,0,0,-0.13333333,0,3139.72)" />
    </g>
  </g>
</svg>
