<?xml version="1.0" standalone="no"?>
<svg width="2968px" height="2968px" viewBox="-12 -2164 2968 2968 " xmlns="http://www.w3.org/2000/svg" xmlns:xlink="http://www.w3.org/1999/xlink">
<title>generated by pstoedit</title>
<!-- generated by pstoedit version:4.02 -->
<g xml:space='preserve'>
<clipPath id="clippath1"> 	<path d="
	M 0 -2151.36 
	L 0 792 
	L 2943.36 792 
	L 2943.36 -2151.36 
	Z 
	" style="clip-rule:nonzero"/>
</clipPath>
<g style="clip-path:url(#clippath1)"> 
<g fill="#95e8ff" fill-rule="nonzero" stroke-width="0" stroke-linejoin="miter" stroke-linecap="butt" stroke-miterlimit="10" >
	<path d="
	M 1567.14 752.211 
	C 1514.42 804.93 1428.94 804.93 1376.22 752.211 
	L 39.7891 -584.22 
	C -12.9297 -636.94 -12.9297 -722.42 39.7891 -775.14 
	L 1376.22 -2111.57 
	C 1428.94 -2164.29 1514.42 -2164.29 1567.14 -2111.57 
	L 2903.57 -775.14 
	C 2956.29 -722.42 2956.29 -636.94 2903.57 -584.22 
	Z 
	"/>
</g>
<g stroke="#7f7f7f" fill="none" stroke-width="0.5" stroke-linejoin="miter" stroke-linecap="butt" stroke-miterlimit="4" >
	<path d="
	M 1567.14 752.211 
	C 1514.42 804.93 1428.94 804.93 1376.22 752.211 
	L 39.7891 -584.22 
	C -12.9297 -636.94 -12.9297 -722.42 39.7891 -775.14 
	L 1376.22 -2111.57 
	C 1428.94 -2164.29 1514.42 -2164.29 1567.14 -2111.57 
	L 2903.57 -775.14 
	C 2956.29 -722.42 2956.29 -636.94 2903.57 -584.22 
	Z 
	"/>
</g>
<g fill="#7f7f7f" fill-rule="nonzero" stroke-width="0" stroke-linejoin="miter" stroke-linecap="butt" stroke-miterlimit="4" >
	<path d="
	M 2839.93 -647.86 
	L 1503.5 688.57 
	C 1485.96 706.121 1457.41 706.121 1439.86 688.57 
	L 103.43 -647.86 
	C 85.8828 -665.4 85.8867 -693.95 103.43 -711.5 
	L 1439.86 -2047.93 
	C 1457.41 -2065.48 1485.96 -2065.48 1503.5 -2047.93 
	L 2839.93 -711.5 
	C 2857.48 -693.95 2857.48 -665.4 2839.93 -647.86 
	Z 
	M 2878.12 -749.68 
	L 1541.68 -2086.11 
	C 1503.08 -2124.71 1440.28 -2124.71 1401.68 -2086.11 
	L 65.2461 -749.68 
	C 26.6484 -711.08 26.6445 -648.28 65.2461 -609.67 
	L 1401.68 726.762 
	C 1440.28 765.359 1503.08 765.359 1541.68 726.762 
	L 2878.12 -609.67 
	C 2916.72 -648.28 2916.72 -711.08 2878.12 -749.68 
	Z 
	"/>
</g>
<g fill="#7f7f7f" fill-rule="evenodd" stroke-width="0" stroke-linejoin="miter" stroke-linecap="butt" stroke-miterlimit="4" >
	<path d="
	M 1125.75 -1013.48 
	C 1128.95 -1002.35 1145.32 -1002.5 1154.19 -1004.18 
	C 1169.42 -1007.07 1184.5 -1008.44 1199.81 -1010.28 
	C 1213.6 -1011.92 1225.01 -1018.75 1237.59 -1024.06 
	C 1250.17 -1029.34 1261.1 -1034.69 1270.01 -1045.35 
	C 1278.29 -1055.28 1286.77 -1067.11 1298.37 -1073.44 
	C 1311.06 -1080.36 1323.6 -1084.96 1334.7 -1094.57 
	C 1345.56 -1103.99 1356.57 -1114.11 1366.61 -1124.34 
	C 1376.38 -1134.22 1381.03 -1145.59 1386.85 -1157.89 
	C 1392.67 -1170.24 1400.21 -1179.65 1400.6 -1193.71 
	C 1400.72 -1197.43 1399.39 -1223.32 1394.82 -1223.25 
	C 1391.5 -1223.21 1387.32 -1193.99 1386.18 -1189.93 
	C 1382.32 -1176.37 1377.28 -1163.6 1370.44 -1151.25 
	C 1363.65 -1139.07 1353.8 -1128.01 1345.36 -1116.92 
	C 1339.19 -1108.75 1326.85 -1097.11 1316.07 -1095.9 
	C 1301.18 -1094.22 1332.82 -1156.02 1326.03 -1157.74 
	C 1320.75 -1159.07 1308.76 -1134.89 1306.81 -1130.86 
	C 1300.71 -1118.21 1296.73 -1104.77 1290.99 -1091.96 
	C 1285.52 -1079.69 1276.5 -1067.58 1265.91 -1059.3 
	C 1256.1 -1051.61 1241.85 -1052.46 1241.1 -1066.96 
	C 1240.75 -1073.87 1242.7 -1080.28 1241.61 -1087.23 
	C 1240.44 -1094.26 1238.17 -1101.14 1235.79 -1107.82 
	C 1233.33 -1114.65 1229.81 -1125.51 1229.07 -1111.88 
	C 1227.55 -1085.4 1230.21 -1055.94 1210.99 -1034.22 
	C 1196.49 -1017.82 1190.28 -1028.56 1188.17 -1045.28 
	C 1187.47 -1050.43 1179.38 -1079.14 1175.67 -1064.65 
	C 1171.38 -1047.7 1182.7 -1035.9 1165.95 -1023.24 
	C 1158.76 -1017.74 1153.17 -1016.37 1144.23 -1017.03 
	C 1139.62 -1017.35 1127.16 -1020.24 1125.75 -1013.48 
	M 983.602 -1025.08 
	C 986.844 -1036.06 974.105 -1041.18 965.555 -1040.82 
	C 951.727 -1040.16 938.836 -1041.33 925.086 -1042.89 
	C 912.82 -1044.3 902.469 -1048.09 896.453 -1059.61 
	C 892.816 -1066.6 888.441 -1092.19 877.234 -1092.43 
	C 870.008 -1092.58 878.246 -1071.29 879.887 -1066.64 
	C 883.324 -1057.07 893.246 -1041.53 886.844 -1031.49 
	C 880.203 -1021.1 862.938 -1023.52 853.441 -1027.5 
	C 847.816 -1029.89 843.09 -1033.09 838.988 -1037.54 
	C 835.902 -1040.94 833.637 -1049.73 829.418 -1051.57 
	C 819.496 -1055.9 824.145 -1040.71 826.215 -1036.29 
	C 830.98 -1026.29 835.199 -1012.23 820.004 -1008.83 
	C 807.66 -1006.02 796.02 -1016.41 785.824 -1021.45 
	C 780.629 -1023.99 759.027 -1026.6 767.191 -1014.92 
	C 775.355 -1003.25 786.332 -999.14 799.574 -995.74 
	C 813.832 -992.15 823.012 -987.58 837.543 -993.44 
	C 851.801 -999.18 865.785 -1005.16 880.277 -1010.12 
	C 894.105 -1014.85 908.641 -1015.24 922.742 -1018.32 
	C 933.484 -1020.67 944.105 -1024.85 955.164 -1025.24 
	C 962.352 -1025.51 978.328 -1019.46 983.602 -1025.08 
	M 1294.31 -1051.53 
	C 1324 -1053.4 1352.82 -1057.58 1382.63 -1055.63 
	C 1411.3 -1053.75 1437.79 -1043.21 1463.29 -1030.7 
	C 1491.3 -1016.95 1518.72 -1002.03 1547.12 -989.03 
	C 1574.78 -976.37 1604.08 -970 1633.26 -961.76 
	C 1660.87 -953.99 1685.48 -950.12 1714.16 -953.99 
	C 1743.65 -957.93 1774.74 -960.32 1803.45 -968.09 
	C 1831.77 -975.82 1856.26 -986.72 1886.42 -984.1 
	C 1915.17 -981.64 1942.24 -976.45 1966.35 -959.69 
	C 2013.57 -926.88 2055.25 -875.27 2076.38 -821.99 
	C 2086.47 -796.6 2098.22 -766.68 2088.14 -740.31 
	C 2077.52 -712.58 2085.45 -682.07 2091.19 -654.26 
	C 2096.97 -626.17 2102.36 -597.65 2104.75 -569.1 
	C 2106.97 -541.79 2101.23 -507.73 2114.04 -482.77 
	C 2126.31 -458.86 2152.72 -440.82 2156.54 -412.5 
	C 2158.5 -397.81 2154.4 -383.28 2155.49 -368.59 
	C 2156.5 -354.92 2160.29 -341.75 2162.67 -328.28 
	C 2168.07 -297.85 2173.07 -267.06 2181.35 -237.26 
	C 2185.37 -222.73 2190.41 -208.94 2197.05 -195.379 
	C 2202.6 -183.98 2211.43 -171.281 2209.47 -158.039 
	C 2207.75 -146.711 2196.43 -139.641 2194.51 -127.531 
	C 2192.44 -114.129 2195.1 -101.281 2197.79 -88.27 
	C 2203.03 -62.84 2173.77 -40.691 2150.06 -43.969 
	C 2141.47 -45.23 2121.07 -41.98 2115.06 -48.941 
	C 2107.75 -57.488 2114.39 -76.359 2116.46 -85.891 
	C 2122.21 -112.371 2142.91 -132.73 2145.37 -160.191 
	C 2147.95 -188.699 2132.75 -216.64 2124.78 -243.43 
	C 2116 -273.08 2107.75 -302.88 2098.73 -332.46 
	C 2094.51 -346.4 2090.06 -358.67 2081.46 -370.62 
	C 2072.91 -382.46 2064.36 -393.12 2059.39 -407.07 
	C 2054.59 -420.66 2055.17 -436.05 2049.47 -449.33 
	C 2043.57 -462.93 2035.37 -472.81 2024.94 -483.12 
	C 2004.51 -503.24 1988.57 -526.17 1974.04 -550.9 
	C 1968.69 -560 1942.4 -618.63 1926.82 -597.34 
	C 1921.11 -589.49 1923.61 -569.45 1923.61 -560.31 
	C 1923.61 -545.82 1923.85 -531.17 1925.88 -516.68 
	C 1930.21 -486.52 1935.45 -459.22 1952.99 -433.82 
	C 1960.25 -423.24 1972.71 -412.53 1973.06 -399.02 
	C 1973.38 -386.75 1965.92 -374.33 1961.78 -363.08 
	C 1950.96 -333.63 1943.61 -304.02 1938.46 -273.08 
	C 1936.11 -258.82 1934.24 -244.45 1932.17 -230.15 
	C 1930.1 -215.78 1926.27 -201.16 1926.23 -186.59 
	C 1926.15 -170.73 1927.13 -158.039 1917.99 -144.41 
	C 1910.49 -133.309 1896.66 -126.711 1896.34 -112.102 
	C 1896.07 -96.75 1898.14 -87.059 1889.08 -73.352 
	C 1883.41 -64.871 1867.44 -55.691 1857.56 -53.391 
	C 1847.44 -51.078 1827.75 -46.48 1820.64 -55.5 
	C 1818.1 -58.699 1818.41 -64.801 1813.38 -64.719 
	C 1809.66 -64.641 1808.1 -59.559 1803.3 -60.578 
	C 1792.09 -62.84 1795.99 -76.199 1801.23 -81.941 
	C 1811.58 -93.23 1822.08 -103.941 1831.66 -115.93 
	C 1847.4 -135.699 1869.27 -159.871 1871.77 -186.012 
	C 1874.78 -217.26 1876.27 -248.7 1878.22 -280.07 
	C 1879.9 -307.57 1881.93 -336.36 1875.1 -363.35 
	C 1867.95 -391.64 1855.17 -418.28 1839.94 -443.08 
	C 1825.56 -466.36 1805.6 -488.9 1797.59 -515.31 
	C 1795.64 -521.91 1794.04 -528.59 1792.59 -535.31 
	C 1792.16 -537.26 1792.4 -543.67 1791.07 -544.72 
	C 1789.47 -545.9 1779.74 -543.16 1777.75 -542.89 
	C 1763.73 -540.97 1749.66 -538.98 1735.49 -538.08 
	C 1703.77 -535.97 1673.73 -538.67 1642.2 -541.87 
	C 1612.82 -544.8 1585.48 -538.43 1557.79 -529.45 
	C 1544.15 -525 1529.54 -519.1 1515.05 -518.43 
	C 1500.6 -517.77 1486.26 -519.96 1471.89 -519.14 
	C 1459.93 -518.47 1450.68 -511.56 1449.82 -499.37 
	C 1448.84 -484.88 1450.52 -472.65 1444.82 -458.75 
	C 1433.65 -431.67 1420.75 -410.62 1425.75 -380.19 
	C 1430.4 -352.22 1442.75 -324.92 1451.46 -298.08 
	C 1461.11 -268.47 1469.19 -238.51 1477.86 -208.7 
	C 1482.16 -193.941 1486.3 -179.129 1491.53 -164.719 
	C 1494.89 -155.422 1506.46 -143.121 1505.75 -133.469 
	C 1505.36 -128 1500.95 -122.02 1499.08 -116.98 
	C 1496.5 -110.148 1496.34 -102.289 1496.54 -95.109 
	C 1496.85 -85.27 1503.57 -62.41 1496.85 -54.441 
	C 1490.09 -46.32 1472.79 -44.25 1462.86 -44.441 
	C 1447.71 -44.602 1444.5 -42.059 1438.02 -27.73 
	C 1425.32 0.320007 1401.69 0.828003 1374.39 2.12097 
	C 1365.6 2.51202 1351.81 8.87903 1348.14 -2.02002 
	C 1343.18 -16.859 1340.21 -4.789 1330.13 -7.64801 
	C 1311.77 -12.73 1349.23 -62.84 1356.61 -67.84 
	C 1367.47 -75.191 1384.86 -77.371 1392.47 -88.512 
	C 1399.43 -98.66 1398.84 -114.012 1399.15 -125.809 
	C 1400.01 -156.871 1396.81 -186.988 1392.16 -217.57 
	C 1383.33 -276.24 1374.93 -336.17 1360.79 -393.78 
	C 1353.72 -422.53 1345.52 -450.86 1341.18 -480.15 
	C 1339 -495 1348.64 -507.34 1347.51 -521.01 
	C 1346.5 -533.71 1339.19 -548.82 1329.78 -557.54 
	C 1320.83 -565.82 1310.75 -573.86 1304.11 -584.41 
	C 1301.34 -588.86 1295.28 -611.4 1287.39 -609.1 
	C 1279.35 -606.68 1287.98 -584.02 1290.48 -579.69 
	C 1297.28 -567.61 1308.84 -559.14 1317.2 -548.24 
	C 1323.1 -540.5 1337.39 -527.11 1336.89 -516.87 
	C 1336.26 -505.31 1325.48 -505.15 1318.1 -510.07 
	C 1306.61 -517.73 1298.76 -529.68 1287.86 -537.81 
	C 1277.98 -545.19 1263.37 -542.3 1255.13 -551.05 
	C 1235.6 -571.91 1255.6 -603.12 1235.6 -623.12 
	C 1226.69 -632.07 1232.59 -599.49 1232.9 -596.6 
	C 1233.88 -587.34 1239.11 -568.59 1230.83 -561.48 
	C 1219.7 -551.99 1206.26 -568.83 1201.1 -576.99 
	C 1193.25 -589.41 1193.02 -602.97 1190.32 -616.95 
	C 1187.71 -630.43 1181.81 -645.47 1177.12 -658.44 
	C 1172.78 -670.51 1157.55 -680.78 1147.74 -688.4 
	C 1123.88 -706.95 1115.99 -740 1104.58 -767.11 
	C 1099.97 -778.24 1093.91 -784.84 1106.96 -790.16 
	C 1119.66 -795.27 1129.89 -805.31 1134.58 -818.63 
	C 1135.87 -822.34 1137.51 -841.37 1131.34 -839.41 
	C 1129.07 -838.71 1125.59 -824.65 1123.99 -821.72 
	C 1120.83 -816.17 1116.61 -810.9 1111.73 -806.76 
	C 1101.61 -798.09 1087.94 -794.34 1077.43 -785.98 
	C 1065.87 -776.8 1064.46 -768.83 1068.06 -754.76 
	C 1070.59 -744.69 1073.37 -732.66 1066.73 -723.51 
	C 1059.38 -713.44 1044.27 -712.58 1033.99 -706.17 
	C 1023.02 -699.34 1012.59 -688.2 998.523 -691.95 
	C 984.617 -695.63 975.906 -705.47 960.281 -704.06 
	C 946.492 -702.85 945.438 -701.48 940.359 -715.51 
	C 937.977 -722.03 936.023 -726.13 929.578 -729.34 
	C 924.109 -732.03 918.402 -732.69 914.93 -738.28 
	C 907.859 -749.65 917.738 -765.43 918.836 -777.42 
	C 920.086 -791.06 917.859 -804.88 919.227 -818.52 
	C 920.633 -832.19 925.863 -845.66 932.313 -857.81 
	C 939.266 -870.98 946.805 -878.91 947.074 -894.49 
	C 947.391 -908.09 953.484 -920.94 956.844 -933.95 
	C 960.633 -948.48 957.742 -963.44 959.695 -978.2 
	C 960.477 -984.22 972.703 -1004.61 969.969 -1008.56 
	C 965.711 -1014.69 939.461 -1003.64 933.602 -1002.7 
	C 926.844 -1001.6 920.004 -1003.21 913.25 -1003.28 
	C 905.359 -1003.32 898.875 -1000.63 891.297 -999.22 
	C 875.984 -996.41 862.152 -991.53 847.738 -985.75 
	C 835.16 -980.71 822.426 -975.28 808.715 -978.36 
	C 796.645 -981.06 781.684 -984.88 771.332 -991.72 
	C 760.395 -998.99 748.988 -1004.53 738.012 -1011.41 
	C 732.23 -1015.08 727.426 -1019.77 721.293 -1022.89 
	C 715.863 -1025.71 709.262 -1027.35 706.059 -1033.13 
	C 700.277 -1043.56 707.23 -1055.9 717.895 -1059.42 
	C 730.316 -1063.48 739.105 -1053.71 749.145 -1048.6 
	C 754.848 -1045.67 761.059 -1043.79 766.84 -1041.14 
	C 772.699 -1038.48 780.082 -1033.25 786.41 -1032.58 
	C 790.746 -1032.07 790.004 -1030.43 790.629 -1033.17 
	C 791.41 -1036.56 783.246 -1048.32 781.059 -1051.14 
	C 764.418 -1072.46 746.566 -1094.1 731.879 -1117.07 
	C 722.855 -1131.18 720.863 -1144.93 717.973 -1161.18 
	C 716.84 -1167.19 716.566 -1173.48 715.121 -1179.42 
	C 713.832 -1184.65 710.316 -1189.11 709.066 -1194.22 
	C 707.66 -1200.24 709.145 -1205.9 706.918 -1212 
	C 704.379 -1218.79 700.238 -1224.69 698.715 -1231.88 
	C 697.27 -1238.6 695.707 -1257.15 706.371 -1257.39 
	C 710.238 -1257.47 714.887 -1252.86 718.012 -1251.18 
	C 721.605 -1249.26 725.004 -1250.47 728.715 -1249.61 
	C 739.77 -1247.15 744.184 -1235.55 743.949 -1225.2 
	C 743.832 -1220.36 740.668 -1214.54 742.699 -1209.81 
	C 744.613 -1205.32 750.629 -1202.46 753.676 -1198.64 
	C 759.535 -1191.25 770.941 -1175 767.934 -1194.46 
	C 765.902 -1207.78 763.598 -1219.89 757.426 -1232.07 
	C 754.105 -1238.64 750.238 -1245.24 747.621 -1252.11 
	C 746.137 -1256.06 742.465 -1265.9 742.543 -1269.69 
	C 742.66 -1276.06 752.855 -1288.68 759.496 -1287 
	C 767.816 -1284.89 774.34 -1261.49 777.621 -1254.46 
	C 779.848 -1249.73 789.809 -1235.82 793.207 -1247.55 
	C 796.215 -1257.94 791.02 -1277.27 787.934 -1287.51 
	C 784.301 -1299.54 761.293 -1345.75 793.559 -1340.16 
	C 819.926 -1335.63 812.934 -1295.79 834.535 -1285.24 
	C 842.352 -1281.45 835.824 -1300.75 836.02 -1304.34 
	C 836.332 -1310.09 834.652 -1327.82 841.723 -1330.36 
	C 852.547 -1334.27 858.598 -1324.54 858.637 -1315.05 
	C 858.676 -1310.55 861.063 -1290.95 868.48 -1302.55 
	C 873.207 -1309.89 862.855 -1322.35 865.004 -1331.69 
	C 868.324 -1346.26 873.797 -1339.03 882.113 -1333.72 
	C 890.047 -1328.64 895.281 -1336.34 902.938 -1333.52 
	C 912.82 -1329.93 912 -1314.18 916.879 -1306.72 
	C 921.297 -1312.19 915.551 -1327.98 924.617 -1330.79 
	C 934.5 -1333.84 939.184 -1313.52 940.984 -1307.86 
	C 945.164 -1294.73 949.656 -1283.36 947.43 -1269.42 
	C 945.359 -1256.45 943.016 -1243.21 940.711 -1230.28 
	C 938.367 -1217.19 928.754 -1207.43 925.047 -1194.85 
	C 921.258 -1182 920.004 -1169.11 919.188 -1155.82 
	C 918.563 -1145.47 914.77 -1128.75 919.926 -1119.38 
	C 925.594 -1108.91 923.172 -1096.8 926.688 -1085.78 
	C 927.898 -1081.92 938.641 -1061.1 945.121 -1068.25 
	C 947.625 -1070.98 943.211 -1076.57 942.508 -1078.91 
	C 940.789 -1084.81 940.594 -1091.76 940.359 -1097.86 
	C 939.813 -1111.72 937.859 -1125.08 941.57 -1138.6 
	C 942.781 -1142.78 944.969 -1146.88 945.082 -1151.18 
	C 945.242 -1157 940.945 -1161.96 943.523 -1168.01 
	C 947.313 -1176.88 964.148 -1177 971.883 -1173.91 
	C 984.93 -1168.71 989.305 -1156.57 997.156 -1146.14 
	C 1005.2 -1135.43 1009.5 -1124.34 1014.58 -1112.04 
	C 1016.77 -1106.64 1017.31 -1100.82 1019.73 -1095.55 
	C 1021.26 -1092.19 1028.09 -1081.57 1031.92 -1080.67 
	C 1036.34 -1079.61 1037.39 -1083.09 1040.91 -1085.43 
	C 1044.15 -1087.58 1047.51 -1087.11 1050.98 -1087.66 
	C 1061.92 -1089.3 1069.23 -1095.28 1080.87 -1095.43 
	C 1086.84 -1095.55 1091.65 -1095.04 1097.47 -1093.6 
	C 1102.63 -1092.31 1101.77 -1096.33 1102.7 -1100.04 
	C 1104.97 -1109.42 1106.18 -1120.43 1108.99 -1129.42 
	C 1110.28 -1133.68 1114.03 -1135.98 1116.02 -1140 
	C 1118.21 -1144.5 1117.7 -1149.42 1121.45 -1153.29 
	C 1128.76 -1160.9 1128.68 -1174.65 1135.44 -1183.52 
	C 1145.44 -1196.68 1177.55 -1235.9 1192.47 -1206.37 
	C 1197.74 -1195.94 1187.04 -1184.57 1190.09 -1173.25 
	C 1191.57 -1167.74 1195.71 -1163.48 1197.67 -1158.21 
	C 1200.13 -1151.57 1200.63 -1144.3 1201.65 -1137.31 
	C 1203.49 -1124.69 1206.81 -1111.84 1200.6 -1099.96 
	C 1197.78 -1094.53 1194.46 -1091.06 1195.28 -1084.69 
	C 1195.67 -1081.68 1199.11 -1071.76 1203.53 -1072.19 
	C 1206.65 -1072.5 1210.71 -1081.76 1212.16 -1084.18 
	C 1216.06 -1090.86 1214.46 -1097.74 1214.82 -1105.08 
	C 1215.4 -1118.56 1216.85 -1130.82 1213.92 -1144.22 
	C 1211.96 -1153.21 1207.35 -1170.82 1220.13 -1175.2 
	C 1234.42 -1180.12 1230.71 -1162.27 1231.22 -1155.36 
	C 1231.73 -1147.58 1234.7 -1129.34 1244.81 -1128.48 
	C 1259.78 -1127.23 1262.08 -1149.73 1262.74 -1159.54 
	C 1263.21 -1165.98 1259.78 -1171.25 1258.56 -1177.35 
	C 1257.28 -1183.71 1258.17 -1190.28 1256.57 -1196.61 
	C 1253.21 -1210.01 1245.99 -1222.78 1244.19 -1236.37 
	C 1242.12 -1252.04 1245.09 -1265.16 1249.97 -1279.96 
	C 1251.57 -1284.93 1251.69 -1289.26 1251.92 -1294.42 
	C 1252.24 -1300.12 1255.24 -1304.34 1256.61 -1309.73 
	C 1258.1 -1315.36 1257.43 -1321.41 1258.68 -1327.11 
	C 1259.81 -1332.35 1264.23 -1337.11 1266.57 -1341.92 
	C 1269.23 -1347.43 1269.39 -1354.23 1276.1 -1352.43 
	C 1280.52 -1351.26 1286.65 -1341.65 1289.39 -1337.86 
	C 1295.32 -1329.69 1298.17 -1351.53 1299.5 -1353.25 
	C 1306.65 -1362.23 1321.46 -1358.52 1331.65 -1361.22 
	C 1342.86 -1364.23 1354.54 -1367.16 1359.04 -1352.59 
	C 1362.63 -1341.02 1349.7 -1345.16 1349.19 -1337 
	C 1348.88 -1332.11 1356.15 -1323.56 1357.47 -1331.57 
	C 1358.37 -1337.39 1367.9 -1352.47 1375.29 -1348.91 
	C 1399.93 -1337.04 1374.19 -1294.34 1372.86 -1276.92 
	C 1371.89 -1264.38 1383.14 -1265.12 1388.61 -1273.87 
	C 1391.07 -1277.93 1390.79 -1280.67 1395.32 -1283.09 
	C 1398.92 -1285.05 1402.98 -1283.56 1405.32 -1287.55 
	C 1406.96 -1290.52 1404.82 -1295.94 1405.32 -1299.3 
	C 1406.03 -1304.54 1408.72 -1311.26 1412.71 -1314.81 
	C 1420.83 -1322.08 1425.29 -1314.23 1428.14 -1306.06 
	C 1437.86 -1278.17 1426.15 -1246.96 1421.65 -1218.68 
	C 1417.16 -1190.39 1408.25 -1161.68 1393.25 -1137.23 
	C 1381.73 -1118.36 1363.68 -1103.75 1348.21 -1088.32 
	C 1340.87 -1081.02 1329.03 -1078.99 1320.13 -1073.91 
	C 1310.01 -1068.17 1302.47 -1059.65 1294.31 -1051.53 
	M 1171.3 -1158.44 
	C 1149.38 -1170.98 1143.41 -1120.98 1143.76 -1108.91 
	C 1143.88 -1105.39 1145.67 -1085.24 1151.65 -1086.49 
	C 1158.49 -1087.89 1153.48 -1107.62 1154.7 -1112.04 
	C 1162.39 -1139.65 1177.71 -1095 1184.42 -1098.4 
	C 1189.7 -1101.06 1183.41 -1121.88 1181.73 -1126.06 
	C 1178.13 -1134.93 1178.6 -1152.39 1171.3 -1158.44 
	M 954.734 -1124.69 
	C 946.453 -1113.52 952.156 -1091.14 953.719 -1077.74 
	C 954.891 -1067.31 957.352 -1068.83 964.188 -1063.99 
	C 969.227 -1060.43 971.727 -1049.92 978.094 -1049.38 
	C 979.773 -1049.26 983.172 -1045.98 984.188 -1046.33 
	C 986.18 -1047 987 -1054.81 986.922 -1056.61 
	C 986.336 -1069.38 972.859 -1083.21 968.168 -1094.53 
	C 963.914 -1104.96 959.656 -1114.46 954.734 -1124.69 
	M 1083.17 -956.17 
	C 1075.05 -961.88 1068.56 -961.96 1060.13 -957.15 
	C 1053.87 -953.6 1048.76 -947.78 1053.64 -940.31 
	C 1062.59 -926.76 1082.27 -945 1083.17 -956.17 
	M 1432.51 -221.13 
	C 1435.21 -229.56 1428.53 -228.94 1427.16 -221.13 
	C 1424.9 -208.59 1429.66 -191.988 1430.75 -179.289 
	C 1432.16 -163.898 1438.65 -149.328 1444.54 -135.738 
	C 1445.21 -134.25 1450.52 -120.73 1451.89 -126.672 
	C 1454.27 -137.02 1448.1 -154.25 1445.87 -164.441 
	C 1442.2 -181.199 1429.78 -203.621 1432.51 -221.13 
	M 1030.09 -758.98 
	C 1022.9 -762.69 1018.52 -759.61 1017.23 -752.23 
	C 1016.73 -749.53 1015.16 -747.07 1017.98 -745.31 
	C 1020.79 -743.55 1021.3 -747.46 1023.64 -747.07 
	C 1027.43 -746.48 1032.94 -739.61 1036.57 -744.92 
	C 1039.15 -748.67 1032.55 -756.33 1030.09 -758.98 
	M 1003.8 -1041.21 
	C 1017.78 -1036.41 1015.79 -1065.16 1009.34 -1069.96 
	C 1004.3 -1073.71 1004.23 -1070.63 1004.15 -1064.46 
	C 1004.07 -1058.71 999.734 -1045.39 1003.8 -1041.21 
	"/>
</g>
</g >
</g>
</svg>
