<?xml version="1.0" encoding="UTF-8" standalone="no"?>
<!-- Created with Inkscape (http://www.inkscape.org/) -->

<svg
   version="1.1"
   id="svg1"
   width="3924.48"
   height="3924.48"
   viewBox="0 0 3924.48 3924.48"
   sodipodi:docname="tmp8buqtyim.pdf"
   xmlns:inkscape="http://www.inkscape.org/namespaces/inkscape"
   xmlns:sodipodi="http://sodipodi.sourceforge.net/DTD/sodipodi-0.dtd"
   xmlns="http://www.w3.org/2000/svg"
   xmlns:svg="http://www.w3.org/2000/svg">
  <defs
     id="defs1" />
  <sodipodi:namedview
     id="namedview1"
     pagecolor="#ffffff"
     bordercolor="#000000"
     borderopacity="0.25"
     inkscape:showpageshadow="2"
     inkscape:pageopacity="0.0"
     inkscape:pagecheckerboard="0"
     inkscape:deskcolor="#d1d1d1">
    <inkscape:page
       x="0"
       y="0"
       inkscape:label="1"
       id="page1"
       width="3924.48"
       height="3924.48"
       margin="0"
       bleed="0" />
  </sodipodi:namedview>
  <g
     id="g1"
     inkscape:groupmode="layer"
     inkscape:label="1">
    <g
       id="group-R5">
      <path
         id="path2"
         d="m 15671.4,397.902 c -527.2,-527.199 -1382,-527.199 -1909.2,0 L 397.898,13762.2 c -527.207,527.2 -527.207,1382 0,1909.2 L 13762.2,29035.7 c 527.2,527.2 1382,527.2 1909.2,0 L 29035.7,15671.4 c 527.2,-527.2 527.2,-1382 0,-1909.2 L 15671.4,397.902"
         style="fill:#fccc2d;fill-opacity:1;fill-rule:nonzero;stroke:#231f20;stroke-width:5;stroke-linecap:butt;stroke-linejoin:miter;stroke-miterlimit:4;stroke-dasharray:none;stroke-opacity:1"
         transform="matrix(0.13333333,0,0,-0.13333333,0,3924.48)" />
      <path
         id="path3"
         d="m 652.461,14016.7 c -386,386.1 -385.996,1014.1 0,1400.1 L 14016.8,28781.1 c 386,386 1014,386 1400,0 L 28781.2,15416.8 c 386,-386 386,-1014 0,-1400.1 L 15416.8,652.402 c -386,-386 -1014,-386 -1400,0 L 652.461,14016.7"
         style="fill:#231f20;fill-opacity:1;fill-rule:nonzero;stroke:none"
         transform="matrix(0.13333333,0,0,-0.13333333,0,3924.48)" />
      <path
         id="path4"
         d="m 1034.3,14398.6 c -175.456,175.4 -175.452,460.9 0,636.4 l 13364.3,13364.3 c 175.5,175.5 461,175.5 636.4,0 L 28399.3,15035 c 175.5,-175.5 175.5,-461 0,-636.4 L 15035,1034.3 c -175.4,-175.499 -460.9,-175.499 -636.4,0 L 1034.3,14398.6"
         style="fill:#fccc2d;fill-opacity:1;fill-rule:nonzero;stroke:none"
         transform="matrix(0.13333333,0,0,-0.13333333,0,3924.48)" />
      <path
         id="path5"
         d="m 6670.5,13756.8 c -50.73,353.7 -190.28,517.9 -431.29,517.9 -418.6,0 -570.81,-328.4 -570.81,-1263.2 0,-1035.8 177.58,-1452.6 621.56,-1452.6 304.42,0 380.54,252.6 380.54,517.9 h 520.08 c -12.69,-593.7 -393.23,-1023.2 -900.62,-1023.2 -773.79,0 -1116.28,619 -1116.28,1945.3 0,1162.1 367.86,1781 1078.21,1781 291.75,0 545.46,-126.3 710.37,-366.3 139.53,-176.8 190.27,-328.4 228.32,-656.8 H 6670.5"
         style="fill:#231f20;fill-opacity:1;fill-rule:nonzero;stroke:none"
         transform="matrix(0.13333333,0,0,-0.13333333,0,3924.48)" />
      <path
         id="path6"
         d="m 24158.5,11558.9 c -139.5,-315.8 -431.3,-505.3 -799.2,-505.3 -431.3,0 -748.4,214.8 -926,619 -114.1,265.2 -190.2,770.5 -190.2,1237.9 0,505.2 38,871.6 164.9,1212.6 126.8,379 494.7,656.8 913.3,656.8 520,0 913.3,-378.9 938.7,-909.4 h -520.1 c -12.7,240 -177.6,404.2 -431.3,404.2 -177.6,0 -317.1,-88.4 -405.9,-265.3 -101.5,-176.8 -164.9,-581 -164.9,-1010.5 0,-303.2 25.3,-619 76.1,-896.9 76.1,-353.6 253.7,-543.1 532.7,-543.1 266.4,0 393.3,176.8 393.3,555.8 v 240 H 23334 v 505.2 h 926 v -745.2 c 0,-252.7 -25.4,-404.2 -101.5,-555.8"
         style="fill:#231f20;fill-opacity:1;fill-rule:nonzero;stroke:none"
         transform="matrix(0.13333333,0,0,-0.13333333,0,3924.48)" />
      <path
         id="path7"
         d="m 18210.2,11116.8 v 3600 h 504 v -3600 h -504"
         style="fill:#231f20;fill-opacity:1;fill-rule:nonzero;stroke:none"
         transform="matrix(0.13333333,0,0,-0.13333333,0,3924.48)" />
      <path
         id="path8"
         d="M 21132.3,11116.8 20023,13529.4 v -2412.6 h -516.8 v 3600 h 516.8 l 983.2,-2160 v 2160 h 516.9 v -3600 h -390.8"
         style="fill:#231f20;fill-opacity:1;fill-rule:nonzero;stroke:none"
         transform="matrix(0.13333333,0,0,-0.13333333,0,3924.48)" />
      <path
         id="path9"
         d="m 11981.6,13819.9 c -89,315.8 -229,454.8 -445.3,454.8 -229,0 -369,-139 -458.1,-442.1 -89,-277.9 -114.5,-517.9 -114.5,-922.1 0,-391.6 38.2,-619 114.5,-909.5 89.1,-303.2 229.1,-442.1 458.1,-442.1 216.3,0 356.3,138.9 445.3,442.1 89.1,290.5 114.5,505.3 114.5,922.1 0,404.2 -38.1,631.6 -114.5,896.8 z m 407.2,-2147.3 c -178.1,-429.5 -445.3,-619 -852.5,-619 -432.6,0 -687.1,189.5 -865.2,619 -152.7,353.7 -203.6,694.7 -203.6,1250.5 0,543.2 50.9,909.5 203.6,1250.5 190.8,429.5 445.3,606.3 865.2,606.3 419.9,0 674.4,-176.8 852.5,-618.9 152.7,-353.7 203.6,-694.7 203.6,-1237.9 0,-555.8 -50.9,-909.5 -203.6,-1250.5"
         style="fill:#231f20;fill-opacity:1;fill-rule:nonzero;stroke:none"
         transform="matrix(0.13333333,0,0,-0.13333333,0,3924.48)" />
      <path
         id="path10"
         d="M 8956.86,14211.5 H 8427.41 V 13302 h 529.45 c 302.53,0 466.4,164.3 466.4,454.8 0,277.9 -189.09,454.7 -466.4,454.7 z m 441.19,-3094.7 -479.03,1692.6 h -491.61 v -1692.6 h -516.83 v 3600 h 1071.47 c 567.27,0 945.43,-379 945.43,-960 0,-429.5 -176.47,-745.3 -516.83,-871.6 l 516.83,-1768.4 h -529.43"
         style="fill:#231f20;fill-opacity:1;fill-rule:nonzero;stroke:none"
         transform="matrix(0.13333333,0,0,-0.13333333,0,3924.48)" />
      <path
         id="path11"
         d="m 14157.5,12779.3 c -155.8,100.9 -307,202.2 -403.6,270.1 -290.2,204.3 -444,480 -444,795.8 0,517.9 406,934.7 926.1,934.7 507.3,0 900.6,-391.5 913.3,-934.7 h -494.7 c -12.7,252.6 -190.3,416.8 -418.6,416.8 -241.1,0 -431.3,-176.8 -431.3,-416.8 0,-176.8 76.1,-277.9 342.5,-429.5 697.6,-404.2 1002.1,-795.8 1002.1,-1313.7 0,-581 -444,-1048.4 -1002.1,-1048.4 -634.3,0 -1014.8,530.5 -1014.8,1124.2 h 507.4 c 0,-303.1 152.2,-618.9 507.4,-618.9 279,0 507.4,252.6 507.4,543.1 0,225.6 -93.3,415.6 -497.1,677.3"
         style="fill:#231f20;fill-opacity:1;fill-rule:nonzero;stroke:none"
         transform="matrix(0.13333333,0,0,-0.13333333,0,3924.48)" />
      <path
         id="path12"
         d="m 16606.3,12779.3 c -155.7,100.9 -306.9,202.2 -403.5,270.1 -290.2,204.3 -444,480 -444,795.8 0,517.9 406,934.7 926,934.7 507.4,0 900.7,-391.5 913.4,-934.7 h -494.8 c -12.6,252.6 -190.2,416.8 -418.6,416.8 -241,0 -431.2,-176.8 -431.2,-416.8 0,-176.8 76.1,-277.9 342.5,-429.5 697.6,-404.2 1002.1,-795.8 1002.1,-1313.7 0,-581 -444,-1048.4 -1002.1,-1048.4 -634.3,0 -1014.8,530.5 -1014.8,1124.2 h 507.4 c 0,-303.1 152.2,-618.9 507.4,-618.9 279,0 507.3,252.6 507.3,543.1 0,225.6 -93.2,415.6 -497.1,677.3"
         style="fill:#231f20;fill-opacity:1;fill-rule:nonzero;stroke:none"
         transform="matrix(0.13333333,0,0,-0.13333333,0,3924.48)" />
      <path
         id="path13"
         d="m 15586.6,19943.1 -253.3,-1035.8 h 519.3 z m 645.9,-2526.3 -253.3,985.3 h -772.5 l -240.6,-985.3 h -519.3 l 899.2,3600 h 506.6 l 899.1,-3600 h -519.2"
         style="fill:#231f20;fill-opacity:1;fill-rule:nonzero;stroke:none"
         transform="matrix(0.13333333,0,0,-0.13333333,0,3924.48)" />
      <path
         id="path14"
         d="m 17255.7,17416.8 v 3600 h 504 v -3600 h -504"
         style="fill:#231f20;fill-opacity:1;fill-rule:nonzero;stroke:none"
         transform="matrix(0.13333333,0,0,-0.13333333,0,3924.48)" />
      <path
         id="path15"
         d="m 18551.7,17416.8 v 3600 h 519.4 v -3120 h 1317.5 v -480 h -1836.9"
         style="fill:#231f20;fill-opacity:1;fill-rule:nonzero;stroke:none"
         transform="matrix(0.13333333,0,0,-0.13333333,0,3924.48)" />
      <path
         id="path16"
         d="m 13152.2,20511.5 h -529.5 v -909.4 h 529.5 c 302.5,0 466.4,164.2 466.4,454.7 0,277.9 -189.1,454.7 -466.4,454.7 z m 441.2,-3094.7 -479,1692.6 h -491.7 v -1692.6 h -516.8 v 3600 h 1071.5 c 567.2,0 945.4,-379 945.4,-960 0,-429.5 -176.5,-745.3 -516.8,-871.6 l 516.8,-1768.4 h -529.4"
         style="fill:#231f20;fill-opacity:1;fill-rule:nonzero;stroke:none"
         transform="matrix(0.13333333,0,0,-0.13333333,0,3924.48)" />
      <path
         id="path17"
         d="m 10943.2,20536.8 v -3120 h -519.4 v 3120 h -658.79 v 480 h 1836.89 v -480 h -658.7"
         style="fill:#231f20;fill-opacity:1;fill-rule:nonzero;stroke:none"
         transform="matrix(0.13333333,0,0,-0.13333333,0,3924.48)" />
    </g>
  </g>
</svg>
