<?xml version="1.0" encoding="UTF-8" standalone="no"?>
<!-- Created with Inkscape (http://www.inkscape.org/) -->

<svg
   version="1.1"
   id="svg1"
   width="3139.72"
   height="3139.72"
   viewBox="0 0 3139.72 3139.72"
   sodipodi:docname="tmpigrxa_pq.pdf"
   xmlns:inkscape="http://www.inkscape.org/namespaces/inkscape"
   xmlns:sodipodi="http://sodipodi.sourceforge.net/DTD/sodipodi-0.dtd"
   xmlns="http://www.w3.org/2000/svg"
   xmlns:svg="http://www.w3.org/2000/svg">
  <defs
     id="defs1" />
  <sodipodi:namedview
     id="namedview1"
     pagecolor="#ffffff"
     bordercolor="#000000"
     borderopacity="0.25"
     inkscape:showpageshadow="2"
     inkscape:pageopacity="0.0"
     inkscape:pagecheckerboard="0"
     inkscape:deskcolor="#d1d1d1">
    <inkscape:page
       x="0"
       y="0"
       inkscape:label="1"
       id="page1"
       width="3139.72"
       height="3139.72"
       margin="0"
       bleed="0" />
  </sodipodi:namedview>
  <g
     id="g1"
     inkscape:groupmode="layer"
     inkscape:label="1">
    <g
       id="group-R5">
      <path
         id="path2"
         d="m 12537.6,318.801 c -421.7,-421.699 -1105.6,-421.699 -1527.3,0 L 318.828,11010.3 c -421.766,421.7 -421.766,1105.6 -0.004,1527.3 L 11010.3,23229.1 c 421.7,421.7 1105.6,421.7 1527.3,0 L 23229.1,12537.6 c 421.8,-421.7 421.8,-1105.6 0,-1527.3 L 12537.6,318.801"
         style="fill:#fccc2d;fill-opacity:1;fill-rule:nonzero;stroke:#231f20;stroke-width:5;stroke-linecap:butt;stroke-linejoin:miter;stroke-miterlimit:4;stroke-dasharray:none;stroke-opacity:1"
         transform="matrix(0.13333333,0,0,-0.13333333,0,3139.72)" />
      <path
         id="path3"
         d="M 22720,11519.4 12028.5,827.902 c -140.3,-140.3 -368.7,-140.3 -509.1,0 L 827.945,11519.4 c -140.363,140.4 -140.363,368.7 0,509.1 L 11519.4,22720 c 140.4,140.3 368.8,140.3 509.1,0 L 22720,12028.5 c 140.3,-140.4 140.3,-368.7 0,-509.1 z m 318.2,827.3 -10691.5,10691.5 c -315.8,315.8 -829.7,315.8 -1145.5,0 L 509.742,12346.7 C 193.926,12030.9 193.926,11517 509.746,11201.2 L 11201.2,509.699 c 315.8,-315.797 829.7,-315.797 1145.5,0 L 23038.2,11201.2 c 315.8,315.8 315.8,829.7 0,1145.5"
         style="fill:#231f20;fill-opacity:1;fill-rule:nonzero;stroke:none"
         transform="matrix(0.13333333,0,0,-0.13333333,0,3139.72)" />
      <path
         id="path4"
         d="m 16588.8,7140.8 c -23.9,51.5 -46,102.8 -75,151.9 -27,44.4 -13.2,115.5 -13.2,165.5 0,110.5 -5.6,228.8 -18.3,338.1 -6.8,67.7 -14.4,135.4 -22.1,202.8 -3.7,34.8 24.7,142.8 5.2,152.4 -47.4,23.6 -16.5,283.5 -11.3,336 7.4,72.7 15.6,96.9 -20.2,156.2 -29.7,50.3 -48,91.6 -52.4,148.5 -8.8,115.1 -35.8,252.1 -20.2,366.7 7.7,57.1 13.2,110.8 30.9,165.2 12.6,37.8 58,134.1 46.6,174.2 -8,28.8 -99.5,92.5 -127.3,108.3 -49.7,28.3 -99.5,55.9 -148.7,86.1 -71.8,43.7 -181.5,85.7 -226.2,163 -68,119.5 -136.2,238.8 -204.8,358.6 -49.9,87 -99.1,174.2 -150.6,259.9 -58.7,98.1 -30.9,223.9 -26.6,335.7 1.9,46.9 50.5,87.6 77.5,124.5 30.9,40.7 54.3,89.1 80.7,132.9 46.6,78 143.8,138.8 189.1,208.7 68,105.3 104.1,160.8 104.1,287.5 0,122.1 15,218.9 44.1,336.9 0,-5.9 0,-11.8 0,-17.4 25.7,101.9 69.8,226.7 88.1,318 25.8,123 25.2,237.9 19.6,365.8 -4.5,111.8 -68.8,212.1 -123.6,306.2 -61.8,105.2 -138,170.1 -216.7,260.2 -156.4,178.2 -297.5,367.6 -451.4,546.8 -156.8,182.9 -432.8,234.5 -660.4,267.1 -120.4,17.4 -240.1,50 -361.8,68 -101.4,15.2 -191,-1.3 -292.3,-13.1 -128.6,-14.9 -254,-27.3 -383.9,-32.3 -100.2,-3.7 -228.2,-13 -318.8,32 -105.3,52.8 -222.5,127 -336.6,159.6 -49.3,14 -107.2,2.2 -155.8,19.6 -64.9,23.9 -129.8,44.7 -196.5,64.3 -228.9,67 -460.2,128.2 -692.6,179.7 -123.6,27.4 -250.3,104.1 -366.9,152.8 -102.2,42.9 -173.3,113.7 -255.9,186 -85.1,74.9 -241.4,74.6 -347.9,90.1 -107.8,16.1 -215.5,35.1 -322,50.3 -116,16.4 -220.7,73 -338.5,82.9 -111.5,9.3 -226.2,-37.9 -339.09,-48.1 -37.11,-3.5 -122.19,-8.1 -155.57,8.4 -50.46,24.8 -78.25,117.3 -102.16,161.7 -47.36,90.4 -112.25,188.2 -175.91,267.7 -84.46,105.6 -213.64,227.9 -158.83,374.2 46.73,124.5 263.47,132.3 335.36,240.3 35.86,53.1 37.89,142.5 46.58,203.1 3.88,24.8 33.53,60.5 27.79,81.7 -8.23,27.6 -14.44,100.9 -34.62,119.5 -77.01,71.7 -354.31,-72.7 -379.46,0 93.31,-6.5 202.31,109.3 295.61,128.2 91.3,18.1 228.08,-24.8 301.21,-78.2 47.39,-34.2 63.69,-52.8 93.29,-102.8 22.1,-37.6 78.1,-99 78.1,-144.4 0,-133.2 -11.9,-251.5 -31.5,-382.9 -14.4,-95.9 -60.4,-200.2 -55.4,-294.9 7,-113.4 14.4,-228.3 36.6,-339.7 5,-23.3 14.4,-136.4 35.9,-136.4 54.8,0 122.9,11.8 175.7,-0.6 68.8,-15.8 137.4,-31.7 206.2,-47.5 64.9,-14.9 71.3,-46.3 118.5,12.7 0,-2.8 0,-5.9 0,-9 89.4,209.3 170.8,433.2 238.1,650.6 31.6,103.7 80.8,197.1 89,307.4 8.2,114.3 24.5,241.3 -0.6,353.7 -29.7,133.2 -77.6,216.7 -154.5,330.4 -59.8,87.5 -153.7,155.5 -209.9,242.8 -30.1,46.9 -55.4,102.8 -99.5,137.5 -48.5,38.2 -96.4,74.9 -139.9,118.4 -87,87.2 -174.5,173.5 -272.3,249.3 -61.1,47.5 -221.91,130.1 -303.73,107.7 -114.11,-31 -228.23,-66.1 -346.07,-81 -54.19,-6.5 -105.89,-28.9 -159.45,-33.5 -83.22,-6.9 -106.51,-19.9 -174.52,-69.3 -101.54,-73.6 -184.13,-193.7 -269.21,-285.4 -31.52,-33.5 -69.25,-65.8 -96.42,-103 -27.64,-38.5 -44.09,-123.9 -105.27,-123.9 -127.93,0 -165.65,156.2 -219.84,253.3 -113.5,204.4 -347.94,314 -540.15,426.7 0,-2.8 0,-5.6 0,-8.7 -241.43,164 -437.98,-37.9 -607.53,-192.8 -86.94,-79.5 -125.45,-188.5 -180.26,-289.8 -61.17,-113.3 -68.16,-218.5 -64.27,-343.1 1.24,-56.8 -5.13,-118.3 13.19,-172.3 20.19,-60.6 -13.19,-141.3 -25.15,-202.8 -11.33,-57.7 -34.15,-92.2 -65.68,-143.4 -32.13,-51.9 -49.06,-112.7 -71.1,-169.6 -43.48,-112.4 -102.78,-216.7 -156.97,-324.8 -43.47,-86.9 -105.88,-199 -178.39,-264.2 -65.53,-59.3 -64.9,-73.3 -148.74,-49.1 -67.39,19 -98.9,61.5 -148.74,111.5 -80.58,80.7 -170.16,147.2 -254.63,223.3 -27.01,23.9 -112.09,84.1 -142.99,33.2 -18.94,-31.1 21.43,-120.8 38.97,-152.5 38.51,-67.7 76.39,-134.7 114.74,-202.1 26.55,-46.6 77.63,-72.7 119.86,-104.7 98.9,-73.6 200.28,-141 300.58,-212.1 112.09,-79.5 177.77,-141.3 318.91,-141.3 124.21,0 196.55,3.8 297.47,85.1 54.19,44.4 108.37,88.5 163.18,132.3 37.26,30.1 48.59,91.9 66.14,136 40.99,101.6 133.05,168 172.18,267.1 42.23,105.5 87.57,212 103.25,324.8 109.15,-46.6 196.71,-104.4 288.63,-177.7 100.91,-80.7 -32.14,-199.3 -86.33,-273.8 -50.92,-69 -156.81,-150.3 -158.21,-246.3 -0.62,-99.6 102.78,-199 150.76,-282.5 0,5.9 0,11.4 0,17.7 25.15,-40.7 64.28,-85.1 73.75,-132.6 18.17,-89.5 -5.75,-82.3 -47.36,-159 -64.27,-117.7 -35.86,-226.7 -40.98,-354.9 -4.97,-116.8 -3.11,-233.9 -3.11,-350.6 0,-107.5 -5.75,-241 17.7,-345.6 21.42,-98.5 108.37,-218.6 167.53,-300 71.26,-97.5 179.01,-147.5 243.91,-250.9 24.68,-39.1 20.8,-102.8 38.5,-146.6 26.39,-63.6 68.01,-124.2 100.76,-184.7 20.81,-37.9 74.37,-55.3 77.64,-100 4.96,-78.3 10.08,-157.1 15.68,-236 8.22,-123.3 33.99,-203.4 137.4,-277.3 57.44,-41.3 58.07,-60.5 79.49,-124.8 19.41,-59 55.43,-113.7 92.54,-163.3 64.27,-85.4 117.84,-201.6 196.09,-273.9 91.91,-85.7 183.98,-156.5 288.63,-226.1 105.88,-70.5 174.51,-111.4 230.71,-229.5 41.61,-87.5 91.29,-176.6 119.71,-268.2 37.1,-120.2 63.03,-253.4 116.6,-367.4 42.23,-91.3 134.29,-230.4 125.45,-335 -19.57,-234.8 -34,-487.5 34,-714.8 65.52,-218.6 167.68,-421.4 223.75,-645.3 27.1,-109 45.9,-210.5 60.5,-322.3 13.2,-101.9 42.3,-232.6 25.2,-334.8 -18.3,-109.9 -80,-217 -122.2,-318.6 -42.86,-102.7 -107.29,-200.5 -132.45,-310.2 -23.29,-102.4 -59.93,-132.2 -157.58,-167.6 -91.92,-32.6 -129.18,-55.3 -160.7,-149.4 81.36,1.6 157.59,-8.7 238.94,0 -24.06,-35.1 -47.35,-70.5 -71.26,-105.9 61.18,-30.1 103.4,-57.7 172.65,-62.1 71.27,-4.7 141.7,-9.3 213,-13.3 67.6,-4.4 134.9,-4.1 202.3,-4.1 54.8,0 128,43.8 180.9,61.8 -17.5,40.1 -32.1,52.5 -12,89.4 31.6,56.6 63.7,113.4 95.2,170.2 25.2,46 25.2,41 78.7,43.5 16.5,0.6 135.6,-3.4 139.5,9.9 27,103.4 44.1,172.7 27.6,278.6 -13.2,86.6 -73.8,175.7 -108.4,256.1 -39.1,89.2 -57.9,157.8 -72.5,253.4 -12.6,87.6 -41,173.3 -44.7,260.9 -8.2,198.7 -7.6,382.5 11.3,580.9 0,-2.8 0,-5.6 0,-8.7 7.6,95 20.8,188.2 35.3,282.6 0,-2.8 0,-6.2 0,-9 32.7,28.3 37.9,79.8 62.4,116.1 30.9,46.3 78.9,99.4 78.9,157.5 0,45.9 22,105.6 25.7,154.6 4.5,49.1 -0.6,103.1 13.2,150 64.3,218.6 105.9,466.4 234.5,658.3 70,104 95.8,201.8 104,327.9 7,105.9 192.8,97.2 243.3,21.1 68.8,-102.8 161.9,-146.3 259,-217.7 94.5,-69.5 194.2,-125.4 312.7,-95.9 -3.1,0 -6.4,0 -8.9,0 112.3,10.2 153.7,-2.2 255.9,-52.8 -5.6,2.8 -12,5.6 -17.7,8.7 111.6,-28.6 235.2,-20.8 347.3,-4.7 111.6,15.9 206.8,97.2 306.3,4.7 93.3,-87.3 132.3,-173.6 255.9,-225.4 60.5,-25.2 105.3,-60.9 157.6,-100.3 47.8,-36.1 104,-44.8 151.8,-80.8 182.1,-136.6 390.2,-266.7 596.8,-362.7 114.8,-53.4 220,-90.3 339.7,-127 147.5,-44.7 194.9,-87.5 292.6,-207.7 64.2,-79.2 133.5,-158 201.6,-234.1 64.3,-72.7 28.9,-135.7 11.4,-228.6 -48,-261.1 -76.3,-534.7 -160.1,-786.8 -37.3,-111.2 -63.7,-201.2 -63.7,-322.7 0.7,-60.2 12,-122.3 17.6,-182.2 5.1,-56.9 -22.7,-130.5 -33.4,-186.6 -19.6,-109.4 -131.7,-176.4 -209.7,-246.3 -30.3,-26.4 -87.1,-81 -101,-117.7 -8.8,-22.6 0,-64.9 0,-89.7 0,-27.3 -20.2,-46.9 -35.2,-69.3 5.6,-3.1 11.3,-5.9 17.5,-8.7 -13.8,8.1 -11.3,-6.2 -17.5,8.7 -80.8,-61.8 -233.2,-140 -278.5,-229.8 -70.7,-140.9 134.7,-123.2 219.2,-123.2 134.3,0 267.2,1.5 401.5,7.1 64.3,2.5 40.3,66.8 42.8,124.8 1.9,47.2 -2.5,123.6 24.6,164.6 36,54.1 59.9,65.5 123.6,65.5 81.3,0 127.3,5.6 202.9,33.3 36.5,13 5.7,321.3 5.7,362.7 0,114.2 49.7,206.1 64.9,317 16.3,119.8 34.6,239.1 53.6,358.6 13.2,84.5 27,168.7 40.2,252.8 -5.6,-5.6 -12,-11.8 -17.6,-17.7 66.2,198.7 89.5,409.6 146.9,611.1 29.5,104.6 54.2,214 91.3,316.4 36.7,98.5 100.9,190.1 150.6,282.6 160.9,-193.5 314,-408.3 379.5,-653.6 0,2.7 0,6.2 0,9 18.3,-63.4 37.2,-126.7 55.4,-190.1 13.3,-44.4 -2.5,-98.4 -0.6,-145.9 5.1,-116.2 -5.6,-229.2 -1.3,-344.4 3.9,-107.4 -10.7,-240 36.7,-340.3 54.2,-114.3 95.2,-215.5 95.2,-345 0,-133.5 -24.1,-242.8 -60.6,-371.1 -31.5,-108.7 -139.3,-168.6 -179.6,-276.3 -17.7,-47.5 11.3,-92.6 -24.6,-141.9 -35.4,-48.5 -97,-95.4 -138,-141 -37.2,-41.6 -71.3,-84.2 -105.9,-128.3 -8.8,-11.5 29.5,-57.4 37.8,-69.8 7.5,-12.4 45.4,-4.4 58,-4.1 158.2,4.1 316.3,8.4 474.5,14 86.3,3.1 91.4,18.9 80.1,104 -7,49.1 -23.3,137.3 5,180.1 30.2,45.1 72.5,150.3 118.6,177.3 23.9,14.6 73,12.5 101.4,17.1 15.8,2.5 29,56.8 34.6,72.1 13.3,39.4 157.6,377.5 75.6,379.4"
         style="fill:#231f20;fill-opacity:1;fill-rule:evenodd;stroke:none"
         transform="matrix(0.13333333,0,0,-0.13333333,0,3139.72)" />
      <path
         id="path5"
         d="m 9762.67,15989.4 c -20.19,-6.9 -39.75,-19 -53.57,-35.5 18.33,11.8 35.87,23.7 53.57,35.5"
         style="fill:#231f20;fill-opacity:1;fill-rule:evenodd;stroke:none"
         transform="matrix(0.13333333,0,0,-0.13333333,0,3139.72)" />
      <path
         id="path6"
         d="m 10645.6,14911.9 c 36.1,-4.4 71.3,-14.3 105.9,0 -35.2,0 -70.5,0 -105.9,0"
         style="fill:#231f20;fill-opacity:1;fill-rule:evenodd;stroke:none"
         transform="matrix(0.13333333,0,0,-0.13333333,0,3139.72)" />
    </g>
  </g>
</svg>
