<?xml version="1.0" encoding="UTF-8" standalone="no"?>
<!-- Created with Inkscape (http://www.inkscape.org/) -->

<svg
   version="1.1"
   id="svg1"
   width="4709.2402"
   height="4709.2534"
   viewBox="0 0 4709.2402 4709.2534"
   sodipodi:docname="tmpm3wvklgn.pdf"
   xmlns:inkscape="http://www.inkscape.org/namespaces/inkscape"
   xmlns:sodipodi="http://sodipodi.sourceforge.net/DTD/sodipodi-0.dtd"
   xmlns="http://www.w3.org/2000/svg"
   xmlns:svg="http://www.w3.org/2000/svg">
  <defs
     id="defs1" />
  <sodipodi:namedview
     id="namedview1"
     pagecolor="#ffffff"
     bordercolor="#000000"
     borderopacity="0.25"
     inkscape:showpageshadow="2"
     inkscape:pageopacity="0.0"
     inkscape:pagecheckerboard="0"
     inkscape:deskcolor="#d1d1d1">
    <inkscape:page
       x="0"
       y="0"
       inkscape:label="1"
       id="page1"
       width="4709.2402"
       height="4709.2534"
       margin="0"
       bleed="0" />
  </sodipodi:namedview>
  <g
     id="g1"
     inkscape:groupmode="layer"
     inkscape:label="1">
    <g
       id="group-R5">
      <path
         id="path2"
         d="m 18805.2,477 c -632.7,-632.602 -1658.4,-632.602 -2291,0 L 476.988,16514.2 c -632.652,632.7 -632.648,1658.4 0,2291 L 16514.2,34842.4 c 632.6,632.7 1658.3,632.7 2291,0 L 34842.4,18805.2 c 632.6,-632.6 632.6,-1658.3 0,-2291 L 18805.2,477"
         style="fill:#fccc2d;fill-opacity:1;fill-rule:nonzero;stroke:#231f20;stroke-width:5;stroke-linecap:butt;stroke-linejoin:miter;stroke-miterlimit:4;stroke-dasharray:none;stroke-opacity:1"
         transform="matrix(0.13333333,0,0,-0.13333333,0,4709.2533)" />
      <path
         id="path3"
         d="M 34078.7,17277.9 18041.5,1240.7 c -210.5,-210.5 -553.1,-210.5 -763.7,0 L 1240.66,17277.9 c -210.54,210.5 -210.54,553.1 0,763.7 L 17277.8,34078.7 c 210.6,210.6 553.2,210.6 763.7,0 L 34078.7,18041.6 c 210.5,-210.6 210.5,-553.2 0,-763.7 z M 34524.2,18487 18487,34524.2 c -456.2,456.2 -1198.5,456.2 -1654.6,0 L 795.188,18487 c -456.184,-456.1 -456.184,-1198.4 0,-1654.6 L 16832.4,795.199 C 17288.5,339 18030.8,339 18487,795.199 L 34524.2,16832.4 c 456.1,456.2 456.1,1198.5 0,1654.6"
         style="fill:#231f20;fill-opacity:1;fill-rule:nonzero;stroke:none"
         transform="matrix(0.13333333,0,0,-0.13333333,0,4709.2533)" />
      <path
         id="path4"
         d="m 25773.3,11772.6 c -42.9,85.2 -82.7,167.9 -116.1,257.6 -33.5,88.9 14.1,186 47.7,265.5 35.1,83.7 73.1,159.5 99.9,247.2 20.9,70.8 -78.1,172.6 -121,230.3 -26.6,34.7 -50.5,70.4 -75.1,107.2 -34.5,50.9 -35.4,67.6 -35.4,130 0,28.6 61,84.2 79,108.1 23,30.9 69.7,39.4 93.4,71.8 31.4,41 67.5,72 67.5,123.8 0,53.3 -38,88.9 -68.5,131.8 -23.7,33.8 -46.6,67.6 -69.4,101.8 -8.7,12.9 -75.3,85.9 -75.3,96.2 0,92.9 10.6,184.4 13.4,277.3 1.9,38.4 1.9,78.1 -2.8,116.5 -5.9,43 5.6,91.5 -8.7,122.9 -19,40.8 -34.3,86.1 -57,124.8 -35.4,57.5 -37.3,66.6 -28.6,131.8 14.3,98.5 33.3,193.8 54.2,290.9 8.6,40.3 7.7,64.3 27.6,103.2 20.9,42.9 30.5,96.2 44.8,141.4 21.8,73 16.2,171.5 -29.5,236.2 -24,35.2 -72.5,63.8 -104.9,92 -34.2,30 -59.8,81.4 -86.5,117.9 -44.8,61.5 -72.5,153.9 -60.1,229.9 11.5,70.6 39.2,116.8 80,174.8 26.8,37.3 104.9,121 104.9,165.3 0,73.2 -26.8,141 -46.7,211.4 -7.7,26.7 -6.8,49.9 -6.8,78.1 0,35.6 -13.4,66.1 -24.6,100.4 -45.8,136.7 -25.9,260.3 1.8,398.5 24.7,124.7 109.6,226.5 182.8,327.4 v -27 c 26.7,26.5 57.2,51 76.2,82.8 19.9,33.3 70.4,88 70.4,127.6 0,34.3 13.3,97.2 -1.9,128.6 -26.5,52.3 -52.3,104.6 -79.1,157.1 -83.7,167.5 90.6,356.6 183.9,481.3 36.2,49.1 -4.7,159.5 -23.9,215.6 -25.6,77.2 -79,171.5 -79,252.8 0,193.8 5.8,383.8 -20,576.1 -22.7,168.2 -83.7,343.9 -178,484.6 -103.7,155.7 -226.6,296.7 -345.7,440 -56.1,67.6 -161,118.5 -232.3,169.9 -63.8,46.6 -127.5,77.6 -200,112.3 -181.8,87.3 -353.3,149.2 -545.6,210.2 -163.7,51.8 -315,87 -484.6,117 -170.5,30 -350.4,82.8 -522.8,88.9 -225.7,8.2 -450.4,16.2 -675.1,24.4 -147.5,5.2 -297.9,20.4 -445.6,13.4 -753.2,-35.7 -1507.3,-77.2 -2261.4,-103 -760.6,-25.6 -1516.9,-106.5 -2276.1,-169.3 -338,-28.7 -680.9,-33.8 -1010.2,62.8 -346.7,102.3 -694.3,261.8 -964.5,509 -138.2,126 -268.6,254 -382.8,402.7 -114.3,149.5 -202,315.5 -290.4,481.8 -76.2,142.4 -132.5,333.8 -160,491.4 -9.6,54.2 -19.2,107.9 -28.6,162.3 -6.8,36.6 80,37.1 108.6,43.2 72.2,16.2 175,68.2 236.9,109.1 138.1,91.4 247.7,222.3 334.2,360.5 22.1,35.1 43.9,69.9 65.7,104.6 4,6.3 -91.2,76.2 -101.8,84.2 -56.3,45.2 -120.1,89.6 -184.8,121.5 -156,78.5 -304.7,144.7 -475,184.3 -171.4,39.4 -329.5,52.8 -505.7,52.8 1.9,-12 -2.8,-20.4 -13.4,-26.7 -0.9,65.2 -78.1,170.5 -107.4,229.6 -41,80.9 -82.1,160.4 -147.7,225.6 -124.6,125.1 -245.6,232.7 -403.7,316 -161.9,84.9 -322.8,166.8 -502.7,209.5 -174.3,41.5 -361.9,95.2 -543.7,86.7 -90.5,-4.2 -184.8,-1.4 -274.2,-13.8 -93.3,-12.9 -200.1,-12.9 -290.6,-39.4 -186.4,-56.3 -355.1,-120.1 -532.2,-200.1 h 12.4 c -214.1,-107.7 -412.3,-247.9 -586.6,-413.7 -55.1,-52.3 -487.4,-533.7 -427.4,-574.2 -187.6,19.2 -360,11 -544.58,-26.1 -83.97,-16.6 -176.16,-71.5 -254.28,-106.2 -86.77,-38.5 -158.08,-85.2 -234.3,-141.9 -25.81,-19.5 230.32,-403.2 272.31,-446.6 61,-62.4 161.85,-107.5 234.33,-155.5 61.92,-42 138.82,-116.4 210.42,-139.1 96.1,-31 193.2,-61.5 289.4,-92.4 -62.8,-180 -123.8,-360.3 -181.8,-542.3 -22,-69.9 -43.8,-159.5 -85.8,-218.9 -57,-82.5 -114.2,-164.9 -172.41,-247.2 -43.63,-63.8 -119.85,-139.1 -139.8,-215.6 -13.36,-54.8 -21.1,-81.8 -9.61,-135.8 11.48,-50.9 24.87,-86.5 48.54,-133.2 19.02,-38.7 31.44,-84.7 67.55,-109.1 15.25,-9.6 50.67,-24.1 59.11,-39.4 16.22,-25.8 6.62,-35.4 -4.69,-68.2 -28.6,-86.1 3.75,-169.4 47.61,-242.8 46.7,-77.6 98,-132.3 183.7,-166.5 59.1,-23.5 41,-53.5 41,-115.2 0,-42.4 8.5,-82.1 16.2,-123.8 9.4,-51.4 9.4,-56.8 50.4,-87.8 28.6,-21.8 54.2,-46.2 88.5,-56.5 103.9,-31.9 207.5,-63.8 311.5,-95.7 68.4,-21.6 174.2,9.9 245.5,16.7 75.3,6.5 137.2,33.3 208.6,59.6 76.2,27.4 188.5,46.6 255.1,93.5 75.3,53 150.6,106.3 225.7,159.1 12.4,-51.4 111.4,-80 152.4,-102.8 49.5,-26.2 92.5,-71.3 135.2,-106.2 89.6,-71.3 153.4,-163.3 218.1,-256.2 140,-199.8 148.5,-436 148.5,-669.2 h 13.3 c -13.3,-411.4 -25.8,-823.2 -38.9,-1235.1 -4.9,-160.9 -9.6,-322.3 -14.3,-483.2 -1.9,-67.1 34.2,-151.8 50.4,-216.5 22.8,-97.6 45.7,-195.9 68.5,-293.4 10.6,-41.8 7.8,-90.8 10.6,-133.7 3.7,-46.2 20.9,-79.1 43.8,-120.6 22.8,-42.2 35.2,-64.3 76.9,-85.1 41.1,-20.5 104.9,-38 133.5,-75.8 54.2,-72.2 66.6,-170.8 82.8,-259.4 18.1,-101.4 58.2,-167 115.2,-252.9 19,-28.3 88.7,-40.8 121,-53.7 42.7,-17.1 89.4,-23.2 135.1,-33.3 27.7,-6.1 61.9,-73.4 82.8,-93.8 32.4,-32.9 79.1,-57.7 106.8,-93.8 50.4,-66.2 75.2,-167 107.6,-242.8 41.8,-98 83.7,-147.1 188.3,-177.1 58.2,-16.7 93.4,-31.4 142.9,-67.1 54.4,-38.7 55.4,-56.7 55.4,-123.3 0,-51.9 -2.9,-95.8 -13.4,-146.6 -6.6,-35.2 -35.2,-110.1 12.4,-129.1 48.6,-18.9 99,-62.3 147.6,-74.8 17.1,-4.2 58.1,10.6 69.4,-3.7 19,-25.8 36.3,-46.7 47.6,-75.8 23.9,-58.9 4.9,-110.5 -5.6,-172.9 -9.7,-53.2 -4.7,-107.4 -4.7,-161.3 30.5,-1.4 59.8,-39 83.7,-58 47.6,-39.1 95.2,-78.5 142.9,-118.2 20.8,-17.1 71.2,-41.3 79.9,-64.3 13.4,-33.7 -29.5,-87 -44.8,-116.1 -87.4,-174.7 -142.8,-364.2 -207.5,-548.3 -28.7,-80 -14.4,-199.7 -20,-284.3 -4.9,-70.9 -8.7,-142 -13.3,-212.8 -6.6,-115.8 -13.4,-232 -20,-347.6 -4,-58.6 -125.7,-99 -174.3,-136 -300.9,-225.4 -551.4,-539 -614.3,-917.6 397.1,0.4 796.1,-17.1 1193.2,-25.6 45.8,-0.9 131.4,1.4 148.5,43.2 23,53.9 45.7,107.6 68.7,161.4 4.7,12.9 30.3,98.7 48.6,102.4 39.8,8 73.1,12.5 114.2,12.5 33.3,0 125.7,-17.4 152.2,2.8 48.6,36.6 49.5,41.8 49.5,101.8 0,49 0,98 0,147.5 0,22.6 -12.2,117.8 0,134.9 13.4,17.6 33.3,4.7 42.9,16.2 17.2,21.3 34.3,41.7 50.5,63.8 58.1,78.6 67.5,148 67.5,246 0,87.3 3.1,177.1 15.3,263.4 7.7,54.7 15.2,109.3 23,164.2 5.6,36.6 51.3,67.6 68.4,100.4 7.8,16.7 2.9,43.4 26.8,40.6 18.1,-3.1 21.8,-49.5 24.6,-61.5 7.8,-30.9 -26.5,-112.8 -33.3,-143.7 -18.1,-78.1 -4.7,-167.3 -4.7,-247.7 0,-93.9 2.8,-180.4 14.3,-273.3 9.4,-85.1 9.4,-175.7 37.1,-257.1 13.4,-40.8 55.4,-242.3 95.2,-245.1 l -13.4,-13.3 v 13.3 c -198.9,-99 -362.6,-215.3 -519.7,-372.2 -67.8,-68.3 -130.5,-183.4 -174.3,-268.1 -52.3,-100.4 -80,-198.7 -106.7,-307.1 381.8,4.3 762.7,8.5 1144.6,13.4 34.2,0 55.1,3.8 88.4,14.6 24,8.2 48.6,16.1 72.5,24.4 9.4,3.2 0,56.5 1.9,67.5 18,82.3 78.1,167.7 108.6,248.2 15.2,39.9 38.9,70.3 63.8,105.5 42.7,62.4 36.1,51.4 108.3,60.1 84.9,10.1 184.9,41.5 266.7,66.6 33.3,10.5 65.7,24.9 98.1,36.6 20.8,8.2 19.9,57.7 23.9,78.1 13.2,67.8 -9.6,108.1 -16.2,175.7 -14.3,141.4 -48.5,270.4 -104.8,401.3 -100.9,237.1 -120.8,509.9 -134.2,763.2 l 13.4,-93.3 c 0,170 124.5,337 293.2,370.8 32.3,6.8 60,41.1 83.7,61 45.8,37.3 91.5,74.8 136.3,111.9 33.3,27.2 8.4,52.3 -4.9,91.9 -16.2,50 -14.3,91 -14.3,143.8 0,45.8 -13.2,86.1 -23.7,130.4 -5.7,20.9 -14.3,90.1 -2.9,104.9 49.5,65.2 180,-6.8 233.2,46.6 29.6,29.9 70.6,55.2 77.2,97.6 7.7,53.7 19,92.7 39.1,143.3 16.2,39.9 27.5,73.7 63.8,99.5 25.6,17.6 99,61.4 106.5,13.4 55.4,55.1 104.9,102.7 144.7,169.3 44.9,74.8 16.2,134.4 -7.5,208.5 -26.7,79.5 60.1,89.6 65.7,157.2 3.8,43.4 7.5,86.8 10.6,129.9 2.8,33.8 42,60.1 41,95.7 23,1.4 106,-190.9 130.7,-223.3 20.1,-26.5 -10.4,-77.6 9.6,-107 35.2,-53.4 54.2,-75.2 109.5,-108.1 27.5,-16.1 96.2,4.3 124.8,9 50.4,8.6 63.8,59 86.5,99.1 19.1,32.4 74.4,52.4 104.7,71.8 27.6,16.7 109.5,-20.3 140,-28.1 77.2,-19.5 129.5,-103.7 213.4,-115.6 103.7,-14.8 184.6,-4.7 287.6,13.8 28.4,5.2 43.6,63.8 63.8,84.2 47.4,47.6 68.5,54.9 134.2,71.5 50.4,12.2 48.5,-43.3 63.8,-74.3 13.4,-29.1 54.2,-91 81.8,-108.1 32.4,-20 64.8,-40.4 97.1,-60.5 24.9,-16.3 44.8,-17.2 72.5,-30.8 51.4,-25.8 56.1,-27.2 109.3,-9.1 33.6,11 61.9,27.6 92.4,44.3 65.7,36.1 126.7,59.3 198.2,83.3 72.3,24.1 129.5,7.9 198.9,-11.5 62,-17.6 113.3,-69 175.2,-89.4 60.1,-20.2 152.3,-15.7 205.8,24.6 37,27.2 60.9,41.1 104.6,55.4 38.2,12.6 69.6,-3.1 108.6,-12.4 65.6,-16.7 138.1,-39.7 197,-73 v 13.4 c 17.3,0 80,-8.9 94.3,0.9 40.1,27.7 79,55.4 119.1,82.3 60.1,41.6 117.1,86.8 179.9,122.5 134.2,76.7 267.7,198.4 434.2,195.1 l -26.7,-13.3 c 37.3,-58.4 75.3,-117.1 112.5,-175.7 28.4,-43.6 6.6,-116.1 54.2,-143.3 67.6,-38.5 114.3,-48.6 192.4,-61.2 62.8,-10.6 108.6,-51.7 160.9,-87.3 -44.8,-67.1 -60.1,-110.5 -77.2,-189.5 -13.4,-59.8 15.3,-144.3 23,-204.6 5.6,-41 80.9,-98.7 107.4,-136.7 42,-58.6 80,-127.6 134.4,-176.6 -54.4,-35.7 -79,-50.9 -107.6,-108.1 -12.5,-23.3 -62.9,-116.1 -52.4,-133.3 59.9,-92.4 116.2,-181.3 186.5,-265.7 -76.9,-30.5 -93.1,-64.8 -140.7,-133.7 -46.7,-66.6 -45.8,-90.1 -45.8,-173.4 l -27.6,26.8 c 0,-75.3 -21.8,-186.3 1.9,-257.1 33.2,-101.1 66.6,-201.5 100.8,-302.4 11.5,-34.2 21.1,-69.1 31.4,-103.8 18.1,-61.5 -8.4,-60.8 -59.8,-100.9 -63.8,-49.5 -127.6,-117.1 -192.3,-149.4 -166.8,-83.5 -314.3,-193.7 -415.2,-354.2 -98,-155.3 -139,-336.1 -155.3,-516.3 -1.8,-19.4 -3.7,-38.4 -5.6,-57.9 69.5,0 136.1,-1.4 204.6,9.8 83.9,13.9 164.9,30.6 249.5,30.6 l -13.3,-13.4 c 222.8,10.5 444.7,13.4 667.5,13.4 v -27.3 c 79,59.6 151.3,108.2 210.4,187.2 61,81 82.8,156.2 82.8,255.7 0,44.8 -7.5,70.6 24.9,102 47.6,47.6 48.5,57 113.2,50.9 101.8,-9.1 153.2,-39.2 240,-90.5 63.8,-38.5 150.3,-150.4 225.7,-74.8 14.3,13.8 81.8,68.7 77.1,93.3 -10.5,45.3 -15.2,94.8 -36.3,136.7 -18.1,37.1 -43.7,71.4 -43.7,113.3 0,67.6 9.4,79.1 50.5,133.7 26.7,36.6 56,71.1 85.6,105.8 39.1,45.8 56.3,45.3 23.9,101.3 -26.8,47.7 -31.4,82.9 -39.2,137.3 -5.6,37 -43.6,82.3 -54.2,123.1 -23.9,97.1 -3.7,173.3 26.8,267.2 v -13.4 c 38,95.7 60.7,175.2 77.8,277.2 5,33.8 -20.8,62.2 -26.5,95.7 -6.7,42.3 -24.8,90.8 -24.8,133.3 0,78.1 26.7,179.4 99.9,219.1 46.7,24.6 92.4,49.9 139.1,74.5 6.8,3.8 87.7,-104.1 97.1,-115.1 45.7,-56.8 91.5,-156.7 91.5,-229.4 0,-100.7 -55.4,-193.3 -92.4,-285.7 -29.6,-73 64.7,-159.5 104.8,-221.9 16.2,-25.3 62.9,-55.1 68.5,-84.7 10.6,-64.3 11.5,-79 -18,-137.2 -16.2,-33.3 -79.1,-119.4 -35.2,-153.6 53.2,-41.6 105.5,-83.1 159,-124.8 32.4,-24.9 131.3,-76.2 146.6,-114.7 16.2,-39.7 -44.8,-141.5 -66.6,-173.8 v 13.8 c -6.8,-60.5 -20.2,-105.8 6.5,-159.9 26.8,-54 57.3,-105.8 85.7,-158.6 31.4,-58.2 -48.6,-91.5 -83.8,-116.3 -40.8,-29.4 -80.9,-65.2 -116.1,-100.9 -163.7,-163.3 -278.2,-342.7 -359.1,-559 168.7,-16.1 339.2,-42.9 509.4,-37.5 200.1,6.1 398.1,13.9 598.2,26.1 53.2,3.5 106.5,6.3 159.9,9.6 44.6,2.8 48.6,12.9 77,50.8 25.8,34.8 60,62.5 86.8,97.2 26.5,36.3 45.7,81.4 68.5,121 18,30 79,207.1 104.8,198.4 82.8,-26.9 174.3,-51.8 261.8,-51.8 36.1,0 87.5,-15.2 105.8,19.5 14.3,29 37.9,54.4 46.6,85.8 9.4,34.3 21.9,68 25.6,103.2 2.8,27.2 -2.8,83.3 16.2,104.4 29.5,33.8 60,67.5 90.5,101.8 19.9,22.8 11.5,59.1 11.5,88.9 0,56.3 -68.7,138.2 -107.7,177.3"
         style="fill:#231f20;fill-opacity:1;fill-rule:evenodd;stroke:none"
         transform="matrix(0.13333333,0,0,-0.13333333,0,4709.2533)" />
    </g>
  </g>
</svg>
