<?xml version="1.0" standalone="no"?>
<svg width="4749px" height="4749px" viewBox="-20 -3937 4749 4749 " xmlns="http://www.w3.org/2000/svg" xmlns:xlink="http://www.w3.org/1999/xlink">
<title>generated by pstoedit</title>
<!-- generated by pstoedit version:4.02 -->
<g xml:space='preserve'>
<clipPath id="clippath1"> 	<path d="
	M 0 -3917.08 
	L 0 792 
	L 4709.08 792 
	L 4709.08 -3917.08 
	Z 
	" style="clip-rule:nonzero"/>
</clipPath>
<g style="clip-path:url(#clippath1)"> 
<g fill="#95e8ff" fill-rule="nonzero" stroke-width="0" stroke-linejoin="miter" stroke-linecap="butt" stroke-miterlimit="10" >
	<path d="
	M 2507.27 728.488 
	C 2422.92 812.84 2286.16 812.84 2201.81 728.488 
	L 63.5156 -1409.8 
	C -20.8398 -1494.16 -20.8398 -1630.92 63.5156 -1715.27 
	L 2201.81 -3853.57 
	C 2286.16 -3937.92 2422.92 -3937.92 2507.27 -3853.57 
	L 4645.57 -1715.27 
	C 4729.92 -1630.92 4729.92 -1494.16 4645.57 -1409.8 
	Z 
	"/>
</g>
<g stroke="#7f7f7f" fill="none" stroke-width="0.5" stroke-linejoin="miter" stroke-linecap="butt" stroke-miterlimit="4" >
	<path d="
	M 2507.27 728.488 
	C 2422.92 812.84 2286.16 812.84 2201.81 728.488 
	L 63.5156 -1409.8 
	C -20.8398 -1494.16 -20.8398 -1630.92 63.5156 -1715.27 
	L 2201.81 -3853.57 
	C 2286.16 -3937.92 2422.92 -3937.92 2507.27 -3853.57 
	L 4645.57 -1715.27 
	C 4729.92 -1630.92 4729.92 -1494.16 4645.57 -1409.8 
	Z 
	"/>
</g>
<g fill="#7f7f7f" fill-rule="nonzero" stroke-width="0" stroke-linejoin="miter" stroke-linecap="butt" stroke-miterlimit="4" >
	<path d="
	M 4543.74 -1511.63 
	L 2405.45 626.66 
	C 2377.38 654.738 2331.7 654.738 2303.63 626.66 
	L 165.34 -1511.63 
	C 137.266 -1539.7 137.266 -1585.38 165.34 -1613.45 
	L 2303.63 -3751.74 
	C 2331.7 -3779.81 2377.38 -3779.81 2405.45 -3751.74 
	L 4543.74 -1613.45 
	C 4571.82 -1585.38 4571.82 -1539.7 4543.74 -1511.63 
	Z 
	M 4607.38 -1677.09 
	L 2469.09 -3815.38 
	C 2405.93 -3878.55 2303.15 -3878.55 2239.99 -3815.38 
	L 101.699 -1677.09 
	C 38.5352 -1613.93 38.5352 -1511.15 101.699 -1447.99 
	L 2239.99 690.301 
	C 2303.15 753.469 2405.93 753.469 2469.09 690.301 
	L 4607.38 -1447.99 
	C 4670.55 -1511.15 4670.55 -1613.93 4607.38 -1677.09 
	Z 
	"/>
</g>
<g fill="#7f7f7f" fill-rule="evenodd" stroke-width="0" stroke-linejoin="miter" stroke-linecap="butt" stroke-miterlimit="4" >
	<path d="
	M 1824.44 -2089.59 
	C 1829.49 -2072.02 1855.34 -2072.26 1869.34 -2074.91 
	C 1893.39 -2079.48 1917.2 -2081.64 1941.38 -2084.54 
	C 1963.15 -2087.13 1981.16 -2097.92 2001.02 -2106.31 
	C 2020.88 -2114.64 2038.15 -2123.09 2052.22 -2139.92 
	C 2065.29 -2155.59 2078.68 -2174.28 2096.99 -2184.27 
	C 2117.04 -2195.19 2136.84 -2202.47 2154.35 -2217.64 
	C 2171.5 -2232.5 2188.89 -2248.48 2204.75 -2264.64 
	C 2220.17 -2280.24 2227.5 -2298.19 2236.7 -2317.62 
	C 2245.88 -2337.11 2257.79 -2351.97 2258.41 -2374.18 
	C 2258.59 -2380.04 2256.49 -2420.93 2249.28 -2420.81 
	C 2244.03 -2420.75 2237.44 -2374.61 2235.65 -2368.2 
	C 2229.54 -2346.79 2221.58 -2326.62 2210.79 -2307.13 
	C 2200.06 -2287.89 2184.52 -2270.44 2171.19 -2252.92 
	C 2161.45 -2240.03 2141.96 -2221.65 2124.93 -2219.73 
	C 2101.43 -2217.08 2151.39 -2314.66 2140.66 -2317.37 
	C 2132.34 -2319.47 2113.4 -2281.29 2110.32 -2274.94 
	C 2100.69 -2254.95 2094.4 -2233.74 2085.34 -2213.5 
	C 2076.7 -2194.14 2062.46 -2175.02 2045.74 -2161.94 
	C 2030.26 -2149.79 2007.75 -2151.15 2006.57 -2174.03 
	C 2006.02 -2184.95 2009.1 -2195.06 2007.38 -2206.04 
	C 2005.52 -2217.15 2001.95 -2228 1998.19 -2238.55 
	C 1994.3 -2249.34 1988.75 -2266.49 1987.58 -2244.96 
	C 1985.17 -2203.14 1989.37 -2156.64 1959.02 -2122.35 
	C 1936.14 -2096.44 1926.33 -2113.4 1923 -2139.8 
	C 1921.89 -2147.94 1909.12 -2193.28 1903.26 -2170.39 
	C 1896.48 -2143.62 1914.36 -2125 1887.91 -2105.01 
	C 1876.56 -2096.32 1867.74 -2094.16 1853.61 -2095.21 
	C 1846.33 -2095.7 1826.66 -2100.26 1824.44 -2089.59 
	M 1599.99 -2107.91 
	C 1605.11 -2125.24 1585 -2133.33 1571.49 -2132.77 
	C 1549.66 -2131.72 1529.31 -2133.57 1507.6 -2136.04 
	C 1488.23 -2138.26 1471.88 -2144.24 1462.39 -2162.44 
	C 1456.65 -2173.48 1449.74 -2213.88 1432.04 -2214.25 
	C 1420.63 -2214.49 1433.64 -2180.88 1436.23 -2173.54 
	C 1441.66 -2158.43 1457.33 -2133.88 1447.21 -2118.03 
	C 1436.73 -2101.62 1409.47 -2105.45 1394.48 -2111.74 
	C 1385.6 -2115.5 1378.13 -2120.56 1371.66 -2127.59 
	C 1366.78 -2132.95 1363.21 -2146.83 1356.54 -2149.73 
	C 1340.88 -2156.58 1348.22 -2132.58 1351.49 -2125.61 
	C 1359.01 -2109.82 1365.67 -2087.62 1341.68 -2082.26 
	C 1322.19 -2077.81 1303.81 -2094.22 1287.71 -2102.18 
	C 1279.51 -2106.18 1245.4 -2110.32 1258.29 -2091.88 
	C 1271.18 -2073.44 1288.51 -2066.96 1309.42 -2061.59 
	C 1331.94 -2055.92 1346.43 -2048.7 1369.37 -2057.95 
	C 1391.89 -2067.02 1413.97 -2076.45 1436.85 -2084.29 
	C 1458.68 -2091.75 1481.63 -2092.37 1503.9 -2097.24 
	C 1520.86 -2100.94 1537.63 -2107.54 1555.09 -2108.16 
	C 1566.44 -2108.59 1591.66 -2099.03 1599.99 -2107.91 
	M 2090.58 -2149.67 
	C 2137.46 -2152.63 2182.97 -2159.23 2230.04 -2156.14 
	C 2275.31 -2153.18 2317.12 -2136.53 2357.4 -2116.79 
	C 2401.62 -2095.08 2444.92 -2071.52 2489.76 -2050.98 
	C 2533.43 -2031 2579.69 -2020.95 2625.76 -2007.93 
	C 2669.36 -1995.66 2708.22 -1989.55 2753.5 -1995.66 
	C 2800.06 -2001.89 2849.16 -2005.65 2894.49 -2017.93 
	C 2939.21 -2030.14 2977.88 -2047.34 3025.5 -2043.21 
	C 3070.89 -2039.33 3113.64 -2031.12 3151.69 -2004.66 
	C 3226.26 -1952.85 3292.07 -1871.37 3325.44 -1787.25 
	C 3341.35 -1747.15 3359.92 -1699.91 3344.01 -1658.28 
	C 3327.23 -1614.49 3339.75 -1566.31 3348.82 -1522.4 
	C 3357.94 -1478.05 3366.45 -1433.03 3370.22 -1387.94 
	C 3373.73 -1344.83 3364.67 -1291.04 3384.9 -1251.63 
	C 3404.26 -1213.88 3445.96 -1185.39 3452 -1140.67 
	C 3455.09 -1117.48 3448.61 -1094.54 3450.34 -1071.34 
	C 3451.94 -1049.76 3457.92 -1028.97 3461.68 -1007.69 
	C 3470.2 -959.65 3478.09 -911.04 3491.17 -863.98 
	C 3497.52 -841.04 3505.48 -819.26 3515.97 -797.86 
	C 3524.72 -779.85 3538.66 -759.81 3535.58 -738.9 
	C 3532.86 -721.01 3514.98 -709.85 3511.95 -690.73 
	C 3508.69 -669.57 3512.88 -649.28 3517.14 -628.74 
	C 3525.4 -588.59 3479.2 -553.62 3441.77 -558.8 
	C 3428.2 -560.78 3396 -555.65 3386.5 -566.63 
	C 3374.96 -580.14 3385.45 -609.93 3388.72 -624.98 
	C 3397.79 -666.8 3430.48 -698.93 3434.37 -742.29 
	C 3438.44 -787.31 3414.44 -831.42 3401.86 -873.73 
	C 3387.98 -920.54 3374.96 -967.6 3360.71 -1014.29 
	C 3354.06 -1036.31 3347.02 -1055.68 3333.45 -1074.55 
	C 3319.95 -1093.24 3306.44 -1110.08 3298.61 -1132.1 
	C 3291.02 -1153.57 3291.95 -1177.87 3282.94 -1198.84 
	C 3273.63 -1220.3 3260.67 -1235.91 3244.21 -1252.19 
	C 3211.95 -1283.95 3186.78 -1320.16 3163.84 -1359.2 
	C 3155.39 -1373.57 3113.88 -1466.15 3089.28 -1432.53 
	C 3080.27 -1420.14 3084.21 -1388.49 3084.21 -1374.06 
	C 3084.21 -1351.18 3084.59 -1328.05 3087.79 -1305.17 
	C 3094.64 -1257.55 3102.91 -1214.44 3130.6 -1174.35 
	C 3142.08 -1157.63 3161.75 -1140.74 3162.3 -1119.39 
	C 3162.8 -1100.02 3151.02 -1080.41 3144.48 -1062.65 
	C 3127.39 -1016.14 3115.8 -969.39 3107.65 -920.54 
	C 3103.95 -898.03 3101 -875.33 3097.73 -852.76 
	C 3094.45 -830.06 3088.41 -806.99 3088.35 -783.98 
	C 3088.23 -758.94 3089.77 -738.9 3075.34 -717.37 
	C 3063.5 -699.85 3041.66 -689.43 3041.16 -666.37 
	C 3040.73 -642.12 3044 -626.83 3029.69 -605.18 
	C 3020.75 -591.79 2995.52 -577.3 2979.92 -573.67 
	C 2963.94 -570.02 2932.85 -562.75 2921.63 -576.99 
	C 2917.62 -582.05 2918.11 -591.68 2910.16 -591.55 
	C 2904.3 -591.43 2901.84 -583.41 2894.25 -585.01 
	C 2876.55 -588.59 2882.71 -609.68 2890.98 -618.75 
	C 2907.32 -636.57 2923.91 -653.48 2939.02 -672.41 
	C 2963.88 -703.62 2998.42 -741.8 3002.37 -783.06 
	C 3007.12 -832.4 3009.46 -882.06 3012.54 -931.58 
	C 3015.2 -975 3018.4 -1020.46 3007.61 -1063.08 
	C 2996.32 -1107.73 2976.16 -1149.8 2952.1 -1188.97 
	C 2929.4 -1225.73 2897.89 -1261.32 2885.24 -1303.01 
	C 2882.16 -1313.43 2879.63 -1323.98 2877.35 -1334.59 
	C 2876.67 -1337.67 2877.04 -1347.79 2874.94 -1349.45 
	C 2872.41 -1351.3 2857.06 -1346.98 2853.91 -1346.55 
	C 2831.77 -1343.53 2809.56 -1340.38 2787.17 -1338.97 
	C 2737.09 -1335.64 2689.66 -1339.89 2639.88 -1344.95 
	C 2593.5 -1349.58 2550.33 -1339.52 2506.6 -1325.34 
	C 2485.07 -1318.3 2462 -1308.99 2439.12 -1307.94 
	C 2416.3 -1306.89 2393.66 -1310.35 2370.96 -1309.05 
	C 2352.1 -1308.01 2337.48 -1297.09 2336.12 -1277.84 
	C 2334.58 -1254.96 2337.23 -1235.65 2328.23 -1213.7 
	C 2310.59 -1170.95 2290.23 -1137.71 2298.13 -1089.67 
	C 2305.47 -1045.5 2324.96 -1002.39 2338.71 -960.01 
	C 2353.95 -913.26 2366.71 -865.96 2380.4 -818.9 
	C 2387.19 -795.58 2393.73 -772.2 2401.99 -749.45 
	C 2407.29 -734.77 2425.55 -715.34 2424.44 -700.1 
	C 2423.83 -691.47 2416.85 -682.03 2413.9 -674.07 
	C 2409.82 -663.28 2409.58 -650.88 2409.89 -639.54 
	C 2410.38 -624 2420.99 -587.91 2410.38 -575.33 
	C 2399.71 -562.5 2372.38 -559.23 2356.72 -559.54 
	C 2332.79 -559.79 2327.73 -555.77 2317.49 -533.14 
	C 2297.45 -488.85 2260.13 -488.05 2217.02 -486.02 
	C 2203.14 -485.4 2181.37 -475.35 2175.57 -492.55 
	C 2167.74 -515.99 2163.05 -496.93 2147.14 -501.44 
	C 2118.15 -509.46 2177.3 -588.59 2188.96 -596.48 
	C 2206.1 -608.08 2233.55 -611.53 2245.58 -629.11 
	C 2256.56 -645.15 2255.63 -669.38 2256.13 -688.01 
	C 2257.48 -737.05 2252.42 -784.6 2245.08 -832.9 
	C 2231.14 -925.54 2217.88 -1020.15 2195.55 -1111.13 
	C 2184.39 -1156.52 2171.44 -1201.24 2164.59 -1247.5 
	C 2161.14 -1270.94 2176.38 -1290.43 2174.59 -1312.02 
	C 2172.98 -1332.06 2161.45 -1355.93 2146.58 -1369.68 
	C 2132.46 -1382.76 2116.55 -1395.46 2106.06 -1412.12 
	C 2101.68 -1419.15 2092.12 -1454.74 2079.66 -1451.1 
	C 2066.96 -1447.27 2080.59 -1411.5 2084.54 -1404.65 
	C 2095.27 -1385.6 2113.52 -1372.21 2126.72 -1355 
	C 2136.04 -1342.79 2158.61 -1321.63 2157.81 -1305.47 
	C 2156.82 -1287.22 2139.8 -1286.97 2128.14 -1294.74 
	C 2110.01 -1306.83 2097.61 -1325.7 2080.4 -1338.54 
	C 2064.8 -1350.19 2041.73 -1345.62 2028.72 -1359.45 
	C 1997.88 -1392.38 2029.46 -1441.66 1997.88 -1473.24 
	C 1983.82 -1487.37 1993.13 -1435.93 1993.62 -1431.36 
	C 1995.16 -1416.74 2003.43 -1387.14 1990.35 -1375.91 
	C 1972.77 -1360.93 1951.56 -1387.51 1943.42 -1400.4 
	C 1931.02 -1420.01 1930.65 -1441.41 1926.39 -1463.5 
	C 1922.26 -1484.77 1912.95 -1508.52 1905.55 -1529 
	C 1898.7 -1548.05 1874.64 -1564.28 1859.16 -1576.3 
	C 1821.48 -1605.6 1809.02 -1657.78 1791.01 -1700.59 
	C 1783.73 -1718.17 1774.17 -1728.59 1794.77 -1736.98 
	C 1814.81 -1745.06 1830.98 -1760.91 1838.38 -1781.94 
	C 1840.41 -1787.8 1843 -1817.84 1833.26 -1814.75 
	C 1829.68 -1813.65 1824.19 -1791.44 1821.66 -1786.82 
	C 1816.67 -1778.06 1810 -1769.73 1802.29 -1763.19 
	C 1786.32 -1749.5 1764.73 -1743.58 1748.14 -1730.38 
	C 1729.89 -1715.88 1727.67 -1703.3 1733.34 -1681.1 
	C 1737.35 -1665.19 1741.73 -1646.19 1731.24 -1631.75 
	C 1719.65 -1615.84 1695.78 -1614.49 1679.56 -1604.37 
	C 1662.22 -1593.58 1645.76 -1576 1623.55 -1581.92 
	C 1601.59 -1587.72 1587.84 -1603.26 1563.17 -1601.04 
	C 1541.4 -1599.13 1539.73 -1596.97 1531.71 -1619.11 
	C 1527.95 -1629.41 1524.87 -1635.89 1514.69 -1640.95 
	C 1506.05 -1645.2 1497.05 -1646.25 1491.56 -1655.07 
	C 1480.4 -1673.02 1496 -1697.94 1497.73 -1716.87 
	C 1499.7 -1738.4 1496.19 -1760.23 1498.34 -1781.76 
	C 1500.56 -1803.35 1508.83 -1824.62 1519.01 -1843.81 
	C 1529.98 -1864.59 1541.89 -1877.11 1542.32 -1901.72 
	C 1542.81 -1923.19 1552.43 -1943.48 1557.74 -1964.01 
	C 1563.72 -1986.96 1559.16 -2010.59 1562.24 -2033.9 
	C 1563.48 -2043.4 1582.78 -2075.59 1578.46 -2081.82 
	C 1571.74 -2091.51 1530.29 -2074.05 1521.04 -2072.57 
	C 1510.37 -2070.84 1499.57 -2073.37 1488.91 -2073.5 
	C 1476.45 -2073.56 1466.21 -2069.3 1454.24 -2067.08 
	C 1430.07 -2062.64 1408.23 -2054.93 1385.47 -2045.8 
	C 1365.61 -2037.85 1345.5 -2029.27 1323.85 -2034.14 
	C 1304.8 -2038.4 1281.17 -2044.45 1264.83 -2055.24 
	C 1247.56 -2066.71 1229.55 -2075.47 1212.22 -2086.33 
	C 1203.09 -2092.12 1195.5 -2099.53 1185.82 -2104.46 
	C 1177.24 -2108.9 1166.82 -2111.49 1161.77 -2120.62 
	C 1152.64 -2137.09 1163.62 -2156.58 1180.45 -2162.13 
	C 1200.07 -2168.54 1213.94 -2153.12 1229.8 -2145.04 
	C 1238.8 -2140.42 1248.61 -2137.46 1257.74 -2133.26 
	C 1266.99 -2129.07 1278.65 -2120.8 1288.64 -2119.75 
	C 1295.48 -2118.95 1294.31 -2116.36 1295.3 -2120.68 
	C 1296.53 -2126.04 1283.64 -2144.61 1280.19 -2149.05 
	C 1253.91 -2182.73 1225.73 -2216.9 1202.53 -2253.16 
	C 1188.29 -2275.43 1185.14 -2297.14 1180.58 -2322.8 
	C 1178.79 -2332.3 1178.36 -2342.23 1176.07 -2351.6 
	C 1174.04 -2359.87 1168.49 -2366.9 1166.51 -2374.98 
	C 1164.29 -2384.48 1166.64 -2393.42 1163.12 -2403.04 
	C 1159.11 -2413.77 1152.57 -2423.09 1150.17 -2434.44 
	C 1147.89 -2445.04 1145.42 -2474.34 1162.26 -2474.71 
	C 1168.36 -2474.84 1175.71 -2467.56 1180.64 -2464.91 
	C 1186.31 -2461.88 1191.68 -2463.79 1197.54 -2462.44 
	C 1214.99 -2458.55 1221.96 -2440.24 1221.59 -2423.89 
	C 1221.41 -2416.24 1216.41 -2407.05 1219.62 -2399.59 
	C 1222.64 -2392.5 1232.14 -2387.99 1236.95 -2381.95 
	C 1246.2 -2370.29 1264.21 -2344.63 1259.46 -2375.35 
	C 1256.26 -2396.38 1252.62 -2415.5 1242.87 -2434.75 
	C 1237.63 -2445.11 1231.52 -2455.53 1227.39 -2466.39 
	C 1225.05 -2472.62 1219.25 -2488.16 1219.37 -2494.14 
	C 1219.56 -2504.2 1235.66 -2524.12 1246.14 -2521.47 
	C 1259.28 -2518.13 1269.58 -2481.19 1274.76 -2470.09 
	C 1278.28 -2462.63 1294 -2440.67 1299.37 -2459.17 
	C 1304.12 -2475.58 1295.92 -2506.11 1291.04 -2522.27 
	C 1285.31 -2541.26 1248.98 -2614.23 1299.92 -2605.41 
	C 1341.56 -2598.26 1330.52 -2535.34 1364.63 -2518.69 
	C 1376.96 -2512.71 1366.66 -2543.18 1366.97 -2548.85 
	C 1367.46 -2557.92 1364.81 -2585.92 1375.97 -2589.93 
	C 1393.06 -2596.1 1402.62 -2580.74 1402.68 -2565.75 
	C 1402.74 -2558.66 1406.51 -2527.7 1418.22 -2546.01 
	C 1425.69 -2557.61 1409.34 -2577.28 1412.73 -2592.03 
	C 1417.98 -2615.03 1426.61 -2603.62 1439.75 -2595.23 
	C 1452.27 -2587.22 1460.54 -2599.36 1472.62 -2594.93 
	C 1488.23 -2589.25 1486.93 -2564.39 1494.64 -2552.61 
	C 1501.61 -2561.25 1492.54 -2586.17 1506.86 -2590.61 
	C 1522.46 -2595.42 1529.86 -2563.35 1532.7 -2554.4 
	C 1539.3 -2533.68 1546.39 -2515.73 1542.88 -2493.71 
	C 1539.61 -2473.23 1535.9 -2452.32 1532.27 -2431.91 
	C 1528.57 -2411.25 1513.39 -2395.83 1507.53 -2375.97 
	C 1501.55 -2355.67 1499.57 -2335.32 1498.28 -2314.35 
	C 1497.3 -2298.01 1491.31 -2271.61 1499.45 -2256.8 
	C 1508.4 -2240.27 1504.57 -2221.15 1510.12 -2203.76 
	C 1512.04 -2197.65 1529 -2164.78 1539.23 -2176.07 
	C 1543.19 -2180.38 1536.22 -2189.2 1535.1 -2192.9 
	C 1532.39 -2202.22 1532.08 -2213.2 1531.71 -2222.82 
	C 1530.85 -2244.72 1527.77 -2265.81 1533.62 -2287.15 
	C 1535.54 -2293.75 1538.99 -2300.23 1539.17 -2307.01 
	C 1539.42 -2316.2 1532.64 -2324.03 1536.71 -2333.59 
	C 1542.69 -2347.59 1569.27 -2347.78 1581.49 -2342.91 
	C 1602.09 -2334.7 1608.99 -2315.52 1621.39 -2299.06 
	C 1634.1 -2282.15 1640.88 -2264.64 1648.9 -2245.21 
	C 1652.36 -2236.7 1653.22 -2227.51 1657.04 -2219.18 
	C 1659.45 -2213.88 1670.24 -2197.1 1676.29 -2195.68 
	C 1683.26 -2194.01 1684.92 -2199.5 1690.47 -2203.21 
	C 1695.59 -2206.6 1700.9 -2205.86 1706.38 -2206.72 
	C 1723.66 -2209.31 1735.19 -2218.75 1753.57 -2219 
	C 1763.01 -2219.18 1770.59 -2218.38 1779.78 -2216.1 
	C 1787.92 -2214.06 1786.56 -2220.41 1788.05 -2226.27 
	C 1791.62 -2241.08 1793.54 -2258.47 1797.98 -2272.66 
	C 1800.01 -2279.38 1805.93 -2283.02 1809.08 -2289.37 
	C 1812.53 -2296.46 1811.73 -2304.23 1817.65 -2310.34 
	C 1829.19 -2322.37 1829.06 -2344.08 1839.73 -2358.08 
	C 1855.52 -2378.87 1906.22 -2440.79 1929.78 -2394.16 
	C 1938.11 -2377.69 1921.21 -2359.75 1926.02 -2341.86 
	C 1928.36 -2333.16 1934.9 -2326.44 1937.99 -2318.11 
	C 1941.87 -2307.63 1942.68 -2296.15 1944.28 -2285.11 
	C 1947.18 -2265.19 1952.42 -2244.9 1942.61 -2226.15 
	C 1938.17 -2217.58 1932.93 -2212.09 1934.22 -2202.04 
	C 1934.84 -2197.28 1940.27 -2181.62 1947.24 -2182.3 
	C 1952.17 -2182.79 1958.59 -2197.41 1960.87 -2201.23 
	C 1967.04 -2211.78 1964.51 -2222.64 1965.07 -2234.23 
	C 1965.99 -2255.51 1968.27 -2274.87 1963.65 -2296.03 
	C 1960.56 -2310.22 1953.28 -2338.03 1973.45 -2344.94 
	C 1996.03 -2352.71 1990.17 -2324.53 1990.97 -2313.61 
	C 1991.77 -2301.34 1996.46 -2272.53 2012.43 -2271.18 
	C 2036.06 -2269.2 2039.69 -2304.73 2040.74 -2320.21 
	C 2041.48 -2330.39 2036.06 -2338.71 2034.14 -2348.33 
	C 2032.11 -2358.39 2033.53 -2368.75 2031 -2378.74 
	C 2025.69 -2399.9 2014.28 -2420.07 2011.44 -2441.53 
	C 2008.18 -2466.26 2012.86 -2486.99 2020.57 -2510.36 
	C 2023.1 -2518.2 2023.29 -2525.04 2023.66 -2533.18 
	C 2024.15 -2542.19 2028.9 -2548.85 2031.06 -2557.36 
	C 2033.4 -2566.24 2032.35 -2575.8 2034.33 -2584.81 
	C 2036.12 -2593.07 2043.09 -2600.6 2046.79 -2608.18 
	C 2050.98 -2616.88 2051.23 -2627.61 2061.84 -2624.78 
	C 2068.81 -2622.93 2078.49 -2607.75 2082.81 -2601.77 
	C 2092.18 -2588.88 2096.69 -2623.36 2098.78 -2626.07 
	C 2110.07 -2640.26 2133.45 -2634.4 2149.54 -2638.65 
	C 2167.25 -2643.4 2185.69 -2648.03 2192.78 -2625.02 
	C 2198.45 -2606.76 2178.04 -2613.3 2177.24 -2600.41 
	C 2176.75 -2592.7 2188.22 -2579.2 2190.31 -2591.84 
	C 2191.73 -2601.03 2206.78 -2624.84 2218.44 -2619.23 
	C 2257.36 -2600.48 2216.71 -2533.06 2214.62 -2505.55 
	C 2213.07 -2485.75 2230.84 -2486.92 2239.47 -2500.74 
	C 2243.36 -2507.15 2242.93 -2511.47 2250.08 -2515.3 
	C 2255.75 -2518.38 2262.17 -2516.04 2265.87 -2522.33 
	C 2268.46 -2527.02 2265.07 -2535.59 2265.87 -2540.89 
	C 2266.98 -2549.16 2271.24 -2559.77 2277.53 -2565.38 
	C 2290.35 -2576.85 2297.39 -2564.46 2301.89 -2551.56 
	C 2317.25 -2507.53 2298.74 -2458.25 2291.65 -2413.59 
	C 2284.56 -2368.94 2270.5 -2323.6 2246.81 -2284.99 
	C 2228.62 -2255.2 2200.12 -2232.13 2175.7 -2207.77 
	C 2164.1 -2196.24 2145.41 -2193.03 2131.35 -2185.01 
	C 2115.37 -2175.94 2103.47 -2162.5 2090.58 -2149.67 
	M 1896.36 -2318.48 
	C 1861.75 -2338.28 1852.31 -2259.33 1852.87 -2240.27 
	C 1853.06 -2234.73 1855.89 -2202.9 1865.33 -2204.87 
	C 1876.12 -2207.09 1868.23 -2238.24 1870.14 -2245.21 
	C 1882.29 -2288.81 1906.47 -2218.32 1917.08 -2223.68 
	C 1925.41 -2227.88 1915.47 -2260.75 1912.82 -2267.35 
	C 1907.15 -2281.35 1907.89 -2308.92 1896.36 -2318.48 
	M 1554.41 -2265.19 
	C 1541.34 -2247.55 1550.34 -2212.21 1552.81 -2191.06 
	C 1554.65 -2174.59 1558.54 -2176.99 1569.34 -2169.34 
	C 1577.29 -2163.73 1581.24 -2147.14 1591.29 -2146.28 
	C 1593.95 -2146.09 1599.31 -2140.91 1600.92 -2141.47 
	C 1604.06 -2142.51 1605.36 -2154.85 1605.23 -2157.69 
	C 1604.31 -2177.86 1583.03 -2199.69 1575.63 -2217.58 
	C 1568.91 -2234.04 1562.18 -2249.03 1554.41 -2265.19 
	M 1757.21 -1999.11 
	C 1744.38 -2008.12 1734.14 -2008.24 1720.82 -2000.65 
	C 1710.95 -1995.04 1702.87 -1985.85 1710.58 -1974.07 
	C 1724.7 -1952.67 1755.79 -1981.47 1757.21 -1999.11 
	M 2308.8 -838.51 
	C 2313.05 -851.83 2302.51 -850.84 2300.35 -838.51 
	C 2296.77 -818.71 2304.3 -792.5 2306.02 -772.45 
	C 2308.24 -748.15 2318.48 -725.14 2327.79 -703.68 
	C 2328.84 -701.34 2337.23 -680 2339.39 -689.37 
	C 2343.15 -705.71 2333.41 -732.92 2329.89 -749.01 
	C 2324.09 -775.47 2304.48 -810.88 2308.8 -838.51 
	M 1673.39 -1687.76 
	C 1662.04 -1693.62 1655.13 -1688.75 1653.09 -1677.09 
	C 1652.29 -1672.83 1649.83 -1668.95 1654.27 -1666.17 
	C 1658.71 -1663.4 1659.51 -1669.56 1663.21 -1668.95 
	C 1669.19 -1668.02 1677.89 -1657.17 1683.63 -1665.56 
	C 1687.7 -1671.48 1677.27 -1683.56 1673.39 -1687.76 
	M 1631.88 -2133.39 
	C 1653.96 -2125.8 1650.81 -2171.19 1640.63 -2178.78 
	C 1632.68 -2184.7 1632.56 -2179.83 1632.43 -2170.08 
	C 1632.31 -2161.02 1625.46 -2139.99 1631.88 -2133.39 
	"/>
</g>
</g >
</g>
</svg>
