<?xml version="1.0" standalone="no"?>
<svg width="3562px" height="3562px" viewBox="-15 -2755 3562 3562 " xmlns="http://www.w3.org/2000/svg" xmlns:xlink="http://www.w3.org/1999/xlink">
<title>generated by pstoedit</title>
<!-- generated by pstoedit version:4.02 -->
<g xml:space='preserve'>
<clipPath id="clippath1"> 	<path d="
	M 0 -2739.93 
	L 0 792 
	L 3531.94 792 
	L 3531.94 -2739.93 
	Z 
	" style="clip-rule:nonzero"/>
</clipPath>
<g style="clip-path:url(#clippath1)"> 
<g fill="#95e8ff" fill-rule="nonzero" stroke-width="0" stroke-linejoin="miter" stroke-linecap="butt" stroke-miterlimit="10" >
	<path d="
	M 1880.52 744.309 
	C 1817.25 807.57 1714.68 807.57 1651.42 744.309 
	L 47.6992 -859.41 
	C -15.5664 -922.68 -15.5664 -1025.25 47.6992 -1088.51 
	L 1651.42 -2692.23 
	C 1714.68 -2755.5 1817.25 -2755.5 1880.52 -2692.23 
	L 3484.24 -1088.51 
	C 3547.5 -1025.25 3547.5 -922.68 3484.24 -859.41 
	Z 
	"/>
</g>
<g stroke="#7f7f7f" fill="none" stroke-width="0.5" stroke-linejoin="miter" stroke-linecap="butt" stroke-miterlimit="4" >
	<path d="
	M 1880.52 744.309 
	C 1817.25 807.57 1714.68 807.57 1651.42 744.309 
	L 47.6992 -859.41 
	C -15.5664 -922.68 -15.5664 -1025.25 47.6992 -1088.51 
	L 1651.42 -2692.23 
	C 1714.68 -2755.5 1817.25 -2755.5 1880.52 -2692.23 
	L 3484.24 -1088.51 
	C 3547.5 -1025.25 3547.5 -922.68 3484.24 -859.41 
	Z 
	"/>
</g>
<g fill="#7f7f7f" fill-rule="nonzero" stroke-width="0" stroke-linejoin="miter" stroke-linecap="butt" stroke-miterlimit="4" >
	<path d="
	M 3407.87 -935.78 
	L 1804.15 667.941 
	C 1783.1 688.988 1748.84 688.988 1727.79 667.941 
	L 124.066 -935.78 
	C 103.012 -956.83 103.012 -991.09 124.066 -1012.15 
	L 1727.79 -2615.86 
	C 1748.84 -2636.92 1783.1 -2636.92 1804.15 -2615.86 
	L 3407.87 -1012.15 
	C 3428.92 -991.09 3428.92 -956.83 3407.87 -935.78 
	Z 
	M 3452.42 -1056.69 
	L 1848.7 -2660.41 
	C 1803.08 -2706.03 1728.85 -2706.03 1683.24 -2660.41 
	L 79.5195 -1056.69 
	C 33.8984 -1011.08 33.8984 -936.85 79.5195 -891.23 
	L 1683.24 712.488 
	C 1728.85 758.102 1803.08 758.102 1848.7 712.488 
	L 3452.42 -891.23 
	C 3498.04 -936.85 3498.04 -1011.08 3452.42 -1056.69 
	Z 
	"/>
</g>
<g fill="#7f7f7f" fill-rule="evenodd" stroke-width="0" stroke-linejoin="miter" stroke-linecap="butt" stroke-miterlimit="4" >
	<path d="
	M 1689.58 -1000.99 
	C 1741.81 -1000.99 1784.41 -958.39 1784.41 -906.16 
	C 1784.41 -853.92 1741.81 -811.33 1689.58 -811.33 
	C 1637.35 -811.33 1594.75 -853.92 1594.75 -906.16 
	C 1594.75 -958.39 1637.35 -1000.99 1689.58 -1000.99 
	Z 
	"/>
</g>
<g fill="#7f7f7f" fill-rule="evenodd" stroke-width="0" stroke-linejoin="miter" stroke-linecap="butt" stroke-miterlimit="4" >
	<path d="
	M 1402.46 -403.03 
	L 1601.38 -535.65 
	C 1610.57 -574.52 1648.71 -747.07 1725.23 -787 
	C 1801.02 -837.11 2080.46 -631.26 2082.07 -629.57 
	L 2082.07 -329.27 
	L 2021.48 -339.82 
	L 1997.77 -579.52 
	C 1974.94 -584.11 1952.11 -588.7 1929.28 -593.29 
	C 1979.17 -464.33 1997.49 -340.04 1968.8 -258.15 
	L 2089.97 237.07 
	L 2008.31 295.012 
	L 1831.82 -163.32 
	L 1750.16 -76.391 
	L 1636.89 268.672 
	L 1528.9 229.16 
	L 1626.36 -134.352 
	L 1739.63 -337.18 
	L 1696.21 -486.87 
	L 1650.06 -426.74 
	L 1434.07 -355.62 
	Z 
	"/>
</g>
<g fill="#7f7f7f" fill-rule="nonzero" stroke-width="0" stroke-linejoin="miter" stroke-linecap="butt" stroke-miterlimit="4" >
	<path d="
	M 2265.13 -1184.23 
	C 2155.17 -1184.23 2062.03 -1256.17 2030.17 -1355.55 
	L 2249.49 -1402.79 
	C 2254.13 -1400.21 2259.46 -1398.74 2265.13 -1398.74 
	C 2282.92 -1398.74 2297.33 -1413.16 2297.33 -1430.94 
	C 2297.33 -1446.46 2286.35 -1459.41 2271.73 -1462.46 
	L 2136.87 -1641.72 
	C 2174.24 -1664.52 2218.15 -1677.65 2265.13 -1677.65 
	C 2401.39 -1677.65 2511.84 -1567.2 2511.84 -1430.94 
	C 2511.84 -1294.68 2401.39 -1184.23 2265.13 -1184.23 
	Z 
	M 2018.42 -1430.94 
	C 2018.42 -1502.8 2049.15 -1567.47 2098.18 -1612.56 
	L 2223 -1446.65 
	L 2020.01 -1402.93 
	C 2018.97 -1412.12 2018.42 -1421.47 2018.42 -1430.94 
	Z 
	M 1963.69 -1390.8 
	L 1867.18 -1370.01 
	L 1979.21 -1770.69 
	L 2063.55 -1658.59 
	C 2000.69 -1602.88 1961.04 -1521.54 1961.04 -1430.94 
	C 1961.04 -1417.33 1961.95 -1403.93 1963.69 -1390.8 
	Z 
	M 1826.28 -1403.67 
	L 1811.31 -1460.6 
	L 1834.68 -1460.6 
	L 1834.68 -1483.55 
	L 1760.81 -1483.55 
	L 1760.81 -1460.6 
	L 1790.22 -1460.6 
	L 1805.07 -1404.13 
	L 1487.2 -1750.09 
	C 1492.36 -1766.56 1497.64 -1783.54 1502.87 -1800.45 
	L 1937.23 -1800.45 
	Z 
	M 1513.52 -1430.94 
	C 1513.52 -1294.68 1403.06 -1184.23 1266.81 -1184.23 
	C 1130.55 -1184.23 1020.09 -1294.68 1020.09 -1430.94 
	C 1020.09 -1567.2 1130.55 -1677.65 1266.81 -1677.65 
	C 1315.24 -1677.65 1360.41 -1663.68 1398.53 -1639.57 
	C 1368.23 -1573.84 1309.13 -1503.04 1266.56 -1463.13 
	C 1248.89 -1463 1234.61 -1448.64 1234.61 -1430.94 
	C 1234.61 -1413.16 1249.02 -1398.74 1266.81 -1398.74 
	C 1283.25 -1398.74 1296.8 -1411.06 1298.76 -1426.97 
	C 1319.59 -1446.48 1346.78 -1475.19 1373.67 -1509.59 
	C 1393.68 -1535.19 1418.61 -1570.56 1437.62 -1608.95 
	C 1484.4 -1564.05 1513.52 -1500.9 1513.52 -1430.94 
	Z 
	M 2265.13 -1735.03 
	C 2205.2 -1735.03 2149.33 -1717.68 2102.24 -1687.75 
	L 1995.64 -1829.44 
	L 2009.62 -1879.45 
	C 2076.45 -1885.2 2113.4 -1910.6 2111.14 -1935.18 
	C 2108.94 -1959 2042.64 -1941.15 1968.92 -1940.21 
	C 1948.7 -1939.95 1841.42 -1940.43 1842.04 -1920.75 
	C 1842.68 -1900.58 1911.27 -1884.14 1959.34 -1879.53 
	L 1950.77 -1848.89 
	L 1517.78 -1848.89 
	C 1527 -1879 1535.44 -1906.79 1541.97 -1928.33 
	C 1547.54 -1946.75 1551.71 -1960.6 1553.78 -1967.45 
	L 1522.28 -1991.54 
	L 1537.16 -2006.6 
	L 1653.13 -2006.6 
	L 1653.13 -2044.85 
	L 1521.18 -2044.85 
	L 1464.56 -1987.53 
	L 1500.86 -1959.77 
	C 1484.05 -1904.1 1444.33 -1773.31 1418.63 -1694.46 
	C 1373.95 -1720.26 1322.11 -1735.03 1266.81 -1735.03 
	C 1098.86 -1735.03 962.719 -1598.88 962.719 -1430.94 
	C 962.719 -1263 1098.86 -1126.85 1266.81 -1126.85 
	C 1434.75 -1126.85 1570.89 -1263 1570.89 -1430.94 
	C 1570.89 -1525.44 1527.79 -1609.87 1460.16 -1665.64 
	C 1463.31 -1675.14 1466.72 -1685.63 1470.33 -1696.85 
	L 1797.54 -1340.71 
	C 1797.46 -1339.78 1797.41 -1338.83 1797.41 -1337.88 
	C 1797.41 -1318.6 1812.73 -1302.91 1831.85 -1302.28 
	L 1854.77 -1215.16 
	L 1831.39 -1215.16 
	L 1831.39 -1192.21 
	L 1905.27 -1192.21 
	L 1905.27 -1215.16 
	L 1875.86 -1215.16 
	L 1851.59 -1307.46 
	C 1856.54 -1310.49 1860.7 -1314.7 1863.67 -1319.69 
	L 1973.85 -1343.42 
	C 2011.44 -1218.14 2127.61 -1126.85 2265.13 -1126.85 
	C 2433.07 -1126.85 2569.22 -1263 2569.22 -1430.94 
	C 2569.22 -1598.88 2433.07 -1735.03 2265.13 -1735.03 
	Z 
	"/>
</g>
</g >
</g>
</svg>
