<?xml version="1.0" standalone="no"?>
<svg width="3562px" height="3562px" viewBox="-15 -2755 3562 3562 " xmlns="http://www.w3.org/2000/svg" xmlns:xlink="http://www.w3.org/1999/xlink">
<title>generated by pstoedit</title>
<!-- generated by pstoedit version:4.02 -->
<g xml:space='preserve'>
<clipPath id="clippath1"> 	<path d="
	M 0 -2739.94 
	L 0 792 
	L 3531.93 792 
	L 3531.93 -2739.94 
	Z 
	" style="clip-rule:nonzero"/>
</clipPath>
<g style="clip-path:url(#clippath1)"> 
<g fill="#95e8ff" fill-rule="nonzero" stroke-width="0" stroke-linejoin="miter" stroke-linecap="butt" stroke-miterlimit="10" >
	<path d="
	M 1880.52 744.301 
	C 1817.25 807.559 1714.68 807.559 1651.42 744.301 
	L 47.6992 -859.42 
	C -15.5664 -922.69 -15.5664 -1025.26 47.6992 -1088.52 
	L 1651.42 -2692.24 
	C 1714.68 -2755.51 1817.25 -2755.51 1880.52 -2692.24 
	L 3484.24 -1088.52 
	C 3547.5 -1025.26 3547.5 -922.69 3484.24 -859.42 
	Z 
	"/>
</g>
<g stroke="#7f7f7f" fill="none" stroke-width="0.5" stroke-linejoin="miter" stroke-linecap="butt" stroke-miterlimit="4" >
	<path d="
	M 1880.52 744.301 
	C 1817.25 807.559 1714.68 807.559 1651.42 744.301 
	L 47.6992 -859.42 
	C -15.5664 -922.69 -15.5664 -1025.26 47.6992 -1088.52 
	L 1651.42 -2692.24 
	C 1714.68 -2755.51 1817.25 -2755.51 1880.52 -2692.24 
	L 3484.24 -1088.52 
	C 3547.5 -1025.26 3547.5 -922.69 3484.24 -859.42 
	Z 
	"/>
</g>
<g fill="#7f7f7f" fill-rule="nonzero" stroke-width="0" stroke-linejoin="miter" stroke-linecap="butt" stroke-miterlimit="4" >
	<path d="
	M 3407.87 -935.79 
	L 1804.15 667.93 
	C 1783.1 688.98 1748.84 688.98 1727.78 667.93 
	L 124.066 -935.79 
	C 103.012 -956.84 103.012 -991.1 124.066 -1012.15 
	L 1727.78 -2615.88 
	C 1748.84 -2636.93 1783.1 -2636.93 1804.15 -2615.88 
	L 3407.87 -1012.15 
	C 3428.92 -991.1 3428.92 -956.84 3407.87 -935.79 
	Z 
	M 3452.42 -1056.7 
	L 1848.7 -2660.42 
	C 1803.08 -2706.04 1728.85 -2706.04 1683.24 -2660.42 
	L 79.5195 -1056.7 
	C 33.9023 -1011.09 33.9023 -936.86 79.5195 -891.24 
	L 1683.24 712.48 
	C 1728.85 758.102 1803.08 758.102 1848.7 712.48 
	L 3452.42 -891.24 
	C 3498.04 -936.86 3498.04 -1011.09 3452.42 -1056.7 
	Z 
	"/>
</g>
<g fill="#7f7f7f" fill-rule="evenodd" stroke-width="0" stroke-linejoin="miter" stroke-linecap="butt" stroke-miterlimit="4" >
	<path d="
	M 1354.89 -1369.26 
	C 1358.68 -1356.08 1378.07 -1356.27 1388.57 -1358.25 
	C 1406.61 -1361.68 1424.46 -1363.3 1442.6 -1365.47 
	C 1458.93 -1367.41 1472.44 -1375.51 1487.33 -1381.8 
	C 1502.23 -1388.05 1515.18 -1394.38 1525.73 -1407.01 
	C 1535.53 -1418.76 1545.57 -1432.78 1559.31 -1440.27 
	C 1574.34 -1448.46 1589.19 -1453.92 1602.33 -1465.3 
	C 1615.19 -1476.45 1628.23 -1488.43 1640.13 -1500.55 
	C 1651.69 -1512.25 1657.19 -1525.71 1664.09 -1540.28 
	C 1670.98 -1554.9 1679.91 -1566.05 1680.37 -1582.7 
	C 1680.51 -1587.1 1678.93 -1617.77 1673.52 -1617.67 
	C 1669.59 -1617.63 1664.64 -1583.03 1663.3 -1578.22 
	C 1658.72 -1562.16 1652.75 -1547.04 1644.66 -1532.42 
	C 1636.61 -1517.99 1624.95 -1504.9 1614.96 -1491.76 
	C 1607.65 -1482.09 1593.03 -1468.3 1580.26 -1466.87 
	C 1562.64 -1464.88 1600.11 -1538.06 1592.06 -1540.1 
	C 1585.82 -1541.67 1571.61 -1513.04 1569.3 -1508.27 
	C 1562.08 -1493.28 1557.37 -1477.37 1550.57 -1462.2 
	C 1544.09 -1447.67 1533.41 -1433.33 1520.87 -1423.53 
	C 1509.26 -1414.41 1492.37 -1415.43 1491.49 -1432.59 
	C 1491.08 -1440.78 1493.39 -1448.37 1492.1 -1456.6 
	C 1490.71 -1464.93 1488.02 -1473.07 1485.2 -1480.98 
	C 1482.29 -1489.08 1478.13 -1501.94 1477.25 -1485.79 
	C 1475.44 -1454.43 1478.59 -1419.55 1455.83 -1393.83 
	C 1438.67 -1374.4 1431.31 -1387.12 1428.81 -1406.92 
	C 1427.98 -1413.02 1418.4 -1447.03 1414.01 -1429.86 
	C 1408.92 -1409.79 1422.34 -1395.82 1402.49 -1380.83 
	C 1393.98 -1374.31 1387.36 -1372.69 1376.77 -1373.47 
	C 1371.31 -1373.84 1356.56 -1377.27 1354.89 -1369.26 
	M 1186.56 -1383 
	C 1190.39 -1396 1175.31 -1402.06 1165.18 -1401.65 
	C 1148.81 -1400.86 1133.54 -1402.25 1117.26 -1404.1 
	C 1102.73 -1405.76 1090.48 -1410.25 1083.35 -1423.9 
	C 1079.05 -1432.18 1073.87 -1462.48 1060.59 -1462.75 
	C 1052.03 -1462.94 1061.8 -1437.73 1063.74 -1432.22 
	C 1067.81 -1420.89 1079.56 -1402.48 1071.97 -1390.59 
	C 1064.11 -1378.28 1043.66 -1381.15 1032.42 -1385.87 
	C 1025.76 -1388.69 1020.16 -1392.49 1015.3 -1397.76 
	C 1011.65 -1401.78 1008.97 -1412.19 1003.97 -1414.37 
	C 992.223 -1419.5 997.727 -1401.51 1000.18 -1396.28 
	C 1005.82 -1384.44 1010.82 -1367.78 992.824 -1363.76 
	C 978.207 -1360.43 964.422 -1372.73 952.348 -1378.7 
	C 946.195 -1381.71 920.613 -1384.81 930.281 -1370.98 
	C 939.949 -1357.15 952.945 -1352.29 968.629 -1348.26 
	C 985.516 -1344.01 996.387 -1338.59 1013.59 -1345.53 
	C 1030.48 -1352.33 1047.04 -1359.41 1064.2 -1365.29 
	C 1080.58 -1370.88 1097.78 -1371.35 1114.48 -1375 
	C 1127.21 -1377.78 1139.79 -1382.73 1152.88 -1383.19 
	C 1161.39 -1383.51 1180.31 -1376.34 1186.56 -1383 
	M 1554.5 -1414.32 
	C 1589.66 -1416.54 1623.79 -1421.49 1659.09 -1419.18 
	C 1693.04 -1416.96 1724.41 -1404.47 1754.61 -1389.66 
	C 1787.78 -1373.38 1820.25 -1355.71 1853.88 -1340.31 
	C 1886.64 -1325.32 1921.33 -1317.78 1955.89 -1308.02 
	C 1988.59 -1298.81 2017.73 -1294.23 2051.69 -1298.81 
	C 2086.61 -1303.48 2123.44 -1306.31 2157.44 -1315.51 
	C 2190.97 -1324.67 2219.98 -1337.58 2255.69 -1334.48 
	C 2289.74 -1331.56 2321.79 -1325.41 2350.34 -1305.57 
	C 2406.26 -1266.71 2455.62 -1205.6 2480.65 -1142.5 
	C 2492.58 -1112.43 2506.5 -1077 2494.57 -1045.78 
	C 2481.99 -1012.93 2491.38 -976.8 2498.18 -943.87 
	C 2505.02 -910.61 2511.41 -876.84 2514.23 -843.02 
	C 2516.87 -810.69 2510.07 -770.35 2525.24 -740.79 
	C 2539.76 -712.48 2571.04 -691.11 2575.57 -657.57 
	C 2577.88 -640.18 2573.03 -622.97 2574.32 -605.57 
	C 2575.53 -589.38 2580.01 -573.79 2582.83 -557.84 
	C 2589.22 -521.8 2595.13 -485.35 2604.95 -450.05 
	C 2609.71 -432.85 2615.68 -416.51 2623.54 -400.46 
	C 2630.11 -386.96 2640.57 -371.92 2638.25 -356.24 
	C 2636.22 -342.82 2622.8 -334.45 2620.53 -320.11 
	C 2618.08 -304.25 2621.23 -289.02 2624.42 -273.62 
	C 2630.62 -243.5 2595.97 -217.28 2567.89 -221.16 
	C 2557.72 -222.65 2533.57 -218.8 2526.44 -227.04 
	C 2517.79 -237.17 2525.66 -259.52 2528.11 -270.8 
	C 2534.91 -302.16 2559.43 -326.26 2562.34 -358.78 
	C 2565.39 -392.55 2547.4 -425.63 2537.96 -457.36 
	C 2527.56 -492.47 2517.79 -527.77 2507.1 -562.78 
	C 2502.11 -579.3 2496.84 -593.83 2486.66 -607.98 
	C 2476.53 -622 2466.4 -634.62 2460.52 -651.14 
	C 2454.83 -667.24 2455.53 -685.46 2448.77 -701.19 
	C 2441.79 -717.29 2432.07 -729 2419.72 -741.21 
	C 2395.53 -765.03 2376.66 -792.18 2359.45 -821.47 
	C 2353.11 -832.24 2321.98 -901.68 2303.52 -876.47 
	C 2296.77 -867.17 2299.73 -843.44 2299.73 -832.61 
	C 2299.73 -815.45 2300.01 -798.1 2302.41 -780.94 
	C 2307.55 -745.23 2313.75 -712.9 2334.52 -682.83 
	C 2343.12 -670.29 2357.88 -657.62 2358.29 -641.61 
	C 2358.66 -627.08 2349.83 -612.37 2344.92 -599.05 
	C 2332.11 -564.17 2323.41 -529.11 2317.31 -492.47 
	C 2314.53 -475.59 2312.31 -458.56 2309.86 -441.64 
	C 2307.41 -424.61 2302.88 -407.31 2302.83 -390.05 
	C 2302.74 -371.27 2303.89 -356.24 2293.07 -340.1 
	C 2284.19 -326.96 2267.81 -319.14 2267.44 -301.84 
	C 2267.12 -283.66 2269.57 -272.19 2258.83 -255.95 
	C 2252.13 -245.91 2233.21 -235.04 2221.5 -232.31 
	C 2209.52 -229.58 2186.21 -224.12 2177.79 -234.81 
	C 2174.78 -238.61 2175.15 -245.82 2169.19 -245.73 
	C 2164.79 -245.64 2162.94 -239.62 2157.25 -240.82 
	C 2143.97 -243.5 2148.6 -259.32 2154.8 -266.13 
	C 2167.06 -279.5 2179.5 -292.17 2190.83 -306.38 
	C 2209.48 -329.78 2235.38 -358.41 2238.34 -389.36 
	C 2241.91 -426.37 2243.66 -463.61 2245.97 -500.75 
	C 2247.97 -533.32 2250.37 -567.41 2242.28 -599.38 
	C 2233.81 -632.87 2218.68 -664.42 2200.64 -693.79 
	C 2183.62 -721.36 2159.98 -748.05 2150.5 -779.32 
	C 2148.18 -787.14 2146.29 -795.05 2144.58 -803.01 
	C 2144.07 -805.32 2144.34 -812.91 2142.77 -814.16 
	C 2140.88 -815.54 2129.36 -812.31 2127 -811.98 
	C 2110.39 -809.72 2093.74 -807.36 2076.94 -806.29 
	C 2039.38 -803.8 2003.81 -806.99 1966.48 -810.78 
	C 1931.69 -814.25 1899.31 -806.71 1866.51 -796.07 
	C 1850.37 -790.8 1833.07 -783.81 1815.91 -783.02 
	C 1798.79 -782.24 1781.81 -784.83 1764.79 -783.86 
	C 1750.64 -783.07 1739.67 -774.88 1738.66 -760.45 
	C 1737.5 -743.29 1739.49 -728.81 1732.73 -712.34 
	C 1719.5 -680.28 1704.24 -655.35 1710.16 -619.31 
	C 1715.67 -586.19 1730.28 -553.86 1740.6 -522.08 
	C 1752.02 -487.01 1761.6 -451.53 1771.87 -416.24 
	C 1776.96 -398.75 1781.86 -381.22 1788.06 -364.15 
	C 1792.04 -353.14 1805.73 -338.57 1804.9 -327.14 
	C 1804.43 -320.67 1799.2 -313.59 1796.99 -307.62 
	C 1793.93 -299.52 1793.75 -290.23 1793.98 -281.72 
	C 1794.35 -270.06 1802.31 -243 1794.35 -233.56 
	C 1786.34 -223.94 1765.85 -221.49 1754.1 -221.72 
	C 1736.16 -221.91 1732.36 -218.9 1724.69 -201.918 
	C 1709.65 -168.699 1681.67 -168.109 1649.33 -166.578 
	C 1638.92 -166.109 1622.59 -158.578 1618.24 -171.48 
	C 1612.37 -189.059 1608.85 -174.762 1596.92 -178.141 
	C 1575.18 -184.16 1619.54 -243.5 1628.28 -249.43 
	C 1641.14 -258.13 1661.73 -260.71 1670.75 -273.9 
	C 1678.98 -285.93 1678.29 -304.11 1678.66 -318.08 
	C 1679.67 -354.85 1675.88 -390.52 1670.38 -426.74 
	C 1659.92 -496.22 1649.98 -567.18 1633.23 -635.41 
	C 1624.86 -669.46 1615.14 -703 1610.01 -737.69 
	C 1607.42 -755.27 1618.85 -769.89 1617.5 -786.08 
	C 1616.3 -801.11 1607.65 -819.01 1596.5 -829.33 
	C 1585.91 -839.14 1573.97 -848.67 1566.11 -861.15 
	C 1562.82 -866.43 1555.65 -893.12 1546.31 -890.39 
	C 1536.78 -887.52 1547 -860.69 1549.97 -855.56 
	C 1558.01 -841.26 1571.7 -831.23 1581.61 -818.32 
	C 1588.59 -809.16 1605.52 -793.29 1604.92 -781.17 
	C 1604.18 -767.48 1591.41 -767.29 1582.67 -773.12 
	C 1569.07 -782.19 1559.77 -796.34 1546.87 -805.97 
	C 1535.16 -814.71 1517.86 -811.28 1508.1 -821.65 
	C 1484.97 -846.35 1508.66 -883.31 1484.97 -907 
	C 1474.43 -917.59 1481.41 -879.01 1481.78 -875.59 
	C 1482.93 -864.63 1489.13 -842.42 1479.33 -834 
	C 1466.14 -822.76 1450.23 -842.7 1444.13 -852.37 
	C 1434.83 -867.08 1434.55 -883.13 1431.36 -899.69 
	C 1428.26 -915.65 1421.27 -933.46 1415.72 -948.82 
	C 1410.59 -963.11 1392.55 -975.28 1380.94 -984.3 
	C 1352.67 -1006.27 1343.33 -1045.4 1329.82 -1077.51 
	C 1324.36 -1090.69 1317.19 -1098.51 1332.64 -1104.8 
	C 1347.67 -1110.86 1359.79 -1122.75 1365.35 -1138.52 
	C 1366.87 -1142.92 1368.82 -1165.45 1361.5 -1163.13 
	C 1358.82 -1162.3 1354.7 -1145.65 1352.81 -1142.18 
	C 1349.06 -1135.61 1344.06 -1129.36 1338.28 -1124.46 
	C 1326.3 -1114.19 1310.11 -1109.75 1297.67 -1099.85 
	C 1283.98 -1088.98 1282.31 -1079.54 1286.57 -1062.89 
	C 1289.57 -1050.96 1292.86 -1036.71 1284.99 -1025.88 
	C 1276.3 -1013.95 1258.4 -1012.93 1246.23 -1005.34 
	C 1233.23 -997.25 1220.88 -984.07 1204.22 -988.51 
	C 1187.76 -992.86 1177.44 -1004.51 1158.94 -1002.85 
	C 1142.61 -1001.41 1141.36 -999.8 1135.35 -1016.4 
	C 1132.52 -1024.13 1130.21 -1028.98 1122.58 -1032.78 
	C 1116.1 -1035.97 1109.35 -1036.75 1105.23 -1043.37 
	C 1096.86 -1056.83 1108.56 -1075.52 1109.86 -1089.72 
	C 1111.34 -1105.87 1108.7 -1122.24 1110.32 -1138.38 
	C 1111.99 -1154.58 1118.18 -1170.54 1125.82 -1184.92 
	C 1134.05 -1200.51 1142.98 -1209.9 1143.3 -1228.36 
	C 1143.67 -1244.46 1150.89 -1259.68 1154.87 -1275.08 
	C 1159.36 -1292.29 1155.93 -1310.01 1158.24 -1327.49 
	C 1159.17 -1334.62 1173.65 -1358.76 1170.41 -1363.44 
	C 1165.37 -1370.7 1134.28 -1357.61 1127.34 -1356.5 
	C 1119.34 -1355.2 1111.24 -1357.1 1103.24 -1357.19 
	C 1093.9 -1357.24 1086.22 -1354.04 1077.25 -1352.38 
	C 1059.11 -1349.05 1042.74 -1343.27 1025.67 -1336.42 
	C 1010.77 -1330.45 995.691 -1324.02 979.453 -1327.68 
	C 965.16 -1330.87 947.441 -1335.4 935.184 -1343.5 
	C 922.23 -1352.1 908.723 -1358.67 895.727 -1366.81 
	C 888.879 -1371.16 883.188 -1376.71 875.926 -1380.41 
	C 869.496 -1383.74 861.68 -1385.69 857.887 -1392.53 
	C 851.039 -1404.88 859.273 -1419.5 871.902 -1423.67 
	C 886.613 -1428.48 897.02 -1416.91 908.906 -1410.85 
	C 915.66 -1407.38 923.016 -1405.16 929.863 -1402.02 
	C 936.805 -1398.87 945.547 -1392.67 953.039 -1391.88 
	C 958.176 -1391.28 957.297 -1389.34 958.035 -1392.58 
	C 958.965 -1396.6 949.293 -1410.53 946.703 -1413.86 
	C 926.996 -1439.11 905.855 -1464.74 888.465 -1491.94 
	C 877.777 -1508.64 875.418 -1524.92 871.996 -1544.17 
	C 870.652 -1551.29 870.328 -1558.74 868.617 -1565.77 
	C 867.09 -1571.97 862.926 -1577.24 861.445 -1583.3 
	C 859.781 -1590.43 861.539 -1597.14 858.902 -1604.35 
	C 855.895 -1612.4 850.992 -1619.39 849.188 -1627.9 
	C 847.477 -1635.85 845.629 -1657.83 858.254 -1658.1 
	C 862.836 -1658.2 868.34 -1652.74 872.043 -1650.75 
	C 876.297 -1648.48 880.32 -1649.92 884.715 -1648.9 
	C 897.809 -1645.98 903.035 -1632.25 902.758 -1619.99 
	C 902.617 -1614.25 898.871 -1607.36 901.277 -1601.76 
	C 903.543 -1596.44 910.668 -1593.06 914.273 -1588.53 
	C 921.215 -1579.79 934.723 -1560.54 931.16 -1583.58 
	C 928.754 -1599.36 926.023 -1613.69 918.715 -1628.13 
	C 914.785 -1635.9 910.203 -1643.72 907.105 -1651.86 
	C 905.348 -1656.53 901 -1668.19 901.09 -1672.68 
	C 901.23 -1680.22 913.305 -1695.16 921.168 -1693.17 
	C 931.02 -1690.67 938.746 -1662.96 942.633 -1654.64 
	C 945.27 -1649.04 957.066 -1632.57 961.09 -1646.45 
	C 964.648 -1658.75 958.5 -1681.65 954.844 -1693.77 
	C 950.543 -1708.02 923.297 -1762.74 961.508 -1756.13 
	C 992.73 -1750.76 984.449 -1703.58 1010.03 -1691.09 
	C 1019.28 -1686.6 1011.56 -1709.45 1011.79 -1713.71 
	C 1012.16 -1720.51 1010.17 -1741.51 1018.54 -1744.52 
	C 1031.36 -1749.14 1038.53 -1737.62 1038.57 -1726.38 
	C 1038.62 -1721.06 1041.44 -1697.84 1050.23 -1711.58 
	C 1055.83 -1720.28 1043.57 -1735.03 1046.11 -1746.09 
	C 1050.04 -1763.34 1056.52 -1754.79 1066.37 -1748.5 
	C 1075.77 -1742.48 1081.96 -1751.59 1091.03 -1748.27 
	C 1102.73 -1744.01 1101.76 -1725.36 1107.54 -1716.53 
	C 1112.77 -1723.01 1105.97 -1741.7 1116.7 -1745.02 
	C 1128.41 -1748.63 1133.96 -1724.58 1136.09 -1717.87 
	C 1141.04 -1702.33 1146.35 -1688.87 1143.72 -1672.35 
	C 1141.27 -1656.99 1138.49 -1641.31 1135.76 -1626 
	C 1132.99 -1610.51 1121.61 -1598.94 1117.21 -1584.04 
	C 1112.73 -1568.82 1111.24 -1553.56 1110.27 -1537.83 
	C 1109.53 -1525.57 1105.05 -1505.77 1111.15 -1494.67 
	C 1117.86 -1482.27 1114.99 -1467.93 1119.15 -1454.89 
	C 1120.59 -1450.31 1133.31 -1425.65 1140.99 -1434.12 
	C 1143.95 -1437.36 1138.72 -1443.97 1137.89 -1446.75 
	C 1135.85 -1453.73 1135.62 -1461.97 1135.35 -1469.18 
	C 1134.7 -1485.61 1132.39 -1501.43 1136.78 -1517.43 
	C 1138.22 -1522.38 1140.81 -1527.24 1140.94 -1532.33 
	C 1141.13 -1539.22 1136.04 -1545.09 1139.09 -1552.26 
	C 1143.58 -1562.77 1163.52 -1562.9 1172.68 -1559.25 
	C 1188.13 -1553.1 1193.31 -1538.71 1202.61 -1526.36 
	C 1212.14 -1513.69 1217.23 -1500.55 1223.24 -1485.97 
	C 1225.83 -1479.59 1226.48 -1472.7 1229.34 -1466.45 
	C 1231.15 -1462.48 1239.24 -1449.89 1243.78 -1448.83 
	C 1249.01 -1447.58 1250.25 -1451.7 1254.42 -1454.47 
	C 1258.26 -1457.02 1262.23 -1456.46 1266.35 -1457.11 
	C 1279.31 -1459.05 1287.96 -1466.13 1301.74 -1466.32 
	C 1308.82 -1466.45 1314.51 -1465.85 1321.4 -1464.14 
	C 1327.51 -1462.61 1326.49 -1467.38 1327.6 -1471.77 
	C 1330.28 -1482.88 1331.71 -1495.92 1335.05 -1506.56 
	C 1336.57 -1511.6 1341.01 -1514.33 1343.37 -1519.1 
	C 1345.96 -1524.42 1345.36 -1530.24 1349.8 -1534.82 
	C 1358.45 -1543.85 1358.36 -1560.13 1366.36 -1570.63 
	C 1378.21 -1586.22 1416.23 -1632.66 1433.9 -1597.69 
	C 1440.15 -1585.34 1427.47 -1571.88 1431.08 -1558.46 
	C 1432.84 -1551.94 1437.74 -1546.9 1440.05 -1540.65 
	C 1442.97 -1532.79 1443.57 -1524.18 1444.77 -1515.91 
	C 1446.95 -1500.96 1450.88 -1485.74 1443.52 -1471.68 
	C 1440.19 -1465.25 1436.26 -1461.13 1437.23 -1453.6 
	C 1437.69 -1450.03 1441.77 -1438.28 1446.99 -1438.79 
	C 1450.69 -1439.16 1455.5 -1450.12 1457.22 -1452.99 
	C 1461.84 -1460.9 1459.95 -1469.05 1460.36 -1477.74 
	C 1461.06 -1493.7 1462.77 -1508.22 1459.3 -1524.09 
	C 1456.99 -1534.73 1451.53 -1555.59 1466.65 -1560.78 
	C 1483.58 -1566.6 1479.19 -1545.46 1479.79 -1537.28 
	C 1480.39 -1528.07 1483.91 -1506.47 1495.89 -1505.45 
	C 1513.6 -1503.97 1516.33 -1530.61 1517.12 -1542.22 
	C 1517.68 -1549.86 1513.6 -1556.1 1512.17 -1563.32 
	C 1510.65 -1570.86 1511.71 -1578.63 1509.81 -1586.13 
	C 1505.83 -1601.99 1497.28 -1617.12 1495.15 -1633.22 
	C 1492.7 -1651.77 1496.21 -1667.31 1502 -1684.84 
	C 1503.89 -1690.72 1504.03 -1695.85 1504.31 -1701.96 
	C 1504.68 -1708.71 1508.24 -1713.71 1509.86 -1720.09 
	C 1511.62 -1726.75 1510.83 -1733.92 1512.31 -1740.68 
	C 1513.65 -1746.88 1518.88 -1752.52 1521.65 -1758.21 
	C 1524.8 -1764.73 1524.99 -1772.78 1532.94 -1770.65 
	C 1538.17 -1769.27 1545.43 -1757.89 1548.67 -1753.4 
	C 1555.7 -1743.73 1559.08 -1769.59 1560.65 -1771.63 
	C 1569.12 -1782.26 1586.65 -1777.87 1598.72 -1781.06 
	C 1612 -1784.62 1625.83 -1788.09 1631.15 -1770.84 
	C 1635.4 -1757.14 1620.09 -1762.05 1619.49 -1752.38 
	C 1619.12 -1746.59 1627.73 -1736.47 1629.3 -1745.95 
	C 1630.36 -1752.84 1641.65 -1770.7 1650.39 -1766.49 
	C 1679.58 -1752.43 1649.1 -1701.87 1647.53 -1681.23 
	C 1646.37 -1666.38 1659.69 -1667.26 1666.17 -1677.63 
	C 1669.08 -1682.44 1668.76 -1685.67 1674.13 -1688.54 
	C 1678.38 -1690.86 1683.19 -1689.1 1685.97 -1693.82 
	C 1687.91 -1697.33 1685.37 -1703.76 1685.97 -1707.74 
	C 1686.8 -1713.94 1689.99 -1721.9 1694.71 -1726.11 
	C 1704.33 -1734.71 1709.6 -1725.41 1712.98 -1715.74 
	C 1724.5 -1682.71 1710.62 -1645.75 1705.3 -1612.26 
	C 1699.98 -1578.77 1689.44 -1544.77 1671.67 -1515.81 
	C 1658.03 -1493.47 1636.65 -1476.17 1618.34 -1457.9 
	C 1609.64 -1449.25 1595.62 -1446.84 1585.07 -1440.83 
	C 1573.09 -1434.03 1564.17 -1423.94 1554.5 -1414.32 
	M 1408.83 -1540.93 
	C 1382.88 -1555.78 1375.8 -1496.57 1376.22 -1482.27 
	C 1376.36 -1478.11 1378.48 -1454.24 1385.56 -1455.72 
	C 1393.66 -1457.39 1387.73 -1480.75 1389.17 -1485.97 
	C 1398.28 -1518.68 1416.42 -1465.81 1424.37 -1469.83 
	C 1430.62 -1472.98 1423.17 -1497.63 1421.18 -1502.58 
	C 1416.92 -1513.08 1417.48 -1533.76 1408.83 -1540.93 
	M 1152.37 -1500.96 
	C 1142.56 -1487.73 1149.32 -1461.23 1151.17 -1445.36 
	C 1152.55 -1433.01 1155.47 -1434.81 1163.57 -1429.08 
	C 1169.53 -1424.87 1172.49 -1412.42 1180.03 -1411.78 
	C 1182.02 -1411.64 1186.05 -1407.75 1187.25 -1408.17 
	C 1189.61 -1408.95 1190.58 -1418.21 1190.49 -1420.33 
	C 1189.79 -1435.46 1173.83 -1451.84 1168.28 -1465.25 
	C 1163.24 -1477.6 1158.2 -1488.84 1152.37 -1500.96 
	M 1304.47 -1301.4 
	C 1294.85 -1308.16 1287.17 -1308.25 1277.18 -1302.56 
	C 1269.77 -1298.35 1263.72 -1291.46 1269.5 -1282.62 
	C 1280.09 -1266.57 1303.41 -1288.17 1304.47 -1301.4 
	M 1718.16 -430.95 
	C 1721.35 -440.94 1713.45 -440.2 1711.83 -430.95 
	C 1709.14 -416.1 1714.79 -396.44 1716.08 -381.4 
	C 1717.75 -363.18 1725.42 -345.92 1732.41 -329.83 
	C 1733.2 -328.07 1739.49 -312.06 1741.11 -319.09 
	C 1743.93 -331.35 1736.62 -351.75 1733.98 -363.83 
	C 1729.64 -383.67 1714.92 -410.22 1718.16 -430.95 
	M 1241.6 -1067.89 
	C 1233.09 -1072.28 1227.91 -1068.63 1226.38 -1059.88 
	C 1225.78 -1056.69 1223.93 -1053.78 1227.26 -1051.7 
	C 1230.59 -1049.62 1231.19 -1054.24 1233.97 -1053.78 
	C 1238.46 -1053.08 1244.98 -1044.94 1249.28 -1051.23 
	C 1252.34 -1055.67 1244.52 -1064.74 1241.6 -1067.89 
	M 1210.47 -1402.11 
	C 1227.03 -1396.42 1224.67 -1430.46 1217.04 -1436.15 
	C 1211.07 -1440.59 1210.98 -1436.94 1210.89 -1429.63 
	C 1210.79 -1422.83 1205.66 -1407.06 1210.47 -1402.11 
	"/>
</g>
</g >
</g>
</svg>
