<?xml version="1.0" encoding="UTF-8" standalone="no"?>
<!-- Created with Inkscape (http://www.inkscape.org/) -->

<svg
   version="1.1"
   id="svg1"
   width="3139.72"
   height="3139.72"
   viewBox="0 0 3139.72 3139.72"
   sodipodi:docname="tmp4vwmz8ws.pdf"
   xmlns:inkscape="http://www.inkscape.org/namespaces/inkscape"
   xmlns:sodipodi="http://sodipodi.sourceforge.net/DTD/sodipodi-0.dtd"
   xmlns="http://www.w3.org/2000/svg"
   xmlns:svg="http://www.w3.org/2000/svg">
  <defs
     id="defs1" />
  <sodipodi:namedview
     id="namedview1"
     pagecolor="#ffffff"
     bordercolor="#000000"
     borderopacity="0.25"
     inkscape:showpageshadow="2"
     inkscape:pageopacity="0.0"
     inkscape:pagecheckerboard="0"
     inkscape:deskcolor="#d1d1d1">
    <inkscape:page
       x="0"
       y="0"
       inkscape:label="1"
       id="page1"
       width="3139.72"
       height="3139.72"
       margin="0"
       bleed="0" />
  </sodipodi:namedview>
  <g
     id="g1"
     inkscape:groupmode="layer"
     inkscape:label="1">
    <g
       id="group-R5">
      <path
         id="path2"
         d="m 12537.6,318.801 c -421.7,-421.699 -1105.6,-421.699 -1527.3,0 L 318.828,11010.3 c -421.766,421.7 -421.766,1105.6 -0.004,1527.3 L 11010.3,23229.1 c 421.7,421.8 1105.6,421.8 1527.3,0 L 23229.1,12537.6 c 421.8,-421.7 421.8,-1105.6 0,-1527.3 L 12537.6,318.801"
         style="fill:#fccc2d;fill-opacity:1;fill-rule:nonzero;stroke:#231f20;stroke-width:5;stroke-linecap:butt;stroke-linejoin:miter;stroke-miterlimit:4;stroke-dasharray:none;stroke-opacity:1"
         transform="matrix(0.13333333,0,0,-0.13333333,0,3139.72)" />
      <path
         id="path3"
         d="m 509.746,11201.2 c -315.82,315.8 -315.82,829.7 -0.004,1145.5 L 11201.2,23038.2 c 315.8,315.8 829.7,315.8 1145.5,0 L 23038.2,12346.7 c 315.8,-315.8 315.8,-829.7 0,-1145.5 L 12346.7,509.699 c -315.8,-315.797 -829.7,-315.797 -1145.5,0 L 509.746,11201.2"
         style="fill:#231f20;fill-opacity:1;fill-rule:nonzero;stroke:none"
         transform="matrix(0.13333333,0,0,-0.13333333,0,3139.72)" />
      <path
         id="path4"
         d="m 827.945,11519.4 c -140.367,140.4 -140.367,368.7 -0.007,509.1 L 11519.4,22720 c 140.4,140.3 368.8,140.3 509.1,0 L 22720,12028.5 c 140.3,-140.4 140.3,-368.7 0,-509.1 L 12028.5,827.902 c -140.3,-140.3 -368.7,-140.3 -509.1,0 L 827.945,11519.4"
         style="fill:#fccc2d;fill-opacity:1;fill-rule:nonzero;stroke:none"
         transform="matrix(0.13333333,0,0,-0.13333333,0,3139.72)" />
      <path
         id="path5"
         d="m 16328.8,9828.7 c -80.8,40.4 -131.3,50.5 -272.8,50.5 h -596.3 v -707.4 h 596.3 c 141.5,0 192,10.2 272.8,50.6 101.1,50.5 171.9,181.9 171.9,303.1 0,121.3 -70.8,242.6 -171.9,303.2 z m 192.1,-1020.6 c -131.4,-60.7 -303.2,-101.1 -525.6,-101.1 h -535.6 V 7453.9 H 15005 v 2880 h 990.3 c 232.5,0 384.1,-20.2 525.6,-90.9 252.6,-121.3 444.6,-424.4 444.6,-717.5 0,-303.1 -192,-606.3 -444.6,-717.4"
         style="fill:#231f20;fill-opacity:1;fill-rule:nonzero;stroke:none"
         transform="matrix(0.13333333,0,0,-0.13333333,0,3139.72)" />
      <path
         id="path6"
         d="m 13858.1,7453.9 v 1667.4 l -668.3,-1667.4 -668.3,1667.4 V 7453.9 h -455.6 v 2880 h 455.6 l 668.3,-1616.8 668.3,1616.8 h 455.6 v -2880 h -455.6"
         style="fill:#231f20;fill-opacity:1;fill-rule:nonzero;stroke:none"
         transform="matrix(0.13333333,0,0,-0.13333333,0,3139.72)" />
      <path
         id="path7"
         d="m 11243.3,7888.5 c -151.6,-283 -495.2,-485.1 -848.9,-485.1 -353.7,0 -697.31,202.1 -848.89,485.1 -80.84,171.7 -131.39,373.9 -131.39,596.2 v 1849.2 h 454.76 V 8484.7 c 0,-373.9 212.22,-616.4 525.52,-616.4 313.3,0 525.5,242.5 525.5,616.4 v 1849.2 h 454.8 V 8484.7 c 0,-222.3 -50.5,-424.5 -131.4,-596.2"
         style="fill:#231f20;fill-opacity:1;fill-rule:nonzero;stroke:none"
         transform="matrix(0.13333333,0,0,-0.13333333,0,3139.72)" />
      <path
         id="path8"
         d="M 8268.18,7453.9 V 8707 H 7217.15 V 7453.9 h -454.76 v 2880 h 454.76 V 9171.8 h 1051.03 v 1162.1 h 454.77 v -2880 h -454.77"
         style="fill:#231f20;fill-opacity:1;fill-rule:nonzero;stroke:none"
         transform="matrix(0.13333333,0,0,-0.13333333,0,3139.72)" />
      <path
         id="path9"
         d="m 9870.44,15048.7 c -80.85,40.4 -131.37,50.5 -272.85,50.5 h -596.25 v -707.4 h 596.25 c 141.48,0 192,10.2 272.85,50.6 101.05,50.5 171.76,181.9 171.76,303.1 0,121.3 -70.71,242.6 -171.76,303.2 z m 192.06,-1020.6 c -131.43,-60.7 -303.22,-101.1 -525.56,-101.1 h -535.6 v -1253.1 h -454.77 v 2880 h 990.37 c 232.44,0 384.02,-20.2 525.56,-90.9 252.6,-121.2 444.6,-424.4 444.6,-717.5 0,-303.1 -192,-606.3 -444.6,-717.4"
         style="fill:#231f20;fill-opacity:1;fill-rule:nonzero;stroke:none"
         transform="matrix(0.13333333,0,0,-0.13333333,0,3139.72)" />
      <path
         id="path10"
         d="m 7774,12849.3 c -161.69,-141.5 -384.02,-222.3 -626.56,-222.3 -495.19,0 -859,293 -1051.02,727.5 l 434.55,161.7 c 121.28,-272.8 343.59,-424.4 616.47,-424.4 262.75,0 444.65,181.9 444.65,424.4 0,384 -444.65,444.6 -818.59,596.2 -171.78,70.8 -555.81,242.5 -555.81,717.5 0,565.9 384.03,778.1 899.43,778.1 404.22,0 677.1,-232.4 818.57,-586.1 l -404.22,-121.3 c 0,0 -101.06,242.6 -424.46,252.7 -212.23,10.1 -464.89,-70.8 -444.66,-333.5 40.43,-535.6 1394.62,-181.9 1394.62,-1313.7 0,-262.7 -101.06,-495.1 -282.97,-656.8"
         style="fill:#231f20;fill-opacity:1;fill-rule:nonzero;stroke:none"
         transform="matrix(0.13333333,0,0,-0.13333333,0,3139.72)" />
      <path
         id="path11"
         d="m 16754.2,14978 c -70.7,70.7 -171.8,121.2 -293.1,121.2 h -515.4 v -1960.4 h 454.8 c 151.6,0 242.5,30.3 323.3,111.1 171.9,171.8 262.8,485.1 262.8,869.1 0,384 -90.9,707.4 -232.4,859 z m 192,-2142.4 c -111.2,-101 -262.7,-151.6 -414.3,-161.7 -30.4,0 -91,0 -161.7,0 h -879.3 v 2880 h 929.8 c 293.1,0 404.2,-30.3 555.8,-151.5 303.2,-262.8 475,-717.5 475,-1283.4 0,-576 -181.9,-1030.7 -505.3,-1283.4"
         style="fill:#231f20;fill-opacity:1;fill-rule:nonzero;stroke:none"
         transform="matrix(0.13333333,0,0,-0.13333333,0,3139.72)" />
      <path
         id="path12"
         d="m 10939.1,12673.9 v 2880 h 1695.5 v -454.7 h -1241.4 v -707.4 h 837.7 V 13927 h -837.7 v -788.2 h 1332.2 v -464.9 h -1786.3"
         style="fill:#231f20;fill-opacity:1;fill-rule:nonzero;stroke:none"
         transform="matrix(0.13333333,0,0,-0.13333333,0,3139.72)" />
      <path
         id="path13"
         d="m 13215,12673.9 v 2880 h 1695.5 v -454.7 h -1241.3 v -707.4 h 837.6 V 13927 h -837.6 v -788.2 h 1332.1 v -464.9 H 13215"
         style="fill:#231f20;fill-opacity:1;fill-rule:nonzero;stroke:none"
         transform="matrix(0.13333333,0,0,-0.13333333,0,3139.72)" />
    </g>
  </g>
</svg>
