<?xml version="1.0" encoding="UTF-8" standalone="no"?>
<!-- Created with Inkscape (http://www.inkscape.org/) -->

<svg
   version="1.1"
   id="svg1"
   width="3924.48"
   height="3924.48"
   viewBox="0 0 3924.48 3924.48"
   sodipodi:docname="tmplh7oln47.pdf"
   xmlns:inkscape="http://www.inkscape.org/namespaces/inkscape"
   xmlns:sodipodi="http://sodipodi.sourceforge.net/DTD/sodipodi-0.dtd"
   xmlns="http://www.w3.org/2000/svg"
   xmlns:svg="http://www.w3.org/2000/svg">
  <defs
     id="defs1" />
  <sodipodi:namedview
     id="namedview1"
     pagecolor="#ffffff"
     bordercolor="#000000"
     borderopacity="0.25"
     inkscape:showpageshadow="2"
     inkscape:pageopacity="0.0"
     inkscape:pagecheckerboard="0"
     inkscape:deskcolor="#d1d1d1">
    <inkscape:page
       x="0"
       y="0"
       inkscape:label="1"
       id="page1"
       width="3924.48"
       height="3924.48"
       margin="0"
       bleed="0" />
  </sodipodi:namedview>
  <g
     id="g1"
     inkscape:groupmode="layer"
     inkscape:label="1">
    <g
       id="group-R5">
      <path
         id="path2"
         d="m 15671.4,397.902 c -527.2,-527.199 -1382,-527.199 -1909.2,0 L 397.898,13762.2 c -527.207,527.2 -527.207,1382 0,1909.2 L 13762.2,29035.7 c 527.2,527.2 1382,527.2 1909.2,0 L 29035.7,15671.4 c 527.2,-527.2 527.2,-1382 0,-1909.2 L 15671.4,397.902"
         style="fill:#fccc2d;fill-opacity:1;fill-rule:nonzero;stroke:#231f20;stroke-width:5;stroke-linecap:butt;stroke-linejoin:miter;stroke-miterlimit:4;stroke-dasharray:none;stroke-opacity:1"
         transform="matrix(0.13333333,0,0,-0.13333333,0,3924.48)" />
      <path
         id="path3"
         d="m 652.461,14016.7 c -386,386.1 -385.996,1014.1 0,1400.1 L 14016.8,28781.1 c 386,386 1014,386 1400,0 L 28781.2,15416.8 c 386,-386 386,-1014 0,-1400.1 L 15416.8,652.402 c -386,-386 -1014,-386 -1400,0 L 652.461,14016.7"
         style="fill:#231f20;fill-opacity:1;fill-rule:nonzero;stroke:none"
         transform="matrix(0.13333333,0,0,-0.13333333,0,3924.48)" />
      <path
         id="path4"
         d="m 1034.3,14398.6 c -175.456,175.4 -175.452,460.9 0,636.4 l 13364.3,13364.3 c 175.5,175.5 461,175.5 636.4,0 L 28399.3,15035 c 175.5,-175.5 175.5,-461 0,-636.4 L 15035,1034.3 c -175.4,-175.499 -460.9,-175.499 -636.4,0 L 1034.3,14398.6"
         style="fill:#fccc2d;fill-opacity:1;fill-rule:nonzero;stroke:none"
         transform="matrix(0.13333333,0,0,-0.13333333,0,3924.48)" />
      <path
         id="path5"
         d="m 20387.9,12285.2 c -101,50.5 -164.2,63.2 -341,63.2 h -745.3 v -884.3 h 745.3 c 176.8,0 240,12.7 341,63.2 126.3,63.2 214.8,227.4 214.8,379 0,151.6 -88.5,303.1 -214.8,378.9 z m 240.1,-1275.8 c -164.3,-75.8 -379,-126.3 -656.9,-126.3 h -669.5 V 9316.8 h -568.5 v 3600 h 1238 c 290.5,0 480,-25.3 656.9,-113.7 315.8,-151.6 555.8,-530.5 555.8,-896.8 0,-379 -240,-757.9 -555.8,-896.9"
         style="fill:#231f20;fill-opacity:1;fill-rule:nonzero;stroke:none"
         transform="matrix(0.13333333,0,0,-0.13333333,0,3924.48)" />
      <path
         id="path6"
         d="M 17299.5,9316.8 V 11401 L 16464.1,9316.8 15628.8,11401 V 9316.8 h -569.6 v 3600 h 569.6 l 835.3,-2021.1 835.4,2021.1 h 569.5 v -3600 h -569.5"
         style="fill:#231f20;fill-opacity:1;fill-rule:nonzero;stroke:none"
         transform="matrix(0.13333333,0,0,-0.13333333,0,3924.48)" />
      <path
         id="path7"
         d="m 14031,9859.9 c -189.5,-353.6 -619,-606.3 -1061.1,-606.3 -442.1,0 -871.7,252.7 -1061.1,606.3 -101.1,214.8 -164.3,467.4 -164.3,745.3 v 2311.6 h 568.5 v -2311.6 c 0,-467.4 265.3,-770.5 656.9,-770.5 391.6,0 656.9,303.1 656.9,770.5 v 2311.6 h 568.4 v -2311.6 c 0,-277.9 -63.1,-530.5 -164.2,-745.3"
         style="fill:#231f20;fill-opacity:1;fill-rule:nonzero;stroke:none"
         transform="matrix(0.13333333,0,0,-0.13333333,0,3924.48)" />
      <path
         id="path8"
         d="m 10312.1,9316.8 v 1566.3 H 8998.31 V 9316.8 h -568.46 v 3600 h 568.46 v -1452.6 h 1313.79 v 1452.6 h 568.5 v -3600 h -568.5"
         style="fill:#231f20;fill-opacity:1;fill-rule:nonzero;stroke:none"
         transform="matrix(0.13333333,0,0,-0.13333333,0,3924.48)" />
      <path
         id="path9"
         d="m 12337.4,18765.2 c -101,50.5 -164.2,63.2 -341,63.2 H 11251 v -884.2 h 745.4 c 176.8,0 240,12.6 341,63.1 126.3,63.2 214.8,227.4 214.8,379 0,151.6 -88.5,303.1 -214.8,378.9 z m 240.1,-1275.8 c -164.3,-75.8 -379,-126.3 -657,-126.3 H 11251 v -1566.3 h -568.4 v 3600 h 1237.9 c 290.6,0 480.1,-25.3 657,-113.7 315.8,-151.6 555.8,-530.5 555.8,-896.8 0,-379 -240,-757.9 -555.8,-896.9"
         style="fill:#231f20;fill-opacity:1;fill-rule:nonzero;stroke:none"
         transform="matrix(0.13333333,0,0,-0.13333333,0,3924.48)" />
      <path
         id="path10"
         d="m 9716.88,16015.9 c -202.11,-176.8 -480.03,-277.9 -783.21,-277.9 -618.98,0 -1073.75,366.4 -1313.78,909.5 l 543.2,202.1 c 151.6,-341 429.49,-530.5 770.58,-530.5 328.44,0 555.82,227.4 555.82,530.5 0,480 -555.82,555.8 -1023.24,745.3 -214.73,88.4 -694.77,303.1 -694.77,896.8 0,707.4 480.04,972.7 1124.3,972.7 505.27,0 846.37,-290.6 1023.2,-732.7 l -505.27,-151.5 c 0,0 -126.33,303.1 -530.58,315.7 -265.28,12.7 -581.1,-88.4 -555.82,-416.8 50.54,-669.5 1743.29,-227.4 1743.29,-1642.1 0,-328.4 -126.34,-619 -353.72,-821.1"
         style="fill:#231f20;fill-opacity:1;fill-rule:nonzero;stroke:none"
         transform="matrix(0.13333333,0,0,-0.13333333,0,3924.48)" />
      <path
         id="path11"
         d="m 20942.1,18676.8 c -88.4,88.4 -214.7,151.6 -366.3,151.6 h -644.3 v -2450.6 h 568.5 c 189.5,0 303.1,37.9 404.2,139 214.8,214.7 328.4,606.3 328.4,1086.3 0,480 -113.6,884.2 -290.5,1073.7 z m 240,-2677.9 c -138.9,-126.3 -328.4,-189.5 -517.9,-202.1 -37.9,0 -113.7,0 -202.1,0 H 19363 v 3600 h 1162.2 c 366.4,0 505.3,-37.9 694.8,-189.5 379,-328.4 593.7,-896.8 593.7,-1604.2 0,-720 -227.3,-1288.4 -631.6,-1604.2"
         style="fill:#231f20;fill-opacity:1;fill-rule:nonzero;stroke:none"
         transform="matrix(0.13333333,0,0,-0.13333333,0,3924.48)" />
      <path
         id="path12"
         d="m 13673.2,15796.8 v 3600 h 2119.4 v -568.4 h -1551.7 v -884.2 H 15288 v -581.1 h -1047.1 v -985.3 h 1665.2 v -581 h -2232.9"
         style="fill:#231f20;fill-opacity:1;fill-rule:nonzero;stroke:none"
         transform="matrix(0.13333333,0,0,-0.13333333,0,3924.48)" />
      <path
         id="path13"
         d="m 16518.1,15796.8 v 3600 h 2119.4 v -568.4 h -1551.7 v -884.3 h 1047.1 v -581 h -1047.1 v -985.3 H 18751 v -581 h -2232.9"
         style="fill:#231f20;fill-opacity:1;fill-rule:nonzero;stroke:none"
         transform="matrix(0.13333333,0,0,-0.13333333,0,3924.48)" />
    </g>
  </g>
</svg>
