<?xml version="1.0" standalone="no"?>
<svg width="4749px" height="4749px" viewBox="-20 -3937 4749 4749 " xmlns="http://www.w3.org/2000/svg" xmlns:xlink="http://www.w3.org/1999/xlink">
<title>generated by pstoedit</title>
<!-- generated by pstoedit version:4.02 -->
<g xml:space='preserve'>
<clipPath id="clippath1"> 	<path d="
	M 0 -3917.08 
	L 0 792 
	L 4709.08 792 
	L 4709.08 -3917.08 
	Z 
	" style="clip-rule:nonzero"/>
</clipPath>
<g style="clip-path:url(#clippath1)"> 
<g fill="#95e8ff" fill-rule="nonzero" stroke-width="0" stroke-linejoin="miter" stroke-linecap="butt" stroke-miterlimit="10" >
	<path d="
	M 2507.27 728.488 
	C 2422.92 812.84 2286.16 812.84 2201.81 728.488 
	L 63.5156 -1409.8 
	C -20.8398 -1494.16 -20.8398 -1630.92 63.5156 -1715.27 
	L 2201.81 -3853.57 
	C 2286.16 -3937.92 2422.92 -3937.92 2507.27 -3853.57 
	L 4645.57 -1715.27 
	C 4729.92 -1630.92 4729.92 -1494.16 4645.57 -1409.8 
	Z 
	"/>
</g>
<g stroke="#7f7f7f" fill="none" stroke-width="0.5" stroke-linejoin="miter" stroke-linecap="butt" stroke-miterlimit="4" >
	<path d="
	M 2507.27 728.488 
	C 2422.92 812.84 2286.16 812.84 2201.81 728.488 
	L 63.5156 -1409.8 
	C -20.8398 -1494.16 -20.8398 -1630.92 63.5156 -1715.27 
	L 2201.81 -3853.57 
	C 2286.16 -3937.92 2422.92 -3937.92 2507.27 -3853.57 
	L 4645.57 -1715.27 
	C 4729.92 -1630.92 4729.92 -1494.16 4645.57 -1409.8 
	Z 
	"/>
</g>
<g fill="#7f7f7f" fill-rule="nonzero" stroke-width="0" stroke-linejoin="miter" stroke-linecap="butt" stroke-miterlimit="4" >
	<path d="
	M 101.699 -1447.99 
	C 38.5352 -1511.15 38.5352 -1613.93 101.699 -1677.09 
	L 2239.99 -3815.38 
	C 2303.15 -3878.55 2405.93 -3878.55 2469.09 -3815.38 
	L 4607.38 -1677.09 
	C 4670.55 -1613.93 4670.55 -1511.15 4607.38 -1447.99 
	L 2469.09 690.301 
	C 2405.93 753.469 2303.15 753.469 2239.99 690.301 
	Z 
	"/>
</g>
<g fill="#95e8ff" fill-rule="nonzero" stroke-width="0" stroke-linejoin="miter" stroke-linecap="butt" stroke-miterlimit="4" >
	<path d="
	M 165.34 -1511.63 
	C 137.266 -1539.7 137.266 -1585.38 165.34 -1613.45 
	L 2303.63 -3751.74 
	C 2331.7 -3779.81 2377.38 -3779.81 2405.45 -3751.74 
	L 4543.74 -1613.45 
	C 4571.82 -1585.38 4571.82 -1539.7 4543.74 -1511.63 
	L 2405.45 626.66 
	C 2377.38 654.738 2331.7 654.738 2303.63 626.66 
	Z 
	"/>
</g>
<g fill="#7f7f7f" fill-rule="nonzero" stroke-width="0" stroke-linejoin="miter" stroke-linecap="butt" stroke-miterlimit="4" >
	<path d="
	M 3265.52 -1173.49 
	C 3249.35 -1181.57 3239.24 -1183.6 3210.95 -1183.6 
	L 3091.7 -1183.6 
	L 3091.7 -1042.12 
	L 3210.95 -1042.12 
	C 3239.24 -1042.12 3249.35 -1044.14 3265.52 -1052.22 
	C 3285.73 -1062.33 3299.88 -1088.6 3299.88 -1112.86 
	C 3299.88 -1137.11 3285.73 -1161.36 3265.52 -1173.49 
	Z 
	M 3303.92 -969.36 
	C 3277.65 -957.24 3243.29 -949.15 3198.82 -949.15 
	L 3091.7 -949.15 
	L 3091.7 -698.54 
	L 3000.74 -698.54 
	L 3000.74 -1274.54 
	L 3198.82 -1274.54 
	C 3245.31 -1274.54 3275.62 -1270.5 3303.92 -1256.35 
	C 3354.45 -1232.1 3392.85 -1171.46 3392.85 -1112.86 
	C 3392.85 -1052.22 3354.45 -991.59 3303.92 -969.36 
	Z 
	"/>
</g>
<g fill="#7f7f7f" fill-rule="nonzero" stroke-width="0" stroke-linejoin="miter" stroke-linecap="butt" stroke-miterlimit="4" >
	<path d="
	M 2771.37 -698.54 
	L 2771.37 -1032.01 
	L 2637.71 -698.54 
	L 2504.06 -1032.01 
	L 2504.06 -698.54 
	L 2412.93 -698.54 
	L 2412.93 -1274.54 
	L 2504.06 -1274.54 
	L 2637.71 -951.17 
	L 2771.37 -1274.54 
	L 2862.49 -1274.54 
	L 2862.49 -698.54 
	Z 
	"/>
</g>
<g fill="#7f7f7f" fill-rule="nonzero" stroke-width="0" stroke-linejoin="miter" stroke-linecap="butt" stroke-miterlimit="4" >
	<path d="
	M 2248.41 -785.45 
	C 2218.09 -728.85 2149.37 -688.43 2078.63 -688.43 
	C 2007.89 -688.43 1939.17 -728.85 1908.85 -785.45 
	C 1892.68 -819.8 1882.57 -860.22 1882.57 -904.69 
	L 1882.57 -1274.54 
	L 1973.52 -1274.54 
	L 1973.52 -904.69 
	C 1973.52 -829.9 2015.97 -781.4 2078.63 -781.4 
	C 2141.29 -781.4 2183.73 -829.9 2183.73 -904.69 
	L 2183.73 -1274.54 
	L 2274.69 -1274.54 
	L 2274.69 -904.69 
	C 2274.69 -860.22 2264.58 -819.8 2248.41 -785.45 
	Z 
	"/>
</g>
<g fill="#7f7f7f" fill-rule="nonzero" stroke-width="0" stroke-linejoin="miter" stroke-linecap="butt" stroke-miterlimit="4" >
	<path d="
	M 1653.39 -698.54 
	L 1653.39 -949.15 
	L 1443.18 -949.15 
	L 1443.18 -698.54 
	L 1352.23 -698.54 
	L 1352.23 -1274.54 
	L 1443.18 -1274.54 
	L 1443.18 -1042.12 
	L 1653.39 -1042.12 
	L 1653.39 -1274.54 
	L 1744.34 -1274.54 
	L 1744.34 -698.54 
	Z 
	"/>
</g>
<g fill="#7f7f7f" fill-rule="nonzero" stroke-width="0" stroke-linejoin="miter" stroke-linecap="butt" stroke-miterlimit="4" >
	<path d="
	M 1973.84 -2217.49 
	C 1957.67 -2225.57 1947.56 -2227.59 1919.27 -2227.59 
	L 1800.02 -2227.59 
	L 1800.02 -2086.12 
	L 1919.27 -2086.12 
	C 1947.56 -2086.12 1957.67 -2088.14 1973.84 -2096.22 
	C 1994.05 -2106.33 2008.2 -2132.6 2008.2 -2156.86 
	C 2008.2 -2181.11 1994.05 -2205.36 1973.84 -2217.49 
	Z 
	M 2012.24 -2013.36 
	C 1985.96 -2001.24 1951.61 -1993.15 1907.14 -1993.15 
	L 1800.02 -1993.15 
	L 1800.02 -1742.54 
	L 1709.06 -1742.54 
	L 1709.06 -2318.54 
	L 1907.14 -2318.54 
	C 1953.63 -2318.54 1983.94 -2314.5 2012.24 -2300.35 
	C 2062.77 -2276.1 2101.17 -2215.47 2101.17 -2156.86 
	C 2101.17 -2096.22 2062.77 -2035.59 2012.24 -2013.36 
	Z 
	"/>
</g>
<g fill="#7f7f7f" fill-rule="nonzero" stroke-width="0" stroke-linejoin="miter" stroke-linecap="butt" stroke-miterlimit="4" >
	<path d="
	M 1554.55 -1777.6 
	C 1522.21 -1749.31 1477.74 -1733.14 1429.24 -1733.14 
	C 1330.2 -1733.14 1257.44 -1791.75 1219.03 -1878.66 
	L 1305.94 -1910.99 
	C 1330.2 -1856.43 1374.66 -1826.11 1429.24 -1826.11 
	C 1481.79 -1826.11 1518.17 -1862.49 1518.17 -1910.99 
	C 1518.17 -1987.79 1429.24 -1999.92 1354.45 -2030.23 
	C 1320.09 -2044.38 1243.29 -2078.74 1243.29 -2173.73 
	C 1243.29 -2286.91 1320.09 -2329.35 1423.17 -2329.35 
	C 1504.02 -2329.35 1558.59 -2282.87 1586.89 -2212.13 
	L 1506.04 -2187.88 
	C 1506.04 -2187.88 1485.83 -2236.38 1421.15 -2238.4 
	C 1378.71 -2240.42 1328.17 -2224.26 1332.22 -2171.71 
	C 1340.31 -2064.59 1611.14 -2135.33 1611.14 -1908.97 
	C 1611.14 -1856.43 1590.93 -1809.94 1554.55 -1777.6 
	Z 
	"/>
</g>
<g fill="#7f7f7f" fill-rule="nonzero" stroke-width="0" stroke-linejoin="miter" stroke-linecap="butt" stroke-miterlimit="4" >
	<path d="
	M 3350.58 -2203.34 
	C 3336.44 -2217.49 3316.23 -2227.59 3291.97 -2227.59 
	L 3188.88 -2227.59 
	L 3188.88 -1835.51 
	L 3279.85 -1835.51 
	C 3310.17 -1835.51 3328.35 -1841.57 3344.52 -1857.74 
	C 3378.88 -1892.1 3397.07 -1954.75 3397.07 -2031.55 
	C 3397.07 -2108.35 3378.88 -2173.02 3350.58 -2203.34 
	Z 
	M 3388.99 -1774.87 
	C 3366.75 -1754.66 3336.44 -1744.56 3306.12 -1742.54 
	C 3300.06 -1742.54 3287.92 -1742.54 3273.78 -1742.54 
	L 3097.94 -1742.54 
	L 3097.94 -2318.54 
	L 3283.88 -2318.54 
	C 3342.5 -2318.54 3364.74 -2312.48 3395.05 -2288.22 
	C 3455.69 -2235.68 3490.05 -2144.73 3490.05 -2031.55 
	C 3490.05 -1916.35 3453.67 -1825.4 3388.99 -1774.87 
	Z 
	"/>
</g>
<g fill="#7f7f7f" fill-rule="nonzero" stroke-width="0" stroke-linejoin="miter" stroke-linecap="butt" stroke-miterlimit="4" >
	<path d="
	M 2187.57 -1742.54 
	L 2187.57 -2318.54 
	L 2526.67 -2318.54 
	L 2526.67 -2227.59 
	L 2278.39 -2227.59 
	L 2278.39 -2086.12 
	L 2445.93 -2086.12 
	L 2445.93 -1993.15 
	L 2278.39 -1993.15 
	L 2278.39 -1835.51 
	L 2544.83 -1835.51 
	L 2544.83 -1742.54 
	Z 
	"/>
</g>
<g fill="#7f7f7f" fill-rule="nonzero" stroke-width="0" stroke-linejoin="miter" stroke-linecap="butt" stroke-miterlimit="4" >
	<path d="
	M 2642.75 -1742.54 
	L 2642.75 -2318.54 
	L 2981.85 -2318.54 
	L 2981.85 -2227.59 
	L 2733.58 -2227.59 
	L 2733.58 -2086.12 
	L 2901.11 -2086.12 
	L 2901.11 -1993.15 
	L 2733.58 -1993.15 
	L 2733.58 -1835.51 
	L 3000.02 -1835.51 
	L 3000.02 -1742.54 
	Z 
	"/>
</g>
</g >
</g>
</svg>
