<?xml version="1.0" encoding="UTF-8" standalone="no"?>
<!-- Created with Inkscape (http://www.inkscape.org/) -->

<svg
   version="1.1"
   id="svg1"
   width="4709.2534"
   height="4709.2534"
   viewBox="0 0 4709.2534 4709.2534"
   sodipodi:docname="tmp8z5olne1.pdf"
   xmlns:inkscape="http://www.inkscape.org/namespaces/inkscape"
   xmlns:sodipodi="http://sodipodi.sourceforge.net/DTD/sodipodi-0.dtd"
   xmlns="http://www.w3.org/2000/svg"
   xmlns:svg="http://www.w3.org/2000/svg">
  <defs
     id="defs1" />
  <sodipodi:namedview
     id="namedview1"
     pagecolor="#ffffff"
     bordercolor="#000000"
     borderopacity="0.25"
     inkscape:showpageshadow="2"
     inkscape:pageopacity="0.0"
     inkscape:pagecheckerboard="0"
     inkscape:deskcolor="#d1d1d1">
    <inkscape:page
       x="0"
       y="0"
       inkscape:label="1"
       id="page1"
       width="4709.2534"
       height="4709.2534"
       margin="0"
       bleed="0" />
  </sodipodi:namedview>
  <g
     id="g1"
     inkscape:groupmode="layer"
     inkscape:label="1">
    <g
       id="group-R5">
      <path
         id="path2"
         d="m 18805.2,477 c -632.7,-632.602 -1658.4,-632.602 -2291,0 L 476.988,16514.2 c -632.652,632.7 -632.648,1658.4 0,2291 L 16514.2,34842.4 c 632.6,632.7 1658.3,632.7 2291,0 L 34842.4,18805.2 c 632.6,-632.6 632.6,-1658.3 0,-2291 L 18805.2,477"
         style="fill:#fccc2d;fill-opacity:1;fill-rule:nonzero;stroke:#231f20;stroke-width:5;stroke-linecap:butt;stroke-linejoin:miter;stroke-miterlimit:4;stroke-dasharray:none;stroke-opacity:1"
         transform="matrix(0.13333333,0,0,-0.13333333,0,4709.2533)" />
      <path
         id="path3"
         d="m 795.188,16832.4 c -456.184,456.2 -456.184,1198.4 0,1654.6 L 16832.4,34524.2 c 456.1,456.2 1198.4,456.2 1654.6,0 L 34524.2,18487 c 456.2,-456.2 456.2,-1198.4 0,-1654.6 L 18487,795.199 C 18030.8,339 17288.5,339 16832.4,795.199 L 795.188,16832.4"
         style="fill:#231f20;fill-opacity:1;fill-rule:nonzero;stroke:none"
         transform="matrix(0.13333333,0,0,-0.13333333,0,4709.2533)" />
      <path
         id="path4"
         d="m 1240.66,17277.9 c -210.54,210.5 -210.54,553.1 0,763.6 L 17277.8,34078.7 c 210.6,210.6 553.2,210.6 763.7,0 L 34078.7,18041.5 c 210.5,-210.5 210.5,-553.1 0,-763.6 L 18041.5,1240.7 c -210.5,-210.5 -553.1,-210.5 -763.7,0 L 1240.66,17277.9"
         style="fill:#fccc2d;fill-opacity:1;fill-rule:nonzero;stroke:none"
         transform="matrix(0.13333333,0,0,-0.13333333,0,4709.2533)" />
      <path
         id="path5"
         d="m 12497.2,10818.9 -253.3,-1035.8 h 519.3 z m 645.9,-2526.3 -253.3,985.2 h -772.5 l -240.6,-985.2 h -519.3 l 899.2,3600 h 506.6 l 899.1,-3600 h -519.2"
         style="fill:#231f20;fill-opacity:1;fill-rule:nonzero;stroke:none"
         transform="matrix(0.13333333,0,0,-0.13333333,0,4709.2533)" />
      <path
         id="path6"
         d="m 20275.9,10818.9 -253.3,-1035.8 h 519.3 z m 645.9,-2526.3 -253.3,985.2 H 19896 l -240.6,-985.2 h -519.3 l 899.2,3600 h 506.6 l 899.1,-3600 h -519.2"
         style="fill:#231f20;fill-opacity:1;fill-rule:nonzero;stroke:none"
         transform="matrix(0.13333333,0,0,-0.13333333,0,4709.2533)" />
      <path
         id="path7"
         d="m 23356.9,11021 c -88.3,252.6 -239.5,366.3 -466.4,366.3 h -428.6 V 8797.8 h 428.6 c 302.5,0 466.4,240 516.8,517.9 25.2,227.4 50.4,480 50.4,757.9 0,404.2 -37.8,795.8 -100.8,947.4 z m 88.2,-2564.2 c -126,-113.7 -302.5,-164.2 -504.2,-164.2 H 21945 v 3600 h 920.3 c 302.5,0 453.8,-37.9 579.8,-139 214.3,-151.5 365.6,-429.4 428.6,-795.8 50.4,-265.2 88.2,-581 88.2,-858.9 0,-833.7 -163.8,-1364.2 -516.8,-1642.1"
         style="fill:#231f20;fill-opacity:1;fill-rule:nonzero;stroke:none"
         transform="matrix(0.13333333,0,0,-0.13333333,0,4709.2533)" />
      <path
         id="path8"
         d="m 16975.2,8292.6 v 3600 h 1697.6 v -505.3 h -1178.2 v -909.5 h 747.5 v -492.6 h -747.5 V 8797.8 h 1317.5 v -505.2 h -1836.9"
         style="fill:#231f20;fill-opacity:1;fill-rule:nonzero;stroke:none"
         transform="matrix(0.13333333,0,0,-0.13333333,0,4709.2533)" />
      <path
         id="path9"
         d="m 15666.4,8292.6 v 1629.5 h -983.2 V 8292.6 h -516.9 v 3600 h 516.9 v -1465.3 h 983.2 v 1465.3 h 516.8 v -3600 h -516.8"
         style="fill:#231f20;fill-opacity:1;fill-rule:nonzero;stroke:none"
         transform="matrix(0.13333333,0,0,-0.13333333,0,4709.2533)" />
      <path
         id="path10"
         d="m 15774.6,22338.9 -253.3,-1035.8 h 519.2 z m 645.8,-2526.3 -253.3,985.2 h -772.5 l -240.6,-985.2 h -519.2 l 899.1,3600 h 506.6 l 899.2,-3600 h -519.3"
         style="fill:#231f20;fill-opacity:1;fill-rule:nonzero;stroke:none"
         transform="matrix(0.13333333,0,0,-0.13333333,0,4709.2533)" />
      <path
         id="path11"
         d="m 24846.3,22452.6 c -50.7,353.7 -190.3,517.9 -431.3,517.9 -418.6,0 -570.8,-328.4 -570.8,-1263.2 0,-1035.8 177.6,-1452.6 621.6,-1452.6 304.4,0 380.5,252.6 380.5,517.9 h 520.1 c -12.7,-593.7 -393.2,-1023.2 -900.6,-1023.2 -773.8,0 -1116.3,619 -1116.3,1945.3 0,1162.1 367.9,1781 1078.2,1781 291.8,0 545.5,-126.3 710.4,-366.3 139.5,-176.8 190.2,-328.4 228.3,-656.8 h -520.1"
         style="fill:#231f20;fill-opacity:1;fill-rule:nonzero;stroke:none"
         transform="matrix(0.13333333,0,0,-0.13333333,0,4709.2533)" />
      <path
         id="path12"
         d="m 17963.1,22907.3 v -909.5 h 722.1 v -492.6 h -722.1 v -1692.6 h -519.4 v 3600 h 1836.9 v -505.3 h -1317.5"
         style="fill:#231f20;fill-opacity:1;fill-rule:nonzero;stroke:none"
         transform="matrix(0.13333333,0,0,-0.13333333,0,4709.2533)" />
      <path
         id="path13"
         d="m 20304,22907.3 v -909.5 h 722.1 v -492.6 H 20304 v -1692.6 h -519.4 v 3600 h 1836.9 v -505.3 H 20304"
         style="fill:#231f20;fill-opacity:1;fill-rule:nonzero;stroke:none"
         transform="matrix(0.13333333,0,0,-0.13333333,0,4709.2533)" />
      <path
         id="path14"
         d="m 22125.5,19812.6 v 3600 h 504 v -3600 h -504"
         style="fill:#231f20;fill-opacity:1;fill-rule:nonzero;stroke:none"
         transform="matrix(0.13333333,0,0,-0.13333333,0,4709.2533)" />
      <path
         id="path15"
         d="m 13340.1,22907.3 h -529.4 v -909.5 h 529.4 c 302.6,0 466.5,164.3 466.5,454.8 0,277.9 -189.1,454.7 -466.5,454.7 z m 441.2,-3094.7 -479,1692.6 h -491.6 v -1692.6 h -516.8 v 3600 h 1071.5 c 567.2,0 945.4,-379 945.4,-960 0,-429.5 -176.5,-745.3 -516.8,-871.6 l 516.8,-1768.4 h -529.5"
         style="fill:#231f20;fill-opacity:1;fill-rule:nonzero;stroke:none"
         transform="matrix(0.13333333,0,0,-0.13333333,0,4709.2533)" />
      <path
         id="path16"
         d="m 11131.1,22932.6 v -3120 h -519.4 v 3120 h -658.73 v 480 h 1836.93 v -480 h -658.8"
         style="fill:#231f20;fill-opacity:1;fill-rule:nonzero;stroke:none"
         transform="matrix(0.13333333,0,0,-0.13333333,0,4709.2533)" />
      <path
         id="path17"
         d="m 13019.2,16578.9 -253.3,-1035.8 h 519.3 z m 645.9,-2526.3 -253.3,985.2 h -772.5 l -240.6,-985.2 h -519.3 l 899.2,3600 h 506.6 l 899.1,-3600 h -519.2"
         style="fill:#231f20;fill-opacity:1;fill-rule:nonzero;stroke:none"
         transform="matrix(0.13333333,0,0,-0.13333333,0,4709.2533)" />
      <path
         id="path18"
         d="m 18794.2,14052.6 v 3600 h 1697.5 v -505.3 h -1178.2 v -909.5 h 747.5 v -492.6 h -747.5 V 14557.8 H 20631 v -505.2 h -1836.8"
         style="fill:#231f20;fill-opacity:1;fill-rule:nonzero;stroke:none"
         transform="matrix(0.13333333,0,0,-0.13333333,0,4709.2533)" />
      <path
         id="path19"
         d="m 25498.1,14052.6 -1109.3,2412.6 V 14052.6 H 23872 v 3600 h 516.8 l 983.2,-2160 v 2160 h 516.9 v -3600 h -390.8"
         style="fill:#231f20;fill-opacity:1;fill-rule:nonzero;stroke:none"
         transform="matrix(0.13333333,0,0,-0.13333333,0,4709.2533)" />
      <path
         id="path20"
         d="m 10476.8,17147.3 h -529.48 v -1023.2 h 529.48 c 302.5,0 466.4,189.5 466.4,517.9 0,303.2 -189.1,505.3 -466.4,505.3 z m 25.2,-1515.8 h -554.68 v -1578.9 h -516.81 v 3600 H 10502 c 567.2,0 945.4,-404.2 945.4,-1010.6 0,-656.8 -340.4,-1010.5 -945.4,-1010.5"
         style="fill:#231f20;fill-opacity:1;fill-rule:nonzero;stroke:none"
         transform="matrix(0.13333333,0,0,-0.13333333,0,4709.2533)" />
      <path
         id="path21"
         d="m 22289.3,17147.3 h -529.4 v -909.5 h 529.4 c 302.6,0 466.4,164.2 466.4,454.8 0,277.9 -189.1,454.7 -466.4,454.7 z m 441.2,-3094.7 -479,1692.6 h -491.6 v -1692.6 h -516.8 v 3600 h 1071.4 c 567.3,0 945.5,-379 945.5,-960 0,-429.5 -176.5,-745.3 -516.9,-871.6 l 516.9,-1768.4 h -529.5"
         style="fill:#231f20;fill-opacity:1;fill-rule:nonzero;stroke:none"
         transform="matrix(0.13333333,0,0,-0.13333333,0,4709.2533)" />
      <path
         id="path22"
         d="m 15578.5,17172.6 v -3120 h -519.4 v 3120 h -658.8 v 480 h 1836.9 v -480 h -658.7"
         style="fill:#231f20;fill-opacity:1;fill-rule:nonzero;stroke:none"
         transform="matrix(0.13333333,0,0,-0.13333333,0,4709.2533)" />
      <path
         id="path23"
         d="m 17631.4,17172.6 v -3120 H 17112 v 3120 h -658.8 v 480 h 1836.9 v -480 h -658.7"
         style="fill:#231f20;fill-opacity:1;fill-rule:nonzero;stroke:none"
         transform="matrix(0.13333333,0,0,-0.13333333,0,4709.2533)" />
      <path
         id="path24"
         d="m 16614.8,25572.6 v 3600 h 1697.5 v -505.3 h -1178.1 v -909.5 h 747.4 v -492.6 h -747.4 v -1187.4 h 1317.5 v -505.2 h -1836.9"
         style="fill:#231f20;fill-opacity:1;fill-rule:nonzero;stroke:none"
         transform="matrix(0.13333333,0,0,-0.13333333,0,4709.2533)" />
      <path
         id="path25"
         d="m 15432,25572.6 -1109.3,2412.6 v -2412.6 h -516.8 v 3600 h 516.8 l 983.2,-2160 v 2160 h 516.9 v -3600 H 15432"
         style="fill:#231f20;fill-opacity:1;fill-rule:nonzero;stroke:none"
         transform="matrix(0.13333333,0,0,-0.13333333,0,4709.2533)" />
      <path
         id="path26"
         d="m 20930.4,25572.6 h -443.6 l -342.2,1882.1 -342.2,-1882.1 H 19346 l -570.3,3600 h 507 l 304.2,-1920 354.9,1920 h 405.6 l 342.2,-1920 316.9,1920 h 507 l -583.1,-3600"
         style="fill:#231f20;fill-opacity:1;fill-rule:nonzero;stroke:none"
         transform="matrix(0.13333333,0,0,-0.13333333,0,4709.2533)" />
    </g>
  </g>
</svg>
