<?xml version="1.0" encoding="UTF-8"?>
<svg id="For_Sheets" xmlns="http://www.w3.org/2000/svg" version="1.1" viewBox="0 0 2160 2160">
  <!-- Generator: Adobe Illustrator 29.1.0, SVG Export Plug-In . SVG Version: 2.1.0 Build 142)  -->
  <defs>
    <style>
      .st0 {
        fill: #bed73d;
      }

      .st1 {
        fill: #231f20;
      }
    </style>
  </defs>
  <g>
    <path class="st0" d="M134.8,2160.1c-35.9,0-69.8-14.1-95.4-39.7-25.6-25.6-39.7-59.5-39.7-95.4v-889.3c0-36,14.1-69.9,39.7-95.5L984.2,95.4c25.4-25.4,59.3-39.4,95.5-39.4s70.1,14,95.5,39.4l944.9,944.9c25.6,25.6,39.7,59.5,39.7,95.5v889.3c0,35.9-14.1,69.8-39.7,95.4s-59.5,39.7-95.4,39.7H134.8Z"/>
    <path class="st1" d="M1079.8,56.1c34.6,0,69.2,13.1,95.5,39.4l944.9,944.9c24.5,24.5,39.7,58.2,39.7,95.4v889.3c0,74.2-60.8,135-135,135H134.8c-74.2,0-135-60.8-135-135v-889.3c0-37.1,15.2-70.9,39.7-95.4L984.3,95.5c26.3-26.3,60.9-39.4,95.5-39.4M1079.8,55.8c-36.2,0-70.2,14-95.6,39.5L39.3,1040.1c-25.6,25.6-39.8,59.6-39.8,95.5v889.3c0,36,14.1,69.9,39.7,95.5s59.5,39.7,95.5,39.7h1890c36,0,69.9-14.1,95.5-39.7s39.7-59.5,39.7-95.5v-889.3c0-36-14.1-69.9-39.8-95.5L1175.4,95.3c-25.4-25.4-59.4-39.5-95.6-39.5h0Z"/>
  </g>
  <path class="st1" d="M134.8,2124c-26.3,0-51.1-10.3-69.9-29.1-18.8-18.8-29.1-43.6-29.1-69.9v-889.3c0-26.3,10.3-51.1,29.1-69.9L1009.7,120.9c18.6-18.6,43.5-28.8,70-28.8s51.4,10.2,70,28.8l944.9,944.9c18.8,18.8,29.1,43.6,29.1,69.9v889.3c0,26.3-10.3,51.1-29.1,69.9-18.8,18.8-43.6,29.1-69.9,29.1H134.8Z"/>
  <path class="st0" d="M134.8,2070c-12,0-23-4.6-31.7-13.3-8.7-8.7-13.3-19.7-13.3-31.7v-889.3c0-12,4.6-23,13.3-31.7L1047.9,159.1c8.5-8.5,19.5-13,31.8-13s23.3,4.5,31.8,13l944.9,944.9c8.7,8.7,13.3,19.7,13.3,31.7v889.3c0,12-4.6,23-13.3,31.7-8.7,8.7-19.7,13.3-31.7,13.3H134.8Z"/>
  <path class="st1" d="M891.1,807.6c0,56.1-45.5,101.7-101.7,101.7s-101.7-45.5-101.7-101.7,45.5-101.7,101.7-101.7,101.7,45.5,101.7,101.7ZM1233.5,504c-59.2,0-107.3,48-107.3,107.3s48,107.3,107.3,107.3,107.3-48,107.3-107.3-48-107.3-107.3-107.3ZM844.1,910.1c-16.3,8.7-35,13.7-54.7,13.7s-18.4-1.1-27.1-3.2l-60.8,64.8-62,197.7-117.8,111.9,33.9,31.9,139.8-91.9,18-73.8,22,67.9-89.9,277.5,31.9,10.1-93.9,353.4,50,18,133.7-353.4,53.9,4,147.8,343.4,51.9-16-105.8-333.4c10.7-2.4,21.3-5.4,32.1-7.8,9.4-2.2,18.7-5.2,27.9-8.2l-53.9-165.8,133.7-31.9-27.9-135.9h-31.9l21.9-33.9-3.9-7.9,115.7-32.1,29.9-51.9,44,183.8-85.8,271.6-24,413.4,93.9,8.1,33.9-343.5,57.9-127.8,43.9,175.7,163.8,305.5,85.8-42-153.7-317.5,16-273.6,163.8-47.9-44-159.7-41.8,5.9,13.9-85.8-133.9-253.6-71.9-31.9-12.8-30c-20.6,15.8-46.3,25.3-74.2,25.3s-8.3-.2-12.4-.6l-4.5,25.4-55.9,51.9-69.9,235.7-101.8,42-57.9-127.8-87-49.4ZM915.1,1197.2l-22,3.9,20-89.9,18,38-16,48ZM1382.4,951.5l71.9,109.9-18,67.9-24,6-29.9-183.8Z"/>
</svg>