<?xml version="1.0" standalone="no"?>
<svg width="1728px" height="2160px" viewBox="0 -1368 1728 2160 " xmlns="http://www.w3.org/2000/svg" xmlns:xlink="http://www.w3.org/1999/xlink">
<title>generated by pstoedit</title>
<!-- generated by pstoedit version:4.02 -->
<g xml:space='preserve'>
<clipPath id="clippath1"> 	<path d="
	M 0 -1368.5 
	L 0 792 
	L 1728.5 792 
	L 1728.5 -1368.5 
	Z 
	" style="clip-rule:nonzero"/>
</clipPath>
<g style="clip-path:url(#clippath1)"> 
<g fill="#ffffff" fill-rule="nonzero" stroke-width="0" stroke-linejoin="miter" stroke-linecap="butt" stroke-miterlimit="10" >
	<path d="
	M 1728.25 683.75 
	C 1728.25 743.398 1679.9 791.75 1620.25 791.75 
	L 108.25 791.75 
	C 48.6016 791.75 0.25 743.398 0.25 683.75 
	L 0.25 -1260.25 
	C 0.25 -1319.89 48.6016 -1368.25 108.25 -1368.25 
	L 1620.25 -1368.25 
	C 1679.9 -1368.25 1728.25 -1319.89 1728.25 -1260.25 
	Z 
	"/>
</g>
<g stroke="#7f7f7f" fill="none" stroke-width="0.5" stroke-linejoin="miter" stroke-linecap="butt" stroke-miterlimit="4" >
	<path d="
	M 1728.25 683.75 
	C 1728.25 743.398 1679.9 791.75 1620.25 791.75 
	L 108.25 791.75 
	C 48.6016 791.75 0.25 743.398 0.25 683.75 
	L 0.25 -1260.25 
	C 0.25 -1319.89 48.6016 -1368.25 108.25 -1368.25 
	L 1620.25 -1368.25 
	C 1679.9 -1368.25 1728.25 -1319.89 1728.25 -1260.25 
	Z 
	"/>
</g>
<g fill="#96c87f" fill-rule="nonzero" stroke-width="0" stroke-linejoin="miter" stroke-linecap="butt" stroke-miterlimit="4" >
	<path d="
	M 108.25 746.75 
	C 73.5117 746.75 45.25 718.488 45.25 683.75 
	L 45.25 -1260.25 
	C 45.25 -1294.99 73.5117 -1323.25 108.25 -1323.25 
	L 1620.25 -1323.25 
	C 1654.99 -1323.25 1683.25 -1294.99 1683.25 -1260.25 
	L 1683.25 683.75 
	C 1683.25 718.488 1654.99 746.75 1620.25 746.75 
	Z 
	"/>
</g>
<g fill="#ffffff" fill-rule="evenodd" stroke-width="0" stroke-linejoin="miter" stroke-linecap="butt" stroke-miterlimit="4" >
	<path d="
	M 713.711 -745.5 
	L 713.711 -684.25 
	L 623.684 -684.25 
	L 623.684 -745.5 
	L 554.32 -745.5 
	L 554.32 -896.04 
	L 554.32 -897.51 
	L 554.348 -897.53 
	C 555.145 -925.29 578.027 -947.69 605.977 -947.69 
	C 606.465 -947.69 606.957 -947.68 607.441 -947.66 
	L 634.016 -947.69 
	C 634.016 -947.69 634.34 -1114.43 634.047 -1134.76 
	C 634.027 -1135.37 634.016 -1135.98 634.016 -1136.6 
	C 634.016 -1165.05 657.219 -1188.25 685.668 -1188.25 
	L 864.25 -1188.25 
	L 1042.82 -1188.25 
	C 1071.28 -1188.25 1094.48 -1165.05 1094.48 -1136.6 
	C 1094.48 -1135.98 1094.46 -1135.37 1094.45 -1134.76 
	C 1094.15 -1114.43 1094.48 -947.69 1094.48 -947.69 
	L 1121.04 -947.66 
	C 1121.54 -947.68 1122.03 -947.69 1122.53 -947.69 
	C 1150.47 -947.69 1173.36 -925.29 1174.15 -897.53 
	L 1174.18 -897.51 
	L 1174.18 -896.04 
	L 1174.18 -745.5 
	L 1104.81 -745.5 
	L 1104.81 -684.25 
	L 1014.78 -684.25 
	L 1014.78 -745.5 
	Z 
	"/>
</g>
<g fill="#96c87f" fill-rule="evenodd" stroke-width="0" stroke-linejoin="miter" stroke-linecap="butt" stroke-miterlimit="4" >
	<path d="
	M 1126.76 -793.6 
	L 1126.97 -893.91 
	C 1126.97 -901.59 1120.71 -907.84 1113.04 -907.84 
	C 1112.79 -907.84 1056.12 -907.84 1056.12 -907.84 
	L 1056.12 -1126.36 
	C 1056.12 -1134.03 1049.87 -1140.29 1042.2 -1140.29 
	L 864.25 -1140.29 
	L 686.289 -1140.29 
	C 678.621 -1140.29 672.363 -1134.03 672.363 -1126.36 
	L 672.363 -907.84 
	C 672.363 -907.84 615.699 -907.84 615.453 -907.84 
	C 607.785 -907.84 601.523 -901.59 601.523 -893.91 
	L 601.523 -793.6 
	Z 
	"/>
</g>
<g fill="#ffffff" fill-rule="evenodd" stroke-width="0" stroke-linejoin="miter" stroke-linecap="butt" stroke-miterlimit="4" >
	<path d="
	M 688.844 -1126.34 
	L 1039.47 -1126.34 
	C 1040.95 -1126.34 1042.17 -1125.13 1042.17 -1123.65 
	L 1042.17 -946.87 
	L 686.152 -946.87 
	L 686.152 -1123.65 
	C 686.152 -1125.13 687.363 -1126.34 688.844 -1126.34 
	Z 
	"/>
</g>
<g fill="#96c87f" fill-rule="evenodd" stroke-width="0" stroke-linejoin="miter" stroke-linecap="butt" stroke-miterlimit="4" >
	<path d="
	M 736.414 -1042.9 
	C 725.633 -1048.89 718.301 -1060.46 718.301 -1073.68 
	C 718.301 -1093.13 734.168 -1109 753.609 -1109 
	C 773.066 -1109 788.926 -1093.13 788.926 -1073.68 
	C 788.926 -1068.36 787.746 -1063.31 785.645 -1058.89 
	C 781.527 -1060.37 776.531 -1061.05 772.055 -1061.05 
	C 758.098 -1061.05 744.488 -1054.16 736.414 -1042.9 
	"/>
</g>
<g fill="#96c87f" fill-rule="evenodd" stroke-width="0" stroke-linejoin="miter" stroke-linecap="butt" stroke-miterlimit="4" >
	<path d="
	M 773.48 -1057.76 
	C 796.066 -1057.76 814.492 -1039.34 814.492 -1016.75 
	C 814.492 -994.16 796.066 -975.74 773.48 -975.74 
	C 750.898 -975.74 732.473 -994.16 732.473 -1016.75 
	C 732.473 -1039.34 750.898 -1057.76 773.48 -1057.76 
	"/>
</g>
<g fill="#96c87f" fill-rule="evenodd" stroke-width="0" stroke-linejoin="miter" stroke-linecap="butt" stroke-miterlimit="4" >
	<path d="
	M 687.898 -1007.83 
	C 702.16 -1016.45 716.422 -1025.07 730.691 -1033.69 
	C 727.566 -1025.66 726.527 -1017.05 727.566 -1007.83 
	C 714.348 -1007.83 701.117 -1007.83 687.898 -1007.83 
	"/>
</g>
<g fill="#96c87f" fill-rule="evenodd" stroke-width="0" stroke-linejoin="miter" stroke-linecap="butt" stroke-miterlimit="4" >
	<path d="
	M 800.844 -980.73 
	L 823.18 -957.29 
	L 723.434 -957.29 
	L 745.863 -980.82 
	C 753.66 -974.8 763.563 -971.43 773.48 -971.43 
	C 783.219 -971.43 793.305 -974.8 800.844 -980.73 
	"/>
</g>
<g fill="#96c87f" fill-rule="evenodd" stroke-width="0" stroke-linejoin="miter" stroke-linecap="butt" stroke-miterlimit="4" >
	<path d="
	M 992.117 -1042.9 
	C 1002.9 -1048.89 1010.22 -1060.46 1010.22 -1073.68 
	C 1010.22 -1093.13 994.355 -1109 974.906 -1109 
	C 955.465 -1109 939.598 -1093.13 939.598 -1073.68 
	C 939.598 -1068.36 940.781 -1063.31 942.883 -1058.89 
	C 947.004 -1060.37 951.992 -1061.05 956.477 -1061.05 
	C 970.43 -1061.05 984.043 -1054.16 992.117 -1042.9 
	"/>
</g>
<g fill="#96c87f" fill-rule="evenodd" stroke-width="0" stroke-linejoin="miter" stroke-linecap="butt" stroke-miterlimit="4" >
	<path d="
	M 955.047 -1057.76 
	C 932.457 -1057.76 914.035 -1039.34 914.035 -1016.75 
	C 914.035 -994.16 932.457 -975.74 955.047 -975.74 
	C 977.633 -975.74 996.059 -994.16 996.059 -1016.75 
	C 996.059 -1039.34 977.633 -1057.76 955.047 -1057.76 
	"/>
</g>
<g fill="#96c87f" fill-rule="evenodd" stroke-width="0" stroke-linejoin="miter" stroke-linecap="butt" stroke-miterlimit="4" >
	<path d="
	M 1040.63 -1007.83 
	C 1026.37 -1016.45 1012.1 -1025.07 997.84 -1033.69 
	C 1000.96 -1025.66 1002 -1017.05 1000.96 -1007.83 
	C 1014.18 -1007.83 1027.41 -1007.83 1040.63 -1007.83 
	"/>
</g>
<g fill="#96c87f" fill-rule="evenodd" stroke-width="0" stroke-linejoin="miter" stroke-linecap="butt" stroke-miterlimit="4" >
	<path d="
	M 927.688 -980.73 
	L 905.344 -957.29 
	L 1005.09 -957.29 
	L 982.668 -980.82 
	C 974.871 -974.8 964.953 -971.43 955.047 -971.43 
	C 945.309 -971.43 935.219 -974.8 927.688 -980.73 
	"/>
</g>
<g fill="#96c87f" fill-rule="evenodd" stroke-width="0" stroke-linejoin="miter" stroke-linecap="butt" stroke-miterlimit="4" >
	<path d="
	M 864.023 -1110.09 
	C 883.355 -1110.09 899.125 -1094.33 899.125 -1074.99 
	C 899.125 -1055.66 883.355 -1039.9 864.023 -1039.9 
	C 844.688 -1039.9 828.922 -1055.66 828.922 -1074.99 
	C 828.922 -1094.33 844.688 -1110.09 864.023 -1110.09 
	"/>
</g>
<g fill="#96c87f" fill-rule="evenodd" stroke-width="0" stroke-linejoin="miter" stroke-linecap="butt" stroke-miterlimit="4" >
	<path d="
	M 864.023 -1008.38 
	C 848.145 -1008.3 832.523 -1008.24 817.195 -1008.17 
	C 818.281 -1014.45 818.465 -1021.13 816.277 -1027.81 
	C 823.898 -1032.75 831.52 -1037.67 839.133 -1042.61 
	C 846.156 -1037.19 855.09 -1034.15 864.023 -1034.15 
	C 872.957 -1034.15 881.891 -1037.19 888.906 -1042.61 
	C 896.527 -1037.67 904.145 -1032.75 911.766 -1027.81 
	C 909.578 -1021.13 909.766 -1014.45 910.852 -1008.17 
	C 895.52 -1008.24 879.902 -1008.3 864.023 -1008.38 
	"/>
</g>
<g fill="#ffffff" fill-rule="evenodd" stroke-width="0" stroke-linejoin="miter" stroke-linecap="butt" stroke-miterlimit="4" >
	<path d="
	M 672.191 -899.1 
	C 694.461 -899.1 712.621 -880.94 712.621 -858.68 
	C 712.621 -836.41 694.461 -818.24 672.191 -818.24 
	C 649.922 -818.24 631.758 -836.41 631.758 -858.68 
	C 631.758 -880.94 649.922 -899.1 672.191 -899.1 
	"/>
</g>
<g fill="#ffffff" fill-rule="evenodd" stroke-width="0" stroke-linejoin="miter" stroke-linecap="butt" stroke-miterlimit="4" >
	<path d="
	M 1053.54 -899.1 
	C 1075.81 -899.1 1093.97 -880.94 1093.97 -858.68 
	C 1093.97 -836.41 1075.81 -818.24 1053.54 -818.24 
	C 1031.28 -818.24 1013.11 -836.41 1013.11 -858.68 
	C 1013.11 -880.94 1031.28 -899.1 1053.54 -899.1 
	Z 
	"/>
</g>
<g fill="#ffffff" fill-rule="nonzero" stroke-width="0" stroke-linejoin="miter" stroke-linecap="butt" stroke-miterlimit="4" >
	<path d="
	M 699.695 251.75 
	L 699.695 -36.25 
	L 745.773 -36.25 
	L 745.773 251.75 
	Z 
	"/>
</g>
<g fill="#ffffff" fill-rule="nonzero" stroke-width="0" stroke-linejoin="miter" stroke-linecap="butt" stroke-miterlimit="4" >
	<path d="
	M 568.762 14.281 
	C 561.688 10.23 557.645 9.21899 542.488 9.21899 
	L 487.914 9.21899 
	L 487.914 79.961 
	L 542.488 79.961 
	C 556.637 79.961 561.688 78.949 568.762 74.91 
	C 579.883 68.852 586.953 56.719 586.953 44.59 
	C 586.953 32.469 579.883 20.34 568.762 14.281 
	Z 
	M 588.977 251.75 
	L 542.488 126.449 
	L 487.914 126.449 
	L 487.914 251.75 
	L 442.438 251.75 
	L 442.438 -36.25 
	L 537.434 -36.25 
	C 559.668 -36.25 574.828 -34.23 588.977 -27.148 
	C 614.238 -15.031 632.43 15.289 632.43 44.59 
	C 632.43 74.91 614.238 105.219 587.965 117.352 
	L 638.496 251.75 
	Z 
	"/>
</g>
<g fill="#ffffff" fill-rule="nonzero" stroke-width="0" stroke-linejoin="miter" stroke-linecap="butt" stroke-miterlimit="4" >
	<path d="
	M 958.496 21.352 
	C 951.426 14.281 941.316 9.21899 929.188 9.21899 
	L 877.648 9.21899 
	L 877.648 205.27 
	L 923.129 205.27 
	C 938.285 205.27 947.383 202.238 955.465 194.148 
	C 972.645 176.969 981.738 145.641 981.738 107.238 
	C 981.738 68.852 972.645 36.512 958.496 21.352 
	Z 
	M 977.699 235.578 
	C 966.582 245.691 951.426 250.738 936.266 251.75 
	C 933.234 251.75 927.168 251.75 920.098 251.75 
	L 832.172 251.75 
	L 832.172 -36.25 
	L 925.145 -36.25 
	C 954.453 -36.25 965.57 -33.219 980.73 -21.09 
	C 1011.05 5.17999 1028.23 50.66 1028.23 107.238 
	C 1028.23 164.852 1010.04 210.32 977.699 235.578 
	Z 
	"/>
</g>
<g fill="#ffffff" fill-rule="nonzero" stroke-width="0" stroke-linejoin="miter" stroke-linecap="butt" stroke-miterlimit="4" >
	<path d="
	M 1107.43 251.75 
	L 1107.43 -36.25 
	L 1276.98 -36.25 
	L 1276.98 9.21899 
	L 1152.84 9.21899 
	L 1152.84 79.961 
	L 1236.61 79.961 
	L 1236.61 126.449 
	L 1152.84 126.449 
	L 1152.84 205.27 
	L 1286.06 205.27 
	L 1286.06 251.75 
	Z 
	"/>
</g>
<g fill="#ffffff" fill-rule="nonzero" stroke-width="0" stroke-linejoin="miter" stroke-linecap="butt" stroke-miterlimit="4" >
	<path d="
	M 382.84 -453.73 
	C 374.754 -457.77 369.703 -458.78 355.555 -458.78 
	L 295.93 -458.78 
	L 295.93 -388.04 
	L 355.555 -388.04 
	C 369.703 -388.04 374.754 -389.05 382.84 -393.09 
	C 392.945 -398.14 400.02 -411.28 400.02 -423.41 
	C 400.02 -435.54 392.945 -447.66 382.84 -453.73 
	Z 
	M 402.043 -351.66 
	C 388.902 -345.6 371.723 -341.55 349.488 -341.55 
	L 295.93 -341.55 
	L 295.93 -216.25 
	L 250.453 -216.25 
	L 250.453 -504.25 
	L 349.488 -504.25 
	C 372.734 -504.25 387.891 -502.23 402.043 -495.16 
	C 427.305 -483.03 446.508 -452.71 446.508 -423.41 
	C 446.508 -393.09 427.305 -362.78 402.043 -351.66 
	Z 
	"/>
</g>
<g fill="#ffffff" fill-rule="nonzero" stroke-width="0" stroke-linejoin="miter" stroke-linecap="butt" stroke-miterlimit="4" >
	<path d="
	M 1173.33 -216.25 
	L 1100.34 -352.67 
	L 1069.92 -315.28 
	L 1069.92 -216.25 
	L 1024.3 -216.25 
	L 1024.3 -504.25 
	L 1069.92 -504.25 
	L 1069.92 -390.06 
	L 1161.17 -504.25 
	L 1219.97 -504.25 
	L 1130.75 -392.08 
	L 1226.05 -216.25 
	Z 
	"/>
</g>
<g fill="#ffffff" fill-rule="nonzero" stroke-width="0" stroke-linejoin="miter" stroke-linecap="butt" stroke-miterlimit="4" >
	<path d="
	M 893.371 -453.72 
	C 886.297 -457.77 882.254 -458.78 867.098 -458.78 
	L 812.523 -458.78 
	L 812.523 -388.04 
	L 867.098 -388.04 
	C 881.246 -388.04 886.297 -389.05 893.371 -393.09 
	C 904.488 -399.16 911.563 -411.28 911.563 -423.41 
	C 911.563 -435.54 904.488 -447.66 893.371 -453.72 
	Z 
	M 913.582 -216.25 
	L 867.098 -341.56 
	L 812.523 -341.56 
	L 812.523 -216.25 
	L 767.051 -216.25 
	L 767.051 -504.25 
	L 862.043 -504.25 
	C 884.277 -504.25 899.438 -502.23 913.582 -495.16 
	C 938.852 -483.03 957.039 -452.71 957.039 -423.41 
	C 957.039 -393.09 938.852 -362.78 912.574 -350.65 
	L 963.105 -216.25 
	Z 
	"/>
</g>
<g fill="#ffffff" fill-rule="nonzero" stroke-width="0" stroke-linejoin="miter" stroke-linecap="butt" stroke-miterlimit="4" >
	<path d="
	M 591.086 -424.42 
	L 561.613 -343.58 
	L 619.543 -343.58 
	Z 
	M 664.266 -216.25 
	L 635.805 -297.09 
	L 545.352 -297.09 
	L 516.891 -216.25 
	L 468.105 -216.25 
	L 567.711 -504.25 
	L 613.445 -504.25 
	L 713.051 -216.25 
	Z 
	"/>
</g>
<g fill="#ffffff" fill-rule="nonzero" stroke-width="0" stroke-linejoin="miter" stroke-linecap="butt" stroke-miterlimit="4" >
	<path d="
	M 1334.05 -335.49 
	L 1334.05 -380.96 
	L 1478.05 -380.96 
	L 1478.05 -335.49 
	Z 
	"/>
</g>
<g fill="#ffffff" fill-rule="nonzero" stroke-width="0" stroke-linejoin="miter" stroke-linecap="butt" stroke-miterlimit="4" >
	<path d="
	M 1087.28 363.352 
	C 1084.01 361.078 1080.03 359.75 1075.75 359.75 
	C 1064.56 359.75 1055.48 368.828 1055.48 380.02 
	C 1055.48 381.988 1055.77 383.891 1056.29 385.691 
	L 1075.71 452.02 
	L 432.25 452.02 
	L 432.25 560.02 
	L 1075.71 560.02 
	L 1056.29 626.352 
	C 1055.77 628.148 1055.48 630.051 1055.48 632.02 
	C 1055.48 643.211 1064.56 652.289 1075.75 652.289 
	C 1080.03 652.289 1084.01 650.949 1087.28 648.691 
	L 1296.25 506.02 
	Z 
	"/>
</g>
</g >
</g>
</svg>
