<?xml version="1.0" encoding="UTF-8" standalone="no"?>
<!-- Created with Inkscape (http://www.inkscape.org/) -->

<svg
   version="1.1"
   id="svg1"
   width="3456.6667"
   height="4608.6665"
   viewBox="0 0 3456.6667 4608.6665"
   sodipodi:docname="tmppije8amw.pdf"
   xmlns:inkscape="http://www.inkscape.org/namespaces/inkscape"
   xmlns:sodipodi="http://sodipodi.sourceforge.net/DTD/sodipodi-0.dtd"
   xmlns="http://www.w3.org/2000/svg"
   xmlns:svg="http://www.w3.org/2000/svg">
  <defs
     id="defs1" />
  <sodipodi:namedview
     id="namedview1"
     pagecolor="#ffffff"
     bordercolor="#000000"
     borderopacity="0.25"
     inkscape:showpageshadow="2"
     inkscape:pageopacity="0.0"
     inkscape:pagecheckerboard="0"
     inkscape:deskcolor="#d1d1d1">
    <inkscape:page
       x="0"
       y="0"
       inkscape:label="1"
       id="page1"
       width="3456.6667"
       height="4608.6665"
       margin="0"
       bleed="0" />
  </sodipodi:namedview>
  <g
     id="g1"
     inkscape:groupmode="layer"
     inkscape:label="1">
    <g
       id="group-R5">
      <path
         id="path2"
         d="m 25922.5,1622.5 c 0,-894.699 -725.3,-1620 -1620,-1620 H 1622.5 C 727.797,2.5 2.5,727.801 2.5,1622.5 v 31320 c 0,894.7 725.297,1620 1620,1620 h 22680 c 894.7,0 1620,-725.3 1620,-1620 v -31320"
         style="fill:#ffffff;fill-opacity:1;fill-rule:nonzero;stroke:none"
         transform="matrix(0.13333333,0,0,-0.13333333,0,4608.6667)" />
      <path
         id="path3"
         d="m 25922.5,1622.5 c 0,-894.699 -725.3,-1620 -1620,-1620 H 1622.5 C 727.797,2.5 2.5,727.801 2.5,1622.5 v 31320 c 0,894.7 725.297,1620 1620,1620 h 22680 c 894.7,0 1620,-725.3 1620,-1620 z"
         style="fill:none;stroke:#231f20;stroke-width:5;stroke-linecap:butt;stroke-linejoin:miter;stroke-miterlimit:4;stroke-dasharray:none;stroke-opacity:1"
         transform="matrix(0.13333333,0,0,-0.13333333,0,4608.6667)" />
      <path
         id="path4"
         d="m 1622.5,632.5 c -545.89,0 -990,444.1 -990,990 v 31320 c 0,545.9 444.11,990 990,990 h 22680 c 545.9,0 990,-444.1 990,-990 v -31320 c 0,-545.9 -444.1,-990 -990,-990 h -22680"
         style="fill:#00674e;fill-opacity:1;fill-rule:nonzero;stroke:none"
         transform="matrix(0.13333333,0,0,-0.13333333,0,4608.6667)" />
      <path
         id="path5"
         d="m 10596.9,24725 v -962.5 H 9182.14 V 24725 H 8092.19 v 2365.6 23.1 l 0.38,0.4 c 12.54,436.2 372.13,788.1 811.32,788.1 7.72,0 15.44,-0.1 23.06,-0.4 l 417.58,0.4 c 0,0 5.1,2620.3 0.47,2939.7 -0.29,9.6 -0.47,19.3 -0.47,28.9 0,447.1 364.6,811.7 811.67,811.7 h 2806.3 2806.1 c 447.2,0 811.9,-364.6 811.9,-811.7 0,-9.6 -0.3,-19.3 -0.6,-28.9 -4.6,-319.4 0.6,-2939.7 0.6,-2939.7 l 417.4,-0.4 c 7.7,0.3 15.4,0.4 23.2,0.4 439.1,0 798.8,-351.9 811.3,-788.1 l 0.4,-0.4 v -23.1 -2365.6 h -1090 v -962.5 h -1414.9 v 962.5 h -4731"
         style="fill:#ffffff;fill-opacity:1;fill-rule:evenodd;stroke:none"
         transform="matrix(0.13333333,0,0,-0.13333333,0,4608.6667)" />
      <path
         id="path6"
         d="m 17087.7,25480.8 3.3,1576.4 c 0,120.6 -98.4,218.8 -218.9,218.8 -3.9,0 -894.4,0 -894.4,0 v 3433.9 c 0,120.6 -98.3,218.9 -218.9,218.9 H 12962.5 10166 c -120.5,0 -218.86,-98.3 -218.86,-218.9 V 27276 c 0,0 -890.43,0 -894.28,0 -120.51,0 -218.92,-98.2 -218.92,-218.8 v -1576.4 h 8253.76"
         style="fill:#00674e;fill-opacity:1;fill-rule:evenodd;stroke:none"
         transform="matrix(0.13333333,0,0,-0.13333333,0,4608.6667)" />
      <path
         id="path7"
         d="M 10206.1,30709.6 H 15716 c 23.3,0 42.4,-18.9 42.4,-42.2 v -2778 h -5594.6 v 2778 c 0,23.3 19.1,42.2 42.3,42.2"
         style="fill:#ffffff;fill-opacity:1;fill-rule:evenodd;stroke:none"
         transform="matrix(0.13333333,0,0,-0.13333333,0,4608.6667)" />
      <path
         id="path8"
         d="m 10953.6,29398.5 c -169.4,94.2 -284.6,275.8 -284.6,483.6 0,305.7 249.3,555 554.9,555 305.7,0 555,-249.3 555,-555 0,-83.6 -18.6,-162.9 -51.7,-232.5 -64.6,23.4 -143.1,34.1 -213.5,34.1 -219.3,0 -433.2,-108.3 -560.1,-285.2"
         style="fill:#00674e;fill-opacity:1;fill-rule:evenodd;stroke:none"
         transform="matrix(0.13333333,0,0,-0.13333333,0,4608.6667)" />
      <path
         id="path9"
         d="m 11536.1,29632 c 355,0 644.5,-289.5 644.5,-644.5 0,-355 -289.5,-644.5 -644.5,-644.5 -354.9,0 -644.4,289.5 -644.4,644.5 0,355 289.5,644.5 644.4,644.5"
         style="fill:#00674e;fill-opacity:1;fill-rule:evenodd;stroke:none"
         transform="matrix(0.13333333,0,0,-0.13333333,0,4608.6667)" />
      <path
         id="path10"
         d="m 10191.2,28847.4 c 224.2,135.4 448.3,270.8 672.5,406.3 -49.1,-126.1 -65.4,-261.5 -49.1,-406.3 -207.7,0 -415.6,0 -623.4,0"
         style="fill:#00674e;fill-opacity:1;fill-rule:evenodd;stroke:none"
         transform="matrix(0.13333333,0,0,-0.13333333,0,4608.6667)" />
      <path
         id="path11"
         d="m 11966.1,28421.5 351,-368.4 h -1567.4 l 352.4,369.8 c 122.6,-94.7 278.2,-147.6 434,-147.6 153,0 311.6,52.9 430,146.2"
         style="fill:#00674e;fill-opacity:1;fill-rule:evenodd;stroke:none"
         transform="matrix(0.13333333,0,0,-0.13333333,0,4608.6667)" />
      <path
         id="path12"
         d="m 14971.8,29398.5 c 169.5,94.2 284.5,275.8 284.5,483.6 0,305.7 -249.2,555 -554.9,555 -305.6,0 -554.9,-249.3 -554.9,-555 0,-83.6 18.7,-162.9 51.6,-232.5 64.8,23.4 143.2,34.1 213.7,34.1 219.3,0 433.2,-108.3 560,-285.2"
         style="fill:#00674e;fill-opacity:1;fill-rule:evenodd;stroke:none"
         transform="matrix(0.13333333,0,0,-0.13333333,0,4608.6667)" />
      <path
         id="path13"
         d="m 14389.3,29632 c -355,0 -644.4,-289.5 -644.4,-644.5 0,-355 289.4,-644.5 644.4,-644.5 354.9,0 644.5,289.5 644.5,644.5 0,355 -289.6,644.5 -644.5,644.5"
         style="fill:#00674e;fill-opacity:1;fill-rule:evenodd;stroke:none"
         transform="matrix(0.13333333,0,0,-0.13333333,0,4608.6667)" />
      <path
         id="path14"
         d="m 15734.2,28847.4 c -224.1,135.4 -448.3,270.8 -672.4,406.3 49.1,-126.1 65.4,-261.5 49.1,-406.3 207.7,0 415.6,0 623.3,0"
         style="fill:#00674e;fill-opacity:1;fill-rule:evenodd;stroke:none"
         transform="matrix(0.13333333,0,0,-0.13333333,0,4608.6667)" />
      <path
         id="path15"
         d="m 13959.4,28421.5 -351.1,-368.4 h 1567.4 l -352.4,369.8 c -122.5,-94.7 -278.3,-147.6 -434,-147.6 -153,0 -311.6,52.9 -429.9,146.2"
         style="fill:#00674e;fill-opacity:1;fill-rule:evenodd;stroke:none"
         transform="matrix(0.13333333,0,0,-0.13333333,0,4608.6667)" />
      <path
         id="path16"
         d="m 12958.9,30454.3 c 303.9,0 551.6,-247.7 551.6,-551.6 0,-303.7 -247.7,-551.4 -551.6,-551.4 -303.8,0 -551.6,247.7 -551.6,551.4 0,303.9 247.8,551.6 551.6,551.6"
         style="fill:#00674e;fill-opacity:1;fill-rule:evenodd;stroke:none"
         transform="matrix(0.13333333,0,0,-0.13333333,0,4608.6667)" />
      <path
         id="path17"
         d="m 12958.9,28855.9 c -249.5,-1.1 -494.9,-2.1 -735.8,-3.3 17,98.7 19.9,203.8 -14.4,308.7 119.7,77.6 239.4,155 359.1,232.6 110.4,-85.2 250.7,-133 391.1,-133 140.4,0 280.8,47.8 391.1,133 119.7,-77.6 239.4,-155 359.2,-232.6 -34.4,-104.9 -31.5,-210 -14.4,-308.7 -240.9,1.2 -486.4,2.2 -735.9,3.3"
         style="fill:#00674e;fill-opacity:1;fill-rule:evenodd;stroke:none"
         transform="matrix(0.13333333,0,0,-0.13333333,0,4608.6667)" />
      <path
         id="path18"
         d="m 9944.45,27138.7 c 349.95,0 635.35,-285.3 635.35,-635.2 0,-350 -285.4,-635.4 -635.35,-635.4 -349.94,0 -635.43,285.4 -635.43,635.4 0,349.9 285.49,635.2 635.43,635.2"
         style="fill:#ffffff;fill-opacity:1;fill-rule:evenodd;stroke:none"
         transform="matrix(0.13333333,0,0,-0.13333333,0,4608.6667)" />
      <path
         id="path19"
         d="m 15937.1,27138.7 c 349.9,0 635.4,-285.3 635.4,-635.2 0,-350 -285.5,-635.4 -635.4,-635.4 -349.9,0 -635.3,285.4 -635.3,635.4 0,349.9 285.4,635.2 635.3,635.2"
         style="fill:#ffffff;fill-opacity:1;fill-rule:evenodd;stroke:none"
         transform="matrix(0.13333333,0,0,-0.13333333,0,4608.6667)" />
      <path
         id="path20"
         d="m 10494.2,8642.5 v 4320 h 691.2 v -4320 h -691.2"
         style="fill:#ffffff;fill-opacity:1;fill-rule:nonzero;stroke:none"
         transform="matrix(0.13333333,0,0,-0.13333333,0,4608.6667)" />
      <path
         id="path21"
         d="m 8530.18,12204.6 c -106.09,60.6 -166.73,75.8 -394.12,75.8 h -818.59 v -1061.1 h 818.59 c 212.24,0 288.03,15.2 394.12,75.8 166.78,91 272.9,272.9 272.9,454.7 0,181.9 -106.12,363.9 -272.9,454.8 z m 303.19,-3562.1 -697.31,1879.6 H 7317.47 V 8642.5 h -682.13 v 4320 h 1424.91 c 333.52,0 560.91,-30.3 773.12,-136.4 378.98,-181.9 651.84,-636.7 651.84,-1076.3 0,-454.7 -272.86,-909.4 -666.99,-1091.3 l 757.97,-2016 h -742.82"
         style="fill:#ffffff;fill-opacity:1;fill-rule:nonzero;stroke:none"
         transform="matrix(0.13333333,0,0,-0.13333333,0,4608.6667)" />
      <path
         id="path22"
         d="m 14376.2,12098.5 c -106.1,106.1 -257.7,181.9 -439.6,181.9 h -773.1 V 9339.7 h 682.2 c 227.4,0 363.8,45.5 485,166.8 257.7,257.7 394.2,727.6 394.2,1303.6 0,576 -136.5,1061 -348.7,1288.4 z m 288,-3213.5 c -166.7,-151.6 -394.1,-227.4 -621.5,-242.5 -45.4,0 -136.4,0 -242.5,0 h -1318.9 v 4320 h 1394.6 c 439.7,0 606.4,-45.5 833.8,-227.4 454.8,-394.1 712.5,-1076.2 712.5,-1925 0,-864 -272.9,-1546.2 -758,-1925.1"
         style="fill:#ffffff;fill-opacity:1;fill-rule:nonzero;stroke:none"
         transform="matrix(0.13333333,0,0,-0.13333333,0,4608.6667)" />
      <path
         id="path23"
         d="m 16610.2,8642.5 v 4320 h 2543.2 v -682.1 h -1862 v -1061.1 h 1256.5 v -697.2 H 17291.4 V 9339.7 h 1998.3 v -697.2 h -2679.5"
         style="fill:#ffffff;fill-opacity:1;fill-rule:nonzero;stroke:none"
         transform="matrix(0.13333333,0,0,-0.13333333,0,4608.6667)" />
      <path
         id="path24"
         d="m 5651.32,19764.6 c -121.26,60.6 -197.05,75.8 -409.28,75.8 h -894.37 v -1061.1 h 894.37 c 212.23,0 288.02,15.2 409.28,75.8 151.58,75.8 257.72,272.9 257.72,454.8 0,181.9 -106.14,363.8 -257.72,454.7 z m 288.05,-1530.9 c -197.08,-91 -454.78,-151.6 -788.3,-151.6 h -803.4 v -1879.6 h -682.15 v 4320 h 1485.55 c 348.67,0 576.04,-30.3 788.3,-136.4 378.95,-181.9 666.97,-636.7 666.97,-1076.2 0,-454.8 -288.02,-909.5 -666.97,-1076.2"
         style="fill:#ffffff;fill-opacity:1;fill-rule:nonzero;stroke:none"
         transform="matrix(0.13333333,0,0,-0.13333333,0,4608.6667)" />
      <path
         id="path25"
         d="m 17508.7,16202.5 -1094.9,2046.3 -456.2,-560.8 v -1485.5 h -684.3 v 4320 h 684.3 v -1712.9 l 1368.6,1712.9 h 882 L 16870,18840 18299.5,16202.5 h -790.8"
         style="fill:#ffffff;fill-opacity:1;fill-rule:nonzero;stroke:none"
         transform="matrix(0.13333333,0,0,-0.13333333,0,4608.6667)" />
      <path
         id="path26"
         d="m 13309.3,19764.6 c -106.1,60.6 -166.7,75.8 -394.1,75.8 h -818.6 v -1061.1 h 818.6 c 212.2,0 288,15.2 394.1,75.8 166.8,91 272.9,272.9 272.9,454.8 0,181.9 -106.1,363.8 -272.9,454.7 z m 303.2,-3562.1 -697.3,1879.6 h -818.6 v -1879.6 h -682.1 v 4320 h 1424.9 c 333.5,0 560.9,-30.3 773.1,-136.4 379,-181.9 651.8,-636.6 651.8,-1076.2 0,-454.8 -272.8,-909.5 -666.9,-1091.4 l 757.9,-2016 h -742.8"
         style="fill:#ffffff;fill-opacity:1;fill-rule:nonzero;stroke:none"
         transform="matrix(0.13333333,0,0,-0.13333333,0,4608.6667)" />
      <path
         id="path27"
         d="m 8775.02,19325 -442.11,-1212.6 h 868.99 z m 1097.69,-3122.5 -426.88,1212.6 H 8088.98 l -426.87,-1212.6 h -731.79 l 1494.06,4320 h 686.05 l 1494.07,-4320 h -731.79"
         style="fill:#ffffff;fill-opacity:1;fill-rule:nonzero;stroke:none"
         transform="matrix(0.13333333,0,0,-0.13333333,0,4608.6667)" />
      <path
         id="path28"
         d="m 20099.5,17991.1 v 682.1 h 2160 v -682.1 h -2160"
         style="fill:#ffffff;fill-opacity:1;fill-rule:nonzero;stroke:none"
         transform="matrix(0.13333333,0,0,-0.13333333,0,4608.6667)" />
      <path
         id="path29"
         d="m 16378.2,6429.1 h -0.1 c -50.2,33.7 -110.6,53.4 -175.6,53.4 -174.2,0 -315.4,-141.2 -315.4,-315.4 0,-35.3 5.9,-69.2 16.6,-100.9 L 16215,5087.1 H 6482.5 v -1620 H 16215 L 15903.7,2488 c -10.7,-31.6 -16.6,-65.6 -16.6,-100.9 0,-174.1 141.2,-315.3 315.4,-315.3 65,0 125.4,19.7 175.6,53.4 h 0.1 l 3064.3,2151.9 -3064.3,2152"
         style="fill:#ffffff;fill-opacity:1;fill-rule:nonzero;stroke:none"
         transform="matrix(0.13333333,0,0,-0.13333333,0,4608.6667)" />
    </g>
  </g>
</svg>
