<?xml version="1.0" encoding="UTF-8" standalone="no"?>
<!-- Created with Inkscape (http://www.inkscape.org/) -->

<svg
   version="1.1"
   id="svg1"
   width="14976.667"
   height="7488.6665"
   viewBox="0 0 14976.667 7488.6665"
   sodipodi:docname="tmp85t7axvv.pdf"
   xmlns:inkscape="http://www.inkscape.org/namespaces/inkscape"
   xmlns:sodipodi="http://sodipodi.sourceforge.net/DTD/sodipodi-0.dtd"
   xmlns="http://www.w3.org/2000/svg"
   xmlns:svg="http://www.w3.org/2000/svg">
  <defs
     id="defs1" />
  <sodipodi:namedview
     id="namedview1"
     pagecolor="#ffffff"
     bordercolor="#000000"
     borderopacity="0.25"
     inkscape:showpageshadow="2"
     inkscape:pageopacity="0.0"
     inkscape:pagecheckerboard="0"
     inkscape:deskcolor="#d1d1d1">
    <inkscape:page
       x="0"
       y="0"
       inkscape:label="1"
       id="page1"
       width="14976.667"
       height="7488.6665"
       margin="0"
       bleed="0" />
  </sodipodi:namedview>
  <g
     id="g1"
     inkscape:groupmode="layer"
     inkscape:label="1">
    <g
       id="group-R5">
      <path
         id="path2"
         d="m 112322,6482.5 c 0,-3564 -2916,-6480 -6480,-6480 H 6482.5 c -3564,0 -6480,2916 -6480,6480 v 43200 c 0,3564 2916,6480 6480,6480 H 105842 c 3564,0 6480,-2916 6480,-6480 v -43200"
         style="fill:#ffffff;fill-opacity:1;fill-rule:nonzero;stroke:none"
         transform="matrix(0.13333333,0,0,-0.13333333,0,7488.6667)" />
      <path
         id="path3"
         d="m 112322,6482.5 c 0,-3564 -2916,-6480 -6480,-6480 H 6482.5 c -3564,0 -6480,2916 -6480,6480 v 43200 c 0,3564 2916,6480 6480,6480 H 105842 c 3564,0 6480,-2916 6480,-6480 z"
         style="fill:none;stroke:#231f20;stroke-width:5;stroke-linecap:butt;stroke-linejoin:miter;stroke-miterlimit:4;stroke-dasharray:none;stroke-opacity:1"
         transform="matrix(0.13333333,0,0,-0.13333333,0,7488.6667)" />
      <path
         id="path4"
         d="m 6482.5,54722.5 c -2779.06,0 -5040,-2260.9 -5040,-5040 v -43200 c 0,-2779.1 2260.94,-5040 5040,-5040 H 105842 c 2779,0 5040,2260.9 5040,5040 v 43200 c 0,2779.1 -2261,5040 -5040,5040 H 6482.5 v 0"
         style="fill:#15569c;fill-opacity:1;fill-rule:nonzero;stroke:none"
         transform="matrix(0.13333333,0,0,-0.13333333,0,7488.6667)" />
      <path
         id="path5"
         d="m 65518.9,32048.8 -1010.2,-2425.3 h 2020.5 z m 2273,-5406.3 -707.1,1692.6 h -3131.7 l -707.2,-1692.6 h -1414.3 l 3030.7,7200 h 1313.3 l 3005.4,-7200 h -1389.1"
         style="fill:#ffffff;fill-opacity:1;fill-rule:nonzero;stroke:none"
         transform="matrix(0.13333333,0,0,-0.13333333,0,7488.6667)" />
      <path
         id="path6"
         d="m 77695,26642.5 v 7200 h 1296 v -7200 h -1296"
         style="fill:#ffffff;fill-opacity:1;fill-rule:nonzero;stroke:none"
         transform="matrix(0.13333333,0,0,-0.13333333,0,7488.6667)" />
      <path
         id="path7"
         d="m 57634.1,32680.4 c -1088.7,0 -1747,-909.5 -1747,-2425.3 0,-1541.1 658.3,-2450.5 1747,-2450.5 1367.4,0 1696.5,1338.9 1696.5,2450.5 0,1515.8 -607.7,2425.3 -1696.5,2425.3 z m 0,-6164.2 c -2126.9,0 -3063.7,1920 -3063.7,3738.9 0,2299 1164.7,3713.7 3063.7,3713.7 1772.5,0 2987.9,-1490.5 2987.9,-3688.4 0,-2248.4 -1164.8,-3764.2 -2987.9,-3764.2"
         style="fill:#ffffff;fill-opacity:1;fill-rule:nonzero;stroke:none"
         transform="matrix(0.13333333,0,0,-0.13333333,0,7488.6667)" />
      <path
         id="path8"
         d="m 72815.8,29873.4 c -320.5,88.5 -1126.4,281.9 -1398.3,441.4 -542,317.7 -956.3,837.3 -956.3,1607.7 0,1187.4 1014.9,1995.8 2486.5,1995.8 1065.6,0 1953.7,-353.7 2689.5,-1111.6 l -964.2,-858.9 c -456.7,480 -1040.2,707.3 -1725.3,707.3 -735.8,0 -1167.1,-277.9 -1167.1,-732.6 0,-404.2 253.7,-581.1 1141.7,-783.2 964.2,-202.1 1598.5,-404.2 2004.4,-606.3 634.3,-328.4 1040.3,-1010.5 1040.3,-1793.7 0,-732.6 -329.8,-1288.4 -1014.9,-1692.6 -507.4,-303.2 -1167.1,-480 -1826.8,-480 -1243.2,0 -2182,454.7 -2993.9,1389.5 l 1040.3,808.4 c 532.8,-631.6 1116.3,-909.5 1928.3,-909.5 913.3,0 1573,404.2 1573,934.7 0,675.8 -735.1,773.9 -1857.2,1083.6"
         style="fill:#ffffff;fill-opacity:1;fill-rule:nonzero;stroke:none"
         transform="matrix(0.13333333,0,0,-0.13333333,0,7488.6667)" />
      <path
         id="path9"
         d="m 83403.4,29873.4 c -320.4,88.5 -1126.3,281.9 -1398.2,441.4 -542,317.7 -956.3,837.3 -956.3,1607.7 0,1187.4 1014.9,1995.8 2486.4,1995.8 1065.7,0 1953.7,-353.7 2689.5,-1111.6 l -964.2,-858.9 c -456.6,480 -1040.2,707.3 -1725.3,707.3 -735.7,0 -1167.1,-277.9 -1167.1,-732.6 0,-404.2 253.8,-581.1 1141.8,-783.2 964.1,-202.1 1598.4,-404.2 2004.4,-606.3 634.3,-328.4 1040.2,-1010.5 1040.2,-1793.7 0,-732.6 -329.8,-1288.4 -1014.9,-1692.6 -507.4,-303.2 -1167.1,-480 -1826.7,-480 -1243.3,0 -2182.1,454.7 -2994,1389.5 l 1040.3,808.4 c 532.8,-631.6 1116.4,-909.5 1928.3,-909.5 913.4,0 1573,404.2 1573,934.7 0,675.8 -735,773.9 -1857.2,1083.6"
         style="fill:#ffffff;fill-opacity:1;fill-rule:nonzero;stroke:none"
         transform="matrix(0.13333333,0,0,-0.13333333,0,7488.6667)" />
      <path
         id="path10"
         d="m 30824.8,27272.5 c 0,-745.6 -604.4,-1350 -1350,-1350 h -18900 c -745.6,0 -1350.01,604.4 -1350.01,1350 v 18900 c 0,745.6 604.41,1350 1350.01,1350 h 18900 c 745.6,0 1350,-604.4 1350,-1350 v -18900"
         style="fill:#ffffff;fill-opacity:1;fill-rule:nonzero;stroke:none"
         transform="matrix(0.13333333,0,0,-0.13333333,0,7488.6667)" />
      <path
         id="path11"
         d="m 10574.8,26462.5 c -446.6,0 -810.01,363.4 -810.01,810 v 18900 c 0,446.6 363.41,810 810.01,810 h 18900 c 446.6,0 810,-363.4 810,-810 v -18900 c 0,-446.6 -363.4,-810 -810,-810 h -18900"
         style="fill:#15569c;fill-opacity:1;fill-rule:nonzero;stroke:none"
         transform="matrix(0.13333333,0,0,-0.13333333,0,7488.6667)" />
      <path
         id="path12"
         d="m 23478.6,30768.9 c -380.1,-26.7 -400.5,-117.6 -853.4,-145.6 -630.7,-39.2 -1301.1,432.5 -1729.6,463.1 -312.8,22.1 -636.6,10.1 -927.8,120.8 -43.9,16.7 -85,40.8 -123.5,68.8 -161.3,374.7 -350.1,874.1 -456.2,1366.2 3.4,7.7 4.7,17 2.2,29.7 -19,90.5 -34.3,171.9 -45.3,233.4 v 2.1 h -0.4 c -12.2,68 -19.1,111 -19.1,111 -208.1,1222.8 -155.2,1582.6 -155.2,1582.6 -4.3,0 -8.2,0.2 -12.4,0.3 7.8,34.4 14.9,71.7 20.7,113.6 0,0 -14,1342.6 119,1608.4 149.6,868.7 246.3,1207.5 288.7,1329.3 l 7.6,-2.1 c 249.6,766.9 449.8,1165.3 449.8,1165.3 0.6,3.5 0.6,6.4 1.1,9.8 36.2,106.4 224.2,637.6 514.7,1045.9 l 70.8,117.2 c 0,0 -2.6,-0.1 -6.7,-0.1 70.2,67.6 341.5,456.3 341.5,456.3 l 101.8,125.3 33.4,75.9 108,121.5 70.8,148.6 c 0,0 -63.7,130.1 -83.1,252.8 l -41.5,258.9 c 0,0 -92.5,-91.8 -242.2,-258.9 0,0 -350.6,-270.7 -475.4,-384.7 0,0 -12.3,-8 -53.9,-38.4 0,0 -7.7,-8.7 -18.1,-22 l -0.2,0.2 -5.5,-7.9 c -6.2,-8.1 -12.4,-17.3 -19,-27.5 l -71.8,-103.5 -16.6,-37.7 c -34.2,-80.9 -206.5,-354.3 -267.8,-450.6 -1,0.2 -1.9,0.5 -2.8,0.7 0,0 -399.2,-680.3 -523.8,-969.6 l -64.8,-134.7 c -380.3,-716.7 -405.3,-944.4 -405.3,-944.4 -10.2,-35.8 -15.3,-62.7 -18.2,-85.8 l -23.3,-35.8 c -141.4,-189.9 -424.3,-1169.6 -424.3,-1169.6 -10.1,-42.4 -12.7,-79.3 -10.9,-111.3 -4.6,4.5 -9.6,8 -14.1,12.6 0,0 -241.2,-501.1 -349.4,-1731.6 0,0 -1.1,-56.2 4,-123.7 l -12.4,-28 c -74.8,-189.8 -99.8,-1526.5 -99.8,-1526.5 7.7,-14.2 6.6,-74.2 21.5,-131.6 -1.6,0.8 -3.3,1.5 -4.9,2.5 0,0 -41.6,-698.9 75,-1427.9 0,0 8.4,-63.2 20.2,-157.5 l -423.3,-286.4 c 0,0 -939.1,-456.6 -1346.3,-465.7 -133,-2.8 -563.3,126.2 -986.1,144.5 -415.5,18.3 -613.3,-19 -877.3,-135.8 -263.2,-117 -972.9,-468.4 -972.9,-468.4 0,0 2853.1,-1625 5064.6,-1696.4 86.3,-2.7 176.4,-4.1 269.8,-4 791.2,1 1813.2,109.6 2698.9,395.4 1743,562.5 2827.3,1547.1 2827.3,1547.1 0,0 -584.2,228.1 -926.8,203.9"
         style="fill:#ffffff;fill-opacity:1;fill-rule:nonzero;stroke:none"
         transform="matrix(0.13333333,0,0,-0.13333333,0,7488.6667)" />
      <path
         id="path13"
         d="m 23246.4,41929.4 c 0.7,-4.8 4,-10.9 6.6,-16.6 -35.9,23.5 -73.2,46.3 -111.7,68.5 l -94.4,631.8 c 0,0 183.1,-562 199.5,-683.7 z m -815.2,790 c 0,0 207.6,-307.6 245.8,-534.5 -26.1,5.8 -60,13.1 -101.1,21.3 z m -575.2,-429.8 c 22.6,84.4 96.1,348.4 117.9,313.5 25.2,-39.9 182.6,-253.9 244.2,-337.4 -121.4,15.3 -248,25.6 -362.1,23.9 z m -1803.9,414.6 c 0,0 -250,-616.7 -300.6,-848.3 -81.3,-45.6 -166.3,-96 -254.3,-152.6 35.7,88.9 321.4,787.7 554.9,1000.9 z m 6452.7,-1165.5 c 0,0 -132.6,939.2 -498.6,1334.1 0,0 -583.1,821.5 -1453.1,1123 -1093.8,379.1 -2002.7,184.4 -2376.9,49.1 -499.2,-180.4 -829.3,-432.6 -1007.8,-629.8 -116.2,541.3 -635.9,1974.8 -2819.6,1164.9 0,0 -1838.1,-834.2 -2570.2,-3325.1 0,0 218.2,249.4 375.6,349.3 0,0 503.8,1115.2 720,1251.9 0,0 -457.9,-695.2 -524.4,-1090.2 0,0 633.4,564 1006.3,742.1 0,0 309.5,997.5 642.1,1331.6 0,0 -290.6,-635.7 -454.1,-1189.8 0,0 937.9,582.8 1574.5,607.2 478.6,18.3 500.5,3 667.4,-21.1 0,0 449.3,470.8 532.2,470.8 0,0 -317.9,-375.9 -363.3,-506.3 0,0 178.7,-46.6 327.4,-174.8 0,0 518.5,605.1 568.5,590 l -504.3,-624.5 420.6,-306.1 185.4,391 c 0,0 -68.5,-462.9 -118.3,-523.7 -1.3,-1.5 -1.7,-3 -2.7,-4.5 -302.6,262 -1110.2,792.9 -2393.4,429.8 0,0 -1114.7,-197.5 -1813.3,-2278.3 0,0 -432.6,-1685.9 -432.6,-1928.9 l 499.8,609.8 c 0,0 232.1,438.1 348.7,1349.5 l -83.2,-1093.6 431.5,449.1 c 0,0 467.1,402.1 617.8,652.1 0,0 191.2,1382.1 364.8,1420.1 0,0 -268.3,-976.9 -168.5,-1280.6 0,0 983.8,1873.1 1100.3,1827.4 0,0 -719.9,-1373.8 -736.7,-1541 0,0 504.6,276.3 790.2,446.3 -414.1,-285.6 -872.5,-693 -1261.8,-1262.5 -214.1,-313.3 -391.4,-760.2 -448.7,-1125.3 -57.2,-365 -46.3,-618.9 -29.7,-968.2 0,0 332.9,-959.8 399.4,-1081.3 0,0 272.5,1598.2 322.3,1598.2 0,0 -49.8,-698.7 -49.8,-805.1 0,0 365.9,1610 482.4,1549.2 0,0 -216.3,-592.3 -182.9,-956.9 0,0 1697,1989.9 2013,3235.4 0,0 -85.7,-643.4 -235.4,-947.1 0,0 696.5,443.7 809.9,783.8 0,0 51.1,-356.9 113.3,-584.2 27,-98.4 272.4,-426.8 388.8,-502.8 0,0 -44.1,714.4 104.8,1189.5 0,0 -100.9,-811.9 14.7,-998.1 0,0 833.2,-712.6 977.9,-849.8 0,0 202.5,203.7 418.8,1373.3 0,0 -14,-649.5 -280.3,-1484.9 0,0 693.8,-727.6 761.5,-1204.6 0,0 386.1,630.5 569.2,1268.4 0,0 162,-137.6 -486.8,-1413.5 0,0 585.5,-1338 585.3,-1480.5 0,0 348.5,891.1 415.2,1103.7 L 24459,36545 c 0,0 365.9,458 509,776.6 143.2,318.6 199.9,777.6 116.8,1278.8 0,0 -191.2,883.7 -1006.5,2433.1 0,0 -117,233.7 -372,501.4 130.8,-93.5 246.7,-176.7 279,-217.9 0,0 69.5,801.3 187.2,847.1 0,0 -186.1,-839.4 -53.2,-1036.8 0,0 325.3,-321.7 391.7,-488.8 0,0 332.8,1078.4 399.2,1078.4 l -325,-1186.1 c 0,0 110,-200.4 209.8,-291.6 0,0 215.1,414.5 32.3,-147.5 l 299.6,-454.2 582.2,1213.7 c 0,0 -383.1,-1108.8 -449.4,-1291.1 -66.6,-182.3 123.5,-598.1 123.5,-598.1 l 325.9,750 c 0,0 -66.3,-572.9 -116.4,-755.2 -49.8,-182.1 -155.4,-540.6 -155.4,-540.6 0,0 421.3,627.4 554.5,1098.3 0,0 163.1,1479 -450.5,2115.2 -448.2,464.6 -1510.3,1090.6 -2562.6,1240.7 l 330.3,3.9 87.4,255.2 14.7,-251.1 c 0,0 587.1,-63 680.3,-106.1 0,0 9.4,303.9 -40.4,607.6 l 203.5,-665 643,-352.1 c 0,0 -32.3,48.8 -118,743.3 l 271.5,-832.3 446.3,-272.9 -104.5,460.2 -64.5,426.3 356.3,-980.4 c 0,0 500.3,-220.3 496.8,-314.9 11.6,321.2 29.4,557 -116.1,887.3 111.1,-232 356.4,-742.2 439.5,-940.7"
         style="fill:#ffffff;fill-opacity:1;fill-rule:nonzero;stroke:none"
         transform="matrix(0.13333333,0,0,-0.13333333,0,7488.6667)" />
      <path
         id="path14"
         d="m 21220.7,38906.2 c 79.7,138.6 294.5,436 406.5,700 112.2,263.9 117.5,488.4 134.8,574.3 24.7,122 12.6,388.6 -37.2,586.1 l -5.1,-318.6 c 0,0 -168,98.8 -214.3,156 -25.7,31.8 -164.2,226.2 -164.2,226.2 0,0 -319.1,-384.4 -309.1,-473.7 0,0 -164.7,-340.7 -114.9,-431.9 0,0 99.9,243 166.5,227.8 0,0 -266.3,-577.1 -232.9,-698.7 0,0 -66.7,-227.8 -50,-349.3 l 282.9,501.3 -270.7,-1105.4 c 0,0 328,267.2 407.7,405.9"
         style="fill:#ffffff;fill-opacity:1;fill-rule:nonzero;stroke:none"
         transform="matrix(0.13333333,0,0,-0.13333333,0,7488.6667)" />
      <path
         id="path15"
         d="m 86478.1,45008.8 -1010.2,-2425.2 h 2020.5 z m 2273,-5406.3 -707.1,1692.6 h -3131.7 l -707.2,-1692.6 h -1414.3 l 3030.7,7200 h 1313.3 l 3005.4,-7200 h -1389.1"
         style="fill:#ffffff;fill-opacity:1;fill-rule:nonzero;stroke:none"
         transform="matrix(0.13333333,0,0,-0.13333333,0,7488.6667)" />
      <path
         id="path16"
         d="m 55740.4,39602.5 v 7200 h 5273.3 v -1288.4 h -3955 v -1339 h 2154.9 v -1313.6 h -2154.9 v -1970.6 h 4081.7 v -1288.4 h -5400"
         style="fill:#ffffff;fill-opacity:1;fill-rule:nonzero;stroke:none"
         transform="matrix(0.13333333,0,0,-0.13333333,0,7488.6667)" />
      <path
         id="path17"
         d="m 97700.2,39602.5 v 7200 h 5272.8 v -1288.4 h -3954.5 v -1339 h 2154.5 v -1313.6 h -2154.5 v -1970.6 h 4081.5 v -1288.4 h -5399.8"
         style="fill:#ffffff;fill-opacity:1;fill-rule:nonzero;stroke:none"
         transform="matrix(0.13333333,0,0,-0.13333333,0,7488.6667)" />
      <path
         id="path18"
         d="m 38024.8,39602.5 v 7200 h 1296 v -7200 h -1296"
         style="fill:#ffffff;fill-opacity:1;fill-rule:nonzero;stroke:none"
         transform="matrix(0.13333333,0,0,-0.13333333,0,7488.6667)" />
      <path
         id="path19"
         d="m 46286.4,39602.5 -3450.6,4951.6 v -4951.6 h -1268.6 v 7200 h 1268.6 L 46159.6,42053 v 4749.5 h 1243.2 v -7200 h -1116.4"
         style="fill:#ffffff;fill-opacity:1;fill-rule:nonzero;stroke:none"
         transform="matrix(0.13333333,0,0,-0.13333333,0,7488.6667)" />
      <path
         id="path20"
         d="m 66229.5,45514.1 h -2073.4 v -1793.7 h 2073.4 c 631.3,0 1035.2,353.7 1035.2,884.2 0,555.8 -403.9,909.5 -1035.2,909.5 z m 1035.2,-5911.6 -1161.5,2829.5 h -1947.1 v -2829.5 h -1287.7 v 7200 h 3335.9 c 530.2,0 858.5,-75.8 1237.2,-303.2 681.7,-378.9 1111,-1086.2 1111,-1894.7 0,-808.4 -429.3,-1515.8 -1161.5,-1920 l 1313,-3082.1 h -1439.3"
         style="fill:#ffffff;fill-opacity:1;fill-rule:nonzero;stroke:none"
         transform="matrix(0.13333333,0,0,-0.13333333,0,7488.6667)" />
      <path
         id="path21"
         d="m 72597.9,42833.4 c -320.4,88.5 -1126.3,281.9 -1398.2,441.4 -542,317.7 -956.3,837.3 -956.3,1607.7 0,1187.4 1014.9,1995.8 2486.5,1995.8 1065.6,0 1953.7,-353.7 2689.5,-1111.6 l -964.2,-858.9 c -456.7,480 -1040.3,707.3 -1725.3,707.3 -735.8,0 -1167.1,-277.9 -1167.1,-732.6 0,-404.2 253.7,-581 1141.7,-783.2 964.2,-202 1598.5,-404.2 2004.4,-606.3 634.3,-328.4 1040.3,-1010.5 1040.3,-1793.7 0,-732.6 -329.8,-1288.4 -1014.9,-1692.6 -507.4,-303.2 -1167.1,-480 -1826.8,-480 -1243.2,0 -2182,454.8 -2993.9,1389.5 l 1040.2,808.4 c 532.9,-631.6 1116.4,-909.5 1928.3,-909.5 913.4,0 1573.1,404.2 1573.1,934.7 0,675.9 -735.1,773.9 -1857.3,1083.6"
         style="fill:#ffffff;fill-opacity:1;fill-rule:nonzero;stroke:none"
         transform="matrix(0.13333333,0,0,-0.13333333,0,7488.6667)" />
      <path
         id="path22"
         d="m 52202.4,45539.4 v -5936.9 h -1261.7 v 5936.9 h -2069.1 v 1263.1 h 5400 v -1263.1 h -2069.2"
         style="fill:#ffffff;fill-opacity:1;fill-rule:nonzero;stroke:none"
         transform="matrix(0.13333333,0,0,-0.13333333,0,7488.6667)" />
      <path
         id="path23"
         d="m 80030.4,45539.4 v -5936.9 h -1261.7 v 5936.9 h -2069.1 v 1263.1 h 5400 v -1263.1 h -2069.2"
         style="fill:#ffffff;fill-opacity:1;fill-rule:nonzero;stroke:none"
         transform="matrix(0.13333333,0,0,-0.13333333,0,7488.6667)" />
      <path
         id="path24"
         d="m 94162.2,45539.4 v -5936.9 h -1261.7 v 5936.9 h -2069.2 v 1263.1 h 5400 v -1263.1 h -2069.1"
         style="fill:#ffffff;fill-opacity:1;fill-rule:nonzero;stroke:none"
         transform="matrix(0.13333333,0,0,-0.13333333,0,7488.6667)" />
      <path
         id="path25"
         d="m 29868.1,9002.5 v 7200 h 5273.3 v -1288.4 h -3955 v -1338.9 h 2155 v -1313.7 h -2155 v -1970.6 h 4081.7 V 9002.5 h -5400"
         style="fill:#ffffff;fill-opacity:1;fill-rule:nonzero;stroke:none"
         transform="matrix(0.13333333,0,0,-0.13333333,0,7488.6667)" />
      <path
         id="path26"
         d="m 44473.3,9002.5 v 7200 h 1296 v -7200 h -1296"
         style="fill:#ffffff;fill-opacity:1;fill-rule:nonzero;stroke:none"
         transform="matrix(0.13333333,0,0,-0.13333333,0,7488.6667)" />
      <path
         id="path27"
         d="M 50568.9,14939.4 V 9002.5 h -1261.7 v 5936.9 h -2069.1 v 1263.1 h 5400 v -1263.1 h -2069.2"
         style="fill:#ffffff;fill-opacity:1;fill-rule:nonzero;stroke:none"
         transform="matrix(0.13333333,0,0,-0.13333333,0,7488.6667)" />
      <path
         id="path28"
         d="m 41222.8,9002.5 -1624,2551.6 -1598.7,-2551.6 h -1522.4 l 2359.8,3789.5 -2156.8,3410.5 h 1547.8 l 1370.3,-2197.9 1370.2,2197.9 h 1547.9 L 40385.4,12792 42745.3,9002.5 h -1522.5"
         style="fill:#ffffff;fill-opacity:1;fill-rule:nonzero;stroke:none"
         transform="matrix(0.13333333,0,0,-0.13333333,0,7488.6667)" />
      <path
         id="path29"
         d="m 67890.9,7013.7 c -1332.1,0 -2664.1,454.7 -3615.5,1326.2 -266.4,227.5 -456.8,416.9 -837.3,871.6 l 1560.4,1174.8 c 761.1,-985.3 1750.6,-1402.1 3006.6,-1402.1 1332,0 2245.4,606.3 2245.4,1515.8 0,530.5 -342.5,1136.8 -837.3,1402.1 -304.4,151.6 -647,227.4 -1065.6,227.4 h -532.8 V 14062 h 456.7 c 837.3,0 1446.2,454.8 1446.2,1061.1 0,644.3 -761.2,1136.9 -1902.9,1136.9 -913.4,0 -1750.7,-379 -2397.7,-1061.1 l -1446.2,1326.3 c 1065.6,1099 2397.7,1667.4 3958.1,1667.4 2169.3,0 3767.7,-1288.4 3767.7,-3031.5 0,-720.1 -228.3,-1212.7 -875.3,-2046.4 1065.6,-947.3 1370.1,-1515.8 1370.1,-2538.9 0,-2008.4 -1864.9,-3562.1 -4300.6,-3562.1"
         style="fill:#ffffff;fill-opacity:1;fill-rule:nonzero;stroke:none"
         transform="matrix(0.13333333,0,0,-0.13333333,0,7488.6667)" />
      <path
         id="path30"
         d="m 78080.2,16260 c -1332.1,0 -2093.3,-379 -2093.3,-985.3 0,-644.2 761.2,-1023.2 2093.3,-1023.2 1332,0 2093.1,379 2093.1,1023.2 0,606.3 -761.1,985.3 -2093.1,985.3 z m 0,-3941.1 c -1560.4,0 -2435.8,-606.3 -2435.8,-1667.4 0,-530.5 304.5,-1061 799.3,-1364.2 304.4,-189.4 989.5,-303.1 1636.5,-303.1 913.4,0 1484.2,113.7 1864.8,454.7 380.6,341 570.9,757.9 570.9,1212.6 0,1061.1 -875.4,1667.4 -2435.7,1667.4 z m 0,-5305.3 c -2664.1,0 -4376.8,1440 -4376.8,3637.9 0,1023.2 418.7,1894.8 1217.9,2614.8 -685,795.7 -875.3,1250.5 -875.3,1970.5 0,1781.1 1636.5,2955.8 4034.2,2955.8 2435.7,0 4034.1,-1174.7 4034.1,-2955.8 0,-720 -190.3,-1174.8 -837.2,-1970.5 799.2,-720 1179.8,-1591.6 1179.8,-2614.8 0,-2576.8 -2131.3,-3637.9 -4376.7,-3637.9"
         style="fill:#ffffff;fill-opacity:1;fill-rule:nonzero;stroke:none"
         transform="matrix(0.13333333,0,0,-0.13333333,0,7488.6667)" />
    </g>
  </g>
</svg>
