<?xml version="1.0" standalone="no"?>
<svg width="8208px" height="3456px" viewBox="0 -2664 8208 3456 " xmlns="http://www.w3.org/2000/svg" xmlns:xlink="http://www.w3.org/1999/xlink">
<title>generated by pstoedit</title>
<!-- generated by pstoedit version:4.02 -->
<g xml:space='preserve'>
<clipPath id="clippath1"> 	<path d="
	M 0 -2664.5 
	L 0 792 
	L 8208.5 792 
	L 8208.5 -2664.5 
	Z 
	" style="clip-rule:nonzero"/>
</clipPath>
<g style="clip-path:url(#clippath1)"> 
<g fill="#ffffff" fill-rule="nonzero" stroke-width="0" stroke-linejoin="miter" stroke-linecap="butt" stroke-miterlimit="10" >
	<path d="
	M 8208.25 359.75 
	C 8208.25 598.34 8014.84 791.75 7776.25 791.75 
	L 432.25 791.75 
	C 193.664 791.75 0.25 598.34 0.25 359.75 
	L 0.25 -2232.25 
	C 0.25 -2470.84 193.664 -2664.25 432.25 -2664.25 
	L 7776.25 -2664.25 
	C 8014.84 -2664.25 8208.25 -2470.84 8208.25 -2232.25 
	Z 
	"/>
</g>
<g stroke="#7f7f7f" fill="none" stroke-width="0.5" stroke-linejoin="miter" stroke-linecap="butt" stroke-miterlimit="4" >
	<path d="
	M 8208.25 359.75 
	C 8208.25 598.34 8014.84 791.75 7776.25 791.75 
	L 432.25 791.75 
	C 193.664 791.75 0.25 598.34 0.25 359.75 
	L 0.25 -2232.25 
	C 0.25 -2470.84 193.664 -2664.25 432.25 -2664.25 
	L 7776.25 -2664.25 
	C 8014.84 -2664.25 8208.25 -2470.84 8208.25 -2232.25 
	Z 
	"/>
</g>
<g fill="#e8ad7f" fill-rule="nonzero" stroke-width="0" stroke-linejoin="miter" stroke-linecap="butt" stroke-miterlimit="4" >
	<path d="
	M 432.25 647.75 
	C 355.324 647.75 283 617.789 228.602 563.398 
	C 174.207 509 144.25 436.68 144.25 359.75 
	L 144.25 -2232.25 
	C 144.25 -2309.18 174.207 -2381.5 228.602 -2435.9 
	C 283 -2490.29 355.324 -2520.25 432.25 -2520.25 
	L 7776.25 -2520.25 
	C 7853.18 -2520.25 7925.5 -2490.29 7979.9 -2435.9 
	C 8034.29 -2381.5 8064.25 -2309.18 8064.25 -2232.25 
	L 8064.25 359.75 
	C 8064.25 436.68 8034.29 509 7979.9 563.398 
	C 7925.5 617.789 7853.18 647.75 7776.25 647.75 
	Z 
	"/>
</g>
<g fill="#ffffff" fill-rule="nonzero" stroke-width="0" stroke-linejoin="miter" stroke-linecap="butt" stroke-miterlimit="4" >
	<path d="
	M 3626.54 -468.88 
	L 3525.51 -226.36 
	L 3727.56 -226.36 
	Z 
	M 3853.83 71.75 
	L 3783.12 -97.52 
	L 3469.95 -97.52 
	L 3399.23 71.75 
	L 3257.8 71.75 
	L 3560.87 -648.25 
	L 3692.2 -648.25 
	L 3992.74 71.75 
	Z 
	"/>
</g>
<g fill="#ffffff" fill-rule="nonzero" stroke-width="0" stroke-linejoin="miter" stroke-linecap="butt" stroke-miterlimit="4" >
	<path d="
	M 4799.5 71.75 
	L 4799.5 -648.25 
	L 4929.1 -648.25 
	L 4929.1 71.75 
	Z 
	"/>
</g>
<g fill="#ffffff" fill-rule="nonzero" stroke-width="0" stroke-linejoin="miter" stroke-linecap="butt" stroke-miterlimit="4" >
	<path d="
	M 2858.21 -532.04 
	C 2749.34 -532.04 2683.51 -441.09 2683.51 -289.52 
	C 2683.51 -135.41 2749.34 -44.461 2858.21 -44.461 
	C 2994.95 -44.461 3027.87 -178.359 3027.87 -289.52 
	C 3027.87 -441.09 2967.09 -532.04 2858.21 -532.04 
	Z 
	M 2858.21 84.379 
	C 2645.53 84.379 2551.84 -107.621 2551.84 -289.52 
	C 2551.84 -519.41 2668.31 -660.88 2858.21 -660.88 
	C 3035.46 -660.88 3157 -511.83 3157 -292.04 
	C 3157 -67.199 3040.53 84.379 2858.21 84.379 
	Z 
	"/>
</g>
<g fill="#ffffff" fill-rule="nonzero" stroke-width="0" stroke-linejoin="miter" stroke-linecap="butt" stroke-miterlimit="4" >
	<path d="
	M 4340.38 -251.34 
	C 4308.33 -260.19 4227.75 -279.54 4200.55 -295.48 
	C 4146.35 -327.25 4104.93 -379.21 4104.93 -456.25 
	C 4104.93 -574.99 4206.41 -655.83 4353.57 -655.83 
	C 4460.13 -655.83 4548.94 -620.46 4622.52 -544.67 
	L 4526.1 -458.78 
	C 4480.43 -506.78 4422.08 -529.52 4353.57 -529.52 
	C 4279.99 -529.52 4236.86 -501.72 4236.86 -456.25 
	C 4236.86 -415.83 4262.23 -398.14 4351.04 -377.93 
	C 4447.45 -357.73 4510.88 -337.52 4551.47 -317.3 
	C 4614.91 -284.46 4655.5 -216.25 4655.5 -137.93 
	C 4655.5 -64.668 4622.52 -9.09003 4554.01 31.332 
	C 4503.27 61.641 4437.3 79.332 4371.33 79.332 
	C 4247.01 79.332 4153.13 33.859 4071.94 -59.621 
	L 4175.97 -140.461 
	C 4229.25 -77.301 4287.6 -49.512 4368.79 -49.512 
	C 4460.13 -49.512 4526.1 -89.93 4526.1 -142.98 
	C 4526.1 -210.57 4452.6 -220.37 4340.38 -251.34 
	Z 
	"/>
</g>
<g fill="#ffffff" fill-rule="nonzero" stroke-width="0" stroke-linejoin="miter" stroke-linecap="butt" stroke-miterlimit="4" >
	<path d="
	M 5341.54 -251.34 
	C 5309.49 -260.19 5228.91 -279.54 5201.72 -295.48 
	C 5147.52 -327.25 5106.09 -379.21 5106.09 -456.25 
	C 5106.09 -574.99 5207.58 -655.83 5354.73 -655.83 
	C 5461.29 -655.83 5550.1 -620.46 5623.68 -544.67 
	L 5527.26 -458.78 
	C 5481.59 -506.78 5423.24 -529.52 5354.73 -529.52 
	C 5281.15 -529.52 5238.02 -501.72 5238.02 -456.25 
	C 5238.02 -415.83 5263.4 -398.14 5352.2 -377.93 
	C 5448.61 -357.73 5512.04 -337.52 5552.64 -317.3 
	C 5616.07 -284.46 5656.66 -216.25 5656.66 -137.93 
	C 5656.66 -64.668 5623.68 -9.09003 5555.17 31.332 
	C 5504.43 61.641 5438.46 79.332 5372.5 79.332 
	C 5248.17 79.332 5154.29 33.859 5073.1 -59.621 
	L 5177.13 -140.461 
	C 5230.41 -77.301 5288.77 -49.512 5369.96 -49.512 
	C 5461.29 -49.512 5527.26 -89.93 5527.26 -142.98 
	C 5527.26 -210.57 5453.76 -220.37 5341.54 -251.34 
	Z 
	"/>
</g>
<g fill="#ffffff" fill-rule="nonzero" stroke-width="0" stroke-linejoin="miter" stroke-linecap="butt" stroke-miterlimit="4" >
	<path d="
	M 5632.46 -1764.88 
	L 5531.43 -1522.36 
	L 5733.47 -1522.36 
	Z 
	M 5859.76 -1224.25 
	L 5789.04 -1393.52 
	L 5475.87 -1393.52 
	L 5405.15 -1224.25 
	L 5263.72 -1224.25 
	L 5566.79 -1944.25 
	L 5698.12 -1944.25 
	L 5998.66 -1224.25 
	Z 
	"/>
</g>
<g fill="#ffffff" fill-rule="nonzero" stroke-width="0" stroke-linejoin="miter" stroke-linecap="butt" stroke-miterlimit="4" >
	<path d="
	M 2635 -1224.25 
	L 2635 -1944.25 
	L 3162.32 -1944.25 
	L 3162.32 -1815.41 
	L 2766.83 -1815.41 
	L 2766.83 -1681.52 
	L 2982.32 -1681.52 
	L 2982.32 -1550.15 
	L 2766.83 -1550.15 
	L 2766.83 -1353.09 
	L 3175 -1353.09 
	L 3175 -1224.25 
	Z 
	"/>
</g>
<g fill="#ffffff" fill-rule="nonzero" stroke-width="0" stroke-linejoin="miter" stroke-linecap="butt" stroke-miterlimit="4" >
	<path d="
	M 6718.66 -1224.25 
	L 6718.66 -1944.25 
	L 7245.99 -1944.25 
	L 7245.99 -1815.41 
	L 6850.49 -1815.41 
	L 6850.49 -1681.52 
	L 7065.98 -1681.52 
	L 7065.98 -1550.15 
	L 6850.49 -1550.15 
	L 6850.49 -1353.09 
	L 7258.66 -1353.09 
	L 7258.66 -1224.25 
	Z 
	"/>
</g>
<g fill="#ffffff" fill-rule="nonzero" stroke-width="0" stroke-linejoin="miter" stroke-linecap="butt" stroke-miterlimit="4" >
	<path d="
	M 949.84 -1224.25 
	L 949.84 -1944.25 
	L 1079.44 -1944.25 
	L 1079.44 -1224.25 
	Z 
	"/>
</g>
<g fill="#ffffff" fill-rule="nonzero" stroke-width="0" stroke-linejoin="miter" stroke-linecap="butt" stroke-miterlimit="4" >
	<path d="
	M 1738.56 -1224.25 
	L 1393.5 -1719.41 
	L 1393.5 -1224.25 
	L 1266.64 -1224.25 
	L 1266.64 -1944.25 
	L 1393.5 -1944.25 
	L 1725.87 -1469.3 
	L 1725.87 -1944.25 
	L 1850.2 -1944.25 
	L 1850.2 -1224.25 
	Z 
	"/>
</g>
<g fill="#ffffff" fill-rule="nonzero" stroke-width="0" stroke-linejoin="miter" stroke-linecap="butt" stroke-miterlimit="4" >
	<path d="
	M 3655.11 -1815.41 
	L 3447.77 -1815.41 
	L 3447.77 -1636.04 
	L 3655.11 -1636.04 
	C 3718.24 -1636.04 3758.63 -1671.41 3758.63 -1724.46 
	C 3758.63 -1780.04 3718.24 -1815.41 3655.11 -1815.41 
	Z 
	M 3758.63 -1224.25 
	L 3642.48 -1507.2 
	L 3447.77 -1507.2 
	L 3447.77 -1224.25 
	L 3319 -1224.25 
	L 3319 -1944.25 
	L 3652.59 -1944.25 
	C 3705.61 -1944.25 3738.44 -1936.67 3776.31 -1913.94 
	C 3844.48 -1876.04 3887.41 -1805.3 3887.41 -1724.46 
	C 3887.41 -1643.62 3844.48 -1572.88 3771.26 -1532.46 
	L 3902.56 -1224.25 
	Z 
	"/>
</g>
<g fill="#ffffff" fill-rule="nonzero" stroke-width="0" stroke-linejoin="miter" stroke-linecap="butt" stroke-miterlimit="4" >
	<path d="
	M 4271.79 -1547.35 
	C 4239.75 -1556.19 4159.16 -1575.54 4131.97 -1591.48 
	C 4077.77 -1623.25 4036.34 -1675.21 4036.34 -1752.25 
	C 4036.34 -1870.99 4137.83 -1951.83 4284.99 -1951.83 
	C 4391.55 -1951.83 4480.36 -1916.46 4553.94 -1840.68 
	L 4457.52 -1754.78 
	C 4411.85 -1802.78 4353.49 -1825.52 4284.99 -1825.52 
	C 4211.41 -1825.52 4168.28 -1797.73 4168.28 -1752.25 
	C 4168.28 -1711.83 4193.65 -1694.14 4282.45 -1673.94 
	C 4378.87 -1653.73 4442.3 -1633.52 4482.89 -1613.3 
	C 4546.32 -1580.46 4586.92 -1512.25 4586.92 -1433.94 
	C 4586.92 -1360.67 4553.94 -1305.09 4485.43 -1264.68 
	C 4434.69 -1234.36 4368.72 -1216.67 4302.75 -1216.67 
	C 4178.43 -1216.67 4084.55 -1262.15 4003.36 -1355.62 
	L 4107.38 -1436.46 
	C 4160.67 -1373.3 4219.02 -1345.51 4300.21 -1345.51 
	C 4391.55 -1345.51 4457.52 -1385.94 4457.52 -1438.99 
	C 4457.52 -1506.57 4384.01 -1516.37 4271.79 -1547.35 
	Z 
	"/>
</g>
<g fill="#ffffff" fill-rule="nonzero" stroke-width="0" stroke-linejoin="miter" stroke-linecap="butt" stroke-miterlimit="4" >
	<path d="
	M 2305.68 -1817.94 
	L 2305.68 -1224.25 
	L 2179.51 -1224.25 
	L 2179.51 -1817.94 
	L 1972.6 -1817.94 
	L 1972.6 -1944.25 
	L 2512.6 -1944.25 
	L 2512.6 -1817.94 
	Z 
	"/>
</g>
<g fill="#ffffff" fill-rule="nonzero" stroke-width="0" stroke-linejoin="miter" stroke-linecap="butt" stroke-miterlimit="4" >
	<path d="
	M 4999.2 -1817.94 
	L 4999.2 -1224.25 
	L 4873.03 -1224.25 
	L 4873.03 -1817.94 
	L 4666.12 -1817.94 
	L 4666.12 -1944.25 
	L 5206.12 -1944.25 
	L 5206.12 -1817.94 
	Z 
	"/>
</g>
<g fill="#ffffff" fill-rule="nonzero" stroke-width="0" stroke-linejoin="miter" stroke-linecap="butt" stroke-miterlimit="4" >
	<path d="
	M 6389.34 -1817.94 
	L 6389.34 -1224.25 
	L 6263.17 -1224.25 
	L 6263.17 -1817.94 
	L 6056.26 -1817.94 
	L 6056.26 -1944.25 
	L 6596.26 -1944.25 
	L 6596.26 -1817.94 
	Z 
	"/>
</g>
</g >
</g>
</svg>
