<?xml version="1.0" standalone="no"?>
<svg width="2160px" height="2160px" viewBox="0 -1368 2160 2160 " xmlns="http://www.w3.org/2000/svg" xmlns:xlink="http://www.w3.org/1999/xlink">
<title>generated by pstoedit</title>
<!-- generated by pstoedit version:4.02 -->
<g xml:space='preserve'>
<clipPath id="clippath1"> 	<path d="
	M 0 -1368.5 
	L 0 792 
	L 2160.5 792 
	L 2160.5 -1368.5 
	Z 
	" style="clip-rule:nonzero"/>
</clipPath>
<g style="clip-path:url(#clippath1)"> 
<g fill="#ffffff" fill-rule="nonzero" stroke-width="0" stroke-linejoin="miter" stroke-linecap="butt" stroke-miterlimit="10" >
	<path d="
	M 2160.25 656.75 
	C 2160.25 731.309 2099.81 791.75 2025.25 791.75 
	L 135.25 791.75 
	C 60.6914 791.75 0.25 731.309 0.25 656.75 
	L 0.25 -1233.25 
	C 0.25 -1307.81 60.6914 -1368.25 135.25 -1368.25 
	L 2025.25 -1368.25 
	C 2099.81 -1368.25 2160.25 -1307.81 2160.25 -1233.25 
	Z 
	"/>
</g>
<g stroke="#7f7f7f" fill="none" stroke-width="0.5" stroke-linejoin="miter" stroke-linecap="butt" stroke-miterlimit="4" >
	<path d="
	M 2160.25 656.75 
	C 2160.25 731.309 2099.81 791.75 2025.25 791.75 
	L 135.25 791.75 
	C 60.6914 791.75 0.25 731.309 0.25 656.75 
	L 0.25 -1233.25 
	C 0.25 -1307.81 60.6914 -1368.25 135.25 -1368.25 
	L 2025.25 -1368.25 
	C 2099.81 -1368.25 2160.25 -1307.81 2160.25 -1233.25 
	Z 
	"/>
</g>
<g fill="#e8ad7f" fill-rule="nonzero" stroke-width="0" stroke-linejoin="miter" stroke-linecap="butt" stroke-miterlimit="4" >
	<path d="
	M 135.25 737.75 
	C 90.5859 737.75 54.25 701.41 54.25 656.75 
	L 54.25 -1233.25 
	C 54.25 -1277.91 90.5859 -1314.25 135.25 -1314.25 
	L 2025.25 -1314.25 
	C 2069.91 -1314.25 2106.25 -1277.91 2106.25 -1233.25 
	L 2106.25 656.75 
	C 2106.25 701.41 2069.91 737.75 2025.25 737.75 
	Z 
	"/>
</g>
<g fill="#ffffff" fill-rule="nonzero" stroke-width="0" stroke-linejoin="miter" stroke-linecap="butt" stroke-miterlimit="4" >
	<path d="
	M 1655.2 -30.191 
	C 1641.03 16.82 1598.07 47.121 1540.94 47.121 
	C 1474.66 47.121 1433.53 19.84 1412.96 -39.281 
	C 1394.68 -93.852 1385.54 -182.52 1385.54 -287.11 
	C 1385.54 -346.23 1392.4 -432.63 1401.54 -482.65 
	C 1419.82 -582.69 1458.67 -621.34 1536.37 -621.34 
	C 1609.5 -621.34 1657.48 -575.87 1664.34 -496.29 
	L 1579.79 -496.29 
	C 1577.5 -523.57 1561.5 -537.22 1538.65 -537.22 
	C 1508.95 -537.22 1492.95 -516.75 1483.8 -473.55 
	C 1472.38 -421.26 1470.09 -373.51 1470.09 -287.11 
	C 1470.09 -196.16 1472.38 -157.512 1483.8 -102.941 
	C 1492.95 -59.738 1508.95 -37.012 1536.37 -37.012 
	C 1566.07 -37.012 1579.79 -59.738 1579.79 -116.59 
	L 1664.34 -116.59 
	C 1664.34 -66.559 1662.05 -52.922 1655.2 -30.191 
	Z 
	"/>
</g>
<g fill="#ffffff" fill-rule="nonzero" stroke-width="0" stroke-linejoin="miter" stroke-linecap="butt" stroke-miterlimit="4" >
	<path d="
	M 1762.84 35.75 
	L 1762.84 -612.25 
	L 2000.2 -612.25 
	L 2000.2 -528.12 
	L 1844.22 -528.12 
	L 1844.22 -362.14 
	L 1948.21 -362.14 
	L 1948.21 -275.74 
	L 1844.22 -275.74 
	L 1844.22 -48.371 
	L 2009.24 -48.371 
	L 2009.24 35.75 
	Z 
	"/>
</g>
<g fill="#ffffff" fill-rule="nonzero" stroke-width="0" stroke-linejoin="miter" stroke-linecap="butt" stroke-miterlimit="4" >
	<path d="
	M 1202.8 35.75 
	L 1202.8 -612.25 
	L 1287.04 -612.25 
	L 1287.04 35.75 
	Z 
	"/>
</g>
<g fill="#ffffff" fill-rule="nonzero" stroke-width="0" stroke-linejoin="miter" stroke-linecap="butt" stroke-miterlimit="4" >
	<path d="
	M 883.824 35.75 
	L 883.824 -612.25 
	L 965.203 -612.25 
	L 965.203 -39.281 
	L 1130.23 -39.281 
	L 1130.23 35.75 
	Z 
	"/>
</g>
<g fill="#ffffff" fill-rule="nonzero" stroke-width="0" stroke-linejoin="miter" stroke-linecap="butt" stroke-miterlimit="4" >
	<path d="
	M 636.254 -537.22 
	C 561.219 -537.22 571.438 -334.86 571.438 -289.38 
	C 571.438 -246.19 561.219 -37.012 636.254 -37.012 
	C 709.012 -37.012 698.793 -246.19 698.793 -289.38 
	C 698.793 -341.68 697.645 -537.22 636.254 -537.22 
	Z 
	M 636.254 47.121 
	C 474.816 47.121 487.309 -182.52 487.309 -289.38 
	C 487.309 -400.8 477.09 -621.34 636.254 -621.34 
	C 795.418 -621.34 785.191 -398.52 785.191 -289.38 
	C 785.191 -182.52 795.418 47.121 636.254 47.121 
	Z 
	"/>
</g>
<g fill="#ffffff" fill-rule="nonzero" stroke-width="0" stroke-linejoin="miter" stroke-linecap="butt" stroke-miterlimit="4" >
	<path d="
	M 277.578 -528.12 
	L 233.188 -528.12 
	L 233.188 -330.31 
	L 277.578 -330.31 
	C 327.648 -330.31 345.855 -355.32 345.855 -423.53 
	C 345.855 -496.29 323.094 -528.12 277.578 -528.12 
	Z 
	M 277.578 -246.19 
	L 233.188 -246.19 
	L 233.188 35.75 
	L 151.258 35.75 
	L 151.258 -612.25 
	L 277.578 -612.25 
	C 313.992 -612.25 348.129 -603.15 368.609 -584.97 
	C 405.023 -555.41 430.063 -494.02 430.063 -423.53 
	C 430.063 -316.67 368.609 -246.19 277.578 -246.19 
	Z 
	"/>
</g>
</g >
</g>
</svg>
