<?xml version="1.0" encoding="UTF-8" standalone="no"?>
<!-- Created with Inkscape (http://www.inkscape.org/) -->

<svg
   version="1.1"
   id="svg1"
   width="2880.6667"
   height="2880.6667"
   viewBox="0 0 2880.6667 2880.6667"
   sodipodi:docname="tmpv9je6402.pdf"
   xmlns:inkscape="http://www.inkscape.org/namespaces/inkscape"
   xmlns:sodipodi="http://sodipodi.sourceforge.net/DTD/sodipodi-0.dtd"
   xmlns="http://www.w3.org/2000/svg"
   xmlns:svg="http://www.w3.org/2000/svg">
  <defs
     id="defs1" />
  <sodipodi:namedview
     id="namedview1"
     pagecolor="#ffffff"
     bordercolor="#000000"
     borderopacity="0.25"
     inkscape:showpageshadow="2"
     inkscape:pageopacity="0.0"
     inkscape:pagecheckerboard="0"
     inkscape:deskcolor="#d1d1d1">
    <inkscape:page
       x="0"
       y="0"
       inkscape:label="1"
       id="page1"
       width="2880.6667"
       height="2880.6667"
       margin="0"
       bleed="0" />
  </sodipodi:namedview>
  <g
     id="g1"
     inkscape:groupmode="layer"
     inkscape:label="1">
    <g
       id="group-R5">
      <path
         id="path2"
         d="m 21602.5,1352.5 c 0,-745.602 -604.4,-1350 -1350,-1350 H 1352.5 C 606.914,2.5 2.5,606.898 2.5,1352.5 v 18900 c 0,745.6 604.414,1350 1350,1350 h 18900 c 745.6,0 1350,-604.4 1350,-1350 v -18900"
         style="fill:#ffffff;fill-opacity:1;fill-rule:nonzero;stroke:none"
         transform="matrix(0.13333333,0,0,-0.13333333,0,2880.6667)" />
      <path
         id="path3"
         d="m 21602.5,1352.5 c 0,-745.602 -604.4,-1350 -1350,-1350 H 1352.5 C 606.914,2.5 2.5,606.898 2.5,1352.5 v 18900 c 0,745.6 604.414,1350 1350,1350 h 18900 c 745.6,0 1350,-604.4 1350,-1350 z"
         style="fill:none;stroke:#231f20;stroke-width:5;stroke-linecap:butt;stroke-linejoin:miter;stroke-miterlimit:4;stroke-dasharray:none;stroke-opacity:1"
         transform="matrix(0.13333333,0,0,-0.13333333,0,2880.6667)" />
      <path
         id="path4"
         d="m 1352.5,542.5 c -446.637,0 -810,363.402 -810,810 v 18900 c 0,446.6 363.363,810 810,810 h 18900 c 446.6,0 810,-363.4 810,-810 v -18900 c 0,-446.598 -363.4,-810 -810,-810 h -18900"
         style="fill:#15569c;fill-opacity:1;fill-rule:nonzero;stroke:none"
         transform="matrix(0.13333333,0,0,-0.13333333,0,2880.6667)" />
      <path
         id="path5"
         d="m 11626.5,14800.4 v -2766.3 h 1582.4 v -1440 H 11626.5 V 5402.5 h -1356.3 v 10800 h 4106.6 v -1402.1 h -2750.3"
         style="fill:#ffffff;fill-opacity:1;fill-rule:nonzero;stroke:none"
         transform="matrix(0.13333333,0,0,-0.13333333,0,2880.6667)" />
      <path
         id="path6"
         d="m 1843.47,5402.5 v 10800 h 1404 v -10800 h -1404"
         style="fill:#ffffff;fill-opacity:1;fill-rule:nonzero;stroke:none"
         transform="matrix(0.13333333,0,0,-0.13333333,0,2880.6667)" />
      <path
         id="path7"
         d="M 7911.06,5402.5 5795.48,11806.7 V 5402.5 H 4435.49 v 10800 h 1359.99 l 1926.66,-5381.1 v 5381.1 h 1360.02 v -10800 h -1171.1"
         style="fill:#ffffff;fill-opacity:1;fill-rule:nonzero;stroke:none"
         transform="matrix(0.13333333,0,0,-0.13333333,0,2880.6667)" />
      <path
         id="path8"
         d="m 17457,14952 c -1250.6,0 -1080.3,-3372.7 -1080.3,-4130.6 0,-719.9 -170.3,-4206.2 1080.3,-4206.2 1212.6,0 1042.3,3486.3 1042.3,4206.2 0,871.6 -19.2,4130.6 -1042.3,4130.6 z m 0,-9739 c -2690.6,0 -2482.4,3827.4 -2482.4,5608.4 0,1856.9 -170.3,5532.7 2482.4,5532.7 2652.7,0 2482.3,-3713.7 2482.3,-5532.7 0,-1781 170.4,-5608.4 -2482.3,-5608.4"
         style="fill:#ffffff;fill-opacity:1;fill-rule:nonzero;stroke:none"
         transform="matrix(0.13333333,0,0,-0.13333333,0,2880.6667)" />
    </g>
  </g>
</svg>
