<?xml version="1.0" encoding="UTF-8" standalone="no"?>
<!-- Created with Inkscape (http://www.inkscape.org/) -->

<svg
   version="1.1"
   id="svg1"
   width="2880.6667"
   height="2880.6667"
   viewBox="0 0 2880.6667 2880.6667"
   sodipodi:docname="tmpmouc2jqe.pdf"
   xmlns:inkscape="http://www.inkscape.org/namespaces/inkscape"
   xmlns:sodipodi="http://sodipodi.sourceforge.net/DTD/sodipodi-0.dtd"
   xmlns="http://www.w3.org/2000/svg"
   xmlns:svg="http://www.w3.org/2000/svg">
  <defs
     id="defs1" />
  <sodipodi:namedview
     id="namedview1"
     pagecolor="#ffffff"
     bordercolor="#000000"
     borderopacity="0.25"
     inkscape:showpageshadow="2"
     inkscape:pageopacity="0.0"
     inkscape:pagecheckerboard="0"
     inkscape:deskcolor="#d1d1d1">
    <inkscape:page
       x="0"
       y="0"
       inkscape:label="1"
       id="page1"
       width="2880.6667"
       height="2880.6667"
       margin="0"
       bleed="0" />
  </sodipodi:namedview>
  <g
     id="g1"
     inkscape:groupmode="layer"
     inkscape:label="1">
    <g
       id="group-R5">
      <path
         id="path2"
         d="m 21602.5,1352.5 c 0,-745.602 -604.4,-1350 -1350,-1350 H 1352.51 C 606.914,2.5 2.5,606.898 2.5,1352.5 v 18900 c 0,745.6 604.414,1350 1350.01,1350 H 20252.5 c 745.6,0 1350,-604.4 1350,-1350 v -18900"
         style="fill:#ffffff;fill-opacity:1;fill-rule:nonzero;stroke:none"
         transform="matrix(0.13333333,0,0,-0.13333333,0,2880.6667)" />
      <path
         id="path3"
         d="m 21602.5,1352.5 c 0,-745.602 -604.4,-1350 -1350,-1350 H 1352.51 C 606.914,2.5 2.5,606.898 2.5,1352.5 v 18900 c 0,745.6 604.414,1350 1350.01,1350 H 20252.5 c 745.6,0 1350,-604.4 1350,-1350 z"
         style="fill:none;stroke:#231f20;stroke-width:5;stroke-linecap:butt;stroke-linejoin:miter;stroke-miterlimit:4;stroke-dasharray:none;stroke-opacity:1"
         transform="matrix(0.13333333,0,0,-0.13333333,0,2880.6667)" />
      <path
         id="path4"
         d="M 20252.5,21062.5 H 1352.51 c -446.643,0 -810.01,-363.4 -810.01,-810 v -18900 c 0,-446.598 363.367,-810 810.01,-810 H 20252.5 c 446.6,0 810,363.402 810,810 v 18900 c 0,446.6 -363.4,810 -810,810"
         style="fill:#15569c;fill-opacity:1;fill-rule:nonzero;stroke:none"
         transform="matrix(0.13333333,0,0,-0.13333333,0,2880.6667)" />
      <path
         id="path5"
         d="m 17122.7,2203 c 0,-231.8 -168,-400.5 -378,-400.5 H 4881.31 c -210.04,0 -399.04,168.7 -399.04,400.5 v 800.7 c 0,147.6 126,400.7 399.04,400.7 H 16723.8 c 251.9,0 398.9,-253.1 398.9,-400.7 V 2203"
         style="fill:#ffffff;fill-opacity:1;fill-rule:nonzero;stroke:none"
         transform="matrix(0.13333333,0,0,-0.13333333,0,2880.6667)" />
      <path
         id="path6"
         d="m 15411.3,10844.6 c 0,-231.8 -189,-421.5 -399,-421.5 h -1490.7 c -189.1,0 -420.1,189.7 -420.1,421.5 V 12320 c 0,168.6 147.1,421.6 420.1,421.6 h 1469.6 c 273.2,0 420.1,-253 420.1,-421.6 v -1475.4"
         style="fill:#ffffff;fill-opacity:1;fill-rule:nonzero;stroke:none"
         transform="matrix(0.13333333,0,0,-0.13333333,0,2880.6667)" />
      <path
         id="path7"
         d="m 11946.6,10844.6 c 0,-231.8 -189,-421.5 -399,-421.5 h -1490.7 c -209.99,0 -420.02,189.7 -420.02,421.5 V 12320 c 0,168.6 146.98,421.6 420.02,421.6 h 1469.7 c 252,0 420,-253 420,-421.6 v -1475.4"
         style="fill:#ffffff;fill-opacity:1;fill-rule:nonzero;stroke:none"
         transform="matrix(0.13333333,0,0,-0.13333333,0,2880.6667)" />
      <path
         id="path8"
         d="m 8481.99,10844.6 c 0,-231.8 -189.06,-421.5 -398.63,-421.5 H 6592.24 c -210.04,0 -419.59,189.7 -419.59,421.5 V 12320 c 0,168.6 146.55,421.6 419.59,421.6 h 1470.15 c 272.56,0 419.6,-253 419.6,-421.6 v -1475.4"
         style="fill:#ffffff;fill-opacity:1;fill-rule:nonzero;stroke:none"
         transform="matrix(0.13333333,0,0,-0.13333333,0,2880.6667)" />
      <path
         id="path9"
         d="m 5017.76,10844.6 c 0,-231.8 -168.02,-421.5 -399.04,-421.5 H 3149.04 c -210.03,0 -420.01,189.7 -420.01,421.5 V 12320 c 0,168.6 146.98,421.6 420.01,421.6 h 1469.68 c 273.04,0 399.04,-253 399.04,-421.6 v -1475.4"
         style="fill:#ffffff;fill-opacity:1;fill-rule:nonzero;stroke:none"
         transform="matrix(0.13333333,0,0,-0.13333333,0,2880.6667)" />
      <path
         id="path10"
         d="m 18876,10844.6 c 0,-231.8 -189.1,-421.5 -399.1,-421.5 h -1490.7 c -210,0 -420,189.7 -420,421.5 V 12320 c 0,168.6 147,421.6 420,421.6 h 1469.7 c 273.1,0 420.1,-253 420.1,-421.6 v -1475.4"
         style="fill:#ffffff;fill-opacity:1;fill-rule:nonzero;stroke:none"
         transform="matrix(0.13333333,0,0,-0.13333333,0,2880.6667)" />
      <path
         id="path11"
         d="m 13689.5,7732.2 c 0,-231.8 -189,-421.5 -399,-421.5 h -1490.7 c -189.1,0 -420.1,189.7 -420.1,421.5 v 1475.4 c 0,168.6 147.1,421.6 420.1,421.6 h 1469.6 c 273.2,0 420.1,-253 420.1,-421.6 V 7732.2"
         style="fill:#ffffff;fill-opacity:1;fill-rule:nonzero;stroke:none"
         transform="matrix(0.13333333,0,0,-0.13333333,0,2880.6667)" />
      <path
         id="path12"
         d="m 10224.8,7732.2 c 0,-231.8 -189,-421.5 -398.96,-421.5 H 8335.09 c -209.98,0 -420.02,189.7 -420.02,421.5 v 1475.4 c 0,168.6 146.99,421.6 420.02,421.6 h 1469.72 c 251.99,0 419.99,-253 419.99,-421.6 V 7732.2"
         style="fill:#ffffff;fill-opacity:1;fill-rule:nonzero;stroke:none"
         transform="matrix(0.13333333,0,0,-0.13333333,0,2880.6667)" />
      <path
         id="path13"
         d="m 6760.18,7732.2 c 0,-231.8 -189.05,-421.5 -398.62,-421.5 H 4870.43 c -210.03,0 -419.59,189.7 -419.59,421.5 v 1475.4 c 0,168.6 146.56,421.6 419.59,421.6 h 1470.16 c 272.56,0 419.59,-253 419.59,-421.6 V 7732.2"
         style="fill:#ffffff;fill-opacity:1;fill-rule:nonzero;stroke:none"
         transform="matrix(0.13333333,0,0,-0.13333333,0,2880.6667)" />
      <path
         id="path14"
         d="m 17154.2,7732.2 c 0,-231.8 -189.1,-421.5 -399.1,-421.5 h -1490.7 c -210,0 -420,189.7 -420,421.5 v 1475.4 c 0,168.6 147,421.6 420,421.6 h 1469.7 c 273.1,0 420.1,-253 420.1,-421.6 V 7732.2"
         style="fill:#ffffff;fill-opacity:1;fill-rule:nonzero;stroke:none"
         transform="matrix(0.13333333,0,0,-0.13333333,0,2880.6667)" />
      <path
         id="path15"
         d="m 15411.3,4619.8 c 0,-231.9 -189,-421.5 -399,-421.5 h -1490.7 c -189.1,0 -420.1,189.6 -420.1,421.5 v 1475.3 c 0,168.7 147.1,421.7 420.1,421.7 h 1469.6 c 273.2,0 420.1,-253 420.1,-421.7 V 4619.8"
         style="fill:#ffffff;fill-opacity:1;fill-rule:nonzero;stroke:none"
         transform="matrix(0.13333333,0,0,-0.13333333,0,2880.6667)" />
      <path
         id="path16"
         d="m 11946.6,4619.8 c 0,-231.9 -189,-421.5 -399,-421.5 h -1490.7 c -209.99,0 -420.02,189.6 -420.02,421.5 v 1475.3 c 0,168.7 146.98,421.7 420.02,421.7 h 1469.7 c 252,0 420,-253 420,-421.7 V 4619.8"
         style="fill:#ffffff;fill-opacity:1;fill-rule:nonzero;stroke:none"
         transform="matrix(0.13333333,0,0,-0.13333333,0,2880.6667)" />
      <path
         id="path17"
         d="m 8481.99,4619.8 c 0,-231.9 -189.06,-421.5 -398.63,-421.5 H 6592.24 c -210.04,0 -419.59,189.6 -419.59,421.5 v 1475.3 c 0,168.7 146.55,421.7 419.59,421.7 h 1470.15 c 272.56,0 419.6,-253 419.6,-421.7 V 4619.8"
         style="fill:#ffffff;fill-opacity:1;fill-rule:nonzero;stroke:none"
         transform="matrix(0.13333333,0,0,-0.13333333,0,2880.6667)" />
      <path
         id="path18"
         d="m 5017.76,4619.8 c 0,-231.9 -168.02,-421.5 -399.04,-421.5 H 3149.04 c -210.03,0 -420.01,189.6 -420.01,421.5 v 1475.3 c 0,168.7 146.98,421.7 420.01,421.7 h 1469.68 c 273.04,0 399.04,-253 399.04,-421.7 V 4619.8"
         style="fill:#ffffff;fill-opacity:1;fill-rule:nonzero;stroke:none"
         transform="matrix(0.13333333,0,0,-0.13333333,0,2880.6667)" />
      <path
         id="path19"
         d="m 18876,4619.8 c 0,-231.9 -189.1,-421.5 -399.1,-421.5 h -1490.7 c -210,0 -420,189.6 -420,421.5 v 1475.3 c 0,168.7 147,421.7 420,421.7 h 1469.7 c 273.1,0 420.1,-253 420.1,-421.7 V 4619.8"
         style="fill:#ffffff;fill-opacity:1;fill-rule:nonzero;stroke:none"
         transform="matrix(0.13333333,0,0,-0.13333333,0,2880.6667)" />
      <path
         id="path20"
         d="m 19577.5,15741.9 c -15.9,319.3 -52.7,632.6 -133.7,942.7 -93.6,356.9 -234,693.6 -430.4,1006.2 -161.3,257.4 -348.5,488.9 -557.4,707.8 l -3339.5,829.1 c -1262,312.5 -2551.5,508.1 -3851,561.6 -507.3,20 -1015.4,16.7 -1523.51,-5.9 -664.41,-28.4 -1327.96,-81.1 -1988.17,-163.8 -213.11,-26.7 -424.56,-67.7 -631.81,-123.7 L 2954.3,18374.4 c -168.8,-258.3 -323.39,-523.1 -452.95,-803.9 -150.42,-326 -268.24,-666.9 -348.46,-1017.9 -66.87,-292.6 -105.33,-585.9 -125.37,-884.2 l 4680.84,1072.2 c 42.58,190.5 116.14,372.7 239.82,526.5 101.15,125.3 333.45,351 514.8,351 h 6240.22 c 335.2,0 620.1,-203.9 814.9,-464.7 118.6,-159.6 192.2,-340.1 233.2,-534 l 4826.2,-877.5"
         style="fill:#ffffff;fill-opacity:1;fill-rule:evenodd;stroke:none"
         transform="matrix(0.13333333,0,0,-0.13333333,0,2880.6667)" />
      <path
         id="path21"
         d="m 2269.22,14458.7 c 29.17,-91.7 96.68,-156.7 177.54,-207.6 60.84,-39.2 126.68,-59.2 199.19,-58.3 60.04,1.6 123.37,9.1 181.72,23.3 l 3938.24,948.5 c 117.5,28.4 172.53,30 243.38,145 44.19,70.9 73.32,161.7 49.17,243.4 l -219.24,752.7 -4739.22,-1069.4 169.22,-777.6"
         style="fill:#ffffff;fill-opacity:1;fill-rule:evenodd;stroke:none"
         transform="matrix(0.13333333,0,0,-0.13333333,0,2880.6667)" />
      <path
         id="path22"
         d="m 14748.2,16159 -145.2,-682.2 c -5.1,-40.1 -9.2,-80.2 -12.6,-120.3 -5.8,-58.4 1.7,-118.5 35.1,-168.7 60.1,-90.2 141.1,-128.5 243.8,-149.4 l 3995,-827.6 c 61.8,-13.4 122.8,-16.7 182.1,6.7 57.6,22.5 115.3,54.3 162.9,94.3 70.9,59.3 126.9,147.9 141.9,238.9 l 121.1,731.5 -4724.1,876.8"
         style="fill:#ffffff;fill-opacity:1;fill-rule:evenodd;stroke:none"
         transform="matrix(0.13333333,0,0,-0.13333333,0,2880.6667)" />
    </g>
  </g>
</svg>
