<?xml version="1.0" standalone="no"?>
<svg width="2160px" height="2160px" viewBox="0 -1368 2160 2160 " xmlns="http://www.w3.org/2000/svg" xmlns:xlink="http://www.w3.org/1999/xlink">
<title>generated by pstoedit</title>
<!-- generated by pstoedit version:4.02 -->
<g xml:space='preserve'>
<clipPath id="clippath1"> 	<path d="
	M 0 -1368.5 
	L 0 792 
	L 2160.5 792 
	L 2160.5 -1368.5 
	Z 
	" style="clip-rule:nonzero"/>
</clipPath>
<g style="clip-path:url(#clippath1)"> 
<g fill="#ffffff" fill-rule="nonzero" stroke-width="0" stroke-linejoin="miter" stroke-linecap="butt" stroke-miterlimit="10" >
	<path d="
	M 2160.25 656.75 
	C 2160.25 731.309 2099.81 791.75 2025.25 791.75 
	L 135.25 791.75 
	C 60.6914 791.75 0.25 731.309 0.25 656.75 
	L 0.25 -1233.25 
	C 0.25 -1307.81 60.6914 -1368.25 135.25 -1368.25 
	L 2025.25 -1368.25 
	C 2099.81 -1368.25 2160.25 -1307.81 2160.25 -1233.25 
	Z 
	"/>
</g>
<g stroke="#7f7f7f" fill="none" stroke-width="0.5" stroke-linejoin="miter" stroke-linecap="butt" stroke-miterlimit="4" >
	<path d="
	M 2160.25 656.75 
	C 2160.25 731.309 2099.81 791.75 2025.25 791.75 
	L 135.25 791.75 
	C 60.6914 791.75 0.25 731.309 0.25 656.75 
	L 0.25 -1233.25 
	C 0.25 -1307.81 60.6914 -1368.25 135.25 -1368.25 
	L 2025.25 -1368.25 
	C 2099.81 -1368.25 2160.25 -1307.81 2160.25 -1233.25 
	Z 
	"/>
</g>
<g fill="#e8ad7f" fill-rule="nonzero" stroke-width="0" stroke-linejoin="miter" stroke-linecap="butt" stroke-miterlimit="4" >
	<path d="
	M 135.25 737.75 
	C 90.5859 737.75 54.25 701.41 54.25 656.75 
	L 54.25 -1233.25 
	C 54.25 -1277.91 90.5859 -1314.25 135.25 -1314.25 
	L 2025.25 -1314.25 
	C 2069.91 -1314.25 2106.25 -1277.91 2106.25 -1233.25 
	L 2106.25 656.75 
	C 2106.25 701.41 2069.91 737.75 2025.25 737.75 
	Z 
	"/>
</g>
<g fill="#ffffff" fill-rule="nonzero" stroke-width="0" stroke-linejoin="miter" stroke-linecap="butt" stroke-miterlimit="4" >
	<path d="
	M 1185.42 -909.75 
	L 974.453 -909.75 
	L 974.453 -746.12 
	L 1185.42 -746.12 
	C 1240.8 -746.12 1276.05 -778.84 1276.05 -829.2 
	C 1276.05 -874.51 1238.28 -909.75 1185.42 -909.75 
	Z 
	M 1306.26 -632.83 
	C 1263.46 -610.17 1233.25 -602.62 1167.8 -602.62 
	L 974.453 -602.62 
	L 974.453 -333.25 
	L 833.473 -333.25 
	L 833.473 -1053.25 
	L 1175.35 -1053.25 
	C 1235.77 -1053.25 1265.98 -1045.7 1306.26 -1023.04 
	C 1374.23 -982.76 1417.03 -909.75 1417.03 -829.2 
	C 1417.03 -746.12 1374.23 -670.59 1306.26 -632.83 
	Z 
	"/>
</g>
<g fill="#ffffff" fill-rule="evenodd" stroke-width="0" stroke-linejoin="miter" stroke-linecap="butt" stroke-miterlimit="4" >
	<path d="
	M 856.836 450.84 
	L 857.637 450.84 
	L 982.973 450.84 
	L 930.559 393.328 
	L 571.012 393.328 
	L 570.871 68.379 
	L 400.359 68.379 
	C 355.793 68.379 327.887 68.379 309.418 130.871 
	L 278.645 252.891 
	L 207.543 252.891 
	C 172.594 252.891 172.594 252.891 172.594 287.109 
	C 172.594 341.66 172.594 396.25 172.594 450.84 
	L 135.25 450.84 
	L 135.25 488.719 
	L 269.074 488.719 
	C 275.871 540.23 308.363 575.469 359.574 575.469 
	C 410.402 575.469 444.906 539.43 456.328 488.719 
	L 510.031 488.719 
	L 510.031 450.84 
	L 655.172 450.84 
	C 654.367 455.711 653.969 466.328 653.969 471.602 
	C 653.969 528.809 699.988 575.469 756.406 575.469 
	C 812.832 575.469 858.84 528.809 858.84 471.602 
	C 858.84 465.121 858.047 456.922 856.836 450.84 
	Z 
	"/>
</g>
<g fill="#ffffff" fill-rule="evenodd" stroke-width="0" stroke-linejoin="miter" stroke-linecap="butt" stroke-miterlimit="4" >
	<path d="
	M 1745.25 584.75 
	C 1805.66 584.75 1854.93 534.789 1854.93 473.551 
	C 1854.93 465.781 1854.14 458.172 1852.62 450.84 
	L 2025.25 450.84 
	L 2025.25 -45.25 
	L 611.582 -45.25 
	L 611.582 356.219 
	L 970.137 356.219 
	L 1055.13 450.84 
	L 1637.87 450.84 
	C 1636.36 458.172 1635.56 465.781 1635.56 473.551 
	C 1635.56 534.789 1684.84 584.75 1745.25 584.75 
	Z 
	"/>
</g>
</g >
</g>
</svg>
