<?xml version="1.0" encoding="UTF-8" standalone="no"?>
<!-- Created with Inkscape (http://www.inkscape.org/) -->

<svg
   version="1.1"
   id="svg1"
   width="2304.6667"
   height="1728.6667"
   viewBox="0 0 2304.6667 1728.6667"
   sodipodi:docname="tmpp0lms20_.pdf"
   xmlns:inkscape="http://www.inkscape.org/namespaces/inkscape"
   xmlns:sodipodi="http://sodipodi.sourceforge.net/DTD/sodipodi-0.dtd"
   xmlns="http://www.w3.org/2000/svg"
   xmlns:svg="http://www.w3.org/2000/svg">
  <defs
     id="defs1" />
  <sodipodi:namedview
     id="namedview1"
     pagecolor="#ffffff"
     bordercolor="#000000"
     borderopacity="0.25"
     inkscape:showpageshadow="2"
     inkscape:pageopacity="0.0"
     inkscape:pagecheckerboard="0"
     inkscape:deskcolor="#d1d1d1">
    <inkscape:page
       x="0"
       y="0"
       inkscape:label="1"
       id="page1"
       width="2304.6667"
       height="1728.6667"
       margin="0"
       bleed="0" />
  </sodipodi:namedview>
  <g
     id="g1"
     inkscape:groupmode="layer"
     inkscape:label="1">
    <g
       id="group-R5">
      <path
         id="path2"
         d="M 17282.5,1082.5 C 17282.5,486 16799,2.5 16202.5,2.5 H 1082.5 C 486.031,2.5 2.5,486 2.5,1082.5 v 10800 c 0,596.5 483.531,1080 1080,1080 h 15120 c 596.5,0 1080,-483.5 1080,-1080 v -10800"
         style="fill:#ffffff;fill-opacity:1;fill-rule:nonzero;stroke:none"
         transform="matrix(0.13333333,0,0,-0.13333333,0,1728.6667)" />
      <path
         id="path3"
         d="M 17282.5,1082.5 C 17282.5,486 16799,2.5 16202.5,2.5 H 1082.5 C 486.031,2.5 2.5,486 2.5,1082.5 v 10800 c 0,596.5 483.531,1080 1080,1080 h 15120 c 596.5,0 1080,-483.5 1080,-1080 z"
         style="fill:none;stroke:#231f20;stroke-width:5;stroke-linecap:butt;stroke-linejoin:miter;stroke-miterlimit:4;stroke-dasharray:none;stroke-opacity:1"
         transform="matrix(0.13333333,0,0,-0.13333333,0,1728.6667)" />
      <path
         id="path4"
         d="m 1082.5,362.5 c -397.012,0 -720,323 -720,720 v 10800 c 0,397 322.988,720 720,720 h 15120 c 397,0 720,-323 720,-720 v -10800 c 0,-397 -323,-720 -720,-720 h -15120"
         style="fill:#15569c;fill-opacity:1;fill-rule:nonzero;stroke:none"
         transform="matrix(0.13333333,0,0,-0.13333333,0,1728.6667)" />
      <path
         id="path5"
         d="M 6657.96,3318.28 6505.99,2696.8 h 311.55 z m 387.53,-1515.78 -151.97,591.2 h -463.51 l -144.38,-591.2 h -311.54 l 539.49,2160 h 303.96 l 539.49,-2160 h -311.54"
         style="fill:#ffffff;fill-opacity:1;fill-rule:nonzero;stroke:none"
         transform="matrix(0.13333333,0,0,-0.13333333,0,1728.6667)" />
      <path
         id="path6"
         d="m 10342.8,2067.8 c -83.7,-189.5 -258.7,-303.2 -479.46,-303.2 -258.77,0 -449.04,128.8 -555.59,371.4 -68.51,159.1 -114.18,462.3 -114.18,742.7 0,303.16 22.84,522.96 98.95,727.59 76.11,227.36 296.84,394.1 547.99,394.1 312.09,0 547.99,-227.36 563.19,-545.68 h -312 c -7.6,144 -106.58,242.54 -258.81,242.54 -106.54,0 -190.27,-53.07 -243.53,-159.18 -60.9,-106.1 -98.95,-348.64 -98.95,-606.27 0,-181.9 15.22,-371.4 45.65,-538.1 45.68,-212.3 152.22,-325.9 319.66,-325.9 159.88,0 235.98,106.1 235.98,333.4 v 144 h -243.57 v 303.2 h 555.57 v -447.2 c 0,-151.6 -15.2,-242.5 -60.9,-333.4"
         style="fill:#ffffff;fill-opacity:1;fill-rule:nonzero;stroke:none"
         transform="matrix(0.13333333,0,0,-0.13333333,0,1728.6667)" />
      <path
         id="path7"
         d="m 14404.7,2067.8 c -83.7,-189.5 -258.8,-303.2 -479.5,-303.2 -258.8,0 -449,128.8 -555.6,371.4 -68.5,159.1 -114.2,462.3 -114.2,742.7 0,303.16 22.9,522.96 99,727.59 76.1,227.36 296.8,394.1 548,394.1 312,0 548,-227.36 563.2,-545.68 h -312.1 c -7.6,144 -106.5,242.54 -258.7,242.54 -106.6,0 -190.3,-53.07 -243.6,-159.18 -60.9,-106.1 -98.9,-348.64 -98.9,-606.27 0,-181.9 15.2,-371.4 45.6,-538.1 45.7,-212.3 152.3,-325.9 319.7,-325.9 159.8,0 235.9,106.1 235.9,333.4 v 144 H 13910 v 303.2 h 555.6 v -447.2 c 0,-151.6 -15.2,-242.5 -60.9,-333.4"
         style="fill:#ffffff;fill-opacity:1;fill-rule:nonzero;stroke:none"
         transform="matrix(0.13333333,0,0,-0.13333333,0,1728.6667)" />
      <path
         id="path8"
         d="m 3717.51,3386.48 c -30.44,212.23 -114.17,310.77 -258.78,310.77 -251.16,0 -342.48,-197.07 -342.48,-757.95 0,-621.4 106.54,-871.5 372.93,-871.5 182.66,0 228.33,151.5 228.33,310.7 h 312.04 c -7.61,-356.2 -235.93,-613.9 -540.37,-613.9 -464.27,0 -669.77,371.4 -669.77,1167.2 0,697.22 220.73,1068.59 646.94,1068.59 175.05,0 327.27,-75.78 426.21,-219.78 83.72,-106.12 114.17,-197.07 136.99,-394.13 h -312.04"
         style="fill:#ffffff;fill-opacity:1;fill-rule:nonzero;stroke:none"
         transform="matrix(0.13333333,0,0,-0.13333333,0,1728.6667)" />
      <path
         id="path9"
         d="m 5361.59,1802.5 v 977.7 h -589.93 v -977.7 h -310.11 v 2160 h 310.11 v -879.16 h 589.93 v 879.16 h 310.1 v -2160 h -310.1"
         style="fill:#ffffff;fill-opacity:1;fill-rule:nonzero;stroke:none"
         transform="matrix(0.13333333,0,0,-0.13333333,0,1728.6667)" />
      <path
         id="path10"
         d="m 10835.7,1802.5 v 2160 h 302.4 v -2160 h -302.4"
         style="fill:#ffffff;fill-opacity:1;fill-rule:nonzero;stroke:none"
         transform="matrix(0.13333333,0,0,-0.13333333,0,1728.6667)" />
      <path
         id="path11"
         d="m 12589,1802.5 -665.6,1447.58 V 1802.5 h -310.1 v 2160 h 310.1 l 590,-1296 v 1296 h 310.1 v -2160 H 12589"
         style="fill:#ffffff;fill-opacity:1;fill-rule:nonzero;stroke:none"
         transform="matrix(0.13333333,0,0,-0.13333333,0,1728.6667)" />
      <path
         id="path12"
         d="m 8287.2,3659.34 h -317.67 v -545.69 h 317.67 c 181.52,0 279.84,98.52 279.84,272.83 0,166.76 -113.45,272.86 -279.84,272.86 z M 8551.91,1802.5 8264.5,2818.1 H 7969.53 V 1802.5 h -310.1 v 2160 h 642.88 c 340.37,0 567.27,-227.38 567.27,-576.02 0,-257.67 -105.89,-447.18 -310.1,-522.98 l 310.1,-1061 h -317.67"
         style="fill:#ffffff;fill-opacity:1;fill-rule:nonzero;stroke:none"
         transform="matrix(0.13333333,0,0,-0.13333333,0,1728.6667)" />
      <path
         id="path13"
         d="m 8492.72,10586.5 c -30.43,212.2 -114.16,310.8 -258.76,310.8 -251.17,0 -342.5,-197.1 -342.5,-758 0,-621.43 106.56,-871.54 372.94,-871.54 182.66,0 228.32,151.58 228.32,310.75 h 312.05 c -7.6,-356.22 -235.93,-613.91 -540.37,-613.91 -464.26,0 -669.76,371.37 -669.76,1167.2 0,697.2 220.71,1068.6 646.92,1068.6 175.05,0 327.28,-75.8 426.21,-219.8 83.73,-106.1 114.17,-197 137,-394.1 h -312.05"
         style="fill:#ffffff;fill-opacity:1;fill-rule:nonzero;stroke:none"
         transform="matrix(0.13333333,0,0,-0.13333333,0,1728.6667)" />
      <path
         id="path14"
         d="m 13678.3,10586.5 c -30.4,212.2 -114.1,310.8 -258.7,310.8 -251.2,0 -342.5,-197.1 -342.5,-758 0,-621.43 106.5,-871.54 372.9,-871.54 182.7,0 228.3,151.58 228.3,310.75 h 312.1 c -7.6,-356.22 -235.9,-613.91 -540.4,-613.91 -464.3,0 -669.7,371.37 -669.7,1167.2 0,697.2 220.7,1068.6 646.9,1068.6 175,0 327.3,-75.8 426.2,-219.8 83.7,-106.1 114.2,-197 137,-394.1 h -312.1"
         style="fill:#ffffff;fill-opacity:1;fill-rule:nonzero;stroke:none"
         transform="matrix(0.13333333,0,0,-0.13333333,0,1728.6667)" />
      <path
         id="path15"
         d="m 3294.61,9002.5 v 2160 h 1018.52 v -303.1 h -706.9 v -545.7 h 448.47 v -295.6 h -448.47 v -712.45 h 790.51 V 9002.5 H 3294.61"
         style="fill:#ffffff;fill-opacity:1;fill-rule:nonzero;stroke:none"
         transform="matrix(0.13333333,0,0,-0.13333333,0,1728.6667)" />
      <path
         id="path16"
         d="m 6168.51,9002.5 v 2160 h 1018.51 v -303.1 h -706.89 v -545.7 h 448.46 v -295.6 h -448.46 v -712.45 h 790.5 V 9002.5 H 6168.51"
         style="fill:#ffffff;fill-opacity:1;fill-rule:nonzero;stroke:none"
         transform="matrix(0.13333333,0,0,-0.13333333,0,1728.6667)" />
      <path
         id="path17"
         d="m 12045.9,9002.5 v 2160 h 302.3 v -2160 h -302.3"
         style="fill:#ffffff;fill-opacity:1;fill-rule:nonzero;stroke:none"
         transform="matrix(0.13333333,0,0,-0.13333333,0,1728.6667)" />
      <path
         id="path18"
         d="m 4763.95,9002.5 v 2160 h 311.64 V 9290.49 h 790.49 V 9002.5 H 4763.95"
         style="fill:#ffffff;fill-opacity:1;fill-rule:nonzero;stroke:none"
         transform="matrix(0.13333333,0,0,-0.13333333,0,1728.6667)" />
      <path
         id="path19"
         d="m 11096.3,10859.4 h -317.7 v -545.7 h 317.7 c 181.5,0 279.8,98.5 279.8,272.8 0,166.7 -113.4,272.9 -279.8,272.9 z m 264.7,-1856.9 -287.4,1015.6 h -295 V 9002.5 h -310.1 v 2160 h 642.9 c 340.4,0 567.3,-227.4 567.3,-576 0,-257.7 -105.9,-447.2 -310.1,-522.9 l 310.1,-1061.1 H 11361"
         style="fill:#ffffff;fill-opacity:1;fill-rule:nonzero;stroke:none"
         transform="matrix(0.13333333,0,0,-0.13333333,0,1728.6667)" />
      <path
         id="path20"
         d="m 9770.87,10874.5 v -1872 h -311.64 v 1872 h -395.26 v 288 h 1102.13 v -288 h -395.23"
         style="fill:#ffffff;fill-opacity:1;fill-rule:nonzero;stroke:none"
         transform="matrix(0.13333333,0,0,-0.13333333,0,1728.6667)" />
      <path
         id="path21"
         d="m 10231.8,6986.5 c -30.5,212.21 -114.2,310.75 -258.78,310.75 -251.17,0 -342.49,-197.06 -342.49,-757.91 0,-621.47 106.55,-871.59 372.97,-871.59 182.6,0 228.3,151.59 228.3,310.75 h 312 c -7.6,-356.21 -235.9,-613.91 -540.3,-613.91 -464.31,0 -669.8,371.39 -669.8,1167.17 0,697.27 220.71,1068.64 646.93,1068.64 175.07,0 327.27,-75.79 426.17,-219.79 83.7,-106.11 114.2,-197.06 137,-394.11 h -312"
         style="fill:#ffffff;fill-opacity:1;fill-rule:nonzero;stroke:none"
         transform="matrix(0.13333333,0,0,-0.13333333,0,1728.6667)" />
      <path
         id="path22"
         d="m 5444.63,5402.5 v 2160 h 1018.51 v -303.15 h -706.89 v -545.69 h 448.47 v -295.59 h -448.47 v -712.43 h 790.51 V 5402.5 H 5444.63"
         style="fill:#ffffff;fill-opacity:1;fill-rule:nonzero;stroke:none"
         transform="matrix(0.13333333,0,0,-0.13333333,0,1728.6667)" />
      <path
         id="path23"
         d="m 12380.4,5402.5 v 2160 h 1018.5 V 7259.35 H 12692 v -545.69 h 448.5 V 6418.07 H 12692 v -712.43 h 790.5 V 5402.5 h -1102.1"
         style="fill:#ffffff;fill-opacity:1;fill-rule:nonzero;stroke:none"
         transform="matrix(0.13333333,0,0,-0.13333333,0,1728.6667)" />
      <path
         id="path24"
         d="m 7814,5402.5 v 977.68 H 7224.07 V 5402.5 h -310.11 v 2160 h 310.11 V 6683.34 H 7814 v 879.16 h 310.1 v -2160 H 7814"
         style="fill:#ffffff;fill-opacity:1;fill-rule:nonzero;stroke:none"
         transform="matrix(0.13333333,0,0,-0.13333333,0,1728.6667)" />
      <path
         id="path25"
         d="m 8599.31,5402.5 v 2160 h 302.39 v -2160 h -302.39"
         style="fill:#ffffff;fill-opacity:1;fill-rule:nonzero;stroke:none"
         transform="matrix(0.13333333,0,0,-0.13333333,0,1728.6667)" />
      <path
         id="path26"
         d="m 10975.8,5402.5 v 2160 h 311.7 V 5690.49 H 12078 V 5402.5 h -1102.2"
         style="fill:#ffffff;fill-opacity:1;fill-rule:nonzero;stroke:none"
         transform="matrix(0.13333333,0,0,-0.13333333,0,1728.6667)" />
      <path
         id="path27"
         d="m 4586.52,5402.5 h -235.95 l -548.09,2160 h 312.1 l 357.77,-1402.11 357.77,1402.11 h 312.11 l -555.71,-2160"
         style="fill:#ffffff;fill-opacity:1;fill-rule:nonzero;stroke:none"
         transform="matrix(0.13333333,0,0,-0.13333333,0,1728.6667)" />
    </g>
  </g>
</svg>
