<?xml version="1.0" standalone="no"?>
<svg width="1728px" height="1728px" viewBox="0 -936 1728 1728 " xmlns="http://www.w3.org/2000/svg" xmlns:xlink="http://www.w3.org/1999/xlink">
<title>generated by pstoedit</title>
<!-- generated by pstoedit version:4.02 -->
<g xml:space='preserve'>
<clipPath id="clippath1"> 	<path d="
	M 0 -936.5 
	L 0 792 
	L 1728.5 792 
	L 1728.5 -936.5 
	Z 
	" style="clip-rule:nonzero"/>
</clipPath>
<g style="clip-path:url(#clippath1)"> 
<g fill="#ffffff" fill-rule="nonzero" stroke-width="0" stroke-linejoin="miter" stroke-linecap="butt" stroke-miterlimit="10" >
	<path d="
	M 1728.25 683.75 
	C 1728.25 743.398 1679.9 791.75 1620.25 791.75 
	L 108.25 791.75 
	C 48.6016 791.75 0.25 743.398 0.25 683.75 
	L 0.25 -828.25 
	C 0.25 -887.89 48.6016 -936.25 108.25 -936.25 
	L 1620.25 -936.25 
	C 1679.9 -936.25 1728.25 -887.89 1728.25 -828.25 
	Z 
	"/>
</g>
<g stroke="#7f7f7f" fill="none" stroke-width="0.5" stroke-linejoin="miter" stroke-linecap="butt" stroke-miterlimit="4" >
	<path d="
	M 1728.25 683.75 
	C 1728.25 743.398 1679.9 791.75 1620.25 791.75 
	L 108.25 791.75 
	C 48.6016 791.75 0.25 743.398 0.25 683.75 
	L 0.25 -828.25 
	C 0.25 -887.89 48.6016 -936.25 108.25 -936.25 
	L 1620.25 -936.25 
	C 1679.9 -936.25 1728.25 -887.89 1728.25 -828.25 
	Z 
	"/>
</g>
<g fill="#e8ad7f" fill-rule="nonzero" stroke-width="0" stroke-linejoin="miter" stroke-linecap="butt" stroke-miterlimit="4" >
	<path d="
	M 1620.25 -900.25 
	L 108.25 -900.25 
	C 68.5508 -900.25 36.25 -867.95 36.25 -828.25 
	L 36.25 683.75 
	C 36.25 723.449 68.5508 755.75 108.25 755.75 
	L 1620.25 755.75 
	C 1659.95 755.75 1692.25 723.449 1692.25 683.75 
	L 1692.25 -828.25 
	C 1692.25 -867.95 1659.95 -900.25 1620.25 -900.25 
	Z 
	"/>
</g>
<g fill="#ffffff" fill-rule="nonzero" stroke-width="0" stroke-linejoin="miter" stroke-linecap="butt" stroke-miterlimit="4" >
	<path d="
	M 1369.87 615.711 
	C 1369.87 634.262 1356.43 647.75 1339.63 647.75 
	L 390.555 647.75 
	C 373.754 647.75 358.633 634.262 358.633 615.711 
	L 358.633 551.648 
	C 358.633 539.84 368.715 519.602 390.555 519.602 
	L 1337.95 519.602 
	C 1358.11 519.602 1369.87 539.84 1369.87 551.648 
	Z 
	"/>
</g>
<g fill="#ffffff" fill-rule="nonzero" stroke-width="0" stroke-linejoin="miter" stroke-linecap="butt" stroke-miterlimit="4" >
	<path d="
	M 1232.96 -75.621 
	C 1232.96 -57.07 1217.83 -41.895 1201.03 -41.895 
	L 1081.78 -41.895 
	C 1066.65 -41.895 1048.17 -57.07 1048.17 -75.621 
	L 1048.17 -193.645 
	C 1048.17 -207.141 1059.94 -227.38 1081.78 -227.38 
	L 1199.35 -227.38 
	C 1221.2 -227.38 1232.96 -207.141 1232.96 -193.645 
	Z 
	"/>
</g>
<g fill="#ffffff" fill-rule="nonzero" stroke-width="0" stroke-linejoin="miter" stroke-linecap="butt" stroke-miterlimit="4" >
	<path d="
	M 955.781 -75.621 
	C 955.781 -57.07 940.656 -41.895 923.859 -41.895 
	L 804.602 -41.895 
	C 787.805 -41.895 771 -57.07 771 -75.621 
	L 771 -193.645 
	C 771 -207.141 782.758 -227.38 804.602 -227.38 
	L 922.18 -227.38 
	C 942.34 -227.38 955.781 -207.141 955.781 -193.645 
	Z 
	"/>
</g>
<g fill="#ffffff" fill-rule="nonzero" stroke-width="0" stroke-linejoin="miter" stroke-linecap="butt" stroke-miterlimit="4" >
	<path d="
	M 678.609 -75.621 
	C 678.609 -57.07 663.484 -41.895 646.719 -41.895 
	L 527.43 -41.895 
	C 510.629 -41.895 493.863 -57.07 493.863 -75.621 
	L 493.863 -193.645 
	C 493.863 -207.141 505.586 -227.38 527.43 -227.38 
	L 645.043 -227.38 
	C 666.848 -227.38 678.609 -207.141 678.609 -193.645 
	Z 
	"/>
</g>
<g fill="#ffffff" fill-rule="nonzero" stroke-width="0" stroke-linejoin="miter" stroke-linecap="butt" stroke-miterlimit="4" >
	<path d="
	M 401.473 -75.621 
	C 401.473 -57.07 388.031 -41.895 369.551 -41.895 
	L 251.977 -41.895 
	C 235.172 -41.895 218.375 -57.07 218.375 -75.621 
	L 218.375 -193.645 
	C 218.375 -207.141 230.133 -227.38 251.977 -227.38 
	L 369.551 -227.38 
	C 391.391 -227.38 401.473 -207.141 401.473 -193.645 
	Z 
	"/>
</g>
<g fill="#ffffff" fill-rule="nonzero" stroke-width="0" stroke-linejoin="miter" stroke-linecap="butt" stroke-miterlimit="4" >
	<path d="
	M 1510.13 -75.621 
	C 1510.13 -57.07 1495 -41.895 1478.2 -41.895 
	L 1358.94 -41.895 
	C 1342.15 -41.895 1325.35 -57.07 1325.35 -75.621 
	L 1325.35 -193.645 
	C 1325.35 -207.141 1337.11 -227.38 1358.94 -227.38 
	L 1476.52 -227.38 
	C 1498.37 -227.38 1510.13 -207.141 1510.13 -193.645 
	Z 
	"/>
</g>
<g fill="#ffffff" fill-rule="nonzero" stroke-width="0" stroke-linejoin="miter" stroke-linecap="butt" stroke-miterlimit="4" >
	<path d="
	M 1095.21 173.371 
	C 1095.21 191.922 1080.09 207.102 1063.29 207.102 
	L 944.031 207.102 
	C 928.906 207.102 910.43 191.922 910.43 173.371 
	L 910.43 55.348 
	C 910.43 41.852 922.191 21.617 944.031 21.617 
	L 1061.6 21.617 
	C 1083.46 21.617 1095.21 41.852 1095.21 55.348 
	Z 
	"/>
</g>
<g fill="#ffffff" fill-rule="nonzero" stroke-width="0" stroke-linejoin="miter" stroke-linecap="butt" stroke-miterlimit="4" >
	<path d="
	M 818.035 173.371 
	C 818.035 191.922 802.91 207.102 786.117 207.102 
	L 666.859 207.102 
	C 650.059 207.102 633.258 191.922 633.258 173.371 
	L 633.258 55.348 
	C 633.258 41.852 645.016 21.617 666.859 21.617 
	L 784.438 21.617 
	C 804.594 21.617 818.035 41.852 818.035 55.348 
	Z 
	"/>
</g>
<g fill="#ffffff" fill-rule="nonzero" stroke-width="0" stroke-linejoin="miter" stroke-linecap="butt" stroke-miterlimit="4" >
	<path d="
	M 540.863 173.371 
	C 540.863 191.922 525.742 207.102 508.977 207.102 
	L 389.688 207.102 
	C 372.883 207.102 356.117 191.922 356.117 173.371 
	L 356.117 55.348 
	C 356.117 41.852 367.844 21.617 389.688 21.617 
	L 507.297 21.617 
	C 529.102 21.617 540.863 41.852 540.863 55.348 
	Z 
	"/>
</g>
<g fill="#ffffff" fill-rule="nonzero" stroke-width="0" stroke-linejoin="miter" stroke-linecap="butt" stroke-miterlimit="4" >
	<path d="
	M 1372.38 173.371 
	C 1372.38 191.922 1357.26 207.102 1340.46 207.102 
	L 1221.2 207.102 
	C 1204.4 207.102 1187.6 191.922 1187.6 173.371 
	L 1187.6 55.348 
	C 1187.6 41.852 1199.36 21.617 1221.2 21.617 
	L 1338.77 21.617 
	C 1360.62 21.617 1372.38 41.852 1372.38 55.348 
	Z 
	"/>
</g>
<g fill="#ffffff" fill-rule="nonzero" stroke-width="0" stroke-linejoin="miter" stroke-linecap="butt" stroke-miterlimit="4" >
	<path d="
	M 1232.96 422.359 
	C 1232.96 440.922 1217.83 456.09 1201.03 456.09 
	L 1081.78 456.09 
	C 1066.65 456.09 1048.17 440.922 1048.17 422.359 
	L 1048.17 304.34 
	C 1048.17 290.84 1059.94 270.609 1081.78 270.609 
	L 1199.35 270.609 
	C 1221.2 270.609 1232.96 290.84 1232.96 304.34 
	Z 
	"/>
</g>
<g fill="#ffffff" fill-rule="nonzero" stroke-width="0" stroke-linejoin="miter" stroke-linecap="butt" stroke-miterlimit="4" >
	<path d="
	M 955.781 422.359 
	C 955.781 440.922 940.656 456.09 923.859 456.09 
	L 804.602 456.09 
	C 787.805 456.09 771 440.922 771 422.359 
	L 771 304.34 
	C 771 290.84 782.758 270.609 804.602 270.609 
	L 922.18 270.609 
	C 942.34 270.609 955.781 290.84 955.781 304.34 
	Z 
	"/>
</g>
<g fill="#ffffff" fill-rule="nonzero" stroke-width="0" stroke-linejoin="miter" stroke-linecap="butt" stroke-miterlimit="4" >
	<path d="
	M 678.609 422.359 
	C 678.609 440.922 663.484 456.09 646.719 456.09 
	L 527.43 456.09 
	C 510.629 456.09 493.863 440.922 493.863 422.359 
	L 493.863 304.34 
	C 493.863 290.84 505.586 270.609 527.43 270.609 
	L 645.043 270.609 
	C 666.848 270.609 678.609 290.84 678.609 304.34 
	Z 
	"/>
</g>
<g fill="#ffffff" fill-rule="nonzero" stroke-width="0" stroke-linejoin="miter" stroke-linecap="butt" stroke-miterlimit="4" >
	<path d="
	M 401.473 422.359 
	C 401.473 440.922 388.031 456.09 369.551 456.09 
	L 251.977 456.09 
	C 235.172 456.09 218.375 440.922 218.375 422.359 
	L 218.375 304.34 
	C 218.375 290.84 230.133 270.609 251.977 270.609 
	L 369.551 270.609 
	C 391.391 270.609 401.473 290.84 401.473 304.34 
	Z 
	"/>
</g>
<g fill="#ffffff" fill-rule="nonzero" stroke-width="0" stroke-linejoin="miter" stroke-linecap="butt" stroke-miterlimit="4" >
	<path d="
	M 1510.13 422.359 
	C 1510.13 440.922 1495 456.09 1478.2 456.09 
	L 1358.94 456.09 
	C 1342.15 456.09 1325.35 440.922 1325.35 422.359 
	L 1325.35 304.34 
	C 1325.35 290.84 1337.11 270.609 1358.94 270.609 
	L 1476.52 270.609 
	C 1498.37 270.609 1510.13 290.84 1510.13 304.34 
	Z 
	"/>
</g>
<g fill="#ffffff" fill-rule="evenodd" stroke-width="0" stroke-linejoin="miter" stroke-linecap="butt" stroke-miterlimit="4" >
	<path d="
	M 1566.25 -467.4 
	C 1564.98 -492.94 1562.04 -518.01 1555.55 -542.82 
	C 1548.06 -571.36 1536.83 -598.3 1521.12 -623.31 
	C 1508.22 -643.9 1493.24 -662.42 1476.53 -679.94 
	L 1209.37 -746.26 
	C 1108.41 -771.27 1005.25 -786.91 901.289 -791.19 
	C 860.707 -792.79 820.055 -792.52 779.41 -790.72 
	C 726.258 -788.45 673.172 -784.23 620.355 -777.62 
	C 603.309 -775.48 586.391 -772.2 569.813 -767.72 
	L 236.395 -678 
	C 222.891 -657.34 210.523 -636.15 200.16 -613.68 
	C 188.125 -587.61 178.699 -560.33 172.281 -532.25 
	C 166.934 -508.85 163.855 -485.39 162.254 -461.52 
	L 536.719 -547.29 
	C 540.125 -562.54 546.012 -577.11 555.906 -589.41 
	C 563.996 -599.45 582.582 -617.5 597.09 -617.5 
	L 1096.31 -617.5 
	C 1123.12 -617.5 1145.92 -601.18 1161.5 -580.32 
	C 1170.99 -567.55 1176.87 -553.11 1180.15 -537.6 
	Z 
	"/>
</g>
<g fill="#ffffff" fill-rule="evenodd" stroke-width="0" stroke-linejoin="miter" stroke-linecap="butt" stroke-miterlimit="4" >
	<path d="
	M 181.59 -364.74 
	C 183.922 -357.41 189.324 -352.21 195.793 -348.14 
	C 200.66 -345 205.926 -343.4 211.727 -343.47 
	C 216.531 -343.6 221.598 -344.2 226.266 -345.34 
	L 541.324 -421.22 
	C 550.723 -423.48 555.125 -423.62 560.793 -432.82 
	C 564.328 -438.49 566.66 -445.75 564.727 -452.29 
	L 547.188 -512.5 
	L 168.051 -426.95 
	Z 
	"/>
</g>
<g fill="#ffffff" fill-rule="evenodd" stroke-width="0" stroke-linejoin="miter" stroke-linecap="butt" stroke-miterlimit="4" >
	<path d="
	M 1179.91 -500.77 
	L 1168.29 -446.19 
	C 1167.88 -442.98 1167.55 -439.78 1167.28 -436.57 
	C 1166.82 -431.89 1167.42 -427.09 1170.09 -423.07 
	C 1174.9 -415.86 1181.38 -412.79 1189.6 -411.12 
	L 1509.2 -344.91 
	C 1514.14 -343.84 1519.02 -343.57 1523.76 -345.45 
	C 1528.37 -347.25 1532.98 -349.79 1536.79 -353 
	C 1542.47 -357.74 1546.94 -364.82 1548.15 -372.1 
	L 1557.83 -430.63 
	Z 
	"/>
</g>
</g >
</g>
</svg>
