<?xml version="1.0" encoding="UTF-8" standalone="no"?>
<!-- Created with Inkscape (http://www.inkscape.org/) -->

<svg
   version="1.1"
   id="svg1"
   width="2880.6667"
   height="2880.6667"
   viewBox="0 0 2880.6667 2880.6667"
   sodipodi:docname="tmpa4gyjybu.pdf"
   xmlns:inkscape="http://www.inkscape.org/namespaces/inkscape"
   xmlns:sodipodi="http://sodipodi.sourceforge.net/DTD/sodipodi-0.dtd"
   xmlns="http://www.w3.org/2000/svg"
   xmlns:svg="http://www.w3.org/2000/svg">
  <defs
     id="defs1" />
  <sodipodi:namedview
     id="namedview1"
     pagecolor="#ffffff"
     bordercolor="#000000"
     borderopacity="0.25"
     inkscape:showpageshadow="2"
     inkscape:pageopacity="0.0"
     inkscape:pagecheckerboard="0"
     inkscape:deskcolor="#d1d1d1">
    <inkscape:page
       x="0"
       y="0"
       inkscape:label="1"
       id="page1"
       width="2880.6667"
       height="2880.6667"
       margin="0"
       bleed="0" />
  </sodipodi:namedview>
  <g
     id="g1"
     inkscape:groupmode="layer"
     inkscape:label="1">
    <g
       id="group-R5">
      <path
         id="path2"
         d="m 21602.5,1352.5 c 0,-745.602 -604.4,-1350 -1350,-1350 H 1352.5 C 606.914,2.5 2.5,606.898 2.5,1352.5 v 18900 c 0,745.6 604.414,1350 1350,1350 h 18900 c 745.6,0 1350,-604.4 1350,-1350 v -18900"
         style="fill:#ffffff;fill-opacity:1;fill-rule:nonzero;stroke:none"
         transform="matrix(0.13333333,0,0,-0.13333333,0,2880.6667)" />
      <path
         id="path3"
         d="m 21602.5,1352.5 c 0,-745.602 -604.4,-1350 -1350,-1350 H 1352.5 C 606.914,2.5 2.5,606.898 2.5,1352.5 v 18900 c 0,745.6 604.414,1350 1350,1350 h 18900 c 745.6,0 1350,-604.4 1350,-1350 z"
         style="fill:none;stroke:#231f20;stroke-width:5;stroke-linecap:butt;stroke-linejoin:miter;stroke-miterlimit:4;stroke-dasharray:none;stroke-opacity:1"
         transform="matrix(0.13333333,0,0,-0.13333333,0,2880.6667)" />
      <path
         id="path4"
         d="m 1352.5,542.5 c -446.637,0 -810,363.402 -810,810 v 18900 c 0,446.6 363.363,810 810,810 h 18900 c 446.6,0 810,-363.4 810,-810 v -18900 c 0,-446.598 -363.4,-810 -810,-810 h -18900"
         style="fill:#15569c;fill-opacity:1;fill-rule:nonzero;stroke:none"
         transform="matrix(0.13333333,0,0,-0.13333333,0,2880.6667)" />
      <path
         id="path5"
         d="m 14498.9,17044.4 304.9,-235.1 V 15135 l 1026.7,1 c 15.2,-1904.3 30.4,-3808.7 45.7,-5713 3,-1896 1091.5,-3571.8 1123.5,-4663.2 10.7,-362.9 -296,-659.1 -659,-659.1 -185.3,0 -433.9,94.4 -590.2,354 -441.5,733.7 -194,6882.6 -201.3,7833.6 0,294.8 -240.4,535.2 -529.5,535.7 l -520.8,20.8 z m -961.5,-1869.8 c 0,-232.2 -190,-422.2 -422.2,-422.2 H 8800.47 c -232.21,0 -422.23,190 -422.23,422.2 v 3295.2 c 0,232.3 190.02,422.3 422.23,422.3 h 4314.73 c 232.2,0 422.2,-190 422.2,-422.3 z m 975.8,-12105 v 8775.9 h 293.2 c 11.8,-1165.9 -136.8,-6443.1 138,-7446.2 174.4,-636.5 780.7,-1147.4 1430.5,-1147.4 770.4,0 1406.4,632.1 1406.4,1407.2 0,1542.2 -1204.6,3076.8 -1204.6,5108 0,1777.9 -1.4,3803.6 0,6057.2 -18.8,360.9 -208.5,707.5 -497.9,925.9 l -1561.7,1280.9 -0.2,1113.4 c -3.7,357.1 -299.6,658 -656.8,658 l -5776.06,-3.7 c -1.26,0 -0.5,-3.8 -3.03,-3.8 -359.71,0 -658.3,-289.6 -658.3,-649.3 l -5.11,-0.4 V 3069.6 H 3580.19 V 1802.5 H 18024.8 v 1267.1 h -3511.6"
         style="fill:#ffffff;fill-opacity:1;fill-rule:evenodd;stroke:none"
         transform="matrix(0.13333333,0,0,-0.13333333,0,2880.6667)" />
      <path
         id="path6"
         d="m 9469.59,10802.5 v 3600 h 2615.51 v -717.4 h -1911.3 v -591.7 h 1081.4 v -717.5 H 10173.8 V 11520 h 1961.6 v -717.5 H 9469.59"
         style="fill:#15569c;fill-opacity:1;fill-rule:nonzero;stroke:none"
         transform="matrix(0.13333333,0,0,-0.13333333,0,2880.6667)" />
      <path
         id="path7"
         d="m 11806.7,2761.6 c -214.7,-188.8 -581.1,-302.1 -985.3,-302.1 -530.5,0 -1035.71,125.9 -1477.8,377.6 l 391.58,616.8 c 366.32,-201.4 682.12,-276.9 1086.22,-276.9 480,0 732.6,176.2 732.6,553.9 0,352.4 -252.6,541.2 -745.2,541.2 -202.1,0 -341,-25.1 -656.8,-138.4 l -732.62,289.5 151.59,1699.3 H 11945.6 V 5405 l -1654.7,-12.6 -63.1,-465.7 c 189.5,37.8 391.6,62.9 593.6,62.9 341.1,0 593.7,-62.9 808.4,-176.2 391.6,-226.6 631.6,-642 631.6,-1095.1 0,-352.5 -176.8,-730.1 -454.7,-956.7"
         style="fill:#15569c;fill-opacity:1;fill-rule:nonzero;stroke:none"
         transform="matrix(0.13333333,0,0,-0.13333333,0,2880.6667)" />
      <path
         id="path8"
         d="m 10830.4,9584.3 c -378.9,1.9 -644.7,-110 -645.6,-286.3 -0.9,-188.8 263.8,-303.4 642.7,-305.3 378.9,-1.9 619.5,110.2 620.4,299.1 0.9,176.2 -238.5,290.6 -617.5,292.5 z m -6.6,-1321.6 c -467.3,2.3 -758.7,-159.9 -760.2,-474.6 -1.5,-302.1 288.1,-479.8 755.4,-482.1 480,-2.4 733.5,172.6 735,474.7 1.6,314.7 -262.8,479.6 -730.2,482 z m 1016.3,-1364.6 c -228.3,-187.7 -607.8,-311.6 -1024.7,-309.6 -505.2,2.5 -959.09,168.4 -1197.62,459.2 -175.78,214.8 -275.49,479.7 -274.17,744 1.71,339.8 129.41,616.1 383.15,841.5 -163.37,164.4 -263.17,416.7 -261.97,655.8 3.15,629.4 573.51,1016.8 1369.21,1012.8 808.4,-4 1324.4,-396.8 1321.2,-1026.2 -1.3,-264.3 -78.1,-452.7 -255.9,-653.2 251.5,-227.9 363.8,-505.4 362.1,-845.2 -1.7,-327.3 -155,-666.4 -421.3,-879.1"
         style="fill:#15569c;fill-opacity:1;fill-rule:nonzero;stroke:none"
         transform="matrix(0.13333333,0,0,-0.13333333,0,2880.6667)" />
    </g>
  </g>
</svg>
