<?xml version="1.0" encoding="UTF-8" standalone="no"?>
<!-- Created with Inkscape (http://www.inkscape.org/) -->

<svg
   version="1.1"
   id="svg1"
   width="2880.6667"
   height="2880.6667"
   viewBox="0 0 2880.6667 2880.6667"
   sodipodi:docname="tmpsbwhvwoc.pdf"
   xmlns:inkscape="http://www.inkscape.org/namespaces/inkscape"
   xmlns:sodipodi="http://sodipodi.sourceforge.net/DTD/sodipodi-0.dtd"
   xmlns="http://www.w3.org/2000/svg"
   xmlns:svg="http://www.w3.org/2000/svg">
  <defs
     id="defs1" />
  <sodipodi:namedview
     id="namedview1"
     pagecolor="#ffffff"
     bordercolor="#000000"
     borderopacity="0.25"
     inkscape:showpageshadow="2"
     inkscape:pageopacity="0.0"
     inkscape:pagecheckerboard="0"
     inkscape:deskcolor="#d1d1d1">
    <inkscape:page
       x="0"
       y="0"
       inkscape:label="1"
       id="page1"
       width="2880.6667"
       height="2880.6667"
       margin="0"
       bleed="0" />
  </sodipodi:namedview>
  <g
     id="g1"
     inkscape:groupmode="layer"
     inkscape:label="1">
    <g
       id="group-R5">
      <path
         id="path2"
         d="m 21602.5,1352.5 c 0,-745.602 -604.4,-1350 -1350,-1350 H 1352.5 C 606.914,2.5 2.5,606.898 2.5,1352.5 v 18900 c 0,745.6 604.414,1350 1350,1350 h 18900 c 745.6,0 1350,-604.4 1350,-1350 v -18900"
         style="fill:#ffffff;fill-opacity:1;fill-rule:nonzero;stroke:none"
         transform="matrix(0.13333333,0,0,-0.13333333,0,2880.6667)" />
      <path
         id="path3"
         d="m 21602.5,1352.5 c 0,-745.602 -604.4,-1350 -1350,-1350 H 1352.5 C 606.914,2.5 2.5,606.898 2.5,1352.5 v 18900 c 0,745.6 604.414,1350 1350,1350 h 18900 c 745.6,0 1350,-604.4 1350,-1350 z"
         style="fill:none;stroke:#231f20;stroke-width:5;stroke-linecap:butt;stroke-linejoin:miter;stroke-miterlimit:4;stroke-dasharray:none;stroke-opacity:1"
         transform="matrix(0.13333333,0,0,-0.13333333,0,2880.6667)" />
      <path
         id="path4"
         d="m 1352.5,542.5 c -446.637,0 -810,363.402 -810,810 v 18900 c 0,446.6 363.363,810 810,810 h 18900 c 446.6,0 810,-363.4 810,-810 v -18900 c 0,-446.598 -363.4,-810 -810,-810 h -18900"
         style="fill:#15569c;fill-opacity:1;fill-rule:nonzero;stroke:none"
         transform="matrix(0.13333333,0,0,-0.13333333,0,2880.6667)" />
      <path
         id="path5"
         d="m 16552,8221.9 c -141.7,-470.1 -571.3,-773.1 -1142.6,-773.1 -662.8,0 -1074.1,272.8 -1279.8,864 -182.8,545.7 -274.2,1432.4 -274.2,2478.3 0,591.2 68.6,1455.2 160,1955.4 182.8,1000.4 571.3,1386.9 1348.3,1386.9 731.3,0 1211.1,-454.7 1279.7,-1250.5 h -845.5 c -22.9,272.9 -182.9,409.3 -411.4,409.3 -297,0 -457,-204.7 -548.5,-636.7 -114.2,-522.9 -137.1,-1000.4 -137.1,-1864.4 0,-909.5 22.9,-1296 137.1,-1841.7 91.5,-432 251.5,-659.3 525.7,-659.3 297,0 434.2,227.3 434.2,795.8 h 845.5 c 0,-500.3 -22.9,-636.7 -91.4,-864"
         style="fill:#ffffff;fill-opacity:1;fill-rule:nonzero;stroke:none"
         transform="matrix(0.13333333,0,0,-0.13333333,0,2880.6667)" />
      <path
         id="path6"
         d="m 17628.4,7562.5 v 6480 H 20002 v -841.3 h -1559.8 v -1659.8 h 1039.9 v -864 H 18442.2 V 8403.7 h 1650.2 v -841.2 h -2464"
         style="fill:#ffffff;fill-opacity:1;fill-rule:nonzero;stroke:none"
         transform="matrix(0.13333333,0,0,-0.13333333,0,2880.6667)" />
      <path
         id="path7"
         d="m 12028,7562.5 v 6480 h 842.4 v -6480 H 12028"
         style="fill:#ffffff;fill-opacity:1;fill-rule:nonzero;stroke:none"
         transform="matrix(0.13333333,0,0,-0.13333333,0,2880.6667)" />
      <path
         id="path8"
         d="m 8838.24,7562.5 v 6480 h 813.81 V 8312.8 H 11302.3 V 7562.5 H 8838.24"
         style="fill:#ffffff;fill-opacity:1;fill-rule:nonzero;stroke:none"
         transform="matrix(0.13333333,0,0,-0.13333333,0,2880.6667)" />
      <path
         id="path9"
         d="m 6362.52,13292.2 c -750.33,0 -648.14,-2023.6 -648.14,-2478.4 0,-431.9 -102.19,-2523.7 648.14,-2523.7 727.6,0 625.41,2091.8 625.41,2523.7 0,523 -11.5,2478.4 -625.41,2478.4 z m 0,-5843.4 c -1614.36,0 -1489.43,2296.4 -1489.43,3365 0,1114.1 -102.19,3319.6 1489.43,3319.6 1591.64,0 1489.41,-2228.2 1489.41,-3319.6 0,-1068.6 102.23,-3365 -1489.41,-3365"
         style="fill:#ffffff;fill-opacity:1;fill-rule:nonzero;stroke:none"
         transform="matrix(0.13333333,0,0,-0.13333333,0,2880.6667)" />
      <path
         id="path10"
         d="m 2775.78,13201.2 h -443.9 v -1978.1 h 443.9 c 500.7,0 682.76,250.1 682.76,932.2 0,727.6 -227.6,1045.9 -682.76,1045.9 z m 0,-2819.3 h -443.9 V 7562.5 h -819.3 v 6480 h 1263.2 c 364.14,0 705.51,-91 910.33,-272.8 364.12,-295.6 614.5,-909.5 614.5,-1614.4 0,-1068.6 -614.5,-1773.4 -1524.83,-1773.4"
         style="fill:#ffffff;fill-opacity:1;fill-rule:nonzero;stroke:none"
         transform="matrix(0.13333333,0,0,-0.13333333,0,2880.6667)" />
    </g>
  </g>
</svg>
