<?xml version="1.0" standalone="no"?>
<svg width="1728px" height="1728px" viewBox="0 -936 1728 1728 " xmlns="http://www.w3.org/2000/svg" xmlns:xlink="http://www.w3.org/1999/xlink">
<title>generated by pstoedit</title>
<!-- generated by pstoedit version:4.02 -->
<g xml:space='preserve'>
<clipPath id="clippath1"> 	<path d="
	M 0 -936.5 
	L 0 792 
	L 1728.5 792 
	L 1728.5 -936.5 
	Z 
	" style="clip-rule:nonzero"/>
</clipPath>
<g style="clip-path:url(#clippath1)"> 
<g fill="#ffffff" fill-rule="nonzero" stroke-width="0" stroke-linejoin="miter" stroke-linecap="butt" stroke-miterlimit="10" >
	<path d="
	M 1728.25 683.75 
	C 1728.25 743.398 1679.9 791.75 1620.25 791.75 
	L 108.25 791.75 
	C 48.6016 791.75 0.25 743.398 0.25 683.75 
	L 0.25 -828.25 
	C 0.25 -887.9 48.6016 -936.25 108.25 -936.25 
	L 1620.25 -936.25 
	C 1679.9 -936.25 1728.25 -887.9 1728.25 -828.25 
	Z 
	"/>
</g>
<g stroke="#7f7f7f" fill="none" stroke-width="0.5" stroke-linejoin="miter" stroke-linecap="butt" stroke-miterlimit="4" >
	<path d="
	M 1728.25 683.75 
	C 1728.25 743.398 1679.9 791.75 1620.25 791.75 
	L 108.25 791.75 
	C 48.6016 791.75 0.25 743.398 0.25 683.75 
	L 0.25 -828.25 
	C 0.25 -887.9 48.6016 -936.25 108.25 -936.25 
	L 1620.25 -936.25 
	C 1679.9 -936.25 1728.25 -887.9 1728.25 -828.25 
	Z 
	"/>
</g>
<g fill="#e8ad7f" fill-rule="nonzero" stroke-width="0" stroke-linejoin="miter" stroke-linecap="butt" stroke-miterlimit="4" >
	<path d="
	M 108.25 755.75 
	C 68.5469 755.75 36.25 723.449 36.25 683.75 
	L 36.25 -828.25 
	C 36.25 -867.95 68.5469 -900.25 108.25 -900.25 
	L 1620.25 -900.25 
	C 1659.95 -900.25 1692.25 -867.95 1692.25 -828.25 
	L 1692.25 683.75 
	C 1692.25 723.449 1659.95 755.75 1620.25 755.75 
	Z 
	"/>
</g>
<g fill="#ffffff" fill-rule="nonzero" stroke-width="0" stroke-linejoin="miter" stroke-linecap="butt" stroke-miterlimit="4" >
	<path d="
	M 1311.43 128.469 
	C 1300.41 165.031 1267 188.59 1222.56 188.59 
	C 1171.02 188.59 1139.02 167.371 1123.02 121.391 
	C 1108.81 78.949 1101.7 9.97998 1101.7 -71.363 
	C 1101.7 -117.348 1107.03 -184.547 1114.14 -223.45 
	C 1128.36 -301.26 1158.57 -331.32 1219.01 -331.32 
	C 1275.88 -331.32 1313.21 -295.95 1318.54 -234.06 
	L 1252.78 -234.06 
	C 1251 -255.28 1238.56 -265.89 1220.79 -265.89 
	C 1197.68 -265.89 1185.23 -249.98 1178.13 -216.38 
	C 1169.24 -175.699 1167.46 -138.563 1167.46 -71.363 
	C 1167.46 -0.629028 1169.24 29.437 1178.13 71.879 
	C 1185.23 105.48 1197.68 123.16 1219.01 123.16 
	C 1242.11 123.16 1252.78 105.48 1252.78 61.266 
	L 1318.54 61.266 
	C 1318.54 100.172 1316.77 110.781 1311.43 128.469 
	Z 
	"/>
</g>
<g fill="#ffffff" fill-rule="nonzero" stroke-width="0" stroke-linejoin="miter" stroke-linecap="butt" stroke-miterlimit="4" >
	<path d="
	M 1395.15 179.75 
	L 1395.15 -324.25 
	L 1579.76 -324.25 
	L 1579.76 -258.82 
	L 1458.45 -258.82 
	L 1458.45 -129.723 
	L 1539.33 -129.723 
	L 1539.33 -62.52 
	L 1458.45 -62.52 
	L 1458.45 114.32 
	L 1586.8 114.32 
	L 1586.8 179.75 
	Z 
	"/>
</g>
<g fill="#ffffff" fill-rule="nonzero" stroke-width="0" stroke-linejoin="miter" stroke-linecap="butt" stroke-miterlimit="4" >
	<path d="
	M 959.566 179.75 
	L 959.566 -324.25 
	L 1025.09 -324.25 
	L 1025.09 179.75 
	Z 
	"/>
</g>
<g fill="#ffffff" fill-rule="nonzero" stroke-width="0" stroke-linejoin="miter" stroke-linecap="butt" stroke-miterlimit="4" >
	<path d="
	M 711.473 179.75 
	L 711.473 -324.25 
	L 774.77 -324.25 
	L 774.77 121.391 
	L 903.121 121.391 
	L 903.121 179.75 
	Z 
	"/>
</g>
<g fill="#ffffff" fill-rule="nonzero" stroke-width="0" stroke-linejoin="miter" stroke-linecap="butt" stroke-miterlimit="4" >
	<path d="
	M 518.918 -265.89 
	C 460.559 -265.89 468.508 -108.504 468.508 -73.137 
	C 468.508 -39.535 460.559 123.16 518.918 123.16 
	C 575.512 123.16 567.563 -39.535 567.563 -73.137 
	C 567.563 -113.809 566.668 -265.89 518.918 -265.89 
	Z 
	M 518.918 188.59 
	C 393.355 188.59 403.074 9.97998 403.074 -73.137 
	C 403.074 -159.785 395.125 -331.32 518.918 -331.32 
	C 642.711 -331.32 634.762 -158.02 634.762 -73.137 
	C 634.762 9.97998 642.711 188.59 518.918 188.59 
	Z 
	"/>
</g>
<g fill="#ffffff" fill-rule="nonzero" stroke-width="0" stroke-linejoin="miter" stroke-linecap="butt" stroke-miterlimit="4" >
	<path d="
	M 239.949 -258.82 
	L 205.422 -258.82 
	L 205.422 -104.969 
	L 239.949 -104.969 
	C 278.891 -104.969 293.051 -124.418 293.051 -177.473 
	C 293.051 -234.06 275.352 -258.82 239.949 -258.82 
	Z 
	M 239.949 -39.535 
	L 205.422 -39.535 
	L 205.422 179.75 
	L 141.699 179.75 
	L 141.699 -324.25 
	L 239.949 -324.25 
	C 268.27 -324.25 294.82 -317.18 310.754 -303.03 
	C 339.074 -280.04 358.547 -232.29 358.547 -177.473 
	C 358.547 -94.355 310.754 -39.535 239.949 -39.535 
	Z 
	"/>
</g>
</g >
</g>
</svg>
