<?xml version="1.0" standalone="no"?>
<svg width="1728px" height="1296px" viewBox="0 -504 1728 1296 " xmlns="http://www.w3.org/2000/svg" xmlns:xlink="http://www.w3.org/1999/xlink">
<title>generated by pstoedit</title>
<!-- generated by pstoedit version:4.02 -->
<g xml:space='preserve'>
<clipPath id="clippath1"> 	<path d="
	M 0 -504.5 
	L 0 792 
	L 1728.5 792 
	L 1728.5 -504.5 
	Z 
	" style="clip-rule:nonzero"/>
</clipPath>
<g style="clip-path:url(#clippath1)"> 
<g fill="#ffffff" fill-rule="nonzero" stroke-width="0" stroke-linejoin="miter" stroke-linecap="butt" stroke-miterlimit="10" >
	<path d="
	M 1728.25 683.75 
	C 1728.25 743.398 1679.9 791.75 1620.25 791.75 
	L 108.25 791.75 
	C 48.6016 791.75 0.25 743.398 0.25 683.75 
	L 0.25 -396.25 
	C 0.25 -455.9 48.6016 -504.25 108.25 -504.25 
	L 1620.25 -504.25 
	C 1679.9 -504.25 1728.25 -455.9 1728.25 -396.25 
	Z 
	"/>
</g>
<g stroke="#7f7f7f" fill="none" stroke-width="0.5" stroke-linejoin="miter" stroke-linecap="butt" stroke-miterlimit="4" >
	<path d="
	M 1728.25 683.75 
	C 1728.25 743.398 1679.9 791.75 1620.25 791.75 
	L 108.25 791.75 
	C 48.6016 791.75 0.25 743.398 0.25 683.75 
	L 0.25 -396.25 
	C 0.25 -455.9 48.6016 -504.25 108.25 -504.25 
	L 1620.25 -504.25 
	C 1679.9 -504.25 1728.25 -455.9 1728.25 -396.25 
	Z 
	"/>
</g>
<g fill="#e8ad7f" fill-rule="nonzero" stroke-width="0" stroke-linejoin="miter" stroke-linecap="butt" stroke-miterlimit="4" >
	<path d="
	M 108.25 755.75 
	C 68.5469 755.75 36.25 723.449 36.25 683.75 
	L 36.25 -396.25 
	C 36.25 -435.95 68.5469 -468.25 108.25 -468.25 
	L 1620.25 -468.25 
	C 1659.95 -468.25 1692.25 -435.95 1692.25 -396.25 
	L 1692.25 683.75 
	C 1692.25 723.449 1659.95 755.75 1620.25 755.75 
	Z 
	"/>
</g>
<g fill="#ffffff" fill-rule="nonzero" stroke-width="0" stroke-linejoin="miter" stroke-linecap="butt" stroke-miterlimit="4" >
	<path d="
	M 1154.12 100.172 
	L 1138.92 162.316 
	L 1170.08 162.316 
	Z 
	M 1192.87 251.75 
	L 1177.67 192.633 
	L 1131.32 192.633 
	L 1116.89 251.75 
	L 1085.73 251.75 
	L 1139.68 35.75 
	L 1170.08 35.75 
	L 1224.03 251.75 
	Z 
	"/>
</g>
<g fill="#ffffff" fill-rule="nonzero" stroke-width="0" stroke-linejoin="miter" stroke-linecap="butt" stroke-miterlimit="4" >
	<path d="
	M 1028.61 93.352 
	C 1025.56 72.129 1017.19 62.273 1002.73 62.273 
	C 977.613 62.273 968.48 81.98 968.48 138.066 
	C 968.48 200.215 979.137 225.223 1005.78 225.223 
	C 1024.04 225.223 1028.61 210.066 1028.61 194.148 
	L 1059.81 194.148 
	C 1059.05 229.77 1036.22 255.539 1005.78 255.539 
	C 959.348 255.539 938.801 218.402 938.801 138.824 
	C 938.801 69.098 960.867 31.961 1003.49 31.961 
	C 1021 31.961 1036.22 39.539 1046.11 53.937 
	C 1054.48 64.551 1057.53 73.645 1059.81 93.352 
	Z 
	"/>
</g>
<g fill="#ffffff" fill-rule="nonzero" stroke-width="0" stroke-linejoin="miter" stroke-linecap="butt" stroke-miterlimit="4" >
	<path d="
	M 785.855 88.043 
	C 780.559 72.887 771.48 66.066 757.867 66.066 
	L 732.152 66.066 
	L 732.152 221.434 
	L 757.867 221.434 
	C 776.02 221.434 785.855 207.031 788.879 190.359 
	C 790.391 176.719 791.902 161.562 791.902 144.887 
	C 791.902 120.633 789.637 97.141 785.855 88.043 
	Z 
	M 791.148 241.895 
	C 783.586 248.719 772.996 251.75 760.895 251.75 
	L 701.145 251.75 
	L 701.145 35.75 
	L 756.355 35.75 
	C 774.508 35.75 783.586 38.023 791.148 44.086 
	C 804.008 53.18 813.082 69.855 816.863 91.832 
	C 819.891 107.75 822.156 126.695 822.156 143.371 
	C 822.156 193.395 812.324 225.223 791.148 241.895 
	Z 
	"/>
</g>
<g fill="#ffffff" fill-rule="nonzero" stroke-width="0" stroke-linejoin="miter" stroke-linecap="butt" stroke-miterlimit="4" >
	<path d="
	M 865.359 251.75 
	L 865.359 35.75 
	L 895.598 35.75 
	L 895.598 251.75 
	Z 
	"/>
</g>
<g fill="#ffffff" fill-rule="nonzero" stroke-width="0" stroke-linejoin="miter" stroke-linecap="butt" stroke-miterlimit="4" >
	<path d="
	M 1254.27 251.75 
	L 1254.27 35.75 
	L 1285.43 35.75 
	L 1285.43 222.949 
	L 1364.48 222.949 
	L 1364.48 251.75 
	Z 
	"/>
</g>
<g fill="#ffffff" fill-rule="nonzero" stroke-width="0" stroke-linejoin="miter" stroke-linecap="butt" stroke-miterlimit="4" >
	<path d="
	M 554.211 251.75 
	L 554.211 35.75 
	L 656.063 35.75 
	L 656.063 66.066 
	L 585.371 66.066 
	L 585.371 120.633 
	L 630.219 120.633 
	L 630.219 150.191 
	L 585.371 150.191 
	L 585.371 221.434 
	L 664.422 221.434 
	L 664.422 251.75 
	Z 
	"/>
</g>
<g fill="#ffffff" fill-rule="nonzero" stroke-width="0" stroke-linejoin="miter" stroke-linecap="butt" stroke-miterlimit="4" >
	<path d="
	M 475.574 251.75 
	L 475.574 130.488 
	L 435.352 251.75 
	L 395.133 130.488 
	L 395.133 251.75 
	L 364.02 251.75 
	L 364.02 35.75 
	L 395.133 35.75 
	L 435.352 157.016 
	L 475.574 35.75 
	L 506.688 35.75 
	L 506.688 251.75 
	Z 
	"/>
</g>
<g fill="#ffffff" fill-rule="nonzero" stroke-width="0" stroke-linejoin="miter" stroke-linecap="butt" stroke-miterlimit="4" >
	<path d="
	M 787.863 460.172 
	L 772.668 522.32 
	L 803.82 522.32 
	Z 
	M 826.613 611.75 
	L 811.418 552.629 
	L 765.066 552.629 
	L 750.629 611.75 
	L 719.477 611.75 
	L 773.426 395.75 
	L 803.82 395.75 
	L 857.77 611.75 
	Z 
	"/>
</g>
<g fill="#ffffff" fill-rule="nonzero" stroke-width="0" stroke-linejoin="miter" stroke-linecap="butt" stroke-miterlimit="4" >
	<path d="
	M 662.352 453.352 
	C 659.309 432.129 650.934 422.273 636.473 422.273 
	C 611.355 422.273 602.227 441.98 602.227 498.07 
	C 602.227 560.211 612.879 585.219 639.52 585.219 
	C 657.785 585.219 662.352 570.07 662.352 554.148 
	L 693.555 554.148 
	C 692.793 589.77 669.961 615.539 639.52 615.539 
	C 593.09 615.539 572.543 578.398 572.543 498.82 
	C 572.543 429.098 594.613 391.961 637.234 391.961 
	C 654.738 391.961 669.961 399.539 679.855 413.937 
	C 688.227 424.551 691.273 433.645 693.555 453.352 
	Z 
	"/>
</g>
<g fill="#ffffff" fill-rule="nonzero" stroke-width="0" stroke-linejoin="miter" stroke-linecap="butt" stroke-miterlimit="4" >
	<path d="
	M 1045.75 611.75 
	L 1045.75 395.75 
	L 1147.6 395.75 
	L 1147.6 426.066 
	L 1076.91 426.066 
	L 1076.91 480.637 
	L 1121.75 480.637 
	L 1121.75 510.191 
	L 1076.91 510.191 
	L 1076.91 581.441 
	L 1155.96 581.441 
	L 1155.96 611.75 
	Z 
	"/>
</g>
<g fill="#ffffff" fill-rule="nonzero" stroke-width="0" stroke-linejoin="miter" stroke-linecap="butt" stroke-miterlimit="4" >
	<path d="
	M 950.785 426.066 
	L 919.02 426.066 
	L 919.02 480.637 
	L 950.785 480.637 
	C 968.938 480.637 978.77 470.781 978.77 453.352 
	C 978.77 436.676 967.426 426.066 950.785 426.066 
	Z 
	M 977.258 611.75 
	L 948.516 510.191 
	L 919.02 510.191 
	L 919.02 611.75 
	L 888.012 611.75 
	L 888.012 395.75 
	L 952.297 395.75 
	C 986.336 395.75 1009.02 418.488 1009.02 453.352 
	C 1009.02 479.117 998.438 498.07 978.016 505.648 
	L 1009.02 611.75 
	Z 
	"/>
</g>
<g fill="#ffffff" fill-rule="nonzero" stroke-width="0" stroke-linejoin="miter" stroke-linecap="butt" stroke-miterlimit="4" >
	<path d="
	M 1367.86 -266.65 
	C 1364.82 -287.87 1356.45 -297.73 1341.98 -297.73 
	C 1316.87 -297.73 1307.74 -278.02 1307.74 -221.93 
	C 1307.74 -159.785 1318.39 -134.777 1345.03 -134.777 
	C 1363.29 -134.777 1367.86 -149.934 1367.86 -165.852 
	L 1399.07 -165.852 
	C 1398.3 -130.23 1375.47 -104.461 1345.03 -104.461 
	C 1298.6 -104.461 1278.05 -141.598 1278.05 -221.18 
	C 1278.05 -290.9 1300.12 -328.04 1342.75 -328.04 
	C 1360.25 -328.04 1375.47 -320.46 1385.37 -306.06 
	C 1393.74 -295.45 1396.78 -286.36 1399.07 -266.65 
	Z 
	"/>
</g>
<g fill="#ffffff" fill-rule="nonzero" stroke-width="0" stroke-linejoin="miter" stroke-linecap="butt" stroke-miterlimit="4" >
	<path d="
	M 165.219 -108.25 
	L 165.219 -324.25 
	L 267.07 -324.25 
	L 267.07 -293.93 
	L 196.383 -293.93 
	L 196.383 -239.37 
	L 241.23 -239.37 
	L 241.23 -209.81 
	L 196.383 -209.81 
	L 196.383 -138.566 
	L 275.434 -138.566 
	L 275.434 -108.25 
	Z 
	"/>
</g>
<g fill="#ffffff" fill-rule="nonzero" stroke-width="0" stroke-linejoin="miter" stroke-linecap="butt" stroke-miterlimit="4" >
	<path d="
	M 502.344 -108.25 
	L 502.344 -324.25 
	L 604.195 -324.25 
	L 604.195 -293.93 
	L 533.504 -293.93 
	L 533.504 -239.37 
	L 578.352 -239.37 
	L 578.352 -209.81 
	L 533.504 -209.81 
	L 533.504 -138.566 
	L 612.555 -138.566 
	L 612.555 -108.25 
	Z 
	"/>
</g>
<g fill="#ffffff" fill-rule="nonzero" stroke-width="0" stroke-linejoin="miter" stroke-linecap="butt" stroke-miterlimit="4" >
	<path d="
	M 966.906 -108.25 
	L 966.906 -324.25 
	L 1068.76 -324.25 
	L 1068.76 -293.93 
	L 998.066 -293.93 
	L 998.066 -239.37 
	L 1042.91 -239.37 
	L 1042.91 -209.81 
	L 998.066 -209.81 
	L 998.066 -138.566 
	L 1077.12 -138.566 
	L 1077.12 -108.25 
	Z 
	"/>
</g>
<g fill="#ffffff" fill-rule="nonzero" stroke-width="0" stroke-linejoin="miter" stroke-linecap="butt" stroke-miterlimit="4" >
	<path d="
	M 917.617 -134.777 
	C 909.242 -115.828 891.738 -104.461 869.668 -104.461 
	C 843.789 -104.461 824.762 -117.344 814.109 -141.598 
	C 807.258 -157.512 802.691 -187.828 802.691 -215.87 
	C 802.691 -246.19 804.973 -268.16 812.586 -288.63 
	C 820.195 -311.37 842.27 -328.04 867.383 -328.04 
	C 898.59 -328.04 922.184 -305.3 923.703 -273.47 
	L 892.5 -273.47 
	C 891.738 -287.87 881.844 -297.73 866.621 -297.73 
	C 855.969 -297.73 847.594 -292.42 842.27 -281.81 
	C 836.18 -271.2 832.375 -246.95 832.375 -221.18 
	C 832.375 -202.988 833.895 -184.039 836.938 -167.367 
	C 841.508 -146.145 852.16 -134.777 868.906 -134.777 
	C 884.891 -134.777 892.5 -145.387 892.5 -168.125 
	L 892.5 -182.523 
	L 868.145 -182.523 
	L 868.145 -212.84 
	L 923.703 -212.84 
	L 923.703 -168.125 
	C 923.703 -152.965 922.184 -143.871 917.617 -134.777 
	Z 
	"/>
</g>
<g fill="#ffffff" fill-rule="nonzero" stroke-width="0" stroke-linejoin="miter" stroke-linecap="butt" stroke-miterlimit="4" >
	<path d="
	M 423.707 -108.25 
	L 423.707 -229.51 
	L 383.488 -108.25 
	L 343.266 -229.51 
	L 343.266 -108.25 
	L 312.152 -108.25 
	L 312.152 -324.25 
	L 343.266 -324.25 
	L 383.488 -202.984 
	L 423.707 -324.25 
	L 454.82 -324.25 
	L 454.82 -108.25 
	Z 
	"/>
</g>
<g fill="#ffffff" fill-rule="nonzero" stroke-width="0" stroke-linejoin="miter" stroke-linecap="butt" stroke-miterlimit="4" >
	<path d="
	M 1211.41 -108.25 
	L 1144.85 -253.01 
	L 1144.85 -108.25 
	L 1113.84 -108.25 
	L 1113.84 -324.25 
	L 1144.85 -324.25 
	L 1203.84 -194.648 
	L 1203.84 -324.25 
	L 1234.85 -324.25 
	L 1234.85 -108.25 
	Z 
	"/>
</g>
<g fill="#ffffff" fill-rule="nonzero" stroke-width="0" stroke-linejoin="miter" stroke-linecap="butt" stroke-miterlimit="4" >
	<path d="
	M 712.055 -293.93 
	L 680.285 -293.93 
	L 680.285 -239.37 
	L 712.055 -239.37 
	C 730.207 -239.37 740.039 -249.22 740.039 -266.65 
	C 740.039 -283.32 728.691 -293.93 712.055 -293.93 
	Z 
	M 738.523 -108.25 
	L 709.785 -209.81 
	L 680.285 -209.81 
	L 680.285 -108.25 
	L 649.277 -108.25 
	L 649.277 -324.25 
	L 713.566 -324.25 
	C 747.602 -324.25 770.293 -301.51 770.293 -266.65 
	C 770.293 -240.88 759.703 -221.93 739.281 -214.36 
	L 770.293 -108.25 
	Z 
	"/>
</g>
<g fill="#ffffff" fill-rule="nonzero" stroke-width="0" stroke-linejoin="miter" stroke-linecap="butt" stroke-miterlimit="4" >
	<path d="
	M 1509.33 -206.02 
	L 1509.33 -108.25 
	L 1478.18 -108.25 
	L 1478.18 -206.02 
	L 1424.99 -324.25 
	L 1457.66 -324.25 
	L 1494.13 -246.19 
	L 1529.85 -324.25 
	L 1563.28 -324.25 
	Z 
	"/>
</g>
</g >
</g>
</svg>
