<?xml version="1.0" encoding="UTF-8" standalone="no"?>
<!-- Created with Inkscape (http://www.inkscape.org/) -->

<svg
   version="1.1"
   id="svg1"
   width="2304.6667"
   height="2304.6667"
   viewBox="0 0 2304.6667 2304.6667"
   sodipodi:docname="tmpwahexj2v.pdf"
   xmlns:inkscape="http://www.inkscape.org/namespaces/inkscape"
   xmlns:sodipodi="http://sodipodi.sourceforge.net/DTD/sodipodi-0.dtd"
   xmlns="http://www.w3.org/2000/svg"
   xmlns:svg="http://www.w3.org/2000/svg">
  <defs
     id="defs1" />
  <sodipodi:namedview
     id="namedview1"
     pagecolor="#ffffff"
     bordercolor="#000000"
     borderopacity="0.25"
     inkscape:showpageshadow="2"
     inkscape:pageopacity="0.0"
     inkscape:pagecheckerboard="0"
     inkscape:deskcolor="#d1d1d1">
    <inkscape:page
       x="0"
       y="0"
       inkscape:label="1"
       id="page1"
       width="2304.6667"
       height="2304.6667"
       margin="0"
       bleed="0" />
  </sodipodi:namedview>
  <g
     id="g1"
     inkscape:groupmode="layer"
     inkscape:label="1">
    <g
       id="group-R5">
      <path
         id="path2"
         d="M 17282.5,1082.5 C 17282.5,486 16799,2.5 16202.5,2.5 H 1082.5 C 486.031,2.5 2.5,486 2.5,1082.5 v 15120 c 0,596.5 483.531,1080 1080,1080 h 15120 c 596.5,0 1080,-483.5 1080,-1080 v -15120"
         style="fill:#ffffff;fill-opacity:1;fill-rule:nonzero;stroke:none"
         transform="matrix(0.13333333,0,0,-0.13333333,0,2304.6667)" />
      <path
         id="path3"
         d="M 17282.5,1082.5 C 17282.5,486 16799,2.5 16202.5,2.5 H 1082.5 C 486.031,2.5 2.5,486 2.5,1082.5 v 15120 c 0,596.5 483.531,1080 1080,1080 h 15120 c 596.5,0 1080,-483.5 1080,-1080 z"
         style="fill:none;stroke:#231f20;stroke-width:5;stroke-linecap:butt;stroke-linejoin:miter;stroke-miterlimit:4;stroke-dasharray:none;stroke-opacity:1"
         transform="matrix(0.13333333,0,0,-0.13333333,0,2304.6667)" />
      <path
         id="path4"
         d="m 1082.5,362.5 c -397.012,0 -720,323 -720,720 v 15120 c 0,397 322.988,720 720,720 h 15120 c 397,0 720,-323 720,-720 v -15120 c 0,-397 -323,-720 -720,-720 h -15120"
         style="fill:#15569c;fill-opacity:1;fill-rule:nonzero;stroke:none"
         transform="matrix(0.13333333,0,0,-0.13333333,0,2304.6667)" />
      <path
         id="path5"
         d="M 9483.86,13614.5 H 7796.13 v -1309.1 h 1687.73 c 443.06,0 725.04,261.9 725.04,664.7 0,362.5 -302.13,644.4 -725.04,644.4 z m 966.74,-2215.4 c -342.4,-181.2 -584.1,-241.7 -1107.73,-241.7 H 7796.13 V 9002.5 H 6668.29 v 5760 h 2735.02 c 483.35,0 724.99,-60.4 1047.29,-241.7 543.7,-322.2 886.1,-906.3 886.1,-1550.7 0,-664.7 -342.4,-1268.8 -886.1,-1571"
         style="fill:#ffffff;fill-opacity:1;fill-rule:nonzero;stroke:none"
         transform="matrix(0.13333333,0,0,-0.13333333,0,2304.6667)" />
      <path
         id="path6"
         d="m 6855.19,2873.8 h 1009.09 l -419.3,460 h -2876.4 l -1.12,2599.7 H 3203.38 c -356.54,0 -579.8,0 -727.55,-499.9 l -246.17,-976.2 h -568.81 c -279.6,0 -279.6,0 -279.6,-273.8 0,-436.4 0,-873.1 0,-1309.8 H 1082.5 v -303.1 h 1070.58 c 54.4,-412 314.34,-694 724.03,-694 406.62,0 682.64,288.4 774.03,694 h 429.61 v 303.1 h 1161.11 c -6.41,-39 -9.61,-123.9 -9.61,-166.1 0,-457.7 368.17,-831 819.51,-831 451.4,0 819.45,373.3 819.45,831 0,51.9 -6.35,117.5 -16.02,166.1"
         style="fill:#ffffff;fill-opacity:1;fill-rule:evenodd;stroke:none"
         transform="matrix(0.13333333,0,0,-0.13333333,0,2304.6667)" />
      <path
         id="path7"
         d="m 13962.5,1802.5 c 483.3,0 877.4,399.6 877.4,889.6 0,62.2 -6.3,123 -18.4,181.7 h 1381 V 6842.5 H 4893.16 V 3630.7 h 2868.42 l 679.93,-756.9 h 4661.99 c -12.1,-58.7 -18.5,-119.5 -18.5,-181.7 0,-490 394.2,-889.6 877.5,-889.6"
         style="fill:#ffffff;fill-opacity:1;fill-rule:evenodd;stroke:none"
         transform="matrix(0.13333333,0,0,-0.13333333,0,2304.6667)" />
    </g>
  </g>
</svg>
