<?xml version="1.0" standalone="no"?>
<svg width="1297px" height="1297px" viewBox="0 -505 1297 1297 " xmlns="http://www.w3.org/2000/svg" xmlns:xlink="http://www.w3.org/1999/xlink">
<title>generated by pstoedit</title>
<!-- generated by pstoedit version:4.02 -->
<g xml:space='preserve'>
<clipPath id="clippath1"> 	<path d="
	M 0 -505 
	L 0 792 
	L 1297 792 
	L 1297 -505 
	Z 
	" style="clip-rule:nonzero"/>
</clipPath>
<g style="clip-path:url(#clippath1)"> 
<g fill="#ffffff" fill-rule="nonzero" stroke-width="0" stroke-linejoin="miter" stroke-linecap="butt" stroke-miterlimit="10" >
	<path d="
	M 1296.5 683.5 
	C 1296.5 743.148 1248.15 791.5 1188.5 791.5 
	L 108.5 791.5 
	C 48.8516 791.5 0.5 743.148 0.5 683.5 
	L 0.5 -396.5 
	C 0.5 -456.14 48.8516 -504.5 108.5 -504.5 
	L 1188.5 -504.5 
	C 1248.15 -504.5 1296.5 -456.14 1296.5 -396.5 
	Z 
	"/>
</g>
<g stroke="#7f7f7f" fill="none" stroke-width="1" stroke-linejoin="miter" stroke-linecap="butt" stroke-miterlimit="4" >
	<path d="
	M 1296.5 683.5 
	C 1296.5 743.148 1248.15 791.5 1188.5 791.5 
	L 108.5 791.5 
	C 48.8516 791.5 0.5 743.148 0.5 683.5 
	L 0.5 -396.5 
	C 0.5 -456.14 48.8516 -504.5 108.5 -504.5 
	L 1188.5 -504.5 
	C 1248.15 -504.5 1296.5 -456.14 1296.5 -396.5 
	Z 
	"/>
</g>
<g fill="#96c87f" fill-rule="nonzero" stroke-width="0" stroke-linejoin="miter" stroke-linecap="butt" stroke-miterlimit="4" >
	<path d="
	M 108.5 755.5 
	C 68.7969 755.5 36.5 723.199 36.5 683.5 
	L 36.5 -396.5 
	C 36.5 -436.2 68.7969 -468.5 108.5 -468.5 
	L 1188.5 -468.5 
	C 1228.2 -468.5 1260.5 -436.2 1260.5 -396.5 
	L 1260.5 683.5 
	C 1260.5 723.199 1228.2 755.5 1188.5 755.5 
	Z 
	"/>
</g>
<g fill="#ffffff" fill-rule="evenodd" stroke-width="0" stroke-linejoin="miter" stroke-linecap="butt" stroke-miterlimit="4" >
	<path d="
	M 802.125 250.883 
	L 932.211 229.676 
	L 850.234 123.145 
	C 807.723 160.207 802.422 204.746 802.125 250.883 
	Z 
	M 766.316 258.676 
	C 766.121 254.09 765.355 246.645 765.355 241.465 
	C 765.355 188.738 782.418 137.52 828.684 94.957 
	L 780.473 37.273 
	L 705.898 264.844 
	L 766.316 258.676 
	Z 
	M 480.008 32.242 
	L 484.148 19.566 
	L 749.816 19.195 
	L 679.145 233.449 
	L 676.082 211.105 
	L 684.223 211.105 
	L 683.234 196.855 
	L 647.648 196.855 
	L 648.684 210.098 
	L 657.809 210.098 
	L 659.855 234.461 
	C 659.855 234.461 481.016 33.23 480.008 32.242 
	Z 
	M 362.324 238.062 
	C 398.008 209.652 425.801 182.676 445.824 128.617 
	C 477.418 157.273 495.441 198.777 495.441 241.465 
	C 495.441 326.246 426.293 395.348 341.559 395.348 
	C 256.801 395.348 187.676 326.246 187.676 241.465 
	C 187.676 156.703 256.801 87.559 341.559 87.559 
	C 368.586 87.559 396.258 95.375 418.574 108.543 
	C 403.484 156.285 388.809 180.824 342.348 218.234 
	C 331.105 218.676 322.496 227.754 322.496 238.555 
	C 322.496 249.727 331.648 258.875 342.844 258.875 
	C 354.039 258.875 362.324 249.727 362.324 238.062 
	Z 
	M 807.574 283.609 
	C 824.961 348.418 886.883 395.348 955.414 395.348 
	C 1040.17 395.348 1109.3 326.246 1109.3 241.465 
	C 1109.3 156.703 1040.17 87.559 955.414 87.559 
	C 928.359 87.559 897.043 93.945 874.23 107.312 
	L 957.758 218.234 
	C 967.969 218.355 976.848 227.48 976.848 238.555 
	C 976.848 249.727 967.723 258.875 956.551 258.875 
	C 953.441 258.875 950.188 258.062 947.426 256.754 
	L 807.574 283.609 
	Z 
	M 429.551 72.934 
	L 484.074 -77.449 
	L 466.789 -106.918 
	L 501.336 -144.5 
	L 575.516 -144.5 
	L 576.527 -123.168 
	L 511.473 -123.168 
	L 498.254 -108.965 
	L 513.52 -81.543 
	L 494.355 -13.574 
	L 760.547 -13.574 
	L 764.617 -25.98 
	C 743.234 -28.77 706.316 -41.984 697.516 -49.633 
	C 688.711 -57.273 696.402 -64.328 706.441 -64.648 
	C 758.969 -66.867 837.02 -71.281 851.891 -71.355 
	C 866.711 -71.406 868.215 -63.957 858.301 -53.156 
	C 848.363 -42.281 839.684 -32.441 802.074 -26.621 
	L 791.914 0.801025 
	L 854.898 78.828 
	C 884.613 60.773 920.496 51.453 955.414 51.453 
	C 1060.05 51.453 1145.45 136.781 1145.45 241.465 
	C 1145.45 346.125 1060.05 431.5 955.414 431.5 
	C 869.277 431.5 793.566 372.094 771.324 290.07 
	L 713.418 300.453 
	C 710.98 307.285 705.184 312.512 698.277 316.605 
	L 708.609 365.531 
	L 721.828 365.531 
	L 722.816 378.75 
	L 681.188 380.797 
	L 681.188 366.57 
	L 691.348 366.57 
	L 678.746 317.668 
	C 660.055 314.562 650.215 298.551 655.789 282.621 
	L 466.738 68.789 
	L 458.254 91.699 
	C 504.176 127.879 531.598 183.562 531.598 241.465 
	C 531.598 346.125 446.242 431.5 341.559 431.5 
	C 236.898 431.5 151.551 346.125 151.551 241.465 
	C 151.551 136.781 236.898 51.453 341.559 51.453 
	C 371.992 51.453 403.188 58.828 429.551 72.934 
	Z 
	"/>
</g>
</g >
</g>
</svg>
