<?xml version="1.0" encoding="UTF-8" standalone="no"?>
<!-- Created with Inkscape (http://www.inkscape.org/) -->

<svg
   version="1.1"
   id="svg1"
   width="1729.3333"
   height="1729.3333"
   viewBox="0 0 1729.3333 1729.3333"
   sodipodi:docname="tmp0cmloov4.pdf"
   xmlns:inkscape="http://www.inkscape.org/namespaces/inkscape"
   xmlns:sodipodi="http://sodipodi.sourceforge.net/DTD/sodipodi-0.dtd"
   xmlns="http://www.w3.org/2000/svg"
   xmlns:svg="http://www.w3.org/2000/svg">
  <defs
     id="defs1" />
  <sodipodi:namedview
     id="namedview1"
     pagecolor="#ffffff"
     bordercolor="#000000"
     borderopacity="0.25"
     inkscape:showpageshadow="2"
     inkscape:pageopacity="0.0"
     inkscape:pagecheckerboard="0"
     inkscape:deskcolor="#d1d1d1">
    <inkscape:page
       x="0"
       y="0"
       inkscape:label="1"
       id="page1"
       width="1729.3333"
       height="1729.3333"
       margin="0"
       bleed="0" />
  </sodipodi:namedview>
  <g
     id="g1"
     inkscape:groupmode="layer"
     inkscape:label="1">
    <g
       id="group-R5">
      <path
         id="path2"
         d="M 12965,1085 C 12965,488.5 12481.5,5 11885,5 H 1085 C 488.535,5 5,488.5 5,1085 v 10800 c 0,596.5 483.535,1080 1080,1080 h 10800 c 596.5,0 1080,-483.5 1080,-1080 V 1085"
         style="fill:#ffffff;fill-opacity:1;fill-rule:nonzero;stroke:none"
         transform="matrix(0.13333333,0,0,-0.13333333,0,1729.3333)" />
      <path
         id="path3"
         d="M 12965,1085 C 12965,488.5 12481.5,5 11885,5 H 1085 C 488.535,5 5,488.5 5,1085 v 10800 c 0,596.5 483.535,1080 1080,1080 h 10800 c 596.5,0 1080,-483.5 1080,-1080 z"
         style="fill:none;stroke:#231f20;stroke-width:10;stroke-linecap:butt;stroke-linejoin:miter;stroke-miterlimit:4;stroke-dasharray:none;stroke-opacity:1"
         transform="matrix(0.13333333,0,0,-0.13333333,0,1729.3333)" />
      <path
         id="path4"
         d="m 1085,365 c -397.012,0 -720,323 -720,720 v 10800 c 0,397 322.988,720 720,720 h 10800 c 397,0 720,-323 720,-720 V 1085 c 0,-397 -323,-720 -720,-720 H 1085"
         style="fill:#00674e;fill-opacity:1;fill-rule:nonzero;stroke:none"
         transform="matrix(0.13333333,0,0,-0.13333333,0,1729.3333)" />
      <path
         id="path5"
         d="m 6091.7,10985 c 362.71,0 658.55,-295.8 658.55,-658.5 0,-362.75 -295.84,-658.58 -658.55,-658.58 -362.7,0 -658.52,295.83 -658.52,658.58 0,362.7 295.82,658.5 658.52,658.5"
         style="fill:#ffffff;fill-opacity:1;fill-rule:evenodd;stroke:none"
         transform="matrix(0.13333333,0,0,-0.13333333,0,1729.3333)" />
      <path
         id="path6"
         d="m 4097.8,6832.56 1381.43,920.94 c 63.83,269.91 328.72,1468.18 860.1,1745.5 526.32,347.98 2466.84,-1081.52 2477.98,-1093.26 V 6320.36 l -420.71,73.18 -164.65,1664.62 c -158.54,31.88 -317.08,63.77 -475.59,95.67 346.42,-895.62 473.66,-1758.73 274.37,-2327.38 L 8872.2,2387.4 8305.13,1985 7079.52,5167.93 6512.44,4564.27 5725.86,2167.9 l -750.01,274.4 676.84,2524.41 786.59,1408.53 -301.53,1039.54 -320.43,-417.58 -1500,-493.91 -219.52,329.27"
         style="fill:#ffffff;fill-opacity:1;fill-rule:evenodd;stroke:none"
         transform="matrix(0.13333333,0,0,-0.13333333,0,1729.3333)" />
    </g>
  </g>
</svg>
