<?xml version="1.0" standalone="no"?>
<svg width="1297px" height="1297px" viewBox="0 -505 1297 1297 " xmlns="http://www.w3.org/2000/svg" xmlns:xlink="http://www.w3.org/1999/xlink">
<title>generated by pstoedit</title>
<!-- generated by pstoedit version:4.02 -->
<g xml:space='preserve'>
<clipPath id="clippath1"> 	<path d="
	M 0 -505 
	L 0 792 
	L 1297 792 
	L 1297 -505 
	Z 
	" style="clip-rule:nonzero"/>
</clipPath>
<g style="clip-path:url(#clippath1)"> 
<g fill="#ffffff" fill-rule="nonzero" stroke-width="0" stroke-linejoin="miter" stroke-linecap="butt" stroke-miterlimit="10" >
	<path d="
	M 1296.5 683.5 
	C 1296.5 743.148 1248.15 791.5 1188.5 791.5 
	L 108.5 791.5 
	C 48.8516 791.5 0.5 743.148 0.5 683.5 
	L 0.5 -396.5 
	C 0.5 -456.14 48.8516 -504.5 108.5 -504.5 
	L 1188.5 -504.5 
	C 1248.15 -504.5 1296.5 -456.14 1296.5 -396.5 
	Z 
	"/>
</g>
<g stroke="#7f7f7f" fill="none" stroke-width="1" stroke-linejoin="miter" stroke-linecap="butt" stroke-miterlimit="4" >
	<path d="
	M 1296.5 683.5 
	C 1296.5 743.148 1248.15 791.5 1188.5 791.5 
	L 108.5 791.5 
	C 48.8516 791.5 0.5 743.148 0.5 683.5 
	L 0.5 -396.5 
	C 0.5 -456.14 48.8516 -504.5 108.5 -504.5 
	L 1188.5 -504.5 
	C 1248.15 -504.5 1296.5 -456.14 1296.5 -396.5 
	Z 
	"/>
</g>
<g fill="#96c87f" fill-rule="nonzero" stroke-width="0" stroke-linejoin="miter" stroke-linecap="butt" stroke-miterlimit="4" >
	<path d="
	M 108.5 755.5 
	C 68.7969 755.5 36.5 723.199 36.5 683.5 
	L 36.5 -396.5 
	C 36.5 -436.2 68.7969 -468.5 108.5 -468.5 
	L 1188.5 -468.5 
	C 1228.2 -468.5 1260.5 -436.2 1260.5 -396.5 
	L 1260.5 683.5 
	C 1260.5 723.199 1228.2 755.5 1188.5 755.5 
	Z 
	"/>
</g>
<g fill="#ffffff" fill-rule="evenodd" stroke-width="0" stroke-linejoin="miter" stroke-linecap="butt" stroke-miterlimit="4" >
	<path d="
	M 663.609 -197.969 
	C 688.543 -197.969 708.875 -218.3 708.875 -243.23 
	C 708.875 -268.16 688.543 -288.5 663.609 -288.5 
	C 638.676 -288.5 618.344 -268.16 618.344 -243.23 
	C 618.344 -218.3 638.676 -197.969 663.609 -197.969 
	Z 
	"/>
</g>
<g fill="#ffffff" fill-rule="evenodd" stroke-width="0" stroke-linejoin="miter" stroke-linecap="butt" stroke-miterlimit="4" >
	<path d="
	M 267.66 204.574 
	C 262.5 206.531 257.227 207.801 251.145 204.23 
	C 241.906 201.363 238.465 195.168 238.41 187.711 
	C 243.801 189.09 246.785 192.184 252.176 193.562 
	C 262.27 198.234 272.363 196.918 282.461 191.496 
	C 311.699 176 338.246 157.809 364.707 139.531 
	C 367.574 140.91 370.441 142.285 373.309 143.66 
	C 338.094 163.969 302.879 184.27 267.66 204.574 
	Z 
	M 260.777 154.676 
	C 280.051 148.824 297.027 137.469 311.711 120.605 
	C 329.031 120.836 344.516 126.109 358.168 136.437 
	C 337.734 151.434 316.887 165.602 295.535 178.762 
	C 280.422 186.355 265.332 193.461 251.145 185.301 
	C 247.703 183.469 245.637 180.715 244.949 177.043 
	C 250.227 169.586 255.504 162.133 260.777 154.676 
	Z 
	M 1097.76 517.289 
	C 1080.97 471.711 1070.78 422.004 1070.23 366.27 
	C 1067.61 359.449 1064.99 352.633 1062.36 345.816 
	C 1045.12 326.398 1029.14 303.809 1015.96 274.234 
	C 1018.31 270.562 1020.68 266.895 1023.03 263.223 
	C 1046.18 301.977 1072.12 314.195 1099.33 314.355 
	C 1078.99 276.168 1069.81 232.902 1071.8 184.562 
	C 1081.34 92.168 1029.95 44.445 917.633 41.406 
	C 861.043 45.199 803.027 54.305 755.594 24.102 
	C 758.426 -63.145 753.75 -146.445 706.039 -207.156 
	C 691.117 -198.055 675.809 -191.707 659.629 -191.426 
	C 653.078 -158.129 646.52 -124.828 639.965 -91.527 
	C 639.125 -85.441 637.027 -81.246 633.672 -78.941 
	C 600.637 -53.512 567.598 -28.074 534.563 -2.64502 
	C 544.523 4.43701 554.488 11.516 564.453 18.594 
	C 584.902 6.008 605.355 -6.57397 625.805 -19.164 
	C 624.496 -11.559 623.184 -3.953 621.871 3.64801 
	C 619.742 11.676 616.598 16.656 612.434 18.594 
	C 598.273 27.246 584.117 35.898 569.957 44.555 
	C 561.043 41.406 552.129 38.262 543.215 35.113 
	C 546.621 31.441 550.031 27.77 553.438 24.102 
	C 545.574 18.332 537.711 12.562 529.844 6.797 
	C 521.977 13.875 514.109 20.953 506.246 28.035 
	C 427.504 7.078 349.945 -10.332 274.988 -19.949 
	C 269.063 -28.602 261.566 -37.254 250.602 -45.906 
	C 248.504 -43.809 246.406 -41.711 244.309 -39.613 
	C 240.113 -42.234 235.922 -44.855 231.723 -47.48 
	C 231.199 -43.809 230.676 -40.137 230.152 -36.469 
	C 233.82 -25.98 237.492 -15.492 241.164 -5.00403 
	C 216.938 51.156 192.535 107.457 179.809 154.676 
	C 177.168 160.707 180.059 165.637 183.742 170.406 
	C 193.961 182.219 206.391 189.609 219.141 196.363 
	C 222.023 195.836 224.906 195.316 227.793 194.793 
	C 233.555 203.453 241.527 208.801 249.816 213.672 
	C 257 216.82 263.555 216.82 269.48 213.672 
	C 306.188 191.645 342.895 169.621 379.602 147.598 
	C 388.258 156.25 396.91 164.898 405.563 173.555 
	C 411.723 179.848 416.703 186.137 420.508 192.43 
	C 426.273 211.836 432.043 231.234 437.809 250.641 
	C 440.602 257.98 441.32 265.32 441.742 272.664 
	C 436.762 306.227 431.781 339.785 426.797 373.348 
	C 425.363 377.805 424.395 382.418 422.438 386.594 
	C 404.691 424.371 389.813 460.367 373.383 494.406 
	C 362.258 517.449 339.305 534.648 324.543 555.051 
	C 323.355 559.828 325.781 560.969 329.262 562.129 
	C 347.613 562.129 365.969 562.129 384.324 562.129 
	C 386.684 560.289 389.043 558.461 391.402 556.621 
	C 391.383 542.109 400.469 531.801 415.785 524.371 
	C 419.105 523.18 420.344 518.891 421.293 514.141 
	C 430.84 470.148 447.91 426.777 485.793 385.145 
	C 489.332 380.82 491.691 375.312 492.871 368.625 
	C 495.391 357.145 486.266 355.41 535.348 304.914 
	C 567.848 370.211 604.383 433.516 662.773 490.551 
	C 665.504 497 670.668 501.012 676.938 503.922 
	C 679.359 505.949 681.195 508.57 682.441 511.789 
	C 684.277 524.898 686.113 538 687.945 551.121 
	C 688.34 555.109 689.914 556.16 692.668 554.262 
	C 706.824 542.461 720.98 530.66 735.141 518.871 
	C 736.063 515.98 735.797 513.102 734.355 510.211 
	C 728.852 504.711 723.344 499.199 717.84 493.695 
	C 715.477 491.074 713.117 488.449 710.758 485.828 
	C 708.66 481.633 706.563 477.437 704.465 473.242 
	C 702.367 470.621 700.27 468 698.176 465.379 
	C 674.676 446.82 658.738 422.973 647.043 396.156 
	C 642.191 386.719 638.523 377.281 636.031 367.844 
	C 633.539 345.555 630.27 323.266 624.23 300.98 
	C 707.543 300.602 777.793 293.187 819.305 270.305 
	C 828.551 332.937 824.227 396.844 795.711 463.02 
	C 790.145 479.527 782.004 495.672 768.18 511 
	C 755.598 522.801 740.578 533.988 733.57 547.18 
	C 730.844 551.012 734.41 553.27 736.715 555.84 
	C 757.953 556.102 779.191 556.359 800.43 556.621 
	C 798.563 549.59 801.879 543.59 805.938 537.738 
	C 811.18 534.602 816.422 531.449 821.668 528.309 
	C 823.043 527.98 823.828 525.879 824.027 522.012 
	C 830.875 481.48 850.16 449.238 871.223 418.184 
	C 874.633 414.25 878.039 410.316 881.449 406.383 
	C 886.941 396.52 888.934 385.961 888.527 374.922 
	C 888.789 367.844 889.051 360.762 889.313 353.684 
	C 895.23 327.379 903.063 306.832 913.699 294.687 
	C 945.949 324.578 978.199 354.469 1010.45 384.359 
	C 1021.99 393.535 1025.66 410.578 1030.9 426.051 
	C 1034.83 448.07 1038.77 470.098 1042.7 492.121 
	C 1042.58 498.578 1045.56 502.969 1048.99 507.07 
	C 1055.1 517.551 1061.44 528.039 1063.94 538.531 
	C 1066.56 540.891 1069.18 543.25 1071.8 545.609 
	C 1084.65 557.051 1097.5 566.43 1110.35 575.5 
	C 1112.97 560.031 1115.59 544.559 1118.21 529.09 
	C 1111.39 525.16 1104.58 521.23 1097.76 517.289 
	Z 
	"/>
</g>
</g >
</g>
</svg>
