<?xml version="1.0" encoding="UTF-8" standalone="no"?>
<!-- Created with Inkscape (http://www.inkscape.org/) -->

<svg
   version="1.1"
   id="svg1"
   width="1729.3333"
   height="1729.3333"
   viewBox="0 0 1729.3333 1729.3333"
   sodipodi:docname="tmpme82g7c_.pdf"
   xmlns:inkscape="http://www.inkscape.org/namespaces/inkscape"
   xmlns:sodipodi="http://sodipodi.sourceforge.net/DTD/sodipodi-0.dtd"
   xmlns="http://www.w3.org/2000/svg"
   xmlns:svg="http://www.w3.org/2000/svg">
  <defs
     id="defs1" />
  <sodipodi:namedview
     id="namedview1"
     pagecolor="#ffffff"
     bordercolor="#000000"
     borderopacity="0.25"
     inkscape:showpageshadow="2"
     inkscape:pageopacity="0.0"
     inkscape:pagecheckerboard="0"
     inkscape:deskcolor="#d1d1d1">
    <inkscape:page
       x="0"
       y="0"
       inkscape:label="1"
       id="page1"
       width="1729.3333"
       height="1729.3333"
       margin="0"
       bleed="0" />
  </sodipodi:namedview>
  <g
     id="g1"
     inkscape:groupmode="layer"
     inkscape:label="1">
    <g
       id="group-R5">
      <path
         id="path2"
         d="M 12965,1085 C 12965,488.5 12481.5,5 11885,5 H 1085 C 488.535,5 5,488.5 5,1085 v 10800 c 0,596.5 483.535,1080 1080,1080 h 10800 c 596.5,0 1080,-483.5 1080,-1080 V 1085"
         style="fill:#ffffff;fill-opacity:1;fill-rule:nonzero;stroke:none"
         transform="matrix(0.13333333,0,0,-0.13333333,0,1729.3333)" />
      <path
         id="path3"
         d="M 12965,1085 C 12965,488.5 12481.5,5 11885,5 H 1085 C 488.535,5 5,488.5 5,1085 v 10800 c 0,596.5 483.535,1080 1080,1080 h 10800 c 596.5,0 1080,-483.5 1080,-1080 z"
         style="fill:none;stroke:#231f20;stroke-width:10;stroke-linecap:butt;stroke-linejoin:miter;stroke-miterlimit:4;stroke-dasharray:none;stroke-opacity:1"
         transform="matrix(0.13333333,0,0,-0.13333333,0,1729.3333)" />
      <path
         id="path4"
         d="m 1085,365 c -397.012,0 -720,323 -720,720 v 10800 c 0,397 322.988,720 720,720 h 10800 c 397,0 720,-323 720,-720 V 1085 c 0,-397 -323,-720 -720,-720 H 1085"
         style="fill:#00674e;fill-opacity:1;fill-rule:nonzero;stroke:none"
         transform="matrix(0.13333333,0,0,-0.13333333,0,1729.3333)" />
      <path
         id="path5"
         d="m 6636.09,9899.68 c 249.32,0 452.66,203.32 452.66,452.72 0,249.3 -203.34,452.6 -452.66,452.6 -249.33,0 -452.67,-203.3 -452.67,-452.6 0,-249.4 203.34,-452.72 452.67,-452.72"
         style="fill:#ffffff;fill-opacity:1;fill-rule:evenodd;stroke:none"
         transform="matrix(0.13333333,0,0,-0.13333333,0,1729.3333)" />
      <path
         id="path6"
         d="m 2676.62,5874.26 c -51.61,-19.57 -104.37,-32.25 -165.19,3.45 -92.36,28.67 -126.77,90.63 -127.33,165.17 53.91,-13.76 83.74,-44.72 137.66,-58.5 100.94,-46.73 201.88,-33.54 302.84,20.65 292.39,154.98 557.87,336.88 822.47,519.66 28.67,-13.78 57.35,-27.54 86.03,-41.31 -352.15,-203.06 -704.33,-406.07 -1056.48,-609.12 z m -68.83,498.99 c 192.72,58.51 362.5,172.07 509.31,340.71 173.21,-2.31 328.07,-55.06 464.58,-158.32 -204.33,-149.97 -412.81,-291.65 -626.31,-423.27 -151.17,-75.93 -302.04,-146.96 -443.94,-65.39 -34.41,18.34 -55.06,45.87 -61.94,82.6 52.77,74.56 105.53,149.11 158.3,223.67 z M 10977.6,2747.1 c -167.9,455.8 -269.8,952.85 -275.3,1510.2 -26.2,68.21 -52.4,136.37 -78.7,204.54 -172.4,194.18 -332.2,420.07 -464,715.81 23.5,36.71 47.2,73.4 70.7,110.12 231.5,-387.52 490.9,-509.71 763,-511.31 -203.4,381.87 -295.2,814.5 -275.3,1297.9 95.4,923.98 -418.5,1401.19 -1541.67,1431.59 -565.9,-37.93 -1146.07,-129 -1620.38,173.03 28.29,872.45 -18.44,1705.49 -495.57,2312.58 -149.19,-91.02 -302.31,-154.48 -464.08,-157.31 -65.53,-332.98 -131.11,-665.97 -196.65,-998.96 -8.4,-60.86 -29.37,-102.82 -62.94,-125.87 -330.36,-254.32 -660.72,-508.66 -991.09,-762.97 99.63,-70.81 199.26,-141.59 298.9,-212.4 204.51,125.86 409.03,251.71 613.54,377.58 -13.11,-76.04 -26.22,-152.08 -39.33,-228.12 -21.3,-80.28 -52.77,-130.08 -94.39,-149.46 -141.59,-86.52 -283.17,-173.04 -424.76,-259.58 -89.15,31.48 -178.29,62.93 -267.45,94.4 34.1,36.71 68.19,73.42 102.26,110.11 -78.65,57.7 -157.3,115.39 -235.97,173.07 -78.66,-70.8 -157.32,-141.59 -235.97,-212.39 -787.41,209.55 -1562.98,383.67 -2312.58,479.83 -59.23,86.52 -134.21,173.04 -243.84,259.57 -20.99,-20.98 -41.96,-41.96 -62.93,-62.92 -41.95,26.22 -83.9,52.43 -125.86,78.65 -5.23,-36.71 -10.49,-73.41 -15.73,-110.12 36.71,-104.88 73.42,-209.75 110.12,-314.64 -242.24,-561.59 -486.27,-1124.59 -613.54,-1596.78 -26.41,-60.31 2.51,-109.61 39.33,-157.31 102.18,-118.14 226.5,-192.03 353.97,-259.57 28.85,5.26 57.68,10.47 86.53,15.72 57.61,-86.63 137.34,-140.08 220.24,-188.79 71.85,-31.49 137.4,-31.49 196.64,0 367.08,220.25 734.15,440.49 1101.23,660.73 86.53,-86.52 173.06,-173.02 259.58,-259.57 61.62,-62.93 111.44,-125.83 149.45,-188.75 57.69,-194.05 115.36,-388.06 173.04,-582.11 27.93,-73.4 35.12,-146.8 39.34,-220.23 -49.82,-335.62 -99.63,-671.23 -149.46,-1006.85 -14.33,-44.58 -24.02,-90.71 -43.62,-132.46 -177.43,-377.77 -326.23,-737.73 -490.55,-1078.11 -111.23,-230.45 -340.76,-402.45 -488.39,-606.45 -11.85,-47.8 12.4,-59.2 47.2,-70.8 183.53,0 367.07,0 550.61,0 23.59,18.4 47.19,36.7 70.79,55.1 -0.19,145.1 90.67,248.2 243.84,322.5 33.18,11.9 45.58,54.8 55.06,102.3 95.49,439.9 266.2,873.61 645,1289.95 35.4,43.26 59,98.33 70.8,165.19 25.18,114.81 -66.07,132.14 424.77,637.12 324.99,-652.98 690.35,-1286 1274.26,-1856.36 27.3,-64.5 78.93,-104.6 141.62,-133.7 24.21,-20.3 42.57,-46.5 55.03,-78.7 18.36,-131.1 36.73,-262.1 55.07,-393.3 3.93,-39.9 19.67,-50.4 47.2,-31.4 141.57,118 283.15,236 424.75,353.9 9.19,28.9 6.55,57.7 -7.87,86.6 -55.04,55 -110.1,110.1 -165.16,165.16 -23.62,26.21 -47.21,52.43 -70.8,78.66 -20.99,41.94 -41.96,83.9 -62.93,125.85 -20.98,26.22 -41.95,52.42 -62.92,78.65 -234.97,185.59 -394.34,424.06 -511.31,692.2 -48.51,94.38 -85.21,188.78 -110.11,283.16 -24.94,222.87 -57.62,445.76 -118.01,668.62 833.11,3.79 1535.62,77.93 1950.75,306.75 92.44,-626.33 49.2,-1265.38 -235.96,-1927.14 -55.64,-165.07 -137.07,-326.51 -275.29,-479.81 -125.83,-118 -276.02,-229.9 -346.12,-361.8 -27.26,-38.3 8.4,-60.9 31.47,-86.6 212.38,-2.6 424.75,-5.2 637.15,-7.8 -18.68,70.3 14.47,130.3 55.06,188.8 52.43,31.4 104.86,62.9 157.31,94.3 13.75,3.3 21.61,24.3 23.58,63 68.5,405.31 261.34,727.71 471.98,1038.26 34.09,39.34 68.15,78.69 102.24,118 54.94,98.63 74.86,204.24 70.79,314.64 2.62,70.78 5.25,141.57 7.87,212.37 59.15,263.04 137.49,468.52 243.84,589.96 322.5,-298.9 645,-597.82 967.52,-896.71 115.4,-91.77 152.1,-262.21 204.5,-416.91 39.3,-220.22 78.7,-440.5 118,-660.73 -1.2,-64.58 28.6,-108.48 62.9,-149.48 61.1,-104.8 124.5,-209.7 149.5,-314.6 26.2,-23.6 52.4,-47.2 78.6,-70.8 128.5,-114.4 257,-208.2 385.5,-298.9 26.2,154.7 52.4,309.4 78.6,464.1 -68.2,39.3 -136.3,78.6 -204.5,118"
         style="fill:#ffffff;fill-opacity:1;fill-rule:evenodd;stroke:none"
         transform="matrix(0.13333333,0,0,-0.13333333,0,1729.3333)" />
    </g>
  </g>
</svg>
