<?xml version="1.0" encoding="UTF-8" standalone="no"?>
<!-- Created with Inkscape (http://www.inkscape.org/) -->

<svg
   version="1.1"
   id="svg1"
   width="9216.667"
   height="4608.6665"
   viewBox="0 0 9216.667 4608.6665"
   sodipodi:docname="tmpdeyl9n8v.pdf"
   xmlns:inkscape="http://www.inkscape.org/namespaces/inkscape"
   xmlns:sodipodi="http://sodipodi.sourceforge.net/DTD/sodipodi-0.dtd"
   xmlns="http://www.w3.org/2000/svg"
   xmlns:svg="http://www.w3.org/2000/svg">
  <defs
     id="defs1" />
  <sodipodi:namedview
     id="namedview1"
     pagecolor="#ffffff"
     bordercolor="#000000"
     borderopacity="0.25"
     inkscape:showpageshadow="2"
     inkscape:pageopacity="0.0"
     inkscape:pagecheckerboard="0"
     inkscape:deskcolor="#d1d1d1">
    <inkscape:page
       x="0"
       y="0"
       inkscape:label="1"
       id="page1"
       width="9216.667"
       height="4608.6665"
       margin="0"
       bleed="0" />
  </sodipodi:namedview>
  <g
     id="g1"
     inkscape:groupmode="layer"
     inkscape:label="1">
    <g
       id="group-R5">
      <path
         id="path2"
         d="m 69122.5,2162.5 c 0,-1192.898 -967.1,-2160 -2160,-2160 H 2162.5 C 969.566,2.5 2.5,969.602 2.5,2162.5 v 30240 c 0,1192.9 967.066,2160 2160,2160 h 64800 c 1192.9,0 2160,-967.1 2160,-2160 v -30240"
         style="fill:#ffffff;fill-opacity:1;fill-rule:nonzero;stroke:none"
         transform="matrix(0.13333333,0,0,-0.13333333,0,4608.6667)" />
      <path
         id="path3"
         d="m 69122.5,2162.5 c 0,-1192.898 -967.1,-2160 -2160,-2160 H 2162.5 C 969.566,2.5 2.5,969.602 2.5,2162.5 v 30240 c 0,1192.9 967.066,2160 2160,2160 h 64800 c 1192.9,0 2160,-967.1 2160,-2160 z"
         style="fill:none;stroke:#231f20;stroke-width:5;stroke-linecap:butt;stroke-linejoin:miter;stroke-miterlimit:4;stroke-dasharray:none;stroke-opacity:1"
         transform="matrix(0.13333333,0,0,-0.13333333,0,4608.6667)" />
      <path
         id="path4"
         d="m 2162.5,722.5 c -794.02,0 -1440,646 -1440,1440 v 30240 c 0,794 645.98,1440 1440,1440 h 64800 c 794,0 1440,-646 1440,-1440 v -30240 c 0,-794 -646,-1440 -1440,-1440 h -64800"
         style="fill:#15569c;fill-opacity:1;fill-rule:nonzero;stroke:none"
         transform="matrix(0.13333333,0,0,-0.13333333,0,4608.6667)" />
      <path
         id="path5"
         d="m 53969.6,20048.8 c -1705.2,0 -2751.1,1341.5 -2751.1,3365.1 0,2046.3 1045.9,3342.3 2751.1,3342.3 1045.8,0 2000.8,-523 2501,-1432.4 l -1023.2,-545.7 c -181.9,272.8 -272.8,363.8 -454.7,477.5 -250.1,204.6 -682.1,341 -1023.1,341 -1182.3,0 -1568.8,-1159.6 -1568.8,-2160 0,-1409.7 591.2,-2228.2 1568.8,-2228.2 591.1,0 909.4,204.6 1477.8,818.5 l 1023.2,-545.7 c -477.5,-909.4 -1455.2,-1432.4 -2501,-1432.4"
         style="fill:#ffffff;fill-opacity:1;fill-rule:nonzero;stroke:none"
         transform="matrix(0.13333333,0,0,-0.13333333,0,4608.6667)" />
      <path
         id="path6"
         d="m 5132.79,20162.5 v 6480 H 9878.73 V 25482.9 H 6319.29 v -1205 H 8258.71 V 23095.6 H 6319.29 V 21322.1 H 9992.81 V 20162.5 H 5132.79"
         style="fill:#ffffff;fill-opacity:1;fill-rule:nonzero;stroke:none"
         transform="matrix(0.13333333,0,0,-0.13333333,0,4608.6667)" />
      <path
         id="path7"
         d="m 19068,20162.5 v 6480 h 4746 v -1159.6 h -3559.5 v -1205 h 1939.4 v -1182.3 h -1939.4 v -1773.5 h 3673.6 V 20162.5 H 19068"
         style="fill:#ffffff;fill-opacity:1;fill-rule:nonzero;stroke:none"
         transform="matrix(0.13333333,0,0,-0.13333333,0,4608.6667)" />
      <path
         id="path8"
         d="m 38320.1,20162.5 v 6480 H 43066 v -1159.6 h -3559.4 v -1205 H 41446 v -1182.3 h -1939.4 v -1773.5 h 3673.5 v -1159.6 h -4860"
         style="fill:#ffffff;fill-opacity:1;fill-rule:nonzero;stroke:none"
         transform="matrix(0.13333333,0,0,-0.13333333,0,4608.6667)" />
      <path
         id="path9"
         d="m 36829.7,23391.1 v -841.2 c 0,-1409.7 -1136.8,-2501.1 -2569.2,-2501.1 -1909.8,0 -2682.8,1682.5 -2682.8,3365.1 0,1978.1 1068.6,3342.3 2682.8,3342.3 1159.6,0 1955.3,-613.9 2410,-1614.3 l -1182.2,-409.3 c -250.1,545.7 -659.4,864 -1227.8,864 -909.4,0 -1523.3,-909.5 -1523.3,-2182.7 0,-1045.9 318.3,-2205.5 1523.3,-2205.5 636.6,0 1205,432 1364.2,1023.2 h -1068.6 v 1159.5 h 2273.6"
         style="fill:#ffffff;fill-opacity:1;fill-rule:nonzero;stroke:none"
         transform="matrix(0.13333333,0,0,-0.13333333,0,4608.6667)" />
      <path
         id="path10"
         d="m 16242,20162.5 v 3956.2 l -1917.4,-3956.2 -1894.5,3956.2 v -3956.2 h -1141.3 v 6480 h 1141.3 L 14324.6,22800 16242,26642.5 h 1141.2 v -6480 H 16242"
         style="fill:#ffffff;fill-opacity:1;fill-rule:nonzero;stroke:none"
         transform="matrix(0.13333333,0,0,-0.13333333,0,4608.6667)" />
      <path
         id="path11"
         d="m 48723.4,20162.5 -3105.6,4456.4 v -4456.4 h -1141.7 v 6480 h 1141.7 L 48609.2,22368 v 4274.5 h 1118.9 v -6480 h -1004.7"
         style="fill:#ffffff;fill-opacity:1;fill-rule:nonzero;stroke:none"
         transform="matrix(0.13333333,0,0,-0.13333333,0,4608.6667)" />
      <path
         id="path12"
         d="M 28249.1,25482.9 H 26383 v -1614.3 h 1866.1 c 568.1,0 931.7,318.3 931.7,795.8 0,500.2 -363.6,818.5 -931.7,818.5 z m 931.7,-5320.4 -1045.4,2546.5 H 26383 v -2546.5 h -1159 v 6480 h 3002.3 c 477.2,0 772.7,-68.2 1113.5,-272.8 613.6,-341.1 999.9,-977.7 999.9,-1705.3 0,-727.6 -386.3,-1364.2 -1045.3,-1728 l 1181.7,-2773.9 h -1295.3"
         style="fill:#ffffff;fill-opacity:1;fill-rule:nonzero;stroke:none"
         transform="matrix(0.13333333,0,0,-0.13333333,0,4608.6667)" />
      <path
         id="path13"
         d="M 61264.6,22800 V 20162.5 H 60105.3 V 22800 l -2727.6,3842.5 h 1432 l 1886.6,-2637.5 1863.9,2637.5 h 1432 L 61264.6,22800"
         style="fill:#ffffff;fill-opacity:1;fill-rule:nonzero;stroke:none"
         transform="matrix(0.13333333,0,0,-0.13333333,0,4608.6667)" />
      <path
         id="path14"
         d="m 21289.9,12788.2 -909.2,-2182.8 h 1818.4 z m 2045.7,-4865.7 -636.5,1523.3 h -2818.5 l -636.4,-1523.3 h -1272.9 l 2727.6,6480 h 1182 l 2704.8,-6480 h -1250.1"
         style="fill:#ffffff;fill-opacity:1;fill-rule:nonzero;stroke:none"
         transform="matrix(0.13333333,0,0,-0.13333333,0,4608.6667)" />
      <path
         id="path15"
         d="m 14563.1,7808.8 c -1705.2,0 -2751.1,1341.4 -2751.1,3365 0,2046.4 1045.9,3342.4 2751.1,3342.4 1045.9,0 2000.8,-523 2501,-1432.5 l -1023.2,-545.6 c -181.8,272.8 -272.8,363.7 -454.7,477.4 -250,204.7 -682,341.1 -1023.1,341.1 -1182.3,0 -1568.8,-1159.6 -1568.8,-2160 0,-1409.7 591.1,-2228.2 1568.8,-2228.2 591.1,0 909.5,204.6 1477.8,818.5 l 1023.2,-545.7 C 16586.6,8331.7 15609,7808.8 14563.1,7808.8"
         style="fill:#ffffff;fill-opacity:1;fill-rule:nonzero;stroke:none"
         transform="matrix(0.13333333,0,0,-0.13333333,0,4608.6667)" />
      <path
         id="path16"
         d="m 25687.3,7922.5 v 6480 H 26851 V 8922.9 h 3696.3 V 7922.5 h -4860"
         style="fill:#ffffff;fill-opacity:1;fill-rule:nonzero;stroke:none"
         transform="matrix(0.13333333,0,0,-0.13333333,0,4608.6667)" />
      <path
         id="path17"
         d="m 31648.9,7922.5 v 6480 h 1163.7 V 8922.9 h 3696.3 V 7922.5 h -4860"
         style="fill:#ffffff;fill-opacity:1;fill-rule:nonzero;stroke:none"
         transform="matrix(0.13333333,0,0,-0.13333333,0,4608.6667)" />
      <path
         id="path18"
         d="m 51257.9,7922.5 22.7,4842.9 h -813.8 l -22.6,932.2 c 497.3,113.7 768.5,295.6 1017.2,704.9 h 926.8 v -6480 h -1130.3"
         style="fill:#ffffff;fill-opacity:1;fill-rule:nonzero;stroke:none"
         transform="matrix(0.13333333,0,0,-0.13333333,0,4608.6667)" />
      <path
         id="path19"
         d="m 56182.7,7922.5 22.7,4842.9 h -813.8 l -22.6,932.2 c 497.3,113.7 768.5,295.6 1017.2,704.9 h 926.8 v -6480 h -1130.3"
         style="fill:#ffffff;fill-opacity:1;fill-rule:nonzero;stroke:none"
         transform="matrix(0.13333333,0,0,-0.13333333,0,4608.6667)" />
      <path
         id="path20"
         d="m 45523.6,13356.6 c -822,0 -1370.1,-318.3 -1370.1,-818.5 0,-477.5 548.1,-818.6 1393,-818.6 776.4,0 1324.4,341.1 1324.4,818.6 0,477.4 -548,818.5 -1347.3,818.5 z m 1004.8,-4820.2 c -730.8,-523 -1484.3,-727.6 -2603.2,-727.6 v 1182.3 h 114.2 c 662.2,0 1141.7,113.7 1598.4,363.8 593.7,341 936.2,727.6 1255.9,1432.4 -570.8,-181.9 -936.2,-227.3 -1461.4,-227.3 -1415.8,0 -2443.3,841.2 -2443.3,1978.1 0,1159.5 1027.5,1978.1 2489,1978.1 799.2,0 1484.3,-250.1 1986.6,-682.1 548,-477.5 776.4,-1114.1 776.4,-1978.2 0,-1364.2 -593.7,-2569.2 -1712.6,-3319.5"
         style="fill:#ffffff;fill-opacity:1;fill-rule:nonzero;stroke:none"
         transform="matrix(0.13333333,0,0,-0.13333333,0,4608.6667)" />
    </g>
  </g>
</svg>
