<?xml version="1.0" encoding="UTF-8" standalone="no"?>
<!-- Created with Inkscape (http://www.inkscape.org/) -->

<svg
   version="1.1"
   id="svg1"
   width="6336.6665"
   height="2880.6667"
   viewBox="0 0 6336.6665 2880.6667"
   sodipodi:docname="tmpixo2ge9m.pdf"
   xmlns:inkscape="http://www.inkscape.org/namespaces/inkscape"
   xmlns:sodipodi="http://sodipodi.sourceforge.net/DTD/sodipodi-0.dtd"
   xmlns="http://www.w3.org/2000/svg"
   xmlns:svg="http://www.w3.org/2000/svg">
  <defs
     id="defs1" />
  <sodipodi:namedview
     id="namedview1"
     pagecolor="#ffffff"
     bordercolor="#000000"
     borderopacity="0.25"
     inkscape:showpageshadow="2"
     inkscape:pageopacity="0.0"
     inkscape:pagecheckerboard="0"
     inkscape:deskcolor="#d1d1d1">
    <inkscape:page
       x="0"
       y="0"
       inkscape:label="1"
       id="page1"
       width="6336.6665"
       height="2880.6667"
       margin="0"
       bleed="0" />
  </sodipodi:namedview>
  <g
     id="g1"
     inkscape:groupmode="layer"
     inkscape:label="1">
    <g
       id="group-R5">
      <path
         id="path2"
         d="m 47522.5,1352.5 c 0,-745.602 -604.4,-1350 -1350,-1350 H 1352.5 C 606.914,2.5 2.5,606.898 2.5,1352.5 v 18900 c 0,745.6 604.414,1350 1350,1350 h 44820 c 745.6,0 1350,-604.4 1350,-1350 v -18900"
         style="fill:#ffffff;fill-opacity:1;fill-rule:nonzero;stroke:none"
         transform="matrix(0.13333333,0,0,-0.13333333,0,2880.6667)" />
      <path
         id="path3"
         d="m 47522.5,1352.5 c 0,-745.602 -604.4,-1350 -1350,-1350 H 1352.5 C 606.914,2.5 2.5,606.898 2.5,1352.5 v 18900 c 0,745.6 604.414,1350 1350,1350 h 44820 c 745.6,0 1350,-604.4 1350,-1350 z"
         style="fill:none;stroke:#231f20;stroke-width:5;stroke-linecap:butt;stroke-linejoin:miter;stroke-miterlimit:4;stroke-dasharray:none;stroke-opacity:1"
         transform="matrix(0.13333333,0,0,-0.13333333,0,2880.6667)" />
      <path
         id="path4"
         d="m 1352.5,542.5 c -446.637,0 -810,363.402 -810,810 v 18900 c 0,446.6 363.363,810 810,810 h 44820 c 446.6,0 810,-363.4 810,-810 v -18900 c 0,-446.598 -363.4,-810 -810,-810 h -44820"
         style="fill:#15569c;fill-opacity:1;fill-rule:nonzero;stroke:none"
         transform="matrix(0.13333333,0,0,-0.13333333,0,2880.6667)" />
      <path
         id="path5"
         d="m 36700.6,12526.7 c -1136.8,0 -1834.1,894.3 -1834.1,2243.4 0,1364.2 697.3,2228.2 1834.1,2228.2 697.2,0 1333.8,-348.7 1667.3,-955 l -682.1,-363.8 c -121.3,181.9 -181.9,242.6 -303.1,318.4 -166.8,136.4 -454.8,227.3 -682.1,227.3 -788.2,0 -1045.9,-773 -1045.9,-1440 0,-939.8 394.1,-1485.5 1045.9,-1485.5 394,0 606.3,136.5 985.2,545.7 l 682.1,-363.8 c -318.3,-606.3 -970.1,-954.9 -1667.3,-954.9"
         style="fill:#ffffff;fill-opacity:1;fill-rule:nonzero;stroke:none"
         transform="matrix(0.13333333,0,0,-0.13333333,0,2880.6667)" />
      <path
         id="path6"
         d="m 4142.7,12602.5 v 4320 h 3163.95 v -773.1 H 4933.69 v -803.3 h 1292.95 v -788.2 H 4933.69 v -1182.4 h 2449.02 v -773 H 4142.7"
         style="fill:#ffffff;fill-opacity:1;fill-rule:nonzero;stroke:none"
         transform="matrix(0.13333333,0,0,-0.13333333,0,2880.6667)" />
      <path
         id="path7"
         d="m 13432.9,12602.5 v 4320 h 3163.9 v -773.1 h -2372.9 v -803.3 h 1292.9 v -788.2 h -1292.9 v -1182.4 h 2449 v -773 h -3240"
         style="fill:#ffffff;fill-opacity:1;fill-rule:nonzero;stroke:none"
         transform="matrix(0.13333333,0,0,-0.13333333,0,2880.6667)" />
      <path
         id="path8"
         d="m 26267.6,12602.5 v 4320 h 3163.9 v -773.1 h -2372.9 v -803.3 h 1292.9 v -788.2 h -1292.9 v -1182.4 h 2449 v -773 h -3240"
         style="fill:#ffffff;fill-opacity:1;fill-rule:nonzero;stroke:none"
         transform="matrix(0.13333333,0,0,-0.13333333,0,2880.6667)" />
      <path
         id="path9"
         d="m 25274,14754.9 v -560.8 c 0,-939.8 -757.9,-1667.4 -1712.8,-1667.4 -1273.2,0 -1788.6,1121.7 -1788.6,2243.4 0,1318.7 712.4,2228.2 1788.6,2228.2 773,0 1303.5,-409.3 1606.7,-1076.2 l -788.2,-272.9 c -166.7,363.8 -439.6,576 -818.5,576 -606.3,0 -1015.6,-606.3 -1015.6,-1455.1 0,-697.3 212.2,-1470.4 1015.6,-1470.4 424.4,0 803.3,288 909.4,682.2 h -712.4 v 773 H 25274"
         style="fill:#ffffff;fill-opacity:1;fill-rule:nonzero;stroke:none"
         transform="matrix(0.13333333,0,0,-0.13333333,0,2880.6667)" />
      <path
         id="path10"
         d="M 11548.8,12602.5 V 15240 L 10270.6,12602.5 9007.56,15240 V 12602.5 H 8246.7 v 4320 h 760.86 l 1263.04,-2561.7 1278.2,2561.7 h 760.8 v -4320 h -760.8"
         style="fill:#ffffff;fill-opacity:1;fill-rule:nonzero;stroke:none"
         transform="matrix(0.13333333,0,0,-0.13333333,0,2880.6667)" />
      <path
         id="path11"
         d="m 33203.1,12602.5 -2070.4,2970.9 v -2970.9 h -761.1 v 4320 h 761.1 L 33127,14072.8 v 2849.7 h 745.9 v -4320 h -669.8"
         style="fill:#ffffff;fill-opacity:1;fill-rule:nonzero;stroke:none"
         transform="matrix(0.13333333,0,0,-0.13333333,0,2880.6667)" />
      <path
         id="path12"
         d="m 19553.5,16149.4 h -1244 v -1076.2 h 1244 c 378.8,0 621.2,212.2 621.2,530.6 0,333.4 -242.4,545.6 -621.2,545.6 z m 621.2,-3546.9 -696.9,1697.7 h -1168.3 v -1697.7 h -772.6 v 4320 h 2001.5 c 318.1,0 515.1,-45.5 742.3,-181.9 409.1,-227.4 666.6,-651.8 666.6,-1136.8 0,-485.1 -257.5,-909.5 -696.9,-1152.1 l 787.8,-1849.2 h -863.5"
         style="fill:#ffffff;fill-opacity:1;fill-rule:nonzero;stroke:none"
         transform="matrix(0.13333333,0,0,-0.13333333,0,2880.6667)" />
      <path
         id="path13"
         d="m 41563.9,14360.8 v -1758.3 h -772.8 v 1758.3 l -1818.4,2561.7 h 954.6 l 1257.8,-1758.3 1242.5,1758.3 h 954.7 l -1818.4,-2561.7"
         style="fill:#ffffff;fill-opacity:1;fill-rule:nonzero;stroke:none"
         transform="matrix(0.13333333,0,0,-0.13333333,0,2880.6667)" />
      <path
         id="path14"
         d="m 14914.1,7926.3 -606.2,-1455.1 h 1212.3 z m 1363.8,-3243.8 -424.3,1015.6 h -1879 l -424.3,-1015.6 h -848.6 l 1818.4,4320 h 788 l 1803.2,-4320 h -833.4"
         style="fill:#ffffff;fill-opacity:1;fill-rule:nonzero;stroke:none"
         transform="matrix(0.13333333,0,0,-0.13333333,0,2880.6667)" />
      <path
         id="path15"
         d="m 10429.6,4606.7 c -1136.84,0 -1834.08,894.3 -1834.08,2243.4 0,1364.2 697.24,2228.2 1834.08,2228.2 697.2,0 1333.8,-348.6 1667.3,-954.9 l -682.1,-363.8 c -121.3,181.9 -181.9,242.5 -303.1,318.3 -166.8,136.4 -454.8,227.4 -682.1,227.4 -788.21,0 -1045.9,-773.1 -1045.9,-1440 0,-939.8 394.1,-1485.5 1045.9,-1485.5 394,0 606.3,136.4 985.2,545.7 l 682.1,-363.8 c -318.3,-606.3 -970.1,-955 -1667.3,-955"
         style="fill:#ffffff;fill-opacity:1;fill-rule:nonzero;stroke:none"
         transform="matrix(0.13333333,0,0,-0.13333333,0,2880.6667)" />
      <path
         id="path16"
         d="m 17845.7,4682.5 v 4320 h 775.8 v -3653 h 2464.2 v -667 h -3240"
         style="fill:#ffffff;fill-opacity:1;fill-rule:nonzero;stroke:none"
         transform="matrix(0.13333333,0,0,-0.13333333,0,2880.6667)" />
      <path
         id="path17"
         d="m 21820.1,4682.5 v 4320 h 775.8 v -3653 h 2464.2 v -667 h -3240"
         style="fill:#ffffff;fill-opacity:1;fill-rule:nonzero;stroke:none"
         transform="matrix(0.13333333,0,0,-0.13333333,0,2880.6667)" />
      <path
         id="path18"
         d="m 34892.8,4682.5 15.1,3228.7 h -542.5 l -15.1,621.4 c 331.5,75.8 512.4,197.1 678.1,469.9 h 617.9 v -4320 h -753.5"
         style="fill:#ffffff;fill-opacity:1;fill-rule:nonzero;stroke:none"
         transform="matrix(0.13333333,0,0,-0.13333333,0,2880.6667)" />
      <path
         id="path19"
         d="m 38176,4682.5 15.1,3228.7 h -542.5 l -15.1,621.4 c 331.5,75.8 512.3,197.1 678.1,469.9 h 617.9 v -4320 H 38176"
         style="fill:#ffffff;fill-opacity:1;fill-rule:nonzero;stroke:none"
         transform="matrix(0.13333333,0,0,-0.13333333,0,2880.6667)" />
      <path
         id="path20"
         d="m 31069.9,8305.3 c -548,0 -913.4,-212.2 -913.4,-545.7 0,-318.3 365.4,-545.7 928.6,-545.7 517.6,0 883,227.4 883,545.7 0,318.3 -365.4,545.7 -898.2,545.7 z m 669.8,-3213.5 c -487.1,-348.6 -989.5,-485.1 -1735.4,-485.1 V 5395 h 76.1 c 441.5,0 761.2,75.7 1065.6,242.5 395.9,227.3 624.2,485 837.3,954.9 -380.6,-121.2 -624.1,-151.6 -974.3,-151.6 -943.8,0 -1628.9,560.9 -1628.9,1318.8 0,773 685.1,1318.7 1659.4,1318.7 532.8,0 989.5,-166.7 1324.4,-454.7 365.4,-318.3 517.6,-742.8 517.6,-1318.8 0,-909.4 -395.8,-1712.8 -1141.8,-2213"
         style="fill:#ffffff;fill-opacity:1;fill-rule:nonzero;stroke:none"
         transform="matrix(0.13333333,0,0,-0.13333333,0,2880.6667)" />
    </g>
  </g>
</svg>
