<?xml version="1.0" standalone="no"?>
<svg width="3456px" height="3024px" viewBox="0 -2232 3456 3024 " xmlns="http://www.w3.org/2000/svg" xmlns:xlink="http://www.w3.org/1999/xlink">
<title>generated by pstoedit</title>
<!-- generated by pstoedit version:4.02 -->
<g xml:space='preserve'>
<clipPath id="clippath1"> 	<path d="
	M 0 -2232.5 
	L 0 792 
	L 3456.5 792 
	L 3456.5 -2232.5 
	Z 
	" style="clip-rule:nonzero"/>
</clipPath>
<g style="clip-path:url(#clippath1)"> 
<g fill="#ffffff" fill-rule="nonzero" stroke-width="0" stroke-linejoin="miter" stroke-linecap="butt" stroke-miterlimit="10" >
	<path d="
	M 3456.25 575.75 
	C 3456.25 695.039 3359.54 791.75 3240.25 791.75 
	L 216.25 791.75 
	C 96.957 791.75 0.25 695.039 0.25 575.75 
	L 0.25 -2016.25 
	C 0.25 -2135.54 96.957 -2232.25 216.25 -2232.25 
	L 3240.25 -2232.25 
	C 3359.54 -2232.25 3456.25 -2135.54 3456.25 -2016.25 
	Z 
	"/>
</g>
<g stroke="#7f7f7f" fill="none" stroke-width="0.5" stroke-linejoin="miter" stroke-linecap="butt" stroke-miterlimit="4" >
	<path d="
	M 3456.25 575.75 
	C 3456.25 695.039 3359.54 791.75 3240.25 791.75 
	L 216.25 791.75 
	C 96.957 791.75 0.25 695.039 0.25 575.75 
	L 0.25 -2016.25 
	C 0.25 -2135.54 96.957 -2232.25 216.25 -2232.25 
	L 3240.25 -2232.25 
	C 3359.54 -2232.25 3456.25 -2135.54 3456.25 -2016.25 
	Z 
	"/>
</g>
<g fill="#96c87f" fill-rule="nonzero" stroke-width="0" stroke-linejoin="miter" stroke-linecap="butt" stroke-miterlimit="4" >
	<path d="
	M 990.555 -1687.51 
	C 1007.23 -1696.61 1017.84 -1714.8 1017.84 -1732.98 
	C 1017.84 -1751.18 1007.23 -1769.36 990.555 -1778.46 
	C 979.945 -1784.52 973.883 -1786.04 951.141 -1786.04 
	L 869.281 -1786.04 
	L 869.281 -1679.93 
	L 951.141 -1679.93 
	C 972.363 -1679.93 979.945 -1681.45 990.555 -1687.51 
	Z 
	"/>
</g>
<g fill="#96c87f" fill-rule="nonzero" stroke-width="0" stroke-linejoin="miter" stroke-linecap="butt" stroke-miterlimit="4" >
	<path d="
	M 1530.71 -949.51 
	C 1547.39 -958.61 1558 -976.79 1558 -994.98 
	C 1558 -1013.17 1547.39 -1031.36 1530.71 -1040.46 
	C 1520.11 -1046.52 1514.04 -1048.04 1491.3 -1048.04 
	L 1409.45 -1048.04 
	L 1409.45 -941.93 
	L 1491.3 -941.93 
	C 1512.53 -941.93 1520.11 -943.45 1530.71 -949.51 
	Z 
	"/>
</g>
<g fill="#96c87f" fill-rule="nonzero" stroke-width="0" stroke-linejoin="miter" stroke-linecap="butt" stroke-miterlimit="4" >
	<path d="
	M 2407.58 -1734.5 
	L 2363.37 -1613.23 
	L 2450.26 -1613.23 
	Z 
	"/>
</g>
<g fill="#96c87f" fill-rule="nonzero" stroke-width="0" stroke-linejoin="miter" stroke-linecap="butt" stroke-miterlimit="4" >
	<path d="
	M 1810.13 -875.23 
	L 1897.03 -875.23 
	L 1854.35 -996.5 
	Z 
	"/>
</g>
<g fill="#96c87f" fill-rule="nonzero" stroke-width="0" stroke-linejoin="miter" stroke-linecap="butt" stroke-miterlimit="4" >
	<path d="
	M 3148.29 -684.25 
	L 2880.34 -684.25 
	L 2880.34 -1116.25 
	L 3134.66 -1116.25 
	L 3134.66 -1048.04 
	L 2948.46 -1048.04 
	L 2948.46 -941.93 
	L 3074.11 -941.93 
	L 3074.11 -872.2 
	L 2948.46 -872.2 
	L 2948.46 -753.97 
	L 3148.29 -753.97 
	Z 
	M 2837.35 -1422.25 
	L 2768.79 -1422.25 
	L 2768.79 -1610.21 
	L 2616.44 -1854.25 
	L 2698.71 -1854.25 
	L 2802.31 -1687.51 
	L 2907.43 -1854.25 
	L 2988.18 -1854.25 
	L 2837.35 -1610.21 
	Z 
	M 2588.24 -779.74 
	C 2603.39 -757 2623.1 -746.39 2653.42 -746.39 
	C 2682.22 -746.39 2703.44 -761.55 2720.12 -796.41 
	L 2785.3 -772.16 
	C 2759.53 -708.5 2717.09 -676.67 2654.93 -676.67 
	C 2591.27 -676.67 2550.34 -700.92 2523.05 -753.97 
	C 2503.35 -791.87 2491.22 -846.44 2491.22 -901 
	C 2491.22 -969.21 2509.41 -1037.43 2539.73 -1075.32 
	C 2565.5 -1107.15 2601.88 -1123.83 2650.39 -1123.83 
	C 2715.57 -1123.83 2756.5 -1096.54 2785.3 -1035.91 
	L 2721.63 -1008.62 
	C 2697.38 -1045 2683.74 -1054.1 2650.39 -1054.1 
	C 2615.52 -1054.1 2592.78 -1038.94 2577.63 -1001.05 
	C 2567.01 -975.28 2560.95 -937.38 2560.95 -901 
	C 2560.95 -854.02 2571.56 -807.03 2588.24 -779.74 
	Z 
	M 1659.85 486.68 
	C 1662.39 489.27 1664.64 492.211 1666.54 495.488 
	C 1678.66 516.488 1671.47 543.34 1650.47 555.461 
	C 1642.59 560.012 1633.9 561.84 1625.46 561.238 
	L 1625.46 561.25 
	L 978.52 513.898 
	C 964.461 512.91 951.133 505.172 943.555 492.051 
	C 943.555 492.051 943.555 492.051 943.555 492.051 
	C 935.977 478.93 935.949 463.52 942.113 450.84 
	L 1224.59 -133.102 
	L 1224.59 -133.09 
	C 1228.29 -140.699 1234.22 -147.32 1242.1 -151.859 
	C 1263.09 -163.988 1289.94 -156.789 1302.07 -135.789 
	C 1303.96 -132.512 1305.38 -129.09 1306.35 -125.602 
	L 1372.27 127.609 
	L 2368.47 -504.25 
	L 2518.83 -243.81 
	L 1473.52 302.988 
	Z 
	M 717.813 -976.79 
	L 717.813 -684.25 
	L 649.602 -684.25 
	L 649.602 -1116.25 
	L 717.813 -1116.25 
	L 875.469 -840.37 
	L 875.469 -1116.25 
	L 943.684 -1116.25 
	L 943.684 -684.25 
	L 883.051 -684.25 
	Z 
	M 576.156 -684.25 
	L 308.211 -684.25 
	L 308.211 -1116.25 
	L 562.531 -1116.25 
	L 562.531 -1048.04 
	L 376.328 -1048.04 
	L 376.328 -941.93 
	L 501.98 -941.93 
	L 501.98 -872.2 
	L 376.328 -872.2 
	L 376.328 -753.97 
	L 576.156 -753.97 
	Z 
	M 468.32 -1854.25 
	L 736.27 -1854.25 
	L 736.27 -1786.04 
	L 536.445 -1786.04 
	L 536.445 -1679.93 
	L 662.09 -1679.93 
	L 662.09 -1610.2 
	L 536.445 -1610.2 
	L 536.445 -1422.25 
	L 468.32 -1422.25 
	Z 
	M 801.07 -1854.25 
	L 943.563 -1854.25 
	C 976.91 -1854.25 999.652 -1851.22 1020.87 -1840.61 
	C 1058.77 -1822.41 1086.06 -1776.94 1086.06 -1732.98 
	C 1086.06 -1687.51 1058.77 -1642.04 1019.36 -1623.85 
	L 1095.15 -1422.25 
	L 1020.87 -1422.25 
	L 951.141 -1610.21 
	L 869.281 -1610.21 
	L 869.281 -1422.25 
	L 801.07 -1422.25 
	Z 
	M 1008.48 -1055.62 
	L 1008.48 -1116.25 
	L 1276.43 -1116.25 
	L 1276.43 -1055.62 
	L 1175.95 -1055.62 
	L 1175.95 -684.25 
	L 1107.45 -684.25 
	L 1107.45 -1055.62 
	Z 
	M 1168.59 -1854.25 
	L 1422.92 -1854.25 
	L 1422.92 -1786.04 
	L 1236.71 -1786.04 
	L 1236.71 -1679.93 
	L 1362.36 -1679.93 
	L 1362.36 -1610.2 
	L 1236.71 -1610.2 
	L 1236.71 -1491.97 
	L 1436.54 -1491.97 
	L 1436.54 -1422.25 
	L 1168.59 -1422.25 
	Z 
	M 1561.03 -1102.6 
	C 1598.93 -1084.41 1626.22 -1038.94 1626.22 -994.98 
	C 1626.22 -949.51 1598.93 -904.04 1559.52 -885.85 
	L 1635.32 -684.25 
	L 1561.03 -684.25 
	L 1491.3 -872.21 
	L 1409.45 -872.21 
	L 1409.45 -684.25 
	L 1341.23 -684.25 
	L 1341.23 -1116.25 
	L 1483.72 -1116.25 
	C 1517.07 -1116.25 1539.81 -1113.22 1561.03 -1102.6 
	Z 
	M 1509.98 -1854.25 
	L 1764.3 -1854.25 
	L 1764.3 -1786.04 
	L 1578.1 -1786.04 
	L 1578.1 -1679.93 
	L 1703.75 -1679.93 
	L 1703.75 -1610.2 
	L 1578.1 -1610.2 
	L 1578.1 -1491.97 
	L 1777.93 -1491.97 
	L 1777.93 -1422.25 
	L 1509.98 -1422.25 
	Z 
	M 2037.29 -684.25 
	L 1964.11 -684.25 
	L 1921.43 -805.51 
	L 1785.74 -805.51 
	L 1743.05 -684.25 
	L 1669.88 -684.25 
	L 1819.28 -1116.25 
	L 1887.89 -1116.25 
	Z 
	M 1882.43 -1854.25 
	L 1915.88 -1626.88 
	L 1970.62 -1854.25 
	L 2037.53 -1854.25 
	L 2093.79 -1626.88 
	L 2127.24 -1854.25 
	L 2197.18 -1854.25 
	L 2133.32 -1422.25 
	L 2072.5 -1422.25 
	L 2004.08 -1699.64 
	L 1937.17 -1422.25 
	L 1876.35 -1422.25 
	L 1812.49 -1854.25 
	Z 
	M 2396.18 -1116.25 
	L 2396.18 -684.25 
	L 2335.54 -684.25 
	L 2170.31 -976.79 
	L 2170.31 -684.25 
	L 2102.09 -684.25 
	L 2102.09 -1116.25 
	L 2170.31 -1116.25 
	L 2327.96 -840.37 
	L 2327.96 -1116.25 
	Z 
	M 2372.51 -1854.25 
	L 2441.12 -1854.25 
	L 2590.52 -1422.25 
	L 2517.34 -1422.25 
	L 2474.66 -1543.51 
	L 2338.97 -1543.51 
	L 2296.28 -1422.25 
	L 2223.11 -1422.25 
	Z 
	M 3240.25 -2160.25 
	L 216.25 -2160.25 
	C 136.848 -2160.25 72.25 -2095.65 72.25 -2016.25 
	L 72.25 575.75 
	C 72.25 655.148 136.848 719.75 216.25 719.75 
	L 3240.25 719.75 
	C 3319.65 719.75 3384.25 655.148 3384.25 575.75 
	L 3384.25 -2016.25 
	C 3384.25 -2095.65 3319.65 -2160.25 3240.25 -2160.25 
	Z 
	"/>
</g>
</g >
</g>
</svg>
