<?xml version="1.0" encoding="UTF-8" standalone="no"?>
<!-- Created with Inkscape (http://www.inkscape.org/) -->

<svg
   version="1.1"
   id="svg1"
   width="4032.6667"
   height="4032.6667"
   viewBox="0 0 4032.6667 4032.6667"
   sodipodi:docname="tmpg6mpr8a8.pdf"
   xmlns:inkscape="http://www.inkscape.org/namespaces/inkscape"
   xmlns:sodipodi="http://sodipodi.sourceforge.net/DTD/sodipodi-0.dtd"
   xmlns="http://www.w3.org/2000/svg"
   xmlns:svg="http://www.w3.org/2000/svg">
  <defs
     id="defs1" />
  <sodipodi:namedview
     id="namedview1"
     pagecolor="#ffffff"
     bordercolor="#000000"
     borderopacity="0.25"
     inkscape:showpageshadow="2"
     inkscape:pageopacity="0.0"
     inkscape:pagecheckerboard="0"
     inkscape:deskcolor="#d1d1d1">
    <inkscape:page
       x="0"
       y="0"
       inkscape:label="1"
       id="page1"
       width="4032.6667"
       height="4032.6667"
       margin="0"
       bleed="0" />
  </sodipodi:namedview>
  <g
     id="g1"
     inkscape:groupmode="layer"
     inkscape:label="1">
    <g
       id="group-R5">
      <path
         id="path2"
         d="m 30242.5,1622.5 c 0,-894.699 -725.3,-1620 -1620,-1620 H 1622.5 C 727.805,2.5 2.5,727.801 2.5,1622.5 v 27000 c 0,894.7 725.305,1620 1620,1620 h 27000 c 894.7,0 1620,-725.3 1620,-1620 v -27000"
         style="fill:#ffffff;fill-opacity:1;fill-rule:nonzero;stroke:none"
         transform="matrix(0.13333333,0,0,-0.13333333,0,4032.6667)" />
      <path
         id="path3"
         d="m 30242.5,1622.5 c 0,-894.699 -725.3,-1620 -1620,-1620 H 1622.5 C 727.805,2.5 2.5,727.801 2.5,1622.5 v 27000 c 0,894.7 725.305,1620 1620,1620 h 27000 c 894.7,0 1620,-725.3 1620,-1620 z"
         style="fill:none;stroke:#231f20;stroke-width:5;stroke-linecap:butt;stroke-linejoin:miter;stroke-miterlimit:4;stroke-dasharray:none;stroke-opacity:1"
         transform="matrix(0.13333333,0,0,-0.13333333,0,4032.6667)" />
      <path
         id="path4"
         d="m 1622.5,632.5 c -545.89,0 -990,444.1 -990,990 v 27000 c 0,545.9 444.11,990 990,990 h 27000 c 545.9,0 990,-444.1 990,-990 v -27000 c 0,-545.9 -444.1,-990 -990,-990 h -27000"
         style="fill:#00674e;fill-opacity:1;fill-rule:nonzero;stroke:none"
         transform="matrix(0.13333333,0,0,-0.13333333,0,4032.6667)" />
      <path
         id="path5"
         d="M 17758.8,12962.5 16106.5,15888 v -2925.5 h -682.1 v 4320 h 682.1 L 17683,14523.7 v 2758.8 h 682.2 v -4320 h -606.4"
         style="fill:#ffffff;fill-opacity:1;fill-rule:nonzero;stroke:none"
         transform="matrix(0.13333333,0,0,-0.13333333,0,4032.6667)" />
      <path
         id="path6"
         d="m 8163.52,12962.5 v 4320 h 681.21 V 13599.1 H 10843 v -636.6 H 8163.52"
         style="fill:#ffffff;fill-opacity:1;fill-rule:nonzero;stroke:none"
         transform="matrix(0.13333333,0,0,-0.13333333,0,4032.6667)" />
      <path
         id="path7"
         d="m 19402,12962.5 v 4320 h 2543.2 v -682.1 h -1862 v -1061.1 h 1256.5 v -697.2 h -1256.5 v -1182.4 h 1998.3 v -697.2 H 19402"
         style="fill:#ffffff;fill-opacity:1;fill-rule:nonzero;stroke:none"
         transform="matrix(0.13333333,0,0,-0.13333333,0,4032.6667)" />
      <path
         id="path8"
         d="m 12946.9,16085 -442.1,-1212.6 h 869 z m 1097.7,-3122.5 -426.9,1212.6 H 12260.8 L 11834,12962.5 h -731.8 l 1494,4320 h 686.1 l 1494,-4320 h -731.7"
         style="fill:#ffffff;fill-opacity:1;fill-rule:nonzero;stroke:none"
         transform="matrix(0.13333333,0,0,-0.13333333,0,4032.6667)" />
      <path
         id="path9"
         d="m 23237.4,20882.5 -1094.9,2046.3 -456.2,-560.8 V 20882.5 H 21002 v 4320 h 684.3 v -1712.9 l 1368.6,1712.9 h 882 L 22598.8,23520 24028.2,20882.5 h -790.8"
         style="fill:#ffffff;fill-opacity:1;fill-rule:nonzero;stroke:none"
         transform="matrix(0.13333333,0,0,-0.13333333,0,4032.6667)" />
      <path
         id="path10"
         d="m 15963.3,21534.3 c -227.4,-424.4 -742.8,-727.6 -1273.3,-727.6 -530.6,0 -1046,303.2 -1273.4,727.6 -121.3,257.6 -197.1,560.8 -197.1,894.3 v 2773.9 h 682.2 v -2773.9 c 0,-560.9 318.3,-924.6 788.3,-924.6 469.9,0 788.2,363.7 788.2,924.6 v 2773.9 h 682.2 v -2773.9 c 0,-333.5 -75.8,-636.7 -197.1,-894.3"
         style="fill:#ffffff;fill-opacity:1;fill-rule:nonzero;stroke:none"
         transform="matrix(0.13333333,0,0,-0.13333333,0,4032.6667)" />
      <path
         id="path11"
         d="m 7891.47,24596.2 v -3713.7 h -685.02 v 3713.7 h -989.62 v 606.3 H 8896.3 v -606.3 H 7891.47"
         style="fill:#ffffff;fill-opacity:1;fill-rule:nonzero;stroke:none"
         transform="matrix(0.13333333,0,0,-0.13333333,0,4032.6667)" />
      <path
         id="path12"
         d="m 11439.1,24444.6 c -106,60.6 -166.7,75.8 -394.1,75.8 h -818.6 v -1061 h 818.6 c 212.3,0 288.1,15.1 394.1,75.7 166.8,91 272.9,272.9 272.9,454.8 0,181.9 -106.1,363.8 -272.9,454.7 z m 303.2,-3562.1 -697.3,1879.6 h -818.6 v -1879.6 h -682.09 v 4320 h 1424.89 c 333.5,0 560.9,-30.3 773.1,-136.4 379,-181.9 651.9,-636.7 651.9,-1076.2 0,-454.8 -272.9,-909.5 -667,-1091.4 l 758,-2016 h -742.9"
         style="fill:#ffffff;fill-opacity:1;fill-rule:nonzero;stroke:none"
         transform="matrix(0.13333333,0,0,-0.13333333,0,4032.6667)" />
      <path
         id="path13"
         d="m 18747.9,20806.7 c -636.6,0 -1045.9,242.5 -1318.8,773.1 -197.1,378.9 -318.3,924.6 -318.3,1470.3 0,682.1 181.9,1364.2 485,1743.1 257.7,318.4 621.6,485.1 1106.6,485.1 651.9,0 1061.2,-272.9 1349.2,-879.2 l -636.7,-272.8 c -242.5,363.8 -378.9,454.7 -712.5,454.7 -348.6,0 -576,-151.6 -727.6,-530.5 -106.1,-257.7 -166.7,-636.6 -166.7,-1000.4 0,-469.9 106.1,-939.8 272.8,-1212.7 151.6,-227.3 348.7,-333.5 651.9,-333.5 288,0 500.2,151.6 667,500.3 l 651.8,-242.6 c -257.7,-636.6 -682.2,-954.9 -1303.7,-954.9"
         style="fill:#ffffff;fill-opacity:1;fill-rule:nonzero;stroke:none"
         transform="matrix(0.13333333,0,0,-0.13333333,0,4032.6667)" />
      <path
         id="path14"
         d="m 19399.3,5042.5 v 4320 h 691.2 v -4320 h -691.2"
         style="fill:#ffffff;fill-opacity:1;fill-rule:nonzero;stroke:none"
         transform="matrix(0.13333333,0,0,-0.13333333,0,4032.6667)" />
      <path
         id="path15"
         d="m 17679,5042.5 v 2501 l -1002.4,-2501 -1002.4,2501 v -2501 h -683.5 v 4320 h 683.5 L 16676.6,6937.2 17679,9362.5 h 683.5 v -4320 H 17679"
         style="fill:#ffffff;fill-opacity:1;fill-rule:nonzero;stroke:none"
         transform="matrix(0.13333333,0,0,-0.13333333,0,4032.6667)" />
      <path
         id="path16"
         d="m 21127.3,5042.5 v 4320 h 681.2 V 5679.1 h 1998.3 v -636.6 h -2679.5"
         style="fill:#ffffff;fill-opacity:1;fill-rule:nonzero;stroke:none"
         transform="matrix(0.13333333,0,0,-0.13333333,0,4032.6667)" />
      <path
         id="path17"
         d="m 24454.8,5042.5 v 4320 H 26998 V 8680.4 H 25136 V 7619.3 h 1256.5 V 6922 H 25136 V 5739.7 h 1998.3 v -697.2 h -2679.5"
         style="fill:#ffffff;fill-opacity:1;fill-rule:nonzero;stroke:none"
         transform="matrix(0.13333333,0,0,-0.13333333,0,4032.6667)" />
      <path
         id="path18"
         d="m 3500.72,6122.5 v 3501.4 h -390 v 545.7 h 45 c 180,0 375,106.1 495,272.9 h 540 v -4320 h -690"
         style="fill:#ffffff;fill-opacity:1;fill-rule:nonzero;stroke:none"
         transform="matrix(0.13333333,0,0,-0.13333333,0,4032.6667)" />
      <path
         id="path19"
         d="m 7715.95,10442.5 -3741.22,-6480 h 798.12 l 3741.22,6480 h -798.12"
         style="fill:#ffffff;fill-opacity:1;fill-rule:nonzero;stroke:none"
         transform="matrix(0.13333333,0,0,-0.13333333,0,4032.6667)" />
      <path
         id="path20"
         d="M 9988.46,5984.9 C 9406.72,5623.3 8871.68,5463.3 8548.46,4659.7 H 10670.7 V 3962.5 H 7729.86 c 15.17,500.2 119.58,910.4 363.81,1318.7 758.02,1267.1 1894.88,1127.1 1894.88,1803.8 0,318.3 -363.8,576 -788.26,576 -439.61,0 -712.47,-212.2 -788.28,-606.4 l -682.15,151.6 c 151.59,712.5 712.47,1152 1470.43,1152 818.61,0 1470.41,-576 1470.41,-1288.4 0,-516.5 -297.1,-845.5 -682.24,-1084.9"
         style="fill:#ffffff;fill-opacity:1;fill-rule:nonzero;stroke:none"
         transform="matrix(0.13333333,0,0,-0.13333333,0,4032.6667)" />
    </g>
  </g>
</svg>
