<?xml version="1.0" standalone="no"?>
<svg width="4320px" height="4752px" viewBox="0 -3960 4320 4752 " xmlns="http://www.w3.org/2000/svg" xmlns:xlink="http://www.w3.org/1999/xlink">
<title>generated by pstoedit</title>
<!-- generated by pstoedit version:4.02 -->
<g xml:space='preserve'>
<clipPath id="clippath1"> 	<path d="
	M 0 -3960.5 
	L 0 792 
	L 4320.5 792 
	L 4320.5 -3960.5 
	Z 
	" style="clip-rule:nonzero"/>
</clipPath>
<g style="clip-path:url(#clippath1)"> 
<g fill="#ffffff" fill-rule="nonzero" stroke-width="0" stroke-linejoin="miter" stroke-linecap="butt" stroke-miterlimit="10" >
	<path d="
	M 4320.25 575.75 
	C 4320.25 695.039 4223.54 791.75 4104.25 791.75 
	L 216.25 791.75 
	C 96.957 791.75 0.25 695.039 0.25 575.75 
	L 0.25 -3744.25 
	C 0.25 -3863.54 96.957 -3960.25 216.25 -3960.25 
	L 4104.25 -3960.25 
	C 4223.54 -3960.25 4320.25 -3863.54 4320.25 -3744.25 
	Z 
	"/>
</g>
<g stroke="#7f7f7f" fill="none" stroke-width="0.5" stroke-linejoin="miter" stroke-linecap="butt" stroke-miterlimit="4" >
	<path d="
	M 4320.25 575.75 
	C 4320.25 695.039 4223.54 791.75 4104.25 791.75 
	L 216.25 791.75 
	C 96.957 791.75 0.25 695.039 0.25 575.75 
	L 0.25 -3744.25 
	C 0.25 -3863.54 96.957 -3960.25 216.25 -3960.25 
	L 4104.25 -3960.25 
	C 4223.54 -3960.25 4320.25 -3863.54 4320.25 -3744.25 
	Z 
	"/>
</g>
<g fill="#96c87f" fill-rule="nonzero" stroke-width="0" stroke-linejoin="miter" stroke-linecap="butt" stroke-miterlimit="4" >
	<path d="
	M 216.25 701.75 
	C 146.773 701.75 90.25 645.23 90.25 575.75 
	L 90.25 -3744.25 
	C 90.25 -3813.73 146.773 -3870.25 216.25 -3870.25 
	L 4104.25 -3870.25 
	C 4173.73 -3870.25 4230.25 -3813.73 4230.25 -3744.25 
	L 4230.25 575.75 
	C 4230.25 645.23 4173.73 701.75 4104.25 701.75 
	Z 
	"/>
</g>
<g fill="#ffffff" fill-rule="nonzero" stroke-width="0" stroke-linejoin="miter" stroke-linecap="butt" stroke-miterlimit="4" >
	<path d="
	M 1601.18 -2808.25 
	L 1380.87 -3198.31 
	L 1380.87 -2808.25 
	L 1289.92 -2808.25 
	L 1289.92 -3384.25 
	L 1380.87 -3384.25 
	L 1591.07 -3016.41 
	L 1591.07 -3384.25 
	L 1682.03 -3384.25 
	L 1682.03 -2808.25 
	Z 
	"/>
</g>
<g fill="#ffffff" fill-rule="nonzero" stroke-width="0" stroke-linejoin="miter" stroke-linecap="butt" stroke-miterlimit="4" >
	<path d="
	M 2896.61 -3303.41 
	L 2896.61 -2808.25 
	L 2805.27 -2808.25 
	L 2805.27 -3303.41 
	L 2673.32 -3303.41 
	L 2673.32 -3384.25 
	L 3030.58 -3384.25 
	L 3030.58 -3303.41 
	Z 
	"/>
</g>
<g fill="#ffffff" fill-rule="nonzero" stroke-width="0" stroke-linejoin="miter" stroke-linecap="butt" stroke-miterlimit="4" >
	<path d="
	M 2524.16 -2808.25 
	L 2431.19 -3000.25 
	L 2338.21 -2808.25 
	L 2235.13 -2808.25 
	L 2378.64 -3105.34 
	L 2245.24 -3384.25 
	L 2348.32 -3384.25 
	L 2431.19 -3212.46 
	L 2514.06 -3384.25 
	L 2617.14 -3384.25 
	L 2481.72 -3105.34 
	L 2627.25 -2808.25 
	Z 
	"/>
</g>
<g fill="#ffffff" fill-rule="nonzero" stroke-width="0" stroke-linejoin="miter" stroke-linecap="butt" stroke-miterlimit="4" >
	<path d="
	M 1820.27 -2808.25 
	L 1820.27 -3384.25 
	L 2159.37 -3384.25 
	L 2159.37 -3293.3 
	L 1911.1 -3293.3 
	L 1911.1 -3151.82 
	L 2078.63 -3151.82 
	L 2078.63 -3058.86 
	L 1911.1 -3058.86 
	L 1911.1 -2901.21 
	L 2177.54 -2901.21 
	L 2177.54 -2808.25 
	Z 
	"/>
</g>
<g fill="#ffffff" fill-rule="nonzero" stroke-width="0" stroke-linejoin="miter" stroke-linecap="butt" stroke-miterlimit="4" >
	<path d="
	M 2511.76 -792.25 
	L 2291.45 -1182.31 
	L 2291.45 -792.25 
	L 2200.5 -792.25 
	L 2200.5 -1368.25 
	L 2291.45 -1368.25 
	L 2501.65 -1000.41 
	L 2501.65 -1368.25 
	L 2592.61 -1368.25 
	L 2592.61 -792.25 
	Z 
	"/>
</g>
<g fill="#ffffff" fill-rule="nonzero" stroke-width="0" stroke-linejoin="miter" stroke-linecap="butt" stroke-miterlimit="4" >
	<path d="
	M 1232.38 -792.25 
	L 1232.38 -1368.25 
	L 1323.21 -1368.25 
	L 1323.21 -877.13 
	L 1589.65 -877.13 
	L 1589.65 -792.25 
	Z 
	"/>
</g>
<g fill="#ffffff" fill-rule="nonzero" stroke-width="0" stroke-linejoin="miter" stroke-linecap="butt" stroke-miterlimit="4" >
	<path d="
	M 2730.85 -792.25 
	L 2730.85 -1368.25 
	L 3069.95 -1368.25 
	L 3069.95 -1277.3 
	L 2821.68 -1277.3 
	L 2821.68 -1135.82 
	L 2989.21 -1135.82 
	L 2989.21 -1042.85 
	L 2821.68 -1042.85 
	L 2821.68 -885.21 
	L 3088.12 -885.21 
	L 3088.12 -792.25 
	Z 
	"/>
</g>
<g fill="#ffffff" fill-rule="nonzero" stroke-width="0" stroke-linejoin="miter" stroke-linecap="butt" stroke-miterlimit="4" >
	<path d="
	M 1870.17 -1208.58 
	L 1811.22 -1046.9 
	L 1927.08 -1046.9 
	Z 
	M 2016.53 -792.25 
	L 1959.61 -953.93 
	L 1778.7 -953.93 
	L 1721.78 -792.25 
	L 1624.21 -792.25 
	L 1823.42 -1368.25 
	L 1914.89 -1368.25 
	L 2114.1 -792.25 
	Z 
	"/>
</g>
<g fill="#ffffff" fill-rule="nonzero" stroke-width="0" stroke-linejoin="miter" stroke-linecap="butt" stroke-miterlimit="4" >
	<path d="
	M 3242.24 -1800.25 
	L 3096.25 -2073.09 
	L 3035.43 -1998.31 
	L 3035.43 -1800.25 
	L 2944.18 -1800.25 
	L 2944.18 -2376.25 
	L 3035.43 -2376.25 
	L 3035.43 -2147.87 
	L 3217.91 -2376.25 
	L 3335.51 -2376.25 
	L 3157.08 -2151.91 
	L 3347.67 -1800.25 
	Z 
	"/>
</g>
<g fill="#ffffff" fill-rule="nonzero" stroke-width="0" stroke-linejoin="miter" stroke-linecap="butt" stroke-miterlimit="4" >
	<path d="
	M 2272.36 -1887.15 
	C 2242.04 -1830.56 2173.32 -1790.14 2102.58 -1790.14 
	C 2031.84 -1790.14 1963.11 -1830.56 1932.8 -1887.15 
	C 1916.63 -1921.51 1906.52 -1961.93 1906.52 -2006.39 
	L 1906.52 -2376.25 
	L 1997.47 -2376.25 
	L 1997.47 -2006.39 
	C 1997.47 -1931.61 2039.92 -1883.11 2102.58 -1883.11 
	C 2165.23 -1883.11 2207.68 -1931.61 2207.68 -2006.39 
	L 2207.68 -2376.25 
	L 2298.63 -2376.25 
	L 2298.63 -2006.39 
	C 2298.63 -1961.93 2288.53 -1921.51 2272.36 -1887.15 
	Z 
	"/>
</g>
<g fill="#ffffff" fill-rule="nonzero" stroke-width="0" stroke-linejoin="miter" stroke-linecap="butt" stroke-miterlimit="4" >
	<path d="
	M 1196.11 -2295.41 
	L 1196.11 -1800.25 
	L 1104.78 -1800.25 
	L 1104.78 -2295.41 
	L 972.824 -2295.41 
	L 972.824 -2376.25 
	L 1330.09 -2376.25 
	L 1330.09 -2295.41 
	Z 
	"/>
</g>
<g fill="#ffffff" fill-rule="nonzero" stroke-width="0" stroke-linejoin="miter" stroke-linecap="butt" stroke-miterlimit="4" >
	<path d="
	M 1669.13 -2275.19 
	C 1654.99 -2283.28 1646.9 -2285.3 1616.59 -2285.3 
	L 1507.44 -2285.3 
	L 1507.44 -2143.83 
	L 1616.59 -2143.83 
	C 1644.88 -2143.83 1654.99 -2145.85 1669.13 -2153.93 
	C 1691.37 -2166.06 1705.52 -2190.31 1705.52 -2214.56 
	C 1705.52 -2238.82 1691.37 -2263.07 1669.13 -2275.19 
	Z 
	M 1709.56 -1800.25 
	L 1616.59 -2050.86 
	L 1507.44 -2050.86 
	L 1507.44 -1800.25 
	L 1416.49 -1800.25 
	L 1416.49 -2376.25 
	L 1606.48 -2376.25 
	C 1650.95 -2376.25 1681.27 -2372.21 1709.56 -2358.06 
	C 1760.09 -2333.8 1796.47 -2273.17 1796.47 -2214.56 
	C 1796.47 -2153.93 1760.09 -2093.3 1707.54 -2069.05 
	L 1808.6 -1800.25 
	Z 
	"/>
</g>
<g fill="#ffffff" fill-rule="nonzero" stroke-width="0" stroke-linejoin="miter" stroke-linecap="butt" stroke-miterlimit="4" >
	<path d="
	M 2643.64 -1790.14 
	C 2558.75 -1790.14 2504.18 -1822.48 2467.8 -1893.21 
	C 2441.52 -1943.74 2425.35 -2016.5 2425.35 -2089.26 
	C 2425.35 -2180.21 2449.61 -2271.15 2490.03 -2321.68 
	C 2524.39 -2364.12 2572.9 -2386.35 2637.58 -2386.35 
	C 2724.49 -2386.35 2779.06 -2349.97 2817.46 -2269.13 
	L 2732.57 -2232.75 
	C 2700.23 -2281.26 2682.04 -2293.38 2637.58 -2293.38 
	C 2591.09 -2293.38 2560.77 -2273.17 2540.56 -2222.65 
	C 2526.41 -2188.29 2518.33 -2137.76 2518.33 -2089.26 
	C 2518.33 -2026.6 2532.47 -1963.95 2554.71 -1927.57 
	C 2574.92 -1897.26 2601.2 -1883.11 2641.62 -1883.11 
	C 2680.02 -1883.11 2708.32 -1903.32 2730.55 -1949.8 
	L 2817.46 -1917.47 
	C 2783.1 -1832.58 2726.51 -1790.14 2643.64 -1790.14 
	Z 
	"/>
</g>
<g fill="#ffffff" fill-rule="nonzero" stroke-width="0" stroke-linejoin="miter" stroke-linecap="butt" stroke-miterlimit="4" >
	<path d="
	M 2246.71 215.762 
	L 2246.71 -360.25 
	L 2338.87 -360.25 
	L 2338.87 215.762 
	Z 
	"/>
</g>
<g fill="#ffffff" fill-rule="nonzero" stroke-width="0" stroke-linejoin="miter" stroke-linecap="butt" stroke-miterlimit="4" >
	<path d="
	M 2477.11 215.762 
	L 2477.11 -360.25 
	L 2567.94 -360.25 
	L 2567.94 130.871 
	L 2834.37 130.871 
	L 2834.37 215.762 
	Z 
	"/>
</g>
<g fill="#ffffff" fill-rule="nonzero" stroke-width="0" stroke-linejoin="miter" stroke-linecap="butt" stroke-miterlimit="4" >
	<path d="
	M 2017.33 215.762 
	L 2017.33 -117.719 
	L 1883.68 215.762 
	L 1750.02 -117.719 
	L 1750.02 215.762 
	L 1658.89 215.762 
	L 1658.89 -360.25 
	L 1750.02 -360.25 
	L 1883.68 -36.879 
	L 2017.33 -360.25 
	L 2108.46 -360.25 
	L 2108.46 215.762 
	Z 
	"/>
</g>
<g fill="#ffffff" fill-rule="nonzero" stroke-width="0" stroke-linejoin="miter" stroke-linecap="butt" stroke-miterlimit="4" >
	<path d="
	M 3671.15 181.398 
	C 3638.81 209.691 3594.35 225.859 3545.84 225.859 
	C 3446.8 225.859 3374.04 167.25 3335.63 80.34 
	L 3422.55 48.012 
	C 3446.8 102.582 3491.27 132.891 3545.84 132.891 
	C 3598.39 132.891 3634.77 96.512 3634.77 48.012 
	C 3634.77 -28.789 3545.84 -40.918 3471.05 -71.23 
	C 3436.7 -85.379 3359.89 -119.738 3359.89 -214.73 
	C 3359.89 -327.91 3436.7 -370.35 3539.78 -370.35 
	C 3620.62 -370.35 3675.2 -323.87 3703.49 -253.13 
	L 3622.65 -228.88 
	C 3622.65 -228.88 3602.44 -277.38 3537.76 -279.4 
	C 3495.31 -281.42 3444.78 -265.26 3448.82 -212.71 
	C 3456.91 -105.59 3727.75 -176.328 3727.75 50.031 
	C 3727.75 102.582 3707.53 149.059 3671.15 181.398 
	Z 
	"/>
</g>
<g fill="#ffffff" fill-rule="nonzero" stroke-width="0" stroke-linejoin="miter" stroke-linecap="butt" stroke-miterlimit="4" >
	<path d="
	M 2920.77 215.762 
	L 2920.77 -360.25 
	L 3259.87 -360.25 
	L 3259.87 -269.3 
	L 3011.6 -269.3 
	L 3011.6 -127.82 
	L 3179.13 -127.82 
	L 3179.13 -34.852 
	L 3011.6 -34.852 
	L 3011.6 122.789 
	L 3278.03 122.789 
	L 3278.03 215.762 
	Z 
	"/>
</g>
<g fill="#ffffff" fill-rule="nonzero" stroke-width="0" stroke-linejoin="miter" stroke-linecap="butt" stroke-miterlimit="4" >
	<path d="
	M 969.184 -49.32 
	C 872.227 10.949 783.055 37.621 729.184 171.539 
	L 1082.89 171.539 
	L 1082.89 287.75 
	L 592.754 287.75 
	C 595.277 204.391 612.68 136.012 653.387 67.961 
	C 779.723 -143.211 969.199 -119.879 969.199 -232.67 
	C 969.199 -285.72 908.563 -328.67 837.82 -328.67 
	C 764.555 -328.67 719.078 -293.3 706.441 -227.61 
	L 592.754 -252.88 
	C 618.016 -371.62 711.496 -444.88 837.82 -444.88 
	C 974.254 -444.88 1082.89 -348.88 1082.89 -230.14 
	C 1082.89 -144.051 1033.37 -89.211 969.184 -49.32 
	Z 
	"/>
</g>
</g >
</g>
</svg>
