<?xml version="1.0" standalone="no"?>
<svg width="4320px" height="3888px" viewBox="0 -3096 4320 3888 " xmlns="http://www.w3.org/2000/svg" xmlns:xlink="http://www.w3.org/1999/xlink">
<title>generated by pstoedit</title>
<!-- generated by pstoedit version:4.02 -->
<g xml:space='preserve'>
<clipPath id="clippath1"> 	<path d="
	M 0 -3096.5 
	L 0 792 
	L 4320.5 792 
	L 4320.5 -3096.5 
	Z 
	" style="clip-rule:nonzero"/>
</clipPath>
<g style="clip-path:url(#clippath1)"> 
<g fill="#ffffff" fill-rule="nonzero" stroke-width="0" stroke-linejoin="miter" stroke-linecap="butt" stroke-miterlimit="10" >
	<path d="
	M 4320.25 575.75 
	C 4320.25 695.039 4223.54 791.75 4104.25 791.75 
	L 216.25 791.75 
	C 96.957 791.75 0.25 695.039 0.25 575.75 
	L 0.25 -2880.25 
	C 0.25 -2999.54 96.957 -3096.25 216.25 -3096.25 
	L 4104.25 -3096.25 
	C 4223.54 -3096.25 4320.25 -2999.54 4320.25 -2880.25 
	Z 
	"/>
</g>
<g stroke="#7f7f7f" fill="none" stroke-width="0.5" stroke-linejoin="miter" stroke-linecap="butt" stroke-miterlimit="4" >
	<path d="
	M 4320.25 575.75 
	C 4320.25 695.039 4223.54 791.75 4104.25 791.75 
	L 216.25 791.75 
	C 96.957 791.75 0.25 695.039 0.25 575.75 
	L 0.25 -2880.25 
	C 0.25 -2999.54 96.957 -3096.25 216.25 -3096.25 
	L 4104.25 -3096.25 
	C 4223.54 -3096.25 4320.25 -2999.54 4320.25 -2880.25 
	Z 
	"/>
</g>
<g fill="#96c87f" fill-rule="nonzero" stroke-width="0" stroke-linejoin="miter" stroke-linecap="butt" stroke-miterlimit="4" >
	<path d="
	M 215.461 696.23 
	C 145.984 696.23 89.4609 639.711 89.4609 570.23 
	L 89.4609 -2885.77 
	C 89.4609 -2955.25 145.984 -3011.77 215.461 -3011.77 
	L 4103.46 -3011.77 
	C 4172.94 -3011.77 4229.46 -2955.25 4229.46 -2885.77 
	L 4229.46 570.23 
	C 4229.46 639.711 4172.94 696.23 4103.46 696.23 
	Z 
	"/>
</g>
<g fill="#ffffff" fill-rule="nonzero" stroke-width="0" stroke-linejoin="miter" stroke-linecap="butt" stroke-miterlimit="4" >
	<path d="
	M 2511.76 -864.25 
	L 2291.45 -1254.31 
	L 2291.45 -864.25 
	L 2200.5 -864.25 
	L 2200.5 -1440.25 
	L 2291.45 -1440.25 
	L 2501.65 -1072.41 
	L 2501.65 -1440.25 
	L 2592.61 -1440.25 
	L 2592.61 -864.25 
	Z 
	"/>
</g>
<g fill="#ffffff" fill-rule="nonzero" stroke-width="0" stroke-linejoin="miter" stroke-linecap="butt" stroke-miterlimit="4" >
	<path d="
	M 1232.38 -864.25 
	L 1232.38 -1440.25 
	L 1323.21 -1440.25 
	L 1323.21 -949.13 
	L 1589.65 -949.13 
	L 1589.65 -864.25 
	Z 
	"/>
</g>
<g fill="#ffffff" fill-rule="nonzero" stroke-width="0" stroke-linejoin="miter" stroke-linecap="butt" stroke-miterlimit="4" >
	<path d="
	M 2730.85 -864.25 
	L 2730.85 -1440.25 
	L 3069.95 -1440.25 
	L 3069.95 -1349.3 
	L 2821.68 -1349.3 
	L 2821.68 -1207.83 
	L 2989.21 -1207.83 
	L 2989.21 -1114.86 
	L 2821.68 -1114.86 
	L 2821.68 -957.21 
	L 3088.12 -957.21 
	L 3088.12 -864.25 
	Z 
	"/>
</g>
<g fill="#ffffff" fill-rule="nonzero" stroke-width="0" stroke-linejoin="miter" stroke-linecap="butt" stroke-miterlimit="4" >
	<path d="
	M 1870.17 -1280.58 
	L 1811.22 -1118.9 
	L 1927.09 -1118.9 
	Z 
	M 2016.53 -864.25 
	L 1959.61 -1025.93 
	L 1778.7 -1025.93 
	L 1721.78 -864.25 
	L 1624.21 -864.25 
	L 1823.42 -1440.25 
	L 1914.89 -1440.25 
	L 2114.1 -864.25 
	Z 
	"/>
</g>
<g fill="#ffffff" fill-rule="nonzero" stroke-width="0" stroke-linejoin="miter" stroke-linecap="butt" stroke-miterlimit="4" >
	<path d="
	M 3242.24 -1944.25 
	L 3096.25 -2217.09 
	L 3035.43 -2142.31 
	L 3035.43 -1944.25 
	L 2944.19 -1944.25 
	L 2944.19 -2520.25 
	L 3035.43 -2520.25 
	L 3035.43 -2291.87 
	L 3217.91 -2520.25 
	L 3335.51 -2520.25 
	L 3157.08 -2295.91 
	L 3347.67 -1944.25 
	Z 
	"/>
</g>
<g fill="#ffffff" fill-rule="nonzero" stroke-width="0" stroke-linejoin="miter" stroke-linecap="butt" stroke-miterlimit="4" >
	<path d="
	M 2272.36 -2031.15 
	C 2242.04 -1974.56 2173.32 -1934.14 2102.58 -1934.14 
	C 2031.84 -1934.14 1963.11 -1974.56 1932.8 -2031.15 
	C 1916.63 -2065.51 1906.52 -2105.93 1906.52 -2150.39 
	L 1906.52 -2520.25 
	L 1997.47 -2520.25 
	L 1997.47 -2150.39 
	C 1997.47 -2075.62 2039.92 -2027.11 2102.58 -2027.11 
	C 2165.23 -2027.11 2207.68 -2075.62 2207.68 -2150.39 
	L 2207.68 -2520.25 
	L 2298.63 -2520.25 
	L 2298.63 -2150.39 
	C 2298.63 -2105.93 2288.53 -2065.51 2272.36 -2031.15 
	Z 
	"/>
</g>
<g fill="#ffffff" fill-rule="nonzero" stroke-width="0" stroke-linejoin="miter" stroke-linecap="butt" stroke-miterlimit="4" >
	<path d="
	M 1196.11 -2439.41 
	L 1196.11 -1944.25 
	L 1104.78 -1944.25 
	L 1104.78 -2439.41 
	L 972.824 -2439.41 
	L 972.824 -2520.25 
	L 1330.09 -2520.25 
	L 1330.09 -2439.41 
	Z 
	"/>
</g>
<g fill="#ffffff" fill-rule="nonzero" stroke-width="0" stroke-linejoin="miter" stroke-linecap="butt" stroke-miterlimit="4" >
	<path d="
	M 1669.13 -2419.2 
	C 1654.99 -2427.28 1646.9 -2429.3 1616.59 -2429.3 
	L 1507.44 -2429.3 
	L 1507.44 -2287.83 
	L 1616.59 -2287.83 
	C 1644.88 -2287.83 1654.99 -2289.85 1669.13 -2297.93 
	C 1691.37 -2310.06 1705.52 -2334.31 1705.52 -2358.56 
	C 1705.52 -2382.82 1691.37 -2407.07 1669.13 -2419.2 
	Z 
	M 1709.56 -1944.25 
	L 1616.59 -2194.86 
	L 1507.44 -2194.86 
	L 1507.44 -1944.25 
	L 1416.49 -1944.25 
	L 1416.49 -2520.25 
	L 1606.48 -2520.25 
	C 1650.95 -2520.25 1681.27 -2516.21 1709.56 -2502.06 
	C 1760.09 -2477.81 1796.47 -2417.18 1796.47 -2358.56 
	C 1796.47 -2297.93 1760.09 -2237.3 1707.54 -2213.05 
	L 1808.6 -1944.25 
	Z 
	"/>
</g>
<g fill="#ffffff" fill-rule="nonzero" stroke-width="0" stroke-linejoin="miter" stroke-linecap="butt" stroke-miterlimit="4" >
	<path d="
	M 2643.64 -1934.14 
	C 2558.75 -1934.14 2504.18 -1966.48 2467.8 -2037.22 
	C 2441.52 -2087.74 2425.35 -2160.5 2425.35 -2233.26 
	C 2425.35 -2324.21 2449.61 -2415.15 2490.03 -2465.68 
	C 2524.39 -2508.12 2572.9 -2530.36 2637.58 -2530.36 
	C 2724.49 -2530.36 2779.06 -2493.97 2817.46 -2413.13 
	L 2732.57 -2376.75 
	C 2700.23 -2425.26 2682.04 -2437.39 2637.58 -2437.39 
	C 2591.09 -2437.39 2560.77 -2417.18 2540.56 -2366.65 
	C 2526.41 -2332.29 2518.33 -2281.77 2518.33 -2233.26 
	C 2518.33 -2170.61 2532.47 -2107.95 2554.71 -2071.57 
	C 2574.92 -2041.26 2601.2 -2027.11 2641.62 -2027.11 
	C 2680.02 -2027.11 2708.32 -2047.32 2730.55 -2093.8 
	L 2817.46 -2061.47 
	C 2783.1 -1976.58 2726.51 -1934.14 2643.64 -1934.14 
	Z 
	"/>
</g>
<g fill="#ffffff" fill-rule="nonzero" stroke-width="0" stroke-linejoin="miter" stroke-linecap="butt" stroke-miterlimit="4" >
	<path d="
	M 2730.49 215.75 
	L 2730.49 -360.25 
	L 2822.65 -360.25 
	L 2822.65 215.75 
	Z 
	"/>
</g>
<g fill="#ffffff" fill-rule="nonzero" stroke-width="0" stroke-linejoin="miter" stroke-linecap="butt" stroke-miterlimit="4" >
	<path d="
	M 2501.12 215.75 
	L 2501.12 -117.719 
	L 2367.46 215.75 
	L 2233.81 -117.719 
	L 2233.81 215.75 
	L 2142.68 215.75 
	L 2142.68 -360.25 
	L 2233.81 -360.25 
	L 2367.46 -36.879 
	L 2501.12 -360.25 
	L 2592.24 -360.25 
	L 2592.24 215.75 
	Z 
	"/>
</g>
<g fill="#ffffff" fill-rule="nonzero" stroke-width="0" stroke-linejoin="miter" stroke-linecap="butt" stroke-miterlimit="4" >
	<path d="
	M 2960.89 215.75 
	L 2960.89 -360.25 
	L 3051.72 -360.25 
	L 3051.72 130.871 
	L 3318.16 130.871 
	L 3318.16 215.75 
	Z 
	"/>
</g>
<g fill="#ffffff" fill-rule="nonzero" stroke-width="0" stroke-linejoin="miter" stroke-linecap="butt" stroke-miterlimit="4" >
	<path d="
	M 3404.55 215.75 
	L 3404.55 -360.25 
	L 3743.65 -360.25 
	L 3743.65 -269.3 
	L 3495.38 -269.3 
	L 3495.38 -127.82 
	L 3662.92 -127.82 
	L 3662.92 -34.852 
	L 3495.38 -34.852 
	L 3495.38 122.789 
	L 3761.82 122.789 
	L 3761.82 215.75 
	Z 
	"/>
</g>
<g fill="#ffffff" fill-rule="nonzero" stroke-width="0" stroke-linejoin="miter" stroke-linecap="butt" stroke-miterlimit="4" >
	<path d="
	M 610.68 71.75 
	L 610.68 -395.11 
	L 558.68 -395.11 
	L 558.68 -467.87 
	L 564.68 -467.87 
	C 588.68 -467.87 614.68 -482.01 630.68 -504.24 
	L 702.68 -504.24 
	L 702.68 71.75 
	Z 
	"/>
</g>
<g fill="#ffffff" fill-rule="nonzero" stroke-width="0" stroke-linejoin="miter" stroke-linecap="butt" stroke-miterlimit="4" >
	<path d="
	M 1172.71 -504.24 
	L 673.879 359.75 
	L 780.297 359.75 
	L 1279.13 -504.24 
	Z 
	"/>
</g>
<g fill="#ffffff" fill-rule="nonzero" stroke-width="0" stroke-linejoin="miter" stroke-linecap="butt" stroke-miterlimit="4" >
	<path d="
	M 1475.71 90.09 
	C 1398.14 138.309 1326.81 159.641 1283.71 266.781 
	L 1566.68 266.781 
	L 1566.68 359.738 
	L 1174.56 359.738 
	C 1176.59 293.051 1190.51 238.352 1223.07 183.922 
	C 1324.14 14.98 1475.72 33.641 1475.72 -56.578 
	C 1475.72 -99.02 1427.21 -133.379 1370.62 -133.379 
	C 1312.01 -133.379 1275.63 -105.09 1265.52 -52.539 
	L 1174.56 -72.75 
	C 1194.77 -167.738 1269.56 -226.35 1370.62 -226.35 
	C 1479.77 -226.35 1566.68 -149.551 1566.68 -54.559 
	C 1566.68 14.309 1527.06 58.18 1475.71 90.09 
	Z 
	"/>
</g>
</g >
</g>
</svg>
