<?xml version="1.0" encoding="UTF-8"?>
<svg id="For_Sheets" xmlns="http://www.w3.org/2000/svg" version="1.1" viewBox="0 0 3456 2592">
  <!-- Generator: Adobe Illustrator 29.1.0, SVG Export Plug-In . SVG Version: 2.1.0 Build 142)  -->
  <defs>
    <style>
      .st0 {
        fill: #231f20;
      }

      .st1 {
        fill: #f7921e;
      }
    </style>
  </defs>
  <g>
    <path class="st1" d="M162,2592.1c-43.1,0-83.8-16.9-114.5-47.6-30.7-30.7-47.6-71.4-47.6-114.5V162C-.1,118.9,16.8,78.2,47.5,47.5,78.2,16.8,118.9-.1,162-.1h3132c43.1,0,83.8,16.9,114.5,47.6,30.7,30.7,47.6,71.4,47.6,114.5v2268c0,43.1-16.9,83.8-47.6,114.5s-71.4,47.6-114.5,47.6H162Z"/>
    <path class="st0" d="M3294,0c89.1,0,162,72.9,162,162v2268c0,89.1-72.9,162-162,162H162c-89.1,0-162-72.9-162-162V162C0,72.9,72.9,0,162,0h3132M3294-.2H162c-21.8,0-43,4.3-63,12.8-19.3,8.2-36.7,19.9-51.6,34.9-14.9,14.9-26.7,32.3-34.9,51.6C4.1,119-.2,140.2-.2,162v2268c0,21.8,4.3,43,12.8,63,8.2,19.3,19.9,36.7,34.9,51.6,14.9,14.9,32.3,26.7,51.6,34.9,20,8.5,41.2,12.8,63,12.8h3132c21.8,0,43-4.3,63-12.8,19.3-8.2,36.7-19.9,51.6-34.9,14.9-14.9,26.7-32.3,34.9-51.6,8.5-20,12.8-41.2,12.8-63V162c0-21.8-4.3-43-12.8-63-8.2-19.3-19.9-36.7-34.9-51.6-14.9-14.9-32.3-26.7-51.6-34.9-20-8.5-41.2-12.8-63-12.8h0Z"/>
  </g>
  <path class="st0" d="M162,2547c-31.1,0-60.4-12.2-82.6-34.4-22.2-22.2-34.4-51.5-34.4-82.6V162c0-31.1,12.2-60.4,34.4-82.6,22.2-22.2,51.5-34.4,82.6-34.4h3132c31.1,0,60.4,12.2,82.6,34.4,22.2,22.2,34.4,51.5,34.4,82.6v2268c0,31.1-12.2,60.4-34.4,82.6-22.2,22.2-51.5,34.4-82.6,34.4H162Z"/>
  <path class="st1" d="M162,2484c-14.5,0-27.6-5.5-38-16-10.4-10.4-16-23.6-16-38V162c0-14.5,5.5-27.6,16-38s23.6-16,38-16h3132c14.5,0,27.6,5.5,38,16,10.4,10.4,16,23.6,16,38v2268c0,14.5-5.5,27.6-16,38-10.4,10.4-23.6,16-38,16H162Z"/>
  <g>
    <path class="st0" d="M846.6,1080V504h421.9v103.1h-316.4v107.1h172.4v105.1h-172.4v157.6h326.5v103.1h-432Z"/>
    <path class="st0" d="M1975.8,1080V504h103.7v576h-103.7Z"/>
    <path class="st0" d="M2443.9,605.1v474.9h-100.9v-474.9h-165.5v-101.1h432v101.1h-165.5Z"/>
    <path class="st0" d="M1738.8,1080l-129.9-204.1-127.9,204.1h-121.8l188.8-303.2-172.5-272.8h123.8l109.6,175.8,109.6-175.8h123.8l-170.5,272.8,188.8,303.2h-121.8Z"/>
  </g>
  <g>
    <path class="st0" d="M630.3,1799c0-183.9,93.2-297,245.1-297s239,118.4,239,295.1-92.4,301-239,301-245.1-154.5-245.1-299.1ZM735.6,1799c0,123.3,52.6,196,139.7,196s135.7-107.1,135.7-196-50.2-194-135.7-194-139.7,72.8-139.7,194Z"/>
    <path class="st0" d="M1352,1861.6v226.4h-105.1v-576h281.8c121.4,0,185,92.4,185,174.8s-57,174.8-180.6,174.8h-181.1ZM1352,1615.1v143.4h174c50.5,0,84.8-28.3,84.8-70.7s-33.7-72.7-85-72.7h-173.9Z"/>
    <path class="st0" d="M1811.7,1512h421.8v103.1h-316.4v107.1h172.4v105.1h-172.4v157.6h326.5v103.1h-432v-576Z"/>
    <path class="st0" d="M2460.3,1691.9v396.1h-101.4v-576h101.4l266,380v-380h99.4v576h-89.3l-276-396.1Z"/>
  </g>
</svg>