<?xml version="1.0" standalone="no"?>
<svg width="7992px" height="1296px" viewBox="0 -504 7992 1296 " xmlns="http://www.w3.org/2000/svg" xmlns:xlink="http://www.w3.org/1999/xlink">
<title>generated by pstoedit</title>
<!-- generated by pstoedit version:4.02 -->
<g xml:space='preserve'>
<clipPath id="clippath1"> 	<path d="
	M 0 -504.5 
	L 0 792 
	L 7992.5 792 
	L 7992.5 -504.5 
	Z 
	" style="clip-rule:nonzero"/>
</clipPath>
<g style="clip-path:url(#clippath1)"> 
<g fill="#95e8ff" fill-rule="nonzero" stroke-width="0" stroke-linejoin="miter" stroke-linecap="butt" stroke-miterlimit="10" >
	<path d="
	M 0.25 359.75 
	C 0.25 598.34 193.664 791.75 432.25 791.75 
	L 7560.25 791.75 
	C 7798.84 791.75 7992.25 598.34 7992.25 359.75 
	L 7992.25 -504.25 
	L 0.25 -504.25 
	Z 
	"/>
</g>
<g stroke="#7f7f7f" fill="none" stroke-width="0.5" stroke-linejoin="miter" stroke-linecap="butt" stroke-miterlimit="4" >
	<path d="
	M 0.25 359.75 
	C 0.25 598.34 193.664 791.75 432.25 791.75 
	L 7560.25 791.75 
	C 7798.84 791.75 7992.25 598.34 7992.25 359.75 
	L 7992.25 -504.25 
	L 0.25 -504.25 
	Z 
	"/>
</g>
<g fill="#7f7f7f" fill-rule="nonzero" stroke-width="0" stroke-linejoin="miter" stroke-linecap="butt" stroke-miterlimit="4" >
	<path d="
	M 7920.25 -504.25 
	L 7920.25 359.75 
	C 7920.25 558.262 7758.75 719.75 7560.25 719.75 
	L 432.25 719.75 
	C 233.746 719.75 72.25 558.262 72.25 359.75 
	L 72.25 -504.25 
	L 18.25 -504.25 
	L 18.25 359.75 
	C 18.25 588.031 203.969 773.75 432.25 773.75 
	L 7560.25 773.75 
	C 7788.53 773.75 7974.25 588.031 7974.25 359.75 
	L 7974.25 -504.25 
	Z 
	"/>
</g>
<g fill="#7f7f7f" fill-rule="nonzero" stroke-width="0" stroke-linejoin="miter" stroke-linecap="butt" stroke-miterlimit="4" >
	<path d="
	M 1191.71 -288.25 
	L 1191.71 35.75 
	L 1606.09 -71.203 
	C 1608.85 -71.883 1611.74 -72.25 1614.71 -72.25 
	C 1634.59 -72.25 1650.71 -56.133 1650.71 -36.25 
	C 1650.71 -26.27 1646.64 -17.242 1640.08 -10.719 
	L 1074.71 503.75 
	L 509.328 -10.719 
	C 502.77 -17.242 498.707 -26.27 498.707 -36.25 
	C 498.707 -56.133 514.824 -72.25 534.707 -72.25 
	C 537.676 -72.25 540.559 -71.883 543.32 -71.203 
	L 957.707 35.75 
	L 957.707 -288.25 
	Z 
	"/>
</g>
<g fill="#7f7f7f" fill-rule="nonzero" stroke-width="0" stroke-linejoin="miter" stroke-linecap="butt" stroke-miterlimit="4" >
	<path d="
	M 7034.83 -288.25 
	L 7034.83 35.75 
	L 7449.21 -71.203 
	C 7451.98 -71.883 7454.86 -72.25 7457.83 -72.25 
	C 7477.71 -72.25 7493.83 -56.133 7493.83 -36.25 
	C 7493.83 -26.27 7489.77 -17.242 7483.21 -10.719 
	L 6917.83 503.75 
	L 6352.45 -10.719 
	C 6345.89 -17.242 6341.83 -26.27 6341.83 -36.25 
	C 6341.83 -56.133 6357.95 -72.25 6377.83 -72.25 
	C 6380.8 -72.25 6383.68 -71.883 6386.44 -71.203 
	L 6800.83 35.75 
	L 6800.83 -288.25 
	Z 
	"/>
</g>
<g fill="#7f7f7f" fill-rule="nonzero" stroke-width="0" stroke-linejoin="miter" stroke-linecap="butt" stroke-miterlimit="4" >
	<path d="
	M 5091.37 323.754 
	L 5091.37 -108.25 
	L 5175.87 -108.25 
	L 5175.87 242.187 
	L 5411.27 242.187 
	L 5411.27 323.754 
	Z 
	"/>
</g>
<g fill="#7f7f7f" fill-rule="nonzero" stroke-width="0" stroke-linejoin="miter" stroke-linecap="butt" stroke-miterlimit="4" >
	<path d="
	M 4895.81 323.754 
	L 4705.52 47.332 
	L 4705.52 323.754 
	L 4620.27 323.754 
	L 4620.27 -108.25 
	L 4705.52 -108.25 
	L 4885.16 156.09 
	L 4885.16 -108.25 
	L 4970.41 -108.25 
	L 4970.41 323.754 
	Z 
	"/>
</g>
<g fill="#7f7f7f" fill-rule="nonzero" stroke-width="0" stroke-linejoin="miter" stroke-linecap="butt" stroke-miterlimit="4" >
	<path d="
	M 4335.8 -28.191 
	C 4273.51 -28.191 4240.09 17.121 4240.09 107.754 
	C 4240.09 195.363 4275.03 245.207 4335.8 245.207 
	C 4395.05 245.207 4431.51 190.828 4431.51 106.242 
	C 4431.51 12.59 4396.57 -28.191 4335.8 -28.191 
	Z 
	M 4335.8 331.309 
	C 4205.15 331.309 4153.49 221.043 4153.49 107.754 
	C 4153.49 -28.191 4223.38 -114.293 4335.8 -114.293 
	C 4440.63 -114.293 4516.59 -25.172 4516.59 107.754 
	C 4516.59 245.207 4445.19 331.309 4335.8 331.309 
	Z 
	"/>
</g>
<g fill="#7f7f7f" fill-rule="nonzero" stroke-width="0" stroke-linejoin="miter" stroke-linecap="butt" stroke-miterlimit="4" >
	<path d="
	M 5700.08 148.535 
	L 5700.08 323.754 
	L 5613.96 323.754 
	L 5613.96 148.535 
	L 5437.18 -108.25 
	L 5539.92 -108.25 
	L 5659.28 57.906 
	L 5771.09 -108.25 
	L 5873.83 -108.25 
	Z 
	"/>
</g>
<g fill="#7f7f7f" fill-rule="nonzero" stroke-width="0" stroke-linejoin="miter" stroke-linecap="butt" stroke-miterlimit="4" >
	<path d="
	M 2190.71 323.758 
	L 2190.71 -108.25 
	L 2504.57 -108.25 
	L 2504.57 -22.148 
	L 2275.21 -22.148 
	L 2275.21 48.844 
	L 2404.98 48.844 
	L 2404.98 134.941 
	L 2275.21 134.941 
	L 2275.21 237.656 
	L 2510.6 237.656 
	L 2510.6 323.758 
	Z 
	"/>
</g>
<g fill="#7f7f7f" fill-rule="nonzero" stroke-width="0" stroke-linejoin="miter" stroke-linecap="butt" stroke-miterlimit="4" >
	<path d="
	M 3098.34 323.758 
	L 3098.34 -108.25 
	L 3184.74 -108.25 
	L 3184.74 323.758 
	Z 
	"/>
</g>
<g fill="#7f7f7f" fill-rule="nonzero" stroke-width="0" stroke-linejoin="miter" stroke-linecap="butt" stroke-miterlimit="4" >
	<path d="
	M 3495.8 -22.152 
	L 3495.8 323.758 
	L 3412.8 323.758 
	L 3412.8 -22.152 
	L 3293.6 -22.152 
	L 3293.6 -108.25 
	L 3613.49 -108.25 
	L 3613.49 -22.152 
	Z 
	"/>
</g>
<g fill="#7f7f7f" fill-rule="nonzero" stroke-width="0" stroke-linejoin="miter" stroke-linecap="butt" stroke-miterlimit="4" >
	<path d="
	M 2870.14 323.758 
	L 2784.06 178.746 
	L 2694.95 323.758 
	L 2595.27 323.758 
	L 2731.2 95.668 
	L 2607.35 -108.25 
	L 2708.54 -108.25 
	L 2784.06 14.102 
	L 2856.55 -108.25 
	L 2959.25 -108.25 
	L 2836.91 97.18 
	L 2971.33 323.758 
	Z 
	"/>
</g>
</g >
</g>
</svg>
