<?xml version="1.0" standalone="no"?>
<svg width="4752px" height="1296px" viewBox="0 -504 4752 1296 " xmlns="http://www.w3.org/2000/svg" xmlns:xlink="http://www.w3.org/1999/xlink">
<title>generated by pstoedit</title>
<!-- generated by pstoedit version:4.02 -->
<g xml:space='preserve'>
<clipPath id="clippath1"> 	<path d="
	M 0 -504.5 
	L 0 792 
	L 4752.5 792 
	L 4752.5 -504.5 
	Z 
	" style="clip-rule:nonzero"/>
</clipPath>
<g style="clip-path:url(#clippath1)"> 
<g fill="#95e8ff" fill-rule="nonzero" stroke-width="0" stroke-linejoin="miter" stroke-linecap="butt" stroke-miterlimit="10" >
	<path d="
	M 4752.25 656.75 
	C 4752.25 731.309 4691.81 791.75 4617.25 791.75 
	L 135.25 791.75 
	C 60.6914 791.75 0.25 731.309 0.25 656.75 
	L 0.25 -369.25 
	C 0.25 -443.81 60.6914 -504.25 135.25 -504.25 
	L 4617.25 -504.25 
	C 4691.81 -504.25 4752.25 -443.81 4752.25 -369.25 
	Z 
	"/>
</g>
<g stroke="#7f7f7f" fill="none" stroke-width="0.5" stroke-linejoin="miter" stroke-linecap="butt" stroke-miterlimit="4" >
	<path d="
	M 4752.25 656.75 
	C 4752.25 731.309 4691.81 791.75 4617.25 791.75 
	L 135.25 791.75 
	C 60.6914 791.75 0.25 731.309 0.25 656.75 
	L 0.25 -369.25 
	C 0.25 -443.81 60.6914 -504.25 135.25 -504.25 
	L 4617.25 -504.25 
	C 4691.81 -504.25 4752.25 -443.81 4752.25 -369.25 
	Z 
	"/>
</g>
<g fill="#7f7f7f" fill-rule="nonzero" stroke-width="0" stroke-linejoin="miter" stroke-linecap="butt" stroke-miterlimit="4" >
	<path d="
	M 2541.21 575.75 
	L 2541.21 -288.25 
	L 2696.36 -288.25 
	L 2696.36 442.359 
	L 3189.21 442.359 
	L 3189.21 575.75 
	Z 
	"/>
</g>
<g fill="#7f7f7f" fill-rule="nonzero" stroke-width="0" stroke-linejoin="miter" stroke-linecap="butt" stroke-miterlimit="4" >
	<path d="
	M 2182.61 575.75 
	L 1768.53 -18.438 
	L 1768.53 575.75 
	L 1616.29 575.75 
	L 1616.29 -288.25 
	L 1768.53 -288.25 
	L 2167.38 281.687 
	L 2167.38 -288.25 
	L 2316.57 -288.25 
	L 2316.57 575.75 
	Z 
	"/>
</g>
<g fill="#7f7f7f" fill-rule="nonzero" stroke-width="0" stroke-linejoin="miter" stroke-linecap="butt" stroke-miterlimit="4" >
	<path d="
	M 1059.03 -148.797 
	C 928.383 -148.797 849.383 -39.66 849.383 142.234 
	C 849.383 327.164 928.383 436.301 1059.03 436.301 
	C 1223.11 436.301 1262.61 275.625 1262.61 142.234 
	C 1262.61 -39.66 1189.68 -148.797 1059.03 -148.797 
	Z 
	M 1059.03 590.91 
	C 803.801 590.91 691.379 360.508 691.379 142.234 
	C 691.379 -133.641 831.148 -303.41 1059.03 -303.41 
	C 1271.73 -303.41 1417.57 -124.547 1417.57 139.203 
	C 1417.57 409.016 1277.8 590.91 1059.03 590.91 
	Z 
	"/>
</g>
<g fill="#7f7f7f" fill-rule="nonzero" stroke-width="0" stroke-linejoin="miter" stroke-linecap="butt" stroke-miterlimit="4" >
	<path d="
	M 3776.56 224.086 
	L 3776.56 575.75 
	L 3622 575.75 
	L 3622 224.086 
	L 3258.32 -288.25 
	L 3449.25 -288.25 
	L 3700.8 63.414 
	L 3949.32 -288.25 
	L 4140.25 -288.25 
	Z 
	"/>
</g>
</g >
</g>
</svg>
