<?xml version="1.0" standalone="no"?>
<svg width="7992px" height="1296px" viewBox="0 -504 7992 1296 " xmlns="http://www.w3.org/2000/svg" xmlns:xlink="http://www.w3.org/1999/xlink">
<title>generated by pstoedit</title>
<!-- generated by pstoedit version:4.02 -->
<g xml:space='preserve'>
<clipPath id="clippath1"> 	<path d="
	M 0 -504.5 
	L 0 792 
	L 7992.5 792 
	L 7992.5 -504.5 
	Z 
	" style="clip-rule:nonzero"/>
</clipPath>
<g style="clip-path:url(#clippath1)"> 
<g fill="#95e8ff" fill-rule="nonzero" stroke-width="0" stroke-linejoin="miter" stroke-linecap="butt" stroke-miterlimit="10" >
	<path d="
	M 0.25 359.75 
	C 0.25 598.34 193.664 791.75 432.25 791.75 
	L 7560.25 791.75 
	C 7798.84 791.75 7992.25 598.34 7992.25 359.75 
	L 7992.25 -504.25 
	L 0.25 -504.25 
	Z 
	"/>
</g>
<g stroke="#7f7f7f" fill="none" stroke-width="0.5" stroke-linejoin="miter" stroke-linecap="butt" stroke-miterlimit="4" >
	<path d="
	M 0.25 359.75 
	C 0.25 598.34 193.664 791.75 432.25 791.75 
	L 7560.25 791.75 
	C 7798.84 791.75 7992.25 598.34 7992.25 359.75 
	L 7992.25 -504.25 
	L 0.25 -504.25 
	Z 
	"/>
</g>
<g fill="#7f7f7f" fill-rule="nonzero" stroke-width="0" stroke-linejoin="miter" stroke-linecap="butt" stroke-miterlimit="4" >
	<path d="
	M 7920.25 -504.25 
	L 7920.25 359.75 
	C 7920.25 558.262 7758.75 719.75 7560.25 719.75 
	L 432.25 719.75 
	C 233.746 719.75 72.25 558.262 72.25 359.75 
	L 72.25 -504.25 
	L 18.25 -504.25 
	L 18.25 359.75 
	C 18.25 588.031 203.969 773.75 432.25 773.75 
	L 7560.25 773.75 
	C 7788.53 773.75 7974.25 588.031 7974.25 359.75 
	L 7974.25 -504.25 
	Z 
	"/>
</g>
<g fill="#7f7f7f" fill-rule="nonzero" stroke-width="0" stroke-linejoin="miter" stroke-linecap="butt" stroke-miterlimit="4" >
	<path d="
	M 5163.35 323.754 
	L 5163.35 -108.25 
	L 5247.85 -108.25 
	L 5247.85 242.187 
	L 5483.25 242.187 
	L 5483.25 323.754 
	Z 
	"/>
</g>
<g fill="#7f7f7f" fill-rule="nonzero" stroke-width="0" stroke-linejoin="miter" stroke-linecap="butt" stroke-miterlimit="4" >
	<path d="
	M 4967.79 323.754 
	L 4777.5 47.332 
	L 4777.5 323.754 
	L 4692.25 323.754 
	L 4692.25 -108.25 
	L 4777.5 -108.25 
	L 4957.14 156.09 
	L 4957.14 -108.25 
	L 5042.39 -108.25 
	L 5042.39 323.754 
	Z 
	"/>
</g>
<g fill="#7f7f7f" fill-rule="nonzero" stroke-width="0" stroke-linejoin="miter" stroke-linecap="butt" stroke-miterlimit="4" >
	<path d="
	M 4407.78 -28.191 
	C 4345.49 -28.191 4312.07 17.121 4312.07 107.754 
	C 4312.07 195.363 4347.01 245.207 4407.78 245.207 
	C 4467.03 245.207 4503.49 190.828 4503.49 106.242 
	C 4503.49 12.59 4468.55 -28.191 4407.78 -28.191 
	Z 
	M 4407.78 331.309 
	C 4277.13 331.309 4225.47 221.043 4225.47 107.754 
	C 4225.47 -28.191 4295.36 -114.293 4407.78 -114.293 
	C 4512.61 -114.293 4588.57 -25.172 4588.57 107.754 
	C 4588.57 245.207 4517.17 331.309 4407.78 331.309 
	Z 
	"/>
</g>
<g fill="#7f7f7f" fill-rule="nonzero" stroke-width="0" stroke-linejoin="miter" stroke-linecap="butt" stroke-miterlimit="4" >
	<path d="
	M 5772.06 148.535 
	L 5772.06 323.754 
	L 5685.94 323.754 
	L 5685.94 148.535 
	L 5509.16 -108.25 
	L 5611.91 -108.25 
	L 5731.26 57.906 
	L 5843.07 -108.25 
	L 5945.81 -108.25 
	Z 
	"/>
</g>
<g fill="#7f7f7f" fill-rule="nonzero" stroke-width="0" stroke-linejoin="miter" stroke-linecap="butt" stroke-miterlimit="4" >
	<path d="
	M 2262.69 323.758 
	L 2262.69 -108.25 
	L 2576.55 -108.25 
	L 2576.55 -22.148 
	L 2347.19 -22.148 
	L 2347.19 48.844 
	L 2476.96 48.844 
	L 2476.96 134.941 
	L 2347.19 134.941 
	L 2347.19 237.656 
	L 2582.59 237.656 
	L 2582.59 323.758 
	Z 
	"/>
</g>
<g fill="#7f7f7f" fill-rule="nonzero" stroke-width="0" stroke-linejoin="miter" stroke-linecap="butt" stroke-miterlimit="4" >
	<path d="
	M 3170.32 323.758 
	L 3170.32 -108.25 
	L 3256.72 -108.25 
	L 3256.72 323.758 
	Z 
	"/>
</g>
<g fill="#7f7f7f" fill-rule="nonzero" stroke-width="0" stroke-linejoin="miter" stroke-linecap="butt" stroke-miterlimit="4" >
	<path d="
	M 3567.78 -22.152 
	L 3567.78 323.758 
	L 3484.79 323.758 
	L 3484.79 -22.152 
	L 3365.58 -22.152 
	L 3365.58 -108.25 
	L 3685.48 -108.25 
	L 3685.48 -22.152 
	Z 
	"/>
</g>
<g fill="#7f7f7f" fill-rule="nonzero" stroke-width="0" stroke-linejoin="miter" stroke-linecap="butt" stroke-miterlimit="4" >
	<path d="
	M 2942.12 323.758 
	L 2856.04 178.746 
	L 2766.93 323.758 
	L 2667.25 323.758 
	L 2803.18 95.668 
	L 2679.34 -108.25 
	L 2780.52 -108.25 
	L 2856.04 14.102 
	L 2928.53 -108.25 
	L 3031.23 -108.25 
	L 2908.9 97.18 
	L 3043.31 323.758 
	Z 
	"/>
</g>
<g fill="#7f7f7f" fill-rule="nonzero" stroke-width="0" stroke-linejoin="miter" stroke-linecap="butt" stroke-miterlimit="4" >
	<path d="
	M 1489.94 286.254 
	L 1613.39 -350.57 
	C 1616.67 -362.62 1613.59 -376.04 1604.12 -385.5 
	C 1594.66 -394.96 1581.24 -398.05 1569.19 -394.77 
	L 932.367 -271.31 
	C 925.504 -270.02 918.945 -266.71 913.633 -261.4 
	C 899.574 -247.34 899.574 -224.55 913.633 -210.49 
	C 915.883 -208.24 918.355 -206.355 920.98 -204.828 
	L 1147.51 -65.711 
	L 606.57 430.68 
	L 787.945 612.051 
	L 1284.33 71.113 
	L 1423.45 297.641 
	C 1424.98 300.266 1426.86 302.738 1429.11 304.988 
	C 1443.17 319.051 1465.97 319.051 1480.02 304.988 
	C 1485.34 299.68 1488.64 293.117 1489.94 286.254 
	Z 
	"/>
</g>
<g fill="#7f7f7f" fill-rule="nonzero" stroke-width="0" stroke-linejoin="miter" stroke-linecap="butt" stroke-miterlimit="4" >
	<path d="
	M 7261.09 286.254 
	L 7384.54 -350.57 
	C 7387.82 -362.62 7384.74 -376.04 7375.27 -385.5 
	C 7365.81 -394.96 7352.39 -398.05 7340.34 -394.77 
	L 6703.52 -271.31 
	C 6696.65 -270.02 6690.1 -266.71 6684.78 -261.4 
	C 6670.72 -247.34 6670.72 -224.55 6684.78 -210.49 
	C 6687.03 -208.24 6689.51 -206.355 6692.13 -204.828 
	L 6918.66 -65.711 
	L 6377.72 430.68 
	L 6559.09 612.051 
	L 7055.48 71.113 
	L 7194.6 297.641 
	C 7196.13 300.266 7198.01 302.738 7200.26 304.988 
	C 7214.32 319.051 7237.12 319.051 7251.18 304.988 
	C 7256.49 299.68 7259.79 293.117 7261.09 286.254 
	Z 
	"/>
</g>
</g >
</g>
</svg>
