<?xml version="1.0" encoding="UTF-8" standalone="no"?>
<!-- Created with Inkscape (http://www.inkscape.org/) -->

<svg
   version="1.1"
   id="svg1"
   width="16704.668"
   height="3456.6667"
   viewBox="0 0 16704.668 3456.6667"
   sodipodi:docname="tmpqm_2g4pu.pdf"
   xmlns:inkscape="http://www.inkscape.org/namespaces/inkscape"
   xmlns:sodipodi="http://sodipodi.sourceforge.net/DTD/sodipodi-0.dtd"
   xmlns="http://www.w3.org/2000/svg"
   xmlns:svg="http://www.w3.org/2000/svg">
  <defs
     id="defs1" />
  <sodipodi:namedview
     id="namedview1"
     pagecolor="#ffffff"
     bordercolor="#000000"
     borderopacity="0.25"
     inkscape:showpageshadow="2"
     inkscape:pageopacity="0.0"
     inkscape:pagecheckerboard="0"
     inkscape:deskcolor="#d1d1d1">
    <inkscape:page
       x="0"
       y="0"
       inkscape:label="1"
       id="page1"
       width="16704.668"
       height="3456.6667"
       margin="0"
       bleed="0" />
  </sodipodi:namedview>
  <g
     id="g1"
     inkscape:groupmode="layer"
     inkscape:label="1">
    <g
       id="group-R5">
      <path
         id="path2"
         d="M 2.5,8642.5 C 2.5,3870.8 3870.76,2.5 8642.5,2.5 H 116642 c 4772,0 8640,3868.3 8640,8640 v 17280 H 2.5 v -17280"
         style="fill:#fccc2d;fill-opacity:1;fill-rule:nonzero;stroke:none"
         transform="matrix(0.13333333,0,0,-0.13333333,0,3456.6667)" />
      <path
         id="path3"
         d="M 2.5,8642.5 C 2.5,3870.8 3870.76,2.5 8642.5,2.5 H 116642 c 4772,0 8640,3868.3 8640,8640 v 17280 H 2.5 Z"
         style="fill:none;stroke:#231f20;stroke-width:5;stroke-linecap:butt;stroke-linejoin:miter;stroke-miterlimit:4;stroke-dasharray:none;stroke-opacity:1"
         transform="matrix(0.13333333,0,0,-0.13333333,0,3456.6667)" />
      <path
         id="path4"
         d="m 123842,25922.5 v -17280 c 0,-3970.1 -3230,-7200 -7200,-7200 H 8642.5 c -3970.1,0 -7200,3229.9 -7200,7200 v 17280 h -1080 v -17280 c 0,-4565.6 3714.4,-8280 8280,-8280 H 116642 c 4566,0 8280,3714.4 8280,8280 v 17280 h -1080"
         style="fill:#231f20;fill-opacity:1;fill-rule:nonzero;stroke:none"
         transform="matrix(0.13333333,0,0,-0.13333333,0,3456.6667)" />
      <path
         id="path5"
         d="m 14025.9,9362.4 v 8640.1 h 6277.2 v -1722 h -4587.2 v -1419.9 h 2595.4 v -1721.9 h -2595.4 v -2054.3 h 4707.9 v -1722 h -6397.9"
         style="fill:#231f20;fill-opacity:1;fill-rule:nonzero;stroke:none"
         transform="matrix(0.13333333,0,0,-0.13333333,0,3456.6667)" />
      <path
         id="path6"
         d="m 32178.5,9362.4 v 8640.1 h 1728 V 9362.4 h -1728"
         style="fill:#231f20;fill-opacity:1;fill-rule:nonzero;stroke:none"
         transform="matrix(0.13333333,0,0,-0.13333333,0,3456.6667)" />
      <path
         id="path7"
         d="M 40127.7,16280.5 V 9362.4 h -1659.9 v 6918.1 h -2384.1 v 1722 h 6397.9 v -1722 h -2353.9"
         style="fill:#231f20;fill-opacity:1;fill-rule:nonzero;stroke:none"
         transform="matrix(0.13333333,0,0,-0.13333333,0,3456.6667)" />
      <path
         id="path8"
         d="m 27614.5,9362.4 -1721.6,2900.1 -1782.2,-2900.1 h -1993.6 l 2718.6,4561.7 -2476.9,4078.4 h 2023.8 l 1510.3,-2447 1449.8,2447 h 2054 L 26950,13893.9 29638.3,9362.4 h -2023.8"
         style="fill:#231f20;fill-opacity:1;fill-rule:nonzero;stroke:none"
         transform="matrix(0.13333333,0,0,-0.13333333,0,3456.6667)" />
      <path
         id="path9"
         d="m 98682,9362.4 v 8640.1 h 1689 v -7008.7 h 4708 V 9362.4 h -6397"
         style="fill:#231f20;fill-opacity:1;fill-rule:nonzero;stroke:none"
         transform="matrix(0.13333333,0,0,-0.13333333,0,3456.6667)" />
      <path
         id="path10"
         d="M 94770.9,9362.4 90965,14890.9 V 9362.4 h -1705 v 8640.1 h 1705 l 3592.8,-5286.8 v 5286.8 h 1704.9 V 9362.4 h -1491.8"
         style="fill:#231f20;fill-opacity:1;fill-rule:nonzero;stroke:none"
         transform="matrix(0.13333333,0,0,-0.13333333,0,3456.6667)" />
      <path
         id="path11"
         d="m 83570.6,16401.4 c -1245.7,0 -1914.2,-906.3 -1914.2,-2719 0,-1752.1 698.9,-2749.1 1914.2,-2749.1 1185.1,0 1914.3,1087.6 1914.3,2779.4 0,1873 -698.9,2688.7 -1914.3,2688.7 z m 0,-7190.1 c -2613,0 -3646.1,2205.4 -3646.1,4471.1 0,2719 1397.7,4440.9 3646.1,4440.9 2096.6,0 3615.8,-1782.4 3615.8,-4440.9 0,-2749.1 -1428.1,-4471.1 -3615.8,-4471.1"
         style="fill:#231f20;fill-opacity:1;fill-rule:nonzero;stroke:none"
         transform="matrix(0.13333333,0,0,-0.13333333,0,3456.6667)" />
      <path
         id="path12"
         d="M 110856,12866.8 V 9362.4 h -1723 v 3504.4 l -3535,5135.7 h 2055 l 2387,-3323.1 2236,3323.1 h 2055 l -3475,-5135.7"
         style="fill:#231f20;fill-opacity:1;fill-rule:nonzero;stroke:none"
         transform="matrix(0.13333333,0,0,-0.13333333,0,3456.6667)" />
      <path
         id="path13"
         d="m 68789.5,10117 2469.1,12736.4 c 65.6,241 3.9,509.4 -185.4,698.7 -189.2,189.2 -457.6,250.9 -698.7,185.4 L 57638.1,21268.4 c -137.2,-26 -268.4,-92 -374.7,-198.3 -281.1,-281.2 -281.1,-737 0,-1018.2 45,-45 94.5,-82.7 147,-113.3 l 4530.5,-2782.3 -10818.7,-9927.8 3627.5,-3627.4 9927.7,10818.7 2782.4,-4530.5 c 30.6,-52.5 68.3,-102 113.3,-147 281.1,-281.2 737,-281.2 1018.2,0 106.2,106.2 172.3,237.4 198.2,374.7"
         style="fill:#231f20;fill-opacity:1;fill-rule:nonzero;stroke:none"
         transform="matrix(0.13333333,0,0,-0.13333333,0,3456.6667)" />
    </g>
  </g>
</svg>
