<?xml version="1.0" standalone="no"?>
<svg width="12528px" height="2592px" viewBox="0 -1800 12528 2592 " xmlns="http://www.w3.org/2000/svg" xmlns:xlink="http://www.w3.org/1999/xlink">
<title>generated by pstoedit</title>
<!-- generated by pstoedit version:4.02 -->
<g xml:space='preserve'>
<clipPath id="clippath1"> 	<path d="
	M 0 -1800.5 
	L 0 792 
	L 12528.5 792 
	L 12528.5 -1800.5 
	Z 
	" style="clip-rule:nonzero"/>
</clipPath>
<g style="clip-path:url(#clippath1)"> 
<g fill="#95e8ff" fill-rule="nonzero" stroke-width="0" stroke-linejoin="miter" stroke-linecap="butt" stroke-miterlimit="10" >
	<path d="
	M 0.25 -72.25 
	C 0.25 404.922 387.074 791.75 864.25 791.75 
	L 11664.2 791.75 
	C 12141.4 791.75 12528.2 404.922 12528.2 -72.25 
	L 12528.2 -1800.25 
	L 0.25 -1800.25 
	Z 
	"/>
</g>
<g stroke="#7f7f7f" fill="none" stroke-width="0.5" stroke-linejoin="miter" stroke-linecap="butt" stroke-miterlimit="4" >
	<path d="
	M 0.25 -72.25 
	C 0.25 404.922 387.074 791.75 864.25 791.75 
	L 11664.2 791.75 
	C 12141.4 791.75 12528.2 404.922 12528.2 -72.25 
	L 12528.2 -1800.25 
	L 0.25 -1800.25 
	Z 
	"/>
</g>
<g fill="#7f7f7f" fill-rule="nonzero" stroke-width="0" stroke-linejoin="miter" stroke-linecap="butt" stroke-miterlimit="4" >
	<path d="
	M 12384.2 -1800.25 
	L 12384.2 -72.25 
	C 12384.2 324.762 12061.2 647.75 11664.2 647.75 
	L 864.25 647.75 
	C 467.238 647.75 144.25 324.762 144.25 -72.25 
	L 144.25 -1800.25 
	L 36.25 -1800.25 
	L 36.25 -72.25 
	C 36.25 384.309 407.691 755.75 864.25 755.75 
	L 11664.2 755.75 
	C 12120.8 755.75 12492.2 384.309 12492.2 -72.25 
	L 12492.2 -1800.25 
	Z 
	"/>
</g>
<g fill="#7f7f7f" fill-rule="nonzero" stroke-width="0" stroke-linejoin="miter" stroke-linecap="butt" stroke-miterlimit="4" >
	<path d="
	M 6426.25 -1368.25 
	L 6426.25 -720.25 
	L 7255.02 -934.16 
	C 7260.54 -935.52 7266.31 -936.25 7272.25 -936.25 
	C 7312.01 -936.25 7344.25 -904.02 7344.25 -864.25 
	C 7344.25 -844.29 7336.13 -826.23 7323.01 -813.19 
	L 6192.25 215.75 
	L 5061.49 -813.19 
	C 5048.38 -826.23 5040.25 -844.29 5040.25 -864.25 
	C 5040.25 -904.02 5072.48 -936.25 5112.25 -936.25 
	C 5118.19 -936.25 5123.96 -935.52 5129.48 -934.16 
	L 5958.25 -720.25 
	L 5958.25 -1368.25 
	Z 
	"/>
</g>
<g fill="#7f7f7f" fill-rule="nonzero" stroke-width="0" stroke-linejoin="miter" stroke-linecap="butt" stroke-miterlimit="4" >
	<path d="
	M 1114.67 -144.238 
	L 1114.67 -1008.25 
	L 1742.4 -1008.25 
	L 1742.4 -836.05 
	L 1283.68 -836.05 
	L 1283.68 -694.06 
	L 1543.21 -694.06 
	L 1543.21 -521.86 
	L 1283.68 -521.86 
	L 1283.68 -316.44 
	L 1754.47 -316.44 
	L 1754.47 -144.238 
	Z 
	"/>
</g>
<g fill="#7f7f7f" fill-rule="nonzero" stroke-width="0" stroke-linejoin="miter" stroke-linecap="butt" stroke-miterlimit="4" >
	<path d="
	M 2929.94 -144.238 
	L 2929.94 -1008.25 
	L 3102.73 -1008.25 
	L 3102.73 -144.238 
	Z 
	"/>
</g>
<g fill="#7f7f7f" fill-rule="nonzero" stroke-width="0" stroke-linejoin="miter" stroke-linecap="butt" stroke-miterlimit="4" >
	<path d="
	M 3724.86 -836.05 
	L 3724.86 -144.238 
	L 3558.87 -144.238 
	L 3558.87 -836.05 
	L 3320.46 -836.05 
	L 3320.46 -1008.25 
	L 3960.25 -1008.25 
	L 3960.25 -836.05 
	Z 
	"/>
</g>
<g fill="#7f7f7f" fill-rule="nonzero" stroke-width="0" stroke-linejoin="miter" stroke-linecap="butt" stroke-miterlimit="4" >
	<path d="
	M 2473.54 -144.238 
	L 2301.37 -434.25 
	L 2123.16 -144.238 
	L 1923.8 -144.238 
	L 2195.65 -600.41 
	L 1947.97 -1008.25 
	L 2150.34 -1008.25 
	L 2301.37 -763.55 
	L 2446.36 -1008.25 
	L 2651.75 -1008.25 
	L 2407.09 -597.39 
	L 2675.92 -144.238 
	Z 
	"/>
</g>
<g fill="#7f7f7f" fill-rule="nonzero" stroke-width="0" stroke-linejoin="miter" stroke-linecap="butt" stroke-miterlimit="4" >
	<path d="
	M 10083.9 -144.238 
	L 10083.9 -1008.25 
	L 10252.9 -1008.25 
	L 10252.9 -307.38 
	L 10723.7 -307.38 
	L 10723.7 -144.238 
	Z 
	"/>
</g>
<g fill="#7f7f7f" fill-rule="nonzero" stroke-width="0" stroke-linejoin="miter" stroke-linecap="butt" stroke-miterlimit="4" >
	<path d="
	M 9692.89 -144.238 
	L 9312.3 -697.09 
	L 9312.3 -144.238 
	L 9141.8 -144.238 
	L 9141.8 -1008.25 
	L 9312.3 -1008.25 
	L 9671.58 -479.57 
	L 9671.58 -1008.25 
	L 9842.07 -1008.25 
	L 9842.07 -144.238 
	Z 
	"/>
</g>
<g fill="#7f7f7f" fill-rule="nonzero" stroke-width="0" stroke-linejoin="miter" stroke-linecap="butt" stroke-miterlimit="4" >
	<path d="
	M 8572.86 -848.14 
	C 8448.29 -848.14 8381.44 -757.51 8381.44 -576.24 
	C 8381.44 -401.03 8451.33 -301.33 8572.86 -301.33 
	C 8691.37 -301.33 8764.29 -410.09 8764.29 -579.27 
	C 8764.29 -766.57 8694.4 -848.14 8572.86 -848.14 
	Z 
	M 8572.86 -129.129 
	C 8311.56 -129.129 8208.25 -349.67 8208.25 -576.24 
	C 8208.25 -848.14 8348.02 -1020.33 8572.86 -1020.33 
	C 8782.52 -1020.33 8934.44 -842.09 8934.44 -576.24 
	C 8934.44 -301.33 8791.63 -129.129 8572.86 -129.129 
	Z 
	"/>
</g>
<g fill="#7f7f7f" fill-rule="nonzero" stroke-width="0" stroke-linejoin="miter" stroke-linecap="butt" stroke-miterlimit="4" >
	<path d="
	M 11301.4 -494.68 
	L 11301.4 -144.238 
	L 11129.1 -144.238 
	L 11129.1 -494.68 
	L 10775.6 -1008.25 
	L 10981.1 -1008.25 
	L 11219.8 -675.94 
	L 11443.4 -1008.25 
	L 11648.9 -1008.25 
	Z 
	"/>
</g>
</g >
</g>
</svg>
