<?xml version="1.0" standalone="no"?>
<svg width="4752px" height="1296px" viewBox="0 -504 4752 1296 " xmlns="http://www.w3.org/2000/svg" xmlns:xlink="http://www.w3.org/1999/xlink">
<title>generated by pstoedit</title>
<!-- generated by pstoedit version:4.02 -->
<g xml:space='preserve'>
<clipPath id="clippath1"> 	<path d="
	M 0 -504.5 
	L 0 792 
	L 4752.5 792 
	L 4752.5 -504.5 
	Z 
	" style="clip-rule:nonzero"/>
</clipPath>
<g style="clip-path:url(#clippath1)"> 
<g fill="#95e8ff" fill-rule="nonzero" stroke-width="0" stroke-linejoin="miter" stroke-linecap="butt" stroke-miterlimit="10" >
	<path d="
	M 4752.25 656.75 
	C 4752.25 731.309 4691.81 791.75 4617.25 791.75 
	L 135.25 791.75 
	C 60.6914 791.75 0.25 731.309 0.25 656.75 
	L 0.25 -369.25 
	C 0.25 -443.81 60.6914 -504.25 135.25 -504.25 
	L 4617.25 -504.25 
	C 4691.81 -504.25 4752.25 -443.81 4752.25 -369.25 
	Z 
	"/>
</g>
<g stroke="#7f7f7f" fill="none" stroke-width="0.5" stroke-linejoin="miter" stroke-linecap="butt" stroke-miterlimit="4" >
	<path d="
	M 4752.25 656.75 
	C 4752.25 731.309 4691.81 791.75 4617.25 791.75 
	L 135.25 791.75 
	C 60.6914 791.75 0.25 731.309 0.25 656.75 
	L 0.25 -369.25 
	C 0.25 -443.81 60.6914 -504.25 135.25 -504.25 
	L 4617.25 -504.25 
	C 4691.81 -504.25 4752.25 -443.81 4752.25 -369.25 
	Z 
	"/>
</g>
<g fill="#7f7f7f" fill-rule="nonzero" stroke-width="0" stroke-linejoin="miter" stroke-linecap="butt" stroke-miterlimit="4" >
	<path d="
	M 965.988 575.75 
	L 965.988 -288.25 
	L 1598.78 -288.25 
	L 1598.78 -133.645 
	L 1124.19 -133.645 
	L 1124.19 27.031 
	L 1382.78 27.031 
	L 1382.78 184.672 
	L 1124.19 184.672 
	L 1124.19 421.137 
	L 1613.99 421.137 
	L 1613.99 575.75 
	Z 
	"/>
</g>
<g fill="#7f7f7f" fill-rule="nonzero" stroke-width="0" stroke-linejoin="miter" stroke-linecap="butt" stroke-miterlimit="4" >
	<path d="
	M 2777.36 575.75 
	L 2777.36 -288.25 
	L 2932.88 -288.25 
	L 2932.88 575.75 
	Z 
	"/>
</g>
<g fill="#7f7f7f" fill-rule="nonzero" stroke-width="0" stroke-linejoin="miter" stroke-linecap="butt" stroke-miterlimit="4" >
	<path d="
	M 3538.21 -136.676 
	L 3538.21 575.75 
	L 3386.81 575.75 
	L 3386.81 -136.676 
	L 3138.51 -136.676 
	L 3138.51 -288.25 
	L 3786.51 -288.25 
	L 3786.51 -136.676 
	Z 
	"/>
</g>
<g fill="#7f7f7f" fill-rule="nonzero" stroke-width="0" stroke-linejoin="miter" stroke-linecap="butt" stroke-miterlimit="4" >
	<path d="
	M 2352.74 575.75 
	L 2157.86 269.559 
	L 1966.02 575.75 
	L 1783.32 575.75 
	L 2066.51 121.012 
	L 1807.68 -288.25 
	L 1993.43 -288.25 
	L 2157.86 -24.508 
	L 2322.29 -288.25 
	L 2508.03 -288.25 
	L 2252.25 121.012 
	L 2535.44 575.75 
	Z 
	"/>
</g>
</g >
</g>
</svg>
