<?xml version="1.0" encoding="UTF-8" standalone="no"?>
<!-- Created with Inkscape (http://www.inkscape.org/) -->

<svg
   version="1.1"
   id="svg1"
   width="5760"
   height="1728"
   viewBox="0 0 5760 1728"
   sodipodi:docname="tmp52yhgo0l.pdf"
   xmlns:inkscape="http://www.inkscape.org/namespaces/inkscape"
   xmlns:sodipodi="http://sodipodi.sourceforge.net/DTD/sodipodi-0.dtd"
   xmlns="http://www.w3.org/2000/svg"
   xmlns:svg="http://www.w3.org/2000/svg">
  <defs
     id="defs1" />
  <sodipodi:namedview
     id="namedview1"
     pagecolor="#ffffff"
     bordercolor="#000000"
     borderopacity="0.25"
     inkscape:showpageshadow="2"
     inkscape:pageopacity="0.0"
     inkscape:pagecheckerboard="0"
     inkscape:deskcolor="#d1d1d1">
    <inkscape:page
       x="0"
       y="0"
       inkscape:label="1"
       id="page1"
       width="5760"
       height="1728"
       margin="0"
       bleed="0" />
  </sodipodi:namedview>
  <g
     id="g1"
     inkscape:groupmode="layer"
     inkscape:label="1">
    <g
       id="group-R5">
      <path
         id="path2"
         d="M 43200,1350 C 43200,604.398 42595.6,0 41850,0 H 1350 C 604.414,0 0,604.398 0,1350 v 10260 c 0,745.6 604.414,1350 1350,1350 h 40500 c 745.6,0 1350,-604.4 1350,-1350 V 1350"
         style="fill:#fccc2d;fill-opacity:1;fill-rule:nonzero;stroke:none"
         transform="matrix(0.13333333,0,0,-0.13333333,0,1728)" />
      <path
         id="path3"
         d="m 14526,2160 v 8640 h 6327.9 V 9253.94 H 16108 V 7647.2 h 2585.9 V 6070.77 H 16108 V 3706.12 h 4898 V 2160 h -6480"
         style="fill:#231f20;fill-opacity:1;fill-rule:nonzero;stroke:none"
         transform="matrix(0.13333333,0,0,-0.13333333,0,1728)" />
      <path
         id="path4"
         d="M 24748,9253.94 V 7495.62 h 2707.6 V 5919.17 H 24748 V 2160 h -1582 v 8640 h 6480 V 9253.94 h -4898"
         style="fill:#231f20;fill-opacity:1;fill-rule:nonzero;stroke:none"
         transform="matrix(0.13333333,0,0,-0.13333333,0,1728)" />
      <path
         id="path5"
         d="m 6210.02,2160 v 8640 H 7761.54 V 3493.94 H 12690 V 2160 H 6210.02"
         style="fill:#231f20;fill-opacity:1;fill-rule:nonzero;stroke:none"
         transform="matrix(0.13333333,0,0,-0.13333333,0,1728)" />
      <path
         id="path6"
         d="M 34507,9284.25 V 2160 H 32992.9 V 9284.25 H 30510 V 10800 h 6480 V 9284.25 h -2483"
         style="fill:#231f20;fill-opacity:1;fill-rule:nonzero;stroke:none"
         transform="matrix(0.13333333,0,0,-0.13333333,0,1728)" />
    </g>
  </g>
</svg>
