<?xml version="1.0" encoding="UTF-8" standalone="no"?>
<!-- Created with Inkscape (http://www.inkscape.org/) -->

<svg
   version="1.1"
   id="svg1"
   width="4608.6665"
   height="3456.6667"
   viewBox="0 0 4608.6665 3456.6667"
   sodipodi:docname="tmpsfasqdux.pdf"
   xmlns:inkscape="http://www.inkscape.org/namespaces/inkscape"
   xmlns:sodipodi="http://sodipodi.sourceforge.net/DTD/sodipodi-0.dtd"
   xmlns="http://www.w3.org/2000/svg"
   xmlns:svg="http://www.w3.org/2000/svg">
  <defs
     id="defs1" />
  <sodipodi:namedview
     id="namedview1"
     pagecolor="#ffffff"
     bordercolor="#000000"
     borderopacity="0.25"
     inkscape:showpageshadow="2"
     inkscape:pageopacity="0.0"
     inkscape:pagecheckerboard="0"
     inkscape:deskcolor="#d1d1d1">
    <inkscape:page
       x="0"
       y="0"
       inkscape:label="1"
       id="page1"
       width="4608.6665"
       height="3456.6667"
       margin="0"
       bleed="0" />
  </sodipodi:namedview>
  <g
     id="g1"
     inkscape:groupmode="layer"
     inkscape:label="1">
    <g
       id="group-R5">
      <path
         id="path2"
         d="m 34562.5,1622.5 c 0,-894.699 -725.3,-1620 -1620,-1620 H 1622.5 C 727.805,2.5 2.5,727.801 2.5,1622.5 v 22680 c 0,894.7 725.305,1620 1620.01,1620 H 32942.5 c 894.7,0 1620,-725.3 1620,-1620 v -22680"
         style="fill:#f68512;fill-opacity:1;fill-rule:nonzero;stroke:none"
         transform="matrix(0.13333333,0,0,-0.13333333,0,3456.6667)" />
      <path
         id="path3"
         d="m 34562.5,1622.5 c 0,-894.699 -725.3,-1620 -1620,-1620 H 1622.5 C 727.805,2.5 2.5,727.801 2.5,1622.5 v 22680 c 0,894.7 725.305,1620 1620.01,1620 H 32942.5 c 894.7,0 1620,-725.3 1620,-1620 z"
         style="fill:none;stroke:#231f20;stroke-width:5;stroke-linecap:butt;stroke-linejoin:miter;stroke-miterlimit:4;stroke-dasharray:none;stroke-opacity:1"
         transform="matrix(0.13333333,0,0,-0.13333333,0,3456.6667)" />
      <path
         id="path4"
         d="m 1622.5,452.5 c -645.137,0 -1170,524.902 -1170,1170 v 22680 c 0,645.1 524.863,1170 1170,1170 h 31320 c 645.1,0 1170,-524.9 1170,-1170 v -22680 c 0,-645.098 -524.9,-1170 -1170,-1170 h -31320"
         style="fill:#231f20;fill-opacity:1;fill-rule:nonzero;stroke:none"
         transform="matrix(0.13333333,0,0,-0.13333333,0,3456.6667)" />
      <path
         id="path5"
         d="m 1622.5,1082.5 c -297.75,0 -540,242.3 -540,540 v 22680 c 0,297.8 242.25,540 540,540 h 31320 c 297.7,0 540,-242.3 540,-540 v -22680 c 0,-297.7 -242.3,-540 -540,-540 h -31320"
         style="fill:#f68512;fill-opacity:1;fill-rule:nonzero;stroke:none"
         transform="matrix(0.13333333,0,0,-0.13333333,0,3456.6667)" />
      <path
         id="path6"
         d="m 15910.5,19609.2 c -182.4,303.2 -405.2,424.4 -749.6,444.7 -445.8,20.2 -729.4,-202.1 -932,-707.4 -141.8,-343.6 -222.8,-869.1 -222.8,-1354.1 0,-606.3 121.5,-1232.8 344.3,-1596.6 182.4,-303.2 425.5,-444.7 790.2,-444.7 425.5,0 688.8,222.4 891.5,727.6 121.5,303.2 222.8,869.1 222.8,1313.7 0,646.7 -121.6,1232.8 -344.4,1616.8 z m 628,-3941 c -324.2,-444.7 -790.1,-646.8 -1397.9,-646.8 -810.4,0 -1316.9,323.4 -1661.3,1030.8 -243.1,485.1 -405.2,1253 -405.2,1940.2 0,949.9 243.1,1798.7 628.1,2344.4 344.4,444.7 810.3,646.7 1478.9,646.7 729.4,0 1235.9,-323.3 1600.6,-1030.7 243,-505.2 384.9,-1232.8 384.9,-1960.4 0,-909.5 -222.9,-1818.9 -628.1,-2324.2"
         style="fill:#231f20;fill-opacity:1;fill-rule:nonzero;stroke:none"
         transform="matrix(0.13333333,0,0,-0.13333333,0,3456.6667)" />
      <path
         id="path7"
         d="m 26314.6,15122.5 -1459.9,2728.4 -608.2,-747.7 v -1980.7 h -912.4 v 5760 h 912.4 v -2283.8 l 1824.8,2283.8 h 1176 L 25463,18639.1 27369,15122.5 h -1054.4"
         style="fill:#231f20;fill-opacity:1;fill-rule:nonzero;stroke:none"
         transform="matrix(0.13333333,0,0,-0.13333333,0,3456.6667)" />
      <path
         id="path8"
         d="m 20960.2,19871.9 c -141.4,80.9 -222.3,101.1 -525.5,101.1 h -1091.4 v -1414.7 h 1091.4 c 283,0 384.1,20.2 525.5,101 222.4,121.3 363.9,363.8 363.9,606.3 0,242.6 -141.5,485.1 -363.9,606.3 z m 404.3,-4749.4 -929.8,2506.1 h -1091.4 v -2506.1 h -909.5 v 5760 h 1899.8 c 444.7,0 747.9,-40.4 1030.9,-181.9 505.3,-242.5 869.1,-848.8 869.1,-1435 0,-606.3 -363.8,-1212.6 -889.3,-1455.1 l 1010.6,-2688 h -990.4"
         style="fill:#231f20;fill-opacity:1;fill-rule:nonzero;stroke:none"
         transform="matrix(0.13333333,0,0,-0.13333333,0,3456.6667)" />
      <path
         id="path9"
         d="m 11473.8,15122.5 h -810.9 L 9750.52,18821 8858.46,15122.5 h -810.94 l -851.48,5760 h 932.57 l 446.02,-3031.6 729.84,3031.6 h 892.03 l 750.2,-3031.6 446,3031.6 h 932.6 l -851.5,-5760"
         style="fill:#231f20;fill-opacity:1;fill-rule:nonzero;stroke:none"
         transform="matrix(0.13333333,0,0,-0.13333333,0,3456.6667)" />
      <path
         id="path10"
         d="M 21029.5,5042.5 18826.3,8943.1 V 5042.5 h -909.5 v 5760 h 909.5 l 2102.1,-3678.3 v 3678.3 h 909.5 v -5760 h -808.4"
         style="fill:#231f20;fill-opacity:1;fill-rule:nonzero;stroke:none"
         transform="matrix(0.13333333,0,0,-0.13333333,0,3456.6667)" />
      <path
         id="path11"
         d="m 15393.5,9529.2 c -182.3,303.2 -405.2,424.4 -749.6,444.7 -445.7,20.2 -729.4,-202.1 -931.9,-707.4 -141.9,-343.6 -222.9,-869.1 -222.9,-1354.1 0,-606.3 121.5,-1232.8 344.4,-1596.6 182.4,-303.2 425.4,-444.7 790.1,-444.7 425.5,0 688.9,222.4 891.5,727.6 121.5,303.2 222.8,869.1 222.8,1313.7 0,646.7 -121.5,1232.8 -344.4,1616.8 z m 628.1,-3941 c -324.2,-444.6 -790.2,-646.8 -1398,-646.8 -810.4,0 -1316.9,323.4 -1661.3,1030.8 -243.1,485.1 -405.2,1253 -405.2,1940.2 0,949.9 243.1,1798.7 628.1,2344.4 344.4,444.7 810.4,646.8 1478.9,646.8 729.4,0 1235.9,-323.4 1600.6,-1030.8 243.1,-505.3 384.9,-1232.8 384.9,-1960.4 0,-909.5 -222.8,-1818.9 -628,-2324.2"
         style="fill:#231f20;fill-opacity:1;fill-rule:nonzero;stroke:none"
         transform="matrix(0.13333333,0,0,-0.13333333,0,3456.6667)" />
      <path
         id="path12"
         d="m 7772.03,5042.5 v 768 L 10399.6,9893.1 H 7994.34 v 909.4 h 3698.76 v -545.7 L 9025.16,5972.2 H 11693.1 V 5042.5 H 7772.03"
         style="fill:#231f20;fill-opacity:1;fill-rule:nonzero;stroke:none"
         transform="matrix(0.13333333,0,0,-0.13333333,0,3456.6667)" />
      <path
         id="path13"
         d="m 23220.3,5042.5 v 5760 h 3391 V 9893 H 24128.6 V 8478.3 h 1675.3 V 7548.6 H 24128.6 V 5972.2 H 26793 v -929.7 h -3572.7"
         style="fill:#231f20;fill-opacity:1;fill-rule:nonzero;stroke:none"
         transform="matrix(0.13333333,0,0,-0.13333333,0,3456.6667)" />
    </g>
  </g>
</svg>
