<?xml version="1.0" encoding="UTF-8"?>
<svg id="For_Sheets" xmlns="http://www.w3.org/2000/svg" version="1.1" viewBox="0 0 3456 2592">
  <!-- Generator: Adobe Illustrator 29.1.0, SVG Export Plug-In . SVG Version: 2.1.0 Build 142)  -->
  <defs>
    <style>
      .st0 {
        fill: #231f20;
      }

      .st1 {
        fill: #f7921e;
      }
    </style>
  </defs>
  <g>
    <path class="st1" d="M162,2592.1c-89.4,0-162.1-72.7-162.1-162.1V162C-.1,72.6,72.6-.1,162-.1h3132c89.4,0,162.1,72.7,162.1,162.1v2268c0,89.4-72.7,162.1-162.1,162.1H162Z"/>
    <path class="st0" d="M3294,0c89.5,0,162,72.5,162,162v2268c0,89.5-72.5,162-162,162H162c-89.5,0-162-72.5-162-162V162C0,72.5,72.5,0,162,0h3132M3294-.2H162C118.7-.2,77.9,16.6,47.3,47.3,16.6,77.9-.2,118.7-.2,162v2268c0,43.3,16.9,84.1,47.5,114.7,30.6,30.6,71.4,47.5,114.7,47.5h3132c43.3,0,84.1-16.9,114.7-47.5,30.6-30.6,47.5-71.4,47.5-114.7V162c0-43.3-16.9-84.1-47.5-114.7-30.6-30.6-71.4-47.5-114.7-47.5h0Z"/>
  </g>
  <path class="st0" d="M162,2547c-64.5,0-117-52.5-117-117V162c0-64.5,52.5-117,117-117h3132c64.5,0,117,52.5,117,117v2268c0,64.5-52.5,117-117,117H162Z"/>
  <path class="st1" d="M162,2484c-29.8,0-54-24.2-54-54V162c0-29.8,24.2-54,54-54h3132c29.8,0,54,24.2,54,54v2268c0,29.8-24.2,54-54,54H162Z"/>
  <g>
    <path class="st0" d="M1066.1,1080l-91.3-369.9-89.2,369.9h-81.1l-85.1-576h93.2l44.6,303.2,72.9-303.2h89.3l74.9,303.2,44.6-303.2h93.2l-85.2,576h-81Z"/>
    <path class="st0" d="M1716.4,792c0,20.7,4.4,298.1-204.6,298.1s-204.6-277.4-204.6-298.1-4.4-298,204.6-298,204.6,277.3,204.6,298ZM1512.8,997.2c62.1,0,112.5-58.8,112.5-205.2s-50.4-205.2-112.5-205.2-112.5,58.8-112.5,205.2,50.4,205.2,112.5,205.2Z"/>
    <path class="st0" d="M1934,829.3v250.7h-90.9V504h208.4c132,0,171.6,105.6,171.6,161.8s-7.9,105.6-89.4,144.2l101.5,270h-99.1l-92.9-250.7h-109.2ZM2048.5,736.4c72.3,0,83.7-52.1,83.7-70.7s-18.8-70.8-79.3-70.8h-118.8v141.5h114.4Z"/>
    <path class="st0" d="M2485.3,807.2l-60.8,74.8v198h-91.2V504h91.2v228.4l182.5-228.4h117.6l-178.4,224.4,190.6,351.6h-105.4l-146-272.8Z"/>
  </g>
  <g>
    <path class="st0" d="M777,2011.2l262.7-408.2h-240.5v-90.9h369.8v54.6l-266.7,428.5h266.7v93h-392.1v-76.8Z"/>
    <path class="st0" d="M1664.7,1800c0,20.7,4.4,298.1-204.6,298.1s-204.6-277.4-204.6-298.1-4.4-298,204.6-298,204.6,277.3,204.6,298ZM1461.1,2005.2c62.1,0,112.5-58.8,112.5-205.2s-50.4-205.2-112.5-205.2-112.5,58.8-112.5,205.2,50.4,205.2,112.5,205.2Z"/>
    <path class="st0" d="M1882.4,1698v390h-90.9v-576h90.9l210.2,367.8v-367.8h91v576h-80.9l-220.4-390Z"/>
    <path class="st0" d="M2321.8,1512h339.1v90.9h-248.2v141.5h167.5v93h-167.5v157.7h266.4v93h-357.2v-576Z"/>
  </g>
</svg>