<?xml version="1.0" encoding="UTF-8"?>
<svg id="For_Sheets" xmlns="http://www.w3.org/2000/svg" version="1.1" viewBox="0 0 1728 1296">
  <!-- Generator: Adobe Illustrator 29.1.0, SVG Export Plug-In . SVG Version: 2.1.0 Build 142)  -->
  <defs>
    <style>
      .st0 {
        fill: #231f20;
      }

      .st1 {
        fill: #f7921e;
      }
    </style>
  </defs>
  <g>
    <rect class="st1" x="-.1" y="-.1" width="1728.2" height="1296.2" rx="108.1" ry="108.1"/>
    <path class="st0" d="M1620,0c59.6,0,108,48.4,108,108v1080c0,59.6-48.4,108-108,108H108c-59.6,0-108-48.4-108-108V108C0,48.4,48.4,0,108,0h1512M1620-.2H108C79.1-.2,51.9,11,31.5,31.5,11,51.9-.2,79.1-.2,108v1080c0,28.9,11.3,56.1,31.7,76.5,20.4,20.4,47.6,31.7,76.5,31.7h1512c28.9,0,56.1-11.3,76.5-31.7,20.4-20.4,31.7-47.6,31.7-76.5V108c0-28.9-11.3-56.1-31.7-76.5-20.4-20.4-47.6-31.7-76.5-31.7h0Z"/>
  </g>
  <rect class="st0" x="27" y="27" width="1674" height="1242" rx="81" ry="81"/>
  <rect class="st1" x="72" y="72" width="1584" height="1152" rx="36" ry="36"/>
  <g>
    <path class="st0" d="M533,540l-45.6-184.9-44.6,184.9h-40.6l-42.6-288h46.6l22.3,151.6,36.5-151.6h44.6l37.5,151.6,22.3-151.6h46.6l-42.6,288h-40.5Z"/>
    <path class="st0" d="M858.2,396c0,10.3,2.2,149-102.3,149s-102.3-138.7-102.3-149-2.2-149,102.3-149,102.3,138.7,102.3,149ZM756.4,498.6c31,0,56.2-29.4,56.2-102.6s-25.2-102.6-56.2-102.6-56.2,29.4-56.2,102.6,25.2,102.6,56.2,102.6Z"/>
    <path class="st0" d="M967,414.6v125.4h-45.4V252h104.2c66,0,85.8,52.8,85.8,80.9s-4,52.8-44.7,72.1l50.8,135h-49.5l-46.5-125.4h-54.6ZM1024.2,368.2c36.1,0,41.8-26.1,41.8-35.4s-9.4-35.4-39.6-35.4h-59.4v70.7h57.2Z"/>
    <path class="st0" d="M1242.6,403.6l-30.4,37.4v99h-45.6V252h45.6v114.2l91.3-114.2h58.8l-89.2,112.2,95.3,175.8h-52.7l-73-136.4Z"/>
  </g>
  <g>
    <path class="st0" d="M388.5,1005.6l131.4-204.1h-120.2v-45.5h184.9v27.3l-133.4,214.2h133.4v46.5h-196v-38.4Z"/>
    <path class="st0" d="M832.4,900c0,10.3,2.2,149-102.3,149s-102.3-138.7-102.3-149-2.2-149,102.3-149,102.3,138.7,102.3,149ZM730.5,1002.6c31,0,56.2-29.4,56.2-102.6s-25.2-102.6-56.2-102.6-56.2,29.4-56.2,102.6,25.2,102.6,56.2,102.6Z"/>
    <path class="st0" d="M941.2,849v195h-45.4v-288h45.4l105.1,183.9v-183.9h45.5v288h-40.4l-110.2-195Z"/>
    <path class="st0" d="M1160.9,756h169.6v45.5h-124.1v70.7h83.8v46.5h-83.8v78.8h133.2v46.5h-178.6v-288Z"/>
  </g>
</svg>