<?xml version="1.0" standalone="no"?>
<svg width="3456px" height="2592px" viewBox="0 -1800 3456 2592 " xmlns="http://www.w3.org/2000/svg" xmlns:xlink="http://www.w3.org/1999/xlink">
<title>generated by pstoedit</title>
<!-- generated by pstoedit version:4.02 -->
<g xml:space='preserve'>
<clipPath id="clippath1"> 	<path d="
	M 0 -1800.5 
	L 0 792 
	L 3456.5 792 
	L 3456.5 -1800.5 
	Z 
	" style="clip-rule:nonzero"/>
</clipPath>
<g style="clip-path:url(#clippath1)"> 
<g fill="#7fbdff" fill-rule="nonzero" stroke-width="0" stroke-linejoin="miter" stroke-linecap="butt" stroke-miterlimit="10" >
	<path d="
	M 3456.25 629.75 
	C 3456.25 719.219 3383.72 791.75 3294.25 791.75 
	L 162.25 791.75 
	C 72.7813 791.75 0.25 719.219 0.25 629.75 
	L 0.25 -1638.25 
	C 0.25 -1727.72 72.7813 -1800.25 162.25 -1800.25 
	L 3294.25 -1800.25 
	C 3383.72 -1800.25 3456.25 -1727.72 3456.25 -1638.25 
	Z 
	"/>
</g>
<g stroke="#7f7f7f" fill="none" stroke-width="0.5" stroke-linejoin="miter" stroke-linecap="butt" stroke-miterlimit="4" >
	<path d="
	M 3456.25 629.75 
	C 3456.25 719.219 3383.72 791.75 3294.25 791.75 
	L 162.25 791.75 
	C 72.7813 791.75 0.25 719.219 0.25 629.75 
	L 0.25 -1638.25 
	C 0.25 -1727.72 72.7813 -1800.25 162.25 -1800.25 
	L 3294.25 -1800.25 
	C 3383.72 -1800.25 3456.25 -1727.72 3456.25 -1638.25 
	Z 
	"/>
</g>
<g fill="#7f7f7f" fill-rule="nonzero" stroke-width="0" stroke-linejoin="miter" stroke-linecap="butt" stroke-miterlimit="4" >
	<path d="
	M 162.25 746.75 
	C 97.7344 746.75 45.25 694.262 45.25 629.75 
	L 45.25 -1638.25 
	C 45.25 -1702.76 97.7344 -1755.25 162.25 -1755.25 
	L 3294.25 -1755.25 
	C 3358.76 -1755.25 3411.25 -1702.76 3411.25 -1638.25 
	L 3411.25 629.75 
	C 3411.25 694.262 3358.76 746.75 3294.25 746.75 
	Z 
	"/>
</g>
<g fill="#7fbdff" fill-rule="nonzero" stroke-width="0" stroke-linejoin="miter" stroke-linecap="butt" stroke-miterlimit="4" >
	<path d="
	M 162.25 683.75 
	C 132.477 683.75 108.25 659.52 108.25 629.75 
	L 108.25 -1638.25 
	C 108.25 -1668.03 132.477 -1692.25 162.25 -1692.25 
	L 3294.25 -1692.25 
	C 3324.02 -1692.25 3348.25 -1668.02 3348.25 -1638.25 
	L 3348.25 629.75 
	C 3348.25 659.52 3324.02 683.75 3294.25 683.75 
	Z 
	"/>
</g>
<g fill="#7f7f7f" fill-rule="nonzero" stroke-width="0" stroke-linejoin="miter" stroke-linecap="butt" stroke-miterlimit="4" >
	<path d="
	M 1591.05 -1168.92 
	C 1572.81 -1199.24 1550.53 -1211.36 1516.09 -1213.39 
	C 1471.51 -1215.41 1443.15 -1193.18 1422.89 -1142.65 
	C 1408.71 -1108.29 1400.61 -1055.74 1400.61 -1007.24 
	C 1400.61 -946.61 1412.76 -883.96 1435.04 -847.58 
	C 1453.28 -817.26 1477.59 -803.11 1514.06 -803.11 
	C 1556.61 -803.11 1582.94 -825.35 1603.21 -875.87 
	C 1615.36 -906.19 1625.49 -962.78 1625.49 -1007.24 
	C 1625.49 -1071.91 1613.33 -1130.52 1591.05 -1168.92 
	Z 
	M 1653.85 -774.82 
	C 1621.43 -730.35 1574.84 -710.14 1514.06 -710.14 
	C 1433.02 -710.14 1382.37 -742.48 1347.93 -813.22 
	C 1323.62 -861.73 1307.41 -938.52 1307.41 -1007.24 
	C 1307.41 -1102.23 1331.72 -1187.11 1370.22 -1241.68 
	C 1404.66 -1286.14 1451.25 -1306.36 1518.11 -1306.36 
	C 1591.05 -1306.36 1641.7 -1274.02 1678.17 -1203.28 
	C 1702.47 -1152.75 1716.66 -1080 1716.66 -1007.24 
	C 1716.66 -916.29 1694.37 -825.35 1653.85 -774.82 
	Z 
	"/>
</g>
<g fill="#7f7f7f" fill-rule="nonzero" stroke-width="0" stroke-linejoin="miter" stroke-linecap="butt" stroke-miterlimit="4" >
	<path d="
	M 2631.46 -720.25 
	L 2485.47 -993.09 
	L 2424.65 -918.32 
	L 2424.65 -720.25 
	L 2333.41 -720.25 
	L 2333.41 -1296.25 
	L 2424.65 -1296.25 
	L 2424.65 -1067.87 
	L 2607.13 -1296.25 
	L 2724.73 -1296.25 
	L 2546.3 -1071.91 
	L 2736.9 -720.25 
	Z 
	"/>
</g>
<g fill="#7f7f7f" fill-rule="nonzero" stroke-width="0" stroke-linejoin="miter" stroke-linecap="butt" stroke-miterlimit="4" >
	<path d="
	M 2096.02 -1195.2 
	C 2081.88 -1203.28 2073.79 -1205.3 2043.47 -1205.3 
	L 1934.33 -1205.3 
	L 1934.33 -1063.83 
	L 2043.47 -1063.83 
	C 2071.77 -1063.83 2081.88 -1065.85 2096.02 -1073.93 
	C 2118.26 -1086.06 2132.41 -1110.31 2132.41 -1134.56 
	C 2132.41 -1158.82 2118.26 -1183.07 2096.02 -1195.2 
	Z 
	M 2136.45 -720.25 
	L 2043.47 -970.86 
	L 1934.33 -970.86 
	L 1934.33 -720.25 
	L 1843.38 -720.25 
	L 1843.38 -1296.25 
	L 2033.36 -1296.25 
	C 2077.83 -1296.25 2108.15 -1292.21 2136.45 -1278.06 
	C 2186.98 -1253.8 2223.36 -1193.18 2223.36 -1134.56 
	C 2223.36 -1073.93 2186.98 -1013.3 2134.43 -989.05 
	L 2235.49 -720.25 
	Z 
	"/>
</g>
<g fill="#7f7f7f" fill-rule="nonzero" stroke-width="0" stroke-linejoin="miter" stroke-linecap="butt" stroke-miterlimit="4" >
	<path d="
	M 1147.38 -720.25 
	L 1066.29 -720.25 
	L 975.051 -1090.11 
	L 885.848 -720.25 
	L 804.754 -720.25 
	L 719.605 -1296.25 
	L 812.859 -1296.25 
	L 857.465 -993.09 
	L 930.445 -1296.25 
	L 1019.65 -1296.25 
	L 1094.67 -993.09 
	L 1139.27 -1296.25 
	L 1232.53 -1296.25 
	Z 
	"/>
</g>
<g fill="#7f7f7f" fill-rule="nonzero" stroke-width="0" stroke-linejoin="miter" stroke-linecap="butt" stroke-miterlimit="4" >
	<path d="
	M 2102.95 287.75 
	L 1882.63 -102.309 
	L 1882.63 287.75 
	L 1791.68 287.75 
	L 1791.68 -288.25 
	L 1882.63 -288.25 
	L 2092.84 79.578 
	L 2092.84 -288.25 
	L 2183.79 -288.25 
	L 2183.79 287.75 
	Z 
	"/>
</g>
<g fill="#7f7f7f" fill-rule="nonzero" stroke-width="0" stroke-linejoin="miter" stroke-linecap="butt" stroke-miterlimit="4" >
	<path d="
	M 1539.35 -160.922 
	C 1521.12 -191.238 1498.83 -203.359 1464.39 -205.391 
	C 1419.82 -207.41 1391.45 -185.18 1371.2 -134.648 
	C 1357.01 -100.289 1348.91 -47.738 1348.91 0.762024 
	C 1348.91 61.391 1361.06 124.039 1383.35 160.422 
	C 1401.59 190.738 1425.89 204.891 1462.36 204.891 
	C 1504.91 204.891 1531.25 182.648 1551.51 132.129 
	C 1563.66 101.809 1573.79 45.219 1573.79 0.762024 
	C 1573.79 -63.91 1561.64 -122.52 1539.35 -160.922 
	Z 
	M 1602.16 233.18 
	C 1569.74 277.641 1523.14 297.859 1462.36 297.859 
	C 1381.32 297.859 1330.67 265.52 1296.23 194.781 
	C 1271.92 146.27 1255.71 69.48 1255.71 0.762024 
	C 1255.71 -94.23 1280.02 -179.109 1318.52 -233.68 
	C 1352.96 -278.15 1399.56 -298.36 1466.41 -298.36 
	C 1539.35 -298.36 1590 -266.02 1626.47 -195.281 
	C 1650.78 -144.75 1664.96 -72 1664.96 0.762024 
	C 1664.96 91.711 1642.68 182.648 1602.16 233.18 
	Z 
	"/>
</g>
<g fill="#7f7f7f" fill-rule="nonzero" stroke-width="0" stroke-linejoin="miter" stroke-linecap="butt" stroke-miterlimit="4" >
	<path d="
	M 777.203 287.75 
	L 777.203 210.949 
	L 1039.96 -197.309 
	L 799.434 -197.309 
	L 799.434 -288.25 
	L 1169.31 -288.25 
	L 1169.31 -233.68 
	L 902.516 194.781 
	L 1169.31 194.781 
	L 1169.31 287.75 
	Z 
	"/>
</g>
<g fill="#7f7f7f" fill-rule="nonzero" stroke-width="0" stroke-linejoin="miter" stroke-linecap="butt" stroke-miterlimit="4" >
	<path d="
	M 2322.03 287.75 
	L 2322.03 -288.25 
	L 2661.13 -288.25 
	L 2661.13 -197.301 
	L 2412.86 -197.301 
	L 2412.86 -55.828 
	L 2580.39 -55.828 
	L 2580.39 37.141 
	L 2412.86 37.141 
	L 2412.86 194.781 
	L 2679.3 194.781 
	L 2679.3 287.75 
	Z 
	"/>
</g>
</g >
</g>
</svg>
