<?xml version="1.0" standalone="no"?>
<svg width="1728px" height="1728px" viewBox="0 -936 1728 1728 " xmlns="http://www.w3.org/2000/svg" xmlns:xlink="http://www.w3.org/1999/xlink">
<title>generated by pstoedit</title>
<!-- generated by pstoedit version:4.02 -->
<g xml:space='preserve'>
<clipPath id="clippath1"> 	<path d="
	M 0 -936.5 
	L 0 792 
	L 1728.5 792 
	L 1728.5 -936.5 
	Z 
	" style="clip-rule:nonzero"/>
</clipPath>
<g style="clip-path:url(#clippath1)"> 
<g fill="#ffffff" fill-rule="nonzero" stroke-width="0" stroke-linejoin="miter" stroke-linecap="butt" stroke-miterlimit="10" >
	<path d="
	M 1728.25 683.75 
	C 1728.25 743.398 1679.9 791.75 1620.25 791.75 
	L 108.25 791.75 
	C 48.6016 791.75 0.25 743.398 0.25 683.75 
	L 0.25 -828.25 
	C 0.25 -887.9 48.6016 -936.25 108.25 -936.25 
	L 1620.25 -936.25 
	C 1679.9 -936.25 1728.25 -887.9 1728.25 -828.25 
	Z 
	"/>
</g>
<g stroke="#7f7f7f" fill="none" stroke-width="0.5" stroke-linejoin="miter" stroke-linecap="butt" stroke-miterlimit="4" >
	<path d="
	M 1728.25 683.75 
	C 1728.25 743.398 1679.9 791.75 1620.25 791.75 
	L 108.25 791.75 
	C 48.6016 791.75 0.25 743.398 0.25 683.75 
	L 0.25 -828.25 
	C 0.25 -887.9 48.6016 -936.25 108.25 -936.25 
	L 1620.25 -936.25 
	C 1679.9 -936.25 1728.25 -887.9 1728.25 -828.25 
	Z 
	"/>
</g>
<g fill="#96c87f" fill-rule="nonzero" stroke-width="0" stroke-linejoin="miter" stroke-linecap="butt" stroke-miterlimit="4" >
	<path d="
	M 108.25 -900.25 
	C 68.5469 -900.25 36.25 -867.95 36.25 -828.25 
	L 36.25 683.75 
	C 36.25 723.449 68.5469 755.75 108.25 755.75 
	L 1620.25 755.75 
	C 1659.95 755.75 1692.25 723.449 1692.25 683.75 
	L 1692.25 -828.25 
	C 1692.25 -867.95 1659.95 -900.25 1620.25 -900.25 
	L 108.25 -900.25 
	Z 
	"/>
</g>
<g fill="#ffffff" fill-rule="nonzero" stroke-width="0" stroke-linejoin="miter" stroke-linecap="butt" stroke-miterlimit="4" >
	<path d="
	M 108.25 260.461 
	L 153.891 293.281 
	C 166.703 302.73 187.75 302.879 200.699 293.648 
	L 246.34 260.84 
	C 259.285 251.609 280.332 251.762 293.148 261.211 
	L 338.789 294.031 
	C 351.602 303.48 372.648 303.641 385.598 294.41 
	L 431.238 261.59 
	C 444.184 252.359 465.23 252.52 478.047 261.969 
	L 523.684 294.781 
	C 536.5 304.238 557.547 304.391 570.492 295.16 
	L 616.137 262.352 
	C 629.082 253.121 650.129 253.27 662.941 262.719 
	L 708.582 295.539 
	C 721.398 304.988 742.445 305.148 755.395 295.922 
	L 801.031 263.102 
	C 813.98 253.871 835.027 254.031 847.84 263.48 
	L 893.48 296.289 
	C 906.297 305.738 927.34 305.898 940.289 296.672 
	L 985.93 263.852 
	C 998.879 254.621 1019.92 254.781 1032.74 264.23 
	L 1078.38 297.051 
	C 1091.19 306.5 1112.24 306.648 1125.19 297.422 
	L 1170.83 264.609 
	C 1183.77 255.379 1204.82 255.531 1217.64 264.988 
	L 1263.28 297.801 
	C 1276.09 307.25 1297.14 307.41 1310.08 298.18 
	L 1355.73 265.359 
	C 1368.67 256.129 1389.72 256.289 1402.53 265.738 
	L 1448.18 298.551 
	C 1460.99 308.012 1482.04 308.16 1494.98 298.93 
	L 1540.63 266.121 
	L 1540.63 197.512 
	L 1494.98 230.328 
	C 1482.04 239.559 1460.99 239.398 1448.18 229.949 
	L 1402.53 197.129 
	C 1389.72 187.68 1368.67 187.531 1355.73 196.762 
	L 1310.08 229.57 
	C 1297.14 238.801 1276.09 238.648 1263.28 229.191 
	L 1217.64 196.379 
	C 1204.82 186.93 1183.77 186.77 1170.83 196 
	L 1125.19 228.82 
	C 1112.24 238.051 1091.19 237.891 1078.38 228.441 
	L 1032.74 195.629 
	C 1019.92 186.172 998.879 186.02 985.93 195.25 
	L 940.289 228.059 
	C 927.34 237.289 906.297 237.141 893.48 227.691 
	L 847.84 194.871 
	C 835.027 185.422 813.98 185.262 801.031 194.488 
	L 755.395 227.309 
	C 742.445 236.539 721.398 236.379 708.582 226.93 
	L 662.941 194.121 
	C 650.129 184.66 629.082 184.512 616.137 193.738 
	L 570.492 226.551 
	C 557.547 235.781 536.5 235.629 523.684 226.18 
	L 478.047 193.359 
	C 465.23 183.91 444.184 183.75 431.238 192.988 
	L 385.598 225.801 
	C 372.648 235.031 351.602 234.879 338.789 225.422 
	L 293.148 192.609 
	C 280.332 183.16 259.285 183 246.34 192.23 
	L 200.699 225.051 
	C 187.75 234.281 166.703 234.121 153.891 224.672 
	L 108.25 191.852 
	Z 
	"/>
</g>
<g fill="#ffffff" fill-rule="nonzero" stroke-width="0" stroke-linejoin="miter" stroke-linecap="butt" stroke-miterlimit="4" >
	<path d="
	M 200.699 189.031 
	L 246.34 156.219 
	C 259.285 146.988 280.332 147.141 293.148 156.602 
	L 338.789 189.41 
	C 351.602 198.859 372.648 199.02 385.598 189.789 
	L 431.238 156.969 
	C 444.184 147.738 465.23 147.898 478.047 157.352 
	L 523.684 190.172 
	C 536.5 199.621 557.547 199.77 570.492 190.539 
	L 616.137 157.73 
	C 629.082 148.5 650.129 148.648 662.941 158.102 
	L 708.582 190.922 
	C 721.398 200.371 742.445 200.531 755.395 191.301 
	L 801.031 158.48 
	C 813.98 149.25 835.027 149.41 847.84 158.859 
	L 893.48 191.672 
	C 906.297 201.129 927.34 201.281 940.289 192.051 
	L 985.93 159.238 
	C 998.879 150.012 1019.92 150.16 1032.74 159.609 
	L 1078.38 192.43 
	C 1091.19 201.879 1112.24 202.039 1125.19 192.801 
	L 1170.83 159.988 
	C 1183.77 150.762 1204.82 150.922 1217.64 160.371 
	L 1263.28 193.18 
	C 1276.09 202.629 1297.14 202.789 1310.08 193.559 
	L 1355.73 160.738 
	C 1368.67 151.512 1389.72 151.672 1402.53 161.121 
	L 1448.18 193.941 
	C 1450.16 195.398 1452.37 196.621 1454.69 197.641 
	L 1620.25 -99.91 
	L 1405.15 -100.328 
	L 1344.95 -299.13 
	L 1242.03 -299.13 
	L 1186.24 -450.25 
	L 1101.44 -450.25 
	L 1116.13 -286.64 
	L 1053.15 -286.64 
	L 999.281 -50.965 
	L 130.262 -50.965 
	L 159.035 191.762 
	C 171.828 198 189.363 197.109 200.699 189.031 
	Z 
	"/>
</g>
<g fill="#ffffff" fill-rule="nonzero" stroke-width="0" stroke-linejoin="miter" stroke-linecap="butt" stroke-miterlimit="4" >
	<path d="
	M 928.82 -122.25 
	C 928.82 -122.25 925.469 -210.29 919.996 -221.23 
	C 917.086 -228.23 909.602 -231.53 900.801 -233.86 
	C 900.801 -233.86 775.613 -241.27 751.93 -241.58 
	L 672.664 -329.86 
	C 655.602 -337.76 430.484 -347.88 410.656 -314.48 
	L 346.273 -240.64 
	L 233.598 -232.68 
	C 218.57 -230.97 208.063 -121.961 208.063 -121.961 
	L 334.309 -122.012 
	C 334.578 -91.582 359.316 -66.996 389.809 -66.996 
	C 420.316 -66.996 445.066 -91.605 445.313 -122.059 
	L 719.73 -122.164 
	C 719.918 -91.664 744.691 -66.996 775.234 -66.996 
	C 805.793 -66.996 830.578 -91.691 830.742 -122.211 
	Z 
	"/>
</g>
</g >
</g>
</svg>
