<?xml version="1.0" encoding="UTF-8" standalone="no"?>
<!-- Created with Inkscape (http://www.inkscape.org/) -->

<svg
   version="1.1"
   id="svg1"
   width="1440.6667"
   height="864.66669"
   viewBox="0 0 1440.6667 864.66669"
   sodipodi:docname="tmpvcy1mx3y.pdf"
   xmlns:inkscape="http://www.inkscape.org/namespaces/inkscape"
   xmlns:sodipodi="http://sodipodi.sourceforge.net/DTD/sodipodi-0.dtd"
   xmlns="http://www.w3.org/2000/svg"
   xmlns:svg="http://www.w3.org/2000/svg">
  <defs
     id="defs1" />
  <sodipodi:namedview
     id="namedview1"
     pagecolor="#ffffff"
     bordercolor="#000000"
     borderopacity="0.25"
     inkscape:showpageshadow="2"
     inkscape:pageopacity="0.0"
     inkscape:pagecheckerboard="0"
     inkscape:deskcolor="#d1d1d1">
    <inkscape:page
       x="0"
       y="0"
       inkscape:label="1"
       id="page1"
       width="1440.6667"
       height="864.66669"
       margin="0"
       bleed="0" />
  </sodipodi:namedview>
  <g
     id="g1"
     inkscape:groupmode="layer"
     inkscape:label="1">
    <g
       id="group-R5">
      <path
         id="path2"
         d="m 10802.5,722.5 c 0,-397.648 -322.4,-720 -720,-720 h -9360 c -397.645,0 -720,322.352 -720,720 v 5040 c 0,397.64 322.355,720 720,720 h 9360 c 397.6,0 720,-322.36 720,-720 v -5040"
         style="fill:#ffffff;fill-opacity:1;fill-rule:nonzero;stroke:none"
         transform="matrix(0.13333333,0,0,-0.13333333,0,864.66667)" />
      <path
         id="path3"
         d="m 10802.5,722.5 c 0,-397.648 -322.4,-720 -720,-720 h -9360 c -397.645,0 -720,322.352 -720,720 v 5040 c 0,397.64 322.355,720 720,720 h 9360 c 397.6,0 720,-322.36 720,-720 z"
         style="fill:none;stroke:#231f20;stroke-width:5;stroke-linecap:butt;stroke-linejoin:miter;stroke-miterlimit:4;stroke-dasharray:none;stroke-opacity:1"
         transform="matrix(0.13333333,0,0,-0.13333333,0,864.66667)" />
      <path
         id="path4"
         d="m 722.5,272.5 c -248.129,0 -450,201.871 -450,450 v 5040 c 0,248.13 201.871,450 450,450 h 9360 c 248.1,0 450,-201.87 450,-450 v -5040 c 0,-248.129 -201.9,-450 -450,-450 h -9360"
         style="fill:#15569c;fill-opacity:1;fill-rule:nonzero;stroke:none"
         transform="matrix(0.13333333,0,0,-0.13333333,0,864.66667)" />
      <path
         id="path5"
         d="m 6289.63,3838.4 h -103.38 v -224.84 h 103.38 c 57.99,0 95.8,40.42 95.8,103.58 0,68.21 -42.87,121.26 -95.8,121.26 z m 5.04,293.06 h -108.42 v -192 h 108.42 c 47.89,0 78.14,40.42 78.14,106.1 0,60.63 -22.67,85.9 -78.14,85.9 z m 0,-618.96 h -211.78 v 720 h 226.9 c 95.82,0 163.88,-75.78 163.88,-186.94 0,-65.68 -17.65,-96 -75.64,-156.63 55.47,-45.47 88.24,-106.11 88.24,-179.37 0,-108.63 -85.72,-197.06 -191.6,-197.06"
         style="fill:#ffffff;fill-opacity:1;fill-rule:nonzero;stroke:none"
         transform="matrix(0.13333333,0,0,-0.13333333,0,864.66667)" />
      <path
         id="path6"
         d="m 7076.86,3512.5 v 720 h 339.49 v -101.04 h -235.63 v -181.9 h 149.49 v -98.53 h -149.49 v -237.47 h 263.5 V 3512.5 h -367.36"
         style="fill:#ffffff;fill-opacity:1;fill-rule:nonzero;stroke:none"
         transform="matrix(0.13333333,0,0,-0.13333333,0,864.66667)" />
      <path
         id="path7"
         d="m 6608.67,3512.5 v 720 h 103.89 v -623.99 h 263.49 v -96.01 h -367.38"
         style="fill:#ffffff;fill-opacity:1;fill-rule:nonzero;stroke:none"
         transform="matrix(0.13333333,0,0,-0.13333333,0,864.66667)" />
      <path
         id="path8"
         d="m 7938.48,3512.5 v 404.22 L 7804.41,3512.5 7670.33,3916.72 V 3512.5 h -103.71 v 720 h 103.71 l 134.08,-404.2 134.07,404.2 h 103.71 v -720 h -103.71"
         style="fill:#ffffff;fill-opacity:1;fill-rule:nonzero;stroke:none"
         transform="matrix(0.13333333,0,0,-0.13333333,0,864.66667)" />
      <path
         id="path9"
         d="m 3065.64,4053.13 c -17.81,63.16 -45.81,90.96 -89.07,90.96 -45.8,0 -73.79,-27.8 -91.6,-88.43 -17.82,-55.57 -22.91,-103.58 -22.91,-184.42 0,-78.32 7.64,-123.79 22.91,-181.89 17.81,-60.63 45.8,-88.42 91.6,-88.42 43.26,0 71.26,27.79 89.07,88.42 17.82,58.1 22.9,101.05 22.9,184.42 0,80.84 -7.63,126.32 -22.9,179.36 z m 81.44,-429.47 c -35.62,-85.89 -89.07,-123.79 -170.51,-123.79 -86.52,0 -137.41,37.9 -173.03,123.79 -30.54,70.74 -40.73,138.95 -40.73,250.11 0,108.63 10.19,181.89 40.73,250.11 38.17,85.89 89.06,121.26 173.03,121.26 83.99,0 134.89,-35.37 170.51,-123.79 30.54,-70.74 40.71,-138.95 40.71,-247.58 0,-111.16 -10.17,-181.9 -40.71,-250.11"
         style="fill:#ffffff;fill-opacity:1;fill-rule:nonzero;stroke:none"
         transform="matrix(0.13333333,0,0,-0.13333333,0,864.66667)" />
      <path
         id="path10"
         d="m 5816.76,4053.13 c -17.81,63.16 -45.82,90.96 -89.08,90.96 -45.8,0 -73.79,-27.8 -91.61,-88.43 -17.81,-55.57 -22.91,-103.58 -22.91,-184.42 0,-78.32 7.64,-123.79 22.91,-181.89 17.82,-60.63 45.81,-88.42 91.61,-88.42 43.26,0 71.27,27.79 89.08,88.42 17.81,58.1 22.89,101.05 22.89,184.42 0,80.84 -7.64,126.32 -22.89,179.36 z m 81.42,-429.47 c -35.62,-85.89 -89.06,-123.79 -170.5,-123.79 -86.53,0 -137.41,37.9 -173.03,123.79 -30.55,70.74 -40.72,138.95 -40.72,250.11 0,108.63 10.17,181.89 40.72,250.11 38.16,85.89 89.06,121.26 173.03,121.26 83.98,0 134.88,-35.37 170.5,-123.79 30.55,-70.74 40.73,-138.95 40.73,-247.58 0,-111.16 -10.18,-181.9 -40.73,-250.11"
         style="fill:#ffffff;fill-opacity:1;fill-rule:nonzero;stroke:none"
         transform="matrix(0.13333333,0,0,-0.13333333,0,864.66667)" />
      <path
         id="path11"
         d="m 4664.42,4131.46 h -105.88 v -204.64 h 105.88 c 60.51,0 93.29,37.9 93.29,103.58 0,60.64 -37.82,101.06 -93.29,101.06 z m 5.04,-303.16 h -110.92 v -315.8 h -103.37 v 720 h 214.29 c 113.46,0 189.08,-80.83 189.08,-202.1 0,-131.37 -68.06,-202.1 -189.08,-202.1"
         style="fill:#ffffff;fill-opacity:1;fill-rule:nonzero;stroke:none"
         transform="matrix(0.13333333,0,0,-0.13333333,0,864.66667)" />
      <path
         id="path12"
         d="m 5211.81,4131.46 h -105.89 v -181.9 h 105.89 c 60.5,0 93.28,32.84 93.28,90.95 0,55.57 -37.81,90.95 -93.28,90.95 z m 88.24,-618.96 -95.81,338.54 h -98.32 V 3512.5 h -103.37 v 720.01 h 214.3 c 113.45,0 189.08,-75.79 189.08,-192 0,-85.9 -35.3,-149.05 -103.36,-174.32 l 103.36,-353.69 h -105.88"
         style="fill:#ffffff;fill-opacity:1;fill-rule:nonzero;stroke:none"
         transform="matrix(0.13333333,0,0,-0.13333333,0,864.66667)" />
      <path
         id="path13"
         d="m 3541.04,4131.46 h -105.88 v -181.9 h 105.88 c 60.5,0 93.28,32.84 93.28,90.95 0,55.57 -37.82,90.95 -93.28,90.95 z m 88.24,-618.96 -95.8,338.54 h -98.32 V 3512.5 h -103.37 v 720.01 h 214.29 c 113.45,0 189.09,-75.79 189.09,-192 0,-85.9 -35.3,-149.05 -103.37,-174.32 l 103.37,-353.69 h -105.89"
         style="fill:#ffffff;fill-opacity:1;fill-rule:nonzero;stroke:none"
         transform="matrix(0.13333333,0,0,-0.13333333,0,864.66667)" />
      <path
         id="path14"
         d="m 2100.81,2793.12 c -17.81,63.17 -45.81,90.96 -89.07,90.96 -45.8,0 -73.79,-27.79 -91.6,-88.43 -17.83,-55.57 -22.91,-103.57 -22.91,-184.42 0,-78.31 7.63,-123.79 22.91,-181.89 17.81,-60.63 45.8,-88.42 91.6,-88.42 43.26,0 71.26,27.79 89.07,88.42 17.81,58.1 22.9,101.05 22.9,184.42 0,80.84 -7.64,126.32 -22.9,179.36 z m 81.44,-429.47 c -35.63,-85.89 -89.08,-123.79 -170.51,-123.79 -86.53,0 -137.41,37.9 -173.04,123.79 -30.54,70.74 -40.72,138.96 -40.72,250.11 0,108.63 10.18,181.89 40.72,250.11 38.18,85.9 89.06,121.26 173.04,121.26 83.98,0 134.88,-35.36 170.51,-123.79 30.53,-70.73 40.71,-138.95 40.71,-247.58 0,-111.15 -10.18,-181.89 -40.71,-250.11"
         style="fill:#ffffff;fill-opacity:1;fill-rule:nonzero;stroke:none"
         transform="matrix(0.13333333,0,0,-0.13333333,0,864.66667)" />
      <path
         id="path15"
         d="M 1579.82,2876.49 V 2252.5 h -103.87 v 623.99 H 1344.2 v 96.01 h 367.37 v -96.01 h -131.75"
         style="fill:#ffffff;fill-opacity:1;fill-rule:nonzero;stroke:none"
         transform="matrix(0.13333333,0,0,-0.13333333,0,864.66667)" />
      <path
         id="path16"
         d="m 2989.08,2252.49 v 591.16 h -46.12 v 78.32 c 41,2.52 66.63,20.21 82,50.53 h 69.2 v -720.01 h -105.08"
         style="fill:#ffffff;fill-opacity:1;fill-rule:nonzero;stroke:none"
         transform="matrix(0.13333333,0,0,-0.13333333,0,864.66667)" />
      <path
         id="path17"
         d="m 5842.71,2239.86 c -63.43,0 -124.31,22.75 -177.59,63.17 l 68.49,73.26 c 35.53,-25.26 63.44,-35.37 98.95,-35.37 78.65,0 134.47,70.74 134.47,169.27 0,78.31 -38.07,126.31 -98.94,126.31 -32.99,0 -60.9,-12.63 -86.27,-35.37 l -98.95,12.63 17.77,358.74 h 339.95 v -101.05 h -243.54 l -7.62,-151.58 c 35.51,12.63 53.28,15.16 81.2,15.16 116.69,0 197.87,-93.48 197.87,-229.9 0,-151.58 -96.41,-265.27 -225.79,-265.27"
         style="fill:#ffffff;fill-opacity:1;fill-rule:nonzero;stroke:none"
         transform="matrix(0.13333333,0,0,-0.13333333,0,864.66667)" />
      <path
         id="path18"
         d="m 6332.5,2239.86 c -63.44,0 -124.32,22.75 -177.6,63.17 l 68.5,73.26 c 35.53,-25.26 63.44,-35.37 98.94,-35.37 78.66,0 134.48,70.74 134.48,169.27 0,78.31 -38.07,126.31 -98.95,126.31 -32.99,0 -60.9,-12.63 -86.27,-35.37 l -98.94,12.63 17.77,358.74 h 339.94 v -101.05 h -243.53 l -7.62,-151.58 c 35.51,12.63 53.28,15.16 81.19,15.16 116.7,0 197.87,-93.48 197.87,-229.9 0,-151.58 -96.4,-265.27 -225.78,-265.27"
         style="fill:#ffffff;fill-opacity:1;fill-rule:nonzero;stroke:none"
         transform="matrix(0.13333333,0,0,-0.13333333,0,864.66667)" />
      <path
         id="path19"
         d="m 6822.29,2239.86 c -63.44,0 -124.32,22.75 -177.6,63.17 l 68.49,73.26 c 35.53,-25.26 63.44,-35.37 98.95,-35.37 78.65,0 134.47,70.74 134.47,169.27 0,78.31 -38.06,126.31 -98.94,126.31 -32.99,0 -60.9,-12.63 -86.27,-35.37 l -98.95,12.63 17.77,358.74 h 339.95 V 2871.45 H 6776.62 L 6769,2719.87 c 35.51,12.63 53.29,15.16 81.2,15.16 116.69,0 197.87,-93.48 197.87,-229.9 0,-151.58 -96.41,-265.27 -225.78,-265.27"
         style="fill:#ffffff;fill-opacity:1;fill-rule:nonzero;stroke:none"
         transform="matrix(0.13333333,0,0,-0.13333333,0,864.66667)" />
      <path
         id="path20"
         d="m 4448.37,2793.12 c -17.81,63.17 -45.8,90.95 -89.06,90.95 -45.82,0 -73.81,-27.78 -91.62,-88.42 -17.82,-55.57 -22.9,-103.58 -22.9,-184.42 0,-78.31 7.62,-123.79 22.9,-181.89 17.81,-60.64 45.8,-88.42 91.62,-88.42 43.26,0 71.25,27.78 89.06,88.42 17.81,58.1 22.91,101.05 22.91,184.42 0,80.84 -7.64,126.32 -22.91,179.36 z m 81.42,-429.47 c -35.62,-85.9 -89.06,-123.79 -170.48,-123.79 -86.53,0 -137.43,37.89 -173.05,123.79 -30.55,70.73 -40.72,138.95 -40.72,250.11 0,108.63 10.17,181.89 40.72,250.11 38.16,85.89 89.06,121.26 173.05,121.26 83.96,0 134.86,-35.37 170.48,-123.79 30.55,-70.74 40.73,-138.95 40.73,-247.58 0,-111.16 -10.18,-181.89 -40.73,-250.11"
         style="fill:#ffffff;fill-opacity:1;fill-rule:nonzero;stroke:none"
         transform="matrix(0.13333333,0,0,-0.13333333,0,864.66667)" />
      <path
         id="path21"
         d="m 5002.96,2793.12 c -17.81,63.17 -45.82,90.95 -89.08,90.95 -45.8,0 -73.79,-27.78 -91.6,-88.42 -17.82,-55.57 -22.91,-103.58 -22.91,-184.42 0,-78.31 7.63,-123.79 22.91,-181.89 17.81,-60.64 45.8,-88.42 91.6,-88.42 43.26,0 71.27,27.78 89.08,88.42 17.81,58.1 22.89,101.05 22.89,184.42 0,80.84 -7.64,126.32 -22.89,179.36 z m 81.42,-429.47 c -35.62,-85.9 -89.06,-123.79 -170.5,-123.79 -86.53,0 -137.41,37.89 -173.05,123.79 -30.53,70.73 -40.7,138.95 -40.7,250.11 0,108.63 10.17,181.89 40.7,250.11 38.18,85.89 89.08,121.26 173.05,121.26 83.98,0 134.88,-35.37 170.5,-123.79 30.53,-70.74 40.73,-138.95 40.73,-247.58 0,-111.16 -10.2,-181.89 -40.73,-250.11"
         style="fill:#ffffff;fill-opacity:1;fill-rule:nonzero;stroke:none"
         transform="matrix(0.13333333,0,0,-0.13333333,0,864.66667)" />
      <path
         id="path22"
         d="m 3837.13,2884.07 c -53.28,0 -91.35,-37.89 -91.35,-90.95 0,-58.1 38.07,-95.99 91.35,-95.99 50.72,0 88.79,37.89 88.79,95.99 0,53.06 -38.07,90.95 -88.79,90.95 z m 0,-290.53 c -60.9,0 -101.49,-50.52 -101.49,-128.83 0,-73.26 40.59,-123.79 101.49,-123.79 60.88,0 101.46,50.53 101.46,123.79 0,78.31 -40.58,128.83 -101.46,128.83 z m 131.91,-305.68 c -32.99,-32.84 -76.11,-48 -131.91,-48 -71.06,0 -121.78,25.27 -157.31,75.79 -27.91,40.42 -45.66,93.47 -45.66,149.06 0,70.73 22.83,133.89 68.5,179.36 -38.05,40.42 -58.34,90.95 -58.34,149.05 0,111.17 78.63,192.01 192.81,192.01 111.62,0 190.26,-80.84 190.26,-192.01 0,-58.1 -20.29,-111.15 -58.35,-149.05 45.66,-42.95 68.49,-108.63 68.49,-179.36 0,-68.22 -25.37,-136.43 -68.49,-176.85"
         style="fill:#ffffff;fill-opacity:1;fill-rule:nonzero;stroke:none"
         transform="matrix(0.13333333,0,0,-0.13333333,0,864.66667)" />
      <path
         id="path23"
         d="m 3184.16,2548.09 v 95.99 h 360 v -95.99 h -360"
         style="fill:#ffffff;fill-opacity:1;fill-rule:nonzero;stroke:none"
         transform="matrix(0.13333333,0,0,-0.13333333,0,864.66667)" />
      <path
         id="path24"
         d="m 5215.11,2548.09 v 95.99 h 360.01 v -95.99 h -360.01"
         style="fill:#ffffff;fill-opacity:1;fill-rule:nonzero;stroke:none"
         transform="matrix(0.13333333,0,0,-0.13333333,0,864.66667)" />
      <path
         id="path25"
         d="m 7765.64,2239.86 c -63.41,0 -124.31,22.75 -177.57,63.17 l 68.49,73.26 c 35.51,-25.26 63.42,-35.37 98.95,-35.37 78.63,0 134.45,70.74 134.45,169.27 0,78.31 -38.05,126.31 -98.94,126.31 -32.97,0 -60.88,-12.63 -86.25,-35.37 l -98.95,12.63 17.75,358.74 h 339.97 v -101.05 h -243.56 l -7.6,-151.58 c 35.51,12.63 53.26,15.16 81.17,15.16 116.7,0 197.9,-93.48 197.9,-229.9 0,-151.58 -96.41,-265.27 -225.81,-265.27"
         style="fill:#ffffff;fill-opacity:1;fill-rule:nonzero;stroke:none"
         transform="matrix(0.13333333,0,0,-0.13333333,0,864.66667)" />
      <path
         id="path26"
         d="m 8255.43,2239.86 c -63.42,0 -124.32,22.75 -177.58,63.17 l 68.5,73.26 c 35.51,-25.26 63.42,-35.37 98.94,-35.37 78.64,0 134.46,70.74 134.46,169.27 0,78.31 -38.05,126.31 -98.95,126.31 -32.97,0 -60.88,-12.63 -86.25,-35.37 l -98.94,12.63 17.75,358.74 h 339.96 v -101.05 h -243.55 l -7.6,-151.58 c 35.51,12.63 53.26,15.16 81.17,15.16 116.7,0 197.89,-93.48 197.89,-229.9 0,-151.58 -96.41,-265.27 -225.8,-265.27"
         style="fill:#ffffff;fill-opacity:1;fill-rule:nonzero;stroke:none"
         transform="matrix(0.13333333,0,0,-0.13333333,0,864.66667)" />
      <path
         id="path27"
         d="m 8745.21,2239.86 c -63.41,0 -124.31,22.75 -177.57,63.17 l 68.49,73.26 c 35.51,-25.26 63.42,-35.37 98.95,-35.37 78.63,0 134.45,70.74 134.45,169.27 0,78.31 -38.05,126.31 -98.94,126.31 -32.97,0 -60.88,-12.63 -86.25,-35.37 l -98.95,12.63 17.75,358.74 h 339.97 v -101.05 h -243.56 l -7.6,-151.58 c 35.51,12.63 53.26,15.16 81.18,15.16 116.69,0 197.89,-93.48 197.89,-229.9 0,-151.58 -96.41,-265.27 -225.81,-265.27"
         style="fill:#ffffff;fill-opacity:1;fill-rule:nonzero;stroke:none"
         transform="matrix(0.13333333,0,0,-0.13333333,0,864.66667)" />
      <path
         id="path28"
         d="m 9235,2239.86 c -63.42,0 -124.32,22.75 -177.58,63.17 l 68.5,73.26 c 35.51,-25.26 63.42,-35.37 98.94,-35.37 78.64,0 134.46,70.74 134.46,169.27 0,78.31 -38.05,126.31 -98.95,126.31 -32.97,0 -60.88,-12.63 -86.25,-35.37 l -98.94,12.63 17.75,358.74 h 339.96 v -101.05 h -243.55 l -7.6,-151.58 c 35.51,12.63 53.26,15.16 81.17,15.16 116.7,0 197.89,-93.48 197.89,-229.9 0,-151.58 -96.41,-265.27 -225.8,-265.27"
         style="fill:#ffffff;fill-opacity:1;fill-rule:nonzero;stroke:none"
         transform="matrix(0.13333333,0,0,-0.13333333,0,864.66667)" />
      <path
         id="path29"
         d="m 7138.07,2548.09 v 95.99 h 360 v -95.99 h -360"
         style="fill:#ffffff;fill-opacity:1;fill-rule:nonzero;stroke:none"
         transform="matrix(0.13333333,0,0,-0.13333333,0,864.66667)" />
      <path
         id="path30"
         d="m 1128.6,1520.49 c -10.13,70.74 -38.04,103.58 -86.25,103.58 -83.717,0 -114.159,-65.68 -114.159,-252.62 0,-207.17 35.508,-290.53 124.309,-290.53 60.89,0 76.1,50.53 76.1,103.57 h 104.03 c -2.54,-118.73 -78.66,-204.631 -180.13,-204.631 -154.758,0 -223.254,123.791 -223.254,389.061 0,232.42 73.574,356.21 215.644,356.21 58.34,0 109.08,-25.27 142.07,-73.26 27.9,-35.38 38.05,-65.7 45.67,-131.38 H 1128.6"
         style="fill:#ffffff;fill-opacity:1;fill-rule:nonzero;stroke:none"
         transform="matrix(0.13333333,0,0,-0.13333333,0,864.66667)" />
      <path
         id="path31"
         d="m 4626.18,1080.92 c -27.9,-63.17 -86.26,-101.061 -159.83,-101.061 -86.25,0 -149.68,42.951 -185.2,123.791 -22.83,53.05 -38.05,154.1 -38.05,247.58 0,101.06 7.61,174.32 32.97,242.53 25.38,75.79 98.95,131.37 182.67,131.37 104.01,0 182.67,-75.79 187.73,-181.9 h -104.01 c -2.54,48 -35.52,80.84 -86.26,80.84 -35.52,0 -63.43,-17.68 -81.18,-53.05 -20.29,-35.37 -32.98,-116.22 -32.98,-202.1 0,-60.64 5.07,-123.79 15.23,-179.37 15.21,-70.74 50.73,-108.63 106.55,-108.63 53.27,0 78.64,35.37 78.64,111.15 v 48 h -81.18 v 101.05 h 185.19 v -149.05 c 0,-50.53 -5.06,-80.84 -20.29,-111.15"
         style="fill:#ffffff;fill-opacity:1;fill-rule:nonzero;stroke:none"
         transform="matrix(0.13333333,0,0,-0.13333333,0,864.66667)" />
      <path
         id="path32"
         d="M 9872.39,992.492 V 1318.39 H 9675.75 V 992.492 h -103.38 v 719.998 h 103.38 v -293.05 h 196.64 v 293.05 h 103.36 V 992.492 h -103.36"
         style="fill:#ffffff;fill-opacity:1;fill-rule:nonzero;stroke:none"
         transform="matrix(0.13333333,0,0,-0.13333333,0,864.66667)" />
      <path
         id="path33"
         d="m 3436.52,992.492 v 719.998 h 100.8 V 992.492 h -100.8"
         style="fill:#ffffff;fill-opacity:1;fill-rule:nonzero;stroke:none"
         transform="matrix(0.13333333,0,0,-0.13333333,0,864.66667)" />
      <path
         id="path34"
         d="M 4020.95,992.492 3799.08,1475.02 V 992.492 h -103.36 v 719.998 h 103.36 l 196.65,-432 v 432 H 4099.1 V 992.492 h -78.15"
         style="fill:#ffffff;fill-opacity:1;fill-rule:nonzero;stroke:none"
         transform="matrix(0.13333333,0,0,-0.13333333,0,864.66667)" />
      <path
         id="path35"
         d="m 2190.82,1533.12 c -17.81,63.16 -45.8,90.95 -89.06,90.95 -45.8,0 -73.79,-27.79 -91.6,-88.43 -17.84,-55.56 -22.91,-103.57 -22.91,-184.41 0,-78.32 7.63,-123.79 22.91,-181.89 17.81,-60.64 45.8,-88.42 91.6,-88.42 43.26,0 71.25,27.78 89.06,88.42 17.81,58.1 22.91,101.05 22.91,184.41 0,80.84 -7.64,126.33 -22.91,179.37 z m 81.45,-429.47 c -35.63,-85.9 -89.09,-123.791 -170.51,-123.791 -86.53,0 -137.42,37.891 -173.05,123.791 -30.53,70.73 -40.72,138.95 -40.72,250.1 0,108.63 10.19,181.89 40.72,250.12 38.18,85.89 89.06,121.25 173.05,121.25 83.98,0 134.88,-35.36 170.51,-123.79 30.52,-70.73 40.7,-138.95 40.7,-247.58 0,-111.15 -10.18,-181.89 -40.7,-250.1"
         style="fill:#ffffff;fill-opacity:1;fill-rule:nonzero;stroke:none"
         transform="matrix(0.13333333,0,0,-0.13333333,0,864.66667)" />
      <path
         id="path36"
         d="m 1585.87,1611.44 h -105.89 v -181.9 h 105.89 c 60.51,0 93.28,32.84 93.28,90.95 0,55.57 -37.82,90.95 -93.28,90.95 z m 88.23,-618.948 -95.8,338.528 h -98.32 V 992.492 h -103.36 v 719.998 h 214.3 c 113.45,0 189.08,-75.79 189.08,-192 0,-85.89 -35.29,-149.05 -103.37,-174.32 L 1780,992.492 h -105.9"
         style="fill:#ffffff;fill-opacity:1;fill-rule:nonzero;stroke:none"
         transform="matrix(0.13333333,0,0,-0.13333333,0,864.66667)" />
      <path
         id="path37"
         d="m 2625.99,1325 c -31.15,20.18 -61.4,40.43 -80.72,54.01 -58.04,40.86 -88.79,96.01 -88.79,159.16 0,103.59 81.2,186.95 185.2,186.95 101.48,0 180.13,-78.31 182.67,-186.95 h -98.95 c -2.53,50.53 -38.05,83.37 -83.72,83.37 -48.2,0 -86.25,-35.37 -86.25,-83.37 0,-35.37 15.21,-55.57 68.5,-85.89 139.54,-80.84 200.42,-159.16 200.42,-262.74 0,-116.21 -88.79,-209.688 -200.42,-209.688 -126.86,0 -202.95,106.118 -202.95,224.848 h 101.46 c 0,-60.63 30.45,-123.79 101.49,-123.79 55.81,0 101.47,50.53 101.47,108.63 0,45.12 -18.63,83.12 -99.41,135.46"
         style="fill:#ffffff;fill-opacity:1;fill-rule:nonzero;stroke:none"
         transform="matrix(0.13333333,0,0,-0.13333333,0,864.66667)" />
      <path
         id="path38"
         d="m 3115.76,1325 c -31.14,20.18 -61.39,40.43 -80.71,54.01 -58.05,40.86 -88.79,96.01 -88.79,159.16 0,103.59 81.19,186.95 185.2,186.95 101.48,0 180.12,-78.31 182.66,-186.95 h -98.94 c -2.53,50.53 -38.05,83.37 -83.72,83.37 -48.21,0 -86.25,-35.37 -86.25,-83.37 0,-35.37 15.21,-55.57 68.49,-85.89 139.54,-80.84 200.42,-159.16 200.42,-262.74 0,-116.21 -88.79,-209.688 -200.42,-209.688 -126.85,0 -202.95,106.118 -202.95,224.848 h 101.47 c 0,-60.63 30.45,-123.79 101.48,-123.79 55.81,0 101.48,50.53 101.48,108.63 0,45.12 -18.64,83.12 -99.42,135.46"
         style="fill:#ffffff;fill-opacity:1;fill-rule:nonzero;stroke:none"
         transform="matrix(0.13333333,0,0,-0.13333333,0,864.66667)" />
      <path
         id="path39"
         d="m 6059.21,979.859 c -116.7,0 -197.88,83.361 -202.95,202.111 h 101.47 c 5.07,-58.1 45.68,-101.05 101.48,-101.05 58.36,0 101.48,45.47 101.48,106.09 0,75.8 -43.12,138.96 -93.86,138.96 h -50.75 v 98.52 h 43.13 c 25.37,0 35.53,7.58 53.28,27.8 20.29,22.73 30.45,50.52 30.45,80.83 0,55.58 -32.99,90.95 -83.73,90.95 -45.67,0 -73.58,-27.78 -78.64,-75.79 l -101.48,12.64 c 10.15,95.99 83.71,164.21 180.12,164.21 104.02,0 182.67,-80.85 182.67,-184.43 0,-60.62 -17.76,-108.63 -65.96,-164.21 55.81,-50.52 83.72,-116.21 83.72,-189.48 0,-118.73 -83.72,-207.151 -200.43,-207.151"
         style="fill:#ffffff;fill-opacity:1;fill-rule:nonzero;stroke:none"
         transform="matrix(0.13333333,0,0,-0.13333333,0,864.66667)" />
      <path
         id="path40"
         d="m 7668.61,979.859 c -63.42,0 -124.31,22.741 -177.58,63.161 l 68.49,73.26 c 35.52,-25.26 63.43,-35.36 98.95,-35.36 78.64,0 134.46,70.73 134.46,169.26 0,78.32 -38.06,126.31 -98.95,126.31 -32.97,0 -60.88,-12.62 -86.26,-35.37 l -98.94,12.63 17.76,358.75 h 339.95 v -101.05 h -243.54 l -7.61,-151.59 c 35.51,12.63 53.27,15.16 81.18,15.16 116.7,0 197.88,-93.48 197.88,-229.9 0,-151.58 -96.4,-265.261 -225.79,-265.261"
         style="fill:#ffffff;fill-opacity:1;fill-rule:nonzero;stroke:none"
         transform="matrix(0.13333333,0,0,-0.13333333,0,864.66667)" />
      <path
         id="path41"
         d="m 6568.07,1341.12 c -60.89,0 -101.48,-53.05 -101.48,-121.26 0,-80.84 40.59,-138.94 101.48,-138.94 60.89,0 101.47,53.04 101.47,128.84 0,75.79 -40.58,131.36 -101.47,131.36 z m 0,-361.261 c -131.93,0 -200.42,96.001 -200.42,260.221 0,174.3 91.32,356.21 248.62,477.46 l 58.35,-80.84 c -60.89,-45.47 -126.85,-131.37 -152.22,-199.57 17.76,2.52 32.98,2.52 45.67,2.52 124.3,0 202.96,-93.48 202.96,-229.89 0,-136.42 -78.66,-229.901 -202.96,-229.901"
         style="fill:#ffffff;fill-opacity:1;fill-rule:nonzero;stroke:none"
         transform="matrix(0.13333333,0,0,-0.13333333,0,864.66667)" />
      <path
         id="path42"
         d="m 8697.62,1331.02 c -38.06,-111.17 -53.27,-207.16 -58.35,-338.54 h -101.49 v 15.17 c 0,73.26 17.77,192 43.14,287.99 30.44,116.22 68.49,202.11 139.53,315.8 h -271.46 v 101.05 h 403.38 v -101.05 c -63.42,-73.27 -114.17,-164.21 -154.75,-280.42"
         style="fill:#ffffff;fill-opacity:1;fill-rule:nonzero;stroke:none"
         transform="matrix(0.13333333,0,0,-0.13333333,0,864.66667)" />
      <path
         id="path43"
         d="m 5569.44,1624.06 c -53.28,0 -91.32,-37.89 -91.32,-90.94 0,-58.1 38.04,-96 91.32,-96 50.73,0 88.79,37.9 88.79,96 0,53.05 -38.06,90.94 -88.79,90.94 z m 0,-290.52 c -60.9,0 -101.48,-50.53 -101.48,-128.84 0,-73.26 40.58,-123.79 101.48,-123.79 60.88,0 101.47,50.53 101.47,123.79 0,78.31 -40.59,128.84 -101.47,128.84 z m 131.92,-305.69 c -32.97,-32.83 -76.12,-47.998 -131.92,-47.998 -71.03,0 -121.77,25.268 -157.3,75.788 -27.91,40.42 -45.67,93.48 -45.67,149.06 0,70.73 22.84,133.89 68.5,179.36 -38.05,40.43 -58.34,90.96 -58.34,149.06 0,111.16 78.63,192 192.81,192 111.62,0 190.28,-80.84 190.28,-192 0,-58.1 -20.3,-111.16 -58.36,-149.06 45.66,-42.95 68.49,-108.63 68.49,-179.36 0,-68.22 -25.37,-136.42 -68.49,-176.85"
         style="fill:#ffffff;fill-opacity:1;fill-rule:nonzero;stroke:none"
         transform="matrix(0.13333333,0,0,-0.13333333,0,864.66667)" />
      <path
         id="path44"
         d="m 8183.77,1624.06 c -63.43,0 -101.48,-48 -101.48,-123.79 0,-78.31 38.05,-126.31 101.48,-126.31 60.89,0 101.47,45.47 101.47,116.22 0,80.84 -40.58,133.88 -101.47,133.88 z m -48.2,-631.58 -58.35,80.85 c 60.89,45.48 126.84,133.9 152.21,202.1 -17.76,-2.52 -30.45,-2.52 -45.66,-2.52 -124.32,0 -202.96,88.42 -202.96,227.36 0,136.43 78.64,224.85 202.96,224.85 131.92,0 200.42,-88.42 200.42,-257.68 0,-176.85 -91.34,-351.17 -248.62,-474.96"
         style="fill:#ffffff;fill-opacity:1;fill-rule:nonzero;stroke:none"
         transform="matrix(0.13333333,0,0,-0.13333333,0,864.66667)" />
      <path
         id="path45"
         d="m 1761.64,4772.51 v 720 h 339.5 v -101.05 h -235.62 v -181.9 h 149.49 v -98.52 h -149.49 v -237.48 h 263.49 v -101.05 h -367.37"
         style="fill:#ffffff;fill-opacity:1;fill-rule:nonzero;stroke:none"
         transform="matrix(0.13333333,0,0,-0.13333333,0,864.66667)" />
      <path
         id="path46"
         d="m 3087.23,5313.13 c -17.82,63.17 -45.81,90.96 -89.08,90.96 -45.8,0 -73.78,-27.79 -91.6,-88.43 -17.82,-55.57 -22.91,-103.57 -22.91,-184.42 0,-78.31 7.64,-123.79 22.91,-181.89 17.82,-60.63 45.8,-88.42 91.6,-88.42 43.27,0 71.26,27.79 89.08,88.42 17.81,58.1 22.9,101.05 22.9,184.42 0,80.84 -7.64,126.32 -22.9,179.36 z m 81.43,-429.47 c -35.62,-85.89 -89.07,-123.79 -170.51,-123.79 -86.52,0 -137.41,37.9 -173.03,123.79 -30.54,70.74 -40.73,138.96 -40.73,250.11 0,108.63 10.19,181.89 40.73,250.11 38.17,85.9 89.06,121.26 173.03,121.26 83.99,0 134.89,-35.36 170.51,-123.79 30.54,-70.73 40.72,-138.95 40.72,-247.58 0,-111.15 -10.18,-181.9 -40.72,-250.11"
         style="fill:#ffffff;fill-opacity:1;fill-rule:nonzero;stroke:none"
         transform="matrix(0.13333333,0,0,-0.13333333,0,864.66667)" />
      <path
         id="path47"
         d="m 2460.67,5391.46 h -105.88 v -204.63 h 105.88 c 60.51,0 93.29,37.89 93.29,103.57 0,60.64 -37.82,101.06 -93.29,101.06 z m 5.04,-303.16 h -110.92 v -315.79 h -103.37 v 720 h 214.29 c 113.46,0 189.08,-80.84 189.08,-202.11 0,-131.37 -68.06,-202.1 -189.08,-202.1"
         style="fill:#ffffff;fill-opacity:1;fill-rule:nonzero;stroke:none"
         transform="matrix(0.13333333,0,0,-0.13333333,0,864.66667)" />
      <path
         id="path48"
         d="m 1445.12,5391.46 h -105.89 v -181.9 h 105.89 c 60.51,0 93.28,32.84 93.28,90.95 0,55.57 -37.82,90.95 -93.28,90.95 z m 88.23,-618.96 -95.8,338.54 h -98.32 V 4772.5 h -103.37 v 720.01 h 214.3 c 113.45,0 189.08,-75.79 189.08,-192 0,-85.9 -35.29,-149.05 -103.36,-174.32 l 103.36,-353.69 h -105.89"
         style="fill:#ffffff;fill-opacity:1;fill-rule:nonzero;stroke:none"
         transform="matrix(0.13333333,0,0,-0.13333333,0,864.66667)" />
      <path
         id="path49"
         d="m 3562.63,5391.46 h -105.89 v -181.9 h 105.89 c 60.5,0 93.28,32.84 93.28,90.95 0,55.57 -37.82,90.95 -93.28,90.95 z m 88.23,-618.96 -95.8,338.54 h -98.32 V 4772.5 h -103.37 v 720.01 h 214.3 c 113.45,0 189.08,-75.79 189.08,-192 0,-85.9 -35.29,-149.05 -103.36,-174.32 l 103.36,-353.69 h -105.89"
         style="fill:#ffffff;fill-opacity:1;fill-rule:nonzero;stroke:none"
         transform="matrix(0.13333333,0,0,-0.13333333,0,864.66667)" />
      <path
         id="path50"
         d="m 4057.18,5396.5 v -624 H 3953.3 v 624 h -131.75 v 96.01 h 367.38 v -96.01 h -131.75"
         style="fill:#ffffff;fill-opacity:1;fill-rule:nonzero;stroke:none"
         transform="matrix(0.13333333,0,0,-0.13333333,0,864.66667)" />
      <path
         id="path51"
         d="m 8917.75,5300.51 c -10.14,70.74 -38.04,103.58 -86.25,103.58 -83.73,0 -114.17,-65.68 -114.17,-252.63 0,-207.16 35.52,-290.53 124.31,-290.53 60.9,0 76.11,50.53 76.11,103.58 h 104.03 c -2.54,-118.73 -78.65,-204.63 -180.14,-204.63 -154.75,0 -223.24,123.79 -223.24,389.06 0,232.42 73.56,356.2 215.63,356.2 58.35,0 109.1,-25.26 142.08,-73.26 27.89,-35.37 38.05,-65.68 45.67,-131.37 h -104.03"
         style="fill:#ffffff;fill-opacity:1;fill-rule:nonzero;stroke:none"
         transform="matrix(0.13333333,0,0,-0.13333333,0,864.66667)" />
      <path
         id="path52"
         d="m 4908.93,4772.51 v 720 h 339.51 v -101.05 h -235.65 v -181.89 h 149.5 v -98.53 h -149.5 v -237.48 h 263.52 v -101.05 h -367.38"
         style="fill:#ffffff;fill-opacity:1;fill-rule:nonzero;stroke:none"
         transform="matrix(0.13333333,0,0,-0.13333333,0,864.66667)" />
      <path
         id="path53"
         d="m 6032.68,4772.51 v 720 h 339.51 v -101.05 h -235.65 v -181.89 h 149.5 v -98.53 h -149.5 v -237.48 h 263.52 v -101.05 h -367.38"
         style="fill:#ffffff;fill-opacity:1;fill-rule:nonzero;stroke:none"
         transform="matrix(0.13333333,0,0,-0.13333333,0,864.66667)" />
      <path
         id="path54"
         d="m 7581.22,4772.51 v 720 h 339.51 v -101.05 h -235.64 v -181.89 h 149.49 v -98.53 h -149.49 v -237.48 h 263.51 v -101.05 h -367.38"
         style="fill:#ffffff;fill-opacity:1;fill-rule:nonzero;stroke:none"
         transform="matrix(0.13333333,0,0,-0.13333333,0,864.66667)" />
      <path
         id="path55"
         d="m 7416.92,4860.93 c -27.91,-63.16 -86.26,-101.05 -159.82,-101.05 -86.26,0 -149.69,42.95 -185.21,123.79 -22.83,53.05 -38.05,154.1 -38.05,247.58 0,101.05 7.62,174.32 32.99,242.53 25.36,75.79 98.93,131.36 182.65,131.36 104.02,0 182.67,-75.78 187.74,-181.89 H 7333.2 c -2.54,48 -35.51,80.84 -86.26,80.84 -35.51,0 -63.41,-17.68 -81.18,-53.05 -20.29,-35.37 -32.98,-116.21 -32.98,-202.1 0,-60.64 5.08,-123.79 15.22,-179.37 15.22,-70.74 50.74,-108.64 106.56,-108.64 53.27,0 78.64,35.37 78.64,111.16 v 48 h -81.18 v 101.05 h 185.2 v -149.05 c 0,-50.53 -5.07,-80.84 -20.3,-111.16"
         style="fill:#ffffff;fill-opacity:1;fill-rule:nonzero;stroke:none"
         transform="matrix(0.13333333,0,0,-0.13333333,0,864.66667)" />
      <path
         id="path56"
         d="m 5770.57,4772.51 v 404.21 l -134.08,-404.21 -134.06,404.21 v -404.21 h -103.71 v 720 h 103.71 l 134.06,-404.21 134.08,404.21 h 103.71 v -720 h -103.71"
         style="fill:#ffffff;fill-opacity:1;fill-rule:nonzero;stroke:none"
         transform="matrix(0.13333333,0,0,-0.13333333,0,864.66667)" />
      <path
         id="path57"
         d="m 8396.24,4772.51 -221.86,482.52 v -482.52 h -103.36 v 720 h 103.36 l 196.65,-432 v 432 h 103.36 v -720 h -78.15"
         style="fill:#ffffff;fill-opacity:1;fill-rule:nonzero;stroke:none"
         transform="matrix(0.13333333,0,0,-0.13333333,0,864.66667)" />
      <path
         id="path58"
         d="m 6731.71,5391.46 h -105.88 v -181.89 h 105.88 c 60.51,0 93.28,32.84 93.28,90.94 0,55.58 -37.82,90.95 -93.28,90.95 z m 88.23,-618.96 -95.79,338.54 h -98.32 V 4772.5 h -103.37 v 720.02 h 214.3 c 113.45,0 189.08,-75.8 189.08,-192.01 0,-85.9 -35.29,-149.05 -103.37,-174.31 l 103.37,-353.7 h -105.9"
         style="fill:#ffffff;fill-opacity:1;fill-rule:nonzero;stroke:none"
         transform="matrix(0.13333333,0,0,-0.13333333,0,864.66667)" />
      <path
         id="path59"
         d="m 9389.32,5098.4 v -325.9 h -103.85 v 325.9 l -177.31,394.12 h 108.92 l 121.58,-260.22 119.05,260.22 h 111.43 L 9389.32,5098.4"
         style="fill:#ffffff;fill-opacity:1;fill-rule:nonzero;stroke:none"
         transform="matrix(0.13333333,0,0,-0.13333333,0,864.66667)" />
    </g>
  </g>
</svg>
