<?xml version="1.0" standalone="no"?>
<svg width="1080px" height="648px" viewBox="0 144 1080 648 " xmlns="http://www.w3.org/2000/svg" xmlns:xlink="http://www.w3.org/1999/xlink">
<title>generated by pstoedit</title>
<!-- generated by pstoedit version:4.02 -->
<g xml:space='preserve'>
<clipPath id="clippath1"> 	<path d="
	M 0 143.5 
	L 0 792 
	L 1080.5 792 
	L 1080.5 143.5 
	Z 
	" style="clip-rule:nonzero"/>
</clipPath>
<g style="clip-path:url(#clippath1)"> 
<g fill="#ffffff" fill-rule="nonzero" stroke-width="0" stroke-linejoin="miter" stroke-linecap="butt" stroke-miterlimit="10" >
	<path d="
	M 1080.25 719.75 
	C 1080.25 759.516 1048.01 791.75 1008.25 791.75 
	L 72.25 791.75 
	C 32.4844 791.75 0.25 759.516 0.25 719.75 
	L 0.25 215.75 
	C 0.25 175.984 32.4844 143.75 72.25 143.75 
	L 1008.25 143.75 
	C 1048.01 143.75 1080.25 175.984 1080.25 215.75 
	Z 
	"/>
</g>
<g stroke="#7f7f7f" fill="none" stroke-width="0.5" stroke-linejoin="miter" stroke-linecap="butt" stroke-miterlimit="4" >
	<path d="
	M 1080.25 719.75 
	C 1080.25 759.516 1048.01 791.75 1008.25 791.75 
	L 72.25 791.75 
	C 32.4844 791.75 0.25 759.516 0.25 719.75 
	L 0.25 215.75 
	C 0.25 175.984 32.4844 143.75 72.25 143.75 
	L 1008.25 143.75 
	C 1048.01 143.75 1080.25 175.984 1080.25 215.75 
	Z 
	"/>
</g>
<g fill="#e8ad7f" fill-rule="nonzero" stroke-width="0" stroke-linejoin="miter" stroke-linecap="butt" stroke-miterlimit="4" >
	<path d="
	M 72.25 764.75 
	C 47.4375 764.75 27.25 744.562 27.25 719.75 
	L 27.25 215.75 
	C 27.25 190.937 47.4375 170.75 72.25 170.75 
	L 1008.25 170.75 
	C 1033.06 170.75 1053.25 190.937 1053.25 215.75 
	L 1053.25 719.75 
	C 1053.25 744.562 1033.06 764.75 1008.25 764.75 
	Z 
	"/>
</g>
<g fill="#ffffff" fill-rule="nonzero" stroke-width="0" stroke-linejoin="miter" stroke-linecap="butt" stroke-miterlimit="4" >
	<path d="
	M 628.965 408.16 
	L 618.625 408.16 
	L 618.625 430.645 
	L 628.965 430.645 
	C 634.762 430.645 638.543 426.602 638.543 420.285 
	C 638.543 413.465 634.258 408.16 628.965 408.16 
	Z 
	M 629.469 378.855 
	L 618.625 378.855 
	L 618.625 398.055 
	L 629.469 398.055 
	C 634.258 398.055 637.281 394.012 637.281 387.445 
	C 637.281 381.383 635.016 378.855 629.469 378.855 
	Z 
	M 629.469 440.75 
	L 608.289 440.75 
	L 608.289 368.75 
	L 630.98 368.75 
	C 640.563 368.75 647.367 376.328 647.367 387.445 
	C 647.367 394.012 645.602 397.043 639.805 403.105 
	C 645.352 407.652 648.629 413.719 648.629 421.043 
	C 648.629 431.906 640.055 440.75 629.469 440.75 
	Z 
	"/>
</g>
<g fill="#ffffff" fill-rule="nonzero" stroke-width="0" stroke-linejoin="miter" stroke-linecap="butt" stroke-miterlimit="4" >
	<path d="
	M 707.688 440.75 
	L 707.688 368.75 
	L 741.637 368.75 
	L 741.637 378.855 
	L 718.07 378.855 
	L 718.07 397.043 
	L 733.02 397.043 
	L 733.02 406.898 
	L 718.07 406.898 
	L 718.07 430.645 
	L 744.422 430.645 
	L 744.422 440.75 
	Z 
	"/>
</g>
<g fill="#ffffff" fill-rule="nonzero" stroke-width="0" stroke-linejoin="miter" stroke-linecap="butt" stroke-miterlimit="4" >
	<path d="
	M 660.867 440.75 
	L 660.867 368.75 
	L 671.258 368.75 
	L 671.258 431.148 
	L 697.605 431.148 
	L 697.605 440.75 
	Z 
	"/>
</g>
<g fill="#ffffff" fill-rule="nonzero" stroke-width="0" stroke-linejoin="miter" stroke-linecap="butt" stroke-miterlimit="4" >
	<path d="
	M 793.848 440.75 
	L 793.848 400.328 
	L 780.441 440.75 
	L 767.031 400.328 
	L 767.031 440.75 
	L 756.66 440.75 
	L 756.66 368.75 
	L 767.031 368.75 
	L 780.441 409.172 
	L 793.848 368.75 
	L 804.219 368.75 
	L 804.219 440.75 
	Z 
	"/>
</g>
<g fill="#ffffff" fill-rule="nonzero" stroke-width="0" stroke-linejoin="miter" stroke-linecap="butt" stroke-miterlimit="4" >
	<path d="
	M 306.563 386.687 
	C 304.781 380.371 301.984 377.59 297.656 377.59 
	C 293.078 377.59 290.277 380.371 288.496 386.434 
	C 286.715 391.992 286.207 396.793 286.207 404.875 
	C 286.207 412.707 286.969 417.254 288.496 423.066 
	C 290.277 429.129 293.078 431.906 297.656 431.906 
	C 301.984 431.906 304.781 429.129 306.563 423.066 
	C 308.348 417.254 308.855 412.961 308.855 404.621 
	C 308.855 396.539 308.09 391.992 306.563 386.687 
	Z 
	M 314.707 429.633 
	C 311.145 438.223 305.801 442.012 297.656 442.012 
	C 289.004 442.012 283.914 438.223 280.355 429.633 
	C 277.301 422.559 276.281 415.738 276.281 404.621 
	C 276.281 393.762 277.301 386.434 280.355 379.613 
	C 284.172 371.023 289.262 367.484 297.656 367.484 
	C 306.055 367.484 311.145 371.023 314.707 379.863 
	C 317.762 386.937 318.777 393.762 318.777 404.621 
	C 318.777 415.738 317.762 422.812 314.707 429.633 
	Z 
	"/>
</g>
<g fill="#ffffff" fill-rule="nonzero" stroke-width="0" stroke-linejoin="miter" stroke-linecap="butt" stroke-miterlimit="4" >
	<path d="
	M 581.676 386.687 
	C 579.895 380.371 577.094 377.59 572.77 377.59 
	C 568.188 377.59 565.391 380.371 563.605 386.434 
	C 561.824 391.992 561.316 396.793 561.316 404.875 
	C 561.316 412.707 562.078 417.254 563.605 423.066 
	C 565.391 429.129 568.188 431.906 572.77 431.906 
	C 577.094 431.906 579.895 429.129 581.676 423.066 
	C 583.457 417.254 583.965 412.961 583.965 404.621 
	C 583.965 396.539 583.199 391.992 581.676 386.687 
	Z 
	M 589.816 429.633 
	C 586.258 438.223 580.91 442.012 572.77 442.012 
	C 564.113 442.012 559.027 438.223 555.465 429.633 
	C 552.41 422.559 551.395 415.738 551.395 404.621 
	C 551.395 393.762 552.41 386.434 555.465 379.613 
	C 559.281 371.023 564.371 367.484 572.77 367.484 
	C 581.168 367.484 586.258 371.023 589.816 379.863 
	C 592.871 386.937 593.891 393.762 593.891 404.621 
	C 593.891 415.738 592.871 422.812 589.816 429.633 
	Z 
	"/>
</g>
<g fill="#ffffff" fill-rule="nonzero" stroke-width="0" stroke-linejoin="miter" stroke-linecap="butt" stroke-miterlimit="4" >
	<path d="
	M 466.441 378.855 
	L 455.855 378.855 
	L 455.855 399.316 
	L 466.441 399.316 
	C 472.492 399.316 475.77 395.527 475.77 388.961 
	C 475.77 382.895 471.988 378.855 466.441 378.855 
	Z 
	M 466.945 409.172 
	L 455.855 409.172 
	L 455.855 440.75 
	L 445.516 440.75 
	L 445.516 368.75 
	L 466.945 368.75 
	C 478.293 368.75 485.855 376.832 485.855 388.961 
	C 485.855 402.098 479.047 409.172 466.945 409.172 
	Z 
	"/>
</g>
<g fill="#ffffff" fill-rule="nonzero" stroke-width="0" stroke-linejoin="miter" stroke-linecap="butt" stroke-miterlimit="4" >
	<path d="
	M 521.18 378.855 
	L 510.594 378.855 
	L 510.594 397.043 
	L 521.18 397.043 
	C 527.23 397.043 530.508 393.762 530.508 387.949 
	C 530.508 382.391 526.727 378.855 521.18 378.855 
	Z 
	M 530.004 440.75 
	L 520.426 406.895 
	L 510.594 406.895 
	L 510.594 440.75 
	L 500.254 440.75 
	L 500.254 368.75 
	L 521.684 368.75 
	C 533.031 368.75 540.594 376.328 540.594 387.949 
	C 540.594 396.539 537.063 402.855 530.258 405.383 
	L 540.594 440.75 
	Z 
	"/>
</g>
<g fill="#ffffff" fill-rule="nonzero" stroke-width="0" stroke-linejoin="miter" stroke-linecap="butt" stroke-miterlimit="4" >
	<path d="
	M 354.105 378.855 
	L 343.516 378.855 
	L 343.516 397.043 
	L 354.105 397.043 
	C 360.152 397.043 363.434 393.762 363.434 387.949 
	C 363.434 382.391 359.648 378.855 354.105 378.855 
	Z 
	M 362.93 440.75 
	L 353.348 406.895 
	L 343.516 406.895 
	L 343.516 440.75 
	L 333.18 440.75 
	L 333.18 368.75 
	L 354.609 368.75 
	C 365.953 368.75 373.516 376.328 373.516 387.949 
	C 373.516 396.539 369.988 402.855 363.18 405.383 
	L 373.516 440.75 
	Z 
	"/>
</g>
<g fill="#ffffff" fill-rule="nonzero" stroke-width="0" stroke-linejoin="miter" stroke-linecap="butt" stroke-miterlimit="4" >
	<path d="
	M 210.082 512.687 
	C 208.301 506.371 205.5 503.594 201.176 503.594 
	C 196.594 503.594 193.797 506.371 192.016 512.434 
	C 190.23 517.992 189.723 522.793 189.723 530.879 
	C 189.723 538.707 190.484 543.258 192.016 549.066 
	C 193.797 555.129 196.594 557.906 201.176 557.906 
	C 205.5 557.906 208.301 555.129 210.082 549.066 
	C 211.863 543.258 212.371 538.961 212.371 530.625 
	C 212.371 522.539 211.605 517.992 210.082 512.687 
	Z 
	M 218.227 555.637 
	C 214.66 564.223 209.316 568.016 201.176 568.016 
	C 192.52 568.016 187.434 564.223 183.871 555.637 
	C 180.816 548.562 179.797 541.738 179.797 530.625 
	C 179.797 519.762 180.816 512.434 183.871 505.613 
	C 187.688 497.023 192.777 493.488 201.176 493.488 
	C 209.57 493.488 214.66 497.023 218.227 505.867 
	C 221.277 512.937 222.297 519.762 222.297 530.625 
	C 222.297 541.738 221.277 548.812 218.227 555.637 
	Z 
	"/>
</g>
<g fill="#ffffff" fill-rule="nonzero" stroke-width="0" stroke-linejoin="miter" stroke-linecap="butt" stroke-miterlimit="4" >
	<path d="
	M 157.98 504.352 
	L 157.98 566.75 
	L 147.594 566.75 
	L 147.594 504.352 
	L 134.422 504.352 
	L 134.422 494.75 
	L 171.156 494.75 
	L 171.156 504.352 
	Z 
	"/>
</g>
<g fill="#ffffff" fill-rule="nonzero" stroke-width="0" stroke-linejoin="miter" stroke-linecap="butt" stroke-miterlimit="4" >
	<path d="
	M 298.906 566.75 
	L 298.906 507.637 
	L 294.297 507.637 
	L 294.297 499.805 
	C 298.395 499.551 300.961 497.781 302.496 494.75 
	L 309.414 494.75 
	L 309.414 566.75 
	Z 
	"/>
</g>
<g fill="#ffffff" fill-rule="nonzero" stroke-width="0" stroke-linejoin="miter" stroke-linecap="butt" stroke-miterlimit="4" >
	<path d="
	M 584.27 568.016 
	C 577.93 568.016 571.84 565.738 566.512 561.695 
	L 573.359 554.371 
	C 576.914 556.898 579.703 557.906 583.258 557.906 
	C 591.121 557.906 596.703 550.836 596.703 540.98 
	C 596.703 533.148 592.895 528.352 586.809 528.352 
	C 583.512 528.352 580.719 529.613 578.184 531.887 
	L 568.285 530.625 
	L 570.063 494.75 
	L 604.059 494.75 
	L 604.059 504.855 
	L 579.703 504.855 
	L 578.941 520.012 
	C 582.492 518.75 584.27 518.496 587.063 518.496 
	C 598.73 518.496 606.852 527.844 606.852 541.488 
	C 606.852 556.645 597.211 568.016 584.27 568.016 
	Z 
	"/>
</g>
<g fill="#ffffff" fill-rule="nonzero" stroke-width="0" stroke-linejoin="miter" stroke-linecap="butt" stroke-miterlimit="4" >
	<path d="
	M 633.25 568.016 
	C 626.906 568.016 620.816 565.738 615.488 561.695 
	L 622.34 554.371 
	C 625.895 556.898 628.684 557.906 632.234 557.906 
	C 640.102 557.906 645.684 550.836 645.684 540.98 
	C 645.684 533.148 641.875 528.352 635.785 528.352 
	C 632.488 528.352 629.695 529.613 627.16 531.887 
	L 617.266 530.625 
	L 619.043 494.75 
	L 653.035 494.75 
	L 653.035 504.855 
	L 628.684 504.855 
	L 627.922 520.012 
	C 631.473 518.75 633.25 518.496 636.043 518.496 
	C 647.711 518.496 655.828 527.844 655.828 541.488 
	C 655.828 556.645 646.188 568.016 633.25 568.016 
	Z 
	"/>
</g>
<g fill="#ffffff" fill-rule="nonzero" stroke-width="0" stroke-linejoin="miter" stroke-linecap="butt" stroke-miterlimit="4" >
	<path d="
	M 682.23 568.016 
	C 675.887 568.016 669.797 565.738 664.469 561.695 
	L 671.316 554.371 
	C 674.871 556.898 677.66 557.906 681.215 557.906 
	C 689.078 557.906 694.66 550.836 694.66 540.98 
	C 694.66 533.148 690.855 528.352 684.766 528.352 
	C 681.469 528.352 678.676 529.613 676.141 531.887 
	L 666.242 530.625 
	L 668.02 494.75 
	L 702.016 494.75 
	L 702.016 504.855 
	L 677.66 504.855 
	L 676.898 520.012 
	C 680.449 518.75 682.23 518.496 685.02 518.496 
	C 696.688 518.496 704.809 527.844 704.809 541.488 
	C 704.809 556.645 695.168 568.016 682.23 568.016 
	Z 
	"/>
</g>
<g fill="#ffffff" fill-rule="nonzero" stroke-width="0" stroke-linejoin="miter" stroke-linecap="butt" stroke-miterlimit="4" >
	<path d="
	M 444.836 512.687 
	C 443.055 506.371 440.258 503.594 435.93 503.594 
	C 431.348 503.594 428.551 506.371 426.77 512.434 
	C 424.988 517.992 424.48 522.793 424.48 530.879 
	C 424.48 538.707 425.242 543.258 426.77 549.066 
	C 428.551 555.129 431.348 557.906 435.93 557.906 
	C 440.258 557.906 443.055 555.129 444.836 549.066 
	C 446.617 543.258 447.129 538.961 447.129 530.625 
	C 447.129 522.539 446.363 517.992 444.836 512.687 
	Z 
	M 452.98 555.637 
	C 449.418 564.227 444.074 568.016 435.93 568.016 
	C 427.277 568.016 422.188 564.227 418.625 555.637 
	C 415.57 548.562 414.555 541.738 414.555 530.625 
	C 414.555 519.762 415.57 512.434 418.625 505.613 
	C 422.441 497.023 427.531 493.488 435.93 493.488 
	C 444.328 493.488 449.418 497.023 452.98 505.867 
	C 456.035 512.941 457.051 519.762 457.051 530.625 
	C 457.051 541.738 456.035 548.812 452.98 555.637 
	Z 
	"/>
</g>
<g fill="#ffffff" fill-rule="nonzero" stroke-width="0" stroke-linejoin="miter" stroke-linecap="butt" stroke-miterlimit="4" >
	<path d="
	M 500.297 512.687 
	C 498.516 506.371 495.715 503.594 491.387 503.594 
	C 486.809 503.594 484.008 506.371 482.227 512.434 
	C 480.445 517.992 479.938 522.793 479.938 530.879 
	C 479.938 538.707 480.699 543.258 482.227 549.066 
	C 484.008 555.129 486.809 557.906 491.387 557.906 
	C 495.715 557.906 498.516 555.129 500.297 549.066 
	C 502.078 543.258 502.586 538.961 502.586 530.625 
	C 502.586 522.539 501.82 517.992 500.297 512.687 
	Z 
	M 508.438 555.637 
	C 504.875 564.227 499.531 568.016 491.387 568.016 
	C 482.734 568.016 477.648 564.227 474.082 555.637 
	C 471.031 548.562 470.012 541.738 470.012 530.625 
	C 470.012 519.762 471.031 512.434 474.082 505.613 
	C 477.902 497.023 482.992 493.488 491.387 493.488 
	C 499.785 493.488 504.875 497.023 508.438 505.867 
	C 511.492 512.941 512.512 519.762 512.512 530.625 
	C 512.512 541.738 511.492 548.812 508.438 555.637 
	Z 
	"/>
</g>
<g fill="#ffffff" fill-rule="nonzero" stroke-width="0" stroke-linejoin="miter" stroke-linecap="butt" stroke-miterlimit="4" >
	<path d="
	M 383.715 503.594 
	C 378.387 503.594 374.578 507.383 374.578 512.687 
	C 374.578 518.496 378.387 522.285 383.715 522.285 
	C 388.785 522.285 392.594 518.496 392.594 512.687 
	C 392.594 507.383 388.785 503.594 383.715 503.594 
	Z 
	M 383.715 532.645 
	C 377.621 532.645 373.563 537.699 373.563 545.527 
	C 373.563 552.855 377.621 557.906 383.715 557.906 
	C 389.801 557.906 393.859 552.855 393.859 545.527 
	C 393.859 537.699 389.801 532.645 383.715 532.645 
	Z 
	M 396.902 563.215 
	C 393.605 566.496 389.293 568.016 383.715 568.016 
	C 376.605 568.016 371.535 565.488 367.98 560.434 
	C 365.191 556.395 363.414 551.09 363.414 545.527 
	C 363.414 538.457 365.699 532.141 370.266 527.594 
	C 366.461 523.551 364.434 518.496 364.434 512.687 
	C 364.434 501.57 372.297 493.488 383.715 493.488 
	C 394.875 493.488 402.738 501.57 402.738 512.687 
	C 402.738 518.496 400.711 523.805 396.902 527.594 
	C 401.469 531.887 403.754 538.457 403.754 545.527 
	C 403.754 552.352 401.215 559.172 396.902 563.215 
	Z 
	"/>
</g>
<g fill="#ffffff" fill-rule="nonzero" stroke-width="0" stroke-linejoin="miter" stroke-linecap="butt" stroke-miterlimit="4" >
	<path d="
	M 318.414 537.191 
	L 318.414 527.594 
	L 354.414 527.594 
	L 354.414 537.191 
	Z 
	"/>
</g>
<g fill="#ffffff" fill-rule="nonzero" stroke-width="0" stroke-linejoin="miter" stroke-linecap="butt" stroke-miterlimit="4" >
	<path d="
	M 521.512 537.191 
	L 521.512 527.594 
	L 557.512 527.594 
	L 557.512 537.191 
	Z 
	"/>
</g>
<g fill="#ffffff" fill-rule="nonzero" stroke-width="0" stroke-linejoin="miter" stroke-linecap="butt" stroke-miterlimit="4" >
	<path d="
	M 776.563 568.016 
	C 770.223 568.016 764.133 565.738 758.809 561.695 
	L 765.656 554.371 
	C 769.207 556.898 771.996 557.906 775.551 557.906 
	C 783.414 557.906 788.996 550.836 788.996 540.98 
	C 788.996 533.148 785.191 528.352 779.102 528.352 
	C 775.805 528.352 773.016 529.613 770.477 531.887 
	L 760.582 530.625 
	L 762.355 494.75 
	L 796.355 494.75 
	L 796.355 504.855 
	L 771.996 504.855 
	L 771.238 520.012 
	C 774.789 518.75 776.563 518.496 779.355 518.496 
	C 791.023 518.496 799.145 527.844 799.145 541.488 
	C 799.145 556.645 789.504 568.016 776.563 568.016 
	Z 
	"/>
</g>
<g fill="#ffffff" fill-rule="nonzero" stroke-width="0" stroke-linejoin="miter" stroke-linecap="butt" stroke-miterlimit="4" >
	<path d="
	M 825.543 568.016 
	C 819.199 568.016 813.109 565.738 807.785 561.695 
	L 814.637 554.371 
	C 818.188 556.898 820.977 557.906 824.527 557.906 
	C 832.395 557.906 837.977 550.836 837.977 540.98 
	C 837.977 533.148 834.172 528.352 828.078 528.352 
	C 824.781 528.352 821.992 529.613 819.453 531.887 
	L 809.563 530.625 
	L 811.336 494.75 
	L 845.332 494.75 
	L 845.332 504.855 
	L 820.977 504.855 
	L 820.219 520.012 
	C 823.77 518.75 825.543 518.496 828.336 518.496 
	C 840.004 518.496 848.121 527.844 848.121 541.488 
	C 848.121 556.645 838.48 568.016 825.543 568.016 
	Z 
	"/>
</g>
<g fill="#ffffff" fill-rule="nonzero" stroke-width="0" stroke-linejoin="miter" stroke-linecap="butt" stroke-miterlimit="4" >
	<path d="
	M 874.52 568.016 
	C 868.18 568.016 862.09 565.738 856.766 561.695 
	L 863.613 554.371 
	C 867.164 556.898 869.953 557.906 873.508 557.906 
	C 881.371 557.906 886.953 550.836 886.953 540.98 
	C 886.953 533.148 883.148 528.352 877.059 528.352 
	C 873.762 528.352 870.973 529.613 868.434 531.887 
	L 858.539 530.625 
	L 860.313 494.75 
	L 894.313 494.75 
	L 894.313 504.855 
	L 869.953 504.855 
	L 869.195 520.012 
	C 872.746 518.75 874.52 518.496 877.313 518.496 
	C 888.98 518.496 897.102 527.844 897.102 541.488 
	C 897.102 556.645 887.461 568.016 874.52 568.016 
	Z 
	"/>
</g>
<g fill="#ffffff" fill-rule="nonzero" stroke-width="0" stroke-linejoin="miter" stroke-linecap="butt" stroke-miterlimit="4" >
	<path d="
	M 923.5 568.016 
	C 917.156 568.016 911.066 565.738 905.742 561.695 
	L 912.594 554.371 
	C 916.145 556.898 918.934 557.906 922.484 557.906 
	C 930.352 557.906 935.934 550.836 935.934 540.98 
	C 935.934 533.148 932.129 528.352 926.035 528.352 
	C 922.738 528.352 919.949 529.613 917.41 531.887 
	L 907.52 530.625 
	L 909.293 494.75 
	L 943.289 494.75 
	L 943.289 504.855 
	L 918.934 504.855 
	L 918.176 520.012 
	C 921.727 518.75 923.5 518.496 926.293 518.496 
	C 937.961 518.496 946.078 527.844 946.078 541.488 
	C 946.078 556.645 936.438 568.016 923.5 568.016 
	Z 
	"/>
</g>
<g fill="#ffffff" fill-rule="nonzero" stroke-width="0" stroke-linejoin="miter" stroke-linecap="butt" stroke-miterlimit="4" >
	<path d="
	M 713.809 537.191 
	L 713.809 527.594 
	L 749.809 527.594 
	L 749.809 537.191 
	Z 
	"/>
</g>
<g fill="#ffffff" fill-rule="nonzero" stroke-width="0" stroke-linejoin="miter" stroke-linecap="butt" stroke-miterlimit="4" >
	<path d="
	M 112.859 639.949 
	C 111.848 632.879 109.055 629.594 104.234 629.594 
	C 95.8633 629.594 92.8203 636.16 92.8203 654.855 
	C 92.8203 675.57 96.3711 683.906 105.25 683.906 
	C 111.34 683.906 112.859 678.855 112.859 673.551 
	L 123.262 673.551 
	C 123.008 685.426 115.398 694.016 105.25 694.016 
	C 89.7734 694.016 82.9258 681.637 82.9258 655.109 
	C 82.9258 631.867 90.2813 619.488 104.488 619.488 
	C 110.324 619.488 115.398 622.016 118.695 626.812 
	C 121.484 630.352 122.5 633.383 123.262 639.949 
	Z 
	"/>
</g>
<g fill="#ffffff" fill-rule="nonzero" stroke-width="0" stroke-linejoin="miter" stroke-linecap="butt" stroke-miterlimit="4" >
	<path d="
	M 462.617 683.906 
	C 459.828 690.227 453.992 694.016 446.637 694.016 
	C 438.012 694.016 431.668 689.719 428.113 681.637 
	C 425.832 676.328 424.309 666.227 424.309 656.879 
	C 424.309 646.77 425.07 639.445 427.605 632.625 
	C 430.145 625.047 437.504 619.488 445.875 619.488 
	C 456.273 619.488 464.141 627.066 464.648 637.676 
	L 454.246 637.676 
	C 453.992 632.879 450.695 629.594 445.621 629.594 
	C 442.066 629.594 439.277 631.359 437.504 634.898 
	C 435.473 638.434 434.203 646.52 434.203 655.109 
	C 434.203 661.172 434.711 667.488 435.727 673.047 
	C 437.246 680.117 440.801 683.906 446.383 683.906 
	C 451.711 683.906 454.246 680.371 454.246 672.793 
	L 454.246 667.992 
	L 446.129 667.992 
	L 446.129 657.887 
	L 464.648 657.887 
	L 464.648 672.793 
	C 464.648 677.848 464.141 680.879 462.617 683.906 
	Z 
	"/>
</g>
<g fill="#ffffff" fill-rule="nonzero" stroke-width="0" stroke-linejoin="miter" stroke-linecap="butt" stroke-miterlimit="4" >
	<path d="
	M 987.238 692.75 
	L 987.238 660.16 
	L 967.574 660.16 
	L 967.574 692.75 
	L 957.238 692.75 
	L 957.238 620.75 
	L 967.574 620.75 
	L 967.574 650.055 
	L 987.238 650.055 
	L 987.238 620.75 
	L 997.574 620.75 
	L 997.574 692.75 
	Z 
	"/>
</g>
<g fill="#ffffff" fill-rule="nonzero" stroke-width="0" stroke-linejoin="miter" stroke-linecap="butt" stroke-miterlimit="4" >
	<path d="
	M 343.652 692.75 
	L 343.652 620.75 
	L 353.73 620.75 
	L 353.73 692.75 
	Z 
	"/>
</g>
<g fill="#ffffff" fill-rule="nonzero" stroke-width="0" stroke-linejoin="miter" stroke-linecap="butt" stroke-miterlimit="4" >
	<path d="
	M 402.094 692.75 
	L 379.906 644.496 
	L 379.906 692.75 
	L 369.57 692.75 
	L 369.57 620.75 
	L 379.906 620.75 
	L 399.574 663.949 
	L 399.574 620.75 
	L 409.91 620.75 
	L 409.91 692.75 
	Z 
	"/>
</g>
<g fill="#ffffff" fill-rule="nonzero" stroke-width="0" stroke-linejoin="miter" stroke-linecap="butt" stroke-miterlimit="4" >
	<path d="
	M 219.082 638.687 
	C 217.301 632.371 214.504 629.594 210.176 629.594 
	C 205.598 629.594 202.797 632.371 201.016 638.437 
	C 199.23 643.992 198.727 648.793 198.727 656.879 
	C 198.727 664.711 199.488 669.258 201.016 675.066 
	C 202.797 681.129 205.598 683.906 210.176 683.906 
	C 214.504 683.906 217.301 681.129 219.082 675.066 
	C 220.863 669.258 221.371 664.961 221.371 656.625 
	C 221.371 648.543 220.609 643.992 219.082 638.687 
	Z 
	M 227.227 681.637 
	C 223.664 690.227 218.316 694.016 210.176 694.016 
	C 201.523 694.016 196.434 690.227 192.871 681.637 
	C 189.816 674.562 188.801 667.738 188.801 656.625 
	C 188.801 645.762 189.816 638.437 192.871 631.613 
	C 196.688 623.023 201.777 619.488 210.176 619.488 
	C 218.574 619.488 223.664 623.023 227.227 631.867 
	C 230.277 638.941 231.297 645.762 231.297 656.625 
	C 231.297 667.738 230.277 674.812 227.227 681.637 
	Z 
	"/>
</g>
<g fill="#ffffff" fill-rule="nonzero" stroke-width="0" stroke-linejoin="miter" stroke-linecap="butt" stroke-miterlimit="4" >
	<path d="
	M 158.586 630.855 
	L 147.996 630.855 
	L 147.996 649.047 
	L 158.586 649.047 
	C 164.637 649.047 167.914 645.762 167.914 639.949 
	C 167.914 634.395 164.133 630.855 158.586 630.855 
	Z 
	M 167.41 692.75 
	L 157.828 658.898 
	L 147.996 658.898 
	L 147.996 692.75 
	L 137.66 692.75 
	L 137.66 620.75 
	L 159.094 620.75 
	C 170.438 620.75 178 628.328 178 639.949 
	C 178 648.539 174.473 654.855 167.664 657.383 
	L 178 692.75 
	Z 
	"/>
</g>
<g fill="#ffffff" fill-rule="nonzero" stroke-width="0" stroke-linejoin="miter" stroke-linecap="butt" stroke-miterlimit="4" >
	<path d="
	M 262.598 659.5 
	C 259.484 657.48 256.461 655.457 254.527 654.098 
	C 248.723 650.012 245.648 644.496 245.648 638.184 
	C 245.648 627.824 253.77 619.488 264.168 619.488 
	C 274.316 619.488 282.18 627.32 282.434 638.184 
	L 272.539 638.184 
	C 272.285 633.129 268.734 629.848 264.168 629.848 
	C 259.348 629.848 255.543 633.383 255.543 638.184 
	C 255.543 641.719 257.063 643.738 262.395 646.773 
	C 276.348 654.855 282.434 662.687 282.434 673.047 
	C 282.434 684.668 273.555 694.016 262.395 694.016 
	C 249.707 694.016 242.098 683.402 242.098 671.531 
	L 252.242 671.531 
	C 252.242 677.594 255.289 683.91 262.395 683.91 
	C 267.973 683.91 272.539 678.855 272.539 673.047 
	C 272.539 668.535 270.676 664.734 262.598 659.5 
	Z 
	"/>
</g>
<g fill="#ffffff" fill-rule="nonzero" stroke-width="0" stroke-linejoin="miter" stroke-linecap="butt" stroke-miterlimit="4" >
	<path d="
	M 311.574 659.5 
	C 308.461 657.48 305.438 655.457 303.504 654.098 
	C 297.699 650.012 294.625 644.496 294.625 638.184 
	C 294.625 627.824 302.746 619.488 313.145 619.488 
	C 323.293 619.488 331.156 627.32 331.41 638.184 
	L 321.52 638.184 
	C 321.266 633.129 317.715 629.848 313.145 629.848 
	C 308.324 629.848 304.52 633.383 304.52 638.184 
	C 304.52 641.719 306.043 643.738 311.371 646.773 
	C 325.324 654.855 331.41 662.687 331.41 673.047 
	C 331.41 684.668 322.531 694.016 311.371 694.016 
	C 298.684 694.016 291.074 683.402 291.074 671.531 
	L 301.223 671.531 
	C 301.223 677.594 304.266 683.91 311.371 683.91 
	C 316.949 683.91 321.52 678.855 321.52 673.047 
	C 321.52 668.535 319.652 664.734 311.574 659.5 
	Z 
	"/>
</g>
<g fill="#ffffff" fill-rule="nonzero" stroke-width="0" stroke-linejoin="miter" stroke-linecap="butt" stroke-miterlimit="4" >
	<path d="
	M 605.922 694.016 
	C 594.25 694.016 586.133 685.68 585.625 673.805 
	L 595.773 673.805 
	C 596.281 679.613 600.34 683.906 605.922 683.906 
	C 611.758 683.906 616.07 679.359 616.07 673.301 
	C 616.07 665.719 611.758 659.402 606.684 659.402 
	L 601.609 659.402 
	L 601.609 649.551 
	L 605.922 649.551 
	C 608.457 649.551 609.473 648.793 611.25 646.77 
	C 613.277 644.496 614.293 641.719 614.293 638.687 
	C 614.293 633.129 610.996 629.594 605.922 629.594 
	C 601.355 629.594 598.563 632.371 598.059 637.172 
	L 587.91 635.906 
	C 588.926 626.309 596.281 619.488 605.922 619.488 
	C 616.324 619.488 624.188 627.57 624.188 637.93 
	C 624.188 643.992 622.41 648.793 617.594 654.352 
	C 623.172 659.402 625.965 665.973 625.965 673.301 
	C 625.965 685.172 617.594 694.016 605.922 694.016 
	Z 
	"/>
</g>
<g fill="#ffffff" fill-rule="nonzero" stroke-width="0" stroke-linejoin="miter" stroke-linecap="butt" stroke-miterlimit="4" >
	<path d="
	M 766.859 694.016 
	C 760.52 694.016 754.43 691.738 749.102 687.699 
	L 755.953 680.371 
	C 759.504 682.898 762.297 683.906 765.848 683.906 
	C 773.711 683.906 779.293 676.836 779.293 666.98 
	C 779.293 659.148 775.488 654.352 769.398 654.352 
	C 766.102 654.352 763.309 655.613 760.773 657.887 
	L 750.879 656.625 
	L 752.652 620.75 
	L 786.648 620.75 
	L 786.648 630.855 
	L 762.297 630.855 
	L 761.535 646.016 
	C 765.086 644.75 766.859 644.496 769.652 644.496 
	C 781.32 644.496 789.441 653.848 789.441 667.488 
	C 789.441 682.645 779.801 694.016 766.859 694.016 
	Z 
	"/>
</g>
<g fill="#ffffff" fill-rule="nonzero" stroke-width="0" stroke-linejoin="miter" stroke-linecap="butt" stroke-miterlimit="4" >
	<path d="
	M 656.809 657.887 
	C 650.719 657.887 646.66 663.191 646.66 670.016 
	C 646.66 678.098 650.719 683.906 656.809 683.906 
	C 662.895 683.906 666.953 678.605 666.953 671.023 
	C 666.953 663.445 662.895 657.887 656.809 657.887 
	Z 
	M 656.809 694.016 
	C 643.613 694.016 636.766 684.414 636.766 667.992 
	C 636.766 650.562 645.898 632.371 661.629 620.246 
	L 667.461 628.328 
	C 661.371 632.879 654.777 641.469 652.238 648.285 
	C 654.016 648.035 655.539 648.035 656.809 648.035 
	C 669.238 648.035 677.102 657.383 677.102 671.023 
	C 677.102 684.668 669.238 694.016 656.809 694.016 
	Z 
	"/>
</g>
<g fill="#ffffff" fill-rule="nonzero" stroke-width="0" stroke-linejoin="miter" stroke-linecap="butt" stroke-miterlimit="4" >
	<path d="
	M 869.762 658.898 
	C 865.957 670.016 864.434 679.613 863.926 692.754 
	L 853.777 692.754 
	L 853.777 691.234 
	C 853.777 683.91 855.555 672.035 858.094 662.437 
	C 861.137 650.812 864.941 642.227 872.047 630.855 
	L 844.898 630.855 
	L 844.898 620.75 
	L 885.238 620.75 
	L 885.238 630.855 
	C 878.895 638.184 873.82 647.277 869.762 658.898 
	Z 
	"/>
</g>
<g fill="#ffffff" fill-rule="nonzero" stroke-width="0" stroke-linejoin="miter" stroke-linecap="butt" stroke-miterlimit="4" >
	<path d="
	M 556.945 629.594 
	C 551.617 629.594 547.813 633.383 547.813 638.687 
	C 547.813 644.496 551.617 648.289 556.945 648.289 
	C 562.016 648.289 565.824 644.496 565.824 638.687 
	C 565.824 633.383 562.016 629.594 556.945 629.594 
	Z 
	M 556.945 658.645 
	C 550.855 658.645 546.797 663.699 546.797 671.531 
	C 546.797 678.855 550.855 683.91 556.945 683.91 
	C 563.031 683.91 567.09 678.855 567.09 671.531 
	C 567.09 663.699 563.031 658.645 556.945 658.645 
	Z 
	M 570.137 689.215 
	C 566.84 692.496 562.523 694.016 556.945 694.016 
	C 549.84 694.016 544.766 691.488 541.215 686.437 
	C 538.422 682.395 536.648 677.09 536.648 671.531 
	C 536.648 664.457 538.93 658.141 543.496 653.594 
	C 539.691 649.551 537.664 644.496 537.664 638.687 
	C 537.664 627.57 545.527 619.488 556.945 619.488 
	C 568.105 619.488 575.973 627.57 575.973 638.687 
	C 575.973 644.496 573.941 649.805 570.137 653.594 
	C 574.703 657.891 576.984 664.457 576.984 671.531 
	C 576.984 678.352 574.449 685.172 570.137 689.215 
	Z 
	"/>
</g>
<g fill="#ffffff" fill-rule="nonzero" stroke-width="0" stroke-linejoin="miter" stroke-linecap="butt" stroke-miterlimit="4" >
	<path d="
	M 818.379 629.594 
	C 812.035 629.594 808.23 634.395 808.23 641.973 
	C 808.23 649.805 812.035 654.605 818.379 654.605 
	C 824.465 654.605 828.523 650.059 828.523 642.98 
	C 828.523 634.898 824.465 629.594 818.379 629.594 
	Z 
	M 813.559 692.754 
	L 807.723 684.668 
	C 813.813 680.117 820.406 671.277 822.941 664.457 
	C 821.168 664.711 819.898 664.711 818.379 664.711 
	C 805.945 664.711 798.082 655.867 798.082 641.973 
	C 798.082 628.328 805.945 619.488 818.379 619.488 
	C 831.57 619.488 838.418 628.328 838.418 645.258 
	C 838.418 662.941 829.285 680.371 813.559 692.754 
	Z 
	"/>
</g>
<g fill="#ffffff" fill-rule="nonzero" stroke-width="0" stroke-linejoin="miter" stroke-linecap="butt" stroke-miterlimit="4" >
	<path d="
	M 176.164 314.75 
	L 176.164 242.75 
	L 210.113 242.75 
	L 210.113 252.855 
	L 186.551 252.855 
	L 186.551 271.043 
	L 201.5 271.043 
	L 201.5 280.895 
	L 186.551 280.895 
	L 186.551 304.645 
	L 212.902 304.645 
	L 212.902 314.75 
	Z 
	"/>
</g>
<g fill="#ffffff" fill-rule="nonzero" stroke-width="0" stroke-linejoin="miter" stroke-linecap="butt" stroke-miterlimit="4" >
	<path d="
	M 308.723 260.687 
	C 306.941 254.371 304.141 251.59 299.816 251.59 
	C 295.234 251.59 292.438 254.371 290.656 260.434 
	C 288.871 265.992 288.363 270.793 288.363 278.875 
	C 288.363 286.707 289.129 291.254 290.656 297.066 
	C 292.438 303.129 295.234 305.906 299.816 305.906 
	C 304.141 305.906 306.941 303.129 308.723 297.066 
	C 310.504 291.254 311.012 286.961 311.012 278.621 
	C 311.012 270.539 310.25 265.992 308.723 260.687 
	Z 
	M 316.867 303.633 
	C 313.305 312.223 307.961 316.012 299.816 316.012 
	C 291.164 316.012 286.074 312.223 282.512 303.633 
	C 279.457 296.559 278.438 289.738 278.438 278.621 
	C 278.438 267.762 279.457 260.434 282.512 253.613 
	C 286.328 245.023 291.418 241.484 299.816 241.484 
	C 308.215 241.484 313.305 245.023 316.867 253.863 
	C 319.922 260.937 320.938 267.762 320.938 278.621 
	C 320.938 289.738 319.922 296.812 316.867 303.633 
	Z 
	"/>
</g>
<g fill="#ffffff" fill-rule="nonzero" stroke-width="0" stroke-linejoin="miter" stroke-linecap="butt" stroke-miterlimit="4" >
	<path d="
	M 246.066 252.855 
	L 235.48 252.855 
	L 235.48 273.316 
	L 246.066 273.316 
	C 252.117 273.316 255.395 269.527 255.395 262.961 
	C 255.395 256.895 251.613 252.855 246.066 252.855 
	Z 
	M 246.57 283.172 
	L 235.48 283.172 
	L 235.48 314.75 
	L 225.141 314.75 
	L 225.141 242.75 
	L 246.57 242.75 
	C 257.918 242.75 265.48 250.832 265.48 262.961 
	C 265.48 276.098 258.672 283.172 246.57 283.172 
	Z 
	"/>
</g>
<g fill="#ffffff" fill-rule="nonzero" stroke-width="0" stroke-linejoin="miter" stroke-linecap="butt" stroke-miterlimit="4" >
	<path d="
	M 144.512 252.855 
	L 133.922 252.855 
	L 133.922 271.043 
	L 144.512 271.043 
	C 150.563 271.043 153.84 267.762 153.84 261.949 
	C 153.84 256.391 150.059 252.855 144.512 252.855 
	Z 
	M 153.336 314.75 
	L 143.754 280.895 
	L 133.922 280.895 
	L 133.922 314.75 
	L 123.586 314.75 
	L 123.586 242.75 
	L 145.016 242.75 
	C 156.359 242.75 163.926 250.328 163.926 261.949 
	C 163.926 270.539 160.395 276.855 153.59 279.383 
	L 163.926 314.75 
	Z 
	"/>
</g>
<g fill="#ffffff" fill-rule="nonzero" stroke-width="0" stroke-linejoin="miter" stroke-linecap="butt" stroke-miterlimit="4" >
	<path d="
	M 356.262 252.855 
	L 345.676 252.855 
	L 345.676 271.043 
	L 356.262 271.043 
	C 362.313 271.043 365.59 267.762 365.59 261.949 
	C 365.59 256.391 361.809 252.855 356.262 252.855 
	Z 
	M 365.086 314.75 
	L 355.508 280.895 
	L 345.676 280.895 
	L 345.676 314.75 
	L 335.336 314.75 
	L 335.336 242.75 
	L 356.766 242.75 
	C 368.113 242.75 375.676 250.328 375.676 261.949 
	C 375.676 270.539 372.145 276.855 365.34 279.383 
	L 375.676 314.75 
	Z 
	"/>
</g>
<g fill="#ffffff" fill-rule="nonzero" stroke-width="0" stroke-linejoin="miter" stroke-linecap="butt" stroke-miterlimit="4" >
	<path d="
	M 405.719 252.352 
	L 405.719 314.75 
	L 395.328 314.75 
	L 395.328 252.352 
	L 382.156 252.352 
	L 382.156 242.75 
	L 418.895 242.75 
	L 418.895 252.352 
	Z 
	"/>
</g>
<g fill="#ffffff" fill-rule="nonzero" stroke-width="0" stroke-linejoin="miter" stroke-linecap="butt" stroke-miterlimit="4" >
	<path d="
	M 891.773 261.949 
	C 890.762 254.875 887.973 251.59 883.148 251.59 
	C 874.777 251.59 871.734 258.16 871.734 276.855 
	C 871.734 297.57 875.285 305.906 884.164 305.906 
	C 890.254 305.906 891.773 300.855 891.773 295.551 
	L 902.18 295.551 
	C 901.926 307.422 894.313 316.012 884.164 316.012 
	C 868.688 316.012 861.84 303.633 861.84 277.105 
	C 861.84 253.863 869.195 241.484 883.402 241.484 
	C 889.238 241.484 894.313 244.012 897.609 248.812 
	C 900.398 252.348 901.418 255.379 902.18 261.949 
	Z 
	"/>
</g>
<g fill="#ffffff" fill-rule="nonzero" stroke-width="0" stroke-linejoin="miter" stroke-linecap="butt" stroke-miterlimit="4" >
	<path d="
	M 490.895 314.75 
	L 490.895 242.75 
	L 524.844 242.75 
	L 524.844 252.855 
	L 501.277 252.855 
	L 501.277 271.043 
	L 516.23 271.043 
	L 516.23 280.895 
	L 501.277 280.895 
	L 501.277 304.645 
	L 527.633 304.645 
	L 527.633 314.75 
	Z 
	"/>
</g>
<g fill="#ffffff" fill-rule="nonzero" stroke-width="0" stroke-linejoin="miter" stroke-linecap="butt" stroke-miterlimit="4" >
	<path d="
	M 603.27 314.75 
	L 603.27 242.75 
	L 637.219 242.75 
	L 637.219 252.855 
	L 613.652 252.855 
	L 613.652 271.043 
	L 628.605 271.043 
	L 628.605 280.895 
	L 613.652 280.895 
	L 613.652 304.645 
	L 640.008 304.645 
	L 640.008 314.75 
	Z 
	"/>
</g>
<g fill="#ffffff" fill-rule="nonzero" stroke-width="0" stroke-linejoin="miter" stroke-linecap="butt" stroke-miterlimit="4" >
	<path d="
	M 758.121 314.75 
	L 758.121 242.75 
	L 792.074 242.75 
	L 792.074 252.855 
	L 768.508 252.855 
	L 768.508 271.043 
	L 783.457 271.043 
	L 783.457 280.895 
	L 768.508 280.895 
	L 768.508 304.645 
	L 794.859 304.645 
	L 794.859 314.75 
	Z 
	"/>
</g>
<g fill="#ffffff" fill-rule="nonzero" stroke-width="0" stroke-linejoin="miter" stroke-linecap="butt" stroke-miterlimit="4" >
	<path d="
	M 741.691 305.906 
	C 738.902 312.223 733.066 316.012 725.711 316.012 
	C 717.086 316.012 710.742 311.719 707.188 303.633 
	C 704.906 298.328 703.383 288.223 703.383 278.875 
	C 703.383 268.77 704.145 261.441 706.684 254.621 
	C 709.219 247.043 716.574 241.484 724.949 241.484 
	C 735.352 241.484 743.215 249.062 743.723 259.676 
	L 733.32 259.676 
	C 733.066 254.875 729.77 251.59 724.695 251.59 
	C 721.145 251.59 718.352 253.359 716.574 256.895 
	C 714.547 260.434 713.277 268.516 713.277 277.105 
	C 713.277 283.172 713.785 289.484 714.801 295.043 
	C 716.32 302.117 719.875 305.906 725.457 305.906 
	C 730.781 305.906 733.32 302.371 733.32 294.793 
	L 733.32 289.992 
	L 725.203 289.992 
	L 725.203 279.887 
	L 743.723 279.887 
	L 743.723 294.793 
	C 743.723 299.844 743.215 302.875 741.691 305.906 
	Z 
	"/>
</g>
<g fill="#ffffff" fill-rule="nonzero" stroke-width="0" stroke-linejoin="miter" stroke-linecap="butt" stroke-miterlimit="4" >
	<path d="
	M 577.059 314.75 
	L 577.059 274.328 
	L 563.648 314.75 
	L 550.242 274.328 
	L 550.242 314.75 
	L 539.871 314.75 
	L 539.871 242.75 
	L 550.242 242.75 
	L 563.648 283.172 
	L 577.059 242.75 
	L 587.43 242.75 
	L 587.43 314.75 
	Z 
	"/>
</g>
<g fill="#ffffff" fill-rule="nonzero" stroke-width="0" stroke-linejoin="miter" stroke-linecap="butt" stroke-miterlimit="4" >
	<path d="
	M 839.625 314.75 
	L 817.438 266.496 
	L 817.438 314.75 
	L 807.102 314.75 
	L 807.102 242.75 
	L 817.438 242.75 
	L 837.102 285.949 
	L 837.102 242.75 
	L 847.438 242.75 
	L 847.438 314.75 
	Z 
	"/>
</g>
<g fill="#ffffff" fill-rule="nonzero" stroke-width="0" stroke-linejoin="miter" stroke-linecap="butt" stroke-miterlimit="4" >
	<path d="
	M 673.172 252.855 
	L 662.582 252.855 
	L 662.582 271.043 
	L 673.172 271.043 
	C 679.223 271.043 682.5 267.758 682.5 261.949 
	C 682.5 256.391 678.719 252.855 673.172 252.855 
	Z 
	M 681.992 314.75 
	L 672.414 280.895 
	L 662.582 280.895 
	L 662.582 314.75 
	L 652.246 314.75 
	L 652.246 242.75 
	L 673.676 242.75 
	C 685.02 242.75 692.586 250.328 692.586 261.949 
	C 692.586 270.539 689.055 276.855 682.246 279.379 
	L 692.586 314.75 
	Z 
	"/>
</g>
<g fill="#ffffff" fill-rule="nonzero" stroke-width="0" stroke-linejoin="miter" stroke-linecap="butt" stroke-miterlimit="4" >
	<path d="
	M 938.934 282.16 
	L 938.934 314.75 
	L 928.547 314.75 
	L 928.547 282.16 
	L 910.816 242.75 
	L 921.707 242.75 
	L 933.867 268.77 
	L 945.77 242.75 
	L 956.914 242.75 
	Z 
	"/>
</g>
</g >
</g>
</svg>
