<?xml version="1.0" standalone="no"?>
<svg width="864px" height="648px" viewBox="0 144 864 648 " xmlns="http://www.w3.org/2000/svg" xmlns:xlink="http://www.w3.org/1999/xlink">
<title>generated by pstoedit</title>
<!-- generated by pstoedit version:4.02 -->
<g xml:space='preserve'>
<clipPath id="clippath1"> 	<path d="
	M 0 143.5 
	L 0 792 
	L 864.5 792 
	L 864.5 143.5 
	Z 
	" style="clip-rule:nonzero"/>
</clipPath>
<g style="clip-path:url(#clippath1)"> 
<g fill="#ffffff" fill-rule="nonzero" stroke-width="0" stroke-linejoin="miter" stroke-linecap="butt" stroke-miterlimit="10" >
	<path d="
	M 864.25 719.75 
	C 864.25 759.516 832.016 791.75 792.25 791.75 
	L 72.25 791.75 
	C 32.4844 791.75 0.25 759.516 0.25 719.75 
	L 0.25 215.75 
	C 0.25 175.984 32.4844 143.75 72.25 143.75 
	L 792.25 143.75 
	C 832.016 143.75 864.25 175.984 864.25 215.75 
	Z 
	"/>
</g>
<g stroke="#7f7f7f" fill="none" stroke-width="0.5" stroke-linejoin="miter" stroke-linecap="butt" stroke-miterlimit="4" >
	<path d="
	M 864.25 719.75 
	C 864.25 759.516 832.016 791.75 792.25 791.75 
	L 72.25 791.75 
	C 32.4844 791.75 0.25 759.516 0.25 719.75 
	L 0.25 215.75 
	C 0.25 175.984 32.4844 143.75 72.25 143.75 
	L 792.25 143.75 
	C 832.016 143.75 864.25 175.984 864.25 215.75 
	Z 
	"/>
</g>
<g fill="#e8ad7f" fill-rule="nonzero" stroke-width="0" stroke-linejoin="miter" stroke-linecap="butt" stroke-miterlimit="4" >
	<path d="
	M 72.25 764.75 
	C 47.4375 764.75 27.25 744.562 27.25 719.75 
	L 27.25 215.75 
	C 27.25 190.937 47.4375 170.75 72.25 170.75 
	L 792.25 170.75 
	C 817.063 170.75 837.25 190.937 837.25 215.75 
	L 837.25 719.75 
	C 837.25 744.562 817.063 764.75 792.25 764.75 
	Z 
	"/>
</g>
<g fill="#ffffff" fill-rule="nonzero" stroke-width="0" stroke-linejoin="miter" stroke-linecap="butt" stroke-miterlimit="4" >
	<path d="
	M 611 255.16 
	L 600.66 255.16 
	L 600.66 277.645 
	L 611 277.645 
	C 616.797 277.645 620.578 273.602 620.578 267.285 
	C 620.578 260.465 616.293 255.16 611 255.16 
	Z 
	M 611.504 225.855 
	L 600.66 225.855 
	L 600.66 245.055 
	L 611.504 245.055 
	C 616.293 245.055 619.316 241.012 619.316 234.445 
	C 619.316 228.383 617.051 225.855 611.504 225.855 
	Z 
	M 611.504 287.75 
	L 590.324 287.75 
	L 590.324 215.75 
	L 613.016 215.75 
	C 622.598 215.75 629.402 223.328 629.402 234.445 
	C 629.402 241.012 627.641 244.043 621.84 250.105 
	C 627.387 254.656 630.664 260.719 630.664 268.043 
	C 630.664 278.906 622.094 287.75 611.504 287.75 
	Z 
	"/>
</g>
<g fill="#ffffff" fill-rule="nonzero" stroke-width="0" stroke-linejoin="miter" stroke-linecap="butt" stroke-miterlimit="4" >
	<path d="
	M 689.723 287.75 
	L 689.723 215.75 
	L 723.676 215.75 
	L 723.676 225.855 
	L 700.109 225.855 
	L 700.109 244.043 
	L 715.059 244.043 
	L 715.059 253.898 
	L 700.109 253.898 
	L 700.109 277.645 
	L 726.461 277.645 
	L 726.461 287.75 
	Z 
	"/>
</g>
<g fill="#ffffff" fill-rule="nonzero" stroke-width="0" stroke-linejoin="miter" stroke-linecap="butt" stroke-miterlimit="4" >
	<path d="
	M 642.902 287.75 
	L 642.902 215.75 
	L 653.293 215.75 
	L 653.293 278.148 
	L 679.645 278.148 
	L 679.645 287.75 
	Z 
	"/>
</g>
<g fill="#ffffff" fill-rule="nonzero" stroke-width="0" stroke-linejoin="miter" stroke-linecap="butt" stroke-miterlimit="4" >
	<path d="
	M 775.887 287.75 
	L 775.887 247.328 
	L 762.48 287.75 
	L 749.07 247.328 
	L 749.07 287.75 
	L 738.699 287.75 
	L 738.699 215.75 
	L 749.07 215.75 
	L 762.48 256.172 
	L 775.887 215.75 
	L 786.258 215.75 
	L 786.258 287.75 
	Z 
	"/>
</g>
<g fill="#ffffff" fill-rule="nonzero" stroke-width="0" stroke-linejoin="miter" stroke-linecap="butt" stroke-miterlimit="4" >
	<path d="
	M 563.711 233.687 
	C 561.93 227.371 559.133 224.594 554.805 224.594 
	C 550.227 224.594 547.426 227.371 545.645 233.434 
	C 543.859 238.992 543.355 243.793 543.355 251.875 
	C 543.355 259.707 544.117 264.254 545.645 270.066 
	C 547.426 276.129 550.227 278.906 554.805 278.906 
	C 559.133 278.906 561.93 276.129 563.711 270.066 
	C 565.492 264.254 566.004 259.961 566.004 251.625 
	C 566.004 243.539 565.238 238.992 563.711 233.687 
	Z 
	M 571.855 276.633 
	C 568.293 285.223 562.945 289.012 554.805 289.012 
	C 546.152 289.012 541.063 285.223 537.5 276.633 
	C 534.445 269.562 533.43 262.738 533.43 251.625 
	C 533.43 240.762 534.445 233.434 537.5 226.613 
	C 541.316 218.023 546.406 214.488 554.805 214.488 
	C 563.203 214.488 568.293 218.023 571.855 226.867 
	C 574.906 233.941 575.926 240.762 575.926 251.625 
	C 575.926 262.738 574.906 269.812 571.855 276.633 
	Z 
	"/>
</g>
<g fill="#ffffff" fill-rule="nonzero" stroke-width="0" stroke-linejoin="miter" stroke-linecap="butt" stroke-miterlimit="4" >
	<path d="
	M 448.477 225.855 
	L 437.891 225.855 
	L 437.891 246.316 
	L 448.477 246.316 
	C 454.527 246.316 457.805 242.527 457.805 235.961 
	C 457.805 229.898 454.023 225.855 448.477 225.855 
	Z 
	M 448.98 256.172 
	L 437.891 256.172 
	L 437.891 287.75 
	L 427.555 287.75 
	L 427.555 215.75 
	L 448.98 215.75 
	C 460.324 215.75 467.891 223.836 467.891 235.961 
	C 467.891 249.098 461.082 256.172 448.98 256.172 
	Z 
	"/>
</g>
<g fill="#ffffff" fill-rule="nonzero" stroke-width="0" stroke-linejoin="miter" stroke-linecap="butt" stroke-miterlimit="4" >
	<path d="
	M 503.219 225.855 
	L 492.629 225.855 
	L 492.629 244.047 
	L 503.219 244.047 
	C 509.27 244.047 512.547 240.762 512.547 234.949 
	C 512.547 229.395 508.766 225.855 503.219 225.855 
	Z 
	M 512.043 287.75 
	L 502.461 253.898 
	L 492.629 253.898 
	L 492.629 287.75 
	L 482.289 287.75 
	L 482.289 215.75 
	L 503.723 215.75 
	C 515.066 215.75 522.629 223.328 522.629 234.949 
	C 522.629 243.539 519.102 249.855 512.293 252.383 
	L 522.629 287.75 
	Z 
	"/>
</g>
<g fill="#ffffff" fill-rule="nonzero" stroke-width="0" stroke-linejoin="miter" stroke-linecap="butt" stroke-miterlimit="4" >
	<path d="
	M 130.82 287.75 
	L 130.82 215.75 
	L 164.77 215.75 
	L 164.77 225.855 
	L 141.207 225.855 
	L 141.207 244.043 
	L 156.156 244.043 
	L 156.156 253.898 
	L 141.207 253.898 
	L 141.207 277.645 
	L 167.559 277.645 
	L 167.559 287.75 
	Z 
	"/>
</g>
<g fill="#ffffff" fill-rule="nonzero" stroke-width="0" stroke-linejoin="miter" stroke-linecap="butt" stroke-miterlimit="4" >
	<path d="
	M 263.379 233.687 
	C 261.598 227.371 258.801 224.594 254.473 224.594 
	C 249.895 224.594 247.094 227.371 245.313 233.434 
	C 243.531 238.992 243.02 243.793 243.02 251.875 
	C 243.02 259.707 243.785 264.254 245.313 270.066 
	C 247.094 276.129 249.895 278.906 254.473 278.906 
	C 258.801 278.906 261.598 276.129 263.379 270.066 
	C 265.16 264.254 265.672 259.961 265.672 251.625 
	C 265.672 243.539 264.906 238.992 263.379 233.687 
	Z 
	M 271.523 276.633 
	C 267.961 285.223 262.617 289.012 254.473 289.012 
	C 245.82 289.012 240.73 285.223 237.168 276.633 
	C 234.113 269.562 233.098 262.738 233.098 251.625 
	C 233.098 240.762 234.113 233.434 237.168 226.613 
	C 240.984 218.023 246.074 214.488 254.473 214.488 
	C 262.871 214.488 267.961 218.023 271.523 226.867 
	C 274.578 233.941 275.598 240.762 275.598 251.625 
	C 275.598 262.738 274.578 269.812 271.523 276.633 
	Z 
	"/>
</g>
<g fill="#ffffff" fill-rule="nonzero" stroke-width="0" stroke-linejoin="miter" stroke-linecap="butt" stroke-miterlimit="4" >
	<path d="
	M 200.723 225.855 
	L 190.137 225.855 
	L 190.137 246.316 
	L 200.723 246.316 
	C 206.773 246.316 210.051 242.527 210.051 235.961 
	C 210.051 229.898 206.27 225.855 200.723 225.855 
	Z 
	M 201.23 256.172 
	L 190.137 256.172 
	L 190.137 287.75 
	L 179.801 287.75 
	L 179.801 215.75 
	L 201.23 215.75 
	C 212.57 215.75 220.137 223.836 220.137 235.961 
	C 220.137 249.098 213.328 256.172 201.23 256.172 
	Z 
	"/>
</g>
<g fill="#ffffff" fill-rule="nonzero" stroke-width="0" stroke-linejoin="miter" stroke-linecap="butt" stroke-miterlimit="4" >
	<path d="
	M 99.168 225.855 
	L 88.5781 225.855 
	L 88.5781 244.047 
	L 99.168 244.047 
	C 105.219 244.047 108.496 240.762 108.496 234.949 
	C 108.496 229.395 104.715 225.855 99.168 225.855 
	Z 
	M 107.992 287.75 
	L 98.4102 253.898 
	L 88.5781 253.898 
	L 88.5781 287.75 
	L 78.2422 287.75 
	L 78.2422 215.75 
	L 99.6719 215.75 
	C 111.02 215.75 118.578 223.328 118.578 234.949 
	C 118.578 243.539 115.051 249.855 108.242 252.383 
	L 118.578 287.75 
	Z 
	"/>
</g>
<g fill="#ffffff" fill-rule="nonzero" stroke-width="0" stroke-linejoin="miter" stroke-linecap="butt" stroke-miterlimit="4" >
	<path d="
	M 310.922 225.855 
	L 300.332 225.855 
	L 300.332 244.047 
	L 310.922 244.047 
	C 316.973 244.047 320.25 240.762 320.25 234.949 
	C 320.25 229.395 316.469 225.855 310.922 225.855 
	Z 
	M 319.742 287.75 
	L 310.164 253.898 
	L 300.332 253.898 
	L 300.332 287.75 
	L 289.996 287.75 
	L 289.996 215.75 
	L 311.426 215.75 
	C 322.77 215.75 330.336 223.328 330.336 234.949 
	C 330.336 243.539 326.805 249.855 319.996 252.383 
	L 330.336 287.75 
	Z 
	"/>
</g>
<g fill="#ffffff" fill-rule="nonzero" stroke-width="0" stroke-linejoin="miter" stroke-linecap="butt" stroke-miterlimit="4" >
	<path d="
	M 360.379 225.352 
	L 360.379 287.75 
	L 349.988 287.75 
	L 349.988 225.352 
	L 336.813 225.352 
	L 336.813 215.75 
	L 373.555 215.75 
	L 373.555 225.352 
	Z 
	"/>
</g>
<g fill="#ffffff" fill-rule="nonzero" stroke-width="0" stroke-linejoin="miter" stroke-linecap="butt" stroke-miterlimit="4" >
	<path d="
	M 684.738 360.949 
	C 683.727 353.875 680.938 350.594 676.113 350.594 
	C 667.742 350.594 664.699 357.16 664.699 375.855 
	C 664.699 396.57 668.25 404.906 677.129 404.906 
	C 683.219 404.906 684.738 399.855 684.738 394.551 
	L 695.145 394.551 
	C 694.891 406.422 687.277 415.012 677.129 415.012 
	C 661.652 415.012 654.805 402.633 654.805 376.105 
	C 654.805 352.863 662.16 340.484 676.367 340.484 
	C 682.203 340.484 687.277 343.012 690.574 347.812 
	C 693.363 351.352 694.383 354.383 695.145 360.949 
	Z 
	"/>
</g>
<g fill="#ffffff" fill-rule="nonzero" stroke-width="0" stroke-linejoin="miter" stroke-linecap="butt" stroke-miterlimit="4" >
	<path d="
	M 283.855 413.75 
	L 283.855 341.75 
	L 317.809 341.75 
	L 317.809 351.855 
	L 294.242 351.855 
	L 294.242 370.043 
	L 309.191 370.043 
	L 309.191 379.898 
	L 294.242 379.898 
	L 294.242 403.645 
	L 320.598 403.645 
	L 320.598 413.75 
	Z 
	"/>
</g>
<g fill="#ffffff" fill-rule="nonzero" stroke-width="0" stroke-linejoin="miter" stroke-linecap="butt" stroke-miterlimit="4" >
	<path d="
	M 396.23 413.75 
	L 396.23 341.75 
	L 430.184 341.75 
	L 430.184 351.855 
	L 406.617 351.855 
	L 406.617 370.043 
	L 421.566 370.043 
	L 421.566 379.898 
	L 406.617 379.898 
	L 406.617 403.645 
	L 432.973 403.645 
	L 432.973 413.75 
	Z 
	"/>
</g>
<g fill="#ffffff" fill-rule="nonzero" stroke-width="0" stroke-linejoin="miter" stroke-linecap="butt" stroke-miterlimit="4" >
	<path d="
	M 551.086 413.75 
	L 551.086 341.75 
	L 585.039 341.75 
	L 585.039 351.855 
	L 561.473 351.855 
	L 561.473 370.043 
	L 576.422 370.043 
	L 576.422 379.898 
	L 561.473 379.898 
	L 561.473 403.645 
	L 587.824 403.645 
	L 587.824 413.75 
	Z 
	"/>
</g>
<g fill="#ffffff" fill-rule="nonzero" stroke-width="0" stroke-linejoin="miter" stroke-linecap="butt" stroke-miterlimit="4" >
	<path d="
	M 534.656 404.906 
	C 531.867 411.223 526.031 415.012 518.676 415.012 
	C 510.051 415.012 503.707 410.719 500.152 402.633 
	C 497.871 397.328 496.348 387.223 496.348 377.875 
	C 496.348 367.77 497.109 360.445 499.648 353.621 
	C 502.184 346.043 509.539 340.484 517.914 340.484 
	C 528.313 340.484 536.18 348.066 536.688 358.676 
	L 526.285 358.676 
	C 526.031 353.875 522.734 350.594 517.66 350.594 
	C 514.105 350.594 511.316 352.359 509.539 355.898 
	C 507.512 359.434 506.242 367.52 506.242 376.105 
	C 506.242 382.172 506.75 388.484 507.766 394.043 
	C 509.285 401.117 512.84 404.906 518.422 404.906 
	C 523.746 404.906 526.285 401.371 526.285 393.793 
	L 526.285 388.992 
	L 518.168 388.992 
	L 518.168 378.887 
	L 536.688 378.887 
	L 536.688 393.793 
	C 536.688 398.844 536.18 401.875 534.656 404.906 
	Z 
	"/>
</g>
<g fill="#ffffff" fill-rule="nonzero" stroke-width="0" stroke-linejoin="miter" stroke-linecap="butt" stroke-miterlimit="4" >
	<path d="
	M 370.02 413.75 
	L 370.02 373.328 
	L 356.613 413.75 
	L 343.207 373.328 
	L 343.207 413.75 
	L 332.836 413.75 
	L 332.836 341.75 
	L 343.207 341.75 
	L 356.613 382.172 
	L 370.02 341.75 
	L 380.395 341.75 
	L 380.395 413.75 
	Z 
	"/>
</g>
<g fill="#ffffff" fill-rule="nonzero" stroke-width="0" stroke-linejoin="miter" stroke-linecap="butt" stroke-miterlimit="4" >
	<path d="
	M 632.59 413.75 
	L 610.402 365.496 
	L 610.402 413.75 
	L 600.066 413.75 
	L 600.066 341.75 
	L 610.402 341.75 
	L 630.066 384.949 
	L 630.066 341.75 
	L 640.402 341.75 
	L 640.402 413.75 
	Z 
	"/>
</g>
<g fill="#ffffff" fill-rule="nonzero" stroke-width="0" stroke-linejoin="miter" stroke-linecap="butt" stroke-miterlimit="4" >
	<path d="
	M 466.137 351.855 
	L 455.547 351.855 
	L 455.547 370.043 
	L 466.137 370.043 
	C 472.188 370.043 475.465 366.762 475.465 360.949 
	C 475.465 355.391 471.684 351.855 466.137 351.855 
	Z 
	M 474.961 413.75 
	L 465.379 379.898 
	L 455.547 379.898 
	L 455.547 413.75 
	L 445.211 413.75 
	L 445.211 341.75 
	L 466.641 341.75 
	C 477.984 341.75 485.551 349.328 485.551 360.949 
	C 485.551 369.539 482.02 375.855 475.211 378.383 
	L 485.551 413.75 
	Z 
	"/>
</g>
<g fill="#ffffff" fill-rule="nonzero" stroke-width="0" stroke-linejoin="miter" stroke-linecap="butt" stroke-miterlimit="4" >
	<path d="
	M 144.902 359.687 
	C 143.121 353.371 140.324 350.594 135.996 350.594 
	C 131.418 350.594 128.617 353.371 126.836 359.434 
	C 125.055 364.992 124.547 369.793 124.547 377.875 
	C 124.547 385.707 125.309 390.254 126.836 396.066 
	C 128.617 402.129 131.418 404.906 135.996 404.906 
	C 140.324 404.906 143.121 402.129 144.902 396.066 
	C 146.688 390.254 147.195 385.961 147.195 377.625 
	C 147.195 369.539 146.434 364.992 144.902 359.687 
	Z 
	M 153.047 402.633 
	C 149.484 411.223 144.141 415.012 135.996 415.012 
	C 127.348 415.012 122.258 411.223 118.691 402.633 
	C 115.641 395.562 114.621 388.738 114.621 377.625 
	C 114.621 366.762 115.641 359.434 118.691 352.613 
	C 122.512 344.023 127.602 340.488 135.996 340.488 
	C 144.395 340.488 149.484 344.023 153.047 352.867 
	C 156.102 359.937 157.117 366.762 157.117 377.625 
	C 157.117 388.738 156.102 395.812 153.047 402.633 
	Z 
	"/>
</g>
<g fill="#ffffff" fill-rule="nonzero" stroke-width="0" stroke-linejoin="miter" stroke-linecap="butt" stroke-miterlimit="4" >
	<path d="
	M 192.445 351.855 
	L 181.855 351.855 
	L 181.855 370.043 
	L 192.445 370.043 
	C 198.496 370.043 201.773 366.762 201.773 360.949 
	C 201.773 355.391 197.992 351.855 192.445 351.855 
	Z 
	M 201.27 413.75 
	L 191.688 379.898 
	L 181.855 379.898 
	L 181.855 413.75 
	L 171.52 413.75 
	L 171.52 341.75 
	L 192.949 341.75 
	C 204.293 341.75 211.855 349.328 211.855 360.949 
	C 211.855 369.539 208.328 375.855 201.52 378.383 
	L 211.855 413.75 
	Z 
	"/>
</g>
<g fill="#ffffff" fill-rule="nonzero" stroke-width="0" stroke-linejoin="miter" stroke-linecap="butt" stroke-miterlimit="4" >
	<path d="
	M 731.895 381.16 
	L 731.895 413.75 
	L 721.512 413.75 
	L 721.512 381.16 
	L 703.781 341.75 
	L 714.672 341.75 
	L 726.832 367.77 
	L 738.734 341.75 
	L 749.879 341.75 
	Z 
	"/>
</g>
<g fill="#ffffff" fill-rule="nonzero" stroke-width="0" stroke-linejoin="miter" stroke-linecap="butt" stroke-miterlimit="4" >
	<path d="
	M 251.715 656.906 
	C 248.922 663.223 243.09 667.012 235.73 667.012 
	C 227.105 667.012 220.762 662.719 217.211 654.633 
	C 214.93 649.328 213.406 639.223 213.406 629.875 
	C 213.406 619.77 214.168 612.445 216.703 605.621 
	C 219.238 598.043 226.598 592.484 234.969 592.484 
	C 245.371 592.484 253.234 600.066 253.742 610.676 
	L 243.344 610.676 
	C 243.09 605.875 239.789 602.59 234.715 602.59 
	C 231.164 602.59 228.375 604.359 226.598 607.898 
	C 224.566 611.434 223.301 619.52 223.301 628.105 
	C 223.301 634.172 223.809 640.484 224.82 646.043 
	C 226.344 653.117 229.895 656.906 235.477 656.906 
	C 240.805 656.906 243.344 653.371 243.344 645.793 
	L 243.344 640.992 
	L 235.223 640.992 
	L 235.223 630.887 
	L 253.742 630.887 
	L 253.742 645.793 
	C 253.742 650.844 253.234 653.875 251.715 656.906 
	Z 
	"/>
</g>
<g fill="#ffffff" fill-rule="nonzero" stroke-width="0" stroke-linejoin="miter" stroke-linecap="butt" stroke-miterlimit="4" >
	<path d="
	M 132.746 665.75 
	L 132.746 593.75 
	L 142.828 593.75 
	L 142.828 665.75 
	Z 
	"/>
</g>
<g fill="#ffffff" fill-rule="nonzero" stroke-width="0" stroke-linejoin="miter" stroke-linecap="butt" stroke-miterlimit="4" >
	<path d="
	M 191.191 665.75 
	L 169.008 617.496 
	L 169.008 665.75 
	L 158.668 665.75 
	L 158.668 593.75 
	L 169.008 593.75 
	L 188.672 636.949 
	L 188.672 593.75 
	L 199.008 593.75 
	L 199.008 665.75 
	Z 
	"/>
</g>
<g fill="#ffffff" fill-rule="nonzero" stroke-width="0" stroke-linejoin="miter" stroke-linecap="butt" stroke-miterlimit="4" >
	<path d="
	M 76.5508 665.75 
	L 66.3711 641.246 
	L 56.1953 665.75 
	L 45.25 665.75 
	L 61.0273 628.359 
	L 46.2695 593.75 
	L 57.2109 593.75 
	L 66.3711 615.477 
	L 75.5352 593.75 
	L 86.4766 593.75 
	L 71.9727 628.359 
	L 87.7461 665.75 
	Z 
	"/>
</g>
<g fill="#ffffff" fill-rule="nonzero" stroke-width="0" stroke-linejoin="miter" stroke-linecap="butt" stroke-miterlimit="4" >
	<path d="
	M 87.7461 636.191 
	L 87.7461 626.59 
	L 123.746 626.59 
	L 123.746 636.191 
	Z 
	"/>
</g>
<g fill="#ffffff" fill-rule="nonzero" stroke-width="0" stroke-linejoin="miter" stroke-linecap="butt" stroke-miterlimit="4" >
	<path d="
	M 51.1367 539.75 
	L 51.1367 481.391 
	L 44.6367 481.391 
	L 44.6367 472.297 
	L 45.3867 472.297 
	C 48.3867 472.297 51.6367 470.527 53.6367 467.75 
	L 62.6367 467.75 
	L 62.6367 539.75 
	Z 
	"/>
</g>
<g fill="#ffffff" fill-rule="nonzero" stroke-width="0" stroke-linejoin="miter" stroke-linecap="butt" stroke-miterlimit="4" >
	<path d="
	M 368.449 541.012 
	C 362.133 541.012 355.816 539.496 350.766 536.973 
	L 356.32 526.867 
	C 359.355 528.383 364.66 529.391 369.965 529.391 
	C 380.324 529.391 388.406 522.57 388.406 513.223 
	C 388.406 506.148 382.598 500.594 375.523 500.594 
	C 370.469 500.594 368.195 502.109 363.902 508.172 
	L 352.531 504.887 
	L 354.301 467.75 
	L 395.734 467.75 
	L 395.734 479.117 
	L 365.418 479.117 
	L 364.66 490.992 
	C 369.965 489.477 372.238 488.973 375.773 488.973 
	C 388.914 488.973 399.777 500.086 399.777 513.223 
	C 399.777 529.141 386.641 541.012 368.449 541.012 
	Z 
	"/>
</g>
<g fill="#ffffff" fill-rule="nonzero" stroke-width="0" stroke-linejoin="miter" stroke-linecap="butt" stroke-miterlimit="4" >
	<path d="
	M 431.863 541.012 
	C 425.547 541.012 419.23 539.496 414.176 536.973 
	L 419.734 526.867 
	C 422.766 528.383 428.074 529.391 433.379 529.391 
	C 443.734 529.391 451.82 522.57 451.82 513.223 
	C 451.82 506.148 446.012 500.594 438.938 500.594 
	C 433.883 500.594 431.609 502.109 427.316 508.172 
	L 415.945 504.887 
	L 417.715 467.75 
	L 459.148 467.75 
	L 459.148 479.117 
	L 428.832 479.117 
	L 428.074 490.992 
	C 433.379 489.477 435.652 488.973 439.188 488.973 
	C 452.324 488.973 463.191 500.086 463.191 513.223 
	C 463.191 529.141 450.055 541.012 431.863 541.012 
	Z 
	"/>
</g>
<g fill="#ffffff" fill-rule="nonzero" stroke-width="0" stroke-linejoin="miter" stroke-linecap="butt" stroke-miterlimit="4" >
	<path d="
	M 495.277 541.012 
	C 488.961 541.012 482.645 539.496 477.594 536.973 
	L 483.148 526.867 
	C 486.184 528.383 491.484 529.391 496.793 529.391 
	C 507.148 529.391 515.234 522.57 515.234 513.223 
	C 515.234 506.148 509.426 500.594 502.352 500.594 
	C 497.297 500.594 495.023 502.109 490.73 508.172 
	L 479.359 504.887 
	L 481.129 467.75 
	L 522.563 467.75 
	L 522.563 479.117 
	L 492.242 479.117 
	L 491.484 490.992 
	C 496.793 489.477 499.066 488.973 502.605 488.973 
	C 515.738 488.973 526.605 500.086 526.605 513.223 
	C 526.605 529.141 513.469 541.012 495.277 541.012 
	Z 
	"/>
</g>
<g fill="#ffffff" fill-rule="nonzero" stroke-width="0" stroke-linejoin="miter" stroke-linecap="butt" stroke-miterlimit="4" >
	<path d="
	M 141.145 478.105 
	C 135.586 478.105 131.035 481.898 131.035 486.695 
	C 131.035 490.992 135.586 494.527 141.145 494.527 
	C 146.699 494.527 151.246 490.992 151.246 486.695 
	C 151.246 481.898 146.699 478.105 141.145 478.105 
	Z 
	M 141.145 506.148 
	C 134.066 506.148 128.258 510.949 128.258 517.012 
	C 128.258 523.836 134.066 529.391 141.145 529.391 
	C 148.469 529.391 154.277 523.836 154.277 517.012 
	C 154.277 510.949 148.219 506.148 141.145 506.148 
	Z 
	M 141.145 541.012 
	C 128.004 541.012 116.637 529.898 116.637 516.762 
	C 116.637 509.937 119.664 504.383 124.973 500.086 
	C 121.438 496.297 119.664 492.004 119.664 486.949 
	C 119.664 475.836 129.52 466.488 141.145 466.488 
	C 152.766 466.488 162.867 475.836 162.867 486.949 
	C 162.867 492.004 160.852 496.297 157.313 500.086 
	C 162.867 504.383 165.648 510.191 165.648 516.762 
	C 165.648 529.898 154.277 541.012 141.145 541.012 
	Z 
	"/>
</g>
<g fill="#ffffff" fill-rule="nonzero" stroke-width="0" stroke-linejoin="miter" stroke-linecap="butt" stroke-miterlimit="4" >
	<path d="
	M 215.504 483.664 
	C 213.227 479.879 210.438 478.359 206.137 478.105 
	C 200.563 477.855 197.02 480.637 194.484 486.949 
	C 192.715 491.246 191.699 497.812 191.699 503.875 
	C 191.699 511.453 193.219 519.285 196.004 523.836 
	C 198.281 527.625 201.32 529.391 205.883 529.391 
	C 211.199 529.391 214.492 526.613 217.023 520.297 
	C 218.543 516.508 219.813 509.434 219.813 503.875 
	C 219.813 495.793 218.289 488.465 215.504 483.664 
	Z 
	M 223.355 532.93 
	C 219.305 538.488 213.48 541.012 205.883 541.012 
	C 195.754 541.012 189.422 536.973 185.113 528.129 
	C 182.074 522.066 180.051 512.465 180.051 503.875 
	C 180.051 492.004 183.09 481.395 187.898 474.57 
	C 192.203 469.016 198.031 466.488 206.391 466.488 
	C 215.504 466.488 221.836 470.527 226.395 479.371 
	C 229.434 485.687 231.207 494.781 231.207 503.875 
	C 231.207 515.246 228.422 526.613 223.355 532.93 
	Z 
	"/>
</g>
<g fill="#ffffff" fill-rule="nonzero" stroke-width="0" stroke-linejoin="miter" stroke-linecap="butt" stroke-miterlimit="4" >
	<path d="
	M 281.063 483.664 
	C 278.781 479.879 275.996 478.359 271.691 478.105 
	C 266.117 477.855 262.574 480.637 260.039 486.949 
	C 258.27 491.246 257.258 497.812 257.258 503.875 
	C 257.258 511.453 258.773 519.285 261.563 523.836 
	C 263.84 527.625 266.879 529.391 271.438 529.391 
	C 276.758 529.391 280.051 526.613 282.578 520.297 
	C 284.102 516.508 285.367 509.434 285.367 503.875 
	C 285.367 495.793 283.848 488.465 281.063 483.664 
	Z 
	M 288.91 532.93 
	C 284.859 538.488 279.035 541.012 271.438 541.012 
	C 261.309 541.012 254.977 536.973 250.672 528.129 
	C 247.633 522.066 245.605 512.465 245.605 503.875 
	C 245.605 492.004 248.645 481.395 253.457 474.57 
	C 257.762 469.016 263.59 466.488 271.945 466.488 
	C 281.063 466.488 287.395 470.527 291.949 479.371 
	C 294.988 485.687 296.766 494.781 296.766 503.875 
	C 296.766 515.246 293.977 526.613 288.91 532.93 
	Z 
	"/>
</g>
<g fill="#ffffff" fill-rule="nonzero" stroke-width="0" stroke-linejoin="miter" stroke-linecap="butt" stroke-miterlimit="4" >
	<path d="
	M 305.766 509.937 
	L 305.766 498.57 
	L 341.766 498.57 
	L 341.766 509.937 
	Z 
	"/>
</g>
<g fill="#ffffff" fill-rule="nonzero" stroke-width="0" stroke-linejoin="miter" stroke-linecap="butt" stroke-miterlimit="4" >
	<path d="
	M 71.6367 509.937 
	L 71.6367 498.57 
	L 107.637 498.57 
	L 107.637 509.937 
	Z 
	"/>
</g>
<g fill="#ffffff" fill-rule="nonzero" stroke-width="0" stroke-linejoin="miter" stroke-linecap="butt" stroke-miterlimit="4" >
	<path d="
	M 598.293 541.012 
	C 591.977 541.012 585.656 539.496 580.605 536.973 
	L 586.164 526.867 
	C 589.195 528.383 594.504 529.391 599.809 529.391 
	C 610.168 529.391 618.25 522.57 618.25 513.223 
	C 618.25 506.148 612.438 500.594 605.363 500.594 
	C 600.313 500.594 598.039 502.109 593.742 508.172 
	L 582.375 504.887 
	L 584.145 467.75 
	L 625.578 467.75 
	L 625.578 479.117 
	L 595.262 479.117 
	L 594.504 490.992 
	C 599.809 489.477 602.082 488.973 605.617 488.973 
	C 618.758 488.973 629.617 500.086 629.617 513.223 
	C 629.617 529.141 616.48 541.012 598.293 541.012 
	Z 
	"/>
</g>
<g fill="#ffffff" fill-rule="nonzero" stroke-width="0" stroke-linejoin="miter" stroke-linecap="butt" stroke-miterlimit="4" >
	<path d="
	M 661.707 541.012 
	C 655.391 541.012 649.07 539.496 644.02 536.973 
	L 649.578 526.867 
	C 652.609 528.383 657.918 529.391 663.223 529.391 
	C 673.578 529.391 681.668 522.57 681.668 513.223 
	C 681.668 506.148 675.855 500.594 668.781 500.594 
	C 663.727 500.594 661.453 502.109 657.156 508.172 
	L 645.789 504.887 
	L 647.559 467.75 
	L 688.992 467.75 
	L 688.992 479.117 
	L 658.676 479.117 
	L 657.918 490.992 
	C 663.223 489.477 665.496 488.973 669.031 488.973 
	C 682.172 488.973 693.035 500.086 693.035 513.223 
	C 693.035 529.141 679.895 541.012 661.707 541.012 
	Z 
	"/>
</g>
<g fill="#ffffff" fill-rule="nonzero" stroke-width="0" stroke-linejoin="miter" stroke-linecap="butt" stroke-miterlimit="4" >
	<path d="
	M 725.121 541.012 
	C 718.805 541.012 712.488 539.496 707.438 536.973 
	L 712.992 526.867 
	C 716.023 528.383 721.328 529.391 726.637 529.391 
	C 736.992 529.391 745.078 522.57 745.078 513.223 
	C 745.078 506.148 739.27 500.594 732.195 500.594 
	C 727.141 500.594 724.867 502.109 720.57 508.172 
	L 709.203 504.887 
	L 710.973 467.75 
	L 752.406 467.75 
	L 752.406 479.117 
	L 722.09 479.117 
	L 721.328 490.992 
	C 726.637 489.477 728.91 488.973 732.445 488.973 
	C 745.586 488.973 756.449 500.086 756.449 513.223 
	C 756.449 529.141 743.313 541.012 725.121 541.012 
	Z 
	"/>
</g>
<g fill="#ffffff" fill-rule="nonzero" stroke-width="0" stroke-linejoin="miter" stroke-linecap="butt" stroke-miterlimit="4" >
	<path d="
	M 788.535 541.012 
	C 782.223 541.012 775.902 539.496 770.852 536.973 
	L 776.406 526.867 
	C 779.441 528.383 784.746 529.391 790.055 529.391 
	C 800.41 529.391 808.496 522.57 808.496 513.223 
	C 808.496 506.148 802.688 500.594 795.609 500.594 
	C 790.559 500.594 788.281 502.109 783.988 508.172 
	L 772.617 504.887 
	L 774.391 467.75 
	L 815.82 467.75 
	L 815.82 479.117 
	L 785.504 479.117 
	L 784.746 490.992 
	C 790.055 489.477 792.324 488.973 795.863 488.973 
	C 809 488.973 819.863 500.086 819.863 513.223 
	C 819.863 529.141 806.727 541.012 788.535 541.012 
	Z 
	"/>
</g>
<g fill="#ffffff" fill-rule="nonzero" stroke-width="0" stroke-linejoin="miter" stroke-linecap="butt" stroke-miterlimit="4" >
	<path d="
	M 535.605 509.937 
	L 535.605 498.57 
	L 571.605 498.57 
	L 571.605 509.937 
	Z 
	"/>
</g>
<g fill="#ffffff" fill-rule="nonzero" stroke-width="0" stroke-linejoin="miter" stroke-linecap="butt" stroke-miterlimit="4" >
	<path d="
	M 533.184 709.707 
	C 532.043 707.812 530.648 707.055 528.496 706.93 
	C 525.711 706.801 523.938 708.191 522.672 711.352 
	C 521.785 713.496 521.281 716.781 521.281 719.812 
	C 521.281 723.602 522.039 727.52 523.434 729.793 
	C 524.57 731.688 526.09 732.57 528.371 732.57 
	C 531.031 732.57 532.676 731.18 533.941 728.023 
	C 534.703 726.129 535.336 722.594 535.336 719.812 
	C 535.336 715.77 534.574 712.109 533.184 709.707 
	Z 
	M 537.105 734.34 
	C 535.082 737.117 532.168 738.383 528.371 738.383 
	C 523.305 738.383 520.141 736.359 517.988 731.938 
	C 516.469 728.906 515.453 724.109 515.453 719.812 
	C 515.453 713.875 516.977 708.57 519.379 705.16 
	C 521.531 702.383 524.445 701.117 528.625 701.117 
	C 533.184 701.117 536.348 703.141 538.629 707.562 
	C 540.145 710.719 541.031 715.266 541.031 719.812 
	C 541.031 725.496 539.641 731.18 537.105 734.34 
	Z 
	"/>
</g>
<g fill="#ffffff" fill-rule="nonzero" stroke-width="0" stroke-linejoin="miter" stroke-linecap="butt" stroke-miterlimit="4" >
	<path d="
	M 443.422 737.75 
	L 443.422 701.75 
	L 449.18 701.75 
	L 449.18 737.75 
	Z 
	"/>
</g>
<g fill="#ffffff" fill-rule="nonzero" stroke-width="0" stroke-linejoin="miter" stroke-linecap="butt" stroke-miterlimit="4" >
	<path d="
	M 457.816 737.75 
	L 457.816 701.75 
	L 463.496 701.75 
	L 463.496 732.445 
	L 480.148 732.445 
	L 480.148 737.75 
	Z 
	"/>
</g>
<g fill="#ffffff" fill-rule="nonzero" stroke-width="0" stroke-linejoin="miter" stroke-linecap="butt" stroke-miterlimit="4" >
	<path d="
	M 395.805 708.066 
	C 394.922 707.559 394.414 707.434 392.52 707.434 
	L 385.699 707.434 
	L 385.699 716.277 
	L 392.52 716.277 
	C 394.289 716.277 394.922 716.148 395.805 715.645 
	C 397.191 714.887 398.078 713.371 398.078 711.855 
	C 398.078 710.34 397.191 708.824 395.805 708.066 
	Z 
	M 398.328 737.75 
	L 392.52 722.086 
	L 385.699 722.086 
	L 385.699 737.75 
	L 380.016 737.75 
	L 380.016 701.75 
	L 391.891 701.75 
	C 394.668 701.75 396.563 702.004 398.328 702.887 
	C 401.488 704.402 403.762 708.191 403.762 711.855 
	C 403.762 715.645 401.488 719.434 398.203 720.949 
	L 404.52 737.75 
	Z 
	"/>
</g>
<g fill="#ffffff" fill-rule="nonzero" stroke-width="0" stroke-linejoin="miter" stroke-linecap="butt" stroke-miterlimit="4" >
	<path d="
	M 501.34 708.066 
	C 500.453 707.559 499.949 707.434 498.055 707.434 
	L 491.23 707.434 
	L 491.23 716.277 
	L 498.055 716.277 
	C 499.82 716.277 500.453 716.148 501.34 715.645 
	C 502.727 714.887 503.613 713.371 503.613 711.855 
	C 503.613 710.34 502.727 708.824 501.34 708.066 
	Z 
	M 503.863 737.75 
	L 498.055 722.086 
	L 491.23 722.086 
	L 491.23 737.75 
	L 485.547 737.75 
	L 485.547 701.75 
	L 497.422 701.75 
	C 500.199 701.75 502.098 702.004 503.863 702.887 
	C 507.023 704.402 509.297 708.191 509.297 711.855 
	C 509.297 715.645 507.023 719.434 503.738 720.949 
	L 510.055 737.75 
	Z 
	"/>
</g>
<g fill="#ffffff" fill-rule="nonzero" stroke-width="0" stroke-linejoin="miter" stroke-linecap="butt" stroke-miterlimit="4" >
	<path d="
	M 276.324 737.75 
	L 270.516 725.75 
	L 264.703 737.75 
	L 258.262 737.75 
	L 267.23 719.18 
	L 258.895 701.75 
	L 265.336 701.75 
	L 270.516 712.488 
	L 275.695 701.75 
	L 282.137 701.75 
	L 273.672 719.18 
	L 282.77 737.75 
	Z 
	"/>
</g>
<g fill="#ffffff" fill-rule="nonzero" stroke-width="0" stroke-linejoin="miter" stroke-linecap="butt" stroke-miterlimit="4" >
	<path d="
	M 304.059 722.086 
	L 304.059 737.75 
	L 298.344 737.75 
	L 298.344 722.086 
	L 285.648 701.75 
	L 292.504 701.75 
	L 301.141 715.645 
	L 309.898 701.75 
	L 316.629 701.75 
	Z 
	"/>
</g>
<g fill="#ffffff" fill-rule="nonzero" stroke-width="0" stroke-linejoin="miter" stroke-linecap="butt" stroke-miterlimit="4" >
	<path d="
	M 319.508 737.75 
	L 319.508 732.949 
	L 335.93 707.434 
	L 320.898 707.434 
	L 320.898 701.75 
	L 344.016 701.75 
	L 344.016 705.16 
	L 327.34 731.938 
	L 344.016 731.938 
	L 344.016 737.75 
	Z 
	"/>
</g>
<g fill="#ffffff" fill-rule="nonzero" stroke-width="0" stroke-linejoin="miter" stroke-linecap="butt" stroke-miterlimit="4" >
	<path d="
	M 597.52 708.949 
	C 596.637 708.066 595.375 707.434 593.859 707.434 
	L 587.414 707.434 
	L 587.414 731.938 
	L 593.102 731.938 
	C 594.996 731.938 596.133 731.562 597.145 730.551 
	C 599.289 728.402 600.426 724.488 600.426 719.688 
	C 600.426 714.887 599.289 710.844 597.52 708.949 
	Z 
	M 599.922 735.73 
	C 598.531 736.992 596.637 737.625 594.742 737.75 
	C 594.363 737.75 593.605 737.75 592.723 737.75 
	L 581.73 737.75 
	L 581.73 701.75 
	L 593.352 701.75 
	C 597.016 701.75 598.406 702.129 600.301 703.645 
	C 604.09 706.93 606.238 712.613 606.238 719.688 
	C 606.238 726.887 603.965 732.57 599.922 735.73 
	Z 
	"/>
</g>
<g fill="#ffffff" fill-rule="nonzero" stroke-width="0" stroke-linejoin="miter" stroke-linecap="butt" stroke-miterlimit="4" >
	<path d="
	M 422.773 711.73 
	L 419.09 721.836 
	L 426.328 721.836 
	Z 
	M 431.922 737.75 
	L 428.363 727.645 
	L 417.059 727.645 
	L 413.5 737.75 
	L 407.398 737.75 
	L 419.852 701.75 
	L 425.566 701.75 
	L 438.02 737.75 
	Z 
	"/>
</g>
<g fill="#ffffff" fill-rule="nonzero" stroke-width="0" stroke-linejoin="miter" stroke-linecap="butt" stroke-miterlimit="4" >
	<path d="
	M 561.086 711.73 
	L 557.402 721.836 
	L 564.645 721.836 
	Z 
	M 570.23 737.75 
	L 566.676 727.645 
	L 555.367 727.645 
	L 551.813 737.75 
	L 545.715 737.75 
	L 558.164 701.75 
	L 563.883 701.75 
	L 576.332 737.75 
	Z 
	"/>
</g>
<g fill="#ffffff" fill-rule="nonzero" stroke-width="0" stroke-linejoin="miter" stroke-linecap="butt" stroke-miterlimit="4" >
	<path d="
	M 820.738 674.75 
	L 280.738 674.75 
	L 280.738 584.75 
	L 820.738 584.75 
	Z 
	"/>
</g>
<g fill="#7f7f7f" fill-rule="nonzero" stroke-width="0" stroke-linejoin="miter" stroke-linecap="butt" stroke-miterlimit="4" >
	<path d="
	M 752.867 665.75 
	L 752.867 633.16 
	L 733.199 633.16 
	L 733.199 665.75 
	L 722.863 665.75 
	L 722.863 593.75 
	L 733.199 593.75 
	L 733.199 623.055 
	L 752.867 623.055 
	L 752.867 593.75 
	L 763.203 593.75 
	L 763.203 665.75 
	Z 
	"/>
</g>
<g fill="#7f7f7f" fill-rule="nonzero" stroke-width="0" stroke-linejoin="miter" stroke-linecap="butt" stroke-miterlimit="4" >
	<path d="
	M 550.488 667.012 
	C 544.145 667.012 538.059 664.738 532.73 660.695 
	L 539.578 653.371 
	C 543.133 655.898 545.926 656.906 549.477 656.906 
	C 557.34 656.906 562.922 649.832 562.922 639.98 
	C 562.922 632.148 559.113 627.348 553.027 627.348 
	C 549.73 627.348 546.938 628.613 544.398 630.887 
	L 534.508 629.625 
	L 536.281 593.75 
	L 570.277 593.75 
	L 570.277 603.855 
	L 545.926 603.855 
	L 545.16 619.012 
	C 548.715 617.75 550.488 617.496 553.281 617.496 
	C 564.949 617.496 573.066 626.844 573.066 640.488 
	C 573.066 655.645 563.43 667.012 550.488 667.012 
	Z 
	"/>
</g>
<g fill="#7f7f7f" fill-rule="nonzero" stroke-width="0" stroke-linejoin="miter" stroke-linecap="butt" stroke-miterlimit="4" >
	<path d="
	M 653.391 631.898 
	C 649.586 643.012 648.063 652.613 647.555 665.75 
	L 637.406 665.75 
	L 637.406 664.234 
	C 637.406 656.906 639.184 645.035 641.723 635.434 
	C 644.766 623.812 648.57 615.223 655.676 603.855 
	L 628.527 603.855 
	L 628.527 593.75 
	L 668.863 593.75 
	L 668.863 603.855 
	C 662.523 611.18 657.449 620.277 653.391 631.898 
	Z 
	"/>
</g>
<g fill="#7f7f7f" fill-rule="nonzero" stroke-width="0" stroke-linejoin="miter" stroke-linecap="butt" stroke-miterlimit="4" >
	<path d="
	M 602.008 602.594 
	C 595.66 602.594 591.855 607.391 591.855 614.973 
	C 591.855 622.801 595.66 627.602 602.008 627.602 
	C 608.094 627.602 612.152 623.055 612.152 615.98 
	C 612.152 607.898 608.094 602.594 602.008 602.594 
	Z 
	M 597.188 665.75 
	L 591.352 657.664 
	C 597.438 653.117 604.035 644.277 606.57 637.457 
	C 604.797 637.707 603.527 637.707 602.008 637.707 
	C 589.574 637.707 581.711 628.867 581.711 614.973 
	C 581.711 601.328 589.574 592.488 602.008 592.488 
	C 615.195 592.488 622.047 601.328 622.047 618.254 
	C 622.047 635.941 612.914 653.371 597.188 665.75 
	Z 
	"/>
</g>
<g fill="#7f7f7f" fill-rule="nonzero" stroke-width="0" stroke-linejoin="miter" stroke-linecap="butt" stroke-miterlimit="4" >
	<path d="
	M 407.551 667.012 
	C 395.879 667.012 387.762 658.676 387.254 646.801 
	L 397.402 646.801 
	C 397.91 652.613 401.969 656.906 407.551 656.906 
	C 413.387 656.906 417.695 652.359 417.695 646.297 
	C 417.695 638.719 413.387 632.402 408.313 632.402 
	L 403.234 632.402 
	L 403.234 622.551 
	L 407.551 622.551 
	C 410.086 622.551 411.102 621.793 412.879 619.77 
	C 414.906 617.496 415.922 614.719 415.922 611.687 
	C 415.922 606.129 412.625 602.59 407.551 602.59 
	C 402.984 602.59 400.191 605.371 399.688 610.172 
	L 389.539 608.906 
	C 390.555 599.309 397.91 592.484 407.551 592.484 
	C 417.949 592.484 425.816 600.57 425.816 610.93 
	C 425.816 616.992 424.039 621.793 419.223 627.348 
	C 424.801 632.402 427.594 638.969 427.594 646.297 
	C 427.594 658.172 419.223 667.012 407.551 667.012 
	Z 
	"/>
</g>
<g fill="#7f7f7f" fill-rule="nonzero" stroke-width="0" stroke-linejoin="miter" stroke-linecap="butt" stroke-miterlimit="4" >
	<path d="
	M 458.434 630.887 
	C 452.348 630.887 448.285 636.191 448.285 643.012 
	C 448.285 651.098 452.348 656.906 458.434 656.906 
	C 464.523 656.906 468.582 651.602 468.582 644.023 
	C 468.582 636.445 464.523 630.887 458.434 630.887 
	Z 
	M 458.434 667.012 
	C 445.242 667.012 438.395 657.414 438.395 640.992 
	C 438.395 623.559 447.523 605.371 463.254 593.246 
	L 469.09 601.328 
	C 463 605.875 456.402 614.465 453.867 621.285 
	C 455.645 621.035 457.164 621.035 458.434 621.035 
	C 470.863 621.035 478.73 630.383 478.73 644.023 
	C 478.73 657.664 470.863 667.012 458.434 667.012 
	Z 
	"/>
</g>
<g fill="#7f7f7f" fill-rule="nonzero" stroke-width="0" stroke-linejoin="miter" stroke-linecap="butt" stroke-miterlimit="4" >
	<path d="
	M 358.574 602.594 
	C 353.246 602.594 349.441 606.383 349.441 611.687 
	C 349.441 617.496 353.246 621.285 358.574 621.285 
	C 363.648 621.285 367.453 617.496 367.453 611.687 
	C 367.453 606.383 363.648 602.594 358.574 602.594 
	Z 
	M 358.574 631.645 
	C 352.484 631.645 348.426 636.699 348.426 644.527 
	C 348.426 651.855 352.484 656.906 358.574 656.906 
	C 364.66 656.906 368.723 651.855 368.723 644.527 
	C 368.723 636.699 364.66 631.645 358.574 631.645 
	Z 
	M 371.766 662.215 
	C 368.469 665.496 364.156 667.012 358.574 667.012 
	C 351.469 667.012 346.395 664.488 342.844 659.434 
	C 340.055 655.391 338.277 650.086 338.277 644.527 
	C 338.277 637.457 340.559 631.141 345.129 626.594 
	C 341.32 622.551 339.293 617.496 339.293 611.687 
	C 339.293 600.57 347.156 592.488 358.574 592.488 
	C 369.734 592.488 377.602 600.57 377.602 611.687 
	C 377.602 617.496 375.57 622.801 371.766 626.594 
	C 376.332 630.887 378.613 637.457 378.613 644.527 
	C 378.613 651.352 376.078 658.172 371.766 662.215 
	Z 
	"/>
</g>
</g >
</g>
</svg>
