<?xml version="1.0" encoding="UTF-8" standalone="no"?>
<!-- Created with Inkscape (http://www.inkscape.org/) -->

<svg
   version="1.1"
   id="svg1"
   width="2304"
   height="3456"
   viewBox="0 0 2304 3456"
   sodipodi:docname="tmpvv3inoa5.pdf"
   xmlns:inkscape="http://www.inkscape.org/namespaces/inkscape"
   xmlns:sodipodi="http://sodipodi.sourceforge.net/DTD/sodipodi-0.dtd"
   xmlns="http://www.w3.org/2000/svg"
   xmlns:svg="http://www.w3.org/2000/svg">
  <defs
     id="defs1">
    <pattern
       patternTransform="translate(0.2,63.3)"
       patternUnits="userSpaceOnUse"
       x="0"
       y="0"
       width="92.9668"
       height="92.9658"
       id="pattern32">
      <path
         d="M 929.668,0 0,0 l 0,929.656 929.668,0 0,-929.656"
         style="fill:#231f20;fill-opacity:1;fill-rule:nonzero;stroke:none"
         transform="scale(0.1)"
         id="path16" />
      <path
         d="m 116.211,871.98 c 32.266,0 58.516,-26.253 58.516,-58.527 0,-32.277 -26.25,-58.527 -58.516,-58.527 -32.2774,0 -58.5274,26.25 -58.5274,58.527 0,32.274 26.25,58.527 58.5274,58.527 l 0,0"
         style="fill:#ffffff;fill-opacity:1;fill-rule:nonzero;stroke:none"
         transform="scale(0.1)"
         id="path17" />
      <path
         d="m 116.211,639.563 c 32.266,0 58.516,-26.25 58.516,-58.528 0,-32.273 -26.25,-58.523 -58.516,-58.523 -32.2774,0 -58.5274,26.25 -58.5274,58.523 0,32.278 26.25,58.528 58.5274,58.528 l 0,0"
         style="fill:#ffffff;fill-opacity:1;fill-rule:nonzero;stroke:none"
         transform="scale(0.1)"
         id="path18" />
      <path
         d="m 116.211,407.152 c 32.266,0 58.516,-26.257 58.516,-58.535 0,-32.269 -26.25,-58.519 -58.516,-58.519 -32.2774,0 -58.5274,26.25 -58.5274,58.519 0,32.278 26.25,58.535 58.5274,58.535 l 0,0"
         style="fill:#ffffff;fill-opacity:1;fill-rule:nonzero;stroke:none"
         transform="scale(0.1)"
         id="path19" />
      <path
         d="m 116.211,174.73 c 32.266,0 58.516,-26.253 58.516,-58.531 0,-32.2732 -26.25,-58.5232 -58.516,-58.5232 -32.2774,0 -58.5274,26.25 -58.5274,58.5232 0,32.278 26.25,58.531 58.5274,58.531 l 0,0"
         style="fill:#ffffff;fill-opacity:1;fill-rule:nonzero;stroke:none"
         transform="scale(0.1)"
         id="path20" />
      <path
         d="m 813.469,871.98 c 32.261,0 58.511,-26.253 58.511,-58.527 0,-32.277 -26.25,-58.527 -58.511,-58.527 -32.27,0 -58.528,26.25 -58.528,58.527 0,32.274 26.258,58.527 58.528,58.527 l 0,0"
         style="fill:#ffffff;fill-opacity:1;fill-rule:nonzero;stroke:none"
         transform="scale(0.1)"
         id="path21" />
      <path
         d="m 813.469,639.563 c 32.261,0 58.511,-26.25 58.511,-58.528 0,-32.273 -26.25,-58.523 -58.511,-58.523 -32.27,0 -58.528,26.25 -58.528,58.523 0,32.278 26.258,58.528 58.528,58.528 l 0,0"
         style="fill:#ffffff;fill-opacity:1;fill-rule:nonzero;stroke:none"
         transform="scale(0.1)"
         id="path22" />
      <path
         d="m 813.469,407.152 c 32.261,0 58.511,-26.257 58.511,-58.535 0,-32.269 -26.25,-58.519 -58.511,-58.519 -32.27,0 -58.528,26.25 -58.528,58.519 0,32.278 26.258,58.535 58.528,58.535 l 0,0"
         style="fill:#ffffff;fill-opacity:1;fill-rule:nonzero;stroke:none"
         transform="scale(0.1)"
         id="path23" />
      <path
         d="m 813.469,174.73 c 32.261,0 58.511,-26.253 58.511,-58.531 0,-32.2732 -26.25,-58.5232 -58.511,-58.5232 -32.27,0 -58.528,26.25 -58.528,58.5232 0,32.278 26.258,58.531 58.528,58.531 l 0,0"
         style="fill:#ffffff;fill-opacity:1;fill-rule:nonzero;stroke:none"
         transform="scale(0.1)"
         id="path24" />
      <path
         d="m 581.047,871.98 c 32.266,0 58.516,-26.253 58.516,-58.527 0,-32.277 -26.25,-58.527 -58.516,-58.527 -32.27,0 -58.527,26.25 -58.527,58.527 0,32.274 26.257,58.527 58.527,58.527 l 0,0"
         style="fill:#ffffff;fill-opacity:1;fill-rule:nonzero;stroke:none"
         transform="scale(0.1)"
         id="path25" />
      <path
         d="m 581.047,639.563 c 32.266,0 58.516,-26.25 58.516,-58.528 0,-32.273 -26.25,-58.523 -58.516,-58.523 -32.27,0 -58.527,26.25 -58.527,58.523 0,32.278 26.257,58.528 58.527,58.528 l 0,0"
         style="fill:#ffffff;fill-opacity:1;fill-rule:nonzero;stroke:none"
         transform="scale(0.1)"
         id="path26" />
      <path
         d="m 581.047,407.152 c 32.266,0 58.516,-26.257 58.516,-58.535 0,-32.269 -26.25,-58.519 -58.516,-58.519 -32.27,0 -58.527,26.25 -58.527,58.519 0,32.278 26.257,58.535 58.527,58.535 l 0,0"
         style="fill:#ffffff;fill-opacity:1;fill-rule:nonzero;stroke:none"
         transform="scale(0.1)"
         id="path27" />
      <path
         d="m 581.047,174.73 c 32.266,0 58.516,-26.253 58.516,-58.531 0,-32.2732 -26.25,-58.5232 -58.516,-58.5232 -32.27,0 -58.527,26.25 -58.527,58.5232 0,32.278 26.257,58.531 58.527,58.531 l 0,0"
         style="fill:#ffffff;fill-opacity:1;fill-rule:nonzero;stroke:none"
         transform="scale(0.1)"
         id="path28" />
      <path
         d="m 348.633,871.98 c 32.265,0 58.515,-26.253 58.515,-58.527 0,-32.277 -26.25,-58.527 -58.515,-58.527 -32.278,0 -58.528,26.25 -58.528,58.527 0,32.274 26.25,58.527 58.528,58.527 l 0,0"
         style="fill:#ffffff;fill-opacity:1;fill-rule:nonzero;stroke:none"
         transform="scale(0.1)"
         id="path29" />
      <path
         d="m 348.633,639.563 c 32.265,0 58.515,-26.25 58.515,-58.528 0,-32.273 -26.25,-58.523 -58.515,-58.523 -32.278,0 -58.528,26.25 -58.528,58.523 0,32.278 26.25,58.528 58.528,58.528 l 0,0"
         style="fill:#ffffff;fill-opacity:1;fill-rule:nonzero;stroke:none"
         transform="scale(0.1)"
         id="path30" />
      <path
         d="m 348.633,407.152 c 32.265,0 58.515,-26.257 58.515,-58.535 0,-32.269 -26.25,-58.519 -58.515,-58.519 -32.278,0 -58.528,26.25 -58.528,58.519 0,32.278 26.25,58.535 58.528,58.535 l 0,0"
         style="fill:#ffffff;fill-opacity:1;fill-rule:nonzero;stroke:none"
         transform="scale(0.1)"
         id="path31" />
      <path
         d="m 348.633,174.73 c 32.265,0 58.515,-26.253 58.515,-58.531 0,-32.2732 -26.25,-58.5232 -58.515,-58.5232 -32.278,0 -58.528,26.25 -58.528,58.5232 0,32.278 26.25,58.531 58.528,58.531 l 0,0"
         style="fill:#ffffff;fill-opacity:1;fill-rule:nonzero;stroke:none"
         transform="scale(0.1)"
         id="path32" />
    </pattern>
    <pattern
       patternTransform="translate(0.2,63.3)"
       patternUnits="userSpaceOnUse"
       x="0"
       y="0"
       width="92.9668"
       height="92.9658"
       id="pattern50">
      <path
         d="M 929.668,0 0,0 l 0,929.656 929.668,0 0,-929.656"
         style="fill:#231f20;fill-opacity:1;fill-rule:nonzero;stroke:none"
         transform="scale(0.1)"
         id="path34" />
      <path
         d="m 116.211,871.98 c 32.266,0 58.516,-26.253 58.516,-58.527 0,-32.277 -26.25,-58.527 -58.516,-58.527 -32.2774,0 -58.5274,26.25 -58.5274,58.527 0,32.274 26.25,58.527 58.5274,58.527 l 0,0"
         style="fill:#ffffff;fill-opacity:1;fill-rule:nonzero;stroke:none"
         transform="scale(0.1)"
         id="path35" />
      <path
         d="m 116.211,639.563 c 32.266,0 58.516,-26.25 58.516,-58.528 0,-32.273 -26.25,-58.523 -58.516,-58.523 -32.2774,0 -58.5274,26.25 -58.5274,58.523 0,32.278 26.25,58.528 58.5274,58.528 l 0,0"
         style="fill:#ffffff;fill-opacity:1;fill-rule:nonzero;stroke:none"
         transform="scale(0.1)"
         id="path36" />
      <path
         d="m 116.211,407.152 c 32.266,0 58.516,-26.257 58.516,-58.535 0,-32.269 -26.25,-58.519 -58.516,-58.519 -32.2774,0 -58.5274,26.25 -58.5274,58.519 0,32.278 26.25,58.535 58.5274,58.535 l 0,0"
         style="fill:#ffffff;fill-opacity:1;fill-rule:nonzero;stroke:none"
         transform="scale(0.1)"
         id="path37" />
      <path
         d="m 116.211,174.73 c 32.266,0 58.516,-26.253 58.516,-58.531 0,-32.2732 -26.25,-58.5232 -58.516,-58.5232 -32.2774,0 -58.5274,26.25 -58.5274,58.5232 0,32.278 26.25,58.531 58.5274,58.531 l 0,0"
         style="fill:#ffffff;fill-opacity:1;fill-rule:nonzero;stroke:none"
         transform="scale(0.1)"
         id="path38" />
      <path
         d="m 813.469,871.98 c 32.261,0 58.511,-26.253 58.511,-58.527 0,-32.277 -26.25,-58.527 -58.511,-58.527 -32.27,0 -58.528,26.25 -58.528,58.527 0,32.274 26.258,58.527 58.528,58.527 l 0,0"
         style="fill:#ffffff;fill-opacity:1;fill-rule:nonzero;stroke:none"
         transform="scale(0.1)"
         id="path39" />
      <path
         d="m 813.469,639.563 c 32.261,0 58.511,-26.25 58.511,-58.528 0,-32.273 -26.25,-58.523 -58.511,-58.523 -32.27,0 -58.528,26.25 -58.528,58.523 0,32.278 26.258,58.528 58.528,58.528 l 0,0"
         style="fill:#ffffff;fill-opacity:1;fill-rule:nonzero;stroke:none"
         transform="scale(0.1)"
         id="path40" />
      <path
         d="m 813.469,407.152 c 32.261,0 58.511,-26.257 58.511,-58.535 0,-32.269 -26.25,-58.519 -58.511,-58.519 -32.27,0 -58.528,26.25 -58.528,58.519 0,32.278 26.258,58.535 58.528,58.535 l 0,0"
         style="fill:#ffffff;fill-opacity:1;fill-rule:nonzero;stroke:none"
         transform="scale(0.1)"
         id="path41" />
      <path
         d="m 813.469,174.73 c 32.261,0 58.511,-26.253 58.511,-58.531 0,-32.2732 -26.25,-58.5232 -58.511,-58.5232 -32.27,0 -58.528,26.25 -58.528,58.5232 0,32.278 26.258,58.531 58.528,58.531 l 0,0"
         style="fill:#ffffff;fill-opacity:1;fill-rule:nonzero;stroke:none"
         transform="scale(0.1)"
         id="path42" />
      <path
         d="m 581.047,871.98 c 32.266,0 58.516,-26.253 58.516,-58.527 0,-32.277 -26.25,-58.527 -58.516,-58.527 -32.27,0 -58.527,26.25 -58.527,58.527 0,32.274 26.257,58.527 58.527,58.527 l 0,0"
         style="fill:#ffffff;fill-opacity:1;fill-rule:nonzero;stroke:none"
         transform="scale(0.1)"
         id="path43" />
      <path
         d="m 581.047,639.563 c 32.266,0 58.516,-26.25 58.516,-58.528 0,-32.273 -26.25,-58.523 -58.516,-58.523 -32.27,0 -58.527,26.25 -58.527,58.523 0,32.278 26.257,58.528 58.527,58.528 l 0,0"
         style="fill:#ffffff;fill-opacity:1;fill-rule:nonzero;stroke:none"
         transform="scale(0.1)"
         id="path44" />
      <path
         d="m 581.047,407.152 c 32.266,0 58.516,-26.257 58.516,-58.535 0,-32.269 -26.25,-58.519 -58.516,-58.519 -32.27,0 -58.527,26.25 -58.527,58.519 0,32.278 26.257,58.535 58.527,58.535 l 0,0"
         style="fill:#ffffff;fill-opacity:1;fill-rule:nonzero;stroke:none"
         transform="scale(0.1)"
         id="path45" />
      <path
         d="m 581.047,174.73 c 32.266,0 58.516,-26.253 58.516,-58.531 0,-32.2732 -26.25,-58.5232 -58.516,-58.5232 -32.27,0 -58.527,26.25 -58.527,58.5232 0,32.278 26.257,58.531 58.527,58.531 l 0,0"
         style="fill:#ffffff;fill-opacity:1;fill-rule:nonzero;stroke:none"
         transform="scale(0.1)"
         id="path46" />
      <path
         d="m 348.633,871.98 c 32.265,0 58.515,-26.253 58.515,-58.527 0,-32.277 -26.25,-58.527 -58.515,-58.527 -32.278,0 -58.528,26.25 -58.528,58.527 0,32.274 26.25,58.527 58.528,58.527 l 0,0"
         style="fill:#ffffff;fill-opacity:1;fill-rule:nonzero;stroke:none"
         transform="scale(0.1)"
         id="path47" />
      <path
         d="m 348.633,639.563 c 32.265,0 58.515,-26.25 58.515,-58.528 0,-32.273 -26.25,-58.523 -58.515,-58.523 -32.278,0 -58.528,26.25 -58.528,58.523 0,32.278 26.25,58.528 58.528,58.528 l 0,0"
         style="fill:#ffffff;fill-opacity:1;fill-rule:nonzero;stroke:none"
         transform="scale(0.1)"
         id="path48" />
      <path
         d="m 348.633,407.152 c 32.265,0 58.515,-26.257 58.515,-58.535 0,-32.269 -26.25,-58.519 -58.515,-58.519 -32.278,0 -58.528,26.25 -58.528,58.519 0,32.278 26.25,58.535 58.528,58.535 l 0,0"
         style="fill:#ffffff;fill-opacity:1;fill-rule:nonzero;stroke:none"
         transform="scale(0.1)"
         id="path49" />
      <path
         d="m 348.633,174.73 c 32.265,0 58.515,-26.253 58.515,-58.531 0,-32.2732 -26.25,-58.5232 -58.515,-58.5232 -32.278,0 -58.528,26.25 -58.528,58.5232 0,32.278 26.25,58.531 58.528,58.531 l 0,0"
         style="fill:#ffffff;fill-opacity:1;fill-rule:nonzero;stroke:none"
         transform="scale(0.1)"
         id="path50" />
    </pattern>
  </defs>
  <sodipodi:namedview
     id="namedview1"
     pagecolor="#ffffff"
     bordercolor="#000000"
     borderopacity="0.25"
     inkscape:showpageshadow="2"
     inkscape:pageopacity="0.0"
     inkscape:pagecheckerboard="0"
     inkscape:deskcolor="#d1d1d1">
    <inkscape:page
       x="0"
       y="0"
       inkscape:label="1"
       id="page1"
       width="2304"
       height="3456"
       margin="0"
       bleed="0" />
  </sodipodi:namedview>
  <g
     id="g1"
     inkscape:groupmode="layer"
     inkscape:label="1">
    <g
       id="group-R5">
      <path
         id="path2"
         d="M 17280,1080 C 17280,483.5 16796.5,0 16200,0 H 1080 C 483.531,0 0,483.5 0,1080 v 23760 c 0,596.5 483.531,1080 1080,1080 h 15120 c 596.5,0 1080,-483.5 1080,-1080 V 1080"
         style="fill:#ffffff;fill-opacity:1;fill-rule:nonzero;stroke:none"
         transform="matrix(0.13333333,0,0,-0.13333333,0,3456)" />
      <path
         id="path3"
         d="m 1080,25560 c -397.012,0 -720,-323 -720,-720 V 1080 c 0,-397 322.988,-720 720,-720 h 15120 c 397,0 720,323 720,720 v 23760 c 0,397 -323,720 -720,720 H 1080 v 0"
         style="fill:#00674e;fill-opacity:1;fill-rule:nonzero;stroke:none"
         transform="matrix(0.13333333,0,0,-0.13333333,0,3456)" />
      <path
         id="path4"
         d="m 10401.4,22721.1 -202.6,-828.7 h 415.4 z m 516.7,-2021.1 -202.6,788.2 h -618 L 9904.99,20700 H 9489.6 l 719.3,2880 h 405.3 l 719.3,-2880 h -415.4"
         style="fill:#ffffff;fill-opacity:1;fill-rule:nonzero;stroke:none"
         transform="matrix(0.13333333,0,0,-0.13333333,0,3456)" />
      <path
         id="path5"
         d="m 6815.68,21053.7 c -111.62,-252.6 -345.03,-404.2 -639.31,-404.2 -345.03,0 -598.72,171.8 -740.79,495.1 -91.34,212.3 -152.23,616.5 -152.23,990.3 0,404.3 30.45,697.3 131.92,970.2 101.48,303.1 395.77,525.4 730.66,525.4 416.05,0 730.64,-303.1 750.94,-727.6 H 6480.8 c -10.15,192 -142.06,323.4 -345.03,323.4 -142.07,0 -253.7,-70.7 -324.73,-212.2 -81.18,-141.5 -131.92,-464.8 -131.92,-808.4 0,-242.5 20.29,-495.2 60.88,-717.5 60.89,-282.9 202.96,-434.5 426.22,-434.5 213.11,0 314.58,141.5 314.58,444.6 v 192 h -324.73 v 404.2 h 740.8 v -596.2 c 0,-202.1 -20.3,-323.4 -81.19,-444.6"
         style="fill:#ffffff;fill-opacity:1;fill-rule:nonzero;stroke:none"
         transform="matrix(0.13333333,0,0,-0.13333333,0,3456)" />
      <path
         id="path6"
         d="m 4304.15,20700 v 2880 h 403.2 v -2880 h -403.2"
         style="fill:#ffffff;fill-opacity:1;fill-rule:nonzero;stroke:none"
         transform="matrix(0.13333333,0,0,-0.13333333,0,3456)" />
      <path
         id="path7"
         d="m 11736.7,20700 v 2880 h 415.5 v -2496 h 1054 v -384 h -1469.5"
         style="fill:#ffffff;fill-opacity:1;fill-rule:nonzero;stroke:none"
         transform="matrix(0.13333333,0,0,-0.13333333,0,3456)" />
      <path
         id="path8"
         d="m 8773.77,20700 -887.43,1930.1 V 20700 h -413.47 v 2880 h 413.47 l 786.58,-1728 v 1728 h 413.47 v -2880 h -312.62"
         style="fill:#ffffff;fill-opacity:1;fill-rule:nonzero;stroke:none"
         transform="matrix(0.13333333,0,0,-0.13333333,0,3456)" />
      <path
         id="path9"
         d="m 3021.1,22030 c -124.6,80.8 -245.59,161.8 -322.82,216.1 -232.19,163.4 -355.18,384 -355.18,636.6 0,414.4 324.73,747.8 740.8,747.8 405.91,0 720.5,-313.2 730.65,-747.8 h -395.77 c -10.14,202.1 -152.22,333.5 -334.88,333.5 -192.81,0 -345.03,-141.5 -345.03,-333.5 0,-141.4 60.89,-222.3 274,-343.5 558.13,-323.4 801.68,-636.7 801.68,-1051 0,-464.8 -355.18,-838.7 -801.68,-838.7 -507.41,0 -811.84,424.4 -811.84,899.3 h 405.91 c 0,-242.5 121.78,-495.1 405.93,-495.1 223.25,0 405.91,202.1 405.91,434.5 0,180.5 -74.58,332.5 -397.68,541.8"
         style="fill:#ffffff;fill-opacity:1;fill-rule:nonzero;stroke:none"
         transform="matrix(0.13333333,0,0,-0.13333333,0,3456)" />
      <path
         id="path10"
         d="m 14285.5,22030 c -124.6,80.8 -245.6,161.8 -322.8,216.1 -232.2,163.4 -355.2,384 -355.2,636.6 0,414.4 324.8,747.8 740.8,747.8 405.9,0 720.5,-313.2 730.7,-747.8 h -395.8 c -10.1,202.1 -152.2,333.5 -334.9,333.5 -192.8,0 -345,-141.5 -345,-333.5 0,-141.4 60.9,-222.3 274,-343.5 558.1,-323.4 801.7,-636.7 801.7,-1051 0,-464.8 -355.2,-838.7 -801.7,-838.7 -507.4,0 -811.9,424.4 -811.9,899.3 h 406 c 0,-242.5 121.7,-495.1 405.9,-495.1 223.2,0 405.9,202.1 405.9,434.5 0,180.5 -74.6,332.5 -397.7,541.8"
         style="fill:#ffffff;fill-opacity:1;fill-rule:nonzero;stroke:none"
         transform="matrix(0.13333333,0,0,-0.13333333,0,3456)" />
      <path
         id="path11"
         d="m 9386.47,4714.7 c -80.84,40.4 -131.36,50.6 -272.85,50.6 h -596.25 v -707.4 h 596.25 c 141.49,0 192.01,10.1 272.85,50.5 101.06,50.5 171.82,181.9 171.82,303.2 0,121.2 -70.76,242.5 -171.82,303.1 z M 9578.51,3694.1 C 9447.12,3633.5 9275.32,3593 9052.98,3593 H 8517.37 V 2340 h -454.76 v 2880 h 990.37 c 232.44,0 384.02,-20.2 525.53,-91 252.63,-121.2 444.69,-424.4 444.69,-717.4 0,-303.2 -192.06,-606.4 -444.69,-717.5"
         style="fill:#ffffff;fill-opacity:1;fill-rule:nonzero;stroke:none"
         transform="matrix(0.13333333,0,0,-0.13333333,0,3456)" />
      <path
         id="path12"
         d="M 6224.49,2340 V 4007.3 L 5556.21,2340 4887.94,4007.3 V 2340 h -455.65 v 2880 h 455.65 L 5556.21,3603.1 6224.49,5220 h 455.64 V 2340 h -455.64"
         style="fill:#ffffff;fill-opacity:1;fill-rule:nonzero;stroke:none"
         transform="matrix(0.13333333,0,0,-0.13333333,0,3456)" />
      <path
         id="path13"
         d="m 12392.9,2340 v 1253 h -1051 V 2340 h -454.8 v 2880 h 454.8 V 4057.9 h 1051 V 5220 h 454.8 V 2340 h -454.8"
         style="fill:#ffffff;fill-opacity:1;fill-rule:nonzero;stroke:none"
         transform="matrix(0.13333333,0,0,-0.13333333,0,3456)" />
      <path
         id="path14"
         d="M 15120,6300 H 2160 v 8640 H 15120 V 6300"
         style="fill:#231f20;fill-opacity:1;fill-rule:nonzero;stroke:none"
         transform="matrix(0.13333333,0,0,-0.13333333,0,3456)" />
      <path
         id="path15"
         d="M 7154.33,10436.6 C 6378.68,9954.4 5665.3,9741.1 5234.33,8669.7 H 8064.01 V 7740 H 4142.88 c 20.22,667 159.43,1214 485.08,1758.3 1010.68,1689.4 2526.5,1502.8 2526.5,2405.1 0,424.4 -485.08,768 -1051.01,768 -586.16,0 -949.96,-283 -1051.04,-808.4 l -909.53,202.1 c 202.11,949.9 949.96,1536 1960.57,1536 1091.44,0 1960.56,-768 1960.56,-1717.9 0,-688.8 -396.21,-1127.4 -909.68,-1446.6"
         style="fill:url(#pattern32);fill-opacity:1;fill-rule:nonzero;stroke:none"
         transform="matrix(0.13333333,0,0,-0.13333333,0,3456)" />
      <path
         id="path33"
         d="m 10630.8,7638.9 c -505.3,0 -1010.56,121.3 -1414.79,323.4 l 444.66,808.4 c 242.54,-121.3 667.03,-202.1 1091.43,-202.1 828.7,0 1475.5,545.7 1475.5,1293.5 0,565.9 -464.9,1010.5 -1030.8,1010.5 -404.3,0 -586.2,-121.3 -929.8,-606.3 l -909.51,262.7 141.48,2971 h 3314.73 v -909.5 h -2425.4 l -60.6,-949.9 c 424.4,121.3 606.3,161.7 889.3,161.7 1051,0 1920.1,-889.3 1920.1,-1940.2 0,-1273.3 -1051,-2223.2 -2506.3,-2223.2"
         style="fill:url(#pattern50);fill-opacity:1;fill-rule:nonzero;stroke:none"
         transform="matrix(0.13333333,0,0,-0.13333333,0,3456)" />
      <path
         id="path51"
         d="m 9843.93,18495.8 v -727.6 h 577.67 v -394.1 H 9843.93 V 16020 H 9428.4 v 2880 h 1469.5 v -404.2 H 9843.93"
         style="fill:#ffffff;fill-opacity:1;fill-rule:nonzero;stroke:none"
         transform="matrix(0.13333333,0,0,-0.13333333,0,3456)" />
      <path
         id="path52"
         d="m 12454.9,18182.5 c -71.3,252.7 -183.3,363.8 -356.3,363.8 -183.2,0 -295.2,-111.1 -366.5,-353.7 -71.2,-222.3 -91.6,-414.3 -91.6,-737.7 0,-313.2 30.6,-495.1 91.6,-727.5 71.3,-242.6 183.3,-353.7 366.5,-353.7 173,0 285,111.1 356.3,353.7 71.2,232.4 91.6,404.2 91.6,737.7 0,323.3 -30.6,505.2 -91.6,717.4 z m 325.7,-1717.9 c -142.5,-343.5 -356.3,-495.1 -682,-495.1 -346.1,0 -549.7,151.6 -692.2,495.1 -122.1,283 -162.9,555.8 -162.9,1000.5 0,434.5 40.8,727.5 162.9,1000.4 152.7,343.6 356.3,485 692.2,485 335.9,0 539.5,-141.4 682,-495.1 122.2,-283 162.9,-555.8 162.9,-990.3 0,-444.7 -40.7,-727.6 -162.9,-1000.5"
         style="fill:#ffffff;fill-opacity:1;fill-rule:nonzero;stroke:none"
         transform="matrix(0.13333333,0,0,-0.13333333,0,3456)" />
      <path
         id="path53"
         d="m 14356.5,18495.8 h -423.6 v -727.6 h 423.6 c 242,0 373.1,131.4 373.1,363.8 0,222.3 -151.3,363.8 -373.1,363.8 z m 352.9,-2475.8 -383.2,1354.1 h -393.3 V 16020 h -413.4 v 2880 h 857.1 c 453.8,0 756.4,-303.2 756.4,-768 0,-343.6 -141.2,-596.2 -413.5,-697.3 L 15133,16020 h -423.6"
         style="fill:#ffffff;fill-opacity:1;fill-rule:nonzero;stroke:none"
         transform="matrix(0.13333333,0,0,-0.13333333,0,3456)" />
      <path
         id="path54"
         d="m 4250.16,16020 v 2880 h 1358.03 v -404.2 h -942.52 v -727.6 h 597.95 v -394.1 h -597.95 v -949.9 h 1054 V 16020 H 4250.16"
         style="fill:#ffffff;fill-opacity:1;fill-rule:nonzero;stroke:none"
         transform="matrix(0.13333333,0,0,-0.13333333,0,3456)" />
      <path
         id="path55"
         d="m 2967.1,17350 c -124.6,80.7 -245.58,161.8 -322.82,216.1 -232.19,163.4 -355.18,384 -355.18,636.6 0,414.4 324.74,747.8 740.81,747.8 405.91,0 720.5,-313.2 730.65,-747.8 h -395.78 c -10.14,202.1 -152.21,333.5 -334.87,333.5 -192.82,0 -345.03,-141.5 -345.03,-333.5 0,-141.4 60.88,-222.3 273.99,-343.5 558.14,-323.4 801.69,-636.7 801.69,-1051 0,-464.8 -355.18,-838.7 -801.69,-838.7 -507.4,0 -811.83,424.4 -811.83,899.4 h 405.9 c 0,-242.6 121.78,-495.2 405.93,-495.2 223.25,0 405.91,202.1 405.91,434.5 0,180.5 -74.57,332.5 -397.68,541.8"
         style="fill:#ffffff;fill-opacity:1;fill-rule:nonzero;stroke:none"
         transform="matrix(0.13333333,0,0,-0.13333333,0,3456)" />
      <path
         id="path56"
         d="m 6921.4,18516 v -2496 h -415.52 v 2496 h -527 v 384 H 7448.4 v -384 h -527"
         style="fill:#ffffff;fill-opacity:1;fill-rule:nonzero;stroke:none"
         transform="matrix(0.13333333,0,0,-0.13333333,0,3456)" />
    </g>
  </g>
</svg>
