<?xml version="1.0" standalone="no"?>
<svg width="1296px" height="1728px" viewBox="0 -936 1296 1728 " xmlns="http://www.w3.org/2000/svg" xmlns:xlink="http://www.w3.org/1999/xlink">
<title>generated by pstoedit</title>
<!-- generated by pstoedit version:4.02 -->
<g xml:space='preserve'>
<clipPath id="clippath1"> 	<path d="
	M 0 -936.5 
	L 0 792 
	L 1296.5 792 
	L 1296.5 -936.5 
	Z 
	" style="clip-rule:nonzero"/>
</clipPath>
<g style="clip-path:url(#clippath1)"> 
<g fill="#ffffff" fill-rule="nonzero" stroke-width="0" stroke-linejoin="miter" stroke-linecap="butt" stroke-miterlimit="10" >
	<path d="
	M 1296.25 683.75 
	C 1296.25 743.398 1247.9 791.75 1188.25 791.75 
	L 108.25 791.75 
	C 48.6016 791.75 0.25 743.398 0.25 683.75 
	L 0.25 -828.25 
	C 0.25 -887.9 48.6016 -936.25 108.25 -936.25 
	L 1188.25 -936.25 
	C 1247.9 -936.25 1296.25 -887.9 1296.25 -828.25 
	Z 
	"/>
</g>
<g stroke="#7f7f7f" fill="none" stroke-width="0.5" stroke-linejoin="miter" stroke-linecap="butt" stroke-miterlimit="4" >
	<path d="
	M 1296.25 683.75 
	C 1296.25 743.398 1247.9 791.75 1188.25 791.75 
	L 108.25 791.75 
	C 48.6016 791.75 0.25 743.398 0.25 683.75 
	L 0.25 -828.25 
	C 0.25 -887.9 48.6016 -936.25 108.25 -936.25 
	L 1188.25 -936.25 
	C 1247.9 -936.25 1296.25 -887.9 1296.25 -828.25 
	Z 
	"/>
</g>
<g fill="#96c87f" fill-rule="nonzero" stroke-width="0" stroke-linejoin="miter" stroke-linecap="butt" stroke-miterlimit="4" >
	<path d="
	M 474.418 -165.477 
	C 464.355 -145.156 451.156 -126.426 440.566 -112.879 
	C 426.324 -94.664 411.93 -79.465 400.902 -69.137 
	C 399.863 -60.715 392.691 -54.191 383.988 -54.191 
	C 374.574 -54.191 366.941 -61.824 366.941 -71.238 
	C 366.941 -80.609 374.504 -88.211 383.855 -88.281 
	C 406.395 -109.41 437.68 -146.891 453.723 -181.688 
	C 433.543 -194.453 409.633 -201.852 383.988 -201.852 
	C 311.852 -201.852 253.375 -143.375 253.375 -71.238 
	C 253.375 0.89801 311.852 59.375 383.988 59.375 
	C 456.121 59.375 514.602 0.89801 514.602 -71.238 
	C 514.602 -108.273 499.184 -141.707 474.418 -165.477 
	Z 
	"/>
</g>
<g fill="#96c87f" fill-rule="nonzero" stroke-width="0" stroke-linejoin="miter" stroke-linecap="butt" stroke-miterlimit="4" >
	<path d="
	M 508.961 -266.86 
	C 506.195 -257.91 503.398 -248.92 500.668 -240.2 
	L 668.949 -57.043 
	L 661.086 -86.938 
	L 645.52 -86.938 
	L 645.52 -99.09 
	L 684.629 -99.09 
	L 684.629 -86.938 
	L 672.254 -86.938 
	L 680.18 -56.801 
	L 738.918 -266.86 
	Z 
	"/>
</g>
<g fill="#96c87f" fill-rule="nonzero" stroke-width="0" stroke-linejoin="miter" stroke-linecap="butt" stroke-miterlimit="4" >
	<path d="
	M 912.512 89.75 
	C 839.711 89.75 778.203 41.418 758.305 -24.906 
	L 699.973 -12.344 
	C 698.398 -9.69897 696.199 -7.46899 693.574 -5.867 
	L 706.43 43 
	L 721.996 43 
	L 721.996 55.148 
	L 682.887 55.148 
	L 682.887 43 
	L 695.262 43 
	L 683.129 -3.125 
	C 673.004 -3.45697 664.898 -11.766 664.898 -21.969 
	C 664.898 -22.477 664.922 -22.977 664.961 -23.473 
	L 491.734 -212.02 
	C 489.824 -206.07 488.016 -200.52 486.352 -195.492 
	C 522.152 -165.965 544.977 -121.266 544.977 -71.238 
	C 544.977 17.672 472.898 89.75 383.988 89.75 
	C 295.078 89.75 223 17.672 223 -71.238 
	C 223 -160.148 295.078 -232.23 383.988 -232.23 
	C 413.266 -232.23 440.711 -224.41 464.367 -210.75 
	C 477.973 -252.49 498.996 -321.73 507.895 -351.21 
	L 488.68 -365.9 
	L 518.656 -396.25 
	L 588.512 -396.25 
	L 588.512 -376 
	L 527.117 -376 
	L 519.238 -368.03 
	L 535.914 -355.28 
	C 534.82 -351.64 532.609 -344.31 529.66 -334.56 
	C 526.207 -323.16 521.738 -308.45 516.855 -292.51 
	L 746.09 -292.51 
	L 750.621 -308.73 
	C 725.176 -311.16 688.863 -319.87 688.523 -330.55 
	C 688.195 -340.97 744.988 -340.71 755.691 -340.85 
	C 794.727 -341.35 829.824 -350.8 830.988 -338.19 
	C 832.188 -325.18 812.621 -311.73 777.242 -308.68 
	L 769.844 -282.21 
	L 826.277 -207.195 
	C 851.207 -223.04 880.785 -232.23 912.512 -232.23 
	C 1001.42 -232.23 1073.5 -160.148 1073.5 -71.238 
	C 1073.5 17.672 1001.42 89.75 912.512 89.75 
	Z 
	M 262.961 -629.36 
	C 313.668 -700.67 372.508 -756.53 437.848 -795.39 
	C 504.625 -835.11 575.418 -855.25 648.25 -855.25 
	C 721.086 -855.25 791.875 -835.11 858.652 -795.39 
	C 923.992 -756.53 982.832 -700.67 1033.54 -629.36 
	C 1062.67 -588.4 1088.23 -543.54 1110.05 -495.25 
	L 186.445 -495.25 
	C 208.27 -543.54 233.832 -588.4 262.961 -629.36 
	Z 
	M 648.25 -882.25 
	C 330.133 -882.25 72.25 -519.6 72.25 -72.25 
	C 72.25 375.102 330.133 737.75 648.25 737.75 
	C 966.367 737.75 1224.25 375.102 1224.25 -72.25 
	C 1224.25 -519.6 966.367 -882.25 648.25 -882.25 
	Z 
	"/>
</g>
<g fill="#96c87f" fill-rule="nonzero" stroke-width="0" stroke-linejoin="miter" stroke-linecap="butt" stroke-miterlimit="4" >
	<path d="
	M 805.793 -191.758 
	L 761.145 -251.11 
	L 701.832 -38.98 
	L 752.922 -49.984 
	C 752.008 -56.941 751.523 -64.031 751.523 -71.238 
	C 751.523 -119.203 772.512 -162.266 805.793 -191.758 
	Z 
	"/>
</g>
<g fill="#96c87f" fill-rule="nonzero" stroke-width="0" stroke-linejoin="miter" stroke-linecap="butt" stroke-miterlimit="4" >
	<path d="
	M 912.512 -201.852 
	C 887.641 -201.852 864.395 -194.895 844.605 -182.828 
	L 916.008 -87.926 
	C 923.746 -86.313 929.563 -79.453 929.563 -71.238 
	C 929.563 -61.824 921.93 -54.191 912.512 -54.191 
	C 909.508 -54.191 906.688 -54.969 904.234 -56.336 
	L 788.117 -31.328 
	C 804.988 21.285 854.297 59.375 912.512 59.375 
	C 984.645 59.375 1043.13 0.89801 1043.13 -71.238 
	C 1043.13 -143.375 984.645 -201.852 912.512 -201.852 
	Z 
	"/>
</g>
<g fill="#96c87f" fill-rule="nonzero" stroke-width="0" stroke-linejoin="miter" stroke-linecap="butt" stroke-miterlimit="4" >
	<path d="
	M 824.125 -167.391 
	C 798.172 -143.52 781.898 -109.281 781.898 -71.238 
	C 781.898 -66.223 782.191 -61.277 782.742 -56.406 
	L 890.207 -79.555 
	Z 
	"/>
</g>
<g fill="#ffffff" fill-rule="nonzero" stroke-width="0" stroke-linejoin="miter" stroke-linecap="butt" stroke-miterlimit="4" >
	<path d="
	M 852.301 272.121 
	L 749.555 407.281 
	L 852.301 407.281 
	Z 
	M 909.383 459.07 
	L 909.383 548.75 
	L 852.301 548.75 
	L 852.301 459.07 
	L 673.449 459.07 
	L 673.449 424.961 
	L 852.301 188.75 
	L 909.383 188.75 
	L 909.383 407.281 
	L 943.629 407.281 
	L 943.629 459.07 
	Z 
	"/>
</g>
<g fill="#ffffff" fill-rule="nonzero" stroke-width="0" stroke-linejoin="miter" stroke-linecap="butt" stroke-miterlimit="4" >
	<path d="
	M 531.723 272.121 
	L 428.977 407.281 
	L 531.723 407.281 
	Z 
	M 588.805 459.07 
	L 588.805 548.75 
	L 531.723 548.75 
	L 531.723 459.07 
	L 352.871 459.07 
	L 352.871 424.961 
	L 531.723 188.75 
	L 588.805 188.75 
	L 588.805 407.281 
	L 623.051 407.281 
	L 623.051 459.07 
	Z 
	"/>
</g>
<g fill="#7f7f7f" fill-rule="nonzero" stroke-width="0" stroke-linejoin="miter" stroke-linecap="butt" stroke-miterlimit="4" >
	<path d="
	M 571.898 -774.61 
	C 568.02 -771.24 562.66 -769.55 555.828 -769.55 
	C 548.895 -769.55 543.508 -771.21 539.691 -774.58 
	C 535.918 -777.93 534.008 -783.1 534.008 -790.08 
	L 534.008 -821.96 
	L 545.301 -821.96 
	L 545.301 -790.1 
	C 545.301 -788.7 545.402 -787.34 545.66 -786.01 
	C 545.879 -784.67 546.383 -783.48 547.168 -782.44 
	C 547.93 -781.42 548.961 -780.59 550.324 -779.94 
	C 551.691 -779.3 553.535 -778.97 555.828 -778.97 
	C 559.824 -778.97 562.594 -779.86 564.145 -781.65 
	C 565.648 -783.45 566.438 -786.27 566.438 -790.1 
	L 566.438 -821.96 
	L 577.727 -821.96 
	L 577.727 -790.08 
	C 577.727 -783.15 575.781 -778 571.898 -774.61 
	Z 
	"/>
</g>
<g fill="#7f7f7f" fill-rule="nonzero" stroke-width="0" stroke-linejoin="miter" stroke-linecap="butt" stroke-miterlimit="4" >
	<path d="
	M 596.016 -807.83 
	L 596.016 -802.66 
	L 596.234 -802.66 
	C 597.535 -804.82 599.223 -806.39 601.273 -807.37 
	C 603.32 -808.35 605.438 -808.84 607.602 -808.84 
	C 610.332 -808.84 612.551 -808.48 614.316 -807.73 
	C 616.043 -806.98 617.41 -805.95 618.414 -804.64 
	C 619.418 -803.32 620.141 -801.71 620.543 -799.83 
	C 620.965 -797.93 621.145 -795.83 621.145 -793.55 
	L 621.145 -770.7 
	L 610.941 -770.7 
	L 610.941 -791.67 
	C 610.941 -794.73 610.477 -797.02 609.496 -798.53 
	C 608.566 -800.04 606.879 -800.79 604.43 -800.79 
	C 601.66 -800.79 599.648 -799.96 598.398 -798.31 
	C 597.176 -796.67 596.531 -793.94 596.531 -790.16 
	L 596.531 -770.7 
	L 586.309 -770.7 
	L 586.309 -807.83 
	Z 
	"/>
</g>
<g fill="#7f7f7f" fill-rule="nonzero" stroke-width="0" stroke-linejoin="miter" stroke-linecap="butt" stroke-miterlimit="4" >
	<path d="
	M 639.371 -807.82 
	L 639.371 -770.7 
	L 629.16 -770.7 
	L 629.16 -807.82 
	Z 
	M 629.16 -813.55 
	L 629.16 -821.96 
	L 639.371 -821.96 
	L 639.371 -813.55 
	Z 
	"/>
</g>
<g fill="#7f7f7f" fill-rule="nonzero" stroke-width="0" stroke-linejoin="miter" stroke-linecap="butt" stroke-miterlimit="4" >
	<path d="
	M 656.445 -784.89 
	C 656.73 -783.48 657.234 -782.21 657.918 -781.07 
	C 658.602 -779.95 659.539 -779.06 660.648 -778.39 
	C 661.77 -777.73 663.176 -777.39 664.863 -777.39 
	C 666.516 -777.39 667.918 -777.71 669.063 -778.36 
	C 670.172 -779 671.074 -779.86 671.758 -780.93 
	C 672.48 -782.02 672.98 -783.27 673.266 -784.67 
	C 673.59 -786.09 673.742 -787.56 673.742 -789.09 
	C 673.742 -790.52 673.59 -791.97 673.266 -793.39 
	C 672.98 -794.82 672.48 -796.13 671.797 -797.27 
	C 671.152 -798.41 670.25 -799.35 669.141 -800.07 
	C 667.98 -800.79 666.652 -801.14 665.066 -801.14 
	C 663.383 -801.14 661.988 -800.82 660.828 -800.14 
	C 659.684 -799.48 658.754 -798.58 658.031 -797.46 
	C 657.313 -796.32 656.809 -795.06 656.484 -793.64 
	C 656.199 -792.23 656.02 -790.75 656.02 -789.23 
	C 656.02 -787.75 656.16 -786.31 656.445 -784.89 
	Z 
	M 673.383 -757.72 
	L 673.383 -775.38 
	L 673.238 -775.38 
	C 672.055 -773.36 670.352 -771.93 668.199 -771.06 
	C 666.047 -770.2 663.855 -769.77 661.551 -769.77 
	C 659.82 -769.77 658.031 -770.09 656.199 -770.74 
	C 654.359 -771.38 652.672 -772.46 651.125 -773.98 
	C 649.578 -775.47 648.324 -777.46 647.32 -779.93 
	C 646.305 -782.39 645.801 -785.42 645.801 -789.02 
	C 645.801 -791.55 646.16 -794.03 646.816 -796.41 
	C 647.5 -798.81 648.508 -800.92 649.898 -802.78 
	C 651.305 -804.62 653.031 -806.09 655.117 -807.19 
	C 657.203 -808.29 659.645 -808.84 662.488 -808.84 
	C 664.785 -808.84 666.938 -808.4 668.961 -807.51 
	C 671.012 -806.62 672.582 -805.15 673.742 -803.09 
	L 673.887 -803.09 
	L 673.887 -807.83 
	L 683.59 -807.83 
	L 683.59 -757.72 
	Z 
	"/>
</g>
<g fill="#7f7f7f" fill-rule="nonzero" stroke-width="0" stroke-linejoin="miter" stroke-linecap="butt" stroke-miterlimit="4" >
	<path d="
	M 716.375 -770.71 
	L 716.375 -775.88 
	L 716.156 -775.88 
	C 714.855 -773.71 713.207 -772.17 711.117 -771.2 
	C 709.066 -770.23 706.992 -769.77 704.828 -769.77 
	C 702.098 -769.77 699.867 -770.12 698.113 -770.84 
	C 696.348 -771.56 694.98 -772.58 693.977 -773.89 
	C 692.973 -775.2 692.289 -776.81 691.852 -778.7 
	C 691.465 -780.59 691.246 -782.69 691.246 -784.98 
	L 691.246 -807.79 
	L 701.453 -807.79 
	L 701.453 -786.86 
	C 701.453 -783.8 701.953 -781.51 702.895 -780 
	C 703.863 -778.5 705.551 -777.75 708 -777.75 
	C 710.758 -777.75 712.777 -778.57 713.988 -780.21 
	C 715.258 -781.88 715.859 -784.58 715.859 -788.36 
	L 715.859 -807.79 
	L 726.082 -807.79 
	L 726.082 -770.71 
	Z 
	"/>
</g>
<g fill="#7f7f7f" fill-rule="nonzero" stroke-width="0" stroke-linejoin="miter" stroke-linecap="butt" stroke-miterlimit="4" >
	<path d="
	M 756.266 -799.13 
	C 755.055 -800.47 753.188 -801.14 750.695 -801.14 
	C 749.09 -801.14 747.723 -800.87 746.641 -800.32 
	C 745.555 -799.77 744.691 -799.09 744.047 -798.27 
	C 743.402 -797.46 742.965 -796.59 742.68 -795.68 
	C 742.438 -794.77 742.281 -793.96 742.219 -793.24 
	L 758.832 -793.24 
	C 758.313 -795.83 757.488 -797.79 756.266 -799.13 
	Z 
	M 744.73 -779.61 
	C 746.277 -778.13 748.469 -777.39 751.344 -777.39 
	C 753.391 -777.39 755.156 -777.91 756.664 -778.92 
	C 758.148 -779.95 759.035 -781.02 759.395 -782.17 
	L 768.355 -782.17 
	C 766.91 -777.73 764.723 -774.54 761.73 -772.63 
	C 758.793 -770.71 755.195 -769.77 750.98 -769.77 
	C 748.082 -769.77 745.414 -770.23 743.082 -771.16 
	C 740.75 -772.11 738.766 -773.43 737.113 -775.14 
	C 735.488 -776.87 734.238 -778.93 733.336 -781.33 
	C 732.473 -783.71 732.012 -786.36 732.012 -789.23 
	C 732.012 -792 732.473 -794.59 733.379 -796.99 
	C 734.305 -799.39 735.605 -801.45 737.254 -803.2 
	C 738.945 -804.94 740.953 -806.32 743.262 -807.33 
	C 745.594 -808.33 748.145 -808.84 750.98 -808.84 
	C 754.152 -808.84 756.887 -808.23 759.258 -807.01 
	C 761.59 -805.78 763.496 -804.14 765.004 -802.08 
	C 766.512 -800.02 767.633 -797.68 768.277 -795.03 
	C 768.961 -792.4 769.18 -789.64 769 -786.77 
	L 742.219 -786.77 
	C 742.355 -783.47 743.223 -781.09 744.73 -779.61 
	Z 
	"/>
</g>
<g fill="#7f7f7f" fill-rule="nonzero" stroke-width="0" stroke-linejoin="miter" stroke-linecap="butt" stroke-miterlimit="4" >
	<path d="
	M 490.949 -695.57 
	C 492.059 -696.23 493 -697.12 493.684 -698.19 
	C 494.367 -699.26 494.867 -700.52 495.152 -701.97 
	C 495.434 -703.4 495.59 -704.86 495.59 -706.34 
	C 495.59 -707.82 495.41 -709.27 495.113 -710.72 
	C 494.789 -712.15 494.289 -713.43 493.566 -714.56 
	C 492.855 -715.68 491.918 -716.6 490.809 -717.28 
	C 489.688 -717.98 488.32 -718.32 486.711 -718.32 
	C 485.02 -718.32 483.617 -717.98 482.496 -717.28 
	C 481.387 -716.6 480.484 -715.69 479.801 -714.6 
	C 479.078 -713.49 478.617 -712.23 478.332 -710.78 
	C 478.047 -709.36 477.895 -707.87 477.895 -706.34 
	C 477.895 -704.86 478.047 -703.4 478.371 -701.97 
	C 478.656 -700.52 479.156 -699.26 479.879 -698.19 
	C 480.563 -697.12 481.453 -696.23 482.609 -695.57 
	C 483.758 -694.89 485.164 -694.57 486.773 -694.57 
	C 488.438 -694.57 489.828 -694.89 490.949 -695.57 
	Z 
	M 477.754 -725 
	L 477.754 -720.27 
	L 477.895 -720.27 
	C 479.117 -722.28 480.703 -723.75 482.609 -724.65 
	C 484.543 -725.57 486.633 -726.02 488.938 -726.02 
	C 491.852 -726.02 494.367 -725.48 496.453 -724.37 
	C 498.566 -723.27 500.293 -721.8 501.699 -719.98 
	C 503.102 -718.17 504.109 -716.04 504.793 -713.63 
	C 505.438 -711.21 505.797 -708.68 505.797 -706.05 
	C 505.797 -703.57 505.438 -701.17 504.793 -698.88 
	C 504.109 -696.57 503.102 -694.55 501.734 -692.75 
	C 500.371 -690.98 498.672 -689.58 496.633 -688.52 
	C 494.609 -687.47 492.238 -686.94 489.508 -686.94 
	C 487.215 -686.94 485.086 -687.42 483.152 -688.34 
	C 481.246 -689.29 479.621 -690.65 478.395 -692.48 
	L 478.254 -692.48 
	L 478.254 -674.9 
	L 468.047 -674.9 
	L 468.047 -725 
	Z 
	"/>
</g>
<g fill="#7f7f7f" fill-rule="nonzero" stroke-width="0" stroke-linejoin="miter" stroke-linecap="butt" stroke-miterlimit="4" >
	<path d="
	M 522.395 -725 
	L 522.395 -687.88 
	L 512.188 -687.88 
	L 512.188 -725 
	Z 
	M 512.188 -730.73 
	L 512.188 -739.14 
	L 522.395 -739.14 
	L 522.395 -730.73 
	Z 
	"/>
</g>
<g fill="#7f7f7f" fill-rule="nonzero" stroke-width="0" stroke-linejoin="miter" stroke-linecap="butt" stroke-miterlimit="4" >
	<path d="
	M 548.133 -718.32 
	C 546.523 -718.32 545.156 -717.96 544.074 -717.21 
	C 542.965 -716.48 542.063 -715.51 541.383 -714.34 
	C 540.66 -713.16 540.195 -711.88 539.91 -710.46 
	C 539.617 -709.05 539.473 -707.65 539.473 -706.27 
	C 539.473 -704.93 539.617 -703.57 539.91 -702.17 
	C 540.195 -700.78 540.66 -699.53 541.305 -698.39 
	C 541.961 -697.28 542.824 -696.36 543.934 -695.64 
	C 545.016 -694.93 546.344 -694.57 547.93 -694.57 
	C 550.363 -694.57 552.273 -695.25 553.574 -696.62 
	C 554.902 -697.97 555.727 -699.8 556.047 -702.11 
	L 565.895 -702.11 
	C 565.211 -697.17 563.305 -693.41 560.145 -690.83 
	C 556.977 -688.24 552.953 -686.94 547.992 -686.94 
	C 545.223 -686.94 542.672 -687.42 540.375 -688.34 
	C 538.043 -689.29 536.059 -690.59 534.449 -692.25 
	C 532.785 -693.94 531.535 -695.94 530.633 -698.25 
	C 529.703 -700.57 529.266 -703.13 529.266 -705.91 
	C 529.266 -708.79 529.668 -711.45 530.531 -713.91 
	C 531.355 -716.39 532.578 -718.52 534.227 -720.31 
	C 535.84 -722.1 537.824 -723.5 540.195 -724.51 
	C 542.527 -725.52 545.223 -726.02 548.211 -726.02 
	C 550.441 -726.02 552.555 -725.73 554.578 -725.15 
	C 556.629 -724.59 558.418 -723.71 560.043 -722.54 
	C 561.617 -721.38 562.941 -719.91 563.961 -718.17 
	C 564.969 -716.41 565.535 -714.36 565.676 -711.97 
	L 555.688 -711.97 
	C 555.004 -716.21 552.531 -718.32 548.133 -718.32 
	Z 
	"/>
</g>
<g fill="#7f7f7f" fill-rule="nonzero" stroke-width="0" stroke-linejoin="miter" stroke-linecap="butt" stroke-miterlimit="4" >
	<path d="
	M 591.992 -725.01 
	L 591.992 -718.18 
	L 584.559 -718.18 
	L 584.559 -699.8 
	C 584.559 -698.07 584.84 -696.94 585.422 -696.36 
	C 585.988 -695.78 587.148 -695.5 588.859 -695.5 
	C 589.441 -695.5 589.98 -695.52 590.484 -695.57 
	C 591.027 -695.61 591.527 -695.69 591.992 -695.78 
	L 591.992 -687.88 
	C 591.129 -687.74 590.203 -687.64 589.156 -687.6 
	C 588.074 -687.55 587.07 -687.52 586.063 -687.52 
	C 584.48 -687.52 582.969 -687.62 581.566 -687.84 
	C 580.137 -688.06 578.91 -688.49 577.828 -689.11 
	C 576.762 -689.73 575.895 -690.61 575.277 -691.75 
	C 574.633 -692.91 574.352 -694.41 574.352 -696.29 
	L 574.352 -718.18 
	L 568.164 -718.18 
	L 568.164 -725.01 
	L 574.352 -725.01 
	L 574.352 -736.12 
	L 584.559 -736.12 
	L 584.559 -725.01 
	Z 
	"/>
</g>
<g fill="#7f7f7f" fill-rule="nonzero" stroke-width="0" stroke-linejoin="miter" stroke-linecap="butt" stroke-miterlimit="4" >
	<path d="
	M 606.375 -702.07 
	C 606.66 -700.65 607.125 -699.39 607.848 -698.25 
	C 608.527 -697.13 609.43 -696.23 610.578 -695.57 
	C 611.727 -694.89 613.168 -694.57 614.895 -694.57 
	C 616.621 -694.57 618.055 -694.89 619.199 -695.57 
	C 620.398 -696.23 621.328 -697.13 622.012 -698.25 
	C 622.691 -699.39 623.195 -700.65 623.48 -702.07 
	C 623.773 -703.48 623.918 -704.93 623.918 -706.41 
	C 623.918 -707.89 623.773 -709.36 623.48 -710.78 
	C 623.195 -712.23 622.691 -713.49 622.012 -714.6 
	C 621.328 -715.69 620.398 -716.6 619.199 -717.28 
	C 618.055 -717.98 616.621 -718.32 614.895 -718.32 
	C 613.168 -718.32 611.727 -717.98 610.578 -717.28 
	C 609.43 -716.6 608.527 -715.69 607.848 -714.6 
	C 607.125 -713.49 606.66 -712.23 606.375 -710.78 
	C 606.078 -709.36 605.938 -707.89 605.938 -706.41 
	C 605.938 -704.93 606.078 -703.48 606.375 -702.07 
	Z 
	M 597.098 -714.5 
	C 598 -716.91 599.289 -718.97 600.949 -720.67 
	C 602.641 -722.37 604.648 -723.68 606.98 -724.61 
	C 609.313 -725.55 611.98 -726.02 614.895 -726.02 
	C 617.809 -726.02 620.426 -725.55 622.797 -724.61 
	C 625.168 -723.68 627.191 -722.37 628.879 -720.67 
	C 630.566 -718.97 631.855 -716.91 632.758 -714.5 
	C 633.66 -712.07 634.125 -709.38 634.125 -706.41 
	C 634.125 -703.45 633.66 -700.76 632.758 -698.37 
	C 631.855 -695.96 630.566 -693.93 628.879 -692.23 
	C 627.191 -690.52 625.168 -689.22 622.797 -688.31 
	C 620.426 -687.4 617.809 -686.94 614.895 -686.94 
	C 611.98 -686.94 609.313 -687.4 606.98 -688.31 
	C 604.648 -689.22 602.641 -690.52 600.949 -692.23 
	C 599.289 -693.93 598 -695.96 597.098 -698.37 
	C 596.168 -700.76 595.73 -703.45 595.73 -706.41 
	C 595.73 -709.38 596.168 -712.07 597.098 -714.5 
	Z 
	"/>
</g>
<g fill="#7f7f7f" fill-rule="nonzero" stroke-width="0" stroke-linejoin="miter" stroke-linecap="butt" stroke-miterlimit="4" >
	<path d="
	M 661.832 -697.51 
	C 662.953 -698.09 663.855 -698.85 664.566 -699.8 
	C 665.285 -700.77 665.832 -701.85 666.191 -703.07 
	C 666.551 -704.3 666.73 -705.58 666.73 -706.91 
	C 666.73 -708.45 666.59 -709.89 666.293 -711.26 
	C 666.012 -712.61 665.508 -713.82 664.863 -714.88 
	C 664.18 -715.94 663.313 -716.78 662.191 -717.39 
	C 661.09 -718.02 659.723 -718.32 658.031 -718.32 
	C 656.59 -718.32 655.363 -718.04 654.316 -717.46 
	C 653.313 -716.89 652.449 -716.12 651.77 -715.14 
	C 651.059 -714.14 650.559 -713.02 650.262 -711.77 
	C 649.938 -710.49 649.797 -709.16 649.797 -707.78 
	C 649.797 -706.44 649.898 -705.11 650.195 -703.8 
	C 650.441 -702.47 650.918 -701.29 651.563 -700.24 
	C 652.207 -699.18 653.031 -698.32 654.074 -697.66 
	C 655.156 -696.98 656.445 -696.64 658.031 -696.64 
	C 659.461 -696.64 660.727 -696.94 661.832 -697.51 
	Z 
	M 675.816 -685.14 
	C 675.395 -683.23 674.527 -681.44 673.199 -679.79 
	C 671.836 -678.14 669.891 -676.73 667.375 -675.59 
	C 664.824 -674.44 661.445 -673.87 657.168 -673.87 
	C 655.363 -673.87 653.496 -674.09 651.586 -674.54 
	C 649.719 -675.01 648.004 -675.7 646.457 -676.67 
	C 644.875 -677.62 643.582 -678.86 642.566 -680.37 
	C 641.535 -681.88 640.957 -683.68 640.813 -685.79 
	L 650.918 -685.79 
	C 651.418 -683.89 652.348 -682.54 653.715 -681.8 
	C 655.117 -681.06 656.703 -680.69 658.531 -680.69 
	C 661.41 -680.69 663.496 -681.55 664.824 -683.28 
	C 666.113 -685.01 666.77 -687.18 666.73 -689.81 
	L 666.73 -694.71 
	L 666.59 -694.71 
	C 665.469 -692.74 663.922 -691.3 661.871 -690.36 
	C 659.82 -689.43 657.711 -688.96 655.441 -688.96 
	C 652.672 -688.96 650.262 -689.45 648.25 -690.43 
	C 646.238 -691.41 644.613 -692.75 643.328 -694.45 
	C 642.035 -696.16 641.059 -698.14 640.488 -700.42 
	C 639.871 -702.69 639.59 -705.1 639.59 -707.63 
	C 639.59 -710.02 639.91 -712.33 640.633 -714.56 
	C 641.313 -716.79 642.32 -718.75 643.688 -720.46 
	C 645.016 -722.15 646.664 -723.5 648.648 -724.51 
	C 650.66 -725.52 652.93 -726.02 655.52 -726.02 
	C 657.953 -726.02 660.117 -725.57 661.949 -724.65 
	C 663.781 -723.75 665.328 -722.2 666.59 -720.05 
	L 666.73 -720.05 
	L 666.73 -725 
	L 676.438 -725 
	L 676.438 -690.24 
	C 676.438 -688.76 676.219 -687.05 675.816 -685.14 
	Z 
	"/>
</g>
<g fill="#7f7f7f" fill-rule="nonzero" stroke-width="0" stroke-linejoin="miter" stroke-linecap="butt" stroke-miterlimit="4" >
	<path d="
	M 694.301 -725 
	L 694.301 -718.12 
	L 694.441 -718.12 
	C 694.902 -719.26 695.563 -720.33 696.387 -721.31 
	C 697.176 -722.29 698.113 -723.13 699.184 -723.82 
	C 700.227 -724.52 701.352 -725.06 702.535 -725.45 
	C 703.758 -725.82 704.973 -726.02 706.27 -726.02 
	C 706.957 -726.02 707.703 -725.9 708.504 -725.66 
	L 708.504 -716.17 
	C 708.023 -716.27 707.461 -716.35 706.773 -716.41 
	C 706.129 -716.49 705.473 -716.53 704.828 -716.53 
	C 702.961 -716.53 701.371 -716.21 700.125 -715.59 
	C 698.82 -714.97 697.789 -714.12 696.992 -713.04 
	C 696.207 -711.97 695.625 -710.72 695.305 -709.27 
	C 694.941 -707.85 694.805 -706.29 694.805 -704.61 
	L 694.805 -687.88 
	L 684.594 -687.88 
	L 684.594 -725 
	Z 
	"/>
</g>
<g fill="#7f7f7f" fill-rule="nonzero" stroke-width="0" stroke-linejoin="miter" stroke-linecap="butt" stroke-miterlimit="4" >
	<path d="
	M 733.98 -705.15 
	C 733.336 -704.93 732.652 -704.75 731.895 -704.61 
	C 731.184 -704.46 730.387 -704.35 729.602 -704.25 
	C 728.773 -704.16 727.949 -704.04 727.152 -703.89 
	C 726.402 -703.75 725.645 -703.57 724.895 -703.32 
	C 724.137 -703.09 723.492 -702.77 722.949 -702.36 
	C 722.406 -701.94 721.98 -701.43 721.621 -700.81 
	C 721.301 -700.19 721.121 -699.4 721.121 -698.44 
	C 721.121 -697.53 721.301 -696.76 721.621 -696.14 
	C 721.98 -695.52 722.406 -695.03 722.988 -694.67 
	C 723.555 -694.31 724.238 -694.07 725 -693.91 
	C 725.746 -693.77 726.547 -693.7 727.367 -693.7 
	C 729.379 -693.7 730.93 -694.04 732.012 -694.71 
	C 733.117 -695.37 733.941 -696.18 734.445 -697.11 
	C 734.988 -698.04 735.309 -698.99 735.426 -699.94 
	C 735.566 -700.9 735.605 -701.67 735.605 -702.25 
	L 735.605 -706.05 
	C 735.168 -705.66 734.625 -705.37 733.98 -705.15 
	Z 
	M 713.852 -719.56 
	C 714.895 -721.14 716.262 -722.41 717.883 -723.36 
	C 719.496 -724.31 721.324 -725 723.375 -725.41 
	C 725.426 -725.81 727.445 -726.02 729.523 -726.02 
	C 731.391 -726.02 733.262 -725.89 735.207 -725.62 
	C 737.113 -725.36 738.844 -724.84 740.414 -724.08 
	C 741.996 -723.31 743.301 -722.24 744.305 -720.89 
	C 745.313 -719.52 745.813 -717.7 745.813 -715.46 
	L 745.813 -696.14 
	C 745.813 -694.47 745.918 -692.86 746.098 -691.34 
	C 746.316 -689.79 746.641 -688.64 747.102 -687.88 
	L 736.754 -687.88 
	C 736.57 -688.45 736.43 -689.04 736.289 -689.64 
	C 736.172 -690.24 736.109 -690.86 736.031 -691.48 
	C 734.422 -689.79 732.512 -688.63 730.285 -687.95 
	C 728.094 -687.27 725.863 -686.94 723.555 -686.94 
	C 721.766 -686.94 720.141 -687.16 718.594 -687.6 
	C 717.059 -688.02 715.719 -688.69 714.574 -689.61 
	C 713.426 -690.51 712.523 -691.66 711.879 -693.05 
	C 711.234 -694.44 710.91 -696.08 710.91 -698.01 
	C 710.91 -700.11 711.297 -701.84 712.02 -703.2 
	C 712.777 -704.57 713.707 -705.66 714.895 -706.48 
	C 716.078 -707.29 717.406 -707.89 718.93 -708.31 
	C 720.438 -708.72 721.945 -709.04 723.492 -709.27 
	C 725 -709.52 726.508 -709.71 728.016 -709.86 
	C 729.496 -710 730.785 -710.22 731.934 -710.5 
	C 733.078 -710.78 734.02 -711.21 734.668 -711.77 
	C 735.348 -712.3 735.672 -713.1 735.605 -714.16 
	C 735.605 -715.25 735.426 -716.13 735.066 -716.78 
	C 734.703 -717.43 734.238 -717.94 733.621 -718.28 
	C 733.055 -718.64 732.332 -718.89 731.57 -719.01 
	C 730.785 -719.12 729.922 -719.19 729.02 -719.19 
	C 727.008 -719.19 725.426 -718.76 724.277 -717.89 
	C 723.129 -717.05 722.484 -715.61 722.266 -713.62 
	L 712.059 -713.62 
	C 712.203 -716 712.809 -717.98 713.852 -719.56 
	Z 
	"/>
</g>
<g fill="#7f7f7f" fill-rule="nonzero" stroke-width="0" stroke-linejoin="miter" stroke-linecap="butt" stroke-miterlimit="4" >
	<path d="
	M 776.613 -695.57 
	C 777.738 -696.23 778.629 -697.12 779.309 -698.19 
	C 780.031 -699.26 780.492 -700.52 780.793 -701.97 
	C 781.074 -703.4 781.215 -704.86 781.215 -706.34 
	C 781.215 -707.82 781.074 -709.27 780.754 -710.72 
	C 780.473 -712.15 779.93 -713.43 779.207 -714.56 
	C 778.523 -715.68 777.582 -716.6 776.473 -717.28 
	C 775.367 -717.98 773.961 -718.32 772.336 -718.32 
	C 770.688 -718.32 769.281 -717.98 768.176 -717.28 
	C 767.055 -716.6 766.125 -715.69 765.441 -714.6 
	C 764.762 -713.49 764.258 -712.23 763.961 -710.78 
	C 763.68 -709.36 763.535 -707.87 763.535 -706.34 
	C 763.535 -704.86 763.715 -703.4 763.996 -701.97 
	C 764.32 -700.52 764.82 -699.26 765.508 -698.19 
	C 766.188 -697.12 767.133 -696.23 768.277 -695.57 
	C 769.426 -694.89 770.789 -694.57 772.414 -694.57 
	C 774.102 -694.57 775.508 -694.89 776.613 -695.57 
	Z 
	M 763.395 -725 
	L 763.395 -720.27 
	L 763.535 -720.27 
	C 764.797 -722.28 766.371 -723.75 768.277 -724.65 
	C 770.188 -725.57 772.297 -726.02 774.566 -726.02 
	C 777.52 -726.02 779.992 -725.48 782.117 -724.37 
	C 784.207 -723.27 785.957 -721.8 787.363 -719.98 
	C 788.73 -718.17 789.773 -716.04 790.418 -713.63 
	C 791.102 -711.21 791.422 -708.68 791.422 -706.05 
	C 791.422 -703.57 791.102 -701.17 790.418 -698.88 
	C 789.773 -696.57 788.73 -694.55 787.402 -692.75 
	C 786.035 -690.98 784.309 -689.58 782.301 -688.52 
	C 780.25 -687.47 777.879 -686.94 775.145 -686.94 
	C 772.879 -686.94 770.754 -687.42 768.82 -688.34 
	C 766.871 -689.29 765.301 -690.65 764.039 -692.48 
	L 763.895 -692.48 
	L 763.895 -674.9 
	L 753.688 -674.9 
	L 753.688 -725 
	Z 
	"/>
</g>
<g fill="#7f7f7f" fill-rule="nonzero" stroke-width="0" stroke-linejoin="miter" stroke-linecap="butt" stroke-miterlimit="4" >
	<path d="
	M 807.754 -739.14 
	L 807.754 -719.83 
	L 807.961 -719.83 
	C 809.262 -722 810.91 -723.57 812.922 -724.55 
	C 814.93 -725.53 816.918 -726.02 818.824 -726.02 
	C 821.559 -726.02 823.773 -725.66 825.539 -724.91 
	C 827.266 -724.16 828.633 -723.13 829.637 -721.81 
	C 830.641 -720.5 831.363 -718.89 831.766 -717.01 
	C 832.188 -715.11 832.367 -713.01 832.367 -710.72 
	L 832.367 -687.88 
	L 822.16 -687.88 
	L 822.16 -708.85 
	C 822.16 -711.9 821.699 -714.2 820.719 -715.71 
	C 819.793 -717.21 818.102 -717.96 815.652 -717.96 
	C 812.883 -717.96 810.871 -717.14 809.621 -715.48 
	C 808.398 -713.84 807.754 -711.12 807.754 -707.33 
	L 807.754 -687.88 
	L 797.531 -687.88 
	L 797.531 -739.14 
	Z 
	"/>
</g>
<g fill="#7f7f7f" fill-rule="nonzero" stroke-width="0" stroke-linejoin="miter" stroke-linecap="butt" stroke-miterlimit="4" >
	<path d="
	M 446.949 -622.32 
	C 446.305 -622.1 445.621 -621.92 444.863 -621.78 
	C 444.113 -621.64 443.355 -621.53 442.527 -621.41 
	C 441.73 -621.36 440.906 -621.21 440.082 -621.07 
	C 439.332 -620.91 438.57 -620.73 437.813 -620.49 
	C 437.105 -620.27 436.445 -619.95 435.918 -619.54 
	C 435.336 -619.12 434.914 -618.62 434.574 -617.99 
	C 434.23 -617.36 434.074 -616.57 434.074 -615.62 
	C 434.074 -614.7 434.23 -613.94 434.574 -613.34 
	C 434.914 -612.69 435.375 -612.21 435.941 -611.86 
	C 436.523 -611.5 437.168 -611.25 437.93 -611.11 
	C 438.715 -610.96 439.512 -610.89 440.301 -610.89 
	C 442.309 -610.89 443.855 -611.21 444.977 -611.89 
	C 446.086 -612.55 446.871 -613.37 447.414 -614.29 
	C 447.914 -615.22 448.238 -616.17 448.379 -617.13 
	C 448.496 -618.08 448.563 -618.85 448.563 -619.43 
	L 448.563 -623.22 
	C 448.137 -622.85 447.594 -622.54 446.949 -622.32 
	Z 
	M 426.816 -636.74 
	C 427.859 -638.31 429.188 -639.57 430.84 -640.54 
	C 432.465 -641.5 434.293 -642.18 436.305 -642.59 
	C 438.352 -642.99 440.402 -643.21 442.449 -643.21 
	C 444.32 -643.21 446.227 -643.07 448.137 -642.81 
	C 450.043 -642.54 451.793 -642.02 453.383 -641.27 
	C 454.965 -640.49 456.254 -639.43 457.262 -638.07 
	C 458.266 -636.7 458.781 -634.89 458.781 -632.64 
	L 458.781 -613.31 
	C 458.781 -611.65 458.844 -610.02 459.066 -608.52 
	C 459.246 -606.97 459.566 -605.82 460.07 -605.06 
	L 449.719 -605.06 
	C 449.5 -605.64 449.359 -606.22 449.242 -606.83 
	C 449.102 -607.42 449.039 -608.02 449 -608.66 
	C 447.352 -606.97 445.441 -605.81 443.25 -605.14 
	C 441.047 -604.46 438.793 -604.14 436.484 -604.14 
	C 434.73 -604.14 433.07 -604.35 431.523 -604.78 
	C 430.016 -605.21 428.688 -605.86 427.539 -606.79 
	C 426.395 -607.69 425.492 -608.84 424.848 -610.23 
	C 424.188 -611.61 423.867 -613.26 423.867 -615.19 
	C 423.867 -617.29 424.227 -619.02 424.988 -620.38 
	C 425.711 -621.75 426.676 -622.85 427.859 -623.64 
	C 429.008 -624.48 430.336 -625.09 431.844 -625.49 
	C 433.363 -625.9 434.914 -626.22 436.422 -626.46 
	C 437.965 -626.7 439.473 -626.88 440.945 -627.04 
	C 442.414 -627.18 443.754 -627.38 444.902 -627.68 
	C 446.047 -627.96 446.949 -628.4 447.633 -628.93 
	C 448.277 -629.47 448.598 -630.28 448.563 -631.34 
	C 448.563 -632.44 448.379 -633.32 448.031 -633.97 
	C 447.672 -634.61 447.195 -635.12 446.59 -635.48 
	C 445.984 -635.84 445.301 -636.07 444.5 -636.2 
	C 443.715 -636.3 442.852 -636.38 441.949 -636.38 
	C 439.938 -636.38 438.352 -635.94 437.246 -635.08 
	C 436.098 -634.21 435.414 -632.8 435.234 -630.8 
	L 425.027 -630.8 
	C 425.168 -633.17 425.734 -635.17 426.816 -636.74 
	Z 
	"/>
</g>
<g fill="#7f7f7f" fill-rule="nonzero" stroke-width="0" stroke-linejoin="miter" stroke-linecap="butt" stroke-miterlimit="4" >
	<path d="
	M 476.348 -642.18 
	L 476.348 -637.02 
	L 476.566 -637.02 
	C 477.867 -639.18 479.52 -640.75 481.605 -641.73 
	C 483.656 -642.71 485.73 -643.21 487.895 -643.21 
	C 490.629 -643.21 492.855 -642.82 494.609 -642.09 
	C 496.375 -641.34 497.742 -640.31 498.746 -639 
	C 499.754 -637.67 500.438 -636.07 500.871 -634.19 
	C 501.262 -632.28 501.48 -630.19 501.48 -627.89 
	L 501.48 -605.06 
	L 491.273 -605.06 
	L 491.273 -626.02 
	C 491.273 -629.08 490.77 -631.38 489.828 -632.89 
	C 488.863 -634.39 487.176 -635.16 484.723 -635.16 
	C 481.969 -635.16 479.941 -634.33 478.73 -632.67 
	C 477.469 -631.02 476.852 -628.29 476.852 -624.51 
	L 476.852 -605.06 
	L 466.645 -605.06 
	L 466.645 -642.18 
	Z 
	"/>
</g>
<g fill="#7f7f7f" fill-rule="nonzero" stroke-width="0" stroke-linejoin="miter" stroke-linecap="butt" stroke-miterlimit="4" >
	<path d="
	M 535.133 -628.14 
	C 534.836 -629.55 534.332 -630.8 533.648 -631.88 
	C 532.965 -632.96 532.078 -633.83 530.953 -634.51 
	C 529.848 -635.17 528.48 -635.52 526.793 -635.52 
	C 525.129 -635.52 523.699 -635.17 522.539 -634.51 
	C 521.43 -633.83 520.488 -632.94 519.82 -631.84 
	C 519.098 -630.73 518.594 -629.47 518.297 -628.07 
	C 517.977 -626.67 517.836 -625.19 517.836 -623.64 
	C 517.836 -622.21 517.977 -620.77 518.336 -619.36 
	C 518.66 -617.91 519.199 -616.63 519.961 -615.51 
	C 520.672 -614.38 521.609 -613.48 522.719 -612.8 
	C 523.879 -612.1 525.207 -611.75 526.793 -611.75 
	C 528.48 -611.75 529.871 -612.07 530.992 -612.76 
	C 532.102 -613.4 533.004 -614.3 533.688 -615.44 
	C 534.332 -616.57 534.836 -617.85 535.133 -619.28 
	C 535.414 -620.71 535.555 -622.21 535.555 -623.73 
	C 535.555 -625.27 535.414 -626.74 535.133 -628.14 
	Z 
	M 535.555 -609.79 
	C 534.332 -607.78 532.785 -606.32 530.852 -605.46 
	C 528.906 -604.56 526.715 -604.14 524.266 -604.14 
	C 521.508 -604.14 519.059 -604.67 516.934 -605.74 
	C 514.855 -606.83 513.129 -608.27 511.766 -610.11 
	C 510.398 -611.97 509.355 -614.08 508.672 -616.48 
	C 507.949 -618.86 507.629 -621.36 507.629 -623.95 
	C 507.629 -626.44 507.949 -628.84 508.672 -631.16 
	C 509.355 -633.5 510.398 -635.53 511.766 -637.31 
	C 513.129 -639.07 514.82 -640.5 516.867 -641.59 
	C 518.957 -642.67 521.328 -643.21 524.059 -643.21 
	C 526.25 -643.21 528.363 -642.73 530.352 -641.81 
	C 532.32 -640.86 533.906 -639.48 535.055 -637.67 
	L 535.195 -637.67 
	L 535.195 -656.33 
	L 545.402 -656.33 
	L 545.402 -605.06 
	L 535.699 -605.06 
	L 535.699 -609.79 
	Z 
	"/>
</g>
<g fill="#7f7f7f" fill-rule="nonzero" stroke-width="0" stroke-linejoin="miter" stroke-linecap="butt" stroke-miterlimit="4" >
	<path d="
	M 576.605 -657.55 
	L 556.551 -603.91 
	L 548.457 -603.91 
	L 568.406 -657.55 
	Z 
	"/>
</g>
<g fill="#7f7f7f" fill-rule="nonzero" stroke-width="0" stroke-linejoin="miter" stroke-linecap="butt" stroke-miterlimit="4" >
	<path d="
	M 589.195 -619.25 
	C 589.48 -617.83 589.945 -616.57 590.668 -615.44 
	C 591.348 -614.3 592.25 -613.4 593.398 -612.76 
	C 594.547 -612.07 595.988 -611.75 597.715 -611.75 
	C 599.43 -611.75 600.875 -612.07 602.02 -612.76 
	C 603.207 -613.4 604.145 -614.3 604.828 -615.44 
	C 605.512 -616.57 606.016 -617.83 606.301 -619.25 
	C 606.582 -620.67 606.738 -622.1 606.738 -623.58 
	C 606.738 -625.07 606.582 -626.52 606.301 -627.96 
	C 606.016 -629.41 605.512 -630.66 604.828 -631.78 
	C 604.145 -632.88 603.207 -633.77 602.02 -634.47 
	C 600.875 -635.16 599.43 -635.52 597.715 -635.52 
	C 595.988 -635.52 594.547 -635.16 593.398 -634.47 
	C 592.25 -633.77 591.348 -632.88 590.668 -631.78 
	C 589.945 -630.66 589.48 -629.41 589.195 -627.96 
	C 588.898 -626.52 588.758 -625.07 588.758 -623.58 
	C 588.758 -622.1 588.898 -620.67 589.195 -619.25 
	Z 
	M 579.918 -631.66 
	C 580.82 -634.07 582.109 -636.14 583.758 -637.85 
	C 585.445 -639.54 587.469 -640.86 589.801 -641.81 
	C 592.137 -642.73 594.805 -643.21 597.715 -643.21 
	C 600.613 -643.21 603.246 -642.73 605.617 -641.81 
	C 607.988 -640.86 609.996 -639.54 611.699 -637.85 
	C 613.387 -636.14 614.676 -634.07 615.578 -631.66 
	C 616.48 -629.25 616.945 -626.56 616.945 -623.58 
	C 616.945 -620.63 616.48 -617.94 615.578 -615.54 
	C 614.676 -613.16 613.387 -611.11 611.699 -609.39 
	C 609.996 -607.69 607.988 -606.4 605.617 -605.5 
	C 603.246 -604.58 600.613 -604.14 597.715 -604.14 
	C 594.805 -604.14 592.137 -604.58 589.801 -605.5 
	C 587.469 -606.4 585.445 -607.69 583.758 -609.39 
	C 582.109 -611.11 580.82 -613.16 579.918 -615.54 
	C 578.977 -617.94 578.551 -620.63 578.551 -623.58 
	C 578.551 -626.56 578.977 -629.25 579.918 -631.66 
	Z 
	"/>
</g>
<g fill="#7f7f7f" fill-rule="nonzero" stroke-width="0" stroke-linejoin="miter" stroke-linecap="butt" stroke-miterlimit="4" >
	<path d="
	M 633.262 -642.18 
	L 633.262 -635.3 
	L 633.402 -635.3 
	C 633.867 -636.45 634.523 -637.51 635.348 -638.49 
	C 636.137 -639.47 637.074 -640.31 638.145 -641.02 
	C 639.188 -641.7 640.309 -642.23 641.496 -642.63 
	C 642.719 -643 643.934 -643.21 645.234 -643.21 
	C 645.918 -643.21 646.664 -643.08 647.461 -642.85 
	L 647.461 -633.35 
	C 646.984 -633.44 646.422 -633.53 645.738 -633.61 
	C 645.09 -633.68 644.434 -633.71 643.789 -633.71 
	C 641.922 -633.71 640.336 -633.39 639.086 -632.79 
	C 637.785 -632.15 636.754 -631.3 635.953 -630.23 
	C 635.168 -629.15 634.59 -627.89 634.266 -626.46 
	C 633.906 -625.01 633.766 -623.46 633.766 -621.78 
	L 633.766 -605.06 
	L 623.559 -605.06 
	L 623.559 -642.18 
	Z 
	"/>
</g>
<g fill="#7f7f7f" fill-rule="nonzero" stroke-width="0" stroke-linejoin="miter" stroke-linecap="butt" stroke-miterlimit="4" >
	<path d="
	M 703.359 -605.06 
	L 696.746 -629.96 
	L 696.605 -629.96 
	L 690.277 -605.06 
	L 679.734 -605.06 
	L 667.953 -642.17 
	L 678.73 -642.17 
	L 685.523 -616.97 
	L 685.676 -616.97 
	L 691.852 -642.17 
	L 701.773 -642.17 
	L 708.102 -617.04 
	L 708.242 -617.04 
	L 715.035 -642.17 
	L 725.543 -642.17 
	L 713.813 -605.06 
	Z 
	"/>
</g>
<g fill="#7f7f7f" fill-rule="nonzero" stroke-width="0" stroke-linejoin="miter" stroke-linecap="butt" stroke-miterlimit="4" >
	<path d="
	M 739.344 -619.25 
	C 739.629 -617.83 740.094 -616.57 740.813 -615.44 
	C 741.496 -614.3 742.398 -613.4 743.547 -612.76 
	C 744.691 -612.07 746.137 -611.75 747.863 -611.75 
	C 749.59 -611.75 751.02 -612.07 752.18 -612.76 
	C 753.367 -613.4 754.293 -614.3 754.977 -615.44 
	C 755.66 -616.57 756.164 -617.83 756.445 -619.25 
	C 756.742 -620.67 756.887 -622.1 756.887 -623.58 
	C 756.887 -625.07 756.742 -626.52 756.445 -627.96 
	C 756.164 -629.41 755.66 -630.66 754.977 -631.78 
	C 754.293 -632.88 753.367 -633.77 752.18 -634.47 
	C 751.02 -635.16 749.59 -635.52 747.863 -635.52 
	C 746.137 -635.52 744.691 -635.16 743.547 -634.47 
	C 742.398 -633.77 741.496 -632.88 740.813 -631.78 
	C 740.094 -630.66 739.629 -629.41 739.344 -627.96 
	C 739.047 -626.52 738.902 -625.07 738.902 -623.58 
	C 738.902 -622.1 739.047 -620.67 739.344 -619.25 
	Z 
	M 730.063 -631.66 
	C 730.969 -634.07 732.254 -636.14 733.918 -637.85 
	C 735.605 -639.54 737.617 -640.86 739.949 -641.81 
	C 742.281 -642.73 744.949 -643.21 747.863 -643.21 
	C 750.777 -643.21 753.391 -642.73 755.762 -641.81 
	C 758.148 -640.86 760.156 -639.54 761.844 -637.85 
	C 763.535 -636.14 764.82 -634.07 765.727 -631.66 
	C 766.629 -629.25 767.09 -626.56 767.09 -623.58 
	C 767.09 -620.63 766.629 -617.94 765.727 -615.54 
	C 764.82 -613.16 763.535 -611.11 761.844 -609.39 
	C 760.156 -607.69 758.148 -606.4 755.762 -605.5 
	C 753.391 -604.58 750.777 -604.14 747.863 -604.14 
	C 744.949 -604.14 742.281 -604.58 739.949 -605.5 
	C 737.617 -606.4 735.605 -607.69 733.918 -609.39 
	C 732.254 -611.11 730.969 -613.16 730.063 -615.54 
	C 729.137 -617.94 728.695 -620.63 728.695 -623.58 
	C 728.695 -626.56 729.137 -629.25 730.063 -631.66 
	Z 
	"/>
</g>
<g fill="#7f7f7f" fill-rule="nonzero" stroke-width="0" stroke-linejoin="miter" stroke-linecap="butt" stroke-miterlimit="4" >
	<path d="
	M 783.406 -642.18 
	L 783.406 -635.3 
	L 783.551 -635.3 
	C 784.027 -636.45 784.672 -637.51 785.496 -638.49 
	C 786.281 -639.47 787.223 -640.31 788.309 -641.02 
	C 789.336 -641.7 790.457 -642.23 791.645 -642.63 
	C 792.867 -643 794.094 -643.21 795.383 -643.21 
	C 796.063 -643.21 796.824 -643.08 797.609 -642.85 
	L 797.609 -633.35 
	C 797.148 -633.44 796.566 -633.53 795.883 -633.61 
	C 795.238 -633.68 794.594 -633.71 793.938 -633.71 
	C 792.066 -633.71 790.496 -633.39 789.234 -632.79 
	C 787.945 -632.15 786.898 -631.3 786.102 -630.23 
	C 785.313 -629.15 784.734 -627.89 784.414 -626.46 
	C 784.055 -625.01 783.91 -623.46 783.91 -621.78 
	L 783.91 -605.06 
	L 773.703 -605.06 
	L 773.703 -642.18 
	Z 
	"/>
</g>
<g fill="#7f7f7f" fill-rule="nonzero" stroke-width="0" stroke-linejoin="miter" stroke-linecap="butt" stroke-miterlimit="4" >
	<path d="
	M 826.223 -628.14 
	C 825.938 -629.55 825.477 -630.8 824.754 -631.88 
	C 824.07 -632.96 823.168 -633.83 822.086 -634.51 
	C 820.977 -635.17 819.57 -635.52 817.922 -635.52 
	C 816.234 -635.52 814.828 -635.17 813.684 -634.51 
	C 812.52 -633.83 811.594 -632.94 810.91 -631.84 
	C 810.227 -630.73 809.727 -629.47 809.402 -628.07 
	C 809.121 -626.67 808.938 -625.19 808.938 -623.64 
	C 808.938 -622.21 809.121 -620.77 809.441 -619.36 
	C 809.805 -617.91 810.305 -616.63 811.055 -615.51 
	C 811.813 -614.38 812.742 -613.48 813.863 -612.8 
	C 814.969 -612.1 816.336 -611.75 817.922 -611.75 
	C 819.57 -611.75 820.977 -612.07 822.086 -612.76 
	C 823.246 -613.4 824.133 -614.3 824.793 -615.44 
	C 825.477 -616.57 825.938 -617.85 826.223 -619.28 
	C 826.504 -620.71 826.66 -622.21 826.66 -623.73 
	C 826.66 -625.27 826.504 -626.74 826.223 -628.14 
	Z 
	M 826.66 -609.79 
	C 825.477 -607.78 823.891 -606.32 821.941 -605.46 
	C 820.012 -604.56 817.848 -604.14 815.406 -604.14 
	C 812.602 -604.14 810.148 -604.67 808.074 -605.74 
	C 805.949 -606.83 804.223 -608.27 802.855 -610.11 
	C 801.488 -611.97 800.484 -614.08 799.762 -616.48 
	C 799.078 -618.86 798.719 -621.36 798.719 -623.95 
	C 798.719 -626.44 799.078 -628.84 799.762 -631.16 
	C 800.484 -633.5 801.488 -635.53 802.855 -637.31 
	C 804.223 -639.07 805.949 -640.5 808 -641.59 
	C 810.047 -642.67 812.457 -643.21 815.191 -643.21 
	C 817.383 -643.21 819.469 -642.73 821.438 -641.81 
	C 823.449 -640.86 824.996 -639.48 826.16 -637.67 
	L 826.301 -637.67 
	L 826.301 -656.33 
	L 836.508 -656.33 
	L 836.508 -605.06 
	L 826.805 -605.06 
	L 826.805 -609.79 
	Z 
	"/>
</g>
<g fill="#7f7f7f" fill-rule="nonzero" stroke-width="0" stroke-linejoin="miter" stroke-linecap="butt" stroke-miterlimit="4" >
	<path d="
	M 852.762 -614.27 
	C 853.223 -613.48 853.789 -612.85 854.512 -612.34 
	C 855.23 -611.84 856.059 -611.47 857 -611.25 
	C 857.926 -611 858.891 -610.89 859.91 -610.89 
	C 860.617 -610.89 861.383 -610.96 862.168 -611.14 
	C 862.93 -611.3 863.648 -611.57 864.293 -611.93 
	C 864.938 -612.29 865.48 -612.76 865.902 -613.37 
	C 866.344 -613.94 866.563 -614.7 866.563 -615.62 
	C 866.563 -617.15 865.543 -618.3 863.492 -619.07 
	C 861.484 -619.85 858.648 -620.59 855.016 -621.36 
	C 853.504 -621.71 852.078 -622.1 850.672 -622.55 
	C 849.266 -623 848.004 -623.62 846.895 -624.33 
	C 845.773 -625.09 844.906 -626.02 844.242 -627.14 
	C 843.582 -628.27 843.223 -629.65 843.223 -631.28 
	C 843.223 -633.68 843.699 -635.62 844.625 -637.16 
	C 845.566 -638.7 846.793 -639.9 848.324 -640.8 
	C 849.871 -641.68 851.602 -642.31 853.504 -642.67 
	C 855.414 -643.03 857.387 -643.21 859.41 -643.21 
	C 861.422 -643.21 863.352 -643 865.262 -642.63 
	C 867.129 -642.23 868.816 -641.59 870.301 -640.68 
	C 871.809 -639.77 873.031 -638.57 873.996 -637.06 
	C 875.004 -635.55 875.586 -633.65 875.766 -631.34 
	L 866.063 -631.34 
	C 865.902 -633.3 865.195 -634.63 863.828 -635.34 
	C 862.488 -636.02 860.918 -636.38 859.113 -636.38 
	C 858.547 -636.38 857.926 -636.34 857.242 -636.27 
	C 856.563 -636.2 855.953 -636.03 855.414 -635.8 
	C 854.871 -635.55 854.41 -635.21 854.008 -634.76 
	C 853.648 -634.29 853.441 -633.68 853.441 -632.93 
	C 853.441 -632.01 853.789 -631.28 854.445 -630.7 
	C 855.133 -630.12 855.992 -629.65 857.063 -629.29 
	C 858.145 -628.93 859.371 -628.61 860.777 -628.32 
	C 862.168 -628.04 863.57 -627.72 865.02 -627.38 
	C 866.484 -627.06 867.93 -626.65 869.359 -626.17 
	C 870.766 -625.7 872.027 -625.05 873.098 -624.27 
	C 874.219 -623.46 875.105 -622.5 875.766 -621.31 
	C 876.445 -620.14 876.77 -618.68 876.77 -616.97 
	C 876.77 -614.54 876.293 -612.48 875.285 -610.84 
	C 874.32 -609.19 873.031 -607.87 871.445 -606.87 
	C 869.859 -605.86 868.07 -605.14 866.063 -604.74 
	C 864.012 -604.33 861.926 -604.14 859.836 -604.14 
	C 857.684 -604.14 855.555 -604.35 853.504 -604.78 
	C 851.457 -605.21 849.629 -605.91 848.004 -606.92 
	C 846.391 -607.92 845.09 -609.24 844.059 -610.89 
	C 843.043 -612.55 842.477 -614.61 842.355 -617.11 
	L 852.078 -617.11 
	C 852.078 -615.99 852.32 -615.06 852.762 -614.27 
	Z 
	"/>
</g>
<g fill="#7f7f7f" fill-rule="nonzero" stroke-width="0" stroke-linejoin="miter" stroke-linecap="butt" stroke-miterlimit="4" >
	<path d="
	M 331.266 -552.54 
	L 331.266 -559.37 
	L 337.387 -559.37 
	L 337.387 -562.23 
	C 337.387 -565.52 338.395 -568.24 340.469 -570.34 
	C 342.516 -572.44 345.648 -573.51 349.824 -573.51 
	C 350.715 -573.51 351.617 -573.47 352.559 -573.39 
	C 353.445 -573.33 354.309 -573.25 355.172 -573.21 
	L 355.172 -565.6 
	C 353.988 -565.74 352.762 -565.82 351.473 -565.82 
	C 350.066 -565.82 349.063 -565.49 348.484 -564.84 
	C 347.879 -564.19 347.594 -563.11 347.594 -561.59 
	L 347.594 -559.37 
	L 354.605 -559.37 
	L 354.605 -552.54 
	L 347.594 -552.54 
	L 347.594 -522.24 
	L 337.387 -522.24 
	L 337.387 -552.54 
	Z 
	"/>
</g>
<g fill="#7f7f7f" fill-rule="nonzero" stroke-width="0" stroke-linejoin="miter" stroke-linecap="butt" stroke-miterlimit="4" >
	<path d="
	M 368.551 -536.43 
	C 368.836 -535 369.301 -533.75 370.02 -532.61 
	C 370.703 -531.48 371.605 -530.58 372.754 -529.94 
	C 373.898 -529.25 375.344 -528.93 377.07 -528.93 
	C 378.797 -528.93 380.227 -529.25 381.387 -529.94 
	C 382.574 -530.58 383.504 -531.48 384.184 -532.61 
	C 384.867 -533.75 385.371 -535 385.652 -536.43 
	C 385.949 -537.85 386.09 -539.28 386.09 -540.76 
	C 386.09 -542.24 385.949 -543.7 385.652 -545.14 
	C 385.371 -546.57 384.867 -547.84 384.184 -548.96 
	C 383.504 -550.05 382.574 -550.95 381.387 -551.65 
	C 380.227 -552.34 378.797 -552.7 377.07 -552.7 
	C 375.344 -552.7 373.898 -552.34 372.754 -551.65 
	C 371.605 -550.95 370.703 -550.05 370.02 -548.96 
	C 369.301 -547.84 368.836 -546.57 368.551 -545.14 
	C 368.254 -543.7 368.113 -542.24 368.113 -540.76 
	C 368.113 -539.28 368.254 -537.85 368.551 -536.43 
	Z 
	M 359.27 -548.84 
	C 360.172 -551.25 361.461 -553.32 363.125 -555.03 
	C 364.813 -556.72 366.824 -558.05 369.156 -558.98 
	C 371.504 -559.91 374.156 -560.38 377.07 -560.38 
	C 379.98 -560.38 382.598 -559.91 384.973 -558.98 
	C 387.355 -558.05 389.363 -556.72 391.055 -555.03 
	C 392.742 -553.32 394.031 -551.25 394.934 -548.84 
	C 395.836 -546.43 396.297 -543.74 396.297 -540.76 
	C 396.297 -537.81 395.836 -535.12 394.934 -532.72 
	C 394.031 -530.34 392.742 -528.29 391.055 -526.57 
	C 389.363 -524.87 387.355 -523.57 384.973 -522.68 
	C 382.598 -521.77 379.98 -521.31 377.07 -521.31 
	C 374.156 -521.31 371.504 -521.77 369.156 -522.68 
	C 366.824 -523.57 364.813 -524.87 363.125 -526.57 
	C 361.461 -528.29 360.172 -530.34 359.27 -532.72 
	C 358.344 -535.12 357.906 -537.81 357.906 -540.76 
	C 357.906 -543.74 358.344 -546.43 359.27 -548.84 
	Z 
	"/>
</g>
<g fill="#7f7f7f" fill-rule="nonzero" stroke-width="0" stroke-linejoin="miter" stroke-linecap="butt" stroke-miterlimit="4" >
	<path d="
	M 412.613 -559.36 
	L 412.613 -552.48 
	L 412.758 -552.48 
	C 413.234 -553.63 413.879 -554.68 414.703 -555.68 
	C 415.488 -556.64 416.43 -557.49 417.516 -558.19 
	C 418.543 -558.87 419.664 -559.41 420.852 -559.81 
	C 422.074 -560.19 423.301 -560.38 424.59 -560.38 
	C 425.273 -560.38 426.031 -560.26 426.816 -560.03 
	L 426.816 -550.53 
	C 426.355 -550.62 425.773 -550.71 425.09 -550.79 
	C 424.445 -550.86 423.805 -550.89 423.145 -550.89 
	C 421.277 -550.89 419.703 -550.57 418.441 -549.96 
	C 417.152 -549.33 416.109 -548.48 415.309 -547.41 
	C 414.523 -546.33 413.941 -545.07 413.621 -543.64 
	C 413.262 -542.19 413.117 -540.64 413.117 -538.96 
	L 413.117 -522.24 
	L 402.91 -522.24 
	L 402.91 -559.36 
	Z 
	"/>
</g>
<g fill="#7f7f7f" fill-rule="nonzero" stroke-width="0" stroke-linejoin="miter" stroke-linecap="butt" stroke-miterlimit="4" >
	<path d="
	M 472.25 -539.5 
	C 471.605 -539.28 470.922 -539.1 470.172 -538.96 
	C 469.453 -538.82 468.668 -538.71 467.867 -538.6 
	C 467.043 -538.53 466.219 -538.39 465.434 -538.23 
	C 464.672 -538.09 463.91 -537.91 463.164 -537.67 
	C 462.402 -537.45 461.758 -537.13 461.215 -536.71 
	C 460.676 -536.3 460.25 -535.8 459.891 -535.17 
	C 459.566 -534.54 459.387 -533.75 459.387 -532.8 
	C 459.387 -531.88 459.566 -531.12 459.891 -530.52 
	C 460.25 -529.86 460.676 -529.39 461.258 -529.04 
	C 461.836 -528.67 462.52 -528.43 463.266 -528.29 
	C 464.027 -528.14 464.813 -528.07 465.637 -528.07 
	C 467.648 -528.07 469.195 -528.39 470.277 -529.07 
	C 471.398 -529.72 472.223 -530.54 472.727 -531.47 
	C 473.266 -532.4 473.59 -533.35 473.691 -534.3 
	C 473.836 -535.26 473.875 -536.03 473.875 -536.6 
	L 473.875 -540.4 
	C 473.449 -540.02 472.906 -539.72 472.25 -539.5 
	Z 
	M 452.133 -553.91 
	C 453.16 -555.49 454.527 -556.75 456.152 -557.73 
	C 457.762 -558.68 459.605 -559.36 461.652 -559.77 
	C 463.703 -560.17 465.715 -560.38 467.801 -560.38 
	C 469.672 -560.38 471.539 -560.23 473.473 -559.99 
	C 475.379 -559.72 477.109 -559.19 478.691 -558.44 
	C 480.266 -557.67 481.566 -556.61 482.574 -555.25 
	C 483.578 -553.88 484.082 -552.06 484.082 -549.81 
	L 484.082 -530.49 
	C 484.082 -528.82 484.184 -527.2 484.363 -525.7 
	C 484.582 -524.15 484.906 -523 485.383 -522.24 
	L 475.02 -522.24 
	C 474.84 -522.82 474.699 -523.39 474.555 -524.01 
	C 474.453 -524.6 474.375 -525.21 474.301 -525.84 
	C 472.688 -524.15 470.781 -522.98 468.551 -522.32 
	C 466.359 -521.64 464.129 -521.31 461.836 -521.31 
	C 460.031 -521.31 458.422 -521.52 456.871 -521.96 
	C 455.328 -522.38 454 -523.04 452.84 -523.97 
	C 451.691 -524.87 450.789 -526.02 450.145 -527.4 
	C 449.5 -528.79 449.18 -530.44 449.18 -532.36 
	C 449.18 -534.47 449.578 -536.19 450.289 -537.55 
	C 451.047 -538.92 451.977 -540.02 453.16 -540.83 
	C 454.348 -541.65 455.688 -542.27 457.195 -542.66 
	C 458.703 -543.08 460.211 -543.4 461.758 -543.64 
	C 463.266 -543.88 464.773 -544.06 466.281 -544.2 
	C 467.766 -544.36 469.055 -544.56 470.199 -544.86 
	C 471.359 -545.14 472.285 -545.57 472.934 -546.11 
	C 473.613 -546.65 473.949 -547.46 473.875 -548.52 
	C 473.875 -549.62 473.691 -550.49 473.332 -551.15 
	C 472.973 -551.79 472.508 -552.3 471.898 -552.66 
	C 471.32 -553.02 470.598 -553.25 469.852 -553.38 
	C 469.055 -553.48 468.188 -553.56 467.301 -553.56 
	C 465.277 -553.56 463.703 -553.12 462.543 -552.26 
	C 461.398 -551.39 460.754 -549.98 460.535 -547.98 
	L 450.328 -547.98 
	C 450.469 -550.35 451.086 -552.35 452.133 -553.91 
	Z 
	"/>
</g>
<g fill="#7f7f7f" fill-rule="nonzero" stroke-width="0" stroke-linejoin="miter" stroke-linecap="butt" stroke-miterlimit="4" >
	<path d="
	M 501.66 -559.36 
	L 501.66 -554.2 
	L 501.879 -554.2 
	C 503.168 -556.36 504.855 -557.91 506.906 -558.91 
	C 508.953 -559.88 511.082 -560.38 513.234 -560.38 
	C 515.965 -560.38 518.195 -560 519.961 -559.27 
	C 521.688 -558.51 523.055 -557.49 524.059 -556.18 
	C 525.066 -554.85 525.773 -553.25 526.172 -551.36 
	C 526.613 -549.46 526.793 -547.37 526.793 -545.07 
	L 526.793 -522.24 
	L 516.57 -522.24 
	L 516.57 -543.2 
	C 516.57 -546.25 516.105 -548.56 515.141 -550.07 
	C 514.199 -551.57 512.512 -552.34 510.074 -552.34 
	C 507.305 -552.34 505.297 -551.51 504.031 -549.85 
	C 502.809 -548.2 502.164 -545.47 502.164 -541.69 
	L 502.164 -522.24 
	L 491.953 -522.24 
	L 491.953 -559.36 
	Z 
	"/>
</g>
<g fill="#7f7f7f" fill-rule="nonzero" stroke-width="0" stroke-linejoin="miter" stroke-linecap="butt" stroke-miterlimit="4" >
	<path d="
	M 548.25 -511.2 
	C 546.266 -509.92 543.535 -509.27 540.055 -509.27 
	C 539.012 -509.27 537.965 -509.3 536.922 -509.38 
	C 535.879 -509.45 534.836 -509.52 533.789 -509.63 
	L 533.789 -518 
	C 534.77 -517.91 535.734 -517.82 536.738 -517.72 
	C 537.746 -517.63 538.754 -517.6 539.758 -517.64 
	C 541.098 -517.78 542.102 -518.32 542.746 -519.23 
	C 543.391 -520.14 543.715 -521.15 543.715 -522.24 
	C 543.715 -523.05 543.57 -523.82 543.289 -524.55 
	L 530.27 -559.35 
	L 541.125 -559.35 
	L 549.5 -533.93 
	L 549.641 -533.93 
	L 557.773 -559.35 
	L 568.344 -559.35 
	L 552.813 -517.64 
	C 551.73 -514.64 550.184 -512.48 548.25 -511.2 
	Z 
	"/>
</g>
<g fill="#7f7f7f" fill-rule="nonzero" stroke-width="0" stroke-linejoin="miter" stroke-linecap="butt" stroke-miterlimit="4" >
	<path d="
	M 592.676 -565.09 
	L 592.676 -573.51 
	L 602.883 -573.51 
	L 602.883 -565.09 
	Z 
	M 588.719 -517.66 
	C 589.766 -517.66 590.703 -517.86 591.492 -518.27 
	C 592.277 -518.69 592.676 -519.59 592.676 -520.95 
	L 592.676 -559.37 
	L 602.883 -559.37 
	L 602.883 -520.45 
	C 602.883 -518.54 602.664 -516.89 602.277 -515.5 
	C 601.84 -514.12 601.156 -512.95 600.191 -512.04 
	C 599.184 -511.11 597.855 -510.4 596.195 -509.95 
	C 594.508 -509.48 592.391 -509.27 589.801 -509.27 
	C 588.617 -509.27 587.535 -509.36 586.566 -509.56 
	L 586.566 -517.95 
	C 587.109 -517.76 587.832 -517.66 588.719 -517.66 
	Z 
	"/>
</g>
<g fill="#7f7f7f" fill-rule="nonzero" stroke-width="0" stroke-linejoin="miter" stroke-linecap="butt" stroke-miterlimit="4" >
	<path d="
	M 636.816 -522.24 
	L 636.816 -527.42 
	L 636.598 -527.42 
	C 635.309 -525.26 633.621 -523.7 631.574 -522.75 
	C 629.523 -521.78 627.395 -521.31 625.246 -521.31 
	C 622.512 -521.31 620.281 -521.68 618.516 -522.38 
	C 616.805 -523.11 615.438 -524.11 614.434 -525.43 
	C 613.414 -526.74 612.703 -528.35 612.305 -530.22 
	C 611.867 -532.13 611.699 -534.21 611.699 -536.51 
	L 611.699 -559.35 
	L 621.906 -559.35 
	L 621.906 -538.39 
	C 621.906 -535.32 622.371 -533.04 623.336 -531.54 
	C 624.277 -530.04 625.965 -529.29 628.402 -529.29 
	C 631.172 -529.29 633.184 -530.12 634.445 -531.75 
	C 635.672 -533.4 636.316 -536.12 636.316 -539.9 
	L 636.316 -559.35 
	L 646.523 -559.35 
	L 646.523 -522.24 
	Z 
	"/>
</g>
<g fill="#7f7f7f" fill-rule="nonzero" stroke-width="0" stroke-linejoin="miter" stroke-linecap="butt" stroke-miterlimit="4" >
	<path d="
	M 663.961 -559.36 
	L 663.961 -552.48 
	L 664.102 -552.48 
	C 664.566 -553.63 665.223 -554.68 666.047 -555.68 
	C 666.836 -556.64 667.773 -557.49 668.844 -558.19 
	C 669.891 -558.87 671.012 -559.41 672.191 -559.81 
	C 673.422 -560.19 674.633 -560.38 675.934 -560.38 
	C 676.613 -560.38 677.363 -560.26 678.16 -560.03 
	L 678.16 -550.53 
	C 677.688 -550.62 677.121 -550.71 676.438 -550.79 
	C 675.793 -550.86 675.133 -550.89 674.488 -550.89 
	C 672.621 -550.89 671.035 -550.57 669.785 -549.96 
	C 668.484 -549.33 667.453 -548.48 666.652 -547.41 
	C 665.867 -546.33 665.285 -545.07 664.965 -543.64 
	C 664.605 -542.19 664.465 -540.64 664.465 -538.96 
	L 664.465 -522.24 
	L 654.258 -522.24 
	L 654.258 -559.36 
	Z 
	"/>
</g>
<g fill="#7f7f7f" fill-rule="nonzero" stroke-width="0" stroke-linejoin="miter" stroke-linecap="butt" stroke-miterlimit="4" >
	<path d="
	M 692.648 -559.35 
	L 692.648 -522.24 
	L 682.441 -522.24 
	L 682.441 -559.35 
	Z 
	M 682.441 -565.09 
	L 682.441 -573.51 
	L 692.648 -573.51 
	L 692.648 -565.09 
	Z 
	"/>
</g>
<g fill="#7f7f7f" fill-rule="nonzero" stroke-width="0" stroke-linejoin="miter" stroke-linecap="butt" stroke-miterlimit="4" >
	<path d="
	M 709.25 -531.45 
	C 709.727 -530.66 710.293 -530.03 711.016 -529.52 
	C 711.738 -529.02 712.563 -528.64 713.488 -528.43 
	C 714.43 -528.17 715.395 -528.07 716.402 -528.07 
	C 717.125 -528.07 717.883 -528.14 718.672 -528.32 
	C 719.434 -528.48 720.141 -528.75 720.801 -529.11 
	C 721.441 -529.47 721.98 -529.94 722.406 -530.54 
	C 722.848 -531.12 723.055 -531.88 723.055 -532.8 
	C 723.055 -534.32 722.047 -535.48 720 -536.25 
	C 717.988 -537.02 715.152 -537.77 711.52 -538.55 
	C 710.012 -538.89 708.563 -539.28 707.176 -539.73 
	C 705.77 -540.18 704.508 -540.79 703.398 -541.51 
	C 702.277 -542.27 701.414 -543.2 700.73 -544.32 
	C 700.086 -545.45 699.727 -546.83 699.727 -548.44 
	C 699.727 -550.86 700.188 -552.8 701.129 -554.34 
	C 702.059 -555.87 703.281 -557.08 704.828 -557.98 
	C 706.375 -558.86 708.102 -559.49 710.012 -559.85 
	C 711.918 -560.21 713.891 -560.38 715.898 -560.38 
	C 717.91 -560.38 719.855 -560.19 721.766 -559.81 
	C 723.633 -559.41 725.32 -558.77 726.789 -557.86 
	C 728.313 -556.95 729.523 -555.75 730.504 -554.24 
	C 731.508 -552.72 732.074 -550.83 732.254 -548.52 
	L 722.551 -548.52 
	C 722.406 -550.48 721.688 -551.81 720.32 -552.52 
	C 718.992 -553.2 717.406 -553.56 715.617 -553.56 
	C 715.035 -553.56 714.43 -553.52 713.746 -553.45 
	C 713.063 -553.38 712.457 -553.21 711.918 -552.98 
	C 711.375 -552.72 710.91 -552.39 710.516 -551.94 
	C 710.152 -551.47 709.934 -550.86 709.934 -550.11 
	C 709.934 -549.19 710.293 -548.44 710.938 -547.88 
	C 711.621 -547.3 712.484 -546.83 713.566 -546.47 
	C 714.648 -546.11 715.859 -545.79 717.266 -545.5 
	C 718.672 -545.21 720.078 -544.89 721.504 -544.56 
	C 722.988 -544.24 724.418 -543.83 725.863 -543.34 
	C 727.27 -542.88 728.516 -542.23 729.602 -541.44 
	C 730.707 -540.64 731.609 -539.68 732.254 -538.49 
	C 732.938 -537.32 733.262 -535.86 733.262 -534.14 
	C 733.262 -531.71 732.797 -529.66 731.789 -528.02 
	C 730.824 -526.36 729.523 -525.05 727.949 -524.05 
	C 726.363 -523.04 724.559 -522.32 722.551 -521.92 
	C 720.5 -521.51 718.426 -521.31 716.34 -521.31 
	C 714.172 -521.31 712.059 -521.52 710.012 -521.96 
	C 707.961 -522.38 706.129 -523.09 704.508 -524.1 
	C 702.895 -525.1 701.594 -526.41 700.551 -528.07 
	C 699.547 -529.72 698.977 -531.79 698.859 -534.29 
	L 708.563 -534.29 
	C 708.563 -533.17 708.824 -532.24 709.25 -531.45 
	Z 
	"/>
</g>
<g fill="#7f7f7f" fill-rule="nonzero" stroke-width="0" stroke-linejoin="miter" stroke-linecap="butt" stroke-miterlimit="4" >
	<path d="
	M 765.121 -545.32 
	C 764.82 -546.73 764.359 -547.98 763.637 -549.06 
	C 762.953 -550.14 762.066 -551.01 760.984 -551.69 
	C 759.859 -552.35 758.469 -552.7 756.809 -552.7 
	C 755.117 -552.7 753.715 -552.35 752.566 -551.69 
	C 751.422 -551.01 750.477 -550.12 749.797 -549.02 
	C 749.113 -547.91 748.609 -546.65 748.289 -545.25 
	C 748.004 -543.84 747.824 -542.38 747.824 -540.83 
	C 747.824 -539.39 748.004 -537.95 748.324 -536.53 
	C 748.688 -535.09 749.188 -533.82 749.949 -532.68 
	C 750.695 -531.56 751.641 -530.66 752.746 -529.97 
	C 753.871 -529.27 755.234 -528.93 756.809 -528.93 
	C 758.469 -528.93 759.859 -529.25 760.984 -529.94 
	C 762.129 -530.58 763.031 -531.48 763.68 -532.61 
	C 764.359 -533.75 764.82 -535.03 765.121 -536.46 
	C 765.402 -537.88 765.543 -539.39 765.543 -540.9 
	C 765.543 -542.45 765.402 -543.92 765.121 -545.32 
	Z 
	M 765.543 -526.97 
	C 764.359 -524.96 762.773 -523.5 760.84 -522.64 
	C 758.895 -521.74 756.742 -521.31 754.293 -521.31 
	C 751.496 -521.31 749.051 -521.86 746.961 -522.93 
	C 744.848 -524.01 743.121 -525.44 741.754 -527.29 
	C 740.387 -529.15 739.383 -531.27 738.66 -533.66 
	C 737.977 -536.05 737.617 -538.53 737.617 -541.11 
	C 737.617 -543.61 737.977 -546.02 738.66 -548.34 
	C 739.383 -550.68 740.387 -552.71 741.754 -554.49 
	C 743.121 -556.25 744.848 -557.68 746.895 -558.77 
	C 748.934 -559.85 751.344 -560.38 754.074 -560.38 
	C 756.266 -560.38 758.352 -559.91 760.34 -558.98 
	C 762.348 -558.05 763.895 -556.66 765.043 -554.85 
	L 765.184 -554.85 
	L 765.184 -573.51 
	L 775.391 -573.51 
	L 775.391 -522.24 
	L 765.688 -522.24 
	L 765.688 -526.97 
	Z 
	"/>
</g>
<g fill="#7f7f7f" fill-rule="nonzero" stroke-width="0" stroke-linejoin="miter" stroke-linecap="butt" stroke-miterlimit="4" >
	<path d="
	M 793.551 -559.35 
	L 793.551 -522.24 
	L 783.344 -522.24 
	L 783.344 -559.35 
	Z 
	M 783.344 -565.09 
	L 783.344 -573.51 
	L 793.551 -573.51 
	L 793.551 -565.09 
	Z 
	"/>
</g>
<g fill="#7f7f7f" fill-rule="nonzero" stroke-width="0" stroke-linejoin="miter" stroke-linecap="butt" stroke-miterlimit="4" >
	<path d="
	M 819.328 -552.7 
	C 817.703 -552.7 816.336 -552.31 815.23 -551.57 
	C 814.105 -550.83 813.203 -549.87 812.52 -548.7 
	C 811.836 -547.52 811.336 -546.23 811.055 -544.82 
	C 810.77 -543.42 810.629 -542.01 810.629 -540.61 
	C 810.629 -539.28 810.77 -537.91 811.055 -536.53 
	C 811.336 -535.14 811.813 -533.89 812.457 -532.76 
	C 813.102 -531.63 813.965 -530.72 815.086 -530.01 
	C 816.195 -529.29 817.523 -528.93 819.105 -528.93 
	C 821.559 -528.93 823.426 -529.61 824.754 -530.98 
	C 826.043 -532.33 826.867 -534.16 827.227 -536.46 
	L 837.051 -536.46 
	C 836.367 -531.52 834.457 -527.78 831.285 -525.19 
	C 828.168 -522.61 824.109 -521.31 819.172 -521.31 
	C 816.414 -521.31 813.863 -521.78 811.516 -522.71 
	C 809.223 -523.64 807.238 -524.94 805.59 -526.61 
	C 803.977 -528.29 802.715 -530.3 801.785 -532.61 
	C 800.883 -534.94 800.422 -537.49 800.422 -540.26 
	C 800.422 -543.13 800.848 -545.8 801.668 -548.27 
	C 802.535 -550.75 803.758 -552.88 805.367 -554.67 
	C 807.031 -556.46 809.004 -557.86 811.336 -558.87 
	C 813.684 -559.88 816.375 -560.38 819.391 -560.38 
	C 821.582 -560.38 823.711 -560.09 825.758 -559.53 
	C 827.77 -558.95 829.598 -558.07 831.184 -556.9 
	C 832.809 -555.73 834.098 -554.27 835.102 -552.52 
	C 836.105 -550.79 836.688 -548.7 836.828 -546.33 
	L 826.867 -546.33 
	C 826.184 -550.57 823.672 -552.7 819.328 -552.7 
	Z 
	"/>
</g>
<g fill="#7f7f7f" fill-rule="nonzero" stroke-width="0" stroke-linejoin="miter" stroke-linecap="butt" stroke-miterlimit="4" >
	<path d="
	M 863.172 -559.37 
	L 863.172 -552.54 
	L 855.695 -552.54 
	L 855.695 -534.16 
	C 855.695 -532.44 855.992 -531.3 856.563 -530.72 
	C 857.141 -530.15 858.285 -529.86 860.016 -529.86 
	C 860.598 -529.86 861.121 -529.88 861.664 -529.94 
	C 862.207 -529.97 862.707 -530.04 863.172 -530.15 
	L 863.172 -522.24 
	C 862.309 -522.1 861.344 -522 860.297 -521.96 
	C 859.254 -521.91 858.211 -521.88 857.203 -521.88 
	C 855.633 -521.88 854.148 -522 852.723 -522.2 
	C 851.316 -522.42 850.051 -522.84 848.984 -523.47 
	C 847.898 -524.07 847.074 -524.98 846.43 -526.11 
	C 845.813 -527.26 845.488 -528.76 845.488 -530.63 
	L 845.488 -552.54 
	L 839.344 -552.54 
	L 839.344 -559.37 
	L 845.488 -559.37 
	L 845.488 -570.48 
	L 855.695 -570.48 
	L 855.695 -559.37 
	Z 
	"/>
</g>
<g fill="#7f7f7f" fill-rule="nonzero" stroke-width="0" stroke-linejoin="miter" stroke-linecap="butt" stroke-miterlimit="4" >
	<path d="
	M 878.52 -559.35 
	L 878.52 -522.24 
	L 868.313 -522.24 
	L 868.313 -559.35 
	Z 
	M 868.313 -565.09 
	L 868.313 -573.51 
	L 878.52 -573.51 
	L 878.52 -565.09 
	Z 
	"/>
</g>
<g fill="#7f7f7f" fill-rule="nonzero" stroke-width="0" stroke-linejoin="miter" stroke-linecap="butt" stroke-miterlimit="4" >
	<path d="
	M 896.039 -536.43 
	C 896.32 -535 896.824 -533.75 897.508 -532.61 
	C 898.188 -531.48 899.133 -530.58 900.277 -529.94 
	C 901.426 -529.25 902.828 -528.93 904.559 -528.93 
	C 906.285 -528.93 907.715 -529.25 908.898 -529.94 
	C 910.047 -530.58 910.988 -531.48 911.672 -532.61 
	C 912.395 -533.75 912.855 -535 913.137 -536.43 
	C 913.438 -537.85 913.578 -539.28 913.578 -540.76 
	C 913.578 -542.24 913.438 -543.7 913.137 -545.14 
	C 912.855 -546.57 912.395 -547.84 911.672 -548.96 
	C 910.988 -550.05 910.047 -550.95 908.898 -551.65 
	C 907.715 -552.34 906.285 -552.7 904.559 -552.7 
	C 902.828 -552.7 901.426 -552.34 900.277 -551.65 
	C 899.133 -550.95 898.188 -550.05 897.508 -548.96 
	C 896.824 -547.84 896.32 -546.57 896.039 -545.14 
	C 895.738 -543.7 895.602 -542.24 895.602 -540.76 
	C 895.602 -539.28 895.738 -537.85 896.039 -536.43 
	Z 
	M 886.758 -548.84 
	C 887.66 -551.25 888.949 -553.32 890.637 -555.03 
	C 892.324 -556.72 894.313 -558.05 896.684 -558.98 
	C 899.016 -559.91 901.645 -560.38 904.559 -560.38 
	C 907.469 -560.38 910.125 -559.91 912.492 -558.98 
	C 914.867 -558.05 916.879 -556.72 918.566 -555.03 
	C 920.23 -553.32 921.516 -551.25 922.418 -548.84 
	C 923.352 -546.43 923.785 -543.74 923.785 -540.76 
	C 923.785 -537.81 923.352 -535.12 922.418 -532.72 
	C 921.516 -530.34 920.23 -528.29 918.566 -526.57 
	C 916.879 -524.87 914.867 -523.57 912.492 -522.68 
	C 910.125 -521.77 907.469 -521.31 904.559 -521.31 
	C 901.645 -521.31 899.016 -521.77 896.684 -522.68 
	C 894.313 -523.57 892.324 -524.87 890.637 -526.57 
	C 888.949 -528.29 887.66 -530.34 886.758 -532.72 
	C 885.855 -535.12 885.395 -537.81 885.395 -540.76 
	C 885.395 -543.74 885.855 -546.43 886.758 -548.84 
	Z 
	"/>
</g>
<g fill="#7f7f7f" fill-rule="nonzero" stroke-width="0" stroke-linejoin="miter" stroke-linecap="butt" stroke-miterlimit="4" >
	<path d="
	M 940.102 -559.36 
	L 940.102 -554.2 
	L 940.32 -554.2 
	C 941.609 -556.36 943.301 -557.91 945.352 -558.91 
	C 947.398 -559.88 949.523 -560.38 951.68 -560.38 
	C 954.41 -560.38 956.637 -560 958.402 -559.27 
	C 960.133 -558.51 961.496 -557.49 962.504 -556.18 
	C 963.508 -554.85 964.23 -553.25 964.617 -551.36 
	C 965.055 -549.46 965.234 -547.37 965.234 -545.07 
	L 965.234 -522.24 
	L 955.027 -522.24 
	L 955.027 -543.2 
	C 955.027 -546.25 954.551 -548.56 953.582 -550.07 
	C 952.656 -551.57 950.957 -552.34 948.52 -552.34 
	C 945.746 -552.34 943.738 -551.51 942.477 -549.85 
	C 941.25 -548.2 940.605 -545.47 940.605 -541.69 
	L 940.605 -522.24 
	L 930.395 -522.24 
	L 930.395 -559.36 
	Z 
	"/>
</g>
</g >
</g>
</svg>
