<?xml version="1.0" encoding="UTF-8"?>
<svg id="For_Sheets" xmlns="http://www.w3.org/2000/svg" version="1.1" viewBox="0 0 3456 2592">
  <!-- Generator: Adobe Illustrator 29.1.0, SVG Export Plug-In . SVG Version: 2.1.0 Build 142)  -->
  <defs>
    <style>
      .st0 {
        fill: #231f20;
      }

      .st1 {
        fill: #f7921e;
      }
    </style>
  </defs>
  <g>
    <path class="st1" d="M162,2592.1c-43.1,0-83.8-16.9-114.5-47.6-30.7-30.7-47.6-71.4-47.6-114.5V162C-.1,118.9,16.8,78.2,47.5,47.5,78.2,16.8,118.9-.1,162-.1h3132c43.1,0,83.8,16.9,114.5,47.6,30.7,30.7,47.6,71.4,47.6,114.5v2268c0,43.1-16.9,83.8-47.6,114.5s-71.4,47.6-114.5,47.6H162Z"/>
    <path class="st0" d="M3294,0c89.1,0,162,72.9,162,162v2268c0,89.1-72.9,162-162,162H162c-89.1,0-162-72.9-162-162V162C0,72.9,72.9,0,162,0h3132M3294-.2H162c-21.8,0-43,4.3-63,12.8-19.3,8.2-36.7,19.9-51.6,34.9-14.9,14.9-26.7,32.3-34.9,51.6C4.1,119-.2,140.2-.2,162v2268c0,21.8,4.3,43,12.8,63,8.2,19.3,19.9,36.7,34.9,51.6,14.9,14.9,32.3,26.7,51.6,34.9,20,8.5,41.2,12.8,63,12.8h3132c21.8,0,43-4.3,63-12.8,19.3-8.2,36.7-19.9,51.6-34.9,14.9-14.9,26.7-32.3,34.9-51.6,8.5-20,12.8-41.2,12.8-63V162c0-21.8-4.3-43-12.8-63-8.2-19.3-19.9-36.7-34.9-51.6-14.9-14.9-32.3-26.7-51.6-34.9-20-8.5-41.2-12.8-63-12.8h0Z"/>
  </g>
  <path class="st0" d="M162,2547c-31.1,0-60.4-12.2-82.6-34.4-22.2-22.2-34.4-51.5-34.4-82.6V162c0-31.1,12.2-60.4,34.4-82.6,22.2-22.2,51.5-34.4,82.6-34.4h3132c31.1,0,60.4,12.2,82.6,34.4,22.2,22.2,34.4,51.5,34.4,82.6v2268c0,31.1-12.2,60.4-34.4,82.6-22.2,22.2-51.5,34.4-82.6,34.4H162Z"/>
  <path class="st1" d="M162,2484c-14.5,0-27.6-5.5-38-16-10.4-10.4-16-23.6-16-38V162c0-14.5,5.5-27.6,16-38s23.6-16,38-16h3132c14.5,0,27.6,5.5,38,16,10.4,10.4,16,23.6,16,38v2268c0,14.5-5.5,27.6-16,38-10.4,10.4-23.6,16-38,16H162Z"/>
  <g>
    <path class="st0" d="M424.2,1008V432h207.8c145.4,0,184.3,191.4,184.3,275,0,216.1-111.1,301-184,301h-208.1ZM618.1,522.9h-103.1v392h96.7c83.8,0,111.3-101.5,111.3-210s-14.7-182.1-104.9-182.1Z"/>
    <path class="st0" d="M892.3,432h339.1v90.9h-248.2v141.5h167.5v93h-167.5v157.7h266.4v93h-357.2V432Z"/>
    <path class="st0" d="M1500.5,1008h-91.4v-495.1h-131.9v-80.9h357.2v80.9h-134v495.1Z"/>
    <path class="st0" d="M2088.6,720c0,20.7,4.4,298.1-204.6,298.1s-204.6-277.4-204.6-298.1-4.4-298,204.6-298,204.6,277.3,204.6,298ZM1885,925.2c62.1,0,112.5-58.8,112.5-205.2s-50.4-205.2-112.5-205.2-112.5,58.8-112.5,205.2,50.4,205.2,112.5,205.2Z"/>
    <path class="st0" d="M2164.7,801.9v-369.9h90.9v369.9c0,74.8,42.5,123.3,105.1,123.3s105.1-48.5,105.1-123.3v-369.9h91v369.9c0,182.2-139.7,216.2-196,216.2s-196-30.2-196-216.2Z"/>
    <path class="st0" d="M2730.6,757.3v250.7h-90.9V432h208.4c132,0,171.6,105.6,171.6,161.8s-7.9,105.6-89.4,144.2l101.5,270h-99.1l-92.9-250.7h-109.2ZM2845,664.4c72.3,0,83.7-52.1,83.7-70.7s-18.8-70.8-79.3-70.8h-118.8v141.5h114.4Z"/>
  </g>
  <g>
    <rect class="st0" x="1437.3" y="1544.6" width="1262.7" height="384.8"/>
    <path class="st0" d="M1587.1,1306.1c1.7-6,2.6-12,2.6-18,0-35.4-28.7-64.1-64.1-64.1-12.5,0-25.1,3.6-36.2,11.2l-733.3,501.8,733.3,501.8c11.1,7.6,23.7,11.2,36.2,11.2,35.4,0,64.1-28.7,64.1-64.1,0-5.9-.8-12-2.6-18l-125.7-430.9,125.7-430.9Z"/>
  </g>
</svg>