<?xml version="1.0" encoding="UTF-8" standalone="no"?>
<!-- Created with Inkscape (http://www.inkscape.org/) -->

<svg
   version="1.1"
   id="svg1"
   width="2304"
   height="1152"
   viewBox="0 0 2304 1152"
   sodipodi:docname="tmp4n9uqr2e.pdf"
   xmlns:inkscape="http://www.inkscape.org/namespaces/inkscape"
   xmlns:sodipodi="http://sodipodi.sourceforge.net/DTD/sodipodi-0.dtd"
   xmlns="http://www.w3.org/2000/svg"
   xmlns:svg="http://www.w3.org/2000/svg">
  <defs
     id="defs1" />
  <sodipodi:namedview
     id="namedview1"
     pagecolor="#ffffff"
     bordercolor="#000000"
     borderopacity="0.25"
     inkscape:showpageshadow="2"
     inkscape:pageopacity="0.0"
     inkscape:pagecheckerboard="0"
     inkscape:deskcolor="#d1d1d1">
    <inkscape:page
       x="0"
       y="0"
       inkscape:label="1"
       id="page1"
       width="2304"
       height="1152"
       margin="0"
       bleed="0" />
  </sodipodi:namedview>
  <g
     id="g1"
     inkscape:groupmode="layer"
     inkscape:label="1">
    <g
       id="group-R5">
      <path
         id="path2"
         d="M 17280,1080 C 17280,483.539 16796.5,0 16200,0 H 1080 C 483.531,0 0,483.539 0,1080 v 6480 c 0,596.47 483.531,1080 1080,1080 h 15120 c 596.5,0 1080,-483.53 1080,-1080 V 1080"
         style="fill:#ffffff;fill-opacity:1;fill-rule:nonzero;stroke:none"
         transform="matrix(0.13333333,0,0,-0.13333333,0,1152)" />
      <path
         id="path3"
         d="m 1080,270 c -446.637,0 -810,363.371 -810,810 v 6480 c 0,446.64 363.363,810 810,810 h 15120 c 446.6,0 810,-363.36 810,-810 V 1080 c 0,-446.629 -363.4,-810 -810,-810 H 1080"
         style="fill:#231f20;fill-opacity:1;fill-rule:nonzero;stroke:none"
         transform="matrix(0.13333333,0,0,-0.13333333,0,1152)" />
      <path
         id="path4"
         d="m 1080,720 c -198.508,0 -360,161.488 -360,360 v 6480 c 0,198.51 161.492,360 360,360 h 15120 c 198.5,0 360,-161.49 360,-360 V 1080 c 0,-198.512 -161.5,-360 -360,-360 H 1080"
         style="fill:#ffffff;fill-opacity:1;fill-rule:nonzero;stroke:none"
         transform="matrix(0.13333333,0,0,-0.13333333,0,1152)" />
      <path
         id="path5"
         d="m 14619.2,2519.99 -1376.9,2437.9 v -2437.9 h -568.5 V 6120 h 568.5 L 14556,3821.04 V 6120 h 568.5 V 2519.99 h -505.3"
         style="fill:#231f20;fill-opacity:1;fill-rule:nonzero;stroke:none"
         transform="matrix(0.13333333,0,0,-0.13333333,0,1152)" />
      <path
         id="path6"
         d="M 11233.8,2519.99 V 6120 h 576 V 2519.99 h -576"
         style="fill:#231f20;fill-opacity:1;fill-rule:nonzero;stroke:none"
         transform="matrix(0.13333333,0,0,-0.13333333,0,1152)" />
      <path
         id="path7"
         d="M 5218.19,2519.99 V 6120 H 7337.56 V 5551.58 H 5785.87 v -884.23 h 1047.1 V 4086.3 H 5785.87 V 3101.04 H 7451.1 V 2519.99 H 5218.19"
         style="fill:#231f20;fill-opacity:1;fill-rule:nonzero;stroke:none"
         transform="matrix(0.13333333,0,0,-0.13333333,0,1152)" />
      <path
         id="path8"
         d="m 3684.04,4061.04 c -75.8,25.26 -113.69,25.26 -240.01,25.26 h -720.07 v -985.26 h 859.02 c 290.55,0 442.14,138.95 442.14,416.85 0,240 -138.96,467.36 -341.08,543.15 z m -126.32,1490.55 h -833.76 v -884.22 h 682.16 c 164.23,0 240.02,25.27 341.09,101.06 126.32,101.04 202.12,252.63 202.12,416.84 0,239.99 -138.96,366.32 -391.61,366.32 z m 467.4,-2943.19 c -126.32,-50.53 -341.08,-88.41 -505.31,-88.41 h -1364.3 v 3600.02 h 1364.3 c 568.47,0 997.97,-391.59 997.97,-909.46 0,-353.69 -164.22,-618.98 -505.29,-808.46 378.97,-176.85 593.72,-479.99 593.72,-871.58 0,-391.57 -240.01,-783.16 -581.09,-922.11"
         style="fill:#231f20;fill-opacity:1;fill-rule:nonzero;stroke:none"
         transform="matrix(0.13333333,0,0,-0.13333333,0,1152)" />
      <path
         id="path9"
         d="m 9304.9,2456.83 c -543.2,0 -859.02,202.11 -1073.77,656.84 -151.58,315.79 -240.01,757.9 -240.01,1200 0,581.06 164.21,1149.48 404.22,1465.28 214.78,265.26 517.96,404.2 922.2,404.2 555.84,0 884.26,-227.38 1124.26,-795.8 l -543.19,-214.72 c -151.58,315.79 -303.16,429.47 -581.07,429.47 -290.55,0 -480.06,-126.32 -606.37,-442.11 -88.44,-214.74 -138.97,-543.16 -138.97,-846.32 0,-378.94 63.16,-757.9 176.86,-985.26 113.69,-202.1 277.93,-290.53 492.68,-290.53 366.33,0 631.64,227.37 631.64,555.79 v 151.58 h -656.92 v 568.42 h 1225.34 v -720 c 0,-656.84 -480,-1136.84 -1136.9,-1136.84"
         style="fill:#231f20;fill-opacity:1;fill-rule:nonzero;stroke:none"
         transform="matrix(0.13333333,0,0,-0.13333333,0,1152)" />
    </g>
  </g>
</svg>
