<?xml version="1.0" encoding="UTF-8" standalone="no"?>
<!-- Created with Inkscape (http://www.inkscape.org/) -->

<svg
   version="1.1"
   id="svg1"
   width="2880.6667"
   height="2304.6667"
   viewBox="0 0 2880.6667 2304.6667"
   sodipodi:docname="tmp1r8b5x_j.pdf"
   xmlns:inkscape="http://www.inkscape.org/namespaces/inkscape"
   xmlns:sodipodi="http://sodipodi.sourceforge.net/DTD/sodipodi-0.dtd"
   xmlns="http://www.w3.org/2000/svg"
   xmlns:svg="http://www.w3.org/2000/svg">
  <defs
     id="defs1" />
  <sodipodi:namedview
     id="namedview1"
     pagecolor="#ffffff"
     bordercolor="#000000"
     borderopacity="0.25"
     inkscape:showpageshadow="2"
     inkscape:pageopacity="0.0"
     inkscape:pagecheckerboard="0"
     inkscape:deskcolor="#d1d1d1">
    <inkscape:page
       x="0"
       y="0"
       inkscape:label="1"
       id="page1"
       width="2880.6667"
       height="2304.6667"
       margin="0"
       bleed="0" />
  </sodipodi:namedview>
  <g
     id="g1"
     inkscape:groupmode="layer"
     inkscape:label="1">
    <g
       id="group-R5">
      <path
         id="path2"
         d="M 1082.5,1.19922 C 486.301,1.19922 1.25,486.301 1.25,1082.5 v 15120 c 0,596.2 485.051,1081.3 1081.25,1081.3 h 19440 c 596.2,0 1081.3,-485.1 1081.3,-1081.3 V 1082.5 C 21603.8,486.301 21118.7,1.19922 20522.5,1.19922 h -19440"
         style="fill:#f68512;fill-opacity:1;fill-rule:nonzero;stroke:none"
         transform="matrix(0.13333333,0,0,-0.13333333,0,2304.6667)" />
      <path
         id="path3"
         d="m 20522.5,17285 h -19440 c -287.953,0 -559.465,-112.9 -764.52,-318 C 112.93,16762 0,16490.5 0,16202.5 V 1082.5 C 0,794.5 112.93,523 317.98,318 523.035,112.902 794.547,0 1082.5,0 h 19440 c 288,0 559.5,112.902 764.5,318 205.1,205 318,476.5 318,764.5 v 15120 c 0,288 -112.9,559.5 -318,764.5 -205,205.1 -476.5,318 -764.5,318 z m 0,-2.5 c 594,0 1080,-486 1080,-1080 v -15120 c 0,-594 -486,-1080 -1080,-1080 h -19440 c -594,0 -1080,486 -1080,1080 v 15120 c 0,594 486,1080 1080,1080 h 19440"
         style="fill:#231f20;fill-opacity:1;fill-rule:nonzero;stroke:none"
         transform="matrix(0.13333333,0,0,-0.13333333,0,2304.6667)" />
      <path
         id="path4"
         d="m 20882.5,1082.5 v 15120 c 0,198 -162,360 -360,360 h -19440 c -198,0 -360,-162 -360,-360 v -15120 c 0,-198 162,-360 360,-360 h 19440 c 198,0 360,162 360,360 z m -360,-810 h -19440 c -445.5,0 -810,364.5 -810,810 v 15120 c 0,445.5 364.5,810 810,810 h 19440 c 445.5,0 810,-364.5 810,-810 v -15120 c 0,-445.5 -364.5,-810 -810,-810"
         style="fill:#231f20;fill-opacity:1;fill-rule:nonzero;stroke:none"
         transform="matrix(0.13333333,0,0,-0.13333333,0,2304.6667)" />
      <path
         id="path5"
         d="m 10574.4,15842.5 c 210.4,0 381.9,-171.6 381.9,-381.9 0,-210.4 -171.5,-382 -381.9,-382 -210.4,0 -382,171.6 -382,382 0,210.3 171.6,381.9 382,381.9"
         style="fill:#231f20;fill-opacity:1;fill-rule:nonzero;stroke:none"
         transform="matrix(0.13333333,0,0,-0.13333333,0,2304.6667)" />
      <path
         id="path6"
         d="m 9417.92,13434.1 801.18,534.1 c 37.1,156.6 190.7,851.6 498.9,1012.4 305.3,201.8 1430.8,-627.3 1437.2,-634.1 V 13137 l -244,42.4 -95.5,965.5 c -91.9,18.5 -183.9,37 -275.8,55.5 200.9,-519.4 274.7,-1020 159.1,-1349.9 l 488.1,-1994.6 -328.9,-233.4 -710.9,1846.1 -328.9,-350.1 -456.2,-1389.9 -435,159.1 392.6,1464.2 456.2,816.9 -174.9,603 -185.9,-242.2 -869.96,-286.5 -127.32,191"
         style="fill:#231f20;fill-opacity:1;fill-rule:nonzero;stroke:none"
         transform="matrix(0.13333333,0,0,-0.13333333,0,2304.6667)" />
      <path
         id="path7"
         d="M 3224.97,9334.13 H 2580.61 V 6883.9 h 604.31 c 523.77,0 695.66,634.49 695.66,1312.18 0,322.21 -91.79,1138.05 -655.61,1138.05 z M 2012.74,6302.5 v 3599.98 h 1298.62 c 908.5,0 1151.94,-1196.54 1151.94,-1718.99 C 4463.3,6833 3768.99,6302.5 3313.61,6302.5 H 2012.74"
         style="fill:#231f20;fill-opacity:1;fill-rule:nonzero;stroke:none"
         transform="matrix(0.13333333,0,0,-0.13333333,0,2304.6667)" />
      <path
         id="path8"
         d="M 5255.46,9902.48 H 7374.84 V 9334.13 H 5823.33 V 8449.89 H 6870.42 V 7868.94 H 5823.33 V 6883.4 h 1664.9 V 6302.5 H 5255.46 v 3599.98"
         style="fill:#231f20;fill-opacity:1;fill-rule:nonzero;stroke:none"
         transform="matrix(0.13333333,0,0,-0.13333333,0,2304.6667)" />
      <path
         id="path9"
         d="m 9171.75,6302.5 h -571.02 v 3094.63 h -824.36 v 505.35 H 10009.1 V 9397.13 H 9171.75 V 6302.5"
         style="fill:#231f20;fill-opacity:1;fill-rule:nonzero;stroke:none"
         transform="matrix(0.13333333,0,0,-0.13333333,0,2304.6667)" />
      <path
         id="path10"
         d="m 11762.3,6820 c 387.9,0 702.9,367.6 702.9,1282.48 0,914.85 -315,1282.5 -702.9,1282.5 -387.8,0 -702.8,-367.2 -702.8,-1282.5 0,-914.88 315,-1282.48 702.8,-1282.48 z m 1272.6,1282.48 c 0,-129.14 27.4,-1862.98 -1278.9,-1862.98 -1306.2,0 -1278.8,1733.84 -1278.8,1862.98 0,129.15 -27.4,1862.55 1278.8,1862.55 1306.3,0 1278.9,-1733.4 1278.9,-1862.55"
         style="fill:#231f20;fill-opacity:1;fill-rule:nonzero;stroke:none"
         transform="matrix(0.13333333,0,0,-0.13333333,0,2304.6667)" />
      <path
         id="path11"
         d="m 13827,7590.84 v 2311.64 h 567.9 V 7590.84 c 0,-467.54 265.5,-770.44 657,-770.44 391.4,0 656.9,302.9 656.9,770.44 v 2311.64 h 568.8 V 7590.84 c 0,-1138.54 -873.4,-1351.34 -1225.3,-1351.34 -320.4,0 -1225.3,188.5 -1225.3,1351.34"
         style="fill:#231f20;fill-opacity:1;fill-rule:nonzero;stroke:none"
         transform="matrix(0.13333333,0,0,-0.13333333,0,2304.6667)" />
      <path
         id="path12"
         d="m 18424.6,8449.89 c 451.7,0 522.8,325.79 522.8,441.89 0,157.05 -117.4,442.35 -495.4,442.35 h -742.4 v -884.24 z m -715,-580.5 V 6302.5 h -567.9 v 3599.98 h 1302.2 c 825.3,0 1072.8,-660.15 1072.8,-1011.14 0,-133.65 -49.5,-660.15 -558.9,-901.35 l 634.5,-1687.49 h -619.2 l -580.9,1566.89 h -682.6"
         style="fill:#231f20;fill-opacity:1;fill-rule:nonzero;stroke:none"
         transform="matrix(0.13333333,0,0,-0.13333333,0,2304.6667)" />
      <path
         id="path13"
         d="M 15842.5,2983.7 H 8272.64 V 4401.2 H 15842.5 V 2983.7"
         style="fill:#231f20;fill-opacity:1;fill-rule:nonzero;stroke:none"
         transform="matrix(0.13333333,0,0,-0.13333333,0,2304.6667)" />
      <path
         id="path14"
         d="m 8824.28,2105.1 c 6.43,-22.1 9.47,-44.3 9.48,-66.2 0,-130.5 -105.8,-236.2 -236.28,-236.2 -46.03,-0.1 -92.56,13.3 -133.42,41.3 L 5762.5,3692.7 8464.06,5541.4 c 40.86,27.9 87.39,41.3 133.42,41.3 130.48,0 236.28,-105.8 236.28,-236.3 -0.01,-21.9 -3.05,-44.1 -9.48,-66.1 L 8361.23,3692.7 8824.28,2105.1"
         style="fill:#231f20;fill-opacity:1;fill-rule:nonzero;stroke:none"
         transform="matrix(0.13333333,0,0,-0.13333333,0,2304.6667)" />
    </g>
  </g>
</svg>
