<?xml version="1.0" encoding="UTF-8" standalone="no"?>
<!-- Created with Inkscape (http://www.inkscape.org/) -->

<svg
   version="1.1"
   id="svg1"
   width="2880.6667"
   height="1440.6667"
   viewBox="0 0 2880.6667 1440.6667"
   sodipodi:docname="tmpsm3ijo29.pdf"
   xmlns:inkscape="http://www.inkscape.org/namespaces/inkscape"
   xmlns:sodipodi="http://sodipodi.sourceforge.net/DTD/sodipodi-0.dtd"
   xmlns="http://www.w3.org/2000/svg"
   xmlns:svg="http://www.w3.org/2000/svg">
  <defs
     id="defs1" />
  <sodipodi:namedview
     id="namedview1"
     pagecolor="#ffffff"
     bordercolor="#000000"
     borderopacity="0.25"
     inkscape:showpageshadow="2"
     inkscape:pageopacity="0.0"
     inkscape:pagecheckerboard="0"
     inkscape:deskcolor="#d1d1d1">
    <inkscape:page
       x="0"
       y="0"
       inkscape:label="1"
       id="page1"
       width="2880.6667"
       height="1440.6667"
       margin="0"
       bleed="0" />
  </sodipodi:namedview>
  <g
     id="g1"
     inkscape:groupmode="layer"
     inkscape:label="1">
    <g
       id="group-R5">
      <path
         id="path2"
         d="M 1082.5,1.19922 C 486.301,1.19922 1.25,486.301 1.25,1082.5 v 8640 c 0,596.2 485.051,1081.3 1081.25,1081.3 h 19440 c 596.2,0 1081.3,-485.1 1081.3,-1081.3 v -8640 C 21603.8,486.301 21118.7,1.19922 20522.5,1.19922 h -19440"
         style="fill:#f68512;fill-opacity:1;fill-rule:nonzero;stroke:none"
         transform="matrix(0.13333333,0,0,-0.13333333,0,1440.6667)" />
      <path
         id="path3"
         d="m 20522.5,10805 h -19440 c -289.148,0 -560.988,-112.6 -765.445,-317.1 C 112.602,10283.5 0,10011.6 0,9722.5 v -8640 C 0,793.402 112.602,521.5 317.055,317.102 521.512,112.602 793.352,0 1082.5,0 h 19440 c 289.1,0 561,112.602 765.4,317.102 204.5,204.398 317.1,476.3 317.1,765.398 v 8640 c 0,289.1 -112.6,561 -317.1,765.4 -204.4,204.5 -476.3,317.1 -765.4,317.1 z m 0,-2.5 c 596.5,0 1080,-483.5 1080,-1080 v -8640 C 21602.5,486 21119,2.5 20522.5,2.5 H 1082.5 C 486.031,2.5 2.5,486 2.5,1082.5 v 8640 c 0,596.5 483.531,1080 1080,1080 h 19440"
         style="fill:#231f20;fill-opacity:1;fill-rule:nonzero;stroke:none"
         transform="matrix(0.13333333,0,0,-0.13333333,0,1440.6667)" />
      <path
         id="path4"
         d="m 1082.5,272.5 c -446.637,0 -810,363.402 -810,810 v 8640 c 0,446.6 363.363,810 810,810 h 19440 c 446.6,0 810,-363.4 810,-810 v -8640 c 0,-446.598 -363.4,-810 -810,-810 h -19440"
         style="fill:#231f20;fill-opacity:1;fill-rule:nonzero;stroke:none"
         transform="matrix(0.13333333,0,0,-0.13333333,0,1440.6667)" />
      <path
         id="path5"
         d="m 1082.5,722.5 c -198.508,0 -360,161.492 -360,360 v 8640 c 0,198.51 161.492,360 360,360 h 19440 c 198.5,0 360,-161.49 360,-360 v -8640 c 0,-198.508 -161.5,-360 -360,-360 h -19440"
         style="fill:#f68512;fill-opacity:1;fill-rule:nonzero;stroke:none"
         transform="matrix(0.13333333,0,0,-0.13333333,0,1440.6667)" />
      <path
         id="path6"
         d="M 2475.67,7534.43 V 3270.6 h 462.22 c 561.58,0 534.21,864.72 534.21,2139.83 0,1907.27 -176.39,2124 -534.21,2124 z M 1749.22,2522.52 V 8282.5 h 1188.67 c 483.1,0 1289.46,-25.2 1289.46,-2869.91 0,-2844.71 -806.36,-2890.07 -1289.46,-2890.07 H 1749.22"
         style="fill:#231f20;fill-opacity:1;fill-rule:nonzero;stroke:none"
         transform="matrix(0.13333333,0,0,-0.13333333,0,1440.6667)" />
      <path
         id="path7"
         d="M 5103,8282.5 H 7212.51 V 7534.43 H 5826.57 V 6059.15 h 924.44 V 5291.64 H 5826.57 V 3270.6 H 7293.14 V 2522.52 H 5103 V 8282.5"
         style="fill:#231f20;fill-opacity:1;fill-rule:nonzero;stroke:none"
         transform="matrix(0.13333333,0,0,-0.13333333,0,1440.6667)" />
      <path
         id="path8"
         d="M 9100.39,2522.52 H 8373.22 V 7534.43 H 7661.9 V 8282.5 H 9852.04 V 7534.43 H 9100.39 V 2522.52"
         style="fill:#231f20;fill-opacity:1;fill-rule:nonzero;stroke:none"
         transform="matrix(0.13333333,0,0,-0.13333333,0,1440.6667)" />
      <path
         id="path9"
         d="m 11117.9,5392.43 c 0,-1006.55 14.4,-2223.35 566.6,-2223.35 552.2,0 565.9,1216.8 565.9,2223.35 0,1006.56 -13.7,2223.36 -565.9,2223.36 -552.2,0 -566.6,-1216.8 -566.6,-2223.36 z m 566.6,-2970.7 c -1293,0 -1325.4,1625.75 -1325.4,2970.7 0,1344.95 32.4,2969.99 1325.4,2969.99 1293.1,0 1325.5,-1625.04 1325.5,-2969.99 0,-1344.95 -32.4,-2970.7 -1325.5,-2970.7"
         style="fill:#231f20;fill-opacity:1;fill-rule:nonzero;stroke:none"
         transform="matrix(0.13333333,0,0,-0.13333333,0,1440.6667)" />
      <path
         id="path10"
         d="M 13885.7,3937.31 V 8282.5 h 727.1 V 3835.79 c 0,-424.06 176.4,-666.71 519.9,-666.71 323.2,0 504.7,242.65 504.7,666.71 V 8282.5 h 726.4 V 3937.31 c 0,-1201.67 -632.8,-1515.58 -1231.1,-1515.58 -650.9,0 -1247,359.99 -1247,1515.58"
         style="fill:#231f20;fill-opacity:1;fill-rule:nonzero;stroke:none"
         transform="matrix(0.13333333,0,0,-0.13333333,0,1440.6667)" />
      <path
         id="path11"
         d="m 19107,6685.54 c 0,652.32 -142.5,848.89 -647.2,848.89 h -354.3 V 5958.35 h 475.9 c 403.9,0 525.6,181.43 525.6,727.19 z m 142.6,-1295.27 586,-2867.75 h -789.1 l -549.3,2687.76 h -391.7 V 2522.52 h -727.8 V 8282.5 h 1122.4 c 892,0 1355.7,-545.76 1355.7,-1617.12 0,-551.5 -163.4,-1028.15 -606.2,-1275.11"
         style="fill:#231f20;fill-opacity:1;fill-rule:nonzero;stroke:none"
         transform="matrix(0.13333333,0,0,-0.13333333,0,1440.6667)" />
    </g>
  </g>
</svg>
