<?xml version="1.0" standalone="no"?>
<svg width="2592px" height="2592px" viewBox="0 -1800 2592 2592 " xmlns="http://www.w3.org/2000/svg" xmlns:xlink="http://www.w3.org/1999/xlink">
<title>generated by pstoedit</title>
<!-- generated by pstoedit version:4.02 -->
<g xml:space='preserve'>
<clipPath id="clippath1"> 	<path d="
	M 0 -1800 
	L 0 792 
	L 2592 792 
	L 2592 -1800 
	Z 
	" style="clip-rule:nonzero"/>
</clipPath>
<g style="clip-path:url(#clippath1)"> 
<g fill="#ffffff" fill-rule="nonzero" stroke-width="0" stroke-linejoin="miter" stroke-linecap="butt" stroke-miterlimit="10" >
	<path d="
	M 2592 630 
	C 2592 719.469 2519.47 792 2430 792 
	L 162 792 
	C 72.5313 792 0 719.469 0 630 
	L 0 -1638 
	C 0 -1727.47 72.5313 -1800 162 -1800 
	L 2430 -1800 
	C 2519.47 -1800 2592 -1727.47 2592 -1638 
	Z 
	"/>
</g>
<g fill="#cf7fa5" fill-rule="nonzero" stroke-width="0" stroke-linejoin="miter" stroke-linecap="butt" stroke-miterlimit="10" >
	<path d="
	M 162 738 
	C 102.449 738 54 689.551 54 630 
	L 54 -1638 
	C 54 -1697.55 102.449 -1746 162 -1746 
	L 2430 -1746 
	C 2489.55 -1746 2538 -1697.55 2538 -1638 
	L 2538 630 
	C 2538 689.551 2489.55 738 2430 738 
	Z 
	"/>
</g>
<g fill="#ffffff" fill-rule="nonzero" stroke-width="0" stroke-linejoin="miter" stroke-linecap="butt" stroke-miterlimit="10" >
	<path d="
	M 2376 -432 
	L 216 -432 
	L 216 -1512 
	L 2376 -1512 
	Z 
	"/>
</g>
<g fill="#cf7fa5" fill-rule="nonzero" stroke-width="0" stroke-linejoin="miter" stroke-linecap="butt" stroke-miterlimit="10" >
	<path d="
	M 2170.86 -735.78 
	L 1047.71 -735.78 
	L 1050.67 -748.52 
	L 2173.83 -748.52 
	Z 
	"/>
</g>
<g fill="#cf7fa5" fill-rule="nonzero" stroke-width="0" stroke-linejoin="miter" stroke-linecap="butt" stroke-miterlimit="10" >
	<path d="
	M 883.301 -700.44 
	L 787.875 -700.44 
	L 790.852 -713.29 
	L 886.344 -713.29 
	Z 
	"/>
</g>
<g fill="#cf7fa5" fill-rule="nonzero" stroke-width="0" stroke-linejoin="miter" stroke-linecap="butt" stroke-miterlimit="10" >
	<path d="
	M 1203.18 -700.44 
	L 1107.89 -700.44 
	L 1110.66 -713.29 
	L 1206.15 -713.29 
	Z 
	"/>
</g>
<g fill="#cf7fa5" fill-rule="nonzero" stroke-width="0" stroke-linejoin="miter" stroke-linecap="butt" stroke-miterlimit="10" >
	<path d="
	M 1523.26 -700.44 
	L 1427.62 -700.44 
	L 1430.61 -713.29 
	L 1526.1 -713.29 
	Z 
	"/>
</g>
<g fill="#cf7fa5" fill-rule="nonzero" stroke-width="0" stroke-linejoin="miter" stroke-linecap="butt" stroke-miterlimit="10" >
	<path d="
	M 1843 -700.44 
	L 1747.51 -700.44 
	L 1750.35 -713.29 
	L 1845.97 -713.29 
	Z 
	"/>
</g>
<g fill="#cf7fa5" fill-rule="nonzero" stroke-width="0" stroke-linejoin="miter" stroke-linecap="butt" stroke-miterlimit="10" >
	<path d="
	M 2162.93 -700.44 
	L 2067.33 -700.44 
	L 2070.3 -713.29 
	L 2165.79 -713.29 
	Z 
	"/>
</g>
<g fill="#cf7fa5" fill-rule="nonzero" stroke-width="0" stroke-linejoin="miter" stroke-linecap="butt" stroke-miterlimit="10" >
	<path d="
	M 2154.89 -665.21 
	L 676.563 -665.21 
	L 679.469 -678 
	L 2157.73 -678 
	Z 
	"/>
</g>
<g fill="#7f7f7f" fill-rule="nonzero" stroke-width="0" stroke-linejoin="miter" stroke-linecap="butt" stroke-miterlimit="10" >
	<path d="
	M 382.18 -1175.4 
	L 360 -1079.5 
	L 533.934 -1079.5 
	L 438.379 -665.21 
	L 550.035 -665.21 
	L 645.59 -1079.5 
	L 933.754 -1079.5 
	L 955.863 -1175.4 
	Z 
	"/>
</g>
<g fill="#7f7f7f" fill-rule="nonzero" stroke-width="0" stroke-linejoin="miter" stroke-linecap="butt" stroke-miterlimit="10" >
	<path d="
	M 744.664 -884.86 
	C 738.168 -884.86 729.648 -885.78 726.063 -890.27 
	C 721.742 -895.75 721.328 -908.27 724.98 -923.82 
	C 736.078 -972.71 765.426 -972.71 775.098 -972.71 
	C 781.52 -972.71 790.039 -971.77 793.625 -967.23 
	C 797.957 -961.83 798.293 -949.31 794.707 -933.8 
	C 783.48 -884.86 754.336 -884.86 744.664 -884.86 
	Z 
	M 884.785 -1024.31 
	C 863.957 -1050.51 828.859 -1065 786.121 -1065 
	C 722.684 -1065 640.59 -1030.6 618.336 -933.8 
	C 606.566 -882.7 620.902 -850.92 634.969 -833.27 
	C 655.805 -807.02 690.898 -792.62 733.641 -792.62 
	C 797.211 -792.62 879.238 -827 901.285 -923.82 
	C 913.121 -974.74 898.852 -1006.56 884.785 -1024.31 
	Z 
	"/>
</g>
<g fill="#7f7f7f" fill-rule="nonzero" stroke-width="0" stroke-linejoin="miter" stroke-linecap="butt" stroke-miterlimit="10" >
	<path d="
	M 983.121 -1278.79 
	L 858.617 -735.78 
	L 965.738 -735.78 
	L 1090.31 -1278.79 
	Z 
	"/>
</g>
<g fill="#7f7f7f" fill-rule="nonzero" stroke-width="0" stroke-linejoin="miter" stroke-linecap="butt" stroke-miterlimit="10" >
	<path d="
	M 1105.79 -1278.79 
	L 981.227 -735.78 
	L 1088.35 -735.78 
	L 1213.05 -1278.79 
	Z 
	"/>
</g>
<g fill="#7f7f7f" fill-rule="nonzero" stroke-width="0" stroke-linejoin="miter" stroke-linecap="butt" stroke-miterlimit="10" >
	<path d="
	M 2088.69 -879.99 
	C 2069.69 -879.99 2065.01 -883.71 2066.38 -884.79 
	L 2066.64 -885.91 
	C 2072.25 -884.73 2077.79 -883.65 2083.14 -882.66 
	C 2086.65 -881.93 2090.85 -881.15 2095.05 -880.27 
	C 2093.15 -880.07 2090.98 -879.99 2088.69 -879.99 
	Z 
	M 1843.34 -879.99 
	C 1824.33 -879.99 1819.74 -883.71 1821.1 -884.6 
	L 1821.43 -885.91 
	C 1826.97 -884.73 1832.45 -883.65 1837.8 -882.66 
	C 1841.37 -881.93 1845.51 -881.15 1849.69 -880.27 
	C 1847.8 -880.07 1845.64 -879.99 1843.34 -879.99 
	Z 
	M 1709.78 -847.54 
	C 1710.04 -849.9 1710.52 -853.25 1711.6 -857.74 
	L 1713.35 -865.19 
	C 1714.24 -857.2 1716.21 -850.25 1718.83 -844.36 
	Z 
	M 1571.55 -876.48 
	C 1573.23 -883.58 1576.15 -888.18 1602.44 -892.24 
	C 1605.49 -892.64 1608.33 -893.08 1611.11 -893.49 
	C 1602.66 -883.65 1586.15 -877.3 1571.55 -876.48 
	Z 
	M 1442.39 -1067.26 
	C 1439.33 -1054.55 1435.68 -1038.85 1404.03 -1038.85 
	L 1370.55 -1038.85 
	L 1380.08 -1080.65 
	L 1415.06 -1080.65 
	C 1437.84 -1080.65 1442.98 -1076.52 1443.11 -1076.52 
	C 1443.17 -1076.28 1443.86 -1073.82 1442.39 -1067.26 
	Z 
	M 2230.63 -967.85 
	C 2234.75 -994.69 2229.57 -1016.8 2215.15 -1033.52 
	C 2196.96 -1054.68 2165.79 -1065 2119.92 -1065 
	C 2036.88 -1065 1996.66 -1018.64 1986.78 -975.35 
	C 1982.24 -955.88 1984.68 -938.77 1994 -924.49 
	C 1997.12 -919.62 2000.91 -915.44 2005.09 -911.75 
	L 1974.4 -911.75 
	C 1973.18 -919.9 1970.34 -927.55 1965.82 -934.5 
	C 1962.22 -940.11 1957.76 -944.92 1952.69 -949.05 
	L 1982.38 -949.05 
	L 1985.21 -967.85 
	C 1989.34 -994.69 1984.12 -1016.8 1969.72 -1033.52 
	C 1951.54 -1054.68 1920.29 -1065 1874.44 -1065 
	C 1791.34 -1065 1750.82 -1016.67 1741.36 -975.35 
	C 1736.81 -955.88 1739.32 -938.77 1748.59 -924.49 
	C 1751.71 -919.62 1755.48 -915.44 1759.68 -911.75 
	L 1724.05 -911.75 
	L 1738.58 -975.15 
	C 1745.08 -1003.25 1736.22 -1021.87 1727.76 -1032.66 
	C 1705.38 -1060.83 1661.89 -1065 1637.96 -1065 
	C 1619.09 -1065 1581.28 -1064.72 1547.73 -1044.07 
	C 1548.82 -1047.64 1550.16 -1051.36 1550.92 -1054.55 
	C 1561.05 -1098.68 1548.69 -1126.09 1536.58 -1141.38 
	C 1524.21 -1156.86 1499.65 -1175.4 1452.72 -1175.4 
	L 1290.28 -1175.4 
	L 1203.18 -798.23 
	L 1314.83 -798.23 
	L 1348.5 -944.14 
	L 1406.94 -944.14 
	C 1443.39 -944.14 1471.72 -955.11 1493.5 -970.66 
	L 1484.91 -944.92 
	L 1505.94 -944.92 
	C 1485.79 -929.94 1471.93 -908.75 1465.91 -882.76 
	C 1458.74 -851.94 1468.01 -831.84 1477.06 -820.46 
	C 1491.34 -802.5 1515.29 -792.62 1544.36 -792.62 
	C 1570.54 -792.62 1590.88 -798.64 1606.84 -806.29 
	L 1607.79 -798.23 
	L 1711.38 -798.23 
	L 1721.13 -838.98 
	C 1723.29 -835.02 1725.66 -831.58 1727.95 -828.74 
	C 1752.51 -798.84 1797.9 -792.62 1831.63 -792.62 
	C 1879.92 -792.62 1934.22 -809.6 1960.4 -853.69 
	C 1963.44 -842.93 1968.51 -834.64 1973.38 -828.66 
	C 1997.94 -798.84 2043.25 -792.62 2076.99 -792.62 
	C 2135.21 -792.62 2203.04 -816.7 2218.54 -884.25 
	C 2222.94 -903.4 2220.5 -920.23 2211.29 -934.5 
	C 2207.65 -940.11 2203.19 -944.92 2198.1 -949.05 
	L 2227.79 -949.05 
	Z 
	"/>
</g>
<g fill="#ffffff" fill-rule="nonzero" stroke-width="0" stroke-linejoin="miter" stroke-linecap="butt" stroke-miterlimit="10" >
	<path d="
	M 541.242 -676.29 
	L 452.309 -676.29 
	L 547.938 -1090.59 
	L 373.926 -1090.59 
	L 391.035 -1164.34 
	L 941.93 -1164.34 
	L 924.895 -1090.59 
	L 636.801 -1090.59 
	L 541.242 -676.29 
	Z 
	"/>
</g>
<g fill="#ffffff" fill-rule="nonzero" stroke-width="0" stroke-linejoin="miter" stroke-linecap="butt" stroke-miterlimit="10" >
	<path d="
	M 775.098 -983.81 
	C 735.668 -983.81 720.184 -952.5 714.098 -926.32 
	C 709.699 -906.97 710.848 -891.7 717.477 -883.45 
	C 722.555 -877.02 731.746 -873.77 744.664 -873.77 
	C 784.02 -873.77 799.438 -905.02 805.527 -931.25 
	C 809.922 -950.66 808.84 -965.85 802.211 -974.13 
	C 797.211 -980.56 788.016 -983.81 775.098 -983.81 
	Z 
	M 733.641 -803.71 
	C 694.344 -803.71 662.293 -816.63 643.633 -840.16 
	C 625.637 -862.81 620.566 -894.26 629.09 -931.25 
	C 649.988 -1021.84 726.742 -1053.89 786.121 -1053.89 
	C 825.406 -1053.89 857.398 -1040.95 876.133 -1017.38 
	C 894.117 -994.75 899.121 -963.24 890.531 -926.28 
	C 869.906 -835.76 793.148 -803.71 733.641 -803.71 
	Z 
	"/>
</g>
<g fill="#ffffff" fill-rule="nonzero" stroke-width="0" stroke-linejoin="miter" stroke-linecap="butt" stroke-miterlimit="10" >
	<path d="
	M 956.945 -746.87 
	L 872.48 -746.87 
	L 991.84 -1267.71 
	L 1076.37 -1267.71 
	L 956.945 -746.87 
	Z 
	"/>
</g>
<g fill="#ffffff" fill-rule="nonzero" stroke-width="0" stroke-linejoin="miter" stroke-linecap="butt" stroke-miterlimit="10" >
	<path d="
	M 1079.62 -746.87 
	L 995.152 -746.87 
	L 1114.58 -1267.71 
	L 1199.18 -1267.71 
	L 1079.62 -746.87 
	Z 
	"/>
</g>
<g fill="#ffffff" fill-rule="nonzero" stroke-width="0" stroke-linejoin="miter" stroke-linecap="butt" stroke-miterlimit="10" >
	<path d="
	M 1356.69 -1027.76 
	L 1404.03 -1027.76 
	C 1444.47 -1027.76 1450.08 -1051.84 1453.11 -1064.72 
	C 1455.15 -1073.48 1454.75 -1079.63 1451.97 -1083.14 
	C 1448.87 -1087.04 1439.94 -1091.73 1415.06 -1091.73 
	L 1371.29 -1091.73 
	L 1356.69 -1027.76 
	Z 
	M 1306.04 -809.32 
	L 1217.1 -809.32 
	L 1299.14 -1164.34 
	L 1452.72 -1164.34 
	C 1486.33 -1164.34 1512.37 -1154.02 1527.92 -1134.52 
	C 1543.21 -1115.34 1547.41 -1088.55 1540.16 -1057.11 
	C 1532.12 -1021.84 1493.9 -955.23 1406.94 -955.23 
	L 1339.73 -955.23 
	L 1306.04 -809.32 
	Z 
	"/>
</g>
<g fill="#ffffff" fill-rule="nonzero" stroke-width="0" stroke-linejoin="miter" stroke-linecap="butt" stroke-miterlimit="10" >
	<path d="
	M 1628.76 -908.2 
	C 1621.39 -906.37 1612.32 -904.74 1600.95 -903.18 
	C 1576.74 -899.48 1564.5 -894.87 1560.79 -879.02 
	C 1559.91 -875.02 1560.1 -872.02 1561.6 -870.26 
	C 1563.42 -867.9 1567.81 -866.41 1572.83 -866.41 
	C 1595.08 -866.41 1622.13 -879.53 1627 -900.72 
	L 1628.76 -908.2 
	Z 
	M 1619.96 -986.3 
	C 1596.1 -986.3 1589.6 -974.33 1585.4 -963.18 
	L 1584.25 -959.93 
	L 1627.8 -965.79 
	C 1637.47 -966.96 1642.88 -969.87 1643.9 -974.48 
	C 1644.37 -976.43 1644.91 -980.02 1643.63 -981.71 
	C 1641.14 -984.71 1633.22 -986.3 1619.96 -986.3 
	Z 
	M 1544.36 -803.71 
	C 1518.67 -803.71 1497.83 -812.09 1485.73 -827.35 
	C 1478.21 -836.84 1470.5 -853.69 1476.67 -880.33 
	C 1485.73 -919.62 1515.21 -946.74 1558.28 -956 
	L 1500.26 -956 
	L 1505.07 -970.59 
	C 1529.76 -1044.46 1588.99 -1053.89 1637.96 -1053.89 
	C 1659.88 -1053.89 1699.56 -1050.28 1719.09 -1025.73 
	C 1729.25 -1012.95 1732.22 -996.72 1727.76 -977.64 
	L 1700.85 -860.29 
	C 1696.92 -843.41 1699.02 -839.62 1699.08 -839.48 
	L 1708.5 -836.24 
	L 1702.67 -809.32 
	L 1617.58 -809.32 
	L 1616.37 -819 
	C 1616.11 -820.82 1615.91 -822.51 1615.78 -823.97 
	C 1599.47 -813.65 1576.61 -803.71 1544.36 -803.71 
	Z 
	"/>
</g>
<g fill="#ffffff" fill-rule="nonzero" stroke-width="0" stroke-linejoin="miter" stroke-linecap="butt" stroke-miterlimit="10" >
	<path d="
	M 1868.01 -988.67 
	C 1838.88 -988.67 1836.71 -979.48 1835.89 -976.02 
	C 1838.67 -973.05 1859.29 -969 1872.82 -966.32 
	C 1878.84 -965.21 1885.14 -963.91 1891.49 -962.54 
	L 1891.96 -971.7 
	C 1892.29 -978.33 1891.62 -981.71 1889.73 -983.73 
	C 1887.96 -985.57 1882.83 -988.67 1868.01 -988.67 
	Z 
	M 1813.17 -899.13 
	L 1810.34 -887.09 
	C 1808.65 -879.86 1810.6 -877.36 1811.29 -876.54 
	C 1813.04 -874.31 1819.87 -868.9 1843.34 -868.9 
	C 1868.42 -868.9 1876.13 -878.95 1877.09 -882.76 
	C 1874.44 -886.83 1853.55 -890.82 1839.81 -893.49 
	C 1831.1 -895.21 1822.03 -896.93 1813.17 -899.13 
	Z 
	M 1831.63 -803.71 
	C 1800.26 -803.71 1758.27 -809.19 1736.55 -835.7 
	C 1724.44 -850.51 1720.6 -869.38 1725.07 -891.83 
	L 1726.87 -900.66 
	L 1807.09 -900.66 
	C 1786.73 -906.23 1768.14 -914.65 1757.92 -930.51 
	C 1750.28 -942.21 1748.33 -956.42 1752.1 -972.86 
	C 1761.09 -1012.08 1797.97 -1053.89 1874.44 -1053.89 
	C 1916.92 -1053.89 1945.31 -1044.87 1961.36 -1026.27 
	C 1973.53 -1012.14 1977.86 -993 1974.33 -969.54 
	L 1972.9 -960.14 
	L 1901.71 -960.14 
	C 1923.95 -954.38 1945.44 -945.59 1956.53 -928.48 
	C 1964.11 -916.85 1966.01 -902.86 1962.36 -886.76 
	C 1944.64 -809.66 1857.81 -803.71 1831.63 -803.71 
	Z 
	"/>
</g>
<g fill="#ffffff" fill-rule="nonzero" stroke-width="0" stroke-linejoin="miter" stroke-linecap="butt" stroke-miterlimit="10" >
	<path d="
	M 2113.51 -988.67 
	C 2084.16 -988.67 2082.12 -979.55 2081.3 -976.1 
	C 2084.09 -973.05 2104.65 -969 2118.25 -966.32 
	C 2124.18 -965.21 2130.48 -963.91 2136.85 -962.54 
	L 2137.24 -971.63 
	C 2137.5 -978.4 2136.91 -981.78 2134.95 -983.81 
	C 2133.26 -985.63 2128.12 -988.67 2113.51 -988.67 
	Z 
	M 2058.26 -899.2 
	L 2055.55 -887.24 
	C 2053.92 -879.86 2055.96 -877.36 2056.63 -876.54 
	C 2058.47 -874.25 2065.23 -868.9 2088.69 -868.9 
	C 2113.79 -868.9 2121.5 -878.88 2122.3 -882.7 
	C 2119.72 -886.83 2098.89 -890.82 2085.18 -893.49 
	C 2076.45 -895.21 2067.25 -896.93 2058.26 -899.2 
	Z 
	M 2076.99 -803.71 
	C 2045.67 -803.71 2003.68 -809.19 1981.98 -835.7 
	C 1969.87 -850.51 1965.95 -869.38 1970.41 -891.77 
	L 1972.17 -900.66 
	L 2052.5 -900.66 
	C 2032.16 -906.23 2013.62 -914.65 2003.29 -930.51 
	C 1995.64 -942.21 1993.74 -956.42 1997.53 -972.86 
	C 2006.45 -1012.08 2043.38 -1053.89 2119.92 -1053.89 
	C 2162.34 -1053.89 2190.74 -1044.87 2206.76 -1026.27 
	C 2219 -1012.14 2223.27 -993 2219.76 -969.54 
	L 2218.33 -960.14 
	L 2147.05 -960.14 
	C 2169.3 -954.38 2190.87 -945.59 2201.97 -928.48 
	C 2209.54 -916.85 2211.42 -902.86 2207.78 -886.76 
	C 2190.06 -809.66 2103.22 -803.71 2076.99 -803.71 
	Z 
	"/>
</g>
<g fill="#7fffaf" fill-rule="nonzero" stroke-width="0" stroke-linejoin="miter" stroke-linecap="butt" stroke-miterlimit="10" >
	<path d="
	M 532.449 -687.32 
	L 466.176 -687.32 
	L 561.797 -1101.58 
	L 387.863 -1101.58 
	L 399.766 -1153.32 
	L 928.066 -1153.32 
	L 916.102 -1101.58 
	L 628.008 -1101.58 
	Z 
	"/>
</g>
<g fill="#7fffaf" fill-rule="nonzero" stroke-width="0" stroke-linejoin="miter" stroke-linecap="butt" stroke-miterlimit="10" >
	<path d="
	M 775.098 -994.82 
	C 727.48 -994.82 709.766 -956.55 703.344 -928.82 
	C 696.988 -901.07 696.988 -862.75 744.664 -862.75 
	C 792.203 -862.75 809.855 -901.07 816.277 -928.82 
	C 822.703 -956.55 822.637 -994.82 775.098 -994.82 
	Z 
	M 733.641 -814.73 
	C 670.477 -814.73 621.855 -850.44 639.84 -928.82 
	C 657.895 -1007.01 723.02 -1042.91 786.121 -1042.91 
	C 849.211 -1042.91 897.906 -1007.01 879.781 -928.82 
	C 861.934 -850.44 796.73 -814.73 733.641 -814.73 
	Z 
	"/>
</g>
<g fill="#7fffaf" fill-rule="nonzero" stroke-width="0" stroke-linejoin="miter" stroke-linecap="butt" stroke-miterlimit="10" >
	<path d="
	M 948.09 -757.86 
	L 886.344 -757.86 
	L 1000.7 -1256.68 
	L 1062.51 -1256.68 
	Z 
	"/>
</g>
<g fill="#7fffaf" fill-rule="nonzero" stroke-width="0" stroke-linejoin="miter" stroke-linecap="butt" stroke-miterlimit="10" >
	<path d="
	M 1070.76 -757.86 
	L 1009.01 -757.86 
	L 1123.44 -1256.68 
	L 1185.32 -1256.68 
	Z 
	"/>
</g>
<g fill="#7fffaf" fill-rule="nonzero" stroke-width="0" stroke-linejoin="miter" stroke-linecap="butt" stroke-miterlimit="10" >
	<path d="
	M 1404.03 -1016.73 
	C 1453.47 -1016.73 1460.91 -1049.4 1463.94 -1062.39 
	C 1470.57 -1090.96 1456.1 -1102.76 1415.06 -1102.76 
	L 1362.43 -1102.76 
	L 1342.83 -1016.73 
	Z 
	M 1297.25 -820.38 
	L 1230.97 -820.38 
	L 1307.86 -1153.32 
	L 1452.72 -1153.32 
	C 1513.99 -1153.32 1542.6 -1116.97 1529.41 -1059.55 
	C 1523.33 -1033.04 1492.09 -966.26 1406.94 -966.26 
	L 1330.93 -966.26 
	Z 
	"/>
</g>
<g fill="#7fffaf" fill-rule="nonzero" stroke-width="0" stroke-linejoin="miter" stroke-linecap="butt" stroke-miterlimit="10" >
	<path d="
	M 1644.09 -925.95 
	C 1636.94 -921.46 1625.92 -917.8 1599.47 -914.14 
	C 1575.74 -910.5 1555.58 -905.15 1550.03 -881.55 
	C 1545.5 -861.53 1560.86 -855.38 1572.83 -855.38 
	C 1600.15 -855.38 1631.66 -871.82 1637.75 -898.27 
	Z 
	M 1690.09 -862.75 
	C 1684.14 -837.06 1689.01 -831.4 1696.05 -828.94 
	L 1694.01 -820.38 
	L 1627.33 -820.38 
	C 1626.05 -830.56 1625.92 -833.88 1627.53 -846.05 
	C 1610.3 -832.6 1586.29 -814.73 1544.36 -814.73 
	C 1509.12 -814.73 1477.06 -833.05 1487.42 -877.79 
	C 1497.21 -920.16 1531.36 -941.8 1571.88 -947.15 
	L 1629.23 -954.86 
	C 1639.24 -956 1651.8 -959.76 1654.72 -971.97 
	C 1660.2 -996.05 1635.92 -997.33 1619.96 -997.33 
	C 1588.99 -997.33 1579.85 -979.81 1575.06 -967.03 
	L 1515.62 -967.03 
	C 1537.73 -1033.58 1589.93 -1042.91 1637.96 -1042.91 
	C 1671.03 -1042.91 1729.38 -1033.58 1717.01 -980.15 
	Z 
	"/>
</g>
<g fill="#7fffaf" fill-rule="nonzero" stroke-width="0" stroke-linejoin="miter" stroke-linecap="butt" stroke-miterlimit="10" >
	<path d="
	M 1902.99 -971.16 
	C 1903.66 -985.09 1901.63 -999.72 1868.01 -999.72 
	C 1834.55 -999.72 1827.3 -987.89 1825.13 -978.53 
	C 1817.42 -944.28 1970 -969.16 1951.61 -889.22 
	C 1937.14 -826.16 1868.15 -814.73 1831.63 -814.73 
	C 1778.28 -814.73 1724.38 -831.84 1735.88 -889.6 
	L 1799.57 -889.6 
	C 1795.24 -871.31 1804.66 -857.88 1843.34 -857.88 
	C 1875.05 -857.88 1885.94 -872.14 1887.83 -880.33 
	C 1896.23 -916.59 1744.13 -889.22 1762.86 -970.38 
	C 1770.16 -1002.2 1801.28 -1042.91 1874.44 -1042.91 
	C 1920.36 -1042.91 1972.71 -1032.4 1963.37 -971.16 
	Z 
	"/>
</g>
<g fill="#7fffaf" fill-rule="nonzero" stroke-width="0" stroke-linejoin="miter" stroke-linecap="butt" stroke-miterlimit="10" >
	<path d="
	M 2148.27 -971.16 
	C 2148.87 -985.09 2146.92 -999.72 2113.51 -999.72 
	C 2079.83 -999.72 2072.66 -987.89 2070.56 -978.53 
	C 2062.72 -944.28 2215.49 -969.16 2197.02 -889.22 
	C 2182.49 -826.16 2113.65 -814.73 2076.99 -814.73 
	C 2023.63 -814.73 1969.79 -831.84 1981.24 -889.6 
	L 2044.79 -889.6 
	C 2040.67 -871.31 2050 -857.88 2088.69 -857.88 
	C 2120.41 -857.88 2131.3 -872.14 2133.11 -880.33 
	C 2141.57 -916.59 1989.54 -889.22 2008.27 -970.38 
	C 2015.59 -1002.2 2046.56 -1042.91 2119.92 -1042.91 
	C 2165.79 -1042.91 2218.12 -1032.4 2208.8 -971.16 
	Z 
	"/>
</g>
<g fill="#ffffff" fill-rule="evenodd" stroke-width="0" stroke-linejoin="miter" stroke-linecap="butt" stroke-miterlimit="10" >
	<path d="
	M 2268 450 
	C 2268 479.82 2243.82 504 2214 504 
	L 378 504 
	C 348.176 504 324 479.82 324 450 
	L 324 -90 
	C 324 -119.82 348.176 -144 378 -144 
	L 2214 -144 
	C 2243.82 -144 2268 -119.82 2268 -90 
	Z 
	"/>
</g>
<g fill="#7f7f7f" fill-rule="nonzero" stroke-width="0" stroke-linejoin="miter" stroke-linecap="butt" stroke-miterlimit="10" >
	<path d="
	M 1198.75 396 
	L 1033.52 103.449 
	L 1033.52 396 
	L 965.301 396 
	L 965.301 -36 
	L 1033.52 -36 
	L 1191.17 239.871 
	L 1191.17 -36 
	L 1259.38 -36 
	L 1259.38 396 
	Z 
	"/>
</g>
<g fill="#7f7f7f" fill-rule="nonzero" stroke-width="0" stroke-linejoin="miter" stroke-linecap="butt" stroke-miterlimit="10" >
	<path d="
	M 776.055 59.488 
	C 762.379 36.762 745.668 27.66 719.836 26.148 
	C 686.402 24.629 665.133 41.301 649.938 79.199 
	C 639.301 104.969 633.227 144.379 633.227 180.762 
	C 633.227 226.23 642.34 273.219 659.055 300.5 
	C 672.73 323.238 690.965 333.852 718.313 333.852 
	C 750.227 333.852 769.977 317.18 785.172 279.281 
	C 794.289 256.551 801.887 214.102 801.887 180.762 
	C 801.887 132.25 792.77 88.289 776.055 59.488 
	Z 
	M 823.156 355.07 
	C 798.848 388.422 763.895 403.582 718.313 403.582 
	C 657.535 403.582 619.547 379.32 593.715 326.27 
	C 575.48 289.891 563.328 232.289 563.328 180.762 
	C 563.328 109.512 581.559 45.852 610.434 4.922 
	C 636.262 -28.422 671.211 -43.578 721.352 -43.578 
	C 776.055 -43.578 814.043 -19.328 841.395 33.73 
	C 859.625 71.621 870.262 126.191 870.262 180.762 
	C 870.262 248.969 853.551 317.18 823.156 355.07 
	Z 
	"/>
</g>
<g fill="#7f7f7f" fill-rule="nonzero" stroke-width="0" stroke-linejoin="miter" stroke-linecap="butt" stroke-miterlimit="10" >
	<path d="
	M 1363.07 396 
	L 1363.07 -36.012 
	L 1431.19 -36.012 
	L 1431.19 332.34 
	L 1631.01 332.34 
	L 1631.01 396 
	Z 
	"/>
</g>
<g fill="#7f7f7f" fill-rule="nonzero" stroke-width="0" stroke-linejoin="miter" stroke-linecap="butt" stroke-miterlimit="10" >
	<path d="
	M 1877.84 208.039 
	L 1877.84 396 
	L 1809.29 396 
	L 1809.29 208.039 
	L 1656.94 -36 
	L 1739.21 -36 
	L 1842.8 130.73 
	L 1947.92 -36 
	L 2028.67 -36 
	Z 
	"/>
</g>
</g >
</g>
</svg>
