<?xml version="1.0" encoding="UTF-8" standalone="no"?>
<!-- Created with Inkscape (http://www.inkscape.org/) -->

<svg
   version="1.1"
   id="svg1"
   width="2304.6667"
   height="1728.6667"
   viewBox="0 0 2304.6667 1728.6667"
   sodipodi:docname="tmp__usxd92.pdf"
   xmlns:inkscape="http://www.inkscape.org/namespaces/inkscape"
   xmlns:sodipodi="http://sodipodi.sourceforge.net/DTD/sodipodi-0.dtd"
   xmlns="http://www.w3.org/2000/svg"
   xmlns:svg="http://www.w3.org/2000/svg">
  <defs
     id="defs1" />
  <sodipodi:namedview
     id="namedview1"
     pagecolor="#ffffff"
     bordercolor="#000000"
     borderopacity="0.25"
     inkscape:showpageshadow="2"
     inkscape:pageopacity="0.0"
     inkscape:pagecheckerboard="0"
     inkscape:deskcolor="#d1d1d1">
    <inkscape:page
       x="0"
       y="0"
       inkscape:label="1"
       id="page1"
       width="2304.6667"
       height="1728.6667"
       margin="0"
       bleed="0" />
  </sodipodi:namedview>
  <g
     id="g1"
     inkscape:groupmode="layer"
     inkscape:label="1">
    <g
       id="group-R5">
      <path
         id="path2"
         d="M 1082.5,1.19922 C 486.293,1.19922 1.25,486.301 1.25,1082.5 v 10800 c 0,596.2 485.043,1081.3 1081.25,1081.3 h 15120 c 596.2,0 1081.3,-485.1 1081.3,-1081.3 V 1082.5 C 17283.8,486.301 16798.7,1.19922 16202.5,1.19922 h -15120"
         style="fill:#f68512;fill-opacity:1;fill-rule:nonzero;stroke:none"
         transform="matrix(0.13333333,0,0,-0.13333333,0,1728.6667)" />
      <path
         id="path3"
         d="m 16202.5,12965 h -15120 c -287.953,0 -559.465,-112.9 -764.516,-318 C 112.93,12442 0,12170.5 0,11882.5 V 1082.5 C 0,794.5 112.93,523 317.984,318 523.035,112.902 794.547,0 1082.5,0 h 15120 c 288,0 559.5,112.902 764.5,318 205.1,205 318,476.5 318,764.5 v 10800 c 0,288 -112.9,559.5 -318,764.5 -205,205.1 -476.5,318 -764.5,318 z m 0,-2.5 c 594,0 1080,-486 1080,-1080 v -10800 c 0,-594 -486,-1080 -1080,-1080 h -15120 c -594,0 -1080,486 -1080,1080 v 10800 c 0,594 486,1080 1080,1080 h 15120"
         style="fill:#231f20;fill-opacity:1;fill-rule:nonzero;stroke:none"
         transform="matrix(0.13333333,0,0,-0.13333333,0,1728.6667)" />
      <path
         id="path4"
         d="m 16202.5,722.5 c 198.5,0 360,161.5 360,360 v 10800 c 0,198.5 -161.5,360 -360,360 h -15120 c -198.508,0 -360,-161.5 -360,-360 v -10800 c 0,-198.5 161.492,-360 360,-360 z m -15120,-450 c -446.637,0 -810,363.398 -810,810 v 10800 c 0,446.6 363.363,810 810,810 h 15120 c 446.6,0 810,-363.4 810,-810 v -10800 c 0,-446.602 -363.4,-810 -810,-810 h -15120"
         style="fill:#231f20;fill-opacity:1;fill-rule:nonzero;stroke:none"
         transform="matrix(0.13333333,0,0,-0.13333333,0,1728.6667)" />
      <path
         id="path5"
         d="M 5198.38,10442.5 H 6893.91 V 9987.82 H 5652.68 v -707.39 h 837.69 v -464.76 h -837.69 v -788.4 H 6984.63 V 7562.51 H 5198.38 v 2879.99"
         style="fill:#231f20;fill-opacity:1;fill-rule:nonzero;stroke:none"
         transform="matrix(0.13333333,0,0,-0.13333333,0,1728.6667)" />
      <path
         id="path6"
         d="M 7928.64,9512.62 V 7562.51 h -454.3 v 2879.99 h 454.3 L 8979.8,8603.27 v 1839.23 h 455.03 V 7562.51 H 9030.56 L 7928.64,9512.62"
         style="fill:#231f20;fill-opacity:1;fill-rule:nonzero;stroke:none"
         transform="matrix(0.13333333,0,0,-0.13333333,0,1728.6667)" />
      <path
         id="path7"
         d="m 11095.9,9987.82 h -515.5 V 8027.63 h 483.5 c 419,0 556.5,507.6 556.5,1049.75 0,257.77 -73.4,910.44 -524.5,910.44 z m -969.8,-2425.31 v 2879.99 h 1039 c 726.8,0 921.5,-957.23 921.5,-1375.2 0,-1080.35 -555.4,-1504.79 -919.7,-1504.79 h -1040.8"
         style="fill:#231f20;fill-opacity:1;fill-rule:nonzero;stroke:none"
         transform="matrix(0.13333333,0,0,-0.13333333,0,1728.6667)" />
      <path
         id="path8"
         d="M 2580.41,4947.81 H 2064.92 V 2987.62 h 483.46 c 419.01,0 556.53,507.6 556.53,1049.75 0,257.77 -73.44,910.44 -524.5,910.44 z M 1610.62,2522.5 v 2879.99 h 1038.91 c 726.81,0 921.56,-957.23 921.56,-1375.2 0,-1080.39 -555.46,-1504.79 -919.76,-1504.79 H 1610.62"
         style="fill:#231f20;fill-opacity:1;fill-rule:nonzero;stroke:none"
         transform="matrix(0.13333333,0,0,-0.13333333,0,1728.6667)" />
      <path
         id="path9"
         d="M 4204.82,5402.49 H 5900.34 V 4947.81 H 4659.12 v -707.39 h 837.68 v -464.76 h -837.68 v -788.4 H 5991.06 V 2522.5 H 4204.82 v 2879.99"
         style="fill:#231f20;fill-opacity:1;fill-rule:nonzero;stroke:none"
         transform="matrix(0.13333333,0,0,-0.13333333,0,1728.6667)" />
      <path
         id="path10"
         d="m 7337.88,2522.5 h -456.82 v 2475.71 h -659.49 v 404.28 H 8007.81 V 4998.21 H 7337.88 V 2522.5"
         style="fill:#231f20;fill-opacity:1;fill-rule:nonzero;stroke:none"
         transform="matrix(0.13333333,0,0,-0.13333333,0,1728.6667)" />
      <path
         id="path11"
         d="m 9410.38,2936.5 c 310.31,0 562.3,294.12 562.3,1026 0,731.87 -251.99,1025.99 -562.3,1025.99 -310.3,0 -562.29,-293.76 -562.29,-1025.99 0,-731.88 251.99,-1026 562.29,-1026 z m 1018.02,1026 c 0,-103.32 22,-1490.4 -1023.05,-1490.4 -1045.03,0 -1023.08,1387.08 -1023.08,1490.4 0,103.31 -21.95,1490.03 1023.08,1490.03 1045.05,0 1023.05,-1386.72 1023.05,-1490.03"
         style="fill:#231f20;fill-opacity:1;fill-rule:nonzero;stroke:none"
         transform="matrix(0.13333333,0,0,-0.13333333,0,1728.6667)" />
      <path
         id="path12"
         d="m 11062.1,3553.18 v 1849.31 h 454.3 V 3553.18 c 0,-374.04 212.4,-616.28 525.6,-616.28 313.2,0 525.6,242.24 525.6,616.28 v 1849.31 h 455 V 3553.18 c 0,-910.78 -698.7,-1081.08 -980.2,-1081.08 -256.3,0 -980.3,150.8 -980.3,1081.08"
         style="fill:#231f20;fill-opacity:1;fill-rule:nonzero;stroke:none"
         transform="matrix(0.13333333,0,0,-0.13333333,0,1728.6667)" />
      <path
         id="path13"
         d="m 14740.2,4240.42 c 361.4,0 418.3,260.63 418.3,353.51 0,125.64 -93.9,353.88 -396.3,353.88 h -594 v -707.39 z m -572,-464.4 V 2522.5 h -454.3 v 2879.99 h 1041.8 c 660.2,0 858.2,-528.12 858.2,-808.91 0,-106.92 -39.6,-528.12 -447.1,-721.08 l 507.6,-1350 H 15179 l -464.7,1253.52 h -546.1"
         style="fill:#231f20;fill-opacity:1;fill-rule:nonzero;stroke:none"
         transform="matrix(0.13333333,0,0,-0.13333333,0,1728.6667)" />
    </g>
  </g>
</svg>
