<?xml version="1.0" encoding="UTF-8" standalone="no"?>
<!-- Created with Inkscape (http://www.inkscape.org/) -->

<svg
   version="1.1"
   id="svg1"
   width="4608"
   height="1728"
   viewBox="0 0 4608 1728"
   sodipodi:docname="tmpatj9tx5l.pdf"
   xmlns:inkscape="http://www.inkscape.org/namespaces/inkscape"
   xmlns:sodipodi="http://sodipodi.sourceforge.net/DTD/sodipodi-0.dtd"
   xmlns="http://www.w3.org/2000/svg"
   xmlns:svg="http://www.w3.org/2000/svg">
  <defs
     id="defs1" />
  <sodipodi:namedview
     id="namedview1"
     pagecolor="#ffffff"
     bordercolor="#000000"
     borderopacity="0.25"
     inkscape:showpageshadow="2"
     inkscape:pageopacity="0.0"
     inkscape:pagecheckerboard="0"
     inkscape:deskcolor="#d1d1d1">
    <inkscape:page
       x="0"
       y="0"
       inkscape:label="1"
       id="page1"
       width="4608"
       height="1728"
       margin="0"
       bleed="0" />
  </sodipodi:namedview>
  <g
     id="g1"
     inkscape:groupmode="layer"
     inkscape:label="1">
    <g
       id="group-R5">
      <path
         id="path2"
         d="M 33480,0 H 1080 C 486,0 0,486 0,1080 v 10800 c 0,594 486,1080 1080,1080 h 32400 c 594,0 1080,-486 1080,-1080 V 1080 C 34560,486 34074,0 33480,0"
         style="fill:#231f20;fill-opacity:1;fill-rule:nonzero;stroke:none"
         transform="matrix(0.13333333,0,0,-0.13333333,0,1728)" />
      <path
         id="path3"
         d="M 9390.9,3509.52 H 32400 v 5940 H 9390.9 v -5940"
         style="fill:#f68512;fill-opacity:1;fill-rule:nonzero;stroke:none"
         transform="matrix(0.13333333,0,0,-0.13333333,0,1728)" />
      <path
         id="path4"
         d="m 11019.5,1792.8 c 19,-65.1 28,-130.7 28,-195.3 0,-385.2 -312.3,-697.5 -697.6,-697.5 -135.9,-0.098 -273.2,39.398 -393.86,121.9 L 1980,6480 9956.04,11938.1 c 120.66,82.5 257.96,122 393.86,121.9 385.3,0 697.6,-312.3 697.6,-697.5 0,-64.6 -9,-130.2 -28,-195.3 L 9652.45,6480 11019.5,1792.8"
         style="fill:#f68512;fill-opacity:1;fill-rule:nonzero;stroke:none"
         transform="matrix(0.13333333,0,0,-0.13333333,0,1728)" />
      <path
         id="path5"
         d="m 12092.4,7958.01 h -773.2 V 5017.72 h 725.2 c 628.5,0 834.8,761.39 834.8,1574.63 0,386.64 -110.2,1365.66 -786.8,1365.66 z M 10637.7,4320.04 v 4319.98 h 1558.4 c 1090.2,0 1382.3,-1435.85 1382.3,-2062.79 0,-1620.53 -833.1,-2257.19 -1379.6,-2257.19 h -1561.1"
         style="fill:#231f20;fill-opacity:1;fill-rule:nonzero;stroke:none"
         transform="matrix(0.13333333,0,0,-0.13333333,0,1728)" />
      <path
         id="path6"
         d="m 14339,8640.02 h 2543.3 V 7958.01 H 15020.4 V 6896.91 H 16277 v -697.14 h -1256.6 v -1182.6 h 1998 V 4320.04 H 14339 v 4319.98"
         style="fill:#231f20;fill-opacity:1;fill-rule:nonzero;stroke:none"
         transform="matrix(0.13333333,0,0,-0.13333333,0,1728)" />
      <path
         id="path7"
         d="m 18969.5,4320.04 h -685.3 V 8033.6 H 17295 v 606.42 h 2679.4 V 8033.6 H 18969.5 V 4320.04"
         style="fill:#231f20;fill-opacity:1;fill-rule:nonzero;stroke:none"
         transform="matrix(0.13333333,0,0,-0.13333333,0,1728)" />
      <path
         id="path8"
         d="m 21966,4941.04 c 465.5,0 843.4,441.17 843.4,1538.99 0,1097.82 -377.9,1538.99 -843.4,1538.99 -465.5,0 -843.5,-440.63 -843.5,-1538.99 0,-1097.82 378,-1538.99 843.5,-1538.99 z m 1527.1,1538.99 c 0,-154.98 32.9,-2235.59 -1534.7,-2235.59 -1567.5,0 -1534.6,2080.61 -1534.6,2235.59 0,154.98 -32.9,2235.05 1534.6,2235.05 1567.6,0 1534.7,-2080.07 1534.7,-2235.05"
         style="fill:#231f20;fill-opacity:1;fill-rule:nonzero;stroke:none"
         transform="matrix(0.13333333,0,0,-0.13333333,0,1728)" />
      <path
         id="path9"
         d="M 24253.6,5866.05 V 8640.02 H 24935 V 5866.05 c 0,-561.05 318.6,-924.47 788.4,-924.47 469.8,0 788.4,363.42 788.4,924.47 v 2773.97 h 682.5 V 5866.05 c 0,-1366.19 -1048.1,-1621.61 -1470.3,-1621.61 -384.5,0 -1470.4,226.26 -1470.4,1621.61"
         style="fill:#231f20;fill-opacity:1;fill-rule:nonzero;stroke:none"
         transform="matrix(0.13333333,0,0,-0.13333333,0,1728)" />
      <path
         id="path10"
         d="m 29563.5,6896.91 c 542.1,0 627.4,390.96 627.4,530.28 0,188.45 -140.9,530.82 -594.5,530.82 h -891 v -1061.1 z m -858.1,-696.6 V 4320.04 H 28024 v 4319.98 h 1562.7 c 990.3,0 1287.3,-792.18 1287.3,-1213.38 0,-160.38 -59.4,-792.17 -670.6,-1081.61 l 761.3,-2024.99 h -743 l -697.1,1880.27 h -819.2"
         style="fill:#231f20;fill-opacity:1;fill-rule:nonzero;stroke:none"
         transform="matrix(0.13333333,0,0,-0.13333333,0,1728)" />
    </g>
  </g>
</svg>
