<?xml version="1.0" standalone="no"?>
<svg width="1728px" height="864px" viewBox="0 -72 1728 864 " xmlns="http://www.w3.org/2000/svg" xmlns:xlink="http://www.w3.org/1999/xlink">
<title>generated by pstoedit</title>
<!-- generated by pstoedit version:4.02 -->
<g xml:space='preserve'>
<clipPath id="clippath1"> 	<path d="
	M 0 -72 
	L 0 792 
	L 1728 792 
	L 1728 -72 
	Z 
	" style="clip-rule:nonzero"/>
</clipPath>
<g style="clip-path:url(#clippath1)"> 
<g fill="#ffffff" fill-rule="nonzero" stroke-width="0" stroke-linejoin="miter" stroke-linecap="butt" stroke-miterlimit="10" >
	<path d="
	M 1728 684 
	C 1728 743.645 1679.65 792 1620 792 
	L 108 792 
	C 48.3516 792 0 743.645 0 684 
	L 0 36 
	C 0 -23.648 48.3516 -72 108 -72 
	L 1620 -72 
	C 1679.65 -72 1728 -23.648 1728 36 
	Z 
	"/>
</g>
<g fill="#7f7f7f" fill-rule="nonzero" stroke-width="0" stroke-linejoin="miter" stroke-linecap="butt" stroke-miterlimit="10" >
	<path d="
	M 108 765 
	C 63.3359 765 27 728.664 27 684 
	L 27 36 
	C 27 -8.664 63.3359 -45 108 -45 
	L 1620 -45 
	C 1664.66 -45 1701 -8.664 1701 36 
	L 1701 684 
	C 1701 728.664 1664.66 765 1620 765 
	Z 
	"/>
</g>
<g fill="#ffffff" fill-rule="nonzero" stroke-width="0" stroke-linejoin="miter" stroke-linecap="butt" stroke-miterlimit="10" >
	<path d="
	M 108 720 
	C 88.1484 720 72 703.852 72 684 
	L 72 36 
	C 72 16.148 88.1484 0 108 0 
	L 1620 0 
	C 1639.85 0 1656 16.148 1656 36 
	L 1656 684 
	C 1656 703.852 1639.85 720 1620 720 
	Z 
	"/>
</g>
<g fill="#7f7f7f" fill-rule="nonzero" stroke-width="0" stroke-linejoin="miter" stroke-linecap="butt" stroke-miterlimit="10" >
	<path d="
	M 1461.92 540 
	L 1324.23 296.211 
	L 1324.23 540 
	L 1267.38 540 
	L 1267.38 180 
	L 1324.23 180 
	L 1455.6 409.895 
	L 1455.6 180 
	L 1512.45 180 
	L 1512.45 540 
	Z 
	"/>
</g>
<g fill="#7f7f7f" fill-rule="nonzero" stroke-width="0" stroke-linejoin="miter" stroke-linecap="butt" stroke-miterlimit="10" >
	<path d="
	M 1123.38 540 
	L 1123.38 180 
	L 1180.98 180 
	L 1180.98 540 
	Z 
	"/>
</g>
<g fill="#7f7f7f" fill-rule="nonzero" stroke-width="0" stroke-linejoin="miter" stroke-linecap="butt" stroke-miterlimit="10" >
	<path d="
	M 521.82 540 
	L 521.82 180 
	L 733.758 180 
	L 733.758 236.844 
	L 578.586 236.844 
	L 578.586 325.266 
	L 683.297 325.266 
	L 683.297 383.371 
	L 578.586 383.371 
	L 578.586 481.895 
	L 745.109 481.895 
	L 745.109 540 
	Z 
	"/>
</g>
<g fill="#7f7f7f" fill-rule="nonzero" stroke-width="0" stroke-linejoin="miter" stroke-linecap="butt" stroke-miterlimit="10" >
	<path d="
	M 368.402 385.895 
	C 360.824 383.371 357.035 383.371 344.402 383.371 
	L 272.395 383.371 
	L 272.395 481.895 
	L 358.297 481.895 
	C 387.352 481.895 402.512 468 402.512 440.211 
	C 402.512 416.211 388.617 393.477 368.402 385.895 
	Z 
	M 355.773 236.84 
	L 272.395 236.84 
	L 272.395 325.262 
	L 340.613 325.262 
	C 357.035 325.262 364.613 322.734 374.723 315.156 
	C 387.352 305.055 394.934 289.895 394.934 273.473 
	C 394.934 249.473 381.035 236.84 355.773 236.84 
	Z 
	M 402.512 531.16 
	C 389.879 536.215 368.402 540 351.98 540 
	L 215.551 540 
	L 215.551 180 
	L 351.98 180 
	C 408.828 180 451.777 219.156 451.777 270.945 
	C 451.777 306.312 435.355 332.844 401.25 351.789 
	C 439.145 369.477 460.621 399.789 460.621 438.949 
	C 460.621 478.105 436.621 517.266 402.512 531.16 
	Z 
	"/>
</g>
<g fill="#7f7f7f" fill-rule="nonzero" stroke-width="0" stroke-linejoin="miter" stroke-linecap="butt" stroke-miterlimit="10" >
	<path d="
	M 930.488 546.316 
	C 876.172 546.316 844.59 526.105 823.113 480.633 
	C 807.953 449.055 799.113 404.844 799.113 360.633 
	C 799.113 302.527 815.531 245.684 839.535 214.105 
	C 861.012 187.578 891.328 173.684 931.754 173.684 
	C 987.34 173.684 1020.18 196.422 1044.18 253.266 
	L 989.859 274.738 
	C 974.703 243.156 959.547 231.789 931.754 231.789 
	C 902.699 231.789 883.746 244.422 871.117 276 
	C 862.273 297.477 857.219 330.316 857.219 360.633 
	C 857.219 398.527 863.535 436.422 874.906 459.16 
	C 886.273 479.367 902.699 488.211 924.176 488.211 
	C 960.809 488.211 987.34 465.477 987.34 432.633 
	L 987.34 417.477 
	L 921.645 417.477 
	L 921.645 360.633 
	L 1044.18 360.633 
	L 1044.18 432.633 
	C 1044.18 498.316 996.18 546.316 930.488 546.316 
	Z 
	"/>
</g>
</g >
</g>
</svg>
