<?xml version="1.0" encoding="UTF-8" standalone="no"?>
<!-- Created with Inkscape (http://www.inkscape.org/) -->

<svg
   version="1.1"
   id="svg1"
   width="4608.6665"
   height="3456.6667"
   viewBox="0 0 4608.6665 3456.6667"
   sodipodi:docname="tmpph3kqykf.pdf"
   xmlns:inkscape="http://www.inkscape.org/namespaces/inkscape"
   xmlns:sodipodi="http://sodipodi.sourceforge.net/DTD/sodipodi-0.dtd"
   xmlns="http://www.w3.org/2000/svg"
   xmlns:svg="http://www.w3.org/2000/svg">
  <defs
     id="defs1" />
  <sodipodi:namedview
     id="namedview1"
     pagecolor="#ffffff"
     bordercolor="#000000"
     borderopacity="0.25"
     inkscape:showpageshadow="2"
     inkscape:pageopacity="0.0"
     inkscape:pagecheckerboard="0"
     inkscape:deskcolor="#d1d1d1">
    <inkscape:page
       x="0"
       y="0"
       inkscape:label="1"
       id="page1"
       width="4608.6665"
       height="3456.6667"
       margin="0"
       bleed="0" />
  </sodipodi:namedview>
  <g
     id="g1"
     inkscape:groupmode="layer"
     inkscape:label="1">
    <g
       id="group-R5">
      <path
         id="path2"
         d="M 1622.5,1.20313 C 1191.24,1.20313 784.602,170.402 477.488,477.5 170.387,784.602 1.25,1191.2 1.25,1622.5 v 22680 c 0,431.3 169.137,837.9 476.238,1145 307.114,307.1 713.752,476.3 1145.012,476.3 h 31320 c 431.3,0 837.9,-169.2 1145,-476.3 307.1,-307.1 476.3,-713.7 476.3,-1145 v -22680 c 0,-431.3 -169.2,-837.898 -476.3,-1145 C 33780.4,170.402 33373.8,1.20313 32942.5,1.20313 h -31320"
         style="fill:#f68512;fill-opacity:1;fill-rule:nonzero;stroke:none"
         transform="matrix(0.13333333,0,0,-0.13333333,0,3456.6667)" />
      <path
         id="path3"
         d="m 32942.5,25925 h -31320 c -218.07,0 -430.03,-43.1 -629.992,-128 -193.035,-82 -366.61,-199.3 -515.899,-348.6 C 327.313,25299.1 210.035,25125.5 128.027,24932.5 43.0742,24732.5 0,24520.6 0,24302.5 v -22680 c 0,-218.1 43.0742,-430 128.027,-630 C 210.035,799.5 327.313,625.902 476.609,476.602 625.898,327.301 799.473,210 992.508,128 1192.47,43.1016 1404.43,0 1622.5,0 h 31320 c 218.1,0 430,43.1016 630,128 193,82 366.6,199.301 515.9,348.602 149.3,149.3 266.6,322.898 348.6,515.898 84.9,200 128,411.9 128,630 v 22680 c 0,218.1 -43.1,430 -128,630 -82,193 -199.3,366.6 -348.6,515.9 -149.3,149.3 -322.9,266.6 -515.9,348.6 -200,84.9 -411.9,128 -630,128 z m 0,-2.5 c 891,0 1620,-729 1620,-1620 v -22680 c 0,-891 -729,-1620 -1620,-1620 h -31320 c -891,0 -1620,729 -1620,1620 v 22680 c 0,891 729,1620 1620,1620 h 31320"
         style="fill:#231f20;fill-opacity:1;fill-rule:nonzero;stroke:none"
         transform="matrix(0.13333333,0,0,-0.13333333,0,3456.6667)" />
      <path
         id="path4"
         d="m 1622.5,452.5 c -310.72,0 -604.04,122.199 -825.922,344.102 C 574.695,1018.5 452.5,1311.8 452.5,1622.5 v 22680 c 0,310.7 122.195,604.1 344.078,825.9 221.872,221.9 515.192,344.1 825.922,344.1 h 31320 c 310.7,0 604,-122.2 825.9,-344.1 221.9,-221.9 344.1,-515.2 344.1,-825.9 v -22680 c 0,-310.7 -122.2,-604 -344.1,-825.898 C 33546.5,574.699 33253.2,452.5 32942.5,452.5 h -31320"
         style="fill:#231f20;fill-opacity:1;fill-rule:nonzero;stroke:none"
         transform="matrix(0.13333333,0,0,-0.13333333,0,3456.6667)" />
      <path
         id="path5"
         d="m 1622.5,1082.5 c -144.51,0 -276.07,55.2 -380.45,159.5 -104.37,104.4 -159.55,236 -159.55,380.5 v 22680 c 0,144.5 55.17,276.1 159.55,380.4 104.38,104.4 235.93,159.6 380.45,159.6 h 31320 c 144.5,0 276.1,-55.2 380.5,-159.6 104.3,-104.3 159.5,-235.9 159.5,-380.4 v -22680 c 0,-144.5 -55.2,-276.1 -159.5,-380.5 -104.4,-104.3 -236,-159.5 -380.5,-159.5 h -31320"
         style="fill:#f68512;fill-opacity:1;fill-rule:nonzero;stroke:none"
         transform="matrix(0.13333333,0,0,-0.13333333,0,3456.6667)" />
      <path
         id="path6"
         d="M 6183.6,20693.1 H 5152.62 v -3920.4 h 966.91 c 838.04,0 1113.07,1015.2 1113.07,2099.5 0,515.6 -146.88,1820.9 -1049,1820.9 z M 4244.02,15842.5 v 5760 h 2077.82 c 1453.61,0 1843.11,-1914.5 1843.11,-2750.4 0,-2160.7 -1110.9,-3009.6 -1839.51,-3009.6 H 4244.02"
         style="fill:#231f20;fill-opacity:1;fill-rule:nonzero;stroke:none"
         transform="matrix(0.13333333,0,0,-0.13333333,0,3456.6667)" />
      <path
         id="path7"
         d="m 8925.52,21602.5 h 3391.08 v -909.4 H 9834.12 v -1414.8 h 1675.38 v -929.5 H 9834.12 V 16772 H 12498 v -929.5 H 8925.52 v 5760"
         style="fill:#231f20;fill-opacity:1;fill-rule:nonzero;stroke:none"
         transform="matrix(0.13333333,0,0,-0.13333333,0,3456.6667)" />
      <path
         id="path8"
         d="m 15007.3,15842.5 h -913.6 v 4951.4 h -1319 v 808.6 h 3572.5 v -808.6 h -1339.9 v -4951.4"
         style="fill:#231f20;fill-opacity:1;fill-rule:nonzero;stroke:none"
         transform="matrix(0.13333333,0,0,-0.13333333,0,3456.6667)" />
      <path
         id="path9"
         d="m 18852.9,16670.5 c 620.6,0 1124.6,588.2 1124.6,2052 0,1463.7 -504,2052 -1124.6,2052 -620.6,0 -1124.6,-587.6 -1124.6,-2052 0,-1463.8 504,-2052 1124.6,-2052 z m 2036.1,2052 c 0,-206.7 43.9,-2980.8 -2046.2,-2980.8 -2090,0 -2046.1,2774.1 -2046.1,2980.8 0,206.6 -43.9,2980.1 2046.1,2980.1 2090.1,0 2046.2,-2773.5 2046.2,-2980.1"
         style="fill:#231f20;fill-opacity:1;fill-rule:nonzero;stroke:none"
         transform="matrix(0.13333333,0,0,-0.13333333,0,3456.6667)" />
      <path
         id="path10"
         d="m 21649.4,17903.9 v 3698.6 h 908.6 v -3698.6 c 0,-748.1 424.8,-1232.7 1051.2,-1232.7 626.4,0 1051.1,484.6 1051.1,1232.7 v 3698.6 h 910.1 v -3698.6 c 0,-1821.6 -1397.5,-2162.2 -1960.5,-2162.2 -512.6,0 -1960.5,301.7 -1960.5,2162.2"
         style="fill:#231f20;fill-opacity:1;fill-rule:nonzero;stroke:none"
         transform="matrix(0.13333333,0,0,-0.13333333,0,3456.6667)" />
      <path
         id="path11"
         d="m 28452.7,19278.3 c 722.8,0 836.6,521.3 836.6,707.1 0,251.2 -188,707.7 -792.7,707.7 h -1188 v -1414.8 z m -1144.1,-928.8 v -2507 H 26400 v 5760 h 2083.6 c 1320.4,0 1716.4,-1056.3 1716.4,-1617.9 0,-213.8 -79.2,-1056.2 -894.2,-1442.1 l 1015.2,-2700 h -990.7 l -929.5,2507 h -1092.2"
         style="fill:#231f20;fill-opacity:1;fill-rule:nonzero;stroke:none"
         transform="matrix(0.13333333,0,0,-0.13333333,0,3456.6667)" />
      <path
         id="path12"
         d="m 14375.7,6629.2 h 12626.8 v 3847.5 H 14375.7 V 6629.2"
         style="fill:#231f20;fill-opacity:1;fill-rule:nonzero;stroke:none"
         transform="matrix(0.13333333,0,0,-0.13333333,0,3456.6667)" />
      <path
         id="path13"
         d="m 15873,12861.7 c 17.5,59.8 25.7,120.2 25.8,179.5 0,354.2 -287.2,641.3 -641.4,641.3 -124.9,0.1 -251.2,-36.2 -362.1,-112.1 L 7562.49,8552.5 14895.3,3534.6 c 110.9,-75.9 237.2,-112.2 362.1,-112.1 354.2,0 641.4,287.1 641.4,641.3 -0.1,59.3 -8.3,119.7 -25.8,179.5 l -1256.8,4309.2 1256.8,4309.2"
         style="fill:#231f20;fill-opacity:1;fill-rule:nonzero;stroke:none"
         transform="matrix(0.13333333,0,0,-0.13333333,0,3456.6667)" />
    </g>
  </g>
</svg>
