<?xml version="1.0" encoding="UTF-8" standalone="no"?>
<!-- Created with Inkscape (http://www.inkscape.org/) -->

<svg
   version="1.1"
   id="svg1"
   width="3456.6667"
   height="1728.6667"
   viewBox="0 0 3456.6667 1728.6667"
   sodipodi:docname="tmp6beb0x_1.pdf"
   xmlns:inkscape="http://www.inkscape.org/namespaces/inkscape"
   xmlns:sodipodi="http://sodipodi.sourceforge.net/DTD/sodipodi-0.dtd"
   xmlns="http://www.w3.org/2000/svg"
   xmlns:svg="http://www.w3.org/2000/svg">
  <defs
     id="defs1" />
  <sodipodi:namedview
     id="namedview1"
     pagecolor="#ffffff"
     bordercolor="#000000"
     borderopacity="0.25"
     inkscape:showpageshadow="2"
     inkscape:pageopacity="0.0"
     inkscape:pagecheckerboard="0"
     inkscape:deskcolor="#d1d1d1">
    <inkscape:page
       x="0"
       y="0"
       inkscape:label="1"
       id="page1"
       width="3456.6667"
       height="1728.6667"
       margin="0"
       bleed="0" />
  </sodipodi:namedview>
  <g
     id="g1"
     inkscape:groupmode="layer"
     inkscape:label="1">
    <g
       id="group-R5">
      <path
         id="path2"
         d="M 25922.5,1082.5 C 25922.5,486 25439,2.5 24842.5,2.5 H 1082.5 C 486.031,2.5 2.5,486 2.5,1082.5 v 10800 c 0,596.5 483.531,1080 1080,1080 h 23760 c 596.5,0 1080,-483.5 1080,-1080 v -10800"
         style="fill:#ffffff;fill-opacity:1;fill-rule:nonzero;stroke:none"
         transform="matrix(0.13333333,0,0,-0.13333333,0,1728.6667)" />
      <path
         id="path3"
         d="M 25922.5,1082.5 C 25922.5,486 25439,2.5 24842.5,2.5 H 1082.5 C 486.031,2.5 2.5,486 2.5,1082.5 v 10800 c 0,596.5 483.531,1080 1080,1080 h 23760 c 596.5,0 1080,-483.5 1080,-1080 z"
         style="fill:none;stroke:#231f20;stroke-width:5;stroke-linecap:butt;stroke-linejoin:miter;stroke-miterlimit:4;stroke-dasharray:none;stroke-opacity:1"
         transform="matrix(0.13333333,0,0,-0.13333333,0,1728.6667)" />
      <path
         id="path4"
         d="m 1082.5,272.5 c -446.637,0 -810,363.398 -810,810 v 10800 c 0,446.6 363.363,810 810,810 h 23760 c 446.6,0 810,-363.4 810,-810 v -10800 c 0,-446.602 -363.4,-810 -810,-810 h -23760"
         style="fill:#231f20;fill-opacity:1;fill-rule:nonzero;stroke:none"
         transform="matrix(0.13333333,0,0,-0.13333333,0,1728.6667)" />
      <path
         id="path5"
         d="m 1082.5,722.5 c -198.508,0 -360,161.5 -360,360 v 10800 c 0,198.5 161.492,360 360,360 h 23760 c 198.5,0 360,-161.5 360,-360 v -10800 c 0,-198.5 -161.5,-360 -360,-360 h -23760"
         style="fill:#ffffff;fill-opacity:1;fill-rule:nonzero;stroke:none"
         transform="matrix(0.13333333,0,0,-0.13333333,0,1728.6667)" />
      <path
         id="path6"
         d="m 15630.2,7402.1 -323.3,-1515.8 h 626.4 z m 788.1,-3799.6 -323.3,1536.01 h -949.7 L 14822,3602.5 h -747.7 l 1172,5760.02 H 15994 L 17186.2,3602.5 h -767.9"
         style="fill:#231f20;fill-opacity:1;fill-rule:nonzero;stroke:none"
         transform="matrix(0.13333333,0,0,-0.13333333,0,1728.6667)" />
      <path
         id="path7"
         d="m 13359.4,4188.59 c -125.9,-417.81 -507.8,-687.15 -1015.6,-687.15 -589.1,0 -954.7,242.53 -1137.6,768 -162.5,485.06 -243.7,1273.27 -243.7,2202.95 0,525.49 60.9,1293.49 142.2,1738.11 162.5,889.27 507.8,1232.85 1198.5,1232.85 650,0 1076.6,-404.21 1137.5,-1111.58 h -751.6 c -20.3,242.53 -162.5,363.8 -365.6,363.8 -264.1,0 -406.3,-181.91 -487.5,-565.91 -101.6,-464.85 -121.9,-889.27 -121.9,-1657.27 0,-808.42 20.3,-1151.99 121.9,-1637.05 81.2,-383.99 223.4,-586.11 467.2,-586.11 264,0 385.9,202.12 385.9,707.36 h 751.6 c 0,-444.62 -20.3,-565.88 -81.3,-768"
         style="fill:#231f20;fill-opacity:1;fill-rule:nonzero;stroke:none"
         transform="matrix(0.13333333,0,0,-0.13333333,0,1728.6667)" />
      <path
         id="path8"
         d="m 22799.7,3602.5 v 2688 h -1027.6 v -2688 h -725.3 v 5760 h 725.3 V 7038.3 h 1027.6 v 2324.2 h 725.3 v -5760 h -725.3"
         style="fill:#231f20;fill-opacity:1;fill-rule:nonzero;stroke:none"
         transform="matrix(0.13333333,0,0,-0.13333333,0,1728.6667)" />
      <path
         id="path9"
         d="M 4253.6,3602.5 3125.3,7018.08 V 3602.5 h -725.34 v 5760 H 3125.3 L 4152.85,6492.61 V 9362.5 h 725.34 v -5760 H 4253.6"
         style="fill:#231f20;fill-opacity:1;fill-rule:nonzero;stroke:none"
         transform="matrix(0.13333333,0,0,-0.13333333,0,1728.6667)" />
      <path
         id="path10"
         d="m 7298.54,8695.57 c -666.97,0 -576.13,-1798.74 -576.13,-2202.96 0,-384.01 -90.84,-2243.38 576.13,-2243.38 646.76,0 555.9,1859.37 555.9,2243.38 0,464.84 -10.2,2202.96 -555.9,2202.96 z m 0,-5194.13 c -1434.99,0 -1323.94,2041.27 -1323.94,2991.17 0,990.31 -90.83,2950.75 1323.94,2950.75 1414.78,0 1323.93,-1980.65 1323.93,-2950.75 0,-949.9 90.85,-2991.17 -1323.93,-2991.17"
         style="fill:#231f20;fill-opacity:1;fill-rule:nonzero;stroke:none"
         transform="matrix(0.13333333,0,0,-0.13333333,0,1728.6667)" />
      <path
         id="path11"
         d="m 19842,6088.38 c 166.2,-356.88 283.2,-848.85 283.2,-1253.04 0,-404.22 -182.1,-828.63 -465.3,-1071.18 -182,-161.68 -440.1,-262.74 -743.5,-262.74 -809.1,0 -1229,525.47 -1269.4,1536 h 748.4 c 0,-222.29 20.3,-303.13 60.8,-424.42 60.6,-222.31 237.7,-363.78 460.2,-363.78 283.2,0 460.3,222.32 460.3,586.12 0,505.26 -177.1,929.69 -622.1,1455.16 -263,303.16 -440.1,525.47 -500.8,606.3 -323.6,384.01 -465.2,788.23 -465.2,1192.42 0,788.23 480.5,1354.13 1168.3,1354.13 708,0 1087.4,-444.63 1168.3,-1354.13 h -748.5 c -20.2,444.66 -136.6,626.55 -399.6,626.55 -283.2,0 -440.1,-242.54 -440.1,-626.55 0,-262.74 96.2,-464.85 399.7,-788.2 627.1,-707.36 733.5,-843.87 905.3,-1212.64"
         style="fill:#231f20;fill-opacity:1;fill-rule:nonzero;stroke:none"
         transform="matrix(0.13333333,0,0,-0.13333333,0,1728.6667)" />
    </g>
  </g>
</svg>
