<?xml version="1.0" encoding="UTF-8"?>
<svg id="For_Sheets" xmlns="http://www.w3.org/2000/svg" version="1.1" viewBox="0 0 1728 864">
  <!-- Generator: Adobe Illustrator 29.1.0, SVG Export Plug-In . SVG Version: 2.1.0 Build 142)  -->
  <defs>
    <style>
      .st0 {
        fill: #231f20;
      }

      .st1 {
        fill: #f7921e;
      }
    </style>
  </defs>
  <g>
    <rect class="st1" x="-.1" y="-.1" width="1728.2" height="864.2" rx="108.1" ry="108.1"/>
    <path class="st0" d="M1620,0c59.6,0,108,48.4,108,108v648c0,59.6-48.4,108-108,108H108c-59.6,0-108-48.4-108-108V108C0,48.4,48.4,0,108,0h1512M1620-.2H108C79.1-.2,51.9,11,31.5,31.5,11,51.9-.2,79.1-.2,108v648c0,28.9,11.3,56.1,31.7,76.5,20.4,20.4,47.6,31.7,76.5,31.7h1512c28.9,0,56.1-11.3,76.5-31.7,20.4-20.4,31.7-47.6,31.7-76.5V108c0-28.9-11.3-56.1-31.7-76.5-20.4-20.4-47.6-31.7-76.5-31.7h0Z"/>
  </g>
  <rect class="st0" x="27" y="27" width="1674" height="810" rx="81" ry="81"/>
  <rect class="st1" x="72" y="72" width="1584" height="720" rx="36" ry="36"/>
  <g>
    <path class="st0" d="M252.5,216h316.4v77.3h-237.3v80.3h129.3v78.8h-129.3v118.2h244.9v77.3H252.5V216Z"/>
    <path class="st0" d="M739,350.9v297.1h-76.1V216h76l199.5,285V216h74.6v432h-67l-207-297.1Z"/>
    <path class="st0" d="M1125.4,648V216h142.8c137.5,0,207.4,104.3,207.4,215.2s-77,216.8-206.8,216.8h-143.3ZM1264.6,293.3h-60.5v277.3h59.9c69.2,0,134.3-45.7,134.3-139.4s-54.6-137.9-133.7-137.9Z"/>
  </g>
</svg>