<?xml version="1.0" encoding="UTF-8" standalone="no"?>
<!-- Created with Inkscape (http://www.inkscape.org/) -->

<svg
   version="1.1"
   id="svg1"
   width="2880.6667"
   height="2016.6667"
   viewBox="0 0 2880.6667 2016.6667"
   sodipodi:docname="tmpz8bwav5s.pdf"
   xmlns:inkscape="http://www.inkscape.org/namespaces/inkscape"
   xmlns:sodipodi="http://sodipodi.sourceforge.net/DTD/sodipodi-0.dtd"
   xmlns="http://www.w3.org/2000/svg"
   xmlns:svg="http://www.w3.org/2000/svg">
  <defs
     id="defs1" />
  <sodipodi:namedview
     id="namedview1"
     pagecolor="#ffffff"
     bordercolor="#000000"
     borderopacity="0.25"
     inkscape:showpageshadow="2"
     inkscape:pageopacity="0.0"
     inkscape:pagecheckerboard="0"
     inkscape:deskcolor="#d1d1d1">
    <inkscape:page
       x="0"
       y="0"
       inkscape:label="1"
       id="page1"
       width="2880.6667"
       height="2016.6667"
       margin="0"
       bleed="0" />
  </sodipodi:namedview>
  <g
     id="g1"
     inkscape:groupmode="layer"
     inkscape:label="1">
    <g
       id="group-R5">
      <path
         id="path2"
         d="M 21602.5,1082.5 C 21602.5,486 21119,2.5 20522.5,2.5 H 1082.5 C 486.031,2.5 2.5,486 2.5,1082.5 v 12960 c 0,596.5 483.531,1080 1080,1080 h 19440 c 596.5,0 1080,-483.5 1080,-1080 v -12960"
         style="fill:#ffffff;fill-opacity:1;fill-rule:nonzero;stroke:none"
         transform="matrix(0.13333333,0,0,-0.13333333,0,2016.6667)" />
      <path
         id="path3"
         d="M 21602.5,1082.5 C 21602.5,486 21119,2.5 20522.5,2.5 H 1082.5 C 486.031,2.5 2.5,486 2.5,1082.5 v 12960 c 0,596.5 483.531,1080 1080,1080 h 19440 c 596.5,0 1080,-483.5 1080,-1080 z"
         style="fill:none;stroke:#231f20;stroke-width:5;stroke-linecap:butt;stroke-linejoin:miter;stroke-miterlimit:4;stroke-dasharray:none;stroke-opacity:1"
         transform="matrix(0.13333333,0,0,-0.13333333,0,2016.6667)" />
      <path
         id="path4"
         d="m 1082.5,272.5 c -446.637,0 -810,363.398 -810,810 v 12960 c 0,446.6 363.363,810 810,810 h 19440 c 446.6,0 810,-363.4 810,-810 v -12960 c 0,-446.602 -363.4,-810 -810,-810 h -19440"
         style="fill:#231f20;fill-opacity:1;fill-rule:nonzero;stroke:none"
         transform="matrix(0.13333333,0,0,-0.13333333,0,2016.6667)" />
      <path
         id="path5"
         d="m 1082.5,722.5 c -198.5,0 -360,161.5 -360,360 v 12960 c 0,198.5 161.5,360 360,360 h 19440 c 198.5,0 360,-161.5 360,-360 v -12960 c 0,-198.5 -161.5,-360 -360,-360 h -19440"
         style="fill:#ffffff;fill-opacity:1;fill-rule:nonzero;stroke:none"
         transform="matrix(0.13333333,0,0,-0.13333333,0,2016.6667)" />
      <path
         id="path6"
         d="m 16240.2,9066.81 c -206.3,487.76 -501.4,925.58 -877.1,1301.29 -375.7,375.7 -813.5,670.8 -1301.3,877.1 -505.6,213.9 -1042,322.3 -1594.3,322.3 H 9521.13 l 431.53,1357.4 c 14.87,44 23.03,91 23.03,140 0,241.7 -195.9,437.6 -437.56,437.6 -90.23,0 -174.06,-27.3 -243.7,-74.1 h -0.04 L 5042.5,10442.5 9294.39,7456.59 l 0.04,0.02 c 69.64,-46.8 153.47,-74.11 243.7,-74.11 241.66,0 437.56,195.92 437.56,437.58 0,48.98 -8.16,96.04 -23.03,140.01 L 9521.13,9317.5 h 2946.37 c 1017.3,0 1845,-827.66 1845,-1845 0,-439.54 -149.2,-849.44 -432,-1186.15 l -797.7,-951.29 c -303.1,-360.86 -539.7,-767.16 -703.2,-1207.36 -169.4,-456.1 -255.3,-935.6 -255.3,-1425.2 v -1080 h 2250 v 1080 c 0,439.5 149.2,849.4 432,1186.2 l 797.7,951.2 c 303.1,360.92 539.8,767.15 703.3,1207.42 169.3,456.03 255.2,935.53 255.2,1425.18 0,552.33 -108.4,1088.73 -322.3,1594.31"
         style="fill:#231f20;fill-opacity:1;fill-rule:nonzero;stroke:none"
         transform="matrix(0.13333333,0,0,-0.13333333,0,2016.6667)" />
    </g>
  </g>
</svg>
