<?xml version="1.0" encoding="UTF-8" standalone="no"?>
<!-- Created with Inkscape (http://www.inkscape.org/) -->

<svg
   version="1.1"
   id="svg1"
   width="2304"
   height="1728"
   viewBox="0 0 2304 1728"
   sodipodi:docname="tmptw8g939z.pdf"
   xmlns:inkscape="http://www.inkscape.org/namespaces/inkscape"
   xmlns:sodipodi="http://sodipodi.sourceforge.net/DTD/sodipodi-0.dtd"
   xmlns="http://www.w3.org/2000/svg"
   xmlns:svg="http://www.w3.org/2000/svg">
  <defs
     id="defs1" />
  <sodipodi:namedview
     id="namedview1"
     pagecolor="#ffffff"
     bordercolor="#000000"
     borderopacity="0.25"
     inkscape:showpageshadow="2"
     inkscape:pageopacity="0.0"
     inkscape:pagecheckerboard="0"
     inkscape:deskcolor="#d1d1d1">
    <inkscape:page
       x="0"
       y="0"
       inkscape:label="1"
       id="page1"
       width="2304"
       height="1728"
       margin="0"
       bleed="0" />
  </sodipodi:namedview>
  <g
     id="g1"
     inkscape:groupmode="layer"
     inkscape:label="1">
    <g
       id="group-R5">
      <path
         id="path2"
         d="M 17280,1080 C 17280,483.5 16796.5,0 16200,0 H 1080 C 483.531,0 0,483.5 0,1080 v 10800 c 0,596.5 483.531,1080 1080,1080 h 15120 c 596.5,0 1080,-483.5 1080,-1080 V 1080"
         style="fill:#ffffff;fill-opacity:1;fill-rule:nonzero;stroke:none"
         transform="matrix(0.13333333,0,0,-0.13333333,0,1728)" />
      <path
         id="path3"
         d="m 1080,270 c -446.637,0 -810,363.398 -810,810 v 10800 c 0,446.6 363.363,810 810,810 h 15120 c 446.6,0 810,-363.4 810,-810 V 1080 c 0,-446.602 -363.4,-810 -810,-810 H 1080"
         style="fill:#231f20;fill-opacity:1;fill-rule:nonzero;stroke:none"
         transform="matrix(0.13333333,0,0,-0.13333333,0,1728)" />
      <path
         id="path4"
         d="m 1080,720 c -198.508,0 -360,161.5 -360,360 v 10800 c 0,198.5 161.492,360 360,360 h 15120 c 198.5,0 360,-161.5 360,-360 V 1080 c 0,-198.5 -161.5,-360 -360,-360 H 1080"
         style="fill:#ffffff;fill-opacity:1;fill-rule:nonzero;stroke:none"
         transform="matrix(0.13333333,0,0,-0.13333333,0,1728)" />
      <path
         id="path5"
         d="M 10837,2160 9460,4597.9 V 2160 H 8891.54 V 5760.01 H 9460 l 1313.8,-2298.97 v 2298.97 h 568.4 V 2160 H 10837"
         style="fill:#231f20;fill-opacity:1;fill-rule:nonzero;stroke:none"
         transform="matrix(0.13333333,0,0,-0.13333333,0,1728)" />
      <path
         id="path6"
         d="m 2840.84,2160 v 3600.03 h 567.68 V 2690.5 H 5073.74 V 2160 h -2232.9"
         style="fill:#231f20;fill-opacity:1;fill-rule:nonzero;stroke:none"
         transform="matrix(0.13333333,0,0,-0.13333333,0,1728)" />
      <path
         id="path7"
         d="m 12206.3,2160 v 3600.01 h 2119.3 V 5191.6 H 12773.9 V 4307.38 H 13821 V 3726.33 H 12773.9 V 2741.1 h 1665.3 V 2160 h -2232.9"
         style="fill:#231f20;fill-opacity:1;fill-rule:nonzero;stroke:none"
         transform="matrix(0.13333333,0,0,-0.13333333,0,1728)" />
      <path
         id="path8"
         d="M 6826.98,4762.11 6458.55,3751.58 h 724.16 z M 7741.72,2160 7385.99,3170.53 H 6255.28 L 5899.55,2160 h -609.81 l 1245.04,3600.01 h 571.7 L 8351.52,2160 h -609.8"
         style="fill:#231f20;fill-opacity:1;fill-rule:nonzero;stroke:none"
         transform="matrix(0.13333333,0,0,-0.13333333,0,1728)" />
      <path
         id="path9"
         d="m 2880.08,9840.01 c -50.73,353.69 -190.27,517.89 -431.29,517.89 -418.6,0 -570.81,-328.4 -570.81,-1263.15 0,-1035.79 177.58,-1452.65 621.56,-1452.65 304.43,0 380.54,252.65 380.54,517.91 h 520.08 c -12.68,-593.69 -393.22,-1023.16 -900.62,-1023.16 -773.78,0 -1116.27,618.94 -1116.27,1945.27 0,1162.08 367.86,1781.08 1078.21,1781.08 291.75,0 545.46,-126.3 710.36,-366.3 139.53,-176.9 190.27,-328.5 228.32,-656.89 h -520.08"
         style="fill:#231f20;fill-opacity:1;fill-rule:nonzero;stroke:none"
         transform="matrix(0.13333333,0,0,-0.13333333,0,1728)" />
      <path
         id="path10"
         d="m 4120.17,7200 v 3600 H 5817.7 v -505.2 H 4639.56 v -909.53 h 747.43 V 8892.63 H 4639.56 V 7705.27 h 1317.5 V 7200 H 4120.17"
         style="fill:#231f20;fill-opacity:1;fill-rule:nonzero;stroke:none"
         transform="matrix(0.13333333,0,0,-0.13333333,0,1728)" />
      <path
         id="path11"
         d="m 11430.9,7200 v 3600 h 1697.6 v -505.2 h -1178.2 v -909.53 h 747.5 v -492.64 h -747.5 V 7705.27 h 1317.5 V 7200 h -1836.9"
         style="fill:#231f20;fill-opacity:1;fill-rule:nonzero;stroke:none"
         transform="matrix(0.13333333,0,0,-0.13333333,0,1728)" />
      <path
         id="path12"
         d="M 8195.21,7200 7085.91,9612.64 V 7200 h -516.82 v 3600 h 516.82 L 8069.15,8639.99 V 10800 h 516.82 V 7200 h -390.76"
         style="fill:#231f20;fill-opacity:1;fill-rule:nonzero;stroke:none"
         transform="matrix(0.13333333,0,0,-0.13333333,0,1728)" />
      <path
         id="path13"
         d="m 14926.1,10294.8 h -529.4 v -909.54 h 529.4 c 302.5,0 466.4,164.21 466.4,454.74 0,277.9 -189.1,454.8 -466.4,454.8 z m 441.2,-3094.8 -479,1692.65 h -491.6 V 7200 h -516.9 v 3600 h 1071.5 c 567.3,0 945.4,-378.9 945.4,-960 0,-429.46 -176.4,-745.26 -516.8,-871.57 L 15896.7,7200 h -529.4"
         style="fill:#231f20;fill-opacity:1;fill-rule:nonzero;stroke:none"
         transform="matrix(0.13333333,0,0,-0.13333333,0,1728)" />
      <path
         id="path14"
         d="M 10268.1,10320 V 7200 h -519.33 v 3120 H 9090 v 480 h 1836.9 v -480 h -658.8"
         style="fill:#231f20;fill-opacity:1;fill-rule:nonzero;stroke:none"
         transform="matrix(0.13333333,0,0,-0.13333333,0,1728)" />
    </g>
  </g>
</svg>
