<?xml version="1.0" standalone="no"?>
<svg width="2592px" height="1728px" viewBox="0 -936 2592 1728 " xmlns="http://www.w3.org/2000/svg" xmlns:xlink="http://www.w3.org/1999/xlink">
<title>generated by pstoedit</title>
<!-- generated by pstoedit version:4.02 -->
<g xml:space='preserve'>
<clipPath id="clippath1"> 	<path d="
	M 0 -936 
	L 0 792 
	L 2592 792 
	L 2592 -936 
	Z 
	" style="clip-rule:nonzero"/>
</clipPath>
<g style="clip-path:url(#clippath1)"> 
<g fill="#ffffff" fill-rule="nonzero" stroke-width="0" stroke-linejoin="miter" stroke-linecap="butt" stroke-miterlimit="10" >
	<path d="
	M 2592 684 
	C 2592 743.648 2543.65 792 2484 792 
	L 108 792 
	C 48.3516 792 0 743.648 0 684 
	L 0 -828 
	C 0 -887.64 48.3516 -936 108 -936 
	L 2484 -936 
	C 2543.65 -936 2592 -887.64 2592 -828 
	Z 
	"/>
</g>
<g fill="#7f7f7f" fill-rule="nonzero" stroke-width="0" stroke-linejoin="miter" stroke-linecap="butt" stroke-miterlimit="10" >
	<path d="
	M 108 765 
	C 63.3359 765 27 728.66 27 684 
	L 27 -828 
	C 27 -872.66 63.3359 -909 108 -909 
	L 2484 -909 
	C 2528.66 -909 2565 -872.66 2565 -828 
	L 2565 684 
	C 2565 728.66 2528.66 765 2484 765 
	Z 
	"/>
</g>
<g fill="#ffffff" fill-rule="nonzero" stroke-width="0" stroke-linejoin="miter" stroke-linecap="butt" stroke-miterlimit="10" >
	<path d="
	M 108 720 
	C 88.1484 720 72 703.852 72 684 
	L 72 -828 
	C 72 -847.85 88.1484 -864 108 -864 
	L 2484 -864 
	C 2503.85 -864 2520 -847.85 2520 -828 
	L 2520 684 
	C 2520 703.852 2503.85 720 2484 720 
	Z 
	"/>
</g>
<g fill="#7f7f7f" fill-rule="nonzero" stroke-width="0" stroke-linejoin="miter" stroke-linecap="butt" stroke-miterlimit="10" >
	<path d="
	M 1603.57 540 
	L 1410.8 198.699 
	L 1410.8 540 
	L 1331.22 540 
	L 1331.22 36 
	L 1410.8 36 
	L 1594.73 357.852 
	L 1594.73 36 
	L 1674.31 36 
	L 1674.31 540 
	Z 
	"/>
</g>
<g fill="#7f7f7f" fill-rule="nonzero" stroke-width="0" stroke-linejoin="miter" stroke-linecap="butt" stroke-miterlimit="10" >
	<path d="
	M 484.117 540 
	L 484.117 35.996 
	L 563.594 35.996 
	L 563.594 465.73 
	L 796.727 465.73 
	L 796.727 540 
	Z 
	"/>
</g>
<g fill="#7f7f7f" fill-rule="nonzero" stroke-width="0" stroke-linejoin="miter" stroke-linecap="butt" stroke-miterlimit="10" >
	<path d="
	M 1795.27 540 
	L 1795.27 36 
	L 2091.98 36 
	L 2091.98 115.578 
	L 1874.75 115.578 
	L 1874.75 239.371 
	L 2021.34 239.371 
	L 2021.34 320.719 
	L 1874.75 320.719 
	L 1874.75 458.648 
	L 2107.88 458.648 
	L 2107.88 540 
	Z 
	"/>
</g>
<g fill="#7f7f7f" fill-rule="nonzero" stroke-width="0" stroke-linejoin="miter" stroke-linecap="butt" stroke-miterlimit="10" >
	<path d="
	M 1042.18 175.711 
	L 990.602 317.18 
	L 1091.98 317.18 
	Z 
	M 1170.24 540 
	L 1120.44 398.531 
	L 962.141 398.531 
	L 912.34 540 
	L 826.965 540 
	L 1001.27 36 
	L 1081.31 36 
	L 1255.62 540 
	Z 
	"/>
</g>
<g fill="#7f7f7f" fill-rule="nonzero" stroke-width="0" stroke-linejoin="miter" stroke-linecap="butt" stroke-miterlimit="10" >
	<path d="
	M 602.031 -179.992 
	L 602.031 -684 
	L 681.504 -684 
	L 681.504 -254.27 
	L 914.637 -254.27 
	L 914.637 -179.992 
	Z 
	"/>
</g>
<g fill="#7f7f7f" fill-rule="nonzero" stroke-width="0" stroke-linejoin="miter" stroke-linecap="butt" stroke-miterlimit="10" >
	<path d="
	M 1926.74 -613.26 
	L 1926.74 -179.996 
	L 1846.82 -179.996 
	L 1846.82 -613.26 
	L 1731.36 -613.26 
	L 1731.36 -684 
	L 2043.97 -684 
	L 2043.97 -613.26 
	Z 
	"/>
</g>
<g fill="#7f7f7f" fill-rule="nonzero" stroke-width="0" stroke-linejoin="miter" stroke-linecap="butt" stroke-miterlimit="10" >
	<path d="
	M 990.234 -179.992 
	L 990.234 -684 
	L 1286.94 -684 
	L 1286.94 -604.42 
	L 1069.71 -604.42 
	L 1069.71 -480.63 
	L 1216.3 -480.63 
	L 1216.3 -399.28 
	L 1069.71 -399.28 
	L 1069.71 -261.34 
	L 1302.84 -261.34 
	L 1302.84 -179.992 
	Z 
	"/>
</g>
<g fill="#7f7f7f" fill-rule="nonzero" stroke-width="0" stroke-linejoin="miter" stroke-linecap="butt" stroke-miterlimit="10" >
	<path d="
	M 1468 -604.42 
	L 1468 -480.63 
	L 1614.58 -480.63 
	L 1614.58 -399.28 
	L 1468 -399.28 
	L 1468 -179.992 
	L 1388.52 -179.992 
	L 1388.52 -684 
	L 1701.13 -684 
	L 1701.13 -604.42 
	Z 
	"/>
</g>
</g >
</g>
</svg>
