<?xml version="1.0" standalone="no"?>
<svg width="1728px" height="1296px" viewBox="0 -504 1728 1296 " xmlns="http://www.w3.org/2000/svg" xmlns:xlink="http://www.w3.org/1999/xlink">
<title>generated by pstoedit</title>
<!-- generated by pstoedit version:4.02 -->
<g xml:space='preserve'>
<clipPath id="clippath1"> 	<path d="
	M 0 -504 
	L 0 792 
	L 1728 792 
	L 1728 -504 
	Z 
	" style="clip-rule:nonzero"/>
</clipPath>
<g style="clip-path:url(#clippath1)"> 
<g fill="#ffffff" fill-rule="nonzero" stroke-width="0" stroke-linejoin="miter" stroke-linecap="butt" stroke-miterlimit="10" >
	<path d="
	M 1728 684 
	C 1728 743.648 1679.65 792 1620 792 
	L 108 792 
	C 48.3516 792 0 743.648 0 684 
	L 0 -396 
	C 0 -455.65 48.3516 -504 108 -504 
	L 1620 -504 
	C 1679.65 -504 1728 -455.65 1728 -396 
	Z 
	"/>
</g>
<g fill="#7f7f7f" fill-rule="nonzero" stroke-width="0" stroke-linejoin="miter" stroke-linecap="butt" stroke-miterlimit="10" >
	<path d="
	M 108 765 
	C 63.3359 765 27 728.66 27 684 
	L 27 -396 
	C 27 -440.66 63.3359 -477 108 -477 
	L 1620 -477 
	C 1664.66 -477 1701 -440.66 1701 -396 
	L 1701 684 
	C 1701 728.66 1664.66 765 1620 765 
	Z 
	"/>
</g>
<g fill="#ffffff" fill-rule="nonzero" stroke-width="0" stroke-linejoin="miter" stroke-linecap="butt" stroke-miterlimit="10" >
	<path d="
	M 108 720 
	C 88.1484 720 72 703.852 72 684 
	L 72 -396 
	C 72 -415.85 88.1484 -432 108 -432 
	L 1620 -432 
	C 1639.85 -432 1656 -415.85 1656 -396 
	L 1656 684 
	C 1656 703.852 1639.85 720 1620 720 
	Z 
	"/>
</g>
<g fill="#7f7f7f" fill-rule="nonzero" stroke-width="0" stroke-linejoin="miter" stroke-linecap="butt" stroke-miterlimit="10" >
	<path d="
	M 1083.7 576 
	L 946 332.211 
	L 946 576 
	L 889.152 576 
	L 889.152 216 
	L 946 216 
	L 1077.38 445.895 
	L 1077.38 216 
	L 1134.22 216 
	L 1134.22 576 
	Z 
	"/>
</g>
<g fill="#7f7f7f" fill-rule="nonzero" stroke-width="0" stroke-linejoin="miter" stroke-linecap="butt" stroke-miterlimit="10" >
	<path d="
	M 284.086 576 
	L 284.086 215.996 
	L 340.852 215.996 
	L 340.852 522.949 
	L 507.375 522.949 
	L 507.375 576 
	Z 
	"/>
</g>
<g fill="#7f7f7f" fill-rule="nonzero" stroke-width="0" stroke-linejoin="miter" stroke-linecap="butt" stroke-miterlimit="10" >
	<path d="
	M 1220.63 576 
	L 1220.63 216 
	L 1432.56 216 
	L 1432.56 272.84 
	L 1277.39 272.84 
	L 1277.39 361.262 
	L 1382.1 361.262 
	L 1382.1 419.367 
	L 1277.39 419.367 
	L 1277.39 517.891 
	L 1443.92 517.891 
	L 1443.92 576 
	Z 
	"/>
</g>
<g fill="#7f7f7f" fill-rule="nonzero" stroke-width="0" stroke-linejoin="miter" stroke-linecap="butt" stroke-miterlimit="10" >
	<path d="
	M 682.699 315.789 
	L 645.855 416.844 
	L 718.27 416.844 
	Z 
	M 774.172 576 
	L 738.598 474.945 
	L 625.527 474.945 
	L 589.953 576 
	L 528.973 576 
	L 653.477 216 
	L 710.648 216 
	L 835.152 576 
	Z 
	"/>
</g>
<g fill="#7f7f7f" fill-rule="nonzero" stroke-width="0" stroke-linejoin="miter" stroke-linecap="butt" stroke-miterlimit="10" >
	<path d="
	M 525.422 72.004 
	L 525.422 -288 
	L 583.02 -288 
	L 583.02 72.004 
	Z 
	"/>
</g>
<g fill="#7f7f7f" fill-rule="nonzero" stroke-width="0" stroke-linejoin="miter" stroke-linecap="butt" stroke-miterlimit="10" >
	<path d="
	M 1425.11 -237.47 
	L 1425.11 72 
	L 1368.03 72 
	L 1368.03 -237.47 
	L 1285.56 -237.47 
	L 1285.56 -288 
	L 1508.85 -288 
	L 1508.85 -237.47 
	Z 
	"/>
</g>
<g fill="#7f7f7f" fill-rule="nonzero" stroke-width="0" stroke-linejoin="miter" stroke-linecap="butt" stroke-miterlimit="10" >
	<path d="
	M 377.055 -224.84 
	C 368.215 -229.89 363.16 -231.16 344.211 -231.16 
	L 275.996 -231.16 
	L 275.996 -142.734 
	L 344.211 -142.734 
	C 361.898 -142.734 368.215 -143.996 377.055 -149.051 
	C 390.953 -156.629 399.797 -171.789 399.797 -186.945 
	C 399.797 -202.105 390.953 -217.26 377.055 -224.84 
	Z 
	M 402.32 72 
	L 344.211 -84.633 
	L 275.996 -84.633 
	L 275.996 72 
	L 219.152 72 
	L 219.152 -288 
	L 337.895 -288 
	C 365.688 -288 384.637 -285.47 402.32 -276.63 
	C 433.902 -261.47 456.641 -223.58 456.641 -186.945 
	C 456.641 -149.051 433.902 -111.156 401.059 -95.996 
	L 464.223 72 
	Z 
	"/>
</g>
<g fill="#7f7f7f" fill-rule="nonzero" stroke-width="0" stroke-linejoin="miter" stroke-linecap="butt" stroke-miterlimit="10" >
	<path d="
	M 1174.72 72.004 
	L 1174.72 -84.633 
	L 1043.34 -84.633 
	L 1043.34 72.004 
	L 986.488 72.004 
	L 986.488 -288 
	L 1043.34 -288 
	L 1043.34 -142.734 
	L 1174.72 -142.734 
	L 1174.72 -288 
	L 1231.56 -288 
	L 1231.56 72.004 
	Z 
	"/>
</g>
<g fill="#7f7f7f" fill-rule="nonzero" stroke-width="0" stroke-linejoin="miter" stroke-linecap="butt" stroke-miterlimit="10" >
	<path d="
	M 793.598 78.316 
	C 739.281 78.316 707.699 58.105 686.223 12.633 
	C 671.066 -18.945 662.223 -63.156 662.223 -107.367 
	C 662.223 -165.473 678.645 -222.31 702.645 -253.89 
	C 724.121 -280.42 754.438 -294.31 794.863 -294.31 
	C 850.445 -294.31 883.293 -271.57 907.289 -214.73 
	L 852.973 -193.262 
	C 837.813 -224.84 822.652 -236.21 794.863 -236.21 
	C 765.809 -236.21 746.859 -223.58 734.227 -191.996 
	C 725.383 -170.523 720.328 -137.684 720.328 -107.367 
	C 720.328 -69.473 726.645 -31.574 738.016 -8.84003 
	C 749.387 11.367 765.809 20.215 787.281 20.215 
	C 823.918 20.215 850.445 -2.52301 850.445 -35.363 
	L 850.445 -50.523 
	L 784.758 -50.523 
	L 784.758 -107.367 
	L 907.289 -107.367 
	L 907.289 -35.363 
	C 907.289 30.32 859.289 78.316 793.598 78.316 
	Z 
	"/>
</g>
</g >
</g>
</svg>
