<?xml version="1.0" standalone="no"?>
<svg width="1728px" height="1296px" viewBox="0 -504 1728 1296 " xmlns="http://www.w3.org/2000/svg" xmlns:xlink="http://www.w3.org/1999/xlink">
<title>generated by pstoedit</title>
<!-- generated by pstoedit version:4.02 -->
<g xml:space='preserve'>
<clipPath id="clippath1"> 	<path d="
	M 0 -504 
	L 0 792 
	L 1728 792 
	L 1728 -504 
	Z 
	" style="clip-rule:nonzero"/>
</clipPath>
<g style="clip-path:url(#clippath1)"> 
<g fill="#ffffff" fill-rule="nonzero" stroke-width="0" stroke-linejoin="miter" stroke-linecap="butt" stroke-miterlimit="10" >
	<path d="
	M 1728 684 
	C 1728 743.648 1679.65 792 1620 792 
	L 108 792 
	C 48.3516 792 0 743.648 0 684 
	L 0 -396 
	C 0 -455.65 48.3516 -504 108 -504 
	L 1620 -504 
	C 1679.65 -504 1728 -455.65 1728 -396 
	Z 
	"/>
</g>
<g fill="#7f7f7f" fill-rule="nonzero" stroke-width="0" stroke-linejoin="miter" stroke-linecap="butt" stroke-miterlimit="10" >
	<path d="
	M 108 765 
	C 63.3359 765 27 728.66 27 684 
	L 27 -396 
	C 27 -440.66 63.3359 -477 108 -477 
	L 1620 -477 
	C 1664.66 -477 1701 -440.66 1701 -396 
	L 1701 684 
	C 1701 728.66 1664.66 765 1620 765 
	Z 
	"/>
</g>
<g fill="#ffffff" fill-rule="nonzero" stroke-width="0" stroke-linejoin="miter" stroke-linecap="butt" stroke-miterlimit="10" >
	<path d="
	M 108 720 
	C 88.1484 720 72 703.852 72 684 
	L 72 -396 
	C 72 -415.85 88.1484 -432 108 -432 
	L 1620 -432 
	C 1639.85 -432 1656 -415.85 1656 -396 
	L 1656 684 
	C 1656 703.852 1639.85 720 1620 720 
	Z 
	"/>
</g>
<g fill="#7f7f7f" fill-rule="nonzero" stroke-width="0" stroke-linejoin="miter" stroke-linecap="butt" stroke-miterlimit="10" >
	<path d="
	M 1083.7 576 
	L 946 332.211 
	L 946 576 
	L 889.152 576 
	L 889.152 216 
	L 946 216 
	L 1077.38 445.895 
	L 1077.38 216 
	L 1134.22 216 
	L 1134.22 576 
	Z 
	"/>
</g>
<g fill="#7f7f7f" fill-rule="nonzero" stroke-width="0" stroke-linejoin="miter" stroke-linecap="butt" stroke-miterlimit="10" >
	<path d="
	M 284.086 576 
	L 284.086 215.996 
	L 340.852 215.996 
	L 340.852 522.949 
	L 507.375 522.949 
	L 507.375 576 
	Z 
	"/>
</g>
<g fill="#7f7f7f" fill-rule="nonzero" stroke-width="0" stroke-linejoin="miter" stroke-linecap="butt" stroke-miterlimit="10" >
	<path d="
	M 1220.63 576 
	L 1220.63 216 
	L 1432.56 216 
	L 1432.56 272.84 
	L 1277.39 272.84 
	L 1277.39 361.262 
	L 1382.1 361.262 
	L 1382.1 419.367 
	L 1277.39 419.367 
	L 1277.39 517.891 
	L 1443.92 517.891 
	L 1443.92 576 
	Z 
	"/>
</g>
<g fill="#7f7f7f" fill-rule="nonzero" stroke-width="0" stroke-linejoin="miter" stroke-linecap="butt" stroke-miterlimit="10" >
	<path d="
	M 682.699 315.789 
	L 645.855 416.844 
	L 718.27 416.844 
	Z 
	M 774.172 576 
	L 738.598 474.945 
	L 625.527 474.945 
	L 589.953 576 
	L 528.973 576 
	L 653.477 216 
	L 710.648 216 
	L 835.152 576 
	Z 
	"/>
</g>
<g fill="#7f7f7f" fill-rule="nonzero" stroke-width="0" stroke-linejoin="miter" stroke-linecap="butt" stroke-miterlimit="10" >
	<path d="
	M 288.008 -192 
	C 282.934 -227.37 268.98 -243.79 244.879 -243.79 
	C 203.02 -243.79 187.797 -210.95 187.797 -117.477 
	C 187.797 -13.895 205.555 27.789 249.953 27.789 
	C 280.398 27.789 288.008 2.52301 288.008 -24 
	L 340.016 -24 
	C 338.746 35.367 300.695 78.316 249.953 78.316 
	C 172.574 78.316 138.328 16.422 138.328 -116.211 
	C 138.328 -232.42 175.113 -294.32 246.148 -294.32 
	C 275.324 -294.32 300.695 -281.69 317.184 -257.69 
	C 331.137 -240 336.211 -224.84 340.016 -192 
	Z 
	"/>
</g>
<g fill="#7f7f7f" fill-rule="nonzero" stroke-width="0" stroke-linejoin="miter" stroke-linecap="butt" stroke-miterlimit="10" >
	<path d="
	M 412.016 72 
	L 412.016 -288 
	L 581.77 -288 
	L 581.77 -237.48 
	L 463.957 -237.48 
	L 463.957 -146.527 
	L 538.699 -146.527 
	L 538.699 -97.262 
	L 463.957 -97.262 
	L 463.957 21.473 
	L 595.707 21.473 
	L 595.707 72 
	Z 
	"/>
</g>
<g fill="#7f7f7f" fill-rule="nonzero" stroke-width="0" stroke-linejoin="miter" stroke-linecap="butt" stroke-miterlimit="10" >
	<path d="
	M 1143.09 72 
	L 1143.09 -288 
	L 1312.85 -288 
	L 1312.85 -237.48 
	L 1195.03 -237.48 
	L 1195.03 -146.527 
	L 1269.78 -146.527 
	L 1269.78 -97.262 
	L 1195.03 -97.262 
	L 1195.03 21.473 
	L 1326.78 21.473 
	L 1326.78 72 
	Z 
	"/>
</g>
<g fill="#7f7f7f" fill-rule="nonzero" stroke-width="0" stroke-linejoin="miter" stroke-linecap="butt" stroke-miterlimit="10" >
	<path d="
	M 819.52 72 
	L 708.59 -169.266 
	L 708.59 72 
	L 656.91 72 
	L 656.91 -288 
	L 708.59 -288 
	L 806.914 -72 
	L 806.914 -288 
	L 858.598 -288 
	L 858.598 72 
	Z 
	"/>
</g>
<g fill="#7f7f7f" fill-rule="nonzero" stroke-width="0" stroke-linejoin="miter" stroke-linecap="butt" stroke-miterlimit="10" >
	<path d="
	M 1492.61 -237.48 
	L 1439.67 -237.48 
	L 1439.67 -146.527 
	L 1492.61 -146.527 
	C 1522.86 -146.527 1539.25 -162.945 1539.25 -192 
	C 1539.25 -219.79 1520.34 -237.48 1492.61 -237.48 
	Z 
	M 1536.73 72 
	L 1488.83 -97.266 
	L 1439.67 -97.266 
	L 1439.67 72 
	L 1387.98 72 
	L 1387.98 -288 
	L 1495.13 -288 
	C 1551.86 -288 1589.67 -250.11 1589.67 -192 
	C 1589.67 -149.055 1572.03 -117.473 1537.99 -104.844 
	L 1589.67 72 
	Z 
	"/>
</g>
<g fill="#7f7f7f" fill-rule="nonzero" stroke-width="0" stroke-linejoin="miter" stroke-linecap="butt" stroke-miterlimit="10" >
	<path d="
	M 1026.81 -240 
	L 1026.81 72 
	L 974.879 72 
	L 974.879 -240 
	L 909 -240 
	L 909 -288 
	L 1092.69 -288 
	L 1092.69 -240 
	Z 
	"/>
</g>
</g >
</g>
</svg>
