<?xml version="1.0" encoding="UTF-8" standalone="no"?>
<!-- Created with Inkscape (http://www.inkscape.org/) -->

<svg
   version="1.1"
   id="svg1"
   width="2016.6667"
   height="1440.6667"
   viewBox="0 0 2016.6667 1440.6667"
   sodipodi:docname="tmpu4e44thw.pdf"
   xmlns:inkscape="http://www.inkscape.org/namespaces/inkscape"
   xmlns:sodipodi="http://sodipodi.sourceforge.net/DTD/sodipodi-0.dtd"
   xmlns="http://www.w3.org/2000/svg"
   xmlns:svg="http://www.w3.org/2000/svg">
  <defs
     id="defs1" />
  <sodipodi:namedview
     id="namedview1"
     pagecolor="#ffffff"
     bordercolor="#000000"
     borderopacity="0.25"
     inkscape:showpageshadow="2"
     inkscape:pageopacity="0.0"
     inkscape:pagecheckerboard="0"
     inkscape:deskcolor="#d1d1d1">
    <inkscape:page
       x="0"
       y="0"
       inkscape:label="1"
       id="page1"
       width="2016.6667"
       height="1440.6667"
       margin="0"
       bleed="0" />
  </sodipodi:namedview>
  <g
     id="g1"
     inkscape:groupmode="layer"
     inkscape:label="1">
    <g
       id="group-R5">
      <path
         id="path2"
         d="M 15122.5,1082.5 C 15122.5,486 14639,2.5 14042.5,2.5 H 1082.5 C 486.035,2.5 2.5,486 2.5,1082.5 v 8640 c 0,596.5 483.535,1080 1080,1080 h 12960 c 596.5,0 1080,-483.5 1080,-1080 v -8640"
         style="fill:#ffffff;fill-opacity:1;fill-rule:nonzero;stroke:none"
         transform="matrix(0.13333333,0,0,-0.13333333,0,1440.6667)" />
      <path
         id="path3"
         d="M 15122.5,1082.5 C 15122.5,486 14639,2.5 14042.5,2.5 H 1082.5 C 486.035,2.5 2.5,486 2.5,1082.5 v 8640 c 0,596.5 483.535,1080 1080,1080 h 12960 c 596.5,0 1080,-483.5 1080,-1080 z"
         style="fill:none;stroke:#231f20;stroke-width:5;stroke-linecap:butt;stroke-linejoin:miter;stroke-miterlimit:4;stroke-dasharray:none;stroke-opacity:1"
         transform="matrix(0.13333333,0,0,-0.13333333,0,1440.6667)" />
      <path
         id="path4"
         d="m 1082.5,272.5 c -446.637,0 -810,363.402 -810,810 v 8640 c 0,446.6 363.363,810 810,810 h 12960 c 446.6,0 810,-363.4 810,-810 v -8640 c 0,-446.598 -363.4,-810 -810,-810 h -12960"
         style="fill:#231f20;fill-opacity:1;fill-rule:nonzero;stroke:none"
         transform="matrix(0.13333333,0,0,-0.13333333,0,1440.6667)" />
      <path
         id="path5"
         d="m 1082.5,722.5 c -198.508,0 -360,161.492 -360,360 v 8640 c 0,198.51 161.492,360 360,360 h 12960 c 198.5,0 360,-161.49 360,-360 v -8640 c 0,-198.508 -161.5,-360 -360,-360 h -12960"
         style="fill:#ffffff;fill-opacity:1;fill-rule:nonzero;stroke:none"
         transform="matrix(0.13333333,0,0,-0.13333333,0,1440.6667)" />
      <path
         id="path6"
         d="M 10452.2,9166.66 5568.95,4921.69 5085.49,5985.65 c -13.97,30.2 -32.33,58.95 -55.31,85.28 -130.63,149.85 -357.99,165.45 -507.89,34.82 -57.38,-50.04 -95,-114.24 -112.35,-182.79 L 3328.85,1722.31 7637.68,2220.32 c 70.33,7.83 139.07,36.33 196.42,86.35 149.9,130.59 165.47,358.05 34.82,507.89 -22.98,26.37 -48.92,48.42 -76.97,66.42 l -978.66,618.11 4878.91,4241.17 -1240,1426.4"
         style="fill:#231f20;fill-opacity:1;fill-rule:nonzero;stroke:none"
         transform="matrix(0.13333333,0,0,-0.13333333,0,1440.6667)" />
    </g>
  </g>
</svg>
