<?xml version="1.0" encoding="UTF-8"?>
<svg id="For_Sheets" xmlns="http://www.w3.org/2000/svg" version="1.1" viewBox="0 0 432 1296">
  <!-- Generator: Adobe Illustrator 29.1.0, SVG Export Plug-In . SVG Version: 2.1.0 Build 142)  -->
  <defs>
    <style>
      .st0 {
        fill: #231f20;
      }

      .st1 {
        fill: #ffd046;
        stroke: #231f20;
        stroke-width: .5px;
      }
    </style>
  </defs>
  <rect class="st1" y="0" width="432" height="1296" rx="72" ry="72" transform="translate(432 1296) rotate(-180)"/>
  <polygon class="st0" points="0 192.6 432 624.6 432 787.6 0 355.6 0 192.6"/>
  <polygon class="st0" points="0 508.4 432 940.4 432 1103.4 0 671.4 0 508.4"/>
  <path class="st0" d="M5.2,45.1C15.9,18.7,41.8,0,72,0h51.1l308.9,308.9v163L5.2,45.1Z"/>
  <path class="st0" d="M432,72C432,32.2,399.8,0,360,0h-84.1s156.1,156.1,156.1,156.1v-84.1Z"/>
  <path class="st0" d="M426.8,1250.9c-10.7,26.4-36.6,45.1-66.8,45.1h-51.1L0,987.1v-163s426.8,426.8,426.8,426.8Z"/>
  <path class="st0" d="M0,1224c0,39.8,32.2,72,72,72h84.1L0,1139.9v84.1Z"/>
</svg>