<?xml version="1.0" encoding="UTF-8"?>
<svg id="For_Sheets" xmlns="http://www.w3.org/2000/svg" version="1.1" viewBox="0 0 2160 864">
  <!-- Generator: Adobe Illustrator 29.1.0, SVG Export Plug-In . SVG Version: 2.1.0 Build 142)  -->
  <defs>
    <style>
      .st0 {
        fill: #231f20;
      }

      .st1 {
        fill: #fff;
      }

      .st2 {
        fill: #bf311a;
      }
    </style>
  </defs>
  <g>
    <path class="st1" d="M135,864.1c-35.9,0-69.8-14.1-95.4-39.7C14,798.8-.1,764.9-.1,729V135C-.1,99.1,14,65.2,39.6,39.6S99.1-.1,135-.1h1890c35.9,0,69.8,14.1,95.4,39.7,25.6,25.6,39.7,59.5,39.7,95.4v594c0,35.9-14.1,69.8-39.7,95.4-25.6,25.6-59.5,39.7-95.4,39.7H135Z"/>
    <path class="st0" d="M2025,0c37.1,0,70.9,15.2,95.3,39.7,24.5,24.5,39.7,58.2,39.7,95.3v594c0,37.1-15.2,70.9-39.7,95.3-24.5,24.5-58.2,39.7-95.3,39.7H135c-37.1,0-70.9-15.2-95.3-39.7C15.2,799.9,0,766.1,0,729V135c0-37.1,15.2-70.9,39.7-95.3C64.1,15.2,97.9,0,135,0h1890M2025-.2H135C99-.2,65.1,13.9,39.5,39.5,13.9,65.1-.2,99-.2,135v594c0,36,14.1,69.9,39.7,95.5,25.6,25.6,59.5,39.7,95.5,39.7h1890c36,0,69.9-14.1,95.5-39.7,25.6-25.6,39.7-59.5,39.7-95.5V135c0-36-14.1-69.9-39.7-95.5-25.6-25.6-59.5-39.7-95.5-39.7h0Z"/>
  </g>
  <path class="st2" d="M135,810c-21.5,0-41.8-8.5-57.2-23.8-15.4-15.4-23.8-35.7-23.8-57.2V135c0-21.5,8.5-41.8,23.8-57.2,15.4-15.4,35.7-23.8,57.2-23.8h1890c21.5,0,41.8,8.5,57.2,23.8,15.4,15.4,23.8,35.7,23.8,57.2v594c0,21.5-8.5,41.8-23.8,57.2-15.4,15.4-35.7,23.8-57.2,23.8H135Z"/>
  <g>
    <path class="st1" d="M343.5,648l-30.4-118.2h-92.7l-28.9,118.2h-62.3l107.9-432h60.8l107.9,432h-62.3ZM266,344.8l-30.4,124.3h62.3l-31.9-124.3Z"/>
    <path class="st1" d="M436,648V216h62.3v374.4h158.1v57.6h-220.4Z"/>
    <path class="st1" d="M686.7,648V216h62.3v374.4h158.1v57.6h-220.4Z"/>
  </g>
  <g>
    <path class="st1" d="M1678.9,648l-30.4-118.2h-92.7l-28.9,118.2h-62.3l107.9-432h60.8l107.9,432h-62.3ZM1601.4,344.8l-30.4,124.3h62.3l-31.9-124.3Z"/>
    <path class="st1" d="M1381.7,648h-53.2l-41.1-225.9-41.1,225.9h-54.8l-68.4-432h60.8l36.5,230.4,42.6-230.4h48.7l41.1,230.4,38-230.4h60.8l-70,432Z"/>
    <path class="st1" d="M1922.9,452.5v195.5h-62.3v-195.5l-106.4-236.5h65.3l72.9,156.1,71.4-156.1h66.9l-107.9,236.5Z"/>
  </g>
</svg>