<?xml version="1.0" standalone="no"?>
<svg width="864px" height="2592px" viewBox="0 -1800 864 2592 " xmlns="http://www.w3.org/2000/svg" xmlns:xlink="http://www.w3.org/1999/xlink">
<title>generated by pstoedit</title>
<!-- generated by pstoedit version:4.02 -->
<g xml:space='preserve'>
<clipPath id="clippath1"> 	<path d="
	M 0 -1800.5 
	L 0 792 
	L 864.5 792 
	L 864.5 -1800.5 
	Z 
	" style="clip-rule:nonzero"/>
</clipPath>
<g style="clip-path:url(#clippath1)"> 
<g fill="#87ffd8" fill-rule="nonzero" stroke-width="0" stroke-linejoin="miter" stroke-linecap="butt" stroke-miterlimit="10" >
	<path d="
	M 864.25 683.75 
	C 864.25 743.398 815.895 791.75 756.25 791.75 
	L 108.25 791.75 
	C 48.6016 791.75 0.25 743.398 0.25 683.75 
	L 0.25 -1692.25 
	C 0.25 -1751.89 48.6016 -1800.25 108.25 -1800.25 
	L 756.25 -1800.25 
	C 815.895 -1800.25 864.25 -1751.89 864.25 -1692.25 
	Z 
	"/>
</g>
<g stroke="#7f7f7f" fill="none" stroke-width="0.5" stroke-linejoin="miter" stroke-linecap="butt" stroke-miterlimit="4" >
	<path d="
	M 864.25 683.75 
	C 864.25 743.398 815.895 791.75 756.25 791.75 
	L 108.25 791.75 
	C 48.6016 791.75 0.25 743.398 0.25 683.75 
	L 0.25 -1692.25 
	C 0.25 -1751.89 48.6016 -1800.25 108.25 -1800.25 
	L 756.25 -1800.25 
	C 815.895 -1800.25 864.25 -1751.89 864.25 -1692.25 
	Z 
	"/>
</g>
<g fill="#7f7f7f" fill-rule="nonzero" stroke-width="0" stroke-linejoin="miter" stroke-linecap="butt" stroke-miterlimit="4" >
	<path d="
	M 792.25 323.75 
	C 792.25 363.512 760.016 395.75 720.25 395.75 
	L 144.25 395.75 
	C 104.484 395.75 72.25 363.512 72.25 323.75 
	L 72.25 -1260.25 
	C 72.25 -1300.02 104.484 -1332.25 144.25 -1332.25 
	L 720.25 -1332.25 
	C 760.016 -1332.25 792.25 -1300.02 792.25 -1260.25 
	Z 
	"/>
</g>
<g fill="#ffffff" fill-rule="nonzero" stroke-width="0" stroke-linejoin="miter" stroke-linecap="butt" stroke-miterlimit="4" >
	<path d="
	M 144.25 377.75 
	C 114.473 377.75 90.25 353.531 90.25 323.75 
	L 90.25 -1260.25 
	C 90.25 -1290.03 114.473 -1314.25 144.25 -1314.25 
	L 720.25 -1314.25 
	C 750.023 -1314.25 774.25 -1290.03 774.25 -1260.25 
	L 774.25 323.75 
	C 774.25 353.531 750.023 377.75 720.25 377.75 
	Z 
	"/>
</g>
<g fill="#7f7f7f" fill-rule="nonzero" stroke-width="0" stroke-linejoin="miter" stroke-linecap="butt" stroke-miterlimit="4" >
	<path d="
	M 328.195 -1708.04 
	L 328.195 -1584.25 
	L 305.359 -1584.25 
	L 305.359 -1708.04 
	L 272.375 -1708.04 
	L 272.375 -1728.25 
	L 361.688 -1728.25 
	L 361.688 -1708.04 
	Z 
	"/>
</g>
<g fill="#7f7f7f" fill-rule="nonzero" stroke-width="0" stroke-linejoin="miter" stroke-linecap="butt" stroke-miterlimit="4" >
	<path d="
	M 557.266 -1708.04 
	L 557.266 -1584.25 
	L 534.43 -1584.25 
	L 534.43 -1708.04 
	L 501.441 -1708.04 
	L 501.441 -1728.25 
	L 590.758 -1728.25 
	L 590.758 -1708.04 
	Z 
	"/>
</g>
<g fill="#7f7f7f" fill-rule="nonzero" stroke-width="0" stroke-linejoin="miter" stroke-linecap="butt" stroke-miterlimit="4" >
	<path d="
	M 246.707 -1592.84 
	C 238.621 -1585.77 227.508 -1581.72 215.379 -1581.72 
	C 190.617 -1581.72 172.43 -1596.38 162.828 -1618.1 
	L 184.555 -1626.19 
	C 190.617 -1612.55 201.734 -1604.96 215.379 -1604.96 
	C 228.516 -1604.96 237.609 -1614.06 237.609 -1626.19 
	C 237.609 -1645.39 215.379 -1648.42 196.684 -1656 
	C 188.094 -1659.54 168.891 -1668.12 168.891 -1691.87 
	C 168.891 -1720.16 188.094 -1730.78 213.863 -1730.78 
	C 234.074 -1730.78 247.719 -1719.16 254.789 -1701.47 
	L 234.578 -1695.41 
	C 234.578 -1695.41 229.527 -1707.54 213.355 -1708.04 
	C 202.746 -1708.54 190.113 -1704.5 191.125 -1691.36 
	C 193.145 -1664.59 260.855 -1682.27 260.855 -1625.68 
	C 260.855 -1612.55 255.801 -1600.93 246.707 -1592.84 
	Z 
	"/>
</g>
<g fill="#7f7f7f" fill-rule="nonzero" stroke-width="0" stroke-linejoin="miter" stroke-linecap="butt" stroke-miterlimit="4" >
	<path d="
	M 612.355 -1584.25 
	L 612.355 -1728.25 
	L 697.133 -1728.25 
	L 697.133 -1705.51 
	L 635.063 -1705.51 
	L 635.063 -1670.14 
	L 676.945 -1670.14 
	L 676.945 -1646.9 
	L 635.063 -1646.9 
	L 635.063 -1607.49 
	L 701.672 -1607.49 
	L 701.672 -1584.25 
	Z 
	"/>
</g>
<g fill="#7f7f7f" fill-rule="nonzero" stroke-width="0" stroke-linejoin="miter" stroke-linecap="butt" stroke-miterlimit="4" >
	<path d="
	M 431.82 -1688.33 
	L 417.082 -1647.91 
	L 446.051 -1647.91 
	Z 
	M 468.406 -1584.25 
	L 454.18 -1624.67 
	L 408.949 -1624.67 
	L 394.723 -1584.25 
	L 370.328 -1584.25 
	L 420.133 -1728.25 
	L 443 -1728.25 
	L 492.801 -1584.25 
	Z 
	"/>
</g>
<g fill="#7f7f7f" fill-rule="nonzero" stroke-width="0" stroke-linejoin="miter" stroke-linecap="butt" stroke-miterlimit="4" >
	<path d="
	M 253.602 -1386.25 
	L 253.602 -1530.25 
	L 276.309 -1530.25 
	L 276.309 -1407.47 
	L 342.914 -1407.47 
	L 342.914 -1386.25 
	Z 
	"/>
</g>
<g fill="#7f7f7f" fill-rule="nonzero" stroke-width="0" stroke-linejoin="miter" stroke-linecap="butt" stroke-miterlimit="4" >
	<path d="
	M 589.609 -1386.25 
	L 569.34 -1386.25 
	L 546.531 -1478.71 
	L 524.23 -1386.25 
	L 503.953 -1386.25 
	L 482.668 -1530.25 
	L 505.98 -1530.25 
	L 517.133 -1454.46 
	L 535.379 -1530.25 
	L 557.68 -1530.25 
	L 576.434 -1454.46 
	L 587.586 -1530.25 
	L 610.898 -1530.25 
	Z 
	"/>
</g>
<g fill="#7f7f7f" fill-rule="nonzero" stroke-width="0" stroke-linejoin="miter" stroke-linecap="butt" stroke-miterlimit="4" >
	<path d="
	M 413.047 -1490.33 
	L 398.309 -1449.91 
	L 427.273 -1449.91 
	Z 
	M 449.637 -1386.25 
	L 435.406 -1426.67 
	L 390.18 -1426.67 
	L 375.949 -1386.25 
	L 351.555 -1386.25 
	L 401.355 -1530.25 
	L 424.227 -1530.25 
	L 474.027 -1386.25 
	Z 
	"/>
</g>
<g fill="#7f7f7f" fill-rule="evenodd" stroke-width="0" stroke-linejoin="miter" stroke-linecap="butt" stroke-miterlimit="4" >
	<path d="
	M 565.504 -158.352 
	L 595.211 -112.961 
	L 587.781 -84.922 
	L 577.859 -82.422 
	Z 
	M 372.426 -56.82 
	L 363.336 -55.211 
	L 371.594 -92.34 
	L 379.02 -76.66 
	Z 
	M 586.949 -9.828 
	L 654.617 -29.609 
	L 636.438 -95.609 
	L 619.148 -93.18 
	L 624.914 -128.641 
	L 569.605 -233.44 
	L 539.898 -246.63 
	L 534.969 -258.15 
	C 531.254 -255.18 527.395 -252.66 522.996 -250.85 
	C 518.543 -249.04 513.672 -247.79 508.859 -247.58 
	C 505.41 -247.43 502.055 -247.64 498.668 -248.29 
	L 497.004 -238.37 
	L 473.895 -216.92 
	L 445.023 -119.551 
	L 402.961 -102.211 
	L 379.02 -155.02 
	L 342.723 -175.641 
	C 339.781 -173.969 336.809 -172.43 333.543 -171.48 
	C 330.512 -170.621 327.395 -169.781 324.215 -169.75 
	C 319.582 -169.691 314.977 -170.289 310.523 -171.539 
	L 309.691 -171.539 
	L 284.145 -144.328 
	L 258.539 -62.641 
	L 209.883 -16.422 
	L 223.902 -3.22998 
	L 281.648 -41.191 
	L 289.074 -71.672 
	L 298.164 -43.629 
	L 261.035 71.031 
	L 274.223 75.191 
	L 235.43 221.211 
	L 256.105 228.641 
	L 311.355 82.609 
	L 333.633 84.281 
	L 394.703 226.148 
	L 416.152 219.551 
	L 372.426 81.781 
	C 376.852 80.801 381.219 79.551 385.676 78.57 
	C 389.566 77.68 393.398 76.441 397.199 75.191 
	L 374.922 6.69098 
	L 430.172 -6.5 
	L 418.645 -62.641 
	L 405.457 -62.641 
	L 414.488 -76.66 
	L 412.883 -79.93 
	L 460.707 -93.18 
	L 473.063 -114.621 
	L 491.242 -38.699 
	L 455.777 73.52 
	L 445.855 244.32 
	L 484.648 247.648 
	L 498.668 105.719 
	L 522.609 52.91 
	L 540.73 125.512 
	L 608.398 251.75 
	L 643.863 234.398 
	L 580.355 103.23 
	Z 
	"/>
</g>
<g fill="#7f7f7f" fill-rule="evenodd" stroke-width="0" stroke-linejoin="miter" stroke-linecap="butt" stroke-miterlimit="4" >
	<path d="
	M 474.398 -261.07 
	C 489.191 -250.97 508.977 -250.64 523.77 -260.86 
	C 536.512 -269.65 542.84 -282.48 543.227 -297.78 
	C 543.582 -312.39 535.859 -326.5 523.859 -334.7 
	C 511.531 -343.11 495.785 -344.56 482.094 -338.71 
	C 465.816 -331.73 454.945 -315.54 454.945 -297.78 
	C 454.914 -283.17 462.34 -269.29 474.398 -261.07 
	Z 
	"/>
</g>
<g fill="#7f7f7f" fill-rule="evenodd" stroke-width="0" stroke-linejoin="miter" stroke-linecap="butt" stroke-miterlimit="4" >
	<path d="
	M 336.188 -178.961 
	C 352.105 -185.762 362 -200.559 362.504 -217.76 
	C 362.922 -231.63 354.723 -245.59 343.316 -253.08 
	C 326.977 -263.74 304.371 -261.45 290.621 -247.64 
	C 276.867 -233.86 274.371 -211.28 285.125 -194.941 
	C 296.145 -178.191 317.594 -171.031 336.188 -178.961 
	Z 
	"/>
</g>
<g fill="#7f7f7f" fill-rule="nonzero" stroke-width="0" stroke-linejoin="miter" stroke-linecap="butt" stroke-miterlimit="4" >
	<path d="
	M 484.285 557.75 
	L 484.285 508.871 
	L 454.789 508.871 
	L 454.789 557.75 
	L 439.281 557.75 
	L 439.281 449.75 
	L 454.789 449.75 
	L 454.789 493.711 
	L 484.285 493.711 
	L 484.285 449.75 
	L 499.789 449.75 
	L 499.789 557.75 
	Z 
	"/>
</g>
<g fill="#7f7f7f" fill-rule="nonzero" stroke-width="0" stroke-linejoin="miter" stroke-linecap="butt" stroke-miterlimit="4" >
	<path d="
	M 338.816 557.75 
	L 338.816 449.75 
	L 353.938 449.75 
	L 353.938 557.75 
	Z 
	"/>
</g>
<g fill="#7f7f7f" fill-rule="nonzero" stroke-width="0" stroke-linejoin="miter" stroke-linecap="butt" stroke-miterlimit="4" >
	<path d="
	M 523.551 557.75 
	L 523.551 449.75 
	L 538.672 449.75 
	L 538.672 557.75 
	Z 
	"/>
</g>
<g fill="#7f7f7f" fill-rule="nonzero" stroke-width="0" stroke-linejoin="miter" stroke-linecap="butt" stroke-miterlimit="4" >
	<path d="
	M 611.215 557.75 
	L 577.938 485.371 
	L 577.938 557.75 
	L 562.434 557.75 
	L 562.434 449.75 
	L 577.938 449.75 
	L 607.434 514.551 
	L 607.434 449.75 
	L 622.938 449.75 
	L 622.938 557.75 
	Z 
	"/>
</g>
<g fill="#7f7f7f" fill-rule="nonzero" stroke-width="0" stroke-linejoin="miter" stroke-linecap="butt" stroke-miterlimit="4" >
	<path d="
	M 404.402 464.148 
	L 404.402 557.75 
	L 388.82 557.75 
	L 388.82 464.148 
	L 369.059 464.148 
	L 369.059 449.75 
	L 424.164 449.75 
	L 424.164 464.148 
	Z 
	"/>
</g>
<g fill="#7f7f7f" fill-rule="nonzero" stroke-width="0" stroke-linejoin="miter" stroke-linecap="butt" stroke-miterlimit="4" >
	<path d="
	M 306.203 557.75 
	L 292.895 557.75 
	L 282.629 501.289 
	L 272.363 557.75 
	L 258.676 557.75 
	L 241.563 449.75 
	L 256.773 449.75 
	L 265.898 507.352 
	L 276.547 449.75 
	L 288.715 449.75 
	L 298.98 507.352 
	L 308.488 449.75 
	L 323.695 449.75 
	Z 
	"/>
</g>
<g fill="#7f7f7f" fill-rule="nonzero" stroke-width="0" stroke-linejoin="miter" stroke-linecap="butt" stroke-miterlimit="4" >
	<path d="
	M 594.477 643.961 
	L 586.879 675.039 
	L 602.453 675.039 
	Z 
	M 613.855 719.75 
	L 606.258 690.191 
	L 583.078 690.191 
	L 575.859 719.75 
	L 560.281 719.75 
	L 587.258 611.75 
	L 602.453 611.75 
	L 629.434 719.75 
	Z 
	"/>
</g>
<g fill="#7f7f7f" fill-rule="nonzero" stroke-width="0" stroke-linejoin="miter" stroke-linecap="butt" stroke-miterlimit="4" >
	<path d="
	M 134.117 640.551 
	C 132.598 629.941 128.41 625.012 121.18 625.012 
	C 108.621 625.012 104.059 634.871 104.059 662.91 
	C 104.059 693.98 109.383 706.488 122.703 706.488 
	C 131.836 706.488 134.117 698.91 134.117 690.949 
	L 149.723 690.949 
	C 149.34 708.762 137.926 721.648 122.703 721.648 
	C 99.4883 721.648 89.2148 703.082 89.2148 663.289 
	C 89.2148 628.422 100.25 609.859 121.563 609.859 
	C 130.313 609.859 137.926 613.641 142.871 620.852 
	C 147.059 626.148 148.578 630.699 149.723 640.551 
	Z 
	"/>
</g>
<g fill="#7f7f7f" fill-rule="nonzero" stroke-width="0" stroke-linejoin="miter" stroke-linecap="butt" stroke-miterlimit="4" >
	<path d="
	M 759.023 719.75 
	L 740.113 667.082 
	L 730.281 685.27 
	L 730.281 719.75 
	L 714.777 719.75 
	L 714.777 611.75 
	L 730.281 611.75 
	L 730.281 654.949 
	L 754.863 611.75 
	L 772.641 611.75 
	L 750.324 649.648 
	L 775.285 719.75 
	Z 
	"/>
</g>
<g fill="#7f7f7f" fill-rule="nonzero" stroke-width="0" stroke-linejoin="miter" stroke-linecap="butt" stroke-miterlimit="4" >
	<path d="
	M 644.551 719.75 
	L 644.551 611.75 
	L 660.133 611.75 
	L 660.133 705.352 
	L 699.656 705.352 
	L 699.656 719.75 
	Z 
	"/>
</g>
<g fill="#7f7f7f" fill-rule="nonzero" stroke-width="0" stroke-linejoin="miter" stroke-linecap="butt" stroke-miterlimit="4" >
	<path d="
	M 293.453 638.66 
	C 290.781 629.18 286.582 625.012 280.094 625.012 
	C 273.223 625.012 269.023 629.18 266.352 638.281 
	C 263.68 646.609 262.918 653.809 262.918 665.941 
	C 262.918 677.691 264.063 684.512 266.352 693.219 
	C 269.023 702.32 273.223 706.488 280.094 706.488 
	C 286.582 706.488 290.781 702.32 293.453 693.219 
	C 296.125 684.512 296.891 678.07 296.891 665.559 
	C 296.891 653.43 295.742 646.609 293.453 638.66 
	Z 
	M 305.668 703.082 
	C 300.324 715.961 292.309 721.648 280.094 721.648 
	C 267.113 721.648 259.48 715.961 254.137 703.082 
	C 249.555 692.469 248.031 682.23 248.031 665.559 
	C 248.031 649.27 249.555 638.281 254.137 628.039 
	C 259.863 615.16 267.496 609.859 280.094 609.859 
	C 292.691 609.859 300.324 615.16 305.668 628.422 
	C 310.25 639.031 311.777 649.27 311.777 665.559 
	C 311.777 682.23 310.25 692.84 305.668 703.082 
	Z 
	"/>
</g>
<g fill="#7f7f7f" fill-rule="nonzero" stroke-width="0" stroke-linejoin="miter" stroke-linecap="butt" stroke-miterlimit="4" >
	<path d="
	M 202.711 626.91 
	L 186.828 626.91 
	L 186.828 654.191 
	L 202.711 654.191 
	C 211.785 654.191 216.703 649.27 216.703 640.551 
	C 216.703 632.211 211.031 626.91 202.711 626.91 
	Z 
	M 215.945 719.75 
	L 201.574 668.969 
	L 186.828 668.969 
	L 186.828 719.75 
	L 171.32 719.75 
	L 171.32 611.75 
	L 203.465 611.75 
	C 220.484 611.75 231.828 623.121 231.828 640.551 
	C 231.828 653.43 226.535 662.91 216.324 666.699 
	L 231.828 719.75 
	Z 
	"/>
</g>
<g fill="#7f7f7f" fill-rule="nonzero" stroke-width="0" stroke-linejoin="miter" stroke-linecap="butt" stroke-miterlimit="4" >
	<path d="
	M 358.727 669.871 
	C 354.055 666.852 349.52 663.809 346.621 661.77 
	C 337.914 655.641 333.305 647.371 333.305 637.898 
	C 333.305 622.359 345.48 609.859 361.082 609.859 
	C 376.305 609.859 388.102 621.602 388.48 637.898 
	L 373.641 637.898 
	C 373.262 630.32 367.934 625.391 361.082 625.391 
	C 353.852 625.391 348.145 630.699 348.145 637.898 
	C 348.145 643.199 350.426 646.23 358.418 650.781 
	C 379.348 662.91 388.48 674.66 388.48 690.191 
	C 388.48 707.621 375.164 721.641 358.418 721.641 
	C 339.391 721.641 327.977 705.73 327.977 687.922 
	L 343.195 687.922 
	C 343.195 697.012 347.766 706.488 358.418 706.488 
	C 366.789 706.488 373.641 698.91 373.641 690.191 
	C 373.641 683.422 370.844 677.719 358.727 669.871 
	Z 
	"/>
</g>
<g fill="#7f7f7f" fill-rule="nonzero" stroke-width="0" stroke-linejoin="miter" stroke-linecap="butt" stroke-miterlimit="4" >
	<path d="
	M 432.195 669.871 
	C 427.523 666.852 422.984 663.809 420.09 661.77 
	C 411.383 655.641 406.77 647.371 406.77 637.898 
	C 406.77 622.359 418.945 609.859 434.551 609.859 
	C 449.77 609.859 461.566 621.602 461.949 637.898 
	L 447.105 637.898 
	C 446.727 630.32 441.398 625.391 434.551 625.391 
	C 427.32 625.391 421.609 630.699 421.609 637.898 
	C 421.609 643.199 423.895 646.23 431.887 650.781 
	C 452.816 662.91 461.949 674.66 461.949 690.191 
	C 461.949 707.621 448.629 721.641 431.887 721.641 
	C 412.859 721.641 401.441 705.73 401.441 687.922 
	L 416.664 687.922 
	C 416.664 697.012 421.23 706.488 431.887 706.488 
	C 440.258 706.488 447.105 698.91 447.105 690.191 
	C 447.105 683.422 444.313 677.719 432.195 669.871 
	Z 
	"/>
</g>
<g fill="#7f7f7f" fill-rule="nonzero" stroke-width="0" stroke-linejoin="miter" stroke-linecap="butt" stroke-miterlimit="4" >
	<path d="
	M 536.313 719.75 
	L 523.004 719.75 
	L 512.734 663.289 
	L 502.469 719.75 
	L 488.781 719.75 
	L 471.672 611.75 
	L 486.879 611.75 
	L 496.008 669.352 
	L 506.652 611.75 
	L 518.82 611.75 
	L 529.09 669.352 
	L 538.594 611.75 
	L 553.805 611.75 
	Z 
	"/>
</g>
<g fill="#7f7f7f" fill-rule="nonzero" stroke-width="0" stroke-linejoin="miter" stroke-linecap="butt" stroke-miterlimit="4" >
	<path d="
	M 438.938 -516.38 
	C 435.52 -522.06 431.34 -524.33 424.883 -524.71 
	C 416.527 -525.09 411.207 -520.92 407.41 -511.45 
	C 404.75 -505.01 403.23 -495.16 403.23 -486.06 
	C 403.23 -474.69 405.508 -462.94 409.688 -456.12 
	C 413.109 -450.44 417.664 -447.79 424.504 -447.79 
	C 432.48 -447.79 437.418 -451.96 441.219 -461.43 
	C 443.496 -467.11 445.398 -477.72 445.398 -486.06 
	C 445.398 -498.19 443.117 -509.18 438.938 -516.38 
	Z 
	M 450.715 -442.48 
	C 444.637 -434.14 435.898 -430.35 424.504 -430.35 
	C 409.309 -430.35 399.813 -436.42 393.355 -449.68 
	C 388.797 -458.78 385.758 -473.18 385.758 -486.06 
	C 385.758 -503.87 390.316 -519.79 397.531 -530.02 
	C 403.992 -538.36 412.727 -542.14 425.262 -542.14 
	C 438.938 -542.14 448.434 -536.08 455.273 -522.82 
	C 459.832 -513.34 462.492 -499.7 462.492 -486.06 
	C 462.492 -469.01 458.313 -451.96 450.715 -442.48 
	Z 
	"/>
</g>
<g fill="#7f7f7f" fill-rule="nonzero" stroke-width="0" stroke-linejoin="miter" stroke-linecap="butt" stroke-miterlimit="4" >
	<path d="
	M 533.621 -521.3 
	C 530.969 -522.82 529.453 -523.2 523.766 -523.2 
	L 503.301 -523.2 
	L 503.301 -496.67 
	L 523.766 -496.67 
	C 529.074 -496.67 530.969 -497.05 533.621 -498.57 
	C 537.789 -500.84 540.441 -505.39 540.441 -509.93 
	C 540.441 -514.48 537.789 -519.03 533.621 -521.3 
	Z 
	M 541.199 -432.25 
	L 523.766 -479.24 
	L 503.301 -479.24 
	L 503.301 -432.25 
	L 486.25 -432.25 
	L 486.25 -540.25 
	L 521.871 -540.25 
	C 530.211 -540.25 535.895 -539.49 541.199 -536.84 
	C 550.676 -532.29 557.496 -520.92 557.496 -509.93 
	C 557.496 -498.57 550.676 -487.2 540.82 -482.65 
	L 559.77 -432.25 
	Z 
	"/>
</g>
<g fill="#7f7f7f" fill-rule="nonzero" stroke-width="0" stroke-linejoin="miter" stroke-linecap="butt" stroke-miterlimit="4" >
	<path d="
	M 321.762 -523.2 
	L 321.762 -496.67 
	L 353.172 -496.67 
	L 353.172 -479.24 
	L 321.762 -479.24 
	L 321.762 -432.25 
	L 304.73 -432.25 
	L 304.73 -540.25 
	L 371.715 -540.25 
	L 371.715 -523.2 
	Z 
	"/>
</g>
<g fill="#7f88e1" fill-rule="evenodd" stroke-width="0" stroke-linejoin="miter" stroke-linecap="butt" stroke-miterlimit="4" >
	<path d="
	M 153.25 -1024.84 
	L 316.715 -1188.25 
	L 547.551 -1188.25 
	L 711.25 -1024.84 
	L 711.25 -793.66 
	L 547.551 -630.25 
	L 316.715 -630.25 
	L 153.25 -793.66 
	L 153.25 -1024.84 
	"/>
</g>
<g fill="#ffffff" fill-rule="nonzero" stroke-width="0" stroke-linejoin="miter" stroke-linecap="butt" stroke-miterlimit="4" >
	<path d="
	M 230.461 -808.05 
	C 196.188 -808.05 175.625 -836.84 175.625 -869.05 
	L 203.043 -869.05 
	C 203.043 -852.61 211.266 -835.47 230.461 -835.47 
	C 245.539 -835.47 257.879 -849.18 257.879 -864.94 
	C 257.879 -875.91 253.766 -884.13 242.113 -893.04 
	C 238 -897.16 248.965 -889.62 209.211 -916.35 
	C 193.445 -927.32 185.219 -942.4 185.219 -959.53 
	C 185.219 -987.64 207.152 -1010.26 235.258 -1010.26 
	C 262.676 -1010.26 283.926 -989.01 284.609 -959.53 
	L 257.879 -959.53 
	C 257.191 -973.24 247.598 -982.15 235.258 -982.15 
	C 222.234 -982.15 211.953 -972.55 211.953 -959.53 
	C 211.953 -949.94 216.066 -944.45 230.461 -936.23 
	C 268.16 -914.29 284.609 -893.04 284.609 -864.94 
	C 284.609 -833.41 260.617 -808.05 230.461 -808.05 
	Z 
	"/>
</g>
<g fill="#ffffff" fill-rule="nonzero" stroke-width="0" stroke-linejoin="miter" stroke-linecap="butt" stroke-miterlimit="4" >
	<path d="
	M 366.172 -980.78 
	L 366.172 -811.48 
	L 338.07 -811.48 
	L 338.07 -980.78 
	L 302.43 -980.78 
	L 302.43 -1006.83 
	L 401.816 -1006.83 
	L 401.816 -980.78 
	Z 
	"/>
</g>
<g fill="#ffffff" fill-rule="nonzero" stroke-width="0" stroke-linejoin="miter" stroke-linecap="butt" stroke-miterlimit="4" >
	<path d="
	M 506.684 -958.16 
	C 501.883 -975.3 494.344 -982.84 482.691 -982.84 
	C 470.355 -982.84 462.813 -975.3 458.016 -958.85 
	C 453.219 -943.77 451.848 -930.75 451.848 -908.81 
	C 451.848 -887.56 453.902 -875.22 458.016 -859.46 
	C 462.813 -843.01 470.355 -835.47 482.691 -835.47 
	C 494.344 -835.47 501.883 -843.01 506.684 -859.46 
	C 511.48 -875.22 512.852 -886.88 512.852 -909.5 
	C 512.852 -931.43 510.793 -943.77 506.684 -958.16 
	Z 
	M 528.613 -841.64 
	C 519.02 -818.33 504.625 -808.05 482.691 -808.05 
	C 459.387 -808.05 445.676 -818.33 436.082 -841.64 
	C 427.855 -860.83 425.113 -879.34 425.113 -909.5 
	C 425.113 -938.97 427.855 -958.85 436.082 -977.36 
	C 446.363 -1000.66 460.07 -1010.26 482.691 -1010.26 
	C 505.313 -1010.26 519.02 -1000.66 528.613 -976.67 
	C 536.844 -957.48 539.586 -938.97 539.586 -909.5 
	C 539.586 -879.34 536.844 -860.14 528.613 -841.64 
	Z 
	"/>
</g>
<g fill="#ffffff" fill-rule="nonzero" stroke-width="0" stroke-linejoin="miter" stroke-linecap="butt" stroke-miterlimit="4" >
	<path d="
	M 635.543 -979.41 
	L 606.754 -979.41 
	L 606.754 -923.89 
	L 635.543 -923.89 
	C 651.992 -923.89 660.902 -934.17 660.902 -951.99 
	C 660.902 -968.45 650.621 -979.41 635.543 -979.41 
	Z 
	M 636.914 -897.16 
	L 606.754 -897.16 
	L 606.754 -811.48 
	L 578.648 -811.48 
	L 578.648 -1006.83 
	L 636.914 -1006.83 
	C 667.758 -1006.83 688.32 -984.89 688.32 -951.99 
	C 688.32 -916.35 669.813 -897.16 636.914 -897.16 
	Z 
	"/>
</g>
</g >
</g>
</svg>
