<?xml version="1.0" encoding="UTF-8" standalone="no"?>
<!-- Created with Inkscape (http://www.inkscape.org/) -->

<svg
   version="1.1"
   id="svg1"
   width="8640.667"
   height="2304.6667"
   viewBox="0 0 8640.667 2304.6667"
   sodipodi:docname="tmpm45p238c.pdf"
   xmlns:inkscape="http://www.inkscape.org/namespaces/inkscape"
   xmlns:sodipodi="http://sodipodi.sourceforge.net/DTD/sodipodi-0.dtd"
   xmlns="http://www.w3.org/2000/svg"
   xmlns:svg="http://www.w3.org/2000/svg">
  <defs
     id="defs1" />
  <sodipodi:namedview
     id="namedview1"
     pagecolor="#ffffff"
     bordercolor="#000000"
     borderopacity="0.25"
     inkscape:showpageshadow="2"
     inkscape:pageopacity="0.0"
     inkscape:pagecheckerboard="0"
     inkscape:deskcolor="#d1d1d1">
    <inkscape:page
       x="0"
       y="0"
       inkscape:label="1"
       id="page1"
       width="8640.667"
       height="2304.6667"
       margin="0"
       bleed="0" />
  </sodipodi:namedview>
  <g
     id="g1"
     inkscape:groupmode="layer"
     inkscape:label="1">
    <g
       id="group-R5">
      <path
         id="path2"
         d="m 2.5,10352.5 v -9000 C 2.5,606.898 606.914,2.5 1352.5,2.5 h 62100 c 745.6,0 1350,604.398 1350,1350 v 9000"
         style="fill:#ffffff;fill-opacity:1;fill-rule:nonzero;stroke:#231f20;stroke-width:5;stroke-linecap:butt;stroke-linejoin:miter;stroke-miterlimit:4;stroke-dasharray:none;stroke-opacity:1"
         transform="matrix(0.13333333,0,0,-0.13333333,0,2304.6667)" />
      <path
         id="path3"
         d="m 64802.5,10352.5 v 5580 c 0,745.6 -604.4,1350 -1350,1350 h -62100 c -745.586,0 -1350,-604.4 -1350,-1350 v -5580"
         style="fill:#fccc2d;fill-opacity:1;fill-rule:nonzero;stroke:#231f20;stroke-width:5;stroke-linecap:butt;stroke-linejoin:miter;stroke-miterlimit:4;stroke-dasharray:none;stroke-opacity:1"
         transform="matrix(0.13333333,0,0,-0.13333333,0,2304.6667)" />
      <path
         id="path4"
         d="m 63452.5,902.5 h -62100 c -248.13,0 -450,201.9 -450,450 v 8730 h 63000 v -8730 c 0,-248.1 -201.9,-450 -450,-450 z m -62100,15480 h 62100 c 248.1,0 450,-201.9 450,-450 v -5310 H 902.5 v 5310 c 0,248.1 201.87,450 450,450 z m 62100,540 h -62100 c -545.891,0 -990,-444.1 -990,-990 v -14580 c 0,-545.898 444.109,-990 990,-990 h 62100 c 545.9,0 990,444.102 990,990 v 14580 c 0,545.9 -444.1,990 -990,990"
         style="fill:#231f20;fill-opacity:1;fill-rule:nonzero;stroke:none"
         transform="matrix(0.13333333,0,0,-0.13333333,0,2304.6667)" />
      <path
         id="path5"
         d="m 35658,12062.5 v 2880 h 454.1 v -2455.6 h 1332.2 v -424.4 H 35658"
         style="fill:#231f20;fill-opacity:1;fill-rule:nonzero;stroke:none"
         transform="matrix(0.13333333,0,0,-0.13333333,0,2304.6667)" />
      <path
         id="path6"
         d="m 25308.4,14538.3 v -2475.8 h -456.7 v 2475.8 H 24192 v 404.2 h 1786.3 v -404.2 h -669.9"
         style="fill:#231f20;fill-opacity:1;fill-rule:nonzero;stroke:none"
         transform="matrix(0.13333333,0,0,-0.13333333,0,2304.6667)" />
      <path
         id="path7"
         d="m 29889.8,14538.3 v -2475.8 h -456.7 v 2475.8 h -659.8 v 404.2 h 1786.4 v -404.2 h -669.9"
         style="fill:#231f20;fill-opacity:1;fill-rule:nonzero;stroke:none"
         transform="matrix(0.13333333,0,0,-0.13333333,0,2304.6667)" />
      <path
         id="path8"
         d="m 42378.2,12062.5 h -405.5 l -456.1,1849.3 -446.1,-1849.3 h -405.4 l -425.8,2880 h 466.3 l 223,-1515.8 364.9,1515.8 h 446.1 l 375,-1515.8 223.1,1515.8 h 466.3 l -425.8,-2880"
         style="fill:#231f20;fill-opacity:1;fill-rule:nonzero;stroke:none"
         transform="matrix(0.13333333,0,0,-0.13333333,0,2304.6667)" />
      <path
         id="path9"
         d="m 23678.6,12234.3 c -161.7,-141.5 -384,-222.3 -626.5,-222.3 -495.2,0 -859,293 -1051.1,727.6 l 434.6,161.6 c 121.3,-272.8 343.6,-424.4 616.5,-424.4 262.7,0 444.6,181.9 444.6,424.4 0,384 -444.6,444.7 -818.6,596.2 -171.8,70.8 -555.8,242.6 -555.8,717.5 0,565.9 384,778.1 899.5,778.1 404.2,0 677,-232.4 818.5,-586.1 l -404.2,-121.2 c 0,0 -101.1,242.5 -424.5,252.6 -212.2,10.1 -464.8,-70.7 -444.6,-333.5 40.4,-535.6 1394.6,-181.9 1394.6,-1313.7 0,-262.7 -101.1,-495.1 -283,-656.8"
         style="fill:#231f20;fill-opacity:1;fill-rule:nonzero;stroke:none"
         transform="matrix(0.13333333,0,0,-0.13333333,0,2304.6667)" />
      <path
         id="path10"
         d="m 30991.6,12062.5 v 2880 h 1695.5 v -454.7 h -1241.3 v -707.4 h 837.7 v -464.8 h -837.7 v -788.3 H 32778 v -464.8 h -1786.4"
         style="fill:#231f20;fill-opacity:1;fill-rule:nonzero;stroke:none"
         transform="matrix(0.13333333,0,0,-0.13333333,0,2304.6667)" />
      <path
         id="path11"
         d="m 27380.9,14144.2 -294.7,-808.4 h 579.3 z m 731.8,-2081.7 -284.6,808.4 h -904.6 l -284.5,-808.4 h -487.9 l 996,2880 h 457.4 l 996,-2880 h -487.8"
         style="fill:#231f20;fill-opacity:1;fill-rule:nonzero;stroke:none"
         transform="matrix(0.13333333,0,0,-0.13333333,0,2304.6667)" />
      <path
         id="path12"
         d="m 38846.9,14144.2 -294.8,-808.4 h 579.4 z m 731.8,-2081.7 -284.6,808.4 h -904.6 l -284.6,-808.4 h -487.8 l 996,2880 h 457.4 l 996,-2880 h -487.8"
         style="fill:#231f20;fill-opacity:1;fill-rule:nonzero;stroke:none"
         transform="matrix(0.13333333,0,0,-0.13333333,0,2304.6667)" />
      <path
         id="path13"
         d="M 51980.7,4052.5 50879.2,6002.8 V 4052.5 h -454.8 v 2880 h 454.8 l 1051,-1839.2 v 1839.2 h 454.8 v -2880 h -404.3"
         style="fill:#231f20;fill-opacity:1;fill-rule:nonzero;stroke:none"
         transform="matrix(0.13333333,0,0,-0.13333333,0,2304.6667)" />
      <path
         id="path14"
         d="m 26945.8,6295.9 c -91.2,151.6 -202.6,212.2 -374.8,222.3 -222.9,10.1 -364.7,-101.1 -466,-353.7 -70.9,-171.8 -111.4,-434.5 -111.4,-677 0,-303.2 60.7,-616.5 172.2,-798.4 91.2,-151.5 212.7,-222.3 395,-222.3 212.8,0 344.5,111.2 445.8,363.8 60.8,151.6 111.4,434.5 111.4,656.9 0,323.3 -60.8,616.4 -172.2,808.4 z m 314,-1970.5 c -162.1,-222.4 -395.1,-323.4 -699,-323.4 -405.1,0 -658.4,161.7 -830.6,515.3 -121.6,242.6 -202.6,626.6 -202.6,970.2 0,474.9 121.6,899.3 314,1172.2 172.2,222.3 405.2,323.3 739.5,323.3 364.7,0 617.9,-161.7 800.3,-515.3 121.5,-252.7 192.4,-616.5 192.4,-980.2 0,-454.8 -111.4,-909.5 -314,-1162.1"
         style="fill:#231f20;fill-opacity:1;fill-rule:nonzero;stroke:none"
         transform="matrix(0.13333333,0,0,-0.13333333,0,2304.6667)" />
      <path
         id="path15"
         d="m 12880.1,4052.5 v 2880 h 460.8 v -2880 h -460.8"
         style="fill:#231f20;fill-opacity:1;fill-rule:nonzero;stroke:none"
         transform="matrix(0.13333333,0,0,-0.13333333,0,2304.6667)" />
      <path
         id="path16"
         d="m 46650.2,4052.5 v 2880 h 460.8 v -2880 h -460.8"
         style="fill:#231f20;fill-opacity:1;fill-rule:nonzero;stroke:none"
         transform="matrix(0.13333333,0,0,-0.13333333,0,2304.6667)" />
      <path
         id="path17"
         d="m 31777.7,6427.3 c -80.8,40.4 -131.4,50.5 -272.9,50.5 h -596.2 v -707.4 h 596.2 c 141.5,0 192.1,10.1 272.9,50.5 101.1,50.6 171.8,181.9 171.8,303.2 0,121.3 -70.7,242.5 -171.8,303.2 z m 192,-1020.7 c -131.4,-60.6 -303.2,-101 -525.5,-101 h -535.6 V 4052.5 h -454.8 v 2880 h 990.4 c 232.4,0 384,-20.2 525.5,-90.9 252.7,-121.3 444.7,-424.5 444.7,-717.5 0,-303.2 -192,-606.3 -444.7,-717.5"
         style="fill:#231f20;fill-opacity:1;fill-rule:nonzero;stroke:none"
         transform="matrix(0.13333333,0,0,-0.13333333,0,2304.6667)" />
      <path
         id="path18"
         d="m 16308,4052.5 v 2880 h 454.1 V 4476.9 h 1332.2 V 4052.5 H 16308"
         style="fill:#231f20;fill-opacity:1;fill-rule:nonzero;stroke:none"
         transform="matrix(0.13333333,0,0,-0.13333333,0,2304.6667)" />
      <path
         id="path19"
         d="M 24483.3,6528.3 V 4052.5 h -456.7 v 2475.8 h -659.7 v 404.2 h 1786.3 v -404.2 h -669.9"
         style="fill:#231f20;fill-opacity:1;fill-rule:nonzero;stroke:none"
         transform="matrix(0.13333333,0,0,-0.13333333,0,2304.6667)" />
      <path
         id="path20"
         d="M 43098.1,6528.3 V 4052.5 h -456.7 v 2475.8 h -659.7 v 404.2 H 43768 v -404.2 h -669.9"
         style="fill:#231f20;fill-opacity:1;fill-rule:nonzero;stroke:none"
         transform="matrix(0.13333333,0,0,-0.13333333,0,2304.6667)" />
      <path
         id="path21"
         d="m 45463.2,6427.2 c -70.7,40.5 -111.1,50.6 -262.7,50.6 h -545.7 v -707.4 h 545.7 c 141.5,0 192,10.1 262.7,50.5 111.2,60.6 182,181.9 182,303.2 0,121.2 -70.8,242.5 -182,303.1 z m 202.2,-2374.7 -464.9,1253.1 h -545.7 V 4052.5 H 44200 v 2880 h 950 c 222.3,0 373.9,-20.2 515.4,-91 252.6,-121.2 434.5,-424.4 434.5,-717.4 0,-303.2 -181.9,-606.3 -444.6,-727.6 l 505.3,-1344 h -495.2"
         style="fill:#231f20;fill-opacity:1;fill-rule:nonzero;stroke:none"
         transform="matrix(0.13333333,0,0,-0.13333333,0,2304.6667)" />
      <path
         id="path22"
         d="m 54552.2,4224.3 c -161.7,-141.5 -384,-222.3 -626.6,-222.3 -495.2,0 -859,293 -1051,727.6 l 434.6,161.6 c 121.2,-272.8 343.6,-424.4 616.4,-424.4 262.8,0 444.7,181.9 444.7,424.4 0,384 -444.7,444.7 -818.6,596.2 -171.8,70.8 -555.8,242.6 -555.8,717.5 0,565.9 384,778.1 899.4,778.1 404.2,0 677.1,-232.4 818.6,-586.1 l -404.3,-121.2 c 0,0 -101,242.5 -424.4,252.6 -212.2,10.1 -464.9,-70.7 -444.7,-333.5 40.5,-535.6 1394.7,-181.9 1394.7,-1313.7 0,-262.7 -101.1,-495.1 -283,-656.8"
         style="fill:#231f20;fill-opacity:1;fill-rule:nonzero;stroke:none"
         transform="matrix(0.13333333,0,0,-0.13333333,0,2304.6667)" />
      <path
         id="path23"
         d="m 41468.3,4224.3 c -161.6,-141.5 -384,-222.3 -626.5,-222.3 -495.2,0 -859,293 -1051,727.6 l 434.5,161.6 c 121.3,-272.8 343.6,-424.4 616.5,-424.4 262.7,0 444.6,181.9 444.6,424.4 0,384 -444.6,444.7 -818.5,596.2 -171.8,70.8 -555.9,242.6 -555.9,717.5 0,565.9 384.1,778.1 899.5,778.1 404.2,0 677.1,-232.4 818.5,-586.1 l -404.2,-121.2 c 0,0 -101.1,242.5 -424.5,252.6 -212.2,10.1 -464.8,-70.7 -444.6,-333.5 40.4,-535.6 1394.6,-181.9 1394.6,-1313.7 0,-262.7 -101,-495.1 -283,-656.8"
         style="fill:#231f20;fill-opacity:1;fill-rule:nonzero;stroke:none"
         transform="matrix(0.13333333,0,0,-0.13333333,0,2304.6667)" />
      <path
         id="path24"
         d="M 11442.6,5305.6 V 4052.5 h -457.1 V 5305.6 L 9969.84,6932.5 h 548.46 l 690.7,-1111.6 700.8,1111.6 h 538.3 L 11442.6,5305.6"
         style="fill:#231f20;fill-opacity:1;fill-rule:nonzero;stroke:none"
         transform="matrix(0.13333333,0,0,-0.13333333,0,2304.6667)" />
      <path
         id="path25"
         d="m 19789.6,6356.5 c -70.8,70.7 -171.8,121.3 -293.1,121.3 h -515.4 V 4517.3 h 454.8 c 151.6,0 242.5,30.4 323.3,111.2 171.9,171.8 262.8,485.1 262.8,869.1 0,384 -90.9,707.3 -232.4,858.9 z m 192,-2142.3 c -111.2,-101.1 -262.8,-151.6 -414.4,-161.7 -30.3,0 -90.9,0 -161.7,0 h -879.2 v 2880 h 929.8 c 293,0 404.2,-30.3 555.8,-151.6 303.2,-262.7 475,-717.5 475,-1283.3 0,-576 -181.9,-1030.8 -505.3,-1283.4"
         style="fill:#231f20;fill-opacity:1;fill-rule:nonzero;stroke:none"
         transform="matrix(0.13333333,0,0,-0.13333333,0,2304.6667)" />
      <path
         id="path26"
         d="m 36385.5,6356.5 c -70.7,70.7 -171.8,121.3 -293.1,121.3 H 35577 V 4517.3 h 454.8 c 151.6,0 242.6,30.4 323.4,111.2 171.8,171.8 262.7,485.1 262.7,869.1 0,384 -90.9,707.3 -232.4,858.9 z m 192,-2142.3 c -111.1,-101.1 -262.7,-151.6 -414.3,-161.7 -30.3,0 -91,0 -161.7,0 h -879.2 v 2880 h 929.7 c 293.1,0 404.3,-30.3 555.9,-151.6 303.1,-262.7 474.9,-717.5 474.9,-1283.3 0,-576 -181.9,-1030.8 -505.3,-1283.4"
         style="fill:#231f20;fill-opacity:1;fill-rule:nonzero;stroke:none"
         transform="matrix(0.13333333,0,0,-0.13333333,0,2304.6667)" />
      <path
         id="path27"
         d="m 14032.1,4052.5 v 2880 h 1695.5 v -454.7 h -1241.4 v -707.4 h 837.7 v -464.9 h -837.7 v -788.2 h 1332.2 v -464.8 h -1786.3"
         style="fill:#231f20;fill-opacity:1;fill-rule:nonzero;stroke:none"
         transform="matrix(0.13333333,0,0,-0.13333333,0,2304.6667)" />
      <path
         id="path28"
         d="m 32846.3,4052.5 v 2880 h 1695.5 v -454.7 h -1241.3 v -707.4 h 837.7 v -464.9 h -837.7 v -788.2 h 1332.2 v -464.8 h -1786.4"
         style="fill:#231f20;fill-opacity:1;fill-rule:nonzero;stroke:none"
         transform="matrix(0.13333333,0,0,-0.13333333,0,2304.6667)" />
      <path
         id="path29"
         d="m 37716.4,4052.5 v 2880 h 1695.5 v -454.7 h -1241.3 v -707.4 h 837.6 v -464.9 h -837.6 v -788.2 h 1332.2 v -464.8 h -1786.4"
         style="fill:#231f20;fill-opacity:1;fill-rule:nonzero;stroke:none"
         transform="matrix(0.13333333,0,0,-0.13333333,0,2304.6667)" />
      <path
         id="path30"
         d="M 48772.8,6134.2 48478,5325.8 h 579.3 z m 731.8,-2081.7 -284.6,808.4 h -904.6 l -284.6,-808.4 H 47543 l 996,2880 h 457.4 l 996,-2880 h -487.8"
         style="fill:#231f20;fill-opacity:1;fill-rule:nonzero;stroke:none"
         transform="matrix(0.13333333,0,0,-0.13333333,0,2304.6667)" />
      <path
         id="path31"
         d="m 4158.59,8372.5 c 232.14,0 421.48,-189.34 421.48,-421.46 0,-232.15 -189.34,-421.47 -421.48,-421.47 -232.13,0 -421.45,189.32 -421.45,421.47 0,232.12 189.32,421.46 421.45,421.46"
         style="fill:#231f20;fill-opacity:1;fill-rule:evenodd;stroke:none"
         transform="matrix(0.13333333,0,0,-0.13333333,0,2304.6667)" />
      <path
         id="path32"
         d="m 2882.5,5714.9 884.11,589.4 c 40.86,172.8 210.38,939.7 550.46,1117.15 C 4653.91,7644.18 5895.85,6729.3 5903,6721.8 V 5387.1 l -269.29,46.9 -105.36,1065.3 c -101.47,20.4 -202.92,40.8 -304.39,61.2 221.71,-573.1 303.14,-1125.6 175.62,-1489.5 l 538.53,-2201 -362.94,-257.5 -784.38,2037.1 -362.92,-386.4 -503.42,-1533.6 -479.99,175.6 433.16,1615.6 503.42,901.4 -192.97,665.3 -205.09,-267.2 -959.99,-316.1 -140.49,210.7"
         style="fill:#231f20;fill-opacity:1;fill-rule:evenodd;stroke:none"
         transform="matrix(0.13333333,0,0,-0.13333333,0,2304.6667)" />
      <path
         id="path33"
         d="m 60143,8372.5 c 232.1,0 421.5,-189.34 421.5,-421.46 0,-232.15 -189.4,-421.47 -421.5,-421.47 -232.1,0 -421.5,189.32 -421.5,421.47 0,232.12 189.4,421.46 421.5,421.46"
         style="fill:#231f20;fill-opacity:1;fill-rule:evenodd;stroke:none"
         transform="matrix(0.13333333,0,0,-0.13333333,0,2304.6667)" />
      <path
         id="path34"
         d="m 58866.9,5714.9 884.1,589.4 c 40.9,172.8 210.4,939.7 550.5,1117.15 336.8,222.73 1578.7,-692.15 1585.9,-699.65 V 5387.1 l -269.3,46.9 -105.4,1065.3 c -101.4,20.4 -202.9,40.8 -304.4,61.2 221.8,-573.1 303.2,-1125.6 175.7,-1489.5 l 538.5,-2201 -362.9,-257.5 -784.4,2037.1 -362.9,-386.4 -503.5,-1533.6 -479.9,175.6 433.1,1615.6 503.4,901.4 -192.9,665.3 -205.1,-267.2 -960,-316.1 -140.5,210.7"
         style="fill:#231f20;fill-opacity:1;fill-rule:evenodd;stroke:none"
         transform="matrix(0.13333333,0,0,-0.13333333,0,2304.6667)" />
    </g>
  </g>
</svg>
