<?xml version="1.0" encoding="UTF-8" standalone="no"?>
<!-- Created with Inkscape (http://www.inkscape.org/) -->

<svg
   version="1.1"
   id="svg1"
   width="3456.6667"
   height="3456.6667"
   viewBox="0 0 3456.6667 3456.6667"
   sodipodi:docname="tmp2agd3rcd.pdf"
   xmlns:inkscape="http://www.inkscape.org/namespaces/inkscape"
   xmlns:sodipodi="http://sodipodi.sourceforge.net/DTD/sodipodi-0.dtd"
   xmlns="http://www.w3.org/2000/svg"
   xmlns:svg="http://www.w3.org/2000/svg">
  <defs
     id="defs1" />
  <sodipodi:namedview
     id="namedview1"
     pagecolor="#ffffff"
     bordercolor="#000000"
     borderopacity="0.25"
     inkscape:showpageshadow="2"
     inkscape:pageopacity="0.0"
     inkscape:pagecheckerboard="0"
     inkscape:deskcolor="#d1d1d1">
    <inkscape:page
       x="0"
       y="0"
       inkscape:label="1"
       id="page1"
       width="3456.6667"
       height="3456.6667"
       margin="0"
       bleed="0" />
  </sodipodi:namedview>
  <g
     id="g1"
     inkscape:groupmode="layer"
     inkscape:label="1">
    <g
       id="group-R5">
      <path
         id="path2"
         d="M 1622.51,1.20313 C 728.566,1.20313 1.26953,728.5 1.25,1622.5 l 0.01953,22680 c 0,894 727.28947,1621.3 1621.25047,1621.3 H 24302.5 c 894,0 1621.3,-727.3 1621.3,-1621.3 V 1622.5 C 25923.8,728.5 25196.5,1.20313 24302.5,1.20313 H 1622.51"
         style="fill:#ffffff;fill-opacity:1;fill-rule:nonzero;stroke:none"
         transform="matrix(0.13333333,0,0,-0.13333333,0,3456.6667)" />
      <path
         id="path3"
         d="M 24302.5,25925 H 1622.52 c -433.38,0 -840.829,-168.8 -1147.282,-475.2 C 168.789,25143.3 0.0195313,24735.9 0.0195313,24302.5 L 0,1622.5 C 0.0117188,1189.1 168.785,781.699 475.238,475.199 781.691,168.801 1189.13,0 1622.51,0 H 24302.5 c 433.4,0 840.8,168.801 1147.3,475.199 306.5,306.5 475.2,713.901 475.2,1147.301 v 22680 c 0,433.4 -168.7,840.8 -475.2,1147.3 -306.5,306.4 -713.9,475.2 -1147.3,475.2 z m 0,-2.5 c 894.7,0 1620,-725.3 1620,-1620 v -22680 c 0,-894.699 -725.3,-1620 -1620,-1620 H 1622.51 C 727.824,2.5 2.51953,727.801 2.5,1622.5 l 0.01953,22680 c 0,894.7 725.30447,1620 1620.00047,1620 H 24302.5"
         style="fill:#231f20;fill-opacity:1;fill-rule:nonzero;stroke:none"
         transform="matrix(0.13333333,0,0,-0.13333333,0,3456.6667)" />
      <path
         id="path4"
         d="m 24302.5,452.5 c 645.2,0 1170,524.902 1170,1170 v 22680 c 0,645.1 -524.8,1170 -1170,1170 H 1622.52 c -645.137,0 -1170,-524.9 -1170,-1170 v -22680 c 0,-645.098 524.863,-1170 1170,-1170 H 24302.5"
         style="fill:#231f20;fill-opacity:1;fill-rule:nonzero;stroke:none"
         transform="matrix(0.13333333,0,0,-0.13333333,0,3456.6667)" />
      <path
         id="path5"
         d="m 24302.5,1082.5 c 297.8,0 540,242.3 540,540 v 22680 c 0,297.8 -242.2,540 -540,540 H 1622.52 c -297.75,0 -540,-242.3 -540,-540 v -22680 c 0,-297.7 242.25,-540 540,-540 H 24302.5"
         style="fill:#ffffff;fill-opacity:1;fill-rule:nonzero;stroke:none"
         transform="matrix(0.13333333,0,0,-0.13333333,0,3456.6667)" />
      <path
         id="path6"
         d="M 14901,23762.5 H 11024 L 8282.51,21021 V 17144 L 11024,14402.5 h 3877 l 2741.5,2741.5 v 3877 L 14901,23762.5"
         style="fill:#bf2519;fill-opacity:1;fill-rule:evenodd;stroke:none"
         transform="matrix(0.13333333,0,0,-0.13333333,0,3456.6667)" />
      <path
         id="path7"
         d="m 9613.44,17860.6 c 251.1,0 456.46,227.6 456.46,489.2 -0.4,690.1 -1209.77,688.5 -1209.77,1569.4 0,466.1 365.32,840.8 833.09,840.8 456.88,0 810.78,-352 822.18,-841.2 h -445.9 c -11.4,227.2 -171.35,375 -376.68,375 -217.08,0 -387.99,-158.7 -387.99,-374.6 0,-194 121.9,-271.4 272.97,-366.1 438.2,-264.5 937.2,-583.6 937.2,-1203.7 0,-524.5 -399.8,-943.6 -901.97,-943.6 -570.65,0 -912.87,482.7 -912.87,1012.5 h 457.24 c 0,-275.8 136.49,-557.7 456.04,-557.7"
         style="fill:#ffffff;fill-opacity:1;fill-rule:nonzero;stroke:none"
         transform="matrix(0.13333333,0,0,-0.13333333,0,3456.6667)" />
      <path
         id="path8"
         d="M 11867.4,17463.3 H 11400 v 2807.8 h -592.9 v 432.2 h 1653.2 v -432.2 h -592.9 v -2807.8"
         style="fill:#ffffff;fill-opacity:1;fill-rule:nonzero;stroke:none"
         transform="matrix(0.13333333,0,0,-0.13333333,0,3456.6667)" />
      <path
         id="path9"
         d="m 13805.4,20305.2 c -92.3,0 -509.9,19 -509.9,-1217.5 0,-1245.3 417.6,-1226.3 509.9,-1226.3 92.3,0 509.5,-19 509.5,1226.3 0,1236.5 -417.2,1217.5 -509.5,1217.5 z m -956.2,-1215 c 0,1696.5 786.9,1669.4 961.5,1669.4 174.5,0 950.9,25.9 950.9,-1670.7 0,-1708.6 -776.4,-1681.9 -950.9,-1681.9 -174.6,0 -961.5,-26.7 -961.5,1683.2"
         style="fill:#ffffff;fill-opacity:1;fill-rule:nonzero;stroke:none"
         transform="matrix(0.13333333,0,0,-0.13333333,0,3456.6667)" />
      <path
         id="path10"
         d="m 15874.7,19327.9 h 476.3 c 272.1,0 420,170.1 420,465.7 0,273 -171.8,454.8 -419.6,454.8 h -476.7 z m 0,-443.5 v -1421.1 h -465 v 3240 h 964.3 c 510.8,0 851,-365.4 851,-909.7 0,-591.3 -306.6,-909.2 -851,-909.2 h -499.3"
         style="fill:#ffffff;fill-opacity:1;fill-rule:nonzero;stroke:none"
         transform="matrix(0.13333333,0,0,-0.13333333,0,3456.6667)" />
      <path
         id="path11"
         d="m 19026.8,13502.5 c 453.5,0 823.2,-369.8 823.2,-823.1 0,-453.5 -369.7,-823.2 -823.2,-823.2 -453.3,0 -823.1,369.7 -823.1,823.2 0,453.3 369.8,823.1 823.1,823.1"
         style="fill:#231f20;fill-opacity:1;fill-rule:evenodd;stroke:none"
         transform="matrix(0.13333333,0,0,-0.13333333,0,3456.6667)" />
      <path
         id="path12"
         d="m 16534.5,8312 1726.7,1151.2 c 79.8,337.3 410.9,1835.2 1075.1,2181.8 658,434.9 3083.6,-1351.9 3097.6,-1366.7 V 7671.6 l -526,91.5 -205.7,2080.8 c -198.2,39.9 -396.4,79.8 -594.6,119.6 433.1,-1119.5 592.2,-2198.4 343,-2909.1 l 1051.9,-4298.9 -708.9,-503 -1532,3978.7 -708.8,-754.7 -983.3,-2995.3 -937.5,342.9 846.1,3155.6 983.2,1760.7 -376.9,1299.3 -400.5,-521.9 -1875.1,-617.4 -274.3,411.6"
         style="fill:#231f20;fill-opacity:1;fill-rule:evenodd;stroke:none"
         transform="matrix(0.13333333,0,0,-0.13333333,0,3456.6667)" />
      <path
         id="path13"
         d="m 4583.8,11926.1 h -786.92 v -1303.6 h -413.27 v 2880 h 413.27 v -1172.2 h 786.56 v 1172.2 h 413.62 v -2880 H 4583.8 v 1303.6"
         style="fill:#231f20;fill-opacity:1;fill-rule:nonzero;stroke:none"
         transform="matrix(0.13333333,0,0,-0.13333333,0,3456.6667)" />
      <path
         id="path14"
         d="m 5630.78,13502.5 h 1357.86 v -404.3 H 6046.2 v -727.5 h 597.57 v -394.2 H 6046.2 v -950.1 h 1054.03 v -403.9 H 5630.78 v 2880"
         style="fill:#231f20;fill-opacity:1;fill-rule:nonzero;stroke:none"
         transform="matrix(0.13333333,0,0,-0.13333333,0,3456.6667)" />
      <path
         id="path15"
         d="m 8003.16,13098.2 v -727.5 h 423.33 c 242.64,0 373.31,131.4 373.31,363.9 0,222.5 -151.2,363.6 -372.94,363.6 z m 393.46,-1121.7 h -393.46 v -1354 h -413.27 v 2880 h 857.13 c 451.78,0 756.32,-303.1 756.32,-767.9 0,-343.4 -141.47,-596.1 -413.62,-697.3 l 413.26,-1414.8 H 8780 l -383.38,1354"
         style="fill:#231f20;fill-opacity:1;fill-rule:nonzero;stroke:none"
         transform="matrix(0.13333333,0,0,-0.13333333,0,3456.6667)" />
      <path
         id="path16"
         d="m 9693.03,13502.5 h 1357.87 v -404.3 h -942.4 v -727.5 h 597.5 v -394.2 h -597.5 v -950.1 h 1054 v -403.9 H 9693.03 v 2880"
         style="fill:#231f20;fill-opacity:1;fill-rule:nonzero;stroke:none"
         transform="matrix(0.13333333,0,0,-0.13333333,0,3456.6667)" />
      <path
         id="path17"
         d="m 5656.27,6362 c 2671.01,1777.5 6056.53,2093.3 9010.23,840.5 v 2340 C 11214,10482 7521.44,9555 4922.04,7096.3 l -585.4,1702.6 c -64.64,188 -269.47,288 -457.49,223.4 -124.36,-42.8 -215.5,-150 -237.76,-279.6 l -758.88,-4420.2 4420.23,758.9 c 195.95,33.6 327.53,219.8 293.89,415.7 -22.25,129.6 -113.4,236.8 -237.75,279.5 L 5656.27,6362"
         style="fill:#231f20;fill-opacity:1;fill-rule:nonzero;stroke:none"
         transform="matrix(0.13333333,0,0,-0.13333333,0,3456.6667)" />
      <path
         id="path18"
         d="m 10526,5170.7 h 577.8 V 4776.5 H 10526 v -1354 h -415.4 v 2880 h 1469.5 V 5898.2 H 10526 v -727.5"
         style="fill:#231f20;fill-opacity:1;fill-rule:nonzero;stroke:none"
         transform="matrix(0.13333333,0,0,-0.13333333,0,3456.6667)" />
      <path
         id="path19"
         d="m 12775.7,5948.6 c -82.1,0 -453.3,16.9 -453.3,-1082.1 0,-1107 371.2,-1090.1 453.3,-1090.1 82,0 452.8,-16.9 452.8,1090.1 0,1099 -370.8,1082.1 -452.8,1082.1 z m -850,-1080 c 0,1508.1 699.5,1483.9 854.6,1483.9 155.2,0 845.3,23.1 845.3,-1485 0,-1518.8 -690.1,-1495 -845.3,-1495 -155.1,0 -854.6,-23.8 -854.6,1496.1"
         style="fill:#231f20;fill-opacity:1;fill-rule:nonzero;stroke:none"
         transform="matrix(0.13333333,0,0,-0.13333333,0,3456.6667)" />
      <path
         id="path20"
         d="m 14615,5898.2 v -727.5 h 423.3 c 242.6,0 373.3,131.4 373.3,363.9 0,222.5 -151.2,363.6 -372.9,363.6 z m 393.4,-1121.7 H 14615 v -1354 h -413.3 v 2880 h 857.1 c 451.8,0 756.4,-303.1 756.4,-767.9 0,-343.4 -141.5,-596.1 -413.7,-697.3 l 413.3,-1414.8 h -423 l -383.4,1354"
         style="fill:#231f20;fill-opacity:1;fill-rule:nonzero;stroke:none"
         transform="matrix(0.13333333,0,0,-0.13333333,0,3456.6667)" />
    </g>
  </g>
</svg>
