<?xml version="1.0" standalone="no"?>
<svg width="6480px" height="1728px" viewBox="0 -936 6480 1728 " xmlns="http://www.w3.org/2000/svg" xmlns:xlink="http://www.w3.org/1999/xlink">
<title>generated by pstoedit</title>
<!-- generated by pstoedit version:4.02 -->
<g xml:space='preserve'>
<clipPath id="clippath1"> 	<path d="
	M 0 -936.5 
	L 0 792 
	L 6480.5 792 
	L 6480.5 -936.5 
	Z 
	" style="clip-rule:nonzero"/>
</clipPath>
<g style="clip-path:url(#clippath1)"> 
<g fill="#ffffff" fill-rule="nonzero" stroke-width="0" stroke-linejoin="miter" stroke-linecap="butt" stroke-miterlimit="10" >
	<path d="
	M 0.25 -243.25 
	L 0.25 656.75 
	C 0.25 731.309 60.6914 791.75 135.25 791.75 
	L 6345.25 791.75 
	C 6419.81 791.75 6480.25 731.309 6480.25 656.75 
	L 6480.25 -243.25 
	"/>
</g>
<g stroke="#7f7f7f" fill="none" stroke-width="0.5" stroke-linejoin="miter" stroke-linecap="butt" stroke-miterlimit="4" >
	<path d="
	M 0.25 -243.25 
	L 0.25 656.75 
	C 0.25 731.309 60.6914 791.75 135.25 791.75 
	L 6345.25 791.75 
	C 6419.81 791.75 6480.25 731.309 6480.25 656.75 
	L 6480.25 -243.25 
	"/>
</g>
<g fill="#95e8ff" fill-rule="nonzero" stroke-width="0" stroke-linejoin="miter" stroke-linecap="butt" stroke-miterlimit="4" >
	<path d="
	M 6480.25 -243.25 
	L 6480.25 -801.25 
	C 6480.25 -875.81 6419.81 -936.25 6345.25 -936.25 
	L 135.25 -936.25 
	C 60.6914 -936.25 0.25 -875.81 0.25 -801.25 
	L 0.25 -243.25 
	"/>
</g>
<g stroke="#7f7f7f" fill="none" stroke-width="0.5" stroke-linejoin="miter" stroke-linecap="butt" stroke-miterlimit="4" >
	<path d="
	M 6480.25 -243.25 
	L 6480.25 -801.25 
	C 6480.25 -875.81 6419.81 -936.25 6345.25 -936.25 
	L 135.25 -936.25 
	C 60.6914 -936.25 0.25 -875.81 0.25 -801.25 
	L 0.25 -243.25 
	"/>
</g>
<g fill="#7f7f7f" fill-rule="nonzero" stroke-width="0" stroke-linejoin="miter" stroke-linecap="butt" stroke-miterlimit="4" >
	<path d="
	M 6345.25 701.75 
	L 135.25 701.75 
	C 110.438 701.75 90.25 681.559 90.25 656.75 
	L 90.25 -216.25 
	L 6390.25 -216.25 
	L 6390.25 656.75 
	C 6390.25 681.559 6370.06 701.75 6345.25 701.75 
	Z 
	M 135.25 -846.25 
	L 6345.25 -846.25 
	C 6370.06 -846.25 6390.25 -826.06 6390.25 -801.25 
	L 6390.25 -270.25 
	L 90.25 -270.25 
	L 90.25 -801.25 
	C 90.25 -826.06 110.438 -846.25 135.25 -846.25 
	Z 
	M 6345.25 -900.25 
	L 135.25 -900.25 
	C 80.6602 -900.25 36.25 -855.84 36.25 -801.25 
	L 36.25 656.75 
	C 36.25 711.34 80.6602 755.75 135.25 755.75 
	L 6345.25 755.75 
	C 6399.84 755.75 6444.25 711.34 6444.25 656.75 
	L 6444.25 -801.25 
	C 6444.25 -855.84 6399.84 -900.25 6345.25 -900.25 
	Z 
	"/>
</g>
<g fill="#7f7f7f" fill-rule="nonzero" stroke-width="0" stroke-linejoin="miter" stroke-linecap="butt" stroke-miterlimit="4" >
	<path d="
	M 3565.8 -414.25 
	L 3565.8 -702.25 
	L 3611.21 -702.25 
	L 3611.21 -456.69 
	L 3744.43 -456.69 
	L 3744.43 -414.25 
	Z 
	"/>
</g>
<g fill="#7f7f7f" fill-rule="nonzero" stroke-width="0" stroke-linejoin="miter" stroke-linecap="butt" stroke-miterlimit="4" >
	<path d="
	M 2530.84 -661.83 
	L 2530.84 -414.25 
	L 2485.17 -414.25 
	L 2485.17 -661.83 
	L 2419.2 -661.83 
	L 2419.2 -702.25 
	L 2597.83 -702.25 
	L 2597.83 -661.83 
	Z 
	"/>
</g>
<g fill="#7f7f7f" fill-rule="nonzero" stroke-width="0" stroke-linejoin="miter" stroke-linecap="butt" stroke-miterlimit="4" >
	<path d="
	M 2988.98 -661.83 
	L 2988.98 -414.25 
	L 2943.31 -414.25 
	L 2943.31 -661.83 
	L 2877.33 -661.83 
	L 2877.33 -702.25 
	L 3055.97 -702.25 
	L 3055.97 -661.83 
	Z 
	"/>
</g>
<g fill="#7f7f7f" fill-rule="nonzero" stroke-width="0" stroke-linejoin="miter" stroke-linecap="butt" stroke-miterlimit="4" >
	<path d="
	M 4237.82 -414.25 
	L 4197.27 -414.25 
	L 4151.66 -599.18 
	L 4107.05 -414.25 
	L 4066.51 -414.25 
	L 4023.93 -702.25 
	L 4070.56 -702.25 
	L 4092.86 -550.67 
	L 4129.35 -702.25 
	L 4173.96 -702.25 
	L 4211.46 -550.67 
	L 4233.77 -702.25 
	L 4280.4 -702.25 
	Z 
	"/>
</g>
<g fill="#7f7f7f" fill-rule="nonzero" stroke-width="0" stroke-linejoin="miter" stroke-linecap="butt" stroke-miterlimit="4" >
	<path d="
	M 2367.86 -431.43 
	C 2351.69 -417.28 2329.46 -409.2 2305.21 -409.2 
	C 2255.69 -409.2 2219.31 -438.5 2200.1 -481.95 
	L 2243.56 -498.12 
	C 2255.69 -470.84 2277.92 -455.68 2305.21 -455.68 
	C 2331.48 -455.68 2349.67 -473.87 2349.67 -498.12 
	C 2349.67 -536.52 2305.21 -542.59 2267.81 -557.74 
	C 2250.63 -564.82 2212.23 -582 2212.23 -629.49 
	C 2212.23 -686.08 2250.63 -707.3 2302.18 -707.3 
	C 2342.6 -707.3 2369.88 -684.06 2384.03 -648.69 
	L 2343.61 -636.57 
	C 2343.61 -636.57 2333.5 -660.82 2301.16 -661.83 
	C 2279.94 -662.84 2254.68 -654.76 2256.7 -628.48 
	C 2260.74 -574.93 2396.16 -610.29 2396.16 -497.11 
	C 2396.16 -470.84 2386.05 -447.6 2367.86 -431.43 
	Z 
	"/>
</g>
<g fill="#7f7f7f" fill-rule="nonzero" stroke-width="0" stroke-linejoin="miter" stroke-linecap="butt" stroke-miterlimit="4" >
	<path d="
	M 3099.16 -414.25 
	L 3099.16 -702.25 
	L 3268.71 -702.25 
	L 3268.71 -656.78 
	L 3144.58 -656.78 
	L 3144.58 -586.04 
	L 3228.35 -586.04 
	L 3228.35 -539.55 
	L 3144.58 -539.55 
	L 3144.58 -460.73 
	L 3277.8 -460.73 
	L 3277.8 -414.25 
	Z 
	"/>
</g>
<g fill="#7f7f7f" fill-rule="nonzero" stroke-width="0" stroke-linejoin="miter" stroke-linecap="butt" stroke-miterlimit="4" >
	<path d="
	M 2738.09 -622.42 
	L 2708.62 -541.57 
	L 2766.55 -541.57 
	Z 
	M 2811.27 -414.25 
	L 2782.81 -495.09 
	L 2692.35 -495.09 
	L 2663.9 -414.25 
	L 2615.11 -414.25 
	L 2714.71 -702.25 
	L 2760.45 -702.25 
	L 2860.05 -414.25 
	Z 
	"/>
</g>
<g fill="#7f7f7f" fill-rule="nonzero" stroke-width="0" stroke-linejoin="miter" stroke-linecap="butt" stroke-miterlimit="4" >
	<path d="
	M 3884.69 -622.42 
	L 3855.21 -541.57 
	L 3913.15 -541.57 
	Z 
	M 3957.87 -414.25 
	L 3929.41 -495.09 
	L 3838.95 -495.09 
	L 3810.49 -414.25 
	L 3761.71 -414.25 
	L 3861.31 -702.25 
	L 3907.05 -702.25 
	L 4006.65 -414.25 
	Z 
	"/>
</g>
<g fill="#7f7f7f" fill-rule="evenodd" stroke-width="0" stroke-linejoin="miter" stroke-linecap="butt" stroke-miterlimit="4" >
	<path d="
	M 415.859 -45.25 
	C 439.074 -45.25 458.008 -26.316 458.008 -3.10498 
	C 458.008 20.109 439.074 39.043 415.859 39.043 
	C 392.645 39.043 373.715 20.109 373.715 -3.10498 
	C 373.715 -26.316 392.645 -45.25 415.859 -45.25 
	Z 
	"/>
</g>
<g fill="#7f7f7f" fill-rule="evenodd" stroke-width="0" stroke-linejoin="miter" stroke-linecap="butt" stroke-miterlimit="4" >
	<path d="
	M 288.25 220.512 
	L 376.66 161.57 
	C 380.746 144.289 397.699 67.602 431.707 49.855 
	C 465.391 27.582 589.586 119.07 590.301 119.82 
	L 590.301 253.289 
	L 563.371 248.602 
	L 552.836 142.07 
	C 542.688 140.031 532.543 137.988 522.395 135.949 
	C 544.566 193.262 552.711 248.512 539.957 284.898 
	L 593.813 505 
	L 557.516 530.75 
	L 479.078 327.039 
	L 442.785 365.68 
	L 392.445 519.039 
	L 344.445 501.48 
	L 387.762 339.922 
	L 438.105 249.781 
	L 418.809 183.25 
	L 398.297 209.969 
	L 302.301 241.578 
	Z 
	"/>
</g>
<g fill="#7f7f7f" fill-rule="evenodd" stroke-width="0" stroke-linejoin="miter" stroke-linecap="butt" stroke-miterlimit="4" >
	<path d="
	M 6014.3 -45.25 
	C 6037.51 -45.25 6056.45 -26.316 6056.45 -3.10498 
	C 6056.45 20.109 6037.51 39.043 6014.3 39.043 
	C 5991.09 39.043 5972.15 20.109 5972.15 -3.10498 
	C 5972.15 -26.316 5991.09 -45.25 6014.3 -45.25 
	Z 
	"/>
</g>
<g fill="#7f7f7f" fill-rule="evenodd" stroke-width="0" stroke-linejoin="miter" stroke-linecap="butt" stroke-miterlimit="4" >
	<path d="
	M 5886.69 220.512 
	L 5975.1 161.57 
	C 5979.19 144.289 5996.14 67.602 6030.15 49.855 
	C 6063.83 27.582 6188.02 119.07 6188.74 119.82 
	L 6188.74 253.289 
	L 6161.81 248.602 
	L 6151.27 142.07 
	C 6141.13 140.031 6130.98 137.988 6120.83 135.949 
	C 6143.01 193.262 6151.15 248.512 6138.4 284.898 
	L 6192.25 505 
	L 6155.96 530.75 
	L 6077.52 327.039 
	L 6041.23 365.68 
	L 5990.88 519.039 
	L 5942.89 501.48 
	L 5986.2 339.922 
	L 6036.54 249.781 
	L 6017.25 183.25 
	L 5996.74 209.969 
	L 5900.74 241.578 
	Z 
	"/>
</g>
<g fill="#7f7f7f" fill-rule="nonzero" stroke-width="0" stroke-linejoin="miter" stroke-linecap="butt" stroke-miterlimit="4" >
	<path d="
	M 5251.53 386.75 
	L 5141.38 191.719 
	L 5141.38 386.75 
	L 5095.9 386.75 
	L 5095.9 98.75 
	L 5141.38 98.75 
	L 5246.48 282.672 
	L 5246.48 98.75 
	L 5291.96 98.75 
	L 5291.96 386.75 
	Z 
	"/>
</g>
<g fill="#7f7f7f" fill-rule="nonzero" stroke-width="0" stroke-linejoin="miter" stroke-linecap="butt" stroke-miterlimit="4" >
	<path d="
	M 4718.48 386.75 
	L 4718.48 98.75 
	L 4764.56 98.75 
	L 4764.56 386.75 
	Z 
	"/>
</g>
<g fill="#7f7f7f" fill-rule="nonzero" stroke-width="0" stroke-linejoin="miter" stroke-linecap="butt" stroke-miterlimit="4" >
	<path d="
	M 3231.23 149.27 
	C 3223.14 145.23 3218.09 144.219 3203.94 144.219 
	L 3144.32 144.219 
	L 3144.32 214.961 
	L 3203.94 214.961 
	C 3218.09 214.961 3223.14 213.949 3231.23 209.91 
	C 3241.33 204.852 3248.41 191.719 3248.41 179.59 
	C 3248.41 167.461 3241.33 155.34 3231.23 149.27 
	Z 
	M 3250.43 251.34 
	C 3237.29 257.398 3220.11 261.441 3197.88 261.441 
	L 3144.32 261.441 
	L 3144.32 386.75 
	L 3098.84 386.75 
	L 3098.84 98.75 
	L 3197.88 98.75 
	C 3221.12 98.75 3236.28 100.77 3250.43 107.84 
	C 3275.7 119.969 3294.9 150.289 3294.9 179.59 
	C 3294.9 209.91 3275.7 240.219 3250.43 251.34 
	Z 
	"/>
</g>
<g fill="#7f7f7f" fill-rule="nonzero" stroke-width="0" stroke-linejoin="miter" stroke-linecap="butt" stroke-miterlimit="4" >
	<path d="
	M 4363.27 139.172 
	L 4363.27 386.75 
	L 4317.6 386.75 
	L 4317.6 139.172 
	L 4251.63 139.172 
	L 4251.63 98.75 
	L 4430.26 98.75 
	L 4430.26 139.172 
	Z 
	"/>
</g>
<g fill="#7f7f7f" fill-rule="nonzero" stroke-width="0" stroke-linejoin="miter" stroke-linecap="butt" stroke-miterlimit="4" >
	<path d="
	M 4599.78 149.281 
	C 4592.71 145.23 4588.67 144.219 4573.51 144.219 
	L 4518.94 144.219 
	L 4518.94 214.961 
	L 4573.51 214.961 
	C 4587.66 214.961 4592.71 213.949 4599.78 209.91 
	C 4610.9 203.852 4617.98 191.719 4617.98 179.59 
	C 4617.98 167.469 4610.9 155.34 4599.78 149.281 
	Z 
	M 4620 386.75 
	L 4573.51 261.441 
	L 4518.94 261.441 
	L 4518.94 386.75 
	L 4473.46 386.75 
	L 4473.46 98.75 
	L 4568.46 98.75 
	C 4590.69 98.75 4605.85 100.77 4620 107.852 
	C 4645.26 119.969 4663.45 150.289 4663.45 179.59 
	C 4663.45 209.91 4645.26 240.219 4618.99 252.352 
	L 4669.52 386.75 
	Z 
	"/>
</g>
<g fill="#7f7f7f" fill-rule="nonzero" stroke-width="0" stroke-linejoin="miter" stroke-linecap="butt" stroke-miterlimit="4" >
	<path d="
	M 5508.68 369.57 
	C 5492.51 383.719 5470.28 391.801 5446.02 391.801 
	C 5396.5 391.801 5360.12 362.5 5340.92 319.039 
	L 5384.38 302.879 
	C 5396.5 330.16 5418.73 345.32 5446.02 345.32 
	C 5472.3 345.32 5490.49 327.129 5490.49 302.879 
	C 5490.49 264.48 5446.02 258.41 5408.63 243.262 
	C 5391.45 236.18 5353.05 219 5353.05 171.512 
	C 5353.05 114.922 5391.45 93.699 5442.99 93.699 
	C 5483.41 93.699 5510.7 116.941 5524.85 152.309 
	L 5484.42 164.43 
	C 5484.42 164.43 5474.32 140.18 5441.98 139.172 
	C 5420.76 138.16 5395.49 146.238 5397.51 172.52 
	C 5401.55 226.078 5536.97 190.711 5536.97 303.891 
	C 5536.97 330.16 5526.87 353.398 5508.68 369.57 
	Z 
	"/>
</g>
<g fill="#7f7f7f" fill-rule="nonzero" stroke-width="0" stroke-linejoin="miter" stroke-linecap="butt" stroke-miterlimit="4" >
	<path d="
	M 4200.29 369.57 
	C 4184.13 383.719 4161.89 391.801 4137.64 391.801 
	C 4088.12 391.801 4051.74 362.5 4032.54 319.039 
	L 4075.99 302.879 
	C 4088.12 330.16 4110.35 345.32 4137.64 345.32 
	C 4163.91 345.32 4182.1 327.129 4182.1 302.879 
	C 4182.1 264.48 4137.64 258.41 4100.24 243.262 
	C 4083.06 236.18 4044.66 219 4044.66 171.512 
	C 4044.66 114.922 4083.06 93.699 4134.61 93.699 
	C 4175.03 93.699 4202.31 116.941 4216.46 152.309 
	L 4176.04 164.43 
	C 4176.04 164.43 4165.93 140.18 4133.59 139.172 
	C 4112.37 138.16 4087.11 146.238 4089.13 172.52 
	C 4093.17 226.078 4228.59 190.711 4228.59 303.891 
	C 4228.59 330.16 4218.48 353.398 4200.29 369.57 
	Z 
	"/>
</g>
<g fill="#7f7f7f" fill-rule="nonzero" stroke-width="0" stroke-linejoin="miter" stroke-linecap="butt" stroke-miterlimit="4" >
	<path d="
	M 3692.01 156.352 
	C 3684.94 149.281 3674.83 144.219 3662.7 144.219 
	L 3611.16 144.219 
	L 3611.16 340.27 
	L 3656.64 340.27 
	C 3671.8 340.27 3680.89 337.23 3688.98 329.148 
	C 3706.16 311.969 3715.25 280.641 3715.25 242.238 
	C 3715.25 203.84 3706.16 171.512 3692.01 156.352 
	Z 
	M 3711.21 370.578 
	C 3700.1 380.691 3684.94 385.738 3669.78 386.75 
	C 3666.75 386.75 3660.68 386.75 3653.61 386.75 
	L 3565.69 386.75 
	L 3565.69 98.75 
	L 3658.66 98.75 
	C 3687.97 98.75 3699.09 101.781 3714.24 113.91 
	C 3744.56 140.18 3761.74 185.66 3761.74 242.238 
	C 3761.74 299.84 3743.55 345.32 3711.21 370.578 
	Z 
	"/>
</g>
<g fill="#7f7f7f" fill-rule="nonzero" stroke-width="0" stroke-linejoin="miter" stroke-linecap="butt" stroke-miterlimit="4" >
	<path d="
	M 3338.09 386.75 
	L 3338.09 98.75 
	L 3507.64 98.75 
	L 3507.64 144.219 
	L 3383.51 144.219 
	L 3383.51 214.961 
	L 3467.28 214.961 
	L 3467.28 261.449 
	L 3383.51 261.449 
	L 3383.51 340.27 
	L 3516.73 340.27 
	L 3516.73 386.75 
	Z 
	"/>
</g>
<g fill="#7f7f7f" fill-rule="nonzero" stroke-width="0" stroke-linejoin="miter" stroke-linecap="butt" stroke-miterlimit="4" >
	<path d="
	M 3825.1 386.75 
	L 3825.1 98.75 
	L 3994.65 98.75 
	L 3994.65 144.219 
	L 3870.52 144.219 
	L 3870.52 214.961 
	L 3954.28 214.961 
	L 3954.28 261.449 
	L 3870.52 261.449 
	L 3870.52 340.27 
	L 4003.73 340.27 
	L 4003.73 386.75 
	Z 
	"/>
</g>
<g fill="#7f7f7f" fill-rule="nonzero" stroke-width="0" stroke-linejoin="miter" stroke-linecap="butt" stroke-miterlimit="4" >
	<path d="
	M 4930.74 178.578 
	L 4901.26 259.422 
	L 4959.19 259.422 
	Z 
	M 5003.91 386.75 
	L 4975.46 305.91 
	L 4885 305.91 
	L 4856.54 386.75 
	L 4807.76 386.75 
	L 4907.36 98.75 
	L 4953.1 98.75 
	L 5052.7 386.75 
	Z 
	"/>
</g>
<g fill="#7f7f7f" fill-rule="nonzero" stroke-width="0" stroke-linejoin="miter" stroke-linecap="butt" stroke-miterlimit="4" >
	<path d="
	M 1520.51 162.41 
	C 1511.39 147.25 1500.25 141.191 1483.03 140.18 
	C 1460.74 139.172 1446.56 150.281 1436.43 175.551 
	C 1429.34 192.73 1425.29 219 1425.29 243.25 
	C 1425.29 273.57 1431.37 304.891 1442.51 323.078 
	C 1451.63 338.238 1463.78 345.32 1482.02 345.32 
	C 1503.29 345.32 1516.46 334.199 1526.59 308.941 
	C 1532.67 293.781 1537.73 265.48 1537.73 243.25 
	C 1537.73 210.922 1531.65 181.609 1520.51 162.41 
	Z 
	M 1551.91 359.461 
	C 1535.7 381.699 1512.41 391.801 1482.02 391.801 
	C 1441.5 391.801 1416.17 375.629 1398.95 340.262 
	C 1386.8 316.012 1378.69 277.609 1378.69 243.25 
	C 1378.69 195.762 1390.85 153.32 1410.09 126.031 
	C 1427.32 103.801 1450.61 93.699 1484.04 93.699 
	C 1520.51 93.699 1545.83 109.859 1564.07 145.23 
	C 1576.22 170.488 1583.32 206.871 1583.32 243.25 
	C 1583.32 288.73 1572.17 334.199 1551.91 359.461 
	Z 
	"/>
</g>
<g fill="#7f7f7f" fill-rule="nonzero" stroke-width="0" stroke-linejoin="miter" stroke-linecap="butt" stroke-miterlimit="4" >
	<path d="
	M 2488.62 162.41 
	C 2479.5 147.25 2468.36 141.191 2451.14 140.18 
	C 2428.85 139.172 2414.67 150.281 2404.54 175.551 
	C 2397.45 192.73 2393.4 219 2393.4 243.25 
	C 2393.4 273.57 2399.48 304.891 2410.62 323.078 
	C 2419.74 338.238 2431.89 345.32 2450.13 345.32 
	C 2471.4 345.32 2484.57 334.199 2494.7 308.941 
	C 2500.78 293.781 2505.84 265.48 2505.84 243.25 
	C 2505.84 210.922 2499.76 181.609 2488.62 162.41 
	Z 
	M 2520.02 359.461 
	C 2503.82 381.699 2480.52 391.801 2450.13 391.801 
	C 2409.61 391.801 2384.28 375.629 2367.06 340.262 
	C 2354.91 316.012 2346.8 277.609 2346.8 243.25 
	C 2346.8 195.762 2358.96 153.32 2378.21 126.031 
	C 2395.43 103.801 2418.73 93.699 2452.15 93.699 
	C 2488.62 93.699 2513.95 109.859 2532.18 145.23 
	C 2544.33 170.488 2551.43 206.871 2551.43 243.25 
	C 2551.43 288.73 2540.28 334.199 2520.02 359.461 
	Z 
	"/>
</g>
<g fill="#7f7f7f" fill-rule="nonzero" stroke-width="0" stroke-linejoin="miter" stroke-linecap="butt" stroke-miterlimit="4" >
	<path d="
	M 1779.06 149.27 
	C 1770.98 145.23 1765.92 144.219 1751.78 144.219 
	L 1692.15 144.219 
	L 1692.15 214.961 
	L 1751.78 214.961 
	C 1765.92 214.961 1770.98 213.949 1779.06 209.898 
	C 1789.17 204.852 1796.24 191.711 1796.24 179.59 
	C 1796.24 167.461 1789.17 155.34 1779.06 149.27 
	Z 
	M 1798.26 251.34 
	C 1785.13 257.398 1767.95 261.441 1745.71 261.441 
	L 1692.15 261.441 
	L 1692.15 386.75 
	L 1646.67 386.75 
	L 1646.67 98.75 
	L 1745.71 98.75 
	C 1768.96 98.75 1784.11 100.77 1798.26 107.84 
	C 1823.53 119.969 1842.73 150.281 1842.73 179.59 
	C 1842.73 209.898 1823.53 240.219 1798.26 251.34 
	Z 
	"/>
</g>
<g fill="#7f7f7f" fill-rule="nonzero" stroke-width="0" stroke-linejoin="miter" stroke-linecap="butt" stroke-miterlimit="4" >
	<path d="
	M 1274.26 139.172 
	L 1274.26 386.75 
	L 1228.59 386.75 
	L 1228.59 139.172 
	L 1162.62 139.172 
	L 1162.62 98.75 
	L 1341.25 98.75 
	L 1341.25 139.172 
	Z 
	"/>
</g>
<g fill="#7f7f7f" fill-rule="nonzero" stroke-width="0" stroke-linejoin="miter" stroke-linecap="butt" stroke-miterlimit="4" >
	<path d="
	M 2741.11 149.27 
	C 2734.04 145.23 2729.99 144.219 2714.83 144.219 
	L 2660.26 144.219 
	L 2660.26 214.961 
	L 2714.83 214.961 
	C 2728.98 214.961 2734.04 213.949 2741.11 209.91 
	C 2752.23 203.84 2759.3 191.719 2759.3 179.59 
	C 2759.3 167.461 2752.23 155.34 2741.11 149.27 
	Z 
	M 2761.32 386.75 
	L 2714.83 261.441 
	L 2660.26 261.441 
	L 2660.26 386.75 
	L 2614.79 386.75 
	L 2614.79 98.75 
	L 2709.78 98.75 
	C 2732.01 98.75 2747.17 100.77 2761.32 107.84 
	C 2786.59 119.969 2804.78 150.281 2804.78 179.59 
	C 2804.78 209.91 2786.59 240.219 2760.31 252.352 
	L 2810.84 386.75 
	Z 
	"/>
</g>
<g fill="#7f7f7f" fill-rule="nonzero" stroke-width="0" stroke-linejoin="miter" stroke-linecap="butt" stroke-miterlimit="4" >
	<path d="
	M 1111.28 369.57 
	C 1095.12 383.719 1072.88 391.801 1048.63 391.801 
	C 999.109 391.801 962.727 362.5 943.523 319.039 
	L 986.98 302.879 
	C 999.109 330.16 1021.34 345.32 1048.63 345.32 
	C 1074.9 345.32 1093.09 327.129 1093.09 302.879 
	C 1093.09 264.469 1048.63 258.41 1011.23 243.25 
	C 994.055 236.18 955.652 219 955.652 171.512 
	C 955.652 114.922 994.055 93.699 1045.6 93.699 
	C 1086.02 93.699 1113.31 116.941 1127.45 152.309 
	L 1087.03 164.43 
	C 1087.03 164.43 1076.92 140.18 1044.58 139.172 
	C 1023.36 138.16 998.098 146.238 1000.12 172.52 
	C 1004.16 226.07 1139.58 190.711 1139.58 303.879 
	C 1139.58 330.16 1129.47 353.398 1111.28 369.57 
	Z 
	"/>
</g>
<g fill="#7f7f7f" fill-rule="nonzero" stroke-width="0" stroke-linejoin="miter" stroke-linecap="butt" stroke-miterlimit="4" >
	<path d="
	M 2176.15 144.219 
	L 2176.15 214.961 
	L 2259.91 214.961 
	L 2259.91 261.441 
	L 2176.15 261.441 
	L 2176.15 386.75 
	L 2130.73 386.75 
	L 2130.73 98.75 
	L 2309.36 98.75 
	L 2309.36 144.219 
	Z 
	"/>
</g>
</g >
</g>
</svg>
