<?xml version="1.0" encoding="UTF-8"?>
<svg id="For_Sheets" xmlns="http://www.w3.org/2000/svg" version="1.1" viewBox="0 0 1728 1296">
  <!-- Generator: Adobe Illustrator 29.1.0, SVG Export Plug-In . SVG Version: 2.1.0 Build 142)  -->
  <defs>
    <style>
      .st0 {
        fill: #231f20;
      }

      .st1 {
        fill: #fff;
      }
    </style>
  </defs>
  <g>
    <rect class="st1" x="-.1" y="-.1" width="1728.2" height="1296.2" rx="108.1" ry="108.1"/>
    <path class="st0" d="M1620,0c59.6,0,108,48.4,108,108v1080c0,59.6-48.4,108-108,108H108c-59.6,0-108-48.4-108-108V108C0,48.4,48.4,0,108,0h1512M1620-.2H108C79.1-.2,51.9,11,31.5,31.5,11,51.9-.2,79.1-.2,108v1080c0,28.9,11.3,56.1,31.7,76.5,20.4,20.4,47.6,31.7,76.5,31.7h1512c28.9,0,56.1-11.3,76.5-31.7,20.4-20.4,31.7-47.6,31.7-76.5V108c0-28.9-11.3-56.1-31.7-76.5-20.4-20.4-47.6-31.7-76.5-31.7h0Z"/>
  </g>
  <path class="st0" d="M108,1269c-44.7,0-81-36.3-81-81V108c0-44.7,36.3-81,81-81h1512c44.7,0,81,36.3,81,81v1080c0,44.7-36.3,81-81,81H108ZM108,1233h1512c24.9,0,45-20.1,45-45V108c0-24.9-20.1-45-45-45H108c-24.9,0-45,20.1-45,45v1080c0,24.9,20.1,45,45,45Z"/>
  <g>
    <path class="st0" d="M590.7,1116h-34.3v-185.7h-49.5v-30.3h134v30.3h-50.2v185.7Z"/>
    <path class="st0" d="M673.3,1038.7v-138.7h34.1v138.7c0,28.1,15.9,46.2,39.4,46.2s39.4-18.2,39.4-46.2v-138.7h34.1v138.7c0,68.3-52.4,81.1-73.5,81.1s-73.5-11.3-73.5-81.1Z"/>
    <path class="st0" d="M906.3,1022v94h-34.1v-216h78.1c49.5,0,64.4,39.6,64.4,60.7s-3,39.6-33.5,54.1l38.1,101.2h-37.2l-34.9-94h-41ZM949.2,987.2c27.1,0,31.4-19.5,31.4-26.5s-7-26.5-29.7-26.5h-44.6v53.1h42.9Z"/>
    <path class="st0" d="M1090.1,969.7v146.3h-34.1v-216h34.1l78.8,137.9v-137.9h34.1v216h-30.3l-82.6-146.3Z"/>
  </g>
  <g>
    <path class="st0" d="M366.9,180h127.2v34.1h-93.1v53.1h62.8v34.9h-62.8v59.1h99.9v34.9h-134v-216Z"/>
    <path class="st0" d="M596,324l-34.9,72h-38.7l53.8-111.4-50-104.6h38.7l31.1,64.4,31.1-64.4h38.7l-50.8,104.6,54.6,111.4h-38.7l-34.9-72Z"/>
    <path class="st0" d="M701.9,287.6c0-30.4,6.1-111.4,79.6-111.4s52.6,12.7,67.5,44l-31.8,13.6c-11-15.9-16.6-22.7-35.6-22.7-45.2,0-44.7,63-44.7,76.5s-.8,77.3,46.2,77.3,26-10,33.3-25l32.6,12.1c-12.1,30.1-32.6,47.7-65.2,47.7-77.7,0-81.8-85.9-81.8-112.2Z"/>
    <path class="st0" d="M896.5,180h127.2v34.1h-93.1v53.1h62.8v34.9h-62.8v59.1h99.9v34.9h-134v-216Z"/>
    <path class="st0" d="M1141.5,302h-40.2v94h-34.1v-216h81.6c50.8,0,65.4,41.3,65.4,60.6s-7.4,61.4-72.7,61.4ZM1101.2,267.2h48.1c27.1,0,30-19.5,30-26.5,0-10.1-7.6-26.5-28.8-26.5h-49.2v53.1Z"/>
    <path class="st0" d="M1310.9,396h-34.3v-185.7h-49.5v-30.3h134v30.3h-50.2v185.7Z"/>
  </g>
  <g>
    <path class="st0" d="M511.1,662v94h-34.1v-216h78.1c49.5,0,64.4,39.6,64.4,60.7s-3,39.6-33.5,54.1l38.1,101.2h-37.2l-34.9-94h-41ZM554,627.2c27.1,0,31.4-19.5,31.4-26.5s-7-26.5-29.7-26.5h-44.6v53.1h42.9Z"/>
    <path class="st0" d="M660.8,540h34.6v216h-34.6v-216Z"/>
    <path class="st0" d="M821.2,536.2c34.6,0,54.1,13.1,68.7,47.7l-32.6,12.9c-9.1-19-18.2-25.8-34.9-25.8-47.5,0-44.7,72.3-44.7,77.3,0,8.1-1.8,76.5,40.2,76.5s37.9-13.6,37.9-33.3v-9.1h-39.4v-34.1h73.5v43.2c0,39.4-28.8,68.2-68.2,68.2s-78.8,6.5-78.8-111.8.9-111.8,78.3-111.8Z"/>
    <path class="st0" d="M1050.4,662h-78.9v94h-34.1v-216h34.1v87.2h78.8v-87.2h34.1v216h-34.1v-94Z"/>
    <path class="st0" d="M1200.7,756h-34.3v-185.7h-49.5v-30.3h134v30.3h-50.2v185.7Z"/>
  </g>
</svg>