<?xml version="1.0" encoding="UTF-8"?>
<svg id="For_Sheets" xmlns="http://www.w3.org/2000/svg" version="1.1" viewBox="0 0 2592 2160">
  <!-- Generator: Adobe Illustrator 29.1.0, SVG Export Plug-In . SVG Version: 2.1.0 Build 142)  -->
  <defs>
    <style>
      .st0 {
        fill: #231f20;
      }

      .st1 {
        fill: #fff;
      }
    </style>
  </defs>
  <g>
    <path class="st1" d="M135,2160.1c-35.9,0-69.8-14.1-95.4-39.7-25.6-25.6-39.7-59.5-39.7-95.4V135C-.1,99.1,14,65.2,39.6,39.6S99.1-.1,135-.1h2322c35.9,0,69.8,14.1,95.4,39.7,25.6,25.6,39.7,59.5,39.7,95.4v1890c0,35.9-14.1,69.8-39.7,95.4-25.6,25.6-59.5,39.7-95.4,39.7H135Z"/>
    <path class="st0" d="M2457,0c74.2,0,135,60.8,135,135v1890c0,74.2-60.8,135-135,135H135c-74.2,0-135-60.8-135-135V135C0,60.8,60.8,0,135,0h2322M2457-.2H135C99-.2,65.1,13.9,39.5,39.5,13.9,65.1-.2,99-.2,135v1890c0,36,14.1,69.9,39.7,95.5,25.6,25.6,59.5,39.7,95.5,39.7h2322c36,0,69.9-14.1,95.5-39.7,25.6-25.6,39.7-59.5,39.7-95.5V135c0-36-14.1-69.9-39.7-95.5-25.6-25.6-59.5-39.7-95.5-39.7h0Z"/>
  </g>
  <path class="st0" d="M2457,2124H135c-54.4,0-99-44.5-99-99V135c0-54.4,44.6-99,99-99h2322c54.5,0,99,44.6,99,99v1890c0,54.4-44.5,99-99,99ZM2502,2025V135c0-24.8-20.2-45-45-45H135c-24.8,0-45,20.2-45,45v1890c0,24.8,20.2,45,45,45h2322c24.8,0,45-20.2,45-45Z"/>
  <g>
    <path class="st0" d="M590.1,1782h-51.4v-278.5h-74.2v-45.5h200.9v45.5h-75.4v278.5Z"/>
    <path class="st0" d="M765.2,1641v141h-51.1v-324h117.2c74.3,0,96.5,59.4,96.5,91s-4.5,59.4-50.3,81.1l57.1,151.9h-55.7l-52.3-141h-61.4ZM829.5,1588.7c40.7,0,47.1-29.3,47.1-39.8s-10.6-39.8-44.6-39.8h-66.8v79.6h64.4Z"/>
    <path class="st0" d="M1149.2,1691h-101.7l-32,91h-54.9l112.1-324h51.5l112,324h-54.9l-32-91ZM1065.8,1638.7h65.2l-32-90.9-33.1,90.9Z"/>
    <path class="st0" d="M1335.8,1588.7h94.2v52.3h-94.2v141h-51.1v-324h200.9v51.2h-149.8v79.6Z"/>
    <path class="st0" d="M1585.4,1588.7h94.2v52.3h-94.2v141h-51.1v-324h200.9v51.2h-149.8v79.6Z"/>
    <path class="st0" d="M1783.8,1458h51.8v324h-51.8v-324Z"/>
    <path class="st0" d="M1907,1619.4c0-45.6,9.2-167.1,119.3-167.1s79,19.1,101.2,65.9l-47.7,20.5c-16.6-23.8-24.8-34.1-53.4-34.1-67.8,0-67.1,94.5-67.1,114.8s-1.3,116,69.3,116,39-14.9,50-37.5l48.9,18.2c-18.2,45.1-48.8,71.6-97.8,71.6-116.6,0-122.7-128.8-122.7-168.2Z"/>
  </g>
  <g>
    <path class="st0" d="M1184.9,702h-51.4v-278.5h-74.2v-45.5h200.9v45.5h-75.4v278.5Z"/>
    <path class="st0" d="M1532.6,540c0,11.6,2.5,167.7-115.1,167.7s-115.1-156-115.1-167.7-2.5-167.6,115.1-167.6,115.1,156,115.1,167.6ZM1418.1,655.4c34.9,0,63.3-33.1,63.3-115.4s-28.3-115.4-63.3-115.4-63.3,33-63.3,115.4,28.3,115.4,63.3,115.4Z"/>
  </g>
  <g>
    <path class="st0" d="M572.2,1022.6v219.4h-51.1v-324h51.1l118.3,206.9v-206.9h51.2v324h-45.5l-124-219.4Z"/>
    <path class="st0" d="M812.9,1079.4c0-45.6,9.2-167.1,119.3-167.1s79,19.1,101.2,65.9l-47.7,20.5c-16.6-23.8-24.8-34.1-53.4-34.1-67.8,0-67.1,94.5-67.1,114.8s-1.3,116,69.3,116,39-14.9,50-37.5l48.9,18.2c-18.2,45.1-48.8,71.6-97.8,71.6-116.6,0-122.7-128.8-122.7-168.2Z"/>
    <path class="st0" d="M1601.4,1054.4l-75.1,187.6-75.2-187.6v187.6h-51.3v-324h51.3l75.2,181.9,75.1-181.9h51.3v324h-51.3v-187.6Z"/>
    <path class="st0" d="M1730.4,918h51.8v324h-51.8v-324Z"/>
    <path class="st0" d="M1911.1,1022.6v219.4h-51.1v-324h51.1l118.3,206.9v-206.9h51.2v324h-45.5l-124-219.4Z"/>
    <path class="st0" d="M2269.3,912.4c51.9,0,81.2,19.7,103.1,71.6l-48.9,19.3c-13.6-28.4-27.3-38.6-52.3-38.6-71.2,0-67.1,108.4-67.1,116,0,12.2-2.8,114.8,60.3,114.8s56.9-20.5,56.9-50v-13.6h-59.1v-51.2h110.2v64.8c0,59.1-43.2,102.3-102.3,102.3s-118.2,9.7-118.2-167.7,1.4-167.6,117.4-167.6Z"/>
    <path class="st0" d="M449.8,1080c0,11.6,2.5,167.7-115.1,167.7s-115.1-156-115.1-167.7-2.5-167.6,115.1-167.6,115.1,156,115.1,167.6ZM335.3,1195.4c34.9,0,63.3-33.1,63.3-115.4s-28.3-115.4-63.3-115.4-63.3,33-63.3,115.4,28.3,115.4,63.3,115.4Z"/>
    <path class="st0" d="M1328.5,1080c0,11.6,2.5,167.7-115.1,167.7s-115.1-156-115.1-167.7-2.5-167.6,115.1-167.6,115.1,156,115.1,167.6ZM1214,1195.4c34.9,0,63.3-33.1,63.3-115.4s-28.3-115.4-63.3-115.4-63.3,33-63.3,115.4,28.3,115.4,63.3,115.4Z"/>
  </g>
</svg>