<?xml version="1.0" encoding="UTF-8" standalone="no"?>
<!-- Created with Inkscape (http://www.inkscape.org/) -->

<svg
   version="1.1"
   id="svg1"
   width="2304.6667"
   height="2880.6667"
   viewBox="0 0 2304.6667 2880.6667"
   sodipodi:docname="tmp742qkvbs.pdf"
   xmlns:inkscape="http://www.inkscape.org/namespaces/inkscape"
   xmlns:sodipodi="http://sodipodi.sourceforge.net/DTD/sodipodi-0.dtd"
   xmlns="http://www.w3.org/2000/svg"
   xmlns:svg="http://www.w3.org/2000/svg">
  <defs
     id="defs1" />
  <sodipodi:namedview
     id="namedview1"
     pagecolor="#ffffff"
     bordercolor="#000000"
     borderopacity="0.25"
     inkscape:showpageshadow="2"
     inkscape:pageopacity="0.0"
     inkscape:pagecheckerboard="0"
     inkscape:deskcolor="#d1d1d1">
    <inkscape:page
       x="0"
       y="0"
       inkscape:label="1"
       id="page1"
       width="2304.6667"
       height="2880.6667"
       margin="0"
       bleed="0" />
  </sodipodi:namedview>
  <g
     id="g1"
     inkscape:groupmode="layer"
     inkscape:label="1">
    <g
       id="group-R5">
      <path
         id="path2"
         d="M 17282.5,1082.5 C 17282.5,486 16799,2.5 16202.5,2.5 H 1082.5 C 486.031,2.5 2.5,486 2.5,1082.5 v 19440 c 0,596.5 483.531,1080 1080,1080 h 15120 c 596.5,0 1080,-483.5 1080,-1080 v -19440"
         style="fill:#ffffff;fill-opacity:1;fill-rule:nonzero;stroke:none"
         transform="matrix(0.13333333,0,0,-0.13333333,0,2880.6667)" />
      <path
         id="path3"
         d="M 17282.5,1082.5 C 17282.5,486 16799,2.5 16202.5,2.5 H 1082.5 C 486.031,2.5 2.5,486 2.5,1082.5 v 19440 c 0,596.5 483.531,1080 1080,1080 h 15120 c 596.5,0 1080,-483.5 1080,-1080 z"
         style="fill:none;stroke:#231f20;stroke-width:5;stroke-linecap:butt;stroke-linejoin:miter;stroke-miterlimit:4;stroke-dasharray:none;stroke-opacity:1"
         transform="matrix(0.13333333,0,0,-0.13333333,0,2880.6667)" />
      <path
         id="path4"
         d="m 16202.5,21332.5 h -15120 c -446.637,0 -810,-363.4 -810,-810 v -19440 c 0,-446.598 363.363,-810 810,-810 h 15120 c 446.6,0 810,363.402 810,810 v 19440 c 0,446.6 -363.4,810 -810,810"
         style="fill:#231f20;fill-opacity:1;fill-rule:nonzero;stroke:none"
         transform="matrix(0.13333333,0,0,-0.13333333,0,2880.6667)" />
      <path
         id="path5"
         d="m 16562.5,1082.5 c 0,-198.5 -161.5,-360 -360,-360 h -15120 c -198.508,0 -360,161.5 -360,360 v 19440 c 0,198.5 161.492,360 360,360 h 15120 c 198.5,0 360,-161.5 360,-360 v -19440"
         style="fill:#ffffff;fill-opacity:1;fill-rule:nonzero;stroke:none"
         transform="matrix(0.13333333,0,0,-0.13333333,0,2880.6667)" />
      <path
         id="path6"
         d="M 11090.7,8642.5 9759.5,11537.7 V 8642.5 h -620.19 v 4320 h 620.19 l 1179.9,-2592 v 2592 h 620.2 v -4320 h -468.9"
         style="fill:#231f20;fill-opacity:1;fill-rule:nonzero;stroke:none"
         transform="matrix(0.13333333,0,0,-0.13333333,0,2880.6667)" />
      <path
         id="path7"
         d="m 7542.4,11886.3 c -106.87,378.9 -274.83,545.7 -534.4,545.7 -274.84,0 -442.79,-166.8 -549.67,-530.6 -106.89,-333.4 -137.42,-621.4 -137.42,-1106.5 0,-469.9 45.81,-742.7 137.42,-1091.3 106.88,-363.8 274.83,-530.6 549.67,-530.6 259.57,0 427.53,166.8 534.4,530.6 106.89,348.6 137.41,606.3 137.41,1106.5 0,485 -45.8,757.9 -137.41,1076.2 z M 8031.01,9309.5 C 7817.24,8794.1 7496.59,8566.7 7008,8566.7 c -519.14,0 -824.5,227.4 -1038.26,742.8 -183.25,424.4 -244.32,833.6 -244.32,1500.6 0,651.8 61.07,1091.3 244.32,1500.6 229.02,515.4 534.39,727.6 1038.26,727.6 503.88,0 809.24,-212.2 1023.01,-742.7 183.23,-424.5 244.29,-833.7 244.29,-1485.5 0,-667 -61.06,-1091.4 -244.29,-1500.6"
         style="fill:#231f20;fill-opacity:1;fill-rule:nonzero;stroke:none"
         transform="matrix(0.13333333,0,0,-0.13333333,0,2880.6667)" />
      <path
         id="path8"
         d="m 10308.3,5766.3 c -106.9,378.9 -274.8,545.7 -534.41,545.7 -274.83,0 -442.8,-166.8 -549.67,-530.5 -106.88,-333.5 -137.4,-621.5 -137.4,-1106.6 0,-469.9 45.8,-742.7 137.4,-1091.4 106.87,-363.7 274.84,-530.5 549.67,-530.5 259.61,0 427.51,166.8 534.41,530.5 106.9,348.7 137.4,606.4 137.4,1106.6 0,485 -45.8,757.9 -137.4,1076.2 z m 488.6,-2576.9 c -213.8,-515.3 -534.4,-742.7 -1023.01,-742.7 -519.14,0 -824.5,227.4 -1038.26,742.7 -183.24,424.5 -244.3,833.7 -244.3,1500.7 0,651.8 61.06,1091.4 244.3,1500.6 229.02,515.4 534.41,727.6 1038.26,727.6 503.91,0 809.21,-212.2 1023.01,-742.7 183.2,-424.5 244.3,-833.7 244.3,-1485.5 0,-667 -61.1,-1091.4 -244.3,-1500.7"
         style="fill:#231f20;fill-opacity:1;fill-rule:nonzero;stroke:none"
         transform="matrix(0.13333333,0,0,-0.13333333,0,2880.6667)" />
      <path
         id="path9"
         d="m 13160.7,6236.2 h -635.3 V 5008.4 h 635.3 c 363.1,0 559.7,227.4 559.7,621.5 0,363.8 -226.9,606.3 -559.7,606.3 z m 30.3,-1819 h -665.6 V 2522.5 h -620.2 v 4320 H 13191 c 680.6,0 1134.4,-485 1134.4,-1212.6 0,-788.2 -408.4,-1212.7 -1134.4,-1212.7"
         style="fill:#231f20;fill-opacity:1;fill-rule:nonzero;stroke:none"
         transform="matrix(0.13333333,0,0,-0.13333333,0,2880.6667)" />
      <path
         id="path10"
         d="m 4189.66,4517.5 c -186.91,121.1 -368.38,242.6 -484.24,324.2 -348.28,245.1 -532.76,576 -532.76,954.9 0,621.5 487.1,1121.7 1111.2,1121.7 608.87,0 1080.75,-469.9 1095.97,-1121.7 h -593.66 c -15.2,303.2 -228.32,500.2 -502.31,500.2 -289.22,0 -517.55,-212.2 -517.55,-500.2 0,-212.2 91.33,-333.5 410.99,-515.4 837.2,-485 1202.53,-954.9 1202.53,-1576.4 0,-697.3 -532.77,-1258.1 -1202.53,-1258.1 -761.1,0 -1217.75,636.6 -1217.75,1349.1 h 608.87 c 0,-363.8 182.67,-742.8 608.88,-742.8 334.89,0 608.87,303.2 608.87,651.8 0,270.7 -111.85,498.7 -596.51,812.7"
         style="fill:#231f20;fill-opacity:1;fill-rule:nonzero;stroke:none"
         transform="matrix(0.13333333,0,0,-0.13333333,0,2880.6667)" />
      <path
         id="path11"
         d="m 7182.41,6266.5 v -3744 h -623.27 v 3744 h -790.51 v 576 h 2204.28 v -576 h -790.5"
         style="fill:#231f20;fill-opacity:1;fill-rule:nonzero;stroke:none"
         transform="matrix(0.13333333,0,0,-0.13333333,0,2880.6667)" />
      <path
         id="path12"
         d="m 8390.23,17794.1 -303.95,-1243 h 623.11 z m 775.06,-3031.6 -303.94,1182.3 h -927.02 l -288.75,-1182.3 h -623.09 l 1078.99,4320 h 607.91 l 1078.99,-4320 h -623.09"
         style="fill:#231f20;fill-opacity:1;fill-rule:nonzero;stroke:none"
         transform="matrix(0.13333333,0,0,-0.13333333,0,2880.6667)" />
      <path
         id="path13"
         d="m 10393.2,14762.5 v 4320 h 604.8 v -4320 h -604.8"
         style="fill:#231f20;fill-opacity:1;fill-rule:nonzero;stroke:none"
         transform="matrix(0.13333333,0,0,-0.13333333,0,2880.6667)" />
      <path
         id="path14"
         d="m 13016.6,18506.5 v -3744 h -623.3 v 3744 h -790.5 v 576 h 2204.3 v -576 h -790.5"
         style="fill:#231f20;fill-opacity:1;fill-rule:nonzero;stroke:none"
         transform="matrix(0.13333333,0,0,-0.13333333,0,2880.6667)" />
      <path
         id="path15"
         d="M 6063.62,14762.5 H 5531.29 L 5120.61,17021 4709.93,14762.5 h -547.56 l -684.44,4320 h 608.39 l 365.06,-2304 425.88,2304 h 486.71 l 410.67,-2304 380.26,2304 h 608.39 l -699.67,-4320"
         style="fill:#231f20;fill-opacity:1;fill-rule:nonzero;stroke:none"
         transform="matrix(0.13333333,0,0,-0.13333333,0,2880.6667)" />
    </g>
  </g>
</svg>
