<?xml version="1.0" encoding="UTF-8" standalone="no"?>
<!-- Created with Inkscape (http://www.inkscape.org/) -->

<svg
   version="1.1"
   id="svg1"
   width="1152.6667"
   height="3456.6667"
   viewBox="0 0 1152.6667 3456.6667"
   sodipodi:docname="tmps0pw3z08.pdf"
   xmlns:inkscape="http://www.inkscape.org/namespaces/inkscape"
   xmlns:sodipodi="http://sodipodi.sourceforge.net/DTD/sodipodi-0.dtd"
   xmlns="http://www.w3.org/2000/svg"
   xmlns:svg="http://www.w3.org/2000/svg">
  <defs
     id="defs1" />
  <sodipodi:namedview
     id="namedview1"
     pagecolor="#ffffff"
     bordercolor="#000000"
     borderopacity="0.25"
     inkscape:showpageshadow="2"
     inkscape:pageopacity="0.0"
     inkscape:pagecheckerboard="0"
     inkscape:deskcolor="#d1d1d1">
    <inkscape:page
       x="0"
       y="0"
       inkscape:label="1"
       id="page1"
       width="1152.6667"
       height="3456.6667"
       margin="0"
       bleed="0" />
  </sodipodi:namedview>
  <g
     id="g1"
     inkscape:groupmode="layer"
     inkscape:label="1">
    <g
       id="group-R5">
      <path
         id="path2"
         d="M 8642.5,1082.5 C 8642.5,486 8158.96,2.5 7562.5,2.5 h -6480 C 486.035,2.5 2.5,486 2.5,1082.5 v 23760 c 0,596.5 483.535,1080 1080,1080 h 6480 c 596.46,0 1080,-483.5 1080,-1080 v -23760"
         style="fill:#b3dc26;fill-opacity:1;fill-rule:nonzero;stroke:none"
         transform="matrix(0.13333333,0,0,-0.13333333,0,3456.6667)" />
      <path
         id="path3"
         d="M 8642.5,1082.5 C 8642.5,486 8158.96,2.5 7562.5,2.5 h -6480 C 486.035,2.5 2.5,486 2.5,1082.5 v 23760 c 0,596.5 483.535,1080 1080,1080 h 6480 c 596.46,0 1080,-483.5 1080,-1080 z"
         style="fill:none;stroke:#231f20;stroke-width:5;stroke-linecap:butt;stroke-linejoin:miter;stroke-miterlimit:4;stroke-dasharray:none;stroke-opacity:1"
         transform="matrix(0.13333333,0,0,-0.13333333,0,3456.6667)" />
      <path
         id="path4"
         d="m 7922.5,4682.5 c 0,-397.6 -322.36,-720 -720,-720 h -5760 c -397.65,0 -720,322.4 -720,720 v 15840 c 0,397.7 322.35,720 720,720 h 5760 c 397.64,0 720,-322.3 720,-720 v -15840"
         style="fill:#231f20;fill-opacity:1;fill-rule:nonzero;stroke:none"
         transform="matrix(0.13333333,0,0,-0.13333333,0,3456.6667)" />
      <path
         id="path5"
         d="m 1442.5,4142.5 c -297.76,0 -540,242.2 -540,540 v 15840 c 0,297.8 242.24,540 540,540 h 5760 c 297.75,0 540,-242.2 540,-540 v -15840 c 0,-297.8 -242.25,-540 -540,-540 h -5760"
         style="fill:#ffffff;fill-opacity:1;fill-rule:nonzero;stroke:none"
         transform="matrix(0.13333333,0,0,-0.13333333,0,3456.6667)" />
      <path
         id="path6"
         d="m 3281.95,25000.4 v -1237.9 h -228.34 v 1237.9 h -329.87 v 202.1 h 893.15 v -202.1 h -334.94"
         style="fill:#231f20;fill-opacity:1;fill-rule:nonzero;stroke:none"
         transform="matrix(0.13333333,0,0,-0.13333333,0,3456.6667)" />
      <path
         id="path7"
         d="m 5572.64,25000.4 v -1237.9 h -228.36 v 1237.9 h -329.87 v 202.1 h 893.17 v -202.1 h -334.94"
         style="fill:#231f20;fill-opacity:1;fill-rule:nonzero;stroke:none"
         transform="matrix(0.13333333,0,0,-0.13333333,0,3456.6667)" />
      <path
         id="path8"
         d="m 2467.07,23848.4 c -80.85,-70.7 -192.01,-111.2 -313.28,-111.2 -247.6,0 -429.5,146.6 -525.52,363.8 l 217.29,80.9 c 60.63,-136.5 171.79,-212.2 308.23,-212.2 131.38,0 222.32,90.9 222.32,212.2 0,192 -222.32,222.3 -409.29,298.1 -85.89,35.3 -277.9,121.2 -277.9,358.7 0,283 192.01,389.1 449.71,389.1 202.11,0 338.55,-116.2 409.28,-293.1 l -202.11,-60.6 c 0,0 -50.53,121.2 -212.23,126.3 -106.11,5 -232.44,-35.4 -222.33,-166.7 20.22,-267.8 697.31,-91 697.31,-656.9 0,-131.4 -50.53,-247.6 -141.48,-328.4"
         style="fill:#231f20;fill-opacity:1;fill-rule:nonzero;stroke:none"
         transform="matrix(0.13333333,0,0,-0.13333333,0,3456.6667)" />
      <path
         id="path9"
         d="m 6123.56,23762.5 v 1440 h 847.75 v -227.4 h -620.68 v -353.7 h 418.84 V 24389 h -418.84 v -394.1 h 666.1 v -232.4 h -893.17"
         style="fill:#231f20;fill-opacity:1;fill-rule:nonzero;stroke:none"
         transform="matrix(0.13333333,0,0,-0.13333333,0,3456.6667)" />
      <path
         id="path10"
         d="m 4318.2,24803.3 -147.38,-404.2 h 289.67 z m 365.88,-1040.8 -142.28,404.2 h -452.29 l -142.28,-404.2 H 3703.3 l 498.01,1440 H 4430 l 498.01,-1440 h -243.93"
         style="fill:#231f20;fill-opacity:1;fill-rule:nonzero;stroke:none"
         transform="matrix(0.13333333,0,0,-0.13333333,0,3456.6667)" />
      <path
         id="path11"
         d="m 2536.01,21782.5 v 1440 h 227.07 v -1227.8 h 666.08 v -212.2 h -893.15"
         style="fill:#231f20;fill-opacity:1;fill-rule:nonzero;stroke:none"
         transform="matrix(0.13333333,0,0,-0.13333333,0,3456.6667)" />
      <path
         id="path12"
         d="m 5896.11,21782.5 h -202.72 l -228.09,924.6 -223.01,-924.6 h -202.74 l -212.87,1440 h 233.14 l 111.51,-757.9 182.46,757.9 h 223.02 l 187.53,-757.9 111.51,757.9 h 233.14 l -212.88,-1440"
         style="fill:#231f20;fill-opacity:1;fill-rule:nonzero;stroke:none"
         transform="matrix(0.13333333,0,0,-0.13333333,0,3456.6667)" />
      <path
         id="path13"
         d="m 4130.46,22823.3 -147.37,-404.2 h 289.66 z m 365.89,-1040.8 -142.29,404.2 h -452.28 l -142.29,-404.2 h -243.93 l 498.01,1440 h 228.7 l 498,-1440 h -243.92"
         style="fill:#231f20;fill-opacity:1;fill-rule:nonzero;stroke:none"
         transform="matrix(0.13333333,0,0,-0.13333333,0,3456.6667)" />
      <path
         id="path14"
         d="m 5655.04,9503.5 297.05,-453.9 -74.26,-280.4 -99.22,-25 z m -1930.78,-1015.3 -90.9,-16.1 82.58,371.3 74.27,-156.8 z m 2145.25,-469.9 676.66,197.8 -181.79,660 -172.88,-24.3 57.64,354.6 -553.1,1048 -297.05,131.9 -49.31,115.2 c -37.13,-29.7 -75.74,-54.9 -119.71,-73 -44.56,-18.1 -93.27,-30.6 -141.39,-32.7 -34.46,-1.5 -68.02,0.6 -101.89,7.1 l -16.64,-99.2 -231.09,-214.5 -288.74,-973.7 -420.6,-173.4 -239.41,528.1 -362.99,206.2 c -29.42,-16.7 -59.12,-32.1 -91.79,-41.6 -30.3,-8.6 -61.48,-17 -93.27,-17.3 -46.35,-0.6 -92.38,5.4 -136.94,17.9 h -8.32 l -255.44,-272.1 -256.06,-816.9 -486.56,-462.2 140.19,-131.9 577.46,379.6 74.26,304.8 90.9,-280.4 -371.31,-1146.6 131.9,-41.6 -387.94,-1460.2 206.74,-74.3 552.5,1460.3 222.78,-16.7 610.72,-1418.7 214.47,66 -437.25,1377.7 c 44.25,9.8 87.93,22.3 132.48,32.1 38.91,8.9 77.23,21.3 115.25,33.8 l -222.77,685 552.49,131.9 -115.25,561.4 h -131.89 l 90.3,140.2 -16.04,32.7 478.24,132.5 123.57,214.4 181.79,-759.2 -354.67,-1122.2 -99.22,-1708 387.94,-33.3 140.21,1419.3 239.41,528.1 181.2,-726 676.68,-1262.4 354.65,173.5 -635.08,1311.7 65.96,1130.6"
         style="fill:#231f20;fill-opacity:1;fill-rule:evenodd;stroke:none"
         transform="matrix(0.13333333,0,0,-0.13333333,0,3456.6667)" />
      <path
         id="path15"
         d="m 4744,10530.7 c 147.93,-101 345.77,-104.3 493.7,-2.1 127.43,87.9 190.69,216.2 194.56,369.2 3.56,146.1 -73.68,287.2 -193.68,369.2 -123.27,84.1 -280.71,98.6 -417.64,40.1 -162.78,-69.8 -271.5,-231.7 -271.5,-409.3 -0.3,-146.1 73.97,-284.9 194.56,-367.1"
         style="fill:#231f20;fill-opacity:1;fill-rule:evenodd;stroke:none"
         transform="matrix(0.13333333,0,0,-0.13333333,0,3456.6667)" />
      <path
         id="path16"
         d="m 3361.87,9709.6 c 159.2,68 258.13,216 263.18,388 4.16,138.7 -77.83,278.3 -191.9,353.2 -163.37,106.6 -389.42,83.7 -526.95,-54.4 -137.53,-137.8 -162.48,-363.6 -54.96,-527 110.22,-167.5 324.68,-239.1 510.63,-159.8"
         style="fill:#231f20;fill-opacity:1;fill-rule:evenodd;stroke:none"
         transform="matrix(0.13333333,0,0,-0.13333333,0,3456.6667)" />
      <path
         id="path17"
         d="m 4842.87,2342.5 v 488.8 h -294.98 v -488.8 h -155.06 v 1080 h 155.06 v -439.6 h 294.98 v 439.6 h 155.04 v -1080 h -155.04"
         style="fill:#231f20;fill-opacity:1;fill-rule:nonzero;stroke:none"
         transform="matrix(0.13333333,0,0,-0.13333333,0,3456.6667)" />
      <path
         id="path18"
         d="m 3388.16,2342.5 v 1080 h 151.21 v -1080 h -151.21"
         style="fill:#231f20;fill-opacity:1;fill-rule:nonzero;stroke:none"
         transform="matrix(0.13333333,0,0,-0.13333333,0,3456.6667)" />
      <path
         id="path19"
         d="m 5235.51,2342.5 v 1080 h 151.19 v -1080 h -151.19"
         style="fill:#231f20;fill-opacity:1;fill-rule:nonzero;stroke:none"
         transform="matrix(0.13333333,0,0,-0.13333333,0,3456.6667)" />
      <path
         id="path20"
         d="m 6112.15,2342.5 -332.79,723.8 v -723.8 h -155.04 v 1080 h 155.04 l 294.98,-648 v 648 h 155.04 v -1080 h -117.23"
         style="fill:#231f20;fill-opacity:1;fill-rule:nonzero;stroke:none"
         transform="matrix(0.13333333,0,0,-0.13333333,0,3456.6667)" />
      <path
         id="path21"
         d="m 4044.01,3278.5 v -936 h -155.82 v 936 h -197.62 v 144 h 551.07 v -144 h -197.63"
         style="fill:#231f20;fill-opacity:1;fill-rule:nonzero;stroke:none"
         transform="matrix(0.13333333,0,0,-0.13333333,0,3456.6667)" />
      <path
         id="path22"
         d="m 3062.05,2342.5 h -133.09 l -102.66,564.6 -102.68,-564.6 h -136.88 l -171.11,1080 h 152.09 l 91.26,-576 106.48,576 h 121.68 l 102.66,-576 95.07,576 h 152.09 l -174.91,-1080"
         style="fill:#231f20;fill-opacity:1;fill-rule:nonzero;stroke:none"
         transform="matrix(0.13333333,0,0,-0.13333333,0,3456.6667)" />
      <path
         id="path23"
         d="m 5944.77,1480.4 -75.98,-310.8 h 155.76 z m 193.77,-757.9 -75.98,295.6 H 5830.8 l -72.19,-295.6 h -155.78 l 269.75,1080 h 151.97 l 269.77,-1080 h -155.78"
         style="fill:#231f20;fill-opacity:1;fill-rule:nonzero;stroke:none"
         transform="matrix(0.13333333,0,0,-0.13333333,0,3456.6667)" />
      <path
         id="path24"
         d="m 1341.19,1514.5 c -15.21,106.1 -57.08,155.4 -129.38,155.4 -125.58,0 -171.24,-98.6 -171.24,-379 0,-310.701 53.27,-435.798 186.46,-435.798 91.33,0 114.16,75.8 114.16,155.398 h 156.03 c -3.81,-178.098 -117.97,-307 -270.19,-307 -232.132,0 -334.882,185.699 -334.882,583.6 0,348.7 110.362,534.3 323.472,534.3 87.51,0 163.63,-37.8 213.1,-109.9 41.86,-53 57.08,-98.5 68.5,-197 h -156.03"
         style="fill:#231f20;fill-opacity:1;fill-rule:nonzero;stroke:none"
         transform="matrix(0.13333333,0,0,-0.13333333,0,3456.6667)" />
      <path
         id="path25"
         d="m 7590.23,722.5 -189.08,526.7 -98.32,-181.9 V 722.5 h -155.06 v 1080 h 155.06 v -432 l 245.8,432 h 177.76 l -223.13,-379 249.59,-701 h -162.62"
         style="fill:#231f20;fill-opacity:1;fill-rule:nonzero;stroke:none"
         transform="matrix(0.13333333,0,0,-0.13333333,0,3456.6667)" />
      <path
         id="path26"
         d="m 6445.51,722.5 v 1080 h 155.82 v -936 h 395.25 v -144 h -551.07"
         style="fill:#231f20;fill-opacity:1;fill-rule:nonzero;stroke:none"
         transform="matrix(0.13333333,0,0,-0.13333333,0,3456.6667)" />
      <path
         id="path27"
         d="m 2934.54,1533.4 c -26.72,94.8 -68.71,136.5 -133.61,136.5 -68.7,0 -110.69,-41.7 -137.41,-132.7 -26.72,-83.3 -34.35,-155.3 -34.35,-276.6 0,-117.5 11.44,-185.7 34.35,-272.799 26.72,-91 68.71,-132.699 137.41,-132.699 64.9,0 106.89,41.699 133.61,132.699 26.71,87.099 34.35,151.499 34.35,276.599 0,121.3 -11.45,189.5 -34.35,269 z M 3056.68,889.199 C 3003.25,760.402 2923.09,703.5 2800.93,703.5 c -129.78,0 -206.12,56.902 -259.56,185.699 -45.81,106.102 -61.07,208.501 -61.07,375.201 0,162.9 15.26,272.8 61.07,375.2 57.26,128.8 133.6,181.8 259.56,181.8 125.97,0 202.32,-53 255.75,-185.6 45.82,-106.1 61.08,-208.5 61.08,-371.4 0,-166.7 -15.26,-272.798 -61.08,-375.201"
         style="fill:#231f20;fill-opacity:1;fill-rule:nonzero;stroke:none"
         transform="matrix(0.13333333,0,0,-0.13333333,0,3456.6667)" />
      <path
         id="path28"
         d="m 2027.1,1650.9 h -158.83 v -272.8 h 158.83 c 90.77,0 139.93,49.2 139.93,136.4 0,83.4 -56.73,136.4 -139.93,136.4 z m 132.36,-928.4 -143.7,507.8 H 1868.27 V 722.5 h -155.05 v 1080 h 321.44 c 170.18,0 283.64,-113.7 283.64,-288 0,-128.8 -52.95,-223.6 -155.05,-261.5 L 2318.3,722.5 h -158.84"
         style="fill:#231f20;fill-opacity:1;fill-rule:nonzero;stroke:none"
         transform="matrix(0.13333333,0,0,-0.13333333,0,3456.6667)" />
      <path
         id="path29"
         d="m 3587.28,1221.3 c -46.73,30.2 -92.1,60.6 -121.06,81 -87.07,61.3 -133.19,144 -133.19,238.7 0,155.4 121.77,280.4 277.8,280.4 152.22,0 270.19,-117.4 273.99,-280.4 h -148.41 c -3.81,75.8 -57.08,125.1 -125.58,125.1 -72.3,0 -129.39,-53.1 -129.39,-125.1 0,-53 22.83,-83.3 102.75,-128.8 209.3,-121.3 300.63,-238.8 300.63,-394.1 0,-174.299 -133.19,-314.498 -300.63,-314.498 -190.27,0 -304.44,159.097 -304.44,337.198 h 152.22 c 0,-90.898 45.67,-185.698 152.22,-185.698 83.72,0 152.22,75.8 152.22,162.998 0,67.7 -27.97,124.7 -149.13,203.2"
         style="fill:#231f20;fill-opacity:1;fill-rule:nonzero;stroke:none"
         transform="matrix(0.13333333,0,0,-0.13333333,0,3456.6667)" />
      <path
         id="path30"
         d="m 4321.95,1221.3 c -46.73,30.2 -92.1,60.6 -121.06,81 -87.07,61.3 -133.19,144 -133.19,238.7 0,155.4 121.77,280.4 277.8,280.4 152.21,0 270.18,-117.4 273.99,-280.4 h -148.42 c -3.8,75.8 -57.08,125.1 -125.57,125.1 -72.31,0 -129.39,-53.1 -129.39,-125.1 0,-53 22.83,-83.3 102.75,-128.8 209.3,-121.3 300.63,-238.8 300.63,-394.1 0,-174.299 -133.19,-314.498 -300.63,-314.498 -190.28,0 -304.44,159.097 -304.44,337.198 h 152.22 c 0,-90.898 45.66,-185.698 152.22,-185.698 83.72,0 152.21,75.8 152.21,162.998 0,67.7 -27.96,124.7 -149.12,203.2"
         style="fill:#231f20;fill-opacity:1;fill-rule:nonzero;stroke:none"
         transform="matrix(0.13333333,0,0,-0.13333333,0,3456.6667)" />
      <path
         id="path31"
         d="m 5363.13,722.5 h -133.09 l -102.68,564.6 -102.67,-564.6 h -136.88 l -171.11,1080 h 152.09 l 91.27,-576 106.46,576 h 121.68 l 102.68,-576 95.06,576 h 152.09 l -174.9,-1080"
         style="fill:#231f20;fill-opacity:1;fill-rule:nonzero;stroke:none"
         transform="matrix(0.13333333,0,0,-0.13333333,0,3456.6667)" />
      <path
         id="path32"
         d="m 4389.38,13083.8 c -34.17,56.8 -75.97,79.5 -140.54,83.3 -83.58,3.8 -136.76,-37.9 -174.75,-132.6 -26.58,-64.4 -41.78,-162.9 -41.78,-253.9 0,-113.7 22.78,-231.2 64.57,-299.4 34.2,-56.8 79.77,-83.3 148.15,-83.3 79.78,0 129.16,41.7 167.15,136.4 22.79,56.8 41.79,162.9 41.79,246.3 0,121.3 -22.79,231.2 -64.59,303.2 z m 117.76,-739 c -60.78,-83.4 -148.15,-121.3 -262.11,-121.3 -151.93,0 -246.91,60.7 -311.49,193.3 -45.58,91 -75.97,235 -75.97,363.8 0,178.1 45.58,337.3 117.75,439.6 64.59,83.4 151.96,121.2 277.31,121.2 136.75,0 231.72,-60.6 300.09,-193.2 45.59,-94.8 72.19,-231.2 72.19,-367.6 0,-170.5 -41.79,-341 -117.77,-435.8"
         style="fill:#231f20;fill-opacity:1;fill-rule:nonzero;stroke:none"
         transform="matrix(0.13333333,0,0,-0.13333333,0,3456.6667)" />
      <path
         id="path33"
         d="m 5336.2,13133 c -26.52,15.2 -41.68,19 -98.53,19 h -204.65 v -265.3 h 204.65 c 53.06,0 72.01,3.8 98.53,19 41.7,22.7 68.22,68.2 68.22,113.6 0,45.5 -26.52,91 -68.22,113.7 z m 75.8,-890.5 -174.33,469.9 h -204.65 v -469.9 h -170.53 v 1080 h 356.23 c 83.38,0 140.22,-7.6 193.28,-34.1 94.75,-45.5 162.95,-159.2 162.95,-269.1 0,-113.6 -68.2,-227.3 -166.74,-272.8 l 189.5,-504 H 5412"
         style="fill:#231f20;fill-opacity:1;fill-rule:nonzero;stroke:none"
         transform="matrix(0.13333333,0,0,-0.13333333,0,3456.6667)" />
      <path
         id="path34"
         d="m 3217.6,13152 v -265.3 h 314.11 v -174.3 H 3217.6 v -469.9 h -170.31 v 1080 h 669.87 V 13152 H 3217.6"
         style="fill:#231f20;fill-opacity:1;fill-rule:nonzero;stroke:none"
         transform="matrix(0.13333333,0,0,-0.13333333,0,3456.6667)" />
      <path
         id="path35"
         d="m 1532.5,18168.4 1634.65,1634.1 H 5475.5 l 1637,-1634.1 v -2311.8 l -1637,-1634.1 H 3167.15 L 1532.5,15856.6 v 2311.8"
         style="fill:#bf2519;fill-opacity:1;fill-rule:evenodd;stroke:none"
         transform="matrix(0.13333333,0,0,-0.13333333,0,3456.6667)" />
      <path
         id="path36"
         d="m 2304.59,16000.5 c -342.72,0 -548.35,287.9 -548.35,610 h 274.18 c 0,-164.5 82.25,-335.8 274.17,-335.8 150.8,0 274.18,137.1 274.18,294.7 0,109.7 -41.13,191.9 -157.65,281 -41.13,41.2 68.54,-34.2 -329.01,233.1 -157.66,109.7 -239.91,260.5 -239.91,431.8 0,281.1 219.34,507.3 500.37,507.3 274.18,0 486.67,-212.5 493.53,-507.3 h -267.33 c -6.86,137.1 -102.81,226.2 -226.2,226.2 -130.23,0 -233.05,-95.9 -233.05,-226.2 0,-95.9 41.13,-150.8 185.07,-233 377,-219.4 541.51,-431.9 541.51,-712.9 0,-315.3 -239.91,-568.9 -541.51,-568.9"
         style="fill:#ffffff;fill-opacity:1;fill-rule:nonzero;stroke:none"
         transform="matrix(0.13333333,0,0,-0.13333333,0,3456.6667)" />
      <path
         id="path37"
         d="m 3661.73,17727.8 v -1693 h -281.02 v 1693 h -356.43 v 260.5 h 993.89 v -260.5 h -356.44"
         style="fill:#ffffff;fill-opacity:1;fill-rule:nonzero;stroke:none"
         transform="matrix(0.13333333,0,0,-0.13333333,0,3456.6667)" />
      <path
         id="path38"
         d="m 5066.82,17501.6 c -47.99,171.4 -123.38,246.8 -239.92,246.8 -123.36,0 -198.77,-75.4 -246.74,-239.9 -47.99,-150.8 -61.69,-281.1 -61.69,-500.4 0,-212.5 20.55,-335.9 61.69,-493.5 47.97,-164.5 123.38,-239.9 246.74,-239.9 116.54,0 191.93,75.4 239.92,239.9 47.98,157.6 61.68,274.2 61.68,500.4 0,219.3 -20.56,342.7 -61.68,486.6 z m 219.33,-1165.2 c -95.95,-233.1 -239.9,-335.9 -459.25,-335.9 -233.05,0 -370.13,102.8 -466.08,335.9 -82.27,191.9 -109.68,377 -109.68,678.6 0,294.7 27.41,493.5 109.68,678.5 102.8,233.1 239.89,329.1 466.08,329.1 226.22,0 363.3,-96 459.25,-335.9 82.27,-191.9 109.69,-377 109.69,-671.7 0,-301.6 -27.42,-493.6 -109.69,-678.6"
         style="fill:#ffffff;fill-opacity:1;fill-rule:nonzero;stroke:none"
         transform="matrix(0.13333333,0,0,-0.13333333,0,3456.6667)" />
      <path
         id="path39"
         d="m 6355.42,17714.1 h -287.88 v -555.2 h 287.88 c 164.5,0 253.61,102.8 253.61,281 0,164.5 -102.81,274.2 -253.61,274.2 z m 13.72,-822.5 h -301.6 v -856.8 H 5786.5 v 1953.5 h 582.64 c 308.44,0 514.06,-219.4 514.06,-548.4 0,-356.4 -185.07,-548.3 -514.06,-548.3"
         style="fill:#ffffff;fill-opacity:1;fill-rule:nonzero;stroke:none"
         transform="matrix(0.13333333,0,0,-0.13333333,0,3456.6667)" />
    </g>
  </g>
</svg>
