<?xml version="1.0" encoding="UTF-8"?>
<svg id="For_Sheets" xmlns="http://www.w3.org/2000/svg" version="1.1" viewBox="0 0 3456 2592">
  <!-- Generator: Adobe Illustrator 29.1.0, SVG Export Plug-In . SVG Version: 2.1.0 Build 142)  -->
  <defs>
    <style>
      .st0 {
        fill: #010101;
      }

      .st1 {
        fill: #231f20;
      }

      .st2 {
        fill: #fff;
      }
    </style>
  </defs>
  <g>
    <path class="st2" d="M162,2592.1c-89.4,0-162.1-72.7-162.1-162.1V162C-.1,72.6,72.6-.1,162-.1h3132c89.4,0,162.1,72.7,162.1,162.1v2268c0,89.4-72.7,162.1-162.1,162.1H162Z"/>
    <path class="st1" d="M3294,0c89.5,0,162,72.5,162,162v2268c0,89.5-72.5,162-162,162H162c-89.5,0-162-72.5-162-162V162C0,72.5,72.5,0,162,0h3132M3294-.2H162C118.7-.2,77.9,16.6,47.3,47.3,16.6,77.9-.2,118.7-.2,162v2268c0,43.3,16.9,84.1,47.5,114.7,30.6,30.6,71.4,47.5,114.7,47.5h3132c43.3,0,84.1-16.9,114.7-47.5,30.6-30.6,47.5-71.4,47.5-114.7V162c0-43.3-16.9-84.1-47.5-114.7-30.6-30.6-71.4-47.5-114.7-47.5h0Z"/>
  </g>
  <path class="st1" d="M3294,45H162c-64.5,0-117,52.5-117,117v2268c0,64.5,52.5,117,117,117h3132c64.5,0,117-52.5,117-117V162c0-64.5-52.5-117-117-117ZM3348,2430c0,29.8-24.2,54-54,54H162c-29.8,0-54-24.2-54-54V162c0-29.8,24.2-54,54-54h3132c29.8,0,54,24.2,54,54v2268Z"/>
  <g>
    <path class="st1" d="M1038,1744.4h167.5v93h-167.5v250.6h-90.9v-576h357.3v90.9h-266.4v141.5Z"/>
    <path class="st1" d="M1390.8,1512h92.2v576h-92.2v-576Z"/>
    <path class="st1" d="M1712.1,1698v390h-90.9v-576h90.9l210.2,367.8v-367.8h91v576h-80.9l-220.4-390Z"/>
    <path class="st1" d="M2151.6,1512h339.1v90.9h-248.2v141.5h167.5v93h-167.5v157.7h266.4v93h-357.3v-576Z"/>
  </g>
  <g>
    <g>
      <path class="st1" d="M1454.4,613.2h-52v-72.8h6c24,0,50-14.1,66-36.4h72v576h-92v-466.8Z"/>
      <path class="st1" d="M1673.2,1057.8l44.4-80.9c24.3,12.2,66.7,20.2,109.1,20.2,82.9,0,147.5-54.8,147.5-129.3s-45.9-101.1-103.1-101.1-58.6,12.1-92.9,60.6l-90.9-26.3,14.3-297.1h331.4v90.9h-242.6l-6,95c42.5-12.1,60.6-16.1,88.9-16.1,105.3,0,191.9,87.5,191.9,194s-105,222.3-250.6,222.3-101.1-12.1-141.5-32.3Z"/>
      <path class="st1" d="M2589.7,792c0,20.7,4.4,298.1-204.6,298.1s-204.6-277.4-204.6-298.1-4.4-298,204.6-298,204.6,277.3,204.6,298ZM2386.1,997.2c62.1,0,112.5-58.8,112.5-205.2s-50.4-205.2-112.5-205.2-112.5,58.8-112.5,205.2,50.4,205.2,112.5,205.2Z"/>
    </g>
    <path class="st0" d="M1201.8,1046.7c-20.2,18.2-58.6,36.4-88.9,44.5v72.8h-91s-2-78.8,0-80.8c-70.7-16.2-125.3-66.7-155.6-137.4l86.9-32.3c24.3,54.6,68.7,84.9,123.3,84.9s88.9-36.4,88.9-84.9c0-76.8-88.9-88.9-163.7-119.2-34.4-14.1-111.2-48.5-111.2-143.5s52.6-139.5,131.4-151.6v-78.8h91v78.8c58.6,14.1,99,54.6,121.3,113.2l-80.8,24.3s-20.2-48.5-84.9-50.5c-42.4-2-93,14.2-88.9,66.7,8.1,107.1,278.9,36.4,278.9,262.7s-20.2,99-56.6,131.4"/>
  </g>
</svg>