<?xml version="1.0" standalone="no"?>
<svg width="2592px" height="1728px" viewBox="0 -936 2592 1728 " xmlns="http://www.w3.org/2000/svg" xmlns:xlink="http://www.w3.org/1999/xlink">
<title>generated by pstoedit</title>
<!-- generated by pstoedit version:4.02 -->
<g xml:space='preserve'>
<clipPath id="clippath1"> 	<path d="
	M 0 -936.5 
	L 0 792 
	L 2592.5 792 
	L 2592.5 -936.5 
	Z 
	" style="clip-rule:nonzero"/>
</clipPath>
<g style="clip-path:url(#clippath1)"> 
<g fill="#ffffff" fill-rule="nonzero" stroke-width="0" stroke-linejoin="miter" stroke-linecap="butt" stroke-miterlimit="10" >
	<path d="
	M 2592.25 683.75 
	C 2592.25 743.398 2543.9 791.75 2484.25 791.75 
	L 108.25 791.75 
	C 48.6016 791.75 0.25 743.398 0.25 683.75 
	L 0.25 -828.25 
	C 0.25 -887.89 48.6016 -936.25 108.25 -936.25 
	L 2484.25 -936.25 
	C 2543.9 -936.25 2592.25 -887.89 2592.25 -828.25 
	Z 
	"/>
</g>
<g stroke="#7f7f7f" fill="none" stroke-width="0.5" stroke-linejoin="miter" stroke-linecap="butt" stroke-miterlimit="4" >
	<path d="
	M 2592.25 683.75 
	C 2592.25 743.398 2543.9 791.75 2484.25 791.75 
	L 108.25 791.75 
	C 48.6016 791.75 0.25 743.398 0.25 683.75 
	L 0.25 -828.25 
	C 0.25 -887.89 48.6016 -936.25 108.25 -936.25 
	L 2484.25 -936.25 
	C 2543.9 -936.25 2592.25 -887.89 2592.25 -828.25 
	Z 
	"/>
</g>
<g fill="#7f7f7f" fill-rule="nonzero" stroke-width="0" stroke-linejoin="miter" stroke-linecap="butt" stroke-miterlimit="4" >
	<path d="
	M 108.25 764.75 
	C 63.5859 764.75 27.25 728.41 27.25 683.75 
	L 27.25 -828.25 
	C 27.25 -872.91 63.5859 -909.25 108.25 -909.25 
	L 2484.25 -909.25 
	C 2528.91 -909.25 2565.25 -872.91 2565.25 -828.25 
	L 2565.25 683.75 
	C 2565.25 728.41 2528.91 764.75 2484.25 764.75 
	Z 
	"/>
</g>
<g fill="#ffffff" fill-rule="nonzero" stroke-width="0" stroke-linejoin="miter" stroke-linecap="butt" stroke-miterlimit="4" >
	<path d="
	M 108.25 719.75 
	C 88.3984 719.75 72.25 703.602 72.25 683.75 
	L 72.25 -828.25 
	C 72.25 -848.1 88.3984 -864.25 108.25 -864.25 
	L 2484.25 -864.25 
	C 2504.1 -864.25 2520.25 -848.1 2520.25 -828.25 
	L 2520.25 683.75 
	C 2520.25 703.602 2504.1 719.75 2484.25 719.75 
	Z 
	"/>
</g>
<g fill="#7f7f7f" fill-rule="nonzero" stroke-width="0" stroke-linejoin="miter" stroke-linecap="butt" stroke-miterlimit="4" >
	<path d="
	M 1026.79 -414.25 
	L 916.641 -609.28 
	L 916.641 -414.25 
	L 871.16 -414.25 
	L 871.16 -702.25 
	L 916.641 -702.25 
	L 1021.74 -518.33 
	L 1021.74 -702.25 
	L 1067.22 -702.25 
	L 1067.22 -414.25 
	Z 
	"/>
</g>
<g fill="#7f7f7f" fill-rule="nonzero" stroke-width="0" stroke-linejoin="miter" stroke-linecap="butt" stroke-miterlimit="4" >
	<path d="
	M 1136.34 -414.25 
	L 1136.34 -702.25 
	L 1181.75 -702.25 
	L 1181.75 -456.69 
	L 1314.97 -456.69 
	L 1314.97 -414.25 
	Z 
	"/>
</g>
<g fill="#7f7f7f" fill-rule="nonzero" stroke-width="0" stroke-linejoin="miter" stroke-linecap="butt" stroke-miterlimit="4" >
	<path d="
	M 788.902 -457.7 
	C 773.742 -429.41 739.387 -409.2 704.016 -409.2 
	C 668.645 -409.2 634.281 -429.41 619.121 -457.7 
	C 611.039 -474.88 605.984 -495.09 605.984 -517.32 
	L 605.984 -702.25 
	L 651.461 -702.25 
	L 651.461 -517.32 
	C 651.461 -479.93 672.684 -455.68 704.016 -455.68 
	C 735.344 -455.68 756.563 -479.93 756.563 -517.32 
	L 756.563 -702.25 
	L 802.043 -702.25 
	L 802.043 -517.32 
	C 802.043 -495.09 796.988 -474.88 788.902 -457.7 
	Z 
	"/>
</g>
<g fill="#7f7f7f" fill-rule="nonzero" stroke-width="0" stroke-linejoin="miter" stroke-linecap="butt" stroke-miterlimit="4" >
	<path d="
	M 1733.36 -431.78 
	C 1717.19 -417.63 1694.96 -409.55 1670.71 -409.55 
	C 1621.19 -409.55 1584.81 -438.86 1565.6 -482.31 
	L 1609.06 -498.48 
	C 1621.19 -471.19 1643.42 -456.04 1670.71 -456.04 
	C 1696.98 -456.04 1715.17 -474.22 1715.17 -498.48 
	C 1715.17 -536.88 1670.71 -542.94 1633.31 -558.1 
	C 1616.13 -565.17 1577.73 -582.35 1577.73 -629.84 
	C 1577.73 -686.43 1616.13 -707.66 1667.68 -707.66 
	C 1708.1 -707.66 1735.38 -684.41 1749.53 -649.04 
	L 1709.11 -636.92 
	C 1709.11 -636.92 1699 -661.17 1666.66 -662.18 
	C 1645.44 -663.19 1620.18 -655.11 1622.2 -628.83 
	C 1626.24 -575.28 1761.66 -610.64 1761.66 -497.46 
	C 1761.66 -471.19 1751.55 -447.95 1733.36 -431.78 
	Z 
	"/>
</g>
<g fill="#7f7f7f" fill-rule="nonzero" stroke-width="0" stroke-linejoin="miter" stroke-linecap="butt" stroke-miterlimit="4" >
	<path d="
	M 1958.22 -431.78 
	C 1942.05 -417.63 1919.82 -409.55 1895.56 -409.55 
	C 1846.04 -409.55 1809.66 -438.86 1790.46 -482.31 
	L 1833.92 -498.48 
	C 1846.04 -471.19 1868.28 -456.04 1895.56 -456.04 
	C 1921.84 -456.04 1940.03 -474.22 1940.03 -498.48 
	C 1940.03 -536.88 1895.56 -542.94 1858.17 -558.1 
	C 1840.99 -565.17 1802.59 -582.35 1802.59 -629.84 
	C 1802.59 -686.43 1840.99 -707.66 1892.53 -707.66 
	C 1932.95 -707.66 1960.24 -684.41 1974.39 -649.04 
	L 1933.96 -636.92 
	C 1933.96 -636.92 1923.86 -661.17 1891.52 -662.18 
	C 1870.3 -663.19 1845.03 -655.11 1847.05 -628.83 
	C 1851.1 -575.28 1986.52 -610.64 1986.52 -497.46 
	C 1986.52 -471.19 1976.41 -447.95 1958.22 -431.78 
	Z 
	"/>
</g>
<g fill="#7f7f7f" fill-rule="nonzero" stroke-width="0" stroke-linejoin="miter" stroke-linecap="butt" stroke-miterlimit="4" >
	<path d="
	M 1358.17 -414.25 
	L 1358.17 -702.25 
	L 1527.72 -702.25 
	L 1527.72 -656.78 
	L 1403.58 -656.78 
	L 1403.58 -586.04 
	L 1487.35 -586.04 
	L 1487.35 -539.55 
	L 1403.58 -539.55 
	L 1403.58 -460.73 
	L 1536.8 -460.73 
	L 1536.8 -414.25 
	Z 
	"/>
</g>
<g fill="#7f7f7f" fill-rule="nonzero" stroke-width="0" stroke-linejoin="miter" stroke-linecap="butt" stroke-miterlimit="4" >
	<path d="
	M 998.617 333.77 
	C 989.5 318.609 978.355 312.551 961.137 311.539 
	C 938.852 310.531 924.668 321.641 914.539 346.91 
	C 907.445 364.09 903.395 390.359 903.395 414.609 
	C 903.395 444.93 909.473 476.25 920.613 494.441 
	C 929.734 509.602 941.891 516.68 960.121 516.68 
	C 981.395 516.68 994.563 505.559 1004.7 480.301 
	C 1010.77 465.141 1015.84 436.84 1015.84 414.609 
	C 1015.84 382.281 1009.76 352.969 998.617 333.77 
	Z 
	M 1030.02 530.82 
	C 1013.81 553.051 990.512 563.16 960.121 563.16 
	C 919.605 563.16 894.277 546.988 877.059 511.621 
	C 864.902 487.371 856.801 448.969 856.801 414.609 
	C 856.801 367.121 868.953 324.68 888.199 297.391 
	C 905.422 275.16 928.723 265.051 962.148 265.051 
	C 998.617 265.051 1023.94 281.219 1042.18 316.59 
	C 1054.33 341.852 1061.42 378.23 1061.42 414.609 
	C 1061.42 460.09 1050.28 505.559 1030.02 530.82 
	Z 
	"/>
</g>
<g fill="#7f7f7f" fill-rule="nonzero" stroke-width="0" stroke-linejoin="miter" stroke-linecap="butt" stroke-miterlimit="4" >
	<path d="
	M 755.691 320.281 
	C 747.605 316.238 742.555 315.219 728.406 315.219 
	L 668.781 315.219 
	L 668.781 385.961 
	L 728.406 385.961 
	C 742.555 385.961 747.605 384.949 755.691 380.91 
	C 765.797 375.859 772.871 362.719 772.871 350.59 
	C 772.871 338.469 765.797 326.34 755.691 320.281 
	Z 
	M 774.895 422.34 
	C 761.758 428.398 744.574 432.449 722.344 432.449 
	L 668.781 432.449 
	L 668.781 557.75 
	L 623.305 557.75 
	L 623.305 269.75 
	L 722.344 269.75 
	C 745.586 269.75 760.742 271.77 774.895 278.852 
	C 800.156 290.969 819.359 321.289 819.359 350.59 
	C 819.359 380.91 800.156 411.23 774.895 422.34 
	Z 
	"/>
</g>
<g fill="#7f7f7f" fill-rule="nonzero" stroke-width="0" stroke-linejoin="miter" stroke-linecap="butt" stroke-miterlimit="4" >
	<path d="
	M 1435.36 310.172 
	L 1435.36 557.75 
	L 1389.69 557.75 
	L 1389.69 310.172 
	L 1323.71 310.172 
	L 1323.71 269.75 
	L 1502.35 269.75 
	L 1502.35 310.172 
	Z 
	"/>
</g>
<g fill="#7f7f7f" fill-rule="nonzero" stroke-width="0" stroke-linejoin="miter" stroke-linecap="butt" stroke-miterlimit="4" >
	<path d="
	M 1272.38 540.219 
	C 1256.21 554.371 1233.98 562.449 1209.72 562.449 
	C 1160.21 562.449 1123.82 533.148 1104.62 489.691 
	L 1148.08 473.531 
	C 1160.21 500.809 1182.44 515.969 1209.72 515.969 
	C 1236 515.969 1254.19 497.781 1254.19 473.531 
	C 1254.19 435.129 1209.72 429.059 1172.33 413.91 
	C 1155.15 406.828 1116.75 389.648 1116.75 342.16 
	C 1116.75 285.57 1155.15 264.352 1206.69 264.352 
	C 1247.12 264.352 1274.4 287.59 1288.55 322.961 
	L 1248.13 335.078 
	C 1248.13 335.078 1238.02 310.828 1205.68 309.82 
	C 1184.46 308.809 1159.19 316.891 1161.21 343.172 
	C 1165.26 396.73 1300.68 361.359 1300.68 474.539 
	C 1300.68 500.809 1290.57 524.051 1272.38 540.219 
	Z 
	"/>
</g>
<g fill="#7f7f7f" fill-rule="nonzero" stroke-width="0" stroke-linejoin="miter" stroke-linecap="butt" stroke-miterlimit="4" >
	<path d="
	M 1899.46 327.352 
	C 1892.39 320.281 1882.29 315.219 1870.16 315.219 
	L 1818.62 315.219 
	L 1818.62 511.27 
	L 1864.09 511.27 
	C 1879.25 511.27 1888.35 508.238 1896.43 500.148 
	C 1913.61 482.969 1922.71 451.648 1922.71 413.25 
	C 1922.71 374.852 1913.61 342.512 1899.46 327.352 
	Z 
	M 1918.67 541.578 
	C 1907.55 551.691 1892.39 556.738 1877.23 557.75 
	C 1874.2 557.75 1868.13 557.75 1861.06 557.75 
	L 1773.14 557.75 
	L 1773.14 269.75 
	L 1866.11 269.75 
	C 1895.42 269.75 1906.54 272.781 1921.7 284.91 
	C 1952.02 311.18 1969.2 356.66 1969.2 413.25 
	C 1969.2 470.852 1951 516.32 1918.67 541.578 
	Z 
	"/>
</g>
<g fill="#7f7f7f" fill-rule="nonzero" stroke-width="0" stroke-linejoin="miter" stroke-linecap="butt" stroke-miterlimit="4" >
	<path d="
	M 1545.55 557.75 
	L 1545.55 269.75 
	L 1715.1 269.75 
	L 1715.1 315.23 
	L 1590.96 315.23 
	L 1590.96 385.961 
	L 1674.73 385.961 
	L 1674.73 432.449 
	L 1590.96 432.449 
	L 1590.96 511.27 
	L 1724.18 511.27 
	L 1724.18 557.75 
	Z 
	"/>
</g>
<g fill="#7f7f7f" fill-rule="nonzero" stroke-width="0" stroke-linejoin="miter" stroke-linecap="butt" stroke-miterlimit="4" >
	<path d="
	M 441.016 -152.23 
	C 431.898 -167.391 420.758 -173.449 403.535 -174.461 
	C 381.246 -175.473 367.066 -164.355 356.938 -139.094 
	C 349.848 -121.914 345.797 -95.641 345.797 -71.391 
	C 345.797 -41.07 351.871 -9.74597 363.016 8.44098 
	C 372.133 23.602 384.285 30.676 402.52 30.676 
	C 423.797 30.676 436.965 19.559 447.094 -5.703 
	C 453.172 -20.859 458.234 -49.156 458.234 -71.391 
	C 458.234 -103.727 452.156 -133.027 441.016 -152.23 
	Z 
	M 472.418 44.82 
	C 456.211 67.051 432.91 77.16 402.52 77.16 
	C 362.004 77.16 336.676 60.988 319.453 25.621 
	C 307.301 1.367 299.195 -37.027 299.195 -71.391 
	C 299.195 -118.883 311.352 -161.324 330.602 -188.609 
	C 347.82 -210.84 371.117 -220.95 404.547 -220.95 
	C 441.016 -220.95 466.34 -204.777 484.574 -169.41 
	C 496.73 -144.145 503.82 -107.766 503.82 -71.391 
	C 503.82 -25.914 492.68 19.559 472.418 44.82 
	Z 
	"/>
</g>
<g fill="#7f7f7f" fill-rule="nonzero" stroke-width="0" stroke-linejoin="miter" stroke-linecap="butt" stroke-miterlimit="4" >
	<path d="
	M 1774.62 71.75 
	L 1774.62 -216.25 
	L 1820.7 -216.25 
	L 1820.7 71.75 
	Z 
	"/>
</g>
<g fill="#7f7f7f" fill-rule="nonzero" stroke-width="0" stroke-linejoin="miter" stroke-linecap="butt" stroke-miterlimit="4" >
	<path d="
	M 652.902 -175.828 
	L 652.902 71.75 
	L 607.23 71.75 
	L 607.23 -175.828 
	L 541.258 -175.828 
	L 541.258 -216.25 
	L 719.891 -216.25 
	L 719.891 -175.828 
	Z 
	"/>
</g>
<g fill="#7f7f7f" fill-rule="nonzero" stroke-width="0" stroke-linejoin="miter" stroke-linecap="butt" stroke-miterlimit="4" >
	<path d="
	M 1382.18 -165.723 
	C 1375.11 -169.766 1371.06 -170.773 1355.9 -170.773 
	L 1301.33 -170.773 
	L 1301.33 -100.039 
	L 1355.9 -100.039 
	C 1370.05 -100.039 1375.11 -101.047 1382.18 -105.09 
	C 1393.3 -111.152 1400.37 -123.281 1400.37 -135.406 
	C 1400.37 -147.531 1393.3 -159.66 1382.18 -165.723 
	Z 
	M 1402.39 71.75 
	L 1355.9 -53.555 
	L 1301.33 -53.555 
	L 1301.33 71.75 
	L 1255.86 71.75 
	L 1255.86 -216.25 
	L 1350.85 -216.25 
	C 1373.09 -216.25 1388.24 -214.23 1402.39 -207.152 
	C 1427.66 -195.027 1445.85 -164.711 1445.85 -135.406 
	C 1445.85 -105.09 1427.66 -74.773 1401.38 -62.645 
	L 1451.91 71.75 
	Z 
	"/>
</g>
<g fill="#7f7f7f" fill-rule="nonzero" stroke-width="0" stroke-linejoin="miter" stroke-linecap="butt" stroke-miterlimit="4" >
	<path d="
	M 1688.84 71.75 
	L 1648.29 71.75 
	L 1602.68 -113.176 
	L 1558.07 71.75 
	L 1517.53 71.75 
	L 1474.95 -216.25 
	L 1521.58 -216.25 
	L 1543.88 -64.668 
	L 1580.38 -216.25 
	L 1624.98 -216.25 
	L 1662.48 -64.668 
	L 1684.79 -216.25 
	L 1731.42 -216.25 
	Z 
	"/>
</g>
<g fill="#7f7f7f" fill-rule="nonzero" stroke-width="0" stroke-linejoin="miter" stroke-linecap="butt" stroke-miterlimit="4" >
	<path d="
	M 2037.42 54.223 
	C 2021.25 68.371 1999.01 76.449 1974.76 76.449 
	C 1925.24 76.449 1888.86 47.148 1869.66 3.69501 
	L 1913.11 -12.473 
	C 1925.24 14.809 1947.47 29.969 1974.76 29.969 
	C 2001.04 29.969 2019.22 11.777 2019.22 -12.473 
	C 2019.22 -50.875 1974.76 -56.938 1937.37 -72.094 
	C 1920.19 -79.168 1881.79 -96.348 1881.79 -143.844 
	C 1881.79 -200.434 1920.19 -221.65 1971.73 -221.65 
	C 2012.15 -221.65 2039.44 -198.41 2053.58 -163.043 
	L 2013.16 -150.918 
	C 2013.16 -150.918 2003.06 -175.168 1970.72 -176.18 
	C 1949.49 -177.188 1924.23 -169.105 1926.25 -142.832 
	C 1930.29 -89.273 2065.71 -124.641 2065.71 -11.465 
	C 2065.71 14.809 2055.61 38.051 2037.42 54.223 
	Z 
	"/>
</g>
<g fill="#7f7f7f" fill-rule="nonzero" stroke-width="0" stroke-linejoin="miter" stroke-linecap="butt" stroke-miterlimit="4" >
	<path d="
	M 913.672 71.75 
	L 913.672 -53.555 
	L 808.566 -53.555 
	L 808.566 71.75 
	L 763.09 71.75 
	L 763.09 -216.25 
	L 808.566 -216.25 
	L 808.566 -100.039 
	L 913.672 -100.039 
	L 913.672 -216.25 
	L 959.148 -216.25 
	L 959.148 71.75 
	Z 
	"/>
</g>
<g fill="#7f7f7f" fill-rule="nonzero" stroke-width="0" stroke-linejoin="miter" stroke-linecap="butt" stroke-miterlimit="4" >
	<path d="
	M 1028.26 71.75 
	L 1028.26 -216.25 
	L 1197.81 -216.25 
	L 1197.81 -170.773 
	L 1073.68 -170.773 
	L 1073.68 -100.035 
	L 1157.45 -100.035 
	L 1157.45 -53.555 
	L 1073.68 -53.555 
	L 1073.68 25.27 
	L 1206.9 25.27 
	L 1206.9 71.75 
	Z 
	"/>
</g>
<g fill="#7f7f7f" fill-rule="nonzero" stroke-width="0" stroke-linejoin="miter" stroke-linecap="butt" stroke-miterlimit="4" >
	<path d="
	M 2114.67 71.75 
	L 2114.67 -216.25 
	L 2284.22 -216.25 
	L 2284.22 -170.773 
	L 2160.08 -170.773 
	L 2160.08 -100.035 
	L 2243.85 -100.035 
	L 2243.85 -53.555 
	L 2160.08 -53.555 
	L 2160.08 25.27 
	L 2293.3 25.27 
	L 2293.3 71.75 
	Z 
	"/>
</g>
</g >
</g>
</svg>
