<?xml version="1.0" encoding="UTF-8" standalone="no"?>
<!-- Created with Inkscape (http://www.inkscape.org/) -->

<svg
   version="1.1"
   id="svg1"
   width="4608.6665"
   height="4608.6665"
   viewBox="0 0 4608.6665 4608.6665"
   sodipodi:docname="tmpi79aeuox.pdf"
   xmlns:inkscape="http://www.inkscape.org/namespaces/inkscape"
   xmlns:sodipodi="http://sodipodi.sourceforge.net/DTD/sodipodi-0.dtd"
   xmlns="http://www.w3.org/2000/svg"
   xmlns:svg="http://www.w3.org/2000/svg">
  <defs
     id="defs1" />
  <sodipodi:namedview
     id="namedview1"
     pagecolor="#ffffff"
     bordercolor="#000000"
     borderopacity="0.25"
     inkscape:showpageshadow="2"
     inkscape:pageopacity="0.0"
     inkscape:pagecheckerboard="0"
     inkscape:deskcolor="#d1d1d1">
    <inkscape:page
       x="0"
       y="0"
       inkscape:label="1"
       id="page1"
       width="4608.6665"
       height="4608.6665"
       margin="0"
       bleed="0" />
  </sodipodi:namedview>
  <g
     id="g1"
     inkscape:groupmode="layer"
     inkscape:label="1">
    <g
       id="group-R5">
      <path
         id="path2"
         d="M 2162.5,1.20313 C 1587.6,1.20313 1045.52,226.699 636.117,636.102 226.719,1045.5 1.25,1587.6 1.25,2162.5 v 30240 c 0,574.9 225.469,1117 634.867,1526.4 409.403,409.4 951.483,634.9 1526.383,634.9 h 30240 c 574.9,0 1117,-225.5 1526.4,-634.9 409.4,-409.4 634.9,-951.5 634.9,-1526.4 v -30240 c 0,-574.9 -225.5,-1117 -634.9,-1526.398 C 33519.5,226.699 32977.4,1.20313 32402.5,1.20313 h -30240"
         style="fill:#ffffff;fill-opacity:1;fill-rule:nonzero;stroke:none"
         transform="matrix(0.13333333,0,0,-0.13333333,0,4608.6667)" />
      <path
         id="path3"
         d="m 32402.5,34565 h -30240 c -290.65,0 -573.15,-57.4 -839.67,-170.6 -257.27,-109.3 -488.615,-265.6 -687.596,-464.6 -198.984,-199 -355.296,-430.4 -464.597,-687.6 C 57.4141,32975.6 0,32693.2 0,32402.5 V 2162.5 C 0,1871.9 57.4141,1589.3 170.637,1322.8 279.938,1065.6 436.25,834.199 635.234,635.199 834.215,436.203 1065.56,279.898 1322.83,170.602 1589.35,57.3984 1871.85,0 2162.5,0 h 30240 c 290.6,0 573.2,57.3984 839.7,170.602 257.2,109.296 488.6,265.601 687.6,464.597 199,199 355.3,430.401 464.6,687.601 113.2,266.5 170.6,549.1 170.6,839.7 v 30240 c 0,290.7 -57.4,573.1 -170.6,839.7 -109.3,257.2 -265.6,488.6 -464.6,687.6 -199,199 -430.4,355.3 -687.6,464.6 -266.5,113.2 -549.1,170.6 -839.7,170.6 z m 0,-2.5 c 1188,0 2160,-972 2160,-2160 v -30240 c 0,-1188 -972,-2160 -2160,-2160 h -30240 c -1188,0 -2160,972 -2160,2160 v 30240 c 0,1188 972,2160 2160,2160 h 30240"
         style="fill:#231f20;fill-opacity:1;fill-rule:nonzero;stroke:none"
         transform="matrix(0.13333333,0,0,-0.13333333,0,4608.6667)" />
      <path
         id="path4"
         d="m 2162.5,542.5 c -430.33,0 -836.49,169.199 -1143.66,476.3 C 711.664,1326 542.5,1732.2 542.5,2162.5 v 30240 c 0,430.3 169.164,836.5 476.34,1143.7 307.17,307.1 713.33,476.3 1143.66,476.3 h 30240 c 430.3,0 836.5,-169.2 1143.7,-476.3 307.1,-307.2 476.3,-713.4 476.3,-1143.7 v -30240 c 0,-430.3 -169.2,-836.5 -476.3,-1143.7 C 33239,711.699 32832.8,542.5 32402.5,542.5 h -30240"
         style="fill:#231f20;fill-opacity:1;fill-rule:nonzero;stroke:none"
         transform="matrix(0.13333333,0,0,-0.13333333,0,4608.6667)" />
      <path
         id="path5"
         d="m 2162.5,1442.5 c -192.69,0 -368.09,73.6 -507.26,212.7 -139.18,139.2 -212.74,314.6 -212.74,507.3 v 30240 c 0,192.7 73.56,368.1 212.73,507.3 139.18,139.1 314.58,212.7 507.27,212.7 h 30240 c 192.7,0 368.1,-73.6 507.3,-212.7 139.1,-139.2 212.7,-314.6 212.7,-507.3 v -30240 c 0,-192.7 -73.6,-368.1 -212.7,-507.2 -139.2,-139.2 -314.6,-212.8 -507.3,-212.8 h -30240"
         style="fill:#ffffff;fill-opacity:1;fill-rule:nonzero;stroke:none"
         transform="matrix(0.13333333,0,0,-0.13333333,0,4608.6667)" />
      <path
         id="path6"
         d="m 6135.36,23042.6 h -913.63 v 4951.2 H 3902.74 v 808.6 h 3572.47 v -808.6 H 6135.36 v -4951.2"
         style="fill:#231f20;fill-opacity:1;fill-rule:nonzero;stroke:none"
         transform="matrix(0.13333333,0,0,-0.13333333,0,4608.6667)" />
      <path
         id="path7"
         d="m 10132.9,26478.3 c 722.8,0 836.6,521.3 836.6,707 0,251.3 -188,707.7 -792.7,707.7 H 8988.83 v -1414.7 z m -1144.07,-928.7 v -2507 h -908.59 v 5759.8 h 2083.56 c 1320.4,0 1716.4,-1056.2 1716.4,-1617.8 0,-213.8 -79.2,-1056.2 -894.2,-1442.1 l 1015.2,-2699.9 h -990.7 l -929.5,2507 H 8988.83"
         style="fill:#231f20;fill-opacity:1;fill-rule:nonzero;stroke:none"
         transform="matrix(0.13333333,0,0,-0.13333333,0,4608.6667)" />
      <path
         id="path8"
         d="m 12686.8,25103.9 v 3698.5 h 908.6 v -3698.5 c 0,-748.1 424.8,-1232.6 1051.2,-1232.6 626.3,0 1051.1,484.5 1051.1,1232.6 v 3698.5 h 910 v -3698.5 c 0,-1821.5 -1397.4,-2162.1 -1960.4,-2162.1 -512.6,0 -1960.5,301.7 -1960.5,2162.1"
         style="fill:#231f20;fill-opacity:1;fill-rule:nonzero;stroke:none"
         transform="matrix(0.13333333,0,0,-0.13333333,0,4608.6667)" />
      <path
         id="path9"
         d="m 17495,25932.6 c 0,809.9 162.7,2969.8 2121.7,2969.8 835.2,0 1404,-339.8 1799.2,-1172.1 l -848.8,-363.5 c -294.5,423.3 -441.3,606.2 -949.6,606.2 -1205.3,0 -1192.3,-1679.7 -1192.3,-2041.1 0,-357.1 -22.3,-2062 1232.6,-2062 439.9,0 692.6,265.6 889.1,667.4 l 869,-323.3 c -324,-801.3 -868.3,-1272.2 -1738.7,-1272.2 -2072.8,0 -2182.2,2289.5 -2182.2,2990.8"
         style="fill:#231f20;fill-opacity:1;fill-rule:nonzero;stroke:none"
         transform="matrix(0.13333333,0,0,-0.13333333,0,4608.6667)" />
      <path
         id="path10"
         d="m 23823.7,25770.6 -608.3,-748.1 v -1979.9 h -912.2 v 5759.8 h 912.2 v -2283.8 l 1825.1,2283.8 h 1175.7 l -1784.1,-2243.5 1905.7,-3516.3 h -1054 l -1460.1,2728"
         style="fill:#231f20;fill-opacity:1;fill-rule:nonzero;stroke:none"
         transform="matrix(0.13333333,0,0,-0.13333333,0,4608.6667)" />
      <path
         id="path11"
         d="m 26741.3,24396.9 869,323.3 c 242.7,-545.8 686.9,-848.9 1232.6,-848.9 525.6,0 889.9,363.6 889.9,848.9 0,770.3 -889.2,889.1 -1637.2,1192.2 -343.4,141.9 -1111.6,485.3 -1111.6,1434.9 0,1132.5 767.5,1555.1 1798.4,1555.1 808.6,0 1354.3,-465.1 1637.2,-1172.1 l -808.5,-242.6 c -90.7,227.5 -419.7,505.4 -848.8,505.4 -821.5,0 -891.3,-438.4 -891.3,-582.4 0,-538.6 464.3,-645.1 1219.6,-882 768.9,-241.9 1571.7,-595.4 1571.7,-1830.1 0,-1243.4 -1008,-1756.8 -1819.4,-1756.8 -990.7,0 -1717.8,586.1 -2101.6,1455.1"
         style="fill:#231f20;fill-opacity:1;fill-rule:nonzero;stroke:none"
         transform="matrix(0.13333333,0,0,-0.13333333,0,4608.6667)" />
      <path
         id="path12"
         d="m 8499.65,9965.9 h 4487.05 v 4608 z M 15008.4,5762.5 H 12986.7 V 8106.8 H 5871.66 v 1859.1 l 7115.04,7316.6 h 2021.7 V 9965.9 h 1697.8 V 8106.8 H 15008.4 V 5762.5"
         style="fill:#231f20;fill-opacity:1;fill-rule:nonzero;stroke:none"
         transform="matrix(0.13333333,0,0,-0.13333333,0,4608.6667)" />
      <path
         id="path13"
         d="m 23872.2,15423.5 c -2066.4,0 -2795,-2142.8 -2795,-3840.5 0,-2547.4 1052.6,-3960 2795,-3960 1797.1,0 2754.8,1765.4 2754.8,3919.7 0,2424.9 -1012.4,3880.8 -2754.8,3880.8 z m -4861.4,-3880.8 c 0,3026.8 1458.7,5939.9 4861.4,5939.9 3457.5,0 4821.1,-2969.2 4821.1,-5901.1 0,-2949.1 -1343.5,-6020.6 -4821.1,-6020.6 -3443,0 -4861.4,2954.9 -4861.4,5981.8"
         style="fill:#231f20;fill-opacity:1;fill-rule:nonzero;stroke:none"
         transform="matrix(0.13333333,0,0,-0.13333333,0,4608.6667)" />
    </g>
  </g>
</svg>
