<?xml version="1.0" encoding="UTF-8"?>
<svg id="For_Sheets" xmlns="http://www.w3.org/2000/svg" version="1.1" viewBox="0 0 1296 1728">
  <!-- Generator: Adobe Illustrator 29.1.0, SVG Export Plug-In . SVG Version: 2.1.0 Build 142)  -->
  <defs>
    <style>
      .st0 {
        fill: #231f20;
      }

      .st1 {
        fill: #fff;
      }
    </style>
  </defs>
  <g>
    <rect class="st1" x="-.1" y="-.1" width="1296.2" height="1728.2" rx="108.1" ry="108.1"/>
    <path class="st0" d="M1188,0c59.4,0,108,48.6,108,108v1512c0,59.4-48.6,108-108,108H108c-59.4,0-108-48.6-108-108V108C0,48.6,48.6,0,108,0h1080M1188-.2H108C79.2-.2,52.1,11,31.5,31.5,11,52.1-.2,79.2-.2,108v1512c0,28.8,11.3,55.9,31.8,76.5s47.7,31.8,76.5,31.8h1080c28.8,0,55.9-11.3,76.5-31.8s31.8-47.7,31.8-76.5V108c0-28.8-11.3-55.9-31.8-76.5-20.5-20.5-47.7-31.8-76.5-31.8h0Z"/>
  </g>
  <rect class="st0" x="-189" y="243" width="1674" height="1242" rx="81" ry="81" transform="translate(1512 216) rotate(90)"/>
  <rect class="st1" x="-144" y="288" width="1584" height="1152" rx="36" ry="36" transform="translate(1512 216) rotate(90)"/>
  <g>
    <path class="st0" d="M284.8,421.2c-15.2,9.2-34.9,14.6-54.8,14.6-37.3,0-65.5-13.8-89.8-42.3l31.2-24.6c16,19.2,33.5,27.7,57.8,27.7s47.2-12.9,47.2-28.4-21.9-23.4-82.3-40.4c-30.4-8.5-44-31.7-44-54.9,0-36.2,30.5-60.7,74.6-60.7s58.7,10.7,80.7,33.8l-28.9,26.1c-13.7-14.6-31.2-21.5-51.8-21.5s-35,9.6-35,22c0,23.9,29.4,18.7,83.1,37.6,37.9,13.4,42.4,45.8,42.4,59.5,0,22.3-9.9,39.2-30.5,51.5Z"/>
    <path class="st0" d="M397.9,347.1v84.9h-39.4v-216h105.7c45.5,0,69.4,34.6,69.4,65.6s-21.4,65.6-67.7,65.6h-67.9ZM397.9,254.7v53.8h65.3c18.9,0,31.8-10.6,31.8-26.5s-12.6-27.3-31.9-27.3h-65.2Z"/>
    <path class="st0" d="M570.3,216h158.2v38.7h-118.6v40.1h64.6v39.4h-64.6v59.1h122.4v38.7h-162v-216Z"/>
    <path class="st0" d="M775.5,216h158.2v38.7h-118.6v40.1h64.6v39.4h-64.6v59.1h122.4v38.7h-162v-216Z"/>
    <path class="st0" d="M980.7,432v-216h71.4c68.7,0,103.7,52.1,103.7,107.6s-38.5,108.4-103.4,108.4h-71.7ZM1050.3,254.7h-30.2v138.7h29.9c34.6,0,67.1-22.8,67.1-69.7s-27.3-69-66.9-69Z"/>
  </g>
  <g>
    <path class="st0" d="M252.6,576h38.8v182.7h123.2v33.3h-162v-216Z"/>
    <path class="st0" d="M451.4,576h38.9v216h-38.9v-216Z"/>
    <path class="st0" d="M711.5,660.1l-63.9,131.9-63.2-131.9v131.9h-38v-216h38l63.2,128.1,63.9-128.1h38v216h-38v-131.9Z"/>
    <path class="st0" d="M805.7,576h38.9v216h-38.9v-216Z"/>
    <path class="st0" d="M981.3,792h-37.9v-178.1h-62.1v-37.9h162v37.9h-62.1v178.1Z"/>
  </g>
  <g>
    <path class="st0" d="M141.8,1206.8l18.3-270.8h385.6l-2,101.1h-286.2l-6.1,82.9c46.7-10,75.1-14.2,111.7-14.2,132,0,227.3,88.9,227.3,208.1s-101.5,208.2-243.6,208.2-150.2-20.2-223.3-64.7l54.8-86.9c64.9,37.7,125.1,46.4,172.7,46.4,89.1,0,135.5-43.2,135.5-101.2s-27.9-105-123.5-105-72.4,4.7-117.7,22.2l-103.5-26.3Z"/>
    <path class="st0" d="M688.3,1223c0-151.3,72.9-297,243.1-297s241,148.5,241,295.1-67.2,301-241,301-243.1-147.7-243.1-299.1ZM931.4,1029c-103.3,0-139.7,107.1-139.7,192,0,127.4,52.6,198,139.7,198s137.7-88.3,137.7-196-50.6-194-137.7-194Z"/>
  </g>
</svg>