<?xml version="1.0" encoding="UTF-8" standalone="no"?>
<!-- Created with Inkscape (http://www.inkscape.org/) -->

<svg
   version="1.1"
   id="svg1"
   width="2304.6667"
   height="2304.6667"
   viewBox="0 0 2304.6667 2304.6667"
   sodipodi:docname="tmpohm93s29.pdf"
   xmlns:inkscape="http://www.inkscape.org/namespaces/inkscape"
   xmlns:sodipodi="http://sodipodi.sourceforge.net/DTD/sodipodi-0.dtd"
   xmlns="http://www.w3.org/2000/svg"
   xmlns:svg="http://www.w3.org/2000/svg">
  <defs
     id="defs1" />
  <sodipodi:namedview
     id="namedview1"
     pagecolor="#ffffff"
     bordercolor="#000000"
     borderopacity="0.25"
     inkscape:showpageshadow="2"
     inkscape:pageopacity="0.0"
     inkscape:pagecheckerboard="0"
     inkscape:deskcolor="#d1d1d1">
    <inkscape:page
       x="0"
       y="0"
       inkscape:label="1"
       id="page1"
       width="2304.6667"
       height="2304.6667"
       margin="0"
       bleed="0" />
  </sodipodi:namedview>
  <g
     id="g1"
     inkscape:groupmode="layer"
     inkscape:label="1">
    <g
       id="group-R5">
      <path
         id="path2"
         d="M 1082.5,1.19922 C 486.293,1.19922 1.25,486.301 1.25,1082.5 v 15120 c 0,596.2 485.043,1081.3 1081.25,1081.3 h 15120 c 596.2,0 1081.3,-485.1 1081.3,-1081.3 V 1082.5 C 17283.8,486.301 16798.7,1.19922 16202.5,1.19922 h -15120"
         style="fill:#ffffff;fill-opacity:1;fill-rule:nonzero;stroke:none"
         transform="matrix(0.13333333,0,0,-0.13333333,0,2304.6667)" />
      <path
         id="path3"
         d="m 16202.5,17285 h -15120 c -287.953,0 -559.465,-112.9 -764.516,-318 C 112.93,16762 0,16490.5 0,16202.5 V 1082.5 C 0,794.5 112.93,523 317.984,318 523.035,112.902 794.547,0 1082.5,0 h 15120 c 288,0 559.5,112.902 764.5,318 205.1,205 318,476.5 318,764.5 v 15120 c 0,288 -112.9,559.5 -318,764.5 -205,205.1 -476.5,318 -764.5,318 z m 0,-2.5 c 594,0 1080,-486 1080,-1080 v -15120 c 0,-594 -486,-1080 -1080,-1080 h -15120 c -594,0 -1080,486 -1080,1080 v 15120 c 0,594 486,1080 1080,1080 h 15120"
         style="fill:#231f20;fill-opacity:1;fill-rule:nonzero;stroke:none"
         transform="matrix(0.13333333,0,0,-0.13333333,0,2304.6667)" />
      <path
         id="path4"
         d="m 16202.5,722.5 c 198.5,0 360,161.5 360,360 v 15120 c 0,198.5 -161.5,360 -360,360 h -15120 c -198.508,0 -360,-161.5 -360,-360 v -15120 c 0,-198.5 161.492,-360 360,-360 z m -15120,-450 c -446.637,0 -810,363.402 -810,810 v 15120 c 0,446.6 363.363,810 810,810 h 15120 c 446.6,0 810,-363.4 810,-810 v -15120 c 0,-446.598 -363.4,-810 -810,-810 h -15120"
         style="fill:#231f20;fill-opacity:1;fill-rule:nonzero;stroke:none"
         transform="matrix(0.13333333,0,0,-0.13333333,0,2304.6667)" />
      <path
         id="path5"
         d="m 3068.93,11522.6 h -456.82 v 2475.6 h -659.49 v 404.3 h 1786.24 v -404.3 h -669.93 v -2475.6"
         style="fill:#231f20;fill-opacity:1;fill-rule:nonzero;stroke:none"
         transform="matrix(0.13333333,0,0,-0.13333333,0,2304.6667)" />
      <path
         id="path6"
         d="m 5067.68,13240.5 c 361.42,0 418.29,260.6 418.29,353.5 0,125.6 -93.95,353.8 -396.34,353.8 h -593.96 v -707.3 z m -572.01,-464.4 v -1253.5 h -454.3 v 2879.9 h 1041.78 c 660.21,0 858.2,-528.1 858.2,-808.9 0,-106.9 -39.59,-528.1 -447.1,-721 l 507.58,-1350 H 5506.5 l -464.74,1253.5 h -546.09"
         style="fill:#231f20;fill-opacity:1;fill-rule:nonzero;stroke:none"
         transform="matrix(0.13333333,0,0,-0.13333333,0,2304.6667)" />
      <path
         id="path7"
         d="m 6344.66,12553.3 v 1849.2 h 454.29 v -1849.2 c 0,-374 212.39,-616.3 525.57,-616.3 313.19,0 525.58,242.3 525.58,616.3 v 1849.2 h 455.02 v -1849.2 c 0,-910.8 -698.73,-1081.1 -980.23,-1081.1 -256.31,0 -980.23,150.9 -980.23,1081.1"
         style="fill:#231f20;fill-opacity:1;fill-rule:nonzero;stroke:none"
         transform="matrix(0.13333333,0,0,-0.13333333,0,2304.6667)" />
      <path
         id="path8"
         d="m 8748.74,12967.6 c 0,405 81.36,1484.9 1060.87,1484.9 417.59,0 701.99,-169.9 899.59,-586 l -424.4,-181.8 c -147.2,211.7 -220.7,303.1 -474.82,303.1 -602.62,0 -596.14,-839.8 -596.14,-1020.5 0,-178.6 -11.16,-1031 616.29,-1031 219.97,0 346.27,132.8 444.57,333.7 l 434.5,-161.7 c -162,-400.6 -434.1,-636.1 -869.35,-636.1 -1036.39,0 -1091.11,1144.8 -1091.11,1495.4"
         style="fill:#231f20;fill-opacity:1;fill-rule:nonzero;stroke:none"
         transform="matrix(0.13333333,0,0,-0.13333333,0,2304.6667)" />
      <path
         id="path9"
         d="m 11913.1,12886.6 -304.2,-374 v -990 h -456.1 v 2879.9 h 456.1 v -1141.9 l 912.6,1141.9 h 587.8 l -892,-1121.7 952.9,-1758.2 h -527 l -730.1,1364"
         style="fill:#231f20;fill-opacity:1;fill-rule:nonzero;stroke:none"
         transform="matrix(0.13333333,0,0,-0.13333333,0,2304.6667)" />
      <path
         id="path10"
         d="m 13371.9,12199.8 434.5,161.6 c 121.3,-272.9 343.4,-424.4 616.3,-424.4 262.8,0 444.9,181.8 444.9,424.4 0,385.2 -444.5,444.6 -818.6,596.1 -171.7,70.9 -555.8,242.7 -555.8,717.5 0,566.2 383.8,777.5 899.3,777.5 404.2,0 677.1,-232.5 818.6,-586 l -404.3,-121.3 c -45.4,113.7 -209.9,252.7 -424.4,252.7 -410.8,0 -445.7,-219.2 -445.7,-291.2 0,-269.3 232.2,-322.6 609.8,-441 384.5,-121 785.9,-297.7 785.9,-915.1 0,-621.7 -504,-878.4 -909.7,-878.4 -495.3,0 -858.9,293.1 -1050.8,727.6"
         style="fill:#231f20;fill-opacity:1;fill-rule:nonzero;stroke:none"
         transform="matrix(0.13333333,0,0,-0.13333333,0,2304.6667)" />
      <path
         id="path11"
         d="m 3167.78,5149.6 h 2804.39 v 2880 z M 7235.77,2522.5 H 5972.17 V 3987.7 H 1525.28 v 1161.9 l 4446.89,4572.88 h 1263.6 V 5149.6 H 8296.86 V 3987.7 H 7235.77 V 2522.5"
         style="fill:#231f20;fill-opacity:1;fill-rule:nonzero;stroke:none"
         transform="matrix(0.13333333,0,0,-0.13333333,0,2304.6667)" />
      <path
         id="path12"
         d="m 12775.7,8560.59 c -1291.6,0 -1746.9,-1339.19 -1746.9,-2400.29 0,-1592.1 657.8,-2475 1746.9,-2475 1123.1,0 1721.6,1103.4 1721.6,2449.8 0,1515.59 -632.7,2425.49 -1721.6,2425.49 z M 9737.27,6135.1 c 0,1891.79 911.73,3712.48 3038.43,3712.48 2160.8,0 3013.1,-1855.79 3013.1,-3688.18 0,-1843.2 -839.7,-3762.9 -3013.1,-3762.9 -2151.9,0 -3038.43,1846.8 -3038.43,3738.6"
         style="fill:#231f20;fill-opacity:1;fill-rule:nonzero;stroke:none"
         transform="matrix(0.13333333,0,0,-0.13333333,0,2304.6667)" />
    </g>
  </g>
</svg>
