<?xml version="1.0" standalone="no"?>
<svg width="3456px" height="4320px" viewBox="0 -3528 3456 4320 " xmlns="http://www.w3.org/2000/svg" xmlns:xlink="http://www.w3.org/1999/xlink">
<title>generated by pstoedit</title>
<!-- generated by pstoedit version:4.02 -->
<g xml:space='preserve'>
<clipPath id="clippath1"> 	<path d="
	M 0 -3528.5 
	L 0 792 
	L 3456.5 792 
	L 3456.5 -3528.5 
	Z 
	" style="clip-rule:nonzero"/>
</clipPath>
<g style="clip-path:url(#clippath1)"> 
<g fill="#ffffff" fill-rule="nonzero" stroke-width="0" stroke-linejoin="miter" stroke-linecap="butt" stroke-miterlimit="10" >
	<path d="
	M 3456.25 575.75 
	C 3456.25 695.039 3359.54 791.75 3240.25 791.75 
	L 216.25 791.75 
	C 96.957 791.75 0.25 695.039 0.25 575.75 
	L 0.25 -3312.25 
	C 0.25 -3431.54 96.957 -3528.25 216.25 -3528.25 
	L 3240.25 -3528.25 
	C 3359.54 -3528.25 3456.25 -3431.54 3456.25 -3312.25 
	Z 
	"/>
</g>
<g stroke="#7f7f7f" fill="none" stroke-width="0.5" stroke-linejoin="miter" stroke-linecap="butt" stroke-miterlimit="4" >
	<path d="
	M 3456.25 575.75 
	C 3456.25 695.039 3359.54 791.75 3240.25 791.75 
	L 216.25 791.75 
	C 96.957 791.75 0.25 695.039 0.25 575.75 
	L 0.25 -3312.25 
	C 0.25 -3431.54 96.957 -3528.25 216.25 -3528.25 
	L 3240.25 -3528.25 
	C 3359.54 -3528.25 3456.25 -3431.54 3456.25 -3312.25 
	Z 
	"/>
</g>
<g fill="#7f7f7f" fill-rule="nonzero" stroke-width="0" stroke-linejoin="miter" stroke-linecap="butt" stroke-miterlimit="4" >
	<path d="
	M 216.25 737.75 
	C 126.922 737.75 54.25 665.082 54.25 575.75 
	L 54.25 -3312.25 
	C 54.25 -3401.58 126.922 -3474.25 216.25 -3474.25 
	L 3240.25 -3474.25 
	C 3329.58 -3474.25 3402.25 -3401.58 3402.25 -3312.25 
	L 3402.25 575.75 
	C 3402.25 665.082 3329.58 737.75 3240.25 737.75 
	Z 
	"/>
</g>
<g fill="#ffffff" fill-rule="nonzero" stroke-width="0" stroke-linejoin="miter" stroke-linecap="butt" stroke-miterlimit="4" >
	<path d="
	M 216.25 647.75 
	C 176.551 647.75 144.25 615.449 144.25 575.75 
	L 144.25 -3312.25 
	C 144.25 -3351.95 176.551 -3384.25 216.25 -3384.25 
	L 3240.25 -3384.25 
	C 3279.95 -3384.25 3312.25 -3351.95 3312.25 -3312.25 
	L 3312.25 575.75 
	C 3312.25 615.449 3279.95 647.75 3240.25 647.75 
	Z 
	"/>
</g>
<g fill="#7f7f7f" fill-rule="nonzero" stroke-width="0" stroke-linejoin="miter" stroke-linecap="butt" stroke-miterlimit="4" >
	<path d="
	M 1539.35 -124.211 
	C 1521.12 -154.531 1498.83 -166.648 1464.39 -168.668 
	C 1419.82 -170.691 1391.45 -148.461 1371.2 -97.941 
	C 1357.01 -63.578 1348.91 -11.031 1348.91 37.469 
	C 1348.91 98.109 1361.06 160.762 1383.35 197.141 
	C 1401.59 227.461 1425.89 241.602 1462.36 241.602 
	C 1504.91 241.602 1531.25 219.371 1551.51 168.852 
	C 1563.66 138.531 1573.79 81.941 1573.79 37.469 
	C 1573.79 -27.199 1561.64 -85.809 1539.35 -124.211 
	Z 
	M 1602.16 269.898 
	C 1569.74 314.359 1523.14 334.57 1462.36 334.57 
	C 1381.32 334.57 1330.67 302.23 1296.23 231.5 
	C 1271.92 182.988 1255.71 106.191 1255.71 37.469 
	C 1255.71 -57.512 1280.02 -142.398 1318.52 -196.969 
	C 1352.96 -241.43 1399.56 -261.64 1466.41 -261.64 
	C 1539.35 -261.64 1590 -229.3 1626.47 -158.57 
	C 1650.78 -108.039 1664.96 -35.281 1664.96 37.469 
	C 1664.96 128.422 1642.68 219.371 1602.16 269.898 
	Z 
	"/>
</g>
<g fill="#7f7f7f" fill-rule="nonzero" stroke-width="0" stroke-linejoin="miter" stroke-linecap="butt" stroke-miterlimit="4" >
	<path d="
	M 777.203 323.762 
	L 777.203 246.949 
	L 1039.96 -161.301 
	L 799.434 -161.301 
	L 799.434 -252.25 
	L 1169.31 -252.25 
	L 1169.31 -197.68 
	L 902.516 230.789 
	L 1169.31 230.789 
	L 1169.31 323.762 
	Z 
	"/>
</g>
<g fill="#7f7f7f" fill-rule="nonzero" stroke-width="0" stroke-linejoin="miter" stroke-linecap="butt" stroke-miterlimit="4" >
	<path d="
	M 2102.95 323.762 
	L 1882.63 -66.309 
	L 1882.63 323.762 
	L 1791.68 323.762 
	L 1791.68 -252.24 
	L 1882.63 -252.24 
	L 2092.84 115.59 
	L 2092.84 -252.24 
	L 2183.79 -252.24 
	L 2183.79 323.762 
	Z 
	"/>
</g>
<g fill="#7f7f7f" fill-rule="nonzero" stroke-width="0" stroke-linejoin="miter" stroke-linecap="butt" stroke-miterlimit="4" >
	<path d="
	M 2322.03 323.762 
	L 2322.03 -252.24 
	L 2661.13 -252.24 
	L 2661.13 -161.301 
	L 2412.86 -161.301 
	L 2412.86 -19.82 
	L 2580.39 -19.82 
	L 2580.39 73.148 
	L 2412.86 73.148 
	L 2412.86 230.789 
	L 2679.3 230.789 
	L 2679.3 323.762 
	Z 
	"/>
</g>
<g fill="#7f7f7f" fill-rule="nonzero" stroke-width="0" stroke-linejoin="miter" stroke-linecap="butt" stroke-miterlimit="4" >
	<path d="
	M 1707.88 -612.24 
	L 1487.57 -1002.31 
	L 1487.57 -612.24 
	L 1396.62 -612.24 
	L 1396.62 -1188.25 
	L 1487.57 -1188.25 
	L 1697.77 -820.41 
	L 1697.77 -1188.25 
	L 1788.73 -1188.25 
	L 1788.73 -612.24 
	Z 
	"/>
</g>
<g fill="#7f7f7f" fill-rule="nonzero" stroke-width="0" stroke-linejoin="miter" stroke-linecap="butt" stroke-miterlimit="4" >
	<path d="
	M 1166.22 -612.24 
	L 1166.22 -1188.25 
	L 1258.38 -1188.25 
	L 1258.38 -612.24 
	Z 
	"/>
</g>
<g fill="#7f7f7f" fill-rule="nonzero" stroke-width="0" stroke-linejoin="miter" stroke-linecap="butt" stroke-miterlimit="4" >
	<path d="
	M 2677.36 -647.31 
	C 2645.02 -619.01 2600.55 -602.85 2552.04 -602.85 
	C 2453 -602.85 2380.24 -661.46 2341.84 -748.36 
	L 2428.75 -780.7 
	C 2453 -726.13 2497.47 -695.81 2552.04 -695.81 
	C 2604.59 -695.81 2640.97 -732.19 2640.97 -780.7 
	C 2640.97 -857.5 2552.04 -869.62 2477.25 -899.94 
	C 2442.9 -914.09 2366.09 -948.44 2366.09 -1043.44 
	C 2366.09 -1156.61 2442.9 -1199.06 2545.98 -1199.06 
	C 2626.82 -1199.06 2681.4 -1152.57 2709.69 -1081.83 
	L 2628.85 -1057.58 
	C 2628.85 -1057.58 2608.64 -1106.09 2543.96 -1108.11 
	C 2501.51 -1110.13 2450.98 -1093.96 2455.02 -1041.41 
	C 2463.11 -934.3 2733.95 -1005.03 2733.95 -778.68 
	C 2733.95 -726.13 2713.73 -679.65 2677.36 -647.31 
	Z 
	"/>
</g>
<g fill="#7f7f7f" fill-rule="nonzero" stroke-width="0" stroke-linejoin="miter" stroke-linecap="butt" stroke-miterlimit="4" >
	<path d="
	M 1926.97 -612.24 
	L 1926.97 -1188.25 
	L 2266.07 -1188.25 
	L 2266.07 -1097.3 
	L 2017.8 -1097.3 
	L 2017.8 -955.82 
	L 2185.33 -955.82 
	L 2185.33 -862.85 
	L 2017.8 -862.85 
	L 2017.8 -705.21 
	L 2284.23 -705.21 
	L 2284.23 -612.24 
	Z 
	"/>
</g>
<g fill="#7f7f7f" fill-rule="nonzero" stroke-width="0" stroke-linejoin="miter" stroke-linecap="butt" stroke-miterlimit="4" >
	<path d="
	M 813.383 -1097.3 
	L 813.383 -955.82 
	L 980.91 -955.82 
	L 980.91 -862.85 
	L 813.383 -862.85 
	L 813.383 -612.24 
	L 722.551 -612.24 
	L 722.551 -1188.25 
	L 1079.82 -1188.25 
	L 1079.82 -1097.3 
	Z 
	"/>
</g>
<g fill="#7f7f7f" fill-rule="nonzero" stroke-width="0" stroke-linejoin="miter" stroke-linecap="butt" stroke-miterlimit="4" >
	<path d="
	M 2684.93 -2484.25 
	L 2464.61 -2874.31 
	L 2464.61 -2484.25 
	L 2373.66 -2484.25 
	L 2373.66 -3060.25 
	L 2464.61 -3060.25 
	L 2674.82 -2692.41 
	L 2674.82 -3060.25 
	L 2765.77 -3060.25 
	L 2765.77 -2484.25 
	Z 
	"/>
</g>
<g fill="#7f7f7f" fill-rule="nonzero" stroke-width="0" stroke-linejoin="miter" stroke-linecap="butt" stroke-miterlimit="4" >
	<path d="
	M 2143.26 -2484.25 
	L 2143.26 -3060.25 
	L 2235.42 -3060.25 
	L 2235.42 -2484.25 
	Z 
	"/>
</g>
<g fill="#7f7f7f" fill-rule="nonzero" stroke-width="0" stroke-linejoin="miter" stroke-linecap="butt" stroke-miterlimit="4" >
	<path d="
	M 1180.76 -2484.25 
	L 1180.76 -3060.25 
	L 1519.86 -3060.25 
	L 1519.86 -2969.3 
	L 1271.59 -2969.3 
	L 1271.59 -2827.83 
	L 1439.12 -2827.83 
	L 1439.12 -2734.86 
	L 1271.59 -2734.86 
	L 1271.59 -2577.22 
	L 1538.03 -2577.22 
	L 1538.03 -2484.25 
	Z 
	"/>
</g>
<g fill="#7f7f7f" fill-rule="nonzero" stroke-width="0" stroke-linejoin="miter" stroke-linecap="butt" stroke-miterlimit="4" >
	<path d="
	M 935.297 -2730.82 
	C 923.168 -2734.86 917.105 -2734.86 896.895 -2734.86 
	L 781.684 -2734.86 
	L 781.684 -2577.22 
	L 919.129 -2577.22 
	C 965.613 -2577.22 989.867 -2599.45 989.867 -2643.91 
	C 989.867 -2682.31 967.637 -2718.69 935.297 -2730.82 
	Z 
	M 915.086 -2969.3 
	L 781.684 -2969.3 
	L 781.684 -2827.83 
	L 890.828 -2827.83 
	C 917.105 -2827.83 929.23 -2831.87 945.402 -2844 
	C 965.613 -2860.16 977.742 -2884.42 977.742 -2910.69 
	C 977.742 -2949.09 955.508 -2969.3 915.086 -2969.3 
	Z 
	M 989.867 -2498.39 
	C 969.656 -2490.31 935.297 -2484.25 909.02 -2484.25 
	L 690.73 -2484.25 
	L 690.73 -3060.25 
	L 909.02 -3060.25 
	C 999.977 -3060.25 1068.7 -2997.6 1068.7 -2914.74 
	C 1068.7 -2858.14 1042.42 -2815.7 987.848 -2785.39 
	C 1048.48 -2757.09 1082.84 -2708.59 1082.84 -2645.93 
	C 1082.84 -2583.28 1044.44 -2520.63 989.867 -2498.39 
	Z 
	"/>
</g>
<g fill="#7f7f7f" fill-rule="nonzero" stroke-width="0" stroke-linejoin="miter" stroke-linecap="butt" stroke-miterlimit="4" >
	<path d="
	M 1834.63 -2474.14 
	C 1747.72 -2474.14 1697.19 -2506.48 1662.83 -2579.24 
	C 1638.58 -2629.77 1624.43 -2700.5 1624.43 -2771.24 
	C 1624.43 -2864.21 1650.7 -2955.16 1689.1 -3005.68 
	C 1723.47 -3048.12 1771.98 -3070.36 1836.66 -3070.36 
	C 1925.59 -3070.36 1978.14 -3033.97 2016.54 -2943.03 
	L 1929.63 -2908.67 
	C 1905.38 -2959.2 1881.12 -2977.39 1836.66 -2977.39 
	C 1790.17 -2977.39 1759.85 -2957.18 1739.64 -2906.65 
	C 1725.49 -2872.29 1717.4 -2819.74 1717.4 -2771.24 
	C 1717.4 -2710.61 1727.51 -2649.97 1745.7 -2613.6 
	C 1763.89 -2581.26 1790.17 -2567.11 1824.53 -2567.11 
	C 1883.14 -2567.11 1925.59 -2603.49 1925.59 -2656.04 
	L 1925.59 -2680.29 
	L 1820.48 -2680.29 
	L 1820.48 -2771.24 
	L 2016.54 -2771.24 
	L 2016.54 -2656.04 
	C 2016.54 -2550.94 1939.74 -2474.14 1834.63 -2474.14 
	Z 
	"/>
</g>
<g fill="#7f7f7f" fill-rule="nonzero" stroke-width="0" stroke-linejoin="miter" stroke-linecap="butt" stroke-miterlimit="4" >
	<path d="
	M 935.746 -1548.24 
	L 935.746 -2124.25 
	L 1027.91 -2124.25 
	L 1027.91 -1548.24 
	Z 
	"/>
</g>
<g fill="#7f7f7f" fill-rule="nonzero" stroke-width="0" stroke-linejoin="miter" stroke-linecap="butt" stroke-miterlimit="4" >
	<path d="
	M 2911.64 -2023.19 
	C 2897.49 -2031.28 2889.41 -2033.3 2859.09 -2033.3 
	L 2749.94 -2033.3 
	L 2749.94 -1891.83 
	L 2859.09 -1891.83 
	C 2887.39 -1891.83 2897.49 -1893.85 2911.64 -1901.93 
	C 2933.88 -1914.06 2948.02 -1938.31 2948.02 -1962.56 
	C 2948.02 -1986.81 2933.88 -2011.07 2911.64 -2023.19 
	Z 
	M 2952.06 -1548.25 
	L 2859.09 -1798.86 
	L 2749.94 -1798.86 
	L 2749.94 -1548.25 
	L 2658.99 -1548.25 
	L 2658.99 -2124.25 
	L 2848.98 -2124.25 
	C 2893.45 -2124.25 2923.77 -2120.21 2952.06 -2106.06 
	C 3002.59 -2081.8 3038.97 -2021.17 3038.97 -1962.56 
	C 3038.97 -1901.93 3002.59 -1841.3 2950.04 -1817.04 
	L 3051.11 -1548.25 
	Z 
	"/>
</g>
<g fill="#7f7f7f" fill-rule="nonzero" stroke-width="0" stroke-linejoin="miter" stroke-linecap="butt" stroke-miterlimit="4" >
	<path d="
	M 706.555 -1548.24 
	L 706.555 -1798.86 
	L 496.348 -1798.86 
	L 496.348 -1548.24 
	L 405.395 -1548.24 
	L 405.395 -2124.25 
	L 496.348 -2124.25 
	L 496.348 -1891.83 
	L 706.555 -1891.83 
	L 706.555 -2124.25 
	L 797.508 -2124.25 
	L 797.508 -1548.24 
	Z 
	"/>
</g>
<g fill="#7f7f7f" fill-rule="nonzero" stroke-width="0" stroke-linejoin="miter" stroke-linecap="butt" stroke-miterlimit="4" >
	<path d="
	M 1974.62 -1548.24 
	L 1974.62 -1798.86 
	L 1764.41 -1798.86 
	L 1764.41 -1548.24 
	L 1673.46 -1548.24 
	L 1673.46 -2124.25 
	L 1764.41 -2124.25 
	L 1764.41 -1891.83 
	L 1974.62 -1891.83 
	L 1974.62 -2124.25 
	L 2065.57 -2124.25 
	L 2065.57 -1548.24 
	Z 
	"/>
</g>
<g fill="#7f7f7f" fill-rule="nonzero" stroke-width="0" stroke-linejoin="miter" stroke-linecap="butt" stroke-miterlimit="4" >
	<path d="
	M 2203.8 -1548.24 
	L 2203.8 -2124.25 
	L 2542.9 -2124.25 
	L 2542.9 -2033.3 
	L 2294.63 -2033.3 
	L 2294.63 -1891.82 
	L 2462.17 -1891.82 
	L 2462.17 -1798.86 
	L 2294.63 -1798.86 
	L 2294.63 -1641.21 
	L 2561.07 -1641.21 
	L 2561.07 -1548.24 
	Z 
	"/>
</g>
<g fill="#7f7f7f" fill-rule="nonzero" stroke-width="0" stroke-linejoin="miter" stroke-linecap="butt" stroke-miterlimit="4" >
	<path d="
	M 1364.83 -1538.14 
	C 1277.92 -1538.14 1227.39 -1570.48 1193.03 -1643.24 
	C 1168.77 -1693.76 1154.63 -1764.5 1154.63 -1835.24 
	C 1154.63 -1928.2 1180.9 -2019.15 1219.3 -2069.68 
	C 1253.67 -2112.12 1302.17 -2134.35 1366.85 -2134.35 
	C 1455.79 -2134.35 1508.34 -2097.97 1546.74 -2007.02 
	L 1459.83 -1972.67 
	C 1435.57 -2023.19 1411.32 -2041.38 1366.85 -2041.38 
	C 1320.36 -2041.38 1290.04 -2021.17 1269.83 -1970.65 
	C 1255.68 -1936.29 1247.6 -1883.74 1247.6 -1835.24 
	C 1247.6 -1774.6 1257.7 -1713.97 1275.9 -1677.59 
	C 1294.09 -1645.26 1320.36 -1631.11 1354.72 -1631.11 
	C 1413.34 -1631.11 1455.79 -1667.49 1455.79 -1720.03 
	L 1455.79 -1744.29 
	L 1350.68 -1744.29 
	L 1350.68 -1835.24 
	L 1546.74 -1835.24 
	L 1546.74 -1720.03 
	C 1546.74 -1614.94 1469.93 -1538.14 1364.83 -1538.14 
	Z 
	"/>
</g>
</g >
</g>
</svg>
