<?xml version="1.0" encoding="UTF-8" standalone="no"?>
<!-- Created with Inkscape (http://www.inkscape.org/) -->

<svg
   version="1.1"
   id="svg1"
   width="3456.6667"
   height="2304.6667"
   viewBox="0 0 3456.6667 2304.6667"
   sodipodi:docname="tmpsupu1di1.pdf"
   xmlns:inkscape="http://www.inkscape.org/namespaces/inkscape"
   xmlns:sodipodi="http://sodipodi.sourceforge.net/DTD/sodipodi-0.dtd"
   xmlns="http://www.w3.org/2000/svg"
   xmlns:svg="http://www.w3.org/2000/svg">
  <defs
     id="defs1" />
  <sodipodi:namedview
     id="namedview1"
     pagecolor="#ffffff"
     bordercolor="#000000"
     borderopacity="0.25"
     inkscape:showpageshadow="2"
     inkscape:pageopacity="0.0"
     inkscape:pagecheckerboard="0"
     inkscape:deskcolor="#d1d1d1">
    <inkscape:page
       x="0"
       y="0"
       inkscape:label="1"
       id="page1"
       width="3456.6667"
       height="2304.6667"
       margin="0"
       bleed="0" />
  </sodipodi:namedview>
  <g
     id="g1"
     inkscape:groupmode="layer"
     inkscape:label="1">
    <g
       id="group-R5">
      <path
         id="path2"
         d="M 1082.5,1.19922 C 486.301,1.19922 1.25,486.301 1.25,1082.5 v 15120 c 0,596.2 485.051,1081.3 1081.25,1081.3 h 23760 c 596.2,0 1081.3,-485.1 1081.3,-1081.3 V 1082.5 C 25923.8,486.301 25438.7,1.19922 24842.5,1.19922 h -23760"
         style="fill:#ffffff;fill-opacity:1;fill-rule:nonzero;stroke:none"
         transform="matrix(0.13333333,0,0,-0.13333333,0,2304.6667)" />
      <path
         id="path3"
         d="m 24842.5,17285 h -23760 c -289.148,0 -560.988,-112.6 -765.445,-317.1 C 112.602,16763.5 0,16491.6 0,16202.5 V 1082.5 C 0,793.402 112.602,521.5 317.055,317.102 521.512,112.602 793.352,0 1082.5,0 h 23760 c 289.1,0 561,112.602 765.4,317.102 204.5,204.398 317.1,476.3 317.1,765.398 v 15120 c 0,289.1 -112.6,561 -317.1,765.4 -204.4,204.5 -476.3,317.1 -765.4,317.1 z m 0,-2.5 c 596.5,0 1080,-483.5 1080,-1080 V 1082.5 C 25922.5,486 25439,2.5 24842.5,2.5 H 1082.5 C 486.031,2.5 2.5,486 2.5,1082.5 v 15120 c 0,596.5 483.531,1080 1080,1080 h 23760"
         style="fill:#231f20;fill-opacity:1;fill-rule:nonzero;stroke:none"
         transform="matrix(0.13333333,0,0,-0.13333333,0,2304.6667)" />
      <path
         id="path4"
         d="m 1082.5,272.5 c -446.637,0 -810,363.402 -810,810 v 15120 c 0,446.6 363.363,810 810,810 h 23760 c 446.6,0 810,-363.4 810,-810 v -15120 c 0,-446.598 -363.4,-810 -810,-810 h -23760"
         style="fill:#231f20;fill-opacity:1;fill-rule:nonzero;stroke:none"
         transform="matrix(0.13333333,0,0,-0.13333333,0,2304.6667)" />
      <path
         id="path5"
         d="m 1082.5,722.5 c -198.508,0 -360,161.5 -360,360 v 15120 c 0,198.5 161.492,360 360,360 h 23760 c 198.5,0 360,-161.5 360,-360 v -15120 c 0,-198.5 -161.5,-360 -360,-360 h -23760"
         style="fill:#ffffff;fill-opacity:1;fill-rule:nonzero;stroke:none"
         transform="matrix(0.13333333,0,0,-0.13333333,0,2304.6667)" />
      <path
         id="path6"
         d="m 6059.86,13093.2 v 1849.3 h 454.3 v -1849.3 c 0,-374 212.39,-616.3 525.58,-616.3 313.18,0 525.57,242.3 525.57,616.3 v 1849.3 h 455.02 v -1849.3 c 0,-910.8 -698.73,-1081.1 -980.24,-1081.1 -256.31,0 -980.23,150.8 -980.23,1081.1"
         style="fill:#231f20;fill-opacity:1;fill-rule:nonzero;stroke:none"
         transform="matrix(0.13333333,0,0,-0.13333333,0,2304.6667)" />
      <path
         id="path7"
         d="m 9165.93,14012.6 v -1950.1 h -454.3 v 2880 h 454.3 l 1051.17,-1839.2 v 1839.2 h 455 v -2880 h -404.3 l -1101.87,1950.1"
         style="fill:#231f20;fill-opacity:1;fill-rule:nonzero;stroke:none"
         transform="matrix(0.13333333,0,0,-0.13333333,0,2304.6667)" />
      <path
         id="path8"
         d="m 11363.4,14942.5 h 454.3 v -2455.6 h 1331.9 v -424.4 h -1786.2 v 2880"
         style="fill:#231f20;fill-opacity:1;fill-rule:nonzero;stroke:none"
         transform="matrix(0.13333333,0,0,-0.13333333,0,2304.6667)" />
      <path
         id="path9"
         d="m 13581.7,14942.5 h 1695.5 v -454.7 H 14036 v -707.4 h 837.7 v -464.7 H 14036 v -788.4 h 1332 v -464.8 h -1786.3 v 2880"
         style="fill:#231f20;fill-opacity:1;fill-rule:nonzero;stroke:none"
         transform="matrix(0.13333333,0,0,-0.13333333,0,2304.6667)" />
      <path
         id="path10"
         d="m 15656.1,12739.7 434.5,161.6 c 121.3,-272.9 343.4,-424.4 616.3,-424.4 262.8,0 444.9,181.8 444.9,424.4 0,385.2 -444.6,444.6 -818.6,596.2 -171.7,70.9 -555.8,242.6 -555.8,717.4 0,566.3 383.7,777.6 899.2,777.6 404.3,0 677.2,-232.5 818.6,-586 l -404.2,-121.4 c -45.4,113.8 -209.9,252.8 -424.4,252.8 -410.8,0 -445.7,-219.3 -445.7,-291.3 0,-269.3 232.2,-322.5 609.8,-441 384.5,-120.9 785.9,-297.7 785.9,-915.1 0,-621.7 -504,-878.4 -909.7,-878.4 -495.4,0 -858.9,293.1 -1050.8,727.6"
         style="fill:#231f20;fill-opacity:1;fill-rule:nonzero;stroke:none"
         transform="matrix(0.13333333,0,0,-0.13333333,0,2304.6667)" />
      <path
         id="path11"
         d="m 17904.7,12739.7 434.5,161.6 c 121.3,-272.9 343.4,-424.4 616.3,-424.4 262.8,0 444.9,181.8 444.9,424.4 0,385.2 -444.6,444.6 -818.6,596.2 -171.7,70.9 -555.8,242.6 -555.8,717.4 0,566.3 383.7,777.6 899.2,777.6 404.3,0 677.2,-232.5 818.6,-586 l -404.2,-121.4 c -45.4,113.8 -209.9,252.8 -424.5,252.8 -410.7,0 -445.6,-219.3 -445.6,-291.3 0,-269.3 232.2,-322.5 609.8,-441 384.5,-120.9 785.8,-297.7 785.8,-915.1 0,-621.7 -503.9,-878.4 -909.6,-878.4 -495.4,0 -859,293.1 -1050.8,727.6"
         style="fill:#231f20;fill-opacity:1;fill-rule:nonzero;stroke:none"
         transform="matrix(0.13333333,0,0,-0.13333333,0,2304.6667)" />
      <path
         id="path12"
         d="m 6528.94,7202.5 h -456.82 v 2475.71 h -659.49 v 404.29 H 7198.87 V 9678.21 H 6528.94 V 7202.5"
         style="fill:#231f20;fill-opacity:1;fill-rule:nonzero;stroke:none"
         transform="matrix(0.13333333,0,0,-0.13333333,0,2304.6667)" />
      <path
         id="path13"
         d="M 9136.73,8455.66 H 8085.22 V 7202.5 h -454.3 v 2880 h 454.3 V 8920.42 h 1051.15 v 1162.08 h 455.02 v -2880 h -454.66 v 1253.16"
         style="fill:#231f20;fill-opacity:1;fill-rule:nonzero;stroke:none"
         transform="matrix(0.13333333,0,0,-0.13333333,0,2304.6667)" />
      <path
         id="path14"
         d="m 10282.7,10082.5 h 1695.5 V 9627.81 H 10737 v -707.39 h 837.7 V 8455.66 H 10737 v -788.4 h 1331.9 V 7202.5 h -1786.2 v 2880"
         style="fill:#231f20;fill-opacity:1;fill-rule:nonzero;stroke:none"
         transform="matrix(0.13333333,0,0,-0.13333333,0,2304.6667)" />
      <path
         id="path15"
         d="m 13584.9,8920.42 c 361.5,0 418.3,260.63 418.3,353.51 0,125.64 -93.9,353.88 -396.3,353.88 h -594 v -707.39 z m -572,-464.4 V 7202.5 h -454.3 v 2880 h 1041.8 c 660.2,0 858.2,-528.13 858.2,-808.92 0,-106.92 -39.6,-528.12 -447.1,-721.08 l 507.6,-1350 h -495.3 L 13559,8456.02 h -546.1"
         style="fill:#231f20;fill-opacity:1;fill-rule:nonzero;stroke:none"
         transform="matrix(0.13333333,0,0,-0.13333333,0,2304.6667)" />
      <path
         id="path16"
         d="m 16483.3,7202.5 -456.5,1849.31 -446,-1849.31 h -405.7 l -425.5,2880 h 466.2 l 223.2,-1515.96 364.6,1515.96 h 446.4 l 374.8,-1515.96 223.2,1515.96 h 466.1 l -425.8,-2880 h -405"
         style="fill:#231f20;fill-opacity:1;fill-rule:nonzero;stroke:none"
         transform="matrix(0.13333333,0,0,-0.13333333,0,2304.6667)" />
      <path
         id="path17"
         d="m 17746.3,10082.5 h 460.7 v -2880 h -460.7 v 2880"
         style="fill:#231f20;fill-opacity:1;fill-rule:nonzero;stroke:none"
         transform="matrix(0.13333333,0,0,-0.13333333,0,2304.6667)" />
      <path
         id="path18"
         d="m 18696.6,7879.66 434.5,161.64 c 121.4,-272.88 343.5,-424.44 616.3,-424.44 262.8,0 445,181.8 445,424.44 0,385.2 -444.6,444.59 -818.6,596.16 -171.7,70.92 -555.8,242.64 -555.8,717.47 0,566.28 383.7,777.57 899.2,777.57 404.3,0 677.1,-232.53 818.6,-586.05 l -404.3,-121.32 c -45.3,113.76 -209.8,252.72 -424.4,252.72 -410.7,0 -445.6,-219.24 -445.6,-291.24 0,-269.28 232.2,-322.56 609.8,-440.99 384.4,-120.96 785.8,-297.72 785.8,-915.12 0,-621.72 -504,-878.4 -909.7,-878.4 -495.3,0 -858.9,293.04 -1050.8,727.56"
         style="fill:#231f20;fill-opacity:1;fill-rule:nonzero;stroke:none"
         transform="matrix(0.13333333,0,0,-0.13333333,0,2304.6667)" />
      <path
         id="path19"
         d="m 21146.8,10082.5 h 1695.5 v -454.69 h -1241.2 v -707.39 h 837.7 v -464.76 h -837.7 v -788.4 h 1332 V 7202.5 h -1786.3 v 2880"
         style="fill:#231f20;fill-opacity:1;fill-rule:nonzero;stroke:none"
         transform="matrix(0.13333333,0,0,-0.13333333,0,2304.6667)" />
      <path
         id="path20"
         d="m 4020.13,7616.5 c 310.32,0 562.32,294.12 562.32,1026 0,731.87 -252,1025.99 -562.32,1025.99 -310.32,0 -562.32,-293.76 -562.32,-1025.99 0,-731.88 252,-1026 562.32,-1026 z m 1018.08,1026 c 0,-103.32 21.96,-1490.4 -1023.12,-1490.4 -1045.07,0 -1023.11,1387.08 -1023.11,1490.4 0,103.32 -21.96,1490 1023.11,1490 1045.08,0 1023.12,-1386.68 1023.12,-1490"
         style="fill:#231f20;fill-opacity:1;fill-rule:nonzero;stroke:none"
         transform="matrix(0.13333333,0,0,-0.13333333,0,2304.6667)" />
      <path
         id="path21"
         d="m 6687.32,4060.4 h 641.13 c 361.42,0 399.94,260.6 399.94,353.5 0,135 -101.51,353.9 -384.46,353.9 H 6687.32 Z M 7223.7,3595.6 H 6687.32 V 2342.5 h -454.3 v 2880 h 1088.59 c 677.49,0 871.89,-550.8 871.89,-808.6 0,-178.9 -98.28,-818.3 -969.8,-818.3"
         style="fill:#231f20;fill-opacity:1;fill-rule:nonzero;stroke:none"
         transform="matrix(0.13333333,0,0,-0.13333333,0,2304.6667)" />
      <path
         id="path22"
         d="m 11046.3,3019.6 434.5,161.7 c 121.3,-272.9 343.4,-424.5 616.3,-424.5 262.7,0 444.9,181.8 444.9,424.5 0,385.2 -444.6,444.6 -818.6,596.1 -171.7,71 -555.8,242.7 -555.8,717.5 0,566.3 383.7,777.6 899.2,777.6 404.3,0 677.2,-232.5 818.6,-586.1 l -404.2,-121.3 c -45.4,113.8 -209.9,252.7 -424.5,252.7 -410.7,0 -445.6,-219.2 -445.6,-291.2 0,-269.3 232.2,-322.6 609.8,-441 384.5,-121 785.8,-297.7 785.8,-915.1 0,-621.7 -503.9,-878.4 -909.6,-878.4 -495.4,0 -859,293 -1050.8,727.5"
         style="fill:#231f20;fill-opacity:1;fill-rule:nonzero;stroke:none"
         transform="matrix(0.13333333,0,0,-0.13333333,0,2304.6667)" />
      <path
         id="path23"
         d="m 14353.6,2342.5 h -456.8 v 2475.7 h -659.5 v 404.3 h 1786.2 v -404.3 h -669.9 V 2342.5"
         style="fill:#231f20;fill-opacity:1;fill-rule:nonzero;stroke:none"
         transform="matrix(0.13333333,0,0,-0.13333333,0,2304.6667)" />
      <path
         id="path24"
         d="m 15455.6,5222.5 h 1695.5 v -454.7 h -1241.2 v -707.4 h 837.6 v -464.8 h -837.6 v -788.3 h 1331.9 v -464.8 h -1786.2 v 2880"
         style="fill:#231f20;fill-opacity:1;fill-rule:nonzero;stroke:none"
         transform="matrix(0.13333333,0,0,-0.13333333,0,2304.6667)" />
      <path
         id="path25"
         d="m 18701.3,4767.8 h -515.5 V 2807.6 h 483.5 c 419,0 556.5,507.6 556.5,1049.8 0,257.7 -73.4,910.4 -524.5,910.4 z m -969.8,-2425.3 v 2880 h 1038.9 c 726.8,0 921.6,-957.3 921.6,-1375.2 0,-1080.4 -555.5,-1504.8 -919.8,-1504.8 h -1040.7"
         style="fill:#231f20;fill-opacity:1;fill-rule:nonzero;stroke:none"
         transform="matrix(0.13333333,0,0,-0.13333333,0,2304.6667)" />
      <path
         id="path26"
         d="m 9596.11,2756.5 c 310.32,0 562.29,294.1 562.29,1026 0,731.9 -251.97,1026 -562.29,1026 -310.32,0 -562.32,-293.8 -562.32,-1026 0,-731.9 252,-1026 562.32,-1026 z m 1018.09,1026 c 0,-103.3 21.9,-1490.4 -1023.13,-1490.4 -1045.07,0 -1023.11,1387.1 -1023.11,1490.4 0,103.3 -21.96,1490 1023.11,1490 1045.03,0 1023.13,-1386.7 1023.13,-1490"
         style="fill:#231f20;fill-opacity:1;fill-rule:nonzero;stroke:none"
         transform="matrix(0.13333333,0,0,-0.13333333,0,2304.6667)" />
    </g>
  </g>
</svg>
