<?xml version="1.0" encoding="UTF-8" standalone="no"?>
<!-- Created with Inkscape (http://www.inkscape.org/) -->

<svg
   version="1.1"
   id="svg1"
   width="3456.6667"
   height="3456.6667"
   viewBox="0 0 3456.6667 3456.6667"
   sodipodi:docname="tmpe0ceitsx.pdf"
   xmlns:inkscape="http://www.inkscape.org/namespaces/inkscape"
   xmlns:sodipodi="http://sodipodi.sourceforge.net/DTD/sodipodi-0.dtd"
   xmlns="http://www.w3.org/2000/svg"
   xmlns:svg="http://www.w3.org/2000/svg">
  <defs
     id="defs1" />
  <sodipodi:namedview
     id="namedview1"
     pagecolor="#ffffff"
     bordercolor="#000000"
     borderopacity="0.25"
     inkscape:showpageshadow="2"
     inkscape:pageopacity="0.0"
     inkscape:pagecheckerboard="0"
     inkscape:deskcolor="#d1d1d1">
    <inkscape:page
       x="0"
       y="0"
       inkscape:label="1"
       id="page1"
       width="3456.6667"
       height="3456.6667"
       margin="0"
       bleed="0" />
  </sodipodi:namedview>
  <g
     id="g1"
     inkscape:groupmode="layer"
     inkscape:label="1">
    <g
       id="group-R5">
      <path
         id="path2"
         d="M 1622.5,1.20313 C 1191.24,1.20313 784.602,170.402 477.488,477.5 170.383,784.602 1.25,1191.2 1.25,1622.5 v 22680 c 0,431.3 169.133,837.9 476.238,1145 307.114,307.1 713.752,476.3 1145.012,476.3 h 22680 c 431.3,0 837.9,-169.2 1145,-476.3 307.1,-307.1 476.3,-713.7 476.3,-1145 v -22680 c 0,-431.3 -169.2,-837.898 -476.3,-1145 C 25140.4,170.402 24733.8,1.20313 24302.5,1.20313 h -22680"
         style="fill:#ffffff;fill-opacity:1;fill-rule:nonzero;stroke:none"
         transform="matrix(0.13333333,0,0,-0.13333333,0,3456.6667)" />
      <path
         id="path3"
         d="m 24302.5,25925 h -22680 c -218.07,0 -430.03,-43.1 -629.992,-128 -193.031,-82 -366.61,-199.3 -515.903,-348.6 -149.292,-149.3 -266.57,-322.9 -348.578,-515.9 C 43.0742,24732.5 0,24520.6 0,24302.5 v -22680 c 0,-218.1 43.0742,-430 128.027,-630 C 210.035,799.5 327.313,625.902 476.605,476.602 625.898,327.301 799.477,210 992.508,128 1192.47,43.1016 1404.43,0 1622.5,0 h 22680 c 218.1,0 430,43.1016 630,128 193,82 366.6,199.301 515.9,348.602 149.3,149.3 266.6,322.898 348.6,515.898 84.9,200 128,411.9 128,630 v 22680 c 0,218.1 -43.1,430 -128,630 -82,193 -199.3,366.6 -348.6,515.9 -149.3,149.3 -322.9,266.6 -515.9,348.6 -200,84.9 -411.9,128 -630,128 z m 0,-2.5 c 891,0 1620,-729 1620,-1620 v -22680 c 0,-891 -729,-1620 -1620,-1620 h -22680 c -891,0 -1620,729 -1620,1620 v 22680 c 0,891 729,1620 1620,1620 h 22680"
         style="fill:#231f20;fill-opacity:1;fill-rule:nonzero;stroke:none"
         transform="matrix(0.13333333,0,0,-0.13333333,0,3456.6667)" />
      <path
         id="path4"
         d="m 1622.5,452.5 c -310.73,0 -604.05,122.199 -825.922,344.102 C 574.691,1018.5 452.5,1311.8 452.5,1622.5 v 22680 c 0,310.7 122.191,604.1 344.07,825.9 221.88,221.9 515.2,344.1 825.93,344.1 h 22680 c 310.7,0 604,-122.2 825.9,-344.1 221.9,-221.8 344.1,-515.2 344.1,-825.9 v -22680 c 0,-310.7 -122.2,-604 -344.1,-825.898 C 24906.5,574.699 24613.2,452.5 24302.5,452.5 h -22680"
         style="fill:#231f20;fill-opacity:1;fill-rule:nonzero;stroke:none"
         transform="matrix(0.13333333,0,0,-0.13333333,0,3456.6667)" />
      <path
         id="path5"
         d="m 1622.5,1082.5 c -144.51,0 -276.06,55.2 -380.44,159.5 -104.39,104.4 -159.56,236 -159.56,380.5 v 22680 c 0,144.5 55.17,276.1 159.55,380.4 104.38,104.4 235.93,159.6 380.45,159.6 h 22680 c 144.5,0 276.1,-55.2 380.5,-159.6 104.3,-104.3 159.5,-235.9 159.5,-380.4 v -22680 c 0,-144.5 -55.2,-276.1 -159.6,-380.5 -104.3,-104.3 -235.9,-159.5 -380.4,-159.5 h -22680"
         style="fill:#ffffff;fill-opacity:1;fill-rule:nonzero;stroke:none"
         transform="matrix(0.13333333,0,0,-0.13333333,0,3456.6667)" />
      <path
         id="path6"
         d="M 4602.17,17282.6 H 3916.93 V 20996 h -989.25 v 606.4 h 2679.4 V 20996 H 4602.17 v -3713.4"
         style="fill:#231f20;fill-opacity:1;fill-rule:nonzero;stroke:none"
         transform="matrix(0.13333333,0,0,-0.13333333,0,3456.6667)" />
      <path
         id="path7"
         d="m 7600.34,19859.4 c 542.15,0 627.46,390.9 627.46,530.2 0,188.5 -140.93,530.8 -594.52,530.8 h -890.97 v -1061 z m -858.03,-696.6 v -1880.2 h -681.46 v 4319.8 h 1562.71 c 990.34,0 1287.33,-792.1 1287.33,-1213.3 0,-160.4 -59.4,-792.2 -670.67,-1081.6 l 761.38,-2024.9 h -743.01 l -697.13,1880.2 h -819.15"
         style="fill:#231f20;fill-opacity:1;fill-rule:nonzero;stroke:none"
         transform="matrix(0.13333333,0,0,-0.13333333,0,3456.6667)" />
      <path
         id="path8"
         d="m 9515.85,18828.5 v 2773.9 h 681.45 v -2773.9 c 0,-561 318.6,-924.4 788.4,-924.4 469.8,0 788.4,363.4 788.4,924.4 v 2773.9 h 682.5 v -2773.9 c 0,-1366.1 -1048.1,-1621.5 -1470.4,-1621.5 -384.4,0 -1470.35,226.2 -1470.35,1621.5"
         style="fill:#231f20;fill-opacity:1;fill-rule:nonzero;stroke:none"
         transform="matrix(0.13333333,0,0,-0.13333333,0,3456.6667)" />
      <path
         id="path9"
         d="m 13122,19450.1 c 0,607.4 122.1,2227.4 1591.4,2227.4 626.4,0 1052.9,-254.9 1349.4,-879.1 l -636.6,-272.7 c -220.9,317.5 -331,454.7 -712.3,454.7 -903.9,0 -894.2,-1259.8 -894.2,-1530.9 0,-267.8 -16.7,-1546.5 924.5,-1546.5 329.9,0 519.4,199.3 666.8,500.6 l 651.8,-242.5 c -243,-601 -651.2,-954.1 -1304.1,-954.1 -1554.6,0 -1636.7,1717.1 -1636.7,2243.1"
         style="fill:#231f20;fill-opacity:1;fill-rule:nonzero;stroke:none"
         transform="matrix(0.13333333,0,0,-0.13333333,0,3456.6667)" />
      <path
         id="path10"
         d="m 17868.7,19328.6 -456.3,-561.1 v -1484.9 h -684.2 v 4319.8 h 684.2 v -1712.8 l 1368.9,1712.8 h 881.7 l -1338,-1682.6 1429.3,-2637.2 h -790.5 l -1095.1,2046"
         style="fill:#231f20;fill-opacity:1;fill-rule:nonzero;stroke:none"
         transform="matrix(0.13333333,0,0,-0.13333333,0,3456.6667)" />
      <path
         id="path11"
         d="m 20056.9,18298.3 651.8,242.4 c 182,-409.3 515.1,-636.6 924.4,-636.6 394.2,0 667.5,272.7 667.5,636.6 0,577.8 -666.9,666.9 -1228,894.2 -257.5,106.4 -833.7,364 -833.7,1076.2 0,849.4 575.6,1166.4 1348.9,1166.4 606.4,0 1015.7,-348.8 1227.9,-879.1 l -606.4,-182 c -68,170.7 -314.8,379.1 -636.6,379.1 -616.2,0 -668.5,-328.9 -668.5,-436.9 0,-403.9 348.3,-483.8 914.7,-661.4 576.7,-181.5 1178.8,-446.6 1178.8,-1372.7 0,-932.5 -756,-1317.5 -1364.6,-1317.5 -743,0 -1288.4,439.5 -1576.2,1091.3"
         style="fill:#231f20;fill-opacity:1;fill-rule:nonzero;stroke:none"
         transform="matrix(0.13333333,0,0,-0.13333333,0,3456.6667)" />
      <path
         id="path12"
         d="m 5277.63,8000.5 h 3926.15 v 4031.9 z m 5695.17,-3678 H 9203.78 V 6373.8 H 2978.15 v 1626.7 l 6225.63,6402 h 1769.02 v -6402 h 1485.5 V 6373.8 H 10972.8 V 4322.5"
         style="fill:#231f20;fill-opacity:1;fill-rule:nonzero;stroke:none"
         transform="matrix(0.13333333,0,0,-0.13333333,0,3456.6667)" />
      <path
         id="path13"
         d="m 18728.6,12775.8 c -1808.1,0 -2445.6,-1874.8 -2445.6,-3360.4 0,-2228.9 921,-3465 2445.6,-3465 1572.5,0 2410.4,1544.8 2410.4,3429.8 0,2121.8 -885.8,3395.6 -2410.4,3395.6 z M 14474.9,9380.2 c 0,2648.5 1276.4,5197.4 4253.7,5197.4 3025.3,0 4218.5,-2598.1 4218.5,-5163.4 0,-2580.5 -1175.6,-5268.1 -4218.5,-5268.1 -3012.6,0 -4253.7,2585.5 -4253.7,5234.1"
         style="fill:#231f20;fill-opacity:1;fill-rule:nonzero;stroke:none"
         transform="matrix(0.13333333,0,0,-0.13333333,0,3456.6667)" />
    </g>
  </g>
</svg>
