<?xml version="1.0" encoding="UTF-8" standalone="no"?>
<!-- Created with Inkscape (http://www.inkscape.org/) -->

<svg
   version="1.1"
   id="svg1"
   width="2304.6667"
   height="1728.6667"
   viewBox="0 0 2304.6667 1728.6667"
   sodipodi:docname="tmpmcsxh5md.pdf"
   xmlns:inkscape="http://www.inkscape.org/namespaces/inkscape"
   xmlns:sodipodi="http://sodipodi.sourceforge.net/DTD/sodipodi-0.dtd"
   xmlns="http://www.w3.org/2000/svg"
   xmlns:svg="http://www.w3.org/2000/svg">
  <defs
     id="defs1" />
  <sodipodi:namedview
     id="namedview1"
     pagecolor="#ffffff"
     bordercolor="#000000"
     borderopacity="0.25"
     inkscape:showpageshadow="2"
     inkscape:pageopacity="0.0"
     inkscape:pagecheckerboard="0"
     inkscape:deskcolor="#d1d1d1">
    <inkscape:page
       x="0"
       y="0"
       inkscape:label="1"
       id="page1"
       width="2304.6667"
       height="1728.6667"
       margin="0"
       bleed="0" />
  </sodipodi:namedview>
  <g
     id="g1"
     inkscape:groupmode="layer"
     inkscape:label="1">
    <g
       id="group-R5">
      <path
         id="path2"
         d="M 17282.5,1082.5 C 17282.5,486 16799,2.5 16202.5,2.5 H 1082.5 C 486.031,2.5 2.5,486 2.5,1082.5 v 10800 c 0,596.5 483.531,1080 1080,1080 h 15120 c 596.5,0 1080,-483.5 1080,-1080 v -10800"
         style="fill:#ffffff;fill-opacity:1;fill-rule:nonzero;stroke:none"
         transform="matrix(0.13333333,0,0,-0.13333333,0,1728.6667)" />
      <path
         id="path3"
         d="M 17282.5,1082.5 C 17282.5,486 16799,2.5 16202.5,2.5 H 1082.5 C 486.031,2.5 2.5,486 2.5,1082.5 v 10800 c 0,596.5 483.531,1080 1080,1080 h 15120 c 596.5,0 1080,-483.5 1080,-1080 z"
         style="fill:none;stroke:#231f20;stroke-width:5;stroke-linecap:butt;stroke-linejoin:miter;stroke-miterlimit:4;stroke-dasharray:none;stroke-opacity:1"
         transform="matrix(0.13333333,0,0,-0.13333333,0,1728.6667)" />
      <path
         id="path4"
         d="m 1082.5,272.5 c -446.637,0 -810,363.398 -810,810 v 10800 c 0,446.6 363.363,810 810,810 h 15120 c 446.6,0 810,-363.4 810,-810 v -10800 c 0,-446.602 -363.4,-810 -810,-810 h -15120"
         style="fill:#231f20;fill-opacity:1;fill-rule:nonzero;stroke:none"
         transform="matrix(0.13333333,0,0,-0.13333333,0,1728.6667)" />
      <path
         id="path5"
         d="m 1082.5,722.5 c -198.508,0 -360,161.5 -360,360 v 10800 c 0,198.5 161.492,360 360,360 h 15120 c 198.5,0 360,-161.5 360,-360 v -10800 c 0,-198.5 -161.5,-360 -360,-360 h -15120"
         style="fill:#ffffff;fill-opacity:1;fill-rule:nonzero;stroke:none"
         transform="matrix(0.13333333,0,0,-0.13333333,0,1728.6667)" />
      <path
         id="path6"
         d="M 6621.59,9002.49 5795.42,10465.2 V 9002.49 h -341.08 v 2160.01 h 341.08 l 788.26,-1379.38 v 1379.38 h 341.07 V 9002.49 h -303.16"
         style="fill:#231f20;fill-opacity:1;fill-rule:nonzero;stroke:none"
         transform="matrix(0.13333333,0,0,-0.13333333,0,1728.6667)" />
      <path
         id="path7"
         d="m 7443.17,9002.49 v 2160.01 h 340.61 V 9320.8 h 999.13 V 9002.49 H 7443.17"
         style="fill:#231f20;fill-opacity:1;fill-rule:nonzero;stroke:none"
         transform="matrix(0.13333333,0,0,-0.13333333,0,1728.6667)" />
      <path
         id="path8"
         d="m 4837.41,9328.39 c -113.7,-212.21 -371.39,-363.8 -636.68,-363.8 -265.28,0 -522.99,151.59 -636.68,363.8 -60.63,128.83 -98.54,280.41 -98.54,447.16 v 1386.95 h 341.08 V 9775.55 c 0,-280.43 159.17,-462.32 394.14,-462.32 234.96,0 394.13,181.89 394.13,462.32 v 1386.95 h 341.08 V 9775.55 c 0,-166.75 -37.9,-318.33 -98.53,-447.16"
         style="fill:#231f20;fill-opacity:1;fill-rule:nonzero;stroke:none"
         transform="matrix(0.13333333,0,0,-0.13333333,0,1728.6667)" />
      <path
         id="path9"
         d="m 11920.8,9133.99 c -121.2,-106.11 -288,-166.74 -469.9,-166.74 -371.4,0 -644.2,219.78 -788.2,545.68 l 325.9,121.26 c 90.9,-204.62 257.7,-318.31 462.3,-318.31 197.1,0 333.5,136.42 333.5,318.31 0,288 -333.5,333.47 -613.9,447.21 -128.9,53 -416.9,181.8 -416.9,538.1 0,424.4 288,583.5 674.6,583.5 303.1,0 507.8,-174.3 613.9,-439.5 l -303.2,-91 c 0,0 -75.8,181.9 -318.3,189.5 -159.2,7.6 -348.7,-53.1 -333.5,-250.1 30.3,-401.7 1046,-136.5 1046,-985.28 0,-197.05 -75.8,-371.37 -212.3,-492.63"
         style="fill:#231f20;fill-opacity:1;fill-rule:nonzero;stroke:none"
         transform="matrix(0.13333333,0,0,-0.13333333,0,1728.6667)" />
      <path
         id="path10"
         d="m 13607.3,9133.99 c -121.3,-106.11 -288.1,-166.74 -470,-166.74 -371.3,0 -644.2,219.78 -788.2,545.68 l 325.9,121.26 c 91,-204.62 257.7,-318.31 462.3,-318.31 197.1,0 333.5,136.42 333.5,318.31 0,288 -333.5,333.47 -613.9,447.21 -128.9,53 -416.9,181.8 -416.9,538.1 0,424.4 288,583.5 674.6,583.5 303.2,0 507.8,-174.3 613.9,-439.5 l -303.1,-91 c 0,0 -75.8,181.9 -318.4,189.5 -159.1,7.6 -348.6,-53.1 -333.5,-250.1 30.3,-401.7 1046,-136.5 1046,-985.28 0,-197.05 -75.8,-371.37 -212.2,-492.63"
         style="fill:#231f20;fill-opacity:1;fill-rule:nonzero;stroke:none"
         transform="matrix(0.13333333,0,0,-0.13333333,0,1728.6667)" />
      <path
         id="path11"
         d="m 9106.91,9002.49 v 2160.01 h 1271.59 v -341.1 h -930.98 v -530.5 h 628.28 v -348.61 h -628.28 v -591.17 h 999.18 V 9002.49 H 9106.91"
         style="fill:#231f20;fill-opacity:1;fill-rule:nonzero;stroke:none"
         transform="matrix(0.13333333,0,0,-0.13333333,0,1728.6667)" />
      <path
         id="path12"
         d="m 6410.25,3482.34 c -68.37,113.7 -151.94,159.16 -281.09,166.74 -167.16,7.58 -273.52,-75.78 -349.49,-265.25 -53.19,-128.85 -83.57,-325.9 -83.57,-507.83 0,-227.3 45.58,-462.3 129.14,-598.7 68.39,-113.7 159.55,-166.8 296.31,-166.8 159.55,0 258.31,83.4 334.29,272.9 45.59,113.7 83.57,325.9 83.57,492.6 0,242.55 -45.58,462.34 -129.16,606.34 z M 6645.78,2004.5 c -121.57,-166.8 -296.31,-242.6 -524.23,-242.6 -303.89,0 -493.84,121.3 -623,386.6 -91.15,181.9 -151.93,469.8 -151.93,727.5 0,356.25 91.15,674.55 235.52,879.2 129.15,166.73 303.9,242.51 554.6,242.51 273.51,0 463.46,-121.26 600.21,-386.52 91.16,-189.47 144.34,-462.3 144.34,-735.19 0,-341 -83.57,-682.1 -235.51,-871.5"
         style="fill:#231f20;fill-opacity:1;fill-rule:nonzero;stroke:none"
         transform="matrix(0.13333333,0,0,-0.13333333,0,1728.6667)" />
      <path
         id="path13"
         d="m 4588.31,3583.54 c -60.62,30.31 -98.52,37.91 -204.64,37.91 H 3936.48 V 3090.9 h 447.19 c 106.12,0 144.02,7.6 204.64,37.89 75.79,37.91 128.87,136.42 128.87,227.38 0,90.96 -53.08,181.9 -128.87,227.37 z m 144.02,-765.44 c -98.53,-45.5 -227.38,-75.8 -394.14,-75.8 h -401.71 v -939.8 h -341.07 v 2159.98 h 742.78 c 174.33,0 288.01,-15.16 394.14,-68.2 189.48,-90.96 333.49,-318.32 333.49,-538.11 0,-227.38 -144.01,-454.77 -333.49,-538.07"
         style="fill:#231f20;fill-opacity:1;fill-rule:nonzero;stroke:none"
         transform="matrix(0.13333333,0,0,-0.13333333,0,1728.6667)" />
      <path
         id="path14"
         d="M 9685.82,3659.34 V 1802.5 H 9343.3 v 1856.84 h -494.8 v 303.15 h 1339.7 v -303.15 h -502.38"
         style="fill:#231f20;fill-opacity:1;fill-rule:nonzero;stroke:none"
         transform="matrix(0.13333333,0,0,-0.13333333,0,1728.6667)" />
      <path
         id="path15"
         d="m 8463.48,1934 c -121.27,-106.1 -288.02,-166.8 -469.93,-166.8 -371.38,0 -644.25,219.8 -788.26,545.7 l 325.92,121.3 c 90.96,-204.6 257.69,-318.3 462.34,-318.3 197.07,0 333.5,136.4 333.5,318.3 0,288 -333.5,333.5 -613.94,447.1 -128.85,53.1 -416.86,181.92 -416.86,538.15 0,424.41 288.01,583.58 674.57,583.58 303.16,0 507.82,-174.32 613.93,-439.59 l -303.17,-90.94 c 0,0 -75.8,181.89 -318.35,189.47 -159.17,7.58 -348.66,-53.04 -333.49,-250.11 30.32,-401.68 1045.96,-136.41 1045.96,-985.26 0,-197 -75.79,-371.4 -212.22,-492.6"
         style="fill:#231f20;fill-opacity:1;fill-rule:nonzero;stroke:none"
         transform="matrix(0.13333333,0,0,-0.13333333,0,1728.6667)" />
      <path
         id="path16"
         d="m 13166.6,3530.49 c -53,53.05 -128.8,90.96 -219.8,90.96 h -386.5 V 2151.1 h 341 c 113.7,0 181.9,22.7 242.6,83.4 128.8,128.8 197,363.8 197,651.8 0,287.98 -68.2,530.5 -174.3,644.19 z m 144,-1606.79 c -83.4,-75.8 -197,-113.6 -310.7,-121.2 -22.8,0 -68.3,0 -121.3,0 h -659.4 v 2159.98 h 697.3 c 219.8,0 303.2,-22.73 416.9,-113.69 227.4,-197.05 356.2,-538.11 356.2,-962.49 0,-432 -136.4,-773.1 -379,-962.6"
         style="fill:#231f20;fill-opacity:1;fill-rule:nonzero;stroke:none"
         transform="matrix(0.13333333,0,0,-0.13333333,0,1728.6667)" />
      <path
         id="path17"
         d="m 10512.2,1802.5 v 2159.98 h 1271.6 v -341.05 h -930.9 V 3090.9 h 628.2 v -348.6 h -628.2 v -591.2 h 999.1 v -348.6 h -1339.8"
         style="fill:#231f20;fill-opacity:1;fill-rule:nonzero;stroke:none"
         transform="matrix(0.13333333,0,0,-0.13333333,0,1728.6667)" />
      <path
         id="path18"
         d="m 2500.39,7082.36 c -68.38,113.68 -151.94,159.15 -281.1,166.73 -167.15,7.59 -273.52,-75.78 -349.49,-265.25 -53.18,-128.85 -83.56,-325.9 -83.56,-507.8 0,-227.37 45.57,-462.31 129.14,-598.74 68.39,-113.68 159.55,-166.73 296.31,-166.73 159.55,0 258.31,83.38 334.29,272.84 45.58,113.68 83.57,325.9 83.57,492.63 0,242.52 -45.59,462.31 -129.16,606.32 z m 235.52,-1477.9 c -121.56,-166.74 -296.31,-242.53 -524.22,-242.53 -303.9,0 -493.85,121.27 -623,386.53 -91.16,181.9 -151.93,469.89 -151.93,727.58 0,356.22 91.15,674.53 235.52,879.17 129.15,166.73 303.89,242.52 554.6,242.52 273.51,0 463.44,-121.27 600.2,-386.53 91.16,-189.47 144.35,-462.31 144.35,-735.16 0,-341.05 -83.57,-682.09 -235.52,-871.58"
         style="fill:#231f20;fill-opacity:1;fill-rule:nonzero;stroke:none"
         transform="matrix(0.13333333,0,0,-0.13333333,0,1728.6667)" />
      <path
         id="path19"
         d="m 12105,5402.49 v 2160 h 345.6 v -2160 H 12105"
         style="fill:#231f20;fill-opacity:1;fill-rule:nonzero;stroke:none"
         transform="matrix(0.13333333,0,0,-0.13333333,0,1728.6667)" />
      <path
         id="path20"
         d="M 4033.38,7259.34 V 5402.49 h -342.52 v 1856.85 h -494.81 v 303.16 h 1339.74 v -303.16 h -502.41"
         style="fill:#231f20;fill-opacity:1;fill-rule:nonzero;stroke:none"
         transform="matrix(0.13333333,0,0,-0.13333333,0,1728.6667)" />
      <path
         id="path21"
         d="m 9261.04,7183.54 c -53.03,30.33 -83.36,37.9 -197.06,37.9 H 8654.7 v -530.52 h 409.28 c 106.13,0 144.03,7.57 197.06,37.88 83.39,45.48 136.46,136.43 136.46,227.37 0,90.95 -53.07,181.91 -136.46,227.37 z m 151.6,-1781.05 -348.66,939.8 H 8654.7 v -939.8 H 8313.63 V 7562.5 h 712.45 c 166.76,0 280.45,-15.17 386.56,-68.22 189.49,-90.95 325.92,-318.31 325.92,-538.11 0,-227.37 -136.43,-454.73 -333.49,-545.68 l 378.98,-1008 h -371.41"
         style="fill:#231f20;fill-opacity:1;fill-rule:nonzero;stroke:none"
         transform="matrix(0.13333333,0,0,-0.13333333,0,1728.6667)" />
      <path
         id="path22"
         d="m 11526.4,5402.49 h -304 l -342.2,1386.95 -334.5,-1386.95 h -304.1 L 9922.29,7562.5 H 10272 l 167.3,-1136.85 273.7,1136.85 h 334.5 l 281.3,-1136.85 167.2,1136.85 h 349.8 l -319.4,-2160.01"
         style="fill:#231f20;fill-opacity:1;fill-rule:nonzero;stroke:none"
         transform="matrix(0.13333333,0,0,-0.13333333,0,1728.6667)" />
      <path
         id="path23"
         d="m 14002.5,5533.97 c -121.3,-106.1 -288,-166.73 -469.9,-166.73 -371.4,0 -644.3,219.78 -788.3,545.68 l 325.9,121.27 c 91,-204.63 257.7,-318.32 462.4,-318.32 197.1,0 333.5,136.42 333.5,318.32 0,288 -333.5,333.47 -614,447.15 -128.8,53.06 -416.8,181.89 -416.8,538.11 0,424.42 288,583.58 674.6,583.58 303.1,0 507.8,-174.31 613.9,-439.58 l -303.2,-90.94 c 0,0 -75.8,181.89 -318.3,189.46 -159.2,7.58 -348.7,-53.03 -333.5,-250.1 30.3,-401.68 1045.9,-136.43 1045.9,-985.26 0,-197.05 -75.8,-371.37 -212.2,-492.64"
         style="fill:#231f20;fill-opacity:1;fill-rule:nonzero;stroke:none"
         transform="matrix(0.13333333,0,0,-0.13333333,0,1728.6667)" />
      <path
         id="path24"
         d="m 5924.36,5402.49 v 939.8 h -788.29 v -939.8 H 4795 v 2160 h 341.07 v -871.57 h 788.29 v 871.57 h 341.07 v -2160 h -341.07"
         style="fill:#231f20;fill-opacity:1;fill-rule:nonzero;stroke:none"
         transform="matrix(0.13333333,0,0,-0.13333333,0,1728.6667)" />
      <path
         id="path25"
         d="m 6680.13,5402.49 v 2160 h 1271.61 v -341.05 h -931.01 v -530.53 h 628.25 v -348.63 h -628.25 v -591.16 h 999.14 V 5402.49 H 6680.13"
         style="fill:#231f20;fill-opacity:1;fill-rule:nonzero;stroke:none"
         transform="matrix(0.13333333,0,0,-0.13333333,0,1728.6667)" />
      <path
         id="path26"
         d="m 14508.5,5402.49 v 2160 h 1271.6 v -341.05 h -931 v -530.53 h 628.2 v -348.63 h -628.2 v -591.16 h 999.1 v -348.63 h -1339.7"
         style="fill:#231f20;fill-opacity:1;fill-rule:nonzero;stroke:none"
         transform="matrix(0.13333333,0,0,-0.13333333,0,1728.6667)" />
    </g>
  </g>
</svg>
