<?xml version="1.0" standalone="no"?>
<svg width="1728px" height="432px" viewBox="0 360 1728 432 " xmlns="http://www.w3.org/2000/svg" xmlns:xlink="http://www.w3.org/1999/xlink">
<title>generated by pstoedit</title>
<!-- generated by pstoedit version:4.02 -->
<g xml:space='preserve'>
<clipPath id="clippath1"> 	<path d="
	M 0 359.5 
	L 0 792 
	L 1728.5 792 
	L 1728.5 359.5 
	Z 
	" style="clip-rule:nonzero"/>
</clipPath>
<g style="clip-path:url(#clippath1)"> 
<g fill="#ffffff" fill-rule="nonzero" stroke-width="0" stroke-linejoin="miter" stroke-linecap="butt" stroke-miterlimit="10" >
	<path d="
	M 1728.25 719.75 
	C 1728.25 759.516 1696.01 791.75 1656.25 791.75 
	L 72.25 791.75 
	C 32.4844 791.75 0.25 759.516 0.25 719.75 
	L 0.25 431.75 
	C 0.25 391.984 32.4844 359.75 72.25 359.75 
	L 1656.25 359.75 
	C 1696.01 359.75 1728.25 391.984 1728.25 431.75 
	Z 
	"/>
</g>
<g stroke="#7f7f7f" fill="none" stroke-width="0.5" stroke-linejoin="miter" stroke-linecap="butt" stroke-miterlimit="4" >
	<path d="
	M 1728.25 719.75 
	C 1728.25 759.516 1696.01 791.75 1656.25 791.75 
	L 72.25 791.75 
	C 32.4844 791.75 0.25 759.516 0.25 719.75 
	L 0.25 431.75 
	C 0.25 391.984 32.4844 359.75 72.25 359.75 
	L 1656.25 359.75 
	C 1696.01 359.75 1728.25 391.984 1728.25 431.75 
	Z 
	"/>
</g>
<g fill="#7f7f7f" fill-rule="nonzero" stroke-width="0" stroke-linejoin="miter" stroke-linecap="butt" stroke-miterlimit="4" >
	<path d="
	M 72.25 764.75 
	C 47.4375 764.75 27.25 744.562 27.25 719.75 
	L 27.25 431.75 
	C 27.25 406.937 47.4375 386.75 72.25 386.75 
	L 1656.25 386.75 
	C 1681.06 386.75 1701.25 406.937 1701.25 431.75 
	L 1701.25 719.75 
	C 1701.25 744.562 1681.06 764.75 1656.25 764.75 
	Z 
	"/>
</g>
<g fill="#ffffff" fill-rule="nonzero" stroke-width="0" stroke-linejoin="miter" stroke-linecap="butt" stroke-miterlimit="4" >
	<path d="
	M 72.25 737.75 
	C 62.3242 737.75 54.25 729.676 54.25 719.75 
	L 54.25 431.75 
	C 54.25 421.824 62.3242 413.75 72.25 413.75 
	L 1656.25 413.75 
	C 1666.17 413.75 1674.25 421.824 1674.25 431.75 
	L 1674.25 719.75 
	C 1674.25 729.676 1666.17 737.75 1656.25 737.75 
	Z 
	"/>
</g>
<g fill="#7f7f7f" fill-rule="nonzero" stroke-width="0" stroke-linejoin="miter" stroke-linecap="butt" stroke-miterlimit="4" >
	<path d="
	M 1389.61 532.172 
	L 1374.42 594.316 
	L 1405.57 594.316 
	Z 
	M 1428.37 683.75 
	L 1413.17 624.633 
	L 1366.82 624.633 
	L 1352.38 683.75 
	L 1321.23 683.75 
	L 1375.18 467.75 
	L 1405.57 467.75 
	L 1459.52 683.75 
	Z 
	"/>
</g>
<g fill="#7f7f7f" fill-rule="nonzero" stroke-width="0" stroke-linejoin="miter" stroke-linecap="butt" stroke-miterlimit="4" >
	<path d="
	M 742.598 520.043 
	C 737.305 504.887 728.227 498.066 714.613 498.066 
	L 688.895 498.066 
	L 688.895 653.434 
	L 714.613 653.434 
	C 732.766 653.434 742.598 639.035 745.621 622.359 
	C 747.137 608.719 748.648 593.562 748.648 576.887 
	C 748.648 552.633 746.379 529.141 742.598 520.043 
	Z 
	M 747.891 673.898 
	C 740.328 680.719 729.738 683.75 717.641 683.75 
	L 657.887 683.75 
	L 657.887 467.75 
	L 713.102 467.75 
	C 731.254 467.75 740.328 470.023 747.891 476.086 
	C 760.75 485.18 769.824 501.855 773.605 523.836 
	C 776.633 539.75 778.902 558.695 778.902 575.371 
	C 778.902 625.395 769.066 657.223 747.891 673.898 
	Z 
	"/>
</g>
<g fill="#7f7f7f" fill-rule="nonzero" stroke-width="0" stroke-linejoin="miter" stroke-linecap="butt" stroke-miterlimit="4" >
	<path d="
	M 286.262 683.75 
	L 286.262 467.75 
	L 388.109 467.75 
	L 388.109 498.066 
	L 317.422 498.066 
	L 317.422 552.633 
	L 362.27 552.633 
	L 362.27 582.191 
	L 317.422 582.191 
	L 317.422 653.434 
	L 396.473 653.434 
	L 396.473 683.75 
	Z 
	"/>
</g>
<g fill="#7f7f7f" fill-rule="nonzero" stroke-width="0" stroke-linejoin="miter" stroke-linecap="butt" stroke-miterlimit="4" >
	<path d="
	M 822.105 683.75 
	L 822.105 467.75 
	L 923.953 467.75 
	L 923.953 498.066 
	L 853.266 498.066 
	L 853.266 552.633 
	L 898.113 552.633 
	L 898.113 582.191 
	L 853.266 582.191 
	L 853.266 653.434 
	L 932.316 653.434 
	L 932.316 683.75 
	Z 
	"/>
</g>
<g fill="#7f7f7f" fill-rule="nonzero" stroke-width="0" stroke-linejoin="miter" stroke-linecap="butt" stroke-miterlimit="4" >
	<path d="
	M 580.129 683.75 
	L 580.129 467.75 
	L 610.367 467.75 
	L 610.367 683.75 
	Z 
	"/>
</g>
<g fill="#7f7f7f" fill-rule="nonzero" stroke-width="0" stroke-linejoin="miter" stroke-linecap="butt" stroke-miterlimit="4" >
	<path d="
	M 1260.75 683.75 
	L 1260.75 467.75 
	L 1290.99 467.75 
	L 1290.99 683.75 
	Z 
	"/>
</g>
<g fill="#7f7f7f" fill-rule="nonzero" stroke-width="0" stroke-linejoin="miter" stroke-linecap="butt" stroke-miterlimit="4" >
	<path d="
	M 1489.76 683.75 
	L 1489.76 467.75 
	L 1520.92 467.75 
	L 1520.92 654.949 
	L 1599.98 654.949 
	L 1599.98 683.75 
	Z 
	"/>
</g>
<g fill="#7f7f7f" fill-rule="nonzero" stroke-width="0" stroke-linejoin="miter" stroke-linecap="butt" stroke-miterlimit="4" >
	<path d="
	M 1066.6 683.75 
	L 1000.05 538.992 
	L 1000.05 683.75 
	L 969.039 683.75 
	L 969.039 467.75 
	L 1000.05 467.75 
	L 1059.04 597.352 
	L 1059.04 467.75 
	L 1090.05 467.75 
	L 1090.05 683.75 
	Z 
	"/>
</g>
<g fill="#7f7f7f" fill-rule="nonzero" stroke-width="0" stroke-linejoin="miter" stroke-linecap="butt" stroke-miterlimit="4" >
	<path d="
	M 191.301 498.066 
	L 159.535 498.066 
	L 159.535 552.633 
	L 191.301 552.633 
	C 209.453 552.633 219.285 542.781 219.285 525.352 
	C 219.285 508.676 207.938 498.066 191.301 498.066 
	Z 
	M 217.773 683.75 
	L 189.031 582.191 
	L 159.535 582.191 
	L 159.535 683.75 
	L 128.523 683.75 
	L 128.523 467.75 
	L 192.813 467.75 
	C 226.848 467.75 249.539 490.484 249.539 525.352 
	C 249.539 551.117 238.949 570.066 218.527 577.645 
	L 249.539 683.75 
	Z 
	"/>
</g>
<g fill="#7f7f7f" fill-rule="nonzero" stroke-width="0" stroke-linejoin="miter" stroke-linecap="butt" stroke-miterlimit="4" >
	<path d="
	M 483.898 583.996 
	C 474.555 577.941 465.48 571.867 459.688 567.793 
	C 442.273 555.535 433.047 538.992 433.047 520.043 
	C 433.047 488.973 457.402 463.961 488.609 463.961 
	C 519.051 463.961 542.645 487.453 543.406 520.043 
	L 513.727 520.043 
	C 512.965 504.887 502.309 495.035 488.609 495.035 
	C 474.148 495.035 462.73 505.645 462.73 520.043 
	C 462.73 530.656 467.297 536.719 483.281 545.812 
	C 525.141 570.066 543.406 593.562 543.406 624.633 
	C 543.406 659.496 516.77 687.539 483.281 687.539 
	C 445.227 687.539 422.395 655.707 422.395 620.086 
	L 452.836 620.086 
	C 452.836 638.273 461.969 657.223 483.281 657.223 
	C 500.023 657.223 513.727 642.066 513.727 624.633 
	C 513.727 611.098 508.133 599.699 483.898 583.996 
	Z 
	"/>
</g>
<g fill="#7f7f7f" fill-rule="nonzero" stroke-width="0" stroke-linejoin="miter" stroke-linecap="butt" stroke-miterlimit="4" >
	<path d="
	M 1190.98 496.551 
	L 1190.98 683.75 
	L 1159.82 683.75 
	L 1159.82 496.551 
	L 1120.29 496.551 
	L 1120.29 467.75 
	L 1230.51 467.75 
	L 1230.51 496.551 
	Z 
	"/>
</g>
</g >
</g>
</svg>
