<?xml version="1.0" standalone="no"?>
<svg width="2592px" height="3456px" viewBox="0 -2664 2592 3456 " xmlns="http://www.w3.org/2000/svg" xmlns:xlink="http://www.w3.org/1999/xlink">
<title>generated by pstoedit</title>
<!-- generated by pstoedit version:4.02 -->
<g xml:space='preserve'>
<clipPath id="clippath1"> 	<path d="
	M 0 -2664.5 
	L 0 792 
	L 2592.5 792 
	L 2592.5 -2664.5 
	Z 
	" style="clip-rule:nonzero"/>
</clipPath>
<g style="clip-path:url(#clippath1)"> 
<g fill="#ffffff" fill-rule="nonzero" stroke-width="0" stroke-linejoin="miter" stroke-linecap="butt" stroke-miterlimit="10" >
	<path d="
	M 2592.25 629.75 
	C 2592.25 719.219 2519.72 791.75 2430.25 791.75 
	L 162.25 791.75 
	C 72.7813 791.75 0.25 719.219 0.25 629.75 
	L 0.25 -2502.25 
	C 0.25 -2591.72 72.7813 -2664.25 162.25 -2664.25 
	L 2430.25 -2664.25 
	C 2519.72 -2664.25 2592.25 -2591.72 2592.25 -2502.25 
	Z 
	"/>
</g>
<g stroke="#7f7f7f" fill="none" stroke-width="0.5" stroke-linejoin="miter" stroke-linecap="butt" stroke-miterlimit="4" >
	<path d="
	M 2592.25 629.75 
	C 2592.25 719.219 2519.72 791.75 2430.25 791.75 
	L 162.25 791.75 
	C 72.7813 791.75 0.25 719.219 0.25 629.75 
	L 0.25 -2502.25 
	C 0.25 -2591.72 72.7813 -2664.25 162.25 -2664.25 
	L 2430.25 -2664.25 
	C 2519.72 -2664.25 2592.25 -2591.72 2592.25 -2502.25 
	Z 
	"/>
</g>
<g fill="#7f7f7f" fill-rule="nonzero" stroke-width="0" stroke-linejoin="miter" stroke-linecap="butt" stroke-miterlimit="4" >
	<path d="
	M 162.25 746.75 
	C 97.7344 746.75 45.25 694.262 45.25 629.75 
	L 45.25 -2502.25 
	C 45.25 -2566.76 97.7344 -2619.25 162.25 -2619.25 
	L 2430.25 -2619.25 
	C 2494.76 -2619.25 2547.25 -2566.76 2547.25 -2502.25 
	L 2547.25 629.75 
	C 2547.25 694.262 2494.76 746.75 2430.25 746.75 
	Z 
	"/>
</g>
<g fill="#ffffff" fill-rule="nonzero" stroke-width="0" stroke-linejoin="miter" stroke-linecap="butt" stroke-miterlimit="4" >
	<path d="
	M 162.25 683.75 
	C 132.477 683.75 108.25 659.52 108.25 629.75 
	L 108.25 -2502.25 
	C 108.25 -2532.03 132.477 -2556.25 162.25 -2556.25 
	L 2430.25 -2556.25 
	C 2460.03 -2556.25 2484.25 -2532.02 2484.25 -2502.25 
	L 2484.25 629.75 
	C 2484.25 659.52 2460.03 683.75 2430.25 683.75 
	Z 
	"/>
</g>
<g fill="#7f7f7f" fill-rule="nonzero" stroke-width="0" stroke-linejoin="miter" stroke-linecap="butt" stroke-miterlimit="4" >
	<path d="
	M 1154.58 23.781 
	C 1140.9 1.039 1124.19 -8.05103 1098.36 -9.57001 
	C 1064.92 -11.078 1043.65 5.59003 1028.46 43.488 
	C 1017.82 69.262 1011.75 108.672 1011.75 145.039 
	C 1011.75 190.52 1020.86 237.512 1037.57 264.789 
	C 1051.25 287.531 1069.48 298.141 1096.83 298.141 
	C 1128.75 298.141 1148.5 281.461 1163.69 243.57 
	C 1172.81 220.832 1180.41 178.391 1180.41 145.039 
	C 1180.41 96.539 1171.29 52.582 1154.58 23.781 
	Z 
	M 1201.68 319.359 
	C 1177.37 352.711 1142.42 367.871 1096.83 367.871 
	C 1036.06 367.871 998.066 343.609 972.234 290.559 
	C 954.004 254.18 941.848 196.582 941.848 145.039 
	C 941.848 73.801 960.078 10.141 988.953 -30.789 
	C 1014.78 -64.141 1049.73 -79.289 1099.87 -79.289 
	C 1154.58 -79.289 1192.56 -55.039 1219.91 -1.98798 
	C 1238.15 35.91 1248.78 90.469 1248.78 145.039 
	C 1248.78 213.262 1232.07 281.461 1201.68 319.359 
	Z 
	"/>
</g>
<g fill="#7f7f7f" fill-rule="nonzero" stroke-width="0" stroke-linejoin="miter" stroke-linecap="butt" stroke-miterlimit="4" >
	<path d="
	M 582.965 359.75 
	L 582.965 302.148 
	L 780.031 -4.039 
	L 599.637 -4.039 
	L 599.637 -72.25 
	L 877.047 -72.25 
	L 877.047 -31.32 
	L 676.949 290.031 
	L 877.047 290.031 
	L 877.047 359.75 
	Z 
	"/>
</g>
<g fill="#7f7f7f" fill-rule="nonzero" stroke-width="0" stroke-linejoin="miter" stroke-linecap="butt" stroke-miterlimit="4" >
	<path d="
	M 1577.27 359.762 
	L 1412.04 67.211 
	L 1412.04 359.762 
	L 1343.82 359.762 
	L 1343.82 -72.25 
	L 1412.04 -72.25 
	L 1569.69 203.629 
	L 1569.69 -72.25 
	L 1637.9 -72.25 
	L 1637.9 359.762 
	Z 
	"/>
</g>
<g fill="#7f7f7f" fill-rule="nonzero" stroke-width="0" stroke-linejoin="miter" stroke-linecap="butt" stroke-miterlimit="4" >
	<path d="
	M 1741.59 359.75 
	L 1741.59 -72.25 
	L 1995.91 -72.25 
	L 1995.91 -4.039 
	L 1809.71 -4.039 
	L 1809.71 102.07 
	L 1935.36 102.07 
	L 1935.36 171.801 
	L 1809.71 171.801 
	L 1809.71 290.031 
	L 2009.54 290.031 
	L 2009.54 359.75 
	Z 
	"/>
</g>
<g fill="#7f7f7f" fill-rule="nonzero" stroke-width="0" stroke-linejoin="miter" stroke-linecap="butt" stroke-miterlimit="4" >
	<path d="
	M 1280.98 -360.25 
	L 1115.74 -652.79 
	L 1115.74 -360.25 
	L 1047.53 -360.25 
	L 1047.53 -792.25 
	L 1115.74 -792.25 
	L 1273.39 -516.37 
	L 1273.39 -792.25 
	L 1341.61 -792.25 
	L 1341.61 -360.25 
	Z 
	"/>
</g>
<g fill="#7f7f7f" fill-rule="nonzero" stroke-width="0" stroke-linejoin="miter" stroke-linecap="butt" stroke-miterlimit="4" >
	<path d="
	M 874.727 -360.25 
	L 874.727 -792.25 
	L 943.848 -792.25 
	L 943.848 -360.25 
	Z 
	"/>
</g>
<g fill="#7f7f7f" fill-rule="nonzero" stroke-width="0" stroke-linejoin="miter" stroke-linecap="butt" stroke-miterlimit="4" >
	<path d="
	M 2008.08 -386.54 
	C 1983.82 -365.32 1950.47 -353.2 1914.09 -353.2 
	C 1839.81 -353.2 1785.24 -397.15 1756.44 -462.33 
	L 1821.63 -486.59 
	C 1839.81 -445.66 1873.16 -422.92 1914.09 -422.92 
	C 1953.51 -422.92 1980.79 -450.21 1980.79 -486.59 
	C 1980.79 -544.19 1914.09 -553.28 1858 -576.02 
	C 1832.24 -586.63 1774.63 -612.39 1774.63 -683.64 
	C 1774.63 -768.52 1832.24 -800.36 1909.55 -800.36 
	C 1970.18 -800.36 2011.11 -765.49 2032.33 -712.44 
	L 1971.7 -694.25 
	C 1971.7 -694.25 1956.54 -730.63 1908.03 -732.14 
	C 1876.2 -733.66 1838.3 -721.54 1841.33 -682.12 
	C 1847.39 -601.79 2050.52 -654.84 2050.52 -485.07 
	C 2050.52 -445.66 2035.36 -410.8 2008.08 -386.54 
	Z 
	"/>
</g>
<g fill="#7f7f7f" fill-rule="nonzero" stroke-width="0" stroke-linejoin="miter" stroke-linecap="butt" stroke-miterlimit="4" >
	<path d="
	M 1445.29 -360.25 
	L 1445.29 -792.25 
	L 1699.61 -792.25 
	L 1699.61 -724.04 
	L 1513.41 -724.04 
	L 1513.41 -617.93 
	L 1639.06 -617.93 
	L 1639.06 -548.2 
	L 1513.41 -548.2 
	L 1513.41 -429.97 
	L 1713.24 -429.97 
	L 1713.24 -360.25 
	Z 
	"/>
</g>
<g fill="#7f7f7f" fill-rule="nonzero" stroke-width="0" stroke-linejoin="miter" stroke-linecap="butt" stroke-miterlimit="4" >
	<path d="
	M 610.102 -724.04 
	L 610.102 -617.93 
	L 735.746 -617.93 
	L 735.746 -548.2 
	L 610.102 -548.2 
	L 610.102 -360.25 
	L 541.977 -360.25 
	L 541.977 -792.25 
	L 809.926 -792.25 
	L 809.926 -724.04 
	Z 
	"/>
</g>
<g fill="#7f7f7f" fill-rule="nonzero" stroke-width="0" stroke-linejoin="miter" stroke-linecap="butt" stroke-miterlimit="4" >
	<path d="
	M 2013.76 -1800.25 
	L 1848.52 -2092.8 
	L 1848.52 -1800.25 
	L 1780.31 -1800.25 
	L 1780.31 -2232.25 
	L 1848.52 -2232.25 
	L 2006.17 -1956.38 
	L 2006.17 -2232.25 
	L 2074.39 -2232.25 
	L 2074.39 -1800.25 
	Z 
	"/>
</g>
<g fill="#7f7f7f" fill-rule="nonzero" stroke-width="0" stroke-linejoin="miter" stroke-linecap="butt" stroke-miterlimit="4" >
	<path d="
	M 1607.51 -1800.25 
	L 1607.51 -2232.25 
	L 1676.63 -2232.25 
	L 1676.63 -1800.25 
	Z 
	"/>
</g>
<g fill="#7f7f7f" fill-rule="nonzero" stroke-width="0" stroke-linejoin="miter" stroke-linecap="butt" stroke-miterlimit="4" >
	<path d="
	M 885.633 -1800.25 
	L 885.633 -2232.25 
	L 1139.96 -2232.25 
	L 1139.96 -2164.04 
	L 953.754 -2164.04 
	L 953.754 -2057.93 
	L 1079.41 -2057.93 
	L 1079.41 -1988.21 
	L 953.754 -1988.21 
	L 953.754 -1869.98 
	L 1153.58 -1869.98 
	L 1153.58 -1800.25 
	Z 
	"/>
</g>
<g fill="#7f7f7f" fill-rule="nonzero" stroke-width="0" stroke-linejoin="miter" stroke-linecap="butt" stroke-miterlimit="4" >
	<path d="
	M 701.535 -1985.18 
	C 692.438 -1988.21 687.891 -1988.21 672.734 -1988.21 
	L 586.324 -1988.21 
	L 586.324 -1869.98 
	L 689.406 -1869.98 
	C 724.273 -1869.98 742.465 -1886.65 742.465 -1920 
	C 742.465 -1948.8 725.789 -1976.08 701.535 -1985.18 
	Z 
	M 686.375 -2164.04 
	L 586.324 -2164.04 
	L 586.324 -2057.94 
	L 668.188 -2057.94 
	C 687.891 -2057.94 696.984 -2060.97 709.113 -2070.06 
	C 724.273 -2082.19 733.367 -2100.38 733.367 -2120.08 
	C 733.367 -2148.88 716.695 -2164.04 686.375 -2164.04 
	Z 
	M 742.465 -1810.86 
	C 727.305 -1804.79 701.535 -1800.25 681.828 -1800.25 
	L 518.109 -1800.25 
	L 518.109 -2232.25 
	L 681.828 -2232.25 
	C 750.043 -2232.25 801.586 -2185.26 801.586 -2123.11 
	C 801.586 -2080.67 781.879 -2048.84 740.949 -2026.1 
	C 786.426 -2004.88 812.195 -1968.5 812.195 -1921.51 
	C 812.195 -1874.52 783.395 -1827.53 742.465 -1810.86 
	Z 
	"/>
</g>
<g fill="#7f7f7f" fill-rule="nonzero" stroke-width="0" stroke-linejoin="miter" stroke-linecap="butt" stroke-miterlimit="4" >
	<path d="
	M 1376.04 -1792.67 
	C 1310.85 -1792.67 1272.96 -1816.92 1247.19 -1871.49 
	C 1229 -1909.39 1218.38 -1962.44 1218.38 -2015.49 
	C 1218.38 -2085.22 1238.09 -2153.43 1266.89 -2191.32 
	C 1292.66 -2223.15 1329.04 -2239.83 1377.55 -2239.83 
	C 1444.25 -2239.83 1483.67 -2212.54 1512.47 -2144.33 
	L 1447.28 -2118.56 
	C 1429.09 -2156.46 1410.9 -2170.1 1377.55 -2170.1 
	C 1342.69 -2170.1 1319.95 -2154.95 1304.79 -2117.05 
	C 1294.18 -2091.28 1288.11 -2051.87 1288.11 -2015.49 
	C 1288.11 -1970.02 1295.69 -1924.54 1309.34 -1897.26 
	C 1322.98 -1873.01 1342.69 -1862.39 1368.46 -1862.39 
	C 1412.42 -1862.39 1444.25 -1889.68 1444.25 -1929.09 
	L 1444.25 -1947.28 
	L 1365.43 -1947.28 
	L 1365.43 -2015.49 
	L 1512.47 -2015.49 
	L 1512.47 -1929.09 
	C 1512.47 -1850.27 1454.87 -1792.67 1376.04 -1792.67 
	Z 
	"/>
</g>
<g fill="#7f7f7f" fill-rule="nonzero" stroke-width="0" stroke-linejoin="miter" stroke-linecap="butt" stroke-miterlimit="4" >
	<path d="
	M 701.871 -1080.25 
	L 701.871 -1512.25 
	L 770.992 -1512.25 
	L 770.992 -1080.25 
	Z 
	"/>
</g>
<g fill="#7f7f7f" fill-rule="nonzero" stroke-width="0" stroke-linejoin="miter" stroke-linecap="butt" stroke-miterlimit="4" >
	<path d="
	M 2183.79 -1436.46 
	C 2173.18 -1442.52 2167.12 -1444.04 2144.38 -1444.04 
	L 2062.52 -1444.04 
	L 2062.52 -1337.93 
	L 2144.38 -1337.93 
	C 2165.6 -1337.93 2173.18 -1339.45 2183.79 -1345.51 
	C 2200.47 -1354.61 2211.08 -1372.79 2211.08 -1390.98 
	C 2211.08 -1409.17 2200.47 -1427.36 2183.79 -1436.46 
	Z 
	M 2214.11 -1080.25 
	L 2144.38 -1268.21 
	L 2062.52 -1268.21 
	L 2062.52 -1080.25 
	L 1994.31 -1080.25 
	L 1994.31 -1512.25 
	L 2136.8 -1512.25 
	C 2170.15 -1512.25 2192.89 -1509.22 2214.11 -1498.61 
	C 2252.01 -1480.41 2279.29 -1434.94 2279.29 -1390.98 
	C 2279.29 -1345.51 2252.01 -1300.04 2212.59 -1281.85 
	L 2288.39 -1080.25 
	Z 
	"/>
</g>
<g fill="#7f7f7f" fill-rule="nonzero" stroke-width="0" stroke-linejoin="miter" stroke-linecap="butt" stroke-miterlimit="4" >
	<path d="
	M 529.98 -1080.25 
	L 529.98 -1268.21 
	L 372.324 -1268.21 
	L 372.324 -1080.25 
	L 304.109 -1080.25 
	L 304.109 -1512.25 
	L 372.324 -1512.25 
	L 372.324 -1337.93 
	L 529.98 -1337.93 
	L 529.98 -1512.25 
	L 598.195 -1512.25 
	L 598.195 -1080.25 
	Z 
	"/>
</g>
<g fill="#7f7f7f" fill-rule="nonzero" stroke-width="0" stroke-linejoin="miter" stroke-linecap="butt" stroke-miterlimit="4" >
	<path d="
	M 1481.03 -1080.25 
	L 1481.03 -1268.21 
	L 1323.37 -1268.21 
	L 1323.37 -1080.25 
	L 1255.16 -1080.25 
	L 1255.16 -1512.25 
	L 1323.37 -1512.25 
	L 1323.37 -1337.93 
	L 1481.03 -1337.93 
	L 1481.03 -1512.25 
	L 1549.24 -1512.25 
	L 1549.24 -1080.25 
	Z 
	"/>
</g>
<g fill="#7f7f7f" fill-rule="nonzero" stroke-width="0" stroke-linejoin="miter" stroke-linecap="butt" stroke-miterlimit="4" >
	<path d="
	M 1652.92 -1080.25 
	L 1652.92 -1512.25 
	L 1907.24 -1512.25 
	L 1907.24 -1444.04 
	L 1721.04 -1444.04 
	L 1721.04 -1337.93 
	L 1846.69 -1337.93 
	L 1846.69 -1268.2 
	L 1721.04 -1268.2 
	L 1721.04 -1149.97 
	L 1920.87 -1149.97 
	L 1920.87 -1080.25 
	Z 
	"/>
</g>
<g fill="#7f7f7f" fill-rule="nonzero" stroke-width="0" stroke-linejoin="miter" stroke-linecap="butt" stroke-miterlimit="4" >
	<path d="
	M 1023.68 -1072.67 
	C 958.504 -1072.67 920.605 -1096.92 894.836 -1151.49 
	C 876.645 -1189.38 866.031 -1242.44 866.031 -1295.49 
	C 866.031 -1365.22 885.738 -1433.43 914.539 -1471.32 
	C 940.313 -1503.15 976.691 -1519.83 1025.2 -1519.83 
	C 1091.9 -1519.83 1131.32 -1492.54 1160.11 -1424.33 
	L 1094.93 -1398.56 
	C 1076.74 -1436.46 1058.55 -1450.1 1025.2 -1450.1 
	C 990.336 -1450.1 967.598 -1434.94 952.438 -1397.05 
	C 941.824 -1371.28 935.762 -1331.87 935.762 -1295.49 
	C 935.762 -1250.02 943.34 -1204.54 956.984 -1177.26 
	C 970.629 -1153 990.336 -1142.39 1016.11 -1142.39 
	C 1060.07 -1142.39 1091.9 -1169.68 1091.9 -1209.09 
	L 1091.9 -1227.28 
	L 1013.07 -1227.28 
	L 1013.07 -1295.49 
	L 1160.11 -1295.49 
	L 1160.11 -1209.09 
	C 1160.11 -1130.27 1102.51 -1072.67 1023.68 -1072.67 
	Z 
	"/>
</g>
</g >
</g>
</svg>
