<?xml version="1.0" encoding="UTF-8" standalone="no"?>
<!-- Created with Inkscape (http://www.inkscape.org/) -->

<svg
   version="1.1"
   id="svg1"
   width="2304.6667"
   height="2880.6667"
   viewBox="0 0 2304.6667 2880.6667"
   sodipodi:docname="tmpr3zikjk6.pdf"
   xmlns:inkscape="http://www.inkscape.org/namespaces/inkscape"
   xmlns:sodipodi="http://sodipodi.sourceforge.net/DTD/sodipodi-0.dtd"
   xmlns="http://www.w3.org/2000/svg"
   xmlns:svg="http://www.w3.org/2000/svg">
  <defs
     id="defs1" />
  <sodipodi:namedview
     id="namedview1"
     pagecolor="#ffffff"
     bordercolor="#000000"
     borderopacity="0.25"
     inkscape:showpageshadow="2"
     inkscape:pageopacity="0.0"
     inkscape:pagecheckerboard="0"
     inkscape:deskcolor="#d1d1d1">
    <inkscape:page
       x="0"
       y="0"
       inkscape:label="1"
       id="page1"
       width="2304.6667"
       height="2880.6667"
       margin="0"
       bleed="0" />
  </sodipodi:namedview>
  <g
     id="g1"
     inkscape:groupmode="layer"
     inkscape:label="1">
    <g
       id="group-R5">
      <path
         id="path2"
         d="M 17282.5,1082.5 C 17282.5,486 16799,2.5 16202.5,2.5 H 1082.5 C 486.031,2.5 2.5,486 2.5,1082.5 v 19440 c 0,596.5 483.531,1080 1080,1080 h 15120 c 596.5,0 1080,-483.5 1080,-1080 v -19440"
         style="fill:#ffffff;fill-opacity:1;fill-rule:nonzero;stroke:none"
         transform="matrix(0.13333333,0,0,-0.13333333,0,2880.6667)" />
      <path
         id="path3"
         d="M 17282.5,1082.5 C 17282.5,486 16799,2.5 16202.5,2.5 H 1082.5 C 486.031,2.5 2.5,486 2.5,1082.5 v 19440 c 0,596.5 483.531,1080 1080,1080 h 15120 c 596.5,0 1080,-483.5 1080,-1080 z"
         style="fill:none;stroke:#231f20;stroke-width:5;stroke-linecap:butt;stroke-linejoin:miter;stroke-miterlimit:4;stroke-dasharray:none;stroke-opacity:1"
         transform="matrix(0.13333333,0,0,-0.13333333,0,2880.6667)" />
      <path
         id="path4"
         d="m 1082.5,272.5 c -446.637,0 -810,363.402 -810,810 v 19440 c 0,446.6 363.363,810 810,810 h 15120 c 446.6,0 810,-363.4 810,-810 v -19440 c 0,-446.598 -363.4,-810 -810,-810 h -15120"
         style="fill:#231f20;fill-opacity:1;fill-rule:nonzero;stroke:none"
         transform="matrix(0.13333333,0,0,-0.13333333,0,2880.6667)" />
      <path
         id="path5"
         d="m 1082.5,722.5 c -198.508,0 -360,161.5 -360,360 v 19440 c 0,198.5 161.492,360 360,360 h 15120 c 198.5,0 360,-161.5 360,-360 v -19440 c 0,-198.5 -161.5,-360 -360,-360 h -15120"
         style="fill:#ffffff;fill-opacity:1;fill-rule:nonzero;stroke:none"
         transform="matrix(0.13333333,0,0,-0.13333333,0,2880.6667)" />
      <path
         id="path6"
         d="m 7698.01,4582.3 c -91.17,151.6 -202.6,212.3 -374.81,222.3 -222.87,10.2 -364.68,-101 -465.97,-353.6 -70.92,-171.8 -111.43,-434.6 -111.43,-677.1 0,-303.1 60.76,-616.4 172.19,-798.3 91.19,-151.6 212.73,-222.3 395.08,-222.3 212.73,0 344.41,111.2 445.72,363.8 60.78,151.6 111.42,434.5 111.42,656.8 0,323.4 -60.78,616.4 -172.2,808.4 z m 314.02,-1970.5 c -162.09,-222.3 -395.08,-323.4 -698.96,-323.4 -405.2,0 -658.46,161.7 -830.67,515.4 -121.54,242.5 -202.58,626.5 -202.58,970.1 0,475 121.55,899.4 314.03,1172.2 172.2,222.4 405.19,323.4 739.47,323.4 364.69,0 617.93,-161.7 800.27,-515.4 121.55,-252.6 192.46,-616.4 192.46,-980.2 0,-454.7 -111.42,-909.4 -314.02,-1162.1"
         style="fill:#231f20;fill-opacity:1;fill-rule:nonzero;stroke:none"
         transform="matrix(0.13333333,0,0,-0.13333333,0,2880.6667)" />
      <path
         id="path7"
         d="m 3887.27,2342.5 v 384 L 5201.04,4767.8 H 3998.42 v 454.7 H 5847.81 V 4949.7 L 4513.83,2807.4 H 5847.81 V 2342.5 H 3887.27"
         style="fill:#231f20;fill-opacity:1;fill-rule:nonzero;stroke:none"
         transform="matrix(0.13333333,0,0,-0.13333333,0,2880.6667)" />
      <path
         id="path8"
         d="M 10516,2342.5 9414.41,4292.8 V 2342.5 h -454.76 v 2880 h 454.76 L 10465.4,3383.3 v 1839.2 h 454.8 v -2880 H 10516"
         style="fill:#231f20;fill-opacity:1;fill-rule:nonzero;stroke:none"
         transform="matrix(0.13333333,0,0,-0.13333333,0,2880.6667)" />
      <path
         id="path9"
         d="m 11611.4,2342.5 v 2880 h 1695.5 v -454.7 h -1241.4 v -707.4 h 837.7 v -464.8 h -837.7 v -788.2 h 1332.2 v -464.9 h -1786.3"
         style="fill:#231f20;fill-opacity:1;fill-rule:nonzero;stroke:none"
         transform="matrix(0.13333333,0,0,-0.13333333,0,2880.6667)" />
      <path
         id="path10"
         d="M 8540.67,7022.5 7439.11,8972.9 V 7022.5 h -454.77 v 2880 h 454.77 L 8490.12,8063.4 v 1839.1 h 454.76 v -2880 h -404.21"
         style="fill:#231f20;fill-opacity:1;fill-rule:nonzero;stroke:none"
         transform="matrix(0.13333333,0,0,-0.13333333,0,2880.6667)" />
      <path
         id="path11"
         d="m 5832.34,7022.5 v 2880 h 460.8 v -2880 h -460.8"
         style="fill:#231f20;fill-opacity:1;fill-rule:nonzero;stroke:none"
         transform="matrix(0.13333333,0,0,-0.13333333,0,2880.6667)" />
      <path
         id="path12"
         d="m 13388,7197.9 c -161.7,-141.5 -384,-222.4 -626.5,-222.4 -495.2,0 -859,293.1 -1051.1,727.6 l 434.6,161.7 c 121.3,-272.8 343.6,-424.4 616.5,-424.4 262.7,0 444.6,181.9 444.6,424.4 0,384 -444.6,444.6 -818.6,596.2 -171.8,70.7 -555.8,242.5 -555.8,717.5 0,565.9 384,778.1 899.5,778.1 404.2,0 677,-232.4 818.5,-586.1 l -404.2,-121.3 c 0,0 -101.1,242.5 -424.5,252.6 -212.2,10.2 -464.8,-70.7 -444.6,-333.4 40.4,-535.6 1394.6,-181.9 1394.6,-1313.7 0,-262.7 -101.1,-495.2 -283,-656.8"
         style="fill:#231f20;fill-opacity:1;fill-rule:nonzero;stroke:none"
         transform="matrix(0.13333333,0,0,-0.13333333,0,2880.6667)" />
      <path
         id="path13"
         d="m 9636.09,7022.5 v 2880 h 1695.51 v -454.7 h -1241.4 v -707.4 h 837.7 v -464.8 h -837.7 v -788.2 h 1332.2 V 7022.5 H 9636.09"
         style="fill:#231f20;fill-opacity:1;fill-rule:nonzero;stroke:none"
         transform="matrix(0.13333333,0,0,-0.13333333,0,2880.6667)" />
      <path
         id="path14"
         d="m 4068.17,9447.8 v -707.4 h 837.64 V 8275.6 H 4068.17 V 7022.5 h -454.16 v 2880 H 5400.34 V 9447.8 H 4068.17"
         style="fill:#231f20;fill-opacity:1;fill-rule:nonzero;stroke:none"
         transform="matrix(0.13333333,0,0,-0.13333333,0,2880.6667)" />
      <path
         id="path15"
         d="m 4679.98,11702.5 v 2880.1 h 460.8 v -2880.1 h -460.8"
         style="fill:#231f20;fill-opacity:1;fill-rule:nonzero;stroke:none"
         transform="matrix(0.13333333,0,0,-0.13333333,0,2880.6667)" />
      <path
         id="path16"
         d="m 14559.4,14077.3 c -70.7,40.4 -111.1,50.5 -262.7,50.5 H 13751 v -707.4 h 545.7 c 141.5,0 192,10.1 262.7,50.5 111.2,60.7 182,182 182,303.2 0,121.3 -70.8,242.6 -182,303.2 z m 202.2,-2374.8 -464.9,1253.1 H 13751 v -1253.1 h -454.8 v 2880.1 h 950 c 222.3,0 373.9,-20.3 515.4,-91 252.6,-121.3 434.5,-424.4 434.5,-717.5 0,-303.2 -181.9,-606.3 -444.6,-727.6 l 505.3,-1344 h -495.2"
         style="fill:#231f20;fill-opacity:1;fill-rule:nonzero;stroke:none"
         transform="matrix(0.13333333,0,0,-0.13333333,0,2880.6667)" />
      <path
         id="path17"
         d="m 3534.03,11702.5 v 1253.1 H 2482.99 v -1253.1 h -454.76 v 2880.1 h 454.76 v -1162.2 h 1051.04 v 1162.2 h 454.76 v -2880.1 h -454.76"
         style="fill:#231f20;fill-opacity:1;fill-rule:nonzero;stroke:none"
         transform="matrix(0.13333333,0,0,-0.13333333,0,2880.6667)" />
      <path
         id="path18"
         d="m 9874.34,11702.5 v 1253.1 H 8823.3 v -1253.1 h -454.76 v 2880.1 h 454.76 v -1162.2 h 1051.04 v 1162.2 h 454.76 v -2880.1 h -454.76"
         style="fill:#231f20;fill-opacity:1;fill-rule:nonzero;stroke:none"
         transform="matrix(0.13333333,0,0,-0.13333333,0,2880.6667)" />
      <path
         id="path19"
         d="m 11020.3,11702.5 v 2880.1 h 1695.5 v -454.8 h -1241.4 v -707.4 h 837.7 v -464.8 h -837.7 v -788.2 h 1332.2 v -464.9 h -1786.3"
         style="fill:#231f20;fill-opacity:1;fill-rule:nonzero;stroke:none"
         transform="matrix(0.13333333,0,0,-0.13333333,0,2880.6667)" />
      <path
         id="path20"
         d="m 6825.4,11652 c -434.56,0 -687.21,161.7 -859.01,525.5 -121.27,252.6 -192.01,606.3 -192.01,960 0,464.8 131.37,919.6 323.38,1172.2 171.82,212.2 414.35,323.4 737.75,323.4 444.67,0 707.42,-181.9 899.42,-636.7 l -434.55,-171.7 c -121.27,252.6 -242.54,343.5 -464.87,343.5 -232.44,0 -384.04,-101 -485.09,-353.7 -70.75,-171.7 -111.18,-434.5 -111.18,-677 0,-303.2 50.53,-606.3 141.49,-788.2 90.95,-161.7 222.34,-232.4 394.14,-232.4 293.06,0 505.31,181.9 505.31,444.6 v 121.3 h -525.53 v 454.7 h 980.28 v -576 c 0,-525.5 -384.01,-909.5 -909.53,-909.5"
         style="fill:#231f20;fill-opacity:1;fill-rule:nonzero;stroke:none"
         transform="matrix(0.13333333,0,0,-0.13333333,0,2880.6667)" />
      <path
         id="path21"
         d="m 9030.64,16382.5 -1101.57,1950.3 v -1950.3 h -454.76 v 2880 h 454.76 L 8980.1,17423.3 v 1839.2 h 454.76 v -2880 h -404.22"
         style="fill:#231f20;fill-opacity:1;fill-rule:nonzero;stroke:none"
         transform="matrix(0.13333333,0,0,-0.13333333,0,2880.6667)" />
      <path
         id="path22"
         d="m 11389.3,18686.5 c -70.7,70.8 -171.8,121.3 -293,121.3 h -515.5 v -1960.5 h 454.8 c 151.6,0 242.6,30.4 323.4,111.2 171.8,171.8 262.8,485.1 262.8,869.1 0,384 -91,707.3 -232.5,858.9 z m 192,-2142.3 c -111.1,-101.1 -262.7,-151.6 -414.3,-161.7 -30.3,0 -91,0 -161.7,0 h -879.2 v 2880 h 929.7 c 293.1,0 404.3,-30.3 555.9,-151.6 303.1,-262.7 474.9,-717.5 474.9,-1283.3 0,-576 -181.9,-1030.8 -505.3,-1283.4"
         style="fill:#231f20;fill-opacity:1;fill-rule:nonzero;stroke:none"
         transform="matrix(0.13333333,0,0,-0.13333333,0,2880.6667)" />
      <path
         id="path23"
         d="m 5198.37,16382.5 v 2880 h 1695.49 v -454.7 H 5652.51 v -707.4 h 837.68 v -464.9 h -837.68 v -788.2 H 6984.7 v -464.8 H 5198.37"
         style="fill:#231f20;fill-opacity:1;fill-rule:nonzero;stroke:none"
         transform="matrix(0.13333333,0,0,-0.13333333,0,2880.6667)" />
    </g>
  </g>
</svg>
