<?xml version="1.0" standalone="no"?>
<svg width="2160px" height="648px" viewBox="0 144 2160 648 " xmlns="http://www.w3.org/2000/svg" xmlns:xlink="http://www.w3.org/1999/xlink">
<title>generated by pstoedit</title>
<!-- generated by pstoedit version:4.02 -->
<g xml:space='preserve'>
<clipPath id="clippath1"> 	<path d="
	M 0 143.5 
	L 0 792 
	L 2160.5 792 
	L 2160.5 143.5 
	Z 
	" style="clip-rule:nonzero"/>
</clipPath>
<g style="clip-path:url(#clippath1)"> 
<g fill="#ffffff" fill-rule="nonzero" stroke-width="0" stroke-linejoin="miter" stroke-linecap="butt" stroke-miterlimit="10" >
	<path d="
	M 2160.25 683.75 
	C 2160.25 743.395 2111.9 791.75 2052.25 791.75 
	L 108.25 791.75 
	C 48.6016 791.75 0.25 743.395 0.25 683.75 
	L 0.25 251.75 
	C 0.25 192.102 48.6016 143.75 108.25 143.75 
	L 2052.25 143.75 
	C 2111.9 143.75 2160.25 192.102 2160.25 251.75 
	Z 
	"/>
</g>
<g stroke="#7f7f7f" fill="none" stroke-width="0.5" stroke-linejoin="miter" stroke-linecap="butt" stroke-miterlimit="4" >
	<path d="
	M 2160.25 683.75 
	C 2160.25 743.395 2111.9 791.75 2052.25 791.75 
	L 108.25 791.75 
	C 48.6016 791.75 0.25 743.395 0.25 683.75 
	L 0.25 251.75 
	C 0.25 192.102 48.6016 143.75 108.25 143.75 
	L 2052.25 143.75 
	C 2111.9 143.75 2160.25 192.102 2160.25 251.75 
	Z 
	"/>
</g>
<g fill="#7f7f7f" fill-rule="nonzero" stroke-width="0" stroke-linejoin="miter" stroke-linecap="butt" stroke-miterlimit="4" >
	<path d="
	M 108.25 764.75 
	C 63.5859 764.75 27.25 728.414 27.25 683.75 
	L 27.25 251.75 
	C 27.25 207.086 63.5859 170.75 108.25 170.75 
	L 2052.25 170.75 
	C 2096.91 170.75 2133.25 207.086 2133.25 251.75 
	L 2133.25 683.75 
	C 2133.25 728.414 2096.91 764.75 2052.25 764.75 
	Z 
	"/>
</g>
<g fill="#ffffff" fill-rule="nonzero" stroke-width="0" stroke-linejoin="miter" stroke-linecap="butt" stroke-miterlimit="4" >
	<path d="
	M 108.25 719.75 
	C 88.3984 719.75 72.25 703.602 72.25 683.75 
	L 72.25 251.75 
	C 72.25 231.898 88.3984 215.75 108.25 215.75 
	L 2052.25 215.75 
	C 2072.1 215.75 2088.25 231.898 2088.25 251.75 
	L 2088.25 683.75 
	C 2088.25 703.602 2072.1 719.75 2052.25 719.75 
	Z 
	"/>
</g>
<g fill="#7f7f7f" fill-rule="nonzero" stroke-width="0" stroke-linejoin="miter" stroke-linecap="butt" stroke-miterlimit="4" >
	<path d="
	M 460.836 611.75 
	L 460.836 323.75 
	L 506.914 323.75 
	L 506.914 611.75 
	Z 
	"/>
</g>
<g fill="#7f7f7f" fill-rule="nonzero" stroke-width="0" stroke-linejoin="miter" stroke-linecap="butt" stroke-miterlimit="4" >
	<path d="
	M 1371.28 611.75 
	L 1371.28 323.75 
	L 1417.35 323.75 
	L 1417.35 611.75 
	Z 
	"/>
</g>
<g fill="#7f7f7f" fill-rule="nonzero" stroke-width="0" stroke-linejoin="miter" stroke-linecap="butt" stroke-miterlimit="4" >
	<path d="
	M 683.355 364.172 
	L 683.355 611.75 
	L 637.688 611.75 
	L 637.688 364.172 
	L 571.711 364.172 
	L 571.711 323.75 
	L 750.344 323.75 
	L 750.344 364.172 
	Z 
	"/>
</g>
<g fill="#7f7f7f" fill-rule="nonzero" stroke-width="0" stroke-linejoin="miter" stroke-linecap="butt" stroke-miterlimit="4" >
	<path d="
	M 1263.9 611.75 
	L 1223.35 611.75 
	L 1177.74 426.824 
	L 1133.13 611.75 
	L 1092.59 611.75 
	L 1050.01 323.75 
	L 1096.64 323.75 
	L 1118.94 475.328 
	L 1155.43 323.75 
	L 1200.04 323.75 
	L 1237.54 475.328 
	L 1259.85 323.75 
	L 1306.47 323.75 
	Z 
	"/>
</g>
<g fill="#7f7f7f" fill-rule="nonzero" stroke-width="0" stroke-linejoin="miter" stroke-linecap="butt" stroke-miterlimit="4" >
	<path d="
	M 923.535 486.445 
	L 923.535 611.75 
	L 877.832 611.75 
	L 877.832 486.445 
	L 776.266 323.75 
	L 831.109 323.75 
	L 900.18 434.906 
	L 970.258 323.75 
	L 1024.09 323.75 
	Z 
	"/>
</g>
<g fill="#7f7f7f" fill-rule="nonzero" stroke-width="0" stroke-linejoin="miter" stroke-linecap="butt" stroke-miterlimit="4" >
	<path d="
	M 1647.36 381.352 
	C 1640.29 374.273 1630.18 369.223 1618.05 369.223 
	L 1566.51 369.223 
	L 1566.51 565.266 
	L 1611.99 565.266 
	C 1627.15 565.266 1636.24 562.234 1644.33 554.148 
	C 1661.51 536.973 1670.6 505.645 1670.6 467.242 
	C 1670.6 428.844 1661.51 396.508 1647.36 381.352 
	Z 
	M 1666.56 595.586 
	C 1655.44 605.687 1640.29 610.738 1625.13 611.75 
	C 1622.1 611.75 1616.03 611.75 1608.96 611.75 
	L 1521.03 611.75 
	L 1521.03 323.75 
	L 1614.01 323.75 
	C 1643.32 323.75 1654.43 326.781 1669.59 338.906 
	C 1699.91 365.184 1717.09 410.656 1717.09 467.242 
	C 1717.09 524.844 1698.9 570.316 1666.56 595.586 
	Z 
	"/>
</g>
<g fill="#7f7f7f" fill-rule="nonzero" stroke-width="0" stroke-linejoin="miter" stroke-linecap="butt" stroke-miterlimit="4" >
	<path d="
	M 1812.13 611.75 
	L 1812.13 323.75 
	L 1981.68 323.75 
	L 1981.68 369.227 
	L 1857.54 369.227 
	L 1857.54 439.961 
	L 1941.31 439.961 
	L 1941.31 486.445 
	L 1857.54 486.445 
	L 1857.54 565.266 
	L 1990.76 565.266 
	L 1990.76 611.75 
	Z 
	"/>
</g>
<g fill="#7f7f7f" fill-rule="nonzero" stroke-width="0" stroke-linejoin="miter" stroke-linecap="butt" stroke-miterlimit="4" >
	<path d="
	M 278.883 616.805 
	C 236.438 616.805 209.148 600.637 190.961 565.266 
	C 177.82 540.004 169.738 503.621 169.738 467.246 
	C 169.738 421.77 181.863 376.297 202.074 351.035 
	C 219.258 329.812 243.512 318.695 275.852 318.695 
	C 319.305 318.695 346.594 336.891 365.793 377.309 
	L 323.348 395.496 
	C 307.18 371.246 298.082 365.184 275.852 365.184 
	C 252.605 365.184 237.445 375.285 227.344 400.551 
	C 220.27 417.73 216.227 442.992 216.227 467.246 
	C 216.227 498.57 223.301 529.898 234.414 548.09 
	C 244.52 563.242 257.66 570.316 277.871 570.316 
	C 297.07 570.316 311.223 560.215 322.34 536.973 
	L 365.793 553.141 
	C 348.613 595.586 320.316 616.805 278.883 616.805 
	Z 
	"/>
</g>
</g >
</g>
</svg>
