<?xml version="1.0" standalone="no"?>
<svg width="2160px" height="648px" viewBox="0 144 2160 648 " xmlns="http://www.w3.org/2000/svg" xmlns:xlink="http://www.w3.org/1999/xlink">
<title>generated by pstoedit</title>
<!-- generated by pstoedit version:4.02 -->
<g xml:space='preserve'>
<clipPath id="clippath1"> 	<path d="
	M 0 143.5 
	L 0 792 
	L 2160.5 792 
	L 2160.5 143.5 
	Z 
	" style="clip-rule:nonzero"/>
</clipPath>
<g style="clip-path:url(#clippath1)"> 
<g fill="#ffffff" fill-rule="nonzero" stroke-width="0" stroke-linejoin="miter" stroke-linecap="butt" stroke-miterlimit="10" >
	<path d="
	M 2160.25 683.75 
	C 2160.25 743.395 2111.9 791.75 2052.25 791.75 
	L 108.25 791.75 
	C 48.6016 791.75 0.25 743.395 0.25 683.75 
	L 0.25 251.75 
	C 0.25 192.102 48.6016 143.75 108.25 143.75 
	L 2052.25 143.75 
	C 2111.9 143.75 2160.25 192.102 2160.25 251.75 
	Z 
	"/>
</g>
<g stroke="#7f7f7f" fill="none" stroke-width="0.5" stroke-linejoin="miter" stroke-linecap="butt" stroke-miterlimit="4" >
	<path d="
	M 2160.25 683.75 
	C 2160.25 743.395 2111.9 791.75 2052.25 791.75 
	L 108.25 791.75 
	C 48.6016 791.75 0.25 743.395 0.25 683.75 
	L 0.25 251.75 
	C 0.25 192.102 48.6016 143.75 108.25 143.75 
	L 2052.25 143.75 
	C 2111.9 143.75 2160.25 192.102 2160.25 251.75 
	Z 
	"/>
</g>
<g fill="#7f7f7f" fill-rule="nonzero" stroke-width="0" stroke-linejoin="miter" stroke-linecap="butt" stroke-miterlimit="4" >
	<path d="
	M 108.25 764.75 
	C 63.5859 764.75 27.25 728.414 27.25 683.75 
	L 27.25 251.75 
	C 27.25 207.086 63.5859 170.75 108.25 170.75 
	L 2052.25 170.75 
	C 2096.91 170.75 2133.25 207.086 2133.25 251.75 
	L 2133.25 683.75 
	C 2133.25 728.414 2096.91 764.75 2052.25 764.75 
	Z 
	"/>
</g>
<g fill="#ffffff" fill-rule="nonzero" stroke-width="0" stroke-linejoin="miter" stroke-linecap="butt" stroke-miterlimit="4" >
	<path d="
	M 108.25 719.75 
	C 88.3984 719.75 72.25 703.602 72.25 683.75 
	L 72.25 251.75 
	C 72.25 231.898 88.3984 215.75 108.25 215.75 
	L 2052.25 215.75 
	C 2072.1 215.75 2088.25 231.898 2088.25 251.75 
	L 2088.25 683.75 
	C 2088.25 703.602 2072.1 719.75 2052.25 719.75 
	Z 
	"/>
</g>
<g fill="#7f7f7f" fill-rule="nonzero" stroke-width="0" stroke-linejoin="miter" stroke-linecap="butt" stroke-miterlimit="4" >
	<path d="
	M 951.801 477.855 
	L 924.598 477.855 
	L 924.598 573.855 
	L 952.809 573.855 
	C 969.934 573.855 974.969 564.762 974.969 535.453 
	C 974.969 489.98 969.934 477.855 951.801 477.855 
	Z 
	M 945.754 360.633 
	L 924.598 360.633 
	L 924.598 439.453 
	L 949.785 439.453 
	C 965.902 439.453 969.934 430.359 969.934 400.043 
	C 969.934 371.75 963.887 360.633 945.754 360.633 
	Z 
	M 1012.24 532.426 
	C 1012.24 583.961 993.102 611.242 956.836 611.242 
	L 888.332 611.242 
	L 888.332 323.242 
	L 940.719 323.242 
	C 991.09 323.242 1007.21 342.441 1007.21 400.043 
	C 1007.21 428.34 1003.18 443.496 993.102 458.652 
	C 1006.3 473.168 1012.24 498.52 1012.24 532.426 
	Z 
	"/>
</g>
<g fill="#7f7f7f" fill-rule="nonzero" stroke-width="0" stroke-linejoin="miter" stroke-linecap="butt" stroke-miterlimit="4" >
	<path d="
	M 1976.35 402.066 
	C 1973.33 370.738 1967.29 360.633 1952.17 360.633 
	L 1929 360.633 
	L 1929 573.855 
	L 1952.17 573.855 
	C 1965.27 573.855 1972.32 564.762 1976.35 543.539 
	C 1977.36 533.434 1979.37 501.098 1979.37 475.836 
	C 1979.37 454.613 1977.36 422.277 1976.35 402.066 
	Z 
	M 2010.6 392.973 
	C 2013.9 416.305 2016.65 442.488 2016.65 466.738 
	C 2016.65 534.445 2007.58 577.898 1990.46 597.098 
	C 1982.39 606.191 1968.29 611.246 1952.17 611.246 
	L 1892.74 611.246 
	L 1892.74 323.246 
	L 1952.17 323.246 
	C 1972.32 323.246 1986.43 330.32 1995.49 344.465 
	C 2002.54 355.582 2008.04 374.852 2010.6 392.973 
	Z 
	"/>
</g>
<g fill="#7f7f7f" fill-rule="nonzero" stroke-width="0" stroke-linejoin="miter" stroke-linecap="butt" stroke-miterlimit="4" >
	<path d="
	M 318.453 611.246 
	L 318.453 323.242 
	L 423.945 323.242 
	L 423.945 360.637 
	L 354.621 360.637 
	L 354.621 434.402 
	L 400.836 434.402 
	L 400.836 472.805 
	L 354.621 472.805 
	L 354.621 573.855 
	L 427.965 573.855 
	L 427.965 611.246 
	Z 
	"/>
</g>
<g fill="#7f7f7f" fill-rule="nonzero" stroke-width="0" stroke-linejoin="miter" stroke-linecap="butt" stroke-miterlimit="4" >
	<path d="
	M 665.895 582.949 
	C 659.27 602.992 640.504 616.297 614.094 616.297 
	C 584.641 616.297 567.371 605.184 558.23 577.898 
	C 549.094 551.625 546.043 525.352 546.043 466.738 
	C 546.043 409.141 549.094 383.875 559.246 356.594 
	C 568.391 330.316 585.656 319.203 614.094 319.203 
	C 646.598 319.203 665.895 339.414 669.957 374.781 
	L 633.391 374.781 
	C 631.359 362.656 625.266 356.594 615.109 356.594 
	C 601.906 356.594 592.766 365.687 589.719 384.887 
	C 585.656 408.129 583.625 427.328 583.625 466.738 
	C 583.625 506.148 585.656 525.352 588.703 549.602 
	C 592.766 568.805 599.875 578.906 613.078 578.906 
	C 626.281 578.906 633.391 566.781 633.391 547.582 
	L 633.391 509.184 
	L 616.125 509.184 
	L 616.125 471.793 
	L 669.957 471.793 
	L 669.957 545.562 
	C 669.957 558.699 668.809 574.129 665.895 582.949 
	Z 
	"/>
</g>
<g fill="#7f7f7f" fill-rule="nonzero" stroke-width="0" stroke-linejoin="miter" stroke-linecap="butt" stroke-miterlimit="4" >
	<path d="
	M 801.379 611.246 
	L 801.379 476.844 
	L 749.996 476.844 
	L 749.996 611.246 
	L 713.73 611.246 
	L 713.73 323.246 
	L 749.996 323.246 
	L 749.996 439.453 
	L 801.379 439.453 
	L 801.379 323.246 
	L 837.645 323.246 
	L 837.645 611.246 
	Z 
	"/>
</g>
<g fill="#7f7f7f" fill-rule="nonzero" stroke-width="0" stroke-linejoin="miter" stroke-linecap="butt" stroke-miterlimit="4" >
	<path d="
	M 1466.95 611.246 
	L 1466.95 476.844 
	L 1415.57 476.844 
	L 1415.57 611.246 
	L 1379.3 611.246 
	L 1379.3 323.246 
	L 1415.57 323.246 
	L 1415.57 439.453 
	L 1466.95 439.453 
	L 1466.95 323.246 
	L 1503.21 323.246 
	L 1503.21 611.246 
	Z 
	"/>
</g>
<g fill="#7f7f7f" fill-rule="nonzero" stroke-width="0" stroke-linejoin="miter" stroke-linecap="butt" stroke-miterlimit="4" >
	<path d="
	M 464.828 611.246 
	L 464.828 323.246 
	L 502.27 323.246 
	L 502.27 611.246 
	Z 
	"/>
</g>
<g fill="#7f7f7f" fill-rule="nonzero" stroke-width="0" stroke-linejoin="miter" stroke-linecap="butt" stroke-miterlimit="4" >
	<path d="
	M 236.531 611.246 
	L 180.117 440.465 
	L 180.117 611.246 
	L 143.852 611.246 
	L 143.852 323.246 
	L 180.117 323.246 
	L 231.496 466.738 
	L 231.496 323.246 
	L 267.766 323.246 
	L 267.766 611.246 
	Z 
	"/>
</g>
<g fill="#7f7f7f" fill-rule="nonzero" stroke-width="0" stroke-linejoin="miter" stroke-linecap="butt" stroke-miterlimit="4" >
	<path d="
	M 1108.49 356.594 
	C 1075.15 356.594 1079.69 446.527 1079.69 466.738 
	C 1079.69 485.941 1075.15 578.91 1108.49 578.91 
	C 1140.83 578.91 1136.29 485.941 1136.29 466.738 
	C 1136.29 443.496 1135.78 356.594 1108.49 356.594 
	Z 
	M 1108.49 616.297 
	C 1036.75 616.297 1042.3 514.234 1042.3 466.738 
	C 1042.3 417.223 1037.75 319.203 1108.49 319.203 
	C 1179.23 319.203 1174.69 418.234 1174.69 466.738 
	C 1174.69 514.234 1179.23 616.297 1108.49 616.297 
	Z 
	"/>
</g>
<g fill="#7f7f7f" fill-rule="nonzero" stroke-width="0" stroke-linejoin="miter" stroke-linecap="butt" stroke-miterlimit="4" >
	<path d="
	M 1613.29 356.594 
	C 1579.94 356.594 1584.48 446.527 1584.48 466.738 
	C 1584.48 485.941 1579.94 578.91 1613.29 578.91 
	C 1645.63 578.91 1641.08 485.941 1641.08 466.738 
	C 1641.08 443.496 1640.57 356.594 1613.29 356.594 
	Z 
	M 1613.29 616.297 
	C 1541.54 616.297 1547.09 514.234 1547.09 466.738 
	C 1547.09 417.223 1542.55 319.203 1613.29 319.203 
	C 1684.03 319.203 1679.48 418.234 1679.48 466.738 
	C 1679.48 514.234 1684.03 616.297 1613.29 616.297 
	Z 
	"/>
</g>
<g fill="#7f7f7f" fill-rule="nonzero" stroke-width="0" stroke-linejoin="miter" stroke-linecap="butt" stroke-miterlimit="4" >
	<path d="
	M 1782.7 356.594 
	C 1749.36 356.594 1753.9 446.527 1753.9 466.738 
	C 1753.9 485.941 1749.36 578.91 1782.7 578.91 
	C 1815.04 578.91 1810.5 485.941 1810.5 466.738 
	C 1810.5 443.496 1809.99 356.594 1782.7 356.594 
	Z 
	M 1782.7 616.297 
	C 1710.96 616.297 1716.51 514.234 1716.51 466.738 
	C 1716.51 417.223 1711.96 319.203 1782.7 319.203 
	C 1853.44 319.203 1848.9 418.234 1848.9 466.738 
	C 1848.9 514.234 1853.44 616.297 1782.7 616.297 
	Z 
	"/>
</g>
<g fill="#7f7f7f" fill-rule="nonzero" stroke-width="0" stroke-linejoin="miter" stroke-linecap="butt" stroke-miterlimit="4" >
	<path d="
	M 1272.64 360.633 
	L 1254.94 360.633 
	L 1254.94 439.457 
	L 1278.71 439.457 
	C 1298.94 439.457 1305.01 430.359 1305.01 403.078 
	C 1305.01 370.738 1297.93 360.633 1272.64 360.633 
	Z 
	M 1312.09 467.75 
	L 1341.43 611.246 
	L 1304 611.246 
	L 1271.63 476.844 
	L 1254.94 476.844 
	L 1254.94 611.246 
	L 1218.53 611.246 
	L 1218.53 323.246 
	L 1274.67 323.246 
	C 1319.17 323.246 1342.44 350.527 1342.44 404.086 
	C 1342.44 436.426 1333.33 454.613 1312.09 467.75 
	Z 
	"/>
</g>
</g >
</g>
</svg>
