<?xml version="1.0" encoding="UTF-8"?>
<svg id="For_Sheets" xmlns="http://www.w3.org/2000/svg" version="1.1" viewBox="0 0 2160 648">
  <!-- Generator: Adobe Illustrator 29.1.0, SVG Export Plug-In . SVG Version: 2.1.0 Build 142)  -->
  <defs>
    <style>
      .st0 {
        fill: #231f20;
      }

      .st1 {
        fill: #fff;
      }
    </style>
  </defs>
  <g>
    <rect class="st1" x="-.1" y="-.1" width="2160.2" height="648.2" rx="108.1" ry="108.1"/>
    <path class="st0" d="M2052,0c59.6,0,108,48.4,108,108v432c0,59.6-48.4,108-108,108H108c-59.6,0-108-48.4-108-108V108C0,48.4,48.4,0,108,0h1944M2052-.2H108C79.1-.2,51.9,11,31.5,31.5,11,51.9-.2,79.1-.2,108v432c0,28.9,11.3,56.1,31.7,76.5,20.4,20.4,47.6,31.7,76.5,31.7h1944c28.9,0,56.1-11.3,76.5-31.7,20.4-20.4,31.7-47.6,31.7-76.5V108c0-28.9-11.3-56.1-31.7-76.5-20.4-20.4-47.6-31.7-76.5-31.7h0Z"/>
  </g>
  <rect class="st0" x="27" y="27" width="2106" height="594" rx="81" ry="81"/>
  <rect class="st1" x="72" y="72" width="2016" height="504" rx="36" ry="36"/>
  <g>
    <path class="st0" d="M226.1,332.6h-39.3v135.4h-41.3V180h85.7c45.2,0,75.6,30.3,75.6,76.8s-14.1,59.6-41.4,69.7l41.3,141.5h-42.3l-38.3-135.4ZM186.7,220.4v72.8h42.3c24.3,0,37.3-13.1,37.3-36.4s-15.1-36.4-37.3-36.4h-42.4Z"/>
    <path class="st0" d="M345.9,180h135.8v40.4h-94.2v72.8h59.8v39.4h-59.8v95h105.4v40.4h-146.9V180Z"/>
    <path class="st0" d="M603.1,284.9c31.5,19.8,78.7,47.4,78.7,104.3s-35.5,83.8-80.2,83.8-81.2-42.9-81.2-89.9h40.6c0,24.5,12.2,49.5,40.6,49.5s40.6-20.2,40.6-43.5c0-62.6-107.5-59-107.5-139.5s32.5-74.7,74-74.7,72.1,31.3,73.1,74.8h-39.6c-1-20.2-15.2-33.3-33.5-33.3s-34.5,14.1-34.5,33.3,9.9,23.3,28.8,35.2Z"/>
    <path class="st0" d="M721,180h40.3v288h-40.3V180Z"/>
    <path class="st0" d="M812.1,468V180h82.2c17.6,0,79.2.9,79.2,143.5s-56.9,144.5-75.7,144.5h-85.6ZM885.7,220.4h-32.3v207.1h28.7c33.7,0,50.9-14.7,50.9-102.1s-25.2-105.1-47.4-105.1Z"/>
    <path class="st0" d="M1019.5,180h135.8v40.4h-94.2v72.8h59.8v39.4h-59.8v95h105.4v40.4h-146.9V180Z"/>
    <path class="st0" d="M1246.9,275v193h-41.3V180h41.3l78.7,172.8v-172.8h41.4v288h-31.2l-88.8-193Z"/>
    <path class="st0" d="M1493.5,468h-41.5v-249.6h-52.7v-38.4h146.9v38.4h-52.7v249.6Z"/>
    <path class="st0" d="M1578.4,180h40.3v288h-40.3V180Z"/>
    <path class="st0" d="M1773.6,389.2h-61.8l-19.3,78.8h-41.5l71.9-288h40.6l71.9,288h-41.5l-20.3-78.8ZM1721.9,348.8h41.5l-21.3-82.9-20.3,82.9Z"/>
    <path class="st0" d="M1867.7,180h41.5v249.6h105.4v38.4h-146.9V180Z"/>
  </g>
</svg>