<?xml version="1.0" standalone="no"?>
<svg width="2592px" height="3456px" viewBox="0 -2664 2592 3456 " xmlns="http://www.w3.org/2000/svg" xmlns:xlink="http://www.w3.org/1999/xlink">
<title>generated by pstoedit</title>
<!-- generated by pstoedit version:4.02 -->
<g xml:space='preserve'>
<clipPath id="clippath1"> 	<path d="
	M 0 -2664.5 
	L 0 792 
	L 2592.5 792 
	L 2592.5 -2664.5 
	Z 
	" style="clip-rule:nonzero"/>
</clipPath>
<g style="clip-path:url(#clippath1)"> 
<g fill="#ffffff" fill-rule="nonzero" stroke-width="0" stroke-linejoin="miter" stroke-linecap="butt" stroke-miterlimit="10" >
	<path d="
	M 2592.25 629.75 
	C 2592.25 719.219 2519.72 791.75 2430.25 791.75 
	L 162.25 791.75 
	C 72.7813 791.75 0.25 719.219 0.25 629.75 
	L 0.25 -2502.25 
	C 0.25 -2591.72 72.7813 -2664.25 162.25 -2664.25 
	L 2430.25 -2664.25 
	C 2519.72 -2664.25 2592.25 -2591.72 2592.25 -2502.25 
	Z 
	"/>
</g>
<g stroke="#7f7f7f" fill="none" stroke-width="0.5" stroke-linejoin="miter" stroke-linecap="butt" stroke-miterlimit="4" >
	<path d="
	M 2592.25 629.75 
	C 2592.25 719.219 2519.72 791.75 2430.25 791.75 
	L 162.25 791.75 
	C 72.7813 791.75 0.25 719.219 0.25 629.75 
	L 0.25 -2502.25 
	C 0.25 -2591.72 72.7813 -2664.25 162.25 -2664.25 
	L 2430.25 -2664.25 
	C 2519.72 -2664.25 2592.25 -2591.72 2592.25 -2502.25 
	Z 
	"/>
</g>
<g fill="#7f7f7f" fill-rule="nonzero" stroke-width="0" stroke-linejoin="miter" stroke-linecap="butt" stroke-miterlimit="4" >
	<path d="
	M 162.25 746.75 
	C 97.7344 746.75 45.25 694.262 45.25 629.75 
	L 45.25 -2502.25 
	C 45.25 -2566.76 97.7344 -2619.25 162.25 -2619.25 
	L 2430.25 -2619.25 
	C 2494.76 -2619.25 2547.25 -2566.76 2547.25 -2502.25 
	L 2547.25 629.75 
	C 2547.25 694.262 2494.76 746.75 2430.25 746.75 
	Z 
	"/>
</g>
<g fill="#ffffff" fill-rule="nonzero" stroke-width="0" stroke-linejoin="miter" stroke-linecap="butt" stroke-miterlimit="4" >
	<path d="
	M 162.25 683.75 
	C 132.477 683.75 108.25 659.52 108.25 629.75 
	L 108.25 -2502.25 
	C 108.25 -2532.03 132.477 -2556.25 162.25 -2556.25 
	L 2430.25 -2556.25 
	C 2460.03 -2556.25 2484.25 -2532.02 2484.25 -2502.25 
	L 2484.25 629.75 
	C 2484.25 659.52 2460.03 683.75 2430.25 683.75 
	Z 
	"/>
</g>
<g fill="#7f7f7f" fill-rule="nonzero" stroke-width="0" stroke-linejoin="miter" stroke-linecap="butt" stroke-miterlimit="4" >
	<path d="
	M 1154.58 23.781 
	C 1140.9 1.05103 1124.19 -8.05103 1098.36 -9.55902 
	C 1064.92 -11.078 1043.65 5.59003 1028.46 43.488 
	C 1017.82 69.262 1011.75 108.672 1011.75 145.051 
	C 1011.75 190.52 1020.86 237.512 1037.57 264.789 
	C 1051.25 287.531 1069.48 298.141 1096.83 298.141 
	C 1128.75 298.141 1148.5 281.469 1163.69 243.582 
	C 1172.81 220.84 1180.41 178.398 1180.41 145.051 
	C 1180.41 96.539 1171.29 52.59 1154.58 23.781 
	Z 
	M 1201.68 319.359 
	C 1177.37 352.711 1142.42 367.871 1096.83 367.871 
	C 1036.06 367.871 998.066 343.621 972.234 290.559 
	C 954.004 254.18 941.848 196.59 941.848 145.051 
	C 941.848 73.809 960.078 10.141 988.953 -30.781 
	C 1014.78 -64.129 1049.73 -79.289 1099.87 -79.289 
	C 1154.58 -79.289 1192.56 -55.039 1219.91 -1.97998 
	C 1238.15 35.91 1248.78 90.48 1248.78 145.051 
	C 1248.78 213.262 1232.07 281.469 1201.68 319.359 
	Z 
	"/>
</g>
<g fill="#7f7f7f" fill-rule="nonzero" stroke-width="0" stroke-linejoin="miter" stroke-linecap="butt" stroke-miterlimit="4" >
	<path d="
	M 582.965 359.762 
	L 582.965 302.16 
	L 780.031 -4.03101 
	L 599.637 -4.03101 
	L 599.637 -72.238 
	L 877.047 -72.238 
	L 877.047 -31.32 
	L 676.949 290.031 
	L 877.047 290.031 
	L 877.047 359.762 
	Z 
	"/>
</g>
<g fill="#7f7f7f" fill-rule="nonzero" stroke-width="0" stroke-linejoin="miter" stroke-linecap="butt" stroke-miterlimit="4" >
	<path d="
	M 1577.27 359.762 
	L 1412.04 67.211 
	L 1412.04 359.762 
	L 1343.82 359.762 
	L 1343.82 -72.238 
	L 1412.04 -72.238 
	L 1569.69 203.629 
	L 1569.69 -72.238 
	L 1637.9 -72.238 
	L 1637.9 359.762 
	Z 
	"/>
</g>
<g fill="#7f7f7f" fill-rule="nonzero" stroke-width="0" stroke-linejoin="miter" stroke-linecap="butt" stroke-miterlimit="4" >
	<path d="
	M 1741.59 359.762 
	L 1741.59 -72.238 
	L 1995.91 -72.238 
	L 1995.91 -4.03101 
	L 1809.71 -4.03101 
	L 1809.71 102.07 
	L 1935.36 102.07 
	L 1935.36 171.801 
	L 1809.71 171.801 
	L 1809.71 290.031 
	L 2009.54 290.031 
	L 2009.54 359.762 
	Z 
	"/>
</g>
<g fill="#7f7f7f" fill-rule="nonzero" stroke-width="0" stroke-linejoin="miter" stroke-linecap="butt" stroke-miterlimit="4" >
	<path d="
	M 1280.98 -360.24 
	L 1115.74 -652.79 
	L 1115.74 -360.24 
	L 1047.53 -360.24 
	L 1047.53 -792.25 
	L 1115.74 -792.25 
	L 1273.39 -516.37 
	L 1273.39 -792.25 
	L 1341.61 -792.25 
	L 1341.61 -360.24 
	Z 
	"/>
</g>
<g fill="#7f7f7f" fill-rule="nonzero" stroke-width="0" stroke-linejoin="miter" stroke-linecap="butt" stroke-miterlimit="4" >
	<path d="
	M 874.727 -360.24 
	L 874.727 -792.25 
	L 943.848 -792.25 
	L 943.848 -360.24 
	Z 
	"/>
</g>
<g fill="#7f7f7f" fill-rule="nonzero" stroke-width="0" stroke-linejoin="miter" stroke-linecap="butt" stroke-miterlimit="4" >
	<path d="
	M 2008.08 -386.54 
	C 1983.82 -365.32 1950.47 -353.19 1914.09 -353.19 
	C 1839.81 -353.19 1785.24 -397.15 1756.44 -462.33 
	L 1821.63 -486.58 
	C 1839.81 -445.66 1873.16 -422.92 1914.09 -422.92 
	C 1953.51 -422.92 1980.79 -450.2 1980.79 -486.58 
	C 1980.79 -544.18 1914.09 -553.28 1858 -576.01 
	C 1832.24 -586.62 1774.63 -612.39 1774.63 -683.64 
	C 1774.63 -768.52 1832.24 -800.35 1909.55 -800.35 
	C 1970.18 -800.35 2011.11 -765.49 2032.33 -712.43 
	L 1971.7 -694.25 
	C 1971.7 -694.25 1956.54 -730.62 1908.03 -732.14 
	C 1876.2 -733.66 1838.3 -721.53 1841.33 -682.12 
	C 1847.39 -601.78 2050.52 -654.83 2050.52 -485.07 
	C 2050.52 -445.66 2035.36 -410.79 2008.08 -386.54 
	Z 
	"/>
</g>
<g fill="#7f7f7f" fill-rule="nonzero" stroke-width="0" stroke-linejoin="miter" stroke-linecap="butt" stroke-miterlimit="4" >
	<path d="
	M 1445.29 -360.24 
	L 1445.29 -792.25 
	L 1699.61 -792.25 
	L 1699.61 -724.03 
	L 1513.41 -724.03 
	L 1513.41 -617.93 
	L 1639.06 -617.93 
	L 1639.06 -548.2 
	L 1513.41 -548.2 
	L 1513.41 -429.97 
	L 1713.24 -429.97 
	L 1713.24 -360.24 
	Z 
	"/>
</g>
<g fill="#7f7f7f" fill-rule="nonzero" stroke-width="0" stroke-linejoin="miter" stroke-linecap="butt" stroke-miterlimit="4" >
	<path d="
	M 610.102 -724.03 
	L 610.102 -617.93 
	L 735.746 -617.93 
	L 735.746 -548.2 
	L 610.102 -548.2 
	L 610.102 -360.24 
	L 541.977 -360.24 
	L 541.977 -792.25 
	L 809.926 -792.25 
	L 809.926 -724.03 
	Z 
	"/>
</g>
<g fill="#7f7f7f" fill-rule="nonzero" stroke-width="0" stroke-linejoin="miter" stroke-linecap="butt" stroke-miterlimit="4" >
	<path d="
	M 701.871 -1080.25 
	L 701.871 -1512.25 
	L 770.992 -1512.25 
	L 770.992 -1080.25 
	Z 
	"/>
</g>
<g fill="#7f7f7f" fill-rule="nonzero" stroke-width="0" stroke-linejoin="miter" stroke-linecap="butt" stroke-miterlimit="4" >
	<path d="
	M 2183.79 -1436.46 
	C 2173.18 -1442.52 2167.12 -1444.04 2144.38 -1444.04 
	L 2062.52 -1444.04 
	L 2062.52 -1337.93 
	L 2144.38 -1337.93 
	C 2165.6 -1337.93 2173.18 -1339.45 2183.79 -1345.51 
	C 2200.47 -1354.6 2211.08 -1372.79 2211.08 -1390.98 
	C 2211.08 -1409.17 2200.47 -1427.36 2183.79 -1436.46 
	Z 
	M 2214.11 -1080.25 
	L 2144.38 -1268.21 
	L 2062.52 -1268.21 
	L 2062.52 -1080.25 
	L 1994.31 -1080.25 
	L 1994.31 -1512.25 
	L 2136.8 -1512.25 
	C 2170.15 -1512.25 2192.89 -1509.22 2214.11 -1498.6 
	C 2252.01 -1480.41 2279.29 -1434.94 2279.29 -1390.98 
	C 2279.29 -1345.51 2252.01 -1300.04 2212.59 -1281.85 
	L 2288.39 -1080.25 
	Z 
	"/>
</g>
<g fill="#7f7f7f" fill-rule="nonzero" stroke-width="0" stroke-linejoin="miter" stroke-linecap="butt" stroke-miterlimit="4" >
	<path d="
	M 529.98 -1080.25 
	L 529.98 -1268.21 
	L 372.324 -1268.21 
	L 372.324 -1080.25 
	L 304.109 -1080.25 
	L 304.109 -1512.25 
	L 372.324 -1512.25 
	L 372.324 -1337.93 
	L 529.98 -1337.93 
	L 529.98 -1512.25 
	L 598.195 -1512.25 
	L 598.195 -1080.25 
	Z 
	"/>
</g>
<g fill="#7f7f7f" fill-rule="nonzero" stroke-width="0" stroke-linejoin="miter" stroke-linecap="butt" stroke-miterlimit="4" >
	<path d="
	M 1481.03 -1080.25 
	L 1481.03 -1268.21 
	L 1323.37 -1268.21 
	L 1323.37 -1080.25 
	L 1255.16 -1080.25 
	L 1255.16 -1512.25 
	L 1323.37 -1512.25 
	L 1323.37 -1337.93 
	L 1481.03 -1337.93 
	L 1481.03 -1512.25 
	L 1549.24 -1512.25 
	L 1549.24 -1080.25 
	Z 
	"/>
</g>
<g fill="#7f7f7f" fill-rule="nonzero" stroke-width="0" stroke-linejoin="miter" stroke-linecap="butt" stroke-miterlimit="4" >
	<path d="
	M 1652.92 -1080.25 
	L 1652.92 -1512.25 
	L 1907.24 -1512.25 
	L 1907.24 -1444.04 
	L 1721.04 -1444.04 
	L 1721.04 -1337.93 
	L 1846.69 -1337.93 
	L 1846.69 -1268.2 
	L 1721.04 -1268.2 
	L 1721.04 -1149.97 
	L 1920.87 -1149.97 
	L 1920.87 -1080.25 
	Z 
	"/>
</g>
<g fill="#7f7f7f" fill-rule="nonzero" stroke-width="0" stroke-linejoin="miter" stroke-linecap="butt" stroke-miterlimit="4" >
	<path d="
	M 1023.68 -1072.67 
	C 958.504 -1072.67 920.605 -1096.92 894.836 -1151.49 
	C 876.645 -1189.38 866.031 -1242.44 866.031 -1295.49 
	C 866.031 -1365.21 885.738 -1433.43 914.539 -1471.32 
	C 940.313 -1503.15 976.691 -1519.83 1025.2 -1519.83 
	C 1091.9 -1519.83 1131.32 -1492.54 1160.11 -1424.33 
	L 1094.93 -1398.56 
	C 1076.74 -1436.46 1058.55 -1450.1 1025.2 -1450.1 
	C 990.336 -1450.1 967.598 -1434.94 952.438 -1397.05 
	C 941.824 -1371.28 935.762 -1331.87 935.762 -1295.49 
	C 935.762 -1250.01 943.34 -1204.54 956.984 -1177.26 
	C 970.629 -1153 990.336 -1142.39 1016.11 -1142.39 
	C 1060.07 -1142.39 1091.9 -1169.68 1091.9 -1209.09 
	L 1091.9 -1227.28 
	L 1013.07 -1227.28 
	L 1013.07 -1295.49 
	L 1160.11 -1295.49 
	L 1160.11 -1209.09 
	C 1160.11 -1130.27 1102.51 -1072.67 1023.68 -1072.67 
	Z 
	"/>
</g>
<g fill="#7f7f7f" fill-rule="nonzero" stroke-width="0" stroke-linejoin="miter" stroke-linecap="butt" stroke-miterlimit="4" >
	<path d="
	M 1354.47 -1800.25 
	L 1189.24 -2092.8 
	L 1189.24 -1800.25 
	L 1121.02 -1800.25 
	L 1121.02 -2232.25 
	L 1189.24 -2232.25 
	L 1346.89 -1956.38 
	L 1346.89 -2232.25 
	L 1415.1 -2232.25 
	L 1415.1 -1800.25 
	Z 
	"/>
</g>
<g fill="#7f7f7f" fill-rule="nonzero" stroke-width="0" stroke-linejoin="miter" stroke-linecap="butt" stroke-miterlimit="4" >
	<path d="
	M 1708.27 -2145.85 
	C 1697.66 -2156.46 1682.5 -2164.04 1664.31 -2164.04 
	L 1587 -2164.04 
	L 1587 -1869.98 
	L 1655.22 -1869.98 
	C 1677.96 -1869.98 1691.6 -1874.52 1703.72 -1886.65 
	C 1729.5 -1912.42 1743.14 -1959.41 1743.14 -2017.01 
	C 1743.14 -2074.61 1729.5 -2123.11 1708.27 -2145.85 
	Z 
	M 1737.08 -1824.5 
	C 1720.4 -1809.34 1697.66 -1801.77 1674.92 -1800.25 
	C 1670.38 -1800.25 1661.28 -1800.25 1650.67 -1800.25 
	L 1518.79 -1800.25 
	L 1518.79 -2232.25 
	L 1658.25 -2232.25 
	C 1702.21 -2232.25 1718.89 -2227.7 1741.62 -2209.51 
	C 1787.1 -2170.1 1812.87 -2101.89 1812.87 -2017.01 
	C 1812.87 -1930.61 1785.58 -1862.39 1737.08 -1824.5 
	Z 
	"/>
</g>
<g fill="#7f7f7f" fill-rule="nonzero" stroke-width="0" stroke-linejoin="miter" stroke-linecap="butt" stroke-miterlimit="4" >
	<path d="
	M 779.629 -1800.25 
	L 779.629 -2232.25 
	L 1033.95 -2232.25 
	L 1033.95 -2164.04 
	L 847.75 -2164.04 
	L 847.75 -2057.93 
	L 973.402 -2057.93 
	L 973.402 -1988.21 
	L 847.75 -1988.21 
	L 847.75 -1869.98 
	L 1047.58 -1869.98 
	L 1047.58 -1800.25 
	Z 
	"/>
</g>
</g >
</g>
</svg>
