<?xml version="1.0" encoding="UTF-8" standalone="no"?>
<!-- Created with Inkscape (http://www.inkscape.org/) -->

<svg
   version="1.1"
   id="svg1"
   width="4608.6665"
   height="3456.6667"
   viewBox="0 0 4608.6665 3456.6667"
   sodipodi:docname="tmptohzo95_.pdf"
   xmlns:inkscape="http://www.inkscape.org/namespaces/inkscape"
   xmlns:sodipodi="http://sodipodi.sourceforge.net/DTD/sodipodi-0.dtd"
   xmlns="http://www.w3.org/2000/svg"
   xmlns:svg="http://www.w3.org/2000/svg">
  <defs
     id="defs1" />
  <sodipodi:namedview
     id="namedview1"
     pagecolor="#ffffff"
     bordercolor="#000000"
     borderopacity="0.25"
     inkscape:showpageshadow="2"
     inkscape:pageopacity="0.0"
     inkscape:pagecheckerboard="0"
     inkscape:deskcolor="#d1d1d1">
    <inkscape:page
       x="0"
       y="0"
       inkscape:label="1"
       id="page1"
       width="4608.6665"
       height="3456.6667"
       margin="0"
       bleed="0" />
  </sodipodi:namedview>
  <g
     id="g1"
     inkscape:groupmode="layer"
     inkscape:label="1">
    <g
       id="group-R5">
      <path
         id="path2"
         d="M 1622.5,1.20313 C 728.539,1.20313 1.25,728.5 1.25,1622.5 v 22680 c 0,894 727.289,1621.3 1621.26,1621.3 H 32942.5 c 893.9,0 1621.2,-727.3 1621.2,-1621.3 l 0.1,-22680 C 34563.7,728.5 33836.4,1.20313 32942.5,1.20313 h -31320"
         style="fill:#ffffff;fill-opacity:1;fill-rule:nonzero;stroke:none"
         transform="matrix(0.13333333,0,0,-0.13333333,0,3456.6667)" />
      <path
         id="path3"
         d="M 32942.5,25925 H 1622.51 c -433.39,0 -840.834,-168.8 -1147.287,-475.2 C 168.77,25143.3 0,24735.9 0,24302.5 V 1622.5 C 0,1189.1 168.77,781.699 475.223,475.199 781.676,168.801 1189.12,0 1622.5,0 h 31320 c 433.4,0 840.8,168.801 1147.3,475.199 306.4,306.5 475.2,713.901 475.2,1147.301 v 22680 c 0,433.4 -168.8,840.8 -475.2,1147.3 -306.5,306.4 -713.9,475.2 -1147.3,475.2 z m 0,-2.5 c 894.7,0 1620,-725.3 1620,-1620 v -22680 c 0,-894.699 -725.3,-1620 -1620,-1620 H 1622.5 C 727.805,2.5 2.5,727.801 2.5,1622.5 v 22680 c 0,894.7 725.305,1620 1620.01,1620 H 32942.5"
         style="fill:#231f20;fill-opacity:1;fill-rule:nonzero;stroke:none"
         transform="matrix(0.13333333,0,0,-0.13333333,0,3456.6667)" />
      <path
         id="path4"
         d="m 1622.5,452.5 c -645.137,0 -1170,524.902 -1170,1170 v 22680 c 0,645.1 524.863,1170 1170,1170 h 31320 c 645.1,0 1170,-524.9 1170,-1170 v -22680 c 0,-645.098 -524.9,-1170 -1170,-1170 h -31320"
         style="fill:#231f20;fill-opacity:1;fill-rule:nonzero;stroke:none"
         transform="matrix(0.13333333,0,0,-0.13333333,0,3456.6667)" />
      <path
         id="path5"
         d="m 1622.5,1082.5 c -297.75,0 -540,242.3 -540,540 v 22680 c 0,297.8 242.25,540 540,540 h 31320 c 297.7,0 540,-242.3 540,-540 v -22680 c 0,-297.7 -242.3,-540 -540,-540 h -31320"
         style="fill:#ffffff;fill-opacity:1;fill-rule:nonzero;stroke:none"
         transform="matrix(0.13333333,0,0,-0.13333333,0,3456.6667)" />
      <path
         id="path6"
         d="m 8134.14,18558.3 h 1675.38 v -929.5 H 8134.14 v -2506.3 h -908.6 v 5760 H 10798 v -909.4 H 8134.14 v -1414.8"
         style="fill:#231f20;fill-opacity:1;fill-rule:nonzero;stroke:none"
         transform="matrix(0.13333333,0,0,-0.13333333,0,3456.6667)" />
      <path
         id="path7"
         d="m 11662.2,20882.5 h 921.6 v -5760 h -921.6 v 5760"
         style="fill:#231f20;fill-opacity:1;fill-rule:nonzero;stroke:none"
         transform="matrix(0.13333333,0,0,-0.13333333,0,3456.6667)" />
      <path
         id="path8"
         d="m 14874.8,19022.7 v -3900.2 h -908.6 v 5760 h 908.6 L 16977.1,17204 v 3678.5 h 910.1 v -5760 h -808.6 l -2203.8,3900.2"
         style="fill:#231f20;fill-opacity:1;fill-rule:nonzero;stroke:none"
         transform="matrix(0.13333333,0,0,-0.13333333,0,3456.6667)" />
      <path
         id="path9"
         d="m 19269.8,20882.5 h 3391 v -909.4 h -2482.4 v -1414.8 h 1675.3 v -929.5 H 20178.4 V 16052 h 2663.9 v -929.5 h -3572.5 v 5760"
         style="fill:#231f20;fill-opacity:1;fill-rule:nonzero;stroke:none"
         transform="matrix(0.13333333,0,0,-0.13333333,0,3456.6667)" />
      <path
         id="path10"
         d="m 23418.5,16476.8 869,323.3 c 242.6,-545.8 686.9,-848.9 1232.6,-848.9 525.6,0 889.9,363.6 889.9,848.9 0,770.4 -889.2,889.2 -1637.2,1192.3 -343.5,141.9 -1111.7,485.3 -1111.7,1435 0,1132.5 767.5,1555.2 1798.5,1555.2 808.6,0 1354.3,-465.1 1637.2,-1172.2 l -808.5,-242.6 c -90.7,227.5 -419.7,505.4 -848.8,505.4 -821.5,0 -891.4,-438.5 -891.4,-582.5 0,-538.5 464.4,-645.1 1219.7,-882 768.9,-241.9 1571.7,-595.4 1571.7,-1830.2 0,-1243.4 -1008,-1756.8 -1819.4,-1756.8 -990.7,0 -1717.9,586.1 -2101.6,1455.1"
         style="fill:#231f20;fill-opacity:1;fill-rule:nonzero;stroke:none"
         transform="matrix(0.13333333,0,0,-0.13333333,0,3456.6667)" />
      <path
         id="path11"
         d="M 5463.6,9893.1 H 4432.61 V 5972.7 h 966.92 c 838.03,0 1113.06,1015.2 1113.06,2099.6 0,515.5 -146.87,1820.8 -1048.99,1820.8 z M 3524.02,5042.5 v 5760 h 2077.82 c 1453.61,0 1843.1,-1914.5 1843.1,-2750.4 0,-2160.7 -1110.9,-3009.6 -1839.51,-3009.6 H 3524.02"
         style="fill:#231f20;fill-opacity:1;fill-rule:nonzero;stroke:none"
         transform="matrix(0.13333333,0,0,-0.13333333,0,3456.6667)" />
      <path
         id="path12"
         d="m 13473.1,7103.9 v 3698.6 h 908.6 V 7103.9 c 0,-748.1 424.8,-1232.7 1051.2,-1232.7 626.3,0 1051.1,484.6 1051.1,1232.7 v 3698.6 h 910 V 7103.9 c 0,-1821.6 -1397.4,-2162.2 -1960.4,-2162.2 -512.6,0 -1960.5,301.7 -1960.5,2162.2"
         style="fill:#231f20;fill-opacity:1;fill-rule:nonzero;stroke:none"
         transform="matrix(0.13333333,0,0,-0.13333333,0,3456.6667)" />
      <path
         id="path13"
         d="M 19408.8,7548.8 V 5972 h 1374.4 c 468,0 707.8,222.5 707.8,667.5 0,444.9 -308.2,909.3 -779,909.3 z m 1334.9,2344.3 H 19408.8 V 8478.3 h 1157.7 c 517,0 803.5,450.8 803.5,828.8 0,383.7 -211.6,586 -626.3,586 z M 18500.2,5042.5 v 5760 h 2183 c 909.3,0 1596.1,-626.4 1596.1,-1455.1 0,-565.9 -262,-990.7 -807.8,-1293.9 606.2,-282.9 949.7,-773.2 949.7,-1393.9 0,-410.4 -231.1,-1617.1 -1738,-1617.1 h -2183"
         style="fill:#231f20;fill-opacity:1;fill-rule:nonzero;stroke:none"
         transform="matrix(0.13333333,0,0,-0.13333333,0,3456.6667)" />
      <path
         id="path14"
         d="m 23204.7,10802.5 h 908.6 V 5891.4 h 2663.9 v -848.9 h -3572.5 v 5760"
         style="fill:#231f20;fill-opacity:1;fill-rule:nonzero;stroke:none"
         transform="matrix(0.13333333,0,0,-0.13333333,0,3456.6667)" />
      <path
         id="path15"
         d="m 27468.5,10802.5 h 3391 V 9893.1 H 28377.1 V 8478.3 h 1675.4 V 7548.8 H 28377.1 V 5972 H 31041 v -929.5 h -3572.5 v 5760"
         style="fill:#231f20;fill-opacity:1;fill-rule:nonzero;stroke:none"
         transform="matrix(0.13333333,0,0,-0.13333333,0,3456.6667)" />
      <path
         id="path16"
         d="m 10423.1,5870.5 c 620.6,0 1124.6,588.2 1124.6,2052 0,1463.8 -504,2052 -1124.6,2052 -620.67,0 -1124.67,-587.5 -1124.67,-2052 0,-1463.8 504,-2052 1124.67,-2052 z m 2036.1,2052 c 0,-206.6 43.9,-2980.8 -2046.2,-2980.8 -2090.16,0 -2046.25,2774.2 -2046.25,2980.8 0,206.6 -43.91,2980.1 2046.25,2980.1 2090.1,0 2046.2,-2773.5 2046.2,-2980.1"
         style="fill:#231f20;fill-opacity:1;fill-rule:nonzero;stroke:none"
         transform="matrix(0.13333333,0,0,-0.13333333,0,3456.6667)" />
    </g>
  </g>
</svg>
