<?xml version="1.0" encoding="UTF-8" standalone="no"?>
<!-- Created with Inkscape (http://www.inkscape.org/) -->

<svg
   version="1.1"
   id="svg1"
   width="4608.6665"
   height="5760.6665"
   viewBox="0 0 4608.6665 5760.6665"
   sodipodi:docname="tmpkreju055.pdf"
   xmlns:inkscape="http://www.inkscape.org/namespaces/inkscape"
   xmlns:sodipodi="http://sodipodi.sourceforge.net/DTD/sodipodi-0.dtd"
   xmlns="http://www.w3.org/2000/svg"
   xmlns:svg="http://www.w3.org/2000/svg">
  <defs
     id="defs1" />
  <sodipodi:namedview
     id="namedview1"
     pagecolor="#ffffff"
     bordercolor="#000000"
     borderopacity="0.25"
     inkscape:showpageshadow="2"
     inkscape:pageopacity="0.0"
     inkscape:pagecheckerboard="0"
     inkscape:deskcolor="#d1d1d1">
    <inkscape:page
       x="0"
       y="0"
       inkscape:label="1"
       id="page1"
       width="4608.6665"
       height="5760.6665"
       margin="0"
       bleed="0" />
  </sodipodi:namedview>
  <g
     id="g1"
     inkscape:groupmode="layer"
     inkscape:label="1">
    <g
       id="group-R5">
      <path
         id="path2"
         d="M 2162.5,1.20313 C 1587.59,1.20313 1045.52,226.699 636.117,636.098 226.715,1045.5 1.25391,1587.6 1.25391,2162.5 v 38880 c 0,574.9 225.46109,1117 634.86309,1526.4 409.373,409.4 951.493,634.8 1526.363,634.8 0.03,0 -0.01,0 0.02,0 h 30240 c 574.9,0.1 1117,-225.4 1526.4,-634.8 409.4,-409.4 634.9,-951.5 634.9,-1526.4 v -38880 c 0,-574.9 -225.5,-1117 -634.9,-1526.402 C 33519.5,226.699 32977.4,1.20313 32402.5,1.20313 h -30240"
         style="fill:#ffffff;fill-opacity:1;fill-rule:nonzero;stroke:none"
         transform="matrix(0.13333333,0,0,-0.13333333,0,5760.6667)" />
      <path
         id="path3"
         d="m 32402.5,43205 h -30240 c -290.64,0 -573.15,-57.4 -839.66,-170.6 -257.28,-109.3 -488.625,-265.7 -687.61,-464.6 -198.976,-199 -355.292,-430.4 -464.593,-687.6 C 57.4102,41615.6 0,41333.1 0,41042.5 V 2162.5 C 0,1871.9 57.4102,1589.3 170.637,1322.8 279.938,1065.6 436.254,834.199 635.23,635.199 834.215,436.203 1065.56,279.902 1322.84,170.602 1589.35,57.4023 1871.86,0 2162.5,0 h 30240 c 290.6,0 573.1,57.4023 839.7,170.602 257.2,109.3 488.6,265.601 687.6,464.597 198.9,199 355.3,430.401 464.6,687.601 113.2,266.5 170.6,549.1 170.6,839.7 v 38880 c 0,290.6 -57.4,573.1 -170.6,839.7 -109.3,257.2 -265.7,488.6 -464.6,687.6 -199,198.9 -430.4,355.3 -687.6,464.6 -266.6,113.2 -549.1,170.6 -839.7,170.6 z m 0,-2.5 c 1188,0 2160,-972 2160,-2160 v -38880 c 0,-1188 -972,-2160 -2160,-2160 h -30240 c -1188,0 -2160,972 -2160,2160 v 38880 c 0,1188 972,2160 2160,2160 h 30240"
         style="fill:#231f20;fill-opacity:1;fill-rule:nonzero;stroke:none"
         transform="matrix(0.13333333,0,0,-0.13333333,0,5760.6667)" />
      <path
         id="path4"
         d="m 2162.5,542.5 c -430.33,0 -836.49,169.199 -1143.67,476.3 C 711.664,1326 542.5,1732.2 542.5,2162.5 v 38880 c 0,430.3 169.164,836.5 476.33,1143.7 307.18,307.1 713.34,476.3 1143.67,476.3 h 30240 c 430.3,0 836.5,-169.2 1143.7,-476.3 307.1,-307.2 476.3,-713.4 476.3,-1143.7 v -38880 c 0,-430.3 -169.2,-836.5 -476.3,-1143.7 C 33239,711.699 32832.8,542.5 32402.5,542.5 h -30240"
         style="fill:#231f20;fill-opacity:1;fill-rule:nonzero;stroke:none"
         transform="matrix(0.13333333,0,0,-0.13333333,0,5760.6667)" />
      <path
         id="path5"
         d="m 2162.5,1442.5 c -192.69,0 -368.1,73.6 -507.28,212.7 -139.16,139.2 -212.72,314.6 -212.72,507.3 v 38880 c 0,192.7 73.56,368.1 212.73,507.3 139.16,139.1 314.58,212.7 507.27,212.7 h 30240 c 192.7,0 368.1,-73.6 507.3,-212.7 139.1,-139.2 212.7,-314.6 212.7,-507.3 v -38880 c 0,-192.7 -73.6,-368.1 -212.7,-507.3 -139.2,-139.1 -314.6,-212.7 -507.3,-212.7 h -30240"
         style="fill:#ffffff;fill-opacity:1;fill-rule:nonzero;stroke:none"
         transform="matrix(0.13333333,0,0,-0.13333333,0,5760.6667)" />
      <path
         id="path6"
         d="m 7598.12,31969.8 c -406.07,-245.5 -930.92,-389.5 -1460.81,-389.5 -994.28,0 -1745.93,368.6 -2395.34,1126.8 l 832.29,655.9 c 426.21,-511.9 892.75,-738 1542.16,-738 730.76,0 1258.5,343.5 1258.5,758.2 0,585.3 -583.89,624.9 -2195.89,1077.8 -810.69,227.5 -1173.55,844.6 -1173.55,1463.1 0,964 812.84,1618.5 1989.27,1618.5 852.43,0 1564.49,-285.8 2151.98,-900 l -771.81,-697 c -365.02,389.6 -832.27,573.9 -1380.17,573.9 -631.41,0 -933.08,-256.3 -933.08,-587.5 0,-638.7 784.05,-497.6 2216.79,-1002.3 1011.55,-357.1 1131.77,-1221.1 1131.77,-1586.8 0,-594 -264.22,-1045.5 -812.11,-1373.1"
         style="fill:#231f20;fill-opacity:1;fill-rule:nonzero;stroke:none"
         transform="matrix(0.13333333,0,0,-0.13333333,0,5760.6667)" />
      <path
         id="path7"
         d="m 10613.6,36411.5 v -1434.2 h 1740.2 c 504.7,0 848.1,282.9 848.1,707 0,445 -336.9,727.2 -849.5,727.2 z m 0,-2465.3 V 31682.5 H 9562.49 v 5760 h 2817.91 c 1213.9,0 1850.4,-923.7 1850.4,-1748.1 0,-766.1 -570.3,-1748.2 -1805.7,-1748.2 h -1811.5"
         style="fill:#231f20;fill-opacity:1;fill-rule:nonzero;stroke:none"
         transform="matrix(0.13333333,0,0,-0.13333333,0,5760.6667)" />
      <path
         id="path8"
         d="m 15210.2,37442.5 h 4218.3 v -1031 h -3163.6 v -1070.6 h 1723.7 V 34289.7 H 16264.9 V 32713.6 H 19530 v -1031.1 h -4319.8 v 5760"
         style="fill:#231f20;fill-opacity:1;fill-rule:nonzero;stroke:none"
         transform="matrix(0.13333333,0,0,-0.13333333,0,5760.6667)" />
      <path
         id="path9"
         d="m 20682.3,37442.5 h 4218.3 v -1031 H 21737 v -1070.6 h 1723.6 V 34289.7 H 21737 v -1576.1 h 3265.1 v -1031.1 h -4319.8 v 5760"
         style="fill:#231f20;fill-opacity:1;fill-rule:nonzero;stroke:none"
         transform="matrix(0.13333333,0,0,-0.13333333,0,5760.6667)" />
      <path
         id="path10"
         d="M 28010.4,36411.5 H 27204 v -3697.9 h 798.5 c 923,0 1790.6,609.1 1790.6,1859 0,1162.1 -728.7,1838.9 -1782.7,1838.9 z m -1856.1,-4729 v 5760 h 1903.6 c 1833.1,0 2764.7,-1390.3 2764.7,-2869.9 0,-1582.5 -1026.7,-2890.1 -2757.5,-2890.1 h -1910.8"
         style="fill:#231f20;fill-opacity:1;fill-rule:nonzero;stroke:none"
         transform="matrix(0.13333333,0,0,-0.13333333,0,5760.6667)" />
      <path
         id="path11"
         d="m 6740.26,27362.5 h 1034.58 v -4870.8 h 3285.26 v -889.2 H 6740.26 v 5760"
         style="fill:#231f20;fill-opacity:1;fill-rule:nonzero;stroke:none"
         transform="matrix(0.13333333,0,0,-0.13333333,0,5760.6667)" />
      <path
         id="path12"
         d="m 12039.5,27362.5 h 1036.7 v -5760 h -1036.7 v 5760"
         style="fill:#231f20;fill-opacity:1;fill-rule:nonzero;stroke:none"
         transform="matrix(0.13333333,0,0,-0.13333333,0,5760.6667)" />
      <path
         id="path13"
         d="m 18976.5,25119 -1704.1,-3516.5 -1684,3516.5 V 21602.5 H 14574 v 5760 h 1014.4 l 1684,-3415.7 1704.1,3415.7 H 19991 v -5760 H 18976.5 V 25119"
         style="fill:#231f20;fill-opacity:1;fill-rule:nonzero;stroke:none"
         transform="matrix(0.13333333,0,0,-0.13333333,0,5760.6667)" />
      <path
         id="path14"
         d="m 21488.9,27362.5 h 1036.7 v -5760 h -1036.7 v 5760"
         style="fill:#231f20;fill-opacity:1;fill-rule:nonzero;stroke:none"
         transform="matrix(0.13333333,0,0,-0.13333333,0,5760.6667)" />
      <path
         id="path15"
         d="m 26169.5,21602.5 h -1009.4 v 4749.1 h -1655.2 v 1010.9 h 4319.8 v -1010.9 h -1655.2 v -4749.1"
         style="fill:#231f20;fill-opacity:1;fill-rule:nonzero;stroke:none"
         transform="matrix(0.13333333,0,0,-0.13333333,0,5760.6667)" />
      <path
         id="path16"
         d="m 7159.3,11866.7 365.75,5415.8 h 7712.45 l -40.3,-2021.8 H 9473.3 l -122.4,-1658.8 c 933.1,200.1 1501.9,283.6 2233.4,283.6 2639.4,0 4545.9,-1778.3 4545.9,-4163 0,-2424.9 -2030.3,-4163 -4871.3,-4163 -1582.56,0 -3003.79,403.2 -4465.36,1293.1 l 1095.82,1738.1 c 1297.4,-753.1 2502.64,-928.8 3454.44,-928.8 1781.3,0 2710,864 2710,2023.2 0,999.4 -557.2,2099.5 -2471,2099.5 -848.1,0 -1447.1,-93.6 -2354.27,-443.5 l -2069.23,525.6"
         style="fill:#231f20;fill-opacity:1;fill-rule:nonzero;stroke:none"
         transform="matrix(0.13333333,0,0,-0.13333333,0,5760.6667)" />
      <path
         id="path17"
         d="m 22950.5,15423.5 c -2066.4,0 -2795,-2142.7 -2795,-3840.5 0,-2547.3 1052.6,-3960 2795,-3960 1797,0 2754.6,1765.5 2754.6,3919.7 0,2424.9 -1012.3,3880.8 -2754.6,3880.8 z m -4861.3,-3880.8 c 0,3026.9 1458.7,5940 4861.3,5940 3457.3,0 4821,-2969.3 4821,-5901.1 0,-2949.1 -1343.5,-6020.6 -4821,-6020.6 -3443,0 -4861.3,2954.8 -4861.3,5981.7"
         style="fill:#231f20;fill-opacity:1;fill-rule:nonzero;stroke:none"
         transform="matrix(0.13333333,0,0,-0.13333333,0,5760.6667)" />
    </g>
  </g>
</svg>
