<?xml version="1.0" encoding="UTF-8"?>
<svg id="For_Sheets" xmlns="http://www.w3.org/2000/svg" version="1.1" viewBox="0 0 1728 1296">
  <!-- Generator: Adobe Illustrator 29.1.0, SVG Export Plug-In . SVG Version: 2.1.0 Build 142)  -->
  <defs>
    <style>
      .st0 {
        fill: #231f20;
      }

      .st1 {
        fill: #fff;
      }
    </style>
  </defs>
  <g>
    <rect class="st1" x="-.1" y="-.1" width="1728.2" height="1296.2" rx="108.1" ry="108.1"/>
    <path class="st0" d="M1620,0c59.6,0,108,48.4,108,108v1080c0,59.6-48.4,108-108,108H108c-59.6,0-108-48.4-108-108V108C0,48.4,48.4,0,108,0h1512M1620-.2H108C79.1-.2,51.9,11,31.5,31.5,11,51.9-.2,79.1-.2,108v1080c0,28.9,11.3,56.1,31.7,76.5,20.4,20.4,47.6,31.7,76.5,31.7h1512c28.9,0,56.1-11.3,76.5-31.7,20.4-20.4,31.7-47.6,31.7-76.5V108c0-28.9-11.3-56.1-31.7-76.5-20.4-20.4-47.6-31.7-76.5-31.7h0Z"/>
  </g>
  <path class="st0" d="M108,1269c-44.7,0-81-36.3-81-81V108c0-44.7,36.3-81,81-81h1512c44.7,0,81,36.3,81,81v1080c0,44.7-36.3,81-81,81H108ZM1620,1224c19.9,0,36-16.1,36-36V108c0-19.9-16.1-36-36-36H108c-19.9,0-36,16.1-36,36v1080c0,19.9,16.1,36,36,36h1512Z"/>
  <g>
    <path class="st0" d="M346.3,318.7v-138.7h34.1v138.7c0,28.1,15.9,46.2,39.4,46.2s39.4-18.2,39.4-46.2v-138.7h34.1v138.7c0,68.3-52.4,81.1-73.5,81.1s-73.5-11.3-73.5-81.1Z"/>
    <path class="st0" d="M579.3,249.7v146.3h-34.1v-216h34.1l78.8,137.9v-137.9h34.1v216h-30.3l-82.6-146.3Z"/>
    <path class="st0" d="M744.1,180h34.1v184.2h99.9v31.8h-134v-216Z"/>
    <path class="st0" d="M910.4,180h127.2v34.1h-93.1v53.1h62.8v34.9h-62.8v59.1h99.9v34.9h-134v-216Z"/>
    <path class="st0" d="M1066,345.2l32.6-12.1c9.1,20.5,25.8,31.8,46.2,31.8s33.4-13.6,33.4-31.8c0-28.9-33.3-33.3-61.4-44.7-12.9-5.3-41.7-18.2-41.7-53.8s28.8-58.3,67.4-58.3,50.8,17.4,61.4,44l-30.3,9.1c-3.4-8.5-15.7-19-31.8-19-30.8,0-33.4,16.4-33.4,21.8,0,20.2,17.4,24.2,45.7,33.1,28.8,9.1,58.9,22.3,58.9,68.6s-37.8,65.9-68.2,65.9-64.4-22-78.8-54.6Z"/>
    <path class="st0" d="M1234.7,345.2l32.6-12.1c9.1,20.5,25.8,31.8,46.2,31.8s33.4-13.6,33.4-31.8c0-28.9-33.3-33.3-61.4-44.7-12.9-5.3-41.7-18.2-41.7-53.8s28.8-58.3,67.4-58.3,50.8,17.4,61.4,44l-30.3,9.1c-3.4-8.5-15.7-19-31.8-19-30.8,0-33.4,16.4-33.4,21.8,0,20.2,17.4,24.2,45.7,33.1,28.8,9.1,58.9,22.3,58.9,68.6s-37.8,65.9-68.2,65.9-64.4-22-78.8-54.6Z"/>
  </g>
  <g>
    <path class="st0" d="M403.1,756h-34.3v-185.7h-49.5v-30.3h134v30.3h-50.2v185.7Z"/>
    <path class="st0" d="M592.2,662h-78.9v94h-34.1v-216h34.1v87.2h78.8v-87.2h34.1v216h-34.1v-94Z"/>
    <path class="st0" d="M667.8,540h127.2v34.1h-93.1v53.1h62.8v34.9h-62.8v59.1h99.9v34.9h-134v-216Z"/>
    <path class="st0" d="M865.2,662v94h-34.1v-216h78.1c49.5,0,64.4,39.6,64.4,60.7s-3,39.6-33.5,54.1l38.1,101.2h-37.2l-34.9-94h-41ZM908.1,627.2c27.1,0,31.4-19.5,31.4-26.5s-7-26.5-29.7-26.5h-44.5v53.1h42.9Z"/>
    <path class="st0" d="M1122,756l-34.2-138.7-33.5,138.7h-30.4l-31.9-216h35l16.7,113.7,27.3-113.7h33.5l28.1,113.7,16.7-113.7h35l-31.9,216h-30.4Z"/>
    <path class="st0" d="M1210.3,540h34.6v216h-34.6v-216Z"/>
    <path class="st0" d="M1274.2,705.2l32.6-12.1c9.1,20.5,25.8,31.8,46.2,31.8s33.4-13.6,33.4-31.8c0-28.9-33.3-33.3-61.4-44.7-12.9-5.3-41.7-18.2-41.7-53.8s28.8-58.3,67.4-58.3,50.8,17.4,61.4,44l-30.3,9.1c-3.4-8.5-15.7-19-31.8-19-30.8,0-33.4,16.4-33.4,21.8,0,20.2,17.4,24.2,45.7,33.1,28.8,9.1,58.9,22.3,58.9,68.6s-37.8,65.9-68.2,65.9-64.4-22-78.8-54.6Z"/>
    <path class="st0" d="M1450.6,540h127.2v34.1h-93.1v53.1h62.8v34.9h-62.8v59.1h99.9v34.9h-134v-216Z"/>
    <path class="st0" d="M296.9,648c0,7.7,1.6,111.8-76.7,111.8s-76.7-104-76.7-111.8-1.6-111.8,76.7-111.8,76.7,104,76.7,111.8ZM220.5,725c23.3,0,42.2-22.1,42.2-76.9s-18.9-76.9-42.2-76.9-42.2,22-42.2,76.9,18.9,76.9,42.2,76.9Z"/>
  </g>
  <g>
    <path class="st0" d="M433.6,1022h-40.2v94h-34.1v-216h81.6c50.8,0,65.4,41.3,65.4,60.6s-7.4,61.4-72.7,61.4ZM393.4,987.2h48.1c27.1,0,30-19.5,30-26.5,0-10.1-7.6-26.5-28.8-26.5h-49.2v53.1Z"/>
    <path class="st0" d="M720.3,1065.2l32.6-12.1c9.1,20.5,25.8,31.8,46.2,31.8s33.4-13.6,33.4-31.8c0-28.9-33.3-33.3-61.4-44.7-12.9-5.3-41.7-18.2-41.7-53.8s28.8-58.3,67.4-58.3,50.8,17.4,61.4,44l-30.3,9.1c-3.4-8.5-15.7-19-31.8-19-30.8,0-33.4,16.4-33.4,21.8,0,20.2,17.4,24.2,45.7,33.1,28.8,9.1,58.9,22.3,58.9,68.6s-37.8,65.9-68.2,65.9-64.4-22-78.8-54.6Z"/>
    <path class="st0" d="M968.3,1116h-34.3v-185.7h-49.5v-30.3h134v30.3h-50.2v185.7Z"/>
    <path class="st0" d="M1051,900h127.2v34.1h-93.1v53.1h62.8v34.9h-62.8v59.1h99.9v34.9h-134v-216Z"/>
    <path class="st0" d="M1221.7,1116v-216h77.9c54.5,0,69.1,71.8,69.1,103.1,0,81-41.7,112.9-69,112.9h-78.1ZM1294.4,934.1h-38.7v147h36.3c31.4,0,41.7-38.1,41.7-78.7s-5.5-68.3-39.3-68.3Z"/>
    <path class="st0" d="M687.9,1008c0,7.7,1.6,111.8-76.7,111.8s-76.7-104-76.7-111.8-1.6-111.8,76.7-111.8,76.7,104,76.7,111.8ZM611.5,1084.9c23.3,0,42.2-22.1,42.2-76.9s-18.9-76.9-42.2-76.9-42.2,22-42.2,76.9,18.9,76.9,42.2,76.9Z"/>
  </g>
</svg>