<?xml version="1.0" encoding="UTF-8" standalone="no"?>
<!-- Created with Inkscape (http://www.inkscape.org/) -->

<svg
   version="1.1"
   id="svg1"
   width="3456.6667"
   height="2304.6667"
   viewBox="0 0 3456.6667 2304.6667"
   sodipodi:docname="tmpstnhvy4l.pdf"
   xmlns:inkscape="http://www.inkscape.org/namespaces/inkscape"
   xmlns:sodipodi="http://sodipodi.sourceforge.net/DTD/sodipodi-0.dtd"
   xmlns="http://www.w3.org/2000/svg"
   xmlns:svg="http://www.w3.org/2000/svg">
  <defs
     id="defs1" />
  <sodipodi:namedview
     id="namedview1"
     pagecolor="#ffffff"
     bordercolor="#000000"
     borderopacity="0.25"
     inkscape:showpageshadow="2"
     inkscape:pageopacity="0.0"
     inkscape:pagecheckerboard="0"
     inkscape:deskcolor="#d1d1d1">
    <inkscape:page
       x="0"
       y="0"
       inkscape:label="1"
       id="page1"
       width="3456.6667"
       height="2304.6667"
       margin="0"
       bleed="0" />
  </sodipodi:namedview>
  <g
     id="g1"
     inkscape:groupmode="layer"
     inkscape:label="1">
    <g
       id="group-R5">
      <path
         id="path2"
         d="M 25922.5,1082.5 C 25922.5,486 25439,2.5 24842.5,2.5 H 1082.5 C 486.031,2.5 2.5,486 2.5,1082.5 v 15120 c 0,596.5 483.531,1080 1080,1080 h 23760 c 596.5,0 1080,-483.5 1080,-1080 v -15120"
         style="fill:#ffffff;fill-opacity:1;fill-rule:nonzero;stroke:none"
         transform="matrix(0.13333333,0,0,-0.13333333,0,2304.6667)" />
      <path
         id="path3"
         d="M 25922.5,1082.5 C 25922.5,486 25439,2.5 24842.5,2.5 H 1082.5 C 486.031,2.5 2.5,486 2.5,1082.5 v 15120 c 0,596.5 483.531,1080 1080,1080 h 23760 c 596.5,0 1080,-483.5 1080,-1080 z"
         style="fill:none;stroke:#231f20;stroke-width:5;stroke-linecap:butt;stroke-linejoin:miter;stroke-miterlimit:4;stroke-dasharray:none;stroke-opacity:1"
         transform="matrix(0.13333333,0,0,-0.13333333,0,2304.6667)" />
      <path
         id="path4"
         d="m 1082.5,272.5 c -446.637,0 -810,363.402 -810,810 v 15120 c 0,446.6 363.363,810 810,810 h 23760 c 446.6,0 810,-363.4 810,-810 v -15120 c 0,-446.598 -363.4,-810 -810,-810 h -23760"
         style="fill:#231f20;fill-opacity:1;fill-rule:nonzero;stroke:none"
         transform="matrix(0.13333333,0,0,-0.13333333,0,2304.6667)" />
      <path
         id="path5"
         d="m 1082.5,722.5 c -198.508,0 -360,161.5 -360,360 v 15120 c 0,198.5 161.492,360 360,360 h 23760 c 198.5,0 360,-161.5 360,-360 v -15120 c 0,-198.5 -161.5,-360 -360,-360 h -23760"
         style="fill:#ffffff;fill-opacity:1;fill-rule:nonzero;stroke:none"
         transform="matrix(0.13333333,0,0,-0.13333333,0,2304.6667)" />
      <path
         id="path6"
         d="M 12809.8,9992.48 11157.4,12918 V 9992.48 h -682.1 v 4320.02 h 682.1 l 1576.5,-2758.7 v 2758.7 h 682.2 V 9992.48 h -606.3"
         style="fill:#231f20;fill-opacity:1;fill-rule:nonzero;stroke:none"
         transform="matrix(0.13333333,0,0,-0.13333333,0,2304.6667)" />
      <path
         id="path7"
         d="m 8747.27,9992.48 v 4320.02 h 691.2 V 9992.48 h -691.2"
         style="fill:#231f20;fill-opacity:1;fill-rule:nonzero;stroke:none"
         transform="matrix(0.13333333,0,0,-0.13333333,0,2304.6667)" />
      <path
         id="path8"
         d="m 20080.8,10255.5 c -242.5,-212.2 -576.1,-333.51 -939.9,-333.51 -742.7,0 -1288.5,439.61 -1576.5,1091.41 l 651.8,242.5 c 182,-409.3 515.4,-636.6 924.7,-636.6 394.2,0 667,272.8 667,636.6 0,576 -667,666.9 -1227.9,894.3 -257.7,106.1 -833.7,363.8 -833.7,1076.2 0,848.9 576,1167.2 1349.2,1167.2 606.3,0 1015.6,-348.7 1227.8,-879.2 l -606.3,-181.9 c 0,0 -151.6,363.8 -636.7,379 -318.4,15.1 -697.3,-106.1 -667,-500.2 60.7,-803.4 2091.9,-272.9 2091.9,-1970.6 0,-394.1 -151.6,-742.7 -424.4,-985.2"
         style="fill:#231f20;fill-opacity:1;fill-rule:nonzero;stroke:none"
         transform="matrix(0.13333333,0,0,-0.13333333,0,2304.6667)" />
      <path
         id="path9"
         d="m 14452.9,9992.48 v 4320.02 h 2543.2 v -682.1 h -1862 v -1061.1 h 1256.5 v -697.2 h -1256.5 v -1182.3 h 1998.3 v -697.32 h -2679.5"
         style="fill:#231f20;fill-opacity:1;fill-rule:nonzero;stroke:none"
         transform="matrix(0.13333333,0,0,-0.13333333,0,2304.6667)" />
      <path
         id="path10"
         d="m 6101.02,13630.4 v -1061.1 h 1256.45 v -697.2 H 6101.02 V 9992.48 h -681.24 v 4320.02 h 2679.49 v -682.1 H 6101.02"
         style="fill:#231f20;fill-opacity:1;fill-rule:nonzero;stroke:none"
         transform="matrix(0.13333333,0,0,-0.13333333,0,2304.6667)" />
      <path
         id="path11"
         d="m 8402.99,6332.2 c -136.76,227.4 -303.91,318.4 -562.21,333.5 -334.32,15.2 -547.03,-151.5 -698.96,-530.5 -106.39,-257.7 -167.15,-651.8 -167.15,-1015.6 0,-454.7 91.15,-924.6 258.28,-1197.5 136.8,-227.3 319.1,-333.4 592.62,-333.4 319.1,0 516.62,166.7 668.59,545.6 91.17,227.4 167.13,651.8 167.13,985.3 0,485.1 -91.17,924.6 -258.3,1212.6 z M 8874.02,3376.5 C 8630.88,3043 8281.41,2891.4 7825.57,2891.4 c -607.8,0 -987.68,242.5 -1246,773.1 -182.3,363.8 -303.87,939.7 -303.87,1455.1 0,712.4 182.33,1349.1 471.04,1758.3 258.32,333.5 607.79,485.09 1109.22,485.09 547.03,0 926.89,-242.59 1200.41,-773.09 182.3,-378.9 288.69,-924.6 288.69,-1470.3 0,-682.1 -167.15,-1364.2 -471.04,-1743.1"
         style="fill:#231f20;fill-opacity:1;fill-rule:nonzero;stroke:none"
         transform="matrix(0.13333333,0,0,-0.13333333,0,2304.6667)" />
      <path
         id="path12"
         d="m 17404,2972.5 v 4320.04 h 681.2 V 3609.1 h 1998.3 V 2972.5 H 17404"
         style="fill:#231f20;fill-opacity:1;fill-rule:nonzero;stroke:none"
         transform="matrix(0.13333333,0,0,-0.13333333,0,2304.6667)" />
      <path
         id="path13"
         d="m 12849.1,3624.3 c -227.4,-424.4 -742.8,-727.6 -1273.3,-727.6 -530.6,0 -1046,303.2 -1273.4,727.6 -121.2,257.7 -197,560.8 -197,894.3 v 2773.9 h 682.1 V 4518.6 c 0,-560.8 318.3,-924.6 788.3,-924.6 469.9,0 788.2,363.8 788.2,924.6 v 2773.9 h 682.2 V 4518.6 c 0,-333.5 -75.8,-636.6 -197.1,-894.3"
         style="fill:#231f20;fill-opacity:1;fill-rule:nonzero;stroke:none"
         transform="matrix(0.13333333,0,0,-0.13333333,0,2304.6667)" />
      <path
         id="path14"
         d="m 4538.51,6428.5 c -106.09,106.1 -257.67,181.9 -439.6,181.9 H 3325.79 V 3669.8 h 682.18 c 227.4,0 363.81,45.4 485.07,166.7 257.72,257.7 394.13,727.6 394.13,1303.6 0,576 -136.41,1061.1 -348.66,1288.4 z M 4826.55,3215 c -166.76,-151.6 -394.13,-227.3 -621.51,-242.5 -45.47,0 -136.46,0 -242.54,0 H 2643.65 v 4320.02 h 1394.61 c 439.63,0 606.39,-45.42 833.76,-227.42 454.78,-394.1 712.47,-1076.2 712.47,-1925 0,-864 -272.87,-1546.1 -757.94,-1925.1"
         style="fill:#231f20;fill-opacity:1;fill-rule:nonzero;stroke:none"
         transform="matrix(0.13333333,0,0,-0.13333333,0,2304.6667)" />
      <path
         id="path15"
         d="m 20601.9,2972.5 v 4320.02 h 2543.2 V 6610.4 h -1862 v -1061 h 1256.5 V 4852.1 H 21283.1 V 3669.8 h 1998.2 v -697.3 h -2679.4"
         style="fill:#231f20;fill-opacity:1;fill-rule:nonzero;stroke:none"
         transform="matrix(0.13333333,0,0,-0.13333333,0,2304.6667)" />
      <path
         id="path16"
         d="m 15709.9,4821.8 c -91,30.3 -136.5,30.3 -288,30.3 h -864.1 V 3669.8 h 1030.8 c 348.7,0 530.6,166.7 530.6,500.2 0,288 -166.8,560.8 -409.3,651.8 z m -151.6,1788.6 h -1000.5 v -1061 h 818.6 c 197,0 288,30.3 409.3,121.2 151.6,121.3 242.5,303.2 242.5,500.2 0,288 -166.7,439.6 -469.9,439.6 z m 560.9,-3531.8 c -151.6,-60.6 -409.3,-106.1 -606.4,-106.1 h -1637.2 v 4320.04 h 1637.2 c 682.2,0 1197.6,-469.94 1197.6,-1091.34 0,-424.5 -197.1,-742.8 -606.4,-970.2 454.8,-212.2 712.5,-576 712.5,-1045.9 0,-469.9 -288,-939.7 -697.3,-1106.5"
         style="fill:#231f20;fill-opacity:1;fill-rule:nonzero;stroke:none"
         transform="matrix(0.13333333,0,0,-0.13333333,0,2304.6667)" />
    </g>
  </g>
</svg>
