<?xml version="1.0" encoding="UTF-8" standalone="no"?>
<!-- Created with Inkscape (http://www.inkscape.org/) -->

<svg
   version="1.1"
   id="svg1"
   width="2880.6667"
   height="864.66669"
   viewBox="0 0 2880.6667 864.66669"
   sodipodi:docname="tmpuxmflmry.pdf"
   xmlns:inkscape="http://www.inkscape.org/namespaces/inkscape"
   xmlns:sodipodi="http://sodipodi.sourceforge.net/DTD/sodipodi-0.dtd"
   xmlns="http://www.w3.org/2000/svg"
   xmlns:svg="http://www.w3.org/2000/svg">
  <defs
     id="defs1" />
  <sodipodi:namedview
     id="namedview1"
     pagecolor="#ffffff"
     bordercolor="#000000"
     borderopacity="0.25"
     inkscape:showpageshadow="2"
     inkscape:pageopacity="0.0"
     inkscape:pagecheckerboard="0"
     inkscape:deskcolor="#d1d1d1">
    <inkscape:page
       x="0"
       y="0"
       inkscape:label="1"
       id="page1"
       width="2880.6667"
       height="864.66669"
       margin="0"
       bleed="0" />
  </sodipodi:namedview>
  <g
     id="g1"
     inkscape:groupmode="layer"
     inkscape:label="1">
    <g
       id="group-R5">
      <path
         id="path2"
         d="M 1082.5,1.25 C 486.301,1.25 1.25,486.301 1.25,1082.5 v 4320 c 0,596.2 485.051,1081.25 1081.25,1081.25 h 19440 c 596.2,0 1081.3,-485.05 1081.3,-1081.25 v -4320 C 21603.8,486.301 21118.7,1.25 20522.5,1.25 h -19440"
         style="fill:#ffffff;fill-opacity:1;fill-rule:nonzero;stroke:none"
         transform="matrix(0.13333333,0,0,-0.13333333,0,864.66667)" />
      <path
         id="path3"
         d="M 20522.5,6485 H 1082.5 C 793.355,6485 521.516,6372.4 317.059,6167.94 112.602,5963.48 0,5691.64 0,5402.5 v -4320 C 0,793.352 112.602,521.52 317.059,317.059 521.516,112.602 793.355,0 1082.5,0 h 19440 c 289.1,0 561,112.602 765.4,317.059 204.5,204.453 317.1,476.293 317.1,765.441 v 4320 c 0,289.15 -112.6,560.99 -317.1,765.44 -204.4,204.46 -476.3,317.06 -765.4,317.06 z m 0,-2.5 c 596.5,0 1080,-483.54 1080,-1080 v -4320 c 0,-596.469 -483.5,-1080 -1080,-1080 H 1082.5 C 486.035,2.5 2.5,486.031 2.5,1082.5 v 4320 c 0,596.46 483.535,1080 1080,1080 h 19440"
         style="fill:#231f20;fill-opacity:1;fill-rule:nonzero;stroke:none"
         transform="matrix(0.13333333,0,0,-0.13333333,0,864.66667)" />
      <path
         id="path4"
         d="m 1082.5,272.5 c -446.637,0 -810,363.371 -810,810 v 4320 c 0,446.64 363.363,810 810,810 h 19440 c 446.6,0 810,-363.36 810,-810 v -4320 c 0,-446.629 -363.4,-810 -810,-810 h -19440"
         style="fill:#231f20;fill-opacity:1;fill-rule:nonzero;stroke:none"
         transform="matrix(0.13333333,0,0,-0.13333333,0,864.66667)" />
      <path
         id="path5"
         d="m 1082.5,722.5 c -198.5,0 -360,161.488 -360,360 v 4320 c 0,198.5 161.5,360 360,360 h 19440 c 198.5,0 360,-161.5 360,-360 v -4320 c 0,-198.512 -161.5,-360 -360,-360 h -19440"
         style="fill:#ffffff;fill-opacity:1;fill-rule:nonzero;stroke:none"
         transform="matrix(0.13333333,0,0,-0.13333333,0,864.66667)" />
      <path
         id="path6"
         d="M 1801.76,3510.35 V 1802.51 H 1438.54 V 4682.5 h 363.22 l 513.7,-1434.95 V 4682.5 H 2677.6 V 1802.51 h -312.47 l -563.37,1707.84"
         style="fill:#231f20;fill-opacity:1;fill-rule:nonzero;stroke:none"
         transform="matrix(0.13333333,0,0,-0.13333333,0,864.66667)" />
      <path
         id="path7"
         d="m 3184.52,4682.5 h 1054.75 v -374.04 h -692.96 v -737.64 h 462.21 V 3187.07 H 3546.31 V 2176.55 h 733.28 V 1802.51 H 3184.52 V 4682.5"
         style="fill:#231f20;fill-opacity:1;fill-rule:nonzero;stroke:none"
         transform="matrix(0.13333333,0,0,-0.13333333,0,864.66667)" />
      <path
         id="path8"
         d="m 4648.28,4682.5 h 374.38 V 1802.51 H 4648.28 V 4682.5"
         style="fill:#231f20;fill-opacity:1;fill-rule:nonzero;stroke:none"
         transform="matrix(0.13333333,0,0,-0.13333333,0,864.66667)" />
      <path
         id="path9"
         d="m 6130.73,4722.46 c 325.06,0 538.53,-202.32 568.77,-555.84 h -375.82 c -10.08,121.32 -81.36,181.8 -182.87,181.8 -180.71,0 -304.55,-154.08 -304.55,-1110.95 0,-956.88 123.84,-1111.68 304.55,-1111.68 152.99,0 192.95,177.12 192.95,353.88 v 343.44 h -172.43 v 374.04 h 538.17 v -717.48 c 0,-188.28 27,-727.56 -568.05,-727.56 -519.82,0 -671.01,398.52 -671.01,1485.36 0,1277.27 276.11,1484.99 670.29,1484.99"
         style="fill:#231f20;fill-opacity:1;fill-rule:nonzero;stroke:none"
         transform="matrix(0.13333333,0,0,-0.13333333,0,864.66667)" />
      <path
         id="path10"
         d="M 8013.53,3146.39 H 7500.2 V 1802.51 H 7137.34 V 4682.5 H 7500.2 V 3520.43 h 514.06 V 4682.5 H 8376.4 V 1802.51 h -362.87 v 1343.88"
         style="fill:#231f20;fill-opacity:1;fill-rule:nonzero;stroke:none"
         transform="matrix(0.13333333,0,0,-0.13333333,0,864.66667)" />
      <path
         id="path11"
         d="m 9246.54,3136.31 v -959.76 h 281.86 c 171.36,0 221.75,91.44 221.75,383.76 0,454.67 -50.75,576 -232.18,576 z m 0,1172.15 v -788.03 h 251.26 c 162,0 201.6,91.07 201.6,394.19 0,282.96 -60.48,393.84 -241.91,393.84 z M 9568.36,1802.51 H 8883.32 V 4682.5 h 523.77 c 505.78,0 664.91,-191.88 664.91,-767.88 0,-282.96 -40,-434.51 -141.13,-586.08 132.13,-145.07 191.53,-398.15 191.53,-737.99 0,-515.52 -191.17,-788.04 -554.04,-788.04"
         style="fill:#231f20;fill-opacity:1;fill-rule:nonzero;stroke:none"
         transform="matrix(0.13333333,0,0,-0.13333333,0,864.66667)" />
      <path
         id="path12"
         d="m 10801.4,3237.47 c 0,-503.28 7.2,-1111.68 283.3,-1111.68 276.1,0 283,608.4 283,1111.68 0,503.27 -6.9,1111.67 -283,1111.67 -276.1,0 -283.3,-608.4 -283.3,-1111.67 z m 283.3,-1485.36 c -646.5,0 -662.7,812.88 -662.7,1485.36 0,672.47 16.2,1484.99 662.7,1484.99 646.5,0 662.7,-812.52 662.7,-1484.99 0,-672.48 -16.2,-1485.36 -662.7,-1485.36"
         style="fill:#231f20;fill-opacity:1;fill-rule:nonzero;stroke:none"
         transform="matrix(0.13333333,0,0,-0.13333333,0,864.66667)" />
      <path
         id="path13"
         d="m 13050,3884.02 c 0,326.17 -71.3,424.44 -323.7,424.44 h -177.1 v -788.03 h 238 c 201.9,0 262.8,90.72 262.8,363.59 z m 71.2,-647.63 293.1,-1433.88 h -394.6 l -274.6,1343.88 h -195.9 V 1802.51 h -363.9 V 4682.5 h 561.2 c 446,0 677.8,-272.88 677.8,-808.56 0,-275.75 -81.7,-514.08 -303.1,-637.55"
         style="fill:#231f20;fill-opacity:1;fill-rule:nonzero;stroke:none"
         transform="matrix(0.13333333,0,0,-0.13333333,0,864.66667)" />
      <path
         id="path14"
         d="m 14669.2,3146.39 h -513.3 V 1802.51 h -362.8 V 4682.5 h 362.8 V 3520.43 H 14670 V 4682.5 h 362.1 V 1802.51 h -362.9 v 1343.88"
         style="fill:#231f20;fill-opacity:1;fill-rule:nonzero;stroke:none"
         transform="matrix(0.13333333,0,0,-0.13333333,0,864.66667)" />
      <path
         id="path15"
         d="m 15849.3,3237.47 c 0,-503.28 7.2,-1111.68 283.3,-1111.68 276.2,0 283,608.4 283,1111.68 0,503.27 -6.8,1111.67 -283,1111.67 -276.1,0 -283.3,-608.4 -283.3,-1111.67 z m 283.3,-1485.36 c -646.5,0 -662.7,812.88 -662.7,1485.36 0,672.47 16.2,1484.99 662.7,1484.99 646.6,0 662.8,-812.52 662.8,-1484.99 0,-672.48 -16.2,-1485.36 -662.8,-1485.36"
         style="fill:#231f20;fill-opacity:1;fill-rule:nonzero;stroke:none"
         transform="matrix(0.13333333,0,0,-0.13333333,0,864.66667)" />
      <path
         id="path16"
         d="m 17543.5,3237.47 c 0,-503.28 7.2,-1111.68 283.3,-1111.68 276.1,0 283,608.4 283,1111.68 0,503.27 -6.9,1111.67 -283,1111.67 -276.1,0 -283.3,-608.4 -283.3,-1111.67 z m 283.3,-1485.36 c -646.5,0 -662.7,812.88 -662.7,1485.36 0,672.47 16.2,1484.99 662.7,1484.99 646.6,0 662.8,-812.52 662.8,-1484.99 0,-672.48 -16.2,-1485.36 -662.8,-1485.36"
         style="fill:#231f20;fill-opacity:1;fill-rule:nonzero;stroke:none"
         transform="matrix(0.13333333,0,0,-0.13333333,0,864.66667)" />
      <path
         id="path17"
         d="M 19290.6,4308.46 V 2176.55 h 231.1 c 280.8,0 267.1,432.36 267.1,1069.91 0,953.64 -88.2,1062 -267.1,1062 z M 18927.4,1802.51 V 4682.5 h 594.3 c 241.6,0 644.8,-12.6 644.8,-1434.95 0,-1422.36 -403.2,-1445.04 -644.8,-1445.04 h -594.3"
         style="fill:#231f20;fill-opacity:1;fill-rule:nonzero;stroke:none"
         transform="matrix(0.13333333,0,0,-0.13333333,0,864.66667)" />
    </g>
  </g>
</svg>
