<?xml version="1.0" encoding="UTF-8" standalone="no"?>
<!-- Created with Inkscape (http://www.inkscape.org/) -->

<svg
   version="1.1"
   id="svg1"
   width="4608.6665"
   height="5760.6665"
   viewBox="0 0 4608.6665 5760.6665"
   sodipodi:docname="tmpdsfexzyt.pdf"
   xmlns:inkscape="http://www.inkscape.org/namespaces/inkscape"
   xmlns:sodipodi="http://sodipodi.sourceforge.net/DTD/sodipodi-0.dtd"
   xmlns="http://www.w3.org/2000/svg"
   xmlns:svg="http://www.w3.org/2000/svg">
  <defs
     id="defs1" />
  <sodipodi:namedview
     id="namedview1"
     pagecolor="#ffffff"
     bordercolor="#000000"
     borderopacity="0.25"
     inkscape:showpageshadow="2"
     inkscape:pageopacity="0.0"
     inkscape:pagecheckerboard="0"
     inkscape:deskcolor="#d1d1d1">
    <inkscape:page
       x="0"
       y="0"
       inkscape:label="1"
       id="page1"
       width="4608.6665"
       height="5760.6665"
       margin="0"
       bleed="0" />
  </sodipodi:namedview>
  <g
     id="g1"
     inkscape:groupmode="layer"
     inkscape:label="1">
    <g
       id="group-R5">
      <path
         id="path2"
         d="m 34562.5,2162.5 c 0,-1192.898 -967.1,-2160 -2160,-2160 H 2162.5 C 969.566,2.5 2.5,969.602 2.5,2162.5 v 38880 c 0,1192.9 967.066,2160 2160,2160 h 30240 c 1192.9,0 2160,-967.1 2160,-2160 v -38880"
         style="fill:#ffffff;fill-opacity:1;fill-rule:nonzero;stroke:none"
         transform="matrix(0.13333333,0,0,-0.13333333,0,5760.6667)" />
      <path
         id="path3"
         d="m 34562.5,2162.5 c 0,-1192.898 -967.1,-2160 -2160,-2160 H 2162.5 C 969.566,2.5 2.5,969.602 2.5,2162.5 v 38880 c 0,1192.9 967.066,2160 2160,2160 h 30240 c 1192.9,0 2160,-967.1 2160,-2160 z"
         style="fill:none;stroke:#231f20;stroke-width:5;stroke-linecap:butt;stroke-linejoin:miter;stroke-miterlimit:4;stroke-dasharray:none;stroke-opacity:1"
         transform="matrix(0.13333333,0,0,-0.13333333,0,5760.6667)" />
      <path
         id="path4"
         d="m 2162.5,542.5 c -893.27,0 -1620,726.7 -1620,1620 v 38880 c 0,893.3 726.73,1620 1620,1620 h 30240 c 893.3,0 1620,-726.7 1620,-1620 v -38880 c 0,-893.3 -726.7,-1620 -1620,-1620 h -30240"
         style="fill:#231f20;fill-opacity:1;fill-rule:nonzero;stroke:none"
         transform="matrix(0.13333333,0,0,-0.13333333,0,5760.6667)" />
      <path
         id="path5"
         d="m 2162.5,1442.5 c -397.01,0 -720,323 -720,720 v 38880 c 0,397 322.99,720 720,720 h 30240 c 397,0 720,-323 720,-720 v -38880 c 0,-397 -323,-720 -720,-720 h -30240"
         style="fill:#ffffff;fill-opacity:1;fill-rule:nonzero;stroke:none"
         transform="matrix(0.13333333,0,0,-0.13333333,0,5760.6667)" />
      <path
         id="path6"
         d="m 15395.3,9160.4 c -182.3,303.1 -405.2,424.4 -749.6,444.6 -445.7,20.2 -729.4,-202.1 -931.9,-707.4 -141.9,-343.5 -222.9,-869 -222.9,-1354.1 0,-606.3 121.5,-1232.8 344.4,-1596.6 182.4,-303.2 425.5,-444.6 790.1,-444.6 425.5,0 688.9,222.3 891.5,727.5 121.5,303.2 222.8,869.1 222.8,1313.7 0,646.8 -121.5,1232.9 -344.4,1616.9 z m 628.1,-3941.1 c -324.2,-444.6 -790.2,-646.7 -1398,-646.7 -810.4,0 -1316.9,323.4 -1661.3,1030.7 -243.1,485.1 -405.1,1253.1 -405.1,1940.2 0,949.9 243,1798.8 628,2344.5 344.4,444.6 810.4,646.7 1478.9,646.7 729.4,0 1235.9,-323.4 1600.6,-1030.8 243.1,-505.2 384.9,-1232.8 384.9,-1960.4 0,-909.4 -222.8,-1818.9 -628,-2324.2"
         style="fill:#231f20;fill-opacity:1;fill-rule:nonzero;stroke:none"
         transform="matrix(0.13333333,0,0,-0.13333333,0,5760.6667)" />
      <path
         id="path7"
         d="m 7773.84,4680.7 v 768 L 10401.4,9531.3 H 7996.14 v 909.4 H 11694.9 V 9895.1 L 9026.96,5610.4 H 11694.9 V 4680.7 H 7773.84"
         style="fill:#231f20;fill-opacity:1;fill-rule:nonzero;stroke:none"
         transform="matrix(0.13333333,0,0,-0.13333333,0,5760.6667)" />
      <path
         id="path8"
         d="M 21031.3,4680.7 18828.1,8581.4 V 4680.7 h -909.5 v 5760 h 909.5 l 2102.1,-3678.3 v 3678.3 h 909.5 v -5760 h -808.4"
         style="fill:#231f20;fill-opacity:1;fill-rule:nonzero;stroke:none"
         transform="matrix(0.13333333,0,0,-0.13333333,0,5760.6667)" />
      <path
         id="path9"
         d="m 23222.1,4680.7 v 5760 h 3391 V 9531.3 H 24130.4 V 8116.5 h 1675.4 V 7186.8 H 24130.4 V 5610.4 h 2664.4 v -929.7 h -3572.7"
         style="fill:#231f20;fill-opacity:1;fill-rule:nonzero;stroke:none"
         transform="matrix(0.13333333,0,0,-0.13333333,0,5760.6667)" />
      <path
         id="path10"
         d="m 17080.6,14040.7 -2203.1,3900.7 V 14040.7 H 13968 v 5760.1 h 909.5 l 2102.1,-3678.4 v 3678.4 h 909.5 v -5760.1 h -808.5"
         style="fill:#231f20;fill-opacity:1;fill-rule:nonzero;stroke:none"
         transform="matrix(0.13333333,0,0,-0.13333333,0,5760.6667)" />
      <path
         id="path11"
         d="m 11664,14040.7 v 5760.1 h 921.6 V 14040.7 H 11664"
         style="fill:#231f20;fill-opacity:1;fill-rule:nonzero;stroke:none"
         transform="matrix(0.13333333,0,0,-0.13333333,0,5760.6667)" />
      <path
         id="path12"
         d="m 26775.4,14391.4 c -323.4,-283 -768.1,-444.7 -1253.2,-444.7 -990.4,0 -1718,586.1 -2102,1455.2 l 869.1,323.4 c 242.5,-545.7 687.2,-848.9 1232.9,-848.9 525.5,0 889.3,363.8 889.3,848.9 0,768 -889.3,889.2 -1637.2,1192.4 -343.5,141.5 -1111.6,485 -1111.6,1434.9 0,1131.8 768.1,1556.3 1798.9,1556.3 808.4,0 1354.2,-464.9 1637.1,-1172.3 l -808.4,-242.5 c 0,0 -202.1,485.1 -848.9,505.3 -424.5,20.2 -929.8,-141.5 -889.4,-667 80.9,-1071.1 2789.3,-363.8 2789.3,-2627.3 0,-525.5 -202.1,-990.3 -565.9,-1313.7"
         style="fill:#231f20;fill-opacity:1;fill-rule:nonzero;stroke:none"
         transform="matrix(0.13333333,0,0,-0.13333333,0,5760.6667)" />
      <path
         id="path13"
         d="m 19271.5,14040.7 v 5760.1 h 3391 v -909.5 h -2482.7 v -1414.8 h 1675.3 v -929.7 h -1675.3 v -1576.4 h 2664.4 v -929.7 h -3572.7"
         style="fill:#231f20;fill-opacity:1;fill-rule:nonzero;stroke:none"
         transform="matrix(0.13333333,0,0,-0.13333333,0,5760.6667)" />
      <path
         id="path14"
         d="m 8135.64,18891.3 v -1414.8 h 1675.28 v -929.7 H 8135.64 v -2506.1 h -908.32 v 5760.1 H 10800 v -909.5 H 8135.64"
         style="fill:#231f20;fill-opacity:1;fill-rule:nonzero;stroke:none"
         transform="matrix(0.13333333,0,0,-0.13333333,0,5760.6667)" />
      <path
         id="path15"
         d="m 9359.26,23400.8 v 5760 h 921.64 v -5760 h -921.64"
         style="fill:#231f20;fill-opacity:1;fill-rule:nonzero;stroke:none"
         transform="matrix(0.13333333,0,0,-0.13333333,0,5760.6667)" />
      <path
         id="path16"
         d="m 29118.2,28150.3 c -141.5,80.8 -222.3,101 -525.5,101 h -1091.5 v -1414.7 h 1091.5 c 283,0 384,20.2 525.5,101 222.4,121.3 363.8,363.8 363.8,606.3 0,242.6 -141.4,485.1 -363.8,606.4 z m 404.2,-4749.5 -929.7,2506.1 h -1091.5 v -2506.1 h -909.5 v 5760 h 1899.9 c 444.7,0 747.9,-40.4 1030.8,-181.9 505.3,-242.6 869.1,-848.8 869.1,-1435 0,-606.3 -363.8,-1212.6 -889.3,-1455.1 l 1010.7,-2688 h -990.5"
         style="fill:#231f20;fill-opacity:1;fill-rule:nonzero;stroke:none"
         transform="matrix(0.13333333,0,0,-0.13333333,0,5760.6667)" />
      <path
         id="path17"
         d="m 7067.36,23400.8 v 2506.1 H 4965.29 v -2506.1 h -909.53 v 5760 h 909.53 v -2324.2 h 2102.07 v 2324.2 h 909.53 v -5760 h -909.53"
         style="fill:#231f20;fill-opacity:1;fill-rule:nonzero;stroke:none"
         transform="matrix(0.13333333,0,0,-0.13333333,0,5760.6667)" />
      <path
         id="path18"
         d="m 19748,23400.8 v 2506.1 h -2102.1 v -2506.1 h -909.5 v 5760 h 909.5 V 26836.6 H 19748 v 2324.2 h 909.5 v -5760 H 19748"
         style="fill:#231f20;fill-opacity:1;fill-rule:nonzero;stroke:none"
         transform="matrix(0.13333333,0,0,-0.13333333,0,5760.6667)" />
      <path
         id="path19"
         d="m 22039.9,23400.8 v 5760 h 3390.9 v -909.5 h -2482.7 v -1414.7 h 1675.4 v -929.7 h -1675.4 v -1576.5 h 2664.4 v -929.6 h -3572.6"
         style="fill:#231f20;fill-opacity:1;fill-rule:nonzero;stroke:none"
         transform="matrix(0.13333333,0,0,-0.13333333,0,5760.6667)" />
      <path
         id="path20"
         d="m 13650.1,23299.7 c -869.1,0 -1374.4,323.4 -1718,1051 -242.5,505.2 -384,1212.6 -384,1920 0,929.7 262.7,1839.1 646.7,2344.4 343.7,424.4 828.7,646.7 1475.5,646.7 889.4,0 1414.9,-363.8 1798.9,-1273.2 l -869.1,-343.6 c -242.6,505.3 -485.1,687.2 -929.8,687.2 -464.9,0 -768.1,-202.2 -970.2,-707.4 -141.4,-343.6 -222.3,-869.1 -222.3,-1354.1 0,-606.3 101,-1212.7 283,-1576.5 181.9,-323.3 444.6,-464.8 788.2,-464.8 586.2,0 1010.7,363.8 1010.7,889.3 v 242.5 h -1051.1 v 909.5 h 1960.6 v -1152 c 0,-1051 -768,-1819 -1819.1,-1819"
         style="fill:#231f20;fill-opacity:1;fill-rule:nonzero;stroke:none"
         transform="matrix(0.13333333,0,0,-0.13333333,0,5760.6667)" />
      <path
         id="path21"
         d="m 18060.6,32760.7 -2203.1,3900.6 v -3900.6 h -909.6 v 5760 h 909.6 l 2102,-3678.3 v 3678.3 h 909.5 v -5760 h -808.4"
         style="fill:#231f20;fill-opacity:1;fill-rule:nonzero;stroke:none"
         transform="matrix(0.13333333,0,0,-0.13333333,0,5760.6667)" />
      <path
         id="path22"
         d="m 22777.9,37368.7 c -141.4,141.5 -343.5,242.5 -586.1,242.5 H 21161 v -3920.8 h 909.6 c 303.2,0 485,60.6 646.7,222.3 343.6,343.6 525.5,970.1 525.5,1738.1 0,768 -181.9,1414.7 -464.9,1717.9 z M 23162,33084 c -222.3,-202.1 -525.5,-303.1 -828.7,-323.3 -60.6,0 -181.9,0 -323.4,0 h -1758.4 v 5760 h 1859.4 c 586.2,0 808.6,-60.6 1111.7,-303.2 606.4,-525.4 950,-1434.9 950,-2566.7 0,-1152 -363.8,-2061.5 -1010.6,-2566.8"
         style="fill:#231f20;fill-opacity:1;fill-rule:nonzero;stroke:none"
         transform="matrix(0.13333333,0,0,-0.13333333,0,5760.6667)" />
      <path
         id="path23"
         d="m 10396,32760.7 v 5760 h 3391 v -909.5 h -2482.7 v -1414.7 h 1675.4 v -929.7 h -1675.4 v -1576.4 h 2664.4 v -929.7 H 10396"
         style="fill:#231f20;fill-opacity:1;fill-rule:nonzero;stroke:none"
         transform="matrix(0.13333333,0,0,-0.13333333,0,5760.6667)" />
    </g>
  </g>
</svg>
