<?xml version="1.0" encoding="UTF-8" standalone="no"?>
<!-- Created with Inkscape (http://www.inkscape.org/) -->

<svg
   version="1.1"
   id="svg1"
   width="4608.6665"
   height="3456.6667"
   viewBox="0 0 4608.6665 3456.6667"
   sodipodi:docname="tmpdq3ljk5g.pdf"
   xmlns:inkscape="http://www.inkscape.org/namespaces/inkscape"
   xmlns:sodipodi="http://sodipodi.sourceforge.net/DTD/sodipodi-0.dtd"
   xmlns="http://www.w3.org/2000/svg"
   xmlns:svg="http://www.w3.org/2000/svg">
  <defs
     id="defs1" />
  <sodipodi:namedview
     id="namedview1"
     pagecolor="#ffffff"
     bordercolor="#000000"
     borderopacity="0.25"
     inkscape:showpageshadow="2"
     inkscape:pageopacity="0.0"
     inkscape:pagecheckerboard="0"
     inkscape:deskcolor="#d1d1d1">
    <inkscape:page
       x="0"
       y="0"
       inkscape:label="1"
       id="page1"
       width="4608.6665"
       height="3456.6667"
       margin="0"
       bleed="0" />
  </sodipodi:namedview>
  <g
     id="g1"
     inkscape:groupmode="layer"
     inkscape:label="1">
    <g
       id="group-R5">
      <path
         id="path2"
         d="m 34562.5,1622.5 c 0,-894.699 -725.3,-1620 -1620,-1620 H 1622.5 C 727.805,2.5 2.5,727.801 2.5,1622.5 v 22680 c 0,894.7 725.305,1620 1620.01,1620 H 32942.5 c 894.7,0 1620,-725.3 1620,-1620 v -22680"
         style="fill:#ffffff;fill-opacity:1;fill-rule:nonzero;stroke:none"
         transform="matrix(0.13333333,0,0,-0.13333333,0,3456.6667)" />
      <path
         id="path3"
         d="m 34562.5,1622.5 c 0,-894.699 -725.3,-1620 -1620,-1620 H 1622.5 C 727.805,2.5 2.5,727.801 2.5,1622.5 v 22680 c 0,894.7 725.305,1620 1620.01,1620 H 32942.5 c 894.7,0 1620,-725.3 1620,-1620 z"
         style="fill:none;stroke:#231f20;stroke-width:5;stroke-linecap:butt;stroke-linejoin:miter;stroke-miterlimit:4;stroke-dasharray:none;stroke-opacity:1"
         transform="matrix(0.13333333,0,0,-0.13333333,0,3456.6667)" />
      <path
         id="path4"
         d="m 1622.5,452.5 c -645.137,0 -1170,524.902 -1170,1170 v 22680 c 0,645.1 524.863,1170 1170,1170 h 31320 c 645.1,0 1170,-524.9 1170,-1170 v -22680 c 0,-645.098 -524.9,-1170 -1170,-1170 h -31320"
         style="fill:#231f20;fill-opacity:1;fill-rule:nonzero;stroke:none"
         transform="matrix(0.13333333,0,0,-0.13333333,0,3456.6667)" />
      <path
         id="path5"
         d="m 1622.5,1082.5 c -297.75,0 -540,242.3 -540,540 v 22680 c 0,297.8 242.25,540 540,540 h 31320 c 297.7,0 540,-242.3 540,-540 v -22680 c 0,-297.7 -242.3,-540 -540,-540 h -31320"
         style="fill:#ffffff;fill-opacity:1;fill-rule:nonzero;stroke:none"
         transform="matrix(0.13333333,0,0,-0.13333333,0,3456.6667)" />
      <path
         id="path6"
         d="m 17078.8,15122.5 -2203.1,3900.6 v -3900.6 h -909.5 v 5760 h 909.5 l 2102.1,-3678.3 v 3678.3 h 909.5 v -5760 h -808.5"
         style="fill:#231f20;fill-opacity:1;fill-rule:nonzero;stroke:none"
         transform="matrix(0.13333333,0,0,-0.13333333,0,3456.6667)" />
      <path
         id="path7"
         d="m 11662.2,15122.5 v 5760 h 921.6 v -5760 h -921.6"
         style="fill:#231f20;fill-opacity:1;fill-rule:nonzero;stroke:none"
         transform="matrix(0.13333333,0,0,-0.13333333,0,3456.6667)" />
      <path
         id="path8"
         d="m 26773.5,15473.1 c -323.3,-282.9 -768,-444.6 -1253.1,-444.6 -990.3,0 -1718,586.1 -2102,1455.2 l 869.1,323.3 c 242.6,-545.6 687.2,-848.8 1232.9,-848.8 525.5,0 889.3,363.8 889.3,848.8 0,768 -889.3,889.3 -1637.1,1192.4 -343.6,141.5 -1111.7,485.1 -1111.7,1435 0,1131.8 768.1,1556.2 1798.9,1556.2 808.4,0 1354.2,-464.8 1637.1,-1172.2 l -808.4,-242.5 c 0,0 -202.2,485 -848.9,505.2 -424.5,20.2 -929.8,-141.4 -889.3,-666.9 80.8,-1071.2 2789.2,-363.8 2789.2,-2627.4 0,-525.4 -202.1,-990.3 -566,-1313.7"
         style="fill:#231f20;fill-opacity:1;fill-rule:nonzero;stroke:none"
         transform="matrix(0.13333333,0,0,-0.13333333,0,3456.6667)" />
      <path
         id="path9"
         d="m 19269.7,15122.5 v 5760 h 3391 V 19973 H 20178 v -1414.7 h 1675.3 v -929.7 H 20178 v -1576.4 h 2664.4 v -929.7 h -3572.7"
         style="fill:#231f20;fill-opacity:1;fill-rule:nonzero;stroke:none"
         transform="matrix(0.13333333,0,0,-0.13333333,0,3456.6667)" />
      <path
         id="path10"
         d="m 8133.85,19973 v -1414.7 h 1675.27 v -929.7 H 8133.85 v -2506.1 h -908.32 v 5760 H 10798.2 V 19973 H 8133.85"
         style="fill:#231f20;fill-opacity:1;fill-rule:nonzero;stroke:none"
         transform="matrix(0.13333333,0,0,-0.13333333,0,3456.6667)" />
      <path
         id="path11"
         d="m 11203.1,9522.2 c -182.3,303.1 -405.2,424.4 -749.6,444.6 -445.7,20.2 -729.34,-202.1 -931.92,-707.4 -141.83,-343.6 -222.85,-869 -222.85,-1354.1 0,-606.3 121.52,-1232.8 344.38,-1596.6 182.38,-303.2 425.49,-444.7 790.19,-444.7 425.4,0 688.8,222.4 891.4,727.6 121.6,303.2 222.9,869.1 222.9,1313.7 0,646.8 -121.6,1232.8 -344.5,1616.9 z m 628.1,-3941.1 c -324.2,-444.6 -790.2,-646.7 -1397.9,-646.7 -810.43,0 -1316.95,323.4 -1661.37,1030.7 -243.08,485.1 -405.15,1253 -405.15,1940.2 0,949.9 243.08,1798.7 628.04,2344.4 344.42,444.7 810.39,646.8 1478.98,646.8 729.3,0 1235.8,-323.4 1600.5,-1030.8 243.1,-505.2 384.9,-1232.8 384.9,-1960.4 0,-909.5 -222.8,-1818.9 -628,-2324.2"
         style="fill:#231f20;fill-opacity:1;fill-rule:nonzero;stroke:none"
         transform="matrix(0.13333333,0,0,-0.13333333,0,3456.6667)" />
      <path
         id="path12"
         d="m 23204.5,5042.5 v 5760.1 h 908.3 V 5891.3 h 2664.3 v -848.8 h -3572.6"
         style="fill:#231f20;fill-opacity:1;fill-rule:nonzero;stroke:none"
         transform="matrix(0.13333333,0,0,-0.13333333,0,3456.6667)" />
      <path
         id="path13"
         d="m 17131.3,5911.6 c -303.2,-565.9 -990.3,-970.2 -1697.7,-970.2 -707.5,0 -1394.7,404.3 -1697.9,970.2 -161.6,343.5 -262.7,747.7 -262.7,1192.4 v 3698.5 h 909.5 V 7104 c 0,-747.8 424.5,-1232.9 1051.1,-1232.9 626.5,0 1051,485.1 1051,1232.9 v 3698.5 h 909.5 V 7104 c 0,-444.7 -101.1,-848.9 -262.8,-1192.4"
         style="fill:#231f20;fill-opacity:1;fill-rule:nonzero;stroke:none"
         transform="matrix(0.13333333,0,0,-0.13333333,0,3456.6667)" />
      <path
         id="path14"
         d="m 6050.51,9650.5 c -141.45,141.5 -343.56,242.6 -586.13,242.6 H 4433.55 V 5972.2 h 909.58 c 303.2,0 485.07,60.6 646.75,222.3 343.64,343.6 525.51,970.1 525.51,1738.2 0,767.9 -181.87,1414.7 -464.88,1717.8 z m 384.06,-4284.6 c -222.34,-202.2 -525.51,-303.2 -828.69,-323.4 -60.63,0 -181.93,0 -323.38,0 H 3524.04 v 5760 h 1859.48 c 586.17,0 808.51,-60.6 1111.68,-303.1 606.36,-525.5 949.96,-1435 949.96,-2566.7 0,-1152.1 -363.83,-2061.6 -1010.59,-2566.8"
         style="fill:#231f20;fill-opacity:1;fill-rule:nonzero;stroke:none"
         transform="matrix(0.13333333,0,0,-0.13333333,0,3456.6667)" />
      <path
         id="path15"
         d="m 27468.3,5042.5 v 5760 h 3391 V 9893 H 28376.6 V 8478.3 h 1675.3 V 7548.6 H 28376.6 V 5972.2 H 31041 v -929.7 h -3572.7"
         style="fill:#231f20;fill-opacity:1;fill-rule:nonzero;stroke:none"
         transform="matrix(0.13333333,0,0,-0.13333333,0,3456.6667)" />
      <path
         id="path16"
         d="m 20945.6,7508.2 c -121.2,40.4 -181.8,40.4 -384,40.4 h -1152 V 5972.2 H 20784 c 464.8,0 707.4,222.3 707.4,666.9 0,384 -222.4,747.8 -545.8,869.1 z m -202.1,2384.9 H 19409.6 V 8478.3 H 20501 c 262.8,0 384,40.4 545.7,161.7 202.1,161.7 323.4,404.2 323.4,667 0,384 -222.3,586.1 -626.6,586.1 z M 21491.4,5184 c -202.1,-80.9 -545.8,-141.5 -808.5,-141.5 H 18500 v 5760 h 2182.9 c 909.5,0 1596.7,-626.5 1596.7,-1455.1 0,-565.9 -262.7,-990.4 -808.4,-1293.5 606.3,-283 949.9,-768 949.9,-1394.6 0,-626.5 -384,-1253 -929.7,-1475.3"
         style="fill:#231f20;fill-opacity:1;fill-rule:nonzero;stroke:none"
         transform="matrix(0.13333333,0,0,-0.13333333,0,3456.6667)" />
    </g>
  </g>
</svg>
