<?xml version="1.0" encoding="UTF-8" standalone="no"?>
<!-- Created with Inkscape (http://www.inkscape.org/) -->

<svg
   version="1.1"
   id="svg1"
   width="3456.6667"
   height="6912.6665"
   viewBox="0 0 3456.6667 6912.6665"
   sodipodi:docname="tmp1qy5z6su.pdf"
   xmlns:inkscape="http://www.inkscape.org/namespaces/inkscape"
   xmlns:sodipodi="http://sodipodi.sourceforge.net/DTD/sodipodi-0.dtd"
   xmlns="http://www.w3.org/2000/svg"
   xmlns:svg="http://www.w3.org/2000/svg">
  <defs
     id="defs1" />
  <sodipodi:namedview
     id="namedview1"
     pagecolor="#ffffff"
     bordercolor="#000000"
     borderopacity="0.25"
     inkscape:showpageshadow="2"
     inkscape:pageopacity="0.0"
     inkscape:pagecheckerboard="0"
     inkscape:deskcolor="#d1d1d1">
    <inkscape:page
       x="0"
       y="0"
       inkscape:label="1"
       id="page1"
       width="3456.6667"
       height="6912.6665"
       margin="0"
       bleed="0" />
  </sodipodi:namedview>
  <g
     id="g1"
     inkscape:groupmode="layer"
     inkscape:label="1">
    <g
       id="group-R5">
      <path
         id="path2"
         d="M 1622.5,1.20313 C 1191.24,1.20313 784.602,170.398 477.496,477.5 170.383,784.602 1.25,1191.2 1.25,1622.5 v 48600 c 0,431.3 169.133,837.9 476.246,1145 307.106,307.1 713.744,476.3 1145.004,476.3 h 22680 c 431.3,0 837.9,-169.2 1145,-476.3 307.1,-307.1 476.3,-713.7 476.3,-1145 v -48600 c 0,-431.3 -169.2,-837.898 -476.3,-1145 C 25140.4,170.398 24733.8,1.20313 24302.5,1.20313 h -22680"
         style="fill:#ffffff;fill-opacity:1;fill-rule:nonzero;stroke:none"
         transform="matrix(0.13333333,0,0,-0.13333333,0,6912.6667)" />
      <path
         id="path3"
         d="m 24302.5,51845 h -22680 c -218.07,0 -430.02,-43.1 -629.992,-128 -193.031,-82 -366.61,-199.3 -515.903,-348.6 C 327.313,51219.1 210.031,51045.5 128.023,50852.5 43.0742,50652.5 0,50440.6 0,50222.5 v -48600 c 0,-218.1 43.0742,-430 128.023,-630 82.008,-193 199.29,-366.602 348.582,-515.898 C 625.898,327.301 799.477,210 992.508,128 1192.48,43.1016 1404.43,0 1622.5,0 h 22680 c 218.1,0 430,43.1016 630,128 193,82 366.6,199.301 515.9,348.602 149.3,149.296 266.6,322.898 348.6,515.898 84.9,200 128,411.9 128,630 v 48600 c 0,218.1 -43.1,430 -128,630 -82,193 -199.3,366.6 -348.6,515.9 -149.3,149.3 -322.9,266.6 -515.9,348.6 -200,84.9 -411.9,128 -630,128 z m 0,-2.5 c 891,0 1620,-729 1620,-1620 v -48600 c 0,-891 -729,-1620 -1620,-1620 h -22680 c -891,0 -1620,729 -1620,1620 v 48600 c 0,891 729,1620 1620,1620 h 22680"
         style="fill:#231f20;fill-opacity:1;fill-rule:nonzero;stroke:none"
         transform="matrix(0.13333333,0,0,-0.13333333,0,6912.6667)" />
      <path
         id="path4"
         d="m 1622.5,452.5 c -310.73,0 -604.05,122.203 -825.93,344.102 C 574.691,1018.5 452.5,1311.8 452.5,1622.5 v 48600 c 0,310.7 122.191,604.1 344.07,825.9 221.88,221.9 515.2,344.1 825.93,344.1 h 22680 c 310.7,0 604,-122.2 825.9,-344.1 221.9,-221.8 344.1,-515.2 344.1,-825.9 v -48600 c 0,-310.7 -122.2,-604 -344.1,-825.898 C 24906.5,574.703 24613.2,452.5 24302.5,452.5 h -22680"
         style="fill:#231f20;fill-opacity:1;fill-rule:nonzero;stroke:none"
         transform="matrix(0.13333333,0,0,-0.13333333,0,6912.6667)" />
      <path
         id="path5"
         d="m 1622.5,1082.5 c -144.52,0 -276.07,55.2 -380.45,159.6 -104.38,104.3 -159.55,235.9 -159.55,380.4 v 48600 c 0,144.5 55.17,276.1 159.55,380.4 104.38,104.4 235.93,159.6 380.45,159.6 h 22680 c 144.5,0 276.1,-55.2 380.4,-159.6 104.4,-104.3 159.6,-235.9 159.6,-380.4 v -48600 c 0,-144.5 -55.2,-276.1 -159.6,-380.4 -104.3,-104.4 -235.9,-159.6 -380.4,-159.6 h -22680"
         style="fill:#ffffff;fill-opacity:1;fill-rule:nonzero;stroke:none"
         transform="matrix(0.13333333,0,0,-0.13333333,0,6912.6667)" />
      <path
         id="path6"
         d="m 5699.37,43418 c -304.55,-184.1 -698.19,-292.1 -1095.61,-292.1 -745.71,0 -1309.44,276.4 -1796.5,845.1 l 624.22,491.9 c 319.66,-383.9 669.56,-553.5 1156.62,-553.5 548.07,0 943.88,257.6 943.88,568.6 0,439 -437.92,468.7 -1646.92,808.4 -608.02,170.6 -880.17,633.4 -880.17,1097.3 0,723 609.63,1213.9 1491.96,1213.9 639.32,0 1173.36,-214.4 1613.98,-675 l -578.85,-522.7 c -273.77,292.1 -624.21,430.3 -1035.13,430.3 -473.56,0 -699.81,-192.2 -699.81,-440.6 0,-479 588.03,-373.1 1662.59,-751.7 758.66,-267.8 848.83,-915.8 848.83,-1190.1 0,-445.5 -198.16,-784.1 -609.09,-1029.8"
         style="fill:#231f20;fill-opacity:1;fill-rule:nonzero;stroke:none"
         transform="matrix(0.13333333,0,0,-0.13333333,0,6912.6667)" />
      <path
         id="path7"
         d="m 7961.01,46749.2 v -1075.6 h 1305.12 c 378.52,0 636.09,212.2 636.09,530.2 0,333.8 -252.7,545.4 -637.17,545.4 z m 0,-1848.9 v -1697.8 h -788.36 v 4320 h 2113.46 c 910.39,0 1387.69,-692.8 1387.69,-1311.1 0,-574.5 -427.6,-1311.1 -1354.21,-1311.1 H 7961.01"
         style="fill:#231f20;fill-opacity:1;fill-rule:nonzero;stroke:none"
         transform="matrix(0.13333333,0,0,-0.13333333,0,6912.6667)" />
      <path
         id="path8"
         d="m 11408.4,47522.5 h 3163.8 v -773.3 h -2372.7 v -802.9 h 1292.7 v -788.4 h -1292.7 v -1182.1 h 2448.8 v -773.3 h -3239.9 v 4320"
         style="fill:#231f20;fill-opacity:1;fill-rule:nonzero;stroke:none"
         transform="matrix(0.13333333,0,0,-0.13333333,0,6912.6667)" />
      <path
         id="path9"
         d="m 15512.5,47522.5 h 3163.7 v -773.3 h -2372.7 v -802.9 h 1292.7 v -788.4 h -1292.7 v -1182.1 h 2448.8 v -773.3 h -3239.8 v 4320"
         style="fill:#231f20;fill-opacity:1;fill-rule:nonzero;stroke:none"
         transform="matrix(0.13333333,0,0,-0.13333333,0,6912.6667)" />
      <path
         id="path10"
         d="m 21008.6,46749.2 h -604.8 v -2773.4 h 598.9 c 692.2,0 1342.9,456.9 1342.9,1394.3 0,871.5 -546.5,1379.1 -1337,1379.1 z m -1392.1,-3546.7 v 4320 h 1427.7 c 1374.8,0 2073.5,-1042.7 2073.5,-2152.4 0,-1186.9 -770,-2167.6 -2068.1,-2167.6 h -1433.1"
         style="fill:#231f20;fill-opacity:1;fill-rule:nonzero;stroke:none"
         transform="matrix(0.13333333,0,0,-0.13333333,0,6912.6667)" />
      <path
         id="path11"
         d="m 5055.82,40322.5 h 775.94 v -3653.1 h 2463.91 v -666.9 H 5055.82 v 4320"
         style="fill:#231f20;fill-opacity:1;fill-rule:nonzero;stroke:none"
         transform="matrix(0.13333333,0,0,-0.13333333,0,6912.6667)" />
      <path
         id="path12"
         d="m 9030.25,40322.5 h 777.56 v -4320 h -777.56 v 4320"
         style="fill:#231f20;fill-opacity:1;fill-rule:nonzero;stroke:none"
         transform="matrix(0.13333333,0,0,-0.13333333,0,6912.6667)" />
      <path
         id="path13"
         d="m 14233,38639.9 -1278.1,-2637.4 -1263,2637.4 v -2637.4 h -760.8 v 4320 h 760.8 l 1263,-2561.7 1278.1,2561.7 h 760.9 v -4320 H 14233 v 2637.4"
         style="fill:#231f20;fill-opacity:1;fill-rule:nonzero;stroke:none"
         transform="matrix(0.13333333,0,0,-0.13333333,0,6912.6667)" />
      <path
         id="path14"
         d="m 16117.3,40322.5 h 777.6 v -4320 h -777.6 v 4320"
         style="fill:#231f20;fill-opacity:1;fill-rule:nonzero;stroke:none"
         transform="matrix(0.13333333,0,0,-0.13333333,0,6912.6667)" />
      <path
         id="path15"
         d="m 19627.8,36002.5 h -757.1 v 3561.8 h -1241.4 v 758.2 h 3239.9 v -758.2 h -1241.4 v -3561.8"
         style="fill:#231f20;fill-opacity:1;fill-rule:nonzero;stroke:none"
         transform="matrix(0.13333333,0,0,-0.13333333,0,6912.6667)" />
      <path
         id="path16"
         d="m 4407.1,28383.7 320.03,4738.8 h 6748.37 l -35.3,-1769 H 6431.85 l -107.07,-1451.6 c 816.43,175.2 1314.13,248.3 1954.2,248.3 2309.52,0 3977.72,-1556.1 3977.72,-3642.7 0,-2121.8 -1776.6,-3642.6 -4262.48,-3642.6 -1384.71,0 -2628.28,352.8 -3907.16,1131.5 l 958.84,1520.8 c 1135.23,-659 2189.82,-812.7 3022.66,-812.7 1558.58,0 2371.24,756 2371.24,1770.3 0,874.4 -487.59,1837 -2162.09,1837 -742.12,0 -1266.26,-81.9 -2060.04,-388 l -1810.57,459.9"
         style="fill:#231f20;fill-opacity:1;fill-rule:nonzero;stroke:none"
         transform="matrix(0.13333333,0,0,-0.13333333,0,6912.6667)" />
      <path
         id="path17"
         d="m 13988.4,28383.7 320,4738.8 h 6748.4 l -35.3,-1769 H 16013.1 L 15906,29901.9 c 816.5,175.2 1314.2,248.3 1954.2,248.3 2309.6,0 3977.7,-1556.1 3977.7,-3642.7 0,-2121.8 -1776.5,-3642.6 -4262.4,-3642.6 -1384.7,0 -2628.3,352.8 -3907.2,1131.5 l 958.9,1520.8 c 1135.2,-659 2189.8,-812.7 3022.6,-812.7 1558.6,0 2371.3,756 2371.3,1770.3 0,874.4 -487.6,1837 -2162.1,1837 -742.1,0 -1266.3,-81.9 -2060.1,-388 l -1810.5,459.9"
         style="fill:#231f20;fill-opacity:1;fill-rule:nonzero;stroke:none"
         transform="matrix(0.13333333,0,0,-0.13333333,0,6912.6667)" />
      <path
         id="path18"
         d="m 5037.35,18267.6 -804.56,-2425.1 -804.56,2425.1 v -2425.1 h -622.05 v 4320 h 622.05 l 804.56,-2425.1 804.56,2425.1 h 622.05 v -4320 h -622.05 v 2425.1"
         style="fill:#231f20;fill-opacity:1;fill-rule:nonzero;stroke:none"
         transform="matrix(0.13333333,0,0,-0.13333333,0,6912.6667)" />
      <path
         id="path19"
         d="m 6609.97,20162.5 h 604.78 v -4320 h -604.78 v 4320"
         style="fill:#231f20;fill-opacity:1;fill-rule:nonzero;stroke:none"
         transform="matrix(0.13333333,0,0,-0.13333333,0,6912.6667)" />
      <path
         id="path20"
         d="m 8785.05,18737.4 v -2894.9 h -619.89 v 4320 h 619.89 l 1179.84,-2592 v 2592 h 620.41 v -4320 h -468.7 l -1331.55,2894.9"
         style="fill:#231f20;fill-opacity:1;fill-rule:nonzero;stroke:none"
         transform="matrix(0.13333333,0,0,-0.13333333,0,6912.6667)" />
      <path
         id="path21"
         d="m 11535.9,20162.5 h 604.8 v -4320 h -604.8 v 4320"
         style="fill:#231f20;fill-opacity:1;fill-rule:nonzero;stroke:none"
         transform="matrix(0.13333333,0,0,-0.13333333,0,6912.6667)" />
      <path
         id="path22"
         d="m 15322.3,18267.6 -804.6,-2425.1 -804.6,2425.1 v -2425.1 h -622 v 4320 h 622 l 804.6,-2425.1 804.6,2425.1 h 622 v -4320 h -622 v 2425.1"
         style="fill:#231f20;fill-opacity:1;fill-rule:nonzero;stroke:none"
         transform="matrix(0.13333333,0,0,-0.13333333,0,6912.6667)" />
      <path
         id="path23"
         d="m 16894.9,17098 v 3064.5 h 619.9 v -3107.1 c 0,-406.7 237.6,-682.6 604.7,-682.6 332.7,0 575.1,272.7 575.1,682.6 v 3107.1 h 620.4 v -3073.7 c 0,-982.8 -759.2,-1321.9 -1195.5,-1321.9 -399,0 -1224.6,259.8 -1224.6,1331.1"
         style="fill:#231f20;fill-opacity:1;fill-rule:nonzero;stroke:none"
         transform="matrix(0.13333333,0,0,-0.13333333,0,6912.6667)" />
      <path
         id="path24"
         d="m 22496.8,18267.6 -804.6,-2425.1 -804.6,2425.1 v -2425.1 h -622 v 4320 h 622 l 804.6,-2425.1 804.6,2425.1 h 622 v -4320 h -622 v 2425.1"
         style="fill:#231f20;fill-opacity:1;fill-rule:nonzero;stroke:none"
         transform="matrix(0.13333333,0,0,-0.13333333,0,6912.6667)" />
      <path
         id="path25"
         d="m 9074.36,8355.5 v 1364.1 h 335.87 c 548.63,0 853.17,303.5 853.17,848.8 0,671.8 -545.37,1152.4 -1249.52,1152.4 -578.84,0 -1005.43,-273.3 -1309.99,-848.9 l -1279.74,484.9 c 455.73,1091.9 1432.02,1757.2 2559.49,1757.2 1462.26,0 2651.26,-1177.2 2651.26,-2637.4 0,-515.1 -122,-879.1 -488.1,-1424.5 639.4,-575.6 822.9,-1029.2 822.9,-1880.2 0,-1758.3 -1210.6,-3000.3 -2986.06,-3000.3 -1401.78,0 -2529.26,910.5 -2895.35,2304.7 l 1341.29,394.2 C 7643.42,6021.7 8221.2,5567 9044.12,5567 c 913.65,0 1554.08,641.5 1554.08,1515.2 0,356.4 -146.9,1273.3 -1139.38,1273.3 h -384.46"
         style="fill:#231f20;fill-opacity:1;fill-rule:nonzero;stroke:none"
         transform="matrix(0.13333333,0,0,-0.13333333,0,6912.6667)" />
      <path
         id="path26"
         d="m 16782.4,5565.9 c 930.9,0 1686.9,882.4 1686.9,3078 0,2195.6 -756,3078 -1686.9,3078 -931,0 -1687,-881.3 -1687,-3078 0,-2195.6 756,-3078 1687,-3078 z m 3054.2,3078 c 0,-310 65.9,-4471.2 -3069.4,-4471.2 -3135.2,0 -3069.3,4161.2 -3069.3,4471.2 0,309.9 -65.9,4470.1 3069.3,4470.1 3135.3,0 3069.4,-4160.2 3069.4,-4470.1"
         style="fill:#231f20;fill-opacity:1;fill-rule:nonzero;stroke:none"
         transform="matrix(0.13333333,0,0,-0.13333333,0,6912.6667)" />
    </g>
  </g>
</svg>
