<?xml version="1.0" encoding="UTF-8" standalone="no"?>
<!-- Created with Inkscape (http://www.inkscape.org/) -->

<svg
   version="1.1"
   id="svg1"
   width="2304.6667"
   height="2304.6667"
   viewBox="0 0 2304.6667 2304.6667"
   sodipodi:docname="tmps9t6rvc3.pdf"
   xmlns:inkscape="http://www.inkscape.org/namespaces/inkscape"
   xmlns:sodipodi="http://sodipodi.sourceforge.net/DTD/sodipodi-0.dtd"
   xmlns="http://www.w3.org/2000/svg"
   xmlns:svg="http://www.w3.org/2000/svg">
  <defs
     id="defs1" />
  <sodipodi:namedview
     id="namedview1"
     pagecolor="#ffffff"
     bordercolor="#000000"
     borderopacity="0.25"
     inkscape:showpageshadow="2"
     inkscape:pageopacity="0.0"
     inkscape:pagecheckerboard="0"
     inkscape:deskcolor="#d1d1d1">
    <inkscape:page
       x="0"
       y="0"
       inkscape:label="1"
       id="page1"
       width="2304.6667"
       height="2304.6667"
       margin="0"
       bleed="0" />
  </sodipodi:namedview>
  <g
     id="g1"
     inkscape:groupmode="layer"
     inkscape:label="1">
    <g
       id="group-R5">
      <path
         id="path2"
         d="M 1082.5,1.19922 C 486.293,1.19922 1.25,486.301 1.25,1082.5 v 15120 c 0,596.2 485.043,1081.3 1081.25,1081.3 h 15120 c 596.2,0 1081.3,-485.1 1081.3,-1081.3 V 1082.5 C 17283.8,486.301 16798.7,1.19922 16202.5,1.19922 h -15120"
         style="fill:#ffffff;fill-opacity:1;fill-rule:nonzero;stroke:none"
         transform="matrix(0.13333333,0,0,-0.13333333,0,2304.6667)" />
      <path
         id="path3"
         d="m 16202.5,17285 h -15120 c -287.953,0 -559.465,-112.9 -764.516,-318 C 112.93,16762 0,16490.5 0,16202.5 V 1082.5 C 0,794.5 112.93,523 317.984,318 523.035,112.902 794.547,0 1082.5,0 h 15120 c 288,0 559.5,112.902 764.5,318 205.1,205 318,476.5 318,764.5 v 15120 c 0,288 -112.9,559.5 -318,764.5 -205,205.1 -476.5,318 -764.5,318 z m 0,-2.5 c 594,0 1080,-486 1080,-1080 v -15120 c 0,-594 -486,-1080 -1080,-1080 h -15120 c -594,0 -1080,486 -1080,1080 v 15120 c 0,594 486,1080 1080,1080 h 15120"
         style="fill:#231f20;fill-opacity:1;fill-rule:nonzero;stroke:none"
         transform="matrix(0.13333333,0,0,-0.13333333,0,2304.6667)" />
      <path
         id="path4"
         d="m 1082.5,362.5 c -397.012,0 -720,323 -720,720 v 15120 c 0,397 322.988,720 720,720 h 15120 c 397,0 720,-323 720,-720 v -15120 c 0,-397 -323,-720 -720,-720 h -15120"
         style="fill:#231f20;fill-opacity:1;fill-rule:nonzero;stroke:none"
         transform="matrix(0.13333333,0,0,-0.13333333,0,2304.6667)" />
      <path
         id="path5"
         d="m 3347.18,13735.6 v -1493.1 h -409.24 v 2160 h 401.68 l 1212.62,-1508.2 v 1508.2 h 416.8 v -2160 H 4559.8 l -1212.62,1493.1"
         style="fill:#ffffff;fill-opacity:1;fill-rule:nonzero;stroke:none"
         transform="matrix(0.13333333,0,0,-0.13333333,0,2304.6667)" />
      <path
         id="path6"
         d="m 5876.23,12242.5 v 2160 h 407.09 v -2160 h -407.09"
         style="fill:#ffffff;fill-opacity:1;fill-rule:nonzero;stroke:none"
         transform="matrix(0.13333333,0,0,-0.13333333,0,2304.6667)" />
      <path
         id="path7"
         d="m 8168.7,14440 c 403.57,0 670.82,-178.5 890.02,-477.3 l -342.29,-235.2 c -152.26,212.2 -311.8,295.6 -555.29,295.6 -418.15,0 -684.59,-272.9 -684.59,-712.5 0,-409.6 251.05,-689.8 631.41,-689.8 239.99,0 453.78,117.4 555.29,386.3 h -486.99 v 417.7 h 920.52 v -242.4 c 0,-538.1 -433.53,-977.7 -988.82,-977.7 -530.45,0 -1042.28,387.7 -1042.28,1114 0,666.9 448.12,1121.3 1103.02,1121.3"
         style="fill:#ffffff;fill-opacity:1;fill-rule:nonzero;stroke:none"
         transform="matrix(0.13333333,0,0,-0.13333333,0,2304.6667)" />
      <path
         id="path8"
         d="m 11502.4,13182.4 h -1217.2 v -939.9 h -410.83 v 2160 h 410.83 V 13599 h 1217.2 v 803.5 h 403.1 v -2160 h -403.1 v 939.9"
         style="fill:#ffffff;fill-opacity:1;fill-rule:nonzero;stroke:none"
         transform="matrix(0.13333333,0,0,-0.13333333,0,2304.6667)" />
      <path
         id="path9"
         d="m 13641.7,12242.5 h -409.5 v 1750.7 h -743.5 v 409.3 h 1858.4 v -409.3 h -705.4 v -1750.7"
         style="fill:#ffffff;fill-opacity:1;fill-rule:nonzero;stroke:none"
         transform="matrix(0.13333333,0,0,-0.13333333,0,2304.6667)" />
      <path
         id="path10"
         d="M 3368.87,5509.6 H 6173.26 V 8389.61 Z M 7436.85,2882.5 H 6173.26 V 4347.7 H 1726.38 v 1161.9 l 4446.88,4572.9 H 7436.85 V 5509.6 h 1061.1 V 4347.7 H 7436.85 V 2882.5"
         style="fill:#ffffff;fill-opacity:1;fill-rule:nonzero;stroke:none"
         transform="matrix(0.13333333,0,0,-0.13333333,0,2304.6667)" />
      <path
         id="path11"
         d="m 9950.94,6697.6 228.56,3384.9 h 4820.4 l -25.2,-1263.61 h -3577.5 l -76.5,-1036.79 c 583.2,125.1 938.7,177.31 1395.9,177.31 1649.7,0 2841.3,-1111.51 2841.3,-2601.91 0,-1515.6 -1269,-2601.9 -3044.7,-2601.9 -989.1,0 -1877.4,252 -2790.87,808.2 l 684.87,1086.3 c 810.9,-470.7 1564.2,-580.5 2159.1,-580.5 1113.3,0 1693.8,540 1693.8,1264.5 0,624.6 -348.3,1312.2 -1544.4,1312.2 -530.1,0 -904.5,-58.5 -1471.5,-277.2 l -1293.26,328.5"
         style="fill:#ffffff;fill-opacity:1;fill-rule:nonzero;stroke:none"
         transform="matrix(0.13333333,0,0,-0.13333333,0,2304.6667)" />
    </g>
  </g>
</svg>
