<?xml version="1.0" standalone="no"?>
<svg width="3456px" height="2592px" viewBox="0 -1800 3456 2592 " xmlns="http://www.w3.org/2000/svg" xmlns:xlink="http://www.w3.org/1999/xlink">
<title>generated by pstoedit</title>
<!-- generated by pstoedit version:4.02 -->
<g xml:space='preserve'>
<clipPath id="clippath1"> 	<path d="
	M 0 -1800.5 
	L 0 792 
	L 3456.5 792 
	L 3456.5 -1800.5 
	Z 
	" style="clip-rule:nonzero"/>
</clipPath>
<g style="clip-path:url(#clippath1)"> 
<g fill="#ffffff" fill-rule="nonzero" stroke-width="0" stroke-linejoin="miter" stroke-linecap="butt" stroke-miterlimit="10" >
	<path d="
	M 3456.25 629.75 
	C 3456.25 719.219 3383.72 791.75 3294.25 791.75 
	L 162.25 791.75 
	C 72.7813 791.75 0.25 719.219 0.25 629.75 
	L 0.25 -1638.25 
	C 0.25 -1727.72 72.7813 -1800.25 162.25 -1800.25 
	L 3294.25 -1800.25 
	C 3383.72 -1800.25 3456.25 -1727.72 3456.25 -1638.25 
	Z 
	"/>
</g>
<g stroke="#7f7f7f" fill="none" stroke-width="0.5" stroke-linejoin="miter" stroke-linecap="butt" stroke-miterlimit="4" >
	<path d="
	M 3456.25 629.75 
	C 3456.25 719.219 3383.72 791.75 3294.25 791.75 
	L 162.25 791.75 
	C 72.7813 791.75 0.25 719.219 0.25 629.75 
	L 0.25 -1638.25 
	C 0.25 -1727.72 72.7813 -1800.25 162.25 -1800.25 
	L 3294.25 -1800.25 
	C 3383.72 -1800.25 3456.25 -1727.72 3456.25 -1638.25 
	Z 
	"/>
</g>
<g fill="#7f7f7f" fill-rule="nonzero" stroke-width="0" stroke-linejoin="miter" stroke-linecap="butt" stroke-miterlimit="4" >
	<path d="
	M 162.25 746.75 
	C 97.7344 746.75 45.25 694.262 45.25 629.75 
	L 45.25 -1638.25 
	C 45.25 -1702.76 97.7344 -1755.25 162.25 -1755.25 
	L 3294.25 -1755.25 
	C 3358.76 -1755.25 3411.25 -1702.76 3411.25 -1638.25 
	L 3411.25 629.75 
	C 3411.25 694.262 3358.76 746.75 3294.25 746.75 
	Z 
	"/>
</g>
<g fill="#ffffff" fill-rule="nonzero" stroke-width="0" stroke-linejoin="miter" stroke-linecap="butt" stroke-miterlimit="4" >
	<path d="
	M 162.25 683.75 
	C 132.477 683.75 108.25 659.52 108.25 629.75 
	L 108.25 -1638.25 
	C 108.25 -1668.03 132.477 -1692.25 162.25 -1692.25 
	L 3294.25 -1692.25 
	C 3324.02 -1692.25 3348.25 -1668.02 3348.25 -1638.25 
	L 3348.25 629.75 
	C 3348.25 659.52 3324.02 683.75 3294.25 683.75 
	Z 
	"/>
</g>
<g fill="#7f7f7f" fill-rule="nonzero" stroke-width="0" stroke-linejoin="miter" stroke-linecap="butt" stroke-miterlimit="4" >
	<path d="
	M 1707.88 -720.25 
	L 1487.57 -1110.31 
	L 1487.57 -720.25 
	L 1396.62 -720.25 
	L 1396.62 -1296.25 
	L 1487.57 -1296.25 
	L 1697.78 -928.41 
	L 1697.78 -1296.25 
	L 1788.73 -1296.25 
	L 1788.73 -720.25 
	Z 
	"/>
</g>
<g fill="#7f7f7f" fill-rule="nonzero" stroke-width="0" stroke-linejoin="miter" stroke-linecap="butt" stroke-miterlimit="4" >
	<path d="
	M 1166.22 -720.25 
	L 1166.22 -1296.25 
	L 1258.38 -1296.25 
	L 1258.38 -720.25 
	Z 
	"/>
</g>
<g fill="#7f7f7f" fill-rule="nonzero" stroke-width="0" stroke-linejoin="miter" stroke-linecap="butt" stroke-miterlimit="4" >
	<path d="
	M 2677.35 -755.31 
	C 2645.02 -727.02 2600.55 -710.85 2552.04 -710.85 
	C 2453.01 -710.85 2380.24 -769.46 2341.84 -856.36 
	L 2428.75 -888.7 
	C 2453.01 -834.14 2497.47 -803.82 2552.04 -803.82 
	C 2604.59 -803.82 2640.97 -840.2 2640.97 -888.7 
	C 2640.97 -965.5 2552.04 -977.63 2477.26 -1007.94 
	C 2442.9 -1022.09 2366.09 -1056.45 2366.09 -1151.44 
	C 2366.09 -1264.62 2442.9 -1307.06 2545.98 -1307.06 
	C 2626.82 -1307.06 2681.4 -1260.57 2709.69 -1189.84 
	L 2628.85 -1165.59 
	C 2628.85 -1165.59 2608.63 -1214.09 2543.96 -1216.11 
	C 2501.51 -1218.13 2450.98 -1201.97 2455.03 -1149.41 
	C 2463.11 -1042.3 2733.95 -1113.04 2733.95 -886.68 
	C 2733.95 -834.14 2713.74 -787.65 2677.35 -755.31 
	Z 
	"/>
</g>
<g fill="#7f7f7f" fill-rule="nonzero" stroke-width="0" stroke-linejoin="miter" stroke-linecap="butt" stroke-miterlimit="4" >
	<path d="
	M 1926.97 -720.25 
	L 1926.97 -1296.25 
	L 2266.07 -1296.25 
	L 2266.07 -1205.3 
	L 2017.8 -1205.3 
	L 2017.8 -1063.83 
	L 2185.33 -1063.83 
	L 2185.33 -970.86 
	L 2017.8 -970.86 
	L 2017.8 -813.22 
	L 2284.24 -813.22 
	L 2284.24 -720.25 
	Z 
	"/>
</g>
<g fill="#7f7f7f" fill-rule="nonzero" stroke-width="0" stroke-linejoin="miter" stroke-linecap="butt" stroke-miterlimit="4" >
	<path d="
	M 813.387 -1205.3 
	L 813.387 -1063.83 
	L 980.91 -1063.83 
	L 980.91 -970.86 
	L 813.387 -970.86 
	L 813.387 -720.25 
	L 722.555 -720.25 
	L 722.555 -1296.25 
	L 1079.82 -1296.25 
	L 1079.82 -1205.3 
	Z 
	"/>
</g>
<g fill="#7f7f7f" fill-rule="nonzero" stroke-width="0" stroke-linejoin="miter" stroke-linecap="butt" stroke-miterlimit="4" >
	<path d="
	M 1120.31 -160.219 
	C 1102.08 -190.531 1079.79 -202.66 1045.35 -204.68 
	C 1000.78 -206.699 972.418 -184.469 952.156 -133.941 
	C 937.977 -99.578 929.871 -47.039 929.871 1.46899 
	C 929.871 62.102 942.023 124.75 964.313 161.129 
	C 982.551 191.449 1006.86 205.602 1043.33 205.602 
	C 1085.87 205.602 1112.21 183.359 1132.47 132.84 
	C 1144.63 102.52 1154.76 45.93 1154.76 1.46899 
	C 1154.76 -63.211 1142.6 -121.809 1120.31 -160.219 
	Z 
	M 1183.12 233.891 
	C 1150.7 278.352 1104.1 298.559 1043.33 298.559 
	C 962.285 298.559 911.637 266.219 877.191 195.488 
	C 852.887 146.98 836.68 70.191 836.68 1.46899 
	C 836.68 -93.52 860.984 -178.398 899.48 -232.97 
	C 933.926 -277.44 980.52 -297.65 1047.38 -297.65 
	C 1120.31 -297.65 1170.96 -265.31 1207.43 -194.57 
	C 1231.74 -144.051 1245.92 -71.289 1245.92 1.46899 
	C 1245.92 92.422 1223.64 183.359 1183.12 233.891 
	Z 
	"/>
</g>
<g fill="#7f7f7f" fill-rule="nonzero" stroke-width="0" stroke-linejoin="miter" stroke-linecap="butt" stroke-miterlimit="4" >
	<path d="
	M 2320.45 287.75 
	L 2320.45 -288.26 
	L 2411.28 -288.26 
	L 2411.28 202.871 
	L 2677.71 202.871 
	L 2677.71 287.75 
	Z 
	"/>
</g>
<g fill="#7f7f7f" fill-rule="nonzero" stroke-width="0" stroke-linejoin="miter" stroke-linecap="butt" stroke-miterlimit="4" >
	<path d="
	M 1713.13 200.84 
	C 1682.81 257.43 1614.1 297.859 1543.36 297.859 
	C 1472.61 297.859 1403.89 257.43 1373.57 200.84 
	C 1357.41 166.488 1347.3 126.07 1347.3 81.602 
	L 1347.3 -288.25 
	L 1438.25 -288.25 
	L 1438.25 81.602 
	C 1438.25 156.379 1480.7 204.891 1543.36 204.891 
	C 1606.01 204.891 1648.46 156.379 1648.46 81.602 
	L 1648.46 -288.25 
	L 1739.41 -288.25 
	L 1739.41 81.602 
	C 1739.41 126.07 1729.3 166.488 1713.13 200.84 
	Z 
	"/>
</g>
<g fill="#7f7f7f" fill-rule="nonzero" stroke-width="0" stroke-linejoin="miter" stroke-linecap="butt" stroke-miterlimit="4" >
	<path d="
	M 605.051 -173.051 
	C 590.906 -187.199 570.695 -197.309 546.438 -197.309 
	L 443.355 -197.309 
	L 443.355 194.781 
	L 534.313 194.781 
	C 564.633 194.781 582.82 188.719 598.988 172.551 
	C 633.352 138.191 651.539 75.539 651.539 -1.27002 
	C 651.539 -78.059 633.352 -142.738 605.051 -173.051 
	Z 
	M 643.457 255.41 
	C 621.223 275.629 590.906 285.73 560.59 287.75 
	C 554.523 287.75 542.395 287.75 528.25 287.75 
	L 352.402 287.75 
	L 352.402 -288.25 
	L 538.352 -288.25 
	C 596.969 -288.25 619.203 -282.19 649.52 -257.94 
	C 710.156 -205.391 744.516 -114.441 744.516 -1.27002 
	C 744.516 113.941 708.133 204.891 643.457 255.41 
	Z 
	"/>
</g>
<g fill="#7f7f7f" fill-rule="nonzero" stroke-width="0" stroke-linejoin="miter" stroke-linecap="butt" stroke-miterlimit="4" >
	<path d="
	M 2746.83 287.75 
	L 2746.83 -288.25 
	L 3085.93 -288.25 
	L 3085.93 -197.301 
	L 2837.66 -197.301 
	L 2837.66 -55.828 
	L 3005.19 -55.828 
	L 3005.19 37.141 
	L 2837.66 37.141 
	L 2837.66 194.781 
	L 3104.1 194.781 
	L 3104.1 287.75 
	Z 
	"/>
</g>
<g fill="#7f7f7f" fill-rule="nonzero" stroke-width="0" stroke-linejoin="miter" stroke-linecap="butt" stroke-miterlimit="4" >
	<path d="
	M 2094.56 41.18 
	C 2082.44 37.141 2076.38 37.141 2056.16 37.141 
	L 1940.96 37.141 
	L 1940.96 194.781 
	L 2078.4 194.781 
	C 2124.88 194.781 2149.14 172.551 2149.14 128.09 
	C 2149.14 89.691 2126.9 53.309 2094.56 41.18 
	Z 
	M 2074.35 -197.309 
	L 1940.96 -197.309 
	L 1940.96 -55.828 
	L 2050.1 -55.828 
	C 2076.38 -55.828 2088.5 -59.871 2104.67 -72 
	C 2124.88 -88.172 2137.01 -112.422 2137.01 -138.699 
	C 2137.01 -177.102 2114.78 -197.309 2074.35 -197.309 
	Z 
	M 2149.14 273.602 
	C 2128.93 281.691 2094.56 287.75 2068.29 287.75 
	L 1850 287.75 
	L 1850 -288.25 
	L 2068.29 -288.25 
	C 2159.24 -288.25 2227.96 -225.6 2227.96 -142.738 
	C 2227.96 -86.148 2201.69 -43.699 2147.12 -13.391 
	C 2207.75 14.91 2242.11 63.41 2242.11 126.07 
	C 2242.11 188.719 2203.71 251.371 2149.14 273.602 
	Z 
	"/>
</g>
</g >
</g>
</svg>
