<?xml version="1.0" encoding="UTF-8" standalone="no"?>
<!-- Created with Inkscape (http://www.inkscape.org/) -->

<svg
   version="1.1"
   id="svg1"
   width="4608.6665"
   height="3456.6667"
   viewBox="0 0 4608.6665 3456.6667"
   sodipodi:docname="tmpfq4o8stb.pdf"
   xmlns:inkscape="http://www.inkscape.org/namespaces/inkscape"
   xmlns:sodipodi="http://sodipodi.sourceforge.net/DTD/sodipodi-0.dtd"
   xmlns="http://www.w3.org/2000/svg"
   xmlns:svg="http://www.w3.org/2000/svg">
  <defs
     id="defs1" />
  <sodipodi:namedview
     id="namedview1"
     pagecolor="#ffffff"
     bordercolor="#000000"
     borderopacity="0.25"
     inkscape:showpageshadow="2"
     inkscape:pageopacity="0.0"
     inkscape:pagecheckerboard="0"
     inkscape:deskcolor="#d1d1d1">
    <inkscape:page
       x="0"
       y="0"
       inkscape:label="1"
       id="page1"
       width="4608.6665"
       height="3456.6667"
       margin="0"
       bleed="0" />
  </sodipodi:namedview>
  <g
     id="g1"
     inkscape:groupmode="layer"
     inkscape:label="1">
    <g
       id="group-R5">
      <path
         id="path2"
         d="M 1622.5,1.20313 C 728.539,1.20313 1.25,728.5 1.25,1622.5 v 22680 c 0,894 727.289,1621.3 1621.26,1621.3 H 32942.5 c 893.9,0 1621.2,-727.3 1621.2,-1621.3 l 0.1,-22680 C 34563.7,728.5 33836.4,1.20313 32942.5,1.20313 h -31320"
         style="fill:#ffffff;fill-opacity:1;fill-rule:nonzero;stroke:none"
         transform="matrix(0.13333333,0,0,-0.13333333,0,3456.6667)" />
      <path
         id="path3"
         d="M 32942.5,25925 H 1622.51 c -433.39,0 -840.838,-168.8 -1147.287,-475.2 C 168.773,25143.3 0,24735.9 0,24302.5 V 1622.5 C 0,1189.1 168.77,781.699 475.223,475.199 781.672,168.801 1189.12,0 1622.5,0 h 31320 c 433.4,0 840.8,168.801 1147.3,475.199 306.4,306.5 475.2,713.901 475.2,1147.301 v 22680 c 0,433.4 -168.8,840.8 -475.2,1147.3 -306.5,306.4 -713.9,475.2 -1147.3,475.2 z m 0,-2.5 c 894.7,0 1620,-725.3 1620,-1620 v -22680 c 0,-894.699 -725.3,-1620 -1620,-1620 H 1622.5 C 727.805,2.5 2.5,727.801 2.5,1622.5 v 22680 c 0,894.7 725.305,1620 1620.01,1620 H 32942.5"
         style="fill:#231f20;fill-opacity:1;fill-rule:nonzero;stroke:none"
         transform="matrix(0.13333333,0,0,-0.13333333,0,3456.6667)" />
      <path
         id="path4"
         d="m 33482.5,1622.5 c 0,-297.7 -242.3,-540 -540,-540 H 1622.51 c -297.75,0 -540,242.3 -540,540 v 22680 c 0,297.8 242.25,540 540,540 H 32942.5 c 297.7,0 540,-242.3 540,-540 z m -540,23850 H 1622.51 c -645.139,0 -1169.998,-524.9 -1169.998,-1170 v -22680 c 0,-645.098 524.859,-1170 1169.998,-1170 H 32942.5 c 645.1,0 1170,524.902 1170,1170 v 22680 c 0,645.1 -524.9,1170 -1170,1170"
         style="fill:#231f20;fill-opacity:1;fill-rule:nonzero;stroke:none"
         transform="matrix(0.13333333,0,0,-0.13333333,0,3456.6667)" />
      <path
         id="path5"
         d="m 10382.7,8478.3 h 1675.4 V 7548.7 H 10382.7 V 5042.4 h -908.6 v 5760 h 3572.5 V 9893.1 H 10382.7 V 8478.3"
         style="fill:#231f20;fill-opacity:1;fill-rule:nonzero;stroke:none"
         transform="matrix(0.13333333,0,0,-0.13333333,0,3456.6667)" />
      <path
         id="path6"
         d="m 13910.8,10802.4 h 921.6 v -5760 h -921.6 v 5760"
         style="fill:#231f20;fill-opacity:1;fill-rule:nonzero;stroke:none"
         transform="matrix(0.13333333,0,0,-0.13333333,0,3456.6667)" />
      <path
         id="path7"
         d="M 17123.4,8942.7 V 5042.4 h -908.6 v 5760 h 908.6 l 2102.3,-3678.5 v 3678.5 h 910.1 v -5760 h -808.6 l -2203.8,3900.3"
         style="fill:#231f20;fill-opacity:1;fill-rule:nonzero;stroke:none"
         transform="matrix(0.13333333,0,0,-0.13333333,0,3456.6667)" />
      <path
         id="path8"
         d="m 21518.4,10802.4 h 3391.1 V 9893.1 H 22427 V 8478.3 h 1675.4 V 7548.7 H 22427 V 5971.9 h 2663.9 v -929.5 h -3572.5 v 5760"
         style="fill:#231f20;fill-opacity:1;fill-rule:nonzero;stroke:none"
         transform="matrix(0.13333333,0,0,-0.13333333,0,3456.6667)" />
      <path
         id="path9"
         d="m 14546.9,19791 h -519.8 v 727.9 h 59.7 c 239.8,0 500.4,141.1 660.2,363.6 h 720 v -5760 h -920.1 V 19791"
         style="fill:#231f20;fill-opacity:1;fill-rule:nonzero;stroke:none"
         transform="matrix(0.13333333,0,0,-0.13333333,0,3456.6667)" />
      <path
         id="path10"
         d="m 16734.3,15345 444.2,808.5 c 242.7,-121.6 666.7,-202.3 1091.5,-202.3 829.4,0 1475.2,547.9 1475.2,1293.1 0,566 -458.6,1010.9 -1031,1010.9 -403.9,0 -586,-120.9 -929.5,-606.2 l -909.3,262.8 142.6,2970.7 h 3314 v -909.4 h -2425.6 l -59.7,-949.6 c 424.7,120.9 606.2,161.2 889.1,161.2 1053.3,0 1919.4,-874.8 1919.4,-1939.6 0,-1273.7 -1049.7,-2223.4 -2506.2,-2223.4 -505.4,0 -1010.8,121 -1414.7,323.3"
         style="fill:#231f20;fill-opacity:1;fill-rule:nonzero;stroke:none"
         transform="matrix(0.13333333,0,0,-0.13333333,0,3456.6667)" />
      <path
         id="path11"
         d="m 23863.6,15950.5 c 620.7,0 1124.7,588.3 1124.7,2052 0,1463.8 -504,2052 -1124.7,2052 -620.6,0 -1124.6,-587.5 -1124.6,-2052 0,-1463.7 504,-2052 1124.6,-2052 z m 2036.2,2052 c 0,-206.6 43.9,-2980.8 -2046.2,-2980.8 -2090.2,0 -2046.3,2774.2 -2046.3,2980.8 0,206.6 -43.9,2980.1 2046.3,2980.1 2090.1,0 2046.2,-2773.5 2046.2,-2980.1"
         style="fill:#231f20;fill-opacity:1;fill-rule:nonzero;stroke:none"
         transform="matrix(0.13333333,0,0,-0.13333333,0,3456.6667)" />
      <path
         id="path12"
         d="m 12020.3,15455.9 c -202.1,-181.9 -586.1,-363.8 -889.3,-444.6 v -727.6 h -909.5 c 0,0 -20.2,788.2 0,808.4 -707.46,161.7 -1253.19,666.9 -1556.37,1374.3 l 869.12,323.4 c 242.55,-545.7 687.25,-848.9 1232.95,-848.9 525.5,0 889.3,363.8 889.3,848.9 0,768 -889.3,889.3 -1637.2,1192.4 -343.56,141.5 -1111.62,485.1 -1111.62,1435 0,929.7 525.51,1394.5 1313.82,1515.8 v 788.2 H 11131 V 20933 c 586.1,-141.5 990.4,-545.7 1212.7,-1131.8 l -808.4,-242.5 c 0,0 -202.2,485 -849,505.2 -424.4,20.2 -929.71,-141.5 -889.29,-667 80.85,-1071.1 2789.29,-363.7 2789.29,-2627.3 0,-525.5 -202.2,-990.4 -566,-1313.7"
         style="fill:#100f0d;fill-opacity:1;fill-rule:nonzero;stroke:none"
         transform="matrix(0.13333333,0,0,-0.13333333,0,3456.6667)" />
    </g>
  </g>
</svg>
