<?xml version="1.0" encoding="UTF-8" standalone="no"?>
<!-- Created with Inkscape (http://www.inkscape.org/) -->

<svg
   version="1.1"
   id="svg1"
   width="3456.6667"
   height="2304.6667"
   viewBox="0 0 3456.6667 2304.6667"
   sodipodi:docname="tmph0t50p5h.pdf"
   xmlns:inkscape="http://www.inkscape.org/namespaces/inkscape"
   xmlns:sodipodi="http://sodipodi.sourceforge.net/DTD/sodipodi-0.dtd"
   xmlns="http://www.w3.org/2000/svg"
   xmlns:svg="http://www.w3.org/2000/svg">
  <defs
     id="defs1" />
  <sodipodi:namedview
     id="namedview1"
     pagecolor="#ffffff"
     bordercolor="#000000"
     borderopacity="0.25"
     inkscape:showpageshadow="2"
     inkscape:pageopacity="0.0"
     inkscape:pagecheckerboard="0"
     inkscape:deskcolor="#d1d1d1">
    <inkscape:page
       x="0"
       y="0"
       inkscape:label="1"
       id="page1"
       width="3456.6667"
       height="2304.6667"
       margin="0"
       bleed="0" />
  </sodipodi:namedview>
  <g
     id="g1"
     inkscape:groupmode="layer"
     inkscape:label="1">
    <g
       id="group-R5">
      <path
         id="path2"
         d="M 25922.5,1082.5 C 25922.5,486 25439,2.5 24842.5,2.5 H 1082.5 C 486.031,2.5 2.5,486 2.5,1082.5 v 15120 c 0,596.5 483.531,1080 1080,1080 h 23760 c 596.5,0 1080,-483.5 1080,-1080 v -15120"
         style="fill:#ffffff;fill-opacity:1;fill-rule:nonzero;stroke:none"
         transform="matrix(0.13333333,0,0,-0.13333333,0,2304.6667)" />
      <path
         id="path3"
         d="M 25922.5,1082.5 C 25922.5,486 25439,2.5 24842.5,2.5 H 1082.5 C 486.031,2.5 2.5,486 2.5,1082.5 v 15120 c 0,596.5 483.531,1080 1080,1080 h 23760 c 596.5,0 1080,-483.5 1080,-1080 z"
         style="fill:none;stroke:#231f20;stroke-width:5;stroke-linecap:butt;stroke-linejoin:miter;stroke-miterlimit:4;stroke-dasharray:none;stroke-opacity:1"
         transform="matrix(0.13333333,0,0,-0.13333333,0,2304.6667)" />
      <path
         id="path4"
         d="m 1082.5,272.5 c -446.637,0 -810,363.402 -810,810 v 15120 c 0,446.6 363.363,810 810,810 h 23760 c 446.6,0 810,-363.4 810,-810 v -15120 c 0,-446.598 -363.4,-810 -810,-810 h -23760"
         style="fill:#231f20;fill-opacity:1;fill-rule:nonzero;stroke:none"
         transform="matrix(0.13333333,0,0,-0.13333333,0,2304.6667)" />
      <path
         id="path5"
         d="m 1082.5,722.5 c -198.508,0 -360,161.5 -360,360 v 15120 c 0,198.5 161.492,360 360,360 h 23760 c 198.5,0 360,-161.5 360,-360 v -15120 c 0,-198.5 -161.5,-360 -360,-360 h -23760"
         style="fill:#ffffff;fill-opacity:1;fill-rule:nonzero;stroke:none"
         transform="matrix(0.13333333,0,0,-0.13333333,0,2304.6667)" />
      <path
         id="path6"
         d="M 12809.8,9992.48 11157.4,12918 V 9992.48 h -682.1 v 4320.02 h 682.1 l 1576.5,-2758.7 v 2758.7 h 682.2 V 9992.48 h -606.3"
         style="fill:#231f20;fill-opacity:1;fill-rule:nonzero;stroke:none"
         transform="matrix(0.13333333,0,0,-0.13333333,0,2304.6667)" />
      <path
         id="path7"
         d="m 8747.27,9992.48 v 4320.02 h 691.2 V 9992.48 h -691.2"
         style="fill:#231f20;fill-opacity:1;fill-rule:nonzero;stroke:none"
         transform="matrix(0.13333333,0,0,-0.13333333,0,2304.6667)" />
      <path
         id="path8"
         d="m 20080.8,10255.5 c -242.5,-212.2 -576.1,-333.51 -939.9,-333.51 -742.7,0 -1288.5,439.61 -1576.5,1091.41 l 651.8,242.5 c 182,-409.3 515.4,-636.6 924.7,-636.6 394.2,0 667,272.8 667,636.6 0,576 -667,666.9 -1227.9,894.3 -257.6,106.1 -833.7,363.8 -833.7,1076.2 0,848.9 576.1,1167.2 1349.2,1167.2 606.3,0 1015.6,-348.7 1227.8,-879.2 l -606.3,-181.9 c 0,0 -151.6,363.8 -636.7,379 -318.4,15.1 -697.3,-106.1 -667,-500.2 60.7,-803.4 2091.9,-272.9 2091.9,-1970.6 0,-394.1 -151.6,-742.7 -424.4,-985.2"
         style="fill:#231f20;fill-opacity:1;fill-rule:nonzero;stroke:none"
         transform="matrix(0.13333333,0,0,-0.13333333,0,2304.6667)" />
      <path
         id="path9"
         d="m 14452.9,9992.48 v 4320.02 h 2543.2 v -682.1 h -1862 v -1061.1 h 1256.5 v -697.2 h -1256.5 v -1182.3 h 1998.3 v -697.32 h -2679.5"
         style="fill:#231f20;fill-opacity:1;fill-rule:nonzero;stroke:none"
         transform="matrix(0.13333333,0,0,-0.13333333,0,2304.6667)" />
      <path
         id="path10"
         d="m 6101.02,13630.4 v -1061.1 h 1256.45 v -697.2 H 6101.02 V 9992.48 h -681.24 v 4320.02 h 2679.49 v -682.1 H 6101.02"
         style="fill:#231f20;fill-opacity:1;fill-rule:nonzero;stroke:none"
         transform="matrix(0.13333333,0,0,-0.13333333,0,2304.6667)" />
      <path
         id="path11"
         d="m 7018.7,2972.5 v 4319.99 h 691.2 V 2972.5 h -691.2"
         style="fill:#231f20;fill-opacity:1;fill-rule:nonzero;stroke:none"
         transform="matrix(0.13333333,0,0,-0.13333333,0,2304.6667)" />
      <path
         id="path12"
         d="m 21837.9,6534.6 c -106.1,60.6 -166.7,75.8 -394.1,75.8 h -818.6 V 5549.3 h 818.6 c 212.2,0 288,15.2 394.1,75.8 166.8,91 272.9,272.9 272.9,454.7 0,181.9 -106.1,363.9 -272.9,454.8 z m 303.2,-3562.1 -697.3,1879.6 h -818.6 V 2972.5 h -682.1 V 7292.49 H 21368 c 333.5,0 560.9,-30.29 773.1,-136.39 379,-181.9 651.8,-636.7 651.8,-1076.3 0,-454.7 -272.8,-909.4 -667,-1091.3 l 758,-2016 h -742.8"
         style="fill:#231f20;fill-opacity:1;fill-rule:nonzero;stroke:none"
         transform="matrix(0.13333333,0,0,-0.13333333,0,2304.6667)" />
      <path
         id="path13"
         d="M 5299.79,2972.5 V 4852.1 H 3723.23 V 2972.5 h -682.15 v 4319.99 h 682.15 V 5549.4 h 1576.56 v 1743.09 h 682.14 V 2972.5 h -682.14"
         style="fill:#231f20;fill-opacity:1;fill-rule:nonzero;stroke:none"
         transform="matrix(0.13333333,0,0,-0.13333333,0,2304.6667)" />
      <path
         id="path14"
         d="M 14810.2,2972.5 V 4852.1 H 13233.7 V 2972.5 h -682.1 v 4319.99 h 682.1 V 5549.4 h 1576.5 v 1743.09 h 682.2 V 2972.5 h -682.2"
         style="fill:#231f20;fill-opacity:1;fill-rule:nonzero;stroke:none"
         transform="matrix(0.13333333,0,0,-0.13333333,0,2304.6667)" />
      <path
         id="path15"
         d="m 16529.2,2972.5 v 4319.99 h 2543.2 V 6610.4 h -1862 V 5549.3 h 1256.5 V 4852.1 H 17210.4 V 3669.8 h 1998.2 v -697.3 h -2679.4"
         style="fill:#231f20;fill-opacity:1;fill-rule:nonzero;stroke:none"
         transform="matrix(0.13333333,0,0,-0.13333333,0,2304.6667)" />
      <path
         id="path16"
         d="m 10236.8,2896.7 c -651.79,0 -1030.77,242.5 -1288.47,788.2 -181.9,379 -288.02,909.5 -288.02,1440 0,697.3 197.05,1379.4 485.07,1758.3 257.73,318.4 621.53,485.08 1106.62,485.08 667,0 1061.1,-272.88 1349.1,-954.98 l -651.8,-257.6 c -181.9,378.9 -363.8,515.3 -697.3,515.3 -348.65,0 -576.05,-151.6 -727.63,-530.5 -106.12,-257.7 -166.76,-651.8 -166.76,-1015.6 0,-454.7 75.79,-909.5 212.22,-1182.3 136.44,-242.5 333.52,-348.7 591.17,-348.7 439.6,0 758,272.9 758,667 v 181.9 h -788.3 v 682.1 h 1470.4 v -864 c 0,-788.2 -576,-1364.2 -1364.3,-1364.2"
         style="fill:#231f20;fill-opacity:1;fill-rule:nonzero;stroke:none"
         transform="matrix(0.13333333,0,0,-0.13333333,0,2304.6667)" />
    </g>
  </g>
</svg>
