<?xml version="1.0" standalone="no"?>
<svg width="2592px" height="1728px" viewBox="0 -936 2592 1728 " xmlns="http://www.w3.org/2000/svg" xmlns:xlink="http://www.w3.org/1999/xlink">
<title>generated by pstoedit</title>
<!-- generated by pstoedit version:4.02 -->
<g xml:space='preserve'>
<clipPath id="clippath1"> 	<path d="
	M 0 -936.5 
	L 0 792 
	L 2592.5 792 
	L 2592.5 -936.5 
	Z 
	" style="clip-rule:nonzero"/>
</clipPath>
<g style="clip-path:url(#clippath1)"> 
<g fill="#ffffff" fill-rule="nonzero" stroke-width="0" stroke-linejoin="miter" stroke-linecap="butt" stroke-miterlimit="10" >
	<path d="
	M 2592.25 683.75 
	C 2592.25 743.398 2543.9 791.75 2484.25 791.75 
	L 108.25 791.75 
	C 48.6016 791.75 0.25 743.398 0.25 683.75 
	L 0.25 -828.25 
	C 0.25 -887.89 48.6016 -936.25 108.25 -936.25 
	L 2484.25 -936.25 
	C 2543.9 -936.25 2592.25 -887.89 2592.25 -828.25 
	Z 
	"/>
</g>
<g stroke="#7f7f7f" fill="none" stroke-width="0.5" stroke-linejoin="miter" stroke-linecap="butt" stroke-miterlimit="4" >
	<path d="
	M 2592.25 683.75 
	C 2592.25 743.398 2543.9 791.75 2484.25 791.75 
	L 108.25 791.75 
	C 48.6016 791.75 0.25 743.398 0.25 683.75 
	L 0.25 -828.25 
	C 0.25 -887.89 48.6016 -936.25 108.25 -936.25 
	L 2484.25 -936.25 
	C 2543.9 -936.25 2592.25 -887.89 2592.25 -828.25 
	Z 
	"/>
</g>
<g fill="#7f7f7f" fill-rule="nonzero" stroke-width="0" stroke-linejoin="miter" stroke-linecap="butt" stroke-miterlimit="4" >
	<path d="
	M 108.25 764.75 
	C 63.5859 764.75 27.25 728.41 27.25 683.75 
	L 27.25 -828.25 
	C 27.25 -872.91 63.5859 -909.25 108.25 -909.25 
	L 2484.25 -909.25 
	C 2528.91 -909.25 2565.25 -872.91 2565.25 -828.25 
	L 2565.25 683.75 
	C 2565.25 728.41 2528.91 764.75 2484.25 764.75 
	Z 
	"/>
</g>
<g fill="#ffffff" fill-rule="nonzero" stroke-width="0" stroke-linejoin="miter" stroke-linecap="butt" stroke-miterlimit="4" >
	<path d="
	M 108.25 719.75 
	C 88.3984 719.75 72.25 703.602 72.25 683.75 
	L 72.25 -828.25 
	C 72.25 -848.1 88.3984 -864.25 108.25 -864.25 
	L 2484.25 -864.25 
	C 2504.1 -864.25 2520.25 -848.1 2520.25 -828.25 
	L 2520.25 683.75 
	C 2520.25 703.602 2504.1 719.75 2484.25 719.75 
	Z 
	"/>
</g>
<g fill="#7f7f7f" fill-rule="nonzero" stroke-width="0" stroke-linejoin="miter" stroke-linecap="butt" stroke-miterlimit="4" >
	<path d="
	M 1280.98 -207.246 
	L 1115.74 -499.8 
	L 1115.74 -207.246 
	L 1047.53 -207.246 
	L 1047.53 -639.25 
	L 1115.74 -639.25 
	L 1273.39 -363.38 
	L 1273.39 -639.25 
	L 1341.61 -639.25 
	L 1341.61 -207.246 
	Z 
	"/>
</g>
<g fill="#7f7f7f" fill-rule="nonzero" stroke-width="0" stroke-linejoin="miter" stroke-linecap="butt" stroke-miterlimit="4" >
	<path d="
	M 874.727 -207.246 
	L 874.727 -639.25 
	L 943.848 -639.25 
	L 943.848 -207.246 
	Z 
	"/>
</g>
<g fill="#7f7f7f" fill-rule="nonzero" stroke-width="0" stroke-linejoin="miter" stroke-linecap="butt" stroke-miterlimit="4" >
	<path d="
	M 2008.08 -233.55 
	C 1983.83 -212.32 1950.47 -200.199 1914.09 -200.199 
	C 1839.82 -200.199 1785.24 -244.16 1756.44 -309.34 
	L 1821.62 -333.59 
	C 1839.82 -292.66 1873.16 -269.93 1914.09 -269.93 
	C 1953.51 -269.93 1980.79 -297.21 1980.79 -333.59 
	C 1980.79 -391.19 1914.09 -400.28 1858 -423.02 
	C 1832.24 -433.63 1774.63 -459.4 1774.63 -530.64 
	C 1774.63 -615.52 1832.24 -647.36 1909.55 -647.36 
	C 1970.18 -647.36 2011.11 -612.49 2032.33 -559.44 
	L 1971.7 -541.25 
	C 1971.7 -541.25 1956.54 -577.63 1908.03 -579.14 
	C 1876.19 -580.66 1838.3 -568.54 1841.33 -529.13 
	C 1847.4 -448.79 2050.52 -501.84 2050.52 -332.07 
	C 2050.52 -292.66 2035.36 -257.8 2008.08 -233.55 
	Z 
	"/>
</g>
<g fill="#7f7f7f" fill-rule="nonzero" stroke-width="0" stroke-linejoin="miter" stroke-linecap="butt" stroke-miterlimit="4" >
	<path d="
	M 1445.29 -207.246 
	L 1445.29 -639.25 
	L 1699.61 -639.25 
	L 1699.61 -571.04 
	L 1513.41 -571.04 
	L 1513.41 -464.93 
	L 1639.06 -464.93 
	L 1639.06 -395.21 
	L 1513.41 -395.21 
	L 1513.41 -276.98 
	L 1713.24 -276.98 
	L 1713.24 -207.246 
	Z 
	"/>
</g>
<g fill="#7f7f7f" fill-rule="nonzero" stroke-width="0" stroke-linejoin="miter" stroke-linecap="butt" stroke-miterlimit="4" >
	<path d="
	M 610.102 -571.04 
	L 610.102 -464.93 
	L 735.746 -464.93 
	L 735.746 -395.21 
	L 610.102 -395.21 
	L 610.102 -207.246 
	L 541.977 -207.246 
	L 541.977 -639.25 
	L 809.926 -639.25 
	L 809.926 -571.04 
	Z 
	"/>
</g>
<g fill="#7f7f7f" fill-rule="nonzero" stroke-width="0" stroke-linejoin="miter" stroke-linecap="butt" stroke-miterlimit="4" >
	<path d="
	M 701.871 494.75 
	L 701.871 62.75 
	L 770.988 62.75 
	L 770.988 494.75 
	Z 
	"/>
</g>
<g fill="#7f7f7f" fill-rule="nonzero" stroke-width="0" stroke-linejoin="miter" stroke-linecap="butt" stroke-miterlimit="4" >
	<path d="
	M 2183.79 138.539 
	C 2173.18 132.48 2167.12 130.961 2144.38 130.961 
	L 2062.52 130.961 
	L 2062.52 237.07 
	L 2144.38 237.07 
	C 2165.6 237.07 2173.18 235.551 2183.79 229.488 
	C 2200.47 220.391 2211.08 202.199 2211.08 184.02 
	C 2211.08 165.828 2200.47 147.629 2183.79 138.539 
	Z 
	M 2214.11 494.75 
	L 2144.38 306.789 
	L 2062.52 306.789 
	L 2062.52 494.75 
	L 1994.31 494.75 
	L 1994.31 62.75 
	L 2136.8 62.75 
	C 2170.15 62.75 2192.89 65.781 2214.11 76.391 
	C 2252.01 94.578 2279.29 140.059 2279.29 184.02 
	C 2279.29 229.488 2252.01 274.961 2212.59 293.148 
	L 2288.39 494.75 
	Z 
	"/>
</g>
<g fill="#7f7f7f" fill-rule="nonzero" stroke-width="0" stroke-linejoin="miter" stroke-linecap="butt" stroke-miterlimit="4" >
	<path d="
	M 529.98 494.75 
	L 529.98 306.789 
	L 372.324 306.789 
	L 372.324 494.75 
	L 304.109 494.75 
	L 304.109 62.75 
	L 372.324 62.75 
	L 372.324 237.059 
	L 529.98 237.059 
	L 529.98 62.75 
	L 598.191 62.75 
	L 598.191 494.75 
	Z 
	"/>
</g>
<g fill="#7f7f7f" fill-rule="nonzero" stroke-width="0" stroke-linejoin="miter" stroke-linecap="butt" stroke-miterlimit="4" >
	<path d="
	M 1481.02 494.75 
	L 1481.02 306.789 
	L 1323.37 306.789 
	L 1323.37 494.75 
	L 1255.16 494.75 
	L 1255.16 62.75 
	L 1323.37 62.75 
	L 1323.37 237.059 
	L 1481.02 237.059 
	L 1481.02 62.75 
	L 1549.24 62.75 
	L 1549.24 494.75 
	Z 
	"/>
</g>
<g fill="#7f7f7f" fill-rule="nonzero" stroke-width="0" stroke-linejoin="miter" stroke-linecap="butt" stroke-miterlimit="4" >
	<path d="
	M 1652.92 494.75 
	L 1652.92 62.75 
	L 1907.24 62.75 
	L 1907.24 130.961 
	L 1721.04 130.961 
	L 1721.04 237.07 
	L 1846.69 237.07 
	L 1846.69 306.789 
	L 1721.04 306.789 
	L 1721.04 425.02 
	L 1920.86 425.02 
	L 1920.86 494.75 
	Z 
	"/>
</g>
<g fill="#7f7f7f" fill-rule="nonzero" stroke-width="0" stroke-linejoin="miter" stroke-linecap="butt" stroke-miterlimit="4" >
	<path d="
	M 1023.68 502.328 
	C 958.5 502.328 920.602 478.078 894.832 423.512 
	C 876.645 385.609 866.031 332.559 866.031 279.512 
	C 866.031 209.781 885.734 141.57 914.539 103.68 
	C 940.313 71.84 976.691 55.172 1025.2 55.172 
	C 1091.9 55.172 1131.31 82.461 1160.11 150.672 
	L 1094.93 176.43 
	C 1076.74 138.539 1058.55 124.898 1025.2 124.898 
	C 990.336 124.898 967.594 140.059 952.438 177.949 
	C 941.824 203.719 935.762 243.129 935.762 279.512 
	C 935.762 324.98 943.34 370.461 956.984 397.738 
	C 970.629 421.988 990.336 432.609 1016.1 432.609 
	C 1060.06 432.609 1091.9 405.32 1091.9 365.91 
	L 1091.9 347.719 
	L 1013.07 347.719 
	L 1013.07 279.512 
	L 1160.11 279.512 
	L 1160.11 365.91 
	C 1160.11 444.73 1102.51 502.328 1023.68 502.328 
	Z 
	"/>
</g>
</g >
</g>
</svg>
