<?xml version="1.0" encoding="UTF-8"?>
<svg id="For_Sheets" xmlns="http://www.w3.org/2000/svg" version="1.1" viewBox="0 0 1728 2160">
  <!-- Generator: Adobe Illustrator 29.1.0, SVG Export Plug-In . SVG Version: 2.1.0 Build 142)  -->
  <defs>
    <style>
      .st0 {
        fill: #231f20;
      }

      .st1 {
        fill: #fff;
      }
    </style>
  </defs>
  <g>
    <rect class="st1" x="-.1" y="-.1" width="1728.2" height="2160.2" rx="108.1" ry="108.1"/>
    <path class="st0" d="M1620,0c59.4,0,108,48.6,108,108v1944c0,59.4-48.6,108-108,108H108c-59.4,0-108-48.6-108-108V108C0,48.6,48.6,0,108,0h1512M1620-.2H108C79.2-.2,52.1,11,31.5,31.5,11,52.1-.2,79.2-.2,108v1944c0,28.8,11.3,55.9,31.8,76.5,20.5,20.5,47.7,31.8,76.5,31.8h1512c28.8,0,55.9-11.3,76.5-31.8,20.5-20.5,31.8-47.7,31.8-76.5V108c0-28.8-11.3-55.9-31.8-76.5-20.5-20.5-47.7-31.8-76.5-31.8h0Z"/>
  </g>
  <rect class="st0" x="-189" y="243" width="2106" height="1674" rx="81" ry="81" transform="translate(1944 216) rotate(90)"/>
  <rect class="st1" x="-144" y="288" width="2016" height="1584" rx="36" ry="36" transform="translate(1944 216) rotate(90)"/>
  <g>
    <path class="st0" d="M379.8,561.6c-20.3,12.3-46.5,19.5-73,19.5-49.7,0-87.3-18.4-119.8-56.3l41.6-32.8c21.3,25.6,44.6,36.9,77.1,36.9s62.9-17.2,62.9-37.9-29.2-31.2-109.8-53.9c-40.5-11.4-58.7-42.2-58.7-73.2,0-48.2,40.6-80.9,99.5-80.9s78.2,14.3,107.6,45l-38.6,34.8c-18.3-19.5-41.6-28.7-69-28.7s-46.7,12.8-46.7,29.4c0,31.9,39.2,24.9,110.8,50.1,50.6,17.9,56.6,61.1,56.6,79.3,0,29.7-13.2,52.3-40.6,68.7Z"/>
    <path class="st0" d="M530.6,462.8v113.2h-52.6v-288h140.9c60.7,0,92.5,46.2,92.5,87.4s-28.5,87.4-90.3,87.4h-90.6ZM530.6,339.6v71.7h87c25.2,0,42.4-14.1,42.4-35.4s-16.8-36.4-42.5-36.4h-86.9Z"/>
    <path class="st0" d="M760.4,288h210.9v51.6h-158.2v53.5h86.2v52.6h-86.2v78.8h163.3v51.6h-216v-288Z"/>
    <path class="st0" d="M1034,288h210.9v51.6h-158.2v53.5h86.2v52.6h-86.2v78.8h163.3v51.6h-216v-288Z"/>
    <path class="st0" d="M1307.6,576v-288h95.2c91.7,0,138.2,69.5,138.2,143.5s-51.3,144.5-137.9,144.5h-95.5ZM1400.4,339.6h-40.3v184.9h39.9c46.1,0,89.5-30.5,89.5-93s-36.4-91.9-89.1-91.9Z"/>
  </g>
  <g>
    <path class="st0" d="M336.9,720h51.7v243.5h164.3v44.5h-216v-288Z"/>
    <path class="st0" d="M601.9,720h51.8v288h-51.8v-288Z"/>
    <path class="st0" d="M948.7,832.2l-85.2,175.8-84.2-175.8v175.8h-50.7v-288h50.7l84.2,170.8,85.2-170.8h50.7v288h-50.7v-175.8Z"/>
    <path class="st0" d="M1074.3,720h51.8v288h-51.8v-288Z"/>
    <path class="st0" d="M1308.4,1008h-50.5v-237.5h-82.8v-50.5h216v50.5h-82.8v237.5Z"/>
  </g>
  <g>
    <path class="st0" d="M231.3,1490.5l22.9-338.5h482l-2.5,126.4h-357.7l-7.7,103.7c58.3-12.5,93.9-17.7,139.6-17.7,165,0,284.1,111.1,284.1,260.2s-126.9,260.2-304.5,260.2-187.7-25.2-279.1-80.8l68.5-108.6c81.1,47.1,156.4,58,215.9,58,111.3,0,169.4-54,169.4-126.4s-34.8-131.2-154.4-131.2-90.4,5.8-147.1,27.7l-129.3-32.8Z"/>
    <path class="st0" d="M914.4,1510.7c0-189.2,91.2-371.2,303.8-371.2s301.3,185.6,301.3,368.8-84,376.3-301.3,376.3-303.8-184.7-303.8-373.9ZM1218.2,1268.2c-129.1,0-174.7,133.9-174.7,240,0,159.2,65.8,247.5,174.7,247.5s172.2-110.3,172.2-245-63.3-242.5-172.2-242.5Z"/>
  </g>
</svg>