<?xml version="1.0" encoding="UTF-8"?>
<svg id="For_Sheets" xmlns="http://www.w3.org/2000/svg" version="1.1" viewBox="0 0 2160 648">
  <!-- Generator: Adobe Illustrator 29.1.0, SVG Export Plug-In . SVG Version: 2.1.0 Build 142)  -->
  <defs>
    <style>
      .st0 {
        fill: #231f20;
      }

      .st1 {
        fill: #fff;
      }
    </style>
  </defs>
  <g>
    <rect class="st1" x="-.1" y="-.1" width="2160.2" height="648.2" rx="108.1" ry="108.1"/>
    <path class="st0" d="M2052,0c59.6,0,108,48.4,108,108v432c0,59.6-48.4,108-108,108H108c-59.6,0-108-48.4-108-108V108C0,48.4,48.4,0,108,0h1944M2052-.2H108C79.1-.2,51.9,11,31.5,31.5,11,51.9-.2,79.1-.2,108v432c0,28.9,11.3,56.1,31.7,76.5,20.4,20.4,47.6,31.7,76.5,31.7h1944c28.9,0,56.1-11.3,76.5-31.7,20.4-20.4,31.7-47.6,31.7-76.5V108c0-28.9-11.3-56.1-31.7-76.5-20.4-20.4-47.6-31.7-76.5-31.7h0Z"/>
  </g>
  <rect class="st0" x="27" y="27" width="2106" height="594" rx="81" ry="81"/>
  <rect class="st1" x="72" y="72" width="2016" height="504" rx="36" ry="36"/>
  <g>
    <path class="st0" d="M179.9,297.2v170.8h-36.3V180h36.3l51.4,143.5v-143.5h36.2v288h-31.2l-56.3-170.8Z"/>
    <path class="st0" d="M318.2,180h105.5v37.4h-69.3v73.8h46.2v38.4h-46.2v101.1h73.3v37.4h-109.5V180Z"/>
    <path class="st0" d="M464.6,180h37.4v288h-37.4V180Z"/>
    <path class="st0" d="M612.8,176c32.5,0,53.9,20.2,56.9,55.6h-37.6c-1-12.1-8.1-18.2-18.3-18.2-18.1,0-30.5,15.4-30.5,111.1s12.4,111.2,30.5,111.2,19.3-17.7,19.3-35.4v-34.3h-17.2v-37.4h53.8v71.7c0,18.8,2.7,72.8-56.8,72.8s-67.1-39.9-67.1-148.5,27.6-148.5,67-148.5Z"/>
    <path class="st0" d="M801.1,333.6h-51.3v134.4h-36.3V180h36.3v116.2h51.4v-116.2h36.2v288h-36.3v-134.4Z"/>
    <path class="st0" d="M956.6,468h-68.5V180h52.4c50.6,0,66.5,19.2,66.5,76.8s-4,43.5-14.1,58.6c13.2,14.5,19.2,39.8,19.2,73.8,0,51.6-19.1,78.8-55.4,78.8ZM924.4,217.4v78.8h25.1c16.2,0,20.2-9.1,20.2-39.4s-6-39.4-24.2-39.4h-21.1ZM924.4,334.6v96h28.2c17.1,0,22.2-9.1,22.2-38.4,0-45.5-5.1-57.6-23.2-57.6h-27.1Z"/>
    <path class="st0" d="M1108.2,473c-64.7,0-66.3-81.3-66.3-148.5s1.6-148.5,66.3-148.5,66.3,81.3,66.3,148.5-1.6,148.5-66.3,148.5ZM1079.9,324.5c0,50.3.7,111.2,28.3,111.2s28.3-60.8,28.3-111.2-.7-111.2-28.3-111.2-28.3,60.8-28.3,111.2Z"/>
    <path class="st0" d="M1311.9,324.6l29.3,143.4h-39.5l-27.5-134.4h-19.6v134.4h-36.4V180h56.1c44.6,0,67.8,27.3,67.8,80.9s-8.2,51.4-30.3,63.8ZM1304.7,259.8c0-32.6-7.1-42.4-32.4-42.4h-17.7v78.8h23.8c20.2,0,26.3-9.1,26.3-36.4Z"/>
    <path class="st0" d="M1466.7,333.6h-51.3v134.4h-36.3V180h36.3v116.2h51.4v-116.2h36.2v288h-36.3v-134.4Z"/>
    <path class="st0" d="M1613,473c-64.7,0-66.3-81.3-66.3-148.5s1.6-148.5,66.3-148.5,66.3,81.3,66.3,148.5-1.6,148.5-66.3,148.5ZM1584.7,324.5c0,50.3.7,111.2,28.3,111.2s28.3-60.8,28.3-111.2-.7-111.2-28.3-111.2-28.3,60.8-28.3,111.2Z"/>
    <path class="st0" d="M1782.4,473c-64.7,0-66.3-81.3-66.3-148.5s1.6-148.5,66.3-148.5,66.3,81.3,66.3,148.5-1.6,148.5-66.3,148.5ZM1754.1,324.5c0,50.3.7,111.2,28.3,111.2s28.3-60.8,28.3-111.2-.7-111.2-28.3-111.2-28.3,60.8-28.3,111.2Z"/>
    <path class="st0" d="M1892.5,468V180h59.4c24.2,0,64.5,1.3,64.5,143.5s-40.3,144.5-64.5,144.5h-59.4ZM1928.8,217.4v213.2h23.1c28.1,0,26.7-43.2,26.7-107,0-95.4-8.8-106.2-26.7-106.2h-23.1Z"/>
  </g>
</svg>