<?xml version="1.0" encoding="UTF-8" standalone="no"?>
<!-- Created with Inkscape (http://www.inkscape.org/) -->

<svg
   version="1.1"
   id="svg1"
   width="4608.6665"
   height="3456.6667"
   viewBox="0 0 4608.6665 3456.6667"
   sodipodi:docname="tmpxcqvrs5n.pdf"
   xmlns:inkscape="http://www.inkscape.org/namespaces/inkscape"
   xmlns:sodipodi="http://sodipodi.sourceforge.net/DTD/sodipodi-0.dtd"
   xmlns="http://www.w3.org/2000/svg"
   xmlns:svg="http://www.w3.org/2000/svg">
  <defs
     id="defs1" />
  <sodipodi:namedview
     id="namedview1"
     pagecolor="#ffffff"
     bordercolor="#000000"
     borderopacity="0.25"
     inkscape:showpageshadow="2"
     inkscape:pageopacity="0.0"
     inkscape:pagecheckerboard="0"
     inkscape:deskcolor="#d1d1d1">
    <inkscape:page
       x="0"
       y="0"
       inkscape:label="1"
       id="page1"
       width="4608.6665"
       height="3456.6667"
       margin="0"
       bleed="0" />
  </sodipodi:namedview>
  <g
     id="g1"
     inkscape:groupmode="layer"
     inkscape:label="1">
    <g
       id="group-R5">
      <path
         id="path2"
         d="m 34562.5,1622.5 c 0,-894.699 -725.3,-1620 -1620,-1620 H 1622.5 C 727.805,2.5 2.5,727.801 2.5,1622.5 v 22680 c 0,894.7 725.305,1620 1620.01,1620 H 32942.5 c 894.7,0 1620,-725.3 1620,-1620 v -22680"
         style="fill:#ffffff;fill-opacity:1;fill-rule:nonzero;stroke:none"
         transform="matrix(0.13333333,0,0,-0.13333333,0,3456.6667)" />
      <path
         id="path3"
         d="m 34562.5,1622.5 c 0,-894.699 -725.3,-1620 -1620,-1620 H 1622.5 C 727.805,2.5 2.5,727.801 2.5,1622.5 v 22680 c 0,894.7 725.305,1620 1620.01,1620 H 32942.5 c 894.7,0 1620,-725.3 1620,-1620 z"
         style="fill:none;stroke:#231f20;stroke-width:5;stroke-linecap:butt;stroke-linejoin:miter;stroke-miterlimit:4;stroke-dasharray:none;stroke-opacity:1"
         transform="matrix(0.13333333,0,0,-0.13333333,0,3456.6667)" />
      <path
         id="path4"
         d="m 1622.5,452.5 c -645.137,0 -1170,524.902 -1170,1170 v 22680 c 0,645.1 524.863,1170 1170,1170 h 31320 c 645.1,0 1170,-524.9 1170,-1170 v -22680 c 0,-645.098 -524.9,-1170 -1170,-1170 h -31320"
         style="fill:#231f20;fill-opacity:1;fill-rule:nonzero;stroke:none"
         transform="matrix(0.13333333,0,0,-0.13333333,0,3456.6667)" />
      <path
         id="path5"
         d="m 1622.5,1082.5 c -297.75,0 -540,242.3 -540,540 v 22680 c 0,297.8 242.25,540 540,540 h 31320 c 297.7,0 540,-242.2 540,-540 v -22680 c 0,-297.7 -242.3,-540 -540,-540 h -31320"
         style="fill:#ffffff;fill-opacity:1;fill-rule:nonzero;stroke:none"
         transform="matrix(0.13333333,0,0,-0.13333333,0,3456.6667)" />
      <path
         id="path6"
         d="m 17078.8,15122.5 -2203.1,3900.6 v -3900.6 h -909.5 v 5760 h 909.5 l 2102.1,-3678.3 v 3678.3 h 909.5 v -5760 h -808.5"
         style="fill:#231f20;fill-opacity:1;fill-rule:nonzero;stroke:none"
         transform="matrix(0.13333333,0,0,-0.13333333,0,3456.6667)" />
      <path
         id="path7"
         d="m 11662.2,15122.5 v 5760 h 921.6 v -5760 h -921.6"
         style="fill:#231f20;fill-opacity:1;fill-rule:nonzero;stroke:none"
         transform="matrix(0.13333333,0,0,-0.13333333,0,3456.6667)" />
      <path
         id="path8"
         d="m 26773.5,15473.1 c -323.3,-282.9 -768,-444.6 -1253.1,-444.6 -990.3,0 -1718,586.1 -2102,1455.2 l 869.1,323.3 c 242.6,-545.6 687.2,-848.8 1232.9,-848.8 525.5,0 889.3,363.8 889.3,848.8 0,768 -889.3,889.3 -1637.1,1192.4 -343.6,141.5 -1111.7,485.1 -1111.7,1435 0,1131.8 768.1,1556.2 1798.9,1556.2 808.4,0 1354.2,-464.8 1637.1,-1172.2 l -808.4,-242.5 c 0,0 -202.2,485 -848.9,505.2 -424.5,20.2 -929.8,-141.4 -889.3,-666.9 80.8,-1071.2 2789.2,-363.8 2789.2,-2627.4 0,-525.4 -202.1,-990.3 -566,-1313.7"
         style="fill:#231f20;fill-opacity:1;fill-rule:nonzero;stroke:none"
         transform="matrix(0.13333333,0,0,-0.13333333,0,3456.6667)" />
      <path
         id="path9"
         d="m 19269.7,15122.5 v 5760 h 3391 V 19973 H 20178 v -1414.7 h 1675.3 v -929.7 H 20178 v -1576.4 h 2664.4 v -929.7 h -3572.7"
         style="fill:#231f20;fill-opacity:1;fill-rule:nonzero;stroke:none"
         transform="matrix(0.13333333,0,0,-0.13333333,0,3456.6667)" />
      <path
         id="path10"
         d="m 8133.85,19973 v -1414.7 h 1675.27 v -929.7 H 8133.85 v -2506.1 h -908.32 v 5760 H 10798.2 V 19973 H 8133.85"
         style="fill:#231f20;fill-opacity:1;fill-rule:nonzero;stroke:none"
         transform="matrix(0.13333333,0,0,-0.13333333,0,3456.6667)" />
      <path
         id="path11"
         d="m 9357.45,5042.5 v 5760 h 921.65 v -5760 h -921.65"
         style="fill:#231f20;fill-opacity:1;fill-rule:nonzero;stroke:none"
         transform="matrix(0.13333333,0,0,-0.13333333,0,3456.6667)" />
      <path
         id="path12"
         d="m 29116.4,9792 c -141.5,80.8 -222.3,101 -525.5,101 H 27499.4 V 8478.3 h 1091.5 c 283,0 384,20.2 525.5,101 222.4,121.3 363.8,363.8 363.8,606.3 0,242.6 -141.4,485.1 -363.8,606.4 z m 404.2,-4749.5 -929.7,2506.1 H 27499.4 V 5042.5 h -909.5 v 5760 h 1899.9 c 444.7,0 747.9,-40.4 1030.8,-181.9 505.3,-242.6 869.1,-848.8 869.1,-1435 0,-606.3 -363.8,-1212.6 -889.3,-1455.1 l 1010.7,-2688 h -990.5"
         style="fill:#231f20;fill-opacity:1;fill-rule:nonzero;stroke:none"
         transform="matrix(0.13333333,0,0,-0.13333333,0,3456.6667)" />
      <path
         id="path13"
         d="M 7065.56,5042.5 V 7548.6 H 4963.49 V 5042.5 h -909.53 v 5760 h 909.53 V 8478.3 h 2102.07 v 2324.2 h 909.53 v -5760 h -909.53"
         style="fill:#231f20;fill-opacity:1;fill-rule:nonzero;stroke:none"
         transform="matrix(0.13333333,0,0,-0.13333333,0,3456.6667)" />
      <path
         id="path14"
         d="M 19746.2,5042.5 V 7548.6 H 17644.1 V 5042.5 h -909.5 v 5760 h 909.5 V 8478.3 h 2102.1 v 2324.2 h 909.5 v -5760 h -909.5"
         style="fill:#231f20;fill-opacity:1;fill-rule:nonzero;stroke:none"
         transform="matrix(0.13333333,0,0,-0.13333333,0,3456.6667)" />
      <path
         id="path15"
         d="m 22038,5042.5 v 5760 h 3391 V 9893 H 22946.3 V 8478.3 h 1675.4 V 7548.6 H 22946.3 V 5972.2 h 2664.4 V 5042.5 H 22038"
         style="fill:#231f20;fill-opacity:1;fill-rule:nonzero;stroke:none"
         transform="matrix(0.13333333,0,0,-0.13333333,0,3456.6667)" />
      <path
         id="path16"
         d="m 13648.3,4941.4 c -869.1,0 -1374.4,323.4 -1718,1051 -242.6,505.2 -384,1212.6 -384,1920 0,929.7 262.7,1839.2 646.7,2344.4 343.7,424.4 828.7,646.8 1475.5,646.8 889.4,0 1414.9,-363.9 1798.9,-1273.3 l -869.1,-343.6 c -242.6,505.3 -485.1,687.2 -929.8,687.2 -464.9,0 -768.1,-202.1 -970.2,-707.4 -141.5,-343.6 -222.3,-869.1 -222.3,-1354.1 0,-606.3 101,-1212.7 283,-1576.4 181.9,-323.4 444.6,-464.9 788.2,-464.9 586.2,0 1010.7,363.8 1010.7,889.3 v 242.5 h -1051.1 v 909.5 h 1960.6 v -1152 c 0,-1051 -768.1,-1819 -1819.1,-1819"
         style="fill:#231f20;fill-opacity:1;fill-rule:nonzero;stroke:none"
         transform="matrix(0.13333333,0,0,-0.13333333,0,3456.6667)" />
    </g>
  </g>
</svg>
