<?xml version="1.0" standalone="no"?>
<svg width="1728px" height="432px" viewBox="0 360 1728 432 " xmlns="http://www.w3.org/2000/svg" xmlns:xlink="http://www.w3.org/1999/xlink">
<title>generated by pstoedit</title>
<!-- generated by pstoedit version:4.02 -->
<g xml:space='preserve'>
<clipPath id="clippath1"> 	<path d="
	M 0 359.5 
	L 0 792 
	L 1728.5 792 
	L 1728.5 359.5 
	Z 
	" style="clip-rule:nonzero"/>
</clipPath>
<g style="clip-path:url(#clippath1)"> 
<g fill="#ffffff" fill-rule="nonzero" stroke-width="0" stroke-linejoin="miter" stroke-linecap="butt" stroke-miterlimit="10" >
	<path d="
	M 1728.25 719.75 
	C 1728.25 759.516 1696.01 791.75 1656.25 791.75 
	L 72.25 791.75 
	C 32.4844 791.75 0.25 759.516 0.25 719.75 
	L 0.25 431.75 
	C 0.25 391.984 32.4844 359.75 72.25 359.75 
	L 1656.25 359.75 
	C 1696.01 359.75 1728.25 391.984 1728.25 431.75 
	Z 
	"/>
</g>
<g stroke="#7f7f7f" fill="none" stroke-width="0.5" stroke-linejoin="miter" stroke-linecap="butt" stroke-miterlimit="4" >
	<path d="
	M 1728.25 719.75 
	C 1728.25 759.516 1696.01 791.75 1656.25 791.75 
	L 72.25 791.75 
	C 32.4844 791.75 0.25 759.516 0.25 719.75 
	L 0.25 431.75 
	C 0.25 391.984 32.4844 359.75 72.25 359.75 
	L 1656.25 359.75 
	C 1696.01 359.75 1728.25 391.984 1728.25 431.75 
	Z 
	"/>
</g>
<g fill="#7f7f7f" fill-rule="nonzero" stroke-width="0" stroke-linejoin="miter" stroke-linecap="butt" stroke-miterlimit="4" >
	<path d="
	M 72.25 764.75 
	C 47.4375 764.75 27.25 744.562 27.25 719.75 
	L 27.25 431.75 
	C 27.25 406.937 47.4375 386.75 72.25 386.75 
	L 1656.25 386.75 
	C 1681.06 386.75 1701.25 406.937 1701.25 431.75 
	L 1701.25 719.75 
	C 1701.25 744.562 1681.06 764.75 1656.25 764.75 
	Z 
	"/>
</g>
<g fill="#ffffff" fill-rule="nonzero" stroke-width="0" stroke-linejoin="miter" stroke-linecap="butt" stroke-miterlimit="4" >
	<path d="
	M 72.25 737.75 
	C 62.3242 737.75 54.25 729.676 54.25 719.75 
	L 54.25 431.75 
	C 54.25 421.824 62.3242 413.75 72.25 413.75 
	L 1656.25 413.75 
	C 1666.17 413.75 1674.25 421.824 1674.25 431.75 
	L 1674.25 719.75 
	C 1674.25 729.676 1666.17 737.75 1656.25 737.75 
	Z 
	"/>
</g>
<g fill="#7f7f7f" fill-rule="nonzero" stroke-width="0" stroke-linejoin="miter" stroke-linecap="butt" stroke-miterlimit="4" >
	<path d="
	M 767.051 583.328 
	L 746.648 583.328 
	L 746.648 655.328 
	L 767.805 655.328 
	C 780.648 655.328 784.426 648.508 784.426 626.527 
	C 784.426 592.426 780.648 583.328 767.051 583.328 
	Z 
	M 762.516 495.414 
	L 746.648 495.414 
	L 746.648 554.527 
	L 765.535 554.527 
	C 777.629 554.527 780.648 547.707 780.648 524.973 
	C 780.648 503.75 776.113 495.414 762.516 495.414 
	Z 
	M 812.383 624.254 
	C 812.383 662.906 798.027 683.371 770.824 683.371 
	L 719.445 683.371 
	L 719.445 467.371 
	L 758.738 467.371 
	C 796.516 467.371 808.605 481.77 808.605 524.973 
	C 808.605 546.191 805.582 557.562 798.027 568.93 
	C 807.93 579.812 812.383 598.828 812.383 624.254 
	Z 
	"/>
</g>
<g fill="#7f7f7f" fill-rule="nonzero" stroke-width="0" stroke-linejoin="miter" stroke-linecap="butt" stroke-miterlimit="4" >
	<path d="
	M 1579.53 526.488 
	C 1577.26 502.992 1572.73 495.414 1561.39 495.414 
	L 1544.02 495.414 
	L 1544.02 655.328 
	L 1561.39 655.328 
	C 1571.21 655.328 1576.5 648.508 1579.53 632.594 
	C 1580.28 625.016 1581.79 600.762 1581.79 581.812 
	C 1581.79 565.898 1580.28 541.645 1579.53 526.488 
	Z 
	M 1605.21 519.668 
	C 1607.69 537.168 1609.75 556.805 1609.75 574.992 
	C 1609.75 625.77 1602.95 658.359 1590.1 672.762 
	C 1584.06 679.582 1573.48 683.371 1561.39 683.371 
	L 1516.81 683.371 
	L 1516.81 467.371 
	L 1561.39 467.371 
	C 1576.5 467.371 1587.08 472.676 1593.88 483.285 
	C 1599.17 491.625 1603.29 506.074 1605.21 519.668 
	Z 
	"/>
</g>
<g fill="#7f7f7f" fill-rule="nonzero" stroke-width="0" stroke-linejoin="miter" stroke-linecap="butt" stroke-miterlimit="4" >
	<path d="
	M 259.203 683.371 
	L 259.203 467.371 
	L 338.324 467.371 
	L 338.324 495.414 
	L 286.332 495.414 
	L 286.332 550.738 
	L 320.992 550.738 
	L 320.992 579.539 
	L 286.332 579.539 
	L 286.332 655.328 
	L 341.34 655.328 
	L 341.34 683.371 
	Z 
	"/>
</g>
<g fill="#7f7f7f" fill-rule="nonzero" stroke-width="0" stroke-linejoin="miter" stroke-linecap="butt" stroke-miterlimit="4" >
	<path d="
	M 534.906 662.148 
	C 529.938 677.184 515.863 687.16 496.059 687.16 
	C 473.965 687.16 461.016 678.824 454.16 658.359 
	C 447.305 638.656 445.02 618.949 445.02 574.992 
	C 445.02 531.793 447.305 512.844 454.922 492.383 
	C 461.777 472.676 474.73 464.34 496.059 464.34 
	C 520.434 464.34 534.906 479.496 537.953 506.023 
	L 510.531 506.023 
	C 509.008 496.93 504.438 492.383 496.816 492.383 
	C 486.914 492.383 480.063 499.203 477.773 513.602 
	C 474.73 531.035 473.203 545.434 473.203 574.992 
	C 473.203 604.551 474.73 618.949 477.012 637.141 
	C 480.063 651.539 485.395 659.117 495.297 659.117 
	C 505.199 659.117 510.531 650.023 510.531 635.625 
	L 510.531 606.824 
	L 497.578 606.824 
	L 497.578 578.781 
	L 537.953 578.781 
	L 537.953 634.105 
	C 537.953 643.961 537.094 655.531 534.906 662.148 
	Z 
	"/>
</g>
<g fill="#7f7f7f" fill-rule="nonzero" stroke-width="0" stroke-linejoin="miter" stroke-linecap="butt" stroke-miterlimit="4" >
	<path d="
	M 644.727 683.371 
	L 644.727 582.57 
	L 606.191 582.57 
	L 606.191 683.371 
	L 578.992 683.371 
	L 578.992 467.371 
	L 606.191 467.371 
	L 606.191 554.527 
	L 644.727 554.527 
	L 644.727 467.371 
	L 671.93 467.371 
	L 671.93 683.371 
	Z 
	"/>
</g>
<g fill="#7f7f7f" fill-rule="nonzero" stroke-width="0" stroke-linejoin="miter" stroke-linecap="butt" stroke-miterlimit="4" >
	<path d="
	M 1174.14 683.371 
	L 1174.14 582.57 
	L 1135.61 582.57 
	L 1135.61 683.371 
	L 1108.41 683.371 
	L 1108.41 467.371 
	L 1135.61 467.371 
	L 1135.61 554.527 
	L 1174.14 554.527 
	L 1174.14 467.371 
	L 1201.35 467.371 
	L 1201.35 683.371 
	Z 
	"/>
</g>
<g fill="#7f7f7f" fill-rule="nonzero" stroke-width="0" stroke-linejoin="miter" stroke-linecap="butt" stroke-miterlimit="4" >
	<path d="
	M 375.898 683.371 
	L 375.898 467.371 
	L 403.98 467.371 
	L 403.98 683.371 
	Z 
	"/>
</g>
<g fill="#7f7f7f" fill-rule="nonzero" stroke-width="0" stroke-linejoin="miter" stroke-linecap="butt" stroke-miterlimit="4" >
	<path d="
	M 188.262 683.371 
	L 145.949 555.285 
	L 145.949 683.371 
	L 118.75 683.371 
	L 118.75 467.371 
	L 145.949 467.371 
	L 184.484 574.992 
	L 184.484 467.371 
	L 211.684 467.371 
	L 211.684 683.371 
	Z 
	"/>
</g>
<g fill="#7f7f7f" fill-rule="nonzero" stroke-width="0" stroke-linejoin="miter" stroke-linecap="butt" stroke-miterlimit="4" >
	<path d="
	M 890.188 492.383 
	C 865.176 492.383 868.578 559.836 868.578 574.992 
	C 868.578 589.395 865.176 659.117 890.188 659.117 
	C 914.438 659.117 911.031 589.395 911.031 574.992 
	C 911.031 557.562 910.648 492.383 890.188 492.383 
	Z 
	M 890.188 687.16 
	C 836.371 687.16 840.535 610.613 840.535 574.992 
	C 840.535 537.855 837.129 464.34 890.188 464.34 
	C 943.238 464.34 939.832 538.613 939.832 574.992 
	C 939.832 610.613 943.238 687.16 890.188 687.16 
	Z 
	"/>
</g>
<g fill="#7f7f7f" fill-rule="nonzero" stroke-width="0" stroke-linejoin="miter" stroke-linecap="butt" stroke-miterlimit="4" >
	<path d="
	M 1292.11 492.383 
	C 1267.1 492.383 1270.5 559.836 1270.5 574.992 
	C 1270.5 589.395 1267.1 659.117 1292.11 659.117 
	C 1316.36 659.117 1312.96 589.395 1312.96 574.992 
	C 1312.96 557.562 1312.57 492.383 1292.11 492.383 
	Z 
	M 1292.11 687.16 
	C 1238.29 687.16 1242.46 610.613 1242.46 574.992 
	C 1242.46 537.855 1239.05 464.34 1292.11 464.34 
	C 1345.16 464.34 1341.75 538.613 1341.75 574.992 
	C 1341.75 610.613 1345.16 687.16 1292.11 687.16 
	Z 
	"/>
</g>
<g fill="#7f7f7f" fill-rule="nonzero" stroke-width="0" stroke-linejoin="miter" stroke-linecap="butt" stroke-miterlimit="4" >
	<path d="
	M 1426.08 492.383 
	C 1401.07 492.383 1404.48 559.836 1404.48 574.992 
	C 1404.48 589.395 1401.07 659.117 1426.08 659.117 
	C 1450.34 659.117 1446.93 589.395 1446.93 574.992 
	C 1446.93 557.562 1446.54 492.383 1426.08 492.383 
	Z 
	M 1426.08 687.16 
	C 1372.27 687.16 1376.44 610.613 1376.44 574.992 
	C 1376.44 537.855 1373.03 464.34 1426.08 464.34 
	C 1479.14 464.34 1475.73 538.613 1475.73 574.992 
	C 1475.73 610.613 1479.14 687.16 1426.08 687.16 
	Z 
	"/>
</g>
<g fill="#7f7f7f" fill-rule="nonzero" stroke-width="0" stroke-linejoin="miter" stroke-linecap="butt" stroke-miterlimit="4" >
	<path d="
	M 1021.51 495.414 
	L 1008.23 495.414 
	L 1008.23 554.527 
	L 1026.06 554.527 
	C 1041.23 554.527 1045.78 547.711 1045.78 527.246 
	C 1045.78 502.992 1040.47 495.414 1021.51 495.414 
	Z 
	M 1051.09 575.75 
	L 1073.09 683.371 
	L 1045.02 683.371 
	L 1020.75 582.57 
	L 1008.23 582.57 
	L 1008.23 683.371 
	L 980.918 683.371 
	L 980.918 467.371 
	L 1023.02 467.371 
	C 1056.4 467.371 1073.85 487.836 1073.85 528.004 
	C 1073.85 552.258 1067.02 565.898 1051.09 575.75 
	Z 
	"/>
</g>
</g >
</g>
</svg>
