<?xml version="1.0" standalone="no"?>
<svg width="3456px" height="2592px" viewBox="0 -1800 3456 2592 " xmlns="http://www.w3.org/2000/svg" xmlns:xlink="http://www.w3.org/1999/xlink">
<title>generated by pstoedit</title>
<!-- generated by pstoedit version:4.02 -->
<g xml:space='preserve'>
<clipPath id="clippath1"> 	<path d="
	M 0 -1800.5 
	L 0 792 
	L 3456.5 792 
	L 3456.5 -1800.5 
	Z 
	" style="clip-rule:nonzero"/>
</clipPath>
<g style="clip-path:url(#clippath1)"> 
<g fill="#ffffff" fill-rule="nonzero" stroke-width="0" stroke-linejoin="miter" stroke-linecap="butt" stroke-miterlimit="10" >
	<path d="
	M 3456.25 629.75 
	C 3456.25 719.219 3383.72 791.75 3294.25 791.75 
	L 162.25 791.75 
	C 72.7813 791.75 0.25 719.219 0.25 629.75 
	L 0.25 -1638.25 
	C 0.25 -1727.72 72.7813 -1800.25 162.25 -1800.25 
	L 3294.25 -1800.25 
	C 3383.72 -1800.25 3456.25 -1727.72 3456.25 -1638.25 
	Z 
	"/>
</g>
<g stroke="#7f7f7f" fill="none" stroke-width="0.5" stroke-linejoin="miter" stroke-linecap="butt" stroke-miterlimit="4" >
	<path d="
	M 3456.25 629.75 
	C 3456.25 719.219 3383.72 791.75 3294.25 791.75 
	L 162.25 791.75 
	C 72.7813 791.75 0.25 719.219 0.25 629.75 
	L 0.25 -1638.25 
	C 0.25 -1727.72 72.7813 -1800.25 162.25 -1800.25 
	L 3294.25 -1800.25 
	C 3383.72 -1800.25 3456.25 -1727.72 3456.25 -1638.25 
	Z 
	"/>
</g>
<g fill="#7f7f7f" fill-rule="nonzero" stroke-width="0" stroke-linejoin="miter" stroke-linecap="butt" stroke-miterlimit="4" >
	<path d="
	M 162.25 746.75 
	C 97.7344 746.75 45.25 694.262 45.25 629.75 
	L 45.25 -1638.25 
	C 45.25 -1702.76 97.7344 -1755.25 162.25 -1755.25 
	L 3294.25 -1755.25 
	C 3358.76 -1755.25 3411.25 -1702.76 3411.25 -1638.25 
	L 3411.25 629.75 
	C 3411.25 694.262 3358.76 746.75 3294.25 746.75 
	Z 
	"/>
</g>
<g fill="#ffffff" fill-rule="nonzero" stroke-width="0" stroke-linejoin="miter" stroke-linecap="butt" stroke-miterlimit="4" >
	<path d="
	M 162.25 683.75 
	C 132.477 683.75 108.25 659.52 108.25 629.75 
	L 108.25 -1638.25 
	C 108.25 -1668.03 132.477 -1692.25 162.25 -1692.25 
	L 3294.25 -1692.25 
	C 3324.02 -1692.25 3348.25 -1668.02 3348.25 -1638.25 
	L 3348.25 629.75 
	C 3348.25 659.52 3324.02 683.75 3294.25 683.75 
	Z 
	"/>
</g>
<g fill="#7f7f7f" fill-rule="nonzero" stroke-width="0" stroke-linejoin="miter" stroke-linecap="butt" stroke-miterlimit="4" >
	<path d="
	M 1707.88 -720.25 
	L 1487.57 -1110.31 
	L 1487.57 -720.25 
	L 1396.62 -720.25 
	L 1396.62 -1296.25 
	L 1487.57 -1296.25 
	L 1697.78 -928.41 
	L 1697.78 -1296.25 
	L 1788.73 -1296.25 
	L 1788.73 -720.25 
	Z 
	"/>
</g>
<g fill="#7f7f7f" fill-rule="nonzero" stroke-width="0" stroke-linejoin="miter" stroke-linecap="butt" stroke-miterlimit="4" >
	<path d="
	M 1166.22 -720.25 
	L 1166.22 -1296.25 
	L 1258.38 -1296.25 
	L 1258.38 -720.25 
	Z 
	"/>
</g>
<g fill="#7f7f7f" fill-rule="nonzero" stroke-width="0" stroke-linejoin="miter" stroke-linecap="butt" stroke-miterlimit="4" >
	<path d="
	M 2677.35 -755.31 
	C 2645.02 -727.02 2600.55 -710.85 2552.04 -710.85 
	C 2453.01 -710.85 2380.24 -769.46 2341.84 -856.36 
	L 2428.75 -888.7 
	C 2453.01 -834.14 2497.47 -803.82 2552.04 -803.82 
	C 2604.59 -803.82 2640.97 -840.2 2640.97 -888.7 
	C 2640.97 -965.5 2552.04 -977.63 2477.26 -1007.94 
	C 2442.9 -1022.09 2366.09 -1056.45 2366.09 -1151.44 
	C 2366.09 -1264.62 2442.9 -1307.06 2545.98 -1307.06 
	C 2626.82 -1307.06 2681.4 -1260.57 2709.69 -1189.84 
	L 2628.85 -1165.59 
	C 2628.85 -1165.59 2608.63 -1214.09 2543.96 -1216.11 
	C 2501.51 -1218.13 2450.98 -1201.97 2455.03 -1149.41 
	C 2463.11 -1042.3 2733.95 -1113.04 2733.95 -886.68 
	C 2733.95 -834.14 2713.74 -787.65 2677.35 -755.31 
	Z 
	"/>
</g>
<g fill="#7f7f7f" fill-rule="nonzero" stroke-width="0" stroke-linejoin="miter" stroke-linecap="butt" stroke-miterlimit="4" >
	<path d="
	M 1926.97 -720.25 
	L 1926.97 -1296.25 
	L 2266.07 -1296.25 
	L 2266.07 -1205.3 
	L 2017.8 -1205.3 
	L 2017.8 -1063.83 
	L 2185.33 -1063.83 
	L 2185.33 -970.86 
	L 2017.8 -970.86 
	L 2017.8 -813.22 
	L 2284.24 -813.22 
	L 2284.24 -720.25 
	Z 
	"/>
</g>
<g fill="#7f7f7f" fill-rule="nonzero" stroke-width="0" stroke-linejoin="miter" stroke-linecap="butt" stroke-miterlimit="4" >
	<path d="
	M 813.387 -1205.3 
	L 813.387 -1063.83 
	L 980.91 -1063.83 
	L 980.91 -970.86 
	L 813.387 -970.86 
	L 813.387 -720.25 
	L 722.555 -720.25 
	L 722.555 -1296.25 
	L 1079.82 -1296.25 
	L 1079.82 -1205.3 
	Z 
	"/>
</g>
<g fill="#7f7f7f" fill-rule="nonzero" stroke-width="0" stroke-linejoin="miter" stroke-linecap="butt" stroke-miterlimit="4" >
	<path d="
	M 935.746 287.75 
	L 935.746 -288.25 
	L 1027.91 -288.25 
	L 1027.91 287.75 
	Z 
	"/>
</g>
<g fill="#7f7f7f" fill-rule="nonzero" stroke-width="0" stroke-linejoin="miter" stroke-linecap="butt" stroke-miterlimit="4" >
	<path d="
	M 2911.64 -187.199 
	C 2897.49 -195.281 2889.41 -197.301 2859.09 -197.301 
	L 2749.94 -197.301 
	L 2749.94 -55.828 
	L 2859.09 -55.828 
	C 2887.39 -55.828 2897.49 -57.852 2911.64 -65.93 
	C 2933.88 -78.059 2948.02 -102.309 2948.02 -126.559 
	C 2948.02 -150.82 2933.88 -175.07 2911.64 -187.199 
	Z 
	M 2952.06 287.75 
	L 2859.09 37.141 
	L 2749.94 37.141 
	L 2749.94 287.75 
	L 2658.99 287.75 
	L 2658.99 -288.25 
	L 2848.98 -288.25 
	C 2893.45 -288.25 2923.77 -284.21 2952.06 -270.06 
	C 3002.59 -245.8 3038.97 -185.18 3038.97 -126.559 
	C 3038.97 -65.93 3002.59 -5.30103 2950.04 18.949 
	L 3051.11 287.75 
	Z 
	"/>
</g>
<g fill="#7f7f7f" fill-rule="nonzero" stroke-width="0" stroke-linejoin="miter" stroke-linecap="butt" stroke-miterlimit="4" >
	<path d="
	M 706.555 287.75 
	L 706.555 37.141 
	L 496.348 37.141 
	L 496.348 287.75 
	L 405.395 287.75 
	L 405.395 -288.25 
	L 496.348 -288.25 
	L 496.348 -55.828 
	L 706.555 -55.828 
	L 706.555 -288.25 
	L 797.508 -288.25 
	L 797.508 287.75 
	Z 
	"/>
</g>
<g fill="#7f7f7f" fill-rule="nonzero" stroke-width="0" stroke-linejoin="miter" stroke-linecap="butt" stroke-miterlimit="4" >
	<path d="
	M 1974.62 287.75 
	L 1974.62 37.141 
	L 1764.41 37.141 
	L 1764.41 287.75 
	L 1673.46 287.75 
	L 1673.46 -288.25 
	L 1764.41 -288.25 
	L 1764.41 -55.828 
	L 1974.62 -55.828 
	L 1974.62 -288.25 
	L 2065.57 -288.25 
	L 2065.57 287.75 
	Z 
	"/>
</g>
<g fill="#7f7f7f" fill-rule="nonzero" stroke-width="0" stroke-linejoin="miter" stroke-linecap="butt" stroke-miterlimit="4" >
	<path d="
	M 2203.8 287.75 
	L 2203.8 -288.25 
	L 2542.9 -288.25 
	L 2542.9 -197.301 
	L 2294.63 -197.301 
	L 2294.63 -55.828 
	L 2462.17 -55.828 
	L 2462.17 37.141 
	L 2294.63 37.141 
	L 2294.63 194.781 
	L 2561.07 194.781 
	L 2561.07 287.75 
	Z 
	"/>
</g>
<g fill="#7f7f7f" fill-rule="nonzero" stroke-width="0" stroke-linejoin="miter" stroke-linecap="butt" stroke-miterlimit="4" >
	<path d="
	M 1364.83 297.859 
	C 1277.92 297.859 1227.39 265.52 1193.03 192.762 
	C 1168.77 142.238 1154.63 71.5 1154.63 0.762024 
	C 1154.63 -92.211 1180.9 -183.16 1219.3 -233.68 
	C 1253.67 -276.12 1302.17 -298.36 1366.85 -298.36 
	C 1455.79 -298.36 1508.34 -261.97 1546.74 -171.031 
	L 1459.83 -136.672 
	C 1435.57 -187.199 1411.32 -205.391 1366.85 -205.391 
	C 1320.36 -205.391 1290.04 -185.18 1269.83 -134.648 
	C 1255.68 -100.289 1247.6 -47.738 1247.6 0.762024 
	C 1247.6 61.391 1257.7 122.031 1275.9 158.398 
	C 1294.09 190.738 1320.36 204.891 1354.72 204.891 
	C 1413.34 204.891 1455.79 168.512 1455.79 115.961 
	L 1455.79 91.711 
	L 1350.68 91.711 
	L 1350.68 0.762024 
	L 1546.74 0.762024 
	L 1546.74 115.961 
	C 1546.74 221.059 1469.93 297.859 1364.83 297.859 
	Z 
	"/>
</g>
</g >
</g>
</svg>
