<?xml version="1.0" encoding="UTF-8" standalone="no"?>
<!-- Created with Inkscape (http://www.inkscape.org/) -->

<svg
   version="1.1"
   id="svg1"
   width="2304.6667"
   height="2880.6667"
   viewBox="0 0 2304.6667 2880.6667"
   sodipodi:docname="tmp6353mkm4.pdf"
   xmlns:inkscape="http://www.inkscape.org/namespaces/inkscape"
   xmlns:sodipodi="http://sodipodi.sourceforge.net/DTD/sodipodi-0.dtd"
   xmlns="http://www.w3.org/2000/svg"
   xmlns:svg="http://www.w3.org/2000/svg">
  <defs
     id="defs1" />
  <sodipodi:namedview
     id="namedview1"
     pagecolor="#ffffff"
     bordercolor="#000000"
     borderopacity="0.25"
     inkscape:showpageshadow="2"
     inkscape:pageopacity="0.0"
     inkscape:pagecheckerboard="0"
     inkscape:deskcolor="#d1d1d1">
    <inkscape:page
       x="0"
       y="0"
       inkscape:label="1"
       id="page1"
       width="2304.6667"
       height="2880.6667"
       margin="0"
       bleed="0" />
  </sodipodi:namedview>
  <g
     id="g1"
     inkscape:groupmode="layer"
     inkscape:label="1">
    <g
       id="group-R5">
      <path
         id="path2"
         d="M 17282.5,1082.5 C 17282.5,486 16799,2.5 16202.5,2.5 H 1082.5 C 486.031,2.5 2.5,486 2.5,1082.5 v 19440 c 0,596.5 483.531,1080 1080,1080 h 15120 c 596.5,0 1080,-483.5 1080,-1080 v -19440"
         style="fill:#ffffff;fill-opacity:1;fill-rule:nonzero;stroke:none"
         transform="matrix(0.13333333,0,0,-0.13333333,0,2880.6667)" />
      <path
         id="path3"
         d="M 17282.5,1082.5 C 17282.5,486 16799,2.5 16202.5,2.5 H 1082.5 C 486.031,2.5 2.5,486 2.5,1082.5 v 19440 c 0,596.5 483.531,1080 1080,1080 h 15120 c 596.5,0 1080,-483.5 1080,-1080 z"
         style="fill:none;stroke:#231f20;stroke-width:5;stroke-linecap:butt;stroke-linejoin:miter;stroke-miterlimit:4;stroke-dasharray:none;stroke-opacity:1"
         transform="matrix(0.13333333,0,0,-0.13333333,0,2880.6667)" />
      <path
         id="path4"
         d="m 1082.5,272.5 c -446.637,0 -810,363.402 -810,810 v 19440 c 0,446.6 363.363,810 810,810 h 15120 c 446.6,0 810,-363.4 810,-810 v -19440 c 0,-446.598 -363.4,-810 -810,-810 h -15120"
         style="fill:#231f20;fill-opacity:1;fill-rule:nonzero;stroke:none"
         transform="matrix(0.13333333,0,0,-0.13333333,0,2880.6667)" />
      <path
         id="path5"
         d="m 1082.5,722.5 c -198.508,0 -360,161.5 -360,360 v 19440 c 0,198.5 161.492,360 360,360 h 15120 c 198.5,0 360,-161.5 360,-360 v -19440 c 0,-198.5 -161.5,-360 -360,-360 h -15120"
         style="fill:#ffffff;fill-opacity:1;fill-rule:nonzero;stroke:none"
         transform="matrix(0.13333333,0,0,-0.13333333,0,2880.6667)" />
      <path
         id="path6"
         d="m 7698.01,4582.3 c -91.17,151.6 -202.6,212.2 -374.81,222.3 -222.87,10.1 -364.68,-101 -465.97,-353.7 -70.92,-171.8 -111.43,-434.5 -111.43,-677 0,-303.2 60.76,-616.4 172.19,-798.3 91.19,-151.6 212.73,-222.4 395.08,-222.4 212.73,0 344.41,111.2 445.72,363.8 60.78,151.6 111.42,434.6 111.42,656.9 0,323.3 -60.78,616.4 -172.2,808.4 z m 314.02,-1970.5 c -162.09,-222.4 -395.08,-323.4 -698.96,-323.4 -405.2,0 -658.46,161.7 -830.67,515.4 -121.54,242.5 -202.58,626.5 -202.58,970.1 0,474.9 121.55,899.3 314.03,1172.2 172.2,222.3 405.19,323.4 739.47,323.4 364.69,0 617.93,-161.7 800.27,-515.4 121.55,-252.6 192.46,-616.4 192.46,-980.2 0,-454.8 -111.42,-909.5 -314.02,-1162.1"
         style="fill:#231f20;fill-opacity:1;fill-rule:nonzero;stroke:none"
         transform="matrix(0.13333333,0,0,-0.13333333,0,2880.6667)" />
      <path
         id="path7"
         d="m 3887.27,2342.5 v 384 L 5201.04,4767.7 H 3998.42 v 454.8 H 5847.81 V 4949.6 L 4513.83,2807.3 H 5847.81 V 2342.5 H 3887.27"
         style="fill:#231f20;fill-opacity:1;fill-rule:nonzero;stroke:none"
         transform="matrix(0.13333333,0,0,-0.13333333,0,2880.6667)" />
      <path
         id="path8"
         d="M 10516,2342.5 9414.41,4292.8 V 2342.5 h -454.76 v 2880 h 454.76 L 10465.4,3383.3 v 1839.2 h 454.8 v -2880 H 10516"
         style="fill:#231f20;fill-opacity:1;fill-rule:nonzero;stroke:none"
         transform="matrix(0.13333333,0,0,-0.13333333,0,2880.6667)" />
      <path
         id="path9"
         d="m 11611.4,2342.5 v 2880 h 1695.5 v -454.8 h -1241.4 v -707.3 h 837.7 v -464.9 h -837.7 v -788.2 h 1332.2 v -464.8 h -1786.3"
         style="fill:#231f20;fill-opacity:1;fill-rule:nonzero;stroke:none"
         transform="matrix(0.13333333,0,0,-0.13333333,0,2880.6667)" />
      <path
         id="path10"
         d="M 8540.67,7022.5 7439.11,8972.8 V 7022.5 h -454.77 v 2880 h 454.77 L 8490.12,8063.3 v 1839.2 h 454.76 v -2880 h -404.21"
         style="fill:#231f20;fill-opacity:1;fill-rule:nonzero;stroke:none"
         transform="matrix(0.13333333,0,0,-0.13333333,0,2880.6667)" />
      <path
         id="path11"
         d="m 5832.34,7022.5 v 2880 h 460.8 v -2880 h -460.8"
         style="fill:#231f20;fill-opacity:1;fill-rule:nonzero;stroke:none"
         transform="matrix(0.13333333,0,0,-0.13333333,0,2880.6667)" />
      <path
         id="path12"
         d="m 13388,7197.8 c -161.7,-141.5 -384,-222.3 -626.5,-222.3 -495.2,0 -859,293 -1051.1,727.6 l 434.6,161.6 c 121.3,-272.8 343.6,-424.4 616.5,-424.4 262.7,0 444.6,181.9 444.6,424.4 0,384 -444.6,444.7 -818.6,596.2 -171.8,70.8 -555.8,242.6 -555.8,717.5 0,565.9 384,778.1 899.5,778.1 404.2,0 677,-232.4 818.5,-586.1 l -404.2,-121.2 c 0,0 -101.1,242.5 -424.5,252.6 -212.2,10.1 -464.8,-70.7 -444.6,-333.5 40.4,-535.6 1394.6,-181.9 1394.6,-1313.7 0,-262.7 -101.1,-495.1 -283,-656.8"
         style="fill:#231f20;fill-opacity:1;fill-rule:nonzero;stroke:none"
         transform="matrix(0.13333333,0,0,-0.13333333,0,2880.6667)" />
      <path
         id="path13"
         d="m 9636.09,7022.5 v 2880 h 1695.51 v -454.8 h -1241.4 v -707.3 h 837.7 v -464.9 h -837.7 v -788.2 h 1332.2 V 7022.5 H 9636.09"
         style="fill:#231f20;fill-opacity:1;fill-rule:nonzero;stroke:none"
         transform="matrix(0.13333333,0,0,-0.13333333,0,2880.6667)" />
      <path
         id="path14"
         d="m 4068.17,9447.7 v -707.3 h 837.64 v -464.9 h -837.64 v -1253 h -454.16 v 2880 H 5400.34 V 9447.7 H 4068.17"
         style="fill:#231f20;fill-opacity:1;fill-rule:nonzero;stroke:none"
         transform="matrix(0.13333333,0,0,-0.13333333,0,2880.6667)" />
      <path
         id="path15"
         d="m 13425.9,16382.5 -1101.6,1950.3 v -1950.3 h -454.7 v 2880 h 454.7 l 1051,-1839.2 v 1839.2 h 454.8 v -2880 h -404.2"
         style="fill:#231f20;fill-opacity:1;fill-rule:nonzero;stroke:none"
         transform="matrix(0.13333333,0,0,-0.13333333,0,2880.6667)" />
      <path
         id="path16"
         d="m 10717.5,16382.5 v 2880 h 460.8 v -2880 h -460.8"
         style="fill:#231f20;fill-opacity:1;fill-rule:nonzero;stroke:none"
         transform="matrix(0.13333333,0,0,-0.13333333,0,2880.6667)" />
      <path
         id="path17"
         d="m 5905.05,16382.5 v 2880 h 1695.49 v -454.7 H 6359.19 v -707.4 h 837.68 v -464.8 h -837.68 v -788.3 h 1332.19 v -464.8 H 5905.05"
         style="fill:#231f20;fill-opacity:1;fill-rule:nonzero;stroke:none"
         transform="matrix(0.13333333,0,0,-0.13333333,0,2880.6667)" />
      <path
         id="path18"
         d="m 4677.73,17615.3 c -60.64,20.2 -90.95,20.2 -192.01,20.2 h -576.05 v -788.2 h 687.21 c 232.44,0 353.71,111.2 353.71,333.5 0,192 -111.16,373.9 -272.86,434.5 z m -101.06,1192.5 h -667 v -707.4 h 545.73 c 131.38,0 192.01,20.2 272.86,80.8 101.06,80.9 161.7,202.2 161.7,333.5 0,192 -111.17,293.1 -313.29,293.1 z m 373.92,-2354.6 c -101.05,-40.4 -272.86,-70.7 -404.24,-70.7 H 3454.91 v 2880 h 1091.44 c 454.77,0 798.38,-313.3 798.38,-727.6 0,-282.9 -131.38,-495.1 -404.24,-646.7 303.18,-141.5 474.97,-384 474.97,-697.3 0,-313.2 -192,-626.5 -464.87,-737.7"
         style="fill:#231f20;fill-opacity:1;fill-rule:nonzero;stroke:none"
         transform="matrix(0.13333333,0,0,-0.13333333,0,2880.6667)" />
      <path
         id="path19"
         d="m 9174.41,16332 c -434.55,0 -687.21,161.7 -859,525.4 -121.27,252.7 -192.02,606.4 -192.02,960 0,464.9 131.37,919.6 323.38,1172.3 171.82,212.2 414.36,323.3 737.76,323.3 444.67,0 707.42,-181.9 899.37,-636.6 l -434.51,-171.8 c -121.26,252.6 -242.53,343.6 -464.86,343.6 -232.44,0 -384.04,-101.1 -485.1,-353.7 -70.74,-171.8 -111.17,-434.5 -111.17,-677.1 0,-303.1 50.52,-606.3 141.49,-788.2 90.95,-161.6 222.34,-232.4 394.14,-232.4 293.06,0 505.31,181.9 505.31,444.6 v 121.3 h -525.53 v 454.7 h 980.23 v -576 c 0,-525.4 -383.96,-909.4 -909.49,-909.4"
         style="fill:#231f20;fill-opacity:1;fill-rule:nonzero;stroke:none"
         transform="matrix(0.13333333,0,0,-0.13333333,0,2880.6667)" />
      <path
         id="path20"
         d="m 4679.98,11702.5 v 2880 h 460.8 v -2880 h -460.8"
         style="fill:#231f20;fill-opacity:1;fill-rule:nonzero;stroke:none"
         transform="matrix(0.13333333,0,0,-0.13333333,0,2880.6667)" />
      <path
         id="path21"
         d="m 14559.4,14077.2 c -70.7,40.5 -111.1,50.5 -262.7,50.5 H 13751 v -707.3 h 545.7 c 141.5,0 192,10.1 262.7,50.5 111.2,60.6 182,181.9 182,303.2 0,121.2 -70.8,242.5 -182,303.1 z m 202.2,-2374.7 -464.9,1253.1 H 13751 v -1253.1 h -454.8 v 2880 h 950 c 222.3,0 373.9,-20.2 515.4,-91 252.6,-121.2 434.5,-424.4 434.5,-717.4 0,-303.2 -181.9,-606.4 -444.6,-727.6 l 505.3,-1344 h -495.2"
         style="fill:#231f20;fill-opacity:1;fill-rule:nonzero;stroke:none"
         transform="matrix(0.13333333,0,0,-0.13333333,0,2880.6667)" />
      <path
         id="path22"
         d="m 3534.03,11702.5 v 1253 H 2482.99 v -1253 h -454.76 v 2880 h 454.76 v -1162.1 h 1051.04 v 1162.1 h 454.76 v -2880 h -454.76"
         style="fill:#231f20;fill-opacity:1;fill-rule:nonzero;stroke:none"
         transform="matrix(0.13333333,0,0,-0.13333333,0,2880.6667)" />
      <path
         id="path23"
         d="m 9874.34,11702.5 v 1253 H 8823.3 v -1253 h -454.76 v 2880 h 454.76 v -1162.1 h 1051.04 v 1162.1 h 454.76 v -2880 h -454.76"
         style="fill:#231f20;fill-opacity:1;fill-rule:nonzero;stroke:none"
         transform="matrix(0.13333333,0,0,-0.13333333,0,2880.6667)" />
      <path
         id="path24"
         d="m 11020.3,11702.5 v 2880 h 1695.5 v -454.7 h -1241.4 v -707.4 h 837.7 v -464.9 h -837.7 v -788.2 h 1332.2 v -464.8 h -1786.3"
         style="fill:#231f20;fill-opacity:1;fill-rule:nonzero;stroke:none"
         transform="matrix(0.13333333,0,0,-0.13333333,0,2880.6667)" />
      <path
         id="path25"
         d="m 6825.4,11651.9 c -434.56,0 -687.21,161.7 -859.01,525.5 -121.27,252.7 -192.01,606.3 -192.01,960 0,464.9 131.37,919.6 323.38,1172.2 171.82,212.3 414.35,323.4 737.75,323.4 444.67,0 707.42,-181.9 899.42,-636.6 l -434.55,-171.8 c -121.27,252.6 -242.54,343.6 -464.87,343.6 -232.44,0 -384.04,-101.1 -485.09,-353.7 -70.75,-171.8 -111.18,-434.6 -111.18,-677.1 0,-303.1 50.53,-606.3 141.49,-788.2 90.95,-161.7 222.34,-232.4 394.14,-232.4 293.06,0 505.31,181.9 505.31,444.6 v 121.3 h -525.53 v 454.7 h 980.28 v -576 c 0,-525.5 -384.01,-909.5 -909.53,-909.5"
         style="fill:#231f20;fill-opacity:1;fill-rule:nonzero;stroke:none"
         transform="matrix(0.13333333,0,0,-0.13333333,0,2880.6667)" />
    </g>
  </g>
</svg>
