<?xml version="1.0" encoding="UTF-8"?>
<svg id="For_Sheets" xmlns="http://www.w3.org/2000/svg" version="1.1" viewBox="0 0 1728 1296">
  <!-- Generator: Adobe Illustrator 29.1.0, SVG Export Plug-In . SVG Version: 2.1.0 Build 142)  -->
  <defs>
    <style>
      .st0 {
        fill: #231f20;
      }

      .st1 {
        fill: #fff;
      }
    </style>
  </defs>
  <g>
    <rect class="st1" x="-.1" y="-.1" width="1728.2" height="1296.2" rx="108.1" ry="108.1"/>
    <path class="st0" d="M1620,0c59.6,0,108,48.4,108,108v1080c0,59.6-48.4,108-108,108H108c-59.6,0-108-48.4-108-108V108C0,48.4,48.4,0,108,0h1512M1620-.2H108C79.1-.2,51.9,11,31.5,31.5,11,51.9-.2,79.1-.2,108v1080c0,28.9,11.3,56.1,31.7,76.5,20.4,20.4,47.6,31.7,76.5,31.7h1512c28.9,0,56.1-11.3,76.5-31.7,20.4-20.4,31.7-47.6,31.7-76.5V108c0-28.9-11.3-56.1-31.7-76.5-20.4-20.4-47.6-31.7-76.5-31.7h0Z"/>
  </g>
  <rect class="st0" x="27" y="27" width="1674" height="1242" rx="81" ry="81"/>
  <rect class="st1" x="72" y="72" width="1584" height="1152" rx="36" ry="36"/>
  <g>
    <path class="st0" d="M406.6,368.2h83.8v46.5h-83.8v125.3h-45.4V252h178.6v45.5h-133.2v70.7Z"/>
    <path class="st0" d="M583,252h46.1v288h-46.1V252Z"/>
    <path class="st0" d="M743.6,345v195h-45.4V252h45.4l105.1,183.9v-183.9h45.5v288h-40.4l-110.2-195Z"/>
    <path class="st0" d="M963.4,252h169.6v45.5h-124.1v70.7h83.8v46.5h-83.8v78.8h133.2v46.5h-178.6V252Z"/>
    <path class="st0" d="M1170.8,472.3l43.4-16.2c12.1,27.3,34.3,42.4,61.6,42.4s44.5-18.2,44.5-42.4c0-38.5-44.5-44.5-81.9-59.6-17.2-7.1-55.6-24.3-55.6-71.7s38.4-77.8,89.9-77.8,67.7,23.3,81.9,58.6l-40.4,12.1c-4.5-11.4-21-25.3-42.4-25.3-41.1,0-44.6,21.9-44.6,29.1,0,26.9,23.2,32.3,61,44.1,38.4,12.1,78.6,29.8,78.6,91.5s-50.4,87.8-91,87.8-85.9-29.3-105.1-72.8Z"/>
  </g>
  <g>
    <path class="st0" d="M176.1,1044v-288h103.9c72.7,0,92.2,95.7,92.2,137.5,0,108-55.5,150.5-92,150.5h-104.1ZM273.1,801.5h-51.5v196h48.3c41.9,0,55.7-50.8,55.7-105s-7.3-91-52.4-91Z"/>
    <path class="st0" d="M673.5,940.9v-184.9h45.4v184.9c0,37.4,21.2,61.6,52.6,61.6s52.6-24.2,52.6-61.6v-184.9h45.5v184.9c0,91.1-69.9,108.1-98,108.1s-98-15.1-98-108.1Z"/>
    <path class="st0" d="M924.9,1044v-288h109.1c45.5,0,79.8,31.3,79.8,72.8s-13.1,49.5-40.4,64.7c30.3,14.1,47.5,38.7,47.5,69.7s-11.6,80.9-86.9,80.9h-109.1ZM1037.1,801.5h-66.7v70.7h57.9c25.8,0,40.2-22.5,40.2-41.4s-10.6-29.3-31.3-29.3ZM970.3,918.7v78.8h68.7c23.4,0,35.4-11.1,35.4-33.4s-15.4-45.5-38.9-45.5h-65.2Z"/>
    <path class="st0" d="M1160.1,756h45.4v245.6h133.2v42.4h-178.6v-288Z"/>
    <path class="st0" d="M1373.3,756h169.6v45.5h-124.1v70.7h83.8v46.5h-83.8v78.8h133.2v46.5h-178.6v-288Z"/>
    <path class="st0" d="M622.8,900c0,10.3,2.2,149-102.3,149s-102.3-138.7-102.3-149-2.2-149,102.3-149,102.3,138.7,102.3,149ZM521,1002.6c31,0,56.2-29.4,56.2-102.6s-25.2-102.6-56.2-102.6-56.2,29.4-56.2,102.6,25.2,102.6,56.2,102.6Z"/>
  </g>
</svg>