<?xml version="1.0" encoding="UTF-8" standalone="no"?>
<!-- Created with Inkscape (http://www.inkscape.org/) -->

<svg
   version="1.1"
   id="svg1"
   width="3456.6667"
   height="4608.6665"
   viewBox="0 0 3456.6667 4608.6665"
   sodipodi:docname="tmpo09sbllt.pdf"
   xmlns:inkscape="http://www.inkscape.org/namespaces/inkscape"
   xmlns:sodipodi="http://sodipodi.sourceforge.net/DTD/sodipodi-0.dtd"
   xmlns="http://www.w3.org/2000/svg"
   xmlns:svg="http://www.w3.org/2000/svg">
  <defs
     id="defs1" />
  <sodipodi:namedview
     id="namedview1"
     pagecolor="#ffffff"
     bordercolor="#000000"
     borderopacity="0.25"
     inkscape:showpageshadow="2"
     inkscape:pageopacity="0.0"
     inkscape:pagecheckerboard="0"
     inkscape:deskcolor="#d1d1d1">
    <inkscape:page
       x="0"
       y="0"
       inkscape:label="1"
       id="page1"
       width="3456.6667"
       height="4608.6665"
       margin="0"
       bleed="0" />
  </sodipodi:namedview>
  <g
     id="g1"
     inkscape:groupmode="layer"
     inkscape:label="1">
    <g
       id="group-R5">
      <path
         id="path2"
         d="m 25922.5,1622.5 c 0,-894.699 -725.3,-1620 -1620,-1620 H 1622.5 C 727.805,2.5 2.5,727.801 2.5,1622.5 v 31320 c 0,894.7 725.305,1620 1620.01,1620 H 24302.5 c 894.7,0 1620,-725.3 1620,-1620 v -31320"
         style="fill:#ffffff;fill-opacity:1;fill-rule:nonzero;stroke:none"
         transform="matrix(0.13333333,0,0,-0.13333333,0,4608.6667)" />
      <path
         id="path3"
         d="m 25922.5,1622.5 c 0,-894.699 -725.3,-1620 -1620,-1620 H 1622.5 C 727.805,2.5 2.5,727.801 2.5,1622.5 v 31320 c 0,894.7 725.305,1620 1620.01,1620 H 24302.5 c 894.7,0 1620,-725.3 1620,-1620 z"
         style="fill:none;stroke:#231f20;stroke-width:5;stroke-linecap:butt;stroke-linejoin:miter;stroke-miterlimit:4;stroke-dasharray:none;stroke-opacity:1"
         transform="matrix(0.13333333,0,0,-0.13333333,0,4608.6667)" />
      <path
         id="path4"
         d="m 1622.5,452.5 c -645.137,0 -1170,524.898 -1170,1170 v 31320 c 0,645.1 524.863,1170 1170,1170 h 22680 c 645.1,0 1170,-524.9 1170,-1170 v -31320 c 0,-645.102 -524.9,-1170 -1170,-1170 h -22680"
         style="fill:#231f20;fill-opacity:1;fill-rule:nonzero;stroke:none"
         transform="matrix(0.13333333,0,0,-0.13333333,0,4608.6667)" />
      <path
         id="path5"
         d="m 1622.5,1082.5 c -297.75,0 -540,242.3 -540,540 v 31320 c 0,297.8 242.25,540 540,540 h 22680 c 297.8,0 540,-242.2 540,-540 v -31320 c 0,-297.7 -242.2,-540 -540,-540 h -22680"
         style="fill:#ffffff;fill-opacity:1;fill-rule:nonzero;stroke:none"
         transform="matrix(0.13333333,0,0,-0.13333333,0,4608.6667)" />
      <path
         id="path6"
         d="m 11545.8,7682.2 c -136.8,227.3 -303.9,318.3 -562.2,333.4 -334.4,15.2 -547.1,-151.5 -699,-530.5 -106.4,-257.7 -167.1,-651.8 -167.1,-1015.6 0,-454.7 91.1,-924.6 258.2,-1197.4 136.8,-227.4 319.1,-333.5 592.6,-333.5 319.2,0 516.7,166.7 668.6,545.6 91.2,227.4 167.2,651.8 167.2,985.3 0,485.1 -91.2,924.6 -258.3,1212.7 z m 471,-2955.8 c -243.1,-333.5 -592.6,-485.1 -1048.5,-485.1 -607.7,0 -987.64,242.5 -1245.95,773.1 -182.31,363.8 -303.86,939.7 -303.86,1455.1 0,712.4 182.31,1349.1 471.03,1758.3 258.28,333.5 607.78,485.1 1109.18,485.1 547.1,0 926.9,-242.5 1200.4,-773.1 182.4,-378.9 288.7,-924.6 288.7,-1470.3 0,-682.1 -167.1,-1364.2 -471,-1743.1"
         style="fill:#231f20;fill-opacity:1;fill-rule:nonzero;stroke:none"
         transform="matrix(0.13333333,0,0,-0.13333333,0,4608.6667)" />
      <path
         id="path7"
         d="m 5829.65,4322.4 v 576 L 7800.3,7960.3 H 5996.38 v 682.1 H 8770.47 V 8233.2 L 6769.49,5019.7 H 8770.47 V 4322.4 H 5829.65"
         style="fill:#231f20;fill-opacity:1;fill-rule:nonzero;stroke:none"
         transform="matrix(0.13333333,0,0,-0.13333333,0,4608.6667)" />
      <path
         id="path8"
         d="M 15772.7,4322.4 14120.4,7247.9 V 4322.4 h -682.2 v 4320 h 682.2 l 1576.5,-2758.7 v 2758.7 h 682.1 v -4320 h -606.3"
         style="fill:#231f20;fill-opacity:1;fill-rule:nonzero;stroke:none"
         transform="matrix(0.13333333,0,0,-0.13333333,0,4608.6667)" />
      <path
         id="path9"
         d="m 17415.9,4322.4 v 4320 h 2543.2 v -682.1 h -1862 v -1061 h 1256.5 V 6202 H 18097.1 V 5019.7 h 1998.3 v -697.3 h -2679.5"
         style="fill:#231f20;fill-opacity:1;fill-rule:nonzero;stroke:none"
         transform="matrix(0.13333333,0,0,-0.13333333,0,4608.6667)" />
      <path
         id="path10"
         d="m 12809.8,11522.4 -1652.4,2925.5 v -2925.5 h -682.1 v 4320.1 h 682.1 l 1576.5,-2758.8 v 2758.8 h 682.2 v -4320.1 h -606.3"
         style="fill:#231f20;fill-opacity:1;fill-rule:nonzero;stroke:none"
         transform="matrix(0.13333333,0,0,-0.13333333,0,4608.6667)" />
      <path
         id="path11"
         d="m 8747.26,11522.4 v 4320.1 h 691.2 v -4320.1 h -691.2"
         style="fill:#231f20;fill-opacity:1;fill-rule:nonzero;stroke:none"
         transform="matrix(0.13333333,0,0,-0.13333333,0,4608.6667)" />
      <path
         id="path12"
         d="m 20080.8,11785.4 c -242.6,-212.2 -576.1,-333.5 -939.9,-333.5 -742.8,0 -1288.5,439.6 -1576.5,1091.4 l 651.9,242.5 c 181.8,-409.2 515.3,-636.6 924.6,-636.6 394.2,0 667,272.8 667,636.6 0,576 -667,667 -1227.9,894.3 -257.6,106.1 -833.7,363.8 -833.7,1076.3 0,848.8 576.1,1167.1 1349.2,1167.1 606.3,0 1015.6,-348.6 1227.8,-879.2 l -606.3,-181.8 c 0,0 -151.6,363.7 -636.7,378.9 -318.3,15.2 -697.3,-106.1 -667,-500.2 60.6,-803.4 2091.9,-272.9 2091.9,-1970.5 0,-394.1 -151.6,-742.8 -424.4,-985.3"
         style="fill:#231f20;fill-opacity:1;fill-rule:nonzero;stroke:none"
         transform="matrix(0.13333333,0,0,-0.13333333,0,4608.6667)" />
      <path
         id="path13"
         d="m 14452.9,11522.4 v 4320.1 h 2543.2 v -682.2 h -1862 v -1061 h 1256.5 V 13402 h -1256.5 v -1182.3 h 1998.3 v -697.3 h -2679.5"
         style="fill:#231f20;fill-opacity:1;fill-rule:nonzero;stroke:none"
         transform="matrix(0.13333333,0,0,-0.13333333,0,4608.6667)" />
      <path
         id="path14"
         d="m 6101.01,15160.3 v -1061 H 7357.46 V 13402 H 6101.01 v -1879.6 h -681.24 v 4320.1 h 2679.49 v -682.2 H 6101.01"
         style="fill:#231f20;fill-opacity:1;fill-rule:nonzero;stroke:none"
         transform="matrix(0.13333333,0,0,-0.13333333,0,4608.6667)" />
      <path
         id="path15"
         d="m 7018.71,18722.5 v 4320 h 691.2 v -4320 h -691.2"
         style="fill:#231f20;fill-opacity:1;fill-rule:nonzero;stroke:none"
         transform="matrix(0.13333333,0,0,-0.13333333,0,4608.6667)" />
      <path
         id="path16"
         d="m 21837.9,22284.6 c -106.1,60.6 -166.7,75.8 -394.1,75.8 h -818.6 v -1061.1 h 818.6 c 212.2,0 288,15.2 394.1,75.8 166.8,90.9 272.9,272.8 272.9,454.7 0,181.9 -106.1,363.8 -272.9,454.8 z m 303.2,-3562.1 -697.3,1879.6 h -818.6 v -1879.6 h -682.1 v 4320 H 21368 c 333.5,0 560.9,-30.3 773.1,-136.5 379,-181.9 651.8,-636.6 651.8,-1076.2 0,-454.7 -272.8,-909.4 -667,-1091.3 l 758,-2016 h -742.8"
         style="fill:#231f20;fill-opacity:1;fill-rule:nonzero;stroke:none"
         transform="matrix(0.13333333,0,0,-0.13333333,0,4608.6667)" />
      <path
         id="path17"
         d="m 5299.79,18722.5 v 1879.6 H 3723.24 v -1879.6 h -682.15 v 4320 h 682.15 v -1743.2 h 1576.55 v 1743.2 h 682.15 v -4320 h -682.15"
         style="fill:#231f20;fill-opacity:1;fill-rule:nonzero;stroke:none"
         transform="matrix(0.13333333,0,0,-0.13333333,0,4608.6667)" />
      <path
         id="path18"
         d="m 14810.3,18722.5 v 1879.6 h -1576.6 v -1879.6 h -682.1 v 4320 h 682.1 v -1743.2 h 1576.6 v 1743.2 h 682.1 v -4320 h -682.1"
         style="fill:#231f20;fill-opacity:1;fill-rule:nonzero;stroke:none"
         transform="matrix(0.13333333,0,0,-0.13333333,0,4608.6667)" />
      <path
         id="path19"
         d="m 16529.2,18722.5 v 4320 h 2543.2 v -682.1 h -1862 v -1061.1 h 1256.5 V 20602 h -1256.5 v -1182.3 h 1998.3 v -697.2 h -2679.5"
         style="fill:#231f20;fill-opacity:1;fill-rule:nonzero;stroke:none"
         transform="matrix(0.13333333,0,0,-0.13333333,0,4608.6667)" />
      <path
         id="path20"
         d="m 10236.8,18646.7 c -651.78,0 -1030.76,242.5 -1288.46,788.2 -181.9,378.9 -288.02,909.5 -288.02,1440 0,697.2 197.05,1379.4 485.07,1758.3 257.73,318.3 621.53,485.1 1106.61,485.1 667,0 1061.2,-272.9 1349.1,-955 l -651.8,-257.7 c -181.9,379 -363.8,515.4 -697.3,515.4 -348.64,0 -576.04,-151.6 -727.62,-530.5 -106.12,-257.7 -166.76,-651.8 -166.76,-1015.6 0,-454.8 75.79,-909.5 212.22,-1182.3 136.44,-242.6 333.52,-348.7 591.26,-348.7 439.6,0 757.9,272.9 757.9,667 v 181.9 h -788.3 v 682.1 h 1470.4 v -864 c 0,-788.2 -576,-1364.2 -1364.3,-1364.2"
         style="fill:#231f20;fill-opacity:1;fill-rule:nonzero;stroke:none"
         transform="matrix(0.13333333,0,0,-0.13333333,0,4608.6667)" />
      <path
         id="path21"
         d="M 13544.7,25922.5 11892.4,28848 v -2925.5 h -682.2 v 4320 h 682.2 l 1576.5,-2758.7 v 2758.7 h 682.1 v -4320 h -606.3"
         style="fill:#231f20;fill-opacity:1;fill-rule:nonzero;stroke:none"
         transform="matrix(0.13333333,0,0,-0.13333333,0,4608.6667)" />
      <path
         id="path22"
         d="m 17082.7,29378.5 c -106.1,106.1 -257.7,181.9 -439.6,181.9 H 15870 v -2940.6 h 682.2 c 227.4,0 363.8,45.4 485,166.7 257.8,257.7 394.2,727.6 394.2,1303.6 0,576 -136.4,1061 -348.7,1288.4 z m 288.1,-3213.5 c -166.8,-151.6 -394.2,-227.4 -621.6,-242.5 -45.4,0 -136.4,0 -242.5,0 h -1318.8 v 4320 h 1394.6 c 439.6,0 606.4,-45.5 833.7,-227.4 454.8,-394.1 712.5,-1076.2 712.5,-1925 0,-864 -272.9,-1546.1 -757.9,-1925.1"
         style="fill:#231f20;fill-opacity:1;fill-rule:nonzero;stroke:none"
         transform="matrix(0.13333333,0,0,-0.13333333,0,4608.6667)" />
      <path
         id="path23"
         d="m 7796.3,25922.5 v 4320 h 2543.2 v -682.1 H 8477.51 v -1061.1 h 1256.5 v -697.2 h -1256.5 v -1182.3 h 1998.29 v -697.3 H 7796.3"
         style="fill:#231f20;fill-opacity:1;fill-rule:nonzero;stroke:none"
         transform="matrix(0.13333333,0,0,-0.13333333,0,4608.6667)" />
    </g>
  </g>
</svg>
