<?xml version="1.0" encoding="UTF-8" standalone="no"?>
<!-- Created with Inkscape (http://www.inkscape.org/) -->

<svg
   version="1.1"
   id="svg1"
   width="3456.6667"
   height="5760.6665"
   viewBox="0 0 3456.6667 5760.6665"
   sodipodi:docname="tmpeiga82z4.pdf"
   xmlns:inkscape="http://www.inkscape.org/namespaces/inkscape"
   xmlns:sodipodi="http://sodipodi.sourceforge.net/DTD/sodipodi-0.dtd"
   xmlns="http://www.w3.org/2000/svg"
   xmlns:svg="http://www.w3.org/2000/svg">
  <defs
     id="defs1" />
  <sodipodi:namedview
     id="namedview1"
     pagecolor="#ffffff"
     bordercolor="#000000"
     borderopacity="0.25"
     inkscape:showpageshadow="2"
     inkscape:pageopacity="0.0"
     inkscape:pagecheckerboard="0"
     inkscape:deskcolor="#d1d1d1">
    <inkscape:page
       x="0"
       y="0"
       inkscape:label="1"
       id="page1"
       width="3456.6667"
       height="5760.6665"
       margin="0"
       bleed="0" />
  </sodipodi:namedview>
  <g
     id="g1"
     inkscape:groupmode="layer"
     inkscape:label="1">
    <g
       id="group-R5">
      <path
         id="path2"
         d="M 1622.5,1.20313 C 1191.24,1.20313 784.602,170.398 477.488,477.5 170.387,784.602 1.25391,1191.2 1.25391,1622.5 v 39960 c 0,431.3 169.13309,837.9 476.23409,1145 307.09,307.1 713.762,476.2 1144.992,476.2 0.02,0 22680.02,0 22680.02,0 431.3,0 837.9,-169.1 1145,-476.2 307.1,-307.1 476.3,-713.7 476.3,-1145 v -39960 c 0,-431.3 -169.2,-837.898 -476.3,-1145 C 25140.4,170.398 24733.8,1.20313 24302.5,1.20313 h -22680"
         style="fill:#ffffff;fill-opacity:1;fill-rule:nonzero;stroke:none"
         transform="matrix(0.13333333,0,0,-0.13333333,0,5760.6667)" />
      <path
         id="path3"
         d="m 24302.5,43205 h -22680 c -218.07,0 -430.03,-43.1 -629.996,-128 -193.031,-82 -366.606,-199.3 -515.899,-348.6 -149.289,-149.3 -266.57,-322.9 -348.578,-515.9 C 43.0742,42012.5 0,41800.6 0,41582.5 v -39960 c 0,-218.1 43.0742,-430 128.027,-630 C 210.035,799.5 327.316,625.898 476.605,476.602 625.898,327.301 799.473,210 992.504,128 1192.47,43.1016 1404.43,0 1622.5,0 h 22680 c 218.1,0 430,43.1016 630,128 193,82 366.6,199.301 515.9,348.602 149.3,149.296 266.6,322.898 348.6,515.898 84.9,200 128,411.9 128,630 v 39960 c 0,218.1 -43.1,430 -128,630 -82,193 -199.3,366.6 -348.6,515.9 -149.3,149.3 -322.9,266.6 -515.9,348.6 -200,84.9 -411.9,128 -630,128 z m 0,-2.5 c 891,0 1620,-729 1620,-1620 v -39960 c 0,-891 -729,-1620 -1620,-1620 h -22680 c -891,0 -1620,729 -1620,1620 v 39960 c 0,891 729,1620 1620,1620 h 22680"
         style="fill:#231f20;fill-opacity:1;fill-rule:nonzero;stroke:none"
         transform="matrix(0.13333333,0,0,-0.13333333,0,5760.6667)" />
      <path
         id="path4"
         d="m 1622.5,452.5 c -310.73,0 -604.05,122.203 -825.93,344.102 C 574.691,1018.5 452.5,1311.8 452.5,1622.5 v 39960 c 0,310.7 122.191,604.1 344.07,825.9 221.88,221.9 515.2,344.1 825.93,344.1 h 22680 c 310.7,0 604,-122.2 825.9,-344.1 221.9,-221.8 344.1,-515.2 344.1,-825.9 v -39960 c 0,-310.7 -122.2,-604 -344.1,-825.898 C 24906.5,574.703 24613.2,452.5 24302.5,452.5 h -22680"
         style="fill:#231f20;fill-opacity:1;fill-rule:nonzero;stroke:none"
         transform="matrix(0.13333333,0,0,-0.13333333,0,5760.6667)" />
      <path
         id="path5"
         d="m 1082.5,30512.5 v -28890 c 0,-144.5 55.18,-276.1 159.54,-380.4 104.39,-104.4 235.95,-159.6 380.46,-159.6 h 22680 c 144.5,0 276.1,55.2 380.4,159.5 104.4,104.4 159.6,236 159.6,380.5 v 28890 h -23760"
         style="fill:#ffffff;fill-opacity:1;fill-rule:nonzero;stroke:none"
         transform="matrix(0.13333333,0,0,-0.13333333,0,5760.6667)" />
      <path
         id="path6"
         d="m 10442.5,36632.5 2520.1,5040 2519.9,-5040 -2519.9,-5040 -2520.1,5040"
         style="fill:#ffffff;fill-opacity:1;fill-rule:evenodd;stroke:none"
         transform="matrix(0.13333333,0,0,-0.13333333,0,5760.6667)" />
      <path
         id="path7"
         d="m 11348.1,36632.5 1614.5,3228.8 1614.3,-3228.8 -1614.3,-3228.8 -1614.5,3228.8"
         style="fill:#231f20;fill-opacity:1;fill-rule:evenodd;stroke:none"
         transform="matrix(0.13333333,0,0,-0.13333333,0,5760.6667)" />
      <path
         id="path8"
         d="m 9389.62,22052.5 h 454.3 v -2455.6 h 1331.98 v -424.4 H 9389.62 v 2880"
         style="fill:#231f20;fill-opacity:1;fill-rule:nonzero;stroke:none"
         transform="matrix(0.13333333,0,0,-0.13333333,0,5760.6667)" />
      <path
         id="path9"
         d="m 15704.8,19172.5 -456.5,1849.3 -446,-1849.3 h -405.7 l -425.5,2880 h 466.2 l 223.1,-1516 364.7,1516 h 446.4 l 374.7,-1516 223.2,1516 h 466.2 l -425.8,-2880 h -405"
         style="fill:#231f20;fill-opacity:1;fill-rule:nonzero;stroke:none"
         transform="matrix(0.13333333,0,0,-0.13333333,0,5760.6667)" />
      <path
         id="path10"
         d="m 4663.06,17192.5 h 1695.52 v -454.7 H 5117.36 v -707.4 h 837.68 v -464.8 h -837.68 v -788.4 H 6449.3 v -464.7 H 4663.06 v 2880"
         style="fill:#231f20;fill-opacity:1;fill-rule:nonzero;stroke:none"
         transform="matrix(0.13333333,0,0,-0.13333333,0,5760.6667)" />
      <path
         id="path11"
         d="M 8731.01,15980 8063.23,14312.5 7394.75,15980 v -1667.5 h -455.74 v 2880 h 455.74 l 668.48,-1616.8 667.78,1616.8 h 455.73 v -2880 H 8731.01 V 15980"
         style="fill:#231f20;fill-opacity:1;fill-rule:nonzero;stroke:none"
         transform="matrix(0.13333333,0,0,-0.13333333,0,5760.6667)" />
      <path
         id="path12"
         d="m 9878.06,17192.5 h 460.74 v -2880 h -460.74 v 2880"
         style="fill:#231f20;fill-opacity:1;fill-rule:nonzero;stroke:none"
         transform="matrix(0.13333333,0,0,-0.13333333,0,5760.6667)" />
      <path
         id="path13"
         d="m 10828.4,14989.6 434.5,161.7 c 121.4,-272.9 343.5,-424.5 616.3,-424.5 262.8,0 445,181.8 445,424.5 0,385.2 -444.6,444.6 -818.6,596.1 -171.7,71 -555.8,242.7 -555.8,717.5 0,566.3 383.7,777.6 899.2,777.6 404.3,0 677.1,-232.5 818.6,-586.1 l -404.3,-121.3 c -45.3,113.8 -209.8,252.7 -424.4,252.7 -410.7,0 -445.6,-219.2 -445.6,-291.2 0,-269.3 232.1,-322.6 609.8,-441 384.4,-121 785.8,-297.7 785.8,-915.1 0,-621.7 -504,-878.4 -909.7,-878.4 -495.3,0 -858.9,293 -1050.8,727.5"
         style="fill:#231f20;fill-opacity:1;fill-rule:nonzero;stroke:none"
         transform="matrix(0.13333333,0,0,-0.13333333,0,5760.6667)" />
      <path
         id="path14"
         d="m 13077,14989.6 434.5,161.7 c 121.4,-272.9 343.5,-424.5 616.3,-424.5 262.8,0 445,181.8 445,424.5 0,385.2 -444.6,444.6 -818.6,596.1 -171.8,71 -555.9,242.7 -555.9,717.5 0,566.3 383.8,777.6 899.3,777.6 404.3,0 677.1,-232.5 818.6,-586.1 l -404.3,-121.3 c -45.3,113.8 -209.8,252.7 -424.4,252.7 -410.7,0 -445.6,-219.2 -445.6,-291.2 0,-269.3 232.1,-322.6 609.8,-441 384.4,-121 785.8,-297.7 785.8,-915.1 0,-621.7 -504,-878.4 -909.7,-878.4 -495.3,0 -858.9,293 -1050.8,727.5"
         style="fill:#231f20;fill-opacity:1;fill-rule:nonzero;stroke:none"
         transform="matrix(0.13333333,0,0,-0.13333333,0,5760.6667)" />
      <path
         id="path15"
         d="m 15527.2,17192.5 h 460.8 v -2880 h -460.8 v 2880"
         style="fill:#231f20;fill-opacity:1;fill-rule:nonzero;stroke:none"
         transform="matrix(0.13333333,0,0,-0.13333333,0,5760.6667)" />
      <path
         id="path16"
         d="m 19755.8,16262.6 v -1950.1 h -454.3 v 2880 h 454.3 l 1051.1,-1839.3 v 1839.3 h 455 v -2880 h -404.2 l -1101.9,1950.1"
         style="fill:#231f20;fill-opacity:1;fill-rule:nonzero;stroke:none"
         transform="matrix(0.13333333,0,0,-0.13333333,0,5760.6667)" />
      <path
         id="path17"
         d="m 5129.22,9452.5 -912.56,2880 h 476.62 l 618.45,-1919.9 608.38,1919.9 h 486.69 l -922.63,-2880 h -354.95"
         style="fill:#231f20;fill-opacity:1;fill-rule:nonzero;stroke:none"
         transform="matrix(0.13333333,0,0,-0.13333333,0,5760.6667)" />
      <path
         id="path18"
         d="m 6838.91,12332.5 h 1695.53 v -454.7 H 7293.21 v -707.4 h 837.69 v -464.8 H 7293.21 V 9917.2 H 8625.15 V 9452.5 H 6838.91 v 2880"
         style="fill:#231f20;fill-opacity:1;fill-rule:nonzero;stroke:none"
         transform="matrix(0.13333333,0,0,-0.13333333,0,5760.6667)" />
      <path
         id="path19"
         d="M 10620.7,10705.6 H 9569.16 V 9452.5 h -454.3 v 2880 h 454.3 v -1162.1 h 1051.14 v 1162.1 h 455 v -2880 h -454.6 v 1253.1"
         style="fill:#231f20;fill-opacity:1;fill-rule:nonzero;stroke:none"
         transform="matrix(0.13333333,0,0,-0.13333333,0,5760.6667)" />
      <path
         id="path20"
         d="m 11766.6,12332.5 h 460.8 v -2880 h -460.8 v 2880"
         style="fill:#231f20;fill-opacity:1;fill-rule:nonzero;stroke:none"
         transform="matrix(0.13333333,0,0,-0.13333333,0,5760.6667)" />
      <path
         id="path21"
         d="m 12861,10897.5 c 0,405 81.4,1485 1060.9,1485 417.6,0 702,-169.9 899.6,-586.1 l -424.4,-181.8 c -147.3,211.7 -220.7,303.1 -474.9,303.1 -602.6,0 -596.1,-839.8 -596.1,-1020.5 0,-178.6 -11.1,-1031.1 616.3,-1031.1 220,0 346.3,132.9 444.6,333.7 l 434.5,-161.6 c -162,-400.7 -434.2,-636.1 -869.4,-636.1 -1036.4,0 -1091.1,1144.8 -1091.1,1495.4"
         style="fill:#231f20;fill-opacity:1;fill-rule:nonzero;stroke:none"
         transform="matrix(0.13333333,0,0,-0.13333333,0,5760.6667)" />
      <path
         id="path22"
         d="m 15455.2,12332.5 h 454.3 V 9876.9 h 1331.9 v -424.4 h -1786.2 v 2880"
         style="fill:#231f20;fill-opacity:1;fill-rule:nonzero;stroke:none"
         transform="matrix(0.13333333,0,0,-0.13333333,0,5760.6667)" />
      <path
         id="path23"
         d="M 17673.5,12332.5 H 19369 v -454.7 h -1241.2 v -707.4 h 837.7 v -464.8 h -837.7 v -788.4 h 1332 v -464.7 h -1786.3 v 2880"
         style="fill:#231f20;fill-opacity:1;fill-rule:nonzero;stroke:none"
         transform="matrix(0.13333333,0,0,-0.13333333,0,5760.6667)" />
      <path
         id="path24"
         d="m 19747.9,10129.6 434.5,161.7 c 121.3,-272.9 343.4,-424.5 616.3,-424.5 262.8,0 444.9,181.8 444.9,424.5 0,385.2 -444.6,444.6 -818.6,596.1 -171.7,71 -555.8,242.7 -555.8,717.5 0,566.3 383.7,777.6 899.2,777.6 404.3,0 677.2,-232.6 818.6,-586.1 l -404.2,-121.3 c -45.4,113.8 -209.9,252.7 -424.5,252.7 -410.7,0 -445.6,-219.2 -445.6,-291.2 0,-269.3 232.2,-322.6 609.8,-441 384.5,-121 785.8,-297.7 785.8,-915.1 0,-621.7 -503.9,-878.4 -909.6,-878.4 -495.4,0 -859,293 -1050.8,727.5"
         style="fill:#231f20;fill-opacity:1;fill-rule:nonzero;stroke:none"
         transform="matrix(0.13333333,0,0,-0.13333333,0,5760.6667)" />
      <path
         id="path25"
         d="m 5440.62,5865.8 h 579.21 L 5735.08,6674 Z M 6182.18,5401 H 5277.9 l -284.74,-808.5 h -487.78 l 996.07,2880 h 457.54 l 995.72,-2880 H 6466.93 L 6182.18,5401"
         style="fill:#231f20;fill-opacity:1;fill-rule:nonzero;stroke:none"
         transform="matrix(0.13333333,0,0,-0.13333333,0,5760.6667)" />
      <path
         id="path26"
         d="m 7386.84,7472.5 h 454.3 V 5016.9 H 9173.07 V 4592.5 H 7386.84 v 2880"
         style="fill:#231f20;fill-opacity:1;fill-rule:nonzero;stroke:none"
         transform="matrix(0.13333333,0,0,-0.13333333,0,5760.6667)" />
      <path
         id="path27"
         d="m 9605.16,7472.5 h 454.34 V 5016.9 h 1331.9 V 4592.5 H 9605.16 v 2880"
         style="fill:#231f20;fill-opacity:1;fill-rule:nonzero;stroke:none"
         transform="matrix(0.13333333,0,0,-0.13333333,0,5760.6667)" />
      <path
         id="path28"
         d="m 15920.2,4592.5 -456.4,1849.3 -446,-1849.3 h -405.7 l -425.5,2880 h 466.1 l 223.2,-1516 364.7,1516 h 446.4 l 374.7,-1516 223.2,1516 h 466.2 l -425.9,-2880 h -405"
         style="fill:#231f20;fill-opacity:1;fill-rule:nonzero;stroke:none"
         transform="matrix(0.13333333,0,0,-0.13333333,0,5760.6667)" />
      <path
         id="path29"
         d="m 17183.2,7472.5 h 1695.5 v -454.7 h -1241.2 v -707.4 h 837.7 v -464.8 h -837.7 v -788.4 h 1331.9 v -464.7 h -1786.2 v 2880"
         style="fill:#231f20;fill-opacity:1;fill-rule:nonzero;stroke:none"
         transform="matrix(0.13333333,0,0,-0.13333333,0,5760.6667)" />
      <path
         id="path30"
         d="m 20428.9,7017.8 h -515.5 V 5057.6 h 483.5 c 419,0 556.5,507.6 556.5,1049.8 0,257.7 -73.4,910.4 -524.5,910.4 z m -969.8,-2425.3 v 2880 h 1039 c 726.8,0 921.5,-957.3 921.5,-1375.2 0,-1080.4 -555.4,-1504.8 -919.7,-1504.8 h -1040.8"
         style="fill:#231f20;fill-opacity:1;fill-rule:nonzero;stroke:none"
         transform="matrix(0.13333333,0,0,-0.13333333,0,5760.6667)" />
      <path
         id="path31"
         d="m 2168.01,26912.5 h 460.78 v -2880 h -460.78 v 2880"
         style="fill:#231f20;fill-opacity:1;fill-rule:nonzero;stroke:none"
         transform="matrix(0.13333333,0,0,-0.13333333,0,5760.6667)" />
      <path
         id="path32"
         d="m 3636.08,25982.6 v -1950.1 h -454.29 v 2880 h 454.29 l 1051.15,-1839.2 v 1839.2 h 455.02 v -2880 h -404.26 l -1101.91,1950.1"
         style="fill:#231f20;fill-opacity:1;fill-rule:nonzero;stroke:none"
         transform="matrix(0.13333333,0,0,-0.13333333,0,5760.6667)" />
      <path
         id="path33"
         d="m 7201.15,25285.7 h -1051.5 v -1253.2 h -454.3 v 2880 h 454.3 v -1162.1 h 1051.14 v 1162.1 h 455.02 v -2880 h -454.66 v 1253.2"
         style="fill:#231f20;fill-opacity:1;fill-rule:nonzero;stroke:none"
         transform="matrix(0.13333333,0,0,-0.13333333,0,5760.6667)" />
      <path
         id="path34"
         d="m 8208.91,26912.5 h 1695.51 v -454.7 H 8663.21 v -707.4 h 837.67 v -464.7 h -837.67 v -788.4 h 1331.93 v -464.8 H 8208.91 v 2880"
         style="fill:#231f20;fill-opacity:1;fill-rule:nonzero;stroke:none"
         transform="matrix(0.13333333,0,0,-0.13333333,0,5760.6667)" />
      <path
         id="path35"
         d="m 11413.2,25750.4 c 361.4,0 418.3,260.7 418.3,353.5 0,125.7 -93.9,353.9 -396.3,353.9 h -594 v -707.4 z m -572,-464.4 v -1253.5 h -454.3 v 2880 h 1041.8 c 660.2,0 858.2,-528.1 858.2,-808.9 0,-106.9 -39.6,-528.1 -447.1,-721.1 l 507.6,-1350 H 11852 l -464.7,1253.5 h -546.1"
         style="fill:#231f20;fill-opacity:1;fill-rule:nonzero;stroke:none"
         transform="matrix(0.13333333,0,0,-0.13333333,0,5760.6667)" />
      <path
         id="path36"
         d="m 12739.1,26912.5 h 1695.6 v -454.7 h -1241.3 v -707.4 h 837.7 v -464.7 h -837.7 v -788.4 h 1332 v -464.8 h -1786.3 v 2880"
         style="fill:#231f20;fill-opacity:1;fill-rule:nonzero;stroke:none"
         transform="matrix(0.13333333,0,0,-0.13333333,0,5760.6667)" />
      <path
         id="path37"
         d="m 15371.4,25982.6 v -1950.1 h -454.3 v 2880 h 454.3 l 1051.2,-1839.2 v 1839.2 h 455 v -2880 h -404.3 l -1101.9,1950.1"
         style="fill:#231f20;fill-opacity:1;fill-rule:nonzero;stroke:none"
         transform="matrix(0.13333333,0,0,-0.13333333,0,5760.6667)" />
      <path
         id="path38"
         d="m 18339.7,24032.5 h -456.9 v 2475.7 h -659.4 v 404.3 h 1786.2 v -404.3 h -669.9 v -2475.7"
         style="fill:#231f20;fill-opacity:1;fill-rule:nonzero;stroke:none"
         transform="matrix(0.13333333,0,0,-0.13333333,0,5760.6667)" />
      <path
         id="path39"
         d="m 19355.3,26912.5 h 454.3 v -2455.6 h 1331.9 v -424.4 h -1786.2 v 2880"
         style="fill:#231f20;fill-opacity:1;fill-rule:nonzero;stroke:none"
         transform="matrix(0.13333333,0,0,-0.13333333,0,5760.6667)" />
      <path
         id="path40"
         d="m 22752.5,24032.5 h -457.2 v 1253.2 l -1015.5,1626.8 h 548.6 l 690.5,-1111.7 700.9,1111.7 h 538.1 l -1005.4,-1626.8 v -1253.2"
         style="fill:#231f20;fill-opacity:1;fill-rule:nonzero;stroke:none"
         transform="matrix(0.13333333,0,0,-0.13333333,0,5760.6667)" />
      <path
         id="path41"
         d="m 12578.5,19586.5 c 310.3,0 562.3,294.1 562.3,1026 0,731.9 -252,1026 -562.3,1026 -310.3,0 -562.3,-293.8 -562.3,-1026 0,-731.9 252,-1026 562.3,-1026 z m 1018.1,1026 c 0,-103.3 21.9,-1490.4 -1023.1,-1490.4 -1045.1,0 -1023.1,1387.1 -1023.1,1490.4 0,103.3 -22,1490 1023.1,1490 1045,0 1023.1,-1386.7 1023.1,-1490"
         style="fill:#231f20;fill-opacity:1;fill-rule:nonzero;stroke:none"
         transform="matrix(0.13333333,0,0,-0.13333333,0,5760.6667)" />
      <path
         id="path42"
         d="m 17649.7,14726.5 c 310.3,0 562.3,294.1 562.3,1026 0,731.9 -252,1026 -562.3,1026 -310.3,0 -562.3,-293.8 -562.3,-1026 0,-731.9 252,-1026 562.3,-1026 z m 1018.1,1026 c 0,-103.3 22,-1490.4 -1023.1,-1490.4 -1045.1,0 -1023.1,1387.1 -1023.1,1490.4 0,103.3 -22,1490 1023.1,1490 1045.1,0 1023.1,-1386.7 1023.1,-1490"
         style="fill:#231f20;fill-opacity:1;fill-rule:nonzero;stroke:none"
         transform="matrix(0.13333333,0,0,-0.13333333,0,5760.6667)" />
      <path
         id="path43"
         d="m 12794,5006.5 c 310.3,0 562.3,294.1 562.3,1026 0,731.9 -252,1026 -562.3,1026 -310.3,0 -562.3,-293.8 -562.3,-1026 0,-731.9 252,-1026 562.3,-1026 z m 1018.1,1026 c 0,-103.3 21.9,-1490.4 -1023.1,-1490.4 -1045.1,0 -1023.1,1387.1 -1023.1,1490.4 0,103.3 -22,1490 1023.1,1490 1045,0 1023.1,-1386.7 1023.1,-1490"
         style="fill:#231f20;fill-opacity:1;fill-rule:nonzero;stroke:none"
         transform="matrix(0.13333333,0,0,-0.13333333,0,5760.6667)" />
    </g>
  </g>
</svg>
