<?xml version="1.0" encoding="UTF-8" standalone="no"?>
<!-- Created with Inkscape (http://www.inkscape.org/) -->

<svg
   version="1.1"
   id="svg1"
   width="6912.6665"
   height="1728.6667"
   viewBox="0 0 6912.6665 1728.6667"
   sodipodi:docname="tmph_ljensh.pdf"
   xmlns:inkscape="http://www.inkscape.org/namespaces/inkscape"
   xmlns:sodipodi="http://sodipodi.sourceforge.net/DTD/sodipodi-0.dtd"
   xmlns="http://www.w3.org/2000/svg"
   xmlns:svg="http://www.w3.org/2000/svg">
  <defs
     id="defs1" />
  <sodipodi:namedview
     id="namedview1"
     pagecolor="#ffffff"
     bordercolor="#000000"
     borderopacity="0.25"
     inkscape:showpageshadow="2"
     inkscape:pageopacity="0.0"
     inkscape:pagecheckerboard="0"
     inkscape:deskcolor="#d1d1d1">
    <inkscape:page
       x="0"
       y="0"
       inkscape:label="1"
       id="page1"
       width="6912.6665"
       height="1728.6667"
       margin="0"
       bleed="0" />
  </sodipodi:namedview>
  <g
     id="g1"
     inkscape:groupmode="layer"
     inkscape:label="1">
    <g
       id="group-R5">
      <path
         id="path2"
         d="M 1082.5,1.19922 C 486.293,1.19922 1.25,486.301 1.25,1082.5 v 10800 c 0,596.2 485.043,1081.3 1081.25,1081.3 h 49680 c 596.2,0 1081.3,-485.1 1081.3,-1081.3 V 1082.5 C 51843.8,486.301 51358.7,1.19922 50762.5,1.19922 h -49680"
         style="fill:#ffffff;fill-opacity:1;fill-rule:nonzero;stroke:none"
         transform="matrix(0.13333333,0,0,-0.13333333,0,1728.6667)" />
      <path
         id="path3"
         d="m 50762.5,12965 h -49680 c -289.148,0 -560.988,-112.6 -765.445,-317.1 C 112.602,12443.5 0,12171.6 0,11882.5 V 1082.5 C 0,793.398 112.602,521.5 317.055,317.102 521.512,112.602 793.352,0 1082.5,0 h 49680 c 289.1,0 561,112.602 765.4,317.102 204.5,204.398 317.1,476.296 317.1,765.398 v 10800 c 0,289.1 -112.6,561 -317.1,765.4 -204.4,204.5 -476.3,317.1 -765.4,317.1 z m 0,-2.5 c 596.5,0 1080,-483.5 1080,-1080 V 1082.5 C 51842.5,486 51359,2.5 50762.5,2.5 H 1082.5 C 486.023,2.5 2.5,486 2.5,1082.5 v 10800 c 0,596.5 483.523,1080 1080,1080 h 49680"
         style="fill:#231f20;fill-opacity:1;fill-rule:nonzero;stroke:none"
         transform="matrix(0.13333333,0,0,-0.13333333,0,1728.6667)" />
      <path
         id="path4"
         d="m 51122.5,1082.5 c 0,-198.5 -161.5,-360 -360,-360 h -49680 c -198.508,0 -360,161.5 -360,360 v 10800 c 0,198.5 161.492,360 360,360 h 49680 c 198.5,0 360,-161.5 360,-360 z m -360,11610 h -49680 c -446.637,0 -810,-363.4 -810,-810 v -10800 c 0,-446.602 363.363,-810 810,-810 h 49680 c 446.6,0 810,363.398 810,810 v 10800 c 0,446.6 -363.4,810 -810,810"
         style="fill:#231f20;fill-opacity:1;fill-rule:nonzero;stroke:none"
         transform="matrix(0.13333333,0,0,-0.13333333,0,1728.6667)" />
      <path
         id="path5"
         d="m 7553.87,4555.08 c 604.07,0 1301.75,425.52 1301.75,1324.8 V 9362.5 H 9890.98 V 5926.68 c 0,-1414.8 -974.16,-2424.96 -2334.23,-2424.96 -1360.08,0 -2334.24,1010.16 -2334.24,2424.96 V 9362.5 H 6257.87 V 5885.64 c 0,-867.6 647.28,-1330.56 1296,-1330.56"
         style="fill:#231f20;fill-opacity:1;fill-rule:nonzero;stroke:none"
         transform="matrix(0.13333333,0,0,-0.13333333,0,1728.6667)" />
      <path
         id="path6"
         d="m 17883.6,3602.49 h -913.7 V 8553.93 H 15651 v 808.56 h 3572.5 V 8553.93 H 17883.6 V 3602.49"
         style="fill:#231f20;fill-opacity:1;fill-rule:nonzero;stroke:none"
         transform="matrix(0.13333333,0,0,-0.13333333,0,1728.6667)" />
      <path
         id="path7"
         d="m 20087.6,5663.85 v 3698.64 h 908.6 V 5663.85 c 0,-748.08 424.8,-1232.64 1051.2,-1232.64 626.3,0 1051.1,484.56 1051.1,1232.64 v 3698.64 h 910.1 V 5663.85 c 0,-1821.6 -1397.5,-2162.16 -1960.5,-2162.16 -512.6,0 -1960.5,301.68 -1960.5,2162.16"
         style="fill:#231f20;fill-opacity:1;fill-rule:nonzero;stroke:none"
         transform="matrix(0.13333333,0,0,-0.13333333,0,1728.6667)" />
      <path
         id="path8"
         d="m 27443.8,7038.33 c 722.9,0 836.6,521.28 836.6,707.04 0,251.28 -187.9,707.76 -792.7,707.76 h -1187.9 v -1414.8 z m -1144,-928.8 V 3602.49 h -908.6 v 5760 h 2083.6 c 1320.4,0 1716.4,-1056.24 1716.4,-1617.84 0,-213.84 -79.2,-1056.24 -894.2,-1442.16 l 1015.2,-2700 h -990.7 L 27392,6109.53 h -1092.2"
         style="fill:#231f20;fill-opacity:1;fill-rule:nonzero;stroke:none"
         transform="matrix(0.13333333,0,0,-0.13333333,0,1728.6667)" />
      <path
         id="path9"
         d="M 31200.2,7502.73 V 3602.49 h -908.6 v 5760 h 908.6 l 2102.3,-3678.48 v 3678.48 h 910.1 v -5760 H 33404 l -2203.8,3900.24"
         style="fill:#231f20;fill-opacity:1;fill-rule:nonzero;stroke:none"
         transform="matrix(0.13333333,0,0,-0.13333333,0,1728.6667)" />
      <path
         id="path10"
         d="M 40779.9,2791.2 39252.6,4318.57 43166.4,8232.42 44693.8,6705.07 40779.9,2791.2"
         style="fill:#231f20;fill-opacity:1;fill-rule:nonzero;stroke:none"
         transform="matrix(0.13333333,0,0,-0.13333333,0,1728.6667)" />
      <path
         id="path11"
         d="m 45046.1,5163.92 c 16.9,-30.69 37.5,-57.92 61.1,-81.49 140.6,-140.59 368.6,-140.57 509.2,0.02 49.6,49.56 85.3,114.09 99.2,188.24 l 919,4902.91 -4902.9,-918.95 c -74.2,-13.9 -138.7,-49.62 -188.3,-99.27 -140.6,-140.59 -140.6,-368.57 0,-509.16 23.6,-23.55 50.8,-44.23 81.5,-61.06 l 2209.5,-1211.69 1211.7,-2209.55"
         style="fill:#231f20;fill-opacity:1;fill-rule:nonzero;stroke:none"
         transform="matrix(0.13333333,0,0,-0.13333333,0,1728.6667)" />
    </g>
  </g>
</svg>
