<?xml version="1.0" standalone="no"?>
<svg width="2160px" height="864px" viewBox="0 -72 2160 864 " xmlns="http://www.w3.org/2000/svg" xmlns:xlink="http://www.w3.org/1999/xlink">
<title>generated by pstoedit</title>
<!-- generated by pstoedit version:4.02 -->
<g xml:space='preserve'>
<clipPath id="clippath1"> 	<path d="
	M 0 -72.5 
	L 0 792 
	L 2160.5 792 
	L 2160.5 -72.5 
	Z 
	" style="clip-rule:nonzero"/>
</clipPath>
<g style="clip-path:url(#clippath1)"> 
<g fill="#ffffff" fill-rule="nonzero" stroke-width="0" stroke-linejoin="miter" stroke-linecap="butt" stroke-miterlimit="10" >
	<path d="
	M 2160.25 683.75 
	C 2160.25 743.395 2111.9 791.75 2052.25 791.75 
	L 108.25 791.75 
	C 48.6016 791.75 0.25 743.395 0.25 683.75 
	L 0.25 35.75 
	C 0.25 -23.898 48.6016 -72.25 108.25 -72.25 
	L 2052.25 -72.25 
	C 2111.9 -72.25 2160.25 -23.898 2160.25 35.75 
	Z 
	"/>
</g>
<g stroke="#7f7f7f" fill="none" stroke-width="0.5" stroke-linejoin="miter" stroke-linecap="butt" stroke-miterlimit="4" >
	<path d="
	M 2160.25 683.75 
	C 2160.25 743.395 2111.9 791.75 2052.25 791.75 
	L 108.25 791.75 
	C 48.6016 791.75 0.25 743.395 0.25 683.75 
	L 0.25 35.75 
	C 0.25 -23.898 48.6016 -72.25 108.25 -72.25 
	L 2052.25 -72.25 
	C 2111.9 -72.25 2160.25 -23.898 2160.25 35.75 
	Z 
	"/>
</g>
<g fill="#7f7f7f" fill-rule="nonzero" stroke-width="0" stroke-linejoin="miter" stroke-linecap="butt" stroke-miterlimit="4" >
	<path d="
	M 108.25 764.75 
	C 63.5859 764.75 27.25 728.414 27.25 683.75 
	L 27.25 35.75 
	C 27.25 -8.914 63.5859 -45.25 108.25 -45.25 
	L 2052.25 -45.25 
	C 2096.91 -45.25 2133.25 -8.914 2133.25 35.75 
	L 2133.25 683.75 
	C 2133.25 728.414 2096.91 764.75 2052.25 764.75 
	Z 
	"/>
</g>
<g fill="#ffffff" fill-rule="nonzero" stroke-width="0" stroke-linejoin="miter" stroke-linecap="butt" stroke-miterlimit="4" >
	<path d="
	M 108.25 719.75 
	C 88.3984 719.75 72.25 703.602 72.25 683.75 
	L 72.25 35.75 
	C 72.25 15.898 88.3984 -0.25 108.25 -0.25 
	L 2052.25 -0.25 
	C 2072.1 -0.25 2088.25 15.898 2088.25 35.75 
	L 2088.25 683.75 
	C 2088.25 703.602 2072.1 719.75 2052.25 719.75 
	Z 
	"/>
</g>
<g fill="#7f7f7f" fill-rule="nonzero" stroke-width="0" stroke-linejoin="miter" stroke-linecap="butt" stroke-miterlimit="4" >
	<path d="
	M 1797.76 575.754 
	L 1632.52 283.203 
	L 1632.52 575.754 
	L 1564.31 575.754 
	L 1564.31 143.75 
	L 1632.52 143.75 
	L 1790.17 419.629 
	L 1790.17 143.75 
	L 1858.39 143.75 
	L 1858.39 575.754 
	Z 
	"/>
</g>
<g fill="#7f7f7f" fill-rule="nonzero" stroke-width="0" stroke-linejoin="miter" stroke-linecap="butt" stroke-miterlimit="4" >
	<path d="
	M 1391.51 575.754 
	L 1391.51 143.75 
	L 1460.63 143.75 
	L 1460.63 575.754 
	Z 
	"/>
</g>
<g fill="#7f7f7f" fill-rule="nonzero" stroke-width="0" stroke-linejoin="miter" stroke-linecap="butt" stroke-miterlimit="4" >
	<path d="
	M 669.633 575.754 
	L 669.633 143.754 
	L 923.957 143.754 
	L 923.957 211.961 
	L 737.754 211.961 
	L 737.754 318.066 
	L 863.406 318.066 
	L 863.406 387.797 
	L 737.754 387.797 
	L 737.754 506.023 
	L 937.582 506.023 
	L 937.582 575.754 
	Z 
	"/>
</g>
<g fill="#7f7f7f" fill-rule="nonzero" stroke-width="0" stroke-linejoin="miter" stroke-linecap="butt" stroke-miterlimit="4" >
	<path d="
	M 485.535 390.824 
	C 476.438 387.797 471.891 387.797 456.734 387.797 
	L 370.324 387.797 
	L 370.324 506.023 
	L 473.406 506.023 
	C 508.273 506.023 526.465 489.352 526.465 456.004 
	C 526.465 427.203 509.789 399.922 485.535 390.824 
	Z 
	M 470.379 211.961 
	L 370.324 211.961 
	L 370.324 318.066 
	L 452.188 318.066 
	C 471.891 318.066 480.988 315.035 493.113 305.937 
	C 508.273 293.812 517.367 275.621 517.367 255.918 
	C 517.367 227.117 500.695 211.961 470.379 211.961 
	Z 
	M 526.465 565.145 
	C 511.305 571.207 485.535 575.754 465.828 575.754 
	L 302.109 575.754 
	L 302.109 143.75 
	L 465.828 143.75 
	C 534.043 143.75 585.586 190.742 585.586 252.887 
	C 585.586 295.328 565.879 327.16 524.949 349.898 
	C 570.426 371.121 596.195 407.5 596.195 454.488 
	C 596.195 501.48 567.395 548.469 526.465 565.145 
	Z 
	"/>
</g>
<g fill="#7f7f7f" fill-rule="nonzero" stroke-width="0" stroke-linejoin="miter" stroke-linecap="butt" stroke-miterlimit="4" >
	<path d="
	M 1160.04 583.332 
	C 1094.85 583.332 1056.96 559.078 1031.19 504.512 
	C 1013 466.613 1002.38 413.562 1002.38 360.512 
	C 1002.38 290.785 1022.09 222.57 1050.89 184.676 
	C 1076.66 152.848 1113.04 136.172 1161.55 136.172 
	C 1228.25 136.172 1267.67 163.461 1296.47 231.668 
	L 1231.28 257.437 
	C 1213.09 219.539 1194.9 205.898 1161.55 205.898 
	C 1126.69 205.898 1103.95 221.059 1088.79 258.953 
	C 1078.18 284.719 1072.11 324.133 1072.11 360.512 
	C 1072.11 405.984 1079.69 451.461 1093.34 478.738 
	C 1106.98 502.992 1126.69 513.605 1152.46 513.605 
	C 1196.42 513.605 1228.25 486.32 1228.25 446.91 
	L 1228.25 428.719 
	L 1149.43 428.719 
	L 1149.43 360.512 
	L 1296.47 360.512 
	L 1296.47 446.91 
	C 1296.47 525.73 1238.87 583.332 1160.04 583.332 
	Z 
	"/>
</g>
</g >
</g>
</svg>
