<?xml version="1.0" standalone="no"?>
<svg width="6048px" height="3456px" viewBox="0 -2664 6048 3456 " xmlns="http://www.w3.org/2000/svg" xmlns:xlink="http://www.w3.org/1999/xlink">
<title>generated by pstoedit</title>
<!-- generated by pstoedit version:4.02 -->
<g xml:space='preserve'>
<clipPath id="clippath1"> 	<path d="
	M 0 -2664.5 
	L 0 792 
	L 6048.5 792 
	L 6048.5 -2664.5 
	Z 
	" style="clip-rule:nonzero"/>
</clipPath>
<g style="clip-path:url(#clippath1)"> 
<g fill="#ffffff" fill-rule="nonzero" stroke-width="0" stroke-linejoin="miter" stroke-linecap="butt" stroke-miterlimit="10" >
	<path d="
	M 6048.25 575.75 
	C 6048.25 695.039 5951.54 791.75 5832.25 791.75 
	L 216.25 791.75 
	C 96.957 791.75 0.25 695.039 0.25 575.75 
	L 0.25 -2448.25 
	C 0.25 -2567.54 96.957 -2664.25 216.25 -2664.25 
	L 5832.25 -2664.25 
	C 5951.54 -2664.25 6048.25 -2567.54 6048.25 -2448.25 
	Z 
	"/>
</g>
<g stroke="#7f7f7f" fill="none" stroke-width="0.5" stroke-linejoin="miter" stroke-linecap="butt" stroke-miterlimit="4" >
	<path d="
	M 6048.25 575.75 
	C 6048.25 695.039 5951.54 791.75 5832.25 791.75 
	L 216.25 791.75 
	C 96.957 791.75 0.25 695.039 0.25 575.75 
	L 0.25 -2448.25 
	C 0.25 -2567.54 96.957 -2664.25 216.25 -2664.25 
	L 5832.25 -2664.25 
	C 5951.54 -2664.25 6048.25 -2567.54 6048.25 -2448.25 
	Z 
	"/>
</g>
<g fill="#7f7f7f" fill-rule="nonzero" stroke-width="0" stroke-linejoin="miter" stroke-linecap="butt" stroke-miterlimit="4" >
	<path d="
	M 5904.25 575.75 
	C 5904.25 615.449 5871.95 647.75 5832.25 647.75 
	L 2160.25 647.75 
	L 2160.25 -2520.25 
	L 5832.25 -2520.25 
	C 5871.95 -2520.25 5904.25 -2487.95 5904.25 -2448.25 
	Z 
	M 1107.25 215.75 
	L 531.25 -936.25 
	L 1107.25 -2088.25 
	L 1683.25 -936.25 
	Z 
	M 5832.25 -2610.25 
	L 216.25 -2610.25 
	C 126.922 -2610.25 54.25 -2537.58 54.25 -2448.25 
	L 54.25 575.75 
	C 54.25 665.082 126.922 737.75 216.25 737.75 
	L 5832.25 737.75 
	C 5921.58 737.75 5994.25 665.082 5994.25 575.75 
	L 5994.25 -2448.25 
	C 5994.25 -2537.58 5921.58 -2610.25 5832.25 -2610.25 
	Z 
	"/>
</g>
<g fill="#7f7f7f" fill-rule="nonzero" stroke-width="0" stroke-linejoin="miter" stroke-linecap="butt" stroke-miterlimit="4" >
	<path d="
	M 712.371 -936.25 
	L 1107.25 -146.488 
	L 1502.13 -936.25 
	L 1107.25 -1726.01 
	Z 
	"/>
</g>
<g fill="#7f7f7f" fill-rule="nonzero" stroke-width="0" stroke-linejoin="miter" stroke-linecap="butt" stroke-miterlimit="4" >
	<path d="
	M 4114.21 -2032.92 
	C 4095.98 -2063.24 4073.7 -2075.36 4039.25 -2077.39 
	C 3994.68 -2079.41 3966.32 -2057.18 3946.06 -2006.65 
	C 3931.88 -1972.29 3923.78 -1919.75 3923.78 -1871.24 
	C 3923.78 -1810.61 3935.93 -1747.95 3958.21 -1711.57 
	C 3976.45 -1681.26 4000.76 -1667.11 4037.23 -1667.11 
	C 4079.78 -1667.11 4106.11 -1689.34 4126.37 -1739.87 
	C 4138.53 -1770.19 4148.66 -1826.78 4148.66 -1871.24 
	C 4148.66 -1935.91 4136.5 -1994.52 4114.21 -2032.92 
	Z 
	M 4177.02 -1638.82 
	C 4144.6 -1594.35 4098 -1574.14 4037.23 -1574.14 
	C 3956.19 -1574.14 3905.54 -1606.48 3871.1 -1677.22 
	C 3846.79 -1725.73 3830.58 -1802.52 3830.58 -1871.24 
	C 3830.58 -1966.23 3854.89 -2051.11 3893.39 -2105.68 
	C 3927.83 -2150.14 3974.42 -2170.36 4041.28 -2170.36 
	C 4114.21 -2170.36 4164.86 -2138.02 4201.33 -2067.28 
	C 4225.64 -2016.76 4239.83 -1944 4239.83 -1871.24 
	C 4239.83 -1780.29 4217.54 -1689.34 4177.02 -1638.82 
	Z 
	"/>
</g>
<g fill="#7f7f7f" fill-rule="nonzero" stroke-width="0" stroke-linejoin="miter" stroke-linecap="butt" stroke-miterlimit="4" >
	<path d="
	M 4568.21 -1584.25 
	L 4497.22 -1584.25 
	L 4314.71 -2160.25 
	L 4410.02 -2160.25 
	L 4533.73 -1776.25 
	L 4655.41 -2160.25 
	L 4752.75 -2160.25 
	Z 
	"/>
</g>
<g fill="#7f7f7f" fill-rule="nonzero" stroke-width="0" stroke-linejoin="miter" stroke-linecap="butt" stroke-miterlimit="4" >
	<path d="
	M 3612.91 -1584.25 
	L 3612.91 -1834.86 
	L 3402.7 -1834.86 
	L 3402.7 -1584.25 
	L 3311.75 -1584.25 
	L 3311.75 -2160.25 
	L 3402.7 -2160.25 
	L 3402.7 -1927.83 
	L 3612.91 -1927.83 
	L 3612.91 -2160.25 
	L 3703.86 -2160.25 
	L 3703.86 -1584.25 
	Z 
	"/>
</g>
<g fill="#7f7f7f" fill-rule="nonzero" stroke-width="0" stroke-linejoin="miter" stroke-linecap="butt" stroke-miterlimit="4" >
	<path d="
	M 3870.62 287.75 
	L 3650.31 -102.32 
	L 3650.31 287.75 
	L 3559.35 287.75 
	L 3559.35 -288.25 
	L 3650.31 -288.25 
	L 3860.51 79.582 
	L 3860.51 -288.25 
	L 3951.46 -288.25 
	L 3951.46 287.75 
	Z 
	"/>
</g>
<g fill="#7f7f7f" fill-rule="nonzero" stroke-width="0" stroke-linejoin="miter" stroke-linecap="butt" stroke-miterlimit="4" >
	<path d="
	M 4903.74 253.391 
	C 4871.4 281.68 4826.93 297.852 4778.43 297.852 
	C 4679.39 297.852 4606.63 239.25 4568.22 152.34 
	L 4655.13 120 
	C 4679.39 174.57 4723.85 204.891 4778.43 204.891 
	C 4830.98 204.891 4867.36 168.5 4867.36 120 
	C 4867.36 43.199 4778.43 31.082 4703.64 0.762024 
	C 4669.28 -13.391 4592.48 -47.75 4592.48 -142.738 
	C 4592.48 -255.91 4669.28 -298.36 4772.36 -298.36 
	C 4853.21 -298.36 4907.78 -251.87 4936.08 -181.141 
	L 4855.23 -156.891 
	C 4855.23 -156.891 4835.02 -205.391 4770.34 -207.41 
	C 4727.9 -209.43 4677.36 -193.262 4681.41 -140.711 
	C 4689.5 -33.602 4960.33 -104.328 4960.33 122.02 
	C 4960.33 174.57 4940.12 221.051 4903.74 253.391 
	Z 
	"/>
</g>
<g fill="#7f7f7f" fill-rule="nonzero" stroke-width="0" stroke-linejoin="miter" stroke-linecap="butt" stroke-miterlimit="4" >
	<path d="
	M 4342.36 -173.051 
	C 4328.21 -187.199 4308 -197.309 4283.74 -197.309 
	L 4180.66 -197.309 
	L 4180.66 194.781 
	L 4271.62 194.781 
	C 4301.94 194.781 4320.13 188.719 4336.29 172.551 
	C 4370.66 138.191 4388.84 75.531 4388.84 -1.27002 
	C 4388.84 -78.059 4370.66 -142.738 4342.36 -173.051 
	Z 
	M 4380.76 255.41 
	C 4358.53 275.629 4328.21 285.73 4297.89 287.75 
	C 4291.83 287.75 4279.7 287.75 4265.55 287.75 
	L 4089.71 287.75 
	L 4089.71 -288.25 
	L 4275.66 -288.25 
	C 4334.27 -288.25 4356.51 -282.19 4386.82 -257.94 
	C 4447.46 -205.391 4481.82 -114.441 4481.82 -1.27002 
	C 4481.82 113.941 4445.44 204.891 4380.76 255.41 
	Z 
	"/>
</g>
<g fill="#7f7f7f" fill-rule="nonzero" stroke-width="0" stroke-linejoin="miter" stroke-linecap="butt" stroke-miterlimit="4" >
	<path d="
	M 3104.17 287.75 
	L 3104.17 -288.25 
	L 3443.27 -288.25 
	L 3443.27 -197.301 
	L 3195 -197.301 
	L 3195 -55.828 
	L 3362.53 -55.828 
	L 3362.53 37.141 
	L 3195 37.141 
	L 3195 194.781 
	L 3461.43 194.781 
	L 3461.43 287.75 
	Z 
	"/>
</g>
<g fill="#7f7f7f" fill-rule="nonzero" stroke-width="0" stroke-linejoin="miter" stroke-linecap="butt" stroke-miterlimit="4" >
	<path d="
	M 4443.17 -1070.65 
	C 4435.05 -1127.24 4412.73 -1153.51 4374.17 -1153.51 
	C 4307.19 -1153.51 4282.84 -1100.96 4282.84 -951.41 
	C 4282.84 -785.68 4311.25 -718.98 4382.29 -718.98 
	C 4431 -718.98 4443.17 -759.41 4443.17 -801.85 
	L 4526.39 -801.85 
	C 4524.36 -706.86 4463.47 -638.14 4382.29 -638.14 
	C 4258.48 -638.14 4203.68 -737.18 4203.68 -949.39 
	C 4203.68 -1135.32 4262.54 -1234.36 4376.2 -1234.36 
	C 4422.88 -1234.36 4463.47 -1214.14 4489.86 -1175.74 
	C 4512.18 -1147.45 4520.3 -1123.2 4526.39 -1070.65 
	Z 
	"/>
</g>
<g fill="#7f7f7f" fill-rule="nonzero" stroke-width="0" stroke-linejoin="miter" stroke-linecap="butt" stroke-miterlimit="4" >
	<path d="
	M 2682.47 -648.25 
	L 2682.47 -1224.25 
	L 2954.07 -1224.25 
	L 2954.07 -1143.41 
	L 2765.57 -1143.41 
	L 2765.57 -997.89 
	L 2885.16 -997.89 
	L 2885.16 -919.07 
	L 2765.57 -919.07 
	L 2765.57 -729.09 
	L 2976.37 -729.09 
	L 2976.37 -648.25 
	Z 
	"/>
</g>
<g fill="#7f7f7f" fill-rule="nonzero" stroke-width="0" stroke-linejoin="miter" stroke-linecap="butt" stroke-miterlimit="4" >
	<path d="
	M 4065.44 -648.25 
	L 4065.44 -1224.25 
	L 4146.08 -1224.25 
	L 4146.08 -648.25 
	Z 
	"/>
</g>
<g fill="#7f7f7f" fill-rule="nonzero" stroke-width="0" stroke-linejoin="miter" stroke-linecap="butt" stroke-miterlimit="4" >
	<path d="
	M 4895.17 -648.25 
	L 4895.17 -1224.25 
	L 4975.81 -1224.25 
	L 4975.81 -648.25 
	Z 
	"/>
</g>
<g fill="#7f7f7f" fill-rule="nonzero" stroke-width="0" stroke-linejoin="miter" stroke-linecap="butt" stroke-miterlimit="4" >
	<path d="
	M 5691.18 -648.25 
	L 5513.69 -1034.27 
	L 5513.69 -648.25 
	L 5431 -648.25 
	L 5431 -1224.25 
	L 5513.69 -1224.25 
	L 5671.01 -878.65 
	L 5671.01 -1224.25 
	L 5753.7 -1224.25 
	L 5753.7 -648.25 
	Z 
	"/>
</g>
<g fill="#7f7f7f" fill-rule="nonzero" stroke-width="0" stroke-linejoin="miter" stroke-linecap="butt" stroke-miterlimit="4" >
	<path d="
	M 5275.68 -1080.75 
	C 5261.43 -1131.28 5239.03 -1153.51 5204.42 -1153.51 
	C 5167.78 -1153.51 5145.38 -1131.28 5131.13 -1082.78 
	C 5116.88 -1038.31 5112.81 -999.91 5112.81 -935.24 
	C 5112.81 -872.58 5118.92 -836.21 5131.13 -789.72 
	C 5145.38 -741.22 5167.78 -718.99 5204.42 -718.99 
	C 5239.03 -718.99 5261.43 -741.22 5275.68 -789.72 
	C 5289.93 -836.21 5294 -870.56 5294 -937.26 
	C 5294 -1001.93 5287.89 -1038.31 5275.68 -1080.75 
	Z 
	M 5340.82 -737.17 
	C 5312.32 -668.46 5269.57 -638.14 5204.42 -638.14 
	C 5135.2 -638.14 5094.49 -668.46 5065.98 -737.17 
	C 5041.55 -793.76 5033.41 -848.33 5033.41 -937.26 
	C 5033.41 -1024.17 5041.55 -1082.78 5065.98 -1137.34 
	C 5096.52 -1206.06 5137.24 -1234.35 5204.42 -1234.35 
	C 5271.61 -1234.35 5312.32 -1206.06 5340.82 -1135.32 
	C 5365.25 -1078.73 5373.39 -1024.17 5373.39 -937.26 
	C 5373.39 -848.33 5365.25 -791.74 5340.82 -737.17 
	Z 
	"/>
</g>
<g fill="#7f7f7f" fill-rule="nonzero" stroke-width="0" stroke-linejoin="miter" stroke-linecap="butt" stroke-miterlimit="4" >
	<path d="
	M 2478.2 -1143.41 
	L 2393.49 -1143.41 
	L 2393.49 -997.89 
	L 2478.2 -997.89 
	C 2526.61 -997.89 2552.83 -1024.16 2552.83 -1070.65 
	C 2552.83 -1115.11 2522.58 -1143.41 2478.2 -1143.41 
	Z 
	M 2548.79 -648.25 
	L 2472.15 -919.07 
	L 2393.49 -919.07 
	L 2393.49 -648.25 
	L 2310.8 -648.25 
	L 2310.8 -1224.25 
	L 2482.24 -1224.25 
	C 2573 -1224.25 2633.5 -1163.62 2633.5 -1070.65 
	C 2633.5 -1001.93 2605.27 -951.41 2550.81 -931.2 
	L 2633.5 -648.25 
	Z 
	"/>
</g>
<g fill="#7f7f7f" fill-rule="nonzero" stroke-width="0" stroke-linejoin="miter" stroke-linecap="butt" stroke-miterlimit="4" >
	<path d="
	M 3861.18 -1143.41 
	L 3776.47 -1143.41 
	L 3776.47 -997.89 
	L 3861.18 -997.89 
	C 3909.59 -997.89 3935.81 -1024.16 3935.81 -1070.65 
	C 3935.81 -1115.11 3905.55 -1143.41 3861.18 -1143.41 
	Z 
	M 3931.77 -648.25 
	L 3855.13 -919.07 
	L 3776.47 -919.07 
	L 3776.47 -648.25 
	L 3693.78 -648.25 
	L 3693.78 -1224.25 
	L 3865.21 -1224.25 
	C 3955.98 -1224.25 4016.48 -1163.62 4016.48 -1070.65 
	C 4016.48 -1001.93 3988.25 -951.41 3933.79 -931.2 
	L 4016.48 -648.25 
	Z 
	"/>
</g>
<g fill="#7f7f7f" fill-rule="nonzero" stroke-width="0" stroke-linejoin="miter" stroke-linecap="butt" stroke-miterlimit="4" >
	<path d="
	M 3174.94 -914.25 
	C 3150.02 -930.4 3125.83 -946.6 3110.38 -957.47 
	C 3063.94 -990.16 3039.34 -1034.27 3039.34 -1084.8 
	C 3039.34 -1167.66 3104.29 -1234.36 3187.5 -1234.36 
	C 3268.69 -1234.36 3331.6 -1171.7 3333.63 -1084.8 
	L 3254.48 -1084.8 
	C 3252.45 -1125.22 3224.04 -1151.49 3187.5 -1151.49 
	C 3148.94 -1151.49 3118.5 -1123.2 3118.5 -1084.8 
	C 3118.5 -1056.5 3130.67 -1040.33 3173.3 -1016.08 
	C 3284.92 -951.41 3333.63 -888.75 3333.63 -805.89 
	C 3333.63 -712.92 3262.6 -638.14 3173.3 -638.14 
	C 3071.82 -638.14 3010.93 -723.03 3010.93 -818.02 
	L 3092.11 -818.02 
	C 3092.11 -769.51 3116.47 -718.98 3173.3 -718.98 
	C 3217.95 -718.98 3254.48 -759.41 3254.48 -805.89 
	C 3254.48 -841.98 3239.56 -872.38 3174.94 -914.25 
	Z 
	"/>
</g>
<g fill="#7f7f7f" fill-rule="nonzero" stroke-width="0" stroke-linejoin="miter" stroke-linecap="butt" stroke-miterlimit="4" >
	<path d="
	M 3548.06 -1147.45 
	L 3548.06 -648.25 
	L 3464.95 -648.25 
	L 3464.95 -1147.45 
	L 3359.55 -1147.45 
	L 3359.55 -1224.25 
	L 3653.46 -1224.25 
	L 3653.46 -1147.45 
	Z 
	"/>
</g>
<g fill="#7f7f7f" fill-rule="nonzero" stroke-width="0" stroke-linejoin="miter" stroke-linecap="butt" stroke-miterlimit="4" >
	<path d="
	M 4749.45 -1147.45 
	L 4749.45 -648.25 
	L 4666.35 -648.25 
	L 4666.35 -1147.45 
	L 4560.95 -1147.45 
	L 4560.95 -1224.25 
	L 4854.85 -1224.25 
	L 4854.85 -1147.45 
	Z 
	"/>
</g>
</g >
</g>
</svg>
