<?xml version="1.0" encoding="UTF-8" standalone="no"?>
<!-- Created with Inkscape (http://www.inkscape.org/) -->

<svg
   version="1.1"
   id="svg1"
   width="3456.6667"
   height="5184.6665"
   viewBox="0 0 3456.6667 5184.6665"
   sodipodi:docname="tmpene4j9lk.pdf"
   xmlns:inkscape="http://www.inkscape.org/namespaces/inkscape"
   xmlns:sodipodi="http://sodipodi.sourceforge.net/DTD/sodipodi-0.dtd"
   xmlns="http://www.w3.org/2000/svg"
   xmlns:svg="http://www.w3.org/2000/svg">
  <defs
     id="defs1" />
  <sodipodi:namedview
     id="namedview1"
     pagecolor="#ffffff"
     bordercolor="#000000"
     borderopacity="0.25"
     inkscape:showpageshadow="2"
     inkscape:pageopacity="0.0"
     inkscape:pagecheckerboard="0"
     inkscape:deskcolor="#d1d1d1">
    <inkscape:page
       x="0"
       y="0"
       inkscape:label="1"
       id="page1"
       width="3456.6667"
       height="5184.6665"
       margin="0"
       bleed="0" />
  </sodipodi:namedview>
  <g
     id="g1"
     inkscape:groupmode="layer"
     inkscape:label="1">
    <g
       id="group-R5">
      <path
         id="path2"
         d="M 1622.5,1.20313 C 1191.24,1.20313 784.602,170.398 477.488,477.5 170.383,784.602 1.25,1191.2 1.25,1622.5 v 35640 c 0,431.3 169.133,837.9 476.238,1145 307.114,307.1 713.752,476.3 1145.012,476.3 h 22680 c 431.3,0 837.9,-169.2 1145,-476.3 307.1,-307.1 476.3,-713.7 476.3,-1145 v -35640 c 0,-431.3 -169.2,-837.898 -476.3,-1145 C 25140.4,170.398 24733.8,1.20313 24302.5,1.20313 h -22680"
         style="fill:#ffffff;fill-opacity:1;fill-rule:evenodd;stroke:none"
         transform="matrix(0.13333333,0,0,-0.13333333,0,5184.6667)" />
      <path
         id="path3"
         d="m 24302.5,38885 h -22680 c -218.06,0 -430.03,-43.1 -629.996,-128 -193.027,-82 -366.606,-199.3 -515.899,-348.6 -149.289,-149.3 -266.57,-322.9 -348.582,-515.9 C 43.0742,37692.5 0,37480.6 0,37262.5 v -35640 c 0,-218.1 43.0742,-430 128.023,-630 C 210.035,799.5 327.316,625.902 476.605,476.598 625.898,327.301 799.477,210 992.504,128 1192.47,43.1016 1404.44,0 1622.5,0 h 22680 c 218.1,0 430,43.1016 630,128 193,82 366.6,199.301 515.9,348.598 149.3,149.304 266.6,322.902 348.6,515.902 84.9,200 128,411.9 128,630 v 35640 c 0,218.1 -43.1,430 -128,630 -82,193 -199.3,366.6 -348.6,515.9 -149.3,149.3 -322.9,266.6 -515.9,348.6 -200,84.9 -411.9,128 -630,128 z m 0,-2.5 c 891,0 1620,-729 1620,-1620 v -35640 c 0,-891 -729,-1620 -1620,-1620 h -22680 c -891,0 -1620,729 -1620,1620 v 35640 c 0,891 729,1620 1620,1620 h 22680"
         style="fill:#231f20;fill-opacity:1;fill-rule:nonzero;stroke:none"
         transform="matrix(0.13333333,0,0,-0.13333333,0,5184.6667)" />
      <path
         id="path4"
         d="m 1082.5,25562.5 v -23940 c 0,-144.5 55.18,-276.1 159.55,-380.5 104.38,-104.3 235.94,-159.5 380.45,-159.5 h 22680 c 144.5,0 276.1,55.2 380.4,159.5 104.4,104.4 159.6,236 159.6,380.5 v 23940 z m 540,-25110 c -310.73,0 -604.05,122.199 -825.93,344.098 C 574.691,1018.5 452.5,1311.8 452.5,1622.5 v 35640 c 0,310.7 122.191,604.1 344.07,825.9 221.88,221.9 515.2,344.1 825.93,344.1 h 22680 c 310.7,0 604,-122.2 825.9,-344.1 221.9,-221.8 344.1,-515.2 344.1,-825.9 v -35640 c 0,-310.7 -122.2,-604 -344.1,-825.902 C 24906.5,574.699 24613.2,452.5 24302.5,452.5 h -22680"
         style="fill:#231f20;fill-opacity:1;fill-rule:evenodd;stroke:none"
         transform="matrix(0.13333333,0,0,-0.13333333,0,5184.6667)" />
      <path
         id="path5"
         d="m 4318.02,33059.4 c -947.35,0 -1528.4,745.2 -1528.4,1869.4 0,1136.9 581.05,1856.9 1528.4,1856.9 581.04,0 1111.56,-290.6 1389.45,-795.8 l -568.41,-303.2 c -101.06,151.6 -151.58,202.1 -252.63,265.3 -138.95,113.7 -378.95,189.4 -568.41,189.4 -656.83,0 -871.57,-644.1 -871.57,-1199.9 0,-783.2 328.42,-1237.9 871.57,-1237.9 328.41,0 505.25,113.7 821.04,454.7 l 568.41,-303.2 c -265.26,-505.2 -808.41,-795.7 -1389.45,-795.7"
         style="fill:#ffffff;fill-opacity:1;fill-rule:nonzero;stroke:none"
         transform="matrix(0.13333333,0,0,-0.13333333,0,5184.6667)" />
      <path
         id="path6"
         d="m 6535.49,33122.5 v 3600 h 2636.67 v -644.2 h -1977.5 v -669.5 H 8272.14 V 34752 H 7194.66 v -985.3 h 2040.88 v -644.2 H 6535.49"
         style="fill:#ffffff;fill-opacity:1;fill-rule:nonzero;stroke:none"
         transform="matrix(0.13333333,0,0,-0.13333333,0,5184.6667)" />
      <path
         id="path7"
         d="m 16797.5,33122.5 v 3600 h 2636.7 v -644.2 h -1977.6 v -669.5 h 1077.5 V 34752 h -1077.5 v -985.3 h 2040.9 v -644.2 h -2700"
         style="fill:#ffffff;fill-opacity:1;fill-rule:nonzero;stroke:none"
         transform="matrix(0.13333333,0,0,-0.13333333,0,5184.6667)" />
      <path
         id="path8"
         d="m 12315.2,33122.5 -1725.3,2475.8 v -2475.8 h -634.35 v 3600 h 634.35 l 1661.9,-2374.7 v 2374.7 h 621.6 v -3600 h -558.2"
         style="fill:#ffffff;fill-opacity:1;fill-rule:nonzero;stroke:none"
         transform="matrix(0.13333333,0,0,-0.13333333,0,5184.6667)" />
      <path
         id="path9"
         d="m 21898.1,36078.3 h -1036.7 v -896.9 h 1036.7 c 315.7,0 517.7,176.9 517.7,442.2 0,277.8 -202,454.7 -517.7,454.7 z m 517.7,-2955.8 -580.8,1414.8 h -973.6 v -1414.8 h -643.9 v 3600 h 1668 c 265.1,0 429.3,-37.9 618.6,-151.6 340.9,-189.5 555.5,-543.1 555.5,-947.3 0,-404.2 -214.6,-757.9 -580.7,-960 l 656.5,-1541.1 h -719.6"
         style="fill:#ffffff;fill-opacity:1;fill-rule:nonzero;stroke:none"
         transform="matrix(0.13333333,0,0,-0.13333333,0,5184.6667)" />
      <path
         id="path10"
         d="M 15150.9,36090.9 V 33122.5 H 14520 v 2968.4 h -1034.6 v 631.6 h 2700.1 v -631.6 h -1034.6"
         style="fill:#ffffff;fill-opacity:1;fill-rule:nonzero;stroke:none"
         transform="matrix(0.13333333,0,0,-0.13333333,0,5184.6667)" />
      <path
         id="path11"
         d="M 10879.9,30245.7 10374.8,29033 H 11385 Z m 1136.5,-2703.2 -353.5,846.3 H 10097 l -353.55,-846.3 H 9036.3 l 1515.3,3600 h 656.7 l 1502.7,-3600 h -694.6"
         style="fill:#ffffff;fill-opacity:1;fill-rule:nonzero;stroke:none"
         transform="matrix(0.13333333,0,0,-0.13333333,0,5184.6667)" />
      <path
         id="path12"
         d="m 17176.7,27542.5 v 3600 h 2636.6 v -644.2 h -1977.5 v -669.5 h 1077.5 V 29172 h -1077.5 v -985.3 h 2040.9 v -644.2 h -2700"
         style="fill:#ffffff;fill-opacity:1;fill-rule:nonzero;stroke:none"
         transform="matrix(0.13333333,0,0,-0.13333333,0,5184.6667)" />
      <path
         id="path13"
         d="m 6048.34,27542.5 v 3600 h 646.46 v -3044.2 h 2053.5 v -555.8 H 6048.34"
         style="fill:#ffffff;fill-opacity:1;fill-rule:nonzero;stroke:none"
         transform="matrix(0.13333333,0,0,-0.13333333,0,5184.6667)" />
      <path
         id="path14"
         d="m 15682.5,27542.5 -1725.3,2475.8 v -2475.8 h -634.3 v 3600 h 634.3 l 1661.9,-2374.7 v 2374.7 h 621.6 v -3600 h -558.2"
         style="fill:#ffffff;fill-opacity:1;fill-rule:nonzero;stroke:none"
         transform="matrix(0.13333333,0,0,-0.13333333,0,5184.6667)" />
      <path
         id="path15"
         d="m 11069.8,14765.7 c -189.5,-353.7 -619,-606.3 -1061.1,-606.3 -442.2,0 -871.72,252.6 -1061.2,606.3 -101.05,214.7 -164.24,467.3 -164.24,745.2 v 2311.6 h 568.47 v -2311.6 c 0,-467.3 265.29,-770.5 656.97,-770.5 391.6,0 656.9,303.2 656.9,770.5 v 2311.6 h 568.4 v -2311.6 c 0,-277.9 -63.1,-530.5 -164.2,-745.2"
         style="fill:#231f20;fill-opacity:1;fill-rule:nonzero;stroke:none"
         transform="matrix(0.13333333,0,0,-0.13333333,0,5184.6667)" />
      <path
         id="path16"
         d="m 13943.1,14437.3 c -202.1,-176.9 -480.1,-277.9 -783.2,-277.9 -619,0 -1073.8,366.3 -1313.9,909.5 l 543.3,202.1 c 151.6,-341.1 429.5,-530.6 770.6,-530.6 328.4,0 555.8,227.4 555.8,530.6 0,480 -555.8,555.7 -1023.3,745.2 -214.7,88.4 -694.8,303.2 -694.8,896.9 0,707.3 480.1,972.6 1124.4,972.6 505.2,0 846.3,-290.5 1023.2,-732.7 l -505.3,-151.5 c 0,0 -126.3,303.1 -530.6,315.7 -265.3,12.7 -581.1,-88.4 -555.8,-416.8 50.5,-669.4 1743.3,-227.4 1743.3,-1642.1 0,-328.4 -126.3,-618.9 -353.7,-821"
         style="fill:#231f20;fill-opacity:1;fill-rule:nonzero;stroke:none"
         transform="matrix(0.13333333,0,0,-0.13333333,0,5184.6667)" />
      <path
         id="path17"
         d="m 14908.8,14222.5 v 3600 h 2119.4 v -568.4 h -1551.7 v -884.2 h 1047.1 v -581.1 h -1047.1 v -985.2 h 1665.2 v -581.1 h -2232.9"
         style="fill:#231f20;fill-opacity:1;fill-rule:nonzero;stroke:none"
         transform="matrix(0.13333333,0,0,-0.13333333,0,5184.6667)" />
      <path
         id="path18"
         d="m 6166.46,22502.5 c -88.41,88.4 -214.72,151.6 -366.33,151.6 h -644.24 v -2450.5 h 568.46 c 189.5,0 303.16,37.9 404.21,138.9 214.76,214.8 328.43,606.4 328.43,1086.4 0,479.9 -113.67,884.1 -290.53,1073.6 z m 240.02,-2677.9 c -138.96,-126.3 -328.43,-189.5 -517.91,-202.1 -37.89,0 -113.71,0 -202.11,0 h -1099 v 3600 h 1162.13 c 366.35,0 505.31,-37.9 694.78,-189.5 378.98,-328.4 593.71,-896.8 593.71,-1604.1 0,-720.1 -227.38,-1288.5 -631.6,-1604.3"
         style="fill:#231f20;fill-opacity:1;fill-rule:nonzero;stroke:none"
         transform="matrix(0.13333333,0,0,-0.13333333,0,5184.6667)" />
      <path
         id="path19"
         d="m 9043.16,20140.2 c 387.9,0 702.89,367.7 702.89,1282.5 0,914.9 -314.99,1282.5 -702.89,1282.5 -387.88,0 -702.87,-367.2 -702.87,-1282.5 0,-914.8 314.99,-1282.5 702.87,-1282.5 z m 1272.54,1282.5 c 0,-129.1 27.5,-1863 -1278.83,-1863 -1306.31,0 -1278.87,1733.9 -1278.87,1863 0,129.2 -27.44,1862.6 1278.87,1862.6 1306.33,0 1278.83,-1733.4 1278.83,-1862.6"
         style="fill:#231f20;fill-opacity:1;fill-rule:nonzero;stroke:none"
         transform="matrix(0.13333333,0,0,-0.13333333,0,5184.6667)" />
      <path
         id="path20"
         d="m 14781.3,19622.4 -1377,2438.1 v -2438.1 h -568.5 v 3600.3 h 568.5 l 1313.8,-2299.2 v 2299.2 h 568.5 v -3600.3 h -505.3"
         style="fill:#231f20;fill-opacity:1;fill-rule:nonzero;stroke:none"
         transform="matrix(0.13333333,0,0,-0.13333333,0,5184.6667)" />
      <path
         id="path21"
         d="m 20500.1,22717.4 v -3095 h -570.8 v 3095 h -824.8 v 505.3 h 2233 v -505.3 h -837.4"
         style="fill:#231f20;fill-opacity:1;fill-rule:nonzero;stroke:none"
         transform="matrix(0.13333333,0,0,-0.13333333,0,5184.6667)" />
      <path
         id="path22"
         d="m 17363.9,20140.1 c 387.9,0 702.9,367.7 702.9,1282.6 0,915 -315,1282.6 -702.9,1282.6 -387.9,0 -702.9,-367.2 -702.9,-1282.6 0,-914.9 315,-1282.6 702.9,-1282.6 z m 1272.7,1282.6 c 0,-129.1 27.4,-1863.1 -1279,-1863.1 -1306.4,0 -1279,1734 -1279,1863.1 0,129.2 -27.4,1862.7 1279,1862.7 1306.4,0 1279,-1733.5 1279,-1862.7"
         style="fill:#231f20;fill-opacity:1;fill-rule:nonzero;stroke:none"
         transform="matrix(0.13333333,0,0,-0.13333333,0,5184.6667)" />
      <path
         id="path23"
         d="m 17336.4,9693.9 h 724 l -355.9,1010.2 z m 927,-581 H 17133 l -355.9,-1010.7 h -609.8 l 1245.1,3600 h 572 l 1244.7,-3600 h -609.8 l -355.9,1010.7"
         style="fill:#231f20;fill-opacity:1;fill-rule:nonzero;stroke:none"
         transform="matrix(0.13333333,0,0,-0.13333333,0,5184.6667)" />
      <path
         id="path24"
         d="M 22009.4,10186.6 21174.6,8102.2 20339,10186.6 V 8102.2 h -569.7 v 3600 h 569.7 l 835.6,-2020.9 834.8,2020.9 h 569.7 v -3600 h -569.7 v 2084.4"
         style="fill:#231f20;fill-opacity:1;fill-rule:nonzero;stroke:none"
         transform="matrix(0.13333333,0,0,-0.13333333,0,5184.6667)" />
      <path
         id="path25"
         d="M 7596.62,10183.5 H 9396.61 V 9621 H 7596.62 v 562.5"
         style="fill:#231f20;fill-opacity:1;fill-rule:nonzero;stroke:none"
         transform="matrix(0.13333333,0,0,-0.13333333,0,5184.6667)" />
      <path
         id="path26"
         d="m 11777.6,10666.3 c 0,-303.3 286.2,-517.5 644.4,-517.5 366.3,0 657,226.8 657,517.5 0,287.1 -296.6,518 -657,518 -353.7,0 -644.4,-227.3 -644.4,-518 z m 202.5,-2147.4 c 429.3,341.1 657,631.4 871.6,1098.9 -202,-37.3 -290.7,-49.9 -429.7,-49.9 -671.4,0 -1225.4,492.3 -1225.4,1098.9 0,625 543.6,1098.9 1225.4,1098.9 688.5,0 1225.3,-493.7 1225.3,-1149.8 0,-982.8 -555.7,-2008.3 -1389.6,-2576.7 l -277.6,479.7"
         style="fill:#231f20;fill-opacity:1;fill-rule:nonzero;stroke:none"
         transform="matrix(0.13333333,0,0,-0.13333333,0,5184.6667)" />
      <path
         id="path27"
         d="m 4146.03,8102.2 c 0,1404.5 589.05,2522.3 926.99,3031.7 H 3345.93 v 568.3 h 2450.69 v -568.3 c -241.2,-253.4 -1066.5,-1409 -1066.5,-3031.7 h -584.09"
         style="fill:#231f20;fill-opacity:1;fill-rule:nonzero;stroke:none"
         transform="matrix(0.13333333,0,0,-0.13333333,0,5184.6667)" />
      <path
         id="path28"
         d="m 13438.8,5087.7 h 1440 v -450 h -1440 v 450"
         style="fill:#231f20;fill-opacity:1;fill-rule:nonzero;stroke:none"
         transform="matrix(0.13333333,0,0,-0.13333333,0,5184.6667)" />
      <path
         id="path29"
         d="m 16773.1,5140.6 h 837.7 v -464.8 h -837.7 V 3422.7 h -454.3 v 2880 h 1786.3 V 5848 h -1332 v -707.4"
         style="fill:#231f20;fill-opacity:1;fill-rule:nonzero;stroke:none"
         transform="matrix(0.13333333,0,0,-0.13333333,0,5184.6667)" />
      <path
         id="path30"
         d="m 19563.6,5140.6 c 361.4,0 418.3,260.6 418.3,353.5 0,125.7 -94,353.9 -396.4,353.9 h -594 v -707.4 z m -572.1,-464.4 V 3422.7 h -454.3 v 2880 h 1041.9 c 660.2,0 858.2,-528.1 858.2,-808.9 0,-107 -39.6,-528.2 -447.1,-721.1 l 507.6,-1350 h -495.4 l -464.7,1253.5 h -546.2"
         style="fill:#231f20;fill-opacity:1;fill-rule:nonzero;stroke:none"
         transform="matrix(0.13333333,0,0,-0.13333333,0,5184.6667)" />
      <path
         id="path31"
         d="m 20987.5,6302.7 h 460.8 v -2880 h -460.8 v 2880"
         style="fill:#231f20;fill-opacity:1;fill-rule:nonzero;stroke:none"
         transform="matrix(0.13333333,0,0,-0.13333333,0,5184.6667)" />
      <path
         id="path32"
         d="M 6268.78,5090.2 5600.98,3422.7 4932.46,5090.2 V 3422.7 H 4476.7 v 2880 h 455.76 l 668.52,-1616.8 667.8,1616.8 h 455.75 v -2880 h -455.75 v 1667.5"
         style="fill:#231f20;fill-opacity:1;fill-rule:nonzero;stroke:none"
         transform="matrix(0.13333333,0,0,-0.13333333,0,5184.6667)" />
      <path
         id="path33"
         d="m 8386.43,3836.7 c 310.32,0 562.32,294.1 562.32,1026 0,731.8 -252,1026 -562.32,1026 -310.32,0 -562.31,-293.8 -562.31,-1026 0,-731.9 251.99,-1026 562.31,-1026 z m 1018.08,1026 c 0,-103.3 21.96,-1490.4 -1023.12,-1490.4 -1045.07,0 -1023.11,1387.1 -1023.11,1490.4 0,103.3 -21.96,1490 1023.11,1490 1045.08,0 1023.12,-1386.7 1023.12,-1490"
         style="fill:#231f20;fill-opacity:1;fill-rule:nonzero;stroke:none"
         transform="matrix(0.13333333,0,0,-0.13333333,0,5184.6667)" />
      <path
         id="path34"
         d="M 10492.6,5372.8 V 3422.7 h -454.3 v 2880 h 454.3 l 1051.2,-1839.3 v 1839.3 h 455 v -2880 h -404.3 l -1101.9,1950.1"
         style="fill:#231f20;fill-opacity:1;fill-rule:nonzero;stroke:none"
         transform="matrix(0.13333333,0,0,-0.13333333,0,5184.6667)" />
    </g>
  </g>
</svg>
