<?xml version="1.0" standalone="no"?>
<svg width="2592px" height="3456px" viewBox="0 -2664 2592 3456 " xmlns="http://www.w3.org/2000/svg" xmlns:xlink="http://www.w3.org/1999/xlink">
<title>generated by pstoedit</title>
<!-- generated by pstoedit version:4.02 -->
<g xml:space='preserve'>
<clipPath id="clippath1"> 	<path d="
	M 0 -2664.5 
	L 0 792 
	L 2592.5 792 
	L 2592.5 -2664.5 
	Z 
	" style="clip-rule:nonzero"/>
</clipPath>
<g style="clip-path:url(#clippath1)"> 
<g fill="#ffffff" fill-rule="nonzero" stroke-width="0" stroke-linejoin="miter" stroke-linecap="butt" stroke-miterlimit="10" >
	<path d="
	M 2592.25 629.75 
	C 2592.25 719.219 2519.72 791.75 2430.25 791.75 
	L 162.25 791.75 
	C 72.7813 791.75 0.25 719.219 0.25 629.75 
	L 0.25 -2502.25 
	C 0.25 -2591.72 72.7813 -2664.25 162.25 -2664.25 
	L 2430.25 -2664.25 
	C 2519.72 -2664.25 2592.25 -2591.72 2592.25 -2502.25 
	Z 
	"/>
</g>
<g stroke="#7f7f7f" fill="none" stroke-width="0.5" stroke-linejoin="miter" stroke-linecap="butt" stroke-miterlimit="4" >
	<path d="
	M 2592.25 629.75 
	C 2592.25 719.219 2519.72 791.75 2430.25 791.75 
	L 162.25 791.75 
	C 72.7813 791.75 0.25 719.219 0.25 629.75 
	L 0.25 -2502.25 
	C 0.25 -2591.72 72.7813 -2664.25 162.25 -2664.25 
	L 2430.25 -2664.25 
	C 2519.72 -2664.25 2592.25 -2591.72 2592.25 -2502.25 
	Z 
	"/>
</g>
<g fill="#7f7f7f" fill-rule="nonzero" stroke-width="0" stroke-linejoin="miter" stroke-linecap="butt" stroke-miterlimit="4" >
	<path d="
	M 2484.25 629.75 
	C 2484.25 659.52 2460.03 683.75 2430.25 683.75 
	L 162.25 683.75 
	C 132.477 683.75 108.25 659.52 108.25 629.75 
	L 108.25 -2502.25 
	C 108.25 -2532.03 132.477 -2556.25 162.25 -2556.25 
	L 2430.25 -2556.25 
	C 2460.03 -2556.25 2484.25 -2532.02 2484.25 -2502.25 
	Z 
	M 2430.25 -2619.25 
	L 162.25 -2619.25 
	C 97.7383 -2619.25 45.25 -2566.76 45.25 -2502.25 
	L 45.25 629.75 
	C 45.25 694.262 97.7383 746.75 162.25 746.75 
	L 2430.25 746.75 
	C 2494.76 746.75 2547.25 694.262 2547.25 629.75 
	L 2547.25 -2502.25 
	C 2547.25 -2566.76 2494.76 -2619.25 2430.25 -2619.25 
	Z 
	"/>
</g>
<g fill="#7f7f7f" fill-rule="nonzero" stroke-width="0" stroke-linejoin="miter" stroke-linecap="butt" stroke-miterlimit="4" >
	<path d="
	M 1046.47 -1052.46 
	L 1005.95 -886.73 
	L 1089.03 -886.73 
	Z 
	M 1149.81 -648.25 
	L 1109.29 -805.9 
	L 985.684 -805.9 
	L 947.188 -648.25 
	L 864.105 -648.25 
	L 1007.97 -1224.25 
	L 1089.03 -1224.25 
	L 1232.89 -648.25 
	Z 
	"/>
</g>
<g fill="#7f7f7f" fill-rule="nonzero" stroke-width="0" stroke-linejoin="miter" stroke-linecap="butt" stroke-miterlimit="4" >
	<path d="
	M 1762.96 -648.25 
	L 1762.96 -1224.25 
	L 2034.56 -1224.25 
	L 2034.56 -1143.41 
	L 1846.06 -1143.41 
	L 1846.06 -997.9 
	L 1965.65 -997.9 
	L 1965.65 -919.07 
	L 1846.06 -919.07 
	L 1846.06 -729.09 
	L 2056.86 -729.09 
	L 2056.86 -648.25 
	Z 
	"/>
</g>
<g fill="#7f7f7f" fill-rule="nonzero" stroke-width="0" stroke-linejoin="miter" stroke-linecap="butt" stroke-miterlimit="4" >
	<path d="
	M 535.641 -648.25 
	L 535.641 -1224.25 
	L 618.746 -1224.25 
	L 618.746 -725.05 
	L 829.547 -725.05 
	L 829.547 -648.25 
	Z 
	"/>
</g>
<g fill="#7f7f7f" fill-rule="nonzero" stroke-width="0" stroke-linejoin="miter" stroke-linecap="butt" stroke-miterlimit="4" >
	<path d="
	M 1573.71 -648.25 
	L 1396.23 -1034.27 
	L 1396.23 -648.25 
	L 1313.53 -648.25 
	L 1313.53 -1224.25 
	L 1396.23 -1224.25 
	L 1553.54 -878.65 
	L 1553.54 -1224.25 
	L 1636.24 -1224.25 
	L 1636.24 -648.25 
	Z 
	"/>
</g>
<g fill="#7f7f7f" fill-rule="nonzero" stroke-width="0" stroke-linejoin="miter" stroke-linecap="butt" stroke-miterlimit="4" >
	<path d="
	M 879.66 -1880.97 
	L 796.969 -1880.97 
	L 796.969 -1701.09 
	L 879.66 -1701.09 
	C 926.051 -1701.09 956.305 -1733.43 956.305 -1783.95 
	C 956.305 -1838.52 922.016 -1880.97 879.66 -1880.97 
	Z 
	M 883.695 -2115.41 
	L 796.969 -2115.41 
	L 796.969 -1961.81 
	L 883.695 -1961.81 
	C 922.016 -1961.81 946.219 -1994.14 946.219 -2046.69 
	C 946.219 -2095.2 928.066 -2115.41 883.695 -2115.41 
	Z 
	M 883.695 -1620.25 
	L 714.273 -1620.25 
	L 714.273 -2196.25 
	L 895.797 -2196.25 
	C 972.438 -2196.25 1026.89 -2135.62 1026.89 -2046.69 
	C 1026.89 -1994.14 1012.78 -1969.89 966.387 -1921.39 
	C 1010.76 -1885.01 1036.98 -1836.5 1036.98 -1777.89 
	C 1036.98 -1690.98 968.402 -1620.25 883.695 -1620.25 
	Z 
	"/>
</g>
<g fill="#7f7f7f" fill-rule="nonzero" stroke-width="0" stroke-linejoin="miter" stroke-linecap="butt" stroke-miterlimit="4" >
	<path d="
	M 1719.54 -1886.26 
	C 1694.62 -1902.4 1670.42 -1918.6 1654.97 -1929.47 
	C 1608.54 -1962.16 1583.94 -2006.27 1583.94 -2056.8 
	C 1583.94 -2139.66 1648.88 -2206.36 1732.1 -2206.36 
	C 1813.28 -2206.36 1876.2 -2143.7 1878.23 -2056.8 
	L 1799.08 -2056.8 
	C 1797.05 -2097.22 1768.63 -2123.49 1732.1 -2123.49 
	C 1693.54 -2123.49 1663.09 -2095.2 1663.09 -2056.8 
	C 1663.09 -2028.5 1675.27 -2012.33 1717.89 -1988.08 
	C 1829.52 -1923.41 1878.23 -1860.76 1878.23 -1777.89 
	C 1878.23 -1684.92 1807.19 -1610.14 1717.89 -1610.14 
	C 1616.41 -1610.14 1555.52 -1695.03 1555.52 -1790.02 
	L 1636.71 -1790.02 
	C 1636.71 -1741.52 1661.06 -1690.98 1717.89 -1690.98 
	C 1762.54 -1690.98 1799.08 -1731.41 1799.08 -1777.89 
	C 1799.08 -1813.98 1784.16 -1844.38 1719.54 -1886.26 
	Z 
	"/>
</g>
<g fill="#7f7f7f" fill-rule="nonzero" stroke-width="0" stroke-linejoin="miter" stroke-linecap="butt" stroke-miterlimit="4" >
	<path d="
	M 1435.42 -1690.98 
	C 1407.18 -1644.5 1352.72 -1610.14 1298.27 -1610.14 
	C 1241.79 -1610.14 1185.32 -1642.48 1157.09 -1690.98 
	C 1140.95 -1721.3 1134.9 -1745.55 1134.9 -1792.04 
	L 1134.9 -2196.25 
	L 1217.59 -2196.25 
	L 1217.59 -1781.93 
	C 1217.59 -1727.36 1249.86 -1690.98 1298.27 -1690.98 
	C 1342.64 -1690.98 1374.91 -1727.36 1374.91 -1781.93 
	L 1374.91 -2196.25 
	L 1457.61 -2196.25 
	L 1457.61 -1792.04 
	C 1457.61 -1745.55 1451.56 -1721.3 1435.42 -1690.98 
	Z 
	"/>
</g>
<g fill="#7f7f7f" fill-rule="nonzero" stroke-width="0" stroke-linejoin="miter" stroke-linecap="butt" stroke-miterlimit="4" >
	<path d="
	M 470.258 -80.461 
	L 429.73 85.27 
	L 512.809 85.27 
	Z 
	M 573.598 323.75 
	L 533.07 166.109 
	L 409.469 166.109 
	L 370.969 323.75 
	L 287.891 323.75 
	L 431.758 -252.25 
	L 512.809 -252.25 
	L 656.676 323.75 
	Z 
	"/>
</g>
<g fill="#7f7f7f" fill-rule="nonzero" stroke-width="0" stroke-linejoin="miter" stroke-linecap="butt" stroke-miterlimit="4" >
	<path d="
	M 1714.85 -80.461 
	L 1674.32 85.27 
	L 1757.4 85.27 
	Z 
	M 1818.19 323.75 
	L 1777.66 166.109 
	L 1654.06 166.109 
	L 1615.56 323.75 
	L 1532.48 323.75 
	L 1676.35 -252.25 
	L 1757.4 -252.25 
	L 1901.27 323.75 
	Z 
	"/>
</g>
<g fill="#7f7f7f" fill-rule="nonzero" stroke-width="0" stroke-linejoin="miter" stroke-linecap="butt" stroke-miterlimit="4" >
	<path d="
	M 2207.8 -112.801 
	C 2193.68 -153.219 2169.48 -171.41 2133.18 -171.41 
	L 2064.6 -171.41 
	L 2064.6 242.91 
	L 2133.18 242.91 
	C 2181.58 242.91 2207.8 204.512 2215.87 160.039 
	C 2219.9 123.672 2223.94 83.238 2223.94 38.781 
	C 2223.94 -25.891 2217.88 -88.539 2207.8 -112.801 
	Z 
	M 2221.92 297.48 
	C 2201.75 315.672 2173.51 323.75 2141.24 323.75 
	L 1981.91 323.75 
	L 1981.91 -252.25 
	L 2129.14 -252.25 
	C 2177.55 -252.25 2201.75 -246.19 2221.92 -230.02 
	C 2256.21 -205.77 2280.41 -161.301 2290.49 -102.691 
	C 2298.56 -60.25 2304.61 -9.71899 2304.61 34.738 
	C 2304.61 168.129 2278.39 253.012 2221.92 297.48 
	Z 
	"/>
</g>
<g fill="#7f7f7f" fill-rule="nonzero" stroke-width="0" stroke-linejoin="miter" stroke-linecap="butt" stroke-miterlimit="4" >
	<path d="
	M 1186.74 323.75 
	L 1186.74 -252.25 
	L 1458.34 -252.25 
	L 1458.34 -171.41 
	L 1269.84 -171.41 
	L 1269.84 -25.891 
	L 1389.43 -25.891 
	L 1389.43 52.93 
	L 1269.84 52.93 
	L 1269.84 242.91 
	L 1480.64 242.91 
	L 1480.64 323.75 
	Z 
	"/>
</g>
<g fill="#7f7f7f" fill-rule="nonzero" stroke-width="0" stroke-linejoin="miter" stroke-linecap="butt" stroke-miterlimit="4" >
	<path d="
	M 977.324 323.75 
	L 977.324 63.031 
	L 820.012 63.031 
	L 820.012 323.75 
	L 737.313 323.75 
	L 737.313 -252.25 
	L 820.012 -252.25 
	L 820.012 -17.809 
	L 977.324 -17.809 
	L 977.324 -252.25 
	L 1060.02 -252.25 
	L 1060.02 323.75 
	Z 
	"/>
</g>
</g >
</g>
</svg>
