<?xml version="1.0" encoding="UTF-8" standalone="no"?>
<!-- Created with Inkscape (http://www.inkscape.org/) -->

<svg
   version="1.1"
   id="svg1"
   width="2880.6667"
   height="1152.6667"
   viewBox="0 0 2880.6667 1152.6667"
   sodipodi:docname="tmpfu_bp7xi.pdf"
   xmlns:inkscape="http://www.inkscape.org/namespaces/inkscape"
   xmlns:sodipodi="http://sodipodi.sourceforge.net/DTD/sodipodi-0.dtd"
   xmlns="http://www.w3.org/2000/svg"
   xmlns:svg="http://www.w3.org/2000/svg">
  <defs
     id="defs1" />
  <sodipodi:namedview
     id="namedview1"
     pagecolor="#ffffff"
     bordercolor="#000000"
     borderopacity="0.25"
     inkscape:showpageshadow="2"
     inkscape:pageopacity="0.0"
     inkscape:pagecheckerboard="0"
     inkscape:deskcolor="#d1d1d1">
    <inkscape:page
       x="0"
       y="0"
       inkscape:label="1"
       id="page1"
       width="2880.6667"
       height="1152.6667"
       margin="0"
       bleed="0" />
  </sodipodi:namedview>
  <g
     id="g1"
     inkscape:groupmode="layer"
     inkscape:label="1">
    <g
       id="group-R5">
      <path
         id="path2"
         d="M 1082.5,1.25 C 486.301,1.25 1.25,486.301 1.25,1082.5 v 6480 c 0,596.2 485.051,1081.25 1081.25,1081.25 h 19440 c 596.2,0 1081.3,-485.05 1081.3,-1081.25 v -6480 C 21603.8,486.301 21118.7,1.25 20522.5,1.25 h -19440"
         style="fill:#ffffff;fill-opacity:1;fill-rule:nonzero;stroke:none"
         transform="matrix(0.13333333,0,0,-0.13333333,0,1152.6667)" />
      <path
         id="path3"
         d="M 20522.5,8645 H 1082.5 C 793.352,8645 521.512,8532.4 317.055,8327.95 112.602,8123.48 0,7851.65 0,7562.5 v -6480 C 0,793.352 112.602,521.512 317.055,317.051 521.512,112.602 793.352,0 1082.5,0 h 19440 c 289.1,0 561,112.602 765.4,317.051 204.5,204.461 317.1,476.301 317.1,765.449 v 6480 c 0,289.15 -112.6,560.98 -317.1,765.45 -204.4,204.45 -476.3,317.05 -765.4,317.05 z m 0,-2.5 c 596.5,0 1080,-483.53 1080,-1080 v -6480 c 0,-596.469 -483.5,-1080 -1080,-1080 H 1082.5 C 486.031,2.5 2.5,486.031 2.5,1082.5 v 6480 c 0,596.47 483.531,1080 1080,1080 h 19440"
         style="fill:#231f20;fill-opacity:1;fill-rule:nonzero;stroke:none"
         transform="matrix(0.13333333,0,0,-0.13333333,0,1152.6667)" />
      <path
         id="path4"
         d="m 20882.5,1082.5 v 6480 c 0,198.82 -161.2,360 -360,360 h -19440 c -198.82,0 -360,-161.18 -360,-360 v -6480 c 0,-198.82 161.18,-360 360,-360 h 19440 c 198.8,0 360,161.18 360,360 z m -360,-810 h -19440 c -447.352,0 -810,362.652 -810,810 v 6480 c 0,447.35 362.648,810 810,810 h 19440 c 447.4,0 810,-362.65 810,-810 v -6480 c 0,-447.348 -362.6,-810 -810,-810"
         style="fill:#231f20;fill-opacity:1;fill-rule:nonzero;stroke:none"
         transform="matrix(0.13333333,0,0,-0.13333333,0,1152.6667)" />
      <path
         id="path5"
         d="m 3596,3286.79 h 413.26 c 232.19,0 383.39,161.64 383.39,414.36 0,278.28 -166.68,484.92 -383.03,484.92 H 3596 Z m 0,2071.43 v -767.87 h 433.42 c 192.23,0 312.83,161.63 312.83,424.43 0,247.68 -88.92,343.44 -312.47,343.44 z M 3182.74,2882.51 V 5762.5 h 907.52 c 382.3,0 655.53,-303.12 655.53,-747.72 0,-263.88 -70.56,-384.12 -302.38,-626.76 221.74,-181.79 352.78,-424.43 352.78,-717.47 0,-430.92 -343.07,-788.04 -766.41,-788.04 h -847.04"
         style="fill:#231f20;fill-opacity:1;fill-rule:nonzero;stroke:none"
         transform="matrix(0.13333333,0,0,-0.13333333,0,1152.6667)" />
      <path
         id="path6"
         d="M 5285.88,3719.51 V 5762.5 h 413.26 V 3691.07 c 0,-271.08 158.39,-455.04 403.18,-455.04 221.75,0 383.39,181.8 383.39,455.04 V 5762.5 h 413.62 V 3713.39 c 0,-655.2 -506.14,-881.28 -797.01,-881.28 -266.03,0 -816.44,173.16 -816.44,887.4"
         style="fill:#231f20;fill-opacity:1;fill-rule:nonzero;stroke:none"
         transform="matrix(0.13333333,0,0,-0.13333333,0,1152.6667)" />
      <path
         id="path7"
         d="m 8215.22,4713.47 c 314.98,-197.65 787.28,-474.48 787.28,-1042.92 0,-466.2 -355.3,-838.44 -801.68,-838.44 -507.22,0 -811.77,429.12 -811.77,899.28 h 406.07 c 0,-245.16 121.67,-495.36 405.7,-495.36 223.19,0 405.7,201.96 405.7,434.52 0,626.04 -1075.28,590.04 -1075.28,1394.63 0,414.36 324.71,747.36 740.49,747.36 406.07,0 720.69,-313.2 730.77,-747.72 h -395.98 c -10.08,201.96 -152.28,333.36 -334.79,333.36 -192.95,0 -344.86,-141.12 -344.86,-333 0,-187.19 99.35,-233.27 288.35,-351.71"
         style="fill:#231f20;fill-opacity:1;fill-rule:nonzero;stroke:none"
         transform="matrix(0.13333333,0,0,-0.13333333,0,1152.6667)" />
      <path
         id="path8"
         d="m 10802.5,5762.5 h 415.4 V 3266.63 H 12272 V 2882.51 H 10802.5 V 5762.5"
         style="fill:#231f20;fill-opacity:1;fill-rule:nonzero;stroke:none"
         transform="matrix(0.13333333,0,0,-0.13333333,0,1152.6667)" />
      <path
         id="path9"
         d="m 13154,4074.83 h 415.4 l -212.7,828.71 z m 516.6,-404.28 h -617.8 l -192.6,-788.04 h -415.4 l 719.3,2879.99 h 405.7 l 718.9,-2879.99 h -415.5 l -202.6,788.04"
         style="fill:#231f20;fill-opacity:1;fill-rule:nonzero;stroke:none"
         transform="matrix(0.13333333,0,0,-0.13333333,0,1152.6667)" />
      <path
         id="path10"
         d="M 15105.2,4812.47 V 2882.51 H 14692 V 5762.5 h 413.2 l 786.6,-1727.99 V 5762.5 h 413.6 V 2882.51 h -312.5 l -887.7,1929.96"
         style="fill:#231f20;fill-opacity:1;fill-rule:nonzero;stroke:none"
         transform="matrix(0.13333333,0,0,-0.13333333,0,1152.6667)" />
      <path
         id="path11"
         d="M 16939.1,5762.5 H 18297 v -404.28 h -942.5 v -727.56 h 597.6 v -394.19 h -597.6 v -950.04 h 1054.1 V 2882.51 H 16939.1 V 5762.5"
         style="fill:#231f20;fill-opacity:1;fill-rule:nonzero;stroke:none"
         transform="matrix(0.13333333,0,0,-0.13333333,0,1152.6667)" />
    </g>
  </g>
</svg>
