<?xml version="1.0" encoding="UTF-8" standalone="no"?>
<!-- Created with Inkscape (http://www.inkscape.org/) -->

<svg
   version="1.1"
   id="svg1"
   width="2880.6667"
   height="3456.6667"
   viewBox="0 0 2880.6667 3456.6667"
   sodipodi:docname="tmpmlqqmomv.pdf"
   xmlns:inkscape="http://www.inkscape.org/namespaces/inkscape"
   xmlns:sodipodi="http://sodipodi.sourceforge.net/DTD/sodipodi-0.dtd"
   xmlns="http://www.w3.org/2000/svg"
   xmlns:svg="http://www.w3.org/2000/svg">
  <defs
     id="defs1" />
  <sodipodi:namedview
     id="namedview1"
     pagecolor="#ffffff"
     bordercolor="#000000"
     borderopacity="0.25"
     inkscape:showpageshadow="2"
     inkscape:pageopacity="0.0"
     inkscape:pagecheckerboard="0"
     inkscape:deskcolor="#d1d1d1">
    <inkscape:page
       x="0"
       y="0"
       inkscape:label="1"
       id="page1"
       width="2880.6667"
       height="3456.6667"
       margin="0"
       bleed="0" />
  </sodipodi:namedview>
  <g
     id="g1"
     inkscape:groupmode="layer"
     inkscape:label="1">
    <g
       id="group-R5">
      <path
         id="path2"
         d="m 21602.5,1352.5 c 0,-745.602 -604.4,-1350 -1350,-1350 H 1352.5 C 606.914,2.5 2.5,606.898 2.5,1352.5 v 23220 c 0,745.6 604.414,1350 1350,1350 h 18900 c 745.6,0 1350,-604.4 1350,-1350 v -23220"
         style="fill:#ffffff;fill-opacity:1;fill-rule:nonzero;stroke:none"
         transform="matrix(0.13333333,0,0,-0.13333333,0,3456.6667)" />
      <path
         id="path3"
         d="m 21602.5,1352.5 c 0,-745.602 -604.4,-1350 -1350,-1350 H 1352.5 C 606.914,2.5 2.5,606.898 2.5,1352.5 v 23220 c 0,745.6 604.414,1350 1350,1350 h 18900 c 745.6,0 1350,-604.4 1350,-1350 z"
         style="fill:none;stroke:#231f20;stroke-width:5;stroke-linecap:butt;stroke-linejoin:miter;stroke-miterlimit:4;stroke-dasharray:none;stroke-opacity:1"
         transform="matrix(0.13333333,0,0,-0.13333333,0,3456.6667)" />
      <path
         id="path4"
         d="m 20702.5,1352.5 c 0,-248.1 -201.9,-450 -450,-450 h -18900 c -248.13,0 -450,201.9 -450,450 v 23220 c 0,248.1 201.87,450 450,450 h 18900 c 248.1,0 450,-201.9 450,-450 z m -450,24210 h -18900 c -545.891,0 -990,-444.1 -990,-990 v -23220 c 0,-545.898 444.109,-990 990,-990 h 18900 c 545.9,0 990,444.102 990,990 v 23220 c 0,545.9 -444.1,990 -990,990"
         style="fill:#231f20;fill-opacity:1;fill-rule:nonzero;stroke:none"
         transform="matrix(0.13333333,0,0,-0.13333333,0,3456.6667)" />
      <path
         id="path5"
         d="m 8929.17,13834.1 -303.96,-1243 h 623.11 z m 775.05,-3031.6 -303.94,1182.3 h -927.02 l -288.74,-1182.3 h -623.09 l 1078.99,4320 h 607.9 l 1078.98,-4320 h -623.08"
         style="fill:#231f20;fill-opacity:1;fill-rule:nonzero;stroke:none"
         transform="matrix(0.13333333,0,0,-0.13333333,0,3456.6667)" />
      <path
         id="path6"
         d="m 14302.8,10802.5 v 4320 h 2037 v -606.3 h -1413.7 v -1091.4 h 896.9 v -591.2 h -896.9 v -1424.8 h 1581 v -606.3 h -2204.3"
         style="fill:#231f20;fill-opacity:1;fill-rule:nonzero;stroke:none"
         transform="matrix(0.13333333,0,0,-0.13333333,0,3456.6667)" />
      <path
         id="path7"
         d="m 5097.93,10802.5 v 4320 h 623.3 v -3744 h 1580.99 v -576 H 5097.93"
         style="fill:#231f20;fill-opacity:1;fill-rule:nonzero;stroke:none"
         transform="matrix(0.13333333,0,0,-0.13333333,0,3456.6667)" />
      <path
         id="path8"
         d="m 12883.5,10802.5 -1331.2,2895.2 v -2895.2 h -620.2 v 4320 h 620.2 l 1179.9,-2592 v 2592 h 620.2 v -4320 h -468.9"
         style="fill:#231f20;fill-opacity:1;fill-rule:nonzero;stroke:none"
         transform="matrix(0.13333333,0,0,-0.13333333,0,3456.6667)" />
      <path
         id="path9"
         d="m 7678.07,19957.9 h -620.19 v -1349.1 h 620.19 c 347.92,0 574.83,242.6 574.83,621.5 0,409.3 -257.17,727.6 -574.83,727.6 z m 30.26,1758.3 h -650.45 v -1152 h 650.45 c 287.4,0 468.93,242.5 468.93,636.6 0,363.8 -136.14,515.4 -468.93,515.4 z m 0,-3713.7 H 6437.68 v 4320 h 1361.41 c 574.81,0 983.23,-454.7 983.23,-1121.7 0,-394.1 -105.88,-576 -453.79,-939.8 332.78,-272.8 529.43,-636.6 529.43,-1076.2 0,-651.8 -514.31,-1182.3 -1149.63,-1182.3"
         style="fill:#231f20;fill-opacity:1;fill-rule:nonzero;stroke:none"
         transform="matrix(0.13333333,0,0,-0.13333333,0,3456.6667)" />
      <path
         id="path10"
         d="m 13977.2,19997.5 c -186.9,121.1 -368.4,242.6 -484.3,324.2 -348.3,245.1 -532.7,576 -532.7,954.9 0,621.5 487,1121.7 1111.2,1121.7 608.8,0 1080.7,-469.9 1095.9,-1121.7 h -593.6 c -15.2,303.2 -228.3,500.2 -502.3,500.2 -289.3,0 -517.6,-212.2 -517.6,-500.2 0,-212.2 91.4,-333.5 411,-515.4 837.2,-485 1202.5,-954.9 1202.5,-1576.4 0,-697.2 -532.7,-1258.1 -1202.5,-1258.1 -761.1,0 -1217.7,636.6 -1217.7,1349.1 h 608.8 c 0,-363.8 182.7,-742.8 608.9,-742.8 334.9,0 608.9,303.2 608.9,651.8 0,270.7 -111.9,498.7 -596.5,812.7"
         style="fill:#231f20;fill-opacity:1;fill-rule:nonzero;stroke:none"
         transform="matrix(0.13333333,0,0,-0.13333333,0,3456.6667)" />
      <path
         id="path11"
         d="m 11846.3,18533 c -211.8,-348.6 -620.2,-606.3 -1028.6,-606.3 -423.6,0 -847.17,242.5 -1058.93,606.3 -121.03,227.4 -166.41,409.3 -166.41,757.9 v 3031.6 h 620.24 v -3107.4 c 0,-409.2 242,-682.1 605.1,-682.1 332.7,0 574.8,272.9 574.8,682.1 v 3107.4 h 620.2 v -3031.6 c 0,-348.6 -45.4,-530.5 -166.4,-757.9"
         style="fill:#231f20;fill-opacity:1;fill-rule:nonzero;stroke:none"
         transform="matrix(0.13333333,0,0,-0.13333333,0,3456.6667)" />
      <path
         id="path12"
         d="m 4607.54,6634.1 -303.95,-1243 h 623.1 z M 5382.6,3602.5 5078.64,4784.8 H 4151.63 L 3862.88,3602.5 h -623.09 l 1079,4320 h 607.9 l 1078.99,-4320 H 5382.6"
         style="fill:#231f20;fill-opacity:1;fill-rule:nonzero;stroke:none"
         transform="matrix(0.13333333,0,0,-0.13333333,0,3456.6667)" />
      <path
         id="path13"
         d="m 13942,6634.1 -304,-1243 h 623.1 z m 775,-3031.6 -303.9,1182.3 h -927 l -288.8,-1182.3 h -623.1 l 1079,4320 h 607.9 l 1079,-4320 H 14717"
         style="fill:#231f20;fill-opacity:1;fill-rule:nonzero;stroke:none"
         transform="matrix(0.13333333,0,0,-0.13333333,0,3456.6667)" />
      <path
         id="path14"
         d="m 17639.1,6876.6 c -105.9,303.2 -287.4,439.6 -559.7,439.6 h -514.3 V 4208.8 h 514.3 c 363.1,0 559.7,288 620.2,621.5 30.3,272.8 60.5,576 60.5,909.5 0,485 -45.3,954.9 -121,1136.8 z m 105.9,-3077 c -151.3,-136.5 -363,-197.1 -605,-197.1 h -1195.1 v 4320 h 1104.3 c 363,0 544.5,-45.5 695.8,-166.7 257.2,-181.9 438.7,-515.4 514.3,-955 60.5,-318.3 105.9,-697.2 105.9,-1030.7 0,-1000.5 -196.6,-1637.1 -620.2,-1970.5"
         style="fill:#231f20;fill-opacity:1;fill-rule:nonzero;stroke:none"
         transform="matrix(0.13333333,0,0,-0.13333333,0,3456.6667)" />
      <path
         id="path15"
         d="m 9981.16,3602.5 v 4320 H 12018.2 V 7316.2 H 10604.4 V 6224.8 h 896.9 v -591.1 h -896.9 V 4208.8 h 1581 V 3602.5 H 9981.16"
         style="fill:#231f20;fill-opacity:1;fill-rule:nonzero;stroke:none"
         transform="matrix(0.13333333,0,0,-0.13333333,0,3456.6667)" />
      <path
         id="path16"
         d="M 8410.57,3602.5 V 5557.9 H 7230.69 V 3602.5 h -620.21 v 4320 h 620.21 V 6164.2 h 1179.88 v 1758.3 h 620.18 v -4320 h -620.18"
         style="fill:#231f20;fill-opacity:1;fill-rule:nonzero;stroke:none"
         transform="matrix(0.13333333,0,0,-0.13333333,0,3456.6667)" />
    </g>
  </g>
</svg>
