<?xml version="1.0" standalone="no"?>
<svg width="4752px" height="2592px" viewBox="0 -1800 4752 2592 " xmlns="http://www.w3.org/2000/svg" xmlns:xlink="http://www.w3.org/1999/xlink">
<title>generated by pstoedit</title>
<!-- generated by pstoedit version:4.02 -->
<g xml:space='preserve'>
<clipPath id="clippath1"> 	<path d="
	M 0 -1800.5 
	L 0 792 
	L 4752.5 792 
	L 4752.5 -1800.5 
	Z 
	" style="clip-rule:nonzero"/>
</clipPath>
<g style="clip-path:url(#clippath1)"> 
<g fill="#ffffff" fill-rule="nonzero" stroke-width="0" stroke-linejoin="miter" stroke-linecap="butt" stroke-miterlimit="10" >
	<path d="
	M 4752.25 629.75 
	C 4752.25 719.219 4679.72 791.75 4590.25 791.75 
	L 162.25 791.75 
	C 72.7813 791.75 0.25 719.219 0.25 629.75 
	L 0.25 -1638.25 
	C 0.25 -1727.72 72.7813 -1800.25 162.25 -1800.25 
	L 4590.25 -1800.25 
	C 4679.72 -1800.25 4752.25 -1727.72 4752.25 -1638.25 
	Z 
	"/>
</g>
<g stroke="#7f7f7f" fill="none" stroke-width="0.5" stroke-linejoin="miter" stroke-linecap="butt" stroke-miterlimit="4" >
	<path d="
	M 4752.25 629.75 
	C 4752.25 719.219 4679.72 791.75 4590.25 791.75 
	L 162.25 791.75 
	C 72.7813 791.75 0.25 719.219 0.25 629.75 
	L 0.25 -1638.25 
	C 0.25 -1727.72 72.7813 -1800.25 162.25 -1800.25 
	L 4590.25 -1800.25 
	C 4679.72 -1800.25 4752.25 -1727.72 4752.25 -1638.25 
	Z 
	"/>
</g>
<g fill="#7f7f7f" fill-rule="nonzero" stroke-width="0" stroke-linejoin="miter" stroke-linecap="butt" stroke-miterlimit="4" >
	<path d="
	M 3245.72 -1326.75 
	C 3232.05 -1349.49 3215.34 -1358.59 3189.5 -1360.1 
	C 3156.07 -1361.62 3134.8 -1344.95 3119.61 -1307.05 
	C 3108.97 -1281.28 3102.89 -1241.87 3102.89 -1205.49 
	C 3102.89 -1160.02 3112.01 -1113.03 3128.72 -1085.74 
	C 3142.4 -1063.01 3160.63 -1052.39 3187.98 -1052.39 
	C 3219.89 -1052.39 3239.65 -1069.07 3254.84 -1106.96 
	C 3263.96 -1129.7 3271.56 -1172.14 3271.56 -1205.49 
	C 3271.56 -1254 3262.44 -1297.95 3245.72 -1326.75 
	Z 
	M 3292.83 -1031.18 
	C 3268.52 -997.83 3233.57 -982.67 3187.98 -982.67 
	C 3127.21 -982.67 3089.21 -1006.93 3063.38 -1059.98 
	C 3045.15 -1096.36 3033 -1153.95 3033 -1205.49 
	C 3033 -1276.73 3051.23 -1340.39 3080.1 -1381.32 
	C 3105.93 -1414.67 3140.88 -1429.83 3191.02 -1429.83 
	C 3245.72 -1429.83 3283.71 -1405.57 3311.06 -1352.52 
	C 3329.29 -1314.63 3339.93 -1260.06 3339.93 -1205.49 
	C 3339.93 -1137.28 3323.22 -1069.07 3292.83 -1031.18 
	Z 
	"/>
</g>
<g fill="#7f7f7f" fill-rule="nonzero" stroke-width="0" stroke-linejoin="miter" stroke-linecap="butt" stroke-miterlimit="4" >
	<path d="
	M 3586.22 -990.25 
	L 3532.98 -990.25 
	L 3396.09 -1422.25 
	L 3467.58 -1422.25 
	L 3560.36 -1134.25 
	L 3651.62 -1422.25 
	L 3724.63 -1422.25 
	Z 
	"/>
</g>
<g fill="#7f7f7f" fill-rule="nonzero" stroke-width="0" stroke-linejoin="miter" stroke-linecap="butt" stroke-miterlimit="4" >
	<path d="
	M 2869.74 -990.25 
	L 2869.74 -1178.21 
	L 2712.09 -1178.21 
	L 2712.09 -990.25 
	L 2643.87 -990.25 
	L 2643.87 -1422.25 
	L 2712.09 -1422.25 
	L 2712.09 -1247.93 
	L 2869.74 -1247.93 
	L 2869.74 -1422.25 
	L 2937.96 -1422.25 
	L 2937.96 -990.25 
	Z 
	"/>
</g>
<g fill="#7f7f7f" fill-rule="nonzero" stroke-width="0" stroke-linejoin="miter" stroke-linecap="butt" stroke-miterlimit="4" >
	<path d="
	M 3063.03 413.75 
	L 2897.79 121.199 
	L 2897.79 413.75 
	L 2829.58 413.75 
	L 2829.58 -18.25 
	L 2897.79 -18.25 
	L 3055.45 257.621 
	L 3055.45 -18.25 
	L 3123.66 -18.25 
	L 3123.66 413.75 
	Z 
	"/>
</g>
<g fill="#7f7f7f" fill-rule="nonzero" stroke-width="0" stroke-linejoin="miter" stroke-linecap="butt" stroke-miterlimit="4" >
	<path d="
	M 3837.87 387.98 
	C 3813.61 409.199 3780.26 421.332 3743.88 421.332 
	C 3669.61 421.332 3615.03 377.371 3586.23 312.191 
	L 3651.41 287.941 
	C 3669.61 328.859 3702.95 351.602 3743.88 351.602 
	C 3783.29 351.602 3810.58 324.309 3810.58 287.941 
	C 3810.58 230.328 3743.88 221.238 3687.79 198.5 
	C 3662.02 187.891 3604.42 162.129 3604.42 90.879 
	C 3604.42 6 3662.02 -25.828 3739.34 -25.828 
	C 3799.97 -25.828 3840.9 9.03101 3862.12 62.078 
	L 3801.49 80.27 
	C 3801.49 80.27 3786.33 43.891 3737.82 42.379 
	C 3705.98 40.859 3668.09 52.988 3671.12 92.398 
	C 3677.18 172.738 3880.31 119.68 3880.31 289.449 
	C 3880.31 328.859 3865.15 363.719 3837.87 387.98 
	Z 
	"/>
</g>
<g fill="#7f7f7f" fill-rule="nonzero" stroke-width="0" stroke-linejoin="miter" stroke-linecap="butt" stroke-miterlimit="4" >
	<path d="
	M 3416.83 68.141 
	C 3406.22 57.531 3391.06 49.949 3372.87 49.949 
	L 3295.56 49.949 
	L 3295.56 344.02 
	L 3363.78 344.02 
	C 3386.52 344.02 3400.16 339.469 3412.28 327.352 
	C 3438.05 301.582 3451.7 254.582 3451.7 196.988 
	C 3451.7 139.391 3438.05 90.879 3416.83 68.141 
	Z 
	M 3445.63 389.5 
	C 3428.96 404.648 3406.22 412.23 3383.48 413.75 
	C 3378.93 413.75 3369.84 413.75 3359.23 413.75 
	L 3227.34 413.75 
	L 3227.34 -18.25 
	L 3366.8 -18.25 
	C 3410.77 -18.25 3427.44 -13.711 3450.18 4.47998 
	C 3495.66 43.891 3521.43 112.102 3521.43 196.988 
	C 3521.43 283.391 3494.14 351.602 3445.63 389.5 
	Z 
	"/>
</g>
<g fill="#7f7f7f" fill-rule="nonzero" stroke-width="0" stroke-linejoin="miter" stroke-linecap="butt" stroke-miterlimit="4" >
	<path d="
	M 2488.19 413.75 
	L 2488.19 -18.25 
	L 2742.51 -18.25 
	L 2742.51 49.961 
	L 2556.31 49.961 
	L 2556.31 156.059 
	L 2681.96 156.059 
	L 2681.96 225.789 
	L 2556.31 225.789 
	L 2556.31 344.02 
	L 2756.14 344.02 
	L 2756.14 413.75 
	Z 
	"/>
</g>
<g fill="#7f7f7f" fill-rule="nonzero" stroke-width="0" stroke-linejoin="miter" stroke-linecap="butt" stroke-miterlimit="4" >
	<path d="
	M 3499.41 -605.05 
	C 3493.32 -647.49 3476.58 -667.2 3447.65 -667.2 
	C 3397.42 -667.2 3379.16 -627.79 3379.16 -515.62 
	C 3379.16 -391.32 3400.47 -341.3 3453.74 -341.3 
	C 3490.28 -341.3 3499.41 -371.62 3499.41 -403.45 
	L 3561.82 -403.45 
	C 3560.3 -332.21 3514.63 -280.67 3453.74 -280.67 
	C 3360.89 -280.67 3319.79 -354.94 3319.79 -514.1 
	C 3319.79 -653.56 3363.94 -727.83 3449.18 -727.83 
	C 3484.19 -727.83 3514.63 -712.67 3534.42 -683.87 
	C 3551.16 -662.65 3557.25 -644.46 3561.82 -605.05 
	Z 
	"/>
</g>
<g fill="#7f7f7f" fill-rule="nonzero" stroke-width="0" stroke-linejoin="miter" stroke-linecap="butt" stroke-miterlimit="4" >
	<path d="
	M 2147.78 -288.25 
	L 2147.78 -720.25 
	L 2351.48 -720.25 
	L 2351.48 -659.62 
	L 2210.1 -659.62 
	L 2210.1 -550.48 
	L 2299.79 -550.48 
	L 2299.79 -491.36 
	L 2210.1 -491.36 
	L 2210.1 -348.88 
	L 2368.2 -348.88 
	L 2368.2 -288.25 
	Z 
	"/>
</g>
<g fill="#7f7f7f" fill-rule="nonzero" stroke-width="0" stroke-linejoin="miter" stroke-linecap="butt" stroke-miterlimit="4" >
	<path d="
	M 3207.47 -288.25 
	L 3207.47 -720.25 
	L 3267.95 -720.25 
	L 3267.95 -288.25 
	Z 
	"/>
</g>
<g fill="#7f7f7f" fill-rule="nonzero" stroke-width="0" stroke-linejoin="miter" stroke-linecap="butt" stroke-miterlimit="4" >
	<path d="
	M 3849.64 -288.25 
	L 3849.64 -720.25 
	L 3910.12 -720.25 
	L 3910.12 -288.25 
	Z 
	"/>
</g>
<g fill="#7f7f7f" fill-rule="nonzero" stroke-width="0" stroke-linejoin="miter" stroke-linecap="butt" stroke-miterlimit="4" >
	<path d="
	M 4463.92 -288.25 
	L 4330.81 -577.76 
	L 4330.81 -288.25 
	L 4268.79 -288.25 
	L 4268.79 -720.25 
	L 4330.81 -720.25 
	L 4448.79 -461.05 
	L 4448.79 -720.25 
	L 4510.81 -720.25 
	L 4510.81 -288.25 
	Z 
	"/>
</g>
<g fill="#7f7f7f" fill-rule="nonzero" stroke-width="0" stroke-linejoin="miter" stroke-linecap="butt" stroke-miterlimit="4" >
	<path d="
	M 4143.66 -612.63 
	C 4132.97 -650.52 4116.17 -667.2 4090.22 -667.2 
	C 4062.73 -667.2 4045.94 -650.52 4035.25 -614.14 
	C 4024.56 -580.8 4021.51 -552 4021.51 -503.49 
	C 4021.51 -456.5 4026.09 -429.22 4035.25 -394.35 
	C 4045.94 -357.97 4062.73 -341.3 4090.22 -341.3 
	C 4116.17 -341.3 4132.97 -357.97 4143.66 -394.35 
	C 4154.35 -429.22 4157.4 -454.99 4157.4 -505.01 
	C 4157.4 -553.51 4152.82 -580.8 4143.66 -612.63 
	Z 
	M 4192.52 -354.94 
	C 4171.14 -303.41 4139.08 -280.67 4090.22 -280.67 
	C 4038.3 -280.67 4007.77 -303.41 3986.39 -354.94 
	C 3968.07 -397.38 3961.96 -438.31 3961.96 -505.01 
	C 3961.96 -570.19 3968.07 -614.14 3986.39 -655.07 
	C 4009.29 -706.61 4039.83 -727.83 4090.22 -727.83 
	C 4140.6 -727.83 4171.14 -706.61 4192.52 -653.55 
	C 4210.84 -611.11 4216.95 -570.19 4216.95 -505.01 
	C 4216.95 -438.31 4210.84 -395.87 4192.52 -354.94 
	Z 
	"/>
</g>
<g fill="#7f7f7f" fill-rule="nonzero" stroke-width="0" stroke-linejoin="miter" stroke-linecap="butt" stroke-miterlimit="4" >
	<path d="
	M 1987.24 -659.62 
	L 1923.7 -659.62 
	L 1923.7 -550.48 
	L 1987.24 -550.48 
	C 2023.54 -550.48 2043.2 -570.19 2043.2 -605.05 
	C 2043.2 -638.4 2020.51 -659.62 1987.24 -659.62 
	Z 
	M 2040.18 -288.25 
	L 1982.7 -491.37 
	L 1923.7 -491.37 
	L 1923.7 -288.25 
	L 1861.68 -288.25 
	L 1861.68 -720.25 
	L 1990.26 -720.25 
	C 2058.33 -720.25 2103.71 -674.78 2103.71 -605.05 
	C 2103.71 -553.51 2082.53 -515.62 2041.69 -500.46 
	L 2103.71 -288.25 
	Z 
	"/>
</g>
<g fill="#7f7f7f" fill-rule="nonzero" stroke-width="0" stroke-linejoin="miter" stroke-linecap="butt" stroke-miterlimit="4" >
	<path d="
	M 3046.93 -659.62 
	L 2983.4 -659.62 
	L 2983.4 -550.48 
	L 3046.93 -550.48 
	C 3083.24 -550.48 3102.9 -570.19 3102.9 -605.05 
	C 3102.9 -638.4 3080.21 -659.62 3046.93 -659.62 
	Z 
	M 3099.88 -288.25 
	L 3042.39 -491.37 
	L 2983.4 -491.37 
	L 2983.4 -288.25 
	L 2921.38 -288.25 
	L 2921.38 -720.25 
	L 3049.96 -720.25 
	C 3118.03 -720.25 3163.41 -674.78 3163.41 -605.05 
	C 3163.41 -553.51 3142.23 -515.62 3101.39 -500.46 
	L 3163.41 -288.25 
	Z 
	"/>
</g>
<g fill="#7f7f7f" fill-rule="nonzero" stroke-width="0" stroke-linejoin="miter" stroke-linecap="butt" stroke-miterlimit="4" >
	<path d="
	M 2522.32 -487.75 
	C 2503.63 -499.86 2485.48 -512.01 2473.9 -520.16 
	C 2439.07 -544.68 2420.62 -577.76 2420.62 -615.66 
	C 2420.62 -677.81 2469.33 -727.83 2531.74 -727.83 
	C 2592.63 -727.83 2639.81 -680.84 2641.34 -615.66 
	L 2581.97 -615.66 
	C 2580.45 -645.97 2559.14 -665.68 2531.74 -665.68 
	C 2502.82 -665.68 2479.98 -644.46 2479.98 -615.66 
	C 2479.98 -594.44 2489.12 -582.31 2521.08 -564.12 
	C 2604.8 -515.62 2641.34 -468.63 2641.34 -406.48 
	C 2641.34 -336.75 2588.06 -280.67 2521.08 -280.67 
	C 2444.97 -280.67 2399.31 -344.33 2399.31 -415.57 
	L 2460.2 -415.57 
	C 2460.2 -379.2 2478.46 -341.3 2521.08 -341.3 
	C 2554.57 -341.3 2581.97 -371.62 2581.97 -406.48 
	C 2581.97 -433.55 2570.79 -456.35 2522.32 -487.75 
	Z 
	"/>
</g>
<g fill="#7f7f7f" fill-rule="nonzero" stroke-width="0" stroke-linejoin="miter" stroke-linecap="butt" stroke-miterlimit="4" >
	<path d="
	M 2806.04 -662.65 
	L 2806.04 -288.25 
	L 2743.71 -288.25 
	L 2743.71 -662.65 
	L 2664.67 -662.65 
	L 2664.67 -720.25 
	L 2885.09 -720.25 
	L 2885.09 -662.65 
	Z 
	"/>
</g>
<g fill="#7f7f7f" fill-rule="nonzero" stroke-width="0" stroke-linejoin="miter" stroke-linecap="butt" stroke-miterlimit="4" >
	<path d="
	M 3734.3 -662.65 
	L 3734.3 -288.25 
	L 3671.97 -288.25 
	L 3671.97 -662.65 
	L 3592.92 -662.65 
	L 3592.92 -720.25 
	L 3813.35 -720.25 
	L 3813.35 -662.65 
	Z 
	"/>
</g>
<g fill="#7f7f7f" fill-rule="nonzero" stroke-width="0" stroke-linejoin="miter" stroke-linecap="butt" stroke-miterlimit="4" >
	<path d="
	M 595.621 -504.25 
	L 886.75 78.012 
	L 1177.88 -504.25 
	L 886.75 -1086.51 
	Z 
	"/>
</g>
<g fill="#7f7f7f" fill-rule="nonzero" stroke-width="0" stroke-linejoin="miter" stroke-linecap="butt" stroke-miterlimit="4" >
	<path d="
	M 4644.25 629.75 
	C 4644.25 659.52 4620.02 683.75 4590.25 683.75 
	L 2080.25 683.75 
	L 1728.25 683.75 
	L 1728.25 -1692.25 
	L 2080.25 -1692.25 
	L 4590.25 -1692.25 
	C 4620.02 -1692.25 4644.25 -1668.02 4644.25 -1638.25 
	Z 
	M 886.75 359.75 
	L 454.75 -504.25 
	L 886.75 -1368.25 
	L 1318.75 -504.25 
	Z 
	M 4590.25 -1755.25 
	L 162.25 -1755.25 
	C 97.7344 -1755.25 45.25 -1702.76 45.25 -1638.25 
	L 45.25 629.75 
	C 45.25 694.262 97.7344 746.75 162.25 746.75 
	L 4590.25 746.75 
	C 4654.76 746.75 4707.25 694.262 4707.25 629.75 
	L 4707.25 -1638.25 
	C 4707.25 -1702.76 4654.76 -1755.25 4590.25 -1755.25 
	Z 
	"/>
</g>
</g >
</g>
</svg>
