<?xml version="1.0" encoding="UTF-8" standalone="no"?>
<!-- Created with Inkscape (http://www.inkscape.org/) -->

<svg
   version="1.1"
   id="svg1"
   width="4608.6665"
   height="4608.6665"
   viewBox="0 0 4608.6665 4608.6665"
   sodipodi:docname="tmpk_wpyzpl.pdf"
   xmlns:inkscape="http://www.inkscape.org/namespaces/inkscape"
   xmlns:sodipodi="http://sodipodi.sourceforge.net/DTD/sodipodi-0.dtd"
   xmlns="http://www.w3.org/2000/svg"
   xmlns:svg="http://www.w3.org/2000/svg">
  <defs
     id="defs1" />
  <sodipodi:namedview
     id="namedview1"
     pagecolor="#ffffff"
     bordercolor="#000000"
     borderopacity="0.25"
     inkscape:showpageshadow="2"
     inkscape:pageopacity="0.0"
     inkscape:pagecheckerboard="0"
     inkscape:deskcolor="#d1d1d1">
    <inkscape:page
       x="0"
       y="0"
       inkscape:label="1"
       id="page1"
       width="4608.6665"
       height="4608.6665"
       margin="0"
       bleed="0" />
  </sodipodi:namedview>
  <g
     id="g1"
     inkscape:groupmode="layer"
     inkscape:label="1">
    <g
       id="group-R5">
      <path
         id="path2"
         d="M 2162.5,1.20313 C 1585.21,1.20313 1042.47,226.102 634.27,634.301 226.059,1042.5 1.25,1585.2 1.25,2162.5 v 30240 c 0,577.3 224.809,1120 633.02,1528.2 408.2,408.2 950.94,633.1 1528.23,633.1 h 30240 c 577.3,0 1120,-224.9 1528.2,-633.1 408.2,-408.2 633.1,-950.9 633.1,-1528.2 v -30240 c 0,-577.3 -224.9,-1120 -633.1,-1528.199 C 33522.5,226.102 32979.8,1.20313 32402.5,1.20313 h -30240"
         style="fill:#ffffff;fill-opacity:1;fill-rule:nonzero;stroke:none"
         transform="matrix(0.13333333,0,0,-0.13333333,0,4608.6667)" />
      <path
         id="path3"
         d="m 32402.5,34565 h -30240 c -291.94,0 -575.14,-57.2 -841.75,-169.9 -257.5,-109 -488.77,-264.9 -687.367,-463.5 C 434.781,33733 278.859,33501.8 169.941,33244.3 57.1758,32977.6 0,32694.4 0,32402.5 V 2162.5 C 0,1870.6 57.1758,1587.4 169.941,1320.8 278.859,1063.2 434.781,832 633.383,633.402 831.98,434.801 1063.25,278.898 1320.75,169.898 1587.36,57.1992 1870.56,0 2162.5,0 h 30240 c 291.9,0 575.1,57.1992 841.7,169.898 257.6,109 488.8,264.903 687.4,463.504 198.6,198.598 354.5,429.798 463.5,687.398 112.7,266.6 169.9,549.8 169.9,841.7 v 30240 c 0,291.9 -57.2,575.1 -169.9,841.8 -109,257.5 -264.9,488.7 -463.5,687.3 -198.6,198.6 -429.8,354.5 -687.4,463.5 -266.6,112.7 -549.8,169.9 -841.7,169.9 z m 0,-2.5 c 1192.9,0 2160,-967.1 2160,-2160 v -30240 c 0,-1192.898 -967.1,-2160 -2160,-2160 H 2162.5 C 969.563,2.5 2.5,969.602 2.5,2162.5 v 30240 c 0,1192.9 967.063,2160 2160,2160 h 30240"
         style="fill:#231f20;fill-opacity:1;fill-rule:nonzero;stroke:none"
         transform="matrix(0.13333333,0,0,-0.13333333,0,4608.6667)" />
      <path
         id="path4"
         d="m 2162.5,542.5 c -893.27,0 -1620,726.7 -1620,1620 v 30240 c 0,893.3 726.73,1620 1620,1620 h 30240 c 893.3,0 1620,-726.7 1620,-1620 v -30240 c 0,-893.3 -726.7,-1620 -1620,-1620 h -30240"
         style="fill:#231f20;fill-opacity:1;fill-rule:nonzero;stroke:none"
         transform="matrix(0.13333333,0,0,-0.13333333,0,4608.6667)" />
      <path
         id="path5"
         d="m 2162.5,1442.5 c -397.01,0 -720,323 -720,720 v 30240 c 0,397 322.99,720 720,720 h 30240 c 397,0 720,-323 720,-720 v -30240 c 0,-397 -323,-720 -720,-720 h -30240"
         style="fill:#ffffff;fill-opacity:1;fill-rule:nonzero;stroke:none"
         transform="matrix(0.13333333,0,0,-0.13333333,0,4608.6667)" />
      <path
         id="path6"
         d="m 25604.9,7570.9 h -2970 v 9090 c 0,877.4 -341.7,1702.4 -962.1,2322.8 -620.5,620.5 -1445.4,962.2 -2322.9,962.2 -877.5,0 -1702.4,-341.7 -2322.8,-962.2 -620.5,-620.4 -962.2,-1445.3 -962.2,-2322.8 v -3830.7 h -2970 v 3830.7 c 0,843.8 165.6,1663.1 492.2,2435.2 315.1,745 765.9,1413.8 1339.8,1987.8 574,573.9 1242.8,1024.7 1987.8,1339.8 772.1,326.6 1591.4,492.2 2435.2,492.2 843.8,0 1663.1,-165.6 2435.2,-492.2 745,-315.1 1413.8,-765.9 1987.8,-1339.8 573.9,-574 1024.7,-1242.8 1339.8,-1987.8 326.6,-772.1 492.2,-1591.4 492.2,-2435.2 v -9090"
         style="fill:#231f20;fill-opacity:1;fill-rule:nonzero;stroke:none"
         transform="matrix(0.13333333,0,0,-0.13333333,0,4608.6667)" />
      <path
         id="path7"
         d="m 17905.9,13986.1 c 46.2,13.4 92.8,19.8 138.6,19.8 273.4,0 495.1,-221.7 495.1,-495 0,-96.5 -28,-194 -86.6,-279.6 l -3873.4,-5660.4 -3873.5,5660.4 c -58.6,85.6 -86.6,183.1 -86.5,279.6 0,273.3 221.6,495 495,495 45.8,0 92.4,-6.4 138.6,-19.8 l 3326.4,-970.2 3326.3,970.2"
         style="fill:#231f20;fill-opacity:1;fill-rule:nonzero;stroke:none"
         transform="matrix(0.13333333,0,0,-0.13333333,0,4608.6667)" />
      <path
         id="path8"
         d="m 19349.9,19945.9 h -8510.7 v 2970 h 8510.7 v -2970"
         style="fill:#231f20;fill-opacity:1;fill-rule:nonzero;stroke:none"
         transform="matrix(0.13333333,0,0,-0.13333333,0,4608.6667)" />
      <path
         id="path9"
         d="m 11995.1,18104.9 c 13.4,-46.2 19.8,-92.8 19.8,-138.6 0,-273.4 -221.7,-495.1 -495,-495.1 -96.5,0 -194,28 -279.6,86.6 l -5660.4,3873.4 5660.4,3873.5 c 85.6,58.6 183.1,86.6 279.6,86.5 273.3,0 495,-221.6 495,-495 0,-45.8 -6.4,-92.4 -19.8,-138.6 l -970.2,-3326.4 970.2,-3326.3"
         style="fill:#231f20;fill-opacity:1;fill-rule:nonzero;stroke:none"
         transform="matrix(0.13333333,0,0,-0.13333333,0,4608.6667)" />
      <path
         id="path10"
         d="M 26850.6,9375 9363.84,26861.8 c 2149.16,1779.6 4907.66,2849.3 7916.06,2849.3 6859.4,0 12420,-5560.6 12420,-12420 0,-3008.4 -1069.7,-5766.9 -2849.3,-7916.1 z M 4859.9,17291.1 c 0,3008.4 1069.67,5766.9 2849.31,7916.1 L 25196,7720.4 C 23046.8,5940.8 20288.3,4871.1 17279.9,4871.1 c -6859.4,0 -12420,5560.6 -12420,12420 z m 12420,14940 c -8251.13,0 -14940,-6688.9 -14940,-14940 0,-8251.1 6688.87,-14940 14940,-14940 8251.1,0 14940,6688.9 14940,14940 0,8251.1 -6688.9,14940 -14940,14940"
         style="fill:#bf2519;fill-opacity:1;fill-rule:evenodd;stroke:none"
         transform="matrix(0.13333333,0,0,-0.13333333,0,4608.6667)" />
    </g>
  </g>
</svg>
