<?xml version="1.0" standalone="no"?>
<svg width="9504px" height="6048px" viewBox="0 -5256 9504 6048 " xmlns="http://www.w3.org/2000/svg" xmlns:xlink="http://www.w3.org/1999/xlink">
<title>generated by pstoedit</title>
<!-- generated by pstoedit version:4.02 -->
<g xml:space='preserve'>
<clipPath id="clippath1"> 	<path d="
	M 0 -5256.5 
	L 0 792 
	L 9504.5 792 
	L 9504.5 -5256.5 
	Z 
	" style="clip-rule:nonzero"/>
</clipPath>
<g style="clip-path:url(#clippath1)"> 
<g fill="#ffffff" fill-rule="nonzero" stroke-width="0" stroke-linejoin="miter" stroke-linecap="butt" stroke-miterlimit="10" >
	<path d="
	M 9504.25 143.75 
	C 9504.25 501.629 9214.13 791.75 8856.25 791.75 
	L 648.25 791.75 
	C 290.371 791.75 0.25 501.629 0.25 143.75 
	L 0.25 -4608.25 
	C 0.25 -4966.13 290.371 -5256.25 648.25 -5256.25 
	L 8856.25 -5256.25 
	C 9214.13 -5256.25 9504.25 -4966.13 9504.25 -4608.25 
	Z 
	"/>
</g>
<g stroke="#7f7f7f" fill="none" stroke-width="0.5" stroke-linejoin="miter" stroke-linecap="butt" stroke-miterlimit="4" >
	<path d="
	M 9504.25 143.75 
	C 9504.25 501.629 9214.13 791.75 8856.25 791.75 
	L 648.25 791.75 
	C 290.371 791.75 0.25 501.629 0.25 143.75 
	L 0.25 -4608.25 
	C 0.25 -4966.13 290.371 -5256.25 648.25 -5256.25 
	L 8856.25 -5256.25 
	C 9214.13 -5256.25 9504.25 -4966.13 9504.25 -4608.25 
	Z 
	"/>
</g>
<g fill="#7f7f7f" fill-rule="nonzero" stroke-width="0" stroke-linejoin="miter" stroke-linecap="butt" stroke-miterlimit="4" >
	<path d="
	M 9342.25 143.75 
	C 9342.25 411.73 9124.23 629.75 8856.25 629.75 
	L 648.25 629.75 
	C 380.27 629.75 162.25 411.73 162.25 143.75 
	L 162.25 -4608.25 
	C 162.25 -4876.23 380.27 -5094.25 648.25 -5094.25 
	L 8856.25 -5094.25 
	C 9124.23 -5094.25 9342.25 -4876.23 9342.25 -4608.25 
	Z 
	M 8856.25 -5202.25 
	L 648.25 -5202.25 
	C 320.719 -5202.25 54.25 -4935.78 54.25 -4608.25 
	L 54.25 143.75 
	C 54.25 471.281 320.719 737.75 648.25 737.75 
	L 8856.25 737.75 
	C 9183.78 737.75 9450.25 471.281 9450.25 143.75 
	L 9450.25 -4608.25 
	C 9450.25 -4935.78 9183.78 -5202.25 8856.25 -5202.25 
	Z 
	"/>
</g>
<g fill="#7f7f7f" fill-rule="nonzero" stroke-width="0" stroke-linejoin="miter" stroke-linecap="butt" stroke-miterlimit="4" >
	<path d="
	M 1353.69 -1512.25 
	L 1353.69 -1825.51 
	L 1028.93 -1825.51 
	L 1028.93 -1512.25 
	L 899.527 -1512.25 
	L 899.527 -2232.25 
	L 1028.93 -2232.25 
	L 1028.93 -1954.35 
	L 1353.69 -1954.35 
	L 1353.69 -2232.25 
	L 1483.09 -2232.25 
	L 1483.09 -1512.25 
	Z 
	"/>
</g>
<g fill="#7f7f7f" fill-rule="nonzero" stroke-width="0" stroke-linejoin="miter" stroke-linecap="butt" stroke-miterlimit="4" >
	<path d="
	M 1988.18 -2116.04 
	C 1879.31 -2116.04 1813.48 -2025.09 1813.48 -1873.51 
	C 1813.48 -1719.41 1879.31 -1628.46 1988.18 -1628.46 
	C 2124.92 -1628.46 2157.83 -1762.36 2157.83 -1873.51 
	C 2157.83 -2025.09 2097.06 -2116.04 1988.18 -2116.04 
	Z 
	M 1988.18 -1499.62 
	C 1775.49 -1499.62 1681.81 -1691.62 1681.81 -1873.51 
	C 1681.81 -2103.41 1798.28 -2244.88 1988.18 -2244.88 
	C 2165.43 -2244.88 2286.97 -2095.83 2286.97 -1876.04 
	C 2286.97 -1651.2 2170.49 -1499.62 1988.18 -1499.62 
	Z 
	"/>
</g>
<g fill="#7f7f7f" fill-rule="nonzero" stroke-width="0" stroke-linejoin="miter" stroke-linecap="butt" stroke-miterlimit="4" >
	<path d="
	M 2806.58 -1512.25 
	L 2669.54 -1512.25 
	L 2407.93 -2232.25 
	L 2544.96 -2232.25 
	L 2739.31 -1706.77 
	L 2933.65 -2232.25 
	L 3070.69 -2232.25 
	Z 
	"/>
</g>
<g fill="#7f7f7f" fill-rule="nonzero" stroke-width="0" stroke-linejoin="miter" stroke-linecap="butt" stroke-miterlimit="4" >
	<path d="
	M 7260.91 -1512.25 
	L 7260.91 -2232.25 
	L 7390.21 -2232.25 
	L 7390.21 -1623.41 
	L 7800.91 -1623.41 
	L 7800.91 -1512.25 
	Z 
	"/>
</g>
<g fill="#7f7f7f" fill-rule="nonzero" stroke-width="0" stroke-linejoin="miter" stroke-linecap="butt" stroke-miterlimit="4" >
	<path d="
	M 6924.64 -1512.25 
	L 6579.57 -2007.41 
	L 6579.57 -1512.25 
	L 6452.71 -1512.25 
	L 6452.71 -2232.25 
	L 6579.57 -2232.25 
	L 6911.95 -1757.3 
	L 6911.95 -2232.25 
	L 7036.27 -2232.25 
	L 7036.27 -1512.25 
	Z 
	"/>
</g>
<g fill="#7f7f7f" fill-rule="nonzero" stroke-width="0" stroke-linejoin="miter" stroke-linecap="butt" stroke-miterlimit="4" >
	<path d="
	M 5955.21 -2116.04 
	C 5846.33 -2116.04 5780.5 -2025.09 5780.5 -1873.51 
	C 5780.5 -1719.41 5846.33 -1628.46 5955.21 -1628.46 
	C 6091.94 -1628.46 6124.86 -1762.36 6124.86 -1873.51 
	C 6124.86 -2025.09 6064.08 -2116.04 5955.21 -2116.04 
	Z 
	M 5955.21 -1499.62 
	C 5742.51 -1499.62 5648.83 -1691.62 5648.83 -1873.51 
	C 5648.83 -2103.41 5765.3 -2244.88 5955.21 -2244.88 
	C 6132.45 -2244.88 6253.99 -2095.83 6253.99 -1876.04 
	C 6253.99 -1651.2 6137.51 -1499.62 5955.21 -1499.62 
	Z 
	"/>
</g>
<g fill="#7f7f7f" fill-rule="nonzero" stroke-width="0" stroke-linejoin="miter" stroke-linecap="butt" stroke-miterlimit="4" >
	<path d="
	M 8301.9 -1805.3 
	L 8301.9 -1512.25 
	L 8173.1 -1512.25 
	L 8173.1 -1805.3 
	L 7870.03 -2232.25 
	L 8029.14 -2232.25 
	L 8238.76 -1939.2 
	L 8445.86 -2232.25 
	L 8604.97 -2232.25 
	Z 
	"/>
</g>
<g fill="#7f7f7f" fill-rule="nonzero" stroke-width="0" stroke-linejoin="miter" stroke-linecap="butt" stroke-miterlimit="4" >
	<path d="
	M 3790.69 -1512.25 
	C 3790.69 -1598.15 3808.45 -1661.3 3849.04 -1732.04 
	C 3912.47 -1838.15 4003.81 -1903.83 4135.75 -1939.2 
	C 4216.94 -1961.94 4244.85 -1987.2 4244.85 -2030.14 
	C 4244.85 -2083.2 4194.1 -2113.51 4102.76 -2113.51 
	C 4008.89 -2113.51 3940.38 -2090.78 3879.49 -2035.2 
	L 3790.69 -2133.72 
	C 3874.42 -2206.99 3978.44 -2244.89 4095.15 -2244.89 
	C 4265.15 -2244.89 4374.25 -2161.52 4374.25 -2030.14 
	C 4374.25 -1969.52 4348.87 -1913.93 4300.67 -1873.51 
	C 4277.83 -1855.83 4244.85 -1838.15 4194.1 -1822.99 
	C 4097.69 -1795.2 4069.78 -1782.57 4026.65 -1744.67 
	C 3993.67 -1716.88 3973.37 -1689.1 3947.99 -1641.09 
	L 4374.25 -1641.09 
	L 4374.25 -1512.25 
	Z 
	"/>
</g>
<g fill="#7f7f7f" fill-rule="nonzero" stroke-width="0" stroke-linejoin="miter" stroke-linecap="butt" stroke-miterlimit="4" >
	<path d="
	M 4759.27 -1815.4 
	L 4759.27 -1651.2 
	L 4630.21 -1651.2 
	L 4630.21 -1815.4 
	L 4460.65 -1815.4 
	L 4460.65 -1944.25 
	L 4630.21 -1944.25 
	L 4630.21 -2105.93 
	L 4759.27 -2105.93 
	L 4759.27 -1944.25 
	L 4928.83 -1944.25 
	L 4928.83 -1815.4 
	Z 
	"/>
</g>
<g fill="#7f7f7f" fill-rule="nonzero" stroke-width="0" stroke-linejoin="miter" stroke-linecap="butt" stroke-miterlimit="4" >
	<path d="
	M 4927.75 -936.25 
	L 4927.75 -450.25 
	L 5549.33 -610.68 
	C 5553.47 -611.7 5557.79 -612.25 5562.25 -612.25 
	C 5592.07 -612.25 5616.25 -588.07 5616.25 -558.25 
	C 5616.25 -543.28 5610.16 -529.74 5600.32 -519.96 
	L 4752.25 251.75 
	L 3904.18 -519.96 
	C 3894.34 -529.74 3888.25 -543.28 3888.25 -558.25 
	C 3888.25 -588.07 3912.43 -612.25 3942.25 -612.25 
	C 3946.71 -612.25 3951.03 -611.7 3955.17 -610.68 
	L 4576.75 -450.25 
	L 4576.75 -936.25 
	Z 
	"/>
</g>
<g fill="#7f7f7f" fill-rule="nonzero" stroke-width="0" stroke-linejoin="miter" stroke-linecap="butt" stroke-miterlimit="4" >
	<path d="
	M 7234.82 -3867.28 
	C 7147.72 -3867.28 7095.06 -3794.52 7095.06 -3673.26 
	C 7095.06 -3549.98 7147.72 -3477.22 7234.82 -3477.22 
	C 7344.21 -3477.22 7370.54 -3584.34 7370.54 -3673.26 
	C 7370.54 -3794.52 7321.92 -3867.28 7234.82 -3867.28 
	Z 
	M 7234.82 -3374.14 
	C 7064.67 -3374.14 6989.72 -3527.75 6989.72 -3673.26 
	C 6989.72 -3857.18 7082.9 -3970.36 7234.82 -3970.36 
	C 7376.62 -3970.36 7473.85 -3851.11 7473.85 -3675.28 
	C 7473.85 -3495.41 7380.67 -3374.14 7234.82 -3374.14 
	Z 
	"/>
</g>
<g fill="#7f7f7f" fill-rule="nonzero" stroke-width="0" stroke-linejoin="miter" stroke-linecap="butt" stroke-miterlimit="4" >
	<path d="
	M 7875.22 -3857.18 
	L 7709.35 -3857.18 
	L 7709.35 -3713.68 
	L 7875.22 -3713.68 
	C 7925.72 -3713.68 7958.04 -3741.98 7958.04 -3784.42 
	C 7958.04 -3828.88 7925.72 -3857.18 7875.22 -3857.18 
	Z 
	M 7958.04 -3384.25 
	L 7865.12 -3610.61 
	L 7709.35 -3610.61 
	L 7709.35 -3384.25 
	L 7606.33 -3384.25 
	L 7606.33 -3960.25 
	L 7873.2 -3960.25 
	C 7915.62 -3960.25 7941.88 -3954.19 7972.18 -3936 
	C 8026.72 -3905.68 8061.06 -3849.09 8061.06 -3784.42 
	C 8061.06 -3719.75 8026.72 -3663.16 7968.14 -3630.82 
	L 8073.18 -3384.25 
	Z 
	"/>
</g>
<g fill="#cf7fa5" fill-rule="nonzero" stroke-width="0" stroke-linejoin="miter" stroke-linecap="butt" stroke-miterlimit="4" >
	<path d="
	M 4205.51 -3866.67 
	C 4219.62 -3928.01 4188.47 -3953.44 4100.23 -3953.44 
	L 3987.3 -3953.44 
	L 3944.74 -3768.51 
	L 4076.63 -3768.51 
	C 4182.91 -3768.51 4199.05 -3838.62 4205.51 -3866.67 
	Z 
	"/>
</g>
<g fill="#cf7fa5" fill-rule="nonzero" stroke-width="0" stroke-linejoin="miter" stroke-linecap="butt" stroke-miterlimit="4" >
	<path d="
	M 2813.11 -3579.34 
	C 2826.82 -3638.93 2826.8 -3721.31 2724.32 -3721.31 
	C 2621.85 -3721.31 2583.91 -3638.93 2570.19 -3579.34 
	C 2556.47 -3519.74 2556.49 -3437.37 2658.98 -3437.37 
	C 2761.45 -3437.37 2799.39 -3519.74 2813.11 -3579.34 
	Z 
	"/>
</g>
<g fill="#cf7fa5" fill-rule="nonzero" stroke-width="0" stroke-linejoin="miter" stroke-linecap="butt" stroke-miterlimit="4" >
	<path d="
	M 5807.18 -3670.48 
	L 5677.19 -3670.48 
	C 5678.36 -3700.28 5674.23 -3731.83 5602.12 -3731.83 
	C 5530 -3731.83 5514.66 -3706.42 5510.02 -3686.25 
	C 5493.08 -3612.64 5821.37 -3666.1 5781.83 -3494.33 
	C 5750.56 -3358.48 5602.58 -3333.95 5523.83 -3333.95 
	C 5409.02 -3333.95 5293.19 -3370.75 5318.03 -3495.21 
	L 5454.66 -3495.21 
	C 5445.6 -3455.77 5465.5 -3426.84 5549 -3426.84 
	C 5617.33 -3426.84 5640.52 -3457.51 5644.55 -3475.04 
	C 5662.5 -3553.05 5335.85 -3494.33 5375.99 -3668.73 
	C 5391.72 -3737.09 5458.39 -3824.73 5615.9 -3824.73 
	C 5714.59 -3824.73 5827 -3801.94 5807.18 -3670.48 
	Z 
	M 5725.64 -3211.75 
	L 3360.19 -3211.75 
	L 3310.68 -3211.75 
	L 3227.35 -3211.75 
	L 3473.42 -4284.42 
	L 3606.26 -4284.42 
	L 3366.51 -3239.33 
	L 5731.9 -3239.33 
	Z 
	M 5708.46 -3135.92 
	L 5503.17 -3135.92 
	L 5509.43 -3163.49 
	L 5714.71 -3163.49 
	Z 
	M 4815.4 -3135.92 
	L 4821.65 -3163.49 
	L 5026.93 -3163.49 
	L 5020.68 -3135.92 
	Z 
	M 4127.61 -3135.92 
	L 4133.85 -3163.49 
	L 4339.14 -3163.49 
	L 4332.9 -3135.92 
	Z 
	M 3439.82 -3135.92 
	L 3446.07 -3163.49 
	L 3651.35 -3163.49 
	L 3645.11 -3135.92 
	Z 
	M 5691.28 -3060.08 
	L 2512.43 -3060.08 
	L 2518.67 -3087.66 
	L 5697.52 -3087.66 
	Z 
	M 2963.56 -3163.49 
	L 2957.31 -3135.92 
	L 2752.05 -3135.92 
	L 2758.28 -3163.49 
	Z 
	M 2433.55 -3579.34 
	C 2472.28 -3747.6 2612.43 -3824.73 2748.13 -3824.73 
	C 2883.81 -3824.73 2988.47 -3747.6 2949.75 -3579.34 
	C 2911.02 -3411.07 2770.86 -3333.95 2635.17 -3333.95 
	C 2499.48 -3333.95 2394.83 -3411.07 2433.55 -3579.34 
	Z 
	M 2202.52 -3060.08 
	L 2060.19 -3060.08 
	L 2265.78 -3950.8 
	L 1891.57 -3950.8 
	L 1917.18 -4062.1 
	L 3053.5 -4062.1 
	L 3027.89 -3950.8 
	L 2408.11 -3950.8 
	Z 
	M 3342.48 -4284.42 
	L 3096.41 -3211.75 
	L 2963.56 -3211.75 
	L 3209.64 -4284.42 
	Z 
	M 3869.99 -4062.1 
	L 4181.22 -4062.1 
	C 4313.1 -4062.1 4374.87 -3984.1 4346.42 -3860.54 
	C 4333.31 -3803.56 4266.07 -3659.84 4082.93 -3659.84 
	L 3919.73 -3659.84 
	L 3846.98 -3346.22 
	L 3704.67 -3346.22 
	Z 
	M 4579.73 -3824.73 
	C 4650.9 -3824.73 4776.26 -3804.57 4749.82 -3689.76 
	L 4691.74 -3437.37 
	C 4679.04 -3382.14 4689.48 -3369.87 4704.41 -3364.62 
	L 4700.18 -3346.22 
	L 4556.9 -3346.22 
	C 4554.35 -3368.12 4554.06 -3375.13 4557.27 -3401.42 
	C 4520.25 -3372.51 4468.67 -3333.95 4378.52 -3333.95 
	C 4302.62 -3333.95 4233.89 -3373.38 4256.07 -3469.78 
	C 4277.05 -3560.93 4350.36 -3607.37 4437.44 -3618.77 
	L 4560.84 -3635.43 
	C 4582.31 -3638.05 4609.74 -3645.93 4615.8 -3672.23 
	C 4627.7 -3723.94 4575.17 -3726.57 4541.01 -3726.57 
	C 4474.58 -3726.57 4454.53 -3688.89 4444.46 -3661.71 
	L 4316.39 -3661.71 
	C 4364.44 -3804.57 4476.31 -3824.73 4579.73 -3824.73 
	Z 
	M 4790.45 -3495.21 
	L 4927.09 -3495.21 
	C 4918 -3455.77 4937.92 -3426.84 5021.43 -3426.84 
	C 5089.74 -3426.84 5112.93 -3457.51 5116.97 -3475.04 
	C 5134.92 -3553.05 4808.28 -3494.33 4848.42 -3668.73 
	C 4864.15 -3737.09 4930.81 -3824.73 5088.32 -3824.73 
	C 5187.01 -3824.73 5299.43 -3801.94 5279.61 -3670.48 
	L 5149.62 -3670.48 
	C 5150.77 -3700.28 5146.65 -3731.83 5074.54 -3731.83 
	C 5002.43 -3731.83 4987.09 -3706.42 4982.44 -3686.25 
	C 4965.51 -3612.64 5293.78 -3666.1 5254.24 -3494.33 
	C 5222.99 -3358.48 5075.01 -3333.95 4996.25 -3333.95 
	C 4881.44 -3333.95 4765.59 -3370.75 4790.45 -3495.21 
	Z 
	M 1431.32 -4536.25 
	L 1431.32 -2808.25 
	L 6269.72 -2808.25 
	L 6269.72 -4536.25 
	Z 
	"/>
</g>
<g fill="#cf7fa5" fill-rule="nonzero" stroke-width="0" stroke-linejoin="miter" stroke-linecap="butt" stroke-miterlimit="4" >
	<path d="
	M 4390.73 -3477.67 
	C 4380.85 -3434.73 4413.89 -3421.58 4439.5 -3421.58 
	C 4498.34 -3421.58 4566.18 -3456.65 4579.29 -3513.61 
	L 4593.02 -3573.2 
	C 4577.51 -3563.56 4553.86 -3555.67 4497.02 -3547.78 
	C 4445.86 -3539.91 4402.43 -3528.5 4390.73 -3477.67 
	Z 
	"/>
</g>
</g >
</g>
</svg>
