<?xml version="1.0" encoding="UTF-8"?>
<svg id="For_Sheets" xmlns="http://www.w3.org/2000/svg" version="1.1" viewBox="0 0 2160 2592">
  <!-- Generator: Adobe Illustrator 29.1.0, SVG Export Plug-In . SVG Version: 2.1.0 Build 142)  -->
  <defs>
    <style>
      .st0 {
        fill: #231f20;
      }

      .st1 {
        fill: #fff;
      }
    </style>
  </defs>
  <g>
    <rect class="st1" x="-.1" y="-.1" width="2160.2" height="2592.2" rx="135.1" ry="135.1"/>
    <path class="st0" d="M2025,0c74.6,0,135,60.4,135,135v2322c0,74.6-60.4,135-135,135H135c-74.6,0-135-60.4-135-135V135C0,60.4,60.4,0,135,0h1890M2025-.2H135C98.9-.2,64.9,13.8,39.4,39.4,13.8,64.9-.2,98.9-.2,135v2322c0,36.1,14.1,70.1,39.6,95.6,25.5,25.5,59.5,39.6,95.6,39.6h1890c36.1,0,70.1-14.1,95.6-39.6,25.5-25.5,39.6-59.5,39.6-95.6V135c0-36.1-14.1-70.1-39.6-95.6S2061.1-.2,2025-.2h0Z"/>
  </g>
  <rect class="st0" x="36" y="36" width="2088" height="2520" rx="99" ry="99"/>
  <rect class="st1" x="90" y="90" width="1980" height="2412" rx="45" ry="45"/>
  <g>
    <path class="st0" d="M643.5,792v-432h136.1c57.3,0,98.3,45.5,98.3,112.2s-10.6,57.6-45.4,94c33.3,27.3,52.9,63.7,52.9,107.6,0,64.6-51.5,118.2-115,118.2h-127.1ZM705.5,420.6v115.2h65c28.8,0,46.9-24.2,46.9-63.7s-13.3-51.5-46.9-51.5h-65.1ZM705.5,731.4h62c34.8,0,57.5-24.2,57.5-62.2s-25-72.7-57.5-72.7h-62v134.9Z"/>
    <path class="st0" d="M959,666.4v-306.4h62v310.7c0,40.7,23.8,68.3,60.5,68.3s57.5-27.3,57.5-68.3v-310.7h62v307.4c0,98.3-75.9,132.2-119.6,132.2s-122.5-26-122.5-133.1Z"/>
    <path class="st0" d="M1398.4,517.4c47.2,29.6,118.1,71.2,118.1,156.4s-53.3,125.8-120.3,125.8-121.8-64.4-121.8-134.9h60.9c0,36.8,18.3,74.3,60.9,74.3s60.9-30.3,60.9-65.2c0-93.9-161.3-88.5-161.3-209.2s48.7-112.1,111.1-112.1,108.1,47,109.6,112.2h-59.4c-1.5-30.3-22.8-50-50.2-50s-51.7,21.2-51.7,49.9,14.9,35,43.3,52.8Z"/>
  </g>
  <g>
    <path class="st0" d="M509.5,1080h62.3v374.4h158.1v57.6h-220.4v-432Z"/>
    <path class="st0" d="M939.8,1393.8h-92.7l-28.9,118.2h-62.3l107.9-432h60.9l107.8,432h-62.3l-30.4-118.2ZM862.3,1333.2h62.3l-31.9-124.3-30.4,124.3Z"/>
    <path class="st0" d="M1155,1222.5v289.5h-62v-432h62l118,259.2v-259.2h62v432h-46.9l-133.2-289.5Z"/>
    <path class="st0" d="M1430,1080h203.7v60.6h-141.4v109.1h89.6v59.1h-89.6v142.5h158.1v60.6h-220.4v-432Z"/>
  </g>
  <g>
    <path class="st0" d="M490.1,1800h203.7v60.6h-141.4v109.1h89.6v59.1h-89.6v142.5h158.1v60.6h-220.4v-432Z"/>
    <path class="st0" d="M846,1942.5v289.5h-62v-432h62l118,259.2v-259.2h62v432h-46.9l-133.2-289.5Z"/>
    <path class="st0" d="M1121,2232v-432h123.3c26.4,0,118.7,1.3,118.7,215.2s-85.3,216.8-113.6,216.8h-128.4ZM1231.5,1860.6h-48.4v310.7h43.1c50.5,0,76.4-22.1,76.4-153.1s-37.9-157.6-71.1-157.6Z"/>
    <path class="st0" d="M1551.8,1957.4c47.2,29.6,118.1,71.2,118.1,156.4s-53.3,125.8-120.3,125.8-121.8-64.4-121.8-134.9h60.9c0,36.8,18.3,74.3,60.9,74.3s60.9-30.3,60.9-65.2c0-93.9-161.3-88.5-161.3-209.2s48.7-112.1,111.1-112.1,108.1,47,109.6,112.2h-59.4c-1.5-30.3-22.8-50-50.2-50s-51.7,21.2-51.7,49.9,14.9,35,43.3,52.8Z"/>
  </g>
</svg>