<?xml version="1.0" encoding="UTF-8" standalone="no"?>
<!-- Created with Inkscape (http://www.inkscape.org/) -->

<svg
   version="1.1"
   id="svg1"
   width="2304.6667"
   height="864.66669"
   viewBox="0 0 2304.6667 864.66669"
   sodipodi:docname="tmpbo49zx52.pdf"
   xmlns:inkscape="http://www.inkscape.org/namespaces/inkscape"
   xmlns:sodipodi="http://sodipodi.sourceforge.net/DTD/sodipodi-0.dtd"
   xmlns="http://www.w3.org/2000/svg"
   xmlns:svg="http://www.w3.org/2000/svg">
  <defs
     id="defs1" />
  <sodipodi:namedview
     id="namedview1"
     pagecolor="#ffffff"
     bordercolor="#000000"
     borderopacity="0.25"
     inkscape:showpageshadow="2"
     inkscape:pageopacity="0.0"
     inkscape:pagecheckerboard="0"
     inkscape:deskcolor="#d1d1d1">
    <inkscape:page
       x="0"
       y="0"
       inkscape:label="1"
       id="page1"
       width="2304.6667"
       height="864.66669"
       margin="0"
       bleed="0" />
  </sodipodi:namedview>
  <g
     id="g1"
     inkscape:groupmode="layer"
     inkscape:label="1">
    <g
       id="group-R5">
      <path
         id="path2"
         d="M 1082.5,1.25 C 486.293,1.25 1.25,486.301 1.25,1082.5 v 4320 c 0,596.21 485.043,1081.25 1081.25,1081.25 h 15120 c 596.2,0 1081.3,-485.04 1081.3,-1081.25 v -4320 C 17283.8,486.301 16798.7,1.25 16202.5,1.25 h -15120"
         style="fill:#ffffff;fill-opacity:1;fill-rule:nonzero;stroke:none"
         transform="matrix(0.13333333,0,0,-0.13333333,0,864.66667)" />
      <path
         id="path3"
         d="M 16202.5,6485 H 1082.5 C 793.355,6485 521.516,6372.4 317.059,6167.94 112.602,5963.48 0,5691.64 0,5402.5 v -4320 C 0,793.352 112.602,521.512 317.059,317.059 521.516,112.602 793.355,0 1082.5,0 h 15120 c 289.1,0 561,112.602 765.4,317.059 204.5,204.453 317.1,476.293 317.1,765.441 v 4320 c 0,289.14 -112.6,560.98 -317.1,765.44 -204.4,204.46 -476.3,317.06 -765.4,317.06 z m 0,-2.5 c 596.5,0 1080,-483.54 1080,-1080 v -4320 c 0,-596.469 -483.5,-1080 -1080,-1080 H 1082.5 C 486.035,2.5 2.5,486.031 2.5,1082.5 v 4320 c 0,596.46 483.535,1080 1080,1080 h 15120"
         style="fill:#231f20;fill-opacity:1;fill-rule:nonzero;stroke:none"
         transform="matrix(0.13333333,0,0,-0.13333333,0,864.66667)" />
      <path
         id="path4"
         d="m 16562.5,1082.5 c 0,-198.512 -161.5,-360 -360,-360 h -15120 c -198.508,0 -360,161.488 -360,360 v 4320 c 0,198.51 161.492,360 360,360 h 15120 c 198.5,0 360,-161.49 360,-360 z m -360,5130 h -15120 c -446.637,0 -810,-363.36 -810,-810 v -4320 c 0,-446.641 363.363,-810 810,-810 h 15120 c 446.6,0 810,363.359 810,810 v 4320 c 0,446.64 -363.4,810 -810,810"
         style="fill:#231f20;fill-opacity:1;fill-rule:nonzero;stroke:none"
         transform="matrix(0.13333333,0,0,-0.13333333,0,864.66667)" />
      <path
         id="path5"
         d="M 4002.1,4682.5 H 5697.62 V 4227.82 H 4456.4 v -707.4 h 837.68 V 3055.66 H 4456.4 v -788.4 H 5788.34 V 1802.5 H 4002.1 v 2880"
         style="fill:#231f20;fill-opacity:1;fill-rule:nonzero;stroke:none"
         transform="matrix(0.13333333,0,0,-0.13333333,0,864.66667)" />
      <path
         id="path6"
         d="M 6732.35,3752.62 V 1802.5 h -454.3 v 2880 h 454.3 L 7783.5,2843.26 V 4682.5 h 455.02 v -2880 H 7834.26 L 6732.35,3752.62"
         style="fill:#231f20;fill-opacity:1;fill-rule:nonzero;stroke:none"
         transform="matrix(0.13333333,0,0,-0.13333333,0,864.66667)" />
      <path
         id="path7"
         d="m 9899.61,4227.82 h -515.5 v -1960.2 h 483.46 c 419.03,0 556.53,507.6 556.53,1049.76 0,257.76 -73.4,910.44 -524.49,910.44 z M 8929.81,1802.5 v 2880 h 1038.92 c 726.77,0 921.57,-957.24 921.57,-1375.2 0,-1080.36 -555.5,-1504.8 -919.77,-1504.8 H 8929.81"
         style="fill:#231f20;fill-opacity:1;fill-rule:nonzero;stroke:none"
         transform="matrix(0.13333333,0,0,-0.13333333,0,864.66667)" />
      <path
         id="path8"
         d="m 11322.4,2479.66 434.5,161.64 c 121.3,-272.88 343.5,-424.44 616.3,-424.44 262.8,0 445,181.8 445,424.44 0,385.2 -444.6,444.6 -818.6,596.16 -171.8,70.92 -555.9,242.64 -555.9,717.48 0,566.28 383.8,777.6 899.3,777.6 404.3,0 677.1,-232.56 818.6,-586.08 l -404.3,-121.32 c -45.3,113.76 -209.8,252.72 -424.4,252.72 -410.7,0 -445.7,-219.24 -445.7,-291.24 0,-269.28 232.2,-322.56 609.9,-441 384.4,-120.96 785.8,-297.72 785.8,-915.12 0,-621.72 -504,-878.4 -909.7,-878.4 -495.3,0 -858.9,293.04 -1050.8,727.56"
         style="fill:#231f20;fill-opacity:1;fill-rule:nonzero;stroke:none"
         transform="matrix(0.13333333,0,0,-0.13333333,0,864.66667)" />
    </g>
  </g>
</svg>
