<?xml version="1.0" standalone="no"?>
<svg width="8208px" height="4752px" viewBox="0 -3960 8208 4752 " xmlns="http://www.w3.org/2000/svg" xmlns:xlink="http://www.w3.org/1999/xlink">
<title>generated by pstoedit</title>
<!-- generated by pstoedit version:4.02 -->
<g xml:space='preserve'>
<clipPath id="clippath1"> 	<path d="
	M 0 -3960.5 
	L 0 792 
	L 8208.5 792 
	L 8208.5 -3960.5 
	Z 
	" style="clip-rule:nonzero"/>
</clipPath>
<g style="clip-path:url(#clippath1)"> 
<g fill="#ffffff" fill-rule="nonzero" stroke-width="0" stroke-linejoin="miter" stroke-linecap="butt" stroke-miterlimit="10" >
	<path d="
	M 8208.25 359.75 
	C 8208.25 598.34 8014.84 791.75 7776.25 791.75 
	L 432.25 791.75 
	C 193.664 791.75 0.25 598.34 0.25 359.75 
	L 0.25 -3528.25 
	C 0.25 -3766.84 193.664 -3960.25 432.25 -3960.25 
	L 7776.25 -3960.25 
	C 8014.84 -3960.25 8208.25 -3766.84 8208.25 -3528.25 
	Z 
	"/>
</g>
<g stroke="#7f7f7f" fill="none" stroke-width="0.5" stroke-linejoin="miter" stroke-linecap="butt" stroke-miterlimit="4" >
	<path d="
	M 8208.25 359.75 
	C 8208.25 598.34 8014.84 791.75 7776.25 791.75 
	L 432.25 791.75 
	C 193.664 791.75 0.25 598.34 0.25 359.75 
	L 0.25 -3528.25 
	C 0.25 -3766.84 193.664 -3960.25 432.25 -3960.25 
	L 7776.25 -3960.25 
	C 8014.84 -3960.25 8208.25 -3766.84 8208.25 -3528.25 
	Z 
	"/>
</g>
<g fill="#7f7f7f" fill-rule="nonzero" stroke-width="0" stroke-linejoin="miter" stroke-linecap="butt" stroke-miterlimit="4" >
	<path d="
	M 8046.25 359.75 
	C 8046.25 508.629 7925.13 629.75 7776.25 629.75 
	L 432.25 629.75 
	C 283.371 629.75 162.25 508.629 162.25 359.75 
	L 162.25 -3528.25 
	C 162.25 -3677.13 283.371 -3798.25 432.25 -3798.25 
	L 7776.25 -3798.25 
	C 7925.13 -3798.25 8046.25 -3677.13 8046.25 -3528.25 
	Z 
	M 7776.25 -3906.25 
	L 432.25 -3906.25 
	C 223.82 -3906.25 54.25 -3736.68 54.25 -3528.25 
	L 54.25 359.75 
	C 54.25 568.18 223.82 737.75 432.25 737.75 
	L 7776.25 737.75 
	C 7984.68 737.75 8154.25 568.18 8154.25 359.75 
	L 8154.25 -3528.25 
	C 8154.25 -3736.68 7984.68 -3906.25 7776.25 -3906.25 
	Z 
	"/>
</g>
<g fill="#7f7f7f" fill-rule="nonzero" stroke-width="0" stroke-linejoin="miter" stroke-linecap="butt" stroke-miterlimit="4" >
	<path d="
	M 1620.43 -2520.25 
	L 1620.43 -3240.25 
	L 2147.76 -3240.25 
	L 2147.76 -3111.41 
	L 1752.26 -3111.41 
	L 1752.26 -2977.51 
	L 1967.76 -2977.51 
	L 1967.76 -2846.14 
	L 1752.26 -2846.14 
	L 1752.26 -2649.09 
	L 2160.43 -2649.09 
	L 2160.43 -2520.25 
	Z 
	"/>
</g>
<g fill="#7f7f7f" fill-rule="nonzero" stroke-width="0" stroke-linejoin="miter" stroke-linecap="butt" stroke-miterlimit="4" >
	<path d="
	M 4618.87 -2520.25 
	L 4618.87 -3240.25 
	L 5146.2 -3240.25 
	L 5146.2 -3111.41 
	L 4750.7 -3111.41 
	L 4750.7 -2977.51 
	L 4966.19 -2977.51 
	L 4966.19 -2846.14 
	L 4750.7 -2846.14 
	L 4750.7 -2649.09 
	L 5158.87 -2649.09 
	L 5158.87 -2520.25 
	Z 
	"/>
</g>
<g fill="#7f7f7f" fill-rule="nonzero" stroke-width="0" stroke-linejoin="miter" stroke-linecap="butt" stroke-miterlimit="4" >
	<path d="
	M 3454.17 -3111.41 
	L 3236.73 -3111.41 
	L 3236.73 -2932.04 
	L 3454.17 -2932.04 
	C 3517.3 -2932.04 3560.22 -2967.41 3560.22 -3020.46 
	C 3560.22 -3076.04 3517.3 -3111.41 3454.17 -3111.41 
	Z 
	M 3577.89 -2830.99 
	C 3537.5 -2808.25 3504.67 -2803.2 3449.12 -2803.2 
	L 3236.73 -2803.2 
	L 3236.73 -2520.25 
	L 3105.43 -2520.25 
	L 3105.43 -3240.25 
	L 3449.12 -3240.25 
	C 3504.67 -3240.25 3537.5 -3232.67 3577.89 -3209.94 
	C 3646.07 -3172.04 3688.99 -3101.3 3688.99 -3020.46 
	C 3688.99 -2944.67 3646.07 -2868.88 3577.89 -2830.99 
	Z 
	"/>
</g>
<g fill="#7f7f7f" fill-rule="nonzero" stroke-width="0" stroke-linejoin="miter" stroke-linecap="butt" stroke-miterlimit="4" >
	<path d="
	M 4184.22 -3111.41 
	L 3976.88 -3111.41 
	L 3976.88 -2932.04 
	L 4184.22 -2932.04 
	C 4247.35 -2932.04 4287.75 -2967.41 4287.75 -3020.46 
	C 4287.75 -3076.04 4247.35 -3111.41 4184.22 -3111.41 
	Z 
	M 4287.75 -2520.25 
	L 4171.6 -2803.2 
	L 3976.88 -2803.2 
	L 3976.88 -2520.25 
	L 3848.11 -2520.25 
	L 3848.11 -3240.25 
	L 4181.7 -3240.25 
	C 4234.72 -3240.25 4267.55 -3232.67 4305.42 -3209.93 
	C 4373.6 -3172.04 4416.52 -3101.3 4416.52 -3020.46 
	C 4416.52 -2939.62 4373.6 -2868.88 4300.37 -2828.46 
	L 4431.67 -2520.25 
	Z 
	"/>
</g>
<g fill="#7f7f7f" fill-rule="nonzero" stroke-width="0" stroke-linejoin="miter" stroke-linecap="butt" stroke-miterlimit="4" >
	<path d="
	M 5558.35 -2843.34 
	C 5526.3 -2852.19 5445.71 -2871.53 5418.52 -2887.48 
	C 5364.32 -2919.25 5322.9 -2971.21 5322.9 -3048.25 
	C 5322.9 -3166.99 5424.38 -3247.83 5571.54 -3247.83 
	C 5678.1 -3247.83 5766.91 -3212.46 5840.49 -3136.67 
	L 5744.07 -3050.78 
	C 5698.4 -3098.78 5640.05 -3121.51 5571.54 -3121.51 
	C 5497.96 -3121.51 5454.83 -3093.72 5454.83 -3048.25 
	C 5454.83 -3007.83 5480.2 -2990.14 5569 -2969.93 
	C 5665.42 -2949.72 5728.85 -2929.51 5769.44 -2909.3 
	C 5832.88 -2876.46 5873.47 -2808.25 5873.47 -2729.93 
	C 5873.47 -2656.67 5840.49 -2601.09 5771.98 -2560.67 
	C 5721.24 -2530.35 5655.27 -2512.67 5589.3 -2512.67 
	C 5464.98 -2512.67 5371.1 -2558.14 5289.91 -2651.62 
	L 5393.93 -2732.46 
	C 5447.22 -2669.3 5505.57 -2641.51 5586.76 -2641.51 
	C 5678.1 -2641.51 5744.07 -2681.93 5744.07 -2734.99 
	C 5744.07 -2802.57 5670.56 -2812.37 5558.35 -2843.34 
	Z 
	"/>
</g>
<g fill="#7f7f7f" fill-rule="nonzero" stroke-width="0" stroke-linejoin="miter" stroke-linecap="butt" stroke-miterlimit="4" >
	<path d="
	M 6272.95 -2843.34 
	C 6240.9 -2852.19 6160.32 -2871.53 6133.12 -2887.48 
	C 6078.92 -2919.25 6037.5 -2971.21 6037.5 -3048.25 
	C 6037.5 -3166.99 6138.98 -3247.83 6286.14 -3247.83 
	C 6392.7 -3247.83 6481.51 -3212.46 6555.08 -3136.67 
	L 6458.67 -3050.78 
	C 6413 -3098.78 6354.65 -3121.51 6286.14 -3121.51 
	C 6212.56 -3121.51 6169.43 -3093.72 6169.43 -3048.25 
	C 6169.43 -3007.83 6194.8 -2990.14 6283.6 -2969.93 
	C 6380.02 -2949.72 6443.45 -2929.51 6484.04 -2909.3 
	C 6547.48 -2876.46 6588.07 -2808.25 6588.07 -2729.93 
	C 6588.07 -2656.67 6555.08 -2601.09 6486.58 -2560.67 
	C 6435.84 -2530.35 6369.87 -2512.67 6303.9 -2512.67 
	C 6179.58 -2512.67 6085.7 -2558.14 6004.51 -2651.62 
	L 6108.53 -2732.46 
	C 6161.82 -2669.3 6220.17 -2641.51 6301.36 -2641.51 
	C 6392.7 -2641.51 6458.67 -2681.93 6458.67 -2734.99 
	C 6458.67 -2802.57 6385.16 -2812.37 6272.95 -2843.34 
	Z 
	"/>
</g>
<g fill="#7f7f7f" fill-rule="nonzero" stroke-width="0" stroke-linejoin="miter" stroke-linecap="butt" stroke-miterlimit="4" >
	<path d="
	M 2765.98 -2520.25 
	L 2603.58 -2775.41 
	L 2443.72 -2520.25 
	L 2291.47 -2520.25 
	L 2527.46 -2899.2 
	L 2311.77 -3240.25 
	L 2466.56 -3240.25 
	L 2603.58 -3020.46 
	L 2740.6 -3240.25 
	L 2895.39 -3240.25 
	L 2682.24 -2899.2 
	L 2918.23 -2520.25 
	Z 
	"/>
</g>
<g fill="#7f7f7f" fill-rule="nonzero" stroke-width="0" stroke-linejoin="miter" stroke-linecap="butt" stroke-miterlimit="4" >
	<path d="
	M 4567.11 -491.62 
	C 4534.32 -509.3 4496.47 -519.41 4458.63 -519.41 
	L 4349.39 -519.41 
	L 4349.39 -57.09 
	L 4458.63 -57.09 
	C 4496.47 -57.09 4531.79 -67.191 4562.07 -84.879 
	C 4637.76 -125.301 4673.08 -190.98 4673.08 -289.51 
	C 4673.08 -385.51 4637.76 -451.19 4567.11 -491.62 
	Z 
	M 4627.67 28.809 
	C 4577.21 56.602 4516.66 71.75 4458.63 71.75 
	L 4218.19 71.75 
	L 4218.19 -648.25 
	L 4458.63 -648.25 
	C 4519.18 -648.25 4577.21 -633.09 4630.19 -602.77 
	C 4741.2 -539.62 4801.75 -430.98 4801.75 -289.51 
	C 4801.75 -145.512 4741.2 -34.352 4627.67 28.809 
	Z 
	"/>
</g>
<g fill="#7f7f7f" fill-rule="nonzero" stroke-width="0" stroke-linejoin="miter" stroke-linecap="butt" stroke-miterlimit="4" >
	<path d="
	M 2664.07 71.75 
	L 2664.07 -648.25 
	L 3191.4 -648.25 
	L 3191.4 -519.41 
	L 2795.9 -519.41 
	L 2795.9 -385.51 
	L 3011.4 -385.51 
	L 3011.4 -254.14 
	L 2795.9 -254.14 
	L 2795.9 -57.09 
	L 3204.07 -57.09 
	L 3204.07 71.75 
	Z 
	"/>
</g>
<g fill="#7f7f7f" fill-rule="nonzero" stroke-width="0" stroke-linejoin="miter" stroke-linecap="butt" stroke-miterlimit="4" >
	<path d="
	M 3863.2 71.75 
	L 3518.13 -423.4 
	L 3518.13 71.75 
	L 3391.27 71.75 
	L 3391.27 -648.25 
	L 3518.13 -648.25 
	L 3850.51 -173.301 
	L 3850.51 -648.25 
	L 3974.84 -648.25 
	L 3974.84 71.75 
	Z 
	"/>
</g>
<g fill="#7f7f7f" fill-rule="nonzero" stroke-width="0" stroke-linejoin="miter" stroke-linecap="butt" stroke-miterlimit="4" >
	<path d="
	M 5229.31 -251.34 
	C 5197.26 -260.19 5116.68 -279.53 5089.49 -295.47 
	C 5035.29 -327.25 4993.86 -379.21 4993.86 -456.25 
	C 4993.86 -574.98 5095.35 -655.83 5242.5 -655.83 
	C 5349.07 -655.83 5437.87 -620.46 5511.45 -544.67 
	L 5415.03 -458.77 
	C 5369.36 -506.77 5311.01 -529.51 5242.5 -529.51 
	C 5168.92 -529.51 5125.79 -501.72 5125.79 -456.25 
	C 5125.79 -415.83 5151.16 -398.14 5239.97 -377.93 
	C 5336.38 -357.72 5399.81 -337.51 5440.41 -317.3 
	C 5503.84 -284.46 5544.43 -216.25 5544.43 -137.93 
	C 5544.43 -64.668 5511.45 -9.09003 5442.94 31.332 
	C 5392.2 61.648 5326.23 79.332 5260.26 79.332 
	C 5135.94 79.332 5042.06 33.859 4960.87 -59.621 
	L 5064.9 -140.461 
	C 5118.18 -77.301 5176.54 -49.512 5257.73 -49.512 
	C 5349.07 -49.512 5415.03 -89.93 5415.03 -142.98 
	C 5415.03 -210.56 5341.52 -220.37 5229.31 -251.34 
	Z 
	"/>
</g>
<g fill="#7f7f7f" fill-rule="nonzero" stroke-width="0" stroke-linejoin="miter" stroke-linecap="butt" stroke-miterlimit="4" >
	<path d="
	M 4790.08 -1211.22 
	C 4600.62 -1211.22 4484.41 -1360.27 4484.41 -1585.12 
	C 4484.41 -1812.48 4600.62 -1956.49 4790.08 -1956.49 
	C 4906.29 -1956.49 5012.39 -1898.38 5067.97 -1797.33 
	L 4954.29 -1736.7 
	C 4934.08 -1767.01 4923.97 -1777.12 4903.76 -1789.75 
	C 4875.98 -1812.48 4827.98 -1827.64 4790.08 -1827.64 
	C 4658.72 -1827.64 4615.77 -1698.8 4615.77 -1587.64 
	C 4615.77 -1431.01 4681.45 -1340.06 4790.08 -1340.06 
	C 4855.76 -1340.06 4891.13 -1362.8 4954.29 -1431.01 
	L 5067.97 -1370.38 
	C 5014.92 -1269.32 4906.29 -1211.22 4790.08 -1211.22 
	Z 
	"/>
</g>
<g fill="#7f7f7f" fill-rule="nonzero" stroke-width="0" stroke-linejoin="miter" stroke-linecap="butt" stroke-miterlimit="4" >
	<path d="
	M 1373.29 -1223.85 
	L 1373.29 -1943.85 
	L 1900.61 -1943.85 
	L 1900.61 -1815.01 
	L 1505.12 -1815.01 
	L 1505.12 -1681.12 
	L 1720.61 -1681.12 
	L 1720.61 -1549.75 
	L 1505.12 -1549.75 
	L 1505.12 -1352.69 
	L 1913.29 -1352.69 
	L 1913.29 -1223.85 
	Z 
	"/>
</g>
<g fill="#7f7f7f" fill-rule="nonzero" stroke-width="0" stroke-linejoin="miter" stroke-linecap="butt" stroke-miterlimit="4" >
	<path d="
	M 4156.09 -1223.85 
	L 4156.09 -1943.85 
	L 4285.69 -1943.85 
	L 4285.69 -1223.85 
	Z 
	"/>
</g>
<g fill="#7f7f7f" fill-rule="nonzero" stroke-width="0" stroke-linejoin="miter" stroke-linecap="butt" stroke-miterlimit="4" >
	<path d="
	M 5875.81 -1223.85 
	L 5875.81 -1943.85 
	L 6005.41 -1943.85 
	L 6005.41 -1223.85 
	Z 
	"/>
</g>
<g fill="#7f7f7f" fill-rule="nonzero" stroke-width="0" stroke-linejoin="miter" stroke-linecap="butt" stroke-miterlimit="4" >
	<path d="
	M 7479.94 -1223.85 
	L 7134.87 -1719.01 
	L 7134.87 -1223.85 
	L 7008.01 -1223.85 
	L 7008.01 -1943.85 
	L 7134.87 -1943.85 
	L 7467.25 -1468.9 
	L 7467.25 -1943.85 
	L 7591.58 -1943.85 
	L 7591.58 -1223.85 
	Z 
	"/>
</g>
<g fill="#7f7f7f" fill-rule="nonzero" stroke-width="0" stroke-linejoin="miter" stroke-linecap="butt" stroke-miterlimit="4" >
	<path d="
	M 6510.51 -1827.64 
	C 6401.63 -1827.64 6335.8 -1736.7 6335.8 -1585.12 
	C 6335.8 -1431.01 6401.63 -1340.06 6510.51 -1340.06 
	C 6647.24 -1340.06 6680.16 -1473.96 6680.16 -1585.12 
	C 6680.16 -1736.7 6619.38 -1827.64 6510.51 -1827.64 
	Z 
	M 6510.51 -1211.22 
	C 6297.82 -1211.22 6204.13 -1403.22 6204.13 -1585.12 
	C 6204.13 -1815.01 6320.6 -1956.49 6510.51 -1956.49 
	C 6687.75 -1956.49 6809.29 -1807.43 6809.29 -1587.64 
	C 6809.29 -1362.8 6692.82 -1211.22 6510.51 -1211.22 
	Z 
	"/>
</g>
<g fill="#7f7f7f" fill-rule="nonzero" stroke-width="0" stroke-linejoin="miter" stroke-linecap="butt" stroke-miterlimit="4" >
	<path d="
	M 953.039 -1815.01 
	L 745.703 -1815.01 
	L 745.703 -1635.64 
	L 953.039 -1635.64 
	C 1016.17 -1635.64 1056.56 -1671.01 1056.56 -1724.06 
	C 1056.56 -1779.64 1016.17 -1815.01 953.039 -1815.01 
	Z 
	M 1056.56 -1223.85 
	L 940.414 -1506.8 
	L 745.703 -1506.8 
	L 745.703 -1223.85 
	L 616.926 -1223.85 
	L 616.926 -1943.85 
	L 950.516 -1943.85 
	C 1003.54 -1943.85 1036.37 -1936.27 1074.24 -1913.54 
	C 1142.41 -1875.64 1185.34 -1804.91 1185.34 -1724.06 
	C 1185.34 -1643.22 1142.41 -1572.48 1069.19 -1532.06 
	L 1200.49 -1223.85 
	Z 
	"/>
</g>
<g fill="#7f7f7f" fill-rule="nonzero" stroke-width="0" stroke-linejoin="miter" stroke-linecap="butt" stroke-miterlimit="4" >
	<path d="
	M 3735.84 -1815.01 
	L 3528.5 -1815.01 
	L 3528.5 -1635.64 
	L 3735.84 -1635.64 
	C 3798.96 -1635.64 3839.36 -1671.01 3839.36 -1724.06 
	C 3839.36 -1779.64 3798.96 -1815.01 3735.84 -1815.01 
	Z 
	M 3839.36 -1223.85 
	L 3723.21 -1506.8 
	L 3528.5 -1506.8 
	L 3528.5 -1223.85 
	L 3399.73 -1223.85 
	L 3399.73 -1943.85 
	L 3733.31 -1943.85 
	C 3786.33 -1943.85 3819.16 -1936.27 3857.04 -1913.54 
	C 3925.21 -1875.64 3968.14 -1804.91 3968.14 -1724.06 
	C 3968.14 -1643.22 3925.21 -1572.48 3851.99 -1532.06 
	L 3983.28 -1223.85 
	Z 
	"/>
</g>
<g fill="#7f7f7f" fill-rule="nonzero" stroke-width="0" stroke-linejoin="miter" stroke-linecap="butt" stroke-miterlimit="4" >
	<path d="
	M 2302.68 -1546.95 
	C 2270.64 -1555.79 2190.05 -1575.13 2162.86 -1591.08 
	C 2108.66 -1622.85 2067.23 -1674.82 2067.23 -1751.85 
	C 2067.23 -1870.59 2168.72 -1951.43 2315.88 -1951.43 
	C 2422.44 -1951.43 2511.24 -1916.06 2584.82 -1840.27 
	L 2488.41 -1754.38 
	C 2442.74 -1802.38 2384.38 -1825.12 2315.88 -1825.12 
	C 2242.3 -1825.12 2199.17 -1797.33 2199.17 -1751.85 
	C 2199.17 -1711.43 2224.54 -1693.75 2313.34 -1673.54 
	C 2409.75 -1653.33 2473.19 -1633.12 2513.78 -1612.9 
	C 2577.21 -1580.06 2617.81 -1511.85 2617.81 -1433.54 
	C 2617.81 -1360.27 2584.82 -1304.69 2516.32 -1264.27 
	C 2465.57 -1233.96 2399.61 -1216.27 2333.64 -1216.27 
	C 2209.32 -1216.27 2115.44 -1261.75 2034.25 -1355.22 
	L 2138.27 -1436.06 
	C 2191.55 -1372.9 2249.91 -1345.11 2331.1 -1345.11 
	C 2422.44 -1345.11 2488.41 -1385.54 2488.41 -1438.59 
	C 2488.41 -1506.17 2414.9 -1515.97 2302.68 -1546.95 
	Z 
	"/>
</g>
<g fill="#7f7f7f" fill-rule="nonzero" stroke-width="0" stroke-linejoin="miter" stroke-linecap="butt" stroke-miterlimit="4" >
	<path d="
	M 3045.93 -1817.54 
	L 3045.93 -1223.85 
	L 2919.76 -1223.85 
	L 2919.76 -1817.54 
	L 2712.84 -1817.54 
	L 2712.84 -1943.85 
	L 3252.84 -1943.85 
	L 3252.84 -1817.54 
	Z 
	"/>
</g>
<g fill="#7f7f7f" fill-rule="nonzero" stroke-width="0" stroke-linejoin="miter" stroke-linecap="butt" stroke-miterlimit="4" >
	<path d="
	M 5522.01 -1817.54 
	L 5522.01 -1223.85 
	L 5395.84 -1223.85 
	L 5395.84 -1817.54 
	L 5188.93 -1817.54 
	L 5188.93 -1943.85 
	L 5728.93 -1943.85 
	L 5728.93 -1817.54 
	Z 
	"/>
</g>
</g >
</g>
</svg>
