<?xml version="1.0" standalone="no"?>
<svg width="4320px" height="5616px" viewBox="0 -4824 4320 5616 " xmlns="http://www.w3.org/2000/svg" xmlns:xlink="http://www.w3.org/1999/xlink">
<title>generated by pstoedit</title>
<!-- generated by pstoedit version:4.02 -->
<g xml:space='preserve'>
<clipPath id="clippath1"> 	<path d="
	M 0 -4824.5 
	L 0 792 
	L 4320.5 792 
	L 4320.5 -4824.5 
	Z 
	" style="clip-rule:nonzero"/>
</clipPath>
<g style="clip-path:url(#clippath1)"> 
<g fill="#ffffff" fill-rule="nonzero" stroke-width="0" stroke-linejoin="miter" stroke-linecap="butt" stroke-miterlimit="10" >
	<path d="
	M 4320.25 575.75 
	C 4320.25 695.039 4223.54 791.75 4104.25 791.75 
	L 216.25 791.75 
	C 96.957 791.75 0.25 695.039 0.25 575.75 
	L 0.25 -4608.25 
	C 0.25 -4727.54 96.957 -4824.25 216.25 -4824.25 
	L 4104.25 -4824.25 
	C 4223.54 -4824.25 4320.25 -4727.54 4320.25 -4608.25 
	Z 
	"/>
</g>
<g stroke="#7f7f7f" fill="none" stroke-width="0.5" stroke-linejoin="miter" stroke-linecap="butt" stroke-miterlimit="4" >
	<path d="
	M 4320.25 575.75 
	C 4320.25 695.039 4223.54 791.75 4104.25 791.75 
	L 216.25 791.75 
	C 96.957 791.75 0.25 695.039 0.25 575.75 
	L 0.25 -4608.25 
	C 0.25 -4727.54 96.957 -4824.25 216.25 -4824.25 
	L 4104.25 -4824.25 
	C 4223.54 -4824.25 4320.25 -4727.54 4320.25 -4608.25 
	Z 
	"/>
</g>
<g fill="#7f7f7f" fill-rule="nonzero" stroke-width="0" stroke-linejoin="miter" stroke-linecap="butt" stroke-miterlimit="4" >
	<path d="
	M 4176.25 575.75 
	C 4176.25 615.449 4143.95 647.75 4104.25 647.75 
	L 216.25 647.75 
	C 176.551 647.75 144.25 615.449 144.25 575.75 
	L 144.25 -4608.25 
	C 144.25 -4647.95 176.551 -4680.25 216.25 -4680.25 
	L 4104.25 -4680.25 
	C 4143.95 -4680.25 4176.25 -4647.95 4176.25 -4608.25 
	Z 
	M 4104.25 -4770.25 
	L 216.25 -4770.25 
	C 126.922 -4770.25 54.25 -4697.58 54.25 -4608.25 
	L 54.25 575.75 
	C 54.25 665.082 126.922 737.75 216.25 737.75 
	L 4104.25 737.75 
	C 4193.58 737.75 4266.25 665.082 4266.25 575.75 
	L 4266.25 -4608.25 
	C 4266.25 -4697.58 4193.58 -4770.25 4104.25 -4770.25 
	Z 
	"/>
</g>
<g fill="#7f7f7f" fill-rule="nonzero" stroke-width="0" stroke-linejoin="miter" stroke-linecap="butt" stroke-miterlimit="4" >
	<path d="
	M 2511.02 -761.94 
	C 2493.37 -812.46 2463.12 -835.2 2417.74 -835.2 
	L 2332.02 -835.2 
	L 2332.02 -317.3 
	L 2417.74 -317.3 
	C 2478.24 -317.3 2511.02 -365.3 2521.1 -420.88 
	C 2526.14 -466.36 2531.19 -516.88 2531.19 -572.46 
	C 2531.19 -653.3 2523.63 -731.62 2511.02 -761.94 
	Z 
	M 2528.66 -249.09 
	C 2503.45 -226.36 2468.16 -216.25 2427.82 -216.25 
	L 2228.65 -216.25 
	L 2228.65 -936.25 
	L 2412.7 -936.25 
	C 2473.2 -936.25 2503.45 -928.67 2528.66 -908.46 
	C 2571.53 -878.15 2601.78 -822.57 2614.38 -749.3 
	C 2624.47 -696.25 2632.03 -633.09 2632.03 -577.51 
	C 2632.03 -410.77 2599.26 -304.67 2528.66 -249.09 
	Z 
	"/>
</g>
<g fill="#7f7f7f" fill-rule="nonzero" stroke-width="0" stroke-linejoin="miter" stroke-linecap="butt" stroke-miterlimit="4" >
	<path d="
	M 1177.09 -216.25 
	L 1177.09 -936.25 
	L 1516.6 -936.25 
	L 1516.6 -835.2 
	L 1280.97 -835.2 
	L 1280.97 -653.3 
	L 1430.45 -653.3 
	L 1430.45 -554.77 
	L 1280.97 -554.77 
	L 1280.97 -317.3 
	L 1544.47 -317.3 
	L 1544.47 -216.25 
	Z 
	"/>
</g>
<g fill="#7f7f7f" fill-rule="nonzero" stroke-width="0" stroke-linejoin="miter" stroke-linecap="butt" stroke-miterlimit="4" >
	<path d="
	M 1992.1 -216.25 
	L 1770.24 -698.78 
	L 1770.24 -216.25 
	L 1666.87 -216.25 
	L 1666.87 -936.25 
	L 1770.24 -936.25 
	L 1966.88 -504.25 
	L 1966.88 -936.25 
	L 2070.25 -936.25 
	L 2070.25 -216.25 
	Z 
	"/>
</g>
<g fill="#7f7f7f" fill-rule="nonzero" stroke-width="0" stroke-linejoin="miter" stroke-linecap="butt" stroke-miterlimit="4" >
	<path d="
	M 2945.05 -548.76 
	C 2913.9 -568.94 2883.65 -589.19 2864.34 -602.78 
	C 2806.3 -643.63 2775.55 -698.78 2775.55 -761.93 
	C 2775.55 -865.51 2856.73 -948.88 2960.75 -948.88 
	C 3062.23 -948.88 3140.87 -870.57 3143.41 -761.93 
	L 3044.47 -761.93 
	C 3041.93 -812.46 3006.41 -845.3 2960.75 -845.3 
	C 2912.55 -845.3 2874.49 -809.93 2874.49 -761.93 
	C 2874.49 -726.57 2889.71 -706.36 2942.99 -676.04 
	C 3082.52 -595.2 3143.41 -516.88 3143.41 -413.3 
	C 3143.41 -297.09 3054.62 -203.621 2942.99 -203.621 
	C 2816.14 -203.621 2740.03 -309.72 2740.03 -428.46 
	L 2841.51 -428.46 
	C 2841.51 -367.83 2871.96 -304.67 2942.99 -304.67 
	C 2998.8 -304.67 3044.47 -355.2 3044.47 -413.3 
	C 3044.47 -458.42 3025.83 -496.42 2945.05 -548.76 
	Z 
	"/>
</g>
<g fill="#7f7f7f" fill-rule="nonzero" stroke-width="0" stroke-linejoin="miter" stroke-linecap="butt" stroke-miterlimit="4" >
	<path d="
	M 2639.96 -1729.51 
	C 2624.21 -1677.29 2576.48 -1643.62 2513 -1643.62 
	C 2439.37 -1643.62 2393.66 -1673.93 2370.81 -1739.62 
	C 2350.5 -1800.25 2340.34 -1898.78 2340.34 -2014.99 
	C 2340.34 -2080.67 2347.96 -2176.67 2358.11 -2232.25 
	C 2378.42 -2343.41 2421.59 -2386.36 2507.92 -2386.36 
	C 2589.18 -2386.36 2642.5 -2335.83 2650.12 -2247.41 
	L 2556.17 -2247.41 
	C 2553.63 -2277.72 2535.85 -2292.88 2510.46 -2292.88 
	C 2477.45 -2292.88 2459.68 -2270.14 2449.52 -2222.15 
	C 2436.83 -2164.04 2434.29 -2110.99 2434.29 -2014.99 
	C 2434.29 -1913.93 2436.83 -1870.99 2449.52 -1810.35 
	C 2459.68 -1762.35 2477.45 -1737.09 2507.92 -1737.09 
	C 2540.93 -1737.09 2556.17 -1762.35 2556.17 -1825.51 
	L 2650.12 -1825.51 
	C 2650.12 -1769.93 2647.58 -1754.78 2639.96 -1729.51 
	Z 
	"/>
</g>
<g fill="#7f7f7f" fill-rule="nonzero" stroke-width="0" stroke-linejoin="miter" stroke-linecap="butt" stroke-miterlimit="4" >
	<path d="
	M 717.816 -1656.25 
	L 717.816 -2376.25 
	L 981.555 -2376.25 
	L 981.555 -2282.78 
	L 808.242 -2282.78 
	L 808.242 -2098.36 
	L 923.781 -2098.36 
	L 923.781 -2002.35 
	L 808.242 -2002.35 
	L 808.242 -1749.72 
	L 991.598 -1749.72 
	L 991.598 -1656.25 
	Z 
	"/>
</g>
<g fill="#7f7f7f" fill-rule="nonzero" stroke-width="0" stroke-linejoin="miter" stroke-linecap="butt" stroke-miterlimit="4" >
	<path d="
	M 2144.14 -1656.25 
	L 2144.14 -2376.25 
	L 2237.74 -2376.25 
	L 2237.74 -1656.25 
	Z 
	"/>
</g>
<g fill="#7f7f7f" fill-rule="nonzero" stroke-width="0" stroke-linejoin="miter" stroke-linecap="butt" stroke-miterlimit="4" >
	<path d="
	M 3058.9 -1656.25 
	L 3058.9 -2376.25 
	L 3152.5 -2376.25 
	L 3152.5 -1656.25 
	Z 
	"/>
</g>
<g fill="#7f7f7f" fill-rule="nonzero" stroke-width="0" stroke-linejoin="miter" stroke-linecap="butt" stroke-miterlimit="4" >
	<path d="
	M 3920.79 -1656.25 
	L 3779.75 -2083.2 
	L 3779.75 -1656.25 
	L 3689.08 -1656.25 
	L 3689.08 -2376.25 
	L 3779.75 -2376.25 
	L 3908.19 -2017.51 
	L 3908.19 -2376.25 
	L 3998.86 -2376.25 
	L 3998.86 -1656.25 
	Z 
	"/>
</g>
<g fill="#7f7f7f" fill-rule="nonzero" stroke-width="0" stroke-linejoin="miter" stroke-linecap="butt" stroke-miterlimit="4" >
	<path d="
	M 3420.84 -2292.88 
	C 3337.47 -2292.88 3348.83 -2068.04 3348.83 -2017.51 
	C 3348.83 -1969.51 3337.47 -1737.09 3420.84 -1737.09 
	C 3501.69 -1737.09 3490.33 -1969.51 3490.33 -2017.51 
	C 3490.33 -2075.62 3489.05 -2292.88 3420.84 -2292.88 
	Z 
	M 3420.84 -1643.62 
	C 3241.47 -1643.62 3255.35 -1898.78 3255.35 -2017.51 
	C 3255.35 -2141.3 3243.99 -2386.36 3420.84 -2386.36 
	C 3597.69 -2386.36 3586.33 -2138.78 3586.33 -2017.51 
	C 3586.33 -1898.78 3597.69 -1643.62 3420.84 -1643.62 
	Z 
	"/>
</g>
<g fill="#7f7f7f" fill-rule="nonzero" stroke-width="0" stroke-linejoin="miter" stroke-linecap="butt" stroke-miterlimit="4" >
	<path d="
	M 456.938 -2282.78 
	L 412.672 -2282.78 
	L 412.672 -2085.72 
	L 472.109 -2085.72 
	C 522.684 -2085.72 537.855 -2108.46 537.855 -2176.67 
	C 537.855 -2257.51 520.152 -2282.78 456.938 -2282.78 
	Z 
	M 555.559 -2014.99 
	L 628.891 -1656.25 
	L 535.328 -1656.25 
	L 454.406 -1992.25 
	L 412.672 -1992.25 
	L 412.672 -1656.25 
	L 321.637 -1656.25 
	L 321.637 -2376.25 
	L 461.992 -2376.25 
	C 573.258 -2376.25 631.418 -2308.04 631.418 -2174.14 
	C 631.418 -2093.3 608.66 -2047.83 555.559 -2014.99 
	Z 
	"/>
</g>
<g fill="#7f7f7f" fill-rule="nonzero" stroke-width="0" stroke-linejoin="miter" stroke-linecap="butt" stroke-miterlimit="4" >
	<path d="
	M 1883.26 -2282.78 
	L 1838.99 -2282.78 
	L 1838.99 -2085.72 
	L 1898.43 -2085.72 
	C 1949 -2085.72 1964.18 -2108.46 1964.18 -2176.67 
	C 1964.18 -2257.51 1946.47 -2282.78 1883.26 -2282.78 
	Z 
	M 1981.88 -2014.99 
	L 2055.21 -1656.25 
	L 1961.65 -1656.25 
	L 1880.73 -1992.25 
	L 1838.99 -1992.25 
	L 1838.99 -1656.25 
	L 1747.96 -1656.25 
	L 1747.96 -2376.25 
	L 1888.32 -2376.25 
	C 1999.58 -2376.25 2057.74 -2308.04 2057.74 -2174.14 
	C 2057.74 -2093.3 2034.98 -2047.83 1981.88 -2014.99 
	Z 
	"/>
</g>
<g fill="#7f7f7f" fill-rule="nonzero" stroke-width="0" stroke-linejoin="miter" stroke-linecap="butt" stroke-miterlimit="4" >
	<path d="
	M 1319.98 -1966.99 
	C 1340.76 -1922.38 1355.38 -1860.88 1355.38 -1810.35 
	C 1355.38 -1759.83 1332.62 -1706.78 1297.22 -1676.46 
	C 1274.46 -1656.25 1242.21 -1643.62 1204.28 -1643.62 
	C 1103.13 -1643.62 1050.65 -1709.3 1045.6 -1835.62 
	L 1139.16 -1835.62 
	C 1139.16 -1807.83 1141.69 -1797.72 1146.75 -1782.56 
	C 1154.33 -1754.77 1176.46 -1737.09 1204.28 -1737.09 
	C 1239.68 -1737.09 1261.81 -1764.88 1261.81 -1810.35 
	C 1261.81 -1873.51 1239.68 -1926.57 1184.05 -1992.25 
	C 1151.18 -2030.14 1129.04 -2057.93 1121.46 -2068.04 
	C 1081 -2116.04 1063.3 -2166.57 1063.3 -2217.09 
	C 1063.3 -2315.62 1123.36 -2386.36 1209.34 -2386.36 
	C 1297.84 -2386.36 1345.26 -2330.78 1355.38 -2217.09 
	L 1261.81 -2217.09 
	C 1259.29 -2272.67 1244.74 -2295.41 1211.87 -2295.41 
	C 1176.46 -2295.41 1156.86 -2265.09 1156.86 -2217.09 
	C 1156.86 -2184.25 1168.88 -2158.99 1206.81 -2118.57 
	C 1285.2 -2030.14 1298.5 -2013.08 1319.98 -1966.99 
	Z 
	"/>
</g>
<g fill="#7f7f7f" fill-rule="nonzero" stroke-width="0" stroke-linejoin="miter" stroke-linecap="butt" stroke-miterlimit="4" >
	<path d="
	M 1578.37 -2282.78 
	L 1578.37 -1656.25 
	L 1487.52 -1656.25 
	L 1487.52 -2282.78 
	L 1398.58 -2282.78 
	L 1398.58 -2376.25 
	L 1672.36 -2376.25 
	L 1672.36 -2282.78 
	Z 
	"/>
</g>
<g fill="#7f7f7f" fill-rule="nonzero" stroke-width="0" stroke-linejoin="miter" stroke-linecap="butt" stroke-miterlimit="4" >
	<path d="
	M 2889.31 -2282.78 
	L 2889.31 -1656.25 
	L 2798.46 -1656.25 
	L 2798.46 -2282.78 
	L 2709.52 -2282.78 
	L 2709.52 -2376.25 
	L 2983.3 -2376.25 
	L 2983.3 -2282.78 
	Z 
	"/>
</g>
<g fill="#7f7f7f" fill-rule="nonzero" stroke-width="0" stroke-linejoin="miter" stroke-linecap="butt" stroke-miterlimit="4" >
	<path d="
	M 471.219 -3096.25 
	L 471.219 -3816.25 
	L 810.727 -3816.25 
	L 810.727 -3715.2 
	L 575.098 -3715.2 
	L 575.098 -3533.3 
	L 724.582 -3533.3 
	L 724.582 -3434.78 
	L 575.098 -3434.78 
	L 575.098 -3197.3 
	L 838.598 -3197.3 
	L 838.598 -3096.25 
	Z 
	"/>
</g>
<g fill="#7f7f7f" fill-rule="nonzero" stroke-width="0" stroke-linejoin="miter" stroke-linecap="butt" stroke-miterlimit="4" >
	<path d="
	M 2502.34 -3096.25 
	L 2502.34 -3816.25 
	L 2841.85 -3816.25 
	L 2841.85 -3715.2 
	L 2606.22 -3715.2 
	L 2606.22 -3533.3 
	L 2755.71 -3533.3 
	L 2755.71 -3434.78 
	L 2606.22 -3434.78 
	L 2606.22 -3197.3 
	L 2869.72 -3197.3 
	L 2869.72 -3096.25 
	Z 
	"/>
</g>
<g fill="#7f7f7f" fill-rule="nonzero" stroke-width="0" stroke-linejoin="miter" stroke-linecap="butt" stroke-miterlimit="4" >
	<path d="
	M 1638.43 -3715.2 
	L 1532.54 -3715.2 
	L 1532.54 -3510.57 
	L 1638.43 -3510.57 
	C 1698.94 -3510.57 1731.71 -3548.46 1731.71 -3614.15 
	C 1731.71 -3674.78 1693.89 -3715.2 1638.43 -3715.2 
	Z 
	M 1643.47 -3412.04 
	L 1532.54 -3412.04 
	L 1532.54 -3096.25 
	L 1429.18 -3096.25 
	L 1429.18 -3816.25 
	L 1643.47 -3816.25 
	C 1756.92 -3816.25 1832.56 -3735.41 1832.56 -3614.15 
	C 1832.56 -3482.78 1764.48 -3412.04 1643.47 -3412.04 
	Z 
	"/>
</g>
<g fill="#7f7f7f" fill-rule="nonzero" stroke-width="0" stroke-linejoin="miter" stroke-linecap="butt" stroke-miterlimit="4" >
	<path d="
	M 2185.82 -3715.2 
	L 2079.93 -3715.2 
	L 2079.93 -3533.3 
	L 2185.82 -3533.3 
	C 2246.32 -3533.3 2279.1 -3566.15 2279.1 -3624.25 
	C 2279.1 -3679.83 2241.28 -3715.2 2185.82 -3715.2 
	Z 
	M 2274.05 -3096.25 
	L 2178.25 -3434.78 
	L 2079.93 -3434.78 
	L 2079.93 -3096.25 
	L 1976.56 -3096.25 
	L 1976.56 -3816.25 
	L 2190.86 -3816.25 
	C 2304.31 -3816.25 2379.94 -3740.46 2379.94 -3624.25 
	C 2379.94 -3538.36 2344.64 -3475.2 2276.58 -3449.93 
	L 2379.94 -3096.25 
	Z 
	"/>
</g>
<g fill="#7f7f7f" fill-rule="nonzero" stroke-width="0" stroke-linejoin="miter" stroke-linecap="butt" stroke-miterlimit="4" >
	<path d="
	M 3161.14 -3428.76 
	C 3129.99 -3448.94 3099.74 -3469.19 3080.43 -3482.78 
	C 3022.39 -3523.64 2991.63 -3578.78 2991.63 -3641.94 
	C 2991.63 -3745.52 3072.82 -3828.88 3176.84 -3828.88 
	C 3278.31 -3828.88 3356.96 -3750.57 3359.5 -3641.94 
	L 3260.55 -3641.94 
	C 3258.02 -3692.46 3222.5 -3725.31 3176.84 -3725.31 
	C 3128.64 -3725.31 3090.58 -3689.94 3090.58 -3641.94 
	C 3090.58 -3606.57 3105.8 -3586.36 3159.08 -3556.04 
	C 3298.61 -3475.2 3359.5 -3396.88 3359.5 -3293.3 
	C 3359.5 -3177.09 3270.71 -3083.62 3159.08 -3083.62 
	C 3032.23 -3083.62 2956.12 -3189.72 2956.12 -3308.46 
	L 3057.6 -3308.46 
	C 3057.6 -3247.83 3088.04 -3184.67 3159.08 -3184.67 
	C 3214.89 -3184.67 3260.55 -3235.2 3260.55 -3293.3 
	C 3260.55 -3338.42 3241.91 -3376.42 3161.14 -3428.76 
	Z 
	"/>
</g>
<g fill="#7f7f7f" fill-rule="nonzero" stroke-width="0" stroke-linejoin="miter" stroke-linecap="butt" stroke-miterlimit="4" >
	<path d="
	M 3650.92 -3428.76 
	C 3619.77 -3448.94 3589.52 -3469.19 3570.21 -3482.78 
	C 3512.16 -3523.64 3481.41 -3578.78 3481.41 -3641.94 
	C 3481.41 -3745.52 3562.6 -3828.88 3666.62 -3828.88 
	C 3768.09 -3828.88 3846.74 -3750.57 3849.28 -3641.94 
	L 3750.34 -3641.94 
	C 3747.8 -3692.46 3712.28 -3725.3 3666.62 -3725.3 
	C 3618.41 -3725.3 3580.36 -3689.94 3580.36 -3641.94 
	C 3580.36 -3606.57 3595.58 -3586.36 3648.86 -3556.04 
	C 3788.39 -3475.2 3849.28 -3396.88 3849.28 -3293.3 
	C 3849.28 -3177.09 3760.48 -3083.62 3648.86 -3083.62 
	C 3522.01 -3083.62 3445.9 -3189.72 3445.9 -3308.46 
	L 3547.38 -3308.46 
	C 3547.38 -3247.83 3577.82 -3184.67 3648.86 -3184.67 
	C 3704.67 -3184.67 3750.34 -3235.2 3750.34 -3293.3 
	C 3750.34 -3338.42 3731.69 -3376.42 3650.92 -3428.76 
	Z 
	"/>
</g>
<g fill="#7f7f7f" fill-rule="nonzero" stroke-width="0" stroke-linejoin="miter" stroke-linecap="butt" stroke-miterlimit="4" >
	<path d="
	M 1216.41 -3096.25 
	L 1114.62 -3341.3 
	L 1012.83 -3096.25 
	L 903.398 -3096.25 
	L 1061.18 -3470.15 
	L 913.578 -3816.25 
	L 1023.01 -3816.25 
	L 1114.62 -3598.99 
	L 1206.23 -3816.25 
	L 1315.66 -3816.25 
	L 1170.6 -3470.15 
	L 1328.38 -3096.25 
	Z 
	"/>
</g>
</g >
</g>
</svg>
