<?xml version="1.0" encoding="UTF-8"?>
<svg id="For_Sheets" xmlns="http://www.w3.org/2000/svg" version="1.1" viewBox="0 0 2592 3456">
  <!-- Generator: Adobe Illustrator 29.1.0, SVG Export Plug-In . SVG Version: 2.1.0 Build 142)  -->
  <defs>
    <style>
      .st0 {
        fill: #231f20;
      }

      .st1 {
        fill: #fff;
      }
    </style>
  </defs>
  <g>
    <path class="st1" d="M162,3456.1c-43.1,0-83.8-16.9-114.5-47.6-30.7-30.7-47.6-71.4-47.6-114.5V162C-.1,118.9,16.8,78.2,47.5,47.5,78.2,16.8,118.9-.1,162-.1h2268c43.1,0,83.8,16.9,114.5,47.6,30.7,30.7,47.6,71.4,47.6,114.5v3132c0,43.1-16.9,83.8-47.6,114.5s-71.4,47.6-114.5,47.6H162Z"/>
    <path class="st0" d="M2430,0c89.1,0,162,72.9,162,162v3132c0,89.1-72.9,162-162,162H162c-89.1,0-162-72.9-162-162V162C0,72.9,72.9,0,162,0h2268M2430-.2H162c-21.8,0-43,4.3-63,12.8-19.3,8.2-36.7,19.9-51.6,34.9-14.9,14.9-26.7,32.3-34.9,51.6C4.1,119-.2,140.2-.2,162v3132c0,21.8,4.3,43,12.8,63,8.2,19.3,19.9,36.7,34.9,51.6,14.9,14.9,32.3,26.7,51.6,34.9,20,8.5,41.2,12.8,63,12.8h2268c21.8,0,43-4.3,63-12.8,19.3-8.2,36.7-19.9,51.6-34.9,14.9-14.9,26.7-32.3,34.9-51.6,8.5-20,12.8-41.2,12.8-63V162c0-21.8-4.3-43-12.8-63-8.2-19.3-19.9-36.7-34.9-51.6-14.9-14.9-32.3-26.7-51.6-34.9-20-8.5-41.2-12.8-63-12.8h0Z"/>
  </g>
  <g>
    <path class="st0" d="M162,3411c-64.5,0-117-52.5-117-117V162c0-64.5,52.5-117,117-117h2268c64.5,0,117,52.5,117,117v3132c0,64.5-52.5,117-117,117H162Z"/>
    <path class="st1" d="M162,3348c-29.8,0-54-24.2-54-54V162c0-29.8,24.2-54,54-54h2268c29.8,0,54,24.2,54,54v3132c0,29.8-24.2,54-54,54H162Z"/>
  </g>
  <g>
    <path class="st0" d="M344.4,430.1c0,78.3,32.8,123.7,87.1,123.7s50.5-11.4,82.1-45.5l56.8,30.3c-26.5,50.5-80.9,79.6-139,79.6-94.7,0-152.8-75.1-152.8-186.9s58.2-185.6,152.8-185.6,111.2,29,139,79.5l-56.8,30.3c-12.5-21.8-43.9-45.5-82.1-45.5-65.7,0-87.1,64.4-87.1,120Z"/>
    <path class="st0" d="M653.3,252h263.6v64.4h-197.7v66.9h107.7v65.7h-107.7v98.5h204.1v64.4h-270V252Z"/>
    <path class="st0" d="M1058.7,364.4v247.6h-63.4V252h63.4l166.3,237.5v-237.5h62.1v360h-55.8l-172.5-247.6Z"/>
    <path class="st0" d="M1514.8,612h-63.1v-296.8h-103.5v-63.2h270v63.2h-103.5v296.8Z"/>
    <path class="st0" d="M1679.5,252h263.6v64.4h-197.7v66.9h107.7v65.7h-107.7v98.5h204.1v64.4h-270V252Z"/>
    <path class="st0" d="M2247.6,457.9l65.7,154.1h-72l-58.1-141.5h-97.3v141.5h-64.4V252h170.2c74.4,0,114,58.8,114,109.9s-21.5,75.8-58.1,96ZM2086,316.4v89.6h103.7c31.5,0,51.7-18.1,51.7-44.2s-20.2-45.5-51.8-45.5h-103.6Z"/>
  </g>
  <g>
    <path class="st0" d="M604.6,720h64.7v304.4h205.3v55.6h-270v-360Z"/>
    <path class="st0" d="M1166,995.4h-156.6l-35.4,84.6h-70.7l151.6-360h65.7l150.2,360h-69.5l-35.3-84.6ZM1037.2,931h101l-50.5-121.3-50.5,121.3Z"/>
    <path class="st0" d="M1395.5,832.4v247.6h-63.4v-360h63.4l166.3,237.5v-237.5h62.1v360h-55.8l-172.5-247.6Z"/>
    <path class="st0" d="M1717.4,720h263.6v64.4h-197.7v66.9h107.7v65.7h-107.7v98.5h204.1v64.4h-270v-360Z"/>
  </g>
  <g>
    <path class="st0" d="M577.5,3023.4c0-114.9,58.2-185.6,153.2-185.6s149.4,74,149.4,184.4-57.8,188.1-149.4,188.1-153.2-96.6-153.2-186.9ZM643.3,3023.4c0,77,32.9,122.5,87.3,122.5s84.8-67,84.8-122.5-31.4-121.3-84.8-121.3-87.3,45.5-87.3,121.3Z"/>
    <path class="st0" d="M1026.3,2956.4v247.6h-63.4v-360h63.4l166.3,237.5v-237.5h62.1v360h-55.8l-172.5-247.6Z"/>
    <path class="st0" d="M1348.3,2844h64.7v304.4h205.3v55.6h-270v-360Z"/>
    <path class="st0" d="M1863,3204h-64.4v-146.5l-151.6-213.5h79.6l104.8,146.5,103.5-146.5h79.6l-151.5,213.5v146.5Z"/>
  </g>
  <rect class="st0" x="432" y="1156.5" width="1728" height="63"/>
  <g>
    <path class="st0" d="M1931.4,2289.7l-183.7-49c-79.6-21.7-154.8-56-223.5-101.9-68.5-45.8-128.9-102.1-179.7-167.3l-.8-1.1c-50.1-66-88.9-139.1-115.5-217.3-26.7-78.7-40.3-160.5-40.3-243.1v-216.3h216v216.3c0,58.9,9.7,117.3,28.8,173.6,19,55.9,46.8,108.3,82.6,155.7,36.4,46.7,79.7,87,128.8,119.8,49.2,32.9,103.1,57.5,160.1,73l182.8,48.8-55.7,208.7Z"/>
    <path class="st0" d="M1815.6,2397.4c-1.8,3-3.1,6.1-4,9.4-5.1,19.2,6.3,38.9,25.5,44.1,6.8,1.8,14.2,1.7,21.3-.8l470.4-166-325.1-378.4c-4.9-5.7-11.2-9.5-18-11.3-19.2-5.1-38.9,6.3-44.1,25.5-.9,3.2-1.3,6.6-1.2,10.1l5.8,251.9-130.6,215.5Z"/>
  </g>
  <g>
    <path class="st0" d="M660.6,1740l183.7,49c79.6,21.7,154.8,56,223.5,101.9,68.5,45.8,128.9,102.1,179.7,167.3l.8,1.1c50.1,66,88.9,139.1,115.5,217.3,26.7,78.7,40.3,160.5,40.3,243.1v216.3h-216v-216.3c0-58.9-9.7-117.3-28.8-173.6-19-55.9-46.8-108.3-82.6-155.7-36.4-46.7-79.7-87-128.8-119.8-49.2-32.9-103.1-57.5-160.1-73l-182.8-48.8,55.7-208.7Z"/>
    <path class="st0" d="M776.4,1632.3c1.8-3,3.1-6.1,4-9.4,5.1-19.2-6.3-38.9-25.5-44.1-6.8-1.8-14.2-1.7-21.3.8l-470.4,166,325.1,378.4c4.9,5.7,11.2,9.5,18,11.3,19.2,5.1,38.9-6.3,44.1-25.5.9-3.2,1.3-6.6,1.2-10.1l-5.8-251.9,130.6-215.5Z"/>
  </g>
</svg>