<?xml version="1.0" standalone="no"?>
<svg width="3456px" height="4752px" viewBox="0 -3960 3456 4752 " xmlns="http://www.w3.org/2000/svg" xmlns:xlink="http://www.w3.org/1999/xlink">
<title>generated by pstoedit</title>
<!-- generated by pstoedit version:4.02 -->
<g xml:space='preserve'>
<clipPath id="clippath1"> 	<path d="
	M 0 -3960.5 
	L 0 792 
	L 3456.5 792 
	L 3456.5 -3960.5 
	Z 
	" style="clip-rule:nonzero"/>
</clipPath>
<g style="clip-path:url(#clippath1)"> 
<g fill="#ffffff" fill-rule="nonzero" stroke-width="0" stroke-linejoin="miter" stroke-linecap="butt" stroke-miterlimit="10" >
	<path d="
	M 3456.25 575.75 
	C 3456.25 695.039 3359.54 791.75 3240.25 791.75 
	L 216.25 791.75 
	C 96.957 791.75 0.25 695.039 0.25 575.75 
	L 0.25 -3744.25 
	C 0.25 -3863.54 96.957 -3960.25 216.25 -3960.25 
	L 3240.25 -3960.25 
	C 3359.54 -3960.25 3456.25 -3863.54 3456.25 -3744.25 
	Z 
	"/>
</g>
<g stroke="#7f7f7f" fill="none" stroke-width="0.5" stroke-linejoin="miter" stroke-linecap="butt" stroke-miterlimit="4" >
	<path d="
	M 3456.25 575.75 
	C 3456.25 695.039 3359.54 791.75 3240.25 791.75 
	L 216.25 791.75 
	C 96.957 791.75 0.25 695.039 0.25 575.75 
	L 0.25 -3744.25 
	C 0.25 -3863.54 96.957 -3960.25 216.25 -3960.25 
	L 3240.25 -3960.25 
	C 3359.54 -3960.25 3456.25 -3863.54 3456.25 -3744.25 
	Z 
	"/>
</g>
<g fill="#7f7f7f" fill-rule="nonzero" stroke-width="0" stroke-linejoin="miter" stroke-linecap="butt" stroke-miterlimit="4" >
	<path d="
	M 3312.25 575.75 
	C 3312.25 615.449 3279.95 647.75 3240.25 647.75 
	L 216.25 647.75 
	C 176.551 647.75 144.25 615.449 144.25 575.75 
	L 144.25 -3744.25 
	C 144.25 -3783.95 176.551 -3816.25 216.25 -3816.25 
	L 3240.25 -3816.25 
	C 3279.95 -3816.25 3312.25 -3783.95 3312.25 -3744.25 
	Z 
	M 3240.25 -3906.25 
	L 216.25 -3906.25 
	C 126.922 -3906.25 54.25 -3833.58 54.25 -3744.25 
	L 54.25 575.75 
	C 54.25 665.082 126.922 737.75 216.25 737.75 
	L 3240.25 737.75 
	C 3329.58 737.75 3402.25 665.082 3402.25 575.75 
	L 3402.25 -3744.25 
	C 3402.25 -3833.58 3329.58 -3906.25 3240.25 -3906.25 
	Z 
	"/>
</g>
<g fill="#7f7f7f" fill-rule="nonzero" stroke-width="0" stroke-linejoin="miter" stroke-linecap="butt" stroke-miterlimit="4" >
	<path d="
	M 1566.62 -792.25 
	L 1346.31 -1182.31 
	L 1346.31 -792.25 
	L 1255.35 -792.25 
	L 1255.35 -1368.25 
	L 1346.31 -1368.25 
	L 1556.51 -1000.41 
	L 1556.51 -1368.25 
	L 1647.46 -1368.25 
	L 1647.46 -792.25 
	Z 
	"/>
</g>
<g fill="#7f7f7f" fill-rule="nonzero" stroke-width="0" stroke-linejoin="miter" stroke-linecap="butt" stroke-miterlimit="4" >
	<path d="
	M 2599.74 -827.31 
	C 2567.4 -799.02 2522.93 -782.85 2474.43 -782.85 
	C 2375.39 -782.85 2302.63 -841.46 2264.22 -928.36 
	L 2351.13 -960.7 
	C 2375.39 -906.13 2419.85 -875.82 2474.43 -875.82 
	C 2526.98 -875.82 2563.36 -912.2 2563.36 -960.7 
	C 2563.36 -1037.5 2474.43 -1049.62 2399.64 -1079.94 
	C 2365.28 -1094.09 2288.48 -1128.45 2288.48 -1223.44 
	C 2288.48 -1336.62 2365.28 -1379.06 2468.36 -1379.06 
	C 2549.21 -1379.06 2603.78 -1332.57 2632.08 -1261.84 
	L 2551.23 -1237.59 
	C 2551.23 -1237.59 2531.02 -1286.09 2466.34 -1288.11 
	C 2423.89 -1290.13 2373.36 -1273.96 2377.41 -1221.41 
	C 2385.49 -1114.3 2656.33 -1185.04 2656.33 -958.68 
	C 2656.33 -906.13 2636.12 -859.65 2599.74 -827.31 
	Z 
	"/>
</g>
<g fill="#7f7f7f" fill-rule="nonzero" stroke-width="0" stroke-linejoin="miter" stroke-linecap="butt" stroke-miterlimit="4" >
	<path d="
	M 2038.36 -1253.05 
	C 2024.21 -1267.2 2004 -1277.3 1979.74 -1277.3 
	L 1876.66 -1277.3 
	L 1876.66 -885.21 
	L 1967.62 -885.21 
	C 1997.94 -885.21 2016.12 -891.28 2032.29 -907.45 
	C 2066.66 -941.8 2084.84 -1004.46 2084.84 -1081.26 
	C 2084.84 -1158.06 2066.66 -1222.73 2038.36 -1253.05 
	Z 
	M 2076.76 -824.58 
	C 2054.53 -804.37 2024.21 -794.27 1993.89 -792.25 
	C 1987.83 -792.25 1975.7 -792.25 1961.55 -792.25 
	L 1785.71 -792.25 
	L 1785.71 -1368.25 
	L 1971.66 -1368.25 
	C 2030.27 -1368.25 2052.51 -1362.19 2082.82 -1337.93 
	C 2143.46 -1285.38 2177.82 -1194.44 2177.82 -1081.26 
	C 2177.82 -966.06 2141.44 -875.11 2076.76 -824.58 
	Z 
	"/>
</g>
<g fill="#7f7f7f" fill-rule="nonzero" stroke-width="0" stroke-linejoin="miter" stroke-linecap="butt" stroke-miterlimit="4" >
	<path d="
	M 800.168 -792.25 
	L 800.168 -1368.25 
	L 1139.26 -1368.25 
	L 1139.26 -1277.3 
	L 890.996 -1277.3 
	L 890.996 -1135.82 
	L 1058.53 -1135.82 
	L 1058.53 -1042.86 
	L 890.996 -1042.86 
	L 890.996 -885.21 
	L 1157.43 -885.21 
	L 1157.43 -792.25 
	Z 
	"/>
</g>
<g fill="#7f7f7f" fill-rule="nonzero" stroke-width="0" stroke-linejoin="miter" stroke-linecap="butt" stroke-miterlimit="4" >
	<path d="
	M 377.023 -2808.25 
	L 377.023 -3384.25 
	L 648.629 -3384.25 
	L 648.629 -3303.41 
	L 460.125 -3303.41 
	L 460.125 -3157.89 
	L 579.715 -3157.89 
	L 579.715 -3079.07 
	L 460.125 -3079.07 
	L 460.125 -2889.09 
	L 670.926 -2889.09 
	L 670.926 -2808.25 
	Z 
	"/>
</g>
<g fill="#7f7f7f" fill-rule="nonzero" stroke-width="0" stroke-linejoin="miter" stroke-linecap="butt" stroke-miterlimit="4" >
	<path d="
	M 2001.92 -2808.25 
	L 2001.92 -3384.25 
	L 2273.53 -3384.25 
	L 2273.53 -3303.41 
	L 2085.03 -3303.41 
	L 2085.03 -3157.89 
	L 2204.62 -3157.89 
	L 2204.62 -3079.07 
	L 2085.03 -3079.07 
	L 2085.03 -2889.09 
	L 2295.83 -2889.09 
	L 2295.83 -2808.25 
	Z 
	"/>
</g>
<g fill="#7f7f7f" fill-rule="nonzero" stroke-width="0" stroke-linejoin="miter" stroke-linecap="butt" stroke-miterlimit="4" >
	<path d="
	M 1310.79 -3303.41 
	L 1226.08 -3303.41 
	L 1226.08 -3139.7 
	L 1310.79 -3139.7 
	C 1359.2 -3139.7 1385.42 -3170.02 1385.42 -3222.56 
	C 1385.42 -3271.07 1355.17 -3303.41 1310.79 -3303.41 
	Z 
	M 1314.83 -3060.88 
	L 1226.08 -3060.88 
	L 1226.08 -2808.25 
	L 1143.39 -2808.25 
	L 1143.39 -3384.25 
	L 1314.83 -3384.25 
	C 1405.59 -3384.25 1466.1 -3319.57 1466.1 -3222.56 
	C 1466.1 -3117.47 1411.64 -3060.88 1314.83 -3060.88 
	Z 
	"/>
</g>
<g fill="#7f7f7f" fill-rule="nonzero" stroke-width="0" stroke-linejoin="miter" stroke-linecap="butt" stroke-miterlimit="4" >
	<path d="
	M 1748.7 -3303.41 
	L 1663.99 -3303.41 
	L 1663.99 -3157.89 
	L 1748.7 -3157.89 
	C 1797.11 -3157.89 1823.33 -3184.16 1823.33 -3230.65 
	C 1823.33 -3275.11 1793.08 -3303.41 1748.7 -3303.41 
	Z 
	M 1819.29 -2808.25 
	L 1742.65 -3079.07 
	L 1663.99 -3079.07 
	L 1663.99 -2808.25 
	L 1581.3 -2808.25 
	L 1581.3 -3384.25 
	L 1752.74 -3384.25 
	C 1843.5 -3384.25 1904 -3323.62 1904 -3230.65 
	C 1904 -3161.93 1875.77 -3111.41 1821.31 -3091.2 
	L 1904 -2808.25 
	Z 
	"/>
</g>
<g fill="#7f7f7f" fill-rule="nonzero" stroke-width="0" stroke-linejoin="miter" stroke-linecap="butt" stroke-miterlimit="4" >
	<path d="
	M 2920.79 -3074.25 
	C 2895.86 -3090.4 2871.67 -3106.6 2856.22 -3117.47 
	C 2809.78 -3150.16 2785.18 -3194.27 2785.18 -3244.8 
	C 2785.18 -3327.66 2850.13 -3394.36 2933.34 -3394.36 
	C 3014.53 -3394.36 3077.44 -3331.7 3079.48 -3244.8 
	L 3000.32 -3244.8 
	C 2998.29 -3285.22 2969.88 -3311.49 2933.34 -3311.49 
	C 2894.78 -3311.49 2864.34 -3283.2 2864.34 -3244.8 
	C 2864.34 -3216.5 2876.52 -3200.33 2919.14 -3176.08 
	C 3030.76 -3111.41 3079.48 -3048.75 3079.48 -2965.89 
	C 3079.48 -2872.92 3008.44 -2798.14 2919.14 -2798.14 
	C 2817.66 -2798.14 2756.77 -2883.03 2756.77 -2978.02 
	L 2837.95 -2978.02 
	C 2837.95 -2929.51 2862.31 -2878.98 2919.14 -2878.98 
	C 2963.79 -2878.98 3000.32 -2919.41 3000.32 -2965.89 
	C 3000.32 -3001.98 2985.41 -3032.39 2920.79 -3074.25 
	Z 
	"/>
</g>
<g fill="#7f7f7f" fill-rule="nonzero" stroke-width="0" stroke-linejoin="miter" stroke-linecap="butt" stroke-miterlimit="4" >
	<path d="
	M 2528.96 -3074.25 
	C 2504.04 -3090.4 2479.84 -3106.6 2464.4 -3117.47 
	C 2417.96 -3150.16 2393.36 -3194.27 2393.36 -3244.8 
	C 2393.36 -3327.66 2458.31 -3394.36 2541.52 -3394.36 
	C 2622.71 -3394.36 2685.62 -3331.7 2687.65 -3244.8 
	L 2608.5 -3244.8 
	C 2606.47 -3285.22 2578.05 -3311.49 2541.52 -3311.49 
	C 2502.96 -3311.49 2472.51 -3283.2 2472.51 -3244.8 
	C 2472.51 -3216.5 2484.69 -3200.34 2527.32 -3176.08 
	C 2638.94 -3111.41 2687.65 -3048.75 2687.65 -2965.89 
	C 2687.65 -2872.92 2616.62 -2798.14 2527.32 -2798.14 
	C 2425.83 -2798.14 2364.95 -2883.03 2364.95 -2978.02 
	L 2446.13 -2978.02 
	C 2446.13 -2929.51 2470.49 -2878.99 2527.32 -2878.99 
	C 2571.97 -2878.99 2608.5 -2919.41 2608.5 -2965.89 
	C 2608.5 -3001.98 2593.58 -3032.39 2528.96 -3074.25 
	Z 
	"/>
</g>
<g fill="#7f7f7f" fill-rule="nonzero" stroke-width="0" stroke-linejoin="miter" stroke-linecap="butt" stroke-miterlimit="4" >
	<path d="
	M 973.18 -2808.25 
	L 891.742 -3004.29 
	L 810.313 -2808.25 
	L 722.77 -2808.25 
	L 848.988 -3107.37 
	L 730.91 -3384.25 
	L 818.453 -3384.25 
	L 891.742 -3210.44 
	L 965.035 -3384.25 
	L 1052.58 -3384.25 
	L 936.531 -3107.37 
	L 1062.75 -2808.25 
	Z 
	"/>
</g>
<g fill="#7f7f7f" fill-rule="nonzero" stroke-width="0" stroke-linejoin="miter" stroke-linecap="butt" stroke-miterlimit="4" >
	<path d="
	M 2737.84 215.75 
	L 2737.84 -360.25 
	L 3009.44 -360.25 
	L 3009.44 -279.4 
	L 2820.94 -279.4 
	L 2820.94 -133.891 
	L 2940.53 -133.891 
	L 2940.53 -55.07 
	L 2820.94 -55.07 
	L 2820.94 134.91 
	L 3031.74 134.91 
	L 3031.74 215.75 
	Z 
	"/>
</g>
<g fill="#7f7f7f" fill-rule="nonzero" stroke-width="0" stroke-linejoin="miter" stroke-linecap="butt" stroke-miterlimit="4" >
	<path d="
	M 2155.93 215.762 
	L 2155.93 -360.25 
	L 2236.57 -360.25 
	L 2236.57 215.762 
	Z 
	"/>
</g>
<g fill="#7f7f7f" fill-rule="nonzero" stroke-width="0" stroke-linejoin="miter" stroke-linecap="butt" stroke-miterlimit="4" >
	<path d="
	M 2363.29 215.762 
	L 2363.29 -360.25 
	L 2446.39 -360.25 
	L 2446.39 138.961 
	L 2657.2 138.961 
	L 2657.2 215.762 
	Z 
	"/>
</g>
<g fill="#7f7f7f" fill-rule="nonzero" stroke-width="0" stroke-linejoin="miter" stroke-linecap="butt" stroke-miterlimit="4" >
	<path d="
	M 1946.24 215.762 
	L 1946.24 -107.609 
	L 1838.98 215.762 
	L 1731.73 -107.609 
	L 1731.73 215.762 
	L 1648.76 215.762 
	L 1648.76 -360.25 
	L 1731.73 -360.25 
	L 1838.98 -36.879 
	L 1946.24 -360.25 
	L 2029.21 -360.25 
	L 2029.21 215.762 
	Z 
	"/>
</g>
<g fill="#7f7f7f" fill-rule="nonzero" stroke-width="0" stroke-linejoin="miter" stroke-linecap="butt" stroke-miterlimit="4" >
	<path d="
	M 1161.72 105.059 
	C 1124.95 130.762 1088.82 176.262 1067.54 234.461 
	C 1062.25 248.922 1059.42 258.711 1055.36 278.922 
	L 1288.76 278.922 
	L 1288.76 359.762 
	L 966.059 359.762 
	C 970.117 280.941 976.207 252.648 994.473 202.121 
	C 1018.83 141.492 1049.27 95.012 1087.83 58.629 
	C 1102.04 46.5 1114.22 36.391 1160.9 4.05902 
	C 1199.46 -22.211 1209.61 -36.359 1209.61 -64.66 
	C 1209.61 -109.121 1173.07 -145.5 1128.43 -145.5 
	C 1083.77 -145.5 1047.24 -109.121 1047.24 -64.66 
	L 966.059 -64.66 
	C 968.09 -155.602 1037.09 -226.34 1128.43 -226.34 
	C 1217.72 -226.34 1288.76 -153.578 1288.76 -64.66 
	C 1288.76 27.262 1233.7 54.762 1161.72 105.059 
	Z 
	"/>
</g>
<g fill="#7f7f7f" fill-rule="nonzero" stroke-width="0" stroke-linejoin="miter" stroke-linecap="butt" stroke-miterlimit="4" >
	<path d="
	M 988.391 -504.24 
	L 489.559 359.762 
	L 582.676 359.762 
	L 1081.51 -504.24 
	Z 
	"/>
</g>
<g fill="#7f7f7f" fill-rule="nonzero" stroke-width="0" stroke-linejoin="miter" stroke-linecap="butt" stroke-miterlimit="4" >
	<path d="
	M 461.664 71.762 
	L 461.664 -401.16 
	L 424.762 -401.16 
	L 424.762 -463.82 
	C 457.563 -465.83 478.063 -479.99 490.363 -504.24 
	L 545.719 -504.24 
	L 545.719 71.762 
	Z 
	"/>
</g>
<g fill="#7f7f7f" fill-rule="nonzero" stroke-width="0" stroke-linejoin="miter" stroke-linecap="butt" stroke-miterlimit="4" >
	<path d="
	M 2112.02 -1858.86 
	C 2099.42 -1817.08 2061.23 -1790.15 2010.45 -1790.15 
	C 1951.54 -1790.15 1914.98 -1814.4 1896.7 -1866.95 
	C 1880.45 -1915.45 1872.32 -1994.27 1872.32 -2087.24 
	C 1872.32 -2139.79 1878.41 -2216.59 1886.54 -2261.05 
	C 1902.79 -2349.98 1937.32 -2384.34 2006.39 -2384.34 
	C 2071.39 -2384.34 2114.05 -2343.92 2120.14 -2273.18 
	L 2044.98 -2273.18 
	C 2042.95 -2297.43 2028.73 -2309.56 2008.42 -2309.56 
	C 1982.01 -2309.56 1967.79 -2291.37 1959.67 -2252.97 
	C 1949.51 -2206.48 1947.48 -2164.04 1947.48 -2087.24 
	C 1947.48 -2006.4 1949.51 -1972.04 1959.67 -1923.54 
	C 1967.79 -1885.14 1982.01 -1864.92 2006.39 -1864.92 
	C 2032.79 -1864.92 2044.98 -1885.14 2044.98 -1935.66 
	L 2120.14 -1935.66 
	C 2120.14 -1891.2 2118.11 -1879.07 2112.02 -1858.86 
	Z 
	"/>
</g>
<g fill="#7f7f7f" fill-rule="nonzero" stroke-width="0" stroke-linejoin="miter" stroke-linecap="butt" stroke-miterlimit="4" >
	<path d="
	M 574.305 -1800.25 
	L 574.305 -2376.25 
	L 785.293 -2376.25 
	L 785.293 -2301.47 
	L 646.645 -2301.47 
	L 646.645 -2153.94 
	L 739.074 -2153.94 
	L 739.074 -2077.14 
	L 646.645 -2077.14 
	L 646.645 -1875.03 
	L 793.328 -1875.03 
	L 793.328 -1800.25 
	Z 
	"/>
</g>
<g fill="#7f7f7f" fill-rule="nonzero" stroke-width="0" stroke-linejoin="miter" stroke-linecap="butt" stroke-miterlimit="4" >
	<path d="
	M 1715.36 -1800.25 
	L 1715.36 -2376.25 
	L 1790.24 -2376.25 
	L 1790.24 -1800.25 
	Z 
	"/>
</g>
<g fill="#7f7f7f" fill-rule="nonzero" stroke-width="0" stroke-linejoin="miter" stroke-linecap="butt" stroke-miterlimit="4" >
	<path d="
	M 2447.17 -1800.25 
	L 2447.17 -2376.25 
	L 2522.05 -2376.25 
	L 2522.05 -1800.25 
	Z 
	"/>
</g>
<g fill="#7f7f7f" fill-rule="nonzero" stroke-width="0" stroke-linejoin="miter" stroke-linecap="butt" stroke-miterlimit="4" >
	<path d="
	M 3136.68 -1800.25 
	L 3023.85 -2141.81 
	L 3023.85 -1800.25 
	L 2951.31 -1800.25 
	L 2951.31 -2376.25 
	L 3023.85 -2376.25 
	L 3126.6 -2089.26 
	L 3126.6 -2376.25 
	L 3199.14 -2376.25 
	L 3199.14 -1800.25 
	Z 
	"/>
</g>
<g fill="#7f7f7f" fill-rule="nonzero" stroke-width="0" stroke-linejoin="miter" stroke-linecap="butt" stroke-miterlimit="4" >
	<path d="
	M 2736.72 -2309.56 
	C 2670.03 -2309.56 2679.11 -2129.68 2679.11 -2089.26 
	C 2679.11 -2050.86 2670.03 -1864.92 2736.72 -1864.92 
	C 2801.4 -1864.92 2792.31 -2050.86 2792.31 -2089.26 
	C 2792.31 -2135.75 2791.29 -2309.56 2736.72 -2309.56 
	Z 
	M 2736.72 -1790.15 
	C 2593.22 -1790.15 2604.33 -1994.27 2604.33 -2089.26 
	C 2604.33 -2188.29 2595.24 -2384.34 2736.72 -2384.34 
	C 2878.2 -2384.34 2869.12 -2186.27 2869.12 -2089.26 
	C 2869.12 -1994.27 2878.2 -1790.15 2736.72 -1790.15 
	Z 
	"/>
</g>
<g fill="#7f7f7f" fill-rule="nonzero" stroke-width="0" stroke-linejoin="miter" stroke-linecap="butt" stroke-miterlimit="4" >
	<path d="
	M 365.602 -2301.47 
	L 330.188 -2301.47 
	L 330.188 -2143.83 
	L 377.738 -2143.83 
	C 418.195 -2143.83 430.336 -2162.02 430.336 -2216.59 
	C 430.336 -2281.26 416.176 -2301.47 365.602 -2301.47 
	Z 
	M 444.496 -2087.24 
	L 503.16 -1800.25 
	L 428.313 -1800.25 
	L 363.578 -2069.05 
	L 330.188 -2069.05 
	L 330.188 -1800.25 
	L 257.359 -1800.25 
	L 257.359 -2376.25 
	L 369.645 -2376.25 
	C 458.656 -2376.25 505.184 -2321.68 505.184 -2214.57 
	C 505.184 -2149.89 486.977 -2113.51 444.496 -2087.24 
	Z 
	"/>
</g>
<g fill="#7f7f7f" fill-rule="nonzero" stroke-width="0" stroke-linejoin="miter" stroke-linecap="butt" stroke-miterlimit="4" >
	<path d="
	M 1506.66 -2301.47 
	L 1471.25 -2301.47 
	L 1471.25 -2143.83 
	L 1518.79 -2143.83 
	C 1559.25 -2143.83 1571.39 -2162.02 1571.39 -2216.59 
	C 1571.39 -2281.26 1557.23 -2301.47 1506.66 -2301.47 
	Z 
	M 1585.55 -2087.24 
	L 1644.22 -1800.25 
	L 1569.37 -1800.25 
	L 1504.63 -2069.05 
	L 1471.25 -2069.05 
	L 1471.25 -1800.25 
	L 1398.42 -1800.25 
	L 1398.42 -2376.25 
	L 1510.7 -2376.25 
	C 1599.71 -2376.25 1646.24 -2321.68 1646.24 -2214.57 
	C 1646.24 -2149.89 1628.03 -2113.51 1585.55 -2087.24 
	Z 
	"/>
</g>
<g fill="#7f7f7f" fill-rule="nonzero" stroke-width="0" stroke-linejoin="miter" stroke-linecap="butt" stroke-miterlimit="4" >
	<path d="
	M 1056.03 -2048.84 
	C 1072.66 -2013.15 1084.35 -1963.96 1084.35 -1923.54 
	C 1084.35 -1883.11 1066.15 -1840.67 1037.82 -1816.42 
	C 1019.62 -1800.25 993.82 -1790.15 963.477 -1790.15 
	C 882.559 -1790.15 840.574 -1842.69 836.527 -1943.75 
	L 911.379 -1943.75 
	C 911.379 -1921.51 913.398 -1913.43 917.445 -1901.3 
	C 923.516 -1879.07 941.223 -1864.92 963.477 -1864.92 
	C 991.797 -1864.92 1009.5 -1887.16 1009.5 -1923.54 
	C 1009.5 -1974.06 991.797 -2016.5 947.293 -2069.05 
	C 920.992 -2099.37 903.285 -2121.6 897.219 -2129.68 
	C 864.852 -2168.08 850.688 -2208.5 850.688 -2248.92 
	C 850.688 -2327.75 898.738 -2384.34 967.52 -2384.34 
	C 1038.32 -2384.34 1076.26 -2339.87 1084.35 -2248.92 
	L 1009.5 -2248.92 
	C 1007.48 -2293.39 995.84 -2311.58 969.543 -2311.58 
	C 941.223 -2311.58 925.539 -2287.33 925.539 -2248.92 
	C 925.539 -2222.65 935.152 -2202.44 965.5 -2170.1 
	C 1028.21 -2099.37 1038.85 -2085.72 1056.03 -2048.84 
	Z 
	"/>
</g>
<g fill="#7f7f7f" fill-rule="nonzero" stroke-width="0" stroke-linejoin="miter" stroke-linecap="butt" stroke-miterlimit="4" >
	<path d="
	M 1262.74 -2301.47 
	L 1262.74 -1800.25 
	L 1190.07 -1800.25 
	L 1190.07 -2301.47 
	L 1118.91 -2301.47 
	L 1118.91 -2376.25 
	L 1337.94 -2376.25 
	L 1337.94 -2301.47 
	Z 
	"/>
</g>
<g fill="#7f7f7f" fill-rule="nonzero" stroke-width="0" stroke-linejoin="miter" stroke-linecap="butt" stroke-miterlimit="4" >
	<path d="
	M 2311.5 -2301.47 
	L 2311.5 -1800.25 
	L 2238.82 -1800.25 
	L 2238.82 -2301.47 
	L 2167.66 -2301.47 
	L 2167.66 -2376.25 
	L 2386.69 -2376.25 
	L 2386.69 -2301.47 
	Z 
	"/>
</g>
</g >
</g>
</svg>
