<?xml version="1.0" encoding="UTF-8"?>
<svg id="For_Sheets" xmlns="http://www.w3.org/2000/svg" version="1.1" viewBox="0 0 5184 4320">
  <!-- Generator: Adobe Illustrator 29.1.0, SVG Export Plug-In . SVG Version: 2.1.0 Build 142)  -->
  <defs>
    <style>
      .st0 {
        fill: #231f20;
      }

      .st1 {
        fill: #fff;
      }
    </style>
  </defs>
  <g>
    <path class="st1" d="M216,4320.1c-57.7,0-112-22.5-152.8-63.3-40.8-40.8-63.3-95.1-63.3-152.8V216C-.1,158.3,22.4,104,63.2,63.2S158.3-.1,216-.1h4752c57.7,0,112,22.5,152.8,63.3,40.8,40.8,63.3,95.1,63.3,152.8v3888c0,57.7-22.5,112-63.3,152.8-40.8,40.8-95.1,63.3-152.8,63.3H216Z"/>
    <path class="st0" d="M4968,0c119.3,0,216,96.7,216,216v3888c0,119.3-96.7,216-216,216H216c-119.3,0-216-96.7-216-216V216C0,96.7,96.7,0,216,0h4752M4968-.2H216c-29.2,0-57.5,5.7-84.2,17-25.8,10.9-48.9,26.5-68.7,46.3-19.9,19.9-35.5,43-46.3,68.7C5.5,158.5-.2,186.8-.2,216v3888c0,29.2,5.7,57.5,17,84.2,10.9,25.8,26.5,48.9,46.3,68.7,19.9,19.9,43,35.5,68.7,46.3,26.7,11.3,55,17,84.2,17h4752c29.2,0,57.5-5.7,84.2-17,25.8-10.9,48.9-26.5,68.7-46.3,19.9-19.9,35.5-43,46.3-68.7,11.3-26.7,17-55,17-84.2V216c0-29.2-5.7-57.5-17-84.2-10.9-25.8-26.5-48.9-46.3-68.7-19.9-19.9-43-35.5-68.7-46.3-26.7-11.3-55-17-84.2-17h0Z"/>
  </g>
  <rect class="st0" x="54" y="54" width="5076" height="4212" rx="162" ry="162"/>
  <rect class="st1" x="144" y="144" width="4896" height="4032" rx="72" ry="72"/>
  <g>
    <path class="st0" d="M1734.4,1341v-720h272.9c113.7,0,199.5,78.3,199.5,181.9s-32.8,123.8-101,161.7c75.8,35.4,118.7,96.7,118.7,174.2s-28.9,202.1-217.2,202.1h-272.9ZM2014.8,734.7h-166.9v176.8h144.7c64.6,0,100.4-56.3,100.4-103.6s-26.5-73.3-78.3-73.3ZM1848,1027.7v197.1h171.8c58.5,0,88.5-27.8,88.5-83.4s-38.5-113.7-97.4-113.7h-162.9Z"/>
    <path class="st0" d="M2346.9,1083.3v-462.3h113.6v462.3c0,93.5,53.1,154.1,131.4,154.1s131.4-60.6,131.4-154.1v-462.3h113.8v462.3c0,227.7-174.7,270.3-245.1,270.3s-245.1-37.7-245.1-270.3Z"/>
    <path class="st0" d="M2959.5,1171.7l108.6-40.4c30.3,68.2,85.9,106.1,154.1,106.1s111.2-45.4,111.2-106.1c0-96.3-111.1-111.1-204.6-149-42.9-17.7-139-60.7-139-179.4s95.9-194.4,224.8-194.4,169.3,58.1,204.6,146.5l-101.1,30.3c-11.3-28.4-52.5-63.2-106.1-63.2-102.7,0-111.4,54.8-111.4,72.8,0,67.3,58,80.6,152.5,110.2,96.1,30.2,196.5,74.4,196.5,228.8s-126,219.6-227.4,219.6-214.7-73.3-262.7-181.9Z"/>
  </g>
  <g>
    <path class="st0" d="M1432.2,1800h113.6v613.9h333v106.1h-446.6v-720Z"/>
    <path class="st0" d="M2341.2,2317.9h-226.1l-71.2,202.1h-121.9l249-720h114.4l248.9,720h-121.9l-71.2-202.1ZM2155.8,2201.7h144.8l-71.2-202.1-73.6,202.1Z"/>
    <path class="st0" d="M2755.9,2032.5v487.5h-113.6v-720h113.6l262.8,459.8v-459.8h113.8v720h-101.1l-275.5-487.5Z"/>
    <path class="st0" d="M3305.3,1800h423.9v113.7h-310.3v176.9h209.4v116.2h-209.4v197.1h333v116.2h-446.6v-720Z"/>
  </g>
  <g>
    <path class="st0" d="M1431.9,2979h423.9v113.7h-310.3v176.8h209.4v116.2h-209.4v197.1h333v116.2h-446.6v-720Z"/>
    <path class="st0" d="M2114.5,3211.5v487.5h-113.6v-720h113.6l262.8,459.8v-459.8h113.8v720h-101.1l-275.5-487.5Z"/>
    <path class="st0" d="M2663.8,3699v-720h259.7c181.7,0,230.4,239.3,230.4,343.8,0,270.1-138.9,376.2-229.9,376.2h-260.2ZM2906.3,3092.7h-128.9v490h120.9c104.8,0,139.1-126.9,139.1-262.4s-18.4-227.6-131.1-227.6Z"/>
    <path class="st0" d="M3262,3529.7l108.6-40.4c30.3,68.2,85.9,106.1,154.1,106.1s111.2-45.5,111.2-106.1c0-96.3-111.1-111.1-204.7-149-42.9-17.7-139-60.7-139-179.4s95.9-194.4,224.8-194.4,169.3,58.1,204.7,146.5l-101.1,30.3c-11.3-28.4-52.5-63.2-106.1-63.2-102.7,0-111.4,54.8-111.4,72.8,0,67.3,58,80.6,152.5,110.2,96.1,30.2,196.5,74.4,196.5,228.8s-126,219.6-227.4,219.6-214.7-73.3-262.7-181.9Z"/>
  </g>
</svg>