<?xml version="1.0" encoding="UTF-8" standalone="no"?>
<!-- Created with Inkscape (http://www.inkscape.org/) -->

<svg
   version="1.1"
   id="svg1"
   width="7488.6665"
   height="3456.6667"
   viewBox="0 0 7488.6665 3456.6667"
   sodipodi:docname="tmposoclaod.pdf"
   xmlns:inkscape="http://www.inkscape.org/namespaces/inkscape"
   xmlns:sodipodi="http://sodipodi.sourceforge.net/DTD/sodipodi-0.dtd"
   xmlns="http://www.w3.org/2000/svg"
   xmlns:svg="http://www.w3.org/2000/svg">
  <defs
     id="defs1" />
  <sodipodi:namedview
     id="namedview1"
     pagecolor="#ffffff"
     bordercolor="#000000"
     borderopacity="0.25"
     inkscape:showpageshadow="2"
     inkscape:pageopacity="0.0"
     inkscape:pagecheckerboard="0"
     inkscape:deskcolor="#d1d1d1">
    <inkscape:page
       x="0"
       y="0"
       inkscape:label="1"
       id="page1"
       width="7488.6665"
       height="3456.6667"
       margin="0"
       bleed="0" />
  </sodipodi:namedview>
  <g
     id="g1"
     inkscape:groupmode="layer"
     inkscape:label="1">
    <g
       id="group-R5">
      <path
         id="path2"
         d="m 56162.5,1622.5 c 0,-894.699 -725.3,-1620 -1620,-1620 H 1622.5 C 727.805,2.5 2.5,727.801 2.5,1622.5 v 22680 c 0,894.7 725.305,1620 1620.01,1620 H 54542.5 c 894.7,0 1620,-725.3 1620,-1620 v -22680"
         style="fill:#ffffff;fill-opacity:1;fill-rule:nonzero;stroke:none"
         transform="matrix(0.13333333,0,0,-0.13333333,0,3456.6667)" />
      <path
         id="path3"
         d="m 56162.5,1622.5 c 0,-894.699 -725.3,-1620 -1620,-1620 H 1622.5 C 727.805,2.5 2.5,727.801 2.5,1622.5 v 22680 c 0,894.7 725.305,1620 1620.01,1620 H 54542.5 c 894.7,0 1620,-725.3 1620,-1620 z"
         style="fill:none;stroke:#231f20;stroke-width:5;stroke-linecap:butt;stroke-linejoin:miter;stroke-miterlimit:4;stroke-dasharray:none;stroke-opacity:1"
         transform="matrix(0.13333333,0,0,-0.13333333,0,3456.6667)" />
      <path
         id="path4"
         d="m 1622.5,452.5 c -645.137,0 -1170,524.902 -1170,1170 v 22680 c 0,645.1 524.863,1170 1170,1170 h 52920 c 645.1,0 1170,-524.9 1170,-1170 v -22680 c 0,-645.098 -524.9,-1170 -1170,-1170 h -52920"
         style="fill:#231f20;fill-opacity:1;fill-rule:nonzero;stroke:none"
         transform="matrix(0.13333333,0,0,-0.13333333,0,3456.6667)" />
      <path
         id="path5"
         d="m 1622.5,1082.5 c -297.75,0 -540,242.3 -540,540 v 22680 c 0,297.8 242.25,540 540,540 h 52920 c 297.7,0 540,-242.2 540,-540 v -22680 c 0,-297.7 -242.3,-540 -540,-540 h -52920"
         style="fill:#ffffff;fill-opacity:1;fill-rule:nonzero;stroke:none"
         transform="matrix(0.13333333,0,0,-0.13333333,0,3456.6667)" />
      <path
         id="path6"
         d="m 44795.2,15122.5 -2203.1,3900.6 v -3900.6 h -909.5 v 5760 h 909.5 l 2102,-3678.4 v 3678.4 h 909.6 v -5760 h -808.5"
         style="fill:#231f20;fill-opacity:1;fill-rule:nonzero;stroke:none"
         transform="matrix(0.13333333,0,0,-0.13333333,0,3456.6667)" />
      <path
         id="path7"
         d="m 10506.6,15122.5 v 5760 h 921.6 v -5760 h -921.6"
         style="fill:#231f20;fill-opacity:1;fill-rule:nonzero;stroke:none"
         transform="matrix(0.13333333,0,0,-0.13333333,0,3456.6667)" />
      <path
         id="path8"
         d="m 32001.4,15122.5 v 5760 h 908.3 V 15971.3 H 35574 v -848.8 h -3572.6"
         style="fill:#231f20;fill-opacity:1;fill-rule:nonzero;stroke:none"
         transform="matrix(0.13333333,0,0,-0.13333333,0,3456.6667)" />
      <path
         id="path9"
         d="m 24901.7,20074.1 v -4951.6 h -913.4 v 4951.6 h -1319.5 v 808.4 h 3572.6 v -808.4 h -1339.7"
         style="fill:#231f20;fill-opacity:1;fill-rule:nonzero;stroke:none"
         transform="matrix(0.13333333,0,0,-0.13333333,0,3456.6667)" />
      <path
         id="path10"
         d="m 8132.71,19871.9 c -141.44,80.9 -222.3,101.1 -525.48,101.1 H 6515.78 v -1414.7 h 1091.45 c 282.98,0 384.04,20.2 525.48,101 222.39,121.3 363.87,363.8 363.87,606.3 0,242.6 -141.48,485.1 -363.87,606.3 z m 404.26,-4749.4 -929.74,2506.1 H 6515.78 v -2506.1 h -909.51 v 5760 h 1899.88 c 444.69,0 747.87,-40.4 1030.82,-181.9 505.32,-242.5 869.12,-848.8 869.12,-1435 0,-606.3 -363.8,-1212.6 -889.31,-1455.1 l 1010.62,-2688 h -990.43"
         style="fill:#231f20;fill-opacity:1;fill-rule:nonzero;stroke:none"
         transform="matrix(0.13333333,0,0,-0.13333333,0,3456.6667)" />
      <path
         id="path11"
         d="m 20895.3,15122.5 v 2506.1 h -2102.1 v -2506.1 h -909.5 v 5760 h 909.5 v -2324.2 h 2102.1 v 2324.2 h 909.5 v -5760 h -909.5"
         style="fill:#231f20;fill-opacity:1;fill-rule:nonzero;stroke:none"
         transform="matrix(0.13333333,0,0,-0.13333333,0,3456.6667)" />
      <path
         id="path12"
         d="m 46986.1,15122.5 v 5760 h 3391 V 19973 h -2482.7 v -1414.7 h 1675.3 v -929.7 h -1675.3 v -1576.4 h 2664.3 v -929.7 h -3572.6"
         style="fill:#231f20;fill-opacity:1;fill-rule:nonzero;stroke:none"
         transform="matrix(0.13333333,0,0,-0.13333333,0,3456.6667)" />
      <path
         id="path13"
         d="M 38379.3,19285.9 37789.8,17669 h 1158.7 z m 1463.5,-4163.4 -569.1,1616.8 h -1809.1 l -569.2,-1616.8 h -975.7 l 1992,5760 h 914.8 l 1992,-5760 h -975.7"
         style="fill:#231f20;fill-opacity:1;fill-rule:nonzero;stroke:none"
         transform="matrix(0.13333333,0,0,-0.13333333,0,3456.6667)" />
      <path
         id="path14"
         d="m 14797.4,15021.4 c -869.1,0 -1374.4,323.4 -1718,1051 -242.5,505.2 -384,1212.6 -384,1920 0,929.7 262.7,1839.1 646.7,2344.4 343.7,424.4 828.8,646.7 1475.6,646.7 889.3,0 1414.8,-363.8 1798.8,-1273.2 l -869.1,-343.6 c -242.6,505.3 -485.1,687.2 -929.7,687.2 -464.9,0 -768.1,-202.1 -970.2,-707.4 -141.5,-343.6 -222.4,-869.1 -222.4,-1354.1 0,-606.3 101.1,-1212.7 283,-1576.5 181.9,-323.3 444.7,-464.8 788.3,-464.8 586.1,0 1010.6,363.8 1010.6,889.3 v 242.5 h -1051.1 v 909.5 h 1960.6 v -1152 c 0,-1051 -768,-1819 -1819.1,-1819"
         style="fill:#231f20;fill-opacity:1;fill-rule:nonzero;stroke:none"
         transform="matrix(0.13333333,0,0,-0.13333333,0,3456.6667)" />
      <path
         id="path15"
         d="m 42174.4,5042.5 v 5760 h 921.6 v -5760 h -921.6"
         style="fill:#231f20;fill-opacity:1;fill-rule:nonzero;stroke:none"
         transform="matrix(0.13333333,0,0,-0.13333333,0,3456.6667)" />
      <path
         id="path16"
         d="M 12216.8,5042.5 V 8377.2 L 10880.3,5042.5 9543.73,8377.2 V 5042.5 h -911.29 v 5760 h 911.29 l 1336.57,-3233.7 1336.5,3233.7 h 911.3 v -5760 h -911.3"
         style="fill:#231f20;fill-opacity:1;fill-rule:nonzero;stroke:none"
         transform="matrix(0.13333333,0,0,-0.13333333,0,3456.6667)" />
      <path
         id="path17"
         d="m 18169,5911.5 c -303.2,-565.9 -990.4,-970.1 -1697.8,-970.1 -707.5,0 -1394.7,404.2 -1697.9,970.1 -161.6,343.6 -262.7,747.8 -262.7,1192.4 v 3698.6 h 909.5 V 7103.9 c 0,-747.8 424.5,-1232.8 1051.1,-1232.8 626.5,0 1051,485 1051,1232.8 v 3698.6 h 909.5 V 7103.9 c 0,-444.6 -101.1,-848.8 -262.7,-1192.4"
         style="fill:#231f20;fill-opacity:1;fill-rule:nonzero;stroke:none"
         transform="matrix(0.13333333,0,0,-0.13333333,0,3456.6667)" />
      <path
         id="path18"
         d="M 26025.7,9994 V 5042.5 h -913.4 V 9994 h -1319.5 v 808.5 h 3572.6 V 9994 h -1339.7"
         style="fill:#231f20;fill-opacity:1;fill-rule:nonzero;stroke:none"
         transform="matrix(0.13333333,0,0,-0.13333333,0,3456.6667)" />
      <path
         id="path19"
         d="M 46192.8,9994.1 V 5042.5 h -913.4 v 4951.6 h -1319.5 v 808.4 h 3572.7 v -808.4 h -1339.8"
         style="fill:#231f20;fill-opacity:1;fill-rule:nonzero;stroke:none"
         transform="matrix(0.13333333,0,0,-0.13333333,0,3456.6667)" />
      <path
         id="path20"
         d="m 22766.1,5393.1 c -323.4,-282.9 -768.1,-444.6 -1253.1,-444.6 -990.4,0 -1718,586.1 -2102.1,1455.1 L 20280,6727 c 242.6,-545.7 687.2,-848.8 1233,-848.8 525.5,0 889.3,363.8 889.3,848.8 0,768 -889.3,889.2 -1637.2,1192.4 -343.6,141.5 -1111.6,485.1 -1111.6,1435 0,1131.8 768,1556.2 1798.8,1556.2 808.5,0 1354.2,-464.9 1637.2,-1172.2 L 22281,9495.9 c 0,0 -202.1,485 -848.9,505.2 -424.4,20.2 -929.8,-141.5 -889.3,-667 80.9,-1071.1 2789.2,-363.7 2789.2,-2627.3 0,-525.5 -202.1,-990.3 -565.9,-1313.7"
         style="fill:#231f20;fill-opacity:1;fill-rule:nonzero;stroke:none"
         transform="matrix(0.13333333,0,0,-0.13333333,0,3456.6667)" />
      <path
         id="path21"
         d="m 40164.4,5042.5 -929.8,1920 -929.7,-1920 h -1030.8 l 1435,2970.9 -1334,2789.1 h 1030.8 l 828.7,-1717.9 828.7,1717.9 h 1030.8 L 39739.9,8013.4 41195.2,5042.5 h -1030.8"
         style="fill:#231f20;fill-opacity:1;fill-rule:nonzero;stroke:none"
         transform="matrix(0.13333333,0,0,-0.13333333,0,3456.6667)" />
      <path
         id="path22"
         d="m 33125.4,5042.5 v 5760 h 3391 V 9893 H 34033.7 V 8478.2 h 1675.4 V 7548.6 H 34033.7 V 5972.1 h 2664.4 v -929.6 h -3572.7"
         style="fill:#231f20;fill-opacity:1;fill-rule:nonzero;stroke:none"
         transform="matrix(0.13333333,0,0,-0.13333333,0,3456.6667)" />
    </g>
  </g>
</svg>
