<?xml version="1.0" encoding="UTF-8" standalone="no"?>
<!-- Created with Inkscape (http://www.inkscape.org/) -->

<svg
   version="1.1"
   id="svg1"
   width="2304.6667"
   height="2304.6667"
   viewBox="0 0 2304.6667 2304.6667"
   sodipodi:docname="tmpx6pf02a0.pdf"
   xmlns:inkscape="http://www.inkscape.org/namespaces/inkscape"
   xmlns:sodipodi="http://sodipodi.sourceforge.net/DTD/sodipodi-0.dtd"
   xmlns="http://www.w3.org/2000/svg"
   xmlns:svg="http://www.w3.org/2000/svg">
  <defs
     id="defs1" />
  <sodipodi:namedview
     id="namedview1"
     pagecolor="#ffffff"
     bordercolor="#000000"
     borderopacity="0.25"
     inkscape:showpageshadow="2"
     inkscape:pageopacity="0.0"
     inkscape:pagecheckerboard="0"
     inkscape:deskcolor="#d1d1d1">
    <inkscape:page
       x="0"
       y="0"
       inkscape:label="1"
       id="page1"
       width="2304.6667"
       height="2304.6667"
       margin="0"
       bleed="0" />
  </sodipodi:namedview>
  <g
     id="g1"
     inkscape:groupmode="layer"
     inkscape:label="1">
    <g
       id="group-R5">
      <path
         id="path2"
         d="M 1082.5,1.19922 C 486.293,1.19922 1.25,486.301 1.25,1082.5 v 15120 c 0,596.2 485.043,1081.3 1081.25,1081.3 h 15120 c 596.2,0 1081.3,-485.1 1081.3,-1081.3 V 1082.5 C 17283.8,486.301 16798.7,1.19922 16202.5,1.19922 h -15120"
         style="fill:#ffffff;fill-opacity:1;fill-rule:nonzero;stroke:none"
         transform="matrix(0.13333333,0,0,-0.13333333,0,2304.6667)" />
      <path
         id="path3"
         d="m 16202.5,17285 h -15120 c -289.148,0 -560.988,-112.6 -765.441,-317.1 C 112.602,16763.5 0,16491.6 0,16202.5 V 1082.5 C 0,793.402 112.602,521.5 317.059,317.102 521.512,112.602 793.355,0 1082.5,0 h 15120 c 289.1,0 561,112.602 765.4,317.102 204.5,204.398 317.1,476.3 317.1,765.398 v 15120 c 0,289.1 -112.6,561 -317.1,765.4 -204.4,204.5 -476.3,317.1 -765.4,317.1 z m 0,-2.5 c 596.5,0 1080,-483.5 1080,-1080 V 1082.5 C 17282.5,486 16799,2.5 16202.5,2.5 H 1082.5 C 486.031,2.5 2.5,486 2.5,1082.5 v 15120 c 0,596.5 483.531,1080 1080,1080 h 15120"
         style="fill:#231f20;fill-opacity:1;fill-rule:nonzero;stroke:none"
         transform="matrix(0.13333333,0,0,-0.13333333,0,2304.6667)" />
      <path
         id="path4"
         d="m 16202.5,722.5 c 198.5,0 360,161.5 360,360 v 15120 c 0,198.5 -161.5,360 -360,360 h -15120 c -198.508,0 -360,-161.5 -360,-360 v -15120 c 0,-198.5 161.492,-360 360,-360 z m -15120,-450 c -446.637,0 -810,363.402 -810,810 v 15120 c 0,446.6 363.363,810 810,810 h 15120 c 446.6,0 810,-363.4 810,-810 v -15120 c 0,-446.598 -363.4,-810 -810,-810 h -15120"
         style="fill:#231f20;fill-opacity:1;fill-rule:nonzero;stroke:none"
         transform="matrix(0.13333333,0,0,-0.13333333,0,2304.6667)" />
      <path
         id="path5"
         d="m 9553.54,2882.5 h -1822.5 v 8472.7 h 1822.5 V 2882.5"
         style="fill:#231f20;fill-opacity:1;fill-rule:nonzero;stroke:none"
         transform="matrix(0.13333333,0,0,-0.13333333,0,2304.6667)" />
      <path
         id="path6"
         d="m 6601.31,10645.9 c -28.35,-8.2 -56.93,-12.1 -85.05,-12.2 -167.75,0 -303.76,136.1 -303.76,303.8 -0.05,59.2 17.14,119 53.09,171.6 l 2376.91,3473.4 2376.9,-3473.4 c 36,-52.6 53.2,-112.4 53.1,-171.6 0,-167.7 -136,-303.8 -303.8,-303.8 -28.1,0.1 -56.7,4 -85,12.2 l -2041.2,595.4 -2041.19,-595.4"
         style="fill:#231f20;fill-opacity:1;fill-rule:nonzero;stroke:none"
         transform="matrix(0.13333333,0,0,-0.13333333,0,2304.6667)" />
      <path
         id="path7"
         d="m 13449.2,4854 -8595.16,8595.2 c 1042.05,822.4 2357.92,1313.3 3788.46,1313.3 3380,0 6120,-2740 6120,-6120 0,-1430.5 -490.9,-2746.4 -1313.3,-3788.5 z M 8642.5,2522.5 c -3379.98,0 -6120,2740 -6120,6120 0,1430.5 490.87,2746.4 1313.31,3788.5 L 12431,3835.8 C 11388.9,3013.4 10073,2522.5 8642.5,2522.5 Z m 0,13680 c -4175.27,0 -7560,-3384.7 -7560,-7560 0,-4175.3 3384.73,-7560 7560,-7560 4175.3,0 7560,3384.7 7560,7560 0,4175.3 -3384.7,7560 -7560,7560"
         style="fill:#bf2519;fill-opacity:1;fill-rule:nonzero;stroke:none"
         transform="matrix(0.13333333,0,0,-0.13333333,0,2304.6667)" />
    </g>
  </g>
</svg>
