<?xml version="1.0" encoding="UTF-8" standalone="no"?>
<!-- Created with Inkscape (http://www.inkscape.org/) -->

<svg
   version="1.1"
   id="svg1"
   width="2304.6667"
   height="1152.6667"
   viewBox="0 0 2304.6667 1152.6667"
   sodipodi:docname="tmpgfy0wztz.pdf"
   xmlns:inkscape="http://www.inkscape.org/namespaces/inkscape"
   xmlns:sodipodi="http://sodipodi.sourceforge.net/DTD/sodipodi-0.dtd"
   xmlns="http://www.w3.org/2000/svg"
   xmlns:svg="http://www.w3.org/2000/svg">
  <defs
     id="defs1" />
  <sodipodi:namedview
     id="namedview1"
     pagecolor="#ffffff"
     bordercolor="#000000"
     borderopacity="0.25"
     inkscape:showpageshadow="2"
     inkscape:pageopacity="0.0"
     inkscape:pagecheckerboard="0"
     inkscape:deskcolor="#d1d1d1">
    <inkscape:page
       x="0"
       y="0"
       inkscape:label="1"
       id="page1"
       width="2304.6667"
       height="1152.6667"
       margin="0"
       bleed="0" />
  </sodipodi:namedview>
  <g
     id="g1"
     inkscape:groupmode="layer"
     inkscape:label="1">
    <g
       id="group-R5">
      <path
         id="path2"
         d="M 1352.5,1.25 C 993.063,1.25 654.141,142.219 398.18,398.18 142.219,654.141 1.25,993.063 1.25,1352.5 v 5940 c 0,359.44 140.969,698.36 396.93,954.32 255.961,255.97 594.883,396.93 954.32,396.93 h 14580 c 359.4,0 698.4,-140.96 954.3,-396.93 256,-255.96 397,-594.88 397,-954.32 v -5940 c 0,-359.437 -141,-698.359 -397,-954.32 C 16630.9,142.219 16291.9,1.25 15932.5,1.25 h -14580"
         style="fill:#ffffff;fill-opacity:1;fill-rule:nonzero;stroke:none"
         transform="matrix(0.13333333,0,0,-0.13333333,0,1152.6667)" />
      <path
         id="path3"
         d="M 15932.5,8645 H 1352.5 C 992.727,8645 653.492,8503.91 397.297,8247.7 141.098,7991.51 0,7652.27 0,7292.5 v -5940 C 0,992.73 141.098,653.492 397.297,397.301 653.492,141.102 992.727,0 1352.5,0 h 14580 c 359.8,0 699,141.102 955.2,397.301 256.2,256.191 397.3,595.429 397.3,955.199 v 5940 c 0,359.77 -141.1,699.01 -397.3,955.2 -256.2,256.21 -595.4,397.3 -955.2,397.3 z m 0,-2.5 c 742.5,0 1350,-607.5 1350,-1350 v -5940 C 17282.5,610 16675,2.5 15932.5,2.5 H 1352.5 C 610,2.5 2.5,610 2.5,1352.5 v 5940 c 0,742.5 607.5,1350 1350,1350 h 14580"
         style="fill:#231f20;fill-opacity:1;fill-rule:nonzero;stroke:none"
         transform="matrix(0.13333333,0,0,-0.13333333,0,1152.6667)" />
      <path
         id="path4"
         d="M 1352.5,362.5 C 1089.55,362.5 841.352,465.891 653.617,653.621 465.891,841.352 362.5,1089.55 362.5,1352.5 v 5940 c 0,262.95 103.391,511.15 291.117,698.88 187.735,187.73 435.933,291.12 698.883,291.12 h 14580 c 263,0 511.2,-103.39 698.9,-291.12 187.7,-187.73 291.1,-435.93 291.1,-698.88 v -5940 c 0,-262.95 -103.4,-511.148 -291.1,-698.879 C 16443.7,465.891 16195.5,362.5 15932.5,362.5 h -14580"
         style="fill:#231f20;fill-opacity:1;fill-rule:nonzero;stroke:none"
         transform="matrix(0.13333333,0,0,-0.13333333,0,1152.6667)" />
      <path
         id="path5"
         d="m 1352.5,902.5 c -120.43,0 -230.06,45.98 -317.05,132.96 -86.973,86.98 -132.95,196.61 -132.95,317.04 v 5940 c 0,120.43 45.977,230.06 132.96,317.05 86.98,86.97 196.61,132.95 317.04,132.95 h 14580 c 120.4,0 230.1,-45.97 317,-132.95 87,-86.99 133,-196.62 133,-317.05 v -5940 c 0,-120.43 -46,-230.06 -133,-317.05 -86.9,-86.981 -196.6,-132.95 -317,-132.95 h -14580"
         style="fill:#ffffff;fill-opacity:1;fill-rule:nonzero;stroke:none"
         transform="matrix(0.13333333,0,0,-0.13333333,0,1152.6667)" />
      <path
         id="path6"
         d="M 3291.47,4135.67 H 2239.95 V 2882.51 h -454.3 V 5762.5 h 454.3 V 4600.43 H 3291.11 V 5762.5 h 455.02 V 2882.51 h -454.66 v 1253.16"
         style="fill:#231f20;fill-opacity:1;fill-rule:nonzero;stroke:none"
         transform="matrix(0.13333333,0,0,-0.13333333,0,1152.6667)" />
      <path
         id="path7"
         d="M 7713.1,2882.51 6800.53,5762.5 h 476.62 l 618.46,-1919.87 608.38,1919.87 h 486.7 L 8068.04,2882.51 H 7713.1"
         style="fill:#231f20;fill-opacity:1;fill-rule:nonzero;stroke:none"
         transform="matrix(0.13333333,0,0,-0.13333333,0,1152.6667)" />
      <path
         id="path8"
         d="m 5407.97,3296.51 c 310.32,0 562.32,294.12 562.32,1026 0,731.87 -252,1025.99 -562.32,1025.99 -310.32,0 -562.32,-293.76 -562.32,-1025.99 0,-731.88 252,-1026 562.32,-1026 z m 1018.08,1026 c 0,-103.32 21.96,-1490.4 -1023.12,-1490.4 -1045.07,0 -1023.12,1387.08 -1023.12,1490.4 0,103.32 -21.95,1490.03 1023.12,1490.03 1045.08,0 1023.12,-1386.71 1023.12,-1490.03"
         style="fill:#231f20;fill-opacity:1;fill-rule:nonzero;stroke:none"
         transform="matrix(0.13333333,0,0,-0.13333333,0,1152.6667)" />
      <path
         id="path9"
         d="m 11336.4,3347.27 h 1414.9 v -464.76 h -1960.7 c 10.1,333.36 80.3,606.96 242.7,879.12 505.4,844.55 1263.3,759.96 1263.3,1202.39 0,212.04 -242,384.12 -525.7,384.12 -293,0 -475.2,-141.48 -525.6,-404.28 l -454.7,101.16 c 101.2,474.84 474.9,767.88 980,767.88 546.1,0 979.9,-384.12 979.9,-858.96 0,-344.52 -197.6,-563.75 -454.3,-723.23 -387.7,-241.2 -744.2,-347.77 -959.8,-883.44"
         style="fill:#231f20;fill-opacity:1;fill-rule:nonzero;stroke:none"
         transform="matrix(0.13333333,0,0,-0.13333333,0,1152.6667)" />
      <path
         id="path10"
         d="m 14644.4,3242.51 h -450 v 855 h -855.1 v 450 h 855.1 v 854.99 h 450 v -854.99 h 855 v -450 h -855 v -855"
         style="fill:#231f20;fill-opacity:1;fill-rule:nonzero;stroke:none"
         transform="matrix(0.13333333,0,0,-0.13333333,0,1152.6667)" />
    </g>
  </g>
</svg>
