<?xml version="1.0" standalone="no"?>
<svg width="2592px" height="2592px" viewBox="0 -1800 2592 2592 " xmlns="http://www.w3.org/2000/svg" xmlns:xlink="http://www.w3.org/1999/xlink">
<title>generated by pstoedit</title>
<!-- generated by pstoedit version:4.02 -->
<g xml:space='preserve'>
<clipPath id="clippath1"> 	<path d="
	M 0 -1800.5 
	L 0 792 
	L 2592.5 792 
	L 2592.5 -1800.5 
	Z 
	" style="clip-rule:nonzero"/>
</clipPath>
<g style="clip-path:url(#clippath1)"> 
<g fill="#ffffff" fill-rule="nonzero" stroke-width="0" stroke-linejoin="miter" stroke-linecap="butt" stroke-miterlimit="10" >
	<path d="
	M 2592.25 629.75 
	C 2592.25 719.219 2519.72 791.75 2430.25 791.75 
	L 162.25 791.75 
	C 72.7813 791.75 0.25 719.219 0.25 629.75 
	L 0.25 -1638.25 
	C 0.25 -1727.72 72.7813 -1800.25 162.25 -1800.25 
	L 2430.25 -1800.25 
	C 2519.72 -1800.25 2592.25 -1727.72 2592.25 -1638.25 
	Z 
	"/>
</g>
<g stroke="#7f7f7f" fill="none" stroke-width="0.5" stroke-linejoin="miter" stroke-linecap="butt" stroke-miterlimit="4" >
	<path d="
	M 2592.25 629.75 
	C 2592.25 719.219 2519.72 791.75 2430.25 791.75 
	L 162.25 791.75 
	C 72.7813 791.75 0.25 719.219 0.25 629.75 
	L 0.25 -1638.25 
	C 0.25 -1727.72 72.7813 -1800.25 162.25 -1800.25 
	L 2430.25 -1800.25 
	C 2519.72 -1800.25 2592.25 -1727.72 2592.25 -1638.25 
	Z 
	"/>
</g>
<g fill="#7f7f7f" fill-rule="nonzero" stroke-width="0" stroke-linejoin="miter" stroke-linecap="butt" stroke-miterlimit="4" >
	<path d="
	M 2484.25 629.75 
	C 2484.25 659.52 2460.03 683.75 2430.25 683.75 
	L 1377.25 683.75 
	L 1377.25 -504.25 
	L 1314.25 -504.25 
	L 1314.25 683.75 
	L 162.25 683.75 
	C 132.477 683.75 108.25 659.52 108.25 629.75 
	L 108.25 -1638.25 
	C 108.25 -1668.03 132.477 -1692.25 162.25 -1692.25 
	L 2430.25 -1692.25 
	C 2460.03 -1692.25 2484.25 -1668.02 2484.25 -1638.25 
	Z 
	M 2430.25 -1755.25 
	L 162.25 -1755.25 
	C 97.7383 -1755.25 45.25 -1702.76 45.25 -1638.25 
	L 45.25 629.75 
	C 45.25 694.262 97.7383 746.75 162.25 746.75 
	L 2430.25 746.75 
	C 2494.76 746.75 2547.25 694.262 2547.25 629.75 
	L 2547.25 -1638.25 
	C 2547.25 -1702.76 2494.76 -1755.25 2430.25 -1755.25 
	Z 
	"/>
</g>
<g fill="#7f7f7f" fill-rule="nonzero" stroke-width="0" stroke-linejoin="miter" stroke-linecap="butt" stroke-miterlimit="4" >
	<path d="
	M 1125.25 -417.73 
	C 1124.83 -484.09 1113.67 -549.97 1092.19 -612.73 
	L 1092.14 -612.73 
	C 1070.65 -675.39 1039.08 -734.24 998.594 -786.97 
	C 969.816 -824.45 947.41 -866.41 932.172 -911.17 
	C 916.992 -955.87 909.25 -1002.85 909.25 -1050.07 
	L 909.254 -1309.33 
	L 994.152 -1282.45 
	C 1005.85 -1278.73 1018.63 -1282.81 1025.95 -1292.71 
	C 1033.27 -1302.61 1033.51 -1316.05 1026.55 -1326.19 
	L 837.25 -1602.19 
	L 647.891 -1326.19 
	C 640.934 -1316.05 641.172 -1302.61 648.492 -1292.71 
	C 655.871 -1282.87 668.652 -1278.73 680.352 -1282.45 
	L 765.254 -1309.33 
	L 765.254 -1050.07 
	C 765.254 -1023.07 767.172 -996.07 770.949 -969.31 
	C 690.191 -1006.81 602.23 -1026.19 513.25 -1026.19 
	L 473.063 -1026.19 
	L 500 -1111.09 
	C 503.723 -1122.79 499.578 -1135.63 489.738 -1142.95 
	C 479.84 -1150.27 466.398 -1150.51 456.262 -1143.55 
	L 180.262 -954.19 
	L 456.262 -764.89 
	C 466.398 -757.93 479.84 -758.17 489.738 -765.49 
	C 499.578 -772.81 503.723 -785.59 500 -797.35 
	L 473.063 -882.19 
	L 513.25 -882.19 
	C 600.133 -882.19 685.332 -858.01 759.313 -812.29 
	C 833.23 -766.63 892.934 -701.23 931.813 -623.53 
	L 931.883 -623.51 
	C 970.695 -545.75 987.191 -458.76 979.332 -372.19 
	C 971.531 -285.67 939.793 -202.988 887.652 -133.449 
	C 848.188 -80.82 817.449 -22.211 796.691 40.191 
	C 775.871 102.59 765.254 167.988 765.254 233.75 
	L 765.254 449.75 
	L 909.254 449.75 
	L 909.254 233.75 
	C 909.254 183.469 917.352 133.488 933.254 85.73 
	C 949.152 38.031 972.656 -6.80103 1002.85 -47.051 
	C 1042.69 -100.148 1073.59 -159.371 1094.41 -222.37 
	C 1115.17 -285.37 1125.61 -351.37 1125.25 -417.73 
	Z 
	"/>
</g>
<g fill="#7f7f7f" fill-rule="nonzero" stroke-width="0" stroke-linejoin="miter" stroke-linecap="butt" stroke-miterlimit="4" >
	<path d="
	M 693.254 -414.25 
	C 693.254 -314.84 612.664 -234.25 513.254 -234.25 
	C 413.84 -234.25 333.254 -314.84 333.254 -414.25 
	C 333.254 -513.66 413.84 -594.25 513.254 -594.25 
	C 612.664 -594.25 693.254 -513.66 693.254 -414.25 
	Z 
	"/>
</g>
<g fill="#7f7f7f" fill-rule="nonzero" stroke-width="0" stroke-linejoin="miter" stroke-linecap="butt" stroke-miterlimit="4" >
	<path d="
	M 2163.13 -348.55 
	C 2164.39 -336.31 2173.21 -326.23 2185.21 -323.41 
	C 2197.21 -320.65 2209.63 -325.75 2216.17 -336.19 
	L 2394.19 -619.57 
	L 2065.69 -683.65 
	C 2053.57 -685.99 2041.39 -680.47 2035.21 -669.79 
	C 2029.09 -659.17 2030.35 -645.79 2038.45 -636.49 
	L 2096.89 -569.29 
	L 2021.95 -536.83 
	L 2014.33 -533.53 
	C 1971.85 -514.45 1932.31 -489.31 1897.03 -458.95 
	C 1861.69 -428.59 1830.91 -393.37 1805.65 -354.25 
	C 1780.33 -315.13 1760.83 -272.59 1747.63 -227.95 
	C 1734.43 -183.25 1727.77 -136.93 1727.77 -90.371 
	L 1727.71 188.75 
	L 1871.71 188.75 
	L 1871.77 -90.371 
	C 1871.77 -155.891 1890.61 -220.03 1926.01 -275.17 
	C 1961.41 -330.31 2011.93 -374.11 2071.51 -401.35 
	C 2073.56 -402.29 2076.67 -403.69 2078.77 -404.59 
	L 2154.07 -437.17 
	Z 
	"/>
</g>
<g fill="#7f7f7f" fill-rule="nonzero" stroke-width="0" stroke-linejoin="miter" stroke-linecap="butt" stroke-miterlimit="4" >
	<path d="
	M 1870.33 575.75 
	L 1760.17 380.719 
	L 1760.17 575.75 
	L 1714.69 575.75 
	L 1714.69 287.75 
	L 1760.17 287.75 
	L 1865.27 471.672 
	L 1865.27 287.75 
	L 1910.75 287.75 
	L 1910.75 575.75 
	Z 
	"/>
</g>
<g fill="#7f7f7f" fill-rule="nonzero" stroke-width="0" stroke-linejoin="miter" stroke-linecap="butt" stroke-miterlimit="4" >
	<path d="
	M 1607.54 351.41 
	C 1598.42 336.25 1587.28 330.191 1570.06 329.18 
	C 1547.77 328.172 1533.59 339.289 1523.46 364.551 
	C 1516.37 381.73 1512.32 408 1512.32 432.25 
	C 1512.32 462.57 1518.39 493.898 1529.54 512.09 
	C 1538.66 527.238 1550.81 534.32 1569.04 534.32 
	C 1590.32 534.32 1603.49 523.199 1613.62 497.941 
	C 1619.69 482.781 1624.76 454.488 1624.76 432.25 
	C 1624.76 399.922 1618.68 370.609 1607.54 351.41 
	Z 
	M 1638.94 548.461 
	C 1622.73 570.699 1599.43 580.801 1569.04 580.801 
	C 1528.52 580.801 1503.2 564.629 1485.98 529.27 
	C 1473.82 505.012 1465.72 466.609 1465.72 432.25 
	C 1465.72 384.762 1477.87 342.32 1497.12 315.031 
	C 1514.34 292.801 1537.64 282.699 1571.07 282.699 
	C 1607.54 282.699 1632.86 298.871 1651.1 334.23 
	C 1663.25 359.5 1670.34 395.879 1670.34 432.25 
	C 1670.34 477.73 1659.2 523.199 1638.94 548.461 
	Z 
	"/>
</g>
<g fill="#7f7f7f" fill-rule="nonzero" stroke-width="0" stroke-linejoin="miter" stroke-linecap="butt" stroke-miterlimit="4" >
	<path d="
	M 2297.14 450.441 
	L 2297.14 575.75 
	L 2251.43 575.75 
	L 2251.43 450.441 
	L 2149.86 287.75 
	L 2204.71 287.75 
	L 2273.78 398.91 
	L 2343.86 287.75 
	L 2397.69 287.75 
	Z 
	"/>
</g>
<g fill="#7f7f7f" fill-rule="nonzero" stroke-width="0" stroke-linejoin="miter" stroke-linecap="butt" stroke-miterlimit="4" >
	<path d="
	M 1959.13 575.75 
	L 1959.13 287.75 
	L 2004.55 287.75 
	L 2004.55 533.309 
	L 2137.77 533.309 
	L 2137.77 575.75 
	Z 
	"/>
</g>
</g >
</g>
</svg>
