<?xml version="1.0" encoding="UTF-8"?>
<svg id="For_Sheets" xmlns="http://www.w3.org/2000/svg" version="1.1" viewBox="0 0 2592 2592">
  <!-- Generator: Adobe Illustrator 29.1.0, SVG Export Plug-In . SVG Version: 2.1.0 Build 142)  -->
  <defs>
    <style>
      .st0 {
        fill: #231f20;
      }

      .st1 {
        fill: #6d276a;
      }

      .st2 {
        fill: #fff;
      }

      .st3 {
        fill: #6abd45;
      }
    </style>
  </defs>
  <g>
    <rect class="st2" x="-.1" y="-.1" width="2592.2" height="2592.2" rx="162.1" ry="162.1"/>
    <path class="st0" d="M2430,0c89.5,0,162,72.5,162,162v2268c0,89.5-72.5,162-162,162H162c-89.5,0-162-72.5-162-162V162C0,72.5,72.5,0,162,0h2268M2430-.2H162C118.7-.2,77.9,16.6,47.3,47.3,16.6,77.9-.2,118.7-.2,162v2268c0,43.3,16.9,84.1,47.5,114.7,30.6,30.6,71.4,47.5,114.7,47.5h2268c43.3,0,84.1-16.9,114.7-47.5,30.6-30.6,47.5-71.4,47.5-114.7V162c0-43.3-16.9-84.1-47.5-114.7-30.6-30.6-71.4-47.5-114.7-47.5h0Z"/>
  </g>
  <rect class="st1" x="54" y="54" width="2484" height="2484" rx="108" ry="108"/>
  <rect class="st2" x="216" y="288" width="2160" height="1080"/>
  <rect class="st2" x="324" y="1656" width="1944" height="648" rx="54" ry="54"/>
  <g>
    <polygon class="st1" points="2170.9 1064.2 1047.7 1064.2 1050.7 1051.5 2173.8 1051.5 2170.9 1064.2"/>
    <polygon class="st1" points="883.3 1099.6 787.9 1099.6 790.9 1086.7 886.3 1086.7 883.3 1099.6"/>
    <polygon class="st1" points="1203.2 1099.6 1107.9 1099.6 1110.7 1086.7 1206.2 1086.7 1203.2 1099.6"/>
    <polygon class="st1" points="1523.3 1099.6 1427.6 1099.6 1430.6 1086.7 1526.1 1086.7 1523.3 1099.6"/>
    <polygon class="st1" points="1843 1099.6 1747.5 1099.6 1750.3 1086.7 1846 1086.7 1843 1099.6"/>
    <polygon class="st1" points="2162.9 1099.6 2067.3 1099.6 2070.3 1086.7 2165.8 1086.7 2162.9 1099.6"/>
    <polygon class="st1" points="2154.9 1134.8 676.6 1134.8 679.5 1122 2157.7 1122 2154.9 1134.8"/>
    <polygon class="st0" points="382.2 624.6 360 720.5 533.9 720.5 438.4 1134.8 550 1134.8 645.6 720.5 933.8 720.5 955.9 624.6 382.2 624.6"/>
    <path class="st0" d="M884.8,775.7c-20.8-26.2-55.9-40.7-98.7-40.7-63.4,0-145.5,34.4-167.8,131.2-11.8,51.1,2.6,82.9,16.6,100.5,20.8,26.2,55.9,40.7,98.7,40.7,63.6,0,145.6-34.4,167.6-131.2,11.8-50.9-2.4-82.7-16.5-100.5ZM744.7,915.1c-6.5,0-15-.9-18.6-5.4-4.3-5.5-4.7-18-1.1-33.5,11.1-48.9,40.4-48.9,50.1-48.9s14.9.9,18.5,5.5c4.3,5.4,4.7,17.9,1.1,33.4-11.2,48.9-40.4,48.9-50,48.9Z"/>
    <polygon class="st0" points="983.1 521.2 858.6 1064.2 965.7 1064.2 1090.3 521.2 983.1 521.2"/>
    <polygon class="st0" points="1105.8 521.2 981.2 1064.2 1088.3 1064.2 1213.1 521.2 1105.8 521.2"/>
    <path class="st0" d="M2230.6,832.1c4.1-26.8-1.1-49-15.5-65.7-18.2-21.2-49.4-31.5-95.2-31.5-83,0-123.3,46.4-133.1,89.7-4.5,19.5-2.1,36.6,7.2,50.9,3.1,4.9,6.9,9.1,11.1,12.7h-30.7c-1.2-8.2-4.1-15.8-8.6-22.8-3.6-5.6-8.1-10.4-13.1-14.6h29.7l2.8-18.8c4.1-26.8-1.1-49-15.5-65.7-18.2-21.2-49.4-31.5-95.3-31.5-83.1,0-123.6,48.3-133.1,89.7-4.5,19.5-2,36.6,7.2,50.9,3.1,4.9,6.9,9.1,11.1,12.7h-35.6l14.5-63.4c6.5-28.1-2.4-46.7-10.8-57.5-22.4-28.2-65.9-32.3-89.8-32.3s-56.7.3-90.2,20.9c1.1-3.6,2.4-7.3,3.2-10.5,10.1-44.1-2.2-71.5-14.3-86.8-12.4-15.5-36.9-34-83.9-34h-162.4l-87.1,377.2h111.6l33.7-145.9h58.4c36.5,0,64.8-11,86.6-26.5l-8.6,25.7h21c-20.1,15-34,36.2-40,62.2-7.2,30.8,2.1,50.9,11.2,62.3,14.3,18,38.2,27.8,67.3,27.8s46.5-6,62.5-13.7l1,8.1h103.6l9.7-40.7c2.2,4,4.5,7.4,6.8,10.2,24.6,29.9,69.9,36.1,103.7,36.1,48.3,0,102.6-17,128.8-61.1,3,10.8,8.1,19,13,25,24.6,29.8,69.9,36,103.6,36,58.2,0,126.1-24.1,141.6-91.6,4.4-19.1,2-36-7.3-50.2-3.6-5.6-8.1-10.4-13.2-14.6h29.7l2.8-18.8ZM1442.4,732.7c-3.1,12.7-6.7,28.4-38.4,28.4h-33.5l9.5-41.8h35c22.8,0,27.9,4.1,28.1,4.1,0,.2.8,2.7-.7,9.3ZM1571.6,923.5c1.7-7.1,4.6-11.7,30.9-15.8,3.1-.4,5.9-.8,8.7-1.2-8.4,9.8-25,16.2-39.6,17ZM1709.8,952.5c.3-2.4.7-5.7,1.8-10.2l1.8-7.4c.9,8,2.9,14.9,5.5,20.8l-9.1-3.2ZM1843.3,920c-19,0-23.6-3.7-22.2-4.6l.3-1.3c5.5,1.2,11,2.3,16.4,3.2,3.6.7,7.7,1.5,11.9,2.4-1.9.2-4.1.3-6.3.3ZM2088.7,920c-19,0-23.7-3.7-22.3-4.8l.3-1.1c5.6,1.2,11.2,2.3,16.5,3.2,3.5.7,7.7,1.5,11.9,2.4-1.9.2-4.1.3-6.4.3Z"/>
    <path class="st2" d="M541.2,1123.7h-88.9l95.6-414.3h-174l17.1-73.8h550.9l-17,73.8h-288.1l-95.6,414.3h0Z"/>
    <path class="st2" d="M733.6,996.3c-39.3,0-71.3-12.9-90-36.5-18-22.7-23.1-54.1-14.5-91.1,20.9-90.6,97.7-122.6,157-122.6s71.3,12.9,90,36.5c18,22.6,23,54.1,14.4,91.1-20.6,90.5-97.4,122.6-156.9,122.6h0ZM775.1,816.2c-39.4,0-54.9,31.3-61,57.5-4.4,19.3-3.2,34.6,3.4,42.9,5.1,6.4,14.3,9.7,27.2,9.7,39.4,0,54.8-31.3,60.9-57.5,4.4-19.4,3.3-34.6-3.3-42.9-5-6.4-14.2-9.7-27.1-9.7h0Z"/>
    <path class="st2" d="M956.9,1053.1h-84.5l119.4-520.8h84.5l-119.4,520.8h0Z"/>
    <path class="st2" d="M1079.6,1053.1h-84.5l119.4-520.8h84.6l-119.6,520.8h0Z"/>
    <path class="st2" d="M1306,990.7h-88.9l82-355h153.6c33.6,0,59.6,10.3,75.2,29.8,15.3,19.2,19.5,46,12.2,77.4-8,35.3-46.3,101.9-133.2,101.9h-67.2l-33.7,145.9h0ZM1356.7,772.2h47.3c40.4,0,46-24.1,49.1-37,2-8.8,1.6-14.9-1.1-18.4-3.1-3.9-12-8.6-36.9-8.6h-43.8l-14.6,64h0Z"/>
    <path class="st2" d="M1544.4,996.3c-25.7,0-46.5-8.4-58.6-23.6-7.5-9.5-15.2-26.3-9.1-53,9.1-39.3,38.5-66.4,81.6-75.7h-58l4.8-14.6c24.7-73.9,83.9-83.3,132.9-83.3s61.6,3.6,81.1,28.2c10.2,12.8,13.1,29,8.7,48.1l-26.9,117.4c-3.9,16.9-1.8,20.7-1.8,20.8l9.4,3.2-5.8,26.9h-85.1l-1.2-9.7c-.3-1.8-.5-3.5-.6-5-16.3,10.3-39.2,20.3-71.4,20.3h0ZM1620,813.7c-23.9,0-30.4,12-34.6,23.1l-1.1,3.2,43.6-5.9c9.7-1.2,15.1-4.1,16.1-8.7.5-2,1-5.5-.3-7.2-2.5-3-10.4-4.6-23.7-4.6h0ZM1628.8,891.8c-7.4,1.8-16.4,3.5-27.8,5-24.2,3.7-36.5,8.3-40.2,24.2-.9,4-.7,7,.8,8.8,1.8,2.4,6.2,3.9,11.2,3.9,22.2,0,49.3-13.1,54.2-34.3l1.8-7.5h0Z"/>
    <path class="st2" d="M1831.6,996.3c-31.4,0-73.4-5.5-95.1-32-12.1-14.8-15.9-33.7-11.5-56.1l1.8-8.8h80.2c-20.4-5.6-38.9-14-49.2-29.9-7.6-11.7-9.6-25.9-5.8-42.3,9-39.2,45.9-81,122.3-81s70.9,9,86.9,27.6c12.2,14.1,16.5,33.3,13,56.7l-1.4,9.4h-71.2c22.2,5.8,43.7,14.6,54.8,31.7,7.6,11.6,9.5,25.6,5.8,41.7-17.7,77.1-104.5,83.1-130.7,83.1h0ZM1813.2,900.9l-2.8,12c-1.7,7.2.3,9.7,1,10.5,1.8,2.2,8.6,7.6,32.1,7.6s32.8-10.1,33.7-13.9c-2.6-4.1-23.5-8.1-37.3-10.7-8.7-1.7-17.8-3.4-26.6-5.6h0ZM1868,811.3c-29.1,0-31.3,9.2-32.1,12.6,2.8,3,23.4,7,36.9,9.7,6,1.1,12.3,2.4,18.7,3.8l.5-9.2c.3-6.6-.3-10-2.2-12-1.8-1.8-6.9-4.9-21.7-4.9h0Z"/>
    <path class="st2" d="M2077,996.3c-31.3,0-73.3-5.5-95-32-12.1-14.8-16-33.7-11.6-56.1l1.8-8.9h80.3c-20.3-5.6-38.9-14-49.2-29.9-7.6-11.7-9.5-25.9-5.8-42.3,8.9-39.2,45.9-81,122.4-81s70.8,9,86.8,27.6c12.2,14.1,16.5,33.3,13,56.7l-1.4,9.4h-71.3c22.2,5.8,43.8,14.6,54.9,31.7,7.6,11.6,9.4,25.6,5.8,41.7-17.7,77.1-104.6,83.1-130.8,83.1h0ZM2058.3,900.8l-2.7,12c-1.6,7.4.4,9.9,1.1,10.7,1.8,2.3,8.6,7.6,32.1,7.6s32.8-10,33.6-13.8c-2.6-4.1-23.4-8.1-37.1-10.8-8.7-1.7-17.9-3.4-26.9-5.7h0ZM2113.5,811.3c-29.3,0-31.4,9.1-32.2,12.6,2.8,3.1,23.3,7.1,36.9,9.8,5.9,1.1,12.2,2.4,18.6,3.8l.4-9.1c.3-6.8-.3-10.2-2.3-12.2-1.7-1.8-6.8-4.9-21.4-4.9h0Z"/>
    <g>
      <path class="st3" d="M532.5,1112.7h-66.3l95.6-414.3h-173.9l11.9-51.7h528.3l-12,51.7h-288.1l-95.6,414.3Z"/>
      <path class="st3" d="M733.6,985.3c-63.2,0-111.8-35.7-93.8-114.1,18.1-78.2,83.2-114.1,146.3-114.1s111.8,35.9,93.7,114.1c-17.8,78.4-83,114.1-146.1,114.1ZM775.1,805.2c-47.6,0-65.3,38.3-71.8,66-6.4,27.8-6.4,66.1,41.3,66.1s65.2-38.3,71.6-66.1c6.4-27.7,6.4-66-41.2-66Z"/>
      <path class="st3" d="M948.1,1042.1h-61.7l114.4-498.8h61.8l-114.4,498.8Z"/>
      <path class="st3" d="M1070.8,1042.1h-61.7l114.4-498.8h61.9l-114.6,498.8Z"/>
      <path class="st3" d="M1297.2,979.6h-66.3l76.9-332.9h144.9c61.3,0,89.9,36.4,76.7,93.8-6.1,26.5-37.3,93.3-122.5,93.3h-76l-33.7,145.9ZM1404,783.3c49.4,0,56.9-32.7,59.9-45.7,6.6-28.6-7.8-40.4-48.9-40.4h-52.6l-19.6,86h61.2Z"/>
      <path class="st3" d="M1690.1,937.3c-6,25.7-1.1,31.3,6,33.8l-2,8.6h-66.7c-1.3-10.2-1.4-13.5.2-25.7-17.2,13.5-41.2,31.3-83.2,31.3s-67.3-18.3-56.9-63.1c9.8-42.4,43.9-64,84.5-69.4l57.4-7.7c10-1.1,22.6-4.9,25.5-17.1,5.5-24.1-18.8-25.4-34.8-25.4-31,0-40.1,17.5-44.9,30.3h-59.4c22.1-66.6,74.3-75.9,122.3-75.9s91.4,9.3,79.1,62.8l-26.9,117.4ZM1644.1,874c-7.2,4.5-18.2,8.2-44.6,11.8-23.7,3.6-43.9,9-49.4,32.6-4.5,20,10.8,26.2,22.8,26.2,27.3,0,58.8-16.4,64.9-42.9l6.3-27.7Z"/>
      <path class="st3" d="M1903,828.8c.7-13.9-1.4-28.6-35-28.6s-40.7,11.8-42.9,21.2c-7.7,34.3,144.9,9.4,126.5,89.3-14.5,63.1-83.5,74.5-120,74.5-53.3,0-107.3-17.1-95.8-74.9h63.7c-4.3,18.3,5.1,31.7,43.8,31.7s42.6-14.3,44.5-22.5c8.4-36.3-143.7-8.9-125-90,7.3-31.8,38.4-72.5,111.6-72.5s98.3,10.5,88.9,71.8h-60.4Z"/>
      <path class="st3" d="M2148.3,828.8c.6-13.9-1.3-28.6-34.8-28.6s-40.8,11.8-42.9,21.2c-7.8,34.3,144.9,9.4,126.5,89.3-14.5,63.1-83.4,74.5-120,74.5-53.4,0-107.2-17.1-95.8-74.9h63.6c-4.1,18.3,5.2,31.7,43.9,31.7s42.6-14.3,44.4-22.5c8.5-36.3-143.6-8.9-124.8-90,7.3-31.8,38.3-72.5,111.6-72.5s98.2,10.5,88.9,71.8h-60.5Z"/>
    </g>
  </g>
  <g>
    <path class="st0" d="M1033.5,1903.5v292.5h-68.1v-432h68.1l157.7,275.9v-275.9h68.3v432h-60.6l-165.3-292.5Z"/>
    <path class="st0" d="M1363.1,1764h68.1v368.3h199.8v63.7h-267.9v-432Z"/>
    <path class="st0" d="M1877.9,2196h-68.6v-188l-152.3-244h82.3l103.6,166.8,105.1-166.8h80.7l-150.8,244v188Z"/>
    <path class="st0" d="M870.3,1980c0,15.5,3.3,223.6-153.5,223.6s-153.5-208.1-153.5-223.6-3.3-223.5,153.5-223.5,153.5,208,153.5,223.5ZM717.6,2133.9c46.5,0,84.3-44.1,84.3-153.9s-37.8-153.9-84.3-153.9-84.3,44.1-84.3,153.9,37.8,153.9,84.3,153.9Z"/>
  </g>
</svg>