<?xml version="1.0" encoding="UTF-8" standalone="no"?>
<!-- Created with Inkscape (http://www.inkscape.org/) -->

<svg
   version="1.1"
   id="svg1"
   width="12672.667"
   height="8064.6665"
   viewBox="0 0 12672.667 8064.6665"
   sodipodi:docname="tmpxis2g0gf.pdf"
   xmlns:inkscape="http://www.inkscape.org/namespaces/inkscape"
   xmlns:sodipodi="http://sodipodi.sourceforge.net/DTD/sodipodi-0.dtd"
   xmlns="http://www.w3.org/2000/svg"
   xmlns:svg="http://www.w3.org/2000/svg">
  <defs
     id="defs1" />
  <sodipodi:namedview
     id="namedview1"
     pagecolor="#ffffff"
     bordercolor="#000000"
     borderopacity="0.25"
     inkscape:showpageshadow="2"
     inkscape:pageopacity="0.0"
     inkscape:pagecheckerboard="0"
     inkscape:deskcolor="#d1d1d1">
    <inkscape:page
       x="0"
       y="0"
       inkscape:label="1"
       id="page1"
       width="12672.667"
       height="8064.6665"
       margin="0"
       bleed="0" />
  </sodipodi:namedview>
  <g
     id="g1"
     inkscape:groupmode="layer"
     inkscape:label="1">
    <g
       id="group-R5">
      <path
         id="path2"
         d="m 95042.5,6482.5 c 0,-3578.8 -2901.2,-6480 -6480,-6480 H 6482.5 C 2903.7,2.5 2.5,2903.7 2.5,6482.5 v 47520 c 0,3578.8 2901.2,6480 6480,6480 h 82080 c 3578.8,0 6480,-2901.2 6480,-6480 v -47520"
         style="fill:#ffffff;fill-opacity:1;fill-rule:nonzero;stroke:none"
         transform="matrix(0.13333333,0,0,-0.13333333,0,8064.6667)" />
      <path
         id="path3"
         d="m 95042.5,6482.5 c 0,-3578.8 -2901.2,-6480 -6480,-6480 H 6482.5 C 2903.7,2.5 2.5,2903.7 2.5,6482.5 v 47520 c 0,3578.8 2901.2,6480 6480,6480 h 82080 c 3578.8,0 6480,-2901.2 6480,-6480 z"
         style="fill:none;stroke:#231f20;stroke-width:5;stroke-linecap:butt;stroke-linejoin:miter;stroke-miterlimit:4;stroke-dasharray:none;stroke-opacity:1"
         transform="matrix(0.13333333,0,0,-0.13333333,0,8064.6667)" />
      <path
         id="path4"
         d="m 93422.5,6482.5 c 0,-2679.8 -2180.2,-4860 -4860,-4860 h -82080 c -2679.81,0 -4860,2180.2 -4860,4860 v 47520 c 0,2679.8 2180.19,4860 4860,4860 h 82080 c 2679.8,0 4860,-2180.2 4860,-4860 z m -4860,53460 h -82080 c -3275.32,0 -5940,-2664.7 -5940,-5940 v -47520 c 0,-3275.3 2664.68,-5940 5940,-5940 h 82080 c 3275.3,0 5940,2664.7 5940,5940 v 47520 c 0,3275.3 -2664.7,5940 -5940,5940"
         style="fill:#231f20;fill-opacity:1;fill-rule:nonzero;stroke:none"
         transform="matrix(0.13333333,0,0,-0.13333333,0,8064.6667)" />
      <path
         id="path5"
         d="m 13536.9,23042.5 v 3132.6 H 10289.3 V 23042.5 H 8995.28 v 7200 h 1294.02 v -2779 h 3247.6 v 2779 h 1294 v -7200 h -1294"
         style="fill:#231f20;fill-opacity:1;fill-rule:nonzero;stroke:none"
         transform="matrix(0.13333333,0,0,-0.13333333,0,8064.6667)" />
      <path
         id="path6"
         d="m 19881.8,29080.4 c -1088.7,0 -1747,-909.5 -1747,-2425.3 0,-1541 658.3,-2450.5 1747,-2450.5 1367.4,0 1696.5,1339 1696.5,2450.5 0,1515.8 -607.7,2425.3 -1696.5,2425.3 z m 0,-6164.2 c -2126.9,0 -3063.7,1920 -3063.7,3738.9 0,2299 1164.7,3713.7 3063.7,3713.7 1772.5,0 2987.9,-1490.5 2987.9,-3688.4 0,-2248.4 -1164.8,-3764.2 -2987.9,-3764.2"
         style="fill:#231f20;fill-opacity:1;fill-rule:nonzero;stroke:none"
         transform="matrix(0.13333333,0,0,-0.13333333,0,8064.6667)" />
      <path
         id="path7"
         d="m 28065.8,23042.5 h -1370.4 l -2616.1,7200 h 1370.3 l 1943.5,-5254.8 1943.4,5254.8 h 1370.4 l -2641.1,-7200"
         style="fill:#231f20;fill-opacity:1;fill-rule:nonzero;stroke:none"
         transform="matrix(0.13333333,0,0,-0.13333333,0,8064.6667)" />
      <path
         id="path8"
         d="m 72609.1,23042.5 v 7200 h 1293 v -6088.4 h 4107 v -1111.6 h -5400"
         style="fill:#231f20;fill-opacity:1;fill-rule:nonzero;stroke:none"
         transform="matrix(0.13333333,0,0,-0.13333333,0,8064.6667)" />
      <path
         id="path9"
         d="m 69246.4,23042.5 -3450.7,4951.6 v -4951.6 h -1268.6 v 7200 h 1268.6 L 69119.5,25493 v 4749.5 h 1243.2 v -7200 h -1116.3"
         style="fill:#231f20;fill-opacity:1;fill-rule:nonzero;stroke:none"
         transform="matrix(0.13333333,0,0,-0.13333333,0,8064.6667)" />
      <path
         id="path10"
         d="m 59552.1,29080.4 c -1088.8,0 -1747.1,-909.5 -1747.1,-2425.3 0,-1541 658.3,-2450.5 1747.1,-2450.5 1367.3,0 1696.5,1339 1696.5,2450.5 0,1515.8 -607.8,2425.3 -1696.5,2425.3 z m 0,-6164.2 c -2127,0 -3063.8,1920 -3063.8,3738.9 0,2299 1164.7,3713.7 3063.8,3713.7 1772.4,0 2987.8,-1490.5 2987.8,-3688.4 0,-2248.4 -1164.8,-3764.2 -2987.8,-3764.2"
         style="fill:#231f20;fill-opacity:1;fill-rule:nonzero;stroke:none"
         transform="matrix(0.13333333,0,0,-0.13333333,0,8064.6667)" />
      <path
         id="path11"
         d="M 83019,25973 V 23042.5 H 81731 V 25973 l -3030.7,4269.5 h 1591.1 l 2096.2,-2930.5 2071,2930.5 h 1591.1 L 83019,25973"
         style="fill:#231f20;fill-opacity:1;fill-rule:nonzero;stroke:none"
         transform="matrix(0.13333333,0,0,-0.13333333,0,8064.6667)" />
      <path
         id="path12"
         d="m 37906.9,23042.5 c 0,859 177.6,1490.5 583.5,2197.9 634.3,1061.1 1547.7,1717.9 2867.1,2071.6 811.9,227.4 1091,480 1091,909.4 0,530.6 -507.5,833.7 -1420.9,833.7 -938.7,0 -1623.8,-227.3 -2232.7,-783.1 l -888,985.2 c 837.3,732.7 1877.5,1111.7 3044.6,1111.7 1700,0 2791,-833.7 2791,-2147.5 0,-606.2 -253.8,-1162.1 -735.8,-1566.3 -228.4,-176.8 -558.2,-353.6 -1065.7,-505.2 -964.1,-277.9 -1243.2,-404.2 -1674.5,-783.2 -329.8,-277.9 -532.8,-555.7 -786.6,-1035.8 h 4262.6 v -1288.4 h -5835.6"
         style="fill:#231f20;fill-opacity:1;fill-rule:nonzero;stroke:none"
         transform="matrix(0.13333333,0,0,-0.13333333,0,8064.6667)" />
      <path
         id="path13"
         d="m 47592.7,26074 v -1642 h -1290.6 v 1642 h -1695.6 v 1288.5 h 1695.6 v 1616.8 h 1290.6 v -1616.8 h 1695.6 V 26074 h -1695.6"
         style="fill:#231f20;fill-opacity:1;fill-rule:nonzero;stroke:none"
         transform="matrix(0.13333333,0,0,-0.13333333,0,8064.6667)" />
      <path
         id="path14"
         d="m 49277.5,17282.5 v -4860 l 6215.8,1604.3 c 41.4,10.2 84.6,15.7 129.2,15.7 298.2,0 540,-241.8 540,-540 0,-149.7 -60.9,-285.1 -159.3,-382.9 l -8480.7,-7717.1 -8480.7,7717.1 c -98.4,97.8 -159.3,233.2 -159.3,382.9 0,298.2 241.8,540 540,540 44.6,0 87.8,-5.5 129.2,-15.7 l 6215.8,-1604.3 v 4860 h 3510"
         style="fill:#231f20;fill-opacity:1;fill-rule:nonzero;stroke:none"
         transform="matrix(0.13333333,0,0,-0.13333333,0,8064.6667)" />
      <path
         id="path15"
         d="m 72348.2,46592.8 c -871,0 -1397.6,-727.6 -1397.6,-1940.2 0,-1232.8 526.6,-1960.4 1397.6,-1960.4 1093.9,0 1357.2,1071.2 1357.2,1960.4 0,1212.6 -486.2,1940.2 -1357.2,1940.2 z m 0,-4931.4 c -1701.5,0 -2451,1536.1 -2451,2991.2 0,1839.2 931.8,2971 2451,2971 1418,0 2390.3,-1192.5 2390.3,-2950.8 0,-1798.7 -931.8,-3011.4 -2390.3,-3011.4"
         style="fill:#231f20;fill-opacity:1;fill-rule:nonzero;stroke:none"
         transform="matrix(0.13333333,0,0,-0.13333333,0,8064.6667)" />
      <path
         id="path16"
         d="m 78752.2,46491.8 h -1658.7 v -1435 h 1658.7 c 505,0 828.2,283 828.2,707.4 0,444.6 -323.2,727.6 -828.2,727.6 z m 828.2,-4729.3 -929.2,2263.6 h -1557.7 v -2263.6 h -1030.2 v 5760 H 78732 c 424.2,0 686.8,-60.6 989.8,-242.5 545.4,-303.2 888.8,-869.1 888.8,-1515.8 0,-646.7 -343.4,-1212.6 -929.2,-1536 l 1050.4,-2465.7 h -1151.4"
         style="fill:#231f20;fill-opacity:1;fill-rule:nonzero;stroke:none"
         transform="matrix(0.13333333,0,0,-0.13333333,0,8064.6667)" />
      <path
         id="path17"
         d="m 42055.1,46586.7 c 141.1,613.4 -170.4,867.7 -1052.8,867.7 H 39873 l -425.6,-1849.3 h 1318.9 c 1062.8,0 1224.2,701.1 1288.8,981.6"
         style="fill:#652168;fill-opacity:1;fill-rule:nonzero;stroke:none"
         transform="matrix(0.13333333,0,0,-0.13333333,0,8064.6667)" />
      <path
         id="path18"
         d="m 28131.1,43713.4 c 137.1,595.9 136.9,1419.7 -887.9,1419.7 -1024.7,0 -1404.1,-823.8 -1541.3,-1419.7 -137.2,-596 -137,-1419.7 887.9,-1419.7 1024.7,0 1404.1,823.7 1541.3,1419.7"
         style="fill:#652168;fill-opacity:1;fill-rule:nonzero;stroke:none"
         transform="matrix(0.13333333,0,0,-0.13333333,0,8064.6667)" />
      <path
         id="path19"
         d="m 58071.8,44624.8 h -1299.9 c 11.7,298 -29.6,613.5 -750.7,613.5 -721.2,0 -874.6,-254.1 -921,-455.8 -169.4,-736.1 3113.5,-201.5 2718.1,-1919.2 -312.7,-1358.5 -1792.5,-1603.8 -2580,-1603.8 -1148.1,0 -2306.4,368 -2058,1612.6 h 1366.3 c -90.6,-394.4 108.4,-683.7 943.4,-683.7 683.3,0 915.2,306.7 955.5,482 179.5,780.1 -3087,192.9 -2685.6,1936.9 157.3,683.6 824,1560 2399.1,1560 986.9,0 2111,-227.9 1912.8,-1542.5 z m -815.4,-4587.3 H 32273.5 l 2460.7,10726.7 h 1328.4 L 33665.1,40313.3 H 57319 Z m -171.8,-758.3 h -2052.9 l 62.6,275.7 h 2052.8 z m -8930.6,0 62.5,275.7 h 2052.8 l -62.5,-275.7 z m -6877.9,0 62.4,275.7 h 2052.9 l -62.4,-275.7 z m -6877.9,0 62.5,275.7 h 2052.8 l -62.4,-275.7 z m 22514.6,-758.4 H 25124.3 l 62.4,275.8 h 31788.5 z m -27277.2,1034.1 -62.5,-275.7 h -2052.6 l 62.3,275.7 z m -5300.1,4158.5 c 387.3,1682.6 1788.8,2453.9 3145.8,2453.9 1356.8,0 2403.4,-771.3 2016.2,-2453.9 -387.3,-1682.7 -1788.9,-2453.9 -3145.8,-2453.9 -1356.9,0 -2403.4,771.2 -2016.2,2453.9 z m -2310.3,-5192.6 h -1423.3 l 2055.9,8907.2 h -3742.1 l 256.1,1113 H 30535 l -256.1,-1113 H 24081.1 Z M 33424.8,50764.2 30964.1,40037.5 h -1328.5 l 2460.8,10726.7 z M 38699.9,48541 h 3112.3 c 1318.8,0 1936.5,-780 1652,-2015.6 -131.1,-569.8 -803.5,-2007 -2634.9,-2007 h -1632 l -727.5,-3136.2 h -1423.1 z m 7097.4,-2373.7 c 711.7,0 1965.3,-201.6 1700.9,-1349.7 l -580.8,-2523.9 c -127,-552.3 -22.6,-675 126.7,-727.5 l -42.3,-184 H 45569 c -25.5,219 -28.4,289.1 3.7,552 -370.2,-289.1 -886,-674.7 -1787.5,-674.7 -759,0 -1446.3,394.3 -1224.5,1358.3 209.8,911.5 942.9,1375.9 1813.7,1489.9 l 1234,166.6 c 214.7,26.2 489,105 549.6,368 119,517.1 -406.3,543.4 -747.9,543.4 -664.3,0 -864.8,-376.8 -965.5,-648.6 h -1280.7 c 480.5,1428.6 1599.2,1630.2 2633.4,1630.2 z m 2107.2,-3295.2 h 1366.4 c -90.9,-394.4 108.3,-683.7 943.4,-683.7 683.1,0 915,306.7 955.4,482 179.5,780.1 -3086.9,192.9 -2685.5,1936.9 157.3,683.6 823.9,1560 2399,1560 986.9,0 2111.1,-227.9 1912.9,-1542.5 h -1299.9 c 11.5,298 -29.7,613.5 -750.8,613.5 -721.1,0 -874.5,-254.1 -921,-455.8 -169.3,-736.1 3113.4,-201.5 2718,-1919.2 -312.5,-1358.5 -1792.3,-1603.8 -2579.9,-1603.8 -1148.1,0 -2306.6,368 -2058,1612.6 z M 14313.2,53282.5 v -17280 h 48384 v 17280 h -48384"
         style="fill:#652168;fill-opacity:1;fill-rule:nonzero;stroke:none"
         transform="matrix(0.13333333,0,0,-0.13333333,0,8064.6667)" />
      <path
         id="path20"
         d="m 43907.3,42696.7 c -98.8,-429.4 231.6,-560.9 487.7,-560.9 588.4,0 1266.8,350.7 1397.9,920.3 l 137.3,595.9 c -155.1,-96.4 -391.6,-175.3 -960,-254.2 -511.6,-78.7 -945.9,-192.8 -1062.9,-701.1"
         style="fill:#652168;fill-opacity:1;fill-rule:nonzero;stroke:none"
         transform="matrix(0.13333333,0,0,-0.13333333,0,8064.6667)" />
    </g>
  </g>
</svg>
