<?xml version="1.0" encoding="UTF-8" standalone="no"?>
<!-- Created with Inkscape (http://www.inkscape.org/) -->

<svg
   version="1.1"
   id="svg1"
   width="5760.6665"
   height="7488.6665"
   viewBox="0 0 5760.6665 7488.6665"
   sodipodi:docname="tmpfc388a4b.pdf"
   xmlns:inkscape="http://www.inkscape.org/namespaces/inkscape"
   xmlns:sodipodi="http://sodipodi.sourceforge.net/DTD/sodipodi-0.dtd"
   xmlns="http://www.w3.org/2000/svg"
   xmlns:svg="http://www.w3.org/2000/svg">
  <defs
     id="defs1" />
  <sodipodi:namedview
     id="namedview1"
     pagecolor="#ffffff"
     bordercolor="#000000"
     borderopacity="0.25"
     inkscape:showpageshadow="2"
     inkscape:pageopacity="0.0"
     inkscape:pagecheckerboard="0"
     inkscape:deskcolor="#d1d1d1">
    <inkscape:page
       x="0"
       y="0"
       inkscape:label="1"
       id="page1"
       width="5760.6665"
       height="7488.6665"
       margin="0"
       bleed="0" />
  </sodipodi:namedview>
  <g
     id="g1"
     inkscape:groupmode="layer"
     inkscape:label="1">
    <g
       id="group-R5">
      <path
         id="path2"
         d="m 43202.5,2162.5 c 0,-1192.898 -967.1,-2160 -2160,-2160 H 2162.5 C 969.566,2.5 2.5,969.602 2.5,2162.5 v 51840 c 0,1192.9 967.066,2160 2160,2160 h 38880 c 1192.9,0 2160,-967.1 2160,-2160 v -51840"
         style="fill:#ffffff;fill-opacity:1;fill-rule:nonzero;stroke:none"
         transform="matrix(0.13333333,0,0,-0.13333333,0,7488.6667)" />
      <path
         id="path3"
         d="m 43202.5,2162.5 c 0,-1192.898 -967.1,-2160 -2160,-2160 H 2162.5 C 969.566,2.5 2.5,969.602 2.5,2162.5 v 51840 c 0,1192.9 967.066,2160 2160,2160 h 38880 c 1192.9,0 2160,-967.1 2160,-2160 z"
         style="fill:none;stroke:#231f20;stroke-width:5;stroke-linecap:butt;stroke-linejoin:miter;stroke-miterlimit:4;stroke-dasharray:none;stroke-opacity:1"
         transform="matrix(0.13333333,0,0,-0.13333333,0,7488.6667)" />
      <path
         id="path4"
         d="m 41762.5,2162.5 c 0,-397 -323,-720 -720,-720 h -38880 c -397.01,0 -720,323 -720,720 v 51840 c 0,397 322.99,720 720,720 h 38880 c 397,0 720,-323 720,-720 z m -720,53460 h -38880 c -893.27,0 -1620,-726.7 -1620,-1620 v -51840 c 0,-893.3 726.73,-1620 1620,-1620 h 38880 c 893.3,0 1620,726.7 1620,1620 v 51840 c 0,893.3 -726.7,1620 -1620,1620"
         style="fill:#231f20;fill-opacity:1;fill-rule:nonzero;stroke:none"
         transform="matrix(0.13333333,0,0,-0.13333333,0,7488.6667)" />
      <path
         id="path5"
         d="m 25110.2,15539.4 c -176.5,505.2 -479,732.6 -932.8,732.6 h -857.2 v -5179 h 857.2 c 605,0 932.8,480 1033.6,1035.8 50.4,454.8 100.9,960 100.9,1515.8 0,808.4 -75.6,1591.6 -201.7,1894.8 z m 176.4,-5128.5 c -252.1,-227.3 -605,-328.4 -1008.4,-328.4 h -1991.7 v 7200 H 24127 c 605,0 907.5,-75.8 1159.6,-277.9 428.7,-303.1 731.2,-858.9 857.2,-1591.6 100.9,-530.5 176.5,-1162.1 176.5,-1717.9 0,-1667.4 -327.7,-2728.4 -1033.7,-3284.2"
         style="fill:#231f20;fill-opacity:1;fill-rule:nonzero;stroke:none"
         transform="matrix(0.13333333,0,0,-0.13333333,0,7488.6667)" />
      <path
         id="path6"
         d="m 11770.9,10082.5 v 7200 H 15166 V 16272 h -2356.3 v -1819 h 1494.8 v -985.3 H 12809.7 V 11093 h 2635 v -1010.5 h -3673.8"
         style="fill:#231f20;fill-opacity:1;fill-rule:nonzero;stroke:none"
         transform="matrix(0.13333333,0,0,-0.13333333,0,7488.6667)" />
      <path
         id="path7"
         d="m 19921,10082.5 -2218.6,4825.3 v -4825.3 h -1033.7 v 7200 h 1033.7 l 1966.4,-4320 v 4320 h 1033.7 v -7200 H 19921"
         style="fill:#231f20;fill-opacity:1;fill-rule:nonzero;stroke:none"
         transform="matrix(0.13333333,0,0,-0.13333333,0,7488.6667)" />
      <path
         id="path8"
         d="m 29450.5,13407.6 c -311.5,201.8 -614,404.3 -807.1,540.2 -580.4,408.5 -887.9,960 -887.9,1591.5 0,1035.8 811.8,1869.5 1852,1869.5 1014.8,0 1801.2,-783.1 1826.6,-1869.5 h -989.4 c -25.4,505.3 -380.6,833.7 -837.2,833.7 -482,0 -862.6,-353.7 -862.6,-833.7 0,-353.6 152.2,-555.7 685,-858.9 1395.3,-808.4 2004.2,-1591.6 2004.2,-2627.4 0,-1162.1 -887.9,-2096.8 -2004.2,-2096.8 -1268.5,0 -2029.6,1061 -2029.6,2248.4 h 1014.8 c 0,-606.3 304.5,-1237.9 1014.8,-1237.9 558.1,0 1014.8,505.3 1014.8,1086.3 0,451.2 -186.4,831.2 -994.2,1354.6"
         style="fill:#231f20;fill-opacity:1;fill-rule:nonzero;stroke:none"
         transform="matrix(0.13333333,0,0,-0.13333333,0,7488.6667)" />
      <path
         id="path9"
         d="m 26399.6,25215.1 c -157.5,-522.2 -634.8,-858.9 -1269.6,-858.9 -736.3,0 -1193.4,303.1 -1421.9,960 -203.1,606.3 -304.7,1591.6 -304.7,2753.7 0,656.8 76.2,1616.8 177.7,2172.6 203.1,1111.6 634.8,1541.1 1498.1,1541.1 812.6,0 1345.8,-505.3 1422,-1389.5 h -939.5 c -25.4,303.1 -203.2,454.7 -457.1,454.7 -330.1,0 -507.8,-227.4 -609.4,-707.3 -126.9,-581.1 -152.3,-1111.6 -152.3,-2071.6 0,-1010.6 25.4,-1440 152.3,-2046.4 101.6,-480 279.3,-732.6 584,-732.6 330.1,0 482.5,252.6 482.5,884.2 h 939.5 c 0,-555.8 -25.4,-707.3 -101.6,-960"
         style="fill:#231f20;fill-opacity:1;fill-rule:nonzero;stroke:none"
         transform="matrix(0.13333333,0,0,-0.13333333,0,7488.6667)" />
      <path
         id="path10"
         d="m 7178.18,24482.5 v 7200 h 2637.35 v -934.7 H 8082.42 v -1844.2 h 1155.39 v -960.1 H 8082.42 v -2526.3 h 1833.57 v -934.7 H 7178.18"
         style="fill:#231f20;fill-opacity:1;fill-rule:nonzero;stroke:none"
         transform="matrix(0.13333333,0,0,-0.13333333,0,7488.6667)" />
      <path
         id="path11"
         d="m 21441.4,24482.5 v 7200 h 936 v -7200 h -936"
         style="fill:#231f20;fill-opacity:1;fill-rule:nonzero;stroke:none"
         transform="matrix(0.13333333,0,0,-0.13333333,0,7488.6667)" />
      <path
         id="path12"
         d="m 30589,24482.5 v 7200 h 936 v -7200 h -936"
         style="fill:#231f20;fill-opacity:1;fill-rule:nonzero;stroke:none"
         transform="matrix(0.13333333,0,0,-0.13333333,0,7488.6667)" />
      <path
         id="path13"
         d="M 39207.9,24482.5 37797.5,28752 v -4269.5 h -906.7 v 7200 h 906.7 l 1284.4,-3587.4 v 3587.4 h 906.7 v -7200 h -780.7"
         style="fill:#231f20;fill-opacity:1;fill-rule:nonzero;stroke:none"
         transform="matrix(0.13333333,0,0,-0.13333333,0,7488.6667)" />
      <path
         id="path14"
         d="m 34208.4,30848.8 c -833.7,0 -720.1,-2248.4 -720.1,-2753.7 0,-480 -113.6,-2804.2 720.1,-2804.2 808.5,0 694.9,2324.2 694.9,2804.2 0,581.1 -12.8,2753.7 -694.9,2753.7 z m 0,-6492.6 c -1793.7,0 -1654.9,2551.6 -1654.9,3738.9 0,1237.9 -113.6,3688.5 1654.9,3688.5 1768.5,0 1654.9,-2475.8 1654.9,-3688.5 0,-1187.3 113.6,-3738.9 -1654.9,-3738.9"
         style="fill:#231f20;fill-opacity:1;fill-rule:nonzero;stroke:none"
         transform="matrix(0.13333333,0,0,-0.13333333,0,7488.6667)" />
      <path
         id="path15"
         d="m 4569.38,30747.8 h -442.66 v -1970.6 h 594.37 c 505.74,0 657.47,227.4 657.47,909.5 0,808.4 -177.02,1061.1 -809.18,1061.1 z m 986.19,-2677.9 733.32,-3587.4 h -935.62 l -809.19,3360 h -417.36 v -3360 h -910.34 v 7200 h 1403.56 c 1112.64,0 1694.24,-682.1 1694.24,-2021.1 0,-808.4 -227.59,-1263.1 -758.61,-1591.5"
         style="fill:#231f20;fill-opacity:1;fill-rule:nonzero;stroke:none"
         transform="matrix(0.13333333,0,0,-0.13333333,0,7488.6667)" />
      <path
         id="path16"
         d="m 18832.6,30747.8 h -442.7 v -1970.6 h 594.4 c 505.7,0 657.5,227.4 657.5,909.5 0,808.4 -177.1,1061.1 -809.2,1061.1 z m 986.2,-2677.9 733.3,-3587.4 h -935.6 l -809.2,3360 h -417.4 v -3360 h -910.3 v 7200 h 1403.6 c 1112.6,0 1694.2,-682.1 1694.2,-2021.1 0,-808.4 -227.6,-1263.1 -758.6,-1591.5"
         style="fill:#231f20;fill-opacity:1;fill-rule:nonzero;stroke:none"
         transform="matrix(0.13333333,0,0,-0.13333333,0,7488.6667)" />
      <path
         id="path17"
         d="m 13199.8,27589.9 c 207.8,-446.1 354,-1061.1 354,-1566.4 0,-505.2 -227.6,-1035.7 -581.6,-1338.9 -227.6,-202.1 -550.1,-328.4 -929.4,-328.4 -1011.5,0 -1536.3,656.8 -1586.8,1920 h 935.6 c 0,-277.9 25.3,-379 75.9,-530.6 75.8,-277.9 297.1,-454.7 575.3,-454.7 354,0 575.3,277.9 575.3,732.6 0,631.6 -221.3,1162.2 -777.6,1819 -328.7,378.9 -550.1,656.8 -625.9,757.9 -404.6,480 -581.6,985.3 -581.6,1490.5 0,985.3 600.6,1692.7 1460.4,1692.7 885,0 1359.2,-555.8 1460.4,-1692.7 h -935.7 c -25.2,555.8 -170.7,783.2 -499.4,783.2 -354.1,0 -550.1,-303.2 -550.1,-783.2 0,-328.4 120.2,-581 499.5,-985.2 783.9,-884.3 916.9,-1054.9 1131.7,-1515.8"
         style="fill:#231f20;fill-opacity:1;fill-rule:nonzero;stroke:none"
         transform="matrix(0.13333333,0,0,-0.13333333,0,7488.6667)" />
      <path
         id="path18"
         d="m 15783.7,30747.8 v -6265.3 h -908.5 v 6265.3 h -889.4 v 934.7 h 2737.8 v -934.7 h -939.9"
         style="fill:#231f20;fill-opacity:1;fill-rule:nonzero;stroke:none"
         transform="matrix(0.13333333,0,0,-0.13333333,0,7488.6667)" />
      <path
         id="path19"
         d="m 28893.1,30747.8 v -6265.3 h -908.5 v 6265.3 h -889.4 v 934.7 H 29833 v -934.7 h -939.9"
         style="fill:#231f20;fill-opacity:1;fill-rule:nonzero;stroke:none"
         transform="matrix(0.13333333,0,0,-0.13333333,0,7488.6667)" />
      <path
         id="path20"
         d="m 4712.19,38882.5 v 7200 H 8107.26 V 45072 h -2356.3 v -1819 h 1494.87 v -985.2 H 5750.96 V 39893 H 8385.97 V 38882.5 H 4712.19"
         style="fill:#231f20;fill-opacity:1;fill-rule:nonzero;stroke:none"
         transform="matrix(0.13333333,0,0,-0.13333333,0,7488.6667)" />
      <path
         id="path21"
         d="m 25023.4,38882.5 v 7200 h 3395.1 V 45072 h -2356.3 v -1819 h 1494.9 v -985.2 H 26062.2 V 39893 h 2635 v -1010.5 h -3673.8"
         style="fill:#231f20;fill-opacity:1;fill-rule:nonzero;stroke:none"
         transform="matrix(0.13333333,0,0,-0.13333333,0,7488.6667)" />
      <path
         id="path22"
         d="m 16384.3,45072 h -1058.9 v -2046.3 h 1058.9 c 605.1,0 932.8,378.9 932.8,1035.8 0,606.3 -378.2,1010.5 -932.8,1010.5 z m 50.4,-3031.6 h -1109.3 v -3157.9 h -1033.6 v 7200 h 2142.9 c 1134.5,0 1890.9,-808.4 1890.9,-2021 0,-1313.7 -680.8,-2021.1 -1890.9,-2021.1"
         style="fill:#231f20;fill-opacity:1;fill-rule:nonzero;stroke:none"
         transform="matrix(0.13333333,0,0,-0.13333333,0,7488.6667)" />
      <path
         id="path23"
         d="m 21858.2,45072 h -1058.9 v -1819 h 1058.9 c 605,0 932.8,328.5 932.8,909.5 0,555.8 -378.2,909.5 -932.8,909.5 z m 882.3,-6189.5 -958,3385.3 h -983.2 v -3385.3 h -1033.7 v 7200 h 2143 c 1134.5,0 1890.8,-757.9 1890.8,-1920 0,-858.9 -353,-1490.5 -1033.6,-1743.2 l 1033.6,-3536.8 h -1058.9"
         style="fill:#231f20;fill-opacity:1;fill-rule:nonzero;stroke:none"
         transform="matrix(0.13333333,0,0,-0.13333333,0,7488.6667)" />
      <path
         id="path24"
         d="m 31611.4,42207.6 c -311.5,201.8 -614,404.3 -807.1,540.2 -580.4,408.6 -888,960 -888,1591.6 0,1035.8 811.9,1869.4 1852.1,1869.4 1014.7,0 1801.2,-783.1 1826.6,-1869.4 h -989.5 c -25.3,505.2 -380.5,833.7 -837.1,833.7 -482,0 -862.6,-353.7 -862.6,-833.7 0,-353.7 152.2,-555.8 685,-859 1395.3,-808.4 2004.2,-1591.6 2004.2,-2627.4 0,-1162.1 -887.9,-2096.8 -2004.2,-2096.8 -1268.5,0 -2029.6,1061 -2029.6,2248.4 H 30576 c 0,-606.3 304.4,-1237.9 1014.8,-1237.9 558.1,0 1014.7,505.3 1014.7,1086.3 0,451.2 -186.4,831.2 -994.1,1354.6"
         style="fill:#231f20;fill-opacity:1;fill-rule:nonzero;stroke:none"
         transform="matrix(0.13333333,0,0,-0.13333333,0,7488.6667)" />
      <path
         id="path25"
         d="m 36509.2,42207.6 c -311.5,201.8 -614,404.3 -807.1,540.2 -580.5,408.6 -888,960 -888,1591.6 0,1035.8 811.9,1869.4 1852.1,1869.4 1014.7,0 1801.2,-783.1 1826.6,-1869.4 h -989.4 c -25.4,505.2 -380.6,833.6 -837.2,833.6 -482.1,0 -862.6,-353.6 -862.6,-833.6 0,-353.7 152.2,-555.8 685,-859 1395.3,-808.4 2004.2,-1591.6 2004.2,-2627.4 0,-1162.1 -888,-2096.8 -2004.2,-2096.8 -1268.5,0 -2029.6,1061 -2029.6,2248.4 h 1014.8 c 0,-606.3 304.4,-1237.9 1014.8,-1237.9 558.1,0 1014.8,505.3 1014.8,1086.3 0,451.2 -186.5,831.2 -994.2,1354.6"
         style="fill:#231f20;fill-opacity:1;fill-rule:nonzero;stroke:none"
         transform="matrix(0.13333333,0,0,-0.13333333,0,7488.6667)" />
      <path
         id="path26"
         d="M 12164.1,38882.5 11146.2,41333 10128.3,38882.5 H 9034 l 1577.8,3739 -1476.02,3461 h 1094.32 l 916.1,-2172.6 916.1,2172.6 h 1094.3 l -1450.6,-3461 1577.8,-3739 h -1119.7"
         style="fill:#231f20;fill-opacity:1;fill-rule:nonzero;stroke:none"
         transform="matrix(0.13333333,0,0,-0.13333333,0,7488.6667)" />
    </g>
  </g>
</svg>
