<?xml version="1.0" encoding="UTF-8" standalone="no"?>
<!-- Created with Inkscape (http://www.inkscape.org/) -->

<svg
   version="1.1"
   id="svg1"
   width="4608.6665"
   height="2880.6667"
   viewBox="0 0 4608.6665 2880.6667"
   sodipodi:docname="tmpuysyv8yw.pdf"
   xmlns:inkscape="http://www.inkscape.org/namespaces/inkscape"
   xmlns:sodipodi="http://sodipodi.sourceforge.net/DTD/sodipodi-0.dtd"
   xmlns="http://www.w3.org/2000/svg"
   xmlns:svg="http://www.w3.org/2000/svg">
  <defs
     id="defs1" />
  <sodipodi:namedview
     id="namedview1"
     pagecolor="#ffffff"
     bordercolor="#000000"
     borderopacity="0.25"
     inkscape:showpageshadow="2"
     inkscape:pageopacity="0.0"
     inkscape:pagecheckerboard="0"
     inkscape:deskcolor="#d1d1d1">
    <inkscape:page
       x="0"
       y="0"
       inkscape:label="1"
       id="page1"
       width="4608.6665"
       height="2880.6667"
       margin="0"
       bleed="0" />
  </sodipodi:namedview>
  <g
     id="g1"
     inkscape:groupmode="layer"
     inkscape:label="1">
    <g
       id="group-R5">
      <path
         id="path2"
         d="M 1352.5,1.20313 C 993.059,1.20313 654.141,142.199 398.18,398.203 142.219,654.102 1.25,993.102 1.25,1352.5 v 18900 c 0,359.4 140.969,698.4 396.93,954.3 255.961,256 594.879,397 954.32,397 h 31860 c 359.4,0 698.4,-141 954.3,-397 256,-255.9 397,-594.9 397,-954.3 v -18900 c 0,-359.398 -141,-698.398 -397,-954.297 C 33910.9,142.199 33571.9,1.20313 33212.5,1.20313 h -31860"
         style="fill:#ffffff;fill-opacity:1;fill-rule:nonzero;stroke:none"
         transform="matrix(0.13333333,0,0,-0.13333333,0,2880.6667)" />
      <path
         id="path3"
         d="m 33212.5,21605 h -31860 c -359.773,0 -699.004,-141.1 -955.203,-397.3 C 141.098,20951.5 0,20612.3 0,20252.5 V 1352.5 C 0,992.699 141.098,653.5 397.297,397.301 653.496,141.102 992.727,0 1352.5,0 h 31860 c 359.8,0 699,141.102 955.2,397.301 256.2,256.199 397.3,595.398 397.3,955.199 v 18900 c 0,359.8 -141.1,699 -397.3,955.2 -256.2,256.2 -595.4,397.3 -955.2,397.3 z m 0,-2.5 c 742.5,0 1350,-607.5 1350,-1350 V 1352.5 C 34562.5,610 33955,2.5 33212.5,2.5 H 1352.5 C 610,2.5 2.5,610 2.5,1352.5 v 18900 c 0,742.5 607.5,1350 1350,1350 h 31860"
         style="fill:#231f20;fill-opacity:1;fill-rule:nonzero;stroke:none"
         transform="matrix(0.13333333,0,0,-0.13333333,0,2880.6667)" />
      <path
         id="path4"
         d="m 33212.5,902.5 c 248.1,0 450,201.9 450,450 v 18900 c 0,248.1 -201.9,450 -450,450 h -31860 c -248.13,0 -450,-201.9 -450,-450 v -18900 c 0,-248.1 201.87,-450 450,-450 z m -31860,-540 c -545.891,0 -990,444.102 -990,990 v 18900 c 0,545.9 444.109,990 990,990 h 31860 c 545.9,0 990,-444.1 990,-990 v -18900 c 0,-545.898 -444.1,-990 -990,-990 h -31860"
         style="fill:#231f20;fill-opacity:1;fill-rule:nonzero;stroke:none"
         transform="matrix(0.13333333,0,0,-0.13333333,0,2880.6667)" />
      <path
         id="path5"
         d="m 12377.1,649.301 h -540 V 10802.5 h 540 V 649.301"
         style="fill:#231f20;fill-opacity:1;fill-rule:nonzero;stroke:none"
         transform="matrix(0.13333333,0,0,-0.13333333,0,2880.6667)" />
      <path
         id="path6"
         d="M 26445,4112.6 V 2162.5 h -454.3 v 2880 h 454.3 l 1051.1,-1839.2 v 1839.2 h 455.1 v -2880 h -404.3 L 26445,4112.6"
         style="fill:#231f20;fill-opacity:1;fill-rule:nonzero;stroke:none"
         transform="matrix(0.13333333,0,0,-0.13333333,0,2880.6667)" />
      <path
         id="path7"
         d="m 28642.5,5042.5 h 454.3 V 2586.9 h 1331.9 v -424.4 h -1786.2 v 2880"
         style="fill:#231f20;fill-opacity:1;fill-rule:nonzero;stroke:none"
         transform="matrix(0.13333333,0,0,-0.13333333,0,2880.6667)" />
      <path
         id="path8"
         d="m 32074.3,2162.5 h -457.2 v 1253.1 l -1015.5,1626.9 h 548.6 l 690.5,-1111.7 700.9,1111.7 h 538.1 L 32074.3,3415.6 V 2162.5"
         style="fill:#231f20;fill-opacity:1;fill-rule:nonzero;stroke:none"
         transform="matrix(0.13333333,0,0,-0.13333333,0,2880.6667)" />
      <path
         id="path9"
         d="m 24339,2576.5 c 310.3,0 562.3,294.1 562.3,1026 0,731.9 -252,1026 -562.3,1026 -310.3,0 -562.3,-293.8 -562.3,-1026 0,-731.9 252,-1026 562.3,-1026 z m 1018.1,1026 c 0,-103.3 21.9,-1490.4 -1023.2,-1490.4 -1045,0 -1023.1,1387.1 -1023.1,1490.4 0,103.3 -21.9,1490 1023.1,1490 1045.1,0 1023.2,-1386.7 1023.2,-1490"
         style="fill:#231f20;fill-opacity:1;fill-rule:nonzero;stroke:none"
         transform="matrix(0.13333333,0,0,-0.13333333,0,2880.6667)" />
      <path
         id="path10"
         d="M 4619.48,4112.6 V 2162.5 h -454.3 v 2880 h 454.3 L 5670.64,3203.3 v 1839.2 h 455.02 v -2880 H 5721.4 L 4619.48,4112.6"
         style="fill:#231f20;fill-opacity:1;fill-rule:nonzero;stroke:none"
         transform="matrix(0.13333333,0,0,-0.13333333,0,2880.6667)" />
      <path
         id="path11"
         d="m 6816.97,5042.5 h 454.3 V 2586.9 H 8603.21 V 2162.5 H 6816.97 v 2880"
         style="fill:#231f20;fill-opacity:1;fill-rule:nonzero;stroke:none"
         transform="matrix(0.13333333,0,0,-0.13333333,0,2880.6667)" />
      <path
         id="path12"
         d="M 10248.8,2162.5 H 9791.63 V 3415.6 L 8776.11,5042.5 h 548.62 l 690.47,-1111.7 700.9,1111.7 h 538.1 L 10248.8,3415.6 V 2162.5"
         style="fill:#231f20;fill-opacity:1;fill-rule:nonzero;stroke:none"
         transform="matrix(0.13333333,0,0,-0.13333333,0,2880.6667)" />
      <path
         id="path13"
         d="m 2513.48,2576.5 c 310.32,0 562.32,294.1 562.32,1026 0,731.9 -252,1026 -562.32,1026 -310.32,0 -562.32,-293.8 -562.32,-1026 0,-731.9 252,-1026 562.32,-1026 z m 1018.08,1026 c 0,-103.3 21.96,-1490.4 -1023.12,-1490.4 -1045.07,0 -1023.11,1387.1 -1023.11,1490.4 0,103.3 -21.96,1490 1023.11,1490 1045.08,0 1023.12,-1386.7 1023.12,-1490"
         style="fill:#231f20;fill-opacity:1;fill-rule:nonzero;stroke:none"
         transform="matrix(0.13333333,0,0,-0.13333333,0,2880.6667)" />
      <path
         id="path14"
         d="m 22727.9,362.5 v 8640 h -540 v -8640 h 540"
         style="fill:#231f20;fill-opacity:1;fill-rule:evenodd;stroke:none"
         transform="matrix(0.13333333,0,0,-0.13333333,0,2880.6667)" />
      <path
         id="path15"
         d="m 19807.1,14480 -956,-651 c -1307.3,-890.3 -2412.8,-2045.5 -3244.8,-3390.6 v 0 5304.3 l 1046.2,-305.2 c 149.1,-43.5 305.3,42.1 348.8,191.3 23.5,80.8 9.6,168 -37.9,237.5 l -2200.9,3216.2 -2200.8,-3216.2 c -87.8,-128.1 -55,-303.2 73.2,-390.9 69.5,-47.6 156.7,-61.5 237.6,-37.9 l 1046.3,305.2 V 2522.5 h 1687.5 v 1980 c 0,3175 1570.4,6144.5 4194.7,7931.7 l 955.9,651 336.7,-1036.5 c 48,-147.8 206.7,-228.6 354.4,-180.7 80.1,26.1 144.4,86.6 175,165.1 l 1419.5,3629.4 -3897.1,8.8 c -155.3,0.3 -281.5,-125.3 -281.9,-280.6 -0.2,-84.3 37.4,-164.2 102.4,-217.7 l 841.2,-693"
         style="fill:#231f20;fill-opacity:1;fill-rule:nonzero;stroke:none"
         transform="matrix(0.13333333,0,0,-0.13333333,0,2880.6667)" />
      <path
         id="path16"
         d="m 29216.3,11408.6 c -1399.7,-414.6 -2360,-1700.5 -2360,-3160.4 V 6122.5 h -1687.7 v 2125.7 c 0,2207.3 1452,4151.7 3568.4,4778.6 l 223.5,66.1 -589.7,916.5 v 0 c -45.6,70.9 -57,158.4 -31.2,238.6 47.7,147.8 206.2,229 354.1,181.3 v 0 l 3708.8,-1196.8 -2458.7,-3023.7 v 0 c -53.1,-65.3 -132.8,-103.4 -217,-103.8 -155.3,-0.6 -281.8,124.8 -282.4,280.1 v 0 l -4.6,1089.8 -223.5,-66.3"
         style="fill:#231f20;fill-opacity:1;fill-rule:nonzero;stroke:none"
         transform="matrix(0.13333333,0,0,-0.13333333,0,2880.6667)" />
      <path
         id="path17"
         d="m 5348.69,11408.6 c 1399.73,-414.6 2360,-1700.5 2360,-3160.4 V 6122.5 h 1687.68 v 2125.7 c 0,2207.3 -1451.93,4151.7 -3568.35,4778.6 l -223.54,66.1 589.74,916.5 v 0 c 45.58,70.9 57.01,158.4 31.14,238.6 -47.7,147.8 -206.2,229 -354.03,181.3 v 0 l -3708.8,-1196.8 2458.65,-3023.7 v 0 c 53.14,-65.3 132.79,-103.4 217.03,-103.8 155.33,-0.6 281.78,124.8 282.43,280.1 v 0 l 4.56,1089.8 223.49,-66.3"
         style="fill:#231f20;fill-opacity:1;fill-rule:nonzero;stroke:none"
         transform="matrix(0.13333333,0,0,-0.13333333,0,2880.6667)" />
    </g>
  </g>
</svg>
