<?xml version="1.0" encoding="UTF-8" standalone="no"?>
<!-- Created with Inkscape (http://www.inkscape.org/) -->

<svg
   version="1.1"
   id="svg1"
   width="2880.6667"
   height="4032.6667"
   viewBox="0 0 2880.6667 4032.6667"
   sodipodi:docname="tmp1uwx02n5.pdf"
   xmlns:inkscape="http://www.inkscape.org/namespaces/inkscape"
   xmlns:sodipodi="http://sodipodi.sourceforge.net/DTD/sodipodi-0.dtd"
   xmlns="http://www.w3.org/2000/svg"
   xmlns:svg="http://www.w3.org/2000/svg">
  <defs
     id="defs1" />
  <sodipodi:namedview
     id="namedview1"
     pagecolor="#ffffff"
     bordercolor="#000000"
     borderopacity="0.25"
     inkscape:showpageshadow="2"
     inkscape:pageopacity="0.0"
     inkscape:pagecheckerboard="0"
     inkscape:deskcolor="#d1d1d1">
    <inkscape:page
       x="0"
       y="0"
       inkscape:label="1"
       id="page1"
       width="2880.6667"
       height="4032.6667"
       margin="0"
       bleed="0" />
  </sodipodi:namedview>
  <g
     id="g1"
     inkscape:groupmode="layer"
     inkscape:label="1">
    <g
       id="group-R5">
      <path
         id="path2"
         d="M 1352.5,1.20313 C 993.063,1.20313 654.141,142.199 398.18,398.203 142.219,654.102 1.25,993.102 1.25,1352.5 v 27540 c 0,359.4 140.969,698.4 396.93,954.3 255.961,256 594.883,397 954.32,397 h 18900 c 359.4,0 698.4,-141 954.3,-397 256,-255.9 397,-594.9 397,-954.3 v -27540 c 0,-359.398 -141,-698.398 -397,-954.297 C 20950.9,142.199 20611.9,1.20313 20252.5,1.20313 h -18900"
         style="fill:#ffffff;fill-opacity:1;fill-rule:evenodd;stroke:none"
         transform="matrix(0.13333333,0,0,-0.13333333,0,4032.6667)" />
      <path
         id="path3"
         d="m 20252.5,30245 h -18900 c -359.773,0 -699.008,-141.1 -955.203,-397.3 C 141.098,29591.5 0,29252.3 0,28892.5 V 1352.5 C 0,992.699 141.098,653.5 397.297,397.301 653.492,141.102 992.727,0 1352.5,0 h 18900 c 359.8,0 699,141.102 955.2,397.301 256.2,256.199 397.3,595.398 397.3,955.199 v 27540 c 0,359.8 -141.1,699 -397.3,955.2 -256.2,256.2 -595.4,397.3 -955.2,397.3 z m 0,-2.5 c 742.5,0 1350,-607.5 1350,-1350 V 1352.5 C 21602.5,610 20995,2.5 20252.5,2.5 H 1352.5 C 610,2.5 2.5,610 2.5,1352.5 v 27540 c 0,742.5 607.5,1350 1350,1350 h 18900"
         style="fill:#231f20;fill-opacity:1;fill-rule:nonzero;stroke:none"
         transform="matrix(0.13333333,0,0,-0.13333333,0,4032.6667)" />
      <path
         id="path4"
         d="m 902.5,19802.5 v -18450 c 0,-247.5 202.5,-450 450,-450 h 18900 c 247.5,0 450,202.5 450,450 v 18450 z m 19350,-19440 h -18900 c -544.5,0 -990,445.5 -990,990 v 27540 c 0,544.5 445.5,990 990,990 h 18900 c 544.5,0 990,-445.5 990,-990 v -27540 c 0,-544.5 -445.5,-990 -990,-990"
         style="fill:#231f20;fill-opacity:1;fill-rule:evenodd;stroke:none"
         transform="matrix(0.13333333,0,0,-0.13333333,0,4032.6667)" />
      <path
         id="path5"
         d="m 3189.91,26927.6 c 0,-626.7 262.43,-990 696.93,-990 262.79,0 404.26,91.1 656.97,364 l 454.66,-242.7 c -212.03,-404.2 -646.89,-636.4 -1111.63,-636.4 -757.77,0 -1222.5,601.2 -1222.5,1495.4 0,919.1 465.81,1484.7 1222.5,1484.7 464.74,0 889.52,-231.9 1111.63,-636.2 l -454.66,-242.6 c -100.08,174.6 -350.99,364 -656.97,364 -525.58,0 -696.93,-515.6 -696.93,-960.2"
         style="fill:#ffffff;fill-opacity:1;fill-rule:nonzero;stroke:none"
         transform="matrix(0.13333333,0,0,-0.13333333,0,4032.6667)" />
      <path
         id="path6"
         d="M 5660.99,28352.5 H 7770.13 V 27837 H 6188.36 v -535.3 h 861.8 v -525.6 h -861.8 V 25988 h 1632.53 v -515.5 h -2159.9 v 2880"
         style="fill:#ffffff;fill-opacity:1;fill-rule:nonzero;stroke:none"
         transform="matrix(0.13333333,0,0,-0.13333333,0,4032.6667)" />
      <path
         id="path7"
         d="m 8904.23,27453.2 v -1980.7 h -507.21 v 2880 h 506.86 L 10234,26452.4 v 1900.1 h 497.2 v -2880 h -446.8 l -1380.17,1980.7"
         style="fill:#ffffff;fill-opacity:1;fill-rule:nonzero;stroke:none"
         transform="matrix(0.13333333,0,0,-0.13333333,0,4032.6667)" />
      <path
         id="path8"
         d="m 12553.2,25472.5 h -504.7 v 2374.6 h -827.6 v 505.4 h 2159.9 v -505.4 h -827.6 v -2374.6"
         style="fill:#ffffff;fill-opacity:1;fill-rule:nonzero;stroke:none"
         transform="matrix(0.13333333,0,0,-0.13333333,0,4032.6667)" />
      <path
         id="path9"
         d="m 13870.5,28352.5 h 2109.1 V 27837 h -1581.7 v -535.3 h 861.8 v -525.6 h -861.8 V 25988 h 1632.5 v -515.5 h -2159.9 v 2880"
         style="fill:#ffffff;fill-opacity:1;fill-rule:nonzero;stroke:none"
         transform="matrix(0.13333333,0,0,-0.13333333,0,4032.6667)" />
      <path
         id="path10"
         d="m 17122,27837 v -717.1 h 829.4 c 252.4,0 414,145 414,353.5 0,222.5 -162,363.6 -414.3,363.6 z m 1293.4,-1131.8 525.3,-1232.7 H 18365 l -464.7,1131.9 H 17122 v -1131.9 h -515.5 v 2880 H 17968 c 595,0 912.2,-470.1 912.2,-879.1 0,-323.3 -171.7,-606.6 -464.8,-768.2"
         style="fill:#ffffff;fill-opacity:1;fill-rule:nonzero;stroke:none"
         transform="matrix(0.13333333,0,0,-0.13333333,0,4032.6667)" />
      <path
         id="path11"
         d="m 5271.1,24032.5 h 517.29 V 21597.1 H 7431 v -444.6 H 5271.1 v 2880"
         style="fill:#ffffff;fill-opacity:1;fill-rule:nonzero;stroke:none"
         transform="matrix(0.13333333,0,0,-0.13333333,0,4032.6667)" />
      <path
         id="path12"
         d="m 8732.13,22344.8 h 808.16 l -403.9,970.2 z m 1030.63,-515.1 H 8510.02 l -282.95,-677.2 h -565.53 l 1212.42,2880 h 525.21 l 1202.03,-2880 h -555.9 l -282.54,677.2"
         style="fill:#ffffff;fill-opacity:1;fill-rule:nonzero;stroke:none"
         transform="matrix(0.13333333,0,0,-0.13333333,0,4032.6667)" />
      <path
         id="path13"
         d="m 11598.1,23133.2 v -1980.7 h -507.2 v 2880 h 506.9 l 1330.1,-1900.1 v 1900.1 h 497.2 v -2880 h -446.8 l -1380.2,1980.7"
         style="fill:#ffffff;fill-opacity:1;fill-rule:nonzero;stroke:none"
         transform="matrix(0.13333333,0,0,-0.13333333,0,4032.6667)" />
      <path
         id="path14"
         d="m 14174,24032.5 h 2109.1 V 23517 h -1581.7 v -535.3 h 861.8 v -525.6 h -861.8 V 21668 h 1632.5 v -515.5 H 14174 v 2880"
         style="fill:#ffffff;fill-opacity:1;fill-rule:nonzero;stroke:none"
         transform="matrix(0.13333333,0,0,-0.13333333,0,4032.6667)" />
      <path
         id="path15"
         d="m 7459.18,12193.2 v 1849.3 h 454.3 v -1849.3 c 0,-374.1 212.4,-616.3 525.58,-616.3 313.19,0 525.58,242.2 525.58,616.3 v 1849.3 h 455.03 v -1849.3 c 0,-910.8 -698.74,-1081.1 -980.25,-1081.1 -256.31,0 -980.24,150.9 -980.24,1081.1"
         style="fill:#231f20;fill-opacity:1;fill-rule:nonzero;stroke:none"
         transform="matrix(0.13333333,0,0,-0.13333333,0,4032.6667)" />
      <path
         id="path16"
         d="m 9909.38,11839.7 434.52,161.6 c 121.3,-272.9 343.4,-424.4 616.3,-424.4 262.8,0 444.9,181.8 444.9,424.4 0,385.2 -444.6,444.6 -818.6,596.2 -171.7,70.9 -555.8,242.6 -555.8,717.4 0,566.3 383.7,777.6 899.2,777.6 404.3,0 677.2,-232.5 818.6,-586 l -404.2,-121.4 c -45.4,113.8 -209.9,252.8 -424.4,252.8 -410.8,0 -445.7,-219.3 -445.7,-291.3 0,-269.3 232.2,-322.5 609.8,-441 384.5,-120.9 785.9,-297.7 785.9,-915.1 0,-621.7 -504,-878.4 -909.7,-878.4 -495.4,0 -858.9,293.1 -1050.82,727.6"
         style="fill:#231f20;fill-opacity:1;fill-rule:nonzero;stroke:none"
         transform="matrix(0.13333333,0,0,-0.13333333,0,4032.6667)" />
      <path
         id="path17"
         d="m 12359.6,14042.5 h 1695.5 v -454.7 h -1241.2 v -707.4 h 837.7 v -464.7 h -837.7 v -788.4 h 1331.9 v -464.8 h -1786.2 v 2880"
         style="fill:#231f20;fill-opacity:1;fill-rule:nonzero;stroke:none"
         transform="matrix(0.13333333,0,0,-0.13333333,0,4032.6667)" />
      <path
         id="path18"
         d="m 11137.6,17432.6 v -1950.1 h -454.3 v 2880 h 454.3 l 1051.2,-1839.2 v 1839.2 h 455 v -2880 h -404.3 l -1101.9,1950.1"
         style="fill:#231f20;fill-opacity:1;fill-rule:nonzero;stroke:none"
         transform="matrix(0.13333333,0,0,-0.13333333,0,4032.6667)" />
      <path
         id="path19"
         d="m 16814.5,15482.5 h -456.8 v 2475.7 h -659.5 v 404.3 h 1786.3 v -404.3 h -670 v -2475.7"
         style="fill:#231f20;fill-opacity:1;fill-rule:nonzero;stroke:none"
         transform="matrix(0.13333333,0,0,-0.13333333,0,4032.6667)" />
      <path
         id="path20"
         d="m 5090.35,17907.8 h -515.5 v -1960.2 h 483.45 c 419.03,0 556.55,507.6 556.55,1049.8 0,257.7 -73.45,910.4 -524.5,910.4 z m -969.8,-2425.3 v 2880 h 1038.91 c 726.81,0 921.56,-957.2 921.56,-1375.2 0,-1080.4 -555.46,-1504.8 -919.76,-1504.8 H 4120.55"
         style="fill:#231f20;fill-opacity:1;fill-rule:nonzero;stroke:none"
         transform="matrix(0.13333333,0,0,-0.13333333,0,4032.6667)" />
      <path
         id="path21"
         d="m 7685.23,15896.5 c 310.33,0 562.32,294.1 562.32,1026 0,731.9 -251.99,1026 -562.32,1026 -310.32,0 -562.31,-293.8 -562.31,-1026 0,-731.9 251.99,-1026 562.31,-1026 z m 1018.08,1026 c 0,-103.3 21.96,-1490.4 -1023.11,-1490.4 -1045.08,0 -1023.12,1387.1 -1023.12,1490.4 0,103.3 -21.96,1490 1023.12,1490 1045.07,0 1023.11,-1386.7 1023.11,-1490"
         style="fill:#231f20;fill-opacity:1;fill-rule:nonzero;stroke:none"
         transform="matrix(0.13333333,0,0,-0.13333333,0,4032.6667)" />
      <path
         id="path22"
         d="m 14424.8,15896.5 c 310.3,0 562.3,294.1 562.3,1026 0,731.9 -252,1026 -562.3,1026 -310.4,0 -562.4,-293.8 -562.4,-1026 0,-731.9 252,-1026 562.4,-1026 z m 1018,1026 c 0,-103.3 22,-1490.4 -1023.1,-1490.4 -1045.1,0 -1023.1,1387.1 -1023.1,1490.4 0,103.3 -22,1490 1023.1,1490 1045.1,0 1023.1,-1386.7 1023.1,-1490"
         style="fill:#231f20;fill-opacity:1;fill-rule:nonzero;stroke:none"
         transform="matrix(0.13333333,0,0,-0.13333333,0,4032.6667)" />
      <path
         id="path23"
         d="m 11159.7,4041.2 h 1080 v -337.5 h -1080 v 337.5"
         style="fill:#231f20;fill-opacity:1;fill-rule:nonzero;stroke:none"
         transform="matrix(0.13333333,0,0,-0.13333333,0,4032.6667)" />
      <path
         id="path24"
         d="m 13660.5,4080.9 h 628.3 v -348.5 h -628.3 v -939.9 h -340.8 v 2160 h 1339.8 v -341 h -999 v -530.6"
         style="fill:#231f20;fill-opacity:1;fill-rule:nonzero;stroke:none"
         transform="matrix(0.13333333,0,0,-0.13333333,0,4032.6667)" />
      <path
         id="path25"
         d="m 15753.3,4080.9 c 271.1,0 313.7,195.5 313.7,265.2 0,94.2 -70.4,265.4 -297.2,265.4 h -445.5 v -530.6 z m -429,-348.3 v -940.1 h -340.8 v 2160 h 781.4 c 495.2,0 643.7,-396.1 643.7,-606.7 0,-80.2 -29.7,-396.1 -335.3,-540.8 L 16454,2792.5 h -371.6 l -348.5,940.1 h -409.6"
         style="fill:#231f20;fill-opacity:1;fill-rule:nonzero;stroke:none"
         transform="matrix(0.13333333,0,0,-0.13333333,0,4032.6667)" />
      <path
         id="path26"
         d="m 16821.3,4952.5 h 345.5 v -2160 h -345.5 v 2160"
         style="fill:#231f20;fill-opacity:1;fill-rule:nonzero;stroke:none"
         transform="matrix(0.13333333,0,0,-0.13333333,0,4032.6667)" />
      <path
         id="path27"
         d="M 5782.21,4043.1 5281.36,2792.5 4779.97,4043.1 V 2792.5 h -341.82 v 2160 h 341.82 l 501.39,-1212.6 500.85,1212.6 h 341.82 v -2160 h -341.82 v 1250.6"
         style="fill:#231f20;fill-opacity:1;fill-rule:nonzero;stroke:none"
         transform="matrix(0.13333333,0,0,-0.13333333,0,4032.6667)" />
      <path
         id="path28"
         d="m 7370.45,3103 c 232.74,0 421.74,220.6 421.74,769.5 0,548.9 -189,769.5 -421.74,769.5 -232.74,0 -421.74,-220.3 -421.74,-769.5 0,-548.9 189,-769.5 421.74,-769.5 z m 763.56,769.5 c 0,-77.5 16.47,-1117.8 -767.34,-1117.8 -783.81,0 -767.34,1040.3 -767.34,1117.8 0,77.5 -16.47,1117.5 767.34,1117.5 783.81,0 767.34,-1040 767.34,-1117.5"
         style="fill:#231f20;fill-opacity:1;fill-rule:nonzero;stroke:none"
         transform="matrix(0.13333333,0,0,-0.13333333,0,4032.6667)" />
      <path
         id="path29"
         d="M 8950.06,4255.1 V 2792.5 h -340.74 v 2160 h 340.74 l 788.39,-1379.4 v 1379.4 h 341.25 v -2160 h -303.18 l -826.46,1462.6"
         style="fill:#231f20;fill-opacity:1;fill-rule:nonzero;stroke:none"
         transform="matrix(0.13333333,0,0,-0.13333333,0,4032.6667)" />
      <path
         id="path30"
         d="m 14283.6,7665.6 h 579.3 l -284.8,808.2 z m 741.6,-464.7 h -904.3 l -284.8,-808.6 h -487.8 l 996.2,2880 h 457.5 l 995.8,-2880 H 15310 l -284.8,808.6"
         style="fill:#231f20;fill-opacity:1;fill-rule:nonzero;stroke:none"
         transform="matrix(0.13333333,0,0,-0.13333333,0,4032.6667)" />
      <path
         id="path31"
         d="m 18022,8059.8 -667.8,-1667.5 -668.5,1667.5 V 6392.3 h -455.8 v 2880 h 455.8 l 668.5,-1616.7 667.8,1616.7 h 455.8 v -2880 H 18022 v 1667.5"
         style="fill:#231f20;fill-opacity:1;fill-rule:nonzero;stroke:none"
         transform="matrix(0.13333333,0,0,-0.13333333,0,4032.6667)" />
      <path
         id="path32"
         d="m 6527.8,8057.3 h 1439.99 v -450 H 6527.8 v 450"
         style="fill:#231f20;fill-opacity:1;fill-rule:nonzero;stroke:none"
         transform="matrix(0.13333333,0,0,-0.13333333,0,4032.6667)" />
      <path
         id="path33"
         d="m 9872.55,8443.6 c 0,-242.6 228.95,-414 515.55,-414 293,0 525.6,181.4 525.6,414 0,229.7 -237.3,414.4 -525.6,414.4 -283,0 -515.55,-181.9 -515.55,-414.4 z m 161.95,-1717.9 c 343.5,272.9 525.6,505.1 697.4,879.1 -161.7,-29.9 -232.6,-40 -343.8,-40 -537.15,0 -980.31,393.9 -980.31,879.2 0,500 434.88,879.1 980.31,879.1 550.8,0 980.2,-395 980.2,-919.8 0,-786.3 -444.6,-1606.7 -1111.6,-2061.4 l -222.2,383.8"
         style="fill:#231f20;fill-opacity:1;fill-rule:nonzero;stroke:none"
         transform="matrix(0.13333333,0,0,-0.13333333,0,4032.6667)" />
      <path
         id="path34"
         d="m 3767.32,6392.3 c 0,1123.6 471.24,2017.8 741.6,2425.3 H 3127.25 v 454.7 H 5087.8 V 8817.6 C 4894.84,8614.9 4234.6,7690.5 4234.6,6392.3 h -467.28"
         style="fill:#231f20;fill-opacity:1;fill-rule:nonzero;stroke:none"
         transform="matrix(0.13333333,0,0,-0.13333333,0,4032.6667)" />
    </g>
  </g>
</svg>
