<?xml version="1.0" encoding="UTF-8" standalone="no"?>
<!-- Created with Inkscape (http://www.inkscape.org/) -->

<svg
   version="1.1"
   id="svg1"
   width="3456.6667"
   height="3456.6667"
   viewBox="0 0 3456.6667 3456.6667"
   sodipodi:docname="tmp5dqv30r2.pdf"
   xmlns:inkscape="http://www.inkscape.org/namespaces/inkscape"
   xmlns:sodipodi="http://sodipodi.sourceforge.net/DTD/sodipodi-0.dtd"
   xmlns="http://www.w3.org/2000/svg"
   xmlns:svg="http://www.w3.org/2000/svg">
  <defs
     id="defs1" />
  <sodipodi:namedview
     id="namedview1"
     pagecolor="#ffffff"
     bordercolor="#000000"
     borderopacity="0.25"
     inkscape:showpageshadow="2"
     inkscape:pageopacity="0.0"
     inkscape:pagecheckerboard="0"
     inkscape:deskcolor="#d1d1d1">
    <inkscape:page
       x="0"
       y="0"
       inkscape:label="1"
       id="page1"
       width="3456.6667"
       height="3456.6667"
       margin="0"
       bleed="0" />
  </sodipodi:namedview>
  <g
     id="g1"
     inkscape:groupmode="layer"
     inkscape:label="1">
    <g
       id="group-R5">
      <path
         id="path2"
         d="M 1622.5,1.20313 C 728.539,1.20313 1.25,728.5 1.25,1622.5 v 22680 c 0,894 727.289,1621.3 1621.25,1621.3 h 22680 c 894,0 1621.3,-727.3 1621.3,-1621.3 v -22680 c 0,-894 -727.3,-1621.29687 -1621.3,-1621.29687 h -22680"
         style="fill:#ffffff;fill-opacity:1;fill-rule:nonzero;stroke:none"
         transform="matrix(0.13333333,0,0,-0.13333333,0,3456.6667)" />
      <path
         id="path3"
         d="m 24302.5,25925 h -22680 c -433.38,0 -840.832,-168.8 -1147.281,-475.2 C 168.77,25143.3 0,24735.9 0,24302.5 V 1622.5 C 0,1189.1 168.77,781.699 475.219,475.199 781.668,168.801 1189.12,0 1622.5,0 h 22680 c 433.4,0 840.8,168.801 1147.3,475.199 306.4,306.5 475.2,713.901 475.2,1147.301 v 22680 c 0,433.4 -168.8,840.8 -475.2,1147.3 -306.5,306.4 -713.9,475.2 -1147.3,475.2 z m 0,-2.5 c 894.7,0 1620,-725.3 1620,-1620 v -22680 c 0,-894.699 -725.3,-1620 -1620,-1620 H 1622.5 C 727.797,2.5 2.5,727.801 2.5,1622.5 v 22680 c 0,894.7 725.297,1620 1620,1620 h 22680"
         style="fill:#231f20;fill-opacity:1;fill-rule:nonzero;stroke:none"
         transform="matrix(0.13333333,0,0,-0.13333333,0,3456.6667)" />
      <path
         id="path4"
         d="m 1622.5,542.5 c -595.52,0 -1080,484.5 -1080,1080 v 22680 c 0,595.5 484.48,1080 1080,1080 h 22680 c 595.5,0 1080,-484.5 1080,-1080 v -22680 c 0,-595.5 -484.5,-1080 -1080,-1080 h -22680"
         style="fill:#652168;fill-opacity:1;fill-rule:nonzero;stroke:none"
         transform="matrix(0.13333333,0,0,-0.13333333,0,3456.6667)" />
      <path
         id="path5"
         d="m 23762.5,12242.5 h -21600 v 10800 h 21600 v -10800"
         style="fill:#ffffff;fill-opacity:1;fill-rule:nonzero;stroke:none"
         transform="matrix(0.13333333,0,0,-0.13333333,0,3456.6667)" />
      <path
         id="path6"
         d="m 22682.5,3422.5 c 0,-298.2 -241.8,-540 -540,-540 h -18360 c -298.23,0 -540,241.8 -540,540 v 5400 c 0,298.2 241.77,540 540,540 h 18360 c 298.2,0 540,-241.8 540,-540 v -5400"
         style="fill:#ffffff;fill-opacity:1;fill-rule:evenodd;stroke:none"
         transform="matrix(0.13333333,0,0,-0.13333333,0,3456.6667)" />
      <path
         id="path7"
         d="M 21711.1,15280.3 H 10479.6 l 29.6,127.4 h 11231.6 l -29.7,-127.4"
         style="fill:#652168;fill-opacity:1;fill-rule:nonzero;stroke:none"
         transform="matrix(0.13333333,0,0,-0.13333333,0,3456.6667)" />
      <path
         id="path8"
         d="m 8835.49,14926.9 h -954.25 l 29.78,128.5 h 954.9 l -30.43,-128.5"
         style="fill:#652168;fill-opacity:1;fill-rule:nonzero;stroke:none"
         transform="matrix(0.13333333,0,0,-0.13333333,0,3456.6667)" />
      <path
         id="path9"
         d="m 12034.3,14926.9 h -952.9 l 27.7,128.5 h 954.9 l -29.7,-128.5"
         style="fill:#652168;fill-opacity:1;fill-rule:nonzero;stroke:none"
         transform="matrix(0.13333333,0,0,-0.13333333,0,3456.6667)" />
      <path
         id="path10"
         d="m 15235.1,14926.9 h -956.4 l 29.9,128.5 h 954.9 l -28.4,-128.5"
         style="fill:#652168;fill-opacity:1;fill-rule:nonzero;stroke:none"
         transform="matrix(0.13333333,0,0,-0.13333333,0,3456.6667)" />
      <path
         id="path11"
         d="m 18432.5,14926.9 h -954.9 l 28.4,128.5 h 956.2 l -29.7,-128.5"
         style="fill:#652168;fill-opacity:1;fill-rule:nonzero;stroke:none"
         transform="matrix(0.13333333,0,0,-0.13333333,0,3456.6667)" />
      <path
         id="path12"
         d="m 21631.8,14926.9 h -956 l 29.7,128.5 h 954.9 l -28.6,-128.5"
         style="fill:#652168;fill-opacity:1;fill-rule:nonzero;stroke:none"
         transform="matrix(0.13333333,0,0,-0.13333333,0,3456.6667)" />
      <path
         id="path13"
         d="M 21551.4,14574.6 H 6768.14 l 29.03,127.9 H 21579.8 l -28.4,-127.9"
         style="fill:#652168;fill-opacity:1;fill-rule:nonzero;stroke:none"
         transform="matrix(0.13333333,0,0,-0.13333333,0,3456.6667)" />
      <path
         id="path14"
         d="m 3824.28,19676.5 -221.78,-959 h 1739.35 l -955.56,-4142.9 h 1116.57 l 955.55,4142.9 h 2881.61 l 221.11,959 H 3824.28"
         style="fill:#231f20;fill-opacity:1;fill-rule:nonzero;stroke:none"
         transform="matrix(0.13333333,0,0,-0.13333333,0,3456.6667)" />
      <path
         id="path15"
         d="m 7449.15,16771.1 c -64.96,0 -150.17,9.2 -186.02,54.1 -43.22,54.8 -47.33,180 -10.83,335.5 110.97,488.9 404.46,488.9 501.16,488.9 64.23,0 149.43,-9.4 185.29,-54.8 43.31,-54 46.67,-179.2 10.82,-334.4 -112.27,-489.3 -403.71,-489.3 -500.42,-489.3 z m 1401.19,1394.5 c -208.26,262 -559.23,406.9 -986.64,406.9 -634.36,0 -1455.31,-344 -1677.85,-1312.1 -117.7,-511 25.68,-828.7 166.34,-1005.2 208.34,-262.5 559.3,-406.5 986.73,-406.5 635.68,0 1455.96,343.8 1676.44,1312 118.36,509.2 -24.36,827.4 -165.02,1004.9"
         style="fill:#231f20;fill-opacity:1;fill-rule:nonzero;stroke:none"
         transform="matrix(0.13333333,0,0,-0.13333333,0,3456.6667)" />
      <path
         id="path16"
         d="M 9833.7,20710.4 8588.68,15280.3 H 9659.9 l 1245.7,5430.1 H 9833.7"
         style="fill:#231f20;fill-opacity:1;fill-rule:nonzero;stroke:none"
         transform="matrix(0.13333333,0,0,-0.13333333,0,3456.6667)" />
      <path
         id="path17"
         d="M 11060.4,20710.4 9814.76,15280.3 H 10886 l 1247,5430.1 h -1072.6"
         style="fill:#231f20;fill-opacity:1;fill-rule:nonzero;stroke:none"
         transform="matrix(0.13333333,0,0,-0.13333333,0,3456.6667)" />
      <path
         id="path18"
         d="m 20889.4,16722.4 c -190,0 -236.8,37.2 -223.1,48 l 2.6,11.2 c 56.1,-11.8 111.5,-22.6 165,-32.5 35.1,-7.3 77.1,-15.1 119.1,-23.9 -19,-2 -40.7,-2.8 -63.6,-2.8 z m -2453.5,0 c -190.1,0 -236,37.2 -222.4,46.1 l 3.3,13.1 c 55.4,-11.8 110.2,-22.6 163.7,-32.5 35.7,-7.3 77.1,-15.1 118.9,-23.9 -18.9,-2 -40.5,-2.8 -63.5,-2.8 z m -1335.6,-324.5 c 2.6,23.6 7.4,57.1 18.2,102 l 17.5,74.5 c 8.9,-79.9 28.6,-149.4 54.8,-208.3 z m -1382.3,289.4 c 16.8,71 46,116.9 308.9,157.6 30.5,4 58.9,8.4 86.7,12.5 -84.5,-98.4 -249.6,-161.9 -395.6,-170.1 z m -1291.6,1907.8 c -30.6,-127.1 -67.1,-284.1 -383.6,-284.1 H 13708 l 95.3,418 h 349.8 c 227.8,0 279.2,-41.4 280.5,-41.4 0.6,-2.3 7.5,-26.9 -7.2,-92.5 z m 7882.4,-994.1 c 41.2,268.4 -10.6,489.5 -154.8,656.7 -181.9,211.6 -493.6,314.8 -952.3,314.8 -830.4,0 -1232.6,-463.6 -1331.4,-896.5 -45.4,-194.7 -21,-365.8 72.2,-508.6 31.2,-48.7 69.1,-90.5 110.9,-127.4 h -306.9 c -12.2,81.5 -40.6,157.9 -85.8,227.5 -36,56.1 -80.6,104.2 -131.3,145.5 h 296.9 l 28.3,188 c 41.3,268.4 -10.9,489.5 -154.9,656.7 -181.7,211.6 -494.2,314.8 -952.8,314.8 -831,0 -1236.2,-483.3 -1330.8,-896.5 -45.5,-194.7 -20.4,-365.8 72.3,-508.6 31.2,-48.7 68.9,-90.5 110.9,-127.4 H 17243 l 145.3,634 c 65,281 -23.6,467.2 -108.2,575.2 -223.8,281.6 -658.7,323.3 -898,323.3 -188.7,0 -566.8,-2.8 -902.3,-209.3 10.9,35.7 24.3,73 31.9,104.8 101.3,441.2 -22.3,715.4 -143.4,868.3 -123.7,154.8 -369.3,340.2 -838.6,340.2 h -1624.4 l -871,-3771.7 h 1116.5 l 336.7,1459.1 h 584.4 c 364.5,0 647.8,109.6 865.6,265.2 l -85.9,-257.4 h 210.3 c -201.5,-149.8 -340.1,-361.7 -400.3,-621.6 -71.7,-308.2 21,-509.2 111.5,-623 142.8,-179.7 382.3,-278.4 673,-278.4 261.8,0 465.2,60.2 624.8,136.6 l 9.5,-80.5 h 1035.9 l 97.5,407.5 c 21.7,-39.6 45.3,-74 68.2,-102.4 245.6,-299 699.5,-361.2 1036.8,-361.2 482.9,0 1025.9,169.8 1287.7,610.7 30.4,-107.6 81.1,-190.4 129.8,-250.3 245.6,-298.2 698.7,-360.4 1036.1,-360.4 582.2,0 1260.5,240.8 1415.5,916.3 44,191.5 19.6,359.8 -72.5,502.5 -36.4,56.1 -81,104.2 -131.9,145.5 h 297 l 28.3,188"
         style="fill:#231f20;fill-opacity:1;fill-rule:nonzero;stroke:none"
         transform="matrix(0.13333333,0,0,-0.13333333,0,3456.6667)" />
      <path
         id="path19"
         d="m 5414.92,14685.4 h -889.35 l 956.29,4143 H 3741.77 l 171.09,737.5 h 5508.93 l -170.36,-737.5 H 6370.49 l -955.57,-4143 v 0"
         style="fill:#ffffff;fill-opacity:1;fill-rule:nonzero;stroke:none"
         transform="matrix(0.13333333,0,0,-0.13333333,0,3456.6667)" />
      <path
         id="path20"
         d="m 7753.46,17760.6 c -394.27,0 -549.14,-313.1 -610,-574.9 -43.97,-193.5 -32.47,-346.2 33.8,-428.7 50.78,-64.3 142.71,-96.8 271.89,-96.8 393.56,0 547.75,312.5 608.61,574.8 43.96,194.1 33.13,346 -33.14,428.8 -50.02,64.3 -141.98,96.8 -271.16,96.8 z m -414.54,-1801 c -392.97,0 -713.5,129.2 -900.11,364.5 -179.95,226.5 -230.65,541 -145.43,910.9 209,905.9 976.56,1226.4 1570.32,1226.4 392.88,0 712.77,-129.4 900.11,-365.1 179.87,-226.3 229.9,-541.4 144.02,-911 -206.28,-905.2 -973.84,-1225.7 -1568.91,-1225.7 v 0"
         style="fill:#ffffff;fill-opacity:1;fill-rule:nonzero;stroke:none"
         transform="matrix(0.13333333,0,0,-0.13333333,0,3456.6667)" />
      <path
         id="path21"
         d="m 9571.96,15391.2 h -844.65 l 1193.58,5208.4 h 845.31 L 9571.96,15391.2 v 0"
         style="fill:#ffffff;fill-opacity:1;fill-rule:nonzero;stroke:none"
         transform="matrix(0.13333333,0,0,-0.13333333,0,3456.6667)" />
      <path
         id="path22"
         d="m 10798.7,15391.2 h -844.68 l 1194.38,5208.4 h 845.9 l -1195.6,-5208.4 v 0"
         style="fill:#ffffff;fill-opacity:1;fill-rule:nonzero;stroke:none"
         transform="matrix(0.13333333,0,0,-0.13333333,0,3456.6667)" />
      <path
         id="path23"
         d="m 13569.4,18200.1 h 473.4 c 404.4,0 460.5,240.8 490.8,369.6 20.4,87.6 16.4,149.1 -11.4,184.2 -31,39 -120.3,86 -369.1,86 h -437.7 l -146,-639.8 z m -506.5,-2184.4 h -889.4 l 820.4,3550.2 h 1535.8 c 336.1,0 596.5,-103.2 752,-298.2 152.9,-191.8 194.9,-459.7 122.4,-774.1 -80.4,-352.7 -462.6,-1018.7 -1332.2,-1018.7 h -672.1 l -336.9,-1459.2 v 0"
         style="fill:#ffffff;fill-opacity:1;fill-rule:nonzero;stroke:none"
         transform="matrix(0.13333333,0,0,-0.13333333,0,3456.6667)" />
      <path
         id="path24"
         d="m 16290.1,17004.6 c -73.7,-18.4 -164.4,-34.7 -278.1,-50.2 -242.1,-37.1 -364.5,-83.2 -401.6,-241.7 -8.8,-40 -6.9,-70 8.1,-87.6 18.2,-23.6 62.1,-38.5 112.3,-38.5 222.5,0 493,131.2 541.7,343.1 l 17.6,74.9 z m -88,781 c -238.6,0 -303.6,-119.8 -345.6,-231.3 l -11.5,-32.5 435.5,58.5 c 96.7,11.9 150.8,40.9 161,87 4.7,19.5 10.1,55.4 -2.7,72.3 -24.9,30 -104.1,46 -236.7,46 z m -756,-1826 c -256.9,0 -465.3,83.8 -586.3,236.4 -75.2,94.9 -152.3,263.4 -90.6,529.8 90.6,392.9 385.4,664.1 816.1,756.8 h -580.2 l 48.1,145.8 c 246.9,738.7 839.2,833 1328.9,833 219.2,0 616,-36.1 811.3,-281.6 101.6,-127.9 131.3,-290.1 86.7,-480.9 L 17011,16525.4 c -39.3,-168.8 -18.3,-206.7 -17.7,-208 l 94.2,-32.5 -58.3,-269.2 h -850.9 l -12.1,96.8 c -2.6,18.2 -4.6,35.1 -5.9,49.7 -163.1,-103.2 -391.7,-202.6 -714.2,-202.6 v 0"
         style="fill:#ffffff;fill-opacity:1;fill-rule:nonzero;stroke:none"
         transform="matrix(0.13333333,0,0,-0.13333333,0,3456.6667)" />
      <path
         id="path25"
         d="m 18682.6,17809.2 c -291.3,0 -313,-91.9 -321.2,-126.5 27.8,-29.7 234,-70.2 369.3,-96.9 60.2,-11.2 123.2,-24.2 186.7,-37.9 l 4.7,91.7 c 3.3,66.2 -3.4,100 -22.3,120.2 -17.7,18.4 -69,49.4 -217.2,49.4 z m -548.4,-895.4 -28.3,-120.4 c -16.9,-72.3 2.6,-97.3 9.5,-105.5 17.5,-22.3 85.8,-76.4 320.5,-76.4 250.8,0 327.9,100.6 337.5,138.6 -26.5,40.7 -235.4,80.6 -372.8,107.3 -87.1,17.2 -177.8,34.5 -266.4,56.4 z m 184.6,-954.2 c -313.7,0 -733.6,54.8 -950.8,319.9 -121.1,148.1 -159.5,336.8 -114.8,561.3 l 18,88.3 h 802.2 c -203.6,55.8 -389.5,139.9 -491.7,298.5 -76.4,117 -95.9,259.1 -58.2,423.4 89.9,392.3 458.7,810.4 1223.4,810.4 424.8,0 708.7,-90.2 869.2,-276.2 121.7,-141.3 165,-332.7 129.7,-567.3 l -14.3,-94 h -711.9 c 222.4,-57.6 437.3,-145.5 548.2,-316.6 75.8,-116.3 94.8,-256.2 58.3,-417.2 -177.2,-771 -1045.5,-830.5 -1307.3,-830.5 v 0"
         style="fill:#ffffff;fill-opacity:1;fill-rule:nonzero;stroke:none"
         transform="matrix(0.13333333,0,0,-0.13333333,0,3456.6667)" />
      <path
         id="path26"
         d="m 21137.6,17809.2 c -293.5,0 -313.9,-91.2 -322.1,-125.7 27.9,-30.5 233.5,-71 369.5,-97.7 59.3,-11.2 122.3,-24.2 186,-37.9 l 3.9,90.8 c 2.6,67.8 -3.3,101.6 -22.9,121.9 -16.9,18.2 -68.3,48.6 -214.4,48.6 z m -552.5,-894.7 -27.1,-119.6 c -16.3,-73.8 4.1,-98.8 10.8,-107 18.4,-22.9 86,-76.4 320.6,-76.4 251,0 328.1,99.7 336.1,137.9 -25.8,41.4 -234.1,81.3 -371.2,108 -87.3,17.2 -179.3,34.5 -269.2,57.1 z m 187.3,-954.9 c -313.2,0 -733.1,54.8 -950.1,319.9 -121.1,148.1 -160.3,336.8 -115.7,560.7 l 17.6,88.9 h 803.3 c -203.4,55.8 -388.8,139.9 -492.1,298.5 -76.5,117 -95.5,259.1 -57.6,423.4 89.2,392.3 458.5,810.4 1223.9,810.4 424.2,0 708.2,-90.2 868.4,-276.2 122.4,-141.3 165.1,-332.7 130,-567.3 l -14.3,-94 H 21473 c 222.5,-57.6 438.2,-145.5 549.2,-316.6 75.7,-116.3 94.5,-256.2 58.1,-417.2 -177.2,-771 -1045.6,-830.5 -1307.9,-830.5 v 0"
         style="fill:#ffffff;fill-opacity:1;fill-rule:nonzero;stroke:none"
         transform="matrix(0.13333333,0,0,-0.13333333,0,3456.6667)" />
      <path
         id="path27"
         d="m 5327,14795.7 h -662.73 l 956.21,4142.6 H 3881.12 l 119.02,517.4 H 9283.17 L 9163.5,18938.3 H 6282.56 L 5327,14795.7"
         style="fill:#60c332;fill-opacity:1;fill-rule:nonzero;stroke:none"
         transform="matrix(0.13333333,0,0,-0.13333333,0,3456.6667)" />
      <path
         id="path28"
         d="m 7753.46,17870.7 c -476.14,0 -653.3,-382.7 -717.53,-659.9 -63.56,-277.6 -63.56,-660.8 413.22,-660.8 475.4,0 651.92,383.2 716.14,660.8 64.23,277.2 63.57,659.9 -411.83,659.9 z m -414.54,-1800.9 c -631.66,0 -1117.88,357.1 -938.01,1141 180.54,781.8 831.8,1140.9 1462.79,1140.9 630.91,0 1117.87,-359.1 936.6,-1140.9 -178.47,-783.9 -830.48,-1141 -1461.38,-1141"
         style="fill:#60c332;fill-opacity:1;fill-rule:nonzero;stroke:none"
         transform="matrix(0.13333333,0,0,-0.13333333,0,3456.6667)" />
      <path
         id="path29"
         d="m 9483.38,15501.1 h -617.46 l 1143.58,4988.2 h 618.1 L 9483.38,15501.1"
         style="fill:#60c332;fill-opacity:1;fill-rule:nonzero;stroke:none"
         transform="matrix(0.13333333,0,0,-0.13333333,0,3456.6667)" />
      <path
         id="path30"
         d="m 10710.1,15501.1 h -617.5 l 1144.3,4988.2 h 618.8 l -1145.6,-4988.2"
         style="fill:#60c332;fill-opacity:1;fill-rule:nonzero;stroke:none"
         transform="matrix(0.13333333,0,0,-0.13333333,0,3456.6667)" />
      <path
         id="path31"
         d="m 14042.8,18089.8 c 494.4,0 568.8,326.7 599.1,456.6 66.3,285.8 -78.4,403.7 -488.8,403.7 h -526.3 l -196,-860.3 z M 12975,16126.2 h -662.8 l 768.9,3329.5 h 1448.6 c 612.7,0 898.8,-363.5 766.9,-937.7 -60.8,-265.1 -373.2,-932.9 -1224.7,-932.9 h -760.1 L 12975,16126.2"
         style="fill:#60c332;fill-opacity:1;fill-rule:nonzero;stroke:none"
         transform="matrix(0.13333333,0,0,-0.13333333,0,3456.6667)" />
      <path
         id="path32"
         d="m 16443.4,17182 c -71.5,-44.9 -181.7,-81.5 -446.2,-118.1 -237.3,-36.4 -438.9,-89.9 -494.4,-325.9 -45.3,-200.2 108.3,-261.7 228,-261.7 273.2,0 588.3,164.4 649.2,428.8 z m 460,-632 c -59.5,-256.9 -10.8,-313.5 59.6,-338.1 l -20.4,-85.7 h -666.8 c -12.8,101.9 -14.1,135.1 2,256.8 -172.3,-134.5 -412.4,-313.2 -831.7,-313.2 -352.4,0 -673,183.3 -569.4,630.6 97.9,423.7 439.4,640.1 844.6,693.6 l 573.5,77.1 c 100.1,11.5 225.7,49 254.9,171.1 54.8,240.8 -188,253.6 -347.6,253.6 -309.7,0 -401.1,-175.2 -449,-303 h -594.4 c 221.1,665.5 743.1,758.9 1223.4,758.9 330.7,0 914.2,-93.4 790.5,-627.7 l -269.2,-1174"
         style="fill:#60c332;fill-opacity:1;fill-rule:nonzero;stroke:none"
         transform="matrix(0.13333333,0,0,-0.13333333,0,3456.6667)" />
      <path
         id="path33"
         d="m 19032.4,17634.1 c 6.7,139.3 -13.6,285.6 -349.8,285.6 -334.6,0 -407.1,-118.2 -428.8,-211.9 -77.1,-342.5 1448.7,-93.7 1264.8,-893.1 -144.7,-630.5 -834.6,-744.9 -1199.8,-744.9 -533.5,0 -1072.5,171.1 -957.5,748.7 h 636.9 c -43.3,-182.9 50.9,-317.2 437.7,-317.2 317.1,0 426,142.7 444.9,224.5 84,362.6 -1437,88.9 -1249.7,900.5 73,318.2 384.2,725.4 1115.8,725.4 459.2,0 982.7,-105.2 889.3,-717.6 h -603.8"
         style="fill:#60c332;fill-opacity:1;fill-rule:nonzero;stroke:none"
         transform="matrix(0.13333333,0,0,-0.13333333,0,3456.6667)" />
      <path
         id="path34"
         d="m 21485.2,17634.1 c 6,139.3 -13.5,285.6 -347.6,285.6 -336.8,0 -408.5,-118.2 -429.5,-211.9 -78.4,-342.5 1449.3,-93.7 1264.6,-893.1 -145.3,-630.5 -833.7,-744.9 -1200.3,-744.9 -533.6,0 -1072,171.1 -957.5,748.7 h 635.5 c -41.2,-182.9 52.1,-317.2 439,-317.2 317.2,0 426.1,142.7 444.2,224.5 84.6,362.6 -1435.7,88.9 -1248.4,900.5 73.2,318.2 382.9,725.4 1116.5,725.4 458.7,0 982,-105.2 888.8,-717.6 h -605.3"
         style="fill:#60c332;fill-opacity:1;fill-rule:nonzero;stroke:none"
         transform="matrix(0.13333333,0,0,-0.13333333,0,3456.6667)" />
      <path
         id="path35"
         d="M 10337.1,6887.7 V 3962.5 h -681.48 v 4320 h 681.48 l 1576.7,-2758.8 v 2758.8 h 682.5 v -4320 h -606.4 l -1652.8,2925.2"
         style="fill:#231f20;fill-opacity:1;fill-rule:nonzero;stroke:none"
         transform="matrix(0.13333333,0,0,-0.13333333,0,3456.6667)" />
      <path
         id="path36"
         d="m 13633.3,8282.5 h 681.4 V 4599.2 h 1998 v -636.7 h -2679.4 v 4320"
         style="fill:#231f20;fill-opacity:1;fill-rule:nonzero;stroke:none"
         transform="matrix(0.13333333,0,0,-0.13333333,0,3456.6667)" />
      <path
         id="path37"
         d="m 18781.1,3962.5 h -685.8 V 5842.3 L 16572,8282.5 h 822.9 L 18430.6,6615 19482,8282.5 h 807.2 L 18781.1,5842.3 V 3962.5"
         style="fill:#231f20;fill-opacity:1;fill-rule:nonzero;stroke:none"
         transform="matrix(0.13333333,0,0,-0.13333333,0,3456.6667)" />
      <path
         id="path38"
         d="m 7178.07,4583.5 c 465.47,0 843.47,441.2 843.47,1539 0,1097.8 -378,1539 -843.47,1539 -465.48,0 -843.48,-440.6 -843.48,-1539 0,-1097.8 378,-1539 843.48,-1539 z m 1527.11,1539 c 0,-154.9 32.94,-2235.6 -1534.67,-2235.6 -1567.62,0 -1534.68,2080.7 -1534.68,2235.6 0,155 -32.94,2235.1 1534.68,2235.1 1567.61,0 1534.67,-2080.1 1534.67,-2235.1"
         style="fill:#231f20;fill-opacity:1;fill-rule:nonzero;stroke:none"
         transform="matrix(0.13333333,0,0,-0.13333333,0,3456.6667)" />
    </g>
  </g>
</svg>
