<?xml version="1.0" encoding="UTF-8" standalone="no"?>
<!-- Created with Inkscape (http://www.inkscape.org/) -->

<svg
   version="1.1"
   id="svg1"
   width="8640.667"
   height="6336.6665"
   viewBox="0 0 8640.667 6336.6665"
   sodipodi:docname="tmp4u1mr9e7.pdf"
   xmlns:inkscape="http://www.inkscape.org/namespaces/inkscape"
   xmlns:sodipodi="http://sodipodi.sourceforge.net/DTD/sodipodi-0.dtd"
   xmlns="http://www.w3.org/2000/svg"
   xmlns:svg="http://www.w3.org/2000/svg">
  <defs
     id="defs1" />
  <sodipodi:namedview
     id="namedview1"
     pagecolor="#ffffff"
     bordercolor="#000000"
     borderopacity="0.25"
     inkscape:showpageshadow="2"
     inkscape:pageopacity="0.0"
     inkscape:pagecheckerboard="0"
     inkscape:deskcolor="#d1d1d1">
    <inkscape:page
       x="0"
       y="0"
       inkscape:label="1"
       id="page1"
       width="8640.667"
       height="6336.6665"
       margin="0"
       bleed="0" />
  </sodipodi:namedview>
  <g
     id="g1"
     inkscape:groupmode="layer"
     inkscape:label="1">
    <g
       id="group-R5">
      <path
         id="path2"
         d="m 64802.5,6482.5 c 0,-3578.8 -2901.2,-6480 -6480,-6480 H 6482.5 C 2903.7,2.5 2.5,2903.7 2.5,6482.5 v 34560 c 0,3578.8 2901.2,6480 6480,6480 h 51840 c 3578.8,0 6480,-2901.2 6480,-6480 v -34560"
         style="fill:#ffffff;fill-opacity:1;fill-rule:nonzero;stroke:none"
         transform="matrix(0.13333333,0,0,-0.13333333,0,6336.6667)" />
      <path
         id="path3"
         d="m 64802.5,6482.5 c 0,-3578.8 -2901.2,-6480 -6480,-6480 H 6482.5 C 2903.7,2.5 2.5,2903.7 2.5,6482.5 v 34560 c 0,3578.8 2901.2,6480 6480,6480 h 51840 c 3578.8,0 6480,-2901.2 6480,-6480 z"
         style="fill:none;stroke:#231f20;stroke-width:5;stroke-linecap:butt;stroke-linejoin:miter;stroke-miterlimit:4;stroke-dasharray:none;stroke-opacity:1"
         transform="matrix(0.13333333,0,0,-0.13333333,0,6336.6667)" />
      <path
         id="path4"
         d="m 63182.5,6482.5 c 0,-2679.8 -2180.2,-4860 -4860,-4860 h -51840 c -2679.81,0 -4860,2180.2 -4860,4860 v 34560 c 0,2679.8 2180.19,4860 4860,4860 h 51840 c 2679.8,0 4860,-2180.2 4860,-4860 z m -4860,40500 h -51840 c -3275.33,0 -5940,-2664.7 -5940,-5940 v -34560 c 0,-3275.3 2664.67,-5940 5940,-5940 h 51840 c 3275.3,0 5940,2664.7 5940,5940 v 34560 c 0,3275.3 -2664.7,5940 -5940,5940"
         style="fill:#231f20;fill-opacity:1;fill-rule:nonzero;stroke:none"
         transform="matrix(0.13333333,0,0,-0.13333333,0,6336.6667)" />
      <path
         id="path5"
         d="m 7564.32,33122.5 v 7200 H 12837.6 V 39034.1 H 8882.64 v -1339 H 11037.6 V 36381.4 H 8882.64 V 34410.9 H 12964.3 V 33122.5 H 7564.32"
         style="fill:#231f20;fill-opacity:1;fill-rule:nonzero;stroke:none"
         transform="matrix(0.13333333,0,0,-0.13333333,0,6336.6667)" />
      <path
         id="path6"
         d="m 37548.7,33122.5 v 7200 H 42822 v -1288.4 h -3955 v -1339 h 2154.9 V 36381.4 H 38867 v -1970.5 h 4081.7 v -1288.4 h -5400"
         style="fill:#231f20;fill-opacity:1;fill-rule:nonzero;stroke:none"
         transform="matrix(0.13333333,0,0,-0.13333333,0,6336.6667)" />
      <path
         id="path7"
         d="m 25901.7,39034.1 h -2174.4 v -1793.7 h 2174.4 c 631.2,0 1060.5,353.7 1060.5,884.2 0,555.8 -429.3,909.5 -1060.5,909.5 z m 1237.2,-2804.2 c -404,-227.4 -732.2,-277.9 -1287.7,-277.9 h -2123.9 v -2829.5 h -1313 v 7200 h 3436.9 c 555.5,0 883.7,-75.8 1287.7,-303.1 681.8,-379 1111,-1086.4 1111,-1894.8 0,-757.9 -429.2,-1515.8 -1111,-1894.7"
         style="fill:#231f20;fill-opacity:1;fill-rule:nonzero;stroke:none"
         transform="matrix(0.13333333,0,0,-0.13333333,0,6336.6667)" />
      <path
         id="path8"
         d="m 33202.2,39034.1 h -2073.4 v -1793.7 h 2073.4 c 631.3,0 1035.2,353.7 1035.2,884.2 0,555.8 -403.9,909.5 -1035.2,909.5 z M 34237.4,33122.5 33076,35952 h -1947.2 v -2829.5 h -1287.7 v 7200 H 33177 c 530.2,0 858.5,-75.8 1237.2,-303.2 681.8,-378.9 1111,-1086.3 1111,-1894.7 0,-808.4 -429.2,-1515.8 -1161.5,-1920 l 1313,-3082.1 h -1439.3"
         style="fill:#231f20;fill-opacity:1;fill-rule:nonzero;stroke:none"
         transform="matrix(0.13333333,0,0,-0.13333333,0,6336.6667)" />
      <path
         id="path9"
         d="m 46943.5,36353.4 c -320.5,88.5 -1126.4,281.9 -1398.3,441.4 -542,317.7 -956.3,837.3 -956.3,1607.7 0,1187.4 1014.9,1995.8 2486.5,1995.8 1065.6,0 1953.6,-353.7 2689.4,-1111.6 l -964.1,-858.9 c -456.7,480 -1040.3,707.3 -1725.3,707.3 -735.8,0 -1167.1,-277.9 -1167.1,-732.6 0,-404.2 253.7,-581.1 1141.7,-783.2 964.2,-202.1 1598.5,-404.2 2004.4,-606.3 634.4,-328.4 1040.3,-1010.5 1040.3,-1793.7 0,-732.6 -329.9,-1288.4 -1014.9,-1692.6 -507.4,-303.2 -1167.1,-480 -1826.8,-480 -1243.2,0 -2182,454.7 -2993.9,1389.5 l 1040.2,808.4 c 532.9,-631.6 1116.4,-909.5 1928.3,-909.5 913.4,0 1573.1,404.2 1573.1,934.8 0,675.8 -735.1,773.8 -1857.2,1083.5"
         style="fill:#231f20;fill-opacity:1;fill-rule:nonzero;stroke:none"
         transform="matrix(0.13333333,0,0,-0.13333333,0,6336.6667)" />
      <path
         id="path10"
         d="m 54089.5,36353.4 c -320.5,88.5 -1126.4,281.9 -1398.3,441.4 -542,317.7 -956.3,837.3 -956.3,1607.7 0,1187.4 1014.9,1995.8 2486.5,1995.8 1065.6,0 1953.7,-353.7 2689.4,-1111.6 l -964.1,-858.9 c -456.7,480 -1040.3,707.3 -1725.3,707.3 -735.8,0 -1167.1,-277.9 -1167.1,-732.6 0,-404.2 253.7,-581.1 1141.7,-783.2 964.2,-202.1 1598.5,-404.2 2004.4,-606.3 634.3,-328.4 1040.3,-1010.5 1040.3,-1793.7 0,-732.6 -329.9,-1288.4 -1014.9,-1692.6 -507.4,-303.2 -1167.1,-480 -1826.8,-480 -1243.2,0 -2182,454.7 -2993.9,1389.5 l 1040.2,808.4 c 532.9,-631.6 1116.4,-909.5 1928.3,-909.5 913.4,0 1573.1,404.2 1573.1,934.8 0,675.8 -735.1,773.8 -1857.2,1083.5"
         style="fill:#231f20;fill-opacity:1;fill-rule:nonzero;stroke:none"
         transform="matrix(0.13333333,0,0,-0.13333333,0,6336.6667)" />
      <path
         id="path11"
         d="m 19019.8,33122.5 -1624,2551.6 -1598.7,-2551.6 h -1522.4 l 2359.9,3789.5 -2156.9,3410.5 h 1547.9 l 1370.2,-2197.9 1370.2,2197.9 h 1547.9 L 18182.4,36912 20542.3,33122.5 h -1522.5"
         style="fill:#231f20;fill-opacity:1;fill-rule:nonzero;stroke:none"
         transform="matrix(0.13333333,0,0,-0.13333333,0,6336.6667)" />
      <path
         id="path12"
         d="m 27859.3,25568.8 -1010.2,-2425.3 h 2020.5 z m 2273,-5406.3 -707.1,1692.6 h -3131.7 l -707.2,-1692.6 H 24172 l 3030.7,7200 H 28516 l 3005.4,-7200 h -1389.1"
         style="fill:#231f20;fill-opacity:1;fill-rule:nonzero;stroke:none"
         transform="matrix(0.13333333,0,0,-0.13333333,0,6336.6667)" />
      <path
         id="path13"
         d="m 41381.8,20162.5 v 7200 h 5273.3 v -1288.4 h -3954.9 v -1339 h 2154.9 v -1313.7 h -2154.9 v -1970.5 h 4081.6 v -1288.4 h -5400"
         style="fill:#231f20;fill-opacity:1;fill-rule:nonzero;stroke:none"
         transform="matrix(0.13333333,0,0,-0.13333333,0,6336.6667)" />
      <path
         id="path14"
         d="m 18023.2,20162.5 v 7200 h 1292.9 v -6088.4 h 4107.1 v -1111.6 h -5400"
         style="fill:#231f20;fill-opacity:1;fill-rule:nonzero;stroke:none"
         transform="matrix(0.13333333,0,0,-0.13333333,0,6336.6667)" />
      <path
         id="path15"
         d="m 37831.9,20162.5 -3450.7,4951.6 v -4951.6 h -1268.6 v 7200 h 1268.6 L 37705,22613 v 4749.5 h 1243.2 v -7200 h -1116.3"
         style="fill:#231f20;fill-opacity:1;fill-rule:nonzero;stroke:none"
         transform="matrix(0.13333333,0,0,-0.13333333,0,6336.6667)" />
      <path
         id="path16"
         d="m 37031.1,12836.2 c -327.9,176.8 -706.4,277.9 -1084.8,277.9 H 34853.8 V 8490.9 h 1092.5 c 378.4,0 731.6,101 1034.4,277.9 756.9,404.2 1110.1,1061 1110.1,2046.3 0,960 -353.2,1616.8 -1059.7,2021.1 z m 605.6,-5204.3 C 37132.1,7354 36526.6,7202.5 35946.3,7202.5 h -2404.4 v 7200 h 2404.4 c 605.5,0 1185.8,-151.6 1715.6,-454.8 1110.1,-631.5 1715.6,-1717.9 1715.6,-3132.6 0,-1440 -605.5,-2551.6 -1740.8,-3183.2"
         style="fill:#231f20;fill-opacity:1;fill-rule:nonzero;stroke:none"
         transform="matrix(0.13333333,0,0,-0.13333333,0,6336.6667)" />
      <path
         id="path17"
         d="m 18000.7,7202.5 v 7200 H 23274 v -1288.4 h -3955 v -1339 h 2154.9 V 10461.4 H 19319 V 8490.9 h 4081.7 V 7202.5 h -5400"
         style="fill:#231f20;fill-opacity:1;fill-rule:nonzero;stroke:none"
         transform="matrix(0.13333333,0,0,-0.13333333,0,6336.6667)" />
      <path
         id="path18"
         d="M 29992,7202.5 26541.3,12154 V 7202.5 h -1268.6 v 7200 h 1268.6 L 29865.1,9653 v 4749.5 h 1243.2 v -7200 H 29992"
         style="fill:#231f20;fill-opacity:1;fill-rule:nonzero;stroke:none"
         transform="matrix(0.13333333,0,0,-0.13333333,0,6336.6667)" />
      <path
         id="path19"
         d="m 43653.1,10433.4 c -320.5,88.5 -1126.3,281.9 -1398.3,441.3 -541.9,317.8 -956.2,837.4 -956.2,1607.8 0,1187.3 1014.9,1995.8 2486.4,1995.8 1065.7,0 1953.7,-353.7 2689.5,-1111.6 l -964.2,-859 c -456.7,480 -1040.2,707.4 -1725.3,707.4 -735.8,0 -1167.1,-277.9 -1167.1,-732.6 0,-404.2 253.7,-581.1 1141.7,-783.2 964.2,-202.1 1598.5,-404.2 2004.4,-606.3 634.4,-328.4 1040.3,-1010.5 1040.3,-1793.7 0,-732.6 -329.8,-1288.4 -1014.9,-1692.6 -507.4,-303.2 -1167.1,-480 -1826.8,-480 -1243.2,0 -2182,454.7 -2993.9,1389.5 l 1040.3,808.4 c 532.8,-631.6 1116.4,-909.5 1928.3,-909.5 913.4,0 1573,404.2 1573,934.7 0,675.8 -735.1,773.9 -1857.2,1083.6"
         style="fill:#231f20;fill-opacity:1;fill-rule:nonzero;stroke:none"
         transform="matrix(0.13333333,0,0,-0.13333333,0,6336.6667)" />
    </g>
  </g>
</svg>
