<?xml version="1.0" encoding="UTF-8" standalone="no"?>
<!-- Created with Inkscape (http://www.inkscape.org/) -->

<svg
   version="1.1"
   id="svg1"
   width="4608.6665"
   height="5760.6665"
   viewBox="0 0 4608.6665 5760.6665"
   sodipodi:docname="tmpqb1gz4rv.pdf"
   xmlns:inkscape="http://www.inkscape.org/namespaces/inkscape"
   xmlns:sodipodi="http://sodipodi.sourceforge.net/DTD/sodipodi-0.dtd"
   xmlns="http://www.w3.org/2000/svg"
   xmlns:svg="http://www.w3.org/2000/svg">
  <defs
     id="defs1" />
  <sodipodi:namedview
     id="namedview1"
     pagecolor="#ffffff"
     bordercolor="#000000"
     borderopacity="0.25"
     inkscape:showpageshadow="2"
     inkscape:pageopacity="0.0"
     inkscape:pagecheckerboard="0"
     inkscape:deskcolor="#d1d1d1">
    <inkscape:page
       x="0"
       y="0"
       inkscape:label="1"
       id="page1"
       width="4608.6665"
       height="5760.6665"
       margin="0"
       bleed="0" />
  </sodipodi:namedview>
  <g
     id="g1"
     inkscape:groupmode="layer"
     inkscape:label="1">
    <g
       id="group-R5">
      <path
         id="path2"
         d="M 2162.5,1.20313 C 1585.21,1.20313 1042.47,226.098 634.262,634.301 226.059,1042.5 1.25391,1585.2 1.25391,2162.5 v 38880 c 0,577.3 224.80509,1120 633.00809,1528.2 408.178,408.2 950.968,633 1528.218,633 0.03,0 -0.01,0 0.02,0 h 30240 c 577.3,0.1 1120,-224.8 1528.2,-633 408.2,-408.2 633.1,-950.9 633.1,-1528.2 v -38880 c 0,-577.3 -224.9,-1120 -633.1,-1528.199 C 33522.5,226.098 32979.8,1.20313 32402.5,1.20313 h -30240"
         style="fill:#ffffff;fill-opacity:1;fill-rule:nonzero;stroke:none"
         transform="matrix(0.13333333,0,0,-0.13333333,0,5760.6667)" />
      <path
         id="path3"
         d="m 32402.5,43205 h -30240 c -291.94,0 -575.14,-57.2 -841.74,-169.9 -257.51,-109 -488.78,-264.9 -687.381,-463.5 C 434.785,42373 278.855,42141.8 169.941,41884.2 57.1797,41617.6 0,41334.4 0,41042.5 V 2162.5 C 0,1870.6 57.1797,1587.4 169.941,1320.8 278.855,1063.2 434.785,832 633.379,633.398 831.98,434.801 1063.25,278.902 1320.76,169.902 1587.36,57.2031 1870.56,0 2162.5,0 h 30240 c 291.9,0 575.1,57.2031 841.7,169.902 257.6,109 488.8,264.899 687.4,463.496 198.6,198.602 354.5,429.802 463.5,687.402 112.7,266.6 169.9,549.8 169.9,841.7 v 38880 c 0,291.9 -57.2,575.1 -169.9,841.7 -109,257.6 -264.9,488.8 -463.5,687.4 -198.6,198.6 -429.8,354.5 -687.4,463.5 -266.6,112.7 -549.8,169.9 -841.7,169.9 z m 0,-2.5 c 1192.9,0 2160,-967.1 2160,-2160 v -38880 c 0,-1192.898 -967.1,-2160 -2160,-2160 H 2162.5 C 969.563,2.5 2.5,969.602 2.5,2162.5 v 38880 c 0,1192.9 967.063,2160 2160,2160 h 30240"
         style="fill:#231f20;fill-opacity:1;fill-rule:nonzero;stroke:none"
         transform="matrix(0.13333333,0,0,-0.13333333,0,5760.6667)" />
      <path
         id="path4"
         d="m 33122.5,2162.5 c 0,-397 -323,-720 -720,-720 h -30240 c -397.01,0 -720,323 -720,720 v 38880 c 0,397 322.99,720 720,720 h 30240 c 397,0 720,-323 720,-720 z m -720,40500 h -30240 c -893.27,0 -1620,-726.7 -1620,-1620 v -38880 c 0,-893.3 726.73,-1620 1620,-1620 h 30240 c 893.3,0 1620,726.7 1620,1620 v 38880 c 0,893.3 -726.7,1620 -1620,1620"
         style="fill:#231f20;fill-opacity:1;fill-rule:nonzero;stroke:none"
         transform="matrix(0.13333333,0,0,-0.13333333,0,5760.6667)" />
      <path
         id="path5"
         d="M 3770.26,36002.5 H 6486 v -808.6 H 4601.1 v -1455.1 h 1195.16 v -788.4 H 4601.1 v -1900.1 h 2108.09 v -807.8 H 3770.26 v 5760"
         style="fill:#231f20;fill-opacity:1;fill-rule:nonzero;stroke:none"
         transform="matrix(0.13333333,0,0,-0.13333333,0,5760.6667)" />
      <path
         id="path6"
         d="m 8917.49,32202.3 -814.28,-1959.8 h -875.49 l 1262.11,2990.9 -1180.75,2769.1 h 875.49 l 732.92,-1738.1 732.94,1738.1 h 875.47 L 9365.31,33233.4 10627.4,30242.5 h -895.61 l -814.3,1959.8"
         style="fill:#231f20;fill-opacity:1;fill-rule:nonzero;stroke:none"
         transform="matrix(0.13333333,0,0,-0.13333333,0,5760.6667)" />
      <path
         id="path7"
         d="m 12260.5,33557.4 h 846.6 c 483.9,0 746.7,302.4 746.7,828 0,485.3 -305.3,808.5 -745.9,808.5 h -847.4 z m 0,-788.4 v -2526.5 h -826.6 v 5760 h 1714.3 c 907.9,0 1512.6,-649.4 1512.6,-1617.1 0,-1051.2 -545,-1616.4 -1512.6,-1616.4 h -887.7"
         style="fill:#231f20;fill-opacity:1;fill-rule:nonzero;stroke:none"
         transform="matrix(0.13333333,0,0,-0.13333333,0,5760.6667)" />
      <path
         id="path8"
         d="m 16639.6,35193.9 v -1455.1 h 846.7 c 485.2,0 746.6,262.8 746.6,727.9 0,445 -302.4,727.2 -745.9,727.2 z m 786.9,-2243.5 h -786.9 V 30242.5 H 15813 v 5760 h 1714.3 c 903.6,0 1512.6,-606.2 1512.6,-1535.8 0,-686.8 -282.9,-1192.3 -827.2,-1394.6 l 826.5,-2829.6 h -845.9 l -766.8,2707.9"
         style="fill:#231f20;fill-opacity:1;fill-rule:nonzero;stroke:none"
         transform="matrix(0.13333333,0,0,-0.13333333,0,5760.6667)" />
      <path
         id="path9"
         d="m 20019.3,36002.5 h 2715.8 v -808.6 h -1884.9 v -1455.1 h 1195.1 v -788.4 h -1195.1 v -1900.1 h 2108.1 v -807.8 h -2939 v 5760"
         style="fill:#231f20;fill-opacity:1;fill-rule:nonzero;stroke:none"
         transform="matrix(0.13333333,0,0,-0.13333333,0,5760.6667)" />
      <path
         id="path10"
         d="m 25301.9,33904.4 c 630,-395.3 1574.6,-948.9 1574.6,-2085.8 0,-932.4 -710.6,-1676.9 -1603.4,-1676.9 -1014.4,0 -1623.5,858.2 -1623.5,1798.6 h 812.1 c 0,-490.4 243.4,-990.8 811.4,-990.8 446.4,0 811.4,404 811.4,869.1 0,1252.1 -2150.5,1180.1 -2150.5,2789.3 0,828.7 649.4,1494.7 1481,1494.7 812.1,0 1441.3,-626.4 1461.5,-1495.5 h -792 c -20.1,404 -304.5,666.8 -669.5,666.8 -386,0 -689.8,-282.3 -689.8,-666 0,-374.4 198.7,-466.6 576.7,-703.5"
         style="fill:#231f20;fill-opacity:1;fill-rule:nonzero;stroke:none"
         transform="matrix(0.13333333,0,0,-0.13333333,0,5760.6667)" />
      <path
         id="path11"
         d="m 29220.2,33904.4 c 629.9,-395.3 1574.5,-948.9 1574.5,-2085.8 0,-932.4 -710.6,-1676.9 -1603.3,-1676.9 -1014.5,0 -1623.6,858.2 -1623.6,1798.6 h 812.2 c 0,-490.4 243.3,-990.8 811.4,-990.8 446.3,0 811.4,404 811.4,869.1 0,1252.1 -2150.6,1180.1 -2150.6,2789.3 0,828.7 649.4,1494.7 1481,1494.7 812.1,0 1441.4,-626.4 1461.5,-1495.5 h -791.9 c -20.2,404 -304.6,666.8 -669.6,666.8 -385.9,0 -689.7,-282.3 -689.7,-666 0,-374.4 198.7,-466.6 576.7,-703.5"
         style="fill:#231f20;fill-opacity:1;fill-rule:nonzero;stroke:none"
         transform="matrix(0.13333333,0,0,-0.13333333,0,5760.6667)" />
      <path
         id="path12"
         d="m 9417.22,12962.5 h 2715.68 v -808.6 h -1884.8 v -1455.1 h 1195.1 V 9910.4 H 10248.1 V 8010.3 h 2108 V 7202.5 H 9417.22 v 5760"
         style="fill:#231f20;fill-opacity:1;fill-rule:nonzero;stroke:none"
         transform="matrix(0.13333333,0,0,-0.13333333,0,5760.6667)" />
      <path
         id="path13"
         d="M 14162,11062.4 V 7202.5 h -826.5 v 5760 h 826.5 l 1573.1,-3456 v 3456 h 827.2 v -5760 h -624.9 L 14162,11062.4"
         style="fill:#231f20;fill-opacity:1;fill-rule:nonzero;stroke:none"
         transform="matrix(0.13333333,0,0,-0.13333333,0,5760.6667)" />
      <path
         id="path14"
         d="m 19302.1,12153.9 h -645.8 V 8011.1 h 574.5 c 673.9,0 1018.8,294.4 1018.8,2041.2 0,2023.9 -504.7,2101.6 -947.5,2101.6 z M 17829.8,7202.5 v 5760 h 1643.7 c 351.3,0 1583.2,-17.3 1583.2,-2869.9 0,-2610 -1137.6,-2890.1 -1514.8,-2890.1 h -1712.1"
         style="fill:#231f20;fill-opacity:1;fill-rule:nonzero;stroke:none"
         transform="matrix(0.13333333,0,0,-0.13333333,0,5760.6667)" />
      <path
         id="path15"
         d="m 23573.2,10864.4 c 630,-395.3 1574.6,-948.9 1574.6,-2085.8 0,-932.4 -710.6,-1676.9 -1603.4,-1676.9 -1014.4,0 -1623.5,858.2 -1623.5,1798.6 h 812.1 c 0,-490.4 243.4,-990.8 811.4,-990.8 446.4,0 811.4,404 811.4,869.1 0,1252 -2150.5,1180.1 -2150.5,2789.2 0,828.8 649.4,1494.8 1480.9,1494.8 812.2,0 1441.4,-626.4 1461.6,-1495.5 h -792 c -20.2,403.9 -304.5,666.8 -669.6,666.8 -385.9,0 -689.7,-282.3 -689.7,-666.1 0,-374.3 198.7,-466.5 576.7,-703.4"
         style="fill:#231f20;fill-opacity:1;fill-rule:nonzero;stroke:none"
         transform="matrix(0.13333333,0,0,-0.13333333,0,5760.6667)" />
      <path
         id="path16"
         d="m 4445.53,21590.3 586.05,-2867.8 h -789.07 l -549.34,2687.8 H 3301.5 v -2687.8 h -727.88 v 5760 h 1122.43 c 892.03,0 1355.69,-545.8 1355.69,-1617.1 0,-551.5 -163.43,-1028.2 -606.21,-1275.1 z m -142.55,1295.2 c 0,652.4 -142.56,848.9 -647.25,848.9 H 3301.5 v -1576.1 h 475.9 c 403.91,0 525.58,181.5 525.58,727.2"
         style="fill:#231f20;fill-opacity:1;fill-rule:nonzero;stroke:none"
         transform="matrix(0.13333333,0,0,-0.13333333,0,5760.6667)" />
      <path
         id="path17"
         d="m 5743.09,24482.5 h 2109.49 v -748.1 H 6466.65 v -1475.3 h 924.44 v -767.5 h -924.44 v -2021 h 1466.57 v -748.1 H 5743.09 v 5760"
         style="fill:#231f20;fill-opacity:1;fill-rule:nonzero;stroke:none"
         transform="matrix(0.13333333,0,0,-0.13333333,0,5760.6667)" />
      <path
         id="path18"
         d="m 10094.7,19955.1 c 0,1443.6 -1588.27,1898 -1588.27,3254.4 0,788.4 480.23,1353.6 1168.51,1353.6 707.76,0 1087.16,-444.2 1167.76,-1353.6 h -748 c -20.2,445 -136.09,626.4 -399.6,626.4 -282.95,0 -439.9,-243.3 -439.9,-626.4 0,-433.4 243.35,-591.1 590.37,-1004.4 254.83,-303.8 997.83,-1042.5 997.83,-2250 0,-560.8 -361.4,-1333.4 -1208.78,-1333.4 -809.24,0 -1228.98,524.9 -1269.29,1535.8 h 748.04 c 0,-221.1 31.68,-788.4 521.25,-788.4 282.95,0 460.08,222.5 460.08,586"
         style="fill:#231f20;fill-opacity:1;fill-rule:nonzero;stroke:none"
         transform="matrix(0.13333333,0,0,-0.13333333,0,5760.6667)" />
      <path
         id="path19"
         d="m 12627.7,18722.5 h -727.2 v 5011.9 h -711.3 v 748.1 h 2190.1 v -748.1 h -751.6 v -5011.9"
         style="fill:#231f20;fill-opacity:1;fill-rule:nonzero;stroke:none"
         transform="matrix(0.13333333,0,0,-0.13333333,0,5760.6667)" />
      <path
         id="path20"
         d="m 15856.1,21590.3 586.1,-2867.8 h -789.1 l -549.3,2687.8 h -391.7 v -2687.8 h -727.9 v 5760 h 1122.4 c 892.1,0 1355.7,-545.8 1355.7,-1617.1 0,-551.5 -163.4,-1028.2 -606.2,-1275.1 z m -142.5,1295.2 c 0,652.4 -142.6,848.9 -647.3,848.9 h -354.2 v -1576.1 h 475.9 c 403.9,0 525.6,181.5 525.6,727.2"
         style="fill:#231f20;fill-opacity:1;fill-rule:nonzero;stroke:none"
         transform="matrix(0.13333333,0,0,-0.13333333,0,5760.6667)" />
      <path
         id="path21"
         d="m 17153.7,24482.5 h 748.8 v -5760 h -748.8 v 5760"
         style="fill:#231f20;fill-opacity:1;fill-rule:nonzero;stroke:none"
         transform="matrix(0.13333333,0,0,-0.13333333,0,5760.6667)" />
      <path
         id="path22"
         d="m 20063.9,24562.4 c 650.1,0 1075.6,-403.9 1137.5,-1110.9 h -751.6 c -20.2,242.6 -162.7,364.3 -365.8,364.3 -361.4,0 -609.1,-309.6 -609.1,-2223.4 0,-1913.7 246.3,-2223.3 609.1,-2223.3 306,0 365.8,354.2 365.8,707.7 h 751.6 c 0,-376.5 53.3,-1455.1 -1136.8,-1455.1 -1039.7,0 -1341.3,797.1 -1341.3,2970.7 0,2554.6 552.9,2970 1340.6,2970"
         style="fill:#231f20;fill-opacity:1;fill-rule:nonzero;stroke:none"
         transform="matrix(0.13333333,0,0,-0.13333333,0,5760.6667)" />
      <path
         id="path23"
         d="m 23115.3,18722.5 h -727.2 v 5011.9 h -711.3 v 748.1 h 2190.1 v -748.1 h -751.6 v -5011.9"
         style="fill:#231f20;fill-opacity:1;fill-rule:nonzero;stroke:none"
         transform="matrix(0.13333333,0,0,-0.13333333,0,5760.6667)" />
      <path
         id="path24"
         d="m 24471.8,24482.5 h 748.8 v -5760 h -748.8 v 5760"
         style="fill:#231f20;fill-opacity:1;fill-rule:nonzero;stroke:none"
         transform="matrix(0.13333333,0,0,-0.13333333,0,5760.6667)" />
      <path
         id="path25"
         d="m 27366.8,18621.7 c -1293,0 -1325.4,1625.8 -1325.4,2970.7 0,1345 32.4,2970 1325.4,2970 1293.1,0 1325.5,-1625 1325.5,-2970 0,-1344.9 -32.4,-2970.7 -1325.5,-2970.7 z m -566.6,2970.7 c 0,-1006.5 14.4,-2223.3 566.6,-2223.3 552.3,0 565.9,1216.8 565.9,2223.3 0,1006.6 -13.6,2223.4 -565.9,2223.4 -552.2,0 -566.6,-1216.8 -566.6,-2223.4"
         style="fill:#231f20;fill-opacity:1;fill-rule:nonzero;stroke:none"
         transform="matrix(0.13333333,0,0,-0.13333333,0,5760.6667)" />
      <path
         id="path26"
         d="m 30239.7,22138.2 v -3415.7 h -726.4 v 5760 h 726.4 l 1027.4,-2869.9 v 2869.9 h 724.3 v -5760 h -624.9 l -1126.8,3415.7"
         style="fill:#231f20;fill-opacity:1;fill-rule:nonzero;stroke:none"
         transform="matrix(0.13333333,0,0,-0.13333333,0,5760.6667)" />
    </g>
  </g>
</svg>
