<?xml version="1.0" encoding="UTF-8" standalone="no"?>
<!-- Created with Inkscape (http://www.inkscape.org/) -->

<svg
   version="1.1"
   id="svg1"
   width="3456.6667"
   height="3456.6667"
   viewBox="0 0 3456.6667 3456.6667"
   sodipodi:docname="tmpgzh17lre.pdf"
   xmlns:inkscape="http://www.inkscape.org/namespaces/inkscape"
   xmlns:sodipodi="http://sodipodi.sourceforge.net/DTD/sodipodi-0.dtd"
   xmlns="http://www.w3.org/2000/svg"
   xmlns:svg="http://www.w3.org/2000/svg">
  <defs
     id="defs1" />
  <sodipodi:namedview
     id="namedview1"
     pagecolor="#ffffff"
     bordercolor="#000000"
     borderopacity="0.25"
     inkscape:showpageshadow="2"
     inkscape:pageopacity="0.0"
     inkscape:pagecheckerboard="0"
     inkscape:deskcolor="#d1d1d1">
    <inkscape:page
       x="0"
       y="0"
       inkscape:label="1"
       id="page1"
       width="3456.6667"
       height="3456.6667"
       margin="0"
       bleed="0" />
  </sodipodi:namedview>
  <g
     id="g1"
     inkscape:groupmode="layer"
     inkscape:label="1">
    <g
       id="group-R5">
      <path
         id="path2"
         d="M 1622.5,1.20313 C 1191.24,1.20313 784.602,170.402 477.488,477.5 170.383,784.602 1.25,1191.2 1.25,1622.5 v 22680 c 0,431.3 169.133,837.9 476.238,1145 307.114,307.1 713.752,476.3 1145.012,476.3 h 22680 c 431.3,0 837.9,-169.2 1145,-476.3 307.1,-307.1 476.3,-713.7 476.3,-1145 v -22680 c 0,-431.3 -169.2,-837.898 -476.3,-1145 C 25140.4,170.402 24733.8,1.20313 24302.5,1.20313 h -22680"
         style="fill:#ffffff;fill-opacity:1;fill-rule:nonzero;stroke:none"
         transform="matrix(0.13333333,0,0,-0.13333333,0,3456.6667)" />
      <path
         id="path3"
         d="m 24302.5,25925 h -22680 c -218.07,0 -430.03,-43.1 -629.992,-128 -193.035,-82 -366.61,-199.3 -515.903,-348.6 -149.292,-149.3 -266.57,-322.9 -348.578,-515.9 C 43.0742,24732.5 0,24520.6 0,24302.5 v -22680 c 0,-218.1 43.0742,-430 128.027,-630 C 210.035,799.5 327.313,625.902 476.605,476.602 625.898,327.301 799.473,210 992.508,128 1192.47,43.1016 1404.43,0 1622.5,0 h 22680 c 218.1,0 430,43.1016 630,128 193,82 366.6,199.301 515.9,348.602 149.3,149.3 266.6,322.898 348.6,515.898 84.9,200 128,411.9 128,630 v 22680 c 0,218.1 -43.1,430 -128,630 -82,193 -199.3,366.6 -348.6,515.9 -149.3,149.3 -322.9,266.6 -515.9,348.6 -200,84.9 -411.9,128 -630,128 z m 0,-2.5 c 891,0 1620,-729 1620,-1620 v -22680 c 0,-891 -729,-1620 -1620,-1620 h -22680 c -891,0 -1620,729 -1620,1620 v 22680 c 0,891 729,1620 1620,1620 h 22680"
         style="fill:#231f20;fill-opacity:1;fill-rule:nonzero;stroke:none"
         transform="matrix(0.13333333,0,0,-0.13333333,0,3456.6667)" />
      <path
         id="path4"
         d="m 1622.5,452.5 c -645.137,0 -1170,524.902 -1170,1170 v 22680 c 0,645.1 524.863,1170 1170,1170 h 22680 c 645.1,0 1170,-524.9 1170,-1170 v -22680 c 0,-645.098 -524.9,-1170 -1170,-1170 h -22680"
         style="fill:#231f20;fill-opacity:1;fill-rule:nonzero;stroke:none"
         transform="matrix(0.13333333,0,0,-0.13333333,0,3456.6667)" />
      <path
         id="path5"
         d="m 1622.5,1082.5 c -297.75,0 -540,242.3 -540,540 v 22680 c 0,297.8 242.25,540 540,540 h 22680 c 297.8,0 540,-242.2 540,-540 v -22680 c 0,-297.7 -242.2,-540 -540,-540 h -22680"
         style="fill:#ffffff;fill-opacity:1;fill-rule:nonzero;stroke:none"
         transform="matrix(0.13333333,0,0,-0.13333333,0,3456.6667)" />
      <path
         id="path6"
         d="M 19206.3,5672.5 H 16978.8 V 12490 c 0,658.1 -256.3,1276.8 -721.7,1742.1 -465.3,465.4 -1084,721.6 -1742.1,721.6 -658.1,0 -1276.8,-256.2 -1742.1,-721.6 -465.4,-465.3 -721.6,-1084 -721.6,-1742.1 V 9617 H 9823.75 v 2873 c 0,632.8 124.19,1247.3 369.15,1826.4 236.3,558.8 574.4,1060.3 1004.9,1490.8 430.5,430.5 932,768.6 1490.8,1004.9 579.1,245 1193.6,369.2 1826.4,369.2 632.8,0 1247.3,-124.2 1826.4,-369.2 558.8,-236.3 1060.3,-574.4 1490.8,-1004.9 430.5,-430.5 768.6,-932 1004.9,-1490.8 245,-579.1 369.2,-1193.6 369.2,-1826.4 V 5672.5"
         style="fill:#231f20;fill-opacity:1;fill-rule:nonzero;stroke:none"
         transform="matrix(0.13333333,0,0,-0.13333333,0,3456.6667)" />
      <path
         id="path7"
         d="m 13432,10483.9 c 34.7,10.1 69.6,14.8 104,14.9 205,0 371.2,-166.3 371.2,-371.3 0.1,-72.4 -20.9,-145.5 -64.8,-209.7 L 10937.2,5672.5 8032.13,9917.8 c -43.94,64.2 -64.95,137.3 -64.88,209.7 0,205 166.23,371.3 371.26,371.3 34.36,-0.1 69.3,-4.8 103.95,-14.9 l 2494.74,-727.7 2494.8,727.7"
         style="fill:#231f20;fill-opacity:1;fill-rule:nonzero;stroke:none"
         transform="matrix(0.13333333,0,0,-0.13333333,0,3456.6667)" />
      <path
         id="path8"
         d="M 14515,14953.7 H 8132.01 v 2227.6 H 14515 v -2227.6"
         style="fill:#231f20;fill-opacity:1;fill-rule:nonzero;stroke:none"
         transform="matrix(0.13333333,0,0,-0.13333333,0,3456.6667)" />
      <path
         id="path9"
         d="m 8998.87,13573 c 10.1,-34.7 14.88,-69.6 14.89,-104 0,-205 -166.26,-371.2 -371.29,-371.2 -72.34,-0.1 -145.45,20.9 -209.66,64.8 l -4245.31,2905.2 4245.31,2905.1 c 64.21,43.9 137.32,64.9 209.66,64.9 205.03,0 371.29,-166.3 371.29,-371.3 -0.01,-34.4 -4.79,-69.3 -14.89,-104 L 8271.22,16067.8 8998.87,13573"
         style="fill:#231f20;fill-opacity:1;fill-rule:nonzero;stroke:none"
         transform="matrix(0.13333333,0,0,-0.13333333,0,3456.6667)" />
      <path
         id="path10"
         d="M 20140.5,7025.6 7025.46,20140.7 c 1611.9,1334.7 3680.74,2137 5937.04,2137 5144.5,0 9315,-4170.5 9315,-9315.1 0,-2256.2 -802.3,-4325.1 -2137,-5937 z m -16493,5937 c 0,2256.3 802.25,4325.2 2136.98,5937.1 L 18899.5,5784.6 c -1611.9,-1334.7 -3680.7,-2136.9 -5937,-2136.9 -5144.53,0 -9315,4170.4 -9315,9314.9 z m 9315,11205.1 c -6188.35,0 -11205,-5016.7 -11205,-11205.1 0,-6188.3 5016.65,-11204.9 11205,-11204.9 6188.4,0 11205,5016.6 11205,11204.9 0,6188.4 -5016.6,11205.1 -11205,11205.1"
         style="fill:#bf2519;fill-opacity:1;fill-rule:evenodd;stroke:none"
         transform="matrix(0.13333333,0,0,-0.13333333,0,3456.6667)" />
    </g>
  </g>
</svg>
