<?xml version="1.0" encoding="UTF-8"?>
<svg id="For_Sheets" xmlns="http://www.w3.org/2000/svg" version="1.1" viewBox="0 0 3456 2160">
  <!-- Generator: Adobe Illustrator 29.1.0, SVG Export Plug-In . SVG Version: 2.1.0 Build 142)  -->
  <defs>
    <style>
      .st0 {
        fill: #231f20;
      }

      .st1 {
        fill: #fff;
      }
    </style>
  </defs>
  <g>
    <path class="st1" d="M135,2160.1c-35.9,0-69.8-14.1-95.4-39.7-25.6-25.6-39.7-59.5-39.7-95.4V135C-.1,99.1,14,65.2,39.6,39.6S99.1-.1,135-.1h3186c35.9,0,69.8,14.1,95.4,39.7,25.6,25.6,39.7,59.5,39.7,95.4v1890c0,35.9-14.1,69.8-39.7,95.4-25.6,25.6-59.5,39.7-95.4,39.7H135Z"/>
    <path class="st0" d="M3321,0c74.2,0,135,60.8,135,135v1890c0,74.2-60.8,135-135,135H135c-74.2,0-135-60.8-135-135V135C0,60.8,60.8,0,135,0h3186M3321-.2H135C99-.2,65.1,13.9,39.5,39.5S-.2,99-.2,135v1890c0,36,14.1,69.9,39.7,95.5s59.5,39.7,95.5,39.7h3186c36,0,69.9-14.1,95.5-39.7,25.6-25.6,39.7-59.5,39.7-95.5V135c0-36-14.1-69.9-39.7-95.5-25.6-25.6-59.5-39.7-95.5-39.7h0Z"/>
  </g>
  <path class="st0" d="M135,2124c-54.6,0-99-44.4-99-99V135c0-54.6,44.4-99,99-99h3186c54.6,0,99,44.4,99,99v1890c0,54.6-44.4,99-99,99H135ZM3321,2070c24.8,0,45-20.2,45-45V135c0-24.8-20.2-45-45-45H135c-24.8,0-45,20.2-45,45v1890c0,24.8,20.2,45,45,45h3186Z"/>
  <rect class="st0" x="2218.5" y="1080" width="54" height="1015.3" transform="translate(4491.1 3175.3) rotate(-180)"/>
  <g>
    <path class="st0" d="M2644.2,1749v195s-45.4,0-45.4,0v-288h45.4s105.1,183.9,105.1,183.9v-183.9h45.5v288h-40.4l-110.2-195Z"/>
    <path class="st0" d="M2864,1656h45.4s0,245.6,0,245.6h133.2v42.4h-178.6s0-288,0-288Z"/>
    <path class="st0" d="M3207.2,1944h-45.7s0-125.3,0-125.3l-101.6-162.7h54.9l69,111.2,70.1-111.2h53.8s-100.5,162.7-100.5,162.7v125.3Z"/>
    <path class="st0" d="M2535.5,1800c0,10.3,2.2,149-102.3,149-104.5,0-102.3-138.7-102.3-149s-2.2-149,102.3-149c104.5,0,102.3,138.7,102.3,149ZM2433.6,1902.6c31,0,56.2-29.4,56.2-102.6s-25.2-102.6-56.2-102.6-56.2,29.4-56.2,102.6,25.2,102.6,56.2,102.6Z"/>
  </g>
  <g>
    <path class="st0" d="M461.7,1749v195h-45.4v-288h45.4s105.1,183.9,105.1,183.9v-183.9h45.5v288h-40.4l-110.2-195Z"/>
    <path class="st0" d="M681.4,1656h45.4s0,245.6,0,245.6h133.2v42.4s-178.6,0-178.6,0v-288Z"/>
    <path class="st0" d="M1024.6,1944h-45.7s0-125.3,0-125.3l-101.6-162.7h54.9l69,111.2,70.1-111.2h53.8l-100.5,162.7v125.3Z"/>
    <path class="st0" d="M352.9,1800c0,10.3,2.2,149-102.3,149-104.5,0-102.3-138.7-102.3-149s-2.2-149,102.3-149c104.5,0,102.3,138.7,102.3,149ZM251.1,1902.6c31,0,56.2-29.4,56.2-102.6,0-73.2-25.2-102.6-56.2-102.6s-56.2,29.4-56.2,102.6c0,73.2,25.2,102.6,56.2,102.6Z"/>
  </g>
  <rect class="st0" x="1183.5" y="1260" width="54" height="864"/>
  <path class="st0" d="M1475.5,712.3l95.6,65.1c130.7,89,241.3,204.5,324.5,339.1h0s0-530.4,0-530.4l-104.6,30.5c-14.9,4.3-30.5-4.2-34.9-19.1-2.4-8.1-1-16.8,3.8-23.8l220.1-321.6,220.1,321.6c8.8,12.8,5.5,30.3-7.3,39.1-7,4.8-15.7,6.1-23.8,3.8l-104.6-30.5v1322h-168.8v-198c0-317.5-157-614.5-419.5-793.2l-95.6-65.1-33.7,103.7c-4.8,14.8-20.7,22.9-35.4,18.1-8-2.6-14.4-8.7-17.5-16.5l-141.9-362.9,389.7-.9c15.5,0,28.2,12.5,28.2,28.1,0,8.4-3.7,16.4-10.2,21.8l-84.1,69.3Z"/>
  <path class="st0" d="M2921.4,1019.4c-140,41.5-236,170.1-236,316v212.6h-168.8v-212.6c0-220.7,145.2-415.2,356.8-477.9l22.4-6.6-59-91.6h0c-4.6-7.1-5.7-15.8-3.1-23.9,4.8-14.8,20.6-22.9,35.4-18.1h0s370.9,119.7,370.9,119.7l-245.9,302.4h0c-5.3,6.5-13.3,10.3-21.7,10.4-15.5,0-28.2-12.5-28.2-28h0s-.5-109-.5-109l-22.3,6.6Z"/>
  <path class="st0" d="M534.6,1019.4c140,41.5,236,170.1,236,316v212.6h168.8v-212.6c0-220.7-145.2-415.2-356.8-477.9l-22.4-6.6,59-91.6h0c4.6-7.1,5.7-15.8,3.1-23.9-4.8-14.8-20.6-22.9-35.4-18.1h0s-370.9,119.7-370.9,119.7l245.9,302.4h0c5.3,6.5,13.3,10.3,21.7,10.4,15.5,0,28.2-12.5,28.2-28h0s.5-109,.5-109l22.3,6.6Z"/>
</svg>