<?xml version="1.0" encoding="UTF-8"?>
<svg id="For_Sheets" xmlns="http://www.w3.org/2000/svg" version="1.1" viewBox="0 0 1728 1728">
  <!-- Generator: Adobe Illustrator 29.1.0, SVG Export Plug-In . SVG Version: 2.1.0 Build 142)  -->
  <defs>
    <style>
      .st0 {
        fill: #231f20;
      }

      .st1 {
        fill: #bf311a;
        fill-rule: evenodd;
      }

      .st2 {
        fill: #fff;
      }
    </style>
  </defs>
  <g>
    <rect class="st2" x="-.1" y="-.1" width="1728.2" height="1728.2" rx="108.1" ry="108.1"/>
    <path class="st0" d="M1620,0c59.4,0,108,48.6,108,108v1512c0,59.4-48.6,108-108,108H108c-59.4,0-108-48.6-108-108V108C0,48.6,48.6,0,108,0h1512M1620-.2H108C79.2-.2,52.1,11,31.5,31.5,11,52.1-.2,79.2-.2,108v1512c0,28.8,11.3,55.9,31.8,76.5,20.5,20.5,47.7,31.8,76.5,31.8h1512c28.8,0,55.9-11.3,76.5-31.8,20.5-20.5,31.8-47.7,31.8-76.5V108c0-28.8-11.3-55.9-31.8-76.5-20.5-20.5-47.7-31.8-76.5-31.8h0Z"/>
  </g>
  <path class="st0" d="M108,1701c-44.7,0-81-36.3-81-81V108c0-44.7,36.3-81,81-81h1512c44.7,0,81,36.3,81,81v1512c0,44.7-36.3,81-81,81H108ZM1620,1656c19.9,0,36-16.1,36-36V108c0-19.9-16.1-36-36-36H108c-19.9,0-36,16.1-36,36v1512c0,19.9,16.1,36,36,36h1512Z"/>
  <g>
    <path class="st0" d="M1280.2,1350h-148.5v-454.5c0-90.6-73.7-164.2-164.2-164.2s-164.2,73.7-164.2,164.2v191.5h-148.5v-191.5c0-42.2,8.3-83.2,24.6-121.8,15.8-37.3,38.3-70.7,67-99.4,28.7-28.7,62.1-51.2,99.4-67,38.6-16.3,79.6-24.6,121.8-24.6s83.2,8.3,121.8,24.6c37.3,15.8,70.7,38.3,99.4,67,28.7,28.7,51.2,62.1,67,99.4,16.3,38.6,24.6,79.6,24.6,121.8v454.5Z"/>
    <path class="st0" d="M895.3,1029.2c2.3-.7,4.6-1,6.9-1,13.7,0,24.8,11.1,24.8,24.8,0,4.8-1.4,9.7-4.3,14l-193.7,283-193.7-283c-2.9-4.3-4.3-9.2-4.3-14,0-13.7,11.1-24.8,24.8-24.8,2.3,0,4.6.3,6.9,1l166.3,48.5,166.3-48.5Z"/>
  </g>
  <g>
    <rect class="st0" x="542" y="582.8" width="425.5" height="148.5"/>
    <path class="st0" d="M599.8,823.3c.7,2.3,1,4.6,1,6.9,0,13.7-11.1,24.8-24.8,24.8-4.8,0-9.7-1.4-14-4.3l-283-193.7,283-193.7c4.3-2.9,9.2-4.3,14-4.3,13.7,0,24.8,11.1,24.8,24.8,0,2.3-.3,4.6-1,6.9l-48.5,166.3,48.5,166.3Z"/>
  </g>
  <path class="st1" d="M864,117c-412.6,0-747,334.4-747,747s334.4,747,747,747,747-334.4,747-747S1276.6,117,864,117ZM243,864c0-150.4,53.5-288.3,142.5-395.8l874.3,874.3c-107.5,89-245.4,142.5-395.8,142.5-343,0-621-278-621-621ZM1342.5,1259.8L468.2,385.5c107.5-89,245.4-142.5,395.8-142.5,343,0,621,278,621,621s-53.5,288.3-142.5,395.8Z"/>
</svg>