<?xml version="1.0" encoding="UTF-8" standalone="no"?>
<!-- Created with Inkscape (http://www.inkscape.org/) -->

<svg
   version="1.1"
   id="svg1"
   width="5760.6665"
   height="3456.6667"
   viewBox="0 0 5760.6665 3456.6667"
   sodipodi:docname="tmpy8u7w11d.pdf"
   xmlns:inkscape="http://www.inkscape.org/namespaces/inkscape"
   xmlns:sodipodi="http://sodipodi.sourceforge.net/DTD/sodipodi-0.dtd"
   xmlns="http://www.w3.org/2000/svg"
   xmlns:svg="http://www.w3.org/2000/svg">
  <defs
     id="defs1" />
  <sodipodi:namedview
     id="namedview1"
     pagecolor="#ffffff"
     bordercolor="#000000"
     borderopacity="0.25"
     inkscape:showpageshadow="2"
     inkscape:pageopacity="0.0"
     inkscape:pagecheckerboard="0"
     inkscape:deskcolor="#d1d1d1">
    <inkscape:page
       x="0"
       y="0"
       inkscape:label="1"
       id="page1"
       width="5760.6665"
       height="3456.6667"
       margin="0"
       bleed="0" />
  </sodipodi:namedview>
  <g
     id="g1"
     inkscape:groupmode="layer"
     inkscape:label="1">
    <g
       id="group-R5">
      <path
         id="path2"
         d="M 1622.5,1.20313 C 728.539,1.20313 1.25391,728.5 1.25391,1622.5 v 22680 c 0,894 727.28509,1621.2 1621.24609,1621.2 h 39960 c 894,0 1621.3,-727.2 1621.3,-1621.2 v -22680 c 0,-894 -727.3,-1621.29687 -1621.3,-1621.29687 h -39960"
         style="fill:#ffffff;fill-opacity:1;fill-rule:nonzero;stroke:none"
         transform="matrix(0.13333333,0,0,-0.13333333,0,3456.6667)" />
      <path
         id="path3"
         d="m 41582.5,25925 h -39960 c -433.38,0 -840.832,-168.8 -1147.277,-475.2 C 168.77,25143.3 0,24735.9 0,24302.5 V 1622.5 C 0,1189.1 168.77,781.699 475.223,475.199 781.668,168.801 1189.12,0 1622.5,0 h 39960 c 433.4,0 840.8,168.801 1147.3,475.199 306.4,306.5 475.2,713.901 475.2,1147.301 v 22680 c 0,433.4 -168.8,840.8 -475.2,1147.3 -306.5,306.4 -713.9,475.2 -1147.3,475.2 z m 0,-2.5 c 894.7,0 1620,-725.3 1620,-1620 v -22680 c 0,-894.699 -725.3,-1620 -1620,-1620 H 1622.5 C 727.801,2.5 2.5,727.801 2.5,1622.5 v 22680 c 0,894.7 725.301,1620 1620,1620 h 39960"
         style="fill:#231f20;fill-opacity:1;fill-rule:nonzero;stroke:none"
         transform="matrix(0.13333333,0,0,-0.13333333,0,3456.6667)" />
      <path
         id="path4"
         d="m 1622.5,452.5 c -645.141,0 -1170,524.902 -1170,1170 v 22680 c 0,645.1 524.859,1170 1170,1170 h 39960 c 645.1,0 1170,-524.9 1170,-1170 v -22680 c 0,-645.098 -524.9,-1170 -1170,-1170 h -39960"
         style="fill:#231f20;fill-opacity:1;fill-rule:nonzero;stroke:none"
         transform="matrix(0.13333333,0,0,-0.13333333,0,3456.6667)" />
      <path
         id="path5"
         d="m 1622.5,1082.5 c -297.76,0 -540,242.2 -540,540 v 22680 c 0,297.8 242.24,540 540,540 h 39960 c 297.8,0 540,-242.2 540,-540 v -22680 c 0,-297.8 -242.2,-540 -540,-540 h -39960"
         style="fill:#ffffff;fill-opacity:1;fill-rule:nonzero;stroke:none"
         transform="matrix(0.13333333,0,0,-0.13333333,0,3456.6667)" />
      <path
         id="path6"
         d="m 15257.9,798.203 h -630 V 12962.5 h 630 V 798.203"
         style="fill:#231f20;fill-opacity:1;fill-rule:nonzero;stroke:none"
         transform="matrix(0.13333333,0,0,-0.13333333,0,3456.6667)" />
      <path
         id="path7"
         d="M 33162.1,4960.1 V 2522.5 h -567.9 v 3600 h 567.9 L 34476,3823.4 v 2299.1 h 568.8 v -3600 h -505.3 l -1377.4,2437.6"
         style="fill:#231f20;fill-opacity:1;fill-rule:nonzero;stroke:none"
         transform="matrix(0.13333333,0,0,-0.13333333,0,3456.6667)" />
      <path
         id="path8"
         d="m 35908.9,6122.5 h 567.9 V 3053 h 1664.9 v -530.5 h -2232.8 v 3600"
         style="fill:#231f20;fill-opacity:1;fill-rule:nonzero;stroke:none"
         transform="matrix(0.13333333,0,0,-0.13333333,0,3456.6667)" />
      <path
         id="path9"
         d="m 40198.7,2522.5 h -571.4 v 1566.4 l -1269.4,2033.6 h 685.7 l 863.1,-1389.6 876.1,1389.6 h 672.7 L 40198.7,4088.9 V 2522.5"
         style="fill:#231f20;fill-opacity:1;fill-rule:nonzero;stroke:none"
         transform="matrix(0.13333333,0,0,-0.13333333,0,3456.6667)" />
      <path
         id="path10"
         d="m 30529.6,3040 c 387.9,0 702.9,367.6 702.9,1282.5 0,914.8 -315,1282.5 -702.9,1282.5 -387.9,0 -702.9,-367.2 -702.9,-1282.5 0,-914.9 315,-1282.5 702.9,-1282.5 z m 1272.6,1282.5 c 0,-129.2 27.4,-1863 -1278.9,-1863 -1306.4,0 -1278.9,1733.8 -1278.9,1863 0,129.1 -27.5,1862.5 1278.9,1862.5 1306.3,0 1278.9,-1733.4 1278.9,-1862.5"
         style="fill:#231f20;fill-opacity:1;fill-rule:nonzero;stroke:none"
         transform="matrix(0.13333333,0,0,-0.13333333,0,3456.6667)" />
      <path
         id="path11"
         d="M 5667.32,4960.1 V 2522.5 h -567.88 v 3600 h 567.88 L 6981.27,3823.4 v 2299.1 h 568.77 v -3600 h -505.32 l -1377.4,2437.6"
         style="fill:#231f20;fill-opacity:1;fill-rule:nonzero;stroke:none"
         transform="matrix(0.13333333,0,0,-0.13333333,0,3456.6667)" />
      <path
         id="path12"
         d="m 8414.17,6122.5 h 567.88 V 3053 H 10647 V 2522.5 H 8414.17 v 3600"
         style="fill:#231f20;fill-opacity:1;fill-rule:nonzero;stroke:none"
         transform="matrix(0.13333333,0,0,-0.13333333,0,3456.6667)" />
      <path
         id="path13"
         d="m 12704,2522.5 h -571.5 v 1566.4 l -1269.4,2033.6 h 685.8 l 863,-1389.6 876.2,1389.6 h 672.7 L 12704,4088.9 V 2522.5"
         style="fill:#231f20;fill-opacity:1;fill-rule:nonzero;stroke:none"
         transform="matrix(0.13333333,0,0,-0.13333333,0,3456.6667)" />
      <path
         id="path14"
         d="m 3034.81,3040 c 387.91,0 702.9,367.6 702.9,1282.5 0,914.8 -314.99,1282.5 -702.9,1282.5 -387.89,0 -702.89,-367.2 -702.89,-1282.5 0,-914.9 315,-1282.5 702.89,-1282.5 z m 1272.6,1282.5 c 0,-129.2 27.45,-1863 -1278.89,-1863 -1306.35,0 -1278.9,1733.8 -1278.9,1863 0,129.1 -27.45,1862.5 1278.9,1862.5 1306.34,0 1278.89,-1733.4 1278.89,-1862.5"
         style="fill:#231f20;fill-opacity:1;fill-rule:nonzero;stroke:none"
         transform="matrix(0.13333333,0,0,-0.13333333,0,3456.6667)" />
      <path
         id="path15"
         d="m 28577.1,452.5 v 10350 h -629.9 V 452.5 h 629.9"
         style="fill:#231f20;fill-opacity:1;fill-rule:evenodd;stroke:none"
         transform="matrix(0.13333333,0,0,-0.13333333,0,3456.6667)" />
      <path
         id="path16"
         d="m 24596,17375.5 -1147.1,-781.2 C 21880.1,15525.9 20553.5,14139.7 19555,12525.6 v 0 6329.1 l 1255.5,-366.2 c 179,-52.2 366.3,50.6 418.5,229.5 28.3,97.1 11.6,201.7 -45.5,285.1 l -2641,3859.4 -2641,-3859.4 c -105.3,-153.8 -65.9,-363.9 87.9,-469.1 83.4,-57.1 188.1,-73.8 285.1,-45.5 l 1255.5,366.2 V 3062.5 h 2025 v 2340 c 0,3810 1884.5,7373.4 5033.7,9518 l 1147.1,781.2 404,-1243.8 c 57.6,-177.3 248,-274.3 425.3,-216.7 96.1,31.2 173.2,103.9 210,198 l 1703.4,4355.3 -4676.5,10.5 c -186.4,0.5 -337.9,-150.3 -338.3,-336.7 -0.2,-101.1 44.9,-197 122.9,-261.2 l 1009.4,-831.6"
         style="fill:#231f20;fill-opacity:1;fill-rule:nonzero;stroke:none"
         transform="matrix(0.13333333,0,0,-0.13333333,0,3456.6667)" />
      <path
         id="path17"
         d="m 33865,7382.5 h -2025 v 2497.6 c 0,649 104.7,1288.9 311.1,1902 201.5,598.4 495.5,1158.8 873.9,1665.5 378.4,506.8 832.2,947.9 1348.7,1311 529.3,372.1 1113.1,654.2 1735.4,838.5 l 547.4,162.1 575.1,-1941.6 -547.4,-162.1 c -411.2,-121.8 -796.7,-308 -1145.8,-553.5 -341.1,-239.7 -640.8,-531.1 -890.8,-866 -250.1,-334.8 -444.3,-705 -577.4,-1100 -136.1,-404.5 -205.2,-827 -205.2,-1255.9 V 7382.5"
         style="fill:#231f20;fill-opacity:1;fill-rule:nonzero;stroke:none"
         transform="matrix(0.13333333,0,0,-0.13333333,0,3456.6667)" />
      <path
         id="path18"
         d="m 35664.5,16774.8 c -17.7,27.6 -30.9,56.8 -39.8,86.8 -52.9,178.7 49.1,366.6 227.8,419.5 63,18.7 132.2,19.3 199.5,-2.4 l 4450.5,-1436.2 -2950.3,-3628.4 c -44.6,-54.9 -102.9,-92.1 -166,-110.7 -178.7,-52.9 -366.6,49.1 -419.5,227.8 -8.9,29.9 -13.7,61.6 -13.9,94.4 l -9.9,2362.5 -1278.4,1986.7"
         style="fill:#231f20;fill-opacity:1;fill-rule:nonzero;stroke:none"
         transform="matrix(0.13333333,0,0,-0.13333333,0,3456.6667)" />
      <path
         id="path19"
         d="m 9340,7382.5 h 2025 v 2497.6 c 0,649 -104.7,1288.9 -311.1,1902 -201.5,598.4 -495.5,1158.8 -873.9,1665.5 -378.44,506.8 -832.21,947.9 -1348.73,1311 -529.23,372.1 -1113.08,654.2 -1735.34,838.5 l -547.42,162.1 -575.15,-1941.6 547.44,-162.1 c 411.19,-121.8 796.7,-308 1145.84,-553.5 341.02,-239.7 640.74,-531.1 890.8,-866 250.06,-334.8 444.29,-705 577.32,-1100 C 9270.94,10731.5 9340,10309 9340,9880.1 V 7382.5"
         style="fill:#231f20;fill-opacity:1;fill-rule:nonzero;stroke:none"
         transform="matrix(0.13333333,0,0,-0.13333333,0,3456.6667)" />
      <path
         id="path20"
         d="m 7540.46,16774.8 c 17.75,27.6 30.94,56.8 39.82,86.8 52.94,178.7 -49.06,366.6 -227.78,419.5 -63.04,18.7 -132.19,19.3 -199.5,-2.4 L 2702.5,15842.5 5652.81,12214.1 c 44.62,-54.9 102.93,-92 166,-110.7 178.72,-52.9 366.56,49.1 419.5,227.8 8.86,29.9 13.72,61.6 13.85,94.4 l 9.89,2362.5 1278.41,1986.7"
         style="fill:#231f20;fill-opacity:1;fill-rule:nonzero;stroke:none"
         transform="matrix(0.13333333,0,0,-0.13333333,0,3456.6667)" />
    </g>
  </g>
</svg>
