<?xml version="1.0" standalone="no"?>
<svg width="2160px" height="1728px" viewBox="0 -936 2160 1728 " xmlns="http://www.w3.org/2000/svg" xmlns:xlink="http://www.w3.org/1999/xlink">
<title>generated by pstoedit</title>
<!-- generated by pstoedit version:4.02 -->
<g xml:space='preserve'>
<clipPath id="clippath1"> 	<path d="
	M 0 -936.5 
	L 0 792 
	L 2160.5 792 
	L 2160.5 -936.5 
	Z 
	" style="clip-rule:nonzero"/>
</clipPath>
<g style="clip-path:url(#clippath1)"> 
<g fill="#ffffff" fill-rule="nonzero" stroke-width="0" stroke-linejoin="miter" stroke-linecap="butt" stroke-miterlimit="10" >
	<path d="
	M 2160.25 683.75 
	C 2160.25 743.398 2111.9 791.75 2052.25 791.75 
	L 108.25 791.75 
	C 48.6016 791.75 0.25 743.398 0.25 683.75 
	L 0.25 -828.25 
	C 0.25 -887.9 48.6016 -936.25 108.25 -936.25 
	L 2052.25 -936.25 
	C 2111.9 -936.25 2160.25 -887.9 2160.25 -828.25 
	Z 
	"/>
</g>
<g stroke="#7f7f7f" fill="none" stroke-width="0.5" stroke-linejoin="miter" stroke-linecap="butt" stroke-miterlimit="4" >
	<path d="
	M 2160.25 683.75 
	C 2160.25 743.398 2111.9 791.75 2052.25 791.75 
	L 108.25 791.75 
	C 48.6016 791.75 0.25 743.398 0.25 683.75 
	L 0.25 -828.25 
	C 0.25 -887.9 48.6016 -936.25 108.25 -936.25 
	L 2052.25 -936.25 
	C 2111.9 -936.25 2160.25 -887.9 2160.25 -828.25 
	Z 
	"/>
</g>
<g fill="#7f7f7f" fill-rule="nonzero" stroke-width="0" stroke-linejoin="miter" stroke-linecap="butt" stroke-miterlimit="4" >
	<path d="
	M 1410.27 359.121 
	L 1384.95 462.699 
	L 1436.87 462.699 
	Z 
	M 1474.86 611.75 
	L 1449.53 513.219 
	L 1372.28 513.219 
	L 1348.22 611.75 
	L 1296.29 611.75 
	L 1386.21 251.75 
	L 1436.87 251.75 
	L 1526.79 611.75 
	Z 
	"/>
</g>
<g fill="#7f7f7f" fill-rule="nonzero" stroke-width="0" stroke-linejoin="miter" stroke-linecap="butt" stroke-miterlimit="4" >
	<path d="
	M 286.898 448.801 
	L 235.215 448.801 
	L 235.215 561.219 
	L 286.898 561.219 
	C 315.891 561.219 334.801 541.012 334.801 509.43 
	C 334.801 475.328 313.371 448.801 286.898 448.801 
	Z 
	M 289.422 302.281 
	L 235.215 302.281 
	L 235.215 398.281 
	L 289.422 398.281 
	C 313.371 398.281 328.496 378.059 328.496 345.219 
	C 328.496 314.91 317.152 302.281 289.422 302.281 
	Z 
	M 289.422 611.75 
	L 183.531 611.75 
	L 183.531 251.75 
	L 296.984 251.75 
	C 344.887 251.75 378.922 289.641 378.922 345.219 
	C 378.922 378.059 370.098 393.219 341.105 423.539 
	C 368.836 446.27 385.223 476.59 385.223 513.219 
	C 385.223 567.539 342.363 611.75 289.422 611.75 
	Z 
	"/>
</g>
<g fill="#7f7f7f" fill-rule="nonzero" stroke-width="0" stroke-linejoin="miter" stroke-linecap="butt" stroke-miterlimit="4" >
	<path d="
	M 738.113 611.75 
	L 738.113 251.75 
	L 907.867 251.75 
	L 907.867 302.281 
	L 790.055 302.281 
	L 790.055 393.219 
	L 864.797 393.219 
	L 864.797 442.488 
	L 790.055 442.488 
	L 790.055 561.219 
	L 921.805 561.219 
	L 921.805 611.75 
	Z 
	"/>
</g>
<g fill="#7f7f7f" fill-rule="nonzero" stroke-width="0" stroke-linejoin="miter" stroke-linecap="butt" stroke-miterlimit="4" >
	<path d="
	M 1793.28 611.75 
	L 1793.28 251.75 
	L 1963.03 251.75 
	L 1963.03 302.281 
	L 1845.22 302.281 
	L 1845.22 393.219 
	L 1919.96 393.219 
	L 1919.96 442.488 
	L 1845.22 442.488 
	L 1845.22 561.219 
	L 1976.97 561.219 
	L 1976.97 611.75 
	Z 
	"/>
</g>
<g fill="#7f7f7f" fill-rule="nonzero" stroke-width="0" stroke-linejoin="miter" stroke-linecap="butt" stroke-miterlimit="4" >
	<path d="
	M 415.824 611.75 
	L 415.824 251.75 
	L 466.223 251.75 
	L 466.223 611.75 
	Z 
	"/>
</g>
<g fill="#7f7f7f" fill-rule="nonzero" stroke-width="0" stroke-linejoin="miter" stroke-linecap="butt" stroke-miterlimit="4" >
	<path d="
	M 653.309 611.75 
	L 590.281 436.172 
	L 557.508 496.801 
	L 557.508 611.75 
	L 505.824 611.75 
	L 505.824 251.75 
	L 557.508 251.75 
	L 557.508 395.75 
	L 639.441 251.75 
	L 698.691 251.75 
	L 624.316 378.07 
	L 707.512 611.75 
	Z 
	"/>
</g>
<g fill="#7f7f7f" fill-rule="nonzero" stroke-width="0" stroke-linejoin="miter" stroke-linecap="butt" stroke-miterlimit="4" >
	<path d="
	M 1101.8 611.75 
	L 1101.8 251.75 
	L 1153.74 251.75 
	L 1153.74 563.75 
	L 1285.49 563.75 
	L 1285.49 611.75 
	Z 
	"/>
</g>
<g fill="#7f7f7f" fill-rule="nonzero" stroke-width="0" stroke-linejoin="miter" stroke-linecap="butt" stroke-miterlimit="4" >
	<path d="
	M 1714.6 611.75 
	L 1603.67 370.488 
	L 1603.67 611.75 
	L 1551.99 611.75 
	L 1551.99 251.75 
	L 1603.67 251.75 
	L 1701.99 467.75 
	L 1701.99 251.75 
	L 1753.68 251.75 
	L 1753.68 611.75 
	Z 
	"/>
</g>
<g fill="#7f7f7f" fill-rule="nonzero" stroke-width="0" stroke-linejoin="miter" stroke-linecap="butt" stroke-miterlimit="4" >
	<path d="
	M 1289.46 -236.61 
	L 1456.63 -272.61 
	L 1353.83 -409.25 
	C 1313.46 -372.11 1288.15 -318.86 1288.15 -259.68 
	C 1288.15 -251.88 1288.61 -244.18 1289.46 -236.61 
	Z 
	"/>
</g>
<g fill="#7f7f7f" fill-rule="nonzero" stroke-width="0" stroke-linejoin="miter" stroke-linecap="butt" stroke-miterlimit="4" >
	<path d="
	M 1517.84 -259.68 
	C 1517.84 -245.03 1505.97 -233.16 1491.33 -233.16 
	C 1486.65 -233.16 1482.26 -234.37 1478.45 -236.49 
	L 1297.82 -197.594 
	C 1324.06 -115.75 1400.77 -56.5 1491.33 -56.5 
	C 1603.54 -56.5 1694.5 -147.465 1694.5 -259.68 
	C 1694.5 -371.89 1603.54 -462.85 1491.33 -462.85 
	C 1452.64 -462.85 1416.48 -452.03 1385.7 -433.26 
	L 1496.76 -285.63 
	C 1508.8 -283.13 1517.84 -272.46 1517.84 -259.68 
	Z 
	"/>
</g>
<g fill="#7f7f7f" fill-rule="nonzero" stroke-width="0" stroke-linejoin="miter" stroke-linecap="butt" stroke-miterlimit="4" >
	<path d="
	M 1243.08 -226.62 
	C 1241.65 -237.43 1240.9 -248.47 1240.9 -259.68 
	C 1240.9 -334.29 1273.54 -401.27 1325.32 -447.15 
	L 1255.86 -539.47 
	L 1163.6 -209.5 
	Z 
	"/>
</g>
<g fill="#7f7f7f" fill-rule="nonzero" stroke-width="0" stroke-linejoin="miter" stroke-linecap="butt" stroke-miterlimit="4" >
	<path d="
	M 669.176 -56.5 
	C 781.387 -56.5 872.352 -147.465 872.352 -259.68 
	C 872.352 -317.29 848.367 -369.29 809.844 -406.27 
	C 794.188 -374.66 773.66 -345.52 757.184 -324.45 
	C 735.035 -296.12 712.641 -272.47 695.484 -256.41 
	C 693.871 -243.3 682.715 -233.16 669.176 -233.16 
	C 654.531 -233.16 642.656 -245.03 642.656 -259.68 
	C 642.656 -274.25 654.422 -286.08 668.973 -286.19 
	C 704.031 -319.05 752.695 -377.36 777.652 -431.48 
	C 746.262 -451.35 709.066 -462.85 669.176 -462.85 
	C 556.965 -462.85 466 -371.89 466 -259.68 
	C 466 -147.465 556.965 -56.5 669.176 -56.5 
	Z 
	"/>
</g>
<g fill="#7f7f7f" fill-rule="nonzero" stroke-width="0" stroke-linejoin="miter" stroke-linecap="butt" stroke-miterlimit="4" >
	<path d="
	M 1100.22 -284.1 
	L 1076 -284.1 
	L 1076 -303 
	L 1136.84 -303 
	L 1136.84 -284.1 
	L 1117.59 -284.1 
	L 1129.92 -237.22 
	L 1221.29 -563.97 
	L 863.578 -563.97 
	C 859.277 -550.05 854.926 -536.07 850.676 -522.51 
	L 1112.45 -237.6 
	Z 
	"/>
</g>
<g fill="#7f7f7f" fill-rule="nonzero" stroke-width="0" stroke-linejoin="miter" stroke-linecap="butt" stroke-miterlimit="4" >
	<path d="
	M 2088.25 683.75 
	C 2088.25 703.602 2072.1 719.75 2052.25 719.75 
	L 108.25 719.75 
	C 88.3984 719.75 72.25 703.602 72.25 683.75 
	L 72.25 143.75 
	L 2088.25 143.75 
	Z 
	M 669.176 -510.1 
	C 714.715 -510.1 757.414 -497.94 794.207 -476.7 
	C 815.371 -541.63 848.078 -649.34 861.922 -695.18 
	L 832.031 -718.04 
	L 878.66 -765.25 
	L 987.324 -765.25 
	L 987.324 -733.75 
	L 891.82 -733.75 
	L 879.566 -721.35 
	L 905.504 -701.51 
	C 903.805 -695.87 900.367 -684.46 895.777 -669.3 
	C 890.406 -651.55 883.453 -628.67 875.855 -603.88 
	L 1232.44 -603.88 
	L 1239.5 -629.11 
	C 1199.91 -632.89 1143.43 -646.44 1142.9 -663.05 
	C 1142.39 -679.26 1230.73 -678.86 1247.38 -679.07 
	C 1308.1 -679.85 1362.7 -694.55 1364.51 -674.93 
	C 1366.37 -654.69 1335.94 -633.77 1280.91 -629.04 
	L 1269.39 -587.86 
	L 1357.18 -471.17 
	C 1395.96 -495.82 1441.97 -510.1 1491.33 -510.1 
	C 1629.63 -510.1 1741.75 -397.98 1741.75 -259.68 
	C 1741.75 -121.367 1629.63 -9.25 1491.33 -9.25 
	C 1378.08 -9.25 1282.4 -84.434 1251.45 -187.605 
	L 1160.71 -168.063 
	C 1158.26 -163.945 1154.84 -160.48 1150.76 -157.984 
	L 1170.75 -81.973 
	L 1194.97 -81.973 
	L 1194.97 -63.07 
	L 1134.13 -63.07 
	L 1134.13 -81.973 
	L 1153.38 -81.973 
	L 1134.51 -153.723 
	C 1118.76 -154.238 1106.15 -167.16 1106.15 -183.035 
	C 1106.15 -183.82 1106.19 -184.602 1106.25 -185.371 
	L 836.777 -478.66 
	C 833.809 -469.42 830.996 -460.78 828.41 -452.96 
	C 884.102 -407.03 919.602 -337.5 919.602 -259.68 
	C 919.602 -121.367 807.48 -9.25 669.176 -9.25 
	C 530.867 -9.25 418.75 -121.367 418.75 -259.68 
	C 418.75 -397.98 530.867 -510.1 669.176 -510.1 
	Z 
	M 2052.25 -909.25 
	L 108.25 -909.25 
	C 63.5859 -909.25 27.25 -872.91 27.25 -828.25 
	L 27.25 683.75 
	C 27.25 728.41 63.5859 764.75 108.25 764.75 
	L 2052.25 764.75 
	C 2096.91 764.75 2133.25 728.41 2133.25 683.75 
	L 2133.25 -828.25 
	C 2133.25 -872.91 2096.91 -909.25 2052.25 -909.25 
	Z 
	"/>
</g>
</g >
</g>
</svg>
