<?xml version="1.0" encoding="UTF-8" standalone="no"?>
<!-- Created with Inkscape (http://www.inkscape.org/) -->

<svg
   version="1.1"
   id="svg1"
   width="6336.6665"
   height="3456.6667"
   viewBox="0 0 6336.6665 3456.6667"
   sodipodi:docname="tmp4zh5vypu.pdf"
   xmlns:inkscape="http://www.inkscape.org/namespaces/inkscape"
   xmlns:sodipodi="http://sodipodi.sourceforge.net/DTD/sodipodi-0.dtd"
   xmlns="http://www.w3.org/2000/svg"
   xmlns:svg="http://www.w3.org/2000/svg">
  <defs
     id="defs1" />
  <sodipodi:namedview
     id="namedview1"
     pagecolor="#ffffff"
     bordercolor="#000000"
     borderopacity="0.25"
     inkscape:showpageshadow="2"
     inkscape:pageopacity="0.0"
     inkscape:pagecheckerboard="0"
     inkscape:deskcolor="#d1d1d1">
    <inkscape:page
       x="0"
       y="0"
       inkscape:label="1"
       id="page1"
       width="6336.6665"
       height="3456.6667"
       margin="0"
       bleed="0" />
  </sodipodi:namedview>
  <g
     id="g1"
     inkscape:groupmode="layer"
     inkscape:label="1">
    <g
       id="group-R5">
      <path
         id="path2"
         d="m 47522.5,1622.5 c 0,-894.699 -725.3,-1620 -1620,-1620 H 1622.5 C 727.805,2.5 2.5,727.801 2.5,1622.5 v 22680 c 0,894.7 725.305,1620 1620.01,1620 H 45902.5 c 894.7,0 1620,-725.3 1620,-1620 v -22680"
         style="fill:#ffffff;fill-opacity:1;fill-rule:nonzero;stroke:none"
         transform="matrix(0.13333333,0,0,-0.13333333,0,3456.6667)" />
      <path
         id="path3"
         d="m 47522.5,1622.5 c 0,-894.699 -725.3,-1620 -1620,-1620 H 1622.5 C 727.805,2.5 2.5,727.801 2.5,1622.5 v 22680 c 0,894.7 725.305,1620 1620.01,1620 H 45902.5 c 894.7,0 1620,-725.3 1620,-1620 z"
         style="fill:none;stroke:#231f20;stroke-width:5;stroke-linecap:butt;stroke-linejoin:miter;stroke-miterlimit:4;stroke-dasharray:none;stroke-opacity:1"
         transform="matrix(0.13333333,0,0,-0.13333333,0,3456.6667)" />
      <path
         id="path4"
         d="m 32457.2,21187.5 c -136.7,227.4 -303.8,318.4 -562.2,333.5 -334.3,15.2 -547,-151.6 -698.9,-530.5 -106.4,-257.7 -167.2,-651.8 -167.2,-1015.6 0,-454.7 91.2,-924.6 258.3,-1197.5 136.8,-227.3 319.1,-333.5 592.6,-333.5 319.1,0 516.7,166.8 668.6,545.8 91.2,227.3 167.2,651.7 167.2,985.2 0,485.1 -91.2,924.6 -258.4,1212.6 z m 471.1,-2955.7 c -243.1,-333.5 -592.6,-485.1 -1048.5,-485.1 -607.7,0 -987.7,242.5 -1246,773.1 -182.3,363.8 -303.8,939.7 -303.8,1455.1 0,712.4 182.3,1349 471,1758.3 258.3,333.5 607.8,485.1 1109.2,485.1 547,0 926.9,-242.6 1200.4,-773.1 182.3,-378.9 288.7,-924.6 288.7,-1470.3 0,-682.1 -167.1,-1364.2 -471,-1743.1"
         style="fill:#231f20;fill-opacity:1;fill-rule:nonzero;stroke:none"
         transform="matrix(0.13333333,0,0,-0.13333333,0,3456.6667)" />
      <path
         id="path5"
         d="m 35862.2,17822.5 h -532.4 l -1368.9,4320 h 714.9 l 927.8,-2880 912.6,2880 h 730.1 l -1384.1,-4320"
         style="fill:#231f20;fill-opacity:1;fill-rule:nonzero;stroke:none"
         transform="matrix(0.13333333,0,0,-0.13333333,0,3456.6667)" />
      <path
         id="path6"
         d="m 28697.4,17822.5 v 1879.6 h -1576.5 v -1879.6 h -682.2 v 4320 h 682.2 v -1743.2 h 1576.5 v 1743.2 h 682.2 v -4320 h -682.2"
         style="fill:#231f20;fill-opacity:1;fill-rule:nonzero;stroke:none"
         transform="matrix(0.13333333,0,0,-0.13333333,0,3456.6667)" />
      <path
         id="path7"
         d="M 30630.3,3782.5 28977.9,6708 V 3782.5 h -682.1 v 4320 h 682.1 l 1576.6,-2758.7 v 2758.7 h 682.1 v -4320 h -606.3"
         style="fill:#231f20;fill-opacity:1;fill-rule:nonzero;stroke:none"
         transform="matrix(0.13333333,0,0,-0.13333333,0,3456.6667)" />
      <path
         id="path8"
         d="m 38378.7,4040.2 c -242.6,-212.2 -576.1,-333.5 -939.9,-333.5 -742.7,0 -1288.5,439.6 -1576.5,1091.4 l 651.8,242.5 c 182,-409.2 515.4,-636.6 924.7,-636.6 394.1,0 667,272.9 667,636.6 0,576.1 -667,667 -1227.9,894.4 -257.7,106.1 -833.7,363.7 -833.7,1076.2 0,848.8 576,1167.1 1349.2,1167.1 606.3,0 1015.6,-348.6 1227.8,-879.1 l -606.3,-181.9 c 0,0 -151.6,363.8 -636.7,378.9 -318.4,15.2 -697.3,-106.1 -667,-500.2 60.6,-803.4 2091.9,-272.8 2091.9,-1970.5 0,-394.1 -151.6,-742.7 -424.4,-985.3"
         style="fill:#231f20;fill-opacity:1;fill-rule:nonzero;stroke:none"
         transform="matrix(0.13333333,0,0,-0.13333333,0,3456.6667)" />
      <path
         id="path9"
         d="m 34168.3,7238.6 c -106.1,106.1 -257.7,181.9 -439.6,181.9 h -773.1 V 4479.8 h 682.2 c 227.4,0 363.8,45.5 485,166.7 257.7,257.7 394.2,727.7 394.2,1303.6 0,576 -136.5,1061.1 -348.7,1288.5 z m 288,-3213.6 c -166.7,-151.5 -394.1,-227.3 -621.5,-242.5 -45.5,0 -136.4,0 -242.5,0 h -1318.9 v 4320 H 33668 c 439.7,0 606.4,-45.4 833.8,-227.3 454.8,-394.1 712.5,-1076.2 712.5,-1925.1 0,-864 -272.9,-1546.1 -758,-1925.1"
         style="fill:#231f20;fill-opacity:1;fill-rule:nonzero;stroke:none"
         transform="matrix(0.13333333,0,0,-0.13333333,0,3456.6667)" />
      <path
         id="path10"
         d="m 24881.9,3782.5 v 4320 h 2543.2 v -682.1 h -1862 v -1061 h 1256.5 V 5662.1 H 25563.1 V 4479.8 h 1998.3 v -697.3 h -2679.5"
         style="fill:#231f20;fill-opacity:1;fill-rule:nonzero;stroke:none"
         transform="matrix(0.13333333,0,0,-0.13333333,0,3456.6667)" />
      <path
         id="path11"
         d="m 34994.1,13970.5 c -60.9,424.4 -228.3,621.5 -517.6,621.5 -502.3,0 -684.9,-394.1 -684.9,-1515.8 0,-1243 213.1,-1743.2 745.8,-1743.2 365.4,0 456.7,303.2 456.7,621.5 h 624.1 c -15.2,-712.4 -471.9,-1227.8 -1080.8,-1227.8 -928.5,0 -1339.5,742.7 -1339.5,2334.3 0,1394.6 441.5,2137.3 1293.9,2137.3 350.1,0 654.5,-151.6 852.4,-439.6 167.4,-212.2 228.3,-394.1 274,-788.2 h -624.1"
         style="fill:#231f20;fill-opacity:1;fill-rule:nonzero;stroke:none"
         transform="matrix(0.13333333,0,0,-0.13333333,0,3456.6667)" />
      <path
         id="path12"
         d="m 21477.8,10802.5 v 4320 h 2037 v -606.3 H 22101 v -1091.4 h 896.9 v -591.2 H 22101 v -1424.8 h 1581 v -606.3 h -2204.2"
         style="fill:#231f20;fill-opacity:1;fill-rule:nonzero;stroke:none"
         transform="matrix(0.13333333,0,0,-0.13333333,0,3456.6667)" />
      <path
         id="path13"
         d="m 32074.7,10802.5 v 4320 h 604.8 v -4320 h -604.8"
         style="fill:#231f20;fill-opacity:1;fill-rule:nonzero;stroke:none"
         transform="matrix(0.13333333,0,0,-0.13333333,0,3456.6667)" />
      <path
         id="path14"
         d="m 38496.4,10802.5 v 4320 h 604.8 v -4320 h -604.8"
         style="fill:#231f20;fill-opacity:1;fill-rule:nonzero;stroke:none"
         transform="matrix(0.13333333,0,0,-0.13333333,0,3456.6667)" />
      <path
         id="path15"
         d="m 44639.2,10802.5 -1331.1,2895.1 v -2895.1 h -620.2 v 4320 h 620.2 l 1179.8,-2592 v 2592 h 620.2 v -4320 h -468.9"
         style="fill:#231f20;fill-opacity:1;fill-rule:nonzero;stroke:none"
         transform="matrix(0.13333333,0,0,-0.13333333,0,3456.6667)" />
      <path
         id="path16"
         d="m 41436.6,14046.3 c -106.9,378.9 -274.9,545.7 -534.4,545.7 -274.9,0 -442.8,-166.8 -549.7,-530.6 -106.9,-333.4 -137.4,-621.4 -137.4,-1106.5 0,-469.9 45.8,-742.7 137.4,-1091.4 106.9,-363.8 274.8,-530.5 549.7,-530.5 259.5,0 427.5,166.7 534.4,530.5 106.9,348.7 137.4,606.4 137.4,1106.6 0,485 -45.8,757.9 -137.4,1076.2 z m 488.6,-2576.9 c -213.8,-515.3 -534.4,-742.7 -1023,-742.7 -519.2,0 -824.5,227.4 -1038.3,742.7 -183.2,424.4 -244.3,833.7 -244.3,1500.7 0,651.8 61.1,1091.3 244.3,1500.6 229,515.4 534.4,727.6 1038.3,727.6 503.8,0 809.2,-212.2 1023,-742.8 183.2,-424.4 244.3,-833.6 244.3,-1485.4 0,-667 -61.1,-1091.4 -244.3,-1500.7"
         style="fill:#231f20;fill-opacity:1;fill-rule:nonzero;stroke:none"
         transform="matrix(0.13333333,0,0,-0.13333333,0,3456.6667)" />
      <path
         id="path17"
         d="M 19872.4,14516.2 H 19237 v -1091.4 h 635.4 c 363,0 559.6,197.1 559.6,545.7 0,333.5 -226.9,545.7 -559.6,545.7 z m 529.4,-3713.7 -574.8,2031.2 h -590 v -2031.2 h -620.2 v 4320 h 1285.8 c 680.7,0 1134.5,-454.7 1134.5,-1152 0,-515.4 -211.8,-894.3 -620.2,-1045.9 l 620.2,-2122.1 h -635.3"
         style="fill:#231f20;fill-opacity:1;fill-rule:nonzero;stroke:none"
         transform="matrix(0.13333333,0,0,-0.13333333,0,3456.6667)" />
      <path
         id="path18"
         d="M 30469.3,14516.2 H 29834 v -1091.4 h 635.3 c 363.1,0 559.7,197.1 559.7,545.7 0,333.5 -226.9,545.7 -559.7,545.7 z m 529.5,-3713.7 -574.9,2031.2 H 29834 v -2031.2 h -620.2 v 4320 h 1285.8 c 680.7,0 1134.5,-454.7 1134.5,-1152 0,-515.4 -211.8,-894.3 -620.2,-1045.9 l 620.2,-2122.1 h -635.3"
         style="fill:#231f20;fill-opacity:1;fill-rule:nonzero;stroke:none"
         transform="matrix(0.13333333,0,0,-0.13333333,0,3456.6667)" />
      <path
         id="path19"
         d="m 25223.2,12797.5 c -186.9,121.1 -368.4,242.6 -484.2,324.1 -348.3,245.2 -532.8,576 -532.8,955 0,621.5 487.1,1121.7 1111.2,1121.7 608.9,0 1080.7,-469.9 1096,-1121.7 h -593.7 c -15.2,303.1 -228.3,500.2 -502.3,500.2 -289.2,0 -517.6,-212.2 -517.6,-500.2 0,-212.2 91.4,-333.5 411,-515.4 837.2,-485 1202.6,-954.9 1202.6,-1576.4 0,-697.3 -532.8,-1258.1 -1202.6,-1258.1 -761.1,0 -1217.7,636.6 -1217.7,1349 h 608.9 c 0,-363.7 182.6,-742.7 608.8,-742.7 334.9,0 608.9,303.2 608.9,651.8 0,270.7 -111.8,498.7 -596.5,812.7"
         style="fill:#231f20;fill-opacity:1;fill-rule:nonzero;stroke:none"
         transform="matrix(0.13333333,0,0,-0.13333333,0,3456.6667)" />
      <path
         id="path20"
         d="m 28060.4,14546.5 v -3744 h -623.3 v 3744 h -790.4 v 576 h 2204.2 v -576 h -790.5"
         style="fill:#231f20;fill-opacity:1;fill-rule:nonzero;stroke:none"
         transform="matrix(0.13333333,0,0,-0.13333333,0,3456.6667)" />
      <path
         id="path21"
         d="m 37343,14546.5 v -3744 h -623.3 v 3744 h -790.5 v 576 h 2204.3 v -576 H 37343"
         style="fill:#231f20;fill-opacity:1;fill-rule:nonzero;stroke:none"
         transform="matrix(0.13333333,0,0,-0.13333333,0,3456.6667)" />
      <path
         id="path22"
         d="M 5956.22,12962.5 8867.5,7139.9 11778.8,12962.5 8867.5,18785.1 5956.22,12962.5"
         style="fill:#231f20;fill-opacity:1;fill-rule:nonzero;stroke:none"
         transform="matrix(0.13333333,0,0,-0.13333333,0,3456.6667)" />
      <path
         id="path23"
         d="m 46442.5,1622.5 c 0,-297.7 -242.3,-540 -540,-540 h -25100 -3520 v 23760 h 3520 25100 c 297.7,0 540,-242.3 540,-540 z m -37575,2700 -4320,8640 4320,8640 4320,-8640 z m 37035,21150 h -44280 c -645.137,0 -1170,-524.9 -1170,-1170 v -22680 c 0,-645.098 524.863,-1170 1170,-1170 h 44280 c 645.1,0 1170,524.902 1170,1170 v 22680 c 0,645.1 -524.9,1170 -1170,1170"
         style="fill:#231f20;fill-opacity:1;fill-rule:nonzero;stroke:none"
         transform="matrix(0.13333333,0,0,-0.13333333,0,3456.6667)" />
    </g>
  </g>
</svg>
