<?xml version="1.0" encoding="UTF-8" standalone="no"?>
<!-- Created with Inkscape (http://www.inkscape.org/) -->

<svg
   version="1.1"
   id="svg1"
   width="5760.6665"
   height="2304.6667"
   viewBox="0 0 5760.6665 2304.6667"
   sodipodi:docname="tmpetikpmbi.pdf"
   xmlns:inkscape="http://www.inkscape.org/namespaces/inkscape"
   xmlns:sodipodi="http://sodipodi.sourceforge.net/DTD/sodipodi-0.dtd"
   xmlns="http://www.w3.org/2000/svg"
   xmlns:svg="http://www.w3.org/2000/svg">
  <defs
     id="defs1" />
  <sodipodi:namedview
     id="namedview1"
     pagecolor="#ffffff"
     bordercolor="#000000"
     borderopacity="0.25"
     inkscape:showpageshadow="2"
     inkscape:pageopacity="0.0"
     inkscape:pagecheckerboard="0"
     inkscape:deskcolor="#d1d1d1">
    <inkscape:page
       x="0"
       y="0"
       inkscape:label="1"
       id="page1"
       width="5760.6665"
       height="2304.6667"
       margin="0"
       bleed="0" />
  </sodipodi:namedview>
  <g
     id="g1"
     inkscape:groupmode="layer"
     inkscape:label="1">
    <g
       id="group-R5">
      <path
         id="path2"
         d="M 1352.5,1.19922 C 607.418,1.19922 1.25391,607.402 1.25391,1352.5 v 14580 c 0,745.1 606.16409,1351.2 1351.24609,1351.2 h 40500 c 745.1,0 1351.3,-606.1 1351.3,-1351.2 V 1352.5 C 43203.8,607.402 42597.6,1.19922 41852.5,1.19922 h -40500"
         style="fill:#ffffff;fill-opacity:1;fill-rule:nonzero;stroke:none"
         transform="matrix(0.13333333,0,0,-0.13333333,0,2304.6667)" />
      <path
         id="path3"
         d="m 41852.5,17285 h -40500 c -361.262,0 -700.91,-140.7 -956.363,-396.1 C 140.684,16633.4 0,16293.8 0,15932.5 V 1352.5 C 0,991.199 140.684,651.602 396.137,396.102 651.59,140.699 991.238,0 1352.5,0 h 40500 c 361.3,0 700.9,140.699 956.4,396.102 255.4,255.5 396.1,595.097 396.1,956.398 v 14580 c 0,361.3 -140.7,700.9 -396.1,956.4 -255.5,255.4 -595.1,396.1 -956.4,396.1 z m 0,-2.5 c 745.6,0 1350,-604.4 1350,-1350 v -14580 c 0,-745.602 -604.4,-1350 -1350,-1350 H 1352.5 C 606.914,2.5 2.5,606.898 2.5,1352.5 v 14580 c 0,745.6 604.414,1350 1350,1350 h 40500"
         style="fill:#231f20;fill-opacity:1;fill-rule:nonzero;stroke:none"
         transform="matrix(0.13333333,0,0,-0.13333333,0,2304.6667)" />
      <path
         id="path4"
         d="m 42212.5,1352.5 v 14580 c 0,198.8 -161.2,360 -360,360 h -40500 c -198.82,0 -360,-161.2 -360,-360 v -14580 c 0,-198.8 161.18,-360 360,-360 h 40500 c 198.8,0 360,161.2 360,360 z m -360,-900 h -40500 c -497.055,0 -900,402.902 -900,900 v 14580 c 0,497.1 402.945,900 900,900 h 40500 c 497.1,0 900,-402.9 900,-900 v -14580 c 0,-497.098 -402.9,-900 -900,-900"
         style="fill:#231f20;fill-opacity:1;fill-rule:nonzero;stroke:none"
         transform="matrix(0.13333333,0,0,-0.13333333,0,2304.6667)" />
      <path
         id="path5"
         d="m 2882.5,10978 v 3064.5 h 620.01 v -3107.1 c 0,-406.7 237.64,-682.6 604.89,-682.6 332.69,0 575.19,272.7 575.19,682.6 v 3107.1 h 620.55 v -3073.7 c 0,-982.77 -759.36,-1321.89 -1195.74,-1321.89 -399.12,0 -1224.9,259.74 -1224.9,1331.09"
         style="fill:#231f20;fill-opacity:1;fill-rule:nonzero;stroke:none"
         transform="matrix(0.13333333,0,0,-0.13333333,0,2304.6667)" />
      <path
         id="path6"
         d="m 10686.9,11511 h 623.2 l -319.1,1243.1 z m 774.9,-606.4 h -926.6 l -288.9,-1182.08 h -623.16 l 1078.96,4319.98 h 608.5 L 12389,9722.52 h -623.2 l -304,1182.08"
         style="fill:#231f20;fill-opacity:1;fill-rule:nonzero;stroke:none"
         transform="matrix(0.13333333,0,0,-0.13333333,0,2304.6667)" />
      <path
         id="path7"
         d="M 13613.9,12617.4 V 9722.52 H 12994 v 4319.98 h 619.9 l 1179.9,-2592 v 2592 h 620.4 V 9722.52 h -468.7 l -1331.6,2894.88"
         style="fill:#231f20;fill-opacity:1;fill-rule:nonzero;stroke:none"
         transform="matrix(0.13333333,0,0,-0.13333333,0,2304.6667)" />
      <path
         id="path8"
         d="m 17469.1,13436.1 h -484.3 v -3107.2 h 430.9 c 505.4,0 764.1,220.9 764.1,1530.9 0,1518 -378.6,1576.3 -710.7,1576.3 z M 16364.8,9722.52 v 4319.98 h 1232.9 c 263.5,0 1187.4,-13 1187.4,-2152.4 0,-1957.52 -853.2,-2167.58 -1136.1,-2167.58 h -1284.2"
         style="fill:#231f20;fill-opacity:1;fill-rule:nonzero;stroke:none"
         transform="matrix(0.13333333,0,0,-0.13333333,0,2304.6667)" />
      <path
         id="path9"
         d="m 23105.1,14042.5 h 623.2 v -3743.8 h 1581 v -576.18 h -2204.2 v 4319.98"
         style="fill:#231f20;fill-opacity:1;fill-rule:nonzero;stroke:none"
         transform="matrix(0.13333333,0,0,-0.13333333,0,2304.6667)" />
      <path
         id="path10"
         d="M 25914.2,14042.5 H 27951 v -606.4 h -1413.6 v -1091.3 h 896.3 v -591.4 h -896.3 v -1425 h 1581 v -605.88 h -2204.2 v 4319.98"
         style="fill:#231f20;fill-opacity:1;fill-rule:nonzero;stroke:none"
         transform="matrix(0.13333333,0,0,-0.13333333,0,2304.6667)" />
      <path
         id="path11"
         d="m 29476.1,12344.8 h 866.6 v -591.4 h -866.6 V 9722.52 h -623.2 v 4319.98 h 2204.2 v -606.4 h -1581 v -1091.3"
         style="fill:#231f20;fill-opacity:1;fill-rule:nonzero;stroke:none"
         transform="matrix(0.13333333,0,0,-0.13333333,0,2304.6667)" />
      <path
         id="path12"
         d="M 32730.1,9722.52 H 32107 v 3743.78 h -790.6 v 576.2 h 2204.2 v -576.2 h -790.5 V 9722.52"
         style="fill:#231f20;fill-opacity:1;fill-rule:nonzero;stroke:none"
         transform="matrix(0.13333333,0,0,-0.13333333,0,2304.6667)" />
      <path
         id="path13"
         d="m 12160.2,3242.6 h -623.1 v 3743.8 h -790.6 v 576.14 h 2204.3 V 6986.4 h -790.6 V 3242.6"
         style="fill:#231f20;fill-opacity:1;fill-rule:nonzero;stroke:none"
         transform="matrix(0.13333333,0,0,-0.13333333,0,2304.6667)" />
      <path
         id="path14"
         d="m 13555.7,4498.1 v 3064.44 h 619.9 V 4455.4 c 0,-406.6 237.6,-682.6 604.8,-682.6 332.6,0 575.1,272.7 575.1,682.6 v 3107.14 h 620.4 V 4488.9 c 0,-982.8 -759.2,-1321.9 -1195.5,-1321.9 -399.1,0 -1224.7,259.7 -1224.7,1331.1"
         style="fill:#231f20;fill-opacity:1;fill-rule:nonzero;stroke:none"
         transform="matrix(0.13333333,0,0,-0.13333333,0,2304.6667)" />
      <path
         id="path15"
         d="M 17546.4,6956.1 V 5864.8 h 635 c 364,0 560,197.1 560,545.9 0,333.7 -226.8,545.4 -559.4,545.4 z m 590.2,-1682.6 h -590.2 V 3242.6 h -619.9 v 4319.94 h 1285.7 c 677.7,0 1134.5,-454.64 1134.5,-1151.84 0,-515.1 -212.2,-894.2 -620.4,-1046 l 619.9,-2122.1 h -634.5 l -575.1,2030.9"
         style="fill:#231f20;fill-opacity:1;fill-rule:nonzero;stroke:none"
         transform="matrix(0.13333333,0,0,-0.13333333,0,2304.6667)" />
      <path
         id="path16"
         d="M 20701.2,6137.5 V 3242.6 h -619.9 v 4319.94 h 619.9 L 21881,4970.5 v 2592.04 h 620.5 V 3242.6 h -468.7 l -1331.6,2894.9"
         style="fill:#231f20;fill-opacity:1;fill-rule:nonzero;stroke:none"
         transform="matrix(0.13333333,0,0,-0.13333333,0,2304.6667)" />
      <path
         id="path17"
         d="m 24475.3,5989 c 472.5,-296.5 1181,-711.7 1181,-1564.4 0,-699.3 -533,-1257.6 -1202.5,-1257.6 -760.9,0 -1217.7,643.6 -1217.7,1348.9 h 609.1 c 0,-367.8 182.5,-743.1 608.6,-743.1 334.7,0 608.5,303 608.5,651.8 0,939.1 -1612.9,885.1 -1612.9,2092 0,621.5 487,1121 1110.7,1121 609.1,0 1081.1,-469.8 1096.2,-1121.6 h -594 c -15.1,303 -228.4,500.1 -502.2,500.1 -289.4,0 -517.3,-211.7 -517.3,-499.5 0,-280.8 149.1,-350 432.5,-527.6"
         style="fill:#231f20;fill-opacity:1;fill-rule:nonzero;stroke:none"
         transform="matrix(0.13333333,0,0,-0.13333333,0,2304.6667)" />
      <path
         id="path18"
         d="m 29522.5,4592.3 h 8651.3 v 1620 h -8651.3 v -1620"
         style="fill:#231f20;fill-opacity:1;fill-rule:nonzero;stroke:none"
         transform="matrix(0.13333333,0,0,-0.13333333,0,2304.6667)" />
      <path
         id="path19"
         d="m 37543.3,3588.1 c -7.3,-25.2 -10.8,-50.6 -10.8,-75.6 0,-149.1 120.9,-270 270,-270 52.6,0 105.8,15.2 152.5,47.2 L 41042.5,5402.5 37955,7515.31 c -46.7,31.95 -99.9,47.24 -152.5,47.19 -149.1,0 -270,-120.9 -270,-270.01 0,-24.99 3.5,-50.39 10.8,-75.59 l 529.2,-1814.4 -529.2,-1814.4"
         style="fill:#231f20;fill-opacity:1;fill-rule:nonzero;stroke:none"
         transform="matrix(0.13333333,0,0,-0.13333333,0,2304.6667)" />
    </g>
  </g>
</svg>
