<?xml version="1.0" encoding="UTF-8"?>
<svg id="For_Sheets" xmlns="http://www.w3.org/2000/svg" version="1.1" viewBox="0 0 2160 3024">
  <!-- Generator: Adobe Illustrator 29.1.0, SVG Export Plug-In . SVG Version: 2.1.0 Build 142)  -->
  <defs>
    <style>
      .st0, .st1 {
        fill: #fff;
      }

      .st0, .st2 {
        fill-rule: evenodd;
      }

      .st3, .st2 {
        fill: #231f20;
      }
    </style>
  </defs>
  <g>
    <path class="st1" d="M135,3024.1c-35.9,0-69.8-14.1-95.4-39.7-25.6-25.6-39.7-59.5-39.7-95.4V135C-.1,99.1,14,65.2,39.6,39.6S99.1-.1,135-.1h1890c35.9,0,69.8,14.1,95.4,39.7,25.6,25.6,39.7,59.5,39.7,95.4v2754c0,35.9-14.1,69.8-39.7,95.4-25.6,25.6-59.5,39.7-95.4,39.7H135Z"/>
    <path class="st3" d="M2025,0c74.2,0,135,60.8,135,135v2754c0,74.2-60.8,135-135,135H135c-74.2,0-135-60.8-135-135V135C0,60.8,60.8,0,135,0h1890M2025-.2H135C99-.2,65.1,13.9,39.5,39.5,13.9,65.1-.2,99-.2,135v2754c0,36,14.1,69.9,39.7,95.5,25.6,25.6,59.5,39.7,95.5,39.7h1890c36,0,69.9-14.1,95.5-39.7,25.6-25.6,39.7-59.5,39.7-95.5V135c0-36-14.1-69.9-39.7-95.5-25.6-25.6-59.5-39.7-95.5-39.7h0Z"/>
  </g>
  <path class="st3" d="M2025,2988H135c-54.4,0-99-44.5-99-99V135c0-54.5,44.6-99,99-99h1890c54.5,0,99,44.5,99,99v2754c0,54.4-44.5,99-99,99ZM90,918v1971c0,24.8,20.2,45,45,45h1890c24.8,0,45-20.2,45-45V918H90Z"/>
  <polygon class="st0" points="1080 117 1260 477 1080 837 900 477 1080 117"/>
  <polygon class="st2" points="1080 237.7 960.4 477 1080 716.3 1199.6 477 1080 237.7"/>
  <g>
    <path class="st3" d="M236,1044h34.6v216h-34.6v-216Z"/>
    <path class="st3" d="M356.5,1113.7v146.3h-34.1v-216h34.1l78.8,137.9v-137.9h34.1v216h-30.3l-82.6-146.3Z"/>
    <path class="st3" d="M634.2,1166h-78.9v94h-34.1v-216h34.1v87.2h78.8v-87.2h34.1v216h-34.1v-94Z"/>
    <path class="st3" d="M720.2,1044h127.2v34.1h-93.1v53.1h62.8v34.9h-62.8v59.1h99.9v34.9h-134v-216Z"/>
    <path class="st3" d="M925,1166v94h-34.1v-216h78.1c49.5,0,64.4,39.6,64.4,60.7s-3,39.6-33.5,54.1l38.1,101.2h-37.2l-34.9-94h-41ZM967.9,1131.2c27.1,0,31.4-19.5,31.4-26.5s-7-26.5-29.7-26.5h-44.5v53.1h42.9Z"/>
    <path class="st3" d="M1074.7,1044h127.2v34.1h-93.1v53.1h62.8v34.9h-62.8v59.1h99.9v34.9h-134v-216Z"/>
    <path class="st3" d="M1279.4,1113.7v146.3h-34.1v-216h34.1l78.8,137.9v-137.9h34.1v216h-30.3l-82.6-146.3Z"/>
    <path class="st3" d="M1508.5,1260h-34.3v-185.7h-49.5v-30.3h134v30.3h-50.2v185.7Z"/>
    <path class="st3" d="M1591.2,1044h34.1v184.2h99.9v31.8h-134v-216Z"/>
    <path class="st3" d="M1848.6,1260h-34.3v-94l-76.2-122h41.1l51.8,83.4,52.6-83.4h40.4l-75.4,122v94Z"/>
  </g>
  <g>
    <path class="st3" d="M812,1431h34.1v184.2h99.9v31.8h-134v-216Z"/>
    <path class="st3" d="M1285.7,1647l-34.2-138.7-33.5,138.7h-30.4l-31.9-216h35l16.7,113.7,27.4-113.7h33.5l28.1,113.7,16.7-113.7h35l-31.9,216h-30.4Z"/>
  </g>
  <g>
    <path class="st3" d="M457.5,1818h127.2v34.1h-93.1v53.1h62.8v34.9h-62.8v59.1h99.9v34.9h-134v-216Z"/>
    <path class="st3" d="M762.6,1908.9l-50.1,125.1-50.1-125.1v125.1h-34.2v-216h34.2l50.1,121.3,50.1-121.3h34.2v216h-34.2v-125.1Z"/>
    <path class="st3" d="M848.7,1818h34.6v216h-34.6v-216Z"/>
    <path class="st3" d="M919.9,1983.2l32.6-12.1c9.1,20.5,25.8,31.8,46.2,31.8s33.4-13.6,33.4-31.8c0-28.9-33.3-33.3-61.4-44.7-12.9-5.3-41.7-18.2-41.7-53.8s28.8-58.3,67.4-58.3,50.8,17.4,61.4,44l-30.3,9.1c-3.4-8.5-15.7-19-31.8-19-30.8,0-33.4,16.4-33.4,21.8,0,20.2,17.4,24.2,45.7,33.1,28.8,9.1,58.9,22.3,58.9,68.6s-37.8,65.9-68.2,65.9-64.4-22-78.8-54.6Z"/>
    <path class="st3" d="M1088.6,1983.2l32.6-12.1c9.1,20.5,25.8,31.8,46.2,31.8s33.4-13.6,33.4-31.8c0-28.9-33.3-33.3-61.4-44.7-12.9-5.3-41.7-18.2-41.7-53.8s28.8-58.3,67.4-58.3,50.8,17.4,61.4,44l-30.3,9.1c-3.4-8.5-15.7-19-31.8-19-30.8,0-33.4,16.4-33.4,21.8,0,20.2,17.4,24.2,45.7,33.1,28.8,9.1,58.9,22.3,58.9,68.6s-37.8,65.9-68.2,65.9-64.4-22-78.8-54.6Z"/>
    <path class="st3" d="M1272.4,1818h34.6v216h-34.6v-216Z"/>
    <path class="st3" d="M1589.5,1887.7v146.3h-34.1v-216h34.1l78.8,137.9v-137.9h34.1v216h-30.3l-82.6-146.3Z"/>
  </g>
  <g>
    <path class="st3" d="M492.5,2421l-68.4-216h35.7l46.4,144,45.6-144h36.5l-69.2,216h-26.6Z"/>
    <path class="st3" d="M620.7,2205h127.2v34.1h-93.1v53.1h62.8v34.9h-62.8v59.1h99.9v34.9h-134v-216Z"/>
    <path class="st3" d="M904.4,2327h-78.9v94h-34.1v-216h34.1v87.2h78.8v-87.2h34.1v216h-34.1v-94Z"/>
    <path class="st3" d="M990.3,2205h34.6v216h-34.6v-216Z"/>
    <path class="st3" d="M1072.4,2312.6c0-30.4,6.1-111.4,79.6-111.4s52.6,12.7,67.5,44l-31.8,13.6c-11-15.9-16.6-22.7-35.6-22.7-45.2,0-44.7,63-44.7,76.5s-.8,77.3,46.2,77.3,26-10,33.3-25l32.6,12.1c-12.1,30.1-32.6,47.7-65.2,47.7-77.7,0-81.8-85.9-81.8-112.2Z"/>
    <path class="st3" d="M1267,2205h34.1v184.2h99.9v31.8h-134v-216Z"/>
    <path class="st3" d="M1433.3,2205h127.2v34.1h-93.1v53.1h62.8v34.9h-62.8v59.1h99.9v34.9h-134v-216Z"/>
    <path class="st3" d="M1588.9,2370.2l32.6-12.1c9.1,20.5,25.8,31.8,46.2,31.8s33.4-13.6,33.4-31.8c0-28.9-33.3-33.3-61.4-44.7-12.9-5.3-41.7-18.2-41.7-53.8s28.8-58.3,67.4-58.3,50.8,17.4,61.4,44l-30.3,9.1c-3.4-8.5-15.7-19-31.8-19-30.8,0-33.4,16.4-33.4,21.8,0,20.2,17.4,24.2,45.7,33.1,28.8,9.1,58.9,22.3,58.9,68.6s-37.8,65.9-68.2,65.9-64.4-22-78.8-54.6Z"/>
  </g>
  <g>
    <path class="st3" d="M571.5,2747.4h-67.8l-21.4,60.6h-36.6l74.7-216h34.3l74.7,216h-36.6l-21.4-60.6ZM515.9,2712.5h43.4l-21.4-60.6-22.1,60.6Z"/>
    <path class="st3" d="M661.8,2592h34.1v184.2h99.9v31.8h-134v-216Z"/>
    <path class="st3" d="M828.2,2592h34.1v184.2h99.9v31.8h-134v-216Z"/>
    <path class="st3" d="M1301.8,2808l-34.2-138.7-33.5,138.7h-30.4l-31.9-216h35l16.7,113.7,27.3-113.7h33.5l28.1,113.7,16.7-113.7h35l-31.9,216h-30.4Z"/>
    <path class="st3" d="M1396.6,2592h127.2v34.1h-93.1v53.1h62.8v34.9h-62.8v59.1h99.9v34.9h-134v-216Z"/>
    <path class="st3" d="M1567.2,2808v-216h77.9c54.5,0,69.1,71.8,69.1,103.1,0,81-41.7,112.9-69,112.9h-78.1ZM1640,2626.1h-38.7v147h36.3c31.4,0,41.7-38.1,41.7-78.7s-5.5-68.3-39.3-68.3Z"/>
  </g>
  <path class="st3" d="M1127.5,1539c0,7.7,1.6,111.8-76.7,111.8s-76.7-104-76.7-111.8-1.6-111.8,76.7-111.8,76.7,104,76.7,111.8ZM1051.2,1615.9c23.3,0,42.2-22.1,42.2-76.9s-18.9-76.9-42.2-76.9-42.2,22-42.2,76.9,18.9,76.9,42.2,76.9Z"/>
  <path class="st3" d="M1507.9,1926c0,7.7,1.6,111.8-76.7,111.8s-76.7-104-76.7-111.8-1.6-111.8,76.7-111.8,76.7,104,76.7,111.8ZM1431.6,2002.9c23.3,0,42.2-22.1,42.2-76.9s-18.9-76.9-42.2-76.9-42.2,22-42.2,76.9,18.9,76.9,42.2,76.9Z"/>
  <path class="st3" d="M1143.7,2700c0,7.7,1.6,111.8-76.7,111.8s-76.7-104-76.7-111.8-1.6-111.8,76.7-111.8,76.7,104,76.7,111.8ZM1067.4,2776.9c23.3,0,42.2-22.1,42.2-76.9s-18.9-76.9-42.2-76.9-42.2,22-42.2,76.9,18.9,76.9,42.2,76.9Z"/>
</svg>