<?xml version="1.0" encoding="UTF-8" standalone="no"?>
<!-- Created with Inkscape (http://www.inkscape.org/) -->

<svg
   version="1.1"
   id="svg1"
   width="3456.6667"
   height="3456.6667"
   viewBox="0 0 3456.6667 3456.6667"
   sodipodi:docname="tmpsc63dmjy.pdf"
   xmlns:inkscape="http://www.inkscape.org/namespaces/inkscape"
   xmlns:sodipodi="http://sodipodi.sourceforge.net/DTD/sodipodi-0.dtd"
   xmlns="http://www.w3.org/2000/svg"
   xmlns:svg="http://www.w3.org/2000/svg">
  <defs
     id="defs1" />
  <sodipodi:namedview
     id="namedview1"
     pagecolor="#ffffff"
     bordercolor="#000000"
     borderopacity="0.25"
     inkscape:showpageshadow="2"
     inkscape:pageopacity="0.0"
     inkscape:pagecheckerboard="0"
     inkscape:deskcolor="#d1d1d1">
    <inkscape:page
       x="0"
       y="0"
       inkscape:label="1"
       id="page1"
       width="3456.6667"
       height="3456.6667"
       margin="0"
       bleed="0" />
  </sodipodi:namedview>
  <g
     id="g1"
     inkscape:groupmode="layer"
     inkscape:label="1">
    <g
       id="group-R5">
      <path
         id="path2"
         d="m 25922.5,1622.5 c 0,-894.699 -725.3,-1620 -1620,-1620 H 1622.5 C 727.805,2.5 2.5,727.801 2.5,1622.5 v 22680 c 0,894.7 725.305,1620 1620.01,1620 H 24302.5 c 894.7,0 1620,-725.3 1620,-1620 v -22680"
         style="fill:#ffffff;fill-opacity:1;fill-rule:nonzero;stroke:none"
         transform="matrix(0.13333333,0,0,-0.13333333,0,3456.6667)" />
      <path
         id="path3"
         d="m 25922.5,1622.5 c 0,-894.699 -725.3,-1620 -1620,-1620 H 1622.5 C 727.805,2.5 2.5,727.801 2.5,1622.5 v 22680 c 0,894.7 725.305,1620 1620.01,1620 H 24302.5 c 894.7,0 1620,-725.3 1620,-1620 z"
         style="fill:none;stroke:#231f20;stroke-width:5;stroke-linecap:butt;stroke-linejoin:miter;stroke-miterlimit:4;stroke-dasharray:none;stroke-opacity:1"
         transform="matrix(0.13333333,0,0,-0.13333333,0,3456.6667)" />
      <path
         id="path4"
         d="m 24842.5,1622.5 c 0,-297.7 -242.2,-540 -540,-540 h -10530 v 11880 h -630 V 1082.5 H 1622.51 c -297.75,0 -540,242.3 -540,540 v 22680 c 0,297.8 242.25,540 540,540 H 24302.5 c 297.8,0 540,-242.3 540,-540 z m -540,23850 H 1622.51 c -645.139,0 -1169.998,-524.9 -1169.998,-1170 v -22680 c 0,-645.098 524.859,-1170 1169.998,-1170 H 24302.5 c 645.1,0 1170,524.902 1170,1170 v 22680 c 0,645.1 -524.9,1170 -1170,1170"
         style="fill:#231f20;fill-opacity:1;fill-rule:nonzero;stroke:none"
         transform="matrix(0.13333333,0,0,-0.13333333,0,3456.6667)" />
      <path
         id="path5"
         d="m 11252.5,12097.3 c -4.2,663.6 -115.8,1322.4 -330.6,1950 h -0.5 c -214.9,626.6 -530.6,1215.1 -935.48,1742.4 -287.74,374.7 -511.81,794.4 -664.2,1242 -151.81,447 -229.21,916.8 -229.21,1389 l 0.01,2592.6 848.99,-268.8 c 116.99,-37.2 244.79,3.6 317.99,102.6 73.2,99 75.6,233.4 6,334.8 l -1892.99,2760 -1893.59,-2760 c -69.6,-101.4 -67.2,-235.8 5.99,-334.8 73.81,-98.4 201.6,-139.8 318.61,-102.6 l 849,268.8 v -2592.6 c 0,-270 19.2,-540 56.99,-807.6 -807.6,375 -1687.2,568.8 -2577,568.8 h -401.9 l 269.39,849 c 37.21,117 -4.2,245.4 -102.6,318.6 -99,73.2 -233.4,75.6 -334.8,6 l -2759.99,-1893.6 2760,-1893 c 101.39,-69.6 235.79,-67.2 334.79,6 98.4,73.2 139.81,201 102.6,318.6 l -269.39,848.4 h 401.9 c 868.81,0 1720.8,-241.8 2460.61,-699 739.19,-456.6 1336.2,-1110.6 1725,-1887.6 l 0.71,-0.2 c 388.11,-777.6 553.07,-1647.5 474.48,-2513.2 -78,-865.2 -395.39,-1692 -916.8,-2387.4 -394.63,-526.3 -702,-1112.4 -909.6,-1736.4 -208.2,-624 -314.39,-1278 -314.39,-1935.6 v -2160 h 1440 v 2160 c 0,502.8 81,1002.6 240,1480.2 158.99,477 394.03,925.3 695.98,1327.8 398.4,531 707.4,1123.2 915.6,1753.2 207.6,630 312,1290 308.4,1953.6"
         style="fill:#231f20;fill-opacity:1;fill-rule:nonzero;stroke:none"
         transform="matrix(0.13333333,0,0,-0.13333333,0,3456.6667)" />
      <path
         id="path6"
         d="m 6932.52,12062.5 c 0,-994.1 -805.89,-1800 -1800,-1800 -994.11,0 -1800,805.9 -1800,1800 0,994.1 805.89,1800 1800,1800 994.11,0 1800,-805.9 1800,-1800"
         style="fill:#231f20;fill-opacity:1;fill-rule:nonzero;stroke:none"
         transform="matrix(0.13333333,0,0,-0.13333333,0,3456.6667)" />
      <path
         id="path7"
         d="m 17243.5,21013.9 849,-269.4 c 117,-37.2 244.8,4.2 318,102.6 73.8,99 76.2,233.4 6.6,334.8 l -1893.6,2760 -1893.6,-2760 c -69.6,-101.4 -66.6,-235.8 6.6,-334.8 73.2,-98.4 201,-139.8 318,-102.6 l 849,269.4 v -2593.2 c 0,-630 103.2,-1255.8 306,-1852.2 202.8,-596.4 502.2,-1156.2 885.6,-1656 308.6,-402.3 550.8,-852 715.2,-1332.6 165,-480 250.2,-983.4 253.2,-1491 3,-507.6 -76.8,-1011.6 -235.8,-1494 -159,-481.8 -396,-934.2 -700.2,-1340.4 -394.3,-526.6 -702,-1112.4 -910.2,-1736.4 -207.6,-624 -313.8,-1278 -313.8,-1935.6 v -2160 h 1440 v 2160 c 0,552.6 97.8,1100.4 288.6,1618.2 190.8,518.4 472.2,998.4 830.4,1419 358.8,420 788.4,773.4 1270.2,1043.4 481.2,270.6 1006.8,453.6 1552.2,540.6 l -119.4,-895.2 c -16.2,-121.8 46.8,-240.6 156.6,-295.8 109.8,-54.6 242.4,-33.6 330.6,52.2 l 2389.2,2344.2 -3046.8,1385.4 c -112.2,50.4 -244.2,24.6 -328.8,-64.2 -84,-89.4 -102.6,-222.6 -45.6,-331.8 l 406.8,-777.6 c -552.6,-91.2 -1089,-257.4 -1596,-494.4 126.6,817.8 85.8,1652.4 -119.4,2454 -205.2,801.6 -570.6,1553.4 -1074.6,2209.2 -288.1,374.9 -512.4,794.4 -664.2,1242 -152.4,447.6 -229.8,916.8 -229.8,1389 v 2593.2"
         style="fill:#231f20;fill-opacity:1;fill-rule:nonzero;stroke:none"
         transform="matrix(0.13333333,0,0,-0.13333333,0,3456.6667)" />
    </g>
  </g>
</svg>
