<?xml version="1.0" standalone="no"?>
<svg width="3888px" height="4752px" viewBox="0 -3960 3888 4752 " xmlns="http://www.w3.org/2000/svg" xmlns:xlink="http://www.w3.org/1999/xlink">
<title>generated by pstoedit</title>
<!-- generated by pstoedit version:4.02 -->
<g xml:space='preserve'>
<clipPath id="clippath1"> 	<path d="
	M 0 -3960.5 
	L 0 792 
	L 3888.5 792 
	L 3888.5 -3960.5 
	Z 
	" style="clip-rule:nonzero"/>
</clipPath>
<g style="clip-path:url(#clippath1)"> 
<g fill="#ffffff" fill-rule="nonzero" stroke-width="0" stroke-linejoin="miter" stroke-linecap="butt" stroke-miterlimit="10" >
	<path d="
	M 3888.25 575.75 
	C 3888.25 695.039 3791.54 791.75 3672.25 791.75 
	L 216.25 791.75 
	C 96.957 791.75 0.25 695.039 0.25 575.75 
	L 0.25 -3744.25 
	C 0.25 -3863.54 96.957 -3960.25 216.25 -3960.25 
	L 3672.25 -3960.25 
	C 3791.54 -3960.25 3888.25 -3863.54 3888.25 -3744.25 
	Z 
	"/>
</g>
<g stroke="#7f7f7f" fill="none" stroke-width="0.5" stroke-linejoin="miter" stroke-linecap="butt" stroke-miterlimit="4" >
	<path d="
	M 3888.25 575.75 
	C 3888.25 695.039 3791.54 791.75 3672.25 791.75 
	L 216.25 791.75 
	C 96.957 791.75 0.25 695.039 0.25 575.75 
	L 0.25 -3744.25 
	C 0.25 -3863.54 96.957 -3960.25 216.25 -3960.25 
	L 3672.25 -3960.25 
	C 3791.54 -3960.25 3888.25 -3863.54 3888.25 -3744.25 
	Z 
	"/>
</g>
<g fill="#7f7f7f" fill-rule="nonzero" stroke-width="0" stroke-linejoin="miter" stroke-linecap="butt" stroke-miterlimit="4" >
	<path d="
	M 3744.25 575.75 
	C 3744.25 615.449 3711.95 647.75 3672.25 647.75 
	L 216.25 647.75 
	C 176.551 647.75 144.25 615.449 144.25 575.75 
	L 144.25 -3744.25 
	C 144.25 -3783.95 176.551 -3816.25 216.25 -3816.25 
	L 3672.25 -3816.25 
	C 3711.95 -3816.25 3744.25 -3783.95 3744.25 -3744.25 
	Z 
	M 3672.25 -3906.25 
	L 216.25 -3906.25 
	C 126.922 -3906.25 54.25 -3833.58 54.25 -3744.25 
	L 54.25 575.75 
	C 54.25 665.082 126.922 737.75 216.25 737.75 
	L 3672.25 737.75 
	C 3761.58 737.75 3834.25 665.082 3834.25 575.75 
	L 3834.25 -3744.25 
	C 3834.25 -3833.58 3761.58 -3906.25 3672.25 -3906.25 
	Z 
	"/>
</g>
<g fill="#7f7f7f" fill-rule="nonzero" stroke-width="0" stroke-linejoin="miter" stroke-linecap="butt" stroke-miterlimit="4" >
	<path d="
	M 710.512 143.75 
	L 710.512 -288.25 
	L 914.219 -288.25 
	L 914.219 -227.62 
	L 772.84 -227.62 
	L 772.84 -118.48 
	L 862.531 -118.48 
	L 862.531 -59.359 
	L 772.84 -59.359 
	L 772.84 83.121 
	L 930.941 83.121 
	L 930.941 143.75 
	Z 
	"/>
</g>
<g fill="#7f7f7f" fill-rule="nonzero" stroke-width="0" stroke-linejoin="miter" stroke-linecap="butt" stroke-miterlimit="4" >
	<path d="
	M 507.637 -227.62 
	L 444.102 -227.62 
	L 444.102 -104.84 
	L 507.637 -104.84 
	C 543.938 -104.84 563.605 -127.57 563.605 -166.98 
	C 563.605 -203.359 540.914 -227.62 507.637 -227.62 
	Z 
	M 510.66 -45.719 
	L 444.102 -45.719 
	L 444.102 143.75 
	L 382.082 143.75 
	L 382.082 -288.25 
	L 510.66 -288.25 
	C 578.73 -288.25 624.109 -239.74 624.109 -166.98 
	C 624.109 -88.16 583.27 -45.719 510.66 -45.719 
	Z 
	"/>
</g>
<g fill="#7f7f7f" fill-rule="nonzero" stroke-width="0" stroke-linejoin="miter" stroke-linecap="butt" stroke-miterlimit="4" >
	<path d="
	M 1129.93 -227.62 
	L 1066.4 -227.62 
	L 1066.4 -118.48 
	L 1129.93 -118.48 
	C 1166.24 -118.48 1185.9 -138.191 1185.9 -173.051 
	C 1185.9 -206.398 1163.21 -227.62 1129.93 -227.62 
	Z 
	M 1182.88 143.75 
	L 1125.4 -59.371 
	L 1066.4 -59.371 
	L 1066.4 143.75 
	L 1004.38 143.75 
	L 1004.38 -288.25 
	L 1132.96 -288.25 
	C 1201.03 -288.25 1246.41 -242.78 1246.41 -173.051 
	C 1246.41 -121.512 1225.23 -83.621 1184.39 -68.461 
	L 1246.41 143.75 
	Z 
	"/>
</g>
<g fill="#7f7f7f" fill-rule="nonzero" stroke-width="0" stroke-linejoin="miter" stroke-linecap="butt" stroke-miterlimit="4" >
	<path d="
	M 2856.27 -173.051 
	C 2850.18 -215.49 2833.44 -235.2 2804.51 -235.2 
	C 2754.28 -235.2 2736.02 -195.789 2736.02 -83.621 
	C 2736.02 40.68 2757.33 90.699 2810.6 90.699 
	C 2847.14 90.699 2856.27 60.379 2856.27 28.551 
	L 2918.68 28.551 
	C 2917.16 99.789 2871.49 151.332 2810.6 151.332 
	C 2717.75 151.332 2676.65 77.059 2676.65 -82.102 
	C 2676.65 -221.55 2720.8 -295.83 2806.04 -295.83 
	C 2841.05 -295.83 2871.49 -280.67 2891.28 -251.87 
	C 2908.02 -230.65 2914.11 -212.46 2918.68 -173.051 
	Z 
	"/>
</g>
<g fill="#7f7f7f" fill-rule="nonzero" stroke-width="0" stroke-linejoin="miter" stroke-linecap="butt" stroke-miterlimit="4" >
	<path d="
	M 2372.71 143.75 
	L 2372.71 -51.789 
	L 2254.73 -51.789 
	L 2254.73 143.75 
	L 2192.71 143.75 
	L 2192.71 -288.25 
	L 2254.73 -288.25 
	L 2254.73 -112.418 
	L 2372.71 -112.418 
	L 2372.71 -288.25 
	L 2434.73 -288.25 
	L 2434.73 143.75 
	Z 
	"/>
</g>
<g fill="#7f7f7f" fill-rule="nonzero" stroke-width="0" stroke-linejoin="miter" stroke-linecap="butt" stroke-miterlimit="4" >
	<path d="
	M 2529.77 143.75 
	L 2529.77 -288.25 
	L 2590.25 -288.25 
	L 2590.25 143.75 
	Z 
	"/>
</g>
<g fill="#7f7f7f" fill-rule="nonzero" stroke-width="0" stroke-linejoin="miter" stroke-linecap="butt" stroke-miterlimit="4" >
	<path d="
	M 3005.08 143.75 
	L 3005.08 -288.25 
	L 3067.41 -288.25 
	L 3067.41 86.148 
	L 3225.51 86.148 
	L 3225.51 143.75 
	Z 
	"/>
</g>
<g fill="#7f7f7f" fill-rule="nonzero" stroke-width="0" stroke-linejoin="miter" stroke-linecap="butt" stroke-miterlimit="4" >
	<path d="
	M 1898.84 143.75 
	L 1898.84 -288.25 
	L 2102.54 -288.25 
	L 2102.54 -227.62 
	L 1961.17 -227.62 
	L 1961.17 -118.48 
	L 2050.86 -118.48 
	L 2050.86 -59.359 
	L 1961.17 -59.359 
	L 1961.17 83.121 
	L 2119.27 83.121 
	L 2119.27 143.75 
	Z 
	"/>
</g>
<g fill="#7f7f7f" fill-rule="nonzero" stroke-width="0" stroke-linejoin="miter" stroke-linecap="butt" stroke-miterlimit="4" >
	<path d="
	M 3285.99 143.75 
	L 3285.99 -288.25 
	L 3489.69 -288.25 
	L 3489.69 -227.62 
	L 3348.32 -227.62 
	L 3348.32 -118.48 
	L 3438.01 -118.48 
	L 3438.01 -59.359 
	L 3348.32 -59.359 
	L 3348.32 83.121 
	L 3506.42 83.121 
	L 3506.42 143.75 
	Z 
	"/>
</g>
<g fill="#7f7f7f" fill-rule="nonzero" stroke-width="0" stroke-linejoin="miter" stroke-linecap="butt" stroke-miterlimit="4" >
	<path d="
	M 1727.22 143.75 
	L 1680.03 143.75 
	L 1570.41 -288.25 
	L 1632.83 -288.25 
	L 1704.38 -7.828 
	L 1775.94 -288.25 
	L 1838.36 -288.25 
	Z 
	"/>
</g>
<g fill="#7f7f7f" fill-rule="nonzero" stroke-width="0" stroke-linejoin="miter" stroke-linecap="butt" stroke-miterlimit="4" >
	<path d="
	M 1322.06 -3112.21 
	C 1303.82 -3142.53 1281.54 -3154.65 1247.1 -3156.68 
	C 1202.52 -3158.7 1174.16 -3136.47 1153.9 -3085.94 
	C 1139.72 -3051.58 1131.62 -2999.03 1131.62 -2950.53 
	C 1131.62 -2889.9 1143.77 -2827.24 1166.05 -2790.87 
	C 1184.29 -2760.55 1208.6 -2746.4 1245.07 -2746.4 
	C 1287.62 -2746.4 1313.95 -2768.63 1334.21 -2819.16 
	C 1346.37 -2849.47 1356.5 -2906.06 1356.5 -2950.53 
	C 1356.5 -3015.2 1344.34 -3073.81 1322.06 -3112.21 
	Z 
	M 1384.86 -2718.11 
	C 1352.44 -2673.64 1305.85 -2653.43 1245.07 -2653.43 
	C 1164.03 -2653.43 1113.38 -2685.77 1078.94 -2756.51 
	C 1054.63 -2805.01 1038.42 -2881.81 1038.42 -2950.53 
	C 1038.42 -3045.52 1062.73 -3130.4 1101.23 -3184.97 
	C 1135.67 -3229.44 1182.26 -3249.64 1249.12 -3249.64 
	C 1322.06 -3249.64 1372.71 -3217.31 1409.17 -3146.57 
	C 1433.48 -3096.04 1447.67 -3023.29 1447.67 -2950.53 
	C 1447.67 -2859.58 1425.38 -2768.63 1384.86 -2718.11 
	Z 
	"/>
</g>
<g fill="#7f7f7f" fill-rule="nonzero" stroke-width="0" stroke-linejoin="miter" stroke-linecap="butt" stroke-miterlimit="4" >
	<path d="
	M 1776.05 -2664.25 
	L 1705.07 -2664.25 
	L 1522.55 -3240.25 
	L 1617.86 -3240.25 
	L 1741.57 -2856.25 
	L 1863.25 -3240.25 
	L 1960.59 -3240.25 
	Z 
	"/>
</g>
<g fill="#7f7f7f" fill-rule="nonzero" stroke-width="0" stroke-linejoin="miter" stroke-linecap="butt" stroke-miterlimit="4" >
	<path d="
	M 820.75 -2664.25 
	L 820.75 -2914.86 
	L 610.543 -2914.86 
	L 610.543 -2664.25 
	L 519.59 -2664.25 
	L 519.59 -3240.25 
	L 610.543 -3240.25 
	L 610.543 -3007.83 
	L 820.75 -3007.83 
	L 820.75 -3240.25 
	L 911.703 -3240.25 
	L 911.703 -2664.25 
	Z 
	"/>
</g>
<g fill="#7f7f7f" fill-rule="nonzero" stroke-width="0" stroke-linejoin="miter" stroke-linecap="butt" stroke-miterlimit="4" >
	<path d="
	M 2693.74 -2933.9 
	C 2616.17 -2885.69 2544.83 -2864.36 2501.74 -2757.22 
	L 2784.7 -2757.22 
	L 2784.7 -2664.25 
	L 2392.59 -2664.25 
	C 2394.62 -2730.94 2408.54 -2785.64 2441.1 -2840.08 
	C 2542.17 -3009.02 2693.75 -2990.36 2693.75 -3080.59 
	C 2693.75 -3123.03 2645.24 -3157.39 2588.65 -3157.39 
	C 2530.03 -3157.39 2493.65 -3129.09 2483.54 -3076.54 
	L 2392.59 -3096.75 
	C 2412.8 -3191.74 2487.59 -3250.36 2588.65 -3250.36 
	C 2697.79 -3250.36 2784.7 -3173.55 2784.7 -3078.56 
	C 2784.7 -3009.69 2745.08 -2965.82 2693.74 -2933.9 
	Z 
	"/>
</g>
<g fill="#7f7f7f" fill-rule="nonzero" stroke-width="0" stroke-linejoin="miter" stroke-linecap="butt" stroke-miterlimit="4" >
	<path d="
	M 3221.3 -2900.71 
	L 3221.3 -2757.21 
	L 3130.31 -2757.21 
	L 3130.31 -2900.71 
	L 2982.7 -2900.71 
	L 2982.7 -2993.68 
	L 3130.31 -2993.68 
	L 3130.31 -3137.18 
	L 3221.3 -3137.18 
	L 3221.3 -2993.68 
	L 3368.91 -2993.68 
	L 3368.91 -2900.71 
	Z 
	"/>
</g>
<g fill="#7f7f7f" fill-rule="nonzero" stroke-width="0" stroke-linejoin="miter" stroke-linecap="butt" stroke-miterlimit="4" >
	<path d="
	M 809.121 -1781.9 
	C 731.559 -1733.69 660.219 -1712.35 617.121 -1605.21 
	L 900.09 -1605.21 
	L 900.09 -1512.24 
	L 507.977 -1512.24 
	C 510 -1578.94 523.922 -1633.64 556.484 -1688.08 
	C 657.555 -1857.02 809.137 -1838.35 809.137 -1928.58 
	C 809.137 -1971.02 760.629 -2005.38 704.035 -2005.38 
	C 645.418 -2005.38 609.039 -1977.09 598.93 -1924.54 
	L 507.977 -1944.75 
	C 528.188 -2039.74 602.973 -2098.35 704.035 -2098.35 
	C 813.18 -2098.35 900.09 -2021.55 900.09 -1926.56 
	C 900.09 -1857.69 860.469 -1813.82 809.121 -1781.9 
	Z 
	"/>
</g>
<g fill="#7f7f7f" fill-rule="nonzero" stroke-width="0" stroke-linejoin="miter" stroke-linecap="butt" stroke-miterlimit="4" >
	<path d="
	M 3160.1 -1584.25 
	L 3160.1 -2016.25 
	L 3363.8 -2016.25 
	L 3363.8 -1955.62 
	L 3222.42 -1955.62 
	L 3222.42 -1846.48 
	L 3312.11 -1846.48 
	L 3312.11 -1787.36 
	L 3222.42 -1787.36 
	L 3222.42 -1644.88 
	L 3380.52 -1644.88 
	L 3380.52 -1584.25 
	Z 
	"/>
</g>
<g fill="#7f7f7f" fill-rule="nonzero" stroke-width="0" stroke-linejoin="miter" stroke-linecap="butt" stroke-miterlimit="4" >
	<path d="
	M 2354.61 -1584.25 
	L 2354.61 -1826.77 
	L 2274.17 -1584.25 
	L 2193.73 -1826.77 
	L 2193.73 -1584.25 
	L 2131.5 -1584.25 
	L 2131.5 -2016.25 
	L 2193.73 -2016.25 
	L 2274.17 -1773.72 
	L 2354.61 -2016.25 
	L 2416.84 -2016.25 
	L 2416.84 -1584.25 
	Z 
	"/>
</g>
<g fill="#7f7f7f" fill-rule="nonzero" stroke-width="0" stroke-linejoin="miter" stroke-linecap="butt" stroke-miterlimit="4" >
	<path d="
	M 1405.79 -1908.63 
	C 1395.1 -1946.52 1378.3 -1963.2 1352.35 -1963.2 
	C 1324.86 -1963.2 1308.07 -1946.52 1297.38 -1910.14 
	C 1286.69 -1876.8 1283.64 -1848 1283.64 -1799.49 
	C 1283.64 -1752.5 1288.22 -1725.22 1297.38 -1690.35 
	C 1308.07 -1653.97 1324.86 -1637.3 1352.35 -1637.3 
	C 1378.3 -1637.3 1395.1 -1653.97 1405.79 -1690.35 
	C 1416.48 -1725.22 1419.53 -1750.99 1419.53 -1801.01 
	C 1419.53 -1849.51 1414.95 -1876.8 1405.79 -1908.63 
	Z 
	M 1454.65 -1650.94 
	C 1433.27 -1599.41 1401.21 -1576.67 1352.35 -1576.67 
	C 1300.43 -1576.67 1269.9 -1599.41 1248.52 -1650.94 
	C 1230.2 -1693.38 1224.09 -1734.31 1224.09 -1801.01 
	C 1224.09 -1866.19 1230.2 -1910.14 1248.52 -1951.07 
	C 1271.42 -2002.61 1301.96 -2023.83 1352.35 -2023.83 
	C 1402.73 -2023.83 1433.27 -2002.61 1454.65 -1949.56 
	C 1472.97 -1907.11 1479.08 -1866.19 1479.08 -1801.01 
	C 1479.08 -1734.31 1472.97 -1691.87 1454.65 -1650.94 
	Z 
	"/>
</g>
<g fill="#7f7f7f" fill-rule="nonzero" stroke-width="0" stroke-linejoin="miter" stroke-linecap="butt" stroke-miterlimit="4" >
	<path d="
	M 1691.03 -1955.62 
	L 1627.5 -1955.62 
	L 1627.5 -1846.48 
	L 1691.03 -1846.48 
	C 1727.33 -1846.48 1747 -1866.19 1747 -1901.05 
	C 1747 -1934.4 1724.31 -1955.62 1691.03 -1955.62 
	Z 
	M 1743.97 -1584.25 
	L 1686.49 -1787.36 
	L 1627.5 -1787.36 
	L 1627.5 -1584.25 
	L 1565.48 -1584.25 
	L 1565.48 -2016.25 
	L 1694.05 -2016.25 
	C 1762.12 -2016.25 1807.5 -1970.77 1807.5 -1901.05 
	C 1807.5 -1849.51 1786.33 -1811.62 1745.48 -1796.46 
	L 1807.5 -1584.25 
	Z 
	"/>
</g>
<g fill="#7f7f7f" fill-rule="nonzero" stroke-width="0" stroke-linejoin="miter" stroke-linecap="butt" stroke-miterlimit="4" >
	<path d="
	M 2684.94 -1908.63 
	C 2674.25 -1946.52 2657.45 -1963.2 2631.5 -1963.2 
	C 2604.01 -1963.2 2587.22 -1946.52 2576.53 -1910.14 
	C 2565.84 -1876.8 2562.79 -1848 2562.79 -1799.49 
	C 2562.79 -1752.5 2567.37 -1725.22 2576.53 -1690.35 
	C 2587.22 -1653.97 2604.01 -1637.3 2631.5 -1637.3 
	C 2657.45 -1637.3 2674.25 -1653.97 2684.94 -1690.35 
	C 2695.63 -1725.22 2698.68 -1750.99 2698.68 -1801.01 
	C 2698.68 -1849.51 2694.1 -1876.8 2684.94 -1908.63 
	Z 
	M 2733.8 -1650.94 
	C 2712.42 -1599.41 2680.36 -1576.67 2631.5 -1576.67 
	C 2579.58 -1576.67 2549.05 -1599.41 2527.67 -1650.94 
	C 2509.35 -1693.38 2503.24 -1734.31 2503.24 -1801.01 
	C 2503.24 -1866.19 2509.35 -1910.14 2527.67 -1951.07 
	C 2550.57 -2002.61 2581.11 -2023.83 2631.5 -2023.83 
	C 2681.88 -2023.83 2712.42 -2002.61 2733.8 -1949.55 
	C 2752.12 -1907.11 2758.23 -1866.19 2758.23 -1801.01 
	C 2758.23 -1734.31 2752.12 -1691.87 2733.8 -1650.94 
	Z 
	"/>
</g>
<g fill="#7f7f7f" fill-rule="nonzero" stroke-width="0" stroke-linejoin="miter" stroke-linecap="butt" stroke-miterlimit="4" >
	<path d="
	M 2970.18 -1955.62 
	L 2906.65 -1955.62 
	L 2906.65 -1846.48 
	L 2970.18 -1846.48 
	C 3006.48 -1846.48 3026.15 -1866.18 3026.15 -1901.05 
	C 3026.15 -1934.4 3003.46 -1955.62 2970.18 -1955.62 
	Z 
	M 3023.12 -1584.25 
	L 2965.64 -1787.36 
	L 2906.65 -1787.36 
	L 2906.65 -1584.25 
	L 2844.63 -1584.25 
	L 2844.63 -2016.25 
	L 2973.2 -2016.25 
	C 3041.28 -2016.25 3086.65 -1970.77 3086.65 -1901.05 
	C 3086.65 -1849.51 3065.48 -1811.62 3024.63 -1796.46 
	L 3086.65 -1584.25 
	Z 
	"/>
</g>
<g fill="#7f7f7f" fill-rule="nonzero" stroke-width="0" stroke-linejoin="miter" stroke-linecap="butt" stroke-miterlimit="4" >
	<path d="
	M 1211.74 -720.25 
	L 1211.74 -1152.25 
	L 1415.45 -1152.25 
	L 1415.45 -1091.62 
	L 1274.07 -1091.62 
	L 1274.07 -982.48 
	L 1363.76 -982.48 
	L 1363.76 -923.36 
	L 1274.07 -923.36 
	L 1274.07 -780.88 
	L 1432.17 -780.88 
	L 1432.17 -720.25 
	Z 
	"/>
</g>
<g fill="#7f7f7f" fill-rule="nonzero" stroke-width="0" stroke-linejoin="miter" stroke-linecap="butt" stroke-miterlimit="4" >
	<path d="
	M 2642.83 -720.25 
	L 2509.71 -1009.76 
	L 2509.71 -720.25 
	L 2447.69 -720.25 
	L 2447.69 -1152.25 
	L 2509.71 -1152.25 
	L 2627.7 -893.05 
	L 2627.7 -1152.25 
	L 2689.72 -1152.25 
	L 2689.72 -720.25 
	Z 
	"/>
</g>
<g fill="#7f7f7f" fill-rule="nonzero" stroke-width="0" stroke-linejoin="miter" stroke-linecap="butt" stroke-miterlimit="4" >
	<path d="
	M 1008.86 -1091.62 
	L 945.328 -1091.62 
	L 945.328 -968.84 
	L 1008.86 -968.84 
	C 1045.17 -968.84 1064.83 -991.58 1064.83 -1030.99 
	C 1064.83 -1067.36 1042.14 -1091.62 1008.86 -1091.62 
	Z 
	M 1011.89 -909.72 
	L 945.328 -909.72 
	L 945.328 -720.25 
	L 883.313 -720.25 
	L 883.313 -1152.25 
	L 1011.89 -1152.25 
	C 1079.96 -1152.25 1125.34 -1103.74 1125.34 -1030.99 
	C 1125.34 -952.16 1084.5 -909.72 1011.89 -909.72 
	Z 
	"/>
</g>
<g fill="#7f7f7f" fill-rule="nonzero" stroke-width="0" stroke-linejoin="miter" stroke-linecap="butt" stroke-miterlimit="4" >
	<path d="
	M 2288 -1044.63 
	C 2277.32 -1082.52 2260.52 -1099.2 2234.56 -1099.2 
	C 2207.08 -1099.2 2190.28 -1082.52 2179.6 -1046.14 
	C 2168.91 -1012.8 2165.85 -984 2165.85 -935.49 
	C 2165.85 -888.5 2170.44 -861.22 2179.6 -826.35 
	C 2190.28 -789.98 2207.08 -773.3 2234.56 -773.3 
	C 2260.52 -773.3 2277.32 -789.98 2288 -826.35 
	C 2298.69 -861.22 2301.74 -886.99 2301.74 -937.01 
	C 2301.74 -985.51 2297.16 -1012.8 2288 -1044.63 
	Z 
	M 2336.86 -786.94 
	C 2315.49 -735.41 2283.42 -712.67 2234.56 -712.67 
	C 2182.65 -712.67 2152.11 -735.41 2130.74 -786.94 
	C 2112.41 -829.39 2106.3 -870.31 2106.3 -937.01 
	C 2106.3 -1002.19 2112.41 -1046.14 2130.74 -1087.07 
	C 2153.64 -1138.61 2184.18 -1159.83 2234.56 -1159.83 
	C 2284.95 -1159.83 2315.49 -1138.61 2336.86 -1085.56 
	C 2355.19 -1043.11 2361.29 -1002.19 2361.29 -937.01 
	C 2361.29 -870.31 2355.19 -827.87 2336.86 -786.94 
	Z 
	"/>
</g>
<g fill="#7f7f7f" fill-rule="nonzero" stroke-width="0" stroke-linejoin="miter" stroke-linecap="butt" stroke-miterlimit="4" >
	<path d="
	M 1631.16 -1091.62 
	L 1567.63 -1091.62 
	L 1567.63 -982.48 
	L 1631.16 -982.48 
	C 1667.47 -982.48 1687.13 -1002.19 1687.13 -1037.05 
	C 1687.13 -1070.4 1664.44 -1091.62 1631.16 -1091.62 
	Z 
	M 1684.11 -720.25 
	L 1626.62 -923.37 
	L 1567.63 -923.37 
	L 1567.63 -720.25 
	L 1505.61 -720.25 
	L 1505.61 -1152.25 
	L 1634.19 -1152.25 
	C 1702.26 -1152.25 1747.64 -1106.78 1747.64 -1037.05 
	C 1747.64 -985.51 1726.46 -947.62 1685.62 -932.46 
	L 1747.64 -720.25 
	Z 
	"/>
</g>
<g fill="#7f7f7f" fill-rule="nonzero" stroke-width="0" stroke-linejoin="miter" stroke-linecap="butt" stroke-miterlimit="4" >
	<path d="
	M 2886.17 -919.75 
	C 2867.48 -931.86 2849.33 -944.01 2837.75 -952.17 
	C 2802.92 -976.68 2784.47 -1009.76 2784.47 -1047.66 
	C 2784.47 -1109.81 2833.18 -1159.83 2895.59 -1159.83 
	C 2956.48 -1159.83 3003.67 -1112.84 3005.19 -1047.66 
	L 2945.82 -1047.66 
	C 2944.3 -1077.98 2922.99 -1097.68 2895.59 -1097.68 
	C 2866.67 -1097.68 2843.84 -1076.46 2843.84 -1047.66 
	C 2843.84 -1026.44 2852.97 -1014.31 2884.94 -996.12 
	C 2968.66 -947.62 3005.19 -900.63 3005.19 -838.48 
	C 3005.19 -768.75 2951.91 -712.67 2884.94 -712.67 
	C 2808.83 -712.67 2763.16 -776.33 2763.16 -847.58 
	L 2824.05 -847.58 
	C 2824.05 -811.2 2842.31 -773.3 2884.94 -773.3 
	C 2918.42 -773.3 2945.82 -803.62 2945.82 -838.48 
	C 2945.82 -865.55 2934.64 -888.35 2886.17 -919.75 
	Z 
	"/>
</g>
<g fill="#7f7f7f" fill-rule="nonzero" stroke-width="0" stroke-linejoin="miter" stroke-linecap="butt" stroke-miterlimit="4" >
	<path d="
	M 1922.49 -919.75 
	C 1903.8 -931.86 1885.65 -944.01 1874.06 -952.17 
	C 1839.24 -976.68 1820.79 -1009.76 1820.79 -1047.66 
	C 1820.79 -1109.81 1869.5 -1159.83 1931.91 -1159.83 
	C 1992.79 -1159.83 2039.98 -1112.84 2041.51 -1047.66 
	L 1982.14 -1047.66 
	C 1980.62 -1077.98 1959.31 -1097.68 1931.91 -1097.68 
	C 1902.99 -1097.68 1880.15 -1076.46 1880.15 -1047.66 
	C 1880.15 -1026.44 1889.29 -1014.31 1921.25 -996.12 
	C 2004.97 -947.62 2041.51 -900.63 2041.51 -838.48 
	C 2041.51 -768.75 1988.23 -712.67 1921.25 -712.67 
	C 1845.14 -712.67 1799.48 -776.33 1799.48 -847.58 
	L 1860.36 -847.58 
	C 1860.36 -811.2 1878.63 -773.3 1921.25 -773.3 
	C 1954.74 -773.3 1982.14 -803.62 1982.14 -838.48 
	C 1982.14 -865.55 1970.95 -888.35 1922.49 -919.75 
	Z 
	"/>
</g>
</g >
</g>
</svg>
