<?xml version="1.0" encoding="UTF-8" standalone="no"?>
<!-- Created with Inkscape (http://www.inkscape.org/) -->

<svg
   version="1.1"
   id="svg1"
   width="4608.6665"
   height="5760.6665"
   viewBox="0 0 4608.6665 5760.6665"
   sodipodi:docname="tmpwjegtw4k.pdf"
   xmlns:inkscape="http://www.inkscape.org/namespaces/inkscape"
   xmlns:sodipodi="http://sodipodi.sourceforge.net/DTD/sodipodi-0.dtd"
   xmlns="http://www.w3.org/2000/svg"
   xmlns:svg="http://www.w3.org/2000/svg">
  <defs
     id="defs1" />
  <sodipodi:namedview
     id="namedview1"
     pagecolor="#ffffff"
     bordercolor="#000000"
     borderopacity="0.25"
     inkscape:showpageshadow="2"
     inkscape:pageopacity="0.0"
     inkscape:pagecheckerboard="0"
     inkscape:deskcolor="#d1d1d1">
    <inkscape:page
       x="0"
       y="0"
       inkscape:label="1"
       id="page1"
       width="4608.6665"
       height="5760.6665"
       margin="0"
       bleed="0" />
  </sodipodi:namedview>
  <g
     id="g1"
     inkscape:groupmode="layer"
     inkscape:label="1">
    <g
       id="group-R5">
      <path
         id="path2"
         d="m 34562.5,2162.5 c 0,-1192.898 -967.1,-2160 -2160,-2160 H 2162.5 C 969.566,2.5 2.5,969.602 2.5,2162.5 v 38880 c 0,1192.9 967.066,2160 2160,2160 h 30240 c 1192.9,0 2160,-967.1 2160,-2160 v -38880"
         style="fill:#ffffff;fill-opacity:1;fill-rule:nonzero;stroke:none"
         transform="matrix(0.13333333,0,0,-0.13333333,0,5760.6667)" />
      <path
         id="path3"
         d="m 34562.5,2162.5 c 0,-1192.898 -967.1,-2160 -2160,-2160 H 2162.5 C 969.566,2.5 2.5,969.602 2.5,2162.5 v 38880 c 0,1192.9 967.066,2160 2160,2160 h 30240 c 1192.9,0 2160,-967.1 2160,-2160 z"
         style="fill:none;stroke:#231f20;stroke-width:5;stroke-linecap:butt;stroke-linejoin:miter;stroke-miterlimit:4;stroke-dasharray:none;stroke-opacity:1"
         transform="matrix(0.13333333,0,0,-0.13333333,0,5760.6667)" />
      <path
         id="path4"
         d="m 33122.5,2162.5 c 0,-397 -323,-720 -720,-720 h -30240 c -397.01,0 -720,323 -720,720 v 38880 c 0,397 322.99,720 720,720 h 30240 c 397,0 720,-323 720,-720 z m -720,40500 h -30240 c -893.27,0 -1620,-726.7 -1620,-1620 v -38880 c 0,-893.3 726.73,-1620 1620,-1620 h 30240 c 893.3,0 1620,726.7 1620,1620 v 38880 c 0,893.3 -726.7,1620 -1620,1620"
         style="fill:#231f20;fill-opacity:1;fill-rule:nonzero;stroke:none"
         transform="matrix(0.13333333,0,0,-0.13333333,0,5760.6667)" />
      <path
         id="path5"
         d="m 14160.3,23055.2 -506.6,-2071.6 h 1038.5 z m 1291.7,-5052.7 -506.6,1970.6 h -1545 l -481.2,-1970.6 h -1038.5 l 1798.3,7200 h 1013.2 l 1798.3,-7200 H 15452"
         style="fill:#231f20;fill-opacity:1;fill-rule:nonzero;stroke:none"
         transform="matrix(0.13333333,0,0,-0.13333333,0,5760.6667)" />
      <path
         id="path6"
         d="m 23116.3,18002.5 v 7200 h 3395.1 V 24192 H 24155.1 V 22373.1 H 25650 v -985.3 H 24155.1 V 19013 h 2635 v -1010.5 h -3673.8"
         style="fill:#231f20;fill-opacity:1;fill-rule:nonzero;stroke:none"
         transform="matrix(0.13333333,0,0,-0.13333333,0,5760.6667)" />
      <path
         id="path7"
         d="m 7774.88,18002.5 v 7200 h 1038.8 v -6240 h 2635.02 v -960 H 7774.88"
         style="fill:#231f20;fill-opacity:1;fill-rule:nonzero;stroke:none"
         transform="matrix(0.13333333,0,0,-0.13333333,0,5760.6667)" />
      <path
         id="path8"
         d="m 20750.8,18002.5 -2218.6,4825.3 v -4825.3 h -1033.7 v 7200 h 1033.7 l 1966.4,-4320 v 4320 h 1033.7 v -7200 h -781.5"
         style="fill:#231f20;fill-opacity:1;fill-rule:nonzero;stroke:none"
         transform="matrix(0.13333333,0,0,-0.13333333,0,5760.6667)" />
      <path
         id="path9"
         d="m 20790.2,11219.4 c -176.5,505.3 -479,732.6 -932.8,732.6 h -857.2 V 6773 h 857.2 c 605,0 932.8,480 1033.6,1035.8 50.4,454.8 100.9,960 100.9,1515.8 0,808.5 -75.6,1591.6 -201.7,1894.8 z m 176.4,-5128.5 c -252.1,-227.3 -605,-328.4 -1008.4,-328.4 h -1991.7 v 7200 h 1840.4 c 605.1,0 907.6,-75.7 1159.7,-277.9 428.7,-303.1 731.2,-858.9 857.2,-1591.5 100.9,-530.6 176.5,-1162.1 176.5,-1718 0,-1667.3 -327.8,-2728.4 -1033.7,-3284.2"
         style="fill:#231f20;fill-opacity:1;fill-rule:nonzero;stroke:none"
         transform="matrix(0.13333333,0,0,-0.13333333,0,5760.6667)" />
      <path
         id="path10"
         d="m 7450.87,5762.5 v 7200 H 10845.9 V 11952 H 8489.64 V 10133.1 H 9984.51 V 9147.8 H 8489.64 V 6773 H 11124.6 V 5762.5 H 7450.87"
         style="fill:#231f20;fill-opacity:1;fill-rule:nonzero;stroke:none"
         transform="matrix(0.13333333,0,0,-0.13333333,0,5760.6667)" />
      <path
         id="path11"
         d="m 15600.9,5762.5 -2218.6,4825.3 V 5762.5 h -1033.6 v 7200 h 1033.6 l 1966.5,-4320 v 4320 h 1033.7 v -7200 h -781.6"
         style="fill:#231f20;fill-opacity:1;fill-rule:nonzero;stroke:none"
         transform="matrix(0.13333333,0,0,-0.13333333,0,5760.6667)" />
      <path
         id="path12"
         d="m 25130.5,9087.6 c -311.5,201.8 -614,404.3 -807.1,540.2 -580.4,408.6 -887.9,960 -887.9,1591.6 0,1035.8 811.8,1869.4 1852,1869.4 1014.8,0 1801.2,-783.1 1826.6,-1869.4 h -989.4 c -25.4,505.2 -380.5,833.6 -837.2,833.6 -482,0 -862.6,-353.6 -862.6,-833.6 0,-353.7 152.2,-555.8 685,-859 1395.3,-808.4 2004.2,-1591.6 2004.2,-2627.3 0,-1162.2 -887.9,-2096.9 -2004.2,-2096.9 -1268.5,0 -2029.6,1061.1 -2029.6,2248.4 h 1014.8 c 0,-606.3 304.5,-1237.9 1014.8,-1237.9 558.1,0 1014.8,505.3 1014.8,1086.4 0,451.1 -186.4,831.1 -994.2,1354.5"
         style="fill:#231f20;fill-opacity:1;fill-rule:nonzero;stroke:none"
         transform="matrix(0.13333333,0,0,-0.13333333,0,5760.6667)" />
      <path
         id="path13"
         d="M 12075.1,33501.5 H 11041.4 V 31253 h 1033.7 c 579.9,0 958,404.2 958,1035.8 0,682.1 -428.6,1212.7 -958,1212.7 z m 50.4,2930.5 h -1084.1 v -1920 h 1084.1 c 479,0 781.6,404.2 781.6,1061.1 0,606.2 -226.9,858.9 -781.6,858.9 z m 0,-6189.5 h -2117.7 v 7200 h 2269 c 958,0 1638.7,-757.9 1638.7,-1869.4 0,-656.9 -176.4,-960.1 -756.3,-1566.4 554.6,-454.7 882.4,-1061.1 882.4,-1793.7 0,-1086.3 -857.2,-1970.5 -1916.1,-1970.5"
         style="fill:#231f20;fill-opacity:1;fill-rule:nonzero;stroke:none"
         transform="matrix(0.13333333,0,0,-0.13333333,0,5760.6667)" />
      <path
         id="path14"
         d="m 22573.6,33567.6 c -311.5,201.8 -614,404.3 -807.1,540.2 -580.4,408.6 -887.9,960 -887.9,1591.6 0,1035.8 811.8,1869.4 1852,1869.4 1014.8,0 1801.2,-783.1 1826.6,-1869.4 h -989.4 c -25.4,505.2 -380.6,833.6 -837.2,833.6 -482,0 -862.6,-353.7 -862.6,-833.6 0,-353.8 152.2,-555.8 685,-859 1395.3,-808.4 2004.2,-1591.6 2004.2,-2627.4 0,-1162.1 -887.9,-2096.8 -2004.2,-2096.8 -1268.5,0 -2029.6,1061 -2029.6,2248.4 h 1014.8 c 0,-606.3 304.4,-1237.9 1014.8,-1237.9 558.1,0 1014.8,505.3 1014.8,1086.3 0,451.2 -186.5,831.2 -994.2,1354.6"
         style="fill:#231f20;fill-opacity:1;fill-rule:nonzero;stroke:none"
         transform="matrix(0.13333333,0,0,-0.13333333,0,5760.6667)" />
      <path
         id="path15"
         d="m 19022.1,31126.7 c -353,-581.1 -1033.7,-1010.5 -1714.4,-1010.5 -705.9,0 -1411.9,404.2 -1764.8,1010.5 -201.7,379 -277.4,682.1 -277.4,1263.1 v 5052.7 h 1033.7 v -5179 c 0,-682.1 403.4,-1136.8 1008.5,-1136.8 554.6,0 958,454.7 958,1136.8 v 5179 h 1033.7 v -5052.7 c 0,-581 -75.6,-884.1 -277.3,-1263.1"
         style="fill:#231f20;fill-opacity:1;fill-rule:nonzero;stroke:none"
         transform="matrix(0.13333333,0,0,-0.13333333,0,5760.6667)" />
    </g>
  </g>
</svg>
