<?xml version="1.0" encoding="UTF-8" standalone="no"?>
<!-- Created with Inkscape (http://www.inkscape.org/) -->

<svg
   version="1.1"
   id="svg1"
   width="2304.6667"
   height="2304.6667"
   viewBox="0 0 2304.6667 2304.6667"
   sodipodi:docname="tmp8l1kt76_.pdf"
   xmlns:inkscape="http://www.inkscape.org/namespaces/inkscape"
   xmlns:sodipodi="http://sodipodi.sourceforge.net/DTD/sodipodi-0.dtd"
   xmlns="http://www.w3.org/2000/svg"
   xmlns:svg="http://www.w3.org/2000/svg">
  <defs
     id="defs1" />
  <sodipodi:namedview
     id="namedview1"
     pagecolor="#ffffff"
     bordercolor="#000000"
     borderopacity="0.25"
     inkscape:showpageshadow="2"
     inkscape:pageopacity="0.0"
     inkscape:pagecheckerboard="0"
     inkscape:deskcolor="#d1d1d1">
    <inkscape:page
       x="0"
       y="0"
       inkscape:label="1"
       id="page1"
       width="2304.6667"
       height="2304.6667"
       margin="0"
       bleed="0" />
  </sodipodi:namedview>
  <g
     id="g1"
     inkscape:groupmode="layer"
     inkscape:label="1">
    <g
       id="group-R5">
      <path
         id="path2"
         d="M 1082.5,1.19922 C 486.293,1.19922 1.25,486.301 1.25,1082.5 v 15120 c 0,596.2 485.043,1081.3 1081.25,1081.3 h 15120 c 596.2,0 1081.3,-485.1 1081.3,-1081.3 V 1082.5 C 17283.8,486.301 16798.7,1.19922 16202.5,1.19922 h -15120"
         style="fill:#ffffff;fill-opacity:1;fill-rule:nonzero;stroke:none"
         transform="matrix(0.13333333,0,0,-0.13333333,0,2304.6667)" />
      <path
         id="path3"
         d="m 16202.5,17285 h -15120 c -287.953,0 -559.465,-112.9 -764.516,-318 C 112.93,16762 0,16490.5 0,16202.5 V 1082.5 C 0,794.5 112.93,523 317.984,318 523.035,112.902 794.547,0 1082.5,0 h 15120 c 288,0 559.5,112.902 764.5,318 205.1,205 318,476.5 318,764.5 v 15120 c 0,288 -112.9,559.5 -318,764.5 -205,205.1 -476.5,318 -764.5,318 z m 0,-2.5 c 594,0 1080,-486 1080,-1080 v -15120 c 0,-594 -486,-1080 -1080,-1080 h -15120 c -594,0 -1080,486 -1080,1080 v 15120 c 0,594 486,1080 1080,1080 h 15120"
         style="fill:#231f20;fill-opacity:1;fill-rule:nonzero;stroke:none"
         transform="matrix(0.13333333,0,0,-0.13333333,0,2304.6667)" />
      <path
         id="path4"
         d="m 16202.5,722.5 c 198.5,0 360,161.5 360,360 v 15120 c 0,198.5 -161.5,360 -360,360 h -15120 c -198.508,0 -360,-161.5 -360,-360 v -15120 c 0,-198.5 161.492,-360 360,-360 z m -15120,-450 c -446.637,0 -810,363.402 -810,810 v 15120 c 0,446.6 363.363,810 810,810 h 15120 c 446.6,0 810,-363.4 810,-810 v -15120 c 0,-446.598 -363.4,-810 -810,-810 h -15120"
         style="fill:#231f20;fill-opacity:1;fill-rule:nonzero;stroke:none"
         transform="matrix(0.13333333,0,0,-0.13333333,0,2304.6667)" />
      <path
         id="path5"
         d="m 12805,3782.5 h -1485 v 4545 C 11320,9233.18 10583.2,9970 9677.5,9970 8771.83,9970 8035,9233.18 8035,8327.5 V 6412.2 H 6550 v 1915.3 c 0,421.88 82.79,831.54 246.08,1217.59 157.56,372.51 382.96,706.91 669.95,993.91 286.98,287 621.37,512.4 993.88,669.9 386.05,163.3 795.71,246.1 1217.59,246.1 421.9,0 831.5,-82.8 1217.6,-246.1 372.5,-157.5 706.9,-382.9 993.9,-669.9 287,-287 512.4,-621.4 669.9,-993.91 163.3,-386.05 246.1,-795.71 246.1,-1217.59 v -4545"
         style="fill:#231f20;fill-opacity:1;fill-rule:nonzero;stroke:none"
         transform="matrix(0.13333333,0,0,-0.13333333,0,2304.6667)" />
      <path
         id="path6"
         d="m 8955.52,6990.1 c 23.1,6.7 46.39,9.9 69.3,9.9 136.69,0 247.51,-110.8 247.51,-247.5 0.04,-48.2 -13.97,-97 -43.26,-139.8 L 7292.33,3782.5 5355.59,6612.7 c -29.3,42.8 -43.3,91.6 -43.26,139.8 0,136.7 110.82,247.5 247.51,247.5 22.91,0 46.2,-3.2 69.3,-9.9 L 7292.33,6505 8955.52,6990.1"
         style="fill:#231f20;fill-opacity:1;fill-rule:nonzero;stroke:none"
         transform="matrix(0.13333333,0,0,-0.13333333,0,2304.6667)" />
      <path
         id="path7"
         d="M 9677.5,9970 H 5422.17 v 1485 H 9677.5 V 9970"
         style="fill:#231f20;fill-opacity:1;fill-rule:nonzero;stroke:none"
         transform="matrix(0.13333333,0,0,-0.13333333,0,2304.6667)" />
      <path
         id="path8"
         d="m 6000.08,9049.48 c 6.74,-23.1 9.92,-46.39 9.93,-69.3 0,-136.69 -110.84,-247.51 -247.53,-247.51 -48.23,-0.04 -96.97,13.97 -139.77,43.26 L 2792.5,10712.7 5622.71,12649.4 c 42.8,29.3 91.54,43.3 139.77,43.3 136.69,0 247.53,-110.8 247.53,-247.5 -0.01,-22.9 -3.19,-46.2 -9.93,-69.3 l -485.1,-1663.2 485.1,-1663.22"
         style="fill:#231f20;fill-opacity:1;fill-rule:nonzero;stroke:none"
         transform="matrix(0.13333333,0,0,-0.13333333,0,2304.6667)" />
      <path
         id="path9"
         d="m 13427.8,4684.6 -8743.33,8743.3 c 1074.6,889.9 2453.85,1424.7 3958.03,1424.7 3429.7,0 6210,-2780.3 6210,-6210 0,-1504.2 -534.8,-2883.4 -1424.7,-3958 z m -10995.3,3958 c 0,1504.2 534.83,2883.4 1424.66,3958 L 12600.5,3857.3 c -1074.6,-889.9 -2453.8,-1424.7 -3958,-1424.7 -3429.69,0 -6210,2780.3 -6210,6210 z m 6210,7470 c -4125.57,0 -7470,-3344.4 -7470,-7470 0,-4125.6 3344.43,-7470 7470,-7470 4125.6,0 7470,3344.4 7470,7470 0,4125.6 -3344.4,7470 -7470,7470"
         style="fill:#bf2519;fill-opacity:1;fill-rule:evenodd;stroke:none"
         transform="matrix(0.13333333,0,0,-0.13333333,0,2304.6667)" />
    </g>
  </g>
</svg>
