<?xml version="1.0" encoding="UTF-8"?>
<svg id="For_Sheets" xmlns="http://www.w3.org/2000/svg" version="1.1" viewBox="0 0 1728 1728">
  <!-- Generator: Adobe Illustrator 29.1.0, SVG Export Plug-In . SVG Version: 2.1.0 Build 142)  -->
  <defs>
    <style>
      .st0 {
        fill: #231f20;
      }

      .st1 {
        fill: #bf311a;
        fill-rule: evenodd;
      }

      .st2 {
        fill: #fff;
      }
    </style>
  </defs>
  <g>
    <rect class="st2" x="-.1" y="-.1" width="1728.2" height="1728.2" rx="108.1" ry="108.1"/>
    <path class="st0" d="M1620,0c59.4,0,108,48.6,108,108v1512c0,59.4-48.6,108-108,108H108c-59.4,0-108-48.6-108-108V108C0,48.6,48.6,0,108,0h1512M1620-.2H108C79.2-.2,52.1,11,31.5,31.5,11,52.1-.2,79.2-.2,108v1512c0,28.8,11.3,55.9,31.8,76.5,20.5,20.5,47.7,31.8,76.5,31.8h1512c28.8,0,55.9-11.3,76.5-31.8,20.5-20.5,31.8-47.7,31.8-76.5V108c0-28.8-11.3-55.9-31.8-76.5-20.5-20.5-47.7-31.8-76.5-31.8h0Z"/>
  </g>
  <path class="st0" d="M108,1701c-44.7,0-81-36.3-81-81V108c0-44.7,36.3-81,81-81h1512c44.7,0,81,36.3,81,81v1512c0,44.7-36.3,81-81,81H108ZM1620,1656c19.9,0,36-16.1,36-36V108c0-19.9-16.1-36-36-36H108c-19.9,0-36,16.1-36,36v1512c0,19.9,16.1,36,36,36h1512Z"/>
  <path class="st0" d="M970.9,793.1v529.9s182.2,0,182.2,0v-604.1c0-79.5-64.5-144-144-144h-362.4s0,182.2,0,182.2h288.1c19.9,0,36,16.1,36,36Z"/>
  <path class="st0" d="M717.7,461.9c.8-2.8,1.2-5.7,1.2-8.5,0-16.8-13.6-30.4-30.4-30.4-5.9,0-11.9,1.7-17.2,5.3l-347.3,237.7,347.3,237.7c5.3,3.6,11.2,5.3,17.2,5.3,16.8,0,30.4-13.6,30.4-30.4,0-2.8-.4-5.7-1.2-8.5l-59.5-204.1,59.5-204.1Z"/>
  <path class="st1" d="M864,108c-417.5,0-756,338.5-756,756s338.5,756,756,756,756-338.5,756-756S1281.5,108,864,108ZM1476,864c0,143.1-49.1,274.6-131.3,378.8L485.2,383.3c104.2-82.2,235.8-131.3,378.8-131.3,338,0,612,274,612,612ZM252,864c0-143.1,49.1-274.6,131.3-378.8l859.5,859.5c-104.2,82.2-235.8,131.3-378.8,131.3-338,0-612-274-612-612Z"/>
</svg>