<?xml version="1.0" standalone="no"?>
<svg width="1728px" height="1296px" viewBox="0 -504 1728 1296 " xmlns="http://www.w3.org/2000/svg" xmlns:xlink="http://www.w3.org/1999/xlink">
<title>generated by pstoedit</title>
<!-- generated by pstoedit version:4.02 -->
<g xml:space='preserve'>
<clipPath id="clippath1"> 	<path d="
	M 0 -504.5 
	L 0 792 
	L 1728.5 792 
	L 1728.5 -504.5 
	Z 
	" style="clip-rule:nonzero"/>
</clipPath>
<g style="clip-path:url(#clippath1)"> 
<g fill="#ffffff" fill-rule="nonzero" stroke-width="0" stroke-linejoin="miter" stroke-linecap="butt" stroke-miterlimit="10" >
	<path d="
	M 1728.25 683.75 
	C 1728.25 743.398 1679.9 791.75 1620.25 791.75 
	L 108.25 791.75 
	C 48.6016 791.75 0.25 743.398 0.25 683.75 
	L 0.25 -396.25 
	C 0.25 -455.9 48.6016 -504.25 108.25 -504.25 
	L 1620.25 -504.25 
	C 1679.9 -504.25 1728.25 -455.9 1728.25 -396.25 
	Z 
	"/>
</g>
<g stroke="#7f7f7f" fill="none" stroke-width="0.5" stroke-linejoin="miter" stroke-linecap="butt" stroke-miterlimit="4" >
	<path d="
	M 1728.25 683.75 
	C 1728.25 743.398 1679.9 791.75 1620.25 791.75 
	L 108.25 791.75 
	C 48.6016 791.75 0.25 743.398 0.25 683.75 
	L 0.25 -396.25 
	C 0.25 -455.9 48.6016 -504.25 108.25 -504.25 
	L 1620.25 -504.25 
	C 1679.9 -504.25 1728.25 -455.9 1728.25 -396.25 
	Z 
	"/>
</g>
<g fill="#7f7f7f" fill-rule="nonzero" stroke-width="0" stroke-linejoin="miter" stroke-linecap="butt" stroke-miterlimit="4" >
	<path d="
	M 108.25 764.75 
	C 63.5859 764.75 27.25 728.41 27.25 683.75 
	L 27.25 -396.25 
	C 27.25 -440.91 63.5859 -477.25 108.25 -477.25 
	L 1620.25 -477.25 
	C 1664.91 -477.25 1701.25 -440.91 1701.25 -396.25 
	L 1701.25 683.75 
	C 1701.25 728.41 1664.91 764.75 1620.25 764.75 
	Z 
	"/>
</g>
<g fill="#ffffff" fill-rule="nonzero" stroke-width="0" stroke-linejoin="miter" stroke-linecap="butt" stroke-miterlimit="4" >
	<path d="
	M 108.25 719.75 
	C 88.3984 719.75 72.25 703.602 72.25 683.75 
	L 72.25 -396.25 
	C 72.25 -416.1 88.3984 -432.25 108.25 -432.25 
	L 1620.25 -432.25 
	C 1640.1 -432.25 1656.25 -416.1 1656.25 -396.25 
	L 1656.25 683.75 
	C 1656.25 703.602 1640.1 719.75 1620.25 719.75 
	Z 
	"/>
</g>
<g fill="#7f7f7f" fill-rule="nonzero" stroke-width="0" stroke-linejoin="miter" stroke-linecap="butt" stroke-miterlimit="4" >
	<path d="
	M 746.563 -166.355 
	L 726.297 -83.492 
	L 767.84 -83.492 
	Z 
	M 798.23 35.75 
	L 777.969 -43.07 
	L 716.168 -43.07 
	L 696.918 35.75 
	L 655.379 35.75 
	L 727.313 -252.25 
	L 767.84 -252.25 
	L 839.77 35.75 
	Z 
	"/>
</g>
<g fill="#7f7f7f" fill-rule="nonzero" stroke-width="0" stroke-linejoin="miter" stroke-linecap="butt" stroke-miterlimit="4" >
	<path d="
	M 1090.4 35.75 
	L 1090.4 -252.25 
	L 1226.21 -252.25 
	L 1226.21 -211.83 
	L 1131.95 -211.83 
	L 1131.95 -139.07 
	L 1191.75 -139.07 
	L 1191.75 -99.66 
	L 1131.95 -99.66 
	L 1131.95 -4.672 
	L 1237.35 -4.672 
	L 1237.35 35.75 
	Z 
	"/>
</g>
<g fill="#7f7f7f" fill-rule="nonzero" stroke-width="0" stroke-linejoin="miter" stroke-linecap="butt" stroke-miterlimit="4" >
	<path d="
	M 998.078 35.75 
	L 947.656 -104.715 
	L 921.438 -56.207 
	L 921.438 35.75 
	L 880.09 35.75 
	L 880.09 -252.25 
	L 921.438 -252.25 
	L 921.438 -137.051 
	L 986.984 -252.25 
	L 1034.38 -252.25 
	L 974.887 -151.195 
	L 1041.44 35.75 
	Z 
	"/>
</g>
<g fill="#7f7f7f" fill-rule="nonzero" stroke-width="0" stroke-linejoin="miter" stroke-linecap="butt" stroke-miterlimit="4" >
	<path d="
	M 585.398 -213.85 
	L 585.398 35.75 
	L 543.848 35.75 
	L 543.848 -213.85 
	L 491.145 -213.85 
	L 491.145 -252.25 
	L 638.098 -252.25 
	L 638.098 -213.85 
	Z 
	"/>
</g>
<g fill="#7f7f7f" fill-rule="nonzero" stroke-width="0" stroke-linejoin="miter" stroke-linecap="butt" stroke-miterlimit="4" >
	<path d="
	M 752.047 328.551 
	C 747.988 300.258 736.824 287.117 717.543 287.117 
	C 684.055 287.117 671.879 313.395 671.879 388.172 
	C 671.879 471.035 686.086 504.379 721.605 504.379 
	C 745.957 504.379 752.047 484.172 752.047 462.949 
	L 793.652 462.949 
	C 792.641 510.449 762.195 544.801 721.605 544.801 
	C 659.699 544.801 632.301 495.285 632.301 389.184 
	C 632.301 296.215 661.73 246.695 718.559 246.695 
	C 741.898 246.695 762.195 256.805 775.387 276.004 
	C 786.551 290.148 790.609 302.277 793.652 328.551 
	Z 
	"/>
</g>
<g fill="#7f7f7f" fill-rule="nonzero" stroke-width="0" stroke-linejoin="miter" stroke-linecap="butt" stroke-miterlimit="4" >
	<path d="
	M 534.383 539.75 
	L 534.383 251.75 
	L 574.703 251.75 
	L 574.703 539.75 
	Z 
	"/>
</g>
<g fill="#7f7f7f" fill-rule="nonzero" stroke-width="0" stroke-linejoin="miter" stroke-linecap="butt" stroke-miterlimit="4" >
	<path d="
	M 1061.57 539.75 
	L 1061.57 251.75 
	L 1197.37 251.75 
	L 1197.37 292.172 
	L 1103.12 292.172 
	L 1103.12 364.93 
	L 1162.91 364.93 
	L 1162.91 404.34 
	L 1103.12 404.34 
	L 1103.12 499.328 
	L 1208.52 499.328 
	L 1208.52 539.75 
	Z 
	"/>
</g>
<g fill="#7f7f7f" fill-rule="nonzero" stroke-width="0" stroke-linejoin="miter" stroke-linecap="butt" stroke-miterlimit="4" >
	<path d="
	M 969.242 539.75 
	L 918.82 399.285 
	L 892.602 447.793 
	L 892.602 539.75 
	L 851.254 539.75 
	L 851.254 251.75 
	L 892.602 251.75 
	L 892.602 366.949 
	L 958.148 251.75 
	L 1005.55 251.75 
	L 946.051 352.805 
	L 1012.61 539.75 
	Z 
	"/>
</g>
<g fill="#7f7f7f" fill-rule="nonzero" stroke-width="0" stroke-linejoin="miter" stroke-linecap="butt" stroke-miterlimit="4" >
	<path d="
	M 441.359 290.148 
	L 441.359 539.75 
	L 399.809 539.75 
	L 399.809 290.148 
	L 347.109 290.148 
	L 347.109 251.75 
	L 494.063 251.75 
	L 494.063 290.148 
	Z 
	"/>
</g>
<g fill="#7f7f7f" fill-rule="nonzero" stroke-width="0" stroke-linejoin="miter" stroke-linecap="butt" stroke-miterlimit="4" >
	<path d="
	M 1328.69 290.148 
	L 1328.69 539.75 
	L 1287.14 539.75 
	L 1287.14 290.148 
	L 1234.44 290.148 
	L 1234.44 251.75 
	L 1381.39 251.75 
	L 1381.39 290.148 
	Z 
	"/>
</g>
</g >
</g>
</svg>
