<?xml version="1.0" encoding="UTF-8" standalone="no"?>
<!-- Created with Inkscape (http://www.inkscape.org/) -->

<svg
   version="1.1"
   id="svg1"
   width="2880.6667"
   height="4032.6667"
   viewBox="0 0 2880.6667 4032.6667"
   sodipodi:docname="tmp0mryb3ff.pdf"
   xmlns:inkscape="http://www.inkscape.org/namespaces/inkscape"
   xmlns:sodipodi="http://sodipodi.sourceforge.net/DTD/sodipodi-0.dtd"
   xmlns="http://www.w3.org/2000/svg"
   xmlns:svg="http://www.w3.org/2000/svg">
  <defs
     id="defs1" />
  <sodipodi:namedview
     id="namedview1"
     pagecolor="#ffffff"
     bordercolor="#000000"
     borderopacity="0.25"
     inkscape:showpageshadow="2"
     inkscape:pageopacity="0.0"
     inkscape:pagecheckerboard="0"
     inkscape:deskcolor="#d1d1d1">
    <inkscape:page
       x="0"
       y="0"
       inkscape:label="1"
       id="page1"
       width="2880.6667"
       height="4032.6667"
       margin="0"
       bleed="0" />
  </sodipodi:namedview>
  <g
     id="g1"
     inkscape:groupmode="layer"
     inkscape:label="1">
    <g
       id="group-R5">
      <path
         id="path2"
         d="M 1352.5,1.20313 C 993.063,1.20313 654.141,142.199 398.18,398.203 142.219,654.102 1.25,993.102 1.25,1352.5 v 27540 c 0,359.4 140.969,698.4 396.93,954.3 255.961,256 594.883,397 954.32,397 h 18900 c 359.4,0 698.4,-141 954.3,-397 256,-255.9 397,-594.9 397,-954.3 v -27540 c 0,-359.398 -141,-698.398 -397,-954.297 C 20950.9,142.199 20611.9,1.20313 20252.5,1.20313 h -18900"
         style="fill:#ffffff;fill-opacity:1;fill-rule:nonzero;stroke:none"
         transform="matrix(0.13333333,0,0,-0.13333333,0,4032.6667)" />
      <path
         id="path3"
         d="m 20252.5,30245 h -18900 c -359.773,0 -699.008,-141.1 -955.203,-397.3 C 141.098,29591.5 0,29252.3 0,28892.5 V 1352.5 C 0,992.699 141.098,653.5 397.297,397.301 653.492,141.102 992.727,0 1352.5,0 h 18900 c 359.8,0 699,141.102 955.2,397.301 256.2,256.199 397.3,595.398 397.3,955.199 v 27540 c 0,359.8 -141.1,699 -397.3,955.2 -256.2,256.2 -595.4,397.3 -955.2,397.3 z m 0,-2.5 c 742.5,0 1350,-607.5 1350,-1350 V 1352.5 C 21602.5,610 20995,2.5 20252.5,2.5 H 1352.5 C 610,2.5 2.5,610 2.5,1352.5 v 27540 c 0,742.5 607.5,1350 1350,1350 h 18900"
         style="fill:#231f20;fill-opacity:1;fill-rule:nonzero;stroke:none"
         transform="matrix(0.13333333,0,0,-0.13333333,0,4032.6667)" />
      <path
         id="path4"
         d="m 902.5,21062.5 v -19710 c 0,-247.5 202.5,-450 450,-450 h 18900 c 247.5,0 450,202.5 450,450 v 19710 z m 19350,-20700 h -18900 c -544.5,0 -990,445.5 -990,990 v 27540 c 0,544.5 445.5,990 990,990 h 18900 c 544.5,0 990,-445.5 990,-990 v -27540 c 0,-544.5 -445.5,-990 -990,-990"
         style="fill:#231f20;fill-opacity:1;fill-rule:nonzero;stroke:none"
         transform="matrix(0.13333333,0,0,-0.13333333,0,4032.6667)" />
      <path
         id="path5"
         d="m 10802.6,29072.5 1799.9,-3600 -1799.9,-3600 -1800.1,3600 1800.1,3600"
         style="fill:#ffffff;fill-opacity:1;fill-rule:evenodd;stroke:none"
         transform="matrix(0.13333333,0,0,-0.13333333,0,4032.6667)" />
      <path
         id="path6"
         d="M 10802.6,27865 9606.24,25472.5 10802.6,23080 11998.8,25472.5 10802.6,27865"
         style="fill:#231f20;fill-opacity:1;fill-rule:evenodd;stroke:none"
         transform="matrix(0.13333333,0,0,-0.13333333,0,4032.6667)" />
      <path
         id="path7"
         d="m 2362.66,19802.5 h 345.59 v -2160 h -345.59 v 2160"
         style="fill:#231f20;fill-opacity:1;fill-rule:nonzero;stroke:none"
         transform="matrix(0.13333333,0,0,-0.13333333,0,4032.6667)" />
      <path
         id="path8"
         d="m 3567.4,19105.1 v -1462.6 h -340.74 v 2160 h 340.74 l 788.38,-1379.4 v 1379.4 h 341.27 v -2160 h -303.2 l -826.45,1462.6"
         style="fill:#231f20;fill-opacity:1;fill-rule:nonzero;stroke:none"
         transform="matrix(0.13333333,0,0,-0.13333333,0,4032.6667)" />
      <path
         id="path9"
         d="m 6344.92,18582.4 h -788.65 v -939.9 h -340.73 v 2160 h 340.73 v -871.6 h 788.38 v 871.6 h 341.27 v -2160 h -341 v 939.9"
         style="fill:#231f20;fill-opacity:1;fill-rule:nonzero;stroke:none"
         transform="matrix(0.13333333,0,0,-0.13333333,0,4032.6667)" />
      <path
         id="path10"
         d="m 7204.41,19802.5 h 1271.67 v -341 h -930.94 v -530.6 h 628.28 v -348.5 h -628.28 v -591.3 h 998.98 v -348.6 H 7204.41 v 2160"
         style="fill:#231f20;fill-opacity:1;fill-rule:nonzero;stroke:none"
         transform="matrix(0.13333333,0,0,-0.13333333,0,4032.6667)" />
      <path
         id="path11"
         d="m 9681.16,18930.9 c 271.07,0 313.73,195.5 313.73,265.2 0,94.2 -70.47,265.4 -297.26,265.4 h -445.49 v -530.6 z m -429.02,-348.3 v -940.1 H 8911.4 v 2160 h 781.37 c 495.13,0 643.63,-396.1 643.63,-606.7 0,-80.2 -29.7,-396.1 -335.3,-540.8 l 380.7,-1012.5 h -371.5 l -348.58,940.1 h -409.58"
         style="fill:#231f20;fill-opacity:1;fill-rule:nonzero;stroke:none"
         transform="matrix(0.13333333,0,0,-0.13333333,0,4032.6667)" />
      <path
         id="path12"
         d="m 10749.1,19802.5 h 1271.7 v -341 h -931 v -530.6 h 628.3 v -348.5 h -628.3 v -591.3 h 999 v -348.6 h -1339.7 v 2160"
         style="fill:#231f20;fill-opacity:1;fill-rule:nonzero;stroke:none"
         transform="matrix(0.13333333,0,0,-0.13333333,0,4032.6667)" />
      <path
         id="path13"
         d="m 12796.8,19105.1 v -1462.6 h -340.7 v 2160 h 340.7 l 788.4,-1379.4 v 1379.4 h 341.3 v -2160 h -303.2 l -826.5,1462.6"
         style="fill:#231f20;fill-opacity:1;fill-rule:nonzero;stroke:none"
         transform="matrix(0.13333333,0,0,-0.13333333,0,4032.6667)" />
      <path
         id="path14"
         d="m 15087.8,17642.5 h -342.6 v 1856.8 h -494.6 v 303.2 h 1339.7 v -303.2 h -502.5 v -1856.8"
         style="fill:#231f20;fill-opacity:1;fill-rule:nonzero;stroke:none"
         transform="matrix(0.13333333,0,0,-0.13333333,0,4032.6667)" />
      <path
         id="path15"
         d="m 15914.3,19802.5 h 340.8 v -1841.7 h 998.9 v -318.3 h -1339.7 v 2160"
         style="fill:#231f20;fill-opacity:1;fill-rule:nonzero;stroke:none"
         transform="matrix(0.13333333,0,0,-0.13333333,0,4032.6667)" />
      <path
         id="path16"
         d="m 18488.2,17642.5 h -342.8 v 939.9 l -761.7,1220.1 h 411.5 l 517.8,-833.8 525.7,833.8 h 403.6 l -754.1,-1220.1 v -939.9"
         style="fill:#231f20;fill-opacity:1;fill-rule:nonzero;stroke:none"
         transform="matrix(0.13333333,0,0,-0.13333333,0,4032.6667)" />
      <path
         id="path17"
         d="m 8122.58,15932.5 h 340.74 v -1841.6 h 998.99 v -318.4 H 8122.58 v 2160"
         style="fill:#231f20;fill-opacity:1;fill-rule:nonzero;stroke:none"
         transform="matrix(0.13333333,0,0,-0.13333333,0,4032.6667)" />
      <path
         id="path18"
         d="m 12859.1,13772.5 -342.4,1387 -334.5,-1387 h -304.3 l -319.1,2160 h 349.6 l 167.4,-1137 273.5,1137 h 334.8 l 281.1,-1137 167.4,1137 h 349.6 l -319.4,-2160 h -303.7"
         style="fill:#231f20;fill-opacity:1;fill-rule:nonzero;stroke:none"
         transform="matrix(0.13333333,0,0,-0.13333333,0,4032.6667)" />
      <path
         id="path19"
         d="m 4577.74,12062.5 h 1271.68 v -341 h -930.95 v -530.6 h 628.28 v -348.5 h -628.28 v -591.3 h 998.99 V 9902.5 H 4577.74 v 2160"
         style="fill:#231f20;fill-opacity:1;fill-rule:nonzero;stroke:none"
         transform="matrix(0.13333333,0,0,-0.13333333,0,4032.6667)" />
      <path
         id="path20"
         d="M 7628.79,11153.1 7127.94,9902.5 6626.56,11153.1 V 9902.5 h -341.81 v 2160 h 341.81 l 501.38,-1212.6 500.85,1212.6 h 341.81 v -2160 h -341.81 v 1250.6"
         style="fill:#231f20;fill-opacity:1;fill-rule:nonzero;stroke:none"
         transform="matrix(0.13333333,0,0,-0.13333333,0,4032.6667)" />
      <path
         id="path21"
         d="m 8489.1,12062.5 h 345.6 v -2160 h -345.6 v 2160"
         style="fill:#231f20;fill-opacity:1;fill-rule:nonzero;stroke:none"
         transform="matrix(0.13333333,0,0,-0.13333333,0,4032.6667)" />
      <path
         id="path22"
         d="m 9201.91,10410.4 325.89,121.2 c 90.99,-204.7 257.57,-318.3 462.23,-318.3 197.07,0 333.67,136.3 333.67,318.3 0,288.9 -333.4,333.5 -613.93,447.1 -128.78,53.2 -416.87,182 -416.87,538.1 0,424.7 287.82,583.2 674.45,583.2 303.25,0 507.85,-174.4 613.95,-439.5 l -303.2,-91 c -34,85.3 -157.4,189.5 -318.31,189.5 -308.06,0 -334.25,-164.4 -334.25,-218.4 0,-202 174.14,-241.9 457.36,-330.8 288.4,-90.7 589.4,-223.2 589.4,-686.3 0,-466.3 -378,-658.8 -682.27,-658.8 -371.51,0 -644.21,219.8 -788.12,545.7"
         style="fill:#231f20;fill-opacity:1;fill-rule:nonzero;stroke:none"
         transform="matrix(0.13333333,0,0,-0.13333333,0,4032.6667)" />
      <path
         id="path23"
         d="m 10888.4,10410.4 325.9,121.2 c 91,-204.7 257.6,-318.3 462.2,-318.3 197.1,0 333.7,136.3 333.7,318.3 0,288.9 -333.4,333.5 -613.9,447.1 -128.8,53.2 -416.9,182 -416.9,538.1 0,424.7 287.8,583.2 674.4,583.2 303.2,0 507.9,-174.4 614,-439.5 l -303.2,-91 c -34,85.3 -157.4,189.5 -318.3,189.5 -308.1,0 -334.3,-164.4 -334.3,-218.4 0,-202 174.2,-241.9 457.4,-330.8 288.4,-90.7 589.4,-223.2 589.4,-686.3 0,-466.3 -378,-658.8 -682.3,-658.8 -371.5,0 -644.2,219.8 -788.1,545.7"
         style="fill:#231f20;fill-opacity:1;fill-rule:nonzero;stroke:none"
         transform="matrix(0.13333333,0,0,-0.13333333,0,4032.6667)" />
      <path
         id="path24"
         d="m 12726.1,12062.5 h 345.6 v -2160 h -345.6 v 2160"
         style="fill:#231f20;fill-opacity:1;fill-rule:nonzero;stroke:none"
         transform="matrix(0.13333333,0,0,-0.13333333,0,4032.6667)" />
      <path
         id="path25"
         d="M 15897.6,11365.1 V 9902.5 h -340.7 v 2160 h 340.7 l 788.4,-1379.4 v 1379.4 h 341.3 v -2160 h -303.2 l -826.5,1462.6"
         style="fill:#231f20;fill-opacity:1;fill-rule:nonzero;stroke:none"
         transform="matrix(0.13333333,0,0,-0.13333333,0,4032.6667)" />
      <path
         id="path26"
         d="m 4927.38,6032.5 -684.44,2160 h 357.47 l 463.86,-1439.9 456.29,1439.9 h 365.03 l -691.99,-2160 h -266.22"
         style="fill:#231f20;fill-opacity:1;fill-rule:nonzero;stroke:none"
         transform="matrix(0.13333333,0,0,-0.13333333,0,4032.6667)" />
      <path
         id="path27"
         d="m 6209.68,8192.5 h 1271.68 v -341 H 6550.42 V 7320.9 H 7178.7 V 6972.4 H 6550.42 V 6381.1 H 7549.4 V 6032.5 H 6209.68 v 2160"
         style="fill:#231f20;fill-opacity:1;fill-rule:nonzero;stroke:none"
         transform="matrix(0.13333333,0,0,-0.13333333,0,4032.6667)" />
      <path
         id="path28"
         d="m 9046.08,6972.4 h -788.66 v -939.9 h -340.73 v 2160 h 340.73 v -871.6 h 788.39 v 871.6 h 341.27 v -2160 h -341 v 939.9"
         style="fill:#231f20;fill-opacity:1;fill-rule:nonzero;stroke:none"
         transform="matrix(0.13333333,0,0,-0.13333333,0,4032.6667)" />
      <path
         id="path29"
         d="m 9905.58,8192.5 h 345.62 v -2160 h -345.62 v 2160"
         style="fill:#231f20;fill-opacity:1;fill-rule:nonzero;stroke:none"
         transform="matrix(0.13333333,0,0,-0.13333333,0,4032.6667)" />
      <path
         id="path30"
         d="m 10726.4,7116.3 c 0,303.7 61,1113.7 795.7,1113.7 313.2,0 526.5,-127.4 674.7,-439.5 l -318.3,-136.4 c -110.5,158.8 -165.6,227.4 -356.2,227.4 -451.9,0 -447.1,-629.9 -447.1,-765.5 0,-133.9 -8.4,-773.3 462.2,-773.3 165,0 259.8,99.7 333.5,250.3 l 325.9,-121.2 c -121.5,-300.5 -325.6,-477.1 -652.1,-477.1 -777.3,0 -818.3,858.6 -818.3,1121.6"
         style="fill:#231f20;fill-opacity:1;fill-rule:nonzero;stroke:none"
         transform="matrix(0.13333333,0,0,-0.13333333,0,4032.6667)" />
      <path
         id="path31"
         d="m 12672.1,8192.5 h 340.7 V 6350.8 h 999 v -318.3 h -1339.7 v 2160"
         style="fill:#231f20;fill-opacity:1;fill-rule:nonzero;stroke:none"
         transform="matrix(0.13333333,0,0,-0.13333333,0,4032.6667)" />
      <path
         id="path32"
         d="m 14335.9,8192.5 h 1271.6 v -341 h -930.9 v -530.6 h 628.3 v -348.5 h -628.3 v -591.3 h 999 v -348.6 h -1339.7 v 2160"
         style="fill:#231f20;fill-opacity:1;fill-rule:nonzero;stroke:none"
         transform="matrix(0.13333333,0,0,-0.13333333,0,4032.6667)" />
      <path
         id="path33"
         d="m 15891.7,6540.4 325.9,121.2 c 90.9,-204.7 257.5,-318.3 462.2,-318.3 197.1,0 333.7,136.3 333.7,318.3 0,288.9 -333.4,333.5 -614,447.1 -128.8,53.2 -416.8,182 -416.8,538.1 0,424.7 287.8,583.2 674.4,583.2 303.2,0 507.9,-174.4 614,-439.5 l -303.2,-91 c -34,85.3 -157.4,189.5 -318.4,189.5 -308,0 -334.2,-164.4 -334.2,-218.4 0,-202 174.1,-241.9 457.4,-330.8 288.3,-90.7 589.4,-223.2 589.4,-686.3 0,-466.3 -378,-658.8 -682.3,-658.8 -371.5,0 -644.2,219.8 -788.1,545.7"
         style="fill:#231f20;fill-opacity:1;fill-rule:nonzero;stroke:none"
         transform="matrix(0.13333333,0,0,-0.13333333,0,4032.6667)" />
      <path
         id="path34"
         d="m 5161.09,3117.5 h 434.41 l -213.56,606.1 z m 556.17,-348.6 h -678.21 l -213.56,-606.4 h -365.83 l 747.05,2160 h 343.16 l 746.78,-2160 h -365.83 l -213.56,606.4"
         style="fill:#231f20;fill-opacity:1;fill-rule:nonzero;stroke:none"
         transform="matrix(0.13333333,0,0,-0.13333333,0,4032.6667)" />
      <path
         id="path35"
         d="m 6620.75,4322.5 h 340.73 V 2480.8 h 998.95 V 2162.5 H 6620.75 v 2160"
         style="fill:#231f20;fill-opacity:1;fill-rule:nonzero;stroke:none"
         transform="matrix(0.13333333,0,0,-0.13333333,0,4032.6667)" />
      <path
         id="path36"
         d="m 8284.49,4322.5 h 340.73 V 2480.8 h 998.95 V 2162.5 H 8284.49 v 2160"
         style="fill:#231f20;fill-opacity:1;fill-rule:nonzero;stroke:none"
         transform="matrix(0.13333333,0,0,-0.13333333,0,4032.6667)" />
      <path
         id="path37"
         d="m 13020.8,2162.5 -342.3,1387 -334.6,-1387 h -304.2 l -319.2,2160 h 349.7 l 167.4,-1137 273.5,1137 h 334.8 l 281,-1137 167.4,1137 h 349.6 l -319.4,-2160 h -303.7"
         style="fill:#231f20;fill-opacity:1;fill-rule:nonzero;stroke:none"
         transform="matrix(0.13333333,0,0,-0.13333333,0,4032.6667)" />
      <path
         id="path38"
         d="m 13968,4322.5 h 1271.7 v -341 h -930.9 v -530.6 h 628.2 v -348.5 h -628.2 v -591.3 h 998.9 V 2162.5 H 13968 v 2160"
         style="fill:#231f20;fill-opacity:1;fill-rule:nonzero;stroke:none"
         transform="matrix(0.13333333,0,0,-0.13333333,0,4032.6667)" />
      <path
         id="path39"
         d="m 16402.3,3981.5 h -386.6 V 2511.3 h 362.6 c 314.3,0 417.4,380.7 417.4,787.4 0,193.3 -55.1,682.8 -393.4,682.8 z m -727.3,-1819 v 2160 h 779.2 c 545.1,0 691.1,-717.9 691.1,-1031.4 0,-810.3 -416.6,-1128.6 -689.8,-1128.6 H 15675"
         style="fill:#231f20;fill-opacity:1;fill-rule:nonzero;stroke:none"
         transform="matrix(0.13333333,0,0,-0.13333333,0,4032.6667)" />
      <path
         id="path40"
         d="m 10514.3,14083 c 232.8,0 421.8,220.6 421.8,769.5 0,548.9 -189,769.5 -421.8,769.5 -232.7,0 -421.7,-220.3 -421.7,-769.5 0,-548.9 189,-769.5 421.7,-769.5 z m 763.6,769.5 c 0,-77.5 16.4,-1117.8 -767.4,-1117.8 -783.77,0 -767.3,1040.3 -767.3,1117.8 0,77.5 -16.47,1117.5 767.3,1117.5 783.8,0 767.4,-1040 767.4,-1117.5"
         style="fill:#231f20;fill-opacity:1;fill-rule:nonzero;stroke:none"
         transform="matrix(0.13333333,0,0,-0.13333333,0,4032.6667)" />
      <path
         id="path41"
         d="m 14318,10213 c 232.8,0 421.8,220.6 421.8,769.5 0,548.9 -189,769.5 -421.8,769.5 -232.7,0 -421.7,-220.3 -421.7,-769.5 0,-548.9 189,-769.5 421.7,-769.5 z m 763.6,769.5 c 0,-77.5 16.4,-1117.8 -767.4,-1117.8 -783.8,0 -767.3,1040.3 -767.3,1117.8 0,77.5 -16.5,1117.5 767.3,1117.5 783.8,0 767.4,-1040 767.4,-1117.5"
         style="fill:#231f20;fill-opacity:1;fill-rule:nonzero;stroke:none"
         transform="matrix(0.13333333,0,0,-0.13333333,0,4032.6667)" />
      <path
         id="path42"
         d="m 10676.1,2473 c 232.8,0 421.8,220.6 421.8,769.5 0,548.9 -189,769.5 -421.8,769.5 -232.7,0 -421.7,-220.3 -421.7,-769.5 0,-548.9 189,-769.5 421.7,-769.5 z m 763.6,769.5 c 0,-77.5 16.5,-1117.8 -767.3,-1117.8 -783.85,0 -767.39,1040.3 -767.39,1117.8 0,77.5 -16.46,1117.5 767.39,1117.5 783.8,0 767.3,-1040 767.3,-1117.5"
         style="fill:#231f20;fill-opacity:1;fill-rule:nonzero;stroke:none"
         transform="matrix(0.13333333,0,0,-0.13333333,0,4032.6667)" />
    </g>
  </g>
</svg>
