<?xml version="1.0" encoding="UTF-8" standalone="no"?>
<!-- Created with Inkscape (http://www.inkscape.org/) -->

<svg
   version="1.1"
   id="svg1"
   width="4608.6665"
   height="4608.6665"
   viewBox="0 0 4608.6665 4608.6665"
   sodipodi:docname="tmpkew4r8cg.pdf"
   xmlns:inkscape="http://www.inkscape.org/namespaces/inkscape"
   xmlns:sodipodi="http://sodipodi.sourceforge.net/DTD/sodipodi-0.dtd"
   xmlns="http://www.w3.org/2000/svg"
   xmlns:svg="http://www.w3.org/2000/svg">
  <defs
     id="defs1" />
  <sodipodi:namedview
     id="namedview1"
     pagecolor="#ffffff"
     bordercolor="#000000"
     borderopacity="0.25"
     inkscape:showpageshadow="2"
     inkscape:pageopacity="0.0"
     inkscape:pagecheckerboard="0"
     inkscape:deskcolor="#d1d1d1">
    <inkscape:page
       x="0"
       y="0"
       inkscape:label="1"
       id="page1"
       width="4608.6665"
       height="4608.6665"
       margin="0"
       bleed="0" />
  </sodipodi:namedview>
  <g
     id="g1"
     inkscape:groupmode="layer"
     inkscape:label="1">
    <g
       id="group-R5">
      <path
         id="path2"
         d="M 2162.5,1.20313 C 1585.21,1.20313 1042.47,226.102 634.27,634.301 226.059,1042.5 1.25,1585.2 1.25,2162.5 v 30240 c 0,577.3 224.809,1120 633.02,1528.2 408.2,408.2 950.94,633.1 1528.23,633.1 h 30240 c 577.3,0 1120,-224.9 1528.2,-633.1 408.2,-408.2 633.1,-950.9 633.1,-1528.2 v -30240 c 0,-577.3 -224.9,-1120 -633.1,-1528.199 C 33522.5,226.102 32979.8,1.20313 32402.5,1.20313 h -30240"
         style="fill:#ffffff;fill-opacity:1;fill-rule:nonzero;stroke:none"
         transform="matrix(0.13333333,0,0,-0.13333333,0,4608.6667)" />
      <path
         id="path3"
         d="m 32402.5,34565 h -30240 c -291.94,0 -575.14,-57.2 -841.75,-169.9 -257.5,-109 -488.77,-264.9 -687.367,-463.5 C 434.781,33733 278.859,33501.8 169.941,33244.3 57.1758,32977.6 0,32694.4 0,32402.5 V 2162.5 C 0,1870.6 57.1758,1587.4 169.941,1320.8 278.859,1063.2 434.781,832 633.383,633.402 831.98,434.801 1063.25,278.898 1320.75,169.898 1587.36,57.1992 1870.56,0 2162.5,0 h 30240 c 291.9,0 575.1,57.1992 841.7,169.898 257.6,109 488.8,264.903 687.4,463.504 198.6,198.598 354.5,429.798 463.5,687.398 112.7,266.6 169.9,549.8 169.9,841.7 v 30240 c 0,291.9 -57.2,575.1 -169.9,841.8 -109,257.5 -264.9,488.7 -463.5,687.3 -198.6,198.6 -429.8,354.5 -687.4,463.5 -266.6,112.7 -549.8,169.9 -841.7,169.9 z m 0,-2.5 c 1192.9,0 2160,-967.1 2160,-2160 v -30240 c 0,-1192.898 -967.1,-2160 -2160,-2160 H 2162.5 C 969.563,2.5 2.5,969.602 2.5,2162.5 v 30240 c 0,1192.9 967.063,2160 2160,2160 h 30240"
         style="fill:#231f20;fill-opacity:1;fill-rule:nonzero;stroke:none"
         transform="matrix(0.13333333,0,0,-0.13333333,0,4608.6667)" />
      <path
         id="path4"
         d="m 2162.5,542.5 c -893.27,0 -1620,726.7 -1620,1620 v 30240 c 0,893.3 726.73,1620 1620,1620 h 30240 c 893.3,0 1620,-726.7 1620,-1620 v -30240 c 0,-893.3 -726.7,-1620 -1620,-1620 h -30240"
         style="fill:#231f20;fill-opacity:1;fill-rule:nonzero;stroke:none"
         transform="matrix(0.13333333,0,0,-0.13333333,0,4608.6667)" />
      <path
         id="path5"
         d="m 2162.5,1442.5 c -397.01,0 -720,323 -720,720 v 30240 c 0,397 322.99,720 720,720 h 30240 c 397,0 720,-323 720,-720 v -30240 c 0,-397 -323,-720 -720,-720 h -30240"
         style="fill:#ffffff;fill-opacity:1;fill-rule:nonzero;stroke:none"
         transform="matrix(0.13333333,0,0,-0.13333333,0,4608.6667)" />
      <path
         id="path6"
         d="m 10060,20522.6 c 0,3982.5 3240,7222.5 7222.5,7222.5 3982.5,0 7222.5,-3240 7222.5,-7222.5 v 0 -11880 h -3645 v 11880 c 0,1972.6 -1604.9,3577.5 -3577.5,3577.5 -1972.6,0 -3577.5,-1604.9 -3577.5,-3577.5 v -5425.4 h -3645 v 5425.4 0"
         style="fill:#231f20;fill-opacity:1;fill-rule:nonzero;stroke:none"
         transform="matrix(0.13333333,0,0,-0.13333333,0,4608.6667)" />
      <path
         id="path7"
         d="m 15964.4,16515.7 c 56.7,16.5 113.9,24.3 170.1,24.4 335.5,0 607.6,-272.1 607.6,-607.6 0.1,-118.4 -34.3,-238 -106.2,-343.1 L 11882.1,8642.5 7128.24,15589.4 c -71.89,105.1 -106.28,224.7 -106.17,343.1 0,335.5 272.02,607.6 607.53,607.6 56.22,-0.1 113.39,-7.9 170.09,-24.4 l 4082.41,-1190.7 4082.3,1190.7"
         style="fill:#231f20;fill-opacity:1;fill-rule:nonzero;stroke:none"
         transform="matrix(0.13333333,0,0,-0.13333333,0,4608.6667)" />
      <path
         id="path8"
         d="m 5042.5,17282.5 c 0,2861.1 981.75,5492.8 2626.61,7576.9 L 24859.4,7669.1 C 22775.3,6024.2 20143.6,5042.5 17282.5,5042.5 c -6760,0 -12240,5480 -12240,12240 z m 24480,0 c 0,-2861.1 -981.7,-5492.8 -2626.6,-7576.9 L 9705.58,26895.9 c 2084.12,1644.9 4715.82,2626.6 7576.92,2626.6 6760,0 12240,-5480 12240,-12240 z m -12240,15120 c -8350.55,0 -15120,-6769.4 -15120,-15120 0,-8350.5 6769.45,-15120 15120,-15120 8350.5,0 15120,6769.5 15120,15120 0,8350.6 -6769.5,15120 -15120,15120"
         style="fill:#bf2519;fill-opacity:1;fill-rule:nonzero;stroke:none"
         transform="matrix(0.13333333,0,0,-0.13333333,0,4608.6667)" />
    </g>
  </g>
</svg>
