<?xml version="1.0" standalone="no"?>
<svg width="9936px" height="4752px" viewBox="0 -3960 9936 4752 " xmlns="http://www.w3.org/2000/svg" xmlns:xlink="http://www.w3.org/1999/xlink">
<title>generated by pstoedit</title>
<!-- generated by pstoedit version:4.02 -->
<g xml:space='preserve'>
<clipPath id="clippath1"> 	<path d="
	M 0 -3960.5 
	L 0 792 
	L 9936.5 792 
	L 9936.5 -3960.5 
	Z 
	" style="clip-rule:nonzero"/>
</clipPath>
<g style="clip-path:url(#clippath1)"> 
<g fill="#ffffff" fill-rule="nonzero" stroke-width="0" stroke-linejoin="miter" stroke-linecap="butt" stroke-miterlimit="10" >
	<path d="
	M 9936.25 359.75 
	C 9936.25 598.34 9742.84 791.75 9504.25 791.75 
	L 432.25 791.75 
	C 193.664 791.75 0.25 598.34 0.25 359.75 
	L 0.25 -3528.25 
	C 0.25 -3766.84 193.664 -3960.25 432.25 -3960.25 
	L 9504.25 -3960.25 
	C 9742.84 -3960.25 9936.25 -3766.84 9936.25 -3528.25 
	Z 
	"/>
</g>
<g stroke="#7f7f7f" fill="none" stroke-width="0.5" stroke-linejoin="miter" stroke-linecap="butt" stroke-miterlimit="4" >
	<path d="
	M 9936.25 359.75 
	C 9936.25 598.34 9742.84 791.75 9504.25 791.75 
	L 432.25 791.75 
	C 193.664 791.75 0.25 598.34 0.25 359.75 
	L 0.25 -3528.25 
	C 0.25 -3766.84 193.664 -3960.25 432.25 -3960.25 
	L 9504.25 -3960.25 
	C 9742.84 -3960.25 9936.25 -3766.84 9936.25 -3528.25 
	Z 
	"/>
</g>
<g fill="#7f7f7f" fill-rule="nonzero" stroke-width="0" stroke-linejoin="miter" stroke-linecap="butt" stroke-miterlimit="4" >
	<path d="
	M 9783.25 359.75 
	C 9783.25 434.27 9754.23 504.34 9701.53 557.031 
	C 9648.84 609.73 9578.77 638.75 9504.25 638.75 
	L 432.25 638.75 
	C 357.727 638.75 287.664 609.73 234.969 557.031 
	C 182.27 504.34 153.25 434.27 153.25 359.75 
	L 153.25 -3528.25 
	C 153.25 -3602.77 182.27 -3672.84 234.969 -3725.53 
	C 287.664 -3778.23 357.727 -3807.25 432.25 -3807.25 
	L 9504.25 -3807.25 
	C 9578.77 -3807.25 9648.84 -3778.23 9701.53 -3725.53 
	C 9754.23 -3672.84 9783.25 -3602.77 9783.25 -3528.25 
	Z 
	M 9777.9 -3801.9 
	C 9704.81 -3875 9607.62 -3915.25 9504.25 -3915.25 
	L 432.25 -3915.25 
	C 328.879 -3915.25 231.695 -3875 158.602 -3801.9 
	C 85.5039 -3728.8 45.25 -3631.62 45.25 -3528.25 
	L 45.25 359.75 
	C 45.25 463.121 85.5039 560.309 158.602 633.398 
	C 231.695 706.5 328.879 746.75 432.25 746.75 
	L 9504.25 746.75 
	C 9607.62 746.75 9704.81 706.5 9777.9 633.398 
	C 9850.99 560.309 9891.25 463.121 9891.25 359.75 
	L 9891.25 -3528.25 
	C 9891.25 -3631.62 9850.99 -3728.8 9777.9 -3801.9 
	Z 
	"/>
</g>
<g fill="#7f7f7f" fill-rule="nonzero" stroke-width="0" stroke-linejoin="miter" stroke-linecap="butt" stroke-miterlimit="4" >
	<path d="
	M 3373.93 -2376.25 
	L 3373.93 -2689.51 
	L 3049.16 -2689.51 
	L 3049.16 -2376.25 
	L 2919.76 -2376.25 
	L 2919.76 -3096.25 
	L 3049.16 -3096.25 
	L 3049.16 -2818.36 
	L 3373.93 -2818.36 
	L 3373.93 -3096.25 
	L 3503.32 -3096.25 
	L 3503.32 -2376.25 
	Z 
	"/>
</g>
<g fill="#7f7f7f" fill-rule="nonzero" stroke-width="0" stroke-linejoin="miter" stroke-linecap="butt" stroke-miterlimit="4" >
	<path d="
	M 4041.53 -2980.04 
	C 3932.66 -2980.04 3866.83 -2889.09 3866.83 -2737.52 
	C 3866.83 -2583.41 3932.66 -2492.46 4041.53 -2492.46 
	C 4178.27 -2492.46 4211.18 -2626.36 4211.18 -2737.52 
	C 4211.18 -2889.09 4150.41 -2980.04 4041.53 -2980.04 
	Z 
	M 4041.53 -2363.62 
	C 3828.84 -2363.62 3735.16 -2555.62 3735.16 -2737.52 
	C 3735.16 -2967.41 3851.63 -3108.89 4041.53 -3108.89 
	C 4218.78 -3108.89 4340.32 -2959.83 4340.32 -2740.04 
	C 4340.32 -2515.2 4223.84 -2363.62 4041.53 -2363.62 
	Z 
	"/>
</g>
<g fill="#7f7f7f" fill-rule="nonzero" stroke-width="0" stroke-linejoin="miter" stroke-linecap="butt" stroke-miterlimit="4" >
	<path d="
	M 4880.09 -2376.25 
	L 4743.05 -2376.25 
	L 4481.44 -3096.25 
	L 4618.47 -3096.25 
	L 4812.82 -2570.78 
	L 5007.17 -3096.25 
	L 5144.2 -3096.25 
	Z 
	"/>
</g>
<g fill="#7f7f7f" fill-rule="nonzero" stroke-width="0" stroke-linejoin="miter" stroke-linecap="butt" stroke-miterlimit="4" >
	<path d="
	M 5864.2 -2376.25 
	C 5864.2 -2462.15 5881.96 -2525.3 5922.55 -2596.04 
	C 5985.98 -2702.15 6077.33 -2767.83 6209.26 -2803.2 
	C 6290.45 -2825.94 6318.36 -2851.2 6318.36 -2894.15 
	C 6318.36 -2947.2 6267.62 -2977.52 6176.28 -2977.52 
	C 6082.4 -2977.52 6013.89 -2954.78 5953 -2899.2 
	L 5864.2 -2997.73 
	C 5947.93 -3070.99 6051.95 -3108.89 6168.66 -3108.89 
	C 6338.66 -3108.89 6447.76 -3025.52 6447.76 -2894.15 
	C 6447.76 -2833.51 6422.39 -2777.94 6374.18 -2737.52 
	C 6351.34 -2719.83 6318.36 -2702.15 6267.62 -2686.99 
	C 6171.2 -2659.2 6143.29 -2646.57 6100.16 -2608.67 
	C 6067.18 -2580.88 6046.88 -2553.09 6021.51 -2505.09 
	L 6447.76 -2505.09 
	L 6447.76 -2376.25 
	Z 
	"/>
</g>
<g fill="#7f7f7f" fill-rule="nonzero" stroke-width="0" stroke-linejoin="miter" stroke-linecap="butt" stroke-miterlimit="4" >
	<path d="
	M 6847.18 -2679.4 
	L 6847.18 -2515.19 
	L 6718.12 -2515.19 
	L 6718.12 -2679.4 
	L 6548.56 -2679.4 
	L 6548.56 -2808.25 
	L 6718.12 -2808.25 
	L 6718.12 -2969.93 
	L 6847.18 -2969.93 
	L 6847.18 -2808.25 
	L 7016.74 -2808.25 
	L 7016.74 -2679.4 
	Z 
	"/>
</g>
<g fill="#7f7f7f" fill-rule="nonzero" stroke-width="0" stroke-linejoin="miter" stroke-linecap="butt" stroke-miterlimit="4" >
	<path d="
	M 4104.08 -1528.92 
	C 4085.84 -1559.24 4063.56 -1571.37 4029.11 -1573.39 
	C 3984.54 -1575.41 3956.18 -1553.18 3935.92 -1502.65 
	C 3921.73 -1468.29 3913.63 -1415.74 3913.63 -1367.24 
	C 3913.63 -1306.61 3925.79 -1243.96 3948.07 -1207.58 
	C 3966.31 -1177.26 3990.62 -1163.11 4027.09 -1163.11 
	C 4069.63 -1163.11 4095.97 -1185.35 4116.23 -1235.87 
	C 4128.39 -1266.19 4138.52 -1322.78 4138.52 -1367.24 
	C 4138.52 -1431.91 4126.36 -1490.52 4104.08 -1528.92 
	Z 
	M 4166.88 -1134.82 
	C 4134.46 -1090.35 4087.86 -1070.14 4027.09 -1070.14 
	C 3946.05 -1070.14 3895.4 -1102.48 3860.95 -1173.22 
	C 3836.65 -1221.72 3820.44 -1298.52 3820.44 -1367.24 
	C 3820.44 -1462.23 3844.75 -1547.11 3883.24 -1601.68 
	C 3917.68 -1646.15 3964.28 -1666.36 4031.14 -1666.36 
	C 4104.08 -1666.36 4154.72 -1634.02 4191.19 -1563.28 
	C 4215.5 -1512.76 4229.69 -1440 4229.69 -1367.24 
	C 4229.69 -1276.29 4207.4 -1185.35 4166.88 -1134.82 
	Z 
	"/>
</g>
<g fill="#7f7f7f" fill-rule="nonzero" stroke-width="0" stroke-linejoin="miter" stroke-linecap="butt" stroke-miterlimit="4" >
	<path d="
	M 3577.23 -1080.25 
	L 3577.23 -1413.72 
	L 3443.58 -1080.25 
	L 3309.92 -1413.72 
	L 3309.92 -1080.25 
	L 3218.8 -1080.25 
	L 3218.8 -1656.25 
	L 3309.92 -1656.25 
	L 3443.58 -1332.88 
	L 3577.23 -1656.25 
	L 3668.36 -1656.25 
	L 3668.36 -1080.25 
	Z 
	"/>
</g>
<g fill="#7f7f7f" fill-rule="nonzero" stroke-width="0" stroke-linejoin="miter" stroke-linecap="butt" stroke-miterlimit="4" >
	<path d="
	M 4634.39 -1555.2 
	C 4620.25 -1563.28 4612.16 -1565.3 4581.84 -1565.3 
	L 4472.7 -1565.3 
	L 4472.7 -1423.83 
	L 4581.84 -1423.83 
	C 4610.14 -1423.83 4620.25 -1425.85 4634.39 -1433.93 
	C 4656.63 -1446.06 4670.78 -1470.31 4670.78 -1494.56 
	C 4670.78 -1518.82 4656.63 -1543.07 4634.39 -1555.2 
	Z 
	M 4674.82 -1080.25 
	L 4581.84 -1330.86 
	L 4472.7 -1330.86 
	L 4472.7 -1080.25 
	L 4381.75 -1080.25 
	L 4381.75 -1656.25 
	L 4571.73 -1656.25 
	C 4616.2 -1656.25 4646.52 -1652.21 4674.82 -1638.06 
	C 4725.35 -1613.81 4761.73 -1553.18 4761.73 -1494.56 
	C 4761.73 -1433.93 4725.35 -1373.3 4672.8 -1349.05 
	L 4773.86 -1080.25 
	Z 
	"/>
</g>
<g fill="#7f7f7f" fill-rule="nonzero" stroke-width="0" stroke-linejoin="miter" stroke-linecap="butt" stroke-miterlimit="4" >
	<path d="
	M 4891.36 -1080.25 
	L 4891.36 -1656.25 
	L 5230.46 -1656.25 
	L 5230.46 -1565.3 
	L 4982.19 -1565.3 
	L 4982.19 -1423.83 
	L 5149.72 -1423.83 
	L 5149.72 -1330.86 
	L 4982.19 -1330.86 
	L 4982.19 -1173.22 
	L 5248.63 -1173.22 
	L 5248.63 -1080.25 
	Z 
	"/>
</g>
<g fill="#7f7f7f" fill-rule="nonzero" stroke-width="0" stroke-linejoin="miter" stroke-linecap="butt" stroke-miterlimit="4" >
	<path d="
	M 1973.01 -1528.92 
	C 1954.78 -1559.24 1932.49 -1571.37 1898.05 -1573.39 
	C 1853.48 -1575.41 1825.11 -1553.18 1804.86 -1502.65 
	C 1790.67 -1468.29 1782.57 -1415.75 1782.57 -1367.24 
	C 1782.57 -1306.61 1794.72 -1243.96 1817.01 -1207.58 
	C 1835.25 -1177.26 1859.56 -1163.11 1896.02 -1163.11 
	C 1938.57 -1163.11 1964.91 -1185.35 1985.17 -1235.87 
	C 1997.33 -1266.19 2007.45 -1322.78 2007.45 -1367.24 
	C 2007.45 -1431.91 1995.3 -1490.52 1973.01 -1528.92 
	Z 
	M 2035.82 -1134.82 
	C 2003.4 -1090.35 1956.8 -1070.14 1896.02 -1070.14 
	C 1814.99 -1070.14 1764.33 -1102.48 1729.89 -1173.22 
	C 1705.58 -1221.73 1689.38 -1298.52 1689.38 -1367.24 
	C 1689.38 -1462.23 1713.68 -1547.11 1752.18 -1601.68 
	C 1786.62 -1646.15 1833.22 -1666.36 1900.08 -1666.36 
	C 1973.01 -1666.36 2023.66 -1634.02 2060.13 -1563.28 
	C 2084.44 -1512.76 2098.62 -1440 2098.62 -1367.24 
	C 2098.62 -1276.29 2076.34 -1185.35 2035.82 -1134.82 
	Z 
	"/>
</g>
<g fill="#7f7f7f" fill-rule="nonzero" stroke-width="0" stroke-linejoin="miter" stroke-linecap="butt" stroke-miterlimit="4" >
	<path d="
	M 2503.33 -1555.2 
	C 2489.18 -1563.28 2481.1 -1565.3 2450.78 -1565.3 
	L 2341.63 -1565.3 
	L 2341.63 -1423.83 
	L 2450.78 -1423.83 
	C 2479.08 -1423.83 2489.18 -1425.85 2503.33 -1433.93 
	C 2525.57 -1446.06 2539.71 -1470.31 2539.71 -1494.56 
	C 2539.71 -1518.82 2525.57 -1543.07 2503.33 -1555.2 
	Z 
	M 2543.75 -1080.25 
	L 2450.78 -1330.86 
	L 2341.63 -1330.86 
	L 2341.63 -1080.25 
	L 2250.68 -1080.25 
	L 2250.68 -1656.25 
	L 2440.67 -1656.25 
	C 2485.14 -1656.25 2515.46 -1652.21 2543.75 -1638.06 
	C 2594.28 -1613.81 2630.67 -1553.18 2630.67 -1494.56 
	C 2630.67 -1433.93 2594.28 -1373.3 2541.73 -1349.05 
	L 2642.8 -1080.25 
	Z 
	"/>
</g>
<g fill="#7f7f7f" fill-rule="nonzero" stroke-width="0" stroke-linejoin="miter" stroke-linecap="butt" stroke-miterlimit="4" >
	<path d="
	M 8624.77 -1080.25 
	L 8404.46 -1470.31 
	L 8404.46 -1080.25 
	L 8313.51 -1080.25 
	L 8313.51 -1656.25 
	L 8404.46 -1656.25 
	L 8614.66 -1288.42 
	L 8614.66 -1656.25 
	L 8705.62 -1656.25 
	L 8705.62 -1080.25 
	Z 
	"/>
</g>
<g fill="#7f7f7f" fill-rule="nonzero" stroke-width="0" stroke-linejoin="miter" stroke-linecap="butt" stroke-miterlimit="4" >
	<path d="
	M 8035.84 -1528.92 
	C 8017.6 -1559.24 7995.32 -1571.37 7960.88 -1573.39 
	C 7916.3 -1575.41 7887.94 -1553.18 7867.68 -1502.65 
	C 7853.49 -1468.29 7845.39 -1415.75 7845.39 -1367.24 
	C 7845.39 -1306.61 7857.55 -1243.96 7879.83 -1207.58 
	C 7898.07 -1177.26 7922.38 -1163.11 7958.85 -1163.11 
	C 8001.39 -1163.11 8027.73 -1185.35 8047.99 -1235.87 
	C 8060.15 -1266.19 8070.28 -1322.78 8070.28 -1367.24 
	C 8070.28 -1431.91 8058.12 -1490.52 8035.84 -1528.92 
	Z 
	M 8098.64 -1134.82 
	C 8066.22 -1090.35 8019.63 -1070.14 7958.85 -1070.14 
	C 7877.81 -1070.14 7827.16 -1102.48 7792.71 -1173.22 
	C 7768.4 -1221.73 7752.2 -1298.52 7752.2 -1367.24 
	C 7752.2 -1462.23 7776.51 -1547.11 7815 -1601.68 
	C 7849.44 -1646.15 7896.04 -1666.36 7962.9 -1666.36 
	C 8035.84 -1666.36 8086.48 -1634.02 8122.95 -1563.28 
	C 8147.26 -1512.76 8161.44 -1440 8161.44 -1367.24 
	C 8161.44 -1276.29 8139.16 -1185.35 8098.64 -1134.82 
	Z 
	"/>
</g>
<g fill="#7f7f7f" fill-rule="nonzero" stroke-width="0" stroke-linejoin="miter" stroke-linecap="butt" stroke-miterlimit="4" >
	<path d="
	M 6089.4 -1555.2 
	C 6073.23 -1563.28 6063.13 -1565.31 6034.83 -1565.31 
	L 5915.58 -1565.31 
	L 5915.58 -1423.83 
	L 6034.83 -1423.83 
	C 6063.13 -1423.83 6073.23 -1425.85 6089.4 -1433.93 
	C 6109.61 -1444.04 6123.76 -1470.31 6123.76 -1494.57 
	C 6123.76 -1518.82 6109.61 -1543.07 6089.4 -1555.2 
	Z 
	M 6127.8 -1351.07 
	C 6101.53 -1338.95 6067.17 -1330.86 6022.7 -1330.86 
	L 5915.58 -1330.86 
	L 5915.58 -1080.25 
	L 5824.63 -1080.25 
	L 5824.63 -1656.25 
	L 6022.7 -1656.25 
	C 6069.19 -1656.25 6099.5 -1652.21 6127.8 -1638.06 
	C 6178.33 -1613.81 6216.73 -1553.18 6216.73 -1494.57 
	C 6216.73 -1433.93 6178.33 -1373.3 6127.8 -1351.07 
	Z 
	"/>
</g>
<g fill="#7f7f7f" fill-rule="nonzero" stroke-width="0" stroke-linejoin="miter" stroke-linecap="butt" stroke-miterlimit="4" >
	<path d="
	M 7047.82 -1555.2 
	C 7033.67 -1563.28 7025.59 -1565.3 6995.27 -1565.3 
	L 6886.13 -1565.3 
	L 6886.13 -1423.83 
	L 6995.27 -1423.83 
	C 7023.57 -1423.83 7033.67 -1425.85 7047.82 -1433.93 
	C 7070.06 -1446.06 7084.21 -1470.31 7084.21 -1494.56 
	C 7084.21 -1518.82 7070.06 -1543.07 7047.82 -1555.2 
	Z 
	M 7088.25 -1080.25 
	L 6995.27 -1330.86 
	L 6886.13 -1330.86 
	L 6886.13 -1080.25 
	L 6795.17 -1080.25 
	L 6795.17 -1656.25 
	L 6985.16 -1656.25 
	C 7029.63 -1656.25 7059.95 -1652.21 7088.25 -1638.06 
	C 7138.78 -1613.81 7175.16 -1553.18 7175.16 -1494.56 
	C 7175.16 -1433.93 7138.78 -1373.3 7086.23 -1349.05 
	L 7187.29 -1080.25 
	Z 
	"/>
</g>
<g fill="#7f7f7f" fill-rule="nonzero" stroke-width="0" stroke-linejoin="miter" stroke-linecap="butt" stroke-miterlimit="4" >
	<path d="
	M 7591.92 -1114.61 
	C 7559.59 -1086.31 7515.12 -1070.14 7466.61 -1070.14 
	C 7367.57 -1070.14 7294.81 -1128.75 7256.41 -1215.66 
	L 7343.32 -1248 
	C 7367.57 -1193.43 7412.04 -1163.11 7466.61 -1163.11 
	C 7519.16 -1163.11 7555.54 -1199.49 7555.54 -1248 
	C 7555.54 -1324.8 7466.61 -1336.92 7391.83 -1367.24 
	C 7357.47 -1381.39 7280.66 -1415.74 7280.66 -1510.73 
	C 7280.66 -1623.91 7357.47 -1666.35 7460.55 -1666.35 
	C 7541.39 -1666.35 7595.97 -1619.87 7624.26 -1549.13 
	L 7543.42 -1524.88 
	C 7543.42 -1524.88 7523.21 -1573.39 7458.53 -1575.41 
	C 7416.08 -1577.43 7365.55 -1561.26 7369.59 -1508.71 
	C 7377.68 -1401.6 7648.52 -1472.33 7648.52 -1245.98 
	C 7648.52 -1193.43 7628.31 -1146.95 7591.92 -1114.61 
	Z 
	"/>
</g>
<g fill="#7f7f7f" fill-rule="nonzero" stroke-width="0" stroke-linejoin="miter" stroke-linecap="butt" stroke-miterlimit="4" >
	<path d="
	M 9158.64 -1114.61 
	C 9126.31 -1086.31 9081.84 -1070.14 9033.33 -1070.14 
	C 8934.29 -1070.14 8861.53 -1128.75 8823.13 -1215.66 
	L 8910.04 -1248 
	C 8934.29 -1193.43 8978.76 -1163.11 9033.33 -1163.11 
	C 9085.88 -1163.11 9122.26 -1199.49 9122.26 -1248 
	C 9122.26 -1324.8 9033.33 -1336.92 8958.54 -1367.24 
	C 8924.19 -1381.39 8847.38 -1415.74 8847.38 -1510.73 
	C 8847.38 -1623.91 8924.19 -1666.36 9027.27 -1666.36 
	C 9108.11 -1666.36 9162.69 -1619.87 9190.98 -1549.13 
	L 9110.14 -1524.88 
	C 9110.14 -1524.88 9089.92 -1573.39 9025.25 -1575.41 
	C 8982.8 -1577.43 8932.27 -1561.26 8936.31 -1508.71 
	C 8944.4 -1401.6 9215.24 -1472.33 9215.24 -1245.98 
	C 9215.24 -1193.43 9195.02 -1146.95 9158.64 -1114.61 
	Z 
	"/>
</g>
<g fill="#7f7f7f" fill-rule="nonzero" stroke-width="0" stroke-linejoin="miter" stroke-linecap="butt" stroke-miterlimit="4" >
	<path d="
	M 6320.41 -1080.25 
	L 6320.41 -1656.25 
	L 6659.5 -1656.25 
	L 6659.5 -1565.3 
	L 6411.23 -1565.3 
	L 6411.23 -1423.83 
	L 6578.77 -1423.83 
	L 6578.77 -1330.86 
	L 6411.23 -1330.86 
	L 6411.23 -1173.22 
	L 6677.67 -1173.22 
	L 6677.67 -1080.25 
	Z 
	"/>
</g>
<g fill="#7f7f7f" fill-rule="nonzero" stroke-width="0" stroke-linejoin="miter" stroke-linecap="butt" stroke-miterlimit="4" >
	<path d="
	M 1022.41 -1349.91 
	C 944.844 -1301.69 873.504 -1280.36 830.406 -1173.22 
	L 1113.38 -1173.22 
	L 1113.38 -1080.25 
	L 721.262 -1080.25 
	C 723.285 -1146.95 737.207 -1201.65 769.77 -1256.08 
	C 870.84 -1425.02 1022.42 -1406.36 1022.42 -1496.59 
	C 1022.42 -1539.03 973.914 -1573.39 917.32 -1573.39 
	C 858.703 -1573.39 822.324 -1545.09 812.215 -1492.55 
	L 721.262 -1512.76 
	C 741.473 -1607.75 816.258 -1666.36 917.32 -1666.36 
	C 1026.46 -1666.36 1113.38 -1589.56 1113.38 -1494.57 
	C 1113.38 -1425.69 1073.75 -1381.83 1022.41 -1349.91 
	Z 
	"/>
</g>
<g fill="#7f7f7f" fill-rule="nonzero" stroke-width="0" stroke-linejoin="miter" stroke-linecap="butt" stroke-miterlimit="4" >
	<path d="
	M 2673.14 -403.2 
	C 2656.97 -411.28 2646.87 -413.3 2618.57 -413.3 
	L 2499.32 -413.3 
	L 2499.32 -271.83 
	L 2618.57 -271.83 
	C 2646.87 -271.83 2656.97 -273.85 2673.14 -281.93 
	C 2693.35 -292.04 2707.5 -318.31 2707.5 -342.57 
	C 2707.5 -366.82 2693.35 -391.07 2673.14 -403.2 
	Z 
	M 2711.55 -199.07 
	C 2685.27 -186.941 2650.91 -178.859 2606.44 -178.859 
	L 2499.32 -178.859 
	L 2499.32 71.75 
	L 2408.37 71.75 
	L 2408.37 -504.25 
	L 2606.44 -504.25 
	C 2652.93 -504.25 2683.25 -500.21 2711.55 -486.06 
	C 2762.07 -461.81 2800.48 -401.17 2800.48 -342.57 
	C 2800.48 -281.93 2762.07 -221.3 2711.55 -199.07 
	Z 
	"/>
</g>
<g fill="#7f7f7f" fill-rule="nonzero" stroke-width="0" stroke-linejoin="miter" stroke-linecap="butt" stroke-miterlimit="4" >
	<path d="
	M 3631.56 -403.2 
	C 3617.42 -411.28 3609.33 -413.3 3579.01 -413.3 
	L 3469.87 -413.3 
	L 3469.87 -271.83 
	L 3579.01 -271.83 
	C 3607.31 -271.83 3617.42 -273.85 3631.56 -281.93 
	C 3653.8 -294.06 3667.95 -318.31 3667.95 -342.56 
	C 3667.95 -366.82 3653.8 -391.07 3631.56 -403.2 
	Z 
	M 3671.99 71.75 
	L 3579.01 -178.859 
	L 3469.87 -178.859 
	L 3469.87 71.75 
	L 3378.92 71.75 
	L 3378.92 -504.25 
	L 3568.91 -504.25 
	C 3613.37 -504.25 3643.69 -500.21 3671.99 -486.06 
	C 3722.52 -461.8 3758.9 -401.18 3758.9 -342.56 
	C 3758.9 -281.93 3722.52 -221.3 3669.97 -197.051 
	L 3771.03 71.75 
	Z 
	"/>
</g>
<g fill="#7f7f7f" fill-rule="nonzero" stroke-width="0" stroke-linejoin="miter" stroke-linecap="butt" stroke-miterlimit="4" >
	<path d="
	M 2904.15 71.75 
	L 2904.15 -504.25 
	L 3243.25 -504.25 
	L 3243.25 -413.3 
	L 2994.98 -413.3 
	L 2994.98 -271.83 
	L 3162.51 -271.83 
	L 3162.51 -178.859 
	L 2994.98 -178.859 
	L 2994.98 -21.219 
	L 3261.41 -21.219 
	L 3261.41 71.75 
	Z 
	"/>
</g>
<g fill="#7f7f7f" fill-rule="nonzero" stroke-width="0" stroke-linejoin="miter" stroke-linecap="butt" stroke-miterlimit="4" >
	<path d="
	M 5921.53 71.75 
	L 5921.53 -504.25 
	L 6013.69 -504.25 
	L 6013.69 71.75 
	Z 
	"/>
</g>
<g fill="#7f7f7f" fill-rule="nonzero" stroke-width="0" stroke-linejoin="miter" stroke-linecap="butt" stroke-miterlimit="4" >
	<path d="
	M 6709.93 71.75 
	L 6709.93 -504.25 
	L 6800.76 -504.25 
	L 6800.76 -13.129 
	L 7067.19 -13.129 
	L 7067.19 71.75 
	Z 
	"/>
</g>
<g fill="#7f7f7f" fill-rule="nonzero" stroke-width="0" stroke-linejoin="miter" stroke-linecap="butt" stroke-miterlimit="4" >
	<path d="
	M 4600.53 71.75 
	L 4529.55 71.75 
	L 4347.03 -504.25 
	L 4442.35 -504.25 
	L 4566.05 -120.25 
	L 4687.73 -504.25 
	L 4785.08 -504.25 
	Z 
	"/>
</g>
<g fill="#7f7f7f" fill-rule="nonzero" stroke-width="0" stroke-linejoin="miter" stroke-linecap="butt" stroke-miterlimit="4" >
	<path d="
	M 5664.69 71.75 
	L 5664.69 -178.859 
	L 5454.48 -178.859 
	L 5454.48 71.75 
	L 5363.53 71.75 
	L 5363.53 -504.25 
	L 5454.48 -504.25 
	L 5454.48 -271.83 
	L 5664.69 -271.83 
	L 5664.69 -504.25 
	L 5755.64 -504.25 
	L 5755.64 71.75 
	Z 
	"/>
</g>
<g fill="#7f7f7f" fill-rule="nonzero" stroke-width="0" stroke-linejoin="miter" stroke-linecap="butt" stroke-miterlimit="4" >
	<path d="
	M 4888.76 71.75 
	L 4888.76 -504.25 
	L 5227.85 -504.25 
	L 5227.85 -413.3 
	L 4979.59 -413.3 
	L 4979.59 -271.83 
	L 5147.12 -271.83 
	L 5147.12 -178.859 
	L 4979.59 -178.859 
	L 4979.59 -21.219 
	L 5246.02 -21.219 
	L 5246.02 71.75 
	Z 
	"/>
</g>
<g fill="#7f7f7f" fill-rule="nonzero" stroke-width="0" stroke-linejoin="miter" stroke-linecap="butt" stroke-miterlimit="4" >
	<path d="
	M 7170.87 71.75 
	L 7170.87 -504.25 
	L 7509.97 -504.25 
	L 7509.97 -413.3 
	L 7261.7 -413.3 
	L 7261.7 -271.83 
	L 7429.23 -271.83 
	L 7429.23 -178.859 
	L 7261.7 -178.859 
	L 7261.7 -21.219 
	L 7528.13 -21.219 
	L 7528.13 71.75 
	Z 
	"/>
</g>
<g fill="#7f7f7f" fill-rule="nonzero" stroke-width="0" stroke-linejoin="miter" stroke-linecap="butt" stroke-miterlimit="4" >
	<path d="
	M 6384.04 81.859 
	C 6299.15 81.859 6244.58 49.52 6208.19 -21.219 
	C 6181.92 -71.738 6165.75 -144.5 6165.75 -217.26 
	C 6165.75 -308.21 6190 -399.15 6230.43 -449.68 
	C 6264.79 -492.12 6313.3 -514.35 6377.97 -514.35 
	C 6464.88 -514.35 6519.46 -477.97 6557.86 -397.13 
	L 6472.97 -360.75 
	C 6440.63 -409.26 6422.44 -421.39 6377.97 -421.39 
	C 6331.49 -421.39 6301.17 -401.17 6280.96 -350.65 
	C 6266.81 -316.29 6258.72 -265.76 6258.72 -217.26 
	C 6258.72 -154.609 6272.87 -91.949 6295.11 -55.57 
	C 6315.32 -25.262 6341.59 -11.109 6382.02 -11.109 
	C 6420.42 -11.109 6448.71 -31.32 6470.95 -77.809 
	L 6557.86 -45.469 
	C 6523.5 39.422 6466.91 81.859 6384.04 81.859 
	Z 
	"/>
</g>
</g >
</g>
</svg>
