<?xml version="1.0" encoding="UTF-8"?>
<svg id="For_Sheets" xmlns="http://www.w3.org/2000/svg" version="1.1" viewBox="0 0 5184 1296">
  <!-- Generator: Adobe Illustrator 29.1.0, SVG Export Plug-In . SVG Version: 2.1.0 Build 142)  -->
  <defs>
    <style>
      .st0 {
        fill: #231f20;
      }

      .st1 {
        fill: #fff;
      }
    </style>
  </defs>
  <g>
    <rect class="st1" x="-.1" y="-.1" width="5184.2" height="1296.2" rx="108.1" ry="108.1"/>
    <path class="st0" d="M5076,0c59.6,0,108,48.4,108,108v1080c0,59.6-48.4,108-108,108H108c-59.6,0-108-48.4-108-108V108C0,48.4,48.4,0,108,0h4968M5076-.2H108C79.1-.2,51.9,11,31.5,31.5,11,51.9-.2,79.1-.2,108v1080c0,28.9,11.3,56.1,31.7,76.5,20.4,20.4,47.6,31.7,76.5,31.7h4968c28.9,0,56.1-11.3,76.5-31.7,20.4-20.4,31.7-47.6,31.7-76.5V108c0-28.9-11.3-56.1-31.7-76.5-20.4-20.4-47.6-31.7-76.5-31.7h0Z"/>
  </g>
  <path class="st0" d="M5076,27H108c-44.7,0-81,36.3-81,81v1080c0,44.7,36.3,81,81,81h4968c44.7,0,81-36.3,81-81V108c0-44.7-36.3-81-81-81ZM5112,1188c0,19.8-16.2,36-36,36H108c-19.9,0-36-16.2-36-36V108c0-19.9,16.1-36,36-36h4968c19.8,0,36,16.1,36,36v1080Z"/>
  <path class="st0" d="M656.1,840.7c60.4,0,130.2-42.6,130.2-132.5v-348.3h103.5v343.6c0,141.5-97.4,242.5-233.4,242.5s-233.4-101-233.4-242.5v-343.6h103.5v347.7c0,86.8,64.7,133.1,129.6,133.1Z"/>
  <g>
    <path class="st0" d="M1689.1,936h-91.4v-495.1h-131.9v-80.9h357.3v80.9h-134v495.1Z"/>
    <path class="st0" d="M1909.5,729.9v-369.9h90.9v369.9c0,74.8,42.5,123.3,105.1,123.3s105.1-48.5,105.1-123.3v-369.9h91v369.9c0,182.2-139.8,216.2-196.1,216.2s-196.1-30.2-196.1-216.2Z"/>
    <path class="st0" d="M2530.7,685.3v250.7h-90.9V360h208.4c132,0,171.6,105.6,171.6,161.8s-7.9,105.6-89.4,144.2l101.5,270h-99.1l-93-250.7h-109.2ZM2645.1,592.4c72.3,0,83.7-52.1,83.7-70.7s-18.8-70.8-79.3-70.8h-118.8v141.5h114.4Z"/>
    <path class="st0" d="M3020.7,546v390h-90.9V360h90.9l210.2,367.8v-367.8h91v576h-80.9l-220.4-390Z"/>
  </g>
  <g>
    <rect class="st0" x="3826" y="540" width="553.5" height="216"/>
    <path class="st0" d="M4295.4,406.1c-1-3.4-1.4-6.7-1.4-10.1,0-19.9,16.1-36,36-36,7,0,14.1,2,20.3,6.3l411.7,281.7-411.7,281.7c-6.2,4.3-13.3,6.3-20.3,6.3-19.9,0-36-16.1-36-36,0-3.3.5-6.7,1.4-10.1l70.6-241.9-70.6-241.9Z"/>
  </g>
</svg>