<?xml version="1.0" encoding="UTF-8"?>
<svg id="For_Sheets" xmlns="http://www.w3.org/2000/svg" version="1.1" viewBox="0 0 4320 1728">
  <!-- Generator: Adobe Illustrator 29.1.0, SVG Export Plug-In . SVG Version: 2.1.0 Build 142)  -->
  <defs>
    <style>
      .st0 {
        fill: #231f20;
      }

      .st1 {
        fill: #fff;
      }
    </style>
  </defs>
  <g>
    <rect class="st1" x="-.1" y="-.1" width="4320.2" height="1728.2" rx="135.1" ry="135.1"/>
    <path class="st0" d="M4185,0c74.6,0,135,60.4,135,135v1458c0,74.6-60.4,135-135,135H135c-74.6,0-135-60.4-135-135V135C0,60.4,60.4,0,135,0h4050M4185-.2H135C98.9-.2,64.9,13.8,39.4,39.4,13.8,64.9-.2,98.9-.2,135v1458c0,36.1,14.1,70.1,39.6,95.6,25.5,25.5,59.5,39.6,95.6,39.6h4050c36.1,0,70.1-14.1,95.6-39.6,25.5-25.5,39.6-59.5,39.6-95.6V135c0-36.1-14.1-70.1-39.6-95.6-25.5-25.5-59.5-39.6-95.6-39.6h0Z"/>
  </g>
  <path class="st0" d="M4185,1683H135c-49.7,0-90-40.3-90-90V135c0-49.7,40.3-90,90-90h4050c49.7,0,90,40.3,90,90v1458c0,49.7-40.3,90-90,90ZM4221,1593V135c0-19.9-16.1-36-36-36H135c-19.9,0-36,16.1-36,36v1458c0,19.9,16.1,36,36,36h4050c19.9,0,36-16.1,36-36Z"/>
  <path class="st0" d="M968.2,630.5v-306.4h62v310.7c0,40.7,23.8,68.3,60.5,68.3s57.5-27.3,57.5-68.3v-310.7h62.1v307.4c0,98.3-75.9,132.2-119.6,132.2s-122.5-26-122.5-133.1Z"/>
  <g>
    <path class="st0" d="M1826.1,637.8h-92.7l-28.9,118.2h-62.3l107.9-432h60.9l107.8,432h-62.3l-30.4-118.2ZM1748.6,577.2h62.3l-31.9-124.3-30.4,124.3Z"/>
    <path class="st0" d="M2041.3,466.5v289.5h-62v-432h62l118,259.2v-259.2h62v432h-46.9l-133.2-289.5Z"/>
    <path class="st0" d="M2316.4,756v-432h123.3c26.4,0,118.7,1.3,118.7,215.2s-85.3,216.8-113.6,216.8h-128.4ZM2426.9,384.6h-48.4v310.7h43.1c50.5,0,76.4-22.1,76.4-153.1s-37.9-157.6-71.1-157.6Z"/>
  </g>
  <g>
    <path class="st0" d="M2990.4,324h62.3v374.4h158.1v57.6h-220.4v-432Z"/>
    <path class="st0" d="M3271.4,324h203.7v60.6h-141.4v109.1h89.6v59.1h-89.6v142.5h158.1v60.6h-220.4v-432Z"/>
    <path class="st0" d="M3627.5,493.8h86.7v59.1h-86.7v203.1h-62.3v-432h220.4v60.6h-158.1v109.1Z"/>
    <path class="st0" d="M3952.9,756h-62.3v-374.4h-79.1v-57.6h220.4v57.6h-79.1v374.4Z"/>
  </g>
  <g>
    <path class="st0" d="M1895.9,1404h-62.3v-374.4h-79.1v-57.6h220.4v57.6h-79.1v374.4Z"/>
    <path class="st0" d="M2035.5,1278.4v-306.4h62v310.7c0,40.7,23.8,68.3,60.5,68.3s57.5-27.3,57.5-68.3v-310.7h62v307.4c0,98.3-75.9,132.2-119.6,132.2s-122.5-26-122.5-133.1Z"/>
    <path class="st0" d="M2493.6,1200.9h-59v203.1h-62v-432h128.6c67.8,0,113.5,45.5,113.5,115.2s-21.2,89.4-62,104.6l62,212.2h-63.4l-57.5-203.1ZM2434.6,1032.6v109.1h63.5c36.4,0,56-19.7,56-54.6s-22.7-54.5-55.9-54.5h-63.6Z"/>
    <path class="st0" d="M2750,1114.5v289.5h-62v-432h62l118,259.2v-259.2h62v432h-46.9l-133.2-289.5Z"/>
    <path class="st0" d="M3127.5,1129.4c47.2,29.6,118.1,71.2,118.1,156.4s-53.3,125.8-120.3,125.8-121.8-64.4-121.8-134.9h60.9c0,36.8,18.3,74.3,60.9,74.3s60.9-30.3,60.9-65.2c0-93.9-161.3-88.5-161.3-209.2s48.7-112.1,111.1-112.1,108.1,47,109.6,112.2h-59.4c-1.5-30.3-22.8-50-50.2-50s-51.7,21.2-51.7,49.9,14.9,35,43.3,52.8Z"/>
  </g>
  <g>
    <rect class="st0" x="428.2" y="574.9" width="162" height="865.1"/>
    <path class="st0" d="M327.8,637.9c-2.5.7-5.1,1.1-7.6,1.1-14.9,0-27-12.1-27-27,0-5.3,1.5-10.6,4.7-15.2l211.3-308.8,211.3,308.8c3.2,4.7,4.7,10,4.7,15.2,0,14.9-12.1,27-27,27-2.5,0-5-.3-7.6-1.1l-181.4-52.9-181.4,52.9Z"/>
  </g>
</svg>