<?xml version="1.0" encoding="UTF-8"?>
<svg id="For_Sheets" xmlns="http://www.w3.org/2000/svg" version="1.1" viewBox="0 0 1728 864">
  <!-- Generator: Adobe Illustrator 29.1.0, SVG Export Plug-In . SVG Version: 2.1.0 Build 142)  -->
  <defs>
    <style>
      .st0 {
        fill: #231f20;
      }

      .st1 {
        fill: #fff;
      }
    </style>
  </defs>
  <g>
    <rect class="st1" x="-.1" y="-.1" width="1728.2" height="864.2" rx="108.1" ry="108.1"/>
    <path class="st0" d="M1620,0c59.6,0,108,48.4,108,108v648c0,59.6-48.4,108-108,108H108c-59.6,0-108-48.4-108-108V108C0,48.4,48.4,0,108,0h1512M1620-.2H108C79.1-.2,51.9,11,31.5,31.5,11,51.9-.2,79.1-.2,108v648c0,28.9,11.3,56.1,31.7,76.5,20.4,20.4,47.6,31.7,76.5,31.7h1512c28.9,0,56.1-11.3,76.5-31.7,20.4-20.4,31.7-47.6,31.7-76.5V108c0-28.9-11.3-56.1-31.7-76.5-20.4-20.4-47.6-31.7-76.5-31.7h0Z"/>
  </g>
  <rect class="st0" x="27" y="27" width="1674" height="810" rx="81" ry="81"/>
  <rect class="st1" x="72" y="72" width="1584" height="720" rx="36" ry="36"/>
  <g>
    <path class="st0" d="M839.7,247c40.6,0,67.2,25.2,71.1,69.4h-47c-1.3-15.2-10.2-22.8-22.9-22.8-22.6,0-38.1,19.3-38.1,139s15.4,139,38.1,139,22.9-22.1,22.9-44.2h47c0,23.5,3.3,90.9-71.1,90.9s-83.8-49.8-83.8-185.7,34.6-185.6,83.8-185.6Z"/>
    <path class="st0" d="M1076.7,516h-59.3l-20.2,96h-46.7l73.3-360h46.7l74.5,360h-48l-20.2-96ZM1027.5,469.3h39.1l-18.9-94.8-20.2,94.8Z"/>
    <path class="st0" d="M1281.8,535c0-90.2-99.3-118.6-99.3-203.4s30-84.6,73-84.6,67.9,27.8,73,84.6h-46.8c-1.3-27.8-8.5-39.2-25-39.2s-27.5,15.2-27.5,39.2,15.2,36.9,36.9,62.8c15.9,19,62.4,65.2,62.4,140.6s-22.6,83.3-75.6,83.3-76.8-32.8-79.3-96h46.8c0,13.8,2,49.3,32.6,49.3s28.8-13.9,28.8-36.6Z"/>
    <path class="st0" d="M1495.8,444h-64.2v168h-45.4V252h45.4v145.3h64.3v-145.3h45.3v360h-45.4v-168Z"/>
  </g>
  <g>
    <path class="st0" d="M232.3,398.6v213.5h-45.4V252h45.4l64.2,179.4v-179.4h45.3v360h-39.1l-70.4-213.5Z"/>
    <path class="st0" d="M493.1,618.3c-80.8,0-82.9-101.6-82.9-185.7s2-185.6,82.9-185.6,82.9,101.6,82.9,185.6-2,185.7-82.9,185.7ZM457.7,432.7c0,62.9.9,139,35.4,139s35.4-76,35.4-139-.9-139-35.4-139-35.4,76-35.4,139Z"/>
  </g>
</svg>