<?xml version="1.0" encoding="UTF-8" standalone="no"?>
<!-- Created with Inkscape (http://www.inkscape.org/) -->

<svg
   version="1.1"
   id="svg1"
   width="2880.6667"
   height="1152.6667"
   viewBox="0 0 2880.6667 1152.6667"
   sodipodi:docname="tmprqfh7bo7.pdf"
   xmlns:inkscape="http://www.inkscape.org/namespaces/inkscape"
   xmlns:sodipodi="http://sodipodi.sourceforge.net/DTD/sodipodi-0.dtd"
   xmlns="http://www.w3.org/2000/svg"
   xmlns:svg="http://www.w3.org/2000/svg">
  <defs
     id="defs1" />
  <sodipodi:namedview
     id="namedview1"
     pagecolor="#ffffff"
     bordercolor="#000000"
     borderopacity="0.25"
     inkscape:showpageshadow="2"
     inkscape:pageopacity="0.0"
     inkscape:pagecheckerboard="0"
     inkscape:deskcolor="#d1d1d1">
    <inkscape:page
       x="0"
       y="0"
       inkscape:label="1"
       id="page1"
       width="2880.6667"
       height="1152.6667"
       margin="0"
       bleed="0" />
  </sodipodi:namedview>
  <g
     id="g1"
     inkscape:groupmode="layer"
     inkscape:label="1">
    <g
       id="group-R5">
      <path
         id="path2"
         d="m 21602.5,1082.5 c 0,-596.461 -483.5,-1080 -1080,-1080 H 1082.5 C 486.031,2.5 2.5,486.039 2.5,1082.5 v 6480 c 0,596.47 483.531,1080 1080,1080 h 19440 c 596.5,0 1080,-483.53 1080,-1080 v -6480"
         style="fill:#ffffff;fill-opacity:1;fill-rule:nonzero;stroke:none"
         transform="matrix(0.13333333,0,0,-0.13333333,0,1152.6667)" />
      <path
         id="path3"
         d="m 21602.5,1082.5 c 0,-596.461 -483.5,-1080 -1080,-1080 H 1082.5 C 486.031,2.5 2.5,486.039 2.5,1082.5 v 6480 c 0,596.47 483.531,1080 1080,1080 h 19440 c 596.5,0 1080,-483.53 1080,-1080 z"
         style="fill:none;stroke:#231f20;stroke-width:5;stroke-linecap:butt;stroke-linejoin:miter;stroke-miterlimit:4;stroke-dasharray:none;stroke-opacity:1"
         transform="matrix(0.13333333,0,0,-0.13333333,0,1152.6667)" />
      <path
         id="path4"
         d="m 1082.5,272.5 c -446.637,0 -810,363.371 -810,810 v 6480 c 0,446.64 363.363,810 810,810 h 19440 c 446.6,0 810,-363.36 810,-810 v -6480 c 0,-446.629 -363.4,-810 -810,-810 h -19440"
         style="fill:#231f20;fill-opacity:1;fill-rule:nonzero;stroke:none"
         transform="matrix(0.13333333,0,0,-0.13333333,0,1152.6667)" />
      <path
         id="path5"
         d="m 1082.5,722.5 c -198.5,0 -360,161.488 -360,360 v 6480 c 0,198.5 161.5,360 360,360 h 19440 c 198.5,0 360,-161.5 360,-360 v -6480 c 0,-198.512 -161.5,-360 -360,-360 h -19440"
         style="fill:#ffffff;fill-opacity:1;fill-rule:nonzero;stroke:none"
         transform="matrix(0.13333333,0,0,-0.13333333,0,1152.6667)" />
      <path
         id="path6"
         d="m 16006.4,5542.71 c -196.8,106.11 -423.8,166.74 -650.9,166.74 H 14700 V 2935.56 h 655.5 c 227.1,0 439,60.62 620.7,166.73 454.1,242.52 666,636.63 666,1227.79 0,576 -211.9,970.11 -635.8,1212.63 z m 363.3,-3122.52 c -302.7,-166.75 -666,-257.7 -1014.2,-257.7 H 13912.9 V 6482.5 h 1442.6 c 363.3,0 711.5,-90.95 1029.4,-272.84 666,-378.95 1029.4,-1030.73 1029.4,-1879.58 0,-864.01 -363.4,-1530.95 -1044.6,-1909.89"
         style="fill:#231f20;fill-opacity:1;fill-rule:nonzero;stroke:none"
         transform="matrix(0.13333333,0,0,-0.13333333,0,1152.6667)" />
      <path
         id="path7"
         d="M 4190.74,2162.49 V 6482.5 H 7354.69 V 5709.45 H 4981.74 V 4906.08 H 6274.68 V 4117.87 H 4981.74 V 2935.56 h 2449 v -773.07 h -3240"
         style="fill:#231f20;fill-opacity:1;fill-rule:nonzero;stroke:none"
         transform="matrix(0.13333333,0,0,-0.13333333,0,1152.6667)" />
      <path
         id="path8"
         d="M 11558.3,2162.49 9487.9,5133.45 V 2162.49 h -761.16 v 4320.02 h 761.16 l 1994.2,-2849.69 v 2849.69 h 746 V 2162.49 h -669.8"
         style="fill:#231f20;fill-opacity:1;fill-rule:nonzero;stroke:none"
         transform="matrix(0.13333333,0,0,-0.13333333,0,1152.6667)" />
    </g>
  </g>
</svg>
