<?xml version="1.0" encoding="UTF-8" standalone="no"?>
<!-- Created with Inkscape (http://www.inkscape.org/) -->

<svg
   version="1.1"
   id="svg1"
   width="4608.6665"
   height="6336.6665"
   viewBox="0 0 4608.6665 6336.6665"
   sodipodi:docname="tmpu5iqp296.pdf"
   xmlns:inkscape="http://www.inkscape.org/namespaces/inkscape"
   xmlns:sodipodi="http://sodipodi.sourceforge.net/DTD/sodipodi-0.dtd"
   xmlns="http://www.w3.org/2000/svg"
   xmlns:svg="http://www.w3.org/2000/svg">
  <defs
     id="defs1" />
  <sodipodi:namedview
     id="namedview1"
     pagecolor="#ffffff"
     bordercolor="#000000"
     borderopacity="0.25"
     inkscape:showpageshadow="2"
     inkscape:pageopacity="0.0"
     inkscape:pagecheckerboard="0"
     inkscape:deskcolor="#d1d1d1">
    <inkscape:page
       x="0"
       y="0"
       inkscape:label="1"
       id="page1"
       width="4608.6665"
       height="6336.6665"
       margin="0"
       bleed="0" />
  </sodipodi:namedview>
  <g
     id="g1"
     inkscape:groupmode="layer"
     inkscape:label="1">
    <g
       id="group-R5">
      <path
         id="path2"
         d="m 34562.5,2162.5 c 0,-1192.898 -967.1,-2160 -2160,-2160 H 2162.5 C 969.566,2.5 2.5,969.602 2.5,2162.5 v 43200 c 0,1192.9 967.066,2160 2160,2160 h 30240 c 1192.9,0 2160,-967.1 2160,-2160 v -43200"
         style="fill:#ffffff;fill-opacity:1;fill-rule:nonzero;stroke:none"
         transform="matrix(0.13333333,0,0,-0.13333333,0,6336.6667)" />
      <path
         id="path3"
         d="m 34562.5,2162.5 c 0,-1192.898 -967.1,-2160 -2160,-2160 H 2162.5 C 969.566,2.5 2.5,969.602 2.5,2162.5 v 43200 c 0,1192.9 967.066,2160 2160,2160 h 30240 c 1192.9,0 2160,-967.1 2160,-2160 z"
         style="fill:none;stroke:#231f20;stroke-width:5;stroke-linecap:butt;stroke-linejoin:miter;stroke-miterlimit:4;stroke-dasharray:none;stroke-opacity:1"
         transform="matrix(0.13333333,0,0,-0.13333333,0,6336.6667)" />
      <path
         id="path4"
         d="m 33122.5,2162.5 c 0,-397 -323,-720 -720,-720 h -30240 c -397.01,0 -720,323 -720,720 v 43200 c 0,397 322.99,720 720,720 h 30240 c 397,0 720,-323 720,-720 z m -720,44820 h -30240 c -893.27,0 -1620,-726.7 -1620,-1620 v -43200 c 0,-893.3 726.73,-1620 1620,-1620 h 30240 c 893.3,0 1620,726.7 1620,1620 v 43200 c 0,893.3 -726.7,1620 -1620,1620"
         style="fill:#231f20;fill-opacity:1;fill-rule:nonzero;stroke:none"
         transform="matrix(0.13333333,0,0,-0.13333333,0,6336.6667)" />
      <path
         id="path5"
         d="m 15666.2,15842.5 -2203.1,3900.6 v -3900.6 h -909.6 v 5760 h 909.6 l 2102,-3678.4 v 3678.4 h 909.5 v -5760 h -808.4"
         style="fill:#231f20;fill-opacity:1;fill-rule:nonzero;stroke:none"
         transform="matrix(0.13333333,0,0,-0.13333333,0,6336.6667)" />
      <path
         id="path6"
         d="m 25997.4,16193.1 c -323.4,-282.9 -768.1,-444.6 -1253.1,-444.6 -990.4,0 -1718,586.1 -2102.1,1455.1 l 869.1,323.4 c 242.6,-545.7 687.2,-848.8 1233,-848.8 525.5,0 889.3,363.8 889.3,848.8 0,768 -889.3,889.2 -1637.2,1192.4 -343.6,141.5 -1111.6,485.1 -1111.6,1435 0,1131.8 768,1556.2 1798.8,1556.2 808.5,0 1354.2,-464.9 1637.2,-1172.2 l -808.5,-242.5 c 0,0 -202.1,485 -848.9,505.2 -424.5,20.2 -929.8,-141.5 -889.3,-667 80.8,-1071.1 2789.2,-363.7 2789.2,-2627.3 0,-525.5 -202.1,-990.3 -565.9,-1313.7"
         style="fill:#231f20;fill-opacity:1;fill-rule:nonzero;stroke:none"
         transform="matrix(0.13333333,0,0,-0.13333333,0,6336.6667)" />
      <path
         id="path7"
         d="m 20383.6,20450.5 c -141.5,141.5 -343.6,242.5 -586.2,242.5 h -1030.8 v -3920.9 h 909.6 c 303.2,0 485,60.7 646.7,222.4 343.7,343.5 525.5,970.1 525.5,1738.1 0,768 -181.8,1414.7 -464.8,1717.9 z m 384,-4284.7 c -222.3,-202.1 -525.5,-303.1 -828.7,-323.3 -60.6,0 -181.9,0 -323.4,0 h -1758.4 v 5760 h 1859.5 c 586.1,0 808.5,-60.6 1111.6,-303.2 606.4,-525.5 950,-1434.9 950,-2566.7 0,-1152 -363.8,-2061.5 -1010.6,-2566.8"
         style="fill:#231f20;fill-opacity:1;fill-rule:nonzero;stroke:none"
         transform="matrix(0.13333333,0,0,-0.13333333,0,6336.6667)" />
      <path
         id="path8"
         d="m 8001.67,15842.5 v 5760 H 11392.6 V 20693 H 8909.95 v -1414.8 h 1675.35 v -929.6 H 8909.95 v -1576.5 h 2664.35 v -929.6 H 8001.67"
         style="fill:#231f20;fill-opacity:1;fill-rule:nonzero;stroke:none"
         transform="matrix(0.13333333,0,0,-0.13333333,0,6336.6667)" />
      <path
         id="path9"
         d="m 20797.6,25922.5 -2203.1,3900.6 V 25922.5 H 17685 v 5760 h 909.5 l 2102,-3678.3 v 3678.3 h 909.6 v -5760 h -808.5"
         style="fill:#231f20;fill-opacity:1;fill-rule:nonzero;stroke:none"
         transform="matrix(0.13333333,0,0,-0.13333333,0,6336.6667)" />
      <path
         id="path10"
         d="m 8003.86,25922.5 v 5760 h 908.27 v -4911.2 h 2664.37 v -848.8 H 8003.86"
         style="fill:#231f20;fill-opacity:1;fill-rule:nonzero;stroke:none"
         transform="matrix(0.13333333,0,0,-0.13333333,0,6336.6667)" />
      <path
         id="path11"
         d="m 22988.5,25922.5 v 5760 h 3391 V 30773 h -2482.7 v -1414.7 h 1675.3 v -929.7 h -1675.3 v -1576.4 h 2664.3 v -929.7 h -3572.6"
         style="fill:#231f20;fill-opacity:1;fill-rule:nonzero;stroke:none"
         transform="matrix(0.13333333,0,0,-0.13333333,0,6336.6667)" />
      <path
         id="path12"
         d="M 14381.7,30085.8 13792.2,28469 h 1158.7 z m 1463.6,-4163.3 -569.2,1616.8 H 13467 l -569.2,-1616.8 h -975.7 l 1992,5760 h 914.8 l 1992.1,-5760 h -975.7"
         style="fill:#231f20;fill-opacity:1;fill-rule:nonzero;stroke:none"
         transform="matrix(0.13333333,0,0,-0.13333333,0,6336.6667)" />
      <path
         id="path13"
         d="m 3770.24,36002.5 v 5760 H 6486.3 v -808.4 H 4601.26 v -1455.2 h 1195.9 v -788.2 h -1195.9 v -1899.8 h 2108.01 v -808.4 H 3770.24"
         style="fill:#231f20;fill-opacity:1;fill-rule:nonzero;stroke:none"
         transform="matrix(0.13333333,0,0,-0.13333333,0,6336.6667)" />
      <path
         id="path14"
         d="m 20019.2,36002.5 v 5760 h 2716.1 v -808.4 h -1885 v -1455.2 h 1195.9 v -788.2 h -1195.9 v -1899.8 h 2108 v -808.4 h -2939.1"
         style="fill:#231f20;fill-opacity:1;fill-rule:nonzero;stroke:none"
         transform="matrix(0.13333333,0,0,-0.13333333,0,6336.6667)" />
      <path
         id="path15"
         d="m 13107.9,40954.1 h -847.1 V 39317 h 847.1 c 484.1,0 746.3,303.2 746.3,828.6 0,485.1 -302.5,808.5 -746.3,808.5 z m 40.4,-2425.3 h -887.5 v -2526.3 h -826.9 v 5760 h 1714.4 c 907.6,0 1512.7,-646.7 1512.7,-1616.9 0,-1050.9 -544.6,-1616.8 -1512.7,-1616.8"
         style="fill:#231f20;fill-opacity:1;fill-rule:nonzero;stroke:none"
         transform="matrix(0.13333333,0,0,-0.13333333,0,6336.6667)" />
      <path
         id="path16"
         d="m 17487,40954.1 h -847.1 v -1455.2 h 847.1 c 484.1,0 746.3,262.8 746.3,727.6 0,444.6 -302.5,727.6 -746.3,727.6 z m 705.9,-4951.6 -766.4,2708.2 h -786.6 V 36002.5 H 15813 v 5760 h 1714.4 c 907.6,0 1512.6,-606.3 1512.6,-1536 0,-687.1 -282.3,-1192.4 -826.9,-1394.5 l 826.9,-2829.5 h -847.1"
         style="fill:#231f20;fill-opacity:1;fill-rule:nonzero;stroke:none"
         transform="matrix(0.13333333,0,0,-0.13333333,0,6336.6667)" />
      <path
         id="path17"
         d="m 29207.9,38662.5 c -249.3,161.5 -491.2,323.5 -645.7,432.2 -464.4,326.9 -710.4,768 -710.4,1273.3 0,828.6 649.5,1495.6 1481.6,1495.6 811.9,0 1441,-626.6 1461.4,-1495.6 h -791.6 c -20.3,404.2 -304.4,666.9 -669.8,666.9 -385.6,0 -690,-282.9 -690,-666.9 0,-283 121.8,-444.7 548,-687.2 1116.2,-646.7 1603.4,-1273.3 1603.4,-2101.9 0,-929.7 -710.4,-1677.5 -1603.4,-1677.5 -1014.8,0 -1623.7,848.9 -1623.7,1798.8 h 811.8 c 0,-485.1 243.6,-990.4 811.9,-990.4 446.5,0 811.8,404.3 811.8,869.1 0,360.9 -149.1,665 -795.3,1083.6"
         style="fill:#231f20;fill-opacity:1;fill-rule:nonzero;stroke:none"
         transform="matrix(0.13333333,0,0,-0.13333333,0,6336.6667)" />
      <path
         id="path18"
         d="m 25289.6,38662.6 c -249.2,161.4 -491.2,323.4 -645.6,432.1 -464.4,326.9 -710.4,768 -710.4,1273.3 0,828.6 649.5,1495.6 1481.6,1495.6 811.9,0 1441,-626.6 1461.3,-1495.6 H 26085 c -20.3,404.2 -304.5,666.9 -669.8,666.9 -385.6,0 -690.1,-282.9 -690.1,-666.9 0,-283 121.8,-444.6 548.1,-687.2 1116.2,-646.7 1603.3,-1273.2 1603.3,-2101.9 0,-929.7 -710.3,-1677.5 -1603.3,-1677.5 -1014.9,0 -1623.7,848.9 -1623.7,1798.8 h 811.8 c 0,-485.1 243.6,-990.3 811.9,-990.3 446.5,0 811.8,404.2 811.8,869 0,361 -149.2,665 -795.4,1083.7"
         style="fill:#231f20;fill-opacity:1;fill-rule:nonzero;stroke:none"
         transform="matrix(0.13333333,0,0,-0.13333333,0,6336.6667)" />
      <path
         id="path19"
         d="m 9731.78,36002.5 -814.34,1960.4 -814.31,-1960.4 H 7227.7 l 1262.2,2991.2 -1180.78,2768.8 h 875.43 l 732.89,-1738.1 732.91,1738.1 h 875.45 L 9365.33,38993.7 10627.5,36002.5 h -895.72"
         style="fill:#231f20;fill-opacity:1;fill-rule:nonzero;stroke:none"
         transform="matrix(0.13333333,0,0,-0.13333333,0,6336.6667)" />
      <path
         id="path20"
         d="m 27378.4,5762.5 v 5760 h 2716 V 10714 h -1885 V 9258.9 h 1195.9 V 8470.7 H 28209.4 V 6570.9 h 2108 v -808.4 h -2939"
         style="fill:#231f20;fill-opacity:1;fill-rule:nonzero;stroke:none"
         transform="matrix(0.13333333,0,0,-0.13333333,0,6336.6667)" />
      <path
         id="path21"
         d="m 21559.3,5762.4 v 5760.1 h 806.4 V 5762.4 h -806.4"
         style="fill:#231f20;fill-opacity:1;fill-rule:nonzero;stroke:none"
         transform="matrix(0.13333333,0,0,-0.13333333,0,6336.6667)" />
      <path
         id="path22"
         d="m 23632.9,5762.4 v 5760.1 h 831 V 6530.4 H 26572 v -768 h -2939.1"
         style="fill:#231f20;fill-opacity:1;fill-rule:nonzero;stroke:none"
         transform="matrix(0.13333333,0,0,-0.13333333,0,6336.6667)" />
      <path
         id="path23"
         d="M 19462.4,5762.4 V 8996.1 L 18389.8,5762.4 17317.3,8996.1 V 5762.4 h -829.7 v 5760.1 h 829.7 l 1072.5,-3233.7 1072.6,3233.7 h 829.7 V 5762.4 h -829.7"
         style="fill:#231f20;fill-opacity:1;fill-rule:nonzero;stroke:none"
         transform="matrix(0.13333333,0,0,-0.13333333,0,6336.6667)" />
      <path
         id="path24"
         d="m 11617.2,6869.4 c -367.7,-257 -729,-712 -941.8,-1294 -52.9,-144.6 -81.2,-242.5 -121.8,-444.6 h 2334 v -808.4 h -3227 c 40.57,788.2 101.47,1071.1 284.11,1576.4 243.59,606.3 547.99,1071.1 933.59,1434.9 142.1,121.3 263.9,222.4 730.7,545.7 385.6,262.7 487.1,404.2 487.1,687.2 0,444.6 -365.4,808.4 -811.8,808.4 -446.6,0 -811.9,-363.8 -811.9,-808.4 h -811.8 c 20.3,909.4 710.3,1616.8 1623.7,1616.8 892.9,0 1603.3,-727.6 1603.3,-1616.8 0,-919.2 -550.6,-1194.2 -1270.4,-1697.2"
         style="fill:#231f20;fill-opacity:1;fill-rule:nonzero;stroke:none"
         transform="matrix(0.13333333,0,0,-0.13333333,0,6336.6667)" />
      <path
         id="path25"
         d="M 9883.91,12962.4 4895.6,4322.4 h 931.17 l 4988.33,8640 h -931.19"
         style="fill:#231f20;fill-opacity:1;fill-rule:nonzero;stroke:none"
         transform="matrix(0.13333333,0,0,-0.13333333,0,6336.6667)" />
      <path
         id="path26"
         d="m 4616.63,7202.4 v 4729.2 H 4247.6 v 626.6 c 328.03,20.1 533.04,161.7 656.05,404.2 h 553.55 v -5760 h -840.57"
         style="fill:#231f20;fill-opacity:1;fill-rule:nonzero;stroke:none"
         transform="matrix(0.13333333,0,0,-0.13333333,0,6336.6667)" />
    </g>
  </g>
</svg>
