<?xml version="1.0" encoding="UTF-8" standalone="no"?>
<!-- Created with Inkscape (http://www.inkscape.org/) -->

<svg
   version="1.1"
   id="svg1"
   width="4608.6665"
   height="5760.6665"
   viewBox="0 0 4608.6665 5760.6665"
   sodipodi:docname="tmp2zotgce8.pdf"
   xmlns:inkscape="http://www.inkscape.org/namespaces/inkscape"
   xmlns:sodipodi="http://sodipodi.sourceforge.net/DTD/sodipodi-0.dtd"
   xmlns="http://www.w3.org/2000/svg"
   xmlns:svg="http://www.w3.org/2000/svg">
  <defs
     id="defs1" />
  <sodipodi:namedview
     id="namedview1"
     pagecolor="#ffffff"
     bordercolor="#000000"
     borderopacity="0.25"
     inkscape:showpageshadow="2"
     inkscape:pageopacity="0.0"
     inkscape:pagecheckerboard="0"
     inkscape:deskcolor="#d1d1d1">
    <inkscape:page
       x="0"
       y="0"
       inkscape:label="1"
       id="page1"
       width="4608.6665"
       height="5760.6665"
       margin="0"
       bleed="0" />
  </sodipodi:namedview>
  <g
     id="g1"
     inkscape:groupmode="layer"
     inkscape:label="1">
    <g
       id="group-R5">
      <path
         id="path2"
         d="M 2162.5,1.20313 C 1585.21,1.20313 1042.47,226.098 634.262,634.301 226.059,1042.5 1.25391,1585.2 1.25391,2162.5 v 38880 c 0,577.3 224.80509,1120 633.00809,1528.2 408.178,408.2 950.968,633 1528.218,633 0.03,0 -0.01,0 0.02,0 h 30240 c 577.3,0.1 1120,-224.8 1528.2,-633 408.2,-408.2 633.1,-950.9 633.1,-1528.2 v -38880 c 0,-577.3 -224.9,-1120 -633.1,-1528.199 C 33522.5,226.098 32979.8,1.20313 32402.5,1.20313 h -30240"
         style="fill:#ffffff;fill-opacity:1;fill-rule:nonzero;stroke:none"
         transform="matrix(0.13333333,0,0,-0.13333333,0,5760.6667)" />
      <path
         id="path3"
         d="m 32402.5,43205 h -30240 c -291.94,0 -575.14,-57.2 -841.74,-169.9 -257.51,-109 -488.78,-264.9 -687.381,-463.5 C 434.785,42373 278.855,42141.8 169.941,41884.2 57.1797,41617.6 0,41334.4 0,41042.5 V 2162.5 C 0,1870.6 57.1797,1587.4 169.941,1320.8 278.855,1063.2 434.785,832 633.379,633.398 831.98,434.801 1063.25,278.902 1320.76,169.902 1587.36,57.2031 1870.56,0 2162.5,0 h 30240 c 291.9,0 575.1,57.2031 841.7,169.902 257.6,109 488.8,264.899 687.4,463.496 198.6,198.602 354.5,429.802 463.5,687.402 112.7,266.6 169.9,549.8 169.9,841.7 v 38880 c 0,291.9 -57.2,575.1 -169.9,841.7 -109,257.6 -264.9,488.8 -463.5,687.4 -198.6,198.6 -429.8,354.5 -687.4,463.5 -266.6,112.7 -549.8,169.9 -841.7,169.9 z m 0,-2.5 c 1192.9,0 2160,-967.1 2160,-2160 v -38880 c 0,-1192.898 -967.1,-2160 -2160,-2160 H 2162.5 C 969.563,2.5 2.5,969.602 2.5,2162.5 v 38880 c 0,1192.9 967.063,2160 2160,2160 h 30240"
         style="fill:#231f20;fill-opacity:1;fill-rule:nonzero;stroke:none"
         transform="matrix(0.13333333,0,0,-0.13333333,0,5760.6667)" />
      <path
         id="path4"
         d="m 33122.5,2162.5 c 0,-397 -323,-720 -720,-720 h -30240 c -397.01,0 -720,323 -720,720 v 38880 c 0,397 322.99,720 720,720 h 30240 c 397,0 720,-323 720,-720 z m -720,40500 h -30240 c -893.27,0 -1620,-726.7 -1620,-1620 v -38880 c 0,-893.3 726.73,-1620 1620,-1620 h 30240 c 893.3,0 1620,726.7 1620,1620 v 38880 c 0,893.3 -726.7,1620 -1620,1620"
         style="fill:#231f20;fill-opacity:1;fill-rule:nonzero;stroke:none"
         transform="matrix(0.13333333,0,0,-0.13333333,0,5760.6667)" />
      <path
         id="path5"
         d="m 11040.7,31253.2 h 1033.2 c 580.5,0 958.5,404.1 958.5,1035.9 0,695.7 -416.7,1212.3 -957.6,1212.3 h -1034.1 z m 0,5178.6 v -1919.7 h 1083.6 c 480.6,0 782.1,404.1 782.1,1061.1 0,619.2 -222.3,858.6 -781.2,858.6 z m -1033.2,-6189.3 v 7200 h 2268.9 c 955.8,0 1638.9,-757.8 1638.9,-1869.3 0,-659.7 -176.4,-960.3 -756,-1566.9 554.4,-454.5 882,-1061.1 882,-1793.7 0,-1077.3 -857.7,-1970.1 -1916.1,-1970.1 h -2117.7"
         style="fill:#231f20;fill-opacity:1;fill-rule:nonzero;stroke:none"
         transform="matrix(0.13333333,0,0,-0.13333333,0,5760.6667)" />
      <path
         id="path6"
         d="m 15265.6,32335 v 5107.5 h 1033.2 v -5178.6 c 0,-677.7 396,-1137.6 1008,-1137.6 554.3,0 958.5,454.5 958.5,1137.6 v 5178.6 h 1034 v -5122.8 c 0,-1638 -1265.4,-2203.2 -1992.5,-2203.2 -665.1,0 -2041.2,432.9 -2041.2,2218.5"
         style="fill:#231f20;fill-opacity:1;fill-rule:nonzero;stroke:none"
         transform="matrix(0.13333333,0,0,-0.13333333,0,5760.6667)" />
      <path
         id="path7"
         d="m 22589.2,34819.9 c 787.5,-494.1 1968.3,-1186.2 1968.3,-2607.3 0,-1165.5 -888.3,-2096.1 -2004.3,-2096.1 -1268.1,0 -2029.5,1072.8 -2029.5,2248.2 h 1015.2 c 0,-612.9 304.2,-1238.4 1014.3,-1238.4 558,0 1014.3,504.9 1014.3,1086.3 0,1565.1 -2688.3,1475.1 -2688.3,3486.6 0,1035.9 811.8,1868.4 1851.3,1868.4 1015.2,0 1801.8,-783 1827,-1869.3 h -990 c -25.2,504.9 -380.7,833.4 -837,833.4 -482.4,0 -862.2,-352.8 -862.2,-832.5 0,-468 248.4,-583.2 720.9,-879.3"
         style="fill:#231f20;fill-opacity:1;fill-rule:nonzero;stroke:none"
         transform="matrix(0.13333333,0,0,-0.13333333,0,5760.6667)" />
      <path
         id="path8"
         d="m 7774.9,25202.5 h 1038.56 v -6239.7 h 2635.04 v -960.3 H 7774.9 v 7200"
         style="fill:#231f20;fill-opacity:1;fill-rule:nonzero;stroke:none"
         transform="matrix(0.13333333,0,0,-0.13333333,0,5760.6667)" />
      <path
         id="path9"
         d="m 13653.6,20983.3 h 1038.6 l -531.9,2071.8 z m 1291.5,-1010.7 h -1544.3 l -481.5,-1970.1 h -1038.6 l 1798.1,7200 h 1014.3 l 1797.2,-7200 h -1038.5 l -506.7,1970.1"
         style="fill:#231f20;fill-opacity:1;fill-rule:nonzero;stroke:none"
         transform="matrix(0.13333333,0,0,-0.13333333,0,5760.6667)" />
      <path
         id="path10"
         d="m 18531.7,22827.4 v -4824.9 h -1033.2 v 7200 h 1033.2 l 1966.4,-4320 v 4320 h 1034.1 v -7200 H 20751 l -2219.3,4824.9"
         style="fill:#231f20;fill-opacity:1;fill-rule:nonzero;stroke:none"
         transform="matrix(0.13333333,0,0,-0.13333333,0,5760.6667)" />
      <path
         id="path11"
         d="m 23116.4,25202.5 h 3394.7 V 24191.8 H 24155 v -1818.9 h 1493.9 v -985.5 H 24155 v -2375.1 h 2635.1 v -1009.8 h -3673.7 v 7200"
         style="fill:#231f20;fill-opacity:1;fill-rule:nonzero;stroke:none"
         transform="matrix(0.13333333,0,0,-0.13333333,0,5760.6667)" />
      <path
         id="path12"
         d="m 6450.67,8743.3 h 1038.58 l -531.88,2071.8 z M 7742.14,7732.6 H 6197.78 L 5716.29,5762.5 H 4677.7 l 1798.17,7200 h 1014.28 l 1797.27,-7200 H 8248.83 l -506.69,1970.1"
         style="fill:#231f20;fill-opacity:1;fill-rule:nonzero;stroke:none"
         transform="matrix(0.13333333,0,0,-0.13333333,0,5760.6667)" />
      <path
         id="path13"
         d="M 13296.2,9021.4 H 11328.8 V 5762.5 h -1033.1 v 7200 h 1033.1 v -2930.4 h 1966.5 v 2930.4 h 1034.1 v -7200 h -1033.2 v 3258.9"
         style="fill:#231f20;fill-opacity:1;fill-rule:nonzero;stroke:none"
         transform="matrix(0.13333333,0,0,-0.13333333,0,5760.6667)" />
      <path
         id="path14"
         d="m 15913.7,12962.5 h 3394.8 v -1010.7 h -2356.2 v -1818.9 h 1494 v -985.5 h -1494 V 6772.3 h 2635.2 V 5762.5 h -3673.8 v 7200"
         style="fill:#231f20;fill-opacity:1;fill-rule:nonzero;stroke:none"
         transform="matrix(0.13333333,0,0,-0.13333333,0,5760.6667)" />
      <path
         id="path15"
         d="m 22008.6,8743.3 h 1038.6 l -531.9,2071.8 z m 1291.5,-1010.7 h -1544.4 l -481.5,-1970.1 h -1038.6 l 1798.2,7200 h 1014.3 l 1797.2,-7200 h -1038.5 l -506.7,1970.1"
         style="fill:#231f20;fill-opacity:1;fill-rule:nonzero;stroke:none"
         transform="matrix(0.13333333,0,0,-0.13333333,0,5760.6667)" />
      <path
         id="path16"
         d="m 27694,11951.8 h -807.2 V 6773.2 h 718.2 c 842.3,0 1273.4,368.1 1273.4,2551.5 0,2529.9 -630.9,2627.1 -1184.4,2627.1 z M 25853.6,5762.5 v 7200 h 2054.6 c 439.2,0 1979.1,-21.6 1979.1,-3587.4 0,-3262.5 -1422,-3612.6 -1893.6,-3612.6 h -2140.1"
         style="fill:#231f20;fill-opacity:1;fill-rule:nonzero;stroke:none"
         transform="matrix(0.13333333,0,0,-0.13333333,0,5760.6667)" />
    </g>
  </g>
</svg>
