<?xml version="1.0" encoding="UTF-8" standalone="no"?>
<!-- Created with Inkscape (http://www.inkscape.org/) -->

<svg
   version="1.1"
   id="svg1"
   width="2880.6667"
   height="3456.6667"
   viewBox="0 0 2880.6667 3456.6667"
   sodipodi:docname="tmpvb0ox2zh.pdf"
   xmlns:inkscape="http://www.inkscape.org/namespaces/inkscape"
   xmlns:sodipodi="http://sodipodi.sourceforge.net/DTD/sodipodi-0.dtd"
   xmlns="http://www.w3.org/2000/svg"
   xmlns:svg="http://www.w3.org/2000/svg">
  <defs
     id="defs1" />
  <sodipodi:namedview
     id="namedview1"
     pagecolor="#ffffff"
     bordercolor="#000000"
     borderopacity="0.25"
     inkscape:showpageshadow="2"
     inkscape:pageopacity="0.0"
     inkscape:pagecheckerboard="0"
     inkscape:deskcolor="#d1d1d1">
    <inkscape:page
       x="0"
       y="0"
       inkscape:label="1"
       id="page1"
       width="2880.6667"
       height="3456.6667"
       margin="0"
       bleed="0" />
  </sodipodi:namedview>
  <g
     id="g1"
     inkscape:groupmode="layer"
     inkscape:label="1">
    <g
       id="group-R5">
      <path
         id="path2"
         d="M 1352.5,1.20313 C 607.418,1.20313 1.25,607.402 1.25,1352.5 v 23220 c 0,745.1 606.168,1351.3 1351.25,1351.3 h 18900 c 745.1,0 1351.3,-606.2 1351.3,-1351.3 V 1352.5 C 21603.8,607.402 20997.6,1.20313 20252.5,1.20313 h -18900"
         style="fill:#ffffff;fill-opacity:1;fill-rule:nonzero;stroke:none"
         transform="matrix(0.13333333,0,0,-0.13333333,0,3456.6667)" />
      <path
         id="path3"
         d="m 20252.5,25925 h -18900 c -361.266,0 -700.91,-140.7 -956.363,-396.1 C 140.684,25273.4 0,24933.8 0,24572.5 V 1352.5 C 0,991.203 140.684,651.602 396.137,396.102 651.59,140.703 991.234,0 1352.5,0 h 18900 c 361.3,0 700.9,140.703 956.4,396.102 255.4,255.5 396.1,595.101 396.1,956.398 v 23220 c 0,361.3 -140.7,700.9 -396.1,956.4 -255.5,255.4 -595.1,396.1 -956.4,396.1 z m 0,-2.5 c 745.6,0 1350,-604.4 1350,-1350 v -23220 c 0,-745.602 -604.4,-1350 -1350,-1350 H 1352.5 C 606.918,2.5 2.5,606.898 2.5,1352.5 v 23220 c 0,745.6 604.418,1350 1350,1350 h 18900"
         style="fill:#231f20;fill-opacity:1;fill-rule:nonzero;stroke:none"
         transform="matrix(0.13333333,0,0,-0.13333333,0,3456.6667)" />
      <path
         id="path4"
         d="m 1352.5,362.5 c -545.891,0 -990,444.102 -990,990 v 23220 c 0,545.9 444.109,990 990,990 h 18900 c 545.9,0 990,-444.1 990,-990 v -23220 c 0,-545.898 -444.1,-990 -990,-990 h -18900"
         style="fill:#231f20;fill-opacity:1;fill-rule:nonzero;stroke:none"
         transform="matrix(0.13333333,0,0,-0.13333333,0,3456.6667)" />
      <path
         id="path5"
         d="m 1352.5,902.5 c -248.13,0 -450,201.9 -450,450 v 23220 c 0,248.1 201.87,450 450,450 h 18900 c 248.1,0 450,-201.9 450,-450 v -23220 c 0,-248.1 -201.9,-450 -450,-450 h -18900"
         style="fill:#ffffff;fill-opacity:1;fill-rule:nonzero;stroke:none"
         transform="matrix(0.13333333,0,0,-0.13333333,0,3456.6667)" />
      <path
         id="path6"
         d="m 7057.42,18608.9 h 619.92 c 348.29,0 575.09,242.5 575.09,621.6 0,417.4 -250.02,727.4 -574.56,727.4 h -620.45 z m 0,3107.2 v -1151.8 h 650.15 c 288.36,0 469.26,242.4 469.26,636.6 0,371.5 -133.38,515.2 -468.72,515.2 z M 6437.5,18002.5 v 4320 h 1361.33 c 573.48,0 983.34,-454.7 983.34,-1121.6 0,-395.8 -105.84,-576.1 -453.6,-940.1 332.64,-272.7 529.2,-636.7 529.2,-1076.2 0,-646.4 -514.62,-1182.1 -1149.66,-1182.1 H 6437.5"
         style="fill:#231f20;fill-opacity:1;fill-rule:nonzero;stroke:none"
         transform="matrix(0.13333333,0,0,-0.13333333,0,3456.6667)" />
      <path
         id="path7"
         d="m 9592.34,19258 v 3064.5 h 619.96 v -3107.1 c 0,-406.6 237.6,-682.6 604.8,-682.6 332.6,0 575.1,272.7 575.1,682.6 v 3107.1 h 620.4 v -3073.7 c 0,-982.7 -759.2,-1321.9 -1195.5,-1321.9 -399.1,0 -1224.76,259.8 -1224.76,1331.1"
         style="fill:#231f20;fill-opacity:1;fill-rule:nonzero;stroke:none"
         transform="matrix(0.13333333,0,0,-0.13333333,0,3456.6667)" />
      <path
         id="path8"
         d="m 13986.5,20748.9 c 472.5,-296.4 1181,-711.7 1181,-1564.3 0,-699.3 -533,-1257.7 -1202.6,-1257.7 -760.8,0 -1217.7,643.7 -1217.7,1349 h 609.1 c 0,-367.8 182.6,-743.1 608.6,-743.1 334.8,0 608.6,303 608.6,651.8 0,939 -1613,885 -1613,2091.9 0,621.6 487.1,1121.1 1110.8,1121.1 609.1,0 1081.1,-469.8 1096.2,-1121.6 h -594 c -15.1,302.9 -228.4,500 -502.2,500 -289.4,0 -517.3,-211.6 -517.3,-499.5 0,-280.8 149,-349.9 432.5,-527.6"
         style="fill:#231f20;fill-opacity:1;fill-rule:nonzero;stroke:none"
         transform="matrix(0.13333333,0,0,-0.13333333,0,3456.6667)" />
      <path
         id="path9"
         d="m 5097.94,15122.5 h 623.14 v -3743.8 h 1581.05 v -576.2 H 5097.94 v 4320"
         style="fill:#231f20;fill-opacity:1;fill-rule:nonzero;stroke:none"
         transform="matrix(0.13333333,0,0,-0.13333333,0,3456.6667)" />
      <path
         id="path10"
         d="m 8625.18,12591 h 623.14 l -319.13,1243.1 z m 774.87,-606.4 h -926.6 l -288.89,-1182.1 h -623.13 l 1078.88,4320 h 608.55 l 1078.34,-4320 h -623.14 l -304.01,1182.1"
         style="fill:#231f20;fill-opacity:1;fill-rule:nonzero;stroke:none"
         transform="matrix(0.13333333,0,0,-0.13333333,0,3456.6667)" />
      <path
         id="path11"
         d="m 11552,13697.4 v -2894.9 h -619.9 v 4320 h 619.9 l 1179.9,-2592 v 2592 h 620.4 v -4320 h -468.7 L 11552,13697.4"
         style="fill:#231f20;fill-opacity:1;fill-rule:nonzero;stroke:none"
         transform="matrix(0.13333333,0,0,-0.13333333,0,3456.6667)" />
      <path
         id="path12"
         d="m 14302.9,15122.5 h 2036.8 v -606.4 H 14926 v -1091.4 h 896.4 v -591.2 H 14926 v -1425.1 h 1581.1 v -605.9 h -2204.2 v 4320"
         style="fill:#231f20;fill-opacity:1;fill-rule:nonzero;stroke:none"
         transform="matrix(0.13333333,0,0,-0.13333333,0,3456.6667)" />
      <path
         id="path13"
         d="m 4303.4,5391 h 623.15 l -319.13,1243.1 z m 774.89,-606.4 h -926.62 l -288.9,-1182.1 h -623.15 l 1078.9,4320 h 608.57 l 1078.36,-4320 H 5382.3 l -304.01,1182.1"
         style="fill:#231f20;fill-opacity:1;fill-rule:nonzero;stroke:none"
         transform="matrix(0.13333333,0,0,-0.13333333,0,3456.6667)" />
      <path
         id="path14"
         d="M 8410.72,5557.8 H 7230.3 V 3602.5 h -619.9 v 4320 h 619.9 V 6164.3 h 1179.88 v 1758.2 h 620.45 v -4320 h -619.91 v 1955.3"
         style="fill:#231f20;fill-opacity:1;fill-rule:nonzero;stroke:none"
         transform="matrix(0.13333333,0,0,-0.13333333,0,3456.6667)" />
      <path
         id="path15"
         d="M 9981.23,7922.5 H 12018.1 V 7316.1 H 10604.4 V 6224.7 h 896.4 v -591.2 h -896.4 V 4208.4 h 1581.1 V 3602.5 H 9981.23 v 4320"
         style="fill:#231f20;fill-opacity:1;fill-rule:nonzero;stroke:none"
         transform="matrix(0.13333333,0,0,-0.13333333,0,3456.6667)" />
      <path
         id="path16"
         d="m 13638.2,5391 h 623.1 l -319.1,1243.1 z m 774.8,-606.4 h -926.6 l -288.9,-1182.1 h -623.1 l 1078.9,4320 h 608.6 l 1078.3,-4320 h -623.1 L 14413,4784.6"
         style="fill:#231f20;fill-opacity:1;fill-rule:nonzero;stroke:none"
         transform="matrix(0.13333333,0,0,-0.13333333,0,3456.6667)" />
      <path
         id="path17"
         d="m 17049.4,7316.1 h -484.3 V 4208.9 h 430.9 c 505.4,0 764.1,220.9 764.1,1530.9 0,1518 -378.6,1576.3 -710.7,1576.3 z M 15945.1,3602.5 v 4320 h 1232.8 c 263.6,0 1187.5,-13 1187.5,-2152.4 0,-1957.5 -853.2,-2167.6 -1136.2,-2167.6 h -1284.1"
         style="fill:#231f20;fill-opacity:1;fill-rule:nonzero;stroke:none"
         transform="matrix(0.13333333,0,0,-0.13333333,0,3456.6667)" />
    </g>
  </g>
</svg>
