<?xml version="1.0" standalone="no"?>
<svg width="2160px" height="2592px" viewBox="0 -1800 2160 2592 " xmlns="http://www.w3.org/2000/svg" xmlns:xlink="http://www.w3.org/1999/xlink">
<title>generated by pstoedit</title>
<!-- generated by pstoedit version:4.02 -->
<g xml:space='preserve'>
<clipPath id="clippath1"> 	<path d="
	M 0 -1800.5 
	L 0 792 
	L 2160.5 792 
	L 2160.5 -1800.5 
	Z 
	" style="clip-rule:nonzero"/>
</clipPath>
<g style="clip-path:url(#clippath1)"> 
<g fill="#ffffff" fill-rule="nonzero" stroke-width="0" stroke-linejoin="miter" stroke-linecap="butt" stroke-miterlimit="10" >
	<path d="
	M 2160.25 656.75 
	C 2160.25 731.309 2099.81 791.75 2025.25 791.75 
	L 135.25 791.75 
	C 60.6914 791.75 0.25 731.309 0.25 656.75 
	L 0.25 -1665.25 
	C 0.25 -1739.81 60.6914 -1800.25 135.25 -1800.25 
	L 2025.25 -1800.25 
	C 2099.81 -1800.25 2160.25 -1739.81 2160.25 -1665.25 
	Z 
	"/>
</g>
<g stroke="#7f7f7f" fill="none" stroke-width="0.5" stroke-linejoin="miter" stroke-linecap="butt" stroke-miterlimit="4" >
	<path d="
	M 2160.25 656.75 
	C 2160.25 731.309 2099.81 791.75 2025.25 791.75 
	L 135.25 791.75 
	C 60.6914 791.75 0.25 731.309 0.25 656.75 
	L 0.25 -1665.25 
	C 0.25 -1739.81 60.6914 -1800.25 135.25 -1800.25 
	L 2025.25 -1800.25 
	C 2099.81 -1800.25 2160.25 -1739.81 2160.25 -1665.25 
	Z 
	"/>
</g>
<g fill="#7f7f7f" fill-rule="nonzero" stroke-width="0" stroke-linejoin="miter" stroke-linecap="butt" stroke-miterlimit="4" >
	<path d="
	M 2070.25 656.75 
	C 2070.25 681.559 2050.06 701.75 2025.25 701.75 
	L 135.25 701.75 
	C 110.438 701.75 90.25 681.559 90.25 656.75 
	L 90.25 -1665.25 
	C 90.25 -1690.06 110.438 -1710.25 135.25 -1710.25 
	L 2025.25 -1710.25 
	C 2050.06 -1710.25 2070.25 -1690.06 2070.25 -1665.25 
	Z 
	M 2025.25 -1764.25 
	L 135.25 -1764.25 
	C 80.6602 -1764.25 36.25 -1719.84 36.25 -1665.25 
	L 36.25 656.75 
	C 36.25 711.34 80.6602 755.75 135.25 755.75 
	L 2025.25 755.75 
	C 2079.84 755.75 2124.25 711.34 2124.25 656.75 
	L 2124.25 -1665.25 
	C 2124.25 -1719.84 2079.84 -1764.25 2025.25 -1764.25 
	Z 
	"/>
</g>
<g fill="#7f7f7f" fill-rule="nonzero" stroke-width="0" stroke-linejoin="miter" stroke-linecap="butt" stroke-miterlimit="4" >
	<path d="
	M 892.918 -591.41 
	L 862.52 -467.12 
	L 924.832 -467.12 
	Z 
	M 970.422 -288.25 
	L 940.027 -406.48 
	L 847.324 -406.48 
	L 818.449 -288.25 
	L 756.141 -288.25 
	L 864.043 -720.25 
	L 924.832 -720.25 
	L 1032.73 -288.25 
	Z 
	"/>
</g>
<g fill="#7f7f7f" fill-rule="nonzero" stroke-width="0" stroke-linejoin="miter" stroke-linecap="butt" stroke-miterlimit="4" >
	<path d="
	M 1430.28 -288.25 
	L 1430.28 -720.25 
	L 1633.98 -720.25 
	L 1633.98 -659.62 
	L 1492.61 -659.62 
	L 1492.61 -550.48 
	L 1582.3 -550.48 
	L 1582.3 -491.37 
	L 1492.61 -491.37 
	L 1492.61 -348.88 
	L 1650.71 -348.88 
	L 1650.71 -288.25 
	Z 
	"/>
</g>
<g fill="#7f7f7f" fill-rule="nonzero" stroke-width="0" stroke-linejoin="miter" stroke-linecap="butt" stroke-miterlimit="4" >
	<path d="
	M 509.793 -288.25 
	L 509.793 -720.25 
	L 572.121 -720.25 
	L 572.121 -345.85 
	L 730.223 -345.85 
	L 730.223 -288.25 
	Z 
	"/>
</g>
<g fill="#7f7f7f" fill-rule="nonzero" stroke-width="0" stroke-linejoin="miter" stroke-linecap="butt" stroke-miterlimit="4" >
	<path d="
	M 1288.35 -288.25 
	L 1155.23 -577.77 
	L 1155.23 -288.25 
	L 1093.21 -288.25 
	L 1093.21 -720.25 
	L 1155.23 -720.25 
	L 1273.22 -461.05 
	L 1273.22 -720.25 
	L 1335.24 -720.25 
	L 1335.24 -288.25 
	Z 
	"/>
</g>
<g fill="#7f7f7f" fill-rule="nonzero" stroke-width="0" stroke-linejoin="miter" stroke-linecap="butt" stroke-miterlimit="4" >
	<path d="
	M 1290.71 104.34 
	C 1280.12 74.02 1261.97 60.379 1234.74 60.379 
	L 1183.31 60.379 
	L 1183.31 371.121 
	L 1234.74 371.121 
	C 1271.05 371.121 1290.71 342.32 1296.76 308.969 
	C 1299.79 281.691 1302.81 251.371 1302.81 218.02 
	C 1302.81 169.52 1298.28 122.531 1290.71 104.34 
	Z 
	M 1301.3 412.039 
	C 1286.17 425.691 1265 431.75 1240.79 431.75 
	L 1121.29 431.75 
	L 1121.29 -0.25 
	L 1231.72 -0.25 
	C 1268.02 -0.25 1286.17 4.30103 1301.3 16.422 
	C 1327.02 34.609 1345.17 67.961 1352.73 111.922 
	C 1358.78 143.75 1363.32 181.641 1363.32 214.988 
	C 1363.32 315.031 1343.65 378.699 1301.3 412.039 
	Z 
	"/>
</g>
<g fill="#7f7f7f" fill-rule="nonzero" stroke-width="0" stroke-linejoin="miter" stroke-linecap="butt" stroke-miterlimit="4" >
	<path d="
	M 490.352 431.75 
	L 490.352 -0.25 
	L 694.059 -0.25 
	L 694.059 60.379 
	L 552.68 60.379 
	L 552.68 169.52 
	L 642.371 169.52 
	L 642.371 228.629 
	L 552.68 228.629 
	L 552.68 371.121 
	L 710.777 371.121 
	L 710.777 431.75 
	Z 
	"/>
</g>
<g fill="#7f7f7f" fill-rule="nonzero" stroke-width="0" stroke-linejoin="miter" stroke-linecap="butt" stroke-miterlimit="4" >
	<path d="
	M 979.355 431.75 
	L 846.238 142.23 
	L 846.238 431.75 
	L 784.223 431.75 
	L 784.223 -0.25 
	L 846.238 -0.25 
	L 964.227 258.949 
	L 964.227 -0.25 
	L 1026.25 -0.25 
	L 1026.25 431.75 
	Z 
	"/>
</g>
<g fill="#7f7f7f" fill-rule="nonzero" stroke-width="0" stroke-linejoin="miter" stroke-linecap="butt" stroke-miterlimit="4" >
	<path d="
	M 1551.13 232.25 
	C 1532.44 220.141 1514.29 207.988 1502.71 199.828 
	C 1467.88 175.32 1449.43 142.23 1449.43 104.34 
	C 1449.43 42.191 1498.14 -7.828 1560.55 -7.828 
	C 1621.44 -7.828 1668.62 39.16 1670.15 104.34 
	L 1610.78 104.34 
	C 1609.26 74.02 1587.95 54.32 1560.55 54.32 
	C 1531.63 54.32 1508.79 75.539 1508.79 104.34 
	C 1508.79 125.559 1517.93 137.691 1549.89 155.879 
	C 1633.61 204.379 1670.15 251.371 1670.15 313.52 
	C 1670.15 383.25 1616.87 439.332 1549.89 439.332 
	C 1473.78 439.332 1428.12 375.672 1428.12 304.422 
	L 1489.01 304.422 
	C 1489.01 340.801 1507.27 378.699 1549.89 378.699 
	C 1583.38 378.699 1610.78 348.379 1610.78 313.52 
	C 1610.78 286.449 1599.59 263.648 1551.13 232.25 
	Z 
	"/>
</g>
<g fill="#7f7f7f" fill-rule="nonzero" stroke-width="0" stroke-linejoin="miter" stroke-linecap="butt" stroke-miterlimit="4" >
	<path d="
	M 767.805 -1203.79 
	L 705.785 -1203.79 
	L 705.785 -1068.88 
	L 767.805 -1068.88 
	C 802.598 -1068.88 825.285 -1093.14 825.285 -1131.03 
	C 825.285 -1171.96 799.57 -1203.79 767.805 -1203.79 
	Z 
	M 770.832 -1379.62 
	L 705.785 -1379.62 
	L 705.785 -1264.42 
	L 770.832 -1264.42 
	C 799.57 -1264.42 817.727 -1288.67 817.727 -1328.08 
	C 817.727 -1364.46 804.109 -1379.62 770.832 -1379.62 
	Z 
	M 770.832 -1008.25 
	L 643.766 -1008.25 
	L 643.766 -1440.25 
	L 779.906 -1440.25 
	C 837.391 -1440.25 878.23 -1394.78 878.23 -1328.08 
	C 878.23 -1288.67 867.645 -1270.48 832.852 -1234.11 
	C 866.129 -1206.82 885.793 -1170.44 885.793 -1126.48 
	C 885.793 -1061.3 834.363 -1008.25 770.832 -1008.25 
	Z 
	"/>
</g>
<g fill="#7f7f7f" fill-rule="nonzero" stroke-width="0" stroke-linejoin="miter" stroke-linecap="butt" stroke-miterlimit="4" >
	<path d="
	M 1397.71 -1207.75 
	C 1379.02 -1219.86 1360.88 -1232.01 1349.29 -1240.16 
	C 1314.46 -1264.68 1296.01 -1297.77 1296.01 -1335.66 
	C 1296.01 -1397.81 1344.73 -1447.83 1407.13 -1447.83 
	C 1468.02 -1447.83 1515.21 -1400.84 1516.73 -1335.66 
	L 1457.37 -1335.66 
	C 1455.84 -1365.98 1434.53 -1385.68 1407.13 -1385.68 
	C 1378.21 -1385.68 1355.38 -1364.46 1355.38 -1335.66 
	C 1355.38 -1314.44 1364.51 -1302.31 1396.48 -1284.12 
	C 1480.2 -1235.62 1516.73 -1188.63 1516.73 -1126.48 
	C 1516.73 -1056.75 1463.45 -1000.67 1396.48 -1000.67 
	C 1320.37 -1000.67 1274.7 -1064.33 1274.7 -1135.57 
	L 1335.59 -1135.57 
	C 1335.59 -1099.2 1353.86 -1061.3 1396.48 -1061.3 
	C 1429.97 -1061.3 1457.37 -1091.62 1457.37 -1126.48 
	C 1457.37 -1153.55 1446.18 -1176.35 1397.71 -1207.75 
	Z 
	"/>
</g>
<g fill="#7f7f7f" fill-rule="nonzero" stroke-width="0" stroke-linejoin="miter" stroke-linecap="butt" stroke-miterlimit="4" >
	<path d="
	M 1184.62 -1061.3 
	C 1163.45 -1026.44 1122.6 -1000.67 1081.76 -1000.67 
	C 1039.41 -1000.67 997.051 -1024.93 975.871 -1061.3 
	C 963.77 -1084.04 959.23 -1102.23 959.23 -1137.09 
	L 959.23 -1440.25 
	L 1021.25 -1440.25 
	L 1021.25 -1129.51 
	C 1021.25 -1088.59 1045.46 -1061.3 1081.76 -1061.3 
	C 1115.04 -1061.3 1139.24 -1088.59 1139.24 -1129.51 
	L 1139.24 -1440.25 
	L 1201.26 -1440.25 
	L 1201.26 -1137.09 
	C 1201.26 -1102.23 1196.73 -1084.04 1184.62 -1061.3 
	Z 
	"/>
</g>
</g >
</g>
</svg>
