<?xml version="1.0" encoding="UTF-8" standalone="no"?>
<!-- Created with Inkscape (http://www.inkscape.org/) -->

<svg
   version="1.1"
   id="svg1"
   width="3456.6667"
   height="3456.6667"
   viewBox="0 0 3456.6667 3456.6667"
   sodipodi:docname="tmp746zuy3t.pdf"
   xmlns:inkscape="http://www.inkscape.org/namespaces/inkscape"
   xmlns:sodipodi="http://sodipodi.sourceforge.net/DTD/sodipodi-0.dtd"
   xmlns="http://www.w3.org/2000/svg"
   xmlns:svg="http://www.w3.org/2000/svg">
  <defs
     id="defs1" />
  <sodipodi:namedview
     id="namedview1"
     pagecolor="#ffffff"
     bordercolor="#000000"
     borderopacity="0.25"
     inkscape:showpageshadow="2"
     inkscape:pageopacity="0.0"
     inkscape:pagecheckerboard="0"
     inkscape:deskcolor="#d1d1d1">
    <inkscape:page
       x="0"
       y="0"
       inkscape:label="1"
       id="page1"
       width="3456.6667"
       height="3456.6667"
       margin="0"
       bleed="0" />
  </sodipodi:namedview>
  <g
     id="g1"
     inkscape:groupmode="layer"
     inkscape:label="1">
    <g
       id="group-R5">
      <path
         id="path2"
         d="M 1622.5,1.20313 C 1191.24,1.20313 784.602,170.402 477.488,477.5 170.383,784.602 1.25,1191.2 1.25,1622.5 v 22680 c 0,431.3 169.133,837.9 476.238,1145 307.114,307.1 713.752,476.3 1145.012,476.3 h 22680 c 431.3,0 837.9,-169.2 1145,-476.3 307.1,-307.1 476.3,-713.7 476.3,-1145 v -22680 c 0,-431.3 -169.2,-837.898 -476.3,-1145 C 25140.4,170.402 24733.8,1.20313 24302.5,1.20313 h -22680"
         style="fill:#ffffff;fill-opacity:1;fill-rule:nonzero;stroke:none"
         transform="matrix(0.13333333,0,0,-0.13333333,0,3456.6667)" />
      <path
         id="path3"
         d="m 24302.5,25925 h -22680 c -218.07,0 -430.03,-43.1 -629.992,-128 -193.031,-82 -366.61,-199.3 -515.903,-348.6 -149.292,-149.3 -266.57,-322.9 -348.578,-515.9 C 43.0742,24732.5 0,24520.6 0,24302.5 v -22680 c 0,-218.1 43.0742,-430 128.027,-630 C 210.035,799.5 327.313,625.902 476.605,476.602 625.898,327.301 799.477,210 992.508,128 1192.47,43.1016 1404.43,0 1622.5,0 h 22680 c 218.1,0 430,43.1016 630,128 193,82 366.6,199.301 515.9,348.602 149.3,149.3 266.6,322.898 348.6,515.898 84.9,200 128,411.9 128,630 v 22680 c 0,218.1 -43.1,430 -128,630 -82,193 -199.3,366.6 -348.6,515.9 -149.3,149.3 -322.9,266.6 -515.9,348.6 -200,84.9 -411.9,128 -630,128 z m 0,-2.5 c 891,0 1620,-729 1620,-1620 v -22680 c 0,-891 -729,-1620 -1620,-1620 h -22680 c -891,0 -1620,729 -1620,1620 v 22680 c 0,891 729,1620 1620,1620 h 22680"
         style="fill:#231f20;fill-opacity:1;fill-rule:nonzero;stroke:none"
         transform="matrix(0.13333333,0,0,-0.13333333,0,3456.6667)" />
      <path
         id="path4"
         d="m 1622.5,452.5 c -645.137,0 -1170,524.902 -1170,1170 v 22680 c 0,645.1 524.863,1170 1170,1170 h 22680 c 645.1,0 1170,-524.9 1170,-1170 v -22680 c 0,-645.098 -524.9,-1170 -1170,-1170 h -22680"
         style="fill:#231f20;fill-opacity:1;fill-rule:nonzero;stroke:none"
         transform="matrix(0.13333333,0,0,-0.13333333,0,3456.6667)" />
      <path
         id="path5"
         d="m 1622.5,1082.5 c -297.75,0 -540,242.3 -540,540 v 22680 c 0,297.8 242.25,540 540,540 h 22680 c 297.8,0 540,-242.2 540,-540 v -22680 c 0,-297.7 -242.2,-540 -540,-540 h -22680"
         style="fill:#ffffff;fill-opacity:1;fill-rule:nonzero;stroke:none"
         transform="matrix(0.13333333,0,0,-0.13333333,0,3456.6667)" />
      <path
         id="path6"
         d="M 4200,4322.6 H 3286.36 V 9274 H 1967.38 v 808.5 H 5539.85 V 9274 H 4200 V 4322.6"
         style="fill:#231f20;fill-opacity:1;fill-rule:nonzero;stroke:none"
         transform="matrix(0.13333333,0,0,-0.13333333,0,3456.6667)" />
      <path
         id="path7"
         d="m 6101.65,6383.9 v 3698.6 h 908.6 V 6383.9 c 0,-748.1 424.78,-1232.6 1051.15,-1232.6 626.37,0 1051.15,484.5 1051.15,1232.6 v 3698.6 h 910.05 V 6383.9 c 0,-1821.6 -1397.47,-2162.1 -1960.48,-2162.1 -512.62,0 -1960.47,301.6 -1960.47,2162.1"
         style="fill:#231f20;fill-opacity:1;fill-rule:nonzero;stroke:none"
         transform="matrix(0.13333333,0,0,-0.13333333,0,3456.6667)" />
      <path
         id="path8"
         d="m 11830,6829.6 v -2507 h -908.6 v 5759.9 H 13005 c 1320.4,0 1716.4,-1056.2 1716.4,-1617.8 0,-213.8 -79.2,-1056.2 -894.2,-1442.1 l 1015.1,-2700 h -990.7 l -929.4,2507 z m 1144,928.8 c 722.8,0 836.6,521.3 836.6,707 0,251.3 -187.9,707.8 -792.7,707.8 H 11830 V 7758.4 h 1144"
         style="fill:#231f20;fill-opacity:1;fill-rule:nonzero;stroke:none"
         transform="matrix(0.13333333,0,0,-0.13333333,0,3456.6667)" />
      <path
         id="path9"
         d="M 16387.6,8222.8 V 4322.6 H 15479 v 5759.9 h 908.6 l 2102.3,-3678.4 v 3678.4 H 19400 V 4322.6 h -808.6 l -2203.8,3900.2"
         style="fill:#231f20;fill-opacity:1;fill-rule:nonzero;stroke:none"
         transform="matrix(0.13333333,0,0,-0.13333333,0,3456.6667)" />
      <path
         id="path10"
         d="m 20036.7,5676.9 869,323.3 c 242.6,-545.8 686.8,-848.9 1232.6,-848.9 525.5,0 889.8,363.6 889.8,848.9 0,770.4 -889.1,889.2 -1637.2,1192.3 -343.4,141.8 -1111.6,485.3 -1111.6,1434.9 0,1132.6 767.5,1555.2 1798.5,1555.2 808.5,0 1354.2,-465.1 1637.2,-1172.1 l -808.5,-242.7 c -90.7,227.6 -419.8,505.5 -848.9,505.5 -821.5,0 -891.3,-438.5 -891.3,-582.5 0,-538.6 464.4,-645.1 1219.6,-882 769,-241.9 1571.7,-595.4 1571.7,-1830.2 0,-1243.5 -1007.9,-1756.8 -1819.3,-1756.8 -990.7,0 -1717.9,586 -2101.6,1455.1"
         style="fill:#231f20;fill-opacity:1;fill-rule:nonzero;stroke:none"
         transform="matrix(0.13333333,0,0,-0.13333333,0,3456.6667)" />
      <path
         id="path11"
         d="M 8297.61,19277.8 V 14402.5 H 7161.82 v 7199.9 h 1135.79 l 2627.99,-4598 v 4598 h 1137.6 v -7199.9 h -1010.7 l -2754.89,4875.3"
         style="fill:#231f20;fill-opacity:1;fill-rule:nonzero;stroke:none"
         transform="matrix(0.13333333,0,0,-0.13333333,0,3456.6667)" />
      <path
         id="path12"
         d="m 16217.9,15437.5 c 775.8,0 1405.8,735.3 1405.8,2565 0,1829.7 -630,2564.9 -1405.8,2564.9 -775.8,0 -1405.8,-734.3 -1405.8,-2564.9 0,-1829.7 630,-2565 1405.8,-2565 z m 2545.2,2565 c 0,-258.3 54.9,-3726 -2557.8,-3726 -2612.7,0 -2557.8,3467.7 -2557.8,3726 0,258.3 -54.9,3725.1 2557.8,3725.1 2612.7,0 2557.8,-3466.8 2557.8,-3725.1"
         style="fill:#231f20;fill-opacity:1;fill-rule:nonzero;stroke:none"
         transform="matrix(0.13333333,0,0,-0.13333333,0,3456.6667)" />
    </g>
  </g>
</svg>
