<?xml version="1.0" encoding="UTF-8"?>
<svg id="For_Sheets" xmlns="http://www.w3.org/2000/svg" version="1.1" viewBox="0 0 1728 1728">
  <!-- Generator: Adobe Illustrator 29.1.0, SVG Export Plug-In . SVG Version: 2.1.0 Build 142)  -->
  <defs>
    <style>
      .st0 {
        fill: #231f20;
      }

      .st1 {
        fill: #fff;
      }
    </style>
  </defs>
  <g>
    <rect class="st1" x="-.1" y="-.1" width="1728.2" height="1728.2" rx="108.1" ry="108.1"/>
    <path class="st0" d="M1620,0c59.4,0,108,48.6,108,108v1512c0,59.4-48.6,108-108,108H108c-59.4,0-108-48.6-108-108V108C0,48.6,48.6,0,108,0h1512M1620-.2H108C79.2-.2,52.1,11,31.5,31.5,11,52.1-.2,79.2-.2,108v1512c0,28.8,11.3,55.9,31.8,76.5,20.5,20.5,47.7,31.8,76.5,31.8h1512c28.8,0,55.9-11.3,76.5-31.8,20.5-20.5,31.8-47.7,31.8-76.5V108c0-28.8-11.3-55.9-31.8-76.5-20.5-20.5-47.7-31.8-76.5-31.8h0Z"/>
  </g>
  <path class="st0" d="M108,1701c-44.7,0-81-36.3-81-81V108c0-44.7,36.3-81,81-81h1512c44.7,0,81,36.3,81,81v1512c0,44.7-36.3,81-81,81H108ZM1620,1656c19.9,0,36-16.1,36-36V108c0-19.9-16.1-36-36-36H108c-19.9,0-36,16.1-36,36v1512c0,19.9,16.1,36,36,36h1512Z"/>
  <g>
    <polygon class="st0" points="316.3 1404 259.2 1404 259.2 1094.5 176.8 1094.5 176.8 1044 400.1 1044 400.1 1094.5 316.3 1094.5 316.3 1404"/>
    <path class="st0" d="M435.2,1275.2v-231.2h56.8v231.2c0,46.8,26.5,77,65.7,77s65.7-30.3,65.7-77v-231.2h56.9v231.2c0,113.8-87.3,135.1-122.5,135.1s-122.5-18.9-122.5-135.1Z"/>
    <path class="st0" d="M864.7,1189.3c45.2,0,52.3-32.6,52.3-44.2s-11.7-44.2-49.5-44.2h-74.2v88.4h71.5ZM793.2,1247.3v156.7h-56.8v-360h130.2c82.5,0,107.3,66,107.3,101.1s-4.9,66-55.9,90.1l63.4,168.7h-61.9l-58.1-156.7h-68.3Z"/>
    <polygon class="st0" points="1078.1 1160.2 1078.1 1404 1021.3 1404 1021.3 1044 1078.1 1044 1209.5 1273.9 1209.5 1044 1266.3 1044 1266.3 1404 1215.8 1404 1078.1 1160.2"/>
    <path class="st0" d="M1306.1,1319.4l54.3-20.2c15.2,34.1,42.9,53.1,77,53.1s55.6-22.7,55.6-53.1c0-48.1-55.6-55.6-102.3-74.5-21.5-8.9-69.5-30.3-69.5-89.7s48-97.2,112.4-97.2,84.6,29.1,102.3,73.3l-50.5,15.2c-5.7-14.2-26.2-31.6-53.1-31.6-51.3,0-55.7,27.4-55.7,36.4,0,33.7,29,40.3,76.2,55.1,48.1,15.1,98.2,37.2,98.2,114.4s-63,109.8-113.7,109.8-107.4-36.6-131.4-90.9Z"/>
  </g>
  <g>
    <path class="st0" d="M584.1,463.5v292.5h-68.1v-432h68.1l157.7,275.9v-275.9h68.3v432h-60.6l-165.3-292.5Z"/>
    <path class="st0" d="M1212,540c0,15.5,3.3,223.6-153.5,223.6s-153.5-208.1-153.5-223.6-3.3-223.5,153.5-223.5,153.5,208,153.5,223.5ZM1059.3,693.9c46.5,0,84.3-44.1,84.3-153.9s-37.8-153.9-84.3-153.9-84.3,44.1-84.3,153.9,37.8,153.9,84.3,153.9Z"/>
  </g>
</svg>