<?xml version="1.0" standalone="no"?>
<svg width="4320px" height="5616px" viewBox="0 -4824 4320 5616 " xmlns="http://www.w3.org/2000/svg" xmlns:xlink="http://www.w3.org/1999/xlink">
<title>generated by pstoedit</title>
<!-- generated by pstoedit version:4.02 -->
<g xml:space='preserve'>
<clipPath id="clippath1"> 	<path d="
	M 0 -4824.5 
	L 0 792 
	L 4320.5 792 
	L 4320.5 -4824.5 
	Z 
	" style="clip-rule:nonzero"/>
</clipPath>
<g style="clip-path:url(#clippath1)"> 
<g fill="#ffffff" fill-rule="nonzero" stroke-width="0" stroke-linejoin="miter" stroke-linecap="butt" stroke-miterlimit="10" >
	<path d="
	M 4320.25 575.75 
	C 4320.25 695.039 4223.54 791.75 4104.25 791.75 
	L 216.25 791.75 
	C 96.957 791.75 0.25 695.039 0.25 575.75 
	L 0.25 -4608.25 
	C 0.25 -4727.54 96.957 -4824.25 216.25 -4824.25 
	L 4104.25 -4824.25 
	C 4223.54 -4824.25 4320.25 -4727.54 4320.25 -4608.25 
	Z 
	"/>
</g>
<g stroke="#7f7f7f" fill="none" stroke-width="0.5" stroke-linejoin="miter" stroke-linecap="butt" stroke-miterlimit="4" >
	<path d="
	M 4320.25 575.75 
	C 4320.25 695.039 4223.54 791.75 4104.25 791.75 
	L 216.25 791.75 
	C 96.957 791.75 0.25 695.039 0.25 575.75 
	L 0.25 -4608.25 
	C 0.25 -4727.54 96.957 -4824.25 216.25 -4824.25 
	L 4104.25 -4824.25 
	C 4223.54 -4824.25 4320.25 -4727.54 4320.25 -4608.25 
	Z 
	"/>
</g>
<g fill="#7f7f7f" fill-rule="nonzero" stroke-width="0" stroke-linejoin="miter" stroke-linecap="butt" stroke-miterlimit="4" >
	<path d="
	M 4176.25 575.75 
	C 4176.25 615.449 4143.95 647.75 4104.25 647.75 
	L 216.25 647.75 
	C 176.551 647.75 144.25 615.449 144.25 575.75 
	L 144.25 -4608.25 
	C 144.25 -4647.95 176.551 -4680.25 216.25 -4680.25 
	L 4104.25 -4680.25 
	C 4143.95 -4680.25 4176.25 -4647.95 4176.25 -4608.25 
	Z 
	M 4104.25 -4770.25 
	L 216.25 -4770.25 
	C 126.922 -4770.25 54.25 -4697.58 54.25 -4608.25 
	L 54.25 575.75 
	C 54.25 665.082 126.922 737.75 216.25 737.75 
	L 4104.25 737.75 
	C 4193.58 737.75 4266.25 665.082 4266.25 575.75 
	L 4266.25 -4608.25 
	C 4266.25 -4697.58 4193.58 -4770.25 4104.25 -4770.25 
	Z 
	"/>
</g>
<g fill="#7f7f7f" fill-rule="nonzero" stroke-width="0" stroke-linejoin="miter" stroke-linecap="butt" stroke-miterlimit="4" >
	<path d="
	M 1958.21 -216.25 
	L 1682.82 -703.83 
	L 1682.82 -216.25 
	L 1569.13 -216.25 
	L 1569.13 -936.25 
	L 1682.82 -936.25 
	L 1945.58 -476.46 
	L 1945.58 -936.25 
	L 2059.27 -936.25 
	L 2059.27 -216.25 
	Z 
	"/>
</g>
<g fill="#7f7f7f" fill-rule="nonzero" stroke-width="0" stroke-linejoin="miter" stroke-linecap="butt" stroke-miterlimit="4" >
	<path d="
	M 3249.61 -260.08 
	C 3209.19 -224.71 3153.6 -204.5 3092.97 -204.5 
	C 2969.17 -204.5 2878.22 -277.76 2830.21 -386.39 
	L 2938.85 -426.81 
	C 2969.17 -358.6 3024.75 -320.71 3092.97 -320.71 
	C 3158.66 -320.71 3204.14 -366.18 3204.14 -426.81 
	C 3204.14 -522.81 3092.97 -537.97 2999.49 -575.86 
	C 2956.54 -593.55 2860.53 -636.49 2860.53 -755.23 
	C 2860.53 -896.71 2956.54 -949.76 3085.39 -949.76 
	C 3186.45 -949.76 3254.67 -891.66 3290.03 -803.23 
	L 3188.98 -772.92 
	C 3188.98 -772.92 3163.71 -833.55 3082.86 -836.07 
	C 3029.81 -838.6 2966.64 -818.39 2971.7 -752.71 
	C 2981.8 -618.81 3320.35 -707.23 3320.35 -424.29 
	C 3320.35 -358.6 3295.09 -300.5 3249.61 -260.08 
	Z 
	"/>
</g>
<g fill="#7f7f7f" fill-rule="nonzero" stroke-width="0" stroke-linejoin="miter" stroke-linecap="butt" stroke-miterlimit="4" >
	<path d="
	M 2547.88 -792.25 
	C 2530.2 -809.93 2504.94 -822.57 2474.61 -822.57 
	L 2345.76 -822.57 
	L 2345.76 -332.46 
	L 2459.46 -332.46 
	C 2497.36 -332.46 2520.09 -340.03 2540.3 -360.24 
	C 2583.26 -403.19 2605.99 -481.51 2605.99 -577.51 
	C 2605.99 -673.51 2583.26 -754.35 2547.88 -792.25 
	Z 
	M 2595.89 -256.67 
	C 2568.1 -231.4 2530.2 -218.77 2492.3 -216.25 
	C 2484.72 -216.25 2469.56 -216.25 2451.88 -216.25 
	L 2232.07 -216.25 
	L 2232.07 -936.25 
	L 2464.51 -936.25 
	C 2537.78 -936.25 2565.57 -928.67 2603.47 -898.35 
	C 2679.26 -832.67 2722.21 -718.98 2722.21 -577.51 
	C 2722.21 -433.51 2676.73 -319.82 2595.89 -256.67 
	Z 
	"/>
</g>
<g fill="#7f7f7f" fill-rule="nonzero" stroke-width="0" stroke-linejoin="miter" stroke-linecap="butt" stroke-miterlimit="4" >
	<path d="
	M 1000.15 -216.25 
	L 1000.15 -936.25 
	L 1424.02 -936.25 
	L 1424.02 -822.56 
	L 1113.68 -822.56 
	L 1113.68 -645.72 
	L 1323.1 -645.72 
	L 1323.1 -529.51 
	L 1113.68 -529.51 
	L 1113.68 -332.46 
	L 1446.73 -332.46 
	L 1446.73 -216.25 
	Z 
	"/>
</g>
<g fill="#7f7f7f" fill-rule="nonzero" stroke-width="0" stroke-linejoin="miter" stroke-linecap="butt" stroke-miterlimit="4" >
	<path d="
	M 2599.64 -1656.25 
	L 2324.25 -2143.83 
	L 2324.25 -1656.25 
	L 2210.56 -1656.25 
	L 2210.56 -2376.25 
	L 2324.25 -2376.25 
	L 2587 -1916.46 
	L 2587 -2376.25 
	L 2700.7 -2376.25 
	L 2700.7 -1656.25 
	Z 
	"/>
</g>
<g fill="#7f7f7f" fill-rule="nonzero" stroke-width="0" stroke-linejoin="miter" stroke-linecap="butt" stroke-miterlimit="4" >
	<path d="
	M 1000.42 -1656.25 
	L 1000.42 -2376.25 
	L 1113.95 -2376.25 
	L 1113.95 -1762.35 
	L 1447 -1762.35 
	L 1447 -1656.25 
	Z 
	"/>
</g>
<g fill="#7f7f7f" fill-rule="nonzero" stroke-width="0" stroke-linejoin="miter" stroke-linecap="butt" stroke-miterlimit="4" >
	<path d="
	M 2873.5 -1656.25 
	L 2873.5 -2376.25 
	L 3297.37 -2376.25 
	L 3297.37 -2262.56 
	L 2987.03 -2262.56 
	L 2987.03 -2085.72 
	L 3196.45 -2085.72 
	L 3196.45 -1969.51 
	L 2987.03 -1969.51 
	L 2987.03 -1772.46 
	L 3320.08 -1772.46 
	L 3320.08 -1656.25 
	Z 
	"/>
</g>
<g fill="#7f7f7f" fill-rule="nonzero" stroke-width="0" stroke-linejoin="miter" stroke-linecap="butt" stroke-miterlimit="4" >
	<path d="
	M 1797.65 -2176.67 
	L 1723.96 -1974.56 
	L 1868.79 -1974.56 
	Z 
	M 1980.59 -1656.25 
	L 1909.45 -1858.35 
	L 1683.31 -1858.35 
	L 1612.16 -1656.25 
	L 1490.2 -1656.25 
	L 1739.21 -2376.25 
	L 1853.55 -2376.25 
	L 2102.56 -1656.25 
	Z 
	"/>
</g>
<g fill="#7f7f7f" fill-rule="nonzero" stroke-width="0" stroke-linejoin="miter" stroke-linecap="butt" stroke-miterlimit="4" >
	<path d="
	M 471.219 -3096.25 
	L 471.219 -3816.25 
	L 810.727 -3816.25 
	L 810.727 -3715.2 
	L 575.094 -3715.2 
	L 575.094 -3533.3 
	L 724.582 -3533.3 
	L 724.582 -3434.78 
	L 575.094 -3434.78 
	L 575.094 -3197.3 
	L 838.598 -3197.3 
	L 838.598 -3096.25 
	Z 
	"/>
</g>
<g fill="#7f7f7f" fill-rule="nonzero" stroke-width="0" stroke-linejoin="miter" stroke-linecap="butt" stroke-miterlimit="4" >
	<path d="
	M 2502.34 -3096.25 
	L 2502.34 -3816.25 
	L 2841.85 -3816.25 
	L 2841.85 -3715.2 
	L 2606.22 -3715.2 
	L 2606.22 -3533.3 
	L 2755.71 -3533.3 
	L 2755.71 -3434.78 
	L 2606.22 -3434.78 
	L 2606.22 -3197.3 
	L 2869.72 -3197.3 
	L 2869.72 -3096.25 
	Z 
	"/>
</g>
<g fill="#7f7f7f" fill-rule="nonzero" stroke-width="0" stroke-linejoin="miter" stroke-linecap="butt" stroke-miterlimit="4" >
	<path d="
	M 1638.43 -3715.2 
	L 1532.54 -3715.2 
	L 1532.54 -3510.57 
	L 1638.43 -3510.57 
	C 1698.94 -3510.57 1731.71 -3548.46 1731.71 -3614.14 
	C 1731.71 -3674.78 1693.9 -3715.2 1638.43 -3715.2 
	Z 
	M 1643.48 -3412.04 
	L 1532.54 -3412.04 
	L 1532.54 -3096.25 
	L 1429.18 -3096.25 
	L 1429.18 -3816.25 
	L 1643.48 -3816.25 
	C 1756.92 -3816.25 1832.56 -3735.41 1832.56 -3614.14 
	C 1832.56 -3482.78 1764.49 -3412.04 1643.48 -3412.04 
	Z 
	"/>
</g>
<g fill="#7f7f7f" fill-rule="nonzero" stroke-width="0" stroke-linejoin="miter" stroke-linecap="butt" stroke-miterlimit="4" >
	<path d="
	M 2185.82 -3715.2 
	L 2079.93 -3715.2 
	L 2079.93 -3533.3 
	L 2185.82 -3533.3 
	C 2246.33 -3533.3 2279.1 -3566.14 2279.1 -3624.25 
	C 2279.1 -3679.83 2241.28 -3715.2 2185.82 -3715.2 
	Z 
	M 2274.06 -3096.25 
	L 2178.25 -3434.78 
	L 2079.93 -3434.78 
	L 2079.93 -3096.25 
	L 1976.56 -3096.25 
	L 1976.56 -3816.25 
	L 2190.86 -3816.25 
	C 2304.31 -3816.25 2379.94 -3740.46 2379.94 -3624.25 
	C 2379.94 -3538.36 2344.65 -3475.2 2276.58 -3449.93 
	L 2379.94 -3096.25 
	Z 
	"/>
</g>
<g fill="#7f7f7f" fill-rule="nonzero" stroke-width="0" stroke-linejoin="miter" stroke-linecap="butt" stroke-miterlimit="4" >
	<path d="
	M 3161.14 -3428.76 
	C 3129.99 -3448.94 3099.75 -3469.19 3080.43 -3482.78 
	C 3022.39 -3523.63 2991.64 -3578.78 2991.64 -3641.94 
	C 2991.64 -3745.51 3072.82 -3828.88 3176.84 -3828.88 
	C 3278.32 -3828.88 3356.97 -3750.57 3359.5 -3641.94 
	L 3260.56 -3641.94 
	C 3258.03 -3692.46 3222.5 -3725.3 3176.84 -3725.3 
	C 3128.64 -3725.3 3090.58 -3689.93 3090.58 -3641.94 
	C 3090.58 -3606.57 3105.81 -3586.36 3159.08 -3556.04 
	C 3298.61 -3475.2 3359.5 -3396.88 3359.5 -3293.3 
	C 3359.5 -3177.09 3270.71 -3083.62 3159.08 -3083.62 
	C 3032.23 -3083.62 2956.12 -3189.72 2956.12 -3308.46 
	L 3057.6 -3308.46 
	C 3057.6 -3247.83 3088.05 -3184.67 3159.08 -3184.67 
	C 3214.9 -3184.67 3260.56 -3235.2 3260.56 -3293.3 
	C 3260.56 -3338.42 3241.92 -3376.42 3161.14 -3428.76 
	Z 
	"/>
</g>
<g fill="#7f7f7f" fill-rule="nonzero" stroke-width="0" stroke-linejoin="miter" stroke-linecap="butt" stroke-miterlimit="4" >
	<path d="
	M 3650.92 -3428.76 
	C 3619.77 -3448.94 3589.52 -3469.19 3570.21 -3482.78 
	C 3512.17 -3523.63 3481.42 -3578.78 3481.42 -3641.94 
	C 3481.42 -3745.51 3562.6 -3828.88 3666.62 -3828.88 
	C 3768.1 -3828.88 3846.74 -3750.57 3849.28 -3641.94 
	L 3750.34 -3641.94 
	C 3747.8 -3692.46 3712.29 -3725.3 3666.62 -3725.3 
	C 3618.42 -3725.3 3580.36 -3689.93 3580.36 -3641.94 
	C 3580.36 -3606.57 3595.59 -3586.36 3648.86 -3556.04 
	C 3788.39 -3475.2 3849.28 -3396.88 3849.28 -3293.3 
	C 3849.28 -3177.09 3760.49 -3083.62 3648.86 -3083.62 
	C 3522.01 -3083.62 3445.9 -3189.72 3445.9 -3308.46 
	L 3547.38 -3308.46 
	C 3547.38 -3247.83 3577.83 -3184.67 3648.86 -3184.67 
	C 3704.67 -3184.67 3750.34 -3235.2 3750.34 -3293.3 
	C 3750.34 -3338.42 3731.69 -3376.42 3650.92 -3428.76 
	Z 
	"/>
</g>
<g fill="#7f7f7f" fill-rule="nonzero" stroke-width="0" stroke-linejoin="miter" stroke-linecap="butt" stroke-miterlimit="4" >
	<path d="
	M 1216.41 -3096.25 
	L 1114.62 -3341.3 
	L 1012.83 -3096.25 
	L 903.398 -3096.25 
	L 1061.18 -3470.15 
	L 913.578 -3816.25 
	L 1023.01 -3816.25 
	L 1114.62 -3598.99 
	L 1206.23 -3816.25 
	L 1315.66 -3816.25 
	L 1170.61 -3470.15 
	L 1328.38 -3096.25 
	Z 
	"/>
</g>
</g >
</g>
</svg>
