<?xml version="1.0" encoding="UTF-8" standalone="no"?>
<!-- Created with Inkscape (http://www.inkscape.org/) -->

<svg
   version="1.1"
   id="svg1"
   width="6912.6665"
   height="1728.6667"
   viewBox="0 0 6912.6665 1728.6667"
   sodipodi:docname="tmp6_n4bctu.pdf"
   xmlns:inkscape="http://www.inkscape.org/namespaces/inkscape"
   xmlns:sodipodi="http://sodipodi.sourceforge.net/DTD/sodipodi-0.dtd"
   xmlns="http://www.w3.org/2000/svg"
   xmlns:svg="http://www.w3.org/2000/svg">
  <defs
     id="defs1" />
  <sodipodi:namedview
     id="namedview1"
     pagecolor="#ffffff"
     bordercolor="#000000"
     borderopacity="0.25"
     inkscape:showpageshadow="2"
     inkscape:pageopacity="0.0"
     inkscape:pagecheckerboard="0"
     inkscape:deskcolor="#d1d1d1">
    <inkscape:page
       x="0"
       y="0"
       inkscape:label="1"
       id="page1"
       width="6912.6665"
       height="1728.6667"
       margin="0"
       bleed="0" />
  </sodipodi:namedview>
  <g
     id="g1"
     inkscape:groupmode="layer"
     inkscape:label="1">
    <g
       id="group-R5">
      <path
         id="path2"
         d="M 1082.5,1.19922 C 793.684,1.19922 522.156,113.699 317.945,317.902 113.723,522.199 1.25,793.699 1.25,1082.5 v 10800 c 0,288.8 112.473,560.3 316.695,764.6 204.211,204.2 475.739,316.7 764.555,316.7 h 49680 c 288.8,0 560.3,-112.5 764.6,-316.7 204.2,-204.3 316.7,-475.8 316.7,-764.6 v -10800 c 0,-288.801 -112.5,-560.301 -316.7,-764.598 C 51322.8,113.699 51051.3,1.19922 50762.5,1.19922 h -49680"
         style="fill:#ffffff;fill-opacity:1;fill-rule:nonzero;stroke:none"
         transform="matrix(0.13333333,0,0,-0.13333333,0,1728.6667)" />
      <path
         id="path3"
         d="m 50762.5,12965 h -49680 c -289.148,0 -560.992,-112.6 -765.445,-317.1 C 112.602,12443.5 0,12171.6 0,11882.5 v -5400 -5400 C 0,793.398 112.602,521.5 317.055,317.102 521.508,112.602 793.352,0 1082.5,0 h 24840 24840 c 289.1,0 561,112.602 765.4,317.102 204.5,204.398 317.1,476.296 317.1,765.398 v 5400 5400 c 0,289.1 -112.6,561 -317.1,765.4 -204.4,204.5 -476.3,317.1 -765.4,317.1 z m 0,-2.5 c 298.2,0 568.2,-120.9 763.7,-316.3 195.4,-195.5 316.3,-465.5 316.3,-763.7 v -5400 -5400 c 0,-298.199 -120.9,-568.199 -316.3,-763.699 C 51330.7,123.398 51060.7,2.5 50762.5,2.5 h -24840 -24840 C 784.262,2.5 514.262,123.398 318.824,318.801 123.383,514.301 2.5,784.301 2.5,1082.5 v 5400 5400 c 0,298.2 120.883,568.2 316.324,763.7 195.438,195.4 465.438,316.3 763.676,316.3 h 24840 24840"
         style="fill:#231f20;fill-opacity:1;fill-rule:nonzero;stroke:none"
         transform="matrix(0.13333333,0,0,-0.13333333,0,1728.6667)" />
      <path
         id="path4"
         d="m 51122.5,1082.5 c 0,-198.5 -161.5,-360 -360,-360 h -49680 c -198.508,0 -360,161.5 -360,360 v 10800 c 0,198.5 161.492,360 360,360 h 49680 c 198.5,0 360,-161.5 360,-360 z m -360,11610 h -49680 c -446.637,0 -810,-363.4 -810,-810 v -10800 c 0,-446.602 363.363,-810 810,-810 h 49680 c 446.6,0 810,363.398 810,810 v 10800 c 0,446.6 -363.4,810 -810,810"
         style="fill:#231f20;fill-opacity:1;fill-rule:nonzero;stroke:none"
         transform="matrix(0.13333333,0,0,-0.13333333,0,1728.6667)" />
      <path
         id="path5"
         d="M 4300.84,5987.14 H 5131.7 L 4706.2,7644.57 Z M 5334.01,5178.59 H 4098.53 L 3713.35,3602.51 h -830.86 l 1438.52,5759.98 h 811.41 l 1437.8,-5759.98 h -830.86 l -405.35,1576.08"
         style="fill:#231f20;fill-opacity:1;fill-rule:nonzero;stroke:none"
         transform="matrix(0.13333333,0,0,-0.13333333,0,1728.6667)" />
      <path
         id="path6"
         d="m 7376.8,9362.49 h 830.85 V 4370.75 H 10315.7 V 3602.51 H 7376.8 v 5759.98"
         style="fill:#231f20;fill-opacity:1;fill-rule:nonzero;stroke:none"
         transform="matrix(0.13333333,0,0,-0.13333333,0,1728.6667)" />
      <path
         id="path7"
         d="m 11122.3,9362.49 h 830.8 V 4370.75 h 2108.1 v -768.24 h -2938.9 v 5759.98"
         style="fill:#231f20;fill-opacity:1;fill-rule:nonzero;stroke:none"
         transform="matrix(0.13333333,0,0,-0.13333333,0,1728.6667)" />
      <path
         id="path8"
         d="m 19186.1,3602.5 h -830.9 v 4991.76 h -1054 v 768.24 h 2938.9 v -768.24 h -1054 V 3602.5"
         style="fill:#231f20;fill-opacity:1;fill-rule:nonzero;stroke:none"
         transform="matrix(0.13333333,0,0,-0.13333333,0,1728.6667)" />
      <path
         id="path9"
         d="m 21046.6,5276.5 v 4086 h 826.6 V 5219.62 c 0,-542.16 316.7,-910.08 806.3,-910.08 443.5,0 766.8,363.6 766.8,910.08 V 9362.5 h 827.2 V 5264.26 c 0,-1310.4 -1012.2,-1762.56 -1594,-1762.56 -532,0 -1632.9,346.32 -1632.9,1774.8"
         style="fill:#231f20;fill-opacity:1;fill-rule:nonzero;stroke:none"
         transform="matrix(0.13333333,0,0,-0.13333333,0,1728.6667)" />
      <path
         id="path10"
         d="M 26367.5,8553.94 V 7098.82 h 846.6 c 485.3,0 746.6,262.8 746.6,727.92 0,444.96 -302.4,727.2 -745.8,727.2 z m 786.9,-2243.52 h -786.9 V 3602.5 h -826.6 v 5760 h 1714.3 c 903.5,0 1512.6,-606.24 1512.6,-1535.76 0,-686.88 -282.9,-1192.32 -827.2,-1394.64 l 826.5,-2829.6 h -846 l -766.7,2707.92"
         style="fill:#231f20;fill-opacity:1;fill-rule:nonzero;stroke:none"
         transform="matrix(0.13333333,0,0,-0.13333333,0,1728.6667)" />
      <path
         id="path11"
         d="M 30573.7,7462.42 V 3602.5 h -826.5 v 5760 h 826.5 l 1573.1,-3456 v 3456 h 827.3 v -5760 h -624.9 l -1775.5,3859.92"
         style="fill:#231f20;fill-opacity:1;fill-rule:nonzero;stroke:none"
         transform="matrix(0.13333333,0,0,-0.13333333,0,1728.6667)" />
      <path
         id="path12"
         d="m 35605.8,7264.42 c 630,-395.28 1574.6,-948.96 1574.6,-2085.84 0,-932.4 -710.6,-1676.88 -1603.4,-1676.88 -1014.4,0 -1623.5,858.24 -1623.5,1798.56 h 812.1 c 0,-490.32 243.4,-990.72 811.4,-990.72 446.4,0 811.4,403.92 811.4,869.04 0,1252.08 -2150.5,1180.08 -2150.5,2789.28 0,828.72 649.4,1494.72 1481,1494.72 812.1,0 1441.4,-626.4 1461.5,-1495.44 h -792 c -20.1,403.92 -304.5,666.72 -669.5,666.72 -385.9,0 -689.7,-282.24 -689.7,-666 0,-374.4 198.7,-466.56 576.6,-703.44"
         style="fill:#231f20;fill-opacity:1;fill-rule:nonzero;stroke:none"
         transform="matrix(0.13333333,0,0,-0.13333333,0,1728.6667)" />
      <path
         id="path13"
         d="m 45595.5,5402.51 h -5535 v 2160 h 5535 v -2160"
         style="fill:#231f20;fill-opacity:1;fill-rule:nonzero;stroke:none"
         transform="matrix(0.13333333,0,0,-0.13333333,0,1728.6667)" />
      <path
         id="path14"
         d="m 44754.9,8901.45 c -9.8,33.6 -14.4,67.47 -14.4,100.79 0,198.82 161.2,360.02 360,360.02 70.2,0.06 141.1,-20.31 203.3,-62.92 L 49420.5,6482.26 45303.8,3665.18 c -62.2,-42.61 -133.1,-62.98 -203.3,-62.92 -198.8,0 -360,161.2 -360,360.02 0,33.32 4.6,67.19 14.4,100.79 l 705.6,2419.19 -705.6,2419.19"
         style="fill:#231f20;fill-opacity:1;fill-rule:nonzero;stroke:none"
         transform="matrix(0.13333333,0,0,-0.13333333,0,1728.6667)" />
    </g>
  </g>
</svg>
