<?xml version="1.0" encoding="UTF-8" standalone="no"?>
<!-- Created with Inkscape (http://www.inkscape.org/) -->

<svg
   version="1.1"
   id="svg1"
   width="4608.6665"
   height="5760.6665"
   viewBox="0 0 4608.6665 5760.6665"
   sodipodi:docname="tmpkwasu_ac.pdf"
   xmlns:inkscape="http://www.inkscape.org/namespaces/inkscape"
   xmlns:sodipodi="http://sodipodi.sourceforge.net/DTD/sodipodi-0.dtd"
   xmlns="http://www.w3.org/2000/svg"
   xmlns:svg="http://www.w3.org/2000/svg">
  <defs
     id="defs1" />
  <sodipodi:namedview
     id="namedview1"
     pagecolor="#ffffff"
     bordercolor="#000000"
     borderopacity="0.25"
     inkscape:showpageshadow="2"
     inkscape:pageopacity="0.0"
     inkscape:pagecheckerboard="0"
     inkscape:deskcolor="#d1d1d1">
    <inkscape:page
       x="0"
       y="0"
       inkscape:label="1"
       id="page1"
       width="4608.6665"
       height="5760.6665"
       margin="0"
       bleed="0" />
  </sodipodi:namedview>
  <g
     id="g1"
     inkscape:groupmode="layer"
     inkscape:label="1">
    <g
       id="group-R5">
      <path
         id="path2"
         d="m 34562.5,2162.5 c 0,-1192.898 -967.1,-2160 -2160,-2160 H 2162.5 C 969.566,2.5 2.5,969.602 2.5,2162.5 v 38880 c 0,1192.9 967.066,2160 2160,2160 h 30240 c 1192.9,0 2160,-967.1 2160,-2160 v -38880"
         style="fill:#ffffff;fill-opacity:1;fill-rule:nonzero;stroke:none"
         transform="matrix(0.13333333,0,0,-0.13333333,0,5760.6667)" />
      <path
         id="path3"
         d="m 34562.5,2162.5 c 0,-1192.898 -967.1,-2160 -2160,-2160 H 2162.5 C 969.566,2.5 2.5,969.602 2.5,2162.5 v 38880 c 0,1192.9 967.066,2160 2160,2160 h 30240 c 1192.9,0 2160,-967.1 2160,-2160 z"
         style="fill:none;stroke:#231f20;stroke-width:5;stroke-linecap:butt;stroke-linejoin:miter;stroke-miterlimit:4;stroke-dasharray:none;stroke-opacity:1"
         transform="matrix(0.13333333,0,0,-0.13333333,0,5760.6667)" />
      <path
         id="path4"
         d="m 33122.5,2162.5 c 0,-397 -323,-720 -720,-720 h -30240 c -397.01,0 -720,323 -720,720 v 38880 c 0,397 322.99,720 720,720 h 30240 c 397,0 720,-323 720,-720 z m -720,40500 h -30240 c -893.27,0 -1620,-726.7 -1620,-1620 v -38880 c 0,-893.3 726.73,-1620 1620,-1620 h 30240 c 893.3,0 1620,726.7 1620,1620 v 38880 c 0,893.3 -726.7,1620 -1620,1620"
         style="fill:#231f20;fill-opacity:1;fill-rule:nonzero;stroke:none"
         transform="matrix(0.13333333,0,0,-0.13333333,0,5760.6667)" />
      <path
         id="path5"
         d="m 20088.6,11568 c -141.1,404.2 -383.2,586.1 -746.2,586.1 h -685.7 V 8010.9 h 685.7 c 484.1,0 746.2,384 826.9,828.6 40.4,363.8 80.7,768 80.7,1212.7 0,646.7 -60.5,1273.2 -161.4,1515.8 z m 141.2,-4102.8 c -201.7,-181.9 -484,-262.7 -806.7,-262.7 h -1593.4 v 5760 h 1472.4 c 484,0 726,-60.6 927.7,-222.3 342.9,-242.5 584.9,-687.2 685.8,-1273.3 80.7,-424.4 141.2,-929.7 141.2,-1374.3 0,-1333.9 -262.2,-2182.7 -827,-2627.4"
         style="fill:#231f20;fill-opacity:1;fill-rule:nonzero;stroke:none"
         transform="matrix(0.13333333,0,0,-0.13333333,0,5760.6667)" />
      <path
         id="path6"
         d="m 9417.22,7202.5 v 5760 h 2716.08 v -808.4 h -1885.1 v -1455.2 h 1195.9 V 9910.7 H 10248.2 V 8010.9 h 2108 V 7202.5 H 9417.22"
         style="fill:#231f20;fill-opacity:1;fill-rule:nonzero;stroke:none"
         transform="matrix(0.13333333,0,0,-0.13333333,0,5760.6667)" />
      <path
         id="path7"
         d="m 15937.3,7202.5 -1774.9,3860.2 V 7202.5 h -826.9 v 5760 h 826.9 l 1573.2,-3456 v 3456 h 826.9 v -5760 h -625.2"
         style="fill:#231f20;fill-opacity:1;fill-rule:nonzero;stroke:none"
         transform="matrix(0.13333333,0,0,-0.13333333,0,5760.6667)" />
      <path
         id="path8"
         d="m 23560.9,9862.5 c -249.2,161.5 -491.2,323.5 -645.7,432.2 -464.3,326.9 -710.3,768 -710.3,1273.3 0,828.6 649.4,1495.5 1481.6,1495.5 811.8,0 1441,-626.5 1461.3,-1495.5 h -791.5 c -20.3,404.2 -304.5,666.9 -669.8,666.9 -385.6,0 -690.1,-282.9 -690.1,-666.9 0,-283 121.8,-444.7 548,-687.2 1116.3,-646.7 1603.4,-1273.3 1603.4,-2101.9 0,-929.7 -710.4,-1677.5 -1603.4,-1677.5 -1014.8,0 -1623.6,848.9 -1623.6,1798.8 h 811.8 c 0,-485.1 243.5,-990.4 811.8,-990.4 446.5,0 811.9,404.3 811.9,869.1 0,360.9 -149.2,664.9 -795.4,1083.6"
         style="fill:#231f20;fill-opacity:1;fill-rule:nonzero;stroke:none"
         transform="matrix(0.13333333,0,0,-0.13333333,0,5760.6667)" />
      <path
         id="path9"
         d="m 21120.2,19308.6 c -126,-417.8 -507.8,-687.2 -1015.7,-687.2 -589.1,0 -954.7,242.6 -1137.5,768 -162.5,485.1 -243.8,1273.3 -243.8,2203 0,525.5 61,1293.5 142.2,1738.1 162.5,889.3 507.8,1232.8 1198.5,1232.8 650,0 1076.6,-404.2 1137.6,-1111.5 h -751.6 c -20.4,242.5 -162.6,363.7 -365.7,363.7 -264.1,0 -406.3,-181.9 -487.5,-565.9 -101.6,-464.8 -121.9,-889.2 -121.9,-1657.2 0,-808.4 20.3,-1152 121.9,-1637.1 81.2,-384 223.4,-586.1 467.2,-586.1 264.1,0 386,202.1 386,707.4 h 751.6 c 0,-444.7 -20.4,-565.9 -81.3,-768"
         style="fill:#231f20;fill-opacity:1;fill-rule:nonzero;stroke:none"
         transform="matrix(0.13333333,0,0,-0.13333333,0,5760.6667)" />
      <path
         id="path10"
         d="m 5743.05,18722.5 v 5760 h 2109.87 v -747.8 H 6466.44 v -1475.4 h 924.31 v -768 h -924.31 v -2021 h 1466.85 v -747.8 H 5743.05"
         style="fill:#231f20;fill-opacity:1;fill-rule:nonzero;stroke:none"
         transform="matrix(0.13333333,0,0,-0.13333333,0,5760.6667)" />
      <path
         id="path11"
         d="m 17153.6,18722.5 v 5760 h 748.8 v -5760 h -748.8"
         style="fill:#231f20;fill-opacity:1;fill-rule:nonzero;stroke:none"
         transform="matrix(0.13333333,0,0,-0.13333333,0,5760.6667)" />
      <path
         id="path12"
         d="m 24471.7,18722.5 v 5760 h 748.8 v -5760 h -748.8"
         style="fill:#231f20;fill-opacity:1;fill-rule:nonzero;stroke:none"
         transform="matrix(0.13333333,0,0,-0.13333333,0,5760.6667)" />
      <path
         id="path13"
         d="m 31366.8,18722.5 -1128.3,3415.6 v -3415.6 h -725.3 v 5760 h 725.3 L 31266,21612.6 v 2869.9 h 725.4 v -5760 h -624.6"
         style="fill:#231f20;fill-opacity:1;fill-rule:nonzero;stroke:none"
         transform="matrix(0.13333333,0,0,-0.13333333,0,5760.6667)" />
      <path
         id="path14"
         d="m 27367.2,23815.5 c -666.9,0 -576.1,-1798.7 -576.1,-2202.9 0,-384 -90.8,-2243.4 576.1,-2243.4 646.8,0 556,1859.4 556,2243.4 0,464.8 -10.3,2202.9 -556,2202.9 z m 0,-5194.1 c -1434.9,0 -1323.9,2041.3 -1323.9,2991.2 0,990.3 -90.8,2950.7 1323.9,2950.7 1414.8,0 1324,-1980.6 1324,-2950.7 0,-949.9 90.8,-2991.2 -1324,-2991.2"
         style="fill:#231f20;fill-opacity:1;fill-rule:nonzero;stroke:none"
         transform="matrix(0.13333333,0,0,-0.13333333,0,5760.6667)" />
      <path
         id="path15"
         d="m 3656,23734.7 h -354.12 v -1576.4 h 475.49 c 404.59,0 525.98,181.9 525.98,727.5 0,646.8 -141.61,848.9 -647.35,848.9 z m 788.95,-2142.3 586.66,-2869.9 h -748.49 l -647.36,2688 h -333.88 v -2688 H 2573.6 v 5760 h 1122.86 c 890.1,0 1355.39,-545.7 1355.39,-1616.9 0,-646.7 -182.07,-1010.5 -606.9,-1273.2"
         style="fill:#231f20;fill-opacity:1;fill-rule:nonzero;stroke:none"
         transform="matrix(0.13333333,0,0,-0.13333333,0,5760.6667)" />
      <path
         id="path16"
         d="m 15066.6,23734.7 h -354.1 v -1576.4 h 475.4 c 404.6,0 526,181.9 526,727.5 0,646.8 -141.6,848.9 -647.3,848.9 z m 788.9,-2142.3 586.7,-2869.9 h -748.5 l -647.4,2688 h -333.8 v -2688 h -728.3 v 5760 H 15107 c 890.1,0 1355.4,-545.7 1355.4,-1616.9 0,-646.7 -182.1,-1010.5 -606.9,-1273.2"
         style="fill:#231f20;fill-opacity:1;fill-rule:nonzero;stroke:none"
         transform="matrix(0.13333333,0,0,-0.13333333,0,5760.6667)" />
      <path
         id="path17"
         d="m 10560.3,21208.4 c 166.3,-356.9 283.2,-848.9 283.2,-1253.1 0,-404.2 -182,-828.6 -465.3,-1071.1 -182,-161.7 -440.01,-262.8 -743.45,-262.8 -809.18,0 -1229.02,525.5 -1269.47,1536 h 748.5 c 0,-222.3 20.21,-303.1 60.68,-424.4 60.69,-222.3 237.75,-363.8 460.29,-363.8 283.21,0 460.25,222.3 460.25,586.1 0,505.3 -177.04,929.7 -622.09,1455.2 -263,303.1 -440.06,525.4 -500.74,606.3 -323.67,384 -465.29,788.2 -465.29,1192.4 0,788.2 480.51,1354.1 1168.32,1354.1 708,0 1087.4,-444.6 1168.3,-1354.1 H 10095 c -20.2,444.7 -136.59,626.6 -399.57,626.6 -283.22,0 -440.05,-242.6 -440.05,-626.6 0,-262.7 96.14,-464.8 399.6,-788.2 627.12,-707.4 733.52,-843.9 905.32,-1212.6"
         style="fill:#231f20;fill-opacity:1;fill-rule:nonzero;stroke:none"
         transform="matrix(0.13333333,0,0,-0.13333333,0,5760.6667)" />
      <path
         id="path18"
         d="m 12627.4,23734.7 v -5012.2 h -726.7 v 5012.2 h -711.6 v 747.8 h 2190.3 v -747.8 h -752"
         style="fill:#231f20;fill-opacity:1;fill-rule:nonzero;stroke:none"
         transform="matrix(0.13333333,0,0,-0.13333333,0,5760.6667)" />
      <path
         id="path19"
         d="m 23115,23734.7 v -5012.2 h -726.8 v 5012.2 h -711.5 v 747.8 h 2190.2 v -747.8 H 23115"
         style="fill:#231f20;fill-opacity:1;fill-rule:nonzero;stroke:none"
         transform="matrix(0.13333333,0,0,-0.13333333,0,5760.6667)" />
      <path
         id="path20"
         d="m 3770.25,30242.5 v 5760 H 6486.3 v -808.4 H 4601.26 v -1455.2 h 1195.9 v -788.2 h -1195.9 v -1899.8 h 2108.01 v -808.4 H 3770.25"
         style="fill:#231f20;fill-opacity:1;fill-rule:nonzero;stroke:none"
         transform="matrix(0.13333333,0,0,-0.13333333,0,5760.6667)" />
      <path
         id="path21"
         d="m 20019.2,30242.5 v 5760 h 2716.1 v -808.4 h -1885 v -1455.2 h 1195.9 v -788.2 h -1195.9 v -1899.8 h 2108 v -808.4 h -2939.1"
         style="fill:#231f20;fill-opacity:1;fill-rule:nonzero;stroke:none"
         transform="matrix(0.13333333,0,0,-0.13333333,0,5760.6667)" />
      <path
         id="path22"
         d="m 13107.9,35194.1 h -847.1 V 33557 h 847.1 c 484.1,0 746.3,303.2 746.3,828.6 0,485.1 -302.5,808.5 -746.3,808.5 z m 40.4,-2425.3 h -887.5 v -2526.3 h -826.9 v 5760 h 1714.4 c 907.6,0 1512.6,-646.7 1512.6,-1616.9 0,-1050.9 -544.5,-1616.8 -1512.6,-1616.8"
         style="fill:#231f20;fill-opacity:1;fill-rule:nonzero;stroke:none"
         transform="matrix(0.13333333,0,0,-0.13333333,0,5760.6667)" />
      <path
         id="path23"
         d="m 17487,35194.1 h -847.1 v -1455.2 h 847.1 c 484.1,0 746.3,262.7 746.3,727.6 0,444.6 -302.6,727.6 -746.3,727.6 z m 705.9,-4951.6 -766.4,2708.2 h -786.6 V 30242.5 H 15813 v 5760 h 1714.3 c 907.7,0 1512.7,-606.3 1512.7,-1536 0,-687.2 -282.3,-1192.4 -826.9,-1394.5 l 826.9,-2829.5 h -847.1"
         style="fill:#231f20;fill-opacity:1;fill-rule:nonzero;stroke:none"
         transform="matrix(0.13333333,0,0,-0.13333333,0,5760.6667)" />
      <path
         id="path24"
         d="m 25289.6,32902.5 c -249.2,161.5 -491.2,323.5 -645.6,432.2 -464.4,326.9 -710.4,768 -710.4,1273.3 0,828.6 649.5,1495.6 1481.6,1495.6 811.8,0 1441,-626.6 1461.3,-1495.6 h -791.6 c -20.2,404.2 -304.4,666.9 -669.7,666.9 -385.6,0 -690.1,-282.9 -690.1,-666.9 0,-283 121.8,-444.7 548,-687.2 1116.3,-646.7 1603.4,-1273.3 1603.4,-2101.9 0,-929.7 -710.3,-1677.5 -1603.4,-1677.5 -1014.8,0 -1623.6,848.9 -1623.6,1798.8 h 811.8 c 0,-485.1 243.5,-990.3 811.8,-990.3 446.5,0 811.8,404.2 811.8,869 0,361 -149.1,665 -795.3,1083.6"
         style="fill:#231f20;fill-opacity:1;fill-rule:nonzero;stroke:none"
         transform="matrix(0.13333333,0,0,-0.13333333,0,5760.6667)" />
      <path
         id="path25"
         d="m 29207.8,32902.5 c -249.2,161.5 -491.1,323.5 -645.6,432.2 -464.4,326.9 -710.4,768 -710.4,1273.3 0,828.6 649.5,1495.5 1481.6,1495.5 811.9,0 1441,-626.5 1461.3,-1495.5 h -791.5 c -20.3,404.2 -304.4,666.9 -669.8,666.9 -385.6,0 -690,-282.9 -690,-666.9 0,-283 121.7,-444.7 548,-687.2 1116.2,-646.7 1603.3,-1273.3 1603.3,-2101.9 0,-929.7 -710.3,-1677.5 -1603.3,-1677.5 -1014.8,0 -1623.7,848.9 -1623.7,1798.8 h 811.8 c 0,-485.1 243.6,-990.3 811.9,-990.3 446.5,0 811.8,404.2 811.8,869 0,361 -149.2,665 -795.4,1083.6"
         style="fill:#231f20;fill-opacity:1;fill-rule:nonzero;stroke:none"
         transform="matrix(0.13333333,0,0,-0.13333333,0,5760.6667)" />
      <path
         id="path26"
         d="m 9731.78,30242.5 -814.34,1960.4 -814.31,-1960.4 H 7227.7 l 1262.2,2991.2 -1180.78,2768.8 h 875.43 l 732.89,-1738.1 732.91,1738.1 h 875.45 L 9365.33,33233.7 10627.5,30242.5 h -895.72"
         style="fill:#231f20;fill-opacity:1;fill-rule:nonzero;stroke:none"
         transform="matrix(0.13333333,0,0,-0.13333333,0,5760.6667)" />
    </g>
  </g>
</svg>
