<?xml version="1.0" encoding="UTF-8" standalone="no"?>
<!-- Created with Inkscape (http://www.inkscape.org/) -->

<svg
   version="1.1"
   id="svg1"
   width="2880.6667"
   height="2304.6667"
   viewBox="0 0 2880.6667 2304.6667"
   sodipodi:docname="tmpz70zx9x9.pdf"
   xmlns:inkscape="http://www.inkscape.org/namespaces/inkscape"
   xmlns:sodipodi="http://sodipodi.sourceforge.net/DTD/sodipodi-0.dtd"
   xmlns="http://www.w3.org/2000/svg"
   xmlns:svg="http://www.w3.org/2000/svg">
  <defs
     id="defs1" />
  <sodipodi:namedview
     id="namedview1"
     pagecolor="#ffffff"
     bordercolor="#000000"
     borderopacity="0.25"
     inkscape:showpageshadow="2"
     inkscape:pageopacity="0.0"
     inkscape:pagecheckerboard="0"
     inkscape:deskcolor="#d1d1d1">
    <inkscape:page
       x="0"
       y="0"
       inkscape:label="1"
       id="page1"
       width="2880.6667"
       height="2304.6667"
       margin="0"
       bleed="0" />
  </sodipodi:namedview>
  <g
     id="g1"
     inkscape:groupmode="layer"
     inkscape:label="1">
    <g
       id="group-R5">
      <path
         id="path2"
         d="M 21602.5,1082.5 C 21602.5,486 21119,2.5 20522.5,2.5 H 1082.5 C 486.031,2.5 2.5,486 2.5,1082.5 v 15120 c 0,596.5 483.531,1080 1080,1080 h 19440 c 596.5,0 1080,-483.5 1080,-1080 v -15120"
         style="fill:#ffffff;fill-opacity:1;fill-rule:nonzero;stroke:none"
         transform="matrix(0.13333333,0,0,-0.13333333,0,2304.6667)" />
      <path
         id="path3"
         d="M 21602.5,1082.5 C 21602.5,486 21119,2.5 20522.5,2.5 H 1082.5 C 486.031,2.5 2.5,486 2.5,1082.5 v 15120 c 0,596.5 483.531,1080 1080,1080 h 19440 c 596.5,0 1080,-483.5 1080,-1080 z"
         style="fill:none;stroke:#231f20;stroke-width:5;stroke-linecap:butt;stroke-linejoin:miter;stroke-miterlimit:4;stroke-dasharray:none;stroke-opacity:1"
         transform="matrix(0.13333333,0,0,-0.13333333,0,2304.6667)" />
      <path
         id="path4"
         d="M 14102.7,4328.8 13849.5,3293 h 519.2 z m 645.9,-2526.3 -253.3,985.3 h -772.5 l -240.6,-985.3 h -519.3 l 899.2,3600 h 506.6 l 899.2,-3600 h -519.3"
         style="fill:#231f20;fill-opacity:1;fill-rule:nonzero;stroke:none"
         transform="matrix(0.13333333,0,0,-0.13333333,0,2304.6667)" />
      <path
         id="path5"
         d="M 2868.99,3432 H 2352.16 V 2307.8 h 516.83 c 289.93,0 479.02,202.1 479.02,517.9 0,341 -214.3,606.3 -479.02,606.3 z m 25.21,1465.2 h -542.04 v -960 h 542.04 c 239.51,0 390.78,202.2 390.78,530.6 0,303.1 -113.45,429.4 -390.78,429.4 z m 0,-3094.7 H 1835.33 v 3600 h 1134.51 c 479.01,0 819.36,-378.9 819.36,-934.7 0,-328.4 -88.23,-480 -378.16,-783.2 277.31,-227.3 441.19,-530.5 441.19,-896.8 0,-543.2 -428.59,-985.3 -958.03,-985.3"
         style="fill:#231f20;fill-opacity:1;fill-rule:nonzero;stroke:none"
         transform="matrix(0.13333333,0,0,-0.13333333,0,2304.6667)" />
      <path
         id="path6"
         d="m 7381.15,1802.5 v 3600 H 9078.68 V 4897.2 H 7900.53 v -909.4 h 747.43 V 3495.1 H 7900.53 V 2307.8 h 1317.5 V 1802.5 H 7381.15"
         style="fill:#231f20;fill-opacity:1;fill-rule:nonzero;stroke:none"
         transform="matrix(0.13333333,0,0,-0.13333333,0,2304.6667)" />
      <path
         id="path7"
         d="m 17932.8,1802.5 v 3600 h 1697.5 v -505.3 h -1178.1 v -909.4 h 747.4 v -492.7 h -747.4 V 2307.8 h 1317.5 v -505.3 h -1836.9"
         style="fill:#231f20;fill-opacity:1;fill-rule:nonzero;stroke:none"
         transform="matrix(0.13333333,0,0,-0.13333333,0,2304.6667)" />
      <path
         id="path8"
         d="m 4158.24,1802.5 v 3600 h 503.99 v -3600 h -503.99"
         style="fill:#231f20;fill-opacity:1;fill-rule:nonzero;stroke:none"
         transform="matrix(0.13333333,0,0,-0.13333333,0,2304.6667)" />
      <path
         id="path9"
         d="M 6533.1,1802.5 5902.82,3558.3 5575.06,2952 V 1802.5 h -516.82 v 3600 h 516.82 v -1440 l 819.37,1440 H 6986.9 L 6243.17,4139.3 7075.13,1802.5 H 6533.1"
         style="fill:#231f20;fill-opacity:1;fill-rule:nonzero;stroke:none"
         transform="matrix(0.13333333,0,0,-0.13333333,0,2304.6667)" />
      <path
         id="path10"
         d="m 11018,1802.5 v 3600 h 519.4 v -3120 h 1317.5 v -480 H 11018"
         style="fill:#231f20;fill-opacity:1;fill-rule:nonzero;stroke:none"
         transform="matrix(0.13333333,0,0,-0.13333333,0,2304.6667)" />
      <path
         id="path11"
         d="M 17146,1802.5 16036.7,4215.1 V 1802.5 h -516.8 v 3600 h 516.8 l 983.2,-2160 v 2160 h 516.9 v -3600 H 17146"
         style="fill:#231f20;fill-opacity:1;fill-rule:nonzero;stroke:none"
         transform="matrix(0.13333333,0,0,-0.13333333,0,2304.6667)" />
      <path
         id="path12"
         d="m 12894.6,10286.1 1671.7,360 -1028,1366.4 c -403.7,-371.3 -656.8,-904 -656.8,-1495.7 0,-78.1 4.6,-155 13.1,-230.7"
         style="fill:#231f20;fill-opacity:1;fill-rule:nonzero;stroke:none"
         transform="matrix(0.13333333,0,0,-0.13333333,0,2304.6667)" />
      <path
         id="path13"
         d="m 15178.4,10516.8 c 0,-146.5 -118.7,-265.2 -265.1,-265.2 -46.8,0 -90.7,12.1 -128.8,33.3 L 12978.2,9895.93 C 13240.6,9077.5 14007.7,8485 14913.3,8485 c 1122.1,0 2031.7,909.66 2031.7,2031.8 0,1122.1 -909.6,2031.7 -2031.7,2031.7 -386.9,0 -748.5,-108.2 -1056.3,-295.9 l 1110.6,-1476.3 c 120.4,-25 210.8,-131.7 210.8,-259.5"
         style="fill:#231f20;fill-opacity:1;fill-rule:nonzero;stroke:none"
         transform="matrix(0.13333333,0,0,-0.13333333,0,2304.6667)" />
      <path
         id="path14"
         d="m 12430.8,10186.2 c -14.3,108.2 -21.8,218.5 -21.8,330.6 0,746.1 326.4,1415.9 844.2,1874.7 l -694.6,923.2 -922.6,-3299.7 794.8,171.2"
         style="fill:#231f20;fill-opacity:1;fill-rule:nonzero;stroke:none"
         transform="matrix(0.13333333,0,0,-0.13333333,0,2304.6667)" />
      <path
         id="path15"
         d="m 6691.75,8485 c 1122.1,0 2031.75,909.66 2031.75,2031.8 0,576.1 -239.84,1096.1 -625.07,1465.9 -156.55,-316.1 -361.83,-607.4 -526.59,-818.2 -221.49,-283.3 -445.43,-519.8 -616.99,-680.4 -16.12,-131 -127.72,-232.5 -263.09,-232.5 -146.46,0 -265.19,118.7 -265.19,265.2 0,145.7 117.63,264 263.15,265.1 350.6,328.6 837.24,911.7 1086.79,1453 -313.88,198.6 -685.86,313.6 -1084.76,313.6 C 5569.65,12548.5 4660,11638.9 4660,10516.8 4660,9394.66 5569.65,8485 6691.75,8485"
         style="fill:#231f20;fill-opacity:1;fill-rule:nonzero;stroke:none"
         transform="matrix(0.13333333,0,0,-0.13333333,0,2304.6667)" />
      <path
         id="path16"
         d="M 11002.2,10761 H 10760 v 189 h 608.4 v -189 h -192.5 l 123.3,-468.8 913.7,3267.5 H 8635.8 c -43.04,-139.2 -86.53,-279 -129.03,-414.6 l 2617.73,-2849.1 -122.3,465"
         style="fill:#231f20;fill-opacity:1;fill-rule:nonzero;stroke:none"
         transform="matrix(0.13333333,0,0,-0.13333333,0,2304.6667)" />
      <path
         id="path17"
         d="m 20882.5,1082.5 c 0,-198.5 -161.5,-360 -360,-360 h -19440 c -198.508,0 -360,161.5 -360,360 v 5400 h 20160 z M 6691.75,13021 c 455.41,0 882.39,-121.6 1250.33,-334.1 211.65,649.4 538.7,1726.5 677.14,2185 l -298.9,228.5 466.27,472.1 h 1086.66 v -315 h -955.04 l -122.53,-124 259.34,-198.4 c -16.98,-56.4 -51.34,-170.5 -97.25,-322.2 -53.71,-177.4 -123.23,-406.2 -199.2,-654.2 h 3565.83 l 70.6,252.4 c -395.9,37.9 -960.7,173.3 -966,339.4 -5.1,162.1 878.3,158.1 1044.8,160.3 607.2,7.7 1153.2,154.7 1171.3,-41.5 18.6,-202.4 -285.7,-411.6 -836,-458.9 l -115.2,-411.8 877.9,-1166.9 c 387.8,246.5 847.9,389.3 1341.5,389.3 1383,0 2504.2,-1121.2 2504.2,-2504.2 0,-1383.11 -1121.2,-2504.3 -2504.2,-2504.3 -1132.5,0 -2089.3,751.83 -2398.8,1783.54 l -907.4,-195.42 c -24.5,-41.15 -58.7,-75.81 -99.5,-100.76 l 199.9,-760.13 h 242.2 v -189.01 h -608.4 v 189.01 h 192.5 l -188.7,717.51 c -157.5,5.16 -283.6,134.38 -283.6,293.12 0,7.86 0.4,15.64 1,23.35 L 8367.79,12706.6 c -29.7,-92.4 -57.81,-178.8 -83.68,-257 C 8841,11990.3 9196,11295 9196,10516.8 9196,9133.69 8074.8,8012.5 6691.75,8012.5 c -1383.06,0 -2504.25,1121.19 -2504.25,2504.3 0,1383 1121.19,2504.2 2504.25,2504.2 z m 13830.75,3991.5 h -19440 c -446.637,0 -810,-363.4 -810,-810 v -15120 c 0,-446.598 363.363,-810 810,-810 h 19440 c 446.6,0 810,363.402 810,810 v 15120 c 0,446.6 -363.4,810 -810,810"
         style="fill:#231f20;fill-opacity:1;fill-rule:nonzero;stroke:none"
         transform="matrix(0.13333333,0,0,-0.13333333,0,2304.6667)" />
    </g>
  </g>
</svg>
