<?xml version="1.0" encoding="UTF-8"?>
<svg id="For_Sheets" xmlns="http://www.w3.org/2000/svg" version="1.1" viewBox="0 0 3456 4320">
  <!-- Generator: Adobe Illustrator 29.1.0, SVG Export Plug-In . SVG Version: 2.1.0 Build 142)  -->
  <defs>
    <style>
      .st0 {
        fill: #231f20;
      }

      .st1 {
        fill: #fff;
      }
    </style>
  </defs>
  <g>
    <path class="st1" d="M216,4320.1c-57.7,0-112-22.5-152.8-63.3C22.4,4216-.1,4161.7-.1,4104V216C-.1,158.3,22.4,104,63.2,63.2,104,22.4,158.3-.1,216-.1s0,0,0,0h3024c57.7,0,112,22.5,152.8,63.3,40.8,40.8,63.3,95.1,63.3,152.8v3888c0,57.7-22.5,112-63.3,152.8-40.8,40.8-95.1,63.3-152.8,63.3H216Z"/>
    <path class="st0" d="M3240,0c119.3,0,216,96.7,216,216v3888c0,119.3-96.7,216-216,216H216c-119.3,0-216-96.7-216-216V216C0,96.7,96.7,0,216,0h3024M3240-.2H216c-29.2,0-57.5,5.7-84.2,17-25.8,10.9-48.9,26.5-68.7,46.3-19.9,19.9-35.5,43-46.3,68.7C5.5,158.5-.2,186.8-.2,216v3888c0,29.2,5.7,57.5,17,84.2,10.9,25.8,26.5,48.9,46.3,68.7,19.9,19.9,43,35.5,68.7,46.3,26.7,11.3,55,17,84.2,17h3024c29.2,0,57.5-5.7,84.2-17,25.8-10.9,48.9-26.5,68.7-46.3,19.9-19.9,35.5-43,46.3-68.7,11.3-26.7,17-55,17-84.2V216c0-29.2-5.7-57.5-17-84.2-10.9-25.8-26.5-48.9-46.3-68.7-19.9-19.9-43-35.5-68.7-46.3-26.7-11.3-55-17-84.2-17h0Z"/>
  </g>
  <path class="st0" d="M3240,54H216c-89.3,0-162,72.7-162,162v3888c0,89.3,72.7,162,162,162h3024c89.3,0,162-72.7,162-162V216c0-89.3-72.7-162-162-162ZM3312,4104c0,39.7-32.3,72-72,72H216c-39.7,0-72-32.3-72-72V216c0-39.7,32.3-72,72-72h3024c39.7,0,72,32.3,72,72v3888Z"/>
  <g>
    <path class="st0" d="M1000.5,1296v-720h226.9c95.6,0,163.9,75.8,163.9,186.9s-17.6,96-75.6,156.7c55.4,45.5,88.2,106.1,88.2,179.4,0,107.7-85.8,197-191.6,197h-211.8ZM1103.8,677.1v192h108.4c48.1,0,78.2-40.4,78.2-106.1s-22.2-85.9-78.1-85.9h-108.4ZM1103.8,1194.9h103.3c58,0,95.8-40.4,95.8-103.6s-41.7-121.2-95.8-121.2h-103.4v224.8Z"/>
    <path class="st0" d="M1526.3,1086.8v-510.8h103.3v517.9c0,67.8,39.6,113.8,100.8,113.8s95.8-45.4,95.8-113.8v-517.9h103.4v512.3c0,163.8-126.5,220.3-199.3,220.3s-204.1-43.3-204.1-221.9Z"/>
    <path class="st0" d="M2258.7,838.3c78.7,49.4,196.8,118.6,196.8,260.7s-88.8,209.6-200.4,209.6-202.9-107.3-202.9-224.8h101.5c0,61.3,30.4,123.8,101.4,123.8s101.4-50.5,101.4-108.6c0-156.5-268.8-147.5-268.8-348.7s81.2-186.8,185.1-186.8,180.2,78.3,182.7,186.9h-99c-2.5-50.5-38.1-83.3-83.7-83.3s-86.2,35.3-86.2,83.3,24.8,58.3,72.1,87.9Z"/>
  </g>
  <g>
    <path class="st0" d="M777.2,1800h103.9v624h263.5v96h-367.4v-720Z"/>
    <path class="st0" d="M1494.3,2323h-154.4l-48.1,197h-103.9l179.8-720h101.4l179.7,720h-103.9l-50.7-197ZM1365.1,2221.9h103.9l-53.2-207.2-50.7,207.2Z"/>
    <path class="st0" d="M1852.9,2037.5v482.5h-103.3v-720h103.3l196.6,432v-432h103.4v720h-78.1l-221.9-482.5Z"/>
    <path class="st0" d="M2311.4,1800h339.5v101.1h-235.6v181.9h149.4v98.5h-149.4v237.5h263.5v101h-367.4v-720Z"/>
  </g>
  <g>
    <path class="st0" d="M774,3547h-154.4l-48.1,197h-103.9l179.8-720h101.4l179.7,720h-103.9l-50.7-197ZM644.8,3445.9h103.9l-53.2-207.2-50.7,207.2Z"/>
    <path class="st0" d="M1329.4,3418.1h-196.7v325.9h-103.3v-720h103.3v293h196.6v-293h103.4v720h-103.3v-325.9Z"/>
    <path class="st0" d="M1591.1,3024h339.5v101.1h-235.6v181.9h149.4v98.5h-149.4v237.5h263.5v101h-367.4v-720Z"/>
    <path class="st0" d="M2329.8,3547h-154.4l-48.1,197h-103.9l179.8-720h101.4l179.7,720h-103.9l-50.7-197ZM2200.6,3445.9h103.9l-53.2-207.2-50.7,207.2Z"/>
    <path class="st0" d="M2585.1,3744v-720h205.5c43.9,0,197.9,2.2,197.9,358.7s-142.2,361.3-189.4,361.3h-214ZM2769.2,3125.1h-80.7v517.9h71.8c84.2,0,127.3-36.8,127.3-255.1s-63.1-262.7-118.4-262.7Z"/>
  </g>
</svg>