<?xml version="1.0" encoding="UTF-8"?>
<svg id="For_Sheets" xmlns="http://www.w3.org/2000/svg" version="1.1" viewBox="0 0 2592 4320">
  <!-- Generator: Adobe Illustrator 29.1.0, SVG Export Plug-In . SVG Version: 2.1.0 Build 142)  -->
  <defs>
    <style>
      .st0, .st1 {
        fill: #fff;
      }

      .st0, .st2 {
        fill-rule: evenodd;
      }

      .st3, .st2 {
        fill: #231f20;
      }
    </style>
  </defs>
  <g>
    <path class="st1" d="M162,4320.1c-43.1,0-83.8-16.9-114.5-47.6-30.7-30.7-47.6-71.4-47.6-114.5V162C-.1,118.9,16.8,78.2,47.5,47.5,78.2,16.8,118.9-.1,162-.1h2268c43.1,0,83.8,16.9,114.5,47.6,30.7,30.7,47.6,71.4,47.6,114.5v3996c0,43.1-16.9,83.8-47.6,114.5-30.7,30.7-71.4,47.6-114.5,47.6H162Z"/>
    <path class="st3" d="M2430,0c89.1,0,162,72.9,162,162v3996c0,89.1-72.9,162-162,162H162c-89.1,0-162-72.9-162-162V162C0,72.9,72.9,0,162,0h2268M2430-.2H162c-21.8,0-43,4.3-63,12.8-19.3,8.2-36.7,19.9-51.6,34.9-14.9,14.9-26.7,32.3-34.9,51.6C4.1,119-.2,140.2-.2,162v3996c0,21.8,4.3,43,12.8,63,8.2,19.3,19.9,36.7,34.9,51.6,14.9,14.9,32.3,26.7,51.6,34.9,20,8.5,41.2,12.8,63,12.8h2268c21.8,0,43-4.3,63-12.8,19.3-8.2,36.7-19.9,51.6-34.9,14.9-14.9,26.7-32.3,34.9-51.6,8.5-20,12.8-41.2,12.8-63V162c0-21.8-4.3-43-12.8-63-8.2-19.3-19.9-36.7-34.9-51.6-14.9-14.9-32.3-26.7-51.6-34.9-20-8.5-41.2-12.8-63-12.8h0Z"/>
  </g>
  <path class="st3" d="M162,4275c-31.1,0-60.4-12.2-82.6-34.4-22.2-22.2-34.4-51.5-34.4-82.6V162c0-31.1,12.2-60.4,34.4-82.6s51.5-34.4,82.6-34.4h2268c31.1,0,60.4,12.2,82.6,34.4,22.2,22.2,34.4,51.5,34.4,82.6v3996c0,31.1-12.2,60.4-34.4,82.6-22.2,22.2-51.5,34.4-82.6,34.4H162Z"/>
  <path class="st1" d="M108,1269v2889c0,14.5,5.5,27.6,16,38,10.4,10.4,23.6,16,38,16h2268c14.5,0,27.6-5.5,38-16,10.4-10.4,16-23.6,16-38V1269H108Z"/>
  <g>
    <polygon class="st0" points="1044 657 1296 153 1548 657 1296 1161 1044 657"/>
    <polygon class="st2" points="1134.6 657 1296 334.1 1457.4 657 1296 979.9 1134.6 657"/>
  </g>
  <g>
    <path class="st3" d="M938.7,2115h45.4v245.6h133.2v42.4h-178.6v-288Z"/>
    <path class="st3" d="M1570.2,2403l-45.6-184.9-44.6,184.9h-40.6l-42.6-288h46.6l22.3,151.6,36.5-151.6h44.6l37.5,151.6,22.3-151.6h46.6l-42.6,288h-40.5Z"/>
  </g>
  <g>
    <path class="st3" d="M466.1,2601h169.6v45.5h-124.1v70.7h83.8v46.5h-83.8v78.8h133.2v46.5h-178.6v-288Z"/>
    <path class="st3" d="M872.9,2722.3l-66.8,166.8-66.8-166.8v166.8h-45.6v-288h45.6l66.8,161.7,66.8-161.7h45.6v288h-45.6v-166.8Z"/>
    <path class="st3" d="M987.6,2601h46.1v288h-46.1v-288Z"/>
    <path class="st3" d="M1082.6,2821.3l43.5-16.2c12.1,27.3,34.3,42.4,61.6,42.4s44.5-18.2,44.5-42.4c0-38.5-44.5-44.5-81.9-59.6-17.2-7.1-55.6-24.3-55.6-71.7s38.4-77.8,89.9-77.8,67.7,23.3,81.9,58.6l-40.4,12.1c-4.5-11.4-21-25.3-42.4-25.3-41.1,0-44.6,21.9-44.6,29.1,0,26.9,23.2,32.3,61,44.1,38.4,12.1,78.6,29.8,78.6,91.5s-50.4,87.8-91,87.8-85.9-29.3-105.1-72.8Z"/>
    <path class="st3" d="M1307.5,2821.3l43.4-16.2c12.1,27.3,34.3,42.4,61.6,42.4s44.5-18.2,44.5-42.4c0-38.5-44.5-44.5-81.9-59.6-17.2-7.1-55.6-24.3-55.6-71.7s38.4-77.8,89.9-77.8,67.7,23.3,81.9,58.6l-40.4,12.1c-4.5-11.4-21-25.3-42.4-25.3-41.1,0-44.6,21.9-44.6,29.1,0,26.9,23.2,32.3,61,44.1,38.4,12.1,78.6,29.8,78.6,91.5s-50.4,87.8-91,87.8-85.9-29.3-105.1-72.8Z"/>
    <path class="st3" d="M1552.5,2601h46.1v288h-46.1v-288Z"/>
    <path class="st3" d="M1975.3,2694v195h-45.4v-288h45.4l105.1,183.9v-183.9h45.5v288h-40.4l-110.2-195Z"/>
  </g>
  <g>
    <path class="st3" d="M512.7,3375l-91.3-288h47.7l61.8,192,60.8-192h48.7l-92.3,288h-35.5Z"/>
    <path class="st3" d="M683.6,3087h169.6v45.5h-124.1v70.7h83.8v46.5h-83.8v78.8h133.2v46.5h-178.6v-288Z"/>
    <path class="st3" d="M1061.8,3249.7h-105.2v125.3h-45.4v-288h45.4v116.2h105.1v-116.2h45.5v288h-45.5v-125.3Z"/>
    <path class="st3" d="M1176.4,3087h46.1v288h-46.1v-288Z"/>
    <path class="st3" d="M1285.9,3230.5c0-40.5,8.1-148.5,106.1-148.5s70.2,17,90,58.6l-42.4,18.2c-14.7-21.2-22.1-30.3-47.5-30.3-60.3,0-59.6,84-59.6,102.1s-1.1,103.1,61.6,103.1,34.6-13.3,44.5-33.4l43.4,16.2c-16.2,40.1-43.4,63.6-86.9,63.6-103.6,0-109.1-114.5-109.1-149.5Z"/>
    <path class="st3" d="M1545.3,3087h45.4v245.6h133.2v42.4h-178.6v-288Z"/>
    <path class="st3" d="M1767.1,3087h169.6v45.5h-124.1v70.7h83.8v46.5h-83.8v78.8h133.2v46.5h-178.6v-288Z"/>
    <path class="st3" d="M1974.5,3307.3l43.4-16.2c12.1,27.3,34.3,42.4,61.6,42.4s44.5-18.2,44.5-42.4c0-38.5-44.5-44.5-81.9-59.6-17.2-7.1-55.6-24.3-55.6-71.7s38.4-77.8,89.9-77.8,67.7,23.3,81.9,58.6l-40.4,12.1c-4.5-11.4-21-25.3-42.4-25.3-41.1,0-44.6,21.9-44.6,29.1,0,26.9,23.2,32.3,61,44.1,38.4,12.1,78.6,29.8,78.6,91.5s-50.4,87.8-91,87.8-85.9-29.3-105.1-72.8Z"/>
  </g>
  <g>
    <path class="st3" d="M618,3780.1h-90.4l-28.5,80.9h-48.8l99.6-288h45.8l99.6,288h-48.8l-28.5-80.9ZM543.8,3733.7h57.9l-28.5-80.8-29.4,80.8Z"/>
    <path class="st3" d="M738.4,3573h45.4v245.6h133.2v42.4h-178.6v-288Z"/>
    <path class="st3" d="M960.3,3573h45.4v245.6h133.2v42.4h-178.6v-288Z"/>
    <path class="st3" d="M1591.8,3861l-45.6-184.9-44.6,184.9h-40.6l-42.6-288h46.6l22.3,151.6,36.5-151.6h44.6l37.5,151.6,22.3-151.6h46.6l-42.6,288h-40.5Z"/>
    <path class="st3" d="M1718.1,3573h169.6v45.5h-124.1v70.7h83.8v46.5h-83.8v78.8h133.2v46.5h-178.6v-288Z"/>
    <path class="st3" d="M1945.7,3861v-288h103.9c72.7,0,92.2,95.7,92.2,137.5,0,108-55.5,150.5-92,150.5h-104.1ZM2042.6,3618.5h-51.5v196h48.3c41.9,0,55.7-50.8,55.7-105s-7.3-91-52.4-91Z"/>
  </g>
  <g>
    <path class="st3" d="M216.6,1629h46.1v288h-46.1v-288Z"/>
    <path class="st3" d="M363.4,1722v195h-45.4v-288h45.4l105.1,183.9v-183.9h45.5v288h-40.4l-110.2-195Z"/>
    <path class="st3" d="M719.9,1791.7h-105.2v125.3h-45.4v-288h45.4v116.2h105.1v-116.2h45.5v288h-45.5v-125.3Z"/>
    <path class="st3" d="M820.6,1629h169.6v45.5h-124.1v70.7h83.8v46.5h-83.8v78.8h133.2v46.5h-178.6v-288Z"/>
    <path class="st3" d="M1083.9,1791.6v125.4h-45.4v-288h104.2c66,0,85.8,52.8,85.8,80.9s-4,52.8-44.7,72.1l50.8,135h-49.5l-46.5-125.4h-54.6ZM1141.1,1745.2c36.1,0,41.8-26.1,41.8-35.4s-9.4-35.4-39.6-35.4h-59.4v70.7h57.2Z"/>
    <path class="st3" d="M1273.7,1629h169.6v45.5h-124.1v70.7h83.8v46.5h-83.8v78.8h133.2v46.5h-178.6v-288Z"/>
    <path class="st3" d="M1536.9,1722v195h-45.4v-288h45.4l105.1,183.9v-183.9h45.5v288h-40.4l-110.2-195Z"/>
    <path class="st3" d="M1833.7,1917h-45.7v-247.6h-65.9v-40.4h178.6v40.4h-67v247.6Z"/>
    <path class="st3" d="M1935.3,1629h45.4v245.6h133.2v42.4h-178.6v-288Z"/>
    <path class="st3" d="M2275,1917h-45.7v-125.3l-101.6-162.7h54.9l69,111.2,70.1-111.2h53.8l-100.5,162.7v125.3Z"/>
  </g>
  <path class="st3" d="M1359.4,2259c0,10.3,2.2,149-102.3,149s-102.3-138.7-102.3-149-2.2-149,102.3-149,102.3,138.7,102.3,149ZM1257.6,2361.6c31,0,56.2-29.4,56.2-102.6s-25.2-102.6-56.2-102.6-56.2,29.4-56.2,102.6,25.2,102.6,56.2,102.6Z"/>
  <path class="st3" d="M1866.5,2745c0,10.3,2.2,149-102.3,149s-102.3-138.7-102.3-149-2.2-149,102.3-149,102.3,138.7,102.3,149ZM1764.7,2847.6c31,0,56.2-29.4,56.2-102.6s-25.2-102.6-56.2-102.6-56.2,29.4-56.2,102.6,25.2,102.6,56.2,102.6Z"/>
  <path class="st3" d="M1381,3717c0,10.3,2.2,149-102.3,149s-102.3-138.7-102.3-149-2.2-149,102.3-149,102.3,138.7,102.3,149ZM1279.2,3819.6c31,0,56.2-29.4,56.2-102.6s-25.2-102.6-56.2-102.6-56.2,29.4-56.2,102.6,25.2,102.6,56.2,102.6Z"/>
</svg>