<?xml version="1.0" encoding="UTF-8" standalone="no"?>
<!-- Created with Inkscape (http://www.inkscape.org/) -->

<svg
   version="1.1"
   id="svg1"
   width="5760.6665"
   height="7488.6665"
   viewBox="0 0 5760.6665 7488.6665"
   sodipodi:docname="tmpy_mmxgg4.pdf"
   xmlns:inkscape="http://www.inkscape.org/namespaces/inkscape"
   xmlns:sodipodi="http://sodipodi.sourceforge.net/DTD/sodipodi-0.dtd"
   xmlns="http://www.w3.org/2000/svg"
   xmlns:svg="http://www.w3.org/2000/svg">
  <defs
     id="defs1" />
  <sodipodi:namedview
     id="namedview1"
     pagecolor="#ffffff"
     bordercolor="#000000"
     borderopacity="0.25"
     inkscape:showpageshadow="2"
     inkscape:pageopacity="0.0"
     inkscape:pagecheckerboard="0"
     inkscape:deskcolor="#d1d1d1">
    <inkscape:page
       x="0"
       y="0"
       inkscape:label="1"
       id="page1"
       width="5760.6665"
       height="7488.6665"
       margin="0"
       bleed="0" />
  </sodipodi:namedview>
  <g
     id="g1"
     inkscape:groupmode="layer"
     inkscape:label="1">
    <g
       id="group-R5">
      <path
         id="path2"
         d="M 2162.5,1.20313 C 1585.21,1.20313 1042.47,226.098 634.262,634.301 226.059,1042.5 1.25,1585.2 1.25,2162.5 v 51840 c 0,577.3 224.809,1120 633.012,1528.2 408.208,408.2 950.948,633.1 1528.238,633.1 h 38880 c 577.3,0 1120,-224.9 1528.2,-633.1 408.2,-408.2 633.1,-950.9 633.1,-1528.2 v -51840 c 0,-577.3 -224.9,-1120 -633.1,-1528.199 C 42162.5,226.098 41619.8,1.20313 41042.5,1.20313 h -38880"
         style="fill:#ffffff;fill-opacity:1;fill-rule:nonzero;stroke:none"
         transform="matrix(0.13333333,0,0,-0.13333333,0,7488.6667)" />
      <path
         id="path3"
         d="m 41042.5,56165 h -38880 c -291.94,0 -575.14,-57.2 -841.74,-169.9 -257.51,-109 -488.78,-264.9 -687.381,-463.5 C 434.777,55333 278.855,55101.8 169.941,54844.2 57.1797,54577.6 0,54294.4 0,54002.5 V 2162.5 C 0,1870.6 57.1797,1587.4 169.941,1320.7 278.855,1063.2 434.777,832 633.379,633.398 831.98,434.801 1063.25,278.902 1320.76,169.902 1587.36,57.2031 1870.56,0 2162.5,0 h 38880 c 291.9,0 575.1,57.2031 841.8,169.902 257.5,109 488.7,264.899 687.3,463.496 198.6,198.602 354.5,429.802 463.5,687.302 112.7,266.7 169.9,549.9 169.9,841.8 v 51840 c 0,291.9 -57.2,575.1 -169.9,841.7 -109,257.6 -264.9,488.8 -463.5,687.4 -198.6,198.6 -429.8,354.5 -687.3,463.5 -266.7,112.7 -549.9,169.9 -841.8,169.9 z m 0,-2.5 c 1192.9,0 2160,-967.1 2160,-2160 v -51840 c 0,-1192.898 -967.1,-2160 -2160,-2160 H 2162.5 C 969.563,2.5 2.5,969.602 2.5,2162.5 v 51840 c 0,1192.9 967.063,2160 2160,2160 h 38880"
         style="fill:#231f20;fill-opacity:1;fill-rule:nonzero;stroke:none"
         transform="matrix(0.13333333,0,0,-0.13333333,0,7488.6667)" />
      <path
         id="path4"
         d="m 41762.5,2162.5 c 0,-397 -323,-720 -720,-720 h -38880 c -397.01,0 -720,323 -720,720 v 51840 c 0,397 322.99,720 720,720 h 38880 c 397,0 720,-323 720,-720 z m -720,53460 h -38880 c -893.27,0 -1620,-726.7 -1620,-1620 v -51840 c 0,-893.3 726.73,-1620 1620,-1620 h 38880 c 893.3,0 1620,726.7 1620,1620 v 51840 c 0,893.3 -726.7,1620 -1620,1620"
         style="fill:#231f20;fill-opacity:1;fill-rule:nonzero;stroke:none"
         transform="matrix(0.13333333,0,0,-0.13333333,0,7488.6667)" />
      <path
         id="path5"
         d="M 4712.02,46082.5 H 8106.73 V 45071.8 H 5750.59 v -1818.9 h 1493.96 v -985.5 H 5750.59 v -2375.1 h 2635.13 v -1009.8 h -3673.7 v 7200"
         style="fill:#231f20;fill-opacity:1;fill-rule:nonzero;stroke:none"
         transform="matrix(0.13333333,0,0,-0.13333333,0,7488.6667)" />
      <path
         id="path6"
         d="M 11146.1,41332.3 10128.3,38882.5 H 9033.9 l 1577.6,3738.6 -1475.9,3461.4 H 10230 l 916.1,-2172.6 916.2,2172.6 h 1094.4 l -1450.8,-3461.4 1577.7,-3738.6 H 12164 l -1017.9,2449.8"
         style="fill:#231f20;fill-opacity:1;fill-rule:nonzero;stroke:none"
         transform="matrix(0.13333333,0,0,-0.13333333,0,7488.6667)" />
      <path
         id="path7"
         d="m 15324.9,43026.1 h 1058.3 c 604.8,0 933.3,378 933.3,1035 0,606.6 -381.6,1010.7 -932.3,1010.7 h -1059.3 z m 0,-985.5 v -3158.1 h -1033.2 v 7200 h 2142.9 c 1134.8,0 1890.8,-811.8 1890.8,-2021.4 0,-1314 -681.3,-2020.5 -1890.8,-2020.5 h -1109.7"
         style="fill:#231f20;fill-opacity:1;fill-rule:nonzero;stroke:none"
         transform="matrix(0.13333333,0,0,-0.13333333,0,7488.6667)" />
      <path
         id="path8"
         d="m 20798.8,45071.8 v -1818.9 h 1058.4 c 606.6,0 933.3,328.5 933.3,909.9 0,556.2 -378,909 -932.4,909 z m 983.7,-2804.4 h -983.7 v -3384.9 h -1033.1 v 7200 h 2142.8 c 1129.5,0 1890.8,-757.8 1890.8,-1919.7 0,-858.6 -353.6,-1490.4 -1034,-1743.3 l 1033.1,-3537 H 22741 l -958.5,3384.9"
         style="fill:#231f20;fill-opacity:1;fill-rule:nonzero;stroke:none"
         transform="matrix(0.13333333,0,0,-0.13333333,0,7488.6667)" />
      <path
         id="path9"
         d="m 25023.6,46082.5 h 3394.7 v -1010.7 h -2356.2 v -1818.9 h 1494 v -985.5 h -1494 v -2375.1 h 2635.2 v -1009.8 h -3673.7 v 7200"
         style="fill:#231f20;fill-opacity:1;fill-rule:nonzero;stroke:none"
         transform="matrix(0.13333333,0,0,-0.13333333,0,7488.6667)" />
      <path
         id="path10"
         d="m 31626.9,43459.9 c 787.4,-494.1 1968.2,-1186.2 1968.2,-2607.3 0,-1165.5 -888.3,-2096.1 -2004.2,-2096.1 -1268.1,0 -2029.5,1072.8 -2029.5,2248.2 h 1015.2 c 0,-612.9 304.2,-1238.4 1014.3,-1238.4 558,0 1014.2,504.9 1014.2,1086.3 0,1565.1 -2688.2,1475.1 -2688.2,3486.6 0,1035.9 811.8,1868.4 1851.3,1868.4 1015.1,0 1801.7,-783 1826.9,-1869.3 h -990 c -25.2,504.9 -380.6,833.4 -836.9,833.4 -482.4,0 -862.2,-352.8 -862.2,-832.5 0,-468 248.4,-583.2 720.9,-879.3"
         style="fill:#231f20;fill-opacity:1;fill-rule:nonzero;stroke:none"
         transform="matrix(0.13333333,0,0,-0.13333333,0,7488.6667)" />
      <path
         id="path11"
         d="m 36524.7,43459.9 c 787.5,-494.1 1968.3,-1186.2 1968.3,-2607.3 0,-1165.5 -888.3,-2096.1 -2004.3,-2096.1 -1268,0 -2029.4,1072.8 -2029.4,2248.2 h 1015.2 c 0,-612.9 304.2,-1238.4 1014.2,-1238.4 558,0 1014.3,504.9 1014.3,1086.3 0,1565.1 -2688.2,1475.1 -2688.2,3486.6 0,1035.9 811.8,1868.4 1851.2,1868.4 1015.2,0 1801.8,-783 1827,-1869.3 h -990 c -25.2,504.9 -380.7,833.4 -837,833.4 -482.4,0 -862.1,-352.8 -862.1,-832.5 0,-468 248.3,-583.2 720.8,-879.3"
         style="fill:#231f20;fill-opacity:1;fill-rule:nonzero;stroke:none"
         transform="matrix(0.13333333,0,0,-0.13333333,0,7488.6667)" />
      <path
         id="path12"
         d="m 10004,31682.5 h 1135.8 v -6138.9 h 3329.9 V 24482.5 H 10004 v 7200"
         style="fill:#231f20;fill-opacity:1;fill-rule:nonzero;stroke:none"
         transform="matrix(0.13333333,0,0,-0.13333333,0,7488.6667)" />
      <path
         id="path13"
         d="m 17240.1,27665.8 h 1448.1 l -711.9,2020.5 z M 19094,26503.9 h -2260.7 l -711.9,-2021.4 h -1219.5 l 2490.3,7200 h 1143.9 l 2489.3,-7200 h -1219.5 l -711.9,2021.4"
         style="fill:#231f20;fill-opacity:1;fill-rule:nonzero;stroke:none"
         transform="matrix(0.13333333,0,0,-0.13333333,0,7488.6667)" />
      <path
         id="path14"
         d="m 23241.5,29357.8 v -4875.3 h -1135.7 v 7200 h 1135.7 l 2627.9,-4598.1 v 4598.1 H 27007 v -7200 h -1010.7 l -2754.8,4875.3"
         style="fill:#231f20;fill-opacity:1;fill-rule:nonzero;stroke:none"
         transform="matrix(0.13333333,0,0,-0.13333333,0,7488.6667)" />
      <path
         id="path15"
         d="m 28735.3,31682.5 h 4238.9 v -1136.7 h -3103.1 v -1768.5 h 2094.2 v -1161.9 h -2094.2 v -1971 H 33201 v -1161.9 h -4465.7 v 7200"
         style="fill:#231f20;fill-opacity:1;fill-rule:nonzero;stroke:none"
         transform="matrix(0.13333333,0,0,-0.13333333,0,7488.6667)" />
      <path
         id="path16"
         d="m 10001.5,17282.5 h 4238.8 v -1136.7 h -3103.1 v -1768.5 h 2094.3 v -1161.9 h -2094.3 v -1971 h 3329.9 v -1161.9 h -4465.6 v 7200"
         style="fill:#231f20;fill-opacity:1;fill-rule:nonzero;stroke:none"
         transform="matrix(0.13333333,0,0,-0.13333333,0,7488.6667)" />
      <path
         id="path17"
         d="m 16827.1,14957.8 v -4875.3 h -1135.7 v 7200 h 1135.7 L 19455,12684.4 v 4598.1 h 1137.5 v -7200 h -1010.6 l -2754.8,4875.3"
         style="fill:#231f20;fill-opacity:1;fill-rule:nonzero;stroke:none"
         transform="matrix(0.13333333,0,0,-0.13333333,0,7488.6667)" />
      <path
         id="path18"
         d="m 24745.3,16145.8 h -1288.8 v -4900.5 h 1208.7 c 1047.5,0 1391.3,1269 1391.3,2624.4 0,644.4 -183.6,2276.1 -1311.2,2276.1 z m -2424.5,-6063.3 v 7200 h 2597.3 c 1817,0 2303.9,-2393.1 2303.9,-3438 0,-2700.9 -1388.7,-3762 -2299.4,-3762 h -2601.8"
         style="fill:#231f20;fill-opacity:1;fill-rule:nonzero;stroke:none"
         transform="matrix(0.13333333,0,0,-0.13333333,0,7488.6667)" />
      <path
         id="path19"
         d="m 28302.3,11775.4 1086.3,404.1 c 303.3,-682.2 858.6,-1061.1 1540.7,-1061.1 657,0 1112.4,454.5 1112.4,1061.1 0,963 -1111.5,1111.5 -2046.5,1490.4 -429.3,177.3 -1389.6,606.6 -1389.6,1793.7 0,1415.7 959.4,1944 2248.1,1944 1010.7,0 1692.8,-581.4 2046.5,-1465.2 l -1010.6,-303.3 c -113.4,284.4 -524.7,631.8 -1061.1,631.8 -1026.8,0 -1114.1,-548.1 -1114.1,-728.1 0,-673.2 580.4,-806.4 1524.5,-1102.5 961.2,-302.4 1964.6,-744.3 1964.6,-2287.8 0,-1554.3 -1259.9,-2196 -2274.2,-2196 -1238.3,0 -2147.3,732.6 -2627,1818.9"
         style="fill:#231f20;fill-opacity:1;fill-rule:nonzero;stroke:none"
         transform="matrix(0.13333333,0,0,-0.13333333,0,7488.6667)" />
    </g>
  </g>
</svg>
