<?xml version="1.0" encoding="UTF-8" standalone="no"?>
<!-- Created with Inkscape (http://www.inkscape.org/) -->

<svg
   version="1.1"
   id="svg1"
   width="2304.6667"
   height="3456.6667"
   viewBox="0 0 2304.6667 3456.6667"
   sodipodi:docname="tmpfmhy6ukv.pdf"
   xmlns:inkscape="http://www.inkscape.org/namespaces/inkscape"
   xmlns:sodipodi="http://sodipodi.sourceforge.net/DTD/sodipodi-0.dtd"
   xmlns="http://www.w3.org/2000/svg"
   xmlns:svg="http://www.w3.org/2000/svg">
  <defs
     id="defs1" />
  <sodipodi:namedview
     id="namedview1"
     pagecolor="#ffffff"
     bordercolor="#000000"
     borderopacity="0.25"
     inkscape:showpageshadow="2"
     inkscape:pageopacity="0.0"
     inkscape:pagecheckerboard="0"
     inkscape:deskcolor="#d1d1d1">
    <inkscape:page
       x="0"
       y="0"
       inkscape:label="1"
       id="page1"
       width="2304.6667"
       height="3456.6667"
       margin="0"
       bleed="0" />
  </sodipodi:namedview>
  <g
     id="g1"
     inkscape:groupmode="layer"
     inkscape:label="1">
    <g
       id="group-R5">
      <path
         id="path2"
         d="M 17282.5,1082.5 C 17282.5,486 16799,2.5 16202.5,2.5 H 1082.5 C 486.031,2.5 2.5,486 2.5,1082.5 v 23760 c 0,596.5 483.531,1080 1080,1080 h 15120 c 596.5,0 1080,-483.5 1080,-1080 v -23760"
         style="fill:#ffffff;fill-opacity:1;fill-rule:nonzero;stroke:none"
         transform="matrix(0.13333333,0,0,-0.13333333,0,3456.6667)" />
      <path
         id="path3"
         d="M 17282.5,1082.5 C 17282.5,486 16799,2.5 16202.5,2.5 H 1082.5 C 486.031,2.5 2.5,486 2.5,1082.5 v 23760 c 0,596.5 483.531,1080 1080,1080 h 15120 c 596.5,0 1080,-483.5 1080,-1080 z"
         style="fill:none;stroke:#231f20;stroke-width:5;stroke-linecap:butt;stroke-linejoin:miter;stroke-miterlimit:4;stroke-dasharray:none;stroke-opacity:1"
         transform="matrix(0.13333333,0,0,-0.13333333,0,3456.6667)" />
      <path
         id="path4"
         d="m 1082.5,272.5 c -446.637,0 -810,363.402 -810,810 v 23760 c 0,446.6 363.363,810 810,810 h 15120 c 446.6,0 810,-363.4 810,-810 v -23760 c 0,-446.598 -363.4,-810 -810,-810 h -15120"
         style="fill:#231f20;fill-opacity:1;fill-rule:nonzero;stroke:none"
         transform="matrix(0.13333333,0,0,-0.13333333,0,3456.6667)" />
      <path
         id="path5"
         d="m 1082.5,722.5 c -198.508,0 -360,161.5 -360,360 v 23760 c 0,198.5 161.492,360 360,360 h 15120 c 198.5,0 360,-161.5 360,-360 v -23760 c 0,-198.5 -161.5,-360 -360,-360 h -15120"
         style="fill:#ffffff;fill-opacity:1;fill-rule:nonzero;stroke:none"
         transform="matrix(0.13333333,0,0,-0.13333333,0,3456.6667)" />
      <path
         id="path6"
         d="m 12878.7,12422.5 -1101.6,1950.3 v -1950.3 h -454.8 v 2880 h 454.8 l 1051,-1839.2 v 1839.2 h 454.8 v -2880 h -404.2"
         style="fill:#231f20;fill-opacity:1;fill-rule:nonzero;stroke:none"
         transform="matrix(0.13333333,0,0,-0.13333333,0,3456.6667)" />
      <path
         id="path7"
         d="m 8049.62,12857 c -151.6,-283 -495.19,-485.1 -848.9,-485.1 -353.71,0 -697.34,202.1 -848.91,485.1 -80.85,171.8 -131.39,373.9 -131.39,596.2 v 1849.3 h 454.76 v -1849.3 c 0,-373.9 212.23,-616.4 525.54,-616.4 313.28,0 525.51,242.5 525.51,616.4 v 1849.3 h 454.76 v -1849.3 c 0,-222.3 -50.54,-424.4 -131.37,-596.2"
         style="fill:#231f20;fill-opacity:1;fill-rule:nonzero;stroke:none"
         transform="matrix(0.13333333,0,0,-0.13333333,0,3456.6667)" />
      <path
         id="path8"
         d="m 5118.54,14898.3 v -2475.8 h -456.68 v 2475.8 h -659.75 v 404.2 h 1786.31 v -404.2 h -669.88"
         style="fill:#231f20;fill-opacity:1;fill-rule:nonzero;stroke:none"
         transform="matrix(0.13333333,0,0,-0.13333333,0,3456.6667)" />
      <path
         id="path9"
         d="m 10135.4,14797.2 c -70.7,40.4 -111.1,50.5 -262.74,50.5 h -545.71 v -707.3 h 545.71 c 141.54,0 192.04,10.1 262.74,50.5 111.2,60.6 181.9,181.9 181.9,303.1 0,121.3 -70.7,242.6 -181.9,303.2 z m 202.1,-2374.7 -464.84,1253 h -545.71 v -1253 h -454.76 v 2880 h 949.96 c 222.35,0 373.95,-20.2 515.35,-91 252.7,-121.3 434.6,-424.4 434.6,-717.5 0,-303.1 -181.9,-606.3 -444.6,-727.5 l 505.3,-1344 h -495.3"
         style="fill:#231f20;fill-opacity:1;fill-rule:nonzero;stroke:none"
         transform="matrix(0.13333333,0,0,-0.13333333,0,3456.6667)" />
      <path
         id="path10"
         d="M 10400.1,8102.5 9298.51,10052.8 V 8102.5 h -454.77 v 2880 h 454.77 L 10349.5,9143.3 v 1839.2 h 454.8 v -2880 h -404.2"
         style="fill:#231f20;fill-opacity:1;fill-rule:nonzero;stroke:none"
         transform="matrix(0.13333333,0,0,-0.13333333,0,3456.6667)" />
      <path
         id="path11"
         d="m 4003.17,8102.5 v 2880 h 454.14 V 8526.9 H 5789.49 V 8102.5 H 4003.17"
         style="fill:#231f20;fill-opacity:1;fill-rule:nonzero;stroke:none"
         transform="matrix(0.13333333,0,0,-0.13333333,0,3456.6667)" />
      <path
         id="path12"
         d="m 11495.5,8102.4 v 2880.1 H 13191 v -454.8 h -1241.4 v -707.4 h 837.7 v -464.8 h -837.7 v -788.2 h 1332.2 v -464.9 h -1786.3"
         style="fill:#231f20;fill-opacity:1;fill-rule:nonzero;stroke:none"
         transform="matrix(0.13333333,0,0,-0.13333333,0,3456.6667)" />
      <path
         id="path13"
         d="m 7192.09,10184.1 -294.74,-808.4 h 579.33 z m 731.8,-2081.6 -284.59,808.4 h -904.57 l -284.58,-808.4 h -487.86 l 996.04,2880 h 457.36 l 996.04,-2880 h -487.84"
         style="fill:#231f20;fill-opacity:1;fill-rule:nonzero;stroke:none"
         transform="matrix(0.13333333,0,0,-0.13333333,0,3456.6667)" />
      <path
         id="path14"
         d="m 13425.9,21062.5 -1101.6,1950.3 v -1950.3 h -454.7 v 2880 h 454.7 l 1051,-1839.2 v 1839.2 h 454.8 v -2880 h -404.2"
         style="fill:#231f20;fill-opacity:1;fill-rule:nonzero;stroke:none"
         transform="matrix(0.13333333,0,0,-0.13333333,0,3456.6667)" />
      <path
         id="path15"
         d="m 10717.5,21062.5 v 2880 h 460.8 v -2880 h -460.8"
         style="fill:#231f20;fill-opacity:1;fill-rule:nonzero;stroke:none"
         transform="matrix(0.13333333,0,0,-0.13333333,0,3456.6667)" />
      <path
         id="path16"
         d="m 5905.05,21062.5 v 2880 h 1695.49 v -454.7 H 6359.19 v -707.4 h 837.68 v -464.9 h -837.68 v -788.2 h 1332.19 v -464.8 H 5905.05"
         style="fill:#231f20;fill-opacity:1;fill-rule:nonzero;stroke:none"
         transform="matrix(0.13333333,0,0,-0.13333333,0,3456.6667)" />
      <path
         id="path17"
         d="m 4677.72,22295.3 c -60.63,20.2 -90.95,20.2 -192.01,20.2 h -576.04 v -788.2 h 687.21 c 232.44,0 353.72,111.2 353.72,333.5 0,192 -111.18,373.9 -272.88,434.5 z m -101.05,1192.5 h -667 v -707.4 h 545.73 c 131.37,0 192.01,20.2 272.85,80.8 101.07,80.9 161.7,202.1 161.7,333.5 0,192 -111.15,293.1 -313.28,293.1 z m 373.93,-2354.6 c -101.07,-40.4 -272.88,-70.7 -404.25,-70.7 H 3454.9 v 2880 h 1091.45 c 454.77,0 798.38,-313.3 798.38,-727.6 0,-282.9 -131.38,-495.1 -404.25,-646.7 303.18,-141.5 474.98,-384 474.98,-697.3 0,-313.3 -192.01,-626.5 -464.86,-737.7"
         style="fill:#231f20;fill-opacity:1;fill-rule:nonzero;stroke:none"
         transform="matrix(0.13333333,0,0,-0.13333333,0,3456.6667)" />
      <path
         id="path18"
         d="m 9174.4,21011.9 c -434.54,0 -687.2,161.8 -859,525.5 -121.27,252.7 -192.01,606.4 -192.01,960 0,464.9 131.37,919.6 323.38,1172.3 171.81,212.2 414.35,323.3 737.75,323.3 444.68,0 707.42,-181.9 899.38,-636.6 l -434.51,-171.8 c -121.27,252.6 -242.53,343.6 -464.87,343.6 -232.43,0 -384.03,-101.1 -485.09,-353.7 -70.75,-171.8 -111.18,-434.5 -111.18,-677.1 0,-303.1 50.53,-606.3 141.5,-788.2 90.94,-161.7 222.34,-232.4 394.14,-232.4 293.05,0 505.31,181.9 505.31,444.6 v 121.3 h -525.54 v 454.7 h 980.24 v -576 c 0,-525.4 -383.96,-909.5 -909.5,-909.5"
         style="fill:#231f20;fill-opacity:1;fill-rule:nonzero;stroke:none"
         transform="matrix(0.13333333,0,0,-0.13333333,0,3456.6667)" />
      <path
         id="path19"
         d="m 6335.08,5011.9 c 22.76,46.9 59.3,87.7 107.83,115.7 129.14,74.6 294.27,30.4 368.83,-98.8 14.9,-25.8 24.98,-53 30.66,-80.7 l 203.05,-875.9 4798.25,2770.3 720,-1247.1 -4798.25,-2770.3 657.02,-613.8 c 21.14,-18.8 39.72,-41.1 54.62,-67 74.56,-129.1 30.31,-294.2 -98.83,-368.8 -48.53,-28 -102.15,-39.2 -154.12,-35.5 l -3502.87,158.9 1613.81,3113"
         style="fill:#231f20;fill-opacity:1;fill-rule:nonzero;stroke:none"
         transform="matrix(0.13333333,0,0,-0.13333333,0,3456.6667)" />
      <path
         id="path20"
         d="m 5933.87,16742.5 v 2880 h 460.8 v -2880 h -460.8"
         style="fill:#231f20;fill-opacity:1;fill-rule:nonzero;stroke:none"
         transform="matrix(0.13333333,0,0,-0.13333333,0,3456.6667)" />
      <path
         id="path21"
         d="m 13131.4,19218.3 v -2475.8 h -456.7 v 2475.8 H 12015 v 404.2 h 1786.3 v -404.2 h -669.9"
         style="fill:#231f20;fill-opacity:1;fill-rule:nonzero;stroke:none"
         transform="matrix(0.13333333,0,0,-0.13333333,0,3456.6667)" />
      <path
         id="path22"
         d="m 4746.93,19117.2 c -70.72,40.4 -111.15,50.5 -262.74,50.5 h -545.72 v -707.3 h 545.72 c 141.49,0 192.02,10.1 262.74,50.5 111.2,60.6 181.94,181.9 181.94,303.1 0,121.3 -70.74,242.6 -181.94,303.2 z m 202.13,-2374.7 -464.87,1253 h -545.72 v -1253 h -454.76 v 2880 h 949.94 c 222.35,0 373.94,-20.2 515.41,-91 252.66,-121.2 434.56,-424.4 434.56,-717.5 0,-303.1 -181.9,-606.3 -444.66,-727.5 l 505.32,-1344 h -495.22"
         style="fill:#231f20;fill-opacity:1;fill-rule:nonzero;stroke:none"
         transform="matrix(0.13333333,0,0,-0.13333333,0,3456.6667)" />
      <path
         id="path23"
         d="m 11128.2,16742.5 v 1253 h -1051 v -1253 h -454.77 v 2880 h 454.77 v -1162.1 h 1051 v 1162.1 h 454.8 v -2880 h -454.8"
         style="fill:#231f20;fill-opacity:1;fill-rule:nonzero;stroke:none"
         transform="matrix(0.13333333,0,0,-0.13333333,0,3456.6667)" />
      <path
         id="path24"
         d="m 8079.29,16691.9 c -434.55,0 -687.21,161.7 -859.01,525.5 -121.27,252.6 -192.01,606.3 -192.01,960 0,464.9 131.37,919.6 323.38,1172.2 171.82,212.2 414.36,323.4 737.75,323.4 444.67,0 707.43,-181.9 899.42,-636.6 l -434.55,-171.8 c -121.27,252.6 -242.54,343.6 -464.87,343.6 -232.44,0 -384.04,-101.1 -485.09,-353.7 -70.75,-171.8 -111.18,-434.6 -111.18,-677.1 0,-303.1 50.53,-606.3 141.49,-788.2 90.96,-161.7 222.34,-232.4 394.14,-232.4 293.07,0 505.31,181.9 505.31,444.6 v 121.3 h -525.53 v 454.7 h 980.28 v -576 c 0,-525.5 -384.01,-909.5 -909.53,-909.5"
         style="fill:#231f20;fill-opacity:1;fill-rule:nonzero;stroke:none"
         transform="matrix(0.13333333,0,0,-0.13333333,0,3456.6667)" />
    </g>
  </g>
</svg>
