<?xml version="1.0" standalone="no"?>
<svg width="2592px" height="2592px" viewBox="0 -1800 2592 2592 " xmlns="http://www.w3.org/2000/svg" xmlns:xlink="http://www.w3.org/1999/xlink">
<title>generated by pstoedit</title>
<!-- generated by pstoedit version:4.02 -->
<g xml:space='preserve'>
<clipPath id="clippath1"> 	<path d="
	M 0 -1800.5 
	L 0 792 
	L 2592.5 792 
	L 2592.5 -1800.5 
	Z 
	" style="clip-rule:nonzero"/>
</clipPath>
<g style="clip-path:url(#clippath1)"> 
<g fill="#ffffff" fill-rule="nonzero" stroke-width="0" stroke-linejoin="miter" stroke-linecap="butt" stroke-miterlimit="10" >
	<path d="
	M 2592.25 629.75 
	C 2592.25 719.219 2519.72 791.75 2430.25 791.75 
	L 162.25 791.75 
	C 72.7813 791.75 0.25 719.219 0.25 629.75 
	L 0.25 -1638.25 
	C 0.25 -1727.72 72.7813 -1800.25 162.25 -1800.25 
	L 2430.25 -1800.25 
	C 2519.72 -1800.25 2592.25 -1727.72 2592.25 -1638.25 
	Z 
	"/>
</g>
<g stroke="#7f7f7f" fill="none" stroke-width="0.5" stroke-linejoin="miter" stroke-linecap="butt" stroke-miterlimit="4" >
	<path d="
	M 2592.25 629.75 
	C 2592.25 719.219 2519.72 791.75 2430.25 791.75 
	L 162.25 791.75 
	C 72.7813 791.75 0.25 719.219 0.25 629.75 
	L 0.25 -1638.25 
	C 0.25 -1727.72 72.7813 -1800.25 162.25 -1800.25 
	L 2430.25 -1800.25 
	C 2519.72 -1800.25 2592.25 -1727.72 2592.25 -1638.25 
	Z 
	"/>
</g>
<g fill="#7f7f7f" fill-rule="nonzero" stroke-width="0" stroke-linejoin="miter" stroke-linecap="butt" stroke-miterlimit="4" >
	<path d="
	M 2484.25 629.75 
	C 2484.25 659.52 2460.03 683.75 2430.25 683.75 
	L 1377.25 683.75 
	L 1377.25 -504.25 
	L 1314.25 -504.25 
	L 1314.25 683.75 
	L 162.25 683.75 
	C 132.477 683.75 108.25 659.52 108.25 629.75 
	L 108.25 -1638.25 
	C 108.25 -1668.03 132.477 -1692.25 162.25 -1692.25 
	L 2430.25 -1692.25 
	C 2460.03 -1692.25 2484.25 -1668.02 2484.25 -1638.25 
	Z 
	M 2430.25 -1755.25 
	L 162.25 -1755.25 
	C 97.7383 -1755.25 45.25 -1702.76 45.25 -1638.25 
	L 45.25 629.75 
	C 45.25 694.262 97.7383 746.75 162.25 746.75 
	L 2430.25 746.75 
	C 2494.76 746.75 2547.25 694.262 2547.25 629.75 
	L 2547.25 -1638.25 
	C 2547.25 -1702.76 2494.76 -1755.25 2430.25 -1755.25 
	Z 
	"/>
</g>
<g fill="#7f7f7f" fill-rule="nonzero" stroke-width="0" stroke-linejoin="miter" stroke-linecap="butt" stroke-miterlimit="4" >
	<path d="
	M 1125.25 -417.73 
	C 1124.83 -484.09 1113.67 -549.97 1092.19 -612.73 
	L 1092.14 -612.73 
	C 1070.65 -675.39 1039.08 -734.24 998.594 -786.97 
	C 969.816 -824.45 947.41 -866.41 932.172 -911.17 
	C 916.992 -955.87 909.25 -1002.85 909.25 -1050.07 
	L 909.254 -1309.33 
	L 994.152 -1282.45 
	C 1005.85 -1278.73 1018.63 -1282.81 1025.95 -1292.71 
	C 1033.27 -1302.61 1033.51 -1316.05 1026.55 -1326.19 
	L 837.25 -1602.19 
	L 647.891 -1326.19 
	C 640.934 -1316.05 641.172 -1302.61 648.492 -1292.71 
	C 655.871 -1282.87 668.652 -1278.73 680.352 -1282.45 
	L 765.254 -1309.33 
	L 765.254 -1050.07 
	C 765.254 -1023.07 767.172 -996.07 770.949 -969.31 
	C 690.191 -1006.81 602.23 -1026.19 513.25 -1026.19 
	L 473.063 -1026.19 
	L 500 -1111.09 
	C 503.723 -1122.79 499.578 -1135.63 489.738 -1142.95 
	C 479.84 -1150.27 466.398 -1150.51 456.262 -1143.55 
	L 180.262 -954.19 
	L 456.262 -764.89 
	C 466.398 -757.93 479.84 -758.17 489.738 -765.49 
	C 499.578 -772.81 503.723 -785.59 500 -797.35 
	L 473.063 -882.19 
	L 513.25 -882.19 
	C 600.133 -882.19 685.332 -858.01 759.313 -812.29 
	C 833.23 -766.63 892.934 -701.23 931.813 -623.53 
	L 931.883 -623.51 
	C 970.695 -545.75 987.191 -458.76 979.332 -372.19 
	C 971.531 -285.67 939.793 -202.988 887.652 -133.449 
	C 848.188 -80.82 817.449 -22.211 796.691 40.191 
	C 775.871 102.59 765.254 167.988 765.254 233.75 
	L 765.254 449.75 
	L 909.254 449.75 
	L 909.254 233.75 
	C 909.254 183.469 917.352 133.488 933.254 85.73 
	C 949.152 38.031 972.656 -6.80103 1002.85 -47.051 
	C 1042.69 -100.148 1073.59 -159.371 1094.41 -222.37 
	C 1115.17 -285.37 1125.61 -351.37 1125.25 -417.73 
	Z 
	"/>
</g>
<g fill="#7f7f7f" fill-rule="nonzero" stroke-width="0" stroke-linejoin="miter" stroke-linecap="butt" stroke-miterlimit="4" >
	<path d="
	M 693.254 -414.25 
	C 693.254 -314.84 612.664 -234.25 513.254 -234.25 
	C 413.84 -234.25 333.254 -314.84 333.254 -414.25 
	C 333.254 -513.66 413.84 -594.25 513.254 -594.25 
	C 612.664 -594.25 693.254 -513.66 693.254 -414.25 
	Z 
	"/>
</g>
<g fill="#7f7f7f" fill-rule="nonzero" stroke-width="0" stroke-linejoin="miter" stroke-linecap="butt" stroke-miterlimit="4" >
	<path d="
	M 1724.35 -1309.39 
	L 1809.25 -1282.45 
	C 1820.95 -1278.73 1833.73 -1282.87 1841.05 -1292.71 
	C 1848.43 -1302.61 1848.67 -1316.05 1841.71 -1326.19 
	L 1652.35 -1602.19 
	L 1462.99 -1326.19 
	C 1456.03 -1316.05 1456.33 -1302.61 1463.65 -1292.71 
	C 1470.97 -1282.87 1483.75 -1278.73 1495.45 -1282.45 
	L 1580.35 -1309.39 
	L 1580.35 -1050.07 
	C 1580.35 -987.07 1590.67 -924.49 1610.95 -864.85 
	C 1631.23 -805.21 1661.17 -749.23 1699.51 -699.25 
	C 1730.37 -659.02 1754.59 -614.05 1771.03 -565.99 
	C 1787.53 -517.99 1796.05 -467.65 1796.35 -416.89 
	C 1796.65 -366.13 1788.67 -315.73 1772.77 -267.49 
	C 1756.87 -219.31 1733.17 -174.07 1702.75 -133.449 
	C 1663.32 -80.789 1632.55 -22.211 1611.73 40.191 
	C 1590.97 102.59 1580.35 167.988 1580.35 233.75 
	L 1580.35 449.75 
	L 1724.35 449.75 
	L 1724.35 233.75 
	C 1724.35 178.488 1734.13 123.711 1753.21 71.93 
	C 1772.29 20.09 1800.43 -27.91 1836.25 -69.969 
	C 1872.13 -111.969 1915.09 -147.309 1963.27 -174.309 
	C 2011.39 -201.371 2063.95 -219.67 2118.49 -228.37 
	L 2106.55 -138.852 
	C 2104.93 -126.672 2111.23 -114.789 2122.21 -109.27 
	C 2133.19 -103.809 2146.45 -105.91 2155.27 -114.488 
	L 2394.19 -348.91 
	L 2089.51 -487.45 
	C 2078.29 -492.49 2065.09 -489.91 2056.63 -481.03 
	C 2048.23 -472.09 2046.37 -458.77 2052.07 -447.85 
	L 2092.75 -370.09 
	C 2037.49 -360.97 1983.85 -344.35 1933.15 -320.65 
	C 1945.81 -402.43 1941.73 -485.89 1921.21 -566.05 
	C 1900.69 -646.21 1864.15 -721.39 1813.75 -786.97 
	C 1784.94 -824.46 1762.51 -866.41 1747.33 -911.17 
	C 1732.09 -955.93 1724.35 -1002.85 1724.35 -1050.07 
	Z 
	"/>
</g>
</g >
</g>
</svg>
