<?xml version="1.0" encoding="UTF-8"?>
<svg id="For_Sheets" xmlns="http://www.w3.org/2000/svg" version="1.1" viewBox="0 0 2160 864">
  <!-- Generator: Adobe Illustrator 29.1.0, SVG Export Plug-In . SVG Version: 2.1.0 Build 142)  -->
  <defs>
    <style>
      .st0 {
        fill: #231f20;
      }

      .st1 {
        fill: #fff;
      }
    </style>
  </defs>
  <g>
    <rect class="st1" x="-.1" y="-.1" width="2160.2" height="864.2" rx="108.1" ry="108.1"/>
    <path class="st0" d="M2052,0c59.6,0,108,48.4,108,108v648c0,59.6-48.4,108-108,108H108c-59.6,0-108-48.4-108-108V108C0,48.4,48.4,0,108,0h1944M2052-.2H108C79.1-.2,51.9,11,31.5,31.5,11,51.9-.2,79.1-.2,108v648c0,28.9,11.3,56.1,31.7,76.5,20.4,20.4,47.6,31.7,76.5,31.7h1944c28.9,0,56.1-11.3,76.5-31.7,20.4-20.4,31.7-47.6,31.7-76.5V108c0-28.9-11.3-56.1-31.7-76.5-20.4-20.4-47.6-31.7-76.5-31.7h0Z"/>
  </g>
  <path class="st0" d="M2052,837H108c-44.7,0-81-36.3-81-81V108c0-44.7,36.3-81,81-81h1944c44.7,0,81,36.3,81,81v648c0,44.7-36.3,81-81,81ZM2088,756V108c0-19.9-16.1-36-36-36H108c-19.9,0-36,16.1-36,36v648c0,19.9,16.1,36,36,36h1944c19.9,0,36-16.1,36-36Z"/>
  <g>
    <path class="st0" d="M318,576v-288h90.8c38.2,0,65.6,30.3,65.6,74.8s-7.1,38.4-30.2,62.7c22.2,18.2,35.3,42.4,35.3,71.7,0,43.1-34.3,78.8-76.6,78.8h-84.7ZM359.4,328.4v76.8h43.3c19.2,0,31.3-16.2,31.3-42.4s-8.9-34.3-31.2-34.3h-43.4ZM359.4,535.6h41.3c23.2,0,38.3-16.2,38.3-41.4s-16.7-48.5-38.3-48.5h-41.4v89.9Z"/>
    <path class="st0" d="M528.3,492.3v-204.3h41.3v207.1c0,27.1,15.8,45.5,40.3,45.5s38.3-18.2,38.3-45.5v-207.1h41.4v204.9c0,65.5-50.6,88.1-79.7,88.1s-81.6-17.3-81.6-88.7Z"/>
    <path class="st0" d="M821.3,392.9c31.5,19.8,78.7,47.4,78.7,104.3s-35.5,83.8-80.2,83.8-81.2-42.9-81.2-89.9h40.6c0,24.5,12.2,49.5,40.6,49.5s40.6-20.2,40.6-43.5c0-62.6-107.5-59-107.5-139.5s32.5-74.7,74-74.7,72.1,31.3,73.1,74.8h-39.6c-1-20.2-15.2-33.3-33.5-33.3s-34.5,14.1-34.5,33.3,9.9,23.3,28.8,35.2Z"/>
  </g>
  <g>
    <path class="st0" d="M1080,288h41.5v249.6h105.4v38.4h-146.9v-288Z"/>
    <path class="st0" d="M1366.8,497.2h-61.8l-19.3,78.8h-41.5l71.9-288h40.6l71.9,288h-41.5l-20.3-78.8ZM1315.1,456.8h41.5l-21.3-82.9-20.3,82.9Z"/>
    <path class="st0" d="M1510.3,383v193h-41.3v-288h41.3l78.7,172.8v-172.8h41.4v288h-31.2l-88.8-193Z"/>
    <path class="st0" d="M1693.7,288h135.8v40.4h-94.2v72.8h59.8v39.4h-59.8v95h105.4v40.4h-146.9v-288Z"/>
  </g>
</svg>