<?xml version="1.0" encoding="UTF-8" standalone="no"?>
<!-- Created with Inkscape (http://www.inkscape.org/) -->

<svg
   version="1.1"
   id="svg1"
   width="7488.6665"
   height="9216.667"
   viewBox="0 0 7488.6665 9216.667"
   sodipodi:docname="tmpvio9egbl.pdf"
   xmlns:inkscape="http://www.inkscape.org/namespaces/inkscape"
   xmlns:sodipodi="http://sodipodi.sourceforge.net/DTD/sodipodi-0.dtd"
   xmlns="http://www.w3.org/2000/svg"
   xmlns:svg="http://www.w3.org/2000/svg">
  <defs
     id="defs1" />
  <sodipodi:namedview
     id="namedview1"
     pagecolor="#ffffff"
     bordercolor="#000000"
     borderopacity="0.25"
     inkscape:showpageshadow="2"
     inkscape:pageopacity="0.0"
     inkscape:pagecheckerboard="0"
     inkscape:deskcolor="#d1d1d1">
    <inkscape:page
       x="0"
       y="0"
       inkscape:label="1"
       id="page1"
       width="7488.6665"
       height="9216.667"
       margin="0"
       bleed="0" />
  </sodipodi:namedview>
  <g
     id="g1"
     inkscape:groupmode="layer"
     inkscape:label="1">
    <g
       id="group-R5">
      <path
         id="path2"
         d="M 2162.5,1.20313 C 1587.6,1.20313 1045.52,226.703 636.117,636.102 226.719,1045.5 1.25,1587.59 1.25,2162.5 v 64800 c 0,574.9 225.469,1117 634.867,1526.4 409.403,409.4 951.483,634.9 1526.383,634.9 h 51840 c 574.9,0 1117,-225.5 1526.4,-634.9 409.4,-409.4 634.9,-951.5 634.9,-1526.4 v -64800 c 0,-574.91 -225.5,-1117 -634.9,-1526.398 C 55119.5,226.703 54577.4,1.20313 54002.5,1.20313 h -51840"
         style="fill:#ffffff;fill-opacity:1;fill-rule:nonzero;stroke:none"
         transform="matrix(0.13333333,0,0,-0.13333333,0,9216.6667)" />
      <path
         id="path3"
         d="m 54002.5,69125 h -51840 c -290.64,0 -573.15,-57.4 -839.67,-170.6 -257.27,-109.3 -488.611,-265.6 -687.596,-464.6 -198.984,-199 -355.3,-430.4 -464.601,-687.6 C 57.4102,67535.6 0,67253.1 0,66962.5 V 2162.5 C 0,1871.9 57.4102,1589.3 170.633,1322.8 279.934,1065.6 436.25,834.203 635.234,635.203 834.219,436.203 1065.56,279.906 1322.83,170.602 1589.35,57.4063 1871.86,0 2162.5,0 h 51840 c 290.6,0 573.2,57.4063 839.7,170.602 257.2,109.304 488.6,265.601 687.6,464.601 199,199 355.3,430.397 464.6,687.597 113.2,266.5 170.6,549.1 170.6,839.7 v 64800 c 0,290.6 -57.4,573.1 -170.6,839.7 -109.3,257.2 -265.6,488.6 -464.6,687.6 -199,199 -430.4,355.3 -687.6,464.6 -266.5,113.2 -549.1,170.6 -839.7,170.6 z m 0,-2.5 c 1188,0 2160,-972 2160,-2160 v -64800 c 0,-1188 -972,-2160 -2160,-2160 h -51840 c -1188,0 -2160,972 -2160,2160 v 64800 c 0,1188 972,2160 2160,2160 h 51840"
         style="fill:#231f20;fill-opacity:1;fill-rule:nonzero;stroke:none"
         transform="matrix(0.13333333,0,0,-0.13333333,0,9216.6667)" />
      <path
         id="path4"
         d="m 2162.5,541.203 c -431.26,0 -837.9,169.195 -1145.01,476.297 -307.103,307.1 -476.24,713.7 -476.24,1145 v 64800 c 0,431.3 169.137,837.9 476.24,1145 307.11,307.1 713.75,476.3 1145.01,476.3 h 51840 c 431.3,0 837.9,-169.2 1145,-476.3 307.1,-307.1 476.3,-713.7 476.3,-1145 v -64800 c 0,-431.3 -169.2,-837.9 -476.3,-1145 -307.1,-307.102 -713.7,-476.297 -1145,-476.297 h -51840"
         style="fill:#231f20;fill-opacity:1;fill-rule:nonzero;stroke:none"
         transform="matrix(0.13333333,0,0,-0.13333333,0,9216.6667)" />
      <path
         id="path5"
         d="m 54002.5,68585 h -51840 c -218.07,0 -430.02,-43.1 -629.99,-128 -193.03,-82 -366.61,-199.3 -515.9,-348.6 C 867.316,67959.1 750.031,67785.5 668.023,67592.5 583.074,67392.5 540,67180.6 540,66962.5 v -64800 c 0,-218.1 43.074,-430 128.023,-630 82.008,-193 199.293,-366.6 348.587,-515.9 C 1165.9,867.297 1339.48,750 1532.51,668 1732.48,583.102 1944.43,540 2162.5,540 h 51840 c 218.1,0 430,43.102 630,128 193,82 366.6,199.297 515.9,348.6 149.3,149.3 266.6,322.9 348.6,515.9 84.9,200 128,411.9 128,630 v 64800 c 0,218.1 -43.1,430 -128,630 -82,193 -199.3,366.6 -348.6,515.9 -149.3,149.3 -322.9,266.6 -515.9,348.6 -200,84.9 -411.9,128 -630,128 z m 0,-2.5 c 891,0 1620,-729 1620,-1620 v -64800 c 0,-891 -729,-1620 -1620,-1620 h -51840 c -891,0 -1620,729 -1620,1620 v 64800 c 0,891 729,1620 1620,1620 h 51840"
         style="fill:#ffffff;fill-opacity:1;fill-rule:nonzero;stroke:none"
         transform="matrix(0.13333333,0,0,-0.13333333,0,9216.6667)" />
      <path
         id="path6"
         d="m 54002.5,1442.5 h -51840 c -396,0 -720,324 -720,720 v 43020 h 53280 v -43020 c 0,-396 -324,-720 -720,-720"
         style="fill:#ffffff;fill-opacity:1;fill-rule:nonzero;stroke:none"
         transform="matrix(0.13333333,0,0,-0.13333333,0,9216.6667)" />
      <path
         id="path7"
         d="m 28082.7,63103.1 -3110.5,-6220.6 3110.5,-6220.6 3110.1,6220.6 z m 0,3139.4 4679.8,-9360 -4679.8,-9360 -4680.2,9360 4680.2,9360"
         style="fill:#ffffff;fill-opacity:1;fill-rule:evenodd;stroke:none"
         transform="matrix(0.13333333,0,0,-0.13333333,0,9216.6667)" />
      <path
         id="path8"
         d="m 5244.46,42482.5 h 907.15 v -5040 h -907.15 v 5040"
         style="fill:#231f20;fill-opacity:1;fill-rule:nonzero;stroke:none"
         transform="matrix(0.13333333,0,0,-0.13333333,0,9216.6667)" />
      <path
         id="path9"
         d="m 8218.59,40908.8 v -3466.3 h -887.62 v 5040 h 886.99 l 2327.74,-3325.1 v 3325.1 h 870 v -5040 h -781.8 l -2415.31,3466.3"
         style="fill:#231f20;fill-opacity:1;fill-rule:nonzero;stroke:none"
         transform="matrix(0.13333333,0,0,-0.13333333,0,9216.6667)" />
      <path
         id="path10"
         d="m 15774.1,39635.5 h -2272.9 v -2193 h -905.9 v 5040 h 905.9 v -1945.4 h 2272.9 v 1945.4 h 905.9 v -5040 h -905.9 v 2193"
         style="fill:#231f20;fill-opacity:1;fill-rule:nonzero;stroke:none"
         transform="matrix(0.13333333,0,0,-0.13333333,0,9216.6667)" />
      <path
         id="path11"
         d="m 17859.6,42482.5 h 3691 v -902.2 h -2768.1 v -936.8 h 1508.1 v -919.8 h -1508.1 v -1379 h 2856.9 v -902.2 h -3779.8 v 5040"
         style="fill:#231f20;fill-opacity:1;fill-rule:nonzero;stroke:none"
         transform="matrix(0.13333333,0,0,-0.13333333,0,9216.6667)" />
      <path
         id="path12"
         d="m 23448.9,41580.3 v -1254.9 h 1451.4 c 441.6,0 724.5,253.9 724.5,618.7 0,389.3 -283.5,636.2 -725.1,636.2 z m 2263.5,-1980.7 919.1,-2157.1 h -1007.3 l -813.3,1980.7 h -1362 v -1980.7 h -902.1 v 5040 h 2382.5 c 1041.4,0 1596.4,-822.8 1596.4,-1538.4 0,-565.8 -300.5,-1061.6 -813.3,-1344.5"
         style="fill:#231f20;fill-opacity:1;fill-rule:nonzero;stroke:none"
         transform="matrix(0.13333333,0,0,-0.13333333,0,9216.6667)" />
      <path
         id="path13"
         d="m 27538.9,42482.5 h 3691 v -902.2 h -2768.1 v -936.8 h 1508.1 v -919.8 h -1508.1 v -1379 h 2856.9 v -902.2 h -3779.8 v 5040"
         style="fill:#231f20;fill-opacity:1;fill-rule:nonzero;stroke:none"
         transform="matrix(0.13333333,0,0,-0.13333333,0,9216.6667)" />
      <path
         id="path14"
         d="m 33113.7,40908.8 v -3466.3 h -887.6 v 5040 h 886.9 l 2327.8,-3325.1 v 3325.1 h 870 v -5040 H 35529 l -2415.3,3466.3"
         style="fill:#231f20;fill-opacity:1;fill-rule:nonzero;stroke:none"
         transform="matrix(0.13333333,0,0,-0.13333333,0,9216.6667)" />
      <path
         id="path15"
         d="m 39413.7,37442.5 h -883.3 V 41598 h -1448.2 v 884.5 H 40862 V 41598 h -1448.3 v -4155.5"
         style="fill:#231f20;fill-opacity:1;fill-rule:nonzero;stroke:none"
         transform="matrix(0.13333333,0,0,-0.13333333,0,9216.6667)" />
      <path
         id="path16"
         d="m 41633.3,42482.5 h 905.2 v -4261.9 h 2874.6 v -778.1 h -3779.8 v 5040"
         style="fill:#231f20;fill-opacity:1;fill-rule:nonzero;stroke:none"
         transform="matrix(0.13333333,0,0,-0.13333333,0,9216.6667)" />
      <path
         id="path17"
         d="M 48799.4,37442.5 H 47898 v 2051.3 l -2121.8,2988.7 H 46890 l 1467.2,-2051.3 1449.6,2051.3 h 1113.7 l -2121.1,-2988.7 v -2051.3"
         style="fill:#231f20;fill-opacity:1;fill-rule:nonzero;stroke:none"
         transform="matrix(0.13333333,0,0,-0.13333333,0,9216.6667)" />
      <path
         id="path18"
         d="m 20695.7,34202.5 h 905.3 v -4261.9 h 2874.6 v -778.1 h -3779.9 v 5040"
         style="fill:#231f20;fill-opacity:1;fill-rule:nonzero;stroke:none"
         transform="matrix(0.13333333,0,0,-0.13333333,0,9216.6667)" />
      <path
         id="path19"
         d="m 26103.1,31691.4 c 0,-1078.6 460.5,-1714.9 1222.8,-1714.9 956.9,0 1187.5,937.4 1187.5,1714.9 0,1070.3 -439.1,1697.8 -1187.5,1697.8 -762.3,0 -1222.8,-636.9 -1222.8,-1697.8 z m -921.7,0 c 0,1609 815.2,2598.7 2144.5,2598.7 1254.9,0 2091.5,-1035.7 2091.5,-2581.7 0,-1573.1 -808.9,-2634 -2091.5,-2634 -1488.7,0 -2144.5,1351.9 -2144.5,2617"
         style="fill:#231f20;fill-opacity:1;fill-rule:nonzero;stroke:none"
         transform="matrix(0.13333333,0,0,-0.13333333,0,9216.6667)" />
      <path
         id="path20"
         d="M 33610.9,29162.5 32796.3,32540 32000,29162.5 h -956.3 l -920.4,5040 h 938 l 548.8,-3253.9 744,3253.9 h 902.7 l 779.3,-3253.9 512.8,3253.9 h 920.4 l -902.7,-5040 h -955.7"
         style="fill:#231f20;fill-opacity:1;fill-rule:nonzero;stroke:none"
         transform="matrix(0.13333333,0,0,-0.13333333,0,9216.6667)" />
      <path
         id="path21"
         d="m 10990.4,25922.5 h 3691 v -902.2 h -2768.1 v -936.8 h 1508.2 v -919.8 h -1508.2 v -1379 h 2857 v -902.2 h -3779.9 v 5040"
         style="fill:#231f20;fill-opacity:1;fill-rule:nonzero;stroke:none"
         transform="matrix(0.13333333,0,0,-0.13333333,0,9216.6667)" />
      <path
         id="path22"
         d="m 19630.8,23959.4 -1491.1,-3076.9 -1473.6,3076.9 v -3076.9 h -887.6 v 5040 h 887.6 l 1473.6,-2988.7 1491.1,2988.7 h 887.6 v -5040 h -887.6 v 3076.9"
         style="fill:#231f20;fill-opacity:1;fill-rule:nonzero;stroke:none"
         transform="matrix(0.13333333,0,0,-0.13333333,0,9216.6667)" />
      <path
         id="path23"
         d="m 21829.1,25922.5 h 907.2 v -5040 h -907.2 v 5040"
         style="fill:#231f20;fill-opacity:1;fill-rule:nonzero;stroke:none"
         transform="matrix(0.13333333,0,0,-0.13333333,0,9216.6667)" />
      <path
         id="path24"
         d="M 27118.5,21133.9 C 26763.2,20919 26304,20793 25840.3,20793 c -870,0 -1527.7,322.6 -2095.9,986 l 728.2,573.9 c 373,-447.9 781.2,-645.7 1349.4,-645.7 639.5,0 1101.2,300.5 1101.2,663.3 0,512.2 -510.9,546.9 -1921.4,943.2 -709.3,199 -1026.8,738.9 -1026.8,1280.1 0,843.6 711.2,1416.2 1740.6,1416.2 745.9,0 1368.9,-250.1 1883,-787.5 l -675.4,-609.8 c -319.4,340.8 -728.2,502.1 -1207.6,502.1 -552.5,0 -816.5,-224.3 -816.5,-514.1 0,-558.8 686.1,-435.3 1939.7,-876.9 885.2,-312.5 990.3,-1068.5 990.3,-1388.5 0,-519.8 -231.1,-914.8 -710.6,-1201.4"
         style="fill:#231f20;fill-opacity:1;fill-rule:nonzero;stroke:none"
         transform="matrix(0.13333333,0,0,-0.13333333,0,9216.6667)" />
      <path
         id="path25"
         d="m 31909.1,21133.9 c -355.3,-214.9 -814.5,-340.9 -1278.2,-340.9 -870,0 -1527.7,322.6 -2095.9,986 l 728.2,573.9 c 373,-447.9 781.2,-645.7 1349.4,-645.7 639.5,0 1101.2,300.5 1101.2,663.3 0,512.2 -510.9,546.9 -1921.4,943.2 -709.4,199 -1026.9,738.9 -1026.9,1280.1 0,843.6 711.3,1416.2 1740.7,1416.2 745.9,0 1368.9,-250.1 1883,-787.5 l -675.4,-609.8 c -319.4,340.8 -728.2,502.1 -1207.6,502.1 -552.5,0 -816.5,-224.3 -816.5,-514.1 0,-558.8 686.1,-435.3 1939.7,-876.9 885.1,-312.5 990.3,-1068.5 990.3,-1388.5 0,-519.8 -231.2,-914.8 -710.6,-1201.4"
         style="fill:#231f20;fill-opacity:1;fill-rule:nonzero;stroke:none"
         transform="matrix(0.13333333,0,0,-0.13333333,0,9216.6667)" />
      <path
         id="path26"
         d="m 33628,25922.5 h 907.1 v -5040 H 33628 v 5040"
         style="fill:#231f20;fill-opacity:1;fill-rule:nonzero;stroke:none"
         transform="matrix(0.13333333,0,0,-0.13333333,0,9216.6667)" />
      <path
         id="path27"
         d="m 36616.1,23411.3 c 0,-1078.6 460.5,-1714.9 1222.7,-1714.9 957,0 1187.5,937.5 1187.5,1714.9 0,1070.4 -439,1697.8 -1187.5,1697.8 -762.2,0 -1222.7,-636.9 -1222.7,-1697.8 z m -921.7,0 c 0,1609 815.2,2598.7 2144.4,2598.7 1255,0 2091.6,-1035.7 2091.6,-2581.7 0,-1573.1 -808.9,-2634 -2091.6,-2634 -1488.6,0 -2144.4,1352 -2144.4,2617"
         style="fill:#231f20;fill-opacity:1;fill-rule:nonzero;stroke:none"
         transform="matrix(0.13333333,0,0,-0.13333333,0,9216.6667)" />
      <path
         id="path28"
         d="m 41977.5,24348.7 v -3466.2 h -887.7 v 5040 h 887 l 2327.8,-3325.2 v 3325.2 h 870 v -5040 h -781.8 l -2415.3,3466.2"
         style="fill:#231f20;fill-opacity:1;fill-rule:nonzero;stroke:none"
         transform="matrix(0.13333333,0,0,-0.13333333,0,9216.6667)" />
      <path
         id="path29"
         d="m 11815.2,12602.5 -1831.34,5040 h 958.84 l 1360.7,-3678.6 1360.1,3678.6 h 959.4 l -1848.3,-5040 h -959.4"
         style="fill:#231f20;fill-opacity:1;fill-rule:nonzero;stroke:none"
         transform="matrix(0.13333333,0,0,-0.13333333,0,9216.6667)" />
      <path
         id="path30"
         d="m 15480,17642.5 h 3691 v -902.2 h -2768.1 v -936.8 h 1508.2 v -919.8 h -1508.2 v -1379 h 2856.9 v -902.2 H 15480 v 5040"
         style="fill:#231f20;fill-opacity:1;fill-rule:nonzero;stroke:none"
         transform="matrix(0.13333333,0,0,-0.13333333,0,9216.6667)" />
      <path
         id="path31"
         d="m 23446.9,14795.5 h -2273 v -2193 H 20268 v 5040 h 905.9 v -1945.4 h 2273 v 1945.4 h 905.9 v -5040 h -905.9 v 2193"
         style="fill:#231f20;fill-opacity:1;fill-rule:nonzero;stroke:none"
         transform="matrix(0.13333333,0,0,-0.13333333,0,9216.6667)" />
      <path
         id="path32"
         d="m 25663.4,17642.5 h 907.1 v -5040 h -907.1 v 5040"
         style="fill:#231f20;fill-opacity:1;fill-rule:nonzero;stroke:none"
         transform="matrix(0.13333333,0,0,-0.13333333,0,9216.6667)" />
      <path
         id="path33"
         d="m 28649.6,15149 c 0,-1096.9 459.2,-1732.5 1219.6,-1732.5 459.9,0 707.4,159.4 1149.7,636.9 l 795.6,-424.6 c -371,-707.5 -1132,-1113.9 -1945.3,-1113.9 -1326.1,0 -2139.4,1052.1 -2139.4,2617.1 0,1608.3 815.2,2598.1 2139.4,2598.1 813.3,0 1556.6,-405.8 1945.3,-1113.2 l -795.6,-424.7 c -175.1,305.6 -614.2,637 -1149.7,637 -919.8,0 -1219.6,-902.2 -1219.6,-1680.2"
         style="fill:#231f20;fill-opacity:1;fill-rule:nonzero;stroke:none"
         transform="matrix(0.13333333,0,0,-0.13333333,0,9216.6667)" />
      <path
         id="path34"
         d="m 32974,17642.5 h 905.2 v -4261.9 h 2874.6 v -778.1 H 32974 v 5040"
         style="fill:#231f20;fill-opacity:1;fill-rule:nonzero;stroke:none"
         transform="matrix(0.13333333,0,0,-0.13333333,0,9216.6667)" />
      <path
         id="path35"
         d="m 37610.8,17642.5 h 3691 v -902.2 h -2768.1 v -936.8 h 1508.1 v -919.8 h -1508.1 v -1379 h 2856.9 v -902.2 h -3779.8 v 5040"
         style="fill:#231f20;fill-opacity:1;fill-rule:nonzero;stroke:none"
         transform="matrix(0.13333333,0,0,-0.13333333,0,9216.6667)" />
      <path
         id="path36"
         d="M 45470.5,12853.9 C 45115.2,12639 44656,12513 44192.3,12513 c -869.9,0 -1527.6,322.6 -2095.9,986 l 728.3,573.9 c 372.9,-447.9 781.1,-645.7 1349.4,-645.7 639.4,0 1101.2,300.5 1101.2,663.4 0,512.2 -510.9,546.8 -1921.4,943.1 -709.4,199.1 -1026.9,739 -1026.9,1280.1 0,843.6 711.2,1416.3 1740.6,1416.3 745.9,0 1368.9,-250.1 1883,-787.5 l -675.3,-609.9 c -319.4,340.9 -728.3,502.1 -1207.7,502.1 -552.5,0 -816.4,-224.2 -816.4,-514 0,-558.9 686,-435.4 1939.6,-877 885.1,-312.5 990.3,-1068.5 990.3,-1388.5 0,-519.8 -231.1,-914.8 -710.6,-1201.4"
         style="fill:#231f20;fill-opacity:1;fill-rule:nonzero;stroke:none"
         transform="matrix(0.13333333,0,0,-0.13333333,0,9216.6667)" />
      <path
         id="path37"
         d="m 12385.2,6409.1 h 1414.3 l -706.9,1697.8 z m 1803.6,-901.5 h -2192.3 l -495.2,-1185.1 h -989.7 l 2121.8,5040 h 919.1 l 2103.5,-5040 h -972.7 l -494.5,1185.1"
         style="fill:#231f20;fill-opacity:1;fill-rule:nonzero;stroke:none"
         transform="matrix(0.13333333,0,0,-0.13333333,0,9216.6667)" />
      <path
         id="path38"
         d="m 16513.1,9362.5 h 905.3 V 5100.6 h 2874.5 v -778.1 h -3779.8 v 5040"
         style="fill:#231f20;fill-opacity:1;fill-rule:nonzero;stroke:none"
         transform="matrix(0.13333333,0,0,-0.13333333,0,9216.6667)" />
      <path
         id="path39"
         d="m 21150,9362.5 h 905.2 V 5100.6 h 2874.6 V 4322.5 H 21150 v 5040"
         style="fill:#231f20;fill-opacity:1;fill-rule:nonzero;stroke:none"
         transform="matrix(0.13333333,0,0,-0.13333333,0,9216.6667)" />
      <path
         id="path40"
         d="m 26557.3,6851.3 c 0,-1078.5 460.5,-1714.8 1222.8,-1714.8 956.9,0 1187.5,937.4 1187.5,1714.8 0,1070.4 -439.1,1697.9 -1187.5,1697.9 -762.3,0 -1222.8,-636.9 -1222.8,-1697.9 z m -921.6,0 c 0,1609.1 815.1,2598.8 2144.4,2598.8 1254.9,0 2091.5,-1035.7 2091.5,-2581.8 0,-1573 -808.9,-2634 -2091.5,-2634 -1488.6,0 -2144.4,1352 -2144.4,2617"
         style="fill:#231f20;fill-opacity:1;fill-rule:nonzero;stroke:none"
         transform="matrix(0.13333333,0,0,-0.13333333,0,9216.6667)" />
      <path
         id="path41"
         d="M 34065,4322.5 33250.5,7700 32454.2,4322.5 h -956.3 l -920.4,5040 h 938 l 548.7,-3253.9 744,3253.9 h 902.8 l 779.3,-3253.9 512.8,3253.9 h 920.4 l -902.8,-5040 H 34065"
         style="fill:#231f20;fill-opacity:1;fill-rule:nonzero;stroke:none"
         transform="matrix(0.13333333,0,0,-0.13333333,0,9216.6667)" />
      <path
         id="path42"
         d="m 36780.5,9362.5 h 3691 v -902.1 h -2768.1 v -936.9 h 1508.2 V 6603.8 H 37703.4 V 5224.7 h 2857 v -902.2 h -3779.9 v 5040"
         style="fill:#231f20;fill-opacity:1;fill-rule:nonzero;stroke:none"
         transform="matrix(0.13333333,0,0,-0.13333333,0,9216.6667)" />
      <path
         id="path43"
         d="m 43192.7,8460.4 h -705.6 V 5224.7 h 698.7 c 807.6,0 1566.7,533 1566.7,1626.6 0,1016.9 -637.5,1609.1 -1559.8,1609.1 z M 41568.6,4322.5 v 5040 h 1665.7 c 1603.9,0 2419.1,-1216.5 2419.1,-2511.2 0,-1384.7 -898.4,-2528.8 -2412.8,-2528.8 h -1672"
         style="fill:#231f20;fill-opacity:1;fill-rule:nonzero;stroke:none"
         transform="matrix(0.13333333,0,0,-0.13333333,0,9216.6667)" />
    </g>
  </g>
</svg>
