<?xml version="1.0" encoding="UTF-8"?>
<svg id="For_Sheets" xmlns="http://www.w3.org/2000/svg" version="1.1" viewBox="0 0 2160 864">
  <!-- Generator: Adobe Illustrator 29.1.0, SVG Export Plug-In . SVG Version: 2.1.0 Build 142)  -->
  <defs>
    <style>
      .st0 {
        fill: #231f20;
      }

      .st1 {
        fill: #fff;
      }
    </style>
  </defs>
  <g>
    <rect class="st1" x="-.1" y="-.1" width="2160.2" height="864.2" rx="108.1" ry="108.1"/>
    <path class="st0" d="M2052,0c59.6,0,108,48.4,108,108v648c0,59.6-48.4,108-108,108H108c-59.6,0-108-48.4-108-108V108C0,48.4,48.4,0,108,0h1944M2052-.2H108C79.1-.2,51.9,11,31.5,31.5,11,51.9-.2,79.1-.2,108v648c0,28.9,11.3,56.1,31.7,76.5,20.4,20.4,47.6,31.7,76.5,31.7h1944c28.9,0,56.1-11.3,76.5-31.7,20.4-20.4,31.7-47.6,31.7-76.5V108c0-28.9-11.3-56.1-31.7-76.5-20.4-20.4-47.6-31.7-76.5-31.7h0Z"/>
  </g>
  <path class="st0" d="M2052,837H108c-44.7,0-81-36.3-81-81V108c0-44.7,36.3-81,81-81h1944c44.7,0,81,36.3,81,81v648c0,44.7-36.3,81-81,81ZM2088,756V108c0-19.9-16.1-36-36-36H108c-19.9,0-36,16.1-36,36v648c0,19.9,16.1,36,36,36h1944c19.9,0,36-16.1,36-36Z"/>
  <g>
    <path class="st0" d="M262.5,288h41.5v249.6h105.4v38.4h-146.9v-288Z"/>
    <path class="st0" d="M449.8,288h135.8v40.4h-94.2v72.8h59.8v39.4h-59.8v95h105.4v40.4h-146.9v-288Z"/>
    <path class="st0" d="M687.2,401.2h57.8v39.4h-57.8v135.4h-41.5v-288h146.9v40.4h-105.4v72.8Z"/>
    <path class="st0" d="M904.2,576h-41.5v-249.6h-52.7v-38.4h146.9v38.4h-52.7v249.6Z"/>
  </g>
  <g>
    <path class="st0" d="M1136.9,288h41.5v249.6h105.4v38.4h-146.9v-288Z"/>
    <path class="st0" d="M1423.7,497.2h-61.8l-19.3,78.8h-41.5l71.9-288h40.6l71.9,288h-41.5l-20.3-78.8ZM1372,456.8h41.5l-21.3-82.9-20.3,82.9Z"/>
    <path class="st0" d="M1567.1,383v193h-41.3v-288h41.3l78.7,172.8v-172.8h41.4v288h-31.2l-88.8-193Z"/>
    <path class="st0" d="M1750.5,288h135.8v40.4h-94.2v72.8h59.8v39.4h-59.8v95h105.4v40.4h-146.9v-288Z"/>
  </g>
</svg>