<?xml version="1.0" encoding="UTF-8" standalone="no"?>
<!-- Created with Inkscape (http://www.inkscape.org/) -->

<svg
   version="1.1"
   id="svg1"
   width="6912.6665"
   height="1728.6667"
   viewBox="0 0 6912.6665 1728.6667"
   sodipodi:docname="tmpogptr0wq.pdf"
   xmlns:inkscape="http://www.inkscape.org/namespaces/inkscape"
   xmlns:sodipodi="http://sodipodi.sourceforge.net/DTD/sodipodi-0.dtd"
   xmlns="http://www.w3.org/2000/svg"
   xmlns:svg="http://www.w3.org/2000/svg">
  <defs
     id="defs1" />
  <sodipodi:namedview
     id="namedview1"
     pagecolor="#ffffff"
     bordercolor="#000000"
     borderopacity="0.25"
     inkscape:showpageshadow="2"
     inkscape:pageopacity="0.0"
     inkscape:pagecheckerboard="0"
     inkscape:deskcolor="#d1d1d1">
    <inkscape:page
       x="0"
       y="0"
       inkscape:label="1"
       id="page1"
       width="6912.6665"
       height="1728.6667"
       margin="0"
       bleed="0" />
  </sodipodi:namedview>
  <g
     id="g1"
     inkscape:groupmode="layer"
     inkscape:label="1">
    <g
       id="group-R5">
      <path
         id="path2"
         d="M 1082.5,1.19922 C 486.293,1.19922 1.25,486.301 1.25,1082.5 v 10800 c 0,596.2 485.043,1081.3 1081.25,1081.3 h 49680 c 596.2,0 1081.3,-485.1 1081.3,-1081.3 V 1082.5 C 51843.8,486.301 51358.7,1.19922 50762.5,1.19922 h -49680"
         style="fill:#ffffff;fill-opacity:1;fill-rule:nonzero;stroke:none"
         transform="matrix(0.13333333,0,0,-0.13333333,0,1728.6667)" />
      <path
         id="path3"
         d="m 50762.5,12965 h -49680 c -289.148,0 -560.988,-112.6 -765.445,-317.1 C 112.602,12443.5 0,12171.6 0,11882.5 V 1082.5 C 0,793.398 112.602,521.5 317.055,317.102 521.512,112.602 793.352,0 1082.5,0 h 49680 c 289.1,0 561,112.602 765.4,317.102 204.5,204.398 317.1,476.296 317.1,765.398 v 10800 c 0,289.1 -112.6,561 -317.1,765.4 -204.4,204.5 -476.3,317.1 -765.4,317.1 z m 0,-2.5 c 596.5,0 1080,-483.5 1080,-1080 V 1082.5 C 51842.5,486 51359,2.5 50762.5,2.5 H 1082.5 C 486.023,2.5 2.5,486 2.5,1082.5 v 10800 c 0,596.5 483.523,1080 1080,1080 h 49680"
         style="fill:#231f20;fill-opacity:1;fill-rule:nonzero;stroke:none"
         transform="matrix(0.13333333,0,0,-0.13333333,0,1728.6667)" />
      <path
         id="path4"
         d="m 51122.5,1082.5 c 0,-198.5 -161.5,-360 -360,-360 h -49680 c -198.508,0 -360,161.5 -360,360 v 10800 c 0,198.5 161.492,360 360,360 h 49680 c 198.5,0 360,-161.5 360,-360 z m -360,11610 h -49680 c -446.637,0 -810,-363.4 -810,-810 v -10800 c 0,-446.602 363.363,-810 810,-810 h 49680 c 446.6,0 810,363.398 810,810 v 10800 c 0,446.6 -363.4,810 -810,810"
         style="fill:#231f20;fill-opacity:1;fill-rule:nonzero;stroke:none"
         transform="matrix(0.13333333,0,0,-0.13333333,0,1728.6667)" />
      <path
         id="path5"
         d="m 4660.85,5987.13 h 830.86 L 5066.2,7644.57 Z M 5694.02,5178.57 H 4458.54 L 4073.35,3602.49 H 3242.5 l 1438.52,5760 h 811.41 l 1437.79,-5760 h -830.85 l -405.35,1576.08"
         style="fill:#231f20;fill-opacity:1;fill-rule:nonzero;stroke:none"
         transform="matrix(0.13333333,0,0,-0.13333333,0,1728.6667)" />
      <path
         id="path6"
         d="m 7736.8,9362.49 h 830.86 V 4370.73 H 10675.7 V 3602.49 H 7736.8 v 5760"
         style="fill:#231f20;fill-opacity:1;fill-rule:nonzero;stroke:none"
         transform="matrix(0.13333333,0,0,-0.13333333,0,1728.6667)" />
      <path
         id="path7"
         d="m 11482.3,9362.49 h 830.8 V 4370.73 h 2108.1 v -768.24 h -2938.9 v 5760"
         style="fill:#231f20;fill-opacity:1;fill-rule:nonzero;stroke:none"
         transform="matrix(0.13333333,0,0,-0.13333333,0,1728.6667)" />
      <path
         id="path8"
         d="m 20266.1,3602.5 h -830.8 v 4991.74 h -1054.1 v 768.24 h 2938.9 v -768.24 h -1054 V 3602.5"
         style="fill:#231f20;fill-opacity:1;fill-rule:nonzero;stroke:none"
         transform="matrix(0.13333333,0,0,-0.13333333,0,1728.6667)" />
      <path
         id="path9"
         d="m 22126.6,5276.5 v 4085.98 h 826.6 V 5219.61 c 0,-542.15 316.8,-910.07 806.3,-910.07 443.5,0 766.8,363.6 766.8,910.07 v 4142.87 h 827.2 V 5264.26 c 0,-1310.4 -1012.2,-1762.56 -1594,-1762.56 -532,0 -1632.9,346.32 -1632.9,1774.8"
         style="fill:#231f20;fill-opacity:1;fill-rule:nonzero;stroke:none"
         transform="matrix(0.13333333,0,0,-0.13333333,0,1728.6667)" />
      <path
         id="path10"
         d="M 27447.5,8553.92 V 7098.81 h 846.7 c 485.2,0 746.6,262.79 746.6,727.91 0,444.97 -302.4,727.2 -745.9,727.2 z m 786.9,-2243.51 h -786.9 V 3602.5 H 26621 v 5759.98 h 1714.2 c 903.6,0 1512.6,-606.24 1512.6,-1535.76 0,-686.87 -282.9,-1192.31 -827.2,-1394.63 l 826.5,-2829.59 h -845.9 l -766.8,2707.91"
         style="fill:#231f20;fill-opacity:1;fill-rule:nonzero;stroke:none"
         transform="matrix(0.13333333,0,0,-0.13333333,0,1728.6667)" />
      <path
         id="path11"
         d="M 31653.7,7462.41 V 3602.5 h -826.5 v 5759.98 h 826.5 l 1573.2,-3455.99 v 3455.99 h 827.2 V 3602.5 h -624.9 l -1775.5,3859.91"
         style="fill:#231f20;fill-opacity:1;fill-rule:nonzero;stroke:none"
         transform="matrix(0.13333333,0,0,-0.13333333,0,1728.6667)" />
      <path
         id="path12"
         d="m 36685.9,7264.41 c 629.9,-395.29 1574.5,-948.96 1574.5,-2085.83 0,-932.4 -710.6,-1676.88 -1603.3,-1676.88 -1014.5,0 -1623.6,858.24 -1623.6,1798.56 h 812.2 c 0,-490.32 243.3,-990.72 811.4,-990.72 446.3,0 811.4,403.92 811.4,869.04 0,1252.07 -2150.6,1180.07 -2150.6,2789.26 0,828.72 649.4,1494.71 1481,1494.71 812.1,0 1441.4,-626.39 1461.5,-1495.43 h -791.9 c -20.2,403.92 -304.6,666.72 -669.6,666.72 -385.9,0 -689.7,-282.24 -689.7,-666 0,-374.39 198.7,-466.55 576.7,-703.43"
         style="fill:#231f20;fill-opacity:1;fill-rule:nonzero;stroke:none"
         transform="matrix(0.13333333,0,0,-0.13333333,0,1728.6667)" />
      <path
         id="path13"
         d="M 42668,2791.2 41140.7,4318.57 45054.5,8232.42 46581.9,6705.07 42668,2791.2"
         style="fill:#231f20;fill-opacity:1;fill-rule:nonzero;stroke:none"
         transform="matrix(0.13333333,0,0,-0.13333333,0,1728.6667)" />
      <path
         id="path14"
         d="m 46934.2,5163.92 c 16.9,-30.69 37.6,-57.92 61.1,-81.49 140.6,-140.59 368.6,-140.57 509.2,0.02 49.6,49.56 85.3,114.09 99.2,188.24 l 919,4902.91 -4902.9,-918.95 c -74.2,-13.9 -138.7,-49.62 -188.3,-99.27 -140.6,-140.59 -140.6,-368.57 0,-509.16 23.6,-23.55 50.8,-44.23 81.5,-61.06 l 2209.6,-1211.69 1211.6,-2209.55"
         style="fill:#231f20;fill-opacity:1;fill-rule:nonzero;stroke:none"
         transform="matrix(0.13333333,0,0,-0.13333333,0,1728.6667)" />
    </g>
  </g>
</svg>
