<?xml version="1.0" encoding="UTF-8" standalone="no"?>
<!-- Created with Inkscape (http://www.inkscape.org/) -->

<svg
   version="1.1"
   id="svg1"
   width="2880.6667"
   height="3456.6667"
   viewBox="0 0 2880.6667 3456.6667"
   sodipodi:docname="tmperick4sj.pdf"
   xmlns:inkscape="http://www.inkscape.org/namespaces/inkscape"
   xmlns:sodipodi="http://sodipodi.sourceforge.net/DTD/sodipodi-0.dtd"
   xmlns="http://www.w3.org/2000/svg"
   xmlns:svg="http://www.w3.org/2000/svg">
  <defs
     id="defs1" />
  <sodipodi:namedview
     id="namedview1"
     pagecolor="#ffffff"
     bordercolor="#000000"
     borderopacity="0.25"
     inkscape:showpageshadow="2"
     inkscape:pageopacity="0.0"
     inkscape:pagecheckerboard="0"
     inkscape:deskcolor="#d1d1d1">
    <inkscape:page
       x="0"
       y="0"
       inkscape:label="1"
       id="page1"
       width="2880.6667"
       height="3456.6667"
       margin="0"
       bleed="0" />
  </sodipodi:namedview>
  <g
     id="g1"
     inkscape:groupmode="layer"
     inkscape:label="1">
    <g
       id="group-R5">
      <path
         id="path2"
         d="M 1352.5,1.20313 C 993.063,1.20313 654.141,142.199 398.18,398.203 142.219,654.102 1.25,993.102 1.25,1352.5 v 23220 c 0,359.4 140.969,698.4 396.93,954.3 255.961,256 594.883,397 954.32,397 h 18900 c 359.4,0 698.4,-141 954.3,-397 256,-255.9 397,-594.9 397,-954.3 v -23220 c 0,-359.398 -141,-698.398 -397,-954.297 C 20950.9,142.199 20611.9,1.20313 20252.5,1.20313 h -18900"
         style="fill:#ffffff;fill-opacity:1;fill-rule:nonzero;stroke:none"
         transform="matrix(0.13333333,0,0,-0.13333333,0,3456.6667)" />
      <path
         id="path3"
         d="m 20252.5,25925 h -18900 c -359.773,0 -699.008,-141.1 -955.207,-397.3 C 141.098,25271.5 0,24932.3 0,24572.5 V 1352.5 C 0,992.699 141.098,653.5 397.293,397.301 653.492,141.102 992.727,0 1352.5,0 h 18900 c 359.8,0 699,141.102 955.2,397.301 256.2,256.199 397.3,595.398 397.3,955.199 v 23220 c 0,359.8 -141.1,699 -397.3,955.2 -256.2,256.2 -595.4,397.3 -955.2,397.3 z m 0,-2.5 c 742.5,0 1350,-607.5 1350,-1350 V 1352.5 C 21602.5,610 20995,2.5 20252.5,2.5 H 1352.5 C 610,2.5 2.5,610 2.5,1352.5 v 23220 c 0,742.5 607.5,1350 1350,1350 h 18900"
         style="fill:#231f20;fill-opacity:1;fill-rule:nonzero;stroke:none"
         transform="matrix(0.13333333,0,0,-0.13333333,0,3456.6667)" />
      <path
         id="path4"
         d="m 20252.5,902.5 c 248.1,0 450,201.9 450,450 v 23220 c 0,248.1 -201.9,450 -450,450 h -18900 c -248.13,0 -450,-201.9 -450,-450 v -23220 c 0,-248.1 201.87,-450 450,-450 z m -18900,-540 c -545.891,0 -990,444.102 -990,990 v 23220 c 0,545.9 444.109,990 990,990 h 18900 c 545.9,0 990,-444.1 990,-990 v -23220 c 0,-545.898 -444.1,-990 -990,-990 h -18900"
         style="fill:#231f20;fill-opacity:1;fill-rule:nonzero;stroke:none"
         transform="matrix(0.13333333,0,0,-0.13333333,0,3456.6667)" />
      <path
         id="path5"
         d="M 8177.08,5807.6 V 2882.5 h -681.45 v 4319.9 h 681.45 L 9753.81,4443.6 v 2758.8 h 682.59 V 2882.5 H 9829.95 L 8177.08,5807.6"
         style="fill:#231f20;fill-opacity:1;fill-rule:nonzero;stroke:none"
         transform="matrix(0.13333333,0,0,-0.13333333,0,3456.6667)" />
      <path
         id="path6"
         d="m 11473.3,7202.4 h 681.4 V 3519.1 h 1998 v -636.6 h -2679.4 v 4319.9"
         style="fill:#231f20;fill-opacity:1;fill-rule:nonzero;stroke:none"
         transform="matrix(0.13333333,0,0,-0.13333333,0,3456.6667)" />
      <path
         id="path7"
         d="m 16621.1,2882.5 h -685.8 V 4762.2 L 14412,7202.4 h 822.9 L 16270.6,5534.9 17322,7202.4 h 807.2 L 16621.1,4762.2 V 2882.5"
         style="fill:#231f20;fill-opacity:1;fill-rule:nonzero;stroke:none"
         transform="matrix(0.13333333,0,0,-0.13333333,0,3456.6667)" />
      <path
         id="path8"
         d="m 5018.06,3503.5 c 465.49,0 843.48,441.1 843.48,1539 0,1097.8 -377.99,1538.9 -843.48,1538.9 -465.47,0 -843.47,-440.6 -843.47,-1538.9 0,-1097.9 378,-1539 843.47,-1539 z m 1527.12,1539 c 0,-155 32.94,-2235.6 -1534.67,-2235.6 -1567.61,0 -1534.68,2080.6 -1534.68,2235.6 0,154.9 -32.93,2235 1534.68,2235 1567.61,0 1534.67,-2080.1 1534.67,-2235"
         style="fill:#231f20;fill-opacity:1;fill-rule:nonzero;stroke:none"
         transform="matrix(0.13333333,0,0,-0.13333333,0,3456.6667)" />
      <path
         id="path9"
         d="M 11723.3,9362.5 H 9900.81 v 2160 c 0,713.5 -221.66,1402.9 -641.13,1993.8 -430.89,589.6 -1014.33,1019.7 -1687.5,1244.1 l -1917.62,640.8 577.64,1728.6 1916.96,-640.6 c 1035.94,-345.3 1930.54,-1003.6 2586.34,-1903.5 l 5.9,-8.3 c 642.4,-902.3 981.9,-1958.7 981.9,-3054.9 v -2160"
         style="fill:#231f20;fill-opacity:1;fill-rule:nonzero;stroke:none"
         transform="matrix(0.13333333,0,0,-0.13333333,0,3456.6667)" />
      <path
         id="path10"
         d="m 5969.18,14098.8 c -1.14,-29.5 -6.49,-57.8 -15.39,-84.5 -53.17,-159.1 -225.3,-245 -384.4,-191.8 -56.15,18.7 -107.44,54 -145.87,104.7 l -2541.02,3355.3 4047.71,1153.4 c 61.22,17.5 123.4,14.8 179.52,-4 159.1,-53.1 245.02,-225.2 191.85,-384.4 -8.93,-26.6 -21.69,-52.5 -38.52,-76.8 l -1211.59,-1747.2 -82.29,-2124.7"
         style="fill:#231f20;fill-opacity:1;fill-rule:nonzero;stroke:none"
         transform="matrix(0.13333333,0,0,-0.13333333,0,3456.6667)" />
      <path
         id="path11"
         d="m 15372.8,15277.8 -1904.8,638.1 c -520.4,173.6 -1007.2,425.7 -1447.1,749.4 -442.6,325.7 -827.9,716.8 -1145,1162.3 -642.3,902.3 -981.83,1958.7 -981.83,3054.9 v 2160 h 1822.53 v -2160 c 0,-715.2 222.7,-1406.1 644.1,-1998 204.7,-287.7 453.9,-540.4 740.4,-751.4 286.6,-210.8 604.2,-375.2 944.1,-488.5 l 1.3,-0.5 1905.2,-638.2 -578.9,-1728.1"
         style="fill:#231f20;fill-opacity:1;fill-rule:nonzero;stroke:none"
         transform="matrix(0.13333333,0,0,-0.13333333,0,3456.6667)" />
      <path
         id="path12"
         d="m 14341.4,14443.2 c -16.8,-24.2 -29.6,-50.1 -38.6,-76.8 -53.2,-159 32.5,-331.2 191.6,-384.5 56.1,-18.8 118.3,-21.5 179.5,-4.1 l 4048.6,1150.4 -2538.5,3357.2 c -38.4,50.7 -89.6,86 -145.8,104.8 -159,53.3 -331.2,-32.5 -384.5,-191.5 -8.9,-26.7 -14.3,-55 -15.5,-84.6 l -83.9,-2124.5 -1212.9,-1746.4"
         style="fill:#231f20;fill-opacity:1;fill-rule:nonzero;stroke:none"
         transform="matrix(0.13333333,0,0,-0.13333333,0,3456.6667)" />
    </g>
  </g>
</svg>
