<?xml version="1.0" encoding="UTF-8" standalone="no"?>
<!-- Created with Inkscape (http://www.inkscape.org/) -->

<svg
   version="1.1"
   id="svg1"
   width="1728.6667"
   height="2304.6667"
   viewBox="0 0 1728.6667 2304.6667"
   sodipodi:docname="tmp18qnbyq3.pdf"
   xmlns:inkscape="http://www.inkscape.org/namespaces/inkscape"
   xmlns:sodipodi="http://sodipodi.sourceforge.net/DTD/sodipodi-0.dtd"
   xmlns="http://www.w3.org/2000/svg"
   xmlns:svg="http://www.w3.org/2000/svg">
  <defs
     id="defs1" />
  <sodipodi:namedview
     id="namedview1"
     pagecolor="#ffffff"
     bordercolor="#000000"
     borderopacity="0.25"
     inkscape:showpageshadow="2"
     inkscape:pageopacity="0.0"
     inkscape:pagecheckerboard="0"
     inkscape:deskcolor="#d1d1d1">
    <inkscape:page
       x="0"
       y="0"
       inkscape:label="1"
       id="page1"
       width="1728.6667"
       height="2304.6667"
       margin="0"
       bleed="0" />
  </sodipodi:namedview>
  <g
     id="g1"
     inkscape:groupmode="layer"
     inkscape:label="1">
    <g
       id="group-R5">
      <path
         id="path2"
         d="M 12962.5,1082.5 C 12962.5,486 12479,2.5 11882.5,2.5 H 1082.5 C 486.035,2.5 2.5,486 2.5,1082.5 v 15120 c 0,596.5 483.535,1080 1080,1080 h 10800 c 596.5,0 1080,-483.5 1080,-1080 v -15120"
         style="fill:#ffffff;fill-opacity:1;fill-rule:nonzero;stroke:none"
         transform="matrix(0.13333333,0,0,-0.13333333,0,2304.6667)" />
      <path
         id="path3"
         d="M 12962.5,1082.5 C 12962.5,486 12479,2.5 11882.5,2.5 H 1082.5 C 486.035,2.5 2.5,486 2.5,1082.5 v 15120 c 0,596.5 483.535,1080 1080,1080 h 10800 c 596.5,0 1080,-483.5 1080,-1080 z"
         style="fill:none;stroke:#231f20;stroke-width:5;stroke-linecap:butt;stroke-linejoin:miter;stroke-miterlimit:4;stroke-dasharray:none;stroke-opacity:1"
         transform="matrix(0.13333333,0,0,-0.13333333,0,2304.6667)" />
      <path
         id="path4"
         d="m 1082.5,272.5 c -446.637,0 -810,363.402 -810,810 v 15120 c 0,446.6 363.363,810 810,810 h 10800 c 446.6,0 810,-363.4 810,-810 v -15120 c 0,-446.598 -363.4,-810 -810,-810 h -10800"
         style="fill:#231f20;fill-opacity:1;fill-rule:nonzero;stroke:none"
         transform="matrix(0.13333333,0,0,-0.13333333,0,2304.6667)" />
      <path
         id="path5"
         d="m 1082.5,722.5 c -198.508,0 -360,161.5 -360,360 v 15120 c 0,198.5 161.492,360 360,360 h 10800 c 198.5,0 360,-161.5 360,-360 v -15120 c 0,-198.5 -161.5,-360 -360,-360 h -10800"
         style="fill:#ffffff;fill-opacity:1;fill-rule:nonzero;stroke:none"
         transform="matrix(0.13333333,0,0,-0.13333333,0,2304.6667)" />
      <path
         id="path6"
         d="m 2526.57,14599.6 c -52.94,151.5 -143.7,219.8 -279.85,219.8 h -257.15 v -1553.7 h 257.15 c 181.53,0 279.85,144 310.1,310.7 15.13,136.4 30.26,288 30.26,454.7 0,242.6 -22.7,477.5 -60.51,568.5 z m 52.94,-1538.6 c -75.63,-68.2 -181.52,-98.5 -302.53,-98.5 h -597.51 v 2160 h 552.13 c 181.52,0 272.28,-22.7 347.91,-83.4 128.58,-90.9 219.34,-257.7 257.16,-477.4 30.25,-159.2 52.94,-348.7 52.94,-515.4 0,-500.2 -98.33,-818.5 -310.1,-985.3"
         style="fill:#231f20;fill-opacity:1;fill-rule:nonzero;stroke:none"
         transform="matrix(0.13333333,0,0,-0.13333333,0,2304.6667)" />
      <path
         id="path7"
         d="m 4342.42,14584.4 c -53.44,189.5 -137.41,272.8 -267.2,272.8 -137.42,0 -221.4,-83.3 -274.84,-265.2 -53.44,-166.8 -68.71,-310.8 -68.71,-553.3 0,-234.9 22.91,-371.4 68.71,-545.7 53.44,-181.9 137.42,-265.2 274.84,-265.2 129.79,0 213.76,83.3 267.2,265.2 53.45,174.3 68.7,303.2 68.7,553.3 0,242.5 -22.89,378.9 -68.7,538.1 z M 4586.73,13296 c -106.9,-257.7 -267.21,-371.4 -511.51,-371.4 -259.57,0 -412.25,113.7 -519.14,371.4 -91.62,212.2 -122.14,416.8 -122.14,750.3 0,325.9 30.52,545.7 122.14,750.3 114.52,257.7 267.21,363.8 519.14,363.8 251.94,0 404.61,-106.1 511.51,-371.4 91.61,-212.2 122.15,-416.8 122.15,-742.7 0,-333.5 -30.54,-545.7 -122.15,-750.3"
         style="fill:#231f20;fill-opacity:1;fill-rule:nonzero;stroke:none"
         transform="matrix(0.13333333,0,0,-0.13333333,0,2304.6667)" />
      <path
         id="path8"
         d="m 7844.55,12962.5 -665.57,1447.6 v -1447.6 h -310.11 v 2160 h 310.11 l 589.95,-1296 v 1296 h 310.09 v -2160 h -234.47"
         style="fill:#231f20;fill-opacity:1;fill-rule:nonzero;stroke:none"
         transform="matrix(0.13333333,0,0,-0.13333333,0,2304.6667)" />
      <path
         id="path9"
         d="m 9505.92,14584.4 c -53.44,189.5 -137.42,272.9 -267.21,272.9 -137.42,0 -221.41,-83.4 -274.84,-265.3 -53.44,-166.8 -68.71,-310.7 -68.71,-553.3 0,-234.9 22.91,-371.4 68.71,-545.7 53.43,-181.9 137.42,-265.2 274.84,-265.2 129.79,0 213.77,83.3 267.21,265.2 53.44,174.3 68.69,303.2 68.69,553.3 0,242.5 -22.89,378.9 -68.69,538.1 z M 9750.21,13296 c -106.89,-257.7 -267.2,-371.4 -511.5,-371.4 -259.57,0 -412.25,113.7 -519.14,371.4 -91.62,212.2 -122.15,416.8 -122.15,750.3 0,325.9 30.53,545.7 122.15,750.3 114.51,257.7 267.21,363.8 519.14,363.8 251.93,0 404.61,-106.1 511.5,-371.4 91.63,-212.2 122.15,-416.8 122.15,-742.7 0,-333.5 -30.52,-545.7 -122.15,-750.3"
         style="fill:#231f20;fill-opacity:1;fill-rule:nonzero;stroke:none"
         transform="matrix(0.13333333,0,0,-0.13333333,0,2304.6667)" />
      <path
         id="path10"
         d="m 10890.3,14834.5 v -1872 h -311.7 v 1872 h -395.2 v 288 h 1102.1 v -288 h -395.2"
         style="fill:#231f20;fill-opacity:1;fill-rule:nonzero;stroke:none"
         transform="matrix(0.13333333,0,0,-0.13333333,0,2304.6667)" />
      <path
         id="path11"
         d="M 7706.56,5762.5 7041,7210.1 V 5762.5 h -310.1 v 2160 H 7041 l 589.94,-1296 v 1296 h 310.1 v -2160 h -234.48"
         style="fill:#231f20;fill-opacity:1;fill-rule:nonzero;stroke:none"
         transform="matrix(0.13333333,0,0,-0.13333333,0,2304.6667)" />
      <path
         id="path12"
         d="m 5932.45,7384.39 c -53.44,189.48 -137.42,272.86 -267.21,272.86 -137.41,0 -221.38,-83.38 -274.82,-265.28 -53.45,-166.77 -68.71,-310.77 -68.71,-553.27 0,-235 22.9,-371.4 68.71,-545.7 53.44,-181.9 137.41,-265.2 274.82,-265.2 129.79,0 213.77,83.3 267.21,265.2 53.45,174.3 68.71,303.2 68.71,553.3 0,242.5 -22.91,378.9 -68.71,538.09 z M 6176.75,6096 c -106.88,-257.7 -267.2,-371.4 -511.51,-371.4 -259.57,0 -412.24,113.7 -519.13,371.4 -91.61,212.2 -122.15,416.8 -122.15,750.3 0,325.9 30.54,545.67 122.15,750.3 114.52,257.7 267.21,363.79 519.13,363.79 251.95,0 404.63,-106.09 511.51,-371.37 91.62,-212.2 122.16,-416.82 122.16,-742.72 0,-333.5 -30.54,-545.7 -122.16,-750.3"
         style="fill:#231f20;fill-opacity:1;fill-rule:nonzero;stroke:none"
         transform="matrix(0.13333333,0,0,-0.13333333,0,2304.6667)" />
      <path
         id="path13"
         d="m 4045.32,10999.6 c -52.95,151.5 -143.71,219.8 -279.84,219.8 H 3508.32 V 9665.65 h 257.16 c 181.52,0 279.84,144.01 310.1,310.75 15.11,136.4 30.25,288 30.25,454.7 0,242.6 -22.7,477.5 -60.51,568.5 z m 52.93,-1538.57 c -75.62,-68.22 -181.5,-98.53 -302.52,-98.53 h -597.51 v 2160 h 552.13 c 181.52,0 272.28,-22.7 347.9,-83.4 128.6,-90.9 219.36,-257.6 257.17,-477.4 30.25,-159.2 52.95,-348.7 52.95,-515.4 0,-500.23 -98.33,-818.54 -310.12,-985.27"
         style="fill:#231f20;fill-opacity:1;fill-rule:nonzero;stroke:none"
         transform="matrix(0.13333333,0,0,-0.13333333,0,2304.6667)" />
      <path
         id="path14"
         d="m 8664.65,9362.5 v 2160 h 1018.51 v -303.1 h -706.87 v -545.7 h 448.46 v -295.6 h -448.46 v -712.45 h 790.49 V 9362.5 H 8664.65"
         style="fill:#231f20;fill-opacity:1;fill-rule:nonzero;stroke:none"
         transform="matrix(0.13333333,0,0,-0.13333333,0,2304.6667)" />
      <path
         id="path15"
         d="m 6417.71,9362.5 v 2160 h 302.39 v -2160 h -302.39"
         style="fill:#231f20;fill-opacity:1;fill-rule:nonzero;stroke:none"
         transform="matrix(0.13333333,0,0,-0.13333333,0,2304.6667)" />
      <path
         id="path16"
         d="m 5468.13,11219.4 h -317.67 v -545.7 h 317.67 c 181.52,0 279.84,98.5 279.84,272.8 0,166.7 -113.45,272.9 -279.84,272.9 z m 264.71,-1856.9 -287.41,1015.6 H 5150.46 V 9362.5 h -310.1 v 2160 h 642.88 c 340.36,0 567.27,-227.4 567.27,-576 0,-257.7 -105.89,-447.1 -310.1,-522.9 l 310.1,-1061.1 h -317.67"
         style="fill:#231f20;fill-opacity:1;fill-rule:nonzero;stroke:none"
         transform="matrix(0.13333333,0,0,-0.13333333,0,2304.6667)" />
      <path
         id="path17"
         d="m 7806.56,9362.5 h -235.97 l -548.09,2160 h 312.11 l 357.77,-1402.1 357.78,1402.1 h 312.09 l -555.69,-2160"
         style="fill:#231f20;fill-opacity:1;fill-rule:nonzero;stroke:none"
         transform="matrix(0.13333333,0,0,-0.13333333,0,2304.6667)" />
      <path
         id="path18"
         d="m 8784.16,3731.3 c -22.68,235 -68.01,310.8 -181.34,310.8 H 8429.04 V 2442.9 h 173.78 c 98.22,0 151.12,68.2 181.34,227.4 7.56,75.8 22.67,318.3 22.67,507.8 0,159.1 -15.11,401.7 -22.67,553.2 z m 256.88,68.3 c 24.74,-175 45.35,-371.4 45.35,-553.3 0,-507.8 -68.01,-833.7 -196.45,-977.7 -60.45,-68.2 -166.23,-106.1 -287.12,-106.1 h -445.78 v 2160 h 445.78 c 151.12,0 256.89,-53.1 324.89,-159.2 52.9,-83.3 94.13,-227.9 113.33,-363.7"
         style="fill:#231f20;fill-opacity:1;fill-rule:nonzero;stroke:none"
         transform="matrix(0.13333333,0,0,-0.13333333,0,2304.6667)" />
      <path
         id="path19"
         d="m 9578.87,2162.5 v 2160 h 791.23 v -280.4 h -519.96 v -553.3 h 346.56 v -288 h -346.56 v -757.9 h 550.06 v -280.4 h -821.33"
         style="fill:#231f20;fill-opacity:1;fill-rule:nonzero;stroke:none"
         transform="matrix(0.13333333,0,0,-0.13333333,0,2304.6667)" />
      <path
         id="path20"
         d="m 3222.13,2162.5 v 1008 h -385.35 v -1008 h -271.99 v 2160 h 271.99 v -871.6 h 385.35 v 871.6 h 272 v -2160 h -272"
         style="fill:#231f20;fill-opacity:1;fill-rule:nonzero;stroke:none"
         transform="matrix(0.13333333,0,0,-0.13333333,0,2304.6667)" />
      <path
         id="path21"
         d="m 6972.81,2162.5 v 2160 h 271.28 V 2412.6 h 550.07 v -250.1 h -821.35"
         style="fill:#231f20;fill-opacity:1;fill-rule:nonzero;stroke:none"
         transform="matrix(0.13333333,0,0,-0.13333333,0,2304.6667)" />
      <path
         id="path22"
         d="m 4483.84,4072.4 c -250.12,0 -216.05,-674.5 -216.05,-826.1 0,-144 -34.07,-841.3 216.05,-841.3 242.53,0 208.46,697.3 208.46,841.3 0,174.3 -3.82,826.1 -208.46,826.1 z m 0,-1947.8 c -538.13,0 -496.48,765.5 -496.48,1121.7 0,371.4 -34.06,1106.5 496.48,1106.5 530.54,0 496.47,-742.7 496.47,-1106.5 0,-356.2 34.07,-1121.7 -496.47,-1121.7"
         style="fill:#231f20;fill-opacity:1;fill-rule:nonzero;stroke:none"
         transform="matrix(0.13333333,0,0,-0.13333333,0,2304.6667)" />
      <path
         id="path23"
         d="M 11220.8,4042.1 H 11088 v -591.2 h 178.3 c 151.8,0 197.3,68.2 197.3,272.9 0,242.5 -53.1,318.3 -242.8,318.3 z m 295.9,-803.4 220,-1076.2 H 11456 l -242.8,1008 H 11088 v -1008 h -273.1 v 2160 h 421.1 c 333.8,0 508.3,-204.6 508.3,-606.3 0,-242.5 -68.3,-379 -227.6,-477.5"
         style="fill:#231f20;fill-opacity:1;fill-rule:nonzero;stroke:none"
         transform="matrix(0.13333333,0,0,-0.13333333,0,2304.6667)" />
      <path
         id="path24"
         d="m 2043.87,3094.7 c 62.34,-133.8 106.21,-318.3 106.21,-469.9 0,-151.6 -68.28,-310.7 -174.48,-401.7 -68.29,-60.6 -165.02,-98.5 -278.82,-98.5 -303.44,0 -460.88,197 -476.05,576 h 280.69 c 0,-83.4 7.58,-113.7 22.76,-159.2 22.75,-83.3 89.15,-136.4 172.6,-136.4 106.21,0 172.6,83.4 172.6,219.8 0,189.5 -66.39,348.6 -233.29,545.7 -98.62,113.7 -165.02,197 -187.78,227.4 -121.38,144 -174.47,295.5 -174.47,447.1 0,295.6 180.18,507.8 438.11,507.8 265.52,0 407.78,-166.7 438.13,-507.8 h -280.7 c -7.58,166.8 -51.23,235 -149.84,235 -106.21,0 -165.02,-91 -165.02,-235 0,-98.5 36.06,-174.3 149.85,-295.6 235.16,-265.2 275.08,-316.4 339.5,-454.7"
         style="fill:#231f20;fill-opacity:1;fill-rule:nonzero;stroke:none"
         transform="matrix(0.13333333,0,0,-0.13333333,0,2304.6667)" />
      <path
         id="path25"
         d="m 6334.43,2352 c -83.28,-159.2 -204.41,-227.4 -393.68,-227.4 -219.56,0 -353.95,98.5 -429.67,295.6 -22.7,68.2 -37.85,144 -37.85,272.8 v 1629.5 h 272.55 V 2655.1 c 0,-159.1 66.27,-250.1 194.97,-250.1 121.13,0 189.27,91 189.27,250.1 v 1667.4 h 272.55 V 2693 c 0,-151.6 -22.71,-257.7 -68.14,-341"
         style="fill:#231f20;fill-opacity:1;fill-rule:nonzero;stroke:none"
         transform="matrix(0.13333333,0,0,-0.13333333,0,2304.6667)" />
    </g>
  </g>
</svg>
