<?xml version="1.0" encoding="UTF-8" standalone="no"?>
<!-- Created with Inkscape (http://www.inkscape.org/) -->

<svg
   version="1.1"
   id="svg1"
   width="1728.6667"
   height="2880.6667"
   viewBox="0 0 1728.6667 2880.6667"
   sodipodi:docname="tmp2g2eq9fg.pdf"
   xmlns:inkscape="http://www.inkscape.org/namespaces/inkscape"
   xmlns:sodipodi="http://sodipodi.sourceforge.net/DTD/sodipodi-0.dtd"
   xmlns="http://www.w3.org/2000/svg"
   xmlns:svg="http://www.w3.org/2000/svg">
  <defs
     id="defs1" />
  <sodipodi:namedview
     id="namedview1"
     pagecolor="#ffffff"
     bordercolor="#000000"
     borderopacity="0.25"
     inkscape:showpageshadow="2"
     inkscape:pageopacity="0.0"
     inkscape:pagecheckerboard="0"
     inkscape:deskcolor="#d1d1d1">
    <inkscape:page
       x="0"
       y="0"
       inkscape:label="1"
       id="page1"
       width="1728.6667"
       height="2880.6667"
       margin="0"
       bleed="0" />
  </sodipodi:namedview>
  <g
     id="g1"
     inkscape:groupmode="layer"
     inkscape:label="1">
    <g
       id="group-R5">
      <path
         id="path2"
         d="M 12962.5,1082.5 C 12962.5,486 12479,2.5 11882.5,2.5 H 1082.5 C 486.031,2.5 2.5,486 2.5,1082.5 v 19440 c 0,596.5 483.531,1080 1080,1080 h 10800 c 596.5,0 1080,-483.5 1080,-1080 v -19440"
         style="fill:#ffffff;fill-opacity:1;fill-rule:nonzero;stroke:none"
         transform="matrix(0.13333333,0,0,-0.13333333,0,2880.6667)" />
      <path
         id="path3"
         d="M 12962.5,1082.5 C 12962.5,486 12479,2.5 11882.5,2.5 H 1082.5 C 486.031,2.5 2.5,486 2.5,1082.5 v 19440 c 0,596.5 483.531,1080 1080,1080 h 10800 c 596.5,0 1080,-483.5 1080,-1080 z"
         style="fill:none;stroke:#231f20;stroke-width:5;stroke-linecap:butt;stroke-linejoin:miter;stroke-miterlimit:4;stroke-dasharray:none;stroke-opacity:1"
         transform="matrix(0.13333333,0,0,-0.13333333,0,2880.6667)" />
      <path
         id="path4"
         d="m 12242.5,1082.5 c 0,-198.5 -161.5,-360 -360,-360 h -10800 c -198.508,0 -360,161.5 -360,360 v 19440 c 0,198.5 161.492,360 360,360 h 10800 c 198.5,0 360,-161.5 360,-360 z m -360,20250 h -10800 c -446.637,0 -810,-363.4 -810,-810 v -19440 c 0,-446.598 363.363,-810 810,-810 h 10800 c 446.6,0 810,363.402 810,810 v 19440 c 0,446.6 -363.4,810 -810,810"
         style="fill:#231f20;fill-opacity:1;fill-rule:nonzero;stroke:none"
         transform="matrix(0.13333333,0,0,-0.13333333,0,2880.6667)" />
      <path
         id="path5"
         d="m 5042.49,17733.3 c 0,-2051.1 -332.85,-4024.5 -947.45,-5869.1 -118.57,-355.9 -456.64,-610.9 -852.55,-610.9 -395.91,0 -733.98,255 -852.55,610.9 -614.6,1844.6 -947.45,3818 -947.45,5869.1 h 3600"
         style="fill:#231f20;fill-opacity:1;fill-rule:nonzero;stroke:none"
         transform="matrix(0.13333333,0,0,-0.13333333,0,2880.6667)" />
      <path
         id="path6"
         d="M 11435.8,14527.5 8642.49,18650.6 5853.64,14527.5 c -123.53,-181.7 -76.13,-430.6 105.57,-554.1 126.85,-86.3 248.79,-67.1 413.34,-21.2 l 1189.94,354.9 v -2153.8 c 0,-938.5 -302.9,-1840.5 -875.95,-2608.4 C 6277.86,8997.3 5960.13,8392.6 5742.18,7747.5 5516.78,7080.3 5402.5,6382.2 5402.5,5672.5 v -2700 h 2159.99 v 2700 c 0,938.6 295.7,1830.9 855.14,2580.6 412.93,553.3 734.46,1160.7 955.66,1805.2 231.71,675.2 349.2,1380.1 349.2,2095 v 2154.3 l 1211.21,-363.9 c 149.5,-38 275.3,-52.8 396.6,29.7 181.6,123.5 229.1,372.4 105.5,554.1"
         style="fill:#231f20;fill-opacity:1;fill-rule:nonzero;stroke:none"
         transform="matrix(0.13333333,0,0,-0.13333333,0,2880.6667)" />
    </g>
  </g>
</svg>
