<?xml version="1.0" standalone="no"?>
<svg width="3024px" height="1728px" viewBox="0 -936 3024 1728 " xmlns="http://www.w3.org/2000/svg" xmlns:xlink="http://www.w3.org/1999/xlink">
<title>generated by pstoedit</title>
<!-- generated by pstoedit version:4.02 -->
<g xml:space='preserve'>
<clipPath id="clippath1"> 	<path d="
	M 0 -936.5 
	L 0 792 
	L 3024.5 792 
	L 3024.5 -936.5 
	Z 
	" style="clip-rule:nonzero"/>
</clipPath>
<g style="clip-path:url(#clippath1)"> 
<g fill="#ffffff" fill-rule="nonzero" stroke-width="0" stroke-linejoin="miter" stroke-linecap="butt" stroke-miterlimit="10" >
	<path d="
	M 3024.25 683.75 
	C 3024.25 743.398 2975.9 791.75 2916.25 791.75 
	L 108.25 791.75 
	C 48.6016 791.75 0.25 743.398 0.25 683.75 
	L 0.25 -828.25 
	C 0.25 -887.9 48.6016 -936.25 108.25 -936.25 
	L 2916.25 -936.25 
	C 2975.9 -936.25 3024.25 -887.9 3024.25 -828.25 
	Z 
	"/>
</g>
<g stroke="#7f7f7f" fill="none" stroke-width="0.5" stroke-linejoin="miter" stroke-linecap="butt" stroke-miterlimit="4" >
	<path d="
	M 3024.25 683.75 
	C 3024.25 743.398 2975.9 791.75 2916.25 791.75 
	L 108.25 791.75 
	C 48.6016 791.75 0.25 743.398 0.25 683.75 
	L 0.25 -828.25 
	C 0.25 -887.9 48.6016 -936.25 108.25 -936.25 
	L 2916.25 -936.25 
	C 2975.9 -936.25 3024.25 -887.9 3024.25 -828.25 
	Z 
	"/>
</g>
<g fill="#7f7f7f" fill-rule="nonzero" stroke-width="0" stroke-linejoin="miter" stroke-linecap="butt" stroke-miterlimit="4" >
	<path d="
	M 108.25 764.75 
	C 63.5859 764.75 27.25 728.41 27.25 683.75 
	L 27.25 -828.25 
	C 27.25 -872.91 63.5859 -909.25 108.25 -909.25 
	L 2916.25 -909.25 
	C 2960.91 -909.25 2997.25 -872.91 2997.25 -828.25 
	L 2997.25 683.75 
	C 2997.25 728.41 2960.91 764.75 2916.25 764.75 
	Z 
	"/>
</g>
<g fill="#ffffff" fill-rule="nonzero" stroke-width="0" stroke-linejoin="miter" stroke-linecap="butt" stroke-miterlimit="4" >
	<path d="
	M 108.25 719.75 
	C 88.3984 719.75 72.25 703.602 72.25 683.75 
	L 72.25 -828.25 
	C 72.25 -848.1 88.3984 -864.25 108.25 -864.25 
	L 2916.25 -864.25 
	C 2936.1 -864.25 2952.25 -848.1 2952.25 -828.25 
	L 2952.25 683.75 
	C 2952.25 703.602 2936.1 719.75 2916.25 719.75 
	Z 
	"/>
</g>
<g fill="#7f7f7f" fill-rule="nonzero" stroke-width="0" stroke-linejoin="miter" stroke-linecap="butt" stroke-miterlimit="4" >
	<path d="
	M 2141.9 -625.45 
	C 2137.84 -653.74 2126.68 -666.88 2107.39 -666.88 
	C 2073.91 -666.88 2061.73 -640.61 2061.73 -565.83 
	C 2061.73 -482.96 2075.94 -449.62 2111.46 -449.62 
	C 2135.81 -449.62 2141.9 -469.83 2141.9 -491.05 
	L 2183.5 -491.05 
	C 2182.49 -443.55 2152.05 -409.2 2111.46 -409.2 
	C 2049.55 -409.2 2022.15 -458.71 2022.15 -564.82 
	C 2022.15 -657.79 2051.58 -707.3 2108.41 -707.3 
	C 2131.75 -707.3 2152.05 -697.2 2165.24 -678 
	C 2176.4 -663.85 2180.46 -651.72 2183.5 -625.45 
	Z 
	"/>
</g>
<g fill="#7f7f7f" fill-rule="nonzero" stroke-width="0" stroke-linejoin="miter" stroke-linecap="butt" stroke-miterlimit="4" >
	<path d="
	M 1503.61 -414.25 
	L 1503.61 -702.25 
	L 1639.41 -702.25 
	L 1639.41 -661.83 
	L 1545.16 -661.83 
	L 1545.16 -589.07 
	L 1604.96 -589.07 
	L 1604.96 -549.66 
	L 1545.16 -549.66 
	L 1545.16 -454.67 
	L 1650.56 -454.67 
	L 1650.56 -414.25 
	Z 
	"/>
</g>
<g fill="#7f7f7f" fill-rule="nonzero" stroke-width="0" stroke-linejoin="miter" stroke-linecap="butt" stroke-miterlimit="4" >
	<path d="
	M 2428.38 -414.25 
	L 2428.38 -702.25 
	L 2564.18 -702.25 
	L 2564.18 -661.83 
	L 2469.93 -661.83 
	L 2469.93 -589.07 
	L 2529.73 -589.07 
	L 2529.73 -549.66 
	L 2469.93 -549.66 
	L 2469.93 -454.67 
	L 2575.33 -454.67 
	L 2575.33 -414.25 
	Z 
	"/>
</g>
<g fill="#7f7f7f" fill-rule="nonzero" stroke-width="0" stroke-linejoin="miter" stroke-linecap="butt" stroke-miterlimit="4" >
	<path d="
	M 1819.53 -414.25 
	L 1819.53 -544.61 
	L 1740.87 -544.61 
	L 1740.87 -414.25 
	L 1699.52 -414.25 
	L 1699.52 -702.25 
	L 1740.87 -702.25 
	L 1740.87 -585.03 
	L 1819.53 -585.03 
	L 1819.53 -702.25 
	L 1860.88 -702.25 
	L 1860.88 -414.25 
	Z 
	"/>
</g>
<g fill="#7f7f7f" fill-rule="nonzero" stroke-width="0" stroke-linejoin="miter" stroke-linecap="butt" stroke-miterlimit="4" >
	<path d="
	M 1924.23 -414.25 
	L 1924.23 -702.25 
	L 1964.55 -702.25 
	L 1964.55 -414.25 
	Z 
	"/>
</g>
<g fill="#7f7f7f" fill-rule="nonzero" stroke-width="0" stroke-linejoin="miter" stroke-linecap="butt" stroke-miterlimit="4" >
	<path d="
	M 2241.11 -414.25 
	L 2241.11 -702.25 
	L 2282.66 -702.25 
	L 2282.66 -452.65 
	L 2388.06 -452.65 
	L 2388.06 -414.25 
	Z 
	"/>
</g>
<g fill="#7f7f7f" fill-rule="nonzero" stroke-width="0" stroke-linejoin="miter" stroke-linecap="butt" stroke-miterlimit="4" >
	<path d="
	M 2691.9 -547.25 
	C 2679.44 -555.32 2667.34 -563.43 2659.61 -568.86 
	C 2636.39 -585.2 2624.1 -607.26 2624.1 -632.52 
	C 2624.1 -673.95 2656.57 -707.3 2698.18 -707.3 
	C 2738.77 -707.3 2770.23 -675.98 2771.24 -632.52 
	L 2731.67 -632.52 
	C 2730.65 -652.73 2716.44 -665.87 2698.18 -665.87 
	C 2678.89 -665.87 2663.67 -651.72 2663.67 -632.52 
	C 2663.67 -618.38 2669.76 -610.29 2691.07 -598.16 
	C 2746.89 -565.83 2771.24 -534.5 2771.24 -493.07 
	C 2771.24 -446.59 2735.72 -409.2 2691.07 -409.2 
	C 2640.33 -409.2 2609.89 -451.64 2609.89 -499.13 
	L 2650.48 -499.13 
	C 2650.48 -474.88 2662.66 -449.62 2691.07 -449.62 
	C 2713.4 -449.62 2731.67 -469.83 2731.67 -493.07 
	C 2731.67 -511.12 2724.21 -526.32 2691.9 -547.25 
	Z 
	"/>
</g>
<g fill="#7f7f7f" fill-rule="nonzero" stroke-width="0" stroke-linejoin="miter" stroke-linecap="butt" stroke-miterlimit="4" >
	<path d="
	M 1389.2 -414.25 
	L 1357.74 -414.25 
	L 1284.66 -702.25 
	L 1326.27 -702.25 
	L 1373.98 -515.3 
	L 1421.68 -702.25 
	L 1463.29 -702.25 
	Z 
	"/>
</g>
<g fill="#7f7f7f" fill-rule="nonzero" stroke-width="0" stroke-linejoin="miter" stroke-linecap="butt" stroke-miterlimit="4" >
	<path d="
	M 463.57 -414.25 
	L 463.57 -702.25 
	L 505.121 -702.25 
	L 505.121 -452.65 
	L 610.523 -452.65 
	L 610.523 -414.25 
	Z 
	"/>
</g>
<g fill="#7f7f7f" fill-rule="nonzero" stroke-width="0" stroke-linejoin="miter" stroke-linecap="butt" stroke-miterlimit="4" >
	<path d="
	M 766.215 -630.5 
	C 759.09 -655.77 747.895 -666.88 730.59 -666.88 
	C 712.266 -666.88 701.07 -655.77 693.945 -631.51 
	C 686.816 -609.28 684.781 -590.08 684.781 -557.75 
	C 684.781 -526.42 687.836 -508.23 693.945 -484.98 
	C 701.07 -460.73 712.266 -449.62 730.59 -449.62 
	C 747.895 -449.62 759.09 -460.73 766.215 -484.98 
	C 773.344 -508.23 775.379 -525.41 775.379 -558.75 
	C 775.379 -591.09 772.32 -609.28 766.215 -630.5 
	Z 
	M 798.789 -458.71 
	C 784.539 -424.36 763.16 -409.2 730.59 -409.2 
	C 695.98 -409.2 675.621 -424.36 661.371 -458.71 
	C 649.156 -487.01 645.086 -514.29 645.086 -558.75 
	C 645.086 -602.21 649.156 -631.51 661.371 -658.8 
	C 676.641 -693.16 696.996 -707.3 730.59 -707.3 
	C 764.18 -707.3 784.539 -693.16 798.789 -657.79 
	C 811.004 -629.49 815.074 -602.21 815.074 -558.75 
	C 815.074 -514.29 811.004 -486 798.789 -458.71 
	Z 
	"/>
</g>
<g fill="#7f7f7f" fill-rule="nonzero" stroke-width="0" stroke-linejoin="miter" stroke-linecap="butt" stroke-miterlimit="4" >
	<path d="
	M 335.266 -547.25 
	C 322.805 -555.32 310.707 -563.43 302.984 -568.86 
	C 279.766 -585.2 267.465 -607.26 267.465 -632.52 
	C 267.465 -673.95 299.938 -707.3 341.547 -707.3 
	C 382.137 -707.3 413.598 -675.98 414.609 -632.52 
	L 375.035 -632.52 
	C 374.02 -652.73 359.813 -665.87 341.547 -665.87 
	C 322.266 -665.87 307.043 -651.72 307.043 -632.52 
	C 307.043 -618.38 313.133 -610.29 334.441 -598.16 
	C 390.258 -565.83 414.609 -534.5 414.609 -493.07 
	C 414.609 -446.59 379.094 -409.2 334.441 -409.2 
	C 283.703 -409.2 253.258 -451.64 253.258 -499.13 
	L 293.852 -499.13 
	C 293.852 -474.88 306.027 -449.62 334.441 -449.62 
	C 356.77 -449.62 375.035 -469.83 375.035 -493.07 
	C 375.035 -511.12 367.574 -526.32 335.266 -547.25 
	Z 
	"/>
</g>
<g fill="#7f7f7f" fill-rule="nonzero" stroke-width="0" stroke-linejoin="miter" stroke-linecap="butt" stroke-miterlimit="4" >
	<path d="
	M 1022.01 -414.25 
	L 986.523 -414.25 
	L 959.145 -564.82 
	L 931.77 -414.25 
	L 895.266 -414.25 
	L 849.637 -702.25 
	L 890.195 -702.25 
	L 914.531 -548.65 
	L 942.922 -702.25 
	L 975.371 -702.25 
	L 1002.75 -548.65 
	L 1028.1 -702.25 
	L 1068.66 -702.25 
	Z 
	"/>
</g>
<g fill="#7f7f7f" fill-rule="nonzero" stroke-width="0" stroke-linejoin="miter" stroke-linecap="butt" stroke-miterlimit="4" >
	<path d="
	M 2192.15 71.75 
	L 2192.15 -216.25 
	L 2327.95 -216.25 
	L 2327.95 -175.828 
	L 2233.7 -175.828 
	L 2233.7 -103.07 
	L 2293.5 -103.07 
	L 2293.5 -63.66 
	L 2233.7 -63.66 
	L 2233.7 31.328 
	L 2339.1 31.328 
	L 2339.1 71.75 
	Z 
	"/>
</g>
<g fill="#7f7f7f" fill-rule="nonzero" stroke-width="0" stroke-linejoin="miter" stroke-linecap="butt" stroke-miterlimit="4" >
	<path d="
	M 834.145 71.75 
	L 834.145 -89.934 
	L 780.516 71.75 
	L 726.887 -89.934 
	L 726.887 71.75 
	L 685.402 71.75 
	L 685.402 -216.25 
	L 726.887 -216.25 
	L 780.516 -54.563 
	L 834.145 -216.25 
	L 875.629 -216.25 
	L 875.629 71.75 
	Z 
	"/>
</g>
<g fill="#7f7f7f" fill-rule="nonzero" stroke-width="0" stroke-linejoin="miter" stroke-linecap="butt" stroke-miterlimit="4" >
	<path d="
	M 1231.31 -61.254 
	C 1218.85 -69.324 1206.75 -77.426 1199.02 -82.859 
	C 1175.81 -99.203 1163.51 -121.262 1163.51 -146.523 
	C 1163.51 -187.953 1195.98 -221.3 1237.59 -221.3 
	C 1278.18 -221.3 1309.64 -189.977 1310.65 -146.523 
	L 1271.07 -146.523 
	C 1270.06 -166.734 1255.85 -179.871 1237.59 -179.871 
	C 1218.31 -179.871 1203.08 -165.723 1203.08 -146.523 
	C 1203.08 -132.379 1209.17 -124.293 1230.48 -112.164 
	C 1286.3 -79.828 1310.65 -48.504 1310.65 -7.07001 
	C 1310.65 39.414 1275.13 76.801 1230.48 76.801 
	C 1179.74 76.801 1149.3 34.359 1149.3 -13.137 
	L 1189.89 -13.137 
	C 1189.89 11.117 1202.07 36.383 1230.48 36.383 
	C 1252.81 36.383 1271.07 16.172 1271.07 -7.07001 
	C 1271.07 -25.117 1263.62 -40.316 1231.31 -61.254 
	Z 
	"/>
</g>
<g fill="#7f7f7f" fill-rule="nonzero" stroke-width="0" stroke-linejoin="miter" stroke-linecap="butt" stroke-miterlimit="4" >
	<path d="
	M 2063.84 -61.254 
	C 2051.38 -69.324 2039.28 -77.426 2031.56 -82.859 
	C 2008.34 -99.203 1996.04 -121.262 1996.04 -146.523 
	C 1996.04 -187.953 2028.52 -221.3 2070.12 -221.3 
	C 2110.71 -221.3 2142.17 -189.977 2143.19 -146.523 
	L 2103.61 -146.523 
	C 2102.6 -166.734 2088.39 -179.871 2070.12 -179.871 
	C 2050.84 -179.871 2035.62 -165.723 2035.62 -146.523 
	C 2035.62 -132.379 2041.71 -124.293 2063.02 -112.164 
	C 2118.83 -79.828 2143.19 -48.504 2143.19 -7.07001 
	C 2143.19 39.414 2107.67 76.801 2063.02 76.801 
	C 2012.28 76.801 1981.84 34.359 1981.84 -13.137 
	L 2022.43 -13.137 
	C 2022.43 11.117 2034.61 36.383 2063.02 36.383 
	C 2085.35 36.383 2103.61 16.172 2103.61 -7.07001 
	C 2103.61 -25.117 2096.15 -40.316 2063.84 -61.254 
	Z 
	"/>
</g>
<g fill="#7f7f7f" fill-rule="nonzero" stroke-width="0" stroke-linejoin="miter" stroke-linecap="butt" stroke-miterlimit="4" >
	<path d="
	M 1430.82 -177.852 
	L 1430.82 71.75 
	L 1389.27 71.75 
	L 1389.27 -177.852 
	L 1336.57 -177.852 
	L 1336.57 -216.25 
	L 1483.52 -216.25 
	L 1483.52 -177.852 
	Z 
	"/>
</g>
<g fill="#7f7f7f" fill-rule="nonzero" stroke-width="0" stroke-linejoin="miter" stroke-linecap="butt" stroke-miterlimit="4" >
	<path d="
	M 1089.25 36.383 
	C 1075.13 59.621 1047.9 76.801 1020.67 76.801 
	C 992.434 76.801 964.195 60.633 950.078 36.383 
	C 942.012 21.227 938.984 9.09802 938.984 -14.145 
	L 938.984 -216.25 
	L 980.332 -216.25 
	L 980.332 -9.09399 
	C 980.332 18.191 996.469 36.383 1020.67 36.383 
	C 1042.86 36.383 1058.99 18.191 1058.99 -9.09399 
	L 1058.99 -216.25 
	L 1100.34 -216.25 
	L 1100.34 -14.145 
	C 1100.34 9.09802 1097.31 21.227 1089.25 36.383 
	Z 
	"/>
</g>
<g fill="#7f7f7f" fill-rule="nonzero" stroke-width="0" stroke-linejoin="miter" stroke-linecap="butt" stroke-miterlimit="4" >
	<path d="
	M 1921.78 36.383 
	C 1907.66 59.621 1880.44 76.801 1853.21 76.801 
	C 1824.97 76.801 1796.73 60.633 1782.62 36.383 
	C 1774.55 21.227 1771.52 9.09802 1771.52 -14.145 
	L 1771.52 -216.25 
	L 1812.87 -216.25 
	L 1812.87 -9.09399 
	C 1812.87 18.191 1829 36.383 1853.21 36.383 
	C 1875.39 36.383 1891.53 18.191 1891.53 -9.09399 
	L 1891.53 -216.25 
	L 1932.88 -216.25 
	L 1932.88 -14.145 
	C 1932.88 9.09802 1929.85 21.227 1921.78 36.383 
	Z 
	"/>
</g>
<g fill="#7f7f7f" fill-rule="nonzero" stroke-width="0" stroke-linejoin="miter" stroke-linecap="butt" stroke-miterlimit="4" >
	<path d="
	M 970.309 432.949 
	L 970.309 394.551 
	L 1114.31 394.551 
	L 1114.31 432.949 
	Z 
	"/>
</g>
<g fill="#7f7f7f" fill-rule="nonzero" stroke-width="0" stroke-linejoin="miter" stroke-linecap="butt" stroke-miterlimit="4" >
	<path d="
	M 1978.12 355.641 
	L 1957.86 438.512 
	L 1999.4 438.512 
	Z 
	M 2029.79 557.75 
	L 2009.53 478.93 
	L 1947.73 478.93 
	L 1928.48 557.75 
	L 1886.94 557.75 
	L 1958.87 269.75 
	L 1999.4 269.75 
	L 2071.33 557.75 
	Z 
	"/>
</g>
<g fill="#7f7f7f" fill-rule="nonzero" stroke-width="0" stroke-linejoin="miter" stroke-linecap="butt" stroke-miterlimit="4" >
	<path d="
	M 2574.5 355.641 
	L 2554.23 438.512 
	L 2595.77 438.512 
	Z 
	M 2626.17 557.75 
	L 2605.9 478.93 
	L 2544.1 478.93 
	L 2524.85 557.75 
	L 2483.31 557.75 
	L 2555.25 269.75 
	L 2595.77 269.75 
	L 2667.71 557.75 
	Z 
	"/>
</g>
<g fill="#7f7f7f" fill-rule="nonzero" stroke-width="0" stroke-linejoin="miter" stroke-linecap="butt" stroke-miterlimit="4" >
	<path d="
	M 2812.91 339.469 
	C 2805.85 319.262 2793.75 310.172 2775.6 310.172 
	L 2741.31 310.172 
	L 2741.31 517.328 
	L 2775.6 517.328 
	C 2799.8 517.328 2812.91 498.129 2816.94 475.891 
	C 2818.96 457.711 2820.98 437.5 2820.98 415.262 
	C 2820.98 382.93 2817.95 351.602 2812.91 339.469 
	Z 
	M 2819.97 544.609 
	C 2809.88 553.711 2795.76 557.75 2779.63 557.75 
	L 2699.96 557.75 
	L 2699.96 269.75 
	L 2773.58 269.75 
	C 2797.78 269.75 2809.88 272.781 2819.97 280.859 
	C 2837.11 292.988 2849.21 315.219 2854.25 344.531 
	C 2858.29 365.75 2861.31 391.012 2861.31 413.238 
	C 2861.31 479.941 2848.2 522.379 2819.97 544.609 
	Z 
	"/>
</g>
<g fill="#7f7f7f" fill-rule="nonzero" stroke-width="0" stroke-linejoin="miter" stroke-linecap="butt" stroke-miterlimit="4" >
	<path d="
	M 2315.63 557.75 
	L 2315.63 269.75 
	L 2451.43 269.75 
	L 2451.43 310.172 
	L 2357.18 310.172 
	L 2357.18 382.93 
	L 2416.97 382.93 
	L 2416.97 422.34 
	L 2357.18 422.34 
	L 2357.18 517.328 
	L 2462.58 517.328 
	L 2462.58 557.75 
	Z 
	"/>
</g>
<g fill="#7f7f7f" fill-rule="nonzero" stroke-width="0" stroke-linejoin="miter" stroke-linecap="butt" stroke-miterlimit="4" >
	<path d="
	M 2223.59 557.75 
	L 2223.59 427.391 
	L 2144.93 427.391 
	L 2144.93 557.75 
	L 2103.59 557.75 
	L 2103.59 269.75 
	L 2144.93 269.75 
	L 2144.93 386.969 
	L 2223.59 386.969 
	L 2223.59 269.75 
	L 2264.94 269.75 
	L 2264.94 557.75 
	Z 
	"/>
</g>
<g fill="#7f7f7f" fill-rule="nonzero" stroke-width="0" stroke-linejoin="miter" stroke-linecap="butt" stroke-miterlimit="4" >
	<path d="
	M 885.047 557.75 
	L 796.305 364.738 
	L 796.305 557.75 
	L 754.957 557.75 
	L 754.957 269.75 
	L 796.305 269.75 
	L 874.961 442.551 
	L 874.961 269.75 
	L 916.309 269.75 
	L 916.309 557.75 
	Z 
	"/>
</g>
<g fill="#7f7f7f" fill-rule="nonzero" stroke-width="0" stroke-linejoin="miter" stroke-linecap="butt" stroke-miterlimit="4" >
	<path d="
	M 1271.44 341.5 
	C 1264.31 316.23 1253.12 305.121 1235.81 305.121 
	C 1217.49 305.121 1206.29 316.23 1199.17 340.48 
	C 1192.04 362.719 1190.01 381.922 1190.01 414.25 
	C 1190.01 445.578 1193.06 463.77 1199.17 487.012 
	C 1206.29 511.262 1217.49 522.379 1235.81 522.379 
	C 1253.12 522.379 1264.31 511.262 1271.44 487.012 
	C 1278.57 463.77 1280.6 446.59 1280.6 413.238 
	C 1280.6 380.91 1277.55 362.719 1271.44 341.5 
	Z 
	M 1304.01 513.281 
	C 1289.76 547.641 1268.39 562.801 1235.81 562.801 
	C 1201.2 562.801 1180.85 547.641 1166.6 513.281 
	C 1154.38 484.988 1150.31 457.711 1150.31 413.238 
	C 1150.31 369.789 1154.38 340.48 1166.6 313.199 
	C 1181.86 278.84 1202.22 264.691 1235.81 264.691 
	C 1269.4 264.691 1289.76 278.84 1304.01 314.211 
	C 1316.23 342.5 1320.3 369.789 1320.3 413.238 
	C 1320.3 457.711 1316.23 486 1304.01 513.281 
	Z 
	"/>
</g>
<g fill="#7f7f7f" fill-rule="nonzero" stroke-width="0" stroke-linejoin="miter" stroke-linecap="butt" stroke-miterlimit="4" >
	<path d="
	M 638.137 310.172 
	L 595.781 310.172 
	L 595.781 382.93 
	L 638.137 382.93 
	C 662.34 382.93 675.449 369.789 675.449 346.551 
	C 675.449 324.32 660.324 310.172 638.137 310.172 
	Z 
	M 673.434 557.75 
	L 635.113 422.34 
	L 595.781 422.34 
	L 595.781 557.75 
	L 554.438 557.75 
	L 554.438 269.75 
	L 640.152 269.75 
	C 685.535 269.75 715.789 300.059 715.789 346.551 
	C 715.789 380.91 701.668 406.172 674.441 416.27 
	L 715.789 557.75 
	Z 
	"/>
</g>
<g fill="#7f7f7f" fill-rule="nonzero" stroke-width="0" stroke-linejoin="miter" stroke-linecap="butt" stroke-miterlimit="4" >
	<path d="
	M 257.438 308.148 
	L 257.438 557.75 
	L 215.887 557.75 
	L 215.887 308.148 
	L 163.188 308.148 
	L 163.188 269.75 
	L 310.141 269.75 
	L 310.141 308.148 
	Z 
	"/>
</g>
<g fill="#7f7f7f" fill-rule="nonzero" stroke-width="0" stroke-linejoin="miter" stroke-linecap="butt" stroke-miterlimit="4" >
	<path d="
	M 1654.24 308.148 
	L 1654.24 557.75 
	L 1612.69 557.75 
	L 1612.69 308.148 
	L 1559.99 308.148 
	L 1559.99 269.75 
	L 1706.94 269.75 
	L 1706.94 308.148 
	Z 
	"/>
</g>
<g fill="#7f7f7f" fill-rule="nonzero" stroke-width="0" stroke-linejoin="miter" stroke-linecap="butt" stroke-miterlimit="4" >
	<path d="
	M 492.656 522.379 
	C 478.535 545.621 451.309 562.801 424.078 562.801 
	C 395.844 562.801 367.605 546.629 353.488 522.379 
	C 345.418 507.219 342.395 495.102 342.395 471.852 
	L 342.395 269.75 
	L 383.742 269.75 
	L 383.742 476.91 
	C 383.742 504.191 399.875 522.379 424.078 522.379 
	C 446.266 522.379 462.402 504.191 462.402 476.91 
	L 462.402 269.75 
	L 503.746 269.75 
	L 503.746 471.852 
	C 503.746 495.102 500.723 507.219 492.656 522.379 
	Z 
	"/>
</g>
<g fill="#7f7f7f" fill-rule="nonzero" stroke-width="0" stroke-linejoin="miter" stroke-linecap="butt" stroke-miterlimit="4" >
	<path d="
	M 1516.64 522.379 
	C 1502.52 545.621 1475.29 562.801 1448.06 562.801 
	C 1419.83 562.801 1391.59 546.629 1377.47 522.379 
	C 1369.4 507.219 1366.38 495.102 1366.38 471.852 
	L 1366.38 269.75 
	L 1407.73 269.75 
	L 1407.73 476.91 
	C 1407.73 504.191 1423.86 522.379 1448.06 522.379 
	C 1470.25 522.379 1486.39 504.191 1486.39 476.91 
	L 1486.39 269.75 
	L 1527.73 269.75 
	L 1527.73 471.852 
	C 1527.73 495.102 1524.71 507.219 1516.64 522.379 
	Z 
	"/>
</g>
</g >
</g>
</svg>
