<?xml version="1.0" standalone="no"?>
<svg width="2160px" height="3024px" viewBox="0 -2232 2160 3024 " xmlns="http://www.w3.org/2000/svg" xmlns:xlink="http://www.w3.org/1999/xlink">
<title>generated by pstoedit</title>
<!-- generated by pstoedit version:4.02 -->
<g xml:space='preserve'>
<clipPath id="clippath1"> 	<path d="
	M 0 -2232.5 
	L 0 792 
	L 2160.5 792 
	L 2160.5 -2232.5 
	Z 
	" style="clip-rule:nonzero"/>
</clipPath>
<g style="clip-path:url(#clippath1)"> 
<g fill="#ffffff" fill-rule="nonzero" stroke-width="0" stroke-linejoin="miter" stroke-linecap="butt" stroke-miterlimit="10" >
	<path d="
	M 2160.25 656.75 
	C 2160.25 731.309 2099.81 791.75 2025.25 791.75 
	L 135.25 791.75 
	C 60.6914 791.75 0.25 731.309 0.25 656.75 
	L 0.25 -2097.25 
	C 0.25 -2171.81 60.6914 -2232.25 135.25 -2232.25 
	L 2025.25 -2232.25 
	C 2099.81 -2232.25 2160.25 -2171.81 2160.25 -2097.25 
	Z 
	"/>
</g>
<g stroke="#7f7f7f" fill="none" stroke-width="0.5" stroke-linejoin="miter" stroke-linecap="butt" stroke-miterlimit="4" >
	<path d="
	M 2160.25 656.75 
	C 2160.25 731.309 2099.81 791.75 2025.25 791.75 
	L 135.25 791.75 
	C 60.6914 791.75 0.25 731.309 0.25 656.75 
	L 0.25 -2097.25 
	C 0.25 -2171.81 60.6914 -2232.25 135.25 -2232.25 
	L 2025.25 -2232.25 
	C 2099.81 -2232.25 2160.25 -2171.81 2160.25 -2097.25 
	Z 
	"/>
</g>
<g fill="#7f7f7f" fill-rule="nonzero" stroke-width="0" stroke-linejoin="miter" stroke-linecap="butt" stroke-miterlimit="4" >
	<path d="
	M 135.25 755.75 
	C 80.6602 755.75 36.25 711.34 36.25 656.75 
	L 36.25 -2097.25 
	C 36.25 -2151.84 80.6602 -2196.25 135.25 -2196.25 
	L 2025.25 -2196.25 
	C 2079.84 -2196.25 2124.25 -2151.84 2124.25 -2097.25 
	L 2124.25 656.75 
	C 2124.25 711.34 2079.84 755.75 2025.25 755.75 
	Z 
	"/>
</g>
<g fill="#ffffff" fill-rule="nonzero" stroke-width="0" stroke-linejoin="miter" stroke-linecap="butt" stroke-miterlimit="4" >
	<path d="
	M 135.25 701.75 
	C 110.438 701.75 90.25 681.559 90.25 656.75 
	L 90.25 -2097.25 
	C 90.25 -2122.06 110.438 -2142.25 135.25 -2142.25 
	L 2025.25 -2142.25 
	C 2050.06 -2142.25 2070.25 -2122.06 2070.25 -2097.25 
	L 2070.25 656.75 
	C 2070.25 681.559 2050.06 701.75 2025.25 701.75 
	Z 
	"/>
</g>
<g fill="#7f7f7f" fill-rule="nonzero" stroke-width="0" stroke-linejoin="miter" stroke-linecap="butt" stroke-miterlimit="4" >
	<path d="
	M 1061.93 -144.25 
	L 951.777 -339.28 
	L 951.777 -144.25 
	L 906.301 -144.25 
	L 906.301 -432.25 
	L 951.777 -432.25 
	L 1056.88 -248.33 
	L 1056.88 -432.25 
	L 1102.36 -432.25 
	L 1102.36 -144.25 
	Z 
	"/>
</g>
<g fill="#7f7f7f" fill-rule="nonzero" stroke-width="0" stroke-linejoin="miter" stroke-linecap="butt" stroke-miterlimit="4" >
	<path d="
	M 1442.17 -368.58 
	C 1433.06 -383.74 1421.91 -389.8 1404.69 -390.82 
	C 1382.41 -391.83 1368.22 -380.71 1358.1 -355.45 
	C 1351 -338.27 1346.95 -311.99 1346.95 -287.74 
	C 1346.95 -257.43 1353.03 -226.1 1364.17 -207.91 
	C 1373.29 -192.75 1385.45 -185.68 1403.68 -185.68 
	C 1424.95 -185.68 1438.12 -196.789 1448.25 -222.06 
	C 1454.33 -237.21 1459.39 -265.51 1459.39 -287.74 
	C 1459.39 -320.08 1453.32 -349.38 1442.17 -368.58 
	Z 
	M 1473.58 -171.531 
	C 1457.37 -149.301 1434.07 -139.191 1403.68 -139.191 
	C 1363.16 -139.191 1337.83 -155.359 1320.61 -190.73 
	C 1308.46 -214.98 1300.36 -253.38 1300.36 -287.74 
	C 1300.36 -335.24 1312.51 -377.68 1331.76 -404.96 
	C 1348.98 -427.2 1372.28 -437.3 1405.71 -437.3 
	C 1442.17 -437.3 1467.5 -421.13 1485.73 -385.76 
	C 1497.89 -360.5 1504.98 -324.12 1504.98 -287.74 
	C 1504.98 -242.27 1493.84 -196.789 1473.58 -171.531 
	Z 
	"/>
</g>
<g fill="#7f7f7f" fill-rule="nonzero" stroke-width="0" stroke-linejoin="miter" stroke-linecap="butt" stroke-miterlimit="4" >
	<path d="
	M 579.027 -187.699 
	C 563.867 -159.398 529.508 -139.191 494.137 -139.191 
	C 458.766 -139.191 424.402 -159.398 409.246 -187.699 
	C 401.16 -204.879 396.105 -225.09 396.105 -247.32 
	L 396.105 -432.25 
	L 441.586 -432.25 
	L 441.586 -247.32 
	C 441.586 -209.93 462.809 -185.68 494.137 -185.68 
	C 525.465 -185.68 546.688 -209.93 546.688 -247.32 
	L 546.688 -432.25 
	L 592.164 -432.25 
	L 592.164 -247.32 
	C 592.164 -225.09 587.109 -204.879 579.027 -187.699 
	Z 
	"/>
</g>
<g fill="#7f7f7f" fill-rule="nonzero" stroke-width="0" stroke-linejoin="miter" stroke-linecap="butt" stroke-miterlimit="4" >
	<path d="
	M 1751.26 -187.699 
	C 1736.1 -159.398 1701.74 -139.191 1666.37 -139.191 
	C 1630.99 -139.191 1596.63 -159.398 1581.47 -187.699 
	C 1573.39 -204.879 1568.34 -225.09 1568.34 -247.32 
	L 1568.34 -432.25 
	L 1613.81 -432.25 
	L 1613.81 -247.32 
	C 1613.81 -209.93 1635.04 -185.68 1666.37 -185.68 
	C 1697.69 -185.68 1718.92 -209.93 1718.92 -247.32 
	L 1718.92 -432.25 
	L 1764.39 -432.25 
	L 1764.39 -247.32 
	C 1764.39 -225.09 1759.34 -204.879 1751.26 -187.699 
	Z 
	"/>
</g>
<g fill="#7f7f7f" fill-rule="nonzero" stroke-width="0" stroke-linejoin="miter" stroke-linecap="butt" stroke-miterlimit="4" >
	<path d="
	M 285.922 -391.83 
	L 285.922 -144.25 
	L 240.25 -144.25 
	L 240.25 -391.83 
	L 174.277 -391.83 
	L 174.277 -432.25 
	L 352.906 -432.25 
	L 352.906 -391.83 
	Z 
	"/>
</g>
<g fill="#7f7f7f" fill-rule="nonzero" stroke-width="0" stroke-linejoin="miter" stroke-linecap="butt" stroke-miterlimit="4" >
	<path d="
	M 1919.24 -391.83 
	L 1919.24 -144.25 
	L 1873.57 -144.25 
	L 1873.57 -391.83 
	L 1807.59 -391.83 
	L 1807.59 -432.25 
	L 1986.22 -432.25 
	L 1986.22 -391.83 
	Z 
	"/>
</g>
<g fill="#7f7f7f" fill-rule="nonzero" stroke-width="0" stroke-linejoin="miter" stroke-linecap="butt" stroke-miterlimit="4" >
	<path d="
	M 787.605 -381.72 
	C 780.535 -385.76 776.492 -386.77 761.332 -386.77 
	L 706.762 -386.77 
	L 706.762 -316.04 
	L 761.332 -316.04 
	C 775.48 -316.04 780.535 -317.05 787.605 -321.09 
	C 798.727 -327.15 805.801 -339.28 805.801 -351.4 
	C 805.801 -363.53 798.727 -375.66 787.605 -381.72 
	Z 
	M 807.82 -144.25 
	L 761.332 -269.55 
	L 706.762 -269.55 
	L 706.762 -144.25 
	L 661.285 -144.25 
	L 661.285 -432.25 
	L 756.277 -432.25 
	C 778.512 -432.25 793.672 -430.23 807.82 -423.15 
	C 833.086 -411.03 851.273 -380.71 851.273 -351.4 
	C 851.273 -321.09 833.086 -290.77 806.809 -278.65 
	L 857.34 -144.25 
	Z 
	"/>
</g>
<g fill="#7f7f7f" fill-rule="nonzero" stroke-width="0" stroke-linejoin="miter" stroke-linecap="butt" stroke-miterlimit="4" >
	<path d="
	M 1203.35 -1880.59 
	C 1194.23 -1895.74 1183.09 -1901.8 1165.87 -1902.82 
	C 1143.58 -1903.83 1129.4 -1892.71 1119.27 -1867.45 
	C 1112.18 -1850.27 1108.13 -1824 1108.13 -1799.74 
	C 1108.13 -1769.43 1114.21 -1738.1 1125.35 -1719.91 
	C 1134.47 -1704.75 1146.62 -1697.68 1164.86 -1697.68 
	C 1186.13 -1697.68 1199.3 -1708.8 1209.43 -1734.06 
	C 1215.51 -1749.21 1220.57 -1777.51 1220.57 -1799.74 
	C 1220.57 -1832.08 1214.49 -1861.38 1203.35 -1880.59 
	Z 
	M 1234.75 -1683.53 
	C 1218.54 -1661.3 1195.24 -1651.2 1164.86 -1651.2 
	C 1124.34 -1651.2 1099.01 -1667.36 1081.79 -1702.73 
	C 1069.63 -1726.98 1061.53 -1765.38 1061.53 -1799.74 
	C 1061.53 -1847.24 1073.69 -1889.68 1092.93 -1916.96 
	C 1110.15 -1939.2 1133.45 -1949.3 1166.88 -1949.3 
	C 1203.35 -1949.3 1228.67 -1933.13 1246.91 -1897.77 
	C 1259.06 -1872.5 1266.15 -1836.12 1266.15 -1799.74 
	C 1266.15 -1754.27 1255.01 -1708.8 1234.75 -1683.53 
	Z 
	"/>
</g>
<g fill="#7f7f7f" fill-rule="nonzero" stroke-width="0" stroke-linejoin="miter" stroke-linecap="butt" stroke-miterlimit="4" >
	<path d="
	M 845.461 -1656.25 
	L 845.461 -1944.25 
	L 890.871 -1944.25 
	L 890.871 -1698.69 
	L 1024.09 -1698.69 
	L 1024.09 -1656.25 
	Z 
	"/>
</g>
<g fill="#7f7f7f" fill-rule="nonzero" stroke-width="0" stroke-linejoin="miter" stroke-linecap="butt" stroke-miterlimit="4" >
	<path d="
	M 1517.48 -1656.25 
	L 1476.94 -1656.25 
	L 1431.32 -1841.18 
	L 1386.71 -1656.25 
	L 1346.17 -1656.25 
	L 1303.59 -1944.25 
	L 1350.22 -1944.25 
	L 1372.52 -1792.67 
	L 1409.02 -1944.25 
	L 1453.62 -1944.25 
	L 1491.13 -1792.67 
	L 1513.43 -1944.25 
	L 1560.06 -1944.25 
	Z 
	"/>
</g>
<g fill="#7f7f7f" fill-rule="nonzero" stroke-width="0" stroke-linejoin="miter" stroke-linecap="butt" stroke-miterlimit="4" >
	<path d="
	M 768.203 -1673.43 
	C 752.031 -1659.28 729.801 -1651.2 705.547 -1651.2 
	C 656.027 -1651.2 619.645 -1680.5 600.441 -1723.95 
	L 643.898 -1740.12 
	C 656.027 -1712.84 678.258 -1697.68 705.547 -1697.68 
	C 731.82 -1697.68 750.012 -1715.87 750.012 -1740.12 
	C 750.012 -1778.52 705.547 -1784.58 668.152 -1799.74 
	C 650.973 -1806.82 612.57 -1824 612.57 -1871.49 
	C 612.57 -1928.08 650.973 -1949.3 702.516 -1949.3 
	C 742.938 -1949.3 770.223 -1926.06 784.371 -1890.69 
	L 743.949 -1878.57 
	C 743.949 -1878.57 733.844 -1902.82 701.504 -1903.83 
	C 680.281 -1904.84 655.016 -1896.75 657.035 -1870.48 
	C 661.078 -1816.92 796.5 -1852.29 796.5 -1739.11 
	C 796.5 -1712.84 786.395 -1689.6 768.203 -1673.43 
	Z 
	"/>
</g>
<g fill="#7f7f7f" fill-rule="nonzero" stroke-width="0" stroke-linejoin="miter" stroke-linecap="butt" stroke-miterlimit="4" >
	<path d="
	M 960.656 -1152.25 
	L 960.656 -1440.25 
	L 1006.74 -1440.25 
	L 1006.74 -1152.25 
	Z 
	"/>
</g>
<g fill="#7f7f7f" fill-rule="nonzero" stroke-width="0" stroke-linejoin="miter" stroke-linecap="butt" stroke-miterlimit="4" >
	<path d="
	M 1329.51 -1152.25 
	L 1329.51 -1440.25 
	L 1374.93 -1440.25 
	L 1374.93 -1194.69 
	L 1508.15 -1194.69 
	L 1508.15 -1152.25 
	Z 
	"/>
</g>
<g fill="#7f7f7f" fill-rule="nonzero" stroke-width="0" stroke-linejoin="miter" stroke-linecap="butt" stroke-miterlimit="4" >
	<path d="
	M 1926.54 -1169.43 
	C 1910.37 -1155.28 1888.13 -1147.19 1863.88 -1147.19 
	C 1814.36 -1147.19 1777.98 -1176.5 1758.78 -1219.95 
	L 1802.23 -1236.12 
	C 1814.36 -1208.84 1836.59 -1193.68 1863.88 -1193.68 
	C 1890.16 -1193.68 1908.35 -1211.87 1908.35 -1236.12 
	C 1908.35 -1274.52 1863.88 -1280.58 1826.49 -1295.74 
	C 1809.31 -1302.82 1770.91 -1319.99 1770.91 -1367.49 
	C 1770.91 -1424.08 1809.31 -1445.3 1860.85 -1445.3 
	C 1901.27 -1445.3 1928.56 -1422.06 1942.71 -1386.69 
	L 1902.28 -1374.56 
	C 1902.28 -1374.56 1892.18 -1398.82 1859.84 -1399.82 
	C 1838.61 -1400.84 1813.35 -1392.75 1815.37 -1366.48 
	C 1819.42 -1312.92 1954.83 -1348.29 1954.83 -1235.11 
	C 1954.83 -1208.84 1944.73 -1185.59 1926.54 -1169.43 
	Z 
	"/>
</g>
<g fill="#7f7f7f" fill-rule="nonzero" stroke-width="0" stroke-linejoin="miter" stroke-linecap="butt" stroke-miterlimit="4" >
	<path d="
	M 332.418 -1152.25 
	L 296.926 -1152.25 
	L 205.668 -1440.25 
	L 253.324 -1440.25 
	L 315.18 -1248.25 
	L 376.02 -1440.25 
	L 424.691 -1440.25 
	Z 
	"/>
</g>
<g fill="#7f7f7f" fill-rule="nonzero" stroke-width="0" stroke-linejoin="miter" stroke-linecap="butt" stroke-miterlimit="4" >
	<path d="
	M 846.063 -1152.25 
	L 846.063 -1277.55 
	L 740.961 -1277.55 
	L 740.961 -1152.25 
	L 695.484 -1152.25 
	L 695.484 -1440.25 
	L 740.961 -1440.25 
	L 740.961 -1324.04 
	L 846.063 -1324.04 
	L 846.063 -1440.25 
	L 891.539 -1440.25 
	L 891.539 -1152.25 
	Z 
	"/>
</g>
<g fill="#7f7f7f" fill-rule="nonzero" stroke-width="0" stroke-linejoin="miter" stroke-linecap="butt" stroke-miterlimit="4" >
	<path d="
	M 467.891 -1152.25 
	L 467.891 -1440.25 
	L 637.438 -1440.25 
	L 637.438 -1394.77 
	L 513.305 -1394.77 
	L 513.305 -1324.04 
	L 597.07 -1324.04 
	L 597.07 -1277.55 
	L 513.305 -1277.55 
	L 513.305 -1198.73 
	L 646.523 -1198.73 
	L 646.523 -1152.25 
	Z 
	"/>
</g>
<g fill="#7f7f7f" fill-rule="nonzero" stroke-width="0" stroke-linejoin="miter" stroke-linecap="butt" stroke-miterlimit="4" >
	<path d="
	M 1551.34 -1152.25 
	L 1551.34 -1440.25 
	L 1720.89 -1440.25 
	L 1720.89 -1394.77 
	L 1596.76 -1394.77 
	L 1596.76 -1324.04 
	L 1680.53 -1324.04 
	L 1680.53 -1277.55 
	L 1596.76 -1277.55 
	L 1596.76 -1198.73 
	L 1729.98 -1198.73 
	L 1729.98 -1152.25 
	Z 
	"/>
</g>
<g fill="#7f7f7f" fill-rule="nonzero" stroke-width="0" stroke-linejoin="miter" stroke-linecap="butt" stroke-miterlimit="4" >
	<path d="
	M 1179.24 -1147.19 
	C 1136.8 -1147.19 1109.51 -1163.36 1091.32 -1198.73 
	C 1078.18 -1223.99 1070.1 -1260.37 1070.1 -1296.75 
	C 1070.1 -1342.23 1082.22 -1387.7 1102.44 -1412.96 
	C 1119.62 -1434.18 1143.87 -1445.3 1176.21 -1445.3 
	C 1219.67 -1445.3 1246.95 -1427.11 1266.15 -1386.69 
	L 1223.71 -1368.5 
	C 1207.54 -1392.75 1198.44 -1398.82 1176.21 -1398.82 
	C 1152.97 -1398.82 1137.81 -1388.71 1127.7 -1363.45 
	C 1120.63 -1346.27 1116.58 -1321 1116.58 -1296.75 
	C 1116.58 -1265.43 1123.66 -1234.1 1134.78 -1215.91 
	C 1144.88 -1200.75 1158.02 -1193.68 1178.23 -1193.68 
	C 1197.43 -1193.68 1211.58 -1203.78 1222.7 -1227.02 
	L 1266.15 -1210.86 
	C 1248.97 -1168.41 1220.68 -1147.19 1179.24 -1147.19 
	Z 
	"/>
</g>
<g fill="#7f7f7f" fill-rule="nonzero" stroke-width="0" stroke-linejoin="miter" stroke-linecap="butt" stroke-miterlimit="4" >
	<path d="
	M 755.863 -648.25 
	L 755.863 -814.98 
	L 689.035 -648.25 
	L 622.211 -814.98 
	L 622.211 -648.25 
	L 576.645 -648.25 
	L 576.645 -936.25 
	L 622.211 -936.25 
	L 689.035 -774.56 
	L 755.863 -936.25 
	L 801.43 -936.25 
	L 801.43 -648.25 
	Z 
	"/>
</g>
<g fill="#7f7f7f" fill-rule="nonzero" stroke-width="0" stroke-linejoin="miter" stroke-linecap="butt" stroke-miterlimit="4" >
	<path d="
	M 1088.03 -691.7 
	C 1072.87 -663.4 1038.51 -643.19 1003.14 -643.19 
	C 967.77 -643.19 933.41 -663.4 918.25 -691.7 
	C 910.168 -708.88 905.113 -729.09 905.113 -751.32 
	L 905.113 -936.25 
	L 950.59 -936.25 
	L 950.59 -751.32 
	C 950.59 -713.93 971.813 -689.68 1003.14 -689.68 
	C 1034.47 -689.68 1055.69 -713.93 1055.69 -751.32 
	L 1055.69 -936.25 
	L 1101.17 -936.25 
	L 1101.17 -751.32 
	C 1101.17 -729.09 1096.12 -708.88 1088.03 -691.7 
	Z 
	"/>
</g>
<g fill="#7f7f7f" fill-rule="nonzero" stroke-width="0" stroke-linejoin="miter" stroke-linecap="butt" stroke-miterlimit="4" >
	<path d="
	M 1516.87 -895.83 
	L 1516.87 -648.25 
	L 1471.2 -648.25 
	L 1471.2 -895.83 
	L 1405.22 -895.83 
	L 1405.22 -936.25 
	L 1583.86 -936.25 
	L 1583.86 -895.83 
	Z 
	"/>
</g>
<g fill="#7f7f7f" fill-rule="nonzero" stroke-width="0" stroke-linejoin="miter" stroke-linecap="butt" stroke-miterlimit="4" >
	<path d="
	M 1342.37 -665.43 
	C 1326.2 -651.28 1303.97 -643.19 1279.71 -643.19 
	C 1230.2 -643.19 1193.81 -672.5 1174.61 -715.95 
	L 1218.07 -732.12 
	C 1230.2 -704.84 1252.43 -689.68 1279.71 -689.68 
	C 1305.99 -689.68 1324.18 -707.87 1324.18 -732.12 
	C 1324.18 -770.52 1279.71 -776.58 1242.32 -791.74 
	C 1225.14 -798.81 1186.74 -815.99 1186.74 -863.49 
	C 1186.74 -920.08 1225.14 -941.3 1276.68 -941.3 
	C 1317.1 -941.3 1344.39 -918.06 1358.54 -882.69 
	L 1318.12 -870.56 
	C 1318.12 -870.56 1308.01 -894.81 1275.67 -895.82 
	C 1254.45 -896.84 1229.18 -888.75 1231.21 -862.48 
	C 1235.25 -808.92 1370.67 -844.29 1370.67 -731.11 
	C 1370.67 -704.84 1360.56 -681.59 1342.37 -665.43 
	Z 
	"/>
</g>
<g fill="#7f7f7f" fill-rule="nonzero" stroke-width="0" stroke-linejoin="miter" stroke-linecap="butt" stroke-miterlimit="4" >
	<path d="
	M 994.598 100.27 
	L 994.598 100.27 
	C 988.664 101.441 983 104.32 978.402 108.91 
	C 966.086 121.23 966.086 141.199 978.402 153.512 
	C 980.898 156.012 983.711 157.988 986.711 159.469 
	L 1077.95 206.699 
	L 797.055 487.59 
	L 911.605 602.148 
	L 1192.5 321.25 
	L 1239.72 412.488 
	C 1241.21 415.488 1243.19 418.301 1245.69 420.801 
	C 1258 433.109 1277.97 433.109 1290.29 420.801 
	C 1294.88 416.199 1297.76 410.539 1298.93 404.602 
	L 1298.93 404.602 
	L 1363.45 35.75 
	Z 
	"/>
</g>
</g >
</g>
</svg>
