<?xml version="1.0" standalone="no"?>
<svg width="2592px" height="3456px" viewBox="0 -2664 2592 3456 " xmlns="http://www.w3.org/2000/svg" xmlns:xlink="http://www.w3.org/1999/xlink">
<title>generated by pstoedit</title>
<!-- generated by pstoedit version:4.02 -->
<g xml:space='preserve'>
<clipPath id="clippath1"> 	<path d="
	M 0 -2664.5 
	L 0 792 
	L 2592.5 792 
	L 2592.5 -2664.5 
	Z 
	" style="clip-rule:nonzero"/>
</clipPath>
<g style="clip-path:url(#clippath1)"> 
<g fill="#ffffff" fill-rule="nonzero" stroke-width="0" stroke-linejoin="miter" stroke-linecap="butt" stroke-miterlimit="10" >
	<path d="
	M 2592.25 629.75 
	C 2592.25 719.219 2519.72 791.75 2430.25 791.75 
	L 162.25 791.75 
	C 72.7813 791.75 0.25 719.219 0.25 629.75 
	L 0.25 -2502.25 
	C 0.25 -2591.72 72.7813 -2664.25 162.25 -2664.25 
	L 2430.25 -2664.25 
	C 2519.72 -2664.25 2592.25 -2591.72 2592.25 -2502.25 
	Z 
	"/>
</g>
<g stroke="#7f7f7f" fill="none" stroke-width="0.5" stroke-linejoin="miter" stroke-linecap="butt" stroke-miterlimit="4" >
	<path d="
	M 2592.25 629.75 
	C 2592.25 719.219 2519.72 791.75 2430.25 791.75 
	L 162.25 791.75 
	C 72.7813 791.75 0.25 719.219 0.25 629.75 
	L 0.25 -2502.25 
	C 0.25 -2591.72 72.7813 -2664.25 162.25 -2664.25 
	L 2430.25 -2664.25 
	C 2519.72 -2664.25 2592.25 -2591.72 2592.25 -2502.25 
	Z 
	"/>
</g>
<g fill="#7f7f7f" fill-rule="nonzero" stroke-width="0" stroke-linejoin="miter" stroke-linecap="butt" stroke-miterlimit="4" >
	<path d="
	M 162.25 746.75 
	C 97.7344 746.75 45.25 694.262 45.25 629.75 
	L 45.25 -2502.25 
	C 45.25 -2566.76 97.7344 -2619.25 162.25 -2619.25 
	L 2430.25 -2619.25 
	C 2494.76 -2619.25 2547.25 -2566.76 2547.25 -2502.25 
	L 2547.25 629.75 
	C 2547.25 694.262 2494.76 746.75 2430.25 746.75 
	Z 
	"/>
</g>
<g fill="#ffffff" fill-rule="nonzero" stroke-width="0" stroke-linejoin="miter" stroke-linecap="butt" stroke-miterlimit="4" >
	<path d="
	M 162.25 683.75 
	C 132.477 683.75 108.25 659.52 108.25 629.75 
	L 108.25 -2502.25 
	C 108.25 -2532.03 132.477 -2556.25 162.25 -2556.25 
	L 2430.25 -2556.25 
	C 2460.03 -2556.25 2484.25 -2532.02 2484.25 -2502.25 
	L 2484.25 629.75 
	C 2484.25 659.52 2460.03 683.75 2430.25 683.75 
	Z 
	"/>
</g>
<g fill="#7f7f7f" fill-rule="nonzero" stroke-width="0" stroke-linejoin="miter" stroke-linecap="butt" stroke-miterlimit="4" >
	<path d="
	M 946.906 -1746.25 
	L 946.906 -2322.25 
	L 1218.51 -2322.25 
	L 1218.51 -2241.41 
	L 1030.01 -2241.41 
	L 1030.01 -2095.89 
	L 1149.6 -2095.89 
	L 1149.6 -2017.07 
	L 1030.01 -2017.07 
	L 1030.01 -1827.09 
	L 1240.81 -1827.09 
	L 1240.81 -1746.25 
	Z 
	"/>
</g>
<g fill="#7f7f7f" fill-rule="nonzero" stroke-width="0" stroke-linejoin="miter" stroke-linecap="butt" stroke-miterlimit="4" >
	<path d="
	M 1387.69 -1746.25 
	L 1387.69 -2322.25 
	L 1659.3 -2322.25 
	L 1659.3 -2241.41 
	L 1470.79 -2241.41 
	L 1470.79 -2095.89 
	L 1590.38 -2095.89 
	L 1590.38 -2017.07 
	L 1470.79 -2017.07 
	L 1470.79 -1827.09 
	L 1681.6 -1827.09 
	L 1681.6 -1746.25 
	Z 
	"/>
</g>
<g fill="#7f7f7f" fill-rule="nonzero" stroke-width="0" stroke-linejoin="miter" stroke-linecap="butt" stroke-miterlimit="4" >
	<path d="
	M 713.301 -1746.25 
	L 612.457 -2027.18 
	L 560.016 -1930.16 
	L 560.016 -1746.25 
	L 477.32 -1746.25 
	L 477.32 -2322.25 
	L 560.016 -2322.25 
	L 560.016 -2091.85 
	L 691.113 -2322.25 
	L 785.91 -2322.25 
	L 666.91 -2120.14 
	L 800.027 -1746.25 
	Z 
	"/>
</g>
<g fill="#7f7f7f" fill-rule="nonzero" stroke-width="0" stroke-linejoin="miter" stroke-linecap="butt" stroke-miterlimit="4" >
	<path d="
	M 1995.88 -2241.41 
	L 1911.17 -2241.41 
	L 1911.17 -2077.7 
	L 1995.88 -2077.7 
	C 2044.28 -2077.7 2070.5 -2108.02 2070.5 -2160.57 
	C 2070.5 -2209.07 2040.25 -2241.41 1995.88 -2241.41 
	Z 
	M 1999.91 -1998.88 
	L 1911.17 -1998.88 
	L 1911.17 -1746.25 
	L 1828.48 -1746.25 
	L 1828.48 -2322.25 
	L 1999.91 -2322.25 
	C 2090.67 -2322.25 2151.18 -2257.58 2151.18 -2160.57 
	C 2151.18 -2055.47 2096.72 -1998.88 1999.91 -1998.88 
	Z 
	"/>
</g>
<g fill="#7f7f7f" fill-rule="nonzero" stroke-width="0" stroke-linejoin="miter" stroke-linecap="butt" stroke-miterlimit="4" >
	<path d="
	M 1347.69 -952.99 
	C 1325.37 -902.46 1278.69 -872.14 1219.83 -872.14 
	C 1150.82 -872.14 1100.09 -906.5 1071.67 -971.18 
	C 1053.4 -1013.62 1041.23 -1094.46 1041.23 -1169.24 
	C 1041.23 -1250.08 1047.32 -1308.69 1067.61 -1363.26 
	C 1087.91 -1423.89 1146.77 -1468.36 1213.74 -1468.36 
	C 1296.95 -1468.36 1359.87 -1407.72 1363.93 -1322.84 
	L 1280.72 -1322.84 
	C 1278.69 -1361.24 1252.3 -1387.52 1211.71 -1387.52 
	C 1183.3 -1387.52 1160.97 -1373.37 1146.77 -1345.07 
	C 1130.53 -1316.78 1120.38 -1252.1 1120.38 -1183.39 
	C 1120.38 -1134.88 1124.44 -1084.36 1132.56 -1039.89 
	C 1144.73 -983.3 1173.15 -952.99 1217.8 -952.99 
	C 1260.42 -952.99 1280.72 -981.28 1280.72 -1041.91 
	L 1280.72 -1080.31 
	L 1215.77 -1080.31 
	L 1215.77 -1161.16 
	L 1363.93 -1161.16 
	L 1363.93 -1041.91 
	C 1363.93 -1001.49 1359.87 -977.24 1347.69 -952.99 
	Z 
	"/>
</g>
<g fill="#7f7f7f" fill-rule="nonzero" stroke-width="0" stroke-linejoin="miter" stroke-linecap="butt" stroke-miterlimit="4" >
	<path d="
	M 1776.74 -882.25 
	L 1776.74 -1142.97 
	L 1619.42 -1142.97 
	L 1619.42 -882.25 
	L 1536.73 -882.25 
	L 1536.73 -1458.25 
	L 1619.42 -1458.25 
	L 1619.42 -1223.81 
	L 1776.74 -1223.81 
	L 1776.74 -1458.25 
	L 1859.43 -1458.25 
	L 1859.43 -882.25 
	Z 
	"/>
</g>
<g fill="#7f7f7f" fill-rule="nonzero" stroke-width="0" stroke-linejoin="miter" stroke-linecap="butt" stroke-miterlimit="4" >
	<path d="
	M 787.785 -882.25 
	L 787.785 -1458.25 
	L 868.426 -1458.25 
	L 868.426 -882.25 
	Z 
	"/>
</g>
<g fill="#7f7f7f" fill-rule="nonzero" stroke-width="0" stroke-linejoin="miter" stroke-linecap="butt" stroke-miterlimit="4" >
	<path d="
	M 485.605 -1377.41 
	L 400.895 -1377.41 
	L 400.895 -1231.89 
	L 485.605 -1231.89 
	C 534.012 -1231.89 560.23 -1258.17 560.23 -1304.65 
	C 560.23 -1349.11 529.977 -1377.41 485.605 -1377.41 
	Z 
	M 556.195 -882.25 
	L 479.555 -1153.07 
	L 400.895 -1153.07 
	L 400.895 -882.25 
	L 318.203 -882.25 
	L 318.203 -1458.25 
	L 489.641 -1458.25 
	C 580.402 -1458.25 640.906 -1397.62 640.906 -1304.65 
	C 640.906 -1235.94 612.672 -1185.41 558.215 -1165.2 
	L 640.906 -882.25 
	Z 
	"/>
</g>
<g fill="#7f7f7f" fill-rule="nonzero" stroke-width="0" stroke-linejoin="miter" stroke-linecap="butt" stroke-miterlimit="4" >
	<path d="
	M 2168.89 -1381.45 
	L 2168.89 -882.25 
	L 2085.79 -882.25 
	L 2085.79 -1381.45 
	L 1980.39 -1381.45 
	L 1980.39 -1458.25 
	L 2274.3 -1458.25 
	L 2274.3 -1381.45 
	Z 
	"/>
</g>
<g fill="#7f7f7f" fill-rule="nonzero" stroke-width="0" stroke-linejoin="miter" stroke-linecap="butt" stroke-miterlimit="4" >
	<path d="
	M 1579.9 182.59 
	L 1549.51 306.891 
	L 1611.82 306.891 
	Z 
	M 1657.41 485.75 
	L 1627.02 367.52 
	L 1534.32 367.52 
	L 1505.44 485.75 
	L 1443.13 485.75 
	L 1551.03 53.75 
	L 1611.82 53.75 
	L 1719.72 485.75 
	Z 
	"/>
</g>
<g fill="#7f7f7f" fill-rule="nonzero" stroke-width="0" stroke-linejoin="miter" stroke-linecap="butt" stroke-miterlimit="4" >
	<path d="
	M 751.973 161.371 
	C 741.285 123.48 724.488 106.801 698.531 106.801 
	C 671.047 106.801 654.254 123.48 643.566 159.859 
	C 632.875 193.199 629.82 222 629.82 270.512 
	C 629.82 317.5 634.402 344.781 643.566 379.648 
	C 654.254 416.02 671.047 432.699 698.531 432.699 
	C 724.488 432.699 741.285 416.02 751.973 379.648 
	C 762.66 344.781 765.711 319.012 765.711 268.988 
	C 765.711 220.488 761.133 193.199 751.973 161.371 
	Z 
	M 800.832 419.059 
	C 779.457 470.59 747.391 493.332 698.531 493.332 
	C 646.617 493.332 616.082 470.59 594.703 419.059 
	C 576.383 376.609 570.273 335.691 570.273 268.988 
	C 570.273 203.809 576.383 159.859 594.703 118.93 
	C 617.609 67.391 648.145 46.172 698.531 46.172 
	C 748.918 46.172 779.457 67.391 800.832 120.449 
	C 819.156 162.891 825.262 203.809 825.262 268.988 
	C 825.262 335.691 819.156 378.129 800.832 419.059 
	Z 
	"/>
</g>
<g fill="#7f7f7f" fill-rule="nonzero" stroke-width="0" stroke-linejoin="miter" stroke-linecap="butt" stroke-miterlimit="4" >
	<path d="
	M 1274.81 114.379 
	L 1211.28 114.379 
	L 1211.28 237.16 
	L 1274.81 237.16 
	C 1311.12 237.16 1330.78 214.422 1330.78 175.012 
	C 1330.78 138.629 1308.09 114.379 1274.81 114.379 
	Z 
	M 1277.84 296.281 
	L 1211.28 296.281 
	L 1211.28 485.75 
	L 1149.26 485.75 
	L 1149.26 53.75 
	L 1277.84 53.75 
	C 1345.91 53.75 1391.29 102.25 1391.29 175.012 
	C 1391.29 253.832 1350.45 296.281 1277.84 296.281 
	Z 
	"/>
</g>
<g fill="#7f7f7f" fill-rule="nonzero" stroke-width="0" stroke-linejoin="miter" stroke-linecap="butt" stroke-miterlimit="4" >
	<path d="
	M 1881.61 286.25 
	C 1862.92 274.141 1844.77 261.988 1833.19 253.84 
	C 1798.36 229.32 1779.91 196.23 1779.91 158.34 
	C 1779.91 96.191 1828.62 46.172 1891.03 46.172 
	C 1951.92 46.172 1999.11 93.16 2000.63 158.34 
	L 1941.26 158.34 
	C 1939.74 128.02 1918.43 108.32 1891.03 108.32 
	C 1862.11 108.32 1839.28 129.539 1839.28 158.34 
	C 1839.28 179.559 1848.41 191.691 1880.38 209.879 
	C 1964.1 258.379 2000.63 305.371 2000.63 367.52 
	C 2000.63 437.25 1947.35 493.332 1880.38 493.332 
	C 1804.27 493.332 1758.6 429.672 1758.6 358.43 
	L 1819.49 358.43 
	C 1819.49 394.801 1837.76 432.699 1880.38 432.699 
	C 1913.86 432.699 1941.26 402.379 1941.26 367.52 
	C 1941.26 340.449 1930.08 317.648 1881.61 286.25 
	Z 
	"/>
</g>
<g fill="#7f7f7f" fill-rule="nonzero" stroke-width="0" stroke-linejoin="miter" stroke-linecap="butt" stroke-miterlimit="4" >
	<path d="
	M 2175.48 286.25 
	C 2156.79 274.141 2138.64 261.988 2127.05 253.84 
	C 2092.23 229.32 2073.78 196.23 2073.78 158.34 
	C 2073.78 96.191 2122.49 46.172 2184.9 46.172 
	C 2245.79 46.172 2292.97 93.16 2294.49 158.34 
	L 2235.13 158.34 
	C 2233.61 128.02 2212.3 108.32 2184.9 108.32 
	C 2155.98 108.32 2133.14 129.539 2133.14 158.34 
	C 2133.14 179.559 2142.28 191.691 2174.24 209.879 
	C 2257.96 258.379 2294.49 305.371 2294.49 367.52 
	C 2294.49 437.25 2241.22 493.332 2174.24 493.332 
	C 2098.13 493.332 2052.47 429.672 2052.47 358.43 
	L 2113.36 358.43 
	C 2113.36 394.801 2131.62 432.699 2174.24 432.699 
	C 2207.73 432.699 2235.13 402.379 2235.13 367.52 
	C 2235.13 340.449 2223.94 317.648 2175.48 286.25 
	Z 
	"/>
</g>
<g fill="#7f7f7f" fill-rule="nonzero" stroke-width="0" stroke-linejoin="miter" stroke-linecap="butt" stroke-miterlimit="4" >
	<path d="
	M 439.383 111.352 
	L 439.383 485.75 
	L 377.055 485.75 
	L 377.055 111.352 
	L 298.004 111.352 
	L 298.004 53.75 
	L 518.434 53.75 
	L 518.434 111.352 
	Z 
	"/>
</g>
<g fill="#7f7f7f" fill-rule="nonzero" stroke-width="0" stroke-linejoin="miter" stroke-linecap="butt" stroke-miterlimit="4" >
	<path d="
	M 1190.64 -479.05 
	C 1184.55 -521.49 1167.81 -541.2 1138.88 -541.2 
	C 1088.65 -541.2 1070.39 -501.79 1070.39 -389.62 
	C 1070.39 -265.32 1091.7 -215.3 1144.97 -215.3 
	C 1181.51 -215.3 1190.64 -245.62 1190.64 -277.45 
	L 1253.05 -277.45 
	C 1251.53 -206.211 1205.86 -154.668 1144.97 -154.668 
	C 1052.12 -154.668 1011.02 -228.95 1011.02 -388.1 
	C 1011.02 -527.56 1055.16 -601.83 1140.41 -601.83 
	C 1175.42 -601.83 1205.86 -586.67 1225.65 -557.87 
	C 1242.39 -536.65 1248.48 -518.46 1253.05 -479.05 
	Z 
	"/>
</g>
<g fill="#7f7f7f" fill-rule="nonzero" stroke-width="0" stroke-linejoin="miter" stroke-linecap="butt" stroke-miterlimit="4" >
	<path d="
	M 444.887 -162.25 
	L 444.887 -594.25 
	L 648.59 -594.25 
	L 648.59 -533.62 
	L 507.211 -533.62 
	L 507.211 -424.48 
	L 596.902 -424.48 
	L 596.902 -365.37 
	L 507.211 -365.37 
	L 507.211 -222.88 
	L 665.313 -222.88 
	L 665.313 -162.25 
	Z 
	"/>
</g>
<g fill="#7f7f7f" fill-rule="nonzero" stroke-width="0" stroke-linejoin="miter" stroke-linecap="butt" stroke-miterlimit="4" >
	<path d="
	M 1339.45 -162.25 
	L 1339.45 -594.25 
	L 1543.15 -594.25 
	L 1543.15 -533.62 
	L 1401.78 -533.62 
	L 1401.78 -424.48 
	L 1491.47 -424.48 
	L 1491.47 -365.37 
	L 1401.78 -365.37 
	L 1401.78 -222.88 
	L 1559.88 -222.88 
	L 1559.88 -162.25 
	Z 
	"/>
</g>
<g fill="#7f7f7f" fill-rule="nonzero" stroke-width="0" stroke-linejoin="miter" stroke-linecap="butt" stroke-miterlimit="4" >
	<path d="
	M 1758.87 -533.62 
	L 1695.34 -533.62 
	L 1695.34 -410.84 
	L 1758.87 -410.84 
	C 1795.17 -410.84 1814.84 -433.58 1814.84 -472.99 
	C 1814.84 -509.37 1792.15 -533.62 1758.87 -533.62 
	Z 
	M 1761.9 -351.72 
	L 1695.34 -351.72 
	L 1695.34 -162.25 
	L 1633.32 -162.25 
	L 1633.32 -594.25 
	L 1761.9 -594.25 
	C 1829.96 -594.25 1875.34 -545.75 1875.34 -472.99 
	C 1875.34 -394.17 1834.5 -351.72 1761.9 -351.72 
	Z 
	"/>
</g>
<g fill="#7f7f7f" fill-rule="nonzero" stroke-width="0" stroke-linejoin="miter" stroke-linecap="butt" stroke-miterlimit="4" >
	<path d="
	M 2068.56 -536.65 
	L 2068.56 -162.25 
	L 2006.24 -162.25 
	L 2006.24 -536.65 
	L 1927.19 -536.65 
	L 1927.19 -594.25 
	L 2147.62 -594.25 
	L 2147.62 -536.65 
	Z 
	"/>
</g>
<g fill="#7f7f7f" fill-rule="nonzero" stroke-width="0" stroke-linejoin="miter" stroke-linecap="butt" stroke-miterlimit="4" >
	<path d="
	M 892 -162.25 
	L 830.926 -309.28 
	L 769.852 -162.25 
	L 704.191 -162.25 
	L 798.859 -386.59 
	L 710.301 -594.25 
	L 775.957 -594.25 
	L 830.926 -463.89 
	L 885.895 -594.25 
	L 951.551 -594.25 
	L 864.516 -386.59 
	L 959.184 -162.25 
	Z 
	"/>
</g>
</g >
</g>
</svg>
