<?xml version="1.0" standalone="no"?>
<svg width="2592px" height="3456px" viewBox="0 -2664 2592 3456 " xmlns="http://www.w3.org/2000/svg" xmlns:xlink="http://www.w3.org/1999/xlink">
<title>generated by pstoedit</title>
<!-- generated by pstoedit version:4.02 -->
<g xml:space='preserve'>
<clipPath id="clippath1"> 	<path d="
	M 0 -2664.5 
	L 0 792 
	L 2592.5 792 
	L 2592.5 -2664.5 
	Z 
	" style="clip-rule:nonzero"/>
</clipPath>
<g style="clip-path:url(#clippath1)"> 
<g fill="#ffffff" fill-rule="nonzero" stroke-width="0" stroke-linejoin="miter" stroke-linecap="butt" stroke-miterlimit="10" >
	<path d="
	M 2592.25 629.75 
	C 2592.25 719.219 2519.72 791.75 2430.25 791.75 
	L 162.25 791.75 
	C 72.7813 791.75 0.25 719.219 0.25 629.75 
	L 0.25 -2502.25 
	C 0.25 -2591.72 72.7813 -2664.25 162.25 -2664.25 
	L 2430.25 -2664.25 
	C 2519.72 -2664.25 2592.25 -2591.72 2592.25 -2502.25 
	Z 
	"/>
</g>
<g stroke="#7f7f7f" fill="none" stroke-width="0.5" stroke-linejoin="miter" stroke-linecap="butt" stroke-miterlimit="4" >
	<path d="
	M 2592.25 629.75 
	C 2592.25 719.219 2519.72 791.75 2430.25 791.75 
	L 162.25 791.75 
	C 72.7813 791.75 0.25 719.219 0.25 629.75 
	L 0.25 -2502.25 
	C 0.25 -2591.72 72.7813 -2664.25 162.25 -2664.25 
	L 2430.25 -2664.25 
	C 2519.72 -2664.25 2592.25 -2591.72 2592.25 -2502.25 
	Z 
	"/>
</g>
<g fill="#7f7f7f" fill-rule="nonzero" stroke-width="0" stroke-linejoin="miter" stroke-linecap="butt" stroke-miterlimit="4" >
	<path d="
	M 162.25 746.75 
	C 97.7344 746.75 45.25 694.262 45.25 629.75 
	L 45.25 -2502.25 
	C 45.25 -2566.76 97.7344 -2619.25 162.25 -2619.25 
	L 2430.25 -2619.25 
	C 2494.76 -2619.25 2547.25 -2566.76 2547.25 -2502.25 
	L 2547.25 629.75 
	C 2547.25 694.262 2494.76 746.75 2430.25 746.75 
	Z 
	"/>
</g>
<g fill="#ffffff" fill-rule="nonzero" stroke-width="0" stroke-linejoin="miter" stroke-linecap="butt" stroke-miterlimit="4" >
	<path d="
	M 162.25 683.75 
	C 132.477 683.75 108.25 659.52 108.25 629.75 
	L 108.25 -2502.25 
	C 108.25 -2532.03 132.477 -2556.25 162.25 -2556.25 
	L 2430.25 -2556.25 
	C 2460.03 -2556.25 2484.25 -2532.02 2484.25 -2502.25 
	L 2484.25 629.75 
	C 2484.25 659.52 2460.03 683.75 2430.25 683.75 
	Z 
	"/>
</g>
<g fill="#7f7f7f" fill-rule="nonzero" stroke-width="0" stroke-linejoin="miter" stroke-linecap="butt" stroke-miterlimit="4" >
	<path d="
	M 504.648 -2127.66 
	C 494.063 -2157.98 475.91 -2171.62 448.68 -2171.62 
	L 397.25 -2171.62 
	L 397.25 -1860.88 
	L 448.68 -1860.88 
	C 484.984 -1860.88 504.648 -1889.68 510.699 -1923.03 
	C 513.727 -1950.31 516.75 -1980.63 516.75 -2013.98 
	C 516.75 -2062.48 512.211 -2109.47 504.648 -2127.66 
	Z 
	M 515.238 -1819.95 
	C 500.109 -1806.31 478.934 -1800.25 454.73 -1800.25 
	L 335.23 -1800.25 
	L 335.23 -2232.25 
	L 445.656 -2232.25 
	C 481.957 -2232.25 500.109 -2227.7 515.238 -2215.57 
	C 540.953 -2197.39 559.105 -2164.04 566.668 -2120.08 
	C 572.719 -2088.25 577.258 -2050.36 577.258 -2017.01 
	C 577.258 -1916.96 557.594 -1853.3 515.238 -1819.95 
	Z 
	"/>
</g>
<g fill="#7f7f7f" fill-rule="nonzero" stroke-width="0" stroke-linejoin="miter" stroke-linecap="butt" stroke-miterlimit="4" >
	<path d="
	M 867.82 -2124.63 
	C 857.133 -2162.52 840.336 -2179.2 814.379 -2179.2 
	C 786.895 -2179.2 770.098 -2162.52 759.41 -2126.14 
	C 748.723 -2092.8 745.668 -2064 745.668 -2015.49 
	C 745.668 -1968.5 750.25 -1941.22 759.41 -1906.36 
	C 770.098 -1869.98 786.895 -1853.3 814.379 -1853.3 
	C 840.336 -1853.3 857.133 -1869.98 867.82 -1906.36 
	C 878.508 -1941.22 881.559 -1966.99 881.559 -2017.01 
	C 881.559 -2065.51 876.98 -2092.8 867.82 -2124.63 
	Z 
	M 916.68 -1866.94 
	C 895.301 -1815.41 863.238 -1792.67 814.379 -1792.67 
	C 762.465 -1792.67 731.93 -1815.41 710.551 -1866.94 
	C 692.227 -1909.39 686.121 -1950.31 686.121 -2017.01 
	C 686.121 -2082.19 692.227 -2126.14 710.551 -2167.07 
	C 733.453 -2218.61 763.992 -2239.83 814.379 -2239.83 
	C 864.766 -2239.83 895.301 -2218.61 916.68 -2165.56 
	C 935.004 -2123.11 941.109 -2082.19 941.109 -2017.01 
	C 941.109 -1950.31 935.004 -1907.87 916.68 -1866.94 
	Z 
	"/>
</g>
<g fill="#7f7f7f" fill-rule="nonzero" stroke-width="0" stroke-linejoin="miter" stroke-linecap="butt" stroke-miterlimit="4" >
	<path d="
	M 1568.25 -1800.25 
	L 1435.13 -2089.77 
	L 1435.13 -1800.25 
	L 1373.11 -1800.25 
	L 1373.11 -2232.25 
	L 1435.13 -2232.25 
	L 1553.12 -1973.05 
	L 1553.12 -2232.25 
	L 1615.14 -2232.25 
	L 1615.14 -1800.25 
	Z 
	"/>
</g>
<g fill="#7f7f7f" fill-rule="nonzero" stroke-width="0" stroke-linejoin="miter" stroke-linecap="butt" stroke-miterlimit="4" >
	<path d="
	M 1900.52 -2124.63 
	C 1889.83 -2162.52 1873.04 -2179.2 1847.08 -2179.2 
	C 1819.59 -2179.2 1802.8 -2162.52 1792.11 -2126.14 
	C 1781.42 -2092.8 1778.37 -2064 1778.37 -2015.49 
	C 1778.37 -1968.5 1782.95 -1941.22 1792.11 -1906.36 
	C 1802.8 -1869.98 1819.59 -1853.3 1847.08 -1853.3 
	C 1873.04 -1853.3 1889.83 -1869.98 1900.52 -1906.36 
	C 1911.21 -1941.22 1914.26 -1966.99 1914.26 -2017.01 
	C 1914.26 -2065.52 1909.68 -2092.8 1900.52 -2124.63 
	Z 
	M 1949.38 -1866.95 
	C 1928 -1815.41 1895.94 -1792.67 1847.08 -1792.67 
	C 1795.16 -1792.67 1764.63 -1815.41 1743.25 -1866.95 
	C 1724.93 -1909.39 1718.82 -1950.32 1718.82 -2017.01 
	C 1718.82 -2082.19 1724.93 -2126.14 1743.25 -2167.07 
	C 1766.15 -2218.61 1796.69 -2239.83 1847.08 -2239.83 
	C 1897.46 -2239.83 1928 -2218.61 1949.38 -2165.56 
	C 1967.7 -2123.11 1973.81 -2082.19 1973.81 -2017.01 
	C 1973.81 -1950.32 1967.7 -1907.87 1949.38 -1866.95 
	Z 
	"/>
</g>
<g fill="#7f7f7f" fill-rule="nonzero" stroke-width="0" stroke-linejoin="miter" stroke-linecap="butt" stroke-miterlimit="4" >
	<path d="
	M 2177.39 -2174.65 
	L 2177.39 -1800.25 
	L 2115.06 -1800.25 
	L 2115.06 -2174.65 
	L 2036.02 -2174.65 
	L 2036.02 -2232.25 
	L 2256.44 -2232.25 
	L 2256.44 -2174.65 
	Z 
	"/>
</g>
<g fill="#7f7f7f" fill-rule="nonzero" stroke-width="0" stroke-linejoin="miter" stroke-linecap="butt" stroke-miterlimit="4" >
	<path d="
	M 1541.06 -360.25 
	L 1407.95 -649.77 
	L 1407.95 -360.25 
	L 1345.93 -360.25 
	L 1345.93 -792.25 
	L 1407.95 -792.25 
	L 1525.94 -533.05 
	L 1525.94 -792.25 
	L 1587.96 -792.25 
	L 1587.96 -360.25 
	Z 
	"/>
</g>
<g fill="#7f7f7f" fill-rule="nonzero" stroke-width="0" stroke-linejoin="miter" stroke-linecap="butt" stroke-miterlimit="4" >
	<path d="
	M 1186.24 -684.63 
	C 1175.55 -722.52 1158.76 -739.2 1132.8 -739.2 
	C 1105.32 -739.2 1088.52 -722.52 1077.83 -686.14 
	C 1067.14 -652.8 1064.09 -624 1064.09 -575.49 
	C 1064.09 -528.5 1068.67 -501.22 1077.83 -466.35 
	C 1088.52 -429.98 1105.32 -413.3 1132.8 -413.3 
	C 1158.76 -413.3 1175.55 -429.98 1186.24 -466.35 
	C 1196.93 -501.22 1199.98 -526.99 1199.98 -577.01 
	C 1199.98 -625.51 1195.4 -652.8 1186.24 -684.63 
	Z 
	M 1235.1 -426.94 
	C 1213.72 -375.41 1181.66 -352.67 1132.8 -352.67 
	C 1080.88 -352.67 1050.35 -375.41 1028.97 -426.94 
	C 1010.65 -469.39 1004.54 -510.31 1004.54 -577.01 
	C 1004.54 -642.19 1010.65 -686.14 1028.97 -727.07 
	C 1051.88 -778.61 1082.41 -799.83 1132.8 -799.83 
	C 1183.19 -799.83 1213.72 -778.61 1235.1 -725.55 
	C 1253.42 -683.11 1259.53 -642.19 1259.53 -577.01 
	C 1259.53 -510.31 1253.42 -467.87 1235.1 -426.94 
	Z 
	"/>
</g>
<g fill="#7f7f7f" fill-rule="nonzero" stroke-width="0" stroke-linejoin="miter" stroke-linecap="butt" stroke-miterlimit="4" >
	<path d="
	M 808.813 -1407.66 
	C 798.227 -1437.98 780.07 -1451.62 752.848 -1451.62 
	L 701.414 -1451.62 
	L 701.414 -1140.88 
	L 752.848 -1140.88 
	C 789.148 -1140.88 808.813 -1169.68 814.863 -1203.03 
	C 817.891 -1230.31 820.918 -1260.63 820.918 -1293.98 
	C 820.918 -1342.48 816.379 -1389.47 808.813 -1407.66 
	Z 
	M 819.398 -1099.96 
	C 804.273 -1086.31 783.102 -1080.25 758.895 -1080.25 
	L 639.395 -1080.25 
	L 639.395 -1512.25 
	L 749.82 -1512.25 
	C 786.121 -1512.25 804.273 -1507.7 819.398 -1495.58 
	C 845.117 -1477.39 863.27 -1444.04 870.836 -1400.08 
	C 876.887 -1368.25 881.426 -1330.36 881.426 -1297.01 
	C 881.426 -1196.96 861.758 -1133.3 819.398 -1099.96 
	Z 
	"/>
</g>
<g fill="#7f7f7f" fill-rule="nonzero" stroke-width="0" stroke-linejoin="miter" stroke-linecap="butt" stroke-miterlimit="4" >
	<path d="
	M 1732.68 -1080.25 
	L 1732.68 -1512.25 
	L 1936.38 -1512.25 
	L 1936.38 -1451.62 
	L 1795.01 -1451.62 
	L 1795.01 -1342.48 
	L 1884.7 -1342.48 
	L 1884.7 -1283.37 
	L 1795.01 -1283.37 
	L 1795.01 -1140.88 
	L 1953.11 -1140.88 
	L 1953.11 -1080.25 
	Z 
	"/>
</g>
<g fill="#7f7f7f" fill-rule="nonzero" stroke-width="0" stroke-linejoin="miter" stroke-linecap="butt" stroke-miterlimit="4" >
	<path d="
	M 1283.29 -1080.25 
	L 1283.29 -1512.25 
	L 1343.77 -1512.25 
	L 1343.77 -1080.25 
	Z 
	"/>
</g>
<g fill="#7f7f7f" fill-rule="nonzero" stroke-width="0" stroke-linejoin="miter" stroke-linecap="butt" stroke-miterlimit="4" >
	<path d="
	M 1093.38 -1451.62 
	L 1029.84 -1451.62 
	L 1029.84 -1342.48 
	L 1093.38 -1342.48 
	C 1129.68 -1342.48 1149.34 -1362.19 1149.34 -1397.05 
	C 1149.34 -1430.4 1126.65 -1451.62 1093.38 -1451.62 
	Z 
	M 1146.32 -1080.25 
	L 1088.84 -1283.37 
	L 1029.84 -1283.37 
	L 1029.84 -1080.25 
	L 967.82 -1080.25 
	L 967.82 -1512.25 
	L 1096.4 -1512.25 
	C 1164.47 -1512.25 1209.85 -1466.78 1209.85 -1397.05 
	C 1209.85 -1345.52 1188.67 -1307.62 1147.83 -1292.46 
	L 1209.85 -1080.25 
	Z 
	"/>
</g>
<g fill="#7f7f7f" fill-rule="nonzero" stroke-width="0" stroke-linejoin="miter" stroke-linecap="butt" stroke-miterlimit="4" >
	<path d="
	M 1561.06 -1080.25 
	L 1513.87 -1080.25 
	L 1404.25 -1512.25 
	L 1466.67 -1512.25 
	L 1538.23 -1231.83 
	L 1609.78 -1512.25 
	L 1672.2 -1512.25 
	Z 
	"/>
</g>
<g fill="#7f7f7f" fill-rule="nonzero" stroke-width="0" stroke-linejoin="miter" stroke-linecap="butt" stroke-miterlimit="4" >
	<path d="
	M 1756.17 45.98 
	C 1751.63 -1.01202 1742.57 -16.16 1719.9 -16.16 
	L 1685.14 -16.16 
	L 1685.14 303.672 
	L 1719.9 303.672 
	C 1739.54 303.672 1750.12 290.02 1756.17 258.191 
	C 1757.68 243.039 1760.7 194.531 1760.7 156.641 
	C 1760.7 124.801 1757.68 76.301 1756.17 45.98 
	Z 
	M 1807.54 32.34 
	C 1812.49 67.34 1816.61 106.609 1816.61 142.988 
	C 1816.61 244.551 1803.01 309.73 1777.32 338.531 
	C 1765.23 352.172 1744.08 359.75 1719.9 359.75 
	L 1630.74 359.75 
	L 1630.74 -72.25 
	L 1719.9 -72.25 
	C 1750.12 -72.25 1771.28 -61.641 1784.88 -40.418 
	C 1795.46 -23.738 1803.7 5.15997 1807.54 32.34 
	Z 
	"/>
</g>
<g fill="#7f7f7f" fill-rule="nonzero" stroke-width="0" stroke-linejoin="miter" stroke-linecap="butt" stroke-miterlimit="4" >
	<path d="
	M 1915.11 359.75 
	L 1915.11 -72.25 
	L 2073.35 -72.25 
	L 2073.35 -16.16 
	L 1969.36 -16.16 
	L 1969.36 94.488 
	L 2038.69 94.488 
	L 2038.69 152.09 
	L 1969.36 152.09 
	L 1969.36 303.672 
	L 2079.38 303.672 
	L 2079.38 359.75 
	Z 
	"/>
</g>
<g fill="#7f7f7f" fill-rule="nonzero" stroke-width="0" stroke-linejoin="miter" stroke-linecap="butt" stroke-miterlimit="4" >
	<path d="
	M 643.762 359.75 
	L 643.762 158.148 
	L 566.691 158.148 
	L 566.691 359.75 
	L 512.293 359.75 
	L 512.293 -72.25 
	L 566.691 -72.25 
	L 566.691 102.07 
	L 643.762 102.07 
	L 643.762 -72.25 
	L 698.16 -72.25 
	L 698.16 359.75 
	Z 
	"/>
</g>
<g fill="#7f7f7f" fill-rule="nonzero" stroke-width="0" stroke-linejoin="miter" stroke-linecap="butt" stroke-miterlimit="4" >
	<path d="
	M 1393.9 359.75 
	L 1393.9 -72.25 
	L 1448.15 -72.25 
	L 1448.15 309.73 
	L 1558.17 309.73 
	L 1558.17 359.75 
	Z 
	"/>
</g>
<g fill="#7f7f7f" fill-rule="nonzero" stroke-width="0" stroke-linejoin="miter" stroke-linecap="butt" stroke-miterlimit="4" >
	<path d="
	M 896.102 -22.23 
	C 846.078 -22.23 852.895 112.68 852.895 142.988 
	C 852.895 171.789 846.078 311.25 896.102 311.25 
	C 944.609 311.25 937.797 171.789 937.797 142.988 
	C 937.797 108.129 937.031 -22.23 896.102 -22.23 
	Z 
	M 896.102 367.332 
	C 788.477 367.332 796.809 214.238 796.809 142.988 
	C 796.809 68.719 789.996 -78.309 896.102 -78.309 
	C 1002.21 -78.309 995.398 70.238 995.398 142.988 
	C 995.398 214.238 1002.21 367.332 896.102 367.332 
	Z 
	"/>
</g>
<g fill="#7f7f7f" fill-rule="nonzero" stroke-width="0" stroke-linejoin="miter" stroke-linecap="butt" stroke-miterlimit="4" >
	<path d="
	M 2243.5 -16.16 
	L 2216.94 -16.16 
	L 2216.94 102.07 
	L 2252.6 102.07 
	C 2282.95 102.07 2292.05 88.43 2292.05 47.5 
	C 2292.05 -1.01202 2281.43 -16.16 2243.5 -16.16 
	Z 
	M 2302.67 144.512 
	L 2346.67 359.75 
	L 2290.53 359.75 
	L 2241.98 158.148 
	L 2216.94 158.148 
	L 2216.94 359.75 
	L 2162.32 359.75 
	L 2162.32 -72.25 
	L 2246.54 -72.25 
	C 2313.29 -72.25 2348.19 -31.32 2348.19 49.02 
	C 2348.19 97.52 2334.53 124.801 2302.67 144.512 
	Z 
	"/>
</g>
<g fill="#7f7f7f" fill-rule="nonzero" stroke-width="0" stroke-linejoin="miter" stroke-linecap="butt" stroke-miterlimit="4" >
	<path d="
	M 408.109 173.309 
	C 420.578 200.07 429.352 236.969 429.352 267.289 
	C 429.352 297.609 415.695 329.441 394.453 347.629 
	C 380.797 359.75 361.449 367.332 338.691 367.332 
	C 278.004 367.332 246.516 327.922 243.48 252.129 
	L 299.617 252.129 
	C 299.617 268.801 301.137 274.871 304.172 283.961 
	C 308.723 300.641 322 311.25 338.691 311.25 
	C 359.934 311.25 373.211 294.57 373.211 267.289 
	C 373.211 229.391 359.934 197.559 326.555 158.148 
	C 306.828 135.41 293.551 118.738 288.996 112.68 
	C 264.723 83.879 254.102 53.559 254.102 23.25 
	C 254.102 -35.871 290.141 -78.309 341.727 -78.309 
	C 394.828 -78.309 423.281 -44.961 429.352 23.25 
	L 373.211 23.25 
	C 371.695 -10.102 362.965 -23.738 343.242 -23.738 
	C 322 -23.738 310.238 -5.55103 310.238 23.25 
	C 310.238 42.949 317.449 58.109 340.207 82.359 
	C 387.242 135.41 395.227 145.648 408.109 173.309 
	Z 
	"/>
</g>
<g fill="#7f7f7f" fill-rule="nonzero" stroke-width="0" stroke-linejoin="miter" stroke-linecap="butt" stroke-miterlimit="4" >
	<path d="
	M 1266.22 321.859 
	C 1249.57 353.691 1225.34 367.332 1187.49 367.332 
	C 1143.57 367.332 1116.69 347.629 1101.55 308.211 
	C 1097.01 294.57 1093.98 279.422 1093.98 253.648 
	L 1093.98 -72.25 
	L 1148.49 -72.25 
	L 1148.49 261.219 
	C 1148.49 293.059 1161.75 311.25 1187.49 311.25 
	C 1211.71 311.25 1225.34 293.059 1225.34 261.219 
	L 1225.34 -72.25 
	L 1279.85 -72.25 
	L 1279.85 253.648 
	C 1279.85 283.961 1275.31 305.18 1266.22 321.859 
	Z 
	"/>
</g>
</g >
</g>
</svg>
