<?xml version="1.0" encoding="UTF-8" standalone="no"?>
<!-- Created with Inkscape (http://www.inkscape.org/) -->

<svg
   version="1.1"
   id="svg1"
   width="1728.6667"
   height="2304.6667"
   viewBox="0 0 1728.6667 2304.6667"
   sodipodi:docname="tmpmun9ww9d.pdf"
   xmlns:inkscape="http://www.inkscape.org/namespaces/inkscape"
   xmlns:sodipodi="http://sodipodi.sourceforge.net/DTD/sodipodi-0.dtd"
   xmlns="http://www.w3.org/2000/svg"
   xmlns:svg="http://www.w3.org/2000/svg">
  <defs
     id="defs1" />
  <sodipodi:namedview
     id="namedview1"
     pagecolor="#ffffff"
     bordercolor="#000000"
     borderopacity="0.25"
     inkscape:showpageshadow="2"
     inkscape:pageopacity="0.0"
     inkscape:pagecheckerboard="0"
     inkscape:deskcolor="#d1d1d1">
    <inkscape:page
       x="0"
       y="0"
       inkscape:label="1"
       id="page1"
       width="1728.6667"
       height="2304.6667"
       margin="0"
       bleed="0" />
  </sodipodi:namedview>
  <g
     id="g1"
     inkscape:groupmode="layer"
     inkscape:label="1">
    <g
       id="group-R5">
      <path
         id="path2"
         d="M 1082.5,1.19922 C 486.293,1.19922 1.25,486.301 1.25,1082.5 v 15120 c 0,596.2 485.043,1081.3 1081.25,1081.3 h 10800 c 596.2,0 1081.3,-485.1 1081.3,-1081.3 V 1082.5 C 12963.8,486.301 12478.7,1.19922 11882.5,1.19922 h -10800"
         style="fill:#ffffff;fill-opacity:1;fill-rule:nonzero;stroke:none"
         transform="matrix(0.13333333,0,0,-0.13333333,0,2304.6667)" />
      <path
         id="path3"
         d="m 11882.5,17285 h -10800 c -287.953,0 -559.465,-112.9 -764.52,-318 C 112.93,16762 0,16490.5 0,16202.5 V 1082.5 C 0,794.5 112.93,523 317.98,318 523.035,112.902 794.547,0 1082.5,0 h 10800 c 288,0 559.5,112.902 764.5,318 205.1,205 318,476.5 318,764.5 v 15120 c 0,288 -112.9,559.5 -318,764.5 -205,205.1 -476.5,318 -764.5,318 z m 0,-2.5 c 594,0 1080,-486 1080,-1080 v -15120 c 0,-594 -486,-1080 -1080,-1080 h -10800 c -594,0 -1080,486 -1080,1080 v 15120 c 0,594 486,1080 1080,1080 h 10800"
         style="fill:#231f20;fill-opacity:1;fill-rule:nonzero;stroke:none"
         transform="matrix(0.13333333,0,0,-0.13333333,0,2304.6667)" />
      <path
         id="path4"
         d="m 1082.5,272.5 c -446.637,0 -810,363.402 -810,810 v 15120 c 0,446.6 363.363,810 810,810 h 10800 c 446.6,0 810,-363.4 810,-810 v -15120 c 0,-446.598 -363.4,-810 -810,-810 h -10800"
         style="fill:#231f20;fill-opacity:1;fill-rule:nonzero;stroke:none"
         transform="matrix(0.13333333,0,0,-0.13333333,0,2304.6667)" />
      <path
         id="path5"
         d="m 1082.5,722.5 c -198.508,0 -360,161.5 -360,360 v 15120 c 0,198.5 161.492,360 360,360 h 10800 c 198.5,0 360,-161.5 360,-360 v -15120 c 0,-198.5 -161.5,-360 -360,-360 h -10800"
         style="fill:#ffffff;fill-opacity:1;fill-rule:nonzero;stroke:none"
         transform="matrix(0.13333333,0,0,-0.13333333,0,2304.6667)" />
      <path
         id="path6"
         d="m 3078.33,13539.9 h 423.33 c 241.92,0 373.31,151.2 373.31,414 0,242.7 -152.63,404.3 -372.94,404.3 h -423.7 z m 0,-394.1 v -1263.3 h -413.27 v 2880 h 857.13 c 453.94,0 756.32,-324.7 756.32,-808.6 0,-525.6 -272.5,-808.1 -756.32,-808.1 h -443.86"
         style="fill:#231f20;fill-opacity:1;fill-rule:nonzero;stroke:none"
         transform="matrix(0.13333333,0,0,-0.13333333,0,2304.6667)" />
      <path
         id="path7"
         d="m 5333.39,13074.8 h 415.42 l -212.75,828.7 z m 516.58,-404.2 h -617.74 l -192.59,-788.1 h -415.42 l 719.25,2880 h 405.71 l 718.88,-2880 h -415.42 l -202.67,788.1"
         style="fill:#231f20;fill-opacity:1;fill-rule:nonzero;stroke:none"
         transform="matrix(0.13333333,0,0,-0.13333333,0,2304.6667)" />
      <path
         id="path8"
         d="m 7553.53,13713.5 c 314.98,-197.7 787.29,-474.5 787.29,-1042.9 0,-466.2 -355.31,-838.5 -801.69,-838.5 -507.22,0 -811.77,429.1 -811.77,899.3 h 406.07 c 0,-245.2 121.67,-495.4 405.7,-495.4 223.19,0 405.7,202 405.7,434.6 0,626 -1075.28,590 -1075.28,1394.6 0,414.3 324.71,747.3 740.5,747.3 406.06,0 720.69,-313.2 730.77,-747.7 h -395.99 c -10.08,202 -152.27,333.4 -334.78,333.4 -192.96,0 -344.87,-141.1 -344.87,-333 0,-187.2 99.35,-233.3 288.35,-351.7"
         style="fill:#231f20;fill-opacity:1;fill-rule:nonzero;stroke:none"
         transform="matrix(0.13333333,0,0,-0.13333333,0,2304.6667)" />
      <path
         id="path9"
         d="m 9512.65,13713.5 c 314.99,-197.7 787.25,-474.5 787.25,-1042.9 0,-466.2 -355.27,-838.5 -801.65,-838.5 -507.22,0 -811.77,429.1 -811.77,899.3 h 406.07 c 0,-245.2 121.67,-495.4 405.7,-495.4 223.19,0 405.7,202 405.7,434.6 0,626 -1075.27,590 -1075.27,1394.6 0,414.3 324.71,747.3 740.49,747.3 406.06,0 720.73,-313.2 730.73,-747.7 h -395.95 c -10.08,202 -152.27,333.4 -334.78,333.4 -192.95,0 -344.87,-141.1 -344.87,-333 0,-187.2 99.36,-233.3 288.35,-351.7"
         style="fill:#231f20;fill-opacity:1;fill-rule:nonzero;stroke:none"
         transform="matrix(0.13333333,0,0,-0.13333333,0,2304.6667)" />
      <path
         id="path10"
         d="M 4408.13,7202.5 4134.54,8708.02 3860.59,7202.5 h -364.66 l -456.47,2880 h 405.71 l 243.35,-1536.11 283.67,1536.11 h 324.71 l 273.59,-1536.11 253.43,1536.11 h 405.7 l -466.54,-2880 h -354.95"
         style="fill:#231f20;fill-opacity:1;fill-rule:nonzero;stroke:none"
         transform="matrix(0.13333333,0,0,-0.13333333,0,2304.6667)" />
      <path
         id="path11"
         d="m 5632.93,10082.5 h 403.19 v -2880 h -403.19 v 2880"
         style="fill:#231f20;fill-opacity:1;fill-rule:nonzero;stroke:none"
         transform="matrix(0.13333333,0,0,-0.13333333,0,2304.6667)" />
      <path
         id="path12"
         d="m 7381.79,7202.5 h -415.43 v 2495.88 h -527.02 v 384.12 H 7908.81 V 9698.38 H 7381.79 V 7202.5"
         style="fill:#231f20;fill-opacity:1;fill-rule:nonzero;stroke:none"
         transform="matrix(0.13333333,0,0,-0.13333333,0,2304.6667)" />
      <path
         id="path13"
         d="M 9512.28,8506.06 H 8725.35 V 7202.5 h -413.27 v 2880 h 413.27 V 8910.34 h 786.57 v 1172.16 h 413.62 v -2880 h -413.26 v 1303.56"
         style="fill:#231f20;fill-opacity:1;fill-rule:nonzero;stroke:none"
         transform="matrix(0.13333333,0,0,-0.13333333,0,2304.6667)" />
      <path
         id="path14"
         d="m 3790.37,4634.6 c -39.96,283 -151.92,414.4 -344.86,414.4 -334.79,0 -456.83,-262.8 -456.83,-1010.2 0,-828.7 142.2,-1162.1 497.51,-1162.1 243.7,0 304.18,202.4 304.18,414.4 h 416.14 c -10.08,-474.8 -314.26,-818.6 -720.32,-818.6 -618.82,0 -893.13,495 -893.13,1556.2 0,929.2 294.11,1423.8 862.53,1423.8 527.73,0 736.88,-481.3 750.92,-817.9 h -416.14"
         style="fill:#231f20;fill-opacity:1;fill-rule:nonzero;stroke:none"
         transform="matrix(0.13333333,0,0,-0.13333333,0,2304.6667)" />
      <path
         id="path15"
         d="m 5261.37,3714.8 h 415.43 l -212.76,828.7 z m 516.58,-404.3 h -617.74 l -192.59,-788 H 4552.2 l 719.25,2880 h 405.71 l 718.88,-2880 h -415.42 l -202.67,788"
         style="fill:#231f20;fill-opacity:1;fill-rule:nonzero;stroke:none"
         transform="matrix(0.13333333,0,0,-0.13333333,0,2304.6667)" />
      <path
         id="path16"
         d="m 7212.59,4998.2 v -727.5 h 423.34 c 242.64,0 373.31,131.4 373.31,363.9 0,222.5 -151.2,363.6 -372.94,363.6 z m 393.47,-1121.7 h -393.47 v -1354 h -413.26 v 2880 h 857.12 c 451.79,0 756.33,-303.1 756.33,-767.9 0,-343.4 -141.47,-596.1 -413.62,-697.3 l 413.27,-1414.8 h -422.99 l -383.38,1354"
         style="fill:#231f20;fill-opacity:1;fill-rule:nonzero;stroke:none"
         transform="matrix(0.13333333,0,0,-0.13333333,0,2304.6667)" />
      <path
         id="path17"
         d="m 8902.48,5402.5 h 1357.82 v -404.3 h -942.4 v -727.5 h 597.58 V 3876.5 H 9317.9 v -950.1 h 1054 V 2522.5 H 8902.48 v 2880"
         style="fill:#231f20;fill-opacity:1;fill-rule:nonzero;stroke:none"
         transform="matrix(0.13333333,0,0,-0.13333333,0,2304.6667)" />
    </g>
  </g>
</svg>
