<?xml version="1.0" standalone="no"?>
<svg width="1296px" height="2160px" viewBox="0 -1368 1296 2160 " xmlns="http://www.w3.org/2000/svg" xmlns:xlink="http://www.w3.org/1999/xlink">
<title>generated by pstoedit</title>
<!-- generated by pstoedit version:4.02 -->
<g xml:space='preserve'>
<clipPath id="clippath1"> 	<path d="
	M 0 -1368.5 
	L 0 792 
	L 1296.5 792 
	L 1296.5 -1368.5 
	Z 
	" style="clip-rule:nonzero"/>
</clipPath>
<g style="clip-path:url(#clippath1)"> 
<g fill="#ffffff" fill-rule="nonzero" stroke-width="0" stroke-linejoin="miter" stroke-linecap="butt" stroke-miterlimit="10" >
	<path d="
	M 0.25 683.75 
	C 0.25 743.398 48.6016 791.75 108.25 791.75 
	L 1188.25 791.75 
	C 1247.9 791.75 1296.25 743.398 1296.25 683.75 
	L 1296.25 -1260.25 
	C 1296.25 -1319.89 1247.9 -1368.25 1188.25 -1368.25 
	L 108.25 -1368.25 
	C 48.6016 -1368.25 0.25 -1319.89 0.25 -1260.25 
	Z 
	"/>
</g>
<g stroke="#7f7f7f" fill="none" stroke-width="0.5" stroke-linejoin="miter" stroke-linecap="butt" stroke-miterlimit="4" >
	<path d="
	M 0.25 683.75 
	C 0.25 743.398 48.6016 791.75 108.25 791.75 
	L 1188.25 791.75 
	C 1247.9 791.75 1296.25 743.398 1296.25 683.75 
	L 1296.25 -1260.25 
	C 1296.25 -1319.89 1247.9 -1368.25 1188.25 -1368.25 
	L 108.25 -1368.25 
	C 48.6016 -1368.25 0.25 -1319.89 0.25 -1260.25 
	Z 
	"/>
</g>
<g fill="#7f7f7f" fill-rule="nonzero" stroke-width="0" stroke-linejoin="miter" stroke-linecap="butt" stroke-miterlimit="4" >
	<path d="
	M 1224.25 683.75 
	C 1224.25 703.602 1208.1 719.75 1188.25 719.75 
	L 108.25 719.75 
	C 88.3984 719.75 72.25 703.602 72.25 683.75 
	L 72.25 -1260.25 
	C 72.25 -1280.1 88.3984 -1296.25 108.25 -1296.25 
	L 1188.25 -1296.25 
	C 1208.1 -1296.25 1224.25 -1280.1 1224.25 -1260.25 
	Z 
	M 1188.25 -1341.25 
	L 108.25 -1341.25 
	C 63.5859 -1341.25 27.25 -1304.91 27.25 -1260.25 
	L 27.25 683.75 
	C 27.25 728.41 63.5859 764.75 108.25 764.75 
	L 1188.25 764.75 
	C 1232.91 764.75 1269.25 728.41 1269.25 683.75 
	L 1269.25 -1260.25 
	C 1269.25 -1304.91 1232.91 -1341.25 1188.25 -1341.25 
	Z 
	"/>
</g>
<g fill="#7f7f7f" fill-rule="nonzero" stroke-width="0" stroke-linejoin="miter" stroke-linecap="butt" stroke-miterlimit="4" >
	<path d="
	M 792.25 -981.33 
	C 792.25 -776.22 825.535 -578.88 886.996 -394.42 
	C 898.852 -358.83 932.66 -333.33 972.25 -333.33 
	C 1011.84 -333.33 1045.65 -358.83 1057.5 -394.42 
	C 1118.96 -578.88 1152.25 -776.22 1152.25 -981.33 
	Z 
	"/>
</g>
<g fill="#7f7f7f" fill-rule="nonzero" stroke-width="0" stroke-linejoin="miter" stroke-linecap="butt" stroke-miterlimit="4" >
	<path d="
	M 152.914 -660.75 
	L 432.25 -1073.06 
	L 711.137 -660.75 
	C 723.488 -642.58 718.746 -617.69 700.578 -605.34 
	C 687.895 -596.71 675.699 -598.63 659.242 -603.22 
	L 540.25 -638.71 
	L 540.25 -423.33 
	C 540.25 -329.48 570.539 -239.28 627.844 -162.488 
	C 668.715 -107.73 700.484 -47.262 722.281 17.25 
	C 744.82 83.969 756.25 153.781 756.25 224.75 
	L 756.25 494.75 
	L 540.25 494.75 
	L 540.25 224.75 
	C 540.25 130.891 510.68 41.66 454.734 -33.309 
	C 413.441 -88.641 381.289 -149.379 359.172 -213.83 
	C 336 -281.35 324.25 -351.84 324.25 -423.33 
	L 324.25 -638.77 
	L 203.133 -602.37 
	C 188.184 -598.57 175.605 -597.09 163.473 -605.34 
	C 145.309 -617.69 140.563 -642.58 152.914 -660.75 
	Z 
	"/>
</g>
</g >
</g>
</svg>
