<?xml version="1.0" encoding="UTF-8" standalone="no"?>
<!-- Created with Inkscape (http://www.inkscape.org/) -->

<svg
   version="1.1"
   id="svg1"
   width="2304.6667"
   height="2880.6667"
   viewBox="0 0 2304.6667 2880.6667"
   sodipodi:docname="tmpnu4ifk1f.pdf"
   xmlns:inkscape="http://www.inkscape.org/namespaces/inkscape"
   xmlns:sodipodi="http://sodipodi.sourceforge.net/DTD/sodipodi-0.dtd"
   xmlns="http://www.w3.org/2000/svg"
   xmlns:svg="http://www.w3.org/2000/svg">
  <defs
     id="defs1" />
  <sodipodi:namedview
     id="namedview1"
     pagecolor="#ffffff"
     bordercolor="#000000"
     borderopacity="0.25"
     inkscape:showpageshadow="2"
     inkscape:pageopacity="0.0"
     inkscape:pagecheckerboard="0"
     inkscape:deskcolor="#d1d1d1">
    <inkscape:page
       x="0"
       y="0"
       inkscape:label="1"
       id="page1"
       width="2304.6667"
       height="2880.6667"
       margin="0"
       bleed="0" />
  </sodipodi:namedview>
  <g
     id="g1"
     inkscape:groupmode="layer"
     inkscape:label="1">
    <g
       id="group-R5">
      <path
         id="path2"
         d="M 17282.5,1082.5 C 17282.5,486 16799,2.5 16202.5,2.5 H 1082.5 C 486.031,2.5 2.5,486 2.5,1082.5 v 19440 c 0,596.5 483.531,1080 1080,1080 h 15120 c 596.5,0 1080,-483.5 1080,-1080 v -19440"
         style="fill:#ffffff;fill-opacity:1;fill-rule:nonzero;stroke:none"
         transform="matrix(0.13333333,0,0,-0.13333333,0,2880.6667)" />
      <path
         id="path3"
         d="M 17282.5,1082.5 C 17282.5,486 16799,2.5 16202.5,2.5 H 1082.5 C 486.031,2.5 2.5,486 2.5,1082.5 v 19440 c 0,596.5 483.531,1080 1080,1080 h 15120 c 596.5,0 1080,-483.5 1080,-1080 z"
         style="fill:none;stroke:#231f20;stroke-width:5;stroke-linecap:butt;stroke-linejoin:miter;stroke-miterlimit:4;stroke-dasharray:none;stroke-opacity:1"
         transform="matrix(0.13333333,0,0,-0.13333333,0,2880.6667)" />
      <path
         id="path4"
         d="m 1082.5,272.5 c -446.637,0 -810,363.402 -810,810 v 19440 c 0,446.6 363.363,810 810,810 h 15120 c 446.6,0 810,-363.4 810,-810 v -19440 c 0,-446.598 -363.4,-810 -810,-810 h -15120"
         style="fill:#231f20;fill-opacity:1;fill-rule:nonzero;stroke:none"
         transform="matrix(0.13333333,0,0,-0.13333333,0,2880.6667)" />
      <path
         id="path5"
         d="m 1082.5,722.5 c -198.508,0 -360,161.5 -360,360 v 19440 c 0,198.5 161.492,360 360,360 h 15120 c 198.5,0 360,-161.5 360,-360 v -19440 c 0,-198.5 -161.5,-360 -360,-360 h -15120"
         style="fill:#ffffff;fill-opacity:1;fill-rule:nonzero;stroke:none"
         transform="matrix(0.13333333,0,0,-0.13333333,0,2880.6667)" />
      <path
         id="path6"
         d="m 3367.92,18565.3 c -70.59,202.1 -191.6,293 -373.13,293 h -342.87 v -2071.6 h 342.87 c 242.04,0 373.13,192 413.47,414.3 20.17,181.9 40.33,384 40.33,606.4 0,323.3 -30.25,636.6 -80.67,757.9 z m 70.59,-2051.4 c -100.84,-91 -242.03,-131.4 -403.37,-131.4 h -796.68 v 2880 h 736.17 c 242.02,0 363.04,-30.3 463.88,-111.1 171.44,-121.3 292.46,-343.6 342.88,-636.7 40.33,-212.2 70.58,-464.8 70.58,-687.1 0,-667 -131.09,-1091.4 -413.46,-1313.7"
         style="fill:#231f20;fill-opacity:1;fill-rule:nonzero;stroke:none"
         transform="matrix(0.13333333,0,0,-0.13333333,0,2880.6667)" />
      <path
         id="path7"
         d="m 5789.06,18545.1 c -71.25,252.6 -183.22,363.7 -356.27,363.7 -183.22,0 -295.2,-111.1 -366.45,-353.6 -71.25,-222.4 -91.61,-414.4 -91.61,-737.7 0,-313.3 30.54,-495.2 91.61,-727.6 71.25,-242.5 183.23,-353.7 366.45,-353.7 173.05,0 285.02,111.2 356.27,353.7 71.26,232.4 91.6,404.2 91.6,737.7 0,323.3 -30.52,505.2 -91.6,717.5 z m 325.74,-1718 c -142.52,-343.5 -356.27,-495.1 -682.01,-495.1 -346.09,0 -549.66,151.6 -692.18,495.1 -122.16,283 -162.87,555.8 -162.87,1000.5 0,434.5 40.71,727.6 162.87,1000.4 152.68,343.6 356.27,485.1 692.18,485.1 335.92,0 539.49,-141.5 682.01,-495.2 122.15,-283 162.87,-555.8 162.87,-990.3 0,-444.7 -40.72,-727.6 -162.87,-1000.5"
         style="fill:#231f20;fill-opacity:1;fill-rule:nonzero;stroke:none"
         transform="matrix(0.13333333,0,0,-0.13333333,0,2880.6667)" />
      <path
         id="path8"
         d="m 10458.6,16382.5 -887.46,1930.1 v -1930.1 h -413.48 v 2880 h 413.48 l 786.56,-1728 v 1728 h 413.5 v -2880 h -312.6"
         style="fill:#231f20;fill-opacity:1;fill-rule:nonzero;stroke:none"
         transform="matrix(0.13333333,0,0,-0.13333333,0,2880.6667)" />
      <path
         id="path9"
         d="m 12673.7,18545.1 c -71.2,252.6 -183.2,363.7 -356.3,363.7 -183.2,0 -295.2,-111.1 -366.4,-353.6 -71.3,-222.4 -91.6,-414.3 -91.6,-737.7 0,-313.3 30.5,-495.2 91.6,-727.6 71.2,-242.5 183.2,-353.7 366.4,-353.7 173.1,0 285.1,111.2 356.3,353.7 71.3,232.4 91.6,404.2 91.6,737.7 0,323.3 -30.5,505.2 -91.6,717.5 z m 325.8,-1717.9 c -142.6,-343.6 -356.3,-495.2 -682.1,-495.2 -346.1,0 -549.6,151.6 -692.1,495.2 -122.2,282.9 -162.9,555.8 -162.9,1000.4 0,434.5 40.7,727.6 162.9,1000.4 152.6,343.6 356.2,485.1 692.1,485.1 336,0 539.5,-141.5 682.1,-495.2 122.1,-283 162.8,-555.8 162.8,-990.3 0,-444.6 -40.7,-727.6 -162.8,-1000.4"
         style="fill:#231f20;fill-opacity:1;fill-rule:nonzero;stroke:none"
         transform="matrix(0.13333333,0,0,-0.13333333,0,2880.6667)" />
      <path
         id="path10"
         d="m 14519.5,18878.5 v -2496 H 14104 v 2496 h -527 v 384 h 1469.5 v -384 h -527"
         style="fill:#231f20;fill-opacity:1;fill-rule:nonzero;stroke:none"
         transform="matrix(0.13333333,0,0,-0.13333333,0,2880.6667)" />
      <path
         id="path11"
         d="M 10274.6,7022.5 9387.16,8952.6 V 7022.5 h -413.47 v 2880 h 413.47 l 786.64,-1728 v 1728 h 413.4 v -2880 h -312.6"
         style="fill:#231f20;fill-opacity:1;fill-rule:nonzero;stroke:none"
         transform="matrix(0.13333333,0,0,-0.13333333,0,2880.6667)" />
      <path
         id="path12"
         d="m 7909.1,9185 c -71.25,252.7 -183.23,363.8 -356.28,363.8 -183.21,0 -295.18,-111.1 -366.43,-353.7 -71.26,-222.3 -91.61,-414.3 -91.61,-737.6 0,-313.3 30.53,-495.2 91.61,-727.6 71.25,-242.5 183.22,-353.7 366.43,-353.7 173.05,0 285.03,111.2 356.28,353.7 71.26,232.4 91.61,404.2 91.61,737.7 0,323.3 -30.54,505.2 -91.61,717.4 z m 325.72,-1717.9 c -142.5,-343.5 -356.26,-495.1 -682,-495.1 -346.09,0 -549.66,151.6 -692.18,495.1 -122.14,283 -162.86,555.8 -162.86,1000.5 0,434.5 40.72,727.5 162.86,1000.4 152.7,343.6 356.28,485 692.18,485 335.93,0 539.5,-141.4 682,-495.1 122.17,-283 162.89,-555.8 162.89,-990.3 0,-444.7 -40.72,-727.6 -162.89,-1000.5"
         style="fill:#231f20;fill-opacity:1;fill-rule:nonzero;stroke:none"
         transform="matrix(0.13333333,0,0,-0.13333333,0,2880.6667)" />
      <path
         id="path13"
         d="m 5392.93,13885.3 c -70.6,202.1 -191.62,293 -373.12,293 h -342.88 v -2071.6 h 342.88 c 242.03,0 373.12,192 413.46,414.3 20.15,181.9 40.34,384 40.34,606.4 0,323.3 -30.27,636.6 -80.68,757.9 z m 70.57,-2051.4 c -100.83,-91 -242,-131.4 -403.36,-131.4 h -796.68 v 2880 h 736.17 c 242.03,0 363.04,-30.3 463.87,-111.1 171.47,-121.3 292.48,-343.6 342.89,-636.7 40.34,-212.2 70.61,-464.8 70.61,-687.1 0,-667 -131.12,-1091.4 -413.5,-1313.7"
         style="fill:#231f20;fill-opacity:1;fill-rule:nonzero;stroke:none"
         transform="matrix(0.13333333,0,0,-0.13333333,0,2880.6667)" />
      <path
         id="path14"
         d="m 11552,11702.5 v 2880 h 1358.1 v -404.2 h -942.5 v -727.6 h 597.9 v -394.1 h -597.9 v -949.9 h 1053.9 v -404.2 H 11552"
         style="fill:#231f20;fill-opacity:1;fill-rule:nonzero;stroke:none"
         transform="matrix(0.13333333,0,0,-0.13333333,0,2880.6667)" />
      <path
         id="path15"
         d="m 8556.11,11702.5 v 2880 h 403.19 v -2880 h -403.19"
         style="fill:#231f20;fill-opacity:1;fill-rule:nonzero;stroke:none"
         transform="matrix(0.13333333,0,0,-0.13333333,0,2880.6667)" />
      <path
         id="path16"
         d="m 7290,14178.3 h -423.55 v -727.6 H 7290 c 242.04,0 373.13,131.4 373.13,363.8 0,222.3 -151.27,363.8 -373.13,363.8 z m 352.95,-2475.8 -383.21,1354.1 h -393.29 v -1354.1 h -413.47 v 2880 h 857.18 c 453.81,0 756.35,-303.1 756.35,-768 0,-343.6 -141.18,-596.2 -413.46,-697.2 l 413.46,-1414.8 h -423.56"
         style="fill:#231f20;fill-opacity:1;fill-rule:nonzero;stroke:none"
         transform="matrix(0.13333333,0,0,-0.13333333,0,2880.6667)" />
      <path
         id="path17"
         d="m 10407.9,11702.5 h -314.6 l -730.8,2880 h 416.15 l 477.05,-1869.5 477,1869.5 h 416.1 l -740.9,-2880"
         style="fill:#231f20;fill-opacity:1;fill-rule:nonzero;stroke:none"
         transform="matrix(0.13333333,0,0,-0.13333333,0,2880.6667)" />
      <path
         id="path18"
         d="m 11711.4,4434.3 c -30.3,313.3 -90.7,414.3 -241.8,414.3 h -231.7 V 2716.4 h 231.7 c 131,0 201.5,91 241.8,303.2 10.1,101 30.2,424.4 30.2,677 0,212.2 -20.1,535.6 -30.2,737.7 z m 342.5,90.9 c 33,-233.3 60.4,-495.1 60.4,-737.7 0,-677 -90.6,-1111.5 -261.9,-1303.5 -80.6,-91 -221.6,-141.5 -382.8,-141.5 h -594.4 v 2880 h 594.4 c 201.5,0 342.5,-70.7 433.2,-212.2 70.5,-111.2 125.5,-303.9 151.1,-485.1"
         style="fill:#231f20;fill-opacity:1;fill-rule:nonzero;stroke:none"
         transform="matrix(0.13333333,0,0,-0.13333333,0,2880.6667)" />
      <path
         id="path19"
         d="m 12771,2342.5 v 2880 h 1054.9 v -373.9 h -693.2 v -737.7 h 462.1 v -384 h -462.1 V 2716.4 h 733.4 V 2342.5 H 12771"
         style="fill:#231f20;fill-opacity:1;fill-rule:nonzero;stroke:none"
         transform="matrix(0.13333333,0,0,-0.13333333,0,2880.6667)" />
      <path
         id="path20"
         d="m 4295.33,2342.5 v 1344 h -513.8 v -1344 h -362.65 v 2880 h 362.65 V 4060.4 h 513.8 v 1162.1 h 362.68 v -2880 h -362.68"
         style="fill:#231f20;fill-opacity:1;fill-rule:nonzero;stroke:none"
         transform="matrix(0.13333333,0,0,-0.13333333,0,2880.6667)" />
      <path
         id="path21"
         d="m 9296.25,2342.5 v 2880 h 361.7 V 2676 h 733.45 V 2342.5 H 9296.25"
         style="fill:#231f20;fill-opacity:1;fill-rule:nonzero;stroke:none"
         transform="matrix(0.13333333,0,0,-0.13333333,0,2880.6667)" />
      <path
         id="path22"
         d="m 5977.62,4889 c -333.5,0 -288.07,-899.3 -288.07,-1101.4 0,-192 -45.43,-1121.7 288.07,-1121.7 323.37,0 277.95,929.7 277.95,1121.7 0,232.4 -5.1,1101.4 -277.95,1101.4 z m 0,-2597 c -717.5,0 -661.98,1020.6 -661.98,1495.6 0,495.1 -45.41,1475.3 661.98,1475.3 707.38,0 661.96,-990.3 661.96,-1475.3 0,-475 45.42,-1495.6 -661.96,-1495.6"
         style="fill:#231f20;fill-opacity:1;fill-rule:nonzero;stroke:none"
         transform="matrix(0.13333333,0,0,-0.13333333,0,2880.6667)" />
      <path
         id="path23"
         d="m 14960.3,4848.6 h -177.1 v -788.2 h 237.7 c 202.3,0 263,90.9 263,363.8 0,323.4 -70.8,424.4 -323.6,424.4 z m 394.4,-1071.1 293.4,-1435 h -374.3 l -323.7,1344 h -166.9 v -1344 h -364.1 v 2880 h 561.4 c 445,0 677.7,-272.8 677.7,-808.4 0,-323.4 -91.1,-505.3 -303.5,-636.6"
         style="fill:#231f20;fill-opacity:1;fill-rule:nonzero;stroke:none"
         transform="matrix(0.13333333,0,0,-0.13333333,0,2880.6667)" />
      <path
         id="path24"
         d="m 2724.32,3585.5 c 83.12,-178.5 141.62,-424.5 141.62,-626.6 0,-202.1 -91.05,-414.3 -232.65,-535.6 -91.04,-80.8 -220.03,-131.3 -371.76,-131.3 -404.58,0 -614.5,262.7 -634.72,768 h 374.24 c 0,-111.2 10.12,-151.6 30.36,-212.2 30.33,-111.2 118.86,-181.9 230.12,-181.9 141.61,0 230.15,111.1 230.15,293 0,252.7 -88.54,464.9 -311.05,727.6 -131.51,151.6 -220.03,262.7 -250.39,303.2 -161.83,192 -232.62,394.1 -232.62,596.2 0,394.1 240.24,677 584.15,677 354.02,0 543.7,-222.3 584.17,-677 h -374.26 c -10.12,222.3 -68.31,313.2 -199.8,313.2 -141.61,0 -220.02,-121.2 -220.02,-313.2 0,-131.4 48.07,-232.5 199.79,-394.1 313.56,-353.7 366.79,-422 452.67,-606.3"
         style="fill:#231f20;fill-opacity:1;fill-rule:nonzero;stroke:none"
         transform="matrix(0.13333333,0,0,-0.13333333,0,2880.6667)" />
      <path
         id="path25"
         d="M 8445.08,2595.1 C 8334.03,2382.9 8172.52,2292 7920.17,2292 c -292.75,0 -471.95,131.3 -572.89,394.1 -30.28,90.9 -50.47,192 -50.47,363.8 v 2172.6 h 363.4 V 2999.3 c 0,-212.2 88.35,-333.4 259.96,-333.4 161.49,0 252.35,121.2 252.35,333.4 v 2223.2 h 363.4 V 3049.9 c 0,-202.1 -30.28,-343.6 -90.84,-454.8"
         style="fill:#231f20;fill-opacity:1;fill-rule:nonzero;stroke:none"
         transform="matrix(0.13333333,0,0,-0.13333333,0,2880.6667)" />
    </g>
  </g>
</svg>
