<?xml version="1.0" encoding="UTF-8"?>
<svg id="For_Sheets" xmlns="http://www.w3.org/2000/svg" version="1.1" viewBox="0 0 1296 1728">
  <!-- Generator: Adobe Illustrator 29.1.0, SVG Export Plug-In . SVG Version: 2.1.0 Build 142)  -->
  <defs>
    <style>
      .st0 {
        fill: #231f20;
      }

      .st1 {
        fill: #fff;
      }
    </style>
  </defs>
  <g>
    <rect class="st1" x="-.1" y="-.1" width="1296.2" height="1728.2" rx="108.1" ry="108.1"/>
    <path class="st0" d="M1188,0c59.4,0,108,48.6,108,108v1512c0,59.4-48.6,108-108,108H108c-59.4,0-108-48.6-108-108V108C0,48.6,48.6,0,108,0h1080M1188-.2H108C79.2-.2,52.1,11,31.5,31.5S-.2,79.2-.2,108v1512c0,28.8,11.3,55.9,31.8,76.5s47.7,31.8,76.5,31.8h1080c28.8,0,55.9-11.3,76.5-31.8s31.8-47.7,31.8-76.5V108c0-28.8-11.3-55.9-31.8-76.5S1216.8-.2,1188-.2h0Z"/>
  </g>
  <rect class="st0" x="-189" y="243" width="1674" height="1242" rx="81" ry="81" transform="translate(1512 216) rotate(90)"/>
  <rect class="st1" x="-144" y="288" width="1584" height="1152" rx="36" ry="36" transform="translate(1512 216) rotate(90)"/>
  <g>
    <path class="st0" d="M418.9,540V252h103.9c72.7,0,92.2,95.7,92.2,137.5,0,108-55.5,150.5-92,150.5h-104.1ZM515.8,297.5h-51.5v196h48.3c41.9,0,55.7-50.8,55.7-105s-7.3-91-52.4-91Z"/>
    <path class="st0" d="M877.1,396c0,10.3,2.2,149-102.3,149s-102.3-138.7-102.3-149-2.2-149,102.3-149,102.3,138.7,102.3,149ZM775.3,498.6c31,0,56.2-29.4,56.2-102.6s-25.2-102.6-56.2-102.6-56.2,29.4-56.2,102.6,25.2,102.6,56.2,102.6Z"/>
  </g>
  <g>
    <g>
      <path class="st0" d="M353.4,813v195h-45.4v-288h45.4l105.1,183.9v-183.9h45.5v288h-40.4l-110.2-195Z"/>
      <path class="st0" d="M921.1,1008h-45.7v-247.6h-65.9v-40.4h178.6v40.4h-67v247.6Z"/>
    </g>
    <path class="st0" d="M772,864c0,10.3,2.2,149-102.3,149s-102.3-138.7-102.3-149-2.2-149,102.3-149,102.3,138.7,102.3,149ZM670.2,966.6c31,0,56.2-29.4,56.2-102.6s-25.2-102.6-56.2-102.6-56.2,29.4-56.2,102.6,25.2,102.6,56.2,102.6Z"/>
  </g>
  <g>
    <path class="st0" d="M296,1350.7h-53.6v125.3h-45.4v-288h108.9c67.7,0,87.2,55.1,87.2,80.9s-9.8,81.8-97,81.8ZM242.3,1304.2h64.1c36.1,0,40-26.1,40-35.4,0-13.5-10.2-35.4-38.4-35.4h-65.7v70.7Z"/>
    <path class="st0" d="M577.9,1395.1h-90.4l-28.5,80.9h-48.8l99.6-288h45.8l99.6,288h-48.8l-28.5-80.9ZM503.7,1348.7h57.9l-28.5-80.8-29.4,80.8Z"/>
    <path class="st0" d="M678.2,1408.4l43.4-16.1c12.1,27.3,34.4,42.4,61.7,42.4s44.5-18.1,44.5-42.4c0-38.5-44.5-44.4-81.9-59.5-17.2-7.1-55.5-24.2-55.5-71.6s38.3-77.7,89.8-77.7,67.6,23.2,81.8,58.5l-40.4,12.1c-6.7-13-20.6-25.2-44.8-25.2-34.8,0-42.1,19-42.1,29.1,0,26.9,23.2,32.2,60.9,44.1,38.4,12.1,78.6,29.7,78.6,91.4,0,62.1-50.5,87.8-91,87.8s-85.9-29.2-105.1-72.6Z"/>
    <path class="st0" d="M903.1,1408.4l43.4-16.1c12.1,27.3,34.4,42.4,61.7,42.4s44.5-18.1,44.5-42.4c0-38.5-44.5-44.4-81.9-59.5-17.2-7.1-55.5-24.2-55.5-71.6s38.3-77.7,89.8-77.7,67.6,23.2,81.8,58.5l-40.4,12.1c-6.7-13-20.6-25.2-44.8-25.2-34.8,0-42.1,19-42.1,29.1,0,26.9,23.2,32.2,60.9,44.1,38.4,12.1,78.6,29.7,78.6,91.4,0,62.1-50.5,87.8-91,87.8s-85.9-29.2-105.1-72.6Z"/>
  </g>
</svg>