<?xml version="1.0" standalone="no"?>
<svg width="2160px" height="2160px" viewBox="0 -1368 2160 2160 " xmlns="http://www.w3.org/2000/svg" xmlns:xlink="http://www.w3.org/1999/xlink">
<title>generated by pstoedit</title>
<!-- generated by pstoedit version:4.02 -->
<g xml:space='preserve'>
<clipPath id="clippath1"> 	<path d="
	M 0 -1368.5 
	L 0 792 
	L 2160.5 792 
	L 2160.5 -1368.5 
	Z 
	" style="clip-rule:nonzero"/>
</clipPath>
<g style="clip-path:url(#clippath1)"> 
<g fill="#ffffff" fill-rule="nonzero" stroke-width="0" stroke-linejoin="miter" stroke-linecap="butt" stroke-miterlimit="10" >
	<path d="
	M 2160.25 656.75 
	C 2160.25 731.309 2099.81 791.75 2025.25 791.75 
	L 135.25 791.75 
	C 60.6914 791.75 0.25 731.309 0.25 656.75 
	L 0.25 -1233.25 
	C 0.25 -1307.81 60.6914 -1368.25 135.25 -1368.25 
	L 2025.25 -1368.25 
	C 2099.81 -1368.25 2160.25 -1307.81 2160.25 -1233.25 
	Z 
	"/>
</g>
<g stroke="#7f7f7f" fill="none" stroke-width="0.5" stroke-linejoin="miter" stroke-linecap="butt" stroke-miterlimit="4" >
	<path d="
	M 2160.25 656.75 
	C 2160.25 731.309 2099.81 791.75 2025.25 791.75 
	L 135.25 791.75 
	C 60.6914 791.75 0.25 731.309 0.25 656.75 
	L 0.25 -1233.25 
	C 0.25 -1307.81 60.6914 -1368.25 135.25 -1368.25 
	L 2025.25 -1368.25 
	C 2099.81 -1368.25 2160.25 -1307.81 2160.25 -1233.25 
	Z 
	"/>
</g>
<g fill="#7f7f7f" fill-rule="nonzero" stroke-width="0" stroke-linejoin="miter" stroke-linecap="butt" stroke-miterlimit="4" >
	<path d="
	M 135.25 755.75 
	C 80.6602 755.75 36.25 711.34 36.25 656.75 
	L 36.25 -1233.25 
	C 36.25 -1287.84 80.6602 -1332.25 135.25 -1332.25 
	L 2025.25 -1332.25 
	C 2079.84 -1332.25 2124.25 -1287.84 2124.25 -1233.25 
	L 2124.25 656.75 
	C 2124.25 711.34 2079.84 755.75 2025.25 755.75 
	Z 
	"/>
</g>
<g fill="#ffffff" fill-rule="nonzero" stroke-width="0" stroke-linejoin="miter" stroke-linecap="butt" stroke-miterlimit="4" >
	<path d="
	M 135.25 701.75 
	C 110.438 701.75 90.25 681.559 90.25 656.75 
	L 90.25 -1233.25 
	C 90.25 -1258.06 110.438 -1278.25 135.25 -1278.25 
	L 2025.25 -1278.25 
	C 2050.06 -1278.25 2070.25 -1258.06 2070.25 -1233.25 
	L 2070.25 656.75 
	C 2070.25 681.559 2050.06 701.75 2025.25 701.75 
	Z 
	"/>
</g>
<g fill="#7f7f7f" fill-rule="evenodd" stroke-width="0" stroke-linejoin="miter" stroke-linecap="butt" stroke-miterlimit="4" >
	<path d="
	M 806.586 -871.45 
	L 874.727 -1059.43 
	L 853.133 -1096.26 
	L 896.316 -1143.25 
	L 989.031 -1143.25 
	L 990.301 -1116.58 
	L 909.016 -1116.58 
	L 892.508 -1098.8 
	L 911.559 -1064.51 
	L 887.602 -979.6 
	L 1220.33 -979.6 
	L 1225.41 -995.13 
	C 1198.67 -998.61 1152.55 -1015.09 1141.53 -1024.65 
	C 1130.52 -1034.22 1140.16 -1043.02 1152.71 -1043.43 
	C 1218.38 -1046.22 1315.94 -1051.73 1334.48 -1051.81 
	C 1353.01 -1051.89 1354.91 -1042.57 1342.5 -1029 
	C 1330.1 -1015.43 1319.25 -1003.21 1272.25 -995.93 
	L 1259.55 -961.63 
	L 1338.29 -864.1 
	C 1375.39 -886.62 1420.28 -898.34 1463.89 -898.34 
	C 1594.73 -898.34 1701.44 -791.63 1701.44 -660.8 
	C 1701.44 -529.96 1594.73 -423.25 1463.89 -423.25 
	C 1356.25 -423.25 1261.6 -497.48 1233.79 -600.07 
	L 1161.44 -587.08 
	C 1158.35 -578.55 1151.12 -572.01 1142.5 -566.89 
	L 1155.41 -505.69 
	L 1171.92 -505.69 
	L 1173.19 -489.18 
	L 1121.11 -486.64 
	L 1121.11 -504.42 
	L 1133.82 -504.42 
	L 1118.08 -565.58 
	C 1094.68 -569.41 1082.42 -589.45 1089.38 -609.34 
	L 853.047 -876.63 
	L 842.465 -847.95 
	C 899.824 -802.77 934.156 -733.18 934.156 -660.8 
	C 934.156 -529.96 827.445 -423.25 696.609 -423.25 
	C 565.773 -423.25 459.063 -529.96 459.063 -660.8 
	C 459.063 -791.63 565.773 -898.34 696.609 -898.34 
	C 734.652 -898.34 773.629 -889.07 806.586 -871.45 
	Z 
	M 1279.08 -608.12 
	C 1300.84 -527.05 1378.23 -468.45 1463.89 -468.45 
	C 1569.83 -468.45 1656.24 -554.85 1656.24 -660.8 
	C 1656.24 -766.74 1569.83 -853.15 1463.89 -853.15 
	C 1430.08 -853.15 1390.95 -845.17 1362.41 -828.46 
	L 1466.81 -689.84 
	C 1479.58 -689.64 1490.7 -678.23 1490.7 -664.44 
	C 1490.7 -650.45 1479.29 -639.04 1465.3 -639.04 
	C 1461.43 -639.04 1457.36 -640.04 1453.92 -641.65 
	Z 
	M 722.559 -665.08 
	C 767.156 -700.5 801.875 -734.27 826.906 -801.83 
	C 866.418 -765.99 888.961 -714.14 888.961 -660.8 
	C 888.961 -554.86 802.551 -468.45 696.609 -468.45 
	C 590.668 -468.45 504.262 -554.86 504.262 -660.8 
	C 504.262 -766.74 590.668 -853.14 696.609 -853.14 
	C 730.422 -853.14 764.984 -843.38 792.855 -826.93 
	C 773.988 -767.31 755.637 -736.57 697.594 -689.84 
	C 683.504 -689.25 672.789 -677.94 672.789 -664.44 
	C 672.789 -650.45 684.199 -639.04 698.188 -639.04 
	C 712.18 -639.04 722.559 -650.45 722.559 -665.08 
	Z 
	M 869.645 -922.35 
	L 874.816 -938.18 
	L 1206.92 -938.62 
	L 1118.57 -670.79 
	L 1114.77 -698.73 
	L 1124.93 -698.73 
	L 1123.66 -716.52 
	L 1079.2 -716.52 
	L 1080.47 -700 
	L 1091.9 -700 
	L 1094.44 -669.52 
	C 1094.44 -669.52 870.918 -921.08 869.645 -922.35 
	Z 
	M 1227.54 -639.25 
	C 1227.27 -645.02 1226.34 -654.3 1226.34 -660.8 
	C 1226.34 -726.68 1247.65 -790.7 1305.5 -843.91 
	L 1245.26 -916.04 
	L 1152.02 -631.59 
	Z 
	M 1272.27 -648.99 
	L 1434.9 -675.54 
	L 1332.4 -808.68 
	C 1279.28 -762.36 1272.67 -706.74 1272.27 -648.99 
	Z 
	"/>
</g>
<g fill="#7f7f7f" fill-rule="nonzero" stroke-width="0" stroke-linejoin="miter" stroke-linecap="butt" stroke-miterlimit="4" >
	<path d="
	M 701.883 -157.359 
	L 681.621 -74.488 
	L 723.16 -74.488 
	Z 
	M 753.555 44.75 
	L 733.289 -34.07 
	L 671.488 -34.07 
	L 652.238 44.75 
	L 610.699 44.75 
	L 682.633 -243.25 
	L 723.16 -243.25 
	L 795.094 44.75 
	Z 
	"/>
</g>
<g fill="#7f7f7f" fill-rule="nonzero" stroke-width="0" stroke-linejoin="miter" stroke-linecap="butt" stroke-miterlimit="4" >
	<path d="
	M 1633.39 44.75 
	L 1633.39 -243.25 
	L 1769.2 -243.25 
	L 1769.2 -202.828 
	L 1674.94 -202.828 
	L 1674.94 -130.07 
	L 1734.74 -130.07 
	L 1734.74 -90.66 
	L 1674.94 -90.66 
	L 1674.94 4.328 
	L 1780.34 4.328 
	L 1780.34 44.75 
	Z 
	"/>
</g>
<g fill="#7f7f7f" fill-rule="nonzero" stroke-width="0" stroke-linejoin="miter" stroke-linecap="butt" stroke-miterlimit="4" >
	<path d="
	M 528.895 44.75 
	L 528.895 -116.93 
	L 475.27 44.75 
	L 421.641 -116.93 
	L 421.641 44.75 
	L 380.156 44.75 
	L 380.156 -243.25 
	L 421.641 -243.25 
	L 475.27 -81.57 
	L 528.895 -243.25 
	L 570.379 -243.25 
	L 570.379 44.75 
	Z 
	"/>
</g>
<g fill="#7f7f7f" fill-rule="nonzero" stroke-width="0" stroke-linejoin="miter" stroke-linecap="butt" stroke-miterlimit="4" >
	<path d="
	M 1505.09 -88.25 
	C 1492.63 -96.328 1480.53 -104.43 1472.8 -109.859 
	C 1449.59 -126.199 1437.29 -148.262 1437.29 -173.52 
	C 1437.29 -214.96 1469.76 -248.3 1511.37 -248.3 
	C 1551.96 -248.3 1583.42 -216.98 1584.43 -173.52 
	L 1544.85 -173.52 
	C 1543.84 -193.738 1529.63 -206.871 1511.37 -206.871 
	C 1492.09 -206.871 1476.86 -192.719 1476.86 -173.52 
	C 1476.86 -159.379 1482.95 -151.289 1504.26 -139.172 
	C 1560.08 -106.828 1584.43 -75.5 1584.43 -34.07 
	C 1584.43 12.41 1548.91 49.801 1504.26 49.801 
	C 1453.52 49.801 1423.08 7.35901 1423.08 -40.129 
	L 1463.67 -40.129 
	C 1463.67 -15.879 1475.85 9.37903 1504.26 9.37903 
	C 1526.59 9.37903 1544.85 -10.828 1544.85 -34.07 
	C 1544.85 -52.121 1537.4 -67.32 1505.09 -88.25 
	Z 
	"/>
</g>
<g fill="#7f7f7f" fill-rule="nonzero" stroke-width="0" stroke-linejoin="miter" stroke-linecap="butt" stroke-miterlimit="4" >
	<path d="
	M 1363.03 9.37903 
	C 1348.91 32.621 1321.68 49.801 1294.45 49.801 
	C 1266.21 49.801 1237.98 33.629 1223.86 9.37903 
	C 1215.79 -5.78101 1212.77 -17.898 1212.77 -41.141 
	L 1212.77 -243.25 
	L 1254.11 -243.25 
	L 1254.11 -36.09 
	C 1254.11 -8.80902 1270.25 9.37903 1294.45 9.37903 
	C 1316.64 9.37903 1332.77 -8.80902 1332.77 -36.09 
	L 1332.77 -243.25 
	L 1374.12 -243.25 
	L 1374.12 -41.141 
	C 1374.12 -17.898 1371.09 -5.78101 1363.03 9.37903 
	Z 
	"/>
</g>
<g fill="#7f7f7f" fill-rule="nonzero" stroke-width="0" stroke-linejoin="miter" stroke-linecap="butt" stroke-miterlimit="4" >
	<path d="
	M 924.832 -85.609 
	L 924.832 44.75 
	L 883.297 44.75 
	L 883.297 -85.609 
	L 812.371 -243.25 
	L 855.938 -243.25 
	L 904.57 -139.172 
	L 952.188 -243.25 
	L 996.766 -243.25 
	Z 
	"/>
</g>
<g fill="#7f7f7f" fill-rule="nonzero" stroke-width="0" stroke-linejoin="miter" stroke-linecap="butt" stroke-miterlimit="4" >
	<path d="
	M 1436.47 310.641 
	L 1416.2 393.512 
	L 1457.74 393.512 
	Z 
	M 1488.14 512.75 
	L 1467.87 433.93 
	L 1406.07 433.93 
	L 1386.82 512.75 
	L 1345.28 512.75 
	L 1417.22 224.75 
	L 1457.74 224.75 
	L 1529.67 512.75 
	Z 
	"/>
</g>
<g fill="#7f7f7f" fill-rule="nonzero" stroke-width="0" stroke-linejoin="miter" stroke-linecap="butt" stroke-miterlimit="4" >
	<path d="
	M 1794.71 512.75 
	L 1794.71 224.75 
	L 1930.51 224.75 
	L 1930.51 265.172 
	L 1836.26 265.172 
	L 1836.26 337.93 
	L 1896.05 337.93 
	L 1896.05 377.34 
	L 1836.26 377.34 
	L 1836.26 472.328 
	L 1941.66 472.328 
	L 1941.66 512.75 
	Z 
	"/>
</g>
<g fill="#7f7f7f" fill-rule="nonzero" stroke-width="0" stroke-linejoin="miter" stroke-linecap="butt" stroke-miterlimit="4" >
	<path d="
	M 260.395 265.172 
	L 260.395 337.93 
	L 318.16 337.93 
	L 318.16 377.34 
	L 260.395 377.34 
	L 260.395 512.75 
	L 218.84 512.75 
	L 218.84 224.75 
	L 365.793 224.75 
	L 365.793 265.172 
	Z 
	"/>
</g>
<g fill="#7f7f7f" fill-rule="nonzero" stroke-width="0" stroke-linejoin="miter" stroke-linecap="butt" stroke-miterlimit="4" >
	<path d="
	M 630.824 512.75 
	L 630.824 224.75 
	L 672.379 224.75 
	L 672.379 474.352 
	L 777.777 474.352 
	L 777.777 512.75 
	Z 
	"/>
</g>
<g fill="#7f7f7f" fill-rule="nonzero" stroke-width="0" stroke-linejoin="miter" stroke-linecap="butt" stroke-miterlimit="4" >
	<path d="
	M 818.098 512.75 
	L 818.098 224.75 
	L 859.648 224.75 
	L 859.648 474.352 
	L 965.051 474.352 
	L 965.051 512.75 
	Z 
	"/>
</g>
<g fill="#7f7f7f" fill-rule="nonzero" stroke-width="0" stroke-linejoin="miter" stroke-linecap="butt" stroke-miterlimit="4" >
	<path d="
	M 1181.05 512.75 
	L 1181.05 224.75 
	L 1222.6 224.75 
	L 1222.6 474.352 
	L 1328 474.352 
	L 1328 512.75 
	Z 
	"/>
</g>
<g fill="#7f7f7f" fill-rule="nonzero" stroke-width="0" stroke-linejoin="miter" stroke-linecap="butt" stroke-miterlimit="4" >
	<path d="
	M 1700.09 512.75 
	L 1611.34 319.738 
	L 1611.34 512.75 
	L 1570 512.75 
	L 1570 224.75 
	L 1611.34 224.75 
	L 1690 397.551 
	L 1690 224.75 
	L 1731.35 224.75 
	L 1731.35 512.75 
	Z 
	"/>
</g>
<g fill="#7f7f7f" fill-rule="nonzero" stroke-width="0" stroke-linejoin="miter" stroke-linecap="butt" stroke-miterlimit="4" >
	<path d="
	M 556.371 477.379 
	C 542.254 500.621 515.023 517.801 487.797 517.801 
	C 459.563 517.801 431.324 501.629 417.203 477.379 
	C 409.137 462.219 406.109 450.102 406.109 426.852 
	L 406.109 224.75 
	L 447.461 224.75 
	L 447.461 431.91 
	C 447.461 459.191 463.594 477.379 487.797 477.379 
	C 509.984 477.379 526.117 459.191 526.117 431.91 
	L 526.117 224.75 
	L 567.465 224.75 
	L 567.465 426.852 
	C 567.465 450.102 564.441 462.219 556.371 477.379 
	Z 
	"/>
</g>
</g >
</g>
</svg>
