<?xml version="1.0" encoding="UTF-8" standalone="no"?>
<!-- Created with Inkscape (http://www.inkscape.org/) -->

<svg
   version="1.1"
   id="svg1"
   width="4608.6665"
   height="5760.6665"
   viewBox="0 0 4608.6665 5760.6665"
   sodipodi:docname="tmp8ll46onk.pdf"
   xmlns:inkscape="http://www.inkscape.org/namespaces/inkscape"
   xmlns:sodipodi="http://sodipodi.sourceforge.net/DTD/sodipodi-0.dtd"
   xmlns="http://www.w3.org/2000/svg"
   xmlns:svg="http://www.w3.org/2000/svg">
  <defs
     id="defs1" />
  <sodipodi:namedview
     id="namedview1"
     pagecolor="#ffffff"
     bordercolor="#000000"
     borderopacity="0.25"
     inkscape:showpageshadow="2"
     inkscape:pageopacity="0.0"
     inkscape:pagecheckerboard="0"
     inkscape:deskcolor="#d1d1d1">
    <inkscape:page
       x="0"
       y="0"
       inkscape:label="1"
       id="page1"
       width="4608.6665"
       height="5760.6665"
       margin="0"
       bleed="0" />
  </sodipodi:namedview>
  <g
     id="g1"
     inkscape:groupmode="layer"
     inkscape:label="1">
    <g
       id="group-R5">
      <path
         id="path2"
         d="m 34562.5,2162.5 c 0,-1192.898 -967.1,-2160 -2160,-2160 H 2162.5 C 969.566,2.5 2.5,969.602 2.5,2162.5 v 38880 c 0,1192.9 967.066,2160 2160,2160 h 30240 c 1192.9,0 2160,-967.1 2160,-2160 v -38880"
         style="fill:#ffffff;fill-opacity:1;fill-rule:nonzero;stroke:none"
         transform="matrix(0.13333333,0,0,-0.13333333,0,5760.6667)" />
      <path
         id="path3"
         d="m 34562.5,2162.5 c 0,-1192.898 -967.1,-2160 -2160,-2160 H 2162.5 C 969.566,2.5 2.5,969.602 2.5,2162.5 v 38880 c 0,1192.9 967.066,2160 2160,2160 h 30240 c 1192.9,0 2160,-967.1 2160,-2160 z"
         style="fill:none;stroke:#231f20;stroke-width:5;stroke-linecap:butt;stroke-linejoin:miter;stroke-miterlimit:4;stroke-dasharray:none;stroke-opacity:1"
         transform="matrix(0.13333333,0,0,-0.13333333,0,5760.6667)" />
      <path
         id="path4"
         d="m 2162.5,542.5 c -893.27,0 -1620,726.7 -1620,1620 v 38880 c 0,893.3 726.73,1620 1620,1620 h 30240 c 893.3,0 1620,-726.7 1620,-1620 v -38880 c 0,-893.3 -726.7,-1620 -1620,-1620 h -30240"
         style="fill:#231f20;fill-opacity:1;fill-rule:nonzero;stroke:none"
         transform="matrix(0.13333333,0,0,-0.13333333,0,5760.6667)" />
      <path
         id="path5"
         d="m 2162.5,1442.5 c -397.01,0 -720,323 -720,720 v 38880 c 0,397 322.99,720 720,720 h 30240 c 397,0 720,-323 720,-720 v -38880 c 0,-397 -323,-720 -720,-720 h -30240"
         style="fill:#ffffff;fill-opacity:1;fill-rule:nonzero;stroke:none"
         transform="matrix(0.13333333,0,0,-0.13333333,0,5760.6667)" />
      <path
         id="path6"
         d="m 7093.33,36408 c -141.17,404.2 -383.2,586.1 -746.25,586.1 h -685.73 v -4143.2 h 685.73 c 484.06,0 746.25,384 826.93,828.7 40.34,363.8 80.68,768 80.68,1212.6 0,646.7 -60.52,1273.3 -161.36,1515.8 z m 141.17,-4102.8 c -201.67,-181.9 -484.03,-262.7 -806.74,-262.7 H 4834.41 v 5760 h 1472.35 c 484.04,0 726.07,-60.6 927.74,-222.3 342.89,-242.5 584.92,-687.1 685.76,-1273.3 80.68,-424.4 141.19,-929.6 141.19,-1374.3 0,-1333.9 -262.19,-2182.7 -826.95,-2627.4"
         style="fill:#231f20;fill-opacity:1;fill-rule:nonzero;stroke:none"
         transform="matrix(0.13333333,0,0,-0.13333333,0,5760.6667)" />
      <path
         id="path7"
         d="m 11935.6,36367.6 c -142.5,505.3 -366.4,727.6 -712.5,727.6 -366.5,0 -590.4,-222.3 -732.9,-707.4 -142.5,-444.6 -183.2,-828.7 -183.2,-1475.4 0,-626.5 61,-990.3 183.2,-1455.2 142.5,-485 366.4,-707.3 732.9,-707.3 346.1,0 570,222.3 712.5,707.3 142.5,464.9 183.2,808.5 183.2,1475.4 0,646.7 -61,1010.6 -183.2,1435 z m 651.5,-3435.8 c -285,-687.2 -712.5,-990.4 -1364,-990.4 -692.2,0 -1099.3,303.2 -1384.4,990.4 -244.31,565.9 -325.71,1111.6 -325.71,2000.8 0,869.1 81.4,1455.2 325.71,2000.9 305.4,687.1 712.6,970.1 1384.4,970.1 671.8,0 1079,-283 1364,-990.3 244.3,-566 325.7,-1111.6 325.7,-1980.7 0,-889.2 -81.4,-1455.1 -325.7,-2000.8"
         style="fill:#231f20;fill-opacity:1;fill-rule:nonzero;stroke:none"
         transform="matrix(0.13333333,0,0,-0.13333333,0,5760.6667)" />
      <path
         id="path8"
         d="m 20554.6,32042.5 -1774.8,3860.2 v -3860.2 h -827 v 5760 h 827 l 1573.2,-3456 v 3456 h 826.9 v -5760 h -625.3"
         style="fill:#231f20;fill-opacity:1;fill-rule:nonzero;stroke:none"
         transform="matrix(0.13333333,0,0,-0.13333333,0,5760.6667)" />
      <path
         id="path9"
         d="m 24985,36367.6 c -142.5,505.2 -366.5,727.6 -712.6,727.6 -366.4,0 -590.4,-222.4 -732.9,-707.4 -142.5,-444.6 -183.2,-828.6 -183.2,-1475.4 0,-626.5 61.1,-990.3 183.2,-1455.1 142.5,-485.1 366.5,-707.4 732.9,-707.4 346.1,0 570.1,222.3 712.6,707.4 142.5,464.8 183.1,808.4 183.1,1475.3 0,646.8 -61,1010.6 -183.1,1435 z m 651.4,-3435.8 c -285,-687.2 -712.5,-990.3 -1364,-990.3 -692.2,0 -1099.3,303.1 -1384.4,990.3 -244.3,565.9 -325.7,1111.6 -325.7,2000.8 0,869.1 81.4,1455.2 325.7,2000.9 305.4,687.1 712.6,970.1 1384.4,970.1 671.8,0 1079,-283 1364,-990.3 244.3,-566 325.7,-1111.6 325.7,-1980.7 0,-889.2 -81.4,-1455.1 -325.7,-2000.8"
         style="fill:#231f20;fill-opacity:1;fill-rule:nonzero;stroke:none"
         transform="matrix(0.13333333,0,0,-0.13333333,0,5760.6667)" />
      <path
         id="path10"
         d="m 28676.6,37034.5 v -4992 h -831.1 v 4992 h -1053.9 v 768 h 2939 v -768 h -1054"
         style="fill:#231f20;fill-opacity:1;fill-rule:nonzero;stroke:none"
         transform="matrix(0.13333333,0,0,-0.13333333,0,5760.6667)" />
      <path
         id="path11"
         d="m 20138.7,14042.5 -1553,3377.7 v -3377.7 h -723.6 v 5040 h 723.6 l 1376.5,-3024 v 3024 h 723.5 v -5040 h -547"
         style="fill:#231f20;fill-opacity:1;fill-rule:nonzero;stroke:none"
         transform="matrix(0.13333333,0,0,-0.13333333,0,5760.6667)" />
      <path
         id="path12"
         d="m 15999.1,17826.9 c -124.7,442.1 -320.7,636.7 -623.5,636.7 -320.6,0 -516.6,-194.6 -641.3,-619 -124.7,-389.1 -160.3,-725.1 -160.3,-1290.9 0,-548.3 53.4,-866.6 160.3,-1273.3 124.7,-424.4 320.7,-619 641.3,-619 302.8,0 498.8,194.6 623.5,619 124.7,406.7 160.3,707.4 160.3,1290.9 0,565.9 -53.5,884.2 -160.3,1255.6 z m 570,-3006.3 c -249.4,-601.3 -623.5,-866.5 -1193.5,-866.5 -605.7,0 -961.9,265.2 -1211.3,866.5 -213.8,495.2 -285,972.6 -285,1750.7 0,760.5 71.2,1273.3 285,1750.8 267.2,601.3 623.5,848.8 1211.3,848.8 587.8,0 944.1,-247.5 1193.5,-866.5 213.8,-495.2 285,-972.6 285,-1733.1 0,-778.1 -71.2,-1273.2 -285,-1750.7"
         style="fill:#231f20;fill-opacity:1;fill-rule:nonzero;stroke:none"
         transform="matrix(0.13333333,0,0,-0.13333333,0,5760.6667)" />
      <path
         id="path13"
         d="m 23569.5,9222.3 c -123.5,353.7 -335.3,512.8 -652.9,512.8 h -600 V 6109.9 h 600 c 423.5,0 652.9,336 723.5,725 35.3,318.3 70.6,672 70.6,1061.1 0,565.9 -52.9,1114.1 -141.2,1326.3 z m 123.6,-3589.9 c -176.5,-159.2 -423.6,-229.9 -705.9,-229.9 H 21593 v 5040 h 1288.3 c 423.5,0 635.3,-53 811.8,-194.5 300,-212.2 511.8,-601.3 600,-1114.1 70.6,-371.4 123.5,-813.5 123.5,-1202.6 0,-1167.1 -229.4,-1909.9 -723.5,-2298.9"
         style="fill:#231f20;fill-opacity:1;fill-rule:nonzero;stroke:none"
         transform="matrix(0.13333333,0,0,-0.13333333,0,5760.6667)" />
      <path
         id="path14"
         d="m 25424.6,5402.5 v 5040 h 2376.6 V 9735.1 H 26151.8 V 8461.9 h 1046.4 V 7772.2 H 26151.8 V 6109.9 h 1844.5 v -707.4 h -2571.7"
         style="fill:#231f20;fill-opacity:1;fill-rule:nonzero;stroke:none"
         transform="matrix(0.13333333,0,0,-0.13333333,0,5760.6667)" />
      <path
         id="path15"
         d="M 8668.81,5402.5 V 7683.8 H 7292.29 V 5402.5 h -723.58 v 5040 h 723.58 V 8391.1 h 1376.52 v 2051.4 h 723.55 v -5040 h -723.55"
         style="fill:#231f20;fill-opacity:1;fill-rule:nonzero;stroke:none"
         transform="matrix(0.13333333,0,0,-0.13333333,0,5760.6667)" />
      <path
         id="path16"
         d="m 18315.7,5402.5 v 5040 h 727.2 v -4368 h 1844.5 v -672 h -2571.7"
         style="fill:#231f20;fill-opacity:1;fill-rule:nonzero;stroke:none"
         transform="matrix(0.13333333,0,0,-0.13333333,0,5760.6667)" />
      <path
         id="path17"
         d="m 12520.2,9186.9 c -124.7,442.1 -320.7,636.7 -623.5,636.7 -320.6,0 -516.6,-194.6 -641.3,-619 -124.7,-389 -160.3,-725 -160.3,-1290.9 0,-548.3 53.4,-866.6 160.3,-1273.3 124.7,-424.4 320.7,-619 641.3,-619 302.8,0 498.8,194.6 623.5,619 124.7,406.7 160.3,707.4 160.3,1290.9 0,565.9 -53.5,884.3 -160.3,1255.6 z m 570,-3006.3 c -249.4,-601.2 -623.5,-866.5 -1193.5,-866.5 -605.7,0 -961.9,265.3 -1211.3,866.5 -213.8,495.2 -285,972.6 -285,1750.7 0,760.5 71.2,1273.3 285,1750.8 267.2,601.2 623.4,848.8 1211.3,848.8 587.9,0 944.1,-247.6 1193.5,-866.5 213.8,-495.2 285,-972.6 285,-1733.1 0,-778.1 -71.2,-1273.2 -285,-1750.7"
         style="fill:#231f20;fill-opacity:1;fill-rule:nonzero;stroke:none"
         transform="matrix(0.13333333,0,0,-0.13333333,0,5760.6667)" />
      <path
         id="path18"
         d="m 30317.9,9735.1 h -741.2 V 8461.9 h 741.2 c 423.5,0 652.9,229.9 652.9,636.6 0,389.1 -264.7,636.6 -652.9,636.6 z m 617.6,-4332.6 -670.6,2369.7 h -688.2 V 5402.5 h -723.6 v 5040 h 1500.1 c 794.1,0 1323.5,-530.5 1323.5,-1344 0,-601.3 -247,-1043.4 -723.5,-1220.2 l 723.5,-2475.8 h -741.2"
         style="fill:#231f20;fill-opacity:1;fill-rule:nonzero;stroke:none"
         transform="matrix(0.13333333,0,0,-0.13333333,0,5760.6667)" />
      <path
         id="path19"
         d="m 4323.38,7730 c -218.05,141.3 -429.78,283.1 -564.94,378.2 -406.33,286 -621.56,672 -621.56,1114.1 0,725 568.29,1308.6 1296.4,1308.6 710.35,0 1260.87,-548.2 1278.64,-1308.6 h -692.6 c -17.75,353.7 -266.38,583.6 -586.04,583.6 -337.42,0 -603.81,-247.6 -603.81,-583.6 0,-247.6 106.56,-389.1 479.5,-601.3 976.72,-565.9 1402.95,-1114.1 1402.95,-1839.1 0,-813.5 -621.57,-1467.8 -1402.95,-1467.8 -887.95,0 -1420.71,742.7 -1420.71,1573.9 h 710.34 c 0,-424.4 213.12,-866.6 710.37,-866.6 390.69,0 710.35,353.7 710.35,760.5 0,315.8 -130.51,581.8 -695.94,948.1"
         style="fill:#231f20;fill-opacity:1;fill-rule:nonzero;stroke:none"
         transform="matrix(0.13333333,0,0,-0.13333333,0,5760.6667)" />
      <path
         id="path20"
         d="m 17012.7,6021.4 c -247,-406.7 -723.5,-707.3 -1200,-707.3 -494.2,0 -988.3,282.9 -1235.4,707.3 -141.2,265.3 -194.1,477.5 -194.1,884.2 v 3536.9 h 723.6 V 6817.2 c 0,-477.5 282.3,-795.8 705.9,-795.8 388.2,0 670.6,318.3 670.6,795.8 v 3625.3 h 723.6 V 6905.6 c 0,-406.7 -53,-618.9 -194.2,-884.2"
         style="fill:#231f20;fill-opacity:1;fill-rule:nonzero;stroke:none"
         transform="matrix(0.13333333,0,0,-0.13333333,0,5760.6667)" />
      <path
         id="path21"
         d="m 15389.5,26724.6 -405.3,-1657.2 h 830.8 z m 1033.4,-4042.1 -405.2,1576.4 h -1236.1 l -385,-1576.4 h -830.7 l 1438.6,5760 h 810.5 l 1438.7,-5760 h -830.8"
         style="fill:#231f20;fill-opacity:1;fill-rule:nonzero;stroke:none"
         transform="matrix(0.13333333,0,0,-0.13333333,0,5760.6667)" />
      <path
         id="path22"
         d="m 11321.6,27634.1 h -847.1 v -1637 h 847.1 c 484,0 746.2,303.1 746.2,828.6 0,485 -302.5,808.4 -746.2,808.4 z m 40.4,-2425.3 h -887.5 v -2526.3 h -826.92 v 5760 H 11362 c 907.5,0 1512.6,-646.7 1512.6,-1616.8 0,-1051 -544.6,-1616.9 -1512.6,-1616.9"
         style="fill:#231f20;fill-opacity:1;fill-rule:nonzero;stroke:none"
         transform="matrix(0.13333333,0,0,-0.13333333,0,5760.6667)" />
      <path
         id="path23"
         d="m 19412.3,25342.6 c -249.3,161.4 -491.2,323.4 -645.7,432.1 -464.4,326.9 -710.4,768 -710.4,1273.3 0,828.6 649.5,1495.6 1481.6,1495.6 811.9,0 1441,-626.5 1461.4,-1495.6 h -791.6 c -20.3,404.2 -304.4,666.9 -669.8,666.9 -385.6,0 -690,-282.9 -690,-666.9 0,-282.9 121.8,-444.6 548,-687.2 1116.3,-646.7 1603.4,-1273.2 1603.4,-2101.9 0,-929.7 -710.4,-1677.4 -1603.4,-1677.4 -1014.8,0 -1623.7,848.8 -1623.7,1798.7 h 811.8 c 0,-485 243.6,-990.3 811.9,-990.3 446.5,0 811.8,404.2 811.8,869 0,361 -149.1,665 -795.3,1083.7"
         style="fill:#231f20;fill-opacity:1;fill-rule:nonzero;stroke:none"
         transform="matrix(0.13333333,0,0,-0.13333333,0,5760.6667)" />
      <path
         id="path24"
         d="m 23330.5,25342.6 c -249.2,161.4 -491.2,323.4 -645.7,432.1 -464.4,326.9 -710.3,768 -710.3,1273.3 0,828.6 649.5,1495.6 1481.6,1495.6 811.8,0 1441,-626.5 1461.3,-1495.6 h -791.5 c -20.3,404.2 -304.5,666.9 -669.8,666.9 -385.7,0 -690.1,-282.9 -690.1,-666.9 0,-282.9 121.8,-444.6 548,-687.2 1116.3,-646.7 1603.4,-1273.2 1603.4,-2101.9 0,-929.7 -710.4,-1677.4 -1603.4,-1677.4 -1014.8,0 -1623.7,848.8 -1623.7,1798.7 h 811.9 c 0,-485 243.5,-990.3 811.8,-990.3 446.5,0 811.9,404.2 811.9,869 0,361 -149.2,665 -795.4,1083.7"
         style="fill:#231f20;fill-opacity:1;fill-rule:nonzero;stroke:none"
         transform="matrix(0.13333333,0,0,-0.13333333,0,5760.6667)" />
    </g>
  </g>
</svg>
