<?xml version="1.0" standalone="no"?>
<svg width="1728px" height="2160px" viewBox="0 -1368 1728 2160 " xmlns="http://www.w3.org/2000/svg" xmlns:xlink="http://www.w3.org/1999/xlink">
<title>generated by pstoedit</title>
<!-- generated by pstoedit version:4.02 -->
<g xml:space='preserve'>
<clipPath id="clippath1"> 	<path d="
	M 0 -1368.5 
	L 0 792 
	L 1728.5 792 
	L 1728.5 -1368.5 
	Z 
	" style="clip-rule:nonzero"/>
</clipPath>
<g style="clip-path:url(#clippath1)"> 
<g fill="#ffffff" fill-rule="nonzero" stroke-width="0" stroke-linejoin="miter" stroke-linecap="butt" stroke-miterlimit="10" >
	<path d="
	M 1728.25 683.75 
	C 1728.25 743.398 1679.9 791.75 1620.25 791.75 
	L 108.25 791.75 
	C 48.6016 791.75 0.25 743.398 0.25 683.75 
	L 0.25 -1260.25 
	C 0.25 -1319.9 48.6016 -1368.25 108.25 -1368.25 
	L 1620.25 -1368.25 
	C 1679.9 -1368.25 1728.25 -1319.9 1728.25 -1260.25 
	Z 
	"/>
</g>
<g stroke="#7f7f7f" fill="none" stroke-width="0.5" stroke-linejoin="miter" stroke-linecap="butt" stroke-miterlimit="4" >
	<path d="
	M 1728.25 683.75 
	C 1728.25 743.398 1679.9 791.75 1620.25 791.75 
	L 108.25 791.75 
	C 48.6016 791.75 0.25 743.398 0.25 683.75 
	L 0.25 -1260.25 
	C 0.25 -1319.9 48.6016 -1368.25 108.25 -1368.25 
	L 1620.25 -1368.25 
	C 1679.9 -1368.25 1728.25 -1319.9 1728.25 -1260.25 
	Z 
	"/>
</g>
<g fill="#7f7f7f" fill-rule="nonzero" stroke-width="0" stroke-linejoin="miter" stroke-linecap="butt" stroke-miterlimit="4" >
	<path d="
	M 108.25 764.75 
	C 63.5859 764.75 27.25 728.41 27.25 683.75 
	L 27.25 -1260.25 
	C 27.25 -1304.91 63.5859 -1341.25 108.25 -1341.25 
	L 1620.25 -1341.25 
	C 1664.91 -1341.25 1701.25 -1304.91 1701.25 -1260.25 
	L 1701.25 683.75 
	C 1701.25 728.41 1664.91 764.75 1620.25 764.75 
	Z 
	"/>
</g>
<g fill="#ffffff" fill-rule="nonzero" stroke-width="0" stroke-linejoin="miter" stroke-linecap="butt" stroke-miterlimit="4" >
	<path d="
	M 108.25 719.75 
	C 88.3984 719.75 72.25 703.602 72.25 683.75 
	L 72.25 -1260.25 
	C 72.25 -1280.1 88.3984 -1296.25 108.25 -1296.25 
	L 1620.25 -1296.25 
	C 1640.1 -1296.25 1656.25 -1280.1 1656.25 -1260.25 
	L 1656.25 683.75 
	C 1656.25 703.602 1640.1 719.75 1620.25 719.75 
	Z 
	"/>
</g>
<g fill="#7f7f7f" fill-rule="nonzero" stroke-width="0" stroke-linejoin="miter" stroke-linecap="butt" stroke-miterlimit="4" >
	<path d="
	M 1053.35 355.641 
	L 1033.09 438.512 
	L 1074.63 438.512 
	Z 
	M 1105.02 557.75 
	L 1084.76 478.93 
	L 1022.96 478.93 
	L 1003.71 557.75 
	L 962.172 557.75 
	L 1034.1 269.75 
	L 1074.63 269.75 
	L 1146.56 557.75 
	Z 
	"/>
</g>
<g fill="#7f7f7f" fill-rule="nonzero" stroke-width="0" stroke-linejoin="miter" stroke-linecap="butt" stroke-miterlimit="4" >
	<path d="
	M 501.398 341.5 
	C 494.273 316.23 483.074 305.121 465.77 305.121 
	C 447.449 305.121 436.25 316.23 429.125 340.488 
	C 422 362.719 419.965 381.922 419.965 414.25 
	C 419.965 445.578 423.02 463.77 429.125 487.012 
	C 436.25 511.27 447.449 522.379 465.77 522.379 
	C 483.074 522.379 494.273 511.27 501.398 487.012 
	C 508.523 463.77 510.559 446.59 510.559 413.238 
	C 510.559 380.91 507.504 362.719 501.398 341.5 
	Z 
	M 533.973 513.289 
	C 519.719 547.641 498.344 562.801 465.77 562.801 
	C 431.16 562.801 410.805 547.641 396.555 513.289 
	C 384.336 484.988 380.266 457.711 380.266 413.238 
	C 380.266 369.789 384.336 340.488 396.555 313.199 
	C 411.82 278.84 432.18 264.699 465.77 264.699 
	C 499.363 264.699 519.719 278.84 533.973 314.211 
	C 546.188 342.512 550.258 369.789 550.258 413.238 
	C 550.258 457.711 546.188 486 533.973 513.289 
	Z 
	"/>
</g>
<g fill="#7f7f7f" fill-rule="nonzero" stroke-width="0" stroke-linejoin="miter" stroke-linecap="butt" stroke-miterlimit="4" >
	<path d="
	M 849.961 310.172 
	L 807.605 310.172 
	L 807.605 392.02 
	L 849.961 392.02 
	C 874.16 392.02 887.27 376.871 887.27 350.59 
	C 887.27 326.34 872.145 310.172 849.961 310.172 
	Z 
	M 851.977 431.43 
	L 807.605 431.43 
	L 807.605 557.75 
	L 766.258 557.75 
	L 766.258 269.75 
	L 851.977 269.75 
	C 897.355 269.75 927.609 302.09 927.609 350.59 
	C 927.609 403.141 900.383 431.43 851.977 431.43 
	Z 
	"/>
</g>
<g fill="#7f7f7f" fill-rule="nonzero" stroke-width="0" stroke-linejoin="miter" stroke-linecap="butt" stroke-miterlimit="4" >
	<path d="
	M 1254.49 424.75 
	C 1242.03 416.672 1229.93 408.57 1222.21 403.141 
	C 1198.99 386.801 1186.69 364.738 1186.69 339.48 
	C 1186.69 298.039 1219.16 264.699 1260.77 264.699 
	C 1301.36 264.699 1332.82 296.02 1333.84 339.48 
	L 1294.26 339.48 
	C 1293.24 319.27 1279.04 306.129 1260.77 306.129 
	C 1241.49 306.129 1226.27 320.281 1226.27 339.48 
	C 1226.27 353.621 1232.36 361.711 1253.67 373.828 
	C 1309.48 406.172 1333.84 437.5 1333.84 478.93 
	C 1333.84 525.41 1298.32 562.801 1253.67 562.801 
	C 1202.93 562.801 1172.48 520.359 1172.48 472.871 
	L 1213.07 472.871 
	C 1213.07 497.121 1225.25 522.379 1253.67 522.379 
	C 1275.99 522.379 1294.26 502.172 1294.26 478.93 
	C 1294.26 460.879 1286.8 445.68 1254.49 424.75 
	Z 
	"/>
</g>
<g fill="#7f7f7f" fill-rule="nonzero" stroke-width="0" stroke-linejoin="miter" stroke-linecap="butt" stroke-miterlimit="4" >
	<path d="
	M 1450.4 424.75 
	C 1437.94 416.672 1425.84 408.57 1418.12 403.141 
	C 1394.9 386.801 1382.6 364.738 1382.6 339.48 
	C 1382.6 298.039 1415.07 264.699 1456.68 264.699 
	C 1497.27 264.699 1528.73 296.02 1529.75 339.48 
	L 1490.17 339.48 
	C 1489.16 319.27 1474.95 306.129 1456.68 306.129 
	C 1437.4 306.129 1422.18 320.281 1422.18 339.48 
	C 1422.18 353.621 1428.27 361.711 1449.58 373.828 
	C 1505.39 406.172 1529.75 437.5 1529.75 478.93 
	C 1529.75 525.41 1494.23 562.801 1449.58 562.801 
	C 1398.84 562.801 1368.39 520.359 1368.39 472.871 
	L 1408.99 472.871 
	C 1408.99 497.121 1421.16 522.379 1449.58 522.379 
	C 1471.9 522.379 1490.17 502.172 1490.17 478.93 
	C 1490.17 460.879 1482.71 445.68 1450.4 424.75 
	Z 
	"/>
</g>
<g fill="#7f7f7f" fill-rule="nonzero" stroke-width="0" stroke-linejoin="miter" stroke-linecap="butt" stroke-miterlimit="4" >
	<path d="
	M 293.008 308.148 
	L 293.008 557.75 
	L 251.453 557.75 
	L 251.453 308.148 
	L 198.754 308.148 
	L 198.754 269.75 
	L 345.707 269.75 
	L 345.707 308.148 
	Z 
	"/>
</g>
<g fill="#7f7f7f" fill-rule="nonzero" stroke-width="0" stroke-linejoin="miter" stroke-linecap="butt" stroke-miterlimit="4" >
	<path d="
	M 1297.27 -1083.73 
	C 1289.19 -1087.77 1284.13 -1088.78 1269.99 -1088.78 
	L 1210.36 -1088.78 
	L 1210.36 -1018.04 
	L 1269.99 -1018.04 
	C 1284.13 -1018.04 1289.19 -1019.05 1297.27 -1023.09 
	C 1307.38 -1028.14 1314.45 -1041.28 1314.45 -1053.41 
	C 1314.45 -1065.54 1307.38 -1077.66 1297.27 -1083.73 
	Z 
	M 1316.47 -981.66 
	C 1303.34 -975.6 1286.16 -971.55 1263.92 -971.55 
	L 1210.36 -971.55 
	L 1210.36 -846.25 
	L 1164.88 -846.25 
	L 1164.88 -1134.25 
	L 1263.92 -1134.25 
	C 1287.17 -1134.25 1302.33 -1132.23 1316.47 -1125.16 
	C 1341.74 -1113.03 1360.94 -1082.71 1360.94 -1053.41 
	C 1360.94 -1023.09 1341.74 -992.78 1316.47 -981.66 
	Z 
	"/>
</g>
<g fill="#7f7f7f" fill-rule="nonzero" stroke-width="0" stroke-linejoin="miter" stroke-linecap="butt" stroke-miterlimit="4" >
	<path d="
	M 534.59 -846.25 
	L 461.594 -982.67 
	L 431.184 -945.28 
	L 431.184 -846.25 
	L 385.563 -846.25 
	L 385.563 -1134.25 
	L 431.184 -1134.25 
	L 431.184 -1020.06 
	L 522.422 -1134.25 
	L 581.223 -1134.25 
	L 492.012 -1022.08 
	L 587.305 -846.25 
	Z 
	"/>
</g>
<g fill="#7f7f7f" fill-rule="nonzero" stroke-width="0" stroke-linejoin="miter" stroke-linecap="butt" stroke-miterlimit="4" >
	<path d="
	M 660.742 -846.25 
	L 660.742 -1134.25 
	L 830.289 -1134.25 
	L 830.289 -1088.78 
	L 706.156 -1088.78 
	L 706.156 -1018.04 
	L 789.922 -1018.04 
	L 789.922 -971.55 
	L 706.156 -971.55 
	L 706.156 -892.73 
	L 839.375 -892.73 
	L 839.375 -846.25 
	Z 
	"/>
</g>
<g fill="#7f7f7f" fill-rule="nonzero" stroke-width="0" stroke-linejoin="miter" stroke-linecap="butt" stroke-miterlimit="4" >
	<path d="
	M 912.813 -846.25 
	L 912.813 -1134.25 
	L 1082.36 -1134.25 
	L 1082.36 -1088.78 
	L 958.227 -1088.78 
	L 958.227 -1018.04 
	L 1041.99 -1018.04 
	L 1041.99 -971.55 
	L 958.227 -971.55 
	L 958.227 -892.73 
	L 1091.44 -892.73 
	L 1091.44 -846.25 
	Z 
	"/>
</g>
<g fill="#7f7f7f" fill-rule="nonzero" stroke-width="0" stroke-linejoin="miter" stroke-linecap="butt" stroke-miterlimit="4" >
	<path d="
	M 563.145 -378.25 
	L 563.145 -666.25 
	L 609.227 -666.25 
	L 609.227 -378.25 
	Z 
	"/>
</g>
<g fill="#7f7f7f" fill-rule="nonzero" stroke-width="0" stroke-linejoin="miter" stroke-linecap="butt" stroke-miterlimit="4" >
	<path d="
	M 1367.86 -625.83 
	L 1367.86 -378.25 
	L 1322.19 -378.25 
	L 1322.19 -625.83 
	L 1256.22 -625.83 
	L 1256.22 -666.25 
	L 1434.85 -666.25 
	L 1434.85 -625.83 
	Z 
	"/>
</g>
<g fill="#7f7f7f" fill-rule="nonzero" stroke-width="0" stroke-linejoin="miter" stroke-linecap="butt" stroke-miterlimit="4" >
	<path d="
	M 419.973 -615.72 
	C 412.898 -619.77 408.855 -620.78 393.699 -620.78 
	L 339.125 -620.78 
	L 339.125 -550.04 
	L 393.699 -550.04 
	C 407.848 -550.04 412.898 -551.05 419.973 -555.09 
	C 431.094 -561.16 438.164 -573.28 438.164 -585.41 
	C 438.164 -597.54 431.094 -609.66 419.973 -615.72 
	Z 
	M 440.188 -378.25 
	L 393.699 -503.56 
	L 339.125 -503.56 
	L 339.125 -378.25 
	L 293.648 -378.25 
	L 293.648 -666.25 
	L 388.645 -666.25 
	C 410.879 -666.25 426.039 -664.23 440.188 -657.16 
	C 465.449 -645.03 483.641 -614.71 483.641 -585.41 
	C 483.641 -555.09 465.449 -524.78 439.176 -512.65 
	L 489.707 -378.25 
	Z 
	"/>
</g>
<g fill="#7f7f7f" fill-rule="nonzero" stroke-width="0" stroke-linejoin="miter" stroke-linecap="butt" stroke-miterlimit="4" >
	<path d="
	M 1145.94 -378.25 
	L 1145.94 -503.56 
	L 1040.84 -503.56 
	L 1040.84 -378.25 
	L 995.359 -378.25 
	L 995.359 -666.25 
	L 1040.84 -666.25 
	L 1040.84 -550.04 
	L 1145.94 -550.04 
	L 1145.94 -666.25 
	L 1191.42 -666.25 
	L 1191.42 -378.25 
	Z 
	"/>
</g>
<g fill="#7f7f7f" fill-rule="nonzero" stroke-width="0" stroke-linejoin="miter" stroke-linecap="butt" stroke-miterlimit="4" >
	<path d="
	M 809.367 -373.2 
	C 765.91 -373.2 740.645 -389.37 723.469 -425.75 
	C 711.34 -451.01 704.266 -486.38 704.266 -521.75 
	C 704.266 -568.23 717.402 -613.7 736.605 -638.96 
	C 753.785 -660.19 778.039 -671.3 810.379 -671.3 
	C 854.848 -671.3 881.117 -653.11 900.32 -607.64 
	L 856.863 -590.46 
	C 844.738 -615.72 832.609 -624.82 810.379 -624.82 
	C 787.137 -624.82 771.977 -614.71 761.867 -589.45 
	C 754.797 -572.27 750.754 -546 750.754 -521.75 
	C 750.754 -491.43 755.805 -461.11 764.898 -442.93 
	C 773.996 -426.75 787.137 -419.68 804.313 -419.68 
	C 833.621 -419.68 854.848 -437.87 854.848 -464.14 
	L 854.848 -476.27 
	L 802.293 -476.27 
	L 802.293 -521.75 
	L 900.32 -521.75 
	L 900.32 -464.14 
	C 900.32 -411.6 861.918 -373.2 809.367 -373.2 
	Z 
	"/>
</g>
<g fill="#7f7f7f" fill-rule="nonzero" stroke-width="0" stroke-linejoin="miter" stroke-linecap="butt" stroke-miterlimit="4" >
	<path d="
	M 793.844 -121.449 
	C 789.785 -149.738 778.621 -162.879 759.34 -162.879 
	C 725.852 -162.879 713.676 -136.609 713.676 -61.828 
	C 713.676 21.039 727.883 54.379 763.398 54.379 
	C 787.754 54.379 793.844 34.172 793.844 12.949 
	L 835.449 12.949 
	C 834.434 60.449 803.992 94.801 763.398 94.801 
	C 701.496 94.801 674.098 45.289 674.098 -60.82 
	C 674.098 -153.789 703.527 -203.301 760.355 -203.301 
	C 783.695 -203.301 803.992 -193.199 817.184 -174 
	C 828.348 -159.852 832.406 -147.719 835.449 -121.449 
	Z 
	"/>
</g>
<g fill="#7f7f7f" fill-rule="nonzero" stroke-width="0" stroke-linejoin="miter" stroke-linecap="butt" stroke-miterlimit="4" >
	<path d="
	M 296.672 89.75 
	L 296.672 -198.25 
	L 432.477 -198.25 
	L 432.477 -157.828 
	L 338.223 -157.828 
	L 338.223 -85.07 
	L 398.02 -85.07 
	L 398.02 -45.66 
	L 338.223 -45.66 
	L 338.223 49.328 
	L 443.625 49.328 
	L 443.625 89.75 
	Z 
	"/>
</g>
<g fill="#7f7f7f" fill-rule="nonzero" stroke-width="0" stroke-linejoin="miter" stroke-linecap="butt" stroke-miterlimit="4" >
	<path d="
	M 893.051 89.75 
	L 893.051 -198.25 
	L 1028.85 -198.25 
	L 1028.85 -157.828 
	L 934.602 -157.828 
	L 934.602 -85.07 
	L 994.395 -85.07 
	L 994.395 -45.66 
	L 934.602 -45.66 
	L 934.602 49.328 
	L 1040 49.328 
	L 1040 89.75 
	Z 
	"/>
</g>
<g fill="#7f7f7f" fill-rule="nonzero" stroke-width="0" stroke-linejoin="miter" stroke-linecap="butt" stroke-miterlimit="4" >
	<path d="
	M 1172.66 -157.828 
	L 1130.31 -157.828 
	L 1130.31 -75.969 
	L 1172.66 -75.969 
	C 1196.87 -75.969 1209.98 -91.129 1209.98 -117.41 
	C 1209.98 -141.66 1194.85 -157.828 1172.66 -157.828 
	Z 
	M 1174.68 -36.559 
	L 1130.31 -36.559 
	L 1130.31 89.75 
	L 1088.96 89.75 
	L 1088.96 -198.25 
	L 1174.68 -198.25 
	C 1220.06 -198.25 1250.31 -165.91 1250.31 -117.41 
	C 1250.31 -64.859 1223.08 -36.559 1174.68 -36.559 
	Z 
	"/>
</g>
<g fill="#7f7f7f" fill-rule="nonzero" stroke-width="0" stroke-linejoin="miter" stroke-linecap="butt" stroke-miterlimit="4" >
	<path d="
	M 1379.13 -159.852 
	L 1379.13 89.75 
	L 1337.58 89.75 
	L 1337.58 -159.852 
	L 1284.87 -159.852 
	L 1284.87 -198.25 
	L 1431.83 -198.25 
	L 1431.83 -159.852 
	Z 
	"/>
</g>
<g fill="#7f7f7f" fill-rule="nonzero" stroke-width="0" stroke-linejoin="miter" stroke-linecap="butt" stroke-miterlimit="4" >
	<path d="
	M 594.75 89.75 
	L 554.031 -8.27002 
	L 513.316 89.75 
	L 469.547 89.75 
	L 532.656 -59.809 
	L 473.617 -198.25 
	L 517.391 -198.25 
	L 554.031 -111.34 
	L 590.68 -198.25 
	L 634.449 -198.25 
	L 576.43 -59.809 
	L 639.539 89.75 
	Z 
	"/>
</g>
</g >
</g>
</svg>
