<?xml version="1.0" encoding="UTF-8" standalone="no"?>
<!-- Created with Inkscape (http://www.inkscape.org/) -->

<svg
   version="1.1"
   id="svg1"
   width="3456.6667"
   height="4608.6665"
   viewBox="0 0 3456.6667 4608.6665"
   sodipodi:docname="tmpinkislaq.pdf"
   xmlns:inkscape="http://www.inkscape.org/namespaces/inkscape"
   xmlns:sodipodi="http://sodipodi.sourceforge.net/DTD/sodipodi-0.dtd"
   xmlns="http://www.w3.org/2000/svg"
   xmlns:svg="http://www.w3.org/2000/svg">
  <defs
     id="defs1" />
  <sodipodi:namedview
     id="namedview1"
     pagecolor="#ffffff"
     bordercolor="#000000"
     borderopacity="0.25"
     inkscape:showpageshadow="2"
     inkscape:pageopacity="0.0"
     inkscape:pagecheckerboard="0"
     inkscape:deskcolor="#d1d1d1">
    <inkscape:page
       x="0"
       y="0"
       inkscape:label="1"
       id="page1"
       width="3456.6667"
       height="4608.6665"
       margin="0"
       bleed="0" />
  </sodipodi:namedview>
  <g
     id="g1"
     inkscape:groupmode="layer"
     inkscape:label="1">
    <g
       id="group-R5">
      <path
         id="path2"
         d="M 1622.5,1.20313 C 1191.24,1.20313 784.602,170.398 477.488,477.5 170.387,784.602 1.25,1191.2 1.25,1622.5 v 31320 c 0,431.3 169.137,837.9 476.238,1145 307.114,307.1 713.752,476.3 1145.012,476.3 h 22680 c 431.3,0 837.9,-169.2 1145,-476.3 307.1,-307.1 476.3,-713.7 476.3,-1145 v -31320 c 0,-431.3 -169.2,-837.898 -476.3,-1145 C 25140.4,170.398 24733.8,1.20313 24302.5,1.20313 h -22680"
         style="fill:#ffffff;fill-opacity:1;fill-rule:nonzero;stroke:none"
         transform="matrix(0.13333333,0,0,-0.13333333,0,4608.6667)" />
      <path
         id="path3"
         d="m 24302.5,34565 h -22680 c -218.07,0 -430.03,-43.1 -629.992,-128 -193.035,-82 -366.61,-199.3 -515.899,-348.6 C 327.313,33939.1 210.035,33765.5 128.027,33572.5 43.0742,33372.5 0,33160.6 0,32942.5 v -31320 c 0,-218.1 43.0742,-430 128.027,-630 C 210.035,799.5 327.313,625.902 476.609,476.598 625.898,327.301 799.473,210 992.508,128 1192.47,43.1016 1404.43,0 1622.5,0 h 22680 c 218.1,0 430,43.1016 630,128 193,82 366.6,199.301 515.9,348.598 149.3,149.304 266.6,322.902 348.6,515.902 84.9,200 128,411.9 128,630 v 31320 c 0,218.1 -43.1,430 -128,630 -82,193 -199.3,366.6 -348.6,515.9 -149.3,149.3 -322.9,266.6 -515.9,348.6 -200,84.9 -411.9,128 -630,128 z m 0,-2.5 c 891,0 1620,-729 1620,-1620 v -31320 c 0,-891 -729,-1620 -1620,-1620 h -22680 c -891,0 -1620,729 -1620,1620 v 31320 c 0,891 729,1620 1620,1620 h 22680"
         style="fill:#231f20;fill-opacity:1;fill-rule:nonzero;stroke:none"
         transform="matrix(0.13333333,0,0,-0.13333333,0,4608.6667)" />
      <path
         id="path4"
         d="m 1622.5,452.5 c -310.72,0 -604.04,122.199 -825.922,344.098 C 574.695,1018.5 452.5,1311.8 452.5,1622.5 v 31320 c 0,310.7 122.195,604.1 344.078,825.9 221.872,221.9 515.192,344.1 825.922,344.1 h 22680 c 310.7,0 604,-122.2 825.9,-344.1 221.9,-221.9 344.1,-515.2 344.1,-825.9 v -31320 c 0,-310.7 -122.2,-604 -344.1,-825.902 C 24906.5,574.699 24613.2,452.5 24302.5,452.5 h -22680"
         style="fill:#231f20;fill-opacity:1;fill-rule:nonzero;stroke:none"
         transform="matrix(0.13333333,0,0,-0.13333333,0,4608.6667)" />
      <path
         id="path5"
         d="m 1622.5,1082.5 c -144.51,0 -276.07,55.2 -380.45,159.5 -104.37,104.4 -159.55,236 -159.55,380.5 v 31320 c 0,144.5 55.17,276.1 159.55,380.4 104.38,104.4 235.93,159.6 380.45,159.6 h 22680 c 144.5,0 276.1,-55.2 380.5,-159.6 104.3,-104.3 159.5,-235.9 159.5,-380.4 v -31320 c 0,-144.5 -55.2,-276.1 -159.5,-380.5 -104.4,-104.3 -236,-159.5 -380.5,-159.5 h -22680"
         style="fill:#ffffff;fill-opacity:1;fill-rule:nonzero;stroke:none"
         transform="matrix(0.13333333,0,0,-0.13333333,0,4608.6667)" />
      <path
         id="path6"
         d="m 10319.3,28613.1 h -1031 v -3920.3 h 966.9 c 838.1,0 1113.1,1015.1 1113.1,2099.5 0,515.5 -146.9,1820.8 -1049,1820.8 z M 8379.7,23762.5 v 5760 h 2077.8 c 1453.6,0 1843.1,-1914.5 1843.1,-2750.4 0,-2160.7 -1110.9,-3009.6 -1839.5,-3009.6 H 8379.7"
         style="fill:#231f20;fill-opacity:1;fill-rule:nonzero;stroke:none"
         transform="matrix(0.13333333,0,0,-0.13333333,0,4608.6667)" />
      <path
         id="path7"
         d="m 7069.98,18302.7 v -3900.2 h -908.6 v 5760 h 908.6 L 9172.3,16484 v 3678.5 h 910 v -5760 h -808.49 l -2203.83,3900.2"
         style="fill:#231f20;fill-opacity:1;fill-rule:nonzero;stroke:none"
         transform="matrix(0.13333333,0,0,-0.13333333,0,4608.6667)" />
      <path
         id="path8"
         d="m 18423.8,14402.5 h -913.7 v 4951.4 h -1319 v 808.6 h 3572.5 v -808.6 h -1339.8 v -4951.4"
         style="fill:#231f20;fill-opacity:1;fill-rule:nonzero;stroke:none"
         transform="matrix(0.13333333,0,0,-0.13333333,0,4608.6667)" />
      <path
         id="path9"
         d="m 15509.1,24590.5 c 620.6,0 1124.6,588.3 1124.6,2052 0,1463.8 -504,2052 -1124.6,2052 -620.7,0 -1124.7,-587.5 -1124.7,-2052 0,-1463.7 504,-2052 1124.7,-2052 z m 2036.1,2052 c 0,-206.6 43.9,-2980.8 -2046.2,-2980.8 -2090.2,0 -2046.2,2774.2 -2046.2,2980.8 0,206.6 -44,2980.1 2046.2,2980.1 2090.1,0 2046.2,-2773.5 2046.2,-2980.1"
         style="fill:#231f20;fill-opacity:1;fill-rule:nonzero;stroke:none"
         transform="matrix(0.13333333,0,0,-0.13333333,0,4608.6667)" />
      <path
         id="path10"
         d="m 13406,15230.5 c 620.7,0 1124.6,588.3 1124.6,2052 0,1463.8 -503.9,2052 -1124.6,2052 -620.6,0 -1124.6,-587.5 -1124.6,-2052 0,-1463.7 504,-2052 1124.6,-2052 z m 2036.2,2052 c 0,-206.6 43.9,-2980.8 -2046.3,-2980.8 -2090.1,0 -2046.2,2774.2 -2046.2,2980.8 0,206.6 -43.9,2980.1 2046.2,2980.1 2090.2,0 2046.3,-2773.5 2046.3,-2980.1"
         style="fill:#231f20;fill-opacity:1;fill-rule:nonzero;stroke:none"
         transform="matrix(0.13333333,0,0,-0.13333333,0,4608.6667)" />
      <path
         id="path11"
         d="m 4848.78,8478.4 h 1282.27 c 722.84,0 799.88,521.2 799.88,707 0,270 -203.03,707.7 -768.93,707.7 H 4848.78 Z M 5921.53,7548.8 H 4848.78 V 5042.5 h -908.6 v 5760 h 2177.19 c 1354.98,0 1743.77,-1101.6 1743.77,-1617.1 0,-357.8 -196.56,-1636.6 -1939.61,-1636.6"
         style="fill:#231f20;fill-opacity:1;fill-rule:nonzero;stroke:none"
         transform="matrix(0.13333333,0,0,-0.13333333,0,4608.6667)" />
      <path
         id="path12"
         d="m 10077.4,7589.1 h 1158.4 l -569.5,1616.4 z m 1483.1,-929.5 H 9751.98 L 9182.49,5042.5 h -975.57 l 1992.18,5760 h 915.1 l 1991.4,-5760 H 12130 l -569.5,1617.1"
         style="fill:#231f20;fill-opacity:1;fill-rule:nonzero;stroke:none"
         transform="matrix(0.13333333,0,0,-0.13333333,0,4608.6667)" />
      <path
         id="path13"
         d="m 13566.7,6394 868.3,322.5 c 242.6,-545 688.3,-847.4 1233.3,-847.4 524.8,0 890.6,362.9 890.6,847.4 0,769.7 -890.6,887.8 -1637.2,1190.9 -343.5,141.1 -1110.2,484.6 -1110.2,1432.8 0,1131.1 766.7,1554.5 1796.3,1554.5 807.1,0 1352.1,-464.4 1635,-1170.8 L 16435,9482 c -133.1,259.9 -412.5,504.7 -896.3,504.7 -696.9,0 -841.7,-380.1 -841.7,-581.7 0,-537.9 464.4,-644.4 1218.2,-881.3 767.5,-241.2 1572.4,-594.7 1572.4,-1827.3 -0.7,-1242.8 -1009.4,-1755.4 -1819.3,-1755.4 -989.3,0 -1717.9,584.6 -2101.6,1453"
         style="fill:#231f20;fill-opacity:1;fill-rule:nonzero;stroke:none"
         transform="matrix(0.13333333,0,0,-0.13333333,0,4608.6667)" />
      <path
         id="path14"
         d="m 18063.9,6394 868.3,322.5 c 242.6,-545 688.2,-847.4 1233.3,-847.4 524.8,0 890.6,362.9 890.6,847.4 0,769.7 -890.6,887.8 -1637.2,1190.9 -343.5,141.1 -1110.2,484.6 -1110.2,1432.8 0,1131.1 766.7,1554.5 1796.3,1554.5 807.1,0 1352.1,-464.4 1635,-1170.8 L 20932.2,9482 c -133.2,259.9 -412.5,504.7 -896.3,504.7 -697,0 -841.7,-380.1 -841.7,-581.7 0,-537.9 464.4,-644.4 1218.2,-881.3 767.5,-241.2 1572.4,-594.7 1572.4,-1827.3 -0.7,-1242.8 -1009.4,-1755.4 -1819.3,-1755.4 -989.3,0 -1717.9,584.6 -2101.6,1453"
         style="fill:#231f20;fill-opacity:1;fill-rule:nonzero;stroke:none"
         transform="matrix(0.13333333,0,0,-0.13333333,0,4608.6667)" />
    </g>
  </g>
</svg>
