<?xml version="1.0" encoding="UTF-8" standalone="no"?>
<!-- Created with Inkscape (http://www.inkscape.org/) -->

<svg
   version="1.1"
   id="svg1"
   width="4032.6667"
   height="2304.6667"
   viewBox="0 0 4032.6667 2304.6667"
   sodipodi:docname="tmpoovzcrax.pdf"
   xmlns:inkscape="http://www.inkscape.org/namespaces/inkscape"
   xmlns:sodipodi="http://sodipodi.sourceforge.net/DTD/sodipodi-0.dtd"
   xmlns="http://www.w3.org/2000/svg"
   xmlns:svg="http://www.w3.org/2000/svg">
  <defs
     id="defs1" />
  <sodipodi:namedview
     id="namedview1"
     pagecolor="#ffffff"
     bordercolor="#000000"
     borderopacity="0.25"
     inkscape:showpageshadow="2"
     inkscape:pageopacity="0.0"
     inkscape:pagecheckerboard="0"
     inkscape:deskcolor="#d1d1d1">
    <inkscape:page
       x="0"
       y="0"
       inkscape:label="1"
       id="page1"
       width="4032.6667"
       height="2304.6667"
       margin="0"
       bleed="0" />
  </sodipodi:namedview>
  <g
     id="g1"
     inkscape:groupmode="layer"
     inkscape:label="1">
    <g
       id="group-R5">
      <path
         id="path2"
         d="M 30242.5,1082.5 C 30242.5,486 29759,2.5 29162.5,2.5 H 1082.5 C 486.031,2.5 2.5,486 2.5,1082.5 v 15120 c 0,596.5 483.531,1080 1080,1080 h 28080 c 596.5,0 1080,-483.5 1080,-1080 v -15120"
         style="fill:#ffffff;fill-opacity:1;fill-rule:nonzero;stroke:none"
         transform="matrix(0.13333333,0,0,-0.13333333,0,2304.6667)" />
      <path
         id="path3"
         d="M 30242.5,1082.5 C 30242.5,486 29759,2.5 29162.5,2.5 H 1082.5 C 486.031,2.5 2.5,486 2.5,1082.5 v 15120 c 0,596.5 483.531,1080 1080,1080 h 28080 c 596.5,0 1080,-483.5 1080,-1080 z"
         style="fill:none;stroke:#231f20;stroke-width:5;stroke-linecap:butt;stroke-linejoin:miter;stroke-miterlimit:4;stroke-dasharray:none;stroke-opacity:1"
         transform="matrix(0.13333333,0,0,-0.13333333,0,2304.6667)" />
      <path
         id="path4"
         d="m 1082.5,272.5 c -446.637,0 -810,363.402 -810,810 v 15120 c 0,446.6 363.363,810 810,810 h 28080 c 446.6,0 810,-363.4 810,-810 v -15120 c 0,-446.598 -363.4,-810 -810,-810 h -28080"
         style="fill:#231f20;fill-opacity:1;fill-rule:nonzero;stroke:none"
         transform="matrix(0.13333333,0,0,-0.13333333,0,2304.6667)" />
      <path
         id="path5"
         d="m 1082.5,722.5 c -198.508,0 -360,161.5 -360,360 v 15120 c 0,198.5 161.492,360 360,360 h 28080 c 198.5,0 360,-161.5 360,-360 v -15120 c 0,-198.5 -161.5,-360 -360,-360 h -28080"
         style="fill:#ffffff;fill-opacity:1;fill-rule:nonzero;stroke:none"
         transform="matrix(0.13333333,0,0,-0.13333333,0,2304.6667)" />
      <path
         id="path6"
         d="m 21419,14174.5 c -40.6,282.9 -152.2,414.3 -345.1,414.3 -334.8,0 -456.6,-262.7 -456.6,-1010.5 0,-828.6 142.1,-1162.1 497.3,-1162.1 243.5,0 304.4,202.1 304.4,414.3 h 416 c -10.1,-474.9 -314.5,-818.5 -720.4,-818.5 -619.1,0 -893.1,495.1 -893.1,1556.2 0,929.7 294.3,1424.8 862.6,1424.8 233.4,0 436.4,-101 568.3,-293 111.6,-141.5 152.2,-262.8 182.6,-525.5 h -416"
         style="fill:#231f20;fill-opacity:1;fill-rule:nonzero;stroke:none"
         transform="matrix(0.13333333,0,0,-0.13333333,0,2304.6667)" />
      <path
         id="path7"
         d="m 15036.1,12062.5 v 2880 h 1358 v -404.2 h -942.5 v -727.6 h 598 v -394.1 h -598 v -949.9 h 1054 v -404.2 h -1469.5"
         style="fill:#231f20;fill-opacity:1;fill-rule:nonzero;stroke:none"
         transform="matrix(0.13333333,0,0,-0.13333333,0,2304.6667)" />
      <path
         id="path8"
         d="m 24283.8,12062.5 v 2880 h 1358 v -404.2 h -942.5 v -727.6 h 598 v -394.1 h -598 v -949.9 h 1054 v -404.2 h -1469.5"
         style="fill:#231f20;fill-opacity:1;fill-rule:nonzero;stroke:none"
         transform="matrix(0.13333333,0,0,-0.13333333,0,2304.6667)" />
      <path
         id="path9"
         d="m 18195.3,12062.5 v 1303.6 h -786.6 v -1303.6 h -413.5 v 2880 h 413.5 v -1172.2 h 786.6 v 1172.2 h 413.5 v -2880 h -413.5"
         style="fill:#231f20;fill-opacity:1;fill-rule:nonzero;stroke:none"
         transform="matrix(0.13333333,0,0,-0.13333333,0,2304.6667)" />
      <path
         id="path10"
         d="m 19242.3,12062.5 v 2880 h 403.2 v -2880 h -403.2"
         style="fill:#231f20;fill-opacity:1;fill-rule:nonzero;stroke:none"
         transform="matrix(0.13333333,0,0,-0.13333333,0,2304.6667)" />
      <path
         id="path11"
         d="m 22411.1,12062.5 v 2880 h 415.5 v -2496 h 1054 v -384 h -1469.5"
         style="fill:#231f20;fill-opacity:1;fill-rule:nonzero;stroke:none"
         transform="matrix(0.13333333,0,0,-0.13333333,0,2304.6667)" />
      <path
         id="path12"
         d="m 26919,13392.5 c -124.6,80.8 -245.6,161.8 -322.9,216.1 -232.2,163.4 -355.1,384 -355.1,636.6 0,414.4 324.7,747.8 740.8,747.8 405.9,0 720.5,-313.2 730.6,-747.8 h -395.7 c -10.2,202.1 -152.3,333.5 -334.9,333.5 -192.9,0 -345.1,-141.5 -345.1,-333.5 0,-141.4 60.9,-222.3 274,-343.5 558.2,-323.4 801.7,-636.7 801.7,-1051 0,-464.8 -355.2,-838.7 -801.7,-838.7 -507.4,0 -811.8,424.4 -811.8,899.3 h 405.9 c 0,-242.5 121.8,-495.1 405.9,-495.1 223.3,0 406,202.1 406,434.5 0,180.5 -74.6,332.5 -397.7,541.8"
         style="fill:#231f20;fill-opacity:1;fill-rule:nonzero;stroke:none"
         transform="matrix(0.13333333,0,0,-0.13333333,0,2304.6667)" />
      <path
         id="path13"
         d="m 13892,12062.5 h -314.6 l -730.8,2880 h 416.1 l 477.1,-1869.5 477,1869.5 h 416.1 l -740.9,-2880"
         style="fill:#231f20;fill-opacity:1;fill-rule:nonzero;stroke:none"
         transform="matrix(0.13333333,0,0,-0.13333333,0,2304.6667)" />
      <path
         id="path14"
         d="m 4635.7,12062.5 v 2880 h 415.53 v -2496 h 1053.99 v -384 H 4635.7"
         style="fill:#231f20;fill-opacity:1;fill-rule:nonzero;stroke:none"
         transform="matrix(0.13333333,0,0,-0.13333333,0,2304.6667)" />
      <path
         id="path15"
         d="m 7662.16,14225 c -71.25,252.7 -183.23,363.8 -356.28,363.8 -183.22,0 -295.19,-111.1 -366.44,-353.7 -71.26,-222.3 -91.61,-414.3 -91.61,-737.6 0,-313.3 30.53,-495.2 91.61,-727.6 71.25,-242.6 183.22,-353.7 366.44,-353.7 173.05,0 285.03,111.1 356.28,353.7 71.26,232.4 91.61,404.2 91.61,737.6 0,323.4 -30.55,505.3 -91.61,717.5 z m 325.72,-1717.9 c -142.5,-343.5 -356.26,-495.1 -682,-495.1 -346.09,0 -549.66,151.6 -692.18,495.1 -122.15,283 -162.86,555.8 -162.86,1000.4 0,434.6 40.71,727.6 162.86,1000.5 152.7,343.6 356.28,485 692.18,485 335.92,0 539.5,-141.4 682,-495.1 122.17,-283 162.88,-555.8 162.88,-990.4 0,-444.6 -40.71,-727.5 -162.88,-1000.4"
         style="fill:#231f20;fill-opacity:1;fill-rule:nonzero;stroke:none"
         transform="matrix(0.13333333,0,0,-0.13333333,0,2304.6667)" />
      <path
         id="path16"
         d="m 3352.66,13392.5 c -124.61,80.8 -245.58,161.8 -322.83,216.1 -232.18,163.4 -355.17,384 -355.17,636.6 0,414.4 324.73,747.8 740.8,747.8 405.92,0 720.5,-313.2 730.65,-747.8 h -395.77 c -10.13,202.1 -152.22,333.5 -334.88,333.5 -192.81,0 -345.04,-141.5 -345.04,-333.5 0,-141.4 60.9,-222.3 274,-343.5 558.14,-323.4 801.69,-636.7 801.69,-1051 0,-464.8 -355.18,-838.7 -801.69,-838.7 -507.4,0 -811.84,424.4 -811.84,899.3 h 405.93 c 0,-242.5 121.77,-495.1 405.91,-495.1 223.26,0 405.92,202.1 405.92,434.5 0,180.5 -74.58,332.5 -397.68,541.8"
         style="fill:#231f20;fill-opacity:1;fill-rule:nonzero;stroke:none"
         transform="matrix(0.13333333,0,0,-0.13333333,0,2304.6667)" />
      <path
         id="path17"
         d="m 10220.1,12062.5 h -354.85 l -273.79,1505.7 -273.78,-1505.7 h -365.03 l -456.3,2880 h 405.59 l 243.36,-1536 283.92,1536 h 324.48 l 273.8,-1536 253.5,1536 h 405.6 l -466.5,-2880"
         style="fill:#231f20;fill-opacity:1;fill-rule:nonzero;stroke:none"
         transform="matrix(0.13333333,0,0,-0.13333333,0,2304.6667)" />
      <path
         id="path18"
         d="m 21921.5,7202.5 v 2880 h 1358 V 9678.3 H 22337 v -727.6 h 598 v -394.08 h -598 v -949.9 h 1054 V 7202.5 h -1469.5"
         style="fill:#231f20;fill-opacity:1;fill-rule:nonzero;stroke:none"
         transform="matrix(0.13333333,0,0,-0.13333333,0,2304.6667)" />
      <path
         id="path19"
         d="M 8341.43,7202.5 V 8819.35 L 7805.14,7202.5 7268.87,8819.35 V 7202.5 h -414.85 v 2880 h 414.85 l 536.27,-1616.86 536.29,1616.86 h 414.84 v -2880 h -414.84"
         style="fill:#231f20;fill-opacity:1;fill-rule:nonzero;stroke:none"
         transform="matrix(0.13333333,0,0,-0.13333333,0,2304.6667)" />
      <path
         id="path20"
         d="m 12313.1,8532.52 c -124.6,80.74 -245.6,161.75 -322.9,216.09 -232.1,163.42 -355.1,383.99 -355.1,636.62 0,414.32 324.7,747.87 740.8,747.87 405.9,0 720.5,-313.33 730.6,-747.87 h -395.8 c -10.1,202.11 -152.2,333.5 -334.8,333.5 -192.8,0 -345.1,-141.49 -345.1,-333.5 0,-141.46 60.9,-222.29 274,-343.57 558.2,-323.38 801.7,-636.64 801.7,-1050.96 0,-464.84 -355.2,-838.7 -801.7,-838.7 -507.4,0 -811.8,424.41 -811.8,899.35 h 405.9 c 0,-242.52 121.8,-495.18 405.9,-495.18 223.3,0 405.9,202.11 405.9,434.53 0,180.47 -74.5,332.48 -397.6,541.82"
         style="fill:#231f20;fill-opacity:1;fill-rule:nonzero;stroke:none"
         transform="matrix(0.13333333,0,0,-0.13333333,0,2304.6667)" />
      <path
         id="path21"
         d="m 20638.4,8532.52 c -124.6,80.74 -245.6,161.75 -322.8,216.09 -232.2,163.42 -355.2,383.99 -355.2,636.62 0,414.32 324.8,747.87 740.8,747.87 405.9,0 720.5,-313.33 730.7,-747.87 h -395.8 c -10.1,202.11 -152.2,333.5 -334.9,333.5 -192.8,0 -345,-141.49 -345,-333.5 0,-141.46 60.9,-222.29 274,-343.57 558.1,-323.38 801.7,-636.64 801.7,-1050.96 0,-464.84 -355.2,-838.7 -801.7,-838.7 -507.4,0 -811.8,424.41 -811.8,899.35 h 405.9 c 0,-242.52 121.8,-495.18 405.9,-495.18 223.3,0 405.9,202.11 405.9,434.53 0,180.47 -74.6,332.48 -397.7,541.82"
         style="fill:#231f20;fill-opacity:1;fill-rule:nonzero;stroke:none"
         transform="matrix(0.13333333,0,0,-0.13333333,0,2304.6667)" />
      <path
         id="path22"
         d="M 14308.2,9698.52 V 7202.5 h -415.5 v 2496.02 h -527 v 383.98 h 1469.5 v -383.98 h -527"
         style="fill:#231f20;fill-opacity:1;fill-rule:nonzero;stroke:none"
         transform="matrix(0.13333333,0,0,-0.13333333,0,2304.6667)" />
      <path
         id="path23"
         d="M 10892.5,7556.17 C 10751.3,7323.77 10479,7152 10206.7,7152 c -282.36,0 -564.73,161.67 -705.9,404.17 -80.69,151.58 -110.94,272.87 -110.94,505.29 v 2021.04 h 413.46 V 8010.92 c 0,-272.85 161.36,-454.75 403.38,-454.75 221.9,0 383.2,181.9 383.2,454.75 v 2071.58 h 413.5 V 8061.46 c 0,-232.42 -30.3,-353.71 -110.9,-505.29"
         style="fill:#231f20;fill-opacity:1;fill-rule:nonzero;stroke:none"
         transform="matrix(0.13333333,0,0,-0.13333333,0,2304.6667)" />
      <path
         id="path24"
         d="m 19217.8,7556.17 c -141.2,-232.4 -413.4,-404.17 -685.7,-404.17 -282.4,0 -564.8,161.67 -705.9,404.17 -80.7,151.58 -111,272.87 -111,505.29 v 2021.04 h 413.5 V 8010.92 c 0,-272.85 161.3,-454.75 403.4,-454.75 221.8,0 383.2,181.9 383.2,454.75 v 2071.58 h 413.5 V 8061.46 c 0,-232.42 -30.3,-353.71 -111,-505.29"
         style="fill:#231f20;fill-opacity:1;fill-rule:nonzero;stroke:none"
         transform="matrix(0.13333333,0,0,-0.13333333,0,2304.6667)" />
      <path
         id="path25"
         d="m 9703.09,3590.5 v 384 h 1440.01 v -384 H 9703.09"
         style="fill:#231f20;fill-opacity:1;fill-rule:nonzero;stroke:none"
         transform="matrix(0.13333333,0,0,-0.13333333,0,2304.6667)" />
      <path
         id="path26"
         d="m 19781.2,4363.6 -202.6,-828.7 h 415.4 z m 516.7,-2021.1 -202.6,788.2 h -618 l -192.5,-788.2 h -415.4 l 719.3,2880 h 405.3 l 719.3,-2880 h -415.4"
         style="fill:#231f20;fill-opacity:1;fill-rule:nonzero;stroke:none"
         transform="matrix(0.13333333,0,0,-0.13333333,0,2304.6667)" />
      <path
         id="path27"
         d="m 25745,4363.6 -202.7,-828.7 h 415.4 z m 516.7,-2021.1 -202.7,788.2 h -618 l -192.5,-788.2 h -415.4 l 719.4,2880 h 405.2 l 719.4,-2880 h -415.4"
         style="fill:#231f20;fill-opacity:1;fill-rule:nonzero;stroke:none"
         transform="matrix(0.13333333,0,0,-0.13333333,0,2304.6667)" />
      <path
         id="path28"
         d="m 28129.1,4525.3 c -70.6,202.1 -191.6,293 -373.1,293 h -342.9 V 2746.7 h 342.9 c 242,0 373.1,192 413.4,414.4 20.2,181.8 40.4,383.9 40.4,606.3 0,323.3 -30.3,636.6 -80.7,757.9 z m 70.6,-2051.4 c -100.9,-91 -242.1,-131.4 -403.4,-131.4 h -796.7 v 2880 h 736.2 c 242,0 363,-30.3 463.9,-111.1 171.4,-121.3 292.4,-343.6 342.8,-636.7 40.4,-212.2 70.6,-464.8 70.6,-687.1 0,-667 -131.1,-1091.4 -413.4,-1313.7"
         style="fill:#231f20;fill-opacity:1;fill-rule:nonzero;stroke:none"
         transform="matrix(0.13333333,0,0,-0.13333333,0,2304.6667)" />
      <path
         id="path29"
         d="m 23156.3,2342.5 v 2880 h 1358 v -404.2 h -942.5 v -727.6 h 597.9 v -394.1 h -597.9 v -949.9 h 1054 v -404.2 h -1469.5"
         style="fill:#231f20;fill-opacity:1;fill-rule:nonzero;stroke:none"
         transform="matrix(0.13333333,0,0,-0.13333333,0,2304.6667)" />
      <path
         id="path30"
         d="m 22235.9,2342.5 v 1303.6 h -786.6 V 2342.5 h -413.4 v 2880 h 413.4 V 4050.3 h 786.6 v 1172.2 h 413.5 v -2880 h -413.5"
         style="fill:#231f20;fill-opacity:1;fill-rule:nonzero;stroke:none"
         transform="matrix(0.13333333,0,0,-0.13333333,0,2304.6667)" />
      <path
         id="path31"
         d="M 8850.46,2342.5 7963.03,4272.6 V 2342.5 h -413.46 v 2880 h 413.46 l 786.58,-1728 v 1728 h 413.47 v -2880 h -312.62"
         style="fill:#231f20;fill-opacity:1;fill-rule:nonzero;stroke:none"
         transform="matrix(0.13333333,0,0,-0.13333333,0,2304.6667)" />
      <path
         id="path32"
         d="m 12714.4,4505 c -71.3,252.7 -183.2,363.8 -356.3,363.8 -183.2,0 -295.2,-111.1 -366.4,-353.6 -71.3,-222.4 -91.6,-414.4 -91.6,-737.7 0,-313.3 30.5,-495.2 91.6,-727.6 71.2,-242.5 183.2,-353.7 366.4,-353.7 173.1,0 285,111.2 356.3,353.7 71.3,232.4 91.6,404.2 91.6,737.7 0,323.3 -30.5,505.2 -91.6,717.4 z m 325.7,-1717.8 c -142.5,-343.6 -356.2,-495.2 -682,-495.2 -346.1,0 -549.6,151.6 -692.1,495.2 -122.2,282.9 -162.9,555.7 -162.9,1000.4 0,434.5 40.7,727.6 162.9,1000.4 152.6,343.6 356.2,485.1 692.1,485.1 335.9,0 539.5,-141.5 682,-495.2 122.2,-282.9 162.9,-555.8 162.9,-990.3 0,-444.7 -40.7,-727.6 -162.9,-1000.4"
         style="fill:#231f20;fill-opacity:1;fill-rule:nonzero;stroke:none"
         transform="matrix(0.13333333,0,0,-0.13333333,0,2304.6667)" />
      <path
         id="path33"
         d="m 6381.38,4818.3 h -423.55 v -727.6 h 423.55 c 242.03,0 373.13,131.4 373.13,363.8 0,222.3 -151.27,363.8 -373.13,363.8 z M 6734.33,2342.5 6351.12,3696.6 H 5957.83 V 2342.5 h -413.47 v 2880 h 857.18 c 453.81,0 756.35,-303.1 756.35,-768 0,-343.6 -141.2,-596.2 -413.47,-697.2 l 413.47,-1414.8 h -423.56"
         style="fill:#231f20;fill-opacity:1;fill-rule:nonzero;stroke:none"
         transform="matrix(0.13333333,0,0,-0.13333333,0,2304.6667)" />
      <path
         id="path34"
         d="m 2574.38,4838.5 v -2496 h -415.51 v 2496 h -527 v 384 h 1469.52 v -384 h -527.01"
         style="fill:#231f20;fill-opacity:1;fill-rule:nonzero;stroke:none"
         transform="matrix(0.13333333,0,0,-0.13333333,0,2304.6667)" />
      <path
         id="path35"
         d="m 16542.4,4838.5 v -2496 h -415.5 v 2496 h -527 v 384 h 1469.5 v -384 h -527"
         style="fill:#231f20;fill-opacity:1;fill-rule:nonzero;stroke:none"
         transform="matrix(0.13333333,0,0,-0.13333333,0,2304.6667)" />
      <path
         id="path36"
         d="M 4926.55,2696.2 C 4785.36,2463.8 4513.08,2292 4240.8,2292 c -282.37,0 -564.75,161.7 -705.92,404.2 -80.69,151.6 -110.94,272.8 -110.94,505.3 v 2021 h 413.47 V 3150.9 c 0,-272.8 161.35,-454.7 403.39,-454.7 221.86,0 383.21,181.9 383.21,454.7 v 2071.6 h 413.47 v -2021 c 0,-232.5 -30.25,-353.7 -110.93,-505.3"
         style="fill:#231f20;fill-opacity:1;fill-rule:nonzero;stroke:none"
         transform="matrix(0.13333333,0,0,-0.13333333,0,2304.6667)" />
      <path
         id="path37"
         d="m 15166.4,2696.2 c -141.2,-232.4 -413.5,-404.2 -685.8,-404.2 -282.3,0 -564.7,161.7 -705.9,404.2 -80.7,151.6 -110.9,272.8 -110.9,505.3 v 2021 h 413.5 V 3150.9 c 0,-272.8 161.3,-454.7 403.3,-454.7 221.9,0 383.3,181.9 383.3,454.7 v 2071.6 h 413.4 v -2021 c 0,-232.5 -30.2,-353.7 -110.9,-505.3"
         style="fill:#231f20;fill-opacity:1;fill-rule:nonzero;stroke:none"
         transform="matrix(0.13333333,0,0,-0.13333333,0,2304.6667)" />
    </g>
  </g>
</svg>
