<?xml version="1.0" standalone="no"?>
<svg width="5184px" height="3024px" viewBox="0 -2232 5184 3024 " xmlns="http://www.w3.org/2000/svg" xmlns:xlink="http://www.w3.org/1999/xlink">
<title>generated by pstoedit</title>
<!-- generated by pstoedit version:4.02 -->
<g xml:space='preserve'>
<clipPath id="clippath1"> 	<path d="
	M 0 -2232.5 
	L 0 792 
	L 5184.5 792 
	L 5184.5 -2232.5 
	Z 
	" style="clip-rule:nonzero"/>
</clipPath>
<g style="clip-path:url(#clippath1)"> 
<g fill="#ffffff" fill-rule="nonzero" stroke-width="0" stroke-linejoin="miter" stroke-linecap="butt" stroke-miterlimit="10" >
	<path d="
	M 5184.25 629.75 
	C 5184.25 719.219 5111.72 791.75 5022.25 791.75 
	L 162.25 791.75 
	C 72.7813 791.75 0.25 719.219 0.25 629.75 
	L 0.25 -2070.25 
	C 0.25 -2159.72 72.7813 -2232.25 162.25 -2232.25 
	L 5022.25 -2232.25 
	C 5111.72 -2232.25 5184.25 -2159.72 5184.25 -2070.25 
	Z 
	"/>
</g>
<g stroke="#7f7f7f" fill="none" stroke-width="0.5" stroke-linejoin="miter" stroke-linecap="butt" stroke-miterlimit="4" >
	<path d="
	M 5184.25 629.75 
	C 5184.25 719.219 5111.72 791.75 5022.25 791.75 
	L 162.25 791.75 
	C 72.7813 791.75 0.25 719.219 0.25 629.75 
	L 0.25 -2070.25 
	C 0.25 -2159.72 72.7813 -2232.25 162.25 -2232.25 
	L 5022.25 -2232.25 
	C 5111.72 -2232.25 5184.25 -2159.72 5184.25 -2070.25 
	Z 
	"/>
</g>
<g fill="#7f7f7f" fill-rule="nonzero" stroke-width="0" stroke-linejoin="miter" stroke-linecap="butt" stroke-miterlimit="4" >
	<path d="
	M 162.25 746.75 
	C 97.7344 746.75 45.25 694.262 45.25 629.75 
	L 45.25 -2070.25 
	C 45.25 -2134.76 97.7344 -2187.25 162.25 -2187.25 
	L 5022.25 -2187.25 
	C 5086.76 -2187.25 5139.25 -2134.76 5139.25 -2070.25 
	L 5139.25 629.75 
	C 5139.25 694.262 5086.76 746.75 5022.25 746.75 
	Z 
	"/>
</g>
<g fill="#ffffff" fill-rule="nonzero" stroke-width="0" stroke-linejoin="miter" stroke-linecap="butt" stroke-miterlimit="4" >
	<path d="
	M 162.25 683.75 
	C 132.477 683.75 108.25 659.52 108.25 629.75 
	L 108.25 -2070.25 
	C 108.25 -2100.03 132.477 -2124.25 162.25 -2124.25 
	L 5022.25 -2124.25 
	C 5052.02 -2124.25 5076.25 -2100.02 5076.25 -2070.25 
	L 5076.25 629.75 
	C 5076.25 659.52 5052.02 683.75 5022.25 683.75 
	Z 
	"/>
</g>
<g fill="#7f7f7f" fill-rule="nonzero" stroke-width="0" stroke-linejoin="miter" stroke-linecap="butt" stroke-miterlimit="4" >
	<path d="
	M 492.473 -471.72 
	L 492.473 -380.78 
	L 564.684 -380.78 
	L 564.684 -331.51 
	L 492.473 -331.51 
	L 492.473 -162.25 
	L 440.531 -162.25 
	L 440.531 -522.25 
	L 624.223 -522.25 
	L 624.223 -471.72 
	Z 
	"/>
</g>
<g fill="#7f7f7f" fill-rule="nonzero" stroke-width="0" stroke-linejoin="miter" stroke-linecap="butt" stroke-miterlimit="4" >
	<path d="
	M 2587.59 -206.461 
	C 2573.64 -174.879 2544.46 -155.93 2507.68 -155.93 
	C 2464.55 -155.93 2432.84 -177.41 2415.08 -217.83 
	C 2403.66 -244.36 2396.05 -294.88 2396.05 -341.62 
	C 2396.05 -392.14 2399.86 -428.78 2412.54 -462.88 
	C 2425.23 -500.78 2462.01 -528.57 2503.87 -528.57 
	C 2555.88 -528.57 2595.2 -490.67 2597.74 -437.62 
	L 2545.73 -437.62 
	C 2544.46 -461.62 2527.97 -478.04 2502.6 -478.04 
	C 2484.84 -478.04 2470.89 -469.2 2462.01 -451.51 
	C 2451.86 -433.83 2445.52 -393.41 2445.52 -350.46 
	C 2445.52 -320.14 2448.06 -288.57 2453.13 -260.78 
	C 2460.74 -225.41 2478.5 -206.461 2506.41 -206.461 
	C 2533.05 -206.461 2545.73 -224.14 2545.73 -262.04 
	L 2545.73 -286.04 
	L 2505.14 -286.04 
	L 2505.14 -336.57 
	L 2597.74 -336.57 
	L 2597.74 -262.04 
	C 2597.74 -236.77 2595.2 -221.62 2587.59 -206.461 
	Z 
	"/>
</g>
<g fill="#7f7f7f" fill-rule="nonzero" stroke-width="0" stroke-linejoin="miter" stroke-linecap="butt" stroke-miterlimit="4" >
	<path d="
	M 951.91 -162.25 
	L 951.91 -522.25 
	L 1003.85 -522.25 
	L 1003.85 -210.25 
	L 1135.6 -210.25 
	L 1135.6 -162.25 
	Z 
	"/>
</g>
<g fill="#7f7f7f" fill-rule="nonzero" stroke-width="0" stroke-linejoin="miter" stroke-linecap="butt" stroke-miterlimit="4" >
	<path d="
	M 2284.97 -162.25 
	L 2174.04 -403.51 
	L 2174.04 -162.25 
	L 2122.36 -162.25 
	L 2122.36 -522.25 
	L 2174.04 -522.25 
	L 2272.37 -306.25 
	L 2272.37 -522.25 
	L 2324.05 -522.25 
	L 2324.05 -162.25 
	Z 
	"/>
</g>
<g fill="#7f7f7f" fill-rule="nonzero" stroke-width="0" stroke-linejoin="miter" stroke-linecap="butt" stroke-miterlimit="4" >
	<path d="
	M 818.836 -432.57 
	C 809.93 -464.14 795.934 -478.04 774.305 -478.04 
	C 751.398 -478.04 737.406 -464.14 728.5 -433.83 
	C 719.59 -406.04 717.047 -382.04 717.047 -341.62 
	C 717.047 -302.46 720.863 -279.72 728.5 -250.67 
	C 737.406 -220.36 751.398 -206.461 774.305 -206.461 
	C 795.934 -206.461 809.93 -220.36 818.836 -250.67 
	C 827.746 -279.72 830.289 -301.2 830.289 -342.88 
	C 830.289 -383.3 826.473 -406.04 818.836 -432.57 
	Z 
	M 859.555 -217.83 
	C 841.742 -174.879 815.02 -155.93 774.305 -155.93 
	C 731.043 -155.93 705.594 -174.879 687.781 -217.83 
	C 672.512 -253.2 667.422 -287.3 667.422 -342.88 
	C 667.422 -397.2 672.512 -433.83 687.781 -467.93 
	C 706.867 -510.88 732.316 -528.57 774.305 -528.57 
	C 816.293 -528.57 841.742 -510.88 859.555 -466.67 
	C 874.824 -431.3 879.914 -397.2 879.914 -342.88 
	C 879.914 -287.3 874.824 -251.93 859.555 -217.83 
	Z 
	"/>
</g>
<g fill="#7f7f7f" fill-rule="nonzero" stroke-width="0" stroke-linejoin="miter" stroke-linecap="butt" stroke-miterlimit="4" >
	<path d="
	M 3957.29 -426.25 
	C 3952.22 -461.62 3938.27 -478.04 3914.16 -478.04 
	C 3872.3 -478.04 3857.08 -445.2 3857.08 -351.72 
	C 3857.08 -248.15 3874.84 -206.461 3919.24 -206.461 
	C 3949.68 -206.461 3957.29 -231.72 3957.29 -258.25 
	L 4009.3 -258.25 
	C 4008.03 -198.879 3969.98 -155.93 3919.24 -155.93 
	C 3841.86 -155.93 3807.61 -217.83 3807.61 -350.46 
	C 3807.61 -466.67 3844.4 -528.57 3915.43 -528.57 
	C 3944.61 -528.57 3969.98 -515.93 3986.47 -491.93 
	C 4000.42 -474.25 4005.49 -459.09 4009.3 -426.25 
	Z 
	"/>
</g>
<g fill="#7f7f7f" fill-rule="nonzero" stroke-width="0" stroke-linejoin="miter" stroke-linecap="butt" stroke-miterlimit="4" >
	<path d="
	M 3159.43 -162.25 
	L 3159.43 -522.25 
	L 3329.19 -522.25 
	L 3329.19 -471.72 
	L 3211.37 -471.72 
	L 3211.37 -380.78 
	L 3286.12 -380.78 
	L 3286.12 -331.51 
	L 3211.37 -331.51 
	L 3211.37 -212.77 
	L 3343.12 -212.77 
	L 3343.12 -162.25 
	Z 
	"/>
</g>
<g fill="#7f7f7f" fill-rule="nonzero" stroke-width="0" stroke-linejoin="miter" stroke-linecap="butt" stroke-miterlimit="4" >
	<path d="
	M 4315.39 -162.25 
	L 4315.39 -522.25 
	L 4485.14 -522.25 
	L 4485.14 -471.72 
	L 4367.33 -471.72 
	L 4367.33 -380.78 
	L 4442.07 -380.78 
	L 4442.07 -331.51 
	L 4367.33 -331.51 
	L 4367.33 -212.77 
	L 4499.08 -212.77 
	L 4499.08 -162.25 
	Z 
	"/>
</g>
<g fill="#7f7f7f" fill-rule="nonzero" stroke-width="0" stroke-linejoin="miter" stroke-linecap="butt" stroke-miterlimit="4" >
	<path d="
	M 3554.33 -162.25 
	L 3554.33 -325.2 
	L 3456.01 -325.2 
	L 3456.01 -162.25 
	L 3404.32 -162.25 
	L 3404.32 -522.25 
	L 3456.01 -522.25 
	L 3456.01 -375.72 
	L 3554.33 -375.72 
	L 3554.33 -522.25 
	L 3606.01 -522.25 
	L 3606.01 -162.25 
	Z 
	"/>
</g>
<g fill="#7f7f7f" fill-rule="nonzero" stroke-width="0" stroke-linejoin="miter" stroke-linecap="butt" stroke-miterlimit="4" >
	<path d="
	M 3685.21 -162.25 
	L 3685.21 -522.25 
	L 3735.61 -522.25 
	L 3735.61 -162.25 
	Z 
	"/>
</g>
<g fill="#7f7f7f" fill-rule="nonzero" stroke-width="0" stroke-linejoin="miter" stroke-linecap="butt" stroke-miterlimit="4" >
	<path d="
	M 1992.76 -162.25 
	L 1992.76 -522.25 
	L 2043.16 -522.25 
	L 2043.16 -162.25 
	Z 
	"/>
</g>
<g fill="#7f7f7f" fill-rule="nonzero" stroke-width="0" stroke-linejoin="miter" stroke-linecap="butt" stroke-miterlimit="4" >
	<path d="
	M 4081.3 -162.25 
	L 4081.3 -522.25 
	L 4133.24 -522.25 
	L 4133.24 -210.25 
	L 4264.99 -210.25 
	L 4264.99 -162.25 
	Z 
	"/>
</g>
<g fill="#7f7f7f" fill-rule="nonzero" stroke-width="0" stroke-linejoin="miter" stroke-linecap="butt" stroke-miterlimit="4" >
	<path d="
	M 4644.79 -328.5 
	C 4629.21 -338.59 4614.09 -348.72 4604.44 -355.51 
	C 4575.41 -375.94 4560.04 -403.51 4560.04 -435.09 
	C 4560.04 -486.88 4600.63 -528.57 4652.64 -528.57 
	C 4703.38 -528.57 4742.7 -489.41 4743.97 -435.09 
	L 4694.5 -435.09 
	C 4693.23 -460.36 4675.47 -476.77 4652.64 -476.77 
	C 4628.54 -476.77 4609.51 -459.09 4609.51 -435.09 
	C 4609.51 -417.41 4617.12 -407.3 4643.76 -392.15 
	C 4713.53 -351.72 4743.97 -312.57 4743.97 -260.78 
	C 4743.97 -202.672 4699.57 -155.93 4643.76 -155.93 
	C 4580.34 -155.93 4542.28 -208.99 4542.28 -268.36 
	L 4593.02 -268.36 
	C 4593.02 -238.04 4608.24 -206.461 4643.76 -206.461 
	C 4671.67 -206.461 4694.5 -231.72 4694.5 -260.78 
	C 4694.5 -283.33 4685.18 -302.33 4644.79 -328.5 
	Z 
	"/>
</g>
<g fill="#7f7f7f" fill-rule="nonzero" stroke-width="0" stroke-linejoin="miter" stroke-linecap="butt" stroke-miterlimit="4" >
	<path d="
	M 3016.42 -162.25 
	L 2977.09 -162.25 
	L 2885.74 -522.25 
	L 2937.76 -522.25 
	L 2997.39 -288.57 
	L 3057.02 -522.25 
	L 3109.03 -522.25 
	Z 
	"/>
</g>
<g fill="#7f7f7f" fill-rule="nonzero" stroke-width="0" stroke-linejoin="miter" stroke-linecap="butt" stroke-miterlimit="4" >
	<path d="
	M 1186 -162.25 
	L 1186 -522.25 
	L 1237.94 -522.25 
	L 1237.94 -210.25 
	L 1369.69 -210.25 
	L 1369.69 -162.25 
	Z 
	"/>
</g>
<g fill="#7f7f7f" fill-rule="nonzero" stroke-width="0" stroke-linejoin="miter" stroke-linecap="butt" stroke-miterlimit="4" >
	<path d="
	M 1564.31 -432.57 
	C 1555.4 -464.14 1541.4 -478.04 1519.77 -478.04 
	C 1496.87 -478.04 1482.87 -464.14 1473.97 -433.83 
	C 1465.06 -406.04 1462.52 -382.04 1462.52 -341.62 
	C 1462.52 -302.46 1466.33 -279.72 1473.97 -250.67 
	C 1482.87 -220.36 1496.87 -206.461 1519.77 -206.461 
	C 1541.4 -206.461 1555.4 -220.36 1564.31 -250.67 
	C 1573.21 -279.72 1575.76 -301.2 1575.76 -342.88 
	C 1575.76 -383.3 1571.94 -406.04 1564.31 -432.57 
	Z 
	M 1605.02 -217.83 
	C 1587.21 -174.879 1560.49 -155.93 1519.77 -155.93 
	C 1476.51 -155.93 1451.06 -174.879 1433.25 -217.83 
	C 1417.98 -253.2 1412.89 -287.3 1412.89 -342.88 
	C 1412.89 -397.2 1417.98 -433.83 1433.25 -467.93 
	C 1452.34 -510.88 1477.78 -528.57 1519.77 -528.57 
	C 1561.76 -528.57 1587.21 -510.88 1605.02 -466.67 
	C 1620.29 -431.3 1625.38 -397.2 1625.38 -342.88 
	C 1625.38 -287.3 1620.29 -251.93 1605.02 -217.83 
	Z 
	"/>
</g>
<g fill="#7f7f7f" fill-rule="nonzero" stroke-width="0" stroke-linejoin="miter" stroke-linecap="butt" stroke-miterlimit="4" >
	<path d="
	M 1884.06 -162.25 
	L 1839.69 -162.25 
	L 1805.47 -350.46 
	L 1771.25 -162.25 
	L 1725.62 -162.25 
	L 1668.58 -522.25 
	L 1719.28 -522.25 
	L 1749.7 -330.25 
	L 1785.19 -522.25 
	L 1825.75 -522.25 
	L 1859.97 -330.25 
	L 1891.66 -522.25 
	L 1942.36 -522.25 
	Z 
	"/>
</g>
<g fill="#7f7f7f" fill-rule="nonzero" stroke-width="0" stroke-linejoin="miter" stroke-linecap="butt" stroke-miterlimit="4" >
	<path d="
	M 4135.3 -792.25 
	L 4135.3 -1152.25 
	L 4305.05 -1152.25 
	L 4305.05 -1101.72 
	L 4187.24 -1101.72 
	L 4187.24 -1010.78 
	L 4261.98 -1010.78 
	L 4261.98 -961.51 
	L 4187.24 -961.51 
	L 4187.24 -842.77 
	L 4318.99 -842.77 
	L 4318.99 -792.25 
	Z 
	"/>
</g>
<g fill="#7f7f7f" fill-rule="nonzero" stroke-width="0" stroke-linejoin="miter" stroke-linecap="butt" stroke-miterlimit="4" >
	<path d="
	M 1674.59 -792.25 
	L 1674.59 -955.2 
	L 1576.27 -955.2 
	L 1576.27 -792.25 
	L 1524.58 -792.25 
	L 1524.58 -1152.25 
	L 1576.27 -1152.25 
	L 1576.27 -1005.72 
	L 1674.59 -1005.72 
	L 1674.59 -1152.25 
	L 1726.27 -1152.25 
	L 1726.27 -792.25 
	Z 
	"/>
</g>
<g fill="#7f7f7f" fill-rule="nonzero" stroke-width="0" stroke-linejoin="miter" stroke-linecap="butt" stroke-miterlimit="4" >
	<path d="
	M 1189.69 -792.25 
	L 1189.69 -1152.25 
	L 1240.09 -1152.25 
	L 1240.09 -792.25 
	Z 
	"/>
</g>
<g fill="#7f7f7f" fill-rule="nonzero" stroke-width="0" stroke-linejoin="miter" stroke-linecap="butt" stroke-miterlimit="4" >
	<path d="
	M 3464.07 -792.25 
	L 3464.07 -994.35 
	L 3397.03 -792.25 
	L 3330 -994.35 
	L 3330 -792.25 
	L 3278.14 -792.25 
	L 3278.14 -1152.25 
	L 3330 -1152.25 
	L 3397.03 -950.14 
	L 3464.07 -1152.25 
	L 3515.92 -1152.25 
	L 3515.92 -792.25 
	Z 
	"/>
</g>
<g fill="#7f7f7f" fill-rule="nonzero" stroke-width="0" stroke-linejoin="miter" stroke-linecap="butt" stroke-miterlimit="4" >
	<path d="
	M 3739.34 -1062.57 
	C 3730.43 -1094.14 3716.43 -1108.04 3694.8 -1108.04 
	C 3671.9 -1108.04 3657.9 -1094.14 3649 -1063.83 
	C 3640.09 -1036.04 3637.55 -1012.04 3637.55 -971.62 
	C 3637.55 -932.46 3641.36 -909.72 3649 -880.67 
	C 3657.9 -850.35 3671.9 -836.46 3694.8 -836.46 
	C 3716.43 -836.46 3730.43 -850.35 3739.34 -880.67 
	C 3748.24 -909.72 3750.79 -931.2 3750.79 -972.88 
	C 3750.79 -1013.3 3746.97 -1036.04 3739.34 -1062.57 
	Z 
	M 3780.05 -847.83 
	C 3762.24 -804.88 3735.52 -785.93 3694.8 -785.93 
	C 3651.54 -785.93 3626.09 -804.88 3608.28 -847.83 
	C 3593.01 -883.2 3587.92 -917.3 3587.92 -972.88 
	C 3587.92 -1027.2 3593.01 -1063.83 3608.28 -1097.93 
	C 3627.37 -1140.88 3652.81 -1158.57 3694.8 -1158.57 
	C 3736.79 -1158.57 3762.24 -1140.88 3780.05 -1096.67 
	C 3795.32 -1061.3 3800.41 -1027.2 3800.41 -972.88 
	C 3800.41 -917.3 3795.32 -881.93 3780.05 -847.83 
	Z 
	"/>
</g>
<g fill="#7f7f7f" fill-rule="nonzero" stroke-width="0" stroke-linejoin="miter" stroke-linecap="butt" stroke-miterlimit="4" >
	<path d="
	M 2655.38 -1062.57 
	C 2646.47 -1094.14 2632.47 -1108.04 2610.84 -1108.04 
	C 2587.94 -1108.04 2573.94 -1094.14 2565.04 -1063.83 
	C 2556.13 -1036.04 2553.59 -1012.04 2553.59 -971.62 
	C 2553.59 -932.46 2557.4 -909.72 2565.04 -880.67 
	C 2573.94 -850.35 2587.94 -836.46 2610.84 -836.46 
	C 2632.47 -836.46 2646.47 -850.35 2655.38 -880.67 
	C 2664.29 -909.72 2666.83 -931.2 2666.83 -972.88 
	C 2666.83 -1013.3 2663.01 -1036.04 2655.38 -1062.57 
	Z 
	M 2696.09 -847.83 
	C 2678.28 -804.88 2651.56 -785.93 2610.84 -785.93 
	C 2567.58 -785.93 2542.13 -804.88 2524.32 -847.83 
	C 2509.05 -883.2 2503.96 -917.3 2503.96 -972.88 
	C 2503.96 -1027.2 2509.05 -1063.83 2524.32 -1097.93 
	C 2543.41 -1140.88 2568.85 -1158.57 2610.84 -1158.57 
	C 2652.83 -1158.57 2678.28 -1140.88 2696.09 -1096.67 
	C 2711.36 -1061.3 2716.45 -1027.2 2716.45 -972.88 
	C 2716.45 -917.3 2711.36 -881.93 2696.09 -847.83 
	Z 
	"/>
</g>
<g fill="#7f7f7f" fill-rule="nonzero" stroke-width="0" stroke-linejoin="miter" stroke-linecap="butt" stroke-miterlimit="4" >
	<path d="
	M 2893.08 -1101.72 
	L 2840.13 -1101.72 
	L 2840.13 -1010.78 
	L 2893.08 -1010.78 
	C 2923.33 -1010.78 2939.72 -1027.2 2939.72 -1056.25 
	C 2939.72 -1084.04 2920.81 -1101.72 2893.08 -1101.72 
	Z 
	M 2937.2 -792.25 
	L 2889.29 -961.51 
	L 2840.13 -961.51 
	L 2840.13 -792.25 
	L 2788.45 -792.25 
	L 2788.45 -1152.25 
	L 2895.6 -1152.25 
	C 2952.33 -1152.25 2990.14 -1114.35 2990.14 -1056.25 
	C 2990.14 -1013.3 2972.49 -981.72 2938.46 -969.09 
	L 2990.14 -792.25 
	Z 
	"/>
</g>
<g fill="#7f7f7f" fill-rule="nonzero" stroke-width="0" stroke-linejoin="miter" stroke-linecap="butt" stroke-miterlimit="4" >
	<path d="
	M 3977.04 -1101.72 
	L 3924.09 -1101.72 
	L 3924.09 -1010.78 
	L 3977.04 -1010.78 
	C 4007.29 -1010.78 4023.68 -1027.2 4023.68 -1056.25 
	C 4023.68 -1084.04 4004.77 -1101.72 3977.04 -1101.72 
	Z 
	M 4021.16 -792.25 
	L 3973.26 -961.51 
	L 3924.09 -961.51 
	L 3924.09 -792.25 
	L 3872.41 -792.25 
	L 3872.41 -1152.25 
	L 3979.56 -1152.25 
	C 4036.28 -1152.25 4074.1 -1114.35 4074.1 -1056.25 
	C 4074.1 -1013.3 4056.45 -981.72 4022.42 -969.09 
	L 4074.1 -792.25 
	Z 
	"/>
</g>
<g fill="#7f7f7f" fill-rule="nonzero" stroke-width="0" stroke-linejoin="miter" stroke-linecap="butt" stroke-miterlimit="4" >
	<path d="
	M 1408.31 -1104.25 
	L 1408.31 -792.25 
	L 1356.37 -792.25 
	L 1356.37 -1104.25 
	L 1290.49 -1104.25 
	L 1290.49 -1152.25 
	L 1474.18 -1152.25 
	L 1474.18 -1104.25 
	Z 
	"/>
</g>
<g fill="#7f7f7f" fill-rule="nonzero" stroke-width="0" stroke-linejoin="miter" stroke-linecap="butt" stroke-miterlimit="4" >
	<path d="
	M 1080.99 -792.25 
	L 1036.63 -792.25 
	L 1002.4 -980.46 
	L 968.18 -792.25 
	L 922.551 -792.25 
	L 865.512 -1152.25 
	L 916.211 -1152.25 
	L 946.633 -960.25 
	L 982.121 -1152.25 
	L 1022.68 -1152.25 
	L 1056.91 -960.25 
	L 1088.59 -1152.25 
	L 1139.29 -1152.25 
	Z 
	"/>
</g>
<g fill="#7f7f7f" fill-rule="nonzero" stroke-width="0" stroke-linejoin="miter" stroke-linecap="butt" stroke-miterlimit="4" >
	<path d="
	M 2103.07 -785.93 
	C 2071.35 -785.93 2040.91 -797.3 2014.27 -817.51 
	L 2048.52 -854.14 
	C 2066.28 -841.51 2080.23 -836.46 2097.99 -836.46 
	C 2137.32 -836.46 2165.22 -871.83 2165.22 -921.09 
	C 2165.22 -960.25 2146.19 -984.25 2115.75 -984.25 
	C 2099.26 -984.25 2085.31 -977.93 2072.62 -966.57 
	L 2023.15 -972.88 
	L 2032.03 -1152.25 
	L 2202.01 -1152.25 
	L 2202.01 -1101.72 
	L 2080.23 -1101.72 
	L 2076.43 -1025.93 
	C 2094.19 -1032.25 2103.07 -1033.51 2117.02 -1033.51 
	C 2175.37 -1033.51 2215.96 -986.78 2215.96 -918.57 
	C 2215.96 -842.78 2167.76 -785.93 2103.07 -785.93 
	Z 
	"/>
</g>
<g fill="#7f7f7f" fill-rule="nonzero" stroke-width="0" stroke-linejoin="miter" stroke-linecap="butt" stroke-miterlimit="4" >
	<path d="
	M 2205.21 467.75 
	L 2205.21 107.75 
	L 2374.96 107.75 
	L 2374.96 158.27 
	L 2257.15 158.27 
	L 2257.15 249.219 
	L 2331.89 249.219 
	L 2331.89 298.488 
	L 2257.15 298.488 
	L 2257.15 417.219 
	L 2388.9 417.219 
	L 2388.9 467.75 
	Z 
	"/>
</g>
<g fill="#7f7f7f" fill-rule="nonzero" stroke-width="0" stroke-linejoin="miter" stroke-linecap="butt" stroke-miterlimit="4" >
	<path d="
	M 579.695 467.75 
	L 579.695 265.641 
	L 512.664 467.75 
	L 445.629 265.641 
	L 445.629 467.75 
	L 393.773 467.75 
	L 393.773 107.75 
	L 445.629 107.75 
	L 512.664 309.859 
	L 579.695 107.75 
	L 631.555 107.75 
	L 631.555 467.75 
	Z 
	"/>
</g>
<g fill="#7f7f7f" fill-rule="nonzero" stroke-width="0" stroke-linejoin="miter" stroke-linecap="butt" stroke-miterlimit="4" >
	<path d="
	M 3617.38 467.75 
	L 3506.45 226.488 
	L 3506.45 467.75 
	L 3454.77 467.75 
	L 3454.77 107.75 
	L 3506.45 107.75 
	L 3604.77 323.75 
	L 3604.77 107.75 
	L 3656.46 107.75 
	L 3656.46 467.75 
	Z 
	"/>
</g>
<g fill="#7f7f7f" fill-rule="nonzero" stroke-width="0" stroke-linejoin="miter" stroke-linecap="butt" stroke-miterlimit="4" >
	<path d="
	M 4221.87 197.43 
	C 4212.96 165.859 4198.96 151.961 4177.33 151.961 
	C 4154.43 151.961 4140.44 165.859 4131.53 196.172 
	C 4122.62 223.961 4120.08 247.961 4120.08 288.379 
	C 4120.08 327.539 4123.9 350.281 4131.53 379.332 
	C 4140.44 409.641 4154.43 423.539 4177.33 423.539 
	C 4198.96 423.539 4212.96 409.641 4221.87 379.332 
	C 4230.78 350.281 4233.32 328.801 4233.32 287.121 
	C 4233.32 246.699 4229.5 223.961 4221.87 197.43 
	Z 
	M 4262.58 412.172 
	C 4244.77 455.121 4218.05 474.07 4177.33 474.07 
	C 4134.07 474.07 4108.63 455.121 4090.81 412.172 
	C 4075.54 376.801 4070.46 342.699 4070.46 287.121 
	C 4070.46 232.801 4075.54 196.172 4090.81 162.07 
	C 4109.9 119.121 4135.35 101.43 4177.33 101.43 
	C 4219.33 101.43 4244.77 119.121 4262.58 163.332 
	C 4277.86 198.699 4282.95 232.801 4282.95 287.121 
	C 4282.95 342.699 4277.86 378.07 4262.58 412.172 
	Z 
	"/>
</g>
<g fill="#7f7f7f" fill-rule="nonzero" stroke-width="0" stroke-linejoin="miter" stroke-linecap="butt" stroke-miterlimit="4" >
	<path d="
	M 3296.5 158.27 
	L 3243.56 158.27 
	L 3243.56 249.219 
	L 3296.5 249.219 
	C 3326.76 249.219 3343.15 232.801 3343.15 203.75 
	C 3343.15 175.961 3324.24 158.27 3296.5 158.27 
	Z 
	M 3340.63 467.75 
	L 3292.72 298.488 
	L 3243.56 298.488 
	L 3243.56 467.75 
	L 3191.88 467.75 
	L 3191.88 107.75 
	L 3299.02 107.75 
	C 3355.75 107.75 3393.57 145.641 3393.57 203.75 
	C 3393.57 246.699 3375.92 278.281 3341.89 290.91 
	L 3393.57 467.75 
	Z 
	"/>
</g>
<g fill="#7f7f7f" fill-rule="nonzero" stroke-width="0" stroke-linejoin="miter" stroke-linecap="butt" stroke-miterlimit="4" >
	<path d="
	M 1076.15 301.5 
	C 1060.58 291.41 1045.45 281.281 1035.8 274.488 
	C 1006.78 254.059 991.402 226.488 991.402 194.91 
	C 991.402 143.121 1031.99 101.43 1084 101.43 
	C 1134.74 101.43 1174.07 140.59 1175.33 194.91 
	L 1125.86 194.91 
	C 1124.59 169.641 1106.83 153.219 1084 153.219 
	C 1059.9 153.219 1040.87 170.91 1040.87 194.91 
	C 1040.87 212.59 1048.49 222.691 1075.12 237.852 
	C 1144.89 278.281 1175.33 317.43 1175.33 369.219 
	C 1175.33 427.332 1130.94 474.07 1075.12 474.07 
	C 1011.7 474.07 973.645 421.012 973.645 361.641 
	L 1024.38 361.641 
	C 1024.38 391.961 1039.61 423.539 1075.12 423.539 
	C 1103.03 423.539 1125.86 398.281 1125.86 369.219 
	C 1125.86 346.672 1116.54 327.672 1076.15 301.5 
	Z 
	"/>
</g>
<g fill="#7f7f7f" fill-rule="nonzero" stroke-width="0" stroke-linejoin="miter" stroke-linecap="butt" stroke-miterlimit="4" >
	<path d="
	M 2044.83 301.5 
	C 2029.25 291.41 2014.13 281.281 2004.47 274.488 
	C 1975.45 254.059 1960.07 226.488 1960.07 194.91 
	C 1960.07 143.121 2000.67 101.43 2052.68 101.43 
	C 2103.41 101.43 2142.74 140.59 2144.01 194.91 
	L 2094.54 194.91 
	C 2093.27 169.641 2075.51 153.219 2052.68 153.219 
	C 2028.57 153.219 2009.55 170.91 2009.55 194.91 
	C 2009.55 212.59 2017.16 222.691 2043.79 237.852 
	C 2113.56 278.281 2144.01 317.43 2144.01 369.219 
	C 2144.01 427.332 2099.61 474.07 2043.79 474.07 
	C 1980.37 474.07 1942.32 421.012 1942.32 361.641 
	L 1993.06 361.641 
	C 1993.06 391.961 2008.28 423.539 2043.79 423.539 
	C 2071.7 423.539 2094.54 398.281 2094.54 369.219 
	C 2094.54 346.672 2085.21 327.672 2044.83 301.5 
	Z 
	"/>
</g>
<g fill="#7f7f7f" fill-rule="nonzero" stroke-width="0" stroke-linejoin="miter" stroke-linecap="butt" stroke-miterlimit="4" >
	<path d="
	M 1325.55 155.75 
	L 1325.55 467.75 
	L 1273.61 467.75 
	L 1273.61 155.75 
	L 1207.73 155.75 
	L 1207.73 107.75 
	L 1391.42 107.75 
	L 1391.42 155.75 
	Z 
	"/>
</g>
<g fill="#7f7f7f" fill-rule="nonzero" stroke-width="0" stroke-linejoin="miter" stroke-linecap="butt" stroke-miterlimit="4" >
	<path d="
	M 898.578 423.539 
	C 880.93 452.59 846.895 474.07 812.859 474.07 
	C 777.563 474.07 742.266 453.852 724.617 423.539 
	C 714.535 404.59 710.754 389.43 710.754 360.379 
	L 710.754 107.75 
	L 762.438 107.75 
	L 762.438 366.699 
	C 762.438 400.801 782.605 423.539 812.859 423.539 
	C 840.59 423.539 860.762 400.801 860.762 366.699 
	L 860.762 107.75 
	L 912.445 107.75 
	L 912.445 360.379 
	C 912.445 389.43 908.66 404.59 898.578 423.539 
	Z 
	"/>
</g>
<g fill="#7f7f7f" fill-rule="nonzero" stroke-width="0" stroke-linejoin="miter" stroke-linecap="butt" stroke-miterlimit="4" >
	<path d="
	M 1867.25 423.539 
	C 1849.6 452.59 1815.57 474.07 1781.53 474.07 
	C 1746.24 474.07 1710.94 453.852 1693.29 423.539 
	C 1683.21 404.59 1679.42 389.43 1679.42 360.379 
	L 1679.42 107.75 
	L 1731.11 107.75 
	L 1731.11 366.699 
	C 1731.11 400.801 1751.28 423.539 1781.53 423.539 
	C 1809.26 423.539 1829.43 400.801 1829.43 366.699 
	L 1829.43 107.75 
	L 1881.12 107.75 
	L 1881.12 360.379 
	C 1881.12 389.43 1877.33 404.59 1867.25 423.539 
	Z 
	"/>
</g>
<g fill="#7f7f7f" fill-rule="nonzero" stroke-width="0" stroke-linejoin="miter" stroke-linecap="butt" stroke-miterlimit="4" >
	<path d="
	M 4542.77 423.539 
	C 4525.12 452.59 4491.08 474.07 4457.05 474.07 
	C 4421.75 474.07 4386.46 453.852 4368.81 423.539 
	C 4358.72 404.59 4354.94 389.43 4354.94 360.379 
	L 4354.94 107.75 
	L 4406.63 107.75 
	L 4406.63 366.699 
	C 4406.63 400.801 4426.79 423.539 4457.05 423.539 
	C 4484.78 423.539 4504.95 400.801 4504.95 366.699 
	L 4504.95 107.75 
	L 4556.63 107.75 
	L 4556.63 360.379 
	C 4556.63 389.43 4552.85 404.59 4542.77 423.539 
	Z 
	"/>
</g>
<g fill="#7f7f7f" fill-rule="nonzero" stroke-width="0" stroke-linejoin="miter" stroke-linecap="butt" stroke-miterlimit="4" >
	<path d="
	M 2794.71 155.75 
	L 2794.71 467.75 
	L 2742.77 467.75 
	L 2742.77 155.75 
	L 2676.9 155.75 
	L 2676.9 107.75 
	L 2860.59 107.75 
	L 2860.59 155.75 
	Z 
	"/>
</g>
<g fill="#7f7f7f" fill-rule="nonzero" stroke-width="0" stroke-linejoin="miter" stroke-linecap="butt" stroke-miterlimit="4" >
	<path d="
	M 4724.85 155.75 
	L 4724.85 467.75 
	L 4672.91 467.75 
	L 4672.91 155.75 
	L 4607.04 155.75 
	L 4607.04 107.75 
	L 4790.73 107.75 
	L 4790.73 155.75 
	Z 
	"/>
</g>
<g fill="#7f7f7f" fill-rule="nonzero" stroke-width="0" stroke-linejoin="miter" stroke-linecap="butt" stroke-miterlimit="4" >
	<path d="
	M 3098.81 423.539 
	C 3081.16 452.59 3047.13 474.07 3013.09 474.07 
	C 2977.8 474.07 2942.5 453.852 2924.85 423.539 
	C 2914.77 404.59 2910.98 389.43 2910.98 360.379 
	L 2910.98 107.75 
	L 2962.67 107.75 
	L 2962.67 366.699 
	C 2962.67 400.801 2982.84 423.539 3013.09 423.539 
	C 3040.82 423.539 3060.99 400.801 3060.99 366.699 
	L 3060.99 107.75 
	L 3112.68 107.75 
	L 3112.68 360.379 
	C 3112.68 389.43 3108.89 404.59 3098.81 423.539 
	Z 
	"/>
</g>
<g fill="#7f7f7f" fill-rule="nonzero" stroke-width="0" stroke-linejoin="miter" stroke-linecap="butt" stroke-miterlimit="4" >
	<path d="
	M 3782.46 311.75 
	L 3782.46 263.75 
	L 3962.46 263.75 
	L 3962.46 311.75 
	Z 
	"/>
</g>
<g fill="#7f7f7f" fill-rule="nonzero" stroke-width="0" stroke-linejoin="miter" stroke-linecap="butt" stroke-miterlimit="4" >
	<path d="
	M 3664.16 -1757.05 
	C 3658.08 -1799.49 3641.33 -1819.2 3612.41 -1819.2 
	C 3562.18 -1819.2 3543.91 -1779.79 3543.91 -1667.62 
	C 3543.91 -1543.32 3565.22 -1493.3 3618.5 -1493.3 
	C 3655.03 -1493.3 3664.16 -1523.62 3664.16 -1555.45 
	L 3726.57 -1555.45 
	C 3725.05 -1484.21 3679.39 -1432.67 3618.5 -1432.67 
	C 3525.64 -1432.67 3484.54 -1506.95 3484.54 -1666.1 
	C 3484.54 -1805.55 3528.69 -1879.83 3613.93 -1879.83 
	C 3648.94 -1879.83 3679.39 -1864.67 3699.17 -1835.87 
	C 3715.92 -1814.65 3722.01 -1796.46 3726.57 -1757.05 
	Z 
	"/>
</g>
<g fill="#7f7f7f" fill-rule="nonzero" stroke-width="0" stroke-linejoin="miter" stroke-linecap="butt" stroke-miterlimit="4" >
	<path d="
	M 2579.29 -1440.25 
	L 2579.29 -1872.25 
	L 2783 -1872.25 
	L 2783 -1811.62 
	L 2641.62 -1811.62 
	L 2641.62 -1702.48 
	L 2731.31 -1702.48 
	L 2731.31 -1643.37 
	L 2641.62 -1643.37 
	L 2641.62 -1500.88 
	L 2799.72 -1500.88 
	L 2799.72 -1440.25 
	Z 
	"/>
</g>
<g fill="#7f7f7f" fill-rule="nonzero" stroke-width="0" stroke-linejoin="miter" stroke-linecap="butt" stroke-miterlimit="4" >
	<path d="
	M 4167.32 -1440.25 
	L 4167.32 -1872.25 
	L 4371.03 -1872.25 
	L 4371.03 -1811.62 
	L 4229.65 -1811.62 
	L 4229.65 -1702.48 
	L 4319.34 -1702.48 
	L 4319.34 -1643.37 
	L 4229.65 -1643.37 
	L 4229.65 -1500.88 
	L 4387.75 -1500.88 
	L 4387.75 -1440.25 
	Z 
	"/>
</g>
<g fill="#7f7f7f" fill-rule="nonzero" stroke-width="0" stroke-linejoin="miter" stroke-linecap="butt" stroke-miterlimit="4" >
	<path d="
	M 3089.89 -1440.25 
	L 3089.89 -1635.79 
	L 2971.9 -1635.79 
	L 2971.9 -1440.25 
	L 2909.88 -1440.25 
	L 2909.88 -1872.25 
	L 2971.9 -1872.25 
	L 2971.9 -1696.42 
	L 3089.89 -1696.42 
	L 3089.89 -1872.25 
	L 3151.9 -1872.25 
	L 3151.9 -1440.25 
	Z 
	"/>
</g>
<g fill="#7f7f7f" fill-rule="nonzero" stroke-width="0" stroke-linejoin="miter" stroke-linecap="butt" stroke-miterlimit="4" >
	<path d="
	M 829.148 -1440.25 
	L 829.148 -1872.25 
	L 891.477 -1872.25 
	L 891.477 -1497.85 
	L 1049.58 -1497.85 
	L 1049.58 -1440.25 
	Z 
	"/>
</g>
<g fill="#7f7f7f" fill-rule="nonzero" stroke-width="0" stroke-linejoin="miter" stroke-linecap="butt" stroke-miterlimit="4" >
	<path d="
	M 3856.17 -1440.25 
	L 3856.17 -1872.25 
	L 3918.5 -1872.25 
	L 3918.5 -1497.85 
	L 4076.6 -1497.85 
	L 4076.6 -1440.25 
	Z 
	"/>
</g>
<g fill="#7f7f7f" fill-rule="nonzero" stroke-width="0" stroke-linejoin="miter" stroke-linecap="butt" stroke-miterlimit="4" >
	<path d="
	M 1309.04 -1764.63 
	C 1298.35 -1802.52 1281.55 -1819.2 1255.6 -1819.2 
	C 1228.11 -1819.2 1211.32 -1802.52 1200.63 -1766.14 
	C 1189.94 -1732.8 1186.89 -1704 1186.89 -1655.49 
	C 1186.89 -1608.5 1191.47 -1581.22 1200.63 -1546.36 
	C 1211.32 -1509.98 1228.11 -1493.3 1255.6 -1493.3 
	C 1281.55 -1493.3 1298.35 -1509.98 1309.04 -1546.36 
	C 1319.72 -1581.22 1322.78 -1606.98 1322.78 -1657.01 
	C 1322.78 -1705.51 1318.2 -1732.8 1309.04 -1764.63 
	Z 
	M 1357.9 -1506.95 
	C 1336.52 -1455.41 1304.46 -1432.67 1255.6 -1432.67 
	C 1203.68 -1432.67 1173.15 -1455.41 1151.77 -1506.95 
	C 1133.45 -1549.39 1127.34 -1590.31 1127.34 -1657.01 
	C 1127.34 -1722.19 1133.45 -1766.14 1151.77 -1807.07 
	C 1174.67 -1858.61 1205.21 -1879.83 1255.6 -1879.83 
	C 1305.98 -1879.83 1336.52 -1858.61 1357.9 -1805.55 
	C 1376.22 -1763.11 1382.33 -1722.19 1382.33 -1657.01 
	C 1382.33 -1590.31 1376.22 -1547.87 1357.9 -1506.95 
	Z 
	"/>
</g>
<g fill="#7f7f7f" fill-rule="nonzero" stroke-width="0" stroke-linejoin="miter" stroke-linecap="butt" stroke-miterlimit="4" >
	<path d="
	M 3294.47 -1440.25 
	L 3294.47 -1872.25 
	L 3354.95 -1872.25 
	L 3354.95 -1440.25 
	Z 
	"/>
</g>
<g fill="#7f7f7f" fill-rule="nonzero" stroke-width="0" stroke-linejoin="miter" stroke-linecap="butt" stroke-miterlimit="4" >
	<path d="
	M 599.973 -1639.75 
	C 581.281 -1651.86 563.133 -1664.01 551.551 -1672.16 
	C 516.723 -1696.68 498.27 -1729.77 498.27 -1767.66 
	C 498.27 -1829.81 546.98 -1879.83 609.395 -1879.83 
	C 670.277 -1879.83 717.469 -1832.84 718.988 -1767.66 
	L 659.625 -1767.66 
	C 658.102 -1797.98 636.793 -1817.68 609.395 -1817.68 
	C 580.473 -1817.68 557.637 -1796.46 557.637 -1767.66 
	C 557.637 -1746.44 566.77 -1734.31 598.734 -1716.12 
	C 682.457 -1667.62 718.988 -1620.63 718.988 -1558.48 
	C 718.988 -1488.75 665.715 -1432.67 598.734 -1432.67 
	C 522.629 -1432.67 476.961 -1496.33 476.961 -1567.57 
	L 537.848 -1567.57 
	C 537.848 -1531.2 556.113 -1493.3 598.734 -1493.3 
	C 632.227 -1493.3 659.625 -1523.62 659.625 -1558.48 
	C 659.625 -1585.55 648.438 -1608.35 599.973 -1639.75 
	Z 
	"/>
</g>
<g fill="#7f7f7f" fill-rule="nonzero" stroke-width="0" stroke-linejoin="miter" stroke-linecap="butt" stroke-miterlimit="4" >
	<path d="
	M 4588.52 -1639.75 
	C 4569.83 -1651.86 4551.69 -1664.01 4540.1 -1672.16 
	C 4505.27 -1696.68 4486.82 -1729.77 4486.82 -1767.66 
	C 4486.82 -1829.81 4535.53 -1879.83 4597.94 -1879.83 
	C 4658.83 -1879.83 4706.02 -1832.84 4707.54 -1767.66 
	L 4648.18 -1767.66 
	C 4646.65 -1797.98 4625.34 -1817.68 4597.94 -1817.68 
	C 4569.02 -1817.68 4546.19 -1796.46 4546.19 -1767.66 
	C 4546.19 -1746.44 4555.32 -1734.31 4587.29 -1716.12 
	C 4671.01 -1667.62 4707.54 -1620.63 4707.54 -1558.48 
	C 4707.54 -1488.75 4654.26 -1432.67 4587.29 -1432.67 
	C 4511.18 -1432.67 4465.51 -1496.33 4465.51 -1567.57 
	L 4526.4 -1567.57 
	C 4526.4 -1531.2 4544.67 -1493.3 4587.29 -1493.3 
	C 4620.78 -1493.3 4648.18 -1523.62 4648.18 -1558.48 
	C 4648.18 -1585.55 4636.99 -1608.35 4588.52 -1639.75 
	Z 
	"/>
</g>
<g fill="#7f7f7f" fill-rule="nonzero" stroke-width="0" stroke-linejoin="miter" stroke-linecap="butt" stroke-miterlimit="4" >
	<path d="
	M 2377.43 -1440.25 
	L 2330.24 -1440.25 
	L 2220.62 -1872.25 
	L 2283.04 -1872.25 
	L 2354.59 -1591.83 
	L 2426.15 -1872.25 
	L 2488.57 -1872.25 
	Z 
	"/>
</g>
<g fill="#7f7f7f" fill-rule="nonzero" stroke-width="0" stroke-linejoin="miter" stroke-linecap="butt" stroke-miterlimit="4" >
	<path d="
	M 1718.65 -1440.25 
	L 1665.42 -1440.25 
	L 1624.35 -1666.1 
	L 1583.28 -1440.25 
	L 1528.53 -1440.25 
	L 1460.08 -1872.25 
	L 1520.92 -1872.25 
	L 1557.43 -1641.85 
	L 1600.02 -1872.25 
	L 1648.69 -1872.25 
	L 1689.75 -1641.85 
	L 1727.78 -1872.25 
	L 1788.62 -1872.25 
	Z 
	"/>
</g>
</g >
</g>
</svg>
