<?xml version="1.0" encoding="UTF-8" standalone="no"?>
<!-- Created with Inkscape (http://www.inkscape.org/) -->

<svg
   version="1.1"
   id="svg1"
   width="3456.6667"
   height="4608.6665"
   viewBox="0 0 3456.6667 4608.6665"
   sodipodi:docname="tmpsqser2q1.pdf"
   xmlns:inkscape="http://www.inkscape.org/namespaces/inkscape"
   xmlns:sodipodi="http://sodipodi.sourceforge.net/DTD/sodipodi-0.dtd"
   xmlns="http://www.w3.org/2000/svg"
   xmlns:svg="http://www.w3.org/2000/svg">
  <defs
     id="defs1" />
  <sodipodi:namedview
     id="namedview1"
     pagecolor="#ffffff"
     bordercolor="#000000"
     borderopacity="0.25"
     inkscape:showpageshadow="2"
     inkscape:pageopacity="0.0"
     inkscape:pagecheckerboard="0"
     inkscape:deskcolor="#d1d1d1">
    <inkscape:page
       x="0"
       y="0"
       inkscape:label="1"
       id="page1"
       width="3456.6667"
       height="4608.6665"
       margin="0"
       bleed="0" />
  </sodipodi:namedview>
  <g
     id="g1"
     inkscape:groupmode="layer"
     inkscape:label="1">
    <g
       id="group-R5">
      <path
         id="path2"
         d="m 25922.5,1622.5 c 0,-894.699 -725.3,-1620 -1620,-1620 H 1622.5 C 727.805,2.5 2.5,727.801 2.5,1622.5 v 31320 c 0,894.7 725.305,1620 1620.01,1620 H 24302.5 c 894.7,0 1620,-725.3 1620,-1620 v -31320"
         style="fill:#ffffff;fill-opacity:1;fill-rule:nonzero;stroke:none"
         transform="matrix(0.13333333,0,0,-0.13333333,0,4608.6667)" />
      <path
         id="path3"
         d="m 25922.5,1622.5 c 0,-894.699 -725.3,-1620 -1620,-1620 H 1622.5 C 727.805,2.5 2.5,727.801 2.5,1622.5 v 31320 c 0,894.7 725.305,1620 1620.01,1620 H 24302.5 c 894.7,0 1620,-725.3 1620,-1620 z"
         style="fill:none;stroke:#231f20;stroke-width:5;stroke-linecap:butt;stroke-linejoin:miter;stroke-miterlimit:4;stroke-dasharray:none;stroke-opacity:1"
         transform="matrix(0.13333333,0,0,-0.13333333,0,4608.6667)" />
      <path
         id="path4"
         d="m 1622.5,452.5 c -645.137,0 -1170,524.898 -1170,1170 v 31320 c 0,645.1 524.863,1170 1170,1170 h 22680 c 645.1,0 1170,-524.9 1170,-1170 v -31320 c 0,-645.102 -524.9,-1170 -1170,-1170 h -22680"
         style="fill:#231f20;fill-opacity:1;fill-rule:nonzero;stroke:none"
         transform="matrix(0.13333333,0,0,-0.13333333,0,4608.6667)" />
      <path
         id="path5"
         d="m 1622.5,1082.5 c -297.75,0 -540,242.3 -540,540 v 31320 c 0,297.8 242.25,540 540,540 h 22680 c 297.8,0 540,-242.2 540,-540 v -31320 c 0,-297.7 -242.2,-540 -540,-540 h -22680"
         style="fill:#ffffff;fill-opacity:1;fill-rule:nonzero;stroke:none"
         transform="matrix(0.13333333,0,0,-0.13333333,0,4608.6667)" />
      <path
         id="path6"
         d="m 9469.05,25382.5 v 5760 h 2716.05 v -808.4 h -1885 V 28878.9 H 11496 v -788.2 h -1195.9 v -1899.8 h 2108 v -808.4 H 9469.05"
         style="fill:#231f20;fill-opacity:1;fill-rule:nonzero;stroke:none"
         transform="matrix(0.13333333,0,0,-0.13333333,0,4608.6667)" />
      <path
         id="path7"
         d="m 13876.9,25382.5 v 5760 H 16593 v -808.4 h -1885.1 v -1455.2 h 1195.9 v -788.2 H 14707.9 V 26190.9 H 16816 v -808.4 h -2939.1"
         style="fill:#231f20;fill-opacity:1;fill-rule:nonzero;stroke:none"
         transform="matrix(0.13333333,0,0,-0.13333333,0,4608.6667)" />
      <path
         id="path8"
         d="m 7133,25382.5 -1008.44,2809.3 -524.41,-970.1 v -1839.2 h -826.94 v 5760 h 826.94 v -2304 l 1310.99,2304 h 947.95 l -1189.98,-2021 1331.15,-3739 H 7133"
         style="fill:#231f20;fill-opacity:1;fill-rule:nonzero;stroke:none"
         transform="matrix(0.13333333,0,0,-0.13333333,0,4608.6667)" />
      <path
         id="path9"
         d="m 19958.8,30334.1 h -847.1 V 28697 h 847.1 c 484,0 746.2,303.2 746.2,828.7 0,485 -302.5,808.4 -746.2,808.4 z m 40.3,-2425.3 h -887.4 v -2526.3 h -826.9 v 5760 h 1714.3 c 907.6,0 1512.7,-646.7 1512.7,-1616.8 0,-1051 -544.6,-1616.9 -1512.7,-1616.9"
         style="fill:#231f20;fill-opacity:1;fill-rule:nonzero;stroke:none"
         transform="matrix(0.13333333,0,0,-0.13333333,0,4608.6667)" />
      <path
         id="path10"
         d="m 13476.9,17449.9 c -223.2,-505.3 -690,-808.5 -1278.6,-808.5 -690.1,0 -1197.4,343.6 -1481.6,990.4 -182.7,424.4 -304.4,1232.8 -304.4,1980.6 0,808.4 60.9,1394.5 263.8,1940.2 203,606.3 791.6,1051 1461.3,1051 832.1,0 1461.3,-606.4 1501.9,-1455.2 h -832.1 c -20.3,384 -284.2,646.8 -690.1,646.8 -284.1,0 -507.4,-141.5 -649.4,-424.5 -162.4,-282.9 -263.9,-929.7 -263.9,-1616.8 0,-485.1 40.6,-990.3 121.8,-1435 121.7,-565.9 405.9,-869 852.4,-869 426.2,0 629.2,282.9 629.2,889.2 v 384 h -649.5 v 808.5 h 1481.6 v -1192.5 c 0,-404.2 -40.6,-646.7 -162.4,-889.2"
         style="fill:#231f20;fill-opacity:1;fill-rule:nonzero;stroke:none"
         transform="matrix(0.13333333,0,0,-0.13333333,0,4608.6667)" />
      <path
         id="path11"
         d="m 17767.4,16742.5 v 2607.2 h -1573.2 v -2607.2 h -826.9 v 5760 h 826.9 v -2344.4 h 1573.2 v 2344.4 h 826.9 v -5760 h -826.9"
         style="fill:#231f20;fill-opacity:1;fill-rule:nonzero;stroke:none"
         transform="matrix(0.13333333,0,0,-0.13333333,0,4608.6667)" />
      <path
         id="path12"
         d="m 7877.87,16742.5 v 5760 h 806.4 v -5760 h -806.4"
         style="fill:#231f20;fill-opacity:1;fill-rule:nonzero;stroke:none"
         transform="matrix(0.13333333,0,0,-0.13333333,0,4608.6667)" />
      <path
         id="path13"
         d="m 4856.06,21694.1 h -847.1 v -1455.2 h 847.1 c 484.07,0 746.25,262.8 746.25,727.6 0,444.6 -302.53,727.6 -746.25,727.6 z m 705.91,-4951.6 -766.42,2708.2 h -786.59 v -2708.2 h -826.93 v 5760 h 1714.36 c 907.62,0 1512.68,-606.3 1512.68,-1536 0,-687.1 -282.36,-1192.4 -826.92,-1394.5 l 826.92,-2829.5 h -847.1"
         style="fill:#231f20;fill-opacity:1;fill-rule:nonzero;stroke:none"
         transform="matrix(0.13333333,0,0,-0.13333333,0,4608.6667)" />
      <path
         id="path14"
         d="m 21688.9,21734.5 v -4992 h -831 v 4992 h -1054 v 768 H 22743 v -768 h -1054.1"
         style="fill:#231f20;fill-opacity:1;fill-rule:nonzero;stroke:none"
         transform="matrix(0.13333333,0,0,-0.13333333,0,4608.6667)" />
      <path
         id="path15"
         d="m 15799,6094.1 -303.9,-1243 h 623.1 z m 775.1,-3031.6 -303.9,1182.3 h -927 l -288.8,-1182.3 h -623.1 l 1079,4320 h 607.9 l 1079,-4320 h -623.1"
         style="fill:#231f20;fill-opacity:1;fill-rule:nonzero;stroke:none"
         transform="matrix(0.13333333,0,0,-0.13333333,0,4608.6667)" />
      <path
         id="path16"
         d="m 7519.72,6306.3 c -106.87,378.9 -274.83,545.7 -534.4,545.7 -274.84,0 -442.8,-166.8 -549.67,-530.6 -106.9,-333.4 -137.43,-621.4 -137.43,-1106.5 0,-469.9 45.82,-742.7 137.43,-1091.4 106.87,-363.7 274.83,-530.5 549.67,-530.5 259.57,0 427.53,166.8 534.4,530.5 106.88,348.7 137.4,606.4 137.4,1106.6 0,485 -45.79,757.9 -137.4,1076.2 z m 488.59,-2576.9 c -213.75,-515.3 -534.41,-742.7 -1022.99,-742.7 -519.14,0 -824.5,227.4 -1038.28,742.7 -183.23,424.5 -244.31,833.7 -244.31,1500.7 0,651.8 61.08,1091.3 244.31,1500.6 229.04,515.4 534.4,727.6 1038.28,727.6 503.87,0 809.24,-212.2 1022.99,-742.8 183.25,-424.4 244.3,-833.6 244.3,-1485.4 0,-667 -61.05,-1091.4 -244.3,-1500.7"
         style="fill:#231f20;fill-opacity:1;fill-rule:nonzero;stroke:none"
         transform="matrix(0.13333333,0,0,-0.13333333,0,4608.6667)" />
      <path
         id="path17"
         d="m 12748.1,6776.2 h -635.3 V 5548.4 h 635.3 c 363.1,0 559.7,227.4 559.7,621.5 0,363.8 -226.9,606.3 -559.7,606.3 z m 30.3,-1819 h -665.6 V 3062.5 h -620.2 v 4320 h 1285.8 c 680.7,0 1134.5,-485 1134.5,-1212.6 0,-788.2 -408.4,-1212.7 -1134.5,-1212.7"
         style="fill:#231f20;fill-opacity:1;fill-rule:nonzero;stroke:none"
         transform="matrix(0.13333333,0,0,-0.13333333,0,4608.6667)" />
      <path
         id="path18"
         d="m 18816.1,5057.5 c -186.9,121.1 -368.4,242.6 -484.2,324.1 -348.3,245.2 -532.8,576.1 -532.8,955 0,621.5 487.1,1121.7 1111.2,1121.7 608.9,0 1080.8,-469.9 1096,-1121.7 h -593.7 c -15.2,303.2 -228.3,500.2 -502.3,500.2 -289.2,0 -517.5,-212.2 -517.5,-500.2 0,-212.2 91.3,-333.5 411,-515.4 837.2,-485 1202.5,-954.9 1202.5,-1576.4 0,-697.3 -532.8,-1258.1 -1202.5,-1258.1 -761.1,0 -1217.8,636.6 -1217.8,1349 h 608.9 c 0,-363.7 182.7,-742.7 608.9,-742.7 334.8,0 608.8,303.2 608.8,651.8 0,270.7 -111.8,498.7 -596.5,812.7"
         style="fill:#231f20;fill-opacity:1;fill-rule:nonzero;stroke:none"
         transform="matrix(0.13333333,0,0,-0.13333333,0,4608.6667)" />
      <path
         id="path19"
         d="m 21754.8,5057.5 c -186.9,121.1 -368.4,242.6 -484.3,324.1 -348.2,245.2 -532.7,576.1 -532.7,955 0,621.5 487.1,1121.7 1111.2,1121.7 608.9,0 1080.7,-469.9 1095.9,-1121.7 h -593.6 c -15.2,303.2 -228.3,500.2 -502.3,500.2 -289.2,0 -517.6,-212.2 -517.6,-500.2 0,-212.2 91.4,-333.5 411,-515.4 837.2,-485 1202.5,-954.9 1202.5,-1576.4 0,-697.3 -532.7,-1258.1 -1202.5,-1258.1 -761.1,0 -1217.7,636.6 -1217.7,1349 h 608.9 c 0,-363.7 182.6,-742.7 608.8,-742.7 334.9,0 608.9,303.2 608.9,651.8 0,270.7 -111.9,498.7 -596.5,812.7"
         style="fill:#231f20;fill-opacity:1;fill-rule:nonzero;stroke:none"
         transform="matrix(0.13333333,0,0,-0.13333333,0,4608.6667)" />
      <path
         id="path20"
         d="m 4393.83,6806.5 v -3744 h -623.28 v 3744 h -790.5 v 576 h 2204.29 v -576 h -790.51"
         style="fill:#231f20;fill-opacity:1;fill-rule:nonzero;stroke:none"
         transform="matrix(0.13333333,0,0,-0.13333333,0,4608.6667)" />
      <path
         id="path21"
         d="m 11906.4,12710.5 c -60.9,424.4 -228.3,621.5 -517.6,621.5 -502.3,0 -684.9,-394.1 -684.9,-1515.8 0,-1243 213.1,-1743.2 745.8,-1743.2 365.4,0 456.7,303.2 456.7,621.5 h 624.1 c -15.2,-712.4 -471.9,-1227.8 -1080.8,-1227.8 -928.5,0 -1339.5,742.8 -1339.5,2334.3 0,1394.6 441.4,2137.3 1293.9,2137.3 350.1,0 654.5,-151.6 852.4,-439.6 167.4,-212.2 228.3,-394.1 274,-788.2 h -624.1"
         style="fill:#231f20;fill-opacity:1;fill-rule:nonzero;stroke:none"
         transform="matrix(0.13333333,0,0,-0.13333333,0,4608.6667)" />
      <path
         id="path22"
         d="m 4448.85,9542.5 v 4320 h 2037.04 v -606.3 H 5072.11 v -1091.4 h 896.92 v -591.1 H 5072.11 V 10148.8 H 6653.12 V 9542.5 H 4448.85"
         style="fill:#231f20;fill-opacity:1;fill-rule:nonzero;stroke:none"
         transform="matrix(0.13333333,0,0,-0.13333333,0,4608.6667)" />
      <path
         id="path23"
         d="m 13394.5,9542.5 v 4320 h 2037 v -606.3 h -1413.7 v -1091.4 h 896.9 v -591.1 h -896.9 v -1424.9 h 1581 v -606.3 h -2204.3"
         style="fill:#231f20;fill-opacity:1;fill-rule:nonzero;stroke:none"
         transform="matrix(0.13333333,0,0,-0.13333333,0,4608.6667)" />
      <path
         id="path24"
         d="m 17588.7,13256.2 h -635.3 v -1227.8 h 635.3 c 363,0 559.7,227.4 559.7,621.5 0,363.8 -226.9,606.3 -559.7,606.3 z m 30.3,-1819 h -665.6 V 9542.5 h -620.2 v 4320 H 17619 c 680.6,0 1134.4,-485 1134.4,-1212.6 0,-788.2 -408.4,-1212.7 -1134.4,-1212.7"
         style="fill:#231f20;fill-opacity:1;fill-rule:nonzero;stroke:none"
         transform="matrix(0.13333333,0,0,-0.13333333,0,4608.6667)" />
      <path
         id="path25"
         d="m 20685.6,13286.5 v -3744 h -623.2 v 3744 h -790.5 v 576 h 2204.3 v -576 h -790.6"
         style="fill:#231f20;fill-opacity:1;fill-rule:nonzero;stroke:none"
         transform="matrix(0.13333333,0,0,-0.13333333,0,4608.6667)" />
      <path
         id="path26"
         d="m 8920,9542.5 -610.76,1470.3 -610.73,-1470.3 h -656.58 l 946.66,2243.4 -885.58,2076.6 h 656.56 l 549.67,-1303.6 549.69,1303.6 h 656.56 L 8645.16,11785.9 9591.82,9542.5 H 8920"
         style="fill:#231f20;fill-opacity:1;fill-rule:nonzero;stroke:none"
         transform="matrix(0.13333333,0,0,-0.13333333,0,4608.6667)" />
    </g>
  </g>
</svg>
