<?xml version="1.0" encoding="UTF-8" standalone="no"?>
<!-- Created with Inkscape (http://www.inkscape.org/) -->

<svg
   version="1.1"
   id="svg1"
   width="4608.6665"
   height="5760.6665"
   viewBox="0 0 4608.6665 5760.6665"
   sodipodi:docname="tmpt3xityag.pdf"
   xmlns:inkscape="http://www.inkscape.org/namespaces/inkscape"
   xmlns:sodipodi="http://sodipodi.sourceforge.net/DTD/sodipodi-0.dtd"
   xmlns="http://www.w3.org/2000/svg"
   xmlns:svg="http://www.w3.org/2000/svg">
  <defs
     id="defs1" />
  <sodipodi:namedview
     id="namedview1"
     pagecolor="#ffffff"
     bordercolor="#000000"
     borderopacity="0.25"
     inkscape:showpageshadow="2"
     inkscape:pageopacity="0.0"
     inkscape:pagecheckerboard="0"
     inkscape:deskcolor="#d1d1d1">
    <inkscape:page
       x="0"
       y="0"
       inkscape:label="1"
       id="page1"
       width="4608.6665"
       height="5760.6665"
       margin="0"
       bleed="0" />
  </sodipodi:namedview>
  <g
     id="g1"
     inkscape:groupmode="layer"
     inkscape:label="1">
    <g
       id="group-R5">
      <path
         id="path2"
         d="m 34562.5,2162.5 c 0,-1192.898 -967.1,-2160 -2160,-2160 H 2162.5 C 969.566,2.5 2.5,969.602 2.5,2162.5 v 38880 c 0,1192.9 967.066,2160 2160,2160 h 30240 c 1192.9,0 2160,-967.1 2160,-2160 v -38880"
         style="fill:#ffffff;fill-opacity:1;fill-rule:nonzero;stroke:none"
         transform="matrix(0.13333333,0,0,-0.13333333,0,5760.6667)" />
      <path
         id="path3"
         d="m 34562.5,2162.5 c 0,-1192.898 -967.1,-2160 -2160,-2160 H 2162.5 C 969.566,2.5 2.5,969.602 2.5,2162.5 v 38880 c 0,1192.9 967.066,2160 2160,2160 h 30240 c 1192.9,0 2160,-967.1 2160,-2160 z"
         style="fill:none;stroke:#231f20;stroke-width:5;stroke-linecap:butt;stroke-linejoin:miter;stroke-miterlimit:4;stroke-dasharray:none;stroke-opacity:1"
         transform="matrix(0.13333333,0,0,-0.13333333,0,5760.6667)" />
      <path
         id="path4"
         d="m 2162.5,542.5 c -893.27,0 -1620,726.7 -1620,1620 v 38880 c 0,893.3 726.73,1620 1620,1620 h 30240 c 893.3,0 1620,-726.7 1620,-1620 v -38880 c 0,-893.3 -726.7,-1620 -1620,-1620 h -30240"
         style="fill:#231f20;fill-opacity:1;fill-rule:nonzero;stroke:none"
         transform="matrix(0.13333333,0,0,-0.13333333,0,5760.6667)" />
      <path
         id="path5"
         d="m 2162.5,1442.5 c -397.01,0 -720,323 -720,720 v 38880 c 0,397 322.99,720 720,720 h 30240 c 397,0 720,-323 720,-720 v -38880 c 0,-397 -323,-720 -720,-720 h -30240"
         style="fill:#ffffff;fill-opacity:1;fill-rule:nonzero;stroke:none"
         transform="matrix(0.13333333,0,0,-0.13333333,0,5760.6667)" />
      <path
         id="path6"
         d="m 27325.1,37259.4 c -202.1,101 -328.4,126.3 -682.1,126.3 H 25152.3 V 35617.2 H 26643 c 353.7,0 480,25.3 682.1,126.4 252.6,126.3 429.5,454.7 429.5,757.9 0,303.1 -176.9,606.3 -429.5,757.9 z m 480.1,-2551.6 c -328.5,-151.6 -758,-252.7 -1313.9,-252.7 h -1339 v -3132.6 h -1136.9 v 7200 h 2475.9 c 581.2,0 960.1,-50.5 1313.9,-227.3 631.6,-303.2 1111.6,-1061.1 1111.6,-1793.7 0,-757.9 -480,-1515.9 -1111.6,-1793.7"
         style="fill:#231f20;fill-opacity:1;fill-rule:nonzero;stroke:none"
         transform="matrix(0.13333333,0,0,-0.13333333,0,5760.6667)" />
      <path
         id="path7"
         d="M 10093.9,31322.5 8269.06,34733 7508.73,33798.3 V 31322.5 H 6368.2 v 7200 h 1140.53 v -2854.8 l 2281.02,2854.8 H 11259.7 L 9029.43,35718.3 11411.8,31322.5 h -1317.9"
         style="fill:#231f20;fill-opacity:1;fill-rule:nonzero;stroke:none"
         transform="matrix(0.13333333,0,0,-0.13333333,0,5760.6667)" />
      <path
         id="path8"
         d="m 12635.8,31322.5 v 7200 h 4238.7 v -1136.8 h -3103.4 v -1768.5 h 2094.2 v -1162.1 h -2094.2 v -1970.5 h 3330.5 v -1162.1 h -4465.8"
         style="fill:#231f20;fill-opacity:1;fill-rule:nonzero;stroke:none"
         transform="matrix(0.13333333,0,0,-0.13333333,0,5760.6667)" />
      <path
         id="path9"
         d="m 18325.6,31322.5 v 7200 h 4238.7 v -1136.8 h -3103.4 v -1768.5 h 2094.2 v -1162.1 h -2094.2 v -1970.5 h 3330.5 v -1162.1 h -4465.8"
         style="fill:#231f20;fill-opacity:1;fill-rule:nonzero;stroke:none"
         transform="matrix(0.13333333,0,0,-0.13333333,0,5760.6667)" />
      <path
         id="path10"
         d="m 10510.9,20522.5 v 7200 h 1152 v -7200 h -1152"
         style="fill:#231f20;fill-opacity:1;fill-rule:nonzero;stroke:none"
         transform="matrix(0.13333333,0,0,-0.13333333,0,5760.6667)" />
      <path
         id="path11"
         d="M 28504.8,26712 V 20522.5 H 27363 V 26712 h -1649.3 v 1010.5 h 4465.8 V 26712 h -1674.7"
         style="fill:#231f20;fill-opacity:1;fill-rule:nonzero;stroke:none"
         transform="matrix(0.13333333,0,0,-0.13333333,0,5760.6667)" />
      <path
         id="path12"
         d="m 7543.59,26459.3 c -176.81,101.1 -277.89,126.3 -656.87,126.3 h -1364.3 v -1768.4 h 1364.3 c 353.75,0 480.06,25.3 656.87,126.3 277.97,151.6 454.83,454.8 454.83,757.9 0,303.2 -176.86,606.4 -454.83,757.9 z m 505.32,-5936.8 -1162.19,3132.6 H 5522.42 V 20522.5 H 4385.53 v 7200 h 2374.86 c 555.86,0 934.82,-50.5 1288.52,-227.4 631.64,-303.2 1086.4,-1061 1086.4,-1793.7 0,-757.9 -454.76,-1515.8 -1111.64,-1818.9 l 1263.28,-3360 H 8048.91"
         style="fill:#231f20;fill-opacity:1;fill-rule:nonzero;stroke:none"
         transform="matrix(0.13333333,0,0,-0.13333333,0,5760.6667)" />
      <path
         id="path13"
         d="m 23496.8,20522.5 v 3132.6 h -2627.6 v -3132.6 h -1136.9 v 7200 h 1136.9 v -2905.3 h 2627.6 v 2905.3 h 1137 v -7200 h -1137"
         style="fill:#231f20;fill-opacity:1;fill-rule:nonzero;stroke:none"
         transform="matrix(0.13333333,0,0,-0.13333333,0,5760.6667)" />
      <path
         id="path14"
         d="m 15874.5,20396.1 c -1086.4,0 -1718.1,404.3 -2147.5,1313.7 -303.2,631.6 -480.1,1515.8 -480.1,2400 0,1162.1 328.5,2299 808.5,2930.6 429.5,530.5 1035.9,808.4 1844.4,808.4 1111.6,0 1768.5,-454.8 2248.5,-1591.6 l -1086.4,-429.4 c -303.1,631.5 -606.3,858.9 -1162.1,858.9 -581.1,0 -960.2,-252.7 -1212.8,-884.3 -176.8,-429.4 -277.9,-1086.2 -277.9,-1692.6 0,-757.9 126.3,-1515.8 353.7,-1970.5 227.4,-404.2 555.9,-581.1 985.3,-581.1 732.7,0 1263.3,454.8 1263.3,1111.6 v 303.2 h -1313.8 v 1136.8 h 2450.7 v -1440 c 0,-1313.7 -960,-2273.7 -2273.8,-2273.7"
         style="fill:#231f20;fill-opacity:1;fill-rule:nonzero;stroke:none"
         transform="matrix(0.13333333,0,0,-0.13333333,0,5760.6667)" />
      <path
         id="path15"
         d="m 20591.8,7499.3 -354.6,-1450.1 h 727 z m 904.2,-3536.8 -354.5,1379.4 h -1081.6 l -336.8,-1379.4 h -727 l 1258.8,5040 h 709.3 l 1258.8,-5040 h -727"
         style="fill:#231f20;fill-opacity:1;fill-rule:nonzero;stroke:none"
         transform="matrix(0.13333333,0,0,-0.13333333,0,5760.6667)" />
      <path
         id="path16"
         d="m 10932.6,7746.9 c -124.7,442.1 -320.7,636.7 -623.5,636.7 -320.62,0 -516.58,-194.6 -641.27,-619 -124.7,-389.1 -160.32,-725 -160.32,-1290.9 0,-548.3 53.45,-866.6 160.32,-1273.3 124.69,-424.4 320.65,-619 641.27,-619 302.8,0 498.8,194.6 623.5,619 124.7,406.7 160.3,707.4 160.3,1290.9 0,565.9 -53.4,884.2 -160.3,1255.6 z m 570,-3006.3 c -249.4,-601.3 -623.5,-866.5 -1193.5,-866.5 -605.65,0 -961.9,265.2 -1211.3,866.5 -213.78,495.1 -285.03,972.6 -285.03,1750.7 0,760.5 71.25,1273.3 285.03,1750.8 267.2,601.2 623.47,848.8 1211.3,848.8 587.9,0 944.1,-247.6 1193.5,-866.5 213.8,-495.2 285,-972.6 285,-1733.1 0,-778.1 -71.2,-1273.2 -285,-1750.7"
         style="fill:#231f20;fill-opacity:1;fill-rule:nonzero;stroke:none"
         transform="matrix(0.13333333,0,0,-0.13333333,0,5760.6667)" />
      <path
         id="path17"
         d="m 17032.4,8295.1 h -741.2 V 6862.7 h 741.2 c 423.6,0 653,265.3 653,725.1 0,424.4 -264.7,707.3 -653,707.3 z m 35.3,-2122.1 h -776.5 V 3962.5 h -723.6 v 5040 h 1500.1 c 794.1,0 1323.6,-565.9 1323.6,-1414.7 0,-919.6 -476.5,-1414.8 -1323.6,-1414.8"
         style="fill:#231f20;fill-opacity:1;fill-rule:nonzero;stroke:none"
         transform="matrix(0.13333333,0,0,-0.13333333,0,5760.6667)" />
      <path
         id="path18"
         d="m 24111.7,6290 c -218.1,141.3 -429.8,283.1 -565,378.2 -406.3,286 -621.5,672 -621.5,1114.1 0,725 568.3,1308.6 1296.4,1308.6 710.3,0 1260.9,-548.2 1278.6,-1308.6 h -692.6 c -17.7,353.7 -266.3,583.6 -586,583.6 -337.4,0 -603.8,-247.6 -603.8,-583.6 0,-247.6 106.5,-389.1 479.5,-601.3 976.7,-565.9 1402.9,-1114.1 1402.9,-1839.1 0,-813.5 -621.5,-1467.8 -1402.9,-1467.8 -888,0 -1420.7,742.7 -1420.7,1573.9 h 710.3 c 0,-424.5 213.1,-866.6 710.4,-866.6 390.7,0 710.3,353.7 710.3,760.5 0,315.8 -130.5,581.8 -695.9,948.1"
         style="fill:#231f20;fill-opacity:1;fill-rule:nonzero;stroke:none"
         transform="matrix(0.13333333,0,0,-0.13333333,0,5760.6667)" />
      <path
         id="path19"
         d="m 27540.2,6290 c -218.1,141.3 -429.8,283.1 -565,378.2 -406.3,286 -621.6,672 -621.6,1114.1 0,725 568.3,1308.6 1296.4,1308.6 710.4,0 1260.9,-548.2 1278.7,-1308.6 h -692.6 c -17.8,353.7 -266.4,583.6 -586.1,583.6 -337.4,0 -603.8,-247.6 -603.8,-583.6 0,-247.6 106.6,-389.1 479.5,-601.3 976.8,-565.9 1403,-1114.1 1403,-1839.1 0,-813.5 -621.6,-1467.8 -1403,-1467.8 -887.9,0 -1420.7,742.7 -1420.7,1573.9 h 710.4 c 0,-424.5 213.1,-866.6 710.3,-866.6 390.7,0 710.4,353.7 710.4,760.5 0,315.8 -130.5,581.8 -695.9,948.1"
         style="fill:#231f20;fill-opacity:1;fill-rule:nonzero;stroke:none"
         transform="matrix(0.13333333,0,0,-0.13333333,0,5760.6667)" />
      <path
         id="path20"
         d="m 7285.73,8330.5 v -4368 h -727.16 v 4368 h -922.25 v 672 h 2571.67 v -672 h -922.26"
         style="fill:#231f20;fill-opacity:1;fill-rule:nonzero;stroke:none"
         transform="matrix(0.13333333,0,0,-0.13333333,0,5760.6667)" />
      <path
         id="path21"
         d="m 16050.4,15578.5 c -71.1,495.1 -266.4,725.1 -603.8,725.1 -586.1,0 -799.2,-459.9 -799.2,-1768.5 0,-1450.1 248.6,-2033.7 870.2,-2033.7 426.2,0 532.8,353.7 532.8,725.1 h 728.1 c -17.8,-831.2 -550.5,-1432.4 -1260.9,-1432.4 -1083.3,0 -1562.8,866.5 -1562.8,2723.3 0,1627 515,2493.5 1509.5,2493.5 408.5,0 763.7,-176.8 994.5,-512.8 195.4,-247.6 266.4,-459.8 319.7,-919.6 h -728.1"
         style="fill:#231f20;fill-opacity:1;fill-rule:nonzero;stroke:none"
         transform="matrix(0.13333333,0,0,-0.13333333,0,5760.6667)" />
      <path
         id="path22"
         d="m 7349.9,11882.5 v 5040 h 2376.56 v -707.4 H 8077.04 v -1273.2 h 1046.42 v -689.7 H 8077.04 v -1662.3 h 1844.51 v -707.4 H 7349.9"
         style="fill:#231f20;fill-opacity:1;fill-rule:nonzero;stroke:none"
         transform="matrix(0.13333333,0,0,-0.13333333,0,5760.6667)" />
      <path
         id="path23"
         d="m 17786.5,11882.5 v 5040 H 20163 v -707.4 H 18513.6 V 14941.9 H 19560 v -689.7 h -1046.4 v -1662.4 h 1844.5 v -707.3 h -2571.6"
         style="fill:#231f20;fill-opacity:1;fill-rule:nonzero;stroke:none"
         transform="matrix(0.13333333,0,0,-0.13333333,0,5760.6667)" />
      <path
         id="path24"
         d="m 22679.7,16215.1 h -741.2 v -1432.4 h 741.2 c 423.6,0 653,265.2 653,725 0,424.5 -264.8,707.4 -653,707.4 z M 22715,14093 h -776.5 v -2210.5 h -723.6 v 5040 H 22715 c 794.1,0 1323.6,-565.9 1323.6,-1414.8 0,-919.5 -476.5,-1414.7 -1323.6,-1414.7"
         style="fill:#231f20;fill-opacity:1;fill-rule:nonzero;stroke:none"
         transform="matrix(0.13333333,0,0,-0.13333333,0,5760.6667)" />
      <path
         id="path25"
         d="m 26292.8,16250.5 v -4368 h -727.1 v 4368 h -922.3 v 672 h 2571.7 v -672 h -922.3"
         style="fill:#231f20;fill-opacity:1;fill-rule:nonzero;stroke:none"
         transform="matrix(0.13333333,0,0,-0.13333333,0,5760.6667)" />
      <path
         id="path26"
         d="m 12566.3,11882.5 -712.6,1715.3 -712.5,-1715.3 h -766 l 1104.4,2617.2 -1033.2,2422.8 h 766 l 641.3,-1520.9 641.3,1520.9 h 766 L 12245.6,14499.7 13350,11882.5 h -783.7"
         style="fill:#231f20;fill-opacity:1;fill-rule:nonzero;stroke:none"
         transform="matrix(0.13333333,0,0,-0.13333333,0,5760.6667)" />
    </g>
  </g>
</svg>
