<?xml version="1.0" standalone="no"?>
<svg width="1296px" height="1728px" viewBox="0 -936 1296 1728 " xmlns="http://www.w3.org/2000/svg" xmlns:xlink="http://www.w3.org/1999/xlink">
<title>generated by pstoedit</title>
<!-- generated by pstoedit version:4.02 -->
<g xml:space='preserve'>
<clipPath id="clippath1"> 	<path d="
	M 0 -936.5 
	L 0 792 
	L 1296.5 792 
	L 1296.5 -936.5 
	Z 
	" style="clip-rule:nonzero"/>
</clipPath>
<g style="clip-path:url(#clippath1)"> 
<g fill="#ffffff" fill-rule="nonzero" stroke-width="0" stroke-linejoin="miter" stroke-linecap="butt" stroke-miterlimit="10" >
	<path d="
	M 1296.25 683.75 
	C 1296.25 743.398 1247.9 791.75 1188.25 791.75 
	L 108.25 791.75 
	C 48.6016 791.75 0.25 743.398 0.25 683.75 
	L 0.25 -828.25 
	C 0.25 -887.9 48.6016 -936.25 108.25 -936.25 
	L 1188.25 -936.25 
	C 1247.9 -936.25 1296.25 -887.9 1296.25 -828.25 
	Z 
	"/>
</g>
<g stroke="#7f7f7f" fill="none" stroke-width="0.5" stroke-linejoin="miter" stroke-linecap="butt" stroke-miterlimit="4" >
	<path d="
	M 1296.25 683.75 
	C 1296.25 743.398 1247.9 791.75 1188.25 791.75 
	L 108.25 791.75 
	C 48.6016 791.75 0.25 743.398 0.25 683.75 
	L 0.25 -828.25 
	C 0.25 -887.9 48.6016 -936.25 108.25 -936.25 
	L 1188.25 -936.25 
	C 1247.9 -936.25 1296.25 -887.9 1296.25 -828.25 
	Z 
	"/>
</g>
<g fill="#7f7f7f" fill-rule="nonzero" stroke-width="0" stroke-linejoin="miter" stroke-linecap="butt" stroke-miterlimit="4" >
	<path d="
	M 108.25 764.75 
	C 63.5859 764.75 27.25 728.41 27.25 683.75 
	L 27.25 -828.25 
	C 27.25 -872.91 63.5859 -909.25 108.25 -909.25 
	L 1188.25 -909.25 
	C 1232.91 -909.25 1269.25 -872.91 1269.25 -828.25 
	L 1269.25 683.75 
	C 1269.25 728.41 1232.91 764.75 1188.25 764.75 
	Z 
	"/>
</g>
<g fill="#ffffff" fill-rule="nonzero" stroke-width="0" stroke-linejoin="miter" stroke-linecap="butt" stroke-miterlimit="4" >
	<path d="
	M 108.25 719.75 
	C 88.3984 719.75 72.25 703.602 72.25 683.75 
	L 72.25 -828.25 
	C 72.25 -848.1 88.3984 -864.25 108.25 -864.25 
	L 1188.25 -864.25 
	C 1208.1 -864.25 1224.25 -848.1 1224.25 -828.25 
	L 1224.25 683.75 
	C 1224.25 703.602 1208.1 719.75 1188.25 719.75 
	Z 
	"/>
</g>
<g fill="#7f7f7f" fill-rule="nonzero" stroke-width="0" stroke-linejoin="miter" stroke-linecap="butt" stroke-miterlimit="4" >
	<path d="
	M 252.656 -667.96 
	C 247.363 -683.11 238.285 -689.93 224.672 -689.93 
	L 198.957 -689.93 
	L 198.957 -534.57 
	L 224.672 -534.57 
	C 242.824 -534.57 252.656 -548.96 255.684 -565.64 
	C 257.195 -579.28 258.707 -594.44 258.707 -611.11 
	C 258.707 -635.37 256.438 -658.86 252.656 -667.96 
	Z 
	M 257.949 -514.1 
	C 250.387 -507.28 239.801 -504.25 227.699 -504.25 
	L 167.945 -504.25 
	L 167.945 -720.25 
	L 223.16 -720.25 
	C 241.313 -720.25 250.387 -717.98 257.949 -711.91 
	C 270.809 -702.82 279.887 -686.14 283.668 -664.16 
	C 286.691 -648.25 288.961 -629.3 288.961 -612.63 
	C 288.961 -562.61 279.129 -530.78 257.949 -514.1 
	Z 
	"/>
</g>
<g fill="#7f7f7f" fill-rule="nonzero" stroke-width="0" stroke-linejoin="miter" stroke-linecap="butt" stroke-miterlimit="4" >
	<path d="
	M 434.242 -666.44 
	C 428.898 -685.39 420.5 -693.72 407.523 -693.72 
	C 393.781 -693.72 385.383 -685.39 380.039 -667.2 
	C 374.695 -650.52 373.168 -636.13 373.168 -611.87 
	C 373.168 -588.38 375.457 -574.73 380.039 -557.3 
	C 385.383 -539.11 393.781 -530.78 407.523 -530.78 
	C 420.5 -530.78 428.898 -539.11 434.242 -557.3 
	C 439.586 -574.73 441.113 -587.62 441.113 -612.63 
	C 441.113 -636.88 438.824 -650.52 434.242 -666.44 
	Z 
	M 458.672 -537.6 
	C 447.984 -511.83 431.953 -500.46 407.523 -500.46 
	C 381.566 -500.46 366.297 -511.83 355.609 -537.6 
	C 346.445 -558.82 343.395 -579.28 343.395 -612.63 
	C 343.395 -645.22 346.445 -667.2 355.609 -687.66 
	C 367.059 -713.43 382.328 -724.04 407.523 -724.04 
	C 432.715 -724.04 447.984 -713.43 458.672 -686.9 
	C 467.836 -665.68 470.887 -645.22 470.887 -612.63 
	C 470.887 -579.28 467.836 -558.06 458.672 -537.6 
	Z 
	"/>
</g>
<g fill="#7f7f7f" fill-rule="nonzero" stroke-width="0" stroke-linejoin="miter" stroke-linecap="butt" stroke-miterlimit="4" >
	<path d="
	M 784.453 -504.25 
	L 717.898 -649.01 
	L 717.898 -504.25 
	L 686.887 -504.25 
	L 686.887 -720.25 
	L 717.898 -720.25 
	L 776.895 -590.65 
	L 776.895 -720.25 
	L 807.902 -720.25 
	L 807.902 -504.25 
	Z 
	"/>
</g>
<g fill="#7f7f7f" fill-rule="nonzero" stroke-width="0" stroke-linejoin="miter" stroke-linecap="butt" stroke-miterlimit="4" >
	<path d="
	M 950.594 -666.44 
	C 945.246 -685.39 936.852 -693.73 923.871 -693.73 
	C 910.129 -693.73 901.73 -685.39 896.387 -667.2 
	C 891.043 -650.52 889.516 -636.13 889.516 -611.87 
	C 889.516 -588.38 891.809 -574.73 896.387 -557.3 
	C 901.73 -539.11 910.129 -530.78 923.871 -530.78 
	C 936.852 -530.78 945.246 -539.11 950.594 -557.3 
	C 955.938 -574.73 957.461 -587.62 957.461 -612.63 
	C 957.461 -636.88 955.172 -650.52 950.594 -666.44 
	Z 
	M 975.02 -537.6 
	C 964.332 -511.83 948.301 -500.46 923.871 -500.46 
	C 897.914 -500.46 882.645 -511.83 871.957 -537.6 
	C 862.797 -558.82 859.742 -579.28 859.742 -612.63 
	C 859.742 -645.22 862.797 -667.2 871.957 -687.66 
	C 883.406 -713.43 898.68 -724.04 923.871 -724.04 
	C 949.063 -724.04 964.332 -713.43 975.02 -686.9 
	C 984.184 -665.68 987.234 -645.22 987.234 -612.63 
	C 987.234 -579.28 984.184 -558.06 975.02 -537.6 
	Z 
	"/>
</g>
<g fill="#7f7f7f" fill-rule="nonzero" stroke-width="0" stroke-linejoin="miter" stroke-linecap="butt" stroke-miterlimit="4" >
	<path d="
	M 1089.03 -691.45 
	L 1089.03 -504.25 
	L 1057.86 -504.25 
	L 1057.86 -691.45 
	L 1018.34 -691.45 
	L 1018.34 -720.25 
	L 1128.55 -720.25 
	L 1128.55 -691.45 
	Z 
	"/>
</g>
<g fill="#7f7f7f" fill-rule="nonzero" stroke-width="0" stroke-linejoin="miter" stroke-linecap="butt" stroke-miterlimit="4" >
	<path d="
	M 770.656 215.75 
	L 704.102 70.988 
	L 704.102 215.75 
	L 673.09 215.75 
	L 673.09 -0.25 
	L 704.102 -0.25 
	L 763.094 129.352 
	L 763.094 -0.25 
	L 794.105 -0.25 
	L 794.105 215.75 
	Z 
	"/>
</g>
<g fill="#7f7f7f" fill-rule="nonzero" stroke-width="0" stroke-linejoin="miter" stroke-linecap="butt" stroke-miterlimit="4" >
	<path d="
	M 593.246 53.562 
	C 587.902 34.613 579.504 26.273 566.523 26.273 
	C 552.781 26.273 544.387 34.613 539.043 52.805 
	C 533.695 69.48 532.172 83.879 532.172 108.129 
	C 532.172 131.629 534.461 145.27 539.043 162.699 
	C 544.387 180.891 552.781 189.219 566.523 189.219 
	C 579.504 189.219 587.902 180.891 593.246 162.699 
	C 598.59 145.27 600.117 132.379 600.117 107.371 
	C 600.117 83.121 597.824 69.48 593.246 53.562 
	Z 
	M 617.676 182.398 
	C 606.988 208.172 590.953 219.539 566.523 219.539 
	C 540.566 219.539 525.301 208.172 514.609 182.398 
	C 505.449 161.18 502.395 140.719 502.395 107.371 
	C 502.395 74.781 505.449 52.805 514.609 32.34 
	C 526.063 6.57001 541.332 -4.039 566.523 -4.039 
	C 591.719 -4.039 606.988 6.57001 617.676 33.098 
	C 626.836 54.316 629.891 74.781 629.891 107.371 
	C 629.891 140.719 626.836 161.941 617.676 182.398 
	Z 
	"/>
</g>
<g fill="#7f7f7f" fill-rule="nonzero" stroke-width="0" stroke-linejoin="miter" stroke-linecap="butt" stroke-miterlimit="4" >
	<path d="
	M 878.418 418.871 
	C 876.148 395.371 871.613 387.789 860.281 387.789 
	L 842.902 387.789 
	L 842.902 547.711 
	L 860.281 547.711 
	C 870.105 547.711 875.395 540.891 878.418 524.969 
	C 879.172 517.391 880.684 493.141 880.684 474.191 
	C 880.684 458.281 879.172 434.02 878.418 418.871 
	Z 
	M 904.105 412.039 
	C 906.578 429.539 908.641 449.18 908.641 467.371 
	C 908.641 518.148 901.84 550.738 888.992 565.141 
	C 882.949 571.961 872.371 575.75 860.281 575.75 
	L 815.703 575.75 
	L 815.703 359.75 
	L 860.281 359.75 
	C 875.395 359.75 885.973 365.059 892.77 375.672 
	C 898.063 384 902.184 398.461 904.105 412.039 
	Z 
	"/>
</g>
<g fill="#7f7f7f" fill-rule="nonzero" stroke-width="0" stroke-linejoin="miter" stroke-linecap="butt" stroke-miterlimit="4" >
	<path d="
	M 957.887 575.75 
	L 957.887 359.75 
	L 1037.01 359.75 
	L 1037.01 387.789 
	L 985.016 387.789 
	L 985.016 443.121 
	L 1019.67 443.121 
	L 1019.67 471.922 
	L 985.016 471.922 
	L 985.016 547.711 
	L 1040.02 547.711 
	L 1040.02 575.75 
	Z 
	"/>
</g>
<g fill="#7f7f7f" fill-rule="nonzero" stroke-width="0" stroke-linejoin="miter" stroke-linecap="butt" stroke-miterlimit="4" >
	<path d="
	M 322.215 575.75 
	L 322.215 474.949 
	L 283.68 474.949 
	L 283.68 575.75 
	L 256.48 575.75 
	L 256.48 359.75 
	L 283.68 359.75 
	L 283.68 446.91 
	L 322.215 446.91 
	L 322.215 359.75 
	L 349.414 359.75 
	L 349.414 575.75 
	Z 
	"/>
</g>
<g fill="#7f7f7f" fill-rule="nonzero" stroke-width="0" stroke-linejoin="miter" stroke-linecap="butt" stroke-miterlimit="4" >
	<path d="
	M 697.281 575.75 
	L 697.281 359.75 
	L 724.41 359.75 
	L 724.41 550.738 
	L 779.418 550.738 
	L 779.418 575.75 
	Z 
	"/>
</g>
<g fill="#7f7f7f" fill-rule="nonzero" stroke-width="0" stroke-linejoin="miter" stroke-linecap="butt" stroke-miterlimit="4" >
	<path d="
	M 448.383 384.762 
	C 423.371 384.762 426.777 452.211 426.777 467.371 
	C 426.777 481.77 423.371 551.5 448.383 551.5 
	C 472.637 551.5 469.23 481.77 469.23 467.371 
	C 469.23 449.941 468.848 384.762 448.383 384.762 
	Z 
	M 448.383 579.539 
	C 394.57 579.539 398.734 502.988 398.734 467.371 
	C 398.734 430.23 395.328 356.719 448.383 356.719 
	C 501.438 356.719 498.031 430.988 498.031 467.371 
	C 498.031 502.988 501.438 579.539 448.383 579.539 
	Z 
	"/>
</g>
<g fill="#7f7f7f" fill-rule="nonzero" stroke-width="0" stroke-linejoin="miter" stroke-linecap="butt" stroke-miterlimit="4" >
	<path d="
	M 1122.08 387.789 
	L 1108.8 387.789 
	L 1108.8 446.91 
	L 1126.63 446.91 
	C 1141.81 446.91 1146.36 440.09 1146.36 419.621 
	C 1146.36 395.371 1141.05 387.789 1122.08 387.789 
	Z 
	M 1151.67 468.129 
	L 1173.67 575.75 
	L 1145.6 575.75 
	L 1121.32 474.949 
	L 1108.8 474.949 
	L 1108.8 575.75 
	L 1081.49 575.75 
	L 1081.49 359.75 
	L 1123.6 359.75 
	C 1156.98 359.75 1174.43 380.211 1174.43 420.379 
	C 1174.43 444.629 1167.6 458.281 1151.67 468.129 
	Z 
	"/>
</g>
<g fill="#7f7f7f" fill-rule="nonzero" stroke-width="0" stroke-linejoin="miter" stroke-linecap="butt" stroke-miterlimit="4" >
	<path d="
	M 204.387 482.531 
	C 210.621 495.91 215.008 514.359 215.008 529.52 
	C 215.008 544.68 208.18 560.59 197.559 569.691 
	C 190.73 575.75 181.059 579.539 169.68 579.539 
	C 139.336 579.539 123.59 559.84 122.074 521.941 
	L 150.141 521.941 
	C 150.141 530.281 150.898 533.309 152.418 537.859 
	C 154.691 546.191 161.332 551.5 169.68 551.5 
	C 180.301 551.5 186.938 543.16 186.938 529.52 
	C 186.938 510.57 180.301 494.66 163.609 474.949 
	C 153.746 463.578 147.105 455.25 144.832 452.211 
	C 132.691 437.809 127.383 422.66 127.383 407.5 
	C 127.383 377.941 145.402 356.719 171.195 356.719 
	C 197.746 356.719 211.973 373.391 215.008 407.5 
	L 186.938 407.5 
	C 186.18 390.82 181.816 384 171.953 384 
	C 161.332 384 155.453 393.102 155.453 407.5 
	C 155.453 417.352 159.059 424.93 170.438 437.059 
	C 193.953 463.578 197.945 468.699 204.387 482.531 
	Z 
	"/>
</g>
<g fill="#7f7f7f" fill-rule="nonzero" stroke-width="0" stroke-linejoin="miter" stroke-linecap="butt" stroke-miterlimit="4" >
	<path d="
	M 633.441 556.801 
	C 625.113 572.719 613.004 579.539 594.074 579.539 
	C 572.117 579.539 558.68 569.691 551.109 549.98 
	C 548.84 543.16 547.324 535.578 547.324 522.699 
	L 547.324 359.75 
	L 574.578 359.75 
	L 574.578 526.488 
	C 574.578 542.398 581.203 551.5 594.074 551.5 
	C 606.188 551.5 613.004 542.398 613.004 526.488 
	L 613.004 359.75 
	L 640.258 359.75 
	L 640.258 522.699 
	C 640.258 537.859 637.984 548.469 633.441 556.801 
	Z 
	"/>
</g>
<g fill="#7f7f7f" fill-rule="nonzero" stroke-width="0" stroke-linejoin="miter" stroke-linecap="butt" stroke-miterlimit="4" >
	<path d="
	M 577.262 -295.83 
	L 562.066 -233.68 
	L 593.219 -233.68 
	Z 
	M 616.016 -144.25 
	L 600.816 -203.367 
	L 554.469 -203.367 
	L 540.031 -144.25 
	L 508.875 -144.25 
	L 562.824 -360.25 
	L 593.219 -360.25 
	L 647.168 -144.25 
	Z 
	"/>
</g>
<g fill="#7f7f7f" fill-rule="nonzero" stroke-width="0" stroke-linejoin="miter" stroke-linecap="butt" stroke-miterlimit="4" >
	<path d="
	M 424.715 -329.93 
	L 392.949 -329.93 
	L 392.949 -268.55 
	L 424.715 -268.55 
	C 442.867 -268.55 452.699 -279.91 452.699 -299.62 
	C 452.699 -317.81 441.355 -329.93 424.715 -329.93 
	Z 
	M 426.23 -238.99 
	L 392.949 -238.99 
	L 392.949 -144.25 
	L 361.941 -144.25 
	L 361.941 -360.25 
	L 426.23 -360.25 
	C 460.266 -360.25 482.953 -336 482.953 -299.62 
	C 482.953 -260.21 462.531 -238.99 426.23 -238.99 
	Z 
	"/>
</g>
<g fill="#7f7f7f" fill-rule="nonzero" stroke-width="0" stroke-linejoin="miter" stroke-linecap="butt" stroke-miterlimit="4" >
	<path d="
	M 728.117 -244 
	C 718.77 -250.06 709.695 -256.13 703.902 -260.21 
	C 686.488 -272.46 677.266 -289.01 677.266 -307.96 
	C 677.266 -339.03 701.621 -364.04 732.824 -364.04 
	C 763.27 -364.04 786.863 -340.55 787.625 -307.96 
	L 757.941 -307.96 
	C 757.18 -323.11 746.527 -332.96 732.824 -332.96 
	C 718.363 -332.96 706.949 -322.36 706.949 -307.96 
	C 706.949 -297.35 711.516 -291.28 727.496 -282.19 
	C 769.359 -257.93 787.625 -234.44 787.625 -203.367 
	C 787.625 -168.504 760.984 -140.461 727.496 -140.461 
	C 689.441 -140.461 666.609 -172.293 666.609 -207.914 
	L 697.055 -207.914 
	C 697.055 -189.727 706.188 -170.777 727.496 -170.777 
	C 744.242 -170.777 757.941 -185.934 757.941 -203.367 
	C 757.941 -216.9 752.348 -228.3 728.117 -244 
	Z 
	"/>
</g>
<g fill="#7f7f7f" fill-rule="nonzero" stroke-width="0" stroke-linejoin="miter" stroke-linecap="butt" stroke-miterlimit="4" >
	<path d="
	M 875.051 -244 
	C 865.703 -250.06 856.633 -256.13 850.836 -260.21 
	C 833.422 -272.46 824.199 -289.01 824.199 -307.96 
	C 824.199 -339.03 848.555 -364.04 879.758 -364.04 
	C 910.203 -364.04 933.797 -340.55 934.559 -307.96 
	L 904.875 -307.96 
	C 904.113 -323.11 893.461 -332.96 879.758 -332.96 
	C 865.297 -332.96 853.883 -322.36 853.883 -307.96 
	C 853.883 -297.35 858.449 -291.28 874.434 -282.19 
	C 916.293 -257.93 934.559 -234.44 934.559 -203.367 
	C 934.559 -168.504 907.918 -140.461 874.434 -140.461 
	C 836.375 -140.461 813.543 -172.293 813.543 -207.914 
	L 843.988 -207.914 
	C 843.988 -189.727 853.121 -170.777 874.434 -170.777 
	C 891.176 -170.777 904.875 -185.934 904.875 -203.367 
	C 904.875 -216.9 899.281 -228.3 875.051 -244 
	Z 
	"/>
</g>
</g >
</g>
</svg>
