<?xml version="1.0" encoding="UTF-8" standalone="no"?>
<!-- Created with Inkscape (http://www.inkscape.org/) -->

<svg
   version="1.1"
   id="svg1"
   width="2304.6667"
   height="2880.6667"
   viewBox="0 0 2304.6667 2880.6667"
   sodipodi:docname="tmplj5wpxkh.pdf"
   xmlns:inkscape="http://www.inkscape.org/namespaces/inkscape"
   xmlns:sodipodi="http://sodipodi.sourceforge.net/DTD/sodipodi-0.dtd"
   xmlns="http://www.w3.org/2000/svg"
   xmlns:svg="http://www.w3.org/2000/svg">
  <defs
     id="defs1" />
  <sodipodi:namedview
     id="namedview1"
     pagecolor="#ffffff"
     bordercolor="#000000"
     borderopacity="0.25"
     inkscape:showpageshadow="2"
     inkscape:pageopacity="0.0"
     inkscape:pagecheckerboard="0"
     inkscape:deskcolor="#d1d1d1">
    <inkscape:page
       x="0"
       y="0"
       inkscape:label="1"
       id="page1"
       width="2304.6667"
       height="2880.6667"
       margin="0"
       bleed="0" />
  </sodipodi:namedview>
  <g
     id="g1"
     inkscape:groupmode="layer"
     inkscape:label="1">
    <g
       id="group-R5">
      <path
         id="path2"
         d="M 1082.5,1.20313 C 486.301,1.20313 1.25,486.301 1.25,1082.5 v 19440 c 0,596.2 485.051,1081.3 1081.25,1081.3 h 15120 c 596.2,0 1081.3,-485.1 1081.3,-1081.3 V 1082.5 C 17283.8,486.301 16798.7,1.20313 16202.5,1.20313 h -15120"
         style="fill:#ffffff;fill-opacity:1;fill-rule:nonzero;stroke:none"
         transform="matrix(0.13333333,0,0,-0.13333333,0,2880.6667)" />
      <path
         id="path3"
         d="m 16202.5,21605 h -15120 c -287.953,0 -559.465,-112.9 -764.52,-318 C 112.93,21082 0,20810.5 0,20522.5 V 1082.5 C 0,794.5 112.93,523 317.98,318 523.035,112.902 794.547,0 1082.5,0 h 15120 c 288,0 559.5,112.902 764.5,318 205.1,205 318,476.5 318,764.5 v 19440 c 0,288 -112.9,559.5 -318,764.5 -205,205.1 -476.5,318 -764.5,318 z m 0,-2.5 c 594,0 1080,-486 1080,-1080 v -19440 c 0,-594 -486,-1080 -1080,-1080 h -15120 c -594,0 -1080,486 -1080,1080 v 19440 c 0,594 486,1080 1080,1080 h 15120"
         style="fill:#231f20;fill-opacity:1;fill-rule:nonzero;stroke:none"
         transform="matrix(0.13333333,0,0,-0.13333333,0,2880.6667)" />
      <path
         id="path4"
         d="m 1082.5,272.5 c -446.637,0 -810,363.402 -810,810 v 19440 c 0,446.6 363.363,810 810,810 h 15120 c 446.6,0 810,-363.4 810,-810 v -19440 c 0,-446.598 -363.4,-810 -810,-810 h -15120"
         style="fill:#231f20;fill-opacity:1;fill-rule:nonzero;stroke:none"
         transform="matrix(0.13333333,0,0,-0.13333333,0,2880.6667)" />
      <path
         id="path5"
         d="m 1082.5,722.5 c -198.5,0 -360,161.5 -360,360 v 19440 c 0,198.5 161.5,360 360,360 h 15120 c 198.5,0 360,-161.5 360,-360 v -19440 c 0,-198.5 -161.5,-360 -360,-360 h -15120"
         style="fill:#ffffff;fill-opacity:1;fill-rule:nonzero;stroke:none"
         transform="matrix(0.13333333,0,0,-0.13333333,0,2880.6667)" />
      <path
         id="path6"
         d="m 6659.99,18400.5 h -773.28 v -2940.3 h 725.22 c 628.56,0 834.85,761.4 834.85,1574.6 0,386.7 -110.17,1365.7 -786.79,1365.7 z m -1454.77,-3638 v 4320 h 1558.45 c 1090.27,0 1382.41,-1435.9 1382.41,-2062.8 0,-1620.5 -833.22,-2257.2 -1379.71,-2257.2 H 5205.22"
         style="fill:#231f20;fill-opacity:1;fill-rule:nonzero;stroke:none"
         transform="matrix(0.13333333,0,0,-0.13333333,0,2880.6667)" />
      <path
         id="path7"
         d="M 4223.11,11567.7 V 8642.5 h -681.45 v 4320 h 681.45 l 1576.74,-2758.9 v 2758.9 h 682.53 v -4320 h -606.4 l -1652.87,2925.2"
         style="fill:#231f20;fill-opacity:1;fill-rule:nonzero;stroke:none"
         transform="matrix(0.13333333,0,0,-0.13333333,0,2880.6667)" />
      <path
         id="path8"
         d="m 12738.4,8642.5 h -685.2 v 3713.6 H 11064 v 606.4 h 2679.3 v -606.4 H 12738.4 V 8642.5"
         style="fill:#231f20;fill-opacity:1;fill-rule:nonzero;stroke:none"
         transform="matrix(0.13333333,0,0,-0.13333333,0,2880.6667)" />
      <path
         id="path9"
         d="m 10552.6,15383.5 c 465.5,0 843.5,441.2 843.5,1539 0,1097.8 -378,1539 -843.5,1539 -465.5,0 -843.47,-440.6 -843.47,-1539 0,-1097.8 377.97,-1539 843.47,-1539 z m 1527.1,1539 c 0,-155 33,-2235.6 -1534.6,-2235.6 -1567.66,0 -1534.72,2080.6 -1534.72,2235.6 0,155 -32.94,2235.1 1534.72,2235.1 1567.6,0 1534.6,-2080.1 1534.6,-2235.1"
         style="fill:#231f20;fill-opacity:1;fill-rule:nonzero;stroke:none"
         transform="matrix(0.13333333,0,0,-0.13333333,0,2880.6667)" />
      <path
         id="path10"
         d="m 8975.13,9263.5 c 465.49,0 843.48,441.2 843.48,1539 0,1097.8 -377.99,1539 -843.48,1539 -465.47,0 -843.47,-440.6 -843.47,-1539 0,-1097.8 378,-1539 843.47,-1539 z m 1527.17,1539 c 0,-155 32.9,-2235.6 -1534.72,-2235.6 -1567.62,0 -1534.68,2080.6 -1534.68,2235.6 0,155 -32.94,2235.1 1534.68,2235.1 1567.62,0 1534.72,-2080.1 1534.72,-2235.1"
         style="fill:#231f20;fill-opacity:1;fill-rule:nonzero;stroke:none"
         transform="matrix(0.13333333,0,0,-0.13333333,0,2880.6667)" />
      <path
         id="path11"
         d="m 2557.37,5099.4 h 961.68 c 542.12,0 599.9,390.9 599.9,530.3 0,202.5 -152.28,530.8 -576.69,530.8 h -984.89 z m 804.55,-697.2 H 2557.37 V 2522.5 h -681.43 v 4320 h 1632.85 c 1016.21,0 1307.79,-826.2 1307.79,-1212.8 0,-268.4 -147.42,-1227.5 -1454.66,-1227.5"
         style="fill:#231f20;fill-opacity:1;fill-rule:nonzero;stroke:none"
         transform="matrix(0.13333333,0,0,-0.13333333,0,2880.6667)" />
      <path
         id="path12"
         d="m 6478.73,4432.5 h 868.81 L 6920.43,5644.8 Z M 7591.06,3735.4 H 6234.67 L 5807.56,2522.5 h -731.65 l 1494.08,4320 h 686.29 l 1493.53,-4320 h -731.64 l -427.11,1212.9"
         style="fill:#231f20;fill-opacity:1;fill-rule:nonzero;stroke:none"
         transform="matrix(0.13333333,0,0,-0.13333333,0,2880.6667)" />
      <path
         id="path13"
         d="m 9095.63,3536.1 651.2,241.9 c 181.96,-408.8 516.17,-635.6 924.97,-635.6 393.6,0 667.9,272.2 667.9,635.6 0,577.3 -667.9,665.8 -1227.9,893.2 -257.52,105.8 -832.58,363.4 -832.58,1074.6 0,848.3 575.06,1165.8 1347.18,1165.8 605.3,0 1014.1,-348.3 1226.3,-878 l -605.9,-181.5 c -99.9,195 -309.4,378.6 -672.2,378.6 -522.7,0 -631.24,-285.1 -631.24,-436.3 0,-403.4 348.24,-483.3 913.64,-661 575.6,-180.9 1179.3,-446 1179.3,-1370.5 -0.6,-932 -757.1,-1316.5 -1364.5,-1316.5 -741.93,0 -1288.37,438.5 -1576.17,1089.7"
         style="fill:#231f20;fill-opacity:1;fill-rule:nonzero;stroke:none"
         transform="matrix(0.13333333,0,0,-0.13333333,0,2880.6667)" />
      <path
         id="path14"
         d="m 12468.4,3536.1 651.2,241.9 c 182,-408.8 516.2,-635.6 925,-635.6 393.6,0 667.9,272.2 667.9,635.6 0,577.3 -667.9,665.8 -1227.9,893.2 -257.5,105.8 -832.6,363.4 -832.6,1074.6 0,848.3 575.1,1165.8 1347.2,1165.8 605.3,0 1014.1,-348.3 1226.3,-878 l -605.9,-181.5 c -99.9,195 -309.4,378.6 -672.2,378.6 -522.7,0 -631.2,-285.1 -631.2,-436.3 0,-403.4 348.3,-483.3 913.6,-661 575.6,-180.9 1179.3,-446 1179.3,-1370.5 -0.6,-932 -757.1,-1316.5 -1364.5,-1316.5 -741.9,0 -1288.4,438.5 -1576.2,1089.7"
         style="fill:#231f20;fill-opacity:1;fill-rule:nonzero;stroke:none"
         transform="matrix(0.13333333,0,0,-0.13333333,0,2880.6667)" />
    </g>
  </g>
</svg>
