<?xml version="1.0" encoding="UTF-8" standalone="no"?>
<!-- Created with Inkscape (http://www.inkscape.org/) -->

<svg
   version="1.1"
   id="svg1"
   width="2880.6667"
   height="4032.6667"
   viewBox="0 0 2880.6667 4032.6667"
   sodipodi:docname="tmpg_kdvvnk.pdf"
   xmlns:inkscape="http://www.inkscape.org/namespaces/inkscape"
   xmlns:sodipodi="http://sodipodi.sourceforge.net/DTD/sodipodi-0.dtd"
   xmlns="http://www.w3.org/2000/svg"
   xmlns:svg="http://www.w3.org/2000/svg">
  <defs
     id="defs1" />
  <sodipodi:namedview
     id="namedview1"
     pagecolor="#ffffff"
     bordercolor="#000000"
     borderopacity="0.25"
     inkscape:showpageshadow="2"
     inkscape:pageopacity="0.0"
     inkscape:pagecheckerboard="0"
     inkscape:deskcolor="#d1d1d1">
    <inkscape:page
       x="0"
       y="0"
       inkscape:label="1"
       id="page1"
       width="2880.6667"
       height="4032.6667"
       margin="0"
       bleed="0" />
  </sodipodi:namedview>
  <g
     id="g1"
     inkscape:groupmode="layer"
     inkscape:label="1">
    <g
       id="group-R5">
      <path
         id="path2"
         d="m 21602.5,1352.5 c 0,-745.602 -604.4,-1350 -1350,-1350 H 1352.5 C 606.914,2.5 2.5,606.898 2.5,1352.5 v 27540 c 0,745.6 604.414,1350 1350,1350 h 18900 c 745.6,0 1350,-604.4 1350,-1350 v -27540"
         style="fill:#ffffff;fill-opacity:1;fill-rule:nonzero;stroke:none"
         transform="matrix(0.13333333,0,0,-0.13333333,0,4032.6667)" />
      <path
         id="path3"
         d="m 21602.5,1352.5 c 0,-745.602 -604.4,-1350 -1350,-1350 H 1352.5 C 606.914,2.5 2.5,606.898 2.5,1352.5 v 27540 c 0,745.6 604.414,1350 1350,1350 h 18900 c 745.6,0 1350,-604.4 1350,-1350 z"
         style="fill:none;stroke:#231f20;stroke-width:5;stroke-linecap:butt;stroke-linejoin:miter;stroke-miterlimit:4;stroke-dasharray:none;stroke-opacity:1"
         transform="matrix(0.13333333,0,0,-0.13333333,0,4032.6667)" />
      <path
         id="path4"
         d="m 1352.5,362.5 c -545.891,0 -990,444.102 -990,990 v 27540 c 0,545.9 444.109,990 990,990 h 18900 c 545.9,0 990,-444.1 990,-990 v -27540 c 0,-545.898 -444.1,-990 -990,-990 h -18900"
         style="fill:#231f20;fill-opacity:1;fill-rule:nonzero;stroke:none"
         transform="matrix(0.13333333,0,0,-0.13333333,0,4032.6667)" />
      <path
         id="path5"
         d="m 1352.5,902.5 c -248.13,0 -450,201.9 -450,450 v 27540 c 0,248.1 201.87,450 450,450 h 18900 c 248.1,0 450,-201.9 450,-450 v -27540 c 0,-248.1 -201.9,-450 -450,-450 h -18900"
         style="fill:#ffffff;fill-opacity:1;fill-rule:nonzero;stroke:none"
         transform="matrix(0.13333333,0,0,-0.13333333,0,4032.6667)" />
      <path
         id="path6"
         d="M 10619.3,9362.5 9517.77,11312.8 V 9362.5 h -454.76 v 2880 h 454.76 l 1051.03,-1839.2 v 1839.2 h 454.8 v -2880 h -404.3"
         style="fill:#231f20;fill-opacity:1;fill-rule:nonzero;stroke:none"
         transform="matrix(0.13333333,0,0,-0.13333333,0,4032.6667)" />
      <path
         id="path7"
         d="m 14421.7,11605.8 c -91.1,151.6 -202.6,212.2 -374.8,222.4 -222.8,10.1 -364.7,-101.1 -465.9,-353.7 -71,-171.8 -111.5,-434.6 -111.5,-677.1 0,-303.1 60.8,-616.4 172.2,-798.3 91.2,-151.6 212.8,-222.3 395.1,-222.3 212.7,0 344.4,111.1 445.7,363.8 60.8,151.5 111.4,434.5 111.4,656.8 0,323.4 -60.7,616.4 -172.2,808.4 z m 314.1,-1970.5 c -162.1,-222.3 -395.1,-323.4 -699,-323.4 -405.2,0 -658.5,161.7 -830.7,515.4 -121.5,242.5 -202.5,626.5 -202.5,970.1 0,475 121.5,899.4 314,1172.2 172.2,222.4 405.2,323.4 739.5,323.4 364.6,0 617.9,-161.7 800.2,-515.4 121.6,-252.6 192.5,-616.4 192.5,-980.2 0,-454.7 -111.4,-909.5 -314,-1162.1"
         style="fill:#231f20;fill-opacity:1;fill-rule:nonzero;stroke:none"
         transform="matrix(0.13333333,0,0,-0.13333333,0,4032.6667)" />
      <path
         id="path8"
         d="m 5790.27,9797 c -151.6,-283 -495.19,-485.1 -848.9,-485.1 -353.71,0 -697.33,202.1 -848.91,485.1 -80.84,171.8 -131.39,373.9 -131.39,596.2 v 1849.3 h 454.77 v -1849.3 c 0,-373.9 212.23,-616.4 525.53,-616.4 313.28,0 525.51,242.5 525.51,616.4 v 1849.3 h 454.76 v -1849.3 c 0,-222.3 -50.53,-424.4 -131.37,-596.2"
         style="fill:#231f20;fill-opacity:1;fill-rule:nonzero;stroke:none"
         transform="matrix(0.13333333,0,0,-0.13333333,0,4032.6667)" />
      <path
         id="path9"
         d="m 17512.6,9797 c -151.6,-283 -495.2,-485.1 -848.9,-485.1 -353.8,0 -697.4,202.1 -849,485.1 -80.8,171.8 -131.3,373.9 -131.3,596.2 v 1849.3 h 454.7 v -1849.3 c 0,-373.9 212.3,-616.4 525.6,-616.4 313.2,0 525.5,242.5 525.5,616.4 v 1849.3 h 454.7 v -1849.3 c 0,-222.3 -50.5,-424.4 -131.3,-596.2"
         style="fill:#231f20;fill-opacity:1;fill-rule:nonzero;stroke:none"
         transform="matrix(0.13333333,0,0,-0.13333333,0,4032.6667)" />
      <path
         id="path10"
         d="M 2859.2,11838.3 V 9362.5 h -456.69 v 2475.8 h -659.75 v 404.2 h 1786.32 v -404.2 H 2859.2"
         style="fill:#231f20;fill-opacity:1;fill-rule:nonzero;stroke:none"
         transform="matrix(0.13333333,0,0,-0.13333333,0,4032.6667)" />
      <path
         id="path11"
         d="M 19192.4,11838.3 V 9362.5 h -456.7 v 2475.8 h -659.8 v 404.2 h 1786.3 v -404.2 h -669.8"
         style="fill:#231f20;fill-opacity:1;fill-rule:nonzero;stroke:none"
         transform="matrix(0.13333333,0,0,-0.13333333,0,4032.6667)" />
      <path
         id="path12"
         d="m 7876.06,11737.2 c -70.72,40.4 -111.15,50.5 -262.74,50.5 H 7067.6 v -707.3 h 545.72 c 141.49,0 192.02,10.1 262.74,50.5 111.2,60.6 181.94,181.9 181.94,303.1 0,121.3 -70.74,242.6 -181.94,303.2 z m 202.13,-2374.7 -464.87,1253 H 7067.6 v -1253 h -454.76 v 2880 h 949.94 c 222.35,0 373.94,-20.2 515.41,-91 252.66,-121.2 434.56,-424.4 434.56,-717.5 0,-303.1 -181.9,-606.3 -444.65,-727.5 l 505.31,-1344 h -495.22"
         style="fill:#231f20;fill-opacity:1;fill-rule:nonzero;stroke:none"
         transform="matrix(0.13333333,0,0,-0.13333333,0,4032.6667)" />
      <path
         id="path13"
         d="m 12033.5,26725.9 c -91.2,151.5 -202.6,212.2 -374.8,222.3 -222.9,10.1 -364.7,-101.1 -466,-353.7 -70.9,-171.8 -111.4,-434.5 -111.4,-677.1 0,-303.1 60.8,-616.4 172.2,-798.3 91.2,-151.6 212.7,-222.3 395.1,-222.3 212.7,0 344.4,111.2 445.7,363.8 60.8,151.6 111.4,434.5 111.4,656.8 0,323.4 -60.8,616.4 -172.2,808.5 z m 314,-1970.6 c -162.1,-222.3 -395.1,-323.4 -698.9,-323.4 -405.2,0 -658.5,161.8 -830.7,515.4 -121.6,242.6 -202.6,626.5 -202.6,970.1 0,475 121.6,899.4 314,1172.2 172.2,222.4 405.2,323.4 739.5,323.4 364.7,0 617.9,-161.7 800.3,-515.4 121.5,-252.6 192.4,-616.4 192.4,-980.2 0,-454.7 -111.4,-909.4 -314,-1162.1"
         style="fill:#231f20;fill-opacity:1;fill-rule:nonzero;stroke:none"
         transform="matrix(0.13333333,0,0,-0.13333333,0,4032.6667)" />
      <path
         id="path14"
         d="m 8454.59,24482.5 v 2880 h 454.14 v -2455.6 h 1332.17 v -424.4 H 8454.59"
         style="fill:#231f20;fill-opacity:1;fill-rule:nonzero;stroke:none"
         transform="matrix(0.13333333,0,0,-0.13333333,0,4032.6667)" />
      <path
         id="path15"
         d="m 15174.8,24482.5 h -405.4 l -456.2,1849.3 -446.1,-1849.3 h -405.4 l -425.8,2880 h 466.3 l 223,-1515.8 365,1515.8 h 446 l 375.1,-1515.8 223,1515.8 h 466.3 l -425.8,-2880"
         style="fill:#231f20;fill-opacity:1;fill-rule:nonzero;stroke:none"
         transform="matrix(0.13333333,0,0,-0.13333333,0,4032.6667)" />
      <path
         id="path16"
         d="M 7682.02,24654.3 C 7520.33,24512.8 7298,24432 7055.46,24432 c -495.19,0 -859,293 -1051.03,727.5 l 434.56,161.7 c 121.28,-272.8 343.6,-424.4 616.47,-424.4 262.75,0 444.66,181.9 444.66,424.4 0,384 -444.66,444.6 -818.6,596.2 -171.78,70.8 -555.81,242.5 -555.81,717.5 0,565.9 384.03,778.1 899.44,778.1 404.22,0 677.09,-232.4 818.56,-586.1 l -404.22,-121.2 c 0,0 -101.06,242.5 -424.46,252.6 -212.23,10.1 -464.88,-70.8 -444.66,-333.5 40.43,-535.6 1394.62,-181.9 1394.62,-1313.7 0,-262.7 -101.06,-495.1 -282.97,-656.8"
         style="fill:#231f20;fill-opacity:1;fill-rule:nonzero;stroke:none"
         transform="matrix(0.13333333,0,0,-0.13333333,0,4032.6667)" />
      <path
         id="path17"
         d="m 9606.58,19442.5 v 2880 h 460.82 v -2880 h -460.82"
         style="fill:#231f20;fill-opacity:1;fill-rule:nonzero;stroke:none"
         transform="matrix(0.13333333,0,0,-0.13333333,0,4032.6667)" />
      <path
         id="path18"
         d="m 13295.1,19442.5 v 2880 h 454.2 v -2455.6 h 1332.2 v -424.4 h -1786.4"
         style="fill:#231f20;fill-opacity:1;fill-rule:nonzero;stroke:none"
         transform="matrix(0.13333333,0,0,-0.13333333,0,4032.6667)" />
      <path
         id="path19"
         d="m 19265.4,19614.3 c -161.7,-141.5 -384.1,-222.4 -626.6,-222.4 -495.2,0 -859,293.1 -1051,727.6 l 434.5,161.7 c 121.3,-272.8 343.6,-424.4 616.5,-424.4 262.8,0 444.7,181.9 444.7,424.4 0,384 -444.7,444.6 -818.6,596.2 -171.8,70.8 -555.8,242.5 -555.8,717.5 0,565.9 384,778.1 899.4,778.1 404.2,0 677.1,-232.4 818.6,-586.1 l -404.3,-121.3 c 0,0 -101,242.6 -424.4,252.7 -212.3,10.1 -464.9,-70.8 -444.7,-333.5 40.5,-535.6 1394.6,-181.9 1394.6,-1313.7 0,-262.7 -101,-495.2 -282.9,-656.8"
         style="fill:#231f20;fill-opacity:1;fill-rule:nonzero;stroke:none"
         transform="matrix(0.13333333,0,0,-0.13333333,0,4032.6667)" />
      <path
         id="path20"
         d="m 3324.17,19442.5 h -354.9 l -912.6,2880 h 476.58 l 618.54,-1920 608.4,1920 h 486.71 l -922.73,-2880"
         style="fill:#231f20;fill-opacity:1;fill-rule:nonzero;stroke:none"
         transform="matrix(0.13333333,0,0,-0.13333333,0,4032.6667)" />
      <path
         id="path21"
         d="m 8460.63,19442.5 v 1253 H 7409.6 v -1253 h -454.77 v 2880 h 454.77 v -1162.1 h 1051.03 v 1162.1 h 454.77 v -2880 h -454.77"
         style="fill:#231f20;fill-opacity:1;fill-rule:nonzero;stroke:none"
         transform="matrix(0.13333333,0,0,-0.13333333,0,4032.6667)" />
      <path
         id="path22"
         d="m 4678.9,19442.5 v 2880 h 1695.48 v -454.8 H 5133.04 v -707.3 h 837.67 v -464.9 h -837.67 v -788.2 h 1332.18 v -464.8 H 4678.9"
         style="fill:#231f20;fill-opacity:1;fill-rule:nonzero;stroke:none"
         transform="matrix(0.13333333,0,0,-0.13333333,0,4032.6667)" />
      <path
         id="path23"
         d="m 15513.4,19442.5 v 2880 h 1695.5 v -454.8 h -1241.3 v -707.3 h 837.7 v -464.9 h -837.7 v -788.2 h 1332.2 v -464.8 h -1786.4"
         style="fill:#231f20;fill-opacity:1;fill-rule:nonzero;stroke:none"
         transform="matrix(0.13333333,0,0,-0.13333333,0,4032.6667)" />
      <path
         id="path24"
         d="m 11792.4,19391.9 c -424.4,0 -697.3,161.7 -879.2,515.4 -131.4,252.6 -212.2,616.4 -212.2,980.2 0,454.8 121.2,909.5 323.4,1162.1 171.8,212.2 414.3,323.4 737.7,323.4 434.6,0 707.4,-181.9 899.4,-586.1 l -424.4,-181.9 c -161.7,242.5 -252.7,303.2 -475,303.2 -232.4,0 -384,-101.1 -485.1,-353.7 -70.7,-171.8 -111.2,-424.5 -111.2,-667 0,-313.2 70.8,-626.5 182,-808.4 101,-151.6 232.4,-222.3 434.5,-222.3 192,0 333.5,101 444.7,333.4 l 434.5,-161.6 c -171.8,-424.5 -454.7,-636.7 -869.1,-636.7"
         style="fill:#231f20;fill-opacity:1;fill-rule:nonzero;stroke:none"
         transform="matrix(0.13333333,0,0,-0.13333333,0,4032.6667)" />
      <path
         id="path25"
         d="m 7558.64,14402.5 v 1667.3 l -668.28,-1667.3 -668.27,1667.3 v -1667.3 h -455.64 v 2880 h 455.64 l 668.27,-1616.9 668.28,1616.9 h 455.64 v -2880 h -455.64"
         style="fill:#231f20;fill-opacity:1;fill-rule:nonzero;stroke:none"
         transform="matrix(0.13333333,0,0,-0.13333333,0,4032.6667)" />
      <path
         id="path26"
         d="m 10880.3,14837 c -151.6,-283 -495.2,-485.1 -848.9,-485.1 -353.69,0 -697.31,202.1 -848.89,485.1 -80.84,171.8 -131.39,373.9 -131.39,596.2 v 1849.3 h 454.77 v -1849.3 c 0,-373.9 212.23,-616.4 525.51,-616.4 313.3,0 525.5,242.5 525.5,616.4 v 1849.3 h 454.8 v -1849.3 c 0,-222.3 -50.5,-424.4 -131.4,-596.2"
         style="fill:#231f20;fill-opacity:1;fill-rule:nonzero;stroke:none"
         transform="matrix(0.13333333,0,0,-0.13333333,0,4032.6667)" />
      <path
         id="path27"
         d="M 15168.7,16878.3 V 14402.5 H 14712 v 2475.8 h -659.8 v 404.2 h 1786.4 v -404.2 h -669.9"
         style="fill:#231f20;fill-opacity:1;fill-rule:nonzero;stroke:none"
         transform="matrix(0.13333333,0,0,-0.13333333,0,4032.6667)" />
      <path
         id="path28"
         d="m 13423.7,14574.3 c -161.7,-141.5 -384,-222.4 -626.6,-222.4 -495.1,0 -859,293.1 -1051,727.6 l 434.6,161.7 c 121.3,-272.8 343.6,-424.4 616.4,-424.4 262.8,0 444.7,181.9 444.7,424.4 0,384 -444.7,444.6 -818.6,596.2 -171.8,70.7 -555.8,242.5 -555.8,717.5 0,565.9 384,778.1 899.4,778.1 404.2,0 677.1,-232.4 818.6,-586.1 l -404.2,-121.3 c 0,0 -101.1,242.5 -424.5,252.6 -212.2,10.2 -464.9,-70.7 -444.6,-333.4 40.4,-535.6 1394.6,-181.9 1394.6,-1313.7 0,-262.7 -101.1,-495.2 -283,-656.8"
         style="fill:#231f20;fill-opacity:1;fill-rule:nonzero;stroke:none"
         transform="matrix(0.13333333,0,0,-0.13333333,0,4032.6667)" />
      <path
         id="path29"
         d="m 9945.97,6917.3 v 0 c -59.34,-11.7 -115.98,-40.5 -161.96,-86.4 -123.16,-123.2 -123.16,-322.9 0,-446 24.96,-25 53.11,-44.8 83.09,-59.6 l 912.4,-472.3 -2808.96,-2808.9 1145.5,-1145.6 2808.96,2809 472.2,-912.4 c 14.9,-30 34.7,-58.1 59.7,-83.1 123.1,-123.1 322.8,-123.1 446,0 45.9,46 74.7,102.6 86.4,162 v 0 l 645.2,3688.5 -3688.53,-645.2"
         style="fill:#231f20;fill-opacity:1;fill-rule:nonzero;stroke:none"
         transform="matrix(0.13333333,0,0,-0.13333333,0,4032.6667)" />
    </g>
  </g>
</svg>
