<?xml version="1.0" encoding="UTF-8" standalone="no"?>
<!-- Created with Inkscape (http://www.inkscape.org/) -->

<svg
   version="1.1"
   id="svg1"
   width="2304.6667"
   height="2880.6667"
   viewBox="0 0 2304.6667 2880.6667"
   sodipodi:docname="tmpsa5bxjqo.pdf"
   xmlns:inkscape="http://www.inkscape.org/namespaces/inkscape"
   xmlns:sodipodi="http://sodipodi.sourceforge.net/DTD/sodipodi-0.dtd"
   xmlns="http://www.w3.org/2000/svg"
   xmlns:svg="http://www.w3.org/2000/svg">
  <defs
     id="defs1" />
  <sodipodi:namedview
     id="namedview1"
     pagecolor="#ffffff"
     bordercolor="#000000"
     borderopacity="0.25"
     inkscape:showpageshadow="2"
     inkscape:pageopacity="0.0"
     inkscape:pagecheckerboard="0"
     inkscape:deskcolor="#d1d1d1">
    <inkscape:page
       x="0"
       y="0"
       inkscape:label="1"
       id="page1"
       width="2304.6667"
       height="2880.6667"
       margin="0"
       bleed="0" />
  </sodipodi:namedview>
  <g
     id="g1"
     inkscape:groupmode="layer"
     inkscape:label="1">
    <g
       id="group-R5">
      <path
         id="path2"
         d="M 17282.5,1082.5 C 17282.5,486 16799,2.5 16202.5,2.5 H 1082.5 C 486.031,2.5 2.5,486 2.5,1082.5 v 19440 c 0,596.5 483.531,1080 1080,1080 h 15120 c 596.5,0 1080,-483.5 1080,-1080 v -19440"
         style="fill:#ffffff;fill-opacity:1;fill-rule:nonzero;stroke:none"
         transform="matrix(0.13333333,0,0,-0.13333333,0,2880.6667)" />
      <path
         id="path3"
         d="M 17282.5,1082.5 C 17282.5,486 16799,2.5 16202.5,2.5 H 1082.5 C 486.031,2.5 2.5,486 2.5,1082.5 v 19440 c 0,596.5 483.531,1080 1080,1080 h 15120 c 596.5,0 1080,-483.5 1080,-1080 z"
         style="fill:none;stroke:#231f20;stroke-width:5;stroke-linecap:butt;stroke-linejoin:miter;stroke-miterlimit:4;stroke-dasharray:none;stroke-opacity:1"
         transform="matrix(0.13333333,0,0,-0.13333333,0,2880.6667)" />
      <path
         id="path4"
         d="m 1082.5,272.5 c -446.637,0 -810,363.402 -810,810 v 19440 c 0,446.6 363.363,810 810,810 h 15120 c 446.6,0 810,-363.4 810,-810 v -19440 c 0,-446.598 -363.4,-810 -810,-810 h -15120"
         style="fill:#231f20;fill-opacity:1;fill-rule:nonzero;stroke:none"
         transform="matrix(0.13333333,0,0,-0.13333333,0,2880.6667)" />
      <path
         id="path5"
         d="m 1082.5,722.5 c -198.508,0 -360,161.5 -360,360 v 19440 c 0,198.5 161.492,360 360,360 h 15120 c 198.5,0 360,-161.5 360,-360 v -19440 c 0,-198.5 -161.5,-360 -360,-360 h -15120"
         style="fill:#ffffff;fill-opacity:1;fill-rule:nonzero;stroke:none"
         transform="matrix(0.13333333,0,0,-0.13333333,0,2880.6667)" />
      <path
         id="path6"
         d="m 10533.5,4363.6 -202.6,-828.7 h 415.4 z m 516.7,-2021.1 -202.6,788.2 h -618 l -192.5,-788.2 h -415.38 l 719.28,2880 h 405.3 l 719.3,-2880 h -415.4"
         style="fill:#231f20;fill-opacity:1;fill-rule:nonzero;stroke:none"
         transform="matrix(0.13333333,0,0,-0.13333333,0,2880.6667)" />
      <path
         id="path7"
         d="m 5013.97,4505 c -71.25,252.7 -183.22,363.8 -356.26,363.8 -183.23,0 -295.2,-111.1 -366.45,-353.7 -71.26,-222.3 -91.61,-414.3 -91.61,-737.6 0,-313.3 30.54,-495.2 91.61,-727.6 71.25,-242.6 183.22,-353.7 366.45,-353.7 173.04,0 285.01,111.1 356.26,353.7 71.26,232.4 91.62,404.2 91.62,737.7 0,323.3 -30.54,505.2 -91.62,717.4 z m 325.74,-1717.9 c -142.51,-343.5 -356.27,-495.1 -682,-495.1 -346.1,0 -549.67,151.6 -692.18,495.1 -122.16,283 -162.87,555.8 -162.87,1000.5 0,434.5 40.71,727.5 162.87,1000.4 152.68,343.6 356.27,485 692.18,485 335.91,0 539.49,-141.4 682,-495.1 122.16,-283 162.87,-555.8 162.87,-990.3 0,-444.7 -40.71,-727.6 -162.87,-1000.5"
         style="fill:#231f20;fill-opacity:1;fill-rule:nonzero;stroke:none"
         transform="matrix(0.13333333,0,0,-0.13333333,0,2880.6667)" />
      <path
         id="path8"
         d="m 8499.59,4818.3 h -423.55 v -818.5 h 423.55 c 242.03,0 373.12,151.5 373.12,414.3 0,242.5 -151.26,404.2 -373.12,404.2 z m 20.18,-1212.6 H 8076.04 V 2342.5 h -413.46 v 2880 h 857.19 c 453.78,0 756.32,-323.4 756.32,-808.4 0,-525.5 -272.28,-808.4 -756.32,-808.4"
         style="fill:#231f20;fill-opacity:1;fill-rule:nonzero;stroke:none"
         transform="matrix(0.13333333,0,0,-0.13333333,0,2880.6667)" />
      <path
         id="path9"
         d="m 12544.9,3672.5 c -124.6,80.8 -245.6,161.8 -322.8,216.1 -232.2,163.4 -355.2,384 -355.2,636.6 0,414.4 324.7,747.8 740.8,747.8 405.9,0 720.5,-313.2 730.7,-747.8 h -395.8 c -10.2,202.1 -152.2,333.5 -334.9,333.5 -192.8,0 -345,-141.5 -345,-333.5 0,-141.4 60.9,-222.3 274,-343.5 558.1,-323.4 801.7,-636.7 801.7,-1051 0,-464.8 -355.2,-838.7 -801.7,-838.7 -507.4,0 -811.9,424.4 -811.9,899.3 h 405.9 c 0,-242.5 121.8,-495.1 406,-495.1 223.2,0 405.9,202.1 405.9,434.5 0,180.5 -74.6,332.5 -397.7,541.8"
         style="fill:#231f20;fill-opacity:1;fill-rule:nonzero;stroke:none"
         transform="matrix(0.13333333,0,0,-0.13333333,0,2880.6667)" />
      <path
         id="path10"
         d="m 14504,3672.5 c -124.6,80.8 -245.6,161.8 -322.8,216.1 -232.2,163.4 -355.2,384 -355.2,636.6 0,414.4 324.7,747.8 740.8,747.8 405.9,0 720.5,-313.2 730.7,-747.8 h -395.8 c -10.1,202.1 -152.2,333.5 -334.9,333.5 -192.8,0 -345,-141.5 -345,-333.5 0,-141.4 60.9,-222.3 274,-343.5 558.1,-323.4 801.7,-636.7 801.7,-1051 0,-464.8 -355.2,-838.7 -801.7,-838.7 -507.4,0 -811.9,424.4 -811.9,899.3 h 406 c 0,-242.5 121.7,-495.1 405.9,-495.1 223.2,0 405.9,202.1 405.9,434.5 0,180.5 -74.6,332.5 -397.7,541.8"
         style="fill:#231f20;fill-opacity:1;fill-rule:nonzero;stroke:none"
         transform="matrix(0.13333333,0,0,-0.13333333,0,2880.6667)" />
      <path
         id="path11"
         d="m 2930.06,4838.5 v -2496 h -415.52 v 2496 h -527 v 384 h 1469.52 v -384 h -527"
         style="fill:#231f20;fill-opacity:1;fill-rule:nonzero;stroke:none"
         transform="matrix(0.13333333,0,0,-0.13333333,0,2880.6667)" />
      <path
         id="path12"
         d="m 12972.7,18757.3 c -80.8,40.4 -131.4,50.5 -272.8,50.5 h -596.3 v -707.4 h 596.3 c 141.4,0 192,10.1 272.8,50.5 101.1,50.5 171.8,181.9 171.8,303.2 0,121.3 -70.7,242.5 -171.8,303.2 z m 192,-1020.7 c -131.3,-60.6 -303.1,-101 -525.5,-101 h -535.6 v -1253.1 h -454.8 v 2880 h 990.4 c 232.5,0 384.1,-20.2 525.5,-90.9 252.7,-121.3 444.7,-424.5 444.7,-717.5 0,-303.2 -192,-606.3 -444.7,-717.5"
         style="fill:#231f20;fill-opacity:1;fill-rule:nonzero;stroke:none"
         transform="matrix(0.13333333,0,0,-0.13333333,0,2880.6667)" />
      <path
         id="path13"
         d="m 5345.88,16382.5 -729.94,1364.2 -304.12,-373.9 v -990.3 h -456.21 v 2880 h 456.21 v -1141.9 l 912.39,1141.9 h 588 l -892.11,-1121.7 952.95,-1758.3 h -527.17"
         style="fill:#231f20;fill-opacity:1;fill-rule:nonzero;stroke:none"
         transform="matrix(0.13333333,0,0,-0.13333333,0,2880.6667)" />
      <path
         id="path14"
         d="m 6607.41,16382.5 v 2880 h 1695.48 v -454.7 H 7061.55 v -707.4 h 837.67 v -464.8 h -837.67 v -788.2 h 1332.19 v -464.9 H 6607.41"
         style="fill:#231f20;fill-opacity:1;fill-rule:nonzero;stroke:none"
         transform="matrix(0.13333333,0,0,-0.13333333,0,2880.6667)" />
      <path
         id="path15"
         d="m 9128.11,16382.5 v 2880 h 1695.49 v -454.7 H 9582.25 v -707.4 h 837.65 v -464.8 h -837.65 v -788.2 h 1332.15 v -464.9 H 9128.11"
         style="fill:#231f20;fill-opacity:1;fill-rule:nonzero;stroke:none"
         transform="matrix(0.13333333,0,0,-0.13333333,0,2880.6667)" />
      <path
         id="path16"
         d="m 5631.46,11702.5 v 2880 h 460.8 v -2880 h -460.8"
         style="fill:#231f20;fill-opacity:1;fill-rule:nonzero;stroke:none"
         transform="matrix(0.13333333,0,0,-0.13333333,0,2880.6667)" />
      <path
         id="path17"
         d="m 13678.6,14178.3 v -2475.8 h -456.7 v 2475.8 h -659.7 v 404.2 h 1786.3 v -404.2 h -669.9"
         style="fill:#231f20;fill-opacity:1;fill-rule:nonzero;stroke:none"
         transform="matrix(0.13333333,0,0,-0.13333333,0,2880.6667)" />
      <path
         id="path18"
         d="m 4199.73,14077.2 c -70.73,40.5 -111.16,50.6 -262.75,50.6 h -545.72 v -707.4 h 545.72 c 141.5,0 192.02,10.1 262.75,50.5 111.19,60.7 181.93,181.9 181.93,303.2 0,121.2 -70.74,242.5 -181.93,303.1 z m 202.13,-2374.7 -464.88,1253.1 H 3391.26 V 11702.5 H 2936.5 v 2880 h 949.95 c 222.34,0 373.93,-20.2 515.41,-90.9 252.65,-121.3 434.56,-424.5 434.56,-717.5 0,-303.2 -181.91,-606.3 -444.66,-727.6 l 505.31,-1344 h -495.21"
         style="fill:#231f20;fill-opacity:1;fill-rule:nonzero;stroke:none"
         transform="matrix(0.13333333,0,0,-0.13333333,0,2880.6667)" />
      <path
         id="path19"
         d="m 11459.4,11702.5 v 1253.1 h -1051 v -1253.1 h -454.79 v 2880 h 454.79 v -1162.1 h 1051 v 1162.1 h 454.8 v -2880 h -454.8"
         style="fill:#231f20;fill-opacity:1;fill-rule:nonzero;stroke:none"
         transform="matrix(0.13333333,0,0,-0.13333333,0,2880.6667)" />
      <path
         id="path20"
         d="m 8093.68,11652 c -434.56,0 -687.22,161.7 -859.01,525.4 -121.28,252.7 -192,606.4 -192,960 0,464.9 131.34,919.6 323.37,1172.3 171.8,212.2 414.36,323.3 737.74,323.3 444.68,0 707.41,-181.9 899.42,-636.6 l -434.55,-171.8 c -121.28,252.6 -242.54,343.6 -464.87,343.6 -232.43,0 -384.03,-101.1 -485.09,-353.7 -70.74,-171.8 -111.17,-434.5 -111.17,-677.1 0,-303.1 50.54,-606.3 141.48,-788.2 90.95,-161.7 222.35,-232.4 394.14,-232.4 293.06,0 505.32,181.9 505.32,444.6 v 121.3 h -525.54 v 454.7 h 980.28 v -576 c 0,-525.4 -384.01,-909.4 -909.52,-909.4"
         style="fill:#231f20;fill-opacity:1;fill-rule:nonzero;stroke:none"
         transform="matrix(0.13333333,0,0,-0.13333333,0,2880.6667)" />
      <path
         id="path21"
         d="m 7938.43,9134.5 c -40.59,282.9 -152.22,414.3 -345.03,414.3 -334.88,0 -456.65,-262.7 -456.65,-1010.5 0,-828.7 142.06,-1162.1 497.24,-1162.1 243.55,0 304.44,202.1 304.44,414.3 h 416.06 c -10.14,-475 -314.58,-818.5 -720.5,-818.5 -619.02,0 -893.01,495.1 -893.01,1556.2 0,929.7 294.28,1424.8 862.56,1424.8 233.4,0 436.37,-101 568.3,-293 111.62,-141.5 152.21,-262.8 182.65,-525.5 h -416.06"
         style="fill:#231f20;fill-opacity:1;fill-rule:nonzero;stroke:none"
         transform="matrix(0.13333333,0,0,-0.13333333,0,2880.6667)" />
      <path
         id="path22"
         d="m 2966.73,7022.5 v 2880 h 1358.03 v -404.2 h -942.52 v -727.6 h 597.95 v -394.1 h -597.95 v -949.9 h 1054 V 7022.5 H 2966.73"
         style="fill:#231f20;fill-opacity:1;fill-rule:nonzero;stroke:none"
         transform="matrix(0.13333333,0,0,-0.13333333,0,2880.6667)" />
      <path
         id="path23"
         d="m 8930.5,7022.5 v 2880 h 1358 v -404.2 h -942.49 v -727.6 h 597.95 V 8376.6 H 9346.01 V 7426.7 H 10400 V 7022.5 H 8930.5"
         style="fill:#231f20;fill-opacity:1;fill-rule:nonzero;stroke:none"
         transform="matrix(0.13333333,0,0,-0.13333333,0,2880.6667)" />
      <path
         id="path24"
         d="m 11726.6,9498.3 h -423.5 v -818.6 h 423.5 c 242.1,0 373.2,151.6 373.2,414.4 0,242.5 -151.3,404.2 -373.2,404.2 z m 20.2,-1212.7 h -443.7 V 7022.5 h -413.5 v 2880 h 857.2 c 453.8,0 756.3,-323.4 756.3,-808.4 0,-525.5 -272.3,-808.5 -756.3,-808.5"
         style="fill:#231f20;fill-opacity:1;fill-rule:nonzero;stroke:none"
         transform="matrix(0.13333333,0,0,-0.13333333,0,2880.6667)" />
      <path
         id="path25"
         d="m 13791.3,9518.5 v -2496 h -415.5 v 2496 h -527.1 v 384 h 1469.6 v -384 h -527"
         style="fill:#231f20;fill-opacity:1;fill-rule:nonzero;stroke:none"
         transform="matrix(0.13333333,0,0,-0.13333333,0,2880.6667)" />
      <path
         id="path26"
         d="m 5947.5,7022.5 -407.17,980.2 -407.16,-980.2 h -437.71 l 631.1,1495.6 -590.39,1384.4 h 437.72 l 366.44,-869.1 366.46,869.1 h 437.7 L 5764.28,8518.1 6395.38,7022.5 H 5947.5"
         style="fill:#231f20;fill-opacity:1;fill-rule:nonzero;stroke:none"
         transform="matrix(0.13333333,0,0,-0.13333333,0,2880.6667)" />
    </g>
  </g>
</svg>
