<?xml version="1.0" standalone="no"?>
<svg width="3456px" height="4320px" viewBox="0 -3528 3456 4320 " xmlns="http://www.w3.org/2000/svg" xmlns:xlink="http://www.w3.org/1999/xlink">
<title>generated by pstoedit</title>
<!-- generated by pstoedit version:4.02 -->
<g xml:space='preserve'>
<clipPath id="clippath1"> 	<path d="
	M 0 -3528.5 
	L 0 792 
	L 3456.5 792 
	L 3456.5 -3528.5 
	Z 
	" style="clip-rule:nonzero"/>
</clipPath>
<g style="clip-path:url(#clippath1)"> 
<g fill="#ffffff" fill-rule="nonzero" stroke-width="0" stroke-linejoin="miter" stroke-linecap="butt" stroke-miterlimit="10" >
	<path d="
	M 3456.25 575.75 
	C 3456.25 695.039 3359.54 791.75 3240.25 791.75 
	L 216.25 791.75 
	C 96.957 791.75 0.25 695.039 0.25 575.75 
	L 0.25 -3312.25 
	C 0.25 -3431.54 96.957 -3528.25 216.25 -3528.25 
	L 3240.25 -3528.25 
	C 3359.54 -3528.25 3456.25 -3431.54 3456.25 -3312.25 
	Z 
	"/>
</g>
<g stroke="#7f7f7f" fill="none" stroke-width="0.5" stroke-linejoin="miter" stroke-linecap="butt" stroke-miterlimit="4" >
	<path d="
	M 3456.25 575.75 
	C 3456.25 695.039 3359.54 791.75 3240.25 791.75 
	L 216.25 791.75 
	C 96.957 791.75 0.25 695.039 0.25 575.75 
	L 0.25 -3312.25 
	C 0.25 -3431.54 96.957 -3528.25 216.25 -3528.25 
	L 3240.25 -3528.25 
	C 3359.54 -3528.25 3456.25 -3431.54 3456.25 -3312.25 
	Z 
	"/>
</g>
<g fill="#7f7f7f" fill-rule="nonzero" stroke-width="0" stroke-linejoin="miter" stroke-linecap="butt" stroke-miterlimit="4" >
	<path d="
	M 216.25 737.75 
	C 126.922 737.75 54.25 665.082 54.25 575.75 
	L 54.25 -3312.25 
	C 54.25 -3401.58 126.922 -3474.25 216.25 -3474.25 
	L 3240.25 -3474.25 
	C 3329.58 -3474.25 3402.25 -3401.58 3402.25 -3312.25 
	L 3402.25 575.75 
	C 3402.25 665.082 3329.58 737.75 3240.25 737.75 
	Z 
	"/>
</g>
<g fill="#ffffff" fill-rule="nonzero" stroke-width="0" stroke-linejoin="miter" stroke-linecap="butt" stroke-miterlimit="4" >
	<path d="
	M 216.25 647.75 
	C 176.551 647.75 144.25 615.449 144.25 575.75 
	L 144.25 -3312.25 
	C 144.25 -3351.95 176.551 -3384.25 216.25 -3384.25 
	L 3240.25 -3384.25 
	C 3279.95 -3384.25 3312.25 -3351.95 3312.25 -3312.25 
	L 3312.25 575.75 
	C 3312.25 615.449 3279.95 647.75 3240.25 647.75 
	Z 
	"/>
</g>
<g fill="#7f7f7f" fill-rule="nonzero" stroke-width="0" stroke-linejoin="miter" stroke-linecap="butt" stroke-miterlimit="4" >
	<path d="
	M 709.332 -2848.8 
	C 695.215 -2889.22 671.012 -2907.41 634.707 -2907.41 
	L 566.137 -2907.41 
	L 566.137 -2493.09 
	L 634.707 -2493.09 
	C 683.113 -2493.09 709.332 -2531.49 717.402 -2575.96 
	C 721.434 -2612.34 725.469 -2652.75 725.469 -2697.22 
	C 725.469 -2761.89 719.418 -2824.55 709.332 -2848.8 
	Z 
	M 723.449 -2438.52 
	C 703.281 -2420.33 675.047 -2412.25 642.777 -2412.25 
	L 483.441 -2412.25 
	L 483.441 -2988.25 
	L 630.676 -2988.25 
	C 679.078 -2988.25 703.281 -2982.19 723.449 -2966.02 
	C 757.738 -2941.77 781.941 -2897.3 792.027 -2838.69 
	C 800.094 -2796.25 806.145 -2745.73 806.145 -2701.26 
	C 806.145 -2567.87 779.926 -2482.99 723.449 -2438.52 
	Z 
	"/>
</g>
<g fill="#7f7f7f" fill-rule="nonzero" stroke-width="0" stroke-linejoin="miter" stroke-linecap="butt" stroke-miterlimit="4" >
	<path d="
	M 1193.56 -2844.76 
	C 1179.31 -2895.29 1156.92 -2917.52 1122.31 -2917.52 
	C 1085.66 -2917.52 1063.27 -2895.29 1049.02 -2846.78 
	C 1034.77 -2802.32 1030.7 -2763.91 1030.7 -2699.24 
	C 1030.7 -2636.59 1036.8 -2600.21 1049.02 -2553.72 
	C 1063.27 -2505.22 1085.66 -2482.99 1122.31 -2482.99 
	C 1156.92 -2482.99 1179.31 -2505.22 1193.56 -2553.72 
	C 1207.81 -2600.21 1211.88 -2634.57 1211.88 -2701.26 
	C 1211.88 -2765.93 1205.78 -2802.32 1193.56 -2844.76 
	Z 
	M 1258.71 -2501.18 
	C 1230.21 -2432.46 1187.46 -2402.14 1122.31 -2402.14 
	C 1053.09 -2402.14 1012.38 -2432.46 983.871 -2501.18 
	C 959.438 -2557.77 951.301 -2612.34 951.301 -2701.26 
	C 951.301 -2788.17 959.438 -2846.78 983.871 -2901.35 
	C 1014.41 -2970.06 1055.13 -2998.36 1122.31 -2998.36 
	C 1189.49 -2998.36 1230.21 -2970.06 1258.71 -2899.32 
	C 1283.14 -2842.73 1291.28 -2788.17 1291.28 -2701.26 
	C 1291.28 -2612.34 1283.14 -2555.75 1258.71 -2501.18 
	Z 
	"/>
</g>
<g fill="#7f7f7f" fill-rule="nonzero" stroke-width="0" stroke-linejoin="miter" stroke-linecap="butt" stroke-miterlimit="4" >
	<path d="
	M 2055.46 -2412.25 
	L 1877.98 -2798.27 
	L 1877.98 -2412.25 
	L 1795.28 -2412.25 
	L 1795.28 -2988.25 
	L 1877.98 -2988.25 
	L 2035.3 -2642.65 
	L 2035.3 -2988.25 
	L 2117.99 -2988.25 
	L 2117.99 -2412.25 
	Z 
	"/>
</g>
<g fill="#7f7f7f" fill-rule="nonzero" stroke-width="0" stroke-linejoin="miter" stroke-linecap="butt" stroke-miterlimit="4" >
	<path d="
	M 2498.5 -2844.76 
	C 2484.25 -2895.28 2461.85 -2917.52 2427.24 -2917.52 
	C 2390.6 -2917.52 2368.2 -2895.28 2353.95 -2846.78 
	C 2339.7 -2802.32 2335.63 -2763.92 2335.63 -2699.24 
	C 2335.63 -2636.59 2341.74 -2600.21 2353.95 -2553.73 
	C 2368.2 -2505.22 2390.6 -2482.99 2427.24 -2482.99 
	C 2461.85 -2482.99 2484.25 -2505.22 2498.5 -2553.73 
	C 2512.75 -2600.21 2516.81 -2634.57 2516.81 -2701.27 
	C 2516.81 -2765.94 2510.71 -2802.32 2498.5 -2844.76 
	Z 
	M 2563.64 -2501.18 
	C 2535.14 -2432.46 2492.39 -2402.15 2427.24 -2402.15 
	C 2358.02 -2402.15 2317.31 -2432.46 2288.8 -2501.18 
	C 2264.37 -2557.77 2256.23 -2612.34 2256.23 -2701.27 
	C 2256.23 -2788.17 2264.37 -2846.78 2288.8 -2901.35 
	C 2319.34 -2970.06 2360.06 -2998.36 2427.24 -2998.36 
	C 2494.42 -2998.36 2535.14 -2970.06 2563.64 -2899.33 
	C 2588.07 -2842.73 2596.21 -2788.17 2596.21 -2701.27 
	C 2596.21 -2612.34 2588.07 -2555.75 2563.64 -2501.18 
	Z 
	"/>
</g>
<g fill="#7f7f7f" fill-rule="nonzero" stroke-width="0" stroke-linejoin="miter" stroke-linecap="butt" stroke-miterlimit="4" >
	<path d="
	M 2867.66 -2911.45 
	L 2867.66 -2412.25 
	L 2784.55 -2412.25 
	L 2784.55 -2911.45 
	L 2679.16 -2911.45 
	L 2679.16 -2988.25 
	L 2973.06 -2988.25 
	L 2973.06 -2911.45 
	Z 
	"/>
</g>
<g fill="#7f7f7f" fill-rule="nonzero" stroke-width="0" stroke-linejoin="miter" stroke-linecap="butt" stroke-miterlimit="4" >
	<path d="
	M 2013.87 -612.25 
	L 1858.57 -950.02 
	L 1858.57 -612.25 
	L 1786.21 -612.25 
	L 1786.21 -1116.25 
	L 1858.57 -1116.25 
	L 1996.22 -813.85 
	L 1996.22 -1116.25 
	L 2068.57 -1116.25 
	L 2068.57 -612.25 
	Z 
	"/>
</g>
<g fill="#7f7f7f" fill-rule="nonzero" stroke-width="0" stroke-linejoin="miter" stroke-linecap="butt" stroke-miterlimit="4" >
	<path d="
	M 1599.91 -990.69 
	C 1587.44 -1034.9 1567.84 -1054.36 1537.56 -1054.36 
	C 1505.5 -1054.36 1485.9 -1034.9 1473.43 -992.46 
	C 1460.96 -953.55 1457.4 -919.95 1457.4 -863.37 
	C 1457.4 -808.54 1462.74 -776.71 1473.43 -736.04 
	C 1485.9 -693.6 1505.5 -674.14 1537.56 -674.14 
	C 1567.84 -674.14 1587.44 -693.6 1599.91 -736.04 
	C 1612.38 -776.71 1615.94 -806.78 1615.94 -865.13 
	C 1615.94 -921.72 1610.59 -953.55 1599.91 -990.69 
	Z 
	M 1656.91 -690.06 
	C 1631.97 -629.93 1594.56 -603.41 1537.56 -603.41 
	C 1476.99 -603.41 1441.37 -629.93 1416.43 -690.06 
	C 1395.05 -739.58 1387.93 -787.32 1387.93 -865.13 
	C 1387.93 -941.18 1395.05 -992.46 1416.43 -1040.21 
	C 1443.15 -1100.34 1478.78 -1125.09 1537.56 -1125.09 
	C 1596.34 -1125.09 1631.97 -1100.34 1656.91 -1038.44 
	C 1678.29 -988.92 1685.41 -941.18 1685.41 -865.13 
	C 1685.41 -787.32 1678.29 -737.81 1656.91 -690.06 
	Z 
	"/>
</g>
<g fill="#7f7f7f" fill-rule="nonzero" stroke-width="0" stroke-linejoin="miter" stroke-linecap="butt" stroke-miterlimit="4" >
	<path d="
	M 1078.34 -1912.8 
	C 1064.22 -1953.22 1040.01 -1971.41 1003.71 -1971.41 
	L 935.137 -1971.41 
	L 935.137 -1557.09 
	L 1003.71 -1557.09 
	C 1052.12 -1557.09 1078.34 -1595.49 1086.4 -1639.96 
	C 1090.43 -1676.34 1094.47 -1716.76 1094.47 -1761.22 
	C 1094.47 -1825.9 1088.42 -1888.55 1078.34 -1912.8 
	Z 
	M 1092.45 -1502.52 
	C 1072.29 -1484.33 1044.05 -1476.25 1011.78 -1476.25 
	L 852.441 -1476.25 
	L 852.441 -2052.25 
	L 999.676 -2052.25 
	C 1048.08 -2052.25 1072.29 -2046.19 1092.45 -2030.02 
	C 1126.74 -2005.77 1150.95 -1961.31 1161.03 -1902.69 
	C 1169.1 -1860.25 1175.15 -1809.73 1175.15 -1765.26 
	C 1175.15 -1631.87 1148.93 -1546.99 1092.45 -1502.52 
	Z 
	"/>
</g>
<g fill="#7f7f7f" fill-rule="nonzero" stroke-width="0" stroke-linejoin="miter" stroke-linecap="butt" stroke-miterlimit="4" >
	<path d="
	M 2310.16 -1476.25 
	L 2310.16 -2052.25 
	L 2581.76 -2052.25 
	L 2581.76 -1971.41 
	L 2393.26 -1971.41 
	L 2393.26 -1825.9 
	L 2512.85 -1825.9 
	L 2512.85 -1747.07 
	L 2393.26 -1747.07 
	L 2393.26 -1557.09 
	L 2604.06 -1557.09 
	L 2604.06 -1476.25 
	Z 
	"/>
</g>
<g fill="#7f7f7f" fill-rule="nonzero" stroke-width="0" stroke-linejoin="miter" stroke-linecap="butt" stroke-miterlimit="4" >
	<path d="
	M 1710.97 -1476.25 
	L 1710.97 -2052.25 
	L 1791.61 -2052.25 
	L 1791.61 -1476.25 
	Z 
	"/>
</g>
<g fill="#7f7f7f" fill-rule="nonzero" stroke-width="0" stroke-linejoin="miter" stroke-linecap="butt" stroke-miterlimit="4" >
	<path d="
	M 1457.75 -1971.41 
	L 1373.04 -1971.41 
	L 1373.04 -1825.9 
	L 1457.75 -1825.9 
	C 1506.16 -1825.9 1532.38 -1852.17 1532.38 -1898.65 
	C 1532.38 -1943.12 1502.12 -1971.41 1457.75 -1971.41 
	Z 
	M 1528.34 -1476.25 
	L 1451.7 -1747.08 
	L 1373.04 -1747.08 
	L 1373.04 -1476.25 
	L 1290.35 -1476.25 
	L 1290.35 -2052.25 
	L 1461.78 -2052.25 
	C 1552.54 -2052.25 1613.05 -1991.62 1613.05 -1898.65 
	C 1613.05 -1829.94 1584.82 -1779.41 1530.36 -1759.2 
	L 1613.05 -1476.25 
	Z 
	"/>
</g>
<g fill="#7f7f7f" fill-rule="nonzero" stroke-width="0" stroke-linejoin="miter" stroke-linecap="butt" stroke-miterlimit="4" >
	<path d="
	M 2081.33 -1476.25 
	L 2018.41 -1476.25 
	L 1872.25 -2052.25 
	L 1955.48 -2052.25 
	L 2050.89 -1678.36 
	L 2146.29 -2052.25 
	L 2229.51 -2052.25 
	Z 
	"/>
</g>
<g fill="#7f7f7f" fill-rule="nonzero" stroke-width="0" stroke-linejoin="miter" stroke-linecap="butt" stroke-miterlimit="4" >
	<path d="
	M 2356.95 -130.23 
	C 2344.6 -165.602 2323.42 -181.512 2291.66 -181.512 
	L 2231.66 -181.512 
	L 2231.66 181.012 
	L 2291.66 181.012 
	C 2334.01 181.012 2356.95 147.41 2364.01 108.512 
	C 2367.54 76.68 2371.07 41.309 2371.07 2.39801 
	C 2371.07 -54.191 2365.78 -109.012 2356.95 -130.23 
	Z 
	M 2369.31 228.762 
	C 2351.66 244.68 2326.95 251.75 2298.72 251.75 
	L 2159.3 251.75 
	L 2159.3 -252.25 
	L 2288.13 -252.25 
	C 2330.48 -252.25 2351.66 -246.95 2369.31 -232.8 
	C 2399.31 -211.58 2420.49 -172.668 2429.31 -121.391 
	C 2436.37 -84.25 2441.66 -40.039 2441.66 -1.12903 
	C 2441.66 115.582 2418.72 189.859 2369.31 228.762 
	Z 
	"/>
</g>
<g fill="#7f7f7f" fill-rule="nonzero" stroke-width="0" stroke-linejoin="miter" stroke-linecap="butt" stroke-miterlimit="4" >
	<path d="
	M 2542.46 251.75 
	L 2542.46 -252.25 
	L 2780.12 -252.25 
	L 2780.12 -181.512 
	L 2615.18 -181.512 
	L 2615.18 -54.191 
	L 2719.82 -54.191 
	L 2719.82 14.781 
	L 2615.18 14.781 
	L 2615.18 181.012 
	L 2799.63 181.012 
	L 2799.63 251.75 
	Z 
	"/>
</g>
<g fill="#7f7f7f" fill-rule="nonzero" stroke-width="0" stroke-linejoin="miter" stroke-linecap="butt" stroke-miterlimit="4" >
	<path d="
	M 866.883 251.75 
	L 866.883 23.621 
	L 729.23 23.621 
	L 729.23 251.75 
	L 656.871 251.75 
	L 656.871 -252.25 
	L 729.23 -252.25 
	L 729.23 -47.109 
	L 866.883 -47.109 
	L 866.883 -252.25 
	L 939.234 -252.25 
	L 939.234 251.75 
	Z 
	"/>
</g>
<g fill="#7f7f7f" fill-rule="nonzero" stroke-width="0" stroke-linejoin="miter" stroke-linecap="butt" stroke-miterlimit="4" >
	<path d="
	M 1831.57 251.75 
	L 1831.57 -252.25 
	L 1904.29 -252.25 
	L 1904.29 184.551 
	L 2088.74 184.551 
	L 2088.74 251.75 
	Z 
	"/>
</g>
<g fill="#7f7f7f" fill-rule="nonzero" stroke-width="0" stroke-linejoin="miter" stroke-linecap="butt" stroke-miterlimit="4" >
	<path d="
	M 1252.02 -126.691 
	C 1239.55 -170.898 1219.95 -190.359 1189.67 -190.359 
	C 1157.61 -190.359 1138.01 -170.898 1125.54 -128.461 
	C 1113.07 -89.559 1109.51 -55.961 1109.51 0.629028 
	C 1109.51 55.461 1114.85 87.289 1125.54 127.961 
	C 1138.01 170.398 1157.61 189.859 1189.67 189.859 
	C 1219.95 189.859 1239.55 170.398 1252.02 127.961 
	C 1264.49 87.289 1268.05 57.219 1268.05 -1.12903 
	C 1268.05 -57.719 1262.7 -89.559 1252.02 -126.691 
	Z 
	M 1309.02 173.941 
	C 1284.08 234.059 1246.67 260.59 1189.67 260.59 
	C 1129.1 260.59 1093.48 234.059 1068.54 173.941 
	C 1047.16 124.422 1040.04 76.68 1040.04 -1.12903 
	C 1040.04 -77.18 1047.16 -128.461 1068.54 -176.211 
	C 1095.26 -236.33 1130.88 -261.09 1189.67 -261.09 
	C 1248.46 -261.09 1284.08 -236.33 1309.02 -174.441 
	C 1330.4 -124.918 1337.52 -77.18 1337.52 -1.12903 
	C 1337.52 76.68 1330.4 126.191 1309.02 173.941 
	Z 
	"/>
</g>
<g fill="#7f7f7f" fill-rule="nonzero" stroke-width="0" stroke-linejoin="miter" stroke-linecap="butt" stroke-miterlimit="4" >
	<path d="
	M 3031.79 -181.512 
	L 2957.67 -181.512 
	L 2957.67 -54.191 
	L 3031.79 -54.191 
	C 3074.14 -54.191 3097.08 -77.18 3097.08 -117.852 
	C 3097.08 -156.762 3070.61 -181.512 3031.79 -181.512 
	Z 
	M 3093.55 251.75 
	L 3026.49 14.781 
	L 2957.67 14.781 
	L 2957.67 251.75 
	L 2885.31 251.75 
	L 2885.31 -252.25 
	L 3035.32 -252.25 
	C 3114.73 -252.25 3167.67 -199.199 3167.67 -117.852 
	C 3167.67 -57.719 3142.97 -13.512 3095.32 4.172 
	L 3167.67 251.75 
	Z 
	"/>
</g>
<g fill="#7f7f7f" fill-rule="nonzero" stroke-width="0" stroke-linejoin="miter" stroke-linecap="butt" stroke-miterlimit="4" >
	<path d="
	M 432.34 19 
	C 410.531 4.87097 389.359 -9.30902 375.844 -18.82 
	C 335.211 -47.418 313.688 -86.02 313.688 -130.23 
	C 313.688 -202.73 370.516 -261.09 443.328 -261.09 
	C 514.363 -261.09 569.414 -206.27 571.191 -130.23 
	L 501.934 -130.23 
	C 500.156 -165.602 475.293 -188.59 443.328 -188.59 
	C 409.586 -188.59 382.945 -163.828 382.945 -130.23 
	C 382.945 -105.469 393.602 -91.32 430.898 -70.102 
	C 528.57 -13.512 571.191 41.309 571.191 113.809 
	C 571.191 195.16 509.035 260.59 430.898 260.59 
	C 342.102 260.59 288.824 186.32 288.824 103.199 
	L 359.859 103.199 
	C 359.859 145.641 381.172 189.859 430.898 189.859 
	C 469.965 189.859 501.934 154.488 501.934 113.809 
	C 501.934 82.23 488.883 55.629 432.34 19 
	Z 
	"/>
</g>
<g fill="#7f7f7f" fill-rule="nonzero" stroke-width="0" stroke-linejoin="miter" stroke-linecap="butt" stroke-miterlimit="4" >
	<path d="
	M 1701.27 189.859 
	C 1676.57 230.531 1628.92 260.59 1581.27 260.59 
	C 1531.85 260.59 1482.44 232.301 1457.73 189.859 
	C 1443.61 163.332 1438.32 142.109 1438.32 101.441 
	L 1438.32 -252.25 
	L 1510.68 -252.25 
	L 1510.68 110.281 
	C 1510.68 158.031 1538.91 189.859 1581.27 189.859 
	C 1620.09 189.859 1648.33 158.031 1648.33 110.281 
	L 1648.33 -252.25 
	L 1720.69 -252.25 
	L 1720.69 101.441 
	C 1720.69 142.109 1715.39 163.332 1701.27 189.859 
	Z 
	"/>
</g>
</g >
</g>
</svg>
