<?xml version="1.0" encoding="UTF-8"?>
<svg id="For_Sheets" xmlns="http://www.w3.org/2000/svg" version="1.1" viewBox="0 0 1296 1728">
  <!-- Generator: Adobe Illustrator 29.1.0, SVG Export Plug-In . SVG Version: 2.1.0 Build 142)  -->
  <defs>
    <style>
      .st0 {
        fill: #231f20;
      }

      .st1 {
        fill: #fff;
      }
    </style>
  </defs>
  <g>
    <rect class="st1" x="-.1" y="-.1" width="1296.2" height="1728.2" rx="108.1" ry="108.1"/>
    <path class="st0" d="M1188,0c59.4,0,108,48.6,108,108v1512c0,59.4-48.6,108-108,108H108c-59.4,0-108-48.6-108-108V108C0,48.6,48.6,0,108,0h1080M1188-.2H108C79.2-.2,52.1,11,31.5,31.5S-.2,79.2-.2,108v1512c0,28.8,11.3,55.9,31.8,76.5s47.7,31.8,76.5,31.8h1080c28.8,0,55.9-11.3,76.5-31.8s31.8-47.7,31.8-76.5V108c0-28.8-11.3-55.9-31.8-76.5S1216.8-.2,1188-.2h0Z"/>
  </g>
  <rect class="st0" x="-189" y="243" width="1674" height="1242" rx="81" ry="81" transform="translate(1512 216) rotate(90)"/>
  <rect class="st1" x="-144" y="288" width="1584" height="1152" rx="36" ry="36" transform="translate(1512 216) rotate(90)"/>
  <g>
    <path class="st0" d="M307.6,413.7v126.3h-41.3V252h85.7c45.4,0,75.6,32.5,75.6,80.9s-27.3,80.8-75.6,80.8h-44.4ZM307.6,374.3h42.3c24.2,0,37.3-15.1,37.3-41.4s-15.3-40.4-37.3-40.4h-42.4v81.8Z"/>
    <path class="st0" d="M584.7,461.2h-61.8l-19.3,78.8h-41.5l71.9-288h40.6l71.9,288h-41.5l-20.3-78.8ZM533.1,420.8h41.5l-21.3-82.9-20.3,82.9Z"/>
    <path class="st0" d="M755.1,356.9c31.5,19.8,78.7,47.4,78.7,104.3s-35.5,83.8-80.2,83.8-81.2-42.9-81.2-89.9h40.6c0,24.5,12.2,49.5,40.6,49.5s40.6-20.2,40.6-43.5c0-62.6-107.5-59-107.5-139.5s32.5-74.7,74-74.7,72.1,31.3,73.1,74.8h-39.6c-1-20.2-15.2-33.3-33.5-33.3s-34.5,14.1-34.5,33.3,9.9,23.3,28.8,35.2Z"/>
    <path class="st0" d="M951,356.9c31.5,19.8,78.7,47.4,78.7,104.3s-35.5,83.8-80.2,83.8-81.2-42.9-81.2-89.9h40.6c0,24.5,12.2,49.5,40.6,49.5s40.6-20.2,40.6-43.5c0-62.6-107.5-59-107.5-139.5s32.5-74.7,74-74.7,72.1,31.3,73.1,74.8h-39.6c-1-20.2-15.2-33.3-33.5-33.3s-34.5,14.1-34.5,33.3,9.9,23.3,28.8,35.2Z"/>
  </g>
  <g>
    <path class="st0" d="M440.6,1008l-27.4-150.6-27.4,150.6h-36.5l-45.6-288h40.6l24.3,153.6,28.4-153.6h32.5l27.4,153.6,25.3-153.6h40.6l-46.7,288h-35.5Z"/>
    <path class="st0" d="M563,720h40.3v288h-40.3v-288Z"/>
    <path class="st0" d="M737.9,1008h-41.5v-249.6h-52.7v-38.4h146.9v38.4h-52.7v249.6Z"/>
    <path class="st0" d="M951,877.6h-78.7v130.4h-41.3v-288h41.3v117.2h78.7v-117.2h41.4v288h-41.3v-130.4Z"/>
  </g>
  <g>
    <path class="st0" d="M378.8,1264.8c-4-28.3-15.2-41.4-34.5-41.4-33.5,0-45.7,26.3-45.7,101s14.2,116.2,49.8,116.2,30.4-20.2,30.4-41.4h41.6c-1,47.5-31.4,81.9-72,81.9-61.9,0-89.3-49.5-89.3-155.6s29.4-142.4,86.3-142.4,73.7,48.1,75.1,81.8h-41.6Z"/>
    <path class="st0" d="M577.5,1397.2h-61.8l-19.3,78.8h-41.5l71.9-288h40.6l71.9,288h-41.5l-20.3-78.8ZM525.9,1356.8h41.5l-21.3-82.9-20.3,82.9Z"/>
    <path class="st0" d="M760.4,1340.6h-39.3v135.4h-41.3v-288h85.7c45.2,0,75.6,30.3,75.6,76.8s-14.1,59.6-41.4,69.7l41.3,141.5h-42.3l-38.3-135.4ZM721,1228.4v72.8h42.3c24.3,0,37.3-13.1,37.3-36.4s-15.1-36.4-37.3-36.4h-42.4Z"/>
    <path class="st0" d="M890,1188h135.8v40.4h-94.2v72.8h59.8v39.4h-59.8v95h105.4v40.4h-146.9v-288Z"/>
  </g>
</svg>