<?xml version="1.0" encoding="UTF-8" standalone="no"?>
<!-- Created with Inkscape (http://www.inkscape.org/) -->

<svg
   version="1.1"
   id="svg1"
   width="2304.6667"
   height="1152.6667"
   viewBox="0 0 2304.6667 1152.6667"
   sodipodi:docname="tmpxnj590d3.pdf"
   xmlns:inkscape="http://www.inkscape.org/namespaces/inkscape"
   xmlns:sodipodi="http://sodipodi.sourceforge.net/DTD/sodipodi-0.dtd"
   xmlns="http://www.w3.org/2000/svg"
   xmlns:svg="http://www.w3.org/2000/svg">
  <defs
     id="defs1" />
  <sodipodi:namedview
     id="namedview1"
     pagecolor="#ffffff"
     bordercolor="#000000"
     borderopacity="0.25"
     inkscape:showpageshadow="2"
     inkscape:pageopacity="0.0"
     inkscape:pagecheckerboard="0"
     inkscape:deskcolor="#d1d1d1">
    <inkscape:page
       x="0"
       y="0"
       inkscape:label="1"
       id="page1"
       width="2304.6667"
       height="1152.6667"
       margin="0"
       bleed="0" />
  </sodipodi:namedview>
  <g
     id="g1"
     inkscape:groupmode="layer"
     inkscape:label="1">
    <g
       id="group-R5">
      <path
         id="path2"
         d="m 17282.5,1082.5 c 0,-596.461 -483.5,-1080 -1080,-1080 H 1082.5 C 486.035,2.5 2.5,486.039 2.5,1082.5 v 6480 c 0,596.46 483.535,1080 1080,1080 h 15120 c 596.5,0 1080,-483.54 1080,-1080 v -6480"
         style="fill:#ffffff;fill-opacity:1;fill-rule:nonzero;stroke:none"
         transform="matrix(0.13333333,0,0,-0.13333333,0,1152.6667)" />
      <path
         id="path3"
         d="m 17282.5,1082.5 c 0,-596.461 -483.5,-1080 -1080,-1080 H 1082.5 C 486.035,2.5 2.5,486.039 2.5,1082.5 v 6480 c 0,596.46 483.535,1080 1080,1080 h 15120 c 596.5,0 1080,-483.54 1080,-1080 z"
         style="fill:none;stroke:#231f20;stroke-width:5;stroke-linecap:butt;stroke-linejoin:miter;stroke-miterlimit:4;stroke-dasharray:none;stroke-opacity:1"
         transform="matrix(0.13333333,0,0,-0.13333333,0,1152.6667)" />
      <path
         id="path4"
         d="m 16562.5,1082.5 c 0,-198.512 -161.5,-360 -360,-360 h -15120 c -198.508,0 -360,161.488 -360,360 v 6480 c 0,198.51 161.492,360 360,360 h 15120 c 198.5,0 360,-161.49 360,-360 z m -360,7290 h -15120 c -446.641,0 -810,-363.36 -810,-810 v -6480 c 0,-446.641 363.359,-810 810,-810 h 15120 c 446.6,0 810,363.359 810,810 v 6480 c 0,446.64 -363.4,810 -810,810"
         style="fill:#231f20;fill-opacity:1;fill-rule:nonzero;stroke:none"
         transform="matrix(0.13333333,0,0,-0.13333333,0,1152.6667)" />
      <path
         id="path5"
         d="M 8069.59,4862.49 7243.42,6325.23 V 4862.49 H 6902.34 V 7022.5 h 341.08 L 8031.68,5643.12 V 7022.5 h 341.07 V 4862.49 h -303.16"
         style="fill:#231f20;fill-opacity:1;fill-rule:nonzero;stroke:none"
         transform="matrix(0.13333333,0,0,-0.13333333,0,1152.6667)" />
      <path
         id="path6"
         d="m 9911.62,6545.02 c -68.38,113.69 -151.95,159.15 -281.11,166.74 -167.15,7.58 -273.52,-75.78 -349.47,-265.26 -53.21,-128.85 -83.58,-325.9 -83.58,-507.79 0,-227.37 45.57,-462.32 129.14,-598.74 68.4,-113.69 159.55,-166.74 296.31,-166.74 159.55,0 258.3,83.38 334.3,272.84 45.59,113.69 83.59,325.9 83.59,492.64 0,242.52 -45.62,462.31 -129.18,606.31 z m 235.48,-1477.89 c -121.5,-166.74 -296.28,-242.54 -524.19,-242.54 -303.91,0 -493.85,121.28 -623.01,386.53 -91.15,181.91 -151.93,469.9 -151.93,727.59 0,356.21 91.17,674.52 235.53,879.16 129.16,166.74 303.88,242.52 554.61,242.52 273.51,0 463.39,-121.26 600.19,-386.53 91.2,-189.47 144.4,-462.31 144.4,-735.15 0,-341.06 -83.6,-682.1 -235.6,-871.58"
         style="fill:#231f20;fill-opacity:1;fill-rule:nonzero;stroke:none"
         transform="matrix(0.13333333,0,0,-0.13333333,0,1152.6667)" />
      <path
         id="path7"
         d="m 12245.6,3138.28 -151.9,-621.47 h 311.5 z m 387.5,-1515.79 -151.9,591.17 h -463.5 l -144.4,-591.17 h -311.5 l 539.5,2160 h 303.9 l 539.5,-2160 h -311.6"
         style="fill:#231f20;fill-opacity:1;fill-rule:nonzero;stroke:none"
         transform="matrix(0.13333333,0,0,-0.13333333,0,1152.6667)" />
      <path
         id="path8"
         d="m 5157.17,3259.56 c -52.93,151.58 -143.69,219.79 -279.85,219.79 h -257.14 v -1553.7 h 257.14 c 181.53,0 279.85,144 310.11,310.75 15.13,136.41 30.27,287.99 30.27,454.72 0,242.54 -22.7,477.48 -60.53,568.44 z m 52.95,-1538.54 c -75.63,-68.21 -181.51,-98.53 -302.53,-98.53 h -597.51 v 2160 h 552.13 c 181.52,0 272.28,-22.71 347.91,-83.36 128.57,-90.94 219.33,-257.68 257.16,-477.47 30.26,-159.15 52.93,-348.63 52.93,-515.38 0,-500.22 -98.32,-818.52 -310.09,-985.26"
         style="fill:#231f20;fill-opacity:1;fill-rule:nonzero;stroke:none"
         transform="matrix(0.13333333,0,0,-0.13333333,0,1152.6667)" />
      <path
         id="path9"
         d="m 2987.62,1622.49 v 2160 h 1018.51 v -303.14 h -706.89 v -545.69 h 448.46 v -295.59 h -448.46 v -712.42 h 790.51 V 1622.49 H 2987.62"
         style="fill:#231f20;fill-opacity:1;fill-rule:nonzero;stroke:none"
         transform="matrix(0.13333333,0,0,-0.13333333,0,1152.6667)" />
      <path
         id="path10"
         d="m 5779.43,1622.49 v 2160 h 1018.52 v -303.14 h -706.9 v -545.69 h 448.46 v -295.59 h -448.46 v -712.42 h 790.51 V 1622.49 H 5779.43"
         style="fill:#231f20;fill-opacity:1;fill-rule:nonzero;stroke:none"
         transform="matrix(0.13333333,0,0,-0.13333333,0,1152.6667)" />
      <path
         id="path11"
         d="m 11077.9,1622.49 v 2160 h 302.4 v -2160 h -302.4"
         style="fill:#231f20;fill-opacity:1;fill-rule:nonzero;stroke:none"
         transform="matrix(0.13333333,0,0,-0.13333333,0,1152.6667)" />
      <path
         id="path12"
         d="m 14101.8,1622.49 -665.6,1447.58 V 1622.49 h -310.1 v 2160 h 310.1 l 590,-1296 v 1296 h 310.1 v -2160 h -234.5"
         style="fill:#231f20;fill-opacity:1;fill-rule:nonzero;stroke:none"
         transform="matrix(0.13333333,0,0,-0.13333333,0,1152.6667)" />
      <path
         id="path13"
         d="m 2146.02,3479.35 h -317.66 v -613.91 h 317.66 c 181.52,0 279.84,113.69 279.84,310.74 0,181.9 -113.45,303.17 -279.84,303.17 z m 15.13,-909.49 h -332.79 v -947.37 h -310.1 v 2160 h 642.89 c 340.34,0 567.25,-242.52 567.25,-606.31 0,-394.1 -204.22,-606.32 -567.25,-606.32"
         style="fill:#231f20;fill-opacity:1;fill-rule:nonzero;stroke:none"
         transform="matrix(0.13333333,0,0,-0.13333333,0,1152.6667)" />
      <path
         id="path14"
         d="m 10275.2,3479.35 h -317.65 v -545.69 h 317.65 c 181.5,0 279.9,98.52 279.9,272.83 0,166.74 -113.5,272.86 -279.9,272.86 z m 264.7,-1856.86 -287.4,1015.59 H 9957.55 V 1622.49 h -310.11 v 2160 h 642.86 c 340.4,0 567.3,-227.36 567.3,-576 0,-257.67 -105.9,-447.14 -310.1,-522.95 l 310.1,-1061.05 h -317.7"
         style="fill:#231f20;fill-opacity:1;fill-rule:nonzero;stroke:none"
         transform="matrix(0.13333333,0,0,-0.13333333,0,1152.6667)" />
      <path
         id="path15"
         d="m 7652.15,2620.02 c -93.46,60.54 -184.2,121.29 -242.13,162.06 -174.14,122.58 -266.39,288 -266.39,477.48 0,310.73 243.56,560.84 555.61,560.84 304.43,0 540.37,-234.96 547.99,-560.84 h -296.84 c -7.6,151.56 -114.14,250.1 -251.15,250.1 -144.61,0 -258.77,-106.12 -258.77,-250.1 0,-106.11 45.66,-166.75 205.5,-257.69 418.6,-242.52 601.26,-477.48 601.26,-788.21 0,-348.63 -266.39,-629.06 -601.26,-629.06 -380.56,0 -608.88,318.32 -608.88,674.53 h 304.43 c 0,-181.89 91.33,-371.37 304.45,-371.37 167.43,0 304.42,151.59 304.42,325.9 0,135.35 -55.92,249.34 -298.24,406.36"
         style="fill:#231f20;fill-opacity:1;fill-rule:nonzero;stroke:none"
         transform="matrix(0.13333333,0,0,-0.13333333,0,1152.6667)" />
      <path
         id="path16"
         d="m 15171.7,2620.02 c -93.5,60.54 -184.2,121.29 -242.2,162.06 -174.1,122.58 -266.4,288 -266.4,477.48 0,310.73 243.6,560.84 555.7,560.84 304.4,0 540.3,-234.96 547.9,-560.84 h -296.8 c -7.6,151.56 -114.1,250.1 -251.1,250.1 -144.7,0 -258.8,-106.12 -258.8,-250.1 0,-106.11 45.6,-166.75 205.5,-257.69 418.6,-242.52 601.2,-477.48 601.2,-788.21 0,-348.63 -266.3,-629.06 -601.2,-629.06 -380.6,0 -608.9,318.32 -608.9,674.53 h 304.4 c 0,-181.89 91.4,-371.37 304.5,-371.37 167.4,0 304.4,151.59 304.4,325.9 0,135.35 -55.9,249.34 -298.2,406.36"
         style="fill:#231f20;fill-opacity:1;fill-rule:nonzero;stroke:none"
         transform="matrix(0.13333333,0,0,-0.13333333,0,1152.6667)" />
      <path
         id="path17"
         d="M 9070.76,3494.5 V 1622.49 H 8759.12 V 3494.5 h -395.25 v 287.99 H 9466.02 V 3494.5 h -395.26"
         style="fill:#231f20;fill-opacity:1;fill-rule:nonzero;stroke:none"
         transform="matrix(0.13333333,0,0,-0.13333333,0,1152.6667)" />
    </g>
  </g>
</svg>
