<?xml version="1.0" encoding="UTF-8" standalone="no"?>
<!-- Created with Inkscape (http://www.inkscape.org/) -->

<svg
   version="1.1"
   id="svg1"
   width="2881.3333"
   height="2305.3333"
   viewBox="0 0 2881.3333 2305.3333"
   sodipodi:docname="tmp5rpkwk9k.pdf"
   xmlns:inkscape="http://www.inkscape.org/namespaces/inkscape"
   xmlns:sodipodi="http://sodipodi.sourceforge.net/DTD/sodipodi-0.dtd"
   xmlns="http://www.w3.org/2000/svg"
   xmlns:svg="http://www.w3.org/2000/svg">
  <defs
     id="defs1" />
  <sodipodi:namedview
     id="namedview1"
     pagecolor="#ffffff"
     bordercolor="#000000"
     borderopacity="0.25"
     inkscape:showpageshadow="2"
     inkscape:pageopacity="0.0"
     inkscape:pagecheckerboard="0"
     inkscape:deskcolor="#d1d1d1">
    <inkscape:page
       x="0"
       y="0"
       inkscape:label="1"
       id="page1"
       width="2881.3333"
       height="2305.3333"
       margin="0"
       bleed="0" />
  </sodipodi:namedview>
  <g
     id="g1"
     inkscape:groupmode="layer"
     inkscape:label="1">
    <g
       id="group-R5">
      <path
         id="path2"
         d="M 21605,1085 C 21605,488.5 21121.5,5 20525,5 H 1085 C 488.535,5 5,488.5 5,1085 v 15120 c 0,596.5 483.535,1080 1080,1080 h 19440 c 596.5,0 1080,-483.5 1080,-1080 V 1085"
         style="fill:#ffffff;fill-opacity:1;fill-rule:nonzero;stroke:none"
         transform="matrix(0.13333333,0,0,-0.13333333,0,2305.3333)" />
      <path
         id="path3"
         d="M 21605,1085 C 21605,488.5 21121.5,5 20525,5 H 1085 C 488.535,5 5,488.5 5,1085 v 15120 c 0,596.5 483.535,1080 1080,1080 h 19440 c 596.5,0 1080,-483.5 1080,-1080 z"
         style="fill:none;stroke:#231f20;stroke-width:10;stroke-linecap:butt;stroke-linejoin:miter;stroke-miterlimit:4;stroke-dasharray:none;stroke-opacity:1"
         transform="matrix(0.13333333,0,0,-0.13333333,0,2305.3333)" />
      <path
         id="path4"
         d="m 20885,1085 c 0,-198.5 -161.5,-360 -360,-360 H 1085 c -198.5,0 -360,161.5 -360,360 v 15120 c 0,198.5 161.5,360 360,360 h 19440 c 198.5,0 360,-161.5 360,-360 z m -360,15930 H 1085 c -446.637,0 -810,-363.4 -810,-810 V 1085 c 0,-446.598 363.363,-810 810,-810 h 19440 c 446.6,0 810,363.402 810,810 v 15120 c 0,446.6 -363.4,810 -810,810"
         style="fill:#231f20;fill-opacity:1;fill-rule:nonzero;stroke:none"
         transform="matrix(0.13333333,0,0,-0.13333333,0,2305.3333)" />
      <path
         id="path5"
         d="m 11473.8,2885 v 2520.1 h 397.3 V 3256.4 h 1165.7 V 2885 h -1563"
         style="fill:#231f20;fill-opacity:1;fill-rule:nonzero;stroke:none"
         transform="matrix(0.13333333,0,0,-0.13333333,0,2305.3333)" />
      <path
         id="path6"
         d="m 16697.7,3035.3 c -141.5,-123.8 -336,-194.5 -548.2,-194.5 -433.3,0 -751.7,256.4 -919.7,636.6 l 380.3,141.5 c 106.1,-238.8 300.6,-371.4 539.4,-371.4 229.9,0 389,159.2 389,371.4 0,336 -389,389 -716.2,521.6 -150.3,61.9 -486.4,212.3 -486.4,627.8 0,495.2 336.1,680.9 787,680.9 353.7,0 592.5,-203.4 716.3,-512.9 l -353.7,-106.1 c 0,0 -88.4,212.2 -371.4,221.1 -185.7,8.8 -406.8,-61.9 -389.1,-291.8 35.4,-468.6 1220.3,-159.2 1220.3,-1149.5 0,-229.9 -88.4,-433.2 -247.6,-574.7"
         style="fill:#231f20;fill-opacity:1;fill-rule:nonzero;stroke:none"
         transform="matrix(0.13333333,0,0,-0.13333333,0,2305.3333)" />
      <path
         id="path7"
         d="M 7996.42,3981.4 V 2885 H 7596.5 V 3981.4 L 6707.79,5405 h 479.91 l 604.32,-972.7 613.2,972.7 h 471.04 L 7996.42,3981.4"
         style="fill:#231f20;fill-opacity:1;fill-rule:nonzero;stroke:none"
         transform="matrix(0.13333333,0,0,-0.13333333,0,2305.3333)" />
      <path
         id="path8"
         d="m 13414.8,2885 v 2520 h 1483.5 v -397.9 h -1086.2 v -618.9 h 733 v -406.7 h -733 v -689.7 h 1165.7 V 2885 h -1563"
         style="fill:#231f20;fill-opacity:1;fill-rule:nonzero;stroke:none"
         transform="matrix(0.13333333,0,0,-0.13333333,0,2305.3333)" />
      <path
         id="path9"
         d="m 5619.7,2840.7 c -371.39,0 -610.14,141.5 -769.31,451 -114.95,221.1 -185.69,539.4 -185.69,857.7 0,397.9 106.11,795.8 282.96,1016.8 150.32,185.7 362.55,283 645.51,283 380.25,0 619,-159.2 787.02,-512.9 l -371.4,-159.1 c -141.5,212.2 -221.07,265.2 -415.62,265.2 -203.37,0 -336.01,-88.4 -424.44,-309.4 -61.89,-150.3 -97.27,-371.4 -97.27,-583.6 0,-274.1 61.9,-548.2 159.17,-707.4 88.42,-132.6 203.38,-194.5 380.24,-194.5 168.01,0 291.81,88.4 389.08,291.8 l 380.24,-141.5 C 6229.86,3026.4 5982.27,2840.7 5619.7,2840.7"
         style="fill:#231f20;fill-opacity:1;fill-rule:nonzero;stroke:none"
         transform="matrix(0.13333333,0,0,-0.13333333,0,2305.3333)" />
      <path
         id="path10"
         d="m 10158.9,2840.7 c -371.42,0 -610.18,141.5 -769.34,451 -114.96,221.1 -185.7,539.4 -185.7,857.7 0,397.9 106.11,795.8 282.97,1016.8 150.32,185.7 362.55,283 645.47,283 380.3,0 619,-159.2 787,-512.9 l -371.4,-159.1 c -141.4,212.2 -221,265.2 -415.6,265.2 -203.34,0 -335.98,-88.4 -424.4,-309.4 -61.9,-150.3 -97.27,-371.4 -97.27,-583.6 0,-274.1 61.89,-548.2 159.16,-707.4 88.43,-132.6 203.38,-194.5 380.21,-194.5 168,0 291.8,88.4 389.1,291.8 l 380.2,-141.5 c -150.3,-371.4 -397.9,-557.1 -760.4,-557.1"
         style="fill:#231f20;fill-opacity:1;fill-rule:nonzero;stroke:none"
         transform="matrix(0.13333333,0,0,-0.13333333,0,2305.3333)" />
      <path
         id="path11"
         d="m 10081.2,11885 -963.9,1706.5 V 11885 h -397.92 v 2520 h 397.92 l 919.6,-1609.3 V 14405 h 398 v -2520 h -353.7"
         style="fill:#231f20;fill-opacity:1;fill-rule:nonzero;stroke:none"
         transform="matrix(0.13333333,0,0,-0.13333333,0,2305.3333)" />
      <path
         id="path12"
         d="m 12341.1,13847.9 c -79.8,132.7 -177.3,185.7 -328,194.6 -195,8.8 -319.1,-88.4 -407.7,-309.5 -62.1,-150.3 -97.5,-380.2 -97.5,-592.4 0,-265.3 53.2,-539.4 150.7,-698.5 79.7,-132.7 186.1,-194.6 345.7,-194.6 186.1,0 301.3,97.3 390,318.3 53.1,132.7 97.5,380.2 97.5,574.8 0,282.9 -53.2,539.3 -150.7,707.3 z m 274.7,-1724.2 c -141.8,-194.5 -345.6,-282.9 -611.5,-282.9 -354.6,0 -576.2,141.5 -726.9,450.9 -106.3,212.2 -177.2,548.2 -177.2,848.9 0,415.6 106.3,786.9 274.7,1025.7 150.7,194.5 354.6,282.9 647.1,282.9 319.1,0 540.7,-141.5 700.2,-450.9 106.4,-221.1 168.4,-539.4 168.4,-857.7 0,-397.9 -97.5,-795.8 -274.8,-1016.9"
         style="fill:#231f20;fill-opacity:1;fill-rule:nonzero;stroke:none"
         transform="matrix(0.13333333,0,0,-0.13333333,0,2305.3333)" />
      <path
         id="path13"
         d="M 2629.58,7384.99 V 8799.73 L 2160.35,7384.99 1691.11,8799.73 V 7384.99 H 1328.13 V 9905 h 362.98 L 2160.35,8490.25 2629.58,9905 h 362.99 V 7384.99 h -362.99"
         style="fill:#231f20;fill-opacity:1;fill-rule:nonzero;stroke:none"
         transform="matrix(0.13333333,0,0,-0.13333333,0,2305.3333)" />
      <path
         id="path14"
         d="m 4304.48,9277.21 c -62.34,221.05 -160.32,318.32 -311.74,318.32 -160.32,0 -258.29,-97.27 -320.63,-309.48 -62.35,-194.52 -80.17,-362.52 -80.17,-645.47 0,-274.12 26.72,-433.28 80.17,-636.63 62.34,-212.21 160.31,-309.48 320.63,-309.48 151.42,0 249.4,97.27 311.74,309.48 62.36,203.35 80.16,353.68 80.16,645.47 0,282.94 -26.72,442.11 -80.16,627.79 z m 285.01,-1503.17 c -124.69,-300.62 -311.73,-433.26 -596.75,-433.26 -302.83,0 -480.95,132.64 -605.65,433.26 -106.88,247.58 -142.51,486.33 -142.51,875.38 0,380.21 35.63,636.63 142.51,875.37 133.6,300.63 311.74,424.42 605.65,424.42 293.93,0 472.06,-123.79 596.75,-433.26 106.9,-247.59 142.52,-486.32 142.52,-866.53 0,-389.05 -35.62,-636.63 -142.52,-875.38"
         style="fill:#231f20;fill-opacity:1;fill-rule:nonzero;stroke:none"
         transform="matrix(0.13333333,0,0,-0.13333333,0,2305.3333)" />
      <path
         id="path15"
         d="m 7380.15,9277.21 c -62.35,221.05 -160.33,318.32 -311.73,318.32 -160.32,0 -258.3,-97.27 -320.65,-309.48 -62.35,-194.52 -80.15,-362.52 -80.15,-645.47 0,-274.12 26.72,-433.28 80.15,-636.63 62.35,-212.21 160.33,-309.48 320.65,-309.48 151.4,0 249.38,97.27 311.73,309.48 62.35,203.35 80.16,353.68 80.16,645.47 0,282.94 -26.72,442.11 -80.16,627.79 z m 285.02,-1503.17 c -124.7,-300.62 -311.74,-433.26 -596.75,-433.26 -302.83,0 -480.97,132.64 -605.67,433.26 -106.88,247.58 -142.51,486.33 -142.51,875.38 0,380.21 35.63,636.63 142.51,875.37 133.61,300.63 311.74,424.42 605.67,424.42 293.92,0 472.05,-123.79 596.75,-433.26 106.88,-247.59 142.51,-486.32 142.51,-866.53 0,-389.05 -35.63,-636.63 -142.51,-875.38"
         style="fill:#231f20;fill-opacity:1;fill-rule:nonzero;stroke:none"
         transform="matrix(0.13333333,0,0,-0.13333333,0,2305.3333)" />
      <path
         id="path16"
         d="m 8792.06,9551.31 h -370.6 v -636.64 h 370.6 c 211.78,0 326.48,114.95 326.48,318.32 0,194.53 -132.36,318.32 -326.48,318.32 z M 9100.9,7385 8765.59,8569.83 H 8421.46 V 7385 h -361.78 v 2520 h 750.03 c 397.09,0 661.79,-265.27 661.79,-672.01 0,-300.63 -123.52,-521.69 -361.77,-610.11 L 9471.5,7385 h -370.6"
         style="fill:#231f20;fill-opacity:1;fill-rule:nonzero;stroke:none"
         transform="matrix(0.13333333,0,0,-0.13333333,0,2305.3333)" />
      <path
         id="path17"
         d="M 5707.92,9568.99 V 7385 H 5344.34 V 9568.99 H 4883.21 V 9905 h 1285.83 v -336.01 h -461.12"
         style="fill:#231f20;fill-opacity:1;fill-rule:nonzero;stroke:none"
         transform="matrix(0.13333333,0,0,-0.13333333,0,2305.3333)" />
      <path
         id="path18"
         d="m 12799.8,9294.9 c -61.8,176.84 -167.7,256.42 -326.5,256.42 h -300 V 7738.67 h 300 c 211.8,0 326.5,168.01 361.8,362.54 17.6,159.16 35.3,336 35.3,530.53 0,282.94 -26.5,557.05 -70.6,663.16 z m 61.7,-1794.96 C 12773.3,7420.36 12649.8,7385 12508.6,7385 h -697.1 v 2520 h 644.2 c 211.7,0 317.6,-26.52 405.8,-97.27 150.1,-106.09 256,-300.63 300.1,-557.05 35.3,-185.68 61.7,-406.73 61.7,-601.26 0,-583.58 -114.7,-954.95 -361.8,-1149.48"
         style="fill:#231f20;fill-opacity:1;fill-rule:nonzero;stroke:none"
         transform="matrix(0.13333333,0,0,-0.13333333,0,2305.3333)" />
      <path
         id="path19"
         d="m 17370,7385 v 2520 h 1188.3 v -353.68 h -824.7 v -636.64 h 523.2 v -344.85 h -523.2 v -831.16 h 922.2 V 7385 H 17370"
         style="fill:#231f20;fill-opacity:1;fill-rule:nonzero;stroke:none"
         transform="matrix(0.13333333,0,0,-0.13333333,0,2305.3333)" />
      <path
         id="path20"
         d="M 15101.4,7384.99 V 9905 h 352.8 V 7384.99 h -352.8"
         style="fill:#231f20;fill-opacity:1;fill-rule:nonzero;stroke:none"
         transform="matrix(0.13333333,0,0,-0.13333333,0,2305.3333)" />
      <path
         id="path21"
         d="m 20008.3,7384.99 -776.5,1688.84 V 7384.99 H 18870 V 9905 h 361.8 l 688.3,-1512.01 V 9905 h 361.8 V 7384.99 h -273.6"
         style="fill:#231f20;fill-opacity:1;fill-rule:nonzero;stroke:none"
         transform="matrix(0.13333333,0,0,-0.13333333,0,2305.3333)" />
      <path
         id="path22"
         d="m 14207.7,9551.31 h -370.6 v -636.64 h 370.6 c 211.8,0 326.5,114.95 326.5,318.32 0,194.53 -132.3,318.32 -326.5,318.32 z M 14516.6,7385 14181.3,8569.83 h -344.2 V 7385 h -361.8 v 2520 h 750.1 c 397.1,0 661.8,-265.27 661.8,-672.01 0,-300.63 -123.6,-521.69 -361.8,-610.11 L 14887.2,7385 h -370.6"
         style="fill:#231f20;fill-opacity:1;fill-rule:nonzero;stroke:none"
         transform="matrix(0.13333333,0,0,-0.13333333,0,2305.3333)" />
      <path
         id="path23"
         d="M 16545.3,7385 H 16270 l -639.4,2520 h 364.1 l 417.4,-1635.79 417.4,1635.79 h 364.1 l -648.3,-2520"
         style="fill:#231f20;fill-opacity:1;fill-rule:nonzero;stroke:none"
         transform="matrix(0.13333333,0,0,-0.13333333,0,2305.3333)" />
      <path
         id="path24"
         d="m 9921.5,8419.53 v 336 h 1260 v -336 h -1260"
         style="fill:#231f20;fill-opacity:1;fill-rule:nonzero;stroke:none"
         transform="matrix(0.13333333,0,0,-0.13333333,0,2305.3333)" />
    </g>
  </g>
</svg>
