<?xml version="1.0" encoding="UTF-8" standalone="no"?>
<!-- Created with Inkscape (http://www.inkscape.org/) -->

<svg
   version="1.1"
   id="svg1"
   width="4032.6667"
   height="2304.6667"
   viewBox="0 0 4032.6667 2304.6667"
   sodipodi:docname="tmpugtgfw3w.pdf"
   xmlns:inkscape="http://www.inkscape.org/namespaces/inkscape"
   xmlns:sodipodi="http://sodipodi.sourceforge.net/DTD/sodipodi-0.dtd"
   xmlns="http://www.w3.org/2000/svg"
   xmlns:svg="http://www.w3.org/2000/svg">
  <defs
     id="defs1" />
  <sodipodi:namedview
     id="namedview1"
     pagecolor="#ffffff"
     bordercolor="#000000"
     borderopacity="0.25"
     inkscape:showpageshadow="2"
     inkscape:pageopacity="0.0"
     inkscape:pagecheckerboard="0"
     inkscape:deskcolor="#d1d1d1">
    <inkscape:page
       x="0"
       y="0"
       inkscape:label="1"
       id="page1"
       width="4032.6667"
       height="2304.6667"
       margin="0"
       bleed="0" />
  </sodipodi:namedview>
  <g
     id="g1"
     inkscape:groupmode="layer"
     inkscape:label="1">
    <g
       id="group-R5">
      <path
         id="path2"
         d="M 30242.5,1082.5 C 30242.5,486 29759,2.5 29162.5,2.5 H 1082.5 C 486.031,2.5 2.5,486 2.5,1082.5 v 15120 c 0,596.5 483.531,1080 1080,1080 h 28080 c 596.5,0 1080,-483.5 1080,-1080 v -15120"
         style="fill:#ffffff;fill-opacity:1;fill-rule:nonzero;stroke:none"
         transform="matrix(0.13333333,0,0,-0.13333333,0,2304.6667)" />
      <path
         id="path3"
         d="M 30242.5,1082.5 C 30242.5,486 29759,2.5 29162.5,2.5 H 1082.5 C 486.031,2.5 2.5,486 2.5,1082.5 v 15120 c 0,596.5 483.531,1080 1080,1080 h 28080 c 596.5,0 1080,-483.5 1080,-1080 z"
         style="fill:none;stroke:#231f20;stroke-width:5;stroke-linecap:butt;stroke-linejoin:miter;stroke-miterlimit:4;stroke-dasharray:none;stroke-opacity:1"
         transform="matrix(0.13333333,0,0,-0.13333333,0,2304.6667)" />
      <path
         id="path4"
         d="m 29522.5,1082.5 c 0,-198.5 -161.5,-360 -360,-360 h -28080 c -198.508,0 -360,161.5 -360,360 v 15120 c 0,198.5 161.492,360 360,360 h 28080 c 198.5,0 360,-161.5 360,-360 z m -360,15930 h -28080 c -446.637,0 -810,-363.4 -810,-810 v -15120 c 0,-446.598 363.363,-810 810,-810 h 28080 c 446.6,0 810,363.402 810,810 v 15120 c 0,446.6 -363.4,810 -810,810"
         style="fill:#231f20;fill-opacity:1;fill-rule:nonzero;stroke:none"
         transform="matrix(0.13333333,0,0,-0.13333333,0,2304.6667)" />
      <path
         id="path5"
         d="m 19458.7,2162.5 v 2880 h 460.8 v -2880 h -460.8"
         style="fill:#231f20;fill-opacity:1;fill-rule:nonzero;stroke:none"
         transform="matrix(0.13333333,0,0,-0.13333333,0,2304.6667)" />
      <path
         id="path6"
         d="M 8847.78,4638.3 V 2162.5 h -456.69 v 2475.8 h -659.74 v 404.2 h 1786.32 v -404.2 h -669.89"
         style="fill:#231f20;fill-opacity:1;fill-rule:nonzero;stroke:none"
         transform="matrix(0.13333333,0,0,-0.13333333,0,2304.6667)" />
      <path
         id="path7"
         d="m 11212.9,4537.2 c -70.7,40.5 -111.2,50.5 -262.8,50.5 h -545.7 v -707.3 h 545.7 c 141.5,0 192.1,10.1 262.8,50.5 111.2,60.6 181.9,181.9 181.9,303.2 0,121.2 -70.7,242.5 -181.9,303.1 z m 202.1,-2374.7 -464.9,1253 h -545.7 v -1253 h -454.73 v 2880 h 949.93 c 222.4,0 373.9,-20.2 515.4,-91 252.7,-121.2 434.6,-424.4 434.6,-717.4 0,-303.2 -181.9,-606.4 -444.7,-727.6 l 505.3,-1344 H 11415"
         style="fill:#231f20;fill-opacity:1;fill-rule:nonzero;stroke:none"
         transform="matrix(0.13333333,0,0,-0.13333333,0,2304.6667)" />
      <path
         id="path8"
         d="m 13370.4,4244.2 -294.7,-808.5 h 579.3 z m 731.8,-2081.7 -284.6,808.4 h -904.5 l -284.6,-808.4 h -487.9 l 996.1,2880 h 457.3 l 996.1,-2880 h -487.9"
         style="fill:#231f20;fill-opacity:1;fill-rule:nonzero;stroke:none"
         transform="matrix(0.13333333,0,0,-0.13333333,0,2304.6667)" />
      <path
         id="path9"
         d="m 21644.5,2112 c -424.4,0 -697.3,161.6 -879.2,515.3 -131.4,252.6 -212.2,616.4 -212.2,980.2 0,454.8 121.3,909.5 323.4,1162.1 171.8,212.3 414.3,323.4 737.7,323.4 434.6,0 707.4,-181.9 899.5,-586.1 L 22089.2,4325 c -161.7,242.5 -252.6,303.2 -475,303.2 -232.4,0 -384,-101.1 -485.1,-353.7 -70.7,-171.8 -111.1,-424.4 -111.1,-667 0,-313.2 70.7,-626.5 181.9,-808.4 101,-151.6 232.4,-222.3 434.5,-222.3 192,0 333.5,101.1 444.7,333.5 l 434.6,-161.7 C 22341.9,2324.2 22058.9,2112 21644.5,2112"
         style="fill:#231f20;fill-opacity:1;fill-rule:nonzero;stroke:none"
         transform="matrix(0.13333333,0,0,-0.13333333,0,2304.6667)" />
      <path
         id="path10"
         d="m 15476.2,4587.8 v -707.4 h 837.6 v -464.9 h -837.6 v -1253 h -454.1 v 2880 h 1786.3 v -454.7 h -1332.2"
         style="fill:#231f20;fill-opacity:1;fill-rule:nonzero;stroke:none"
         transform="matrix(0.13333333,0,0,-0.13333333,0,2304.6667)" />
      <path
         id="path11"
         d="m 17694.5,4587.8 v -707.4 h 837.7 v -464.9 h -837.7 v -1253 h -454.1 v 2880 h 1786.3 v -454.7 h -1332.2"
         style="fill:#231f20;fill-opacity:1;fill-rule:nonzero;stroke:none"
         transform="matrix(0.13333333,0,0,-0.13333333,0,2304.6667)" />
      <path
         id="path12"
         d="m 14295.3,12242.5 -1101.6,1950.3 v -1950.3 h -454.8 v 2880 h 454.8 l 1051,-1839.2 v 1839.2 h 454.8 v -2880 h -404.2"
         style="fill:#231f20;fill-opacity:1;fill-rule:nonzero;stroke:none"
         transform="matrix(0.13333333,0,0,-0.13333333,0,2304.6667)" />
      <path
         id="path13"
         d="m 16878,14485.9 c -91.2,151.5 -202.6,212.2 -374.8,222.3 -222.9,10.1 -364.7,-101.1 -466,-353.7 -70.9,-171.8 -111.4,-434.5 -111.4,-677.1 0,-303.1 60.8,-616.4 172.2,-798.3 91.2,-151.6 212.7,-222.3 395.1,-222.3 212.7,0 344.4,111.2 445.7,363.8 60.8,151.6 111.4,434.5 111.4,656.8 0,323.4 -60.8,616.5 -172.2,808.5 z m 314,-1970.6 c -162,-222.3 -395,-323.3 -698.9,-323.3 -405.2,0 -658.5,161.7 -830.7,515.3 -121.5,242.6 -202.6,626.6 -202.6,970.1 0,475 121.6,899.4 314.1,1172.3 172.2,222.3 405.2,323.3 739.4,323.3 364.7,0 618,-161.7 800.3,-515.3 121.5,-252.7 192.5,-616.5 192.5,-980.3 0,-454.7 -111.5,-909.4 -314.1,-1162.1"
         style="fill:#231f20;fill-opacity:1;fill-rule:nonzero;stroke:none"
         transform="matrix(0.13333333,0,0,-0.13333333,0,2304.6667)" />
      <path
         id="path14"
         d="M 3076.05,7202.5 2188.62,9132.6 V 7202.5 h -413.46 v 2880 h 413.46 l 786.59,-1728.01 v 1728.01 h 413.46 v -2880 h -312.62"
         style="fill:#231f20;fill-opacity:1;fill-rule:nonzero;stroke:none"
         transform="matrix(0.13333333,0,0,-0.13333333,0,2304.6667)" />
      <path
         id="path15"
         d="M 7311.08,7202.5 6423.65,9132.6 V 7202.5 h -413.46 v 2880 h 413.46 l 786.58,-1728.01 v 1728.01 h 413.47 v -2880 h -312.62"
         style="fill:#231f20;fill-opacity:1;fill-rule:nonzero;stroke:none"
         transform="matrix(0.13333333,0,0,-0.13333333,0,2304.6667)" />
      <path
         id="path16"
         d="m 5060.78,9365.02 c -71.25,252.63 -183.22,363.79 -356.27,363.79 -183.22,0 -295.19,-111.16 -366.44,-353.68 -71.25,-222.31 -91.61,-414.31 -91.61,-737.68 0,-313.27 30.53,-495.16 91.61,-727.59 71.25,-242.52 183.22,-353.69 366.44,-353.69 173.05,0 285.02,111.17 356.27,353.69 71.27,232.43 91.62,404.22 91.62,737.68 0,323.37 -30.54,505.28 -91.62,717.48 z M 5386.52,7647.13 C 5244,7303.55 5030.25,7152 4704.51,7152 c -346.09,0 -549.67,151.55 -692.17,495.13 -122.16,282.95 -162.87,555.78 -162.87,1000.41 0,434.54 40.71,727.59 162.87,1000.43 152.68,343.58 356.27,485.03 692.17,485.03 335.92,0 539.49,-141.45 682.01,-495.13 122.15,-282.95 162.87,-555.79 162.87,-990.33 0,-444.63 -40.72,-727.58 -162.87,-1000.41"
         style="fill:#231f20;fill-opacity:1;fill-rule:nonzero;stroke:none"
         transform="matrix(0.13333333,0,0,-0.13333333,0,2304.6667)" />
      <path
         id="path17"
         d="m 27985.8,9385.24 c -70.6,202.1 -191.6,293.05 -373.1,293.05 h -342.9 V 7606.7 h 342.9 c 242,0 373.1,192.01 413.4,414.32 20.2,181.89 40.4,384 40.4,606.32 0,323.37 -30.3,636.63 -80.7,757.9 z m 70.6,-2051.37 c -100.9,-90.97 -242,-131.37 -403.4,-131.37 h -796.7 v 2880 h 736.2 c 242,0 363,-30.3 463.9,-111.16 171.4,-121.27 292.4,-343.58 342.9,-636.63 40.3,-212.21 70.5,-464.84 70.5,-687.17 0,-666.93 -131,-1091.37 -413.4,-1313.67"
         style="fill:#231f20;fill-opacity:1;fill-rule:nonzero;stroke:none"
         transform="matrix(0.13333333,0,0,-0.13333333,0,2304.6667)" />
      <path
         id="path18"
         d="m 24995.1,7202.5 v 2880 h 1358.1 v -404.21 h -942.6 v -727.58 h 598 V 8556.6 h -598 v -949.9 h 1054 v -404.2 h -1469.5"
         style="fill:#231f20;fill-opacity:1;fill-rule:nonzero;stroke:none"
         transform="matrix(0.13333333,0,0,-0.13333333,0,2304.6667)" />
      <path
         id="path19"
         d="m 22195,7202.5 v 2880 h 403.2 v -2880 H 22195"
         style="fill:#231f20;fill-opacity:1;fill-rule:nonzero;stroke:none"
         transform="matrix(0.13333333,0,0,-0.13333333,0,2304.6667)" />
      <path
         id="path20"
         d="M 13431.1,7202.5 V 8819.34 L 12894.8,7202.5 12358.5,8819.34 V 7202.5 h -414.8 v 2880 h 414.8 l 536.3,-1616.86 536.3,1616.86 h 414.8 v -2880 h -414.8"
         style="fill:#231f20;fill-opacity:1;fill-rule:nonzero;stroke:none"
         transform="matrix(0.13333333,0,0,-0.13333333,0,2304.6667)" />
      <path
         id="path21"
         d="m 15518.1,9365.02 c -71.3,252.63 -183.3,363.79 -356.3,363.79 -183.2,0 -295.2,-111.16 -366.5,-353.68 -71.2,-222.31 -91.6,-414.31 -91.6,-737.68 0,-313.27 30.6,-495.16 91.6,-727.59 71.3,-242.52 183.3,-353.69 366.5,-353.69 173,0 285,111.17 356.3,353.69 71.2,232.43 91.6,404.22 91.6,737.68 0,323.37 -30.6,505.28 -91.6,717.48 z m 325.7,-1717.89 c -142.5,-343.58 -356.3,-495.13 -682,-495.13 -346.1,0 -549.7,151.55 -692.2,495.13 -122.1,282.95 -162.9,555.78 -162.9,1000.41 0,434.54 40.8,727.59 162.9,1000.43 152.7,343.58 356.3,485.03 692.2,485.03 335.9,0 539.5,-141.45 682,-495.13 122.2,-282.95 162.9,-555.79 162.9,-990.33 0,-444.63 -40.7,-727.58 -162.9,-1000.41"
         style="fill:#231f20;fill-opacity:1;fill-rule:nonzero;stroke:none"
         transform="matrix(0.13333333,0,0,-0.13333333,0,2304.6667)" />
      <path
         id="path22"
         d="m 19240.4,9365.02 c -71.2,252.63 -183.2,363.79 -356.2,363.79 -183.2,0 -295.2,-111.16 -366.5,-353.68 -71.2,-222.31 -91.6,-414.31 -91.6,-737.68 0,-313.27 30.6,-495.16 91.6,-727.59 71.3,-242.52 183.3,-353.69 366.5,-353.69 173,0 285,111.17 356.2,353.69 71.3,232.43 91.7,404.22 91.7,737.68 0,323.37 -30.6,505.28 -91.7,717.48 z m 325.8,-1717.89 c -142.5,-343.58 -356.3,-495.13 -682,-495.13 -346.1,0 -549.7,151.55 -692.2,495.13 -122.2,282.95 -162.9,555.78 -162.9,1000.41 0,434.54 40.7,727.59 162.9,1000.43 152.7,343.58 356.3,485.03 692.2,485.03 335.9,0 539.5,-141.45 682,-495.13 122.1,-282.95 162.9,-555.79 162.9,-990.33 0,-444.63 -40.8,-727.58 -162.9,-1000.41"
         style="fill:#231f20;fill-opacity:1;fill-rule:nonzero;stroke:none"
         transform="matrix(0.13333333,0,0,-0.13333333,0,2304.6667)" />
      <path
         id="path23"
         d="m 21026.9,9678.29 h -423.6 V 8950.7 h 423.6 c 242,0 373.1,131.37 373.1,363.79 0,222.32 -151.3,363.8 -373.1,363.8 z m 352.9,-2475.79 -383.2,1354.1 h -393.3 V 7202.5 h -413.5 v 2880 h 857.2 c 453.8,0 756.4,-303.17 756.4,-768.01 0,-343.58 -141.2,-596.21 -413.5,-697.26 l 413.5,-1414.73 h -423.6"
         style="fill:#231f20;fill-opacity:1;fill-rule:nonzero;stroke:none"
         transform="matrix(0.13333333,0,0,-0.13333333,0,2304.6667)" />
      <path
         id="path24"
         d="M 17225.6,9698.49 V 7202.5 h -415.5 v 2495.99 h -527 v 384.01 h 1469.6 v -384.01 h -527.1"
         style="fill:#231f20;fill-opacity:1;fill-rule:nonzero;stroke:none"
         transform="matrix(0.13333333,0,0,-0.13333333,0,2304.6667)" />
      <path
         id="path25"
         d="m 22989.9,7202.5 v 443.05 l 1089.4,2034.1 H 23103 v 402.75 h 1500.5 V 9820.63 L 23421.6,7595.2 h 1181.9 v -392.7 h -1613.6"
         style="fill:#231f20;fill-opacity:1;fill-rule:nonzero;stroke:none"
         transform="matrix(0.13333333,0,0,-0.13333333,0,2304.6667)" />
      <path
         id="path26"
         d="m 9063.7,8384.82 v 384 h 1440 v -384 h -1440"
         style="fill:#231f20;fill-opacity:1;fill-rule:nonzero;stroke:none"
         transform="matrix(0.13333333,0,0,-0.13333333,0,2304.6667)" />
    </g>
  </g>
</svg>
