<?xml version="1.0" standalone="no"?>
<svg width="3456px" height="2160px" viewBox="0 -1368 3456 2160 " xmlns="http://www.w3.org/2000/svg" xmlns:xlink="http://www.w3.org/1999/xlink">
<title>generated by pstoedit</title>
<!-- generated by pstoedit version:4.02 -->
<g xml:space='preserve'>
<clipPath id="clippath1"> 	<path d="
	M 0 -1368.5 
	L 0 792 
	L 3456.5 792 
	L 3456.5 -1368.5 
	Z 
	" style="clip-rule:nonzero"/>
</clipPath>
<g style="clip-path:url(#clippath1)"> 
<g fill="#ffffff" fill-rule="nonzero" stroke-width="0" stroke-linejoin="miter" stroke-linecap="butt" stroke-miterlimit="10" >
	<path d="
	M 3456.25 656.75 
	C 3456.25 731.309 3395.81 791.75 3321.25 791.75 
	L 135.25 791.75 
	C 60.6914 791.75 0.25 731.309 0.25 656.75 
	L 0.25 -1233.25 
	C 0.25 -1307.81 60.6914 -1368.25 135.25 -1368.25 
	L 3321.25 -1368.25 
	C 3395.81 -1368.25 3456.25 -1307.81 3456.25 -1233.25 
	Z 
	"/>
</g>
<g stroke="#7f7f7f" fill="none" stroke-width="0.5" stroke-linejoin="miter" stroke-linecap="butt" stroke-miterlimit="4" >
	<path d="
	M 3456.25 656.75 
	C 3456.25 731.309 3395.81 791.75 3321.25 791.75 
	L 135.25 791.75 
	C 60.6914 791.75 0.25 731.309 0.25 656.75 
	L 0.25 -1233.25 
	C 0.25 -1307.81 60.6914 -1368.25 135.25 -1368.25 
	L 3321.25 -1368.25 
	C 3395.81 -1368.25 3456.25 -1307.81 3456.25 -1233.25 
	Z 
	"/>
</g>
<g fill="#7f7f7f" fill-rule="nonzero" stroke-width="0" stroke-linejoin="miter" stroke-linecap="butt" stroke-miterlimit="4" >
	<path d="
	M 3357.25 656.75 
	C 3357.25 676.602 3341.1 692.75 3321.25 692.75 
	L 135.25 692.75 
	C 115.398 692.75 99.25 676.602 99.25 656.75 
	L 99.25 -1233.25 
	C 99.25 -1253.1 115.398 -1269.25 135.25 -1269.25 
	L 3321.25 -1269.25 
	C 3341.1 -1269.25 3357.25 -1253.1 3357.25 -1233.25 
	Z 
	M 3321.25 -1323.25 
	L 135.25 -1323.25 
	C 85.625 -1323.25 45.25 -1282.88 45.25 -1233.25 
	L 45.25 656.75 
	C 45.25 706.379 85.625 746.75 135.25 746.75 
	L 3321.25 746.75 
	C 3370.88 746.75 3411.25 706.379 3411.25 656.75 
	L 3411.25 -1233.25 
	C 3411.25 -1282.88 3370.88 -1323.25 3321.25 -1323.25 
	Z 
	"/>
</g>
<g fill="#7f7f7f" fill-rule="nonzero" stroke-width="0" stroke-linejoin="miter" stroke-linecap="butt" stroke-miterlimit="4" >
	<path d="
	M 1823.79 521.75 
	L 1823.79 161.738 
	L 1880.56 161.738 
	L 1880.56 468.699 
	L 2047.08 468.699 
	L 2047.08 521.75 
	Z 
	"/>
</g>
<g fill="#7f7f7f" fill-rule="nonzero" stroke-width="0" stroke-linejoin="miter" stroke-linecap="butt" stroke-miterlimit="4" >
	<path d="
	M 2570.07 501.262 
	C 2549.86 518.949 2522.06 529.051 2491.75 529.051 
	C 2429.85 529.051 2384.37 492.422 2360.37 438.109 
	L 2414.69 417.898 
	C 2429.85 452 2457.64 470.949 2491.75 470.949 
	C 2524.59 470.949 2547.33 448.211 2547.33 417.898 
	C 2547.33 369.898 2491.75 362.32 2445 343.371 
	C 2423.53 334.531 2375.53 313.059 2375.53 253.691 
	C 2375.53 182.949 2423.53 156.422 2487.96 156.422 
	C 2538.48 156.422 2572.59 185.48 2590.28 229.691 
	L 2539.75 244.84 
	C 2539.75 244.84 2527.12 214.531 2486.69 213.27 
	C 2460.16 212 2428.58 222.109 2431.11 254.949 
	C 2436.16 321.898 2605.44 277.691 2605.44 419.16 
	C 2605.44 452 2592.8 481.051 2570.07 501.262 
	Z 
	"/>
</g>
<g fill="#7f7f7f" fill-rule="nonzero" stroke-width="0" stroke-linejoin="miter" stroke-linecap="butt" stroke-miterlimit="4" >
	<path d="
	M 1327.02 365.121 
	L 1327.02 521.75 
	L 1269.89 521.75 
	L 1269.89 365.121 
	L 1142.94 161.75 
	L 1211.49 161.75 
	L 1297.83 300.699 
	L 1385.43 161.75 
	L 1452.71 161.75 
	Z 
	"/>
</g>
<g fill="#7f7f7f" fill-rule="nonzero" stroke-width="0" stroke-linejoin="miter" stroke-linecap="butt" stroke-miterlimit="4" >
	<path d="
	M 2101.08 521.75 
	L 2101.08 161.75 
	L 2313.01 161.75 
	L 2313.01 218.59 
	L 2157.84 218.59 
	L 2157.84 307.012 
	L 2262.55 307.012 
	L 2262.55 365.121 
	L 2157.84 365.121 
	L 2157.84 463.641 
	L 2324.37 463.641 
	L 2324.37 521.75 
	Z 
	"/>
</g>
<g fill="#7f7f7f" fill-rule="nonzero" stroke-width="0" stroke-linejoin="miter" stroke-linecap="butt" stroke-miterlimit="4" >
	<path d="
	M 987.492 529.059 
	C 934.438 529.059 900.328 508.84 877.594 464.629 
	C 861.172 433.051 851.063 387.578 851.063 342.109 
	C 851.063 285.262 866.223 228.422 891.488 196.84 
	C 912.961 170.32 943.281 156.422 983.703 156.422 
	C 1038.02 156.422 1072.13 179.16 1096.13 229.691 
	L 1043.08 252.422 
	C 1022.86 222.109 1011.5 214.531 983.703 214.531 
	C 954.648 214.531 935.699 227.16 923.07 258.738 
	C 914.227 280.211 909.172 311.789 909.172 342.109 
	C 909.172 381.262 918.016 420.422 931.91 443.16 
	C 944.543 462.109 960.965 470.949 986.23 470.949 
	C 1010.23 470.949 1027.92 458.32 1041.81 429.27 
	L 1096.13 449.48 
	C 1074.66 502.531 1039.29 529.059 987.492 529.059 
	Z 
	"/>
</g>
<g fill="#7f7f7f" fill-rule="nonzero" stroke-width="0" stroke-linejoin="miter" stroke-linecap="butt" stroke-miterlimit="4" >
	<path d="
	M 1635.95 529.059 
	C 1582.89 529.059 1548.78 508.84 1526.04 464.629 
	C 1509.62 433.051 1499.52 387.578 1499.52 342.109 
	C 1499.52 285.262 1514.67 228.422 1539.94 196.84 
	C 1561.41 170.32 1591.73 156.422 1632.16 156.422 
	C 1686.48 156.422 1720.58 179.16 1744.59 229.691 
	L 1691.53 252.422 
	C 1671.32 222.109 1659.95 214.531 1632.16 214.531 
	C 1603.1 214.531 1584.15 227.16 1571.52 258.738 
	C 1562.68 280.211 1557.63 311.789 1557.63 342.109 
	C 1557.63 381.262 1566.47 420.422 1580.36 443.16 
	C 1593 462.109 1609.42 470.949 1634.68 470.949 
	C 1658.68 470.949 1676.37 458.32 1690.27 429.27 
	L 1744.59 449.48 
	C 1723.11 502.531 1687.74 529.059 1635.95 529.059 
	Z 
	"/>
</g>
<g fill="#7f7f7f" fill-rule="nonzero" stroke-width="0" stroke-linejoin="miter" stroke-linecap="butt" stroke-miterlimit="4" >
	<path d="
	M 1624.85 -738.25 
	L 1487.15 -982.04 
	L 1487.15 -738.25 
	L 1430.3 -738.25 
	L 1430.3 -1098.25 
	L 1487.15 -1098.25 
	L 1618.53 -868.36 
	L 1618.53 -1098.25 
	L 1675.37 -1098.25 
	L 1675.37 -738.25 
	Z 
	"/>
</g>
<g fill="#7f7f7f" fill-rule="nonzero" stroke-width="0" stroke-linejoin="miter" stroke-linecap="butt" stroke-miterlimit="4" >
	<path d="
	M 1947.69 -1018.67 
	C 1936.29 -1037.62 1922.37 -1045.2 1900.84 -1046.46 
	C 1872.98 -1047.72 1855.25 -1033.83 1842.59 -1002.25 
	C 1833.73 -980.78 1828.66 -947.93 1828.66 -917.62 
	C 1828.66 -879.72 1836.26 -840.57 1850.19 -817.83 
	C 1861.59 -798.88 1876.78 -790.04 1899.57 -790.04 
	C 1926.16 -790.04 1942.62 -803.93 1955.29 -835.51 
	C 1962.88 -854.46 1969.22 -889.83 1969.22 -917.62 
	C 1969.22 -958.04 1961.62 -994.67 1947.69 -1018.67 
	Z 
	M 1986.94 -772.36 
	C 1966.68 -744.56 1937.56 -731.93 1899.57 -731.93 
	C 1848.92 -731.93 1817.26 -752.14 1795.74 -796.36 
	C 1780.55 -826.67 1770.42 -874.67 1770.42 -917.62 
	C 1770.42 -976.99 1785.61 -1030.04 1809.67 -1064.14 
	C 1831.2 -1091.94 1860.32 -1104.57 1902.1 -1104.57 
	C 1947.69 -1104.57 1979.34 -1084.36 2002.14 -1040.14 
	C 2017.33 -1008.57 2026.2 -963.09 2026.2 -917.62 
	C 2026.2 -860.78 2012.27 -803.93 1986.94 -772.36 
	Z 
	"/>
</g>
<g fill="#7f7f7f" fill-rule="nonzero" stroke-width="0" stroke-linejoin="miter" stroke-linecap="butt" stroke-miterlimit="4" >
	<path d="
	M 378.641 -108.25 
	L 378.641 -310.36 
	L 311.605 -108.25 
	L 244.57 -310.36 
	L 244.57 -108.25 
	L 192.715 -108.25 
	L 192.715 -468.25 
	L 244.57 -468.25 
	L 311.605 -266.15 
	L 378.641 -468.25 
	L 430.492 -468.25 
	L 430.492 -108.25 
	Z 
	"/>
</g>
<g fill="#7f7f7f" fill-rule="nonzero" stroke-width="0" stroke-linejoin="miter" stroke-linecap="butt" stroke-miterlimit="4" >
	<path d="
	M 639.512 -378.57 
	C 630.605 -410.14 616.605 -424.04 594.977 -424.04 
	C 572.074 -424.04 558.074 -410.14 549.172 -379.83 
	C 540.266 -352.04 537.719 -328.04 537.719 -287.62 
	C 537.719 -248.46 541.535 -225.72 549.172 -196.672 
	C 558.074 -166.359 572.074 -152.461 594.977 -152.461 
	C 616.605 -152.461 630.605 -166.359 639.512 -196.672 
	C 648.418 -225.72 650.961 -247.2 650.961 -288.88 
	C 650.961 -329.3 647.145 -352.04 639.512 -378.57 
	Z 
	M 680.227 -163.828 
	C 662.41 -120.879 635.691 -101.93 594.977 -101.93 
	C 551.715 -101.93 526.27 -120.879 508.453 -163.828 
	C 493.184 -199.199 488.098 -233.3 488.098 -288.88 
	C 488.098 -343.2 493.184 -379.83 508.453 -413.93 
	C 527.539 -456.88 552.988 -474.57 594.977 -474.57 
	C 636.965 -474.57 662.41 -456.88 680.227 -412.67 
	C 695.496 -377.3 700.586 -343.2 700.586 -288.88 
	C 700.586 -233.3 695.496 -197.941 680.227 -163.828 
	Z 
	"/>
</g>
<g fill="#7f7f7f" fill-rule="nonzero" stroke-width="0" stroke-linejoin="miter" stroke-linecap="butt" stroke-miterlimit="4" >
	<path d="
	M 1104.81 -378.57 
	C 1095.9 -410.14 1081.91 -424.04 1060.27 -424.04 
	C 1037.37 -424.04 1023.38 -410.14 1014.47 -379.83 
	C 1005.56 -352.04 1003.02 -328.04 1003.02 -287.62 
	C 1003.02 -248.46 1006.83 -225.72 1014.47 -196.672 
	C 1023.38 -166.359 1037.37 -152.461 1060.27 -152.461 
	C 1081.91 -152.461 1095.9 -166.359 1104.81 -196.672 
	C 1113.72 -225.72 1116.26 -247.2 1116.26 -288.88 
	C 1116.26 -329.3 1112.44 -352.04 1104.81 -378.57 
	Z 
	M 1145.53 -163.828 
	C 1127.71 -120.879 1100.99 -101.93 1060.27 -101.93 
	C 1017.01 -101.93 991.566 -120.879 973.754 -163.828 
	C 958.48 -199.199 953.395 -233.3 953.395 -288.88 
	C 953.395 -343.2 958.48 -379.83 973.754 -413.93 
	C 992.84 -456.88 1018.29 -474.57 1060.27 -474.57 
	C 1102.26 -474.57 1127.71 -456.88 1145.53 -412.67 
	C 1160.79 -377.3 1165.88 -343.2 1165.88 -288.88 
	C 1165.88 -233.3 1160.79 -197.941 1145.53 -163.828 
	Z 
	"/>
</g>
<g fill="#7f7f7f" fill-rule="nonzero" stroke-width="0" stroke-linejoin="miter" stroke-linecap="butt" stroke-miterlimit="4" >
	<path d="
	M 1328.11 -417.73 
	L 1275.17 -417.73 
	L 1275.17 -326.78 
	L 1328.11 -326.78 
	C 1358.36 -326.78 1374.75 -343.2 1374.75 -372.25 
	C 1374.75 -400.04 1355.84 -417.73 1328.11 -417.73 
	Z 
	M 1372.23 -108.25 
	L 1324.33 -277.51 
	L 1275.17 -277.51 
	L 1275.17 -108.25 
	L 1223.48 -108.25 
	L 1223.48 -468.25 
	L 1330.63 -468.25 
	C 1387.36 -468.25 1425.17 -430.36 1425.17 -372.25 
	C 1425.17 -329.3 1407.53 -297.72 1373.49 -285.09 
	L 1425.17 -108.25 
	Z 
	"/>
</g>
<g fill="#7f7f7f" fill-rule="nonzero" stroke-width="0" stroke-linejoin="miter" stroke-linecap="butt" stroke-miterlimit="4" >
	<path d="
	M 852.961 -420.25 
	L 852.961 -108.25 
	L 801.02 -108.25 
	L 801.02 -420.25 
	L 735.145 -420.25 
	L 735.145 -468.25 
	L 918.836 -468.25 
	L 918.836 -420.25 
	Z 
	"/>
</g>
<g fill="#7f7f7f" fill-rule="nonzero" stroke-width="0" stroke-linejoin="miter" stroke-linecap="butt" stroke-miterlimit="4" >
	<path d="
	M 2106.36 -381.09 
	C 2097.53 -406.36 2082.41 -417.73 2059.72 -417.73 
	L 2016.86 -417.73 
	L 2016.86 -158.781 
	L 2059.72 -158.781 
	C 2089.97 -158.781 2106.36 -182.781 2111.4 -210.57 
	C 2113.92 -233.3 2116.44 -258.57 2116.44 -286.36 
	C 2116.44 -326.78 2112.66 -365.94 2106.36 -381.09 
	Z 
	M 2115.18 -124.672 
	C 2102.58 -113.301 2084.93 -108.25 2064.76 -108.25 
	L 1965.17 -108.25 
	L 1965.17 -468.25 
	L 2057.2 -468.25 
	C 2087.45 -468.25 2102.58 -464.46 2115.18 -454.36 
	C 2136.61 -439.2 2151.74 -411.41 2158.04 -374.78 
	C 2163.08 -348.25 2166.86 -316.67 2166.86 -288.88 
	C 2166.86 -205.512 2150.48 -152.461 2115.18 -124.672 
	Z 
	"/>
</g>
<g fill="#7f7f7f" fill-rule="nonzero" stroke-width="0" stroke-linejoin="miter" stroke-linecap="butt" stroke-miterlimit="4" >
	<path d="
	M 2829.44 -108.25 
	L 2829.44 -468.25 
	L 2999.2 -468.25 
	L 2999.2 -417.73 
	L 2881.38 -417.73 
	L 2881.38 -326.78 
	L 2956.13 -326.78 
	L 2956.13 -277.51 
	L 2881.38 -277.51 
	L 2881.38 -158.781 
	L 3013.13 -158.781 
	L 3013.13 -108.25 
	Z 
	"/>
</g>
<g fill="#7f7f7f" fill-rule="nonzero" stroke-width="0" stroke-linejoin="miter" stroke-linecap="butt" stroke-miterlimit="4" >
	<path d="
	M 2475.11 -108.25 
	L 2475.11 -468.25 
	L 2525.51 -468.25 
	L 2525.51 -108.25 
	Z 
	"/>
</g>
<g fill="#7f7f7f" fill-rule="nonzero" stroke-width="0" stroke-linejoin="miter" stroke-linecap="butt" stroke-miterlimit="4" >
	<path d="
	M 3224.71 -108.25 
	L 3113.78 -349.51 
	L 3113.78 -108.25 
	L 3062.09 -108.25 
	L 3062.09 -468.25 
	L 3113.78 -468.25 
	L 3212.1 -252.25 
	L 3212.1 -468.25 
	L 3263.78 -468.25 
	L 3263.78 -108.25 
	Z 
	"/>
</g>
<g fill="#7f7f7f" fill-rule="nonzero" stroke-width="0" stroke-linejoin="miter" stroke-linecap="butt" stroke-miterlimit="4" >
	<path d="
	M 2329.09 -417.73 
	L 2276.15 -417.73 
	L 2276.15 -326.78 
	L 2329.09 -326.78 
	C 2359.34 -326.78 2375.73 -343.2 2375.73 -372.25 
	C 2375.73 -400.04 2356.82 -417.73 2329.09 -417.73 
	Z 
	M 2373.21 -108.25 
	L 2325.31 -277.51 
	L 2276.15 -277.51 
	L 2276.15 -108.25 
	L 2224.46 -108.25 
	L 2224.46 -468.25 
	L 2331.61 -468.25 
	C 2388.34 -468.25 2426.15 -430.36 2426.15 -372.25 
	C 2426.15 -329.3 2408.51 -297.72 2374.47 -285.09 
	L 2426.15 -108.25 
	Z 
	"/>
</g>
<g fill="#7f7f7f" fill-rule="nonzero" stroke-width="0" stroke-linejoin="miter" stroke-linecap="butt" stroke-miterlimit="4" >
	<path d="
	M 2696.51 -108.25 
	L 2657.18 -108.25 
	L 2565.83 -468.25 
	L 2617.85 -468.25 
	L 2677.48 -234.57 
	L 2737.11 -468.25 
	L 2789.12 -468.25 
	Z 
	"/>
</g>
<g fill="#7f7f7f" fill-rule="nonzero" stroke-width="0" stroke-linejoin="miter" stroke-linecap="butt" stroke-miterlimit="4" >
	<path d="
	M 1605.17 -264.25 
	L 1605.17 -312.25 
	L 1785.17 -312.25 
	L 1785.17 -264.25 
	Z 
	"/>
</g>
</g >
</g>
</svg>
