<?xml version="1.0" standalone="no"?>
<svg width="3024px" height="1728px" viewBox="0 -936 3024 1728 " xmlns="http://www.w3.org/2000/svg" xmlns:xlink="http://www.w3.org/1999/xlink">
<title>generated by pstoedit</title>
<!-- generated by pstoedit version:4.02 -->
<g xml:space='preserve'>
<clipPath id="clippath1"> 	<path d="
	M 0 -936.5 
	L 0 792 
	L 3024.5 792 
	L 3024.5 -936.5 
	Z 
	" style="clip-rule:nonzero"/>
</clipPath>
<g style="clip-path:url(#clippath1)"> 
<g fill="#ffffff" fill-rule="nonzero" stroke-width="0" stroke-linejoin="miter" stroke-linecap="butt" stroke-miterlimit="10" >
	<path d="
	M 3024.25 683.75 
	C 3024.25 743.398 2975.9 791.75 2916.25 791.75 
	L 108.25 791.75 
	C 48.6016 791.75 0.25 743.398 0.25 683.75 
	L 0.25 -828.25 
	C 0.25 -887.9 48.6016 -936.25 108.25 -936.25 
	L 2916.25 -936.25 
	C 2975.9 -936.25 3024.25 -887.9 3024.25 -828.25 
	Z 
	"/>
</g>
<g stroke="#7f7f7f" fill="none" stroke-width="0.5" stroke-linejoin="miter" stroke-linecap="butt" stroke-miterlimit="4" >
	<path d="
	M 3024.25 683.75 
	C 3024.25 743.398 2975.9 791.75 2916.25 791.75 
	L 108.25 791.75 
	C 48.6016 791.75 0.25 743.398 0.25 683.75 
	L 0.25 -828.25 
	C 0.25 -887.9 48.6016 -936.25 108.25 -936.25 
	L 2916.25 -936.25 
	C 2975.9 -936.25 3024.25 -887.9 3024.25 -828.25 
	Z 
	"/>
</g>
<g fill="#7f7f7f" fill-rule="nonzero" stroke-width="0" stroke-linejoin="miter" stroke-linecap="butt" stroke-miterlimit="4" >
	<path d="
	M 2952.25 683.75 
	C 2952.25 703.602 2936.1 719.75 2916.25 719.75 
	L 108.25 719.75 
	C 88.3984 719.75 72.25 703.602 72.25 683.75 
	L 72.25 -828.25 
	C 72.25 -848.1 88.3984 -864.25 108.25 -864.25 
	L 2916.25 -864.25 
	C 2936.1 -864.25 2952.25 -848.1 2952.25 -828.25 
	Z 
	M 2916.25 -909.25 
	L 108.25 -909.25 
	C 63.5859 -909.25 27.25 -872.91 27.25 -828.25 
	L 27.25 683.75 
	C 27.25 728.41 63.5859 764.75 108.25 764.75 
	L 2916.25 764.75 
	C 2960.91 764.75 2997.25 728.41 2997.25 683.75 
	L 2997.25 -828.25 
	C 2997.25 -872.91 2960.91 -909.25 2916.25 -909.25 
	Z 
	"/>
</g>
<g fill="#7f7f7f" fill-rule="nonzero" stroke-width="0" stroke-linejoin="miter" stroke-linecap="butt" stroke-miterlimit="4" >
	<path d="
	M 1945.87 575.75 
	L 1945.87 287.75 
	L 1991.95 287.75 
	L 1991.95 575.75 
	Z 
	"/>
</g>
<g fill="#7f7f7f" fill-rule="nonzero" stroke-width="0" stroke-linejoin="miter" stroke-linecap="butt" stroke-miterlimit="4" >
	<path d="
	M 884.777 328.172 
	L 884.777 575.75 
	L 839.109 575.75 
	L 839.109 328.172 
	L 773.137 328.172 
	L 773.137 287.75 
	L 951.766 287.75 
	L 951.766 328.172 
	Z 
	"/>
</g>
<g fill="#7f7f7f" fill-rule="nonzero" stroke-width="0" stroke-linejoin="miter" stroke-linecap="butt" stroke-miterlimit="4" >
	<path d="
	M 1121.29 338.281 
	C 1114.22 334.23 1110.17 333.23 1095.01 333.23 
	L 1040.44 333.23 
	L 1040.44 403.961 
	L 1095.01 403.961 
	C 1109.16 403.961 1114.22 402.949 1121.29 398.91 
	C 1132.41 392.852 1139.48 380.719 1139.48 368.59 
	C 1139.48 356.469 1132.41 344.34 1121.29 338.281 
	Z 
	M 1141.5 575.75 
	L 1095.01 450.449 
	L 1040.44 450.449 
	L 1040.44 575.75 
	L 994.969 575.75 
	L 994.969 287.75 
	L 1089.96 287.75 
	C 1112.2 287.75 1127.35 289.77 1141.5 296.852 
	C 1166.77 308.969 1184.96 339.289 1184.96 368.59 
	C 1184.96 398.91 1166.77 429.23 1140.49 441.352 
	L 1191.02 575.75 
	Z 
	"/>
</g>
<g fill="#7f7f7f" fill-rule="nonzero" stroke-width="0" stroke-linejoin="miter" stroke-linecap="butt" stroke-miterlimit="4" >
	<path d="
	M 1337.04 367.578 
	L 1307.57 448.43 
	L 1365.5 448.43 
	Z 
	M 1410.22 575.75 
	L 1381.76 494.91 
	L 1291.31 494.91 
	L 1262.85 575.75 
	L 1214.06 575.75 
	L 1313.67 287.75 
	L 1359.4 287.75 
	L 1459.01 575.75 
	Z 
	"/>
</g>
<g fill="#7f7f7f" fill-rule="nonzero" stroke-width="0" stroke-linejoin="miter" stroke-linecap="butt" stroke-miterlimit="4" >
	<path d="
	M 2164.45 580.801 
	C 2122.01 580.801 2094.72 564.641 2076.53 529.27 
	C 2063.39 504.012 2055.31 467.629 2055.31 431.25 
	C 2055.31 385.77 2067.44 340.301 2087.65 315.039 
	C 2104.83 293.809 2129.08 282.699 2161.42 282.699 
	C 2204.88 282.699 2232.16 300.891 2251.37 341.309 
	L 2208.92 359.5 
	C 2192.75 335.25 2183.66 329.18 2161.42 329.18 
	C 2138.18 329.18 2123.02 339.289 2112.91 364.551 
	C 2105.84 381.73 2101.8 406.988 2101.8 431.25 
	C 2101.8 462.57 2108.87 493.898 2119.99 512.09 
	C 2130.09 527.25 2143.23 534.32 2163.44 534.32 
	C 2182.64 534.32 2196.79 524.211 2207.91 500.969 
	L 2251.37 517.141 
	C 2234.19 559.578 2205.89 580.801 2164.45 580.801 
	Z 
	"/>
</g>
<g fill="#7f7f7f" fill-rule="nonzero" stroke-width="0" stroke-linejoin="miter" stroke-linecap="butt" stroke-miterlimit="4" >
	<path d="
	M 1547.62 333.219 
	L 1547.62 403.961 
	L 1631.38 403.961 
	L 1631.38 450.449 
	L 1547.62 450.449 
	L 1547.62 575.75 
	L 1502.21 575.75 
	L 1502.21 287.75 
	L 1680.84 287.75 
	L 1680.84 333.219 
	Z 
	"/>
</g>
<g fill="#7f7f7f" fill-rule="nonzero" stroke-width="0" stroke-linejoin="miter" stroke-linecap="butt" stroke-miterlimit="4" >
	<path d="
	M 1769.45 333.219 
	L 1769.45 403.961 
	L 1853.22 403.961 
	L 1853.22 450.449 
	L 1769.45 450.449 
	L 1769.45 575.75 
	L 1724.04 575.75 
	L 1724.04 287.75 
	L 1902.67 287.75 
	L 1902.67 333.219 
	Z 
	"/>
</g>
<g fill="#7f7f7f" fill-rule="nonzero" stroke-width="0" stroke-linejoin="miter" stroke-linecap="butt" stroke-miterlimit="4" >
	<path d="
	M 1429.53 -432.25 
	L 1319.37 -627.28 
	L 1319.37 -432.25 
	L 1273.89 -432.25 
	L 1273.89 -720.25 
	L 1319.37 -720.25 
	L 1424.47 -536.33 
	L 1424.47 -720.25 
	L 1469.95 -720.25 
	L 1469.95 -432.25 
	Z 
	"/>
</g>
<g fill="#7f7f7f" fill-rule="nonzero" stroke-width="0" stroke-linejoin="miter" stroke-linecap="butt" stroke-miterlimit="4" >
	<path d="
	M 1687.8 -656.59 
	C 1678.68 -671.75 1667.54 -677.81 1650.32 -678.82 
	C 1628.03 -679.83 1613.85 -668.71 1603.72 -643.45 
	C 1596.63 -626.27 1592.58 -600 1592.58 -575.75 
	C 1592.58 -545.43 1598.66 -514.1 1609.8 -495.91 
	C 1618.92 -480.75 1631.07 -473.68 1649.31 -473.68 
	C 1670.58 -473.68 1683.75 -484.8 1693.88 -510.06 
	C 1699.96 -525.22 1705.02 -553.51 1705.02 -575.75 
	C 1705.02 -608.08 1698.94 -637.39 1687.8 -656.59 
	Z 
	M 1719.2 -459.54 
	C 1703 -437.3 1679.7 -427.2 1649.31 -427.2 
	C 1608.79 -427.2 1583.46 -443.37 1566.24 -478.73 
	C 1554.09 -502.99 1545.98 -541.39 1545.98 -575.75 
	C 1545.98 -623.24 1558.14 -665.68 1577.39 -692.96 
	C 1594.61 -715.2 1617.91 -725.3 1651.33 -725.3 
	C 1687.8 -725.3 1713.13 -709.13 1731.36 -673.77 
	C 1743.51 -648.5 1750.61 -612.13 1750.61 -575.75 
	C 1750.61 -530.27 1739.46 -484.8 1719.2 -459.54 
	Z 
	"/>
</g>
<g fill="#7f7f7f" fill-rule="nonzero" stroke-width="0" stroke-linejoin="miter" stroke-linecap="butt" stroke-miterlimit="4" >
	<path d="
	M 307.605 71.75 
	L 218.863 -121.262 
	L 218.863 71.75 
	L 177.516 71.75 
	L 177.516 -216.25 
	L 218.863 -216.25 
	L 297.52 -43.449 
	L 297.52 -216.25 
	L 338.867 -216.25 
	L 338.867 71.75 
	Z 
	"/>
</g>
<g fill="#7f7f7f" fill-rule="nonzero" stroke-width="0" stroke-linejoin="miter" stroke-linecap="butt" stroke-miterlimit="4" >
	<path d="
	M 731.109 71.75 
	L 642.363 -121.262 
	L 642.363 71.75 
	L 601.02 71.75 
	L 601.02 -216.25 
	L 642.363 -216.25 
	L 721.023 -43.449 
	L 721.023 -216.25 
	L 762.371 -216.25 
	L 762.371 71.75 
	Z 
	"/>
</g>
<g fill="#7f7f7f" fill-rule="nonzero" stroke-width="0" stroke-linejoin="miter" stroke-linecap="butt" stroke-miterlimit="4" >
	<path d="
	M 506.078 -144.504 
	C 498.953 -169.766 487.758 -180.883 470.449 -180.883 
	C 452.129 -180.883 440.934 -169.766 433.809 -145.512 
	C 426.684 -123.281 424.645 -104.082 424.645 -71.746 
	C 424.645 -40.418 427.699 -22.23 433.809 1.01599 
	C 440.934 25.266 452.129 36.383 470.449 36.383 
	C 487.758 36.383 498.953 25.266 506.078 1.01599 
	C 513.203 -22.23 515.238 -39.406 515.238 -72.754 
	C 515.238 -105.09 512.188 -123.281 506.078 -144.504 
	Z 
	M 538.652 27.285 
	C 524.398 61.645 503.023 76.801 470.449 76.801 
	C 435.844 76.801 415.484 61.645 401.234 27.285 
	C 389.02 -1.008 384.945 -28.289 384.945 -72.754 
	C 384.945 -116.207 389.02 -145.512 401.234 -172.797 
	C 416.504 -207.156 436.859 -221.3 470.449 -221.3 
	C 504.043 -221.3 524.398 -207.156 538.652 -171.785 
	C 550.867 -143.492 554.938 -116.207 554.938 -72.754 
	C 554.938 -28.289 550.867 0.00402832 538.652 27.285 
	Z 
	"/>
</g>
<g fill="#7f7f7f" fill-rule="nonzero" stroke-width="0" stroke-linejoin="miter" stroke-linecap="butt" stroke-miterlimit="4" >
	<path d="
	M 2798.58 -146.523 
	C 2791.52 -166.734 2779.42 -175.828 2761.27 -175.828 
	L 2726.98 -175.828 
	L 2726.98 31.328 
	L 2761.27 31.328 
	C 2785.47 31.328 2798.58 12.129 2802.61 -10.102 
	C 2804.63 -28.289 2806.65 -48.504 2806.65 -70.734 
	C 2806.65 -103.07 2803.62 -134.398 2798.58 -146.523 
	Z 
	M 2805.64 58.613 
	C 2795.55 67.711 2781.44 71.75 2765.3 71.75 
	L 2685.63 71.75 
	L 2685.63 -216.25 
	L 2759.25 -216.25 
	C 2783.45 -216.25 2795.55 -213.22 2805.64 -205.133 
	C 2822.78 -193.008 2834.88 -170.777 2839.93 -141.473 
	C 2843.96 -120.25 2846.98 -94.988 2846.98 -72.754 
	C 2846.98 -6.06299 2833.88 36.383 2805.64 58.613 
	Z 
	"/>
</g>
<g fill="#7f7f7f" fill-rule="nonzero" stroke-width="0" stroke-linejoin="miter" stroke-linecap="butt" stroke-miterlimit="4" >
	<path d="
	M 2499.51 71.75 
	L 2499.51 -216.25 
	L 2635.32 -216.25 
	L 2635.32 -175.828 
	L 2541.06 -175.828 
	L 2541.06 -103.07 
	L 2600.86 -103.07 
	L 2600.86 -63.66 
	L 2541.06 -63.66 
	L 2541.06 31.328 
	L 2646.46 31.328 
	L 2646.46 71.75 
	Z 
	"/>
</g>
<g fill="#7f7f7f" fill-rule="nonzero" stroke-width="0" stroke-linejoin="miter" stroke-linecap="butt" stroke-miterlimit="4" >
	<path d="
	M 2219.5 71.75 
	L 2219.5 -216.25 
	L 2259.82 -216.25 
	L 2259.82 71.75 
	Z 
	"/>
</g>
<g fill="#7f7f7f" fill-rule="nonzero" stroke-width="0" stroke-linejoin="miter" stroke-linecap="butt" stroke-miterlimit="4" >
	<path d="
	M 1343.11 71.75 
	L 1343.11 -89.934 
	L 1289.48 71.75 
	L 1235.85 -89.934 
	L 1235.85 71.75 
	L 1194.37 71.75 
	L 1194.37 -216.25 
	L 1235.85 -216.25 
	L 1289.48 -54.563 
	L 1343.11 -216.25 
	L 1384.59 -216.25 
	L 1384.59 71.75 
	Z 
	"/>
</g>
<g fill="#7f7f7f" fill-rule="nonzero" stroke-width="0" stroke-linejoin="miter" stroke-linecap="butt" stroke-miterlimit="4" >
	<path d="
	M 1551.81 -144.504 
	C 1544.68 -169.766 1533.48 -180.883 1516.18 -180.883 
	C 1497.86 -180.883 1486.66 -169.766 1479.53 -145.512 
	C 1472.41 -123.281 1470.37 -104.082 1470.37 -71.746 
	C 1470.37 -40.418 1473.43 -22.23 1479.53 1.01599 
	C 1486.66 25.266 1497.86 36.383 1516.18 36.383 
	C 1533.48 36.383 1544.68 25.266 1551.81 1.01599 
	C 1558.93 -22.23 1560.97 -39.406 1560.97 -72.754 
	C 1560.97 -105.09 1557.91 -123.281 1551.81 -144.504 
	Z 
	M 1584.38 27.285 
	C 1570.13 61.645 1548.75 76.801 1516.18 76.801 
	C 1481.57 76.801 1461.21 61.645 1446.96 27.285 
	C 1434.75 -1.008 1430.67 -28.289 1430.67 -72.754 
	C 1430.67 -116.207 1434.75 -145.512 1446.96 -172.797 
	C 1462.23 -207.156 1482.59 -221.3 1516.18 -221.3 
	C 1549.77 -221.3 1570.13 -207.156 1584.38 -171.785 
	C 1596.6 -143.492 1600.67 -116.207 1600.67 -72.754 
	C 1600.67 -28.289 1596.6 0.00402832 1584.38 27.285 
	Z 
	"/>
</g>
<g fill="#7f7f7f" fill-rule="nonzero" stroke-width="0" stroke-linejoin="miter" stroke-linecap="butt" stroke-miterlimit="4" >
	<path d="
	M 1924.04 -144.504 
	C 1916.92 -169.766 1905.72 -180.883 1888.42 -180.883 
	C 1870.1 -180.883 1858.9 -169.766 1851.77 -145.512 
	C 1844.65 -123.281 1842.61 -104.082 1842.61 -71.746 
	C 1842.61 -40.418 1845.67 -22.23 1851.77 1.01599 
	C 1858.9 25.266 1870.1 36.383 1888.42 36.383 
	C 1905.72 36.383 1916.92 25.266 1924.04 1.01599 
	C 1931.17 -22.23 1933.21 -39.406 1933.21 -72.754 
	C 1933.21 -105.09 1930.15 -123.281 1924.04 -144.504 
	Z 
	M 1956.62 27.285 
	C 1942.37 61.645 1920.99 76.801 1888.42 76.801 
	C 1853.81 76.801 1833.45 61.645 1819.2 27.285 
	C 1806.98 -1.008 1802.91 -28.289 1802.91 -72.754 
	C 1802.91 -116.207 1806.98 -145.512 1819.2 -172.797 
	C 1834.47 -207.156 1854.83 -221.3 1888.42 -221.3 
	C 1922.01 -221.3 1942.37 -207.156 1956.62 -171.785 
	C 1968.83 -143.492 1972.91 -116.207 1972.91 -72.754 
	C 1972.91 -28.289 1968.83 0.00402832 1956.62 27.285 
	Z 
	"/>
</g>
<g fill="#7f7f7f" fill-rule="nonzero" stroke-width="0" stroke-linejoin="miter" stroke-linecap="butt" stroke-miterlimit="4" >
	<path d="
	M 2102.69 -175.828 
	L 2060.33 -175.828 
	L 2060.33 -103.07 
	L 2102.69 -103.07 
	C 2126.89 -103.07 2140 -116.207 2140 -139.449 
	C 2140 -161.68 2124.87 -175.828 2102.69 -175.828 
	Z 
	M 2137.98 71.75 
	L 2099.66 -63.66 
	L 2060.33 -63.66 
	L 2060.33 71.75 
	L 2018.98 71.75 
	L 2018.98 -216.25 
	L 2104.7 -216.25 
	C 2150.08 -216.25 2180.34 -185.934 2180.34 -139.449 
	C 2180.34 -105.09 2166.22 -79.828 2138.99 -69.723 
	L 2180.34 71.75 
	Z 
	"/>
</g>
<g fill="#7f7f7f" fill-rule="nonzero" stroke-width="0" stroke-linejoin="miter" stroke-linecap="butt" stroke-miterlimit="4" >
	<path d="
	M 1722.56 -177.848 
	L 1722.56 71.75 
	L 1681.01 71.75 
	L 1681.01 -177.848 
	L 1628.31 -177.848 
	L 1628.31 -216.25 
	L 1775.27 -216.25 
	L 1775.27 -177.848 
	Z 
	"/>
</g>
<g fill="#7f7f7f" fill-rule="nonzero" stroke-width="0" stroke-linejoin="miter" stroke-linecap="butt" stroke-miterlimit="4" >
	<path d="
	M 2298.99 71.75 
	L 2298.99 27.445 
	L 2407.93 -175.965 
	L 2310.3 -175.965 
	L 2310.3 -216.25 
	L 2460.35 -216.25 
	L 2460.35 -190.063 
	L 2342.16 32.48 
	L 2460.35 32.48 
	L 2460.35 71.75 
	Z 
	"/>
</g>
<g fill="#7f7f7f" fill-rule="nonzero" stroke-width="0" stroke-linejoin="miter" stroke-linecap="butt" stroke-miterlimit="4" >
	<path d="
	M 906.371 -46.48 
	L 906.371 -84.883 
	L 1050.37 -84.883 
	L 1050.37 -46.48 
	Z 
	"/>
</g>
</g >
</g>
</svg>
