<?xml version="1.0" encoding="UTF-8" standalone="no"?>
<!-- Created with Inkscape (http://www.inkscape.org/) -->

<svg
   version="1.1"
   id="svg1"
   width="4609.3335"
   height="2882.6934"
   viewBox="0 0 4609.3335 2882.6934"
   sodipodi:docname="tmpkjqrmofe.pdf"
   xmlns:inkscape="http://www.inkscape.org/namespaces/inkscape"
   xmlns:sodipodi="http://sodipodi.sourceforge.net/DTD/sodipodi-0.dtd"
   xmlns="http://www.w3.org/2000/svg"
   xmlns:svg="http://www.w3.org/2000/svg">
  <defs
     id="defs1" />
  <sodipodi:namedview
     id="namedview1"
     pagecolor="#ffffff"
     bordercolor="#000000"
     borderopacity="0.25"
     inkscape:showpageshadow="2"
     inkscape:pageopacity="0.0"
     inkscape:pagecheckerboard="0"
     inkscape:deskcolor="#d1d1d1">
    <inkscape:page
       x="0"
       y="0"
       inkscape:label="1"
       id="page1"
       width="4609.3335"
       height="2882.6934"
       margin="0"
       bleed="0" />
  </sodipodi:namedview>
  <g
     id="g1"
     inkscape:groupmode="layer"
     inkscape:label="1">
    <g
       id="group-R5">
      <path
         id="path2"
         d="M 34565,1355 C 34565,609.398 33960.6,5 33215,5 H 1355 C 609.414,5 5,609.398 5,1355 v 18900 c 0,745.5 604.414,1350 1350,1350 h 31860 c 745.6,0 1350,-604.5 1350,-1350 V 1355"
         style="fill:#ffffff;fill-opacity:1;fill-rule:nonzero;stroke:none"
         transform="matrix(0.13333333,0,0,-0.13333333,0,2882.6933)" />
      <path
         id="path3"
         d="M 34565,1355 C 34565,609.398 33960.6,5 33215,5 H 1355 C 609.414,5 5,609.398 5,1355 v 18900 c 0,745.5 604.414,1350 1350,1350 h 31860 c 745.6,0 1350,-604.5 1350,-1350 z"
         style="fill:none;stroke:#231f20;stroke-width:10;stroke-linecap:butt;stroke-linejoin:miter;stroke-miterlimit:4;stroke-dasharray:none;stroke-opacity:1"
         transform="matrix(0.13333333,0,0,-0.13333333,0,2882.6933)" />
      <path
         id="path4"
         d="m 33575,1355 c 0,-198.5 -161.5,-360 -360,-360 H 1355 c -198.51,0 -360,161.5 -360,360 v 18900 c 0,198.5 161.49,360 360,360 h 31860 c 198.5,0 360,-161.5 360,-360 z m -360,19800 H 1355 c -496.262,0 -900,-403.8 -900,-900 V 1355 c 0,-496.301 403.738,-900 900,-900 h 31860 c 496.3,0 900,403.699 900,900 v 18900 c 0,496.2 -403.7,900 -900,900"
         style="fill:#231f20;fill-opacity:1;fill-rule:nonzero;stroke:none"
         transform="matrix(0.13333333,0,0,-0.13333333,0,2882.6933)" />
      <path
         id="path5"
         d="m 22705.3,2705 v 3600 h 576 V 2705 h -576"
         style="fill:#231f20;fill-opacity:1;fill-rule:nonzero;stroke:none"
         transform="matrix(0.13333333,0,0,-0.13333333,0,2882.6933)" />
      <path
         id="path6"
         d="M 9441.6,5799.7 V 2704.9 h -570.86 v 3094.8 h -824.69 v 505.2 H 10279 v -505.2 h -837.4"
         style="fill:#231f20;fill-opacity:1;fill-rule:nonzero;stroke:none"
         transform="matrix(0.13333333,0,0,-0.13333333,0,2882.6933)" />
      <path
         id="path7"
         d="m 12398,5673.3 c -88.4,50.6 -139,63.2 -328.4,63.2 h -682.2 v -884.2 h 682.2 c 176.8,0 240,12.6 328.4,63.1 139,75.8 227.4,227.4 227.4,379 0,151.6 -88.4,303.1 -227.4,378.9 z m 252.6,-2968.4 -581,1566.4 h -682.2 V 2704.9 H 10819 v 3600 h 1187.4 c 277.9,0 467.4,-25.2 644.2,-113.7 315.9,-151.6 543.2,-530.5 543.2,-896.8 0,-379 -227.3,-757.9 -555.8,-909.5 l 631.7,-1680 h -619.1"
         style="fill:#231f20;fill-opacity:1;fill-rule:nonzero;stroke:none"
         transform="matrix(0.13333333,0,0,-0.13333333,0,2882.6933)" />
      <path
         id="path8"
         d="m 15094.9,5307 -368.4,-1010.5 h 724.1 z m 914.7,-2602.1 -355.7,1010.5 h -1130.7 l -355.7,-1010.5 h -609.8 l 1245,3600 h 571.7 l 1245.1,-3600 h -609.9"
         style="fill:#231f20;fill-opacity:1;fill-rule:nonzero;stroke:none"
         transform="matrix(0.13333333,0,0,-0.13333333,0,2882.6933)" />
      <path
         id="path9"
         d="m 25437.5,2641.7 c -530.5,0 -871.6,202.2 -1099,644.3 -164.2,315.7 -265.3,770.5 -265.3,1225.2 0,568.5 151.6,1136.9 404.3,1452.7 214.7,265.2 517.9,404.2 922.1,404.2 543.3,0 884.3,-227.4 1124.3,-732.7 l -530.5,-227.3 c -202.1,303.1 -315.8,378.9 -593.8,378.9 -290.5,0 -480,-126.3 -606.3,-442.1 -88.4,-214.7 -139,-530.5 -139,-833.7 0,-391.5 88.5,-783.1 227.4,-1010.5 126.3,-189.5 290.6,-277.9 543.2,-277.9 240,0 416.9,126.3 555.9,416.9 l 543.1,-202.2 c -214.7,-530.5 -568.4,-795.8 -1086.4,-795.8"
         style="fill:#231f20;fill-opacity:1;fill-rule:nonzero;stroke:none"
         transform="matrix(0.13333333,0,0,-0.13333333,0,2882.6933)" />
      <path
         id="path10"
         d="m 17727.1,5736.5 v -884.2 h 1047.1 V 4271.2 H 17727.1 V 2704.9 h -567.7 v 3600 h 2233 v -568.4 h -1665.3"
         style="fill:#231f20;fill-opacity:1;fill-rule:nonzero;stroke:none"
         transform="matrix(0.13333333,0,0,-0.13333333,0,2882.6933)" />
      <path
         id="path11"
         d="m 20500,5736.5 v -884.2 h 1047.1 V 4271.2 H 20500 V 2704.9 h -567.7 v 3600 h 2233 V 5736.5 H 20500"
         style="fill:#231f20;fill-opacity:1;fill-rule:nonzero;stroke:none"
         transform="matrix(0.13333333,0,0,-0.13333333,0,2882.6933)" />
      <path
         id="path12"
         d="m 16251,15304.9 -1377,2438 v -2438 h -568.5 V 18905 h 568.5 l 1313.8,-2299 v 2299 h 568.4 V 15304.9 H 16251"
         style="fill:#231f20;fill-opacity:1;fill-rule:nonzero;stroke:none"
         transform="matrix(0.13333333,0,0,-0.13333333,0,2882.6933)" />
      <path
         id="path13"
         d="m 19479.4,18109.2 c -114,189.4 -253.2,265.2 -468.5,277.9 -278.6,12.6 -455.9,-126.3 -582.5,-442.1 -88.6,-214.8 -139.3,-543.2 -139.3,-846.4 0,-378.9 76,-770.5 215.3,-997.8 114,-189.5 265.9,-278 493.8,-278 265.9,0 430.5,139 557.2,454.8 75.9,189.5 139.3,543.1 139.3,821 0,404.3 -76,770.6 -215.3,1010.6 z m 392.5,-2463.2 c -202.6,-277.9 -493.8,-404.2 -873.7,-404.2 -506.5,0 -823.1,202.1 -1038.3,644.2 -151.9,303.2 -253.2,783.2 -253.2,1212.6 0,593.7 151.9,1124.2 392.5,1465.3 215.3,277.9 506.5,404.2 924.3,404.2 455.9,0 772.4,-202.1 1000.4,-644.2 151.9,-315.8 240.6,-770.5 240.6,-1225.3 0,-568.4 -139.3,-1136.8 -392.6,-1452.6"
         style="fill:#231f20;fill-opacity:1;fill-rule:nonzero;stroke:none"
         transform="matrix(0.13333333,0,0,-0.13333333,0,2882.6933)" />
      <path
         id="path14"
         d="M 3206.12,9004.9 2096.84,11417.6 V 9004.9 H 1580 v 3600 h 516.84 L 3080.06,10445 v 2159.9 h 516.83 v -3600 h -390.77"
         style="fill:#231f20;fill-opacity:1;fill-rule:nonzero;stroke:none"
         transform="matrix(0.13333333,0,0,-0.13333333,0,2882.6933)" />
      <path
         id="path15"
         d="M 8211.91,9004.9 7102.63,11417.6 V 9004.9 H 6585.8 v 3600 h 516.83 L 8085.86,10445 v 2159.9 h 516.84 v -3600 h -390.79"
         style="fill:#231f20;fill-opacity:1;fill-rule:nonzero;stroke:none"
         transform="matrix(0.13333333,0,0,-0.13333333,0,2882.6933)" />
      <path
         id="path16"
         d="m 5543.05,11708.1 c -89.07,315.8 -229.04,454.8 -445.34,454.8 -229.03,0 -369,-139 -458.06,-442.1 -89.07,-277.9 -114.51,-517.9 -114.51,-922.2 0,-391.5 38.17,-618.9 114.51,-909.4 89.06,-303.2 229.03,-442.1 458.06,-442.1 216.3,0 356.27,138.9 445.34,442.1 89.07,290.5 114.51,505.2 114.51,922.1 0,404.2 -38.18,631.6 -114.51,896.8 z m 407.16,-2147.4 c -178.14,-429.4 -445.34,-618.9 -852.5,-618.9 -432.62,0 -687.08,189.5 -865.23,618.9 -152.69,353.7 -203.58,694.8 -203.58,1250.6 0,543.1 50.89,909.5 203.58,1250.5 190.86,429.5 445.34,606.3 865.23,606.3 419.9,0 674.36,-176.8 852.5,-618.9 152.7,-353.7 203.59,-694.8 203.59,-1237.9 0,-555.8 -50.89,-909.5 -203.59,-1250.6"
         style="fill:#231f20;fill-opacity:1;fill-rule:nonzero;stroke:none"
         transform="matrix(0.13333333,0,0,-0.13333333,0,2882.6933)" />
      <path
         id="path17"
         d="m 32384.9,11733.4 c -88.2,252.6 -239.5,366.3 -466.4,366.3 h -428.6 V 9510.2 h 428.6 c 302.6,0 466.4,240 516.9,517.9 25.2,227.4 50.4,480 50.4,757.9 0,404.2 -37.8,795.8 -100.9,947.4 z m 88.3,-2564.2 C 32347.1,9055.5 32170.6,9005 31969,9005 h -995.9 v 3599.9 h 920.2 c 302.5,0 453.8,-37.8 579.9,-138.9 214.3,-151.6 365.5,-429.5 428.6,-795.8 50.4,-265.2 88.2,-581 88.2,-858.9 0,-833.7 -163.9,-1364.2 -516.8,-1642.1"
         style="fill:#231f20;fill-opacity:1;fill-rule:nonzero;stroke:none"
         transform="matrix(0.13333333,0,0,-0.13333333,0,2882.6933)" />
      <path
         id="path18"
         d="m 28769,9005 v 3599.9 h 1697.5 v -505.2 h -1178.1 v -909.5 h 747.4 v -492.6 h -747.4 V 9510.2 h 1317.5 V 9005 H 28769"
         style="fill:#231f20;fill-opacity:1;fill-rule:nonzero;stroke:none"
         transform="matrix(0.13333333,0,0,-0.13333333,0,2882.6933)" />
      <path
         id="path19"
         d="m 25513.7,9004.9 v 3600 h 504 v -3600 h -504"
         style="fill:#231f20;fill-opacity:1;fill-rule:nonzero;stroke:none"
         transform="matrix(0.13333333,0,0,-0.13333333,0,2882.6933)" />
      <path
         id="path20"
         d="M 15141.9,9004.9 V 11026 L 14471.6,9004.9 13801.3,11026 V 9004.9 h -518.6 v 3600 h 518.6 l 670.3,-2021 670.3,2021 h 518.6 v -3600 h -518.6"
         style="fill:#231f20;fill-opacity:1;fill-rule:nonzero;stroke:none"
         transform="matrix(0.13333333,0,0,-0.13333333,0,2882.6933)" />
      <path
         id="path21"
         d="m 17606.6,11708.1 c -89,315.8 -229,454.8 -445.3,454.8 -229,0 -369,-139 -458,-442.1 -89.1,-277.9 -114.6,-517.9 -114.6,-922.2 0,-391.5 38.2,-618.9 114.6,-909.4 89,-303.2 229,-442.1 458,-442.1 216.3,0 356.3,138.9 445.3,442.1 89.1,290.5 114.6,505.2 114.6,922.1 0,404.2 -38.2,631.6 -114.6,896.8 z m 407.2,-2147.4 c -178.1,-429.4 -445.3,-618.9 -852.5,-618.9 -432.6,0 -687.1,189.5 -865.2,618.9 -152.7,353.7 -203.6,694.8 -203.6,1250.6 0,543.1 50.9,909.5 203.6,1250.5 190.8,429.5 445.3,606.3 865.2,606.3 419.9,0 674.4,-176.8 852.5,-618.9 152.7,-353.7 203.6,-694.8 203.6,-1237.9 0,-555.8 -50.9,-909.5 -203.6,-1250.6"
         style="fill:#231f20;fill-opacity:1;fill-rule:nonzero;stroke:none"
         transform="matrix(0.13333333,0,0,-0.13333333,0,2882.6933)" />
      <path
         id="path22"
         d="m 22086.8,11708.1 c -89,315.8 -229,454.8 -445.3,454.8 -229,0 -369,-139 -458.1,-442.1 -89,-277.9 -114.5,-517.9 -114.5,-922.2 0,-391.5 38.2,-618.9 114.5,-909.4 89.1,-303.2 229.1,-442.1 458.1,-442.1 216.3,0 356.3,138.9 445.3,442.1 89.1,290.5 114.5,505.2 114.5,922.1 0,404.2 -38.1,631.6 -114.5,896.8 z M 22494,9560.7 c -178.1,-429.4 -445.3,-618.9 -852.5,-618.9 -432.6,0 -687.1,189.5 -865.2,618.9 -152.7,353.7 -203.6,694.8 -203.6,1250.6 0,543.1 50.9,909.5 203.6,1250.5 190.8,429.5 445.3,606.3 865.2,606.3 419.9,0 674.4,-176.8 852.5,-618.9 152.7,-353.7 203.6,-694.8 203.6,-1237.9 0,-555.8 -50.9,-909.5 -203.6,-1250.6"
         style="fill:#231f20;fill-opacity:1;fill-rule:nonzero;stroke:none"
         transform="matrix(0.13333333,0,0,-0.13333333,0,2882.6933)" />
      <path
         id="path23"
         d="m 24175.9,12099.7 h -529.5 v -909.5 h 529.5 c 302.5,0 466.4,164.2 466.4,454.7 0,278 -189.1,454.8 -466.4,454.8 z m 441.2,-3094.8 -479.1,1692.7 h -491.6 V 9004.9 h -516.8 v 3600 h 1071.5 c 567.2,0 945.4,-378.9 945.4,-960 0,-429.4 -176.5,-745.2 -516.8,-871.5 l 516.8,-1768.5 h -529.4"
         style="fill:#231f20;fill-opacity:1;fill-rule:nonzero;stroke:none"
         transform="matrix(0.13333333,0,0,-0.13333333,0,2882.6933)" />
      <path
         id="path24"
         d="m 19654.7,12124.9 v -3120 h -519.3 v 3120 h -658.8 v 480 h 1836.9 v -480 h -658.8"
         style="fill:#231f20;fill-opacity:1;fill-rule:nonzero;stroke:none"
         transform="matrix(0.13333333,0,0,-0.13333333,0,2882.6933)" />
      <path
         id="path25"
         d="m 26384.9,9004.9 v 553.9 l 1361.7,2542.6 h -1220.4 v 503.5 h 1875.6 v -327.3 L 26924.5,9495.8 h 1477.3 v -490.9 h -2016.9"
         style="fill:#231f20;fill-opacity:1;fill-rule:nonzero;stroke:none"
         transform="matrix(0.13333333,0,0,-0.13333333,0,2882.6933)" />
      <path
         id="path26"
         d="m 10042.7,10482.9 v 480 h 1800 v -480 h -1800"
         style="fill:#231f20;fill-opacity:1;fill-rule:nonzero;stroke:none"
         transform="matrix(0.13333333,0,0,-0.13333333,0,2882.6933)" />
    </g>
  </g>
</svg>
