<?xml version="1.0" standalone="no"?>
<svg width="3025px" height="1729px" viewBox="0 -937 3025 1729 " xmlns="http://www.w3.org/2000/svg" xmlns:xlink="http://www.w3.org/1999/xlink">
<title>generated by pstoedit</title>
<!-- generated by pstoedit version:4.02 -->
<g xml:space='preserve'>
<clipPath id="clippath1"> 	<path d="
	M 0 -937 
	L 0 792 
	L 3025 792 
	L 3025 -937 
	Z 
	" style="clip-rule:nonzero"/>
</clipPath>
<g style="clip-path:url(#clippath1)"> 
<g fill="#ffffff" fill-rule="nonzero" stroke-width="0" stroke-linejoin="miter" stroke-linecap="butt" stroke-miterlimit="10" >
	<path d="
	M 3024.5 656.5 
	C 3024.5 731.059 2964.06 791.5 2889.5 791.5 
	L 135.5 791.5 
	C 60.9414 791.5 0.5 731.059 0.5 656.5 
	L 0.5 -801.5 
	C 0.5 -876.06 60.9414 -936.5 135.5 -936.5 
	L 2889.5 -936.5 
	C 2964.06 -936.5 3024.5 -876.06 3024.5 -801.5 
	Z 
	"/>
</g>
<g stroke="#7f7f7f" fill="none" stroke-width="1" stroke-linejoin="miter" stroke-linecap="butt" stroke-miterlimit="4" >
	<path d="
	M 3024.5 656.5 
	C 3024.5 731.059 2964.06 791.5 2889.5 791.5 
	L 135.5 791.5 
	C 60.9414 791.5 0.5 731.059 0.5 656.5 
	L 0.5 -801.5 
	C 0.5 -876.06 60.9414 -936.5 135.5 -936.5 
	L 2889.5 -936.5 
	C 2964.06 -936.5 3024.5 -876.06 3024.5 -801.5 
	Z 
	"/>
</g>
<g fill="#7f7f7f" fill-rule="nonzero" stroke-width="0" stroke-linejoin="miter" stroke-linecap="butt" stroke-miterlimit="4" >
	<path d="
	M 2934.5 656.5 
	C 2934.5 681.309 2914.31 701.5 2889.5 701.5 
	L 135.5 701.5 
	C 110.688 701.5 90.5 681.309 90.5 656.5 
	L 90.5 -801.5 
	C 90.5 -826.31 110.688 -846.5 135.5 -846.5 
	L 2889.5 -846.5 
	C 2914.31 -846.5 2934.5 -826.31 2934.5 -801.5 
	Z 
	M 2889.5 -900.5 
	L 135.5 -900.5 
	C 80.9102 -900.5 36.5 -856.09 36.5 -801.5 
	L 36.5 656.5 
	C 36.5 711.09 80.9102 755.5 135.5 755.5 
	L 2889.5 755.5 
	C 2944.09 755.5 2988.5 711.09 2988.5 656.5 
	L 2988.5 -801.5 
	C 2988.5 -856.09 2944.09 -900.5 2889.5 -900.5 
	Z 
	"/>
</g>
<g fill="#7f7f7f" fill-rule="nonzero" stroke-width="0" stroke-linejoin="miter" stroke-linecap="butt" stroke-miterlimit="4" >
	<path d="
	M 1588.93 575.5 
	L 1588.93 287.488 
	L 1634.34 287.488 
	L 1634.34 533.059 
	L 1767.56 533.059 
	L 1767.56 575.5 
	Z 
	"/>
</g>
<g fill="#7f7f7f" fill-rule="nonzero" stroke-width="0" stroke-linejoin="miter" stroke-linecap="butt" stroke-miterlimit="4" >
	<path d="
	M 2185.95 558.32 
	C 2169.78 572.461 2147.55 580.551 2123.3 580.551 
	C 2073.78 580.551 2037.4 551.238 2018.19 507.789 
	L 2061.65 491.621 
	C 2073.78 518.91 2096.01 534.059 2123.3 534.059 
	C 2149.57 534.059 2167.76 515.879 2167.76 491.621 
	C 2167.76 453.219 2123.3 447.16 2085.9 432 
	C 2068.72 424.93 2030.32 407.75 2030.32 360.25 
	C 2030.32 303.672 2068.72 282.441 2120.26 282.441 
	C 2160.69 282.441 2187.97 305.691 2202.12 341.051 
	L 2161.7 353.18 
	C 2161.7 353.18 2151.59 328.93 2119.25 327.922 
	C 2098.03 326.91 2072.76 334.988 2074.79 361.27 
	C 2078.83 414.82 2214.25 379.461 2214.25 492.629 
	C 2214.25 518.91 2204.14 542.148 2185.95 558.32 
	Z 
	"/>
</g>
<g fill="#7f7f7f" fill-rule="nonzero" stroke-width="0" stroke-linejoin="miter" stroke-linecap="butt" stroke-miterlimit="4" >
	<path d="
	M 1191.52 450.191 
	L 1191.52 575.5 
	L 1145.81 575.5 
	L 1145.81 450.191 
	L 1044.25 287.5 
	L 1099.09 287.5 
	L 1168.16 398.648 
	L 1238.24 287.5 
	L 1292.07 287.5 
	Z 
	"/>
</g>
<g fill="#7f7f7f" fill-rule="nonzero" stroke-width="0" stroke-linejoin="miter" stroke-linecap="butt" stroke-miterlimit="4" >
	<path d="
	M 1810.76 575.5 
	L 1810.76 287.5 
	L 1980.31 287.5 
	L 1980.31 332.969 
	L 1856.17 332.969 
	L 1856.17 403.711 
	L 1939.94 403.711 
	L 1939.94 450.191 
	L 1856.17 450.191 
	L 1856.17 529.012 
	L 1989.39 529.012 
	L 1989.39 575.5 
	Z 
	"/>
</g>
<g fill="#7f7f7f" fill-rule="nonzero" stroke-width="0" stroke-linejoin="miter" stroke-linecap="butt" stroke-miterlimit="4" >
	<path d="
	M 919.895 580.551 
	C 877.449 580.551 850.164 564.379 831.973 529.012 
	C 818.836 503.75 810.75 467.371 810.75 430.988 
	C 810.75 385.52 822.879 340.039 843.09 314.781 
	C 860.27 293.559 884.523 282.441 916.863 282.441 
	C 960.32 282.441 987.605 300.629 1006.81 341.051 
	L 964.359 359.238 
	C 948.191 334.988 939.098 328.93 916.863 328.93 
	C 893.621 328.93 878.461 339.031 868.355 364.301 
	C 861.281 381.48 857.238 406.738 857.238 430.988 
	C 857.238 462.32 864.313 493.641 875.43 511.828 
	C 885.535 526.988 898.672 534.07 918.887 534.07 
	C 938.086 534.07 952.234 523.961 963.352 500.719 
	L 1006.81 516.891 
	C 989.629 559.328 961.328 580.551 919.895 580.551 
	Z 
	"/>
</g>
<g fill="#7f7f7f" fill-rule="nonzero" stroke-width="0" stroke-linejoin="miter" stroke-linecap="butt" stroke-miterlimit="4" >
	<path d="
	M 1438.66 580.551 
	C 1396.21 580.551 1368.93 564.379 1350.74 529.012 
	C 1337.6 503.75 1329.51 467.371 1329.51 430.988 
	C 1329.51 385.52 1341.64 340.039 1361.85 314.781 
	C 1379.03 293.559 1403.29 282.441 1435.63 282.441 
	C 1479.08 282.441 1506.37 300.629 1525.57 341.051 
	L 1483.12 359.238 
	C 1466.95 334.988 1457.86 328.93 1435.63 328.93 
	C 1412.38 328.93 1397.22 339.031 1387.12 364.301 
	C 1380.04 381.48 1376 406.738 1376 430.988 
	C 1376 462.32 1383.07 493.641 1394.19 511.828 
	C 1404.3 526.988 1417.43 534.07 1437.65 534.07 
	C 1456.85 534.07 1471 523.961 1482.11 500.719 
	L 1525.57 516.891 
	C 1508.39 559.328 1480.09 580.551 1438.66 580.551 
	Z 
	"/>
</g>
<g fill="#7f7f7f" fill-rule="nonzero" stroke-width="0" stroke-linejoin="miter" stroke-linecap="butt" stroke-miterlimit="4" >
	<path d="
	M 1429.78 -432.5 
	L 1319.62 -627.53 
	L 1319.62 -432.5 
	L 1274.14 -432.5 
	L 1274.14 -720.5 
	L 1319.62 -720.5 
	L 1424.72 -536.58 
	L 1424.72 -720.5 
	L 1470.2 -720.5 
	L 1470.2 -432.5 
	Z 
	"/>
</g>
<g fill="#7f7f7f" fill-rule="nonzero" stroke-width="0" stroke-linejoin="miter" stroke-linecap="butt" stroke-miterlimit="4" >
	<path d="
	M 1688.05 -656.84 
	C 1678.93 -671.99 1667.79 -678.06 1650.57 -679.07 
	C 1628.28 -680.08 1614.1 -668.96 1603.97 -643.7 
	C 1596.88 -626.52 1592.83 -600.25 1592.83 -575.99 
	C 1592.83 -545.68 1598.91 -514.35 1610.05 -496.16 
	C 1619.17 -481 1631.32 -473.93 1649.56 -473.93 
	C 1670.83 -473.93 1684 -485.05 1694.13 -510.31 
	C 1700.21 -525.47 1705.27 -553.76 1705.27 -575.99 
	C 1705.27 -608.33 1699.19 -637.64 1688.05 -656.84 
	Z 
	M 1719.45 -459.79 
	C 1703.25 -437.55 1679.95 -427.45 1649.56 -427.45 
	C 1609.04 -427.45 1583.71 -443.62 1566.49 -478.98 
	C 1554.34 -503.24 1546.23 -541.64 1546.23 -575.99 
	C 1546.23 -623.49 1558.39 -665.93 1577.64 -693.21 
	C 1594.86 -715.45 1618.16 -725.55 1651.58 -725.55 
	C 1688.05 -725.55 1713.38 -709.38 1731.61 -674.02 
	C 1743.76 -648.75 1750.86 -612.37 1750.86 -575.99 
	C 1750.86 -530.52 1739.71 -485.05 1719.45 -459.79 
	Z 
	"/>
</g>
<g fill="#7f7f7f" fill-rule="nonzero" stroke-width="0" stroke-linejoin="miter" stroke-linecap="butt" stroke-miterlimit="4" >
	<path d="
	M 390.762 71.5 
	L 390.762 -90.188 
	L 337.137 71.5 
	L 283.508 -90.188 
	L 283.508 71.5 
	L 242.023 71.5 
	L 242.023 -216.5 
	L 283.508 -216.5 
	L 337.137 -54.82 
	L 390.762 -216.5 
	L 432.246 -216.5 
	L 432.246 71.5 
	Z 
	"/>
</g>
<g fill="#7f7f7f" fill-rule="nonzero" stroke-width="0" stroke-linejoin="miter" stroke-linecap="butt" stroke-miterlimit="4" >
	<path d="
	M 997.043 -144.75 
	C 989.918 -170.012 978.719 -181.129 961.418 -181.129 
	C 943.094 -181.129 931.895 -170.012 924.77 -145.762 
	C 917.645 -123.527 915.609 -104.328 915.609 -71.992 
	C 915.609 -40.664 918.664 -22.477 924.77 0.765991 
	C 931.895 25.02 943.094 36.137 961.418 36.137 
	C 978.719 36.137 989.918 25.02 997.043 0.765991 
	C 1004.17 -22.477 1006.2 -39.656 1006.2 -73.004 
	C 1006.2 -105.34 1003.15 -123.527 997.043 -144.75 
	Z 
	M 1029.62 27.039 
	C 1015.36 61.398 993.988 76.559 961.418 76.559 
	C 926.805 76.559 906.449 61.398 892.199 27.039 
	C 879.98 -1.25403 875.91 -28.539 875.91 -73.004 
	C 875.91 -116.457 879.98 -145.762 892.199 -173.047 
	C 907.465 -207.402 927.824 -221.55 961.418 -221.55 
	C 995.008 -221.55 1015.36 -207.402 1029.62 -172.035 
	C 1041.83 -143.738 1045.9 -116.457 1045.9 -73.004 
	C 1045.9 -28.539 1041.83 -0.242004 1029.62 27.039 
	Z 
	"/>
</g>
<g fill="#7f7f7f" fill-rule="nonzero" stroke-width="0" stroke-linejoin="miter" stroke-linecap="butt" stroke-miterlimit="4" >
	<path d="
	M 610.98 -144.75 
	C 603.855 -170.012 592.656 -181.129 575.352 -181.129 
	C 557.031 -181.129 545.832 -170.012 538.707 -145.762 
	C 531.582 -123.527 529.547 -104.328 529.547 -71.992 
	C 529.547 -40.664 532.602 -22.477 538.707 0.765991 
	C 545.832 25.02 557.031 36.137 575.352 36.137 
	C 592.656 36.137 603.855 25.02 610.98 0.765991 
	C 618.105 -22.477 620.141 -39.656 620.141 -73.004 
	C 620.141 -105.34 617.086 -123.527 610.98 -144.75 
	Z 
	M 643.551 27.039 
	C 629.301 61.398 607.926 76.559 575.352 76.559 
	C 540.742 76.559 520.387 61.398 506.133 27.039 
	C 493.918 -1.25403 489.848 -28.539 489.848 -73.004 
	C 489.848 -116.457 493.918 -145.762 506.133 -173.047 
	C 521.402 -207.402 541.762 -221.55 575.352 -221.55 
	C 608.945 -221.55 629.301 -207.402 643.551 -172.035 
	C 655.77 -143.738 659.84 -116.457 659.84 -73.004 
	C 659.84 -28.539 655.77 -0.242004 643.551 27.039 
	Z 
	"/>
</g>
<g fill="#7f7f7f" fill-rule="nonzero" stroke-width="0" stroke-linejoin="miter" stroke-linecap="butt" stroke-miterlimit="4" >
	<path d="
	M 1187.2 -176.082 
	L 1144.85 -176.082 
	L 1144.85 -103.324 
	L 1187.2 -103.324 
	C 1211.41 -103.324 1224.52 -116.461 1224.52 -139.703 
	C 1224.52 -161.938 1209.39 -176.082 1187.2 -176.082 
	Z 
	M 1222.5 71.5 
	L 1184.18 -63.914 
	L 1144.85 -63.914 
	L 1144.85 71.5 
	L 1103.5 71.5 
	L 1103.5 -216.5 
	L 1189.22 -216.5 
	C 1234.6 -216.5 1264.85 -186.188 1264.85 -139.703 
	C 1264.85 -105.348 1250.74 -80.082 1223.51 -69.977 
	L 1264.85 71.5 
	Z 
	"/>
</g>
<g fill="#7f7f7f" fill-rule="nonzero" stroke-width="0" stroke-linejoin="miter" stroke-linecap="butt" stroke-miterlimit="4" >
	<path d="
	M 788.648 -178.105 
	L 788.648 71.5 
	L 747.098 71.5 
	L 747.098 -178.105 
	L 694.398 -178.105 
	L 694.398 -216.5 
	L 841.352 -216.5 
	L 841.352 -178.105 
	Z 
	"/>
</g>
<g fill="#7f7f7f" fill-rule="nonzero" stroke-width="0" stroke-linejoin="miter" stroke-linecap="butt" stroke-miterlimit="4" >
	<path d="
	M 1809.8 -146.77 
	C 1802.74 -166.98 1790.64 -176.078 1772.49 -176.078 
	L 1738.2 -176.078 
	L 1738.2 31.082 
	L 1772.49 31.082 
	C 1796.69 31.082 1809.8 11.883 1813.83 -10.352 
	C 1815.85 -28.539 1817.87 -48.75 1817.87 -70.98 
	C 1817.87 -103.316 1814.84 -134.645 1809.8 -146.77 
	Z 
	M 1816.86 58.367 
	C 1806.78 67.461 1792.66 71.5 1776.52 71.5 
	L 1696.85 71.5 
	L 1696.85 -216.5 
	L 1770.47 -216.5 
	C 1794.67 -216.5 1806.78 -213.46 1816.86 -205.383 
	C 1834 -193.258 1846.11 -171.023 1851.15 -141.719 
	C 1855.18 -120.496 1858.21 -95.234 1858.21 -73.004 
	C 1858.21 -6.30902 1845.1 36.137 1816.86 58.367 
	Z 
	"/>
</g>
<g fill="#7f7f7f" fill-rule="nonzero" stroke-width="0" stroke-linejoin="miter" stroke-linecap="butt" stroke-miterlimit="4" >
	<path d="
	M 2425.71 71.5 
	L 2425.71 -216.5 
	L 2561.51 -216.5 
	L 2561.51 -176.078 
	L 2467.26 -176.078 
	L 2467.26 -103.316 
	L 2527.06 -103.316 
	L 2527.06 -63.906 
	L 2467.26 -63.906 
	L 2467.26 31.082 
	L 2572.66 31.082 
	L 2572.66 71.5 
	Z 
	"/>
</g>
<g fill="#7f7f7f" fill-rule="nonzero" stroke-width="0" stroke-linejoin="miter" stroke-linecap="butt" stroke-miterlimit="4" >
	<path d="
	M 2126.12 71.5 
	L 2126.12 -216.5 
	L 2166.44 -216.5 
	L 2166.44 71.5 
	Z 
	"/>
</g>
<g fill="#7f7f7f" fill-rule="nonzero" stroke-width="0" stroke-linejoin="miter" stroke-linecap="butt" stroke-miterlimit="4" >
	<path d="
	M 2751.71 71.5 
	L 2662.97 -121.516 
	L 2662.97 71.5 
	L 2621.63 71.5 
	L 2621.63 -216.5 
	L 2662.97 -216.5 
	L 2741.63 -43.703 
	L 2741.63 -216.5 
	L 2782.98 -216.5 
	L 2782.98 71.5 
	Z 
	"/>
</g>
<g fill="#7f7f7f" fill-rule="nonzero" stroke-width="0" stroke-linejoin="miter" stroke-linecap="butt" stroke-miterlimit="4" >
	<path d="
	M 1999.51 -176.074 
	L 1957.15 -176.074 
	L 1957.15 -103.316 
	L 1999.51 -103.316 
	C 2023.71 -103.316 2036.82 -116.453 2036.82 -139.695 
	C 2036.82 -161.93 2021.69 -176.074 1999.51 -176.074 
	Z 
	M 2034.8 71.5 
	L 1996.48 -63.906 
	L 1957.15 -63.906 
	L 1957.15 71.5 
	L 1915.81 71.5 
	L 1915.81 -216.5 
	L 2001.52 -216.5 
	C 2046.91 -216.5 2077.16 -186.18 2077.16 -139.695 
	C 2077.16 -105.34 2063.04 -80.074 2035.81 -69.973 
	L 2077.16 71.5 
	Z 
	"/>
</g>
<g fill="#7f7f7f" fill-rule="nonzero" stroke-width="0" stroke-linejoin="miter" stroke-linecap="butt" stroke-miterlimit="4" >
	<path d="
	M 2311.3 71.5 
	L 2279.84 71.5 
	L 2206.76 -216.5 
	L 2248.37 -216.5 
	L 2296.08 -29.555 
	L 2343.78 -216.5 
	L 2385.39 -216.5 
	Z 
	"/>
</g>
<g fill="#7f7f7f" fill-rule="nonzero" stroke-width="0" stroke-linejoin="miter" stroke-linecap="butt" stroke-miterlimit="4" >
	<path d="
	M 1408.85 -46.73 
	L 1408.85 -85.129 
	L 1552.85 -85.129 
	L 1552.85 -46.73 
	Z 
	"/>
</g>
</g >
</g>
</svg>
