<?xml version="1.0" encoding="UTF-8" standalone="no"?>
<!-- Created with Inkscape (http://www.inkscape.org/) -->

<svg
   version="1.1"
   id="svg1"
   width="3456.6667"
   height="4608.6665"
   viewBox="0 0 3456.6667 4608.6665"
   sodipodi:docname="tmphge2mbqz.pdf"
   xmlns:inkscape="http://www.inkscape.org/namespaces/inkscape"
   xmlns:sodipodi="http://sodipodi.sourceforge.net/DTD/sodipodi-0.dtd"
   xmlns="http://www.w3.org/2000/svg"
   xmlns:svg="http://www.w3.org/2000/svg">
  <defs
     id="defs1" />
  <sodipodi:namedview
     id="namedview1"
     pagecolor="#ffffff"
     bordercolor="#000000"
     borderopacity="0.25"
     inkscape:showpageshadow="2"
     inkscape:pageopacity="0.0"
     inkscape:pagecheckerboard="0"
     inkscape:deskcolor="#d1d1d1">
    <inkscape:page
       x="0"
       y="0"
       inkscape:label="1"
       id="page1"
       width="3456.6667"
       height="4608.6665"
       margin="0"
       bleed="0" />
  </sodipodi:namedview>
  <g
     id="g1"
     inkscape:groupmode="layer"
     inkscape:label="1">
    <g
       id="group-R5">
      <path
         id="path2"
         d="m 25922.5,1622.5 c 0,-894.699 -725.3,-1620 -1620,-1620 H 1622.5 C 727.805,2.5 2.5,727.801 2.5,1622.5 v 31320 c 0,894.7 725.305,1620 1620.01,1620 H 24302.5 c 894.7,0 1620,-725.3 1620,-1620 v -31320"
         style="fill:#ffffff;fill-opacity:1;fill-rule:nonzero;stroke:none"
         transform="matrix(0.13333333,0,0,-0.13333333,0,4608.6667)" />
      <path
         id="path3"
         d="m 25922.5,1622.5 c 0,-894.699 -725.3,-1620 -1620,-1620 H 1622.5 C 727.805,2.5 2.5,727.801 2.5,1622.5 v 31320 c 0,894.7 725.305,1620 1620.01,1620 H 24302.5 c 894.7,0 1620,-725.3 1620,-1620 z"
         style="fill:none;stroke:#231f20;stroke-width:5;stroke-linecap:butt;stroke-linejoin:miter;stroke-miterlimit:4;stroke-dasharray:none;stroke-opacity:1"
         transform="matrix(0.13333333,0,0,-0.13333333,0,4608.6667)" />
      <path
         id="path4"
         d="m 24842.5,1622.5 c 0,-297.7 -242.2,-540 -540,-540 H 1622.51 c -297.75,0 -540,242.3 -540,540 v 31320 c 0,297.8 242.25,540 540,540 H 24302.5 c 297.8,0 540,-242.3 540,-540 z m -540,32490 H 1622.51 c -645.139,0 -1169.998,-524.9 -1169.998,-1170 v -31320 c 0,-645.102 524.859,-1170 1169.998,-1170 H 24302.5 c 645.1,0 1170,524.898 1170,1170 v 31320 c 0,645.1 -524.9,1170 -1170,1170"
         style="fill:#231f20;fill-opacity:1;fill-rule:nonzero;stroke:none"
         transform="matrix(0.13333333,0,0,-0.13333333,0,4608.6667)" />
      <path
         id="path5"
         d="m 20515,17972.2 -242.5,-1136.8 h 469.8 z m 591,-2849.7 -242.5,1152 h -712.3 l -242.4,-1152 H 19348 l 879,4320 h 560.8 l 894.1,-4320 H 21106"
         style="fill:#231f20;fill-opacity:1;fill-rule:nonzero;stroke:none"
         transform="matrix(0.13333333,0,0,-0.13333333,0,4608.6667)" />
      <path
         id="path6"
         d="m 4095.77,15562.1 c -94.48,-313.4 -380.88,-515.4 -761.77,-515.4 -441.79,0 -716.04,181.9 -853.15,576 -121.88,363.8 -182.81,954.9 -182.81,1652.2 0,394.1 45.7,970.1 106.64,1303.6 121.87,667 380.87,924.6 898.86,924.6 487.52,0 807.47,-303.1 853.17,-833.7 h -563.69 c -15.25,181.9 -121.89,272.9 -274.23,272.9 -198.07,0 -304.71,-136.4 -365.65,-424.4 -76.19,-348.7 -91.4,-667 -91.4,-1243 0,-606.3 15.21,-864 91.4,-1227.8 60.94,-288 167.58,-439.6 350.4,-439.6 198.06,0 289.48,151.6 289.48,530.6 h 563.69 c 0,-333.5 -15.24,-424.5 -60.94,-576"
         style="fill:#231f20;fill-opacity:1;fill-rule:nonzero;stroke:none"
         transform="matrix(0.13333333,0,0,-0.13333333,0,4608.6667)" />
      <path
         id="path7"
         d="m 18012.7,15562.1 c -94.5,-313.4 -380.9,-515.4 -761.8,-515.4 -441.8,0 -716,181.9 -853.2,576 -121.8,363.8 -182.8,954.9 -182.8,1652.2 0,394.1 45.7,970.1 106.7,1303.6 121.8,667 380.9,924.6 898.8,924.6 487.6,0 807.5,-303.1 853.2,-833.7 h -563.7 c -15.2,181.9 -121.9,272.9 -274.2,272.9 -198.1,0 -304.7,-136.4 -365.7,-424.4 -76.1,-348.7 -91.4,-667 -91.4,-1243 0,-606.3 15.3,-864 91.4,-1227.8 61,-288 167.6,-439.6 350.4,-439.6 198.1,0 289.5,151.6 289.5,530.6 h 563.7 c 0,-333.5 -15.2,-424.5 -60.9,-576"
         style="fill:#231f20;fill-opacity:1;fill-rule:nonzero;stroke:none"
         transform="matrix(0.13333333,0,0,-0.13333333,0,4608.6667)" />
      <path
         id="path8"
         d="m 12087.2,15122.5 v 4320 h 1582.4 v -560.8 h -1039.9 v -1106.6 h 693.2 v -576 h -693.2 v -1515.8 h 1100.2 v -560.8 h -1642.7"
         style="fill:#231f20;fill-opacity:1;fill-rule:nonzero;stroke:none"
         transform="matrix(0.13333333,0,0,-0.13333333,0,4608.6667)" />
      <path
         id="path9"
         d="m 18484,15122.5 v 4320 h 561.6 v -4320 H 18484"
         style="fill:#231f20;fill-opacity:1;fill-rule:nonzero;stroke:none"
         transform="matrix(0.13333333,0,0,-0.13333333,0,4608.6667)" />
      <path
         id="path10"
         d="m 21984.3,15122.5 v 4320 h 542.5 V 15622.7 H 23627 v -500.2 h -1642.7"
         style="fill:#231f20;fill-opacity:1;fill-rule:nonzero;stroke:none"
         transform="matrix(0.13333333,0,0,-0.13333333,0,4608.6667)" />
      <path
         id="path11"
         d="m 11066.4,15122.5 v 2561.7 l -500.2,-1621.9 -526.6,1621.9 v -2561.7 h -545.51 v 4320 h 545.51 l 526.6,-1530.9 500.2,1530.9 h 545.6 v -4320 h -545.6"
         style="fill:#231f20;fill-opacity:1;fill-rule:nonzero;stroke:none"
         transform="matrix(0.13333333,0,0,-0.13333333,0,4608.6667)" />
      <path
         id="path12"
         d="m 8473.35,15122.5 v 2561.7 l -500.22,-1621.9 -526.6,1621.9 V 15122.5 H 6901 v 4320 h 545.53 l 526.6,-1530.9 500.22,1530.9 h 545.55 v -4320 h -545.55"
         style="fill:#231f20;fill-opacity:1;fill-rule:nonzero;stroke:none"
         transform="matrix(0.13333333,0,0,-0.13333333,0,4608.6667)" />
      <path
         id="path13"
         d="m 5496.77,18942.3 c -500.23,0 -432.08,-1349.1 -432.08,-1652.2 0,-288 -68.15,-1682.5 432.08,-1682.5 485.07,0 416.94,1394.5 416.94,1682.5 0,348.6 -7.68,1652.2 -416.94,1652.2 z m 0,-3895.6 c -1076.24,0 -992.94,1531 -992.94,2243.4 0,742.7 -68.15,2213 992.94,2213 1061.09,0 992.95,-1485.4 992.95,-2213 0,-712.4 68.14,-2243.4 -992.95,-2243.4"
         style="fill:#231f20;fill-opacity:1;fill-rule:nonzero;stroke:none"
         transform="matrix(0.13333333,0,0,-0.13333333,0,4608.6667)" />
      <path
         id="path14"
         d="m 14887.3,18881.7 h -265.6 v -1182.3 h 356.6 c 303.4,0 394.5,136.4 394.5,545.6 0,485.1 -106.2,636.7 -485.5,636.7 z m 591.7,-1606.8 439.9,-2152.4 h -561.3 l -485.5,2016 h -250.4 v -2016 h -546.3 v 4320 h 842.2 c 667.6,0 1016.5,-409.3 1016.5,-1212.6 0,-485.1 -136.5,-757.9 -455.1,-955"
         style="fill:#231f20;fill-opacity:1;fill-rule:nonzero;stroke:none"
         transform="matrix(0.13333333,0,0,-0.13333333,0,4608.6667)" />
      <path
         id="path15"
         d="m 15031.8,6922.1 c -94.4,-313.4 -380.9,-515.4 -761.7,-515.4 -441.8,0 -716,181.9 -853.2,576 -121.9,363.8 -182.8,955 -182.8,1652.2 0,394.1 45.7,970.1 106.7,1303.6 121.8,666.9 380.8,924.6 898.8,924.6 487.5,0 807.5,-303.1 853.2,-833.6 h -563.7 c -15.3,181.9 -121.9,272.8 -274.2,272.8 -198.1,0 -304.8,-136.4 -365.7,-424.4 -76.2,-348.7 -91.4,-667 -91.4,-1243 0,-606.3 15.2,-864 91.4,-1227.8 60.9,-288 167.6,-439.6 350.4,-439.6 198.1,0 289.5,151.6 289.5,530.6 h 563.7 c 0,-333.5 -15.3,-424.4 -61,-576"
         style="fill:#231f20;fill-opacity:1;fill-rule:nonzero;stroke:none"
         transform="matrix(0.13333333,0,0,-0.13333333,0,4608.6667)" />
      <path
         id="path16"
         d="m 6216.3,6482.5 v 4320 h 1582.37 v -560.8 H 6758.82 V 9135.1 h 693.25 v -576 H 6758.82 V 7043.3 H 7858.96 V 6482.5 H 6216.3"
         style="fill:#231f20;fill-opacity:1;fill-rule:nonzero;stroke:none"
         transform="matrix(0.13333333,0,0,-0.13333333,0,4608.6667)" />
      <path
         id="path17"
         d="m 18446.2,6482.5 v 4320 h 1582.4 v -560.8 H 18988.7 V 9135.1 h 693.3 v -576 h -693.3 V 7043.3 h 1100.2 v -560.8 h -1642.7"
         style="fill:#231f20;fill-opacity:1;fill-rule:nonzero;stroke:none"
         transform="matrix(0.13333333,0,0,-0.13333333,0,4608.6667)" />
      <path
         id="path18"
         d="m 10003.1,6482.5 v 2016 h -770.72 v -2016 H 8688.4 v 4320 h 543.98 V 9059.3 h 770.72 v 1743.2 h 544 v -4320 h -544"
         style="fill:#231f20;fill-opacity:1;fill-rule:nonzero;stroke:none"
         transform="matrix(0.13333333,0,0,-0.13333333,0,4608.6667)" />
      <path
         id="path19"
         d="m 11687.5,6482.5 v 4320 h 561.7 v -4320 h -561.7"
         style="fill:#231f20;fill-opacity:1;fill-rule:nonzero;stroke:none"
         transform="matrix(0.13333333,0,0,-0.13333333,0,4608.6667)" />
      <path
         id="path20"
         d="m 16077.7,6482.5 v 4320 h 542.6 V 6982.7 h 1100.1 v -500.2 h -1642.7"
         style="fill:#231f20;fill-opacity:1;fill-rule:nonzero;stroke:none"
         transform="matrix(0.13333333,0,0,-0.13333333,0,4608.6667)" />
      <path
         id="path21"
         d="m 22253.5,8346.9 c 124.7,-267.6 212.5,-636.6 212.5,-939.8 0,-303.1 -136.6,-621.4 -349,-803.4 -136.6,-121.2 -330,-197 -557.6,-197 -606.9,0 -921.8,394.1 -952.1,1152 h 561.3 c 0,-166.7 15.2,-227.4 45.6,-318.3 45.5,-166.7 178.3,-272.9 345.2,-272.9 212.4,0 345.2,166.8 345.2,439.6 0,379 -132.8,697.3 -466.6,1091.4 -197.2,227.4 -330,394.1 -375.5,454.7 -242.8,288 -349,591.2 -349,894.3 0,591.2 360.4,1015.6 876.2,1015.6 531.1,0 815.6,-333.4 876.3,-1015.6 h -561.4 c -15.2,333.5 -102.5,470 -299.7,470 -212.4,0 -330,-182 -330,-470 0,-197 72,-348.6 299.7,-591.1 470.3,-530.5 550.1,-632.9 678.9,-909.5"
         style="fill:#231f20;fill-opacity:1;fill-rule:nonzero;stroke:none"
         transform="matrix(0.13333333,0,0,-0.13333333,0,4608.6667)" />
      <path
         id="path22"
         d="m 4707.46,6482.5 h -469.12 l -779.3,4320 h 559.94 l 461.5,-2463.1 450.1,2463.1 h 559.94 l -783.06,-4320"
         style="fill:#231f20;fill-opacity:1;fill-rule:nonzero;stroke:none"
         transform="matrix(0.13333333,0,0,-0.13333333,0,4608.6667)" />
      <path
         id="path23"
         d="m 11721.7,23727 -1652.4,2925.5 V 23727 h -682.14 v 4320 h 682.14 l 1576.5,-2758.7 V 28047 h 682.2 v -4320 h -606.3"
         style="fill:#231f20;fill-opacity:1;fill-rule:nonzero;stroke:none"
         transform="matrix(0.13333333,0,0,-0.13333333,0,4608.6667)" />
      <path
         id="path24"
         d="m 15595.8,27092.1 c -136.8,227.3 -303.9,318.3 -562.2,333.4 -334.3,15.2 -547,-151.5 -699,-530.5 -106.4,-257.7 -167.1,-651.8 -167.1,-1015.6 0,-454.7 91.1,-924.6 258.3,-1197.5 136.7,-227.3 319.1,-333.4 592.6,-333.4 319.1,0 516.6,166.7 668.6,545.6 91.1,227.4 167.1,651.8 167.1,985.3 0,485.1 -91.2,924.6 -258.3,1212.7 z m 471,-2955.8 c -243.1,-333.5 -592.6,-485.1 -1048.4,-485.1 -607.8,0 -987.7,242.5 -1246,773 -182.3,363.9 -303.9,939.8 -303.9,1455.2 0,712.4 182.3,1349 471,1758.3 258.4,333.5 607.8,485.1 1109.3,485.1 547,0 926.9,-242.6 1200.4,-773.1 182.3,-378.9 288.7,-924.6 288.7,-1470.3 0,-682.1 -167.2,-1364.2 -471.1,-1743.1"
         style="fill:#231f20;fill-opacity:1;fill-rule:nonzero;stroke:none"
         transform="matrix(0.13333333,0,0,-0.13333333,0,4608.6667)" />
    </g>
  </g>
</svg>
