<?xml version="1.0" encoding="UTF-8" standalone="no"?>
<!-- Created with Inkscape (http://www.inkscape.org/) -->

<svg
   version="1.1"
   id="svg1"
   width="3456.6667"
   height="4608.6665"
   viewBox="0 0 3456.6667 4608.6665"
   sodipodi:docname="tmpwnjjynds.pdf"
   xmlns:inkscape="http://www.inkscape.org/namespaces/inkscape"
   xmlns:sodipodi="http://sodipodi.sourceforge.net/DTD/sodipodi-0.dtd"
   xmlns="http://www.w3.org/2000/svg"
   xmlns:svg="http://www.w3.org/2000/svg">
  <defs
     id="defs1" />
  <sodipodi:namedview
     id="namedview1"
     pagecolor="#ffffff"
     bordercolor="#000000"
     borderopacity="0.25"
     inkscape:showpageshadow="2"
     inkscape:pageopacity="0.0"
     inkscape:pagecheckerboard="0"
     inkscape:deskcolor="#d1d1d1">
    <inkscape:page
       x="0"
       y="0"
       inkscape:label="1"
       id="page1"
       width="3456.6667"
       height="4608.6665"
       margin="0"
       bleed="0" />
  </sodipodi:namedview>
  <g
     id="g1"
     inkscape:groupmode="layer"
     inkscape:label="1">
    <g
       id="group-R5">
      <path
         id="path2"
         d="m 25922.5,1622.5 c 0,-894.699 -725.3,-1620 -1620,-1620 H 1622.5 C 727.805,2.5 2.5,727.801 2.5,1622.5 v 31320 c 0,894.7 725.305,1620 1620.01,1620 H 24302.5 c 894.7,0 1620,-725.3 1620,-1620 v -31320"
         style="fill:#ffffff;fill-opacity:1;fill-rule:nonzero;stroke:none"
         transform="matrix(0.13333333,0,0,-0.13333333,0,4608.6667)" />
      <path
         id="path3"
         d="m 25922.5,1622.5 c 0,-894.699 -725.3,-1620 -1620,-1620 H 1622.5 C 727.805,2.5 2.5,727.801 2.5,1622.5 v 31320 c 0,894.7 725.305,1620 1620.01,1620 H 24302.5 c 894.7,0 1620,-725.3 1620,-1620 z"
         style="fill:none;stroke:#231f20;stroke-width:5;stroke-linecap:butt;stroke-linejoin:miter;stroke-miterlimit:4;stroke-dasharray:none;stroke-opacity:1"
         transform="matrix(0.13333333,0,0,-0.13333333,0,4608.6667)" />
      <path
         id="path4"
         d="m 24842.5,1622.5 c 0,-297.7 -242.2,-540 -540,-540 H 1622.51 c -297.75,0 -540,242.3 -540,540 v 31320 c 0,297.8 242.25,540 540,540 H 24302.5 c 297.8,0 540,-242.3 540,-540 z m -540,32490 H 1622.51 c -645.143,0 -1169.998,-524.9 -1169.998,-1170 v -31320 c 0,-645.102 524.855,-1170 1169.998,-1170 H 24302.5 c 645.1,0 1170,524.898 1170,1170 v 31320 c 0,645.1 -524.9,1170 -1170,1170"
         style="fill:#231f20;fill-opacity:1;fill-rule:nonzero;stroke:none"
         transform="matrix(0.13333333,0,0,-0.13333333,0,4608.6667)" />
      <path
         id="path5"
         d="m 20485.9,6906.9 c -99.4,-300.7 -380.9,-500.2 -777,-500.2 -441.8,0 -700.8,166.7 -837.9,576 -137.1,394.1 -182.9,788.2 -182.9,1667.3 0,864.1 45.8,1243 198.1,1652.3 137.1,394.1 396.1,560.8 822.7,560.8 487.5,0 777,-303.1 837.9,-833.7 h -548.5 c -30.4,181.9 -121.8,272.9 -274.2,272.9 -198,0 -335.1,-136.5 -380.8,-424.5 -61,-348.6 -91.5,-636.6 -91.5,-1227.8 0,-591.1 30.5,-879.1 76.2,-1242.9 61,-288 167.6,-439.6 365.7,-439.6 198,0 304.6,181.9 304.6,469.9 v 576 h -258.9 v 560.9 h 807.4 V 7467.7 c 0,-197 -17.2,-428.5 -60.9,-560.8"
         style="fill:#231f20;fill-opacity:1;fill-rule:nonzero;stroke:none"
         transform="matrix(0.13333333,0,0,-0.13333333,0,4608.6667)" />
      <path
         id="path6"
         d="m 13761.2,6482.5 v 4320 h 542.5 V 6982.7 h 1100.1 v -500.2 h -1642.6"
         style="fill:#231f20;fill-opacity:1;fill-rule:nonzero;stroke:none"
         transform="matrix(0.13333333,0,0,-0.13333333,0,4608.6667)" />
      <path
         id="path7"
         d="m 22754.7,8346.9 c 124.7,-267.7 212.4,-636.6 212.4,-939.8 0,-303.2 -136.5,-621.5 -349,-803.4 -136.5,-121.2 -330,-197 -557.6,-197 -606.9,0 -921.7,394.1 -952.1,1152 h 561.4 c 0,-166.8 15.2,-227.4 45.5,-318.3 45.5,-166.8 178.3,-272.9 345.2,-272.9 212.4,0 345.2,166.7 345.2,439.6 0,378.9 -132.8,697.3 -466.5,1091.4 -197.3,227.3 -330.1,394.1 -375.6,454.7 -242.8,288 -349,591.2 -349,894.3 0,591.2 360.4,1015.6 876.2,1015.6 531.1,0 815.6,-333.5 876.3,-1015.6 h -561.4 c -15.1,333.5 -102.4,469.9 -299.7,469.9 -212.4,0 -330,-181.9 -330,-469.9 0,-197 72.1,-348.6 299.7,-591.1 470.3,-530.6 550.1,-633 679,-909.5"
         style="fill:#231f20;fill-opacity:1;fill-rule:nonzero;stroke:none"
         transform="matrix(0.13333333,0,0,-0.13333333,0,4608.6667)" />
      <path
         id="path8"
         d="m 17731.1,6861.4 c -166.6,-318.3 -408.9,-454.7 -787.4,-454.7 -439.1,0 -707.9,197 -859.3,591.1 -45.4,136.4 -75.8,288 -75.8,545.7 v 3259 h 545.2 V 7467.7 c 0,-318.3 132.5,-500.2 389.9,-500.2 242.3,0 378.5,181.9 378.5,500.2 v 3334.8 h 545.1 v -3259 c 0,-303.1 -45.4,-515.4 -136.2,-682.1"
         style="fill:#231f20;fill-opacity:1;fill-rule:nonzero;stroke:none"
         transform="matrix(0.13333333,0,0,-0.13333333,0,4608.6667)" />
      <path
         id="path9"
         d="m 11057.2,6482.5 v 2016 h -770.7 v -2016 h -544.01 v 4320 h 544.01 V 9059.3 h 770.7 v 1743.2 h 544 v -4320 h -544"
         style="fill:#231f20;fill-opacity:1;fill-rule:nonzero;stroke:none"
         transform="matrix(0.13333333,0,0,-0.13333333,0,4608.6667)" />
      <path
         id="path10"
         d="m 6328.6,10802.5 h 561.6 v -4320 h -561.6 v 4320"
         style="fill:#231f20;fill-opacity:1;fill-rule:nonzero;stroke:none"
         transform="matrix(0.13333333,0,0,-0.13333333,0,4608.6667)" />
      <path
         id="path11"
         d="M 8573.74,10241.6 V 6482.5 h -545.06 v 3759.1 h -533.67 v 560.9 h 1642.68 v -560.9 h -563.95"
         style="fill:#231f20;fill-opacity:1;fill-rule:nonzero;stroke:none"
         transform="matrix(0.13333333,0,0,-0.13333333,0,4608.6667)" />
      <path
         id="path12"
         d="M 5217.14,6482.5 H 4744.71 L 4333.25,8907.7 3937,6482.5 h -472.4 l -506.68,4320 h 563.87 l 232.34,-2000.9 350.51,2000.9 h 472.43 l 350.51,-2000.9 232.37,2000.9 h 563.85 l -506.66,-4320"
         style="fill:#231f20;fill-opacity:1;fill-rule:nonzero;stroke:none"
         transform="matrix(0.13333333,0,0,-0.13333333,0,4608.6667)" />
      <path
         id="path13"
         d="m 15031.9,15562.1 c -94.5,-313.4 -380.9,-515.4 -761.8,-515.4 -441.8,0 -716,181.9 -853.2,576 -121.9,363.8 -182.8,954.9 -182.8,1652.2 0,394.1 45.7,970.1 106.7,1303.6 121.8,666.9 380.9,924.6 898.9,924.6 487.5,0 807.4,-303.1 853.1,-833.7 h -563.7 c -15.2,181.9 -121.9,272.9 -274.2,272.9 -198.1,0 -304.7,-136.5 -365.7,-424.5 -76.1,-348.6 -91.4,-666.9 -91.4,-1242.9 0,-606.3 15.3,-864 91.4,-1227.8 61,-288 167.6,-439.6 350.5,-439.6 198,0 289.4,151.6 289.4,530.6 h 563.7 c 0,-333.5 -15.2,-424.5 -60.9,-576"
         style="fill:#231f20;fill-opacity:1;fill-rule:nonzero;stroke:none"
         transform="matrix(0.13333333,0,0,-0.13333333,0,4608.6667)" />
      <path
         id="path14"
         d="m 6216.3,15122.5 v 4320 h 1582.38 v -560.9 H 6758.84 v -1106.5 h 693.22 v -576 h -693.22 v -1515.8 h 1100.12 v -560.8 H 6216.3"
         style="fill:#231f20;fill-opacity:1;fill-rule:nonzero;stroke:none"
         transform="matrix(0.13333333,0,0,-0.13333333,0,4608.6667)" />
      <path
         id="path15"
         d="m 18446.2,15122.5 v 4320 h 1582.4 v -560.9 h -1039.9 v -1106.5 h 693.3 v -576 h -693.3 v -1515.8 h 1100.2 v -560.8 h -1642.7"
         style="fill:#231f20;fill-opacity:1;fill-rule:nonzero;stroke:none"
         transform="matrix(0.13333333,0,0,-0.13333333,0,4608.6667)" />
      <path
         id="path16"
         d="m 10003.1,15122.5 v 2016 h -770.71 v -2016 h -543.98 v 4320 h 543.98 v -1743.2 h 770.71 v 1743.2 h 544 v -4320 h -544"
         style="fill:#231f20;fill-opacity:1;fill-rule:nonzero;stroke:none"
         transform="matrix(0.13333333,0,0,-0.13333333,0,4608.6667)" />
      <path
         id="path17"
         d="m 11687.6,15122.5 v 4320 h 561.6 v -4320 h -561.6"
         style="fill:#231f20;fill-opacity:1;fill-rule:nonzero;stroke:none"
         transform="matrix(0.13333333,0,0,-0.13333333,0,4608.6667)" />
      <path
         id="path18"
         d="m 16077.8,15122.5 v 4320 h 542.5 v -3819.8 h 1100.1 v -500.2 h -1642.6"
         style="fill:#231f20;fill-opacity:1;fill-rule:nonzero;stroke:none"
         transform="matrix(0.13333333,0,0,-0.13333333,0,4608.6667)" />
      <path
         id="path19"
         d="m 22253.5,16986.9 c 124.7,-267.7 212.5,-636.6 212.5,-939.8 0,-303.2 -136.6,-621.5 -349,-803.4 -136.6,-121.2 -330,-197 -557.6,-197 -606.9,0 -921.8,394.1 -952.1,1152 h 561.3 c 0,-166.8 15.2,-227.4 45.6,-318.3 45.5,-166.8 178.3,-272.9 345.2,-272.9 212.4,0 345.2,166.8 345.2,439.6 0,378.9 -132.8,697.3 -466.6,1091.4 -197.2,227.3 -330.1,394.1 -375.5,454.7 -242.8,288 -349,591.2 -349,894.3 0,591.2 360.4,1015.6 876.2,1015.6 531.1,0 815.6,-333.5 876.3,-1015.6 h -561.4 c -15.2,333.5 -102.5,469.9 -299.7,469.9 -212.4,0 -330,-181.9 -330,-469.9 0,-197 72.1,-348.6 299.7,-591.1 470.3,-530.6 550.1,-632.9 678.9,-909.5"
         style="fill:#231f20;fill-opacity:1;fill-rule:nonzero;stroke:none"
         transform="matrix(0.13333333,0,0,-0.13333333,0,4608.6667)" />
      <path
         id="path20"
         d="m 4707.47,15122.5 h -469.14 l -779.3,4320 h 559.96 l 461.49,-2463.1 450.1,2463.1 h 559.94 l -783.05,-4320"
         style="fill:#231f20;fill-opacity:1;fill-rule:nonzero;stroke:none"
         transform="matrix(0.13333333,0,0,-0.13333333,0,4608.6667)" />
      <path
         id="path21"
         d="M 11721.7,23762.5 10069.3,26688 v -2925.5 h -682.14 v 4320 h 682.14 l 1576.5,-2758.7 v 2758.7 h 682.2 v -4320 h -606.3"
         style="fill:#231f20;fill-opacity:1;fill-rule:nonzero;stroke:none"
         transform="matrix(0.13333333,0,0,-0.13333333,0,4608.6667)" />
      <path
         id="path22"
         d="m 15595.8,27127.6 c -136.8,227.3 -303.9,318.3 -562.2,333.4 -334.3,15.2 -547,-151.6 -699,-530.5 -106.4,-257.7 -167.1,-651.8 -167.1,-1015.6 0,-454.7 91.1,-924.6 258.3,-1197.5 136.7,-227.3 319.1,-333.4 592.6,-333.4 319.1,0 516.6,166.7 668.6,545.6 91.1,227.4 167.1,651.8 167.1,985.3 0,485.1 -91.2,924.6 -258.3,1212.7 z m 471,-2955.8 c -243.1,-333.5 -592.6,-485.1 -1048.4,-485.1 -607.8,0 -987.7,242.5 -1246,773 -182.3,363.9 -303.9,939.8 -303.9,1455.2 0,712.4 182.3,1349.1 471,1758.3 258.4,333.5 607.8,485.1 1109.3,485.1 547,0 926.9,-242.5 1200.4,-773.1 182.3,-378.9 288.7,-924.6 288.7,-1470.3 0,-682.1 -167.2,-1364.2 -471.1,-1743.1"
         style="fill:#231f20;fill-opacity:1;fill-rule:nonzero;stroke:none"
         transform="matrix(0.13333333,0,0,-0.13333333,0,4608.6667)" />
    </g>
  </g>
</svg>
