<?xml version="1.0" encoding="UTF-8" standalone="no"?>
<!-- Created with Inkscape (http://www.inkscape.org/) -->

<svg
   version="1.1"
   id="svg1"
   width="4608.6665"
   height="5760.6665"
   viewBox="0 0 4608.6665 5760.6665"
   sodipodi:docname="tmpr89bu3wv.pdf"
   xmlns:inkscape="http://www.inkscape.org/namespaces/inkscape"
   xmlns:sodipodi="http://sodipodi.sourceforge.net/DTD/sodipodi-0.dtd"
   xmlns="http://www.w3.org/2000/svg"
   xmlns:svg="http://www.w3.org/2000/svg">
  <defs
     id="defs1" />
  <sodipodi:namedview
     id="namedview1"
     pagecolor="#ffffff"
     bordercolor="#000000"
     borderopacity="0.25"
     inkscape:showpageshadow="2"
     inkscape:pageopacity="0.0"
     inkscape:pagecheckerboard="0"
     inkscape:deskcolor="#d1d1d1">
    <inkscape:page
       x="0"
       y="0"
       inkscape:label="1"
       id="page1"
       width="4608.6665"
       height="5760.6665"
       margin="0"
       bleed="0" />
  </sodipodi:namedview>
  <g
     id="g1"
     inkscape:groupmode="layer"
     inkscape:label="1">
    <g
       id="group-R5">
      <path
         id="path2"
         d="m 34562.5,2162.5 c 0,-1192.898 -967.1,-2160 -2160,-2160 H 2162.5 C 969.566,2.5 2.5,969.602 2.5,2162.5 v 38880 c 0,1192.9 967.066,2160 2160,2160 h 30240 c 1192.9,0 2160,-967.1 2160,-2160 v -38880"
         style="fill:#ffffff;fill-opacity:1;fill-rule:nonzero;stroke:none"
         transform="matrix(0.13333333,0,0,-0.13333333,0,5760.6667)" />
      <path
         id="path3"
         d="m 34562.5,2162.5 c 0,-1192.898 -967.1,-2160 -2160,-2160 H 2162.5 C 969.566,2.5 2.5,969.602 2.5,2162.5 v 38880 c 0,1192.9 967.066,2160 2160,2160 h 30240 c 1192.9,0 2160,-967.1 2160,-2160 z"
         style="fill:none;stroke:#231f20;stroke-width:5;stroke-linecap:butt;stroke-linejoin:miter;stroke-miterlimit:4;stroke-dasharray:none;stroke-opacity:1"
         transform="matrix(0.13333333,0,0,-0.13333333,0,5760.6667)" />
      <path
         id="path4"
         d="m 33122.5,2162.5 c 0,-397 -323,-720 -720,-720 h -30240 c -397.01,0 -720,323 -720,720 v 38880 c 0,397 322.99,720 720,720 h 30240 c 397,0 720,-323 720,-720 z m -720,40500 h -30240 c -893.27,0 -1620,-726.7 -1620,-1620 v -38880 c 0,-893.3 726.73,-1620 1620,-1620 h 30240 c 893.3,0 1620,726.7 1620,1620 v 38880 c 0,893.3 -726.7,1620 -1620,1620"
         style="fill:#231f20;fill-opacity:1;fill-rule:nonzero;stroke:none"
         transform="matrix(0.13333333,0,0,-0.13333333,0,5760.6667)" />
      <path
         id="path5"
         d="m 27313.6,7768.4 c -132.5,-400.9 -507.8,-667 -1035.9,-667 -589.1,0 -934.4,222.3 -1117.3,768 -182.8,525.5 -243.7,1051 -243.7,2223.2 0,1152 60.9,1657.3 264.1,2202.9 182.8,525.5 528.1,747.8 1096.9,747.8 650,0 1035.9,-404.2 1117.2,-1111.6 h -731.3 c -40.6,242.6 -162.5,363.8 -365.6,363.8 -264.1,0 -446.9,-181.9 -507.8,-565.9 -81.3,-464.8 -121.9,-848.8 -121.9,-1637 0,-788.2 40.6,-1172.2 101.5,-1657.3 81.3,-384 223.5,-586.1 487.6,-586.1 264,0 406.2,242.5 406.2,626.5 v 768 h -345.3 v 747.8 h 1076.6 V 8516.2 c 0,-262.8 -22.9,-571.4 -81.3,-747.8"
         style="fill:#231f20;fill-opacity:1;fill-rule:nonzero;stroke:none"
         transform="matrix(0.13333333,0,0,-0.13333333,0,5760.6667)" />
      <path
         id="path6"
         d="m 18347.4,7202.5 v 5760 h 723.4 V 7869.4 h 1466.8 v -666.9 h -2190.2"
         style="fill:#231f20;fill-opacity:1;fill-rule:nonzero;stroke:none"
         transform="matrix(0.13333333,0,0,-0.13333333,0,5760.6667)" />
      <path
         id="path7"
         d="m 30338.7,9688.3 c 166.3,-356.8 283.2,-848.8 283.2,-1253 0,-404.2 -182,-828.6 -465.2,-1071.2 -182.1,-161.7 -440.1,-262.7 -743.5,-262.7 -809.2,0 -1229,525.5 -1269.5,1536 h 748.5 c 0,-222.3 20.2,-303.2 60.7,-424.4 60.7,-222.4 237.7,-363.8 460.3,-363.8 283.2,0 460.2,222.3 460.2,586.1 0,505.3 -177,929.7 -622.1,1455.1 -263,303.2 -440,525.5 -500.7,606.4 -323.7,384 -465.3,788.2 -465.3,1192.4 0,788.2 480.5,1354.1 1168.3,1354.1 708.1,0 1087.4,-444.6 1168.3,-1354.1 h -748.5 c -20.2,444.6 -136.6,626.5 -399.6,626.5 -283.2,0 -440,-242.5 -440,-626.5 0,-262.7 96.1,-464.8 399.6,-788.2 627.1,-707.4 733.5,-843.9 905.3,-1212.7"
         style="fill:#231f20;fill-opacity:1;fill-rule:nonzero;stroke:none"
         transform="matrix(0.13333333,0,0,-0.13333333,0,5760.6667)" />
      <path
         id="path8"
         d="m 23640.6,7707.7 c -222.1,-424.4 -545.2,-606.3 -1049.9,-606.3 -585.5,0 -943.9,262.7 -1145.7,788.2 -60.6,181.9 -101,384 -101,727.6 v 4345.3 h 726.8 V 8516.2 c 0,-424.5 176.7,-667 519.9,-667 323.1,0 504.7,242.5 504.7,667 v 4446.3 h 726.9 V 8617.2 c 0,-404.2 -60.6,-687.2 -181.7,-909.5"
         style="fill:#231f20;fill-opacity:1;fill-rule:nonzero;stroke:none"
         transform="matrix(0.13333333,0,0,-0.13333333,0,5760.6667)" />
      <path
         id="path9"
         d="m 14742,7202.5 v 2688 h -1027.5 v -2688 h -725.4 v 5760 h 725.4 V 10638.3 H 14742 v 2324.2 h 725.4 v -5760 H 14742"
         style="fill:#231f20;fill-opacity:1;fill-rule:nonzero;stroke:none"
         transform="matrix(0.13333333,0,0,-0.13333333,0,5760.6667)" />
      <path
         id="path10"
         d="m 8437.28,7202.5 v 5760 h 748.8 v -5760 h -748.8"
         style="fill:#231f20;fill-opacity:1;fill-rule:nonzero;stroke:none"
         transform="matrix(0.13333333,0,0,-0.13333333,0,5760.6667)" />
      <path
         id="path11"
         d="M 11430.8,12214.6 V 7202.5 H 10704 v 5012.1 h -711.51 v 747.8 h 2190.21 v -747.8 h -751.9"
         style="fill:#231f20;fill-opacity:1;fill-rule:nonzero;stroke:none"
         transform="matrix(0.13333333,0,0,-0.13333333,0,5760.6667)" />
      <path
         id="path12"
         d="m 6955.3,7202.5 h -629.89 l -548.6,3233.6 -528.31,-3233.6 h -629.89 l -675.55,5759.9 h 751.8 l 309.81,-2667.7 467.33,2667.7 h 629.9 l 467.34,-2667.7 309.82,2667.7 h 751.79 L 6955.3,7202.5"
         style="fill:#231f20;fill-opacity:1;fill-rule:nonzero;stroke:none"
         transform="matrix(0.13333333,0,0,-0.13333333,0,5760.6667)" />
      <path
         id="path13"
         d="m 15628,30242.5 -2203.1,3900.6 v -3900.6 h -909.5 v 5760 h 909.5 l 2102,-3678.3 v 3678.3 h 909.6 v -5760 H 15628"
         style="fill:#231f20;fill-opacity:1;fill-rule:nonzero;stroke:none"
         transform="matrix(0.13333333,0,0,-0.13333333,0,5760.6667)" />
      <path
         id="path14"
         d="m 20793.5,34729.2 c -182.3,303.2 -405.2,424.4 -749.6,444.7 -445.7,20.2 -729.3,-202.1 -931.9,-707.4 -141.9,-343.6 -222.9,-869.1 -222.9,-1354.1 0,-606.3 121.5,-1232.9 344.4,-1596.6 182.4,-303.2 425.5,-444.7 790.2,-444.7 425.4,0 688.8,222.3 891.4,727.6 121.6,303.1 222.8,869 222.8,1313.7 0,646.7 -121.5,1232.8 -344.4,1616.8 z m 628.1,-3941 c -324.2,-444.7 -790.2,-646.8 -1397.9,-646.8 -810.4,0 -1317,323.4 -1661.4,1030.8 -243.1,485 -405.1,1253 -405.1,1940.2 0,949.9 243.1,1798.7 628,2344.4 344.4,444.7 810.4,646.7 1479,646.7 729.3,0 1235.8,-323.3 1600.5,-1030.7 243.1,-505.2 384.9,-1232.8 384.9,-1960.4 0,-909.5 -222.8,-1819 -628,-2324.2"
         style="fill:#231f20;fill-opacity:1;fill-rule:nonzero;stroke:none"
         transform="matrix(0.13333333,0,0,-0.13333333,0,5760.6667)" />
      <path
         id="path15"
         d="m 20041.6,19308.6 c -125.9,-417.8 -507.8,-687.2 -1015.6,-687.2 -589.1,0 -954.7,242.5 -1137.6,768 -162.5,485.1 -243.8,1273.3 -243.8,2203 0,525.5 61,1293.4 142.2,1738.1 162.5,889.2 507.9,1232.8 1198.6,1232.8 650,0 1076.6,-404.2 1137.5,-1111.6 h -751.6 c -20.3,242.6 -162.5,363.8 -365.6,363.8 -264.1,0 -406.3,-181.9 -487.6,-565.9 -101.5,-464.8 -121.8,-889.2 -121.8,-1657.2 0,-808.5 20.3,-1152 121.8,-1637.1 81.3,-384 223.5,-586.1 467.3,-586.1 264,0 385.9,202.1 385.9,707.4 h 751.6 c 0,-444.7 -20.3,-565.9 -81.3,-768"
         style="fill:#231f20;fill-opacity:1;fill-rule:nonzero;stroke:none"
         transform="matrix(0.13333333,0,0,-0.13333333,0,5760.6667)" />
      <path
         id="path16"
         d="m 8287.54,18722.5 v 5760 h 2109.86 v -747.8 H 9010.94 v -1475.4 h 924.29 v -768 h -924.29 v -2021 h 1466.86 v -747.8 H 8287.54"
         style="fill:#231f20;fill-opacity:1;fill-rule:nonzero;stroke:none"
         transform="matrix(0.13333333,0,0,-0.13333333,0,5760.6667)" />
      <path
         id="path17"
         d="m 24594.1,18722.5 v 5760 h 2109.8 v -747.8 h -1386.4 v -1475.4 h 924.3 v -768 h -924.3 v -2021 h 1466.8 v -747.8 h -2190.2"
         style="fill:#231f20;fill-opacity:1;fill-rule:nonzero;stroke:none"
         transform="matrix(0.13333333,0,0,-0.13333333,0,5760.6667)" />
      <path
         id="path18"
         d="m 13336.6,18722.5 v 2688 H 12309 v -2688 h -725.3 v 5760 h 725.3 v -2324.2 h 1027.6 v 2324.2 h 725.4 v -5760 h -725.4"
         style="fill:#231f20;fill-opacity:1;fill-rule:nonzero;stroke:none"
         transform="matrix(0.13333333,0,0,-0.13333333,0,5760.6667)" />
      <path
         id="path19"
         d="m 15582.6,18722.5 v 5760 h 748.8 v -5760 h -748.8"
         style="fill:#231f20;fill-opacity:1;fill-rule:nonzero;stroke:none"
         transform="matrix(0.13333333,0,0,-0.13333333,0,5760.6667)" />
      <path
         id="path20"
         d="m 21436.2,18722.5 v 5760 h 723.4 v -5093.1 h 1466.8 v -666.9 h -2190.2"
         style="fill:#231f20;fill-opacity:1;fill-rule:nonzero;stroke:none"
         transform="matrix(0.13333333,0,0,-0.13333333,0,5760.6667)" />
      <path
         id="path21"
         d="m 29670.5,21208.4 c 166.3,-356.9 283.3,-848.9 283.3,-1253.1 0,-404.2 -182.1,-828.6 -465.3,-1071.2 -182.1,-161.6 -440.1,-262.7 -743.5,-262.7 -809.2,0 -1229,525.5 -1269.5,1536 h 748.5 c 0,-222.3 20.3,-303.1 60.7,-424.4 60.7,-222.3 237.8,-363.8 460.3,-363.8 283.2,0 460.3,222.3 460.3,586.1 0,505.3 -177.1,929.7 -622.1,1455.2 -263,303.1 -440.1,525.4 -500.8,606.3 -323.6,384 -465.3,788.2 -465.3,1192.4 0,788.2 480.6,1354.1 1168.4,1354.1 708,0 1087.4,-444.6 1168.3,-1354.1 h -748.5 c -20.3,444.6 -136.6,626.5 -399.6,626.5 -283.2,0 -440.1,-242.5 -440.1,-626.5 0,-262.7 96.2,-464.8 399.6,-788.2 627.1,-707.4 733.6,-843.9 905.3,-1212.6"
         style="fill:#231f20;fill-opacity:1;fill-rule:nonzero;stroke:none"
         transform="matrix(0.13333333,0,0,-0.13333333,0,5760.6667)" />
      <path
         id="path22"
         d="m 6275.79,18722.5 h -625.52 l -1039.06,5760 h 746.59 l 615.33,-3284.1 600.13,3284.1 h 746.58 l -1044.05,-5760"
         style="fill:#231f20;fill-opacity:1;fill-rule:nonzero;stroke:none"
         transform="matrix(0.13333333,0,0,-0.13333333,0,5760.6667)" />
    </g>
  </g>
</svg>
