<?xml version="1.0" standalone="no"?>
<svg width="2161px" height="1729px" viewBox="0 -937 2161 1729 " xmlns="http://www.w3.org/2000/svg" xmlns:xlink="http://www.w3.org/1999/xlink">
<title>generated by pstoedit</title>
<!-- generated by pstoedit version:4.02 -->
<g xml:space='preserve'>
<clipPath id="clippath1"> 	<path d="
	M 0 -937 
	L 0 792 
	L 2161 792 
	L 2161 -937 
	Z 
	" style="clip-rule:nonzero"/>
</clipPath>
<g style="clip-path:url(#clippath1)"> 
<g fill="#ffffff" fill-rule="nonzero" stroke-width="0" stroke-linejoin="miter" stroke-linecap="butt" stroke-miterlimit="10" >
	<path d="
	M 2160.5 683.5 
	C 2160.5 743.148 2112.15 791.5 2052.5 791.5 
	L 108.5 791.5 
	C 48.8516 791.5 0.5 743.148 0.5 683.5 
	L 0.5 -828.5 
	C 0.5 -888.14 48.8516 -936.5 108.5 -936.5 
	L 2052.5 -936.5 
	C 2112.15 -936.5 2160.5 -888.14 2160.5 -828.5 
	Z 
	"/>
</g>
<g stroke="#7f7f7f" fill="none" stroke-width="1" stroke-linejoin="miter" stroke-linecap="butt" stroke-miterlimit="4" >
	<path d="
	M 2160.5 683.5 
	C 2160.5 743.148 2112.15 791.5 2052.5 791.5 
	L 108.5 791.5 
	C 48.8516 791.5 0.5 743.148 0.5 683.5 
	L 0.5 -828.5 
	C 0.5 -888.14 48.8516 -936.5 108.5 -936.5 
	L 2052.5 -936.5 
	C 2112.15 -936.5 2160.5 -888.14 2160.5 -828.5 
	Z 
	"/>
</g>
<g fill="#7f7f7f" fill-rule="nonzero" stroke-width="0" stroke-linejoin="miter" stroke-linecap="butt" stroke-miterlimit="4" >
	<path d="
	M 2088.5 683.5 
	C 2088.5 703.352 2072.35 719.5 2052.5 719.5 
	L 108.5 719.5 
	C 88.6484 719.5 72.5 703.352 72.5 683.5 
	L 72.5 -828.5 
	C 72.5 -848.35 88.6484 -864.5 108.5 -864.5 
	L 2052.5 -864.5 
	C 2072.35 -864.5 2088.5 -848.35 2088.5 -828.5 
	Z 
	M 2052.5 -909.5 
	L 108.5 -909.5 
	C 63.8359 -909.5 27.5 -873.16 27.5 -828.5 
	L 27.5 683.5 
	C 27.5 728.16 63.8359 764.5 108.5 764.5 
	L 2052.5 764.5 
	C 2097.16 764.5 2133.5 728.16 2133.5 683.5 
	L 2133.5 -828.5 
	C 2133.5 -873.16 2097.16 -909.5 2052.5 -909.5 
	Z 
	"/>
</g>
<g fill="#7f7f7f" fill-rule="nonzero" stroke-width="0" stroke-linejoin="miter" stroke-linecap="butt" stroke-miterlimit="4" >
	<path d="
	M 1459.92 503.5 
	L 1459.92 251.5 
	L 1500.24 251.5 
	L 1500.24 503.5 
	Z 
	"/>
</g>
<g fill="#7f7f7f" fill-rule="nonzero" stroke-width="0" stroke-linejoin="miter" stroke-linecap="butt" stroke-miterlimit="4" >
	<path d="
	M 531.461 286.871 
	L 531.461 503.5 
	L 491.504 503.5 
	L 491.504 286.871 
	L 433.773 286.871 
	L 433.773 251.5 
	L 590.078 251.5 
	L 590.078 286.871 
	Z 
	"/>
</g>
<g fill="#7f7f7f" fill-rule="nonzero" stroke-width="0" stroke-linejoin="miter" stroke-linecap="butt" stroke-miterlimit="4" >
	<path d="
	M 738.41 295.711 
	C 732.223 292.18 728.684 291.289 715.418 291.289 
	L 667.668 291.289 
	L 667.668 353.191 
	L 715.418 353.191 
	C 727.801 353.191 732.223 352.301 738.41 348.77 
	C 748.137 343.461 754.328 332.852 754.328 322.238 
	C 754.328 311.629 748.137 301.02 738.41 295.711 
	Z 
	M 756.094 503.5 
	L 715.418 393.859 
	L 667.668 393.859 
	L 667.668 503.5 
	L 627.879 503.5 
	L 627.879 251.5 
	L 710.996 251.5 
	C 730.453 251.5 743.715 253.27 756.094 259.461 
	C 778.203 270.07 794.117 296.602 794.117 322.238 
	C 794.117 348.77 778.203 375.289 755.211 385.898 
	L 799.426 503.5 
	Z 
	"/>
</g>
<g fill="#7f7f7f" fill-rule="nonzero" stroke-width="0" stroke-linejoin="miter" stroke-linecap="butt" stroke-miterlimit="4" >
	<path d="
	M 927.191 321.359 
	L 901.402 392.09 
	L 952.094 392.09 
	Z 
	M 991.227 503.5 
	L 966.324 432.77 
	L 887.176 432.77 
	L 862.273 503.5 
	L 819.586 503.5 
	L 906.738 251.5 
	L 946.758 251.5 
	L 1033.91 503.5 
	Z 
	"/>
</g>
<g fill="#7f7f7f" fill-rule="nonzero" stroke-width="0" stroke-linejoin="miter" stroke-linecap="butt" stroke-miterlimit="4" >
	<path d="
	M 1651.18 507.922 
	C 1614.04 507.922 1590.16 493.781 1574.25 462.828 
	C 1562.75 440.73 1555.68 408.891 1555.68 377.059 
	C 1555.68 337.27 1566.29 297.48 1583.97 275.379 
	C 1599.01 256.809 1620.23 247.078 1648.53 247.078 
	C 1686.55 247.078 1710.42 263 1727.23 298.371 
	L 1690.09 314.281 
	C 1675.94 293.059 1667.98 287.75 1648.53 287.75 
	C 1628.19 287.75 1614.92 296.602 1606.08 318.699 
	C 1599.89 333.73 1596.35 355.84 1596.35 377.059 
	C 1596.35 404.469 1602.54 431.879 1612.27 447.801 
	C 1621.11 461.059 1632.61 467.25 1650.29 467.25 
	C 1667.1 467.25 1679.47 458.41 1689.2 438.07 
	L 1727.23 452.219 
	C 1712.19 489.359 1687.43 507.922 1651.18 507.922 
	Z 
	"/>
</g>
<g fill="#7f7f7f" fill-rule="nonzero" stroke-width="0" stroke-linejoin="miter" stroke-linecap="butt" stroke-miterlimit="4" >
	<path d="
	M 1111.45 291.289 
	L 1111.45 353.191 
	L 1184.74 353.191 
	L 1184.74 393.859 
	L 1111.45 393.859 
	L 1111.45 503.5 
	L 1071.71 503.5 
	L 1071.71 251.5 
	L 1228.01 251.5 
	L 1228.01 291.289 
	Z 
	"/>
</g>
<g fill="#7f7f7f" fill-rule="nonzero" stroke-width="0" stroke-linejoin="miter" stroke-linecap="butt" stroke-miterlimit="4" >
	<path d="
	M 1305.55 291.289 
	L 1305.55 353.191 
	L 1378.85 353.191 
	L 1378.85 393.859 
	L 1305.55 393.859 
	L 1305.55 503.5 
	L 1265.81 503.5 
	L 1265.81 251.5 
	L 1422.12 251.5 
	L 1422.12 291.289 
	Z 
	"/>
</g>
<g fill="#7f7f7f" fill-rule="nonzero" stroke-width="0" stroke-linejoin="miter" stroke-linecap="butt" stroke-miterlimit="4" >
	<path d="
	M 1008.12 -396.5 
	L 911.73 -567.15 
	L 911.73 -396.5 
	L 871.938 -396.5 
	L 871.938 -648.5 
	L 911.73 -648.5 
	L 1003.69 -487.57 
	L 1003.69 -648.5 
	L 1043.49 -648.5 
	L 1043.49 -396.5 
	Z 
	"/>
</g>
<g fill="#7f7f7f" fill-rule="nonzero" stroke-width="0" stroke-linejoin="miter" stroke-linecap="butt" stroke-miterlimit="4" >
	<path d="
	M 1234.11 -592.79 
	C 1226.13 -606.06 1216.38 -611.36 1201.31 -612.25 
	C 1181.81 -613.13 1169.4 -603.41 1160.54 -581.3 
	C 1154.33 -566.27 1150.79 -543.28 1150.79 -522.06 
	C 1150.79 -495.53 1156.11 -468.12 1165.86 -452.2 
	C 1173.84 -438.94 1184.47 -432.75 1200.43 -432.75 
	C 1219.04 -432.75 1230.56 -442.48 1239.43 -464.58 
	C 1244.74 -477.85 1249.18 -502.61 1249.18 -522.06 
	C 1249.18 -550.35 1243.86 -575.99 1234.11 -592.79 
	Z 
	M 1261.58 -420.37 
	C 1247.4 -400.92 1227.02 -392.08 1200.43 -392.08 
	C 1164.97 -392.08 1142.81 -406.23 1127.74 -437.17 
	C 1117.11 -458.39 1110.02 -491.99 1110.02 -522.06 
	C 1110.02 -563.61 1120.65 -600.75 1137.49 -624.63 
	C 1152.56 -644.08 1172.95 -652.92 1202.2 -652.92 
	C 1234.11 -652.92 1256.27 -638.77 1272.22 -607.82 
	C 1282.86 -585.72 1289.06 -553.89 1289.06 -522.06 
	C 1289.06 -482.27 1279.31 -442.48 1261.58 -420.37 
	Z 
	"/>
</g>
<g fill="#7f7f7f" fill-rule="nonzero" stroke-width="0" stroke-linejoin="miter" stroke-linecap="butt" stroke-miterlimit="4" >
	<path d="
	M 212.363 53.5 
	L 163 -95.934 
	L 163 53.5 
	L 131.266 53.5 
	L 131.266 -198.5 
	L 163 -198.5 
	L 207.953 -72.941 
	L 207.953 -198.5 
	L 239.688 -198.5 
	L 239.688 53.5 
	Z 
	"/>
</g>
<g fill="#7f7f7f" fill-rule="nonzero" stroke-width="0" stroke-linejoin="miter" stroke-linecap="butt" stroke-miterlimit="4" >
	<path d="
	M 532.527 53.5 
	L 483.164 -95.934 
	L 483.164 53.5 
	L 451.434 53.5 
	L 451.434 -198.5 
	L 483.164 -198.5 
	L 528.121 -72.941 
	L 528.121 -198.5 
	L 559.855 -198.5 
	L 559.855 53.5 
	Z 
	"/>
</g>
<g fill="#7f7f7f" fill-rule="nonzero" stroke-width="0" stroke-linejoin="miter" stroke-linecap="butt" stroke-miterlimit="4" >
	<path d="
	M 345.578 -169.32 
	C 316.398 -169.32 320.375 -90.625 320.375 -72.941 
	C 320.375 -56.145 316.398 25.203 345.578 25.203 
	C 373.875 25.203 369.898 -56.145 369.898 -72.941 
	C 369.898 -93.277 369.453 -169.32 345.578 -169.32 
	Z 
	M 345.578 57.922 
	C 282.797 57.922 287.656 -31.383 287.656 -72.941 
	C 287.656 -116.27 283.684 -202.035 345.578 -202.035 
	C 407.477 -202.035 403.5 -115.383 403.5 -72.941 
	C 403.5 -31.383 407.477 57.922 345.578 57.922 
	Z 
	"/>
</g>
<g fill="#7f7f7f" fill-rule="nonzero" stroke-width="0" stroke-linejoin="miter" stroke-linecap="butt" stroke-miterlimit="4" >
	<path d="
	M 1994.26 -129.531 
	C 1991.62 -156.941 1986.33 -165.785 1973.11 -165.785 
	L 1952.83 -165.785 
	L 1952.83 20.785 
	L 1973.11 20.785 
	C 1984.57 20.785 1990.74 12.824 1994.26 -5.742 
	C 1995.14 -14.582 1996.91 -42.879 1996.91 -64.984 
	C 1996.91 -83.555 1995.14 -111.848 1994.26 -129.531 
	Z 
	M 2024.23 -137.488 
	C 2027.12 -117.074 2029.52 -94.164 2029.52 -72.941 
	C 2029.52 -13.699 2021.59 24.32 2006.6 41.121 
	C 1999.55 49.078 1987.21 53.5 1973.11 53.5 
	L 1921.1 53.5 
	L 1921.1 -198.5 
	L 1973.11 -198.5 
	C 1990.74 -198.5 2003.08 -192.313 2011.01 -179.934 
	C 2017.18 -170.203 2021.99 -153.344 2024.23 -137.488 
	Z 
	"/>
</g>
<g fill="#7f7f7f" fill-rule="nonzero" stroke-width="0" stroke-linejoin="miter" stroke-linecap="butt" stroke-miterlimit="4" >
	<path d="
	M 1784.96 53.5 
	L 1784.96 -198.5 
	L 1877.26 -198.5 
	L 1877.26 -165.785 
	L 1816.6 -165.785 
	L 1816.6 -101.238 
	L 1857.04 -101.238 
	L 1857.04 -67.637 
	L 1816.6 -67.637 
	L 1816.6 20.785 
	L 1880.78 20.785 
	L 1880.78 53.5 
	Z 
	"/>
</g>
<g fill="#7f7f7f" fill-rule="nonzero" stroke-width="0" stroke-linejoin="miter" stroke-linecap="butt" stroke-miterlimit="4" >
	<path d="
	M 1563.13 53.5 
	L 1563.13 -198.5 
	L 1595.89 -198.5 
	L 1595.89 53.5 
	Z 
	"/>
</g>
<g fill="#7f7f7f" fill-rule="nonzero" stroke-width="0" stroke-linejoin="miter" stroke-linecap="butt" stroke-miterlimit="4" >
	<path d="
	M 903.578 53.5 
	L 903.578 -95.934 
	L 874.398 -1.32001 
	L 843.68 -95.934 
	L 843.68 53.5 
	L 811.855 53.5 
	L 811.855 -198.5 
	L 843.68 -198.5 
	L 874.398 -109.195 
	L 903.578 -198.5 
	L 935.398 -198.5 
	L 935.398 53.5 
	Z 
	"/>
</g>
<g fill="#7f7f7f" fill-rule="nonzero" stroke-width="0" stroke-linejoin="miter" stroke-linecap="butt" stroke-miterlimit="4" >
	<path d="
	M 1041.29 -169.32 
	C 1012.11 -169.32 1016.08 -90.625 1016.08 -72.941 
	C 1016.08 -56.145 1012.11 25.203 1041.29 25.203 
	C 1069.58 25.203 1065.61 -56.145 1065.61 -72.941 
	C 1065.61 -93.277 1065.16 -169.32 1041.29 -169.32 
	Z 
	M 1041.29 57.922 
	C 978.508 57.922 983.367 -31.383 983.367 -72.941 
	C 983.367 -116.27 979.391 -202.035 1041.29 -202.035 
	C 1103.19 -202.035 1099.21 -115.383 1099.21 -72.941 
	C 1099.21 -31.383 1103.19 57.922 1041.29 57.922 
	Z 
	"/>
</g>
<g fill="#7f7f7f" fill-rule="nonzero" stroke-width="0" stroke-linejoin="miter" stroke-linecap="butt" stroke-miterlimit="4" >
	<path d="
	M 1308.54 -169.32 
	C 1279.36 -169.32 1283.33 -90.625 1283.33 -72.941 
	C 1283.33 -56.145 1279.36 25.203 1308.54 25.203 
	C 1336.83 25.203 1332.86 -56.145 1332.86 -72.941 
	C 1332.86 -93.277 1332.41 -169.32 1308.54 -169.32 
	Z 
	M 1308.54 57.922 
	C 1245.75 57.922 1250.61 -31.383 1250.61 -72.941 
	C 1250.61 -116.27 1246.64 -202.035 1308.54 -202.035 
	C 1370.43 -202.035 1366.46 -115.383 1366.46 -72.941 
	C 1366.46 -31.383 1370.43 57.922 1308.54 57.922 
	Z 
	"/>
</g>
<g fill="#7f7f7f" fill-rule="nonzero" stroke-width="0" stroke-linejoin="miter" stroke-linecap="butt" stroke-miterlimit="4" >
	<path d="
	M 1461.74 -165.785 
	L 1446.25 -165.785 
	L 1446.25 -96.816 
	L 1467.05 -96.816 
	C 1484.75 -96.816 1490.07 -104.773 1490.07 -128.648 
	C 1490.07 -156.941 1483.87 -165.785 1461.74 -165.785 
	Z 
	M 1496.26 -72.059 
	L 1521.93 53.5 
	L 1489.18 53.5 
	L 1460.86 -64.102 
	L 1446.25 -64.102 
	L 1446.25 53.5 
	L 1414.39 53.5 
	L 1414.39 -198.5 
	L 1463.51 -198.5 
	C 1502.46 -198.5 1522.81 -174.625 1522.81 -127.762 
	C 1522.81 -99.469 1514.85 -83.551 1496.26 -72.059 
	Z 
	"/>
</g>
<g fill="#7f7f7f" fill-rule="nonzero" stroke-width="0" stroke-linejoin="miter" stroke-linecap="butt" stroke-miterlimit="4" >
	<path d="
	M 1189.91 -165.785 
	L 1189.91 53.5 
	L 1158.11 53.5 
	L 1158.11 -165.785 
	L 1126.98 -165.785 
	L 1126.98 -198.5 
	L 1222.81 -198.5 
	L 1222.81 -165.785 
	Z 
	"/>
</g>
<g fill="#7f7f7f" fill-rule="nonzero" stroke-width="0" stroke-linejoin="miter" stroke-linecap="butt" stroke-miterlimit="4" >
	<path d="
	M 1636.21 53.5 
	L 1636.21 18.133 
	L 1709.45 -165.785 
	L 1642.19 -165.785 
	L 1642.19 -198.5 
	L 1744.63 -198.5 
	L 1744.63 -165.785 
	L 1671.4 18.133 
	L 1744.63 18.133 
	L 1744.63 53.5 
	Z 
	"/>
</g>
<g fill="#7f7f7f" fill-rule="nonzero" stroke-width="0" stroke-linejoin="miter" stroke-linecap="butt" stroke-miterlimit="4" >
	<path d="
	M 622.855 -47.957 
	L 622.855 -80.676 
	L 748.855 -80.676 
	L 748.855 -47.957 
	Z 
	"/>
</g>
</g >
</g>
</svg>
