<?xml version="1.0" standalone="no"?>
<svg width="2160px" height="2592px" viewBox="0 -1800 2160 2592 " xmlns="http://www.w3.org/2000/svg" xmlns:xlink="http://www.w3.org/1999/xlink">
<title>generated by pstoedit</title>
<!-- generated by pstoedit version:4.02 -->
<g xml:space='preserve'>
<clipPath id="clippath1"> 	<path d="
	M 0 -1800.5 
	L 0 792 
	L 2160.5 792 
	L 2160.5 -1800.5 
	Z 
	" style="clip-rule:nonzero"/>
</clipPath>
<g style="clip-path:url(#clippath1)"> 
<g fill="#ffffff" fill-rule="nonzero" stroke-width="0" stroke-linejoin="miter" stroke-linecap="butt" stroke-miterlimit="10" >
	<path d="
	M 2160.25 656.75 
	C 2160.25 731.309 2099.81 791.75 2025.25 791.75 
	L 135.25 791.75 
	C 60.6914 791.75 0.25 731.309 0.25 656.75 
	L 0.25 -1665.25 
	C 0.25 -1739.81 60.6914 -1800.25 135.25 -1800.25 
	L 2025.25 -1800.25 
	C 2099.81 -1800.25 2160.25 -1739.81 2160.25 -1665.25 
	Z 
	"/>
</g>
<g stroke="#7f7f7f" fill="none" stroke-width="0.5" stroke-linejoin="miter" stroke-linecap="butt" stroke-miterlimit="4" >
	<path d="
	M 2160.25 656.75 
	C 2160.25 731.309 2099.81 791.75 2025.25 791.75 
	L 135.25 791.75 
	C 60.6914 791.75 0.25 731.309 0.25 656.75 
	L 0.25 -1665.25 
	C 0.25 -1739.81 60.6914 -1800.25 135.25 -1800.25 
	L 2025.25 -1800.25 
	C 2099.81 -1800.25 2160.25 -1739.81 2160.25 -1665.25 
	Z 
	"/>
</g>
<g fill="#7f7f7f" fill-rule="nonzero" stroke-width="0" stroke-linejoin="miter" stroke-linecap="butt" stroke-miterlimit="4" >
	<path d="
	M 135.25 755.75 
	C 80.6602 755.75 36.25 711.34 36.25 656.75 
	L 36.25 -1665.25 
	C 36.25 -1719.84 80.6602 -1764.25 135.25 -1764.25 
	L 2025.25 -1764.25 
	C 2079.84 -1764.25 2124.25 -1719.84 2124.25 -1665.25 
	L 2124.25 656.75 
	C 2124.25 711.34 2079.84 755.75 2025.25 755.75 
	Z 
	"/>
</g>
<g fill="#ffffff" fill-rule="nonzero" stroke-width="0" stroke-linejoin="miter" stroke-linecap="butt" stroke-miterlimit="4" >
	<path d="
	M 135.25 701.75 
	C 110.438 701.75 90.25 681.559 90.25 656.75 
	L 90.25 -1665.25 
	C 90.25 -1690.06 110.438 -1710.25 135.25 -1710.25 
	L 2025.25 -1710.25 
	C 2050.06 -1710.25 2070.25 -1690.06 2070.25 -1665.25 
	L 2070.25 656.75 
	C 2070.25 681.559 2050.06 701.75 2025.25 701.75 
	Z 
	"/>
</g>
<g fill="#7f7f7f" fill-rule="nonzero" stroke-width="0" stroke-linejoin="miter" stroke-linecap="butt" stroke-miterlimit="4" >
	<path d="
	M 451.07 -1218.38 
	L 378.715 -1218.38 
	L 378.715 -1060.98 
	L 451.07 -1060.98 
	C 491.66 -1060.98 518.133 -1089.28 518.133 -1133.49 
	C 518.133 -1181.24 488.129 -1218.38 451.07 -1218.38 
	Z 
	M 454.602 -1423.52 
	L 378.715 -1423.52 
	L 378.715 -1289.11 
	L 454.602 -1289.11 
	C 488.129 -1289.11 509.309 -1317.41 509.309 -1363.39 
	C 509.309 -1405.83 493.426 -1423.52 454.602 -1423.52 
	Z 
	M 454.602 -990.25 
	L 306.355 -990.25 
	L 306.355 -1494.25 
	L 465.188 -1494.25 
	C 532.25 -1494.25 579.898 -1441.2 579.898 -1363.39 
	C 579.898 -1317.41 567.547 -1296.19 526.957 -1253.74 
	C 565.781 -1221.91 588.723 -1179.47 588.723 -1128.19 
	C 588.723 -1052.14 528.719 -990.25 454.602 -990.25 
	Z 
	"/>
</g>
<g fill="#7f7f7f" fill-rule="nonzero" stroke-width="0" stroke-linejoin="miter" stroke-linecap="butt" stroke-miterlimit="4" >
	<path d="
	M 674.406 -990.25 
	L 674.406 -1494.25 
	L 912.063 -1494.25 
	L 912.063 -1423.52 
	L 747.117 -1423.52 
	L 747.117 -1296.19 
	L 851.762 -1296.19 
	L 851.762 -1227.22 
	L 747.117 -1227.22 
	L 747.117 -1060.98 
	L 931.57 -1060.98 
	L 931.57 -990.25 
	Z 
	"/>
</g>
<g fill="#7f7f7f" fill-rule="nonzero" stroke-width="0" stroke-linejoin="miter" stroke-linecap="butt" stroke-miterlimit="4" >
	<path d="
	M 1275.33 -1052.14 
	C 1255.8 -1007.93 1214.95 -981.41 1163.45 -981.41 
	C 1103.07 -981.41 1058.67 -1011.47 1033.81 -1068.06 
	C 1017.83 -1105.2 1007.17 -1175.93 1007.17 -1241.37 
	C 1007.17 -1312.1 1012.5 -1363.39 1030.26 -1411.13 
	C 1048.02 -1464.19 1099.52 -1503.09 1158.12 -1503.09 
	C 1230.93 -1503.09 1285.99 -1450.04 1289.54 -1375.77 
	L 1216.72 -1375.77 
	C 1214.95 -1409.37 1191.86 -1432.36 1156.35 -1432.36 
	C 1131.48 -1432.36 1111.95 -1419.98 1099.52 -1395.22 
	C 1085.31 -1370.46 1076.43 -1313.87 1076.43 -1253.74 
	C 1076.43 -1211.3 1079.98 -1167.09 1087.08 -1128.19 
	C 1097.74 -1078.67 1122.6 -1052.14 1161.67 -1052.14 
	C 1198.97 -1052.14 1216.72 -1076.9 1216.72 -1129.95 
	L 1216.72 -1163.55 
	L 1159.9 -1163.55 
	L 1159.9 -1234.29 
	L 1289.54 -1234.29 
	L 1289.54 -1129.95 
	C 1289.54 -1094.59 1285.99 -1073.36 1275.33 -1052.14 
	Z 
	"/>
</g>
<g fill="#7f7f7f" fill-rule="nonzero" stroke-width="0" stroke-linejoin="miter" stroke-linecap="butt" stroke-miterlimit="4" >
	<path d="
	M 1390.34 -990.25 
	L 1390.34 -1494.25 
	L 1460.9 -1494.25 
	L 1460.9 -990.25 
	Z 
	"/>
</g>
<g fill="#7f7f7f" fill-rule="nonzero" stroke-width="0" stroke-linejoin="miter" stroke-linecap="butt" stroke-miterlimit="4" >
	<path d="
	M 1799.44 -990.25 
	L 1644.14 -1328.02 
	L 1644.14 -990.25 
	L 1571.78 -990.25 
	L 1571.78 -1494.25 
	L 1644.14 -1494.25 
	L 1781.79 -1191.85 
	L 1781.79 -1494.25 
	L 1854.14 -1494.25 
	L 1854.14 -990.25 
	Z 
	"/>
</g>
<g fill="#7f7f7f" fill-rule="nonzero" stroke-width="0" stroke-linejoin="miter" stroke-linecap="butt" stroke-miterlimit="4" >
	<path d="
	M 1198.76 -252.25 
	L 1005.99 -593.55 
	L 1005.99 -252.25 
	L 926.402 -252.25 
	L 926.402 -756.25 
	L 1005.99 -756.25 
	L 1189.92 -434.39 
	L 1189.92 -756.25 
	L 1269.5 -756.25 
	L 1269.5 -252.25 
	Z 
	"/>
</g>
<g fill="#7f7f7f" fill-rule="nonzero" stroke-width="0" stroke-linejoin="miter" stroke-linecap="butt" stroke-miterlimit="4" >
	<path d="
	M 705.613 -644.84 
	C 689.66 -671.36 670.16 -681.97 640.023 -683.74 
	C 601.02 -685.51 576.203 -666.06 558.48 -621.85 
	C 546.066 -591.78 538.977 -545.81 538.977 -503.36 
	C 538.977 -450.31 549.613 -395.49 569.109 -363.66 
	C 585.07 -337.13 606.34 -324.75 638.25 -324.75 
	C 675.477 -324.75 698.523 -344.21 716.254 -388.41 
	C 726.891 -414.94 735.75 -464.46 735.75 -503.36 
	C 735.75 -559.95 725.113 -611.24 705.613 -644.84 
	Z 
	M 760.57 -300 
	C 732.203 -261.09 691.43 -243.4 638.25 -243.4 
	C 567.34 -243.4 523.02 -271.7 492.883 -333.59 
	C 471.613 -376.04 457.434 -443.24 457.434 -503.36 
	C 457.434 -586.48 478.703 -660.75 512.387 -708.5 
	C 542.523 -747.41 583.297 -765.09 641.797 -765.09 
	C 705.613 -765.09 749.934 -736.79 781.844 -674.9 
	C 803.113 -630.69 815.523 -567.03 815.523 -503.36 
	C 815.523 -423.78 796.023 -344.21 760.57 -300 
	Z 
	"/>
</g>
<g fill="#7f7f7f" fill-rule="nonzero" stroke-width="0" stroke-linejoin="miter" stroke-linecap="butt" stroke-miterlimit="4" >
	<path d="
	M 1390.46 -252.25 
	L 1390.46 -756.25 
	L 1687.17 -756.25 
	L 1687.17 -676.67 
	L 1469.93 -676.67 
	L 1469.93 -552.88 
	L 1616.53 -552.88 
	L 1616.53 -471.53 
	L 1469.93 -471.53 
	L 1469.93 -333.6 
	L 1703.07 -333.6 
	L 1703.07 -252.25 
	Z 
	"/>
</g>
<g fill="#7f7f7f" fill-rule="nonzero" stroke-width="0" stroke-linejoin="miter" stroke-linecap="butt" stroke-miterlimit="4" >
	<path d="
	M 768.734 485.75 
	L 697.781 485.75 
	L 617.949 162.129 
	L 539.895 485.75 
	L 468.938 485.75 
	L 394.434 -18.25 
	L 476.031 -18.25 
	L 515.059 247.02 
	L 578.922 -18.25 
	L 656.977 -18.25 
	L 722.613 247.02 
	L 761.641 -18.25 
	L 843.242 -18.25 
	Z 
	"/>
</g>
<g fill="#7f7f7f" fill-rule="nonzero" stroke-width="0" stroke-linejoin="miter" stroke-linecap="butt" stroke-miterlimit="4" >
	<path d="
	M 1590.1 266.469 
	L 1590.1 485.75 
	L 1510.12 485.75 
	L 1510.12 266.469 
	L 1332.38 -18.25 
	L 1428.36 -18.25 
	L 1549.22 176.281 
	L 1671.86 -18.25 
	L 1766.07 -18.25 
	Z 
	"/>
</g>
<g fill="#7f7f7f" fill-rule="nonzero" stroke-width="0" stroke-linejoin="miter" stroke-linecap="butt" stroke-miterlimit="4" >
	<path d="
	M 1088.7 121.461 
	L 1037.12 262.93 
	L 1138.5 262.93 
	Z 
	M 1216.76 485.75 
	L 1166.96 344.281 
	L 1008.66 344.281 
	L 958.859 485.75 
	L 873.48 485.75 
	L 1047.79 -18.25 
	L 1127.83 -18.25 
	L 1302.13 485.75 
	Z 
	"/>
</g>
</g >
</g>
</svg>
