<?xml version="1.0" standalone="no"?>
<svg width="4320px" height="1728px" viewBox="0 -936 4320 1728 " xmlns="http://www.w3.org/2000/svg" xmlns:xlink="http://www.w3.org/1999/xlink">
<title>generated by pstoedit</title>
<!-- generated by pstoedit version:4.02 -->
<g xml:space='preserve'>
<clipPath id="clippath1"> 	<path d="
	M 0 -936.5 
	L 0 792 
	L 4320.5 792 
	L 4320.5 -936.5 
	Z 
	" style="clip-rule:nonzero"/>
</clipPath>
<g style="clip-path:url(#clippath1)"> 
<g fill="#ffffff" fill-rule="nonzero" stroke-width="0" stroke-linejoin="miter" stroke-linecap="butt" stroke-miterlimit="10" >
	<path d="
	M 4320.25 683.75 
	C 4320.25 743.398 4271.9 791.75 4212.25 791.75 
	L 108.25 791.75 
	C 48.6016 791.75 0.25 743.398 0.25 683.75 
	L 0.25 -828.25 
	C 0.25 -887.89 48.6016 -936.25 108.25 -936.25 
	L 4212.25 -936.25 
	C 4271.9 -936.25 4320.25 -887.89 4320.25 -828.25 
	Z 
	"/>
</g>
<g stroke="#7f7f7f" fill="none" stroke-width="0.5" stroke-linejoin="miter" stroke-linecap="butt" stroke-miterlimit="4" >
	<path d="
	M 4320.25 683.75 
	C 4320.25 743.398 4271.9 791.75 4212.25 791.75 
	L 108.25 791.75 
	C 48.6016 791.75 0.25 743.398 0.25 683.75 
	L 0.25 -828.25 
	C 0.25 -887.89 48.6016 -936.25 108.25 -936.25 
	L 4212.25 -936.25 
	C 4271.9 -936.25 4320.25 -887.89 4320.25 -828.25 
	Z 
	"/>
</g>
<g fill="#7f7f7f" fill-rule="nonzero" stroke-width="0" stroke-linejoin="miter" stroke-linecap="butt" stroke-miterlimit="4" >
	<path d="
	M 616.75 670.25 
	L 72.25 670.25 
	L 616.75 -72.25 
	L 72.25 -814.75 
	L 616.75 -814.75 
	L 1161.25 -72.25 
	Z 
	"/>
</g>
<g fill="#7f7f7f" fill-rule="nonzero" stroke-width="0" stroke-linejoin="miter" stroke-linecap="butt" stroke-miterlimit="4" >
	<path d="
	M 1651.75 670.25 
	L 1107.25 670.25 
	L 1651.75 -72.25 
	L 1107.25 -814.75 
	L 1651.75 -814.75 
	L 2196.25 -72.25 
	Z 
	"/>
</g>
<g fill="#7f7f7f" fill-rule="nonzero" stroke-width="0" stroke-linejoin="miter" stroke-linecap="butt" stroke-miterlimit="4" >
	<path d="
	M 2686.75 670.25 
	L 2142.25 670.25 
	L 2686.75 -72.25 
	L 2142.25 -814.75 
	L 2686.75 -814.75 
	L 3231.25 -72.25 
	Z 
	"/>
</g>
<g fill="#7f7f7f" fill-rule="nonzero" stroke-width="0" stroke-linejoin="miter" stroke-linecap="butt" stroke-miterlimit="4" >
	<path d="
	M 3721.75 670.25 
	L 3177.25 670.25 
	L 3721.75 -72.25 
	L 3177.25 -814.75 
	L 3721.75 -814.75 
	L 4266.25 -72.25 
	Z 
	"/>
</g>
</g >
</g>
</svg>
