<?xml version="1.0" standalone="no"?>
<svg width="2160px" height="2592px" viewBox="0 -1800 2160 2592 " xmlns="http://www.w3.org/2000/svg" xmlns:xlink="http://www.w3.org/1999/xlink">
<title>generated by pstoedit</title>
<!-- generated by pstoedit version:4.02 -->
<g xml:space='preserve'>
<clipPath id="clippath1"> 	<path d="
	M 0 -1800.5 
	L 0 792 
	L 2160.5 792 
	L 2160.5 -1800.5 
	Z 
	" style="clip-rule:nonzero"/>
</clipPath>
<g style="clip-path:url(#clippath1)"> 
<g fill="#ffffff" fill-rule="nonzero" stroke-width="0" stroke-linejoin="miter" stroke-linecap="butt" stroke-miterlimit="10" >
	<path d="
	M 2160.25 656.75 
	C 2160.25 731.309 2099.81 791.75 2025.25 791.75 
	L 135.25 791.75 
	C 60.6914 791.75 0.25 731.309 0.25 656.75 
	L 0.25 -1665.25 
	C 0.25 -1739.81 60.6914 -1800.25 135.25 -1800.25 
	L 2025.25 -1800.25 
	C 2099.81 -1800.25 2160.25 -1739.81 2160.25 -1665.25 
	Z 
	"/>
</g>
<g stroke="#7f7f7f" fill="none" stroke-width="0.5" stroke-linejoin="miter" stroke-linecap="butt" stroke-miterlimit="4" >
	<path d="
	M 2160.25 656.75 
	C 2160.25 731.309 2099.81 791.75 2025.25 791.75 
	L 135.25 791.75 
	C 60.6914 791.75 0.25 731.309 0.25 656.75 
	L 0.25 -1665.25 
	C 0.25 -1739.81 60.6914 -1800.25 135.25 -1800.25 
	L 2025.25 -1800.25 
	C 2099.81 -1800.25 2160.25 -1739.81 2160.25 -1665.25 
	Z 
	"/>
</g>
<g fill="#7f7f7f" fill-rule="nonzero" stroke-width="0" stroke-linejoin="miter" stroke-linecap="butt" stroke-miterlimit="4" >
	<path d="
	M 135.25 755.75 
	C 80.6602 755.75 36.25 711.34 36.25 656.75 
	L 36.25 -1665.25 
	C 36.25 -1719.84 80.6602 -1764.25 135.25 -1764.25 
	L 2025.25 -1764.25 
	C 2079.84 -1764.25 2124.25 -1719.84 2124.25 -1665.25 
	L 2124.25 656.75 
	C 2124.25 711.34 2079.84 755.75 2025.25 755.75 
	Z 
	"/>
</g>
<g fill="#ffffff" fill-rule="nonzero" stroke-width="0" stroke-linejoin="miter" stroke-linecap="butt" stroke-miterlimit="4" >
	<path d="
	M 135.25 701.75 
	C 110.438 701.75 90.25 681.559 90.25 656.75 
	L 90.25 -1665.25 
	C 90.25 -1690.06 110.438 -1710.25 135.25 -1710.25 
	L 2025.25 -1710.25 
	C 2050.06 -1710.25 2070.25 -1690.06 2070.25 -1665.25 
	L 2070.25 656.75 
	C 2070.25 681.559 2050.06 701.75 2025.25 701.75 
	Z 
	"/>
</g>
<g fill="#7f7f7f" fill-rule="nonzero" stroke-width="0" stroke-linejoin="miter" stroke-linecap="butt" stroke-miterlimit="4" >
	<path d="
	M 1198.76 -252.25 
	L 1005.99 -593.55 
	L 1005.99 -252.25 
	L 926.402 -252.25 
	L 926.402 -756.25 
	L 1005.99 -756.25 
	L 1189.92 -434.39 
	L 1189.92 -756.25 
	L 1269.5 -756.25 
	L 1269.5 -252.25 
	Z 
	"/>
</g>
<g fill="#7f7f7f" fill-rule="nonzero" stroke-width="0" stroke-linejoin="miter" stroke-linecap="butt" stroke-miterlimit="4" >
	<path d="
	M 705.613 -644.84 
	C 689.66 -671.36 670.16 -681.97 640.023 -683.74 
	C 601.02 -685.51 576.203 -666.06 558.48 -621.85 
	C 546.066 -591.78 538.977 -545.81 538.977 -503.36 
	C 538.977 -450.31 549.613 -395.49 569.109 -363.66 
	C 585.07 -337.13 606.34 -324.75 638.25 -324.75 
	C 675.477 -324.75 698.523 -344.21 716.254 -388.41 
	C 726.891 -414.94 735.75 -464.46 735.75 -503.36 
	C 735.75 -559.95 725.113 -611.24 705.613 -644.84 
	Z 
	M 760.57 -300 
	C 732.203 -261.09 691.43 -243.4 638.25 -243.4 
	C 567.34 -243.4 523.02 -271.7 492.883 -333.59 
	C 471.613 -376.04 457.434 -443.24 457.434 -503.36 
	C 457.434 -586.48 478.703 -660.75 512.387 -708.5 
	C 542.523 -747.41 583.297 -765.09 641.797 -765.09 
	C 705.613 -765.09 749.934 -736.79 781.844 -674.9 
	C 803.113 -630.69 815.523 -567.03 815.523 -503.36 
	C 815.523 -423.78 796.023 -344.21 760.57 -300 
	Z 
	"/>
</g>
<g fill="#7f7f7f" fill-rule="nonzero" stroke-width="0" stroke-linejoin="miter" stroke-linecap="butt" stroke-miterlimit="4" >
	<path d="
	M 1390.46 -252.25 
	L 1390.46 -756.25 
	L 1687.17 -756.25 
	L 1687.17 -676.67 
	L 1469.93 -676.67 
	L 1469.93 -552.88 
	L 1616.53 -552.88 
	L 1616.53 -471.53 
	L 1469.93 -471.53 
	L 1469.93 -333.6 
	L 1703.07 -333.6 
	L 1703.07 -252.25 
	Z 
	"/>
</g>
<g fill="#7f7f7f" fill-rule="nonzero" stroke-width="0" stroke-linejoin="miter" stroke-linecap="butt" stroke-miterlimit="4" >
	<path d="
	M 768.734 485.75 
	L 697.781 485.75 
	L 617.949 162.129 
	L 539.895 485.75 
	L 468.938 485.75 
	L 394.434 -18.25 
	L 476.031 -18.25 
	L 515.059 247.02 
	L 578.922 -18.25 
	L 656.977 -18.25 
	L 722.613 247.02 
	L 761.641 -18.25 
	L 843.242 -18.25 
	Z 
	"/>
</g>
<g fill="#7f7f7f" fill-rule="nonzero" stroke-width="0" stroke-linejoin="miter" stroke-linecap="butt" stroke-miterlimit="4" >
	<path d="
	M 1590.1 266.469 
	L 1590.1 485.75 
	L 1510.12 485.75 
	L 1510.12 266.469 
	L 1332.38 -18.25 
	L 1428.36 -18.25 
	L 1549.22 176.281 
	L 1671.86 -18.25 
	L 1766.07 -18.25 
	Z 
	"/>
</g>
<g fill="#7f7f7f" fill-rule="nonzero" stroke-width="0" stroke-linejoin="miter" stroke-linecap="butt" stroke-miterlimit="4" >
	<path d="
	M 1088.7 121.461 
	L 1037.12 262.93 
	L 1138.5 262.93 
	Z 
	M 1216.76 485.75 
	L 1166.96 344.281 
	L 1008.66 344.281 
	L 958.859 485.75 
	L 873.48 485.75 
	L 1047.79 -18.25 
	L 1127.83 -18.25 
	L 1302.13 485.75 
	Z 
	"/>
</g>
<g fill="#7f7f7f" fill-rule="nonzero" stroke-width="0" stroke-linejoin="miter" stroke-linecap="butt" stroke-miterlimit="4" >
	<path d="
	M 1148.17 -990.25 
	L 955.398 -1331.55 
	L 955.398 -990.25 
	L 875.816 -990.25 
	L 875.816 -1494.25 
	L 955.398 -1494.25 
	L 1139.33 -1172.39 
	L 1139.33 -1494.25 
	L 1218.91 -1494.25 
	L 1218.91 -990.25 
	Z 
	"/>
</g>
<g fill="#7f7f7f" fill-rule="nonzero" stroke-width="0" stroke-linejoin="miter" stroke-linecap="butt" stroke-miterlimit="4" >
	<path d="
	M 1560.94 -1393.45 
	C 1548.56 -1405.83 1530.88 -1414.67 1509.65 -1414.67 
	L 1419.46 -1414.67 
	L 1419.46 -1071.6 
	L 1499.04 -1071.6 
	C 1525.58 -1071.6 1541.49 -1076.9 1555.64 -1091.05 
	C 1585.7 -1121.11 1601.62 -1175.94 1601.62 -1243.14 
	C 1601.62 -1310.33 1585.7 -1366.93 1560.94 -1393.45 
	Z 
	M 1594.55 -1018.54 
	C 1575.09 -1000.86 1548.56 -992.02 1522.04 -990.25 
	C 1516.73 -990.25 1506.12 -990.25 1493.74 -990.25 
	L 1339.88 -990.25 
	L 1339.88 -1494.25 
	L 1502.58 -1494.25 
	C 1553.87 -1494.25 1573.32 -1488.95 1599.85 -1467.72 
	C 1652.91 -1421.75 1682.97 -1342.16 1682.97 -1243.14 
	C 1682.97 -1142.33 1651.14 -1062.75 1594.55 -1018.54 
	Z 
	"/>
</g>
<g fill="#7f7f7f" fill-rule="nonzero" stroke-width="0" stroke-linejoin="miter" stroke-linecap="butt" stroke-miterlimit="4" >
	<path d="
	M 477.527 -990.25 
	L 477.527 -1494.25 
	L 774.238 -1494.25 
	L 774.238 -1414.67 
	L 557.004 -1414.67 
	L 557.004 -1290.88 
	L 703.594 -1290.88 
	L 703.594 -1209.53 
	L 557.004 -1209.53 
	L 557.004 -1071.6 
	L 790.137 -1071.6 
	L 790.137 -990.25 
	Z 
	"/>
</g>
</g >
</g>
</svg>
