<?xml version="1.0" encoding="UTF-8" standalone="no"?>
<!-- Created with Inkscape (http://www.inkscape.org/) -->

<svg
   version="1.1"
   id="svg1"
   width="2880.6667"
   height="3456.6667"
   viewBox="0 0 2880.6667 3456.6667"
   sodipodi:docname="tmpgt1m93jj.pdf"
   xmlns:inkscape="http://www.inkscape.org/namespaces/inkscape"
   xmlns:sodipodi="http://sodipodi.sourceforge.net/DTD/sodipodi-0.dtd"
   xmlns="http://www.w3.org/2000/svg"
   xmlns:svg="http://www.w3.org/2000/svg">
  <defs
     id="defs1" />
  <sodipodi:namedview
     id="namedview1"
     pagecolor="#ffffff"
     bordercolor="#000000"
     borderopacity="0.25"
     inkscape:showpageshadow="2"
     inkscape:pageopacity="0.0"
     inkscape:pagecheckerboard="0"
     inkscape:deskcolor="#d1d1d1">
    <inkscape:page
       x="0"
       y="0"
       inkscape:label="1"
       id="page1"
       width="2880.6667"
       height="3456.6667"
       margin="0"
       bleed="0" />
  </sodipodi:namedview>
  <g
     id="g1"
     inkscape:groupmode="layer"
     inkscape:label="1">
    <g
       id="group-R5">
      <path
         id="path2"
         d="m 21602.5,1352.5 c 0,-745.602 -604.4,-1350 -1350,-1350 H 1352.5 C 606.914,2.5 2.5,606.898 2.5,1352.5 v 23220 c 0,745.6 604.414,1350 1350,1350 h 18900 c 745.6,0 1350,-604.4 1350,-1350 v -23220"
         style="fill:#ffffff;fill-opacity:1;fill-rule:nonzero;stroke:none"
         transform="matrix(0.13333333,0,0,-0.13333333,0,3456.6667)" />
      <path
         id="path3"
         d="m 21602.5,1352.5 c 0,-745.602 -604.4,-1350 -1350,-1350 H 1352.5 C 606.914,2.5 2.5,606.898 2.5,1352.5 v 23220 c 0,745.6 604.414,1350 1350,1350 h 18900 c 745.6,0 1350,-604.4 1350,-1350 z"
         style="fill:none;stroke:#231f20;stroke-width:5;stroke-linecap:butt;stroke-linejoin:miter;stroke-miterlimit:4;stroke-dasharray:none;stroke-opacity:1"
         transform="matrix(0.13333333,0,0,-0.13333333,0,3456.6667)" />
      <path
         id="path4"
         d="m 1352.5,362.5 c -545.891,0 -990,444.102 -990,990 v 23220 c 0,545.9 444.109,990 990,990 h 18900 c 545.9,0 990,-444.1 990,-990 v -23220 c 0,-545.898 -444.1,-990 -990,-990 h -18900"
         style="fill:#231f20;fill-opacity:1;fill-rule:nonzero;stroke:none"
         transform="matrix(0.13333333,0,0,-0.13333333,0,3456.6667)" />
      <path
         id="path5"
         d="m 1352.5,902.5 c -248.13,0 -450,201.9 -450,450 v 23220 c 0,248.1 201.87,450 450,450 h 18900 c 248.1,0 450,-201.9 450,-450 v -23220 c 0,-248.1 -201.9,-450 -450,-450 h -18900"
         style="fill:#ffffff;fill-opacity:1;fill-rule:nonzero;stroke:none"
         transform="matrix(0.13333333,0,0,-0.13333333,0,3456.6667)" />
      <path
         id="path6"
         d="m 4510.69,20103.8 h -723.56 v -1573.9 h 723.56 c 405.91,0 670.63,282.9 670.63,725 0,477.5 -300.02,848.9 -670.63,848.9 z m 35.31,2051.3 h -758.87 v -1344 H 4546 c 335.3,0 547.08,283 547.08,742.8 0,424.4 -158.83,601.2 -547.08,601.2 z m 0,-4332.6 H 3063.57 v 5040 h 1588.31 c 670.62,0 1147.1,-530.5 1147.1,-1308.6 0,-459.8 -123.52,-672 -529.42,-1096.5 388.25,-318.3 617.68,-742.7 617.68,-1255.5 0,-760.5 -600.04,-1379.4 -1341.24,-1379.4"
         style="fill:#231f20;fill-opacity:1;fill-rule:nonzero;stroke:none"
         transform="matrix(0.13333333,0,0,-0.13333333,0,3456.6667)" />
      <path
         id="path7"
         d="m 6744.05,17822.5 v 5040 h 2376.56 v -707.4 H 7471.19 V 20881.9 H 8517.6 v -689.7 H 7471.19 v -1662.3 h 1844.5 v -707.4 H 6744.05"
         style="fill:#231f20;fill-opacity:1;fill-rule:nonzero;stroke:none"
         transform="matrix(0.13333333,0,0,-0.13333333,0,3456.6667)" />
      <path
         id="path8"
         d="m 12753.3,18441.4 c -195.3,-442.1 -603.8,-707.3 -1118.8,-707.3 -603.8,0 -1047.8,300.6 -1296.4,866.5 -159.8,371.4 -266.4,1078.8 -266.4,1733.1 0,707.3 53.3,1220.2 230.9,1697.6 177.6,530.6 692.6,919.6 1278.6,919.6 728.1,0 1278.7,-530.5 1314.2,-1273.2 h -728.2 c -17.7,336 -248.6,565.9 -603.7,565.9 -248.7,0 -444,-123.8 -568.3,-371.4 -142.1,-247.6 -230.9,-813.5 -230.9,-1414.8 0,-424.4 35.5,-866.5 106.5,-1255.5 106.6,-495.2 355.2,-760.5 745.9,-760.5 373,0 550.5,247.6 550.5,778.2 v 335.9 H 11599 v 707.4 h 1296.4 v -1043.3 c 0,-353.7 -35.5,-566 -142.1,-778.2"
         style="fill:#231f20;fill-opacity:1;fill-rule:nonzero;stroke:none"
         transform="matrix(0.13333333,0,0,-0.13333333,0,3456.6667)" />
      <path
         id="path9"
         d="m 13903.4,17822.5 v 5040 h 705.6 v -5040 h -705.6"
         style="fill:#231f20;fill-opacity:1;fill-rule:nonzero;stroke:none"
         transform="matrix(0.13333333,0,0,-0.13333333,0,3456.6667)" />
      <path
         id="path10"
         d="m 17994.4,17822.5 -1553,3377.7 v -3377.7 h -723.6 v 5040 h 723.6 l 1376.5,-3024 v 3024 h 723.5 v -5040 h -547"
         style="fill:#231f20;fill-opacity:1;fill-rule:nonzero;stroke:none"
         transform="matrix(0.13333333,0,0,-0.13333333,0,3456.6667)" />
      <path
         id="path11"
         d="m 11987.6,10442.5 -1927.7,3413 v -3413 h -795.88 v 5040 h 795.88 l 1839.3,-3218.6 v 3218.6 h 795.8 v -5040 h -707.4"
         style="fill:#231f20;fill-opacity:1;fill-rule:nonzero;stroke:none"
         transform="matrix(0.13333333,0,0,-0.13333333,0,3456.6667)" />
      <path
         id="path12"
         d="m 7056.15,14368.4 c -159.54,265.2 -354.55,371.3 -655.91,389 -390.03,17.7 -638.19,-176.8 -815.45,-618.9 -124.12,-300.7 -195.01,-760.4 -195.01,-1184.9 0,-530.5 106.35,-1078.7 301.33,-1397 159.6,-265.3 372.29,-389.1 691.39,-389.1 372.28,0 602.72,194.6 780.02,636.6 106.37,265.3 194.98,760.5 194.98,1149.5 0,565.9 -106.36,1078.8 -301.35,1414.8 z M 7605.7,10920 c -283.67,-389.1 -691.39,-566 -1223.2,-566 -709.09,0 -1152.29,283 -1453.67,901.9 -212.68,424.5 -354.5,1096.5 -354.5,1697.7 0,831.2 212.71,1573.9 549.53,2051.4 301.38,389.1 709.09,565.9 1294.09,565.9 638.2,0 1081.38,-283 1400.48,-901.9 212.69,-442.1 336.8,-1078.7 336.8,-1715.4 0,-795.8 -195,-1591.5 -549.53,-2033.6"
         style="fill:#231f20;fill-opacity:1;fill-rule:nonzero;stroke:none"
         transform="matrix(0.13333333,0,0,-0.13333333,0,3456.6667)" />
      <path
         id="path13"
         d="m 13904.6,10442.5 v 5040 h 2967.1 v -795.8 h -2172.4 v -1237.9 h 1466 v -813.5 h -1466 V 11256 h 2331.4 v -813.5 h -3126.1"
         style="fill:#231f20;fill-opacity:1;fill-rule:nonzero;stroke:none"
         transform="matrix(0.13333333,0,0,-0.13333333,0,3456.6667)" />
      <path
         id="path14"
         d="M 7687.34,3062.5 H 6977.8 L 6179.5,6298.7 5398.95,3062.5 h -709.57 l -745.05,5040 h 816 l 390.27,-2652.7 638.61,2652.7 h 780.57 l 656.34,-2652.7 390.3,2652.7 h 816 l -745.08,-5040"
         style="fill:#231f20;fill-opacity:1;fill-rule:nonzero;stroke:none"
         transform="matrix(0.13333333,0,0,-0.13333333,0,3456.6667)" />
      <path
         id="path15"
         d="M 15901,5255.3 V 3062.5 h -799.8 v 2192.8 l -1777.4,2847.2 h 959.8 l 1208.6,-1945.3 1226.4,1945.3 h 942.1 L 15901,5255.3"
         style="fill:#231f20;fill-opacity:1;fill-rule:nonzero;stroke:none"
         transform="matrix(0.13333333,0,0,-0.13333333,0,3456.6667)" />
      <path
         id="path16"
         d="M 10887,6705.4 10371.2,5290.7 H 11385 Z m 1280.6,-3642.9 -498,1414.7 h -1583 L 9588.58,3062.5 h -853.76 l 1743.08,5040 h 800.4 l 1743,-5040 h -853.7"
         style="fill:#231f20;fill-opacity:1;fill-rule:nonzero;stroke:none"
         transform="matrix(0.13333333,0,0,-0.13333333,0,3456.6667)" />
    </g>
  </g>
</svg>
