<?xml version="1.0" encoding="UTF-8" standalone="no"?>
<!-- Created with Inkscape (http://www.inkscape.org/) -->

<svg
   version="1.1"
   id="svg1"
   width="1152.6667"
   height="864.66669"
   viewBox="0 0 1152.6667 864.66669"
   sodipodi:docname="tmp0x3bzy7e.pdf"
   xmlns:inkscape="http://www.inkscape.org/namespaces/inkscape"
   xmlns:sodipodi="http://sodipodi.sourceforge.net/DTD/sodipodi-0.dtd"
   xmlns="http://www.w3.org/2000/svg"
   xmlns:svg="http://www.w3.org/2000/svg">
  <defs
     id="defs1" />
  <sodipodi:namedview
     id="namedview1"
     pagecolor="#ffffff"
     bordercolor="#000000"
     borderopacity="0.25"
     inkscape:showpageshadow="2"
     inkscape:pageopacity="0.0"
     inkscape:pagecheckerboard="0"
     inkscape:deskcolor="#d1d1d1">
    <inkscape:page
       x="0"
       y="0"
       inkscape:label="1"
       id="page1"
       width="1152.6667"
       height="864.66669"
       margin="0"
       bleed="0" />
  </sodipodi:namedview>
  <g
     id="g1"
     inkscape:groupmode="layer"
     inkscape:label="1">
    <g
       id="group-R5">
      <path
         id="path2"
         d="m 8642.5,1082.5 c 0,-596.461 -483.54,-1080 -1080,-1080 h -6480 C 486.035,2.5 2.5,486.039 2.5,1082.5 v 4320 c 0,596.46 483.535,1080 1080,1080 h 6480 c 596.46,0 1080,-483.54 1080,-1080 v -4320"
         style="fill:#ffffff;fill-opacity:1;fill-rule:nonzero;stroke:none"
         transform="matrix(0.13333333,0,0,-0.13333333,0,864.66667)" />
      <path
         id="path3"
         d="m 8642.5,1082.5 c 0,-596.461 -483.54,-1080 -1080,-1080 h -6480 C 486.035,2.5 2.5,486.039 2.5,1082.5 v 4320 c 0,596.46 483.535,1080 1080,1080 h 6480 c 596.46,0 1080,-483.54 1080,-1080 z"
         style="fill:none;stroke:#231f20;stroke-width:5;stroke-linecap:butt;stroke-linejoin:miter;stroke-miterlimit:4;stroke-dasharray:none;stroke-opacity:1"
         transform="matrix(0.13333333,0,0,-0.13333333,0,864.66667)" />
      <path
         id="path4"
         d="m 8102.5,1082.5 c 0,-297.75 -242.25,-540 -540,-540 h -6480 c -297.758,0 -540,242.25 -540,540 v 4320 c 0,297.76 242.242,540 540,540 h 6480 c 297.75,0 540,-242.24 540,-540 z m -540,5130 h -6480 c -446.637,0 -810,-363.36 -810,-810 v -4320 c 0,-446.641 363.363,-810 810,-810 h 6480 c 446.64,0 810,363.359 810,810 v 4320 c 0,446.64 -363.36,810 -810,810"
         style="fill:#bf2519;fill-opacity:1;fill-rule:nonzero;stroke:none"
         transform="matrix(0.13333333,0,0,-0.13333333,0,864.66667)" />
      <path
         id="path5"
         d="m 3648.96,5080.4 -75.98,-310.74 h 155.77 z m 193.76,-757.9 -75.98,295.58 H 3534.99 L 3462.8,4322.5 h -155.77 l 269.75,1080 h 151.97 l 269.75,-1080 h -155.78"
         style="fill:#bf2519;fill-opacity:1;fill-rule:nonzero;stroke:none"
         transform="matrix(0.13333333,0,0,-0.13333333,0,864.66667)" />
      <path
         id="path6"
         d="m 4573.25,5141.03 c -26.47,75.79 -71.84,109.9 -139.92,109.9 h -128.57 v -776.85 h 128.57 c 90.76,0 139.92,72 155.05,155.37 7.56,68.22 15.13,144 15.13,227.37 0,121.26 -11.35,238.74 -30.26,284.21 z m 26.48,-769.26 c -37.83,-34.11 -90.77,-49.27 -151.27,-49.27 H 4149.7 v 1080 h 276.06 c 90.76,0 136.14,-11.37 173.97,-41.68 64.28,-45.47 109.66,-128.84 128.57,-238.74 15.13,-79.58 26.47,-174.31 26.47,-257.68 0,-250.11 -49.16,-409.27 -155.04,-492.63"
         style="fill:#bf2519;fill-opacity:1;fill-rule:nonzero;stroke:none"
         transform="matrix(0.13333333,0,0,-0.13333333,0,864.66667)" />
      <path
         id="path7"
         d="m 6755.27,4455.13 c -41.85,-94.73 -129.38,-151.58 -239.74,-151.58 -129.39,0 -224.52,64.43 -277.8,185.69 -34.24,79.58 -57.09,231.16 -57.09,371.37 0,151.58 11.43,261.47 49.48,363.79 38.05,113.69 148.42,197.05 273.99,197.05 156.03,0 274,-113.68 281.6,-272.84 H 6629.7 c -3.81,72 -53.28,121.26 -129.4,121.26 -53.27,0 -95.12,-26.52 -121.76,-79.58 -30.44,-53.05 -49.48,-174.31 -49.48,-303.16 0,-90.94 7.62,-185.68 22.83,-269.05 22.84,-106.1 76.11,-162.95 159.83,-162.95 79.92,0 117.98,53.05 117.98,166.74 v 72 h -121.78 v 151.58 h 277.79 v -223.58 c 0,-75.79 -7.6,-121.26 -30.44,-166.74"
         style="fill:#bf2519;fill-opacity:1;fill-rule:nonzero;stroke:none"
         transform="matrix(0.13333333,0,0,-0.13333333,0,864.66667)" />
      <path
         id="path8"
         d="m 4970.77,4322.5 v 1080 h 151.2 v -1080 h -151.2"
         style="fill:#bf2519;fill-opacity:1;fill-rule:nonzero;stroke:none"
         transform="matrix(0.13333333,0,0,-0.13333333,0,864.66667)" />
      <path
         id="path9"
         d="m 1859.29,4322.5 v 1080 h 155.82 v -936.01 h 395.25 V 4322.5 h -551.07"
         style="fill:#bf2519;fill-opacity:1;fill-rule:nonzero;stroke:none"
         transform="matrix(0.13333333,0,0,-0.13333333,0,864.66667)" />
      <path
         id="path10"
         d="m 5847.41,4322.5 -332.78,723.79 V 4322.5 h -155.06 v 1080 h 155.06 l 294.96,-648 v 648 h 155.05 v -1080 h -117.23"
         style="fill:#bf2519;fill-opacity:1;fill-rule:nonzero;stroke:none"
         transform="matrix(0.13333333,0,0,-0.13333333,0,864.66667)" />
      <path
         id="path11"
         d="m 2994.2,5133.45 c -26.72,94.74 -68.7,136.42 -133.59,136.42 -68.72,0 -110.7,-41.68 -137.42,-132.63 -26.73,-83.37 -34.36,-155.37 -34.36,-276.63 0,-117.48 11.45,-185.68 34.36,-272.84 26.72,-90.95 68.7,-132.64 137.42,-132.64 64.89,0 106.87,41.69 133.59,132.64 26.72,87.16 34.35,151.58 34.35,276.62 0,121.27 -11.44,189.48 -34.35,269.06 z m 122.16,-644.21 c -53.44,-128.84 -133.62,-185.69 -255.75,-185.69 -129.79,0 -206.14,56.85 -259.57,185.69 -45.81,106.1 -61.09,208.42 -61.09,375.15 0,162.95 15.28,272.85 61.09,375.17 57.26,128.84 133.59,181.9 259.57,181.9 125.96,0 202.31,-53.06 255.75,-185.69 45.8,-106.11 61.06,-208.43 61.06,-371.38 0,-166.73 -15.26,-272.84 -61.06,-375.15"
         style="fill:#bf2519;fill-opacity:1;fill-rule:nonzero;stroke:none"
         transform="matrix(0.13333333,0,0,-0.13333333,0,864.66667)" />
      <path
         id="path12"
         d="m 5278.57,2432.5 v 1080 h 509.26 v -151.57 h -353.44 v -272.84 h 224.23 v -147.8 h -224.23 v -356.22 h 395.25 V 2432.5 h -551.07"
         style="fill:#bf2519;fill-opacity:1;fill-rule:nonzero;stroke:none"
         transform="matrix(0.13333333,0,0,-0.13333333,0,864.66667)" />
      <path
         id="path13"
         d="m 4923.73,2432.5 -332.78,723.79 V 2432.5 H 4435.9 v 1080 h 155.05 l 294.97,-648 v 648 h 155.04 v -1080 h -117.23"
         style="fill:#bf2519;fill-opacity:1;fill-rule:nonzero;stroke:none"
         transform="matrix(0.13333333,0,0,-0.13333333,0,864.66667)" />
      <path
         id="path14"
         d="m 4036.67,3243.45 c -26.72,94.74 -68.71,136.42 -133.6,136.42 -68.7,0 -110.7,-41.68 -137.42,-132.63 -26.72,-83.36 -34.35,-155.37 -34.35,-276.63 0,-117.48 11.45,-185.69 34.35,-272.85 26.72,-90.94 68.72,-132.62 137.42,-132.62 64.89,0 106.88,41.68 133.6,132.62 26.72,87.16 34.36,151.59 34.36,276.64 0,121.25 -11.45,189.48 -34.36,269.05 z m 122.15,-644.21 c -53.44,-128.84 -133.61,-185.69 -255.75,-185.69 -129.78,0 -206.13,56.85 -259.57,185.69 -45.8,106.1 -61.08,208.42 -61.08,375.16 0,162.95 15.28,272.84 61.08,375.16 57.26,128.83 133.6,181.9 259.57,181.9 125.97,0 202.31,-53.07 255.75,-185.69 45.81,-106.11 61.07,-208.42 61.07,-371.37 0,-166.74 -15.26,-272.85 -61.07,-375.16"
         style="fill:#bf2519;fill-opacity:1;fill-rule:nonzero;stroke:none"
         transform="matrix(0.13333333,0,0,-0.13333333,0,864.66667)" />
      <path
         id="path15"
         d="m 2815.36,2432.5 v 166.15 l 408.52,762.79 h -366.12 v 151.05 h 562.67 v -98.18 l -443.2,-834.53 h 443.2 V 2432.5 h -605.07"
         style="fill:#bf2519;fill-opacity:1;fill-rule:nonzero;stroke:none"
         transform="matrix(0.13333333,0,0,-0.13333333,0,864.66667)" />
      <path
         id="path16"
         d="m 6074.44,2145.15 c -45.71,31.12 -108.4,19.22 -139.48,-26.55 -20.76,-30.54 -17.03,-62.21 -7.46,-99.83 l 92.04,-306.28 H 2625.46 l 92.04,306.28 c 9.57,37.62 13.31,69.29 -7.46,99.83 -31.07,45.77 -93.77,57.67 -139.48,26.55 L 1532.5,1441.92 2570.56,739.82 c 45.71,-31.078 108.41,-19.211 139.48,26.559 21.68,31.973 16.88,62.641 5.32,104.09 l -90.11,302.021 h 3394.5 l -90.1,-302.021 c -11.56,-41.449 -16.37,-72.117 5.31,-104.09 31.08,-45.77 93.77,-57.637 139.48,-26.559 l 1038.06,702.1 -1038.06,703.23"
         style="fill:#bf2519;fill-opacity:1;fill-rule:evenodd;stroke:none"
         transform="matrix(0.13333333,0,0,-0.13333333,0,864.66667)" />
    </g>
  </g>
</svg>
