<?xml version="1.0" encoding="UTF-8" standalone="no"?>
<!-- Created with Inkscape (http://www.inkscape.org/) -->

<svg
   version="1.1"
   id="svg1"
   width="2304.6667"
   height="1728.6667"
   viewBox="0 0 2304.6667 1728.6667"
   sodipodi:docname="tmpvudfsvzp.pdf"
   xmlns:inkscape="http://www.inkscape.org/namespaces/inkscape"
   xmlns:sodipodi="http://sodipodi.sourceforge.net/DTD/sodipodi-0.dtd"
   xmlns="http://www.w3.org/2000/svg"
   xmlns:svg="http://www.w3.org/2000/svg">
  <defs
     id="defs1" />
  <sodipodi:namedview
     id="namedview1"
     pagecolor="#ffffff"
     bordercolor="#000000"
     borderopacity="0.25"
     inkscape:showpageshadow="2"
     inkscape:pageopacity="0.0"
     inkscape:pagecheckerboard="0"
     inkscape:deskcolor="#d1d1d1">
    <inkscape:page
       x="0"
       y="0"
       inkscape:label="1"
       id="page1"
       width="2304.6667"
       height="1728.6667"
       margin="0"
       bleed="0" />
  </sodipodi:namedview>
  <g
     id="g1"
     inkscape:groupmode="layer"
     inkscape:label="1">
    <g
       id="group-R5">
      <path
         id="path2"
         d="M 17282.5,1082.5 C 17282.5,486 16799,2.5 16202.5,2.5 H 1082.5 C 486.031,2.5 2.5,486 2.5,1082.5 v 10800 c 0,596.5 483.531,1080 1080,1080 h 15120 c 596.5,0 1080,-483.5 1080,-1080 v -10800"
         style="fill:#ffffff;fill-opacity:1;fill-rule:nonzero;stroke:none"
         transform="matrix(0.13333333,0,0,-0.13333333,0,1728.6667)" />
      <path
         id="path3"
         d="M 17282.5,1082.5 C 17282.5,486 16799,2.5 16202.5,2.5 H 1082.5 C 486.031,2.5 2.5,486 2.5,1082.5 v 10800 c 0,596.5 483.531,1080 1080,1080 h 15120 c 596.5,0 1080,-483.5 1080,-1080 z"
         style="fill:none;stroke:#231f20;stroke-width:5;stroke-linecap:butt;stroke-linejoin:miter;stroke-miterlimit:4;stroke-dasharray:none;stroke-opacity:1"
         transform="matrix(0.13333333,0,0,-0.13333333,0,1728.6667)" />
      <path
         id="path4"
         d="m 16562.5,1082.5 c 0,-198.5 -161.5,-360 -360,-360 h -15120 c -198.508,0 -360,161.5 -360,360 v 10800 c 0,198.5 161.492,360 360,360 h 15120 c 198.5,0 360,-161.5 360,-360 z m -360,11610 h -15120 c -446.637,0 -810,-363.4 -810,-810 v -10800 c 0,-446.602 363.363,-810 810,-810 h 15120 c 446.6,0 810,363.398 810,810 v 10800 c 0,446.6 -363.4,810 -810,810"
         style="fill:#bf2519;fill-opacity:1;fill-rule:nonzero;stroke:none"
         transform="matrix(0.13333333,0,0,-0.13333333,0,1728.6667)" />
      <path
         id="path5"
         d="M 14222.5,3512.48 H 5248.44 l 184.08,612.56 c 19.12,75.23 26.6,138.57 -14.92,199.67 -62.15,91.54 -187.54,115.33 -278.99,53.08 L 3062.5,2971.35 5138.61,1567.1 c 91.45,-62.1 216.84,-38.4 278.99,53.2 43.36,63.9 33.75,125.2 10.62,208.1 l -180.21,604.1 h 8974.49 v 1079.98"
         style="fill:#bf2519;fill-opacity:1;fill-rule:evenodd;stroke:none"
         transform="matrix(0.13333333,0,0,-0.13333333,0,1728.6667)" />
      <path
         id="path6"
         d="m 11018.4,10158.3 -152,-621.48 h 311.5 z m 387.5,-1515.8 -152,591.16 h -463.5 l -144.3,-591.16 h -311.6 l 539.5,2160 h 303.9 l 539.6,-2160 h -311.6"
         style="fill:#bf2519;fill-opacity:1;fill-rule:nonzero;stroke:none"
         transform="matrix(0.13333333,0,0,-0.13333333,0,1728.6667)" />
      <path
         id="path7"
         d="M 13135.4,8642.5 V 9855.13 L 12733.2,8642.5 12331,9855.13 V 8642.5 h -311.2 v 2160 h 311.2 l 402.2,-1212.64 402.2,1212.64 h 311.1 v -2160 h -311.1"
         style="fill:#bf2519;fill-opacity:1;fill-rule:nonzero;stroke:none"
         transform="matrix(0.13333333,0,0,-0.13333333,0,1728.6667)" />
      <path
         id="path8"
         d="m 4439.75,9688.4 c -182.66,0 -304.44,-159.16 -304.44,-363.79 0,-242.52 121.78,-416.84 304.44,-416.84 182.67,0 304.43,159.16 304.43,386.53 0,227.36 -121.76,394.1 -304.43,394.1 z m 0,-1083.79 c -395.77,0 -601.27,288.01 -601.27,780.64 0,522.93 274,1068.65 745.88,1432.45 l 175.05,-242.6 c -182.67,-136.4 -380.54,-394.1 -456.68,-598.69 53.29,7.57 98.95,7.57 137.02,7.57 372.93,0 608.88,-280.43 608.88,-689.68 0,-409.26 -235.95,-689.69 -608.88,-689.69"
         style="fill:#bf2519;fill-opacity:1;fill-rule:nonzero;stroke:none"
         transform="matrix(0.13333333,0,0,-0.13333333,0,1728.6667)" />
      <path
         id="path9"
         d="m 6864.32,10264.4 c -53.44,189.5 -137.43,272.8 -267.21,272.8 -137.42,0 -221.41,-83.3 -274.84,-265.2 -53.44,-166.8 -68.72,-310.77 -68.72,-553.3 0,-234.95 22.91,-371.37 68.72,-545.67 53.43,-181.92 137.42,-265.28 274.84,-265.28 129.78,0 213.77,83.36 267.21,265.28 53.43,174.3 68.69,303.14 68.69,553.26 0,242.52 -22.89,378.91 -68.69,538.11 z m 244.29,-1288.44 c -106.89,-257.68 -267.2,-371.37 -511.5,-371.37 -259.57,0 -412.25,113.69 -519.14,371.37 -91.6,212.2 -122.15,416.84 -122.15,750.33 0,325.91 30.55,545.71 122.15,750.31 114.53,257.7 267.21,363.8 519.14,363.8 251.93,0 404.61,-106.1 511.5,-371.4 91.62,-212.2 122.15,-416.8 122.15,-742.71 0,-333.49 -30.53,-545.69 -122.15,-750.33"
         style="fill:#bf2519;fill-opacity:1;fill-rule:nonzero;stroke:none"
         transform="matrix(0.13333333,0,0,-0.13333333,0,1728.6667)" />
      <path
         id="path10"
         d="m 8528.05,10264.4 c -53.44,189.5 -137.42,272.8 -267.21,272.8 -137.42,0 -221.41,-83.3 -274.84,-265.2 -53.44,-166.8 -68.71,-310.77 -68.71,-553.3 0,-234.95 22.91,-371.37 68.71,-545.67 53.43,-181.92 137.42,-265.28 274.84,-265.28 129.79,0 213.77,83.36 267.21,265.28 53.43,174.3 68.69,303.14 68.69,553.26 0,242.52 -22.89,378.91 -68.69,538.11 z m 244.29,-1288.44 c -106.87,-257.68 -267.2,-371.37 -511.5,-371.37 -259.57,0 -412.25,113.69 -519.14,371.37 -91.6,212.2 -122.15,416.84 -122.15,750.33 0,325.91 30.55,545.71 122.15,750.31 114.53,257.7 267.21,363.8 519.14,363.8 251.93,0 404.63,-106.1 511.5,-371.4 91.64,-212.2 122.15,-416.8 122.15,-742.71 0,-333.49 -30.51,-545.69 -122.15,-750.33"
         style="fill:#bf2519;fill-opacity:1;fill-rule:nonzero;stroke:none"
         transform="matrix(0.13333333,0,0,-0.13333333,0,1728.6667)" />
      <path
         id="path11"
         d="m 13022,7079.35 h -317.7 v -613.88 h 317.7 c 181.5,0 279.8,113.67 279.8,310.72 0,181.9 -113.4,303.16 -279.8,303.16 z m 15.1,-909.47 h -332.8 V 5222.5 h -310.1 v 2160.01 h 642.9 c 340.4,0 567.3,-242.53 567.3,-606.32 0,-394.12 -204.2,-606.31 -567.3,-606.31"
         style="fill:#bf2519;fill-opacity:1;fill-rule:nonzero;stroke:none"
         transform="matrix(0.13333333,0,0,-0.13333333,0,1728.6667)" />
      <path
         id="path12"
         d="M 15151.9,5222.5 V 6435.14 L 14749.7,5222.5 14347.5,6435.14 V 5222.5 h -311.1 v 2160.01 h 311.1 l 402.2,-1212.63 402.2,1212.63 h 311.2 V 5222.5 h -311.2"
         style="fill:#bf2519;fill-opacity:1;fill-rule:nonzero;stroke:none"
         transform="matrix(0.13333333,0,0,-0.13333333,0,1728.6667)" />
      <path
         id="path13"
         d="m 6499.49,6268.4 c -182.65,0 -304.43,-159.14 -304.43,-363.79 0,-242.5 121.78,-416.84 304.43,-416.84 182.68,0 304.44,159.18 304.44,386.53 0,227.38 -121.76,394.1 -304.44,394.1 z m 0,-1083.79 c -395.76,0 -601.27,288.01 -601.27,780.66 0,522.93 274.01,1068.63 745.88,1432.42 l 175.06,-242.54 c -182.68,-136.43 -380.55,-394.11 -456.68,-598.74 53.28,7.57 98.95,7.57 137.01,7.57 372.93,0 608.89,-280.43 608.89,-689.68 0,-409.26 -235.96,-689.69 -608.89,-689.69"
         style="fill:#bf2519;fill-opacity:1;fill-rule:nonzero;stroke:none"
         transform="matrix(0.13333333,0,0,-0.13333333,0,1728.6667)" />
      <path
         id="path14"
         d="m 8924.06,6844.39 c -53.43,189.49 -137.42,272.85 -267.2,272.85 -137.43,0 -221.41,-83.36 -274.85,-265.26 -53.44,-166.75 -68.71,-310.73 -68.71,-553.27 0,-234.96 22.91,-371.37 68.71,-545.66 53.44,-181.92 137.42,-265.28 274.85,-265.28 129.78,0 213.77,83.36 267.2,265.28 53.44,174.29 68.69,303.12 68.69,553.24 0,242.54 -22.89,378.94 -68.69,538.1 z m 244.3,-1288.41 c -106.9,-257.7 -267.21,-371.37 -511.5,-371.37 -259.57,0 -412.25,113.67 -519.15,371.37 -91.6,212.18 -122.14,416.83 -122.14,750.31 0,325.9 30.54,545.69 122.14,750.32 114.54,257.69 267.21,363.79 519.15,363.79 251.93,0 404.6,-106.1 511.5,-371.37 91.62,-212.21 122.15,-416.84 122.15,-742.74 0,-333.48 -30.53,-545.68 -122.15,-750.31"
         style="fill:#bf2519;fill-opacity:1;fill-rule:nonzero;stroke:none"
         transform="matrix(0.13333333,0,0,-0.13333333,0,1728.6667)" />
      <path
         id="path15"
         d="m 10587.8,6844.39 c -53.4,189.49 -137.4,272.85 -267.2,272.85 -137.4,0 -221.4,-83.36 -274.9,-265.26 -53.4,-166.75 -68.67,-310.73 -68.67,-553.27 0,-234.96 22.91,-371.37 68.67,-545.66 53.5,-181.92 137.5,-265.28 274.9,-265.28 129.8,0 213.8,83.36 267.2,265.28 53.4,174.29 68.7,303.12 68.7,553.24 0,242.54 -22.9,378.94 -68.7,538.1 z m 244.3,-1288.41 c -106.9,-257.7 -267.2,-371.37 -511.5,-371.37 -259.6,0 -412.26,113.67 -519.15,371.37 -91.61,212.18 -122.15,416.83 -122.15,750.31 0,325.9 30.54,545.69 122.15,750.32 114.53,257.69 267.25,363.79 519.15,363.79 251.9,0 404.6,-106.1 511.5,-371.37 91.6,-212.21 122.1,-416.84 122.1,-742.74 0,-333.48 -30.5,-545.68 -122.1,-750.31"
         style="fill:#bf2519;fill-opacity:1;fill-rule:nonzero;stroke:none"
         transform="matrix(0.13333333,0,0,-0.13333333,0,1728.6667)" />
      <path
         id="path16"
         d="m 4091.76,6844.4 c -53.44,189.48 -137.42,272.85 -267.21,272.85 -137.42,0 -221.39,-83.37 -274.82,-265.27 -53.46,-166.75 -68.71,-310.73 -68.71,-553.27 0,-234.94 22.91,-371.37 68.71,-545.66 53.43,-181.92 137.4,-265.28 274.82,-265.28 129.79,0 213.77,83.36 267.21,265.28 53.45,174.29 68.71,303.14 68.71,553.24 0,242.54 -22.91,378.94 -68.71,538.11 z m 244.29,-1288.42 c -106.87,-257.7 -267.2,-371.37 -511.5,-371.37 -259.57,0 -412.25,113.67 -519.14,371.37 -91.6,212.22 -122.15,416.83 -122.15,750.31 0,325.9 30.55,545.69 122.15,750.32 114.53,257.69 267.23,363.79 519.14,363.79 251.95,0 404.63,-106.1 511.5,-371.37 91.63,-212.2 122.17,-416.84 122.17,-742.74 0,-333.48 -30.54,-545.67 -122.17,-750.31"
         style="fill:#bf2519;fill-opacity:1;fill-rule:nonzero;stroke:none"
         transform="matrix(0.13333333,0,0,-0.13333333,0,1728.6667)" />
      <path
         id="path17"
         d="M 2528.83,7094.51 V 5222.5 h -311.64 v 1872.01 h -395.26 v 288 h 1102.15 v -288 h -395.25"
         style="fill:#bf2519;fill-opacity:1;fill-rule:nonzero;stroke:none"
         transform="matrix(0.13333333,0,0,-0.13333333,0,1728.6667)" />
      <path
         id="path18"
         d="m 5506.07,9987.77 c -99.84,0 -176.63,75.83 -176.63,166.73 0,98.5 76.79,174.3 176.63,174.3 92.16,0 168.96,-75.8 168.96,-174.3 0,-90.9 -76.8,-166.73 -168.96,-166.73"
         style="fill:#bf2519;fill-opacity:1;fill-rule:nonzero;stroke:none"
         transform="matrix(0.13333333,0,0,-0.13333333,0,1728.6667)" />
      <path
         id="path19"
         d="m 5506.07,9116.19 c -99.84,0 -176.63,75.79 -176.63,174.31 0,90.94 76.79,174.32 176.63,174.32 92.16,0 168.96,-83.38 168.96,-174.32 0,-98.52 -76.8,-174.31 -168.96,-174.31"
         style="fill:#bf2519;fill-opacity:1;fill-rule:nonzero;stroke:none"
         transform="matrix(0.13333333,0,0,-0.13333333,0,1728.6667)" />
      <path
         id="path20"
         d="m 7565.82,6567.77 c -99.84,0 -176.63,75.79 -176.63,166.73 0,98.55 76.79,174.32 176.63,174.32 92.16,0 168.96,-75.77 168.96,-174.32 0,-90.94 -76.8,-166.73 -168.96,-166.73"
         style="fill:#bf2519;fill-opacity:1;fill-rule:nonzero;stroke:none"
         transform="matrix(0.13333333,0,0,-0.13333333,0,1728.6667)" />
      <path
         id="path21"
         d="m 7565.82,5696.19 c -99.84,0 -176.63,75.79 -176.63,174.32 0,90.94 76.79,174.31 176.63,174.31 92.16,0 168.96,-83.37 168.96,-174.31 0,-98.53 -76.8,-174.32 -168.96,-174.32"
         style="fill:#bf2519;fill-opacity:1;fill-rule:nonzero;stroke:none"
         transform="matrix(0.13333333,0,0,-0.13333333,0,1728.6667)" />
    </g>
  </g>
</svg>
