<?xml version="1.0" encoding="UTF-8" standalone="no"?>
<!-- Created with Inkscape (http://www.inkscape.org/) -->

<svg
   version="1.1"
   id="svg1"
   width="1152.6667"
   height="864.66669"
   viewBox="0 0 1152.6667 864.66669"
   sodipodi:docname="tmp6iw7itng.pdf"
   xmlns:inkscape="http://www.inkscape.org/namespaces/inkscape"
   xmlns:sodipodi="http://sodipodi.sourceforge.net/DTD/sodipodi-0.dtd"
   xmlns="http://www.w3.org/2000/svg"
   xmlns:svg="http://www.w3.org/2000/svg">
  <defs
     id="defs1" />
  <sodipodi:namedview
     id="namedview1"
     pagecolor="#ffffff"
     bordercolor="#000000"
     borderopacity="0.25"
     inkscape:showpageshadow="2"
     inkscape:pageopacity="0.0"
     inkscape:pagecheckerboard="0"
     inkscape:deskcolor="#d1d1d1">
    <inkscape:page
       x="0"
       y="0"
       inkscape:label="1"
       id="page1"
       width="1152.6667"
       height="864.66669"
       margin="0"
       bleed="0" />
  </sodipodi:namedview>
  <g
     id="g1"
     inkscape:groupmode="layer"
     inkscape:label="1">
    <g
       id="group-R5">
      <path
         id="path2"
         d="m 8642.5,1082.5 c 0,-596.461 -483.54,-1080 -1080,-1080 h -6480 C 486.035,2.5 2.5,486.039 2.5,1082.5 v 4320 c 0,596.46 483.535,1080 1080,1080 h 6480 c 596.46,0 1080,-483.54 1080,-1080 v -4320"
         style="fill:#ffffff;fill-opacity:1;fill-rule:nonzero;stroke:none"
         transform="matrix(0.13333333,0,0,-0.13333333,0,864.66667)" />
      <path
         id="path3"
         d="m 8642.5,1082.5 c 0,-596.461 -483.54,-1080 -1080,-1080 h -6480 C 486.035,2.5 2.5,486.039 2.5,1082.5 v 4320 c 0,596.46 483.535,1080 1080,1080 h 6480 c 596.46,0 1080,-483.54 1080,-1080 z"
         style="fill:none;stroke:#231f20;stroke-width:5;stroke-linecap:butt;stroke-linejoin:miter;stroke-miterlimit:4;stroke-dasharray:none;stroke-opacity:1"
         transform="matrix(0.13333333,0,0,-0.13333333,0,864.66667)" />
      <path
         id="path4"
         d="m 8102.5,1082.5 c 0,-297.75 -242.25,-540 -540,-540 h -6480 c -297.758,0 -540,242.25 -540,540 v 4320 c 0,297.76 242.242,540 540,540 h 6480 c 297.75,0 540,-242.24 540,-540 z m -540,5130 h -6480 c -446.637,0 -810,-363.36 -810,-810 v -4320 c 0,-446.641 363.363,-810 810,-810 h 6480 c 446.64,0 810,363.359 810,810 v 4320 c 0,446.64 -363.36,810 -810,810"
         style="fill:#bf2519;fill-opacity:1;fill-rule:nonzero;stroke:none"
         transform="matrix(0.13333333,0,0,-0.13333333,0,864.66667)" />
      <path
         id="path5"
         d="M 7112.5,1802.49 H 2625.47 l 92.04,306.28 c 9.56,37.62 13.3,69.29 -7.46,99.83 -31.08,45.77 -93.77,57.67 -139.49,26.55 L 1532.5,1531.92 2570.56,829.82 c 45.72,-31.078 108.41,-19.211 139.49,26.559 21.68,31.973 16.87,62.641 5.31,104.09 l -90.11,302.021 H 7112.5 v 540"
         style="fill:#bf2519;fill-opacity:1;fill-rule:evenodd;stroke:none"
         transform="matrix(0.13333333,0,0,-0.13333333,0,864.66667)" />
      <path
         id="path6"
         d="m 5510.43,5080.4 -75.98,-310.74 h 155.76 z m 193.77,-757.9 -75.98,295.58 H 5396.46 L 5324.28,4322.5 H 5168.5 l 269.74,1080 h 151.97 l 269.77,-1080 H 5704.2"
         style="fill:#bf2519;fill-opacity:1;fill-rule:nonzero;stroke:none"
         transform="matrix(0.13333333,0,0,-0.13333333,0,864.66667)" />
      <path
         id="path7"
         d="m 6568.95,4322.5 v 606.31 L 6367.83,4322.5 6166.74,4928.81 V 4322.5 h -155.57 v 1080 h 155.57 l 201.09,-606.32 201.12,606.32 h 155.56 v -1080 h -155.56"
         style="fill:#bf2519;fill-opacity:1;fill-rule:nonzero;stroke:none"
         transform="matrix(0.13333333,0,0,-0.13333333,0,864.66667)" />
      <path
         id="path8"
         d="m 2221.12,4845.45 c -91.33,0 -152.21,-79.58 -152.21,-181.9 0,-121.26 60.88,-208.41 152.21,-208.41 91.34,0 152.22,79.58 152.22,193.26 0,113.68 -60.88,197.05 -152.22,197.05 z m 0,-541.9 c -197.88,0 -300.63,144.01 -300.63,390.33 0,261.46 137,534.31 372.94,716.21 l 87.53,-121.27 c -91.34,-68.21 -190.28,-197.05 -228.34,-299.37 26.64,3.79 49.47,3.79 68.5,3.79 186.47,0 304.45,-140.21 304.45,-344.84 0,-204.63 -117.98,-344.85 -304.45,-344.85"
         style="fill:#bf2519;fill-opacity:1;fill-rule:nonzero;stroke:none"
         transform="matrix(0.13333333,0,0,-0.13333333,0,864.66667)" />
      <path
         id="path9"
         d="m 3433.41,5133.44 c -26.72,94.74 -68.71,136.42 -133.61,136.42 -68.71,0 -110.7,-41.68 -137.42,-132.62 -26.72,-83.37 -34.35,-155.37 -34.35,-276.64 0,-117.48 11.45,-185.68 34.35,-272.84 26.72,-90.95 68.71,-132.63 137.42,-132.63 64.9,0 106.89,41.68 133.61,132.63 26.72,87.16 34.34,151.58 34.34,276.63 0,121.26 -11.44,189.48 -34.34,269.05 z m 122.15,-644.21 c -53.45,-128.84 -133.61,-185.69 -255.76,-185.69 -129.78,0 -206.12,56.85 -259.57,185.69 -45.8,106.1 -61.07,208.42 -61.07,375.16 0,162.94 15.27,272.85 61.07,375.16 57.27,128.84 133.61,181.9 259.57,181.9 125.97,0 202.31,-53.06 255.76,-185.69 45.81,-106.11 61.07,-208.43 61.07,-371.37 0,-166.74 -15.26,-272.84 -61.07,-375.16"
         style="fill:#bf2519;fill-opacity:1;fill-rule:nonzero;stroke:none"
         transform="matrix(0.13333333,0,0,-0.13333333,0,864.66667)" />
      <path
         id="path10"
         d="m 4265.27,5133.44 c -26.72,94.74 -68.71,136.42 -133.6,136.42 -68.71,0 -110.7,-41.68 -137.42,-132.62 -26.72,-83.37 -34.36,-155.37 -34.36,-276.64 0,-117.48 11.46,-185.68 34.36,-272.84 26.72,-90.95 68.71,-132.63 137.42,-132.63 64.89,0 106.88,41.68 133.6,132.63 26.72,87.16 34.35,151.58 34.35,276.63 0,121.26 -11.45,189.48 -34.35,269.05 z m 122.15,-644.21 c -53.44,-128.84 -133.6,-185.69 -255.75,-185.69 -129.79,0 -206.12,56.85 -259.57,185.69 -45.8,106.1 -61.07,208.42 -61.07,375.16 0,162.94 15.27,272.85 61.07,375.16 57.27,128.84 133.6,181.9 259.57,181.9 125.97,0 202.31,-53.06 255.75,-185.69 45.82,-106.11 61.08,-208.43 61.08,-371.37 0,-166.74 -15.26,-272.84 -61.08,-375.16"
         style="fill:#bf2519;fill-opacity:1;fill-rule:nonzero;stroke:none"
         transform="matrix(0.13333333,0,0,-0.13333333,0,864.66667)" />
      <path
         id="path11"
         d="m 6512.25,3540.92 h -158.83 v -306.94 h 158.83 c 90.76,0 139.92,56.84 139.92,155.37 0,90.94 -56.72,151.57 -139.92,151.57 z m 7.56,-454.73 H 6353.42 V 2612.5 h -155.05 v 1080 h 321.44 c 170.18,0 283.63,-121.26 283.63,-303.15 0,-197.06 -102.11,-303.16 -283.63,-303.16"
         style="fill:#bf2519;fill-opacity:1;fill-rule:nonzero;stroke:none"
         transform="matrix(0.13333333,0,0,-0.13333333,0,864.66667)" />
      <path
         id="path12"
         d="m 7577.22,2612.5 v 606.32 l -201.11,-606.32 -201.1,606.32 V 2612.5 h -155.57 v 1080 h 155.57 l 201.1,-606.31 201.11,606.31 h 155.56 v -1080 h -155.56"
         style="fill:#bf2519;fill-opacity:1;fill-rule:nonzero;stroke:none"
         transform="matrix(0.13333333,0,0,-0.13333333,0,864.66667)" />
      <path
         id="path13"
         d="m 3251,3135.45 c -91.33,0 -152.22,-79.57 -152.22,-181.9 0,-121.25 60.89,-208.41 152.22,-208.41 91.33,0 152.21,79.59 152.21,193.26 0,113.69 -60.88,197.05 -152.21,197.05 z m 0,-541.9 c -197.88,0 -300.64,144.01 -300.64,390.34 0,261.46 137,534.31 372.94,716.2 l 87.53,-121.27 c -91.34,-68.21 -190.27,-197.05 -228.34,-299.36 26.64,3.79 49.47,3.79 68.51,3.79 186.46,0 304.44,-140.22 304.44,-344.85 0,-204.63 -117.98,-344.85 -304.44,-344.85"
         style="fill:#bf2519;fill-opacity:1;fill-rule:nonzero;stroke:none"
         transform="matrix(0.13333333,0,0,-0.13333333,0,864.66667)" />
      <path
         id="path14"
         d="m 4463.28,3423.45 c -26.72,94.74 -68.71,136.42 -133.6,136.42 -68.71,0 -110.71,-41.68 -137.42,-132.63 -26.72,-83.37 -34.36,-155.37 -34.36,-276.63 0,-117.49 11.46,-185.69 34.36,-272.84 26.71,-90.95 68.71,-132.63 137.42,-132.63 64.89,0 106.88,41.68 133.6,132.63 26.72,87.15 34.35,151.57 34.35,276.62 0,121.27 -11.45,189.48 -34.35,269.06 z m 122.15,-644.21 c -53.45,-128.85 -133.6,-185.69 -255.75,-185.69 -129.79,0 -206.13,56.84 -259.57,185.69 -45.8,106.09 -61.08,208.42 -61.08,375.15 0,162.95 15.28,272.85 61.08,375.17 57.26,128.84 133.6,181.89 259.57,181.89 125.96,0 202.3,-53.05 255.75,-185.68 45.81,-106.11 61.07,-208.43 61.07,-371.38 0,-166.73 -15.26,-272.84 -61.07,-375.15"
         style="fill:#bf2519;fill-opacity:1;fill-rule:nonzero;stroke:none"
         transform="matrix(0.13333333,0,0,-0.13333333,0,864.66667)" />
      <path
         id="path15"
         d="m 5295.15,3423.45 c -26.72,94.74 -68.71,136.42 -133.61,136.42 -68.71,0 -110.7,-41.68 -137.42,-132.63 -26.72,-83.37 -34.35,-155.37 -34.35,-276.63 0,-117.49 11.45,-185.69 34.35,-272.84 26.72,-90.95 68.71,-132.63 137.42,-132.63 64.9,0 106.89,41.68 133.61,132.63 26.72,87.15 34.34,151.57 34.34,276.62 0,121.27 -11.44,189.48 -34.34,269.06 z m 122.14,-644.21 c -53.44,-128.85 -133.6,-185.69 -255.75,-185.69 -129.78,0 -206.12,56.84 -259.57,185.69 -45.8,106.09 -61.07,208.42 -61.07,375.15 0,162.95 15.27,272.85 61.07,375.17 57.27,128.84 133.61,181.89 259.57,181.89 125.97,0 202.31,-53.05 255.75,-185.68 45.82,-106.11 61.08,-208.43 61.08,-371.38 0,-166.73 -15.26,-272.84 -61.08,-375.15"
         style="fill:#bf2519;fill-opacity:1;fill-rule:nonzero;stroke:none"
         transform="matrix(0.13333333,0,0,-0.13333333,0,864.66667)" />
      <path
         id="path16"
         d="m 2047.13,3423.45 c -26.72,94.74 -68.71,136.42 -133.6,136.42 -68.72,0 -110.7,-41.68 -137.42,-132.63 -26.73,-83.37 -34.35,-155.37 -34.35,-276.63 0,-117.48 11.45,-185.69 34.35,-272.84 26.72,-90.95 68.7,-132.63 137.42,-132.63 64.89,0 106.88,41.68 133.6,132.63 26.73,87.15 34.35,151.58 34.35,276.62 0,121.27 -11.45,189.48 -34.35,269.06 z m 122.15,-644.21 c -53.44,-128.85 -133.61,-185.69 -255.75,-185.69 -129.79,0 -206.13,56.84 -259.57,185.69 -45.81,106.11 -61.08,208.42 -61.08,375.15 0,162.96 15.27,272.85 61.08,375.17 57.26,128.84 133.61,181.89 259.57,181.89 125.97,0 202.31,-53.05 255.75,-185.68 45.81,-106.11 61.08,-208.42 61.08,-371.38 0,-166.73 -15.27,-272.83 -61.08,-375.15"
         style="fill:#bf2519;fill-opacity:1;fill-rule:nonzero;stroke:none"
         transform="matrix(0.13333333,0,0,-0.13333333,0,864.66667)" />
      <path
         id="path17"
         d="M 1265.66,3548.51 V 2612.5 h -155.82 v 936.01 H 912.219 v 143.99 h 551.071 v -143.99 h -197.63"
         style="fill:#bf2519;fill-opacity:1;fill-rule:nonzero;stroke:none"
         transform="matrix(0.13333333,0,0,-0.13333333,0,864.66667)" />
      <path
         id="path18"
         d="m 2754.29,4995.14 c -49.92,0 -88.32,37.89 -88.32,83.36 0,49.27 38.4,87.15 88.32,87.15 46.07,0 84.47,-37.88 84.47,-87.15 0,-45.47 -38.4,-83.36 -84.47,-83.36"
         style="fill:#bf2519;fill-opacity:1;fill-rule:nonzero;stroke:none"
         transform="matrix(0.13333333,0,0,-0.13333333,0,864.66667)" />
      <path
         id="path19"
         d="m 2754.29,4559.35 c -49.92,0 -88.32,37.89 -88.32,87.15 0,45.47 38.4,87.16 88.32,87.16 46.07,0 84.47,-41.69 84.47,-87.16 0,-49.26 -38.4,-87.15 -84.47,-87.15"
         style="fill:#bf2519;fill-opacity:1;fill-rule:nonzero;stroke:none"
         transform="matrix(0.13333333,0,0,-0.13333333,0,864.66667)" />
      <path
         id="path20"
         d="m 3784.16,3285.14 c -49.92,0 -88.32,37.9 -88.32,83.37 0,49.26 38.4,87.15 88.32,87.15 46.08,0 84.48,-37.89 84.48,-87.15 0,-45.47 -38.4,-83.37 -84.48,-83.37"
         style="fill:#bf2519;fill-opacity:1;fill-rule:nonzero;stroke:none"
         transform="matrix(0.13333333,0,0,-0.13333333,0,864.66667)" />
      <path
         id="path21"
         d="m 3784.16,2849.35 c -49.92,0 -88.32,37.9 -88.32,87.15 0,45.47 38.4,87.16 88.32,87.16 46.08,0 84.48,-41.69 84.48,-87.16 0,-49.25 -38.4,-87.15 -84.48,-87.15"
         style="fill:#bf2519;fill-opacity:1;fill-rule:nonzero;stroke:none"
         transform="matrix(0.13333333,0,0,-0.13333333,0,864.66667)" />
    </g>
  </g>
</svg>
