<?xml version="1.0" encoding="UTF-8" standalone="no"?>
<!-- Created with Inkscape (http://www.inkscape.org/) -->

<svg
   version="1.1"
   id="svg1"
   width="2304.6667"
   height="1728.6667"
   viewBox="0 0 2304.6667 1728.6667"
   sodipodi:docname="tmpxn7lin81.pdf"
   xmlns:inkscape="http://www.inkscape.org/namespaces/inkscape"
   xmlns:sodipodi="http://sodipodi.sourceforge.net/DTD/sodipodi-0.dtd"
   xmlns="http://www.w3.org/2000/svg"
   xmlns:svg="http://www.w3.org/2000/svg">
  <defs
     id="defs1" />
  <sodipodi:namedview
     id="namedview1"
     pagecolor="#ffffff"
     bordercolor="#000000"
     borderopacity="0.25"
     inkscape:showpageshadow="2"
     inkscape:pageopacity="0.0"
     inkscape:pagecheckerboard="0"
     inkscape:deskcolor="#d1d1d1">
    <inkscape:page
       x="0"
       y="0"
       inkscape:label="1"
       id="page1"
       width="2304.6667"
       height="1728.6667"
       margin="0"
       bleed="0" />
  </sodipodi:namedview>
  <g
     id="g1"
     inkscape:groupmode="layer"
     inkscape:label="1">
    <g
       id="group-R5">
      <path
         id="path2"
         d="M 17282.5,1082.5 C 17282.5,486 16799,2.5 16202.5,2.5 H 1082.5 C 486.031,2.5 2.5,486 2.5,1082.5 v 10800 c 0,596.5 483.531,1080 1080,1080 h 15120 c 596.5,0 1080,-483.5 1080,-1080 v -10800"
         style="fill:#ffffff;fill-opacity:1;fill-rule:nonzero;stroke:none"
         transform="matrix(0.13333333,0,0,-0.13333333,0,1728.6667)" />
      <path
         id="path3"
         d="M 17282.5,1082.5 C 17282.5,486 16799,2.5 16202.5,2.5 H 1082.5 C 486.031,2.5 2.5,486 2.5,1082.5 v 10800 c 0,596.5 483.531,1080 1080,1080 h 15120 c 596.5,0 1080,-483.5 1080,-1080 z"
         style="fill:none;stroke:#231f20;stroke-width:5;stroke-linecap:butt;stroke-linejoin:miter;stroke-miterlimit:4;stroke-dasharray:none;stroke-opacity:1"
         transform="matrix(0.13333333,0,0,-0.13333333,0,1728.6667)" />
      <path
         id="path4"
         d="m 16562.5,1082.5 c 0,-198.5 -161.5,-360 -360,-360 h -15120 c -198.508,0 -360,161.5 -360,360 v 10800 c 0,198.5 161.492,360 360,360 h 15120 c 198.5,0 360,-161.5 360,-360 z m -360,11610 h -15120 c -446.637,0 -810,-363.4 -810,-810 v -10800 c 0,-446.602 363.363,-810 810,-810 h 15120 c 446.6,0 810,363.398 810,810 v 10800 c 0,446.6 -363.4,810 -810,810"
         style="fill:#bf2519;fill-opacity:1;fill-rule:nonzero;stroke:none"
         transform="matrix(0.13333333,0,0,-0.13333333,0,1728.6667)" />
      <path
         id="path5"
         d="M 7295.43,10158.3 7143.46,9536.82 H 7455 Z m 387.52,-1515.8 -151.97,591.16 H 7067.46 L 6923.09,8642.5 h -311.53 l 539.49,2160 H 7455 l 539.49,-2160 h -311.54"
         style="fill:#bf2519;fill-opacity:1;fill-rule:nonzero;stroke:none"
         transform="matrix(0.13333333,0,0,-0.13333333,0,1728.6667)" />
      <path
         id="path6"
         d="m 9144,10279.6 c -52.95,151.5 -143.69,219.8 -279.84,219.8 H 8607.01 V 8945.66 h 257.15 c 181.52,0 279.84,144.01 310.1,310.74 15.12,136.43 30.25,288 30.25,454.73 0,242.53 -22.69,477.47 -60.51,568.47 z m 52.95,-1538.56 c -75.64,-68.23 -181.52,-98.54 -302.54,-98.54 h -597.52 v 2160 h 552.13 c 181.53,0 272.29,-22.7 347.93,-83.4 128.58,-90.9 219.34,-257.6 257.15,-477.4 30.26,-159.2 52.93,-348.66 52.93,-515.4 0,-500.22 -98.32,-818.54 -310.08,-985.26"
         style="fill:#bf2519;fill-opacity:1;fill-rule:nonzero;stroke:none"
         transform="matrix(0.13333333,0,0,-0.13333333,0,1728.6667)" />
      <path
         id="path7"
         d="m 13508,8907.76 c -83.7,-189.46 -258.7,-303.15 -479.4,-303.15 -258.8,0 -449.1,128.85 -555.6,371.37 -68.5,159.16 -114.2,462.32 -114.2,742.74 0,303.18 22.8,522.98 98.9,727.58 76.1,227.4 296.9,394.1 548,394.1 312.1,0 548,-227.4 563.2,-545.7 h -312 c -7.6,144 -106.6,242.6 -258.8,242.6 -106.5,0 -190.2,-53.1 -243.5,-159.2 -60.9,-106.1 -99,-348.7 -99,-606.33 0,-181.89 15.3,-371.37 45.7,-538.11 45.7,-212.2 152.2,-325.9 319.6,-325.9 159.9,0 236,106.11 236,333.49 v 143.98 h -243.6 v 303.17 h 555.6 v -447.15 c 0,-151.58 -15.2,-242.54 -60.9,-333.49"
         style="fill:#bf2519;fill-opacity:1;fill-rule:nonzero;stroke:none"
         transform="matrix(0.13333333,0,0,-0.13333333,0,1728.6667)" />
      <path
         id="path8"
         d="m 9939.04,8642.5 v 2160 h 302.36 v -2160 h -302.36"
         style="fill:#bf2519;fill-opacity:1;fill-rule:nonzero;stroke:none"
         transform="matrix(0.13333333,0,0,-0.13333333,0,1728.6667)" />
      <path
         id="path9"
         d="m 3716.07,8642.5 v 2160 h 311.64 V 8930.49 h 790.51 V 8642.5 H 3716.07"
         style="fill:#bf2519;fill-opacity:1;fill-rule:nonzero;stroke:none"
         transform="matrix(0.13333333,0,0,-0.13333333,0,1728.6667)" />
      <path
         id="path10"
         d="m 11692.3,8642.5 -665.5,1447.6 V 8642.5 h -310.2 v 2160 h 310.2 l 589.9,-1296 v 1296 h 310.1 v -2160 h -234.5"
         style="fill:#bf2519;fill-opacity:1;fill-rule:nonzero;stroke:none"
         transform="matrix(0.13333333,0,0,-0.13333333,0,1728.6667)" />
      <path
         id="path11"
         d="m 5985.9,10264.4 c -53.44,189.5 -137.4,272.9 -267.19,272.9 -137.42,0 -221.39,-83.4 -274.82,-265.3 -53.48,-166.8 -68.73,-310.75 -68.73,-553.28 0,-234.95 22.91,-371.37 68.73,-545.68 53.43,-181.91 137.4,-265.28 274.82,-265.28 129.79,0 213.75,83.37 267.19,265.28 53.44,174.31 68.71,303.15 68.71,553.25 0,242.53 -22.89,378.91 -68.71,538.11 z m 244.31,-1288.41 c -106.87,-257.69 -267.22,-371.38 -511.5,-371.38 -259.57,0 -412.26,113.69 -519.14,371.38 -91.6,212.19 -122.17,416.83 -122.17,750.3 0,325.91 30.57,545.71 122.17,750.31 114.53,257.7 267.19,363.8 519.14,363.8 251.93,0 404.63,-106.1 511.5,-371.4 91.61,-212.2 122.13,-416.8 122.13,-742.71 0,-333.47 -30.52,-545.68 -122.13,-750.3"
         style="fill:#bf2519;fill-opacity:1;fill-rule:nonzero;stroke:none"
         transform="matrix(0.13333333,0,0,-0.13333333,0,1728.6667)" />
      <path
         id="path12"
         d="m 10554.6,4862.5 v 2160 h 1018.6 v -303.14 h -706.9 v -545.69 h 448.4 v -295.58 h -448.4 v -712.45 h 790.5 V 4862.5 h -1102.2"
         style="fill:#bf2519;fill-opacity:1;fill-rule:nonzero;stroke:none"
         transform="matrix(0.13333333,0,0,-0.13333333,0,1728.6667)" />
      <path
         id="path13"
         d="M 9844.96,4862.5 9179.39,6310.08 V 4862.5 H 8869.3 v 2160 h 310.09 l 589.95,-1296 v 1296 h 310.06 v -2160 h -234.44"
         style="fill:#bf2519;fill-opacity:1;fill-rule:nonzero;stroke:none"
         transform="matrix(0.13333333,0,0,-0.13333333,0,1728.6667)" />
      <path
         id="path14"
         d="m 8070.84,6484.39 c -53.44,189.5 -137.4,272.86 -267.21,272.86 -137.4,0 -221.38,-83.36 -274.82,-265.28 -53.46,-166.72 -68.71,-310.72 -68.71,-553.26 0,-234.94 22.91,-371.37 68.71,-545.68 53.44,-181.9 137.42,-265.26 274.82,-265.26 129.81,0 213.77,83.36 267.21,265.26 53.44,174.31 68.71,303.16 68.71,553.28 0,242.5 -22.91,378.94 -68.71,538.08 z m 244.3,-1288.41 c -106.88,-257.68 -267.21,-371.37 -511.51,-371.37 -259.57,0 -412.24,113.69 -519.14,371.37 -91.6,212.2 -122.15,416.83 -122.15,750.33 0,325.9 30.55,545.66 122.15,750.31 114.53,257.66 267.21,363.79 519.14,363.79 251.96,0 404.63,-106.13 511.51,-371.37 91.62,-212.22 122.15,-416.83 122.15,-742.73 0,-333.5 -30.53,-545.7 -122.15,-750.33"
         style="fill:#bf2519;fill-opacity:1;fill-rule:nonzero;stroke:none"
         transform="matrix(0.13333333,0,0,-0.13333333,0,1728.6667)" />
      <path
         id="path15"
         d="m 5628.22,4862.5 v 332.3 l 817.05,1525.57 h -732.25 v 302.11 H 6838.36 V 6826.11 L 5951.95,5157.05 h 886.41 V 4862.5 H 5628.22"
         style="fill:#bf2519;fill-opacity:1;fill-rule:nonzero;stroke:none"
         transform="matrix(0.13333333,0,0,-0.13333333,0,1728.6667)" />
      <path
         id="path16"
         d="m 12146.4,4197.8 c -91.4,62.25 -216.8,38.46 -279,-53.08 -41.5,-61.1 -34,-124.44 -14.9,-199.67 l 184.1,-612.56 H 5248.44 l 184.08,612.56 c 19.12,75.23 26.6,138.57 -14.92,199.67 -62.15,91.54 -187.54,115.33 -278.98,53.08 L 3062.5,2791.4 5138.62,1387.2 c 91.44,-62.2 216.83,-38.5 278.98,53.1 43.36,63.9 33.75,125.3 10.62,208.1 l -180.2,604.1 H 12037 l -180.2,-604.1 c -23.1,-82.8 -32.7,-144.2 10.6,-208.1 62.2,-91.6 187.6,-115.3 279,-53.1 l 2076.1,1404.2 -2076.1,1406.4"
         style="fill:#bf2519;fill-opacity:1;fill-rule:evenodd;stroke:none"
         transform="matrix(0.13333333,0,0,-0.13333333,0,1728.6667)" />
    </g>
  </g>
</svg>
