<?xml version="1.0" encoding="UTF-8" standalone="no"?>
<!-- Created with Inkscape (http://www.inkscape.org/) -->

<svg
   version="1.1"
   id="svg1"
   width="2880.6667"
   height="2304.6667"
   viewBox="0 0 2880.6667 2304.6667"
   sodipodi:docname="tmplt0x5cz6.pdf"
   xmlns:inkscape="http://www.inkscape.org/namespaces/inkscape"
   xmlns:sodipodi="http://sodipodi.sourceforge.net/DTD/sodipodi-0.dtd"
   xmlns="http://www.w3.org/2000/svg"
   xmlns:svg="http://www.w3.org/2000/svg">
  <defs
     id="defs1" />
  <sodipodi:namedview
     id="namedview1"
     pagecolor="#ffffff"
     bordercolor="#000000"
     borderopacity="0.25"
     inkscape:showpageshadow="2"
     inkscape:pageopacity="0.0"
     inkscape:pagecheckerboard="0"
     inkscape:deskcolor="#d1d1d1">
    <inkscape:page
       x="0"
       y="0"
       inkscape:label="1"
       id="page1"
       width="2880.6667"
       height="2304.6667"
       margin="0"
       bleed="0" />
  </sodipodi:namedview>
  <g
     id="g1"
     inkscape:groupmode="layer"
     inkscape:label="1">
    <g
       id="group-R5">
      <path
         id="path2"
         d="M 21602.5,1082.5 C 21602.5,486 21119,2.5 20522.5,2.5 H 1082.5 C 486.031,2.5 2.5,486 2.5,1082.5 v 15120 c 0,596.5 483.531,1080 1080,1080 h 19440 c 596.5,0 1080,-483.5 1080,-1080 v -15120"
         style="fill:#ffffff;fill-opacity:1;fill-rule:nonzero;stroke:none"
         transform="matrix(0.13333333,0,0,-0.13333333,0,2304.6667)" />
      <path
         id="path3"
         d="M 21602.5,1082.5 C 21602.5,486 21119,2.5 20522.5,2.5 H 1082.5 C 486.031,2.5 2.5,486 2.5,1082.5 v 15120 c 0,596.5 483.531,1080 1080,1080 h 19440 c 596.5,0 1080,-483.5 1080,-1080 z"
         style="fill:none;stroke:#231f20;stroke-width:5;stroke-linecap:butt;stroke-linejoin:miter;stroke-miterlimit:4;stroke-dasharray:none;stroke-opacity:1"
         transform="matrix(0.13333333,0,0,-0.13333333,0,2304.6667)" />
      <path
         id="path4"
         d="m 1082.5,272.5 c -446.637,0 -810,363.402 -810,810 v 15120 c 0,446.6 363.363,810 810,810 h 19440 c 446.6,0 810,-363.4 810,-810 v -15120 c 0,-446.598 -363.4,-810 -810,-810 h -19440"
         style="fill:#bf2519;fill-opacity:1;fill-rule:nonzero;stroke:none"
         transform="matrix(0.13333333,0,0,-0.13333333,0,2304.6667)" />
      <path
         id="path5"
         d="m 1082.5,722.5 c -198.5,0 -360,161.5 -360,360 v 15120 c 0,198.5 161.5,360 360,360 h 19440 c 198.5,0 360,-161.5 360,-360 v -15120 c 0,-198.5 -161.5,-360 -360,-360 h -19440"
         style="fill:#ffffff;fill-opacity:1;fill-rule:nonzero;stroke:none"
         transform="matrix(0.13333333,0,0,-0.13333333,0,2304.6667)" />
      <path
         id="path6"
         d="m 10187,13730.5 c -35.5,247.6 -133.2,362.5 -301.88,362.5 -293.03,0 -399.57,-229.9 -399.57,-884.2 0,-725 124.3,-1016.8 435.09,-1016.8 213.06,0 266.36,176.8 266.36,362.5 h 364.1 c -8.9,-415.6 -275.3,-716.2 -630.46,-716.2 -541.65,0 -781.39,433.3 -781.39,1361.7 0,813.4 257.5,1246.7 754.74,1246.7 204.21,0 381.81,-88.4 497.31,-256.4 97.6,-123.8 133.1,-229.9 159.8,-459.8 H 10187"
         style="fill:#bf2519;fill-opacity:1;fill-rule:nonzero;stroke:none"
         transform="matrix(0.13333333,0,0,-0.13333333,0,2304.6667)" />
      <path
         id="path7"
         d="m 5835.6,11882.5 v 2520 h 1188.29 v -353.7 h -824.71 v -636.6 h 523.2 v -344.9 h -523.2 v -831.1 h 922.25 v -353.7 H 5835.6"
         style="fill:#bf2519;fill-opacity:1;fill-rule:nonzero;stroke:none"
         transform="matrix(0.13333333,0,0,-0.13333333,0,2304.6667)" />
      <path
         id="path8"
         d="m 11055.1,11882.5 v 2520 h 1188.3 v -353.7 h -824.7 v -636.6 h 523.2 v -344.9 h -523.2 v -831.1 h 922.2 v -353.7 h -1285.8"
         style="fill:#bf2519;fill-opacity:1;fill-rule:nonzero;stroke:none"
         transform="matrix(0.13333333,0,0,-0.13333333,0,2304.6667)" />
      <path
         id="path9"
         d="m 13501.7,14048.8 h -370.6 v -716.2 h 370.6 c 211.8,0 326.5,132.6 326.5,362.5 0,212.2 -132.4,353.7 -326.5,353.7 z m 17.7,-1061 h -388.3 v -1105.3 h -361.8 v 2520 h 750.1 c 397,0 661.7,-282.9 661.7,-707.4 0,-459.8 -238.2,-707.3 -661.7,-707.3"
         style="fill:#bf2519;fill-opacity:1;fill-rule:nonzero;stroke:none"
         transform="matrix(0.13333333,0,0,-0.13333333,0,2304.6667)" />
      <path
         id="path10"
         d="m 15308.3,14066.5 v -2184 h -363.6 v 2184 h -461.1 v 336 h 1285.8 v -336 h -461.1"
         style="fill:#bf2519;fill-opacity:1;fill-rule:nonzero;stroke:none"
         transform="matrix(0.13333333,0,0,-0.13333333,0,2304.6667)" />
      <path
         id="path11"
         d="m 8444.96,11882.5 -356.28,857.7 -356.26,-857.7 h -382.99 l 552.21,1308.6 -516.58,1211.4 h 383 l 320.62,-760.4 320.66,760.4 h 382.98 l -507.68,-1211.4 552.22,-1308.6 h -391.9"
         style="fill:#bf2519;fill-opacity:1;fill-rule:nonzero;stroke:none"
         transform="matrix(0.13333333,0,0,-0.13333333,0,2304.6667)" />
      <path
         id="path12"
         d="m 12991.7,4650.9 -177.3,-725 h 363.5 z m 452.1,-1768.4 -177.3,689.7 h -540.7 l -168.5,-689.7 h -363.5 l 629.5,2520 h 354.6 l 629.4,-2520 h -363.5"
         style="fill:#bf2519;fill-opacity:1;fill-rule:nonzero;stroke:none"
         transform="matrix(0.13333333,0,0,-0.13333333,0,2304.6667)" />
      <path
         id="path13"
         d="m 11528.4,4792.4 c -61.8,176.8 -167.7,256.4 -326.5,256.4 h -300 V 3236.2 h 300 c 211.8,0 326.5,168 361.8,362.5 17.6,159.2 35.3,336 35.3,530.5 0,283 -26.5,557.1 -70.6,663.2 z m 61.7,-1795 c -88.2,-79.5 -211.7,-114.9 -352.9,-114.9 h -697.1 v 2520 h 644.2 c 211.7,0 317.6,-26.5 405.8,-97.3 150.1,-106.1 256,-300.6 300.1,-557 35.3,-185.7 61.7,-406.7 61.7,-601.3 0,-583.6 -114.7,-954.9 -361.8,-1149.5"
         style="fill:#bf2519;fill-opacity:1;fill-rule:nonzero;stroke:none"
         transform="matrix(0.13333333,0,0,-0.13333333,0,2304.6667)" />
      <path
         id="path14"
         d="M 5520.11,2882.5 V 4023.1 H 4831.85 V 2882.5 h -361.79 v 2520 h 361.79 V 4376.8 h 688.26 v 1025.7 h 361.78 v -2520 h -361.78"
         style="fill:#bf2519;fill-opacity:1;fill-rule:nonzero;stroke:none"
         transform="matrix(0.13333333,0,0,-0.13333333,0,2304.6667)" />
      <path
         id="path15"
         d="m 9743.78,2882.5 v 2520 h 352.82 v -2520 h -352.82"
         style="fill:#bf2519;fill-opacity:1;fill-rule:nonzero;stroke:none"
         transform="matrix(0.13333333,0,0,-0.13333333,0,2304.6667)" />
      <path
         id="path16"
         d="m 8175.71,2882.5 v 2520 h 363.58 v -2184 h 922.26 v -336 H 8175.71"
         style="fill:#bf2519;fill-opacity:1;fill-rule:nonzero;stroke:none"
         transform="matrix(0.13333333,0,0,-0.13333333,0,2304.6667)" />
      <path
         id="path17"
         d="m 7344.98,4774.7 c -62.34,221.1 -160.31,318.3 -311.72,318.3 -160.32,0 -258.3,-97.2 -320.65,-309.5 -62.34,-194.5 -80.14,-362.5 -80.14,-645.4 0,-274.1 26.71,-433.3 80.14,-636.6 62.35,-212.3 160.33,-309.5 320.65,-309.5 151.41,0 249.38,97.2 311.72,309.5 62.37,203.3 80.19,353.6 80.19,645.4 0,283 -26.74,442.1 -80.19,627.8 z m 285.04,-1503.1 c -124.71,-300.7 -311.74,-433.3 -596.76,-433.3 -302.84,0 -480.97,132.6 -605.66,433.3 -106.89,247.5 -142.51,486.3 -142.51,875.3 0,380.2 35.62,636.6 142.51,875.4 133.6,300.6 311.75,424.4 605.66,424.4 293.93,0 472.05,-123.8 596.76,-433.3 106.87,-247.5 142.51,-486.3 142.51,-866.5 0,-389 -35.64,-636.6 -142.51,-875.3"
         style="fill:#bf2519;fill-opacity:1;fill-rule:nonzero;stroke:none"
         transform="matrix(0.13333333,0,0,-0.13333333,0,2304.6667)" />
      <path
         id="path18"
         d="m 16440.7,4046.3 c -109.1,70.6 -214.9,141.5 -282.5,189 -203.2,143 -310.8,336 -310.8,557.1 0,362.5 284.2,654.3 648.2,654.3 355.2,0 630.5,-274.1 639.3,-654.3 h -346.2 c -8.9,176.8 -133.2,291.8 -293.1,291.8 -168.7,0 -301.9,-123.8 -301.9,-291.8 0,-123.8 53.3,-194.5 239.8,-300.6 488.3,-283 701.4,-557.1 701.4,-919.6 0,-406.8 -310.7,-733.9 -701.4,-733.9 -444,0 -710.4,371.4 -710.4,786.9 h 355.2 c 0,-212.2 106.5,-433.2 355.2,-433.2 195.3,0 355.2,176.8 355.2,380.2 0,157.9 -65.3,290.9 -348,474.1"
         style="fill:#bf2519;fill-opacity:1;fill-rule:nonzero;stroke:none"
         transform="matrix(0.13333333,0,0,-0.13333333,0,2304.6667)" />
      <path
         id="path19"
         d="M 14912.3,4023.1 V 2882.5 h -363.5 v 1140.6 l -620.5,1379.4 h 381.2 l 425.5,-910.7 416.7,910.7 h 390 l -629.4,-1379.4"
         style="fill:#bf2519;fill-opacity:1;fill-rule:nonzero;stroke:none"
         transform="matrix(0.13333333,0,0,-0.13333333,0,2304.6667)" />
      <path
         id="path20"
         d="m 15703.4,9150.92 -177.3,-725.05 h 363.5 z m 452.1,-1768.42 -177.2,689.69 h -540.8 l -168.4,-689.69 h -363.5 l 629.4,2520 h 354.6 l 629.4,-2520 h -363.5"
         style="fill:#bf2519;fill-opacity:1;fill-rule:nonzero;stroke:none"
         transform="matrix(0.13333333,0,0,-0.13333333,0,2304.6667)" />
      <path
         id="path21"
         d="m 19554.2,9292.4 c -61.8,176.84 -167.7,256.42 -326.5,256.42 h -300 V 7736.18 h 300 c 211.8,0 326.5,168 361.8,362.53 17.6,159.16 35.3,336 35.3,530.53 0,282.95 -26.5,557.05 -70.6,663.16 z m 61.8,-1794.96 c -88.3,-79.57 -211.8,-114.94 -353,-114.94 h -697.1 v 2520 h 644.2 c 211.7,0 317.6,-26.52 405.9,-97.26 150,-106.1 255.9,-300.63 300,-557.05 35.3,-185.69 61.8,-406.74 61.8,-601.27 0,-583.58 -114.8,-954.95 -361.8,-1149.48"
         style="fill:#bf2519;fill-opacity:1;fill-rule:nonzero;stroke:none"
         transform="matrix(0.13333333,0,0,-0.13333333,0,2304.6667)" />
      <path
         id="path22"
         d="m 17904.3,7382.5 -776.5,1688.84 V 7382.5 H 16766 v 2520 h 361.8 l 688.2,-1512 v 1512 h 361.8 v -2520 h -273.5"
         style="fill:#bf2519;fill-opacity:1;fill-rule:nonzero;stroke:none"
         transform="matrix(0.13333333,0,0,-0.13333333,0,2304.6667)" />
      <path
         id="path23"
         d="m 9360.16,9150.92 -177.3,-725.05 h 363.47 z m 452.12,-1768.42 -177.3,689.69 H 9094.21 L 8925.78,7382.5 h -363.46 l 629.4,2520 h 354.61 l 629.37,-2520 h -363.42"
         style="fill:#bf2519;fill-opacity:1;fill-rule:nonzero;stroke:none"
         transform="matrix(0.13333333,0,0,-0.13333333,0,2304.6667)" />
      <path
         id="path24"
         d="m 7927.08,9292.4 c -61.75,176.84 -167.65,256.42 -326.48,256.42 h -300 V 7736.18 h 300 c 211.78,0 326.48,168 361.78,362.53 17.65,159.16 35.29,336 35.29,530.53 0,282.95 -26.46,557.05 -70.59,663.16 z m 61.76,-1794.96 C 7900.62,7417.87 7777.08,7382.5 7635.9,7382.5 h -697.1 v 2520 h 644.16 c 211.76,0 317.66,-26.52 405.88,-97.26 150.02,-106.1 255.92,-300.63 300.02,-557.05 35.31,-185.69 61.78,-406.74 61.78,-601.27 0,-583.58 -114.71,-954.95 -361.8,-1149.48"
         style="fill:#bf2519;fill-opacity:1;fill-rule:nonzero;stroke:none"
         transform="matrix(0.13333333,0,0,-0.13333333,0,2304.6667)" />
      <path
         id="path25"
         d="m 6277.18,7382.5 -776.5,1688.84 V 7382.5 H 5138.9 v 2520 h 361.78 l 688.26,-1512 v 1512 h 361.78 v -2520 h -273.54"
         style="fill:#bf2519;fill-opacity:1;fill-rule:nonzero;stroke:none"
         transform="matrix(0.13333333,0,0,-0.13333333,0,2304.6667)" />
      <path
         id="path26"
         d="m 2344.81,8546.28 c -109.02,70.62 -214.89,141.5 -282.47,189.07 -203.16,143 -310.78,336 -310.78,557.05 0,362.53 284.14,654.32 648.21,654.32 355.17,0 630.43,-274.11 639.31,-654.32 h -346.3 c -8.87,176.84 -133.19,291.79 -293.01,291.79 -168.72,0 -301.91,-123.79 -301.91,-291.79 0,-123.79 53.28,-194.53 239.75,-300.63 488.36,-282.95 701.47,-557.05 701.47,-919.58 0,-406.74 -310.78,-733.9 -701.47,-733.9 -443.98,0 -710.36,371.37 -710.36,786.95 h 355.18 c 0,-212.21 106.55,-433.27 355.18,-433.27 195.34,0 355.17,176.85 355.17,380.22 0,157.91 -65.25,290.91 -347.97,474.09"
         style="fill:#bf2519;fill-opacity:1;fill-rule:nonzero;stroke:none"
         transform="matrix(0.13333333,0,0,-0.13333333,0,2304.6667)" />
      <path
         id="path27"
         d="m 12771.3,8546.28 c -109,70.62 -214.9,141.5 -282.5,189.07 -203.1,143 -310.7,336 -310.7,557.05 0,362.53 284.1,654.32 648.2,654.32 355.1,0 630.4,-274.11 639.3,-654.32 h -346.3 c -8.9,176.84 -133.2,291.79 -293,291.79 -168.7,0 -301.9,-123.79 -301.9,-291.79 0,-123.79 53.3,-194.53 239.7,-300.63 488.4,-282.95 701.5,-557.05 701.5,-919.58 0,-406.74 -310.8,-733.9 -701.5,-733.9 -444,0 -710.3,371.37 -710.3,786.95 h 355.1 c 0,-212.21 106.6,-433.27 355.2,-433.27 195.4,0 355.2,176.85 355.2,380.22 0,157.91 -65.3,290.91 -348,474.09"
         style="fill:#bf2519;fill-opacity:1;fill-rule:nonzero;stroke:none"
         transform="matrix(0.13333333,0,0,-0.13333333,0,2304.6667)" />
      <path
         id="path28"
         d="m 4653.75,7691.97 c -123.55,-203.37 -361.8,-353.68 -600.04,-353.68 -247.08,0 -494.15,141.48 -617.68,353.68 -70.6,132.64 -97.07,238.73 -97.07,442.1 V 9902.5 h 361.78 V 8089.86 c 0,-238.73 141.19,-397.89 352.97,-397.89 194.12,0 335.31,159.16 335.31,397.89 V 9902.5 H 4750.8 V 8134.07 c 0,-203.37 -26.47,-309.46 -97.05,-442.1"
         style="fill:#bf2519;fill-opacity:1;fill-rule:nonzero;stroke:none"
         transform="matrix(0.13333333,0,0,-0.13333333,0,2304.6667)" />
      <path
         id="path29"
         d="M 11265.6,8523.13 V 7382.5 h -363.5 v 1140.63 l -620.5,1379.37 h 381.2 l 425.5,-910.73 416.7,910.73 h 390 l -629.4,-1379.37"
         style="fill:#bf2519;fill-opacity:1;fill-rule:nonzero;stroke:none"
         transform="matrix(0.13333333,0,0,-0.13333333,0,2304.6667)" />
    </g>
  </g>
</svg>
