<?xml version="1.0" standalone="no"?>
<svg width="864px" height="648px" viewBox="0 144 864 648 " xmlns="http://www.w3.org/2000/svg" xmlns:xlink="http://www.w3.org/1999/xlink">
<title>generated by pstoedit</title>
<!-- generated by pstoedit version:4.02 -->
<g xml:space='preserve'>
<clipPath id="clippath1"> 	<path d="
	M 0 143.5 
	L 0 792 
	L 864.5 792 
	L 864.5 143.5 
	Z 
	" style="clip-rule:nonzero"/>
</clipPath>
<g style="clip-path:url(#clippath1)"> 
<g fill="#ffffff" fill-rule="nonzero" stroke-width="0" stroke-linejoin="miter" stroke-linecap="butt" stroke-miterlimit="10" >
	<path d="
	M 864.25 683.75 
	C 864.25 743.395 815.895 791.75 756.25 791.75 
	L 108.25 791.75 
	C 48.6016 791.75 0.25 743.395 0.25 683.75 
	L 0.25 251.75 
	C 0.25 192.102 48.6016 143.75 108.25 143.75 
	L 756.25 143.75 
	C 815.895 143.75 864.25 192.102 864.25 251.75 
	Z 
	"/>
</g>
<g stroke="#7f7f7f" fill="none" stroke-width="0.5" stroke-linejoin="miter" stroke-linecap="butt" stroke-miterlimit="4" >
	<path d="
	M 864.25 683.75 
	C 864.25 743.395 815.895 791.75 756.25 791.75 
	L 108.25 791.75 
	C 48.6016 791.75 0.25 743.395 0.25 683.75 
	L 0.25 251.75 
	C 0.25 192.102 48.6016 143.75 108.25 143.75 
	L 756.25 143.75 
	C 815.895 143.75 864.25 192.102 864.25 251.75 
	Z 
	"/>
</g>
<g fill="#7f88e1" fill-rule="nonzero" stroke-width="0" stroke-linejoin="miter" stroke-linecap="butt" stroke-miterlimit="4" >
	<path d="
	M 810.25 683.75 
	C 810.25 713.523 786.023 737.75 756.25 737.75 
	L 108.25 737.75 
	C 78.4727 737.75 54.25 713.523 54.25 683.75 
	L 54.25 251.75 
	C 54.25 221.973 78.4727 197.75 108.25 197.75 
	L 756.25 197.75 
	C 786.023 197.75 810.25 221.973 810.25 251.75 
	Z 
	M 756.25 170.75 
	L 108.25 170.75 
	C 63.5859 170.75 27.25 207.086 27.25 251.75 
	L 27.25 683.75 
	C 27.25 728.414 63.5859 764.75 108.25 764.75 
	L 756.25 764.75 
	C 800.914 764.75 837.25 728.414 837.25 683.75 
	L 837.25 251.75 
	C 837.25 207.086 800.914 170.75 756.25 170.75 
	Z 
	"/>
</g>
<g fill="#7f88e1" fill-rule="nonzero" stroke-width="0" stroke-linejoin="miter" stroke-linecap="butt" stroke-miterlimit="4" >
	<path d="
	M 364.895 283.961 
	L 357.297 315.035 
	L 372.875 315.035 
	Z 
	M 384.273 359.75 
	L 376.676 330.191 
	L 353.5 330.191 
	L 346.281 359.75 
	L 330.703 359.75 
	L 357.68 251.75 
	L 372.875 251.75 
	L 399.852 359.75 
	Z 
	"/>
</g>
<g fill="#7f88e1" fill-rule="nonzero" stroke-width="0" stroke-linejoin="miter" stroke-linecap="butt" stroke-miterlimit="4" >
	<path d="
	M 457.324 277.898 
	C 454.68 270.316 450.141 266.906 443.332 266.906 
	L 430.477 266.906 
	L 430.477 344.594 
	L 443.332 344.594 
	C 452.41 344.594 457.324 337.391 458.84 329.055 
	C 459.594 322.234 460.352 314.656 460.352 306.316 
	C 460.352 294.191 459.215 282.445 457.324 277.898 
	Z 
	M 459.973 354.824 
	C 456.191 358.234 450.895 359.75 444.848 359.75 
	L 414.969 359.75 
	L 414.969 251.75 
	L 442.574 251.75 
	C 451.652 251.75 456.191 252.887 459.973 255.918 
	C 466.402 260.465 470.938 268.801 472.828 279.793 
	C 474.344 287.75 475.477 297.223 475.477 305.559 
	C 475.477 330.57 470.563 346.488 459.973 354.824 
	Z 
	"/>
</g>
<g fill="#7f88e1" fill-rule="nonzero" stroke-width="0" stroke-linejoin="miter" stroke-linecap="butt" stroke-miterlimit="4" >
	<path d="
	M 675.527 346.488 
	C 671.344 355.961 662.59 361.645 651.555 361.645 
	C 638.613 361.645 629.102 355.203 623.773 343.074 
	C 620.348 335.117 618.063 319.961 618.063 305.937 
	C 618.063 290.781 619.207 279.793 623.012 269.559 
	C 626.816 258.191 637.855 249.855 650.41 249.855 
	C 666.016 249.855 677.813 261.223 678.57 277.141 
	L 662.969 277.141 
	C 662.59 269.937 657.641 265.012 650.031 265.012 
	C 644.703 265.012 640.52 267.664 637.855 272.973 
	C 634.809 278.277 632.906 290.402 632.906 303.285 
	C 632.906 312.383 633.668 321.855 635.188 330.191 
	C 637.473 340.801 642.801 346.488 651.172 346.488 
	C 659.164 346.488 662.969 341.184 662.969 329.812 
	L 662.969 322.613 
	L 650.793 322.613 
	L 650.793 307.453 
	L 678.57 307.453 
	L 678.57 329.812 
	C 678.57 337.391 677.813 341.937 675.527 346.488 
	Z 
	"/>
</g>
<g fill="#7f88e1" fill-rule="nonzero" stroke-width="0" stroke-linejoin="miter" stroke-linecap="butt" stroke-miterlimit="4" >
	<path d="
	M 497.078 359.75 
	L 497.078 251.75 
	L 512.195 251.75 
	L 512.195 359.75 
	Z 
	"/>
</g>
<g fill="#7f88e1" fill-rule="nonzero" stroke-width="0" stroke-linejoin="miter" stroke-linecap="butt" stroke-miterlimit="4" >
	<path d="
	M 185.93 359.75 
	L 185.93 251.75 
	L 201.512 251.75 
	L 201.512 345.352 
	L 241.035 345.352 
	L 241.035 359.75 
	Z 
	"/>
</g>
<g fill="#7f88e1" fill-rule="nonzero" stroke-width="0" stroke-linejoin="miter" stroke-linecap="butt" stroke-miterlimit="4" >
	<path d="
	M 584.742 359.75 
	L 551.465 287.371 
	L 551.465 359.75 
	L 535.957 359.75 
	L 535.957 251.75 
	L 551.465 251.75 
	L 580.961 316.551 
	L 580.961 251.75 
	L 596.465 251.75 
	L 596.465 359.75 
	Z 
	"/>
</g>
<g fill="#7f88e1" fill-rule="nonzero" stroke-width="0" stroke-linejoin="miter" stroke-linecap="butt" stroke-miterlimit="4" >
	<path d="
	M 299.422 278.656 
	C 296.746 269.18 292.551 265.012 286.063 265.012 
	C 279.188 265.012 274.992 269.18 272.32 278.277 
	C 269.645 286.613 268.883 293.812 268.883 305.937 
	C 268.883 317.687 270.027 324.508 272.32 333.223 
	C 274.992 342.316 279.188 346.488 286.063 346.488 
	C 292.551 346.488 296.746 342.316 299.422 333.223 
	C 302.094 324.508 302.855 318.066 302.855 305.562 
	C 302.855 293.434 301.711 286.613 299.422 278.656 
	Z 
	M 311.637 343.074 
	C 306.293 355.961 298.273 361.645 286.063 361.645 
	C 273.082 361.645 265.445 355.961 260.105 343.074 
	C 255.523 332.465 253.996 322.234 253.996 305.562 
	C 253.996 289.266 255.523 278.277 260.105 268.043 
	C 265.828 255.16 273.465 249.855 286.063 249.855 
	C 298.656 249.855 306.293 255.16 311.637 268.422 
	C 316.215 279.035 317.742 289.266 317.742 305.562 
	C 317.742 322.234 316.215 332.844 311.637 343.074 
	Z 
	"/>
</g>
<g fill="#7f88e1" fill-rule="nonzero" stroke-width="0" stroke-linejoin="miter" stroke-linecap="butt" stroke-miterlimit="4" >
	<path d="
	M 527.855 548.75 
	L 527.855 440.75 
	L 578.781 440.75 
	L 578.781 455.906 
	L 543.438 455.906 
	L 543.438 483.191 
	L 565.863 483.191 
	L 565.863 497.973 
	L 543.438 497.973 
	L 543.438 533.594 
	L 582.965 533.594 
	L 582.965 548.75 
	Z 
	"/>
</g>
<g fill="#7f88e1" fill-rule="nonzero" stroke-width="0" stroke-linejoin="miter" stroke-linecap="butt" stroke-miterlimit="4" >
	<path d="
	M 492.371 548.75 
	L 459.094 476.371 
	L 459.094 548.75 
	L 443.59 548.75 
	L 443.59 440.75 
	L 459.094 440.75 
	L 488.594 505.551 
	L 488.594 440.75 
	L 504.098 440.75 
	L 504.098 548.75 
	Z 
	"/>
</g>
<g fill="#7f88e1" fill-rule="nonzero" stroke-width="0" stroke-linejoin="miter" stroke-linecap="butt" stroke-miterlimit="4" >
	<path d="
	M 403.668 467.656 
	C 400.996 458.18 396.797 454.012 390.309 454.012 
	C 383.438 454.012 379.238 458.18 376.566 467.277 
	C 373.895 475.613 373.129 482.812 373.129 494.937 
	C 373.129 506.687 374.273 513.508 376.566 522.223 
	C 379.238 531.316 383.438 535.484 390.309 535.484 
	C 396.797 535.484 400.996 531.316 403.668 522.223 
	C 406.34 513.508 407.102 507.066 407.102 494.559 
	C 407.102 482.434 405.957 475.613 403.668 467.656 
	Z 
	M 415.883 532.074 
	C 410.539 544.961 402.52 550.645 390.309 550.645 
	C 377.328 550.645 369.695 544.961 364.352 532.074 
	C 359.77 521.465 358.242 511.234 358.242 494.559 
	C 358.242 478.266 359.77 467.277 364.352 457.043 
	C 370.074 444.16 377.711 438.855 390.309 438.855 
	C 402.902 438.855 410.539 444.16 415.883 457.422 
	C 420.465 468.035 421.988 478.266 421.988 494.559 
	C 421.988 511.234 420.465 521.844 415.883 532.074 
	Z 
	"/>
</g>
<g fill="#7f88e1" fill-rule="nonzero" stroke-width="0" stroke-linejoin="miter" stroke-linecap="butt" stroke-miterlimit="4" >
	<path d="
	M 281.535 548.75 
	L 281.535 532.137 
	L 322.387 455.855 
	L 285.777 455.855 
	L 285.777 440.75 
	L 342.043 440.75 
	L 342.043 450.57 
	L 297.723 534.023 
	L 342.043 534.023 
	L 342.043 548.75 
	Z 
	"/>
</g>
<g fill="#7f88e1" fill-rule="evenodd" stroke-width="0" stroke-linejoin="miter" stroke-linecap="butt" stroke-miterlimit="4" >
	<path d="
	M 607.445 577.484 
	C 602.871 574.371 596.605 575.562 593.496 580.141 
	C 591.422 583.195 591.793 586.359 592.75 590.121 
	L 601.953 620.75 
	L 262.547 620.75 
	L 271.75 590.121 
	C 272.707 586.359 273.082 583.195 271.004 580.141 
	C 267.898 575.562 261.629 574.371 257.055 577.484 
	L 153.25 647.809 
	L 257.055 718.02 
	C 261.629 721.125 267.898 719.938 271.004 715.363 
	C 273.172 712.164 272.691 709.098 271.535 704.953 
	L 262.523 674.75 
	L 601.977 674.75 
	L 592.965 704.953 
	C 591.809 709.098 591.328 712.164 593.496 715.363 
	C 596.605 719.938 602.871 721.125 607.445 718.02 
	L 711.25 647.809 
	Z 
	"/>
</g>
</g >
</g>
</svg>
