<?xml version="1.0" standalone="no"?>
<svg width="864px" height="648px" viewBox="0 144 864 648 " xmlns="http://www.w3.org/2000/svg" xmlns:xlink="http://www.w3.org/1999/xlink">
<title>generated by pstoedit</title>
<!-- generated by pstoedit version:4.02 -->
<g xml:space='preserve'>
<clipPath id="clippath1"> 	<path d="
	M 0 143.75 
	L 0 792 
	L 864.25 792 
	L 864.25 143.75 
	Z 
	" style="clip-rule:nonzero"/>
</clipPath>
<g style="clip-path:url(#clippath1)"> 
<g fill="#ffffff" fill-rule="nonzero" stroke-width="0" stroke-linejoin="miter" stroke-linecap="butt" stroke-miterlimit="10" >
	<path d="
	M 864.125 683.875 
	C 864.125 743.52 815.77 791.875 756.125 791.875 
	L 108.125 791.875 
	C 48.4766 791.875 0.125 743.52 0.125 683.875 
	L 0.125 251.875 
	C 0.125 192.227 48.4766 143.875 108.125 143.875 
	L 756.125 143.875 
	C 815.77 143.875 864.125 192.227 864.125 251.875 
	Z 
	"/>
</g>
<g stroke="#7f7f7f" fill="none" stroke-width="0.25" stroke-linejoin="miter" stroke-linecap="butt" stroke-miterlimit="4" >
	<path d="
	M 864.125 683.875 
	C 864.125 743.52 815.77 791.875 756.125 791.875 
	L 108.125 791.875 
	C 48.4766 791.875 0.125 743.52 0.125 683.875 
	L 0.125 251.875 
	C 0.125 192.227 48.4766 143.875 108.125 143.875 
	L 756.125 143.875 
	C 815.77 143.875 864.125 192.227 864.125 251.875 
	Z 
	"/>
</g>
<g fill="#7f88e1" fill-rule="nonzero" stroke-width="0" stroke-linejoin="miter" stroke-linecap="butt" stroke-miterlimit="4" >
	<path d="
	M 810.125 683.875 
	C 810.125 713.648 785.898 737.875 756.125 737.875 
	L 108.125 737.875 
	C 78.3477 737.875 54.125 713.648 54.125 683.875 
	L 54.125 251.875 
	C 54.125 222.098 78.3477 197.875 108.125 197.875 
	L 756.125 197.875 
	C 785.898 197.875 810.125 222.098 810.125 251.875 
	Z 
	M 756.125 170.875 
	L 108.125 170.875 
	C 63.4609 170.875 27.125 207.211 27.125 251.875 
	L 27.125 683.875 
	C 27.125 728.539 63.4609 764.875 108.125 764.875 
	L 756.125 764.875 
	C 800.789 764.875 837.125 728.539 837.125 683.875 
	L 837.125 251.875 
	C 837.125 207.211 800.789 170.875 756.125 170.875 
	Z 
	"/>
</g>
<g fill="#7f88e1" fill-rule="nonzero" stroke-width="0" stroke-linejoin="miter" stroke-linecap="butt" stroke-miterlimit="4" >
	<path d="
	M 566.848 539.02 
	C 564.199 531.441 559.66 528.031 552.855 528.031 
	L 539.996 528.031 
	L 539.996 605.719 
	L 552.855 605.719 
	C 561.93 605.719 566.848 598.516 568.359 590.18 
	C 569.113 583.355 569.871 575.777 569.871 567.441 
	C 569.871 555.316 568.738 543.566 566.848 539.02 
	Z 
	M 569.492 615.945 
	C 565.715 619.355 560.418 620.875 554.367 620.875 
	L 524.492 620.875 
	L 524.492 512.875 
	L 552.098 512.875 
	C 561.176 512.875 565.715 514.012 569.492 517.043 
	C 575.922 521.59 580.461 529.926 582.352 540.918 
	C 583.863 548.875 584.996 558.348 584.996 566.687 
	C 584.996 591.695 580.082 607.609 569.492 615.945 
	Z 
	"/>
</g>
<g fill="#7f88e1" fill-rule="nonzero" stroke-width="0" stroke-linejoin="miter" stroke-linecap="butt" stroke-miterlimit="4" >
	<path d="
	M 606.602 620.875 
	L 606.602 512.875 
	L 657.523 512.875 
	L 657.523 528.031 
	L 622.184 528.031 
	L 622.184 555.316 
	L 644.605 555.316 
	L 644.605 570.098 
	L 622.184 570.098 
	L 622.184 605.719 
	L 661.703 605.719 
	L 661.703 620.875 
	Z 
	"/>
</g>
<g fill="#7f88e1" fill-rule="nonzero" stroke-width="0" stroke-linejoin="miter" stroke-linecap="butt" stroke-miterlimit="4" >
	<path d="
	M 247.547 620.875 
	L 247.547 571.988 
	L 218.051 571.988 
	L 218.051 620.875 
	L 202.547 620.875 
	L 202.547 512.875 
	L 218.051 512.875 
	L 218.051 556.832 
	L 247.547 556.832 
	L 247.547 512.875 
	L 263.051 512.875 
	L 263.051 620.875 
	Z 
	"/>
</g>
<g fill="#7f88e1" fill-rule="nonzero" stroke-width="0" stroke-linejoin="miter" stroke-linecap="butt" stroke-miterlimit="4" >
	<path d="
	M 454.266 620.875 
	L 454.266 512.875 
	L 469.848 512.875 
	L 469.848 606.473 
	L 509.371 606.473 
	L 509.371 620.875 
	Z 
	"/>
</g>
<g fill="#7f88e1" fill-rule="nonzero" stroke-width="0" stroke-linejoin="miter" stroke-linecap="butt" stroke-miterlimit="4" >
	<path d="
	M 330.078 539.777 
	C 327.406 530.309 323.203 526.137 316.715 526.137 
	C 309.844 526.137 305.645 530.309 302.973 539.398 
	C 300.301 547.734 299.539 554.937 299.539 567.062 
	C 299.539 578.812 300.684 585.633 302.973 594.348 
	C 305.645 603.441 309.844 607.609 316.715 607.609 
	C 323.203 607.609 327.406 603.441 330.078 594.348 
	C 332.75 585.633 333.512 579.187 333.512 566.684 
	C 333.512 554.559 332.367 547.734 330.078 539.777 
	Z 
	M 342.289 604.199 
	C 336.945 617.086 328.93 622.77 316.715 622.77 
	C 303.738 622.77 296.105 617.086 290.758 604.199 
	C 286.18 593.59 284.652 583.355 284.652 566.684 
	C 284.652 550.391 286.18 539.398 290.758 529.168 
	C 296.484 516.285 304.121 510.98 316.715 510.98 
	C 329.313 510.98 336.945 516.285 342.289 529.547 
	C 346.871 540.156 348.398 550.391 348.398 566.684 
	C 348.398 583.355 346.871 593.969 342.289 604.199 
	Z 
	"/>
</g>
<g fill="#7f88e1" fill-rule="nonzero" stroke-width="0" stroke-linejoin="miter" stroke-linecap="butt" stroke-miterlimit="4" >
	<path d="
	M 711.453 528.031 
	L 695.57 528.031 
	L 695.57 555.312 
	L 711.453 555.312 
	C 720.531 555.312 725.445 550.391 725.445 541.676 
	C 725.445 533.336 719.773 528.031 711.453 528.031 
	Z 
	M 724.688 620.875 
	L 710.316 570.094 
	L 695.57 570.094 
	L 695.57 620.875 
	L 680.066 620.875 
	L 680.066 512.871 
	L 712.211 512.871 
	C 729.227 512.871 740.57 524.242 740.57 541.676 
	C 740.57 554.559 735.277 564.031 725.066 567.82 
	L 740.57 620.875 
	Z 
	"/>
</g>
<g fill="#7f88e1" fill-rule="nonzero" stroke-width="0" stroke-linejoin="miter" stroke-linecap="butt" stroke-miterlimit="4" >
	<path d="
	M 154.43 570.996 
	C 149.758 567.973 145.223 564.934 142.324 562.895 
	C 133.617 556.766 129.004 548.492 129.004 539.02 
	C 129.004 523.484 141.184 510.98 156.785 510.98 
	C 172.008 510.98 183.805 522.727 184.184 539.02 
	L 169.344 539.02 
	C 168.965 531.441 163.637 526.516 156.785 526.516 
	C 149.555 526.516 143.848 531.82 143.848 539.02 
	C 143.848 544.324 146.133 547.355 154.121 551.902 
	C 175.051 564.031 184.184 575.777 184.184 591.312 
	C 184.184 608.746 170.867 622.77 154.121 622.77 
	C 135.094 622.77 123.68 606.855 123.68 589.043 
	L 138.898 589.043 
	C 138.898 598.137 143.465 607.609 154.121 607.609 
	C 162.492 607.609 169.344 600.031 169.344 591.312 
	C 169.344 584.547 166.547 578.848 154.43 570.996 
	Z 
	"/>
</g>
<g fill="#7f88e1" fill-rule="nonzero" stroke-width="0" stroke-linejoin="miter" stroke-linecap="butt" stroke-miterlimit="4" >
	<path d="
	M 426.344 607.609 
	C 421.051 616.324 410.84 622.77 400.629 622.77 
	C 390.039 622.77 379.453 616.703 374.156 607.609 
	C 371.133 601.926 369.996 597.379 369.996 588.664 
	L 369.996 512.871 
	L 385.5 512.871 
	L 385.5 590.559 
	C 385.5 600.789 391.555 607.609 400.629 607.609 
	C 408.949 607.609 415 600.789 415 590.559 
	L 415 512.871 
	L 430.504 512.871 
	L 430.504 588.664 
	C 430.504 597.379 429.371 601.926 426.344 607.609 
	Z 
	"/>
</g>
<g fill="#7f88e1" fill-rule="nonzero" stroke-width="0" stroke-linejoin="miter" stroke-linecap="butt" stroke-miterlimit="4" >
	<path d="
	M 278.797 343.676 
	C 277.273 333.062 273.09 328.137 265.859 328.137 
	C 253.301 328.137 248.73 337.988 248.73 366.031 
	C 248.73 397.105 254.059 409.613 267.379 409.613 
	C 276.512 409.613 278.797 402.031 278.797 394.074 
	L 294.398 394.074 
	C 294.02 411.887 282.602 424.77 267.379 424.77 
	C 244.168 424.77 233.891 406.199 233.891 366.41 
	C 233.891 331.547 244.926 312.98 266.238 312.98 
	C 274.988 312.98 282.602 316.77 287.551 323.969 
	C 291.734 329.273 293.258 333.824 294.398 343.676 
	Z 
	"/>
</g>
<g fill="#7f88e1" fill-rule="nonzero" stroke-width="0" stroke-linejoin="miter" stroke-linecap="butt" stroke-miterlimit="4" >
	<path d="
	M 92.3555 422.875 
	L 92.3555 314.875 
	L 143.281 314.875 
	L 143.281 330.031 
	L 107.938 330.031 
	L 107.938 357.316 
	L 130.359 357.316 
	L 130.359 372.098 
	L 107.938 372.098 
	L 107.938 407.719 
	L 147.465 407.719 
	L 147.465 422.875 
	Z 
	"/>
</g>
<g fill="#7f88e1" fill-rule="nonzero" stroke-width="0" stroke-linejoin="miter" stroke-linecap="butt" stroke-miterlimit="4" >
	<path d="
	M 316 422.875 
	L 316 314.875 
	L 366.926 314.875 
	L 366.926 330.031 
	L 331.582 330.031 
	L 331.582 357.316 
	L 354.004 357.316 
	L 354.004 372.098 
	L 331.582 372.098 
	L 331.582 407.719 
	L 371.105 407.719 
	L 371.105 422.875 
	Z 
	"/>
</g>
<g fill="#7f88e1" fill-rule="nonzero" stroke-width="0" stroke-linejoin="miter" stroke-linecap="butt" stroke-miterlimit="4" >
	<path d="
	M 760.172 422.875 
	L 726.891 350.496 
	L 726.891 422.875 
	L 711.387 422.875 
	L 711.387 314.875 
	L 726.891 314.875 
	L 756.391 379.676 
	L 756.391 314.875 
	L 771.895 314.875 
	L 771.895 422.875 
	Z 
	"/>
</g>
<g fill="#7f88e1" fill-rule="nonzero" stroke-width="0" stroke-linejoin="miter" stroke-linecap="butt" stroke-miterlimit="4" >
	<path d="
	M 671.465 341.781 
	C 668.793 332.309 664.594 328.137 658.105 328.137 
	C 651.234 328.137 647.035 332.309 644.363 341.398 
	C 641.691 349.738 640.93 356.937 640.93 369.062 
	C 640.93 380.812 642.07 387.633 644.363 396.348 
	C 647.035 405.441 651.234 409.609 658.105 409.609 
	C 664.594 409.609 668.793 405.441 671.465 396.348 
	C 674.137 387.633 674.898 381.191 674.898 368.684 
	C 674.898 356.559 673.754 349.738 671.465 341.781 
	Z 
	M 683.68 406.199 
	C 678.336 419.086 670.32 424.77 658.105 424.77 
	C 645.125 424.77 637.492 419.086 632.145 406.199 
	C 627.566 395.59 626.039 385.359 626.039 368.684 
	C 626.039 352.391 627.566 341.398 632.145 331.168 
	C 637.871 318.285 645.508 312.98 658.105 312.98 
	C 670.699 312.98 678.336 318.285 683.68 331.547 
	C 688.262 342.16 689.785 352.391 689.785 368.684 
	C 689.785 385.359 688.262 395.969 683.68 406.199 
	Z 
	"/>
</g>
<g fill="#7f88e1" fill-rule="nonzero" stroke-width="0" stroke-linejoin="miter" stroke-linecap="butt" stroke-miterlimit="4" >
	<path d="
	M 420.855 330.031 
	L 404.973 330.031 
	L 404.973 360.727 
	L 420.855 360.727 
	C 429.93 360.727 434.848 355.043 434.848 345.191 
	C 434.848 336.098 429.172 330.031 420.855 330.031 
	Z 
	M 421.609 375.508 
	L 404.973 375.508 
	L 404.973 422.875 
	L 389.465 422.875 
	L 389.465 314.875 
	L 421.609 314.875 
	C 438.629 314.875 449.973 327 449.973 345.191 
	C 449.973 364.895 439.762 375.508 421.609 375.508 
	Z 
	"/>
</g>
<g fill="#7f88e1" fill-rule="nonzero" stroke-width="0" stroke-linejoin="miter" stroke-linecap="butt" stroke-miterlimit="4" >
	<path d="
	M 498.277 329.273 
	L 498.277 422.875 
	L 482.695 422.875 
	L 482.695 329.273 
	L 462.934 329.273 
	L 462.934 314.875 
	L 518.039 314.875 
	L 518.039 329.273 
	Z 
	"/>
</g>
<g fill="#7f88e1" fill-rule="nonzero" stroke-width="0" stroke-linejoin="miter" stroke-linecap="butt" stroke-miterlimit="4" >
	<path d="
	M 204.137 422.875 
	L 188.867 386.117 
	L 173.598 422.875 
	L 157.184 422.875 
	L 180.852 366.793 
	L 158.711 314.875 
	L 175.125 314.875 
	L 188.867 347.465 
	L 202.609 314.875 
	L 219.023 314.875 
	L 197.266 366.793 
	L 220.93 422.875 
	Z 
	"/>
</g>
</g >
</g>
</svg>
