<?xml version="1.0" encoding="UTF-8" standalone="no"?>
<!-- Created with Inkscape (http://www.inkscape.org/) -->

<svg
   version="1.1"
   id="svg1"
   width="1728.6667"
   height="1728.6667"
   viewBox="0 0 1728.6667 1728.6667"
   sodipodi:docname="tmpq8fm58or.pdf"
   xmlns:inkscape="http://www.inkscape.org/namespaces/inkscape"
   xmlns:sodipodi="http://sodipodi.sourceforge.net/DTD/sodipodi-0.dtd"
   xmlns="http://www.w3.org/2000/svg"
   xmlns:svg="http://www.w3.org/2000/svg">
  <defs
     id="defs1" />
  <sodipodi:namedview
     id="namedview1"
     pagecolor="#ffffff"
     bordercolor="#000000"
     borderopacity="0.25"
     inkscape:showpageshadow="2"
     inkscape:pageopacity="0.0"
     inkscape:pagecheckerboard="0"
     inkscape:deskcolor="#d1d1d1">
    <inkscape:page
       x="0"
       y="0"
       inkscape:label="1"
       id="page1"
       width="1728.6667"
       height="1728.6667"
       margin="0"
       bleed="0" />
  </sodipodi:namedview>
  <g
     id="g1"
     inkscape:groupmode="layer"
     inkscape:label="1">
    <g
       id="group-R5">
      <path
         id="path2"
         d="M 12962.5,1082.5 C 12962.5,486 12479,2.5 11882.5,2.5 H 1082.5 C 486.035,2.5 2.5,486 2.5,1082.5 v 10800 c 0,596.5 483.535,1080 1080,1080 h 10800 c 596.5,0 1080,-483.5 1080,-1080 v -10800"
         style="fill:#ffffff;fill-opacity:1;fill-rule:nonzero;stroke:none"
         transform="matrix(0.13333333,0,0,-0.13333333,0,1728.6667)" />
      <path
         id="path3"
         d="M 12962.5,1082.5 C 12962.5,486 12479,2.5 11882.5,2.5 H 1082.5 C 486.035,2.5 2.5,486 2.5,1082.5 v 10800 c 0,596.5 483.535,1080 1080,1080 h 10800 c 596.5,0 1080,-483.5 1080,-1080 z"
         style="fill:none;stroke:#231f20;stroke-width:5;stroke-linecap:butt;stroke-linejoin:miter;stroke-miterlimit:4;stroke-dasharray:none;stroke-opacity:1"
         transform="matrix(0.13333333,0,0,-0.13333333,0,1728.6667)" />
      <path
         id="path4"
         d="m 12242.5,1082.5 c 0,-198.5 -161.5,-360 -360,-360 h -10800 c -198.508,0 -360,161.5 -360,360 v 10800 c 0,198.5 161.492,360 360,360 h 10800 c 198.5,0 360,-161.5 360,-360 z m -360,11610 h -10800 c -446.637,0 -810,-363.4 -810,-810 v -10800 c 0,-446.602 363.363,-810 810,-810 h 10800 c 446.6,0 810,363.398 810,810 v 10800 c 0,446.6 -363.4,810 -810,810"
         style="fill:#231f20;fill-opacity:1;fill-rule:nonzero;stroke:none"
         transform="matrix(0.13333333,0,0,-0.13333333,0,1728.6667)" />
      <path
         id="path5"
         d="m 6608.43,9688.06 c 207.76,0 377.2,169.47 377.2,377.24 0,207.8 -169.44,377.2 -377.2,377.2 -207.79,0 -377.25,-169.4 -377.25,-377.2 0,-207.77 169.46,-377.24 377.25,-377.24"
         style="fill:#231f20;fill-opacity:1;fill-rule:evenodd;stroke:none"
         transform="matrix(0.13333333,0,0,-0.13333333,0,1728.6667)" />
      <path
         id="path6"
         d="m 3308.86,6333.53 c -43.01,-16.32 -86.99,-26.84 -137.67,2.92 -76.97,23.84 -105.65,75.49 -106.09,137.65 44.92,-11.52 69.76,-37.32 114.7,-48.78 84.13,-38.93 168.23,-27.94 252.37,17.21 243.66,129.17 464.9,280.75 685.39,433.03 23.9,-11.46 47.79,-22.94 71.7,-34.41 -293.47,-169.24 -586.95,-338.38 -880.4,-507.62 z m -57.38,415.83 c 160.61,48.78 302.09,143.39 424.44,283.96 144.33,-1.95 273.39,-45.91 387.16,-131.96 -170.28,-124.95 -344.03,-243.02 -521.94,-352.73 -125.98,-63.28 -251.7,-122.45 -369.95,-54.47 -28.69,15.24 -45.89,38.22 -51.61,68.85 43.97,62.09 87.94,124.25 131.9,186.35 z M 10226.4,3727.57 c -140,379.85 -224.9,794.08 -229.47,1258.49 -21.83,56.84 -43.71,113.69 -65.57,170.46 -143.74,161.83 -276.85,350.08 -386.77,596.53 19.68,30.54 39.37,61.14 59.04,91.75 192.87,-322.95 409.07,-424.73 635.87,-426.12 -169.6,318.25 -246.08,678.82 -229.5,1081.61 79.5,770 -348.79,1167.67 -1284.74,1193 -471.55,-31.61 -955.04,-107.51 -1350.29,144.21 23.55,727.04 -15.4,1421.21 -413,1927.12 -124.33,-75.82 -251.91,-128.72 -386.74,-131.08 -54.6,-277.5 -109.23,-554.96 -163.85,-832.47 -7.01,-50.7 -24.48,-85.68 -52.46,-104.89 -275.29,-211.93 -550.6,-423.87 -825.9,-635.82 83.03,-59 166.06,-117.99 249.07,-177 170.44,104.91 340.86,209.76 511.3,314.67 -10.93,-63.38 -21.86,-126.75 -32.78,-190.12 -17.75,-66.87 -43.96,-108.39 -78.67,-124.55 -117.98,-72.08 -235.97,-144.19 -353.95,-216.3 -74.29,26.23 -148.58,52.45 -222.87,78.67 28.39,30.57 56.82,61.17 85.2,91.77 -65.53,48.08 -131.07,96.16 -196.65,144.23 -65.54,-59.01 -131.09,-117.99 -196.62,-177 -656.17,174.63 -1302.49,319.7 -1927.16,399.84 -49.34,72.09 -111.82,144.21 -203.2,216.3 -17.49,-17.47 -34.97,-34.95 -52.44,-52.4 -34.96,21.84 -69.91,43.68 -104.89,65.53 -4.36,-30.6 -8.72,-61.2 -13.09,-91.76 30.58,-87.44 61.18,-174.82 91.76,-262.21 -201.85,-468 -405.24,-937.17 -511.28,-1330.67 -22.01,-50.22 2.07,-91.33 32.77,-131.08 85.15,-98.45 188.76,-160.01 294.98,-216.3 24.04,4.36 48.07,8.74 72.1,13.09 48,-72.17 114.46,-116.71 183.54,-157.34 59.87,-26.23 114.5,-26.23 163.87,0 305.91,183.61 611.8,367.11 917.68,550.64 72.11,-72.11 144.21,-144.21 216.32,-216.29 51.35,-52.44 92.86,-104.87 124.54,-157.31 48.08,-161.71 96.14,-323.38 144.21,-485.08 23.27,-61.2 29.27,-122.4 32.78,-183.53 -41.52,-279.68 -83.04,-559.35 -124.54,-839.03 -11.96,-37.2 -20.03,-75.64 -36.36,-110.41 -147.86,-314.81 -271.85,-614.78 -408.8,-898.43 -92.69,-192 -283.96,-335.38 -406.99,-505.35 -9.88,-39.87 10.34,-49.37 39.32,-59.04 152.96,0 305.9,0 458.87,0 19.64,15.36 39.32,30.6 58.98,45.95 -0.16,120.91 75.55,206.81 203.2,268.74 27.65,9.89 37.98,45.68 45.89,85.24 79.56,366.56 221.82,728.04 537.5,1075 29.5,35.97 49.15,81.94 58.99,137.59 20.97,95.72 -55.06,110.11 353.97,530.98 270.84,-544.19 575.3,-1071.69 1061.89,-1546.97 22.77,-53.7 65.79,-87.22 118.02,-111.44 20.2,-16.93 35.46,-38.78 45.87,-65.57 15.27,-109.24 30.62,-218.46 45.86,-327.71 3.29,-33.29 16.4,-42.05 39.37,-26.25 117.97,98.37 235.96,196.69 353.96,295 7.64,24.02 5.46,48.03 -6.59,72.13 -45.85,45.86 -91.73,91.73 -137.65,137.59 -19.65,21.85 -39.31,43.72 -58.96,65.6 -17.52,34.96 -34.96,69.9 -52.45,104.84 -17.51,21.84 -34.94,43.67 -52.44,65.53 -195.8,154.65 -328.6,353.41 -426.09,576.86 -40.42,78.62 -71.01,157.36 -91.77,235.98 -20.77,185.7 -48,371.47 -98.32,557.2 694.23,3.16 1279.69,64.96 1625.61,255.64 77.01,-521.94 41.01,-1054.55 -196.62,-1606.01 -46.37,-137.56 -114.22,-272.08 -229.45,-399.83 -104.81,-98.3 -229.96,-191.59 -288.38,-301.5 -22.73,-31.89 7,-50.7 26.21,-72.15 176.96,-2.15 353.97,-4.32 530.92,-6.49 -15.56,58.61 12.1,108.59 45.92,157.28 43.68,26.25 87.4,52.43 131.11,78.69 11.42,2.71 18.01,20.21 19.63,52.39 57.09,337.79 217.8,606.44 393.3,865.27 28.43,32.77 56.82,65.55 85.2,98.32 45.82,82.19 62.36,170.18 59.01,262.19 2.19,59 4.37,117.97 6.54,177 49.29,219.15 114.61,390.4 203.2,491.66 268.75,-249.12 537.5,-498.26 806.26,-747.32 96.15,-76.46 126.75,-218.47 170.46,-347.39 32.76,-183.52 65.53,-367.07 98.29,-550.59 -1.02,-53.85 23.89,-90.49 52.45,-124.58 50.94,-87.38 103.67,-174.75 124.56,-262.15 21.84,-19.7 43.69,-39.37 65.51,-59.04 107.1,-95.37 214.2,-173.48 321.2,-249.08 21.9,128.93 43.7,257.83 65.6,386.74 -56.9,32.78 -113.7,65.54 -170.4,98.33"
         style="fill:#231f20;fill-opacity:1;fill-rule:evenodd;stroke:none"
         transform="matrix(0.13333333,0,0,-0.13333333,0,1728.6667)" />
      <path
         id="path7"
         d="M 10087.5,3641.15 3641.17,10087.5 c 781.53,616.8 1768.44,985 2841.33,985 2534.98,0 4590,-2055.02 4590,-4590 0,-1072.91 -368.1,-2059.8 -985,-2841.35 z M 6482.5,1892.5 c -2534.98,0 -4590,2055.02 -4590,4590 0,1072.9 368.16,2059.8 984.98,2841.33 L 9323.85,2877.5 c -781.55,-616.9 -1768.44,-985 -2841.35,-985 z m 0,10260 c -3131.45,0 -5670,-2538.55 -5670,-5670 0,-3131.46 2538.55,-5670 5670,-5670 3131.46,0 5670,2538.54 5670,5670 0,3131.45 -2538.54,5670 -5670,5670"
         style="fill:#bf2519;fill-opacity:1;fill-rule:nonzero;stroke:none"
         transform="matrix(0.13333333,0,0,-0.13333333,0,1728.6667)" />
    </g>
  </g>
</svg>
