<?xml version="1.0" standalone="no"?>
<svg width="2160px" height="2160px" viewBox="0 -1368 2160 2160 " xmlns="http://www.w3.org/2000/svg" xmlns:xlink="http://www.w3.org/1999/xlink">
<title>generated by pstoedit</title>
<!-- generated by pstoedit version:4.02 -->
<g xml:space='preserve'>
<clipPath id="clippath1"> 	<path d="
	M 0 -1368.5 
	L 0 792 
	L 2160.5 792 
	L 2160.5 -1368.5 
	Z 
	" style="clip-rule:nonzero"/>
</clipPath>
<g style="clip-path:url(#clippath1)"> 
<g fill="#ffffff" fill-rule="nonzero" stroke-width="0" stroke-linejoin="miter" stroke-linecap="butt" stroke-miterlimit="10" >
	<path d="
	M 2160.25 656.75 
	C 2160.25 731.309 2099.81 791.75 2025.25 791.75 
	L 135.25 791.75 
	C 60.6914 791.75 0.25 731.309 0.25 656.75 
	L 0.25 -1233.25 
	C 0.25 -1307.81 60.6914 -1368.25 135.25 -1368.25 
	L 2025.25 -1368.25 
	C 2099.81 -1368.25 2160.25 -1307.81 2160.25 -1233.25 
	Z 
	"/>
</g>
<g stroke="#7f7f7f" fill="none" stroke-width="0.5" stroke-linejoin="miter" stroke-linecap="butt" stroke-miterlimit="4" >
	<path d="
	M 2160.25 656.75 
	C 2160.25 731.309 2099.81 791.75 2025.25 791.75 
	L 135.25 791.75 
	C 60.6914 791.75 0.25 731.309 0.25 656.75 
	L 0.25 -1233.25 
	C 0.25 -1307.81 60.6914 -1368.25 135.25 -1368.25 
	L 2025.25 -1368.25 
	C 2099.81 -1368.25 2160.25 -1307.81 2160.25 -1233.25 
	Z 
	"/>
</g>
<g fill="#7f7f7f" fill-rule="nonzero" stroke-width="0" stroke-linejoin="miter" stroke-linecap="butt" stroke-miterlimit="4" >
	<path d="
	M 2070.25 656.75 
	C 2070.25 681.559 2050.06 701.75 2025.25 701.75 
	L 135.25 701.75 
	C 110.438 701.75 90.25 681.559 90.25 656.75 
	L 90.25 -1233.25 
	C 90.25 -1258.06 110.438 -1278.25 135.25 -1278.25 
	L 2025.25 -1278.25 
	C 2050.06 -1278.25 2070.25 -1258.06 2070.25 -1233.25 
	Z 
	M 2025.25 -1332.25 
	L 135.25 -1332.25 
	C 80.6602 -1332.25 36.25 -1287.84 36.25 -1233.25 
	L 36.25 656.75 
	C 36.25 711.34 80.6602 755.75 135.25 755.75 
	L 2025.25 755.75 
	C 2079.84 755.75 2124.25 711.34 2124.25 656.75 
	L 2124.25 -1233.25 
	C 2124.25 -1287.84 2079.84 -1332.25 2025.25 -1332.25 
	Z 
	"/>
</g>
<g fill="#7f7f7f" fill-rule="evenodd" stroke-width="0" stroke-linejoin="miter" stroke-linecap="butt" stroke-miterlimit="4" >
	<path d="
	M 1553.96 -805.75 
	C 1614.25 -805.75 1656.51 -759.83 1656.51 -733.18 
	C 1656.51 -722.18 1651.62 -715.09 1643.01 -710.54 
	C 1643.37 -707.25 1643.58 -703.89 1643.58 -700.49 
	C 1643.58 -650.99 1603.46 -610.87 1553.96 -610.87 
	C 1504.46 -610.87 1464.34 -650.99 1464.34 -700.49 
	C 1464.34 -709.82 1465.77 -718.8 1468.41 -727.25 
	C 1448.64 -727.25 1436.07 -727.25 1423.97 -727.25 
	C 1382.5 -727.25 1451.77 -805.75 1553.96 -805.75 
	Z 
	"/>
</g>
<g fill="#7f7f7f" fill-rule="evenodd" stroke-width="0" stroke-linejoin="miter" stroke-linecap="butt" stroke-miterlimit="4" >
	<path d="
	M 1242.39 166.379 
	L 1246.83 152.16 
	L 1239.46 130.77 
	L 1288.34 62.449 
	L 1362.39 62.449 
	L 1402.42 107.301 
	L 1486.81 135.23 
	L 1481.2 165.32 
	C 1496.2 168.09 1507.55 181.211 1507.55 197.012 
	C 1507.55 214.809 1493.11 229.25 1475.31 229.25 
	C 1457.5 229.25 1443.07 214.809 1443.07 197.012 
	C 1443.07 197.012 1443.07 197.012 1443.07 197.012 
	L 1433.25 197.012 
	C 1433.25 197.012 1433.25 197.012 1433.25 197.012 
	C 1433.25 214.809 1418.83 229.25 1401.01 229.25 
	C 1383.22 229.25 1368.78 214.809 1368.78 197.012 
	L 1368.78 197.012 
	L 1358.97 197.012 
	L 1358.97 197.012 
	C 1358.97 214.809 1344.53 229.25 1326.73 229.25 
	C 1308.92 229.25 1294.5 214.809 1294.5 197.012 
	L 1294.5 197.012 
	L 1284.68 197.012 
	L 1284.68 197.012 
	C 1284.68 214.809 1270.25 229.25 1252.44 229.25 
	C 1234.64 229.25 1220.2 214.809 1220.2 197.012 
	C 1220.2 182.719 1229.51 170.609 1242.39 166.379 
	Z 
	"/>
</g>
<g fill="#7f7f7f" fill-rule="evenodd" stroke-width="0" stroke-linejoin="miter" stroke-linecap="butt" stroke-miterlimit="4" >
	<path d="
	M 446.313 67.34 
	C 446.336 60.891 448.285 54.391 452.316 48.75 
	C 460.621 37.109 475.227 32.68 488.16 36.73 
	L 500.063 27.719 
	L 506.48 6.03101 
	L 585.961 -21.16 
	L 646.23 21.891 
	L 652.738 81.648 
	L 705.18 153.422 
	L 683.121 174.66 
	C 693.699 185.629 695.32 202.891 686.148 215.75 
	C 675.797 230.238 655.668 233.59 641.176 223.238 
	C 626.688 212.891 623.328 192.762 633.676 178.27 
	L 625.691 172.559 
	L 625.691 172.57 
	C 615.348 187.051 595.211 190.41 580.719 180.07 
	C 566.23 169.719 562.867 149.59 573.219 135.102 
	L 573.219 135.102 
	L 565.234 129.398 
	L 565.234 129.398 
	C 554.887 143.891 534.762 147.238 520.262 136.898 
	C 505.777 126.539 502.422 106.41 512.77 91.922 
	L 504.785 86.211 
	L 504.785 86.211 
	C 494.438 100.699 474.305 104.059 459.816 93.711 
	C 450.973 87.398 446.273 77.43 446.313 67.34 
	Z 
	"/>
</g>
<g fill="#7f7f7f" fill-rule="nonzero" stroke-width="0" stroke-linejoin="miter" stroke-linecap="butt" stroke-miterlimit="4" >
	<path d="
	M 978.891 -347.37 
	C 959.637 -414.02 1228.17 -603.84 1253.34 -618.65 
	L 979.828 -611.85 
	L 951.688 -655.93 
	C 951.688 -655.93 1273.08 -698.12 1309.96 -699.07 
	C 1395.03 -701.26 1440.83 -666.71 1473.14 -628.73 
	C 1527.86 -564.44 1520.44 -478.48 1521.92 -435.53 
	L 1714.19 -398.95 
	L 1690.74 -352.05 
	L 1463.45 -361.27 
	L 1448.77 -475.86 
	L 1208.68 -324.86 
	L 1394.37 -203.879 
	L 1364.64 43.699 
	L 1286.57 43.699 
	L 1266.81 -167.301 
	L 1075.49 -244.2 
	L 663.512 11.18 
	L 600.938 -33.52 
	Z 
	"/>
</g>
<g fill="#7f88e1" fill-rule="nonzero" stroke-width="0" stroke-linejoin="miter" stroke-linecap="butt" stroke-miterlimit="4" >
	<path d="
	M 1681.09 185.309 
	L 606.691 -889.09 
	C 736.949 -991.89 901.434 -1053.25 1080.25 -1053.25 
	C 1502.75 -1053.25 1845.25 -710.75 1845.25 -288.25 
	C 1845.25 -109.43 1783.89 55.051 1681.09 185.309 
	Z 
	M 1080.25 476.75 
	C 657.754 476.75 315.25 134.25 315.25 -288.25 
	C 315.25 -467.07 376.609 -631.55 479.41 -761.81 
	L 1553.81 312.59 
	C 1423.55 415.391 1259.07 476.75 1080.25 476.75 
	Z 
	M 1080.25 -1233.25 
	C 558.34 -1233.25 135.25 -810.16 135.25 -288.25 
	C 135.25 233.66 558.34 656.75 1080.25 656.75 
	C 1602.16 656.75 2025.25 233.66 2025.25 -288.25 
	C 2025.25 -810.16 1602.16 -1233.25 1080.25 -1233.25 
	Z 
	"/>
</g>
</g >
</g>
</svg>
