<?xml version="1.0" standalone="no"?>
<svg width="1296px" height="1296px" viewBox="0 -504 1296 1296 " xmlns="http://www.w3.org/2000/svg" xmlns:xlink="http://www.w3.org/1999/xlink">
<title>generated by pstoedit</title>
<!-- generated by pstoedit version:4.02 -->
<g xml:space='preserve'>
<clipPath id="clippath1"> 	<path d="
	M 0 -504.5 
	L 0 792 
	L 1296.5 792 
	L 1296.5 -504.5 
	Z 
	" style="clip-rule:nonzero"/>
</clipPath>
<g style="clip-path:url(#clippath1)"> 
<g fill="#ffffff" fill-rule="nonzero" stroke-width="0" stroke-linejoin="miter" stroke-linecap="butt" stroke-miterlimit="10" >
	<path d="
	M 1296.25 683.75 
	C 1296.25 743.398 1247.9 791.75 1188.25 791.75 
	L 108.25 791.75 
	C 48.6016 791.75 0.25 743.398 0.25 683.75 
	L 0.25 -396.25 
	C 0.25 -455.9 48.6016 -504.25 108.25 -504.25 
	L 1188.25 -504.25 
	C 1247.9 -504.25 1296.25 -455.9 1296.25 -396.25 
	Z 
	"/>
</g>
<g stroke="#7f7f7f" fill="none" stroke-width="0.5" stroke-linejoin="miter" stroke-linecap="butt" stroke-miterlimit="4" >
	<path d="
	M 1296.25 683.75 
	C 1296.25 743.398 1247.9 791.75 1188.25 791.75 
	L 108.25 791.75 
	C 48.6016 791.75 0.25 743.398 0.25 683.75 
	L 0.25 -396.25 
	C 0.25 -455.9 48.6016 -504.25 108.25 -504.25 
	L 1188.25 -504.25 
	C 1247.9 -504.25 1296.25 -455.9 1296.25 -396.25 
	Z 
	"/>
</g>
<g fill="#7f7f7f" fill-rule="nonzero" stroke-width="0" stroke-linejoin="miter" stroke-linecap="butt" stroke-miterlimit="4" >
	<path d="
	M 1224.25 683.75 
	C 1224.25 703.602 1208.1 719.75 1188.25 719.75 
	L 108.25 719.75 
	C 88.3984 719.75 72.25 703.602 72.25 683.75 
	L 72.25 -396.25 
	C 72.25 -416.1 88.3984 -432.25 108.25 -432.25 
	L 1188.25 -432.25 
	C 1208.1 -432.25 1224.25 -416.1 1224.25 -396.25 
	Z 
	M 1188.25 -477.25 
	L 108.25 -477.25 
	C 63.5859 -477.25 27.25 -440.91 27.25 -396.25 
	L 27.25 683.75 
	C 27.25 728.41 63.5859 764.75 108.25 764.75 
	L 1188.25 764.75 
	C 1232.91 764.75 1269.25 728.41 1269.25 683.75 
	L 1269.25 -396.25 
	C 1269.25 -440.91 1232.91 -477.25 1188.25 -477.25 
	Z 
	"/>
</g>
<g fill="#7f7f7f" fill-rule="evenodd" stroke-width="0" stroke-linejoin="miter" stroke-linecap="butt" stroke-miterlimit="4" >
	<path d="
	M 660.844 -176.805 
	C 681.617 -176.805 698.563 -193.754 698.563 -214.53 
	C 698.563 -235.3 681.617 -252.25 660.844 -252.25 
	C 640.063 -252.25 623.117 -235.3 623.117 -214.53 
	C 623.117 -193.754 640.063 -176.805 660.844 -176.805 
	Z 
	"/>
</g>
<g fill="#7f7f7f" fill-rule="evenodd" stroke-width="0" stroke-linejoin="miter" stroke-linecap="butt" stroke-miterlimit="4" >
	<path d="
	M 330.887 158.648 
	C 326.586 160.277 322.188 161.332 317.117 158.355 
	C 309.422 155.973 306.555 150.805 306.512 144.59 
	C 311.004 145.742 313.484 148.32 317.98 149.469 
	C 326.395 153.359 334.805 152.262 343.219 147.746 
	C 367.582 134.828 389.707 119.672 411.758 104.445 
	C 414.145 105.59 416.535 106.738 418.926 107.887 
	C 389.578 124.809 360.23 141.723 330.887 158.648 
	Z 
	M 325.148 117.062 
	C 341.211 112.187 355.355 102.727 367.594 88.668 
	C 382.023 88.863 394.93 93.258 406.309 101.863 
	C 389.281 114.359 371.906 126.168 354.113 137.137 
	C 341.516 143.465 328.945 149.383 317.117 142.586 
	C 314.25 141.059 312.531 138.762 311.957 135.699 
	C 316.355 129.488 320.754 123.273 325.148 117.062 
	Z 
	M 1022.64 419.242 
	C 1008.64 381.258 1000.15 339.836 999.691 293.395 
	C 997.512 287.711 995.32 282.023 993.137 276.348 
	C 978.762 260.164 965.449 241.34 954.461 216.695 
	C 956.426 213.641 958.395 210.582 960.363 207.52 
	C 979.648 239.816 1001.27 249.992 1023.95 250.133 
	C 1006.99 218.309 999.344 182.25 1001 141.973 
	C 1008.95 64.973 966.121 25.203 872.527 22.672 
	C 825.371 25.832 777.023 33.422 737.496 8.25 
	C 739.852 -64.453 735.957 -133.871 696.195 -184.461 
	C 683.766 -176.879 671.008 -171.59 657.523 -171.355 
	C 652.063 -143.605 646.602 -115.859 641.137 -88.105 
	C 640.438 -83.035 638.691 -79.539 635.891 -77.617 
	C 608.363 -56.426 580.832 -35.23 553.301 -14.035 
	C 561.605 -8.13702 569.906 -2.23798 578.211 3.664 
	C 595.254 -6.828 612.297 -17.313 629.34 -27.805 
	C 628.246 -21.465 627.152 -15.129 626.063 -8.789 
	C 624.285 -2.10498 621.664 2.047 618.195 3.664 
	C 606.395 10.871 594.598 18.082 582.801 25.293 
	C 575.371 22.672 567.941 20.051 560.512 17.426 
	C 563.352 14.371 566.195 11.309 569.031 8.25 
	C 562.48 3.44098 555.926 -1.367 549.367 -6.172 
	C 542.813 -0.27301 536.258 5.625 529.703 11.527 
	C 464.09 -5.93799 399.457 -20.441 336.988 -28.457 
	C 332.055 -35.664 325.809 -42.879 316.668 -50.086 
	C 314.922 -48.34 313.172 -46.594 311.426 -44.848 
	C 307.93 -47.031 304.434 -49.215 300.938 -51.398 
	C 300.5 -48.34 300.063 -45.281 299.629 -42.223 
	C 302.684 -33.48 305.746 -24.742 308.805 -16.004 
	C 288.617 30.797 268.277 77.715 257.676 117.062 
	C 255.473 122.086 257.883 126.195 260.953 130.172 
	C 269.469 140.016 279.828 146.172 290.449 151.801 
	C 292.855 151.367 295.258 150.93 297.66 150.492 
	C 302.461 157.711 309.105 162.164 316.016 166.227 
	C 322 168.852 327.465 168.852 332.402 166.227 
	C 362.992 147.867 393.582 129.516 424.168 111.164 
	C 431.379 118.375 438.59 125.586 445.801 132.793 
	C 450.938 138.035 455.086 143.277 458.254 148.523 
	C 463.063 164.695 467.867 180.859 472.676 197.031 
	C 475.004 203.152 475.602 209.27 475.953 215.383 
	C 471.801 243.352 467.648 271.32 463.5 299.285 
	C 462.305 303.008 461.496 306.852 459.863 310.328 
	C 445.078 341.809 432.68 371.805 418.984 400.172 
	C 409.715 419.371 390.59 433.711 378.285 450.707 
	C 377.297 454.691 379.32 455.645 382.219 456.609 
	C 397.512 456.609 412.809 456.609 428.105 456.609 
	C 430.066 455.074 432.035 453.551 434.004 452.016 
	C 433.984 439.926 441.559 431.336 454.32 425.141 
	C 457.086 424.152 458.121 420.574 458.91 416.617 
	C 466.867 379.961 481.094 343.812 512.66 309.117 
	C 515.609 305.52 517.574 300.922 518.559 295.359 
	C 520.656 285.785 513.055 284.348 553.957 242.262 
	C 581.043 296.68 611.488 349.43 660.145 396.957 
	C 662.422 402.328 666.727 405.68 671.949 408.102 
	C 673.969 409.793 675.492 411.98 676.535 414.656 
	C 678.063 425.582 679.598 436.504 681.121 447.43 
	C 681.449 450.758 682.762 451.633 685.059 450.055 
	C 696.855 440.219 708.652 430.387 720.453 420.555 
	C 721.219 418.152 721 415.75 719.797 413.34 
	C 715.211 408.754 710.621 404.168 706.031 399.582 
	C 704.066 397.398 702.098 395.211 700.133 393.023 
	C 698.383 389.527 696.637 386.031 694.891 382.539 
	C 693.137 380.355 691.395 378.172 689.645 375.984 
	C 670.066 360.52 656.785 340.645 647.035 318.301 
	C 642.992 310.437 639.934 302.562 637.859 294.699 
	C 635.781 276.133 633.059 257.555 628.027 238.98 
	C 697.449 238.664 755.996 232.484 790.59 213.418 
	C 798.289 265.609 794.688 318.871 770.926 374.02 
	C 766.289 387.773 759.504 401.227 747.98 414 
	C 737.5 423.832 724.984 433.16 719.145 444.152 
	C 716.871 447.34 719.844 449.223 721.766 451.367 
	C 739.461 451.582 757.16 451.797 774.855 452.016 
	C 773.301 446.152 776.066 441.156 779.449 436.285 
	C 783.816 433.66 788.188 431.043 792.559 428.418 
	C 793.699 428.148 794.359 426.398 794.523 423.18 
	C 800.23 389.398 816.301 362.535 833.852 336.652 
	C 836.695 333.375 839.535 330.098 842.371 326.82 
	C 846.953 318.602 848.609 309.801 848.273 300.602 
	C 848.492 294.699 848.711 288.805 848.926 282.902 
	C 853.855 260.984 860.387 243.859 869.246 233.734 
	C 896.121 258.648 922.996 283.562 949.871 308.469 
	C 959.488 316.113 962.547 330.312 966.918 343.207 
	C 970.195 361.559 973.473 379.914 976.746 398.266 
	C 976.645 403.648 979.137 407.312 981.992 410.723 
	C 987.086 419.461 992.359 428.199 994.449 436.937 
	C 996.633 438.906 998.816 440.875 1001 442.844 
	C 1011.71 452.379 1022.42 460.191 1033.12 467.75 
	C 1035.31 454.855 1037.49 441.969 1039.68 429.074 
	C 1033.99 425.797 1028.31 422.523 1022.64 419.242 
	Z 
	"/>
</g>
<g fill="#7f88e1" fill-rule="nonzero" stroke-width="0" stroke-linejoin="miter" stroke-linecap="butt" stroke-miterlimit="4" >
	<path d="
	M 1008.75 427.887 
	L 364.117 -216.75 
	C 442.27 -278.43 540.961 -315.25 648.25 -315.25 
	C 901.746 -315.25 1107.25 -109.746 1107.25 143.75 
	C 1107.25 251.043 1070.44 349.73 1008.75 427.887 
	Z 
	M 648.25 602.75 
	C 394.754 602.75 189.25 397.246 189.25 143.75 
	C 189.25 36.461 226.066 -62.23 287.746 -140.383 
	L 932.387 504.25 
	C 854.23 565.941 755.543 602.75 648.25 602.75 
	Z 
	M 648.25 -423.25 
	C 335.105 -423.25 81.25 -169.395 81.25 143.75 
	C 81.25 456.895 335.105 710.75 648.25 710.75 
	C 961.395 710.75 1215.25 456.895 1215.25 143.75 
	C 1215.25 -169.395 961.395 -423.25 648.25 -423.25 
	Z 
	"/>
</g>
</g >
</g>
</svg>
