<?xml version="1.0" standalone="no"?>
<svg width="2160px" height="2160px" viewBox="0 -1368 2160 2160 " xmlns="http://www.w3.org/2000/svg" xmlns:xlink="http://www.w3.org/1999/xlink">
<title>generated by pstoedit</title>
<!-- generated by pstoedit version:4.02 -->
<g xml:space='preserve'>
<clipPath id="clippath1"> 	<path d="
	M 0 -1368.5 
	L 0 792 
	L 2160.5 792 
	L 2160.5 -1368.5 
	Z 
	" style="clip-rule:nonzero"/>
</clipPath>
<g style="clip-path:url(#clippath1)"> 
<g fill="#ffffff" fill-rule="nonzero" stroke-width="0" stroke-linejoin="miter" stroke-linecap="butt" stroke-miterlimit="10" >
	<path d="
	M 2160.25 656.75 
	C 2160.25 731.309 2099.81 791.75 2025.25 791.75 
	L 135.25 791.75 
	C 60.6914 791.75 0.25 731.309 0.25 656.75 
	L 0.25 -1233.25 
	C 0.25 -1307.81 60.6914 -1368.25 135.25 -1368.25 
	L 2025.25 -1368.25 
	C 2099.81 -1368.25 2160.25 -1307.81 2160.25 -1233.25 
	Z 
	"/>
</g>
<g stroke="#7f7f7f" fill="none" stroke-width="0.5" stroke-linejoin="miter" stroke-linecap="butt" stroke-miterlimit="4" >
	<path d="
	M 2160.25 656.75 
	C 2160.25 731.309 2099.81 791.75 2025.25 791.75 
	L 135.25 791.75 
	C 60.6914 791.75 0.25 731.309 0.25 656.75 
	L 0.25 -1233.25 
	C 0.25 -1307.81 60.6914 -1368.25 135.25 -1368.25 
	L 2025.25 -1368.25 
	C 2099.81 -1368.25 2160.25 -1307.81 2160.25 -1233.25 
	Z 
	"/>
</g>
<g fill="#7f7f7f" fill-rule="nonzero" stroke-width="0" stroke-linejoin="miter" stroke-linecap="butt" stroke-miterlimit="4" >
	<path d="
	M 2070.25 656.75 
	C 2070.25 681.559 2050.06 701.75 2025.25 701.75 
	L 135.25 701.75 
	C 110.438 701.75 90.25 681.559 90.25 656.75 
	L 90.25 -1233.25 
	C 90.25 -1258.06 110.438 -1278.25 135.25 -1278.25 
	L 2025.25 -1278.25 
	C 2050.06 -1278.25 2070.25 -1258.06 2070.25 -1233.25 
	Z 
	M 2025.25 -1332.25 
	L 135.25 -1332.25 
	C 80.6602 -1332.25 36.25 -1287.84 36.25 -1233.25 
	L 36.25 656.75 
	C 36.25 711.34 80.6602 755.75 135.25 755.75 
	L 2025.25 755.75 
	C 2079.84 755.75 2124.25 711.34 2124.25 656.75 
	L 2124.25 -1233.25 
	C 2124.25 -1287.84 2079.84 -1332.25 2025.25 -1332.25 
	Z 
	"/>
</g>
<g fill="#7f7f7f" fill-rule="evenodd" stroke-width="0" stroke-linejoin="miter" stroke-linecap="butt" stroke-miterlimit="4" >
	<path d="
	M 1101.03 -820.77 
	C 1135.31 -820.77 1163.27 -848.73 1163.27 -883.01 
	C 1163.27 -917.29 1135.31 -945.25 1101.03 -945.25 
	C 1066.74 -945.25 1038.78 -917.29 1038.78 -883.01 
	C 1038.78 -848.73 1066.74 -820.77 1101.03 -820.77 
	Z 
	"/>
</g>
<g fill="#7f7f7f" fill-rule="evenodd" stroke-width="0" stroke-linejoin="miter" stroke-linecap="butt" stroke-miterlimit="4" >
	<path d="
	M 556.598 -267.27 
	C 549.504 -264.58 542.246 -262.84 533.883 -267.75 
	C 521.184 -271.69 516.453 -280.21 516.379 -290.46 
	C 523.793 -288.56 527.891 -284.31 535.305 -282.42 
	C 549.184 -275.99 563.063 -277.81 576.945 -285.25 
	C 617.148 -306.57 653.652 -331.58 690.035 -356.7 
	C 693.977 -354.81 697.922 -352.92 701.863 -351.03 
	C 653.441 -323.1 605.016 -295.2 556.598 -267.27 
	Z 
	M 547.133 -335.88 
	C 573.633 -343.93 596.977 -359.54 617.164 -382.73 
	C 640.98 -382.41 662.273 -375.16 681.047 -360.96 
	C 652.949 -340.34 624.281 -320.86 594.926 -302.76 
	C 574.137 -292.32 553.395 -282.56 533.883 -293.77 
	C 529.148 -296.29 526.313 -300.08 525.367 -305.13 
	C 532.625 -315.38 539.879 -325.63 547.133 -335.88 
	Z 
	M 1697.99 162.711 
	C 1674.89 100.039 1660.88 31.691 1660.13 -44.941 
	C 1656.53 -54.32 1652.92 -63.699 1649.31 -73.059 
	C 1625.59 -99.762 1603.63 -130.828 1585.49 -171.488 
	C 1588.74 -176.531 1591.99 -181.578 1595.24 -186.629 
	C 1627.06 -133.34 1662.73 -116.551 1700.15 -116.32 
	C 1672.17 -168.828 1659.55 -228.33 1662.29 -294.79 
	C 1675.4 -421.84 1604.74 -487.45 1450.31 -491.63 
	C 1372.5 -486.41 1292.72 -473.89 1227.51 -515.43 
	C 1231.39 -635.39 1224.97 -749.93 1159.36 -833.4 
	C 1138.85 -820.89 1117.8 -812.16 1095.55 -811.77 
	C 1086.54 -765.98 1077.53 -720.2 1068.52 -674.41 
	C 1067.36 -666.05 1064.47 -660.28 1059.86 -657.11 
	C 1014.44 -622.14 969.012 -587.17 923.586 -552.2 
	C 937.285 -542.46 950.984 -532.73 964.684 -522.99 
	C 992.805 -540.3 1020.92 -557.6 1049.05 -574.91 
	C 1047.24 -564.45 1045.44 -554 1043.64 -543.54 
	C 1040.71 -532.51 1036.38 -525.66 1030.66 -522.99 
	C 1011.19 -511.1 991.723 -499.2 972.254 -487.3 
	C 959.996 -491.63 947.742 -495.96 935.48 -500.29 
	C 940.168 -505.33 944.859 -510.38 949.543 -515.43 
	C 938.727 -523.36 927.914 -531.29 917.094 -539.22 
	C 906.277 -529.48 895.461 -519.75 884.648 -510.02 
	C 776.383 -538.83 669.738 -562.77 566.668 -575.99 
	C 558.527 -587.89 548.219 -599.79 533.141 -611.68 
	C 530.254 -608.8 527.371 -605.91 524.488 -603.04 
	C 518.719 -606.64 512.953 -610.24 507.18 -613.85 
	C 506.461 -608.8 505.742 -603.75 505.02 -598.71 
	C 510.066 -584.28 515.113 -569.86 520.16 -555.44 
	C 486.855 -478.22 453.297 -400.81 435.801 -335.88 
	C 432.168 -327.6 436.145 -320.81 441.211 -314.25 
	C 455.258 -298.01 472.355 -287.85 489.879 -278.56 
	C 493.844 -279.28 497.813 -280.01 501.777 -280.72 
	C 509.699 -268.82 520.66 -261.47 532.059 -254.76 
	C 541.938 -250.44 550.953 -250.44 559.098 -254.76 
	C 609.574 -285.06 660.043 -315.34 710.516 -345.62 
	C 722.414 -333.72 734.313 -321.82 746.207 -309.93 
	C 754.68 -301.28 761.531 -292.63 766.758 -283.97 
	C 774.691 -257.29 782.621 -230.62 790.551 -203.941 
	C 794.391 -193.84 795.383 -183.738 795.961 -173.648 
	C 789.109 -127.512 782.262 -81.359 775.41 -35.211 
	C 773.438 -29.078 772.105 -22.73 769.41 -17 
	C 745.016 34.949 724.559 84.441 701.961 131.238 
	C 686.668 162.922 655.105 186.578 634.809 214.629 
	C 633.176 221.211 636.516 222.77 641.297 224.371 
	C 666.531 224.371 691.77 224.371 717.008 224.371 
	C 720.25 221.828 723.496 219.32 726.742 216.789 
	C 726.715 196.84 739.207 182.66 760.27 172.441 
	C 764.832 170.809 766.535 164.91 767.84 158.379 
	C 780.969 97.898 804.441 38.25 856.527 -19 
	C 861.395 -24.93 864.637 -32.512 866.262 -41.699 
	C 869.723 -57.488 857.176 -59.871 924.668 -129.309 
	C 969.355 -39.52 1019.59 47.52 1099.88 125.941 
	C 1103.63 134.801 1110.73 140.328 1119.35 144.328 
	C 1122.68 147.121 1125.2 150.73 1126.92 155.148 
	C 1129.44 173.172 1131.97 191.191 1134.49 209.219 
	C 1135.03 214.711 1137.19 216.16 1140.98 213.551 
	C 1160.45 197.32 1179.92 181.102 1199.39 164.879 
	C 1200.65 160.91 1200.29 156.949 1198.3 152.98 
	C 1190.73 145.41 1183.16 137.84 1175.59 130.27 
	C 1172.34 126.672 1169.1 123.059 1165.86 119.449 
	C 1162.97 113.68 1160.09 107.922 1157.2 102.148 
	C 1154.31 98.551 1151.44 94.941 1148.55 91.34 
	C 1116.25 65.82 1094.33 33.02 1078.25 -3.84003 
	C 1071.58 -16.82 1066.53 -29.809 1063.1 -42.781 
	C 1059.68 -73.422 1055.18 -104.07 1046.88 -134.719 
	C 1161.43 -135.238 1258.03 -145.441 1315.11 -176.898 
	C 1327.81 -90.781 1321.88 -2.89801 1282.66 88.09 
	C 1275.01 110.789 1263.82 132.98 1244.81 154.059 
	C 1227.51 170.281 1206.86 185.68 1197.22 203.809 
	C 1193.47 209.07 1198.38 212.18 1201.55 215.719 
	C 1230.75 216.07 1259.95 216.43 1289.15 216.789 
	C 1286.58 207.121 1291.15 198.871 1296.73 190.84 
	C 1303.93 186.5 1311.15 182.191 1318.36 177.852 
	C 1320.24 177.41 1321.33 174.52 1321.6 169.211 
	C 1331.02 113.469 1357.54 69.148 1386.49 26.441 
	C 1391.18 21.031 1395.87 15.621 1400.55 10.219 
	C 1408.11 -3.35199 1410.84 -17.859 1410.29 -33.051 
	C 1410.65 -42.781 1411.01 -52.512 1411.37 -62.25 
	C 1419.5 -98.41 1430.28 -126.672 1444.89 -143.371 
	C 1489.24 -102.27 1533.58 -61.16 1577.93 -20.07 
	C 1593.79 -7.44897 1598.84 15.98 1606.05 37.25 
	C 1611.46 67.531 1616.87 97.82 1622.27 128.102 
	C 1622.1 136.988 1626.21 143.031 1630.93 148.648 
	C 1639.33 163.07 1648.03 177.488 1651.48 191.91 
	C 1655.08 195.16 1658.69 198.41 1662.29 201.648 
	C 1679.96 217.391 1697.63 230.281 1715.29 242.75 
	C 1718.9 221.48 1722.5 200.211 1726.11 178.941 
	C 1716.72 173.531 1707.36 168.129 1697.99 162.711 
	Z 
	"/>
</g>
<g fill="#7f88e1" fill-rule="nonzero" stroke-width="0" stroke-linejoin="miter" stroke-linecap="butt" stroke-miterlimit="4" >
	<path d="
	M 1681.09 185.309 
	L 606.695 -889.09 
	C 736.949 -991.89 901.434 -1053.25 1080.25 -1053.25 
	C 1502.75 -1053.25 1845.25 -710.75 1845.25 -288.25 
	C 1845.25 -109.43 1783.89 55.051 1681.09 185.309 
	Z 
	M 1080.25 476.75 
	C 657.754 476.75 315.25 134.25 315.25 -288.25 
	C 315.25 -467.07 376.609 -631.55 479.414 -761.8 
	L 1553.81 312.59 
	C 1423.55 415.391 1259.07 476.75 1080.25 476.75 
	Z 
	M 1080.25 -1233.25 
	C 558.344 -1233.25 135.25 -810.16 135.25 -288.25 
	C 135.25 233.66 558.344 656.75 1080.25 656.75 
	C 1602.16 656.75 2025.25 233.66 2025.25 -288.25 
	C 2025.25 -810.16 1602.16 -1233.25 1080.25 -1233.25 
	Z 
	"/>
</g>
</g >
</g>
</svg>
