<?xml version="1.0" encoding="UTF-8" standalone="no"?>
<!-- Created with Inkscape (http://www.inkscape.org/) -->

<svg
   version="1.1"
   id="svg1"
   width="1728.6667"
   height="1728.6667"
   viewBox="0 0 1728.6667 1728.6667"
   sodipodi:docname="tmpjzw2t1du.pdf"
   xmlns:inkscape="http://www.inkscape.org/namespaces/inkscape"
   xmlns:sodipodi="http://sodipodi.sourceforge.net/DTD/sodipodi-0.dtd"
   xmlns="http://www.w3.org/2000/svg"
   xmlns:svg="http://www.w3.org/2000/svg">
  <defs
     id="defs1" />
  <sodipodi:namedview
     id="namedview1"
     pagecolor="#ffffff"
     bordercolor="#000000"
     borderopacity="0.25"
     inkscape:showpageshadow="2"
     inkscape:pageopacity="0.0"
     inkscape:pagecheckerboard="0"
     inkscape:deskcolor="#d1d1d1">
    <inkscape:page
       x="0"
       y="0"
       inkscape:label="1"
       id="page1"
       width="1728.6667"
       height="1728.6667"
       margin="0"
       bleed="0" />
  </sodipodi:namedview>
  <g
     id="g1"
     inkscape:groupmode="layer"
     inkscape:label="1">
    <g
       id="group-R5">
      <path
         id="path2"
         d="M 12962.5,1082.5 C 12962.5,486 12479,2.5 11882.5,2.5 H 1082.5 C 486.035,2.5 2.5,486 2.5,1082.5 v 10800 c 0,596.5 483.535,1080 1080,1080 h 10800 c 596.5,0 1080,-483.5 1080,-1080 v -10800"
         style="fill:#ffffff;fill-opacity:1;fill-rule:nonzero;stroke:none"
         transform="matrix(0.13333333,0,0,-0.13333333,0,1728.6667)" />
      <path
         id="path3"
         d="M 12962.5,1082.5 C 12962.5,486 12479,2.5 11882.5,2.5 H 1082.5 C 486.035,2.5 2.5,486 2.5,1082.5 v 10800 c 0,596.5 483.535,1080 1080,1080 h 10800 c 596.5,0 1080,-483.5 1080,-1080 z"
         style="fill:none;stroke:#231f20;stroke-width:5;stroke-linecap:butt;stroke-linejoin:miter;stroke-miterlimit:4;stroke-dasharray:none;stroke-opacity:1"
         transform="matrix(0.13333333,0,0,-0.13333333,0,1728.6667)" />
      <path
         id="path4"
         d="m 12242.5,1082.5 c 0,-198.5 -161.5,-360 -360,-360 h -10800 c -198.508,0 -360,161.5 -360,360 v 10800 c 0,198.5 161.492,360 360,360 h 10800 c 198.5,0 360,-161.5 360,-360 z m -360,11610 h -10800 c -446.637,0 -810,-363.4 -810,-810 v -10800 c 0,-446.602 363.363,-810 810,-810 h 10800 c 446.6,0 810,363.398 810,810 v 10800 c 0,446.6 -363.4,810 -810,810"
         style="fill:#231f20;fill-opacity:1;fill-rule:nonzero;stroke:none"
         transform="matrix(0.13333333,0,0,-0.13333333,0,1728.6667)" />
      <path
         id="path5"
         d="m 9324.78,9587.5 c 361.75,0 615.27,-275.5 615.27,-435.45 0,-65.96 -29.34,-108.52 -81,-135.8 2.17,-19.79 3.46,-39.91 3.46,-60.29 0,-297.02 -240.74,-537.75 -537.73,-537.75 -297,0 -537.72,240.73 -537.72,537.75 0,55.93 8.56,109.85 24.36,160.53 -118.58,0 -193.99,0 -266.57,0 -248.88,0 166.74,471.01 779.93,471.01"
         style="fill:#231f20;fill-opacity:1;fill-rule:evenodd;stroke:none"
         transform="matrix(0.13333333,0,0,-0.13333333,0,1728.6667)" />
      <path
         id="path6"
         d="m 7455.36,3754.75 26.62,85.29 -44.22,128.3 293.27,409.94 h 444.31 l 240.2,-269.08 506.29,-167.56 -33.64,-180.59 c 89.98,-16.56 158.07,-95.35 158.07,-190.13 0,-106.78 -86.62,-193.42 -193.4,-193.42 -106.87,0 -193.46,86.64 -193.46,193.42 0,0 0,0 0,0.02 h -58.88 c 0,-0.02 0,-0.02 0,-0.02 0,-106.78 -86.56,-193.42 -193.44,-193.42 -106.8,0 -193.42,86.64 -193.42,193.42 v 0 h -58.85 v 0 c 0,-106.78 -86.62,-193.42 -193.43,-193.42 -106.88,0 -193.4,86.64 -193.4,193.42 v 0 h -58.93 v 0 c 0,-106.78 -86.54,-193.42 -193.42,-193.42 -106.77,0 -193.43,86.64 -193.43,193.42 0,85.76 55.86,158.45 133.16,183.83"
         style="fill:#231f20;fill-opacity:1;fill-rule:evenodd;stroke:none"
         transform="matrix(0.13333333,0,0,-0.13333333,0,1728.6667)" />
      <path
         id="path7"
         d="m 2678.86,4348.96 c 0.15,38.68 11.85,77.66 36.03,111.53 49.85,69.82 137.44,96.4 215.08,72.15 l 71.39,54.02 38.51,130.16 476.88,163.14 361.64,-258.28 39.02,-358.57 314.65,-430.61 -132.34,-127.46 c 63.48,-65.8 73.2,-169.38 18.16,-246.52 -62.13,-86.96 -182.89,-107.07 -269.82,-44.95 -86.94,62.09 -107.1,182.86 -45,269.81 l -47.91,34.24 v 0 c -62.08,-86.96 -182.89,-107.11 -269.83,-45 -86.93,62.07 -107.11,182.85 -45.02,269.76 h 0.02 l -47.92,34.24 v 0 c -62.08,-86.93 -182.83,-107.09 -269.83,-45 -86.92,62.15 -107.04,182.93 -44.94,269.86 l -47.91,34.24 v -0.02 c -62.09,-86.91 -182.89,-107.07 -269.83,-44.98 -53.06,37.89 -81.25,97.68 -81.03,158.24"
         style="fill:#231f20;fill-opacity:1;fill-rule:evenodd;stroke:none"
         transform="matrix(0.13333333,0,0,-0.13333333,0,1728.6667)" />
      <path
         id="path8"
         d="m 5874.33,6837.21 c -115.51,399.92 1495.66,1538.83 1646.71,1627.7 l -1641.08,-40.81 -168.85,264.47 c 0,0 1928.37,253.14 2149.66,258.85 510.41,13.14 785.22,-194.15 979.06,-422.03 328.34,-385.77 283.81,-901.49 292.7,-1159.22 l 1153.57,-219.48 -140.7,-281.38 -1363.73,55.33 -88.05,687.5 L 7253.06,6702.15 8367.2,5976.27 8188.82,4490.82 H 7720.44 L 7601.87,5756.78 6453.94,6218.2 3982.06,4685.94 3606.63,4954.1 5874.33,6837.21"
         style="fill:#231f20;fill-opacity:1;fill-rule:nonzero;stroke:none"
         transform="matrix(0.13333333,0,0,-0.13333333,0,1728.6667)" />
      <path
         id="path9"
         d="M 10087.5,3641.15 3641.17,10087.5 c 781.53,616.8 1768.44,985 2841.33,985 2534.98,0 4590,-2055.02 4590,-4590 0,-1072.91 -368.1,-2059.8 -985,-2841.35 z M 6482.5,1892.5 c -2534.98,0 -4590,2055.02 -4590,4590 0,1072.9 368.16,2059.8 984.98,2841.33 L 9323.85,2877.5 c -781.55,-616.9 -1768.44,-985 -2841.35,-985 z m 0,10260 c -3131.45,0 -5670,-2538.55 -5670,-5670 0,-3131.46 2538.55,-5670 5670,-5670 3131.46,0 5670,2538.54 5670,5670 0,3131.45 -2538.54,5670 -5670,5670"
         style="fill:#bf2519;fill-opacity:1;fill-rule:nonzero;stroke:none"
         transform="matrix(0.13333333,0,0,-0.13333333,0,1728.6667)" />
    </g>
  </g>
</svg>
