<?xml version="1.0" encoding="UTF-8" standalone="no"?>
<!-- Created with Inkscape (http://www.inkscape.org/) -->

<svg
   version="1.1"
   id="svg1"
   width="1153.3333"
   height="1729.3333"
   viewBox="0 0 1153.3333 1729.3333"
   sodipodi:docname="tmpu8072nbs.pdf"
   xmlns:inkscape="http://www.inkscape.org/namespaces/inkscape"
   xmlns:sodipodi="http://sodipodi.sourceforge.net/DTD/sodipodi-0.dtd"
   xmlns="http://www.w3.org/2000/svg"
   xmlns:svg="http://www.w3.org/2000/svg">
  <defs
     id="defs1" />
  <sodipodi:namedview
     id="namedview1"
     pagecolor="#ffffff"
     bordercolor="#000000"
     borderopacity="0.25"
     inkscape:showpageshadow="2"
     inkscape:pageopacity="0.0"
     inkscape:pagecheckerboard="0"
     inkscape:deskcolor="#d1d1d1">
    <inkscape:page
       x="0"
       y="0"
       inkscape:label="1"
       id="page1"
       width="1153.3333"
       height="1729.3333"
       margin="0"
       bleed="0" />
  </sodipodi:namedview>
  <g
     id="g1"
     inkscape:groupmode="layer"
     inkscape:label="1">
    <g
       id="group-R5">
      <path
         id="path2"
         d="M 8645,1085 C 8645,488.5 8161.46,5 7565,5 H 1085 C 488.535,5 5,488.5 5,1085 v 10800 c 0,596.5 483.535,1080 1080,1080 h 6480 c 596.46,0 1080,-483.5 1080,-1080 V 1085"
         style="fill:#ffffff;fill-opacity:1;fill-rule:nonzero;stroke:none"
         transform="matrix(0.13333333,0,0,-0.13333333,0,1729.3333)" />
      <path
         id="path3"
         d="M 8645,1085 C 8645,488.5 8161.46,5 7565,5 H 1085 C 488.535,5 5,488.5 5,1085 v 10800 c 0,596.5 483.535,1080 1080,1080 h 6480 c 596.46,0 1080,-483.5 1080,-1080 z"
         style="fill:none;stroke:#231f20;stroke-width:10;stroke-linecap:butt;stroke-linejoin:miter;stroke-miterlimit:4;stroke-dasharray:none;stroke-opacity:1"
         transform="matrix(0.13333333,0,0,-0.13333333,0,1729.3333)" />
      <path
         id="path4"
         d="m 1085,275 c -446.637,0 -810,363.398 -810,810 v 10800 c 0,446.6 363.363,810 810,810 h 6480 c 446.64,0 810,-363.4 810,-810 V 1085 C 8375,638.398 8011.64,275 7565,275 H 1085"
         style="fill:#231f20;fill-opacity:1;fill-rule:nonzero;stroke:none"
         transform="matrix(0.13333333,0,0,-0.13333333,0,1729.3333)" />
      <path
         id="path5"
         d="m 1085,545 c -297.758,0 -540,242.199 -540,540 v 10800 c 0,297.8 242.242,540 540,540 h 6480 c 297.75,0 540,-242.2 540,-540 V 1085 C 8105,787.199 7862.75,545 7565,545 H 1085"
         style="fill:#ffffff;fill-opacity:1;fill-rule:nonzero;stroke:none"
         transform="matrix(0.13333333,0,0,-0.13333333,0,1729.3333)" />
      <path
         id="path6"
         d="M 5405,2165 C 5405,1568.5 4921.46,1085 4324.99,1085 3728.53,1085 3245,1568.5 3245,2165 c 0,596.5 483.53,1079.99 1079.99,1079.99 C 4921.46,3244.99 5405,2761.5 5405,2165"
         style="fill:#00674e;fill-opacity:1;fill-rule:nonzero;stroke:none"
         transform="matrix(0.13333333,0,0,-0.13333333,0,1729.3333)" />
      <path
         id="path7"
         d="m 5282.99,5945 -550.78,975.16 V 5945 h -227.39 v 1440 h 227.39 l 525.5,-919.59 V 7385 H 5485.1 V 5945 h -202.11"
         style="fill:#231f20;fill-opacity:1;fill-rule:nonzero;stroke:none"
         transform="matrix(0.13333333,0,0,-0.13333333,0,1729.3333)" />
      <path
         id="path8"
         d="m 3873.99,7064.92 c -45.58,75.78 -101.29,106.09 -187.4,111.15 -111.43,5.06 -182.34,-50.53 -232.99,-176.83 -35.46,-85.9 -55.71,-217.27 -55.71,-338.54 0,-151.58 30.38,-308.2 86.09,-399.16 45.6,-75.78 106.37,-111.15 197.54,-111.15 106.37,0 172.21,55.59 222.86,181.9 30.4,75.78 55.72,217.26 55.72,328.41 0,161.68 -30.39,308.21 -86.11,404.22 z m 157.02,-985.27 c -81.05,-111.15 -197.54,-161.68 -349.49,-161.68 -202.59,0 -329.23,80.84 -415.33,257.67 -60.77,121.27 -101.29,313.27 -101.29,485.06 0,237.48 60.77,449.69 157.01,586.11 86.11,111.15 202.6,161.68 369.74,161.68 182.34,0 308.97,-80.84 400.14,-257.69 60.77,-126.31 96.23,-308.2 96.23,-490.1 0,-227.36 -55.72,-454.72 -157.01,-581.05"
         style="fill:#231f20;fill-opacity:1;fill-rule:nonzero;stroke:none"
         transform="matrix(0.13333333,0,0,-0.13333333,0,1729.3333)" />
      <path
         id="path9"
         d="m 4000.83,8104.99 -550.78,975.17 V 8104.99 H 3222.67 V 9545 h 227.38 l 525.51,-919.59 V 9545 h 227.38 V 8104.99 h -202.11"
         style="fill:#231f20;fill-opacity:1;fill-rule:nonzero;stroke:none"
         transform="matrix(0.13333333,0,0,-0.13333333,0,1729.3333)" />
      <path
         id="path10"
         d="m 2591.85,9224.91 c -45.59,75.79 -101.3,106.1 -187.41,111.15 -111.43,5.06 -182.34,-50.51 -232.98,-176.83 -35.46,-85.9 -55.72,-217.27 -55.72,-338.53 0,-151.58 30.38,-308.21 86.1,-399.16 45.59,-75.79 106.36,-111.16 197.54,-111.16 106.36,0 172.2,55.59 222.86,181.9 30.39,75.79 55.71,217.26 55.71,328.42 0,161.68 -30.39,308.21 -86.1,404.21 z m 157.01,-985.26 c -81.05,-111.16 -197.54,-161.69 -349.48,-161.69 -202.6,0 -329.23,80.85 -415.34,257.68 -60.77,121.27 -101.29,313.27 -101.29,485.06 0,237.47 60.78,449.68 157.02,586.11 86.1,111.16 202.59,161.68 369.73,161.68 182.35,0 308.97,-80.84 400.14,-257.69 60.77,-126.31 96.23,-308.21 96.23,-490.1 0,-227.37 -55.71,-454.73 -157.01,-581.05"
         style="fill:#231f20;fill-opacity:1;fill-rule:nonzero;stroke:none"
         transform="matrix(0.13333333,0,0,-0.13333333,0,1729.3333)" />
      <path
         id="path11"
         d="m 4548.55,8104.99 v 1440.02 h 227.08 V 8317.2 h 666.09 v -212.21 h -893.17"
         style="fill:#231f20;fill-opacity:1;fill-rule:nonzero;stroke:none"
         transform="matrix(0.13333333,0,0,-0.13333333,0,1729.3333)" />
      <path
         id="path12"
         d="M 6264.47,8731.52 V 8105 h -228.51 v 626.52 L 5528.13,9545 h 274.21 l 345.34,-555.79 350.41,555.79 h 269.16 l -502.78,-813.48"
         style="fill:#231f20;fill-opacity:1;fill-rule:nonzero;stroke:none"
         transform="matrix(0.13333333,0,0,-0.13333333,0,1729.3333)" />
      <path
         id="path13"
         d="m 4608.95,11384.9 c -45.59,75.8 -101.31,106.1 -187.41,111.2 -111.43,5 -182.34,-50.5 -232.99,-176.9 -35.45,-85.9 -55.71,-217.2 -55.71,-338.5 0,-151.6 30.38,-308.2 86.1,-399.1 45.59,-75.8 106.35,-111.2 197.52,-111.2 106.37,0 172.21,55.6 222.88,181.9 30.39,75.8 55.7,217.3 55.7,328.4 0,161.7 -30.39,308.2 -86.09,404.2 z m 157.01,-985.2 c -81.06,-111.2 -197.54,-161.7 -349.5,-161.7 -202.58,0 -329.21,80.8 -415.32,257.7 -60.77,121.2 -101.29,313.2 -101.29,485 0,237.5 60.78,449.7 157.02,586.1 86.1,111.2 202.59,161.7 369.73,161.7 182.35,0 308.97,-80.8 400.14,-257.7 60.76,-126.3 96.23,-308.2 96.23,-490.1 0,-227.4 -55.72,-454.7 -157.01,-581"
         style="fill:#231f20;fill-opacity:1;fill-rule:nonzero;stroke:none"
         transform="matrix(0.13333333,0,0,-0.13333333,0,1729.3333)" />
      <path
         id="path14"
         d="m 3335.18,11452.4 c -35.37,20.2 -55.58,25.2 -131.37,25.2 h -272.86 v -353.7 h 272.86 c 70.74,0 96,5.1 131.37,25.3 55.59,30.3 90.96,91 90.96,151.6 0,60.6 -35.37,121.3 -90.96,151.6 z m 101.06,-1187.4 -232.43,626.5 H 2930.95 V 10265 h -227.39 v 1440 h 474.98 c 111.17,0 186.97,-10.1 257.7,-45.5 126.33,-60.6 217.29,-212.2 217.29,-358.7 0,-151.6 -90.96,-303.2 -222.34,-363.8 l 252.66,-672 h -247.61"
         style="fill:#231f20;fill-opacity:1;fill-rule:nonzero;stroke:none"
         transform="matrix(0.13333333,0,0,-0.13333333,0,1729.3333)" />
      <path
         id="path15"
         d="m 5977.75,10352.7 c -80.84,-70.8 -192.01,-111.2 -313.28,-111.2 -247.59,0 -429.49,146.5 -525.51,363.8 l 217.29,80.8 c 60.63,-136.4 171.8,-212.2 308.22,-212.2 131.39,0 222.33,91 222.33,212.2 0,192 -222.33,222.3 -409.3,298.1 -85.88,35.4 -277.89,121.3 -277.89,358.8 0,282.9 192.01,389 449.71,389 202.11,0 338.55,-116.2 409.27,-293 l -202.11,-60.7 c 0,0 -50.52,121.3 -212.22,126.4 -106.12,5 -232.44,-35.4 -222.33,-166.8 20.22,-267.8 697.31,-90.9 697.31,-656.8 0,-131.4 -50.53,-247.6 -141.49,-328.4"
         style="fill:#231f20;fill-opacity:1;fill-rule:nonzero;stroke:none"
         transform="matrix(0.13333333,0,0,-0.13333333,0,1729.3333)" />
      <path
         id="path16"
         d="m 7102.03,10352.7 c -80.84,-70.8 -192.01,-111.2 -313.28,-111.2 -247.6,0 -429.49,146.5 -525.51,363.8 l 217.29,80.8 c 60.62,-136.4 171.79,-212.2 308.22,-212.2 131.39,0 222.32,91 222.32,212.2 0,192 -222.32,222.3 -409.29,298.1 -85.88,35.4 -277.89,121.3 -277.89,358.8 0,282.9 192.01,389 449.7,389 202.11,0 338.56,-116.2 409.28,-293 l -202.11,-60.7 c 0,0 -50.53,121.3 -212.22,126.4 -106.12,5 -232.45,-35.4 -222.33,-166.8 20.22,-267.8 697.31,-90.9 697.31,-656.8 0,-131.4 -50.53,-247.6 -141.49,-328.4"
         style="fill:#231f20;fill-opacity:1;fill-rule:nonzero;stroke:none"
         transform="matrix(0.13333333,0,0,-0.13333333,0,1729.3333)" />
      <path
         id="path17"
         d="m 1952.21,10239.7 c -212.23,0 -348.66,80.9 -439.61,257.7 -65.69,126.3 -106.12,308.2 -106.12,490.1 0,227.4 60.64,454.8 161.7,581.1 85.9,106.1 207.17,161.7 368.87,161.7 217.28,0 353.71,-91 449.72,-293.1 l -212.23,-90.9 c -80.85,121.2 -126.33,151.6 -237.49,151.6 -116.22,0 -192.01,-50.6 -242.54,-176.9 -35.37,-85.9 -55.58,-212.2 -55.58,-333.5 0,-156.6 35.37,-313.2 90.95,-404.2 50.53,-75.8 116.21,-111.1 217.28,-111.1 96,0 166.75,50.5 222.33,166.7 l 217.28,-80.8 c -85.9,-212.3 -227.39,-318.4 -434.56,-318.4"
         style="fill:#231f20;fill-opacity:1;fill-rule:nonzero;stroke:none"
         transform="matrix(0.13333333,0,0,-0.13333333,0,1729.3333)" />
      <path
         id="path18"
         d="m 7012.07,3785 -550.78,975.16 V 3785 h -227.38 v 1440 h 227.38 L 6986.8,4305.41 V 5225 h 227.38 V 3785 h -202.11"
         style="fill:#231f20;fill-opacity:1;fill-rule:nonzero;stroke:none"
         transform="matrix(0.13333333,0,0,-0.13333333,0,1729.3333)" />
      <path
         id="path19"
         d="m 3364.51,4972.36 c -35.36,20.22 -55.57,25.26 -131.38,25.26 h -272.86 v -353.67 h 272.86 c 70.76,0 96.02,5.03 131.38,25.25 55.6,30.31 90.97,90.96 90.97,151.58 0,60.63 -35.37,121.27 -90.97,151.58 z M 3465.58,3785 3233.13,4411.52 H 2960.27 V 3785 H 2732.9 v 1440 h 474.97 c 111.17,0 186.96,-10.12 257.71,-45.49 126.32,-60.62 217.27,-212.21 217.27,-358.73 0,-151.58 -90.95,-303.16 -222.32,-363.79 L 3713.18,3785 h -247.6"
         style="fill:#231f20;fill-opacity:1;fill-rule:nonzero;stroke:none"
         transform="matrix(0.13333333,0,0,-0.13333333,0,1729.3333)" />
      <path
         id="path20"
         d="m 5095.94,3785 v 1440 h 847.73 v -227.36 h -620.66 v -353.69 h 418.83 v -232.43 h -418.83 v -394.1 H 5989.1 V 3785 h -893.16"
         style="fill:#231f20;fill-opacity:1;fill-rule:nonzero;stroke:none"
         transform="matrix(0.13333333,0,0,-0.13333333,0,1729.3333)" />
      <path
         id="path21"
         d="m 3957.97,3785 v 1440 h 847.75 v -227.36 h -620.68 v -353.69 h 418.85 v -232.43 h -418.85 v -394.1 h 666.09 V 3785 h -893.16"
         style="fill:#231f20;fill-opacity:1;fill-rule:nonzero;stroke:none"
         transform="matrix(0.13333333,0,0,-0.13333333,0,1729.3333)" />
      <path
         id="path22"
         d="m 1961.33,3759.73 c -217.29,0 -343.62,80.86 -429.51,262.75 -60.63,126.31 -96,303.14 -96,480 0,232.42 65.68,459.79 161.68,586.09 85.92,106.12 207.19,161.68 368.89,161.68 222.32,0 353.71,-90.93 449.7,-318.32 l -217.28,-85.88 c -60.63,126.31 -121.27,171.8 -232.42,171.8 -116.23,0 -192.03,-50.53 -242.56,-176.85 -35.37,-85.9 -55.59,-217.27 -55.59,-338.52 0,-151.58 25.28,-303.16 70.74,-394.12 45.49,-80.84 111.18,-116.21 197.07,-116.21 146.55,0 252.66,90.96 252.66,222.32 v 60.63 h -262.75 v 227.38 h 490.13 v -288.01 c 0,-262.73 -192.01,-454.74 -454.76,-454.74"
         style="fill:#231f20;fill-opacity:1;fill-rule:nonzero;stroke:none"
         transform="matrix(0.13333333,0,0,-0.13333333,0,1729.3333)" />
    </g>
  </g>
</svg>
