<?xml version="1.0" encoding="UTF-8" standalone="no"?>
<!-- Created with Inkscape (http://www.inkscape.org/) -->

<svg
   version="1.1"
   id="svg1"
   width="3456.6667"
   height="1728.6667"
   viewBox="0 0 3456.6667 1728.6667"
   sodipodi:docname="tmpwasuvtx8.pdf"
   xmlns:inkscape="http://www.inkscape.org/namespaces/inkscape"
   xmlns:sodipodi="http://sodipodi.sourceforge.net/DTD/sodipodi-0.dtd"
   xmlns="http://www.w3.org/2000/svg"
   xmlns:svg="http://www.w3.org/2000/svg">
  <defs
     id="defs1" />
  <sodipodi:namedview
     id="namedview1"
     pagecolor="#ffffff"
     bordercolor="#000000"
     borderopacity="0.25"
     inkscape:showpageshadow="2"
     inkscape:pageopacity="0.0"
     inkscape:pagecheckerboard="0"
     inkscape:deskcolor="#d1d1d1">
    <inkscape:page
       x="0"
       y="0"
       inkscape:label="1"
       id="page1"
       width="3456.6667"
       height="1728.6667"
       margin="0"
       bleed="0" />
  </sodipodi:namedview>
  <g
     id="g1"
     inkscape:groupmode="layer"
     inkscape:label="1">
    <g
       id="group-R5">
      <path
         id="path2"
         d="m 25922.5,1622.5 c 0,-894.699 -725.3,-1620 -1620,-1620 H 1622.5 C 727.805,2.5 2.5,727.801 2.5,1622.5 v 9720 c 0,894.7 725.305,1620 1620.01,1620 H 24302.5 c 894.7,0 1620,-725.3 1620,-1620 v -9720"
         style="fill:#ffffff;fill-opacity:1;fill-rule:nonzero;stroke:none"
         transform="matrix(0.13333333,0,0,-0.13333333,0,1728.6667)" />
      <path
         id="path3"
         d="m 25922.5,1622.5 c 0,-894.699 -725.3,-1620 -1620,-1620 H 1622.5 C 727.805,2.5 2.5,727.801 2.5,1622.5 v 9720 c 0,894.7 725.305,1620 1620.01,1620 H 24302.5 c 894.7,0 1620,-725.3 1620,-1620 z"
         style="fill:none;stroke:#231f20;stroke-width:5;stroke-linecap:butt;stroke-linejoin:miter;stroke-miterlimit:4;stroke-dasharray:none;stroke-opacity:1"
         transform="matrix(0.13333333,0,0,-0.13333333,0,1728.6667)" />
      <path
         id="path4"
         d="m 24842.5,1622.5 c 0,-297.7 -242.2,-540 -540,-540 H 1622.51 c -297.75,0 -540,242.3 -540,540 v 9720 c 0,297.8 242.25,540 540,540 H 24302.5 c 297.8,0 540,-242.2 540,-540 z m -540,10890 H 1622.51 c -645.139,0 -1169.998,-524.9 -1169.998,-1170 v -9720 c 0,-645.098 524.859,-1170 1169.998,-1170 H 24302.5 c 645.1,0 1170,524.902 1170,1170 v 9720 c 0,645.1 -524.9,1170 -1170,1170"
         style="fill:#231f20;fill-opacity:1;fill-rule:nonzero;stroke:none"
         transform="matrix(0.13333333,0,0,-0.13333333,0,1728.6667)" />
      <path
         id="path5"
         d="m 12962.5,2412.9 c -936.5,0 -1695.6,759.19 -1695.6,1695.68 0,936.5 759.1,1695.66 1695.6,1695.66 936.5,0 1695.7,-759.16 1695.7,-1695.66 0,-936.49 -759.2,-1695.68 -1695.7,-1695.68 z m 4069.6,4001.77 H 8892.94 c -149.83,0 -271.3,-121.46 -271.3,-271.3 V 2073.8 c 0,-149.8 121.47,-271.3 271.3,-271.3 h 8139.16 c 149.8,0 271.3,121.5 271.3,271.3 v 4069.57 c 0,149.84 -121.5,271.3 -271.3,271.3"
         style="fill:#231f20;fill-opacity:1;fill-rule:nonzero;stroke:none"
         transform="matrix(0.13333333,0,0,-0.13333333,0,1728.6667)" />
      <path
         id="path6"
         d="m 14251.2,8313.8 h -2577.4 c -149.8,0 -271.3,-121.47 -271.3,-271.3 V 6957.29 c 0,-149.84 121.5,-271.31 271.3,-271.31 h 2577.4 c 149.8,0 271.3,121.47 271.3,271.31 V 8042.5 c 0,149.83 -121.5,271.3 -271.3,271.3"
         style="fill:#231f20;fill-opacity:1;fill-rule:nonzero;stroke:none"
         transform="matrix(0.13333333,0,0,-0.13333333,0,1728.6667)" />
      <path
         id="path7"
         d="m 11098.5,7757.33 -2358.55,631.99 -105.32,-393.1 2358.57,-631.98 105.3,393.09"
         style="fill:#231f20;fill-opacity:1;fill-rule:nonzero;stroke:none"
         transform="matrix(0.13333333,0,0,-0.13333333,0,1728.6667)" />
      <path
         id="path8"
         d="m 11701.9,8872.89 -1726.56,1726.51 -287.76,-287.7 1726.62,-1726.59 287.7,287.78"
         style="fill:#231f20;fill-opacity:1;fill-rule:nonzero;stroke:none"
         transform="matrix(0.13333333,0,0,-0.13333333,0,1728.6667)" />
      <path
         id="path9"
         d="m 14931.9,7364.24 2358.5,631.98 -105.3,393.1 -2358.6,-631.99 105.4,-393.09"
         style="fill:#231f20;fill-opacity:1;fill-rule:nonzero;stroke:none"
         transform="matrix(0.13333333,0,0,-0.13333333,0,1728.6667)" />
      <path
         id="path10"
         d="m 16237.4,10311.7 -287.7,287.7 -1726.6,-1726.51 287.8,-287.78 1726.5,1726.59"
         style="fill:#231f20;fill-opacity:1;fill-rule:nonzero;stroke:none"
         transform="matrix(0.13333333,0,0,-0.13333333,0,1728.6667)" />
      <path
         id="path11"
         d="m 13166,11162.5 h -407 V 8720.76 h 407 v 2441.74"
         style="fill:#231f20;fill-opacity:1;fill-rule:nonzero;stroke:none"
         transform="matrix(0.13333333,0,0,-0.13333333,0,1728.6667)" />
    </g>
  </g>
</svg>
