<?xml version="1.0" encoding="UTF-8" standalone="no"?>
<!-- Created with Inkscape (http://www.inkscape.org/) -->

<svg
   version="1.1"
   id="svg1"
   width="3456.6667"
   height="2304.6667"
   viewBox="0 0 3456.6667 2304.6667"
   sodipodi:docname="tmpuxn162ad.pdf"
   xmlns:inkscape="http://www.inkscape.org/namespaces/inkscape"
   xmlns:sodipodi="http://sodipodi.sourceforge.net/DTD/sodipodi-0.dtd"
   xmlns="http://www.w3.org/2000/svg"
   xmlns:svg="http://www.w3.org/2000/svg">
  <defs
     id="defs1" />
  <sodipodi:namedview
     id="namedview1"
     pagecolor="#ffffff"
     bordercolor="#000000"
     borderopacity="0.25"
     inkscape:showpageshadow="2"
     inkscape:pageopacity="0.0"
     inkscape:pagecheckerboard="0"
     inkscape:deskcolor="#d1d1d1">
    <inkscape:page
       x="0"
       y="0"
       inkscape:label="1"
       id="page1"
       width="3456.6667"
       height="2304.6667"
       margin="0"
       bleed="0" />
  </sodipodi:namedview>
  <g
     id="g1"
     inkscape:groupmode="layer"
     inkscape:label="1">
    <g
       id="group-R5">
      <path
         id="path2"
         d="M 25922.5,1082.5 C 25922.5,486 25439,2.5 24842.5,2.5 H 1082.5 C 486.023,2.5 2.5,486 2.5,1082.5 v 15120 c 0,596.5 483.523,1080 1080,1080 h 23760 c 596.5,0 1080,-483.5 1080,-1080 v -15120"
         style="fill:#ffffff;fill-opacity:1;fill-rule:nonzero;stroke:none"
         transform="matrix(0.13333333,0,0,-0.13333333,0,2304.6667)" />
      <path
         id="path3"
         d="M 25922.5,1082.5 C 25922.5,486 25439,2.5 24842.5,2.5 H 1082.5 C 486.023,2.5 2.5,486 2.5,1082.5 v 15120 c 0,596.5 483.523,1080 1080,1080 h 23760 c 596.5,0 1080,-483.5 1080,-1080 z"
         style="fill:none;stroke:#231f20;stroke-width:5;stroke-linecap:butt;stroke-linejoin:miter;stroke-miterlimit:4;stroke-dasharray:none;stroke-opacity:1"
         transform="matrix(0.13333333,0,0,-0.13333333,0,2304.6667)" />
      <path
         id="path4"
         d="m 25202.5,1082.5 c 0,-198.5 -161.5,-360 -360,-360 h -23760 c -198.508,0 -360,161.5 -360,360 v 15120 c 0,198.5 161.492,360 360,360 h 23760 c 198.5,0 360,-161.5 360,-360 z m -360,15930 h -23760 c -446.637,0 -810,-363.4 -810,-810 v -15120 c 0,-446.598 363.363,-810 810,-810 h 23760 c 446.6,0 810,363.402 810,810 v 15120 c 0,446.6 -363.4,810 -810,810"
         style="fill:#231f20;fill-opacity:1;fill-rule:nonzero;stroke:none"
         transform="matrix(0.13333333,0,0,-0.13333333,0,2304.6667)" />
      <path
         id="path5"
         d="m 13560.2,12322.3 c -91.1,151.6 -202.5,212.2 -374.8,222.3 -222.8,10.2 -364.7,-101 -465.9,-353.6 -71,-171.8 -111.5,-434.6 -111.5,-677.1 0,-303.2 60.8,-616.4 172.2,-798.3 91.2,-151.6 212.8,-222.3 395.1,-222.3 212.8,0 344.4,111.1 445.7,363.8 60.8,151.5 111.5,434.5 111.5,656.8 0,323.4 -60.8,616.4 -172.3,808.4 z m 314.1,-1970.5 c -162.1,-222.3 -395.1,-323.4 -699,-323.4 -405.2,0 -658.5,161.7 -830.7,515.4 -121.5,242.5 -202.6,626.5 -202.6,970.1 0,475 121.6,899.4 314.1,1172.2 172.2,222.3 405.2,323.4 739.5,323.4 364.6,0 617.9,-161.7 800.2,-515.4 121.6,-252.6 192.5,-616.4 192.5,-980.2 0,-454.7 -111.4,-909.5 -314,-1162.1"
         style="fill:#231f20;fill-opacity:1;fill-rule:nonzero;stroke:none"
         transform="matrix(0.13333333,0,0,-0.13333333,0,2304.6667)" />
      <path
         id="path6"
         d="m 18141.6,12322.3 c -91.2,151.6 -202.6,212.2 -374.8,222.3 -222.9,10.2 -364.7,-101 -466,-353.6 -70.9,-171.8 -111.4,-434.6 -111.4,-677.1 0,-303.2 60.7,-616.4 172.2,-798.3 91.2,-151.6 212.7,-222.3 395.1,-222.3 212.7,0 344.3,111.1 445.7,363.8 60.8,151.5 111.4,434.5 111.4,656.8 0,323.4 -60.8,616.4 -172.2,808.4 z m 314,-1970.5 c -162.1,-222.3 -395.1,-323.4 -698.9,-323.4 -405.3,0 -658.5,161.7 -830.7,515.4 -121.6,242.5 -202.6,626.5 -202.6,970.1 0,475 121.6,899.4 314,1172.2 172.2,222.3 405.2,323.4 739.5,323.4 364.7,0 617.9,-161.7 800.3,-515.4 121.5,-252.6 192.4,-616.4 192.4,-980.2 0,-454.7 -111.4,-909.5 -314,-1162.1"
         style="fill:#231f20;fill-opacity:1;fill-rule:nonzero;stroke:none"
         transform="matrix(0.13333333,0,0,-0.13333333,0,2304.6667)" />
      <path
         id="path7"
         d="m 8479.22,12457.3 c -80.84,40.4 -131.36,50.5 -272.84,50.5 h -596.25 v -707.4 h 596.25 c 141.48,0 192,10.1 272.84,50.5 101.06,50.5 171.82,181.9 171.82,303.2 0,121.3 -70.76,242.5 -171.82,303.2 z m 192.03,-1020.7 c -131.39,-60.6 -303.18,-101 -525.53,-101 h -535.59 v -1253.1 h -454.77 v 2880 h 990.36 c 232.45,0 384.03,-20.2 525.53,-90.9 252.64,-121.3 444.66,-424.5 444.66,-717.5 0,-303.2 -192.02,-606.3 -444.66,-717.5"
         style="fill:#231f20;fill-opacity:1;fill-rule:nonzero;stroke:none"
         transform="matrix(0.13333333,0,0,-0.13333333,0,2304.6667)" />
      <path
         id="path8"
         d="m 15679.1,12558.3 v -2475.8 h -456.7 v 2475.8 h -659.7 v 404.2 H 16349 v -404.2 h -669.9"
         style="fill:#231f20;fill-opacity:1;fill-rule:nonzero;stroke:none"
         transform="matrix(0.13333333,0,0,-0.13333333,0,2304.6667)" />
      <path
         id="path9"
         d="m 11053.7,10082.5 v 1253.1 h -1051 v -1253.1 h -454.81 v 2880 h 454.81 v -1162.1 h 1051 v 1162.1 h 454.8 v -2880 h -454.8"
         style="fill:#231f20;fill-opacity:1;fill-rule:nonzero;stroke:none"
         transform="matrix(0.13333333,0,0,-0.13333333,0,2304.6667)" />
      <path
         id="path10"
         d="M 7299.03,4322.5 6197.47,6272.8 V 4322.5 h -454.76 v 2880 h 454.76 L 7248.49,5363.3 v 1839.2 h 454.76 v -2880 h -404.22"
         style="fill:#231f20;fill-opacity:1;fill-rule:nonzero;stroke:none"
         transform="matrix(0.13333333,0,0,-0.13333333,0,2304.6667)" />
      <path
         id="path11"
         d="m 11973.4,6562.3 c -91.2,151.6 -202.6,212.2 -374.8,222.3 -222.9,10.1 -364.7,-101 -466,-353.7 -70.9,-171.7 -111.4,-434.5 -111.4,-677 0,-303.2 60.8,-616.4 172.2,-798.3 91.2,-151.6 212.7,-222.4 395.1,-222.4 212.7,0 344.4,111.2 445.7,363.8 60.8,151.6 111.4,434.6 111.4,656.9 0,323.4 -60.8,616.4 -172.2,808.4 z m 314,-1970.5 c -162.1,-222.3 -395.1,-323.4 -698.9,-323.4 -405.2,0 -658.5,161.7 -830.7,515.4 -121.6,242.5 -202.6,626.5 -202.6,970.1 0,474.9 121.5,899.3 314,1172.2 172.2,222.3 405.2,323.4 739.5,323.4 364.7,0 617.9,-161.7 800.3,-515.4 121.5,-252.6 192.4,-616.4 192.4,-980.2 0,-454.7 -111.4,-909.5 -314,-1162.1"
         style="fill:#231f20;fill-opacity:1;fill-rule:nonzero;stroke:none"
         transform="matrix(0.13333333,0,0,-0.13333333,0,2304.6667)" />
      <path
         id="path12"
         d="m 21760.9,6626.5 c -70.7,70.7 -171.8,121.3 -293,121.3 h -515.5 V 4787.3 h 454.8 c 151.6,0 242.5,30.3 323.4,111.2 171.8,171.8 262.7,485 262.7,869.1 0,384 -90.9,707.3 -232.4,858.9 z m 192,-2142.3 c -111.1,-101.1 -262.7,-151.6 -414.3,-161.7 -30.3,0 -91,0 -161.7,0 h -879.2 v 2880 h 929.7 c 293.1,0 404.3,-30.3 555.9,-151.6 303.1,-262.7 474.9,-717.5 474.9,-1283.3 0,-576 -181.9,-1030.8 -505.3,-1283.4"
         style="fill:#231f20;fill-opacity:1;fill-rule:nonzero;stroke:none"
         transform="matrix(0.13333333,0,0,-0.13333333,0,2304.6667)" />
      <path
         id="path13"
         d="m 3466.76,4322.5 v 2880 h 1695.5 V 6747.7 H 3920.9 v -707.3 h 837.68 V 5575.5 H 3920.9 V 4787.3 H 5253.09 V 4322.5 H 3466.76"
         style="fill:#231f20;fill-opacity:1;fill-rule:nonzero;stroke:none"
         transform="matrix(0.13333333,0,0,-0.13333333,0,2304.6667)" />
      <path
         id="path14"
         d="m 18221.8,4322.5 v 2880 h 1695.4 v -454.8 h -1241.3 v -707.3 h 837.7 v -464.9 h -837.7 v -788.2 h 1332.2 v -464.8 h -1786.3"
         style="fill:#231f20;fill-opacity:1;fill-rule:nonzero;stroke:none"
         transform="matrix(0.13333333,0,0,-0.13333333,0,2304.6667)" />
      <path
         id="path15"
         d="m 16719,4271.9 c -424.4,0 -697.3,161.7 -879.2,515.4 -131.3,252.7 -212.2,616.5 -212.2,980.2 0,454.8 121.3,909.5 323.4,1162.1 171.8,212.3 414.3,323.4 737.7,323.4 434.6,0 707.5,-181.9 899.4,-586.1 L 17163.7,6485 c -161.7,242.5 -252.6,303.2 -475,303.2 -232.4,0 -384,-101.1 -485,-353.7 -70.8,-171.8 -111.2,-424.4 -111.2,-667 0,-313.2 70.7,-626.5 181.9,-808.4 101,-151.6 232.4,-222.3 434.5,-222.3 192.1,0 333.5,101 444.7,333.5 l 434.5,-161.7 c -171.8,-424.4 -454.7,-636.7 -869.1,-636.7"
         style="fill:#231f20;fill-opacity:1;fill-rule:nonzero;stroke:none"
         transform="matrix(0.13333333,0,0,-0.13333333,0,2304.6667)" />
      <path
         id="path16"
         d="m 8848.62,6747.7 v -707.3 h 837.65 v -464.9 h -837.65 v -1253 h -454.15 v 2880 H 10180.8 V 6747.7 H 8848.62"
         style="fill:#231f20;fill-opacity:1;fill-rule:nonzero;stroke:none"
         transform="matrix(0.13333333,0,0,-0.13333333,0,2304.6667)" />
      <path
         id="path17"
         d="m 14498.3,6697.2 c -70.8,40.5 -111.2,50.5 -262.8,50.5 h -545.7 v -707.3 h 545.7 c 141.5,0 192,10.1 262.8,50.5 111.2,60.7 181.9,181.9 181.9,303.2 0,121.2 -70.7,242.5 -181.9,303.1 z m 202.1,-2374.7 -464.9,1253.1 h -545.7 V 4322.5 H 13235 v 2880 h 950 c 222.3,0 373.9,-20.2 515.4,-90.9 252.6,-121.3 434.5,-424.5 434.5,-717.5 0,-303.2 -181.9,-606.4 -444.6,-727.6 l 505.3,-1344 h -495.2"
         style="fill:#231f20;fill-opacity:1;fill-rule:nonzero;stroke:none"
         transform="matrix(0.13333333,0,0,-0.13333333,0,2304.6667)" />
    </g>
  </g>
</svg>
