<?xml version="1.0" standalone="no"?>
<svg width="1728px" height="2592px" viewBox="0 -1800 1728 2592 " xmlns="http://www.w3.org/2000/svg" xmlns:xlink="http://www.w3.org/1999/xlink">
<title>generated by pstoedit</title>
<!-- generated by pstoedit version:4.02 -->
<g xml:space='preserve'>
<clipPath id="clippath1"> 	<path d="
	M 0 -1800.5 
	L 0 792 
	L 1728.5 792 
	L 1728.5 -1800.5 
	Z 
	" style="clip-rule:nonzero"/>
</clipPath>
<g style="clip-path:url(#clippath1)"> 
<g fill="#ffffff" fill-rule="nonzero" stroke-width="0" stroke-linejoin="miter" stroke-linecap="butt" stroke-miterlimit="10" >
	<path d="
	M 1728.25 683.75 
	C 1728.25 743.398 1679.9 791.75 1620.25 791.75 
	L 108.25 791.75 
	C 48.6016 791.75 0.25 743.398 0.25 683.75 
	L 0.25 -1692.25 
	C 0.25 -1751.9 48.6016 -1800.25 108.25 -1800.25 
	L 1620.25 -1800.25 
	C 1679.9 -1800.25 1728.25 -1751.9 1728.25 -1692.25 
	Z 
	"/>
</g>
<g stroke="#7f7f7f" fill="none" stroke-width="0.5" stroke-linejoin="miter" stroke-linecap="butt" stroke-miterlimit="4" >
	<path d="
	M 1728.25 683.75 
	C 1728.25 743.398 1679.9 791.75 1620.25 791.75 
	L 108.25 791.75 
	C 48.6016 791.75 0.25 743.398 0.25 683.75 
	L 0.25 -1692.25 
	C 0.25 -1751.9 48.6016 -1800.25 108.25 -1800.25 
	L 1620.25 -1800.25 
	C 1679.9 -1800.25 1728.25 -1751.9 1728.25 -1692.25 
	Z 
	"/>
</g>
<g fill="#7f7f7f" fill-rule="nonzero" stroke-width="0" stroke-linejoin="miter" stroke-linecap="butt" stroke-miterlimit="4" >
	<path d="
	M 108.25 764.75 
	C 63.5859 764.75 27.25 728.41 27.25 683.75 
	L 27.25 -1692.25 
	C 27.25 -1736.91 63.5859 -1773.25 108.25 -1773.25 
	L 1620.25 -1773.25 
	C 1664.91 -1773.25 1701.25 -1736.91 1701.25 -1692.25 
	L 1701.25 683.75 
	C 1701.25 728.41 1664.91 764.75 1620.25 764.75 
	Z 
	"/>
</g>
<g fill="#ffffff" fill-rule="nonzero" stroke-width="0" stroke-linejoin="miter" stroke-linecap="butt" stroke-miterlimit="4" >
	<path d="
	M 108.25 719.75 
	C 88.3984 719.75 72.25 703.602 72.25 683.75 
	L 72.25 -1692.25 
	C 72.25 -1712.1 88.3984 -1728.25 108.25 -1728.25 
	L 1620.25 -1728.25 
	C 1640.1 -1728.25 1656.25 -1712.1 1656.25 -1692.25 
	L 1656.25 683.75 
	C 1656.25 703.602 1640.1 719.75 1620.25 719.75 
	Z 
	"/>
</g>
<g fill="#7f7f7f" fill-rule="nonzero" stroke-width="0" stroke-linejoin="miter" stroke-linecap="butt" stroke-miterlimit="4" >
	<path d="
	M 1023.48 -1522.23 
	C 1012.08 -1541.18 998.152 -1548.75 976.629 -1550.02 
	C 948.77 -1551.28 931.043 -1537.39 918.383 -1505.81 
	C 909.52 -1484.33 904.453 -1451.49 904.453 -1421.18 
	C 904.453 -1383.28 912.047 -1344.12 925.977 -1321.39 
	C 937.375 -1302.44 952.566 -1293.59 975.359 -1293.59 
	C 1001.95 -1293.59 1018.42 -1307.49 1031.08 -1339.07 
	C 1038.68 -1358.02 1045.01 -1393.39 1045.01 -1421.18 
	C 1045.01 -1461.59 1037.41 -1498.23 1023.48 -1522.23 
	Z 
	M 1062.73 -1275.91 
	C 1042.47 -1248.12 1013.35 -1235.49 975.359 -1235.49 
	C 924.715 -1235.49 893.055 -1255.7 871.527 -1299.91 
	C 856.336 -1330.23 846.207 -1378.23 846.207 -1421.18 
	C 846.207 -1480.54 861.398 -1533.59 885.461 -1567.7 
	C 906.984 -1595.49 936.109 -1608.12 977.895 -1608.12 
	C 1023.48 -1608.12 1055.13 -1587.91 1077.93 -1543.7 
	C 1093.12 -1512.12 1101.99 -1466.65 1101.99 -1421.18 
	C 1101.99 -1364.33 1088.06 -1307.49 1062.73 -1275.91 
	Z 
	"/>
</g>
<g fill="#7f7f7f" fill-rule="nonzero" stroke-width="0" stroke-linejoin="miter" stroke-linecap="butt" stroke-miterlimit="4" >
	<path d="
	M 1346.67 -1539.09 
	C 1336.56 -1544.14 1330.25 -1545.41 1312.56 -1545.41 
	L 1238.03 -1545.41 
	L 1238.03 -1456.98 
	L 1312.56 -1456.98 
	C 1330.25 -1456.98 1336.56 -1458.25 1346.67 -1463.3 
	C 1359.3 -1469.62 1368.15 -1486.04 1368.15 -1501.2 
	C 1368.15 -1516.36 1359.3 -1531.51 1346.67 -1539.09 
	Z 
	M 1370.67 -1411.52 
	C 1354.25 -1403.94 1332.77 -1398.88 1304.98 -1398.88 
	L 1238.03 -1398.88 
	L 1238.03 -1242.25 
	L 1181.19 -1242.25 
	L 1181.19 -1602.25 
	L 1304.98 -1602.25 
	C 1334.04 -1602.25 1352.99 -1599.72 1370.67 -1590.88 
	C 1402.25 -1575.72 1426.25 -1537.83 1426.25 -1501.2 
	C 1426.25 -1463.3 1402.25 -1425.41 1370.67 -1411.52 
	Z 
	"/>
</g>
<g fill="#7f7f7f" fill-rule="nonzero" stroke-width="0" stroke-linejoin="miter" stroke-linecap="butt" stroke-miterlimit="4" >
	<path d="
	M 715.668 -1551.72 
	L 715.668 -1242.25 
	L 658.582 -1242.25 
	L 658.582 -1551.72 
	L 576.113 -1551.72 
	L 576.113 -1602.25 
	L 799.402 -1602.25 
	L 799.402 -1551.72 
	Z 
	"/>
</g>
<g fill="#7f7f7f" fill-rule="nonzero" stroke-width="0" stroke-linejoin="miter" stroke-linecap="butt" stroke-miterlimit="4" >
	<path d="
	M 511.941 -1264.16 
	C 491.734 -1246.48 463.941 -1236.38 433.621 -1236.38 
	C 371.727 -1236.38 326.246 -1273.01 302.246 -1327.32 
	L 356.566 -1347.53 
	C 371.727 -1313.43 399.516 -1294.48 433.621 -1294.48 
	C 466.469 -1294.48 489.207 -1317.22 489.207 -1347.53 
	C 489.207 -1395.53 433.621 -1403.11 386.883 -1422.06 
	C 365.406 -1430.9 317.406 -1452.38 317.406 -1511.74 
	C 317.406 -1582.48 365.406 -1609 429.836 -1609 
	C 480.363 -1609 514.473 -1579.95 532.156 -1535.75 
	L 481.629 -1520.59 
	C 481.629 -1520.59 468.996 -1550.9 428.57 -1552.16 
	C 402.043 -1553.43 370.461 -1543.32 372.988 -1510.48 
	C 378.043 -1443.53 547.316 -1487.74 547.316 -1346.27 
	C 547.316 -1313.43 534.684 -1284.38 511.941 -1264.16 
	Z 
	"/>
</g>
<g fill="#7f7f7f" fill-rule="nonzero" stroke-width="0" stroke-linejoin="miter" stroke-linecap="butt" stroke-miterlimit="4" >
	<path d="
	M 1301.84 -522.25 
	L 1219.22 -668.53 
	L 1219.22 -522.25 
	L 1185.12 -522.25 
	L 1185.12 -738.25 
	L 1219.22 -738.25 
	L 1298.05 -600.32 
	L 1298.05 -738.25 
	L 1332.16 -738.25 
	L 1332.16 -522.25 
	Z 
	"/>
</g>
<g fill="#7f7f7f" fill-rule="nonzero" stroke-width="0" stroke-linejoin="miter" stroke-linecap="butt" stroke-miterlimit="4" >
	<path d="
	M 1098.72 -522.25 
	L 1098.72 -738.25 
	L 1133.28 -738.25 
	L 1133.28 -522.25 
	Z 
	"/>
</g>
<g fill="#7f7f7f" fill-rule="nonzero" stroke-width="0" stroke-linejoin="miter" stroke-linecap="butt" stroke-miterlimit="4" >
	<path d="
	M 368.152 -522.25 
	L 368.152 -738.26 
	L 402.215 -738.26 
	L 402.215 -554.08 
	L 502.125 -554.08 
	L 502.125 -522.25 
	Z 
	"/>
</g>
<g fill="#7f7f7f" fill-rule="nonzero" stroke-width="0" stroke-linejoin="miter" stroke-linecap="butt" stroke-miterlimit="4" >
	<path d="
	M 841.895 -535.4 
	C 829.766 -524.79 813.094 -518.73 794.902 -518.73 
	C 757.762 -518.73 730.477 -540.71 716.074 -573.3 
	L 748.668 -585.42 
	C 757.762 -564.96 774.438 -553.59 794.902 -553.59 
	C 814.605 -553.59 828.25 -567.23 828.25 -585.42 
	C 828.25 -614.22 794.902 -618.77 766.855 -630.14 
	C 753.973 -635.44 725.172 -648.33 725.172 -683.95 
	C 725.172 -726.39 753.973 -742.31 792.629 -742.31 
	C 822.945 -742.31 843.41 -724.88 854.02 -698.35 
	L 823.703 -689.26 
	C 823.703 -689.26 816.125 -707.44 791.867 -708.2 
	C 775.953 -708.96 757.004 -702.9 758.52 -683.19 
	C 761.551 -643.02 863.113 -669.55 863.113 -584.67 
	C 863.113 -564.96 855.535 -547.53 841.895 -535.4 
	Z 
	"/>
</g>
<g fill="#7f7f7f" fill-rule="nonzero" stroke-width="0" stroke-linejoin="miter" stroke-linecap="butt" stroke-miterlimit="4" >
	<path d="
	M 1012.77 -522.25 
	L 1012.77 -616.23 
	L 933.941 -616.23 
	L 933.941 -522.25 
	L 899.836 -522.25 
	L 899.836 -738.25 
	L 933.941 -738.25 
	L 933.941 -651.1 
	L 1012.77 -651.1 
	L 1012.77 -738.25 
	L 1046.88 -738.25 
	L 1046.88 -522.25 
	Z 
	"/>
</g>
<g fill="#7f7f7f" fill-rule="nonzero" stroke-width="0" stroke-linejoin="miter" stroke-linecap="butt" stroke-miterlimit="4" >
	<path d="
	M 607.32 -678.38 
	L 585.215 -617.75 
	L 628.664 -617.75 
	Z 
	M 662.203 -522.25 
	L 640.859 -582.88 
	L 573.02 -582.88 
	L 551.676 -522.25 
	L 515.086 -522.25 
	L 589.789 -738.25 
	L 624.094 -738.25 
	L 698.793 -522.25 
	Z 
	"/>
</g>
<g fill="#7f7f7f" fill-rule="nonzero" stroke-width="0" stroke-linejoin="miter" stroke-linecap="butt" stroke-miterlimit="4" >
	<path d="
	M 235.84 -704.15 
	L 235.84 -651.09 
	L 298.66 -651.09 
	L 298.66 -616.23 
	L 235.84 -616.23 
	L 235.84 -522.25 
	L 201.777 -522.25 
	L 201.777 -738.25 
	L 335.754 -738.25 
	L 335.754 -704.15 
	Z 
	"/>
</g>
<g fill="#7f7f7f" fill-rule="nonzero" stroke-width="0" stroke-linejoin="miter" stroke-linecap="butt" stroke-miterlimit="4" >
	<path d="
	M 1458.51 -518.46 
	C 1425.92 -518.46 1406.97 -530.59 1394.08 -557.87 
	C 1384.99 -576.82 1379.68 -603.35 1379.68 -629.87 
	C 1379.68 -664.74 1389.53 -698.84 1403.94 -717.79 
	C 1416.82 -733.71 1435.01 -742.04 1459.27 -742.04 
	C 1492.62 -742.04 1512.32 -728.4 1526.72 -694.29 
	L 1494.13 -681.41 
	C 1485.04 -700.36 1475.94 -707.18 1459.27 -707.18 
	C 1441.83 -707.18 1430.46 -699.6 1422.88 -680.65 
	C 1417.58 -667.77 1414.55 -648.06 1414.55 -629.87 
	C 1414.55 -607.14 1418.34 -584.4 1425.16 -570.76 
	C 1431.98 -558.63 1441.83 -553.32 1454.72 -553.32 
	C 1476.7 -553.32 1492.62 -566.97 1492.62 -586.67 
	L 1492.62 -595.77 
	L 1453.2 -595.77 
	L 1453.2 -629.87 
	L 1526.72 -629.87 
	L 1526.72 -586.67 
	C 1526.72 -547.26 1497.92 -518.46 1458.51 -518.46 
	Z 
	"/>
</g>
<g fill="#7f7f7f" fill-rule="nonzero" stroke-width="0" stroke-linejoin="miter" stroke-linecap="butt" stroke-miterlimit="4" >
	<path d="
	M 646.449 -327.73 
	C 639.379 -331.77 635.336 -332.78 620.176 -332.78 
	L 565.602 -332.78 
	L 565.602 -262.04 
	L 620.176 -262.04 
	C 634.324 -262.04 639.379 -263.05 646.449 -267.09 
	C 657.566 -273.16 664.645 -285.29 664.645 -297.41 
	C 664.645 -309.54 657.566 -321.66 646.449 -327.73 
	Z 
	M 666.66 -90.25 
	L 620.176 -215.56 
	L 565.602 -215.56 
	L 565.602 -90.25 
	L 520.129 -90.25 
	L 520.129 -378.25 
	L 615.121 -378.25 
	C 637.355 -378.25 652.516 -376.23 666.66 -369.16 
	C 691.93 -357.03 710.117 -326.72 710.117 -297.41 
	C 710.117 -267.09 691.93 -236.78 665.652 -224.65 
	L 716.184 -90.25 
	Z 
	"/>
</g>
<g fill="#7f7f7f" fill-rule="nonzero" stroke-width="0" stroke-linejoin="miter" stroke-linecap="butt" stroke-miterlimit="4" >
	<path d="
	M 1138.64 -320.65 
	C 1131.57 -327.73 1121.46 -332.78 1109.33 -332.78 
	L 1057.79 -332.78 
	L 1057.79 -136.738 
	L 1103.27 -136.738 
	C 1118.43 -136.738 1127.53 -139.77 1135.61 -147.852 
	C 1152.79 -165.031 1161.88 -196.359 1161.88 -234.76 
	C 1161.88 -273.16 1152.79 -305.5 1138.64 -320.65 
	Z 
	M 1157.84 -106.422 
	C 1146.73 -96.309 1131.57 -91.262 1116.41 -90.25 
	C 1113.38 -90.25 1107.31 -90.25 1100.24 -90.25 
	L 1012.32 -90.25 
	L 1012.32 -378.25 
	L 1105.29 -378.25 
	C 1134.6 -378.25 1145.72 -375.22 1160.88 -363.1 
	C 1191.19 -336.82 1208.37 -291.35 1208.37 -234.76 
	C 1208.37 -177.16 1190.18 -131.68 1157.84 -106.422 
	Z 
	"/>
</g>
<g fill="#7f7f7f" fill-rule="nonzero" stroke-width="0" stroke-linejoin="miter" stroke-linecap="butt" stroke-miterlimit="4" >
	<path d="
	M 774.934 -90.25 
	L 774.934 -378.25 
	L 944.48 -378.25 
	L 944.48 -332.78 
	L 820.348 -332.78 
	L 820.348 -262.04 
	L 904.113 -262.04 
	L 904.113 -215.56 
	L 820.348 -215.56 
	L 820.348 -136.738 
	L 953.566 -136.738 
	L 953.566 -90.25 
	Z 
	"/>
</g>
<g fill="#7f7f7f" fill-rule="nonzero" stroke-width="0" stroke-linejoin="miter" stroke-linecap="butt" stroke-miterlimit="4" >
	<path d="
	M 817.086 642.031 
	C 824.137 642.609 831.426 641.129 838.02 637.332 
	C 855.238 627.391 861.137 605.371 851.195 588.148 
	C 849.449 585.129 847.32 582.461 844.922 580.148 
	L 760.352 500.301 
	L 1343.84 163.43 
	L 1249.33 -0.25 
	L 665.852 336.621 
	L 638.984 223.461 
	C 638.191 220.23 636.941 217.059 635.195 214.031 
	C 625.254 196.809 603.238 190.91 586.02 200.852 
	C 579.43 204.66 574.504 210.238 571.484 216.629 
	L 384.66 608.09 
	Z 
	"/>
</g>
<g fill="#7f7f7f" fill-rule="nonzero" stroke-width="0" stroke-linejoin="miter" stroke-linecap="butt" stroke-miterlimit="4" >
	<path d="
	M 1459.6 -882.25 
	L 1376.99 -1028.52 
	L 1376.99 -882.25 
	L 1342.88 -882.25 
	L 1342.88 -1098.25 
	L 1376.99 -1098.25 
	L 1455.81 -960.31 
	L 1455.81 -1098.25 
	L 1489.92 -1098.25 
	L 1489.92 -882.25 
	Z 
	"/>
</g>
<g fill="#7f7f7f" fill-rule="nonzero" stroke-width="0" stroke-linejoin="miter" stroke-linecap="butt" stroke-miterlimit="4" >
	<path d="
	M 1248.26 -1050.5 
	C 1241.42 -1061.87 1233.06 -1066.42 1220.15 -1067.18 
	C 1203.43 -1067.94 1192.79 -1059.6 1185.2 -1040.65 
	C 1179.88 -1027.77 1176.84 -1008.06 1176.84 -989.87 
	C 1176.84 -967.14 1181.4 -943.64 1189.75 -930 
	C 1196.59 -918.63 1205.71 -913.32 1219.39 -913.32 
	C 1235.34 -913.32 1245.22 -921.66 1252.81 -940.61 
	C 1257.37 -951.98 1261.17 -973.2 1261.17 -989.87 
	C 1261.17 -1014.13 1256.61 -1036.11 1248.26 -1050.5 
	Z 
	M 1271.81 -902.71 
	C 1259.65 -886.04 1242.18 -878.46 1219.39 -878.46 
	C 1189 -878.46 1170 -890.59 1157.08 -917.11 
	C 1147.97 -935.3 1141.89 -964.11 1141.89 -989.87 
	C 1141.89 -1025.49 1151.01 -1057.32 1165.44 -1077.79 
	C 1178.36 -1094.46 1195.83 -1102.04 1220.9 -1102.04 
	C 1248.26 -1102.04 1267.25 -1089.91 1280.92 -1063.39 
	C 1290.04 -1044.44 1295.36 -1017.16 1295.36 -989.87 
	C 1295.36 -955.77 1287 -921.66 1271.81 -902.71 
	Z 
	"/>
</g>
<g fill="#7f7f7f" fill-rule="nonzero" stroke-width="0" stroke-linejoin="miter" stroke-linecap="butt" stroke-miterlimit="4" >
	<path d="
	M 702.898 -1060.36 
	C 697.594 -1063.39 694.563 -1064.14 683.191 -1064.14 
	L 642.262 -1064.14 
	L 642.262 -1011.09 
	L 683.191 -1011.09 
	C 693.805 -1011.09 697.594 -1011.85 702.898 -1014.88 
	C 711.234 -1019.43 716.543 -1028.53 716.543 -1037.62 
	C 716.543 -1046.71 711.234 -1055.81 702.898 -1060.36 
	Z 
	M 718.059 -882.25 
	L 683.191 -976.23 
	L 642.262 -976.23 
	L 642.262 -882.25 
	L 608.156 -882.25 
	L 608.156 -1098.25 
	L 679.402 -1098.25 
	C 696.078 -1098.25 707.445 -1096.73 718.059 -1091.43 
	C 737.008 -1082.34 750.648 -1059.6 750.648 -1037.62 
	C 750.648 -1014.88 737.008 -992.14 717.301 -983.05 
	L 755.199 -882.25 
	Z 
	"/>
</g>
<g fill="#7f7f7f" fill-rule="nonzero" stroke-width="0" stroke-linejoin="miter" stroke-linecap="butt" stroke-miterlimit="4" >
	<path d="
	M 351.516 -882.25 
	L 351.516 -976.23 
	L 272.688 -976.23 
	L 272.688 -882.25 
	L 238.578 -882.25 
	L 238.578 -1098.25 
	L 272.688 -1098.25 
	L 272.688 -1011.09 
	L 351.516 -1011.09 
	L 351.516 -1098.25 
	L 385.621 -1098.25 
	L 385.621 -882.25 
	Z 
	"/>
</g>
<g fill="#7f7f7f" fill-rule="nonzero" stroke-width="0" stroke-linejoin="miter" stroke-linecap="butt" stroke-miterlimit="4" >
	<path d="
	M 437.461 -882.25 
	L 437.461 -1098.25 
	L 564.621 -1098.25 
	L 564.621 -1064.15 
	L 471.52 -1064.15 
	L 471.52 -1011.09 
	L 534.348 -1011.09 
	L 534.348 -976.23 
	L 471.52 -976.23 
	L 471.52 -917.11 
	L 571.438 -917.11 
	L 571.438 -882.25 
	Z 
	"/>
</g>
<g fill="#7f7f7f" fill-rule="nonzero" stroke-width="0" stroke-linejoin="miter" stroke-linecap="butt" stroke-miterlimit="4" >
	<path d="
	M 791.918 -882.25 
	L 791.918 -1098.25 
	L 919.078 -1098.25 
	L 919.078 -1064.15 
	L 825.977 -1064.15 
	L 825.977 -1011.09 
	L 888.805 -1011.09 
	L 888.805 -976.23 
	L 825.977 -976.23 
	L 825.977 -917.11 
	L 925.891 -917.11 
	L 925.891 -882.25 
	Z 
	"/>
</g>
</g >
</g>
</svg>
