<?xml version="1.0" standalone="no"?>
<svg width="3889px" height="2593px" viewBox="0 -1801 3889 2593 " xmlns="http://www.w3.org/2000/svg" xmlns:xlink="http://www.w3.org/1999/xlink">
<title>generated by pstoedit</title>
<!-- generated by pstoedit version:4.02 -->
<g xml:space='preserve'>
<clipPath id="clippath1"> 	<path d="
	M 0 -1801 
	L 0 792 
	L 3889 792 
	L 3889 -1801 
	Z 
	" style="clip-rule:nonzero"/>
</clipPath>
<g style="clip-path:url(#clippath1)"> 
<g fill="#ffffff" fill-rule="nonzero" stroke-width="0" stroke-linejoin="miter" stroke-linecap="butt" stroke-miterlimit="10" >
	<path d="
	M 3888.5 629.5 
	C 3888.5 718.969 3815.97 791.5 3726.5 791.5 
	L 162.5 791.5 
	C 73.0313 791.5 0.5 718.969 0.5 629.5 
	L 0.5 -1638.5 
	C 0.5 -1727.97 73.0313 -1800.5 162.5 -1800.5 
	L 3726.5 -1800.5 
	C 3815.97 -1800.5 3888.5 -1727.97 3888.5 -1638.5 
	Z 
	"/>
</g>
<g stroke="#7f7f7f" fill="none" stroke-width="1" stroke-linejoin="miter" stroke-linecap="butt" stroke-miterlimit="4" >
	<path d="
	M 3888.5 629.5 
	C 3888.5 718.969 3815.97 791.5 3726.5 791.5 
	L 162.5 791.5 
	C 73.0313 791.5 0.5 718.969 0.5 629.5 
	L 0.5 -1638.5 
	C 0.5 -1727.97 73.0313 -1800.5 162.5 -1800.5 
	L 3726.5 -1800.5 
	C 3815.97 -1800.5 3888.5 -1727.97 3888.5 -1638.5 
	Z 
	"/>
</g>
<g fill="#7f7f7f" fill-rule="nonzero" stroke-width="0" stroke-linejoin="miter" stroke-linecap="butt" stroke-miterlimit="4" >
	<path d="
	M 3780.5 629.5 
	C 3780.5 659.281 3756.28 683.5 3726.5 683.5 
	L 162.5 683.5 
	C 132.727 683.5 108.5 659.281 108.5 629.5 
	L 108.5 -1638.5 
	C 108.5 -1668.28 132.727 -1692.5 162.5 -1692.5 
	L 3726.5 -1692.5 
	C 3756.28 -1692.5 3780.5 -1668.28 3780.5 -1638.5 
	Z 
	M 3726.5 -1755.5 
	L 162.5 -1755.5 
	C 97.9844 -1755.5 45.5 -1703.02 45.5 -1638.5 
	L 45.5 629.5 
	C 45.5 694.012 97.9844 746.5 162.5 746.5 
	L 3726.5 746.5 
	C 3791.01 746.5 3843.5 694.012 3843.5 629.5 
	L 3843.5 -1638.5 
	C 3843.5 -1703.02 3791.01 -1755.5 3726.5 -1755.5 
	Z 
	"/>
</g>
<g fill="#7f7f7f" fill-rule="nonzero" stroke-width="0" stroke-linejoin="miter" stroke-linecap="butt" stroke-miterlimit="4" >
	<path d="
	M 739.309 539.5 
	L 739.309 392.852 
	L 650.813 392.852 
	L 650.813 539.5 
	L 604.301 539.5 
	L 604.301 215.5 
	L 650.813 215.5 
	L 650.813 347.379 
	L 739.309 347.379 
	L 739.309 215.5 
	L 785.82 215.5 
	L 785.82 539.5 
	Z 
	"/>
</g>
<g fill="#7f7f7f" fill-rule="nonzero" stroke-width="0" stroke-linejoin="miter" stroke-linecap="butt" stroke-miterlimit="4" >
	<path d="
	M 986.895 296.211 
	C 978.883 267.789 966.285 255.289 946.816 255.289 
	C 926.203 255.289 913.605 267.789 905.594 295.082 
	C 897.574 320.09 895.285 341.691 895.285 378.07 
	C 895.285 413.309 898.719 433.77 905.594 459.922 
	C 913.605 487.199 926.203 499.711 946.816 499.711 
	C 966.285 499.711 978.883 487.199 986.895 459.922 
	C 994.918 433.77 997.203 414.449 997.203 376.93 
	C 997.203 340.551 993.77 320.09 986.895 296.211 
	Z 
	M 1023.54 489.48 
	C 1007.51 528.129 983.465 545.18 946.816 545.18 
	C 907.883 545.18 884.98 528.129 868.945 489.48 
	C 855.203 457.648 850.621 426.949 850.621 376.93 
	C 850.621 328.051 855.203 295.082 868.945 264.379 
	C 886.125 225.73 909.027 209.809 946.816 209.809 
	C 984.609 209.809 1007.51 225.73 1023.54 265.52 
	C 1037.29 297.352 1041.87 328.051 1041.87 376.93 
	C 1041.87 426.949 1037.29 458.781 1023.54 489.48 
	Z 
	"/>
</g>
<g fill="#7f7f7f" fill-rule="nonzero" stroke-width="0" stroke-linejoin="miter" stroke-linecap="butt" stroke-miterlimit="4" >
	<path d="
	M 1421.22 296.211 
	C 1413.21 267.789 1400.61 255.289 1381.14 255.289 
	C 1360.53 255.289 1347.93 267.789 1339.92 295.082 
	C 1331.9 320.09 1329.61 341.691 1329.61 378.07 
	C 1329.61 413.309 1333.05 433.77 1339.92 459.922 
	C 1347.93 487.199 1360.53 499.711 1381.14 499.711 
	C 1400.61 499.711 1413.21 487.199 1421.22 459.922 
	C 1429.24 433.77 1431.53 414.449 1431.53 376.93 
	C 1431.53 340.551 1428.1 320.09 1421.22 296.211 
	Z 
	M 1457.87 489.48 
	C 1441.84 528.129 1417.79 545.18 1381.14 545.18 
	C 1342.21 545.18 1319.31 528.129 1303.27 489.48 
	C 1289.53 457.648 1284.95 426.949 1284.95 376.93 
	C 1284.95 328.051 1289.53 295.082 1303.27 264.379 
	C 1320.45 225.73 1343.36 209.809 1381.14 209.809 
	C 1418.94 209.809 1441.84 225.73 1457.87 265.52 
	C 1471.61 297.352 1476.19 328.051 1476.19 376.93 
	C 1476.19 426.949 1471.61 458.781 1457.87 489.48 
	Z 
	"/>
</g>
<g fill="#7f7f7f" fill-rule="nonzero" stroke-width="0" stroke-linejoin="miter" stroke-linecap="butt" stroke-miterlimit="4" >
	<path d="
	M 452.141 260.969 
	L 404.488 260.969 
	L 404.488 353.059 
	L 452.141 353.059 
	C 479.367 353.059 494.117 336.012 494.117 306.449 
	C 494.117 279.16 477.098 260.969 452.141 260.969 
	Z 
	M 454.41 397.398 
	L 404.488 397.398 
	L 404.488 539.5 
	L 357.977 539.5 
	L 357.977 215.5 
	L 454.41 215.5 
	C 505.461 215.5 539.496 251.879 539.496 306.449 
	C 539.496 365.559 508.863 397.398 454.41 397.398 
	Z 
	"/>
</g>
<g fill="#7f7f7f" fill-rule="nonzero" stroke-width="0" stroke-linejoin="miter" stroke-linecap="butt" stroke-miterlimit="4" >
	<path d="
	M 1186.78 258.699 
	L 1186.78 539.5 
	L 1140.04 539.5 
	L 1140.04 258.699 
	L 1080.75 258.699 
	L 1080.75 215.5 
	L 1246.07 215.5 
	L 1246.07 258.699 
	Z 
	"/>
</g>
<g fill="#7f7f7f" fill-rule="nonzero" stroke-width="0" stroke-linejoin="miter" stroke-linecap="butt" stroke-miterlimit="4" >
	<path d="
	M 3017.49 301.898 
	C 3012.92 270.07 3000.36 255.289 2978.67 255.289 
	C 2940.99 255.289 2927.3 284.84 2927.3 368.969 
	C 2927.3 462.199 2943.28 499.711 2983.24 499.711 
	C 3010.64 499.711 3017.49 476.969 3017.49 453.102 
	L 3064.29 453.102 
	C 3063.15 506.531 3028.9 545.18 2983.24 545.18 
	C 2913.59 545.18 2882.77 489.48 2882.77 370.109 
	C 2882.77 265.52 2915.88 209.809 2979.81 209.809 
	C 3006.07 209.809 3028.9 221.18 3043.75 242.781 
	C 3056.3 258.691 3060.87 272.34 3064.29 301.898 
	Z 
	"/>
</g>
<g fill="#7f7f7f" fill-rule="nonzero" stroke-width="0" stroke-linejoin="miter" stroke-linecap="butt" stroke-miterlimit="4" >
	<path d="
	M 3476.57 293.941 
	C 3468.63 271.211 3455.01 260.969 3434.59 260.969 
	L 3396.02 260.969 
	L 3396.02 494.02 
	L 3434.59 494.02 
	C 3461.82 494.02 3476.57 472.43 3481.1 447.422 
	C 3483.37 426.949 3485.64 404.219 3485.64 379.211 
	C 3485.64 342.832 3482.24 307.582 3476.57 293.941 
	Z 
	M 3484.51 524.719 
	C 3473.16 534.949 3457.28 539.5 3439.13 539.5 
	L 3349.5 539.5 
	L 3349.5 215.5 
	L 3432.32 215.5 
	C 3459.55 215.5 3473.16 218.91 3484.51 228.012 
	C 3503.8 241.648 3517.41 266.66 3523.08 299.629 
	C 3527.62 323.5 3531.02 351.922 3531.02 376.93 
	C 3531.02 451.961 3516.28 499.711 3484.51 524.719 
	Z 
	"/>
</g>
<g fill="#7f7f7f" fill-rule="nonzero" stroke-width="0" stroke-linejoin="miter" stroke-linecap="butt" stroke-miterlimit="4" >
	<path d="
	M 1719.19 539.5 
	L 1719.19 215.5 
	L 1871.97 215.5 
	L 1871.97 260.969 
	L 1765.94 260.969 
	L 1765.94 342.832 
	L 1833.21 342.832 
	L 1833.21 387.16 
	L 1765.94 387.16 
	L 1765.94 494.02 
	L 1884.52 494.02 
	L 1884.52 539.5 
	Z 
	"/>
</g>
<g fill="#7f7f7f" fill-rule="nonzero" stroke-width="0" stroke-linejoin="miter" stroke-linecap="butt" stroke-miterlimit="4" >
	<path d="
	M 3129.1 539.5 
	L 3129.1 215.5 
	L 3281.87 215.5 
	L 3281.87 260.969 
	L 3175.84 260.969 
	L 3175.84 342.832 
	L 3243.11 342.832 
	L 3243.11 387.16 
	L 3175.84 387.16 
	L 3175.84 494.02 
	L 3294.42 494.02 
	L 3294.42 539.5 
	Z 
	"/>
</g>
<g fill="#7f7f7f" fill-rule="nonzero" stroke-width="0" stroke-linejoin="miter" stroke-linecap="butt" stroke-miterlimit="4" >
	<path d="
	M 2239.15 260.969 
	L 2239.15 342.832 
	L 2304.14 342.832 
	L 2304.14 387.16 
	L 2239.15 387.16 
	L 2239.15 539.5 
	L 2192.4 539.5 
	L 2192.4 215.5 
	L 2357.73 215.5 
	L 2357.73 260.969 
	Z 
	"/>
</g>
<g fill="#7f7f7f" fill-rule="nonzero" stroke-width="0" stroke-linejoin="miter" stroke-linecap="butt" stroke-miterlimit="4" >
	<path d="
	M 2085.95 539.5 
	L 1986.11 322.359 
	L 1986.11 539.5 
	L 1939.6 539.5 
	L 1939.6 215.5 
	L 1986.11 215.5 
	L 2074.61 409.898 
	L 2074.61 215.5 
	L 2121.12 215.5 
	L 2121.12 539.5 
	Z 
	"/>
</g>
<g fill="#7f7f7f" fill-rule="nonzero" stroke-width="0" stroke-linejoin="miter" stroke-linecap="butt" stroke-miterlimit="4" >
	<path d="
	M 2532.88 296.211 
	C 2524.87 267.789 2512.27 255.289 2492.8 255.289 
	C 2472.19 255.289 2459.59 267.789 2451.57 295.082 
	C 2443.56 320.09 2441.27 341.691 2441.27 378.07 
	C 2441.27 413.309 2444.7 433.77 2451.57 459.922 
	C 2459.59 487.199 2472.19 499.711 2492.8 499.711 
	C 2512.27 499.711 2524.87 487.199 2532.88 459.922 
	C 2540.9 433.77 2543.19 414.449 2543.19 376.93 
	C 2543.19 340.551 2539.75 320.09 2532.88 296.211 
	Z 
	M 2569.53 489.48 
	C 2553.49 528.129 2529.44 545.18 2492.8 545.18 
	C 2453.86 545.18 2430.96 528.129 2414.93 489.48 
	C 2401.18 457.648 2396.61 426.949 2396.61 376.93 
	C 2396.61 328.051 2401.18 295.082 2414.93 264.379 
	C 2432.1 225.73 2455.01 209.809 2492.8 209.809 
	C 2530.59 209.809 2553.49 225.73 2569.53 265.52 
	C 2583.27 297.352 2587.85 328.051 2587.85 376.93 
	C 2587.85 426.949 2583.27 458.781 2569.53 489.48 
	Z 
	"/>
</g>
<g fill="#7f7f7f" fill-rule="nonzero" stroke-width="0" stroke-linejoin="miter" stroke-linecap="butt" stroke-miterlimit="4" >
	<path d="
	M 2746.82 260.969 
	L 2699.16 260.969 
	L 2699.16 342.832 
	L 2746.82 342.832 
	C 2774.04 342.832 2788.79 328.051 2788.79 301.898 
	C 2788.79 276.891 2771.77 260.969 2746.82 260.969 
	Z 
	M 2786.52 539.5 
	L 2743.41 387.16 
	L 2699.16 387.16 
	L 2699.16 539.5 
	L 2652.65 539.5 
	L 2652.65 215.5 
	L 2749.08 215.5 
	C 2800.14 215.5 2834.17 249.609 2834.17 301.898 
	C 2834.17 340.551 2818.29 368.969 2787.66 380.34 
	L 2834.17 539.5 
	Z 
	"/>
</g>
<g fill="#7f7f7f" fill-rule="nonzero" stroke-width="0" stroke-linejoin="miter" stroke-linecap="butt" stroke-miterlimit="4" >
	<path d="
	M 1944.5 -673.54 
	C 1850.85 -673.54 1774.94 -749.46 1774.94 -843.11 
	C 1774.94 -936.76 1850.85 -1012.68 1944.5 -1012.68 
	C 2038.15 -1012.68 2114.06 -936.76 2114.06 -843.11 
	C 2114.06 -749.46 2038.15 -673.54 1944.5 -673.54 
	Z 
	M 2351.46 -1073.72 
	L 1537.54 -1073.72 
	C 1522.56 -1073.72 1510.41 -1061.57 1510.41 -1046.59 
	L 1510.41 -639.63 
	C 1510.41 -624.65 1522.56 -612.5 1537.54 -612.5 
	L 2351.46 -612.5 
	C 2366.44 -612.5 2378.59 -624.65 2378.59 -639.63 
	L 2378.59 -1046.59 
	C 2378.59 -1061.57 2366.44 -1073.72 2351.46 -1073.72 
	Z 
	"/>
</g>
<g fill="#7f7f7f" fill-rule="nonzero" stroke-width="0" stroke-linejoin="miter" stroke-linecap="butt" stroke-miterlimit="4" >
	<path d="
	M 2073.37 -1263.63 
	L 1815.63 -1263.63 
	C 1800.65 -1263.63 1788.5 -1251.48 1788.5 -1236.5 
	L 1788.5 -1127.98 
	C 1788.5 -1113 1800.65 -1100.85 1815.63 -1100.85 
	L 2073.37 -1100.85 
	C 2088.35 -1100.85 2100.5 -1113 2100.5 -1127.98 
	L 2100.5 -1236.5 
	C 2100.5 -1251.48 2088.35 -1263.63 2073.37 -1263.63 
	Z 
	"/>
</g>
<g fill="#7f7f7f" fill-rule="nonzero" stroke-width="0" stroke-linejoin="miter" stroke-linecap="butt" stroke-miterlimit="4" >
	<path d="
	M 1758.1 -1207.98 
	L 1522.24 -1271.18 
	L 1511.71 -1231.87 
	L 1747.57 -1168.68 
	Z 
	"/>
</g>
<g fill="#7f7f7f" fill-rule="nonzero" stroke-width="0" stroke-linejoin="miter" stroke-linecap="butt" stroke-miterlimit="4" >
	<path d="
	M 1818.44 -1319.54 
	L 1645.78 -1492.2 
	L 1617.01 -1463.42 
	L 1789.67 -1290.76 
	Z 
	"/>
</g>
<g fill="#7f7f7f" fill-rule="nonzero" stroke-width="0" stroke-linejoin="miter" stroke-linecap="butt" stroke-miterlimit="4" >
	<path d="
	M 2141.44 -1168.68 
	L 2377.29 -1231.87 
	L 2366.76 -1271.18 
	L 2130.9 -1207.98 
	Z 
	"/>
</g>
<g fill="#7f7f7f" fill-rule="nonzero" stroke-width="0" stroke-linejoin="miter" stroke-linecap="butt" stroke-miterlimit="4" >
	<path d="
	M 2271.99 -1463.42 
	L 2243.22 -1492.2 
	L 2070.56 -1319.54 
	L 2099.34 -1290.76 
	Z 
	"/>
</g>
<g fill="#7f7f7f" fill-rule="nonzero" stroke-width="0" stroke-linejoin="miter" stroke-linecap="butt" stroke-miterlimit="4" >
	<path d="
	M 1964.85 -1548.5 
	L 1924.15 -1548.5 
	L 1924.15 -1304.33 
	L 1964.85 -1304.33 
	Z 
	"/>
</g>
<g fill="#7f7f7f" fill-rule="nonzero" stroke-width="0" stroke-linejoin="miter" stroke-linecap="butt" stroke-miterlimit="4" >
	<path d="
	M 1218.97 -263.87 
	L 1196.18 -170.648 
	L 1242.91 -170.648 
	Z 
	M 1277.1 -36.5 
	L 1254.31 -125.172 
	L 1184.78 -125.172 
	L 1163.13 -36.5 
	L 1116.39 -36.5 
	L 1197.32 -360.5 
	L 1242.91 -360.5 
	L 1323.84 -36.5 
	Z 
	"/>
</g>
<g fill="#7f7f7f" fill-rule="nonzero" stroke-width="0" stroke-linejoin="miter" stroke-linecap="butt" stroke-miterlimit="4" >
	<path d="
	M 2035.44 -274.1 
	C 2030.87 -305.93 2018.31 -320.71 1996.62 -320.71 
	C 1958.94 -320.71 1945.25 -291.15 1945.25 -207.02 
	C 1945.25 -113.801 1961.23 -76.289 2001.19 -76.289 
	C 2028.58 -76.289 2035.44 -99.02 2035.44 -122.898 
	L 2082.24 -122.898 
	C 2081.1 -69.469 2046.85 -30.809 2001.19 -30.809 
	C 1931.55 -30.809 1900.72 -86.52 1900.72 -205.891 
	C 1900.72 -310.48 1933.83 -366.18 1997.76 -366.18 
	C 2024.02 -366.18 2046.85 -354.82 2061.7 -333.21 
	C 2074.25 -317.3 2078.82 -303.66 2082.24 -274.1 
	Z 
	"/>
</g>
<g fill="#7f7f7f" fill-rule="nonzero" stroke-width="0" stroke-linejoin="miter" stroke-linecap="butt" stroke-miterlimit="4" >
	<path d="
	M 1415.94 -315.03 
	L 1415.94 -233.17 
	L 1480.93 -233.17 
	L 1480.93 -188.828 
	L 1415.94 -188.828 
	L 1415.94 -36.5 
	L 1369.2 -36.5 
	L 1369.2 -360.5 
	L 1534.52 -360.5 
	L 1534.52 -315.03 
	Z 
	"/>
</g>
<g fill="#7f7f7f" fill-rule="nonzero" stroke-width="0" stroke-linejoin="miter" stroke-linecap="butt" stroke-miterlimit="4" >
	<path d="
	M 1626.63 -315.03 
	L 1626.63 -233.17 
	L 1691.62 -233.17 
	L 1691.62 -188.828 
	L 1626.63 -188.828 
	L 1626.63 -36.5 
	L 1579.88 -36.5 
	L 1579.88 -360.5 
	L 1745.2 -360.5 
	L 1745.2 -315.03 
	Z 
	"/>
</g>
<g fill="#7f7f7f" fill-rule="nonzero" stroke-width="0" stroke-linejoin="miter" stroke-linecap="butt" stroke-miterlimit="4" >
	<path d="
	M 1790.56 -36.5 
	L 1790.56 -360.5 
	L 1835.92 -360.5 
	L 1835.92 -36.5 
	Z 
	"/>
</g>
<g fill="#7f7f7f" fill-rule="nonzero" stroke-width="0" stroke-linejoin="miter" stroke-linecap="butt" stroke-miterlimit="4" >
	<path d="
	M 999.875 -315.03 
	L 952.227 -315.03 
	L 952.227 -233.17 
	L 999.875 -233.17 
	C 1027.1 -233.17 1041.85 -247.95 1041.85 -274.1 
	C 1041.85 -299.11 1024.83 -315.03 999.875 -315.03 
	Z 
	M 1039.58 -36.5 
	L 996.473 -188.828 
	L 952.227 -188.828 
	L 952.227 -36.5 
	L 905.711 -36.5 
	L 905.711 -360.5 
	L 1002.14 -360.5 
	C 1053.2 -360.5 1087.23 -326.39 1087.23 -274.1 
	C 1087.23 -235.45 1071.35 -207.02 1040.72 -195.66 
	L 1087.23 -36.5 
	Z 
	"/>
</g>
<g fill="#7f7f7f" fill-rule="nonzero" stroke-width="0" stroke-linejoin="miter" stroke-linecap="butt" stroke-miterlimit="4" >
	<path d="
	M 801.063 -317.3 
	L 801.063 -36.5 
	L 754.316 -36.5 
	L 754.316 -317.3 
	L 695.027 -317.3 
	L 695.027 -360.5 
	L 860.352 -360.5 
	L 860.352 -317.3 
	Z 
	"/>
</g>
<g fill="#7f7f7f" fill-rule="nonzero" stroke-width="0" stroke-linejoin="miter" stroke-linecap="butt" stroke-miterlimit="4" >
	<path d="
	M 2612.59 -263.87 
	L 2589.79 -170.648 
	L 2636.52 -170.648 
	Z 
	M 2670.71 -36.5 
	L 2647.92 -125.172 
	L 2578.39 -125.172 
	L 2556.74 -36.5 
	L 2510.01 -36.5 
	L 2590.93 -360.5 
	L 2636.52 -360.5 
	L 2717.45 -36.5 
	Z 
	"/>
</g>
<g fill="#7f7f7f" fill-rule="nonzero" stroke-width="0" stroke-linejoin="miter" stroke-linecap="butt" stroke-miterlimit="4" >
	<path d="
	M 2325.24 -36.5 
	L 2325.24 -360.5 
	L 2371.99 -360.5 
	L 2371.99 -79.699 
	L 2490.57 -79.699 
	L 2490.57 -36.5 
	Z 
	"/>
</g>
<g fill="#7f7f7f" fill-rule="nonzero" stroke-width="0" stroke-linejoin="miter" stroke-linecap="butt" stroke-miterlimit="4" >
	<path d="
	M 3104.71 -186.121 
	C 3090.69 -195.211 3077.08 -204.32 3068.39 -210.44 
	C 3042.27 -228.82 3028.43 -253.64 3028.43 -282.06 
	C 3028.43 -328.67 3064.97 -366.19 3111.78 -366.19 
	C 3157.44 -366.19 3192.83 -330.94 3193.97 -282.06 
	L 3149.45 -282.06 
	C 3148.31 -304.79 3132.32 -319.57 3111.78 -319.57 
	C 3090.08 -319.57 3072.96 -303.66 3072.96 -282.06 
	C 3072.96 -266.14 3079.81 -257.05 3103.78 -243.4 
	C 3166.58 -207.02 3193.97 -171.781 3193.97 -125.172 
	C 3193.97 -72.879 3154.02 -30.809 3103.78 -30.809 
	C 3046.7 -30.809 3012.45 -78.559 3012.45 -131.988 
	L 3058.12 -131.988 
	C 3058.12 -104.711 3071.82 -76.289 3103.78 -76.289 
	C 3128.9 -76.289 3149.45 -99.02 3149.45 -125.172 
	C 3149.45 -145.469 3141.06 -162.578 3104.71 -186.121 
	Z 
	"/>
</g>
<g fill="#7f7f7f" fill-rule="nonzero" stroke-width="0" stroke-linejoin="miter" stroke-linecap="butt" stroke-miterlimit="4" >
	<path d="
	M 2930.81 -36.5 
	L 2890.89 -36.5 
	L 2860.09 -205.891 
	L 2829.29 -36.5 
	L 2788.22 -36.5 
	L 2736.89 -360.5 
	L 2782.52 -360.5 
	L 2809.9 -187.699 
	L 2841.84 -360.5 
	L 2878.34 -360.5 
	L 2909.14 -187.699 
	L 2937.66 -360.5 
	L 2983.29 -360.5 
	Z 
	"/>
</g>
</g >
</g>
</svg>
