<?xml version="1.0" standalone="no"?>
<svg width="1728px" height="2160px" viewBox="0 -1368 1728 2160 " xmlns="http://www.w3.org/2000/svg" xmlns:xlink="http://www.w3.org/1999/xlink">
<title>generated by pstoedit</title>
<!-- generated by pstoedit version:4.02 -->
<g xml:space='preserve'>
<clipPath id="clippath1"> 	<path d="
	M 0 -1368.5 
	L 0 792 
	L 1728.5 792 
	L 1728.5 -1368.5 
	Z 
	" style="clip-rule:nonzero"/>
</clipPath>
<g style="clip-path:url(#clippath1)"> 
<g fill="#ffffff" fill-rule="nonzero" stroke-width="0" stroke-linejoin="miter" stroke-linecap="butt" stroke-miterlimit="10" >
	<path d="
	M 1728.25 683.75 
	C 1728.25 743.398 1679.9 791.75 1620.25 791.75 
	L 108.25 791.75 
	C 48.6016 791.75 0.25 743.398 0.25 683.75 
	L 0.25 -1260.25 
	C 0.25 -1319.9 48.6016 -1368.25 108.25 -1368.25 
	L 1620.25 -1368.25 
	C 1679.9 -1368.25 1728.25 -1319.9 1728.25 -1260.25 
	Z 
	"/>
</g>
<g stroke="#7f7f7f" fill="none" stroke-width="0.5" stroke-linejoin="miter" stroke-linecap="butt" stroke-miterlimit="4" >
	<path d="
	M 1728.25 683.75 
	C 1728.25 743.398 1679.9 791.75 1620.25 791.75 
	L 108.25 791.75 
	C 48.6016 791.75 0.25 743.398 0.25 683.75 
	L 0.25 -1260.25 
	C 0.25 -1319.9 48.6016 -1368.25 108.25 -1368.25 
	L 1620.25 -1368.25 
	C 1679.9 -1368.25 1728.25 -1319.9 1728.25 -1260.25 
	Z 
	"/>
</g>
<g fill="#7f7f7f" fill-rule="nonzero" stroke-width="0" stroke-linejoin="miter" stroke-linecap="butt" stroke-miterlimit="4" >
	<path d="
	M 108.25 764.75 
	C 63.5859 764.75 27.25 728.41 27.25 683.75 
	L 27.25 -1260.25 
	C 27.25 -1304.91 63.5859 -1341.25 108.25 -1341.25 
	L 1620.25 -1341.25 
	C 1664.91 -1341.25 1701.25 -1304.91 1701.25 -1260.25 
	L 1701.25 683.75 
	C 1701.25 728.41 1664.91 764.75 1620.25 764.75 
	Z 
	"/>
</g>
<g fill="#ffffff" fill-rule="nonzero" stroke-width="0" stroke-linejoin="miter" stroke-linecap="butt" stroke-miterlimit="4" >
	<path d="
	M 1656.25 -1260.25 
	C 1656.25 -1280.1 1640.1 -1296.25 1620.25 -1296.25 
	L 108.25 -1296.25 
	C 88.3984 -1296.25 72.25 -1280.1 72.25 -1260.25 
	L 72.25 -828.25 
	L 1656.25 -828.25 
	Z 
	"/>
</g>
<g fill="#ffffff" fill-rule="nonzero" stroke-width="0" stroke-linejoin="miter" stroke-linecap="butt" stroke-miterlimit="4" >
	<path d="
	M 72.25 683.75 
	C 72.25 703.602 88.3984 719.75 108.25 719.75 
	L 1620.25 719.75 
	C 1640.1 719.75 1656.25 703.602 1656.25 683.75 
	L 1656.25 -783.25 
	L 72.25 -783.25 
	Z 
	"/>
</g>
<g fill="#7f88e1" fill-rule="evenodd" stroke-width="0" stroke-linejoin="miter" stroke-linecap="butt" stroke-miterlimit="4" >
	<path d="
	M 864.25 206.75 
	C 983.219 206.75 1080.25 303.789 1080.25 422.762 
	C 1080.25 541.719 983.219 638.75 864.25 638.75 
	C 745.281 638.75 648.25 541.719 648.25 422.762 
	C 648.25 303.789 745.281 206.75 864.25 206.75 
	"/>
</g>
<g fill="#7f7f7f" fill-rule="nonzero" stroke-width="0" stroke-linejoin="miter" stroke-linecap="butt" stroke-miterlimit="4" >
	<path d="
	M 1211.43 -1108.23 
	L 1195.27 -1032.44 
	L 1226.59 -1032.44 
	Z 
	M 1250.84 -918.25 
	L 1234.67 -995.05 
	L 1187.18 -995.05 
	L 1171.02 -918.25 
	L 1133.64 -918.25 
	L 1192.24 -1206.25 
	L 1229.62 -1206.25 
	L 1289.23 -918.25 
	Z 
	"/>
</g>
<g fill="#7f7f7f" fill-rule="nonzero" stroke-width="0" stroke-linejoin="miter" stroke-linecap="butt" stroke-miterlimit="4" >
	<path d="
	M 242.172 -947.55 
	C 235.875 -926.66 216.781 -913.2 191.391 -913.2 
	C 161.938 -913.2 143.652 -925.32 134.512 -951.6 
	C 126.387 -975.85 122.324 -1015.26 122.324 -1061.75 
	C 122.324 -1088.02 125.371 -1126.42 129.434 -1148.65 
	C 137.559 -1193.11 154.824 -1210.29 189.359 -1210.29 
	C 221.859 -1210.29 243.188 -1190.08 246.234 -1154.71 
	L 208.656 -1154.71 
	C 207.641 -1166.84 200.531 -1172.9 190.375 -1172.9 
	C 177.172 -1172.9 170.063 -1163.81 165.996 -1144.61 
	C 160.918 -1121.37 159.902 -1100.14 159.902 -1061.75 
	C 159.902 -1021.32 160.918 -1004.14 165.996 -979.89 
	C 170.063 -960.69 177.172 -950.59 189.359 -950.59 
	C 202.563 -950.59 208.656 -960.69 208.656 -985.95 
	L 246.234 -985.95 
	C 246.234 -963.72 245.219 -957.66 242.172 -947.55 
	Z 
	"/>
</g>
<g fill="#7f7f7f" fill-rule="nonzero" stroke-width="0" stroke-linejoin="miter" stroke-linecap="butt" stroke-miterlimit="4" >
	<path d="
	M 1566.78 -918.25 
	L 1528.39 -1054.67 
	L 1515.75 -1026.38 
	L 1515.75 -918.25 
	L 1479.38 -918.25 
	L 1479.38 -1206.25 
	L 1515.75 -1206.25 
	L 1515.75 -1114.29 
	L 1559.71 -1206.25 
	L 1602.13 -1206.25 
	L 1554.66 -1107.22 
	L 1606.18 -918.25 
	Z 
	"/>
</g>
<g fill="#7f7f7f" fill-rule="nonzero" stroke-width="0" stroke-linejoin="miter" stroke-linecap="butt" stroke-miterlimit="4" >
	<path d="
	M 1329.55 -918.25 
	L 1329.55 -1206.25 
	L 1365.72 -1206.25 
	L 1365.72 -951.6 
	L 1439.06 -951.6 
	L 1439.06 -918.25 
	Z 
	"/>
</g>
<g fill="#7f7f7f" fill-rule="nonzero" stroke-width="0" stroke-linejoin="miter" stroke-linecap="butt" stroke-miterlimit="4" >
	<path d="
	M 528.605 -1172.9 
	C 495.258 -1172.9 499.801 -1082.96 499.801 -1062.75 
	C 499.801 -1043.55 495.258 -950.59 528.605 -950.59 
	C 560.941 -950.59 556.402 -1043.55 556.402 -1062.75 
	C 556.402 -1086 555.891 -1172.9 528.605 -1172.9 
	Z 
	M 528.605 -913.2 
	C 456.855 -913.2 462.41 -1015.26 462.41 -1062.75 
	C 462.41 -1112.27 457.867 -1210.29 528.605 -1210.29 
	C 599.344 -1210.29 594.801 -1111.26 594.801 -1062.75 
	C 594.801 -1015.26 599.344 -913.2 528.605 -913.2 
	Z 
	"/>
</g>
<g fill="#7f7f7f" fill-rule="nonzero" stroke-width="0" stroke-linejoin="miter" stroke-linecap="butt" stroke-miterlimit="4" >
	<path d="
	M 355.074 -1168.86 
	L 337.371 -1168.86 
	L 337.371 -1090.04 
	L 361.145 -1090.04 
	C 381.375 -1090.04 387.441 -1099.13 387.441 -1126.42 
	C 387.441 -1158.75 380.363 -1168.86 355.074 -1168.86 
	Z 
	M 394.523 -1061.74 
	L 423.855 -918.25 
	L 386.434 -918.25 
	L 354.063 -1052.65 
	L 337.371 -1052.65 
	L 337.371 -918.25 
	L 300.957 -918.25 
	L 300.957 -1206.25 
	L 357.098 -1206.25 
	C 401.605 -1206.25 424.867 -1178.96 424.867 -1125.41 
	C 424.867 -1093.07 415.766 -1074.88 394.523 -1061.74 
	Z 
	"/>
</g>
<g fill="#7f7f7f" fill-rule="nonzero" stroke-width="0" stroke-linejoin="miter" stroke-linecap="butt" stroke-miterlimit="4" >
	<path d="
	M 742.051 -1042.54 
	C 750.363 -1024.7 756.215 -1000.1 756.215 -979.89 
	C 756.215 -959.68 747.109 -938.46 732.949 -926.33 
	C 723.848 -918.25 710.945 -913.2 695.773 -913.2 
	C 655.316 -913.2 634.324 -939.47 632.301 -990 
	L 669.727 -990 
	C 669.727 -978.88 670.734 -974.84 672.762 -968.77 
	C 675.793 -957.66 684.648 -950.59 695.773 -950.59 
	C 709.934 -950.59 718.789 -961.7 718.789 -979.89 
	C 718.789 -1005.15 709.934 -1026.38 687.684 -1052.65 
	C 674.531 -1067.81 665.68 -1078.92 662.645 -1082.96 
	C 646.461 -1102.16 639.383 -1122.38 639.383 -1142.59 
	C 639.383 -1182 663.406 -1210.29 697.797 -1210.29 
	C 733.199 -1210.29 752.168 -1188.06 756.215 -1142.59 
	L 718.789 -1142.59 
	C 717.777 -1164.82 711.957 -1173.91 698.809 -1173.91 
	C 684.648 -1173.91 676.805 -1161.79 676.805 -1142.59 
	C 676.805 -1129.45 681.613 -1119.34 696.785 -1103.18 
	C 728.141 -1067.81 733.465 -1060.98 742.051 -1042.54 
	Z 
	"/>
</g>
<g fill="#7f7f7f" fill-rule="nonzero" stroke-width="0" stroke-linejoin="miter" stroke-linecap="butt" stroke-miterlimit="4" >
	<path d="
	M 894.766 -1042.54 
	C 903.078 -1024.7 908.926 -1000.1 908.926 -979.89 
	C 908.926 -959.68 899.82 -938.46 885.66 -926.33 
	C 876.559 -918.25 863.656 -913.2 848.484 -913.2 
	C 808.027 -913.2 787.035 -939.47 785.012 -990 
	L 822.438 -990 
	C 822.438 -978.88 823.449 -974.84 825.473 -968.77 
	C 828.508 -957.66 837.359 -950.59 848.484 -950.59 
	C 862.645 -950.59 871.5 -961.7 871.5 -979.89 
	C 871.5 -1005.15 862.645 -1026.38 840.395 -1052.65 
	C 827.242 -1067.81 818.391 -1078.92 815.355 -1082.96 
	C 799.176 -1102.16 792.094 -1122.38 792.094 -1142.59 
	C 792.094 -1182 816.117 -1210.29 850.508 -1210.29 
	C 885.91 -1210.29 904.879 -1188.06 908.926 -1142.59 
	L 871.5 -1142.59 
	C 870.488 -1164.82 864.672 -1173.91 851.52 -1173.91 
	C 837.359 -1173.91 829.52 -1161.79 829.52 -1142.59 
	C 829.52 -1129.45 834.324 -1119.34 849.496 -1103.18 
	C 880.855 -1067.81 886.176 -1060.98 894.766 -1042.54 
	Z 
	"/>
</g>
<g fill="#7f7f7f" fill-rule="nonzero" stroke-width="0" stroke-linejoin="miter" stroke-linecap="butt" stroke-miterlimit="4" >
	<path d="
	M 1082.58 -918.25 
	L 1051.08 -918.25 
	L 1023.65 -1079.93 
	L 997.234 -918.25 
	L 965.742 -918.25 
	L 931.965 -1206.25 
	L 969.555 -1206.25 
	L 985.047 -1072.86 
	L 1008.41 -1206.25 
	L 1039.91 -1206.25 
	L 1063.28 -1072.86 
	L 1078.77 -1206.25 
	L 1116.36 -1206.25 
	Z 
	"/>
</g>
<g fill="#7f7f7f" fill-rule="nonzero" stroke-width="0" stroke-linejoin="miter" stroke-linecap="butt" stroke-miterlimit="4" >
	<path d="
	M 613.516 116.75 
	L 503.359 -78.281 
	L 503.359 116.75 
	L 457.883 116.75 
	L 457.883 -171.25 
	L 503.359 -171.25 
	L 608.461 12.672 
	L 608.461 -171.25 
	L 653.938 -171.25 
	L 653.938 116.75 
	Z 
	"/>
</g>
<g fill="#7f7f7f" fill-rule="nonzero" stroke-width="0" stroke-linejoin="miter" stroke-linecap="butt" stroke-miterlimit="4" >
	<path d="
	M 331.719 -107.23 
	C 322.602 -122.391 311.461 -128.449 294.238 -129.461 
	C 271.949 -130.469 257.77 -119.359 247.641 -94.09 
	C 240.551 -76.91 236.496 -50.641 236.496 -26.391 
	C 236.496 3.92999 242.574 35.25 253.719 53.441 
	C 262.836 68.602 274.988 75.68 293.227 75.68 
	C 314.496 75.68 327.664 64.559 337.797 39.301 
	C 343.875 24.141 348.938 -4.15997 348.938 -26.391 
	C 348.938 -58.719 342.859 -88.031 331.719 -107.23 
	Z 
	M 363.121 89.82 
	C 346.91 112.059 323.613 122.16 293.227 122.16 
	C 252.703 122.16 227.379 105.988 210.156 70.621 
	C 198.004 46.371 189.898 7.96899 189.898 -26.391 
	C 189.898 -73.879 202.055 -116.32 221.305 -143.609 
	C 238.523 -165.84 261.82 -175.941 295.25 -175.941 
	C 331.719 -175.941 357.043 -159.781 375.277 -124.41 
	C 387.434 -99.148 394.523 -62.77 394.523 -26.391 
	C 394.523 19.09 383.383 64.559 363.121 89.82 
	Z 
	"/>
</g>
<g fill="#7f7f7f" fill-rule="nonzero" stroke-width="0" stroke-linejoin="miter" stroke-linecap="butt" stroke-miterlimit="4" >
	<path d="
	M 996.262 -120.719 
	C 989.188 -124.762 985.145 -125.77 969.984 -125.77 
	L 915.41 -125.77 
	L 915.41 -55.039 
	L 969.984 -55.039 
	C 984.137 -55.039 989.188 -56.051 996.262 -60.09 
	C 1007.38 -66.148 1014.45 -78.281 1014.45 -90.398 
	C 1014.45 -102.531 1007.38 -114.66 996.262 -120.719 
	Z 
	M 1016.47 116.75 
	L 969.984 -8.55103 
	L 915.41 -8.55103 
	L 915.41 116.75 
	L 869.938 116.75 
	L 869.938 -171.25 
	L 964.934 -171.25 
	C 987.168 -171.25 1002.32 -169.23 1016.47 -162.148 
	C 1041.74 -150.02 1059.93 -119.711 1059.93 -90.398 
	C 1059.93 -60.09 1041.74 -29.77 1015.46 -17.648 
	L 1065.99 116.75 
	Z 
	"/>
</g>
<g fill="#7f7f7f" fill-rule="nonzero" stroke-width="0" stroke-linejoin="miter" stroke-linecap="butt" stroke-miterlimit="4" >
	<path d="
	M 1468.87 -113.648 
	C 1461.79 -120.719 1451.69 -125.77 1439.56 -125.77 
	L 1388.02 -125.77 
	L 1388.02 70.27 
	L 1433.5 70.27 
	C 1448.66 70.27 1457.75 67.238 1465.84 59.16 
	C 1483.02 41.98 1492.11 10.648 1492.11 -27.75 
	C 1492.11 -66.148 1483.02 -98.488 1468.87 -113.648 
	Z 
	M 1488.07 100.59 
	C 1476.95 110.691 1461.79 115.75 1446.64 116.75 
	C 1443.61 116.75 1437.54 116.75 1430.47 116.75 
	L 1342.54 116.75 
	L 1342.54 -171.25 
	L 1435.52 -171.25 
	C 1464.83 -171.25 1475.94 -168.219 1491.1 -156.09 
	C 1521.42 -129.82 1538.6 -84.34 1538.6 -27.75 
	C 1538.6 29.852 1520.41 75.32 1488.07 100.59 
	Z 
	"/>
</g>
<g fill="#7f7f7f" fill-rule="nonzero" stroke-width="0" stroke-linejoin="miter" stroke-linecap="butt" stroke-miterlimit="4" >
	<path d="
	M 1114.95 116.75 
	L 1114.95 -171.25 
	L 1284.5 -171.25 
	L 1284.5 -125.77 
	L 1160.37 -125.77 
	L 1160.37 -55.039 
	L 1244.13 -55.039 
	L 1244.13 -8.55103 
	L 1160.37 -8.55103 
	L 1160.37 70.27 
	L 1293.58 70.27 
	L 1293.58 116.75 
	Z 
	"/>
</g>
<g fill="#7f7f7f" fill-rule="nonzero" stroke-width="0" stroke-linejoin="miter" stroke-linecap="butt" stroke-miterlimit="4" >
	<path d="
	M 1022.58 -577.67 
	C 1011.18 -596.62 997.254 -604.2 975.73 -605.46 
	C 947.867 -606.72 930.145 -592.82 917.48 -561.25 
	C 908.617 -539.77 903.555 -506.93 903.555 -476.62 
	C 903.555 -438.72 911.148 -399.56 925.074 -376.82 
	C 936.477 -357.88 951.668 -349.04 974.461 -349.04 
	C 1001.05 -349.04 1017.51 -362.93 1030.18 -394.51 
	C 1037.78 -413.46 1044.11 -448.82 1044.11 -476.62 
	C 1044.11 -517.04 1036.51 -553.67 1022.58 -577.67 
	Z 
	M 1061.83 -331.35 
	C 1041.57 -303.56 1012.45 -290.93 974.461 -290.93 
	C 923.813 -290.93 892.152 -311.14 870.629 -355.35 
	C 855.438 -385.67 845.305 -433.67 845.305 -476.62 
	C 845.305 -535.98 860.5 -589.04 884.559 -623.14 
	C 906.086 -650.93 935.211 -663.56 976.992 -663.56 
	C 1022.58 -663.56 1054.23 -643.35 1077.03 -599.14 
	C 1092.22 -567.56 1101.09 -522.09 1101.09 -476.62 
	C 1101.09 -419.77 1087.16 -362.93 1061.83 -331.35 
	Z 
	"/>
</g>
<g fill="#7f7f7f" fill-rule="nonzero" stroke-width="0" stroke-linejoin="miter" stroke-linecap="butt" stroke-miterlimit="4" >
	<path d="
	M 1385.37 -594.09 
	C 1375.26 -599.14 1368.95 -600.41 1351.26 -600.41 
	L 1276.73 -600.41 
	L 1276.73 -511.98 
	L 1351.26 -511.98 
	C 1368.95 -511.98 1375.26 -513.25 1385.37 -518.3 
	C 1398 -524.62 1406.84 -541.04 1406.84 -556.2 
	C 1406.84 -571.36 1398 -586.51 1385.37 -594.09 
	Z 
	M 1409.37 -466.51 
	C 1392.95 -458.93 1371.47 -453.88 1343.68 -453.88 
	L 1276.73 -453.88 
	L 1276.73 -297.25 
	L 1219.88 -297.25 
	L 1219.88 -657.25 
	L 1343.68 -657.25 
	C 1372.74 -657.25 1391.68 -654.72 1409.37 -645.88 
	C 1440.95 -630.72 1464.95 -592.82 1464.95 -556.2 
	C 1464.95 -518.3 1440.95 -480.4 1409.37 -466.51 
	Z 
	"/>
</g>
<g fill="#7f7f7f" fill-rule="nonzero" stroke-width="0" stroke-linejoin="miter" stroke-linecap="butt" stroke-miterlimit="4" >
	<path d="
	M 691.367 -606.72 
	L 691.367 -297.25 
	L 634.281 -297.25 
	L 634.281 -606.72 
	L 551.813 -606.72 
	L 551.813 -657.25 
	L 775.105 -657.25 
	L 775.105 -606.72 
	Z 
	"/>
</g>
<g fill="#7f7f7f" fill-rule="nonzero" stroke-width="0" stroke-linejoin="miter" stroke-linecap="butt" stroke-miterlimit="4" >
	<path d="
	M 473.246 -318.72 
	C 453.035 -301.04 425.242 -290.93 394.926 -290.93 
	C 333.027 -290.93 287.551 -327.56 263.547 -381.88 
	L 317.867 -402.09 
	C 333.027 -367.98 360.816 -349.04 394.926 -349.04 
	C 427.77 -349.04 450.508 -371.77 450.508 -402.09 
	C 450.508 -450.09 394.926 -457.67 348.184 -476.61 
	C 326.711 -485.46 278.707 -506.93 278.707 -566.3 
	C 278.707 -637.04 326.711 -663.56 391.137 -663.56 
	C 441.664 -663.56 475.773 -634.51 493.457 -590.3 
	L 442.93 -575.14 
	C 442.93 -575.14 430.297 -605.46 389.871 -606.72 
	C 363.344 -607.98 331.762 -597.88 334.289 -565.04 
	C 339.344 -498.09 508.617 -542.3 508.617 -400.82 
	C 508.617 -367.98 495.984 -338.93 473.246 -318.72 
	Z 
	"/>
</g>
</g >
</g>
</svg>
