<?xml version="1.0" encoding="UTF-8" standalone="no"?>
<!-- Created with Inkscape (http://www.inkscape.org/) -->

<svg
   version="1.1"
   id="svg1"
   width="5760.6665"
   height="2304.6667"
   viewBox="0 0 5760.6665 2304.6667"
   sodipodi:docname="tmp5zpt9drb.pdf"
   xmlns:inkscape="http://www.inkscape.org/namespaces/inkscape"
   xmlns:sodipodi="http://sodipodi.sourceforge.net/DTD/sodipodi-0.dtd"
   xmlns="http://www.w3.org/2000/svg"
   xmlns:svg="http://www.w3.org/2000/svg">
  <defs
     id="defs1" />
  <sodipodi:namedview
     id="namedview1"
     pagecolor="#ffffff"
     bordercolor="#000000"
     borderopacity="0.25"
     inkscape:showpageshadow="2"
     inkscape:pageopacity="0.0"
     inkscape:pagecheckerboard="0"
     inkscape:deskcolor="#d1d1d1">
    <inkscape:page
       x="0"
       y="0"
       inkscape:label="1"
       id="page1"
       width="5760.6665"
       height="2304.6667"
       margin="0"
       bleed="0" />
  </sodipodi:namedview>
  <g
     id="g1"
     inkscape:groupmode="layer"
     inkscape:label="1">
    <g
       id="group-R5">
      <path
         id="path2"
         d="m 43202.5,1352.5 c 0,-745.602 -604.4,-1350 -1350,-1350 H 1352.5 C 606.914,2.5 2.5,606.898 2.5,1352.5 v 14580 c 0,745.6 604.414,1350 1350,1350 h 40500 c 745.6,0 1350,-604.4 1350,-1350 v -14580"
         style="fill:#ffffff;fill-opacity:1;fill-rule:nonzero;stroke:none"
         transform="matrix(0.13333333,0,0,-0.13333333,0,2304.6667)" />
      <path
         id="path3"
         d="m 43202.5,1352.5 c 0,-745.602 -604.4,-1350 -1350,-1350 H 1352.5 C 606.914,2.5 2.5,606.898 2.5,1352.5 v 14580 c 0,745.6 604.414,1350 1350,1350 h 40500 c 745.6,0 1350,-604.4 1350,-1350 z"
         style="fill:none;stroke:#231f20;stroke-width:5;stroke-linecap:butt;stroke-linejoin:miter;stroke-miterlimit:4;stroke-dasharray:none;stroke-opacity:1"
         transform="matrix(0.13333333,0,0,-0.13333333,0,2304.6667)" />
      <path
         id="path4"
         d="m 1352.5,362.5 c -545.891,0 -990,444.102 -990,990 v 14580 c 0,545.9 444.109,990 990,990 h 40500 c 545.9,0 990,-444.1 990,-990 v -14580 c 0,-545.898 -444.1,-990 -990,-990 h -40500"
         style="fill:#231f20;fill-opacity:1;fill-rule:nonzero;stroke:none"
         transform="matrix(0.13333333,0,0,-0.13333333,0,2304.6667)" />
      <path
         id="path5"
         d="m 42302.5,11162.5 v 4770 c 0,248.1 -201.9,450 -450,450 h -40500 c -248.13,0 -450,-201.9 -450,-450 v -4770 h 41400"
         style="fill:#ffffff;fill-opacity:1;fill-rule:nonzero;stroke:none"
         transform="matrix(0.13333333,0,0,-0.13333333,0,2304.6667)" />
      <path
         id="path6"
         d="m 902.5,10622.5 v -9270 c 0,-248.1 201.87,-450 450,-450 h 40500 c 248.1,0 450,201.9 450,450 v 9270 H 902.5"
         style="fill:#ffffff;fill-opacity:1;fill-rule:nonzero;stroke:none"
         transform="matrix(0.13333333,0,0,-0.13333333,0,2304.6667)" />
      <path
         id="path7"
         d="m 6550.63,12332.5 v 1667.4 l -668.29,-1667.4 -668.27,1667.4 v -1667.4 h -455.64 v 2880 h 455.64 l 668.27,-1616.9 668.29,1616.9 h 455.63 v -2880 h -455.63"
         style="fill:#231f20;fill-opacity:1;fill-rule:nonzero;stroke:none"
         transform="matrix(0.13333333,0,0,-0.13333333,0,2304.6667)" />
      <path
         id="path8"
         d="m 2482.49,12332.5 v 2880 h 1695.49 v -454.7 H 2936.63 v -707.4 h 837.68 v -464.9 h -837.68 v -788.2 h 1332.19 v -464.8 H 2482.49"
         style="fill:#231f20;fill-opacity:1;fill-rule:nonzero;stroke:none"
         transform="matrix(0.13333333,0,0,-0.13333333,0,2304.6667)" />
      <path
         id="path9"
         d="m 18792.4,12332.5 -1101.6,1950.3 v -1950.3 h -454.7 v 2880 h 454.7 l 1051,-1839.2 v 1839.2 h 454.8 v -2880 h -404.2"
         style="fill:#231f20;fill-opacity:1;fill-rule:nonzero;stroke:none"
         transform="matrix(0.13333333,0,0,-0.13333333,0,2304.6667)" />
      <path
         id="path10"
         d="m 11236.6,14707.2 c -70.7,40.5 -111.1,50.6 -262.7,50.6 h -545.7 v -707.4 h 545.7 c 141.5,0 192,10.1 262.7,50.5 111.2,60.7 182,181.9 182,303.2 0,121.2 -70.8,242.5 -182,303.1 z m 202.2,-2374.7 -464.9,1253.1 h -545.7 v -1253.1 h -454.78 v 2880 h 949.98 c 222.3,0 373.9,-20.2 515.4,-90.9 252.6,-121.3 434.5,-424.5 434.5,-717.5 0,-303.2 -181.9,-606.3 -444.6,-727.6 l 505.3,-1344 h -495.2"
         style="fill:#231f20;fill-opacity:1;fill-rule:nonzero;stroke:none"
         transform="matrix(0.13333333,0,0,-0.13333333,0,2304.6667)" />
      <path
         id="path11"
         d="m 23637.9,13585.6 v -1253.1 h -457 v 1253.1 l -1015.7,1626.9 h 548.5 l 690.6,-1111.6 700.8,1111.6 h 538.3 l -1005.5,-1626.9"
         style="fill:#231f20;fill-opacity:1;fill-rule:nonzero;stroke:none"
         transform="matrix(0.13333333,0,0,-0.13333333,0,2304.6667)" />
      <path
         id="path12"
         d="m 7697.49,12332.5 v 2880 h 1695.49 v -454.7 H 8151.63 v -707.4 h 837.68 v -464.9 h -837.68 v -788.2 h 1332.19 v -464.8 H 7697.49"
         style="fill:#231f20;fill-opacity:1;fill-rule:nonzero;stroke:none"
         transform="matrix(0.13333333,0,0,-0.13333333,0,2304.6667)" />
      <path
         id="path13"
         d="m 14960.1,12332.5 v 2880 h 1695.5 v -454.7 h -1241.3 v -707.4 h 837.6 v -464.9 h -837.6 v -788.2 h 1332.2 v -464.8 h -1786.4"
         style="fill:#231f20;fill-opacity:1;fill-rule:nonzero;stroke:none"
         transform="matrix(0.13333333,0,0,-0.13333333,0,2304.6667)" />
      <path
         id="path14"
         d="m 20921.7,12282 c -424.5,0 -697.3,161.7 -879.2,515.3 -131.4,252.7 -212.3,616.5 -212.3,980.3 0,454.7 121.3,909.4 323.4,1162.1 171.8,212.2 414.4,323.3 737.8,323.3 434.5,0 707.4,-181.9 899.4,-586.1 l -424.5,-181.9 c -161.7,242.6 -252.6,303.2 -474.9,303.2 -232.5,0 -384.1,-101.1 -485.1,-353.7 -70.8,-171.8 -111.2,-424.4 -111.2,-666.9 0,-313.3 70.7,-626.6 181.9,-808.5 101.1,-151.6 232.4,-222.3 434.6,-222.3 192,0 333.5,101.1 444.6,333.5 l 434.6,-161.7 C 21619,12494.2 21336,12282 20921.7,12282"
         style="fill:#231f20;fill-opacity:1;fill-rule:nonzero;stroke:none"
         transform="matrix(0.13333333,0,0,-0.13333333,0,2304.6667)" />
      <path
         id="path15"
         d="m 13417,12282 c -434.5,0 -687.2,161.7 -859,525.4 -121.3,252.7 -192,606.4 -192,960 0,464.9 131.4,919.6 323.4,1172.3 171.8,212.2 414.3,323.3 737.7,323.3 444.7,0 707.4,-181.9 899.4,-636.6 l -434.5,-171.8 c -121.3,252.6 -242.6,343.6 -464.9,343.6 -232.4,0 -384,-101.1 -485.1,-353.7 -70.7,-171.8 -111.2,-434.5 -111.2,-677.1 0,-303.1 50.6,-606.3 141.5,-788.2 91,-161.7 222.4,-232.4 394.2,-232.4 293,0 505.3,181.9 505.3,444.6 v 121.3 h -525.5 v 454.7 h 980.2 v -576 c 0,-525.4 -384,-909.4 -909.5,-909.4"
         style="fill:#231f20;fill-opacity:1;fill-rule:nonzero;stroke:none"
         transform="matrix(0.13333333,0,0,-0.13333333,0,2304.6667)" />
      <path
         id="path16"
         d="m 35218.5,12332.5 -1101.6,1950.3 v -1950.3 h -454.7 v 2880 h 454.7 L 35168,13373.3 v 1839.2 h 454.7 v -2880 h -404.2"
         style="fill:#231f20;fill-opacity:1;fill-rule:nonzero;stroke:none"
         transform="matrix(0.13333333,0,0,-0.13333333,0,2304.6667)" />
      <path
         id="path17"
         d="m 29973.6,12332.5 v 2880 h 460.8 v -2880 h -460.8"
         style="fill:#231f20;fill-opacity:1;fill-rule:nonzero;stroke:none"
         transform="matrix(0.13333333,0,0,-0.13333333,0,2304.6667)" />
      <path
         id="path18"
         d="m 38936.2,12332.5 v 2880 h 454.1 v -2455.6 h 1332.2 v -424.4 h -1786.3"
         style="fill:#231f20;fill-opacity:1;fill-rule:nonzero;stroke:none"
         transform="matrix(0.13333333,0,0,-0.13333333,0,2304.6667)" />
      <path
         id="path19"
         d="m 29201,12507.8 c -161.7,-141.5 -384,-222.3 -626.5,-222.3 -495.2,0 -859,293 -1051.1,727.6 l 434.6,161.7 c 121.3,-272.9 343.6,-424.5 616.5,-424.5 262.7,0 444.6,181.9 444.6,424.5 0,384 -444.6,444.6 -818.6,596.2 -171.7,70.7 -555.8,242.5 -555.8,717.4 0,565.9 384.1,778.2 899.5,778.2 404.2,0 677.1,-232.5 818.5,-586.2 l -404.2,-121.2 c 0,0 -101.1,242.5 -424.5,252.6 -212.2,10.1 -464.8,-70.7 -444.6,-333.5 40.4,-535.5 1394.6,-181.9 1394.6,-1313.6 0,-262.8 -101.1,-495.2 -283,-656.9"
         style="fill:#231f20;fill-opacity:1;fill-rule:nonzero;stroke:none"
         transform="matrix(0.13333333,0,0,-0.13333333,0,2304.6667)" />
      <path
         id="path20"
         d="m 37284.5,14414.2 -294.7,-808.5 h 579.3 z m 731.8,-2081.7 -284.6,808.4 h -904.5 l -284.6,-808.4 h -487.9 l 996.1,2880 h 457.3 l 996.1,-2880 h -487.9"
         style="fill:#231f20;fill-opacity:1;fill-rule:nonzero;stroke:none"
         transform="matrix(0.13333333,0,0,-0.13333333,0,2304.6667)" />
      <path
         id="path21"
         d="m 32119,12281.9 c -434.5,0 -687.2,161.8 -859,525.5 -121.3,252.7 -192,606.4 -192,960 0,464.9 131.4,919.6 323.4,1172.3 171.8,212.2 414.3,323.3 737.7,323.3 444.7,0 707.5,-181.9 899.4,-636.6 l -434.5,-171.8 c -121.3,252.6 -242.5,343.6 -464.9,343.6 -232.4,0 -384,-101.1 -485.1,-353.7 -70.7,-171.8 -111.1,-434.5 -111.1,-677.1 0,-303.1 50.5,-606.3 141.4,-788.2 91,-161.7 222.4,-232.4 394.2,-232.4 293.1,0 505.3,181.9 505.3,444.6 v 121.3 h -525.5 v 454.7 h 980.2 v -576 c 0,-525.4 -384,-909.5 -909.5,-909.5"
         style="fill:#231f20;fill-opacity:1;fill-rule:nonzero;stroke:none"
         transform="matrix(0.13333333,0,0,-0.13333333,0,2304.6667)" />
      <path
         id="path22"
         d="M 29454.5,6482.5 28352.9,8432.82 V 6482.5 h -454.7 v 2880.01 h 454.7 l 1051,-1839.17 v 1839.17 h 454.8 V 6482.5 h -404.2"
         style="fill:#231f20;fill-opacity:1;fill-rule:nonzero;stroke:none"
         transform="matrix(0.13333333,0,0,-0.13333333,0,2304.6667)" />
      <path
         id="path23"
         d="m 26636.5,8722.33 c -91.1,151.59 -202.6,212.2 -374.8,222.32 -222.9,10.11 -364.7,-101.05 -466,-353.68 -70.9,-171.8 -111.4,-434.53 -111.4,-677.04 0,-303.17 60.8,-616.43 172.2,-798.33 91.2,-151.6 212.7,-222.3 395.1,-222.3 212.7,0 344.4,111.2 445.7,363.8 60.8,151.55 111.4,434.5 111.4,656.83 0,323.35 -60.8,616.39 -172.2,808.4 z m 314,-1970.53 c -162,-222.3 -395,-323.4 -698.9,-323.4 -405.2,0 -658.5,161.7 -830.7,515.4 -121.5,242.5 -202.6,626.53 -202.6,970.13 0,474.93 121.6,899.34 314.1,1172.19 172.2,222.33 405.2,323.37 739.4,323.37 364.7,0 618,-161.69 800.3,-515.37 121.6,-252.63 192.5,-616.42 192.5,-980.19 0,-454.75 -111.5,-909.43 -314.1,-1162.13"
         style="fill:#231f20;fill-opacity:1;fill-rule:nonzero;stroke:none"
         transform="matrix(0.13333333,0,0,-0.13333333,0,2304.6667)" />
      <path
         id="path24"
         d="m 19116.1,8722.33 c -91.1,151.59 -202.6,212.2 -374.8,222.32 -222.8,10.11 -364.6,-101.05 -465.9,-353.68 -71,-171.8 -111.5,-434.53 -111.5,-677.04 0,-303.17 60.8,-616.43 172.2,-798.33 91.2,-151.6 212.8,-222.3 395.1,-222.3 212.7,0 344.4,111.2 445.7,363.8 60.8,151.55 111.4,434.5 111.4,656.83 0,323.35 -60.7,616.39 -172.2,808.4 z m 314.1,-1970.53 c -162.1,-222.3 -395.1,-323.4 -699,-323.4 -405.2,0 -658.5,161.7 -830.7,515.4 -121.5,242.5 -202.5,626.53 -202.5,970.13 0,474.93 121.5,899.34 314,1172.19 172.2,222.33 405.2,323.37 739.5,323.37 364.6,0 617.9,-161.69 800.2,-515.37 121.6,-252.63 192.5,-616.42 192.5,-980.19 0,-454.75 -111.4,-909.43 -314,-1162.13"
         style="fill:#231f20;fill-opacity:1;fill-rule:nonzero;stroke:none"
         transform="matrix(0.13333333,0,0,-0.13333333,0,2304.6667)" />
      <path
         id="path25"
         d="m 21701.7,8857.26 c -80.9,40.41 -131.4,50.52 -272.9,50.52 h -596.3 V 8200.4 h 596.3 c 141.5,0 192,10.12 272.9,50.53 101,50.53 171.8,181.89 171.8,303.16 0,121.27 -70.8,242.52 -171.8,303.17 z m 192,-1020.64 c -131.4,-60.62 -303.2,-101.05 -525.5,-101.05 h -535.7 V 6482.5 h -454.7 v 2880.01 h 990.4 c 232.4,0 384,-20.22 525.5,-90.94 252.6,-121.27 444.6,-424.43 444.6,-717.48 0,-303.16 -192,-606.33 -444.6,-717.47"
         style="fill:#231f20;fill-opacity:1;fill-rule:nonzero;stroke:none"
         transform="matrix(0.13333333,0,0,-0.13333333,0,2304.6667)" />
      <path
         id="path26"
         d="M 16653.7,8958.3 V 6482.5 H 16197 v 2475.8 h -659.8 v 404.22 h 1786.3 V 8958.3 h -669.8"
         style="fill:#231f20;fill-opacity:1;fill-rule:nonzero;stroke:none"
         transform="matrix(0.13333333,0,0,-0.13333333,0,2304.6667)" />
      <path
         id="path27"
         d="m 15023.9,6657.8 c -161.7,-141.5 -384,-222.3 -626.6,-222.3 -495.2,0 -859,293.1 -1051,727.6 l 434.5,161.67 c 121.3,-272.87 343.6,-424.37 616.5,-424.37 262.8,0 444.7,181.8 444.7,424.37 0,384 -444.7,444.62 -818.6,596.21 -171.8,70.74 -555.8,242.52 -555.8,717.48 0,565.9 384,778.1 899.4,778.1 404.2,0 677.1,-232.42 818.6,-586.11 l -404.3,-121.25 c 0,0 -101,242.52 -424.4,252.62 -212.2,10.11 -464.9,-70.73 -444.7,-333.48 40.5,-535.57 1394.6,-181.89 1394.6,-1313.67 0,-262.77 -101,-495.17 -282.9,-656.87"
         style="fill:#231f20;fill-opacity:1;fill-rule:nonzero;stroke:none"
         transform="matrix(0.13333333,0,0,-0.13333333,0,2304.6667)" />
      <path
         id="path28"
         d="M 22653.7,2162.5 21552.2,4112.8 V 2162.5 h -454.8 v 2880 h 454.8 l 1051,-1839.2 v 1839.2 h 454.8 v -2880 h -404.3"
         style="fill:#231f20;fill-opacity:1;fill-rule:nonzero;stroke:none"
         transform="matrix(0.13333333,0,0,-0.13333333,0,2304.6667)" />
      <path
         id="path29"
         d="m 19945.4,2162.5 v 2880 h 460.8 v -2880 h -460.8"
         style="fill:#231f20;fill-opacity:1;fill-rule:nonzero;stroke:none"
         transform="matrix(0.13333333,0,0,-0.13333333,0,2304.6667)" />
      <path
         id="path30"
         d="m 10204.6,2162.5 v 2880 h 454.1 V 2586.9 h 1332.2 v -424.4 h -1786.3"
         style="fill:#231f20;fill-opacity:1;fill-rule:nonzero;stroke:none"
         transform="matrix(0.13333333,0,0,-0.13333333,0,2304.6667)" />
      <path
         id="path31"
         d="m 16521.1,2337.8 c -161.7,-141.5 -384,-222.3 -626.6,-222.3 -495.2,0 -859,293.1 -1051,727.6 l 434.6,161.7 c 121.2,-272.9 343.6,-424.4 616.4,-424.4 262.8,0 444.7,181.8 444.7,424.4 0,384 -444.7,444.6 -818.6,596.2 -171.8,70.7 -555.8,242.5 -555.8,717.5 0,565.9 384,778.1 899.4,778.1 404.2,0 677.1,-232.5 818.6,-586.2 l -404.2,-121.2 c 0,0 -101.1,242.5 -424.5,252.6 -212.2,10.1 -464.9,-70.7 -444.7,-333.5 40.5,-535.5 1394.7,-181.9 1394.7,-1313.6 0,-262.8 -101.1,-495.2 -283,-656.9"
         style="fill:#231f20;fill-opacity:1;fill-rule:nonzero;stroke:none"
         transform="matrix(0.13333333,0,0,-0.13333333,0,2304.6667)" />
      <path
         id="path32"
         d="M 18799.5,2162.5 V 3415.6 H 17748.4 V 2162.5 h -454.7 v 2880 h 454.7 V 3880.4 h 1051.1 v 1162.1 h 454.7 v -2880 h -454.7"
         style="fill:#231f20;fill-opacity:1;fill-rule:nonzero;stroke:none"
         transform="matrix(0.13333333,0,0,-0.13333333,0,2304.6667)" />
      <path
         id="path33"
         d="m 13393.5,4244.2 -294.8,-808.4 h 579.4 z m 731.8,-2081.7 -284.6,808.4 h -904.6 l -284.6,-808.4 h -487.8 l 996,2880 h 457.4 l 996,-2880 h -487.8"
         style="fill:#231f20;fill-opacity:1;fill-rule:nonzero;stroke:none"
         transform="matrix(0.13333333,0,0,-0.13333333,0,2304.6667)" />
      <path
         id="path34"
         d="m 8440.38,4587.8 v -707.4 h 837.64 V 3415.6 H 8440.38 V 2162.5 h -454.16 v 2880 H 9772.55 V 4587.8 H 8440.38"
         style="fill:#231f20;fill-opacity:1;fill-rule:nonzero;stroke:none"
         transform="matrix(0.13333333,0,0,-0.13333333,0,2304.6667)" />
      <path
         id="path35"
         d="m 24742.6,2112 c -434.5,0 -687.2,161.7 -859,525.5 -121.3,252.6 -192,606.3 -192,960 0,464.8 131.4,919.5 323.4,1172.2 171.8,212.2 414.3,323.3 737.7,323.3 444.7,0 707.4,-181.9 899.4,-636.6 l -434.5,-171.8 c -121.3,252.6 -242.6,343.6 -464.9,343.6 -232.4,0 -384,-101.1 -485.1,-353.7 -70.7,-171.8 -111.1,-434.5 -111.1,-677 0,-303.2 50.5,-606.4 141.4,-788.3 91,-161.6 222.4,-232.4 394.2,-232.4 293,0 505.3,181.9 505.3,444.6 v 121.3 h -525.5 v 454.8 h 980.2 v -576.1 c 0,-525.4 -384,-909.4 -909.5,-909.4"
         style="fill:#231f20;fill-opacity:1;fill-rule:nonzero;stroke:none"
         transform="matrix(0.13333333,0,0,-0.13333333,0,2304.6667)" />
      <path
         id="path36"
         d="m 29795.4,4537.2 c -70.8,40.5 -111.2,50.6 -262.8,50.6 h -545.7 v -707.4 h 545.7 c 141.5,0 192,10.1 262.8,50.5 111.2,60.6 181.9,181.9 181.9,303.2 0,121.2 -70.7,242.5 -181.9,303.1 z m 202.1,-2374.7 -464.9,1253.1 h -545.7 V 2162.5 h -454.8 v 2880 h 950 c 222.3,0 373.9,-20.2 515.4,-91 252.6,-121.2 434.6,-424.4 434.6,-717.4 0,-303.2 -182,-606.3 -444.7,-727.6 l 505.3,-1344 h -495.2"
         style="fill:#231f20;fill-opacity:1;fill-rule:nonzero;stroke:none"
         transform="matrix(0.13333333,0,0,-0.13333333,0,2304.6667)" />
      <path
         id="path37"
         d="m 34521.5,4466.5 c -70.8,70.7 -171.8,121.3 -293.1,121.3 H 33713 V 2627.3 h 454.8 c 151.6,0 242.5,30.3 323.3,111.2 171.9,171.8 262.8,485.1 262.8,869.1 0,384 -90.9,707.3 -232.4,858.9 z m 192,-2142.3 c -111.2,-101.1 -262.8,-151.6 -414.4,-161.7 -30.3,0 -90.9,0 -161.6,0 h -879.3 v 2880 h 929.8 c 293,0 404.2,-30.3 555.8,-151.6 303.2,-262.7 475,-717.5 475,-1283.3 0,-576 -181.9,-1030.8 -505.3,-1283.4"
         style="fill:#231f20;fill-opacity:1;fill-rule:nonzero;stroke:none"
         transform="matrix(0.13333333,0,0,-0.13333333,0,2304.6667)" />
      <path
         id="path38"
         d="m 30982.3,2162.5 v 2880 h 1695.5 v -454.7 h -1241.4 v -707.4 h 837.7 v -464.9 h -837.7 v -788.2 h 1332.2 v -464.8 h -1786.3"
         style="fill:#231f20;fill-opacity:1;fill-rule:nonzero;stroke:none"
         transform="matrix(0.13333333,0,0,-0.13333333,0,2304.6667)" />
    </g>
  </g>
</svg>
