<?xml version="1.0" encoding="UTF-8" standalone="no"?>
<!-- Created with Inkscape (http://www.inkscape.org/) -->

<svg
   version="1.1"
   id="svg1"
   width="3456.6667"
   height="2304.6667"
   viewBox="0 0 3456.6667 2304.6667"
   sodipodi:docname="tmpnwn010gt.pdf"
   xmlns:inkscape="http://www.inkscape.org/namespaces/inkscape"
   xmlns:sodipodi="http://sodipodi.sourceforge.net/DTD/sodipodi-0.dtd"
   xmlns="http://www.w3.org/2000/svg"
   xmlns:svg="http://www.w3.org/2000/svg">
  <defs
     id="defs1" />
  <sodipodi:namedview
     id="namedview1"
     pagecolor="#ffffff"
     bordercolor="#000000"
     borderopacity="0.25"
     inkscape:showpageshadow="2"
     inkscape:pageopacity="0.0"
     inkscape:pagecheckerboard="0"
     inkscape:deskcolor="#d1d1d1">
    <inkscape:page
       x="0"
       y="0"
       inkscape:label="1"
       id="page1"
       width="3456.6667"
       height="2304.6667"
       margin="0"
       bleed="0" />
  </sodipodi:namedview>
  <g
     id="g1"
     inkscape:groupmode="layer"
     inkscape:label="1">
    <g
       id="group-R5">
      <path
         id="path2"
         d="M 25922.5,1082.5 C 25922.5,486 25439,2.5 24842.5,2.5 H 1082.5 C 486.031,2.5 2.5,486 2.5,1082.5 v 15120 c 0,596.5 483.531,1080 1080,1080 h 23760 c 596.5,0 1080,-483.5 1080,-1080 v -15120"
         style="fill:#ffffff;fill-opacity:1;fill-rule:nonzero;stroke:none"
         transform="matrix(0.13333333,0,0,-0.13333333,0,2304.6667)" />
      <path
         id="path3"
         d="M 25922.5,1082.5 C 25922.5,486 25439,2.5 24842.5,2.5 H 1082.5 C 486.031,2.5 2.5,486 2.5,1082.5 v 15120 c 0,596.5 483.531,1080 1080,1080 h 23760 c 596.5,0 1080,-483.5 1080,-1080 z"
         style="fill:none;stroke:#231f20;stroke-width:5;stroke-linecap:butt;stroke-linejoin:miter;stroke-miterlimit:4;stroke-dasharray:none;stroke-opacity:1"
         transform="matrix(0.13333333,0,0,-0.13333333,0,2304.6667)" />
      <path
         id="path4"
         d="m 1082.5,272.5 c -446.637,0 -810,363.402 -810,810 v 15120 c 0,446.6 363.363,810 810,810 h 23760 c 446.6,0 810,-363.4 810,-810 v -15120 c 0,-446.598 -363.4,-810 -810,-810 h -23760"
         style="fill:#231f20;fill-opacity:1;fill-rule:nonzero;stroke:none"
         transform="matrix(0.13333333,0,0,-0.13333333,0,2304.6667)" />
      <path
         id="path5"
         d="m 1082.5,722.5 c -198.508,0 -360,161.5 -360,360 v 15120 c 0,198.5 161.492,360 360,360 h 23760 c 198.5,0 360,-161.5 360,-360 v -15120 c 0,-198.5 -161.5,-360 -360,-360 h -23760"
         style="fill:#ffffff;fill-opacity:1;fill-rule:nonzero;stroke:none"
         transform="matrix(0.13333333,0,0,-0.13333333,0,2304.6667)" />
      <path
         id="path6"
         d="M 20497.7,2342.5 19396.2,4292.8 V 2342.5 h -454.8 v 2880 h 454.8 l 1051,-1839.2 v 1839.2 h 454.7 v -2880 h -404.2"
         style="fill:#231f20;fill-opacity:1;fill-rule:nonzero;stroke:none"
         transform="matrix(0.13333333,0,0,-0.13333333,0,2304.6667)" />
      <path
         id="path7"
         d="m 14100.8,2342.5 v 2880 H 14555 V 2766.9 h 1332.1 v -424.4 h -1786.3"
         style="fill:#231f20;fill-opacity:1;fill-rule:nonzero;stroke:none"
         transform="matrix(0.13333333,0,0,-0.13333333,0,2304.6667)" />
      <path
         id="path8"
         d="m 11486.1,2342.5 v 1253 H 10435 v -1253 h -454.74 v 2880 H 10435 V 4060.4 h 1051.1 v 1162.1 h 454.7 v -2880 h -454.7"
         style="fill:#231f20;fill-opacity:1;fill-rule:nonzero;stroke:none"
         transform="matrix(0.13333333,0,0,-0.13333333,0,2304.6667)" />
      <path
         id="path9"
         d="m 2545.52,2342.5 v 2880 H 4241.01 V 4767.7 H 2999.66 v -707.3 h 837.67 V 3595.5 H 2999.66 V 2807.3 H 4331.85 V 2342.5 H 2545.52"
         style="fill:#231f20;fill-opacity:1;fill-rule:nonzero;stroke:none"
         transform="matrix(0.13333333,0,0,-0.13333333,0,2304.6667)" />
      <path
         id="path10"
         d="m 21593.1,2342.5 v 2880 h 1695.5 v -454.8 h -1241.3 v -707.3 h 837.7 v -464.9 h -837.7 v -788.2 h 1332.2 v -464.8 h -1786.4"
         style="fill:#231f20;fill-opacity:1;fill-rule:nonzero;stroke:none"
         transform="matrix(0.13333333,0,0,-0.13333333,0,2304.6667)" />
      <path
         id="path11"
         d="m 5792.05,4424.2 -294.74,-808.5 h 579.33 z m 731.79,-2081.7 -284.58,808.4 h -904.57 l -284.58,-808.4 h -487.85 l 996.03,2880 h 457.36 l 996.04,-2880 h -487.85"
         style="fill:#231f20;fill-opacity:1;fill-rule:nonzero;stroke:none"
         transform="matrix(0.13333333,0,0,-0.13333333,0,2304.6667)" />
      <path
         id="path12"
         d="M 17289.7,4424.2 16995,3615.7 h 579.3 z m 731.8,-2081.7 -284.6,808.4 h -904.5 l -284.6,-808.4 h -487.9 l 996.1,2880 h 457.3 l 996.1,-2880 h -487.9"
         style="fill:#231f20;fill-opacity:1;fill-rule:nonzero;stroke:none"
         transform="matrix(0.13333333,0,0,-0.13333333,0,2304.6667)" />
      <path
         id="path13"
         d="m 8477.53,2291.9 c -424.44,0 -697.31,161.7 -879.21,515.4 -131.38,252.6 -212.23,616.4 -212.23,980.2 0,454.8 121.27,909.5 323.39,1162.1 171.8,212.2 414.35,323.4 737.74,323.4 434.56,0 707.42,-181.9 899.43,-586.1 L 8922.2,4505 c -161.7,242.5 -252.65,303.2 -474.98,303.2 -232.43,0 -384.03,-101.1 -485.08,-353.7 -70.74,-171.8 -111.17,-424.5 -111.17,-667 0,-313.2 70.74,-626.5 181.91,-808.4 101.06,-151.6 232.43,-222.3 434.55,-222.3 192.01,0 333.5,101 444.67,333.5 l 434.55,-161.7 c -171.8,-424.4 -454.77,-636.7 -869.12,-636.7"
         style="fill:#231f20;fill-opacity:1;fill-rule:nonzero;stroke:none"
         transform="matrix(0.13333333,0,0,-0.13333333,0,2304.6667)" />
      <path
         id="path14"
         d="M 22731.1,7202.5 21629.6,9152.8 V 7202.5 h -454.8 v 2880 h 454.8 l 1051,-1839.18 v 1839.18 h 454.8 v -2880 h -404.3"
         style="fill:#231f20;fill-opacity:1;fill-rule:nonzero;stroke:none"
         transform="matrix(0.13333333,0,0,-0.13333333,0,2304.6667)" />
      <path
         id="path15"
         d="m 4113.52,9577.24 c -80.84,40.41 -131.37,50.52 -272.86,50.52 h -596.25 v -707.38 h 596.25 c 141.49,0 192.02,10.12 272.86,50.53 101.05,50.53 171.81,181.89 171.81,303.16 0,121.27 -70.76,242.52 -171.81,303.17 z m 192.03,-1020.65 c -131.39,-60.62 -303.19,-101.05 -525.53,-101.05 H 3244.41 V 7202.5 h -454.76 v 2880 h 990.37 c 232.44,0 384.02,-20.2 525.53,-90.95 252.63,-121.27 444.65,-424.43 444.65,-717.48 0,-303.16 -192.02,-606.33 -444.65,-717.48"
         style="fill:#231f20;fill-opacity:1;fill-rule:nonzero;stroke:none"
         transform="matrix(0.13333333,0,0,-0.13333333,0,2304.6667)" />
      <path
         id="path16"
         d="m 8721.32,9577.22 c -70.72,40.43 -111.15,50.53 -262.75,50.53 h -545.72 v -707.36 h 545.72 c 141.5,0 192.03,10.09 262.75,50.5 111.19,60.65 181.93,181.92 181.93,303.17 0,121.27 -70.74,242.54 -181.93,303.16 z M 8923.45,7202.5 8458.57,8455.56 H 7912.85 V 7202.5 H 7458.1 v 2880 h 949.94 c 222.34,0 373.93,-20.2 515.41,-90.96 252.65,-121.27 434.56,-424.42 434.56,-717.48 0,-303.17 -181.91,-606.32 -444.66,-727.59 L 9418.66,7202.5 h -495.21"
         style="fill:#231f20;fill-opacity:1;fill-rule:nonzero;stroke:none"
         transform="matrix(0.13333333,0,0,-0.13333333,0,2304.6667)" />
      <path
         id="path17"
         d="m 15436,9577.22 c -70.7,40.43 -111.1,50.53 -262.7,50.53 h -545.7 v -707.36 h 545.7 c 141.5,0 192,10.09 262.7,50.5 111.2,60.65 182,181.92 182,303.17 0,121.27 -70.8,242.54 -182,303.16 z m 202.2,-2374.72 -464.9,1253.06 h -545.7 V 7202.5 h -454.8 v 2880 h 950 c 222.3,0 373.9,-20.2 515.4,-90.96 252.6,-121.27 434.5,-424.42 434.5,-717.48 0,-303.17 -181.9,-606.32 -444.6,-727.59 l 505.3,-1343.97 h -495.2"
         style="fill:#231f20;fill-opacity:1;fill-rule:nonzero;stroke:none"
         transform="matrix(0.13333333,0,0,-0.13333333,0,2304.6667)" />
      <path
         id="path18"
         d="m 5182.17,7202.5 v 2880 H 6877.66 V 9627.75 H 5636.31 v -707.37 h 837.67 V 8455.54 H 5636.31 V 7667.32 H 6968.5 V 7202.5 H 5182.17"
         style="fill:#231f20;fill-opacity:1;fill-rule:nonzero;stroke:none"
         transform="matrix(0.13333333,0,0,-0.13333333,0,2304.6667)" />
      <path
         id="path19"
         d="m 16622.9,7202.5 v 2880 h 1695.5 v -454.75 h -1241.3 v -707.37 h 837.7 v -464.84 h -837.7 v -788.23 h 1332.2 V 7202.5 h -1786.4"
         style="fill:#231f20;fill-opacity:1;fill-rule:nonzero;stroke:none"
         transform="matrix(0.13333333,0,0,-0.13333333,0,2304.6667)" />
      <path
         id="path20"
         d="m 18898.9,7202.5 v 2880 h 1695.5 V 9627.75 H 19353 v -707.37 h 837.7 V 8455.54 H 19353 v -788.23 h 1332.2 V 7202.5 h -1786.3"
         style="fill:#231f20;fill-opacity:1;fill-rule:nonzero;stroke:none"
         transform="matrix(0.13333333,0,0,-0.13333333,0,2304.6667)" />
      <path
         id="path21"
         d="m 12629.7,7151.9 c -434.6,0 -687.2,161.74 -859,525.53 -121.3,252.63 -192,606.32 -192,960 0,464.85 131.3,919.59 323.3,1172.22 171.9,212.25 414.4,323.35 737.8,323.35 444.7,0 707.4,-181.89 899.4,-636.63 l -434.6,-171.78 c -121.2,252.64 -242.5,343.58 -464.8,343.58 -232.4,0 -384,-101.05 -485.1,-353.69 -70.7,-171.78 -111.2,-434.52 -111.2,-677.05 0,-303.16 50.6,-606.33 141.5,-788.21 91,-161.68 222.4,-232.43 394.2,-232.43 293,0 505.3,181.9 505.3,444.64 v 121.27 h -525.6 v 454.73 h 980.3 v -576 c 0,-525.48 -384,-909.53 -909.5,-909.53"
         style="fill:#231f20;fill-opacity:1;fill-rule:nonzero;stroke:none"
         transform="matrix(0.13333333,0,0,-0.13333333,0,2304.6667)" />
      <path
         id="path22"
         d="m 14780.9,12062.5 v 2880 h 460.8 v -2880 h -460.8"
         style="fill:#231f20;fill-opacity:1;fill-rule:nonzero;stroke:none"
         transform="matrix(0.13333333,0,0,-0.13333333,0,2304.6667)" />
      <path
         id="path23"
         d="m 18469.4,12062.5 v 2880 h 454.2 v -2455.6 h 1332.1 v -424.4 h -1786.3"
         style="fill:#231f20;fill-opacity:1;fill-rule:nonzero;stroke:none"
         transform="matrix(0.13333333,0,0,-0.13333333,0,2304.6667)" />
      <path
         id="path24"
         d="m 8498.45,12062.5 h -354.91 l -912.59,2880 h 476.58 l 618.53,-1920 608.4,1920 h 486.72 l -922.73,-2880"
         style="fill:#231f20;fill-opacity:1;fill-rule:nonzero;stroke:none"
         transform="matrix(0.13333333,0,0,-0.13333333,0,2304.6667)" />
      <path
         id="path25"
         d="m 13634.9,12062.5 v 1253.1 h -1051 v -1253.1 h -454.8 v 2880 h 454.8 v -1162.1 h 1051 v 1162.1 h 454.8 v -2880 h -454.8"
         style="fill:#231f20;fill-opacity:1;fill-rule:nonzero;stroke:none"
         transform="matrix(0.13333333,0,0,-0.13333333,0,2304.6667)" />
      <path
         id="path26"
         d="m 9853.17,12062.5 v 2880 h 1695.53 v -454.7 h -1241.4 v -707.4 h 837.7 v -464.9 h -837.7 v -788.2 h 1332.2 v -464.8 H 9853.17"
         style="fill:#231f20;fill-opacity:1;fill-rule:nonzero;stroke:none"
         transform="matrix(0.13333333,0,0,-0.13333333,0,2304.6667)" />
      <path
         id="path27"
         d="m 20687.7,12062.5 v 2880 h 1695.5 v -454.7 h -1241.3 v -707.4 h 837.6 v -464.8 h -837.6 v -788.3 h 1332.2 v -464.8 h -1786.4"
         style="fill:#231f20;fill-opacity:1;fill-rule:nonzero;stroke:none"
         transform="matrix(0.13333333,0,0,-0.13333333,0,2304.6667)" />
      <path
         id="path28"
         d="m 16966.7,12012 c -424.5,0 -697.3,161.7 -879.2,515.3 -131.4,252.7 -212.2,616.5 -212.2,980.3 0,454.7 121.2,909.4 323.3,1162.1 171.8,212.2 414.4,323.3 737.8,323.3 434.5,0 707.4,-181.9 899.4,-586.1 l -424.4,-181.9 c -161.7,242.6 -252.7,303.2 -475,303.2 -232.5,0 -384,-101.1 -485.1,-353.7 -70.7,-171.8 -111.2,-424.4 -111.2,-666.9 0,-313.3 70.8,-626.6 181.9,-808.5 101.1,-151.5 232.5,-222.3 434.6,-222.3 192,0 333.5,101.1 444.7,333.5 l 434.5,-161.7 C 17664,12224.2 17381,12012 16966.7,12012"
         style="fill:#231f20;fill-opacity:1;fill-rule:nonzero;stroke:none"
         transform="matrix(0.13333333,0,0,-0.13333333,0,2304.6667)" />
      <path
         id="path29"
         d="m 3775.95,11702.5 v 2917.9 h -325 v 454.7 h 37.5 c 150,0 312.5,88.5 412.5,227.4 h 450 v -3600 h -575"
         style="fill:#231f20;fill-opacity:1;fill-rule:nonzero;stroke:none"
         transform="matrix(0.13333333,0,0,-0.13333333,0,2304.6667)" />
    </g>
  </g>
</svg>
