<?xml version="1.0" standalone="no"?>
<svg width="2160px" height="3024px" viewBox="0 -2232 2160 3024 " xmlns="http://www.w3.org/2000/svg" xmlns:xlink="http://www.w3.org/1999/xlink">
<title>generated by pstoedit</title>
<!-- generated by pstoedit version:4.02 -->
<g xml:space='preserve'>
<clipPath id="clippath1"> 	<path d="
	M 0 -2232.5 
	L 0 792 
	L 2160.5 792 
	L 2160.5 -2232.5 
	Z 
	" style="clip-rule:nonzero"/>
</clipPath>
<g style="clip-path:url(#clippath1)"> 
<g fill="#ffffff" fill-rule="nonzero" stroke-width="0" stroke-linejoin="miter" stroke-linecap="butt" stroke-miterlimit="10" >
	<path d="
	M 2160.25 656.75 
	C 2160.25 731.309 2099.81 791.75 2025.25 791.75 
	L 135.25 791.75 
	C 60.6914 791.75 0.25 731.309 0.25 656.75 
	L 0.25 -2097.25 
	C 0.25 -2171.81 60.6914 -2232.25 135.25 -2232.25 
	L 2025.25 -2232.25 
	C 2099.81 -2232.25 2160.25 -2171.81 2160.25 -2097.25 
	Z 
	"/>
</g>
<g stroke="#7f7f7f" fill="none" stroke-width="0.5" stroke-linejoin="miter" stroke-linecap="butt" stroke-miterlimit="4" >
	<path d="
	M 2160.25 656.75 
	C 2160.25 731.309 2099.81 791.75 2025.25 791.75 
	L 135.25 791.75 
	C 60.6914 791.75 0.25 731.309 0.25 656.75 
	L 0.25 -2097.25 
	C 0.25 -2171.81 60.6914 -2232.25 135.25 -2232.25 
	L 2025.25 -2232.25 
	C 2099.81 -2232.25 2160.25 -2171.81 2160.25 -2097.25 
	Z 
	"/>
</g>
<g fill="#7f7f7f" fill-rule="nonzero" stroke-width="0" stroke-linejoin="miter" stroke-linecap="butt" stroke-miterlimit="4" >
	<path d="
	M 135.25 755.75 
	C 80.6602 755.75 36.25 711.34 36.25 656.75 
	L 36.25 -2097.25 
	C 36.25 -2151.84 80.6602 -2196.25 135.25 -2196.25 
	L 2025.25 -2196.25 
	C 2079.84 -2196.25 2124.25 -2151.84 2124.25 -2097.25 
	L 2124.25 656.75 
	C 2124.25 711.34 2079.84 755.75 2025.25 755.75 
	Z 
	"/>
</g>
<g fill="#ffffff" fill-rule="nonzero" stroke-width="0" stroke-linejoin="miter" stroke-linecap="butt" stroke-miterlimit="4" >
	<path d="
	M 135.25 701.75 
	C 110.438 701.75 90.25 681.559 90.25 656.75 
	L 90.25 -2097.25 
	C 90.25 -2122.06 110.438 -2142.25 135.25 -2142.25 
	L 2025.25 -2142.25 
	C 2050.06 -2142.25 2070.25 -2122.06 2070.25 -2097.25 
	L 2070.25 656.75 
	C 2070.25 681.559 2050.06 701.75 2025.25 701.75 
	Z 
	"/>
</g>
<g fill="#7f7f7f" fill-rule="nonzero" stroke-width="0" stroke-linejoin="miter" stroke-linecap="butt" stroke-miterlimit="4" >
	<path d="
	M 1471.46 265.648 
	L 1451.19 348.512 
	L 1492.73 348.512 
	Z 
	M 1523.13 467.75 
	L 1502.86 388.93 
	L 1441.06 388.93 
	L 1421.81 467.75 
	L 1380.27 467.75 
	L 1452.21 179.75 
	L 1492.73 179.75 
	L 1564.67 467.75 
	Z 
	"/>
</g>
<g fill="#7f7f7f" fill-rule="nonzero" stroke-width="0" stroke-linejoin="miter" stroke-linecap="butt" stroke-miterlimit="4" >
	<path d="
	M 1808.96 467.75 
	L 1808.96 179.75 
	L 1944.77 179.75 
	L 1944.77 220.172 
	L 1850.51 220.172 
	L 1850.51 292.93 
	L 1910.31 292.93 
	L 1910.31 332.34 
	L 1850.51 332.34 
	L 1850.51 427.332 
	L 1955.91 427.332 
	L 1955.91 467.75 
	Z 
	"/>
</g>
<g fill="#7f7f7f" fill-rule="nonzero" stroke-width="0" stroke-linejoin="miter" stroke-linecap="butt" stroke-miterlimit="4" >
	<path d="
	M 644.738 432.379 
	C 633.578 457.641 610.234 472.801 580.809 472.801 
	C 546.305 472.801 520.938 455.621 506.73 423.289 
	C 497.594 402.07 491.508 361.641 491.508 324.25 
	C 491.508 283.832 494.551 254.531 504.699 227.25 
	C 514.848 196.93 544.273 174.699 577.766 174.699 
	C 619.367 174.699 650.828 205.012 652.855 247.449 
	L 611.25 247.449 
	C 610.234 228.25 597.047 215.121 576.746 215.121 
	C 562.543 215.121 551.379 222.191 544.273 236.34 
	C 536.156 250.488 531.082 282.82 531.082 317.18 
	C 531.082 341.43 533.113 366.699 537.172 388.93 
	C 543.262 417.219 557.469 432.379 579.793 432.379 
	C 601.105 432.379 611.25 418.23 611.25 387.922 
	L 611.25 368.719 
	L 578.777 368.719 
	L 578.777 328.301 
	L 652.855 328.301 
	L 652.855 387.922 
	C 652.855 408.129 650.828 420.25 644.738 432.379 
	Z 
	"/>
</g>
<g fill="#7f7f7f" fill-rule="nonzero" stroke-width="0" stroke-linejoin="miter" stroke-linecap="butt" stroke-miterlimit="4" >
	<path d="
	M 818.941 467.75 
	L 818.941 337.391 
	L 740.285 337.391 
	L 740.285 467.75 
	L 698.938 467.75 
	L 698.938 179.75 
	L 740.285 179.75 
	L 740.285 296.969 
	L 818.941 296.969 
	L 818.941 179.75 
	L 860.289 179.75 
	L 860.289 467.75 
	Z 
	"/>
</g>
<g fill="#7f7f7f" fill-rule="nonzero" stroke-width="0" stroke-linejoin="miter" stroke-linecap="butt" stroke-miterlimit="4" >
	<path d="
	M 405.105 467.75 
	L 405.105 179.75 
	L 445.426 179.75 
	L 445.426 467.75 
	Z 
	"/>
</g>
<g fill="#7f7f7f" fill-rule="nonzero" stroke-width="0" stroke-linejoin="miter" stroke-linecap="butt" stroke-miterlimit="4" >
	<path d="
	M 1219.5 467.75 
	L 1219.5 179.75 
	L 1261.05 179.75 
	L 1261.05 429.352 
	L 1366.45 429.352 
	L 1366.45 467.75 
	Z 
	"/>
</g>
<g fill="#7f7f7f" fill-rule="nonzero" stroke-width="0" stroke-linejoin="miter" stroke-linecap="butt" stroke-miterlimit="4" >
	<path d="
	M 1727.01 467.75 
	L 1638.27 274.738 
	L 1638.27 467.75 
	L 1596.92 467.75 
	L 1596.92 179.75 
	L 1638.27 179.75 
	L 1716.93 352.551 
	L 1716.93 179.75 
	L 1758.27 179.75 
	L 1758.27 467.75 
	Z 
	"/>
</g>
<g fill="#7f7f7f" fill-rule="nonzero" stroke-width="0" stroke-linejoin="miter" stroke-linecap="butt" stroke-miterlimit="4" >
	<path d="
	M 288.289 220.172 
	L 245.934 220.172 
	L 245.934 292.93 
	L 288.289 292.93 
	C 312.492 292.93 325.602 279.789 325.602 256.551 
	C 325.602 234.32 310.473 220.172 288.289 220.172 
	Z 
	M 323.582 467.75 
	L 285.262 332.34 
	L 245.934 332.34 
	L 245.934 467.75 
	L 204.586 467.75 
	L 204.586 179.75 
	L 290.305 179.75 
	C 335.688 179.75 365.938 210.07 365.938 256.551 
	C 365.938 290.91 351.82 316.172 324.594 326.281 
	L 365.938 467.75 
	Z 
	"/>
</g>
<g fill="#7f7f7f" fill-rule="nonzero" stroke-width="0" stroke-linejoin="miter" stroke-linecap="butt" stroke-miterlimit="4" >
	<path d="
	M 986.797 218.148 
	L 986.797 467.75 
	L 945.246 467.75 
	L 945.246 218.148 
	L 892.547 218.148 
	L 892.547 179.75 
	L 1039.5 179.75 
	L 1039.5 218.148 
	Z 
	"/>
</g>
<g fill="#7f7f7f" fill-rule="nonzero" stroke-width="0" stroke-linejoin="miter" stroke-linecap="butt" stroke-miterlimit="4" >
	<path d="
	M 1009.91 -787.45 
	C 1005.85 -815.74 994.688 -828.88 975.406 -828.88 
	C 941.918 -828.88 929.742 -802.61 929.742 -727.83 
	C 929.742 -644.96 943.949 -611.62 979.469 -611.62 
	C 1003.82 -611.62 1009.91 -631.83 1009.91 -653.05 
	L 1051.52 -653.05 
	C 1050.5 -605.55 1020.06 -571.2 979.469 -571.2 
	C 917.563 -571.2 890.164 -620.71 890.164 -726.82 
	C 890.164 -819.79 919.594 -869.3 976.422 -869.3 
	C 999.762 -869.3 1020.06 -859.2 1033.25 -840 
	C 1044.41 -825.85 1048.47 -813.72 1051.52 -787.45 
	Z 
	"/>
</g>
<g fill="#7f7f7f" fill-rule="nonzero" stroke-width="0" stroke-linejoin="miter" stroke-linecap="butt" stroke-miterlimit="4" >
	<path d="
	M 512.605 -576.25 
	L 512.605 -864.25 
	L 648.41 -864.25 
	L 648.41 -823.83 
	L 554.156 -823.83 
	L 554.156 -751.07 
	L 613.953 -751.07 
	L 613.953 -711.66 
	L 554.156 -711.66 
	L 554.156 -616.67 
	L 659.559 -616.67 
	L 659.559 -576.25 
	Z 
	"/>
</g>
<g fill="#7f7f7f" fill-rule="nonzero" stroke-width="0" stroke-linejoin="miter" stroke-linecap="butt" stroke-miterlimit="4" >
	<path d="
	M 1109.12 -576.25 
	L 1109.12 -864.25 
	L 1244.92 -864.25 
	L 1244.92 -823.83 
	L 1150.67 -823.83 
	L 1150.67 -751.07 
	L 1210.46 -751.07 
	L 1210.46 -711.66 
	L 1150.67 -711.66 
	L 1150.67 -616.67 
	L 1256.07 -616.67 
	L 1256.07 -576.25 
	Z 
	"/>
</g>
<g fill="#7f7f7f" fill-rule="nonzero" stroke-width="0" stroke-linejoin="miter" stroke-linecap="butt" stroke-miterlimit="4" >
	<path d="
	M 1388.73 -823.83 
	L 1346.37 -823.83 
	L 1346.37 -741.98 
	L 1388.73 -741.98 
	C 1412.93 -741.98 1426.04 -757.13 1426.04 -783.41 
	C 1426.04 -807.66 1410.92 -823.83 1388.73 -823.83 
	Z 
	M 1390.75 -702.56 
	L 1346.37 -702.56 
	L 1346.37 -576.25 
	L 1305.03 -576.25 
	L 1305.03 -864.25 
	L 1390.75 -864.25 
	C 1436.13 -864.25 1466.38 -831.91 1466.38 -783.41 
	C 1466.38 -730.86 1439.15 -702.56 1390.75 -702.56 
	Z 
	"/>
</g>
<g fill="#7f7f7f" fill-rule="nonzero" stroke-width="0" stroke-linejoin="miter" stroke-linecap="butt" stroke-miterlimit="4" >
	<path d="
	M 1595.19 -825.85 
	L 1595.19 -576.25 
	L 1553.64 -576.25 
	L 1553.64 -825.85 
	L 1500.94 -825.85 
	L 1500.94 -864.25 
	L 1647.89 -864.25 
	L 1647.89 -825.85 
	Z 
	"/>
</g>
<g fill="#7f7f7f" fill-rule="nonzero" stroke-width="0" stroke-linejoin="miter" stroke-linecap="butt" stroke-miterlimit="4" >
	<path d="
	M 810.816 -576.25 
	L 770.102 -674.27 
	L 729.387 -576.25 
	L 685.613 -576.25 
	L 748.723 -725.81 
	L 689.684 -864.25 
	L 733.457 -864.25 
	L 770.102 -777.34 
	L 806.746 -864.25 
	L 850.516 -864.25 
	L 792.496 -725.81 
	L 855.605 -576.25 
	Z 
	"/>
</g>
<g fill="#7f7f7f" fill-rule="nonzero" stroke-width="0" stroke-linejoin="miter" stroke-linecap="butt" stroke-miterlimit="4" >
	<path d="
	M 516.043 -1620.25 
	L 427.301 -1813.26 
	L 427.301 -1620.25 
	L 385.953 -1620.25 
	L 385.953 -1908.25 
	L 427.301 -1908.25 
	L 505.957 -1735.45 
	L 505.957 -1908.25 
	L 547.305 -1908.25 
	L 547.305 -1620.25 
	Z 
	"/>
</g>
<g fill="#7f7f7f" fill-rule="nonzero" stroke-width="0" stroke-linejoin="miter" stroke-linecap="butt" stroke-miterlimit="4" >
	<path d="
	M 1743.29 -1620.25 
	L 1654.54 -1813.26 
	L 1654.54 -1620.25 
	L 1613.2 -1620.25 
	L 1613.2 -1908.25 
	L 1654.54 -1908.25 
	L 1733.2 -1735.45 
	L 1733.2 -1908.25 
	L 1774.55 -1908.25 
	L 1774.55 -1620.25 
	Z 
	"/>
</g>
<g fill="#7f7f7f" fill-rule="nonzero" stroke-width="0" stroke-linejoin="miter" stroke-linecap="butt" stroke-miterlimit="4" >
	<path d="
	M 726.035 -1836.5 
	C 718.91 -1861.77 707.715 -1872.88 690.41 -1872.88 
	C 672.086 -1872.88 660.891 -1861.77 653.766 -1837.52 
	C 646.641 -1815.28 644.605 -1796.08 644.605 -1763.75 
	C 644.605 -1732.42 647.656 -1714.23 653.766 -1690.98 
	C 660.891 -1666.73 672.086 -1655.62 690.41 -1655.62 
	C 707.715 -1655.62 718.91 -1666.73 726.035 -1690.98 
	C 733.164 -1714.23 735.199 -1731.41 735.199 -1764.75 
	C 735.199 -1797.09 732.145 -1815.28 726.035 -1836.5 
	Z 
	M 758.609 -1664.71 
	C 744.359 -1630.36 722.984 -1615.2 690.41 -1615.2 
	C 655.801 -1615.2 635.441 -1630.36 621.191 -1664.71 
	C 608.977 -1693.01 604.906 -1720.29 604.906 -1764.75 
	C 604.906 -1808.21 608.977 -1837.52 621.191 -1864.8 
	C 636.461 -1899.16 656.82 -1913.3 690.41 -1913.3 
	C 724 -1913.3 744.359 -1899.16 758.609 -1863.79 
	C 770.824 -1835.49 774.898 -1808.21 774.898 -1764.75 
	C 774.898 -1720.29 770.824 -1692 758.609 -1664.71 
	Z 
	"/>
</g>
<g fill="#7f7f7f" fill-rule="nonzero" stroke-width="0" stroke-linejoin="miter" stroke-linecap="butt" stroke-miterlimit="4" >
	<path d="
	M 1486.58 -1867.83 
	L 1444.23 -1867.83 
	L 1444.23 -1795.07 
	L 1486.58 -1795.07 
	C 1510.79 -1795.07 1523.9 -1808.21 1523.9 -1831.45 
	C 1523.9 -1853.68 1508.77 -1867.83 1486.58 -1867.83 
	Z 
	M 1521.88 -1620.25 
	L 1483.56 -1755.66 
	L 1444.23 -1755.66 
	L 1444.23 -1620.25 
	L 1402.88 -1620.25 
	L 1402.88 -1908.25 
	L 1488.6 -1908.25 
	C 1533.98 -1908.25 1564.23 -1877.93 1564.23 -1831.45 
	C 1564.23 -1797.09 1550.12 -1771.83 1522.89 -1761.72 
	L 1564.23 -1620.25 
	Z 
	"/>
</g>
<g fill="#7f7f7f" fill-rule="nonzero" stroke-width="0" stroke-linejoin="miter" stroke-linecap="butt" stroke-miterlimit="4" >
	<path d="
	M 1085.15 -1869.85 
	L 1085.15 -1620.25 
	L 1043.6 -1620.25 
	L 1043.6 -1869.85 
	L 990.898 -1869.85 
	L 990.898 -1908.25 
	L 1137.85 -1908.25 
	L 1137.85 -1869.85 
	Z 
	"/>
</g>
<g fill="#7f7f7f" fill-rule="nonzero" stroke-width="0" stroke-linejoin="miter" stroke-linecap="butt" stroke-miterlimit="4" >
	<path d="
	M 1328.43 -1655.62 
	C 1314.31 -1632.38 1287.08 -1615.2 1259.85 -1615.2 
	C 1231.62 -1615.2 1203.38 -1631.37 1189.26 -1655.62 
	C 1181.19 -1670.78 1178.17 -1682.9 1178.17 -1706.14 
	L 1178.17 -1908.25 
	L 1219.52 -1908.25 
	L 1219.52 -1701.09 
	C 1219.52 -1673.81 1235.65 -1655.62 1259.85 -1655.62 
	C 1282.04 -1655.62 1298.18 -1673.81 1298.18 -1701.09 
	L 1298.18 -1908.25 
	L 1339.52 -1908.25 
	L 1339.52 -1706.14 
	C 1339.52 -1682.9 1336.5 -1670.78 1328.43 -1655.62 
	Z 
	"/>
</g>
<g fill="#7f7f7f" fill-rule="nonzero" stroke-width="0" stroke-linejoin="miter" stroke-linecap="butt" stroke-miterlimit="4" >
	<path d="
	M 1618.11 -1316.52 
	C 1611.05 -1336.73 1598.95 -1345.83 1580.79 -1345.83 
	L 1546.51 -1345.83 
	L 1546.51 -1138.67 
	L 1580.79 -1138.67 
	C 1605 -1138.67 1618.11 -1157.87 1622.14 -1180.1 
	C 1624.16 -1198.29 1626.17 -1218.5 1626.17 -1240.73 
	C 1626.17 -1273.07 1623.15 -1304.4 1618.11 -1316.52 
	Z 
	M 1625.16 -1111.39 
	C 1615.08 -1102.29 1600.96 -1098.25 1584.83 -1098.25 
	L 1505.16 -1098.25 
	L 1505.16 -1386.25 
	L 1578.78 -1386.25 
	C 1602.98 -1386.25 1615.08 -1383.22 1625.16 -1375.13 
	C 1642.31 -1363.01 1654.41 -1340.78 1659.45 -1311.47 
	C 1663.49 -1290.25 1666.51 -1264.99 1666.51 -1242.75 
	C 1666.51 -1176.06 1653.4 -1133.62 1625.16 -1111.39 
	Z 
	"/>
</g>
<g fill="#7f7f7f" fill-rule="nonzero" stroke-width="0" stroke-linejoin="miter" stroke-linecap="butt" stroke-miterlimit="4" >
	<path d="
	M 1309.25 -1098.25 
	L 1309.25 -1386.25 
	L 1445.05 -1386.25 
	L 1445.05 -1345.83 
	L 1350.8 -1345.83 
	L 1350.8 -1273.07 
	L 1410.59 -1273.07 
	L 1410.59 -1233.66 
	L 1350.8 -1233.66 
	L 1350.8 -1138.67 
	L 1456.2 -1138.67 
	L 1456.2 -1098.25 
	Z 
	"/>
</g>
<g fill="#7f7f7f" fill-rule="nonzero" stroke-width="0" stroke-linejoin="miter" stroke-linecap="butt" stroke-miterlimit="4" >
	<path d="
	M 851.672 -1098.25 
	L 762.93 -1291.26 
	L 762.93 -1098.25 
	L 721.582 -1098.25 
	L 721.582 -1386.25 
	L 762.93 -1386.25 
	L 841.586 -1213.45 
	L 841.586 -1386.25 
	L 882.934 -1386.25 
	L 882.934 -1098.25 
	Z 
	"/>
</g>
<g fill="#7f7f7f" fill-rule="nonzero" stroke-width="0" stroke-linejoin="miter" stroke-linecap="butt" stroke-miterlimit="4" >
	<path d="
	M 615.121 -1314.5 
	C 607.996 -1339.77 596.801 -1350.88 579.496 -1350.88 
	C 561.172 -1350.88 549.977 -1339.77 542.852 -1315.51 
	C 535.727 -1293.28 533.688 -1274.08 533.688 -1241.75 
	C 533.688 -1210.42 536.742 -1192.23 542.852 -1168.99 
	C 549.977 -1144.73 561.172 -1133.62 579.496 -1133.62 
	C 596.801 -1133.62 607.996 -1144.73 615.121 -1168.99 
	C 622.246 -1192.23 624.281 -1209.41 624.281 -1242.75 
	C 624.281 -1275.09 621.23 -1293.28 615.121 -1314.5 
	Z 
	M 647.695 -1142.71 
	C 633.445 -1108.35 612.066 -1093.2 579.496 -1093.2 
	C 544.887 -1093.2 524.527 -1108.35 510.277 -1142.71 
	C 498.063 -1171.01 493.988 -1198.29 493.988 -1242.75 
	C 493.988 -1286.21 498.063 -1315.51 510.277 -1342.8 
	C 525.547 -1377.16 545.902 -1391.3 579.496 -1391.3 
	C 613.086 -1391.3 633.445 -1377.16 647.695 -1341.79 
	C 659.91 -1313.49 663.98 -1286.21 663.98 -1242.75 
	C 663.98 -1198.29 659.91 -1170 647.695 -1142.71 
	Z 
	"/>
</g>
<g fill="#7f7f7f" fill-rule="nonzero" stroke-width="0" stroke-linejoin="miter" stroke-linecap="butt" stroke-miterlimit="4" >
	<path d="
	M 1182.64 -1345.83 
	L 1140.28 -1345.83 
	L 1140.28 -1273.07 
	L 1182.64 -1273.07 
	C 1206.84 -1273.07 1219.95 -1286.21 1219.95 -1309.45 
	C 1219.95 -1331.68 1204.82 -1345.83 1182.64 -1345.83 
	Z 
	M 1217.93 -1098.25 
	L 1179.61 -1233.66 
	L 1140.28 -1233.66 
	L 1140.28 -1098.25 
	L 1098.93 -1098.25 
	L 1098.93 -1386.25 
	L 1184.65 -1386.25 
	C 1230.03 -1386.25 1260.29 -1355.93 1260.29 -1309.45 
	C 1260.29 -1275.09 1246.17 -1249.83 1218.94 -1239.72 
	L 1260.29 -1098.25 
	Z 
	"/>
</g>
<g fill="#7f7f7f" fill-rule="nonzero" stroke-width="0" stroke-linejoin="miter" stroke-linecap="butt" stroke-miterlimit="4" >
	<path d="
	M 716.984 -301.83 
	L 716.984 -229.07 
	L 774.75 -229.07 
	L 774.75 -189.66 
	L 716.984 -189.66 
	L 716.984 -54.25 
	L 675.43 -54.25 
	L 675.43 -342.25 
	L 822.383 -342.25 
	L 822.383 -301.83 
	Z 
	"/>
</g>
<g fill="#7f7f7f" fill-rule="nonzero" stroke-width="0" stroke-linejoin="miter" stroke-linecap="butt" stroke-miterlimit="4" >
	<path d="
	M 1443.58 -54.25 
	L 1443.58 -215.93 
	L 1389.96 -54.25 
	L 1336.33 -215.93 
	L 1336.33 -54.25 
	L 1294.85 -54.25 
	L 1294.85 -342.25 
	L 1336.33 -342.25 
	L 1389.96 -180.559 
	L 1443.58 -342.25 
	L 1485.07 -342.25 
	L 1485.07 -54.25 
	Z 
	"/>
</g>
<g fill="#7f7f7f" fill-rule="nonzero" stroke-width="0" stroke-linejoin="miter" stroke-linecap="butt" stroke-miterlimit="4" >
	<path d="
	M 1188.39 -270.5 
	C 1181.26 -295.77 1170.06 -306.88 1152.76 -306.88 
	C 1134.44 -306.88 1123.24 -295.77 1116.12 -271.51 
	C 1108.99 -249.28 1106.95 -230.08 1106.95 -197.738 
	C 1106.95 -166.418 1110.01 -148.23 1116.12 -124.988 
	C 1123.24 -100.73 1134.44 -89.621 1152.76 -89.621 
	C 1170.06 -89.621 1181.26 -100.73 1188.39 -124.988 
	C 1195.51 -148.23 1197.55 -165.41 1197.55 -198.762 
	C 1197.55 -231.09 1194.49 -249.28 1188.39 -270.5 
	Z 
	M 1220.96 -98.711 
	C 1206.71 -64.352 1185.33 -49.199 1152.76 -49.199 
	C 1118.15 -49.199 1097.79 -64.352 1083.54 -98.711 
	C 1071.33 -127.012 1067.25 -154.289 1067.25 -198.762 
	C 1067.25 -242.21 1071.33 -271.51 1083.54 -298.8 
	C 1098.81 -333.16 1119.17 -347.3 1152.76 -347.3 
	C 1186.35 -347.3 1206.71 -333.16 1220.96 -297.79 
	C 1233.18 -269.49 1237.25 -242.21 1237.25 -198.762 
	C 1237.25 -154.289 1233.18 -126 1220.96 -98.711 
	Z 
	"/>
</g>
<g fill="#7f7f7f" fill-rule="nonzero" stroke-width="0" stroke-linejoin="miter" stroke-linecap="butt" stroke-miterlimit="4" >
	<path d="
	M 946.406 -301.83 
	L 904.051 -301.83 
	L 904.051 -229.07 
	L 946.406 -229.07 
	C 970.609 -229.07 983.719 -242.21 983.719 -265.45 
	C 983.719 -287.68 968.59 -301.83 946.406 -301.83 
	Z 
	M 981.699 -54.25 
	L 943.379 -189.66 
	L 904.051 -189.66 
	L 904.051 -54.25 
	L 862.703 -54.25 
	L 862.703 -342.25 
	L 948.422 -342.25 
	C 993.801 -342.25 1024.06 -311.93 1024.06 -265.45 
	C 1024.06 -231.09 1009.94 -205.828 982.711 -195.719 
	L 1024.06 -54.25 
	Z 
	"/>
</g>
</g >
</g>
</svg>
