<?xml version="1.0" standalone="no"?>
<svg width="1728px" height="864px" viewBox="0 -72 1728 864 " xmlns="http://www.w3.org/2000/svg" xmlns:xlink="http://www.w3.org/1999/xlink">
<title>generated by pstoedit</title>
<!-- generated by pstoedit version:4.02 -->
<g xml:space='preserve'>
<clipPath id="clippath1"> 	<path d="
	M 0 -72.5 
	L 0 792 
	L 1728.5 792 
	L 1728.5 -72.5 
	Z 
	" style="clip-rule:nonzero"/>
</clipPath>
<g style="clip-path:url(#clippath1)"> 
<g fill="#ffffff" fill-rule="nonzero" stroke-width="0" stroke-linejoin="miter" stroke-linecap="butt" stroke-miterlimit="10" >
	<path d="
	M 1728.25 683.75 
	C 1728.25 743.395 1679.9 791.75 1620.25 791.75 
	L 108.25 791.75 
	C 48.6016 791.75 0.25 743.395 0.25 683.75 
	L 0.25 35.75 
	C 0.25 -23.898 48.6016 -72.25 108.25 -72.25 
	L 1620.25 -72.25 
	C 1679.9 -72.25 1728.25 -23.898 1728.25 35.75 
	Z 
	"/>
</g>
<g stroke="#7f7f7f" fill="none" stroke-width="0.5" stroke-linejoin="miter" stroke-linecap="butt" stroke-miterlimit="4" >
	<path d="
	M 1728.25 683.75 
	C 1728.25 743.395 1679.9 791.75 1620.25 791.75 
	L 108.25 791.75 
	C 48.6016 791.75 0.25 743.395 0.25 683.75 
	L 0.25 35.75 
	C 0.25 -23.898 48.6016 -72.25 108.25 -72.25 
	L 1620.25 -72.25 
	C 1679.9 -72.25 1728.25 -23.898 1728.25 35.75 
	Z 
	"/>
</g>
<g fill="#7f7f7f" fill-rule="nonzero" stroke-width="0" stroke-linejoin="miter" stroke-linecap="butt" stroke-miterlimit="4" >
	<path d="
	M 1656.25 683.75 
	C 1656.25 703.602 1640.1 719.75 1620.25 719.75 
	L 108.25 719.75 
	C 88.3984 719.75 72.25 703.602 72.25 683.75 
	L 72.25 35.75 
	C 72.25 15.898 88.3984 -0.25 108.25 -0.25 
	L 1620.25 -0.25 
	C 1640.1 -0.25 1656.25 15.898 1656.25 35.75 
	Z 
	M 1620.25 -45.25 
	L 108.25 -45.25 
	C 63.5859 -45.25 27.25 -8.914 27.25 35.75 
	L 27.25 683.75 
	C 27.25 728.414 63.5859 764.75 108.25 764.75 
	L 1620.25 764.75 
	C 1664.91 764.75 1701.25 728.414 1701.25 683.75 
	L 1701.25 35.75 
	C 1701.25 -8.914 1664.91 -45.25 1620.25 -45.25 
	Z 
	"/>
</g>
<g fill="#7f7f7f" fill-rule="nonzero" stroke-width="0" stroke-linejoin="miter" stroke-linecap="butt" stroke-miterlimit="4" >
	<path d="
	M 864.25 634.25 
	C 802.117 634.25 751.75 583.883 751.75 521.75 
	C 751.75 459.617 802.117 409.25 864.25 409.25 
	C 926.383 409.25 976.75 459.617 976.75 521.75 
	C 976.75 583.883 926.383 634.25 864.25 634.25 
	Z 
	M 1134.25 368.75 
	L 594.25 368.75 
	C 584.309 368.75 576.25 376.809 576.25 386.75 
	L 576.25 656.75 
	C 576.25 666.691 584.309 674.75 594.25 674.75 
	L 1134.25 674.75 
	C 1144.19 674.75 1152.25 666.691 1152.25 656.75 
	L 1152.25 386.75 
	C 1152.25 376.809 1144.19 368.75 1134.25 368.75 
	Z 
	"/>
</g>
<g fill="#7f7f7f" fill-rule="nonzero" stroke-width="0" stroke-linejoin="miter" stroke-linecap="butt" stroke-miterlimit="4" >
	<path d="
	M 949.75 242.75 
	L 778.75 242.75 
	C 768.809 242.75 760.75 250.809 760.75 260.75 
	L 760.75 332.75 
	C 760.75 342.691 768.809 350.75 778.75 350.75 
	L 949.75 350.75 
	C 959.691 350.75 967.75 342.691 967.75 332.75 
	L 967.75 260.75 
	C 967.75 250.809 959.691 242.75 949.75 242.75 
	Z 
	"/>
</g>
<g fill="#7f7f7f" fill-rule="nonzero" stroke-width="0" stroke-linejoin="miter" stroke-linecap="butt" stroke-miterlimit="4" >
	<path d="
	M 740.578 279.672 
	L 584.102 237.738 
	L 577.113 263.82 
	L 733.594 305.75 
	Z 
	"/>
</g>
<g fill="#7f7f7f" fill-rule="nonzero" stroke-width="0" stroke-linejoin="miter" stroke-linecap="butt" stroke-miterlimit="4" >
	<path d="
	M 780.613 205.656 
	L 666.063 91.105 
	L 646.973 110.199 
	L 761.523 224.75 
	Z 
	"/>
</g>
<g fill="#7f7f7f" fill-rule="nonzero" stroke-width="0" stroke-linejoin="miter" stroke-linecap="butt" stroke-miterlimit="4" >
	<path d="
	M 994.906 305.75 
	L 1151.39 263.82 
	L 1144.4 237.738 
	L 987.922 279.672 
	Z 
	"/>
</g>
<g fill="#7f7f7f" fill-rule="nonzero" stroke-width="0" stroke-linejoin="miter" stroke-linecap="butt" stroke-miterlimit="4" >
	<path d="
	M 1081.53 110.199 
	L 1062.44 91.105 
	L 947.887 205.656 
	L 966.977 224.75 
	Z 
	"/>
</g>
<g fill="#7f7f7f" fill-rule="nonzero" stroke-width="0" stroke-linejoin="miter" stroke-linecap="butt" stroke-miterlimit="4" >
	<path d="
	M 877.75 53.75 
	L 850.75 53.75 
	L 850.75 215.75 
	L 877.75 215.75 
	Z 
	"/>
</g>
</g >
</g>
</svg>
