<?xml version="1.0" encoding="UTF-8" standalone="no"?>
<!-- Created with Inkscape (http://www.inkscape.org/) -->

<svg
   version="1.1"
   id="svg1"
   width="4608.6665"
   height="2880.6667"
   viewBox="0 0 4608.6665 2880.6667"
   sodipodi:docname="tmps5ybf_sz.pdf"
   xmlns:inkscape="http://www.inkscape.org/namespaces/inkscape"
   xmlns:sodipodi="http://sodipodi.sourceforge.net/DTD/sodipodi-0.dtd"
   xmlns="http://www.w3.org/2000/svg"
   xmlns:svg="http://www.w3.org/2000/svg">
  <defs
     id="defs1" />
  <sodipodi:namedview
     id="namedview1"
     pagecolor="#ffffff"
     bordercolor="#000000"
     borderopacity="0.25"
     inkscape:showpageshadow="2"
     inkscape:pageopacity="0.0"
     inkscape:pagecheckerboard="0"
     inkscape:deskcolor="#d1d1d1">
    <inkscape:page
       x="0"
       y="0"
       inkscape:label="1"
       id="page1"
       width="4608.6665"
       height="2880.6667"
       margin="0"
       bleed="0" />
  </sodipodi:namedview>
  <g
     id="g1"
     inkscape:groupmode="layer"
     inkscape:label="1">
    <g
       id="group-R5">
      <path
         id="path2"
         d="m 34562.5,1352.5 c 0,-745.602 -604.4,-1350 -1350,-1350 H 1352.5 C 606.914,2.5 2.5,606.898 2.5,1352.5 v 18900 c 0,745.6 604.414,1350 1350,1350 h 31860 c 745.6,0 1350,-604.4 1350,-1350 v -18900"
         style="fill:#ffffff;fill-opacity:1;fill-rule:nonzero;stroke:none"
         transform="matrix(0.13333333,0,0,-0.13333333,0,2880.6667)" />
      <path
         id="path3"
         d="m 34562.5,1352.5 c 0,-745.602 -604.4,-1350 -1350,-1350 H 1352.5 C 606.914,2.5 2.5,606.898 2.5,1352.5 v 18900 c 0,745.6 604.414,1350 1350,1350 h 31860 c 745.6,0 1350,-604.4 1350,-1350 z"
         style="fill:none;stroke:#231f20;stroke-width:5;stroke-linecap:butt;stroke-linejoin:miter;stroke-miterlimit:4;stroke-dasharray:none;stroke-opacity:1"
         transform="matrix(0.13333333,0,0,-0.13333333,0,2880.6667)" />
      <path
         id="path4"
         d="m 33572.5,1352.5 c 0,-198.5 -161.5,-360 -360,-360 h -31860 c -198.51,0 -360,161.5 -360,360 v 18900 c 0,198.5 161.49,360 360,360 h 31860 c 198.5,0 360,-161.5 360,-360 z m -360,19800 h -31860 c -496.262,0 -900,-403.7 -900,-900 v -18900 c 0,-496.297 403.738,-900 900,-900 h 31860 c 496.3,0 900,403.703 900,900 v 18900 c 0,496.3 -403.7,900 -900,900"
         style="fill:#231f20;fill-opacity:1;fill-rule:nonzero;stroke:none"
         transform="matrix(0.13333333,0,0,-0.13333333,0,2880.6667)" />
      <path
         id="path5"
         d="m 33572.5,1352.5 c 0,-198.5 -161.5,-360 -360,-360 h -31860 c -198.51,0 -360,161.5 -360,360 v 18900 c 0,198.5 161.49,360 360,360 h 31860 c 198.5,0 360,-161.5 360,-360 z m -360,19800 h -31860 c -496.262,0 -900,-403.7 -900,-900 v -18900 c 0,-496.297 403.738,-900 900,-900 h 31860 c 496.3,0 900,403.703 900,900 v 18900 c 0,496.3 -403.7,900 -900,900 z"
         style="fill:none;stroke:#231f20;stroke-width:5;stroke-linecap:butt;stroke-linejoin:miter;stroke-miterlimit:4;stroke-dasharray:none;stroke-opacity:1"
         transform="matrix(0.13333333,0,0,-0.13333333,0,2880.6667)" />
      <path
         id="path6"
         d="m 6569.76,1982.5 v 1303.6 h -786.6 V 1982.5 h -413.45 v 2880 h 413.45 V 3690.3 h 786.6 v 1172.2 h 413.46 v -2880 h -413.46"
         style="fill:#231f20;fill-opacity:1;fill-rule:nonzero;stroke:none"
         transform="matrix(0.13333333,0,0,-0.13333333,0,2880.6667)" />
      <path
         id="path7"
         d="m 8770.54,4145 c -71.25,252.7 -183.21,363.8 -356.26,363.8 -183.23,0 -295.2,-111.1 -366.45,-353.7 -71.27,-222.3 -91.62,-414.3 -91.62,-737.7 0,-313.2 30.54,-495.1 91.62,-727.5 71.25,-242.6 183.22,-353.7 366.45,-353.7 173.05,0 285.01,111.1 356.26,353.7 71.28,232.4 91.61,404.2 91.61,737.6 0,323.4 -30.52,505.3 -91.61,717.5 z M 9096.27,2427.1 C 8953.77,2083.6 8740.02,1932 8414.28,1932 c -346.1,0 -549.68,151.6 -692.19,495.1 -122.15,283 -162.87,555.8 -162.87,1000.4 0,434.6 40.72,727.6 162.87,1000.5 152.7,343.6 356.29,485 692.19,485 335.92,0 539.49,-141.4 681.99,-495.1 122.16,-283 162.89,-555.8 162.89,-990.4 0,-444.6 -40.73,-727.5 -162.89,-1000.4"
         style="fill:#231f20;fill-opacity:1;fill-rule:nonzero;stroke:none"
         transform="matrix(0.13333333,0,0,-0.13333333,0,2880.6667)" />
      <path
         id="path8"
         d="m 12631.2,4145 c -71.3,252.7 -183.2,363.8 -356.3,363.8 -183.2,0 -295.2,-111.1 -366.4,-353.7 -71.3,-222.3 -91.6,-414.3 -91.6,-737.7 0,-313.2 30.5,-495.1 91.6,-727.5 71.2,-242.6 183.2,-353.7 366.4,-353.7 173.1,0 285,111.1 356.3,353.7 71.3,232.4 91.6,404.2 91.6,737.6 0,323.4 -30.5,505.3 -91.6,717.5 z m 325.7,-1717.9 c -142.5,-343.5 -356.2,-495.1 -682,-495.1 -346.1,0 -549.6,151.6 -692.1,495.1 -122.2,283 -162.9,555.8 -162.9,1000.4 0,434.6 40.7,727.6 162.9,1000.5 152.6,343.6 356.2,485 692.1,485 335.9,0 539.5,-141.4 682,-495.1 122.2,-283 162.9,-555.8 162.9,-990.4 0,-444.6 -40.7,-727.5 -162.9,-1000.4"
         style="fill:#231f20;fill-opacity:1;fill-rule:nonzero;stroke:none"
         transform="matrix(0.13333333,0,0,-0.13333333,0,2880.6667)" />
      <path
         id="path9"
         d="m 4017.18,4458.3 h -423.56 v -818.5 h 423.56 c 242.03,0 373.12,151.5 373.12,414.3 0,242.5 -151.28,404.2 -373.12,404.2 z m 20.18,-1212.7 H 3593.62 V 1982.5 h -413.44 v 2880 h 857.18 c 453.77,0 756.33,-323.4 756.33,-808.4 0,-525.5 -272.29,-808.5 -756.33,-808.5"
         style="fill:#231f20;fill-opacity:1;fill-rule:nonzero;stroke:none"
         transform="matrix(0.13333333,0,0,-0.13333333,0,2880.6667)" />
      <path
         id="path10"
         d="m 10547.3,4478.5 v -2496 h -415.5 v 2496 h -527.04 v 384 h 1469.54 v -384 h -527"
         style="fill:#231f20;fill-opacity:1;fill-rule:nonzero;stroke:none"
         transform="matrix(0.13333333,0,0,-0.13333333,0,2880.6667)" />
      <path
         id="path11"
         d="m 26820.1,4094.5 c -40.6,282.9 -152.2,414.3 -345,414.3 -334.9,0 -456.7,-262.7 -456.7,-1010.5 0,-828.7 142.1,-1162.1 497.2,-1162.1 243.6,0 304.5,202.1 304.5,414.3 h 416.1 c -10.2,-475 -314.6,-818.5 -720.6,-818.5 -619,0 -893,495.1 -893,1556.2 0,929.7 294.3,1424.8 862.6,1424.8 233.4,0 436.4,-101 568.3,-293 111.6,-141.5 152.2,-262.8 182.7,-525.5 h -416.1"
         style="fill:#231f20;fill-opacity:1;fill-rule:nonzero;stroke:none"
         transform="matrix(0.13333333,0,0,-0.13333333,0,2880.6667)" />
      <path
         id="path12"
         d="m 30900.8,4165.2 c -70.6,202.1 -191.6,293.1 -373.2,293.1 h -342.8 V 2386.7 h 342.8 c 242.1,0 373.2,192 413.5,414.3 20.2,181.9 40.3,384 40.3,606.3 0,323.4 -30.2,636.7 -80.6,757.9 z m 70.5,-2051.3 c -100.8,-91 -242,-131.4 -403.3,-131.4 h -796.7 v 2880 h 736.2 c 242,0 363,-30.3 463.8,-111.2 171.5,-121.2 292.5,-343.5 342.9,-636.6 40.4,-212.2 70.6,-464.8 70.6,-687.2 0,-666.9 -131.1,-1091.3 -413.5,-1313.6"
         style="fill:#231f20;fill-opacity:1;fill-rule:nonzero;stroke:none"
         transform="matrix(0.13333333,0,0,-0.13333333,0,2880.6667)" />
      <path
         id="path13"
         d="m 15279.8,1982.5 v 2880 h 1358 v -404.2 h -942.5 v -727.6 h 598 v -394.1 h -598 v -949.9 h 1054 v -404.2 h -1469.5"
         style="fill:#231f20;fill-opacity:1;fill-rule:nonzero;stroke:none"
         transform="matrix(0.13333333,0,0,-0.13333333,0,2880.6667)" />
      <path
         id="path14"
         d="m 27812.2,1982.5 v 2880 h 1358 v -404.2 h -942.5 v -727.6 h 597.9 v -394.1 h -597.9 v -949.9 h 1054 v -404.2 h -1469.5"
         style="fill:#231f20;fill-opacity:1;fill-rule:nonzero;stroke:none"
         transform="matrix(0.13333333,0,0,-0.13333333,0,2880.6667)" />
      <path
         id="path15"
         d="m 19901.6,4458.3 v -727.6 h 577.7 v -394.1 h -577.7 V 1982.5 h -415.5 v 2880 h 1469.5 v -404.2 h -1054"
         style="fill:#231f20;fill-opacity:1;fill-rule:nonzero;stroke:none"
         transform="matrix(0.13333333,0,0,-0.13333333,0,2880.6667)" />
      <path
         id="path16"
         d="m 18539.8,1982.5 -887.4,1930.1 V 1982.5 H 17239 v 2880 h 413.4 l 786.6,-1728 v 1728 h 413.5 v -2880 h -312.7"
         style="fill:#231f20;fill-opacity:1;fill-rule:nonzero;stroke:none"
         transform="matrix(0.13333333,0,0,-0.13333333,0,2880.6667)" />
      <path
         id="path17"
         d="m 22512.5,4145 c -71.2,252.7 -183.2,363.8 -356.2,363.8 -183.3,0 -295.3,-111.1 -366.5,-353.7 -71.3,-222.3 -91.6,-414.3 -91.6,-737.6 0,-313.3 30.5,-495.2 91.6,-727.6 71.2,-242.6 183.2,-353.7 366.5,-353.7 173,0 285,111.1 356.2,353.7 71.3,232.4 91.6,404.2 91.6,737.6 0,323.4 -30.5,505.3 -91.6,717.5 z m 325.8,-1717.9 c -142.6,-343.5 -356.3,-495.1 -682,-495.1 -346.1,0 -549.7,151.6 -692.2,495.1 -122.2,283 -162.9,555.8 -162.9,1000.4 0,434.6 40.7,727.6 162.9,1000.5 152.6,343.6 356.2,485 692.2,485 335.9,0 539.4,-141.4 682,-495.1 122.1,-283 162.8,-555.8 162.8,-990.4 0,-444.6 -40.7,-727.5 -162.8,-1000.4"
         style="fill:#231f20;fill-opacity:1;fill-rule:nonzero;stroke:none"
         transform="matrix(0.13333333,0,0,-0.13333333,0,2880.6667)" />
      <path
         id="path18"
         d="m 24414.1,4458.3 h -423.5 v -727.6 h 423.5 c 242.1,0 373.2,131.4 373.2,363.8 0,222.3 -151.3,363.8 -373.2,363.8 z m 353,-2475.8 -383.2,1354.1 h -393.3 V 1982.5 h -413.5 v 2880 h 857.2 c 453.8,0 756.3,-303.2 756.3,-768 0,-343.6 -141.1,-596.2 -413.4,-697.3 l 413.4,-1414.7 h -423.5"
         style="fill:#231f20;fill-opacity:1;fill-rule:nonzero;stroke:none"
         transform="matrix(0.13333333,0,0,-0.13333333,0,2880.6667)" />
      <path
         id="path19"
         d="m 17282.5,12062.5 c -828.4,0 -1500,671.6 -1500,1500 0,828.4 671.6,1500 1500,1500 828.4,0 1500,-671.6 1500,-1500 0,-828.4 -671.6,-1500 -1500,-1500 z m 3600,3540 h -7200 c -132.6,0 -240,-107.4 -240,-240 v -3600 c 0,-132.6 107.4,-240 240,-240 h 7200 c 132.5,0 240,107.4 240,240 v 3600 c 0,132.6 -107.5,240 -240,240"
         style="fill:#231f20;fill-opacity:1;fill-rule:nonzero;stroke:none"
         transform="matrix(0.13333333,0,0,-0.13333333,0,2880.6667)" />
      <path
         id="path20"
         d="m 18422.5,17282.5 h -2280 c -132.6,0 -240,-107.4 -240,-240 v -960 c 0,-132.6 107.4,-240 240,-240 h 2280 c 132.5,0 240,107.4 240,240 v 960 c 0,132.6 -107.5,240 -240,240"
         style="fill:#231f20;fill-opacity:1;fill-rule:nonzero;stroke:none"
         transform="matrix(0.13333333,0,0,-0.13333333,0,2880.6667)" />
      <path
         id="path21"
         d="m 15633.6,16790.2 -2086.4,559.1 -93.2,-347.7 2086.4,-559.1 93.2,347.7"
         style="fill:#231f20;fill-opacity:1;fill-rule:nonzero;stroke:none"
         transform="matrix(0.13333333,0,0,-0.13333333,0,2880.6667)" />
      <path
         id="path22"
         d="m 16167.4,17777.1 -1527.4,1527.3 -254.6,-254.5 1527.4,-1527.4 254.6,254.6"
         style="fill:#231f20;fill-opacity:1;fill-rule:nonzero;stroke:none"
         transform="matrix(0.13333333,0,0,-0.13333333,0,2880.6667)" />
      <path
         id="path23"
         d="m 19024.6,16442.5 2086.4,559.1 -93.2,347.7 -2086.4,-559.1 93.2,-347.7"
         style="fill:#231f20;fill-opacity:1;fill-rule:nonzero;stroke:none"
         transform="matrix(0.13333333,0,0,-0.13333333,0,2880.6667)" />
      <path
         id="path24"
         d="m 20179.6,19049.9 -254.6,254.5 -1527.4,-1527.3 254.6,-254.6 1527.4,1527.4"
         style="fill:#231f20;fill-opacity:1;fill-rule:nonzero;stroke:none"
         transform="matrix(0.13333333,0,0,-0.13333333,0,2880.6667)" />
      <path
         id="path25"
         d="m 17462.5,19802.5 h -360 v -2160 h 360 v 2160"
         style="fill:#231f20;fill-opacity:1;fill-rule:nonzero;stroke:none"
         transform="matrix(0.13333333,0,0,-0.13333333,0,2880.6667)" />
      <path
         id="path26"
         d="m 10833.4,8683.6 -202.6,-828.7 h 415.4 z m 516.7,-2021.1 -202.6,788.2 h -618 L 10337,6662.5 h -415.41 l 719.31,2880 h 405.3 l 719.3,-2880 h -415.4"
         style="fill:#231f20;fill-opacity:1;fill-rule:nonzero;stroke:none"
         transform="matrix(0.13333333,0,0,-0.13333333,0,2880.6667)" />
      <path
         id="path27"
         d="m 18090.8,8774.5 c -40.6,282.9 -152.2,414.3 -345,414.3 -334.9,0 -456.7,-262.7 -456.7,-1010.5 0,-828.7 142.1,-1162.1 497.2,-1162.1 243.6,0 304.5,202.1 304.5,414.3 h 416.1 c -10.2,-475 -314.6,-818.5 -720.6,-818.5 -618.9,0 -893,495.1 -893,1556.2 0,929.7 294.3,1424.8 862.6,1424.8 233.4,0 436.4,-101 568.3,-293 111.6,-141.5 152.2,-262.8 182.7,-525.5 h -416.1"
         style="fill:#231f20;fill-opacity:1;fill-rule:nonzero;stroke:none"
         transform="matrix(0.13333333,0,0,-0.13333333,0,2880.6667)" />
      <path
         id="path28"
         d="m 12584.2,9138.3 v -727.6 h 577.7 v -394.1 h -577.7 V 6662.5 h -415.5 v 2880 h 1469.5 v -404.2 h -1054"
         style="fill:#231f20;fill-opacity:1;fill-rule:nonzero;stroke:none"
         transform="matrix(0.13333333,0,0,-0.13333333,0,2880.6667)" />
      <path
         id="path29"
         d="m 14457,9138.3 v -727.6 h 577.6 V 8016.6 H 14457 V 6662.5 h -415.6 v 2880 H 15511 v -404.2 h -1054"
         style="fill:#231f20;fill-opacity:1;fill-rule:nonzero;stroke:none"
         transform="matrix(0.13333333,0,0,-0.13333333,0,2880.6667)" />
      <path
         id="path30"
         d="m 15914.2,6662.5 v 2880 h 403.2 v -2880 h -403.2"
         style="fill:#231f20;fill-opacity:1;fill-rule:nonzero;stroke:none"
         transform="matrix(0.13333333,0,0,-0.13333333,0,2880.6667)" />
      <path
         id="path31"
         d="m 8885.89,9138.3 h -423.56 v -727.6 h 423.56 c 242.03,0 373.12,131.4 373.12,363.8 0,222.3 -151.26,363.8 -373.12,363.8 z m 352.96,-2475.8 -383.22,1354.1 h -393.3 V 6662.5 h -413.45 v 2880 h 857.16 c 453.82,0 756.36,-303.2 756.36,-768 0,-343.6 -141.18,-596.2 -413.46,-697.3 L 9662.4,6662.5 h -423.55"
         style="fill:#231f20;fill-opacity:1;fill-rule:nonzero;stroke:none"
         transform="matrix(0.13333333,0,0,-0.13333333,0,2880.6667)" />
      <path
         id="path32"
         d="m 7118.68,9158.5 v -2496 h -415.53 v 2496 h -527 v 384 h 1469.52 v -384 h -526.99"
         style="fill:#231f20;fill-opacity:1;fill-rule:nonzero;stroke:none"
         transform="matrix(0.13333333,0,0,-0.13333333,0,2880.6667)" />
      <path
         id="path33"
         d="m 23221,8683.6 -202.6,-828.7 h 415.4 z m 516.7,-2021.1 -202.6,788.2 h -618 l -192.5,-788.2 h -415.4 l 719.3,2880 h 405.3 l 719.3,-2880 h -415.4"
         style="fill:#231f20;fill-opacity:1;fill-rule:nonzero;stroke:none"
         transform="matrix(0.13333333,0,0,-0.13333333,0,2880.6667)" />
      <path
         id="path34"
         d="m 20666.9,6662.5 v 2880 h 415.5 v -2496 h 1054 v -384 h -1469.5"
         style="fill:#231f20;fill-opacity:1;fill-rule:nonzero;stroke:none"
         transform="matrix(0.13333333,0,0,-0.13333333,0,2880.6667)" />
      <path
         id="path35"
         d="m 27595.4,7992.5 c -124.6,80.7 -245.6,161.8 -322.8,216.1 -232.2,163.4 -355.2,384 -355.2,636.6 0,414.4 324.7,747.8 740.8,747.8 405.9,0 720.5,-313.2 730.6,-747.8 h -395.7 c -10.2,202.1 -152.2,333.5 -334.9,333.5 -192.8,0 -345,-141.5 -345,-333.5 0,-141.4 60.9,-222.3 274,-343.5 558.1,-323.4 801.6,-636.7 801.6,-1051 0,-464.8 -355.1,-838.7 -801.6,-838.7 -507.4,0 -811.9,424.4 -811.9,899.3 h 406 c 0,-242.5 121.7,-495.1 405.9,-495.1 223.2,0 405.9,202.1 405.9,434.5 0,180.5 -74.6,332.5 -397.7,541.8"
         style="fill:#231f20;fill-opacity:1;fill-rule:nonzero;stroke:none"
         transform="matrix(0.13333333,0,0,-0.13333333,0,2880.6667)" />
      <path
         id="path36"
         d="m 26049.7,6662.5 h -354.9 L 25421,8168.2 25147.2,6662.5 h -365 l -456.3,2880 h 405.6 l 243.4,-1536 283.9,1536 h 324.5 l 273.7,-1536 253.5,1536 h 405.7 l -466.5,-2880"
         style="fill:#231f20;fill-opacity:1;fill-rule:nonzero;stroke:none"
         transform="matrix(0.13333333,0,0,-0.13333333,0,2880.6667)" />
    </g>
  </g>
</svg>
