<?xml version="1.0" encoding="UTF-8" standalone="no"?>
<!-- Created with Inkscape (http://www.inkscape.org/) -->

<svg
   version="1.1"
   id="svg1"
   width="3456.6667"
   height="4032.6667"
   viewBox="0 0 3456.6667 4032.6667"
   sodipodi:docname="tmpeagkn1fb.pdf"
   xmlns:inkscape="http://www.inkscape.org/namespaces/inkscape"
   xmlns:sodipodi="http://sodipodi.sourceforge.net/DTD/sodipodi-0.dtd"
   xmlns="http://www.w3.org/2000/svg"
   xmlns:svg="http://www.w3.org/2000/svg">
  <defs
     id="defs1" />
  <sodipodi:namedview
     id="namedview1"
     pagecolor="#ffffff"
     bordercolor="#000000"
     borderopacity="0.25"
     inkscape:showpageshadow="2"
     inkscape:pageopacity="0.0"
     inkscape:pagecheckerboard="0"
     inkscape:deskcolor="#d1d1d1">
    <inkscape:page
       x="0"
       y="0"
       inkscape:label="1"
       id="page1"
       width="3456.6667"
       height="4032.6667"
       margin="0"
       bleed="0" />
  </sodipodi:namedview>
  <g
     id="g1"
     inkscape:groupmode="layer"
     inkscape:label="1">
    <g
       id="group-R5">
      <path
         id="path2"
         d="m 25922.5,1622.5 c 0,-894.699 -725.3,-1620 -1620,-1620 H 1622.5 C 727.805,2.5 2.5,727.801 2.5,1622.5 v 27000 c 0,894.7 725.305,1620 1620.01,1620 H 24302.5 c 894.7,0 1620,-725.3 1620,-1620 v -27000"
         style="fill:#ffffff;fill-opacity:1;fill-rule:nonzero;stroke:none"
         transform="matrix(0.13333333,0,0,-0.13333333,0,4032.6667)" />
      <path
         id="path3"
         d="m 25922.5,1622.5 c 0,-894.699 -725.3,-1620 -1620,-1620 H 1622.5 C 727.805,2.5 2.5,727.801 2.5,1622.5 v 27000 c 0,894.7 725.305,1620 1620.01,1620 H 24302.5 c 894.7,0 1620,-725.3 1620,-1620 z"
         style="fill:none;stroke:#231f20;stroke-width:5;stroke-linecap:butt;stroke-linejoin:miter;stroke-miterlimit:4;stroke-dasharray:none;stroke-opacity:1"
         transform="matrix(0.13333333,0,0,-0.13333333,0,4032.6667)" />
      <path
         id="path4"
         d="m 1622.51,452.5 c -645.139,0 -1169.998,524.902 -1169.998,1170 v 27000 c 0,645.1 524.859,1170 1169.998,1170 H 24302.5 c 645.1,0 1170,-524.9 1170,-1170 v -27000 c 0,-645.098 -524.9,-1170 -1170,-1170 H 1622.51"
         style="fill:#231f20;fill-opacity:1;fill-rule:nonzero;stroke:none"
         transform="matrix(0.13333333,0,0,-0.13333333,0,4032.6667)" />
      <path
         id="path5"
         d="m 1082.51,1622.5 c 0,-297.7 242.25,-540 540,-540 H 24302.5 c 297.8,0 540,242.3 540,540 v 15570 H 1082.51 v -15570"
         style="fill:#ffffff;fill-opacity:1;fill-rule:nonzero;stroke:none"
         transform="matrix(0.13333333,0,0,-0.13333333,0,4032.6667)" />
      <path
         id="path6"
         d="m 24842.5,28622.5 c 0,297.7 -242.2,540 -540,540 H 1622.51 c -297.75,0 -540,-242.2 -540,-540 v -10800 H 24842.5 v 10800"
         style="fill:#ffffff;fill-opacity:1;fill-rule:nonzero;stroke:none"
         transform="matrix(0.13333333,0,0,-0.13333333,0,4032.6667)" />
      <path
         id="path7"
         d="m 5950.17,24392.5 v 1667.4 l -668.29,-1667.4 -668.27,1667.4 v -1667.4 h -455.64 v 2880 h 455.64 l 668.27,-1616.9 668.29,1616.9 h 455.63 v -2880 h -455.63"
         style="fill:#231f20;fill-opacity:1;fill-rule:nonzero;stroke:none"
         transform="matrix(0.13333333,0,0,-0.13333333,0,4032.6667)" />
      <path
         id="path8"
         d="m 1882.03,24392.5 v 2880 h 1695.49 v -454.7 H 2336.17 v -707.4 h 837.68 v -464.9 h -837.68 v -788.2 h 1332.19 v -464.8 H 1882.03"
         style="fill:#231f20;fill-opacity:1;fill-rule:nonzero;stroke:none"
         transform="matrix(0.13333333,0,0,-0.13333333,0,4032.6667)" />
      <path
         id="path9"
         d="m 18191.9,24392.5 -1101.5,1950.3 v -1950.3 h -454.8 v 2880 h 454.8 l 1051,-1839.2 v 1839.2 h 454.8 v -2880 h -404.3"
         style="fill:#231f20;fill-opacity:1;fill-rule:nonzero;stroke:none"
         transform="matrix(0.13333333,0,0,-0.13333333,0,4032.6667)" />
      <path
         id="path10"
         d="m 10636.2,26767.2 c -70.7,40.5 -111.2,50.6 -262.8,50.6 h -545.69 v -707.4 h 545.69 c 141.5,0 192.1,10.1 262.8,50.5 111.2,60.7 181.9,181.9 181.9,303.2 0,121.2 -70.7,242.5 -181.9,303.1 z m 202.1,-2374.7 -464.9,1253.1 h -545.69 v -1253.1 h -454.75 v 2880 h 949.94 c 222.3,0 373.9,-20.2 515.4,-90.9 252.7,-121.3 434.6,-424.5 434.6,-717.5 0,-303.2 -181.9,-606.3 -444.7,-727.6 l 505.3,-1344 h -495.2"
         style="fill:#231f20;fill-opacity:1;fill-rule:nonzero;stroke:none"
         transform="matrix(0.13333333,0,0,-0.13333333,0,4032.6667)" />
      <path
         id="path11"
         d="m 23037.5,25645.6 v -1253.1 h -457.1 v 1253.1 l -1015.7,1626.9 h 548.5 l 690.7,-1111.6 700.8,1111.6 h 538.3 l -1005.5,-1626.9"
         style="fill:#231f20;fill-opacity:1;fill-rule:nonzero;stroke:none"
         transform="matrix(0.13333333,0,0,-0.13333333,0,4032.6667)" />
      <path
         id="path12"
         d="m 7097.03,24392.5 v 2880 h 1695.49 v -454.7 H 7551.17 v -707.4 h 837.68 v -464.9 h -837.68 v -788.2 h 1332.19 v -464.8 H 7097.03"
         style="fill:#231f20;fill-opacity:1;fill-rule:nonzero;stroke:none"
         transform="matrix(0.13333333,0,0,-0.13333333,0,4032.6667)" />
      <path
         id="path13"
         d="m 14359.7,24392.5 v 2880 h 1695.5 v -454.7 h -1241.4 v -707.4 h 837.7 v -464.9 h -837.7 v -788.2 H 16146 v -464.8 h -1786.3"
         style="fill:#231f20;fill-opacity:1;fill-rule:nonzero;stroke:none"
         transform="matrix(0.13333333,0,0,-0.13333333,0,4032.6667)" />
      <path
         id="path14"
         d="m 20321.2,24342 c -424.4,0 -697.3,161.7 -879.2,515.3 -131.4,252.7 -212.2,616.5 -212.2,980.3 0,454.7 121.2,909.4 323.4,1162.1 171.8,212.2 414.3,323.3 737.7,323.3 434.5,0 707.4,-181.9 899.4,-586.1 l -424.4,-181.9 c -161.7,242.6 -252.7,303.2 -475,303.2 -232.4,0 -384,-101.1 -485.1,-353.7 -70.7,-171.8 -111.2,-424.4 -111.2,-666.9 0,-313.3 70.8,-626.6 182,-808.5 101,-151.6 232.4,-222.3 434.5,-222.3 192,0 333.5,101.1 444.7,333.5 l 434.5,-161.7 c -171.8,-424.4 -454.7,-636.6 -869.1,-636.6"
         style="fill:#231f20;fill-opacity:1;fill-rule:nonzero;stroke:none"
         transform="matrix(0.13333333,0,0,-0.13333333,0,4032.6667)" />
      <path
         id="path15"
         d="m 12816.5,24342 c -434.5,0 -687.2,161.7 -859,525.4 -121.2,252.7 -192,606.4 -192,960 0,464.9 131.4,919.6 323.4,1172.3 171.8,212.2 414.4,323.3 737.8,323.3 444.6,0 707.4,-181.9 899.4,-636.6 l -434.6,-171.8 c -121.2,252.6 -242.5,343.6 -464.8,343.6 -232.5,0 -384.1,-101.1 -485.1,-353.7 -70.8,-171.8 -111.2,-434.5 -111.2,-677.1 0,-303.1 50.5,-606.3 141.5,-788.2 90.9,-161.7 222.3,-232.4 394.1,-232.4 293.1,0 505.3,181.9 505.3,444.6 v 121.3 h -525.5 v 454.7 h 980.3 v -576 c 0,-525.4 -384,-909.4 -909.6,-909.4"
         style="fill:#231f20;fill-opacity:1;fill-rule:nonzero;stroke:none"
         transform="matrix(0.13333333,0,0,-0.13333333,0,4032.6667)" />
      <path
         id="path16"
         d="m 14058,19622.5 -1101.5,1950.3 v -1950.3 h -454.8 v 2880 h 454.8 l 1051,-1839.2 v 1839.2 h 454.8 v -2880 H 14058"
         style="fill:#231f20;fill-opacity:1;fill-rule:nonzero;stroke:none"
         transform="matrix(0.13333333,0,0,-0.13333333,0,4032.6667)" />
      <path
         id="path17"
         d="m 8813.13,19622.5 v 2880 h 460.8 v -2880 h -460.8"
         style="fill:#231f20;fill-opacity:1;fill-rule:nonzero;stroke:none"
         transform="matrix(0.13333333,0,0,-0.13333333,0,4032.6667)" />
      <path
         id="path18"
         d="m 17775.7,19622.5 v 2880 h 454.2 V 20046.9 H 19562 v -424.4 h -1786.3"
         style="fill:#231f20;fill-opacity:1;fill-rule:nonzero;stroke:none"
         transform="matrix(0.13333333,0,0,-0.13333333,0,4032.6667)" />
      <path
         id="path19"
         d="m 8040.57,19797.8 c -161.69,-141.5 -384.03,-222.3 -626.57,-222.3 -495.18,0 -859,293 -1051.02,727.6 l 434.56,161.7 c 121.28,-272.9 343.59,-424.5 616.46,-424.5 262.76,0 444.66,181.9 444.66,424.5 0,384 -444.66,444.6 -818.59,596.2 -171.79,70.7 -555.81,242.5 -555.81,717.4 0,565.9 384.02,778.2 899.43,778.2 404.22,0 677.09,-232.5 818.57,-586.2 l -404.22,-121.2 c 0,0 -101.07,242.5 -424.47,252.6 -212.22,10.1 -464.88,-70.7 -444.65,-333.5 40.43,-535.5 1394.62,-181.9 1394.62,-1313.6 0,-262.8 -101.07,-495.2 -282.97,-656.9"
         style="fill:#231f20;fill-opacity:1;fill-rule:nonzero;stroke:none"
         transform="matrix(0.13333333,0,0,-0.13333333,0,4032.6667)" />
      <path
         id="path20"
         d="m 16124.1,21704.2 -294.8,-808.4 h 579.4 z m 731.7,-2081.7 -284.5,808.4 h -904.6 l -284.6,-808.4 h -487.8 l 996,2880 h 457.4 l 996,-2880 h -487.9"
         style="fill:#231f20;fill-opacity:1;fill-rule:nonzero;stroke:none"
         transform="matrix(0.13333333,0,0,-0.13333333,0,4032.6667)" />
      <path
         id="path21"
         d="m 10958.5,19572 c -434.5,0 -687.2,161.6 -859,525.4 -121.23,252.7 -191.97,606.4 -191.97,960 0,464.9 131.37,919.6 323.37,1172.3 171.8,212.2 414.4,323.3 737.8,323.3 444.6,0 707.4,-181.9 899.4,-636.6 l -434.6,-171.8 c -121.2,252.6 -242.5,343.6 -464.8,343.6 -232.5,0 -384.1,-101.1 -485.1,-353.7 -70.8,-171.8 -111.2,-434.5 -111.2,-677.1 0,-303.1 50.5,-606.3 141.5,-788.2 90.9,-161.7 222.3,-232.4 394.1,-232.4 293.1,0 505.3,181.9 505.3,444.6 v 121.3 h -525.5 v 454.7 h 980.3 v -576 c 0,-525.4 -384,-909.4 -909.6,-909.4"
         style="fill:#231f20;fill-opacity:1;fill-rule:nonzero;stroke:none"
         transform="matrix(0.13333333,0,0,-0.13333333,0,4032.6667)" />
      <path
         id="path22"
         d="m 20814.5,12512.5 -1101.6,1950.3 v -1950.3 h -454.7 v 2880 h 454.7 L 20764,13553.3 v 1839.2 h 454.7 v -2880 h -404.2"
         style="fill:#231f20;fill-opacity:1;fill-rule:nonzero;stroke:none"
         transform="matrix(0.13333333,0,0,-0.13333333,0,4032.6667)" />
      <path
         id="path23"
         d="m 17996.5,14752.3 c -91.1,151.6 -202.6,212.2 -374.8,222.3 -222.8,10.2 -364.7,-101 -465.9,-353.6 -71,-171.8 -111.5,-434.6 -111.5,-677.1 0,-303.1 60.8,-616.4 172.2,-798.3 91.2,-151.6 212.7,-222.3 395.1,-222.3 212.7,0 344.4,111.2 445.7,363.8 60.8,151.6 111.4,434.5 111.4,656.8 0,323.4 -60.7,616.4 -172.2,808.4 z m 314.1,-1970.5 c -162.1,-222.3 -395.1,-323.4 -699,-323.4 -405.2,0 -658.5,161.7 -830.7,515.4 -121.5,242.5 -202.6,626.5 -202.6,970.1 0,475 121.6,899.4 314.1,1172.2 172.2,222.3 405.2,323.4 739.4,323.4 364.7,0 618,-161.7 800.3,-515.4 121.6,-252.6 192.5,-616.4 192.5,-980.2 0,-454.7 -111.4,-909.4 -314,-1162.1"
         style="fill:#231f20;fill-opacity:1;fill-rule:nonzero;stroke:none"
         transform="matrix(0.13333333,0,0,-0.13333333,0,4032.6667)" />
      <path
         id="path24"
         d="m 10476.2,14752.3 c -91.2,151.6 -202.6,212.2 -374.9,222.3 -222.82,10.2 -364.64,-101 -465.93,-353.6 -70.92,-171.8 -111.42,-434.6 -111.42,-677.1 0,-303.1 60.76,-616.4 172.18,-798.3 91.19,-151.6 212.74,-222.3 395.07,-222.3 212.7,0 344.4,111.2 445.7,363.8 60.8,151.6 111.5,434.5 111.5,656.8 0,323.4 -60.8,616.4 -172.2,808.4 z m 314,-1970.5 c -162.1,-222.3 -395.1,-323.4 -699,-323.4 -405.18,0 -658.45,161.7 -830.65,515.4 -121.55,242.5 -202.58,626.5 -202.58,970.1 0,475 121.54,899.4 314.02,1172.2 172.21,222.3 405.2,323.4 739.51,323.4 364.7,0 617.9,-161.7 800.2,-515.4 121.6,-252.6 192.5,-616.4 192.5,-980.2 0,-454.7 -111.4,-909.4 -314,-1162.1"
         style="fill:#231f20;fill-opacity:1;fill-rule:nonzero;stroke:none"
         transform="matrix(0.13333333,0,0,-0.13333333,0,4032.6667)" />
      <path
         id="path25"
         d="m 13061.7,14887.3 c -80.9,40.4 -131.4,50.5 -272.9,50.5 h -596.2 v -707.4 h 596.2 c 141.5,0 192,10.1 272.9,50.5 101,50.6 171.8,181.9 171.8,303.2 0,121.3 -70.8,242.5 -171.8,303.2 z m 192,-1020.7 c -131.4,-60.6 -303.2,-101 -525.5,-101 h -535.6 v -1253.1 h -454.8 v 2880 h 990.4 c 232.4,0 384,-20.2 525.5,-90.9 252.6,-121.3 444.6,-424.5 444.6,-717.5 0,-303.2 -192,-606.3 -444.6,-717.5"
         style="fill:#231f20;fill-opacity:1;fill-rule:nonzero;stroke:none"
         transform="matrix(0.13333333,0,0,-0.13333333,0,4032.6667)" />
      <path
         id="path26"
         d="m 8013.67,14988.3 v -2475.8 h -456.69 v 2475.8 h -659.74 v 404.2 h 1786.31 v -404.2 h -669.88"
         style="fill:#231f20;fill-opacity:1;fill-rule:nonzero;stroke:none"
         transform="matrix(0.13333333,0,0,-0.13333333,0,4032.6667)" />
      <path
         id="path27"
         d="m 6383.89,12687.8 c -161.69,-141.5 -384.03,-222.3 -626.57,-222.3 -495.18,0 -859,293.1 -1051.02,727.6 l 434.56,161.7 c 121.28,-272.9 343.59,-424.4 616.46,-424.4 262.76,0 444.66,181.8 444.66,424.4 0,384 -444.66,444.6 -818.59,596.2 -171.79,70.7 -555.81,242.5 -555.81,717.5 0,565.9 384.02,778.1 899.43,778.1 404.22,0 677.09,-232.5 818.57,-586.2 l -404.22,-121.2 c 0,0 -101.07,242.5 -424.47,252.6 -212.22,10.1 -464.88,-70.7 -444.65,-333.5 40.43,-535.5 1394.62,-181.9 1394.62,-1313.6 0,-262.8 -101.07,-495.2 -282.97,-656.9"
         style="fill:#231f20;fill-opacity:1;fill-rule:nonzero;stroke:none"
         transform="matrix(0.13333333,0,0,-0.13333333,0,4032.6667)" />
      <path
         id="path28"
         d="m 10882.4,5347.2 c -70.7,40.5 -111.1,50.6 -262.7,50.6 h -545.8 v -707.4 h 545.8 c 141.5,0 192,10.1 262.7,50.5 111.2,60.7 181.9,181.9 181.9,303.2 0,121.2 -70.7,242.5 -181.9,303.1 z m 202.1,-2374.7 -464.8,1253.1 h -545.8 V 2972.5 h -454.71 v 2880 h 949.91 c 222.4,0 374,-20.2 515.4,-90.9 252.7,-121.3 434.6,-424.5 434.6,-717.5 0,-303.2 -181.9,-606.3 -444.7,-727.6 l 505.4,-1344 h -495.3"
         style="fill:#231f20;fill-opacity:1;fill-rule:nonzero;stroke:none"
         transform="matrix(0.13333333,0,0,-0.13333333,0,4032.6667)" />
      <path
         id="path29"
         d="m 15608.5,5276.5 c -70.7,70.8 -171.8,121.3 -293.1,121.3 H 14800 V 3437.3 h 454.8 c 151.6,0 242.6,30.4 323.4,111.2 171.8,171.8 262.7,485.1 262.7,869.1 0,384 -90.9,707.3 -232.4,858.9 z m 192,-2142.3 c -111.1,-101.1 -262.7,-151.6 -414.3,-161.7 -30.3,0 -91,0 -161.7,0 h -879.2 v 2880 h 929.7 c 293.1,0 404.3,-30.3 555.8,-151.6 303.2,-262.7 475,-717.4 475,-1283.3 0,-576 -181.9,-1030.8 -505.3,-1283.4"
         style="fill:#231f20;fill-opacity:1;fill-rule:nonzero;stroke:none"
         transform="matrix(0.13333333,0,0,-0.13333333,0,4032.6667)" />
      <path
         id="path30"
         d="m 12069.3,2972.5 v 2880 h 1695.5 v -454.7 h -1241.3 v -707.4 h 837.6 v -464.9 h -837.6 v -788.2 h 1332.2 v -464.8 h -1786.4"
         style="fill:#231f20;fill-opacity:1;fill-rule:nonzero;stroke:none"
         transform="matrix(0.13333333,0,0,-0.13333333,0,4032.6667)" />
      <path
         id="path31"
         d="M 18797.1,7742.5 17695.5,9692.8 V 7742.5 h -454.8 v 2880 h 454.8 l 1051,-1839.2 v 1839.2 h 454.8 v -2880 h -404.2"
         style="fill:#231f20;fill-opacity:1;fill-rule:nonzero;stroke:none"
         transform="matrix(0.13333333,0,0,-0.13333333,0,4032.6667)" />
      <path
         id="path32"
         d="m 16088.8,7742.5 v 2880 h 460.8 v -2880 h -460.8"
         style="fill:#231f20;fill-opacity:1;fill-rule:nonzero;stroke:none"
         transform="matrix(0.13333333,0,0,-0.13333333,0,4032.6667)" />
      <path
         id="path33"
         d="m 6347.89,7742.5 v 2880 h 454.14 V 8166.9 H 8134.21 V 7742.5 H 6347.89"
         style="fill:#231f20;fill-opacity:1;fill-rule:nonzero;stroke:none"
         transform="matrix(0.13333333,0,0,-0.13333333,0,4032.6667)" />
      <path
         id="path34"
         d="m 12664.4,7917.8 c -161.7,-141.5 -384,-222.3 -626.5,-222.3 -495.2,0 -859,293.1 -1051.1,727.6 l 434.6,161.7 c 121.3,-272.9 343.6,-424.4 616.5,-424.4 262.7,0 444.6,181.8 444.6,424.4 0,384 -444.6,444.6 -818.6,596.2 -171.8,70.7 -555.8,242.5 -555.8,717.5 0,565.9 384,778.1 899.5,778.1 404.2,0 677,-232.5 818.5,-586.2 l -404.2,-121.2 c 0,0 -101.1,242.5 -424.5,252.6 -212.2,10.1 -464.8,-70.7 -444.6,-333.5 40.4,-535.5 1394.6,-181.9 1394.6,-1313.6 0,-262.8 -101.1,-495.2 -283,-656.9"
         style="fill:#231f20;fill-opacity:1;fill-rule:nonzero;stroke:none"
         transform="matrix(0.13333333,0,0,-0.13333333,0,4032.6667)" />
      <path
         id="path35"
         d="m 14942.8,7742.5 v 1253.1 h -1051 V 7742.5 H 13437 v 2880 h 454.8 V 9460.4 h 1051 v 1162.1 h 454.8 v -2880 h -454.8"
         style="fill:#231f20;fill-opacity:1;fill-rule:nonzero;stroke:none"
         transform="matrix(0.13333333,0,0,-0.13333333,0,4032.6667)" />
      <path
         id="path36"
         d="m 9536.8,9824.2 -294.75,-808.4 h 579.34 z M 10268.6,7742.5 9984,8550.9 H 9079.43 L 8794.85,7742.5 H 8307 l 996.03,2880 h 457.37 l 996,-2880 h -487.8"
         style="fill:#231f20;fill-opacity:1;fill-rule:nonzero;stroke:none"
         transform="matrix(0.13333333,0,0,-0.13333333,0,4032.6667)" />
      <path
         id="path37"
         d="m 4583.71,10167.8 v -707.4 h 837.64 V 8995.6 H 4583.71 V 7742.5 h -454.16 v 2880 h 1786.33 v -454.7 H 4583.71"
         style="fill:#231f20;fill-opacity:1;fill-rule:nonzero;stroke:none"
         transform="matrix(0.13333333,0,0,-0.13333333,0,4032.6667)" />
      <path
         id="path38"
         d="m 20885.9,7692 c -434.5,0 -687.2,161.7 -859,525.5 -121.2,252.6 -192,606.3 -192,960 0,464.8 131.4,919.5 323.4,1172.2 171.8,212.2 414.4,323.3 737.8,323.3 444.6,0 707.4,-181.9 899.4,-636.6 l -434.6,-171.8 c -121.3,252.6 -242.5,343.6 -464.8,343.6 -232.5,0 -384.1,-101.1 -485.1,-353.7 -70.8,-171.8 -111.2,-434.5 -111.2,-677 0,-303.2 50.5,-606.4 141.5,-788.3 90.9,-161.6 222.3,-232.4 394.1,-232.4 293.1,0 505.3,181.9 505.3,444.6 v 121.3 h -525.5 v 454.8 h 980.3 v -576.1 c 0,-525.4 -384,-909.4 -909.6,-909.4"
         style="fill:#231f20;fill-opacity:1;fill-rule:nonzero;stroke:none"
         transform="matrix(0.13333333,0,0,-0.13333333,0,4032.6667)" />
    </g>
  </g>
</svg>
