<?xml version="1.0" standalone="no"?>
<svg width="648px" height="864px" viewBox="0 -72 648 864 " xmlns="http://www.w3.org/2000/svg" xmlns:xlink="http://www.w3.org/1999/xlink">
<title>generated by pstoedit</title>
<!-- generated by pstoedit version:4.02 -->
<g xml:space='preserve'>
<clipPath id="clippath1"> 	<path d="
	M 0 -72.5 
	L 0 792 
	L 648.5 792 
	L 648.5 -72.5 
	Z 
	" style="clip-rule:nonzero"/>
</clipPath>
<g style="clip-path:url(#clippath1)"> 
<g fill="#ffffff" fill-rule="nonzero" stroke-width="0" stroke-linejoin="miter" stroke-linecap="butt" stroke-miterlimit="10" >
	<path d="
	M 648.25 683.75 
	C 648.25 743.395 599.895 791.75 540.25 791.75 
	L 108.25 791.75 
	C 48.6016 791.75 0.25 743.395 0.25 683.75 
	L 0.25 35.75 
	C 0.25 -23.898 48.6016 -72.25 108.25 -72.25 
	L 540.25 -72.25 
	C 599.895 -72.25 648.25 -23.898 648.25 35.75 
	Z 
	"/>
</g>
<g stroke="#7f7f7f" fill="none" stroke-width="0.5" stroke-linejoin="miter" stroke-linecap="butt" stroke-miterlimit="4" >
	<path d="
	M 648.25 683.75 
	C 648.25 743.395 599.895 791.75 540.25 791.75 
	L 108.25 791.75 
	C 48.6016 791.75 0.25 743.395 0.25 683.75 
	L 0.25 35.75 
	C 0.25 -23.898 48.6016 -72.25 108.25 -72.25 
	L 540.25 -72.25 
	C 599.895 -72.25 648.25 -23.898 648.25 35.75 
	Z 
	"/>
</g>
<g fill="#7f7f7f" fill-rule="nonzero" stroke-width="0" stroke-linejoin="miter" stroke-linecap="butt" stroke-miterlimit="4" >
	<path d="
	M 594.25 683.75 
	C 594.25 713.523 570.023 737.75 540.25 737.75 
	L 108.25 737.75 
	C 78.4727 737.75 54.25 713.523 54.25 683.75 
	L 54.25 35.75 
	C 54.25 5.97302 78.4727 -18.25 108.25 -18.25 
	L 540.25 -18.25 
	C 570.023 -18.25 594.25 5.97302 594.25 35.75 
	Z 
	M 540.25 -45.25 
	L 108.25 -45.25 
	C 63.5859 -45.25 27.25 -8.914 27.25 35.75 
	L 27.25 683.75 
	C 27.25 728.414 63.5859 764.75 108.25 764.75 
	L 540.25 764.75 
	C 584.914 764.75 621.25 728.414 621.25 683.75 
	L 621.25 35.75 
	C 621.25 -8.914 584.914 -45.25 540.25 -45.25 
	Z 
	"/>
</g>
<g fill="#7f7f7f" fill-rule="evenodd" stroke-width="0" stroke-linejoin="miter" stroke-linecap="butt" stroke-miterlimit="4" >
	<path d="
	M 358.93 521.469 
	L 334.934 513.559 
	L 329.805 506.883 
	L 324.984 523.508 
	L 337.574 546.035 
	L 348.402 586.437 
	L 336.402 590.82 
	L 323.82 552.484 
	L 314.746 542.828 
	L 295.133 593.75 
	L 286.055 587.312 
	L 299.523 532.285 
	C 296.332 523.199 298.367 509.383 303.906 495.059 
	C 301.383 495.574 298.836 496.078 296.309 496.59 
	L 293.668 523.223 
	L 286.934 524.395 
	L 286.934 491.027 
	C 287.121 490.832 318.16 467.965 326.57 473.543 
	C 335.09 477.969 339.328 497.133 340.344 501.465 
	L 362.445 516.187 
	Z 
	M 330.551 449.75 
	C 336.352 449.75 341.074 454.504 341.074 460.297 
	C 341.074 466.09 336.352 470.836 330.551 470.836 
	C 324.75 470.836 319.996 466.09 319.996 460.297 
	C 319.996 454.504 324.75 449.75 330.551 449.75 
	Z 
	M 225.25 431.75 
	L 225.25 611.75 
	L 423.25 611.75 
	L 423.25 431.75 
	Z 
	"/>
</g>
<g fill="#7f7f7f" fill-rule="nonzero" stroke-width="0" stroke-linejoin="miter" stroke-linecap="butt" stroke-miterlimit="4" >
	<path d="
	M 525.34 269.75 
	L 525.34 121.902 
	L 492.078 121.902 
	L 492.078 74.324 
	L 481.75 72.055 
	L 481.75 59.59 
	L 493.223 55.062 
	L 493.223 48.27 
	L 525.34 48.27 
	L 525.34 26.75 
	L 540.25 26.75 
	L 540.25 269.75 
	Z 
	"/>
</g>
<g fill="#7f7f7f" fill-rule="nonzero" stroke-width="0" stroke-linejoin="miter" stroke-linecap="butt" stroke-miterlimit="4" >
	<path d="
	M 108.25 58.301 
	C 108.25 58.301 174.977 63.941 233.637 21.668 
	C 237.273 21.086 241.129 19.145 244.207 18.949 
	C 275.551 25.77 301.141 8.81598 318.242 -0.137024 
	C 333.621 -2.47699 329.98 32.187 311.523 36.871 
	C 329.777 38.824 456.695 51.285 456.695 51.285 
	C 456.695 51.285 468.633 52.84 468.238 62.195 
	C 468.004 68.043 466.703 75.055 458.441 75.055 
	L 358.238 75.055 
	C 358.238 75.055 358.047 84.398 349.973 91.617 
	C 340.352 96.68 326.52 102.516 325.934 116.734 
	C 318.242 123.941 296.32 132.316 292.48 147.52 
	C 285.547 158.621 262.285 159.98 253.637 161.75 
	C 247.098 160.574 241.129 159.695 232.867 158.828 
	C 182.668 137.789 108.25 134.656 108.25 134.656 
	Z 
	"/>
</g>
<g fill="#7f7f7f" fill-rule="nonzero" stroke-width="0" stroke-linejoin="miter" stroke-linecap="butt" stroke-miterlimit="4" >
	<path d="
	M 304.098 245.309 
	L 296.348 245.309 
	L 296.348 262.172 
	L 304.098 262.172 
	C 308.445 262.172 311.281 259.141 311.281 254.402 
	C 311.281 249.285 308.066 245.309 304.098 245.309 
	Z 
	M 304.477 223.328 
	L 296.348 223.328 
	L 296.348 237.73 
	L 304.477 237.73 
	C 308.066 237.73 310.34 234.695 310.34 229.77 
	C 310.34 225.223 308.637 223.328 304.477 223.328 
	Z 
	M 304.477 269.75 
	L 288.594 269.75 
	L 288.594 215.75 
	L 305.609 215.75 
	C 312.797 215.75 317.898 221.434 317.898 229.77 
	C 317.898 234.695 316.578 236.973 312.23 241.52 
	C 316.391 244.93 318.848 249.477 318.848 254.973 
	C 318.848 263.117 312.418 269.75 304.477 269.75 
	Z 
	"/>
</g>
<g fill="#7f7f7f" fill-rule="nonzero" stroke-width="0" stroke-linejoin="miter" stroke-linecap="butt" stroke-miterlimit="4" >
	<path d="
	M 244.84 269.75 
	L 244.84 245.309 
	L 230.094 245.309 
	L 230.094 269.75 
	L 222.34 269.75 
	L 222.34 215.75 
	L 230.094 215.75 
	L 230.094 237.73 
	L 244.84 237.73 
	L 244.84 215.75 
	L 252.594 215.75 
	L 252.594 269.75 
	Z 
	"/>
</g>
<g fill="#7f7f7f" fill-rule="nonzero" stroke-width="0" stroke-linejoin="miter" stroke-linecap="butt" stroke-miterlimit="4" >
	<path d="
	M 490.277 269.75 
	L 473.641 233.562 
	L 473.641 269.75 
	L 465.891 269.75 
	L 465.891 215.75 
	L 473.641 215.75 
	L 488.391 248.148 
	L 488.391 215.75 
	L 496.141 215.75 
	L 496.141 269.75 
	Z 
	"/>
</g>
<g fill="#7f7f7f" fill-rule="nonzero" stroke-width="0" stroke-linejoin="miter" stroke-linecap="butt" stroke-miterlimit="4" >
	<path d="
	M 448.09 229.203 
	C 446.754 224.465 444.652 222.383 441.406 222.383 
	C 437.973 222.383 435.871 224.465 434.535 229.012 
	C 433.199 233.184 432.816 236.781 432.816 242.844 
	C 432.816 248.719 433.391 252.129 434.535 256.488 
	C 435.871 261.035 437.973 263.117 441.406 263.117 
	C 444.652 263.117 446.754 261.035 448.09 256.488 
	C 449.426 252.129 449.805 248.906 449.805 242.656 
	C 449.805 236.594 449.23 233.184 448.09 229.203 
	Z 
	M 454.195 261.414 
	C 451.523 267.855 447.516 270.699 441.406 270.699 
	C 434.918 270.699 431.102 267.855 428.43 261.414 
	C 426.141 256.109 425.375 250.992 425.375 242.656 
	C 425.375 234.508 426.141 229.012 428.43 223.898 
	C 431.289 217.453 435.109 214.805 441.406 214.805 
	C 447.703 214.805 451.523 217.453 454.195 224.086 
	C 456.484 229.391 457.246 234.508 457.246 242.656 
	C 457.246 250.992 456.484 256.297 454.195 261.414 
	Z 
	"/>
</g>
<g fill="#7f7f7f" fill-rule="nonzero" stroke-width="0" stroke-linejoin="miter" stroke-linecap="butt" stroke-miterlimit="4" >
	<path d="
	M 123.945 223.328 
	L 116.004 223.328 
	L 116.004 238.676 
	L 123.945 238.676 
	C 128.48 238.676 130.941 235.836 130.941 230.906 
	C 130.941 226.359 128.105 223.328 123.945 223.328 
	Z 
	M 124.32 246.066 
	L 116.004 246.066 
	L 116.004 269.75 
	L 108.25 269.75 
	L 108.25 215.75 
	L 124.32 215.75 
	C 132.832 215.75 138.504 221.812 138.504 230.906 
	C 138.504 240.762 133.398 246.066 124.32 246.066 
	Z 
	"/>
</g>
<g fill="#7f7f7f" fill-rule="nonzero" stroke-width="0" stroke-linejoin="miter" stroke-linecap="butt" stroke-miterlimit="4" >
	<path d="
	M 200.117 244.812 
	C 197.781 243.297 195.516 241.781 194.063 240.762 
	C 189.711 237.695 187.406 233.562 187.406 228.824 
	C 187.406 221.055 193.492 214.805 201.297 214.805 
	C 208.906 214.805 214.805 220.676 214.992 228.824 
	L 207.574 228.824 
	C 207.387 225.035 204.723 222.57 201.297 222.57 
	C 197.68 222.57 194.824 225.223 194.824 228.824 
	C 194.824 231.477 195.969 232.992 199.965 235.266 
	C 210.43 241.328 214.992 247.203 214.992 254.973 
	C 214.992 263.687 208.336 270.699 199.965 270.699 
	C 190.449 270.699 184.742 262.738 184.742 253.836 
	L 192.352 253.836 
	C 192.352 258.383 194.637 263.117 199.965 263.117 
	C 204.148 263.117 207.574 259.328 207.574 254.973 
	C 207.574 251.586 206.176 248.738 200.117 244.812 
	Z 
	"/>
</g>
<g fill="#7f7f7f" fill-rule="nonzero" stroke-width="0" stroke-linejoin="miter" stroke-linecap="butt" stroke-miterlimit="4" >
	<path d="
	M 380.164 222.949 
	L 380.164 269.75 
	L 372.371 269.75 
	L 372.371 222.949 
	L 362.492 222.949 
	L 362.492 215.75 
	L 390.047 215.75 
	L 390.047 222.949 
	Z 
	"/>
</g>
<g fill="#7f7f7f" fill-rule="nonzero" stroke-width="0" stroke-linejoin="miter" stroke-linecap="butt" stroke-miterlimit="4" >
	<path d="
	M 410.313 222.949 
	L 410.313 269.75 
	L 402.52 269.75 
	L 402.52 222.949 
	L 392.637 222.949 
	L 392.637 215.75 
	L 420.191 215.75 
	L 420.191 222.949 
	Z 
	"/>
</g>
<g fill="#7f7f7f" fill-rule="nonzero" stroke-width="0" stroke-linejoin="miter" stroke-linecap="butt" stroke-miterlimit="4" >
	<path d="
	M 175.316 263.117 
	C 172.672 267.477 167.563 270.699 162.461 270.699 
	C 157.164 270.699 151.871 267.664 149.223 263.117 
	C 147.711 260.277 147.145 258.004 147.145 253.645 
	L 147.145 215.75 
	L 154.895 215.75 
	L 154.895 254.594 
	C 154.895 259.707 157.922 263.117 162.461 263.117 
	C 166.617 263.117 169.645 259.707 169.645 254.594 
	L 169.645 215.75 
	L 177.398 215.75 
	L 177.398 253.645 
	C 177.398 258.004 176.828 260.277 175.316 263.117 
	Z 
	"/>
</g>
<g fill="#7f7f7f" fill-rule="nonzero" stroke-width="0" stroke-linejoin="miter" stroke-linecap="butt" stroke-miterlimit="4" >
	<path d="
	M 354.363 263.117 
	C 351.719 267.477 346.609 270.699 341.508 270.699 
	C 336.211 270.699 330.914 267.664 328.27 263.117 
	C 326.758 260.277 326.188 258.004 326.188 253.645 
	L 326.188 215.75 
	L 333.941 215.75 
	L 333.941 254.594 
	C 333.941 259.707 336.969 263.117 341.508 263.117 
	C 345.664 263.117 348.691 259.707 348.691 254.594 
	L 348.691 215.75 
	L 356.441 215.75 
	L 356.441 253.645 
	C 356.441 258.004 355.875 260.277 354.363 263.117 
	Z 
	"/>
</g>
<g fill="#7f7f7f" fill-rule="nonzero" stroke-width="0" stroke-linejoin="miter" stroke-linecap="butt" stroke-miterlimit="4" >
	<path d="
	M 328.711 339.754 
	C 326.43 335.965 323.645 334.449 319.34 334.195 
	C 313.766 333.945 310.223 336.723 307.691 343.039 
	C 305.918 347.332 304.902 353.902 304.902 359.965 
	C 304.902 367.543 306.422 375.375 309.207 379.922 
	C 311.488 383.715 314.527 385.48 319.086 385.48 
	C 324.402 385.48 327.695 382.699 330.23 376.387 
	C 331.75 372.598 333.016 365.523 333.016 359.965 
	C 333.016 351.883 331.496 344.555 328.711 339.754 
	Z 
	M 336.559 389.02 
	C 332.508 394.574 326.684 397.102 319.086 397.102 
	C 308.957 397.102 302.625 393.059 298.32 384.219 
	C 295.281 378.152 293.254 368.555 293.254 359.965 
	C 293.254 348.09 296.293 337.48 301.105 330.66 
	C 305.41 325.102 311.234 322.574 319.594 322.574 
	C 328.711 322.574 335.039 326.617 339.598 335.461 
	C 342.637 341.773 344.41 350.871 344.41 359.965 
	C 344.41 371.336 341.625 382.699 336.559 389.02 
	Z 
	"/>
</g>
<g fill="#7f7f7f" fill-rule="nonzero" stroke-width="0" stroke-linejoin="miter" stroke-linecap="butt" stroke-miterlimit="4" >
	<path d="
	M 391.832 336.383 
	C 390.063 335.371 389.051 335.117 385.262 335.117 
	L 371.617 335.117 
	L 371.617 352.805 
	L 385.262 352.805 
	C 388.801 352.805 390.063 352.551 391.832 351.539 
	C 394.609 350.023 396.379 346.992 396.379 343.961 
	C 396.379 340.93 394.609 337.898 391.832 336.383 
	Z 
	M 396.883 395.75 
	L 385.262 364.426 
	L 371.617 364.426 
	L 371.617 395.75 
	L 360.25 395.75 
	L 360.25 323.75 
	L 384 323.75 
	C 389.559 323.75 393.348 324.254 396.883 326.023 
	C 403.199 329.055 407.746 336.633 407.746 343.961 
	C 407.746 351.539 403.199 359.117 396.633 362.148 
	L 409.266 395.75 
	Z 
	"/>
</g>
<g fill="#7f7f7f" fill-rule="nonzero" stroke-width="0" stroke-linejoin="miter" stroke-linecap="butt" stroke-miterlimit="4" >
	<path d="
	M 250.59 335.117 
	L 250.59 352.805 
	L 271.531 352.805 
	L 271.531 364.426 
	L 250.59 364.426 
	L 250.59 395.75 
	L 239.234 395.75 
	L 239.234 323.75 
	L 283.895 323.75 
	L 283.895 335.117 
	Z 
	"/>
</g>
<g fill="#7f7f7f" fill-rule="nonzero" stroke-width="0" stroke-linejoin="miter" stroke-linecap="butt" stroke-miterlimit="4" >
	<path d="
	M 484.859 634.828 
	C 484.051 634.281 483.074 633.965 482.023 633.965 
	C 479.227 633.965 476.961 636.23 476.961 639.023 
	C 476.961 639.586 477.055 640.121 477.223 640.625 
	L 482.137 656.75 
	L 108.25 656.75 
	L 108.25 683.75 
	L 482.137 683.75 
	L 477.223 699.879 
	C 477.055 700.379 476.961 700.918 476.961 701.477 
	C 476.961 704.27 479.227 706.539 482.023 706.539 
	C 483.074 706.539 484.051 706.219 484.859 705.672 
	L 540.25 670.25 
	Z 
	"/>
</g>
</g >
</g>
</svg>
