<?xml version="1.0" standalone="no"?>
<svg width="2160px" height="2592px" viewBox="0 -1800 2160 2592 " xmlns="http://www.w3.org/2000/svg" xmlns:xlink="http://www.w3.org/1999/xlink">
<title>generated by pstoedit</title>
<!-- generated by pstoedit version:4.02 -->
<g xml:space='preserve'>
<clipPath id="clippath1"> 	<path d="
	M 0 -1800.5 
	L 0 792 
	L 2160.5 792 
	L 2160.5 -1800.5 
	Z 
	" style="clip-rule:nonzero"/>
</clipPath>
<g style="clip-path:url(#clippath1)"> 
<g fill="#ffffff" fill-rule="nonzero" stroke-width="0" stroke-linejoin="miter" stroke-linecap="butt" stroke-miterlimit="10" >
	<path d="
	M 2160.25 656.75 
	C 2160.25 731.309 2099.81 791.75 2025.25 791.75 
	L 135.25 791.75 
	C 60.6914 791.75 0.25 731.309 0.25 656.75 
	L 0.25 -1665.25 
	C 0.25 -1739.81 60.6914 -1800.25 135.25 -1800.25 
	L 2025.25 -1800.25 
	C 2099.81 -1800.25 2160.25 -1739.81 2160.25 -1665.25 
	Z 
	"/>
</g>
<g stroke="#7f7f7f" fill="none" stroke-width="0.5" stroke-linejoin="miter" stroke-linecap="butt" stroke-miterlimit="4" >
	<path d="
	M 2160.25 656.75 
	C 2160.25 731.309 2099.81 791.75 2025.25 791.75 
	L 135.25 791.75 
	C 60.6914 791.75 0.25 731.309 0.25 656.75 
	L 0.25 -1665.25 
	C 0.25 -1739.81 60.6914 -1800.25 135.25 -1800.25 
	L 2025.25 -1800.25 
	C 2099.81 -1800.25 2160.25 -1739.81 2160.25 -1665.25 
	Z 
	"/>
</g>
<g fill="#7f7f7f" fill-rule="nonzero" stroke-width="0" stroke-linejoin="miter" stroke-linecap="butt" stroke-miterlimit="4" >
	<path d="
	M 135.25 755.75 
	C 80.6602 755.75 36.25 711.34 36.25 656.75 
	L 36.25 -1665.25 
	C 36.25 -1719.84 80.6602 -1764.25 135.25 -1764.25 
	L 2025.25 -1764.25 
	C 2079.84 -1764.25 2124.25 -1719.84 2124.25 -1665.25 
	L 2124.25 656.75 
	C 2124.25 711.34 2079.84 755.75 2025.25 755.75 
	Z 
	"/>
</g>
<g fill="#ffffff" fill-rule="nonzero" stroke-width="0" stroke-linejoin="miter" stroke-linecap="butt" stroke-miterlimit="4" >
	<path d="
	M 135.25 701.75 
	C 110.438 701.75 90.25 681.559 90.25 656.75 
	L 90.25 -1665.25 
	C 90.25 -1690.06 110.438 -1710.25 135.25 -1710.25 
	L 2025.25 -1710.25 
	C 2050.06 -1710.25 2070.25 -1690.06 2070.25 -1665.25 
	L 2070.25 656.75 
	C 2070.25 681.559 2050.06 701.75 2025.25 701.75 
	Z 
	"/>
</g>
<g fill="#7f7f7f" fill-rule="nonzero" stroke-width="0" stroke-linejoin="miter" stroke-linecap="butt" stroke-miterlimit="4" >
	<path d="
	M 861.219 -378.25 
	L 861.219 -519.72 
	L 814.297 -378.25 
	L 767.371 -519.72 
	L 767.371 -378.25 
	L 731.07 -378.25 
	L 731.07 -630.25 
	L 767.371 -630.25 
	L 814.297 -488.78 
	L 861.219 -630.25 
	L 897.52 -630.25 
	L 897.52 -378.25 
	Z 
	"/>
</g>
<g fill="#7f7f7f" fill-rule="nonzero" stroke-width="0" stroke-linejoin="miter" stroke-linecap="butt" stroke-miterlimit="4" >
	<path d="
	M 1208.74 -494.63 
	C 1197.84 -501.69 1187.25 -508.78 1180.49 -513.53 
	C 1160.17 -527.83 1149.41 -547.13 1149.41 -569.24 
	C 1149.41 -605.49 1177.83 -634.67 1214.23 -634.67 
	C 1249.75 -634.67 1277.28 -607.26 1278.16 -569.24 
	L 1243.54 -569.24 
	C 1242.65 -586.92 1230.21 -598.42 1214.23 -598.42 
	C 1197.36 -598.42 1184.04 -586.04 1184.04 -569.24 
	C 1184.04 -556.86 1189.37 -549.79 1208.02 -539.18 
	C 1256.85 -510.88 1278.16 -483.47 1278.16 -447.22 
	C 1278.16 -406.54 1247.09 -373.83 1208.02 -373.83 
	C 1163.62 -373.83 1136.98 -410.96 1136.98 -452.52 
	L 1172.5 -452.52 
	C 1172.5 -431.3 1183.16 -409.2 1208.02 -409.2 
	C 1227.55 -409.2 1243.54 -426.88 1243.54 -447.22 
	C 1243.54 -463.01 1237.01 -476.31 1208.74 -494.63 
	Z 
	"/>
</g>
<g fill="#7f7f7f" fill-rule="nonzero" stroke-width="0" stroke-linejoin="miter" stroke-linecap="butt" stroke-miterlimit="4" >
	<path d="
	M 1383.31 -596.65 
	L 1383.31 -378.25 
	L 1346.96 -378.25 
	L 1346.96 -596.65 
	L 1300.84 -596.65 
	L 1300.84 -630.25 
	L 1429.43 -630.25 
	L 1429.43 -596.65 
	Z 
	"/>
</g>
<g fill="#7f7f7f" fill-rule="nonzero" stroke-width="0" stroke-linejoin="miter" stroke-linecap="butt" stroke-miterlimit="4" >
	<path d="
	M 1084.44 -409.2 
	C 1072.08 -388.86 1048.26 -373.83 1024.43 -373.83 
	C 999.727 -373.83 975.02 -387.97 962.664 -409.2 
	C 955.605 -422.46 952.957 -433.07 952.957 -453.41 
	L 952.957 -630.25 
	L 989.137 -630.25 
	L 989.137 -448.99 
	C 989.137 -425.11 1003.25 -409.2 1024.43 -409.2 
	C 1043.85 -409.2 1057.96 -425.11 1057.96 -448.99 
	L 1057.96 -630.25 
	L 1094.14 -630.25 
	L 1094.14 -453.41 
	C 1094.14 -433.07 1091.5 -422.46 1084.44 -409.2 
	Z 
	"/>
</g>
<g fill="#7f7f7f" fill-rule="nonzero" stroke-width="0" stroke-linejoin="miter" stroke-linecap="butt" stroke-miterlimit="4" >
	<path d="
	M 1171.52 -119.238 
	C 1165.34 -136.922 1154.75 -144.879 1138.87 -144.879 
	L 1108.87 -144.879 
	L 1108.87 36.379 
	L 1138.87 36.379 
	C 1160.05 36.379 1171.52 19.578 1175.05 0.129028 
	C 1176.81 -15.789 1178.58 -33.469 1178.58 -52.922 
	C 1178.58 -81.219 1175.93 -108.629 1171.52 -119.238 
	Z 
	M 1177.7 60.262 
	C 1168.87 68.211 1156.52 71.75 1142.4 71.75 
	L 1072.69 71.75 
	L 1072.69 -180.25 
	L 1137.11 -180.25 
	C 1158.28 -180.25 1168.87 -177.602 1177.7 -170.52 
	C 1192.7 -159.91 1203.29 -140.461 1207.7 -114.82 
	C 1211.23 -96.25 1213.88 -74.141 1213.88 -54.691 
	C 1213.88 3.672 1202.4 40.801 1177.7 60.262 
	Z 
	"/>
</g>
<g fill="#7f7f7f" fill-rule="nonzero" stroke-width="0" stroke-linejoin="miter" stroke-linecap="butt" stroke-miterlimit="4" >
	<path d="
	M 737.402 71.75 
	L 737.402 -180.25 
	L 856.23 -180.25 
	L 856.23 -144.879 
	L 773.762 -144.879 
	L 773.762 -81.219 
	L 826.082 -81.219 
	L 826.082 -46.73 
	L 773.762 -46.73 
	L 773.762 36.379 
	L 865.984 36.379 
	L 865.984 71.75 
	Z 
	"/>
</g>
<g fill="#7f7f7f" fill-rule="nonzero" stroke-width="0" stroke-linejoin="miter" stroke-linecap="butt" stroke-miterlimit="4" >
	<path d="
	M 646.684 71.75 
	L 646.684 -180.25 
	L 681.965 -180.25 
	L 681.965 71.75 
	Z 
	"/>
</g>
<g fill="#7f7f7f" fill-rule="nonzero" stroke-width="0" stroke-linejoin="miter" stroke-linecap="butt" stroke-miterlimit="4" >
	<path d="
	M 908.828 71.75 
	L 908.828 -180.25 
	L 945.188 -180.25 
	L 945.188 38.148 
	L 1037.41 38.148 
	L 1037.41 71.75 
	Z 
	"/>
</g>
<g fill="#7f7f7f" fill-rule="nonzero" stroke-width="0" stroke-linejoin="miter" stroke-linecap="butt" stroke-miterlimit="4" >
	<path d="
	M 1667.69 -117.469 
	C 1661.45 -139.578 1651.66 -149.301 1636.51 -149.301 
	C 1620.48 -149.301 1610.69 -139.578 1604.45 -118.359 
	C 1598.21 -98.898 1596.43 -82.102 1596.43 -53.809 
	C 1596.43 -26.398 1599.11 -10.48 1604.45 9.85901 
	C 1610.69 31.078 1620.48 40.801 1636.51 40.801 
	C 1651.66 40.801 1661.45 31.078 1667.69 9.85901 
	C 1673.92 -10.48 1675.7 -25.512 1675.7 -54.691 
	C 1675.7 -82.988 1673.03 -98.898 1667.69 -117.469 
	Z 
	M 1696.19 32.852 
	C 1683.72 62.91 1665.02 76.172 1636.51 76.172 
	C 1606.23 76.172 1588.42 62.91 1575.95 32.852 
	C 1565.26 8.09003 1561.7 -15.789 1561.7 -54.691 
	C 1561.7 -92.711 1565.26 -118.359 1575.95 -142.23 
	C 1589.31 -172.289 1607.12 -184.672 1636.51 -184.672 
	C 1665.91 -184.672 1683.72 -172.289 1696.19 -141.34 
	C 1706.88 -116.59 1710.44 -92.711 1710.44 -54.691 
	C 1710.44 -15.789 1706.88 8.96899 1696.19 32.852 
	Z 
	"/>
</g>
<g fill="#7f7f7f" fill-rule="nonzero" stroke-width="0" stroke-linejoin="miter" stroke-linecap="butt" stroke-miterlimit="4" >
	<path d="
	M 1485.34 -146.648 
	L 1485.34 71.75 
	L 1448.99 71.75 
	L 1448.99 -146.648 
	L 1402.88 -146.648 
	L 1402.88 -180.25 
	L 1531.46 -180.25 
	L 1531.46 -146.648 
	Z 
	"/>
</g>
<g fill="#7f7f7f" fill-rule="nonzero" stroke-width="0" stroke-linejoin="miter" stroke-linecap="butt" stroke-miterlimit="4" >
	<path d="
	M 548.465 -42.309 
	L 548.465 71.75 
	L 512.117 71.75 
	L 512.117 -42.309 
	L 450.063 -180.25 
	L 488.18 -180.25 
	L 530.734 -89.18 
	L 572.398 -180.25 
	L 611.402 -180.25 
	Z 
	"/>
</g>
<g fill="#7f7f7f" fill-rule="nonzero" stroke-width="0" stroke-linejoin="miter" stroke-linecap="butt" stroke-miterlimit="4" >
	<path d="
	M 663.52 -1309.2 
	C 653.754 -1287.09 633.328 -1273.83 607.578 -1273.83 
	C 577.391 -1273.83 555.191 -1288.86 542.762 -1317.16 
	C 534.77 -1335.72 529.441 -1371.09 529.441 -1403.81 
	C 529.441 -1439.18 532.105 -1464.82 540.984 -1488.69 
	C 549.863 -1515.22 575.613 -1534.67 604.918 -1534.67 
	C 641.32 -1534.67 668.848 -1508.14 670.621 -1471.01 
	L 634.219 -1471.01 
	C 633.328 -1487.81 621.785 -1499.3 604.027 -1499.3 
	C 591.598 -1499.3 581.828 -1493.11 575.613 -1480.73 
	C 568.512 -1468.36 564.07 -1440.06 564.07 -1410 
	C 564.07 -1388.77 565.848 -1366.67 569.398 -1347.22 
	C 574.727 -1322.46 587.156 -1309.2 606.691 -1309.2 
	C 625.34 -1309.2 634.219 -1321.57 634.219 -1348.1 
	L 634.219 -1364.9 
	L 605.805 -1364.9 
	L 605.805 -1400.27 
	L 670.621 -1400.27 
	L 670.621 -1348.1 
	C 670.621 -1330.42 668.848 -1319.81 663.52 -1309.2 
	Z 
	"/>
</g>
<g fill="#7f7f7f" fill-rule="nonzero" stroke-width="0" stroke-linejoin="miter" stroke-linecap="butt" stroke-miterlimit="4" >
	<path d="
	M 826.027 -1278.25 
	L 826.027 -1392.31 
	L 757.203 -1392.31 
	L 757.203 -1278.25 
	L 721.023 -1278.25 
	L 721.023 -1530.25 
	L 757.203 -1530.25 
	L 757.203 -1427.68 
	L 826.027 -1427.68 
	L 826.027 -1530.25 
	L 862.207 -1530.25 
	L 862.207 -1278.25 
	Z 
	"/>
</g>
<g fill="#7f7f7f" fill-rule="nonzero" stroke-width="0" stroke-linejoin="miter" stroke-linecap="butt" stroke-miterlimit="4" >
	<path d="
	M 443.762 -1278.25 
	L 443.762 -1530.25 
	L 479.039 -1530.25 
	L 479.039 -1278.25 
	Z 
	"/>
</g>
<g fill="#7f7f7f" fill-rule="nonzero" stroke-width="0" stroke-linejoin="miter" stroke-linecap="butt" stroke-miterlimit="4" >
	<path d="
	M 1873.41 -1278.25 
	L 1795.76 -1447.13 
	L 1795.76 -1278.25 
	L 1759.58 -1278.25 
	L 1759.58 -1530.25 
	L 1795.76 -1530.25 
	L 1864.58 -1379.05 
	L 1864.58 -1530.25 
	L 1900.76 -1530.25 
	L 1900.76 -1278.25 
	Z 
	"/>
</g>
<g fill="#7f7f7f" fill-rule="nonzero" stroke-width="0" stroke-linejoin="miter" stroke-linecap="butt" stroke-miterlimit="4" >
	<path d="
	M 332.977 -1494.88 
	L 295.914 -1494.88 
	L 295.914 -1431.22 
	L 332.977 -1431.22 
	C 354.152 -1431.22 365.625 -1442.71 365.625 -1463.05 
	C 365.625 -1482.5 352.391 -1494.88 332.977 -1494.88 
	Z 
	M 363.859 -1278.25 
	L 330.328 -1396.73 
	L 295.914 -1396.73 
	L 295.914 -1278.25 
	L 259.738 -1278.25 
	L 259.738 -1530.25 
	L 334.738 -1530.25 
	C 374.449 -1530.25 400.922 -1503.72 400.922 -1463.05 
	C 400.922 -1432.98 388.566 -1410.88 364.742 -1402.04 
	L 400.922 -1278.25 
	Z 
	"/>
</g>
<g fill="#7f7f7f" fill-rule="nonzero" stroke-width="0" stroke-linejoin="miter" stroke-linecap="butt" stroke-miterlimit="4" >
	<path d="
	M 1648.79 -1494.88 
	L 1611.73 -1494.88 
	L 1611.73 -1431.22 
	L 1648.79 -1431.22 
	C 1669.97 -1431.22 1681.44 -1442.71 1681.44 -1463.05 
	C 1681.44 -1482.5 1668.21 -1494.88 1648.79 -1494.88 
	Z 
	M 1679.68 -1278.25 
	L 1646.15 -1396.73 
	L 1611.73 -1396.73 
	L 1611.73 -1278.25 
	L 1575.56 -1278.25 
	L 1575.56 -1530.25 
	L 1650.56 -1530.25 
	C 1690.27 -1530.25 1716.74 -1503.72 1716.74 -1463.05 
	C 1716.74 -1432.99 1704.39 -1410.88 1680.56 -1402.04 
	L 1716.74 -1278.25 
	Z 
	"/>
</g>
<g fill="#7f7f7f" fill-rule="nonzero" stroke-width="0" stroke-linejoin="miter" stroke-linecap="butt" stroke-miterlimit="4" >
	<path d="
	M 979.953 -1496.65 
	L 979.953 -1278.25 
	L 943.598 -1278.25 
	L 943.598 -1496.65 
	L 897.484 -1496.65 
	L 897.484 -1530.25 
	L 1026.07 -1530.25 
	L 1026.07 -1496.65 
	Z 
	"/>
</g>
<g fill="#7f7f7f" fill-rule="nonzero" stroke-width="0" stroke-linejoin="miter" stroke-linecap="butt" stroke-miterlimit="4" >
	<path d="
	M 1297.54 -1496.65 
	L 1297.54 -1278.25 
	L 1261.18 -1278.25 
	L 1261.18 -1496.65 
	L 1215.07 -1496.65 
	L 1215.07 -1530.25 
	L 1343.65 -1530.25 
	L 1343.65 -1496.65 
	Z 
	"/>
</g>
<g fill="#7f7f7f" fill-rule="nonzero" stroke-width="0" stroke-linejoin="miter" stroke-linecap="butt" stroke-miterlimit="4" >
	<path d="
	M 1510.41 -1309.2 
	C 1498.05 -1288.86 1474.23 -1273.83 1450.41 -1273.83 
	C 1425.7 -1273.83 1400.99 -1287.98 1388.64 -1309.2 
	C 1381.58 -1322.46 1378.93 -1333.07 1378.93 -1353.41 
	L 1378.93 -1530.25 
	L 1415.11 -1530.25 
	L 1415.11 -1348.98 
	C 1415.11 -1325.11 1429.23 -1309.2 1450.41 -1309.2 
	C 1469.82 -1309.2 1483.94 -1325.11 1483.94 -1348.98 
	L 1483.94 -1530.25 
	L 1520.12 -1530.25 
	L 1520.12 -1353.41 
	C 1520.12 -1333.07 1517.47 -1322.46 1510.41 -1309.2 
	Z 
	"/>
</g>
<g fill="#7f7f7f" fill-rule="nonzero" stroke-width="0" stroke-linejoin="miter" stroke-linecap="butt" stroke-miterlimit="4" >
	<path d="
	M 1550.87 -1019.24 
	C 1544.7 -1036.93 1534.11 -1044.88 1518.22 -1044.88 
	L 1488.22 -1044.88 
	L 1488.22 -863.62 
	L 1518.22 -863.62 
	C 1539.4 -863.62 1550.87 -880.42 1554.4 -899.87 
	C 1556.17 -915.79 1557.93 -933.47 1557.93 -952.92 
	C 1557.93 -981.22 1555.29 -1008.63 1550.87 -1019.24 
	Z 
	M 1557.05 -839.74 
	C 1548.23 -831.79 1535.88 -828.25 1521.76 -828.25 
	L 1452.04 -828.25 
	L 1452.04 -1080.25 
	L 1516.46 -1080.25 
	C 1537.64 -1080.25 1548.23 -1077.6 1557.05 -1070.52 
	C 1572.05 -1059.91 1582.64 -1040.46 1587.05 -1014.82 
	C 1590.58 -996.25 1593.23 -974.14 1593.23 -954.69 
	C 1593.23 -896.33 1581.76 -859.2 1557.05 -839.74 
	Z 
	"/>
</g>
<g fill="#7f7f7f" fill-rule="nonzero" stroke-width="0" stroke-linejoin="miter" stroke-linecap="butt" stroke-miterlimit="4" >
	<path d="
	M 1280.62 -828.25 
	L 1280.62 -1080.25 
	L 1399.45 -1080.25 
	L 1399.45 -1044.88 
	L 1316.98 -1044.88 
	L 1316.98 -981.22 
	L 1369.3 -981.22 
	L 1369.3 -946.73 
	L 1316.98 -946.73 
	L 1316.98 -863.62 
	L 1409.21 -863.62 
	L 1409.21 -828.25 
	Z 
	"/>
</g>
<g fill="#7f7f7f" fill-rule="nonzero" stroke-width="0" stroke-linejoin="miter" stroke-linecap="butt" stroke-miterlimit="4" >
	<path d="
	M 880.242 -828.25 
	L 802.594 -997.13 
	L 802.594 -828.25 
	L 766.414 -828.25 
	L 766.414 -1080.25 
	L 802.594 -1080.25 
	L 871.418 -929.05 
	L 871.418 -1080.25 
	L 907.598 -1080.25 
	L 907.598 -828.25 
	Z 
	"/>
</g>
<g fill="#7f7f7f" fill-rule="nonzero" stroke-width="0" stroke-linejoin="miter" stroke-linecap="butt" stroke-miterlimit="4" >
	<path d="
	M 673.262 -1017.47 
	C 667.027 -1039.57 657.23 -1049.3 642.09 -1049.3 
	C 626.055 -1049.3 616.258 -1039.57 610.023 -1018.36 
	C 603.789 -998.9 602.008 -982.1 602.008 -953.81 
	C 602.008 -926.39 604.68 -910.48 610.023 -890.14 
	C 616.258 -868.92 626.055 -859.2 642.09 -859.2 
	C 657.23 -859.2 667.027 -868.92 673.262 -890.14 
	C 679.496 -910.48 681.277 -925.51 681.277 -954.69 
	C 681.277 -982.98 678.605 -998.9 673.262 -1017.47 
	Z 
	M 701.762 -867.16 
	C 689.293 -837.09 670.59 -823.83 642.09 -823.83 
	C 611.805 -823.83 593.992 -837.09 581.523 -867.16 
	C 570.836 -891.91 567.27 -915.79 567.27 -954.69 
	C 567.27 -992.71 570.836 -1018.36 581.523 -1042.23 
	C 594.883 -1072.29 612.695 -1084.67 642.09 -1084.67 
	C 671.48 -1084.67 689.293 -1072.29 701.762 -1041.34 
	C 712.453 -1016.59 716.016 -992.71 716.016 -954.69 
	C 716.016 -915.79 712.453 -891.03 701.762 -867.16 
	Z 
	"/>
</g>
<g fill="#7f7f7f" fill-rule="nonzero" stroke-width="0" stroke-linejoin="miter" stroke-linecap="butt" stroke-miterlimit="4" >
	<path d="
	M 1169.84 -1044.88 
	L 1132.78 -1044.88 
	L 1132.78 -981.22 
	L 1169.84 -981.22 
	C 1191.02 -981.22 1202.49 -992.71 1202.49 -1013.05 
	C 1202.49 -1032.5 1189.25 -1044.88 1169.84 -1044.88 
	Z 
	M 1200.72 -828.25 
	L 1167.19 -946.73 
	L 1132.78 -946.73 
	L 1132.78 -828.25 
	L 1096.6 -828.25 
	L 1096.6 -1080.25 
	L 1171.6 -1080.25 
	C 1211.31 -1080.25 1237.78 -1053.72 1237.78 -1013.05 
	C 1237.78 -982.99 1225.43 -960.88 1201.6 -952.04 
	L 1237.78 -828.25 
	Z 
	"/>
</g>
<g fill="#7f7f7f" fill-rule="nonzero" stroke-width="0" stroke-linejoin="miter" stroke-linecap="butt" stroke-miterlimit="4" >
	<path d="
	M 1576.02 521.75 
	L 1498.37 352.871 
	L 1498.37 521.75 
	L 1462.19 521.75 
	L 1462.19 269.75 
	L 1498.37 269.75 
	L 1567.19 420.949 
	L 1567.19 269.75 
	L 1603.37 269.75 
	L 1603.37 521.75 
	Z 
	"/>
</g>
<g fill="#7f7f7f" fill-rule="nonzero" stroke-width="0" stroke-linejoin="miter" stroke-linecap="butt" stroke-miterlimit="4" >
	<path d="
	M 1351.4 305.121 
	L 1314.34 305.121 
	L 1314.34 368.781 
	L 1351.4 368.781 
	C 1372.58 368.781 1384.05 357.289 1384.05 336.949 
	C 1384.05 317.5 1370.82 305.121 1351.4 305.121 
	Z 
	M 1382.29 521.75 
	L 1348.76 403.27 
	L 1314.34 403.27 
	L 1314.34 521.75 
	L 1278.17 521.75 
	L 1278.17 269.75 
	L 1353.17 269.75 
	C 1392.88 269.75 1419.35 296.281 1419.35 336.949 
	C 1419.35 367.012 1407 389.121 1383.17 397.961 
	L 1419.35 521.75 
	Z 
	"/>
</g>
<g fill="#7f7f7f" fill-rule="nonzero" stroke-width="0" stroke-linejoin="miter" stroke-linecap="butt" stroke-miterlimit="4" >
	<path d="
	M 1000.15 303.352 
	L 1000.15 521.75 
	L 963.789 521.75 
	L 963.789 303.352 
	L 917.676 303.352 
	L 917.676 269.75 
	L 1046.26 269.75 
	L 1046.26 303.352 
	Z 
	"/>
</g>
<g fill="#7f7f7f" fill-rule="nonzero" stroke-width="0" stroke-linejoin="miter" stroke-linecap="butt" stroke-miterlimit="4" >
	<path d="
	M 1213.02 490.801 
	C 1200.67 511.141 1176.84 526.172 1153.02 526.172 
	C 1128.31 526.172 1103.6 512.031 1091.25 490.801 
	C 1084.19 477.539 1081.54 466.93 1081.54 446.59 
	L 1081.54 269.75 
	L 1117.72 269.75 
	L 1117.72 451.02 
	C 1117.72 474.891 1131.84 490.801 1153.02 490.801 
	C 1172.43 490.801 1186.55 474.891 1186.55 451.02 
	L 1186.55 269.75 
	L 1222.73 269.75 
	L 1222.73 446.59 
	C 1222.73 466.93 1220.08 477.539 1213.02 490.801 
	Z 
	"/>
</g>
<g fill="#7f7f7f" fill-rule="nonzero" stroke-width="0" stroke-linejoin="miter" stroke-linecap="butt" stroke-miterlimit="4" >
	<path d="
	M 717.184 483.73 
	C 703.918 508.488 673.852 526.172 642.902 526.172 
	C 611.953 526.172 581.887 508.488 568.625 483.73 
	C 561.551 468.699 557.129 451.012 557.129 431.559 
	L 557.129 269.75 
	L 596.922 269.75 
	L 596.922 431.559 
	C 596.922 464.281 615.488 485.5 642.902 485.5 
	C 670.316 485.5 688.887 464.281 688.887 431.559 
	L 688.887 269.75 
	L 728.676 269.75 
	L 728.676 431.559 
	C 728.676 451.012 724.258 468.699 717.184 483.73 
	Z 
	"/>
</g>
</g >
</g>
</svg>
