<?xml version="1.0" standalone="no"?>
<svg width="865px" height="1297px" viewBox="0 -505 865 1297 " xmlns="http://www.w3.org/2000/svg" xmlns:xlink="http://www.w3.org/1999/xlink">
<title>generated by pstoedit</title>
<!-- generated by pstoedit version:4.02 -->
<g xml:space='preserve'>
<clipPath id="clippath1"> 	<path d="
	M 0 -505 
	L 0 792 
	L 865 792 
	L 865 -505 
	Z 
	" style="clip-rule:nonzero"/>
</clipPath>
<g style="clip-path:url(#clippath1)"> 
<g fill="#ffffff" fill-rule="nonzero" stroke-width="0" stroke-linejoin="miter" stroke-linecap="butt" stroke-miterlimit="10" >
	<path d="
	M 864.5 683.5 
	C 864.5 743.148 816.145 791.5 756.5 791.5 
	L 108.5 791.5 
	C 48.8516 791.5 0.5 743.148 0.5 683.5 
	L 0.5 -396.5 
	C 0.5 -456.14 48.8516 -504.5 108.5 -504.5 
	L 756.5 -504.5 
	C 816.145 -504.5 864.5 -456.14 864.5 -396.5 
	Z 
	"/>
</g>
<g stroke="#7f7f7f" fill="none" stroke-width="1" stroke-linejoin="miter" stroke-linecap="butt" stroke-miterlimit="4" >
	<path d="
	M 864.5 683.5 
	C 864.5 743.148 816.145 791.5 756.5 791.5 
	L 108.5 791.5 
	C 48.8516 791.5 0.5 743.148 0.5 683.5 
	L 0.5 -396.5 
	C 0.5 -456.14 48.8516 -504.5 108.5 -504.5 
	L 756.5 -504.5 
	C 816.145 -504.5 864.5 -456.14 864.5 -396.5 
	Z 
	"/>
</g>
<g fill="#7f7f7f" fill-rule="nonzero" stroke-width="0" stroke-linejoin="miter" stroke-linecap="butt" stroke-miterlimit="4" >
	<path d="
	M 108.5 764.5 
	C 63.8359 764.5 27.5 728.16 27.5 683.5 
	L 27.5 -396.5 
	C 27.5 -441.16 63.8359 -477.5 108.5 -477.5 
	L 756.5 -477.5 
	C 801.164 -477.5 837.5 -441.16 837.5 -396.5 
	L 837.5 683.5 
	C 837.5 728.16 801.164 764.5 756.5 764.5 
	Z 
	"/>
</g>
<g fill="#ffffff" fill-rule="nonzero" stroke-width="0" stroke-linejoin="miter" stroke-linecap="butt" stroke-miterlimit="4" >
	<path d="
	M 108.5 737.5 
	C 78.7227 737.5 54.5 713.281 54.5 683.5 
	L 54.5 -396.5 
	C 54.5 -426.28 78.7227 -450.5 108.5 -450.5 
	L 756.5 -450.5 
	C 786.273 -450.5 810.5 -426.28 810.5 -396.5 
	L 810.5 683.5 
	C 810.5 713.281 786.273 737.5 756.5 737.5 
	Z 
	"/>
</g>
<g fill="#96c87f" fill-rule="nonzero" stroke-width="0" stroke-linejoin="miter" stroke-linecap="butt" stroke-miterlimit="4" >
	<path d="
	M 540.5 575.5 
	C 540.5 635.148 492.145 683.5 432.5 683.5 
	C 372.852 683.5 324.5 635.148 324.5 575.5 
	C 324.5 515.852 372.852 467.5 432.5 467.5 
	C 492.145 467.5 540.5 515.852 540.5 575.5 
	Z 
	"/>
</g>
<g fill="#7f7f7f" fill-rule="nonzero" stroke-width="0" stroke-linejoin="miter" stroke-linecap="butt" stroke-miterlimit="4" >
	<path d="
	M 528.301 197.5 
	L 473.223 99.984 
	L 473.223 197.5 
	L 450.48 197.5 
	L 450.48 53.5 
	L 473.223 53.5 
	L 525.77 145.461 
	L 525.77 53.5 
	L 548.512 53.5 
	L 548.512 197.5 
	Z 
	"/>
</g>
<g fill="#7f7f7f" fill-rule="nonzero" stroke-width="0" stroke-linejoin="miter" stroke-linecap="butt" stroke-miterlimit="4" >
	<path d="
	M 387.398 85.508 
	C 382.84 77.93 377.27 74.898 368.66 74.395 
	C 357.516 73.887 350.426 79.445 345.359 92.074 
	C 341.813 100.668 339.789 113.805 339.789 125.93 
	C 339.789 141.09 342.828 156.75 348.398 165.848 
	C 352.957 173.426 359.035 176.961 368.152 176.961 
	C 378.789 176.961 385.371 171.402 390.438 158.77 
	C 393.477 151.191 396.012 137.047 396.012 125.93 
	C 396.012 109.762 392.973 95.109 387.398 85.508 
	Z 
	M 403.102 184.035 
	C 394.996 195.148 383.348 200.203 368.152 200.203 
	C 347.895 200.203 335.23 192.117 326.617 174.437 
	C 320.543 162.309 316.488 143.109 316.488 125.93 
	C 316.488 102.184 322.566 80.961 332.191 67.32 
	C 340.801 56.203 352.449 51.152 369.164 51.152 
	C 387.398 51.152 400.063 59.234 409.18 76.922 
	C 415.258 89.551 418.801 107.738 418.801 125.93 
	C 418.801 148.668 413.23 171.402 403.102 184.035 
	Z 
	"/>
</g>
<g fill="#7f7f7f" fill-rule="nonzero" stroke-width="0" stroke-linejoin="miter" stroke-linecap="butt" stroke-miterlimit="4" >
	<path d="
	M 400.082 -18.5 
	L 345.004 -116.016 
	L 345.004 -18.5 
	L 322.266 -18.5 
	L 322.266 -162.5 
	L 345.004 -162.5 
	L 397.555 -70.539 
	L 397.555 -162.5 
	L 420.293 -162.5 
	L 420.293 -18.5 
	Z 
	"/>
</g>
<g fill="#7f7f7f" fill-rule="nonzero" stroke-width="0" stroke-linejoin="miter" stroke-linecap="butt" stroke-miterlimit="4" >
	<path d="
	M 259.184 -130.492 
	C 254.625 -138.07 249.055 -141.102 240.445 -141.605 
	C 229.301 -142.113 222.211 -136.555 217.145 -123.922 
	C 213.602 -115.332 211.574 -102.195 211.574 -90.07 
	C 211.574 -74.91 214.613 -59.25 220.184 -50.152 
	C 224.742 -42.574 230.82 -39.039 239.938 -39.039 
	C 250.574 -39.039 257.156 -44.598 262.223 -57.227 
	C 265.262 -64.809 267.797 -78.953 267.797 -90.07 
	C 267.797 -106.238 264.758 -120.891 259.184 -130.492 
	Z 
	M 274.887 -31.965 
	C 266.781 -20.848 255.133 -15.797 239.938 -15.797 
	C 219.68 -15.797 207.016 -23.883 198.402 -41.563 
	C 192.328 -53.691 188.273 -72.891 188.273 -90.07 
	C 188.273 -113.816 194.352 -135.039 203.977 -148.68 
	C 212.586 -159.797 224.234 -164.848 240.949 -164.848 
	C 259.184 -164.848 271.848 -156.766 280.965 -139.078 
	C 287.039 -126.449 290.586 -108.258 290.586 -90.07 
	C 290.586 -67.332 285.016 -44.598 274.887 -31.965 
	Z 
	"/>
</g>
<g fill="#7f7f7f" fill-rule="nonzero" stroke-width="0" stroke-linejoin="miter" stroke-linecap="butt" stroke-miterlimit="4" >
	<path d="
	M 454.855 -18.5 
	L 454.855 -162.5 
	L 477.563 -162.5 
	L 477.563 -39.719 
	L 544.172 -39.719 
	L 544.172 -18.5 
	Z 
	"/>
</g>
<g fill="#7f7f7f" fill-rule="nonzero" stroke-width="0" stroke-linejoin="miter" stroke-linecap="butt" stroke-miterlimit="4" >
	<path d="
	M 626.445 -81.152 
	L 626.445 -18.5 
	L 603.598 -18.5 
	L 603.598 -81.152 
	L 552.813 -162.5 
	L 580.234 -162.5 
	L 614.77 -106.922 
	L 649.809 -162.5 
	L 676.727 -162.5 
	Z 
	"/>
</g>
<g fill="#7f7f7f" fill-rule="nonzero" stroke-width="0" stroke-linejoin="miter" stroke-linecap="butt" stroke-miterlimit="4" >
	<path d="
	M 460.895 -346.49 
	C 456.336 -354.07 450.766 -357.1 442.152 -357.61 
	C 431.012 -358.11 423.922 -352.55 418.855 -339.92 
	C 415.309 -331.33 413.285 -318.2 413.285 -306.07 
	C 413.285 -290.91 416.32 -275.25 421.895 -266.16 
	C 426.453 -258.57 432.527 -255.04 441.645 -255.04 
	C 452.281 -255.04 458.867 -260.6 463.934 -273.23 
	C 466.973 -280.81 469.504 -294.95 469.504 -306.07 
	C 469.504 -322.24 466.465 -336.89 460.895 -346.49 
	Z 
	M 476.598 -247.96 
	C 468.488 -236.85 456.844 -231.8 441.645 -231.8 
	C 421.387 -231.8 408.727 -239.88 400.113 -257.57 
	C 394.035 -269.69 389.984 -288.89 389.984 -306.07 
	C 389.984 -329.82 396.063 -351.04 405.688 -364.68 
	C 414.297 -375.8 425.945 -380.85 442.66 -380.85 
	C 460.895 -380.85 473.559 -372.77 482.676 -355.08 
	C 488.75 -342.45 492.297 -324.26 492.297 -306.07 
	C 492.297 -283.33 486.727 -260.6 476.598 -247.96 
	Z 
	"/>
</g>
<g fill="#7f7f7f" fill-rule="nonzero" stroke-width="0" stroke-linejoin="miter" stroke-linecap="butt" stroke-miterlimit="4" >
	<path d="
	M 333.52 -353.23 
	C 329.98 -355.26 327.961 -355.76 320.383 -355.76 
	L 293.094 -355.76 
	L 293.094 -320.39 
	L 320.383 -320.39 
	C 327.453 -320.39 329.98 -320.9 333.52 -322.92 
	C 339.078 -325.95 342.613 -332.02 342.613 -338.08 
	C 342.613 -344.14 339.078 -350.2 333.52 -353.23 
	Z 
	M 343.625 -234.5 
	L 320.383 -297.15 
	L 293.094 -297.15 
	L 293.094 -234.5 
	L 270.355 -234.5 
	L 270.355 -378.5 
	L 317.855 -378.5 
	C 328.973 -378.5 336.551 -377.49 343.625 -373.95 
	C 356.258 -367.89 365.352 -352.73 365.352 -338.08 
	C 365.352 -322.92 356.258 -307.76 343.117 -301.7 
	L 368.387 -234.5 
	Z 
	"/>
</g>
<g fill="#7f7f7f" fill-rule="nonzero" stroke-width="0" stroke-linejoin="miter" stroke-linecap="butt" stroke-miterlimit="4" >
	<path d="
	M 597.773 -243.27 
	C 589.691 -236.19 578.574 -232.15 566.445 -232.15 
	C 541.688 -232.15 523.496 -246.8 513.895 -268.53 
	L 535.625 -276.61 
	C 541.688 -262.97 552.805 -255.39 566.445 -255.39 
	C 579.586 -255.39 588.68 -264.49 588.68 -276.61 
	C 588.68 -295.81 566.445 -298.84 547.75 -306.42 
	C 539.16 -309.96 519.961 -318.55 519.961 -342.3 
	C 519.961 -370.59 539.16 -381.2 564.934 -381.2 
	C 585.145 -381.2 598.785 -369.58 605.859 -351.9 
	L 585.648 -345.83 
	C 585.648 -345.83 580.598 -357.96 564.426 -358.46 
	C 553.813 -358.97 541.184 -354.93 542.191 -341.79 
	C 544.215 -315.01 611.926 -332.7 611.926 -276.11 
	C 611.926 -262.97 606.871 -251.35 597.773 -243.27 
	Z 
	"/>
</g>
<g fill="#7f7f7f" fill-rule="nonzero" stroke-width="0" stroke-linejoin="miter" stroke-linecap="butt" stroke-miterlimit="4" >
	<path d="
	M 710.203 -243.27 
	C 702.117 -236.19 691.004 -232.15 678.875 -232.15 
	C 654.113 -232.15 635.926 -246.8 626.324 -268.53 
	L 648.055 -276.61 
	C 654.113 -262.97 665.23 -255.39 678.875 -255.39 
	C 692.016 -255.39 701.105 -264.49 701.105 -276.61 
	C 701.105 -295.81 678.875 -298.84 660.18 -306.42 
	C 651.59 -309.96 632.391 -318.55 632.391 -342.3 
	C 632.391 -370.59 651.59 -381.2 677.359 -381.2 
	C 697.57 -381.2 711.215 -369.58 718.285 -351.9 
	L 698.074 -345.83 
	C 698.074 -345.83 693.023 -357.96 676.855 -358.46 
	C 666.242 -358.97 653.609 -354.93 654.621 -341.79 
	C 656.645 -315.01 724.352 -332.7 724.352 -276.11 
	C 724.352 -262.97 719.301 -251.35 710.203 -243.27 
	Z 
	"/>
</g>
<g fill="#7f7f7f" fill-rule="nonzero" stroke-width="0" stroke-linejoin="miter" stroke-linecap="butt" stroke-miterlimit="4" >
	<path d="
	M 195.223 -231.97 
	C 173.996 -231.97 160.355 -240.06 151.262 -257.74 
	C 144.691 -270.38 140.648 -288.56 140.648 -306.75 
	C 140.648 -329.49 146.711 -352.23 156.816 -364.86 
	C 165.406 -375.47 177.535 -381.03 193.703 -381.03 
	C 215.434 -381.03 229.074 -371.93 238.676 -351.72 
	L 217.453 -342.63 
	C 209.367 -354.75 204.82 -357.79 193.703 -357.79 
	C 182.082 -357.79 174.504 -352.73 169.449 -340.1 
	C 165.914 -331.51 163.895 -318.88 163.895 -306.75 
	C 163.895 -291.09 167.43 -275.43 172.988 -266.33 
	C 178.039 -258.75 184.609 -255.21 194.715 -255.21 
	C 204.316 -255.21 211.391 -260.27 216.949 -271.89 
	L 238.676 -263.8 
	C 230.086 -242.58 215.938 -231.97 195.223 -231.97 
	Z 
	"/>
</g>
<g fill="#7f7f7f" fill-rule="nonzero" stroke-width="0" stroke-linejoin="miter" stroke-linecap="butt" stroke-miterlimit="4" >
	<path d="
	M 701.207 413.5 
	L 646.129 315.984 
	L 646.129 413.5 
	L 623.391 413.5 
	L 623.391 269.5 
	L 646.129 269.5 
	L 698.68 361.461 
	L 698.68 269.5 
	L 721.418 269.5 
	L 721.418 413.5 
	Z 
	"/>
</g>
<g fill="#7f7f7f" fill-rule="nonzero" stroke-width="0" stroke-linejoin="miter" stroke-linecap="butt" stroke-miterlimit="4" >
	<path d="
	M 336.449 294.766 
	C 332.914 292.742 330.895 292.238 323.313 292.238 
	L 296.027 292.238 
	L 296.027 327.605 
	L 323.313 327.605 
	C 330.391 327.605 332.914 327.102 336.449 325.078 
	C 342.012 322.051 345.547 315.984 345.547 309.922 
	C 345.547 303.859 342.012 297.797 336.449 294.766 
	Z 
	M 346.559 413.5 
	L 323.313 350.848 
	L 296.027 350.848 
	L 296.027 413.5 
	L 273.289 413.5 
	L 273.289 269.5 
	L 320.785 269.5 
	C 331.902 269.5 339.484 270.512 346.559 274.051 
	C 359.191 280.109 368.285 295.27 368.285 309.922 
	C 368.285 325.078 359.191 340.238 346.055 346.301 
	L 371.316 413.5 
	Z 
	"/>
</g>
<g fill="#7f7f7f" fill-rule="nonzero" stroke-width="0" stroke-linejoin="miter" stroke-linecap="butt" stroke-miterlimit="4" >
	<path d="
	M 509.594 413.5 
	L 509.594 269.5 
	L 594.367 269.5 
	L 594.367 292.234 
	L 532.301 292.234 
	L 532.301 327.605 
	L 574.184 327.605 
	L 574.184 350.848 
	L 532.301 350.848 
	L 532.301 390.258 
	L 598.91 390.258 
	L 598.91 413.5 
	Z 
	"/>
</g>
<g fill="#7f7f7f" fill-rule="nonzero" stroke-width="0" stroke-linejoin="miter" stroke-linecap="butt" stroke-miterlimit="4" >
	<path d="
	M 395.797 413.5 
	L 395.797 269.5 
	L 480.57 269.5 
	L 480.57 292.234 
	L 418.504 292.234 
	L 418.504 327.605 
	L 460.391 327.605 
	L 460.391 350.848 
	L 418.504 350.848 
	L 418.504 390.258 
	L 485.113 390.258 
	L 485.113 413.5 
	Z 
	"/>
</g>
<g fill="#7f7f7f" fill-rule="nonzero" stroke-width="0" stroke-linejoin="miter" stroke-linecap="butt" stroke-miterlimit="4" >
	<path d="
	M 196.133 416.027 
	C 174.402 416.027 161.77 407.941 153.184 389.754 
	C 147.117 377.121 143.582 359.437 143.582 341.754 
	C 143.582 318.512 150.148 295.773 159.75 283.145 
	C 168.344 272.531 180.469 266.977 196.641 266.977 
	C 218.871 266.977 232.012 276.066 241.609 298.809 
	L 219.883 307.395 
	C 213.816 294.766 207.754 290.215 196.641 290.215 
	C 185.016 290.215 177.438 295.27 172.383 307.898 
	C 168.848 316.488 166.824 329.629 166.824 341.754 
	C 166.824 356.91 169.352 372.066 173.898 381.164 
	C 178.445 389.246 185.016 392.785 193.605 392.785 
	C 208.262 392.785 218.871 383.687 218.871 370.555 
	L 218.871 364.488 
	L 192.598 364.488 
	L 192.598 341.754 
	L 241.609 341.754 
	L 241.609 370.555 
	C 241.609 396.824 222.406 416.027 196.133 416.027 
	Z 
	"/>
</g>
</g >
</g>
</svg>
