<?xml version="1.0" standalone="no"?>
<svg width="648px" height="1080px" viewBox="0 -288 648 1080 " xmlns="http://www.w3.org/2000/svg" xmlns:xlink="http://www.w3.org/1999/xlink">
<title>generated by pstoedit</title>
<!-- generated by pstoedit version:4.02 -->
<g xml:space='preserve'>
<clipPath id="clippath1"> 	<path d="
	M 0 -288.5 
	L 0 792 
	L 648.5 792 
	L 648.5 -288.5 
	Z 
	" style="clip-rule:nonzero"/>
</clipPath>
<g style="clip-path:url(#clippath1)"> 
<g fill="#ffffff" fill-rule="nonzero" stroke-width="0" stroke-linejoin="miter" stroke-linecap="butt" stroke-miterlimit="10" >
	<path d="
	M 648.25 683.75 
	C 648.25 743.398 599.895 791.75 540.25 791.75 
	L 108.25 791.75 
	C 48.6016 791.75 0.25 743.398 0.25 683.75 
	L 0.25 -180.25 
	C 0.25 -239.9 48.6016 -288.25 108.25 -288.25 
	L 540.25 -288.25 
	C 599.895 -288.25 648.25 -239.9 648.25 -180.25 
	Z 
	"/>
</g>
<g stroke="#7f7f7f" fill="none" stroke-width="0.5" stroke-linejoin="miter" stroke-linecap="butt" stroke-miterlimit="4" >
	<path d="
	M 648.25 683.75 
	C 648.25 743.398 599.895 791.75 540.25 791.75 
	L 108.25 791.75 
	C 48.6016 791.75 0.25 743.398 0.25 683.75 
	L 0.25 -180.25 
	C 0.25 -239.9 48.6016 -288.25 108.25 -288.25 
	L 540.25 -288.25 
	C 599.895 -288.25 648.25 -239.9 648.25 -180.25 
	Z 
	"/>
</g>
<g fill="#7f7f7f" fill-rule="nonzero" stroke-width="0" stroke-linejoin="miter" stroke-linecap="butt" stroke-miterlimit="4" >
	<path d="
	M 594.25 683.75 
	C 594.25 713.531 570.023 737.75 540.25 737.75 
	L 108.25 737.75 
	C 78.4727 737.75 54.25 713.531 54.25 683.75 
	L 54.25 -180.25 
	C 54.25 -210.03 78.4727 -234.25 108.25 -234.25 
	L 540.25 -234.25 
	C 570.023 -234.25 594.25 -210.03 594.25 -180.25 
	Z 
	M 540.25 -261.25 
	L 108.25 -261.25 
	C 63.5859 -261.25 27.25 -224.91 27.25 -180.25 
	L 27.25 683.75 
	C 27.25 728.41 63.5859 764.75 108.25 764.75 
	L 540.25 764.75 
	C 584.914 764.75 621.25 728.41 621.25 683.75 
	L 621.25 -180.25 
	C 621.25 -224.91 584.914 -261.25 540.25 -261.25 
	Z 
	"/>
</g>
<g fill="#7f7f7f" fill-rule="nonzero" stroke-width="0" stroke-linejoin="miter" stroke-linecap="butt" stroke-miterlimit="4" >
	<path d="
	M 123.16 314.75 
	L 123.16 166.902 
	L 156.422 166.902 
	L 156.422 119.324 
	L 166.75 117.055 
	L 166.75 104.59 
	L 155.277 100.062 
	L 155.277 93.27 
	L 123.16 93.27 
	L 123.16 71.75 
	L 108.25 71.75 
	L 108.25 314.75 
	Z 
	"/>
</g>
<g fill="#7f7f7f" fill-rule="nonzero" stroke-width="0" stroke-linejoin="miter" stroke-linecap="butt" stroke-miterlimit="4" >
	<path d="
	M 540.25 103.301 
	C 540.25 103.301 473.523 108.941 414.863 66.672 
	C 411.227 66.086 407.371 64.145 404.289 63.949 
	C 372.949 70.77 347.359 53.816 330.258 44.863 
	C 314.879 42.523 318.52 77.187 336.977 81.871 
	C 318.723 83.824 191.805 96.285 191.805 96.285 
	C 191.805 96.285 179.867 97.844 180.262 107.195 
	C 180.496 113.043 181.797 120.059 190.059 120.059 
	L 290.262 120.059 
	C 290.262 120.059 290.453 129.398 298.527 136.617 
	C 308.148 141.68 321.98 147.516 322.566 161.734 
	C 330.258 168.941 352.18 177.316 356.02 192.52 
	C 362.953 203.621 386.215 204.98 394.863 206.75 
	C 401.402 205.574 407.371 204.695 415.633 203.828 
	C 465.832 182.789 540.25 179.656 540.25 179.656 
	Z 
	"/>
</g>
<g fill="#7f7f7f" fill-rule="nonzero" stroke-width="0" stroke-linejoin="miter" stroke-linecap="butt" stroke-miterlimit="4" >
	<path d="
	M 414.027 314.75 
	L 414.027 282.16 
	L 394.363 282.16 
	L 394.363 314.75 
	L 384.027 314.75 
	L 384.027 242.75 
	L 394.363 242.75 
	L 394.363 272.055 
	L 414.027 272.055 
	L 414.027 242.75 
	L 424.363 242.75 
	L 424.363 314.75 
	Z 
	"/>
</g>
<g fill="#7f7f7f" fill-rule="nonzero" stroke-width="0" stroke-linejoin="miter" stroke-linecap="butt" stroke-miterlimit="4" >
	<path d="
	M 245.059 252.855 
	L 234.473 252.855 
	L 234.473 273.316 
	L 245.059 273.316 
	C 251.109 273.316 254.387 269.527 254.387 262.961 
	C 254.387 256.895 250.605 252.855 245.059 252.855 
	Z 
	M 245.563 283.172 
	L 234.473 283.172 
	L 234.473 314.75 
	L 224.137 314.75 
	L 224.137 242.75 
	L 245.563 242.75 
	C 256.906 242.75 264.473 250.832 264.473 262.961 
	C 264.473 276.098 257.664 283.172 245.563 283.172 
	Z 
	"/>
</g>
<g fill="#7f7f7f" fill-rule="nonzero" stroke-width="0" stroke-linejoin="miter" stroke-linecap="butt" stroke-miterlimit="4" >
	<path d="
	M 351.949 281.496 
	C 348.84 279.48 345.813 277.453 343.883 276.098 
	C 338.074 272.012 335.004 266.496 335.004 260.184 
	C 335.004 249.82 343.121 241.484 353.52 241.484 
	C 363.672 241.484 371.535 249.316 371.789 260.184 
	L 361.895 260.184 
	C 361.641 255.129 358.09 251.844 353.52 251.844 
	C 348.699 251.844 344.895 255.383 344.895 260.184 
	C 344.895 263.719 346.418 265.738 351.746 268.77 
	C 365.699 276.855 371.789 284.687 371.789 295.047 
	C 371.789 306.668 362.906 316.016 351.746 316.016 
	C 339.063 316.016 331.449 305.402 331.449 293.527 
	L 341.598 293.527 
	C 341.598 299.594 344.645 305.906 351.746 305.906 
	C 357.328 305.906 361.895 300.855 361.895 295.047 
	C 361.895 290.531 360.027 286.73 351.949 281.496 
	Z 
	"/>
</g>
<g fill="#7f7f7f" fill-rule="nonzero" stroke-width="0" stroke-linejoin="miter" stroke-linecap="butt" stroke-miterlimit="4" >
	<path d="
	M 316.438 305.906 
	C 312.906 311.719 306.102 316.016 299.293 316.016 
	C 292.234 316.016 285.176 311.973 281.645 305.906 
	C 279.629 302.117 278.871 299.086 278.871 293.273 
	L 278.871 242.75 
	L 289.211 242.75 
	L 289.211 294.539 
	C 289.211 301.359 293.242 305.906 299.293 305.906 
	C 304.84 305.906 308.875 301.359 308.875 294.539 
	L 308.875 242.75 
	L 319.211 242.75 
	L 319.211 293.273 
	C 319.211 299.086 318.453 302.117 316.438 305.906 
	Z 
	"/>
</g>
<g fill="#7f7f7f" fill-rule="nonzero" stroke-width="0" stroke-linejoin="miter" stroke-linecap="butt" stroke-miterlimit="4" >
	<path d="
	M 201.59 390.16 
	L 191.254 390.16 
	L 191.254 412.645 
	L 201.59 412.645 
	C 207.387 412.645 211.168 408.602 211.168 402.285 
	C 211.168 395.465 206.883 390.16 201.59 390.16 
	Z 
	M 202.094 360.855 
	L 191.254 360.855 
	L 191.254 380.055 
	L 202.094 380.055 
	C 206.883 380.055 209.906 376.012 209.906 369.441 
	C 209.906 363.383 207.641 360.855 202.094 360.855 
	Z 
	M 202.094 422.75 
	L 180.914 422.75 
	L 180.914 350.75 
	L 203.605 350.75 
	C 213.188 350.75 219.992 358.328 219.992 369.441 
	C 219.992 376.012 218.23 379.047 212.43 385.105 
	C 217.977 389.652 221.254 395.719 221.254 403.047 
	C 221.254 413.906 212.684 422.75 202.094 422.75 
	Z 
	"/>
</g>
<g fill="#7f7f7f" fill-rule="nonzero" stroke-width="0" stroke-linejoin="miter" stroke-linecap="butt" stroke-miterlimit="4" >
	<path d="
	M 459.77 422.75 
	L 437.582 374.496 
	L 437.582 422.75 
	L 427.246 422.75 
	L 427.246 350.75 
	L 437.582 350.75 
	L 457.246 393.949 
	L 457.246 350.75 
	L 467.586 350.75 
	L 467.586 422.75 
	Z 
	"/>
</g>
<g fill="#7f7f7f" fill-rule="nonzero" stroke-width="0" stroke-linejoin="miter" stroke-linecap="butt" stroke-miterlimit="4" >
	<path d="
	M 400.633 368.687 
	C 398.852 362.371 396.051 359.594 391.723 359.594 
	C 387.145 359.594 384.344 362.371 382.563 368.434 
	C 380.781 373.992 380.27 378.793 380.27 386.879 
	C 380.27 394.707 381.035 399.258 382.563 405.066 
	C 384.344 411.129 387.145 413.906 391.723 413.906 
	C 396.051 413.906 398.852 411.129 400.633 405.066 
	C 402.41 399.258 402.922 394.961 402.922 386.621 
	C 402.922 378.539 402.156 373.992 400.633 368.687 
	Z 
	M 408.773 411.637 
	C 405.211 420.223 399.867 424.016 391.723 424.016 
	C 383.07 424.016 377.98 420.223 374.422 411.637 
	C 371.363 404.562 370.348 397.738 370.348 386.621 
	C 370.348 375.762 371.363 368.434 374.422 361.613 
	C 378.234 353.023 383.324 349.484 391.723 349.484 
	C 400.121 349.484 405.211 353.023 408.773 361.863 
	C 411.828 368.937 412.848 375.762 412.848 386.621 
	C 412.848 397.738 411.828 404.812 408.773 411.637 
	Z 
	"/>
</g>
<g fill="#7f7f7f" fill-rule="nonzero" stroke-width="0" stroke-linejoin="miter" stroke-linecap="butt" stroke-miterlimit="4" >
	<path d="
	M 307.477 360.352 
	L 307.477 422.75 
	L 297.086 422.75 
	L 297.086 360.352 
	L 283.91 360.352 
	L 283.91 350.75 
	L 320.648 350.75 
	L 320.648 360.352 
	Z 
	"/>
</g>
<g fill="#7f7f7f" fill-rule="nonzero" stroke-width="0" stroke-linejoin="miter" stroke-linecap="butt" stroke-miterlimit="4" >
	<path d="
	M 348.531 360.352 
	L 348.531 422.75 
	L 338.145 422.75 
	L 338.145 360.352 
	L 324.969 360.352 
	L 324.969 350.75 
	L 361.707 350.75 
	L 361.707 360.352 
	Z 
	"/>
</g>
<g fill="#7f7f7f" fill-rule="nonzero" stroke-width="0" stroke-linejoin="miter" stroke-linecap="butt" stroke-miterlimit="4" >
	<path d="
	M 271.059 413.906 
	C 267.527 419.719 260.723 424.016 253.914 424.016 
	C 246.855 424.016 239.797 419.973 236.266 413.906 
	C 234.25 410.117 233.492 407.086 233.492 401.273 
	L 233.492 350.75 
	L 243.828 350.75 
	L 243.828 402.539 
	C 243.828 409.359 247.863 413.906 253.914 413.906 
	C 259.461 413.906 263.496 409.359 263.496 402.539 
	L 263.496 350.75 
	L 273.832 350.75 
	L 273.832 401.273 
	C 273.832 407.086 273.074 410.117 271.059 413.906 
	Z 
	"/>
</g>
<g fill="#7f7f7f" fill-rule="nonzero" stroke-width="0" stroke-linejoin="miter" stroke-linecap="butt" stroke-miterlimit="4" >
	<path d="
	M 327.262 629.906 
	C 324.469 636.223 318.637 640.012 311.277 640.012 
	C 302.652 640.012 296.309 635.719 292.758 627.633 
	C 290.477 622.328 288.953 612.223 288.953 602.875 
	C 288.953 592.77 289.715 585.441 292.25 578.621 
	C 294.785 571.043 302.145 565.484 310.516 565.484 
	C 320.918 565.484 328.781 573.062 329.289 583.676 
	L 318.891 583.676 
	C 318.637 578.875 315.336 575.594 310.262 575.594 
	C 306.711 575.594 303.922 577.359 302.145 580.895 
	C 300.113 584.434 298.848 592.52 298.848 601.105 
	C 298.848 607.172 299.355 613.484 300.367 619.043 
	C 301.891 626.117 305.441 629.906 311.023 629.906 
	C 316.352 629.906 318.891 626.367 318.891 618.793 
	L 318.891 613.992 
	L 310.77 613.992 
	L 310.77 603.887 
	L 329.289 603.887 
	L 329.289 618.793 
	C 329.289 623.844 328.781 626.875 327.262 629.906 
	Z 
	"/>
</g>
<g fill="#7f7f7f" fill-rule="nonzero" stroke-width="0" stroke-linejoin="miter" stroke-linecap="butt" stroke-miterlimit="4" >
	<path d="
	M 373.688 638.75 
	L 373.688 606.16 
	L 354.023 606.16 
	L 354.023 638.75 
	L 343.688 638.75 
	L 343.688 566.75 
	L 354.023 566.75 
	L 354.023 596.055 
	L 373.688 596.055 
	L 373.688 566.75 
	L 384.023 566.75 
	L 384.023 638.75 
	Z 
	"/>
</g>
<g fill="#7f7f7f" fill-rule="nonzero" stroke-width="0" stroke-linejoin="miter" stroke-linecap="butt" stroke-miterlimit="4" >
	<path d="
	M 264.473 638.75 
	L 264.473 566.75 
	L 274.555 566.75 
	L 274.555 638.75 
	Z 
	"/>
</g>
<g fill="#7f7f7f" fill-rule="nonzero" stroke-width="0" stroke-linejoin="miter" stroke-linecap="butt" stroke-miterlimit="4" >
	<path d="
	M 217.652 638.75 
	L 217.652 566.75 
	L 228.043 566.75 
	L 228.043 629.148 
	L 254.395 629.148 
	L 254.395 638.75 
	Z 
	"/>
</g>
<g fill="#7f7f7f" fill-rule="nonzero" stroke-width="0" stroke-linejoin="miter" stroke-linecap="butt" stroke-miterlimit="4" >
	<path d="
	M 417.672 576.352 
	L 417.672 638.75 
	L 407.281 638.75 
	L 407.281 576.352 
	L 394.105 576.352 
	L 394.105 566.75 
	L 430.848 566.75 
	L 430.848 576.352 
	Z 
	"/>
</g>
<g fill="#7f7f7f" fill-rule="nonzero" stroke-width="0" stroke-linejoin="miter" stroke-linecap="butt" stroke-miterlimit="4" >
	<path d="
	M 416.066 530.75 
	L 416.066 458.75 
	L 450.02 458.75 
	L 450.02 468.855 
	L 426.453 468.855 
	L 426.453 487.047 
	L 441.402 487.047 
	L 441.402 496.895 
	L 426.453 496.895 
	L 426.453 520.645 
	L 452.805 520.645 
	L 452.805 530.75 
	Z 
	"/>
</g>
<g fill="#7f7f7f" fill-rule="nonzero" stroke-width="0" stroke-linejoin="miter" stroke-linecap="butt" stroke-miterlimit="4" >
	<path d="
	M 465.047 530.75 
	L 465.047 458.75 
	L 498.996 458.75 
	L 498.996 468.855 
	L 475.434 468.855 
	L 475.434 487.047 
	L 490.383 487.047 
	L 490.383 496.895 
	L 475.434 496.895 
	L 475.434 520.645 
	L 501.785 520.645 
	L 501.785 530.75 
	Z 
	"/>
</g>
<g fill="#7f7f7f" fill-rule="nonzero" stroke-width="0" stroke-linejoin="miter" stroke-linecap="butt" stroke-miterlimit="4" >
	<path d="
	M 104.523 468.855 
	L 104.523 487.047 
	L 118.969 487.047 
	L 118.969 496.895 
	L 104.523 496.895 
	L 104.523 530.75 
	L 94.1367 530.75 
	L 94.1367 458.75 
	L 130.875 458.75 
	L 130.875 468.855 
	Z 
	"/>
</g>
<g fill="#7f7f7f" fill-rule="nonzero" stroke-width="0" stroke-linejoin="miter" stroke-linecap="butt" stroke-miterlimit="4" >
	<path d="
	M 347.059 521.906 
	C 344.27 528.223 338.434 532.012 331.078 532.012 
	C 322.449 532.012 316.109 527.719 312.559 519.633 
	C 310.273 514.328 308.75 504.223 308.75 494.875 
	C 308.75 484.77 309.512 477.441 312.051 470.621 
	C 314.586 463.047 321.941 457.484 330.316 457.484 
	C 340.719 457.484 348.582 465.062 349.09 475.676 
	L 338.688 475.676 
	C 338.434 470.875 335.137 467.594 330.063 467.594 
	C 326.512 467.594 323.719 469.359 321.941 472.895 
	C 319.914 476.434 318.645 484.52 318.645 493.105 
	C 318.645 499.172 319.152 505.484 320.168 511.047 
	C 321.688 518.117 325.242 521.906 330.824 521.906 
	C 336.148 521.906 338.688 518.371 338.688 510.793 
	L 338.688 505.992 
	L 330.57 505.992 
	L 330.57 495.887 
	L 349.09 495.887 
	L 349.09 510.793 
	C 349.09 515.844 348.582 518.875 347.059 521.906 
	Z 
	"/>
</g>
<g fill="#7f7f7f" fill-rule="nonzero" stroke-width="0" stroke-linejoin="miter" stroke-linecap="butt" stroke-miterlimit="4" >
	<path d="
	M 546.547 530.75 
	L 524.363 482.496 
	L 524.363 530.75 
	L 514.023 530.75 
	L 514.023 458.75 
	L 524.363 458.75 
	L 544.027 501.949 
	L 544.027 458.75 
	L 554.363 458.75 
	L 554.363 530.75 
	Z 
	"/>
</g>
<g fill="#7f7f7f" fill-rule="nonzero" stroke-width="0" stroke-linejoin="miter" stroke-linecap="butt" stroke-miterlimit="4" >
	<path d="
	M 169.797 476.687 
	C 168.016 470.371 165.219 467.594 160.891 467.594 
	C 156.313 467.594 153.512 470.371 151.73 476.434 
	C 149.949 481.992 149.438 486.793 149.438 494.879 
	C 149.438 502.707 150.203 507.258 151.73 513.066 
	C 153.512 519.129 156.313 521.906 160.891 521.906 
	C 165.219 521.906 168.016 519.129 169.797 513.066 
	C 171.578 507.258 172.09 502.961 172.09 494.621 
	C 172.09 486.539 171.324 481.992 169.797 476.687 
	Z 
	M 177.941 519.637 
	C 174.379 528.223 169.035 532.016 160.891 532.016 
	C 152.238 532.016 147.148 528.223 143.586 519.637 
	C 140.531 512.562 139.516 505.738 139.516 494.621 
	C 139.516 483.762 140.531 476.434 143.586 469.613 
	C 147.402 461.023 152.492 457.484 160.891 457.484 
	C 169.289 457.484 174.379 461.023 177.941 469.863 
	C 180.996 476.937 182.012 483.762 182.012 494.621 
	C 182.012 505.738 180.996 512.812 177.941 519.637 
	Z 
	"/>
</g>
<g fill="#7f7f7f" fill-rule="nonzero" stroke-width="0" stroke-linejoin="miter" stroke-linecap="butt" stroke-miterlimit="4" >
	<path d="
	M 217.34 468.855 
	L 206.75 468.855 
	L 206.75 487.047 
	L 217.34 487.047 
	C 223.391 487.047 226.668 483.762 226.668 477.949 
	C 226.668 472.395 222.887 468.855 217.34 468.855 
	Z 
	M 226.16 530.75 
	L 216.582 496.895 
	L 206.75 496.895 
	L 206.75 530.75 
	L 196.414 530.75 
	L 196.414 458.75 
	L 217.844 458.75 
	C 229.188 458.75 236.75 466.328 236.75 477.949 
	C 236.75 486.539 233.223 492.855 226.414 495.383 
	L 236.75 530.75 
	Z 
	"/>
</g>
<g fill="#7f7f7f" fill-rule="nonzero" stroke-width="0" stroke-linejoin="miter" stroke-linecap="butt" stroke-miterlimit="4" >
	<path d="
	M 384.414 468.855 
	L 373.824 468.855 
	L 373.824 487.047 
	L 384.414 487.047 
	C 390.465 487.047 393.742 483.762 393.742 477.949 
	C 393.742 472.395 389.961 468.855 384.414 468.855 
	Z 
	M 393.238 530.75 
	L 383.656 496.895 
	L 373.824 496.895 
	L 373.824 530.75 
	L 363.488 530.75 
	L 363.488 458.75 
	L 384.918 458.75 
	C 396.266 458.75 403.828 466.328 403.828 477.949 
	C 403.828 486.539 400.297 492.855 393.488 495.383 
	L 403.828 530.75 
	Z 
	"/>
</g>
<g fill="#7f7f7f" fill-rule="nonzero" stroke-width="0" stroke-linejoin="miter" stroke-linecap="butt" stroke-miterlimit="4" >
	<path d="
	M 163.641 653.117 
	C 164.449 652.57 165.426 652.25 166.477 652.25 
	C 169.273 652.25 171.539 654.516 171.539 657.312 
	C 171.539 657.871 171.445 658.406 171.277 658.91 
	L 166.363 674.75 
	L 540.25 674.75 
	L 540.25 701.75 
	L 166.363 701.75 
	L 171.277 717.59 
	C 171.445 718.09 171.539 718.629 171.539 719.191 
	C 171.539 721.98 169.273 724.25 166.477 724.25 
	C 165.426 724.25 164.449 723.93 163.641 723.379 
	L 108.25 688.25 
	Z 
	"/>
</g>
<g fill="#7f7f7f" fill-rule="nonzero" stroke-width="0" stroke-linejoin="miter" stroke-linecap="butt" stroke-miterlimit="4" >
	<path d="
	M 441.699 4.25 
	C 415.824 4.25 393.91 -12.68 386.414 -36.063 
	L 438.02 -47.176 
	C 439.109 -46.57 440.363 -46.223 441.699 -46.223 
	C 445.887 -46.223 449.273 -49.613 449.273 -53.801 
	C 449.273 -57.453 446.691 -60.5 443.254 -61.219 
	L 411.52 -103.395 
	C 420.313 -108.758 430.645 -111.852 441.699 -111.852 
	C 473.762 -111.852 499.75 -85.859 499.75 -53.801 
	C 499.75 -21.738 473.762 4.25 441.699 4.25 
	Z 
	M 383.648 -53.801 
	C 383.648 -70.707 390.883 -85.926 402.414 -96.535 
	L 431.785 -57.496 
	L 384.023 -47.211 
	C 383.781 -49.371 383.648 -51.57 383.648 -53.801 
	Z 
	M 370.77 -44.355 
	L 348.063 -39.465 
	L 374.426 -133.742 
	L 394.27 -107.363 
	C 379.477 -94.258 370.148 -75.117 370.148 -53.801 
	C 370.148 -50.598 370.363 -47.445 370.77 -44.355 
	Z 
	M 338.441 -47.383 
	L 334.918 -60.777 
	L 340.418 -60.777 
	L 340.418 -66.18 
	L 323.035 -66.18 
	L 323.035 -60.777 
	L 329.953 -60.777 
	L 333.449 -47.492 
	L 258.656 -128.895 
	C 259.871 -132.77 261.113 -136.766 262.344 -140.742 
	L 364.547 -140.742 
	Z 
	M 264.852 -53.801 
	C 264.852 -21.738 238.859 4.25 206.801 4.25 
	C 174.738 4.25 148.75 -21.738 148.75 -53.801 
	C 148.75 -85.859 174.738 -111.852 206.801 -111.852 
	C 218.195 -111.852 228.824 -108.563 237.793 -102.891 
	C 230.664 -87.426 216.758 -70.766 206.742 -61.375 
	C 202.586 -61.344 199.223 -57.965 199.223 -53.801 
	C 199.223 -49.613 202.617 -46.223 206.801 -46.223 
	C 210.668 -46.223 213.855 -49.121 214.316 -52.867 
	C 219.219 -57.457 225.617 -64.211 231.945 -72.309 
	C 236.652 -78.328 242.52 -86.652 246.992 -95.684 
	C 257.996 -85.117 264.852 -70.262 264.852 -53.801 
	Z 
	M 441.699 -125.352 
	C 427.602 -125.352 414.453 -121.27 403.371 -114.227 
	L 378.289 -147.566 
	L 381.578 -159.332 
	C 397.305 -160.684 406 -166.66 405.469 -172.445 
	C 404.949 -178.051 389.352 -173.852 372.004 -173.629 
	C 367.242 -173.566 342.004 -173.68 342.148 -169.051 
	C 342.301 -164.305 358.438 -160.434 369.746 -159.352 
	L 367.73 -152.141 
	L 265.852 -152.141 
	C 268.023 -159.227 270.008 -165.766 271.543 -170.836 
	C 272.855 -175.164 273.836 -178.426 274.32 -180.039 
	L 266.91 -185.707 
	L 270.414 -189.25 
	L 297.699 -189.25 
	L 297.699 -198.25 
	L 266.652 -198.25 
	L 253.328 -184.762 
	L 261.871 -178.23 
	C 257.914 -165.133 248.57 -134.359 242.523 -115.805 
	C 232.012 -121.875 219.813 -125.352 206.801 -125.352 
	C 167.285 -125.352 135.25 -93.316 135.25 -53.801 
	C 135.25 -14.285 167.285 17.75 206.801 17.75 
	C 246.316 17.75 278.352 -14.285 278.352 -53.801 
	C 278.352 -76.035 268.207 -95.902 252.297 -109.023 
	C 253.035 -111.258 253.84 -113.727 254.688 -116.367 
	L 331.68 -32.57 
	C 331.66 -32.352 331.648 -32.129 331.648 -31.902 
	C 331.648 -27.367 335.25 -23.676 339.75 -23.527 
	L 345.145 -3.02698 
	L 339.645 -3.02698 
	L 339.645 2.37097 
	L 357.023 2.37097 
	L 357.023 -3.02698 
	L 350.105 -3.02698 
	L 344.395 -24.746 
	C 345.563 -25.461 346.539 -26.449 347.238 -27.625 
	L 373.164 -33.207 
	C 382.008 -3.72998 409.344 17.75 441.699 17.75 
	C 481.215 17.75 513.25 -14.285 513.25 -53.801 
	C 513.25 -93.316 481.215 -125.352 441.699 -125.352 
	Z 
	"/>
</g>
</g >
</g>
</svg>
