<?xml version="1.0" encoding="UTF-8" standalone="no"?>
<!-- Created with Inkscape (http://www.inkscape.org/) -->

<svg
   version="1.1"
   id="svg1"
   width="2304.6667"
   height="3456.6667"
   viewBox="0 0 2304.6667 3456.6667"
   sodipodi:docname="tmpt7msyclw.pdf"
   xmlns:inkscape="http://www.inkscape.org/namespaces/inkscape"
   xmlns:sodipodi="http://sodipodi.sourceforge.net/DTD/sodipodi-0.dtd"
   xmlns="http://www.w3.org/2000/svg"
   xmlns:svg="http://www.w3.org/2000/svg">
  <defs
     id="defs1" />
  <sodipodi:namedview
     id="namedview1"
     pagecolor="#ffffff"
     bordercolor="#000000"
     borderopacity="0.25"
     inkscape:showpageshadow="2"
     inkscape:pageopacity="0.0"
     inkscape:pagecheckerboard="0"
     inkscape:deskcolor="#d1d1d1">
    <inkscape:page
       x="0"
       y="0"
       inkscape:label="1"
       id="page1"
       width="2304.6667"
       height="3456.6667"
       margin="0"
       bleed="0" />
  </sodipodi:namedview>
  <g
     id="g1"
     inkscape:groupmode="layer"
     inkscape:label="1">
    <g
       id="group-R5">
      <path
         id="path2"
         d="M 17282.5,1082.5 C 17282.5,486 16799,2.5 16202.5,2.5 H 1082.5 C 486.031,2.5 2.5,486 2.5,1082.5 v 23760 c 0,596.5 483.531,1080 1080,1080 h 15120 c 596.5,0 1080,-483.5 1080,-1080 v -23760"
         style="fill:#ffffff;fill-opacity:1;fill-rule:nonzero;stroke:none"
         transform="matrix(0.13333333,0,0,-0.13333333,0,3456.6667)" />
      <path
         id="path3"
         d="M 17282.5,1082.5 C 17282.5,486 16799,2.5 16202.5,2.5 H 1082.5 C 486.031,2.5 2.5,486 2.5,1082.5 v 23760 c 0,596.5 483.531,1080 1080,1080 h 15120 c 596.5,0 1080,-483.5 1080,-1080 z"
         style="fill:none;stroke:#231f20;stroke-width:5;stroke-linecap:butt;stroke-linejoin:miter;stroke-miterlimit:4;stroke-dasharray:none;stroke-opacity:1"
         transform="matrix(0.13333333,0,0,-0.13333333,0,3456.6667)" />
      <path
         id="path4"
         d="m 1082.5,272.5 c -446.637,0 -810,363.402 -810,810 v 23760 c 0,446.6 363.363,810 810,810 h 15120 c 446.6,0 810,-363.4 810,-810 v -23760 c 0,-446.598 -363.4,-810 -810,-810 h -15120"
         style="fill:#231f20;fill-opacity:1;fill-rule:nonzero;stroke:none"
         transform="matrix(0.13333333,0,0,-0.13333333,0,3456.6667)" />
      <path
         id="path5"
         d="m 1082.5,722.5 c -198.508,0 -360,161.5 -360,360 v 23760 c 0,198.5 161.492,360 360,360 h 15120 c 198.5,0 360,-161.5 360,-360 v -23760 c 0,-198.5 -161.5,-360 -360,-360 h -15120"
         style="fill:#ffffff;fill-opacity:1;fill-rule:nonzero;stroke:none"
         transform="matrix(0.13333333,0,0,-0.13333333,0,3456.6667)" />
      <path
         id="path6"
         d="m 10234.8,23142.3 c -114,189.5 -253.26,265.2 -468.51,277.9 -278.59,12.6 -455.86,-126.3 -582.48,-442.1 -88.61,-214.8 -139.27,-543.2 -139.27,-846.3 0,-379 75.94,-770.6 215.24,-997.9 113.98,-189.5 265.9,-278 493.82,-278 265.9,0 430.6,139 557.2,454.8 76,189.5 139.3,543.2 139.3,821.1 0,404.1 -76,770.5 -215.3,1010.5 z m 392.5,-2463.2 c -202.6,-277.9 -493.8,-404.2 -873.7,-404.2 -506.45,0 -823.04,202.1 -1038.31,644.2 -151.92,303.2 -253.22,783.2 -253.22,1212.7 0,593.6 151.92,1124.1 392.52,1465.2 215.26,277.9 506.51,404.2 924.36,404.2 455.85,0 772.35,-202.1 1000.35,-644.2 151.9,-315.8 240.6,-770.5 240.6,-1225.2 0,-568.5 -139.3,-1136.9 -392.6,-1452.7"
         style="fill:#231f20;fill-opacity:1;fill-rule:nonzero;stroke:none"
         transform="matrix(0.13333333,0,0,-0.13333333,0,3456.6667)" />
      <path
         id="path7"
         d="m 13466.7,23310.9 c -101.1,50.5 -164.2,63.2 -341.1,63.2 h -745.3 v -884.2 h 745.3 c 176.9,0 240,12.6 341.1,63.1 126.3,63.2 214.8,227.4 214.8,379 0,151.6 -88.5,303.1 -214.8,378.9 z m 240,-1275.8 c -164.2,-75.7 -379,-126.3 -656.9,-126.3 h -669.5 v -1566.3 h -568.4 v 3600 h 1237.9 c 290.6,0 480.1,-25.3 656.9,-113.7 315.8,-151.6 555.8,-530.5 555.8,-896.8 0,-379 -240,-757.9 -555.8,-896.9"
         style="fill:#231f20;fill-opacity:1;fill-rule:nonzero;stroke:none"
         transform="matrix(0.13333333,0,0,-0.13333333,0,3456.6667)" />
      <path
         id="path8"
         d="m 7156.68,23437.2 v -3094.7 h -570.86 v 3094.7 h -824.69 v 505.3 h 2232.91 v -505.3 h -837.36"
         style="fill:#231f20;fill-opacity:1;fill-rule:nonzero;stroke:none"
         transform="matrix(0.13333333,0,0,-0.13333333,0,3456.6667)" />
      <path
         id="path9"
         d="m 5119.43,20561.7 c -202.09,-176.9 -480.02,-277.9 -783.2,-277.9 -618.96,0 -1073.75,366.3 -1313.77,909.4 l 543.2,202.1 c 151.61,-341 429.5,-530.5 770.57,-530.5 328.46,0 555.84,227.4 555.84,530.5 0,480 -555.84,555.8 -1023.24,745.3 -214.75,88.4 -694.77,303.2 -694.77,896.8 0,707.4 480.02,972.7 1124.28,972.7 505.29,0 846.37,-290.6 1023.22,-732.7 l -505.27,-151.5 c 0,0 -126.33,303.1 -530.59,315.8 -265.27,12.6 -581.11,-88.5 -555.82,-416.9 50.55,-669.5 1743.28,-227.4 1743.28,-1642.1 0,-328.4 -126.32,-618.9 -353.73,-821"
         style="fill:#231f20;fill-opacity:1;fill-rule:nonzero;stroke:none"
         transform="matrix(0.13333333,0,0,-0.13333333,0,3456.6667)" />
      <path
         id="path10"
         d="m 13018.4,13142.5 -826.2,1462.8 v -1462.8 h -341 v 2160 h 341 l 788.3,-1379.3 v 1379.3 h 341.1 v -2160 h -303.2"
         style="fill:#231f20;fill-opacity:1;fill-rule:nonzero;stroke:none"
         transform="matrix(0.13333333,0,0,-0.13333333,0,3456.6667)" />
      <path
         id="path11"
         d="m 10987.2,13142.5 v 2160 h 345.6 v -2160 h -345.6"
         style="fill:#231f20;fill-opacity:1;fill-rule:nonzero;stroke:none"
         transform="matrix(0.13333333,0,0,-0.13333333,0,3456.6667)" />
      <path
         id="path12"
         d="m 3681.52,13142.5 v 2160.1 h 340.61 v -1841.8 h 999.13 v -318.3 H 3681.52"
         style="fill:#231f20;fill-opacity:1;fill-rule:nonzero;stroke:none"
         transform="matrix(0.13333333,0,0,-0.13333333,0,3456.6667)" />
      <path
         id="path13"
         d="m 8418.93,13274 c -121.26,-106.1 -288.01,-166.7 -469.92,-166.7 -371.38,0 -644.25,219.8 -788.27,545.7 l 325.92,121.2 c 90.97,-204.6 257.7,-318.3 462.35,-318.3 197.06,0 333.49,136.4 333.49,318.3 0,288 -333.49,333.5 -613.94,447.2 -128.84,53 -416.86,181.9 -416.86,538.1 0,424.4 288.02,583.6 674.58,583.6 303.16,0 507.81,-174.3 613.92,-439.6 l -303.16,-90.9 c 0,0 -75.8,181.8 -318.35,189.4 -159.17,7.6 -348.66,-53 -333.49,-250.1 30.32,-401.7 1045.95,-136.4 1045.95,-985.2 0,-197.1 -75.79,-371.4 -212.22,-492.7"
         style="fill:#231f20;fill-opacity:1;fill-rule:nonzero;stroke:none"
         transform="matrix(0.13333333,0,0,-0.13333333,0,3456.6667)" />
      <path
         id="path14"
         d="m 10127.7,13142.5 v 939.8 h -788.27 v -939.8 h -341.07 v 2160 h 341.07 V 14431 h 788.27 v 871.5 h 341.1 v -2160 h -341.1"
         style="fill:#231f20;fill-opacity:1;fill-rule:nonzero;stroke:none"
         transform="matrix(0.13333333,0,0,-0.13333333,0,3456.6667)" />
      <path
         id="path15"
         d="m 6073.21,14703.8 -221.05,-606.3 h 434.49 z m 548.84,-1561.3 -213.44,606.3 h -678.42 l -213.43,-606.3 h -365.9 l 747.03,2160 h 343.03 l 747.02,-2160 h -365.89"
         style="fill:#231f20;fill-opacity:1;fill-rule:nonzero;stroke:none"
         transform="matrix(0.13333333,0,0,-0.13333333,0,3456.6667)" />
      <path
         id="path16"
         d="m 2358.4,14961.5 v -530.6 h 628.22 v -348.6 H 2358.4 v -939.8 h -340.63 v 2160 h 1339.75 v -341 H 2358.4"
         style="fill:#231f20;fill-opacity:1;fill-rule:nonzero;stroke:none"
         transform="matrix(0.13333333,0,0,-0.13333333,0,3456.6667)" />
      <path
         id="path17"
         d="m 14585.1,13104.6 c -325.9,0 -515.4,121.3 -644.3,394.1 -90.9,189.5 -144,454.8 -144,720 0,348.7 98.5,689.7 242.6,879.2 128.8,159.2 310.7,242.5 553.3,242.5 333.5,0 530.5,-136.4 674.5,-477.5 l -325.9,-128.8 c -90.9,189.5 -181.9,257.7 -348.6,257.7 -174.4,0 -288.1,-75.8 -363.9,-265.3 -53,-128.8 -83.3,-325.9 -83.3,-507.8 0,-227.3 37.9,-454.7 106.1,-591.1 68.2,-121.3 166.7,-174.4 295.6,-174.4 219.8,0 379,136.5 379,333.5 v 91 H 14532 v 341 h 735.2 v -432 c 0,-394.1 -288,-682.1 -682.1,-682.1"
         style="fill:#231f20;fill-opacity:1;fill-rule:nonzero;stroke:none"
         transform="matrix(0.13333333,0,0,-0.13333333,0,3456.6667)" />
      <path
         id="path18"
         d="m 6464.49,11197.3 c -70.72,40.4 -111.15,50.5 -262.74,50.5 h -545.72 v -707.4 h 545.72 c 141.49,0 192.02,10.1 262.74,50.5 111.19,60.7 181.94,182 181.94,303.2 0,121.3 -70.75,242.5 -181.94,303.2 z m 202.13,-2374.8 -464.87,1253.1 H 5656.03 V 8822.5 h -454.76 v 2880 h 949.94 c 222.34,0 373.94,-20.2 515.41,-90.9 252.66,-121.3 434.56,-424.4 434.56,-717.5 0,-303.2 -181.9,-606.3 -444.66,-727.6 l 505.32,-1344 h -495.22"
         style="fill:#231f20;fill-opacity:1;fill-rule:nonzero;stroke:none"
         transform="matrix(0.13333333,0,0,-0.13333333,0,3456.6667)" />
      <path
         id="path19"
         d="m 11386.4,11126.5 c -70.7,70.8 -171.8,121.3 -293.1,121.3 h -515.4 V 9287.4 h 454.8 c 151.6,0 242.6,30.3 323.4,111.1 171.8,171.8 262.7,485.1 262.7,869.1 0,384 -90.9,707.4 -232.4,858.9 z m 192,-2142.3 c -111.1,-101.1 -262.7,-151.6 -414.3,-161.7 -30.3,0 -91,0 -161.7,0 h -879.2 v 2880 h 929.7 c 293.1,0 404.3,-30.3 555.9,-151.5 303.1,-262.8 474.9,-717.5 474.9,-1283.4 0,-576 -181.9,-1030.8 -505.3,-1283.4"
         style="fill:#231f20;fill-opacity:1;fill-rule:nonzero;stroke:none"
         transform="matrix(0.13333333,0,0,-0.13333333,0,3456.6667)" />
      <path
         id="path20"
         d="m 7749.34,8822.5 v 2880 h 1695.48 v -454.7 H 8203.48 v -707.4 h 837.66 v -464.8 H 8203.48 V 9287.4 H 9535.66 V 8822.5 H 7749.34"
         style="fill:#231f20;fill-opacity:1;fill-rule:nonzero;stroke:none"
         transform="matrix(0.13333333,0,0,-0.13333333,0,3456.6667)" />
      <path
         id="path21"
         d="m 8170.85,1499.7 c 70.52,-5.8 143.42,9 209.34,47 172.18,99.4 231.17,319.6 131.75,491.8 -17.46,30.2 -38.73,56.9 -62.73,80 L 7603.53,2917 13438.4,6285.7 12493.3,7922.5 6658.53,4553.8 6389.84,5685.4 c -7.94,32.3 -20.41,64 -37.88,94.3 -99.41,172.2 -319.57,231.2 -491.75,131.8 -65.92,-38.1 -115.16,-93.9 -145.38,-157.8 L 3846.62,1839.1 8170.85,1499.7"
         style="fill:#231f20;fill-opacity:1;fill-rule:nonzero;stroke:none"
         transform="matrix(0.13333333,0,0,-0.13333333,0,3456.6667)" />
      <path
         id="path22"
         d="m 14596,16742.5 -826.1,1462.8 v -1462.8 h -341.1 v 2160 h 341.1 l 788.2,-1379.4 v 1379.4 h 341.1 v -2160 H 14596"
         style="fill:#231f20;fill-opacity:1;fill-rule:nonzero;stroke:none"
         transform="matrix(0.13333333,0,0,-0.13333333,0,3456.6667)" />
      <path
         id="path23"
         d="m 12482.6,18425 c -68.4,113.7 -152,159.2 -281.1,166.8 -167.2,7.6 -273.6,-75.8 -349.5,-265.3 -53.2,-128.8 -83.6,-325.9 -83.6,-507.8 0,-227.3 45.6,-462.3 129.1,-598.7 68.4,-113.7 159.6,-166.7 296.4,-166.7 159.5,0 258.3,83.3 334.2,272.8 45.6,113.7 83.6,325.9 83.6,492.6 0,242.6 -45.6,462.3 -129.1,606.3 z m 235.5,-1477.8 c -121.6,-166.8 -296.3,-242.6 -524.2,-242.6 -303.9,0 -493.9,121.3 -623.1,386.5 -91.1,182 -151.9,469.9 -151.9,727.6 0,356.2 91.2,674.6 235.5,879.2 129.2,166.7 303.9,242.5 554.6,242.5 273.6,0 463.5,-121.2 600.2,-386.5 91.2,-189.5 144.4,-462.3 144.4,-735.2 0,-341 -83.6,-682.1 -235.5,-871.5"
         style="fill:#231f20;fill-opacity:1;fill-rule:nonzero;stroke:none"
         transform="matrix(0.13333333,0,0,-0.13333333,0,3456.6667)" />
      <path
         id="path24"
         d="m 7028.97,18523.6 c -53.03,30.3 -83.36,37.9 -197.06,37.9 h -409.28 v -530.6 h 409.28 c 106.13,0 144.03,7.6 197.06,37.9 83.39,45.5 136.46,136.5 136.46,227.4 0,91 -53.07,181.9 -136.46,227.4 z m 151.6,-1781.1 -348.66,939.8 h -409.28 v -939.8 h -341.07 v 2160 h 712.45 c 166.76,0 280.45,-15.1 386.56,-68.2 189.49,-90.9 325.92,-318.3 325.92,-538.1 0,-227.4 -136.43,-454.7 -333.49,-545.7 l 378.98,-1008 h -371.41"
         style="fill:#231f20;fill-opacity:1;fill-rule:nonzero;stroke:none"
         transform="matrix(0.13333333,0,0,-0.13333333,0,3456.6667)" />
      <path
         id="path25"
         d="m 3515.16,16742.5 v 939.8 h -788.28 v -939.8 H 2385.8 v 2160 h 341.08 v -871.6 h 788.28 v 871.6 h 341.07 v -2160 h -341.07"
         style="fill:#231f20;fill-opacity:1;fill-rule:nonzero;stroke:none"
         transform="matrix(0.13333333,0,0,-0.13333333,0,3456.6667)" />
      <path
         id="path26"
         d="m 4374.61,16742.5 v 2160 h 1271.62 v -341 h -931.02 v -530.6 h 628.27 v -348.6 h -628.27 v -591.1 h 999.15 v -348.7 H 4374.61"
         style="fill:#231f20;fill-opacity:1;fill-rule:nonzero;stroke:none"
         transform="matrix(0.13333333,0,0,-0.13333333,0,3456.6667)" />
      <path
         id="path27"
         d="m 7919.17,16742.5 v 2160 h 1271.62 v -341 h -931.01 v -530.6 h 628.26 v -348.6 h -628.26 v -591.1 h 999.14 v -348.7 H 7919.17"
         style="fill:#231f20;fill-opacity:1;fill-rule:nonzero;stroke:none"
         transform="matrix(0.13333333,0,0,-0.13333333,0,3456.6667)" />
    </g>
  </g>
</svg>
