<?xml version="1.0" standalone="no"?>
<svg width="648px" height="864px" viewBox="0 -72 648 864 " xmlns="http://www.w3.org/2000/svg" xmlns:xlink="http://www.w3.org/1999/xlink">
<title>generated by pstoedit</title>
<!-- generated by pstoedit version:4.02 -->
<g xml:space='preserve'>
<clipPath id="clippath1"> 	<path d="
	M 0 -72.25 
	L 0 792 
	L 648.25 792 
	L 648.25 -72.25 
	Z 
	" style="clip-rule:nonzero"/>
</clipPath>
<g style="clip-path:url(#clippath1)"> 
<g fill="#ffffff" fill-rule="nonzero" stroke-width="0" stroke-linejoin="miter" stroke-linecap="butt" stroke-miterlimit="10" >
	<path d="
	M 648.125 683.875 
	C 648.125 743.523 599.77 791.875 540.125 791.875 
	L 108.125 791.875 
	C 48.4766 791.875 0.125 743.523 0.125 683.875 
	L 0.125 35.875 
	C 0.125 -23.773 48.4766 -72.125 108.125 -72.125 
	L 540.125 -72.125 
	C 599.77 -72.125 648.125 -23.773 648.125 35.875 
	Z 
	"/>
</g>
<g stroke="#7f7f7f" fill="none" stroke-width="0.25" stroke-linejoin="miter" stroke-linecap="butt" stroke-miterlimit="4" >
	<path d="
	M 648.125 683.875 
	C 648.125 743.523 599.77 791.875 540.125 791.875 
	L 108.125 791.875 
	C 48.4766 791.875 0.125 743.523 0.125 683.875 
	L 0.125 35.875 
	C 0.125 -23.773 48.4766 -72.125 108.125 -72.125 
	L 540.125 -72.125 
	C 599.77 -72.125 648.125 -23.773 648.125 35.875 
	Z 
	"/>
</g>
<g fill="#7f7f7f" fill-rule="nonzero" stroke-width="0" stroke-linejoin="miter" stroke-linecap="butt" stroke-miterlimit="4" >
	<path d="
	M 108.125 764.875 
	C 63.4609 764.875 27.125 728.539 27.125 683.875 
	L 27.125 35.875 
	C 27.125 -8.789 63.4609 -45.125 108.125 -45.125 
	L 540.125 -45.125 
	C 584.789 -45.125 621.125 -8.789 621.125 35.875 
	L 621.125 683.875 
	C 621.125 728.539 584.789 764.875 540.125 764.875 
	Z 
	"/>
</g>
<g fill="#ffffff" fill-rule="nonzero" stroke-width="0" stroke-linejoin="miter" stroke-linecap="butt" stroke-miterlimit="4" >
	<path d="
	M 108.125 737.875 
	C 78.3477 737.875 54.125 713.652 54.125 683.875 
	L 54.125 35.875 
	C 54.125 6.09802 78.3477 -18.125 108.125 -18.125 
	L 540.125 -18.125 
	C 569.898 -18.125 594.125 6.09802 594.125 35.875 
	L 594.125 683.875 
	C 594.125 713.652 569.898 737.875 540.125 737.875 
	Z 
	"/>
</g>
<g fill="#7f7f7f" fill-rule="nonzero" stroke-width="0" stroke-linejoin="miter" stroke-linecap="butt" stroke-miterlimit="4" >
	<path d="
	M 163.199 518.574 
	C 162.188 511.5 159.395 508.219 154.574 508.219 
	C 146.203 508.219 143.156 514.785 143.156 533.48 
	C 143.156 554.195 146.711 562.531 155.59 562.531 
	C 161.68 562.531 163.199 557.48 163.199 552.176 
	L 173.602 552.176 
	C 173.348 564.051 165.734 572.637 155.59 572.637 
	C 140.113 572.637 133.266 560.258 133.266 533.734 
	C 133.266 510.492 140.621 498.113 154.828 498.113 
	C 160.66 498.113 165.734 500.637 169.035 505.437 
	C 171.824 508.977 172.84 512.008 173.602 518.574 
	Z 
	"/>
</g>
<g fill="#7f7f7f" fill-rule="nonzero" stroke-width="0" stroke-linejoin="miter" stroke-linecap="butt" stroke-miterlimit="4" >
	<path d="
	M 512.957 562.531 
	C 510.164 568.848 504.328 572.637 496.973 572.637 
	C 488.348 572.637 482.008 568.344 478.453 560.258 
	C 476.172 554.953 474.648 544.848 474.648 535.5 
	C 474.648 525.395 475.41 518.07 477.945 511.25 
	C 480.484 503.668 487.84 498.113 496.215 498.113 
	C 506.613 498.113 514.48 505.691 514.984 516.301 
	L 504.586 516.301 
	C 504.328 511.5 501.031 508.219 495.961 508.219 
	C 492.406 508.219 489.617 509.984 487.84 513.523 
	C 485.813 517.059 484.543 525.145 484.543 533.734 
	C 484.543 539.797 485.051 546.113 486.066 551.668 
	C 487.586 558.742 491.141 562.531 496.723 562.531 
	C 502.047 562.531 504.586 558.996 504.586 551.418 
	L 504.586 546.617 
	L 496.469 546.617 
	L 496.469 536.512 
	L 514.984 536.512 
	L 514.984 551.418 
	C 514.984 556.469 514.48 559.5 512.957 562.531 
	Z 
	"/>
</g>
<g fill="#7f7f7f" fill-rule="nonzero" stroke-width="0" stroke-linejoin="miter" stroke-linecap="butt" stroke-miterlimit="4" >
	<path d="
	M 393.992 571.375 
	L 393.992 499.375 
	L 404.07 499.375 
	L 404.07 571.375 
	Z 
	"/>
</g>
<g fill="#7f7f7f" fill-rule="nonzero" stroke-width="0" stroke-linejoin="miter" stroke-linecap="butt" stroke-miterlimit="4" >
	<path d="
	M 452.434 571.375 
	L 430.246 523.121 
	L 430.246 571.375 
	L 419.91 571.375 
	L 419.91 499.375 
	L 430.246 499.375 
	L 449.91 542.574 
	L 449.91 499.375 
	L 460.25 499.375 
	L 460.25 571.375 
	Z 
	"/>
</g>
<g fill="#7f7f7f" fill-rule="nonzero" stroke-width="0" stroke-linejoin="miter" stroke-linecap="butt" stroke-miterlimit="4" >
	<path d="
	M 208.926 509.48 
	L 198.336 509.48 
	L 198.336 527.672 
	L 208.926 527.672 
	C 214.977 527.672 218.254 524.387 218.254 518.574 
	C 218.254 513.016 214.473 509.48 208.926 509.48 
	Z 
	M 217.75 571.375 
	L 208.168 537.523 
	L 198.336 537.523 
	L 198.336 571.375 
	L 188 571.375 
	L 188 499.375 
	L 209.43 499.375 
	C 220.773 499.375 228.34 506.953 228.34 518.574 
	C 228.34 527.168 224.809 533.48 218.004 536.008 
	L 228.34 571.375 
	Z 
	"/>
</g>
<g fill="#7f7f7f" fill-rule="nonzero" stroke-width="0" stroke-linejoin="miter" stroke-linecap="butt" stroke-miterlimit="4" >
	<path d="
	M 269.422 517.312 
	C 267.641 510.996 264.84 508.219 260.516 508.219 
	C 255.934 508.219 253.137 510.996 251.355 517.059 
	C 249.57 522.617 249.063 527.418 249.063 535.5 
	C 249.063 543.332 249.828 547.879 251.355 553.691 
	C 253.137 559.754 255.934 562.531 260.516 562.531 
	C 264.84 562.531 267.641 559.754 269.422 553.691 
	C 271.203 547.879 271.711 543.586 271.711 535.25 
	C 271.711 527.168 270.949 522.617 269.422 517.312 
	Z 
	M 277.566 560.258 
	C 274.004 568.848 268.656 572.637 260.516 572.637 
	C 251.863 572.637 246.773 568.848 243.211 560.258 
	C 240.156 553.184 239.137 546.363 239.137 535.25 
	C 239.137 524.387 240.156 517.059 243.211 510.238 
	C 247.027 501.648 252.117 498.113 260.516 498.113 
	C 268.914 498.113 274.004 501.648 277.566 510.492 
	C 280.617 517.562 281.637 524.387 281.637 535.25 
	C 281.637 546.363 280.617 553.437 277.566 560.258 
	Z 
	"/>
</g>
<g fill="#7f7f7f" fill-rule="nonzero" stroke-width="0" stroke-linejoin="miter" stroke-linecap="butt" stroke-miterlimit="4" >
	<path d="
	M 361.914 538.125 
	C 358.801 536.105 355.773 534.082 353.844 532.723 
	C 348.039 528.637 344.965 523.121 344.965 516.809 
	C 344.965 506.449 353.086 498.113 363.484 498.113 
	C 373.633 498.113 381.496 505.945 381.754 516.809 
	L 371.855 516.809 
	C 371.605 511.754 368.051 508.469 363.484 508.469 
	C 358.664 508.469 354.859 512.008 354.859 516.809 
	C 354.859 520.344 356.383 522.363 361.711 525.395 
	C 375.664 533.48 381.754 541.312 381.754 551.672 
	C 381.754 563.293 372.871 572.637 361.711 572.637 
	C 349.023 572.637 341.414 562.027 341.414 550.152 
	L 351.563 550.152 
	C 351.563 556.219 354.605 562.535 361.711 562.535 
	C 367.289 562.535 371.855 557.48 371.855 551.672 
	C 371.855 547.16 369.992 543.359 361.914 538.125 
	Z 
	"/>
</g>
<g fill="#7f7f7f" fill-rule="nonzero" stroke-width="0" stroke-linejoin="miter" stroke-linecap="butt" stroke-miterlimit="4" >
	<path d="
	M 312.938 538.125 
	C 309.824 536.105 306.797 534.082 304.867 532.723 
	C 299.063 528.637 295.988 523.121 295.988 516.809 
	C 295.988 506.449 304.105 498.113 314.508 498.113 
	C 324.656 498.113 332.52 505.945 332.773 516.809 
	L 322.879 516.809 
	C 322.625 511.754 319.074 508.469 314.508 508.469 
	C 309.688 508.469 305.883 512.008 305.883 516.809 
	C 305.883 520.344 307.402 522.363 312.73 525.395 
	C 326.688 533.48 332.773 541.312 332.773 551.672 
	C 332.773 563.293 323.895 572.637 312.73 572.637 
	C 300.047 572.637 292.438 562.027 292.438 550.152 
	L 302.586 550.152 
	C 302.586 556.219 305.629 562.535 312.73 562.535 
	C 318.313 562.535 322.879 557.48 322.879 551.672 
	C 322.879 547.16 321.016 543.359 312.938 538.125 
	Z 
	"/>
</g>
<g fill="#7f7f7f" fill-rule="nonzero" stroke-width="0" stroke-linejoin="miter" stroke-linecap="butt" stroke-miterlimit="4" >
	<path d="
	M 373.82 688.375 
	L 373.82 616.375 
	L 407.773 616.375 
	L 407.773 626.48 
	L 384.211 626.48 
	L 384.211 644.668 
	L 399.16 644.668 
	L 399.16 654.523 
	L 384.211 654.523 
	L 384.211 678.27 
	L 410.563 678.27 
	L 410.563 688.375 
	Z 
	"/>
</g>
<g fill="#7f7f7f" fill-rule="nonzero" stroke-width="0" stroke-linejoin="miter" stroke-linecap="butt" stroke-miterlimit="4" >
	<path d="
	M 284.508 688.375 
	L 284.508 616.375 
	L 294.586 616.375 
	L 294.586 688.375 
	Z 
	"/>
</g>
<g fill="#7f7f7f" fill-rule="nonzero" stroke-width="0" stroke-linejoin="miter" stroke-linecap="butt" stroke-miterlimit="4" >
	<path d="
	M 347.609 688.375 
	L 347.609 647.953 
	L 334.203 688.375 
	L 320.797 647.953 
	L 320.797 688.375 
	L 310.426 688.375 
	L 310.426 616.375 
	L 320.797 616.375 
	L 334.203 656.797 
	L 347.609 616.375 
	L 357.98 616.375 
	L 357.98 688.375 
	Z 
	"/>
</g>
<g fill="#7f7f7f" fill-rule="nonzero" stroke-width="0" stroke-linejoin="miter" stroke-linecap="butt" stroke-miterlimit="4" >
	<path d="
	M 261.254 625.977 
	L 261.254 688.375 
	L 250.863 688.375 
	L 250.863 625.977 
	L 237.688 625.977 
	L 237.688 616.375 
	L 274.43 616.375 
	L 274.43 625.977 
	Z 
	"/>
</g>
<g fill="#7f7f7f" fill-rule="nonzero" stroke-width="0" stroke-linejoin="miter" stroke-linecap="butt" stroke-miterlimit="4" >
	<path d="
	M 413.906 103.375 
	L 413.906 70.785 
	L 394.238 70.785 
	L 394.238 103.375 
	L 383.902 103.375 
	L 383.902 31.375 
	L 394.238 31.375 
	L 394.238 60.68 
	L 413.906 60.68 
	L 413.906 31.375 
	L 424.242 31.375 
	L 424.242 103.375 
	Z 
	"/>
</g>
<g fill="#7f7f7f" fill-rule="nonzero" stroke-width="0" stroke-linejoin="miter" stroke-linecap="butt" stroke-miterlimit="4" >
	<path d="
	M 244.934 41.48 
	L 234.348 41.48 
	L 234.348 61.945 
	L 244.934 61.945 
	C 250.984 61.945 254.262 58.156 254.262 51.586 
	C 254.262 45.523 250.48 41.48 244.934 41.48 
	Z 
	M 245.438 71.797 
	L 234.348 71.797 
	L 234.348 103.375 
	L 224.008 103.375 
	L 224.008 31.375 
	L 245.438 31.375 
	C 256.785 31.375 264.348 39.461 264.348 51.586 
	C 264.348 64.723 257.539 71.797 245.438 71.797 
	Z 
	"/>
</g>
<g fill="#7f7f7f" fill-rule="nonzero" stroke-width="0" stroke-linejoin="miter" stroke-linecap="butt" stroke-miterlimit="4" >
	<path d="
	M 351.828 70.125 
	C 348.711 68.105 345.688 66.082 343.758 64.723 
	C 337.949 60.637 334.879 55.121 334.879 48.809 
	C 334.879 38.449 342.996 30.113 353.395 30.113 
	C 363.547 30.113 371.41 37.945 371.664 48.809 
	L 361.77 48.809 
	C 361.516 43.754 357.965 40.469 353.395 40.469 
	C 348.574 40.469 344.77 44.008 344.77 48.809 
	C 344.77 52.344 346.293 54.363 351.621 57.395 
	C 365.574 65.48 371.664 73.312 371.664 83.672 
	C 371.664 95.293 362.781 104.637 351.621 104.637 
	C 338.938 104.637 331.324 94.027 331.324 82.152 
	L 341.473 82.152 
	C 341.473 88.219 344.52 94.535 351.621 94.535 
	C 357.203 94.535 361.77 89.48 361.77 83.672 
	C 361.77 79.16 359.902 75.359 351.828 70.125 
	Z 
	"/>
</g>
<g fill="#7f7f7f" fill-rule="nonzero" stroke-width="0" stroke-linejoin="miter" stroke-linecap="butt" stroke-miterlimit="4" >
	<path d="
	M 316.313 94.535 
	C 312.781 100.344 305.977 104.637 299.168 104.637 
	C 292.109 104.637 285.051 100.598 281.52 94.535 
	C 279.504 90.742 278.746 87.711 278.746 81.902 
	L 278.746 31.375 
	L 289.082 31.375 
	L 289.082 83.164 
	C 289.082 89.984 293.117 94.535 299.168 94.535 
	C 304.715 94.535 308.75 89.984 308.75 83.164 
	L 308.75 31.375 
	L 319.086 31.375 
	L 319.086 81.902 
	C 319.086 87.711 318.328 90.742 316.313 94.535 
	Z 
	"/>
</g>
<g fill="#7f7f7f" fill-rule="nonzero" stroke-width="0" stroke-linejoin="miter" stroke-linecap="butt" stroke-miterlimit="4" >
	<path d="
	M 322.363 284.574 
	C 321.348 277.5 318.559 274.219 313.738 274.219 
	C 305.363 274.219 302.32 280.785 302.32 299.48 
	C 302.32 320.195 305.871 328.531 314.754 328.531 
	C 320.84 328.531 322.363 323.48 322.363 318.176 
	L 332.766 318.176 
	C 332.512 330.051 324.898 338.637 314.754 338.637 
	C 299.277 338.637 292.426 326.258 292.426 299.734 
	C 292.426 276.492 299.785 264.113 313.992 264.113 
	C 319.824 264.113 324.898 266.637 328.199 271.437 
	C 330.988 274.977 332.004 278.008 332.766 284.574 
	Z 
	"/>
</g>
<g fill="#7f7f7f" fill-rule="nonzero" stroke-width="0" stroke-linejoin="miter" stroke-linecap="butt" stroke-miterlimit="4" >
	<path d="
	M 487.035 282.805 
	C 485.27 277.754 482.246 275.48 477.707 275.48 
	L 469.137 275.48 
	L 469.137 327.27 
	L 477.707 327.27 
	C 483.758 327.27 487.035 322.469 488.043 316.91 
	C 488.551 312.363 489.055 307.312 489.055 301.754 
	C 489.055 293.668 488.297 285.84 487.035 282.805 
	Z 
	M 488.801 334.09 
	C 486.281 336.363 482.75 337.375 478.715 337.375 
	L 458.801 337.375 
	L 458.801 265.375 
	L 477.203 265.375 
	C 483.254 265.375 486.281 266.133 488.801 268.152 
	C 493.086 271.184 496.113 276.742 497.371 284.07 
	C 498.383 289.375 499.137 295.691 499.137 301.25 
	C 499.137 317.922 495.859 328.531 488.801 334.09 
	Z 
	"/>
</g>
<g fill="#7f7f7f" fill-rule="nonzero" stroke-width="0" stroke-linejoin="miter" stroke-linecap="butt" stroke-miterlimit="4" >
	<path d="
	M 244.891 337.375 
	L 244.891 265.375 
	L 278.84 265.375 
	L 278.84 275.48 
	L 255.277 275.48 
	L 255.277 293.668 
	L 270.227 293.668 
	L 270.227 303.523 
	L 255.277 303.523 
	L 255.277 327.27 
	L 281.629 327.27 
	L 281.629 337.375 
	Z 
	"/>
</g>
<g fill="#7f7f7f" fill-rule="nonzero" stroke-width="0" stroke-linejoin="miter" stroke-linecap="butt" stroke-miterlimit="4" >
	<path d="
	M 435.145 337.375 
	L 412.957 289.121 
	L 412.957 337.375 
	L 402.621 337.375 
	L 402.621 265.375 
	L 412.957 265.375 
	L 432.621 308.574 
	L 432.621 265.375 
	L 442.961 265.375 
	L 442.961 337.375 
	Z 
	"/>
</g>
<g fill="#7f7f7f" fill-rule="nonzero" stroke-width="0" stroke-linejoin="miter" stroke-linecap="butt" stroke-miterlimit="4" >
	<path d="
	M 376.008 283.312 
	C 374.227 276.996 371.426 274.219 367.102 274.219 
	C 362.52 274.219 359.723 276.996 357.938 283.059 
	C 356.156 288.617 355.648 293.418 355.648 301.5 
	C 355.648 309.332 356.41 313.879 357.938 319.691 
	C 359.723 325.754 362.52 328.535 367.102 328.535 
	C 371.426 328.535 374.227 325.754 376.008 319.691 
	C 377.785 313.879 378.297 309.586 378.297 301.25 
	C 378.297 293.164 377.531 288.617 376.008 283.312 
	Z 
	M 384.148 326.258 
	C 380.59 334.848 375.242 338.641 367.102 338.641 
	C 358.445 338.641 353.359 334.848 349.797 326.258 
	C 346.742 319.187 345.723 312.363 345.723 301.25 
	C 345.723 290.387 346.742 283.059 349.797 276.238 
	C 353.613 267.648 358.703 264.113 367.102 264.113 
	C 375.496 264.113 380.59 267.648 384.148 276.492 
	C 387.203 283.566 388.223 290.387 388.223 301.25 
	C 388.223 312.363 387.203 319.437 384.148 326.258 
	Z 
	"/>
</g>
<g fill="#7f7f7f" fill-rule="nonzero" stroke-width="0" stroke-linejoin="miter" stroke-linecap="butt" stroke-miterlimit="4" >
	<path d="
	M 212.813 304.125 
	C 209.699 302.105 206.672 300.082 204.742 298.723 
	C 198.938 294.637 195.863 289.121 195.863 282.809 
	C 195.863 272.449 203.98 264.113 214.383 264.113 
	C 224.531 264.113 232.395 271.945 232.648 282.809 
	L 222.754 282.809 
	C 222.5 277.754 218.949 274.469 214.383 274.469 
	C 209.563 274.469 205.758 278.008 205.758 282.809 
	C 205.758 286.344 207.277 288.363 212.605 291.395 
	C 226.563 299.48 232.648 307.312 232.648 317.672 
	C 232.648 329.293 223.77 338.637 212.605 338.637 
	C 199.922 338.637 192.313 328.027 192.313 316.152 
	L 202.461 316.152 
	C 202.461 322.219 205.504 328.535 212.605 328.535 
	C 218.188 328.535 222.754 323.48 222.754 317.672 
	C 222.754 313.16 220.891 309.359 212.813 304.125 
	Z 
	"/>
</g>
<g fill="#7f7f7f" fill-rule="nonzero" stroke-width="0" stroke-linejoin="miter" stroke-linecap="butt" stroke-miterlimit="4" >
	<path d="
	M 530.441 304.125 
	C 527.324 302.105 524.301 300.082 522.371 298.723 
	C 516.566 294.637 513.488 289.121 513.488 282.809 
	C 513.488 272.449 521.609 264.113 532.012 264.113 
	C 542.16 264.113 550.023 271.945 550.277 282.809 
	L 540.383 282.809 
	C 540.129 277.754 536.578 274.469 532.012 274.469 
	C 527.191 274.469 523.383 278.008 523.383 282.809 
	C 523.383 286.344 524.906 288.363 530.234 291.395 
	C 544.188 299.48 550.277 307.312 550.277 317.672 
	C 550.277 329.293 541.398 338.637 530.234 338.637 
	C 517.551 338.637 509.938 328.027 509.938 316.152 
	L 520.086 316.152 
	C 520.086 322.219 523.129 328.535 530.234 328.535 
	C 535.816 328.535 540.383 323.48 540.383 317.672 
	C 540.383 313.16 538.52 309.359 530.441 304.125 
	Z 
	"/>
</g>
<g fill="#7f7f7f" fill-rule="nonzero" stroke-width="0" stroke-linejoin="miter" stroke-linecap="butt" stroke-miterlimit="4" >
	<path d="
	M 122.434 305.539 
	C 117.836 308.75 113.32 314.437 110.656 321.711 
	C 109.996 323.52 109.645 324.742 109.137 327.27 
	L 138.313 327.27 
	L 138.313 337.375 
	L 97.9727 337.375 
	C 98.4805 327.523 99.2422 323.984 101.523 317.672 
	C 104.57 310.09 108.375 304.281 113.195 299.734 
	C 114.973 298.219 116.492 296.953 122.328 292.91 
	C 127.148 289.629 128.418 287.859 128.418 284.324 
	C 128.418 278.766 123.852 274.219 118.27 274.219 
	C 112.688 274.219 108.121 278.766 108.121 284.324 
	L 97.9727 284.324 
	C 98.2266 272.953 106.852 264.113 118.27 264.113 
	C 129.434 264.113 138.313 273.207 138.313 284.324 
	C 138.313 295.812 131.43 299.25 122.434 305.539 
	Z 
	"/>
</g>
<g fill="#7f7f7f" fill-rule="nonzero" stroke-width="0" stroke-linejoin="miter" stroke-linecap="butt" stroke-miterlimit="4" >
	<path d="
	M 103.156 187.785 
	L 92.8203 187.785 
	L 92.8203 210.27 
	L 103.156 210.27 
	C 108.957 210.27 112.738 206.227 112.738 199.91 
	C 112.738 193.09 108.453 187.785 103.156 187.785 
	Z 
	M 103.66 158.48 
	L 92.8203 158.48 
	L 92.8203 177.68 
	L 103.66 177.68 
	C 108.453 177.68 111.477 173.637 111.477 167.07 
	C 111.477 161.008 109.211 158.48 103.66 158.48 
	Z 
	M 103.66 220.375 
	L 82.4844 220.375 
	L 82.4844 148.375 
	L 105.176 148.375 
	C 114.758 148.375 121.563 155.953 121.563 167.07 
	C 121.563 173.637 119.797 176.668 114 182.734 
	C 119.547 187.281 122.824 193.344 122.824 200.668 
	C 122.824 211.531 114.25 220.375 103.66 220.375 
	Z 
	"/>
</g>
<g fill="#7f7f7f" fill-rule="nonzero" stroke-width="0" stroke-linejoin="miter" stroke-linecap="butt" stroke-miterlimit="4" >
	<path d="
	M 433.539 158.48 
	L 433.539 176.668 
	L 447.98 176.668 
	L 447.98 186.523 
	L 433.539 186.523 
	L 433.539 220.375 
	L 423.152 220.375 
	L 423.152 148.375 
	L 459.891 148.375 
	L 459.891 158.48 
	Z 
	"/>
</g>
<g fill="#7f7f7f" fill-rule="nonzero" stroke-width="0" stroke-linejoin="miter" stroke-linecap="butt" stroke-miterlimit="4" >
	<path d="
	M 361.336 220.375 
	L 339.148 172.121 
	L 339.148 220.375 
	L 328.813 220.375 
	L 328.813 148.375 
	L 339.148 148.375 
	L 358.813 191.574 
	L 358.813 148.375 
	L 369.152 148.375 
	L 369.152 220.375 
	Z 
	"/>
</g>
<g fill="#7f7f7f" fill-rule="nonzero" stroke-width="0" stroke-linejoin="miter" stroke-linecap="butt" stroke-miterlimit="4" >
	<path d="
	M 302.199 166.312 
	C 300.418 159.996 297.617 157.219 293.293 157.219 
	C 288.711 157.219 285.914 159.996 284.133 166.059 
	C 282.352 171.617 281.84 176.418 281.84 184.5 
	C 281.84 192.332 282.605 196.879 284.133 202.691 
	C 285.914 208.754 288.711 211.535 293.293 211.535 
	C 297.617 211.535 300.418 208.754 302.199 202.691 
	C 303.98 196.879 304.488 192.586 304.488 184.25 
	C 304.488 176.164 303.727 171.617 302.199 166.312 
	Z 
	M 310.344 209.258 
	C 306.781 217.848 301.438 221.641 293.293 221.641 
	C 284.641 221.641 279.551 217.848 275.988 209.258 
	C 272.934 202.187 271.914 195.363 271.914 184.25 
	C 271.914 173.387 272.934 166.059 275.988 159.238 
	C 279.805 150.648 284.895 147.113 293.293 147.113 
	C 301.691 147.113 306.781 150.648 310.344 159.492 
	C 313.395 166.566 314.414 173.387 314.414 184.25 
	C 314.414 195.363 313.395 202.437 310.344 209.258 
	Z 
	"/>
</g>
<g fill="#7f7f7f" fill-rule="nonzero" stroke-width="0" stroke-linejoin="miter" stroke-linecap="butt" stroke-miterlimit="4" >
	<path d="
	M 498.813 166.312 
	C 497.031 159.996 494.23 157.219 489.906 157.219 
	C 485.324 157.219 482.527 159.996 480.746 166.059 
	C 478.961 171.617 478.453 176.418 478.453 184.5 
	C 478.453 192.332 479.219 196.879 480.746 202.691 
	C 482.527 208.754 485.324 211.535 489.906 211.535 
	C 494.23 211.535 497.031 208.754 498.813 202.691 
	C 500.594 196.879 501.102 192.586 501.102 184.25 
	C 501.102 176.164 500.34 171.617 498.813 166.312 
	Z 
	M 506.957 209.258 
	C 503.395 217.848 498.047 221.641 489.906 221.641 
	C 481.254 221.641 476.164 217.848 472.602 209.258 
	C 469.547 202.187 468.527 195.363 468.527 184.25 
	C 468.527 173.387 469.547 166.059 472.602 159.238 
	C 476.418 150.648 481.508 147.113 489.906 147.113 
	C 498.305 147.113 503.395 150.648 506.957 159.492 
	C 510.008 166.566 511.027 173.387 511.027 184.25 
	C 511.027 195.363 510.008 202.437 506.957 209.258 
	Z 
	"/>
</g>
<g fill="#7f7f7f" fill-rule="nonzero" stroke-width="0" stroke-linejoin="miter" stroke-linecap="butt" stroke-miterlimit="4" >
	<path d="
	M 546.352 158.48 
	L 535.762 158.48 
	L 535.762 176.672 
	L 546.352 176.672 
	C 552.402 176.672 555.68 173.387 555.68 167.574 
	C 555.68 162.016 551.898 158.48 546.352 158.48 
	Z 
	M 555.176 220.375 
	L 545.594 186.523 
	L 535.762 186.523 
	L 535.762 220.375 
	L 525.426 220.375 
	L 525.426 148.375 
	L 546.855 148.375 
	C 558.199 148.375 565.766 155.953 565.766 167.574 
	C 565.766 176.164 562.234 182.48 555.426 185.008 
	L 565.766 220.375 
	Z 
	"/>
</g>
<g fill="#7f7f7f" fill-rule="nonzero" stroke-width="0" stroke-linejoin="miter" stroke-linecap="butt" stroke-miterlimit="4" >
	<path d="
	M 209.043 157.977 
	L 209.043 220.375 
	L 198.656 220.375 
	L 198.656 157.977 
	L 185.48 157.977 
	L 185.48 148.375 
	L 222.219 148.375 
	L 222.219 157.977 
	Z 
	"/>
</g>
<g fill="#7f7f7f" fill-rule="nonzero" stroke-width="0" stroke-linejoin="miter" stroke-linecap="butt" stroke-miterlimit="4" >
	<path d="
	M 250.102 157.977 
	L 250.102 220.375 
	L 239.715 220.375 
	L 239.715 157.977 
	L 226.539 157.977 
	L 226.539 148.375 
	L 263.277 148.375 
	L 263.277 157.977 
	Z 
	"/>
</g>
<g fill="#7f7f7f" fill-rule="nonzero" stroke-width="0" stroke-linejoin="miter" stroke-linecap="butt" stroke-miterlimit="4" >
	<path d="
	M 172.629 211.535 
	C 169.098 217.344 162.293 221.637 155.484 221.637 
	C 148.426 221.637 141.367 217.598 137.836 211.535 
	C 135.82 207.742 135.063 204.711 135.063 198.902 
	L 135.063 148.375 
	L 145.398 148.375 
	L 145.398 200.164 
	C 145.398 206.984 149.434 211.535 155.484 211.535 
	C 161.031 211.535 165.066 206.984 165.066 200.164 
	L 165.066 148.375 
	L 175.402 148.375 
	L 175.402 198.902 
	C 175.402 204.711 174.645 207.742 172.629 211.535 
	Z 
	"/>
</g>
<g fill="#7f7f7f" fill-rule="nonzero" stroke-width="0" stroke-linejoin="miter" stroke-linecap="butt" stroke-miterlimit="4" >
	<path d="
	M 514.016 403.848 
	L 508.949 424.566 
	L 519.332 424.566 
	Z 
	M 526.934 454.375 
	L 521.867 434.668 
	L 506.414 434.668 
	L 501.602 454.375 
	L 491.219 454.375 
	L 509.203 382.375 
	L 519.332 382.375 
	L 537.316 454.375 
	Z 
	"/>
</g>
<g fill="#7f7f7f" fill-rule="nonzero" stroke-width="0" stroke-linejoin="miter" stroke-linecap="butt" stroke-miterlimit="4" >
	<path d="
	M 307.547 454.375 
	L 307.547 382.375 
	L 341.496 382.375 
	L 341.496 392.48 
	L 317.934 392.48 
	L 317.934 410.668 
	L 332.883 410.668 
	L 332.883 420.523 
	L 317.934 420.523 
	L 317.934 444.27 
	L 344.285 444.27 
	L 344.285 454.375 
	Z 
	"/>
</g>
<g fill="#7f7f7f" fill-rule="nonzero" stroke-width="0" stroke-linejoin="miter" stroke-linecap="butt" stroke-miterlimit="4" >
	<path d="
	M 465.324 392.48 
	L 454.734 392.48 
	L 454.734 410.672 
	L 465.324 410.672 
	C 471.375 410.672 474.652 407.387 474.652 401.574 
	C 474.652 396.016 470.871 392.48 465.324 392.48 
	Z 
	M 474.148 454.375 
	L 464.566 420.523 
	L 454.734 420.523 
	L 454.734 454.375 
	L 444.398 454.375 
	L 444.398 382.375 
	L 465.828 382.375 
	C 477.176 382.375 484.738 389.953 484.738 401.574 
	C 484.738 410.164 481.211 416.48 474.402 419.008 
	L 484.738 454.375 
	Z 
	"/>
</g>
<g fill="#7f7f7f" fill-rule="nonzero" stroke-width="0" stroke-linejoin="miter" stroke-linecap="butt" stroke-miterlimit="4" >
	<path d="
	M 121.32 392.48 
	L 121.32 410.668 
	L 135.766 410.668 
	L 135.766 420.523 
	L 121.32 420.523 
	L 121.32 454.375 
	L 110.934 454.375 
	L 110.934 382.375 
	L 147.672 382.375 
	L 147.672 392.48 
	Z 
	"/>
</g>
<g fill="#7f7f7f" fill-rule="nonzero" stroke-width="0" stroke-linejoin="miter" stroke-linecap="butt" stroke-miterlimit="4" >
	<path d="
	M 186.594 400.312 
	C 184.813 393.996 182.016 391.219 177.688 391.219 
	C 173.105 391.219 170.309 393.996 168.527 400.059 
	C 166.742 405.617 166.234 410.418 166.234 418.5 
	C 166.234 426.332 167 430.879 168.527 436.691 
	C 170.309 442.754 173.105 445.535 177.688 445.535 
	C 182.016 445.535 184.813 442.754 186.594 436.691 
	C 188.375 430.879 188.887 426.586 188.887 418.25 
	C 188.887 410.164 188.121 405.617 186.594 400.312 
	Z 
	M 194.738 443.258 
	C 191.176 451.848 185.828 455.641 177.688 455.641 
	C 169.035 455.641 163.945 451.848 160.383 443.258 
	C 157.328 436.187 156.313 429.363 156.313 418.25 
	C 156.313 407.387 157.328 400.059 160.383 393.238 
	C 164.199 384.648 169.289 381.113 177.688 381.113 
	C 186.086 381.113 191.176 384.648 194.738 393.492 
	C 197.789 400.566 198.809 407.387 198.809 418.25 
	C 198.809 429.363 197.789 436.437 194.738 443.258 
	Z 
	"/>
</g>
<g fill="#7f7f7f" fill-rule="nonzero" stroke-width="0" stroke-linejoin="miter" stroke-linecap="butt" stroke-miterlimit="4" >
	<path d="
	M 234.133 392.48 
	L 223.547 392.48 
	L 223.547 410.672 
	L 234.133 410.672 
	C 240.184 410.672 243.461 407.387 243.461 401.574 
	C 243.461 396.016 239.68 392.48 234.133 392.48 
	Z 
	M 242.957 454.375 
	L 233.379 420.523 
	L 223.547 420.523 
	L 223.547 454.375 
	L 213.211 454.375 
	L 213.211 382.375 
	L 234.641 382.375 
	C 245.984 382.375 253.547 389.953 253.547 401.574 
	C 253.547 410.164 250.02 416.48 243.211 419.008 
	L 253.547 454.375 
	Z 
	"/>
</g>
<g fill="#7f7f7f" fill-rule="nonzero" stroke-width="0" stroke-linejoin="miter" stroke-linecap="butt" stroke-miterlimit="4" >
	<path d="
	M 421.145 391.977 
	L 421.145 454.375 
	L 410.758 454.375 
	L 410.758 391.977 
	L 397.582 391.977 
	L 397.582 382.375 
	L 434.32 382.375 
	L 434.32 391.977 
	Z 
	"/>
</g>
<g fill="#7f7f7f" fill-rule="nonzero" stroke-width="0" stroke-linejoin="miter" stroke-linecap="butt" stroke-miterlimit="4" >
	<path d="
	M 382.066 454.375 
	L 371.887 429.871 
	L 361.707 454.375 
	L 350.766 454.375 
	L 366.543 416.984 
	L 351.781 382.375 
	L 362.727 382.375 
	L 371.887 404.102 
	L 381.047 382.375 
	L 391.988 382.375 
	L 377.484 416.984 
	L 393.262 454.375 
	Z 
	"/>
</g>
</g >
</g>
</svg>
