<?xml version="1.0" encoding="UTF-8" standalone="no"?>
<!-- Created with Inkscape (http://www.inkscape.org/) -->

<svg
   version="1.1"
   id="svg1"
   width="3456.6667"
   height="2304.6667"
   viewBox="0 0 3456.6667 2304.6667"
   sodipodi:docname="tmp6v6nrz5c.pdf"
   xmlns:inkscape="http://www.inkscape.org/namespaces/inkscape"
   xmlns:sodipodi="http://sodipodi.sourceforge.net/DTD/sodipodi-0.dtd"
   xmlns="http://www.w3.org/2000/svg"
   xmlns:svg="http://www.w3.org/2000/svg">
  <defs
     id="defs1" />
  <sodipodi:namedview
     id="namedview1"
     pagecolor="#ffffff"
     bordercolor="#000000"
     borderopacity="0.25"
     inkscape:showpageshadow="2"
     inkscape:pageopacity="0.0"
     inkscape:pagecheckerboard="0"
     inkscape:deskcolor="#d1d1d1">
    <inkscape:page
       x="0"
       y="0"
       inkscape:label="1"
       id="page1"
       width="3456.6667"
       height="2304.6667"
       margin="0"
       bleed="0" />
  </sodipodi:namedview>
  <g
     id="g1"
     inkscape:groupmode="layer"
     inkscape:label="1">
    <g
       id="group-R5">
      <path
         id="path2"
         d="M 25922.5,1082.5 C 25922.5,486 25439,2.5 24842.5,2.5 H 1082.5 C 486.031,2.5 2.5,486 2.5,1082.5 v 15120 c 0,596.5 483.531,1080 1080,1080 h 23760 c 596.5,0 1080,-483.5 1080,-1080 v -15120"
         style="fill:#ffffff;fill-opacity:1;fill-rule:nonzero;stroke:none"
         transform="matrix(0.13333333,0,0,-0.13333333,0,2304.6667)" />
      <path
         id="path3"
         d="M 25922.5,1082.5 C 25922.5,486 25439,2.5 24842.5,2.5 H 1082.5 C 486.031,2.5 2.5,486 2.5,1082.5 v 15120 c 0,596.5 483.531,1080 1080,1080 h 23760 c 596.5,0 1080,-483.5 1080,-1080 z"
         style="fill:none;stroke:#231f20;stroke-width:5;stroke-linecap:butt;stroke-linejoin:miter;stroke-miterlimit:4;stroke-dasharray:none;stroke-opacity:1"
         transform="matrix(0.13333333,0,0,-0.13333333,0,2304.6667)" />
      <path
         id="path4"
         d="m 25202.5,1082.5 c 0,-198.5 -161.5,-360 -360,-360 h -23760 c -198.508,0 -360,161.5 -360,360 v 15120 c 0,198.5 161.492,360 360,360 h 23760 c 198.5,0 360,-161.5 360,-360 z m -360,15930 h -23760 c -446.637,0 -810,-363.4 -810,-810 v -15120 c 0,-446.598 363.363,-810 810,-810 h 23760 c 446.6,0 810,363.402 810,810 v 15120 c 0,446.6 -363.4,810 -810,810"
         style="fill:#231f20;fill-opacity:1;fill-rule:nonzero;stroke:none"
         transform="matrix(0.13333333,0,0,-0.13333333,0,2304.6667)" />
      <path
         id="path5"
         d="m 8215.68,7278.3 -151.97,-621.5 h 311.55 z m 387.53,-1515.8 -151.97,591.2 h -463.51 l -144.37,-591.2 h -311.54 l 539.49,2160 h 303.95 l 539.5,-2160 h -311.55"
         style="fill:#231f20;fill-opacity:1;fill-rule:nonzero;stroke:none"
         transform="matrix(0.13333333,0,0,-0.13333333,0,2304.6667)" />
      <path
         id="path6"
         d="m 17326.4,7278.3 -152,-621.5 h 311.6 z m 387.5,-1515.8 -152,591.2 h -463.5 l -144.3,-591.2 h -311.6 l 539.5,2160 h 304 l 539.4,-2160 h -311.5"
         style="fill:#231f20;fill-opacity:1;fill-rule:nonzero;stroke:none"
         transform="matrix(0.13333333,0,0,-0.13333333,0,2304.6667)" />
      <path
         id="path7"
         d="m 13658.7,7346.5 c -30.4,212.21 -114.1,310.75 -258.8,310.75 -251.1,0 -342.4,-197.05 -342.4,-757.95 0,-621.4 106.5,-871.5 372.9,-871.5 182.6,0 228.3,151.5 228.3,310.7 h 312.1 c -7.6,-356.2 -236,-613.9 -540.4,-613.9 -464.3,0 -669.8,371.4 -669.8,1167.2 0,697.23 220.7,1068.6 647,1068.6 175,0 327.2,-75.79 426.2,-219.79 83.7,-106.1 114.1,-197.06 137,-394.11 h -312.1"
         style="fill:#231f20;fill-opacity:1;fill-rule:nonzero;stroke:none"
         transform="matrix(0.13333333,0,0,-0.13333333,0,2304.6667)" />
      <path
         id="path8"
         d="M 9528.8,7619.36 V 7073.7 h 433.26 V 6778.1 H 9528.8 V 5762.5 h -311.64 v 2160 h 1102.14 v -303.14 h -790.5"
         style="fill:#231f20;fill-opacity:1;fill-rule:nonzero;stroke:none"
         transform="matrix(0.13333333,0,0,-0.13333333,0,2304.6667)" />
      <path
         id="path9"
         d="M 10933.3,7619.36 V 7073.7 h 433.3 v -295.6 h -433.3 V 5762.5 h -311.6 v 2160 h 1102.1 v -303.14 h -790.5"
         style="fill:#231f20;fill-opacity:1;fill-rule:nonzero;stroke:none"
         transform="matrix(0.13333333,0,0,-0.13333333,0,2304.6667)" />
      <path
         id="path10"
         d="m 12026.2,5762.5 v 2160 h 302.4 v -2160 h -302.4"
         style="fill:#231f20;fill-opacity:1;fill-rule:nonzero;stroke:none"
         transform="matrix(0.13333333,0,0,-0.13333333,0,2304.6667)" />
      <path
         id="path11"
         d="m 15410.8,5762.5 v 2160 h 311.6 v -1872 h 790.5 v -288 h -1102.1"
         style="fill:#231f20;fill-opacity:1;fill-rule:nonzero;stroke:none"
         transform="matrix(0.13333333,0,0,-0.13333333,0,2304.6667)" />
      <path
         id="path12"
         d="M 6755.04,7619.36 H 6437.37 V 7073.7 h 317.67 c 181.52,0 279.84,98.5 279.84,272.8 0,166.74 -113.44,272.86 -279.84,272.86 z M 7019.76,5762.5 6732.34,6778.1 H 6437.37 V 5762.5 h -310.09 v 2160 h 642.88 c 340.36,0 567.26,-227.36 567.26,-576 0,-257.7 -105.89,-447.2 -310.1,-522.9 l 310.1,-1061.1 h -317.66"
         style="fill:#231f20;fill-opacity:1;fill-rule:nonzero;stroke:none"
         transform="matrix(0.13333333,0,0,-0.13333333,0,2304.6667)" />
      <path
         id="path13"
         d="m 20607.2,6760 c -93.5,60.6 -184.2,121.3 -242.1,162.1 -174.2,122.6 -266.4,288 -266.4,477.46 0,310.73 243.5,560.85 555.6,560.85 304.4,0 540.3,-234.96 548,-560.85 h -296.9 c -7.6,151.57 -114.1,250.11 -251.1,250.11 -144.6,0 -258.8,-106.12 -258.8,-250.11 0,-106.1 45.7,-166.76 205.5,-257.66 418.6,-242.6 601.3,-477.5 601.3,-788.2 0,-348.7 -266.4,-629.1 -601.3,-629.1 -380.6,0 -608.9,318.3 -608.9,674.5 h 304.5 c 0,-181.9 91.3,-371.3 304.4,-371.3 167.4,0 304.4,151.5 304.4,325.9 0,135.3 -55.9,249.3 -298.2,406.3"
         style="fill:#231f20;fill-opacity:1;fill-rule:nonzero;stroke:none"
         transform="matrix(0.13333333,0,0,-0.13333333,0,2304.6667)" />
      <path
         id="path14"
         d="M 5429.63,7634.51 V 5762.5 h -311.64 v 1872.01 h -395.26 v 287.99 h 1102.14 v -287.99 h -395.24"
         style="fill:#231f20;fill-opacity:1;fill-rule:nonzero;stroke:none"
         transform="matrix(0.13333333,0,0,-0.13333333,0,2304.6667)" />
      <path
         id="path15"
         d="m 19447.9,5762.5 h -266.2 l -205.3,1129.3 -205.3,-1129.3 h -273.8 l -342.2,2160 h 304.1 l 182.6,-1152 212.9,1152 h 243.4 l 205.3,-1152 190.1,1152 h 304.2 l -349.8,-2160"
         style="fill:#231f20;fill-opacity:1;fill-rule:nonzero;stroke:none"
         transform="matrix(0.13333333,0,0,-0.13333333,0,2304.6667)" />
      <path
         id="path16"
         d="m 5017.95,2162.5 v 977.7 h -589.94 v -977.7 h -310.1 v 2160 h 310.1 v -879.2 h 589.94 v 879.2 h 310.1 v -2160 h -310.1"
         style="fill:#231f20;fill-opacity:1;fill-rule:nonzero;stroke:none"
         transform="matrix(0.13333333,0,0,-0.13333333,0,2304.6667)" />
      <path
         id="path17"
         d="m 6668.54,3784.4 c -53.44,189.5 -137.41,272.8 -267.2,272.8 -137.41,0 -221.4,-83.3 -274.84,-265.2 -53.44,-166.8 -68.71,-310.8 -68.71,-553.3 0,-234.9 22.9,-371.4 68.71,-545.7 53.44,-181.9 137.43,-265.2 274.84,-265.2 129.79,0 213.76,83.3 267.2,265.2 53.45,174.3 68.71,303.2 68.71,553.3 0,242.5 -22.89,378.9 -68.71,538.1 z M 6912.83,2496 c -106.87,-257.7 -267.19,-371.4 -511.49,-371.4 -259.57,0 -412.26,113.7 -519.14,371.4 -91.61,212.2 -122.15,416.8 -122.15,750.3 0,325.9 30.54,545.7 122.15,750.3 114.52,257.7 267.21,363.8 519.14,363.8 251.94,0 404.62,-106.1 511.49,-371.4 91.62,-212.2 122.17,-416.8 122.17,-742.7 0,-333.5 -30.55,-545.7 -122.17,-750.3"
         style="fill:#231f20;fill-opacity:1;fill-rule:nonzero;stroke:none"
         transform="matrix(0.13333333,0,0,-0.13333333,0,2304.6667)" />
      <path
         id="path18"
         d="m 9564.02,3784.4 c -53.43,189.5 -137.4,272.8 -267.19,272.8 -137.42,0 -221.4,-83.3 -274.84,-265.2 -53.44,-166.8 -68.71,-310.8 -68.71,-553.3 0,-234.9 22.91,-371.4 68.71,-545.7 53.44,-181.9 137.42,-265.2 274.84,-265.2 129.79,0 213.76,83.3 267.19,265.2 53.46,174.3 68.71,303.2 68.71,553.3 0,242.5 -22.89,378.9 -68.71,538.1 z M 9808.32,2496 c -106.87,-257.7 -267.19,-371.4 -511.49,-371.4 -259.57,0 -412.26,113.7 -519.13,371.4 -91.63,212.2 -122.15,416.8 -122.15,750.3 0,325.9 30.52,545.7 122.15,750.3 114.51,257.7 267.2,363.8 519.13,363.8 251.94,0 404.62,-106.1 511.49,-371.4 91.62,-212.2 122.17,-416.8 122.17,-742.7 0,-333.5 -30.55,-545.7 -122.17,-750.3"
         style="fill:#231f20;fill-opacity:1;fill-rule:nonzero;stroke:none"
         transform="matrix(0.13333333,0,0,-0.13333333,0,2304.6667)" />
      <path
         id="path19"
         d="m 3103.52,4019.3 h -317.67 v -613.9 h 317.67 c 181.52,0 279.84,113.7 279.84,310.8 0,181.9 -113.46,303.1 -279.84,303.1 z m 15.13,-909.4 h -332.8 v -947.4 h -310.09 v 2160 h 642.89 c 340.33,0 567.25,-242.5 567.25,-606.3 0,-394.1 -204.22,-606.3 -567.25,-606.3"
         style="fill:#231f20;fill-opacity:1;fill-rule:nonzero;stroke:none"
         transform="matrix(0.13333333,0,0,-0.13333333,0,2304.6667)" />
      <path
         id="path20"
         d="m 8001.09,4034.5 v -1872 h -311.64 v 1872 H 7294.2 v 288 h 1102.14 v -288 h -395.25"
         style="fill:#231f20;fill-opacity:1;fill-rule:nonzero;stroke:none"
         transform="matrix(0.13333333,0,0,-0.13333333,0,2304.6667)" />
      <path
         id="path21"
         d="m 20025.7,3746.5 c -30.5,212.2 -114.2,310.7 -258.8,310.7 -251.2,0 -342.5,-197 -342.5,-757.9 0,-621.4 106.6,-871.5 373,-871.5 182.6,0 228.3,151.5 228.3,310.7 h 312 c -7.6,-356.2 -235.9,-613.9 -540.3,-613.9 -464.3,0 -669.8,371.4 -669.8,1167.2 0,697.2 220.7,1068.6 646.9,1068.6 175.1,0 327.3,-75.8 426.2,-219.8 83.8,-106.1 114.2,-197 137,-394.1 h -312"
         style="fill:#231f20;fill-opacity:1;fill-rule:nonzero;stroke:none"
         transform="matrix(0.13333333,0,0,-0.13333333,0,2304.6667)" />
      <path
         id="path22"
         d="m 23086.2,3799.6 c -52.9,151.5 -143.7,219.8 -279.9,219.8 h -257.1 V 2465.7 h 257.1 c 181.6,0 279.9,144 310.1,310.7 15.2,136.4 30.3,288 30.3,454.7 0,242.6 -22.7,477.5 -60.5,568.5 z m 52.9,-1538.6 c -75.6,-68.2 -181.5,-98.5 -302.5,-98.5 h -597.5 v 2160 h 552.1 c 181.5,0 272.3,-22.7 347.9,-83.4 128.6,-90.9 219.4,-257.6 257.2,-477.4 30.2,-159.2 52.9,-348.7 52.9,-515.4 0,-500.2 -98.3,-818.5 -310.1,-985.3"
         style="fill:#231f20;fill-opacity:1;fill-rule:nonzero;stroke:none"
         transform="matrix(0.13333333,0,0,-0.13333333,0,2304.6667)" />
      <path
         id="path23"
         d="m 11370.5,2162.5 v 2160 H 12389 v -303.1 h -706.9 v -545.7 h 448.5 v -295.6 h -448.5 v -712.4 h 790.5 v -303.2 h -1102.1"
         style="fill:#231f20;fill-opacity:1;fill-rule:nonzero;stroke:none"
         transform="matrix(0.13333333,0,0,-0.13333333,0,2304.6667)" />
      <path
         id="path24"
         d="m 20769.7,2162.5 v 2160 h 1018.6 v -303.1 h -706.9 v -545.7 h 448.4 v -295.6 h -448.4 v -712.4 h 790.5 v -303.2 h -1102.2"
         style="fill:#231f20;fill-opacity:1;fill-rule:nonzero;stroke:none"
         transform="matrix(0.13333333,0,0,-0.13333333,0,2304.6667)" />
      <path
         id="path25"
         d="m 14836.8,4019.4 v -545.7 h 433.3 v -295.6 h -433.3 V 2162.5 h -311.6 v 2160 h 1102.1 v -303.1 h -790.5"
         style="fill:#231f20;fill-opacity:1;fill-rule:nonzero;stroke:none"
         transform="matrix(0.13333333,0,0,-0.13333333,0,2304.6667)" />
      <path
         id="path26"
         d="m 13815.5,2162.5 -665.6,1447.6 V 2162.5 h -310.1 v 2160 h 310.1 l 590,-1296 v 1296 h 310.1 v -2160 h -234.5"
         style="fill:#231f20;fill-opacity:1;fill-rule:nonzero;stroke:none"
         transform="matrix(0.13333333,0,0,-0.13333333,0,2304.6667)" />
      <path
         id="path27"
         d="m 16795,3784.4 c -53.4,189.5 -137.4,272.8 -267.2,272.8 -137.4,0 -221.4,-83.3 -274.8,-265.2 -53.5,-166.8 -68.7,-310.8 -68.7,-553.3 0,-234.9 22.9,-371.4 68.7,-545.7 53.4,-181.9 137.4,-265.2 274.8,-265.2 129.8,0 213.8,83.3 267.2,265.2 53.5,174.3 68.7,303.2 68.7,553.3 0,242.5 -22.9,378.9 -68.7,538.1 z M 17039.3,2496 c -106.9,-257.7 -267.2,-371.4 -511.5,-371.4 -259.6,0 -412.2,113.7 -519.1,371.4 -91.6,212.2 -122.2,416.8 -122.2,750.3 0,325.9 30.6,545.7 122.2,750.3 114.5,257.7 267.2,363.8 519.1,363.8 251.9,0 404.6,-106.1 511.5,-371.4 91.6,-212.2 122.2,-416.8 122.2,-742.7 0,-333.5 -30.6,-545.7 -122.2,-750.3"
         style="fill:#231f20;fill-opacity:1;fill-rule:nonzero;stroke:none"
         transform="matrix(0.13333333,0,0,-0.13333333,0,2304.6667)" />
      <path
         id="path28"
         d="m 18221.2,4019.4 h -317.6 v -545.7 h 317.6 c 181.6,0 279.9,98.5 279.9,272.8 0,166.7 -113.5,272.9 -279.9,272.9 z m 264.7,-1856.9 -287.4,1015.6 h -294.9 V 2162.5 h -310.1 v 2160 h 642.8 c 340.4,0 567.3,-227.4 567.3,-576 0,-257.7 -105.9,-447.2 -310.1,-522.9 l 310.1,-1061.1 h -317.7"
         style="fill:#231f20;fill-opacity:1;fill-rule:nonzero;stroke:none"
         transform="matrix(0.13333333,0,0,-0.13333333,0,2304.6667)" />
      <path
         id="path29"
         d="m 12962.5,10037.5 c -621.3,0 -1125,503.7 -1125,1125 0,621.3 503.7,1125 1125,1125 621.3,0 1125,-503.7 1125,-1125 0,-621.3 -503.7,-1125 -1125,-1125 z m 2700,2655 h -5400 c -99.4,0 -180,-80.6 -180,-180 v -2700 c 0,-99.41 80.6,-180 180,-180 h 5400 c 99.4,0 180,80.59 180,180 v 2700 c 0,99.4 -80.6,180 -180,180"
         style="fill:#231f20;fill-opacity:1;fill-rule:nonzero;stroke:none"
         transform="matrix(0.13333333,0,0,-0.13333333,0,2304.6667)" />
      <path
         id="path30"
         d="m 12107.5,12872.5 h 1710 c 99.4,0 180,80.6 180,180 v 720 c 0,99.4 -80.6,180 -180,180 h -1710 c -99.4,0 -180,-80.6 -180,-180 v -720 c 0,-99.4 80.6,-180 180,-180"
         style="fill:#231f20;fill-opacity:1;fill-rule:nonzero;stroke:none"
         transform="matrix(0.13333333,0,0,-0.13333333,0,2304.6667)" />
      <path
         id="path31"
         d="m 11655.9,13322.5 69.9,260.8 -1564.8,419.3 -69.9,-260.8 1564.8,-419.3"
         style="fill:#231f20;fill-opacity:1;fill-rule:nonzero;stroke:none"
         transform="matrix(0.13333333,0,0,-0.13333333,0,2304.6667)" />
      <path
         id="path32"
         d="m 11935.2,14132.5 190.9,190.9 -1145.5,1145.5 -190.9,-190.9 1145.5,-1145.5"
         style="fill:#231f20;fill-opacity:1;fill-rule:nonzero;stroke:none"
         transform="matrix(0.13333333,0,0,-0.13333333,0,2304.6667)" />
      <path
         id="path33"
         d="m 14269.1,13322.5 -69.9,260.8 1564.8,419.3 69.9,-260.8 -1564.8,-419.3"
         style="fill:#231f20;fill-opacity:1;fill-rule:nonzero;stroke:none"
         transform="matrix(0.13333333,0,0,-0.13333333,0,2304.6667)" />
      <path
         id="path34"
         d="m 13989.8,14132.5 -190.9,190.9 1145.5,1145.5 190.9,-190.9 -1145.5,-1145.5"
         style="fill:#231f20;fill-opacity:1;fill-rule:nonzero;stroke:none"
         transform="matrix(0.13333333,0,0,-0.13333333,0,2304.6667)" />
      <path
         id="path35"
         d="m 12827.5,14222.5 h 270 v 1620 h -270 v -1620"
         style="fill:#231f20;fill-opacity:1;fill-rule:nonzero;stroke:none"
         transform="matrix(0.13333333,0,0,-0.13333333,0,2304.6667)" />
    </g>
  </g>
</svg>
