<?xml version="1.0" standalone="no"?>
<svg width="947px" height="1080px" viewBox="0 -288 947 1080 " xmlns="http://www.w3.org/2000/svg" xmlns:xlink="http://www.w3.org/1999/xlink">
<title>generated by pstoedit</title>
<!-- generated by pstoedit version:4.02 -->
<g xml:space='preserve'>
<clipPath id="clippath1"> 	<path d="
	M 0 -288.25 
	L 0 792 
	L 947.41 792 
	L 947.41 -288.25 
	Z 
	" style="clip-rule:nonzero"/>
</clipPath>
<g style="clip-path:url(#clippath1)"> 
<g fill="#ffffff" fill-rule="nonzero" stroke-width="0" stroke-linejoin="miter" stroke-linecap="butt" stroke-miterlimit="10" >
	<path d="
	M 648.125 683.875 
	C 648.125 743.52 599.77 791.879 540.125 791.879 
	L 108.125 791.879 
	C 48.4766 791.879 0.125 743.52 0.125 683.875 
	L 0.125 -180.125 
	C 0.125 -239.77 48.4766 -288.13 108.125 -288.13 
	L 540.125 -288.13 
	C 599.77 -288.13 648.125 -239.77 648.125 -180.125 
	Z 
	"/>
</g>
<g stroke="#7f7f7f" fill="none" stroke-width="0.25" stroke-linejoin="miter" stroke-linecap="butt" stroke-miterlimit="4" >
	<path d="
	M 648.125 683.875 
	C 648.125 743.52 599.77 791.879 540.125 791.879 
	L 108.125 791.879 
	C 48.4766 791.879 0.125 743.52 0.125 683.875 
	L 0.125 -180.125 
	C 0.125 -239.77 48.4766 -288.13 108.125 -288.13 
	L 540.125 -288.13 
	C 599.77 -288.13 648.125 -239.77 648.125 -180.125 
	Z 
	"/>
</g>
<g fill="#7f7f7f" fill-rule="nonzero" stroke-width="0" stroke-linejoin="miter" stroke-linecap="butt" stroke-miterlimit="4" >
	<path d="
	M 594.125 683.875 
	C 594.125 713.648 569.898 737.879 540.125 737.879 
	L 108.125 737.879 
	C 78.3477 737.879 54.125 713.648 54.125 683.875 
	L 54.125 -180.125 
	C 54.125 -209.9 78.3477 -234.13 108.125 -234.13 
	L 540.125 -234.13 
	C 569.898 -234.13 594.125 -209.9 594.125 -180.125 
	Z 
	M 540.125 -261.13 
	L 108.125 -261.13 
	C 63.4609 -261.13 27.125 -224.79 27.125 -180.125 
	L 27.125 683.875 
	C 27.125 728.539 63.4609 764.879 108.125 764.879 
	L 540.125 764.879 
	C 584.789 764.879 621.125 728.539 621.125 683.875 
	L 621.125 -180.125 
	C 621.125 -224.79 584.789 -261.13 540.125 -261.13 
	Z 
	"/>
</g>
<g fill="#7f7f7f" fill-rule="nonzero" stroke-width="0" stroke-linejoin="miter" stroke-linecap="butt" stroke-miterlimit="4" >
	<path d="
	M 525.215 53.875 
	L 525.215 -93.973 
	L 491.953 -93.973 
	L 491.953 -141.551 
	L 481.625 -143.82 
	L 481.625 -156.285 
	L 493.098 -160.813 
	L 493.098 -167.605 
	L 525.215 -167.605 
	L 525.215 -189.125 
	L 540.125 -189.125 
	L 540.125 53.875 
	Z 
	"/>
</g>
<g fill="#7f7f7f" fill-rule="nonzero" stroke-width="0" stroke-linejoin="miter" stroke-linecap="butt" stroke-miterlimit="4" >
	<path d="
	M 108.125 -157.574 
	C 108.125 -157.574 174.852 -151.934 233.508 -194.207 
	C 237.148 -194.789 241.004 -196.73 244.082 -196.926 
	C 275.426 -190.105 301.016 -207.059 318.117 -216.01 
	C 333.496 -218.35 329.855 -183.688 311.398 -179.004 
	C 329.652 -177.051 456.57 -164.59 456.57 -164.59 
	C 456.57 -164.59 468.508 -163.035 468.113 -153.68 
	C 467.879 -147.832 466.578 -140.82 458.316 -140.82 
	L 358.113 -140.82 
	C 358.113 -140.82 357.922 -131.477 349.848 -124.258 
	C 340.227 -119.195 326.395 -113.359 325.809 -99.141 
	C 318.117 -91.934 296.195 -83.559 292.355 -68.355 
	C 285.422 -57.254 262.16 -55.895 253.512 -54.125 
	C 246.973 -55.301 241.004 -56.18 232.742 -57.047 
	C 182.543 -78.086 108.125 -81.219 108.125 -81.219 
	Z 
	"/>
</g>
<g fill="#7f7f7f" fill-rule="nonzero" stroke-width="0" stroke-linejoin="miter" stroke-linecap="butt" stroke-miterlimit="4" >
	<path d="
	M 303.973 29.434 
	L 296.223 29.434 
	L 296.223 46.297 
	L 303.973 46.297 
	C 308.32 46.297 311.156 43.266 311.156 38.527 
	C 311.156 33.41 307.941 29.434 303.973 29.434 
	Z 
	M 304.352 7.453 
	L 296.223 7.453 
	L 296.223 21.855 
	L 304.352 21.855 
	C 307.941 21.855 310.215 18.82 310.215 13.895 
	C 310.215 9.34802 308.512 7.453 304.352 7.453 
	Z 
	M 304.352 53.875 
	L 288.469 53.875 
	L 288.469 -0.125 
	L 305.484 -0.125 
	C 312.672 -0.125 317.773 5.55902 317.773 13.895 
	C 317.773 18.82 316.453 21.098 312.105 25.645 
	C 316.266 29.055 318.723 33.602 318.723 39.098 
	C 318.723 47.242 312.293 53.875 304.352 53.875 
	Z 
	"/>
</g>
<g fill="#7f7f7f" fill-rule="nonzero" stroke-width="0" stroke-linejoin="miter" stroke-linecap="butt" stroke-miterlimit="4" >
	<path d="
	M 244.715 53.875 
	L 244.715 29.434 
	L 229.969 29.434 
	L 229.969 53.875 
	L 222.215 53.875 
	L 222.215 -0.125 
	L 229.969 -0.125 
	L 229.969 21.855 
	L 244.715 21.855 
	L 244.715 -0.125 
	L 252.469 -0.125 
	L 252.469 53.875 
	Z 
	"/>
</g>
<g fill="#7f7f7f" fill-rule="nonzero" stroke-width="0" stroke-linejoin="miter" stroke-linecap="butt" stroke-miterlimit="4" >
	<path d="
	M 490.152 53.875 
	L 473.516 17.687 
	L 473.516 53.875 
	L 465.766 53.875 
	L 465.766 -0.125 
	L 473.516 -0.125 
	L 488.266 32.273 
	L 488.266 -0.125 
	L 496.016 -0.125 
	L 496.016 53.875 
	Z 
	"/>
</g>
<g fill="#7f7f7f" fill-rule="nonzero" stroke-width="0" stroke-linejoin="miter" stroke-linecap="butt" stroke-miterlimit="4" >
	<path d="
	M 447.965 13.328 
	C 446.629 8.59003 444.527 6.508 441.281 6.508 
	C 437.848 6.508 435.746 8.59003 434.41 13.137 
	C 433.074 17.309 432.691 20.906 432.691 26.969 
	C 432.691 32.844 433.266 36.254 434.41 40.613 
	C 435.746 45.16 437.848 47.242 441.281 47.242 
	C 444.527 47.242 446.629 45.16 447.965 40.613 
	C 449.301 36.254 449.68 33.031 449.68 26.781 
	C 449.68 20.719 449.105 17.309 447.965 13.328 
	Z 
	M 454.07 45.539 
	C 451.398 51.98 447.391 54.824 441.281 54.824 
	C 434.793 54.824 430.977 51.98 428.305 45.539 
	C 426.016 40.234 425.25 35.117 425.25 26.781 
	C 425.25 18.633 426.016 13.137 428.305 8.02301 
	C 431.164 1.578 434.984 -1.07001 441.281 -1.07001 
	C 447.578 -1.07001 451.398 1.578 454.07 8.211 
	C 456.359 13.516 457.121 18.633 457.121 26.781 
	C 457.121 35.117 456.359 40.422 454.07 45.539 
	Z 
	"/>
</g>
<g fill="#7f7f7f" fill-rule="nonzero" stroke-width="0" stroke-linejoin="miter" stroke-linecap="butt" stroke-miterlimit="4" >
	<path d="
	M 123.82 7.453 
	L 115.879 7.453 
	L 115.879 22.801 
	L 123.82 22.801 
	C 128.355 22.801 130.816 19.961 130.816 15.031 
	C 130.816 10.484 127.98 7.453 123.82 7.453 
	Z 
	M 124.195 30.191 
	L 115.879 30.191 
	L 115.879 53.875 
	L 108.125 53.875 
	L 108.125 -0.125 
	L 124.195 -0.125 
	C 132.707 -0.125 138.379 5.93701 138.379 15.031 
	C 138.379 24.887 133.273 30.191 124.195 30.191 
	Z 
	"/>
</g>
<g fill="#7f7f7f" fill-rule="nonzero" stroke-width="0" stroke-linejoin="miter" stroke-linecap="butt" stroke-miterlimit="4" >
	<path d="
	M 199.992 28.937 
	C 197.656 27.422 195.391 25.906 193.938 24.887 
	C 189.586 21.82 187.281 17.687 187.281 12.949 
	C 187.281 5.17999 193.367 -1.07001 201.172 -1.07001 
	C 208.781 -1.07001 214.68 4.80103 214.867 12.949 
	L 207.449 12.949 
	C 207.262 9.15997 204.598 6.69501 201.172 6.69501 
	C 197.555 6.69501 194.699 9.34802 194.699 12.949 
	C 194.699 15.602 195.844 17.117 199.84 19.391 
	C 210.305 25.453 214.867 31.328 214.867 39.098 
	C 214.867 47.812 208.211 54.824 199.84 54.824 
	C 190.324 54.824 184.617 46.863 184.617 37.961 
	L 192.227 37.961 
	C 192.227 42.508 194.512 47.242 199.84 47.242 
	C 204.023 47.242 207.449 43.453 207.449 39.098 
	C 207.449 35.711 206.051 32.863 199.992 28.937 
	Z 
	"/>
</g>
<g fill="#7f7f7f" fill-rule="nonzero" stroke-width="0" stroke-linejoin="miter" stroke-linecap="butt" stroke-miterlimit="4" >
	<path d="
	M 380.039 7.07397 
	L 380.039 53.875 
	L 372.246 53.875 
	L 372.246 7.07397 
	L 362.367 7.07397 
	L 362.367 -0.125 
	L 389.922 -0.125 
	L 389.922 7.07397 
	Z 
	"/>
</g>
<g fill="#7f7f7f" fill-rule="nonzero" stroke-width="0" stroke-linejoin="miter" stroke-linecap="butt" stroke-miterlimit="4" >
	<path d="
	M 410.188 7.07397 
	L 410.188 53.875 
	L 402.395 53.875 
	L 402.395 7.07397 
	L 392.512 7.07397 
	L 392.512 -0.125 
	L 420.066 -0.125 
	L 420.066 7.07397 
	Z 
	"/>
</g>
<g fill="#7f7f7f" fill-rule="nonzero" stroke-width="0" stroke-linejoin="miter" stroke-linecap="butt" stroke-miterlimit="4" >
	<path d="
	M 175.191 47.242 
	C 172.547 51.602 167.438 54.824 162.336 54.824 
	C 157.039 54.824 151.746 51.789 149.098 47.242 
	C 147.586 44.402 147.02 42.129 147.02 37.77 
	L 147.02 -0.125 
	L 154.77 -0.125 
	L 154.77 38.719 
	C 154.77 43.832 157.797 47.242 162.336 47.242 
	C 166.492 47.242 169.52 43.832 169.52 38.719 
	L 169.52 -0.125 
	L 177.273 -0.125 
	L 177.273 37.77 
	C 177.273 42.129 176.703 44.402 175.191 47.242 
	Z 
	"/>
</g>
<g fill="#7f7f7f" fill-rule="nonzero" stroke-width="0" stroke-linejoin="miter" stroke-linecap="butt" stroke-miterlimit="4" >
	<path d="
	M 354.238 47.242 
	C 351.594 51.602 346.484 54.824 341.383 54.824 
	C 336.086 54.824 330.789 51.789 328.145 47.242 
	C 326.633 44.402 326.063 42.129 326.063 37.77 
	L 326.063 -0.125 
	L 333.816 -0.125 
	L 333.816 38.719 
	C 333.816 43.832 336.844 47.242 341.383 47.242 
	C 345.539 47.242 348.566 43.832 348.566 38.719 
	L 348.566 -0.125 
	L 356.316 -0.125 
	L 356.316 37.77 
	C 356.316 42.129 355.75 44.402 354.238 47.242 
	Z 
	"/>
</g>
<g fill="#7f7f7f" fill-rule="nonzero" stroke-width="0" stroke-linejoin="miter" stroke-linecap="butt" stroke-miterlimit="4" >
	<path d="
	M 426.91 114.879 
	C 424.633 111.09 421.844 109.574 417.539 109.32 
	C 411.969 109.07 408.422 111.848 405.891 118.164 
	C 404.117 122.461 403.105 129.027 403.105 135.09 
	C 403.105 142.672 404.621 150.5 407.41 155.051 
	C 409.688 158.84 412.727 160.605 417.285 160.605 
	C 422.605 160.605 425.895 157.828 428.43 151.512 
	C 429.949 147.723 431.215 140.648 431.215 135.09 
	C 431.215 127.008 429.695 119.68 426.91 114.879 
	Z 
	M 434.762 164.145 
	C 430.707 169.699 424.883 172.227 417.285 172.227 
	C 407.156 172.227 400.824 168.187 396.52 159.344 
	C 393.48 153.281 391.453 143.68 391.453 135.09 
	C 391.453 123.219 394.492 112.605 399.305 105.785 
	C 403.609 100.227 409.438 97.699 417.793 97.699 
	C 426.91 97.699 433.238 101.742 437.801 110.586 
	C 440.84 116.902 442.609 125.996 442.609 135.09 
	C 442.609 146.461 439.824 157.828 434.762 164.145 
	Z 
	"/>
</g>
<g fill="#7f7f7f" fill-rule="nonzero" stroke-width="0" stroke-linejoin="miter" stroke-linecap="butt" stroke-miterlimit="4" >
	<path d="
	M 179.086 114.879 
	C 176.809 111.09 174.02 109.574 169.715 109.32 
	C 164.145 109.07 160.598 111.848 158.066 118.164 
	C 156.293 122.461 155.281 129.027 155.281 135.09 
	C 155.281 142.672 156.801 150.5 159.586 155.051 
	C 161.863 158.84 164.902 160.605 169.461 160.605 
	C 174.781 160.605 178.07 157.828 180.605 151.512 
	C 182.125 147.723 183.391 140.648 183.391 135.09 
	C 183.391 127.008 181.871 119.68 179.086 114.879 
	Z 
	M 186.938 164.145 
	C 182.883 169.699 177.059 172.227 169.461 172.227 
	C 159.332 172.227 153 168.187 148.695 159.344 
	C 145.656 153.281 143.633 143.68 143.633 135.09 
	C 143.633 123.219 146.672 112.605 151.48 105.785 
	C 155.785 100.227 161.609 97.699 169.969 97.699 
	C 179.086 97.699 185.414 101.742 189.977 110.586 
	C 193.016 116.902 194.785 125.996 194.785 135.09 
	C 194.785 146.461 192 157.828 186.938 164.145 
	Z 
	"/>
</g>
<g fill="#7f7f7f" fill-rule="nonzero" stroke-width="0" stroke-linejoin="miter" stroke-linecap="butt" stroke-miterlimit="4" >
	<path d="
	M 117.523 108.98 
	L 117.523 170.875 
	L 106.105 170.875 
	L 106.105 108.98 
	L 89.6133 108.98 
	L 89.6133 98.875 
	L 134.27 98.875 
	L 134.27 108.98 
	Z 
	"/>
</g>
<g fill="#7f7f7f" fill-rule="nonzero" stroke-width="0" stroke-linejoin="miter" stroke-linecap="butt" stroke-miterlimit="4" >
	<path d="
	M 363.223 111.508 
	C 361.453 110.496 360.441 110.246 356.652 110.246 
	L 343.012 110.246 
	L 343.012 127.93 
	L 356.652 127.93 
	C 360.191 127.93 361.453 127.676 363.223 126.664 
	C 366 125.148 367.77 122.117 367.77 119.086 
	C 367.77 116.055 366 113.023 363.223 111.508 
	Z 
	M 368.273 170.875 
	L 356.652 139.551 
	L 343.012 139.551 
	L 343.012 170.875 
	L 331.641 170.875 
	L 331.641 98.875 
	L 355.391 98.875 
	C 360.949 98.875 364.738 99.383 368.273 101.148 
	C 374.59 104.18 379.141 111.762 379.141 119.086 
	C 379.141 126.664 374.59 134.246 368.023 137.277 
	L 380.656 170.875 
	Z 
	"/>
</g>
<g fill="#7f7f7f" fill-rule="nonzero" stroke-width="0" stroke-linejoin="miter" stroke-linecap="butt" stroke-miterlimit="4" >
	<path d="
	M 495.352 166.492 
	C 491.309 170.027 485.75 172.051 479.688 172.051 
	C 467.309 172.051 458.211 164.727 453.41 153.859 
	L 464.273 149.82 
	C 467.309 156.641 472.863 160.43 479.688 160.43 
	C 486.254 160.43 490.805 155.883 490.805 149.82 
	C 490.805 140.219 479.688 138.703 470.34 134.914 
	C 466.043 133.145 456.441 128.852 456.441 116.977 
	C 456.441 102.828 466.043 97.523 478.93 97.523 
	C 489.031 97.523 495.855 103.336 499.395 112.176 
	L 489.285 115.207 
	C 489.285 115.207 486.762 109.145 478.676 108.895 
	C 473.367 108.641 467.055 110.66 467.559 117.23 
	C 468.57 130.617 502.426 121.777 502.426 150.07 
	C 502.426 156.641 499.898 162.449 495.352 166.492 
	Z 
	"/>
</g>
<g fill="#7f7f7f" fill-rule="nonzero" stroke-width="0" stroke-linejoin="miter" stroke-linecap="butt" stroke-miterlimit="4" >
	<path d="
	M 551.563 166.492 
	C 547.52 170.027 541.965 172.051 535.898 172.051 
	C 523.52 172.051 514.426 164.727 509.621 153.859 
	L 520.488 149.82 
	C 523.52 156.641 529.078 160.43 535.898 160.43 
	C 542.469 160.43 547.016 155.883 547.016 149.82 
	C 547.016 140.219 535.898 138.703 526.551 134.914 
	C 522.258 133.145 512.656 128.852 512.656 116.977 
	C 512.656 102.828 522.258 97.523 535.141 97.523 
	C 545.246 97.523 552.066 103.336 555.605 112.176 
	L 545.5 115.207 
	C 545.5 115.207 542.973 109.145 534.891 108.895 
	C 529.582 108.641 523.266 110.66 523.77 117.23 
	C 524.781 130.617 558.637 121.777 558.637 150.07 
	C 558.637 156.641 556.109 162.449 551.563 166.492 
	Z 
	"/>
</g>
<g fill="#7f7f7f" fill-rule="nonzero" stroke-width="0" stroke-linejoin="miter" stroke-linecap="butt" stroke-miterlimit="4" >
	<path d="
	M 294.074 172.141 
	C 283.461 172.141 276.641 168.098 272.094 159.254 
	C 268.809 152.937 266.785 143.844 266.785 134.75 
	C 266.785 123.383 269.82 112.012 274.871 105.695 
	C 279.168 100.391 285.23 97.613 293.316 97.613 
	C 304.18 97.613 311 102.16 315.801 112.266 
	L 305.188 116.812 
	C 301.148 110.75 298.875 109.234 293.316 109.234 
	C 287.504 109.234 283.715 111.762 281.188 118.074 
	C 279.422 122.371 278.41 128.687 278.41 134.75 
	C 278.41 142.582 280.18 150.414 282.957 154.961 
	C 285.484 158.75 288.77 160.52 293.82 160.52 
	C 298.621 160.52 302.156 157.992 304.938 152.184 
	L 315.801 156.223 
	C 311.508 166.836 304.434 172.141 294.074 172.141 
	Z 
	"/>
</g>
<g fill="#7f7f7f" fill-rule="nonzero" stroke-width="0" stroke-linejoin="miter" stroke-linecap="butt" stroke-miterlimit="4" >
	<path d="
	M 468.309 348.883 
	C 466.027 345.09 463.242 343.574 458.938 343.324 
	C 453.367 343.07 449.82 345.848 447.289 352.164 
	C 445.516 356.461 444.504 363.027 444.504 369.09 
	C 444.504 376.672 446.023 384.504 448.809 389.051 
	C 451.086 392.84 454.125 394.609 458.684 394.609 
	C 464.004 394.609 467.297 391.828 469.828 385.512 
	C 471.348 381.723 472.613 374.648 472.613 369.09 
	C 472.613 361.008 471.094 353.68 468.309 348.883 
	Z 
	M 476.16 398.145 
	C 472.105 403.703 466.281 406.23 458.684 406.23 
	C 448.555 406.23 442.223 402.187 437.918 393.344 
	C 434.879 387.281 432.855 377.68 432.855 369.09 
	C 432.855 357.219 435.891 346.609 440.703 339.785 
	C 445.008 334.227 450.836 331.703 459.191 331.703 
	C 468.309 331.703 474.641 335.746 479.199 344.586 
	C 482.234 350.902 484.008 359.996 484.008 369.09 
	C 484.008 380.461 481.223 391.828 476.16 398.145 
	Z 
	"/>
</g>
<g fill="#7f7f7f" fill-rule="nonzero" stroke-width="0" stroke-linejoin="miter" stroke-linecap="butt" stroke-miterlimit="4" >
	<path d="
	M 239.859 404.879 
	L 239.859 332.875 
	L 251.379 332.875 
	L 251.379 404.879 
	Z 
	"/>
</g>
<g fill="#7f7f7f" fill-rule="nonzero" stroke-width="0" stroke-linejoin="miter" stroke-linecap="butt" stroke-miterlimit="4" >
	<path d="
	M 290.09 342.98 
	L 290.09 404.875 
	L 278.672 404.875 
	L 278.672 342.98 
	L 262.18 342.98 
	L 262.18 332.875 
	L 306.836 332.875 
	L 306.836 342.98 
	Z 
	"/>
</g>
<g fill="#7f7f7f" fill-rule="nonzero" stroke-width="0" stroke-linejoin="miter" stroke-linecap="butt" stroke-miterlimit="4" >
	<path d="
	M 531.43 345.508 
	C 529.66 344.496 528.648 344.246 524.859 344.246 
	L 511.219 344.246 
	L 511.219 361.93 
	L 524.859 361.93 
	C 528.398 361.93 529.66 361.676 531.43 360.668 
	C 534.211 359.152 535.977 356.117 535.977 353.086 
	C 535.977 350.055 534.211 347.023 531.43 345.508 
	Z 
	M 536.48 404.875 
	L 524.859 373.551 
	L 511.219 373.551 
	L 511.219 404.875 
	L 499.848 404.875 
	L 499.848 332.875 
	L 523.598 332.875 
	C 529.156 332.875 532.945 333.383 536.48 335.152 
	C 542.801 338.184 547.348 345.762 547.348 353.086 
	C 547.348 360.668 542.801 368.246 536.23 371.277 
	L 548.863 404.875 
	Z 
	"/>
</g>
<g fill="#7f7f7f" fill-rule="nonzero" stroke-width="0" stroke-linejoin="miter" stroke-linecap="butt" stroke-miterlimit="4" >
	<path d="
	M 152.855 404.875 
	L 142.723 404.875 
	L 131.316 358.645 
	L 120.164 404.875 
	L 110.027 404.875 
	L 99.3867 332.875 
	L 111.043 332.875 
	L 116.617 370.773 
	L 125.742 332.875 
	L 136.895 332.875 
	L 146.27 370.773 
	L 151.844 332.875 
	L 163.504 332.875 
	Z 
	"/>
</g>
<g fill="#7f7f7f" fill-rule="nonzero" stroke-width="0" stroke-linejoin="miter" stroke-linecap="butt" stroke-miterlimit="4" >
	<path d="
	M 198.566 352.836 
	L 191.199 373.047 
	L 205.684 373.047 
	Z 
	M 216.863 404.879 
	L 209.746 384.668 
	L 187.133 384.668 
	L 180.02 404.879 
	L 167.82 404.879 
	L 192.723 332.875 
	L 204.156 332.875 
	L 229.059 404.879 
	Z 
	"/>
</g>
<g fill="#7f7f7f" fill-rule="nonzero" stroke-width="0" stroke-linejoin="miter" stroke-linecap="butt" stroke-miterlimit="4" >
	<path d="
	M 390.188 344.246 
	L 390.188 361.93 
	L 411.129 361.93 
	L 411.129 373.551 
	L 390.188 373.551 
	L 390.188 404.879 
	L 378.836 404.879 
	L 378.836 332.875 
	L 423.492 332.875 
	L 423.492 344.246 
	Z 
	"/>
</g>
<g fill="#7f7f7f" fill-rule="nonzero" stroke-width="0" stroke-linejoin="miter" stroke-linecap="butt" stroke-miterlimit="4" >
	<path d="
	M 163.809 225.98 
	L 163.809 287.875 
	L 152.395 287.875 
	L 152.395 225.98 
	L 135.898 225.98 
	L 135.898 215.875 
	L 180.559 215.875 
	L 180.559 225.98 
	Z 
	"/>
</g>
<g fill="#7f7f7f" fill-rule="nonzero" stroke-width="0" stroke-linejoin="miter" stroke-linecap="butt" stroke-miterlimit="4" >
	<path d="
	M 387.84 225.98 
	L 387.84 287.875 
	L 376.422 287.875 
	L 376.422 225.98 
	L 359.926 225.98 
	L 359.926 215.875 
	L 404.586 215.875 
	L 404.586 225.98 
	Z 
	"/>
</g>
<g fill="#7f7f7f" fill-rule="nonzero" stroke-width="0" stroke-linejoin="miter" stroke-linecap="butt" stroke-miterlimit="4" >
	<path d="
	M 222.938 228.508 
	C 221.168 227.496 220.156 227.242 216.367 227.242 
	L 202.727 227.242 
	L 202.727 244.93 
	L 216.367 244.93 
	C 219.906 244.93 221.168 244.676 222.938 243.664 
	C 225.719 242.148 227.484 239.117 227.484 236.086 
	C 227.484 233.055 225.719 230.023 222.938 228.508 
	Z 
	M 227.988 287.875 
	L 216.367 256.547 
	L 202.727 256.547 
	L 202.727 287.875 
	L 191.355 287.875 
	L 191.355 215.875 
	L 215.105 215.875 
	C 220.664 215.875 224.453 216.379 227.988 218.148 
	C 234.309 221.18 238.855 228.758 238.855 236.086 
	C 238.855 243.664 234.309 251.242 227.738 254.277 
	L 240.371 287.875 
	Z 
	"/>
</g>
<g fill="#7f7f7f" fill-rule="nonzero" stroke-width="0" stroke-linejoin="miter" stroke-linecap="butt" stroke-miterlimit="4" >
	<path d="
	M 123.066 283.492 
	C 119.023 287.031 113.465 289.051 107.402 289.051 
	C 95.0234 289.051 85.9258 281.723 81.125 270.859 
	L 91.9883 266.82 
	C 95.0234 273.641 100.578 277.43 107.402 277.43 
	C 113.969 277.43 118.52 272.883 118.52 266.82 
	C 118.52 257.219 107.402 255.703 98.0508 251.914 
	C 93.7578 250.145 84.1563 245.852 84.1563 233.977 
	C 84.1563 219.828 93.7578 214.523 106.645 214.523 
	C 116.75 214.523 123.57 220.336 127.105 229.176 
	L 117.004 232.207 
	C 117.004 232.207 114.477 226.145 106.391 225.895 
	C 101.086 225.641 94.7695 227.66 95.2734 234.23 
	C 96.2852 247.617 130.141 238.777 130.141 267.07 
	C 130.141 273.641 127.613 279.449 123.066 283.492 
	Z 
	"/>
</g>
<g fill="#7f7f7f" fill-rule="nonzero" stroke-width="0" stroke-linejoin="miter" stroke-linecap="butt" stroke-miterlimit="4" >
	<path d="
	M 252.609 287.875 
	L 252.609 215.875 
	L 294.996 215.875 
	L 294.996 227.242 
	L 263.965 227.242 
	L 263.965 244.93 
	L 284.906 244.93 
	L 284.906 256.551 
	L 263.965 256.551 
	L 263.965 276.254 
	L 297.27 276.254 
	L 297.27 287.875 
	Z 
	"/>
</g>
<g fill="#7f7f7f" fill-rule="nonzero" stroke-width="0" stroke-linejoin="miter" stroke-linecap="butt" stroke-miterlimit="4" >
	<path d="
	M 309.512 287.875 
	L 309.512 215.875 
	L 351.895 215.875 
	L 351.895 227.242 
	L 320.863 227.242 
	L 320.863 244.93 
	L 341.805 244.93 
	L 341.805 256.551 
	L 320.863 256.551 
	L 320.863 276.254 
	L 354.168 276.254 
	L 354.168 287.875 
	Z 
	"/>
</g>
<g fill="#7f7f7f" fill-rule="nonzero" stroke-width="0" stroke-linejoin="miter" stroke-linecap="butt" stroke-miterlimit="4" >
	<path d="
	M 466.57 521.875 
	L 439.031 473.117 
	L 439.031 521.875 
	L 427.66 521.875 
	L 427.66 449.875 
	L 439.031 449.875 
	L 465.305 495.855 
	L 465.305 449.875 
	L 476.676 449.875 
	L 476.676 521.875 
	Z 
	"/>
</g>
<g fill="#7f7f7f" fill-rule="nonzero" stroke-width="0" stroke-linejoin="miter" stroke-linecap="butt" stroke-miterlimit="4" >
	<path d="
	M 284.191 462.508 
	C 282.426 461.496 281.414 461.246 277.625 461.246 
	L 263.98 461.246 
	L 263.98 478.93 
	L 277.625 478.93 
	C 281.16 478.93 282.426 478.676 284.191 477.668 
	C 286.973 476.148 288.738 473.117 288.738 470.086 
	C 288.738 467.055 286.973 464.023 284.191 462.508 
	Z 
	M 289.246 521.875 
	L 277.625 490.551 
	L 263.98 490.551 
	L 263.98 521.875 
	L 252.609 521.875 
	L 252.609 449.875 
	L 276.359 449.875 
	C 281.918 449.875 285.707 450.383 289.246 452.148 
	C 295.563 455.184 300.109 462.762 300.109 470.086 
	C 300.109 477.668 295.563 485.246 288.992 488.277 
	L 301.625 521.875 
	Z 
	"/>
</g>
<g fill="#7f7f7f" fill-rule="nonzero" stroke-width="0" stroke-linejoin="miter" stroke-linecap="butt" stroke-miterlimit="4" >
	<path d="
	M 313.863 521.875 
	L 313.863 449.875 
	L 356.25 449.875 
	L 356.25 461.246 
	L 325.219 461.246 
	L 325.219 478.93 
	L 346.16 478.93 
	L 346.16 490.551 
	L 325.219 490.551 
	L 325.219 510.254 
	L 358.523 510.254 
	L 358.523 521.875 
	Z 
	"/>
</g>
<g fill="#7f7f7f" fill-rule="nonzero" stroke-width="0" stroke-linejoin="miter" stroke-linecap="butt" stroke-miterlimit="4" >
	<path d="
	M 370.762 521.875 
	L 370.762 449.875 
	L 413.148 449.875 
	L 413.148 461.246 
	L 382.117 461.246 
	L 382.117 478.93 
	L 403.059 478.93 
	L 403.059 490.551 
	L 382.117 490.551 
	L 382.117 510.254 
	L 415.422 510.254 
	L 415.422 521.875 
	Z 
	"/>
</g>
<g fill="#7f7f7f" fill-rule="nonzero" stroke-width="0" stroke-linejoin="miter" stroke-linecap="butt" stroke-miterlimit="4" >
	<path d="
	M 214.031 523.141 
	C 203.168 523.141 196.852 519.098 192.559 510.004 
	C 189.527 503.687 187.758 494.844 187.758 486.004 
	C 187.758 474.383 191.043 463.012 195.84 456.695 
	C 200.137 451.391 206.199 448.613 214.285 448.613 
	C 225.402 448.613 231.973 453.16 236.77 464.527 
	L 225.906 468.824 
	C 222.875 462.508 219.844 460.234 214.285 460.234 
	C 208.473 460.234 204.684 462.762 202.156 469.074 
	C 200.391 473.371 199.379 479.937 199.379 486.004 
	C 199.379 493.582 200.641 501.16 202.914 505.707 
	C 205.191 509.75 208.473 511.52 212.77 511.52 
	C 220.098 511.52 225.402 506.973 225.402 500.402 
	L 225.402 497.371 
	L 212.266 497.371 
	L 212.266 486.004 
	L 236.77 486.004 
	L 236.77 500.402 
	C 236.77 513.539 227.172 523.141 214.031 523.141 
	Z 
	"/>
</g>
<g fill="#96c87f" fill-rule="nonzero" stroke-width="0" stroke-linejoin="miter" stroke-linecap="butt" stroke-miterlimit="4" >
	<path d="
	M 404.215 638.875 
	C 404.215 678.641 371.98 710.875 332.215 710.875 
	C 292.453 710.875 260.215 678.641 260.215 638.875 
	C 260.215 599.109 292.453 566.875 332.215 566.875 
	C 371.98 566.875 404.215 599.109 404.215 638.875 
	Z 
	"/>
</g>
<g fill="#7f7f7f" fill-rule="nonzero" stroke-width="0" stroke-linejoin="miter" stroke-linecap="butt" stroke-miterlimit="4" >
	<path d="
	M 947.41 117.355 
	L 803.41 117.355 
	L 803.41 45.355 
	L 947.41 45.355 
	Z 
	"/>
</g>
<g fill="#7f7f7f" fill-rule="nonzero" stroke-width="0" stroke-linejoin="miter" stroke-linecap="butt" stroke-miterlimit="4" >
	<path d="
	M 477.828 194.687 
	C 476.523 193.805 474.949 193.285 473.258 193.285 
	C 468.75 193.285 465.098 196.941 465.098 201.449 
	C 465.098 202.352 465.242 203.215 465.516 204.023 
	L 473.211 229.285 
	L 423.125 229.285 
	L 423.125 274.285 
	L 473.211 274.285 
	L 465.516 299.551 
	C 465.242 300.359 465.098 301.227 465.098 302.125 
	C 465.098 306.637 468.75 310.285 473.258 310.285 
	C 474.949 310.285 476.523 309.77 477.828 308.891 
	L 567.125 251.789 
	Z 
	"/>
</g>
</g >
</g>
</svg>
