<?xml version="1.0" standalone="no"?>
<svg width="2286px" height="2375px" viewBox="0 -1583 2286 2375 " xmlns="http://www.w3.org/2000/svg" xmlns:xlink="http://www.w3.org/1999/xlink">
<title>generated by pstoedit</title>
<!-- generated by pstoedit version:4.02 -->
<g xml:space='preserve'>
<clipPath id="clippath1"> 	<path d="
	M 0 -1583.13 
	L 0 792 
	L 2286.72 792 
	L 2286.72 -1583.13 
	Z 
	" style="clip-rule:nonzero"/>
</clipPath>
<g style="clip-path:url(#clippath1)"> 
<g fill="#ffffff" fill-rule="nonzero" stroke-width="0" stroke-linejoin="miter" stroke-linecap="butt" stroke-miterlimit="10" >
	<path d="
	M 2286.47 656.75 
	C 2286.47 731.309 2226.03 791.75 2151.47 791.75 
	L 261.469 791.75 
	C 186.91 791.75 126.469 731.309 126.469 656.75 
	L 126.469 -1233.25 
	C 126.469 -1307.8 186.91 -1368.25 261.469 -1368.25 
	L 2151.47 -1368.25 
	C 2226.03 -1368.25 2286.47 -1307.8 2286.47 -1233.25 
	Z 
	"/>
</g>
<g fill="#95e8ff" fill-rule="nonzero" stroke-width="0" stroke-linejoin="miter" stroke-linecap="butt" stroke-miterlimit="10" >
	<path d="
	M 2151.47 -1368.25 
	L 261.469 -1368.25 
	C 186.91 -1368.25 126.469 -1307.8 126.469 -1233.25 
	L 126.469 -414.25 
	L 2286.47 -414.25 
	L 2286.47 -1233.25 
	C 2286.47 -1307.8 2226.03 -1368.25 2151.47 -1368.25 
	Z 
	"/>
</g>
<g fill="#7f88e1" fill-rule="evenodd" stroke-width="0" stroke-linejoin="miter" stroke-linecap="butt" stroke-miterlimit="10" >
	<path d="
	M 700.625 500.02 
	C 698.023 504.039 695.238 506.621 690.977 509.07 
	C 683.426 513.43 673.613 513.801 665.504 510.832 
	C 659.855 508.77 654.895 504.891 651.895 499.691 
	L 310.383 -91.43 
	C 306.855 -97.531 305.676 -104.5 306.996 -111.441 
	C 309.547 -124.781 322.238 -134.898 335.73 -134.918 
	L 1015.84 -135.25 
	C 1029.85 -135.25 1041.9 -125.488 1044.55 -111.691 
	C 1045.87 -104.871 1045 -98.379 1041.53 -92.379 
	L 700.625 500.02 
	Z 
	"/>
</g>
<g fill="#ffffff" fill-rule="evenodd" stroke-width="0" stroke-linejoin="miter" stroke-linecap="butt" stroke-miterlimit="10" >
	<path d="
	M 838.352 26.211 
	C 839.863 23.539 841.102 20.77 842.023 17.84 
	C 844.598 9.62097 842.938 1.58197 838.066 -5.539 
	C 832.688 -13.391 823.555 -18.191 814.035 -18.191 
	L 538.809 -18 
	C 525.359 -18 512.77 -8.42999 510.188 4.961 
	C 508.844 11.91 509.648 18.77 513.188 24.961 
	L 650.617 263.441 
	C 656.055 272.871 664.891 278.781 675.977 278.719 
	C 684.906 278.711 695.004 274.309 699.605 266.32 
	L 838.352 26.211 
	Z 
	"/>
</g>
<g fill="#7f88e1" fill-rule="evenodd" stroke-width="0" stroke-linejoin="miter" stroke-linecap="butt" stroke-miterlimit="10" >
	<path d="
	M 590.473 34.719 
	L 579.223 9.62097 
	L 568.328 9.62097 
	L 585.457 48.031 
	L 585.457 80.488 
	L 595.48 80.488 
	L 595.48 48.031 
	L 612.637 9.62097 
	L 601.723 9.62097 
	Z 
	"/>
</g>
<g fill="#7f88e1" fill-rule="evenodd" stroke-width="0" stroke-linejoin="miter" stroke-linecap="butt" stroke-miterlimit="10" >
	<path d="
	M 659.43 47.27 
	L 674.441 47.27 
	L 674.441 37.34 
	L 659.43 37.34 
	L 659.43 19.621 
	L 683.801 19.621 
	L 683.801 9.62097 
	L 649.504 9.62097 
	L 649.504 80.488 
	L 684.934 80.488 
	L 684.934 70.59 
	L 659.43 70.59 
	Z 
	"/>
</g>
<g fill="#7f88e1" fill-rule="evenodd" stroke-width="0" stroke-linejoin="miter" stroke-linecap="butt" stroke-miterlimit="10" >
	<path d="
	M 706.867 9.62097 
	L 696.941 9.62097 
	L 696.941 80.488 
	L 732.387 80.488 
	L 732.387 71.09 
	L 706.867 71.09 
	Z 
	"/>
</g>
<g fill="#7f88e1" fill-rule="evenodd" stroke-width="0" stroke-linejoin="miter" stroke-linecap="butt" stroke-miterlimit="10" >
	<path d="
	M 771.234 62.699 
	C 770.082 67.289 766.082 70.59 761.289 70.59 
	L 754.301 70.59 
	L 754.301 19.621 
	L 761.551 19.621 
	C 765.895 19.621 769.891 22.539 771.07 26.75 
	C 772.727 32.59 773.105 39.051 773.121 45.059 
	C 773.145 50.961 772.707 56.988 771.234 62.699 
	Z 
	M 781.801 29.238 
	C 780.785 23.359 778.77 17.77 773.934 13.941 
	C 770.438 11.191 766.008 9.62097 761.551 9.62097 
	L 744.371 9.62097 
	L 744.371 80.488 
	L 761.551 80.488 
	C 766.387 80.211 770.145 79.219 774.066 76.102 
	C 780.617 70.898 781.801 62.961 782.652 55.199 
	C 783.598 46.582 783.293 37.789 781.801 29.238 
	Z 
	"/>
</g>
<g fill="#7f88e1" fill-rule="evenodd" stroke-width="0" stroke-linejoin="miter" stroke-linecap="butt" stroke-miterlimit="10" >
	<path d="
	M 624.617 80.488 
	L 634.523 80.488 
	L 634.523 9.62097 
	L 624.617 9.62097 
	Z 
	"/>
</g>
<g fill="#7f7f7f" fill-rule="evenodd" stroke-width="0" stroke-linejoin="miter" stroke-linecap="butt" stroke-miterlimit="10" >
	<path d="
	M 1813.07 -252.25 
	C 1847.9 -252.25 1876.29 -223.86 1876.29 -189.02 
	C 1876.29 -154.211 1847.9 -125.801 1813.07 -125.801 
	C 1778.26 -125.801 1749.85 -154.211 1749.85 -189.02 
	C 1749.85 -223.86 1778.26 -252.25 1813.07 -252.25 
	Z 
	"/>
</g>
<g fill="#7f7f7f" fill-rule="evenodd" stroke-width="0" stroke-linejoin="miter" stroke-linecap="butt" stroke-miterlimit="10" >
	<path d="
	M 1621.66 146.391 
	L 1754.27 57.988 
	C 1760.4 32.059 1785.85 -82.961 1836.84 -109.602 
	C 1887.38 -143 2073.67 -5.75 2074.74 -4.62903 
	L 2074.74 195.551 
	L 2034.33 188.539 
	L 2018.53 28.738 
	C 2003.31 25.66 1988.1 22.621 1972.88 19.539 
	C 2006.15 105.539 2018.34 188.391 1999.22 242.98 
	L 2080 573.129 
	L 2025.55 611.75 
	L 1907.91 306.219 
	L 1853.47 364.129 
	L 1777.95 594.191 
	L 1705.94 567.859 
	L 1770.93 325.512 
	L 1846.45 190.301 
	L 1817.49 90.5 
	L 1786.73 130.582 
	L 1642.74 178.012 
	L 1621.66 146.391 
	Z 
	"/>
</g>
<g stroke="#7f7f7f" fill="none" stroke-width="0.5" stroke-linejoin="miter" stroke-linecap="butt" stroke-miterlimit="4" >
	<path d="
	M 2286.47 656.75 
	C 2286.47 731.309 2226.03 791.75 2151.47 791.75 
	L 261.469 791.75 
	C 186.91 791.75 126.469 731.309 126.469 656.75 
	L 126.469 -1233.25 
	C 126.469 -1307.8 186.91 -1368.25 261.469 -1368.25 
	L 2151.47 -1368.25 
	C 2226.03 -1368.25 2286.47 -1307.8 2286.47 -1233.25 
	Z 
	"/>
</g>
<g fill="#7f7f7f" fill-rule="nonzero" stroke-width="0" stroke-linejoin="miter" stroke-linecap="butt" stroke-miterlimit="4" >
	<path d="
	M 441.609 -1061.18 
	C 444.805 -1063.29 448.625 -1064.52 452.734 -1064.52 
	C 463.93 -1064.52 473.004 -1055.44 473.004 -1044.25 
	C 473.004 -1041.89 472.598 -1039.62 471.855 -1037.52 
	L 454.02 -985.75 
	L 697.969 -985.75 
	C 710.395 -985.75 720.469 -975.67 720.469 -963.25 
	L 720.469 -661.75 
	L 621.469 -661.75 
	L 621.469 -873.25 
	C 621.469 -880.7 615.426 -886.75 607.969 -886.75 
	L 454.02 -886.75 
	L 471.855 -834.98 
	C 472.598 -832.87 473.004 -830.61 473.004 -828.25 
	C 473.004 -817.05 463.93 -807.98 452.734 -807.98 
	C 448.625 -807.98 444.805 -809.2 441.609 -811.3 
	L 252.469 -936.25 
	Z 
	"/>
</g>
<g fill="#7f7f7f" fill-rule="nonzero" stroke-width="0" stroke-linejoin="miter" stroke-linecap="butt" stroke-miterlimit="4" >
	<path d="
	M 1403.56 128.77 
	C 1396.72 117.398 1388.36 112.852 1375.44 112.09 
	C 1358.73 111.34 1348.09 119.672 1340.5 138.621 
	C 1335.18 151.5 1332.14 171.211 1332.14 189.398 
	C 1332.14 212.141 1336.7 235.629 1345.05 249.27 
	C 1351.89 260.641 1361.01 265.949 1374.68 265.949 
	C 1390.64 265.949 1400.52 257.609 1408.11 238.66 
	C 1412.67 227.289 1416.47 206.07 1416.47 189.398 
	C 1416.47 165.148 1411.91 143.172 1403.56 128.77 
	Z 
	M 1427.11 276.559 
	C 1414.95 293.23 1397.48 300.809 1374.68 300.809 
	C 1344.3 300.809 1325.3 288.68 1312.39 262.16 
	C 1303.27 243.969 1297.19 215.172 1297.19 189.398 
	C 1297.19 153.781 1306.31 121.949 1320.74 101.48 
	C 1333.66 84.809 1351.13 77.23 1376.2 77.23 
	C 1403.56 77.23 1422.55 89.359 1436.22 115.879 
	C 1445.34 134.832 1450.66 162.121 1450.66 189.398 
	C 1450.66 223.5 1442.3 257.609 1427.11 276.559 
	Z 
	"/>
</g>
<g fill="#7f7f7f" fill-rule="nonzero" stroke-width="0" stroke-linejoin="miter" stroke-linecap="butt" stroke-miterlimit="4" >
	<path d="
	M 1218.87 111.07 
	L 1218.87 296.75 
	L 1184.62 296.75 
	L 1184.62 111.07 
	L 1135.14 111.07 
	L 1135.14 80.75 
	L 1269.11 80.75 
	L 1269.11 111.07 
	Z 
	"/>
</g>
<g fill="#7f7f7f" fill-rule="nonzero" stroke-width="0" stroke-linejoin="miter" stroke-linecap="butt" stroke-miterlimit="4" >
	<path d="
	M 2225.71 -387.25 
	L 182.508 -387.25 
	L 182.508 -432.25 
	L 2225.71 -432.25 
	Z 
	"/>
</g>
<g fill="#7f7f7f" fill-rule="nonzero" stroke-width="0" stroke-linejoin="miter" stroke-linecap="butt" stroke-miterlimit="4" >
	<path d="
	M 1562.2 -945.24 
	L 1479.58 -1091.52 
	L 1479.58 -945.24 
	L 1445.47 -945.24 
	L 1445.47 -1161.24 
	L 1479.58 -1161.24 
	L 1558.4 -1023.31 
	L 1558.4 -1161.24 
	L 1592.51 -1161.24 
	L 1592.51 -945.24 
	Z 
	"/>
</g>
<g fill="#7f7f7f" fill-rule="nonzero" stroke-width="0" stroke-linejoin="miter" stroke-linecap="butt" stroke-miterlimit="4" >
	<path d="
	M 1847.48 -945.24 
	L 1764.86 -1091.52 
	L 1764.86 -945.24 
	L 1730.75 -945.24 
	L 1730.75 -1161.24 
	L 1764.86 -1161.24 
	L 1843.69 -1023.31 
	L 1843.69 -1161.24 
	L 1877.79 -1161.24 
	L 1877.79 -945.24 
	Z 
	"/>
</g>
<g fill="#7f7f7f" fill-rule="nonzero" stroke-width="0" stroke-linejoin="miter" stroke-linecap="butt" stroke-miterlimit="4" >
	<path d="
	M 1644.35 -945.24 
	L 1644.35 -1161.24 
	L 1678.91 -1161.24 
	L 1678.91 -945.24 
	Z 
	"/>
</g>
<g fill="#7f7f7f" fill-rule="nonzero" stroke-width="0" stroke-linejoin="miter" stroke-linecap="butt" stroke-miterlimit="4" >
	<path d="
	M 1200.02 -977.83 
	C 1188.65 -956.61 1162.88 -941.45 1136.35 -941.45 
	C 1109.82 -941.45 1084.05 -956.61 1072.68 -977.83 
	C 1066.62 -990.72 1062.83 -1005.88 1062.83 -1022.55 
	L 1062.83 -1161.24 
	L 1096.93 -1161.24 
	L 1096.93 -1022.55 
	C 1096.93 -994.5 1112.85 -976.32 1136.35 -976.32 
	C 1159.84 -976.32 1175.76 -994.5 1175.76 -1022.55 
	L 1175.76 -1161.24 
	L 1209.87 -1161.24 
	L 1209.87 -1022.55 
	C 1209.87 -1005.88 1206.08 -990.72 1200.02 -977.83 
	Z 
	"/>
</g>
<g fill="#7f7f7f" fill-rule="nonzero" stroke-width="0" stroke-linejoin="miter" stroke-linecap="butt" stroke-miterlimit="4" >
	<path d="
	M 980.188 -1130.93 
	L 980.188 -945.25 
	L 945.934 -945.25 
	L 945.934 -1130.93 
	L 896.453 -1130.93 
	L 896.453 -1161.25 
	L 1030.43 -1161.25 
	L 1030.43 -1130.93 
	Z 
	"/>
</g>
<g fill="#7f7f7f" fill-rule="nonzero" stroke-width="0" stroke-linejoin="miter" stroke-linecap="butt" stroke-miterlimit="4" >
	<path d="
	M 1356.45 -1123.35 
	C 1351.15 -1126.38 1348.11 -1127.14 1336.74 -1127.14 
	L 1295.82 -1127.14 
	L 1295.82 -1074.09 
	L 1336.74 -1074.09 
	C 1347.36 -1074.09 1351.15 -1074.84 1356.45 -1077.88 
	C 1364.79 -1082.42 1370.1 -1091.52 1370.1 -1100.61 
	C 1370.1 -1109.71 1364.79 -1118.8 1356.45 -1123.35 
	Z 
	M 1371.61 -945.24 
	L 1336.74 -1039.23 
	L 1295.82 -1039.23 
	L 1295.82 -945.24 
	L 1261.71 -945.24 
	L 1261.71 -1161.24 
	L 1332.96 -1161.24 
	C 1349.63 -1161.24 1361 -1159.73 1371.61 -1154.42 
	C 1390.56 -1145.33 1404.2 -1122.59 1404.2 -1100.61 
	C 1404.2 -1077.88 1390.56 -1055.14 1370.85 -1046.04 
	L 1408.75 -945.24 
	Z 
	"/>
</g>
<g fill="#7f7f7f" fill-rule="nonzero" stroke-width="0" stroke-linejoin="miter" stroke-linecap="butt" stroke-miterlimit="4" >
	<path d="
	M 2004.14 -941.45 
	C 1971.55 -941.45 1952.6 -953.58 1939.72 -980.86 
	C 1930.62 -999.81 1925.32 -1026.34 1925.32 -1052.86 
	C 1925.32 -1087.73 1935.17 -1121.83 1949.57 -1140.78 
	C 1962.46 -1156.7 1980.65 -1165.03 2004.9 -1165.03 
	C 2038.25 -1165.03 2057.96 -1151.39 2072.36 -1117.29 
	L 2039.77 -1104.4 
	C 2030.67 -1123.35 2021.58 -1130.17 2004.9 -1130.17 
	C 1987.47 -1130.17 1976.1 -1122.59 1968.52 -1103.64 
	C 1963.21 -1090.76 1960.18 -1071.05 1960.18 -1052.86 
	C 1960.18 -1030.13 1963.97 -1007.39 1970.79 -993.75 
	C 1977.62 -981.62 1987.47 -976.32 2000.35 -976.32 
	C 2022.33 -976.32 2038.25 -989.96 2038.25 -1009.66 
	L 2038.25 -1018.76 
	L 1998.84 -1018.76 
	L 1998.84 -1052.86 
	L 2072.36 -1052.86 
	L 2072.36 -1009.66 
	C 2072.36 -970.25 2043.56 -941.45 2004.14 -941.45 
	Z 
	"/>
</g>
<g fill="#7f7f7f" fill-rule="nonzero" stroke-width="0" stroke-linejoin="miter" stroke-linecap="butt" stroke-miterlimit="4" >
	<path d="
	M 1397.52 -567.24 
	L 1397.52 -783.24 
	L 1432.08 -783.24 
	L 1432.08 -567.24 
	Z 
	"/>
</g>
<g fill="#7f7f7f" fill-rule="nonzero" stroke-width="0" stroke-linejoin="miter" stroke-linecap="butt" stroke-miterlimit="4" >
	<path d="
	M 1655.15 -567.24 
	L 1655.15 -783.25 
	L 1689.21 -783.25 
	L 1689.21 -599.07 
	L 1789.13 -599.07 
	L 1789.13 -567.24 
	Z 
	"/>
</g>
<g fill="#7f7f7f" fill-rule="nonzero" stroke-width="0" stroke-linejoin="miter" stroke-linecap="butt" stroke-miterlimit="4" >
	<path d="
	M 2092.12 -580.39 
	C 2079.99 -569.78 2063.32 -563.72 2045.13 -563.72 
	C 2007.99 -563.72 1980.7 -585.7 1966.3 -618.29 
	L 1998.89 -630.41 
	C 2007.99 -609.95 2024.66 -598.58 2045.13 -598.58 
	C 2064.83 -598.58 2078.48 -612.23 2078.48 -630.41 
	C 2078.48 -659.21 2045.13 -663.76 2017.08 -675.13 
	C 2004.2 -680.43 1975.4 -693.32 1975.4 -728.94 
	C 1975.4 -771.38 2004.2 -787.3 2042.85 -787.3 
	C 2073.17 -787.3 2093.64 -769.87 2104.25 -743.34 
	L 2073.93 -734.25 
	C 2073.93 -734.25 2066.35 -752.43 2042.1 -753.19 
	C 2026.18 -753.95 2007.23 -747.89 2008.75 -728.18 
	C 2011.78 -688.02 2113.34 -714.54 2113.34 -629.66 
	C 2113.34 -609.95 2105.76 -592.52 2092.12 -580.39 
	Z 
	"/>
</g>
<g fill="#7f7f7f" fill-rule="nonzero" stroke-width="0" stroke-linejoin="miter" stroke-linecap="butt" stroke-miterlimit="4" >
	<path d="
	M 950.531 -567.24 
	L 923.91 -567.24 
	L 855.469 -783.24 
	L 891.211 -783.24 
	L 937.602 -639.25 
	L 983.23 -783.24 
	L 1019.74 -783.24 
	Z 
	"/>
</g>
<g fill="#7f7f7f" fill-rule="nonzero" stroke-width="0" stroke-linejoin="miter" stroke-linecap="butt" stroke-miterlimit="4" >
	<path d="
	M 1321.94 -567.24 
	L 1321.94 -661.22 
	L 1243.11 -661.22 
	L 1243.11 -567.24 
	L 1209 -567.24 
	L 1209 -783.24 
	L 1243.11 -783.24 
	L 1243.11 -696.09 
	L 1321.94 -696.09 
	L 1321.94 -783.24 
	L 1356.05 -783.24 
	L 1356.05 -567.24 
	Z 
	"/>
</g>
<g fill="#7f7f7f" fill-rule="nonzero" stroke-width="0" stroke-linejoin="miter" stroke-linecap="butt" stroke-miterlimit="4" >
	<path d="
	M 1045.66 -567.24 
	L 1045.66 -783.24 
	L 1172.82 -783.24 
	L 1172.82 -749.14 
	L 1079.72 -749.14 
	L 1079.72 -696.09 
	L 1142.54 -696.09 
	L 1142.54 -661.22 
	L 1079.72 -661.22 
	L 1079.72 -602.11 
	L 1179.63 -602.11 
	L 1179.63 -567.24 
	Z 
	"/>
</g>
<g fill="#7f7f7f" fill-rule="nonzero" stroke-width="0" stroke-linejoin="miter" stroke-linecap="butt" stroke-miterlimit="4" >
	<path d="
	M 1815.05 -567.24 
	L 1815.05 -783.24 
	L 1942.21 -783.24 
	L 1942.21 -749.14 
	L 1849.11 -749.14 
	L 1849.11 -696.09 
	L 1911.93 -696.09 
	L 1911.93 -661.22 
	L 1849.11 -661.22 
	L 1849.11 -602.11 
	L 1949.02 -602.11 
	L 1949.02 -567.24 
	Z 
	"/>
</g>
<g fill="#7f7f7f" fill-rule="nonzero" stroke-width="0" stroke-linejoin="miter" stroke-linecap="butt" stroke-miterlimit="4" >
	<path d="
	M 1551.95 -563.45 
	C 1520.12 -563.45 1499.65 -575.58 1486.01 -602.11 
	C 1476.16 -621.05 1470.09 -648.34 1470.09 -675.62 
	C 1470.09 -709.73 1479.19 -743.83 1494.35 -762.78 
	C 1507.23 -778.7 1525.42 -787.03 1549.68 -787.03 
	C 1582.27 -787.03 1602.74 -773.39 1617.14 -743.07 
	L 1585.3 -729.43 
	C 1573.17 -747.62 1566.35 -752.17 1549.68 -752.17 
	C 1532.25 -752.17 1520.88 -744.59 1513.3 -725.64 
	C 1507.99 -712.76 1504.96 -693.81 1504.96 -675.62 
	C 1504.96 -652.13 1510.26 -628.63 1518.6 -614.99 
	C 1526.18 -603.62 1536.04 -598.32 1551.19 -598.32 
	C 1565.59 -598.32 1576.21 -605.9 1584.54 -623.33 
	L 1617.14 -611.2 
	C 1604.25 -579.37 1583.03 -563.45 1551.95 -563.45 
	Z 
	"/>
</g>
<g fill="#7f7f7f" fill-rule="nonzero" stroke-width="0" stroke-linejoin="miter" stroke-linecap="butt" stroke-miterlimit="4" >
	<path d="
	M 2214.47 656.75 
	C 2214.47 691.492 2186.21 719.75 2151.47 719.75 
	L 261.469 719.75 
	C 226.73 719.75 198.469 691.492 198.469 656.75 
	L 198.469 -1233.25 
	C 198.469 -1267.98 226.73 -1296.25 261.469 -1296.25 
	L 2151.47 -1296.25 
	C 2186.21 -1296.25 2214.47 -1267.98 2214.47 -1233.25 
	Z 
	M 2151.47 -1341.25 
	L 261.469 -1341.25 
	C 201.918 -1341.25 153.469 -1292.8 153.469 -1233.25 
	L 153.469 656.75 
	C 153.469 716.309 201.918 764.75 261.469 764.75 
	L 2151.47 764.75 
	C 2211.02 764.75 2259.47 716.309 2259.47 656.75 
	L 2259.47 -1233.25 
	C 2259.47 -1292.8 2211.02 -1341.25 2151.47 -1341.25 
	Z 
	"/>
</g>
</g >
</g>
</svg>
