<?xml version="1.0" standalone="no"?>
<svg width="2592px" height="1728px" viewBox="0 -936 2592 1728 " xmlns="http://www.w3.org/2000/svg" xmlns:xlink="http://www.w3.org/1999/xlink">
<title>generated by pstoedit</title>
<!-- generated by pstoedit version:4.02 -->
<g xml:space='preserve'>
<clipPath id="clippath1"> 	<path d="
	M 0 -936.5 
	L 0 792 
	L 2592.5 792 
	L 2592.5 -936.5 
	Z 
	" style="clip-rule:nonzero"/>
</clipPath>
<g style="clip-path:url(#clippath1)"> 
<g fill="#ffffff" fill-rule="nonzero" stroke-width="0" stroke-linejoin="miter" stroke-linecap="butt" stroke-miterlimit="10" >
	<path d="
	M 2592.25 683.75 
	C 2592.25 743.398 2543.9 791.75 2484.25 791.75 
	L 108.25 791.75 
	C 48.6016 791.75 0.25 743.398 0.25 683.75 
	L 0.25 -828.25 
	C 0.25 -887.89 48.6016 -936.25 108.25 -936.25 
	L 2484.25 -936.25 
	C 2543.9 -936.25 2592.25 -887.89 2592.25 -828.25 
	Z 
	"/>
</g>
<g stroke="#7f7f7f" fill="none" stroke-width="0.5" stroke-linejoin="miter" stroke-linecap="butt" stroke-miterlimit="4" >
	<path d="
	M 2592.25 683.75 
	C 2592.25 743.398 2543.9 791.75 2484.25 791.75 
	L 108.25 791.75 
	C 48.6016 791.75 0.25 743.398 0.25 683.75 
	L 0.25 -828.25 
	C 0.25 -887.89 48.6016 -936.25 108.25 -936.25 
	L 2484.25 -936.25 
	C 2543.9 -936.25 2592.25 -887.89 2592.25 -828.25 
	Z 
	"/>
</g>
<g fill="#7f7f7f" fill-rule="nonzero" stroke-width="0" stroke-linejoin="miter" stroke-linecap="butt" stroke-miterlimit="4" >
	<path d="
	M 108.25 764.75 
	C 63.5859 764.75 27.25 728.41 27.25 683.75 
	L 27.25 -828.25 
	C 27.25 -872.91 63.5859 -909.25 108.25 -909.25 
	L 2484.25 -909.25 
	C 2528.91 -909.25 2565.25 -872.91 2565.25 -828.25 
	L 2565.25 683.75 
	C 2565.25 728.41 2528.91 764.75 2484.25 764.75 
	Z 
	"/>
</g>
<g fill="#ffffff" fill-rule="nonzero" stroke-width="0" stroke-linejoin="miter" stroke-linecap="butt" stroke-miterlimit="4" >
	<path d="
	M 108.25 719.75 
	C 88.3984 719.75 72.25 703.602 72.25 683.75 
	L 72.25 -828.25 
	C 72.25 -848.1 88.3984 -864.25 108.25 -864.25 
	L 2484.25 -864.25 
	C 2504.1 -864.25 2520.25 -848.1 2520.25 -828.25 
	L 2520.25 683.75 
	C 2520.25 703.602 2504.1 719.75 2484.25 719.75 
	Z 
	"/>
</g>
<g fill="#7f7f7f" fill-rule="nonzero" stroke-width="0" stroke-linejoin="miter" stroke-linecap="butt" stroke-miterlimit="4" >
	<path d="
	M 2049.77 557.75 
	L 1939.62 362.719 
	L 1939.62 557.75 
	L 1894.14 557.75 
	L 1894.14 269.75 
	L 1939.62 269.75 
	L 2044.72 453.672 
	L 2044.72 269.75 
	L 2090.19 269.75 
	L 2090.19 557.75 
	Z 
	"/>
</g>
<g fill="#7f7f7f" fill-rule="nonzero" stroke-width="0" stroke-linejoin="miter" stroke-linecap="butt" stroke-miterlimit="4" >
	<path d="
	M 1410.08 557.75 
	L 1410.08 269.75 
	L 1455.5 269.75 
	L 1455.5 515.309 
	L 1588.71 515.309 
	L 1588.71 557.75 
	Z 
	"/>
</g>
<g fill="#7f7f7f" fill-rule="nonzero" stroke-width="0" stroke-linejoin="miter" stroke-linecap="butt" stroke-miterlimit="4" >
	<path d="
	M 1148.61 557.75 
	L 1148.61 432.449 
	L 1043.5 432.449 
	L 1043.5 557.75 
	L 998.027 557.75 
	L 998.027 269.75 
	L 1043.5 269.75 
	L 1043.5 385.961 
	L 1148.61 385.961 
	L 1148.61 269.75 
	L 1194.08 269.75 
	L 1194.08 557.75 
	Z 
	"/>
</g>
<g fill="#7f7f7f" fill-rule="nonzero" stroke-width="0" stroke-linejoin="miter" stroke-linecap="butt" stroke-miterlimit="4" >
	<path d="
	M 254.551 557.75 
	L 254.551 269.75 
	L 424.102 269.75 
	L 424.102 315.23 
	L 299.965 315.23 
	L 299.965 385.961 
	L 383.734 385.961 
	L 383.734 432.449 
	L 299.965 432.449 
	L 299.965 511.27 
	L 433.184 511.27 
	L 433.184 557.75 
	Z 
	"/>
</g>
<g fill="#7f7f7f" fill-rule="nonzero" stroke-width="0" stroke-linejoin="miter" stroke-linecap="butt" stroke-miterlimit="4" >
	<path d="
	M 2159.31 557.75 
	L 2159.31 269.75 
	L 2328.86 269.75 
	L 2328.86 315.23 
	L 2204.73 315.23 
	L 2204.73 385.961 
	L 2288.5 385.961 
	L 2288.5 432.449 
	L 2204.73 432.449 
	L 2204.73 511.27 
	L 2337.95 511.27 
	L 2337.95 557.75 
	Z 
	"/>
</g>
<g fill="#7f7f7f" fill-rule="nonzero" stroke-width="0" stroke-linejoin="miter" stroke-linecap="butt" stroke-miterlimit="4" >
	<path d="
	M 579.203 349.578 
	L 549.73 430.43 
	L 607.664 430.43 
	Z 
	M 652.383 557.75 
	L 623.926 476.91 
	L 533.469 476.91 
	L 505.012 557.75 
	L 456.227 557.75 
	L 555.828 269.75 
	L 601.566 269.75 
	L 701.168 557.75 
	Z 
	"/>
</g>
<g fill="#7f7f7f" fill-rule="nonzero" stroke-width="0" stroke-linejoin="miter" stroke-linecap="butt" stroke-miterlimit="4" >
	<path d="
	M 1728.97 349.578 
	L 1699.5 430.43 
	L 1757.43 430.43 
	Z 
	M 1802.15 557.75 
	L 1773.69 476.91 
	L 1683.24 476.91 
	L 1654.78 557.75 
	L 1605.99 557.75 
	L 1705.6 269.75 
	L 1751.33 269.75 
	L 1850.94 557.75 
	Z 
	"/>
</g>
<g fill="#7f7f7f" fill-rule="nonzero" stroke-width="0" stroke-linejoin="miter" stroke-linecap="butt" stroke-miterlimit="4" >
	<path d="
	M 847.754 562.809 
	C 805.309 562.809 778.023 546.641 759.832 511.27 
	C 746.695 486.012 738.609 449.629 738.609 413.25 
	C 738.609 367.77 750.734 322.301 770.949 297.039 
	C 788.129 275.82 812.383 264.699 844.723 264.699 
	C 888.18 264.699 915.465 282.891 934.664 323.309 
	L 892.219 341.5 
	C 876.051 317.25 866.953 311.18 844.723 311.18 
	C 821.48 311.18 806.32 321.289 796.215 346.551 
	C 789.141 363.73 785.098 389 785.098 413.25 
	C 785.098 444.57 792.172 475.898 803.289 494.09 
	C 813.395 509.25 826.531 516.32 846.742 516.32 
	C 865.945 516.32 880.094 506.219 891.211 482.969 
	L 934.664 499.141 
	C 917.484 541.578 889.188 562.809 847.754 562.809 
	Z 
	"/>
</g>
<g fill="#7f7f7f" fill-rule="nonzero" stroke-width="0" stroke-linejoin="miter" stroke-linecap="butt" stroke-miterlimit="4" >
	<path d="
	M 2273.11 71.75 
	L 2162.96 -123.281 
	L 2162.96 71.75 
	L 2117.48 71.75 
	L 2117.48 -216.25 
	L 2162.96 -216.25 
	L 2268.06 -32.332 
	L 2268.06 -216.25 
	L 2313.54 -216.25 
	L 2313.54 71.75 
	Z 
	"/>
</g>
<g fill="#7f7f7f" fill-rule="nonzero" stroke-width="0" stroke-linejoin="miter" stroke-linecap="butt" stroke-miterlimit="4" >
	<path d="
	M 411.352 -165.723 
	C 403.27 -169.766 398.215 -170.777 384.066 -170.777 
	L 324.441 -170.777 
	L 324.441 -100.039 
	L 384.066 -100.039 
	C 398.215 -100.039 403.27 -101.051 411.352 -105.09 
	C 421.457 -110.145 428.531 -123.281 428.531 -135.406 
	C 428.531 -147.535 421.457 -159.66 411.352 -165.723 
	Z 
	M 430.555 -63.66 
	C 417.414 -57.598 400.234 -53.555 378.004 -53.555 
	L 324.441 -53.555 
	L 324.441 71.75 
	L 278.965 71.75 
	L 278.965 -216.25 
	L 378.004 -216.25 
	C 401.246 -216.25 416.402 -214.23 430.555 -207.156 
	C 455.816 -195.027 475.02 -164.711 475.02 -135.406 
	C 475.02 -105.09 455.816 -74.773 430.555 -63.66 
	Z 
	"/>
</g>
<g fill="#7f7f7f" fill-rule="nonzero" stroke-width="0" stroke-linejoin="miter" stroke-linecap="butt" stroke-miterlimit="4" >
	<path d="
	M 872.133 -165.723 
	C 865.059 -169.766 861.016 -170.773 845.855 -170.773 
	L 791.285 -170.773 
	L 791.285 -100.039 
	L 845.855 -100.039 
	C 860.008 -100.039 865.059 -101.047 872.133 -105.09 
	C 883.25 -111.152 890.324 -123.281 890.324 -135.406 
	C 890.324 -147.531 883.25 -159.66 872.133 -165.723 
	Z 
	M 892.344 71.75 
	L 845.855 -53.555 
	L 791.285 -53.555 
	L 791.285 71.75 
	L 745.809 71.75 
	L 745.809 -216.25 
	L 840.805 -216.25 
	C 863.039 -216.25 878.195 -214.23 892.344 -207.152 
	C 917.609 -195.027 935.801 -164.711 935.801 -135.406 
	C 935.801 -105.09 917.609 -74.773 891.336 -62.648 
	L 941.867 71.75 
	Z 
	"/>
</g>
<g fill="#7f7f7f" fill-rule="nonzero" stroke-width="0" stroke-linejoin="miter" stroke-linecap="butt" stroke-miterlimit="4" >
	<path d="
	M 1543.6 -165.723 
	C 1536.53 -169.766 1532.49 -170.773 1517.33 -170.773 
	L 1462.76 -170.773 
	L 1462.76 -100.039 
	L 1517.33 -100.039 
	C 1531.48 -100.039 1536.53 -101.047 1543.6 -105.09 
	C 1554.72 -111.152 1561.8 -123.281 1561.8 -135.406 
	C 1561.8 -147.531 1554.72 -159.66 1543.6 -165.723 
	Z 
	M 1563.82 71.75 
	L 1517.33 -53.555 
	L 1462.76 -53.555 
	L 1462.76 71.75 
	L 1417.28 71.75 
	L 1417.28 -216.25 
	L 1512.28 -216.25 
	C 1534.51 -216.25 1549.67 -214.23 1563.82 -207.152 
	C 1589.08 -195.027 1607.27 -164.711 1607.27 -135.406 
	C 1607.27 -105.09 1589.08 -74.773 1562.81 -62.648 
	L 1613.34 71.75 
	Z 
	"/>
</g>
<g fill="#7f7f7f" fill-rule="nonzero" stroke-width="0" stroke-linejoin="miter" stroke-linecap="butt" stroke-miterlimit="4" >
	<path d="
	M 518.219 71.75 
	L 518.219 -216.25 
	L 687.766 -216.25 
	L 687.766 -170.773 
	L 563.633 -170.773 
	L 563.633 -100.039 
	L 647.398 -100.039 
	L 647.398 -53.555 
	L 563.633 -53.555 
	L 563.633 25.27 
	L 696.852 25.27 
	L 696.852 71.75 
	Z 
	"/>
</g>
<g fill="#7f7f7f" fill-rule="nonzero" stroke-width="0" stroke-linejoin="miter" stroke-linecap="butt" stroke-miterlimit="4" >
	<path d="
	M 1662.29 71.75 
	L 1662.29 -216.25 
	L 1831.84 -216.25 
	L 1831.84 -170.773 
	L 1707.71 -170.773 
	L 1707.71 -100.039 
	L 1791.48 -100.039 
	L 1791.48 -53.555 
	L 1707.71 -53.555 
	L 1707.71 25.27 
	L 1840.93 25.27 
	L 1840.93 71.75 
	Z 
	"/>
</g>
<g fill="#7f7f7f" fill-rule="nonzero" stroke-width="0" stroke-linejoin="miter" stroke-linecap="butt" stroke-miterlimit="4" >
	<path d="
	M 1889.89 71.75 
	L 1889.89 -216.25 
	L 2059.44 -216.25 
	L 2059.44 -170.773 
	L 1935.3 -170.773 
	L 1935.3 -100.039 
	L 2019.07 -100.039 
	L 2019.07 -53.555 
	L 1935.3 -53.555 
	L 1935.3 25.27 
	L 2068.52 25.27 
	L 2068.52 71.75 
	Z 
	"/>
</g>
<g fill="#7f7f7f" fill-rule="nonzero" stroke-width="0" stroke-linejoin="miter" stroke-linecap="butt" stroke-miterlimit="4" >
	<path d="
	M 1262.97 76.809 
	C 1219.51 76.809 1194.25 60.637 1177.07 24.258 
	C 1164.94 -1.008 1157.87 -36.375 1157.87 -71.742 
	C 1157.87 -118.227 1171 -163.703 1190.2 -188.965 
	C 1207.39 -210.19 1231.64 -221.3 1263.98 -221.3 
	C 1308.45 -221.3 1334.72 -203.109 1353.92 -157.637 
	L 1310.46 -140.457 
	C 1298.34 -165.723 1286.21 -174.816 1263.98 -174.816 
	C 1240.74 -174.816 1225.58 -164.711 1215.47 -139.449 
	C 1208.4 -122.27 1204.35 -95.996 1204.35 -71.742 
	C 1204.35 -41.426 1209.41 -11.109 1218.5 7.078 
	C 1227.6 23.246 1240.74 30.32 1257.92 30.32 
	C 1287.22 30.32 1308.45 12.133 1308.45 -14.145 
	L 1308.45 -26.27 
	L 1255.89 -26.27 
	L 1255.89 -71.742 
	L 1353.92 -71.742 
	L 1353.92 -14.145 
	C 1353.92 38.406 1315.52 76.809 1262.97 76.809 
	Z 
	"/>
</g>
<g fill="#7f7f7f" fill-rule="nonzero" stroke-width="0" stroke-linejoin="miter" stroke-linecap="butt" stroke-miterlimit="4" >
	<path d="
	M 1478.09 -414.25 
	L 1478.09 -702.25 
	L 1524.17 -702.25 
	L 1524.17 -414.25 
	Z 
	"/>
</g>
<g fill="#7f7f7f" fill-rule="nonzero" stroke-width="0" stroke-linejoin="miter" stroke-linecap="butt" stroke-miterlimit="4" >
	<path d="
	M 1846.94 -414.25 
	L 1846.94 -702.25 
	L 1892.36 -702.25 
	L 1892.36 -456.69 
	L 2025.57 -456.69 
	L 2025.57 -414.25 
	Z 
	"/>
</g>
<g fill="#7f7f7f" fill-rule="nonzero" stroke-width="0" stroke-linejoin="miter" stroke-linecap="butt" stroke-miterlimit="4" >
	<path d="
	M 849.844 -414.25 
	L 814.355 -414.25 
	L 723.094 -702.25 
	L 770.754 -702.25 
	L 832.605 -510.25 
	L 893.445 -702.25 
	L 942.117 -702.25 
	Z 
	"/>
</g>
<g fill="#7f7f7f" fill-rule="nonzero" stroke-width="0" stroke-linejoin="miter" stroke-linecap="butt" stroke-miterlimit="4" >
	<path d="
	M 1363.49 -414.25 
	L 1363.49 -539.55 
	L 1258.39 -539.55 
	L 1258.39 -414.25 
	L 1212.91 -414.25 
	L 1212.91 -702.25 
	L 1258.39 -702.25 
	L 1258.39 -586.04 
	L 1363.49 -586.04 
	L 1363.49 -702.25 
	L 1408.97 -702.25 
	L 1408.97 -414.25 
	Z 
	"/>
</g>
<g fill="#7f7f7f" fill-rule="nonzero" stroke-width="0" stroke-linejoin="miter" stroke-linecap="butt" stroke-miterlimit="4" >
	<path d="
	M 985.316 -414.25 
	L 985.316 -702.25 
	L 1154.87 -702.25 
	L 1154.87 -656.78 
	L 1030.73 -656.78 
	L 1030.73 -586.04 
	L 1114.5 -586.04 
	L 1114.5 -539.55 
	L 1030.73 -539.55 
	L 1030.73 -460.73 
	L 1163.95 -460.73 
	L 1163.95 -414.25 
	Z 
	"/>
</g>
<g fill="#7f7f7f" fill-rule="nonzero" stroke-width="0" stroke-linejoin="miter" stroke-linecap="butt" stroke-miterlimit="4" >
	<path d="
	M 2068.77 -414.25 
	L 2068.77 -702.25 
	L 2238.32 -702.25 
	L 2238.32 -656.78 
	L 2114.19 -656.78 
	L 2114.19 -586.04 
	L 2197.95 -586.04 
	L 2197.95 -539.55 
	L 2114.19 -539.55 
	L 2114.19 -460.73 
	L 2247.41 -460.73 
	L 2247.41 -414.25 
	Z 
	"/>
</g>
<g fill="#7f7f7f" fill-rule="nonzero" stroke-width="0" stroke-linejoin="miter" stroke-linecap="butt" stroke-miterlimit="4" >
	<path d="
	M 1696.67 -409.2 
	C 1654.22 -409.2 1626.94 -425.36 1608.75 -460.73 
	C 1595.61 -486 1587.53 -522.38 1587.53 -558.75 
	C 1587.53 -604.23 1599.65 -649.7 1619.86 -674.96 
	C 1637.04 -696.19 1661.3 -707.3 1693.64 -707.3 
	C 1737.09 -707.3 1764.38 -689.11 1783.58 -648.69 
	L 1741.14 -630.5 
	C 1724.97 -654.75 1715.87 -660.82 1693.64 -660.82 
	C 1670.39 -660.82 1655.24 -650.71 1645.13 -625.45 
	C 1638.06 -608.27 1634.01 -583.01 1634.01 -558.75 
	C 1634.01 -527.43 1641.09 -496.1 1652.2 -477.91 
	C 1662.31 -462.75 1675.45 -455.68 1695.66 -455.68 
	C 1714.86 -455.68 1729.01 -465.79 1740.13 -489.03 
	L 1783.58 -472.86 
	C 1766.4 -430.42 1738.1 -409.2 1696.67 -409.2 
	Z 
	"/>
</g>
<g fill="#7f7f7f" fill-rule="nonzero" stroke-width="0" stroke-linejoin="miter" stroke-linecap="butt" stroke-miterlimit="4" >
	<path d="
	M 377.594 -378.25 
	L 377.594 -670.04 
	L 345.094 -670.04 
	L 345.094 -715.52 
	L 348.844 -715.52 
	C 363.844 -715.52 380.094 -724.36 390.094 -738.25 
	L 435.094 -738.25 
	L 435.094 -378.25 
	Z 
	"/>
</g>
</g >
</g>
</svg>
