<?xml version="1.0" encoding="UTF-8"?>
<svg id="For_Sheets" xmlns="http://www.w3.org/2000/svg" version="1.1" viewBox="0 0 3456 4320">
  <!-- Generator: Adobe Illustrator 29.1.0, SVG Export Plug-In . SVG Version: 2.1.0 Build 142)  -->
  <defs>
    <style>
      .st0, .st1 {
        fill: #231f20;
      }

      .st2 {
        fill: #fff;
      }

      .st1 {
        fill-rule: evenodd;
      }
    </style>
  </defs>
  <g>
    <path class="st2" d="M216,4320.1c-57.5,0-111.7-22.5-152.6-63.5C22.4,4215.7-.1,4161.5-.1,4104V216C-.1,158.5,22.4,104.3,63.4,63.4,104.3,22.4,158.5-.1,216-.1s0,0,0,0h3024c57.5,0,111.7,22.5,152.6,63.5,40.9,40.9,63.5,95.1,63.5,152.6v3888c0,57.5-22.5,111.7-63.5,152.6-40.9,40.9-95.1,63.5-152.6,63.5H216Z"/>
    <path class="st0" d="M3240,0c118.8,0,216,97.2,216,216v3888c0,118.8-97.2,216-216,216H216c-118.8,0-216-97.2-216-216V216C0,97.2,97.2,0,216,0h3024M3240-.2H216c-29.1,0-57.3,5.7-84,17.1-25.7,10.9-48.9,26.6-68.8,46.5-19.9,19.9-35.5,43-46.5,68.8C5.5,158.7-.2,186.9-.2,216v3888c0,29.1,5.7,57.3,17.1,84,10.9,25.7,26.6,48.9,46.5,68.8,19.9,19.9,43,35.5,68.8,46.5,26.7,11.3,54.9,17.1,84,17.1h3024c29.1,0,57.3-5.7,84-17.1,25.7-10.9,48.9-26.6,68.8-46.5,19.9-19.9,35.5-43,46.5-68.8,11.3-26.7,17.1-54.9,17.1-84V216c0-29.1-5.7-57.3-17.1-84-10.9-25.7-26.6-48.9-46.5-68.8-19.9-19.9-43-35.5-68.8-46.5-26.7-11.3-54.9-17.1-84-17.1h0Z"/>
  </g>
  <path class="st0" d="M216,4266c-43,0-83.6-16.9-114.4-47.6-30.7-30.7-47.6-71.3-47.6-114.4V216c0-43,16.9-83.6,47.6-114.4,30.7-30.7,71.3-47.6,114.4-47.6h3024c43,0,83.6,16.9,114.4,47.6,30.7,30.7,47.6,71.3,47.6,114.4v3888c0,43-16.9,83.6-47.6,114.4-30.7,30.7-71.3,47.6-114.4,47.6H216Z"/>
  <path class="st2" d="M216,4191.3c-19.3,0-36.8-7.4-50.7-21.3-13.9-13.9-21.3-31.5-21.3-50.7V231.3c0-19.3,7.4-36.8,21.3-50.7,13.9-13.9,31.5-21.3,50.7-21.3h3024c19.3,0,36.8,7.4,50.7,21.3,13.9,13.9,21.3,31.5,21.3,50.7v3888c0,19.3-7.4,36.8-21.3,50.7-13.9,13.9-31.5,21.3-50.7,21.3H216Z"/>
  <path class="st1" d="M1131.1,2284.4h92.9v-340.4h-587.9v59.3h-80.8c-32.8,0-53.4,0-67,45.9l-22.7,89.7h-52.4q-25.7,0-25.7,25.1v120.3h-27.5v27.8h98.6c5,37.9,28.9,63.8,66.7,63.8s62.9-26.5,71.3-63.8h39.6v-27.8h346.4c-.6,3.6-.9,11.4-.9,15.3,0,42.1,33.9,76.3,75.5,76.3s75.5-34.3,75.5-76.3-.6-10.8-1.5-15.3Z"/>
  <g>
    <path class="st1" d="M854.8,3039h86.5l-35.9-39.4h-246.5v-222.8h-117c-30.6,0-49.7,0-62.4,42.9l-21.1,83.7h-48.8q-24,0-24,23.5v112.3h-25.6v26h91.8c4.7,35.3,26.9,59.5,62.1,59.5s58.5-24.7,66.3-59.5h36.8v-26h99.5c-.5,3.3-.8,10.6-.8,14.2,0,39.2,31.6,71.2,70.2,71.2s70.2-32,70.2-71.2-.5-10.1-1.4-14.2Z"/>
    <path class="st1" d="M1525.7,3132c41.4,0,75.2-34.3,75.2-76.3s-.5-10.5-1.6-15.6h128.7v-340.2H686.6v275.3h245.9l58.3,64.9h461.3c-1,5-1.6,10.2-1.6,15.6,0,42,33.8,76.3,75.2,76.3Z"/>
  </g>
  <path class="st1" d="M1804,3885.5c41.9,0,76-34.4,76-76.6s-.5-10-1.4-14.7h65.4c0,0,0-338.2,0-338.2h-685.8v309.8h-36.6v-309.8h-584.7v59.2h-81c-32.9,0-53.5,0-67.2,45.9l-22.7,89.6h-52.5q-25.8,0-25.8,25.1v120.2h-27.6v27.8h98.9c5,37.8,29,63.7,66.9,63.7s63-26.5,71.5-63.7h39.7v-27.8h263.5c-.6,3.6-.9,11.9-.9,15.8,0,42,34,76.2,75.7,76.2s75.7-34.3,75.7-76.2-.6-11.3-1.5-15.8h285.5c-1,5.1-1.6,10.2-1.6,15.5,0,42.2,34.2,76.6,76,76.6s76-34.4,76-76.6-.5-10.3-1.5-15.2l245.5-2.1c-.9,4.8-1.4,9.8-1.4,14.9,0,42.2,34.1,76.6,76,76.6Z"/>
  <g>
    <path class="st0" d="M868.8,864l-69.8-289.5-68.3,289.5h-82l-78.9-432h80.4l47,278.9,63.8-278.9h77.4l66.8,278.9,44-278.9h78.9l-77.4,432h-81.9Z"/>
    <path class="st0" d="M1101.6,432h316.4v77.3h-237.3v80.3h129.3v78.8h-129.3v118.2h244.9v77.3h-324v-432Z"/>
    <path class="st0" d="M1512,432h77.8v432h-77.8v-432Z"/>
    <path class="st0" d="M2039.2,704.8c0,92.6-75.8,166.8-171.3,166.8s-178.8-112.2-178.8-224.3,71.2-222.7,178.8-222.7,130.3,40.9,160.6,107.6l-78.7,27.2c-16.7-36.4-44-57.6-81.9-57.6-60.6,0-101.6,60.6-101.6,145.5s21.2,147,101.6,147,80.3-28.8,90.9-68.3h-71.2v-77.2h151.6v56.1Z"/>
    <path class="st0" d="M2411,676h-194.8v188h-77.6v-432h77.6v166.8h194.8v-166.8h77.6v432h-77.6v-188Z"/>
    <path class="st0" d="M2762,864h-75.7v-356.2h-124.1v-75.8h324v75.8h-124.1v356.2Z"/>
  </g>
  <g>
    <path class="st0" d="M937.3,1188h77.6v365.3h246.4v66.7h-324v-432Z"/>
    <path class="st0" d="M1334.8,1188h77.8v432h-77.8v-432Z"/>
    <path class="st0" d="M1855.1,1356.3l-127.8,263.7-126.3-263.7v263.7h-76.1v-432h76.1l126.3,256.2,127.8-256.2h76.1v432h-76.1v-263.7Z"/>
    <path class="st0" d="M2043.5,1188h77.8v432h-77.8v-432Z"/>
    <path class="st0" d="M2394.5,1620h-75.7v-356.2h-124.1v-75.8h324v75.8h-124.1v356.2Z"/>
  </g>
  <g>
    <path class="st0" d="M2477.8,2238.1c0-40.9,18.3-74.3,50.1-100.1-21.3-22.7-31.9-48.5-31.9-78.8,0-66.7,59.1-122.7,128.8-122.7s130.4,56.1,130.4,122.8-12.1,56.1-33.3,78.8c33.4,25.8,50,60.6,50,100.1,0,79.2-68.2,145.4-147,145.4s-147-66.6-147-145.5ZM2547.5,2239.6c0,40.9,35,74.2,77.3,74.2s78.8-33.3,78.8-74.2-36.2-65.2-78.8-65.2-77.3,29.1-77.3,65.2ZM2564.2,2057.7c0,25.8,27.6,47,60.6,47s60.6-21.3,60.6-47-26.7-51.5-60.6-51.5-60.6,22.4-60.6,51.5Z"/>
    <path class="st0" d="M2995.5,2376h-68.5v-371.4h-98.9v-60.6h267.9v60.6h-100.5v371.4Z"/>
  </g>
  <g>
    <path class="st0" d="M2313.7,2781.9h-39v-54.6h4.5c18,0,37.5-10.6,49.5-27.3h54v432h-69v-350.1Z"/>
    <path class="st0" d="M2559.7,3062.3h212.2v69.7h-294.1c1.5-50,12-91,36.4-131.9,75.8-126.7,189.5-114,189.5-180.4s-36.3-57.6-78.8-57.6-71.3,21.2-78.8,60.6l-68.2-15.2c15.2-71.2,71.2-115.2,147-115.2s147,57.6,147,128.8-29.6,84.6-68.1,108.5c-58.2,36.2-111.6,52.2-144,132.5Z"/>
    <path class="st0" d="M2995.5,3132h-68.5v-371.4h-98.9v-60.6h267.9v60.6h-100.5v371.4Z"/>
  </g>
  <g>
    <path class="st0" d="M2313.7,3537.9h-39v-54.6h4.5c18,0,37.5-10.6,49.5-27.3h54v432h-69v-350.1Z"/>
    <path class="st0" d="M2477.8,3757.6c0-119.7,66.7-242.5,166.8-309.1l34.8,57.6c-53,40.9-80.4,75.8-106.1,130.4,24.2-4.5,34.9-4.5,51.6-4.5,80.4,0,147,59.1,147,131.9s-62.8,131.7-147,131.7-147-60.7-147-138ZM2547.5,3762.2c0,34.7,34.9,63.7,77.3,63.7s78.8-28.8,78.8-63.7-34.9-62.2-78.8-62.2-77.3,28.8-77.3,62.2Z"/>
    <path class="st0" d="M2995.5,3888h-68.5v-371.4h-98.9v-60.6h267.9v60.6h-100.5v371.4Z"/>
  </g>
</svg>