<?xml version="1.0" encoding="UTF-8"?>
<svg id="For_Sheets" xmlns="http://www.w3.org/2000/svg" version="1.1" viewBox="0 0 1728 2592">
  <!-- Generator: Adobe Illustrator 29.1.0, SVG Export Plug-In . SVG Version: 2.1.0 Build 142)  -->
  <defs>
    <style>
      .st0, .st1 {
        fill: #231f20;
      }

      .st2 {
        fill: #fff;
      }

      .st1 {
        fill-rule: evenodd;
      }
    </style>
  </defs>
  <g>
    <rect class="st2" x="-.1" y="-.1" width="1728.2" height="2592.2" rx="108.1" ry="108.1"/>
    <path class="st0" d="M1620,0c59.6,0,108,48.4,108,108v2376c0,59.6-48.4,108-108,108H108c-59.6,0-108-48.4-108-108V108C0,48.4,48.4,0,108,0h1512M1620-.2H108C79.1-.2,51.9,11,31.5,31.5,11,51.9-.2,79.1-.2,108v2376c0,28.9,11.3,56.1,31.7,76.5,20.4,20.4,47.6,31.7,76.5,31.7h1512c28.9,0,56.1-11.3,76.5-31.7,20.4-20.4,31.7-47.6,31.7-76.5V108c0-28.9-11.3-56.1-31.7-76.5-20.4-20.4-47.6-31.7-76.5-31.7h0Z"/>
  </g>
  <rect class="st0" x="27" y="27" width="1674" height="2538" rx="81" ry="81"/>
  <rect class="st2" x="72" y="72" width="1584" height="2448" rx="36" ry="36"/>
  <path class="st1" d="M566.8,1368.6h54.2v-198.6h-342.9v34.6h-47.1c-19.2,0-31.2,0-39.1,26.8l-13.2,52.3h-30.6q-15,0-15,14.7v70.2h-16.1v16.2h57.5c2.9,22.1,16.9,37.2,38.9,37.2s36.7-15.5,41.6-37.2h23.1v-16.2h202c-.3,2.1-.5,6.6-.5,8.9,0,24.5,19.8,44.5,44,44.5s44-20,44-44.5-.3-6.3-.9-8.9Z"/>
  <g>
    <path class="st1" d="M405.6,1835.7h50.5l-21-23h-143.8v-130h-68.3c-17.8,0-29,0-36.4,25l-12.3,48.8h-28.4q-14,0-14,13.7v65.5h-14.9v15.2h53.5c2.7,20.6,15.7,34.7,36.2,34.7s34.1-14.4,38.7-34.7h21.5v-15.2h58.1c-.3,1.9-.5,6.2-.5,8.3,0,22.9,18.4,41.5,41,41.5s41-18.7,41-41.5-.3-5.9-.8-8.3Z"/>
    <path class="st1" d="M797,1890c24.2,0,43.9-20,43.9-44.5s-.3-6.1-.9-9.1h69.1v-198.4H307.5v160.6h143.4l34,37.8h269.1c-.6,2.9-.9,6-.9,9.1,0,24.5,19.7,44.5,43.9,44.5Z"/>
  </g>
  <path class="st1" d="M959.3,2356.6c24.4,0,44.3-20.1,44.3-44.7s-.3-5.8-.8-8.6h36.7s0-197.3,0-197.3h-398.6v180.7h-21.3v-180.7h-341.1v34.5h-47.3c-19.2,0-31.2,0-39.2,26.8l-13.3,52.3h-30.6q-15.1,0-15.1,14.6v70.1h-16.1v16.2h57.7c2.9,22.1,16.9,37.2,39,37.2s36.8-15.4,41.7-37.2h23.1v-16.2h153.7c-.3,2.1-.5,7-.5,9.2,0,24.5,19.8,44.5,44.1,44.5s44.1-20,44.1-44.5-.3-6.6-.9-9.2h166.5c-.6,3-.9,6-.9,9,0,24.6,19.9,44.7,44.3,44.7s44.3-20.1,44.3-44.7-.3-6-.9-8.9l143.2-1.2c-.6,2.8-.8,5.7-.8,8.7,0,24.6,19.9,44.7,44.3,44.7Z"/>
  <g>
    <path class="st0" d="M362.8,486l-40.7-168.9-39.8,168.9h-47.8l-46-252h46.9l27.4,162.7,37.2-162.7h45.1l39,162.7,25.6-162.7h46l-45.1,252h-47.8Z"/>
    <path class="st0" d="M498.6,234h184.5v45.1h-138.4v46.8h75.4v46h-75.4v69h142.8v45.1h-189v-252Z"/>
    <path class="st0" d="M738,234h45.4v252h-45.4v-252Z"/>
    <path class="st0" d="M1045.5,393.1c0,54-44.2,97.3-99.9,97.3s-104.3-65.4-104.3-130.9,41.5-129.9,104.3-129.9,76,23.9,93.7,62.8l-45.9,15.9c-9.7-21.2-25.6-33.6-47.8-33.6-35.4,0-59.2,35.4-59.2,84.9s12.3,85.7,59.2,85.7,46.8-16.8,53-39.8h-41.5v-45h88.4v32.7Z"/>
    <path class="st0" d="M1262.4,376.3h-113.6v109.7h-45.3v-252h45.3v97.3h113.6v-97.3h45.3v252h-45.3v-109.7Z"/>
    <path class="st0" d="M1467.2,486h-44.2v-207.8h-72.4v-44.2h189v44.2h-72.4v207.8Z"/>
  </g>
  <g>
    <path class="st0" d="M402.8,702h45.3v213.1h143.7v38.9h-189v-252Z"/>
    <path class="st0" d="M634.6,702h45.4v252h-45.4v-252Z"/>
    <path class="st0" d="M938.1,800.2l-74.6,153.8-73.7-153.8v153.8h-44.4v-252h44.4l73.7,149.4,74.6-149.4h44.4v252h-44.4v-153.8Z"/>
    <path class="st0" d="M1048,702h45.4v252h-45.4v-252Z"/>
    <path class="st0" d="M1252.8,954h-44.2v-207.8h-72.4v-44.2h189v44.2h-72.4v207.8Z"/>
  </g>
  <g>
    <path class="st0" d="M1250.4,1341.5c0-23.9,10.6-43.3,29.2-58.4-12.4-13.3-18.6-28.3-18.6-46,0-38.9,34.5-71.6,75.2-71.6s76,32.7,76,71.6-7.1,32.7-19.4,46c19.5,15,29.2,35.4,29.2,58.4,0,46.2-39.8,84.8-85.8,84.8s-85.8-38.8-85.8-84.9ZM1291,1342.4c0,23.9,20.4,43.3,45.1,43.3s46-19.4,46-43.3-21.1-38-46-38-45.1,17-45.1,38ZM1300.8,1236.3c0,15,16.1,27.4,35.4,27.4s35.4-12.4,35.4-27.4-15.6-30.1-35.4-30.1-35.4,13.1-35.4,30.1Z"/>
    <path class="st0" d="M1552.4,1422h-40v-216.6h-57.7v-35.4h156.3v35.4h-58.6v216.6Z"/>
  </g>
  <g>
    <path class="st0" d="M1154.7,1685.8h-22.7v-31.8h2.6c10.5,0,21.9-6.2,28.9-15.9h31.5v252h-40.3v-204.2Z"/>
    <path class="st0" d="M1298.1,1849.3h123.8v40.7h-171.5c.9-29.2,7-53.1,21.2-76.9,44.2-73.9,110.5-66.5,110.5-105.2s-21.2-33.6-46-33.6-41.6,12.4-46,35.4l-39.8-8.9c8.9-41.5,41.5-67.2,85.7-67.2s85.7,33.6,85.7,75.2-17.3,49.3-39.8,63.3c-33.9,21.1-65.1,30.4-84,77.3Z"/>
    <path class="st0" d="M1552.4,1890h-40v-216.6h-57.7v-35.4h156.3v35.4h-58.6v216.6Z"/>
  </g>
  <g>
    <path class="st0" d="M1154.7,2153.8h-22.7v-31.8h2.6c10.5,0,21.9-6.2,28.9-15.9h31.5v252h-40.3v-204.2Z"/>
    <path class="st0" d="M1250.4,2281.9c0-69.8,38.9-141.4,97.3-180.3l20.3,33.6c-30.9,23.9-46.9,44.2-61.9,76,14.1-2.6,20.3-2.6,30.1-2.6,46.9,0,85.7,34.5,85.7,77s-36.6,76.8-85.8,76.8-85.8-35.4-85.8-80.5ZM1291,2284.6c0,20.2,20.3,37.1,45.1,37.1s46-16.8,46-37.1-20.3-36.3-46-36.3-45.1,16.8-45.1,36.3Z"/>
    <path class="st0" d="M1552.4,2358h-40v-216.6h-57.7v-35.4h156.3v35.4h-58.6v216.6Z"/>
  </g>
</svg>