<?xml version="1.0" encoding="UTF-8" standalone="no"?>
<!-- Created with Inkscape (http://www.inkscape.org/) -->

<svg
   version="1.1"
   id="svg1"
   width="3456.6667"
   height="4608.6665"
   viewBox="0 0 3456.6667 4608.6665"
   sodipodi:docname="tmp66dnf1mm.pdf"
   xmlns:inkscape="http://www.inkscape.org/namespaces/inkscape"
   xmlns:sodipodi="http://sodipodi.sourceforge.net/DTD/sodipodi-0.dtd"
   xmlns="http://www.w3.org/2000/svg"
   xmlns:svg="http://www.w3.org/2000/svg">
  <defs
     id="defs1" />
  <sodipodi:namedview
     id="namedview1"
     pagecolor="#ffffff"
     bordercolor="#000000"
     borderopacity="0.25"
     inkscape:showpageshadow="2"
     inkscape:pageopacity="0.0"
     inkscape:pagecheckerboard="0"
     inkscape:deskcolor="#d1d1d1">
    <inkscape:page
       x="0"
       y="0"
       inkscape:label="1"
       id="page1"
       width="3456.6667"
       height="4608.6665"
       margin="0"
       bleed="0" />
  </sodipodi:namedview>
  <g
     id="g1"
     inkscape:groupmode="layer"
     inkscape:label="1">
    <g
       id="group-R5">
      <path
         id="path2"
         d="M 1622.5,1.20313 C 1191.24,1.20313 784.602,170.398 477.488,477.5 170.387,784.602 1.25,1191.2 1.25,1622.5 v 31320 c 0,431.3 169.137,837.9 476.238,1145 307.114,307.1 713.752,476.3 1145.012,476.3 h 22680 c 431.3,0 837.9,-169.2 1145,-476.3 307.1,-307.1 476.3,-713.7 476.3,-1145 v -31320 c 0,-431.3 -169.2,-837.898 -476.3,-1145 C 25140.4,170.398 24733.8,1.20313 24302.5,1.20313 h -22680"
         style="fill:#ffffff;fill-opacity:1;fill-rule:nonzero;stroke:none"
         transform="matrix(0.13333333,0,0,-0.13333333,0,4608.6667)" />
      <path
         id="path3"
         d="m 24302.5,34565 h -22680 c -218.07,0 -430.03,-43.1 -629.992,-128 -193.031,-82 -366.61,-199.3 -515.899,-348.6 C 327.313,33939.1 210.035,33765.5 128.027,33572.5 43.0742,33372.5 0,33160.6 0,32942.5 v -31320 c 0,-218.1 43.0742,-430 128.027,-630 C 210.035,799.5 327.313,625.902 476.609,476.598 625.898,327.301 799.477,210 992.508,128 1192.47,43.1016 1404.43,0 1622.5,0 h 22680 c 218.1,0 430,43.1016 630,128 193,82 366.6,199.301 515.9,348.598 149.3,149.304 266.6,322.902 348.6,515.902 84.9,200 128,411.9 128,630 v 31320 c 0,218.1 -43.1,430 -128,630 -82,193 -199.3,366.6 -348.6,515.9 -149.3,149.3 -322.9,266.6 -515.9,348.6 -200,84.9 -411.9,128 -630,128 z m 0,-2.5 c 891,0 1620,-729 1620,-1620 v -31320 c 0,-891 -729,-1620 -1620,-1620 h -22680 c -891,0 -1620,729 -1620,1620 v 31320 c 0,891 729,1620 1620,1620 h 22680"
         style="fill:#231f20;fill-opacity:1;fill-rule:nonzero;stroke:none"
         transform="matrix(0.13333333,0,0,-0.13333333,0,4608.6667)" />
      <path
         id="path4"
         d="m 1622.5,452.5 c -310.72,0 -604.04,122.199 -825.922,344.098 C 574.695,1018.5 452.5,1311.8 452.5,1622.5 v 31320 c 0,310.7 122.195,604.1 344.078,825.9 221.872,221.9 515.192,344.1 825.922,344.1 h 22680 c 310.7,0 604,-122.2 825.9,-344.1 221.9,-221.9 344.1,-515.2 344.1,-825.9 v -31320 c 0,-310.7 -122.2,-604 -344.1,-825.902 C 24906.5,574.699 24613.2,452.5 24302.5,452.5 h -22680"
         style="fill:#231f20;fill-opacity:1;fill-rule:nonzero;stroke:none"
         transform="matrix(0.13333333,0,0,-0.13333333,0,4608.6667)" />
      <path
         id="path5"
         d="m 1622.5,1082.5 c -144.51,0 -276.07,55.2 -380.45,159.5 -104.37,104.4 -159.55,236 -159.55,380.5 v 31320 c 0,144.5 55.17,276.1 159.55,380.4 104.38,104.4 235.93,159.6 380.45,159.6 h 22680 c 144.5,0 276.1,-55.2 380.5,-159.6 104.3,-104.3 159.5,-235.9 159.5,-380.4 v -31320 c 0,-144.5 -55.2,-276.1 -159.5,-380.5 -104.4,-104.3 -236,-159.5 -380.5,-159.5 h -22680"
         style="fill:#ffffff;fill-opacity:1;fill-rule:nonzero;stroke:none"
         transform="matrix(0.13333333,0,0,-0.13333333,0,4608.6667)" />
      <path
         id="path6"
         d="m 8588.19,16245.9 h 774.29 v 2836.6 H 4463.56 v -494 h -673.3 c -273.62,0 -445.02,0 -558.4,-382.7 l -188.91,-747.4 h -436.53 c -214.56,0 -214.56,0 -214.56,-209.6 0,-334.3 0,-668.6 0,-1002.9 H 2162.5 v -232.1 h 821.72 c 41.73,-315.6 241.22,-531.3 555.66,-531.3 311.98,0 523.86,220.8 593.99,531.3 h 329.69 v 232.1 h 2886.46 c -4.89,-29.9 -7.41,-95 -7.41,-127.3 0,-350.4 282.55,-636.1 628.94,-636.1 346.39,0 628.93,285.7 628.93,636.1 0,39.8 -4.93,90.1 -12.29,127.3"
         style="fill:#231f20;fill-opacity:1;fill-rule:evenodd;stroke:none"
         transform="matrix(0.13333333,0,0,-0.13333333,0,4608.6667)" />
      <path
         id="path7"
         d="m 6285.93,10317.6 h 720.77 l -299.5,328.7 H 4652.64 l -0.81,1856.8 h -974.32 c -254.69,0 -414.14,0 -519.68,-357.1 l -175.84,-697.2 H 2575.7 c -199.72,0 -199.72,0 -199.72,-195.6 0,-311.7 0,-623.6 0,-935.6 H 2162.5 v -216.4 h 764.79 c 38.86,-294.3 224.53,-495.7 517.16,-495.7 290.44,0 487.6,205.9 552.88,495.7 h 306.86 v 216.4 h 829.36 c -4.58,-27.8 -6.87,-88.4 -6.87,-118.6 0,-326.9 262.98,-593.5 585.37,-593.5 322.42,0 585.32,266.6 585.32,593.5 0,37.1 -4.54,83.9 -11.44,118.6"
         style="fill:#231f20;fill-opacity:1;fill-rule:evenodd;stroke:none"
         transform="matrix(0.13333333,0,0,-0.13333333,0,4608.6667)" />
      <path
         id="path8"
         d="m 11876.8,9542.5 c 345.2,0 626.8,285.4 626.8,635.4 0,44.4 -4.6,87.9 -13.2,129.8 h 1192.1 v 2834.8 H 4884.48 V 10848.4 H 6933.34 L 7419,10307.7 h 3844.3 c -8.7,-41.9 -13.2,-85.4 -13.2,-129.8 0,-350 281.5,-635.4 626.7,-635.4"
         style="fill:#231f20;fill-opacity:1;fill-rule:evenodd;stroke:none"
         transform="matrix(0.13333333,0,0,-0.13333333,0,4608.6667)" />
      <path
         id="path9"
         d="m 14195.6,3623 c 348.9,0 633.5,286.7 633.5,638.3 0,41.9 -4.1,82.9 -11.8,122.5 l 1025.2,-0.6 V 7202.5 H 9647.43 V 4620.8 h -304.84 v 2581.7 l -4872.7,-0.1 v -493.3 h -675.14 c -274.42,0 -446.22,0 -559.92,-382.1 l -189.44,-746.5 h -437.74 c -215.15,0 -215.15,0 -215.15,-209.3 0,-333.8 0,-667.7 0,-1001.5 h -230 V 4138 h 823.98 c 41.86,-315.2 241.89,-530.8 557.18,-530.8 312.87,0 525.33,220.5 595.6,530.8 h 330.63 v 231.7 h 2196.07 c -4.93,-29.8 -7.4,-99.5 -7.4,-131.8 0,-349.9 283.31,-635.4 630.64,-635.4 347.33,0 630.64,285.5 630.64,635.4 0,39.7 -4.94,94.5 -12.29,131.8 h 4.88 1735 l 639.27,-0.8 c -8.4,-41.4 -12.9,-84.3 -12.9,-128.2 0,-351.5 284.6,-638.2 633.6,-638.2 348.9,0 633.5,286.7 633.5,638.2 0,43.4 -4.3,85.8 -12.6,126.8 l 2045.8,17.8 c -7.9,-40.2 -12.1,-81.6 -12.1,-124 0,-351.6 284.6,-638.3 633.6,-638.3"
         style="fill:#231f20;fill-opacity:1;fill-rule:evenodd;stroke:none"
         transform="matrix(0.13333333,0,0,-0.13333333,0,4608.6667)" />
      <path
         id="path10"
         d="M 5802.51,27362.5 5220.69,29775 4651.91,27362.5 h -683.07 l -657.43,3600 h 670.03 l 391.93,-2324.2 531.44,2324.2 h 644.82 l 556.63,-2324.2 366.28,2324.2 h 657.43 l -644.83,-3600 h -682.63"
         style="fill:#231f20;fill-opacity:1;fill-rule:nonzero;stroke:none"
         transform="matrix(0.13333333,0,0,-0.13333333,0,4608.6667)" />
      <path
         id="path11"
         d="m 7742.16,30962.5 h 2636.44 v -644.4 H 8401.38 V 29649 h 1077.26 v -657 H 8401.38 v -985.1 H 10442 v -644.4 H 7742.16 v 3600"
         style="fill:#231f20;fill-opacity:1;fill-rule:nonzero;stroke:none"
         transform="matrix(0.13333333,0,0,-0.13333333,0,4608.6667)" />
      <path
         id="path12"
         d="m 11162.2,30962.5 h 648 v -3600 h -648 v 3600"
         style="fill:#231f20;fill-opacity:1;fill-rule:nonzero;stroke:none"
         transform="matrix(0.13333333,0,0,-0.13333333,0,4608.6667)" />
      <path
         id="path13"
         d="m 15556,28689.1 c 0,-771.3 -631.8,-1389.6 -1427.4,-1389.6 -1054.8,0 -1490.3,934.7 -1490.3,1869.3 0,1098.9 593.5,1856.3 1489.9,1856.3 643.9,0 1086.2,-341.1 1338.7,-896.9 l -656.1,-226.8 c -139.1,303.3 -366.3,480.2 -682.2,480.2 -505.3,0 -846.4,-505.4 -846.4,-1212.8 0,-579.6 176.4,-1224.9 846.4,-1224.9 353.7,0 669.1,240.3 757.8,568.8 h -593.6 v 643.5 H 15556 v -467.1"
         style="fill:#231f20;fill-opacity:1;fill-rule:nonzero;stroke:none"
         transform="matrix(0.13333333,0,0,-0.13333333,0,4608.6667)" />
      <path
         id="path14"
         d="m 18654.7,28929 h -1623.5 v -1566.5 h -647.1 v 3600 h 647.1 v -1389.6 h 1623.5 v 1389.6 h 647.1 v -3600 h -647.1 V 28929"
         style="fill:#231f20;fill-opacity:1;fill-rule:nonzero;stroke:none"
         transform="matrix(0.13333333,0,0,-0.13333333,0,4608.6667)" />
      <path
         id="path15"
         d="m 21579.4,27362.5 h -630.9 v 2968.2 H 19914 v 631.8 h 2699.9 v -631.8 h -1034.5 v -2968.2"
         style="fill:#231f20;fill-opacity:1;fill-rule:nonzero;stroke:none"
         transform="matrix(0.13333333,0,0,-0.13333333,0,4608.6667)" />
      <path
         id="path16"
         d="m 6373.47,25022.5 h 646.64 v -3044.2 h 2053.31 v -555.8 H 6373.47 v 3600"
         style="fill:#231f20;fill-opacity:1;fill-rule:nonzero;stroke:none"
         transform="matrix(0.13333333,0,0,-0.13333333,0,4608.6667)" />
      <path
         id="path17"
         d="m 9685.6,25022.5 h 648 v -3600 h -648 v 3600"
         style="fill:#231f20;fill-opacity:1;fill-rule:nonzero;stroke:none"
         transform="matrix(0.13333333,0,0,-0.13333333,0,4608.6667)" />
      <path
         id="path18"
         d="m 14021.4,23620.3 -1065.2,-2197.8 -1052.5,2197.8 v -2197.8 h -634 v 3600 h 634 l 1052.5,-2134.8 1065.2,2134.8 h 634 v -3600 h -634 v 2197.8"
         style="fill:#231f20;fill-opacity:1;fill-rule:nonzero;stroke:none"
         transform="matrix(0.13333333,0,0,-0.13333333,0,4608.6667)" />
      <path
         id="path19"
         d="m 15591.6,25022.5 h 648 v -3600 h -648 v 3600"
         style="fill:#231f20;fill-opacity:1;fill-rule:nonzero;stroke:none"
         transform="matrix(0.13333333,0,0,-0.13333333,0,4608.6667)" />
      <path
         id="path20"
         d="m 18517.1,21422.5 h -630.9 v 2968.2 h -1034.5 v 631.8 h 2699.9 v -631.8 h -1034.5 v -2968.2"
         style="fill:#231f20;fill-opacity:1;fill-rule:nonzero;stroke:none"
         transform="matrix(0.13333333,0,0,-0.13333333,0,4608.6667)" />
      <path
         id="path21"
         d="m 19330.7,18135.3 c 0,-214.7 230.4,-392 505.4,-392 278.1,0 505.3,177.3 505.3,392 0,237.6 -222.7,429.3 -505.3,429.3 -278.1,0 -505.4,-186.8 -505.4,-429.3 z m -139,-1516.1 c 0,-341.1 292,-618.7 644.4,-618.7 366.3,0 657,277.6 657,618.7 0,310.5 -302,543.2 -657,543.2 -353.7,0 -644.4,-242.6 -644.4,-543.2 z m -580.9,12.6 c 0,341.1 152,619.2 417.1,833.9 -177.3,189.4 -265.5,404.5 -265.5,657 0,555.7 492.8,1022.4 1073.7,1022.4 583.2,0 1086.3,-467.6 1086.3,-1023.3 0,-252.5 -100.8,-467.1 -277.7,-656.6 278.1,-214.6 416.7,-505.3 416.7,-833.8 0,-660.2 -568.3,-1211.9 -1225.3,-1211.9 -644.4,0 -1225.3,554.9 -1225.3,1212.3"
         style="fill:#231f20;fill-opacity:1;fill-rule:nonzero;stroke:none"
         transform="matrix(0.13333333,0,0,-0.13333333,0,4608.6667)" />
      <path
         id="path22"
         d="M 22925.1,15482.5 H 22354 v 3094.7 h -824.4 v 505.3 h 2232.9 v -505.3 h -837.4 v -3094.7"
         style="fill:#231f20;fill-opacity:1;fill-rule:nonzero;stroke:none"
         transform="matrix(0.13333333,0,0,-0.13333333,0,4608.6667)" />
      <path
         id="path23"
         d="m 17243.5,12460.3 h -324.9 v 455 h 37.4 c 149.8,0 312.7,88.1 412.6,227.2 h 450 v -3600 h -575.1 v 2917.8"
         style="fill:#231f20;fill-opacity:1;fill-rule:nonzero;stroke:none"
         transform="matrix(0.13333333,0,0,-0.13333333,0,4608.6667)" />
      <path
         id="path24"
         d="m 19292.9,10123.5 h 1768.5 v -581 h -2450.6 c 12.5,416.7 100.3,758.7 303.2,1098.9 631.8,1055.7 1579.1,950 1579.1,1503 0,265.1 -302.4,480.2 -657,480.2 -366.3,0 -594,-176.9 -657,-505.4 l -568.3,126.5 c 126.4,593.5 593.5,959.8 1224.8,959.8 682.7,0 1224.9,-480.1 1224.9,-1073.7 0,-430.6 -247,-704.7 -567.9,-904 -484.6,-301.5 -930.1,-434.7 -1199.7,-1104.3"
         style="fill:#231f20;fill-opacity:1;fill-rule:nonzero;stroke:none"
         transform="matrix(0.13333333,0,0,-0.13333333,0,4608.6667)" />
      <path
         id="path25"
         d="M 22925.1,9542.5 H 22354 v 3094.7 h -824.4 v 505.3 h 2232.9 v -505.3 h -837.4 V 9542.5"
         style="fill:#231f20;fill-opacity:1;fill-rule:nonzero;stroke:none"
         transform="matrix(0.13333333,0,0,-0.13333333,0,4608.6667)" />
      <path
         id="path26"
         d="m 17243.5,6520.3 h -324.9 v 455 h 37.4 c 149.8,0 312.7,88.2 412.6,227.2 h 450 v -3600 h -575.1 v 2917.8"
         style="fill:#231f20;fill-opacity:1;fill-rule:nonzero;stroke:none"
         transform="matrix(0.13333333,0,0,-0.13333333,0,4608.6667)" />
      <path
         id="path27"
         d="m 19191.7,4651 c 0,-288.9 290.7,-530.5 644.4,-530.5 353.7,0 657,239.8 657,530.5 0,284.9 -290.7,518 -657,518 -353.7,0 -644.4,-239.9 -644.4,-518 z m -580.9,38.3 c 0,997.2 555.7,2020.5 1390,2575.8 l 290.2,-480.2 c -441.9,-341.1 -669.6,-631.3 -884.2,-1086.3 202,37.4 290.7,37.8 429.7,37.8 669.6,0 1224.9,-492.7 1224.9,-1099.3 0,-621 -523.3,-1097.6 -1225.3,-1097.6 -694.8,0 -1225.3,505.8 -1225.3,1149.8"
         style="fill:#231f20;fill-opacity:1;fill-rule:nonzero;stroke:none"
         transform="matrix(0.13333333,0,0,-0.13333333,0,4608.6667)" />
      <path
         id="path28"
         d="M 22925.1,3602.5 H 22354 v 3094.7 h -824.4 v 505.3 h 2232.9 v -505.3 h -837.4 V 3602.5"
         style="fill:#231f20;fill-opacity:1;fill-rule:nonzero;stroke:none"
         transform="matrix(0.13333333,0,0,-0.13333333,0,4608.6667)" />
    </g>
  </g>
</svg>
