<?xml version="1.0" encoding="UTF-8" standalone="no"?>
<!-- Created with Inkscape (http://www.inkscape.org/) -->

<svg
   version="1.1"
   id="svg1"
   width="4608.6665"
   height="5760.6665"
   viewBox="0 0 4608.6665 5760.6665"
   sodipodi:docname="tmpqjc57kg9.pdf"
   xmlns:inkscape="http://www.inkscape.org/namespaces/inkscape"
   xmlns:sodipodi="http://sodipodi.sourceforge.net/DTD/sodipodi-0.dtd"
   xmlns="http://www.w3.org/2000/svg"
   xmlns:svg="http://www.w3.org/2000/svg">
  <defs
     id="defs1" />
  <sodipodi:namedview
     id="namedview1"
     pagecolor="#ffffff"
     bordercolor="#000000"
     borderopacity="0.25"
     inkscape:showpageshadow="2"
     inkscape:pageopacity="0.0"
     inkscape:pagecheckerboard="0"
     inkscape:deskcolor="#d1d1d1">
    <inkscape:page
       x="0"
       y="0"
       inkscape:label="1"
       id="page1"
       width="4608.6665"
       height="5760.6665"
       margin="0"
       bleed="0" />
  </sodipodi:namedview>
  <g
     id="g1"
     inkscape:groupmode="layer"
     inkscape:label="1">
    <g
       id="group-R5">
      <path
         id="path2"
         d="M 2162.5,1.20313 C 1587.59,1.20313 1045.52,226.699 636.117,636.098 226.715,1045.5 1.25391,1587.6 1.25391,2162.5 v 38880 c 0,574.9 225.46109,1117 634.86309,1526.4 409.373,409.4 951.493,634.8 1526.363,634.8 0.03,0 -0.01,0 0.02,0 h 30240 c 574.9,0.1 1117,-225.4 1526.4,-634.8 409.4,-409.4 634.9,-951.5 634.9,-1526.4 v -38880 c 0,-574.9 -225.5,-1117 -634.9,-1526.402 C 33519.5,226.699 32977.4,1.20313 32402.5,1.20313 h -30240"
         style="fill:#ffffff;fill-opacity:1;fill-rule:nonzero;stroke:none"
         transform="matrix(0.13333333,0,0,-0.13333333,0,5760.6667)" />
      <path
         id="path3"
         d="m 32402.5,43205 h -30240 c -290.64,0 -573.15,-57.4 -839.66,-170.6 -257.28,-109.3 -488.625,-265.7 -687.61,-464.6 -198.976,-199 -355.292,-430.4 -464.593,-687.6 C 57.4102,41615.6 0,41333.1 0,41042.5 V 2162.5 C 0,1871.9 57.4102,1589.3 170.637,1322.8 279.938,1065.6 436.254,834.199 635.23,635.199 834.215,436.203 1065.56,279.902 1322.84,170.602 1589.35,57.4023 1871.86,0 2162.5,0 h 30240 c 290.6,0 573.1,57.4023 839.7,170.602 257.2,109.3 488.6,265.601 687.6,464.597 198.9,199 355.3,430.401 464.6,687.601 113.2,266.5 170.6,549.1 170.6,839.7 v 38880 c 0,290.6 -57.4,573.1 -170.6,839.7 -109.3,257.2 -265.7,488.6 -464.6,687.6 -199,198.9 -430.4,355.3 -687.6,464.6 -266.6,113.2 -549.1,170.6 -839.7,170.6 z m 0,-2.5 c 1188,0 2160,-972 2160,-2160 v -38880 c 0,-1188 -972,-2160 -2160,-2160 h -30240 c -1188,0 -2160,972 -2160,2160 v 38880 c 0,1188 972,2160 2160,2160 h 30240"
         style="fill:#231f20;fill-opacity:1;fill-rule:nonzero;stroke:none"
         transform="matrix(0.13333333,0,0,-0.13333333,0,5760.6667)" />
      <path
         id="path4"
         d="m 2162.5,542.5 c -430.33,0 -836.49,169.199 -1143.67,476.3 C 711.664,1326 542.5,1732.2 542.5,2162.5 v 38880 c 0,430.3 169.164,836.5 476.33,1143.7 307.18,307.1 713.34,476.3 1143.67,476.3 h 30240 c 430.3,0 836.5,-169.2 1143.7,-476.3 307.1,-307.2 476.3,-713.4 476.3,-1143.7 v -38880 c 0,-430.3 -169.2,-836.5 -476.3,-1143.7 C 33239,711.699 32832.8,542.5 32402.5,542.5 h -30240"
         style="fill:#231f20;fill-opacity:1;fill-rule:nonzero;stroke:none"
         transform="matrix(0.13333333,0,0,-0.13333333,0,5760.6667)" />
      <path
         id="path5"
         d="m 2162.5,1289 c -192.69,0 -368.1,73.6 -507.28,212.7 -139.16,139.2 -212.72,314.6 -212.72,507.3 v 38880 c 0,192.7 73.56,368.1 212.73,507.3 139.16,139.1 314.58,212.7 507.27,212.7 h 30240 c 192.7,0 368.1,-73.6 507.3,-212.7 139.1,-139.2 212.7,-314.6 212.7,-507.3 V 2009 c 0,-192.7 -73.6,-368.1 -212.7,-507.3 -139.2,-139.1 -314.6,-212.7 -507.3,-212.7 h -30240"
         style="fill:#ffffff;fill-opacity:1;fill-rule:nonzero;stroke:none"
         transform="matrix(0.13333333,0,0,-0.13333333,0,5760.6667)" />
      <path
         id="path6"
         d="m 11313.3,20358.6 h 929.2 v 3403.9 H 6363.78 v -592.7 h -807.97 c -328.34,0 -534.02,0 -670.08,-459.3 l -226.69,-897 h -523.83 c -257.48,0 -257.48,0 -257.48,-251.4 0,-401.1 0,-802.4 0,-1203.5 H 3602.5 v -278.5 h 986.06 c 50.08,-378.7 289.47,-637.6 666.8,-637.6 374.38,0 628.63,264.9 712.78,637.6 h 395.64 v 278.5 h 3463.75 c -5.87,-35.9 -8.89,-113.9 -8.89,-152.7 0,-420.5 339.06,-763.4 754.76,-763.4 415.6,0 754.7,342.9 754.7,763.4 0,47.7 -5.9,108 -14.8,152.7"
         style="fill:#231f20;fill-opacity:1;fill-rule:evenodd;stroke:none"
         transform="matrix(0.13333333,0,0,-0.13333333,0,5760.6667)" />
      <path
         id="path7"
         d="m 8550.61,12812.7 h 864.93 l -359.4,394.3 H 6590.67 l -0.97,2228.3 H 5420.51 c -305.62,0 -496.97,0 -623.61,-428.5 l -211.01,-836.7 h -487.55 c -239.66,0 -239.66,0 -239.66,-234.7 0,-374.1 0,-748.4 0,-1122.7 H 3602.5 V 12553 h 917.75 c 46.63,-353.2 269.43,-594.9 620.6,-594.9 348.52,0 585.11,247.1 663.45,594.9 h 368.23 v 259.7 h 995.23 c -5.49,-33.4 -8.24,-106.2 -8.24,-142.4 0,-392.3 315.57,-712.2 702.44,-712.2 386.91,0 702.38,319.9 702.38,712.2 0,44.5 -5.44,100.7 -13.73,142.4"
         style="fill:#231f20;fill-opacity:1;fill-rule:evenodd;stroke:none"
         transform="matrix(0.13333333,0,0,-0.13333333,0,5760.6667)" />
      <path
         id="path8"
         d="m 15259.7,11882.5 c 414.2,0 752.1,342.5 752.1,762.5 0,53.3 -5.5,105.4 -15.8,155.7 h 1286.5 v 3401.8 H 6868.88 v -2753 h 2458.63 l 582.79,-648.8 h 4613.1 c -10.3,-50.3 -15.8,-102.4 -15.8,-155.7 0,-420 337.8,-762.5 752.1,-762.5"
         style="fill:#231f20;fill-opacity:1;fill-rule:evenodd;stroke:none"
         transform="matrix(0.13333333,0,0,-0.13333333,0,5760.6667)" />
      <path
         id="path9"
         d="m 18042.2,4347.2 c 418.7,0 760.3,344 760.3,765.8 0,50.3 -5,99.5 -14.3,147.1 l 654.3,-0.7 v 3383.1 h -6858.1 v -3098 h -365.8 v 3098 l -5847.23,-0.1 V 8050.5 H 5561.2 c -329.31,0 -535.47,0 -671.91,-458.6 l -227.32,-895.8 h -525.29 c -258.18,0 -258.18,0 -258.18,-251.1 0,-400.6 0,-801.3 0,-1201.9 h -276 v -278 h 988.77 c 50.24,-378.2 290.27,-636.9 668.62,-636.9 375.45,0 630.4,264.6 714.72,636.9 h 396.76 v 278 h 2635.29 c -5.92,-35.7 -8.88,-119.3 -8.88,-158.1 0,-419.9 339.97,-762.4 756.76,-762.4 416.76,0 756.76,342.5 756.76,762.4 0,47.6 -5.9,113.4 -14.7,158.1 h 5.8 2082 l 767.2,-0.9 c -10.2,-49.7 -15.5,-101.2 -15.5,-153.8 0,-421.8 341.5,-765.9 760.2,-765.9 418.8,0 760.3,344.1 760.3,765.9 0,52.1 -5.2,102.9 -15.1,152.1 l 2454.9,21.4 c -9.5,-48.3 -14.5,-97.9 -14.5,-148.9 0,-421.8 341.5,-765.8 760.3,-765.8"
         style="fill:#231f20;fill-opacity:1;fill-rule:evenodd;stroke:none"
         transform="matrix(0.13333333,0,0,-0.13333333,0,5760.6667)" />
      <path
         id="path10"
         d="m 8690.47,34562.5 -698.18,2894.9 -682.52,-2894.9 h -819.68 l -788.89,4320 h 804.01 l 470.32,-2789.1 637.71,2789.1 h 773.77 l 667.95,-2789.1 439.53,2789.1 h 788.91 l -773.79,-4320 h -819.14"
         style="fill:#231f20;fill-opacity:1;fill-rule:nonzero;stroke:none"
         transform="matrix(0.13333333,0,0,-0.13333333,0,5760.6667)" />
      <path
         id="path11"
         d="m 11018,38882.5 h 3163.7 v -773.3 h -2372.6 v -803 h 1292.7 v -788.3 h -1292.7 v -1182.1 h 2448.7 v -773.3 H 11018 v 4320"
         style="fill:#231f20;fill-opacity:1;fill-rule:nonzero;stroke:none"
         transform="matrix(0.13333333,0,0,-0.13333333,0,5760.6667)" />
      <path
         id="path12"
         d="m 15122,38882.5 h 777.6 v -4320 H 15122 v 4320"
         style="fill:#231f20;fill-opacity:1;fill-rule:nonzero;stroke:none"
         transform="matrix(0.13333333,0,0,-0.13333333,0,5760.6667)" />
      <path
         id="path13"
         d="m 20394.4,36154.4 c 0,-925.5 -758.1,-1667.5 -1712.8,-1667.5 -1265.7,0 -1788.4,1121.6 -1788.4,2243.2 0,1318.6 712.3,2227.5 1787.9,2227.5 772.7,0 1303.5,-409.4 1606.4,-1076.3 l -787.3,-272.1 c -166.8,363.9 -439.5,576.2 -818.6,576.2 -606.4,0 -1015.7,-606.5 -1015.7,-1455.3 0,-695.5 211.7,-1469.9 1015.7,-1469.9 424.4,0 803,288.4 909.3,682.6 h -712.2 v 772.1 h 1515.7 v -560.5"
         style="fill:#231f20;fill-opacity:1;fill-rule:nonzero;stroke:none"
         transform="matrix(0.13333333,0,0,-0.13333333,0,5760.6667)" />
      <path
         id="path14"
         d="m 24112.9,36442.3 h -1948.2 v -1879.8 h -776.5 v 4320 h 776.5 V 37215 h 1948.2 v 1667.5 h 776.5 v -4320 h -776.5 v 1879.8"
         style="fill:#231f20;fill-opacity:1;fill-rule:nonzero;stroke:none"
         transform="matrix(0.13333333,0,0,-0.13333333,0,5760.6667)" />
      <path
         id="path15"
         d="m 27622.4,34562.5 h -757 v 3561.8 H 25624 v 758.2 h 3239.8 v -758.2 h -1241.4 v -3561.8"
         style="fill:#231f20;fill-opacity:1;fill-rule:nonzero;stroke:none"
         transform="matrix(0.13333333,0,0,-0.13333333,0,5760.6667)" />
      <path
         id="path16"
         d="m 9375.67,31322.5 h 775.93 v -3653.1 h 2464 v -666.9 H 9375.67 v 4320"
         style="fill:#231f20;fill-opacity:1;fill-rule:nonzero;stroke:none"
         transform="matrix(0.13333333,0,0,-0.13333333,0,5760.6667)" />
      <path
         id="path17"
         d="m 13350.2,31322.5 h 777.6 v -4320 h -777.6 v 4320"
         style="fill:#231f20;fill-opacity:1;fill-rule:nonzero;stroke:none"
         transform="matrix(0.13333333,0,0,-0.13333333,0,5760.6667)" />
      <path
         id="path18"
         d="m 18553.1,29639.9 -1278.2,-2637.4 -1263,2637.4 v -2637.4 h -760.8 v 4320 h 760.8 l 1263,-2561.7 1278.2,2561.7 h 760.8 v -4320 h -760.8 v 2637.4"
         style="fill:#231f20;fill-opacity:1;fill-rule:nonzero;stroke:none"
         transform="matrix(0.13333333,0,0,-0.13333333,0,5760.6667)" />
      <path
         id="path19"
         d="m 20437.4,31322.5 h 777.5 v -4320 h -777.5 v 4320"
         style="fill:#231f20;fill-opacity:1;fill-rule:nonzero;stroke:none"
         transform="matrix(0.13333333,0,0,-0.13333333,0,5760.6667)" />
      <path
         id="path20"
         d="m 23947.9,27002.5 h -757 v 3561.9 h -1241.5 v 758.1 h 3239.9 v -758.1 h -1241.4 v -3561.9"
         style="fill:#231f20;fill-opacity:1;fill-rule:nonzero;stroke:none"
         transform="matrix(0.13333333,0,0,-0.13333333,0,5760.6667)" />
      <path
         id="path21"
         d="m 25644.4,22625.8 c 0,-257.6 276.5,-470.3 606.4,-470.3 333.7,0 606.4,212.7 606.4,470.3 0,285.1 -267.3,515.2 -606.4,515.2 -333.7,0 -606.4,-224.1 -606.4,-515.2 z m -166.9,-1819.2 c 0,-409.3 350.5,-742.5 773.3,-742.5 439.6,0 788.4,333.2 788.4,742.5 0,372.6 -362.3,651.7 -788.4,651.7 -424.4,0 -773.3,-291 -773.3,-651.7 z m -697.1,15.1 c 0,409.3 182.5,743 500.6,1000.6 -212.8,227.3 -318.6,485.5 -318.6,788.4 0,666.9 591.3,1226.9 1288.4,1226.9 699.9,0 1303.6,-561.1 1303.6,-1228 0,-302.9 -121,-560.5 -333.2,-787.8 333.7,-257.6 500,-606.4 500,-1000.6 0,-792.2 -682,-1454.3 -1470.4,-1454.3 -773.3,0 -1470.4,665.9 -1470.4,1454.8"
         style="fill:#231f20;fill-opacity:1;fill-rule:nonzero;stroke:none"
         transform="matrix(0.13333333,0,0,-0.13333333,0,5760.6667)" />
      <path
         id="path22"
         d="m 29957.6,19442.5 h -685.3 v 3713.6 H 28283 v 606.4 h 2679.5 v -606.4 h -1004.9 v -3713.6"
         style="fill:#231f20;fill-opacity:1;fill-rule:nonzero;stroke:none"
         transform="matrix(0.13333333,0,0,-0.13333333,0,5760.6667)" />
      <path
         id="path23"
         d="m 23139.8,15383.9 h -389.9 v 545.9 h 44.8 c 179.8,0 375.3,105.9 495.2,272.7 h 540 v -4320 h -690.1 v 3501.4"
         style="fill:#231f20;fill-opacity:1;fill-rule:nonzero;stroke:none"
         transform="matrix(0.13333333,0,0,-0.13333333,0,5760.6667)" />
      <path
         id="path24"
         d="m 25599,12579.7 h 2122.2 v -697.2 h -2940.8 c 15.1,500.1 120.4,910.5 364,1318.7 758.1,1266.8 1894.8,1139.9 1894.8,1803.6 0,318.1 -362.9,576.2 -788.4,576.2 -439.5,0 -712.8,-212.2 -788.4,-606.4 l -682,151.7 c 151.7,712.3 712.2,1151.8 1469.9,1151.8 819.1,0 1469.8,-576.2 1469.8,-1288.4 0,-516.8 -296.4,-845.6 -681.4,-1084.9 -581.6,-361.8 -1116.2,-521.6 -1439.7,-1325.1"
         style="fill:#231f20;fill-opacity:1;fill-rule:nonzero;stroke:none"
         transform="matrix(0.13333333,0,0,-0.13333333,0,5760.6667)" />
      <path
         id="path25"
         d="m 29957.6,11882.5 h -685.3 v 3713.6 H 28283 v 606.4 h 2679.5 v -606.4 h -1004.9 v -3713.6"
         style="fill:#231f20;fill-opacity:1;fill-rule:nonzero;stroke:none"
         transform="matrix(0.13333333,0,0,-0.13333333,0,5760.6667)" />
      <path
         id="path26"
         d="m 23139.8,7823.9 h -389.9 v 545.9 h 44.8 c 179.8,0 375.3,105.9 495.2,272.7 h 540 v -4320 h -690.1 v 3501.4"
         style="fill:#231f20;fill-opacity:1;fill-rule:nonzero;stroke:none"
         transform="matrix(0.13333333,0,0,-0.13333333,0,5760.6667)" />
      <path
         id="path27"
         d="m 25477.5,5580.7 c 0,-346.6 348.9,-636.6 773.3,-636.6 424.4,0 788.4,287.8 788.4,636.6 0,341.9 -348.8,621.6 -788.4,621.6 -424.4,0 -773.3,-287.8 -773.3,-621.6 z m -697.1,45.9 c 0,1196.7 666.9,2424.6 1668,3091 l 348.3,-576.2 c -530.2,-409.3 -803.5,-757.6 -1061.1,-1303.5 242.5,44.8 348.9,45.3 515.7,45.3 803.6,0 1469.9,-591.3 1469.9,-1319.2 0,-745.2 -628,-1317.1 -1470.4,-1317.1 -833.7,0 -1470.4,607 -1470.4,1379.7"
         style="fill:#231f20;fill-opacity:1;fill-rule:nonzero;stroke:none"
         transform="matrix(0.13333333,0,0,-0.13333333,0,5760.6667)" />
      <path
         id="path28"
         d="m 29957.6,4322.5 h -685.3 V 8036.1 H 28283 v 606.4 h 2679.5 V 8036.1 H 29957.6 V 4322.5"
         style="fill:#231f20;fill-opacity:1;fill-rule:nonzero;stroke:none"
         transform="matrix(0.13333333,0,0,-0.13333333,0,5760.6667)" />
    </g>
  </g>
</svg>
