<?xml version="1.0" encoding="UTF-8"?>
<svg id="For_Sheets" xmlns="http://www.w3.org/2000/svg" version="1.1" viewBox="0 0 2592 3456">
  <!-- Generator: Adobe Illustrator 29.1.0, SVG Export Plug-In . SVG Version: 2.1.0 Build 142)  -->
  <defs>
    <style>
      .st0, .st1 {
        fill: #231f20;
      }

      .st2 {
        fill: #fff;
      }

      .st1 {
        fill-rule: evenodd;
      }
    </style>
  </defs>
  <g>
    <path class="st2" d="M162,3456.1c-43.1,0-83.8-16.9-114.5-47.6-30.7-30.7-47.6-71.4-47.6-114.5V162C-.1,118.9,16.8,78.2,47.5,47.5,78.2,16.8,118.9-.1,162-.1h2268c43.1,0,83.8,16.9,114.5,47.6,30.7,30.7,47.6,71.4,47.6,114.5v3132c0,43.1-16.9,83.8-47.6,114.5s-71.4,47.6-114.5,47.6H162Z"/>
    <path class="st0" d="M2430,0c89.1,0,162,72.9,162,162v3132c0,89.1-72.9,162-162,162H162c-89.1,0-162-72.9-162-162V162C0,72.9,72.9,0,162,0h2268M2430-.2H162c-21.8,0-43,4.3-63,12.8-19.3,8.2-36.7,19.9-51.6,34.9-14.9,14.9-26.7,32.3-34.9,51.6C4.1,119-.2,140.2-.2,162v3132c0,21.8,4.3,43,12.8,63,8.2,19.3,19.9,36.7,34.9,51.6,14.9,14.9,32.3,26.7,51.6,34.9,20,8.5,41.2,12.8,63,12.8h2268c21.8,0,43-4.3,63-12.8,19.3-8.2,36.7-19.9,51.6-34.9,14.9-14.9,26.7-32.3,34.9-51.6,8.5-20,12.8-41.2,12.8-63V162c0-21.8-4.3-43-12.8-63-8.2-19.3-19.9-36.7-34.9-51.6-14.9-14.9-32.3-26.7-51.6-34.9-20-8.5-41.2-12.8-63-12.8h0Z"/>
  </g>
  <path class="st0" d="M162,3411c-31.1,0-60.4-12.2-82.6-34.4-22.2-22.2-34.4-51.5-34.4-82.6V162c0-31.1,12.2-60.4,34.4-82.6,22.2-22.2,51.5-34.4,82.6-34.4h2268c31.1,0,60.4,12.2,82.6,34.4,22.2,22.2,34.4,51.5,34.4,82.6v3132c0,31.1-12.2,60.4-34.4,82.6-22.2,22.2-51.5,34.4-82.6,34.4H162Z"/>
  <path class="st2" d="M162,3348c-14.5,0-27.6-5.5-38-16-10.4-10.4-16-23.6-16-38V162c0-14.5,5.5-27.6,16-38s23.6-16,38-16h2268c14.5,0,27.6,5.5,38,16,10.4,10.4,16,23.6,16,38v3132c0,14.5-5.5,27.6-16,38-10.4,10.4-23.6,16-38,16H162Z"/>
  <path class="st1" d="M858.6,1831.7h77.4v-283.7h-489.9v49.4h-67.3c-27.4,0-44.5,0-55.8,38.3l-18.9,74.7h-43.7q-21.5,0-21.5,21v100.3h-22.9v23.2h82.2c4.2,31.6,24.1,53.1,55.6,53.1s52.4-22.1,59.4-53.1h33v-23.2h288.6c-.5,3-.7,9.5-.7,12.7,0,35,28.3,63.6,62.9,63.6s62.9-28.6,62.9-63.6-.5-9-1.2-12.7Z"/>
  <g>
    <path class="st1" d="M628.3,2424.5h72.1l-30-32.9h-205.5v-185.7h-97.5c-25.5,0-41.4,0-52,35.7l-17.6,69.7h-40.6q-20,0-20,19.6v93.6h-21.3v21.6h76.5c3.9,29.4,22.5,49.6,51.7,49.6s48.8-20.6,55.3-49.6h30.7v-21.6h82.9c-.5,2.8-.7,8.8-.7,11.9,0,32.7,26.3,59.4,58.5,59.4s58.5-26.7,58.5-59.4-.5-8.4-1.1-11.9Z"/>
    <path class="st1" d="M1187.4,2502c34.5,0,62.7-28.5,62.7-63.5s-.5-8.8-1.3-13h119.2v-283.5H488.2v229.4h204.9l48.6,54.1h384.4c-.9,4.2-1.3,8.5-1.3,13,0,35,28.2,63.5,62.7,63.5Z"/>
  </g>
  <path class="st1" d="M1419.3,3093.9c34.9,0,63.4-28.7,63.4-63.8s-.4-8.3-1.2-12.3h102.5c0,0,0-281.9,0-281.9h-619.5v258.2h-30.5v-258.2h-487.3v49.3h-67.5c-27.4,0-44.6,0-56,38.2l-18.9,74.6h-43.8q-21.5,0-21.5,20.9v100.2h-23v23.2h82.4c4.2,31.5,24.2,53.1,55.7,53.1s52.5-22,59.6-53.1h33.1v-23.2h219.6c-.5,3-.7,9.9-.7,13.2,0,35,28.3,63.5,63.1,63.5s63.1-28.5,63.1-63.5-.5-9.5-1.2-13.2h237.9c-.8,4.2-1.3,8.5-1.3,12.9,0,35.1,28.5,63.8,63.4,63.8s63.4-28.7,63.4-63.8-.4-8.6-1.3-12.7l204.6-1.8c-.8,4-1.2,8.2-1.2,12.4,0,35.2,28.5,63.8,63.4,63.8Z"/>
  <g>
    <path class="st0" d="M580,720l-58.2-241.2-56.9,241.2h-68.3l-65.7-360h67l39.2,232.4,53.1-232.4h64.5l55.7,232.4,36.6-232.4h65.7l-64.5,360h-68.3Z"/>
    <path class="st0" d="M774,360h263.6v64.4h-197.7v66.9h107.7v65.7h-107.7v98.5h204.1v64.4h-270v-360Z"/>
    <path class="st0" d="M1116,360h64.8v360h-64.8v-360Z"/>
    <path class="st0" d="M1555.3,587.3c0,77.1-63.2,139-142.7,139s-149-93.5-149-186.9,59.4-185.6,149-185.6,108.6,34.1,133.9,89.7l-65.6,22.7c-13.9-30.3-36.6-48-68.2-48-50.5,0-84.6,50.5-84.6,121.3s17.6,122.5,84.6,122.5,66.9-24,75.8-56.9h-59.4v-64.3h126.3v46.7Z"/>
    <path class="st0" d="M1865.2,563.4h-162.4v156.6h-64.7v-360h64.7v139h162.4v-139h64.7v360h-64.7v-156.6Z"/>
    <path class="st0" d="M2157.7,720h-63.1v-296.8h-103.5v-63.2h270v63.2h-103.5v296.8Z"/>
  </g>
  <g>
    <path class="st0" d="M637.1,954h64.7v304.4h205.3v55.6h-270v-360Z"/>
    <path class="st0" d="M968.3,954h64.8v360h-64.8v-360Z"/>
    <path class="st0" d="M1401.9,1094.2l-106.5,219.8-105.3-219.8v219.8h-63.4v-360h63.4l105.3,213.5,106.5-213.5h63.4v360h-63.4v-219.8Z"/>
    <path class="st0" d="M1558.9,954h64.8v360h-64.8v-360Z"/>
    <path class="st0" d="M1851.5,1314h-63.1v-296.8h-103.5v-63.2h270v63.2h-103.5v296.8Z"/>
  </g>
  <g>
    <path class="st0" d="M1860.8,1793.1c0-34.1,15.2-61.9,41.7-83.4-17.7-18.9-26.5-40.5-26.5-65.7,0-55.6,49.3-102.2,107.4-102.2s108.6,46.8,108.6,102.3-10.1,46.7-27.8,65.7c27.8,21.5,41.7,50.5,41.7,83.4,0,66-56.8,121.2-122.5,121.2s-122.5-55.5-122.5-121.2ZM1918.9,1794.3c0,34.1,29.2,61.9,64.4,61.9s65.7-27.8,65.7-61.9-30.2-54.3-65.7-54.3-64.4,24.3-64.4,54.3ZM1932.8,1642.7c0,21.5,23,39.2,50.5,39.2s50.5-17.7,50.5-39.2-22.3-42.9-50.5-42.9-50.5,18.7-50.5,42.9Z"/>
    <path class="st0" d="M2292.3,1908h-57.1v-309.5h-82.4v-50.5h223.3v50.5h-83.7v309.5Z"/>
  </g>
  <g>
    <path class="st0" d="M1724.1,2210.2h-32.5v-45.5h3.7c15,0,31.3-8.8,41.3-22.7h45v360h-57.5v-291.8Z"/>
    <path class="st0" d="M1929,2443.9h176.8v58.1h-245.1c1.3-41.7,10-75.9,30.3-109.9,63.2-105.6,157.9-95,157.9-150.3s-30.2-48-65.7-48-59.4,17.7-65.7,50.5l-56.8-12.6c12.6-59.4,59.4-96,122.5-96s122.5,48,122.5,107.4-24.7,70.5-56.8,90.4c-48.5,30.1-93,43.5-120,110.4Z"/>
    <path class="st0" d="M2292.3,2502h-57.1v-309.5h-82.4v-50.5h223.3v50.5h-83.7v309.5Z"/>
  </g>
  <g>
    <path class="st0" d="M1724.1,2804.2h-32.5v-45.5h3.7c15,0,31.3-8.8,41.3-22.7h45v360h-57.5v-291.8Z"/>
    <path class="st0" d="M1860.8,2987.3c0-99.7,55.6-202,139-257.6l29,48c-44.2,34.1-67,63.1-88.4,108.6,20.2-3.7,29.1-3.8,43-3.8,67,0,122.5,49.3,122.5,109.9s-52.3,109.8-122.5,109.8-122.5-50.6-122.5-115ZM1918.9,2991.1c0,28.9,29.1,53.1,64.4,53.1s65.7-24,65.7-53.1-29.1-51.8-65.7-51.8-64.4,24-64.4,51.8Z"/>
    <path class="st0" d="M2292.3,3096h-57.1v-309.5h-82.4v-50.5h223.3v50.5h-83.7v309.5Z"/>
  </g>
</svg>