<?xml version="1.0" encoding="UTF-8"?>
<svg id="For_Sheets" xmlns="http://www.w3.org/2000/svg" version="1.1" viewBox="0 0 9504 6480">
  <!-- Generator: Adobe Illustrator 29.1.0, SVG Export Plug-In . SVG Version: 2.1.0 Build 142)  -->
  <defs>
    <style>
      .st0 {
        fill: #231f20;
      }

      .st1 {
        fill: #fff;
      }
    </style>
  </defs>
  <g>
    <path class="st1" d="M432,6480.1c-58.3,0-114.9-11.4-168.2-34-51.5-21.8-97.7-52.9-137.4-92.6-39.7-39.7-70.8-85.9-92.6-137.4C11.3,6162.9-.1,6106.3-.1,6048V432c0-58.3,11.4-114.9,34-168.2,21.8-51.5,52.9-97.7,92.6-137.4,39.7-39.7,85.9-70.8,137.4-92.6C317.1,11.3,373.7-.1,432-.1h8640c58.3,0,114.9,11.4,168.2,34,51.5,21.8,97.7,52.9,137.4,92.6,39.7,39.7,70.8,85.9,92.6,137.4,22.5,53.3,34,109.9,34,168.2v5616c0,58.3-11.4,114.9-34,168.2-21.8,51.5-52.9,97.7-92.6,137.4-39.7,39.7-85.9,70.8-137.4,92.6-53.3,22.5-109.9,34-168.2,34H432Z"/>
    <path class="st0" d="M9072,0c238.6,0,432,193.4,432,432v5616c0,238.6-193.4,432-432,432H432c-238.6,0-432-193.4-432-432V432C0,193.4,193.4,0,432,0h8640M9072-.3H432c-58.4,0-115,11.4-168.3,34-51.5,21.8-97.7,52.9-137.4,92.6-39.7,39.7-70.9,85.9-92.6,137.4C11.2,317-.2,373.6-.2,432v5616c0,58.4,11.4,115,34,168.3,21.8,51.5,52.9,97.7,92.6,137.4,39.7,39.7,85.9,70.9,137.4,92.6,53.3,22.5,109.9,34,168.2,34s0,0,0,0h8640c58.4,0,115-11.4,168.3-34,51.5-21.8,97.7-52.9,137.4-92.6,39.7-39.7,70.9-85.9,92.6-137.4,22.5-53.3,34-109.9,34-168.3V432c0-58.4-11.4-115-34-168.3-21.8-51.5-52.9-97.7-92.6-137.4-39.7-39.7-85.9-70.9-137.4-92.6-53.3-22.5-109.9-34-168.3-34h0Z"/>
  </g>
  <path class="st0" d="M9339.3,164.7c-71.4-71.4-166.3-110.7-267.3-110.7H432c-101,0-195.9,39.3-267.3,110.7-71.4,71.4-110.7,166.3-110.7,267.3v5616c0,101,39.3,195.9,110.7,267.3,71.4,71.4,166.3,110.7,267.3,110.7h8640c101,0,195.9-39.3,267.3-110.7,71.4-71.4,110.7-166.3,110.7-267.3V432c0-101-39.3-195.9-110.7-267.3ZM9360,6048c0,76.9-30,149.3-84.4,203.6-54.4,54.4-126.7,84.4-203.6,84.4H432c-76.9,0-149.3-30-203.6-84.4-54.4-54.4-84.4-126.7-84.4-203.6V432c0-76.9,30-149.3,84.4-203.6,54.4-54.4,126.7-84.4,203.6-84.4h8640c76.9,0,149.3,30,203.6,84.4,54.4,54.4,84.4,126.7,84.4,203.6v5616Z"/>
  <g>
    <path class="st0" d="M2295.3,5579.9v396.1h-101.4v-576h101.4l266,380v-380h99.4v576h-89.3l-276-396.1Z"/>
    <path class="st0" d="M2810.5,5400h421.8v103.1h-316.4v107.1h172.4v105.1h-172.4v157.6h326.5v103.1h-432v-576Z"/>
    <path class="st0" d="M3572.8,5771.9l-127.9,204.1h-121.8l188.8-303.2-172.5-272.8h123.8l109.7,175.8,109.6-175.8h123.8l-170.5,272.8,188.8,303.2h-121.7l-130-204.1Z"/>
    <path class="st0" d="M4154.3,5976h-100.9v-474.9h-165.5v-101.1h432v101.1h-165.5v474.9Z"/>
  </g>
  <g>
    <path class="st0" d="M5257.6,5729.5l105,246.5h-115.1l-92.9-226.4h-155.7v226.4h-103.1v-576h272.3c119,0,182.4,94,182.4,175.8s-34.3,121.3-92.9,153.6ZM4999,5503.1v143.4h165.9c50.5,0,82.8-29,82.8-70.7s-32.4-72.7-82.9-72.7h-165.8Z"/>
    <path class="st0" d="M5477.9,5400h103.7v576h-103.7v-576Z"/>
    <path class="st0" d="M6180.9,5763.7c0,123.4-101.1,222.3-228.4,222.3s-238.5-149.5-238.5-299.1,95-297,238.4-297,173.8,54.6,214.2,143.5l-105,36.3c-22.2-48.5-58.6-76.8-109.1-76.8-80.9,0-135.4,80.9-135.4,194s28.2,196,135.4,196,107.1-38.4,121.2-91h-95v-103h202.1v74.7Z"/>
    <path class="st0" d="M6676.7,5725.4h-259.8v250.6h-103.5v-576h103.5v222.3h259.8v-222.3h103.5v576h-103.5v-250.6Z"/>
    <path class="st0" d="M7144.6,5976h-100.9v-474.9h-165.5v-101.1h432v101.1h-165.5v474.9Z"/>
  </g>
  <g>
    <path class="st0" d="M3014.2,1224h-126.2v-593.6h-206.9v-126.4h540v126.4h-206.9v593.6Z"/>
    <path class="st0" d="M3795.7,915.8l131.3,308.2h-143.9l-116.2-283h-194.6v283h-128.9V504h340.4c148.8,0,228,117.5,228,219.8s-42.9,151.6-116.2,192.1ZM3472.4,632.9v179.3h207.4c63.1,0,103.5-36.3,103.5-88.4s-40.5-90.9-103.6-90.9h-207.3Z"/>
    <path class="st0" d="M4362.5,1104.9c75.5,0,162.7-53.2,162.7-165.6v-435.3h129.4v429.5c0,176.8-121.8,303.1-291.8,303.1s-291.8-126.3-291.8-303.1v-429.5h129.4v434.6c0,108.4,80.9,166.3,162,166.3Z"/>
    <path class="st0" d="M4951.6,860.2c0,156.7,65.6,247.5,174.2,247.5s101.1-22.8,164.2-91l113.7,60.7c-53,101.1-161.7,159.1-277.9,159.1-189.4,0-305.6-150.3-305.6-373.9s116.5-371.2,305.6-371.2,222.4,58,277.9,159l-113.7,60.7c-25-43.6-87.7-91-164.2-91-131.4,0-174.2,128.9-174.2,240Z"/>
    <path class="st0" d="M5835.4,850.1l-136.8,171.7v202.1h-129.2V504h129.2v313.3l255.9-313.3h167.2l-192.5,235,238.1,485h-147l-184.9-373.9Z"/>
    <path class="st0" d="M6721.4,1188.1c-50.8,30.7-116.4,48.7-182.6,48.7-124.3,0-218.2-46.1-299.4-140.8l104-82c53.3,64,111.6,92.2,192.8,92.2s157.3-42.9,157.3-94.8-73-78.1-274.5-134.7c-101.3-28.4-146.7-105.6-146.7-182.9,0-120.5,101.6-202.3,248.7-202.3s195.6,35.7,269,112.5l-96.5,87.1c-45.6-48.7-104-71.7-172.5-71.7s-116.6,32-116.6,73.4c0,79.8,98,62.2,277.1,125.3,126.4,44.6,141.5,152.6,141.5,198.4,0,74.2-33,130.7-101.5,171.6Z"/>
  </g>
  <g>
    <g>
      <path class="st0" d="M797.9,2086.7c0-229.9,116.5-371.2,306.3-371.2s298.8,148,298.8,368.8-115.6,376.3-298.8,376.3-306.3-193.1-306.3-373.9ZM929.6,2086.7c0,154.1,65.8,245,174.7,245s169.6-133.9,169.6-245-62.7-242.5-169.6-242.5-174.7,91-174.7,242.5Z"/>
      <path class="st0" d="M1765.5,2448l-261.6-720h137l194.4,525.5,194.3-525.5h137.1l-264,720h-137.1Z"/>
      <path class="st0" d="M2289.1,1728h527.3v128.9h-395.4v133.8h215.5v131.4h-215.5v197h408.1v128.9h-540v-720Z"/>
      <path class="st0" d="M3425.3,2139.8l131.3,308.2h-143.9l-116.2-283h-194.6v283h-128.9v-720h340.4c148.8,0,228,117.5,228,219.8s-42.9,151.6-116.2,192.1ZM3102,1856.9v179.3h207.4c63.1,0,103.5-36.3,103.5-88.4s-40.5-90.9-103.6-90.9h-207.3Z"/>
    </g>
    <g>
      <path class="st0" d="M4369.6,1909.9h-93v-103.6c55.3-12.7,85.5-32.8,113-78.3h103v720h-123v-538.1Z"/>
      <path class="st0" d="M4658.2,2086.7c0-189.2,91.2-371.2,303.8-371.2s301.3,185.6,301.3,368.8-84,376.3-301.3,376.3-303.8-184.7-303.8-373.9ZM4962.1,1844.2c-129.1,0-174.7,133.9-174.7,240,0,159.2,65.8,247.5,174.7,247.5s172.2-110.3,172.2-245-63.3-242.5-172.2-242.5Z"/>
    </g>
    <g>
      <path class="st0" d="M6316.5,2448h-126.2v-593.6h-206.9v-126.4h540v126.4h-206.9v593.6Z"/>
      <path class="st0" d="M6624.2,2086.7c0-229.9,116.5-371.2,306.3-371.2s298.8,148,298.8,368.8-115.6,376.3-298.8,376.3-306.3-193.1-306.3-373.9ZM6755.9,2086.7c0,154.1,65.8,245,174.7,245s169.6-133.9,169.6-245-62.7-242.5-169.6-242.5-174.7,91-174.7,242.5Z"/>
      <path class="st0" d="M7521.8,1952.8v495.2h-126.8v-720h126.7l332.5,475v-475h124.3v720h-111.7l-345-495.2Z"/>
      <path class="st0" d="M8604.5,2412.1c-50.8,30.7-116.4,48.7-182.6,48.7-124.3,0-218.2-46.1-299.4-140.8l104-82c53.3,64,111.6,92.2,192.8,92.2s157.3-42.9,157.3-94.8-73-78.1-274.5-134.7c-101.3-28.4-146.7-105.6-146.7-182.9,0-120.5,101.6-202.3,248.7-202.3s195.6,35.7,269,112.5l-96.5,87.1c-45.6-48.7-104-71.7-172.5-71.7s-116.6,32-116.6,73.4c0,79.8,98,62.2,277.1,125.3,126.4,44.6,141.5,152.6,141.5,198.4,0,74.2-33,130.7-101.5,171.6Z"/>
    </g>
  </g>
  <g>
    <g>
      <path class="st0" d="M1885,3232.4l-213,439.6-210.5-439.6v439.6h-126.8v-720h126.8l210.5,427,213-427h126.8v720h-126.8v-439.6Z"/>
      <path class="st0" d="M2490.5,3552.9c75.5,0,162.7-53.2,162.7-165.6v-435.3h129.4v429.5c0,176.8-121.8,303.1-291.8,303.1s-291.8-126.3-291.8-303.1v-429.5h129.4v434.6c0,108.4,80.9,166.3,162,166.3Z"/>
      <path class="st0" d="M3408.7,3636.1c-50.8,30.7-116.4,48.7-182.6,48.7-124.3,0-218.2-46.1-299.4-140.8l104-82c53.3,64,111.6,92.2,192.8,92.2s157.3-42.9,157.3-94.8-73-78.1-274.5-134.7c-101.3-28.4-146.7-105.6-146.7-182.9,0-120.5,101.6-202.3,248.7-202.3s195.6,35.7,269,112.5l-96.5,87.1c-45.6-48.7-104-71.7-172.5-71.7s-116.6,32-116.6,73.4c0,79.8,98,62.2,277.1,125.3,126.4,44.6,141.5,152.6,141.5,198.4,0,74.2-33,130.7-101.5,171.6Z"/>
      <path class="st0" d="M3922.5,3672h-126.2v-593.6h-206.9v-126.4h540v126.4h-206.9v593.6Z"/>
    </g>
    <g>
      <path class="st0" d="M4849.4,2952h527.3v128.9h-395.4v133.8h215.5v131.4h-215.5v197h408.1v128.9h-540v-720Z"/>
      <path class="st0" d="M5660.2,3176.8v495.2h-126.8v-720h126.7l332.5,475v-475h124.3v720h-111.7l-345-495.2Z"/>
      <path class="st0" d="M6572.4,3672h-126.2v-593.6h-206.9v-126.4h540v126.4h-206.9v593.6Z"/>
      <path class="st0" d="M6901.8,2952h527.3v128.9h-395.4v133.8h215.5v131.4h-215.5v197h408.1v128.9h-540v-720Z"/>
      <path class="st0" d="M8038,3363.8l131.3,308.2h-143.9l-116.2-283h-194.6v283h-128.9v-720h340.4c148.8,0,228.1,117.5,228.1,219.8s-42.9,151.6-116.2,192.1ZM7714.6,3080.9v179.3h207.4c63.1,0,103.5-36.3,103.5-88.4s-40.5-90.9-103.6-90.9h-207.3Z"/>
    </g>
  </g>
  <g>
    <g>
      <path class="st0" d="M1108.7,4896l-116.4-482.5-113.8,482.5h-136.6l-131.5-720h134l78.4,464.8,106.3-464.8h129l111.3,464.8,73.3-464.8h131.5l-129,720h-136.5Z"/>
      <path class="st0" d="M1496.7,4176h527.3v128.9h-395.4v133.8h215.5v131.4h-215.5v197h408.1v128.9h-540v-720Z"/>
      <path class="st0" d="M2180.7,4176h129.6v720h-129.6v-720Z"/>
      <path class="st0" d="M3059.4,4630.7c0,154.3-126.4,277.9-285.5,277.9s-298.1-186.9-298.1-373.9,118.7-371.2,298-371.2,217.3,68.2,267.7,179.4l-131.2,45.4c-27.8-60.7-73.3-96-136.4-96-101.1,0-169.3,101.1-169.3,242.5s35.3,245,169.3,245,133.8-48.1,151.6-113.8h-118.7v-128.7h252.6v93.4Z"/>
      <path class="st0" d="M3679.2,4582.7h-324.7v313.3h-129.4v-720h129.4v277.9h324.7v-277.9h129.4v720h-129.4v-313.3Z"/>
    </g>
    <g>
      <path class="st0" d="M5010.6,4860.1c-50.8,30.7-116.4,48.7-182.6,48.7-124.3,0-218.2-46.1-299.4-140.8l104-82c53.3,64,111.6,92.2,192.8,92.2s157.3-42.9,157.3-94.8-73-78.1-274.5-134.7c-101.3-28.4-146.7-105.6-146.7-182.9,0-120.5,101.6-202.3,248.7-202.3s195.6,35.7,269,112.5l-96.5,87.1c-45.6-48.7-104-71.7-172.5-71.7s-116.6,32-116.6,73.4c0,79.8,98,62.2,277.1,125.3,126.4,44.6,141.5,152.6,141.5,198.4,0,74.2-33,130.7-101.5,171.6Z"/>
      <path class="st0" d="M5524.5,4896h-126.2v-593.6h-206.9v-126.4h540v126.4h-206.9v593.6Z"/>
      <path class="st0" d="M6314.3,4726.7h-313.2l-70.7,169.3h-141.4l303.1-720h131.3l300.5,720h-139l-70.6-169.3ZM6056.6,4597.9h202l-101-242.5-101.1,242.5Z"/>
      <path class="st0" d="M6914.6,4896h-126.2v-593.6h-206.9v-126.4h540v126.4h-206.9v593.6Z"/>
      <path class="st0" d="M7244,4176h129.6v720h-129.6v-720Z"/>
      <path class="st0" d="M7539.2,4534.7c0-229.9,116.5-371.2,306.3-371.2s298.8,148,298.8,368.8-115.6,376.3-298.8,376.3-306.3-193.1-306.3-373.9ZM7670.8,4534.7c0,154.1,65.8,245,174.7,245s169.6-133.9,169.6-245-62.7-242.5-169.6-242.5-174.7,91-174.7,242.5Z"/>
      <path class="st0" d="M8436.7,4400.8v495.2h-126.8v-720h126.7l332.5,475v-475h124.3v720h-111.7l-345-495.2Z"/>
    </g>
  </g>
</svg>