<?xml version="1.0" encoding="UTF-8" standalone="no"?>
<!-- Created with Inkscape (http://www.inkscape.org/) -->

<svg
   version="1.1"
   id="svg1"
   width="12672.667"
   height="8640.667"
   viewBox="0 0 12672.667 8640.667"
   sodipodi:docname="tmpnmfx5sf4.pdf"
   xmlns:inkscape="http://www.inkscape.org/namespaces/inkscape"
   xmlns:sodipodi="http://sodipodi.sourceforge.net/DTD/sodipodi-0.dtd"
   xmlns="http://www.w3.org/2000/svg"
   xmlns:svg="http://www.w3.org/2000/svg">
  <defs
     id="defs1" />
  <sodipodi:namedview
     id="namedview1"
     pagecolor="#ffffff"
     bordercolor="#000000"
     borderopacity="0.25"
     inkscape:showpageshadow="2"
     inkscape:pageopacity="0.0"
     inkscape:pagecheckerboard="0"
     inkscape:deskcolor="#d1d1d1">
    <inkscape:page
       x="0"
       y="0"
       inkscape:label="1"
       id="page1"
       width="12672.667"
       height="8640.667"
       margin="0"
       bleed="0" />
  </sodipodi:namedview>
  <g
     id="g1"
     inkscape:groupmode="layer"
     inkscape:label="1">
    <g
       id="group-R5">
      <path
         id="path2"
         d="M 4322.49,1.20313 C 3739.13,1.20313 3173.21,115.5 2640.47,340.801 2125.9,558.5 1663.76,870.098 1266.91,1266.9 870.059,1663.8 558.473,2125.9 340.836,2640.5 115.496,3173.2 1.24609,3739.1 1.24609,4322.5 v 56160 c 0,583.4 114.24991,1149.3 339.58991,1682 217.637,514.6 529.223,976.7 926.074,1373.6 396.85,396.8 858.99,708.4 1373.56,926.1 532.74,225.3 1098.66,339.5 1682.02,339.5 H 90722.5 c 583.4,0 1149.3,-114.2 1682,-339.5 514.6,-217.7 976.7,-529.3 1373.6,-926.1 396.8,-396.9 708.4,-859 926.1,-1373.6 225.3,-532.7 339.5,-1098.6 339.5,-1682 v -56160 c 0,-583.4 -114.2,-1149.3 -339.5,-1682 -217.7,-514.6 -529.3,-976.7 -926.1,-1373.6 -396.9,-396.802 -859,-708.4 -1373.6,-926.099 C 91871.8,115.5 91305.9,1.20313 90722.5,1.20313 H 4322.49"
         style="fill:#ffffff;fill-opacity:1;fill-rule:nonzero;stroke:none"
         transform="matrix(0.13333333,0,0,-0.13333333,0,8640.6667)" />
      <path
         id="path3"
         d="M 90722.5,64805 H 4322.49 c -583.52,0 -1149.61,-114.3 -1682.51,-339.7 C 2125.26,64247.6 1663,63935.9 1266.02,63539 869.059,63142 557.387,62679.7 339.684,62165 114.281,61632.1 0,61066 0,60482.5 V 4322.5 C 0,3739 114.281,3172.9 339.684,2640 557.387,2125.3 869.059,1663 1266.02,1266 1663,869.102 2125.26,557.402 2639.98,339.703 3172.85,114.301 3738.91,0 4322.4,0 c 0.04,0 0.06,0 0.09,0 H 90722.5 c 583.5,0 1149.6,114.301 1682.5,339.703 514.7,217.699 977,529.399 1374,926.297 396.9,397 708.6,859.3 926.3,1374 225.4,532.9 339.7,1099 339.7,1682.5 v 56160 c 0,583.5 -114.3,1149.6 -339.7,1682.5 -217.7,514.7 -529.4,977 -926.3,1374 -397,396.9 -859.3,708.6 -1374,926.3 -532.9,225.4 -1099,339.7 -1682.5,339.7 z m 0,-2.5 c 2385.9,0 4320,-1934.1 4320,-4320 v -56160 c 0,-2385.9 -1934.1,-4320 -4320,-4320 H 4322.49 C 1936.62,2.5 2.49609,1936.6 2.49609,4322.5 v 56160 c 0,2385.9 1934.12391,4320 4319.99391,4320 H 90722.5"
         style="fill:#231f20;fill-opacity:1;fill-rule:nonzero;stroke:none"
         transform="matrix(0.13333333,0,0,-0.13333333,0,8640.6667)" />
      <path
         id="path4"
         d="m 93602.5,4322.5 c 0,-769.3 -299.6,-1492.5 -843.5,-2036.5 -544,-543.9 -1267.2,-843.5 -2036.5,-843.5 H 4322.49 c -769.28,0 -1492.51,299.6 -2036.46,843.5 -543.96,544 -843.54,1267.2 -843.54,2036.5 v 56160 c 0,769.3 299.58,1492.5 843.53,2036.5 543.96,543.9 1267.19,843.5 2036.47,843.5 H 90722.5 c 769.3,0 1492.5,-299.6 2036.5,-843.5 543.9,-544 843.5,-1267.2 843.5,-2036.5 z m -207.1,58832.9 c -714,713.9 -1663.2,1107.1 -2672.9,1107.1 H 4322.49 c -1009.67,0 -1958.92,-393.2 -2672.86,-1107.1 C 935.684,62441.4 542.492,61492.2 542.492,60482.5 V 4322.5 C 542.492,3312.8 935.684,2363.6 1649.63,1649.6 2363.57,935.699 3312.82,542.5 4322.49,542.5 H 90722.5 c 1009.7,0 1958.9,393.199 2672.9,1107.1 713.9,714 1107.1,1663.2 1107.1,2672.9 v 56160 c 0,1009.7 -393.2,1958.9 -1107.1,2672.9"
         style="fill:#231f20;fill-opacity:1;fill-rule:nonzero;stroke:none"
         transform="matrix(0.13333333,0,0,-0.13333333,0,8640.6667)" />
      <path
         id="path5"
         d="M 22955.3,9003.9 V 5042.5 h -1014.4 v 5760 h 1013.7 l 2660.3,-3800.1 v 3800.1 h 994.3 v -5760 h -893.5 l -2760.4,3961.4"
         style="fill:#231f20;fill-opacity:1;fill-rule:nonzero;stroke:none"
         transform="matrix(0.13333333,0,0,-0.13333333,0,8640.6667)" />
      <path
         id="path6"
         d="m 28107,10802.5 h 4218.3 v -1031 H 29161.8 V 8700.8 h 1723.6 V 7649.6 h -1723.6 v -1576 h 3265 V 5042.5 H 28107 v 5760"
         style="fill:#231f20;fill-opacity:1;fill-rule:nonzero;stroke:none"
         transform="matrix(0.13333333,0,0,-0.13333333,0,8640.6667)" />
      <path
         id="path7"
         d="M 35730.4,7083.7 34451.7,5042.5 h -1218.2 l 1887.8,3031.9 -1725.1,2728.1 h 1237.6 l 1096.6,-1758.2 1095.8,1758.2 h 1238.3 L 36359.6,8074.4 38247.4,5042.5 h -1217.5 l -1299.5,2041.2"
         style="fill:#231f20;fill-opacity:1;fill-rule:nonzero;stroke:none"
         transform="matrix(0.13333333,0,0,-0.13333333,0,8640.6667)" />
      <path
         id="path8"
         d="m 41545.9,5042.5 h -1009.4 v 4749.1 h -1655.2 v 1010.9 h 4319.8 V 9791.6 H 41545.9 V 5042.5"
         style="fill:#231f20;fill-opacity:1;fill-rule:nonzero;stroke:none"
         transform="matrix(0.13333333,0,0,-0.13333333,0,8640.6667)" />
      <path
         id="path9"
         d="M 49992,9771.5 V 8337.2 h 1658.8 c 504.7,0 828,290.2 828,707.1 0,444.9 -324,727.2 -828.7,727.2 z m 2586.9,-2263.7 1050.4,-2465.3 h -1151.2 l -929.5,2263.7 H 49992 V 5042.5 h -1030.9 v 5760 H 51684 c 1190.1,0 1824.4,-940.3 1824.4,-1758.2 0,-646.6 -343.5,-1213.2 -929.5,-1536.5"
         style="fill:#231f20;fill-opacity:1;fill-rule:nonzero;stroke:none"
         transform="matrix(0.13333333,0,0,-0.13333333,0,8640.6667)" />
      <path
         id="path10"
         d="m 54781.6,10802.5 h 1036.7 v -5760 h -1036.7 v 5760"
         style="fill:#231f20;fill-opacity:1;fill-rule:nonzero;stroke:none"
         transform="matrix(0.13333333,0,0,-0.13333333,0,8640.6667)" />
      <path
         id="path11"
         d="m 61811.5,7165.1 c 0,-1234.1 -1010.8,-2223.4 -2283.7,-2223.4 -1687.7,0 -2384.6,1495.4 -2384.6,2990.9 0,1758.2 949.7,2970 2383.8,2970 1030.3,0 1738,-545.8 2141.9,-1435 l -1049.7,-362.9 c -222.4,485.3 -586,768.3 -1091.4,768.3 -808.6,0 -1354.3,-808.6 -1354.3,-1940.4 0,-927.4 282.2,-1959.9 1354.3,-1959.9 565.9,0 1070.5,384.5 1212.4,910.1 h -949.7 v 1029.6 h 2021 v -747.3"
         style="fill:#231f20;fill-opacity:1;fill-rule:nonzero;stroke:none"
         transform="matrix(0.13333333,0,0,-0.13333333,0,8640.6667)" />
      <path
         id="path12"
         d="M 66769.5,7548.8 H 64171.9 V 5042.5 h -1035.4 v 5760 h 1035.4 V 8579.1 h 2597.6 v 2223.4 h 1035.3 v -5760 h -1035.3 v 2506.3"
         style="fill:#231f20;fill-opacity:1;fill-rule:nonzero;stroke:none"
         transform="matrix(0.13333333,0,0,-0.13333333,0,8640.6667)" />
      <path
         id="path13"
         d="m 71448.9,5042.5 h -1009.4 v 4749.1 h -1655.2 v 1010.9 h 4319.8 V 9791.6 H 71448.9 V 5042.5"
         style="fill:#231f20;fill-opacity:1;fill-rule:nonzero;stroke:none"
         transform="matrix(0.13333333,0,0,-0.13333333,0,8640.6667)" />
      <path
         id="path14"
         d="m 30144.2,52562.5 h -1261.7 v 5936.4 h -2069 v 1263.6 h 5399.7 v -1263.6 h -2069 v -5936.4"
         style="fill:#231f20;fill-opacity:1;fill-rule:nonzero;stroke:none"
         transform="matrix(0.13333333,0,0,-0.13333333,0,8640.6667)" />
      <path
         id="path15"
         d="m 34726.2,58473.7 v -1792.8 h 2073.6 c 630.8,0 1034.9,362.7 1034.9,883.8 0,556.2 -405,909 -1035.8,909 z m 3233.6,-2829.6 1313,-3081.6 h -1439 L 36672,55392.1 h -1945.8 v -2829.6 h -1288.7 v 7200 h 3403.6 c 1487.7,0 2280.5,-1175.4 2280.5,-2197.8 0,-808.2 -429.2,-1516.5 -1161.8,-1920.6"
         style="fill:#231f20;fill-opacity:1;fill-rule:nonzero;stroke:none"
         transform="matrix(0.13333333,0,0,-0.13333333,0,8640.6667)" />
      <path
         id="path16"
         d="m 43627.2,53753.2 c 755.1,0 1627.2,531.9 1627.2,1656 v 4353.3 h 1294.1 v -4294.8 c 0,-1768.5 -1217.6,-3031.2 -2917.7,-3031.2 -1700,0 -2917.6,1262.7 -2917.6,3031.2 v 4294.8 h 1294.1 v -4346.1 c 0,-1084.5 809.1,-1663.2 1619.9,-1663.2"
         style="fill:#231f20;fill-opacity:1;fill-rule:nonzero;stroke:none"
         transform="matrix(0.13333333,0,0,-0.13333333,0,8640.6667)" />
      <path
         id="path17"
         d="m 49518.8,56200.3 c 0,-1566.9 656.1,-2475 1742.3,-2475 657,0 1010.7,227.7 1642.5,909.9 l 1136.6,-606.6 c -530.1,-1010.7 -1617.2,-1591.2 -2779.1,-1591.2 -1894.4,0 -3056.2,1503 -3056.2,3738.6 0,2297.7 1164.5,3711.6 3056.2,3711.6 1161.9,0 2223.8,-579.6 2779.1,-1590.3 l -1136.6,-606.6 c -250.2,436.5 -877.5,909.9 -1642.5,909.9 -1313.9,0 -1742.3,-1288.8 -1742.3,-2400.3"
         style="fill:#231f20;fill-opacity:1;fill-rule:nonzero;stroke:none"
         transform="matrix(0.13333333,0,0,-0.13333333,0,8640.6667)" />
      <path
         id="path18"
         d="m 58356.8,56301.1 -1367.9,-1717.2 v -2021.4 h -1292.4 v 7200 h 1292.4 v -3132.9 l 2558.6,3132.9 h 1672.1 l -1925,-2349.9 2381.3,-4850.1 h -1469.7 l -1849.4,3738.6"
         style="fill:#231f20;fill-opacity:1;fill-rule:nonzero;stroke:none"
         transform="matrix(0.13333333,0,0,-0.13333333,0,8640.6667)" />
      <path
         id="path19"
         d="m 67216.4,52921.6 c -507.6,-306.9 -1163.7,-486.9 -1826.1,-486.9 -1242.8,0 -2182.4,460.8 -2994.1,1408.5 l 1040.3,819.9 c 532.8,-639.9 1116,-922.5 1927.7,-922.5 913.5,0 1573.2,429.3 1573.2,947.7 0,731.7 -729.9,781.2 -2744.9,1347.3 -1013.4,284.4 -1466.9,1055.7 -1466.9,1828.8 0,1205.1 1016,2023.2 2486.5,2023.2 1065.6,0 1955.7,-357.3 2690,-1125 l -964.7,-871.2 c -456.3,486.9 -1040.4,717.3 -1725.3,717.3 -789.2,0 -1166.3,-320.4 -1166.3,-734.4 0,-798.3 980.1,-621.9 2771,-1252.8 1264.4,-446.4 1414.7,-1526.4 1414.7,-1983.6 0,-742.5 -330.3,-1306.8 -1015.1,-1716.3"
         style="fill:#231f20;fill-opacity:1;fill-rule:nonzero;stroke:none"
         transform="matrix(0.13333333,0,0,-0.13333333,0,8640.6667)" />
      <path
         id="path20"
         d="m 9298.5,43935.1 c 0,-1540.8 657.87,-2449.7 1746.8,-2449.7 1367.1,0 1696.4,1339.1 1696.4,2449.7 0,1529.1 -627.2,2425.5 -1696.4,2425.5 -1088.93,0 -1746.8,-909.9 -1746.8,-2425.5 z m -1316.64,0 c 0,2298.6 1164.55,3712.5 3063.44,3712.5 1792.7,0 2987.9,-1479.6 2987.9,-3688.2 0,-2247.2 -1155.6,-3762.8 -2987.9,-3762.8 -2126.58,0 -3063.44,1931.4 -3063.44,3738.5"
         style="fill:#231f20;fill-opacity:1;fill-rule:nonzero;stroke:none"
         transform="matrix(0.13333333,0,0,-0.13333333,0,8640.6667)" />
      <path
         id="path21"
         d="m 17657.7,40322.6 -2616.1,7199.9 h 1369.7 l 1943.9,-5255 1943,5255 h 1370.7 l -2640.5,-7199.9 h -1370.7"
         style="fill:#231f20;fill-opacity:1;fill-rule:nonzero;stroke:none"
         transform="matrix(0.13333333,0,0,-0.13333333,0,8640.6667)" />
      <path
         id="path22"
         d="m 22893.3,47522.5 h 5272.8 v -1288.8 h -3954.4 v -1338.3 h 2154.5 v -1314 h -2154.5 v -1970 H 28293 v -1288.8 h -5399.7 v 7199.9"
         style="fill:#231f20;fill-opacity:1;fill-rule:nonzero;stroke:none"
         transform="matrix(0.13333333,0,0,-0.13333333,0,8640.6667)" />
      <path
         id="path23"
         d="m 31022.1,46233.7 v -1792.8 h 2073.5 c 630.8,0 1034.9,362.7 1034.9,883.8 0,556.2 -405,909 -1035.8,909 z m 3233.5,-2829.6 1313.1,-3081.5 h -1439.1 l -1161.8,2829.5 h -1945.7 v -2829.5 h -1288.8 v 7199.9 H 33137 c 1487.6,0 2280.5,-1175.4 2280.5,-2197.8 0,-808.2 -429.3,-1516.5 -1161.9,-1920.6"
         style="fill:#231f20;fill-opacity:1;fill-rule:nonzero;stroke:none"
         transform="matrix(0.13333333,0,0,-0.13333333,0,8640.6667)" />
      <path
         id="path24"
         d="m 43698.4,45703.6 h -929.7 v 1035.9 c 552.6,126.9 855,328.5 1130.4,783 h 1029.6 v -7199.9 h -1230.3 v 5381"
         style="fill:#231f20;fill-opacity:1;fill-rule:nonzero;stroke:none"
         transform="matrix(0.13333333,0,0,-0.13333333,0,8640.6667)" />
      <path
         id="path25"
         d="m 49623.1,46360.6 c -1291.4,0 -1746.8,-1339.2 -1746.8,-2400.3 0,-1592 657.9,-2474.9 1746.8,-2474.9 1123.2,0 1721.7,1103.3 1721.7,2449.7 0,1515.6 -632.6,2425.5 -1721.7,2425.5 z m -3038.3,-2425.5 c 0,1891.8 911.7,3712.5 3038.3,3712.5 2160.9,0 3013.2,-1855.8 3013.2,-3688.2 0,-1843.1 -839.7,-3762.8 -3013.2,-3762.8 -2151.8,0 -3038.3,1846.8 -3038.3,3738.5"
         style="fill:#231f20;fill-opacity:1;fill-rule:nonzero;stroke:none"
         transform="matrix(0.13333333,0,0,-0.13333333,0,8640.6667)" />
      <path
         id="path26"
         d="m 63167.1,40322.6 h -1261.8 v 5936.3 h -2069 v 1263.6 h 5399.8 v -1263.6 h -2069 v -5936.3"
         style="fill:#231f20;fill-opacity:1;fill-rule:nonzero;stroke:none"
         transform="matrix(0.13333333,0,0,-0.13333333,0,8640.6667)" />
      <path
         id="path27"
         d="m 67561,43935.1 c 0,-1540.8 657.9,-2449.7 1746.8,-2449.7 1367.1,0 1696.5,1339.1 1696.5,2449.7 0,1529.1 -627.3,2425.5 -1696.5,2425.5 -1088.9,0 -1746.8,-909.9 -1746.8,-2425.5 z m -1316.6,0 c 0,2298.6 1164.5,3712.5 3063.4,3712.5 1792.8,0 2987.9,-1479.6 2987.9,-3688.2 0,-2247.2 -1155.5,-3762.8 -2987.9,-3762.8 -2126.6,0 -3063.4,1931.4 -3063.4,3738.5"
         style="fill:#231f20;fill-opacity:1;fill-rule:nonzero;stroke:none"
         transform="matrix(0.13333333,0,0,-0.13333333,0,8640.6667)" />
      <path
         id="path28"
         d="m 75220.1,45274.3 v -4951.7 h -1268 v 7199.9 h 1267.1 l 3325.4,-4750.2 v 4750.2 h 1242.8 v -7199.9 h -1116.8 l -3450.5,4951.7"
         style="fill:#231f20;fill-opacity:1;fill-rule:nonzero;stroke:none"
         transform="matrix(0.13333333,0,0,-0.13333333,0,8640.6667)" />
      <path
         id="path29"
         d="m 86048,40681.7 c -507.6,-306.9 -1163.7,-486.9 -1826,-486.9 -1242.9,0 -2182.4,460.8 -2994.2,1408.5 l 1040.3,819.8 c 532.8,-639.8 1116,-922.4 1927.8,-922.4 913.4,0 1573.1,429.3 1573.1,947.6 0,731.7 -729.9,781.2 -2744.9,1347.3 -1013.4,284.4 -1466.9,1055.7 -1466.9,1828.8 0,1205.1 1016,2023.2 2486.6,2023.2 1065.5,0 1955.6,-357.3 2689.9,-1125 l -964.7,-871.2 c -456.3,486.9 -1040.4,717.3 -1725.2,717.3 -789.3,0 -1166.4,-320.4 -1166.4,-734.4 0,-798.3 980.1,-621.9 2771,-1252.8 1264.5,-446.4 1414.7,-1526.4 1414.7,-1983.5 0,-742.5 -330.2,-1306.8 -1015.1,-1716.3"
         style="fill:#231f20;fill-opacity:1;fill-rule:nonzero;stroke:none"
         transform="matrix(0.13333333,0,0,-0.13333333,0,8640.6667)" />
      <path
         id="path30"
         d="m 18852.7,32478.1 -2130.2,-4395.6 -2105,4395.6 v -4395.6 h -1268 v 7200 h 1268 l 2105,-4269.6 2130.2,4269.6 h 1268.1 v -7200 h -1268.1 v 4395.6"
         style="fill:#231f20;fill-opacity:1;fill-rule:nonzero;stroke:none"
         transform="matrix(0.13333333,0,0,-0.13333333,0,8640.6667)" />
      <path
         id="path31"
         d="m 24907.2,29273.2 c 755.1,0 1627.2,531.9 1627.2,1656 v 4353.3 h 1294.1 v -4294.8 c 0,-1768.5 -1217.6,-3031.2 -2917.7,-3031.2 -1700,0 -2917.6,1262.7 -2917.6,3031.2 v 4294.8 h 1294.1 v -4346.1 c 0,-1084.5 809.1,-1663.2 1619.9,-1663.2"
         style="fill:#231f20;fill-opacity:1;fill-rule:nonzero;stroke:none"
         transform="matrix(0.13333333,0,0,-0.13333333,0,8640.6667)" />
      <path
         id="path32"
         d="m 34089.1,28441.6 c -507.6,-306.9 -1163.7,-486.9 -1826.1,-486.9 -1242.8,0 -2182.4,460.8 -2994.1,1408.5 l 1040.3,819.9 c 532.8,-639.9 1116,-922.5 1927.7,-922.5 913.5,0 1573.2,429.3 1573.2,947.7 0,731.7 -729.9,781.2 -2744.9,1347.3 -1013.4,284.4 -1466.9,1055.7 -1466.9,1828.8 0,1205.1 1016,2023.2 2486.6,2023.2 1065.5,0 1955.6,-357.3 2689.9,-1125 l -964.7,-871.2 c -456.3,486.9 -1040.4,717.3 -1725.2,717.3 -789.3,0 -1166.4,-320.4 -1166.4,-734.4 0,-798.3 980.1,-621.9 2771,-1252.8 1264.4,-446.4 1414.7,-1526.4 1414.7,-1983.6 0,-742.5 -330.3,-1306.8 -1015.1,-1716.3"
         style="fill:#231f20;fill-opacity:1;fill-rule:nonzero;stroke:none"
         transform="matrix(0.13333333,0,0,-0.13333333,0,8640.6667)" />
      <path
         id="path33"
         d="m 39227.3,28082.5 h -1261.8 v 5936.4 h -2069 v 1263.6 h 5399.8 v -1263.6 h -2069 v -5936.4"
         style="fill:#231f20;fill-opacity:1;fill-rule:nonzero;stroke:none"
         transform="matrix(0.13333333,0,0,-0.13333333,0,8640.6667)" />
      <path
         id="path34"
         d="m 48496.3,35282.5 h 5272.8 v -1288.8 h -3954.4 v -1338.3 h 2154.5 v -1314 H 49814.7 V 29371.3 H 53896 v -1288.8 h -5399.7 v 7200"
         style="fill:#231f20;fill-opacity:1;fill-rule:nonzero;stroke:none"
         transform="matrix(0.13333333,0,0,-0.13333333,0,8640.6667)" />
      <path
         id="path35"
         d="m 56604.4,33034.3 v -4951.8 h -1268 v 7200 h 1267.1 l 3325.4,-4750.2 v 4750.2 h 1242.8 v -7200 h -1116.8 l -3450.5,4951.8"
         style="fill:#231f20;fill-opacity:1;fill-rule:nonzero;stroke:none"
         transform="matrix(0.13333333,0,0,-0.13333333,0,8640.6667)" />
      <path
         id="path36"
         d="m 65726.8,28082.5 h -1261.7 v 5936.4 h -2069 v 1263.6 h 5399.7 v -1263.6 h -2069 v -5936.4"
         style="fill:#231f20;fill-opacity:1;fill-rule:nonzero;stroke:none"
         transform="matrix(0.13333333,0,0,-0.13333333,0,8640.6667)" />
      <path
         id="path37"
         d="m 69020.1,35282.5 h 5272.8 V 33993.7 H 70338.5 V 32655.4 H 72493 v -1314 h -2154.5 v -1970.1 h 4081.3 v -1288.8 h -5399.7 v 7200"
         style="fill:#231f20;fill-opacity:1;fill-rule:nonzero;stroke:none"
         transform="matrix(0.13333333,0,0,-0.13333333,0,8640.6667)" />
      <path
         id="path38"
         d="m 77148.9,33993.7 v -1792.8 h 2073.5 c 630.9,0 1035,362.7 1035,883.8 0,556.2 -405,909 -1035.9,909 z m 3233.6,-2829.6 1313,-3081.6 h -1439 l -1161.9,2829.6 h -1945.7 v -2829.6 h -1288.7 v 7200 h 3403.6 c 1487.6,0 2280.5,-1175.4 2280.5,-2197.8 0,-808.2 -429.3,-1516.5 -1161.8,-1920.6"
         style="fill:#231f20;fill-opacity:1;fill-rule:nonzero;stroke:none"
         transform="matrix(0.13333333,0,0,-0.13333333,0,8640.6667)" />
      <path
         id="path39"
         d="M 11090,15842.6 9926.31,20667.4 8788.75,15842.6 H 7422.59 l -1314.86,7199.9 h 1340.06 l 783.87,-4648.5 1062.87,4648.5 h 1289.67 l 1113.3,-4648.5 732.5,4648.5 h 1314.9 L 12455.2,15842.6 H 11090"
         style="fill:#231f20;fill-opacity:1;fill-rule:nonzero;stroke:none"
         transform="matrix(0.13333333,0,0,-0.13333333,0,8640.6667)" />
      <path
         id="path40"
         d="m 14969.3,23042.5 h 5272.9 v -1288.8 h -3954.5 v -1338.3 h 2154.6 v -1314 h -2154.6 v -1970 h 4081.4 v -1288.8 h -5399.8 v 7199.9"
         style="fill:#231f20;fill-opacity:1;fill-rule:nonzero;stroke:none"
         transform="matrix(0.13333333,0,0,-0.13333333,0,8640.6667)" />
      <path
         id="path41"
         d="m 21809.4,23042.5 h 1296 v -7199.9 h -1296 v 7199.9"
         style="fill:#231f20;fill-opacity:1;fill-rule:nonzero;stroke:none"
         transform="matrix(0.13333333,0,0,-0.13333333,0,8640.6667)" />
      <path
         id="path42"
         d="m 30596.9,18495.7 c 0,-1542.6 -1263.5,-2779.1 -2854.7,-2779.1 -2109.5,0 -2980.7,1869.2 -2980.7,3738.5 0,2197.8 1187.1,3712.5 2979.8,3712.5 1287.9,0 2172.6,-682.2 2677.4,-1793.7 l -1312.1,-453.6 c -278.1,606.6 -732.6,960.3 -1364.4,960.3 -1010.6,0 -1692.8,-1010.7 -1692.8,-2425.5 0,-1159.2 352.8,-2449.8 1692.8,-2449.8 707.4,0 1338.3,480.6 1515.6,1137.6 h -1187.1 v 1287 h 2526.2 v -934.2"
         style="fill:#231f20;fill-opacity:1;fill-rule:nonzero;stroke:none"
         transform="matrix(0.13333333,0,0,-0.13333333,0,8640.6667)" />
      <path
         id="path43"
         d="m 36794.5,18975.4 h -3247.1 v -3132.8 h -1294.1 v 7199.9 h 1294.1 v -2779.2 h 3247.1 v 2779.2 h 1294.2 v -7199.9 h -1294.2 v 3132.8"
         style="fill:#231f20;fill-opacity:1;fill-rule:nonzero;stroke:none"
         transform="matrix(0.13333333,0,0,-0.13333333,0,8640.6667)" />
      <path
         id="path44"
         d="m 50108.9,16201.7 c -507.6,-306.9 -1163.6,-486.9 -1826,-486.9 -1242.9,0 -2182.4,460.8 -2994.2,1408.5 l 1040.4,819.8 c 532.7,-639.9 1115.9,-922.5 1927.7,-922.5 913.4,0 1573.1,429.3 1573.1,947.7 0,731.7 -729.8,781.2 -2744.9,1347.3 -1013.3,284.4 -1466.9,1055.7 -1466.9,1828.8 0,1205.1 1016,2023.2 2486.6,2023.2 1065.5,0 1955.6,-357.3 2690,-1125 l -964.8,-871.2 c -456.3,486.9 -1040.3,717.3 -1725.2,717.3 -789.3,0 -1166.4,-320.4 -1166.4,-734.4 0,-798.3 980.1,-621.9 2771,-1252.8 1264.5,-446.4 1414.8,-1526.4 1414.8,-1983.6 0,-742.5 -330.3,-1306.7 -1015.2,-1716.2"
         style="fill:#231f20;fill-opacity:1;fill-rule:nonzero;stroke:none"
         transform="matrix(0.13333333,0,0,-0.13333333,0,8640.6667)" />
      <path
         id="path45"
         d="m 55247.2,15842.6 h -1261.8 v 5936.3 h -2069 v 1263.6 h 5399.8 v -1263.6 h -2069 v -5936.3"
         style="fill:#231f20;fill-opacity:1;fill-rule:nonzero;stroke:none"
         transform="matrix(0.13333333,0,0,-0.13333333,0,8640.6667)" />
      <path
         id="path46"
         d="m 60569,18823.3 h 2020.4 l -1009.7,2425.5 z m 2576.6,-1287.9 h -3131.9 l -707.4,-1692.8 h -1413.8 l 3031.1,7199.9 h 1313 l 3005,-7199.9 H 63852 l -706.4,1692.8"
         style="fill:#231f20;fill-opacity:1;fill-rule:nonzero;stroke:none"
         transform="matrix(0.13333333,0,0,-0.13333333,0,8640.6667)" />
      <path
         id="path47"
         d="M 69148.8,15842.6 H 67887 v 5936.3 h -2069 v 1263.6 h 5399.8 v -1263.6 h -2069 v -5936.3"
         style="fill:#231f20;fill-opacity:1;fill-rule:nonzero;stroke:none"
         transform="matrix(0.13333333,0,0,-0.13333333,0,8640.6667)" />
      <path
         id="path48"
         d="M 72442.1,23042.5 H 73738 v -7199.9 h -1295.9 v 7199.9"
         style="fill:#231f20;fill-opacity:1;fill-rule:nonzero;stroke:none"
         transform="matrix(0.13333333,0,0,-0.13333333,0,8640.6667)" />
      <path
         id="path49"
         d="m 76710.8,19455.1 c 0,-1540.8 657.9,-2449.8 1746.8,-2449.8 1367.1,0 1696.5,1339.2 1696.5,2449.8 0,1529.1 -627.3,2425.5 -1696.5,2425.5 -1088.9,0 -1746.8,-909.9 -1746.8,-2425.5 z m -1316.7,0 c 0,2298.6 1164.6,3712.5 3063.5,3712.5 1792.8,0 2987.9,-1479.6 2987.9,-3688.2 0,-2247.3 -1155.5,-3762.8 -2987.9,-3762.8 -2126.6,0 -3063.5,1931.3 -3063.5,3738.5"
         style="fill:#231f20;fill-opacity:1;fill-rule:nonzero;stroke:none"
         transform="matrix(0.13333333,0,0,-0.13333333,0,8640.6667)" />
      <path
         id="path50"
         d="m 84369.9,20794.3 v -4951.7 h -1268 v 7199.9 H 84369 l 3325.4,-4750.2 v 4750.2 h 1242.9 v -7199.9 h -1116.9 l -3450.5,4951.7"
         style="fill:#231f20;fill-opacity:1;fill-rule:nonzero;stroke:none"
         transform="matrix(0.13333333,0,0,-0.13333333,0,8640.6667)" />
    </g>
  </g>
</svg>
