<?xml version="1.0" encoding="UTF-8"?>
<svg id="For_Sheets" xmlns="http://www.w3.org/2000/svg" version="1.1" viewBox="0 0 5184 3888">
  <!-- Generator: Adobe Illustrator 29.1.0, SVG Export Plug-In . SVG Version: 2.1.0 Build 142)  -->
  <defs>
    <style>
      .st0 {
        fill: #231f20;
      }

      .st1 {
        fill: #fff;
      }
    </style>
  </defs>
  <g>
    <path class="st1" d="M216,3888.1c-57.5,0-111.7-22.5-152.6-63.5C22.4,3783.7-.1,3729.5-.1,3672V216C-.1,158.5,22.4,104.3,63.4,63.4S158.5-.1,216-.1h4752c57.5,0,111.7,22.5,152.6,63.5,40.9,40.9,63.5,95.1,63.5,152.6v3456c0,57.5-22.5,111.7-63.5,152.6-40.9,40.9-95.1,63.5-152.6,63.5H216Z"/>
    <path class="st0" d="M4968,0c118.8,0,216,97.2,216,216v3456c0,118.8-97.2,216-216,216H216c-118.8,0-216-97.2-216-216V216C0,97.2,97.2,0,216,0h4752M4968-.2H216c-29.1,0-57.3,5.7-84,17.1-25.7,10.9-48.9,26.6-68.8,46.5-19.9,19.9-35.5,43-46.5,68.8C5.5,158.7-.2,186.9-.2,216v3456c0,29.1,5.7,57.3,17.1,84,10.9,25.7,26.6,48.9,46.5,68.8s43,35.5,68.8,46.5c26.7,11.3,54.9,17.1,84,17.1h4752c29.1,0,57.3-5.7,84-17.1,25.7-10.9,48.9-26.6,68.8-46.5,19.9-19.9,35.5-43,46.5-68.8,11.3-26.7,17.1-54.9,17.1-84V216c0-29.1-5.7-57.3-17.1-84-10.9-25.7-26.6-48.9-46.5-68.8-19.9-19.9-43-35.5-68.8-46.5-26.7-11.3-54.9-17.1-84-17.1h0Z"/>
  </g>
  <path class="st0" d="M5082.4,101.6c-30.7-30.7-71.3-47.6-114.4-47.6H216c-43,0-83.6,16.9-114.4,47.6-30.7,30.7-47.6,71.3-47.6,114.4v3456c0,43,16.9,83.6,47.6,114.4,30.7,30.7,71.3,47.6,114.4,47.6h4752c43,0,83.6-16.9,114.4-47.6,30.7-30.7,47.6-71.3,47.6-114.4V216c0-43-16.9-83.6-47.6-114.4ZM5040,3672c0,19.3-7.4,36.8-21.3,50.7s-31.5,21.3-50.7,21.3H216c-19.3,0-36.8-7.4-50.7-21.3-13.9-13.9-21.3-31.5-21.3-50.7V216c0-19.3,7.4-36.8,21.3-50.7,13.9-13.9,31.5-21.3,50.7-21.3h4752c19.3,0,36.8,7.4,50.7,21.3,13.9,13.9,21.3,31.5,21.3,50.7v3456Z"/>
  <g>
    <path class="st0" d="M1700.2,756h-68.5v-371.4h-98.9v-60.6h267.9v60.6h-100.5v371.4Z"/>
    <path class="st0" d="M1933.6,568v188h-68.1v-432h156.3c99,0,128.7,79.2,128.7,121.3s-5.9,79.2-67.1,108.2l76.1,202.5h-74.3l-69.7-188h-81.9ZM2019.4,498.3c54.2,0,62.7-39.1,62.7-53s-14.1-53.1-59.5-53.1h-89.1v106.1h85.8Z"/>
    <path class="st0" d="M2233,601.4v-277.4h68.1v277.4c0,56.1,31.9,92.4,78.8,92.4s78.8-36.3,78.8-92.4v-277.4h68.3v277.4c0,136.6-104.8,162.2-147,162.2s-147-22.6-147-162.2Z"/>
    <path class="st0" d="M2622.2,539.2c0-60.7,12.2-222.7,159.1-222.7s105.3,25.5,134.9,87.9l-63.7,27.3c-22.1-31.8-33.1-45.5-71.2-45.5-90.4,0-89.4,126-89.4,153.1s-1.7,154.7,92.4,154.7,51.9-19.9,66.7-50.1l65.2,24.2c-24.3,60.1-65.1,95.4-130.4,95.4-155.5,0-163.7-171.7-163.7-224.3Z"/>
    <path class="st0" d="M3125.3,551.4l-45.6,56.1v148.5h-68.4v-432h68.4v171.3l136.9-171.3h88.2l-133.8,168.3,142.9,263.7h-79.1l-109.5-204.6Z"/>
    <path class="st0" d="M3357.1,654.4l65.2-24.2c18.2,40.9,51.5,63.7,92.4,63.7s66.7-27.3,66.7-63.7c0-57.8-66.7-66.7-122.8-89.4-25.8-10.6-83.4-36.4-83.4-107.6s57.6-116.6,134.9-116.6,101.6,34.9,122.8,87.9l-60.6,18.2c-6.8-17.1-31.5-37.9-63.7-37.9-61.6,0-66.8,32.9-66.8,43.7,0,40.4,34.8,48.4,91.5,66.1,57.7,18.1,117.9,44.7,117.9,137.3s-75.6,131.8-136.5,131.8-128.8-44-157.6-109.1Z"/>
  </g>
  <g>
    <path class="st0" d="M822.1,1260c0,15.5,3.3,223.6-153.5,223.6s-153.5-208.1-153.5-223.6-3.3-223.5,153.5-223.5,153.5,208,153.5,223.5ZM669.4,1413.9c46.5,0,84.3-44.1,84.3-153.9s-37.8-153.9-84.3-153.9-84.3,44.1-84.3,153.9,37.8,153.9,84.3,153.9Z"/>
    <path class="st0" d="M1015.2,1476l-136.9-432h71.5l92.8,288,91.3-288h73l-138.4,432h-53.2Z"/>
    <path class="st0" d="M1271.7,1044h254.3v68.2h-186.2v106.1h125.7v69.7h-125.7v118.3h199.8v69.7h-267.9v-432Z"/>
    <path class="st0" d="M1681.2,1288v188h-68.1v-432h156.3c99,0,128.7,79.2,128.7,121.3s-5.9,79.2-67.1,108.2l76.1,202.5h-74.3l-69.7-188h-81.9ZM1767,1218.3c54.2,0,62.7-39.1,62.7-53s-14.1-53.1-59.5-53.1h-89.1v106.1h85.8Z"/>
  </g>
  <g>
    <path class="st0" d="M2378.1,1125.9h-39v-54.6h4.5c18,0,37.5-10.6,49.5-27.3h54v432h-69v-350.1Z"/>
    <path class="st0" d="M2849.1,1260c0,15.5,3.3,223.6-153.5,223.6s-153.5-208.1-153.5-223.6-3.3-223.5,153.5-223.5,153.5,208,153.5,223.5ZM2696.4,1413.9c46.5,0,84.3-44.1,84.3-153.9s-37.8-153.9-84.3-153.9-84.3,44.1-84.3,153.9,37.8,153.9,84.3,153.9Z"/>
  </g>
  <g>
    <path class="st0" d="M3448.6,1476h-68.5v-371.4h-98.9v-60.6h267.9v60.6h-100.5v371.4Z"/>
    <path class="st0" d="M3912.2,1260c0,15.5,3.3,223.6-153.5,223.6s-153.5-208.1-153.5-223.6-3.3-223.5,153.5-223.5,153.5,208,153.5,223.5ZM3759.5,1413.9c46.5,0,84.3-44.1,84.3-153.9s-37.8-153.9-84.3-153.9-84.3,44.1-84.3,153.9,37.8,153.9,84.3,153.9Z"/>
    <path class="st0" d="M4075.4,1183.5v292.5h-68.1v-432h68.1l157.7,275.9v-275.9h68.3v432h-60.6l-165.3-292.5Z"/>
    <path class="st0" d="M4374.8,1374.4l65.2-24.2c18.2,40.9,51.5,63.7,92.4,63.7s66.7-27.3,66.7-63.7c0-57.8-66.7-66.7-122.8-89.4-25.8-10.6-83.4-36.4-83.4-107.6s57.6-116.6,134.9-116.6,101.6,34.9,122.8,87.9l-60.6,18.2c-6.8-17.1-31.5-37.9-63.7-37.9-61.6,0-66.9,32.9-66.9,43.7,0,40.4,34.8,48.4,91.5,66.1,57.7,18.1,117.9,44.7,117.9,137.3s-75.6,131.8-136.5,131.8-128.8-44-157.6-109.1Z"/>
  </g>
  <g>
    <path class="st0" d="M1108,1945.9l-100.2,250.1-100.3-250.1v250.1h-68.4v-432h68.4l100.3,242.5,100.2-242.5h68.4v432h-68.4v-250.1Z"/>
    <path class="st0" d="M1280.1,2041.4v-277.4h68.1v277.4c0,56.1,31.9,92.4,78.8,92.4s78.8-36.3,78.8-92.4v-277.4h68.3v277.4c0,136.6-104.8,162.2-147,162.2s-147-22.6-147-162.2Z"/>
    <path class="st0" d="M1647.6,2094.4l65.2-24.2c18.2,40.9,51.5,63.7,92.4,63.7s66.7-27.3,66.7-63.7c0-57.8-66.7-66.7-122.8-89.4-25.8-10.6-83.4-36.4-83.4-107.6s57.6-116.6,134.9-116.6,101.6,34.9,122.8,87.9l-60.6,18.2c-6.8-17.1-31.5-37.9-63.7-37.9-61.6,0-66.9,32.9-66.9,43.7,0,40.4,34.8,48.4,91.5,66.1,57.7,18.1,117.9,44.7,117.9,137.3s-75.6,131.8-136.5,131.8-128.8-44-157.6-109.1Z"/>
    <path class="st0" d="M2143.7,2196h-68.5v-371.4h-98.9v-60.6h267.9v60.6h-100.5v371.4Z"/>
  </g>
  <g>
    <path class="st0" d="M2676.2,1764h254.3v68.2h-186.2v106.1h125.7v69.7h-125.7v118.3h199.8v69.7h-267.9v-432Z"/>
    <path class="st0" d="M3085.8,1903.5v292.5h-68.1v-432h68.1l157.7,275.9v-275.9h68.3v432h-60.6l-165.3-292.5Z"/>
    <path class="st0" d="M3544,2196h-68.5v-371.4h-98.9v-60.6h267.9v60.6h-100.5v371.4Z"/>
    <path class="st0" d="M3709.3,1764h254.3v68.2h-186.2v106.1h125.7v69.7h-125.7v118.3h199.8v69.7h-267.9v-432Z"/>
    <path class="st0" d="M4118.8,2008v188h-68.1v-432h156.3c99,0,128.7,79.2,128.7,121.3s-5.9,79.2-67.1,108.2l76.1,202.5h-74.3l-69.7-188h-81.9ZM4204.6,1938.3c54.2,0,62.7-39.1,62.7-53s-14.1-53.1-59.5-53.1h-89.1v106.1h85.8Z"/>
  </g>
  <g>
    <path class="st0" d="M712.5,2916l-68.5-277.4-66.9,277.4h-60.9l-63.8-432h69.9l33.5,227.4,54.7-227.4h67l56.2,227.4,33.5-227.4h69.9l-63.9,432h-60.7Z"/>
    <path class="st0" d="M902,2484h254.3v68.2h-186.2v106.1h125.7v69.7h-125.7v118.3h199.8v69.7h-267.9v-432Z"/>
    <path class="st0" d="M1243.4,2484h69.1v432h-69.1v-432Z"/>
    <path class="st0" d="M1564.1,2476.5c69.2,0,108.2,26.2,137.5,95.5l-65.2,25.7c-18.2-37.9-36.3-51.5-69.7-51.5-94.9,0-89.5,144.5-89.5,154.6,0,16.3-3.7,153.1,80.4,153.1s75.8-27.3,75.8-66.7v-18.1h-78.8v-68.3h147v86.4c0,78.8-57.6,136.4-136.5,136.4s-157.6,12.9-157.6-223.6,1.8-223.5,156.6-223.5Z"/>
    <path class="st0" d="M2022.5,2728h-157.7v188h-68.1v-432h68.1v174.3h157.7v-174.3h68.3v432h-68.2v-188Z"/>
  </g>
  <g>
    <path class="st0" d="M2522.7,2814.4l65.2-24.2c18.2,40.9,51.5,63.7,92.4,63.7s66.7-27.3,66.7-63.7c0-57.8-66.7-66.7-122.8-89.4-25.8-10.6-83.4-36.4-83.4-107.6s57.6-116.6,134.9-116.6,101.6,34.9,122.8,87.9l-60.6,18.2c-6.8-17.1-31.5-37.9-63.7-37.9-61.6,0-66.8,32.9-66.8,43.7,0,40.4,34.8,48.4,91.5,66.1,57.7,18.1,117.9,44.7,117.9,137.3s-75.6,131.8-136.5,131.8-128.8-44-157.6-109.1Z"/>
    <path class="st0" d="M3018.8,2916h-68.5v-371.4h-98.9v-60.6h267.9v60.6h-100.5v371.4Z"/>
    <path class="st0" d="M3396.8,2794.7h-135.6l-42.7,121.3h-73.2l149.4-432h68.6l149.4,432h-73.2l-42.7-121.3ZM3285.5,2725h86.9l-42.7-121.2-44.2,121.2Z"/>
    <path class="st0" d="M3706,2916h-68.5v-371.4h-98.9v-60.6h267.9v60.6h-100.5v371.4Z"/>
    <path class="st0" d="M3871.3,2484h69.1v432h-69.1v-432Z"/>
    <path class="st0" d="M4342.4,2700c0,15.5,3.3,223.6-153.5,223.6s-153.5-208.1-153.5-223.6-3.3-223.5,153.5-223.5,153.5,208,153.5,223.5ZM4189.7,2853.9c46.5,0,84.3-44.1,84.3-153.9s-37.8-153.9-84.3-153.9-84.3,44.1-84.3,153.9,37.8,153.9,84.3,153.9Z"/>
    <path class="st0" d="M4505.6,2623.5v292.5h-68.1v-432h68.1l157.7,275.9v-275.9h68.3v432h-60.6l-165.3-292.5Z"/>
  </g>
  <g>
    <path class="st0" d="M1056.5,3316.4v247.6h-63.4v-360h63.4l166.3,237.5v-237.5h62.1v360h-55.8l-172.5-247.6Z"/>
    <path class="st0" d="M1378.5,3204h263.7v64.4h-197.7v66.9h107.7v65.7h-107.7v98.5h204.1v64.4h-270v-360Z"/>
    <path class="st0" d="M1855,3436.4l-79.9,127.6h-76.1l118-189.5-107.8-170.5h77.4l68.5,109.9,68.5-109.9h77.4l-106.6,170.5,118,189.5h-76.1l-81.2-127.6Z"/>
    <path class="st0" d="M2218.5,3564h-63.1v-296.8h-103.5v-63.2h270v63.2h-103.5v296.8Z"/>
  </g>
  <g>
    <path class="st0" d="M2908,3409.9l65.7,154.1h-72l-58.1-141.5h-97.3v141.5h-64.4v-360h170.2c74.4,0,114,58.8,114,109.9s-21.5,75.8-58.1,96ZM2746.4,3268.4v89.6h103.7c31.5,0,51.7-18.1,51.7-44.2s-20.2-45.4-51.8-45.4h-103.6Z"/>
    <path class="st0" d="M3045.7,3204h64.8v360h-64.8v-360Z"/>
    <path class="st0" d="M3485.1,3431.3c0,77.1-63.2,139-142.7,139s-149-93.5-149-186.9,59.4-185.6,149-185.6,108.6,34.1,133.9,89.7l-65.6,22.7c-13.9-30.3-36.6-48-68.2-48-50.5,0-84.6,50.5-84.6,121.3s17.6,122.5,84.6,122.5,66.9-24,75.8-56.9h-59.4v-64.3h126.3v46.7Z"/>
    <path class="st0" d="M3795,3407.4h-162.4v156.6h-64.7v-360h64.7v139h162.4v-139h64.7v360h-64.7v-156.6Z"/>
    <path class="st0" d="M4087.5,3564h-63.1v-296.8h-103.5v-63.2h270v63.2h-103.5v296.8Z"/>
  </g>
</svg>