<?xml version="1.0" encoding="UTF-8"?>
<svg id="For_Sheets" xmlns="http://www.w3.org/2000/svg" version="1.1" viewBox="0 0 3024 3024">
  <!-- Generator: Adobe Illustrator 29.1.0, SVG Export Plug-In . SVG Version: 2.1.0 Build 142)  -->
  <defs>
    <style>
      .Grid_x0020_FILL_x0020_2 {
        fill: #231f20;
      }

      .st0 {
        fill: #bf311a;
        fill-rule: evenodd;
      }

      .st1 {
        fill: #fff;
      }
    </style>
  </defs>
  <g>
    <path class="st1" d="M162,3024.1c-43.1,0-83.8-16.9-114.5-47.6S-.1,2905.1-.1,2862V162C-.1,118.9,16.8,78.2,47.5,47.5S118.9-.1,162-.1h2700c43.1,0,83.8,16.9,114.5,47.6s47.6,71.4,47.6,114.5v2700c0,43.1-16.9,83.8-47.6,114.5s-71.4,47.6-114.5,47.6H162Z"/>
    <path class="Grid_x0020_FILL_x0020_2" d="M2862,0c89.1,0,162,72.9,162,162v2700c0,89.1-72.9,162-162,162H162c-89.1,0-162-72.9-162-162V162C0,72.9,72.9,0,162,0h2700M2862-.2H162c-21.8,0-43,4.3-63,12.8-19.3,8.2-36.7,19.9-51.6,34.9-14.9,14.9-26.7,32.3-34.9,51.6C4.1,119-.2,140.2-.2,162v2700c0,21.8,4.3,43,12.8,63,8.2,19.3,19.9,36.7,34.9,51.6,14.9,14.9,32.3,26.7,51.6,34.9,20,8.5,41.2,12.8,63,12.8h2700c21.8,0,43-4.3,63-12.8,19.3-8.2,36.7-19.9,51.6-34.9,14.9-14.9,26.7-32.3,34.9-51.6,8.5-20,12.8-41.2,12.8-63V162c0-21.8-4.3-43-12.8-63-8.2-19.3-19.9-36.7-34.9-51.6-14.9-14.9-32.3-26.7-51.6-34.9-20-8.5-41.2-12.8-63-12.8h0Z"/>
  </g>
  <path class="Grid_x0020_FILL_x0020_2" d="M162,2979c-31.1,0-60.4-12.2-82.6-34.4-22.2-22.2-34.4-51.5-34.4-82.6V162c0-31.1,12.2-60.4,34.4-82.6,22.2-22.2,51.5-34.4,82.6-34.4h2700c31.1,0,60.4,12.2,82.6,34.4,22.2,22.2,34.4,51.5,34.4,82.6v2700c0,31.1-12.2,60.4-34.4,82.6-22.2,22.2-51.5,34.4-82.6,34.4H162Z"/>
  <path class="st1" d="M162,2916c-14.5,0-27.6-5.5-38-16-10.4-10.4-16-23.6-16-38V162c0-14.5,5.5-27.6,16-38,10.4-10.4,23.6-16,38-16h2700c14.5,0,27.6,5.5,38,16,10.4,10.4,16,23.6,16,38v2700c0,14.5-5.5,27.6-16,38s-23.6,16-38,16H162Z"/>
  <g>
    <path class="Grid_x0020_FILL_x0020_2" d="M1065.3,1962.3h43.3c23.1,0,43.2,13.9,52.2,33.8,9-19.9,29.1-33.8,52.2-33.8h43.3c31.5,0,57.3,25.8,57.3,57.3v191c0,31.5-25.8,57.3-57.3,57.3h-43.3c-23.1,0-43.2-13.9-52.2-33.8-9,19.9-29.1,33.8-52.2,33.8h-43.3c-31.5,0-57.3-25.8-57.3-57.3v-191c0-31.5,25.8-57.3,57.3-57.3Z"/>
    <path class="Grid_x0020_FILL_x0020_2" d="M1767.6,1962.3h43.3c23.1,0,43.2,13.9,52.2,33.8,9-19.9,29.1-33.8,52.2-33.8h43.3c31.5,0,57.3,25.8,57.3,57.3v191c0,31.5-25.8,57.3-57.3,57.3h-43.3c-23.1,0-43.2-13.9-52.2-33.8-9,19.9-29.1,33.8-52.2,33.8h-43.3c-31.5,0-57.3-25.8-57.3-57.3v-191c0-31.5,25.8-57.3,57.3-57.3Z"/>
    <rect class="Grid_x0020_FILL_x0020_2" x="1008" y="756" width="1008" height="1164.2"/>
  </g>
  <path class="st0" d="M1512,252c-695.9,0-1260,564.1-1260,1260s564.1,1260,1260,1260,1260-564.1,1260-1260S2207.9,252,1512,252ZM2520,1512c0,236.9-81.7,454.7-218.5,626.8L885.2,722.5c172.1-136.8,389.9-218.5,626.8-218.5,556.7,0,1008,451.3,1008,1008ZM504,1512c0-229,76.3-440.1,205-609.3l1412.4,1412.4c-169.2,128.6-380.4,205-609.3,205-556.7,0-1008-451.3-1008-1008Z"/>
</svg>