<?xml version="1.0" encoding="UTF-8"?>
<svg id="For_Sheets" xmlns="http://www.w3.org/2000/svg" version="1.1" viewBox="0 0 1728 1728">
  <!-- Generator: Adobe Illustrator 29.1.0, SVG Export Plug-In . SVG Version: 2.1.0 Build 142)  -->
  <defs>
    <style>
      .st0 {
        fill: #231f20;
      }

      .st1 {
        fill: #006f53;
      }

      .st2 {
        fill: #fff;
      }
    </style>
  </defs>
  <g>
    <rect class="st2" x="-.1" y="-.1" width="1728.2" height="1728.2" rx="108.1" ry="108.1"/>
    <path class="st0" d="M1620,0c59.4,0,108,48.6,108,108v1512c0,59.4-48.6,108-108,108H108c-59.4,0-108-48.6-108-108V108C0,48.6,48.6,0,108,0h1512M1620-.2H108C79.2-.2,52.1,11,31.5,31.5,11,52.1-.2,79.2-.2,108v1512c0,28.8,11.3,55.9,31.8,76.5,20.5,20.5,47.7,31.8,76.5,31.8h1512c28.8,0,55.9-11.3,76.5-31.8,20.5-20.5,31.8-47.7,31.8-76.5V108c0-28.8-11.3-55.9-31.8-76.5-20.5-20.5-47.7-31.8-76.5-31.8h0Z"/>
  </g>
  <rect class="st0" x="27" y="27" width="1674" height="1674" rx="81" ry="81"/>
  <rect class="st2" x="72" y="72" width="1584" height="1584" rx="36" ry="36"/>
  <circle class="st1" cx="864" cy="864" r="720"/>
  <circle class="st2" cx="864" cy="864" r="576"/>
  <g>
    <path class="st0" d="M695.7,1188v-293.3h-177v293.3h-93v-648h93v263.7h177v-263.7h93v648h-93Z"/>
    <path class="st0" d="M1209,1188v-363.8l-120.7,363.8-120.7-363.8v363.8h-93.3v-648h93.3l120.7,363.8,120.7-363.8h93.3v648h-93.3Z"/>
  </g>
</svg>