<?xml version="1.0" encoding="UTF-8" standalone="no"?>
<!-- Created with Inkscape (http://www.inkscape.org/) -->

<svg
   version="1.1"
   id="svg1"
   width="4032.6667"
   height="4032.6667"
   viewBox="0 0 4032.6667 4032.6667"
   sodipodi:docname="tmp9n9z9w6l.pdf"
   xmlns:inkscape="http://www.inkscape.org/namespaces/inkscape"
   xmlns:sodipodi="http://sodipodi.sourceforge.net/DTD/sodipodi-0.dtd"
   xmlns="http://www.w3.org/2000/svg"
   xmlns:svg="http://www.w3.org/2000/svg">
  <defs
     id="defs1" />
  <sodipodi:namedview
     id="namedview1"
     pagecolor="#ffffff"
     bordercolor="#000000"
     borderopacity="0.25"
     inkscape:showpageshadow="2"
     inkscape:pageopacity="0.0"
     inkscape:pagecheckerboard="0"
     inkscape:deskcolor="#d1d1d1">
    <inkscape:page
       x="0"
       y="0"
       inkscape:label="1"
       id="page1"
       width="4032.6667"
       height="4032.6667"
       margin="0"
       bleed="0" />
  </sodipodi:namedview>
  <g
     id="g1"
     inkscape:groupmode="layer"
     inkscape:label="1">
    <g
       id="group-R5">
      <path
         id="path2"
         d="M 1622.5,1.20313 C 1191.24,1.20313 784.602,170.402 477.488,477.5 170.383,784.602 1.25,1191.2 1.25,1622.5 v 27000 c 0,431.3 169.133,837.9 476.238,1145 307.114,307.1 713.752,476.3 1145.012,476.3 h 27000 c 431.3,0 837.9,-169.2 1145,-476.3 307.1,-307.1 476.3,-713.7 476.3,-1145 v -27000 c 0,-431.3 -169.2,-837.898 -476.3,-1145 C 29460.4,170.402 29053.8,1.20313 28622.5,1.20313 h -27000"
         style="fill:#ffffff;fill-opacity:1;fill-rule:nonzero;stroke:none"
         transform="matrix(0.13333333,0,0,-0.13333333,0,4032.6667)" />
      <path
         id="path3"
         d="m 28622.5,30245 h -27000 c -218.07,0 -430.03,-43.1 -629.992,-128 -193.035,-82 -366.61,-199.3 -515.899,-348.6 C 327.316,29619.1 210.035,29445.5 128.027,29252.5 43.0742,29052.5 0,28840.6 0,28622.5 v -27000 c 0,-218.1 43.0742,-430 128.027,-630 C 210.035,799.5 327.316,625.902 476.609,476.602 625.898,327.301 799.473,210 992.508,128 1192.47,43.1016 1404.43,0 1622.5,0 h 27000 c 218.1,0 430,43.1016 630,128 193,82 366.6,199.301 515.9,348.602 149.3,149.3 266.6,322.898 348.6,515.898 84.9,200 128,411.9 128,630 v 27000 c 0,218.1 -43.1,430 -128,630 -82,193 -199.3,366.6 -348.6,515.9 -149.3,149.3 -322.9,266.6 -515.9,348.6 -200,84.9 -411.9,128 -630,128 z m 0,-2.5 c 891,0 1620,-729 1620,-1620 v -27000 c 0,-891 -729,-1620 -1620,-1620 h -27000 c -891,0 -1620,729 -1620,1620 v 27000 c 0,891 729,1620 1620,1620 h 27000"
         style="fill:#231f20;fill-opacity:1;fill-rule:nonzero;stroke:none"
         transform="matrix(0.13333333,0,0,-0.13333333,0,4032.6667)" />
      <path
         id="path4"
         d="m 1622.5,452.5 c -310.73,0 -604.05,122.199 -825.922,344.102 C 574.695,1018.5 452.5,1311.8 452.5,1622.5 v 27000 c 0,310.7 122.195,604.1 344.078,825.9 221.872,221.9 515.192,344.1 825.922,344.1 h 27000 c 310.7,0 604,-122.2 825.9,-344.1 221.9,-221.8 344.1,-515.2 344.1,-825.9 v -27000 c 0,-310.7 -122.2,-604 -344.1,-825.898 C 29226.5,574.699 28933.2,452.5 28622.5,452.5 h -27000"
         style="fill:#231f20;fill-opacity:1;fill-rule:nonzero;stroke:none"
         transform="matrix(0.13333333,0,0,-0.13333333,0,4032.6667)" />
      <path
         id="path5"
         d="m 1622.5,1082.5 c -144.51,0 -276.06,55.2 -380.44,159.5 -104.38,104.4 -159.56,236 -159.56,380.5 v 27000 c 0,144.5 55.17,276.1 159.55,380.4 104.39,104.4 235.94,159.6 380.45,159.6 h 27000 c 144.5,0 276.1,-55.2 380.5,-159.6 104.3,-104.3 159.5,-235.9 159.5,-380.4 v -27000 c 0,-144.5 -55.2,-276.1 -159.6,-380.5 -104.3,-104.3 -235.9,-159.5 -380.4,-159.5 h -27000"
         style="fill:#ffffff;fill-opacity:1;fill-rule:nonzero;stroke:none"
         transform="matrix(0.13333333,0,0,-0.13333333,0,4032.6667)" />
      <path
         id="path6"
         d="m 10655.6,10619.2 h 433.1 c 231.4,0 431.9,-138.9 522.2,-337.5 90.2,198.6 290.8,337.5 522.2,337.5 h 433 c 315.2,0 573.1,-257.9 573.1,-573.1 V 8135.6 c 0,-315.2 -257.9,-573.1 -573.1,-573.1 h -433 c -231.4,0 -432,139 -522.2,337.6 -90.3,-198.6 -290.8,-337.6 -522.2,-337.6 h -433.1 c -315.2,0 -573.1,257.9 -573.1,573.1 v 1910.5 c 0,315.2 257.9,573.1 573.1,573.1"
         style="fill:#231f20;fill-opacity:1;fill-rule:nonzero;stroke:none"
         transform="matrix(0.13333333,0,0,-0.13333333,0,4032.6667)" />
      <path
         id="path7"
         d="m 17678.9,10619.2 h 433 c 231.4,0 431.9,-138.9 522.2,-337.5 90.3,198.6 290.8,337.5 522.2,337.5 h 433.1 c 315.2,0 573.1,-257.9 573.1,-573.1 V 8135.6 c 0,-315.2 -257.9,-573.1 -573.1,-573.1 h -433.1 c -231.4,0 -431.9,139 -522.2,337.6 -90.3,-198.6 -290.8,-337.6 -522.2,-337.6 h -433 c -315.2,0 -573.1,257.9 -573.1,573.1 v 1910.5 c 0,315.2 257.9,573.1 573.1,573.1"
         style="fill:#231f20;fill-opacity:1;fill-rule:nonzero;stroke:none"
         transform="matrix(0.13333333,0,0,-0.13333333,0,4032.6667)" />
      <path
         id="path8"
         d="m 10082.5,22682.5 h 10080 V 11040.9 h -10080 v 11641.6"
         style="fill:#231f20;fill-opacity:1;fill-rule:nonzero;stroke:none"
         transform="matrix(0.13333333,0,0,-0.13333333,0,4032.6667)" />
      <path
         id="path9"
         d="m 5042.5,15122.5 c 0,2289.6 763.49,4400.8 2049.58,6093.2 L 21215.7,7092.1 C 19523.3,5806 17412.1,5042.5 15122.5,5042.5 c -5567.03,0 -10080,4513 -10080,10080 z m 20160,0 c 0,-2369.1 -817.4,-4547.2 -2185.5,-6268 L 8854.54,23017 c 1720.76,1368.1 3898.86,2185.5 6267.96,2185.5 5567,0 10080,-4513 10080,-10080 z m -10080,12600 c -6958.79,0 -12600,-5641.2 -12600,-12600 0,-6958.8 5641.21,-12600 12600,-12600 6958.8,0 12600,5641.2 12600,12600 0,6958.8 -5641.2,12600 -12600,12600"
         style="fill:#bf2519;fill-opacity:1;fill-rule:evenodd;stroke:none"
         transform="matrix(0.13333333,0,0,-0.13333333,0,4032.6667)" />
    </g>
  </g>
</svg>
