<?xml version="1.0" encoding="UTF-8" standalone="no"?>
<!-- Created with Inkscape (http://www.inkscape.org/) -->

<svg
   version="1.1"
   id="svg1"
   width="3456.6667"
   height="3456.6667"
   viewBox="0 0 3456.6667 3456.6667"
   sodipodi:docname="tmpjtfds9vc.pdf"
   xmlns:inkscape="http://www.inkscape.org/namespaces/inkscape"
   xmlns:sodipodi="http://sodipodi.sourceforge.net/DTD/sodipodi-0.dtd"
   xmlns="http://www.w3.org/2000/svg"
   xmlns:svg="http://www.w3.org/2000/svg">
  <defs
     id="defs1" />
  <sodipodi:namedview
     id="namedview1"
     pagecolor="#ffffff"
     bordercolor="#000000"
     borderopacity="0.25"
     inkscape:showpageshadow="2"
     inkscape:pageopacity="0.0"
     inkscape:pagecheckerboard="0"
     inkscape:deskcolor="#d1d1d1">
    <inkscape:page
       x="0"
       y="0"
       inkscape:label="1"
       id="page1"
       width="3456.6667"
       height="3456.6667"
       margin="0"
       bleed="0" />
  </sodipodi:namedview>
  <g
     id="g1"
     inkscape:groupmode="layer"
     inkscape:label="1">
    <g
       id="group-R5">
      <path
         id="path2"
         d="M 1622.5,1.20313 C 1191.24,1.20313 784.602,170.402 477.488,477.5 170.383,784.602 1.25,1191.2 1.25,1622.5 v 22680 c 0,431.3 169.133,837.9 476.238,1145 307.114,307.1 713.752,476.3 1145.012,476.3 h 22680 c 431.3,0 837.9,-169.2 1145,-476.3 307.1,-307.1 476.3,-713.7 476.3,-1145 v -22680 c 0,-431.3 -169.2,-837.898 -476.3,-1145 C 25140.4,170.402 24733.8,1.20313 24302.5,1.20313 h -22680"
         style="fill:#ffffff;fill-opacity:1;fill-rule:nonzero;stroke:none"
         transform="matrix(0.13333333,0,0,-0.13333333,0,3456.6667)" />
      <path
         id="path3"
         d="m 24302.5,25925 h -22680 c -218.07,0 -430.03,-43.1 -629.992,-128 -193.031,-82 -366.61,-199.3 -515.903,-348.6 -149.292,-149.3 -266.57,-322.9 -348.578,-515.9 C 43.0742,24732.5 0,24520.6 0,24302.5 v -22680 c 0,-218.1 43.0742,-430 128.027,-630 C 210.035,799.5 327.313,625.902 476.605,476.602 625.898,327.301 799.477,210 992.508,128 1192.47,43.1016 1404.43,0 1622.5,0 h 22680 c 218.1,0 430,43.1016 630,128 193,82 366.6,199.301 515.9,348.602 149.3,149.3 266.6,322.898 348.6,515.898 84.9,200 128,411.9 128,630 v 22680 c 0,218.1 -43.1,430 -128,630 -82,193 -199.3,366.6 -348.6,515.9 -149.3,149.3 -322.9,266.6 -515.9,348.6 -200,84.9 -411.9,128 -630,128 z m 0,-2.5 c 891,0 1620,-729 1620,-1620 v -22680 c 0,-891 -729,-1620 -1620,-1620 h -22680 c -891,0 -1620,729 -1620,1620 v 22680 c 0,891 729,1620 1620,1620 h 22680"
         style="fill:#231f20;fill-opacity:1;fill-rule:nonzero;stroke:none"
         transform="matrix(0.13333333,0,0,-0.13333333,0,3456.6667)" />
      <path
         id="path4"
         d="m 1622.5,452.5 c -310.73,0 -604.05,122.199 -825.922,344.102 C 574.691,1018.5 452.5,1311.8 452.5,1622.5 v 22680 c 0,310.7 122.191,604.1 344.07,825.9 221.88,221.9 515.2,344.1 825.93,344.1 h 22680 c 310.7,0 604,-122.2 825.9,-344.1 221.9,-221.8 344.1,-515.2 344.1,-825.9 v -22680 c 0,-310.7 -122.2,-604 -344.1,-825.898 C 24906.5,574.699 24613.2,452.5 24302.5,452.5 h -22680"
         style="fill:#231f20;fill-opacity:1;fill-rule:nonzero;stroke:none"
         transform="matrix(0.13333333,0,0,-0.13333333,0,3456.6667)" />
      <path
         id="path5"
         d="m 1622.5,1082.5 c -144.51,0 -276.06,55.2 -380.44,159.5 -104.39,104.4 -159.56,236 -159.56,380.5 v 22680 c 0,144.5 55.17,276.1 159.55,380.4 104.38,104.4 235.93,159.6 380.45,159.6 h 22680 c 144.5,0 276.1,-55.2 380.5,-159.6 104.3,-104.3 159.5,-235.9 159.5,-380.4 v -22680 c 0,-144.5 -55.2,-276.1 -159.6,-380.5 -104.3,-104.3 -235.9,-159.5 -380.4,-159.5 h -22680"
         style="fill:#ffffff;fill-opacity:1;fill-rule:nonzero;stroke:none"
         transform="matrix(0.13333333,0,0,-0.13333333,0,3456.6667)" />
      <path
         id="path6"
         d="m 10338.7,8642.5 v 3910.8 H 7978.9 V 8642.5 H 6738.47 v 8640 H 7978.9 v -3516.6 h 2359.8 v 3516.6 H 11579 v -8640 h -1240.3"
         style="fill:#231f20;fill-opacity:1;fill-rule:nonzero;stroke:none"
         transform="matrix(0.13333333,0,0,-0.13333333,0,3456.6667)" />
      <path
         id="path7"
         d="M 17942,8642.5 V 13493 L 16333.2,8642.5 14724.4,13493 V 8642.5 h -1244.6 v 8640 h 1244.6 L 16333.2,12432 17942,17282.5 h 1244.5 v -8640 H 17942"
         style="fill:#231f20;fill-opacity:1;fill-rule:nonzero;stroke:none"
         transform="matrix(0.13333333,0,0,-0.13333333,0,3456.6667)" />
      <path
         id="path8"
         d="m 4322.5,12948.8 c 0,2005.2 683.19,3850.9 1829.38,5317 L 18279.5,6138.2 C 16813.3,4992 14967.7,4308.8 12962.5,4308.8 c -4771.74,0 -8640,3868.3 -8640,8640 z m 17280,0 c 0,-1988 -671.5,-3819 -1799.9,-5279 L 7683.48,19788.9 c 1459.96,1128.4 3291.02,1799.9 5279.02,1799.9 4771.7,0 8640,-3868.2 8640,-8640 z m -8640,10800 c -5964.67,0 -10800,-4835.3 -10800,-10800 0,-5964.7 4835.33,-10800 10800,-10800 5964.7,0 10800,4835.3 10800,10800 0,5964.7 -4835.3,10800 -10800,10800"
         style="fill:#bf2519;fill-opacity:1;fill-rule:evenodd;stroke:none"
         transform="matrix(0.13333333,0,0,-0.13333333,0,3456.6667)" />
    </g>
  </g>
</svg>
