<?xml version="1.0" encoding="UTF-8"?>
<svg id="For_Sheets" xmlns="http://www.w3.org/2000/svg" version="1.1" viewBox="0 0 1728 1296">
  <!-- Generator: Adobe Illustrator 29.1.0, SVG Export Plug-In . SVG Version: 2.1.0 Build 142)  -->
  <defs>
    <style>
      .st0 {
        fill: #231f20;
      }

      .st1 {
        fill: #fff;
      }
    </style>
  </defs>
  <g>
    <rect class="st1" x="-.1" y="-.1" width="1728.2" height="1296.2" rx="108.1" ry="108.1"/>
    <path class="st0" d="M1620,0c59.4,0,108,48.6,108,108v1080c0,59.4-48.6,108-108,108H108c-59.4,0-108-48.6-108-108V108C0,48.6,48.6,0,108,0h1512M1620-.2H108C79.2-.2,52.1,11,31.5,31.5,11,52.1-.2,79.2-.2,108v1080c0,28.8,11.3,55.9,31.8,76.5,20.5,20.5,47.7,31.8,76.5,31.8h1512c28.8,0,55.9-11.3,76.5-31.8,20.5-20.5,31.8-47.7,31.8-76.5V108c0-28.8-11.3-55.9-31.8-76.5-20.5-20.5-47.7-31.8-76.5-31.8h0Z"/>
  </g>
  <rect class="st0" x="243" y="-189" width="1242" height="1674" rx="81" ry="81" transform="translate(1512 -216) rotate(90)"/>
  <rect class="st1" x="288" y="-144" width="1152" height="1584" rx="36" ry="36" transform="translate(1512 -216) rotate(90)"/>
  <g>
    <path class="st0" d="M288.7,576h-57.1v-309.5h-82.4v-50.5h223.3v50.5h-83.7v309.5Z"/>
    <path class="st0" d="M472.5,419.3v156.7h-56.8V216h130.2c82.5,0,107.3,66,107.3,101.1s-4.9,66-55.9,90.1l63.4,168.7h-61.9l-58.1-156.7h-68.3ZM544,361.3c45.2,0,52.3-32.6,52.3-44.2s-11.7-44.2-49.5-44.2h-74.2v88.4h71.5Z"/>
    <path class="st0" d="M709.7,447.2v-231.2h56.8v231.2c0,46.8,26.5,77,65.7,77s65.7-30.3,65.7-77v-231.2h56.9v231.2c0,113.8-87.3,135.1-122.5,135.1s-122.5-18.9-122.5-135.1Z"/>
    <path class="st0" d="M1018.1,395.4c0-50.6,10.2-185.6,132.6-185.6s87.7,21.2,112.5,73.3l-53.1,22.7c-18.4-26.5-27.6-37.9-59.4-37.9-75.3,0-74.5,105-74.5,127.6s-1.4,128.9,77,128.9,43.3-16.6,55.6-41.7l54.3,20.2c-20.2,50.1-54.3,79.5-108.7,79.5-129.5,0-136.4-143.1-136.4-186.9Z"/>
    <path class="st0" d="M1421.6,405.5l-38,46.8v123.7h-57V216h57v142.7l114.1-142.7h73.5l-111.5,140.2,119.1,219.8h-65.9l-91.3-170.5Z"/>
  </g>
  <g>
    <path class="st0" d="M228,923.3v156.7h-56.8v-360h130.2c82.5,0,107.3,66,107.3,101.1s-4.9,66-55.9,90.1l63.4,168.7h-61.9l-58.1-156.7h-68.3ZM299.5,865.3c45.2,0,52.3-32.6,52.3-44.2s-11.7-44.2-49.5-44.2h-74.2v88.4h71.5Z"/>
    <path class="st0" d="M715.3,900c0,12.9,2.7,186.3-127.9,186.3s-127.9-173.4-127.9-186.3-2.7-186.3,127.9-186.3,127.9,173.3,127.9,186.3ZM588,1028.2c38.8,0,70.3-36.8,70.3-128.2s-31.5-128.2-70.3-128.2-70.3,36.7-70.3,128.2,31.5,128.2,70.3,128.2Z"/>
    <path class="st0" d="M778.7,951.2v-231.2h56.8v231.2c0,46.8,26.5,77,65.7,77s65.7-30.3,65.7-77v-231.2h56.9v231.2c0,113.8-87.3,135.1-122.5,135.1s-122.5-18.9-122.5-135.1Z"/>
    <path class="st0" d="M1206.5,1080h-57.1v-309.5h-82.4v-50.5h223.3v50.5h-83.7v309.5Z"/>
    <path class="st0" d="M1333.5,720h211.9v56.8h-155.2v88.4h104.7v58.1h-104.7v98.5h166.5v58.1h-223.3v-360Z"/>
  </g>
</svg>