<?xml version="1.0" encoding="UTF-8"?>
<svg id="For_Sheets" xmlns="http://www.w3.org/2000/svg" version="1.1" viewBox="0 0 2592 2592">
  <!-- Generator: Adobe Illustrator 29.1.0, SVG Export Plug-In . SVG Version: 2.1.0 Build 142)  -->
  <defs>
    <style>
      .st0 {
        fill: #231f20;
      }

      .st1 {
        fill: #006f53;
      }

      .st2 {
        fill: #fff;
      }
    </style>
  </defs>
  <g>
    <path class="st2" d="M162,2592.1c-43.1,0-83.8-16.9-114.5-47.6S-.1,2473.1-.1,2430V162C-.1,118.9,16.8,78.2,47.5,47.5S118.9-.1,162-.1h2268c43.1,0,83.8,16.9,114.5,47.6s47.6,71.4,47.6,114.5v2268c0,43.1-16.9,83.8-47.6,114.5s-71.4,47.6-114.5,47.6H162Z"/>
    <path class="st0" d="M2430,0c89.1,0,162,72.9,162,162v2268c0,89.1-72.9,162-162,162H162c-89.1,0-162-72.9-162-162V162C0,72.9,72.9,0,162,0h2268M2430-.2H162c-21.8,0-43,4.3-63,12.8-19.3,8.2-36.7,19.9-51.6,34.9-14.9,14.9-26.7,32.3-34.9,51.6C4.1,119-.2,140.2-.2,162v2268c0,21.8,4.3,43,12.8,63,8.2,19.3,19.9,36.7,34.9,51.6,14.9,14.9,32.3,26.7,51.6,34.9,20,8.5,41.2,12.8,63,12.8h2268c21.8,0,43-4.3,63-12.8,19.3-8.2,36.7-19.9,51.6-34.9,14.9-14.9,26.7-32.3,34.9-51.6,8.5-20,12.8-41.2,12.8-63V162c0-21.8-4.3-43-12.8-63-8.2-19.3-19.9-36.7-34.9-51.6-14.9-14.9-32.3-26.7-51.6-34.9-20-8.5-41.2-12.8-63-12.8h0Z"/>
  </g>
  <path class="st0" d="M162,2547c-31.1,0-60.4-12.2-82.6-34.4s-34.4-51.5-34.4-82.6V162c0-31.1,12.2-60.4,34.4-82.6s51.5-34.4,82.6-34.4h2268c31.1,0,60.4,12.2,82.6,34.4s34.4,51.5,34.4,82.6v2268c0,31.1-12.2,60.4-34.4,82.6-22.2,22.2-51.5,34.4-82.6,34.4H162Z"/>
  <path class="st2" d="M162,2484c-14.5,0-27.6-5.5-38-16-10.4-10.4-16-23.6-16-38V162c0-14.5,5.5-27.6,16-38s23.6-16,38-16h2268c14.5,0,27.6,5.5,38,16,10.4,10.4,16,23.6,16,38v2268c0,14.5-5.5,27.6-16,38-10.4,10.4-23.6,16-38,16H162Z"/>
  <circle class="st1" cx="1296" cy="1297.4" r="1080"/>
  <circle class="st2" cx="1296" cy="1297.4" r="864"/>
  <g>
    <path class="st0" d="M1033.6,1728v-391.1h-236v391.1h-124v-864h124v351.7h236v-351.7h124v864h-124Z"/>
    <path class="st0" d="M1793.9,1728v-485.1l-160.9,485.1-160.9-485.1v485.1h-124.5v-864h124.5l160.9,485.1,160.9-485.1h124.5v864h-124.5Z"/>
  </g>
</svg>