<?xml version="1.0" encoding="UTF-8" standalone="no"?>
<!-- Created with Inkscape (http://www.inkscape.org/) -->

<svg
   version="1.1"
   id="svg1"
   width="1728.6667"
   height="864.66669"
   viewBox="0 0 1728.6667 864.66669"
   sodipodi:docname="tmpgoyf9yd3.pdf"
   xmlns:inkscape="http://www.inkscape.org/namespaces/inkscape"
   xmlns:sodipodi="http://sodipodi.sourceforge.net/DTD/sodipodi-0.dtd"
   xmlns="http://www.w3.org/2000/svg"
   xmlns:svg="http://www.w3.org/2000/svg">
  <defs
     id="defs1" />
  <sodipodi:namedview
     id="namedview1"
     pagecolor="#ffffff"
     bordercolor="#000000"
     borderopacity="0.25"
     inkscape:showpageshadow="2"
     inkscape:pageopacity="0.0"
     inkscape:pagecheckerboard="0"
     inkscape:deskcolor="#d1d1d1">
    <inkscape:page
       x="0"
       y="0"
       inkscape:label="1"
       id="page1"
       width="1728.6667"
       height="864.66669"
       margin="0"
       bleed="0" />
  </sodipodi:namedview>
  <g
     id="g1"
     inkscape:groupmode="layer"
     inkscape:label="1">
    <g
       id="group-R5">
      <path
         id="path2"
         d="M 1082.5,1.25 C 486.301,1.25 1.25,486.301 1.25,1082.5 v 4320 c 0,596.2 485.051,1081.25 1081.25,1081.25 h 10800 c 596.2,0 1081.3,-485.05 1081.3,-1081.25 v -4320 C 12963.8,486.301 12478.7,1.25 11882.5,1.25 h -10800"
         style="fill:#ffffff;fill-opacity:1;fill-rule:nonzero;stroke:none"
         transform="matrix(0.13333333,0,0,-0.13333333,0,864.66667)" />
      <path
         id="path3"
         d="M 11882.5,6485 H 1082.5 C 794.547,6485 523.035,6372.07 317.98,6167.02 112.93,5961.96 0,5690.45 0,5402.5 v -4320 C 0,794.551 112.93,523.039 317.98,317.98 523.035,112.93 794.547,0 1082.5,0 h 10800 c 288,0 559.5,112.93 764.5,317.98 205.1,205.059 318,476.571 318,764.52 v 4320 c 0,287.95 -112.9,559.46 -318,764.52 -205,205.05 -476.5,317.98 -764.5,317.98 z m 0,-2.5 c 594,0 1080,-486 1080,-1080 v -4320 c 0,-594 -486,-1080 -1080,-1080 h -10800 c -594,0 -1080,486 -1080,1080 v 4320 c 0,594 486,1080 1080,1080 h 10800"
         style="fill:#231f20;fill-opacity:1;fill-rule:nonzero;stroke:none"
         transform="matrix(0.13333333,0,0,-0.13333333,0,864.66667)" />
      <path
         id="path4"
         d="m 1082.5,272.5 c -446.637,0 -810,363.359 -810,810 v 4320 c 0,446.64 363.363,810 810,810 h 10800 c 446.6,0 810,-363.36 810,-810 v -4320 c 0,-446.641 -363.4,-810 -810,-810 h -10800"
         style="fill:#231f20;fill-opacity:1;fill-rule:nonzero;stroke:none"
         transform="matrix(0.13333333,0,0,-0.13333333,0,864.66667)" />
      <path
         id="path5"
         d="m 1082.5,542.5 c -297.758,0 -540,242.25 -540,540 v 4320 c 0,297.76 242.242,540 540,540 h 10800 c 297.8,0 540,-242.24 540,-540 v -4320 c 0,-297.75 -242.2,-540 -540,-540 h -10800"
         style="fill:#ffffff;fill-opacity:1;fill-rule:nonzero;stroke:none"
         transform="matrix(0.13333333,0,0,-0.13333333,0,864.66667)" />
      <path
         id="path6"
         d="m 3254.96,2972.5 h 273.05 V 1805.39 h 966.02 V 1532.51 H 3254.96 V 2972.5"
         style="fill:#231f20;fill-opacity:1;fill-rule:nonzero;stroke:none"
         transform="matrix(0.13333333,0,0,-0.13333333,0,864.66667)" />
      <path
         id="path7"
         d="m 5452.2,2720.14 c -264.04,0 -482.37,-202.31 -482.37,-459.89 0,-262.62 218.33,-475.02 482.37,-475.02 276.83,0 482.38,226.26 482.38,469.8 0,257.76 -217.43,465.11 -482.38,465.11 z m -756.5,-465.11 c 0,419.39 330.1,742.49 756.5,742.49 401.03,0 756.51,-338.4 756.51,-737.64 0,-414.17 -344.14,-752.57 -756.51,-752.57 -411.27,0 -756.5,337.5 -756.5,747.72"
         style="fill:#231f20;fill-opacity:1;fill-rule:nonzero;stroke:none"
         transform="matrix(0.13333333,0,0,-0.13333333,0,864.66667)" />
      <path
         id="path8"
         d="m 7253.31,2720.14 c -264.05,0 -482.38,-202.31 -482.38,-459.89 0,-262.62 218.33,-475.02 482.38,-475.02 276.83,0 482.38,226.26 482.38,469.8 0,257.76 -217.43,465.11 -482.38,465.11 z m -756.5,-465.11 c 0,419.39 330.1,742.49 756.5,742.49 401.02,0 756.5,-338.4 756.5,-737.64 0,-414.17 -344.14,-752.57 -756.5,-752.57 -411.28,0 -756.5,337.5 -756.5,747.72"
         style="fill:#231f20;fill-opacity:1;fill-rule:nonzero;stroke:none"
         transform="matrix(0.13333333,0,0,-0.13333333,0,864.66667)" />
      <path
         id="path9"
         d="M 8953.8,2270.14 8629.46,1936.79 V 1532.51 H 8355.51 V 2972.5 h 273.95 v -636.65 l 603.51,636.65 h 370.24 l -456.46,-495 563.01,-944.99 h -314.44 l -441.52,737.63"
         style="fill:#231f20;fill-opacity:1;fill-rule:nonzero;stroke:none"
         transform="matrix(0.13333333,0,0,-0.13333333,0,864.66667)" />
      <path
         id="path10"
         d="M 10267.4,3923.12 H 2697.57 v 708.75 h 7569.83 v -708.75"
         style="fill:#231f20;fill-opacity:1;fill-rule:nonzero;stroke:none"
         transform="matrix(0.13333333,0,0,-0.13333333,0,864.66667)" />
      <path
         id="path11"
         d="m 9991.61,5071.21 c -3.21,11.03 -4.73,22.14 -4.74,33.08 0,65.24 52.93,118.13 118.13,118.13 23,0.02 46.3,-6.67 66.7,-20.65 l 1350.8,-924.35 -1350.8,-924.36 c -20.4,-13.98 -43.7,-20.66 -66.7,-20.64 -65.2,0 -118.13,52.89 -118.13,118.13 0.01,10.93 1.53,22.05 4.74,33.07 l 231.49,793.8 -231.49,793.79"
         style="fill:#231f20;fill-opacity:1;fill-rule:nonzero;stroke:none"
         transform="matrix(0.13333333,0,0,-0.13333333,0,864.66667)" />
      <path
         id="path12"
         d="m 2973.39,5071.21 c 3.22,11.03 4.73,22.14 4.74,33.08 0,65.24 -52.9,118.13 -118.14,118.13 -23.02,0.02 -46.28,-6.67 -66.71,-20.65 L 1442.5,4277.42 2793.28,3353.06 c 20.43,-13.98 43.69,-20.66 66.71,-20.64 65.24,0 118.14,52.89 118.14,118.13 -0.01,10.93 -1.52,22.05 -4.74,33.07 l -231.52,793.8 231.52,793.79"
         style="fill:#231f20;fill-opacity:1;fill-rule:nonzero;stroke:none"
         transform="matrix(0.13333333,0,0,-0.13333333,0,864.66667)" />
    </g>
  </g>
</svg>
