<?xml version="1.0" encoding="UTF-8"?>
<svg id="For_Sheets" xmlns="http://www.w3.org/2000/svg" version="1.1" viewBox="0 0 864 432">
  <!-- Generator: Adobe Illustrator 29.1.0, SVG Export Plug-In . SVG Version: 2.1.0 Build 142)  -->
  <defs>
    <style>
      .st0 {
        fill: #231f20;
      }

      .st1 {
        fill: #fff;
      }
    </style>
  </defs>
  <g>
    <rect class="st1" x="-.1" y="-.1" width="864.2" height="432.2" rx="108.1" ry="108.1"/>
    <path class="st0" d="M756,0C815.4,0,864,48.6,864,108v216c0,59.4-48.6,108-108,108H108c-59.4,0-108-48.6-108-108V108C0,48.6,48.6,0,108,0h648M756-.2H108C79.2-.2,52.1,11,31.5,31.5,11,52.1-.2,79.2-.2,108v216c0,28.8,11.3,55.9,31.8,76.5,20.5,20.5,47.7,31.8,76.5,31.8h648c28.8,0,55.9-11.3,76.5-31.8s31.8-47.7,31.8-76.5V108c0-28.8-11.3-55.9-31.8-76.5C811.9,11,784.8-.2,756-.2h0Z"/>
  </g>
  <rect class="st0" x="243" y="-189" width="378" height="810" rx="81" ry="81" transform="translate(648 -216) rotate(90)"/>
  <path class="st1" d="M108,378c-14.3,0-27.8-5.6-38.1-15.9-10.3-10.3-15.9-23.8-15.9-38.1V108c0-14.3,5.6-27.8,15.9-38.1s23.8-15.9,38.1-15.9h648c14.3,0,27.8,5.6,38.1,15.9,10.3,10.3,15.9,23.8,15.9,38.1v216c0,14.3-5.6,27.8-15.9,38.1-10.3,10.3-23.8,15.9-38.1,15.9H108Z"/>
  <g>
    <path class="st0" d="M90.5,144h84.8v22.7h-62.1v35.4h41.9v23.2h-41.9v39.4h66.6v23.2h-89.3v-144Z"/>
    <path class="st0" d="M243.2,240l-23.2,48h-25.8l35.9-74.3-33.4-69.7h25.8l20.7,42.9,20.7-42.9h25.8l-33.9,69.7,36.4,74.3h-25.8l-23.2-48Z"/>
    <path class="st0" d="M316.7,144h84.8v22.7h-62.1v35.4h41.9v23.2h-41.9v39.4h66.6v23.2h-89.3v-144Z"/>
    <path class="st0" d="M520.1,204.6l-33.4,83.4-33.4-83.4v83.4h-22.8v-144h22.8l33.4,80.8,33.4-80.8h22.8v144h-22.8v-83.4Z"/>
    <path class="st0" d="M627,225.3h-26.8v62.7h-22.7v-144h54.4c33.9,0,43.6,27.5,43.6,40.4s-4.9,40.9-48.5,40.9ZM600.2,202.1h32.1c18.1,0,20-13,20-17.7,0-6.7-5.1-17.7-19.2-17.7h-32.8v35.4Z"/>
    <path class="st0" d="M740,288h-22.8v-123.8h-33v-20.2h89.3v20.2h-33.5v123.8Z"/>
  </g>
</svg>