<?xml version="1.0" encoding="UTF-8" standalone="no"?>
<!-- Created with Inkscape (http://www.inkscape.org/) -->

<svg
   version="1.1"
   id="svg1"
   width="1152.6667"
   height="576.66669"
   viewBox="0 0 1152.6667 576.66669"
   sodipodi:docname="tmp3rgio6q8.pdf"
   xmlns:inkscape="http://www.inkscape.org/namespaces/inkscape"
   xmlns:sodipodi="http://sodipodi.sourceforge.net/DTD/sodipodi-0.dtd"
   xmlns="http://www.w3.org/2000/svg"
   xmlns:svg="http://www.w3.org/2000/svg">
  <defs
     id="defs1" />
  <sodipodi:namedview
     id="namedview1"
     pagecolor="#ffffff"
     bordercolor="#000000"
     borderopacity="0.25"
     inkscape:showpageshadow="2"
     inkscape:pageopacity="0.0"
     inkscape:pagecheckerboard="0"
     inkscape:deskcolor="#d1d1d1">
    <inkscape:page
       x="0"
       y="0"
       inkscape:label="1"
       id="page1"
       width="1152.6667"
       height="576.66669"
       margin="0"
       bleed="0" />
  </sodipodi:namedview>
  <g
     id="g1"
     inkscape:groupmode="layer"
     inkscape:label="1">
    <g
       id="group-R5">
      <path
         id="path2"
         d="M 1082.5,1.25 C 486.301,1.25 1.25,486.301 1.25,1082.5 v 2160 c 0,596.2 485.051,1081.25 1081.25,1081.25 h 6480 c 596.2,0 1081.25,-485.05 1081.25,-1081.25 v -2160 C 8643.75,486.301 8158.7,1.25 7562.5,1.25 h -6480"
         style="fill:#ffffff;fill-opacity:1;fill-rule:nonzero;stroke:none"
         transform="matrix(0.13333333,0,0,-0.13333333,0,576.66667)" />
      <path
         id="path3"
         d="m 7562.5,4325 h -6480 C 794.547,4325 523.035,4212.07 317.98,4007.02 112.93,3801.96 0,3530.45 0,3242.5 v -2160 C 0,794.551 112.93,523.039 317.98,317.98 523.035,112.93 794.547,0 1082.5,0 h 6480 c 287.95,0 559.46,112.93 764.52,317.98 C 8532.07,523.039 8645,794.551 8645,1082.5 v 2160 c 0,287.95 -112.93,559.46 -317.98,764.52 C 8121.96,4212.07 7850.45,4325 7562.5,4325 Z m 0,-2.5 c 594,0 1080,-486 1080,-1080 v -2160 c 0,-594 -486,-1080 -1080,-1080 h -6480 c -594,0 -1080,486 -1080,1080 v 2160 c 0,594 486,1080 1080,1080 h 6480"
         style="fill:#231f20;fill-opacity:1;fill-rule:nonzero;stroke:none"
         transform="matrix(0.13333333,0,0,-0.13333333,0,576.66667)" />
      <path
         id="path4"
         d="m 1082.5,272.5 c -446.637,0 -810,363.359 -810,810 v 2160 c 0,446.63 363.363,810 810,810 h 6480 c 446.64,0 810,-363.37 810,-810 v -2160 c 0,-446.641 -363.36,-810 -810,-810 h -6480"
         style="fill:#231f20;fill-opacity:1;fill-rule:nonzero;stroke:none"
         transform="matrix(0.13333333,0,0,-0.13333333,0,576.66667)" />
      <path
         id="path5"
         d="M 1082.5,542.5 C 939.453,542.5 804.18,599 701.586,701.578 599,804.18 542.5,939.449 542.5,1082.5 v 2160 c 0,143.04 56.5,278.32 159.086,380.91 102.59,102.59 237.867,159.09 380.914,159.09 h 6480 c 143.05,0 278.32,-56.5 380.92,-159.09 102.59,-102.59 159.08,-237.87 159.08,-380.91 v -2160 c 0,-143.051 -56.49,-278.328 -159.08,-380.922 C 7840.82,599 7705.55,542.5 7562.5,542.5 h -6480"
         style="fill:#ffffff;fill-opacity:1;fill-rule:nonzero;stroke:none"
         transform="matrix(0.13333333,0,0,-0.13333333,0,576.66667)" />
      <path
         id="path6"
         d="M 907.539,2882.5 H 1755.34 V 2655.16 H 1134.7 v -353.7 h 418.86 V 2069.08 H 1134.7 v -394.2 h 666 V 1442.51 H 907.539 V 2882.5"
         style="fill:#231f20;fill-opacity:1;fill-rule:nonzero;stroke:none"
         transform="matrix(0.13333333,0,0,-0.13333333,0,576.66667)" />
      <path
         id="path7"
         d="m 2434.91,1922.56 -232.38,-480.05 h -257.76 l 358.74,742.67 -333.54,697.32 h 257.76 l 207.18,-429.48 207.18,429.48 h 257.77 l -338.59,-697.32 363.79,-742.67 H 2667.3 l -232.39,480.05"
         style="fill:#231f20;fill-opacity:1;fill-rule:nonzero;stroke:none"
         transform="matrix(0.13333333,0,0,-0.13333333,0,576.66667)" />
      <path
         id="path8"
         d="m 3169.92,2882.5 h 847.81 v -227.34 h -620.65 v -353.7 h 418.87 v -232.38 h -418.87 v -394.2 h 666.01 V 1442.51 H 3169.92 V 2882.5"
         style="fill:#231f20;fill-opacity:1;fill-rule:nonzero;stroke:none"
         transform="matrix(0.13333333,0,0,-0.13333333,0,576.66667)" />
      <path
         id="path9"
         d="m 5204,2276.26 -333.9,-833.75 -334.27,833.75 V 1442.51 H 4307.95 V 2882.5 h 227.88 L 4870.1,2074.12 5204,2882.5 h 227.88 V 1442.51 H 5204 v 833.75"
         style="fill:#231f20;fill-opacity:1;fill-rule:nonzero;stroke:none"
         transform="matrix(0.13333333,0,0,-0.13333333,0,576.66667)" />
      <path
         id="path10"
         d="m 6004.71,2301.46 h 320.59 c 180.72,0 199.98,130.32 199.98,176.76 0,67.5 -50.76,176.94 -192.24,176.94 h -328.33 z m 268.21,-232.38 H 6004.71 V 1442.51 H 5777.55 V 2882.5 h 544.33 c 338.76,0 435.96,-275.4 435.96,-404.28 0,-89.46 -49.14,-409.14 -484.92,-409.14"
         style="fill:#231f20;fill-opacity:1;fill-rule:nonzero;stroke:none"
         transform="matrix(0.13333333,0,0,-0.13333333,0,576.66667)" />
      <path
         id="path11"
         d="m 7402.48,1442.51 h -228.42 v 1237.85 h -329.77 v 202.14 h 893.17 V 2680.36 H 7402.48 V 1442.51"
         style="fill:#231f20;fill-opacity:1;fill-rule:nonzero;stroke:none"
         transform="matrix(0.13333333,0,0,-0.13333333,0,576.66667)" />
    </g>
  </g>
</svg>
