<?xml version="1.0" encoding="UTF-8"?>
<svg id="For_Sheets" xmlns="http://www.w3.org/2000/svg" version="1.1" viewBox="0 0 1296 648">
  <!-- Generator: Adobe Illustrator 29.1.0, SVG Export Plug-In . SVG Version: 2.1.0 Build 142)  -->
  <defs>
    <style>
      .st0 {
        fill: #231f20;
      }

      .st1 {
        fill: #fff;
      }
    </style>
  </defs>
  <g>
    <rect class="st1" x="-.1" y="-.1" width="1296.2" height="648.2" rx="108.1" ry="108.1"/>
    <path class="st0" d="M1188,0c59.4,0,108,48.6,108,108v432c0,59.4-48.6,108-108,108H108c-59.4,0-108-48.6-108-108V108C0,48.6,48.6,0,108,0h1080M1188-.2H108C79.2-.2,52.1,11,31.5,31.5,11,52.1-.2,79.2-.2,108v432c0,28.8,11.3,55.9,31.8,76.5,20.5,20.5,47.7,31.8,76.5,31.8h1080c28.8,0,55.9-11.3,76.5-31.8,20.5-20.5,31.8-47.7,31.8-76.5V108c0-28.8-11.3-55.9-31.8-76.5-20.5-20.5-47.7-31.8-76.5-31.8h0Z"/>
  </g>
  <rect class="st0" x="351" y="-297" width="594" height="1242" rx="81" ry="81" transform="translate(972 -324) rotate(90)"/>
  <rect class="st1" x="378" y="-270" width="540" height="1188" rx="54" ry="54" transform="translate(972 -324) rotate(90)"/>
  <g>
    <path class="st0" d="M325.2,351h27.3v116.7h96.6v27.3h-123.9v-144Z"/>
    <path class="st0" d="M469.3,422.7c0-41.9,33-74.2,75.7-74.2s75.7,33.8,75.7,73.8-34.4,75.3-75.7,75.3-75.7-33.7-75.7-74.8ZM545,376.2c-26.4,0-48.2,20.2-48.2,46s21.8,47.5,48.2,47.5,48.2-22.6,48.2-47-21.7-46.5-48.2-46.5Z"/>
    <path class="st0" d="M649.4,422.7c0-41.9,33-74.2,75.7-74.2s75.7,33.8,75.7,73.8-34.4,75.3-75.7,75.3-75.7-33.7-75.7-74.8ZM725.1,376.2c-26.4,0-48.2,20.2-48.2,46s21.8,47.5,48.2,47.5,48.2-22.6,48.2-47-21.7-46.5-48.2-46.5Z"/>
    <path class="st0" d="M895.1,421.2l-32.4,33.3v40.4h-27.4v-144h27.4v63.7l60.4-63.7h37l-45.6,49.5,56.3,94.5h-31.4l-44.2-73.8Z"/>
  </g>
  <g>
    <rect class="st0" x="269.5" y="185.1" width="757" height="70.9"/>
    <path class="st0" d="M998.9,141.1c-.3-1.1-.5-2.2-.5-3.3,0-6.5,5.3-11.8,11.8-11.8,2.3,0,4.6.7,6.7,2.1l135.1,92.4-135.1,92.4c-2,1.4-4.4,2.1-6.7,2.1-6.5,0-11.8-5.3-11.8-11.8,0-1.1.2-2.2.5-3.3l23.2-79.4-23.2-79.4Z"/>
    <path class="st0" d="M297.1,141.1c.3-1.1.5-2.2.5-3.3,0-6.5-5.3-11.8-11.8-11.8-2.3,0-4.6.7-6.7,2.1l-135.1,92.4,135.1,92.4c2,1.4,4.4,2.1,6.7,2.1,6.5,0,11.8-5.3,11.8-11.8,0-1.1-.2-2.2-.5-3.3l-23.2-79.4,23.2-79.4Z"/>
  </g>
</svg>