<?xml version="1.0" encoding="UTF-8"?>
<svg id="For_Sheets" xmlns="http://www.w3.org/2000/svg" version="1.1" viewBox="0 0 1944 1296">
  <!-- Generator: Adobe Illustrator 29.1.0, SVG Export Plug-In . SVG Version: 2.1.0 Build 142)  -->
  <defs>
    <style>
      .st0 {
        fill: #fff;
      }
    </style>
  </defs>
  <g>
    <polygon class="st0" points="-.1 1296.1 -.1 647.9 647.9 647.9 647.9 -.1 1296.1 -.1 1296.1 647.9 1944.1 647.9 1944.1 1296.1 -.1 1296.1"/>
    <path d="M1296,0v648h648v648H0v-648h648V0h648M1296.2-.2h-648.5v648H-.2v648.5h1944.5v-648.5h-648V-.2h0Z"/>
  </g>
  <path d="M974.1,337.4v-62.5h15.4c25.1,0,39.1-13.9,39.1-38.9s-25-52.8-57.3-52.8-46.1,12.5-60,38.9l-58.7-22.2c20.9-50,65.6-80.5,117.3-80.5s121.5,54,121.5,120.9-5.6,40.3-22.4,65.3c29.3,26.4,37.7,47.2,37.7,86.2,0,80.6-55.5,137.5-136.9,137.5s-115.9-41.7-132.7-105.6l61.5-18.1c9.8,38.9,36.3,59.7,74,59.7s71.2-29.4,71.2-69.4-6.7-58.4-52.2-58.4h-17.6Z"/>
  <g>
    <path d="M379,1116h-45.7v-247.6h-65.9v-40.4h178.6v40.4h-67v247.6Z"/>
    <path d="M534.6,990.6v125.4h-45.4v-288h104.2c66,0,85.8,52.8,85.8,80.9s-4,52.8-44.7,72.1l50.8,135h-49.5l-46.5-125.4h-54.6ZM591.8,944.2c36.1,0,41.8-26.1,41.8-35.4s-9.4-35.4-39.6-35.4h-59.4v70.7h57.2Z"/>
    <path d="M875.9,1035.1h-90.4l-28.5,80.9h-48.8l99.6-288h45.8l99.6,288h-48.8l-28.5-80.9ZM801.8,988.7h57.9l-28.5-80.8-29.4,80.8Z"/>
    <path d="M990.7,971.5c0-40.5,8.1-148.5,106.1-148.5s70.2,17,90,58.6l-42.4,18.2c-14.7-21.2-22.1-30.3-47.5-30.3-60.3,0-59.6,84-59.6,102.1s-1.1,103.1,61.6,103.1,34.6-13.3,44.5-33.4l43.4,16.2c-16.2,40.1-43.4,63.6-86.9,63.6-103.6,0-109.1-114.5-109.1-149.5Z"/>
    <path d="M1326.1,979.6l-30.4,37.4v99h-45.6v-288h45.6v114.2l91.3-114.2h58.8l-89.2,112.2,95.3,175.8h-52.7l-73-136.4Z"/>
    <path d="M1480.6,1048.3l43.4-16.2c12.1,27.3,34.3,42.4,61.6,42.4s44.5-18.2,44.5-42.4c0-38.5-44.5-44.5-81.9-59.6-17.2-7.1-55.6-24.3-55.6-71.7s38.4-77.8,89.9-77.8,67.7,23.3,81.9,58.6l-40.4,12.1c-4.5-11.4-21-25.3-42.4-25.3-41.1,0-44.6,21.9-44.6,29.1,0,26.9,23.2,32.3,61,44.1,38.4,12.1,78.6,29.8,78.6,91.5s-50.4,87.8-91,87.8-85.9-29.3-105.1-72.8Z"/>
  </g>
</svg>