<?xml version="1.0" encoding="UTF-8" standalone="no"?>
<!-- Created with Inkscape (http://www.inkscape.org/) -->

<svg
   version="1.1"
   id="svg1"
   width="4608.6665"
   height="5760.6665"
   viewBox="0 0 4608.6665 5760.6665"
   sodipodi:docname="tmpjabv4mxu.pdf"
   xmlns:inkscape="http://www.inkscape.org/namespaces/inkscape"
   xmlns:sodipodi="http://sodipodi.sourceforge.net/DTD/sodipodi-0.dtd"
   xmlns="http://www.w3.org/2000/svg"
   xmlns:svg="http://www.w3.org/2000/svg">
  <defs
     id="defs1" />
  <sodipodi:namedview
     id="namedview1"
     pagecolor="#ffffff"
     bordercolor="#000000"
     borderopacity="0.25"
     inkscape:showpageshadow="2"
     inkscape:pageopacity="0.0"
     inkscape:pagecheckerboard="0"
     inkscape:deskcolor="#d1d1d1">
    <inkscape:page
       x="0"
       y="0"
       inkscape:label="1"
       id="page1"
       width="4608.6665"
       height="5760.6665"
       margin="0"
       bleed="0" />
  </sodipodi:namedview>
  <g
     id="g1"
     inkscape:groupmode="layer"
     inkscape:label="1">
    <g
       id="group-R5">
      <path
         id="path2"
         d="m 34562.5,2162.5 c 0,-1192.898 -967.1,-2160 -2160,-2160 H 2162.5 C 969.566,2.5 2.5,969.602 2.5,2162.5 v 38880 c 0,1192.9 967.066,2160 2160,2160 h 30240 c 1192.9,0 2160,-967.1 2160,-2160 v -38880"
         style="fill:#ffffff;fill-opacity:1;fill-rule:nonzero;stroke:none"
         transform="matrix(0.13333333,0,0,-0.13333333,0,5760.6667)" />
      <path
         id="path3"
         d="m 34562.5,2162.5 c 0,-1192.898 -967.1,-2160 -2160,-2160 H 2162.5 C 969.566,2.5 2.5,969.602 2.5,2162.5 v 38880 c 0,1192.9 967.066,2160 2160,2160 h 30240 c 1192.9,0 2160,-967.1 2160,-2160 z"
         style="fill:none;stroke:#231f20;stroke-width:5;stroke-linecap:butt;stroke-linejoin:miter;stroke-miterlimit:4;stroke-dasharray:none;stroke-opacity:1"
         transform="matrix(0.13333333,0,0,-0.13333333,0,5760.6667)" />
      <path
         id="path4"
         d="m 2162.5,542.5 c -893.27,0 -1620,726.7 -1620,1620 v 38880 c 0,893.3 726.73,1620 1620,1620 h 30240 c 893.3,0 1620,-726.7 1620,-1620 v -38880 c 0,-893.3 -726.7,-1620 -1620,-1620 h -30240"
         style="fill:#231f20;fill-opacity:1;fill-rule:nonzero;stroke:none"
         transform="matrix(0.13333333,0,0,-0.13333333,0,5760.6667)" />
      <path
         id="path5"
         d="m 2162.5,1442.5 c -397.01,0 -720,323 -720,720 v 38880 c 0,397 322.99,720 720,720 h 30240 c 397,0 720,-323 720,-720 v -38880 c 0,-397 -323,-720 -720,-720 h -30240"
         style="fill:#ffffff;fill-opacity:1;fill-rule:nonzero;stroke:none"
         transform="matrix(0.13333333,0,0,-0.13333333,0,5760.6667)" />
      <path
         id="path6"
         d="m 24239.8,23402.5 v 5760 h 2716.1 v -808.4 h -1885 v -1455.2 h 1195.9 v -788.2 h -1195.9 v -1899.8 h 2108 v -808.4 h -2939.1"
         style="fill:#231f20;fill-opacity:1;fill-rule:nonzero;stroke:none"
         transform="matrix(0.13333333,0,0,-0.13333333,0,5760.6667)" />
      <path
         id="path7"
         d="m 22145.7,23402.5 v 2607.2 h -1573.1 v -2607.2 h -827 v 5760 h 827 v -2344.4 h 1573.1 v 2344.4 h 826.9 v -5760 h -826.9"
         style="fill:#231f20;fill-opacity:1;fill-rule:nonzero;stroke:none"
         transform="matrix(0.13333333,0,0,-0.13333333,0,5760.6667)" />
      <path
         id="path8"
         d="m 10333.5,23402.5 -1774.87,3860.2 v -3860.2 h -826.94 v 5760 h 826.94 l 1573.17,-3456 v 3456 h 826.9 v -5760 h -625.2"
         style="fill:#231f20;fill-opacity:1;fill-rule:nonzero;stroke:none"
         transform="matrix(0.13333333,0,0,-0.13333333,0,5760.6667)" />
      <path
         id="path9"
         d="M 30759.9,23402.5 28985,27262.7 v -3860.2 h -826.9 v 5760 h 826.9 l 1573.2,-3456 v 3456 h 826.9 v -5760 h -625.2"
         style="fill:#231f20;fill-opacity:1;fill-rule:nonzero;stroke:none"
         transform="matrix(0.13333333,0,0,-0.13333333,0,5760.6667)" />
      <path
         id="path10"
         d="m 5602.5,27727.6 c -142.5,505.2 -366.45,727.5 -712.54,727.5 -366.44,0 -590.39,-222.3 -732.89,-707.3 -142.52,-444.7 -183.22,-828.7 -183.22,-1475.4 0,-626.5 61.07,-990.3 183.22,-1455.2 142.5,-485 366.45,-707.3 732.89,-707.3 346.09,0 570.04,222.3 712.54,707.3 142.52,464.9 183.22,808.5 183.22,1475.4 0,646.7 -61.07,1010.5 -183.22,1435 z m 651.46,-3435.8 c -285.01,-687.2 -712.53,-990.4 -1364,-990.4 -692.19,0 -1099.33,303.2 -1384.36,990.4 -244.31,565.8 -325.74,1111.5 -325.74,2000.8 0,869.1 81.43,1455.2 325.74,2000.8 305.38,687.2 712.54,970.2 1384.36,970.2 671.84,0 1078.99,-283 1364,-990.3 244.32,-566 325.75,-1111.6 325.75,-1980.7 0,-889.3 -81.43,-1455.1 -325.75,-2000.8"
         style="fill:#231f20;fill-opacity:1;fill-rule:nonzero;stroke:none"
         transform="matrix(0.13333333,0,0,-0.13333333,0,5760.6667)" />
      <path
         id="path11"
         d="m 18006.3,23402.5 h -709.8 l -547.5,3011.4 -547.6,-3011.4 h -730.1 l -912.6,5760 h 811.2 l 486.8,-3072 567.8,3072 h 649 l 547.5,-3072 507,3072 h 811.2 l -932.9,-5760"
         style="fill:#231f20;fill-opacity:1;fill-rule:nonzero;stroke:none"
         transform="matrix(0.13333333,0,0,-0.13333333,0,5760.6667)" />
      <path
         id="path12"
         d="m 15277.7,33469.9 c -223.2,-505.3 -690,-808.5 -1278.6,-808.5 -690.1,0 -1197.5,343.6 -1481.6,990.4 -182.7,424.4 -304.5,1232.8 -304.5,1980.6 0,808.4 60.9,1394.5 263.9,1940.2 202.9,606.3 791.5,1051 1461.3,1051 832.1,0 1461.3,-606.4 1501.9,-1455.2 h -832.2 c -20.2,384 -284.1,646.7 -690,646.7 -284.1,0 -507.4,-141.4 -649.5,-424.4 -162.3,-282.9 -263.8,-929.7 -263.8,-1616.8 0,-485.1 40.6,-990.4 121.7,-1435 121.8,-565.9 406,-869 852.5,-869 426.2,0 629.1,282.9 629.1,889.2 v 384 h -649.4 v 808.5 h 1481.6 v -1192.5 c 0,-404.2 -40.6,-646.7 -162.4,-889.2"
         style="fill:#231f20;fill-opacity:1;fill-rule:nonzero;stroke:none"
         transform="matrix(0.13333333,0,0,-0.13333333,0,5760.6667)" />
      <path
         id="path13"
         d="m 19568.2,32762.5 v 2607.2 H 17995 v -2607.2 h -826.9 v 5760 h 826.9 v -2344.4 h 1573.2 v 2344.4 h 826.9 v -5760 h -826.9"
         style="fill:#231f20;fill-opacity:1;fill-rule:nonzero;stroke:none"
         transform="matrix(0.13333333,0,0,-0.13333333,0,5760.6667)" />
      <path
         id="path14"
         d="m 5529.99,32762.5 v 5760 h 831.05 v -4992 h 2107.99 v -768 H 5529.99"
         style="fill:#231f20;fill-opacity:1;fill-rule:nonzero;stroke:none"
         transform="matrix(0.13333333,0,0,-0.13333333,0,5760.6667)" />
      <path
         id="path15"
         d="m 9678.65,32762.5 v 5760 H 10485 v -5760 h -806.35"
         style="fill:#231f20;fill-opacity:1;fill-rule:nonzero;stroke:none"
         transform="matrix(0.13333333,0,0,-0.13333333,0,5760.6667)" />
      <path
         id="path16"
         d="m 26961.5,35422.6 c -249.3,161.4 -491.2,323.4 -645.7,432.1 -464.4,326.9 -710.4,768 -710.4,1273.3 0,828.6 649.5,1495.6 1481.7,1495.6 811.8,0 1441,-626.6 1461.3,-1495.6 h -791.6 c -20.3,404.2 -304.4,666.9 -669.7,666.9 -385.7,0 -690.1,-282.9 -690.1,-666.9 0,-283 121.8,-444.6 548,-687.2 1116.3,-646.7 1603.4,-1273.2 1603.4,-2101.9 0,-929.7 -710.4,-1677.5 -1603.4,-1677.5 -1014.8,0 -1623.7,848.9 -1623.7,1798.8 h 811.8 c 0,-485.1 243.6,-990.3 811.9,-990.3 446.5,0 811.8,404.2 811.8,869 0,361 -149.1,665 -795.3,1083.7"
         style="fill:#231f20;fill-opacity:1;fill-rule:nonzero;stroke:none"
         transform="matrix(0.13333333,0,0,-0.13333333,0,5760.6667)" />
      <path
         id="path17"
         d="m 23489.7,37754.5 v -4992 h -831 v 4992 h -1054 v 768 h 2939 v -768 h -1054"
         style="fill:#231f20;fill-opacity:1;fill-rule:nonzero;stroke:none"
         transform="matrix(0.13333333,0,0,-0.13333333,0,5760.6667)" />
      <path
         id="path18"
         d="m 27318.2,14749.9 c -223.2,-505.3 -690.1,-808.5 -1278.6,-808.5 -690.1,0 -1197.5,343.6 -1481.6,990.4 -182.7,424.4 -304.5,1232.8 -304.5,1980.6 0,808.4 60.9,1394.5 263.9,1940.2 202.9,606.3 791.5,1051 1461.3,1051 832.1,0 1461.3,-606.4 1501.9,-1455.2 h -832.2 c -20.3,384 -284.1,646.7 -690,646.7 -284.2,0 -507.4,-141.4 -649.5,-424.4 -162.3,-282.9 -263.8,-929.7 -263.8,-1616.8 0,-485.1 40.6,-990.4 121.7,-1435 121.8,-565.9 406,-869 852.5,-869 426.2,0 629.1,282.9 629.1,889.2 v 384 H 25999 v 808.5 h 1481.6 v -1192.5 c 0,-404.2 -40.6,-646.7 -162.4,-889.2"
         style="fill:#231f20;fill-opacity:1;fill-rule:nonzero;stroke:none"
         transform="matrix(0.13333333,0,0,-0.13333333,0,5760.6667)" />
      <path
         id="path19"
         d="m 21900.3,14042.5 -1774.9,3860.2 v -3860.2 h -826.9 v 5760 h 826.9 l 1573.2,-3456 v 3456 h 826.9 v -5760 h -625.2"
         style="fill:#231f20;fill-opacity:1;fill-rule:nonzero;stroke:none"
         transform="matrix(0.13333333,0,0,-0.13333333,0,5760.6667)" />
      <path
         id="path20"
         d="m 16591.3,14042.5 v 5760 h 806.4 v -5760 h -806.4"
         style="fill:#231f20;fill-opacity:1;fill-rule:nonzero;stroke:none"
         transform="matrix(0.13333333,0,0,-0.13333333,0,5760.6667)" />
      <path
         id="path21"
         d="m 13535.6,16702.5 c -249.2,161.5 -491.2,323.5 -645.7,432.2 -464.4,326.9 -710.3,768 -710.3,1273.3 0,828.6 649.4,1495.6 1481.6,1495.6 811.8,0 1441,-626.6 1461.3,-1495.6 h -791.6 c -20.2,404.2 -304.4,666.9 -669.7,666.9 -385.7,0 -690.1,-282.9 -690.1,-666.9 0,-283 121.8,-444.7 548,-687.2 1116.3,-646.7 1603.4,-1273.3 1603.4,-2101.9 0,-929.7 -710.4,-1677.5 -1603.4,-1677.5 -1014.8,0 -1623.7,848.9 -1623.7,1798.8 h 811.9 c 0,-485.1 243.5,-990.3 811.8,-990.3 446.5,0 811.8,404.2 811.8,869 0,361 -149.1,665 -795.3,1083.6"
         style="fill:#231f20;fill-opacity:1;fill-rule:nonzero;stroke:none"
         transform="matrix(0.13333333,0,0,-0.13333333,0,5760.6667)" />
      <path
         id="path22"
         d="m 10204.8,14749.9 c -282.39,-464.9 -826.96,-808.5 -1371.51,-808.5 -564.74,0 -1129.48,323.4 -1411.83,808.5 -161.37,303.1 -221.88,545.6 -221.88,1010.5 v 4042.1 h 826.94 v -4143.2 c 0,-545.7 322.71,-909.4 806.77,-909.4 443.71,0 766.43,363.7 766.43,909.4 v 4143.2 h 826.98 v -4042.1 c 0,-464.9 -60.6,-707.4 -221.9,-1010.5"
         style="fill:#231f20;fill-opacity:1;fill-rule:nonzero;stroke:none"
         transform="matrix(0.13333333,0,0,-0.13333333,0,5760.6667)" />
      <path
         id="path23"
         d="m 18026.9,4682.5 v 5760 H 20743 V 9634.1 H 18857.9 V 8178.9 h 1195.9 V 7390.7 H 18857.9 V 5490.9 H 20966 v -808.4 h -2939.1"
         style="fill:#231f20;fill-opacity:1;fill-rule:nonzero;stroke:none"
         transform="matrix(0.13333333,0,0,-0.13333333,0,5760.6667)" />
      <path
         id="path24"
         d="m 14745.9,9634.1 h -847.1 V 7997 h 847.1 c 484,0 746.2,303.2 746.2,828.7 0,485 -302.5,808.4 -746.2,808.4 z m 40.3,-2425.3 h -887.4 V 4682.5 h -827 v 5760 h 1714.4 c 907.6,0 1512.7,-646.7 1512.7,-1616.8 0,-1051 -544.6,-1616.9 -1512.7,-1616.9"
         style="fill:#231f20;fill-opacity:1;fill-rule:nonzero;stroke:none"
         transform="matrix(0.13333333,0,0,-0.13333333,0,5760.6667)" />
      <path
         id="path25"
         d="m 10364.6,4682.5 v 5760 h 806.4 v -5760 h -806.4"
         style="fill:#231f20;fill-opacity:1;fill-rule:nonzero;stroke:none"
         transform="matrix(0.13333333,0,0,-0.13333333,0,5760.6667)" />
      <path
         id="path26"
         d="m 24108.8,9634.1 h -847.1 V 8178.9 h 847.1 c 484.1,0 746.2,262.8 746.2,727.6 0,444.6 -302.5,727.6 -746.2,727.6 z m 705.9,-4951.6 -766.4,2708.2 h -786.6 V 4682.5 h -826.9 v 5760 h 1714.3 c 907.7,0 1512.7,-606.3 1512.7,-1536 0,-687.2 -282.3,-1192.4 -826.9,-1394.5 l 826.9,-2829.5 h -847.1"
         style="fill:#231f20;fill-opacity:1;fill-rule:nonzero;stroke:none"
         transform="matrix(0.13333333,0,0,-0.13333333,0,5760.6667)" />
      <path
         id="path27"
         d="m 28338.7,7342.5 c -249.2,161.5 -491.1,323.5 -645.6,432.2 -464.4,326.9 -710.4,768 -710.4,1273.3 0,828.6 649.5,1495.6 1481.6,1495.6 811.9,0 1441,-626.6 1461.3,-1495.6 h -791.5 c -20.3,404.2 -304.4,666.9 -669.8,666.9 -385.6,0 -690,-282.9 -690,-666.9 0,-283 121.7,-444.7 547.9,-687.2 1116.3,-646.7 1603.4,-1273.3 1603.4,-2101.9 0,-929.7 -710.3,-1677.5 -1603.4,-1677.5 -1014.8,0 -1623.6,848.9 -1623.6,1798.8 h 811.8 c 0,-485.1 243.6,-990.3 811.8,-990.3 446.6,0 811.9,404.2 811.9,869 0,361 -149.2,665 -795.4,1083.6"
         style="fill:#231f20;fill-opacity:1;fill-rule:nonzero;stroke:none"
         transform="matrix(0.13333333,0,0,-0.13333333,0,5760.6667)" />
      <path
         id="path28"
         d="M 8222.15,4682.5 H 7512.36 L 6964.79,7693.9 6417.23,4682.5 h -730.08 l -912.6,5760 h 811.19 l 486.74,-3072 567.83,3072 h 648.97 l 547.56,-3072 507.01,3072 h 811.19 l -932.89,-5760"
         style="fill:#231f20;fill-opacity:1;fill-rule:nonzero;stroke:none"
         transform="matrix(0.13333333,0,0,-0.13333333,0,5760.6667)" />
    </g>
  </g>
</svg>
