<?xml version="1.0" standalone="no"?>
<svg width="3456px" height="4320px" viewBox="0 -3528 3456 4320 " xmlns="http://www.w3.org/2000/svg" xmlns:xlink="http://www.w3.org/1999/xlink">
<title>generated by pstoedit</title>
<!-- generated by pstoedit version:4.02 -->
<g xml:space='preserve'>
<clipPath id="clippath1"> 	<path d="
	M 0 -3528.5 
	L 0 792 
	L 3456.5 792 
	L 3456.5 -3528.5 
	Z 
	" style="clip-rule:nonzero"/>
</clipPath>
<g style="clip-path:url(#clippath1)"> 
<g fill="#ffffff" fill-rule="nonzero" stroke-width="0" stroke-linejoin="miter" stroke-linecap="butt" stroke-miterlimit="10" >
	<path d="
	M 3456.25 575.75 
	C 3456.25 695.039 3359.54 791.75 3240.25 791.75 
	L 216.25 791.75 
	C 96.957 791.75 0.25 695.039 0.25 575.75 
	L 0.25 -3312.25 
	C 0.25 -3431.54 96.957 -3528.25 216.25 -3528.25 
	L 3240.25 -3528.25 
	C 3359.54 -3528.25 3456.25 -3431.54 3456.25 -3312.25 
	Z 
	"/>
</g>
<g stroke="#7f7f7f" fill="none" stroke-width="0.5" stroke-linejoin="miter" stroke-linecap="butt" stroke-miterlimit="4" >
	<path d="
	M 3456.25 575.75 
	C 3456.25 695.039 3359.54 791.75 3240.25 791.75 
	L 216.25 791.75 
	C 96.957 791.75 0.25 695.039 0.25 575.75 
	L 0.25 -3312.25 
	C 0.25 -3431.54 96.957 -3528.25 216.25 -3528.25 
	L 3240.25 -3528.25 
	C 3359.54 -3528.25 3456.25 -3431.54 3456.25 -3312.25 
	Z 
	"/>
</g>
<g fill="#7f7f7f" fill-rule="nonzero" stroke-width="0" stroke-linejoin="miter" stroke-linecap="butt" stroke-miterlimit="4" >
	<path d="
	M 216.25 737.75 
	C 126.922 737.75 54.25 665.082 54.25 575.75 
	L 54.25 -3312.25 
	C 54.25 -3401.58 126.922 -3474.25 216.25 -3474.25 
	L 3240.25 -3474.25 
	C 3329.58 -3474.25 3402.25 -3401.58 3402.25 -3312.25 
	L 3402.25 575.75 
	C 3402.25 665.082 3329.58 737.75 3240.25 737.75 
	Z 
	"/>
</g>
<g fill="#ffffff" fill-rule="nonzero" stroke-width="0" stroke-linejoin="miter" stroke-linecap="butt" stroke-miterlimit="4" >
	<path d="
	M 216.25 647.75 
	C 176.551 647.75 144.25 615.449 144.25 575.75 
	L 144.25 -3312.25 
	C 144.25 -3351.95 176.551 -3384.25 216.25 -3384.25 
	L 3240.25 -3384.25 
	C 3279.95 -3384.25 3312.25 -3351.95 3312.25 -3312.25 
	L 3312.25 575.75 
	C 3312.25 615.449 3279.95 647.75 3240.25 647.75 
	Z 
	"/>
</g>
<g fill="#7f7f7f" fill-rule="nonzero" stroke-width="0" stroke-linejoin="miter" stroke-linecap="butt" stroke-miterlimit="4" >
	<path d="
	M 2423.98 -1548.25 
	L 2423.98 -2124.25 
	L 2695.59 -2124.25 
	L 2695.59 -2043.41 
	L 2507.09 -2043.41 
	L 2507.09 -1897.89 
	L 2626.68 -1897.89 
	L 2626.68 -1819.07 
	L 2507.09 -1819.07 
	L 2507.09 -1629.09 
	L 2717.89 -1629.09 
	L 2717.89 -1548.25 
	Z 
	"/>
</g>
<g fill="#7f7f7f" fill-rule="nonzero" stroke-width="0" stroke-linejoin="miter" stroke-linecap="butt" stroke-miterlimit="4" >
	<path d="
	M 2214.57 -1548.25 
	L 2214.57 -1808.97 
	L 2057.26 -1808.97 
	L 2057.26 -1548.25 
	L 1974.56 -1548.25 
	L 1974.56 -2124.25 
	L 2057.26 -2124.25 
	L 2057.26 -1889.81 
	L 2214.57 -1889.81 
	L 2214.57 -2124.25 
	L 2297.26 -2124.25 
	L 2297.26 -1548.25 
	Z 
	"/>
</g>
<g fill="#7f7f7f" fill-rule="nonzero" stroke-width="0" stroke-linejoin="miter" stroke-linecap="butt" stroke-miterlimit="4" >
	<path d="
	M 1033.35 -1548.25 
	L 855.863 -1934.27 
	L 855.863 -1548.25 
	L 773.168 -1548.25 
	L 773.168 -2124.25 
	L 855.863 -2124.25 
	L 1013.18 -1778.65 
	L 1013.18 -2124.25 
	L 1095.87 -2124.25 
	L 1095.87 -1548.25 
	Z 
	"/>
</g>
<g fill="#7f7f7f" fill-rule="nonzero" stroke-width="0" stroke-linejoin="miter" stroke-linecap="butt" stroke-miterlimit="4" >
	<path d="
	M 3075.99 -1548.25 
	L 2898.5 -1934.27 
	L 2898.5 -1548.25 
	L 2815.81 -1548.25 
	L 2815.81 -2124.25 
	L 2898.5 -2124.25 
	L 3055.82 -1778.65 
	L 3055.82 -2124.25 
	L 3138.51 -2124.25 
	L 3138.51 -1548.25 
	Z 
	"/>
</g>
<g fill="#7f7f7f" fill-rule="nonzero" stroke-width="0" stroke-linejoin="miter" stroke-linecap="butt" stroke-miterlimit="4" >
	<path d="
	M 560.25 -1980.76 
	C 546 -2031.28 523.605 -2053.51 488.996 -2053.51 
	C 452.352 -2053.51 429.957 -2031.28 415.707 -1982.78 
	C 401.453 -1938.31 397.387 -1899.91 397.387 -1835.24 
	C 397.387 -1772.59 403.492 -1736.21 415.707 -1689.72 
	C 429.957 -1641.22 452.352 -1618.99 488.996 -1618.99 
	C 523.605 -1618.99 546 -1641.22 560.25 -1689.72 
	C 574.504 -1736.21 578.57 -1770.57 578.57 -1837.26 
	C 578.57 -1901.93 572.465 -1938.31 560.25 -1980.76 
	Z 
	M 625.395 -1637.18 
	C 596.895 -1568.46 554.145 -1538.14 488.996 -1538.14 
	C 419.777 -1538.14 379.063 -1568.46 350.559 -1637.18 
	C 326.129 -1693.76 317.984 -1748.33 317.984 -1837.26 
	C 317.984 -1924.17 326.129 -1982.78 350.559 -2037.34 
	C 381.098 -2106.06 421.813 -2134.36 488.996 -2134.36 
	C 556.18 -2134.36 596.895 -2106.06 625.395 -2035.33 
	C 649.828 -1978.73 657.973 -1924.17 657.973 -1837.26 
	C 657.973 -1748.33 649.828 -1691.75 625.395 -1637.18 
	Z 
	"/>
</g>
<g fill="#7f7f7f" fill-rule="nonzero" stroke-width="0" stroke-linejoin="miter" stroke-linecap="butt" stroke-miterlimit="4" >
	<path d="
	M 1800.63 -1548.25 
	L 1729.65 -1548.25 
	L 1674.9 -1849.39 
	L 1620.14 -1548.25 
	L 1547.13 -1548.25 
	L 1455.87 -2124.25 
	L 1536.99 -2124.25 
	L 1585.67 -1817.05 
	L 1642.45 -2124.25 
	L 1707.35 -2124.25 
	L 1762.1 -1817.05 
	L 1812.8 -2124.25 
	L 1893.92 -2124.25 
	Z 
	"/>
</g>
<g fill="#7f7f7f" fill-rule="nonzero" stroke-width="0" stroke-linejoin="miter" stroke-linecap="butt" stroke-miterlimit="4" >
	<path d="
	M 1527.77 -2554.98 
	C 1505.45 -2504.46 1458.77 -2474.14 1399.91 -2474.14 
	C 1330.9 -2474.14 1280.16 -2508.5 1251.75 -2573.18 
	C 1233.48 -2615.62 1221.3 -2696.46 1221.3 -2771.24 
	C 1221.3 -2852.08 1227.39 -2910.69 1247.69 -2965.26 
	C 1267.98 -3025.89 1326.84 -3070.36 1393.82 -3070.36 
	C 1477.03 -3070.36 1539.95 -3009.72 1544.01 -2924.84 
	L 1460.79 -2924.84 
	C 1458.77 -2963.24 1432.38 -2989.52 1391.79 -2989.52 
	C 1363.38 -2989.52 1341.05 -2975.37 1326.84 -2947.07 
	C 1310.61 -2918.78 1300.46 -2854.1 1300.46 -2785.39 
	C 1300.46 -2736.88 1304.52 -2686.36 1312.63 -2641.89 
	C 1324.81 -2585.3 1353.23 -2554.98 1397.88 -2554.98 
	C 1440.5 -2554.98 1460.79 -2583.28 1460.79 -2643.91 
	L 1460.79 -2682.31 
	L 1395.85 -2682.31 
	L 1395.85 -2763.16 
	L 1544.01 -2763.16 
	L 1544.01 -2643.91 
	C 1544.01 -2603.49 1539.95 -2579.24 1527.77 -2554.98 
	Z 
	"/>
</g>
<g fill="#7f7f7f" fill-rule="nonzero" stroke-width="0" stroke-linejoin="miter" stroke-linecap="butt" stroke-miterlimit="4" >
	<path d="
	M 1956.82 -2484.25 
	L 1956.82 -2744.96 
	L 1799.5 -2744.96 
	L 1799.5 -2484.25 
	L 1716.81 -2484.25 
	L 1716.81 -3060.25 
	L 1799.5 -3060.25 
	L 1799.5 -2825.81 
	L 1956.82 -2825.81 
	L 1956.82 -3060.25 
	L 2039.51 -3060.25 
	L 2039.51 -2484.25 
	Z 
	"/>
</g>
<g fill="#7f7f7f" fill-rule="nonzero" stroke-width="0" stroke-linejoin="miter" stroke-linecap="butt" stroke-miterlimit="4" >
	<path d="
	M 553 -2484.25 
	L 553 -3060.25 
	L 636.105 -3060.25 
	L 636.105 -2561.05 
	L 846.902 -2561.05 
	L 846.902 -2484.25 
	Z 
	"/>
</g>
<g fill="#7f7f7f" fill-rule="nonzero" stroke-width="0" stroke-linejoin="miter" stroke-linecap="butt" stroke-miterlimit="4" >
	<path d="
	M 967.863 -2484.25 
	L 967.863 -3060.25 
	L 1048.5 -3060.25 
	L 1048.5 -2484.25 
	Z 
	"/>
</g>
<g fill="#7f7f7f" fill-rule="nonzero" stroke-width="0" stroke-linejoin="miter" stroke-linecap="butt" stroke-miterlimit="4" >
	<path d="
	M 2696.15 -2750.25 
	C 2671.22 -2766.4 2647.03 -2782.6 2631.58 -2793.47 
	C 2585.14 -2826.16 2560.54 -2870.27 2560.54 -2920.8 
	C 2560.54 -3003.66 2625.49 -3070.36 2708.71 -3070.36 
	C 2789.89 -3070.36 2852.81 -3007.7 2854.84 -2920.8 
	L 2775.68 -2920.8 
	C 2773.65 -2961.22 2745.24 -2987.49 2708.71 -2987.49 
	C 2670.14 -2987.49 2639.7 -2959.2 2639.7 -2920.8 
	C 2639.7 -2892.5 2651.88 -2876.34 2694.5 -2852.08 
	C 2806.13 -2787.41 2854.84 -2724.75 2854.84 -2641.89 
	C 2854.84 -2548.92 2783.8 -2474.14 2694.5 -2474.14 
	C 2593.02 -2474.14 2532.13 -2559.03 2532.13 -2654.02 
	L 2613.31 -2654.02 
	C 2613.31 -2605.51 2637.67 -2554.98 2694.5 -2554.98 
	C 2739.15 -2554.98 2775.68 -2595.41 2775.68 -2641.89 
	C 2775.68 -2677.98 2760.77 -2708.39 2696.15 -2750.25 
	Z 
	"/>
</g>
<g fill="#7f7f7f" fill-rule="nonzero" stroke-width="0" stroke-linejoin="miter" stroke-linecap="butt" stroke-miterlimit="4" >
	<path d="
	M 2348.97 -2983.45 
	L 2348.97 -2484.25 
	L 2265.87 -2484.25 
	L 2265.87 -2983.45 
	L 2160.47 -2983.45 
	L 2160.47 -3060.25 
	L 2454.37 -3060.25 
	L 2454.37 -2983.45 
	Z 
	"/>
</g>
<g fill="#7f7f7f" fill-rule="nonzero" stroke-width="0" stroke-linejoin="miter" stroke-linecap="butt" stroke-miterlimit="4" >
	<path d="
	M 2731.82 -682.99 
	C 2709.5 -632.46 2662.81 -602.14 2603.96 -602.14 
	C 2534.95 -602.14 2484.21 -636.5 2455.8 -701.18 
	C 2437.53 -743.62 2425.35 -824.46 2425.35 -899.24 
	C 2425.35 -980.08 2431.44 -1038.69 2451.74 -1093.26 
	C 2472.03 -1153.89 2530.89 -1198.36 2597.87 -1198.36 
	C 2681.08 -1198.36 2744 -1137.72 2748.06 -1052.84 
	L 2664.84 -1052.84 
	C 2662.81 -1091.24 2636.43 -1117.51 2595.84 -1117.51 
	C 2567.42 -1117.51 2545.1 -1103.37 2530.89 -1075.07 
	C 2514.66 -1046.78 2504.51 -982.1 2504.51 -913.39 
	C 2504.51 -864.88 2508.57 -814.35 2516.68 -769.89 
	C 2528.86 -713.3 2557.28 -682.99 2601.93 -682.99 
	C 2644.55 -682.99 2664.84 -711.28 2664.84 -771.91 
	L 2664.84 -810.31 
	L 2599.9 -810.31 
	L 2599.9 -891.16 
	L 2748.06 -891.16 
	L 2748.06 -771.91 
	C 2748.06 -731.49 2744 -707.24 2731.82 -682.99 
	Z 
	"/>
</g>
<g fill="#7f7f7f" fill-rule="nonzero" stroke-width="0" stroke-linejoin="miter" stroke-linecap="butt" stroke-miterlimit="4" >
	<path d="
	M 2190.03 -612.25 
	L 2012.54 -998.27 
	L 2012.54 -612.25 
	L 1929.85 -612.25 
	L 1929.85 -1188.25 
	L 2012.54 -1188.25 
	L 2169.86 -842.65 
	L 2169.86 -1188.25 
	L 2252.55 -1188.25 
	L 2252.55 -612.25 
	Z 
	"/>
</g>
<g fill="#7f7f7f" fill-rule="nonzero" stroke-width="0" stroke-linejoin="miter" stroke-linecap="butt" stroke-miterlimit="4" >
	<path d="
	M 1659.13 -612.25 
	L 1659.13 -1188.25 
	L 1739.77 -1188.25 
	L 1739.77 -612.25 
	Z 
	"/>
</g>
<g fill="#7f7f7f" fill-rule="nonzero" stroke-width="0" stroke-linejoin="miter" stroke-linecap="butt" stroke-miterlimit="4" >
	<path d="
	M 1353.56 -878.25 
	C 1328.64 -894.4 1304.44 -910.6 1288.99 -921.47 
	C 1242.55 -954.16 1217.96 -998.27 1217.96 -1048.8 
	C 1217.96 -1131.66 1282.9 -1198.36 1366.12 -1198.36 
	C 1447.3 -1198.36 1510.22 -1135.7 1512.25 -1048.8 
	L 1433.09 -1048.8 
	C 1431.07 -1089.22 1402.65 -1115.49 1366.12 -1115.49 
	C 1327.55 -1115.49 1297.11 -1087.2 1297.11 -1048.8 
	C 1297.11 -1020.5 1309.29 -1004.33 1351.91 -980.08 
	C 1463.54 -915.41 1512.25 -852.75 1512.25 -769.89 
	C 1512.25 -676.92 1441.21 -602.14 1351.91 -602.14 
	C 1250.43 -602.14 1189.54 -687.03 1189.54 -782.02 
	L 1270.73 -782.02 
	C 1270.73 -733.51 1295.08 -682.99 1351.91 -682.99 
	C 1396.56 -682.99 1433.09 -723.41 1433.09 -769.89 
	C 1433.09 -805.99 1418.18 -836.39 1353.56 -878.25 
	Z 
	"/>
</g>
<g fill="#7f7f7f" fill-rule="nonzero" stroke-width="0" stroke-linejoin="miter" stroke-linecap="butt" stroke-miterlimit="4" >
	<path d="
	M 1020.48 -682.99 
	C 992.242 -636.5 937.785 -602.14 883.328 -602.14 
	C 826.855 -602.14 770.383 -634.48 742.145 -682.99 
	C 726.008 -713.3 719.957 -737.55 719.957 -784.04 
	L 719.957 -1188.25 
	L 802.652 -1188.25 
	L 802.652 -773.93 
	C 802.652 -719.36 834.922 -682.99 883.328 -682.99 
	C 927.699 -682.99 959.973 -719.36 959.973 -773.93 
	L 959.973 -1188.25 
	L 1042.67 -1188.25 
	L 1042.67 -784.04 
	C 1042.67 -737.55 1036.61 -713.3 1020.48 -682.99 
	Z 
	"/>
</g>
<g fill="#7f7f7f" fill-rule="nonzero" stroke-width="0" stroke-linejoin="miter" stroke-linecap="butt" stroke-miterlimit="4" >
	<path d="
	M 1802.69 323.75 
	L 1802.69 -252.25 
	L 2074.3 -252.25 
	L 2074.3 -171.41 
	L 1885.79 -171.41 
	L 1885.79 -25.891 
	L 2005.38 -25.891 
	L 2005.38 52.93 
	L 1885.79 52.93 
	L 1885.79 242.91 
	L 2096.6 242.91 
	L 2096.6 323.75 
	Z 
	"/>
</g>
<g fill="#7f7f7f" fill-rule="nonzero" stroke-width="0" stroke-linejoin="miter" stroke-linecap="butt" stroke-miterlimit="4" >
	<path d="
	M 1474.59 -171.41 
	L 1389.88 -171.41 
	L 1389.88 -7.69897 
	L 1474.59 -7.69897 
	C 1522.99 -7.69897 1549.21 -38.02 1549.21 -90.57 
	C 1549.21 -139.07 1518.96 -171.41 1474.59 -171.41 
	Z 
	M 1478.62 71.121 
	L 1389.88 71.121 
	L 1389.88 323.75 
	L 1307.18 323.75 
	L 1307.18 -252.25 
	L 1478.62 -252.25 
	C 1569.38 -252.25 1629.89 -187.578 1629.89 -90.57 
	C 1629.89 14.531 1575.43 71.121 1478.62 71.121 
	Z 
	"/>
</g>
<g fill="#7f7f7f" fill-rule="nonzero" stroke-width="0" stroke-linejoin="miter" stroke-linecap="butt" stroke-miterlimit="4" >
	<path d="
	M 1036.46 323.75 
	L 1036.46 -252.25 
	L 1117.1 -252.25 
	L 1117.1 323.75 
	Z 
	"/>
</g>
<g fill="#7f7f7f" fill-rule="nonzero" stroke-width="0" stroke-linejoin="miter" stroke-linecap="butt" stroke-miterlimit="4" >
	<path d="
	M 2410.88 -171.41 
	L 2326.17 -171.41 
	L 2326.17 -25.891 
	L 2410.88 -25.891 
	C 2459.29 -25.891 2485.5 -52.168 2485.5 -98.648 
	C 2485.5 -143.109 2455.25 -171.41 2410.88 -171.41 
	Z 
	M 2481.47 323.75 
	L 2404.83 52.93 
	L 2326.17 52.93 
	L 2326.17 323.75 
	L 2243.48 323.75 
	L 2243.48 -252.25 
	L 2414.91 -252.25 
	C 2505.68 -252.25 2566.18 -191.621 2566.18 -98.648 
	C 2566.18 -29.93 2537.95 20.59 2483.49 40.801 
	L 2566.18 323.75 
	Z 
	"/>
</g>
<g fill="#7f7f7f" fill-rule="nonzero" stroke-width="0" stroke-linejoin="miter" stroke-linecap="butt" stroke-miterlimit="4" >
	<path d="
	M 2833.87 57.75 
	C 2808.95 41.602 2784.76 25.398 2769.31 14.531 
	C 2722.87 -18.16 2698.27 -62.27 2698.27 -112.801 
	C 2698.27 -195.66 2763.22 -262.36 2846.43 -262.36 
	C 2927.62 -262.36 2990.53 -199.699 2992.56 -112.801 
	L 2913.41 -112.801 
	C 2911.38 -153.219 2882.97 -179.488 2846.43 -179.488 
	C 2807.87 -179.488 2777.43 -151.199 2777.43 -112.801 
	C 2777.43 -84.5 2789.6 -68.328 2832.22 -44.078 
	C 2943.85 20.59 2992.56 83.25 2992.56 166.109 
	C 2992.56 259.082 2921.53 333.859 2832.22 333.859 
	C 2730.74 333.859 2669.86 248.969 2669.86 153.98 
	L 2751.04 153.98 
	C 2751.04 202.488 2775.4 253.012 2832.22 253.012 
	C 2876.88 253.012 2913.41 212.59 2913.41 166.109 
	C 2913.41 130.012 2898.49 99.609 2833.87 57.75 
	Z 
	"/>
</g>
<g fill="#7f7f7f" fill-rule="nonzero" stroke-width="0" stroke-linejoin="miter" stroke-linecap="butt" stroke-miterlimit="4" >
	<path d="
	M 822.215 323.75 
	L 751.234 323.75 
	L 696.48 22.609 
	L 641.723 323.75 
	L 568.715 323.75 
	L 477.453 -252.25 
	L 558.574 -252.25 
	L 607.246 54.949 
	L 664.031 -252.25 
	L 728.93 -252.25 
	L 783.684 54.949 
	L 834.387 -252.25 
	L 915.504 -252.25 
	Z 
	"/>
</g>
</g >
</g>
</svg>
