<?xml version="1.0" standalone="no"?>
<svg width="1728px" height="2160px" viewBox="0 -1368 1728 2160 " xmlns="http://www.w3.org/2000/svg" xmlns:xlink="http://www.w3.org/1999/xlink">
<title>generated by pstoedit</title>
<!-- generated by pstoedit version:4.02 -->
<g xml:space='preserve'>
<clipPath id="clippath1"> 	<path d="
	M 0 -1368.5 
	L 0 792 
	L 1728.5 792 
	L 1728.5 -1368.5 
	Z 
	" style="clip-rule:nonzero"/>
</clipPath>
<g style="clip-path:url(#clippath1)"> 
<g fill="#ffffff" fill-rule="nonzero" stroke-width="0" stroke-linejoin="miter" stroke-linecap="butt" stroke-miterlimit="10" >
	<path d="
	M 1728.25 683.75 
	C 1728.25 743.398 1679.9 791.75 1620.25 791.75 
	L 108.25 791.75 
	C 48.6016 791.75 0.25 743.398 0.25 683.75 
	L 0.25 -1260.25 
	C 0.25 -1319.9 48.6016 -1368.25 108.25 -1368.25 
	L 1620.25 -1368.25 
	C 1679.9 -1368.25 1728.25 -1319.9 1728.25 -1260.25 
	Z 
	"/>
</g>
<g stroke="#7f7f7f" fill="none" stroke-width="0.5" stroke-linejoin="miter" stroke-linecap="butt" stroke-miterlimit="4" >
	<path d="
	M 1728.25 683.75 
	C 1728.25 743.398 1679.9 791.75 1620.25 791.75 
	L 108.25 791.75 
	C 48.6016 791.75 0.25 743.398 0.25 683.75 
	L 0.25 -1260.25 
	C 0.25 -1319.9 48.6016 -1368.25 108.25 -1368.25 
	L 1620.25 -1368.25 
	C 1679.9 -1368.25 1728.25 -1319.9 1728.25 -1260.25 
	Z 
	"/>
</g>
<g fill="#7f7f7f" fill-rule="nonzero" stroke-width="0" stroke-linejoin="miter" stroke-linecap="butt" stroke-miterlimit="4" >
	<path d="
	M 108.25 764.75 
	C 63.5859 764.75 27.25 728.41 27.25 683.75 
	L 27.25 -1260.25 
	C 27.25 -1304.91 63.5859 -1341.25 108.25 -1341.25 
	L 1620.25 -1341.25 
	C 1664.91 -1341.25 1701.25 -1304.91 1701.25 -1260.25 
	L 1701.25 683.75 
	C 1701.25 728.41 1664.91 764.75 1620.25 764.75 
	Z 
	"/>
</g>
<g fill="#ffffff" fill-rule="nonzero" stroke-width="0" stroke-linejoin="miter" stroke-linecap="butt" stroke-miterlimit="4" >
	<path d="
	M 108.25 719.75 
	C 88.3984 719.75 72.25 703.602 72.25 683.75 
	L 72.25 -1260.25 
	C 72.25 -1280.1 88.3984 -1296.25 108.25 -1296.25 
	L 1620.25 -1296.25 
	C 1640.1 -1296.25 1656.25 -1280.1 1656.25 -1260.25 
	L 1656.25 683.75 
	C 1656.25 703.602 1640.1 719.75 1620.25 719.75 
	Z 
	"/>
</g>
<g fill="#7f7f7f" fill-rule="nonzero" stroke-width="0" stroke-linejoin="miter" stroke-linecap="butt" stroke-miterlimit="4" >
	<path d="
	M 782.656 -881.62 
	C 771.492 -856.36 748.152 -841.2 718.727 -841.2 
	C 684.223 -841.2 658.852 -858.38 644.645 -890.71 
	C 635.512 -911.93 629.422 -952.36 629.422 -989.75 
	C 629.422 -1030.16 632.469 -1059.47 642.613 -1086.76 
	C 652.762 -1117.07 682.191 -1139.3 715.68 -1139.3 
	C 757.285 -1139.3 788.746 -1108.99 790.773 -1066.55 
	L 749.168 -1066.55 
	C 748.152 -1085.75 734.961 -1098.88 714.664 -1098.88 
	C 700.457 -1098.88 689.297 -1091.81 682.191 -1077.66 
	C 674.074 -1063.52 669 -1031.18 669 -996.82 
	C 669 -972.57 671.027 -947.3 675.09 -925.07 
	C 681.176 -896.78 695.383 -881.62 717.711 -881.62 
	C 739.02 -881.62 749.168 -895.77 749.168 -926.08 
	L 749.168 -945.28 
	L 716.695 -945.28 
	L 716.695 -985.7 
	L 790.773 -985.7 
	L 790.773 -926.08 
	C 790.773 -905.87 788.746 -893.74 782.656 -881.62 
	Z 
	"/>
</g>
<g fill="#7f7f7f" fill-rule="nonzero" stroke-width="0" stroke-linejoin="miter" stroke-linecap="butt" stroke-miterlimit="4" >
	<path d="
	M 968.379 -846.25 
	L 968.379 -976.61 
	L 889.723 -976.61 
	L 889.723 -846.25 
	L 848.375 -846.25 
	L 848.375 -1134.25 
	L 889.723 -1134.25 
	L 889.723 -1017.03 
	L 968.379 -1017.03 
	L 968.379 -1134.25 
	L 1009.73 -1134.25 
	L 1009.73 -846.25 
	Z 
	"/>
</g>
<g fill="#7f7f7f" fill-rule="nonzero" stroke-width="0" stroke-linejoin="miter" stroke-linecap="butt" stroke-miterlimit="4" >
	<path d="
	M 531.504 -846.25 
	L 531.504 -1134.25 
	L 571.82 -1134.25 
	L 571.82 -846.25 
	Z 
	"/>
</g>
<g fill="#7f7f7f" fill-rule="nonzero" stroke-width="0" stroke-linejoin="miter" stroke-linecap="butt" stroke-miterlimit="4" >
	<path d="
	M 344.23 -846.25 
	L 344.23 -1134.25 
	L 385.781 -1134.25 
	L 385.781 -884.65 
	L 491.184 -884.65 
	L 491.184 -846.25 
	Z 
	"/>
</g>
<g fill="#7f7f7f" fill-rule="nonzero" stroke-width="0" stroke-linejoin="miter" stroke-linecap="butt" stroke-miterlimit="4" >
	<path d="
	M 1304.92 -979.25 
	C 1292.46 -987.32 1280.37 -995.43 1272.64 -1000.86 
	C 1249.42 -1017.2 1237.12 -1039.26 1237.12 -1064.52 
	C 1237.12 -1105.96 1269.6 -1139.3 1311.2 -1139.3 
	C 1351.79 -1139.3 1383.25 -1107.98 1384.27 -1064.52 
	L 1344.69 -1064.52 
	C 1343.68 -1084.73 1329.47 -1097.87 1311.2 -1097.87 
	C 1291.92 -1097.87 1276.7 -1083.72 1276.7 -1064.52 
	C 1276.7 -1050.38 1282.79 -1042.29 1304.1 -1030.16 
	C 1359.91 -997.83 1384.27 -966.5 1384.27 -925.07 
	C 1384.27 -878.59 1348.75 -841.2 1304.1 -841.2 
	C 1253.36 -841.2 1222.92 -883.64 1222.92 -931.13 
	L 1263.51 -931.13 
	C 1263.51 -906.88 1275.69 -881.62 1304.1 -881.62 
	C 1326.43 -881.62 1344.69 -901.83 1344.69 -925.07 
	C 1344.69 -943.12 1337.23 -958.32 1304.92 -979.25 
	Z 
	"/>
</g>
<g fill="#7f7f7f" fill-rule="nonzero" stroke-width="0" stroke-linejoin="miter" stroke-linecap="butt" stroke-miterlimit="4" >
	<path d="
	M 1144.3 -1095.85 
	L 1144.3 -846.25 
	L 1102.75 -846.25 
	L 1102.75 -1095.85 
	L 1050.04 -1095.85 
	L 1050.04 -1134.25 
	L 1197 -1134.25 
	L 1197 -1095.85 
	Z 
	"/>
</g>
<g fill="#7f7f7f" fill-rule="nonzero" stroke-width="0" stroke-linejoin="miter" stroke-linecap="butt" stroke-miterlimit="4" >
	<path d="
	M 1308.44 54.379 
	C 1297.28 79.648 1273.93 94.801 1244.51 94.801 
	C 1210 94.801 1184.63 77.629 1170.43 45.289 
	C 1161.29 24.07 1155.2 -16.352 1155.2 -53.738 
	C 1155.2 -94.16 1158.25 -123.469 1168.4 -150.75 
	C 1178.54 -181.07 1207.97 -203.301 1241.46 -203.301 
	C 1283.07 -203.301 1314.53 -172.988 1316.55 -130.539 
	L 1274.95 -130.539 
	C 1273.93 -149.738 1260.74 -162.879 1240.45 -162.879 
	C 1226.24 -162.879 1215.08 -155.809 1207.97 -141.66 
	C 1199.86 -127.512 1194.78 -95.18 1194.78 -60.82 
	C 1194.78 -36.559 1196.81 -11.301 1200.87 10.93 
	C 1206.96 39.219 1221.16 54.379 1243.49 54.379 
	C 1264.8 54.379 1274.95 40.238 1274.95 9.922 
	L 1274.95 -9.28101 
	L 1242.48 -9.28101 
	L 1242.48 -49.699 
	L 1316.55 -49.699 
	L 1316.55 9.922 
	C 1316.55 30.129 1314.53 42.262 1308.44 54.379 
	Z 
	"/>
</g>
<g fill="#7f7f7f" fill-rule="nonzero" stroke-width="0" stroke-linejoin="miter" stroke-linecap="butt" stroke-miterlimit="4" >
	<path d="
	M 832.57 89.75 
	L 832.57 -198.25 
	L 872.891 -198.25 
	L 872.891 89.75 
	Z 
	"/>
</g>
<g fill="#7f7f7f" fill-rule="nonzero" stroke-width="0" stroke-linejoin="miter" stroke-linecap="butt" stroke-miterlimit="4" >
	<path d="
	M 1066.34 89.75 
	L 977.598 -103.262 
	L 977.598 89.75 
	L 936.254 89.75 
	L 936.254 -198.25 
	L 977.598 -198.25 
	L 1056.26 -25.449 
	L 1056.26 -198.25 
	L 1097.6 -198.25 
	L 1097.6 89.75 
	Z 
	"/>
</g>
<g fill="#7f7f7f" fill-rule="nonzero" stroke-width="0" stroke-linejoin="miter" stroke-linecap="butt" stroke-miterlimit="4" >
	<path d="
	M 704.266 -43.25 
	C 691.805 -51.32 679.707 -59.422 671.984 -64.859 
	C 648.766 -81.199 636.465 -103.262 636.465 -128.52 
	C 636.465 -169.961 668.938 -203.301 710.547 -203.301 
	C 751.137 -203.301 782.598 -171.969 783.609 -128.52 
	L 744.031 -128.52 
	C 743.02 -148.73 728.813 -161.871 710.547 -161.871 
	C 691.266 -161.871 676.043 -147.719 676.043 -128.52 
	C 676.043 -114.371 682.133 -106.289 703.441 -94.16 
	C 759.258 -61.828 783.609 -30.5 783.609 10.93 
	C 783.609 57.41 748.094 94.801 703.441 94.801 
	C 652.703 94.801 622.258 52.359 622.258 4.87097 
	L 662.852 4.87097 
	C 662.852 29.121 675.027 54.379 703.441 54.379 
	C 725.77 54.379 744.031 34.172 744.031 10.93 
	C 744.031 -7.12097 736.574 -22.32 704.266 -43.25 
	Z 
	"/>
</g>
<g fill="#7f7f7f" fill-rule="nonzero" stroke-width="0" stroke-linejoin="miter" stroke-linecap="butt" stroke-miterlimit="4" >
	<path d="
	M 562.207 54.379 
	C 548.086 77.629 520.859 94.801 493.633 94.801 
	C 465.395 94.801 437.156 78.629 423.039 54.379 
	C 414.973 39.219 411.945 27.102 411.945 3.85901 
	L 411.945 -198.25 
	L 453.293 -198.25 
	L 453.293 8.90997 
	C 453.293 36.191 469.43 54.379 493.633 54.379 
	C 515.816 54.379 531.953 36.191 531.953 8.90997 
	L 531.953 -198.25 
	L 573.301 -198.25 
	L 573.301 3.85901 
	C 573.301 27.102 570.273 39.219 562.207 54.379 
	Z 
	"/>
</g>
<g fill="#7f7f7f" fill-rule="nonzero" stroke-width="0" stroke-linejoin="miter" stroke-linecap="butt" stroke-miterlimit="4" >
	<path d="
	M 1212.12 -378.25 
	L 1212.12 -666.25 
	L 1347.92 -666.25 
	L 1347.92 -625.83 
	L 1253.67 -625.83 
	L 1253.67 -553.07 
	L 1313.46 -553.07 
	L 1313.46 -513.66 
	L 1253.67 -513.66 
	L 1253.67 -418.67 
	L 1359.07 -418.67 
	L 1359.07 -378.25 
	Z 
	"/>
</g>
<g fill="#7f7f7f" fill-rule="nonzero" stroke-width="0" stroke-linejoin="miter" stroke-linecap="butt" stroke-miterlimit="4" >
	<path d="
	M 1107.41 -378.25 
	L 1107.41 -508.61 
	L 1028.75 -508.61 
	L 1028.75 -378.25 
	L 987.406 -378.25 
	L 987.406 -666.25 
	L 1028.75 -666.25 
	L 1028.75 -549.03 
	L 1107.41 -549.03 
	L 1107.41 -666.25 
	L 1148.76 -666.25 
	L 1148.76 -378.25 
	Z 
	"/>
</g>
<g fill="#7f7f7f" fill-rule="nonzero" stroke-width="0" stroke-linejoin="miter" stroke-linecap="butt" stroke-miterlimit="4" >
	<path d="
	M 516.801 -378.25 
	L 428.059 -571.26 
	L 428.059 -378.25 
	L 386.711 -378.25 
	L 386.711 -666.25 
	L 428.059 -666.25 
	L 506.715 -493.45 
	L 506.715 -666.25 
	L 548.063 -666.25 
	L 548.063 -378.25 
	Z 
	"/>
</g>
<g fill="#7f7f7f" fill-rule="nonzero" stroke-width="0" stroke-linejoin="miter" stroke-linecap="butt" stroke-miterlimit="4" >
	<path d="
	M 1538.12 -378.25 
	L 1449.38 -571.26 
	L 1449.38 -378.25 
	L 1408.03 -378.25 
	L 1408.03 -666.25 
	L 1449.38 -666.25 
	L 1528.04 -493.45 
	L 1528.04 -666.25 
	L 1569.38 -666.25 
	L 1569.38 -378.25 
	Z 
	"/>
</g>
<g fill="#7f7f7f" fill-rule="nonzero" stroke-width="0" stroke-linejoin="miter" stroke-linecap="butt" stroke-miterlimit="4" >
	<path d="
	M 280.25 -594.5 
	C 273.125 -619.77 261.93 -630.88 244.621 -630.88 
	C 226.301 -630.88 215.105 -619.77 207.98 -595.51 
	C 200.852 -573.28 198.816 -554.08 198.816 -521.74 
	C 198.816 -490.42 201.871 -472.23 207.98 -448.98 
	C 215.105 -424.73 226.301 -413.62 244.621 -413.62 
	C 261.93 -413.62 273.125 -424.73 280.25 -448.98 
	C 287.375 -472.23 289.41 -489.41 289.41 -522.75 
	C 289.41 -555.09 286.355 -573.28 280.25 -594.5 
	Z 
	M 312.824 -422.71 
	C 298.57 -388.36 277.195 -373.2 244.621 -373.2 
	C 210.016 -373.2 189.656 -388.36 175.406 -422.71 
	C 163.188 -451.01 159.117 -478.29 159.117 -522.75 
	C 159.117 -566.21 163.188 -595.51 175.406 -622.8 
	C 190.676 -657.15 211.031 -671.3 244.621 -671.3 
	C 278.215 -671.3 298.57 -657.15 312.824 -621.79 
	C 325.039 -593.49 329.109 -566.21 329.109 -522.75 
	C 329.109 -478.29 325.039 -450 312.824 -422.71 
	Z 
	"/>
</g>
<g fill="#7f7f7f" fill-rule="nonzero" stroke-width="0" stroke-linejoin="miter" stroke-linecap="butt" stroke-miterlimit="4" >
	<path d="
	M 900.441 -378.25 
	L 864.953 -378.25 
	L 837.574 -528.82 
	L 810.195 -378.25 
	L 773.691 -378.25 
	L 728.063 -666.25 
	L 768.621 -666.25 
	L 792.957 -512.65 
	L 821.352 -666.25 
	L 853.797 -666.25 
	L 881.176 -512.65 
	L 906.527 -666.25 
	L 947.086 -666.25 
	Z 
	"/>
</g>
<g fill="#7f7f7f" fill-rule="nonzero" stroke-width="0" stroke-linejoin="miter" stroke-linecap="butt" stroke-miterlimit="4" >
	<path d="
	M 878.648 557.75 
	L 878.648 269.75 
	L 1014.45 269.75 
	L 1014.45 310.172 
	L 920.199 310.172 
	L 920.199 382.93 
	L 979.996 382.93 
	L 979.996 422.34 
	L 920.199 422.34 
	L 920.199 517.328 
	L 1025.6 517.328 
	L 1025.6 557.75 
	Z 
	"/>
</g>
<g fill="#7f7f7f" fill-rule="nonzero" stroke-width="0" stroke-linejoin="miter" stroke-linecap="butt" stroke-miterlimit="4" >
	<path d="
	M 556.016 557.75 
	L 556.016 269.75 
	L 596.336 269.75 
	L 596.336 557.75 
	Z 
	"/>
</g>
<g fill="#7f7f7f" fill-rule="nonzero" stroke-width="0" stroke-linejoin="miter" stroke-linecap="butt" stroke-miterlimit="4" >
	<path d="
	M 743.398 310.172 
	L 701.043 310.172 
	L 701.043 392.031 
	L 743.398 392.031 
	C 767.602 392.031 780.711 376.871 780.711 350.59 
	C 780.711 326.34 765.582 310.172 743.398 310.172 
	Z 
	M 745.414 431.441 
	L 701.043 431.441 
	L 701.043 557.75 
	L 659.695 557.75 
	L 659.695 269.75 
	L 745.414 269.75 
	C 790.793 269.75 821.047 302.09 821.047 350.59 
	C 821.047 403.141 793.82 431.441 745.414 431.441 
	Z 
	"/>
</g>
<g fill="#7f7f7f" fill-rule="nonzero" stroke-width="0" stroke-linejoin="miter" stroke-linecap="butt" stroke-miterlimit="4" >
	<path d="
	M 1158.27 310.172 
	L 1115.91 310.172 
	L 1115.91 382.93 
	L 1158.27 382.93 
	C 1182.47 382.93 1195.58 369.789 1195.58 346.551 
	C 1195.58 324.32 1180.45 310.172 1158.27 310.172 
	Z 
	M 1193.56 557.75 
	L 1155.24 422.34 
	L 1115.91 422.34 
	L 1115.91 557.75 
	L 1074.56 557.75 
	L 1074.56 269.75 
	L 1160.28 269.75 
	C 1205.66 269.75 1235.92 300.07 1235.92 346.551 
	C 1235.92 380.91 1221.8 406.172 1194.57 416.281 
	L 1235.92 557.75 
	Z 
	"/>
</g>
<g fill="#7f7f7f" fill-rule="nonzero" stroke-width="0" stroke-linejoin="miter" stroke-linecap="butt" stroke-miterlimit="4" >
	<path d="
	M 1352.48 424.75 
	C 1340.02 416.68 1327.92 408.578 1320.2 403.141 
	C 1296.98 386.801 1284.68 364.738 1284.68 339.48 
	C 1284.68 298.039 1317.16 264.699 1358.76 264.699 
	C 1399.35 264.699 1430.81 296.031 1431.83 339.48 
	L 1392.25 339.48 
	C 1391.24 319.27 1377.03 306.129 1358.76 306.129 
	C 1339.48 306.129 1324.26 320.281 1324.26 339.48 
	C 1324.26 353.629 1330.35 361.711 1351.66 373.84 
	C 1407.47 406.172 1431.83 437.5 1431.83 478.93 
	C 1431.83 525.41 1396.31 562.801 1351.66 562.801 
	C 1300.92 562.801 1270.47 520.359 1270.47 472.871 
	L 1311.07 472.871 
	C 1311.07 497.121 1323.24 522.379 1351.66 522.379 
	C 1373.98 522.379 1392.25 502.172 1392.25 478.93 
	C 1392.25 460.879 1384.79 445.68 1352.48 424.75 
	Z 
	"/>
</g>
<g fill="#7f7f7f" fill-rule="nonzero" stroke-width="0" stroke-linejoin="miter" stroke-linecap="butt" stroke-miterlimit="4" >
	<path d="
	M 469.051 557.75 
	L 433.563 557.75 
	L 406.184 407.18 
	L 378.805 557.75 
	L 342.301 557.75 
	L 296.672 269.75 
	L 337.23 269.75 
	L 361.57 423.352 
	L 389.961 269.75 
	L 422.41 269.75 
	L 449.785 423.352 
	L 475.137 269.75 
	L 515.695 269.75 
	Z 
	"/>
</g>
</g >
</g>
</svg>
