<?xml version="1.0" encoding="UTF-8" standalone="no"?>
<!-- Created with Inkscape (http://www.inkscape.org/) -->

<svg
   version="1.1"
   id="svg1"
   width="9216.667"
   height="2880.6667"
   viewBox="0 0 9216.667 2880.6667"
   sodipodi:docname="tmp6ssqodse.pdf"
   xmlns:inkscape="http://www.inkscape.org/namespaces/inkscape"
   xmlns:sodipodi="http://sodipodi.sourceforge.net/DTD/sodipodi-0.dtd"
   xmlns="http://www.w3.org/2000/svg"
   xmlns:svg="http://www.w3.org/2000/svg">
  <defs
     id="defs1" />
  <sodipodi:namedview
     id="namedview1"
     pagecolor="#ffffff"
     bordercolor="#000000"
     borderopacity="0.25"
     inkscape:showpageshadow="2"
     inkscape:pageopacity="0.0"
     inkscape:pagecheckerboard="0"
     inkscape:deskcolor="#d1d1d1">
    <inkscape:page
       x="0"
       y="0"
       inkscape:label="1"
       id="page1"
       width="9216.667"
       height="2880.6667"
       margin="0"
       bleed="0" />
  </sodipodi:namedview>
  <g
     id="g1"
     inkscape:groupmode="layer"
     inkscape:label="1">
    <g
       id="group-R5">
      <path
         id="path2"
         d="m 69122.5,1352.5 c 0,-745.602 -604.4,-1350 -1350,-1350 H 1352.5 C 606.914,2.5 2.5,606.898 2.5,1352.5 v 18900 c 0,745.6 604.414,1350 1350,1350 h 66420 c 745.6,0 1350,-604.4 1350,-1350 v -18900"
         style="fill:#ffffff;fill-opacity:1;fill-rule:nonzero;stroke:none"
         transform="matrix(0.13333333,0,0,-0.13333333,0,2880.6667)" />
      <path
         id="path3"
         d="m 69122.5,1352.5 c 0,-745.602 -604.4,-1350 -1350,-1350 H 1352.5 C 606.914,2.5 2.5,606.898 2.5,1352.5 v 18900 c 0,745.6 604.414,1350 1350,1350 h 66420 c 745.6,0 1350,-604.4 1350,-1350 z"
         style="fill:none;stroke:#231f20;stroke-width:5;stroke-linecap:butt;stroke-linejoin:miter;stroke-miterlimit:4;stroke-dasharray:none;stroke-opacity:1"
         transform="matrix(0.13333333,0,0,-0.13333333,0,2880.6667)" />
      <path
         id="path4"
         d="m 1352.5,362.5 c -545.891,0 -990,444.102 -990,990 v 18900 c 0,545.9 444.109,990 990,990 h 66420 c 545.9,0 990,-444.1 990,-990 v -18900 c 0,-545.898 -444.1,-990 -990,-990 h -66420"
         style="fill:#231f20;fill-opacity:1;fill-rule:nonzero;stroke:none"
         transform="matrix(0.13333333,0,0,-0.13333333,0,2880.6667)" />
      <path
         id="path5"
         d="m 1352.5,902.5 c -248.13,0 -450,201.9 -450,450 v 18900 c 0,248.1 201.87,450 450,450 h 66420 c 248.1,0 450,-201.9 450,-450 v -18900 c 0,-248.1 -201.9,-450 -450,-450 h -66420"
         style="fill:#ffffff;fill-opacity:1;fill-rule:nonzero;stroke:none"
         transform="matrix(0.13333333,0,0,-0.13333333,0,2880.6667)" />
      <path
         id="path6"
         d="M 17020.9,12602.5 15368.6,15528 v -2925.5 h -682.2 v 4320 h 682.2 l 1576.5,-2758.8 v 2758.8 h 682.1 v -4320 h -606.3"
         style="fill:#231f20;fill-opacity:1;fill-rule:nonzero;stroke:none"
         transform="matrix(0.13333333,0,0,-0.13333333,0,2880.6667)" />
      <path
         id="path7"
         d="m 23354.5,15967.5 c -136.7,227.4 -303.9,318.4 -562.2,333.5 -334.3,15.2 -547,-151.6 -699,-530.5 -106.3,-257.7 -167.1,-651.8 -167.1,-1015.6 0,-454.7 91.2,-924.6 258.3,-1197.5 136.8,-227.3 319.1,-333.5 592.6,-333.5 319.1,0 516.6,166.8 668.6,545.8 91.1,227.3 167.1,651.7 167.1,985.2 0,485.1 -91.1,924.6 -258.3,1212.6 z m 471.1,-2955.7 c -243.2,-333.5 -592.7,-485.1 -1048.5,-485.1 -607.8,0 -987.7,242.6 -1246,773.1 -182.3,363.8 -303.9,939.7 -303.9,1455.1 0,712.4 182.4,1349 471.1,1758.3 258.3,333.5 607.8,485.1 1109.2,485.1 547,0 926.9,-242.6 1200.4,-773.1 182.3,-378.9 288.7,-924.6 288.7,-1470.3 0,-682.1 -167.1,-1364.2 -471,-1743.1"
         style="fill:#231f20;fill-opacity:1;fill-rule:nonzero;stroke:none"
         transform="matrix(0.13333333,0,0,-0.13333333,0,2880.6667)" />
      <path
         id="path8"
         d="m 50331.4,12602.5 v 4320 h 691.2 v -4320 h -691.2"
         style="fill:#231f20;fill-opacity:1;fill-rule:nonzero;stroke:none"
         transform="matrix(0.13333333,0,0,-0.13333333,0,2880.6667)" />
      <path
         id="path9"
         d="m 47003.9,12602.5 v 4320 h 681.2 v -3683.4 h 1998.3 v -636.6 h -2679.5"
         style="fill:#231f20;fill-opacity:1;fill-rule:nonzero;stroke:none"
         transform="matrix(0.13333333,0,0,-0.13333333,0,2880.6667)" />
      <path
         id="path10"
         d="m 9777.31,13254.3 c -227.39,-424.4 -742.78,-727.6 -1273.35,-727.6 -530.56,0 -1045.96,303.2 -1273.36,727.6 -121.25,257.7 -197.06,560.8 -197.06,894.3 v 2773.9 h 682.13 v -2773.9 c 0,-560.8 318.35,-924.7 788.29,-924.7 469.92,0 788.27,363.9 788.27,924.7 v 2773.9 h 682.15 v -2773.9 c 0,-333.5 -75.79,-636.6 -197.07,-894.3"
         style="fill:#231f20;fill-opacity:1;fill-rule:nonzero;stroke:none"
         transform="matrix(0.13333333,0,0,-0.13333333,0,2880.6667)" />
      <path
         id="path11"
         d="m 5380.73,16316.2 v -3713.7 h -685.06 v 3713.7 h -989.62 v 606.3 h 2679.5 v -606.3 H 5380.73"
         style="fill:#231f20;fill-opacity:1;fill-rule:nonzero;stroke:none"
         transform="matrix(0.13333333,0,0,-0.13333333,0,2880.6667)" />
      <path
         id="path12"
         d="m 61127.7,16316.2 v -3713.7 h -685.1 v 3713.7 H 59453 v 606.3 h 2679.5 v -606.3 h -1004.8"
         style="fill:#231f20;fill-opacity:1;fill-rule:nonzero;stroke:none"
         transform="matrix(0.13333333,0,0,-0.13333333,0,2880.6667)" />
      <path
         id="path13"
         d="m 12906,16164.6 c -106.1,60.6 -166.7,75.8 -394.1,75.8 h -818.6 v -1061.1 h 818.6 c 212.2,0 288,15.2 394.1,75.8 166.8,91 272.9,272.9 272.9,454.7 0,182 -106.1,363.9 -272.9,454.8 z m 303.2,-3562.1 -697.3,1879.6 h -818.6 v -1879.6 h -682.1 v 4320 h 1424.9 c 333.5,0 560.9,-30.3 773.1,-136.4 379,-181.9 651.9,-636.7 651.9,-1076.3 0,-454.7 -272.9,-909.4 -667,-1091.3 l 757.9,-2016 h -742.8"
         style="fill:#231f20;fill-opacity:1;fill-rule:nonzero;stroke:none"
         transform="matrix(0.13333333,0,0,-0.13333333,0,2880.6667)" />
      <path
         id="path14"
         d="m 64994.5,12860.2 c -242.5,-212.2 -576,-333.5 -939.9,-333.5 -742.7,0 -1288.5,439.6 -1576.5,1091.4 l 651.8,242.5 c 182,-409.2 515.4,-636.6 924.7,-636.6 394.2,0 667,272.8 667,636.6 0,576 -667,666.9 -1227.9,894.3 -257.6,106.1 -833.7,363.8 -833.7,1076.2 0,848.9 576.1,1167.2 1349.2,1167.2 606.3,0 1015.6,-348.6 1227.8,-879.2 l -606.3,-181.8 c 0,0 -151.6,363.7 -636.7,378.9 -318.3,15.2 -697.3,-106.1 -667,-500.2 60.7,-803.4 2091.9,-272.9 2091.9,-1970.5 0,-394.1 -151.5,-742.8 -424.4,-985.3"
         style="fill:#231f20;fill-opacity:1;fill-rule:nonzero;stroke:none"
         transform="matrix(0.13333333,0,0,-0.13333333,0,2880.6667)" />
      <path
         id="path15"
         d="m 34046.5,12602.5 v 1879.6 h -1576.6 v -1879.6 h -682.1 v 4320 h 682.1 v -1743.2 h 1576.6 v 1743.2 h 682.2 v -4320 h -682.2"
         style="fill:#231f20;fill-opacity:1;fill-rule:nonzero;stroke:none"
         transform="matrix(0.13333333,0,0,-0.13333333,0,2880.6667)" />
      <path
         id="path16"
         d="m 58122.9,12602.5 v 1879.6 h -1576.5 v -1879.6 h -682.2 v 4320 h 682.2 v -1743.2 h 1576.5 v 1743.2 h 682.2 v -4320 h -682.2"
         style="fill:#231f20;fill-opacity:1;fill-rule:nonzero;stroke:none"
         transform="matrix(0.13333333,0,0,-0.13333333,0,2880.6667)" />
      <path
         id="path17"
         d="m 45007.5,16058.5 c -106.1,106.1 -257.7,181.9 -439.6,181.9 h -773.1 v -2940.6 h 682.1 c 227.4,0 363.8,45.4 485.1,166.7 257.7,257.7 394.1,727.6 394.1,1303.6 0,576 -136.4,1061 -348.6,1288.4 z m 288,-3213.5 c -166.7,-151.6 -394.1,-227.4 -621.5,-242.5 -45.4,0 -136.4,0 -242.5,0 h -1318.9 v 4320 h 1394.6 c 439.7,0 606.4,-45.5 833.8,-227.4 454.8,-394.1 712.5,-1076.2 712.5,-1925 0,-864 -272.9,-1546.2 -758,-1925.1"
         style="fill:#231f20;fill-opacity:1;fill-rule:nonzero;stroke:none"
         transform="matrix(0.13333333,0,0,-0.13333333,0,2880.6667)" />
      <path
         id="path18"
         d="m 35765.4,12602.5 v 4320 h 2543.2 v -682.1 h -1862 v -1061.1 h 1256.5 v -697.2 h -1256.5 v -1182.3 h 1998.3 v -697.3 h -2679.5"
         style="fill:#231f20;fill-opacity:1;fill-rule:nonzero;stroke:none"
         transform="matrix(0.13333333,0,0,-0.13333333,0,2880.6667)" />
      <path
         id="path19"
         d="m 40635.2,15725 -442.1,-1212.6 h 869 z m 1097.7,-3122.5 -426.9,1212.6 h -1356.8 l -426.9,-1212.6 h -731.8 l 1494.1,4320 h 686 l 1494,-4320 h -731.7"
         style="fill:#231f20;fill-opacity:1;fill-rule:nonzero;stroke:none"
         transform="matrix(0.13333333,0,0,-0.13333333,0,2880.6667)" />
      <path
         id="path20"
         d="m 53549.5,12526.7 c -651.8,0 -1030.8,242.5 -1288.5,788.2 -181.9,379 -288,909.5 -288,1440 0,697.3 197,1379.4 485.1,1758.3 257.7,318.4 621.5,485.1 1106.6,485.1 667,0 1061.1,-272.9 1349.1,-955 l -651.8,-257.6 c -181.9,378.9 -363.8,515.3 -697.3,515.3 -348.7,0 -576.1,-151.6 -727.6,-530.5 -106.2,-257.7 -166.8,-651.8 -166.8,-1015.6 0,-454.7 75.8,-909.5 212.2,-1182.3 136.4,-242.5 333.5,-348.7 591.2,-348.7 439.6,0 758,272.9 758,667 v 181.9 h -788.3 v 682.1 h 1470.4 v -864 c 0,-788.2 -576,-1364.2 -1364.3,-1364.2"
         style="fill:#231f20;fill-opacity:1;fill-rule:nonzero;stroke:none"
         transform="matrix(0.13333333,0,0,-0.13333333,0,2880.6667)" />
      <path
         id="path21"
         d="M 27581.5,12602.5 25929.1,15528 V 12602.5 H 25247 v 4320 h 682.1 l 1576.5,-2758.7 v 2758.7 h 682.2 v -4320 h -606.3"
         style="fill:#231f20;fill-opacity:1;fill-rule:nonzero;stroke:none"
         transform="matrix(0.13333333,0,0,-0.13333333,0,2880.6667)" />
      <path
         id="path22"
         d="m 44546,4682.5 v 4320 h 691.2 v -4320 H 44546"
         style="fill:#231f20;fill-opacity:1;fill-rule:nonzero;stroke:none"
         transform="matrix(0.13333333,0,0,-0.13333333,0,2880.6667)" />
      <path
         id="path23"
         d="m 46274,4682.5 v 4320 h 681.2 V 5319.1 h 1998.3 V 4682.5 H 46274"
         style="fill:#231f20;fill-opacity:1;fill-rule:nonzero;stroke:none"
         transform="matrix(0.13333333,0,0,-0.13333333,0,2880.6667)" />
      <path
         id="path24"
         d="m 42825.7,4682.5 v 2501 l -1002.4,-2501 -1002.4,2501 v -2501 h -683.5 v 4320 h 683.5 l 1002.4,-2425.3 1002.4,2425.3 h 683.4 v -4320 h -683.4"
         style="fill:#231f20;fill-opacity:1;fill-rule:nonzero;stroke:none"
         transform="matrix(0.13333333,0,0,-0.13333333,0,2880.6667)" />
      <path
         id="path25"
         d="M 25521.3,8396.2 V 4682.5 h -685 v 3713.7 h -989.6 v 606.3 h 2679.5 v -606.3 h -1004.9"
         style="fill:#231f20;fill-opacity:1;fill-rule:nonzero;stroke:none"
         transform="matrix(0.13333333,0,0,-0.13333333,0,2880.6667)" />
      <path
         id="path26"
         d="m 55229.4,4940.2 c -242.5,-212.2 -576.1,-333.5 -939.9,-333.5 -742.7,0 -1288.5,439.6 -1576.5,1091.4 l 651.8,242.5 c 182,-409.2 515.4,-636.6 924.7,-636.6 394.2,0 667,272.8 667,636.6 0,576 -667,666.9 -1227.8,894.3 -257.8,106.1 -833.8,363.8 -833.8,1076.2 0,848.9 576,1167.2 1349.2,1167.2 606.3,0 1015.6,-348.7 1227.8,-879.2 l -606.3,-181.8 c 0,0 -151.6,363.7 -636.7,378.9 -318.4,15.1 -697.3,-106.1 -667,-500.2 60.7,-803.4 2091.9,-272.9 2091.9,-1970.5 0,-394.1 -151.6,-742.8 -424.4,-985.3"
         style="fill:#231f20;fill-opacity:1;fill-rule:nonzero;stroke:none"
         transform="matrix(0.13333333,0,0,-0.13333333,0,2880.6667)" />
      <path
         id="path27"
         d="m 22728,4682.5 -697.3,1440 -697.3,-1440 h -773.1 l 1076.3,2228.2 -1000.5,2091.8 h 773.1 l 621.5,-1288.4 621.5,1288.4 h 773.2 L 22409.7,6910.7 23501.1,4682.5 H 22728"
         style="fill:#231f20;fill-opacity:1;fill-rule:nonzero;stroke:none"
         transform="matrix(0.13333333,0,0,-0.13333333,0,2880.6667)" />
      <path
         id="path28"
         d="m 49601.5,4682.5 v 4320 h 2543.2 v -682.1 h -1862 V 7259.3 h 1256.5 V 6562.1 H 50282.7 V 5379.8 H 52281 v -697.3 h -2679.5"
         style="fill:#231f20;fill-opacity:1;fill-rule:nonzero;stroke:none"
         transform="matrix(0.13333333,0,0,-0.13333333,0,2880.6667)" />
      <path
         id="path29"
         d="m 17448.8,4682.5 v 4320 h 2543.3 V 8320.4 H 18130 V 7259.3 h 1256.5 V 6562.1 H 18130 V 5379.8 h 1998.3 v -697.3 h -2679.5"
         style="fill:#231f20;fill-opacity:1;fill-rule:nonzero;stroke:none"
         transform="matrix(0.13333333,0,0,-0.13333333,0,2880.6667)" />
      <path
         id="path30"
         d="M 31236.2,4682.5 V 8184 h -390 v 545.7 h 45 c 180,0 375,106.1 495,272.8 h 540 v -4320 h -690"
         style="fill:#231f20;fill-opacity:1;fill-rule:nonzero;stroke:none"
         transform="matrix(0.13333333,0,0,-0.13333333,0,2880.6667)" />
      <path
         id="path31"
         d="m 33937.7,4606.7 c -379,0 -758,90.9 -1061.1,242.5 l 333.5,606.3 c 181.9,-90.9 500.2,-151.6 818.5,-151.6 621.6,0 1106.7,409.3 1106.7,970.2 0,424.4 -348.7,757.8 -773.1,757.8 -303.2,0 -439.7,-90.9 -697.4,-454.7 l -682.1,197.1 106.1,2228.2 h 2486.1 v -682.1 h -1819.1 l -45.5,-712.4 c 318.3,90.9 454.8,121.2 667,121.2 788.3,0 1440.1,-666.9 1440.1,-1455.1 0,-955 -788.2,-1667.4 -1879.7,-1667.4"
         style="fill:#231f20;fill-opacity:1;fill-rule:nonzero;stroke:none"
         transform="matrix(0.13333333,0,0,-0.13333333,0,2880.6667)" />
      <path
         id="path32"
         d="M 15805.7,4682.5 14153.3,7608 V 4682.5 h -682.1 v 4320 h 682.1 l 1576.5,-2758.8 v 2758.8 h 682.2 v -4320 h -606.3"
         style="fill:#231f20;fill-opacity:1;fill-rule:nonzero;stroke:none"
         transform="matrix(0.13333333,0,0,-0.13333333,0,2880.6667)" />
    </g>
  </g>
</svg>
