<?xml version="1.0" encoding="UTF-8" standalone="no"?>
<!-- Created with Inkscape (http://www.inkscape.org/) -->

<svg
   version="1.1"
   id="svg1"
   width="9216.667"
   height="5760.6665"
   viewBox="0 0 9216.667 5760.6665"
   sodipodi:docname="tmpkana106r.pdf"
   xmlns:inkscape="http://www.inkscape.org/namespaces/inkscape"
   xmlns:sodipodi="http://sodipodi.sourceforge.net/DTD/sodipodi-0.dtd"
   xmlns="http://www.w3.org/2000/svg"
   xmlns:svg="http://www.w3.org/2000/svg">
  <defs
     id="defs1" />
  <sodipodi:namedview
     id="namedview1"
     pagecolor="#ffffff"
     bordercolor="#000000"
     borderopacity="0.25"
     inkscape:showpageshadow="2"
     inkscape:pageopacity="0.0"
     inkscape:pagecheckerboard="0"
     inkscape:deskcolor="#d1d1d1">
    <inkscape:page
       x="0"
       y="0"
       inkscape:label="1"
       id="page1"
       width="9216.667"
       height="5760.6665"
       margin="0"
       bleed="0" />
  </sodipodi:namedview>
  <g
     id="g1"
     inkscape:groupmode="layer"
     inkscape:label="1">
    <g
       id="group-R5">
      <path
         id="path2"
         d="M 2162.5,1.20313 C 1585.21,1.20313 1042.48,226.098 634.27,634.301 226.059,1042.5 1.25,1585.2 1.25,2162.5 v 38880 c 0,577.3 224.809,1120 633.02,1528.2 408.21,408.2 950.94,633.1 1528.23,633.1 h 64800 c 577.3,0 1120,-224.9 1528.2,-633.1 408.2,-408.2 633.1,-950.9 633.1,-1528.2 v -38880 c 0,-577.3 -224.9,-1120 -633.1,-1528.199 C 68082.5,226.098 67539.8,1.20313 66962.5,1.20313 h -64800"
         style="fill:#ffffff;fill-opacity:1;fill-rule:nonzero;stroke:none"
         transform="matrix(0.13333333,0,0,-0.13333333,0,5760.6667)" />
      <path
         id="path3"
         d="m 66962.5,43205 h -64800 c -291.93,0 -575.13,-57.2 -841.74,-169.9 -257.51,-109 -488.776,-264.9 -687.377,-463.5 C 434.785,42373 278.859,42141.8 169.941,41884.2 57.1758,41617.6 0,41334.4 0,41042.5 V 2162.5 C 0,1870.6 57.1758,1587.4 169.941,1320.8 278.859,1063.3 434.785,832 633.383,633.398 831.984,434.801 1063.25,278.902 1320.76,169.902 1587.37,57.2031 1870.57,0 2162.5,0 h 64800 c 291.9,0 575.1,57.2031 841.7,169.902 257.6,109 488.8,264.899 687.4,463.496 198.6,198.602 354.5,429.902 463.5,687.402 112.7,266.6 169.9,549.8 169.9,841.7 v 38880 c 0,291.9 -57.2,575.1 -169.9,841.7 -109,257.6 -264.9,488.8 -463.5,687.4 -198.6,198.6 -429.8,354.5 -687.4,463.5 -266.6,112.7 -549.8,169.9 -841.7,169.9 z m 0,-2.5 c 1192.9,0 2160,-967.1 2160,-2160 v -38880 c 0,-1192.898 -967.1,-2160 -2160,-2160 H 2162.5 C 969.566,2.5 2.5,969.602 2.5,2162.5 v 38880 c 0,1192.9 967.066,2160 2160,2160 h 64800"
         style="fill:#231f20;fill-opacity:1;fill-rule:nonzero;stroke:none"
         transform="matrix(0.13333333,0,0,-0.13333333,0,5760.6667)" />
      <path
         id="path4"
         d="M 69122.5,30242.5 H 2.5 v 10800 c 0,1192.9 967.066,2160 2160,2160 h 64800 c 1192.9,0 2160,-967.1 2160,-2160 v -10800"
         style="fill:#fccc2d;fill-opacity:1;fill-rule:nonzero;stroke:none"
         transform="matrix(0.13333333,0,0,-0.13333333,0,5760.6667)" />
      <path
         id="path5"
         d="M 68402.5,30242.5 H 722.5 v 900 h 67680 v -900"
         style="fill:#231f20;fill-opacity:1;fill-rule:nonzero;stroke:none"
         transform="matrix(0.13333333,0,0,-0.13333333,0,5760.6667)" />
      <path
         id="path6"
         d="m 67682.5,2162.5 v 38880 c 0,397.6 -322.4,720 -720,720 h -64800 c -397.64,0 -720,-322.4 -720,-720 v -38880 c 0,-397.6 322.36,-720 720,-720 h 64800 c 397.6,0 720,322.4 720,720 z m -720,-1620 h -64800 c -894.7,0 -1620,725.3 -1620,1620 v 38880 c 0,894.7 725.3,1620 1620,1620 h 64800 c 894.7,0 1620,-725.3 1620,-1620 v -38880 c 0,-894.7 -725.3,-1620 -1620,-1620"
         style="fill:#231f20;fill-opacity:1;fill-rule:nonzero;stroke:none"
         transform="matrix(0.13333333,0,0,-0.13333333,0,5760.6667)" />
      <path
         id="path7"
         d="m 13759.9,35016.8 869,323.3 c 242.6,-545.7 686.9,-848.9 1232.6,-848.9 525.6,0 889.9,363.6 889.9,848.9 0,770.4 -889.2,889.2 -1637.2,1192.3 -343.5,141.9 -1111.7,485.3 -1111.7,1435 0,1132.5 767.5,1555.2 1798.5,1555.2 808.5,0 1354.3,-465.1 1637.2,-1172.2 l -808.5,-242.6 c -90.7,227.5 -419.7,505.4 -848.8,505.4 -821.5,0 -891.4,-438.4 -891.4,-582.4 0,-538.6 464.4,-645.2 1219.7,-882 768.9,-242 1571.7,-595.5 1571.7,-1830.3 0,-1243.4 -1008,-1756.8 -1819.4,-1756.8 -990.7,0 -1717.9,586.1 -2101.6,1455.1"
         style="fill:#231f20;fill-opacity:1;fill-rule:nonzero;stroke:none"
         transform="matrix(0.13333333,0,0,-0.13333333,0,5760.6667)" />
      <path
         id="path8"
         d="m 20374.5,33662.5 h -913.6 v 4951.4 h -1319 v 808.6 h 3572.5 v -808.6 h -1339.9 v -4951.4"
         style="fill:#231f20;fill-opacity:1;fill-rule:nonzero;stroke:none"
         transform="matrix(0.13333333,0,0,-0.13333333,0,5760.6667)" />
      <path
         id="path9"
         d="m 23930.6,36209.1 h 1158.5 l -569.5,1616.5 z m 1483.2,-929.5 h -1808.6 l -569.5,-1617.1 h -975.6 l 1992.2,5760 h 915.1 l 1991.4,-5760 h -975.5 l -569.5,1617.1"
         style="fill:#231f20;fill-opacity:1;fill-rule:nonzero;stroke:none"
         transform="matrix(0.13333333,0,0,-0.13333333,0,5760.6667)" />
      <path
         id="path10"
         d="m 29537.3,33662.5 h -913.6 v 4951.4 h -1319 v 808.6 h 3572.5 v -808.6 h -1339.9 v -4951.4"
         style="fill:#231f20;fill-opacity:1;fill-rule:nonzero;stroke:none"
         transform="matrix(0.13333333,0,0,-0.13333333,0,5760.6667)" />
      <path
         id="path11"
         d="m 31741.3,39422.5 h 3391.1 v -909.4 h -2482.5 v -1414.7 h 1675.4 v -929.6 H 32649.9 V 34592 h 2663.9 v -929.5 h -3572.5 v 5760"
         style="fill:#231f20;fill-opacity:1;fill-rule:nonzero;stroke:none"
         transform="matrix(0.13333333,0,0,-0.13333333,0,5760.6667)" />
      <path
         id="path12"
         d="m 41073.8,39422.5 h 908.6 v -4911.1 h 2663.8 v -848.9 h -3572.4 v 5760"
         style="fill:#231f20;fill-opacity:1;fill-rule:nonzero;stroke:none"
         transform="matrix(0.13333333,0,0,-0.13333333,0,5760.6667)" />
      <path
         id="path13"
         d="m 46862.3,36209.1 h 1158.4 l -569.5,1616.5 z m 1483.1,-929.5 h -1808.5 l -569.4,-1617.1 h -975.6 l 1992.1,5760 h 915 l 1991.4,-5760 h -975.5 l -569.5,1617.1"
         style="fill:#231f20;fill-opacity:1;fill-rule:nonzero;stroke:none"
         transform="matrix(0.13333333,0,0,-0.13333333,0,5760.6667)" />
      <path
         id="path14"
         d="m 53703.5,33662.5 -912.9,3698.6 -892,-3698.6 h -811.4 l -851,5760 h 932.4 l 446.3,-3031.9 729.3,3031.9 h 892.8 l 749.4,-3031.9 446.4,3031.9 h 932.3 l -851.7,-5760 h -809.9"
         style="fill:#231f20;fill-opacity:1;fill-rule:nonzero;stroke:none"
         transform="matrix(0.13333333,0,0,-0.13333333,0,5760.6667)" />
      <path
         id="path15"
         d="m 32166.3,24492.6 c 0,810 162.7,2970 2121.8,2970 835.1,0 1403.9,-339.9 1799.2,-1172.2 l -848.9,-363.6 c -294.4,423.4 -441.3,606.3 -949.6,606.3 -1205.2,0 -1192.3,-1679.8 -1192.3,-2041.2 0,-357.1 -22.3,-2062.1 1232.6,-2062.1 439.9,0 692.6,265.7 889.2,667.4 l 869,-323.2 c -324,-801.4 -868.3,-1272.3 -1738.7,-1272.3 -2072.8,0 -2182.3,2289.6 -2182.3,2990.9"
         style="fill:#231f20;fill-opacity:1;fill-rule:nonzero;stroke:none"
         transform="matrix(0.13333333,0,0,-0.13333333,0,5760.6667)" />
      <path
         id="path16"
         d="m 39407.3,25038.4 c 722.8,0 836.6,521.2 836.6,707 0,251.3 -187.9,707.7 -792.7,707.7 h -1187.9 v -1414.7 z m -1144,-928.8 v -2507.1 h -908.6 v 5760 h 2083.6 c 1320.4,0 1716.4,-1056.2 1716.4,-1617.8 0,-213.9 -79.2,-1056.3 -894.2,-1442.2 l 1015.1,-2700 h -990.7 l -929.4,2507.1 h -1092.2"
         style="fill:#231f20;fill-opacity:1;fill-rule:nonzero;stroke:none"
         transform="matrix(0.13333333,0,0,-0.13333333,0,5760.6667)" />
      <path
         id="path17"
         d="m 43607.1,24149.1 h 1158.4 l -569.4,1616.4 z m 1483.1,-929.5 h -1808.5 l -569.5,-1617.1 h -975.6 l 1992.2,5760 h 915.1 l 1991.4,-5760 h -975.6 l -569.5,1617.1"
         style="fill:#231f20;fill-opacity:1;fill-rule:nonzero;stroke:none"
         transform="matrix(0.13333333,0,0,-0.13333333,0,5760.6667)" />
      <path
         id="path18"
         d="m 47096.4,22954 869,322.5 c 241.9,-545 687.5,-847.4 1233.3,-847.4 545.7,0 889.1,362.9 889.1,847.4 0,769.7 -889.1,887.8 -1636.5,1190.9 -343.4,141.1 -1110.9,484.6 -1110.9,1433.5 0,1131.1 767.5,1553.8 1797.8,1553.8 807.8,0 1353.5,-464.4 1636.5,-1170.8 l -807.8,-241.9 c -133.2,260.7 -412.6,504.7 -897.1,504.7 -484.5,0 -843.1,-201.6 -843.1,-581.7 0,-537.9 465.8,-644.4 1219.6,-881.3 768.2,-241.2 1571,-594.7 1571,-1827.3 0,-1232.7 -1007.9,-1755.4 -1818.6,-1755.4 -990,0 -1717.9,584.6 -2102.3,1453"
         style="fill:#231f20;fill-opacity:1;fill-rule:nonzero;stroke:none"
         transform="matrix(0.13333333,0,0,-0.13333333,0,5760.6667)" />
      <path
         id="path19"
         d="m 55008.3,24108.8 h -2103 v -2506.3 h -908.6 v 5760 h 908.6 v -2324.1 h 2102.3 v 2324.1 h 910 v -5760 h -909.3 v 2506.3"
         style="fill:#231f20;fill-opacity:1;fill-rule:nonzero;stroke:none"
         transform="matrix(0.13333333,0,0,-0.13333333,0,5760.6667)" />
      <path
         id="path20"
         d="m 57300.2,27362.5 h 3391.1 v -909.4 h -2482.5 v -1414.7 h 1675.4 v -929.6 H 58208.8 V 22532 h 2663.9 v -929.5 h -3572.5 v 5760"
         style="fill:#231f20;fill-opacity:1;fill-rule:nonzero;stroke:none"
         transform="matrix(0.13333333,0,0,-0.13333333,0,5760.6667)" />
      <path
         id="path21"
         d="m 61448.9,22954 869,322.5 c 241.9,-545 687.6,-847.4 1233.3,-847.4 545.8,0 889.2,362.9 889.2,847.4 0,769.7 -889.2,887.8 -1636.5,1190.9 -343.4,141.1 -1110.9,484.6 -1110.9,1433.5 0,1131.1 767.5,1553.8 1797.8,1553.8 807.8,0 1353.5,-464.4 1636.4,-1170.8 l -807.8,-241.9 c -133.2,260.7 -412.5,504.7 -897,504.7 -484.6,0 -843.1,-201.6 -843.1,-581.7 0,-537.9 465.8,-644.4 1219.6,-881.3 768.2,-241.2 1571,-594.7 1571,-1827.3 0,-1232.7 -1008,-1755.4 -1818.7,-1755.4 -989.9,0 -1717.8,584.6 -2102.3,1453"
         style="fill:#231f20;fill-opacity:1;fill-rule:nonzero;stroke:none"
         transform="matrix(0.13333333,0,0,-0.13333333,0,5760.6667)" />
      <path
         id="path22"
         d="M 7339.15,24937.6 6003.61,21602.5 4666.62,24937.6 v -3335.1 h -911.48 v 5760 h 911.48 L 6003.61,24129 7339.15,27362.5 h 911.49 v -5760 h -911.49 v 3335.1"
         style="fill:#231f20;fill-opacity:1;fill-rule:nonzero;stroke:none"
         transform="matrix(0.13333333,0,0,-0.13333333,0,5760.6667)" />
      <path
         id="path23"
         d="m 9633.28,27362.5 h 921.52 v -5760 h -921.52 v 5760"
         style="fill:#231f20;fill-opacity:1;fill-rule:nonzero;stroke:none"
         transform="matrix(0.13333333,0,0,-0.13333333,0,5760.6667)" />
      <path
         id="path24"
         d="m 12845.8,25502.7 v -3900.2 h -908.6 v 5760 h 908.6 L 14948.2,23684 v 3678.5 h 910 v -5760 h -808.5 l -2203.9,3900.2"
         style="fill:#231f20;fill-opacity:1;fill-rule:nonzero;stroke:none"
         transform="matrix(0.13333333,0,0,-0.13333333,0,5760.6667)" />
      <path
         id="path25"
         d="m 19181.9,22430.5 c 620.6,0 1124.5,588.3 1124.5,2052 0,1463.8 -503.9,2052 -1124.5,2052 -620.7,0 -1124.6,-587.5 -1124.6,-2052 0,-1463.7 503.9,-2052 1124.6,-2052 z m 2036,2052 c 0,-206.6 43.9,-2980.8 -2046.1,-2980.8 -2090.1,0 -2046.2,2774.2 -2046.2,2980.8 0,206.6 -43.9,2980.1 2046.2,2980.1 2090,0 2046.1,-2773.5 2046.1,-2980.1"
         style="fill:#231f20;fill-opacity:1;fill-rule:nonzero;stroke:none"
         transform="matrix(0.13333333,0,0,-0.13333333,0,5760.6667)" />
      <path
         id="path26"
         d="m 24538,25038.4 c 722.9,0 836.6,521.2 836.6,707 0,251.3 -187.9,707.7 -792.7,707.7 H 23394 v -1414.7 z m -1144,-928.8 v -2507.1 h -908.6 v 5760 H 24569 c 1320.4,0 1716.4,-1056.2 1716.4,-1617.8 0,-213.9 -79.2,-1056.3 -894.2,-1442.2 l 1015.1,-2700 h -990.6 l -929.5,2507.1 H 23394"
         style="fill:#231f20;fill-opacity:1;fill-rule:nonzero;stroke:none"
         transform="matrix(0.13333333,0,0,-0.13333333,0,5760.6667)" />
      <path
         id="path27"
         d="M 10494.5,15520.7 9325.83,12602.5 8155.94,15520.7 v -2918.2 h -797.56 v 5040 h 797.56 l 1169.89,-2829.3 1168.67,2829.3 h 797.5 v -5040 h -797.5 v 2918.2"
         style="fill:#231f20;fill-opacity:1;fill-rule:nonzero;stroke:none"
         transform="matrix(0.13333333,0,0,-0.13333333,0,5760.6667)" />
      <path
         id="path28"
         d="m 14422.1,13327 c 543,0 984,514.8 984,1795.5 0,1280.8 -441,1795.5 -984,1795.5 -543.1,0 -984.1,-514.1 -984.1,-1795.5 0,-1280.7 441,-1795.5 984.1,-1795.5 z m 1781.6,1795.5 c 0,-180.8 38.4,-2608.2 -1790.4,-2608.2 -1828.9,0 -1790.5,2427.4 -1790.5,2608.2 0,180.8 -38.4,2607.6 1790.5,2607.6 1828.8,0 1790.4,-2426.8 1790.4,-2607.6"
         style="fill:#231f20;fill-opacity:1;fill-rule:nonzero;stroke:none"
         transform="matrix(0.13333333,0,0,-0.13333333,0,5760.6667)" />
      <path
         id="path29"
         d="m 18586.6,12602.5 -1597,5040 h 834.1 l 1082.3,-3359.8 1064.7,3359.8 h 851.7 l -1614.6,-5040 h -621.2"
         style="fill:#231f20;fill-opacity:1;fill-rule:nonzero;stroke:none"
         transform="matrix(0.13333333,0,0,-0.13333333,0,5760.6667)" />
      <path
         id="path30"
         d="m 21729.8,17642.5 h 2967.3 v -795.7 h -2172.2 v -1237.9 h 1466 v -813.3 h -1466 v -1379.7 h 2330.9 v -813.4 h -3126 v 5040"
         style="fill:#231f20;fill-opacity:1;fill-rule:nonzero;stroke:none"
         transform="matrix(0.13333333,0,0,-0.13333333,0,5760.6667)" />
      <path
         id="path31"
         d="m 31492.8,12602.6 -1597,5040 h 834.1 l 1082.3,-3359.8 1064.7,3359.8 h 851.7 l -1614.6,-5040 h -621.2"
         style="fill:#231f20;fill-opacity:1;fill-rule:nonzero;stroke:none"
         transform="matrix(0.13333333,0,0,-0.13333333,0,5760.6667)" />
      <path
         id="path32"
         d="m 34636,17642.6 h 2967.2 v -795.7 H 35431 V 15609 h 1466 v -813.4 H 35431 V 13416 h 2330.9 v -813.4 H 34636 v 5040"
         style="fill:#231f20;fill-opacity:1;fill-rule:nonzero;stroke:none"
         transform="matrix(0.13333333,0,0,-0.13333333,0,5760.6667)" />
      <path
         id="path33"
         d="m 41425.5,14795.6 h -1840.2 v -2193 h -795 v 5040 h 795 V 15609 h 1839.6 v 2033.6 h 796.3 v -5040 h -795.7 v 2193"
         style="fill:#231f20;fill-opacity:1;fill-rule:nonzero;stroke:none"
         transform="matrix(0.13333333,0,0,-0.13333333,0,5760.6667)" />
      <path
         id="path34"
         d="m 43672.9,17642.6 h 806.4 v -5040 h -806.4 v 5040"
         style="fill:#231f20;fill-opacity:1;fill-rule:nonzero;stroke:none"
         transform="matrix(0.13333333,0,0,-0.13333333,0,5760.6667)" />
      <path
         id="path35"
         d="m 45809.9,15131.4 c 0,708.8 142.3,2598.8 1856.5,2598.8 730.8,0 1228.5,-297.4 1574.3,-1025.7 l -742.7,-318.1 c -257.7,370.4 -386.2,530.5 -830.9,530.5 -1054.6,0 -1043.3,-1469.8 -1043.3,-1786.1 0,-312.5 -19.5,-1804.3 1078.5,-1804.3 384.9,0 606.1,232.5 778,584 l 760.4,-282.9 c -283.5,-701.2 -759.7,-1113.2 -1521.4,-1113.2 -1813.7,0 -1909.4,2003.4 -1909.4,2617"
         style="fill:#231f20;fill-opacity:1;fill-rule:nonzero;stroke:none"
         transform="matrix(0.13333333,0,0,-0.13333333,0,5760.6667)" />
      <path
         id="path36"
         d="m 50571.5,17642.6 h 795 v -4297.2 h 2330.9 v -742.8 h -3125.9 v 5040"
         style="fill:#231f20;fill-opacity:1;fill-rule:nonzero;stroke:none"
         transform="matrix(0.13333333,0,0,-0.13333333,0,5760.6667)" />
      <path
         id="path37"
         d="M 54604.8,17642.6 H 57572 v -795.7 H 55399.8 V 15609 h 1466 v -813.4 h -1466 V 13416 h 2330.9 v -813.4 h -3125.9 v 5040"
         style="fill:#231f20;fill-opacity:1;fill-rule:nonzero;stroke:none"
         transform="matrix(0.13333333,0,0,-0.13333333,0,5760.6667)" />
      <path
         id="path38"
         d="m 58335.8,13785.1 760.4,282.3 c 211.6,-476.9 601.6,-741.5 1079.1,-741.5 477.5,0 778,317.5 778,741.5 0,673.4 -778,776.8 -1431.9,1042 -300.5,123.5 -972.1,424 -972.1,1254.3 0,989.7 671.6,1359.5 1573.1,1359.5 706.8,0 1184.3,-406.3 1431.9,-1024.3 l -706.8,-211.7 c -116.6,228.1 -361,441.6 -785,441.6 -423.9,0 -737.7,-176.4 -737.7,-509 0,-470.6 407.6,-563.9 1067.2,-771.1 672.2,-211.1 1374.6,-520.4 1374.6,-1599 0,-1078.5 -882,-1535.9 -1591.3,-1535.9 -866.2,0 -1503.1,511.6 -1839.5,1271.3"
         style="fill:#231f20;fill-opacity:1;fill-rule:nonzero;stroke:none"
         transform="matrix(0.13333333,0,0,-0.13333333,0,5760.6667)" />
      <path
         id="path39"
         d="M 4735.93,7021.8 H 5747.05 V 6331.9 H 4735.93 V 3962.5 h -726.99 v 5040 H 6580.51 V 8295 H 4735.93 V 7021.8"
         style="fill:#231f20;fill-opacity:1;fill-rule:nonzero;stroke:none"
         transform="matrix(0.13333333,0,0,-0.13333333,0,5760.6667)" />
      <path
         id="path40"
         d="M 8150.64,8295 V 7021.8 h 740.85 c 424.61,0 653.29,229.9 653.29,636.9 0,389.3 -264.6,636.3 -652.66,636.3 z M 8839.2,6331.9 H 8150.64 V 3962.5 h -723.22 v 5040 H 8927.4 c 790.62,0 1323.6,-530.5 1323.6,-1343.8 0,-601 -247.6,-1043.3 -723.86,-1220.3 L 10250.4,3962.5 H 9510.13 L 8839.2,6331.9"
         style="fill:#231f20;fill-opacity:1;fill-rule:nonzero;stroke:none"
         transform="matrix(0.13333333,0,0,-0.13333333,0,5760.6667)" />
      <path
         id="path41"
         d="m 12645.8,8383.2 c -143.7,0 -793.2,29.6 -793.2,-1893.8 0,-1937.2 649.5,-1907.6 793.2,-1907.6 143.6,0 792.5,-29.6 792.5,1907.6 0,1923.4 -648.9,1893.8 -792.5,1893.8 z m -1487.4,-1890 c 0,2639.1 1224,2596.9 1495.6,2596.9 271.5,0 1479.1,40.3 1479.1,-2598.8 0,-2657.9 -1207.6,-2616.4 -1479.1,-2616.4 -271.6,0 -1495.6,-41.5 -1495.6,2618.3"
         style="fill:#231f20;fill-opacity:1;fill-rule:nonzero;stroke:none"
         transform="matrix(0.13333333,0,0,-0.13333333,0,5760.6667)" />
      <path
         id="path42"
         d="m 17946,6791.8 -938.7,-2829.3 -938.6,2829.3 V 3962.5 h -725.8 v 5040 h 725.8 l 938.6,-2829.3 938.7,2829.3 h 725.7 v -5040 H 17946 v 2829.3"
         style="fill:#231f20;fill-opacity:1;fill-rule:nonzero;stroke:none"
         transform="matrix(0.13333333,0,0,-0.13333333,0,5760.6667)" />
      <path
         id="path43"
         d="m 24641,3962.5 h -727 v 4367.8 h -922.3 v 672.2 h 2571.6 V 8330.3 H 24641 V 3962.5"
         style="fill:#231f20;fill-opacity:1;fill-rule:nonzero;stroke:none"
         transform="matrix(0.13333333,0,0,-0.13333333,0,5760.6667)" />
      <path
         id="path44"
         d="M 27133.4,8295 V 7021.8 h 740.8 c 424.7,0 653.3,229.9 653.3,636.9 0,389.3 -264.6,636.3 -652.6,636.3 z M 27822,6331.9 h -688.6 V 3962.5 h -723.2 v 5040 h 1500 c 790.6,0 1323.5,-530.5 1323.5,-1343.8 0,-601 -247.5,-1043.3 -723.8,-1220.3 l 723.2,-2475.9 h -740.2 L 27822,6331.9"
         style="fill:#231f20;fill-opacity:1;fill-rule:nonzero;stroke:none"
         transform="matrix(0.13333333,0,0,-0.13333333,0,5760.6667)" />
      <path
         id="path45"
         d="m 31019.3,6049.1 h 727 L 31374,7499.3 Z m 904.1,-707.5 h -1081.1 l -337,-1379.1 h -727 l 1258.7,5040 h 710 l 1258,-5040 h -726.9 l -354.7,1379.1"
         style="fill:#231f20;fill-opacity:1;fill-rule:nonzero;stroke:none"
         transform="matrix(0.13333333,0,0,-0.13333333,0,5760.6667)" />
      <path
         id="path46"
         d="m 34646.9,3962.5 -1278.8,5040 h 728.2 l 835.4,-3272.2 834.1,3272.2 h 728.3 l -1296.5,-5040 h -550.7"
         style="fill:#231f20;fill-opacity:1;fill-rule:nonzero;stroke:none"
         transform="matrix(0.13333333,0,0,-0.13333333,0,5760.6667)" />
      <path
         id="path47"
         d="m 37341,9002.5 h 2376.3 V 8295 H 38068 V 7021.8 h 1045.8 V 6331.9 H 38068 V 4669.4 h 1844.6 V 3962.5 H 37341 v 5040"
         style="fill:#231f20;fill-opacity:1;fill-rule:nonzero;stroke:none"
         transform="matrix(0.13333333,0,0,-0.13333333,0,5760.6667)" />
      <path
         id="path48"
         d="m 40940.9,9002.5 h 727 V 4634.7 h 1844.6 v -672.2 h -2571.6 v 5040"
         style="fill:#231f20;fill-opacity:1;fill-rule:nonzero;stroke:none"
         transform="matrix(0.13333333,0,0,-0.13333333,0,5760.6667)" />
      <path
         id="path49"
         d="m 47832.5,9002.5 h 727 V 4634.7 H 50404 v -672.2 h -2571.5 v 5040"
         style="fill:#231f20;fill-opacity:1;fill-rule:nonzero;stroke:none"
         transform="matrix(0.13333333,0,0,-0.13333333,0,5760.6667)" />
      <path
         id="path50"
         d="m 52008.2,6049.1 h 727 l -372.3,1450.2 z m 904,-707.5 h -1081 l -337.1,-1379.1 h -727 l 1258.7,5040 h 710 l 1258.1,-5040 h -727 l -354.7,1379.1"
         style="fill:#231f20;fill-opacity:1;fill-rule:nonzero;stroke:none"
         transform="matrix(0.13333333,0,0,-0.13333333,0,5760.6667)" />
      <path
         id="path51"
         d="M 55563.9,7339.9 V 3962.5 h -723.2 v 5040 h 723.2 l 1376.5,-3024 v 3024 h 723.9 v -5040 h -546.8 l -1553.6,3377.4"
         style="fill:#231f20;fill-opacity:1;fill-rule:nonzero;stroke:none"
         transform="matrix(0.13333333,0,0,-0.13333333,0,5760.6667)" />
      <path
         id="path52"
         d="m 58995,9002.5 h 2376.3 V 8295 H 59722 V 7021.8 h 1045.8 V 6331.9 H 59722 V 4669.4 h 1844.6 V 3962.5 H 58995 v 5040"
         style="fill:#231f20;fill-opacity:1;fill-rule:nonzero;stroke:none"
         transform="matrix(0.13333333,0,0,-0.13333333,0,5760.6667)" />
      <path
         id="path53"
         d="m 63713.1,4580.5 c 390.6,0 710,354.1 710,761.1 -0.6,1073.5 -1881.7,1071 -1881.7,2441.2 0,725.1 568.2,1307.9 1295.8,1307.9 710.6,0 1261.2,-547.5 1278.9,-1308.5 h -693.6 c -17.7,353.4 -266.5,583.4 -585.9,583.4 -337.7,0 -603.5,-247 -603.5,-582.8 0,-301.8 189.6,-422.1 424.6,-569.5 681.6,-411.4 1457.7,-907.8 1457.7,-1872.4 0,-815.8 -621.8,-1467.9 -1402.9,-1467.9 -887.6,0 -1420,751 -1420,1575 h 711.3 c 0,-429 212.3,-867.5 709.3,-867.5"
         style="fill:#231f20;fill-opacity:1;fill-rule:nonzero;stroke:none"
         transform="matrix(0.13333333,0,0,-0.13333333,0,5760.6667)" />
    </g>
  </g>
</svg>
