<?xml version="1.0" encoding="UTF-8" standalone="no"?>
<!-- Created with Inkscape (http://www.inkscape.org/) -->

<svg
   version="1.1"
   id="svg1"
   width="5760.6665"
   height="1728.6667"
   viewBox="0 0 5760.6665 1728.6667"
   sodipodi:docname="tmpnv939wjc.pdf"
   xmlns:inkscape="http://www.inkscape.org/namespaces/inkscape"
   xmlns:sodipodi="http://sodipodi.sourceforge.net/DTD/sodipodi-0.dtd"
   xmlns="http://www.w3.org/2000/svg"
   xmlns:svg="http://www.w3.org/2000/svg">
  <defs
     id="defs1" />
  <sodipodi:namedview
     id="namedview1"
     pagecolor="#ffffff"
     bordercolor="#000000"
     borderopacity="0.25"
     inkscape:showpageshadow="2"
     inkscape:pageopacity="0.0"
     inkscape:pagecheckerboard="0"
     inkscape:deskcolor="#d1d1d1">
    <inkscape:page
       x="0"
       y="0"
       inkscape:label="1"
       id="page1"
       width="5760.6665"
       height="1728.6667"
       margin="0"
       bleed="0" />
  </sodipodi:namedview>
  <g
     id="g1"
     inkscape:groupmode="layer"
     inkscape:label="1">
    <g
       id="group-R5">
      <path
         id="path2"
         d="M 43202.5,1082.5 C 43202.5,486 42719,2.5 42122.5,2.5 H 1082.5 C 486.035,2.5 2.5,486 2.5,1082.5 v 10800 c 0,596.5 483.535,1080 1080,1080 h 41040 c 596.5,0 1080,-483.5 1080,-1080 v -10800"
         style="fill:#ffffff;fill-opacity:1;fill-rule:nonzero;stroke:none"
         transform="matrix(0.13333333,0,0,-0.13333333,0,1728.6667)" />
      <path
         id="path3"
         d="M 43202.5,1082.5 C 43202.5,486 42719,2.5 42122.5,2.5 H 1082.5 C 486.035,2.5 2.5,486 2.5,1082.5 v 10800 c 0,596.5 483.535,1080 1080,1080 h 41040 c 596.5,0 1080,-483.5 1080,-1080 z"
         style="fill:none;stroke:#231f20;stroke-width:5;stroke-linecap:butt;stroke-linejoin:miter;stroke-miterlimit:4;stroke-dasharray:none;stroke-opacity:1"
         transform="matrix(0.13333333,0,0,-0.13333333,0,1728.6667)" />
      <path
         id="path4"
         d="m 1082.5,272.5 c -446.637,0 -810,363.398 -810,810 v 10800 c 0,446.6 363.363,810 810,810 h 41040 c 446.6,0 810,-363.4 810,-810 v -10800 c 0,-446.602 -363.4,-810 -810,-810 h -41040"
         style="fill:#231f20;fill-opacity:1;fill-rule:nonzero;stroke:none"
         transform="matrix(0.13333333,0,0,-0.13333333,0,1728.6667)" />
      <path
         id="path5"
         d="m 1082.5,722.5 c -198.508,0 -360,161.5 -360,360 v 10800 c 0,198.5 161.492,360 360,360 h 41040 c 198.5,0 360,-161.5 360,-360 v -10800 c 0,-198.5 -161.5,-360 -360,-360 h -41040"
         style="fill:#ffffff;fill-opacity:1;fill-rule:nonzero;stroke:none"
         transform="matrix(0.13333333,0,0,-0.13333333,0,1728.6667)" />
      <path
         id="path6"
         d="M 40231.4,2522.5 39129.9,4472.81 V 2522.5 h -454.8 v 2880 h 454.8 l 1051,-1839.18 V 5402.5 h 454.8 v -2880 h -404.3"
         style="fill:#231f20;fill-opacity:1;fill-rule:nonzero;stroke:none"
         transform="matrix(0.13333333,0,0,-0.13333333,0,1728.6667)" />
      <path
         id="path7"
         d="m 37413.4,4765.86 c -91.1,151.58 -202.5,212.21 -374.7,222.3 -222.9,10.12 -364.7,-101.03 -466,-353.67 -71,-171.79 -111.4,-434.53 -111.4,-677.05 0,-303.16 60.7,-616.42 172.1,-798.32 91.2,-151.58 212.8,-222.32 395.1,-222.32 212.8,0 344.4,111.17 445.7,363.79 60.8,151.58 111.5,434.53 111.5,656.85 0,323.36 -60.8,616.41 -172.3,808.42 z m 314.1,-1970.56 c -162.1,-222.3 -395.1,-323.3 -699,-323.3 -405.2,0 -658.4,161.7 -830.7,515.32 -121.5,242.54 -202.5,626.53 -202.5,970.12 0,474.94 121.5,899.36 314,1172.21 172.2,222.32 405.2,323.36 739.5,323.36 364.6,0 617.9,-161.68 800.2,-515.35 121.6,-252.64 192.5,-616.45 192.5,-980.22 0,-454.74 -111.4,-909.47 -314,-1162.14"
         style="fill:#231f20;fill-opacity:1;fill-rule:nonzero;stroke:none"
         transform="matrix(0.13333333,0,0,-0.13333333,0,1728.6667)" />
      <path
         id="path8"
         d="m 27356.7,2694.3 c -161.7,-141.5 -384,-222.3 -626.5,-222.3 -495.2,0 -859,293 -1051.1,727.55 l 434.6,161.66 c 121.3,-272.81 343.6,-424.41 616.5,-424.41 262.7,0 444.6,181.91 444.6,424.41 0,384.02 -444.6,444.65 -818.6,596.21 -171.8,70.74 -555.8,242.54 -555.8,717.5 0,565.88 384,778.09 899.5,778.09 404.2,0 677,-232.42 818.5,-586.1 l -404.2,-121.25 c 0,0 -101.1,242.5 -424.5,252.62 -212.2,10.1 -464.8,-70.74 -444.6,-333.48 40.4,-535.56 1394.6,-181.91 1394.6,-1313.67 0,-262.73 -101.1,-495.13 -283,-656.83"
         style="fill:#231f20;fill-opacity:1;fill-rule:nonzero;stroke:none"
         transform="matrix(0.13333333,0,0,-0.13333333,0,1728.6667)" />
      <path
         id="path9"
         d="m 28129.3,2522.5 v 2880 h 1695.5 v -454.75 h -1241.4 v -707.36 h 837.7 v -464.84 h -837.7 v -788.21 h 1332.2 V 2522.5 h -1786.3"
         style="fill:#231f20;fill-opacity:1;fill-rule:nonzero;stroke:none"
         transform="matrix(0.13333333,0,0,-0.13333333,0,1728.6667)" />
      <path
         id="path10"
         d="m 31439,2472 c -424.4,0 -697.3,161.6 -879.2,515.34 -131.3,252.62 -212.2,616.43 -212.2,980.2 0,454.75 121.3,909.49 323.4,1162.11 171.8,212.22 414.3,323.36 737.7,323.36 434.6,0 707.4,-181.9 899.5,-586.1 l -424.5,-181.89 c -161.7,242.52 -252.6,303.14 -475,303.14 -232.4,0 -384,-101.03 -485.1,-353.67 -70.7,-171.79 -111.1,-424.41 -111.1,-666.95 0,-313.26 70.7,-626.52 181.9,-808.44 101,-151.56 232.4,-222.3 434.5,-222.3 192,0 333.5,101.05 444.7,333.47 l 434.6,-161.68 C 32136.4,2684.2 31853.4,2472 31439,2472"
         style="fill:#231f20;fill-opacity:1;fill-rule:nonzero;stroke:none"
         transform="matrix(0.13333333,0,0,-0.13333333,0,1728.6667)" />
      <path
         id="path11"
         d="m 34900.9,2522.5 v 2880 h 460.8 v -2880 h -460.8"
         style="fill:#231f20;fill-opacity:1;fill-rule:nonzero;stroke:none"
         transform="matrix(0.13333333,0,0,-0.13333333,0,1728.6667)" />
      <path
         id="path12"
         d="M 33799,4998.3 V 2522.5 h -456.7 v 2475.8 h -659.7 v 404.22 h 1786.3 V 4998.3 H 33799"
         style="fill:#231f20;fill-opacity:1;fill-rule:nonzero;stroke:none"
         transform="matrix(0.13333333,0,0,-0.13333333,0,1728.6667)" />
      <path
         id="path13"
         d="M 4075.15,2522.5 V 3775.55 H 3024.11 V 2522.5 h -454.76 v 2880 h 454.76 V 4240.39 H 4075.15 V 5402.5 h 454.77 v -2880 h -454.77"
         style="fill:#231f20;fill-opacity:1;fill-rule:nonzero;stroke:none"
         transform="matrix(0.13333333,0,0,-0.13333333,0,1728.6667)" />
      <path
         id="path14"
         d="m 11382.5,4826.5 c -70.8,70.73 -171.8,121.27 -293.1,121.27 H 10574 V 2987.34 h 454.8 c 151.6,0 242.5,30.32 323.4,111.14 171.8,171.79 262.7,485.07 262.7,869.1 0,383.98 -90.9,707.34 -232.4,858.92 z m 192,-2142.3 c -111.2,-101.1 -262.8,-151.6 -414.3,-161.7 -30.4,0 -91,0 -161.7,0 h -879.3 v 2880 h 929.8 c 293.1,0 404.2,-30.31 555.8,-151.6 303.2,-262.74 475,-717.46 475,-1283.32 0,-576.02 -181.9,-1030.78 -505.3,-1283.38"
         style="fill:#231f20;fill-opacity:1;fill-rule:nonzero;stroke:none"
         transform="matrix(0.13333333,0,0,-0.13333333,0,1728.6667)" />
      <path
         id="path15"
         d="m 5221.07,2522.5 v 2880 H 6916.56 V 4947.75 H 5675.22 v -707.36 h 837.67 V 3775.55 H 5675.22 V 2987.34 H 7007.41 V 2522.5 H 5221.07"
         style="fill:#231f20;fill-opacity:1;fill-rule:nonzero;stroke:none"
         transform="matrix(0.13333333,0,0,-0.13333333,0,1728.6667)" />
      <path
         id="path16"
         d="m 8467.6,4604.18 -294.74,-808.44 h 579.32 z M 9199.39,2522.5 8914.8,3330.9 h -904.56 l -284.59,-808.4 h -487.84 l 996.02,2880 h 457.38 l 996.03,-2880 h -487.85"
         style="fill:#231f20;fill-opacity:1;fill-rule:nonzero;stroke:none"
         transform="matrix(0.13333333,0,0,-0.13333333,0,1728.6667)" />
      <path
         id="path17"
         d="m 14931.7,2522.5 v 2880 h 460.8 v -2880 h -460.8"
         style="fill:#231f20;fill-opacity:1;fill-rule:nonzero;stroke:none"
         transform="matrix(0.13333333,0,0,-0.13333333,0,1728.6667)" />
      <path
         id="path18"
         d="m 12713.4,2522.5 v 2880.02 h 454.1 V 2946.9 h 1332.2 v -424.4 h -1786.3"
         style="fill:#231f20;fill-opacity:1;fill-rule:nonzero;stroke:none"
         transform="matrix(0.13333333,0,0,-0.13333333,0,1728.6667)" />
      <path
         id="path19"
         d="M 22129.3,4998.3 V 2522.5 h -456.7 v 2475.8 h -659.8 v 404.22 h 1786.3 V 4998.3 h -669.8"
         style="fill:#231f20;fill-opacity:1;fill-rule:nonzero;stroke:none"
         transform="matrix(0.13333333,0,0,-0.13333333,0,1728.6667)" />
      <path
         id="path20"
         d="M 20126.1,2522.5 V 3775.55 H 19075 V 2522.5 h -454.7 v 2880 H 19075 V 4240.39 h 1051.1 V 5402.5 h 454.8 v -2880 h -454.8"
         style="fill:#231f20;fill-opacity:1;fill-rule:nonzero;stroke:none"
         transform="matrix(0.13333333,0,0,-0.13333333,0,1728.6667)" />
      <path
         id="path21"
         d="m 17077.1,2472 c -434.5,0 -687.2,161.6 -859,525.44 -121.2,252.64 -192,606.33 -192,960 0,464.85 131.4,919.59 323.4,1172.21 171.8,212.22 414.3,323.36 737.8,323.36 444.6,0 707.4,-181.9 899.4,-636.64 l -434.6,-171.76 c -121.2,252.62 -242.5,343.55 -464.8,343.55 -232.5,0 -384.1,-101.03 -485.1,-353.67 -70.8,-171.79 -111.2,-434.53 -111.2,-677.05 0,-303.16 50.5,-606.33 141.5,-788.2 90.9,-161.7 222.3,-232.44 394.1,-232.44 293.1,0 505.3,181.89 505.3,444.63 v 121.27 h -525.5 v 454.74 h 980.3 v -576.01 c 0,-525.43 -384,-909.43 -909.6,-909.43"
         style="fill:#231f20;fill-opacity:1;fill-rule:nonzero;stroke:none"
         transform="matrix(0.13333333,0,0,-0.13333333,0,1728.6667)" />
      <path
         id="path22"
         d="M 17093.9,7562.5 15992.3,9512.83 V 7562.5 h -454.7 v 2880 h 454.7 l 1051,-1839.16 v 1839.16 h 454.8 v -2880 h -404.2"
         style="fill:#231f20;fill-opacity:1;fill-rule:nonzero;stroke:none"
         transform="matrix(0.13333333,0,0,-0.13333333,0,1728.6667)" />
      <path
         id="path23"
         d="m 14385.6,7562.5 v 2880 h 460.8 v -2880 h -460.8"
         style="fill:#231f20;fill-opacity:1;fill-rule:nonzero;stroke:none"
         transform="matrix(0.13333333,0,0,-0.13333333,0,1728.6667)" />
      <path
         id="path24"
         d="m 9573.07,7562.5 v 2880 H 11268.6 V 9987.78 H 10027.2 V 9280.4 h 837.7 v -464.85 h -837.7 v -788.2 h 1332.2 V 7562.5 H 9573.07"
         style="fill:#231f20;fill-opacity:1;fill-rule:nonzero;stroke:none"
         transform="matrix(0.13333333,0,0,-0.13333333,0,1728.6667)" />
      <path
         id="path25"
         d="m 8345.75,8795.35 c -60.63,20.2 -90.96,20.2 -192.02,20.2 h -576.04 v -788.2 h 687.22 c 232.43,0 353.69,111.15 353.69,333.48 0,192 -111.16,373.88 -272.85,434.52 z M 8244.7,9987.79 h -667.01 v -707.37 h 545.72 c 131.38,0 192.02,20.2 272.86,80.83 101.07,80.84 161.71,202.11 161.71,333.48 0,192 -111.18,293.06 -313.28,293.06 z m 373.9,-2354.56 c -101.05,-40.42 -272.85,-70.73 -404.23,-70.73 H 7122.93 v 2880 h 1091.44 c 454.77,0 798.37,-313.2 798.37,-727.55 0,-282.95 -131.37,-495.18 -404.24,-646.76 303.19,-141.5 474.99,-384.01 474.99,-697.28 0,-313.25 -192.02,-626.51 -464.89,-737.68"
         style="fill:#231f20;fill-opacity:1;fill-rule:nonzero;stroke:none"
         transform="matrix(0.13333333,0,0,-0.13333333,0,1728.6667)" />
      <path
         id="path26"
         d="m 12842.4,7511.97 c -434.5,0 -687.2,161.69 -859,525.49 -121.2,252.62 -192,606.31 -192,960 0,464.84 131.4,919.59 323.4,1172.24 171.8,212.2 414.3,323.3 737.7,323.3 444.7,0 707.5,-181.9 899.5,-636.62 l -434.6,-171.77 c -121.3,252.64 -242.5,343.59 -464.9,343.59 -232.4,0 -384,-101.06 -485,-353.7 -70.8,-171.78 -111.2,-434.52 -111.2,-677.04 0,-303.17 50.5,-606.33 141.5,-788.22 90.9,-161.68 222.3,-232.43 394.1,-232.43 293.1,0 505.3,181.91 505.3,444.64 v 121.27 h -525.5 v 454.74 h 980.3 v -576.01 c 0,-525.48 -384,-909.48 -909.6,-909.48"
         style="fill:#231f20;fill-opacity:1;fill-rule:nonzero;stroke:none"
         transform="matrix(0.13333333,0,0,-0.13333333,0,1728.6667)" />
      <path
         id="path27"
         d="M 26808,8815.57 V 7562.51 h -457 v 1253.06 l -1015.7,1626.93 h 548.5 l 690.6,-1111.56 700.8,1111.56 h 538.4 L 26808,8815.57"
         style="fill:#231f20;fill-opacity:1;fill-rule:nonzero;stroke:none"
         transform="matrix(0.13333333,0,0,-0.13333333,0,1728.6667)" />
      <path
         id="path28"
         d="m 21641.3,9866.52 c -70.7,70.73 -171.7,121.26 -293,121.26 h -515.4 V 8027.35 h 454.7 c 151.6,0 242.6,30.31 323.4,111.15 171.8,171.79 262.8,485.07 262.8,869.08 0,383.99 -91,707.35 -232.5,858.94 z m 192.1,-2142.34 c -111.2,-101.06 -262.8,-151.58 -414.4,-161.68 -30.3,0 -90.9,0 -161.7,0 h -879.2 v 2880 h 929.7 c 293.1,0 404.3,-30.3 555.9,-151.6 303.2,-262.7 475,-717.45 475,-1283.32 0,-576.01 -182,-1030.77 -505.3,-1283.4"
         style="fill:#231f20;fill-opacity:1;fill-rule:nonzero;stroke:none"
         transform="matrix(0.13333333,0,0,-0.13333333,0,1728.6667)" />
      <path
         id="path29"
         d="m 34295.7,7562.5 v 2880 h 1695.5 V 9987.78 H 34749.9 V 9280.4 h 837.6 v -464.85 h -837.6 v -788.2 h 1332.2 V 7562.5 h -1786.4"
         style="fill:#231f20;fill-opacity:1;fill-rule:nonzero;stroke:none"
         transform="matrix(0.13333333,0,0,-0.13333333,0,1728.6667)" />
      <path
         id="path30"
         d="m 23942.9,9644.18 -294.8,-808.42 h 579.3 z m 731.7,-2081.68 -284.5,808.41 h -904.6 l -284.6,-808.41 h -487.8 l 996,2880 h 457.4 l 996,-2880 h -487.9"
         style="fill:#231f20;fill-opacity:1;fill-rule:nonzero;stroke:none"
         transform="matrix(0.13333333,0,0,-0.13333333,0,1728.6667)" />
      <path
         id="path31"
         d="m 30204.7,7562.5 v 2880 h 460.8 v -2880 h -460.8"
         style="fill:#231f20;fill-opacity:1;fill-rule:nonzero;stroke:none"
         transform="matrix(0.13333333,0,0,-0.13333333,0,1728.6667)" />
      <path
         id="path32"
         d="M 29102.8,10038.3 V 7562.51 h -456.7 v 2475.79 h -659.8 v 404.2 h 1786.4 v -404.2 h -669.9"
         style="fill:#231f20;fill-opacity:1;fill-rule:nonzero;stroke:none"
         transform="matrix(0.13333333,0,0,-0.13333333,0,1728.6667)" />
      <path
         id="path33"
         d="M 33148.9,7562.5 V 9229.87 L 32480.6,7562.5 31812.3,9229.87 V 7562.5 h -455.6 v 2880 h 455.6 l 668.3,-1616.83 668.3,1616.83 h 455.6 v -2880 h -455.6"
         style="fill:#231f20;fill-opacity:1;fill-rule:nonzero;stroke:none"
         transform="matrix(0.13333333,0,0,-0.13333333,0,1728.6667)" />
    </g>
  </g>
</svg>
