<?xml version="1.0" standalone="no"?>
<svg width="8640px" height="2592px" viewBox="0 -1800 8640 2592 " xmlns="http://www.w3.org/2000/svg" xmlns:xlink="http://www.w3.org/1999/xlink">
<title>generated by pstoedit</title>
<!-- generated by pstoedit version:4.02 -->
<g xml:space='preserve'>
<clipPath id="clippath1"> 	<path d="
	M 0 -1800.5 
	L 0 792 
	L 8640.5 792 
	L 8640.5 -1800.5 
	Z 
	" style="clip-rule:nonzero"/>
</clipPath>
<g style="clip-path:url(#clippath1)"> 
<g fill="#ffffff" fill-rule="nonzero" stroke-width="0" stroke-linejoin="miter" stroke-linecap="butt" stroke-miterlimit="10" >
	<path d="
	M 8640.25 629.75 
	C 8640.25 719.219 8567.72 791.75 8478.25 791.75 
	L 162.25 791.75 
	C 72.7813 791.75 0.25 719.219 0.25 629.75 
	L 0.25 -1638.25 
	C 0.25 -1727.72 72.7813 -1800.25 162.25 -1800.25 
	L 8478.25 -1800.25 
	C 8567.72 -1800.25 8640.25 -1727.72 8640.25 -1638.25 
	Z 
	"/>
</g>
<g stroke="#7f7f7f" fill="none" stroke-width="0.5" stroke-linejoin="miter" stroke-linecap="butt" stroke-miterlimit="4" >
	<path d="
	M 8640.25 629.75 
	C 8640.25 719.219 8567.72 791.75 8478.25 791.75 
	L 162.25 791.75 
	C 72.7813 791.75 0.25 719.219 0.25 629.75 
	L 0.25 -1638.25 
	C 0.25 -1727.72 72.7813 -1800.25 162.25 -1800.25 
	L 8478.25 -1800.25 
	C 8567.72 -1800.25 8640.25 -1727.72 8640.25 -1638.25 
	Z 
	"/>
</g>
<g fill="#7f7f7f" fill-rule="nonzero" stroke-width="0" stroke-linejoin="miter" stroke-linecap="butt" stroke-miterlimit="4" >
	<path d="
	M 162.25 746.75 
	C 97.7344 746.75 45.25 694.262 45.25 629.75 
	L 45.25 -1638.25 
	C 45.25 -1702.76 97.7344 -1755.25 162.25 -1755.25 
	L 8478.25 -1755.25 
	C 8542.76 -1755.25 8595.25 -1702.76 8595.25 -1638.25 
	L 8595.25 629.75 
	C 8595.25 694.262 8542.76 746.75 8478.25 746.75 
	Z 
	"/>
</g>
<g fill="#ffffff" fill-rule="nonzero" stroke-width="0" stroke-linejoin="miter" stroke-linecap="butt" stroke-miterlimit="4" >
	<path d="
	M 162.25 683.75 
	C 132.477 683.75 108.25 659.52 108.25 629.75 
	L 108.25 -1638.25 
	C 108.25 -1668.03 132.477 -1692.25 162.25 -1692.25 
	L 8478.25 -1692.25 
	C 8508.02 -1692.25 8532.25 -1668.02 8532.25 -1638.25 
	L 8532.25 629.75 
	C 8532.25 659.52 8508.02 683.75 8478.25 683.75 
	Z 
	"/>
</g>
<g fill="#7f7f7f" fill-rule="nonzero" stroke-width="0" stroke-linejoin="miter" stroke-linecap="butt" stroke-miterlimit="4" >
	<path d="
	M 8046.04 287.75 
	L 7825.72 -102.309 
	L 7825.72 287.75 
	L 7734.77 287.75 
	L 7734.77 -288.25 
	L 7825.72 -288.25 
	L 8035.93 79.59 
	L 8035.93 -288.25 
	L 8126.88 -288.25 
	L 8126.88 287.75 
	Z 
	"/>
</g>
<g fill="#7f7f7f" fill-rule="nonzero" stroke-width="0" stroke-linejoin="miter" stroke-linecap="butt" stroke-miterlimit="4" >
	<path d="
	M 7482.44 -160.922 
	C 7464.21 -191.238 7441.92 -203.359 7407.48 -205.379 
	C 7362.91 -207.398 7334.54 -185.18 7314.28 -134.648 
	C 7300.1 -100.289 7292 -47.738 7292 0.762024 
	C 7292 61.391 7304.15 124.051 7326.44 160.43 
	C 7344.67 190.738 7368.99 204.891 7405.46 204.891 
	C 7448 204.891 7474.34 182.66 7494.6 132.129 
	C 7506.75 101.82 7516.88 45.23 7516.88 0.762024 
	C 7516.88 -63.91 7504.72 -122.52 7482.44 -160.922 
	Z 
	M 7545.25 233.18 
	C 7512.83 277.648 7466.23 297.859 7405.46 297.859 
	C 7324.41 297.859 7273.76 265.52 7239.32 194.789 
	C 7215.01 146.281 7198.8 69.48 7198.8 0.762024 
	C 7198.8 -94.23 7223.11 -179.109 7261.61 -233.68 
	C 7296.05 -278.14 7342.65 -298.35 7409.5 -298.35 
	C 7482.44 -298.35 7533.09 -266.01 7569.56 -195.281 
	C 7593.87 -144.75 7608.05 -71.988 7608.05 0.762024 
	C 7608.05 91.711 7585.77 182.66 7545.25 233.18 
	Z 
	"/>
</g>
<g fill="#7f7f7f" fill-rule="nonzero" stroke-width="0" stroke-linejoin="miter" stroke-linecap="butt" stroke-miterlimit="4" >
	<path d="
	M 5471.1 253.391 
	C 5438.76 281.691 5394.29 297.859 5345.79 297.859 
	C 5246.75 297.859 5173.98 239.25 5135.58 152.34 
	L 5222.49 120.012 
	C 5246.75 174.57 5291.21 204.891 5345.79 204.891 
	C 5398.33 204.891 5434.71 168.512 5434.71 120.012 
	C 5434.71 43.211 5345.79 31.078 5271 0.77002 
	C 5236.64 -13.379 5159.83 -47.738 5159.83 -142.73 
	C 5159.83 -255.91 5236.64 -298.35 5339.72 -298.35 
	C 5420.57 -298.35 5475.14 -251.87 5503.43 -181.129 
	L 5422.59 -156.879 
	C 5422.59 -156.879 5402.38 -205.379 5337.7 -207.398 
	C 5295.25 -209.43 5244.72 -193.262 5248.76 -140.711 
	C 5256.85 -33.602 5527.69 -104.328 5527.69 122.031 
	C 5527.69 174.57 5507.48 221.059 5471.1 253.391 
	Z 
	"/>
</g>
<g fill="#7f7f7f" fill-rule="nonzero" stroke-width="0" stroke-linejoin="miter" stroke-linecap="butt" stroke-miterlimit="4" >
	<path d="
	M 5625.6 287.75 
	L 5625.6 -288.25 
	L 5964.7 -288.25 
	L 5964.7 -197.301 
	L 5716.43 -197.301 
	L 5716.43 -55.828 
	L 5883.96 -55.828 
	L 5883.96 37.141 
	L 5716.43 37.141 
	L 5716.43 194.781 
	L 5982.87 194.781 
	L 5982.87 287.75 
	Z 
	"/>
</g>
<g fill="#7f7f7f" fill-rule="nonzero" stroke-width="0" stroke-linejoin="miter" stroke-linecap="butt" stroke-miterlimit="4" >
	<path d="
	M 6287.55 297.859 
	C 6202.67 297.859 6148.1 265.52 6111.71 194.781 
	C 6085.44 144.262 6069.27 71.5 6069.27 -1.26202 
	C 6069.27 -92.211 6093.52 -183.148 6133.95 -233.68 
	C 6168.3 -276.12 6216.81 -298.35 6281.49 -298.35 
	C 6368.41 -298.35 6422.97 -261.97 6461.38 -181.129 
	L 6376.49 -144.75 
	C 6344.15 -193.262 6325.96 -205.379 6281.49 -205.379 
	C 6235.01 -205.379 6204.69 -185.18 6184.47 -134.648 
	C 6170.33 -100.289 6162.24 -49.762 6162.24 -1.26202 
	C 6162.24 61.391 6176.39 124.051 6198.63 160.43 
	C 6218.84 190.738 6245.11 204.891 6285.54 204.891 
	C 6323.94 204.891 6352.24 184.68 6374.47 138.199 
	L 6461.38 170.531 
	C 6427.02 255.422 6370.43 297.859 6287.55 297.859 
	Z 
	"/>
</g>
<g fill="#7f7f7f" fill-rule="nonzero" stroke-width="0" stroke-linejoin="miter" stroke-linecap="butt" stroke-miterlimit="4" >
	<path d="
	M 6979.92 287.75 
	L 6979.92 -288.25 
	L 7072.09 -288.25 
	L 7072.09 287.75 
	Z 
	"/>
</g>
<g fill="#7f7f7f" fill-rule="nonzero" stroke-width="0" stroke-linejoin="miter" stroke-linecap="butt" stroke-miterlimit="4" >
	<path d="
	M 6759.55 -207.41 
	L 6759.55 287.75 
	L 6668.21 287.75 
	L 6668.21 -207.41 
	L 6536.26 -207.41 
	L 6536.26 -288.25 
	L 6893.52 -288.25 
	L 6893.52 -207.41 
	Z 
	"/>
</g>
<g fill="#7f7f7f" fill-rule="nonzero" stroke-width="0" stroke-linejoin="miter" stroke-linecap="butt" stroke-miterlimit="4" >
	<path d="
	M 814.781 287.75 
	L 814.781 37.141 
	L 604.57 37.141 
	L 604.57 287.75 
	L 513.617 287.75 
	L 513.617 -288.25 
	L 604.57 -288.25 
	L 604.57 -55.828 
	L 814.781 -55.828 
	L 814.781 -288.25 
	L 905.734 -288.25 
	L 905.734 287.75 
	Z 
	"/>
</g>
<g fill="#7f7f7f" fill-rule="nonzero" stroke-width="0" stroke-linejoin="miter" stroke-linecap="butt" stroke-miterlimit="4" >
	<path d="
	M 2276.25 -173.051 
	C 2262.1 -187.199 2241.89 -197.301 2217.63 -197.301 
	L 2114.55 -197.301 
	L 2114.55 194.781 
	L 2205.5 194.781 
	C 2235.83 194.781 2254.01 188.719 2270.18 172.551 
	C 2304.54 138.199 2322.73 75.539 2322.73 -1.26202 
	C 2322.73 -78.059 2304.54 -142.73 2276.25 -173.051 
	Z 
	M 2314.65 255.422 
	C 2292.42 275.629 2262.1 285.73 2231.78 287.75 
	C 2225.72 287.75 2213.59 287.75 2199.44 287.75 
	L 2023.6 287.75 
	L 2023.6 -288.25 
	L 2209.54 -288.25 
	C 2268.16 -288.25 2290.39 -282.19 2320.71 -257.93 
	C 2381.35 -205.379 2415.71 -114.441 2415.71 -1.26202 
	C 2415.71 113.941 2379.33 204.891 2314.65 255.422 
	Z 
	"/>
</g>
<g fill="#7f7f7f" fill-rule="nonzero" stroke-width="0" stroke-linejoin="miter" stroke-linecap="butt" stroke-miterlimit="4" >
	<path d="
	M 1043.96 287.75 
	L 1043.96 -288.25 
	L 1383.06 -288.25 
	L 1383.06 -197.301 
	L 1134.79 -197.301 
	L 1134.79 -55.828 
	L 1302.33 -55.828 
	L 1302.33 37.141 
	L 1134.79 37.141 
	L 1134.79 194.781 
	L 1401.23 194.781 
	L 1401.23 287.75 
	Z 
	"/>
</g>
<g fill="#7f7f7f" fill-rule="nonzero" stroke-width="0" stroke-linejoin="miter" stroke-linecap="butt" stroke-miterlimit="4" >
	<path d="
	M 1693.27 -128.59 
	L 1634.32 33.102 
	L 1750.19 33.102 
	Z 
	M 1839.63 287.75 
	L 1782.71 126.07 
	L 1601.8 126.07 
	L 1544.88 287.75 
	L 1447.31 287.75 
	L 1646.52 -288.25 
	L 1737.99 -288.25 
	L 1937.2 287.75 
	Z 
	"/>
</g>
<g fill="#7f7f7f" fill-rule="nonzero" stroke-width="0" stroke-linejoin="miter" stroke-linecap="butt" stroke-miterlimit="4" >
	<path d="
	M 2986.09 287.75 
	L 2986.09 -288.25 
	L 3078.25 -288.25 
	L 3078.25 287.75 
	Z 
	"/>
</g>
<g fill="#7f7f7f" fill-rule="nonzero" stroke-width="0" stroke-linejoin="miter" stroke-linecap="butt" stroke-miterlimit="4" >
	<path d="
	M 2542.43 287.75 
	L 2542.43 -288.25 
	L 2633.26 -288.25 
	L 2633.26 202.871 
	L 2899.69 202.871 
	L 2899.69 287.75 
	Z 
	"/>
</g>
<g fill="#7f7f7f" fill-rule="nonzero" stroke-width="0" stroke-linejoin="miter" stroke-linecap="butt" stroke-miterlimit="4" >
	<path d="
	M 4425.6 -207.41 
	L 4425.6 287.75 
	L 4334.26 287.75 
	L 4334.26 -207.41 
	L 4202.31 -207.41 
	L 4202.31 -288.25 
	L 4559.58 -288.25 
	L 4559.58 -207.41 
	Z 
	"/>
</g>
<g fill="#7f7f7f" fill-rule="nonzero" stroke-width="0" stroke-linejoin="miter" stroke-linecap="butt" stroke-miterlimit="4" >
	<path d="
	M 4024.96 287.75 
	L 4024.96 37.141 
	L 3814.76 37.141 
	L 3814.76 287.75 
	L 3723.8 287.75 
	L 3723.8 -288.25 
	L 3814.76 -288.25 
	L 3814.76 -55.828 
	L 4024.96 -55.828 
	L 4024.96 -288.25 
	L 4115.92 -288.25 
	L 4115.92 287.75 
	Z 
	"/>
</g>
<g fill="#7f7f7f" fill-rule="nonzero" stroke-width="0" stroke-linejoin="miter" stroke-linecap="butt" stroke-miterlimit="4" >
	<path d="
	M 3415.18 297.859 
	C 3328.27 297.859 3277.74 265.52 3243.38 192.762 
	C 3219.12 142.238 3204.97 71.5 3204.97 0.762024 
	C 3204.97 -92.211 3231.25 -183.148 3269.65 -233.68 
	C 3304.01 -276.12 3352.52 -298.35 3417.2 -298.35 
	C 3506.13 -298.35 3558.69 -261.97 3597.08 -171.02 
	L 3510.18 -136.672 
	C 3485.92 -187.199 3461.67 -205.379 3417.2 -205.379 
	C 3370.71 -205.379 3340.39 -185.18 3320.18 -134.648 
	C 3306.04 -100.289 3297.95 -47.738 3297.95 0.762024 
	C 3297.95 61.391 3308.05 122.031 3326.24 158.398 
	C 3344.44 190.738 3370.71 204.891 3405.07 204.891 
	C 3463.69 204.891 3506.13 168.512 3506.13 115.961 
	L 3506.13 91.711 
	L 3401.03 91.711 
	L 3401.03 0.762024 
	L 3597.08 0.762024 
	L 3597.08 115.961 
	C 3597.08 221.059 3520.29 297.859 3415.18 297.859 
	Z 
	"/>
</g>
<g fill="#7f7f7f" fill-rule="nonzero" stroke-width="0" stroke-linejoin="miter" stroke-linecap="butt" stroke-miterlimit="4" >
	<path d="
	M 3418.53 -720.25 
	L 3198.21 -1110.31 
	L 3198.21 -720.25 
	L 3107.26 -720.25 
	L 3107.26 -1296.25 
	L 3198.21 -1296.25 
	L 3408.42 -928.42 
	L 3408.42 -1296.25 
	L 3499.37 -1296.25 
	L 3499.37 -720.25 
	Z 
	"/>
</g>
<g fill="#7f7f7f" fill-rule="nonzero" stroke-width="0" stroke-linejoin="miter" stroke-linecap="butt" stroke-miterlimit="4" >
	<path d="
	M 2876.86 -720.25 
	L 2876.86 -1296.25 
	L 2969.02 -1296.25 
	L 2969.02 -720.25 
	Z 
	"/>
</g>
<g fill="#7f7f7f" fill-rule="nonzero" stroke-width="0" stroke-linejoin="miter" stroke-linecap="butt" stroke-miterlimit="4" >
	<path d="
	M 1914.36 -720.25 
	L 1914.36 -1296.25 
	L 2253.46 -1296.25 
	L 2253.46 -1205.3 
	L 2005.19 -1205.3 
	L 2005.19 -1063.83 
	L 2172.73 -1063.83 
	L 2172.73 -970.86 
	L 2005.19 -970.86 
	L 2005.19 -813.22 
	L 2271.63 -813.22 
	L 2271.63 -720.25 
	Z 
	"/>
</g>
<g fill="#7f7f7f" fill-rule="nonzero" stroke-width="0" stroke-linejoin="miter" stroke-linecap="butt" stroke-miterlimit="4" >
	<path d="
	M 1668.9 -966.82 
	C 1656.77 -970.86 1650.71 -970.86 1630.5 -970.86 
	L 1515.29 -970.86 
	L 1515.29 -813.22 
	L 1652.73 -813.22 
	C 1699.22 -813.22 1723.47 -835.45 1723.47 -879.91 
	C 1723.47 -918.31 1701.24 -954.69 1668.9 -966.82 
	Z 
	M 1648.69 -1205.31 
	L 1515.29 -1205.31 
	L 1515.29 -1063.83 
	L 1624.43 -1063.83 
	C 1650.71 -1063.83 1662.84 -1067.88 1679 -1080 
	C 1699.22 -1096.17 1711.35 -1120.42 1711.35 -1146.7 
	C 1711.35 -1185.09 1689.11 -1205.31 1648.69 -1205.31 
	Z 
	M 1723.47 -734.39 
	C 1703.26 -726.31 1668.9 -720.25 1642.62 -720.25 
	L 1424.34 -720.25 
	L 1424.34 -1296.25 
	L 1642.62 -1296.25 
	C 1733.58 -1296.25 1802.3 -1233.6 1802.3 -1150.74 
	C 1802.3 -1094.15 1776.02 -1051.7 1721.45 -1021.39 
	C 1782.09 -993.09 1816.45 -944.59 1816.45 -881.93 
	C 1816.45 -819.28 1778.04 -756.63 1723.47 -734.39 
	Z 
	"/>
</g>
<g fill="#7f7f7f" fill-rule="nonzero" stroke-width="0" stroke-linejoin="miter" stroke-linecap="butt" stroke-miterlimit="4" >
	<path d="
	M 2568.24 -710.14 
	C 2481.33 -710.14 2430.8 -742.48 2396.44 -815.24 
	C 2372.18 -865.77 2358.03 -936.5 2358.03 -1007.24 
	C 2358.03 -1100.21 2384.31 -1191.16 2422.71 -1241.68 
	C 2457.07 -1284.13 2505.58 -1306.36 2570.26 -1306.36 
	C 2659.19 -1306.36 2711.74 -1269.97 2750.14 -1179.03 
	L 2663.23 -1144.67 
	C 2638.98 -1195.2 2614.72 -1213.39 2570.26 -1213.39 
	C 2523.77 -1213.39 2493.45 -1193.18 2473.24 -1142.65 
	C 2459.09 -1108.29 2451.01 -1055.75 2451.01 -1007.24 
	C 2451.01 -946.61 2461.11 -885.97 2479.3 -849.6 
	C 2497.49 -817.26 2523.77 -803.11 2558.13 -803.11 
	C 2616.74 -803.11 2659.19 -839.49 2659.19 -892.04 
	L 2659.19 -916.29 
	L 2554.09 -916.29 
	L 2554.09 -1007.24 
	L 2750.14 -1007.24 
	L 2750.14 -892.04 
	C 2750.14 -786.94 2673.34 -710.14 2568.24 -710.14 
	Z 
	"/>
</g>
<g fill="#7f7f7f" fill-rule="nonzero" stroke-width="0" stroke-linejoin="miter" stroke-linecap="butt" stroke-miterlimit="4" >
	<path d="
	M 5361.35 -970.86 
	L 5361.35 -720.25 
	L 5269.94 -720.25 
	L 5269.94 -970.86 
	L 5066.81 -1296.25 
	L 5176.5 -1296.25 
	L 5314.63 -1073.94 
	L 5454.79 -1296.25 
	L 5562.46 -1296.25 
	Z 
	"/>
</g>
<g fill="#7f7f7f" fill-rule="nonzero" stroke-width="0" stroke-linejoin="miter" stroke-linecap="butt" stroke-miterlimit="4" >
	<path d="
	M 4328.02 -1181.05 
	C 4313.87 -1195.2 4293.66 -1205.3 4269.4 -1205.3 
	L 4166.32 -1205.3 
	L 4166.32 -813.22 
	L 4257.28 -813.22 
	C 4287.6 -813.22 4305.79 -819.28 4321.95 -835.45 
	C 4356.32 -869.81 4374.5 -932.46 4374.5 -1009.27 
	C 4374.5 -1086.06 4356.32 -1150.73 4328.02 -1181.05 
	Z 
	M 4366.42 -752.59 
	C 4344.19 -732.37 4313.87 -722.27 4283.55 -720.25 
	C 4277.49 -720.25 4265.36 -720.25 4251.21 -720.25 
	L 4075.37 -720.25 
	L 4075.37 -1296.25 
	L 4261.32 -1296.25 
	C 4319.93 -1296.25 4342.17 -1290.19 4372.48 -1265.93 
	C 4433.12 -1213.39 4467.48 -1122.44 4467.48 -1009.27 
	C 4467.48 -894.06 4431.1 -803.11 4366.42 -752.59 
	Z 
	"/>
</g>
<g fill="#7f7f7f" fill-rule="nonzero" stroke-width="0" stroke-linejoin="miter" stroke-linecap="butt" stroke-miterlimit="4" >
	<path d="
	M 6858.89 -720.25 
	L 6858.89 -1296.25 
	L 7197.99 -1296.25 
	L 7197.99 -1205.3 
	L 6949.73 -1205.3 
	L 6949.73 -1063.83 
	L 7117.26 -1063.83 
	L 7117.26 -970.86 
	L 6949.73 -970.86 
	L 6949.73 -813.22 
	L 7216.16 -813.22 
	L 7216.16 -720.25 
	Z 
	"/>
</g>
<g fill="#7f7f7f" fill-rule="nonzero" stroke-width="0" stroke-linejoin="miter" stroke-linecap="butt" stroke-miterlimit="4" >
	<path d="
	M 4788.32 -1136.59 
	L 4729.37 -974.9 
	L 4845.24 -974.9 
	Z 
	M 4934.68 -720.25 
	L 4877.76 -881.93 
	L 4696.85 -881.93 
	L 4639.93 -720.25 
	L 4542.36 -720.25 
	L 4741.57 -1296.25 
	L 4833.04 -1296.25 
	L 5032.25 -720.25 
	Z 
	"/>
</g>
<g fill="#7f7f7f" fill-rule="nonzero" stroke-width="0" stroke-linejoin="miter" stroke-linecap="butt" stroke-miterlimit="4" >
	<path d="
	M 6040.69 -720.25 
	L 6040.69 -1296.25 
	L 6132.85 -1296.25 
	L 6132.85 -720.25 
	Z 
	"/>
</g>
<g fill="#7f7f7f" fill-rule="nonzero" stroke-width="0" stroke-linejoin="miter" stroke-linecap="butt" stroke-miterlimit="4" >
	<path d="
	M 5820.31 -1215.41 
	L 5820.31 -720.25 
	L 5728.97 -720.25 
	L 5728.97 -1215.41 
	L 5597.02 -1215.41 
	L 5597.02 -1296.25 
	L 5954.29 -1296.25 
	L 5954.29 -1215.41 
	Z 
	"/>
</g>
<g fill="#7f7f7f" fill-rule="nonzero" stroke-width="0" stroke-linejoin="miter" stroke-linecap="butt" stroke-miterlimit="4" >
	<path d="
	M 6629.52 -720.25 
	L 6629.52 -1053.72 
	L 6495.87 -720.25 
	L 6362.21 -1053.72 
	L 6362.21 -720.25 
	L 6271.09 -720.25 
	L 6271.09 -1296.25 
	L 6362.21 -1296.25 
	L 6495.87 -972.88 
	L 6629.52 -1296.25 
	L 6720.65 -1296.25 
	L 6720.65 -720.25 
	Z 
	"/>
</g>
</g >
</g>
</svg>
