<?xml version="1.0" encoding="UTF-8" standalone="no"?>
<!-- Created with Inkscape (http://www.inkscape.org/) -->

<svg
   version="1.1"
   id="svg1"
   width="8064.6665"
   height="4032.6667"
   viewBox="0 0 8064.6665 4032.6667"
   sodipodi:docname="tmpdmmyddz3.pdf"
   xmlns:inkscape="http://www.inkscape.org/namespaces/inkscape"
   xmlns:sodipodi="http://sodipodi.sourceforge.net/DTD/sodipodi-0.dtd"
   xmlns="http://www.w3.org/2000/svg"
   xmlns:svg="http://www.w3.org/2000/svg">
  <defs
     id="defs1" />
  <sodipodi:namedview
     id="namedview1"
     pagecolor="#ffffff"
     bordercolor="#000000"
     borderopacity="0.25"
     inkscape:showpageshadow="2"
     inkscape:pageopacity="0.0"
     inkscape:pagecheckerboard="0"
     inkscape:deskcolor="#d1d1d1">
    <inkscape:page
       x="0"
       y="0"
       inkscape:label="1"
       id="page1"
       width="8064.6665"
       height="4032.6667"
       margin="0"
       bleed="0" />
  </sodipodi:namedview>
  <g
     id="g1"
     inkscape:groupmode="layer"
     inkscape:label="1">
    <g
       id="group-R5">
      <path
         id="path2"
         d="M 2.5,19757.5 V 1622.5 C 2.5,727.801 727.805,2.5 1622.5,2.5 h 57240 c 894.7,0 1620,725.301 1620,1620 v 18135"
         style="fill:#ffffff;fill-opacity:1;fill-rule:nonzero;stroke:#231f20;stroke-width:5;stroke-linecap:butt;stroke-linejoin:miter;stroke-miterlimit:4;stroke-dasharray:none;stroke-opacity:1"
         transform="matrix(0.13333333,0,0,-0.13333333,0,4032.6667)" />
      <path
         id="path3"
         d="m 60482.5,19757.5 v 8865 c 0,894.7 -725.3,1620 -1620,1620 H 1622.51 C 727.805,30242.5 2.5,29517.2 2.5,28622.5 v -8865"
         style="fill:#fccc2d;fill-opacity:1;fill-rule:nonzero;stroke:#231f20;stroke-width:5;stroke-linecap:butt;stroke-linejoin:miter;stroke-miterlimit:4;stroke-dasharray:none;stroke-opacity:1"
         transform="matrix(0.13333333,0,0,-0.13333333,0,4032.6667)" />
      <path
         id="path4"
         d="m 58862.5,1082.5 h -57240 c -297.75,0 -540,242.3 -540,540 v 17820 h 58320 v -17820 c 0,-297.7 -242.3,-540 -540,-540 z m -57240,28080 h 57240 c 297.7,0 540,-242.2 540,-540 v -8550 h -58320 v 8550 c 0,297.8 242.25,540 540,540 z m 57240,630 h -57240 c -645.137,0 -1170,-524.9 -1170,-1170 v -27000 c 0,-645.098 524.863,-1170 1170,-1170 h 57240 c 645.1,0 1170,524.902 1170,1170 v 27000 c 0,645.1 -524.9,1170 -1170,1170"
         style="fill:#231f20;fill-opacity:1;fill-rule:nonzero;stroke:none"
         transform="matrix(0.13333333,0,0,-0.13333333,0,4032.6667)" />
      <path
         id="path5"
         d="M 16019.5,22412.5 14367.2,25338 V 22412.5 H 13685 v 4320 h 682.2 l 1576.5,-2758.8 v 2758.8 h 682.1 v -4320 h -606.3"
         style="fill:#231f20;fill-opacity:1;fill-rule:nonzero;stroke:none"
         transform="matrix(0.13333333,0,0,-0.13333333,0,4032.6667)" />
      <path
         id="path6"
         d="m 26862.6,25974.6 c -106.1,60.6 -166.7,75.8 -394.1,75.8 h -818.6 v -1061.1 h 818.6 c 212.2,0 288,15.2 394.1,75.8 166.8,91 272.9,272.9 272.9,454.7 0,182 -106.1,363.9 -272.9,454.8 z m 303.2,-3562.1 -697.3,1879.6 h -818.6 v -1879.6 h -682.1 v 4320 h 1424.9 c 333.5,0 560.9,-30.3 773.1,-136.4 379,-181.9 651.8,-636.7 651.8,-1076.3 0,-454.7 -272.8,-909.4 -666.9,-1091.3 l 757.9,-2016 h -742.8"
         style="fill:#231f20;fill-opacity:1;fill-rule:nonzero;stroke:none"
         transform="matrix(0.13333333,0,0,-0.13333333,0,4032.6667)" />
      <path
         id="path7"
         d="m 19557.5,25868.5 c -106.1,106.1 -257.7,181.9 -439.6,181.9 h -773.1 v -2940.7 h 682.2 c 227.4,0 363.8,45.5 485,166.8 257.8,257.7 394.2,727.6 394.2,1303.6 0,576 -136.4,1061 -348.7,1288.4 z m 288.1,-3213.5 c -166.8,-151.6 -394.2,-227.4 -621.6,-242.5 -45.4,0 -136.4,0 -242.5,0 h -1318.8 v 4320 h 1394.6 c 439.6,0 606.3,-45.5 833.7,-227.4 454.8,-394.1 712.5,-1076.2 712.5,-1925 0,-864 -272.9,-1546.2 -757.9,-1925.1"
         style="fill:#231f20;fill-opacity:1;fill-rule:nonzero;stroke:none"
         transform="matrix(0.13333333,0,0,-0.13333333,0,4032.6667)" />
      <path
         id="path8"
         d="m 10271.1,22412.5 v 4320 h 2543.2 v -682.1 h -1862 v -1061.1 h 1256.5 v -697.2 h -1256.5 v -1182.4 h 1998.3 v -697.2 h -2679.5"
         style="fill:#231f20;fill-opacity:1;fill-rule:nonzero;stroke:none"
         transform="matrix(0.13333333,0,0,-0.13333333,0,4032.6667)" />
      <path
         id="path9"
         d="m 21553.9,22412.5 v 4320 h 2543.2 v -682.1 h -1862 v -1061.1 h 1256.5 v -697.2 h -1256.5 v -1182.4 h 1998.3 v -697.2 h -2679.5"
         style="fill:#231f20;fill-opacity:1;fill-rule:nonzero;stroke:none"
         transform="matrix(0.13333333,0,0,-0.13333333,0,4032.6667)" />
      <path
         id="path10"
         d="M 41652.2,22412.5 39999.9,25338 v -2925.5 h -682.1 v 4320 h 682.1 l 1576.5,-2758.8 v 2758.8 h 682.2 v -4320 h -606.4"
         style="fill:#231f20;fill-opacity:1;fill-rule:nonzero;stroke:none"
         transform="matrix(0.13333333,0,0,-0.13333333,0,4032.6667)" />
      <path
         id="path11"
         d="m 52495.4,25974.6 c -106.1,60.6 -166.8,75.8 -394.2,75.8 h -818.5 v -1061.1 h 818.5 c 212.3,0 288.1,15.2 394.2,75.8 166.7,91 272.9,272.9 272.9,454.7 0,182 -106.2,363.9 -272.9,454.8 z m 303.2,-3562.1 -697.4,1879.6 h -818.5 v -1879.6 h -682.2 v 4320 h 1424.9 c 333.6,0 560.9,-30.3 773.2,-136.4 378.9,-181.9 651.8,-636.7 651.8,-1076.3 0,-454.7 -272.9,-909.4 -667,-1091.3 l 758,-2016 h -742.8"
         style="fill:#231f20;fill-opacity:1;fill-rule:nonzero;stroke:none"
         transform="matrix(0.13333333,0,0,-0.13333333,0,4032.6667)" />
      <path
         id="path12"
         d="m 45190.3,25868.5 c -106.1,106.1 -257.7,181.9 -439.6,181.9 h -773.2 v -2940.7 h 682.2 c 227.4,0 363.8,45.5 485.1,166.8 257.7,257.7 394.1,727.6 394.1,1303.6 0,576 -136.4,1061 -348.6,1288.4 z m 288,-3213.5 c -166.8,-151.6 -394.1,-227.4 -621.5,-242.5 -45.5,0 -136.5,0 -242.6,0 h -1318.8 v 4320 H 44690 c 439.6,0 606.4,-45.5 833.8,-227.4 454.8,-394.1 712.4,-1076.2 712.4,-1925 0,-864 -272.8,-1546.2 -757.9,-1925.1"
         style="fill:#231f20;fill-opacity:1;fill-rule:nonzero;stroke:none"
         transform="matrix(0.13333333,0,0,-0.13333333,0,4032.6667)" />
      <path
         id="path13"
         d="m 35903.8,22412.5 v 4320 h 2543.3 v -682.1 h -1862 v -1061.1 h 1256.5 v -697.2 h -1256.5 v -1182.4 h 1998.2 v -697.2 h -2679.5"
         style="fill:#231f20;fill-opacity:1;fill-rule:nonzero;stroke:none"
         transform="matrix(0.13333333,0,0,-0.13333333,0,4032.6667)" />
      <path
         id="path14"
         d="m 47186.6,22412.5 v 4320 h 2543.3 v -682.1 h -1862.1 v -1061.1 h 1256.6 v -697.2 h -1256.6 v -1182.4 h 1998.3 v -697.2 h -2679.5"
         style="fill:#231f20;fill-opacity:1;fill-rule:nonzero;stroke:none"
         transform="matrix(0.13333333,0,0,-0.13333333,0,4032.6667)" />
      <path
         id="path15"
         d="m 34062.9,24261.7 c -91,30.4 -136.5,30.4 -288,30.4 h -864.1 v -1182.4 h 1030.8 c 348.7,0 530.6,166.8 530.6,500.3 0,288 -166.8,560.8 -409.3,651.7 z m -151.6,1788.7 h -1000.5 v -1061.1 h 818.6 c 197,0 288,30.4 409.3,121.3 151.6,121.3 242.5,303.2 242.5,500.2 0,288 -166.7,439.6 -469.9,439.6 z m 560.9,-3531.8 c -151.6,-60.7 -409.3,-106.1 -606.4,-106.1 h -1637.2 v 4320 h 1637.2 c 682.1,0 1197.6,-469.9 1197.6,-1091.4 0,-424.4 -197.1,-742.7 -606.4,-970.1 454.8,-212.2 712.5,-576 712.5,-1045.9 0,-469.9 -288,-939.8 -697.3,-1106.5"
         style="fill:#231f20;fill-opacity:1;fill-rule:nonzero;stroke:none"
         transform="matrix(0.13333333,0,0,-0.13333333,0,4032.6667)" />
      <path
         id="path16"
         d="m 7624.86,26050.4 v -1061.1 h 1256.46 v -697.2 H 7624.86 v -1879.6 h -681.24 v 4320 h 2679.5 v -682.1 H 7624.86"
         style="fill:#231f20;fill-opacity:1;fill-rule:nonzero;stroke:none"
         transform="matrix(0.13333333,0,0,-0.13333333,0,4032.6667)" />
      <path
         id="path17"
         d="m 39708.8,15050.5 c -60.8,424.4 -228.3,621.5 -517.5,621.5 -502.3,0 -685,-394.1 -685,-1515.8 0,-1243 213.1,-1743.2 745.9,-1743.2 365.3,0 456.6,303.2 456.6,621.5 h 624.1 c -15.2,-712.4 -471.8,-1227.8 -1080.7,-1227.8 -928.5,0 -1339.5,742.8 -1339.5,2334.3 0,1394.6 441.4,2137.3 1293.8,2137.3 350.1,0 654.6,-151.6 852.4,-439.6 167.5,-212.2 228.4,-394.1 274,-788.2 h -624.1"
         style="fill:#231f20;fill-opacity:1;fill-rule:nonzero;stroke:none"
         transform="matrix(0.13333333,0,0,-0.13333333,0,4032.6667)" />
      <path
         id="path18"
         d="m 21405.9,11882.5 v 4320 H 23443 v -606.3 h -1413.8 v -1091.4 h 896.9 v -591.1 h -896.9 v -1424.9 h 1581 v -606.3 h -2204.3"
         style="fill:#231f20;fill-opacity:1;fill-rule:nonzero;stroke:none"
         transform="matrix(0.13333333,0,0,-0.13333333,0,4032.6667)" />
      <path
         id="path19"
         d="m 30134.5,11882.5 v 4320 h 2037 v -606.3 h -1413.8 v -1091.4 h 897 v -591.1 h -897 v -1424.9 h 1581.1 v -606.3 h -2204.3"
         style="fill:#231f20;fill-opacity:1;fill-rule:nonzero;stroke:none"
         transform="matrix(0.13333333,0,0,-0.13333333,0,4032.6667)" />
      <path
         id="path20"
         d="m 44006,11882.5 v 4320 h 2037 v -606.3 h -1413.7 v -1091.4 h 896.9 v -591.1 h -896.9 v -1424.9 h 1581 v -606.3 H 44006"
         style="fill:#231f20;fill-opacity:1;fill-rule:nonzero;stroke:none"
         transform="matrix(0.13333333,0,0,-0.13333333,0,4032.6667)" />
      <path
         id="path21"
         d="m 34873.3,11882.5 v 1955.4 h -1179.9 v -1955.4 h -620.2 v 4320 h 620.2 v -1758.3 h 1179.9 v 1758.3 h 620.1 v -4320 h -620.1"
         style="fill:#231f20;fill-opacity:1;fill-rule:nonzero;stroke:none"
         transform="matrix(0.13333333,0,0,-0.13333333,0,4032.6667)" />
      <path
         id="path22"
         d="m 36443.9,11882.5 v 4320 h 604.7 v -4320 h -604.7"
         style="fill:#231f20;fill-opacity:1;fill-rule:nonzero;stroke:none"
         transform="matrix(0.13333333,0,0,-0.13333333,0,4032.6667)" />
      <path
         id="path23"
         d="m 41196.9,11882.5 v 4320 h 623.3 v -3744 h 1581 v -576 h -2204.3"
         style="fill:#231f20;fill-opacity:1;fill-rule:nonzero;stroke:none"
         transform="matrix(0.13333333,0,0,-0.13333333,0,4032.6667)" />
      <path
         id="path24"
         d="m 13567.1,11882.5 v 2425.3 l -804.4,-2425.3 -804.4,2425.3 V 11882.5 H 11336 v 4320 h 622.3 l 804.4,-2425.3 804.4,2425.3 h 622.3 v -4320 h -622.3"
         style="fill:#231f20;fill-opacity:1;fill-rule:nonzero;stroke:none"
         transform="matrix(0.13333333,0,0,-0.13333333,0,4032.6667)" />
      <path
         id="path25"
         d="m 16870.4,15126.3 c -106.9,378.9 -274.9,545.7 -534.4,545.7 -274.9,0 -442.8,-166.8 -549.7,-530.5 -106.9,-333.5 -137.4,-621.5 -137.4,-1106.6 0,-469.9 45.8,-742.7 137.4,-1091.3 106.9,-363.8 274.8,-530.6 549.7,-530.6 259.5,0 427.5,166.8 534.4,530.6 106.8,348.6 137.4,606.3 137.4,1106.5 0,485 -45.8,757.9 -137.4,1076.2 z m 488.6,-2576.8 c -213.8,-515.4 -534.4,-742.8 -1023,-742.8 -519.2,0 -824.5,227.4 -1038.3,742.8 -183.2,424.4 -244.3,833.6 -244.3,1500.6 0,651.8 61.1,1091.4 244.3,1500.6 229,515.4 534.4,727.6 1038.3,727.6 503.8,0 809.2,-212.2 1023,-742.7 183.2,-424.5 244.3,-833.7 244.3,-1485.5 0,-667 -61.1,-1091.4 -244.3,-1500.6"
         style="fill:#231f20;fill-opacity:1;fill-rule:nonzero;stroke:none"
         transform="matrix(0.13333333,0,0,-0.13333333,0,4032.6667)" />
      <path
         id="path26"
         d="m 47958.8,13877.5 c -186.9,121.1 -368.4,242.6 -484.2,324.2 -348.3,245.1 -532.8,576 -532.8,954.9 0,621.5 487.1,1121.7 1111.2,1121.7 608.9,0 1080.7,-469.9 1096,-1121.7 h -593.7 c -15.2,303.2 -228.3,500.2 -502.3,500.2 -289.2,0 -517.6,-212.2 -517.6,-500.2 0,-212.2 91.4,-333.4 411,-515.4 837.2,-485 1202.6,-954.9 1202.6,-1576.4 0,-697.2 -532.8,-1258.1 -1202.6,-1258.1 -761.1,0 -1217.7,636.6 -1217.7,1349.1 h 608.8 c 0,-363.8 182.7,-742.8 608.9,-742.8 334.9,0 608.9,303.2 608.9,651.8 0,270.7 -111.9,498.7 -596.5,812.7"
         style="fill:#231f20;fill-opacity:1;fill-rule:nonzero;stroke:none"
         transform="matrix(0.13333333,0,0,-0.13333333,0,4032.6667)" />
      <path
         id="path27"
         d="m 19689.8,11882.5 h -472 l -1096.1,4320 h 624.1 l 715.6,-2804.2 715.5,2804.2 h 624.2 l -1111.3,-4320"
         style="fill:#231f20;fill-opacity:1;fill-rule:nonzero;stroke:none"
         transform="matrix(0.13333333,0,0,-0.13333333,0,4032.6667)" />
      <path
         id="path28"
         d="m 28418.3,11882.5 h -471.9 l -1096.2,4320 h 624.2 l 715.6,-2804.2 715.5,2804.2 h 624.2 l -1111.4,-4320"
         style="fill:#231f20;fill-opacity:1;fill-rule:nonzero;stroke:none"
         transform="matrix(0.13333333,0,0,-0.13333333,0,4032.6667)" />
      <path
         id="path29"
         d="m 27591.5,7354.1 -303.9,-1243 h 623.1 z m 775.1,-3031.6 -304,1182.3 h -927 l -288.7,-1182.3 h -623.1 l 1079,4320 h 607.9 l 1079,-4320 h -623.1"
         style="fill:#231f20;fill-opacity:1;fill-rule:nonzero;stroke:none"
         transform="matrix(0.13333333,0,0,-0.13333333,0,4032.6667)" />
      <path
         id="path30"
         d="m 44747.4,7354.1 -304,-1243 h 623.1 z m 775,-3031.6 -304,1182.3 h -927 l -288.7,-1182.3 h -623.1 l 1079,4320 h 607.9 l 1079,-4320 h -623.1"
         style="fill:#231f20;fill-opacity:1;fill-rule:nonzero;stroke:none"
         transform="matrix(0.13333333,0,0,-0.13333333,0,4032.6667)" />
      <path
         id="path31"
         d="m 32533.2,4322.5 v 4320 h 2037 V 8036.2 H 33156.4 V 6944.8 h 897 v -591.1 h -897 V 4928.8 h 1581.1 v -606.3 h -2204.3"
         style="fill:#231f20;fill-opacity:1;fill-rule:nonzero;stroke:none"
         transform="matrix(0.13333333,0,0,-0.13333333,0,4032.6667)" />
      <path
         id="path32"
         d="M 5844.33,8036.2 V 6944.8 h 866.51 V 6353.7 H 5844.33 V 4322.5 h -623.29 v 4320 H 7425.32 V 8036.2 H 5844.33"
         style="fill:#231f20;fill-opacity:1;fill-rule:nonzero;stroke:none"
         transform="matrix(0.13333333,0,0,-0.13333333,0,4032.6667)" />
      <path
         id="path33"
         d="m 35471.8,4322.5 v 4320 h 623.3 v -3744 h 1581 v -576 h -2204.3"
         style="fill:#231f20;fill-opacity:1;fill-rule:nonzero;stroke:none"
         transform="matrix(0.13333333,0,0,-0.13333333,0,4032.6667)" />
      <path
         id="path34"
         d="m 40916.1,4322.5 v 4320 h 623.3 v -3744 h 1581 v -576 h -2204.3"
         style="fill:#231f20;fill-opacity:1;fill-rule:nonzero;stroke:none"
         transform="matrix(0.13333333,0,0,-0.13333333,0,4032.6667)" />
      <path
         id="path35"
         d="m 16743.4,4322.5 v 2425.3 l -804.5,-2425.3 -804.4,2425.3 V 4322.5 h -622.2 v 4320 h 622.2 l 804.4,-2425.3 804.5,2425.3 h 622.2 v -4320 h -622.2"
         style="fill:#231f20;fill-opacity:1;fill-rule:nonzero;stroke:none"
         transform="matrix(0.13333333,0,0,-0.13333333,0,4032.6667)" />
      <path
         id="path36"
         d="M 48701.6,4322.5 47370.5,7217.7 V 4322.5 h -620.2 v 4320 h 620.2 l 1179.9,-2592 v 2592 h 620.2 v -4320 h -469"
         style="fill:#231f20;fill-opacity:1;fill-rule:nonzero;stroke:none"
         transform="matrix(0.13333333,0,0,-0.13333333,0,4032.6667)" />
      <path
         id="path37"
         d="m 12915.4,7566.3 c -106.9,379 -274.9,545.7 -534.4,545.7 -274.9,0 -442.8,-166.7 -549.7,-530.5 -106.9,-333.5 -137.4,-621.5 -137.4,-1106.6 0,-469.9 45.8,-742.7 137.4,-1091.3 106.9,-363.8 274.8,-530.6 549.7,-530.6 259.5,0 427.5,166.8 534.4,530.6 106.9,348.6 137.4,606.3 137.4,1106.5 0,485 -45.8,757.9 -137.4,1076.2 z M 13404,4989.5 c -213.8,-515.4 -534.4,-742.8 -1023,-742.8 -519.2,0 -824.5,227.4 -1038.3,742.8 -183.2,424.4 -244.3,833.6 -244.3,1500.6 0,651.8 61.1,1091.4 244.3,1500.6 229,515.4 534.4,727.6 1038.3,727.6 503.9,0 809.2,-212.2 1023,-742.7 183.2,-424.5 244.3,-833.7 244.3,-1485.5 0,-667 -61.1,-1091.4 -244.3,-1500.6"
         style="fill:#231f20;fill-opacity:1;fill-rule:nonzero;stroke:none"
         transform="matrix(0.13333333,0,0,-0.13333333,0,4032.6667)" />
      <path
         id="path38"
         d="M 9285.65,8036.2 H 8650.33 V 6944.8 h 635.32 c 363.05,0 559.69,197.1 559.69,545.7 0,333.5 -226.9,545.7 -559.69,545.7 z M 9815.09,4322.5 9240.26,6353.7 H 8650.33 V 4322.5 h -620.2 v 4320 H 9315.9 c 680.72,0 1134.5,-454.7 1134.5,-1152 0,-515.4 -211.8,-894.3 -620.19,-1045.9 l 620.19,-2122.1 h -635.31"
         style="fill:#231f20;fill-opacity:1;fill-rule:nonzero;stroke:none"
         transform="matrix(0.13333333,0,0,-0.13333333,0,4032.6667)" />
      <path
         id="path39"
         d="m 24670.2,8036.2 h -635.3 V 6944.8 h 635.3 c 363.1,0 559.7,197.1 559.7,545.7 0,333.5 -226.9,545.7 -559.7,545.7 z m 529.5,-3713.7 -574.9,2031.2 h -589.9 V 4322.5 h -620.2 v 4320 h 1285.8 c 680.7,0 1134.5,-454.7 1134.5,-1152 0,-515.4 -211.8,-894.3 -620.2,-1045.9 L 25835,4322.5 h -635.3"
         style="fill:#231f20;fill-opacity:1;fill-rule:nonzero;stroke:none"
         transform="matrix(0.13333333,0,0,-0.13333333,0,4032.6667)" />
      <path
         id="path40"
         d="m 50121,4322.5 v 4320 h 2037 V 8036.2 H 50744.2 V 6944.8 h 897 v -591.1 h -897 V 4928.8 h 1581.1 V 4322.5 H 50121"
         style="fill:#231f20;fill-opacity:1;fill-rule:nonzero;stroke:none"
         transform="matrix(0.13333333,0,0,-0.13333333,0,4032.6667)" />
      <path
         id="path41"
         d="m 54073.8,6317.5 c -186.9,121.1 -368.4,242.6 -484.2,324.2 -348.3,245.1 -532.8,576 -532.8,954.9 0,621.5 487.1,1121.7 1111.2,1121.7 608.8,0 1080.7,-469.9 1096,-1121.7 h -593.7 c -15.2,303.2 -228.3,500.2 -502.3,500.2 -289.2,0 -517.6,-212.2 -517.6,-500.2 0,-212.2 91.4,-333.5 411,-515.4 837.2,-485 1202.6,-954.9 1202.6,-1576.4 0,-697.2 -532.8,-1258.1 -1202.6,-1258.1 -761.1,0 -1217.7,636.6 -1217.7,1349.1 h 608.8 c 0,-363.8 182.7,-742.8 608.9,-742.8 334.9,0 608.9,303.2 608.9,651.8 0,270.7 -111.9,498.7 -596.5,812.7"
         style="fill:#231f20;fill-opacity:1;fill-rule:nonzero;stroke:none"
         transform="matrix(0.13333333,0,0,-0.13333333,0,4032.6667)" />
      <path
         id="path42"
         d="m 22019.4,8066.5 v -3744 h -623.3 v 3744 h -790.5 v 576 h 2204.3 v -576 h -790.5"
         style="fill:#231f20;fill-opacity:1;fill-rule:nonzero;stroke:none"
         transform="matrix(0.13333333,0,0,-0.13333333,0,4032.6667)" />
      <path
         id="path43"
         d="m 30817,4322.5 h -472 l -1096.1,4320 h 624.2 l 715.5,-2804.2 715.6,2804.2 h 624.2 L 30817,4322.5"
         style="fill:#231f20;fill-opacity:1;fill-rule:nonzero;stroke:none"
         transform="matrix(0.13333333,0,0,-0.13333333,0,4032.6667)" />
    </g>
  </g>
</svg>
