<?xml version="1.0" encoding="UTF-8" standalone="no"?>
<!-- Created with Inkscape (http://www.inkscape.org/) -->

<svg
   version="1.1"
   id="svg1"
   width="5760.6665"
   height="1728.6667"
   viewBox="0 0 5760.6665 1728.6667"
   sodipodi:docname="tmpkw3yuwz8.pdf"
   xmlns:inkscape="http://www.inkscape.org/namespaces/inkscape"
   xmlns:sodipodi="http://sodipodi.sourceforge.net/DTD/sodipodi-0.dtd"
   xmlns="http://www.w3.org/2000/svg"
   xmlns:svg="http://www.w3.org/2000/svg">
  <defs
     id="defs1" />
  <sodipodi:namedview
     id="namedview1"
     pagecolor="#ffffff"
     bordercolor="#000000"
     borderopacity="0.25"
     inkscape:showpageshadow="2"
     inkscape:pageopacity="0.0"
     inkscape:pagecheckerboard="0"
     inkscape:deskcolor="#d1d1d1">
    <inkscape:page
       x="0"
       y="0"
       inkscape:label="1"
       id="page1"
       width="5760.6665"
       height="1728.6667"
       margin="0"
       bleed="0" />
  </sodipodi:namedview>
  <g
     id="g1"
     inkscape:groupmode="layer"
     inkscape:label="1">
    <g
       id="group-R5">
      <path
         id="path2"
         d="M 43202.5,1082.5 C 43202.5,486 42719,2.5 42122.5,2.5 H 1082.5 C 486.035,2.5 2.5,486 2.5,1082.5 v 10800 c 0,596.5 483.535,1080 1080,1080 h 41040 c 596.5,0 1080,-483.5 1080,-1080 v -10800"
         style="fill:#ffffff;fill-opacity:1;fill-rule:nonzero;stroke:none"
         transform="matrix(0.13333333,0,0,-0.13333333,0,1728.6667)" />
      <path
         id="path3"
         d="M 43202.5,1082.5 C 43202.5,486 42719,2.5 42122.5,2.5 H 1082.5 C 486.035,2.5 2.5,486 2.5,1082.5 v 10800 c 0,596.5 483.535,1080 1080,1080 h 41040 c 596.5,0 1080,-483.5 1080,-1080 z"
         style="fill:none;stroke:#231f20;stroke-width:5;stroke-linecap:butt;stroke-linejoin:miter;stroke-miterlimit:4;stroke-dasharray:none;stroke-opacity:1"
         transform="matrix(0.13333333,0,0,-0.13333333,0,1728.6667)" />
      <path
         id="path4"
         d="m 1082.5,272.5 c -446.637,0 -810,363.398 -810,810 v 10800 c 0,446.6 363.363,810 810,810 h 41040 c 446.6,0 810,-363.4 810,-810 v -10800 c 0,-446.602 -363.4,-810 -810,-810 h -41040"
         style="fill:#231f20;fill-opacity:1;fill-rule:nonzero;stroke:none"
         transform="matrix(0.13333333,0,0,-0.13333333,0,1728.6667)" />
      <path
         id="path5"
         d="m 1082.5,722.5 c -198.508,0 -360,161.5 -360,360 v 10800 c 0,198.5 161.492,360 360,360 h 41040 c 198.5,0 360,-161.5 360,-360 v -10800 c 0,-198.5 -161.5,-360 -360,-360 h -41040"
         style="fill:#ffffff;fill-opacity:1;fill-rule:nonzero;stroke:none"
         transform="matrix(0.13333333,0,0,-0.13333333,0,1728.6667)" />
      <path
         id="path6"
         d="m 28258.2,2522.5 v 2880 h 460.8 v -2880 h -460.8"
         style="fill:#231f20;fill-opacity:1;fill-rule:nonzero;stroke:none"
         transform="matrix(0.13333333,0,0,-0.13333333,0,1728.6667)" />
      <path
         id="path7"
         d="m 29410.2,2522.5 v 2880.03 h 454.1 V 2946.9 h 1332.2 v -424.4 h -1786.3"
         style="fill:#231f20;fill-opacity:1;fill-rule:nonzero;stroke:none"
         transform="matrix(0.13333333,0,0,-0.13333333,0,1728.6667)" />
      <path
         id="path8"
         d="M 27111.3,2522.5 V 4189.84 L 26443,2522.5 25774.7,4189.84 V 2522.5 h -455.6 v 2880 h 455.6 l 668.3,-1616.85 668.3,1616.85 h 455.6 v -2880 h -455.6"
         style="fill:#231f20;fill-opacity:1;fill-rule:nonzero;stroke:none"
         transform="matrix(0.13333333,0,0,-0.13333333,0,1728.6667)" />
      <path
         id="path9"
         d="M 15575.1,4998.28 V 2522.5 h -456.7 v 2475.78 h -659.8 v 404.22 h 1786.3 v -404.22 h -669.8"
         style="fill:#231f20;fill-opacity:1;fill-rule:nonzero;stroke:none"
         transform="matrix(0.13333333,0,0,-0.13333333,0,1728.6667)" />
      <path
         id="path10"
         d="m 35380.4,2694.3 c -161.7,-141.5 -384,-222.3 -626.6,-222.3 -495.1,0 -859,293 -1051,727.56 l 434.6,161.67 c 121.3,-272.81 343.6,-424.43 616.4,-424.43 262.8,0 444.7,181.93 444.7,424.43 0,384 -444.7,444.63 -818.6,596.22 -171.8,70.73 -555.8,242.53 -555.8,717.47 0,565.89 384,778.11 899.4,778.11 404.3,0 677.1,-232.42 818.6,-586.1 l -404.2,-121.25 c 0,0 -101.1,242.5 -424.5,252.6 -212.2,10.11 -464.9,-70.72 -444.6,-333.46 40.4,-535.57 1394.6,-181.9 1394.6,-1313.67 0,-262.73 -101.1,-495.15 -283,-656.85"
         style="fill:#231f20;fill-opacity:1;fill-rule:nonzero;stroke:none"
         transform="matrix(0.13333333,0,0,-0.13333333,0,1728.6667)" />
      <path
         id="path11"
         d="m 13712.9,2522.5 -464.9,960 -464.9,-960 h -515.4 l 717.5,1485.47 -667,1394.53 h 515.4 l 414.4,-858.96 414.3,858.96 h 515.4 l -677.1,-1394.53 727.7,-1485.47 h -515.4"
         style="fill:#231f20;fill-opacity:1;fill-rule:nonzero;stroke:none"
         transform="matrix(0.13333333,0,0,-0.13333333,0,1728.6667)" />
      <path
         id="path12"
         d="m 31628.5,2522.5 v 2880 H 33324 v -454.74 h -1241.4 v -707.37 h 837.7 v -464.84 h -837.7 v -788.21 h 1332.2 V 2522.5 h -1786.3"
         style="fill:#231f20;fill-opacity:1;fill-rule:nonzero;stroke:none"
         transform="matrix(0.13333333,0,0,-0.13333333,0,1728.6667)" />
      <path
         id="path13"
         d="m 10193.4,2522.5 v 2880 h 1695.5 v -454.74 h -1241.4 v -707.37 h 837.7 v -464.84 h -837.7 v -788.21 h 1332.2 V 2522.5 h -1786.3"
         style="fill:#231f20;fill-opacity:1;fill-rule:nonzero;stroke:none"
         transform="matrix(0.13333333,0,0,-0.13333333,0,1728.6667)" />
      <path
         id="path14"
         d="m 19384.9,2522.5 v 2334.33 h -260 v 363.79 h 30 c 120,0 250,70.74 330,181.88 h 360 v -2880 h -460"
         style="fill:#231f20;fill-opacity:1;fill-rule:nonzero;stroke:none"
         transform="matrix(0.13333333,0,0,-0.13333333,0,1728.6667)" />
      <path
         id="path15"
         d="m 21186,2472 c -252.7,0 -505.3,60.6 -707.4,161.7 l 222.3,404.17 c 121.3,-60.65 333.5,-101.07 545.7,-101.07 414.4,0 737.7,272.84 737.7,646.74 0,282.94 -232.4,505.27 -515.3,505.27 -202.2,0 -293.1,-60.63 -464.9,-303.16 l -454.8,131.38 70.7,1485.47 h 1657.4 v -454.74 h -1212.7 l -30.3,-474.95 c 212.2,60.63 303.2,80.84 444.6,80.84 525.6,0 960.1,-444.64 960.1,-970.11 C 22439.1,2946.9 21913.6,2472 21186,2472"
         style="fill:#231f20;fill-opacity:1;fill-rule:nonzero;stroke:none"
         transform="matrix(0.13333333,0,0,-0.13333333,0,1728.6667)" />
      <path
         id="path16"
         d="M 9097.94,2522.5 7996.38,4472.81 V 2522.5 h -454.76 v 2880 h 454.76 L 9047.4,3563.34 V 5402.5 h 454.76 v -2880 h -404.22"
         style="fill:#231f20;fill-opacity:1;fill-rule:nonzero;stroke:none"
         transform="matrix(0.13333333,0,0,-0.13333333,0,1728.6667)" />
      <path
         id="path17"
         d="m 25826.7,9583.59 -202.6,-828.63 h 415.4 z m 516.7,-2021.05 -202.6,788.21 h -618.1 l -192.4,-788.21 h -415.4 l 719.3,2879.96 h 405.3 l 719.3,-2879.96 h -415.4"
         style="fill:#231f20;fill-opacity:1;fill-rule:nonzero;stroke:none"
         transform="matrix(0.13333333,0,0,-0.13333333,0,1728.6667)" />
      <path
         id="path18"
         d="m 28291.5,9745.28 c -70.6,202.1 -191.6,293.02 -373.2,293.02 h -342.8 V 7966.75 h 342.8 c 242.1,0 373.2,192 413.5,414.31 20.2,181.9 40.3,384.01 40.3,606.32 0,323.37 -30.2,636.63 -80.6,757.9 z m 70.5,-2051.37 c -100.8,-90.95 -242,-131.37 -403.3,-131.37 H 27162 v 2879.96 h 736.2 c 242,0 363,-30.3 463.8,-111.1 171.5,-121.3 292.5,-343.6 342.9,-636.64 40.4,-212.22 70.6,-464.85 70.6,-687.17 0,-666.95 -131.1,-1091.37 -413.5,-1313.68"
         style="fill:#231f20;fill-opacity:1;fill-rule:nonzero;stroke:none"
         transform="matrix(0.13333333,0,0,-0.13333333,0,1728.6667)" />
      <path
         id="path19"
         d="m 23186.1,7562.54 v 2879.96 h 1358.1 v -404.2 h -942.5 v -727.55 h 597.9 v -394.11 h -597.9 v -949.89 h 1054 v -404.21 h -1469.6"
         style="fill:#231f20;fill-opacity:1;fill-rule:nonzero;stroke:none"
         transform="matrix(0.13333333,0,0,-0.13333333,0,1728.6667)" />
      <path
         id="path20"
         d="m 33735.8,7916.22 c -111.6,-252.63 -345.1,-404.21 -639.3,-404.21 -345.1,0 -598.8,171.79 -740.8,495.16 -91.4,212.21 -152.3,616.42 -152.3,990.32 0,404.21 30.5,697.27 132,970.11 101.4,303.2 395.7,525.5 730.6,525.5 416.1,0 730.7,-303.2 750.9,-727.61 h -416 c -10.2,192 -142.1,323.41 -345.1,323.41 -142,0 -253.6,-70.8 -324.7,-212.25 -81.1,-141.47 -131.9,-464.84 -131.9,-808.43 0,-242.53 20.3,-495.15 60.9,-717.47 60.9,-282.95 202.9,-434.53 426.2,-434.53 213.1,0 314.6,141.48 314.6,444.63 v 192 h -324.7 v 404.22 h 740.7 v -596.22 c 0,-202.1 -20.2,-323.37 -81.1,-444.63"
         style="fill:#231f20;fill-opacity:1;fill-rule:nonzero;stroke:none"
         transform="matrix(0.13333333,0,0,-0.13333333,0,1728.6667)" />
      <path
         id="path21"
         d="m 35593,7562.54 v 1303.58 h -786.6 V 7562.54 h -413.5 v 2879.96 h 413.5 V 9270.33 h 786.6 v 1172.17 h 413.5 V 7562.54 H 35593"
         style="fill:#231f20;fill-opacity:1;fill-rule:nonzero;stroke:none"
         transform="matrix(0.13333333,0,0,-0.13333333,0,1728.6667)" />
      <path
         id="path22"
         d="m 22139.1,7562.54 v 1303.58 h -786.6 V 7562.54 H 20939 v 2879.96 h 413.5 V 9270.33 h 786.6 v 1172.17 h 413.4 V 7562.54 h -413.4"
         style="fill:#231f20;fill-opacity:1;fill-rule:nonzero;stroke:none"
         transform="matrix(0.13333333,0,0,-0.13333333,0,1728.6667)" />
      <path
         id="path23"
         d="m 31224.2,7562.53 v 2879.97 h 403.2 V 7562.53 h -403.2"
         style="fill:#231f20;fill-opacity:1;fill-rule:nonzero;stroke:none"
         transform="matrix(0.13333333,0,0,-0.13333333,0,1728.6667)" />
      <path
         id="path24"
         d="M 29351.5,7562.53 V 10442.5 H 29767 V 7946.53 h 1054 v -384 h -1469.5"
         style="fill:#231f20;fill-opacity:1;fill-rule:nonzero;stroke:none"
         transform="matrix(0.13333333,0,0,-0.13333333,0,1728.6667)" />
      <path
         id="path25"
         d="m 10977,7562.54 -887.5,1930.11 V 7562.54 h -413.43 v 2879.96 h 413.43 l 786.6,-1727.96 v 1727.96 h 413.5 V 7562.54 H 10977"
         style="fill:#231f20;fill-opacity:1;fill-rule:nonzero;stroke:none"
         transform="matrix(0.13333333,0,0,-0.13333333,0,1728.6667)" />
      <path
         id="path26"
         d="M 17746.4,7562.54 16859,9492.65 V 7562.54 h -413.5 v 2879.96 h 413.5 l 786.6,-1727.96 V 10442.5 H 18059 V 7562.54 h -312.6"
         style="fill:#231f20;fill-opacity:1;fill-rule:nonzero;stroke:none"
         transform="matrix(0.13333333,0,0,-0.13333333,0,1728.6667)" />
      <path
         id="path27"
         d="m 15380.9,9725.07 c -71.2,252.63 -183.2,363.83 -356.3,363.83 -183.2,0 -295.2,-111.2 -366.4,-353.72 -71.3,-222.32 -91.6,-414.32 -91.6,-737.69 0,-313.27 30.5,-495.17 91.6,-727.59 71.2,-242.52 183.2,-353.68 366.4,-353.68 173.1,0 285.1,111.16 356.3,353.68 71.3,232.42 91.6,404.22 91.6,737.69 0,323.37 -30.5,505.27 -91.6,717.48 z m 325.7,-1717.9 c -142.5,-343.58 -356.2,-495.16 -682,-495.16 -346.1,0 -549.6,151.58 -692.1,495.16 -122.2,282.95 -162.9,555.79 -162.9,1000.42 0,434.53 40.7,727.59 162.9,1000.41 152.6,343.6 356.2,485.1 692.1,485.1 336,0 539.5,-141.5 682,-495.19 122.2,-282.95 162.9,-555.79 162.9,-990.32 0,-444.63 -40.7,-727.58 -162.9,-1000.42"
         style="fill:#231f20;fill-opacity:1;fill-rule:nonzero;stroke:none"
         transform="matrix(0.13333333,0,0,-0.13333333,0,1728.6667)" />
      <path
         id="path28"
         d="m 8409.97,10038.3 h -423.55 v -727.55 h 423.55 c 242.03,0 373.12,131.36 373.12,363.79 0,222.32 -151.27,363.76 -373.12,363.76 z m 352.95,-2475.76 -383.21,1354.1 h -393.29 v -1354.1 h -413.47 v 2879.96 h 857.18 c 453.81,0 756.34,-303.1 756.34,-767.96 0,-343.58 -141.18,-596.21 -413.46,-697.27 l 413.46,-1414.73 h -423.55"
         style="fill:#231f20;fill-opacity:1;fill-rule:nonzero;stroke:none"
         transform="matrix(0.13333333,0,0,-0.13333333,0,1728.6667)" />
      <path
         id="path29"
         d="m 38958.4,8892.56 c -124.5,80.72 -245.5,161.73 -322.8,216.09 -232.2,163.43 -355.2,383.99 -355.2,636.63 0,414.32 324.8,747.82 740.9,747.82 405.9,0 720.4,-313.3 730.6,-747.82 h -395.8 c -10.1,202.1 -152.2,333.52 -334.8,333.52 -192.9,0 -345.1,-141.52 -345.1,-333.52 0,-141.48 60.9,-222.32 274,-343.59 558.1,-323.36 801.7,-636.63 801.7,-1050.95 0,-464.84 -355.2,-838.73 -801.7,-838.73 -507.4,0 -811.8,424.42 -811.8,899.38 h 405.9 c 0,-242.54 121.8,-495.18 405.9,-495.18 223.3,0 405.9,202.11 405.9,434.53 0,180.47 -74.5,332.48 -397.7,541.82"
         style="fill:#231f20;fill-opacity:1;fill-rule:nonzero;stroke:none"
         transform="matrix(0.13333333,0,0,-0.13333333,0,1728.6667)" />
      <path
         id="path30"
         d="M 4395.62,10058.5 V 7562.54 H 3980.1 v 2495.96 h -527 v 384 h 1469.52 v -384 h -527"
         style="fill:#231f20;fill-opacity:1;fill-rule:nonzero;stroke:none"
         transform="matrix(0.13333333,0,0,-0.13333333,0,1728.6667)" />
      <path
         id="path31"
         d="M 37352.2,10058.5 V 7562.54 h -415.5 v 2495.96 h -527 v 384 h 1469.5 v -384 h -527"
         style="fill:#231f20;fill-opacity:1;fill-rule:nonzero;stroke:none"
         transform="matrix(0.13333333,0,0,-0.13333333,0,1728.6667)" />
      <path
         id="path32"
         d="m 6828.42,7916.21 c -141.19,-232.42 -413.47,-404.2 -685.75,-404.2 -282.37,0 -564.75,161.68 -705.92,404.2 -80.68,151.58 -110.93,272.85 -110.93,505.27 v 2021.02 h 413.46 V 8370.96 c 0,-272.85 161.36,-454.75 403.39,-454.75 221.86,0 383.21,181.9 383.21,454.75 v 2071.54 h 413.47 V 8421.48 c 0,-232.42 -30.25,-353.69 -110.93,-505.27"
         style="fill:#231f20;fill-opacity:1;fill-rule:nonzero;stroke:none"
         transform="matrix(0.13333333,0,0,-0.13333333,0,1728.6667)" />
    </g>
  </g>
</svg>
