<?xml version="1.0" standalone="no"?>
<svg width="8640px" height="2592px" viewBox="0 -1800 8640 2592 " xmlns="http://www.w3.org/2000/svg" xmlns:xlink="http://www.w3.org/1999/xlink">
<title>generated by pstoedit</title>
<!-- generated by pstoedit version:4.02 -->
<g xml:space='preserve'>
<clipPath id="clippath1"> 	<path d="
	M 0 -1800.5 
	L 0 792 
	L 8640.5 792 
	L 8640.5 -1800.5 
	Z 
	" style="clip-rule:nonzero"/>
</clipPath>
<g style="clip-path:url(#clippath1)"> 
<g fill="#ffffff" fill-rule="nonzero" stroke-width="0" stroke-linejoin="miter" stroke-linecap="butt" stroke-miterlimit="10" >
	<path d="
	M 8640.25 629.75 
	C 8640.25 719.219 8567.72 791.75 8478.25 791.75 
	L 162.25 791.75 
	C 72.7813 791.75 0.25 719.219 0.25 629.75 
	L 0.25 -1638.25 
	C 0.25 -1727.72 72.7813 -1800.25 162.25 -1800.25 
	L 8478.25 -1800.25 
	C 8567.72 -1800.25 8640.25 -1727.72 8640.25 -1638.25 
	Z 
	"/>
</g>
<g stroke="#7f7f7f" fill="none" stroke-width="0.5" stroke-linejoin="miter" stroke-linecap="butt" stroke-miterlimit="4" >
	<path d="
	M 8640.25 629.75 
	C 8640.25 719.219 8567.72 791.75 8478.25 791.75 
	L 162.25 791.75 
	C 72.7813 791.75 0.25 719.219 0.25 629.75 
	L 0.25 -1638.25 
	C 0.25 -1727.72 72.7813 -1800.25 162.25 -1800.25 
	L 8478.25 -1800.25 
	C 8567.72 -1800.25 8640.25 -1727.72 8640.25 -1638.25 
	Z 
	"/>
</g>
<g fill="#7f7f7f" fill-rule="nonzero" stroke-width="0" stroke-linejoin="miter" stroke-linecap="butt" stroke-miterlimit="4" >
	<path d="
	M 162.25 746.75 
	C 97.7344 746.75 45.25 694.262 45.25 629.75 
	L 45.25 -1638.25 
	C 45.25 -1702.76 97.7344 -1755.25 162.25 -1755.25 
	L 8478.25 -1755.25 
	C 8542.76 -1755.25 8595.25 -1702.76 8595.25 -1638.25 
	L 8595.25 629.75 
	C 8595.25 694.262 8542.76 746.75 8478.25 746.75 
	Z 
	"/>
</g>
<g fill="#ffffff" fill-rule="nonzero" stroke-width="0" stroke-linejoin="miter" stroke-linecap="butt" stroke-miterlimit="4" >
	<path d="
	M 162.25 683.75 
	C 132.477 683.75 108.25 659.52 108.25 629.75 
	L 108.25 -1638.25 
	C 108.25 -1668.03 132.477 -1692.25 162.25 -1692.25 
	L 8478.25 -1692.25 
	C 8508.02 -1692.25 8532.25 -1668.02 8532.25 -1638.25 
	L 8532.25 629.75 
	C 8532.25 659.52 8508.02 683.75 8478.25 683.75 
	Z 
	"/>
</g>
<g fill="#7f7f7f" fill-rule="nonzero" stroke-width="0" stroke-linejoin="miter" stroke-linecap="butt" stroke-miterlimit="4" >
	<path d="
	M 8046.04 287.75 
	L 7825.72 -102.309 
	L 7825.72 287.75 
	L 7734.77 287.75 
	L 7734.77 -288.25 
	L 7825.72 -288.25 
	L 8035.93 79.59 
	L 8035.93 -288.25 
	L 8126.88 -288.25 
	L 8126.88 287.75 
	Z 
	"/>
</g>
<g fill="#7f7f7f" fill-rule="nonzero" stroke-width="0" stroke-linejoin="miter" stroke-linecap="butt" stroke-miterlimit="4" >
	<path d="
	M 7482.44 -160.922 
	C 7464.21 -191.238 7441.92 -203.359 7407.48 -205.379 
	C 7362.91 -207.398 7334.54 -185.18 7314.28 -134.648 
	C 7300.1 -100.289 7292 -47.738 7292 0.762024 
	C 7292 61.391 7304.15 124.051 7326.44 160.43 
	C 7344.67 190.738 7368.99 204.891 7405.46 204.891 
	C 7448 204.891 7474.34 182.66 7494.6 132.129 
	C 7506.75 101.82 7516.88 45.23 7516.88 0.762024 
	C 7516.88 -63.91 7504.72 -122.52 7482.44 -160.922 
	Z 
	M 7545.25 233.18 
	C 7512.83 277.648 7466.23 297.859 7405.46 297.859 
	C 7324.41 297.859 7273.76 265.52 7239.32 194.789 
	C 7215.01 146.281 7198.8 69.48 7198.8 0.762024 
	C 7198.8 -94.23 7223.11 -179.109 7261.61 -233.68 
	C 7296.05 -278.14 7342.65 -298.35 7409.5 -298.35 
	C 7482.44 -298.35 7533.09 -266.01 7569.56 -195.281 
	C 7593.87 -144.75 7608.05 -71.988 7608.05 0.762024 
	C 7608.05 91.711 7585.77 182.66 7545.25 233.18 
	Z 
	"/>
</g>
<g fill="#7f7f7f" fill-rule="nonzero" stroke-width="0" stroke-linejoin="miter" stroke-linecap="butt" stroke-miterlimit="4" >
	<path d="
	M 5471.1 253.391 
	C 5438.76 281.691 5394.29 297.859 5345.79 297.859 
	C 5246.75 297.859 5173.98 239.25 5135.58 152.34 
	L 5222.49 120.012 
	C 5246.75 174.57 5291.21 204.891 5345.79 204.891 
	C 5398.33 204.891 5434.71 168.512 5434.71 120.012 
	C 5434.71 43.211 5345.79 31.078 5271 0.77002 
	C 5236.64 -13.379 5159.83 -47.738 5159.83 -142.73 
	C 5159.83 -255.91 5236.64 -298.35 5339.72 -298.35 
	C 5420.57 -298.35 5475.14 -251.87 5503.43 -181.129 
	L 5422.59 -156.879 
	C 5422.59 -156.879 5402.38 -205.379 5337.7 -207.398 
	C 5295.25 -209.43 5244.72 -193.262 5248.76 -140.711 
	C 5256.85 -33.602 5527.69 -104.328 5527.69 122.031 
	C 5527.69 174.57 5507.48 221.059 5471.1 253.391 
	Z 
	"/>
</g>
<g fill="#7f7f7f" fill-rule="nonzero" stroke-width="0" stroke-linejoin="miter" stroke-linecap="butt" stroke-miterlimit="4" >
	<path d="
	M 5625.6 287.75 
	L 5625.6 -288.25 
	L 5964.7 -288.25 
	L 5964.7 -197.301 
	L 5716.43 -197.301 
	L 5716.43 -55.828 
	L 5883.96 -55.828 
	L 5883.96 37.141 
	L 5716.43 37.141 
	L 5716.43 194.781 
	L 5982.87 194.781 
	L 5982.87 287.75 
	Z 
	"/>
</g>
<g fill="#7f7f7f" fill-rule="nonzero" stroke-width="0" stroke-linejoin="miter" stroke-linecap="butt" stroke-miterlimit="4" >
	<path d="
	M 6287.55 297.859 
	C 6202.67 297.859 6148.1 265.52 6111.71 194.781 
	C 6085.44 144.262 6069.27 71.5 6069.27 -1.26202 
	C 6069.27 -92.211 6093.52 -183.148 6133.95 -233.68 
	C 6168.3 -276.12 6216.81 -298.35 6281.49 -298.35 
	C 6368.41 -298.35 6422.97 -261.97 6461.38 -181.129 
	L 6376.49 -144.75 
	C 6344.15 -193.262 6325.96 -205.379 6281.49 -205.379 
	C 6235.01 -205.379 6204.69 -185.18 6184.47 -134.648 
	C 6170.33 -100.289 6162.24 -49.762 6162.24 -1.26202 
	C 6162.24 61.391 6176.39 124.051 6198.63 160.43 
	C 6218.84 190.738 6245.11 204.891 6285.54 204.891 
	C 6323.94 204.891 6352.24 184.68 6374.47 138.199 
	L 6461.38 170.531 
	C 6427.02 255.422 6370.43 297.859 6287.55 297.859 
	Z 
	"/>
</g>
<g fill="#7f7f7f" fill-rule="nonzero" stroke-width="0" stroke-linejoin="miter" stroke-linecap="butt" stroke-miterlimit="4" >
	<path d="
	M 6979.92 287.75 
	L 6979.92 -288.25 
	L 7072.09 -288.25 
	L 7072.09 287.75 
	Z 
	"/>
</g>
<g fill="#7f7f7f" fill-rule="nonzero" stroke-width="0" stroke-linejoin="miter" stroke-linecap="butt" stroke-miterlimit="4" >
	<path d="
	M 6759.55 -207.41 
	L 6759.55 287.75 
	L 6668.21 287.75 
	L 6668.21 -207.41 
	L 6536.26 -207.41 
	L 6536.26 -288.25 
	L 6893.52 -288.25 
	L 6893.52 -207.41 
	Z 
	"/>
</g>
<g fill="#7f7f7f" fill-rule="nonzero" stroke-width="0" stroke-linejoin="miter" stroke-linecap="butt" stroke-miterlimit="4" >
	<path d="
	M 814.781 287.75 
	L 814.781 37.141 
	L 604.57 37.141 
	L 604.57 287.75 
	L 513.617 287.75 
	L 513.617 -288.25 
	L 604.57 -288.25 
	L 604.57 -55.828 
	L 814.781 -55.828 
	L 814.781 -288.25 
	L 905.734 -288.25 
	L 905.734 287.75 
	Z 
	"/>
</g>
<g fill="#7f7f7f" fill-rule="nonzero" stroke-width="0" stroke-linejoin="miter" stroke-linecap="butt" stroke-miterlimit="4" >
	<path d="
	M 2276.25 -173.051 
	C 2262.1 -187.199 2241.89 -197.301 2217.63 -197.301 
	L 2114.55 -197.301 
	L 2114.55 194.781 
	L 2205.5 194.781 
	C 2235.83 194.781 2254.01 188.719 2270.18 172.551 
	C 2304.54 138.199 2322.73 75.539 2322.73 -1.26202 
	C 2322.73 -78.059 2304.54 -142.73 2276.25 -173.051 
	Z 
	M 2314.65 255.422 
	C 2292.42 275.629 2262.1 285.73 2231.78 287.75 
	C 2225.72 287.75 2213.59 287.75 2199.44 287.75 
	L 2023.6 287.75 
	L 2023.6 -288.25 
	L 2209.54 -288.25 
	C 2268.16 -288.25 2290.39 -282.19 2320.71 -257.93 
	C 2381.35 -205.379 2415.71 -114.441 2415.71 -1.26202 
	C 2415.71 113.941 2379.33 204.891 2314.65 255.422 
	Z 
	"/>
</g>
<g fill="#7f7f7f" fill-rule="nonzero" stroke-width="0" stroke-linejoin="miter" stroke-linecap="butt" stroke-miterlimit="4" >
	<path d="
	M 1043.96 287.75 
	L 1043.96 -288.25 
	L 1383.06 -288.25 
	L 1383.06 -197.301 
	L 1134.79 -197.301 
	L 1134.79 -55.828 
	L 1302.33 -55.828 
	L 1302.33 37.141 
	L 1134.79 37.141 
	L 1134.79 194.781 
	L 1401.23 194.781 
	L 1401.23 287.75 
	Z 
	"/>
</g>
<g fill="#7f7f7f" fill-rule="nonzero" stroke-width="0" stroke-linejoin="miter" stroke-linecap="butt" stroke-miterlimit="4" >
	<path d="
	M 1693.27 -128.59 
	L 1634.32 33.102 
	L 1750.19 33.102 
	Z 
	M 1839.63 287.75 
	L 1782.71 126.07 
	L 1601.8 126.07 
	L 1544.88 287.75 
	L 1447.31 287.75 
	L 1646.52 -288.25 
	L 1737.99 -288.25 
	L 1937.2 287.75 
	Z 
	"/>
</g>
<g fill="#7f7f7f" fill-rule="nonzero" stroke-width="0" stroke-linejoin="miter" stroke-linecap="butt" stroke-miterlimit="4" >
	<path d="
	M 2986.09 287.75 
	L 2986.09 -288.25 
	L 3078.25 -288.25 
	L 3078.25 287.75 
	Z 
	"/>
</g>
<g fill="#7f7f7f" fill-rule="nonzero" stroke-width="0" stroke-linejoin="miter" stroke-linecap="butt" stroke-miterlimit="4" >
	<path d="
	M 2542.43 287.75 
	L 2542.43 -288.25 
	L 2633.26 -288.25 
	L 2633.26 202.871 
	L 2899.69 202.871 
	L 2899.69 287.75 
	Z 
	"/>
</g>
<g fill="#7f7f7f" fill-rule="nonzero" stroke-width="0" stroke-linejoin="miter" stroke-linecap="butt" stroke-miterlimit="4" >
	<path d="
	M 4425.6 -207.41 
	L 4425.6 287.75 
	L 4334.26 287.75 
	L 4334.26 -207.41 
	L 4202.31 -207.41 
	L 4202.31 -288.25 
	L 4559.58 -288.25 
	L 4559.58 -207.41 
	Z 
	"/>
</g>
<g fill="#7f7f7f" fill-rule="nonzero" stroke-width="0" stroke-linejoin="miter" stroke-linecap="butt" stroke-miterlimit="4" >
	<path d="
	M 4024.96 287.75 
	L 4024.96 37.141 
	L 3814.76 37.141 
	L 3814.76 287.75 
	L 3723.8 287.75 
	L 3723.8 -288.25 
	L 3814.76 -288.25 
	L 3814.76 -55.828 
	L 4024.96 -55.828 
	L 4024.96 -288.25 
	L 4115.92 -288.25 
	L 4115.92 287.75 
	Z 
	"/>
</g>
<g fill="#7f7f7f" fill-rule="nonzero" stroke-width="0" stroke-linejoin="miter" stroke-linecap="butt" stroke-miterlimit="4" >
	<path d="
	M 3415.18 297.859 
	C 3328.27 297.859 3277.74 265.52 3243.38 192.762 
	C 3219.12 142.238 3204.97 71.5 3204.97 0.762024 
	C 3204.97 -92.211 3231.25 -183.148 3269.65 -233.68 
	C 3304.01 -276.12 3352.52 -298.35 3417.2 -298.35 
	C 3506.13 -298.35 3558.69 -261.97 3597.08 -171.02 
	L 3510.18 -136.672 
	C 3485.92 -187.199 3461.67 -205.379 3417.2 -205.379 
	C 3370.71 -205.379 3340.39 -185.18 3320.18 -134.648 
	C 3306.04 -100.289 3297.95 -47.738 3297.95 0.762024 
	C 3297.95 61.391 3308.05 122.031 3326.24 158.398 
	C 3344.44 190.738 3370.71 204.891 3405.07 204.891 
	C 3463.69 204.891 3506.13 168.512 3506.13 115.961 
	L 3506.13 91.711 
	L 3401.03 91.711 
	L 3401.03 0.762024 
	L 3597.08 0.762024 
	L 3597.08 115.961 
	C 3597.08 221.059 3520.29 297.859 3415.18 297.859 
	Z 
	"/>
</g>
<g fill="#7f7f7f" fill-rule="nonzero" stroke-width="0" stroke-linejoin="miter" stroke-linecap="butt" stroke-miterlimit="4" >
	<path d="
	M 5012.66 -970.86 
	L 5012.66 -720.25 
	L 4921.25 -720.25 
	L 4921.25 -970.86 
	L 4718.12 -1296.25 
	L 4827.81 -1296.25 
	L 4965.94 -1073.93 
	L 5106.1 -1296.25 
	L 5213.77 -1296.25 
	Z 
	"/>
</g>
<g fill="#7f7f7f" fill-rule="nonzero" stroke-width="0" stroke-linejoin="miter" stroke-linecap="butt" stroke-miterlimit="4" >
	<path d="
	M 3979.33 -1181.05 
	C 3965.18 -1195.2 3944.97 -1205.3 3920.71 -1205.3 
	L 3817.63 -1205.3 
	L 3817.63 -813.22 
	L 3908.58 -813.22 
	C 3938.91 -813.22 3957.09 -819.28 3973.26 -835.45 
	C 4007.63 -869.8 4025.81 -932.46 4025.81 -1009.26 
	C 4025.81 -1086.06 4007.63 -1150.73 3979.33 -1181.05 
	Z 
	M 4017.73 -752.58 
	C 3995.5 -732.37 3965.18 -722.27 3934.86 -720.25 
	C 3928.8 -720.25 3916.67 -720.25 3902.52 -720.25 
	L 3726.68 -720.25 
	L 3726.68 -1296.25 
	L 3912.62 -1296.25 
	C 3971.24 -1296.25 3993.48 -1290.19 4023.79 -1265.93 
	C 4084.43 -1213.39 4118.79 -1122.44 4118.79 -1009.26 
	C 4118.79 -894.06 4082.41 -803.11 4017.73 -752.58 
	Z 
	"/>
</g>
<g fill="#7f7f7f" fill-rule="nonzero" stroke-width="0" stroke-linejoin="miter" stroke-linecap="butt" stroke-miterlimit="4" >
	<path d="
	M 6510.2 -720.25 
	L 6510.2 -1296.25 
	L 6849.3 -1296.25 
	L 6849.3 -1205.3 
	L 6601.03 -1205.3 
	L 6601.03 -1063.83 
	L 6768.57 -1063.83 
	L 6768.57 -970.86 
	L 6601.03 -970.86 
	L 6601.03 -813.22 
	L 6867.47 -813.22 
	L 6867.47 -720.25 
	Z 
	"/>
</g>
<g fill="#7f7f7f" fill-rule="nonzero" stroke-width="0" stroke-linejoin="miter" stroke-linecap="butt" stroke-miterlimit="4" >
	<path d="
	M 4439.63 -1136.59 
	L 4380.68 -974.9 
	L 4496.54 -974.9 
	Z 
	M 4585.99 -720.25 
	L 4529.07 -881.93 
	L 4348.16 -881.93 
	L 4291.24 -720.25 
	L 4193.67 -720.25 
	L 4392.88 -1296.25 
	L 4484.35 -1296.25 
	L 4683.56 -720.25 
	Z 
	"/>
</g>
<g fill="#7f7f7f" fill-rule="nonzero" stroke-width="0" stroke-linejoin="miter" stroke-linecap="butt" stroke-miterlimit="4" >
	<path d="
	M 5691.99 -720.25 
	L 5691.99 -1296.25 
	L 5784.15 -1296.25 
	L 5784.15 -720.25 
	Z 
	"/>
</g>
<g fill="#7f7f7f" fill-rule="nonzero" stroke-width="0" stroke-linejoin="miter" stroke-linecap="butt" stroke-miterlimit="4" >
	<path d="
	M 5471.62 -1215.41 
	L 5471.62 -720.25 
	L 5380.28 -720.25 
	L 5380.28 -1215.41 
	L 5248.33 -1215.41 
	L 5248.33 -1296.25 
	L 5605.59 -1296.25 
	L 5605.59 -1215.41 
	Z 
	"/>
</g>
<g fill="#7f7f7f" fill-rule="nonzero" stroke-width="0" stroke-linejoin="miter" stroke-linecap="butt" stroke-miterlimit="4" >
	<path d="
	M 6280.83 -720.25 
	L 6280.83 -1053.72 
	L 6147.17 -720.25 
	L 6013.52 -1053.72 
	L 6013.52 -720.25 
	L 5922.39 -720.25 
	L 5922.39 -1296.25 
	L 6013.52 -1296.25 
	L 6147.17 -972.88 
	L 6280.83 -1296.25 
	L 6371.96 -1296.25 
	L 6371.96 -720.25 
	Z 
	"/>
</g>
<g fill="#7f7f7f" fill-rule="nonzero" stroke-width="0" stroke-linejoin="miter" stroke-linecap="butt" stroke-miterlimit="4" >
	<path d="
	M 2539.48 -720.25 
	L 2319.17 -1110.32 
	L 2319.17 -720.25 
	L 2228.21 -720.25 
	L 2228.21 -1296.25 
	L 2319.17 -1296.25 
	L 2529.37 -928.41 
	L 2529.37 -1296.25 
	L 2620.32 -1296.25 
	L 2620.32 -720.25 
	Z 
	"/>
</g>
<g fill="#7f7f7f" fill-rule="nonzero" stroke-width="0" stroke-linejoin="miter" stroke-linecap="butt" stroke-miterlimit="4" >
	<path d="
	M 3011.22 -1181.05 
	C 2997.07 -1195.2 2976.86 -1205.3 2952.6 -1205.3 
	L 2849.52 -1205.3 
	L 2849.52 -813.22 
	L 2940.48 -813.22 
	C 2970.8 -813.22 2988.98 -819.28 3005.15 -835.45 
	C 3039.51 -869.81 3057.7 -932.46 3057.7 -1009.27 
	C 3057.7 -1086.06 3039.51 -1150.73 3011.22 -1181.05 
	Z 
	M 3049.62 -752.58 
	C 3027.39 -732.37 2997.07 -722.27 2966.75 -720.25 
	C 2960.69 -720.25 2948.56 -720.25 2934.41 -720.25 
	L 2758.57 -720.25 
	L 2758.57 -1296.25 
	L 2944.51 -1296.25 
	C 3003.13 -1296.25 3025.37 -1290.19 3055.68 -1265.93 
	C 3116.32 -1213.39 3150.68 -1122.44 3150.68 -1009.27 
	C 3150.68 -894.06 3114.3 -803.11 3049.62 -752.58 
	Z 
	"/>
</g>
<g fill="#7f7f7f" fill-rule="nonzero" stroke-width="0" stroke-linejoin="miter" stroke-linecap="butt" stroke-miterlimit="4" >
	<path d="
	M 1773.03 -720.25 
	L 1773.03 -1296.25 
	L 2112.13 -1296.25 
	L 2112.13 -1205.3 
	L 1863.86 -1205.3 
	L 1863.86 -1063.83 
	L 2031.39 -1063.83 
	L 2031.39 -970.86 
	L 1863.86 -970.86 
	L 1863.86 -813.22 
	L 2130.29 -813.22 
	L 2130.29 -720.25 
	Z 
	"/>
</g>
</g >
</g>
</svg>
