<?xml version="1.0" standalone="no"?>
<svg width="4320px" height="1296px" viewBox="0 -504 4320 1296 " xmlns="http://www.w3.org/2000/svg" xmlns:xlink="http://www.w3.org/1999/xlink">
<title>generated by pstoedit</title>
<!-- generated by pstoedit version:4.02 -->
<g xml:space='preserve'>
<clipPath id="clippath1"> 	<path d="
	M 0 -504.5 
	L 0 792 
	L 4320.5 792 
	L 4320.5 -504.5 
	Z 
	" style="clip-rule:nonzero"/>
</clipPath>
<g style="clip-path:url(#clippath1)"> 
<g fill="#ffffff" fill-rule="nonzero" stroke-width="0" stroke-linejoin="miter" stroke-linecap="butt" stroke-miterlimit="10" >
	<path d="
	M 4320.25 683.75 
	C 4320.25 743.398 4271.9 791.75 4212.25 791.75 
	L 108.25 791.75 
	C 48.6016 791.75 0.25 743.398 0.25 683.75 
	L 0.25 -396.25 
	C 0.25 -455.89 48.6016 -504.25 108.25 -504.25 
	L 4212.25 -504.25 
	C 4271.9 -504.25 4320.25 -455.89 4320.25 -396.25 
	Z 
	"/>
</g>
<g stroke="#7f7f7f" fill="none" stroke-width="0.5" stroke-linejoin="miter" stroke-linecap="butt" stroke-miterlimit="4" >
	<path d="
	M 4320.25 683.75 
	C 4320.25 743.398 4271.9 791.75 4212.25 791.75 
	L 108.25 791.75 
	C 48.6016 791.75 0.25 743.398 0.25 683.75 
	L 0.25 -396.25 
	C 0.25 -455.89 48.6016 -504.25 108.25 -504.25 
	L 4212.25 -504.25 
	C 4271.9 -504.25 4320.25 -455.89 4320.25 -396.25 
	Z 
	"/>
</g>
<g fill="#7f7f7f" fill-rule="nonzero" stroke-width="0" stroke-linejoin="miter" stroke-linecap="butt" stroke-miterlimit="4" >
	<path d="
	M 108.25 764.75 
	C 63.5859 764.75 27.25 728.41 27.25 683.75 
	L 27.25 -396.25 
	C 27.25 -440.91 63.5859 -477.25 108.25 -477.25 
	L 4212.25 -477.25 
	C 4256.91 -477.25 4293.25 -440.91 4293.25 -396.25 
	L 4293.25 683.75 
	C 4293.25 728.41 4256.91 764.75 4212.25 764.75 
	Z 
	"/>
</g>
<g fill="#ffffff" fill-rule="nonzero" stroke-width="0" stroke-linejoin="miter" stroke-linecap="butt" stroke-miterlimit="4" >
	<path d="
	M 108.25 719.75 
	C 88.3984 719.75 72.25 703.602 72.25 683.75 
	L 72.25 -396.25 
	C 72.25 -416.1 88.3984 -432.25 108.25 -432.25 
	L 4212.25 -432.25 
	C 4232.1 -432.25 4248.25 -416.1 4248.25 -396.25 
	L 4248.25 683.75 
	C 4248.25 703.602 4232.1 719.75 4212.25 719.75 
	Z 
	"/>
</g>
<g fill="#7f7f7f" fill-rule="nonzero" stroke-width="0" stroke-linejoin="miter" stroke-linecap="butt" stroke-miterlimit="4" >
	<path d="
	M 4023.14 539.75 
	L 3912.99 344.719 
	L 3912.99 539.75 
	L 3867.51 539.75 
	L 3867.51 251.75 
	L 3912.99 251.75 
	L 4018.09 435.668 
	L 4018.09 251.75 
	L 4063.57 251.75 
	L 4063.57 539.75 
	Z 
	"/>
</g>
<g fill="#7f7f7f" fill-rule="nonzero" stroke-width="0" stroke-linejoin="miter" stroke-linecap="butt" stroke-miterlimit="4" >
	<path d="
	M 3741.34 315.414 
	C 3732.23 300.258 3721.09 294.191 3703.87 293.184 
	C 3681.58 292.172 3667.4 303.285 3657.27 328.551 
	C 3650.17 345.73 3646.13 372.004 3646.13 396.258 
	C 3646.13 426.57 3652.2 457.898 3663.34 476.09 
	C 3672.46 491.246 3684.62 498.32 3702.85 498.32 
	C 3724.13 498.32 3737.29 487.203 3747.42 461.941 
	C 3753.5 446.781 3758.57 418.488 3758.57 396.258 
	C 3758.57 363.922 3752.49 334.613 3741.34 315.414 
	Z 
	M 3772.75 512.469 
	C 3756.54 534.699 3733.24 544.801 3702.85 544.801 
	C 3662.33 544.801 3637.01 528.629 3619.78 493.27 
	C 3607.63 469.016 3599.53 430.613 3599.53 396.258 
	C 3599.53 348.762 3611.68 306.32 3630.93 279.035 
	C 3648.15 256.805 3671.45 246.699 3704.88 246.699 
	C 3741.34 246.699 3766.67 262.867 3784.9 298.234 
	C 3797.06 323.496 3804.15 359.879 3804.15 396.258 
	C 3804.15 441.73 3793.01 487.203 3772.75 512.469 
	Z 
	"/>
</g>
<g fill="#7f7f7f" fill-rule="nonzero" stroke-width="0" stroke-linejoin="miter" stroke-linecap="butt" stroke-miterlimit="4" >
	<path d="
	M 2735.67 522.57 
	C 2719.5 536.719 2697.27 544.801 2673.02 544.801 
	C 2623.5 544.801 2587.12 515.5 2567.91 472.047 
	L 2611.37 455.879 
	C 2623.5 483.16 2645.73 498.32 2673.02 498.32 
	C 2699.29 498.32 2717.48 480.129 2717.48 455.879 
	C 2717.48 417.477 2673.02 411.414 2635.62 396.258 
	C 2618.44 389.184 2580.04 372.004 2580.04 324.508 
	C 2580.04 267.922 2618.44 246.699 2669.99 246.699 
	C 2710.41 246.699 2737.69 269.941 2751.84 305.309 
	L 2711.42 317.434 
	C 2711.42 317.434 2701.31 293.184 2668.97 292.172 
	C 2647.75 291.16 2622.49 299.246 2624.51 325.52 
	C 2628.55 379.074 2763.97 343.711 2763.97 456.887 
	C 2763.97 483.16 2753.86 506.398 2735.67 522.57 
	Z 
	"/>
</g>
<g fill="#7f7f7f" fill-rule="nonzero" stroke-width="0" stroke-linejoin="miter" stroke-linecap="butt" stroke-miterlimit="4" >
	<path d="
	M 2812.93 539.75 
	L 2812.93 251.75 
	L 2982.48 251.75 
	L 2982.48 297.227 
	L 2858.34 297.227 
	L 2858.34 367.961 
	L 2942.11 367.961 
	L 2942.11 414.445 
	L 2858.34 414.445 
	L 2858.34 493.266 
	L 2991.56 493.266 
	L 2991.56 539.75 
	Z 
	"/>
</g>
<g fill="#7f7f7f" fill-rule="nonzero" stroke-width="0" stroke-linejoin="miter" stroke-linecap="butt" stroke-miterlimit="4" >
	<path d="
	M 3143.9 544.801 
	C 3101.46 544.801 3074.17 528.641 3055.98 493.266 
	C 3042.85 468.004 3034.76 431.621 3034.76 395.246 
	C 3034.76 349.77 3046.89 304.297 3067.1 279.035 
	C 3084.28 257.812 3108.53 246.699 3140.87 246.699 
	C 3184.33 246.699 3211.61 264.891 3230.82 305.309 
	L 3188.37 323.496 
	C 3172.2 299.246 3163.11 293.184 3140.87 293.184 
	C 3117.63 293.184 3102.47 303.285 3092.36 328.551 
	C 3085.29 345.73 3081.25 370.992 3081.25 395.246 
	C 3081.25 426.57 3088.32 457.898 3099.44 476.09 
	C 3109.54 491.246 3122.68 498.32 3142.89 498.32 
	C 3162.09 498.32 3176.24 488.215 3187.36 464.973 
	L 3230.82 481.141 
	C 3213.64 523.578 3185.34 544.801 3143.9 544.801 
	Z 
	"/>
</g>
<g fill="#7f7f7f" fill-rule="nonzero" stroke-width="0" stroke-linejoin="miter" stroke-linecap="butt" stroke-miterlimit="4" >
	<path d="
	M 3490.09 539.75 
	L 3490.09 251.75 
	L 3536.17 251.75 
	L 3536.17 539.75 
	Z 
	"/>
</g>
<g fill="#7f7f7f" fill-rule="nonzero" stroke-width="0" stroke-linejoin="miter" stroke-linecap="butt" stroke-miterlimit="4" >
	<path d="
	M 3379.9 292.172 
	L 3379.9 539.75 
	L 3334.23 539.75 
	L 3334.23 292.172 
	L 3268.26 292.172 
	L 3268.26 251.746 
	L 3446.89 251.746 
	L 3446.89 292.172 
	Z 
	"/>
</g>
<g fill="#7f7f7f" fill-rule="nonzero" stroke-width="0" stroke-linejoin="miter" stroke-linecap="butt" stroke-miterlimit="4" >
	<path d="
	M 407.516 539.75 
	L 407.516 414.445 
	L 302.41 414.445 
	L 302.41 539.75 
	L 256.934 539.75 
	L 256.934 251.75 
	L 302.41 251.75 
	L 302.41 367.961 
	L 407.516 367.961 
	L 407.516 251.75 
	L 452.992 251.75 
	L 452.992 539.75 
	Z 
	"/>
</g>
<g fill="#7f7f7f" fill-rule="nonzero" stroke-width="0" stroke-linejoin="miter" stroke-linecap="butt" stroke-miterlimit="4" >
	<path d="
	M 1138.25 309.352 
	C 1131.17 302.277 1121.07 297.223 1108.94 297.223 
	L 1057.4 297.223 
	L 1057.4 493.266 
	L 1102.88 493.266 
	C 1118.04 493.266 1127.13 490.234 1135.22 482.152 
	C 1152.4 464.973 1161.49 433.645 1161.49 395.242 
	C 1161.49 356.844 1152.4 324.508 1138.25 309.352 
	Z 
	M 1157.45 523.578 
	C 1146.33 533.691 1131.17 538.738 1116.02 539.75 
	C 1112.98 539.75 1106.92 539.75 1099.85 539.75 
	L 1011.92 539.75 
	L 1011.92 251.75 
	L 1104.9 251.75 
	C 1134.21 251.75 1145.32 254.781 1160.48 266.91 
	C 1190.8 293.184 1207.98 338.656 1207.98 395.242 
	C 1207.98 452.844 1189.79 498.32 1157.45 523.578 
	Z 
	"/>
</g>
<g fill="#7f7f7f" fill-rule="nonzero" stroke-width="0" stroke-linejoin="miter" stroke-linecap="butt" stroke-miterlimit="4" >
	<path d="
	M 522.105 539.75 
	L 522.105 251.75 
	L 691.656 251.75 
	L 691.656 297.227 
	L 567.523 297.227 
	L 567.523 367.961 
	L 651.289 367.961 
	L 651.289 414.445 
	L 567.523 414.445 
	L 567.523 493.266 
	L 700.742 493.266 
	L 700.742 539.75 
	Z 
	"/>
</g>
<g fill="#7f7f7f" fill-rule="nonzero" stroke-width="0" stroke-linejoin="miter" stroke-linecap="butt" stroke-miterlimit="4" >
	<path d="
	M 846.762 331.582 
	L 817.285 412.426 
	L 875.219 412.426 
	Z 
	M 919.938 539.75 
	L 891.48 458.91 
	L 801.023 458.91 
	L 772.566 539.75 
	L 723.781 539.75 
	L 823.383 251.75 
	L 869.121 251.75 
	L 968.723 539.75 
	Z 
	"/>
</g>
<g fill="#7f7f7f" fill-rule="nonzero" stroke-width="0" stroke-linejoin="miter" stroke-linecap="butt" stroke-miterlimit="4" >
	<path d="
	M 1493.17 539.75 
	L 1493.17 251.75 
	L 1539.25 251.75 
	L 1539.25 539.75 
	Z 
	"/>
</g>
<g fill="#7f7f7f" fill-rule="nonzero" stroke-width="0" stroke-linejoin="miter" stroke-linecap="butt" stroke-miterlimit="4" >
	<path d="
	M 1271.34 539.75 
	L 1271.34 251.746 
	L 1316.75 251.746 
	L 1316.75 497.309 
	L 1449.97 497.309 
	L 1449.97 539.75 
	Z 
	"/>
</g>
<g fill="#7f7f7f" fill-rule="nonzero" stroke-width="0" stroke-linejoin="miter" stroke-linecap="butt" stroke-miterlimit="4" >
	<path d="
	M 2212.93 292.172 
	L 2212.93 539.75 
	L 2167.26 539.75 
	L 2167.26 292.172 
	L 2101.28 292.172 
	L 2101.28 251.746 
	L 2279.91 251.746 
	L 2279.91 292.172 
	Z 
	"/>
</g>
<g fill="#7f7f7f" fill-rule="nonzero" stroke-width="0" stroke-linejoin="miter" stroke-linecap="butt" stroke-miterlimit="4" >
	<path d="
	M 2012.61 539.75 
	L 2012.61 414.445 
	L 1907.5 414.445 
	L 1907.5 539.75 
	L 1862.03 539.75 
	L 1862.03 251.75 
	L 1907.5 251.75 
	L 1907.5 367.961 
	L 2012.61 367.961 
	L 2012.61 251.75 
	L 2058.09 251.75 
	L 2058.09 539.75 
	Z 
	"/>
</g>
<g fill="#7f7f7f" fill-rule="nonzero" stroke-width="0" stroke-linejoin="miter" stroke-linecap="butt" stroke-miterlimit="4" >
	<path d="
	M 1707.71 544.801 
	C 1664.26 544.801 1638.99 528.641 1621.81 492.258 
	C 1609.69 466.992 1602.61 431.621 1602.61 396.258 
	C 1602.61 349.77 1615.75 304.297 1634.95 279.035 
	C 1652.13 257.812 1676.38 246.699 1708.73 246.699 
	C 1753.19 246.699 1779.47 264.891 1798.67 310.363 
	L 1755.21 327.539 
	C 1743.09 302.277 1730.96 293.184 1708.73 293.184 
	C 1685.48 293.184 1670.32 303.285 1660.22 328.551 
	C 1653.14 345.73 1649.1 372.004 1649.1 396.258 
	C 1649.1 426.57 1654.15 456.891 1663.25 475.074 
	C 1672.34 491.246 1685.48 498.32 1702.66 498.32 
	C 1731.97 498.32 1753.19 480.133 1753.19 453.855 
	L 1753.19 441.73 
	L 1700.64 441.73 
	L 1700.64 396.258 
	L 1798.67 396.258 
	L 1798.67 453.855 
	C 1798.67 506.398 1760.27 544.801 1707.71 544.801 
	Z 
	"/>
</g>
<g fill="#7f7f7f" fill-rule="nonzero" stroke-width="0" stroke-linejoin="miter" stroke-linecap="butt" stroke-miterlimit="4" >
	<path d="
	M 1709.39 35.75 
	L 1599.23 -159.281 
	L 1599.23 35.75 
	L 1553.76 35.75 
	L 1553.76 -252.25 
	L 1599.23 -252.25 
	L 1704.33 -68.336 
	L 1704.33 -252.25 
	L 1749.81 -252.25 
	L 1749.81 35.75 
	Z 
	"/>
</g>
<g fill="#7f7f7f" fill-rule="nonzero" stroke-width="0" stroke-linejoin="miter" stroke-linecap="butt" stroke-miterlimit="4" >
	<path d="
	M 1438.56 35.75 
	L 1438.56 -252.25 
	L 1484.64 -252.25 
	L 1484.64 35.75 
	Z 
	"/>
</g>
<g fill="#7f7f7f" fill-rule="nonzero" stroke-width="0" stroke-linejoin="miter" stroke-linecap="butt" stroke-miterlimit="4" >
	<path d="
	M 957.309 35.75 
	L 957.309 -252.25 
	L 1126.86 -252.25 
	L 1126.86 -206.777 
	L 1002.72 -206.777 
	L 1002.72 -136.039 
	L 1086.49 -136.039 
	L 1086.49 -89.555 
	L 1002.72 -89.555 
	L 1002.72 -10.734 
	L 1135.94 -10.734 
	L 1135.94 35.75 
	Z 
	"/>
</g>
<g fill="#7f7f7f" fill-rule="nonzero" stroke-width="0" stroke-linejoin="miter" stroke-linecap="butt" stroke-miterlimit="4" >
	<path d="
	M 834.574 -87.535 
	C 828.512 -89.555 825.48 -89.555 815.371 -89.555 
	L 757.77 -89.555 
	L 757.77 -10.734 
	L 826.492 -10.734 
	C 849.734 -10.734 861.859 -21.852 861.859 -44.082 
	C 861.859 -63.281 850.742 -81.473 834.574 -87.535 
	Z 
	M 824.469 -206.777 
	L 757.77 -206.777 
	L 757.77 -136.043 
	L 812.34 -136.043 
	C 825.48 -136.043 831.543 -138.063 839.629 -144.125 
	C 849.734 -152.211 855.797 -164.336 855.797 -177.473 
	C 855.797 -196.672 844.68 -206.777 824.469 -206.777 
	Z 
	M 861.859 28.676 
	C 851.754 32.719 834.574 35.75 821.438 35.75 
	L 712.293 35.75 
	L 712.293 -252.25 
	L 821.438 -252.25 
	C 866.914 -252.25 901.273 -220.93 901.273 -179.496 
	C 901.273 -151.199 888.137 -129.977 860.852 -114.82 
	C 891.168 -100.668 908.348 -76.418 908.348 -45.09 
	C 908.348 -13.766 889.148 17.559 861.859 28.676 
	Z 
	"/>
</g>
<g fill="#7f7f7f" fill-rule="nonzero" stroke-width="0" stroke-linejoin="miter" stroke-linecap="butt" stroke-miterlimit="4" >
	<path d="
	M 1284.24 40.805 
	C 1240.79 40.805 1215.52 24.633 1198.34 -11.746 
	C 1186.22 -37.008 1179.14 -72.379 1179.14 -107.746 
	C 1179.14 -154.23 1192.28 -199.703 1211.48 -224.96 
	C 1228.66 -246.19 1252.91 -257.3 1285.25 -257.3 
	C 1329.72 -257.3 1356 -239.11 1375.2 -193.637 
	L 1331.74 -176.461 
	C 1319.61 -201.727 1307.49 -210.82 1285.25 -210.82 
	C 1262.01 -210.82 1246.85 -200.715 1236.75 -175.449 
	C 1229.67 -158.273 1225.63 -131.996 1225.63 -107.746 
	C 1225.63 -77.43 1230.68 -47.113 1239.78 -28.926 
	C 1248.87 -12.758 1262.01 -5.67999 1279.19 -5.67999 
	C 1308.5 -5.67999 1329.72 -23.871 1329.72 -50.145 
	L 1329.72 -62.273 
	L 1277.17 -62.273 
	L 1277.17 -107.746 
	L 1375.2 -107.746 
	L 1375.2 -50.145 
	C 1375.2 2.40198 1336.8 40.805 1284.24 40.805 
	Z 
	"/>
</g>
<g fill="#7f7f7f" fill-rule="nonzero" stroke-width="0" stroke-linejoin="miter" stroke-linecap="butt" stroke-miterlimit="4" >
	<path d="
	M 2680.8 -89.559 
	L 2680.8 35.75 
	L 2635.1 35.75 
	L 2635.1 -89.559 
	L 2533.53 -252.25 
	L 2588.38 -252.25 
	L 2657.44 -141.094 
	L 2727.52 -252.25 
	L 2781.36 -252.25 
	Z 
	"/>
</g>
<g fill="#7f7f7f" fill-rule="nonzero" stroke-width="0" stroke-linejoin="miter" stroke-linecap="butt" stroke-miterlimit="4" >
	<path d="
	M 2164.13 -194.652 
	C 2157.06 -201.727 2146.96 -206.777 2134.83 -206.777 
	L 2083.29 -206.777 
	L 2083.29 -10.734 
	L 2128.76 -10.734 
	C 2143.92 -10.734 2153.02 -13.766 2161.1 -21.852 
	C 2178.28 -39.027 2187.38 -70.355 2187.38 -108.758 
	C 2187.38 -147.156 2178.28 -179.492 2164.13 -194.652 
	Z 
	M 2183.34 19.582 
	C 2172.22 29.687 2157.06 34.738 2141.9 35.75 
	C 2138.87 35.75 2132.81 35.75 2125.73 35.75 
	L 2037.81 35.75 
	L 2037.81 -252.25 
	L 2130.78 -252.25 
	C 2160.09 -252.25 2171.21 -249.22 2186.37 -237.09 
	C 2216.69 -210.82 2233.87 -165.344 2233.87 -108.758 
	C 2233.87 -51.156 2215.67 -5.67999 2183.34 19.582 
	Z 
	"/>
</g>
<g fill="#7f7f7f" fill-rule="nonzero" stroke-width="0" stroke-linejoin="miter" stroke-linecap="butt" stroke-miterlimit="4" >
	<path d="
	M 3429.57 35.75 
	L 3429.57 -252.25 
	L 3599.12 -252.25 
	L 3599.12 -206.777 
	L 3474.99 -206.777 
	L 3474.99 -136.039 
	L 3558.75 -136.039 
	L 3558.75 -89.555 
	L 3474.99 -89.555 
	L 3474.99 -10.734 
	L 3608.21 -10.734 
	L 3608.21 35.75 
	Z 
	"/>
</g>
<g fill="#7f7f7f" fill-rule="nonzero" stroke-width="0" stroke-linejoin="miter" stroke-linecap="butt" stroke-miterlimit="4" >
	<path d="
	M 2394.29 -172.418 
	L 2364.81 -91.574 
	L 2422.74 -91.574 
	Z 
	M 2467.46 35.75 
	L 2439.01 -45.09 
	L 2348.55 -45.09 
	L 2320.09 35.75 
	L 2271.31 35.75 
	L 2370.91 -252.25 
	L 2416.65 -252.25 
	L 2516.25 35.75 
	Z 
	"/>
</g>
<g fill="#7f7f7f" fill-rule="nonzero" stroke-width="0" stroke-linejoin="miter" stroke-linecap="butt" stroke-miterlimit="4" >
	<path d="
	M 3020.47 35.75 
	L 3020.47 -252.25 
	L 3066.55 -252.25 
	L 3066.55 35.75 
	Z 
	"/>
</g>
<g fill="#7f7f7f" fill-rule="nonzero" stroke-width="0" stroke-linejoin="miter" stroke-linecap="butt" stroke-miterlimit="4" >
	<path d="
	M 2910.28 -211.83 
	L 2910.28 35.75 
	L 2864.61 35.75 
	L 2864.61 -211.83 
	L 2798.63 -211.83 
	L 2798.63 -252.25 
	L 2977.27 -252.25 
	L 2977.27 -211.83 
	Z 
	"/>
</g>
<g fill="#7f7f7f" fill-rule="nonzero" stroke-width="0" stroke-linejoin="miter" stroke-linecap="butt" stroke-miterlimit="4" >
	<path d="
	M 3314.89 35.75 
	L 3314.89 -130.988 
	L 3248.06 35.75 
	L 3181.23 -130.988 
	L 3181.23 35.75 
	L 3135.67 35.75 
	L 3135.67 -252.25 
	L 3181.23 -252.25 
	L 3248.06 -90.566 
	L 3314.89 -252.25 
	L 3360.45 -252.25 
	L 3360.45 35.75 
	Z 
	"/>
</g>
</g >
</g>
</svg>
