<?xml version="1.0" encoding="UTF-8" standalone="no"?>
<!-- Created with Inkscape (http://www.inkscape.org/) -->

<svg
   version="1.1"
   id="svg1"
   width="12672.667"
   height="3456.6667"
   viewBox="0 0 12672.667 3456.6667"
   sodipodi:docname="tmp9rgqul6d.pdf"
   xmlns:inkscape="http://www.inkscape.org/namespaces/inkscape"
   xmlns:sodipodi="http://sodipodi.sourceforge.net/DTD/sodipodi-0.dtd"
   xmlns="http://www.w3.org/2000/svg"
   xmlns:svg="http://www.w3.org/2000/svg">
  <defs
     id="defs1" />
  <sodipodi:namedview
     id="namedview1"
     pagecolor="#ffffff"
     bordercolor="#000000"
     borderopacity="0.25"
     inkscape:showpageshadow="2"
     inkscape:pageopacity="0.0"
     inkscape:pagecheckerboard="0"
     inkscape:deskcolor="#d1d1d1">
    <inkscape:page
       x="0"
       y="0"
       inkscape:label="1"
       id="page1"
       width="12672.667"
       height="3456.6667"
       margin="0"
       bleed="0" />
  </sodipodi:namedview>
  <g
     id="g1"
     inkscape:groupmode="layer"
     inkscape:label="1">
    <g
       id="group-R5">
      <path
         id="path2"
         d="m 95042.5,1622.5 c 0,-894.699 -725.3,-1620 -1620,-1620 H 1622.5 C 727.805,2.5 2.5,727.801 2.5,1622.5 v 22680 c 0,894.7 725.305,1620 1620.01,1620 H 93422.5 c 894.7,0 1620,-725.3 1620,-1620 v -22680"
         style="fill:#ffffff;fill-opacity:1;fill-rule:nonzero;stroke:none"
         transform="matrix(0.13333333,0,0,-0.13333333,0,3456.6667)" />
      <path
         id="path3"
         d="m 95042.5,1622.5 c 0,-894.699 -725.3,-1620 -1620,-1620 H 1622.5 C 727.805,2.5 2.5,727.801 2.5,1622.5 v 22680 c 0,894.7 725.305,1620 1620.01,1620 H 93422.5 c 894.7,0 1620,-725.3 1620,-1620 z"
         style="fill:none;stroke:#231f20;stroke-width:5;stroke-linecap:butt;stroke-linejoin:miter;stroke-miterlimit:4;stroke-dasharray:none;stroke-opacity:1"
         transform="matrix(0.13333333,0,0,-0.13333333,0,3456.6667)" />
      <path
         id="path4"
         d="m 1622.5,452.5 c -645.137,0 -1170,524.902 -1170,1170 v 22680 c 0,645.1 524.863,1170 1170,1170 h 91800 c 645.1,0 1170,-524.9 1170,-1170 v -22680 c 0,-645.098 -524.9,-1170 -1170,-1170 h -91800"
         style="fill:#231f20;fill-opacity:1;fill-rule:nonzero;stroke:none"
         transform="matrix(0.13333333,0,0,-0.13333333,0,3456.6667)" />
      <path
         id="path5"
         d="m 1622.5,1082.5 c -297.75,0 -540,242.3 -540,540 v 22680 c 0,297.8 242.25,540 540,540 h 91800 c 297.7,0 540,-242.2 540,-540 v -22680 c 0,-297.7 -242.3,-540 -540,-540 h -91800"
         style="fill:#ffffff;fill-opacity:1;fill-rule:nonzero;stroke:none"
         transform="matrix(0.13333333,0,0,-0.13333333,0,3456.6667)" />
      <path
         id="path6"
         d="m 23173.7,15122.5 -2203.1,3900.6 v -3900.6 h -909.5 v 5760 h 909.5 l 2102,-3678.3 v 3678.3 h 909.5 v -5760 h -808.4"
         style="fill:#231f20;fill-opacity:1;fill-rule:nonzero;stroke:none"
         transform="matrix(0.13333333,0,0,-0.13333333,0,3456.6667)" />
      <path
         id="path7"
         d="m 32578.5,19609.2 c -182.3,303.2 -405.2,424.5 -749.6,444.7 -445.7,20.2 -729.4,-202.1 -932,-707.4 -141.8,-343.6 -222.8,-869 -222.8,-1354.1 0,-606.3 121.5,-1232.8 344.4,-1596.6 182.3,-303.2 425.4,-444.7 790.1,-444.7 425.5,0 688.9,222.3 891.5,727.6 121.5,303.2 222.8,869.1 222.8,1313.7 0,646.7 -121.5,1232.8 -344.4,1616.8 z m 628.1,-3941 c -324.2,-444.7 -790.2,-646.8 -1398,-646.8 -810.4,0 -1316.9,323.4 -1661.3,1030.8 -243.1,485.1 -405.2,1253 -405.2,1940.2 0,949.9 243.1,1798.7 628.1,2344.4 344.4,444.7 810.4,646.8 1478.9,646.8 729.4,0 1235.9,-323.4 1600.6,-1030.8 243.1,-505.2 384.9,-1232.8 384.9,-1960.4 0,-909.5 -222.8,-1819 -628,-2324.2"
         style="fill:#231f20;fill-opacity:1;fill-rule:nonzero;stroke:none"
         transform="matrix(0.13333333,0,0,-0.13333333,0,3456.6667)" />
      <path
         id="path8"
         d="m 69507.7,15122.5 v 5760 h 921.6 v -5760 h -921.6"
         style="fill:#231f20;fill-opacity:1;fill-rule:nonzero;stroke:none"
         transform="matrix(0.13333333,0,0,-0.13333333,0,3456.6667)" />
      <path
         id="path9"
         d="m 65071,15122.5 v 5760.1 h 908.3 v -4911.3 h 2664.4 v -848.8 H 65071"
         style="fill:#231f20;fill-opacity:1;fill-rule:nonzero;stroke:none"
         transform="matrix(0.13333333,0,0,-0.13333333,0,3456.6667)" />
      <path
         id="path10"
         d="m 13515.6,15991.6 c -303.2,-566 -990.4,-970.2 -1697.8,-970.2 -707.4,0 -1394.7,404.2 -1697.8,970.2 -161.7,343.5 -262.79,747.8 -262.79,1192.4 v 3698.5 h 909.49 V 17184 c 0,-747.8 424.5,-1232.9 1051.1,-1232.9 626.5,0 1051,485.1 1051,1232.9 v 3698.5 h 909.5 V 17184 c 0,-444.6 -101,-848.9 -262.7,-1192.4"
         style="fill:#231f20;fill-opacity:1;fill-rule:nonzero;stroke:none"
         transform="matrix(0.13333333,0,0,-0.13333333,0,3456.6667)" />
      <path
         id="path11"
         d="m 7653.46,20074.1 v -4951.6 h -913.39 v 4951.6 h -1319.5 v 808.4 h 3572.65 v -808.4 H 7653.46"
         style="fill:#231f20;fill-opacity:1;fill-rule:nonzero;stroke:none"
         transform="matrix(0.13333333,0,0,-0.13333333,0,3456.6667)" />
      <path
         id="path12"
         d="m 83902.7,20074.1 v -4951.6 h -913.3 v 4951.6 h -1319.6 v 808.4 h 3572.7 v -808.4 h -1339.8"
         style="fill:#231f20;fill-opacity:1;fill-rule:nonzero;stroke:none"
         transform="matrix(0.13333333,0,0,-0.13333333,0,3456.6667)" />
      <path
         id="path13"
         d="m 17687.2,19872 c -141.5,80.8 -222.3,101 -525.5,101 h -1091.4 v -1414.7 h 1091.4 c 283,0 384,20.2 525.5,101 222.4,121.3 363.8,363.8 363.8,606.3 0,242.6 -141.4,485.1 -363.8,606.4 z m 404.2,-4749.5 -929.7,2506.2 h -1091.4 v -2506.2 h -909.6 v 5760 h 1899.9 c 444.7,0 747.9,-40.4 1030.8,-181.9 505.3,-242.5 869.2,-848.8 869.2,-1435 0,-606.3 -363.9,-1212.6 -889.4,-1455.1 l 1010.7,-2688 h -990.5"
         style="fill:#231f20;fill-opacity:1;fill-rule:nonzero;stroke:none"
         transform="matrix(0.13333333,0,0,-0.13333333,0,3456.6667)" />
      <path
         id="path14"
         d="m 89058.5,15466.1 c -323.4,-283 -768.1,-444.6 -1253.1,-444.6 -990.4,0 -1718,586.1 -2102.1,1455.1 l 869.1,323.4 c 242.6,-545.7 687.2,-848.8 1233,-848.8 525.5,0 889.3,363.7 889.3,848.8 0,768 -889.3,889.2 -1637.2,1192.4 -343.6,141.5 -1111.6,485 -1111.6,1435 0,1131.7 768,1556.2 1798.8,1556.2 808.5,0 1354.2,-464.9 1637.2,-1172.2 l -808.5,-242.5 c 0,0 -202.1,485 -848.9,505.2 -424.4,20.2 -929.8,-141.5 -889.3,-667 80.9,-1071.1 2789.2,-363.8 2789.2,-2627.3 0,-525.5 -202.1,-990.3 -565.9,-1313.7"
         style="fill:#231f20;fill-opacity:1;fill-rule:nonzero;stroke:none"
         transform="matrix(0.13333333,0,0,-0.13333333,0,3456.6667)" />
      <path
         id="path15"
         d="m 47794.5,15122.5 v 2506.1 h -2102.1 v -2506.1 h -909.5 v 5760 h 909.5 v -2324.2 h 2102.1 v 2324.2 h 909.5 v -5760 h -909.5"
         style="fill:#231f20;fill-opacity:1;fill-rule:nonzero;stroke:none"
         transform="matrix(0.13333333,0,0,-0.13333333,0,3456.6667)" />
      <path
         id="path16"
         d="m 79896.4,15122.5 v 2506.1 h -2102.1 v -2506.1 h -909.5 v 5760 h 909.5 v -2324.2 h 2102.1 v 2324.2 h 909.5 v -5760 h -909.5"
         style="fill:#231f20;fill-opacity:1;fill-rule:nonzero;stroke:none"
         transform="matrix(0.13333333,0,0,-0.13333333,0,3456.6667)" />
      <path
         id="path17"
         d="m 62409.2,19730.5 c -141.5,141.5 -343.6,242.5 -586.2,242.5 h -1030.8 v -3920.8 h 909.6 c 303.2,0 485.1,60.6 646.7,222.3 343.7,343.6 525.5,970.1 525.5,1738.2 0,767.9 -181.8,1414.6 -464.8,1717.8 z m 384,-4284.7 c -222.3,-202.1 -525.5,-303.1 -828.7,-323.3 -60.6,0 -181.9,0 -323.3,0 h -1758.5 v 5760 h 1859.5 c 586.1,0 808.5,-60.6 1111.6,-303.2 606.4,-525.4 950,-1434.9 950,-2566.6 0,-1152.1 -363.8,-2061.6 -1010.6,-2566.9"
         style="fill:#231f20;fill-opacity:1;fill-rule:nonzero;stroke:none"
         transform="matrix(0.13333333,0,0,-0.13333333,0,3456.6667)" />
      <path
         id="path18"
         d="m 50086.4,15122.5 v 5760 h 3390.9 V 19973 H 50994.7 V 18558.3 H 52670 v -929.7 H 50994.7 V 16052.2 H 53659 v -929.7 h -3572.6"
         style="fill:#231f20;fill-opacity:1;fill-rule:nonzero;stroke:none"
         transform="matrix(0.13333333,0,0,-0.13333333,0,3456.6667)" />
      <path
         id="path19"
         d="M 56579.4,19285.9 55989.9,17669 h 1158.7 z m 1463.6,-4163.4 -569.2,1616.8 h -1809.1 l -569.2,-1616.8 h -975.7 l 1992.1,5760 h 914.7 l 1992.1,-5760 H 58043"
         style="fill:#231f20;fill-opacity:1;fill-rule:nonzero;stroke:none"
         transform="matrix(0.13333333,0,0,-0.13333333,0,3456.6667)" />
      <path
         id="path20"
         d="m 73798.5,15021.4 c -869.1,0 -1374.4,323.4 -1718,1051 -242.5,505.3 -384,1212.6 -384,1920 0,929.7 262.7,1839.2 646.8,2344.4 343.6,424.5 828.7,646.7 1475.5,646.7 889.3,0 1414.8,-363.8 1798.8,-1273.2 l -869.1,-343.6 c -242.6,505.3 -485.1,687.2 -929.7,687.2 -464.9,0 -768.1,-202.1 -970.2,-707.4 -141.5,-343.6 -222.4,-869.1 -222.4,-1354.1 0,-606.3 101.1,-1212.7 283,-1576.4 181.9,-323.4 444.7,-464.9 788.3,-464.9 586.1,0 1010.6,363.8 1010.6,889.3 v 242.5 H 73657 v 909.5 h 1960.6 v -1152 c 0,-1051 -768,-1819 -1819.1,-1819"
         style="fill:#231f20;fill-opacity:1;fill-rule:nonzero;stroke:none"
         transform="matrix(0.13333333,0,0,-0.13333333,0,3456.6667)" />
      <path
         id="path21"
         d="m 38214.4,15122.5 -2203.1,3900.6 v -3900.6 h -909.5 v 5760 h 909.5 l 2102,-3678.3 v 3678.3 h 909.6 v -5760 h -808.5"
         style="fill:#231f20;fill-opacity:1;fill-rule:nonzero;stroke:none"
         transform="matrix(0.13333333,0,0,-0.13333333,0,3456.6667)" />
      <path
         id="path22"
         d="m 60833.8,5042.5 v 5760 h 921.7 v -5760 h -921.7"
         style="fill:#231f20;fill-opacity:1;fill-rule:nonzero;stroke:none"
         transform="matrix(0.13333333,0,0,-0.13333333,0,3456.6667)" />
      <path
         id="path23"
         d="m 63137.9,5042.5 v 5760.1 h 908.3 V 5891.3 h 2664.3 v -848.8 h -3572.6"
         style="fill:#231f20;fill-opacity:1;fill-rule:nonzero;stroke:none"
         transform="matrix(0.13333333,0,0,-0.13333333,0,3456.6667)" />
      <path
         id="path24"
         d="M 58540.1,5042.5 V 8377.2 L 57203.5,5042.5 55867,8377.2 V 5042.5 h -911.3 v 5760 h 911.3 l 1336.5,-3233.7 1336.6,3233.7 h 911.2 v -5760 h -911.2"
         style="fill:#231f20;fill-opacity:1;fill-rule:nonzero;stroke:none"
         transform="matrix(0.13333333,0,0,-0.13333333,0,3456.6667)" />
      <path
         id="path25"
         d="M 35467.6,9994.1 V 5042.5 h -913.4 v 4951.6 h -1319.5 v 808.4 h 3572.7 v -808.4 h -1339.8"
         style="fill:#231f20;fill-opacity:1;fill-rule:nonzero;stroke:none"
         transform="matrix(0.13333333,0,0,-0.13333333,0,3456.6667)" />
      <path
         id="path26"
         d="m 75078.3,5386.1 c -323.4,-283 -768,-444.6 -1253.1,-444.6 -990.4,0 -1718,586.1 -2102.1,1455.1 l 869.1,323.3 c 242.6,-545.6 687.2,-848.7 1233,-848.7 525.5,0 889.3,363.7 889.3,848.7 0,768.1 -889.3,889.3 -1637.2,1192.5 -343.5,141.4 -1111.6,485 -1111.6,1434.9 0,1131.8 768.1,1556.2 1798.9,1556.2 808.4,0 1354.2,-464.8 1637.1,-1172.2 l -808.4,-242.5 c 0,0 -202.1,485 -849,505.3 -424.4,20.2 -929.7,-141.5 -889.3,-667 80.9,-1071.1 2789.3,-363.8 2789.3,-2627.3 0,-525.5 -202.2,-990.3 -566,-1313.7"
         style="fill:#231f20;fill-opacity:1;fill-rule:nonzero;stroke:none"
         transform="matrix(0.13333333,0,0,-0.13333333,0,3456.6667)" />
      <path
         id="path27"
         d="m 31743.2,5042.5 -929.8,1920 -929.7,-1920 h -1030.8 l 1435,2970.9 -1334,2789.1 h 1030.9 l 828.6,-1717.9 828.7,1717.9 H 32673 L 31318.7,8013.4 32774,5042.5 h -1030.8"
         style="fill:#231f20;fill-opacity:1;fill-rule:nonzero;stroke:none"
         transform="matrix(0.13333333,0,0,-0.13333333,0,3456.6667)" />
      <path
         id="path28"
         d="m 67574.5,5042.5 v 5760 h 3391 V 9893 H 68482.8 V 8478.3 h 1675.3 V 7548.6 H 68482.8 V 5972.2 h 2664.3 v -929.7 h -3572.6"
         style="fill:#231f20;fill-opacity:1;fill-rule:nonzero;stroke:none"
         transform="matrix(0.13333333,0,0,-0.13333333,0,3456.6667)" />
      <path
         id="path29"
         d="m 24704.3,5042.5 v 5760 h 3390.9 V 9893 H 25612.5 V 8478.3 h 1675.4 V 7548.6 H 25612.5 V 5972.2 h 2664.4 v -929.7 h -3572.6"
         style="fill:#231f20;fill-opacity:1;fill-rule:nonzero;stroke:none"
         transform="matrix(0.13333333,0,0,-0.13333333,0,3456.6667)" />
      <path
         id="path30"
         d="m 43087.4,5042.5 v 4668.7 h -520 v 727.5 h 60 c 240,0 500,141.5 660,363.8 h 720 v -5760 h -920"
         style="fill:#231f20;fill-opacity:1;fill-rule:nonzero;stroke:none"
         transform="matrix(0.13333333,0,0,-0.13333333,0,3456.6667)" />
      <path
         id="path31"
         d="m 46689.4,4941.4 c -505.3,0 -1010.6,121.3 -1414.8,323.4 l 444.7,808.4 c 242.5,-121.3 667,-202.1 1091.4,-202.1 828.7,0 1475.5,545.7 1475.5,1293.5 0,565.9 -464.9,1010.5 -1030.8,1010.5 -404.3,0 -586.2,-121.3 -929.8,-606.3 l -909.5,262.8 141.5,2970.9 h 3314.7 V 9893 h -2425.4 l -60.6,-949.9 c 424.4,121.3 606.3,161.7 889.3,161.7 1051,0 1920.1,-889.3 1920.1,-1940.2 0,-1273.3 -1051,-2223.2 -2506.3,-2223.2"
         style="fill:#231f20;fill-opacity:1;fill-rule:nonzero;stroke:none"
         transform="matrix(0.13333333,0,0,-0.13333333,0,3456.6667)" />
      <path
         id="path32"
         d="M 22513.4,5042.5 20310.2,8943.1 V 5042.5 h -909.5 v 5760 h 909.5 l 2102.1,-3678.3 v 3678.3 h 909.5 v -5760 h -808.4"
         style="fill:#231f20;fill-opacity:1;fill-rule:nonzero;stroke:none"
         transform="matrix(0.13333333,0,0,-0.13333333,0,3456.6667)" />
    </g>
  </g>
</svg>
