<?xml version="1.0" encoding="UTF-8" standalone="no"?>
<!-- Created with Inkscape (http://www.inkscape.org/) -->

<svg
   version="1.1"
   id="svg1"
   width="4032.6667"
   height="1728.6667"
   viewBox="0 0 4032.6667 1728.6667"
   sodipodi:docname="tmp8jm1thpt.pdf"
   xmlns:inkscape="http://www.inkscape.org/namespaces/inkscape"
   xmlns:sodipodi="http://sodipodi.sourceforge.net/DTD/sodipodi-0.dtd"
   xmlns="http://www.w3.org/2000/svg"
   xmlns:svg="http://www.w3.org/2000/svg">
  <defs
     id="defs1" />
  <sodipodi:namedview
     id="namedview1"
     pagecolor="#ffffff"
     bordercolor="#000000"
     borderopacity="0.25"
     inkscape:showpageshadow="2"
     inkscape:pageopacity="0.0"
     inkscape:pagecheckerboard="0"
     inkscape:deskcolor="#d1d1d1">
    <inkscape:page
       x="0"
       y="0"
       inkscape:label="1"
       id="page1"
       width="4032.6667"
       height="1728.6667"
       margin="0"
       bleed="0" />
  </sodipodi:namedview>
  <g
     id="g1"
     inkscape:groupmode="layer"
     inkscape:label="1">
    <g
       id="group-R5">
      <path
         id="path2"
         d="M 30242.5,1082.5 C 30242.5,486 29759,2.5 29162.5,2.5 H 1082.5 C 486.035,2.5 2.5,486 2.5,1082.5 v 10800 c 0,596.5 483.535,1080 1080,1080 h 28080 c 596.5,0 1080,-483.5 1080,-1080 v -10800"
         style="fill:#ffffff;fill-opacity:1;fill-rule:nonzero;stroke:none"
         transform="matrix(0.13333333,0,0,-0.13333333,0,1728.6667)" />
      <path
         id="path3"
         d="M 30242.5,1082.5 C 30242.5,486 29759,2.5 29162.5,2.5 H 1082.5 C 486.035,2.5 2.5,486 2.5,1082.5 v 10800 c 0,596.5 483.535,1080 1080,1080 h 28080 c 596.5,0 1080,-483.5 1080,-1080 z"
         style="fill:none;stroke:#231f20;stroke-width:5;stroke-linecap:butt;stroke-linejoin:miter;stroke-miterlimit:4;stroke-dasharray:none;stroke-opacity:1"
         transform="matrix(0.13333333,0,0,-0.13333333,0,1728.6667)" />
      <path
         id="path4"
         d="m 1082.5,272.5 c -446.637,0 -810,363.398 -810,810 v 10800 c 0,446.6 363.363,810 810,810 h 28080 c 446.6,0 810,-363.4 810,-810 v -10800 c 0,-446.602 -363.4,-810 -810,-810 h -28080"
         style="fill:#231f20;fill-opacity:1;fill-rule:nonzero;stroke:none"
         transform="matrix(0.13333333,0,0,-0.13333333,0,1728.6667)" />
      <path
         id="path5"
         d="m 1082.5,722.5 c -198.508,0 -360,161.5 -360,360 v 10800 c 0,198.5 161.492,360 360,360 h 28080 c 198.5,0 360,-161.5 360,-360 v -10800 c 0,-198.5 -161.5,-360 -360,-360 h -28080"
         style="fill:#ffffff;fill-opacity:1;fill-rule:nonzero;stroke:none"
         transform="matrix(0.13333333,0,0,-0.13333333,0,1728.6667)" />
      <path
         id="path6"
         d="m 16274.5,2522.5 v 2880 h 460.8 v -2880 h -460.8"
         style="fill:#231f20;fill-opacity:1;fill-rule:nonzero;stroke:none"
         transform="matrix(0.13333333,0,0,-0.13333333,0,1728.6667)" />
      <path
         id="path7"
         d="m 14056.2,2522.5 v 2880.02 h 454.1 V 2946.9 h 1332.2 v -424.4 h -1786.3"
         style="fill:#231f20;fill-opacity:1;fill-rule:nonzero;stroke:none"
         transform="matrix(0.13333333,0,0,-0.13333333,0,1728.6667)" />
      <path
         id="path8"
         d="M 23472,4998.3 V 2522.5 h -456.7 v 2475.8 h -659.7 v 404.22 h 1786.3 V 4998.3 H 23472"
         style="fill:#231f20;fill-opacity:1;fill-rule:nonzero;stroke:none"
         transform="matrix(0.13333333,0,0,-0.13333333,0,1728.6667)" />
      <path
         id="path9"
         d="m 26049.9,2694.3 c -161.7,-141.5 -384,-222.3 -626.5,-222.3 -495.2,0 -859,293 -1051.1,727.55 l 434.6,161.68 c 121.3,-272.81 343.6,-424.43 616.5,-424.43 262.7,0 444.6,181.93 444.6,424.43 0,384.02 -444.6,444.65 -818.6,596.21 -171.8,70.74 -555.8,242.54 -555.8,717.5 0,565.88 384,778.09 899.4,778.09 404.3,0 677.1,-232.42 818.6,-586.1 l -404.2,-121.25 c 0,0 -101.1,242.5 -424.5,252.62 -212.2,10.1 -464.9,-70.74 -444.6,-333.48 40.4,-535.58 1394.6,-181.91 1394.6,-1313.67 0,-262.73 -101.1,-495.15 -283,-656.85"
         style="fill:#231f20;fill-opacity:1;fill-rule:nonzero;stroke:none"
         transform="matrix(0.13333333,0,0,-0.13333333,0,1728.6667)" />
      <path
         id="path10"
         d="M 5417.91,2522.5 V 3775.57 H 4366.88 V 2522.5 h -454.77 v 2880 h 454.77 V 4240.41 H 5417.91 V 5402.5 h 454.77 v -2880 h -454.77"
         style="fill:#231f20;fill-opacity:1;fill-rule:nonzero;stroke:none"
         transform="matrix(0.13333333,0,0,-0.13333333,0,1728.6667)" />
      <path
         id="path11"
         d="M 21468.9,2522.5 V 3775.57 H 20417.8 V 2522.5 h -454.7 v 2880 h 454.7 V 4240.41 h 1051.1 V 5402.5 h 454.8 v -2880 h -454.8"
         style="fill:#231f20;fill-opacity:1;fill-rule:nonzero;stroke:none"
         transform="matrix(0.13333333,0,0,-0.13333333,0,1728.6667)" />
      <path
         id="path12"
         d="m 12725.3,4826.5 c -70.8,70.75 -171.8,121.27 -293.1,121.27 h -515.4 V 2987.34 h 454.7 c 151.6,0 242.6,30.32 323.4,111.16 171.8,171.79 262.8,485.07 262.8,869.08 0,383.98 -91,707.34 -232.4,858.92 z m 192,-2142.3 c -111.2,-101.1 -262.8,-151.6 -414.4,-161.7 -30.3,0 -90.9,0 -161.7,0 H 11462 v 2880 h 929.7 c 293.1,0 404.3,-30.31 555.9,-151.58 303.2,-262.74 475,-717.48 475,-1283.34 0,-576.02 -181.9,-1030.78 -505.3,-1283.38"
         style="fill:#231f20;fill-opacity:1;fill-rule:nonzero;stroke:none"
         transform="matrix(0.13333333,0,0,-0.13333333,0,1728.6667)" />
      <path
         id="path13"
         d="m 6563.85,2522.5 v 2880 H 8259.34 V 4947.75 H 7017.99 v -707.36 h 837.67 V 3775.55 H 7017.99 V 2987.34 H 8350.18 V 2522.5 H 6563.85"
         style="fill:#231f20;fill-opacity:1;fill-rule:nonzero;stroke:none"
         transform="matrix(0.13333333,0,0,-0.13333333,0,1728.6667)" />
      <path
         id="path14"
         d="M 9810.37,4604.18 9515.63,3795.76 H 10095 Z m 731.83,-2081.68 -284.6,808.42 H 9353.02 L 9068.44,2522.5 h -487.87 l 996.04,2880 H 10034 l 996,-2880 h -487.8"
         style="fill:#231f20;fill-opacity:1;fill-rule:nonzero;stroke:none"
         transform="matrix(0.13333333,0,0,-0.13333333,0,1728.6667)" />
      <path
         id="path15"
         d="m 18419.9,2472 c -434.5,0 -687.2,161.7 -859,525.44 -121.2,252.64 -192,606.33 -192,960 0,464.85 131.4,919.59 323.4,1172.23 171.8,212.2 414.3,323.36 737.8,323.36 444.6,0 707.4,-181.92 899.4,-636.64 l -434.6,-171.78 c -121.2,252.64 -242.5,343.57 -464.8,343.57 -232.5,0 -384.1,-101.05 -485.2,-353.69 -70.7,-171.78 -111.1,-434.51 -111.1,-677.05 0,-303.16 50.5,-606.33 141.5,-788.2 90.9,-161.68 222.3,-232.44 394.1,-232.44 293.1,0 505.3,181.89 505.3,444.63 v 121.28 h -525.5 v 454.73 h 980.3 v -576.01 c 0,-525.43 -384,-909.43 -909.6,-909.43"
         style="fill:#231f20;fill-opacity:1;fill-rule:nonzero;stroke:none"
         transform="matrix(0.13333333,0,0,-0.13333333,0,1728.6667)" />
      <path
         id="path16"
         d="M 15598.5,7562.5 14496.9,9512.81 V 7562.5 h -454.7 v 2880 h 454.7 l 1051,-1839.16 v 1839.16 h 454.8 v -2880 h -404.2"
         style="fill:#231f20;fill-opacity:1;fill-rule:nonzero;stroke:none"
         transform="matrix(0.13333333,0,0,-0.13333333,0,1728.6667)" />
      <path
         id="path17"
         d="m 20300.9,9805.87 c -91.2,151.59 -202.6,212.23 -374.8,222.33 -222.9,10.1 -364.7,-101.05 -466,-353.69 -70.9,-171.8 -111.4,-434.53 -111.4,-677.05 0,-303.16 60.8,-616.43 172.2,-798.32 91.2,-151.58 212.7,-222.33 395.1,-222.33 212.7,0 344.4,111.17 445.7,363.8 60.7,151.58 111.4,434.53 111.4,656.85 0,323.36 -60.8,616.41 -172.2,808.41 z m 314,-1970.52 c -162.1,-222.32 -395.1,-323.39 -698.9,-323.39 -405.2,0 -658.5,161.71 -830.7,515.38 -121.5,242.54 -202.6,626.53 -202.6,970.12 0,474.94 121.5,899.35 314,1172.24 172.2,222.3 405.2,323.3 739.5,323.3 364.7,0 617.9,-161.7 800.3,-515.33 121.5,-252.63 192.4,-616.44 192.4,-980.21 0,-454.75 -111.4,-909.48 -314,-1162.11"
         style="fill:#231f20;fill-opacity:1;fill-rule:nonzero;stroke:none"
         transform="matrix(0.13333333,0,0,-0.13333333,0,1728.6667)" />
      <path
         id="path18"
         d="m 10769.4,7997.03 c -151.6,-282.95 -495.2,-485.06 -848.87,-485.06 -353.71,0 -697.31,202.11 -848.9,485.06 -80.83,171.79 -131.38,373.9 -131.38,596.21 v 1849.26 h 454.76 V 8593.24 c 0,-373.9 212.23,-616.42 525.52,-616.42 313.27,0 525.47,242.52 525.47,616.42 v 1849.26 h 454.8 V 8593.24 c 0,-222.31 -50.5,-424.42 -131.4,-596.21"
         style="fill:#231f20;fill-opacity:1;fill-rule:nonzero;stroke:none"
         transform="matrix(0.13333333,0,0,-0.13333333,0,1728.6667)" />
      <path
         id="path19"
         d="M 7838.37,10038.3 V 7562.52 h -456.69 v 2475.78 h -659.75 v 404.2 h 1786.33 v -404.2 h -669.89"
         style="fill:#231f20;fill-opacity:1;fill-rule:nonzero;stroke:none"
         transform="matrix(0.13333333,0,0,-0.13333333,0,1728.6667)" />
      <path
         id="path20"
         d="m 12855.2,9937.25 c -70.7,40.42 -111.1,50.52 -262.7,50.52 h -545.7 V 9280.4 h 545.7 c 141.5,0 192,10.11 262.7,50.52 111.2,60.64 182,181.9 182,303.15 0,121.28 -70.8,242.55 -182,303.18 z m 202.2,-2374.74 -464.9,1253.08 h -545.7 V 7562.51 H 11592 v 2879.99 h 950 c 222.3,0 373.9,-20.2 515.4,-90.9 252.6,-121.3 434.5,-424.45 434.5,-717.53 0,-303.15 -181.9,-606.3 -444.6,-727.58 l 505.3,-1343.98 h -495.2"
         style="fill:#231f20;fill-opacity:1;fill-rule:nonzero;stroke:none"
         transform="matrix(0.13333333,0,0,-0.13333333,0,1728.6667)" />
      <path
         id="path21"
         d="M 23118.8,7562.51 22017.3,9512.82 V 7562.51 h -454.8 v 2879.99 h 454.8 l 1051,-1839.16 v 1839.16 h 454.8 V 7562.51 h -404.3"
         style="fill:#231f20;fill-opacity:1;fill-rule:nonzero;stroke:none"
         transform="matrix(0.13333333,0,0,-0.13333333,0,1728.6667)" />
    </g>
  </g>
</svg>
