<?xml version="1.0" standalone="no"?>
<svg width="5616px" height="2592px" viewBox="0 -1800 5616 2592 " xmlns="http://www.w3.org/2000/svg" xmlns:xlink="http://www.w3.org/1999/xlink">
<title>generated by pstoedit</title>
<!-- generated by pstoedit version:4.02 -->
<g xml:space='preserve'>
<clipPath id="clippath1"> 	<path d="
	M 0 -1800.5 
	L 0 792 
	L 5616.5 792 
	L 5616.5 -1800.5 
	Z 
	" style="clip-rule:nonzero"/>
</clipPath>
<g style="clip-path:url(#clippath1)"> 
<g fill="#ffffff" fill-rule="nonzero" stroke-width="0" stroke-linejoin="miter" stroke-linecap="butt" stroke-miterlimit="10" >
	<path d="
	M 5616.25 629.75 
	C 5616.25 719.219 5543.72 791.75 5454.25 791.75 
	L 162.25 791.75 
	C 72.7813 791.75 0.25 719.219 0.25 629.75 
	L 0.25 -1638.25 
	C 0.25 -1727.72 72.7813 -1800.25 162.25 -1800.25 
	L 5454.25 -1800.25 
	C 5543.72 -1800.25 5616.25 -1727.72 5616.25 -1638.25 
	Z 
	"/>
</g>
<g stroke="#7f7f7f" fill="none" stroke-width="0.5" stroke-linejoin="miter" stroke-linecap="butt" stroke-miterlimit="4" >
	<path d="
	M 5616.25 629.75 
	C 5616.25 719.219 5543.72 791.75 5454.25 791.75 
	L 162.25 791.75 
	C 72.7813 791.75 0.25 719.219 0.25 629.75 
	L 0.25 -1638.25 
	C 0.25 -1727.72 72.7813 -1800.25 162.25 -1800.25 
	L 5454.25 -1800.25 
	C 5543.72 -1800.25 5616.25 -1727.72 5616.25 -1638.25 
	Z 
	"/>
</g>
<g fill="#7f7f7f" fill-rule="nonzero" stroke-width="0" stroke-linejoin="miter" stroke-linecap="butt" stroke-miterlimit="4" >
	<path d="
	M 162.25 746.75 
	C 97.7344 746.75 45.25 694.262 45.25 629.75 
	L 45.25 -1638.25 
	C 45.25 -1702.76 97.7344 -1755.25 162.25 -1755.25 
	L 5454.25 -1755.25 
	C 5518.76 -1755.25 5571.25 -1702.76 5571.25 -1638.25 
	L 5571.25 629.75 
	C 5571.25 694.262 5518.76 746.75 5454.25 746.75 
	Z 
	"/>
</g>
<g fill="#ffffff" fill-rule="nonzero" stroke-width="0" stroke-linejoin="miter" stroke-linecap="butt" stroke-miterlimit="4" >
	<path d="
	M 162.25 683.75 
	C 132.477 683.75 108.25 659.52 108.25 629.75 
	L 108.25 -1638.25 
	C 108.25 -1668.03 132.477 -1692.25 162.25 -1692.25 
	L 5454.25 -1692.25 
	C 5484.03 -1692.25 5508.25 -1668.02 5508.25 -1638.25 
	L 5508.25 629.75 
	C 5508.25 659.52 5484.03 683.75 5454.25 683.75 
	Z 
	"/>
</g>
<g fill="#7f7f7f" fill-rule="nonzero" stroke-width="0" stroke-linejoin="miter" stroke-linecap="butt" stroke-miterlimit="4" >
	<path d="
	M 3038.65 287.75 
	L 3038.65 -288.25 
	L 3130.81 -288.25 
	L 3130.81 287.75 
	Z 
	"/>
</g>
<g fill="#7f7f7f" fill-rule="nonzero" stroke-width="0" stroke-linejoin="miter" stroke-linecap="butt" stroke-miterlimit="4" >
	<path d="
	M 2594.99 287.75 
	L 2594.99 -288.26 
	L 2685.82 -288.26 
	L 2685.82 202.871 
	L 2952.25 202.871 
	L 2952.25 287.75 
	Z 
	"/>
</g>
<g fill="#7f7f7f" fill-rule="nonzero" stroke-width="0" stroke-linejoin="miter" stroke-linecap="butt" stroke-miterlimit="4" >
	<path d="
	M 4478.16 -207.41 
	L 4478.16 287.75 
	L 4386.82 287.75 
	L 4386.82 -207.41 
	L 4254.87 -207.41 
	L 4254.87 -288.25 
	L 4612.13 -288.25 
	L 4612.13 -207.41 
	Z 
	"/>
</g>
<g fill="#7f7f7f" fill-rule="nonzero" stroke-width="0" stroke-linejoin="miter" stroke-linecap="butt" stroke-miterlimit="4" >
	<path d="
	M 4993.73 253.391 
	C 4961.4 281.68 4916.93 297.852 4868.42 297.852 
	C 4769.38 297.852 4696.62 239.238 4658.21 152.34 
	L 4745.13 120 
	C 4769.38 174.57 4813.85 204.879 4868.42 204.879 
	C 4920.97 204.879 4957.35 168.512 4957.35 120 
	C 4957.35 43.199 4868.42 31.078 4793.63 0.762024 
	C 4759.28 -13.391 4682.47 -47.738 4682.47 -142.738 
	C 4682.47 -255.91 4759.28 -298.36 4862.36 -298.36 
	C 4943.2 -298.36 4997.78 -251.87 5026.07 -181.129 
	L 4945.23 -156.879 
	C 4945.23 -156.879 4925.02 -205.391 4860.33 -207.41 
	C 4817.89 -209.43 4767.36 -193.262 4771.4 -140.711 
	C 4779.49 -33.602 5050.33 -104.328 5050.33 122.02 
	C 5050.33 174.57 5030.12 221.051 4993.73 253.391 
	Z 
	"/>
</g>
<g fill="#7f7f7f" fill-rule="nonzero" stroke-width="0" stroke-linejoin="miter" stroke-linecap="butt" stroke-miterlimit="4" >
	<path d="
	M 867.336 287.75 
	L 867.336 37.141 
	L 657.125 37.141 
	L 657.125 287.75 
	L 566.172 287.75 
	L 566.172 -288.25 
	L 657.125 -288.25 
	L 657.125 -55.828 
	L 867.336 -55.828 
	L 867.336 -288.25 
	L 958.285 -288.25 
	L 958.285 287.75 
	Z 
	"/>
</g>
<g fill="#7f7f7f" fill-rule="nonzero" stroke-width="0" stroke-linejoin="miter" stroke-linecap="butt" stroke-miterlimit="4" >
	<path d="
	M 4077.53 287.75 
	L 4077.53 37.141 
	L 3867.32 37.141 
	L 3867.32 287.75 
	L 3776.36 287.75 
	L 3776.36 -288.25 
	L 3867.32 -288.25 
	L 3867.32 -55.828 
	L 4077.53 -55.828 
	L 4077.53 -288.25 
	L 4168.48 -288.25 
	L 4168.48 287.75 
	Z 
	"/>
</g>
<g fill="#7f7f7f" fill-rule="nonzero" stroke-width="0" stroke-linejoin="miter" stroke-linecap="butt" stroke-miterlimit="4" >
	<path d="
	M 2328.8 -173.051 
	C 2314.65 -187.199 2294.44 -197.301 2270.19 -197.301 
	L 2167.11 -197.301 
	L 2167.11 194.781 
	L 2258.06 194.781 
	C 2288.38 194.781 2306.57 188.719 2322.74 172.551 
	C 2357.1 138.191 2375.29 75.539 2375.29 -1.27002 
	C 2375.29 -78.059 2357.1 -142.73 2328.8 -173.051 
	Z 
	M 2367.21 255.422 
	C 2344.97 275.629 2314.65 285.73 2284.34 287.75 
	C 2278.28 287.75 2266.14 287.75 2252 287.75 
	L 2076.15 287.75 
	L 2076.15 -288.25 
	L 2262.1 -288.25 
	C 2320.72 -288.25 2342.95 -282.19 2373.27 -257.93 
	C 2433.91 -205.379 2468.27 -114.441 2468.27 -1.27002 
	C 2468.27 113.941 2431.88 204.891 2367.21 255.422 
	Z 
	"/>
</g>
<g fill="#7f7f7f" fill-rule="nonzero" stroke-width="0" stroke-linejoin="miter" stroke-linecap="butt" stroke-miterlimit="4" >
	<path d="
	M 1096.52 287.75 
	L 1096.52 -288.25 
	L 1435.62 -288.25 
	L 1435.62 -197.301 
	L 1187.35 -197.301 
	L 1187.35 -55.828 
	L 1354.88 -55.828 
	L 1354.88 37.141 
	L 1187.35 37.141 
	L 1187.35 194.781 
	L 1453.79 194.781 
	L 1453.79 287.75 
	Z 
	"/>
</g>
<g fill="#7f7f7f" fill-rule="nonzero" stroke-width="0" stroke-linejoin="miter" stroke-linecap="butt" stroke-miterlimit="4" >
	<path d="
	M 1745.83 -128.59 
	L 1686.88 33.102 
	L 1802.74 33.102 
	Z 
	M 1892.18 287.75 
	L 1835.27 126.07 
	L 1654.36 126.07 
	L 1597.44 287.75 
	L 1499.87 287.75 
	L 1699.07 -288.25 
	L 1790.55 -288.25 
	L 1989.75 287.75 
	Z 
	"/>
</g>
<g fill="#7f7f7f" fill-rule="nonzero" stroke-width="0" stroke-linejoin="miter" stroke-linecap="butt" stroke-miterlimit="4" >
	<path d="
	M 3467.73 297.859 
	C 3380.83 297.859 3330.3 265.52 3295.94 192.762 
	C 3271.68 142.23 3257.53 71.5 3257.53 0.762024 
	C 3257.53 -92.211 3283.81 -183.16 3322.21 -233.68 
	C 3356.57 -276.12 3405.08 -298.35 3469.76 -298.35 
	C 3558.69 -298.35 3611.24 -261.97 3649.64 -171.031 
	L 3562.73 -136.672 
	C 3538.48 -187.199 3514.22 -205.379 3469.76 -205.379 
	C 3423.27 -205.379 3392.95 -185.18 3372.74 -134.648 
	C 3358.59 -100.289 3350.5 -47.738 3350.5 0.762024 
	C 3350.5 61.391 3360.61 122.031 3378.8 158.398 
	C 3396.99 190.738 3423.27 204.891 3457.63 204.891 
	C 3516.24 204.891 3558.69 168.512 3558.69 115.961 
	L 3558.69 91.711 
	L 3453.59 91.711 
	L 3453.59 0.762024 
	L 3649.64 0.762024 
	L 3649.64 115.961 
	C 3649.64 221.059 3572.84 297.859 3467.73 297.859 
	Z 
	"/>
</g>
<g fill="#7f7f7f" fill-rule="nonzero" stroke-width="0" stroke-linejoin="miter" stroke-linecap="butt" stroke-miterlimit="4" >
	<path d="
	M 3910.4 -720.25 
	L 3764.41 -993.09 
	L 3703.59 -918.32 
	L 3703.59 -720.25 
	L 3612.34 -720.25 
	L 3612.34 -1296.25 
	L 3703.59 -1296.25 
	L 3703.59 -1067.88 
	L 3886.07 -1296.25 
	L 4003.67 -1296.25 
	L 3825.24 -1071.91 
	L 4015.83 -720.25 
	Z 
	"/>
</g>
<g fill="#7f7f7f" fill-rule="nonzero" stroke-width="0" stroke-linejoin="miter" stroke-linecap="butt" stroke-miterlimit="4" >
	<path d="
	M 2420.66 -720.25 
	L 2420.66 -970.87 
	L 2210.45 -970.87 
	L 2210.45 -720.25 
	L 2119.5 -720.25 
	L 2119.5 -1296.25 
	L 2210.45 -1296.25 
	L 2210.45 -1063.84 
	L 2420.66 -1063.84 
	L 2420.66 -1296.25 
	L 2511.61 -1296.25 
	L 2511.61 -720.25 
	Z 
	"/>
</g>
<g fill="#7f7f7f" fill-rule="nonzero" stroke-width="0" stroke-linejoin="miter" stroke-linecap="butt" stroke-miterlimit="4" >
	<path d="
	M 2649.85 -720.25 
	L 2649.85 -1296.25 
	L 2988.94 -1296.25 
	L 2988.94 -1205.31 
	L 2740.67 -1205.31 
	L 2740.67 -1063.83 
	L 2908.21 -1063.83 
	L 2908.21 -970.86 
	L 2740.67 -970.86 
	L 2740.67 -813.22 
	L 3007.11 -813.22 
	L 3007.11 -720.25 
	Z 
	"/>
</g>
<g fill="#7f7f7f" fill-rule="nonzero" stroke-width="0" stroke-linejoin="miter" stroke-linecap="butt" stroke-miterlimit="4" >
	<path d="
	M 1818.95 -710.15 
	C 1734.06 -710.15 1679.49 -742.48 1643.11 -813.22 
	C 1616.84 -863.75 1600.67 -936.51 1600.67 -1009.27 
	C 1600.67 -1100.21 1624.92 -1191.16 1665.34 -1241.69 
	C 1699.7 -1284.13 1748.21 -1306.36 1812.89 -1306.36 
	C 1899.8 -1306.36 1954.37 -1269.98 1992.78 -1189.14 
	L 1907.89 -1152.76 
	C 1875.55 -1201.27 1857.36 -1213.39 1812.89 -1213.39 
	C 1766.4 -1213.39 1736.09 -1193.18 1715.87 -1142.65 
	C 1701.73 -1108.3 1693.64 -1057.77 1693.64 -1009.27 
	C 1693.64 -946.61 1707.79 -883.96 1730.02 -847.58 
	C 1750.23 -817.27 1776.51 -803.11 1816.93 -803.11 
	C 1855.34 -803.11 1883.63 -823.33 1905.87 -869.81 
	L 1992.78 -837.47 
	C 1958.42 -752.59 1901.82 -710.15 1818.95 -710.15 
	Z 
	"/>
</g>
<g fill="#7f7f7f" fill-rule="nonzero" stroke-width="0" stroke-linejoin="miter" stroke-linecap="butt" stroke-miterlimit="4" >
	<path d="
	M 3311.8 -710.15 
	C 3226.91 -710.15 3172.34 -742.48 3135.96 -813.22 
	C 3109.68 -863.75 3093.51 -936.51 3093.51 -1009.27 
	C 3093.51 -1100.21 3117.77 -1191.16 3158.19 -1241.69 
	C 3192.55 -1284.13 3241.06 -1306.36 3305.74 -1306.36 
	C 3392.65 -1306.36 3447.22 -1269.98 3485.62 -1189.14 
	L 3400.73 -1152.76 
	C 3368.39 -1201.27 3350.2 -1213.39 3305.74 -1213.39 
	C 3259.25 -1213.39 3228.93 -1193.18 3208.72 -1142.65 
	C 3194.57 -1108.3 3186.49 -1057.77 3186.49 -1009.27 
	C 3186.49 -946.61 3200.63 -883.96 3222.87 -847.58 
	C 3243.08 -817.27 3269.35 -803.11 3309.78 -803.11 
	C 3348.18 -803.11 3376.48 -823.33 3398.71 -869.81 
	L 3485.62 -837.47 
	C 3451.27 -752.59 3394.67 -710.15 3311.8 -710.15 
	Z 
	"/>
</g>
</g >
</g>
</svg>
