<?xml version="1.0" standalone="no"?>
<svg width="3456px" height="4320px" viewBox="0 -3528 3456 4320 " xmlns="http://www.w3.org/2000/svg" xmlns:xlink="http://www.w3.org/1999/xlink">
<title>generated by pstoedit</title>
<!-- generated by pstoedit version:4.02 -->
<g xml:space='preserve'>
<clipPath id="clippath1"> 	<path d="
	M 0 -3528.5 
	L 0 792 
	L 3456.5 792 
	L 3456.5 -3528.5 
	Z 
	" style="clip-rule:nonzero"/>
</clipPath>
<g style="clip-path:url(#clippath1)"> 
<g fill="#ffffff" fill-rule="nonzero" stroke-width="0" stroke-linejoin="miter" stroke-linecap="butt" stroke-miterlimit="10" >
	<path d="
	M 3456.25 575.75 
	C 3456.25 695.039 3359.54 791.75 3240.25 791.75 
	L 216.25 791.75 
	C 96.957 791.75 0.25 695.039 0.25 575.75 
	L 0.25 -3312.25 
	C 0.25 -3431.54 96.957 -3528.25 216.25 -3528.25 
	L 3240.25 -3528.25 
	C 3359.54 -3528.25 3456.25 -3431.54 3456.25 -3312.25 
	Z 
	"/>
</g>
<g stroke="#7f7f7f" fill="none" stroke-width="0.5" stroke-linejoin="miter" stroke-linecap="butt" stroke-miterlimit="4" >
	<path d="
	M 3456.25 575.75 
	C 3456.25 695.039 3359.54 791.75 3240.25 791.75 
	L 216.25 791.75 
	C 96.957 791.75 0.25 695.039 0.25 575.75 
	L 0.25 -3312.25 
	C 0.25 -3431.54 96.957 -3528.25 216.25 -3528.25 
	L 3240.25 -3528.25 
	C 3359.54 -3528.25 3456.25 -3431.54 3456.25 -3312.25 
	Z 
	"/>
</g>
<g fill="#7f7f7f" fill-rule="nonzero" stroke-width="0" stroke-linejoin="miter" stroke-linecap="butt" stroke-miterlimit="4" >
	<path d="
	M 216.25 737.75 
	C 126.922 737.75 54.25 665.082 54.25 575.75 
	L 54.25 -3312.25 
	C 54.25 -3401.58 126.922 -3474.25 216.25 -3474.25 
	L 3240.25 -3474.25 
	C 3329.58 -3474.25 3402.25 -3401.58 3402.25 -3312.25 
	L 3402.25 575.75 
	C 3402.25 665.082 3329.58 737.75 3240.25 737.75 
	Z 
	"/>
</g>
<g fill="#ffffff" fill-rule="nonzero" stroke-width="0" stroke-linejoin="miter" stroke-linecap="butt" stroke-miterlimit="4" >
	<path d="
	M 216.25 647.75 
	C 176.551 647.75 144.25 615.449 144.25 575.75 
	L 144.25 -3312.25 
	C 144.25 -3351.95 176.551 -3384.25 216.25 -3384.25 
	L 3240.25 -3384.25 
	C 3279.95 -3384.25 3312.25 -3351.95 3312.25 -3312.25 
	L 3312.25 575.75 
	C 3312.25 615.449 3279.95 647.75 3240.25 647.75 
	Z 
	"/>
</g>
<g fill="#7f7f7f" fill-rule="nonzero" stroke-width="0" stroke-linejoin="miter" stroke-linecap="butt" stroke-miterlimit="4" >
	<path d="
	M 1552.1 -2554.98 
	C 1529.78 -2504.46 1483.1 -2474.14 1424.24 -2474.14 
	C 1355.24 -2474.14 1304.5 -2508.5 1276.08 -2573.18 
	C 1257.82 -2615.62 1245.64 -2696.46 1245.64 -2771.24 
	C 1245.64 -2852.08 1251.73 -2910.69 1272.02 -2965.26 
	C 1292.32 -3025.89 1351.18 -3070.36 1418.15 -3070.36 
	C 1501.36 -3070.36 1564.28 -3009.72 1568.34 -2924.84 
	L 1485.13 -2924.84 
	C 1483.1 -2963.24 1456.72 -2989.52 1416.12 -2989.52 
	C 1387.71 -2989.52 1365.38 -2975.37 1351.18 -2947.07 
	C 1334.94 -2918.78 1324.79 -2854.1 1324.79 -2785.39 
	C 1324.79 -2736.88 1328.85 -2686.36 1336.97 -2641.89 
	C 1349.15 -2585.3 1377.56 -2554.98 1422.21 -2554.98 
	C 1464.83 -2554.98 1485.13 -2583.28 1485.13 -2643.91 
	L 1485.13 -2682.31 
	L 1420.18 -2682.31 
	L 1420.18 -2763.16 
	L 1568.34 -2763.16 
	L 1568.34 -2643.91 
	C 1568.34 -2603.49 1564.28 -2579.24 1552.1 -2554.98 
	Z 
	"/>
</g>
<g fill="#7f7f7f" fill-rule="nonzero" stroke-width="0" stroke-linejoin="miter" stroke-linecap="butt" stroke-miterlimit="4" >
	<path d="
	M 1981.15 -2484.25 
	L 1981.15 -2744.96 
	L 1823.83 -2744.96 
	L 1823.83 -2484.25 
	L 1741.14 -2484.25 
	L 1741.14 -3060.25 
	L 1823.83 -3060.25 
	L 1823.83 -2825.81 
	L 1981.15 -2825.81 
	L 1981.15 -3060.25 
	L 2063.84 -3060.25 
	L 2063.84 -2484.25 
	Z 
	"/>
</g>
<g fill="#7f7f7f" fill-rule="nonzero" stroke-width="0" stroke-linejoin="miter" stroke-linecap="butt" stroke-miterlimit="4" >
	<path d="
	M 577.332 -2484.25 
	L 577.332 -3060.25 
	L 660.438 -3060.25 
	L 660.438 -2561.05 
	L 871.234 -2561.05 
	L 871.234 -2484.25 
	Z 
	"/>
</g>
<g fill="#7f7f7f" fill-rule="nonzero" stroke-width="0" stroke-linejoin="miter" stroke-linecap="butt" stroke-miterlimit="4" >
	<path d="
	M 992.199 -2484.25 
	L 992.199 -3060.25 
	L 1072.84 -3060.25 
	L 1072.84 -2484.25 
	Z 
	"/>
</g>
<g fill="#7f7f7f" fill-rule="nonzero" stroke-width="0" stroke-linejoin="miter" stroke-linecap="butt" stroke-miterlimit="4" >
	<path d="
	M 2720.48 -2750.25 
	C 2695.56 -2766.4 2671.36 -2782.6 2655.91 -2793.47 
	C 2609.47 -2826.16 2584.88 -2870.27 2584.88 -2920.8 
	C 2584.88 -3003.66 2649.82 -3070.36 2733.04 -3070.36 
	C 2814.22 -3070.36 2877.14 -3007.7 2879.17 -2920.8 
	L 2800.01 -2920.8 
	C 2797.99 -2961.22 2769.57 -2987.49 2733.04 -2987.49 
	C 2694.47 -2987.49 2664.03 -2959.2 2664.03 -2920.8 
	C 2664.03 -2892.5 2676.21 -2876.34 2718.83 -2852.08 
	C 2830.46 -2787.41 2879.17 -2724.75 2879.17 -2641.89 
	C 2879.17 -2548.92 2808.13 -2474.14 2718.83 -2474.14 
	C 2617.35 -2474.14 2556.46 -2559.03 2556.46 -2654.02 
	L 2637.65 -2654.02 
	C 2637.65 -2605.51 2662 -2554.98 2718.83 -2554.98 
	C 2763.48 -2554.98 2800.01 -2595.41 2800.01 -2641.89 
	C 2800.01 -2677.98 2785.1 -2708.39 2720.48 -2750.25 
	Z 
	"/>
</g>
<g fill="#7f7f7f" fill-rule="nonzero" stroke-width="0" stroke-linejoin="miter" stroke-linecap="butt" stroke-miterlimit="4" >
	<path d="
	M 2373.3 -2983.45 
	L 2373.3 -2484.25 
	L 2290.2 -2484.25 
	L 2290.2 -2983.45 
	L 2184.8 -2983.45 
	L 2184.8 -3060.25 
	L 2478.71 -3060.25 
	L 2478.71 -2983.45 
	Z 
	"/>
</g>
<g fill="#7f7f7f" fill-rule="nonzero" stroke-width="0" stroke-linejoin="miter" stroke-linecap="butt" stroke-miterlimit="4" >
	<path d="
	M 2083.47 -1548.25 
	L 1905.98 -1934.27 
	L 1905.98 -1548.25 
	L 1823.29 -1548.25 
	L 1823.29 -2124.25 
	L 1905.98 -2124.25 
	L 2063.3 -1778.65 
	L 2063.3 -2124.25 
	L 2145.99 -2124.25 
	L 2145.99 -1548.25 
	Z 
	"/>
</g>
<g fill="#7f7f7f" fill-rule="nonzero" stroke-width="0" stroke-linejoin="miter" stroke-linecap="butt" stroke-miterlimit="4" >
	<path d="
	M 1552.77 -1980.75 
	C 1538.52 -2031.28 1516.13 -2053.51 1481.52 -2053.51 
	C 1444.87 -2053.51 1422.48 -2031.28 1408.23 -1982.78 
	C 1393.97 -1938.31 1389.9 -1899.91 1389.9 -1835.24 
	C 1389.9 -1772.59 1396.01 -1736.21 1408.23 -1689.72 
	C 1422.48 -1641.22 1444.87 -1618.99 1481.52 -1618.99 
	C 1516.13 -1618.99 1538.52 -1641.22 1552.77 -1689.72 
	C 1567.02 -1736.21 1571.09 -1770.56 1571.09 -1837.26 
	C 1571.09 -1901.93 1564.98 -1938.31 1552.77 -1980.75 
	Z 
	M 1617.92 -1637.18 
	C 1589.41 -1568.46 1546.66 -1538.14 1481.52 -1538.14 
	C 1412.3 -1538.14 1371.58 -1568.46 1343.08 -1637.18 
	C 1318.65 -1693.76 1310.51 -1748.33 1310.51 -1837.26 
	C 1310.51 -1924.17 1318.65 -1982.78 1343.08 -2037.34 
	C 1373.62 -2106.06 1414.33 -2134.35 1481.52 -2134.35 
	C 1548.7 -2134.35 1589.41 -2106.06 1617.92 -2035.32 
	C 1642.35 -1978.73 1650.49 -1924.17 1650.49 -1837.26 
	C 1650.49 -1748.33 1642.35 -1691.74 1617.92 -1637.18 
	Z 
	"/>
</g>
<g fill="#7f7f7f" fill-rule="nonzero" stroke-width="0" stroke-linejoin="miter" stroke-linecap="butt" stroke-miterlimit="4" >
	<path d="
	M 929.758 -80.461 
	L 889.23 85.27 
	L 972.309 85.27 
	Z 
	M 1033.1 323.75 
	L 992.57 166.109 
	L 868.969 166.109 
	L 830.469 323.75 
	L 747.391 323.75 
	L 891.258 -252.25 
	L 972.309 -252.25 
	L 1116.17 323.75 
	Z 
	"/>
</g>
<g fill="#7f7f7f" fill-rule="nonzero" stroke-width="0" stroke-linejoin="miter" stroke-linecap="butt" stroke-miterlimit="4" >
	<path d="
	M 3093.34 253.012 
	C 3071.01 303.539 3024.33 333.859 2965.47 333.859 
	C 2896.47 333.859 2845.73 299.5 2817.31 234.82 
	C 2799.05 192.379 2786.87 111.539 2786.87 36.762 
	C 2786.87 -44.078 2792.96 -102.691 2813.25 -157.262 
	C 2833.55 -217.89 2892.41 -262.36 2959.38 -262.36 
	C 3042.6 -262.36 3105.51 -201.719 3109.57 -116.84 
	L 3026.36 -116.84 
	C 3024.33 -155.238 2997.95 -181.512 2957.35 -181.512 
	C 2928.94 -181.512 2906.61 -167.371 2892.41 -139.07 
	C 2876.17 -110.781 2866.02 -46.102 2866.02 22.609 
	C 2866.02 71.121 2870.08 121.641 2878.2 166.109 
	C 2890.38 222.699 2918.79 253.012 2963.44 253.012 
	C 3006.06 253.012 3026.36 224.719 3026.36 164.09 
	L 3026.36 125.691 
	L 2961.41 125.691 
	L 2961.41 44.84 
	L 3109.57 44.84 
	L 3109.57 164.09 
	C 3109.57 204.512 3105.51 228.762 3093.34 253.012 
	Z 
	"/>
</g>
<g fill="#7f7f7f" fill-rule="nonzero" stroke-width="0" stroke-linejoin="miter" stroke-linecap="butt" stroke-miterlimit="4" >
	<path d="
	M 2551.54 323.75 
	L 2374.05 -62.27 
	L 2374.05 323.75 
	L 2291.37 323.75 
	L 2291.37 -252.25 
	L 2374.05 -252.25 
	L 2531.38 93.352 
	L 2531.38 -252.25 
	L 2614.07 -252.25 
	L 2614.07 323.75 
	Z 
	"/>
</g>
<g fill="#7f7f7f" fill-rule="nonzero" stroke-width="0" stroke-linejoin="miter" stroke-linecap="butt" stroke-miterlimit="4" >
	<path d="
	M 1768.04 323.75 
	L 1590.55 -62.27 
	L 1590.55 323.75 
	L 1507.86 323.75 
	L 1507.86 -252.25 
	L 1590.55 -252.25 
	L 1747.87 93.352 
	L 1747.87 -252.25 
	L 1830.56 -252.25 
	L 1830.56 323.75 
	Z 
	"/>
</g>
<g fill="#7f7f7f" fill-rule="nonzero" stroke-width="0" stroke-linejoin="miter" stroke-linecap="butt" stroke-miterlimit="4" >
	<path d="
	M 1237.14 323.75 
	L 1237.14 -252.25 
	L 1317.78 -252.25 
	L 1317.78 323.75 
	Z 
	"/>
</g>
<g fill="#7f7f7f" fill-rule="nonzero" stroke-width="0" stroke-linejoin="miter" stroke-linecap="butt" stroke-miterlimit="4" >
	<path d="
	M 2020.64 323.75 
	L 2020.64 -252.25 
	L 2101.28 -252.25 
	L 2101.28 323.75 
	Z 
	"/>
</g>
<g fill="#7f7f7f" fill-rule="nonzero" stroke-width="0" stroke-linejoin="miter" stroke-linecap="butt" stroke-miterlimit="4" >
	<path d="
	M 514.332 -171.41 
	L 429.621 -171.41 
	L 429.621 -25.891 
	L 514.332 -25.891 
	C 562.738 -25.891 588.957 -52.168 588.957 -98.648 
	C 588.957 -143.109 558.703 -171.41 514.332 -171.41 
	Z 
	M 584.922 323.75 
	L 508.277 52.93 
	L 429.621 52.93 
	L 429.621 323.75 
	L 346.93 323.75 
	L 346.93 -252.25 
	L 518.363 -252.25 
	C 609.125 -252.25 669.633 -191.621 669.633 -98.648 
	C 669.633 -29.941 641.395 20.59 586.938 40.801 
	L 669.633 323.75 
	Z 
	"/>
</g>
<g fill="#7f7f7f" fill-rule="nonzero" stroke-width="0" stroke-linejoin="miter" stroke-linecap="butt" stroke-miterlimit="4" >
	<path d="
	M 1882.4 -612.25 
	L 1882.4 -1188.25 
	L 2154.01 -1188.25 
	L 2154.01 -1107.41 
	L 1965.5 -1107.41 
	L 1965.5 -961.89 
	L 2085.09 -961.89 
	L 2085.09 -883.07 
	L 1965.5 -883.07 
	L 1965.5 -693.09 
	L 2176.3 -693.09 
	L 2176.3 -612.25 
	Z 
	"/>
</g>
<g fill="#7f7f7f" fill-rule="nonzero" stroke-width="0" stroke-linejoin="miter" stroke-linecap="butt" stroke-miterlimit="4" >
	<path d="
	M 1609.63 -612.25 
	L 1609.63 -872.97 
	L 1452.31 -872.97 
	L 1452.31 -612.25 
	L 1369.62 -612.25 
	L 1369.62 -1188.25 
	L 1452.31 -1188.25 
	L 1452.31 -953.81 
	L 1609.63 -953.81 
	L 1609.63 -1188.25 
	L 1692.32 -1188.25 
	L 1692.32 -612.25 
	Z 
	"/>
</g>
<g fill="#7f7f7f" fill-rule="nonzero" stroke-width="0" stroke-linejoin="miter" stroke-linecap="butt" stroke-miterlimit="4" >
	<path d="
	M 2583.37 -612.25 
	L 2405.88 -998.27 
	L 2405.88 -612.25 
	L 2323.19 -612.25 
	L 2323.19 -1188.25 
	L 2405.88 -1188.25 
	L 2563.2 -842.65 
	L 2563.2 -1188.25 
	L 2645.89 -1188.25 
	L 2645.89 -612.25 
	Z 
	"/>
</g>
<g fill="#7f7f7f" fill-rule="nonzero" stroke-width="0" stroke-linejoin="miter" stroke-linecap="butt" stroke-miterlimit="4" >
	<path d="
	M 1155.37 -612.25 
	L 1084.39 -612.25 
	L 1029.63 -913.39 
	L 974.879 -612.25 
	L 901.871 -612.25 
	L 810.609 -1188.25 
	L 891.73 -1188.25 
	L 940.402 -881.05 
	L 997.188 -1188.25 
	L 1062.08 -1188.25 
	L 1116.84 -881.05 
	L 1167.54 -1188.25 
	L 1248.66 -1188.25 
	Z 
	"/>
</g>
</g >
</g>
</svg>
