<?xml version="1.0" standalone="no"?>
<svg width="6912px" height="2160px" viewBox="0 -1368 6912 2160 " xmlns="http://www.w3.org/2000/svg" xmlns:xlink="http://www.w3.org/1999/xlink">
<title>generated by pstoedit</title>
<!-- generated by pstoedit version:4.02 -->
<g xml:space='preserve'>
<clipPath id="clippath1"> 	<path d="
	M 0 -1368.5 
	L 0 792 
	L 6912.5 792 
	L 6912.5 -1368.5 
	Z 
	" style="clip-rule:nonzero"/>
</clipPath>
<g style="clip-path:url(#clippath1)"> 
<g fill="#ffffff" fill-rule="nonzero" stroke-width="0" stroke-linejoin="miter" stroke-linecap="butt" stroke-miterlimit="10" >
	<path d="
	M 6912.25 656.75 
	C 6912.25 731.309 6851.81 791.75 6777.25 791.75 
	L 135.25 791.75 
	C 60.6914 791.75 0.25 731.309 0.25 656.75 
	L 0.25 -1233.25 
	C 0.25 -1307.81 60.6914 -1368.25 135.25 -1368.25 
	L 6777.25 -1368.25 
	C 6851.81 -1368.25 6912.25 -1307.81 6912.25 -1233.25 
	Z 
	"/>
</g>
<g stroke="#7f7f7f" fill="none" stroke-width="0.5" stroke-linejoin="miter" stroke-linecap="butt" stroke-miterlimit="4" >
	<path d="
	M 6912.25 656.75 
	C 6912.25 731.309 6851.81 791.75 6777.25 791.75 
	L 135.25 791.75 
	C 60.6914 791.75 0.25 731.309 0.25 656.75 
	L 0.25 -1233.25 
	C 0.25 -1307.81 60.6914 -1368.25 135.25 -1368.25 
	L 6777.25 -1368.25 
	C 6851.81 -1368.25 6912.25 -1307.81 6912.25 -1233.25 
	Z 
	"/>
</g>
<g fill="#7f7f7f" fill-rule="nonzero" stroke-width="0" stroke-linejoin="miter" stroke-linecap="butt" stroke-miterlimit="4" >
	<path d="
	M 135.25 755.75 
	C 80.6602 755.75 36.25 711.34 36.25 656.75 
	L 36.25 -1233.25 
	C 36.25 -1287.84 80.6602 -1332.25 135.25 -1332.25 
	L 6777.25 -1332.25 
	C 6831.84 -1332.25 6876.25 -1287.84 6876.25 -1233.25 
	L 6876.25 656.75 
	C 6876.25 711.34 6831.84 755.75 6777.25 755.75 
	Z 
	"/>
</g>
<g fill="#ffffff" fill-rule="nonzero" stroke-width="0" stroke-linejoin="miter" stroke-linecap="butt" stroke-miterlimit="4" >
	<path d="
	M 135.25 701.75 
	C 110.438 701.75 90.25 681.559 90.25 656.75 
	L 90.25 -1233.25 
	C 90.25 -1258.06 110.438 -1278.25 135.25 -1278.25 
	L 6777.25 -1278.25 
	C 6802.06 -1278.25 6822.25 -1258.06 6822.25 -1233.25 
	L 6822.25 656.75 
	C 6822.25 681.559 6802.06 701.75 6777.25 701.75 
	Z 
	"/>
</g>
<g fill="#7f7f7f" fill-rule="nonzero" stroke-width="0" stroke-linejoin="miter" stroke-linecap="butt" stroke-miterlimit="4" >
	<path d="
	M 6250.59 323.75 
	L 6085.36 31.199 
	L 6085.36 323.75 
	L 6017.14 323.75 
	L 6017.14 -108.25 
	L 6085.36 -108.25 
	L 6243.01 167.629 
	L 6243.01 -108.25 
	L 6311.22 -108.25 
	L 6311.22 323.75 
	Z 
	"/>
</g>
<g fill="#7f7f7f" fill-rule="nonzero" stroke-width="0" stroke-linejoin="miter" stroke-linecap="butt" stroke-miterlimit="4" >
	<path d="
	M 5827.89 -12.75 
	C 5814.22 -35.488 5797.5 -44.578 5771.67 -46.102 
	C 5738.24 -47.621 5716.97 -30.941 5701.77 6.94897 
	C 5691.14 32.719 5685.06 72.129 5685.06 108.512 
	C 5685.06 153.98 5694.18 200.969 5710.89 228.262 
	C 5724.57 250.988 5742.8 261.609 5770.15 261.609 
	C 5802.06 261.609 5821.81 244.93 5837.01 207.039 
	C 5846.13 184.301 5853.72 141.859 5853.72 108.512 
	C 5853.72 60 5844.61 16.051 5827.89 -12.75 
	Z 
	M 5875 282.828 
	C 5850.68 316.172 5815.74 331.328 5770.15 331.328 
	C 5709.37 331.328 5671.38 307.078 5645.55 254.031 
	C 5627.32 217.648 5615.17 160.051 5615.17 108.512 
	C 5615.17 37.27 5633.4 -26.391 5662.27 -67.32 
	C 5688.1 -100.672 5723.05 -115.828 5773.19 -115.828 
	C 5827.89 -115.828 5865.88 -91.57 5893.23 -38.52 
	C 5911.46 -0.629028 5922.1 53.941 5922.1 108.512 
	C 5922.1 176.719 5905.39 244.93 5875 282.828 
	Z 
	"/>
</g>
<g fill="#7f7f7f" fill-rule="nonzero" stroke-width="0" stroke-linejoin="miter" stroke-linecap="butt" stroke-miterlimit="4" >
	<path d="
	M 4319.38 297.98 
	C 4295.13 319.199 4261.78 331.328 4225.4 331.328 
	C 4151.12 331.328 4096.55 287.371 4067.74 222.191 
	L 4132.93 197.941 
	C 4151.12 238.871 4184.47 261.602 4225.4 261.602 
	C 4264.81 261.602 4292.1 234.32 4292.1 197.941 
	C 4292.1 140.34 4225.4 131.25 4169.31 108.512 
	C 4143.54 97.898 4085.93 72.129 4085.93 0.890991 
	C 4085.93 -84 4143.54 -115.828 4220.85 -115.828 
	C 4281.49 -115.828 4322.42 -80.961 4343.64 -27.91 
	L 4283 -9.71899 
	C 4283 -9.71899 4267.84 -46.102 4219.33 -47.621 
	C 4187.5 -49.129 4149.6 -37.012 4152.63 2.40997 
	C 4158.7 82.738 4361.83 29.691 4361.83 199.461 
	C 4361.83 238.871 4346.67 273.73 4319.38 297.98 
	Z 
	"/>
</g>
<g fill="#7f7f7f" fill-rule="nonzero" stroke-width="0" stroke-linejoin="miter" stroke-linecap="butt" stroke-miterlimit="4" >
	<path d="
	M 4435.26 323.75 
	L 4435.26 -108.25 
	L 4689.59 -108.25 
	L 4689.59 -40.039 
	L 4503.39 -40.039 
	L 4503.39 66.07 
	L 4629.04 66.07 
	L 4629.04 135.789 
	L 4503.39 135.789 
	L 4503.39 254.02 
	L 4703.22 254.02 
	L 4703.22 323.75 
	Z 
	"/>
</g>
<g fill="#7f7f7f" fill-rule="nonzero" stroke-width="0" stroke-linejoin="miter" stroke-linecap="butt" stroke-miterlimit="4" >
	<path d="
	M 4931.73 331.328 
	C 4868.06 331.328 4827.13 307.078 4799.85 254.02 
	C 4780.14 216.129 4768.01 161.559 4768.01 106.988 
	C 4768.01 38.781 4786.2 -29.43 4816.52 -67.32 
	C 4842.29 -99.16 4878.67 -115.828 4927.18 -115.828 
	C 4992.37 -115.828 5033.29 -88.539 5062.1 -27.91 
	L 4998.43 -0.629028 
	C 4974.17 -37.012 4960.53 -46.102 4927.18 -46.102 
	C 4892.32 -46.102 4869.58 -30.941 4854.42 6.94897 
	C 4843.81 32.719 4837.74 70.609 4837.74 106.988 
	C 4837.74 153.98 4848.36 200.969 4865.03 228.262 
	C 4880.19 250.988 4899.9 261.609 4930.22 261.609 
	C 4959.02 261.609 4980.24 246.449 4996.92 211.578 
	L 5062.1 235.84 
	C 5036.33 299.5 4993.88 331.328 4931.73 331.328 
	Z 
	"/>
</g>
<g fill="#7f7f7f" fill-rule="nonzero" stroke-width="0" stroke-linejoin="miter" stroke-linecap="butt" stroke-miterlimit="4" >
	<path d="
	M 5451 323.75 
	L 5451 -108.25 
	L 5520.13 -108.25 
	L 5520.13 323.75 
	Z 
	"/>
</g>
<g fill="#7f7f7f" fill-rule="nonzero" stroke-width="0" stroke-linejoin="miter" stroke-linecap="butt" stroke-miterlimit="4" >
	<path d="
	M 5285.72 -47.621 
	L 5285.72 323.75 
	L 5217.22 323.75 
	L 5217.22 -47.621 
	L 5118.26 -47.621 
	L 5118.26 -108.25 
	L 5386.2 -108.25 
	L 5386.2 -47.621 
	Z 
	"/>
</g>
<g fill="#7f7f7f" fill-rule="nonzero" stroke-width="0" stroke-linejoin="miter" stroke-linecap="butt" stroke-miterlimit="4" >
	<path d="
	M 827.148 323.75 
	L 827.148 135.789 
	L 669.492 135.789 
	L 669.492 323.75 
	L 601.277 323.75 
	L 601.277 -108.25 
	L 669.492 -108.25 
	L 669.492 66.07 
	L 827.148 66.07 
	L 827.148 -108.25 
	L 895.363 -108.25 
	L 895.363 323.75 
	Z 
	"/>
</g>
<g fill="#7f7f7f" fill-rule="nonzero" stroke-width="0" stroke-linejoin="miter" stroke-linecap="butt" stroke-miterlimit="4" >
	<path d="
	M 1923.25 -21.852 
	C 1912.64 -32.461 1897.48 -40.039 1879.28 -40.039 
	L 1801.97 -40.039 
	L 1801.97 254.02 
	L 1870.19 254.02 
	C 1892.93 254.02 1906.57 249.48 1918.7 237.352 
	C 1944.47 211.578 1958.11 164.59 1958.11 106.988 
	C 1958.11 49.391 1944.47 0.890991 1923.25 -21.852 
	Z 
	M 1952.05 299.5 
	C 1935.37 314.66 1912.64 322.238 1889.9 323.75 
	C 1885.35 323.75 1876.25 323.75 1865.64 323.75 
	L 1733.76 323.75 
	L 1733.76 -108.25 
	L 1873.22 -108.25 
	C 1917.18 -108.25 1933.86 -103.699 1956.6 -85.512 
	C 2002.08 -46.102 2027.84 22.109 2027.84 106.988 
	C 2027.84 193.391 2000.56 261.609 1952.05 299.5 
	Z 
	"/>
</g>
<g fill="#7f7f7f" fill-rule="nonzero" stroke-width="0" stroke-linejoin="miter" stroke-linecap="butt" stroke-miterlimit="4" >
	<path d="
	M 999.035 323.75 
	L 999.035 -108.25 
	L 1253.36 -108.25 
	L 1253.36 -40.039 
	L 1067.16 -40.039 
	L 1067.16 66.07 
	L 1192.81 66.07 
	L 1192.81 135.789 
	L 1067.16 135.789 
	L 1067.16 254.02 
	L 1266.99 254.02 
	L 1266.99 323.75 
	Z 
	"/>
</g>
<g fill="#7f7f7f" fill-rule="nonzero" stroke-width="0" stroke-linejoin="miter" stroke-linecap="butt" stroke-miterlimit="4" >
	<path d="
	M 1486.01 11.5 
	L 1441.8 132.762 
	L 1528.7 132.762 
	Z 
	M 1595.78 323.75 
	L 1553.09 202.488 
	L 1417.41 202.488 
	L 1374.72 323.75 
	L 1301.55 323.75 
	L 1450.95 -108.25 
	L 1519.56 -108.25 
	L 1668.96 323.75 
	Z 
	"/>
</g>
<g fill="#7f7f7f" fill-rule="nonzero" stroke-width="0" stroke-linejoin="miter" stroke-linecap="butt" stroke-miterlimit="4" >
	<path d="
	M 2455.63 323.75 
	L 2455.63 -108.25 
	L 2524.75 -108.25 
	L 2524.75 323.75 
	Z 
	"/>
</g>
<g fill="#7f7f7f" fill-rule="nonzero" stroke-width="0" stroke-linejoin="miter" stroke-linecap="butt" stroke-miterlimit="4" >
	<path d="
	M 2122.89 323.75 
	L 2122.89 -108.25 
	L 2191.01 -108.25 
	L 2191.01 260.09 
	L 2390.83 260.09 
	L 2390.83 323.75 
	Z 
	"/>
</g>
<g fill="#7f7f7f" fill-rule="nonzero" stroke-width="0" stroke-linejoin="miter" stroke-linecap="butt" stroke-miterlimit="4" >
	<path d="
	M 3535.26 -47.621 
	L 3535.26 323.75 
	L 3466.76 323.75 
	L 3466.76 -47.621 
	L 3367.8 -47.621 
	L 3367.8 -108.25 
	L 3635.74 -108.25 
	L 3635.74 -47.621 
	Z 
	"/>
</g>
<g fill="#7f7f7f" fill-rule="nonzero" stroke-width="0" stroke-linejoin="miter" stroke-linecap="butt" stroke-miterlimit="4" >
	<path d="
	M 3234.79 323.75 
	L 3234.79 135.789 
	L 3077.13 135.789 
	L 3077.13 323.75 
	L 3008.92 323.75 
	L 3008.92 -108.25 
	L 3077.13 -108.25 
	L 3077.13 66.07 
	L 3234.79 66.07 
	L 3234.79 -108.25 
	L 3303 -108.25 
	L 3303 323.75 
	Z 
	"/>
</g>
<g fill="#7f7f7f" fill-rule="nonzero" stroke-width="0" stroke-linejoin="miter" stroke-linecap="butt" stroke-miterlimit="4" >
	<path d="
	M 2777.44 331.328 
	C 2712.26 331.328 2674.37 307.078 2648.6 252.512 
	C 2630.41 214.609 2619.79 161.559 2619.79 108.512 
	C 2619.79 38.781 2639.5 -29.43 2668.3 -67.32 
	C 2694.07 -99.16 2730.45 -115.828 2778.96 -115.828 
	C 2845.66 -115.828 2885.08 -88.539 2913.87 -20.328 
	L 2848.69 5.42999 
	C 2830.5 -32.461 2812.31 -46.102 2778.96 -46.102 
	C 2744.1 -46.102 2721.36 -30.941 2706.2 6.94897 
	C 2695.59 32.719 2689.52 72.129 2689.52 108.512 
	C 2689.52 153.98 2697.1 199.461 2710.75 226.738 
	C 2724.39 250.988 2744.1 261.609 2769.87 261.609 
	C 2813.83 261.609 2845.66 234.32 2845.66 194.91 
	L 2845.66 176.719 
	L 2766.83 176.719 
	L 2766.83 108.512 
	L 2913.87 108.512 
	L 2913.87 194.91 
	C 2913.87 273.73 2856.28 331.328 2777.44 331.328 
	Z 
	"/>
</g>
<g fill="#7f7f7f" fill-rule="nonzero" stroke-width="0" stroke-linejoin="miter" stroke-linecap="butt" stroke-miterlimit="4" >
	<path d="
	M 3975.56 -656.21 
	L 3975.56 -468.25 
	L 3907 -468.25 
	L 3907 -656.21 
	L 3754.65 -900.25 
	L 3836.92 -900.25 
	L 3940.52 -733.52 
	L 4045.64 -900.25 
	L 4126.39 -900.25 
	Z 
	"/>
</g>
<g fill="#7f7f7f" fill-rule="nonzero" stroke-width="0" stroke-linejoin="miter" stroke-linecap="butt" stroke-miterlimit="4" >
	<path d="
	M 3200.56 -813.85 
	C 3189.95 -824.46 3174.79 -832.04 3156.59 -832.04 
	L 3079.28 -832.04 
	L 3079.28 -537.98 
	L 3147.5 -537.98 
	C 3170.24 -537.98 3183.88 -542.52 3196.01 -554.65 
	C 3221.78 -580.42 3235.42 -627.41 3235.42 -685.01 
	C 3235.42 -742.61 3221.78 -791.11 3200.56 -813.85 
	Z 
	M 3229.36 -492.5 
	C 3212.68 -477.34 3189.95 -469.77 3167.21 -468.25 
	C 3162.66 -468.25 3153.56 -468.25 3142.95 -468.25 
	L 3011.07 -468.25 
	L 3011.07 -900.25 
	L 3150.53 -900.25 
	C 3194.49 -900.25 3211.17 -895.7 3233.91 -877.52 
	C 3279.39 -838.11 3305.15 -769.89 3305.15 -685.01 
	C 3305.15 -598.61 3277.87 -530.4 3229.36 -492.5 
	Z 
	"/>
</g>
<g fill="#7f7f7f" fill-rule="nonzero" stroke-width="0" stroke-linejoin="miter" stroke-linecap="butt" stroke-miterlimit="4" >
	<path d="
	M 5098.71 -468.25 
	L 5098.71 -900.25 
	L 5353.04 -900.25 
	L 5353.04 -832.04 
	L 5166.84 -832.04 
	L 5166.84 -725.94 
	L 5292.49 -725.94 
	L 5292.49 -656.21 
	L 5166.84 -656.21 
	L 5166.84 -537.98 
	L 5366.67 -537.98 
	L 5366.67 -468.25 
	Z 
	"/>
</g>
<g fill="#7f7f7f" fill-rule="nonzero" stroke-width="0" stroke-linejoin="miter" stroke-linecap="butt" stroke-miterlimit="4" >
	<path d="
	M 3545.78 -780.5 
	L 3501.57 -659.24 
	L 3588.47 -659.24 
	Z 
	M 3655.55 -468.25 
	L 3612.86 -589.51 
	L 3477.18 -589.51 
	L 3434.49 -468.25 
	L 3361.32 -468.25 
	L 3510.72 -900.25 
	L 3579.33 -900.25 
	L 3728.73 -468.25 
	Z 
	"/>
</g>
<g fill="#7f7f7f" fill-rule="nonzero" stroke-width="0" stroke-linejoin="miter" stroke-linecap="butt" stroke-miterlimit="4" >
	<path d="
	M 4485.06 -468.25 
	L 4485.06 -900.25 
	L 4554.18 -900.25 
	L 4554.18 -468.25 
	Z 
	"/>
</g>
<g fill="#7f7f7f" fill-rule="nonzero" stroke-width="0" stroke-linejoin="miter" stroke-linecap="butt" stroke-miterlimit="4" >
	<path d="
	M 4319.78 -839.62 
	L 4319.78 -468.25 
	L 4251.27 -468.25 
	L 4251.27 -839.62 
	L 4152.31 -839.62 
	L 4152.31 -900.25 
	L 4420.26 -900.25 
	L 4420.26 -839.62 
	Z 
	"/>
</g>
<g fill="#7f7f7f" fill-rule="nonzero" stroke-width="0" stroke-linejoin="miter" stroke-linecap="butt" stroke-miterlimit="4" >
	<path d="
	M 4926.69 -468.25 
	L 4926.69 -718.36 
	L 4826.44 -468.25 
	L 4726.2 -718.36 
	L 4726.2 -468.25 
	L 4657.86 -468.25 
	L 4657.86 -900.25 
	L 4726.2 -900.25 
	L 4826.44 -657.73 
	L 4926.69 -900.25 
	L 4995.03 -900.25 
	L 4995.03 -468.25 
	Z 
	"/>
</g>
<g fill="#7f7f7f" fill-rule="nonzero" stroke-width="0" stroke-linejoin="miter" stroke-linecap="butt" stroke-miterlimit="4" >
	<path d="
	M 2120.67 -468.25 
	L 1955.44 -760.8 
	L 1955.44 -468.25 
	L 1887.22 -468.25 
	L 1887.22 -900.25 
	L 1955.44 -900.25 
	L 2113.09 -624.38 
	L 2113.09 -900.25 
	L 2181.31 -900.25 
	L 2181.31 -468.25 
	Z 
	"/>
</g>
<g fill="#7f7f7f" fill-rule="nonzero" stroke-width="0" stroke-linejoin="miter" stroke-linecap="butt" stroke-miterlimit="4" >
	<path d="
	M 2474.47 -813.86 
	C 2463.86 -824.46 2448.71 -832.04 2430.51 -832.04 
	L 2353.2 -832.04 
	L 2353.2 -537.98 
	L 2421.42 -537.98 
	C 2444.16 -537.98 2457.8 -542.52 2469.93 -554.65 
	C 2495.7 -580.42 2509.34 -627.41 2509.34 -685.02 
	C 2509.34 -742.61 2495.7 -791.12 2474.47 -813.86 
	Z 
	M 2503.28 -492.5 
	C 2486.6 -477.34 2463.86 -469.77 2441.13 -468.25 
	C 2436.58 -468.25 2427.48 -468.25 2416.87 -468.25 
	L 2284.99 -468.25 
	L 2284.99 -900.25 
	L 2424.45 -900.25 
	C 2468.41 -900.25 2485.09 -895.71 2507.83 -877.52 
	C 2553.3 -838.11 2579.07 -769.89 2579.07 -685.02 
	C 2579.07 -598.61 2551.79 -530.4 2503.28 -492.5 
	Z 
	"/>
</g>
<g fill="#7f7f7f" fill-rule="nonzero" stroke-width="0" stroke-linejoin="miter" stroke-linecap="butt" stroke-miterlimit="4" >
	<path d="
	M 1545.83 -468.25 
	L 1545.83 -900.25 
	L 1800.16 -900.25 
	L 1800.16 -832.04 
	L 1613.95 -832.04 
	L 1613.95 -725.94 
	L 1739.61 -725.94 
	L 1739.61 -656.21 
	L 1613.95 -656.21 
	L 1613.95 -537.98 
	L 1813.78 -537.98 
	L 1813.78 -468.25 
	Z 
	"/>
</g>
</g >
</g>
</svg>
