<?xml version="1.0" encoding="UTF-8" standalone="no"?>
<!-- Created with Inkscape (http://www.inkscape.org/) -->

<svg
   version="1.1"
   id="svg1"
   width="4032.6667"
   height="1728.6667"
   viewBox="0 0 4032.6667 1728.6667"
   sodipodi:docname="tmp5mfzeius.pdf"
   xmlns:inkscape="http://www.inkscape.org/namespaces/inkscape"
   xmlns:sodipodi="http://sodipodi.sourceforge.net/DTD/sodipodi-0.dtd"
   xmlns="http://www.w3.org/2000/svg"
   xmlns:svg="http://www.w3.org/2000/svg">
  <defs
     id="defs1" />
  <sodipodi:namedview
     id="namedview1"
     pagecolor="#ffffff"
     bordercolor="#000000"
     borderopacity="0.25"
     inkscape:showpageshadow="2"
     inkscape:pageopacity="0.0"
     inkscape:pagecheckerboard="0"
     inkscape:deskcolor="#d1d1d1">
    <inkscape:page
       x="0"
       y="0"
       inkscape:label="1"
       id="page1"
       width="4032.6667"
       height="1728.6667"
       margin="0"
       bleed="0" />
  </sodipodi:namedview>
  <g
     id="g1"
     inkscape:groupmode="layer"
     inkscape:label="1">
    <g
       id="group-R5">
      <path
         id="path2"
         d="M 30242.5,1082.5 C 30242.5,486 29759,2.5 29162.5,2.5 H 1082.5 C 486.035,2.5 2.5,486 2.5,1082.5 v 10800 c 0,596.5 483.535,1080 1080,1080 h 28080 c 596.5,0 1080,-483.5 1080,-1080 v -10800"
         style="fill:#ffffff;fill-opacity:1;fill-rule:nonzero;stroke:none"
         transform="matrix(0.13333333,0,0,-0.13333333,0,1728.6667)" />
      <path
         id="path3"
         d="M 30242.5,1082.5 C 30242.5,486 29759,2.5 29162.5,2.5 H 1082.5 C 486.035,2.5 2.5,486 2.5,1082.5 v 10800 c 0,596.5 483.535,1080 1080,1080 h 28080 c 596.5,0 1080,-483.5 1080,-1080 z"
         style="fill:none;stroke:#231f20;stroke-width:5;stroke-linecap:butt;stroke-linejoin:miter;stroke-miterlimit:4;stroke-dasharray:none;stroke-opacity:1"
         transform="matrix(0.13333333,0,0,-0.13333333,0,1728.6667)" />
      <path
         id="path4"
         d="m 1082.5,272.5 c -446.637,0 -810,363.398 -810,810 v 10800 c 0,446.6 363.363,810 810,810 h 28080 c 446.6,0 810,-363.4 810,-810 v -10800 c 0,-446.602 -363.4,-810 -810,-810 h -28080"
         style="fill:#231f20;fill-opacity:1;fill-rule:nonzero;stroke:none"
         transform="matrix(0.13333333,0,0,-0.13333333,0,1728.6667)" />
      <path
         id="path5"
         d="m 1082.5,722.5 c -198.508,0 -360,161.5 -360,360 v 10800 c 0,198.5 161.492,360 360,360 h 28080 c 198.5,0 360,-161.5 360,-360 v -10800 c 0,-198.5 -161.5,-360 -360,-360 h -28080"
         style="fill:#ffffff;fill-opacity:1;fill-rule:nonzero;stroke:none"
         transform="matrix(0.13333333,0,0,-0.13333333,0,1728.6667)" />
      <path
         id="path6"
         d="m 16274.5,2522.5 v 2880 h 460.8 v -2880 h -460.8"
         style="fill:#231f20;fill-opacity:1;fill-rule:nonzero;stroke:none"
         transform="matrix(0.13333333,0,0,-0.13333333,0,1728.6667)" />
      <path
         id="path7"
         d="m 14056.2,2522.5 v 2880.03 h 454.1 V 2946.9 h 1332.2 v -424.4 h -1786.3"
         style="fill:#231f20;fill-opacity:1;fill-rule:nonzero;stroke:none"
         transform="matrix(0.13333333,0,0,-0.13333333,0,1728.6667)" />
      <path
         id="path8"
         d="M 23472,4998.3 V 2522.5 h -456.7 v 2475.8 h -659.7 v 404.22 h 1786.3 V 4998.3 H 23472"
         style="fill:#231f20;fill-opacity:1;fill-rule:nonzero;stroke:none"
         transform="matrix(0.13333333,0,0,-0.13333333,0,1728.6667)" />
      <path
         id="path9"
         d="m 26049.9,2694.3 c -161.7,-141.5 -384,-222.3 -626.5,-222.3 -495.2,0 -859.1,293 -1051.1,727.56 l 434.6,161.68 c 121.3,-272.82 343.6,-424.44 616.5,-424.44 262.7,0 444.6,181.93 444.6,424.44 0,384.01 -444.6,444.64 -818.6,596.21 -171.8,70.74 -555.8,242.53 -555.8,717.49 0,565.88 384,778.1 899.4,778.1 404.3,0 677.1,-232.42 818.6,-586.11 l -404.2,-121.25 c 0,0 -101.1,242.51 -424.5,252.62 -212.2,10.1 -464.9,-70.73 -444.6,-333.48 40.4,-535.57 1394.6,-181.9 1394.6,-1313.67 0,-262.73 -101.1,-495.15 -283,-656.85"
         style="fill:#231f20;fill-opacity:1;fill-rule:nonzero;stroke:none"
         transform="matrix(0.13333333,0,0,-0.13333333,0,1728.6667)" />
      <path
         id="path10"
         d="M 5417.91,2522.5 V 3775.57 H 4366.88 V 2522.5 h -454.77 v 2880 h 454.77 V 4240.41 H 5417.91 V 5402.5 h 454.77 v -2880 h -454.77"
         style="fill:#231f20;fill-opacity:1;fill-rule:nonzero;stroke:none"
         transform="matrix(0.13333333,0,0,-0.13333333,0,1728.6667)" />
      <path
         id="path11"
         d="M 21468.9,2522.5 V 3775.57 H 20417.8 V 2522.5 h -454.7 v 2880 h 454.7 V 4240.41 h 1051.1 V 5402.5 h 454.7 v -2880 h -454.7"
         style="fill:#231f20;fill-opacity:1;fill-rule:nonzero;stroke:none"
         transform="matrix(0.13333333,0,0,-0.13333333,0,1728.6667)" />
      <path
         id="path12"
         d="m 12725.3,4826.51 c -70.8,70.74 -171.8,121.26 -293.1,121.26 h -515.4 V 2987.34 h 454.7 c 151.6,0 242.6,30.32 323.4,111.16 171.8,171.79 262.8,485.07 262.8,869.08 0,383.98 -91,707.34 -232.4,858.93 z m 192,-2142.31 c -111.2,-101.1 -262.8,-151.6 -414.4,-161.7 -30.3,0 -90.9,0 -161.7,0 H 11462 v 2880 h 929.7 c 293.1,0 404.3,-30.31 555.9,-151.58 303.2,-262.74 475,-717.48 475,-1283.34 0,-576.02 -181.9,-1030.78 -505.3,-1283.38"
         style="fill:#231f20;fill-opacity:1;fill-rule:nonzero;stroke:none"
         transform="matrix(0.13333333,0,0,-0.13333333,0,1728.6667)" />
      <path
         id="path13"
         d="m 6563.85,2522.5 v 2880 H 8259.34 V 4947.76 H 7017.99 v -707.37 h 837.67 V 3775.55 H 7017.99 V 2987.34 H 8350.18 V 2522.5 H 6563.85"
         style="fill:#231f20;fill-opacity:1;fill-rule:nonzero;stroke:none"
         transform="matrix(0.13333333,0,0,-0.13333333,0,1728.6667)" />
      <path
         id="path14"
         d="M 9810.37,4604.18 9515.63,3795.76 H 10095 Z m 731.83,-2081.68 -284.6,808.42 H 9353.02 L 9068.44,2522.5 h -487.87 l 996.04,2880 H 10034 l 996,-2880 h -487.8"
         style="fill:#231f20;fill-opacity:1;fill-rule:nonzero;stroke:none"
         transform="matrix(0.13333333,0,0,-0.13333333,0,1728.6667)" />
      <path
         id="path15"
         d="m 18419.9,2472 c -434.5,0 -687.2,161.7 -859,525.45 -121.2,252.63 -192,606.32 -192,960 0,464.84 131.4,919.58 323.4,1172.22 171.8,212.2 414.3,323.36 737.7,323.36 444.7,0 707.5,-181.91 899.5,-636.64 l -434.6,-171.78 c -121.3,252.64 -242.5,343.57 -464.9,343.57 -232.4,0 -384,-101.04 -485.1,-353.69 -70.7,-171.78 -111.1,-434.51 -111.1,-677.04 0,-303.16 50.5,-606.33 141.5,-788.21 90.9,-161.68 222.3,-232.44 394.1,-232.44 293.1,0 505.3,181.9 505.3,444.64 v 121.27 h -525.5 v 454.74 h 980.3 v -576.01 c 0,-525.44 -384,-909.44 -909.6,-909.44"
         style="fill:#231f20;fill-opacity:1;fill-rule:nonzero;stroke:none"
         transform="matrix(0.13333333,0,0,-0.13333333,0,1728.6667)" />
      <path
         id="path16"
         d="m 20633.2,7562.51 -729.9,1364.21 -304.1,-373.89 V 7562.51 H 19143 v 2879.99 h 456.2 V 9300.62 l 912.4,1141.88 h 588 l -892.1,-1121.67 952.9,-1758.32 h -527.2"
         style="fill:#231f20;fill-opacity:1;fill-rule:nonzero;stroke:none"
         transform="matrix(0.13333333,0,0,-0.13333333,0,1728.6667)" />
      <path
         id="path17"
         d="m 13184.5,7562.51 v 1253.08 h -1051 V 7562.51 h -454.8 v 2879.99 h 454.8 V 9280.43 h 1051 v 1162.07 h 454.8 V 7562.51 h -454.8"
         style="fill:#231f20;fill-opacity:1;fill-rule:nonzero;stroke:none"
         transform="matrix(0.13333333,0,0,-0.13333333,0,1728.6667)" />
      <path
         id="path18"
         d="M 14330.5,7562.51 V 10442.5 H 16026 V 9987.78 H 14784.6 V 9280.4 h 837.7 v -464.84 h -837.7 v -788.21 h 1332.2 v -464.84 h -1786.3"
         style="fill:#231f20;fill-opacity:1;fill-rule:nonzero;stroke:none"
         transform="matrix(0.13333333,0,0,-0.13333333,0,1728.6667)" />
      <path
         id="path19"
         d="m 10176,7511.97 c -424.44,0 -697.29,161.7 -879.2,515.38 -131.37,252.63 -212.23,616.44 -212.23,980.23 0,454.72 121.27,909.46 323.38,1162.12 171.8,212.2 414.35,323.4 737.75,323.4 434.6,0 707.4,-182 899.4,-586.17 l -424.4,-181.89 c -161.7,242.54 -252.7,303.16 -475,303.16 -232.44,0 -384.02,-101.05 -485.09,-353.69 -70.73,-171.78 -111.18,-424.42 -111.18,-666.93 0,-313.27 70.77,-626.54 181.94,-808.44 101.03,-151.56 232.42,-222.32 434.53,-222.32 192,0 333.5,101.07 444.7,333.47 l 434.5,-161.68 c -171.8,-424.42 -454.7,-636.64 -869.1,-636.64"
         style="fill:#231f20;fill-opacity:1;fill-rule:nonzero;stroke:none"
         transform="matrix(0.13333333,0,0,-0.13333333,0,1728.6667)" />
      <path
         id="path20"
         d="m 17640.2,7511.97 c -424.4,0 -697.3,161.7 -879.2,515.38 -131.3,252.63 -212.2,616.44 -212.2,980.23 0,454.72 121.3,909.46 323.4,1162.12 171.8,212.2 414.3,323.4 737.7,323.4 434.6,0 707.5,-182 899.5,-586.17 l -424.5,-181.89 c -161.7,242.54 -252.6,303.16 -475,303.16 -232.4,0 -384,-101.05 -485,-353.69 -70.8,-171.78 -111.2,-424.42 -111.2,-666.93 0,-313.27 70.7,-626.54 181.9,-808.44 101.1,-151.56 232.4,-222.32 434.5,-222.32 192.1,0 333.5,101.07 444.7,333.47 l 434.6,-161.68 c -171.8,-424.42 -454.8,-636.64 -869.2,-636.64"
         style="fill:#231f20;fill-opacity:1;fill-rule:nonzero;stroke:none"
         transform="matrix(0.13333333,0,0,-0.13333333,0,1728.6667)" />
    </g>
  </g>
</svg>
