<?xml version="1.0" encoding="UTF-8" standalone="no"?>
<!-- Created with Inkscape (http://www.inkscape.org/) -->

<svg
   version="1.1"
   id="svg1"
   width="7488.6665"
   height="3456.6667"
   viewBox="0 0 7488.6665 3456.6667"
   sodipodi:docname="tmpbwma0l00.pdf"
   xmlns:inkscape="http://www.inkscape.org/namespaces/inkscape"
   xmlns:sodipodi="http://sodipodi.sourceforge.net/DTD/sodipodi-0.dtd"
   xmlns="http://www.w3.org/2000/svg"
   xmlns:svg="http://www.w3.org/2000/svg">
  <defs
     id="defs1" />
  <sodipodi:namedview
     id="namedview1"
     pagecolor="#ffffff"
     bordercolor="#000000"
     borderopacity="0.25"
     inkscape:showpageshadow="2"
     inkscape:pageopacity="0.0"
     inkscape:pagecheckerboard="0"
     inkscape:deskcolor="#d1d1d1">
    <inkscape:page
       x="0"
       y="0"
       inkscape:label="1"
       id="page1"
       width="7488.6665"
       height="3456.6667"
       margin="0"
       bleed="0" />
  </sodipodi:namedview>
  <g
     id="g1"
     inkscape:groupmode="layer"
     inkscape:label="1">
    <g
       id="group-R5">
      <path
         id="path2"
         d="m 56162.5,1622.5 c 0,-894.699 -725.3,-1620 -1620,-1620 H 1622.5 C 727.805,2.5 2.5,727.801 2.5,1622.5 v 22680 c 0,894.7 725.305,1620 1620.01,1620 H 54542.5 c 894.7,0 1620,-725.3 1620,-1620 v -22680"
         style="fill:#ffffff;fill-opacity:1;fill-rule:nonzero;stroke:none"
         transform="matrix(0.13333333,0,0,-0.13333333,0,3456.6667)" />
      <path
         id="path3"
         d="m 56162.5,1622.5 c 0,-894.699 -725.3,-1620 -1620,-1620 H 1622.5 C 727.805,2.5 2.5,727.801 2.5,1622.5 v 22680 c 0,894.7 725.305,1620 1620.01,1620 H 54542.5 c 894.7,0 1620,-725.3 1620,-1620 z"
         style="fill:none;stroke:#231f20;stroke-width:5;stroke-linecap:butt;stroke-linejoin:miter;stroke-miterlimit:4;stroke-dasharray:none;stroke-opacity:1"
         transform="matrix(0.13333333,0,0,-0.13333333,0,3456.6667)" />
      <path
         id="path4"
         d="m 1622.5,452.5 c -645.137,0 -1170,524.902 -1170,1170 v 22680 c 0,645.1 524.863,1170 1170,1170 h 52920 c 645.1,0 1170,-524.9 1170,-1170 v -22680 c 0,-645.098 -524.9,-1170 -1170,-1170 h -52920"
         style="fill:#231f20;fill-opacity:1;fill-rule:nonzero;stroke:none"
         transform="matrix(0.13333333,0,0,-0.13333333,0,3456.6667)" />
      <path
         id="path5"
         d="m 1622.5,1082.5 c -297.75,0 -540,242.3 -540,540 v 22680 c 0,297.8 242.25,540 540,540 h 52920 c 297.8,0 540,-242.2 540,-540 v -22680 c 0,-297.7 -242.2,-540 -540,-540 h -52920"
         style="fill:#ffffff;fill-opacity:1;fill-rule:nonzero;stroke:none"
         transform="matrix(0.13333333,0,0,-0.13333333,0,3456.6667)" />
      <path
         id="path6"
         d="m 30386.5,5042.5 v 5760 h 921.6 v -5760 h -921.6"
         style="fill:#231f20;fill-opacity:1;fill-rule:nonzero;stroke:none"
         transform="matrix(0.13333333,0,0,-0.13333333,0,3456.6667)" />
      <path
         id="path7"
         d="m 25949.9,5042.5 v 5760.1 h 908.3 V 5891.3 h 2664.3 v -848.8 h -3572.6"
         style="fill:#231f20;fill-opacity:1;fill-rule:nonzero;stroke:none"
         transform="matrix(0.13333333,0,0,-0.13333333,0,3456.6667)" />
      <path
         id="path8"
         d="M 44781.6,9994.1 V 5042.5 h -913.4 v 4951.6 h -1319.5 v 808.4 h 3572.6 v -808.4 h -1339.7"
         style="fill:#231f20;fill-opacity:1;fill-rule:nonzero;stroke:none"
         transform="matrix(0.13333333,0,0,-0.13333333,0,3456.6667)" />
      <path
         id="path9"
         d="m 49937.3,5386.1 c -323.3,-282.9 -768,-444.6 -1253.1,-444.6 -990.4,0 -1718,586.1 -2102.1,1455.1 l 869.2,323.4 c 242.5,-545.7 687.2,-848.8 1232.9,-848.8 525.5,0 889.3,363.7 889.3,848.8 0,768 -889.3,889.2 -1637.2,1192.4 -343.5,141.5 -1111.6,485 -1111.6,1435 0,1131.7 768.1,1556.2 1798.9,1556.2 808.4,0 1354.2,-464.9 1637.1,-1172.3 l -808.4,-242.5 c 0,0 -202.1,485.1 -849,505.3 -424.4,20.2 -929.7,-141.5 -889.3,-667 80.9,-1071.1 2789.3,-363.8 2789.3,-2627.3 0,-525.5 -202.1,-990.3 -566,-1313.7"
         style="fill:#231f20;fill-opacity:1;fill-rule:nonzero;stroke:none"
         transform="matrix(0.13333333,0,0,-0.13333333,0,3456.6667)" />
      <path
         id="path10"
         d="M 8673.35,5042.5 V 7548.6 H 6571.26 V 5042.5 h -909.54 v 5760 h 909.54 V 8478.3 h 2102.09 v 2324.2 h 909.51 v -5760 h -909.51"
         style="fill:#231f20;fill-opacity:1;fill-rule:nonzero;stroke:none"
         transform="matrix(0.13333333,0,0,-0.13333333,0,3456.6667)" />
      <path
         id="path11"
         d="M 40775.3,5042.5 V 7548.6 H 38673.2 V 5042.5 h -909.6 v 5760 h 909.6 V 8478.3 h 2102.1 v 2324.2 h 909.5 v -5760 h -909.5"
         style="fill:#231f20;fill-opacity:1;fill-rule:nonzero;stroke:none"
         transform="matrix(0.13333333,0,0,-0.13333333,0,3456.6667)" />
      <path
         id="path12"
         d="M 23288,9650.5 C 23146.5,9792 22944.4,9893 22701.9,9893 H 21671.1 V 5972.2 h 909.5 c 303.2,0 485.1,60.6 646.8,222.3 343.6,343.6 525.5,970.1 525.5,1738.2 0,767.9 -181.9,1414.6 -464.9,1717.8 z m 384.1,-4284.7 c -222.4,-202.1 -525.6,-303.1 -828.7,-323.3 -60.6,0 -182,0 -323.4,0 h -1758.5 v 5760 H 22621 c 586.2,0 808.5,-60.6 1111.7,-303.2 606.4,-525.5 950,-1434.9 950,-2566.6 0,-1152.1 -363.9,-2061.6 -1010.6,-2566.9"
         style="fill:#231f20;fill-opacity:1;fill-rule:nonzero;stroke:none"
         transform="matrix(0.13333333,0,0,-0.13333333,0,3456.6667)" />
      <path
         id="path13"
         d="m 10965.2,5042.5 v 5760 h 3391 V 9893 H 11873.5 V 8478.3 h 1675.3 V 7548.6 H 11873.5 V 5972.2 h 2664.4 v -929.7 h -3572.7"
         style="fill:#231f20;fill-opacity:1;fill-rule:nonzero;stroke:none"
         transform="matrix(0.13333333,0,0,-0.13333333,0,3456.6667)" />
      <path
         id="path14"
         d="M 17458.3,9205.9 16868.8,7589 h 1158.6 z m 1463.5,-4163.4 -569.1,1616.8 h -1809.1 l -569.2,-1616.8 h -975.7 l 1992,5760 h 914.8 l 1992,-5760 h -975.7"
         style="fill:#231f20;fill-opacity:1;fill-rule:nonzero;stroke:none"
         transform="matrix(0.13333333,0,0,-0.13333333,0,3456.6667)" />
      <path
         id="path15"
         d="m 34677.3,4941.4 c -869,0 -1374.3,323.4 -1717.9,1051 -242.6,505.3 -384.1,1212.6 -384.1,1920 0,929.7 262.8,1839.2 646.8,2344.4 343.6,424.4 828.7,646.7 1475.5,646.7 889.3,0 1414.8,-363.8 1798.8,-1273.2 l -869.1,-343.6 c -242.5,505.3 -485.1,687.1 -929.7,687.1 -464.9,0 -768.1,-202 -970.2,-707.3 -141.5,-343.6 -222.4,-869.1 -222.4,-1354.1 0,-606.3 101.1,-1212.7 283,-1576.4 181.9,-323.4 444.7,-464.9 788.3,-464.9 586.1,0 1010.6,363.8 1010.6,889.3 v 242.5 h -1051 v 909.5 h 1960.5 v -1152 c 0,-1051 -768,-1819 -1819.1,-1819"
         style="fill:#231f20;fill-opacity:1;fill-rule:nonzero;stroke:none"
         transform="matrix(0.13333333,0,0,-0.13333333,0,3456.6667)" />
      <path
         id="path16"
         d="m 39104,15122.5 -1459.9,2728.4 -608.2,-747.7 v -1980.7 h -912.5 v 5760 h 912.5 v -2283.8 l 1824.8,2283.8 h 1176 l -1784.3,-2243.3 1905.9,-3516.7 H 39104"
         style="fill:#231f20;fill-opacity:1;fill-rule:nonzero;stroke:none"
         transform="matrix(0.13333333,0,0,-0.13333333,0,3456.6667)" />
      <path
         id="path17"
         d="m 24206.6,15122.5 v 2506.2 H 22104.5 V 15122.5 H 21195 v 5760 h 909.5 v -2324.1 h 2102.1 v 2324.1 h 909.5 v -5760 h -909.5"
         style="fill:#231f20;fill-opacity:1;fill-rule:nonzero;stroke:none"
         transform="matrix(0.13333333,0,0,-0.13333333,0,3456.6667)" />
      <path
         id="path18"
         d="m 26498.5,15122.5 v 5760 h 3390.9 v -909.4 h -2482.7 v -1414.8 h 1675.4 v -929.7 h -1675.4 v -1576.4 h 2664.4 v -929.7 h -3572.6"
         style="fill:#231f20;fill-opacity:1;fill-rule:nonzero;stroke:none"
         transform="matrix(0.13333333,0,0,-0.13333333,0,3456.6667)" />
      <path
         id="path19"
         d="m 18189.5,15021.5 c -848.9,0 -1394.6,323.3 -1758.4,1030.7 -262.7,505.3 -424.4,1232.9 -424.4,1960.5 0,909.4 242.5,1818.9 646.7,2324.2 343.6,424.4 828.7,646.7 1475.5,646.7 869.1,0 1414.8,-363.8 1798.9,-1172.2 l -848.9,-363.8 c -323.4,485.1 -505.3,606.3 -950,606.3 -464.9,0 -768,-202.1 -970.2,-707.4 -141.4,-343.5 -222.3,-848.8 -222.3,-1333.8 0,-626.6 141.5,-1253.1 363.8,-1616.9 202.1,-303.1 464.9,-444.6 869.1,-444.6 384.1,0 667,202.1 889.4,666.9 l 869.1,-323.4 c -343.6,-848.8 -909.6,-1273.2 -1738.3,-1273.2"
         style="fill:#231f20;fill-opacity:1;fill-rule:nonzero;stroke:none"
         transform="matrix(0.13333333,0,0,-0.13333333,0,3456.6667)" />
      <path
         id="path20"
         d="m 33118,15021.5 c -848.9,0 -1394.6,323.3 -1758.4,1030.7 -262.8,505.3 -424.5,1232.9 -424.5,1960.5 0,909.4 242.6,1818.9 646.8,2324.2 343.6,424.4 828.7,646.7 1475.5,646.7 869.1,0 1414.8,-363.8 1798.8,-1172.2 l -848.9,-363.8 c -323.4,485.1 -505.3,606.3 -949.9,606.3 -464.9,0 -768.1,-202.1 -970.2,-707.4 -141.5,-343.5 -222.3,-848.8 -222.3,-1333.8 0,-626.6 141.4,-1253.1 363.8,-1616.9 202.1,-303.1 464.8,-444.6 869.1,-444.6 384,0 667,202.1 889.3,666.9 l 869.1,-323.4 c -343.5,-848.8 -909.5,-1273.2 -1738.2,-1273.2"
         style="fill:#231f20;fill-opacity:1;fill-rule:nonzero;stroke:none"
         transform="matrix(0.13333333,0,0,-0.13333333,0,3456.6667)" />
    </g>
  </g>
</svg>
