<?xml version="1.0" standalone="no"?>
<svg width="4320px" height="1296px" viewBox="0 -504 4320 1296 " xmlns="http://www.w3.org/2000/svg" xmlns:xlink="http://www.w3.org/1999/xlink">
<title>generated by pstoedit</title>
<!-- generated by pstoedit version:4.02 -->
<g xml:space='preserve'>
<clipPath id="clippath1"> 	<path d="
	M 0 -504.5 
	L 0 792 
	L 4320.5 792 
	L 4320.5 -504.5 
	Z 
	" style="clip-rule:nonzero"/>
</clipPath>
<g style="clip-path:url(#clippath1)"> 
<g fill="#ffffff" fill-rule="nonzero" stroke-width="0" stroke-linejoin="miter" stroke-linecap="butt" stroke-miterlimit="10" >
	<path d="
	M 4320.25 683.75 
	C 4320.25 743.398 4271.9 791.75 4212.25 791.75 
	L 108.25 791.75 
	C 48.6016 791.75 0.25 743.398 0.25 683.75 
	L 0.25 -396.25 
	C 0.25 -455.89 48.6016 -504.25 108.25 -504.25 
	L 4212.25 -504.25 
	C 4271.9 -504.25 4320.25 -455.89 4320.25 -396.25 
	Z 
	"/>
</g>
<g stroke="#7f7f7f" fill="none" stroke-width="0.5" stroke-linejoin="miter" stroke-linecap="butt" stroke-miterlimit="4" >
	<path d="
	M 4320.25 683.75 
	C 4320.25 743.398 4271.9 791.75 4212.25 791.75 
	L 108.25 791.75 
	C 48.6016 791.75 0.25 743.398 0.25 683.75 
	L 0.25 -396.25 
	C 0.25 -455.89 48.6016 -504.25 108.25 -504.25 
	L 4212.25 -504.25 
	C 4271.9 -504.25 4320.25 -455.89 4320.25 -396.25 
	Z 
	"/>
</g>
<g fill="#7f7f7f" fill-rule="nonzero" stroke-width="0" stroke-linejoin="miter" stroke-linecap="butt" stroke-miterlimit="4" >
	<path d="
	M 108.25 764.75 
	C 63.5859 764.75 27.25 728.41 27.25 683.75 
	L 27.25 -396.25 
	C 27.25 -440.91 63.5859 -477.25 108.25 -477.25 
	L 4212.25 -477.25 
	C 4256.91 -477.25 4293.25 -440.91 4293.25 -396.25 
	L 4293.25 683.75 
	C 4293.25 728.41 4256.91 764.75 4212.25 764.75 
	Z 
	"/>
</g>
<g fill="#ffffff" fill-rule="nonzero" stroke-width="0" stroke-linejoin="miter" stroke-linecap="butt" stroke-miterlimit="4" >
	<path d="
	M 108.25 719.75 
	C 88.3984 719.75 72.25 703.602 72.25 683.75 
	L 72.25 -396.25 
	C 72.25 -416.1 88.3984 -432.25 108.25 -432.25 
	L 4212.25 -432.25 
	C 4232.1 -432.25 4248.25 -416.1 4248.25 -396.25 
	L 4248.25 683.75 
	C 4248.25 703.602 4232.1 719.75 4212.25 719.75 
	Z 
	"/>
</g>
<g fill="#7f7f7f" fill-rule="nonzero" stroke-width="0" stroke-linejoin="miter" stroke-linecap="butt" stroke-miterlimit="4" >
	<path d="
	M 4023.14 539.75 
	L 3912.99 344.719 
	L 3912.99 539.75 
	L 3867.51 539.75 
	L 3867.51 251.75 
	L 3912.99 251.75 
	L 4018.09 435.668 
	L 4018.09 251.75 
	L 4063.57 251.75 
	L 4063.57 539.75 
	Z 
	"/>
</g>
<g fill="#7f7f7f" fill-rule="nonzero" stroke-width="0" stroke-linejoin="miter" stroke-linecap="butt" stroke-miterlimit="4" >
	<path d="
	M 3741.34 315.414 
	C 3732.23 300.258 3721.09 294.191 3703.87 293.184 
	C 3681.58 292.172 3667.4 303.285 3657.27 328.551 
	C 3650.17 345.73 3646.13 372.004 3646.13 396.258 
	C 3646.13 426.57 3652.2 457.898 3663.34 476.09 
	C 3672.46 491.246 3684.62 498.32 3702.85 498.32 
	C 3724.13 498.32 3737.29 487.203 3747.42 461.941 
	C 3753.5 446.781 3758.57 418.488 3758.57 396.258 
	C 3758.57 363.922 3752.49 334.613 3741.34 315.414 
	Z 
	M 3772.75 512.469 
	C 3756.54 534.699 3733.24 544.801 3702.85 544.801 
	C 3662.33 544.801 3637.01 528.629 3619.78 493.27 
	C 3607.63 469.016 3599.53 430.613 3599.53 396.258 
	C 3599.53 348.762 3611.68 306.32 3630.93 279.035 
	C 3648.15 256.805 3671.45 246.699 3704.88 246.699 
	C 3741.34 246.699 3766.67 262.867 3784.9 298.234 
	C 3797.06 323.496 3804.15 359.879 3804.15 396.258 
	C 3804.15 441.73 3793.01 487.203 3772.75 512.469 
	Z 
	"/>
</g>
<g fill="#7f7f7f" fill-rule="nonzero" stroke-width="0" stroke-linejoin="miter" stroke-linecap="butt" stroke-miterlimit="4" >
	<path d="
	M 2735.67 522.57 
	C 2719.5 536.719 2697.27 544.801 2673.02 544.801 
	C 2623.5 544.801 2587.12 515.5 2567.91 472.047 
	L 2611.37 455.879 
	C 2623.5 483.16 2645.73 498.32 2673.02 498.32 
	C 2699.29 498.32 2717.48 480.129 2717.48 455.879 
	C 2717.48 417.477 2673.02 411.414 2635.62 396.258 
	C 2618.44 389.184 2580.04 372.004 2580.04 324.508 
	C 2580.04 267.922 2618.44 246.699 2669.99 246.699 
	C 2710.41 246.699 2737.69 269.941 2751.84 305.309 
	L 2711.42 317.434 
	C 2711.42 317.434 2701.31 293.184 2668.97 292.172 
	C 2647.75 291.16 2622.49 299.246 2624.51 325.52 
	C 2628.55 379.074 2763.97 343.711 2763.97 456.887 
	C 2763.97 483.16 2753.86 506.398 2735.67 522.57 
	Z 
	"/>
</g>
<g fill="#7f7f7f" fill-rule="nonzero" stroke-width="0" stroke-linejoin="miter" stroke-linecap="butt" stroke-miterlimit="4" >
	<path d="
	M 2812.93 539.75 
	L 2812.93 251.75 
	L 2982.48 251.75 
	L 2982.48 297.227 
	L 2858.34 297.227 
	L 2858.34 367.961 
	L 2942.11 367.961 
	L 2942.11 414.445 
	L 2858.34 414.445 
	L 2858.34 493.266 
	L 2991.56 493.266 
	L 2991.56 539.75 
	Z 
	"/>
</g>
<g fill="#7f7f7f" fill-rule="nonzero" stroke-width="0" stroke-linejoin="miter" stroke-linecap="butt" stroke-miterlimit="4" >
	<path d="
	M 3143.9 544.801 
	C 3101.46 544.801 3074.17 528.641 3055.98 493.266 
	C 3042.85 468.004 3034.76 431.621 3034.76 395.246 
	C 3034.76 349.77 3046.89 304.297 3067.1 279.035 
	C 3084.28 257.812 3108.53 246.699 3140.87 246.699 
	C 3184.33 246.699 3211.61 264.891 3230.82 305.309 
	L 3188.37 323.496 
	C 3172.2 299.246 3163.11 293.184 3140.87 293.184 
	C 3117.63 293.184 3102.47 303.285 3092.36 328.551 
	C 3085.29 345.73 3081.25 370.992 3081.25 395.246 
	C 3081.25 426.57 3088.32 457.898 3099.44 476.09 
	C 3109.54 491.246 3122.68 498.32 3142.89 498.32 
	C 3162.09 498.32 3176.24 488.215 3187.36 464.973 
	L 3230.82 481.141 
	C 3213.64 523.578 3185.34 544.801 3143.9 544.801 
	Z 
	"/>
</g>
<g fill="#7f7f7f" fill-rule="nonzero" stroke-width="0" stroke-linejoin="miter" stroke-linecap="butt" stroke-miterlimit="4" >
	<path d="
	M 3490.09 539.75 
	L 3490.09 251.75 
	L 3536.17 251.75 
	L 3536.17 539.75 
	Z 
	"/>
</g>
<g fill="#7f7f7f" fill-rule="nonzero" stroke-width="0" stroke-linejoin="miter" stroke-linecap="butt" stroke-miterlimit="4" >
	<path d="
	M 3379.9 292.172 
	L 3379.9 539.75 
	L 3334.23 539.75 
	L 3334.23 292.172 
	L 3268.26 292.172 
	L 3268.26 251.746 
	L 3446.89 251.746 
	L 3446.89 292.172 
	Z 
	"/>
</g>
<g fill="#7f7f7f" fill-rule="nonzero" stroke-width="0" stroke-linejoin="miter" stroke-linecap="butt" stroke-miterlimit="4" >
	<path d="
	M 407.516 539.75 
	L 407.516 414.445 
	L 302.41 414.445 
	L 302.41 539.75 
	L 256.934 539.75 
	L 256.934 251.75 
	L 302.41 251.75 
	L 302.41 367.961 
	L 407.516 367.961 
	L 407.516 251.75 
	L 452.992 251.75 
	L 452.992 539.75 
	Z 
	"/>
</g>
<g fill="#7f7f7f" fill-rule="nonzero" stroke-width="0" stroke-linejoin="miter" stroke-linecap="butt" stroke-miterlimit="4" >
	<path d="
	M 1138.25 309.352 
	C 1131.17 302.277 1121.07 297.223 1108.94 297.223 
	L 1057.4 297.223 
	L 1057.4 493.266 
	L 1102.88 493.266 
	C 1118.04 493.266 1127.13 490.234 1135.22 482.152 
	C 1152.4 464.973 1161.49 433.645 1161.49 395.242 
	C 1161.49 356.844 1152.4 324.508 1138.25 309.352 
	Z 
	M 1157.45 523.578 
	C 1146.33 533.691 1131.17 538.738 1116.02 539.75 
	C 1112.98 539.75 1106.92 539.75 1099.85 539.75 
	L 1011.92 539.75 
	L 1011.92 251.75 
	L 1104.9 251.75 
	C 1134.21 251.75 1145.32 254.781 1160.48 266.91 
	C 1190.8 293.184 1207.98 338.656 1207.98 395.242 
	C 1207.98 452.844 1189.79 498.32 1157.45 523.578 
	Z 
	"/>
</g>
<g fill="#7f7f7f" fill-rule="nonzero" stroke-width="0" stroke-linejoin="miter" stroke-linecap="butt" stroke-miterlimit="4" >
	<path d="
	M 522.105 539.75 
	L 522.105 251.75 
	L 691.656 251.75 
	L 691.656 297.227 
	L 567.523 297.227 
	L 567.523 367.961 
	L 651.289 367.961 
	L 651.289 414.445 
	L 567.523 414.445 
	L 567.523 493.266 
	L 700.742 493.266 
	L 700.742 539.75 
	Z 
	"/>
</g>
<g fill="#7f7f7f" fill-rule="nonzero" stroke-width="0" stroke-linejoin="miter" stroke-linecap="butt" stroke-miterlimit="4" >
	<path d="
	M 846.762 331.582 
	L 817.285 412.426 
	L 875.219 412.426 
	Z 
	M 919.938 539.75 
	L 891.48 458.91 
	L 801.023 458.91 
	L 772.566 539.75 
	L 723.781 539.75 
	L 823.383 251.75 
	L 869.121 251.75 
	L 968.723 539.75 
	Z 
	"/>
</g>
<g fill="#7f7f7f" fill-rule="nonzero" stroke-width="0" stroke-linejoin="miter" stroke-linecap="butt" stroke-miterlimit="4" >
	<path d="
	M 1493.17 539.75 
	L 1493.17 251.75 
	L 1539.25 251.75 
	L 1539.25 539.75 
	Z 
	"/>
</g>
<g fill="#7f7f7f" fill-rule="nonzero" stroke-width="0" stroke-linejoin="miter" stroke-linecap="butt" stroke-miterlimit="4" >
	<path d="
	M 1271.34 539.75 
	L 1271.34 251.746 
	L 1316.75 251.746 
	L 1316.75 497.309 
	L 1449.97 497.309 
	L 1449.97 539.75 
	Z 
	"/>
</g>
<g fill="#7f7f7f" fill-rule="nonzero" stroke-width="0" stroke-linejoin="miter" stroke-linecap="butt" stroke-miterlimit="4" >
	<path d="
	M 2212.93 292.172 
	L 2212.93 539.75 
	L 2167.26 539.75 
	L 2167.26 292.172 
	L 2101.28 292.172 
	L 2101.28 251.746 
	L 2279.91 251.746 
	L 2279.91 292.172 
	Z 
	"/>
</g>
<g fill="#7f7f7f" fill-rule="nonzero" stroke-width="0" stroke-linejoin="miter" stroke-linecap="butt" stroke-miterlimit="4" >
	<path d="
	M 2012.61 539.75 
	L 2012.61 414.445 
	L 1907.5 414.445 
	L 1907.5 539.75 
	L 1862.03 539.75 
	L 1862.03 251.75 
	L 1907.5 251.75 
	L 1907.5 367.961 
	L 2012.61 367.961 
	L 2012.61 251.75 
	L 2058.09 251.75 
	L 2058.09 539.75 
	Z 
	"/>
</g>
<g fill="#7f7f7f" fill-rule="nonzero" stroke-width="0" stroke-linejoin="miter" stroke-linecap="butt" stroke-miterlimit="4" >
	<path d="
	M 1707.71 544.801 
	C 1664.26 544.801 1638.99 528.641 1621.81 492.258 
	C 1609.69 466.992 1602.61 431.621 1602.61 396.258 
	C 1602.61 349.77 1615.75 304.297 1634.95 279.035 
	C 1652.13 257.812 1676.38 246.699 1708.73 246.699 
	C 1753.19 246.699 1779.47 264.891 1798.67 310.363 
	L 1755.21 327.539 
	C 1743.09 302.277 1730.96 293.184 1708.73 293.184 
	C 1685.48 293.184 1670.32 303.285 1660.22 328.551 
	C 1653.14 345.73 1649.1 372.004 1649.1 396.258 
	C 1649.1 426.57 1654.15 456.891 1663.25 475.074 
	C 1672.34 491.246 1685.48 498.32 1702.66 498.32 
	C 1731.97 498.32 1753.19 480.133 1753.19 453.855 
	L 1753.19 441.73 
	L 1700.64 441.73 
	L 1700.64 396.258 
	L 1798.67 396.258 
	L 1798.67 453.855 
	C 1798.67 506.398 1760.27 544.801 1707.71 544.801 
	Z 
	"/>
</g>
<g fill="#7f7f7f" fill-rule="nonzero" stroke-width="0" stroke-linejoin="miter" stroke-linecap="butt" stroke-miterlimit="4" >
	<path d="
	M 2506.46 -89.559 
	L 2506.46 35.75 
	L 2460.75 35.75 
	L 2460.75 -89.559 
	L 2359.18 -252.25 
	L 2414.03 -252.25 
	L 2483.1 -141.094 
	L 2553.18 -252.25 
	L 2607.01 -252.25 
	Z 
	"/>
</g>
<g fill="#7f7f7f" fill-rule="nonzero" stroke-width="0" stroke-linejoin="miter" stroke-linecap="butt" stroke-miterlimit="4" >
	<path d="
	M 1989.79 -194.652 
	C 1982.71 -201.727 1972.61 -206.777 1960.48 -206.777 
	L 1908.94 -206.777 
	L 1908.94 -10.734 
	L 1954.42 -10.734 
	C 1969.58 -10.734 1978.67 -13.766 1986.76 -21.848 
	C 2003.94 -39.027 2013.03 -70.359 2013.03 -108.758 
	C 2013.03 -147.156 2003.94 -179.492 1989.79 -194.652 
	Z 
	M 2008.99 19.582 
	C 1997.87 29.687 1982.71 34.742 1967.55 35.75 
	C 1964.52 35.75 1958.46 35.75 1951.39 35.75 
	L 1863.46 35.75 
	L 1863.46 -252.25 
	L 1956.44 -252.25 
	C 1985.75 -252.25 1996.86 -249.22 2012.02 -237.09 
	C 2042.34 -210.82 2059.52 -165.344 2059.52 -108.758 
	C 2059.52 -51.156 2041.33 -5.67999 2008.99 19.582 
	Z 
	"/>
</g>
<g fill="#7f7f7f" fill-rule="nonzero" stroke-width="0" stroke-linejoin="miter" stroke-linecap="butt" stroke-miterlimit="4" >
	<path d="
	M 3255.23 35.75 
	L 3255.23 -252.25 
	L 3424.78 -252.25 
	L 3424.78 -206.777 
	L 3300.64 -206.777 
	L 3300.64 -136.039 
	L 3384.41 -136.039 
	L 3384.41 -89.555 
	L 3300.64 -89.555 
	L 3300.64 -10.734 
	L 3433.86 -10.734 
	L 3433.86 35.75 
	Z 
	"/>
</g>
<g fill="#7f7f7f" fill-rule="nonzero" stroke-width="0" stroke-linejoin="miter" stroke-linecap="butt" stroke-miterlimit="4" >
	<path d="
	M 2219.94 -172.418 
	L 2190.46 -91.578 
	L 2248.4 -91.578 
	Z 
	M 2293.12 35.75 
	L 2264.66 -45.09 
	L 2174.2 -45.09 
	L 2145.75 35.75 
	L 2096.96 35.75 
	L 2196.56 -252.25 
	L 2242.3 -252.25 
	L 2341.9 35.75 
	Z 
	"/>
</g>
<g fill="#7f7f7f" fill-rule="nonzero" stroke-width="0" stroke-linejoin="miter" stroke-linecap="butt" stroke-miterlimit="4" >
	<path d="
	M 2846.12 35.75 
	L 2846.12 -252.25 
	L 2892.2 -252.25 
	L 2892.2 35.75 
	Z 
	"/>
</g>
<g fill="#7f7f7f" fill-rule="nonzero" stroke-width="0" stroke-linejoin="miter" stroke-linecap="butt" stroke-miterlimit="4" >
	<path d="
	M 2735.93 -211.83 
	L 2735.93 35.75 
	L 2690.27 35.75 
	L 2690.27 -211.83 
	L 2624.29 -211.83 
	L 2624.29 -252.25 
	L 2802.92 -252.25 
	L 2802.92 -211.83 
	Z 
	"/>
</g>
<g fill="#7f7f7f" fill-rule="nonzero" stroke-width="0" stroke-linejoin="miter" stroke-linecap="butt" stroke-miterlimit="4" >
	<path d="
	M 3140.54 35.75 
	L 3140.54 -130.988 
	L 3073.71 35.75 
	L 3006.88 -130.988 
	L 3006.88 35.75 
	L 2961.32 35.75 
	L 2961.32 -252.25 
	L 3006.88 -252.25 
	L 3073.71 -90.566 
	L 3140.54 -252.25 
	L 3186.1 -252.25 
	L 3186.1 35.75 
	Z 
	"/>
</g>
<g fill="#7f7f7f" fill-rule="nonzero" stroke-width="0" stroke-linejoin="miter" stroke-linecap="butt" stroke-miterlimit="4" >
	<path d="
	M 1269.87 35.75 
	L 1159.71 -159.285 
	L 1159.71 35.75 
	L 1114.23 35.75 
	L 1114.23 -252.25 
	L 1159.71 -252.25 
	L 1264.81 -68.336 
	L 1264.81 -252.25 
	L 1310.29 -252.25 
	L 1310.29 35.75 
	Z 
	"/>
</g>
<g fill="#7f7f7f" fill-rule="nonzero" stroke-width="0" stroke-linejoin="miter" stroke-linecap="butt" stroke-miterlimit="4" >
	<path d="
	M 1505.73 -194.652 
	C 1498.66 -201.727 1488.55 -206.777 1476.42 -206.777 
	L 1424.88 -206.777 
	L 1424.88 -10.734 
	L 1470.36 -10.734 
	C 1485.52 -10.734 1494.62 -13.766 1502.7 -21.852 
	C 1519.88 -39.031 1528.98 -70.359 1528.98 -108.758 
	C 1528.98 -147.156 1519.88 -179.492 1505.73 -194.652 
	Z 
	M 1524.94 19.582 
	C 1513.82 29.687 1498.66 34.738 1483.5 35.75 
	C 1480.47 35.75 1474.4 35.75 1467.33 35.75 
	L 1379.41 35.75 
	L 1379.41 -252.25 
	L 1472.38 -252.25 
	C 1501.69 -252.25 1512.81 -249.22 1527.97 -237.09 
	C 1558.29 -210.82 1575.46 -165.348 1575.46 -108.758 
	C 1575.46 -51.156 1557.27 -5.68402 1524.94 19.582 
	Z 
	"/>
</g>
<g fill="#7f7f7f" fill-rule="nonzero" stroke-width="0" stroke-linejoin="miter" stroke-linecap="butt" stroke-miterlimit="4" >
	<path d="
	M 886.641 35.75 
	L 886.641 -252.25 
	L 1056.19 -252.25 
	L 1056.19 -206.777 
	L 932.055 -206.777 
	L 932.055 -136.039 
	L 1015.82 -136.039 
	L 1015.82 -89.555 
	L 932.055 -89.555 
	L 932.055 -10.734 
	L 1065.27 -10.734 
	L 1065.27 35.75 
	Z 
	"/>
</g>
</g >
</g>
</svg>
