<?xml version="1.0" encoding="UTF-8" standalone="no"?>
<!-- Created with Inkscape (http://www.inkscape.org/) -->

<svg
   version="1.1"
   id="svg1"
   width="2304.6667"
   height="2880.6667"
   viewBox="0 0 2304.6667 2880.6667"
   sodipodi:docname="tmpnemyuscj.pdf"
   xmlns:inkscape="http://www.inkscape.org/namespaces/inkscape"
   xmlns:sodipodi="http://sodipodi.sourceforge.net/DTD/sodipodi-0.dtd"
   xmlns="http://www.w3.org/2000/svg"
   xmlns:svg="http://www.w3.org/2000/svg">
  <defs
     id="defs1" />
  <sodipodi:namedview
     id="namedview1"
     pagecolor="#ffffff"
     bordercolor="#000000"
     borderopacity="0.25"
     inkscape:showpageshadow="2"
     inkscape:pageopacity="0.0"
     inkscape:pagecheckerboard="0"
     inkscape:deskcolor="#d1d1d1">
    <inkscape:page
       x="0"
       y="0"
       inkscape:label="1"
       id="page1"
       width="2304.6667"
       height="2880.6667"
       margin="0"
       bleed="0" />
  </sodipodi:namedview>
  <g
     id="g1"
     inkscape:groupmode="layer"
     inkscape:label="1">
    <g
       id="group-R5">
      <path
         id="path2"
         d="M 17282.5,1082.5 C 17282.5,486 16799,2.5 16202.5,2.5 H 1082.5 C 486.031,2.5 2.5,486 2.5,1082.5 v 19440 c 0,596.5 483.531,1080 1080,1080 h 15120 c 596.5,0 1080,-483.5 1080,-1080 v -19440"
         style="fill:#ffffff;fill-opacity:1;fill-rule:nonzero;stroke:none"
         transform="matrix(0.13333333,0,0,-0.13333333,0,2880.6667)" />
      <path
         id="path3"
         d="M 17282.5,1082.5 C 17282.5,486 16799,2.5 16202.5,2.5 H 1082.5 C 486.031,2.5 2.5,486 2.5,1082.5 v 19440 c 0,596.5 483.531,1080 1080,1080 h 15120 c 596.5,0 1080,-483.5 1080,-1080 z"
         style="fill:none;stroke:#231f20;stroke-width:5;stroke-linecap:butt;stroke-linejoin:miter;stroke-miterlimit:4;stroke-dasharray:none;stroke-opacity:1"
         transform="matrix(0.13333333,0,0,-0.13333333,0,2880.6667)" />
      <path
         id="path4"
         d="m 1082.5,272.5 c -446.637,0 -810,363.402 -810,810 v 19440 c 0,446.6 363.363,810 810,810 h 15120 c 446.6,0 810,-363.4 810,-810 v -19440 c 0,-446.598 -363.4,-810 -810,-810 h -15120"
         style="fill:#231f20;fill-opacity:1;fill-rule:nonzero;stroke:none"
         transform="matrix(0.13333333,0,0,-0.13333333,0,2880.6667)" />
      <path
         id="path5"
         d="m 1082.5,722.5 c -198.508,0 -360,161.5 -360,360 v 19440 c 0,198.5 161.492,360 360,360 h 15120 c 198.5,0 360,-161.5 360,-360 v -19440 c 0,-198.5 -161.5,-360 -360,-360 h -15120"
         style="fill:#ffffff;fill-opacity:1;fill-rule:nonzero;stroke:none"
         transform="matrix(0.13333333,0,0,-0.13333333,0,2880.6667)" />
      <path
         id="path6"
         d="m 7826.56,16736.2 c -111.62,-252.6 -345.03,-404.2 -639.31,-404.2 -345.03,0 -598.72,171.8 -740.79,495.1 -91.34,212.3 -152.23,616.5 -152.23,990.3 0,404.3 30.45,697.3 131.92,970.2 101.48,303.1 395.77,525.4 730.66,525.4 416.05,0 730.64,-303.1 750.93,-727.6 h -416.06 c -10.15,192 -142.06,323.4 -345.03,323.4 -142.07,0 -253.7,-70.7 -324.73,-212.2 -81.18,-141.5 -131.92,-464.8 -131.92,-808.4 0,-242.5 20.29,-495.2 60.88,-717.5 60.89,-282.9 202.96,-434.5 426.22,-434.5 213.11,0 314.58,141.5 314.58,444.6 v 192 h -324.73 v 404.2 h 740.79 v -596.2 c 0,-202.1 -20.29,-323.4 -81.18,-444.6"
         style="fill:#231f20;fill-opacity:1;fill-rule:nonzero;stroke:none"
         transform="matrix(0.13333333,0,0,-0.13333333,0,2880.6667)" />
      <path
         id="path7"
         d="m 9683.8,16382.5 v 1303.6 h -786.58 v -1303.6 h -413.48 v 2880 h 413.48 v -1172.2 h 786.58 v 1172.2 h 413.5 v -2880 h -413.5"
         style="fill:#231f20;fill-opacity:1;fill-rule:nonzero;stroke:none"
         transform="matrix(0.13333333,0,0,-0.13333333,0,2880.6667)" />
      <path
         id="path8"
         d="m 5315.03,16382.5 v 2880 h 403.19 v -2880 h -403.19"
         style="fill:#231f20;fill-opacity:1;fill-rule:nonzero;stroke:none"
         transform="matrix(0.13333333,0,0,-0.13333333,0,2880.6667)" />
      <path
         id="path9"
         d="m 3442.3,16382.5 v 2880 h 415.52 v -2496 h 1054.01 v -384 H 3442.3"
         style="fill:#231f20;fill-opacity:1;fill-rule:nonzero;stroke:none"
         transform="matrix(0.13333333,0,0,-0.13333333,0,2880.6667)" />
      <path
         id="path10"
         d="m 13049.2,17712.5 c -124.6,80.8 -245.5,161.8 -322.8,216.1 -232.2,163.4 -355.2,384 -355.2,636.6 0,414.4 324.8,747.8 740.8,747.8 405.9,0 720.5,-313.2 730.7,-747.8 h -395.8 c -10.1,202.2 -152.2,333.5 -334.9,333.5 -192.8,0 -345,-141.5 -345,-333.5 0,-141.4 60.9,-222.3 274,-343.5 558.1,-323.4 801.7,-636.7 801.7,-1051 0,-464.8 -355.2,-838.7 -801.7,-838.7 -507.4,0 -811.8,424.4 -811.8,899.3 h 405.9 c 0,-242.5 121.8,-495.1 405.9,-495.1 223.3,0 405.9,202.1 405.9,434.5 0,180.5 -74.6,332.5 -397.7,541.8"
         style="fill:#231f20;fill-opacity:1;fill-rule:nonzero;stroke:none"
         transform="matrix(0.13333333,0,0,-0.13333333,0,2880.6667)" />
      <path
         id="path11"
         d="m 11443,18878.5 v -2496 h -415.5 v 2496 h -527.1 v 384 H 11970 v -384 h -527"
         style="fill:#231f20;fill-opacity:1;fill-rule:nonzero;stroke:none"
         transform="matrix(0.13333333,0,0,-0.13333333,0,2880.6667)" />
      <path
         id="path12"
         d="m 13084.4,7376.2 c -111.6,-252.7 -345.1,-404.2 -639.3,-404.2 -345.1,0 -598.8,171.7 -740.8,495.1 -91.4,212.2 -152.3,616.4 -152.3,990.3 0,404.2 30.5,697.3 132,970.1 101.4,303.2 395.7,525.5 730.6,525.5 416.1,0 730.7,-303.1 750.9,-727.6 h -416 c -10.2,192 -142.1,323.4 -345,323.4 -142.1,0 -253.7,-70.7 -324.8,-212.2 -81.1,-141.5 -131.9,-464.8 -131.9,-808.4 0,-242.6 20.3,-495.2 60.9,-717.5 60.9,-282.9 202.9,-434.5 426.2,-434.5 213.1,0 314.6,141.4 314.6,444.6 v 192 h -324.7 V 8417 h 740.7 v -596.2 c 0,-202.1 -20.2,-323.4 -81.1,-444.6"
         style="fill:#231f20;fill-opacity:1;fill-rule:nonzero;stroke:none"
         transform="matrix(0.13333333,0,0,-0.13333333,0,2880.6667)" />
      <path
         id="path13"
         d="m 8325.71,7022.5 v 2880 h 403.2 v -2880 h -403.2"
         style="fill:#231f20;fill-opacity:1;fill-rule:nonzero;stroke:none"
         transform="matrix(0.13333333,0,0,-0.13333333,0,2880.6667)" />
      <path
         id="path14"
         d="M 10663.4,7022.5 9775.98,8952.6 V 7022.5 h -413.46 v 2880 h 413.46 l 786.62,-1728 v 1728 h 413.4 v -2880 h -312.6"
         style="fill:#231f20;fill-opacity:1;fill-rule:nonzero;stroke:none"
         transform="matrix(0.13333333,0,0,-0.13333333,0,2880.6667)" />
      <path
         id="path15"
         d="m 7042.66,8352.5 c -124.6,80.7 -245.59,161.7 -322.83,216.1 -232.18,163.4 -355.18,384 -355.18,636.6 0,414.4 324.74,747.8 740.81,747.8 405.91,0 720.5,-313.3 730.65,-747.8 h -395.78 c -10.13,202.1 -152.2,333.5 -334.87,333.5 -192.81,0 -345.03,-141.5 -345.03,-333.5 0,-141.5 60.88,-222.3 273.99,-343.6 558.14,-323.3 801.69,-636.6 801.69,-1050.9 0,-464.8 -355.18,-838.7 -801.69,-838.7 -507.4,0 -811.83,424.4 -811.83,899.3 h 405.91 c 0,-242.5 121.77,-495.1 405.92,-495.1 223.26,0 405.91,202.1 405.91,434.5 0,180.5 -74.57,332.5 -397.67,541.8"
         style="fill:#231f20;fill-opacity:1;fill-rule:nonzero;stroke:none"
         transform="matrix(0.13333333,0,0,-0.13333333,0,2880.6667)" />
      <path
         id="path16"
         d="M 5622.06,7376.2 C 5480.87,7143.7 5208.58,6972 4936.31,6972 c -282.37,0 -564.75,161.7 -705.92,404.2 -80.68,151.6 -110.94,272.8 -110.94,505.2 v 2021.1 h 413.47 V 7830.9 c 0,-272.8 161.36,-454.7 403.39,-454.7 221.85,0 383.21,181.9 383.21,454.7 v 2071.6 h 413.47 V 7881.4 c 0,-232.4 -30.26,-353.6 -110.93,-505.2"
         style="fill:#231f20;fill-opacity:1;fill-rule:nonzero;stroke:none"
         transform="matrix(0.13333333,0,0,-0.13333333,0,2880.6667)" />
      <path
         id="path17"
         d="m 12121.2,11702.5 v 2880 h 1358 v -404.2 h -942.5 v -727.6 h 597.9 v -394.1 h -597.9 v -949.9 h 1054 v -404.2 h -1469.5"
         style="fill:#231f20;fill-opacity:1;fill-rule:nonzero;stroke:none"
         transform="matrix(0.13333333,0,0,-0.13333333,0,2880.6667)" />
      <path
         id="path18"
         d="m 11074.1,11702.5 v 1303.6 h -786.6 v -1303.6 h -413.45 v 2880 h 413.45 v -1172.2 h 786.6 v 1172.2 h 413.5 v -2880 h -413.5"
         style="fill:#231f20;fill-opacity:1;fill-rule:nonzero;stroke:none"
         transform="matrix(0.13333333,0,0,-0.13333333,0,2880.6667)" />
      <path
         id="path19"
         d="m 5168,11702.5 -887.43,1930.1 V 11702.5 H 3867.1 v 2880 h 413.47 l 786.58,-1728 v 1728 h 413.47 v -2880 H 5168"
         style="fill:#231f20;fill-opacity:1;fill-rule:nonzero;stroke:none"
         transform="matrix(0.13333333,0,0,-0.13333333,0,2880.6667)" />
      <path
         id="path20"
         d="m 15381.2,11702.5 -887.4,1930.1 v -1930.1 h -413.5 v 2880 h 413.5 l 786.6,-1728 v 1728 h 413.4 v -2880 h -312.6"
         style="fill:#231f20;fill-opacity:1;fill-rule:nonzero;stroke:none"
         transform="matrix(0.13333333,0,0,-0.13333333,0,2880.6667)" />
      <path
         id="path21"
         d="m 2802.5,13865 c -71.25,252.7 -183.22,363.8 -356.27,363.8 -183.22,0 -295.19,-111.1 -366.44,-353.7 -71.26,-222.3 -91.62,-414.3 -91.62,-737.7 0,-313.2 30.54,-495.1 91.62,-727.5 71.25,-242.6 183.22,-353.7 366.44,-353.7 173.05,0 285.02,111.1 356.27,353.7 71.26,232.4 91.61,404.2 91.61,737.6 0,323.4 -30.54,505.3 -91.61,717.5 z m 325.73,-1717.9 c -142.51,-343.6 -356.27,-495.2 -682,-495.2 -346.09,0 -549.67,151.6 -692.18,495.2 -122.16,283 -162.87,555.8 -162.87,1000.4 0,434.6 40.71,727.6 162.87,1000.5 152.69,343.5 356.27,485 692.18,485 335.92,0 539.49,-141.5 682,-495.1 122.16,-283 162.87,-555.8 162.87,-990.4 0,-444.6 -40.71,-727.5 -162.87,-1000.4"
         style="fill:#231f20;fill-opacity:1;fill-rule:nonzero;stroke:none"
         transform="matrix(0.13333333,0,0,-0.13333333,0,2880.6667)" />
      <path
         id="path22"
         d="m 9004.41,11702.5 h -354.89 l -273.79,1505.7 -273.78,-1505.7 h -365.04 l -456.29,2880 h 405.59 l 243.37,-1536 283.92,1536 h 324.48 l 273.78,-1536 253.5,1536 h 405.6 l -466.45,-2880"
         style="fill:#231f20;fill-opacity:1;fill-rule:nonzero;stroke:none"
         transform="matrix(0.13333333,0,0,-0.13333333,0,2880.6667)" />
      <path
         id="path23"
         d="m 8786.5,2342.5 v 2880 h 1358 v -404.2 h -942.49 v -727.6 h 597.95 V 3696.6 H 9202.01 V 2746.7 H 10256 V 2342.5 H 8786.5"
         style="fill:#231f20;fill-opacity:1;fill-rule:nonzero;stroke:none"
         transform="matrix(0.13333333,0,0,-0.13333333,0,2880.6667)" />
      <path
         id="path24"
         d="m 5560.17,2342.5 v 2880 h 403.19 v -2880 h -403.19"
         style="fill:#231f20;fill-opacity:1;fill-rule:nonzero;stroke:none"
         transform="matrix(0.13333333,0,0,-0.13333333,0,2880.6667)" />
      <path
         id="path25"
         d="m 7433.97,4818.3 h -423.55 v -818.6 h 423.55 c 242.04,0 373.13,151.6 373.13,414.4 0,242.5 -151.27,404.2 -373.13,404.2 z m 20.18,-1212.7 H 7010.42 V 2342.5 h -413.46 v 2880 h 857.19 c 453.79,0 756.33,-323.4 756.33,-808.4 0,-525.5 -272.29,-808.5 -756.33,-808.5"
         style="fill:#231f20;fill-opacity:1;fill-rule:nonzero;stroke:none"
         transform="matrix(0.13333333,0,0,-0.13333333,0,2880.6667)" />
      <path
         id="path26"
         d="m 11582.7,4818.3 h -423.6 v -727.6 h 423.6 c 242,0 373.1,131.4 373.1,363.8 0,222.3 -151.3,363.8 -373.1,363.8 z m 352.9,-2475.8 -383.2,1354.1 h -393.3 V 2342.5 h -413.5 v 2880 h 857.2 c 453.8,0 756.4,-303.2 756.4,-768 0,-343.6 -141.2,-596.2 -413.5,-697.3 l 413.5,-1414.7 h -423.6"
         style="fill:#231f20;fill-opacity:1;fill-rule:nonzero;stroke:none"
         transform="matrix(0.13333333,0,0,-0.13333333,0,2880.6667)" />
      <path
         id="path27"
         d="m 13524.8,3672.5 c -124.6,80.7 -245.6,161.7 -322.8,216.1 -232.2,163.4 -355.2,384 -355.2,636.6 0,414.4 324.8,747.8 740.8,747.8 405.9,0 720.5,-313.3 730.7,-747.8 h -395.8 c -10.1,202.1 -152.2,333.5 -334.9,333.5 -192.8,0 -345,-141.5 -345,-333.5 0,-141.5 60.9,-222.3 274,-343.6 558.1,-323.3 801.7,-636.6 801.7,-1050.9 0,-464.8 -355.2,-838.7 -801.7,-838.7 -507.4,0 -811.9,424.4 -811.9,899.3 h 406 c 0,-242.5 121.7,-495.1 405.9,-495.1 223.2,0 405.9,202.1 405.9,434.5 0,180.5 -74.6,332.5 -397.7,541.8"
         style="fill:#231f20;fill-opacity:1;fill-rule:nonzero;stroke:none"
         transform="matrix(0.13333333,0,0,-0.13333333,0,2880.6667)" />
      <path
         id="path28"
         d="M 4690.52,2342.5 H 4335.63 L 4061.84,3848.2 3788.06,2342.5 h -365.04 l -456.3,2880 h 405.6 l 243.37,-1536 283.91,1536 h 324.49 l 273.78,-1536 253.5,1536 h 405.6 l -466.45,-2880"
         style="fill:#231f20;fill-opacity:1;fill-rule:nonzero;stroke:none"
         transform="matrix(0.13333333,0,0,-0.13333333,0,2880.6667)" />
    </g>
  </g>
</svg>
