<?xml version="1.0" standalone="no"?>
<svg width="1728px" height="2160px" viewBox="0 -1368 1728 2160 " xmlns="http://www.w3.org/2000/svg" xmlns:xlink="http://www.w3.org/1999/xlink">
<title>generated by pstoedit</title>
<!-- generated by pstoedit version:4.02 -->
<g xml:space='preserve'>
<clipPath id="clippath1"> 	<path d="
	M 0 -1368.5 
	L 0 792 
	L 1728.5 792 
	L 1728.5 -1368.5 
	Z 
	" style="clip-rule:nonzero"/>
</clipPath>
<g style="clip-path:url(#clippath1)"> 
<g fill="#ffffff" fill-rule="nonzero" stroke-width="0" stroke-linejoin="miter" stroke-linecap="butt" stroke-miterlimit="10" >
	<path d="
	M 1728.25 683.75 
	C 1728.25 743.398 1679.9 791.75 1620.25 791.75 
	L 108.25 791.75 
	C 48.6016 791.75 0.25 743.398 0.25 683.75 
	L 0.25 -1260.25 
	C 0.25 -1319.9 48.6016 -1368.25 108.25 -1368.25 
	L 1620.25 -1368.25 
	C 1679.9 -1368.25 1728.25 -1319.9 1728.25 -1260.25 
	Z 
	"/>
</g>
<g stroke="#7f7f7f" fill="none" stroke-width="0.5" stroke-linejoin="miter" stroke-linecap="butt" stroke-miterlimit="4" >
	<path d="
	M 1728.25 683.75 
	C 1728.25 743.398 1679.9 791.75 1620.25 791.75 
	L 108.25 791.75 
	C 48.6016 791.75 0.25 743.398 0.25 683.75 
	L 0.25 -1260.25 
	C 0.25 -1319.9 48.6016 -1368.25 108.25 -1368.25 
	L 1620.25 -1368.25 
	C 1679.9 -1368.25 1728.25 -1319.9 1728.25 -1260.25 
	Z 
	"/>
</g>
<g fill="#7f7f7f" fill-rule="nonzero" stroke-width="0" stroke-linejoin="miter" stroke-linecap="butt" stroke-miterlimit="4" >
	<path d="
	M 108.25 764.75 
	C 63.5859 764.75 27.25 728.41 27.25 683.75 
	L 27.25 -1260.25 
	C 27.25 -1304.91 63.5859 -1341.25 108.25 -1341.25 
	L 1620.25 -1341.25 
	C 1664.91 -1341.25 1701.25 -1304.91 1701.25 -1260.25 
	L 1701.25 683.75 
	C 1701.25 728.41 1664.91 764.75 1620.25 764.75 
	Z 
	"/>
</g>
<g fill="#ffffff" fill-rule="nonzero" stroke-width="0" stroke-linejoin="miter" stroke-linecap="butt" stroke-miterlimit="4" >
	<path d="
	M 108.25 719.75 
	C 88.3984 719.75 72.25 703.602 72.25 683.75 
	L 72.25 -1260.25 
	C 72.25 -1280.1 88.3984 -1296.25 108.25 -1296.25 
	L 1620.25 -1296.25 
	C 1640.1 -1296.25 1656.25 -1280.1 1656.25 -1260.25 
	L 1656.25 683.75 
	C 1656.25 703.602 1640.1 719.75 1620.25 719.75 
	Z 
	"/>
</g>
<g fill="#7f7f7f" fill-rule="nonzero" stroke-width="0" stroke-linejoin="miter" stroke-linecap="butt" stroke-miterlimit="4" >
	<path d="
	M 782.656 -881.62 
	C 771.492 -856.36 748.152 -841.2 718.727 -841.2 
	C 684.223 -841.2 658.852 -858.38 644.645 -890.71 
	C 635.512 -911.93 629.422 -952.36 629.422 -989.75 
	C 629.422 -1030.16 632.469 -1059.47 642.613 -1086.76 
	C 652.762 -1117.07 682.191 -1139.3 715.68 -1139.3 
	C 757.285 -1139.3 788.746 -1108.99 790.773 -1066.55 
	L 749.168 -1066.55 
	C 748.152 -1085.75 734.961 -1098.88 714.664 -1098.88 
	C 700.457 -1098.88 689.297 -1091.81 682.191 -1077.66 
	C 674.074 -1063.52 669 -1031.18 669 -996.82 
	C 669 -972.57 671.027 -947.3 675.09 -925.07 
	C 681.176 -896.78 695.383 -881.62 717.711 -881.62 
	C 739.02 -881.62 749.168 -895.77 749.168 -926.08 
	L 749.168 -945.28 
	L 716.695 -945.28 
	L 716.695 -985.7 
	L 790.773 -985.7 
	L 790.773 -926.08 
	C 790.773 -905.87 788.746 -893.74 782.656 -881.62 
	Z 
	"/>
</g>
<g fill="#7f7f7f" fill-rule="nonzero" stroke-width="0" stroke-linejoin="miter" stroke-linecap="butt" stroke-miterlimit="4" >
	<path d="
	M 968.379 -846.25 
	L 968.379 -976.61 
	L 889.723 -976.61 
	L 889.723 -846.25 
	L 848.375 -846.25 
	L 848.375 -1134.25 
	L 889.723 -1134.25 
	L 889.723 -1017.03 
	L 968.379 -1017.03 
	L 968.379 -1134.25 
	L 1009.73 -1134.25 
	L 1009.73 -846.25 
	Z 
	"/>
</g>
<g fill="#7f7f7f" fill-rule="nonzero" stroke-width="0" stroke-linejoin="miter" stroke-linecap="butt" stroke-miterlimit="4" >
	<path d="
	M 531.504 -846.25 
	L 531.504 -1134.25 
	L 571.82 -1134.25 
	L 571.82 -846.25 
	Z 
	"/>
</g>
<g fill="#7f7f7f" fill-rule="nonzero" stroke-width="0" stroke-linejoin="miter" stroke-linecap="butt" stroke-miterlimit="4" >
	<path d="
	M 344.23 -846.25 
	L 344.23 -1134.25 
	L 385.781 -1134.25 
	L 385.781 -884.65 
	L 491.184 -884.65 
	L 491.184 -846.25 
	Z 
	"/>
</g>
<g fill="#7f7f7f" fill-rule="nonzero" stroke-width="0" stroke-linejoin="miter" stroke-linecap="butt" stroke-miterlimit="4" >
	<path d="
	M 1304.92 -979.25 
	C 1292.46 -987.32 1280.37 -995.43 1272.64 -1000.86 
	C 1249.42 -1017.2 1237.12 -1039.26 1237.12 -1064.52 
	C 1237.12 -1105.96 1269.6 -1139.3 1311.2 -1139.3 
	C 1351.79 -1139.3 1383.25 -1107.98 1384.27 -1064.52 
	L 1344.69 -1064.52 
	C 1343.68 -1084.73 1329.47 -1097.87 1311.2 -1097.87 
	C 1291.92 -1097.87 1276.7 -1083.72 1276.7 -1064.52 
	C 1276.7 -1050.38 1282.79 -1042.29 1304.1 -1030.16 
	C 1359.91 -997.83 1384.27 -966.5 1384.27 -925.07 
	C 1384.27 -878.59 1348.75 -841.2 1304.1 -841.2 
	C 1253.36 -841.2 1222.92 -883.64 1222.92 -931.13 
	L 1263.51 -931.13 
	C 1263.51 -906.88 1275.69 -881.62 1304.1 -881.62 
	C 1326.43 -881.62 1344.69 -901.83 1344.69 -925.07 
	C 1344.69 -943.12 1337.23 -958.32 1304.92 -979.25 
	Z 
	"/>
</g>
<g fill="#7f7f7f" fill-rule="nonzero" stroke-width="0" stroke-linejoin="miter" stroke-linecap="butt" stroke-miterlimit="4" >
	<path d="
	M 1144.3 -1095.85 
	L 1144.3 -846.25 
	L 1102.75 -846.25 
	L 1102.75 -1095.85 
	L 1050.04 -1095.85 
	L 1050.04 -1134.25 
	L 1197 -1134.25 
	L 1197 -1095.85 
	Z 
	"/>
</g>
<g fill="#7f7f7f" fill-rule="nonzero" stroke-width="0" stroke-linejoin="miter" stroke-linecap="butt" stroke-miterlimit="4" >
	<path d="
	M 1027.46 -378.25 
	L 938.719 -571.26 
	L 938.719 -378.25 
	L 897.371 -378.25 
	L 897.371 -666.25 
	L 938.719 -666.25 
	L 1017.38 -493.45 
	L 1017.38 -666.25 
	L 1058.72 -666.25 
	L 1058.72 -378.25 
	Z 
	"/>
</g>
<g fill="#7f7f7f" fill-rule="nonzero" stroke-width="0" stroke-linejoin="miter" stroke-linecap="butt" stroke-miterlimit="4" >
	<path d="
	M 790.91 -594.5 
	C 783.785 -619.77 772.59 -630.88 755.281 -630.88 
	C 736.961 -630.88 725.766 -619.77 718.641 -595.51 
	C 711.512 -573.28 709.477 -554.08 709.477 -521.74 
	C 709.477 -490.42 712.531 -472.23 718.641 -448.98 
	C 725.766 -424.73 736.961 -413.62 755.281 -413.62 
	C 772.59 -413.62 783.785 -424.73 790.91 -448.98 
	C 798.035 -472.23 800.07 -489.41 800.07 -522.75 
	C 800.07 -555.09 797.02 -573.28 790.91 -594.5 
	Z 
	M 823.484 -422.71 
	C 809.23 -388.36 787.855 -373.2 755.281 -373.2 
	C 720.676 -373.2 700.316 -388.36 686.066 -422.71 
	C 673.852 -451.01 669.777 -478.29 669.777 -522.75 
	C 669.777 -566.21 673.852 -595.51 686.066 -622.8 
	C 701.336 -657.15 721.691 -671.3 755.281 -671.3 
	C 788.875 -671.3 809.23 -657.15 823.484 -621.79 
	C 835.699 -593.49 839.77 -566.21 839.77 -522.75 
	C 839.77 -478.29 835.699 -450 823.484 -422.71 
	Z 
	"/>
</g>
<g fill="#7f7f7f" fill-rule="nonzero" stroke-width="0" stroke-linejoin="miter" stroke-linecap="butt" stroke-miterlimit="4" >
	<path d="
	M 927.645 89.75 
	L 927.645 -198.25 
	L 1063.45 -198.25 
	L 1063.45 -157.828 
	L 969.195 -157.828 
	L 969.195 -85.07 
	L 1028.99 -85.07 
	L 1028.99 -45.66 
	L 969.195 -45.66 
	L 969.195 49.328 
	L 1074.6 49.328 
	L 1074.6 89.75 
	Z 
	"/>
</g>
<g fill="#7f7f7f" fill-rule="nonzero" stroke-width="0" stroke-linejoin="miter" stroke-linecap="butt" stroke-miterlimit="4" >
	<path d="
	M 822.938 89.75 
	L 822.938 -40.609 
	L 744.281 -40.609 
	L 744.281 89.75 
	L 702.934 89.75 
	L 702.934 -198.25 
	L 744.281 -198.25 
	L 744.281 -81.031 
	L 822.938 -81.031 
	L 822.938 -198.25 
	L 864.285 -198.25 
	L 864.285 89.75 
	Z 
	"/>
</g>
<g fill="#7f7f7f" fill-rule="nonzero" stroke-width="0" stroke-linejoin="miter" stroke-linecap="butt" stroke-miterlimit="4" >
	<path d="
	M 1253.65 89.75 
	L 1164.91 -103.262 
	L 1164.91 89.75 
	L 1123.56 89.75 
	L 1123.56 -198.25 
	L 1164.91 -198.25 
	L 1243.56 -25.449 
	L 1243.56 -198.25 
	L 1284.91 -198.25 
	L 1284.91 89.75 
	Z 
	"/>
</g>
<g fill="#7f7f7f" fill-rule="nonzero" stroke-width="0" stroke-linejoin="miter" stroke-linecap="butt" stroke-miterlimit="4" >
	<path d="
	M 615.969 89.75 
	L 580.48 89.75 
	L 553.102 -60.82 
	L 525.723 89.75 
	L 489.219 89.75 
	L 443.59 -198.25 
	L 484.148 -198.25 
	L 508.484 -44.648 
	L 536.879 -198.25 
	L 569.324 -198.25 
	L 596.703 -44.648 
	L 622.055 -198.25 
	L 662.613 -198.25 
	Z 
	"/>
</g>
<g fill="#7f7f7f" fill-rule="nonzero" stroke-width="0" stroke-linejoin="miter" stroke-linecap="butt" stroke-miterlimit="4" >
	<path d="
	M 530.523 355.648 
	L 510.262 438.512 
	L 551.801 438.512 
	Z 
	M 582.195 557.75 
	L 561.934 478.93 
	L 500.129 478.93 
	L 480.883 557.75 
	L 439.34 557.75 
	L 511.273 269.75 
	L 551.801 269.75 
	L 623.734 557.75 
	Z 
	"/>
</g>
<g fill="#7f7f7f" fill-rule="nonzero" stroke-width="0" stroke-linejoin="miter" stroke-linecap="butt" stroke-miterlimit="4" >
	<path d="
	M 1468.31 522.379 
	C 1457.15 547.648 1433.81 562.801 1404.38 562.801 
	C 1369.88 562.801 1344.51 545.629 1330.3 513.289 
	C 1321.17 492.07 1315.08 451.648 1315.08 414.262 
	C 1315.08 373.84 1318.12 344.531 1328.27 317.25 
	C 1338.42 286.93 1367.85 264.699 1401.34 264.699 
	C 1442.94 264.699 1474.4 295.012 1476.43 337.461 
	L 1434.82 337.461 
	C 1433.81 318.262 1420.62 305.121 1400.32 305.121 
	C 1386.11 305.121 1374.95 312.191 1367.85 326.34 
	C 1359.73 340.488 1354.66 372.828 1354.66 407.18 
	C 1354.66 431.441 1356.69 456.699 1360.74 478.93 
	C 1366.83 507.23 1381.04 522.379 1403.37 522.379 
	C 1424.68 522.379 1434.82 508.238 1434.82 477.922 
	L 1434.82 458.719 
	L 1402.35 458.719 
	L 1402.35 418.301 
	L 1476.43 418.301 
	L 1476.43 477.922 
	C 1476.43 498.129 1474.4 510.262 1468.31 522.379 
	Z 
	"/>
</g>
<g fill="#7f7f7f" fill-rule="nonzero" stroke-width="0" stroke-linejoin="miter" stroke-linecap="butt" stroke-miterlimit="4" >
	<path d="
	M 664.055 557.75 
	L 664.055 269.75 
	L 704.371 269.75 
	L 704.371 557.75 
	Z 
	"/>
</g>
<g fill="#7f7f7f" fill-rule="nonzero" stroke-width="0" stroke-linejoin="miter" stroke-linecap="butt" stroke-miterlimit="4" >
	<path d="
	M 992.445 557.75 
	L 992.445 269.75 
	L 1032.77 269.75 
	L 1032.77 557.75 
	Z 
	"/>
</g>
<g fill="#7f7f7f" fill-rule="nonzero" stroke-width="0" stroke-linejoin="miter" stroke-linecap="butt" stroke-miterlimit="4" >
	<path d="
	M 897.824 557.75 
	L 809.082 364.738 
	L 809.082 557.75 
	L 767.734 557.75 
	L 767.734 269.75 
	L 809.082 269.75 
	L 887.738 442.551 
	L 887.738 269.75 
	L 929.086 269.75 
	L 929.086 557.75 
	Z 
	"/>
</g>
<g fill="#7f7f7f" fill-rule="nonzero" stroke-width="0" stroke-linejoin="miter" stroke-linecap="butt" stroke-miterlimit="4" >
	<path d="
	M 1226.22 557.75 
	L 1137.47 364.738 
	L 1137.47 557.75 
	L 1096.13 557.75 
	L 1096.13 269.75 
	L 1137.47 269.75 
	L 1216.13 442.551 
	L 1216.13 269.75 
	L 1257.48 269.75 
	L 1257.48 557.75 
	Z 
	"/>
</g>
<g fill="#7f7f7f" fill-rule="nonzero" stroke-width="0" stroke-linejoin="miter" stroke-linecap="butt" stroke-miterlimit="4" >
	<path d="
	M 335.77 310.172 
	L 293.414 310.172 
	L 293.414 382.93 
	L 335.77 382.93 
	C 359.973 382.93 373.082 369.789 373.082 346.551 
	C 373.082 324.32 357.957 310.172 335.77 310.172 
	Z 
	M 371.066 557.75 
	L 332.746 422.34 
	L 293.414 422.34 
	L 293.414 557.75 
	L 252.07 557.75 
	L 252.07 269.75 
	L 337.785 269.75 
	C 383.168 269.75 413.422 300.07 413.422 346.551 
	C 413.422 380.91 399.305 406.172 372.074 416.281 
	L 413.422 557.75 
	Z 
	"/>
</g>
</g >
</g>
</svg>
