<?xml version="1.0" encoding="UTF-8" standalone="no"?>
<!-- Created with Inkscape (http://www.inkscape.org/) -->

<svg
   version="1.1"
   id="svg1"
   width="2304.6667"
   height="2880.6667"
   viewBox="0 0 2304.6667 2880.6667"
   sodipodi:docname="tmpbtp8otx1.pdf"
   xmlns:inkscape="http://www.inkscape.org/namespaces/inkscape"
   xmlns:sodipodi="http://sodipodi.sourceforge.net/DTD/sodipodi-0.dtd"
   xmlns="http://www.w3.org/2000/svg"
   xmlns:svg="http://www.w3.org/2000/svg">
  <defs
     id="defs1" />
  <sodipodi:namedview
     id="namedview1"
     pagecolor="#ffffff"
     bordercolor="#000000"
     borderopacity="0.25"
     inkscape:showpageshadow="2"
     inkscape:pageopacity="0.0"
     inkscape:pagecheckerboard="0"
     inkscape:deskcolor="#d1d1d1">
    <inkscape:page
       x="0"
       y="0"
       inkscape:label="1"
       id="page1"
       width="2304.6667"
       height="2880.6667"
       margin="0"
       bleed="0" />
  </sodipodi:namedview>
  <g
     id="g1"
     inkscape:groupmode="layer"
     inkscape:label="1">
    <g
       id="group-R5">
      <path
         id="path2"
         d="M 17282.5,1082.5 C 17282.5,486 16799,2.5 16202.5,2.5 H 1082.5 C 486.031,2.5 2.5,486 2.5,1082.5 v 19440 c 0,596.5 483.531,1080 1080,1080 h 15120 c 596.5,0 1080,-483.5 1080,-1080 v -19440"
         style="fill:#ffffff;fill-opacity:1;fill-rule:nonzero;stroke:none"
         transform="matrix(0.13333333,0,0,-0.13333333,0,2880.6667)" />
      <path
         id="path3"
         d="M 17282.5,1082.5 C 17282.5,486 16799,2.5 16202.5,2.5 H 1082.5 C 486.031,2.5 2.5,486 2.5,1082.5 v 19440 c 0,596.5 483.531,1080 1080,1080 h 15120 c 596.5,0 1080,-483.5 1080,-1080 z"
         style="fill:none;stroke:#231f20;stroke-width:5;stroke-linecap:butt;stroke-linejoin:miter;stroke-miterlimit:4;stroke-dasharray:none;stroke-opacity:1"
         transform="matrix(0.13333333,0,0,-0.13333333,0,2880.6667)" />
      <path
         id="path4"
         d="m 1082.5,272.5 c -446.637,0 -810,363.402 -810,810 v 19440 c 0,446.6 363.363,810 810,810 h 15120 c 446.6,0 810,-363.4 810,-810 v -19440 c 0,-446.598 -363.4,-810 -810,-810 h -15120"
         style="fill:#231f20;fill-opacity:1;fill-rule:nonzero;stroke:none"
         transform="matrix(0.13333333,0,0,-0.13333333,0,2880.6667)" />
      <path
         id="path5"
         d="m 1082.5,722.5 c -198.508,0 -360,161.5 -360,360 v 19440 c 0,198.5 161.492,360 360,360 h 15120 c 198.5,0 360,-161.5 360,-360 v -19440 c 0,-198.5 -161.5,-360 -360,-360 h -15120"
         style="fill:#ffffff;fill-opacity:1;fill-rule:nonzero;stroke:none"
         transform="matrix(0.13333333,0,0,-0.13333333,0,2880.6667)" />
      <path
         id="path6"
         d="m 7826.56,16736.2 c -111.62,-252.6 -345.03,-404.2 -639.31,-404.2 -345.03,0 -598.72,171.8 -740.79,495.1 -91.34,212.3 -152.23,616.5 -152.23,990.3 0,404.3 30.45,697.3 131.92,970.2 101.48,303.1 395.77,525.4 730.66,525.4 416.05,0 730.64,-303.1 750.93,-727.6 h -416.06 c -10.15,192 -142.06,323.4 -345.03,323.4 -142.07,0 -253.7,-70.7 -324.73,-212.2 -81.18,-141.5 -131.92,-464.8 -131.92,-808.4 0,-242.5 20.29,-495.2 60.88,-717.5 60.89,-282.9 202.96,-434.5 426.22,-434.5 213.11,0 314.58,141.5 314.58,444.6 v 192 h -324.73 v 404.2 h 740.79 v -596.2 c 0,-202.1 -20.29,-323.4 -81.18,-444.6"
         style="fill:#231f20;fill-opacity:1;fill-rule:nonzero;stroke:none"
         transform="matrix(0.13333333,0,0,-0.13333333,0,2880.6667)" />
      <path
         id="path7"
         d="m 9683.8,16382.5 v 1303.6 h -786.58 v -1303.6 h -413.48 v 2880 h 413.48 v -1172.2 h 786.58 v 1172.2 h 413.5 v -2880 h -413.5"
         style="fill:#231f20;fill-opacity:1;fill-rule:nonzero;stroke:none"
         transform="matrix(0.13333333,0,0,-0.13333333,0,2880.6667)" />
      <path
         id="path8"
         d="m 5315.03,16382.5 v 2880 h 403.19 v -2880 h -403.19"
         style="fill:#231f20;fill-opacity:1;fill-rule:nonzero;stroke:none"
         transform="matrix(0.13333333,0,0,-0.13333333,0,2880.6667)" />
      <path
         id="path9"
         d="m 3442.3,16382.5 v 2880 h 415.52 v -2496 h 1054.01 v -384 H 3442.3"
         style="fill:#231f20;fill-opacity:1;fill-rule:nonzero;stroke:none"
         transform="matrix(0.13333333,0,0,-0.13333333,0,2880.6667)" />
      <path
         id="path10"
         d="m 13049.2,17712.5 c -124.6,80.8 -245.5,161.8 -322.8,216.1 -232.2,163.4 -355.2,384 -355.2,636.6 0,414.4 324.8,747.8 740.8,747.8 405.9,0 720.5,-313.2 730.7,-747.8 h -395.8 c -10.1,202.2 -152.2,333.5 -334.9,333.5 -192.8,0 -345,-141.5 -345,-333.5 0,-141.4 60.9,-222.3 274,-343.5 558.1,-323.4 801.7,-636.7 801.7,-1051 0,-464.8 -355.2,-838.7 -801.7,-838.7 -507.4,0 -811.8,424.4 -811.8,899.3 h 405.9 c 0,-242.5 121.8,-495.1 405.9,-495.1 223.3,0 405.9,202.1 405.9,434.5 0,180.5 -74.6,332.5 -397.7,541.8"
         style="fill:#231f20;fill-opacity:1;fill-rule:nonzero;stroke:none"
         transform="matrix(0.13333333,0,0,-0.13333333,0,2880.6667)" />
      <path
         id="path11"
         d="m 11443,18878.5 v -2496 h -415.5 v 2496 h -527.1 v 384 H 11970 v -384 h -527"
         style="fill:#231f20;fill-opacity:1;fill-rule:nonzero;stroke:none"
         transform="matrix(0.13333333,0,0,-0.13333333,0,2880.6667)" />
      <path
         id="path12"
         d="m 10274.6,11702.5 -887.43,1930.1 V 11702.5 H 8973.7 v 2880 h 413.47 l 786.63,-1728 v 1728 h 413.4 v -2880 h -312.6"
         style="fill:#231f20;fill-opacity:1;fill-rule:nonzero;stroke:none"
         transform="matrix(0.13333333,0,0,-0.13333333,0,2880.6667)" />
      <path
         id="path13"
         d="m 7909.1,13865 c -71.25,252.7 -183.22,363.8 -356.27,363.8 -183.22,0 -295.19,-111.1 -366.44,-353.7 -71.26,-222.3 -91.61,-414.3 -91.61,-737.7 0,-313.2 30.53,-495.1 91.61,-727.5 71.25,-242.6 183.22,-353.7 366.44,-353.7 173.05,0 285.02,111.1 356.27,353.7 71.26,232.4 91.61,404.2 91.61,737.6 0,323.4 -30.53,505.3 -91.61,717.5 z m 325.73,-1717.9 c -142.51,-343.6 -356.27,-495.2 -682,-495.2 -346.09,0 -549.67,151.6 -692.18,495.2 -122.15,283 -162.87,555.8 -162.87,1000.4 0,434.6 40.72,727.6 162.87,1000.5 152.69,343.5 356.27,485 692.18,485 335.92,0 539.49,-141.5 682,-495.1 122.16,-283 162.88,-555.8 162.88,-990.4 0,-444.6 -40.72,-727.5 -162.88,-1000.4"
         style="fill:#231f20;fill-opacity:1;fill-rule:nonzero;stroke:none"
         transform="matrix(0.13333333,0,0,-0.13333333,0,2880.6667)" />
      <path
         id="path14"
         d="m 9276.46,7022.5 v 2880 h 1358.04 v -404.2 h -942.54 v -727.6 h 597.94 V 8376.6 H 9691.96 V 7426.7 H 10746 V 7022.5 H 9276.46"
         style="fill:#231f20;fill-opacity:1;fill-rule:nonzero;stroke:none"
         transform="matrix(0.13333333,0,0,-0.13333333,0,2880.6667)" />
      <path
         id="path15"
         d="M 8229.39,7022.5 V 8326.1 H 7442.81 V 7022.5 h -413.47 v 2880 h 413.47 V 8730.3 h 786.58 v 1172.2 h 413.46 v -2880 h -413.46"
         style="fill:#231f20;fill-opacity:1;fill-rule:nonzero;stroke:none"
         transform="matrix(0.13333333,0,0,-0.13333333,0,2880.6667)" />
      <path
         id="path16"
         d="m 12536.5,7022.5 -887.4,1930.1 V 7022.5 h -413.5 v 2880 h 413.5 l 786.5,-1728 v 1728 h 413.5 v -2880 h -312.6"
         style="fill:#231f20;fill-opacity:1;fill-rule:nonzero;stroke:none"
         transform="matrix(0.13333333,0,0,-0.13333333,0,2880.6667)" />
      <path
         id="path17"
         d="M 6159.7,7022.5 H 5804.8 L 5531.02,8528.2 5257.24,7022.5 H 4892.2 l -456.3,2880 h 405.59 l 243.37,-1536 283.92,1536 h 324.48 l 273.78,-1536 253.51,1536 h 405.59 l -466.44,-2880"
         style="fill:#231f20;fill-opacity:1;fill-rule:nonzero;stroke:none"
         transform="matrix(0.13333333,0,0,-0.13333333,0,2880.6667)" />
      <path
         id="path18"
         d="m 5305.23,4363.5 -202.62,-828.6 h 415.4 z m 516.71,-2021 -202.62,788.2 H 5001.3 l -192.49,-788.2 h -415.4 l 719.32,2880 h 405.28 l 719.32,-2880 h -415.39"
         style="fill:#231f20;fill-opacity:1;fill-rule:nonzero;stroke:none"
         transform="matrix(0.13333333,0,0,-0.13333333,0,2880.6667)" />
      <path
         id="path19"
         d="m 14683.1,2696.2 c -111.6,-252.7 -345,-404.2 -639.3,-404.2 -345,0 -598.7,171.7 -740.8,495.1 -91.3,212.2 -152.2,616.4 -152.2,990.3 0,404.2 30.4,697.3 131.9,970.1 101.5,303.2 395.8,525.5 730.7,525.5 416,0 730.6,-303.1 750.9,-727.6 h -416.1 c -10.1,192 -142,323.4 -345,323.4 -142.1,0 -253.7,-70.7 -324.7,-212.2 -81.2,-141.5 -131.9,-464.9 -131.9,-808.4 0,-242.6 20.3,-495.2 60.8,-717.5 60.9,-283 203,-434.5 426.3,-434.5 213.1,0 314.5,141.4 314.5,444.6 v 192 h -324.7 V 3737 h 740.8 v -596.2 c 0,-202.1 -20.3,-323.4 -81.2,-444.6"
         style="fill:#231f20;fill-opacity:1;fill-rule:nonzero;stroke:none"
         transform="matrix(0.13333333,0,0,-0.13333333,0,2880.6667)" />
      <path
         id="path20"
         d="m 6640.54,2342.5 v 2880 h 403.19 v -2880 h -403.19"
         style="fill:#231f20;fill-opacity:1;fill-rule:nonzero;stroke:none"
         transform="matrix(0.13333333,0,0,-0.13333333,0,2880.6667)" />
      <path
         id="path21"
         d="m 9924.46,2342.5 v 2880 h 403.24 v -2880 h -403.24"
         style="fill:#231f20;fill-opacity:1;fill-rule:nonzero;stroke:none"
         transform="matrix(0.13333333,0,0,-0.13333333,0,2880.6667)" />
      <path
         id="path22"
         d="M 8978.24,2342.5 8090.81,4272.6 V 2342.5 h -413.47 v 2880 h 413.47 l 786.58,-1728 v 1728 h 413.47 v -2880 h -312.62"
         style="fill:#231f20;fill-opacity:1;fill-rule:nonzero;stroke:none"
         transform="matrix(0.13333333,0,0,-0.13333333,0,2880.6667)" />
      <path
         id="path23"
         d="m 12262.2,2342.5 -887.5,1930.1 V 2342.5 h -413.4 v 2880 h 413.4 l 786.6,-1728 v 1728 h 413.5 v -2880 h -312.6"
         style="fill:#231f20;fill-opacity:1;fill-rule:nonzero;stroke:none"
         transform="matrix(0.13333333,0,0,-0.13333333,0,2880.6667)" />
      <path
         id="path24"
         d="m 3357.71,4818.3 h -423.55 v -727.6 h 423.55 c 242.03,0 373.12,131.4 373.12,363.8 0,222.3 -151.26,363.8 -373.12,363.8 z M 3710.66,2342.5 3327.45,3696.6 H 2934.16 V 2342.5 h -413.47 v 2880 h 857.18 c 453.81,0 756.34,-303.2 756.34,-768 0,-343.6 -141.18,-596.2 -413.46,-697.3 l 413.46,-1414.7 h -423.55"
         style="fill:#231f20;fill-opacity:1;fill-rule:nonzero;stroke:none"
         transform="matrix(0.13333333,0,0,-0.13333333,0,2880.6667)" />
    </g>
  </g>
</svg>
