<?xml version="1.0" encoding="UTF-8"?>
<svg id="For_Sheets" xmlns="http://www.w3.org/2000/svg" version="1.1" viewBox="0 0 3024 2592">
  <!-- Generator: Adobe Illustrator 29.1.0, SVG Export Plug-In . SVG Version: 2.1.0 Build 142)  -->
  <defs>
    <style>
      .st0 {
        fill: #231f20;
      }

      .st1 {
        fill: #fff;
      }
    </style>
  </defs>
  <g>
    <path class="st1" d="M162,2592.1c-43.1,0-83.8-16.9-114.5-47.6S-.1,2473.1-.1,2430V162C-.1,118.9,16.8,78.2,47.5,47.5S118.9-.1,162-.1h2700c43.1,0,83.8,16.9,114.5,47.6s47.6,71.4,47.6,114.5v2268c0,43.1-16.9,83.8-47.6,114.5s-71.4,47.6-114.5,47.6H162Z"/>
    <path class="st0" d="M2862,0c89.1,0,162,72.9,162,162v2268c0,89.1-72.9,162-162,162H162c-89.1,0-162-72.9-162-162V162C0,72.9,72.9,0,162,0h2700M2862-.2H162c-21.8,0-43,4.3-63,12.8-19.3,8.2-36.7,19.9-51.6,34.9-14.9,14.9-26.7,32.3-34.9,51.6C4.1,119-.2,140.2-.2,162v2268c0,21.8,4.3,43,12.8,63,8.2,19.3,19.9,36.7,34.9,51.6,14.9,14.9,32.3,26.7,51.6,34.9,20,8.5,41.2,12.8,63,12.8h2700c21.8,0,43-4.3,63-12.8,19.3-8.2,36.7-19.9,51.6-34.9,14.9-14.9,26.7-32.3,34.9-51.6,8.5-20,12.8-41.2,12.8-63V162c0-21.8-4.3-43-12.8-63-8.2-19.3-19.9-36.7-34.9-51.6s-32.3-26.7-51.6-34.9c-20-8.5-41.2-12.8-63-12.8h0Z"/>
  </g>
  <path class="st0" d="M2862,2547H162c-64.4,0-117-52.6-117-117V162c0-64.4,52.6-117,117-117h2700c64.4,0,117,52.6,117,117v2268c0,64.4-52.6,117-117,117ZM2916,2430V162c0-29.7-24.3-54-54-54H162c-29.7,0-54,24.3-54,54v2268c0,29.7,24.3,54,54,54h2700c29.7,0,54-24.3,54-54Z"/>
  <g>
    <path class="st0" d="M382.7,864h-72.7v-436.8h-92.2v-67.2h257.2v67.2h-92.2v436.8Z"/>
    <path class="st0" d="M545.5,717.5v-357.5h72.3v362.5c0,47.4,27.7,79.6,70.6,79.6s67.1-31.8,67.1-79.6v-362.5h72.4v358.6c0,114.7-88.6,154.2-139.5,154.2s-142.9-30.3-142.9-155.3Z"/>
    <path class="st0" d="M1079.9,627.1h-68.9v236.9h-72.3v-504h150c79.1,0,132.4,53,132.4,134.4s-24.8,104.3-72.4,122l72.3,247.6h-74l-67.1-236.9ZM1011,430.7v127.3h74.1c42.5,0,65.3-23,65.3-63.7s-26.5-63.6-65.3-63.6h-74.1Z"/>
    <path class="st0" d="M1379.1,526.3v337.7h-72.3v-504h72.3l137.6,302.4v-302.4h72.4v504h-54.7l-155.4-337.7Z"/>
  </g>
  <g>
    <path class="st0" d="M1823.1,610.9c0-263.9,122.4-259.7,149.6-259.7s147.9-4,147.9,259.9-120.8,261.6-147.9,261.6-149.6,4.2-149.6-261.8ZM1971.8,421.9c-14.4,0-79.3-3-79.3,189.4s65,190.8,79.3,190.8,79.3,3,79.3-190.8-64.9-189.4-79.3-189.4Z"/>
    <path class="st0" d="M2294.1,558.1h101.1v69h-101.1v236.9h-72.7v-504h257.2v70.7h-184.5v127.3Z"/>
    <path class="st0" d="M2621.8,558.1h101.1v69h-101.1v236.9h-72.7v-504h257.2v70.7h-184.5v127.3Z"/>
  </g>
  <g>
    <path class="st0" d="M1329.2,1757.2h-61.8l-19.3,78.8h-41.5l71.9-288h40.6l71.9,288h-41.5l-20.3-78.8ZM1277.6,1716.8h41.5l-21.3-82.9-20.3,82.9Z"/>
    <path class="st0" d="M1472.7,1643v193h-41.3v-288h41.3l78.6,172.8v-172.8h41.4v288h-31.2l-88.8-193Z"/>
    <path class="st0" d="M1656,1836v-288h82.2c17.6,0,79.2.9,79.2,143.5s-56.9,144.5-75.7,144.5h-85.6ZM1729.6,1588.4h-32.3v207.1h28.7c33.7,0,50.9-14.7,50.9-102.1s-25.2-105.1-47.4-105.1Z"/>
  </g>
  <g>
    <path class="st0" d="M630.6,2020.8c-4-28.3-15.2-41.4-34.5-41.4-33.5,0-45.7,26.3-45.7,101s14.2,116.2,49.8,116.2,30.4-20.2,30.4-41.4h41.6c-1,47.5-31.4,81.9-72,81.9-61.9,0-89.3-49.5-89.3-155.6s29.4-142.4,86.3-142.4,73.7,48.1,75.1,81.8h-41.6Z"/>
    <path class="st0" d="M729.8,1944h135.8v40.4h-94.2v72.8h59.8v39.4h-59.8v95h105.4v40.4h-146.9v-288Z"/>
    <path class="st0" d="M925.7,1944h41.5v249.6h105.4v38.4h-146.9v-288Z"/>
    <path class="st0" d="M1113,1944h41.5v249.6h105.4v38.4h-146.9v-288Z"/>
  </g>
  <g>
    <path class="st0" d="M1517.3,2105.7v126.3h-41.3v-288h85.7c45.4,0,75.6,32.5,75.6,80.9s-27.3,80.8-75.6,80.8h-44.4ZM1517.3,2066.3h42.3c24.2,0,37.3-15.1,37.3-41.4s-15.3-40.4-37.3-40.4h-42.4v81.8Z"/>
    <path class="st0" d="M1814.9,2101.6h-78.7v130.4h-41.3v-288h41.3v117.2h78.7v-117.2h41.4v288h-41.3v-130.4Z"/>
    <path class="st0" d="M1913.9,2087.4c0-150.8,69.9-148.4,85.5-148.4s84.5-2.3,84.5,148.5-69,149.5-84.5,149.5-85.5,2.4-85.5-149.6ZM1998.9,1979.4c-8.2,0-45.3-1.7-45.3,108.2s37.1,109,45.3,109,45.3,1.7,45.3-109-37.1-108.2-45.3-108.2Z"/>
    <path class="st0" d="M2182.8,2039v193h-41.3v-288h41.3l78.7,172.8v-172.8h41.4v288h-31.2l-88.8-193Z"/>
    <path class="st0" d="M2366.2,1944h135.8v40.4h-94.2v72.8h59.8v39.4h-59.8v95h105.4v40.4h-146.9v-288Z"/>
  </g>
  <g>
    <path class="st0" d="M1859.1,1304.6h-39.3v135.4h-41.3v-288h85.7c45.2,0,75.6,30.3,75.6,76.8s-14.1,59.6-41.4,69.7l41.3,141.5h-42.3l-38.3-135.4ZM1819.8,1192.4v72.8h42.3c24.3,0,37.3-13.1,37.3-36.4s-15.1-36.4-37.3-36.4h-42.4Z"/>
    <path class="st0" d="M2088.3,1361.2h-61.8l-19.3,78.8h-41.5l71.9-288h40.6l71.9,288h-41.5l-20.3-78.8ZM2036.6,1320.8h41.5l-21.3-82.9-20.3,82.9Z"/>
    <path class="st0" d="M2190.4,1440v-288h82.2c17.6,0,79.2.9,79.2,143.5s-56.9,144.5-75.7,144.5h-85.6ZM2264,1192.4h-32.3v207.1h28.7c33.7,0,50.9-14.7,50.9-102.1s-25.2-105.1-47.4-105.1Z"/>
    <path class="st0" d="M2409.4,1152h40.3v288h-40.3v-288Z"/>
    <path class="st0" d="M2507.3,1295.4c0-150.8,69.9-148.4,85.5-148.4s84.5-2.3,84.5,148.5-69,149.5-84.5,149.5-85.5,2.4-85.5-149.6ZM2592.3,1187.4c-8.2,0-45.3-1.7-45.3,108.2s37.1,109,45.3,109,45.3,1.7,45.3-109-37.1-108.2-45.3-108.2Z"/>
  </g>
  <g>
    <path class="st0" d="M508.1,1399.6v40.4h-161.4c2.3-90.8,42.2-135.7,75.4-162.1,25.5-20.3,46.4-25.6,46.4-50s-18.2-40.6-40.6-40.6-40.6,18.2-40.6,40.6h-40.6c1-45.5,35.6-80.9,81.2-80.9s80.2,36.4,80.2,80.9c0,84.6-90.5,55.7-116.7,171.7h116.7Z"/>
    <path class="st0" d="M652.1,1275.8h144v40.5h-144v-40.5Z"/>
    <g>
      <path class="st0" d="M1076.9,1440l-27.4-150.6-27.4,150.6h-36.5l-45.6-288h40.6l24.3,153.6,28.4-153.6h32.5l27.4,153.6,25.3-153.6h40.6l-46.7,288h-35.5Z"/>
      <path class="st0" d="M1299,1361.2h-61.8l-19.3,78.8h-41.5l71.9-288h40.6l71.9,288h-41.5l-20.3-78.8ZM1247.3,1320.8h41.5l-21.3-82.9-20.3,82.9Z"/>
      <path class="st0" d="M1490.5,1440h-41.5v-130.4l-70.9-157.6h43.6l48.6,104.1,47.6-104.1h44.6l-71.9,157.6v130.4Z"/>
    </g>
  </g>
</svg>