<?xml version="1.0" encoding="UTF-8" standalone="no"?>
<!-- Created with Inkscape (http://www.inkscape.org/) -->

<svg
   version="1.1"
   id="svg1"
   width="3456.6667"
   height="1152.6667"
   viewBox="0 0 3456.6667 1152.6667"
   sodipodi:docname="tmpxk3ax0jx.pdf"
   xmlns:inkscape="http://www.inkscape.org/namespaces/inkscape"
   xmlns:sodipodi="http://sodipodi.sourceforge.net/DTD/sodipodi-0.dtd"
   xmlns="http://www.w3.org/2000/svg"
   xmlns:svg="http://www.w3.org/2000/svg">
  <defs
     id="defs1" />
  <sodipodi:namedview
     id="namedview1"
     pagecolor="#ffffff"
     bordercolor="#000000"
     borderopacity="0.25"
     inkscape:showpageshadow="2"
     inkscape:pageopacity="0.0"
     inkscape:pagecheckerboard="0"
     inkscape:deskcolor="#d1d1d1">
    <inkscape:page
       x="0"
       y="0"
       inkscape:label="1"
       id="page1"
       width="3456.6667"
       height="1152.6667"
       margin="0"
       bleed="0" />
  </sodipodi:namedview>
  <g
     id="g1"
     inkscape:groupmode="layer"
     inkscape:label="1">
    <g
       id="group-R5">
      <path
         id="path2"
         d="M 1622.5,1.25 C 1191.24,1.25 784.602,170.379 477.488,477.492 170.383,784.602 1.25,1191.24 1.25,1622.5 v 5400 c 0,431.26 169.133,837.9 476.238,1145.01 307.114,307.11 713.752,476.24 1145.012,476.24 h 22680 c 431.3,0 837.9,-169.13 1145,-476.24 307.1,-307.11 476.3,-713.75 476.3,-1145.01 v -5400 c 0,-431.26 -169.2,-837.898 -476.3,-1145.008 C 25140.4,170.379 24733.8,1.25 24302.5,1.25 h -22680"
         style="fill:#b3dc26;fill-opacity:1;fill-rule:nonzero;stroke:none"
         transform="matrix(0.13333333,0,0,-0.13333333,0,1152.6667)" />
      <path
         id="path3"
         d="m 24302.5,8645 h -22680 c -218.07,0 -430.03,-43.07 -629.992,-128.03 C 799.477,8434.96 625.898,8317.69 476.605,8168.39 327.313,8019.1 210.035,7845.52 128.027,7652.5 43.0742,7452.53 0,7240.57 0,7022.5 v -5400 C 0,1404.43 43.0742,1192.47 128.027,992.512 210.035,799.469 327.313,625.902 476.605,476.609 625.898,327.313 799.477,210.031 992.508,128.031 1192.47,43.0703 1404.43,0 1622.5,0 h 22680 c 218.1,0 430,43.0703 630,128.031 193,82 366.6,199.282 515.9,348.578 149.3,149.293 266.6,322.86 348.6,515.903 84.9,199.958 128,411.918 128,629.988 v 5400 c 0,218.07 -43.1,430.03 -128,630 -82,193.02 -199.3,366.6 -348.6,515.89 -149.3,149.3 -322.9,266.57 -515.9,348.58 -200,84.96 -411.9,128.03 -630,128.03 z m 0,-2.5 c 891,0 1620,-729 1620,-1620 v -5400 c 0,-891 -729,-1620 -1620,-1620 h -22680 c -891,0 -1620,729 -1620,1620 v 5400 c 0,891 729,1620 1620,1620 h 22680"
         style="fill:#231f20;fill-opacity:1;fill-rule:nonzero;stroke:none"
         transform="matrix(0.13333333,0,0,-0.13333333,0,1152.6667)" />
      <path
         id="path4"
         d="m 1622.5,452.5 c -310.73,0 -604.05,122.191 -825.93,344.07 -221.879,221.88 -344.07,515.2 -344.07,825.93 v 5400 c 0,310.73 122.191,604.05 344.07,825.93 221.88,221.88 515.2,344.07 825.93,344.07 h 22680 c 310.7,0 604,-122.19 825.9,-344.08 221.9,-221.87 344.1,-515.19 344.1,-825.92 v -5400 c 0,-310.73 -122.2,-604.05 -344.1,-825.918 C 24906.5,574.691 24613.2,452.5 24302.5,452.5 h -22680"
         style="fill:#231f20;fill-opacity:1;fill-rule:nonzero;stroke:none"
         transform="matrix(0.13333333,0,0,-0.13333333,0,1152.6667)" />
      <path
         id="path5"
         d="m 1622.5,1082.5 c -144.52,0 -276.07,55.17 -380.45,159.55 -104.38,104.38 -159.55,235.93 -159.55,380.45 v 5400 c 0,144.52 55.17,276.07 159.55,380.45 104.38,104.38 235.93,159.55 380.45,159.55 h 22680 c 144.5,0 276.1,-55.17 380.5,-159.56 104.3,-104.38 159.5,-235.93 159.5,-380.44 v -5400 c 0,-144.51 -55.2,-276.06 -159.5,-380.44 -104.4,-104.39 -236,-159.56 -380.5,-159.56 h -22680"
         style="fill:#b3dc26;fill-opacity:1;fill-rule:nonzero;stroke:none"
         transform="matrix(0.13333333,0,0,-0.13333333,0,1152.6667)" />
      <path
         id="path6"
         d="m 1960.54,3178.25 651.75,242.46 c 181.97,-409.32 515.14,-636.65 924.44,-636.65 394.18,0 667.4,272.69 667.4,636.65 0,577.8 -666.86,666.9 -1227.9,894.24 -257.56,106.38 -833.72,363.96 -833.72,1076.21 0,849.42 575.61,1166.4 1348.86,1166.4 606.39,0 1015.69,-348.84 1227.9,-879.12 l -606.39,-181.97 c -68.04,170.63 -314.81,379.07 -636.63,379.07 -616.11,0 -668.49,-328.86 -668.49,-436.86 0,-403.91 348.29,-483.83 914.72,-661.49 576.69,-181.44 1178.76,-446.58 1178.76,-1372.68 0,-932.58 -755.96,-1317.59 -1364.51,-1317.59 -743.01,0 -1288.38,439.55 -1576.19,1091.33"
         style="fill:#231f20;fill-opacity:1;fill-rule:nonzero;stroke:none"
         transform="matrix(0.13333333,0,0,-0.13333333,0,1152.6667)" />
      <path
         id="path7"
         d="m 5549.41,4330.07 c 0,607.5 122.03,2227.49 1591.3,2227.49 626.37,0 1052.95,-254.88 1349.39,-879.12 l -636.63,-272.7 c -220.85,317.52 -331,454.68 -712.22,454.68 -903.92,0 -894.2,-1259.81 -894.2,-1530.89 0,-267.84 -16.74,-1546.56 924.44,-1546.56 329.92,0 519.45,199.26 666.86,500.58 l 651.75,-242.46 c -242.98,-601.02 -651.2,-954.17 -1304.03,-954.17 -1554.59,0 -1636.66,1717.19 -1636.66,2243.15"
         style="fill:#231f20;fill-opacity:1;fill-rule:nonzero;stroke:none"
         transform="matrix(0.13333333,0,0,-0.13333333,0,1152.6667)" />
      <path
         id="path8"
         d="M 11699.4,4042.25 H 10122.1 V 2162.52 H 9440.66 V 6482.5 h 681.44 V 4739.39 h 1576.7 V 6482.5 h 682.6 V 2162.52 h -682 v 1879.73"
         style="fill:#231f20;fill-opacity:1;fill-rule:nonzero;stroke:none"
         transform="matrix(0.13333333,0,0,-0.13333333,0,1152.6667)" />
      <path
         id="path9"
         d="m 14874.1,2783.52 c 465.4,0 843.4,441.17 843.4,1538.99 0,1097.82 -378,1538.99 -843.4,1538.99 -465.5,0 -843.5,-440.64 -843.5,-1538.99 0,-1097.82 378,-1538.99 843.5,-1538.99 z m 1527,1538.99 c 0,-154.98 33,-2235.59 -1534.6,-2235.59 -1567.5,0 -1534.6,2080.61 -1534.6,2235.59 0,154.98 -32.9,2235.05 1534.6,2235.05 1567.6,0 1534.6,-2080.07 1534.6,-2235.05"
         style="fill:#231f20;fill-opacity:1;fill-rule:nonzero;stroke:none"
         transform="matrix(0.13333333,0,0,-0.13333333,0,1152.6667)" />
      <path
         id="path10"
         d="m 18807.5,2783.52 c 465.4,0 843.4,441.17 843.4,1538.99 0,1097.82 -378,1538.99 -843.4,1538.99 -465.5,0 -843.5,-440.64 -843.5,-1538.99 0,-1097.82 378,-1538.99 843.5,-1538.99 z m 1527,1538.99 c 0,-154.98 33,-2235.59 -1534.6,-2235.59 -1567.5,0 -1534.6,2080.61 -1534.6,2235.59 0,154.98 -32.9,2235.05 1534.6,2235.05 1567.6,0 1534.6,-2080.07 1534.6,-2235.05"
         style="fill:#231f20;fill-opacity:1;fill-rule:nonzero;stroke:none"
         transform="matrix(0.13333333,0,0,-0.13333333,0,1152.6667)" />
      <path
         id="path11"
         d="m 21285.1,6482.5 h 681.5 V 2799.18 h 1997.9 V 2162.52 H 21285.1 V 6482.5"
         style="fill:#231f20;fill-opacity:1;fill-rule:nonzero;stroke:none"
         transform="matrix(0.13333333,0,0,-0.13333333,0,1152.6667)" />
    </g>
  </g>
</svg>
