<?xml version="1.0" standalone="no"?>
<svg width="1728px" height="864px" viewBox="0 -72 1728 864 " xmlns="http://www.w3.org/2000/svg" xmlns:xlink="http://www.w3.org/1999/xlink">
<title>generated by pstoedit</title>
<!-- generated by pstoedit version:4.02 -->
<g xml:space='preserve'>
<clipPath id="clippath1"> 	<path d="
	M 0 -72.5 
	L 0 792 
	L 1728.5 792 
	L 1728.5 -72.5 
	Z 
	" style="clip-rule:nonzero"/>
</clipPath>
<g style="clip-path:url(#clippath1)"> 
<g fill="#87ffd8" fill-rule="nonzero" stroke-width="0" stroke-linejoin="miter" stroke-linecap="butt" stroke-miterlimit="10" >
	<path d="
	M 1728.25 683.75 
	C 1728.25 743.395 1679.9 791.75 1620.25 791.75 
	L 108.25 791.75 
	C 48.6016 791.75 0.25 743.395 0.25 683.75 
	L 0.25 35.75 
	C 0.25 -23.898 48.6016 -72.25 108.25 -72.25 
	L 1620.25 -72.25 
	C 1679.9 -72.25 1728.25 -23.898 1728.25 35.75 
	Z 
	"/>
</g>
<g stroke="#7f7f7f" fill="none" stroke-width="0.5" stroke-linejoin="miter" stroke-linecap="butt" stroke-miterlimit="4" >
	<path d="
	M 1728.25 683.75 
	C 1728.25 743.395 1679.9 791.75 1620.25 791.75 
	L 108.25 791.75 
	C 48.6016 791.75 0.25 743.395 0.25 683.75 
	L 0.25 35.75 
	C 0.25 -23.898 48.6016 -72.25 108.25 -72.25 
	L 1620.25 -72.25 
	C 1679.9 -72.25 1728.25 -23.898 1728.25 35.75 
	Z 
	"/>
</g>
<g fill="#7f7f7f" fill-rule="nonzero" stroke-width="0" stroke-linejoin="miter" stroke-linecap="butt" stroke-miterlimit="4" >
	<path d="
	M 108.25 764.75 
	C 63.5859 764.75 27.25 728.414 27.25 683.75 
	L 27.25 35.75 
	C 27.25 -8.914 63.5859 -45.25 108.25 -45.25 
	L 1620.25 -45.25 
	C 1664.91 -45.25 1701.25 -8.914 1701.25 35.75 
	L 1701.25 683.75 
	C 1701.25 728.414 1664.91 764.75 1620.25 764.75 
	Z 
	"/>
</g>
<g fill="#87ffd8" fill-rule="nonzero" stroke-width="0" stroke-linejoin="miter" stroke-linecap="butt" stroke-miterlimit="4" >
	<path d="
	M 108.25 719.75 
	C 88.3984 719.75 72.25 703.602 72.25 683.75 
	L 72.25 35.75 
	C 72.25 15.898 88.3984 -0.25 108.25 -0.25 
	L 1620.25 -0.25 
	C 1640.1 -0.25 1656.25 15.898 1656.25 35.75 
	L 1656.25 683.75 
	C 1656.25 703.602 1640.1 719.75 1620.25 719.75 
	Z 
	"/>
</g>
<g fill="#7f7f7f" fill-rule="nonzero" stroke-width="0" stroke-linejoin="miter" stroke-linecap="butt" stroke-miterlimit="4" >
	<path d="
	M 230.859 301.645 
	L 210.598 384.508 
	L 252.137 384.508 
	Z 
	M 282.531 503.75 
	L 262.27 424.93 
	L 200.465 424.93 
	L 181.219 503.75 
	L 139.68 503.75 
	L 211.609 215.75 
	L 252.137 215.75 
	L 324.07 503.75 
	Z 
	"/>
</g>
<g fill="#7f7f7f" fill-rule="nonzero" stroke-width="0" stroke-linejoin="miter" stroke-linecap="butt" stroke-miterlimit="4" >
	<path d="
	M 1302.01 301.645 
	L 1281.74 384.508 
	L 1323.28 384.508 
	Z 
	M 1353.68 503.75 
	L 1333.41 424.93 
	L 1271.61 424.93 
	L 1252.36 503.75 
	L 1210.82 503.75 
	L 1282.75 215.75 
	L 1323.28 215.75 
	L 1395.21 503.75 
	Z 
	"/>
</g>
<g fill="#7f7f7f" fill-rule="nonzero" stroke-width="0" stroke-linejoin="miter" stroke-linecap="butt" stroke-miterlimit="4" >
	<path d="
	M 1043.13 503.75 
	L 1043.13 215.75 
	L 1178.94 215.75 
	L 1178.94 256.172 
	L 1084.69 256.172 
	L 1084.69 328.93 
	L 1144.48 328.93 
	L 1144.48 368.34 
	L 1084.69 368.34 
	L 1084.69 463.328 
	L 1190.09 463.328 
	L 1190.09 503.75 
	Z 
	"/>
</g>
<g fill="#7f7f7f" fill-rule="nonzero" stroke-width="0" stroke-linejoin="miter" stroke-linecap="butt" stroke-miterlimit="4" >
	<path d="
	M 356.324 503.75 
	L 356.324 215.75 
	L 397.879 215.75 
	L 397.879 465.352 
	L 503.277 465.352 
	L 503.277 503.75 
	Z 
	"/>
</g>
<g fill="#7f7f7f" fill-rule="nonzero" stroke-width="0" stroke-linejoin="miter" stroke-linecap="butt" stroke-miterlimit="4" >
	<path d="
	M 535.535 503.75 
	L 535.535 215.75 
	L 577.086 215.75 
	L 577.086 465.352 
	L 682.488 465.352 
	L 682.488 503.75 
	Z 
	"/>
</g>
<g fill="#7f7f7f" fill-rule="nonzero" stroke-width="0" stroke-linejoin="miter" stroke-linecap="butt" stroke-miterlimit="4" >
	<path d="
	M 1511.17 256.172 
	L 1468.82 256.172 
	L 1468.82 328.93 
	L 1511.17 328.93 
	C 1535.38 328.93 1548.48 315.793 1548.48 292.551 
	C 1548.48 270.316 1533.36 256.172 1511.17 256.172 
	Z 
	M 1546.47 503.75 
	L 1508.15 368.34 
	L 1468.82 368.34 
	L 1468.82 503.75 
	L 1427.47 503.75 
	L 1427.47 215.75 
	L 1513.19 215.75 
	C 1558.57 215.75 1588.82 246.066 1588.82 292.551 
	C 1588.82 326.906 1574.71 352.172 1547.48 362.277 
	L 1588.82 503.75 
	Z 
	"/>
</g>
<g fill="#7f7f7f" fill-rule="nonzero" stroke-width="0" stroke-linejoin="miter" stroke-linecap="butt" stroke-miterlimit="4" >
	<path d="
	M 938.945 373.391 
	L 938.945 503.75 
	L 897.41 503.75 
	L 897.41 373.391 
	L 826.488 215.75 
	L 870.051 215.75 
	L 918.684 319.836 
	L 966.301 215.75 
	L 1010.88 215.75 
	Z 
	"/>
</g>
</g >
</g>
</svg>
