<?xml version="1.0" encoding="UTF-8" standalone="no"?>
<!-- Created with Inkscape (http://www.inkscape.org/) -->

<svg
   version="1.1"
   id="svg1"
   width="2880.8401"
   height="1728.84"
   viewBox="0 0 2880.8401 1728.84"
   sodipodi:docname="tmp8bmnr0bz.pdf"
   xmlns:inkscape="http://www.inkscape.org/namespaces/inkscape"
   xmlns:sodipodi="http://sodipodi.sourceforge.net/DTD/sodipodi-0.dtd"
   xmlns="http://www.w3.org/2000/svg"
   xmlns:svg="http://www.w3.org/2000/svg">
  <defs
     id="defs1" />
  <sodipodi:namedview
     id="namedview1"
     pagecolor="#ffffff"
     bordercolor="#000000"
     borderopacity="0.25"
     inkscape:showpageshadow="2"
     inkscape:pageopacity="0.0"
     inkscape:pagecheckerboard="0"
     inkscape:deskcolor="#d1d1d1">
    <inkscape:page
       x="0"
       y="0"
       inkscape:label="1"
       id="page1"
       width="2880.8401"
       height="1728.84"
       margin="0"
       bleed="0" />
  </sodipodi:namedview>
  <g
     id="g1"
     inkscape:groupmode="layer"
     inkscape:label="1">
    <g
       id="group-R5">
      <path
         id="path2"
         d="M 21603.1,1353.2 C 21603.1,607.602 20998.7,3.19922 20253.1,3.19922 H 1353.13 C 607.539,3.19922 3.125,607.602 3.125,1353.2 v 10260 c 0,745.6 604.414,1350 1350.005,1350 H 20253.1 c 745.6,0 1350,-604.4 1350,-1350 v -10260"
         style="fill:#b3dc26;fill-opacity:1;fill-rule:nonzero;stroke:none"
         transform="matrix(0.13333333,0,0,-0.13333333,0,1728.84)" />
      <path
         id="path3"
         d="M 21603.1,1353.2 C 21603.1,607.602 20998.7,3.19922 20253.1,3.19922 H 1353.13 C 607.539,3.19922 3.125,607.602 3.125,1353.2 v 10260 c 0,745.6 604.414,1350 1350.005,1350 H 20253.1 c 745.6,0 1350,-604.4 1350,-1350 z"
         style="fill:none;stroke:#231f20;stroke-width:6.25;stroke-linecap:butt;stroke-linejoin:miter;stroke-miterlimit:4;stroke-dasharray:none;stroke-opacity:1"
         transform="matrix(0.13333333,0,0,-0.13333333,0,1728.84)" />
      <path
         id="path4"
         d="M 1353.13,340.699 C 794.828,340.699 340.625,794.898 340.625,1353.2 v 10260 c 0,558.3 454.203,1012.5 1012.505,1012.5 H 20253.1 c 558.3,0 1012.5,-454.2 1012.5,-1012.5 v -10260 c 0,-558.302 -454.2,-1012.501 -1012.5,-1012.501 H 1353.13"
         style="fill:#231f20;fill-opacity:1;fill-rule:nonzero;stroke:none"
         transform="matrix(0.13333333,0,0,-0.13333333,0,1728.84)" />
      <path
         id="path5"
         d="m 1353.13,903.199 c -248.14,0 -450.005,201.801 -450.005,450.001 v 10260 c 0,248.1 201.865,450 450.005,450 H 20253.1 c 248.2,0 450,-201.9 450,-450 v -10260 c 0,-248.2 -201.8,-450.001 -450,-450.001 H 1353.13"
         style="fill:#b3dc26;fill-opacity:1;fill-rule:nonzero;stroke:none"
         transform="matrix(0.13333333,0,0,-0.13333333,0,1728.84)" />
      <path
         id="path6"
         d="M 2885.75,7209.49 2632.46,6173.7 h 519.25 z m 645.88,-2526.32 -253.29,985.27 h -772.52 l -240.61,-985.27 h -519.24 l 899.16,3600 h 506.58 l 899.16,-3600 h -519.24"
         style="fill:#231f20;fill-opacity:1;fill-rule:nonzero;stroke:none"
         transform="matrix(0.13333333,0,0,-0.13333333,0,1728.84)" />
      <path
         id="path7"
         d="M 16275.1,7209.49 16021.8,6173.7 h 519.2 z m 645.8,-2526.32 -253.2,985.27 h -772.6 l -240.6,-985.27 h -519.2 l 899.1,3600 h 506.6 l 899.2,-3600 h -519.3"
         style="fill:#231f20;fill-opacity:1;fill-rule:nonzero;stroke:none"
         transform="matrix(0.13333333,0,0,-0.13333333,0,1728.84)" />
      <path
         id="path8"
         d="m 13039.2,4683.17 v 3600 h 1697.5 V 7777.92 H 13558.6 V 6868.44 H 14306 V 6375.8 h -747.4 V 5188.44 h 1317.5 v -505.27 h -1836.9"
         style="fill:#231f20;fill-opacity:1;fill-rule:nonzero;stroke:none"
         transform="matrix(0.13333333,0,0,-0.13333333,0,1728.84)" />
      <path
         id="path9"
         d="m 4454.08,4683.17 v 3600 h 519.4 v -3120 h 1317.5 v -480 h -1836.9"
         style="fill:#231f20;fill-opacity:1;fill-rule:nonzero;stroke:none"
         transform="matrix(0.13333333,0,0,-0.13333333,0,1728.84)" />
      <path
         id="path10"
         d="m 6694.19,4683.17 v 3600 h 519.39 v -3120 h 1317.51 v -480 h -1836.9"
         style="fill:#231f20;fill-opacity:1;fill-rule:nonzero;stroke:none"
         transform="matrix(0.13333333,0,0,-0.13333333,0,1728.84)" />
      <path
         id="path11"
         d="m 18889.6,7777.91 h -529.4 v -909.47 h 529.4 c 302.6,0 466.5,164.21 466.5,454.73 0,277.9 -189.1,454.74 -466.5,454.74 z m 441.3,-3094.74 -479.1,1692.64 h -491.6 V 4683.17 h -516.8 v 3600 h 1071.5 c 567.2,0 945.4,-378.94 945.4,-960 0,-429.46 -176.5,-745.26 -516.8,-871.58 l 516.8,-1768.42 h -529.4"
         style="fill:#231f20;fill-opacity:1;fill-rule:nonzero;stroke:none"
         transform="matrix(0.13333333,0,0,-0.13333333,0,1728.84)" />
      <path
         id="path12"
         d="M 11736.8,6312.66 V 4683.17 h -519.2 v 1629.49 l -886.5,1970.51 h 544.5 l 608,-1301.04 595.2,1301.04 h 557.2 l -899.2,-1970.51"
         style="fill:#231f20;fill-opacity:1;fill-rule:nonzero;stroke:none"
         transform="matrix(0.13333333,0,0,-0.13333333,0,1728.84)" />
    </g>
  </g>
</svg>
