<?xml version="1.0" encoding="UTF-8"?>
<svg id="For_Sheets" xmlns="http://www.w3.org/2000/svg" version="1.1" viewBox="0 0 2592 1296">
  <!-- Generator: Adobe Illustrator 29.1.0, SVG Export Plug-In . SVG Version: 2.1.0 Build 142)  -->
  <defs>
    <style>
      .st0 {
        fill: #231f20;
      }

      .st1 {
        fill: #fff;
      }
    </style>
  </defs>
  <g>
    <path class="st1" d="M162,1296.1c-43.1,0-83.8-16.9-114.5-47.6S-.1,1177.1-.1,1134V162C-.1,118.9,16.8,78.2,47.5,47.5S118.9-.1,162-.1h2268c43.1,0,83.8,16.9,114.5,47.6s47.6,71.4,47.6,114.5v972c0,43.1-16.9,83.8-47.6,114.5s-71.4,47.6-114.5,47.6H162Z"/>
    <path class="st0" d="M2430,0c89.1,0,162,72.9,162,162v972c0,89.1-72.9,162-162,162H162c-89.1,0-162-72.9-162-162V162C0,72.9,72.9,0,162,0h2268M2430-.2H162c-21.8,0-43,4.3-63,12.8-19.3,8.2-36.7,19.9-51.6,34.9-14.9,14.9-26.7,32.3-34.9,51.6C4.1,119-.2,140.2-.2,162v972c0,21.8,4.3,43,12.8,63,8.2,19.3,19.9,36.7,34.9,51.6,14.9,14.9,32.3,26.7,51.6,34.9,20,8.5,41.2,12.8,63,12.8h2268c21.8,0,43-4.3,63-12.8,19.3-8.2,36.7-19.9,51.6-34.9,14.9-14.9,26.7-32.3,34.9-51.6,8.5-20,12.8-41.2,12.8-63V162c0-21.8-4.3-43-12.8-63-8.2-19.3-19.9-36.7-34.9-51.6s-32.3-26.7-51.6-34.9c-20-8.5-41.2-12.8-63-12.8h0Z"/>
  </g>
  <path class="st0" d="M2430,1251H162c-64.4,0-117-52.7-117-117V162c0-64.4,52.6-117,117-117h2268c64.4,0,117,52.6,117,117v972c0,64.4-52.6,117-117,117ZM2484,1134V162c0-29.7-24.3-54-54-54H162c-29.7,0-54,24.3-54,54v972c0,29.7,24.3,54,54,54h2268c29.7,0,54-24.3,54-54Z"/>
  <g>
    <g>
      <path class="st0" d="M475.6,613.9l-100.2,250.1-100.3-250.1v250.1h-68.4v-432h68.4l100.3,242.5,100.2-242.5h68.4v432h-68.4v-250.1Z"/>
      <path class="st0" d="M945.9,648c0,15.5,3.3,223.6-153.5,223.6s-153.5-208.1-153.5-223.6-3.3-223.5,153.5-223.5,153.5,208,153.5,223.5ZM793.2,801.9c46.5,0,84.3-44.1,84.3-153.9s-37.8-153.9-84.3-153.9-84.3,44.1-84.3,153.9,37.8,153.9,84.3,153.9Z"/>
      <path class="st0" d="M1109.1,571.5v292.5h-68.1v-432h68.1l157.7,275.9v-275.9h68.3v432h-60.6l-165.3-292.5Z"/>
    </g>
    <path class="st0" d="M1399.9,616.9h151.2v68.3h-151.2v-68.3Z"/>
    <g>
      <path class="st0" d="M1684,606.3h125.7v69.7h-125.7v188h-68.1v-432h267.9v68.2h-199.8v106.1Z"/>
      <path class="st0" d="M2016.8,676v188h-68.1v-432h156.3c99,0,128.7,79.2,128.7,121.3s-5.9,79.2-67.1,108.2l76.1,202.5h-74.3l-69.7-188h-81.9ZM2102.6,606.3c54.2,0,62.7-39.1,62.7-53s-14.1-53.1-59.5-53.1h-89.1v106.1h85.8Z"/>
      <path class="st0" d="M2316.1,432h69.1v432h-69.1v-432Z"/>
    </g>
  </g>
</svg>