<?xml version="1.0" encoding="UTF-8" standalone="no"?>
<!-- Created with Inkscape (http://www.inkscape.org/) -->

<svg
   version="1.1"
   id="svg1"
   width="2304.6667"
   height="1152.6667"
   viewBox="0 0 2304.6667 1152.6667"
   sodipodi:docname="tmp8so0z_fz.pdf"
   xmlns:inkscape="http://www.inkscape.org/namespaces/inkscape"
   xmlns:sodipodi="http://sodipodi.sourceforge.net/DTD/sodipodi-0.dtd"
   xmlns="http://www.w3.org/2000/svg"
   xmlns:svg="http://www.w3.org/2000/svg">
  <defs
     id="defs1" />
  <sodipodi:namedview
     id="namedview1"
     pagecolor="#ffffff"
     bordercolor="#000000"
     borderopacity="0.25"
     inkscape:showpageshadow="2"
     inkscape:pageopacity="0.0"
     inkscape:pagecheckerboard="0"
     inkscape:deskcolor="#d1d1d1">
    <inkscape:page
       x="0"
       y="0"
       inkscape:label="1"
       id="page1"
       width="2304.6667"
       height="1152.6667"
       margin="0"
       bleed="0" />
  </sodipodi:namedview>
  <g
     id="g1"
     inkscape:groupmode="layer"
     inkscape:label="1">
    <g
       id="group-R5">
      <path
         id="path2"
         d="m 17282.5,1082.5 c 0,-596.461 -483.5,-1080 -1080,-1080 H 1082.5 C 486.031,2.5 2.5,486.039 2.5,1082.5 v 6480 c 0,596.47 483.531,1080 1080,1080 h 15120 c 596.5,0 1080,-483.53 1080,-1080 v -6480"
         style="fill:#b3dc26;fill-opacity:1;fill-rule:nonzero;stroke:none"
         transform="matrix(0.13333333,0,0,-0.13333333,0,1152.6667)" />
      <path
         id="path3"
         d="m 17282.5,1082.5 c 0,-596.461 -483.5,-1080 -1080,-1080 H 1082.5 C 486.031,2.5 2.5,486.039 2.5,1082.5 v 6480 c 0,596.47 483.531,1080 1080,1080 h 15120 c 596.5,0 1080,-483.53 1080,-1080 z"
         style="fill:none;stroke:#231f20;stroke-width:5;stroke-linecap:butt;stroke-linejoin:miter;stroke-miterlimit:4;stroke-dasharray:none;stroke-opacity:1"
         transform="matrix(0.13333333,0,0,-0.13333333,0,1152.6667)" />
      <path
         id="path4"
         d="m 1082.5,272.5 c -446.637,0 -810,363.371 -810,810 v 6480 c 0,446.64 363.363,810 810,810 h 15120 c 446.6,0 810,-363.36 810,-810 v -6480 c 0,-446.629 -363.4,-810 -810,-810 h -15120"
         style="fill:#231f20;fill-opacity:1;fill-rule:nonzero;stroke:none"
         transform="matrix(0.13333333,0,0,-0.13333333,0,1152.6667)" />
      <path
         id="path5"
         d="m 1082.5,722.5 c -198.508,0 -360,161.488 -360,360 v 6480 c 0,198.51 161.492,360 360,360 h 15120 c 198.5,0 360,-161.49 360,-360 v -6480 c 0,-198.512 -161.5,-360 -360,-360 h -15120"
         style="fill:#b3dc26;fill-opacity:1;fill-rule:nonzero;stroke:none"
         transform="matrix(0.13333333,0,0,-0.13333333,0,1152.6667)" />
      <path
         id="path6"
         d="m 2308.6,4903.55 -202.63,-828.63 h 415.4 z M 2825.3,2882.5 2622.68,3670.71 H 2004.66 L 1812.17,2882.5 h -415.39 l 719.32,2880 h 405.27 l 719.32,-2880 H 2825.3"
         style="fill:#231f20;fill-opacity:1;fill-rule:nonzero;stroke:none"
         transform="matrix(0.13333333,0,0,-0.13333333,0,1152.6667)" />
      <path
         id="path7"
         d="m 13020.1,4903.55 -202.7,-828.63 h 415.4 z m 516.7,-2021.05 -202.7,788.21 h -618 l -192.5,-788.21 h -415.4 l 719.3,2880 h 405.3 l 719.3,-2880 h -415.3"
         style="fill:#231f20;fill-opacity:1;fill-rule:nonzero;stroke:none"
         transform="matrix(0.13333333,0,0,-0.13333333,0,1152.6667)" />
      <path
         id="path8"
         d="m 10431.3,2882.5 v 2880 h 1358.1 v -404.2 h -942.5 v -727.59 h 597.9 V 4236.6 h -597.9 v -949.89 h 1054 V 2882.5 h -1469.6"
         style="fill:#231f20;fill-opacity:1;fill-rule:nonzero;stroke:none"
         transform="matrix(0.13333333,0,0,-0.13333333,0,1152.6667)" />
      <path
         id="path9"
         d="m 3563.26,2882.5 v 2880 h 415.52 V 3266.49 h 1054 V 2882.5 H 3563.26"
         style="fill:#231f20;fill-opacity:1;fill-rule:nonzero;stroke:none"
         transform="matrix(0.13333333,0,0,-0.13333333,0,1152.6667)" />
      <path
         id="path10"
         d="m 5355.35,2882.5 v 2880 h 415.52 V 3266.49 h 1054 V 2882.5 H 5355.35"
         style="fill:#231f20;fill-opacity:1;fill-rule:nonzero;stroke:none"
         transform="matrix(0.13333333,0,0,-0.13333333,0,1152.6667)" />
      <path
         id="path11"
         d="m 15111.7,5358.29 h -423.5 v -727.58 h 423.5 c 242.1,0 373.1,131.37 373.1,363.79 0,222.32 -151.2,363.79 -373.1,363.79 z m 353,-2475.79 -383.2,1354.11 h -393.3 V 2882.5 h -413.5 v 2880 h 857.2 c 453.8,0 756.3,-303.15 756.3,-768 0,-343.57 -141.1,-596.21 -413.4,-697.26 l 413.4,-1414.74 h -423.5"
         style="fill:#231f20;fill-opacity:1;fill-rule:nonzero;stroke:none"
         transform="matrix(0.13333333,0,0,-0.13333333,0,1152.6667)" />
      <path
         id="path12"
         d="M 9389.46,4186.08 V 2882.5 H 8974.09 V 4186.08 L 8264.87,5762.5 h 435.65 l 486.33,-1040.84 476.17,1040.84 h 445.78 L 9389.46,4186.08"
         style="fill:#231f20;fill-opacity:1;fill-rule:nonzero;stroke:none"
         transform="matrix(0.13333333,0,0,-0.13333333,0,1152.6667)" />
    </g>
  </g>
</svg>
