<?xml version="1.0" encoding="UTF-8" standalone="no"?>
<!-- Created with Inkscape (http://www.inkscape.org/) -->

<svg
   version="1.1"
   id="svg1"
   width="2304.6667"
   height="1152.6667"
   viewBox="0 0 2304.6667 1152.6667"
   sodipodi:docname="tmpssre5u0r.pdf"
   xmlns:inkscape="http://www.inkscape.org/namespaces/inkscape"
   xmlns:sodipodi="http://sodipodi.sourceforge.net/DTD/sodipodi-0.dtd"
   xmlns="http://www.w3.org/2000/svg"
   xmlns:svg="http://www.w3.org/2000/svg">
  <defs
     id="defs1" />
  <sodipodi:namedview
     id="namedview1"
     pagecolor="#ffffff"
     bordercolor="#000000"
     borderopacity="0.25"
     inkscape:showpageshadow="2"
     inkscape:pageopacity="0.0"
     inkscape:pagecheckerboard="0"
     inkscape:deskcolor="#d1d1d1">
    <inkscape:page
       x="0"
       y="0"
       inkscape:label="1"
       id="page1"
       width="2304.6667"
       height="1152.6667"
       margin="0"
       bleed="0" />
  </sodipodi:namedview>
  <g
     id="g1"
     inkscape:groupmode="layer"
     inkscape:label="1">
    <g
       id="group-R5">
      <path
         id="path2"
         d="M 1082.5,1.25 C 486.293,1.25 1.25,486.289 1.25,1082.5 v 6480 c 0,596.21 485.043,1081.25 1081.25,1081.25 h 15120 c 596.2,0 1081.3,-485.04 1081.3,-1081.25 v -6480 C 17283.8,486.289 16798.7,1.25 16202.5,1.25 h -15120"
         style="fill:#ffffff;fill-opacity:1;fill-rule:nonzero;stroke:none"
         transform="matrix(0.13333333,0,0,-0.13333333,0,1152.6667)" />
      <path
         id="path3"
         d="M 16202.5,8645 H 1082.5 C 794.547,8645 523.035,8532.07 317.984,8327.02 112.93,8121.96 0,7850.45 0,7562.5 v -6480 C 0,794.551 112.93,523.039 317.984,317.98 523.035,112.93 794.547,0 1082.5,0 h 15120 c 288,0 559.5,112.93 764.5,317.98 205.1,205.059 318,476.571 318,764.52 v 6480 c 0,287.95 -112.9,559.46 -318,764.52 -205,205.05 -476.5,317.98 -764.5,317.98 z m 0,-2.5 c 594,0 1080,-486 1080,-1080 v -6480 c 0,-594 -486,-1080 -1080,-1080 h -15120 c -594,0 -1080,486 -1080,1080 v 6480 c 0,594 486,1080 1080,1080 h 15120"
         style="fill:#231f20;fill-opacity:1;fill-rule:nonzero;stroke:none"
         transform="matrix(0.13333333,0,0,-0.13333333,0,1152.6667)" />
      <path
         id="path4"
         d="m 1082.5,272.5 c -446.637,0 -810,363.359 -810,810 v 6480 c 0,446.64 363.363,810 810,810 h 15120 c 446.6,0 810,-363.36 810,-810 v -6480 c 0,-446.641 -363.4,-810 -810,-810 h -15120"
         style="fill:#231f20;fill-opacity:1;fill-rule:nonzero;stroke:none"
         transform="matrix(0.13333333,0,0,-0.13333333,0,1152.6667)" />
      <path
         id="path5"
         d="m 1082.5,722.5 c -198.508,0 -360,161.488 -360,360 v 6480 c 0,198.51 161.492,360 360,360 h 15120 c 198.5,0 360,-161.49 360,-360 v -6480 c 0,-198.512 -161.5,-360 -360,-360 h -15120"
         style="fill:#ffffff;fill-opacity:1;fill-rule:nonzero;stroke:none"
         transform="matrix(0.13333333,0,0,-0.13333333,0,1152.6667)" />
      <path
         id="path6"
         d="M 3172.93,4550.02 2505.16,2882.51 1836.68,4550.02 V 2882.51 H 1380.94 V 5762.5 h 455.74 l 668.48,-1616.75 667.77,1616.75 h 455.74 V 2882.51 h -455.74 v 1667.51"
         style="fill:#231f20;fill-opacity:1;fill-rule:nonzero;stroke:none"
         transform="matrix(0.13333333,0,0,-0.13333333,0,1152.6667)" />
      <path
         id="path7"
         d="m 5290.49,3296.51 c 310.31,0 562.29,294.12 562.29,1026 0,731.87 -251.98,1025.99 -562.29,1025.99 -310.3,0 -562.29,-293.76 -562.29,-1025.99 0,-731.88 251.99,-1026 562.29,-1026 z m 1018.03,1026 c 0,-103.32 21.96,-1490.4 -1023.07,-1490.4 -1045.02,0 -1023.07,1387.08 -1023.07,1490.4 0,103.32 -21.95,1490.03 1023.07,1490.03 1045.03,0 1023.07,-1386.71 1023.07,-1490.03"
         style="fill:#231f20;fill-opacity:1;fill-rule:nonzero;stroke:none"
         transform="matrix(0.13333333,0,0,-0.13333333,0,1152.6667)" />
      <path
         id="path8"
         d="M 7396.56,4832.62 V 2882.51 H 6942.24 V 5762.5 h 454.32 L 8447.76,3923.27 V 5762.5 H 8902.8 V 2882.51 H 8498.52 L 7396.56,4832.62"
         style="fill:#231f20;fill-opacity:1;fill-rule:nonzero;stroke:none"
         transform="matrix(0.13333333,0,0,-0.13333333,0,1152.6667)" />
      <path
         id="path9"
         d="m 9334.8,4529.87 h 1008 v -455.04 h -1008 v 455.04"
         style="fill:#231f20;fill-opacity:1;fill-rule:nonzero;stroke:none"
         transform="matrix(0.13333333,0,0,-0.13333333,0,1152.6667)" />
      <path
         id="path10"
         d="m 11229.1,4600.43 h 837.7 v -464.76 h -837.7 V 2882.51 h -454.3 V 5762.5 H 12561 v -454.68 h -1331.9 v -707.39"
         style="fill:#231f20;fill-opacity:1;fill-rule:nonzero;stroke:none"
         transform="matrix(0.13333333,0,0,-0.13333333,0,1152.6667)" />
      <path
         id="path11"
         d="m 14019.4,4600.43 c 361.4,0 418.3,260.63 418.3,353.51 0,125.64 -93.9,353.88 -396.3,353.88 h -594 v -707.39 z m -572,-464.4 V 2882.51 h -454.3 V 5762.5 h 1041.8 c 660.2,0 858.2,-528.12 858.2,-808.92 0,-106.92 -39.6,-528.11 -447.1,-721.07 l 507.6,-1350 h -495.4 l -464.7,1253.52 h -546.1"
         style="fill:#231f20;fill-opacity:1;fill-rule:nonzero;stroke:none"
         transform="matrix(0.13333333,0,0,-0.13333333,0,1152.6667)" />
      <path
         id="path12"
         d="m 15443.3,5762.5 h 460.8 V 2882.51 h -460.8 V 5762.5"
         style="fill:#231f20;fill-opacity:1;fill-rule:nonzero;stroke:none"
         transform="matrix(0.13333333,0,0,-0.13333333,0,1152.6667)" />
    </g>
  </g>
</svg>
