<?xml version="1.0" encoding="UTF-8"?>
<svg id="For_Sheets" xmlns="http://www.w3.org/2000/svg" version="1.1" viewBox="0 0 1728 864">
  <!-- Generator: Adobe Illustrator 29.1.0, SVG Export Plug-In . SVG Version: 2.1.0 Build 142)  -->
  <defs>
    <style>
      .st0 {
        fill: #231f20;
      }

      .st1 {
        fill: #fff;
      }
    </style>
  </defs>
  <g>
    <rect class="st1" x="-.1" y="-.1" width="1728.2" height="864.2" rx="108.1" ry="108.1"/>
    <path class="st0" d="M1620,0c59.4,0,108,48.6,108,108v648c0,59.4-48.6,108-108,108H108c-59.4,0-108-48.6-108-108V108C0,48.6,48.6,0,108,0h1512M1620-.2H108C79.2-.2,52.1,11,31.5,31.5,11,52.1-.2,79.2-.2,108v648c0,28.8,11.3,55.9,31.8,76.5,20.5,20.5,47.7,31.8,76.5,31.8h1512c28.8,0,55.9-11.3,76.5-31.8,20.5-20.5,31.8-47.7,31.8-76.5V108c0-28.8-11.3-55.9-31.8-76.5-20.5-20.5-47.7-31.8-76.5-31.8h0Z"/>
  </g>
  <rect class="st0" x="459" y="-405" width="810" height="1674" rx="81" ry="81" transform="translate(1296 -432) rotate(90)"/>
  <rect class="st1" x="504" y="-360" width="720" height="1584" rx="36" ry="36" transform="translate(1296 -432) rotate(90)"/>
  <g>
    <g>
      <path class="st0" d="M317,409.2l-66.8,166.8-66.8-166.8v166.8h-45.6v-288h45.6l66.8,161.7,66.8-161.7h45.6v288h-45.6v-166.8Z"/>
      <path class="st0" d="M630.6,432c0,10.3,2.2,149-102.3,149s-102.3-138.7-102.3-149-2.2-149,102.3-149,102.3,138.7,102.3,149ZM528.8,534.6c31,0,56.2-29.4,56.2-102.6s-25.2-102.6-56.2-102.6-56.2,29.4-56.2,102.6,25.2,102.6,56.2,102.6Z"/>
      <path class="st0" d="M739.4,381v195h-45.4v-288h45.4l105.1,183.9v-183.9h45.5v288h-40.4l-110.2-195Z"/>
    </g>
    <path class="st0" d="M933.2,411.3h100.8v45.5h-100.8v-45.5Z"/>
    <g>
      <path class="st0" d="M1122.7,404.2h83.8v46.5h-83.8v125.3h-45.4v-288h178.6v45.5h-133.2v70.7Z"/>
      <path class="st0" d="M1344.5,450.6v125.4h-45.4v-288h104.2c66,0,85.8,52.8,85.8,80.9s-4,52.8-44.7,72.1l50.8,135h-49.5l-46.5-125.4h-54.6ZM1401.7,404.2c36.1,0,41.8-26.1,41.8-35.4s-9.4-35.4-39.6-35.4h-59.4v70.7h57.2Z"/>
      <path class="st0" d="M1544.1,288h46.1v288h-46.1v-288Z"/>
    </g>
  </g>
</svg>