<?xml version="1.0" encoding="UTF-8"?>
<svg id="For_Sheets" xmlns="http://www.w3.org/2000/svg" version="1.1" viewBox="0 0 1728 648">
  <!-- Generator: Adobe Illustrator 29.1.0, SVG Export Plug-In . SVG Version: 2.1.0 Build 142)  -->
  <defs>
    <style>
      .st0 {
        fill: #bed73d;
      }

      .st1 {
        fill: #231f20;
      }
    </style>
  </defs>
  <g>
    <rect class="st0" x="-.1" y="-.1" width="1728.2" height="648.2" rx="108.1" ry="108.1"/>
    <path class="st1" d="M1620,0c59.4,0,108,48.6,108,108v432c0,59.4-48.6,108-108,108H108c-59.4,0-108-48.6-108-108V108C0,48.6,48.6,0,108,0h1512M1620-.2H108C79.2-.2,52.1,11,31.5,31.5,11,52.1-.2,79.2-.2,108v432c0,28.8,11.3,55.9,31.8,76.5,20.5,20.5,47.7,31.8,76.5,31.8h1512c28.8,0,55.9-11.3,76.5-31.8,20.5-20.5,31.8-47.7,31.8-76.5V108c0-28.8-11.3-55.9-31.8-76.5-20.5-20.5-47.7-31.8-76.5-31.8h0Z"/>
  </g>
  <rect class="st1" x="567" y="-513" width="594" height="1674" rx="81" ry="81" transform="translate(1188 -540) rotate(90)"/>
  <rect class="st0" x="612" y="-468" width="504" height="1584" rx="36" ry="36" transform="translate(1188 -540) rotate(90)"/>
  <g>
    <path class="st1" d="M130.5,400.3l43.5-16.2c12.1,27.3,34.3,42.4,61.6,42.4s44.5-18.2,44.5-42.4c0-38.5-44.5-44.5-81.9-59.6-17.2-7.1-55.6-24.3-55.6-71.7s38.4-77.8,89.9-77.8,67.7,23.3,81.9,58.6l-40.4,12.1c-4.5-11.4-21-25.3-42.4-25.3-41.1,0-44.6,21.9-44.6,29.1,0,26.9,23.2,32.3,61,44.1,38.4,12.1,78.6,29.8,78.6,91.5s-50.4,87.8-91,87.8-85.9-29.3-105.1-72.8Z"/>
    <path class="st1" d="M369.8,323.5c0-40.5,8.1-148.5,106.1-148.5s70.2,17,90,58.6l-42.4,18.2c-14.7-21.2-22.1-30.3-47.5-30.3-60.3,0-59.6,84-59.6,102.1s-1.1,103.1,61.6,103.1,34.6-13.3,44.5-33.4l43.4,16.2c-16.2,40.1-43.4,63.6-86.9,63.6-103.6,0-109.1-114.5-109.1-149.5Z"/>
    <path class="st1" d="M779.8,342.7h-105.2v125.3h-45.4V180h45.4v116.2h105.1v-116.2h45.5v288h-45.5v-125.3Z"/>
    <path class="st1" d="M1093.2,324c0,10.3,2.2,149-102.3,149s-102.3-138.7-102.3-149-2.2-149,102.3-149,102.3,138.7,102.3,149ZM991.4,426.6c31,0,56.2-29.4,56.2-102.6s-25.2-102.6-56.2-102.6-56.2,29.4-56.2,102.6,25.2,102.6,56.2,102.6Z"/>
    <path class="st1" d="M1355.5,324c0,10.3,2.2,149-102.3,149s-102.3-138.7-102.3-149-2.2-149,102.3-149,102.3,138.7,102.3,149ZM1253.7,426.6c31,0,56.2-29.4,56.2-102.6s-25.2-102.6-56.2-102.6-56.2,29.4-56.2,102.6,25.2,102.6,56.2,102.6Z"/>
    <path class="st1" d="M1418.8,180h45.4v245.6h133.2v42.4h-178.6V180Z"/>
  </g>
</svg>