<?xml version="1.0" encoding="UTF-8" standalone="no"?>
<!-- Created with Inkscape (http://www.inkscape.org/) -->

<svg
   version="1.1"
   id="svg1"
   width="2304.6667"
   height="1152.6667"
   viewBox="0 0 2304.6667 1152.6667"
   sodipodi:docname="tmphnn722mz.pdf"
   xmlns:inkscape="http://www.inkscape.org/namespaces/inkscape"
   xmlns:sodipodi="http://sodipodi.sourceforge.net/DTD/sodipodi-0.dtd"
   xmlns="http://www.w3.org/2000/svg"
   xmlns:svg="http://www.w3.org/2000/svg">
  <defs
     id="defs1" />
  <sodipodi:namedview
     id="namedview1"
     pagecolor="#ffffff"
     bordercolor="#000000"
     borderopacity="0.25"
     inkscape:showpageshadow="2"
     inkscape:pageopacity="0.0"
     inkscape:pagecheckerboard="0"
     inkscape:deskcolor="#d1d1d1">
    <inkscape:page
       x="0"
       y="0"
       inkscape:label="1"
       id="page1"
       width="2304.6667"
       height="1152.6667"
       margin="0"
       bleed="0" />
  </sodipodi:namedview>
  <g
     id="g1"
     inkscape:groupmode="layer"
     inkscape:label="1">
    <g
       id="group-R5">
      <path
         id="path2"
         d="M 1082.5,1.25 C 486.293,1.25 1.25,486.289 1.25,1082.5 v 6480 c 0,596.21 485.043,1081.25 1081.25,1081.25 h 15120 c 596.2,0 1081.3,-485.04 1081.3,-1081.25 v -6480 C 17283.8,486.289 16798.7,1.25 16202.5,1.25 h -15120"
         style="fill:#ffffff;fill-opacity:1;fill-rule:nonzero;stroke:none"
         transform="matrix(0.13333333,0,0,-0.13333333,0,1152.6667)" />
      <path
         id="path3"
         d="M 16202.5,8645 H 1082.5 C 794.547,8645 523.035,8532.07 317.984,8327.02 112.93,8121.96 0,7850.45 0,7562.5 v -6480 C 0,794.551 112.93,523.039 317.984,317.98 523.035,112.93 794.547,0 1082.5,0 h 15120 c 288,0 559.5,112.93 764.5,317.98 205.1,205.059 318,476.571 318,764.52 v 6480 c 0,287.95 -112.9,559.46 -318,764.52 -205,205.05 -476.5,317.98 -764.5,317.98 z m 0,-2.5 c 594,0 1080,-486 1080,-1080 v -6480 c 0,-594 -486,-1080 -1080,-1080 h -15120 c -594,0 -1080,486 -1080,1080 v 6480 c 0,594 486,1080 1080,1080 h 15120"
         style="fill:#231f20;fill-opacity:1;fill-rule:nonzero;stroke:none"
         transform="matrix(0.13333333,0,0,-0.13333333,0,1152.6667)" />
      <path
         id="path4"
         d="m 16202.5,722.5 c 198.5,0 360,161.488 360,360 v 6480 c 0,198.51 -161.5,360 -360,360 h -15120 c -198.508,0 -360,-161.49 -360,-360 v -6480 c 0,-198.512 161.492,-360 360,-360 z m -15120,-450 c -446.637,0 -810,363.359 -810,810 v 6480 c 0,446.64 363.363,810 810,810 h 15120 c 446.6,0 810,-363.36 810,-810 v -6480 c 0,-446.641 -363.4,-810 -810,-810 h -15120"
         style="fill:#231f20;fill-opacity:1;fill-rule:nonzero;stroke:none"
         transform="matrix(0.13333333,0,0,-0.13333333,0,1152.6667)" />
      <path
         id="path5"
         d="M 6636.94,4952.5 6351.64,6108.32 6072.87,4952.5 h -253.58 l -265.95,1799.99 h 291.38 l 139.49,-947.47 227.93,947.47 h 279 l 234.23,-947.47 139.5,947.47 h 291.37 L 6890.07,4952.5 h -253.13"
         style="fill:#231f20;fill-opacity:1;fill-rule:nonzero;stroke:none"
         transform="matrix(0.13333333,0,0,-0.13333333,0,1152.6667)" />
      <path
         id="path6"
         d="M 8367.51,5735.72 H 7710.29 V 4952.5 h -283.95 v 1799.99 h 283.95 V 6026.2 h 657 v 726.29 h 284.4 V 4952.5 h -284.18 v 783.22"
         style="fill:#231f20;fill-opacity:1;fill-rule:nonzero;stroke:none"
         transform="matrix(0.13333333,0,0,-0.13333333,0,1152.6667)" />
      <path
         id="path7"
         d="M 9083.77,6752.49 H 10143.5 V 6468.32 H 9367.73 V 6026.2 h 523.57 v -290.48 h -523.57 v -492.75 h 832.47 V 4952.5 H 9083.77 v 1799.99"
         style="fill:#231f20;fill-opacity:1;fill-rule:nonzero;stroke:none"
         transform="matrix(0.13333333,0,0,-0.13333333,0,1152.6667)" />
      <path
         id="path8"
         d="M 10790.3,6171.32 V 4952.5 h -284 v 1799.99 h 284 l 657,-1149.52 v 1149.52 h 284.4 V 4952.5 H 11479 l -688.7,1218.82"
         style="fill:#231f20;fill-opacity:1;fill-rule:nonzero;stroke:none"
         transform="matrix(0.13333333,0,0,-0.13333333,0,1152.6667)" />
      <path
         id="path9"
         d="m 3405.84,2966.24 h 523.55 V 2675.76 H 3405.84 V 1892.54 H 3121.9 v 1800 h 1116.4 v -284.18 h -832.46 v -442.12"
         style="fill:#231f20;fill-opacity:1;fill-rule:nonzero;stroke:none"
         transform="matrix(0.13333333,0,0,-0.13333333,0,1152.6667)" />
      <path
         id="path10"
         d="m 4508.35,3692.54 h 283.94 V 2157.82 h 832.46 v -265.28 h -1116.4 v 1800"
         style="fill:#231f20;fill-opacity:1;fill-rule:nonzero;stroke:none"
         transform="matrix(0.13333333,0,0,-0.13333333,0,1152.6667)" />
      <path
         id="path11"
         d="m 6317.34,2688.37 h 362.01 l -177.97,505.12 z m 463.48,-290.48 h -565.18 l -177.96,-505.35 h -304.87 l 622.55,1800 h 285.96 l 622.33,-1800 h -304.86 l -177.97,505.35"
         style="fill:#231f20;fill-opacity:1;fill-rule:nonzero;stroke:none"
         transform="matrix(0.13333333,0,0,-0.13333333,0,1152.6667)" />
      <path
         id="path12"
         d="m 7407.73,2315.77 271.57,101.02 c 75.82,-170.55 214.64,-265.27 385.18,-265.27 164.24,0 278.09,113.62 278.09,265.27 0,240.75 -277.86,277.88 -511.63,372.6 -107.32,44.32 -347.38,151.65 -347.38,448.43 0,353.92 239.84,485.99 562.02,485.99 252.67,0 423.21,-145.35 511.63,-366.3 l -252.67,-75.82 c -28.34,71.1 -131.16,157.95 -265.26,157.95 -256.71,0 -278.53,-137.03 -278.53,-182.03 0,-168.29 145.11,-201.6 381.13,-275.62 240.29,-75.6 491.15,-186.07 491.15,-571.95 0,-388.57 -314.98,-548.99 -568.55,-548.99 -309.58,0 -536.82,183.14 -656.75,454.72"
         style="fill:#231f20;fill-opacity:1;fill-rule:nonzero;stroke:none"
         transform="matrix(0.13333333,0,0,-0.13333333,0,1152.6667)" />
      <path
         id="path13"
         d="M 9880.23,2675.76 H 9223.04 V 1892.54 H 8939.1 v 1800 h 283.94 v -726.3 h 656.97 v 726.3 h 284.39 v -1800 h -284.17 v 783.22"
         style="fill:#231f20;fill-opacity:1;fill-rule:nonzero;stroke:none"
         transform="matrix(0.13333333,0,0,-0.13333333,0,1152.6667)" />
      <path
         id="path14"
         d="m 10596.5,3692.54 h 287.9 v -1800 h -287.9 v 1800"
         style="fill:#231f20;fill-opacity:1;fill-rule:nonzero;stroke:none"
         transform="matrix(0.13333333,0,0,-0.13333333,0,1152.6667)" />
      <path
         id="path15"
         d="M 11600.4,3111.36 V 1892.54 h -284 v 1800 h 284 l 657,-1149.52 v 1149.52 h 284.3 v -1800 h -252.6 l -688.7,1218.82"
         style="fill:#231f20;fill-opacity:1;fill-rule:nonzero;stroke:none"
         transform="matrix(0.13333333,0,0,-0.13333333,0,1152.6667)" />
      <path
         id="path16"
         d="m 13590.3,3723.81 c 288.4,0 450.9,-109.35 572.8,-397.79 l -271.6,-107.1 c -75.8,157.94 -151.4,214.64 -290.4,214.64 -395.6,0 -372.8,-602.1 -372.8,-644.17 0,-67.72 -15.3,-637.87 334.8,-637.87 183.1,0 315.8,113.62 315.8,277.87 v 75.6 h -328.4 v 284.4 h 612.4 v -360 c 0,-328.27 -239.9,-568.34 -568.6,-568.34 -65.2,0 -656.5,-53.78 -656.5,931.49 0,137.92 7.7,931.27 652.5,931.27"
         style="fill:#231f20;fill-opacity:1;fill-rule:nonzero;stroke:none"
         transform="matrix(0.13333333,0,0,-0.13333333,0,1152.6667)" />
    </g>
  </g>
</svg>
