<?xml version="1.0" standalone="no"?>
<svg width="2592px" height="3456px" viewBox="0 -2664 2592 3456 " xmlns="http://www.w3.org/2000/svg" xmlns:xlink="http://www.w3.org/1999/xlink">
<title>generated by pstoedit</title>
<!-- generated by pstoedit version:4.02 -->
<g xml:space='preserve'>
<clipPath id="clippath1"> 	<path d="
	M 0 -2664.5 
	L 0 792 
	L 2592.5 792 
	L 2592.5 -2664.5 
	Z 
	" style="clip-rule:nonzero"/>
</clipPath>
<g style="clip-path:url(#clippath1)"> 
<g fill="#ffffff" fill-rule="nonzero" stroke-width="0" stroke-linejoin="miter" stroke-linecap="butt" stroke-miterlimit="10" >
	<path d="
	M 2592.25 629.75 
	C 2592.25 719.219 2519.72 791.75 2430.25 791.75 
	L 162.25 791.75 
	C 72.7813 791.75 0.25 719.219 0.25 629.75 
	L 0.25 -2502.25 
	C 0.25 -2591.72 72.7813 -2664.25 162.25 -2664.25 
	L 2430.25 -2664.25 
	C 2519.72 -2664.25 2592.25 -2591.72 2592.25 -2502.25 
	Z 
	"/>
</g>
<g stroke="#7f7f7f" fill="none" stroke-width="0.5" stroke-linejoin="miter" stroke-linecap="butt" stroke-miterlimit="4" >
	<path d="
	M 2592.25 629.75 
	C 2592.25 719.219 2519.72 791.75 2430.25 791.75 
	L 162.25 791.75 
	C 72.7813 791.75 0.25 719.219 0.25 629.75 
	L 0.25 -2502.25 
	C 0.25 -2591.72 72.7813 -2664.25 162.25 -2664.25 
	L 2430.25 -2664.25 
	C 2519.72 -2664.25 2592.25 -2591.72 2592.25 -2502.25 
	Z 
	"/>
</g>
<g fill="#7f7f7f" fill-rule="nonzero" stroke-width="0" stroke-linejoin="miter" stroke-linecap="butt" stroke-miterlimit="4" >
	<path d="
	M 162.25 746.75 
	C 97.7344 746.75 45.25 694.262 45.25 629.75 
	L 45.25 -2502.25 
	C 45.25 -2566.76 97.7344 -2619.25 162.25 -2619.25 
	L 2430.25 -2619.25 
	C 2494.76 -2619.25 2547.25 -2566.76 2547.25 -2502.25 
	L 2547.25 629.75 
	C 2547.25 694.262 2494.76 746.75 2430.25 746.75 
	Z 
	"/>
</g>
<g fill="#ffffff" fill-rule="nonzero" stroke-width="0" stroke-linejoin="miter" stroke-linecap="butt" stroke-miterlimit="4" >
	<path d="
	M 162.25 683.75 
	C 132.477 683.75 108.25 659.52 108.25 629.75 
	L 108.25 -2502.25 
	C 108.25 -2532.03 132.477 -2556.25 162.25 -2556.25 
	L 2430.25 -2556.25 
	C 2460.03 -2556.25 2484.25 -2532.02 2484.25 -2502.25 
	L 2484.25 629.75 
	C 2484.25 659.52 2460.03 683.75 2430.25 683.75 
	Z 
	"/>
</g>
<g fill="#7f7f7f" fill-rule="nonzero" stroke-width="0" stroke-linejoin="miter" stroke-linecap="butt" stroke-miterlimit="4" >
	<path d="
	M 954.863 359.75 
	L 954.863 -72.25 
	L 1023.98 -72.25 
	L 1023.98 359.75 
	Z 
	"/>
</g>
<g fill="#7f7f7f" fill-rule="nonzero" stroke-width="0" stroke-linejoin="miter" stroke-linecap="butt" stroke-miterlimit="4" >
	<path d="
	M 1568.52 359.75 
	L 1568.52 -72.25 
	L 1637.64 -72.25 
	L 1637.64 359.75 
	Z 
	"/>
</g>
<g fill="#7f7f7f" fill-rule="nonzero" stroke-width="0" stroke-linejoin="miter" stroke-linecap="butt" stroke-miterlimit="4" >
	<path d="
	M 622.117 359.75 
	L 622.117 -72.25 
	L 690.238 -72.25 
	L 690.238 296.09 
	L 890.063 296.09 
	L 890.063 359.75 
	Z 
	"/>
</g>
<g fill="#7f7f7f" fill-rule="nonzero" stroke-width="0" stroke-linejoin="miter" stroke-linecap="butt" stroke-miterlimit="4" >
	<path d="
	M 1396.49 359.75 
	L 1396.49 109.648 
	L 1296.25 359.75 
	L 1196.01 109.648 
	L 1196.01 359.75 
	L 1127.66 359.75 
	L 1127.66 -72.25 
	L 1196.01 -72.25 
	L 1296.25 170.281 
	L 1396.49 -72.25 
	L 1464.84 -72.25 
	L 1464.84 359.75 
	Z 
	"/>
</g>
<g fill="#7f7f7f" fill-rule="nonzero" stroke-width="0" stroke-linejoin="miter" stroke-linecap="butt" stroke-miterlimit="4" >
	<path d="
	M 1869.91 -11.621 
	L 1869.91 359.75 
	L 1801.4 359.75 
	L 1801.4 -11.621 
	L 1702.44 -11.621 
	L 1702.44 -72.25 
	L 1970.39 -72.25 
	L 1970.39 -11.621 
	Z 
	"/>
</g>
<g fill="#7f7f7f" fill-rule="nonzero" stroke-width="0" stroke-linejoin="miter" stroke-linecap="butt" stroke-miterlimit="4" >
	<path d="
	M 1354.47 -1800.25 
	L 1189.24 -2092.8 
	L 1189.24 -1800.25 
	L 1121.02 -1800.25 
	L 1121.02 -2232.25 
	L 1189.24 -2232.25 
	L 1346.89 -1956.38 
	L 1346.89 -2232.25 
	L 1415.11 -2232.25 
	L 1415.11 -1800.25 
	Z 
	"/>
</g>
<g fill="#7f7f7f" fill-rule="nonzero" stroke-width="0" stroke-linejoin="miter" stroke-linecap="butt" stroke-miterlimit="4" >
	<path d="
	M 1708.27 -2145.85 
	C 1697.66 -2156.46 1682.51 -2164.04 1664.31 -2164.04 
	L 1587 -2164.04 
	L 1587 -1869.98 
	L 1655.22 -1869.98 
	C 1677.96 -1869.98 1691.6 -1874.52 1703.73 -1886.65 
	C 1729.5 -1912.41 1743.14 -1959.41 1743.14 -2017.01 
	C 1743.14 -2074.61 1729.5 -2123.11 1708.27 -2145.85 
	Z 
	M 1737.08 -1824.5 
	C 1720.4 -1809.34 1697.66 -1801.76 1674.93 -1800.25 
	C 1670.38 -1800.25 1661.28 -1800.25 1650.67 -1800.25 
	L 1518.79 -1800.25 
	L 1518.79 -2232.25 
	L 1658.25 -2232.25 
	C 1702.21 -2232.25 1718.89 -2227.7 1741.63 -2209.51 
	C 1787.1 -2170.1 1812.87 -2101.89 1812.87 -2017.01 
	C 1812.87 -1930.61 1785.59 -1862.39 1737.08 -1824.5 
	Z 
	"/>
</g>
<g fill="#7f7f7f" fill-rule="nonzero" stroke-width="0" stroke-linejoin="miter" stroke-linecap="butt" stroke-miterlimit="4" >
	<path d="
	M 779.633 -1800.25 
	L 779.633 -2232.25 
	L 1033.96 -2232.25 
	L 1033.96 -2164.04 
	L 847.754 -2164.04 
	L 847.754 -2057.93 
	L 973.402 -2057.93 
	L 973.402 -1988.21 
	L 847.754 -1988.21 
	L 847.754 -1869.98 
	L 1047.58 -1869.98 
	L 1047.58 -1800.25 
	Z 
	"/>
</g>
<g fill="#7f7f7f" fill-rule="nonzero" stroke-width="0" stroke-linejoin="miter" stroke-linecap="butt" stroke-miterlimit="4" >
	<path d="
	M 1010.72 -716.46 
	C 998.598 -722.52 991.02 -724.04 969.797 -724.04 
	L 880.359 -724.04 
	L 880.359 -617.93 
	L 969.797 -617.93 
	C 991.02 -617.93 998.598 -619.45 1010.72 -625.51 
	C 1025.88 -633.09 1036.5 -652.8 1036.5 -670.99 
	C 1036.5 -689.18 1025.88 -707.37 1010.72 -716.46 
	Z 
	M 1039.53 -563.37 
	C 1019.82 -554.27 994.051 -548.21 960.699 -548.21 
	L 880.359 -548.21 
	L 880.359 -360.25 
	L 812.145 -360.25 
	L 812.145 -792.25 
	L 960.699 -792.25 
	C 995.566 -792.25 1018.3 -789.22 1039.53 -778.61 
	C 1077.42 -760.42 1106.23 -714.94 1106.23 -670.99 
	C 1106.23 -625.51 1077.42 -580.04 1039.53 -563.37 
	Z 
	"/>
</g>
<g fill="#7f7f7f" fill-rule="nonzero" stroke-width="0" stroke-linejoin="miter" stroke-linecap="butt" stroke-miterlimit="4" >
	<path d="
	M 696.262 -386.02 
	C 672.008 -364.79 638.656 -352.67 602.273 -352.67 
	C 527.996 -352.67 473.426 -396.62 444.621 -461.8 
	L 509.805 -486.06 
	C 527.996 -445.13 561.344 -422.39 602.273 -422.39 
	C 641.688 -422.39 668.973 -449.68 668.973 -486.06 
	C 668.973 -543.66 602.273 -552.75 546.184 -575.49 
	C 520.418 -586.1 462.813 -611.87 462.813 -683.11 
	C 462.813 -768 520.418 -799.83 597.73 -799.83 
	C 658.359 -799.83 699.293 -764.96 720.512 -711.91 
	L 659.879 -693.72 
	C 659.879 -693.72 644.723 -730.1 596.211 -731.61 
	C 564.379 -733.13 526.48 -721.01 529.512 -681.59 
	C 535.574 -601.26 738.703 -654.31 738.703 -484.54 
	C 738.703 -445.13 723.547 -410.27 696.262 -386.02 
	Z 
	"/>
</g>
<g fill="#7f7f7f" fill-rule="nonzero" stroke-width="0" stroke-linejoin="miter" stroke-linecap="butt" stroke-miterlimit="4" >
	<path d="
	M 2043.29 -705.85 
	C 2032.68 -716.46 2017.52 -724.04 1999.32 -724.04 
	L 1922.01 -724.04 
	L 1922.01 -429.97 
	L 1990.23 -429.97 
	C 2012.97 -429.97 2026.61 -434.52 2038.74 -446.65 
	C 2064.51 -472.42 2078.15 -519.41 2078.15 -577.01 
	C 2078.15 -634.61 2064.51 -683.11 2043.29 -705.85 
	Z 
	M 2072.09 -384.5 
	C 2055.41 -369.34 2032.68 -361.76 2009.94 -360.25 
	C 2005.39 -360.25 1996.29 -360.25 1985.68 -360.25 
	L 1853.8 -360.25 
	L 1853.8 -792.25 
	L 1993.26 -792.25 
	C 2037.22 -792.25 2053.9 -787.7 2076.64 -769.51 
	C 2122.12 -730.1 2147.88 -661.89 2147.88 -577.01 
	C 2147.88 -490.61 2120.6 -422.39 2072.09 -384.5 
	Z 
	"/>
</g>
<g fill="#7f7f7f" fill-rule="nonzero" stroke-width="0" stroke-linejoin="miter" stroke-linecap="butt" stroke-miterlimit="4" >
	<path d="
	M 1171.02 -360.25 
	L 1171.02 -792.25 
	L 1425.35 -792.25 
	L 1425.35 -724.04 
	L 1239.14 -724.04 
	L 1239.14 -617.93 
	L 1364.79 -617.93 
	L 1364.79 -548.2 
	L 1239.14 -548.2 
	L 1239.14 -429.97 
	L 1438.97 -429.97 
	L 1438.97 -360.25 
	Z 
	"/>
</g>
<g fill="#7f7f7f" fill-rule="nonzero" stroke-width="0" stroke-linejoin="miter" stroke-linecap="butt" stroke-miterlimit="4" >
	<path d="
	M 1512.41 -360.25 
	L 1512.41 -792.25 
	L 1766.73 -792.25 
	L 1766.73 -724.04 
	L 1580.53 -724.04 
	L 1580.53 -617.93 
	L 1706.18 -617.93 
	L 1706.18 -548.2 
	L 1580.53 -548.2 
	L 1580.53 -429.97 
	L 1780.36 -429.97 
	L 1780.36 -360.25 
	Z 
	"/>
</g>
<g fill="#7f7f7f" fill-rule="nonzero" stroke-width="0" stroke-linejoin="miter" stroke-linecap="butt" stroke-miterlimit="4" >
	<path d="
	M 1538.57 -1416.75 
	C 1524.9 -1439.49 1508.18 -1448.58 1482.35 -1450.1 
	C 1448.92 -1451.62 1427.65 -1434.94 1412.46 -1397.05 
	C 1401.82 -1371.28 1395.74 -1331.87 1395.74 -1295.49 
	C 1395.74 -1250.01 1404.86 -1203.03 1421.57 -1175.74 
	C 1435.25 -1153 1453.48 -1142.39 1480.83 -1142.39 
	C 1512.74 -1142.39 1532.49 -1159.07 1547.69 -1196.96 
	C 1556.81 -1219.7 1564.4 -1262.14 1564.4 -1295.49 
	C 1564.4 -1343.99 1555.29 -1387.95 1538.57 -1416.75 
	Z 
	M 1585.68 -1121.17 
	C 1561.36 -1087.83 1526.42 -1072.67 1480.83 -1072.67 
	C 1420.05 -1072.67 1382.06 -1096.92 1356.23 -1149.97 
	C 1338 -1186.35 1325.85 -1243.95 1325.85 -1295.49 
	C 1325.85 -1366.73 1344.08 -1430.39 1372.95 -1471.32 
	C 1398.78 -1504.67 1433.73 -1519.83 1483.87 -1519.83 
	C 1538.57 -1519.83 1576.56 -1495.57 1603.91 -1442.52 
	C 1622.14 -1404.63 1632.78 -1350.06 1632.78 -1295.49 
	C 1632.78 -1227.28 1616.07 -1159.07 1585.68 -1121.17 
	Z 
	"/>
</g>
<g fill="#7f7f7f" fill-rule="nonzero" stroke-width="0" stroke-linejoin="miter" stroke-linecap="butt" stroke-miterlimit="4" >
	<path d="
	M 1914.63 -1416.75 
	C 1900.95 -1439.49 1884.24 -1448.58 1858.41 -1450.1 
	C 1824.98 -1451.62 1803.71 -1434.94 1788.51 -1397.05 
	C 1777.87 -1371.28 1771.8 -1331.87 1771.8 -1295.49 
	C 1771.8 -1250.01 1780.91 -1203.03 1797.63 -1175.74 
	C 1811.3 -1153 1829.54 -1142.39 1856.89 -1142.39 
	C 1888.8 -1142.39 1908.55 -1159.07 1923.75 -1196.96 
	C 1932.86 -1219.7 1940.46 -1262.14 1940.46 -1295.49 
	C 1940.46 -1343.99 1931.34 -1387.95 1914.63 -1416.75 
	Z 
	M 1961.73 -1121.17 
	C 1937.42 -1087.83 1902.47 -1072.67 1856.89 -1072.67 
	C 1796.11 -1072.67 1758.12 -1096.92 1732.29 -1149.97 
	C 1714.06 -1186.35 1701.9 -1243.95 1701.9 -1295.49 
	C 1701.9 -1366.73 1720.13 -1430.39 1749 -1471.32 
	C 1774.84 -1504.67 1809.78 -1519.83 1859.93 -1519.83 
	C 1914.63 -1519.83 1952.62 -1495.57 1979.97 -1442.52 
	C 1998.2 -1404.63 2008.84 -1350.06 2008.84 -1295.49 
	C 2008.84 -1227.28 1992.12 -1159.07 1961.73 -1121.17 
	Z 
	"/>
</g>
<g fill="#7f7f7f" fill-rule="nonzero" stroke-width="0" stroke-linejoin="miter" stroke-linecap="butt" stroke-miterlimit="4" >
	<path d="
	M 2084.87 -1080.25 
	L 2084.87 -1512.25 
	L 2152.99 -1512.25 
	L 2152.99 -1143.91 
	L 2352.81 -1143.91 
	L 2352.81 -1080.25 
	Z 
	"/>
</g>
<g fill="#7f7f7f" fill-rule="nonzero" stroke-width="0" stroke-linejoin="miter" stroke-linecap="butt" stroke-miterlimit="4" >
	<path d="
	M 491.328 -1106.01 
	C 467.074 -1084.79 433.723 -1072.67 397.344 -1072.67 
	C 323.066 -1072.67 268.492 -1116.62 239.688 -1181.8 
	L 304.875 -1206.06 
	C 323.066 -1165.13 356.414 -1142.39 397.344 -1142.39 
	C 436.758 -1142.39 464.043 -1169.68 464.043 -1206.06 
	C 464.043 -1263.66 397.344 -1272.75 341.254 -1295.49 
	C 315.484 -1306.1 257.883 -1331.87 257.883 -1403.11 
	C 257.883 -1487.99 315.484 -1519.83 392.797 -1519.83 
	C 453.43 -1519.83 494.359 -1484.96 515.582 -1431.91 
	L 454.949 -1413.72 
	C 454.949 -1413.72 439.789 -1450.1 391.277 -1451.61 
	C 359.445 -1453.13 321.547 -1441.01 324.578 -1401.59 
	C 330.645 -1321.26 533.773 -1374.31 533.773 -1204.54 
	C 533.773 -1165.13 518.613 -1130.27 491.328 -1106.01 
	Z 
	"/>
</g>
<g fill="#7f7f7f" fill-rule="nonzero" stroke-width="0" stroke-linejoin="miter" stroke-linecap="butt" stroke-miterlimit="4" >
	<path d="
	M 1181.6 -1080.25 
	L 1181.6 -1268.21 
	L 1023.94 -1268.21 
	L 1023.94 -1080.25 
	L 955.73 -1080.25 
	L 955.73 -1512.25 
	L 1023.94 -1512.25 
	L 1023.94 -1337.93 
	L 1181.6 -1337.93 
	L 1181.6 -1512.25 
	L 1249.81 -1512.25 
	L 1249.81 -1080.25 
	Z 
	"/>
</g>
<g fill="#7f7f7f" fill-rule="nonzero" stroke-width="0" stroke-linejoin="miter" stroke-linecap="butt" stroke-miterlimit="4" >
	<path d="
	M 749.328 -1072.67 
	C 685.66 -1072.67 644.73 -1096.92 617.445 -1149.97 
	C 597.738 -1187.87 585.613 -1242.44 585.613 -1297 
	C 585.613 -1365.22 603.801 -1433.43 634.121 -1471.32 
	C 659.891 -1503.15 696.273 -1519.83 744.781 -1519.83 
	C 809.965 -1519.83 850.895 -1492.54 879.695 -1431.91 
	L 816.027 -1404.63 
	C 791.773 -1441 778.129 -1450.1 744.781 -1450.1 
	C 709.918 -1450.1 687.176 -1434.94 672.02 -1397.05 
	C 661.406 -1371.28 655.344 -1333.38 655.344 -1297 
	C 655.344 -1250.02 665.953 -1203.03 682.629 -1175.74 
	C 697.789 -1153 717.496 -1142.39 747.813 -1142.39 
	C 776.613 -1142.39 797.836 -1157.55 814.512 -1192.42 
	L 879.695 -1168.16 
	C 853.926 -1104.5 811.48 -1072.67 749.328 -1072.67 
	Z 
	"/>
</g>
</g >
</g>
</svg>
