<?xml version="1.0" standalone="no"?>
<svg width="1728px" height="2160px" viewBox="0 -1368 1728 2160 " xmlns="http://www.w3.org/2000/svg" xmlns:xlink="http://www.w3.org/1999/xlink">
<title>generated by pstoedit</title>
<!-- generated by pstoedit version:4.02 -->
<g xml:space='preserve'>
<clipPath id="clippath1"> 	<path d="
	M 0 -1368.5 
	L 0 792 
	L 1728.5 792 
	L 1728.5 -1368.5 
	Z 
	" style="clip-rule:nonzero"/>
</clipPath>
<g style="clip-path:url(#clippath1)"> 
<g fill="#ffffff" fill-rule="nonzero" stroke-width="0" stroke-linejoin="miter" stroke-linecap="butt" stroke-miterlimit="10" >
	<path d="
	M 1728.25 683.75 
	C 1728.25 743.398 1679.9 791.75 1620.25 791.75 
	L 108.25 791.75 
	C 48.6016 791.75 0.25 743.398 0.25 683.75 
	L 0.25 -1260.25 
	C 0.25 -1319.9 48.6016 -1368.25 108.25 -1368.25 
	L 1620.25 -1368.25 
	C 1679.9 -1368.25 1728.25 -1319.9 1728.25 -1260.25 
	Z 
	"/>
</g>
<g stroke="#7f7f7f" fill="none" stroke-width="0.5" stroke-linejoin="miter" stroke-linecap="butt" stroke-miterlimit="4" >
	<path d="
	M 1728.25 683.75 
	C 1728.25 743.398 1679.9 791.75 1620.25 791.75 
	L 108.25 791.75 
	C 48.6016 791.75 0.25 743.398 0.25 683.75 
	L 0.25 -1260.25 
	C 0.25 -1319.9 48.6016 -1368.25 108.25 -1368.25 
	L 1620.25 -1368.25 
	C 1679.9 -1368.25 1728.25 -1319.9 1728.25 -1260.25 
	Z 
	"/>
</g>
<g fill="#7f7f7f" fill-rule="nonzero" stroke-width="0" stroke-linejoin="miter" stroke-linecap="butt" stroke-miterlimit="4" >
	<path d="
	M 108.25 764.75 
	C 63.5859 764.75 27.25 728.41 27.25 683.75 
	L 27.25 -1260.25 
	C 27.25 -1304.91 63.5859 -1341.25 108.25 -1341.25 
	L 1620.25 -1341.25 
	C 1664.91 -1341.25 1701.25 -1304.91 1701.25 -1260.25 
	L 1701.25 683.75 
	C 1701.25 728.41 1664.91 764.75 1620.25 764.75 
	Z 
	"/>
</g>
<g fill="#ffffff" fill-rule="nonzero" stroke-width="0" stroke-linejoin="miter" stroke-linecap="butt" stroke-miterlimit="4" >
	<path d="
	M 108.25 719.75 
	C 88.3984 719.75 72.25 703.602 72.25 683.75 
	L 72.25 -1260.25 
	C 72.25 -1280.1 88.3984 -1296.25 108.25 -1296.25 
	L 1620.25 -1296.25 
	C 1640.1 -1296.25 1656.25 -1280.1 1656.25 -1260.25 
	L 1656.25 683.75 
	C 1656.25 703.602 1640.1 719.75 1620.25 719.75 
	Z 
	"/>
</g>
<g fill="#7f7f7f" fill-rule="nonzero" stroke-width="0" stroke-linejoin="miter" stroke-linecap="butt" stroke-miterlimit="4" >
	<path d="
	M 636.656 557.75 
	L 636.656 269.75 
	L 682.738 269.75 
	L 682.738 557.75 
	Z 
	"/>
</g>
<g fill="#7f7f7f" fill-rule="nonzero" stroke-width="0" stroke-linejoin="miter" stroke-linecap="butt" stroke-miterlimit="4" >
	<path d="
	M 1045.76 557.75 
	L 1045.76 269.75 
	L 1091.84 269.75 
	L 1091.84 557.75 
	Z 
	"/>
</g>
<g fill="#7f7f7f" fill-rule="nonzero" stroke-width="0" stroke-linejoin="miter" stroke-linecap="butt" stroke-miterlimit="4" >
	<path d="
	M 414.824 557.75 
	L 414.824 269.75 
	L 460.238 269.75 
	L 460.238 515.309 
	L 593.457 515.309 
	L 593.457 557.75 
	Z 
	"/>
</g>
<g fill="#7f7f7f" fill-rule="nonzero" stroke-width="0" stroke-linejoin="miter" stroke-linecap="butt" stroke-miterlimit="4" >
	<path d="
	M 931.074 557.75 
	L 931.074 391.02 
	L 864.25 557.75 
	L 797.422 391.02 
	L 797.422 557.75 
	L 751.855 557.75 
	L 751.855 269.75 
	L 797.422 269.75 
	L 864.25 431.441 
	L 931.074 269.75 
	L 976.641 269.75 
	L 976.641 557.75 
	Z 
	"/>
</g>
<g fill="#7f7f7f" fill-rule="nonzero" stroke-width="0" stroke-linejoin="miter" stroke-linecap="butt" stroke-miterlimit="4" >
	<path d="
	M 1246.69 310.172 
	L 1246.69 557.75 
	L 1201.02 557.75 
	L 1201.02 310.172 
	L 1135.04 310.172 
	L 1135.04 269.75 
	L 1313.67 269.75 
	L 1313.67 310.172 
	Z 
	"/>
</g>
<g fill="#7f7f7f" fill-rule="nonzero" stroke-width="0" stroke-linejoin="miter" stroke-linecap="butt" stroke-miterlimit="4" >
	<path d="
	M 903.063 -846.25 
	L 792.906 -1041.28 
	L 792.906 -846.25 
	L 747.43 -846.25 
	L 747.43 -1134.25 
	L 792.906 -1134.25 
	L 898.008 -950.33 
	L 898.008 -1134.25 
	L 943.484 -1134.25 
	L 943.484 -846.25 
	Z 
	"/>
</g>
<g fill="#7f7f7f" fill-rule="nonzero" stroke-width="0" stroke-linejoin="miter" stroke-linecap="butt" stroke-miterlimit="4" >
	<path d="
	M 1138.93 -1076.65 
	C 1131.86 -1083.73 1121.75 -1088.78 1109.62 -1088.78 
	L 1058.08 -1088.78 
	L 1058.08 -892.73 
	L 1103.56 -892.73 
	C 1118.72 -892.73 1127.82 -895.77 1135.9 -903.85 
	C 1153.08 -921.03 1162.17 -952.36 1162.17 -990.76 
	C 1162.17 -1029.16 1153.08 -1061.49 1138.93 -1076.65 
	Z 
	M 1158.13 -862.42 
	C 1147.02 -852.31 1131.86 -847.26 1116.7 -846.25 
	C 1113.67 -846.25 1107.6 -846.25 1100.53 -846.25 
	L 1012.61 -846.25 
	L 1012.61 -1134.25 
	L 1105.58 -1134.25 
	C 1134.89 -1134.25 1146.01 -1131.22 1161.17 -1119.09 
	C 1191.48 -1092.82 1208.66 -1047.34 1208.66 -990.76 
	C 1208.66 -933.16 1190.47 -887.68 1158.13 -862.42 
	Z 
	"/>
</g>
<g fill="#7f7f7f" fill-rule="nonzero" stroke-width="0" stroke-linejoin="miter" stroke-linecap="butt" stroke-miterlimit="4" >
	<path d="
	M 519.836 -846.25 
	L 519.836 -1134.25 
	L 689.387 -1134.25 
	L 689.387 -1088.78 
	L 565.25 -1088.78 
	L 565.25 -1018.04 
	L 649.02 -1018.04 
	L 649.02 -971.55 
	L 565.25 -971.55 
	L 565.25 -892.73 
	L 698.469 -892.73 
	L 698.469 -846.25 
	Z 
	"/>
</g>
<g fill="#7f7f7f" fill-rule="nonzero" stroke-width="0" stroke-linejoin="miter" stroke-linecap="butt" stroke-miterlimit="4" >
	<path d="
	M 673.898 -147.719 
	C 665.813 -151.77 660.762 -152.781 646.613 -152.781 
	L 586.988 -152.781 
	L 586.988 -82.039 
	L 646.613 -82.039 
	C 660.762 -82.039 665.813 -83.051 673.898 -87.09 
	C 684.004 -92.141 691.078 -105.281 691.078 -117.41 
	C 691.078 -129.539 684.004 -141.66 673.898 -147.719 
	Z 
	M 693.102 -45.66 
	C 679.965 -39.602 662.781 -35.551 640.551 -35.551 
	L 586.988 -35.551 
	L 586.988 89.75 
	L 541.512 89.75 
	L 541.512 -198.25 
	L 640.551 -198.25 
	C 663.793 -198.25 678.949 -196.23 693.102 -189.16 
	C 718.363 -177.031 737.566 -146.711 737.566 -117.41 
	C 737.566 -87.09 718.363 -56.781 693.102 -45.66 
	Z 
	"/>
</g>
<g fill="#7f7f7f" fill-rule="nonzero" stroke-width="0" stroke-linejoin="miter" stroke-linecap="butt" stroke-miterlimit="4" >
	<path d="
	M 464.254 72.57 
	C 448.086 86.719 425.852 94.801 401.598 94.801 
	C 352.078 94.801 315.699 65.5 296.496 22.051 
	L 339.953 5.87903 
	C 352.078 33.16 374.313 48.32 401.598 48.32 
	C 427.875 48.32 446.063 30.129 446.063 5.87903 
	C 446.063 -32.52 401.598 -38.578 364.203 -53.738 
	C 347.027 -60.82 308.625 -77.988 308.625 -125.488 
	C 308.625 -182.078 347.027 -203.301 398.566 -203.301 
	C 438.988 -203.301 466.277 -180.059 480.426 -144.691 
	L 440.004 -132.559 
	C 440.004 -132.559 429.895 -156.82 397.555 -157.828 
	C 376.332 -158.84 351.066 -150.75 353.09 -124.48 
	C 357.133 -70.922 492.551 -106.289 492.551 6.89099 
	C 492.551 33.16 482.445 56.398 464.254 72.57 
	Z 
	"/>
</g>
<g fill="#7f7f7f" fill-rule="nonzero" stroke-width="0" stroke-linejoin="miter" stroke-linecap="butt" stroke-miterlimit="4" >
	<path d="
	M 1362.27 -140.648 
	C 1355.2 -147.719 1345.09 -152.781 1332.96 -152.781 
	L 1281.42 -152.781 
	L 1281.42 43.27 
	L 1326.9 43.27 
	C 1342.06 43.27 1351.16 40.238 1359.24 32.148 
	C 1376.42 14.969 1385.52 -16.359 1385.52 -54.762 
	C 1385.52 -93.148 1376.42 -125.488 1362.27 -140.648 
	Z 
	M 1381.47 73.578 
	C 1370.36 83.691 1355.2 88.738 1340.04 89.75 
	C 1337.01 89.75 1330.94 89.75 1323.87 89.75 
	L 1235.95 89.75 
	L 1235.95 -198.25 
	L 1328.92 -198.25 
	C 1358.23 -198.25 1369.35 -195.219 1384.51 -183.09 
	C 1414.83 -156.82 1432 -111.34 1432 -54.762 
	C 1432 2.85199 1413.81 48.32 1381.47 73.578 
	Z 
	"/>
</g>
<g fill="#7f7f7f" fill-rule="nonzero" stroke-width="0" stroke-linejoin="miter" stroke-linecap="butt" stroke-miterlimit="4" >
	<path d="
	M 780.766 89.75 
	L 780.766 -198.25 
	L 950.313 -198.25 
	L 950.313 -152.781 
	L 826.18 -152.781 
	L 826.18 -82.039 
	L 909.945 -82.039 
	L 909.945 -35.551 
	L 826.18 -35.551 
	L 826.18 43.27 
	L 959.395 43.27 
	L 959.395 89.75 
	Z 
	"/>
</g>
<g fill="#7f7f7f" fill-rule="nonzero" stroke-width="0" stroke-linejoin="miter" stroke-linecap="butt" stroke-miterlimit="4" >
	<path d="
	M 1008.36 89.75 
	L 1008.36 -198.25 
	L 1177.9 -198.25 
	L 1177.9 -152.781 
	L 1053.77 -152.781 
	L 1053.77 -82.039 
	L 1137.54 -82.039 
	L 1137.54 -35.551 
	L 1053.77 -35.551 
	L 1053.77 43.27 
	L 1186.99 43.27 
	L 1186.99 89.75 
	Z 
	"/>
</g>
<g fill="#7f7f7f" fill-rule="nonzero" stroke-width="0" stroke-linejoin="miter" stroke-linecap="butt" stroke-miterlimit="4" >
	<path d="
	M 1025.8 -602.59 
	C 1016.68 -617.75 1005.54 -623.81 988.316 -624.82 
	C 966.027 -625.83 951.852 -614.71 941.723 -589.45 
	C 934.629 -572.27 930.574 -546 930.574 -521.74 
	C 930.574 -491.43 936.652 -460.1 947.797 -441.91 
	C 956.918 -426.75 969.066 -419.68 987.305 -419.68 
	C 1008.58 -419.68 1021.74 -430.8 1031.88 -456.06 
	C 1037.96 -471.22 1043.02 -499.51 1043.02 -521.74 
	C 1043.02 -554.08 1036.94 -583.39 1025.8 -602.59 
	Z 
	M 1057.2 -405.53 
	C 1040.99 -383.3 1017.69 -373.2 987.305 -373.2 
	C 946.781 -373.2 921.461 -389.36 904.234 -424.73 
	C 892.086 -448.98 883.98 -487.39 883.98 -521.74 
	C 883.98 -569.24 896.137 -611.68 915.383 -638.96 
	C 932.605 -661.2 955.898 -671.3 989.328 -671.3 
	C 1025.8 -671.3 1051.12 -655.13 1069.36 -619.77 
	C 1081.51 -594.5 1088.6 -558.13 1088.6 -521.74 
	C 1088.6 -476.27 1077.46 -430.8 1057.2 -405.53 
	Z 
	"/>
</g>
<g fill="#7f7f7f" fill-rule="nonzero" stroke-width="0" stroke-linejoin="miter" stroke-linecap="butt" stroke-miterlimit="4" >
	<path d="
	M 1276.5 -602.59 
	C 1267.38 -617.75 1256.24 -623.81 1239.02 -624.82 
	C 1216.73 -625.83 1202.55 -614.71 1192.42 -589.45 
	C 1185.33 -572.27 1181.28 -546 1181.28 -521.74 
	C 1181.28 -491.43 1187.36 -460.1 1198.5 -441.91 
	C 1207.62 -426.75 1219.77 -419.68 1238.01 -419.68 
	C 1259.28 -419.68 1272.45 -430.8 1282.58 -456.06 
	C 1288.66 -471.22 1293.72 -499.51 1293.72 -521.74 
	C 1293.72 -554.08 1287.64 -583.39 1276.5 -602.59 
	Z 
	M 1307.9 -405.53 
	C 1291.69 -383.3 1268.4 -373.2 1238.01 -373.2 
	C 1197.49 -373.2 1172.16 -389.36 1154.94 -424.73 
	C 1142.79 -448.98 1134.68 -487.39 1134.68 -521.74 
	C 1134.68 -569.24 1146.84 -611.68 1166.08 -638.96 
	C 1183.31 -661.2 1206.6 -671.3 1240.03 -671.3 
	C 1276.5 -671.3 1301.83 -655.13 1320.06 -619.77 
	C 1332.21 -594.5 1339.31 -558.13 1339.31 -521.74 
	C 1339.31 -476.27 1328.16 -430.8 1307.9 -405.53 
	Z 
	"/>
</g>
<g fill="#7f7f7f" fill-rule="nonzero" stroke-width="0" stroke-linejoin="miter" stroke-linecap="butt" stroke-miterlimit="4" >
	<path d="
	M 1389.99 -378.25 
	L 1389.99 -666.25 
	L 1435.41 -666.25 
	L 1435.41 -420.69 
	L 1568.63 -420.69 
	L 1568.63 -378.25 
	Z 
	"/>
</g>
<g fill="#7f7f7f" fill-rule="nonzero" stroke-width="0" stroke-linejoin="miter" stroke-linecap="butt" stroke-miterlimit="4" >
	<path d="
	M 327.633 -395.43 
	C 311.465 -381.28 289.23 -373.2 264.977 -373.2 
	C 215.461 -373.2 179.078 -402.5 159.875 -445.95 
	L 203.332 -462.12 
	C 215.461 -434.84 237.691 -419.68 264.977 -419.68 
	C 291.254 -419.68 309.441 -437.87 309.441 -462.12 
	C 309.441 -500.52 264.977 -506.59 227.586 -521.74 
	C 210.406 -528.82 172.004 -546 172.004 -593.49 
	C 172.004 -650.08 210.406 -671.3 261.945 -671.3 
	C 302.367 -671.3 329.656 -648.06 343.805 -612.69 
	L 303.383 -600.57 
	C 303.383 -600.57 293.273 -624.82 260.934 -625.83 
	C 239.711 -626.84 214.445 -618.75 216.469 -592.48 
	C 220.512 -538.92 355.93 -574.29 355.93 -461.11 
	C 355.93 -434.84 345.824 -411.6 327.633 -395.43 
	Z 
	"/>
</g>
<g fill="#7f7f7f" fill-rule="nonzero" stroke-width="0" stroke-linejoin="miter" stroke-linecap="butt" stroke-miterlimit="4" >
	<path d="
	M 787.816 -378.25 
	L 787.816 -503.55 
	L 682.711 -503.55 
	L 682.711 -378.25 
	L 637.234 -378.25 
	L 637.234 -666.25 
	L 682.711 -666.25 
	L 682.711 -550.04 
	L 787.816 -550.04 
	L 787.816 -666.25 
	L 833.293 -666.25 
	L 833.293 -378.25 
	Z 
	"/>
</g>
<g fill="#7f7f7f" fill-rule="nonzero" stroke-width="0" stroke-linejoin="miter" stroke-linecap="butt" stroke-miterlimit="4" >
	<path d="
	M 499.633 -373.2 
	C 457.188 -373.2 429.902 -389.36 411.715 -424.73 
	C 398.574 -450 390.488 -486.38 390.488 -522.75 
	C 390.488 -568.23 402.617 -613.7 422.828 -638.96 
	C 440.008 -660.19 464.266 -671.3 496.602 -671.3 
	C 540.059 -671.3 567.344 -653.11 586.547 -612.69 
	L 544.102 -594.5 
	C 527.93 -618.75 518.836 -624.82 496.602 -624.82 
	C 473.359 -624.82 458.199 -614.71 448.094 -589.45 
	C 441.02 -572.27 436.977 -547.01 436.977 -522.75 
	C 436.977 -491.43 444.051 -460.1 455.168 -441.91 
	C 465.273 -426.75 478.41 -419.68 498.625 -419.68 
	C 517.824 -419.68 531.973 -429.79 543.09 -453.03 
	L 586.547 -436.86 
	C 569.367 -394.42 541.07 -373.2 499.633 -373.2 
	Z 
	"/>
</g>
</g >
</g>
</svg>
