<?xml version="1.0" encoding="UTF-8"?>
<svg id="For_Sheets" xmlns="http://www.w3.org/2000/svg" version="1.1" viewBox="0 0 2592 5184">
  <!-- Generator: Adobe Illustrator 29.1.0, SVG Export Plug-In . SVG Version: 2.1.0 Build 142)  -->
  <defs>
    <style>
      .st0 {
        fill: #bed73d;
      }

      .st1 {
        fill: #231f20;
      }

      .st2 {
        fill: #fff;
      }
    </style>
  </defs>
  <g>
    <path class="st2" d="M162,5184.1c-43.1,0-83.8-16.9-114.5-47.6-30.7-30.7-47.6-71.4-47.6-114.5V162C-.1,118.9,16.8,78.2,47.5,47.5,78.2,16.8,118.9-.1,162-.1h2268c43.1,0,83.8,16.9,114.5,47.6,30.7,30.7,47.6,71.4,47.6,114.5v4860c0,43.1-16.9,83.8-47.6,114.5-30.7,30.7-71.4,47.6-114.5,47.6H162Z"/>
    <path class="st1" d="M2430,0c89.1,0,162,72.9,162,162v4860c0,89.1-72.9,162-162,162H162c-89.1,0-162-72.9-162-162V162C0,72.9,72.9,0,162,0h2268M2430-.2H162c-21.8,0-43,4.3-63,12.8-19.3,8.2-36.7,19.9-51.6,34.9-14.9,14.9-26.7,32.3-34.9,51.6C4.1,119-.2,140.2-.2,162v4860c0,21.8,4.3,43,12.8,63,8.2,19.3,19.9,36.7,34.9,51.6,14.9,14.9,32.3,26.7,51.6,34.9,20,8.5,41.2,12.8,63,12.8h2268c21.8,0,43-4.3,63-12.8,19.3-8.2,36.7-19.9,51.6-34.9,14.9-14.9,26.7-32.3,34.9-51.6,8.5-20,12.8-41.2,12.8-63V162c0-21.8-4.3-43-12.8-63-8.2-19.3-19.9-36.7-34.9-51.6-14.9-14.9-32.3-26.7-51.6-34.9-20-8.5-41.2-12.8-63-12.8h0Z"/>
  </g>
  <g>
    <path class="st1" d="M162,5139.1c-31.1,0-60.5-12.2-82.7-34.4-22.2-22.2-34.4-51.6-34.4-82.7V162c0-31.1,12.2-60.5,34.4-82.7,22.2-22.2,51.6-34.4,82.7-34.4h2268c31.1,0,60.5,12.2,82.7,34.4,22.2,22.2,34.4,51.6,34.4,82.7v4860c0,31.1-12.2,60.5-34.4,82.7-22.2,22.2-51.6,34.4-82.7,34.4H162Z"/>
    <path class="st2" d="M2430,45c31.1,0,60.4,12.2,82.6,34.4,22.2,22.2,34.4,51.5,34.4,82.6v4860c0,31.1-12.2,60.4-34.4,82.6-22.2,22.2-51.5,34.4-82.6,34.4H162c-31.1,0-60.4-12.2-82.6-34.4-22.2-22.2-34.4-51.5-34.4-82.6V162c0-31.1,12.2-60.4,34.4-82.6,22.2-22.2,51.5-34.4,82.6-34.4h2268M2430,44.8H162c-31.1,0-60.5,12.2-82.8,34.5-22.2,22.2-34.5,51.6-34.5,82.8v4860c0,31.1,12.2,60.5,34.5,82.8,22.2,22.2,51.6,34.5,82.8,34.5h2268c31.1,0,60.5-12.2,82.8-34.5,22.2-22.2,34.5-51.6,34.5-82.8V162c0-31.1-12.2-60.5-34.5-82.8-22.2-22.2-51.6-34.5-82.8-34.5h0Z"/>
  </g>
  <path class="st2" d="M162,5076c-14.5,0-27.6-5.5-38-16-10.4-10.4-16-23.6-16-38V162c0-14.5,5.5-27.6,16-38s23.6-16,38-16h2268c14.5,0,27.6,5.5,38,16,10.4,10.4,16,23.6,16,38v4860c0,14.5-5.5,27.6-16,38-10.4,10.4-23.6,16-38,16H162Z"/>
  <g>
    <path class="st0" d="M2430,0H162C72.9,0,0,72.9,0,162v733.5h2592V162c0-89.1-72.9-162-162-162Z"/>
    <path class="st1" d="M2547,895.5V162c0-31.1-12.2-60.4-34.4-82.6-22.2-22.2-51.5-34.4-82.6-34.4H162c-31.1,0-60.4,12.2-82.6,34.4s-34.4,51.5-34.4,82.6v733.5h2502Z"/>
    <path class="st0" d="M2484,895.5V162c0-14.5-5.5-27.6-16-38-10.4-10.4-23.6-16-38-16H162c-14.5,0-27.6,5.5-38,16s-16,23.6-16,38v733.5h2376Z"/>
  </g>
  <path class="st1" d="M2430,0c89.1,0,162,72.9,162,162v4860c0,89.1-72.9,162-162,162H162c-89.1,0-162-72.9-162-162V162C0,72.9,72.9,0,162,0h2268M2430-.2H162c-21.8,0-43,4.3-63,12.8-19.3,8.2-36.7,19.9-51.6,34.9-14.9,14.9-26.7,32.3-34.9,51.6C4.1,119-.2,140.2-.2,162v4860c0,21.8,4.3,43,12.8,63,8.2,19.3,19.9,36.7,34.9,51.6,14.9,14.9,32.3,26.7,51.6,34.9,20,8.5,41.2,12.8,63,12.8h2268c21.8,0,43-4.3,63-12.8,19.3-8.2,36.7-19.9,51.6-34.9,14.9-14.9,26.7-32.3,34.9-51.6,8.5-20,12.8-41.2,12.8-63V162c0-21.8-4.3-43-12.8-63-8.2-19.3-19.9-36.7-34.9-51.6-14.9-14.9-32.3-26.7-51.6-34.9-20-8.5-41.2-12.8-63-12.8h0Z"/>
  <rect class="st1" x="45" y="864" width="2502" height="63"/>
  <g>
    <path class="st1" d="M195.8,600.4l65.2-24.2c18.2,40.9,51.5,63.7,92.4,63.7s66.7-27.3,66.7-63.7c0-57.8-66.7-66.7-122.8-89.4-25.8-10.6-83.4-36.4-83.4-107.6s57.6-116.6,134.9-116.6,101.6,34.9,122.8,87.9l-60.6,18.2c-6.8-17.1-31.5-37.9-63.7-37.9-61.6,0-66.8,32.9-66.8,43.7,0,40.4,34.8,48.4,91.5,66.1,57.7,18.1,117.9,44.7,117.9,137.3s-75.6,131.8-136.5,131.8-128.8-44-157.6-109.1Z"/>
    <path class="st1" d="M554.7,485.2c0-60.7,12.2-222.7,159.1-222.7s105.3,25.5,134.9,87.9l-63.7,27.3c-22.1-31.8-33.1-45.5-71.2-45.5-90.4,0-89.4,126-89.4,153.1s-1.7,154.7,92.4,154.7,51.9-19.9,66.7-50.1l65.2,24.2c-24.3,60.1-65.1,95.4-130.4,95.4-155.5,0-163.7-171.7-163.7-224.3Z"/>
    <path class="st1" d="M1169.7,514h-157.7v188h-68.1v-432h68.1v174.3h157.7v-174.3h68.3v432h-68.2v-188Z"/>
    <path class="st1" d="M1639.9,486c0,15.5,3.3,223.6-153.5,223.6s-153.5-208.1-153.5-223.6-3.3-223.5,153.5-223.5,153.5,208,153.5,223.5ZM1487.2,639.9c46.5,0,84.3-44.1,84.3-153.9s-37.8-153.9-84.3-153.9-84.3,44.1-84.3,153.9,37.8,153.9,84.3,153.9Z"/>
    <path class="st1" d="M2033.2,486c0,15.5,3.3,223.6-153.5,223.6s-153.5-208.1-153.5-223.6-3.3-223.5,153.5-223.5,153.5,208,153.5,223.5ZM1880.5,639.9c46.5,0,84.3-44.1,84.3-153.9s-37.8-153.9-84.3-153.9-84.3,44.1-84.3,153.9,37.8,153.9,84.3,153.9Z"/>
    <path class="st1" d="M2128.3,270h68.1v368.3h199.8v63.7h-267.9v-432Z"/>
  </g>
  <g>
    <path class="st1" d="M569.7,1706.5c-30.5,18.4-69.8,29.2-109.6,29.2-74.6,0-130.9-27.6-179.6-84.5l62.4-49.2c32,38.4,67,55.3,115.7,55.3s94.4-25.8,94.4-56.9-43.8-46.9-164.7-80.8c-60.8-17.1-88-63.3-88-109.7,0-72.3,61-121.4,149.2-121.4s117.3,21.4,161.4,67.5l-57.9,52.3c-27.4-29.2-62.4-43-103.5-43s-70,19.2-70,44.1c0,47.9,58.8,37.3,166.3,75.2,75.9,26.8,84.9,91.6,84.9,119,0,44.6-19.8,78.4-60.9,103Z"/>
    <path class="st1" d="M795.9,1558.2v169.8h-78.8v-432h211.3c91,0,138.8,69.3,138.8,131.1s-42.8,131.1-135.4,131.1h-135.9ZM795.9,1373.3v107.6h130.5c37.9,0,63.6-21.2,63.6-53s-25.3-54.5-63.7-54.5h-130.4Z"/>
    <path class="st1" d="M1140.6,1296h316.4v77.3h-237.3v80.3h129.3v78.8h-129.3v118.2h244.9v77.3h-324v-432Z"/>
    <path class="st1" d="M1551,1296h316.4v77.3h-237.3v80.3h129.3v78.8h-129.3v118.2h244.9v77.3h-324v-432Z"/>
    <path class="st1" d="M1961.4,1728v-432h142.8c137.5,0,207.4,104.3,207.4,215.2s-77,216.8-206.8,216.8h-143.3ZM2100.6,1373.3h-60.5v277.3h59.9c69.2,0,134.3-45.7,134.3-139.4s-54.6-137.9-133.7-137.9Z"/>
  </g>
  <g>
    <path class="st1" d="M505.3,2016h77.6v365.3h246.4v66.7h-324v-432Z"/>
    <path class="st1" d="M902.8,2016h77.8v432h-77.8v-432Z"/>
    <path class="st1" d="M1423.1,2184.3l-127.8,263.7-126.3-263.7v263.7h-76.1v-432h76.1l126.3,256.2,127.8-256.2h76.1v432h-76.1v-263.7Z"/>
    <path class="st1" d="M1611.5,2016h77.8v432h-77.8v-432Z"/>
    <path class="st1" d="M1962.5,2448h-75.7v-356.2h-124.1v-75.8h324v75.8h-124.1v356.2Z"/>
  </g>
  <g>
    <path class="st1" d="M1195.2,3563.6v180.4H378.2c0-259.1,143.1-451.5,354.3-552.1,116.4-55.3,281.4-56.7,281.4-172.9s-70.8-116.8-198.7-116.8-227.3,31.8-312.6,109.6l-124.4-137.8c117.2-102.6,262.8-155.5,426.4-155.5,238,0,390.6,116.7,390.6,300.6s-68.5,212.2-167.3,258.2c-137.5,63.8-307.4,48.6-429.4,286.3h596.7Z"/>
    <path class="st1" d="M1366.6,3238.2c0-264.9,127.6-519.7,425.4-519.7s421.8,259.8,421.8,516.3-117.6,526.8-421.8,526.8-425.4-258.5-425.4-523.4ZM1792,2898.7c-180.8,0-244.6,187.5-244.6,336,0,222.9,92.1,346.5,244.6,346.5s241-154.5,241-343-88.6-339.6-241-339.6Z"/>
  </g>
  <g>
    <path class="st1" d="M975.1,4320l-45.6-184.9-44.6,184.9h-40.6l-42.6-288h46.6l22.3,151.6,36.5-151.6h44.6l37.5,151.6,22.3-151.6h46.6l-42.6,288h-40.5Z"/>
    <path class="st1" d="M1252,4194.7h-105.2v125.3h-45.4v-288h45.4v116.2h105.1v-116.2h45.5v288h-45.5v-125.3Z"/>
    <path class="st1" d="M1366.6,4032h169.6v45.5h-124.1v70.7h83.8v46.5h-83.8v78.8h133.2v46.5h-178.6v-288Z"/>
    <path class="st1" d="M1639.6,4125v195h-45.4v-288h45.4l105.1,183.9v-183.9h45.5v288h-40.4l-110.2-195Z"/>
  </g>
  <g>
    <path class="st1" d="M458.1,4580.2h83.8v46.5h-83.8v125.3h-45.4v-288h178.6v45.5h-133.2v70.7Z"/>
    <path class="st1" d="M634.5,4464h45.4v245.6h133.2v42.4h-178.6v-288Z"/>
    <path class="st1" d="M998.1,4671.1h-90.4l-28.5,80.9h-48.8l99.6-288h45.8l99.6,288h-48.8l-28.5-80.9ZM924,4624.7h57.9l-28.5-80.8-29.4,80.8Z"/>
    <path class="st1" d="M1098.4,4684.3l43.5-16.2c12.1,27.3,34.3,42.4,61.6,42.4s44.5-18.2,44.5-42.4c0-38.5-44.5-44.5-81.9-59.6-17.2-7.1-55.6-24.3-55.6-71.7s38.4-77.8,89.9-77.8,67.7,23.3,81.9,58.6l-40.4,12.1c-4.5-11.4-21-25.3-42.4-25.3-41.1,0-44.6,21.9-44.6,29.1,0,26.9,23.2,32.3,61,44.1,38.4,12.1,78.6,29.8,78.6,91.5s-50.4,87.8-91,87.8-85.9-29.3-105.1-72.8Z"/>
    <path class="st1" d="M1494,4626.7h-105.2v125.3h-45.4v-288h45.4v116.2h105.1v-116.2h45.5v288h-45.5v-125.3Z"/>
    <path class="st1" d="M1608.6,4464h46.1v288h-46.1v-288Z"/>
    <path class="st1" d="M1769.3,4557v195h-45.4v-288h45.4l105.1,183.9v-183.9h45.5v288h-40.4l-110.2-195Z"/>
    <path class="st1" d="M2087.6,4459c46.2,0,72.1,17.5,91.7,63.6l-43.5,17.1c-12.1-25.3-24.2-34.3-46.5-34.3-63.3,0-59.6,96.3-59.6,103.1,0,10.8-2.4,102.1,53.6,102.1s50.5-18.2,50.5-44.5v-12.1h-52.6v-45.5h98v57.6c0,52.5-38.4,90.9-91,90.9s-105,8.6-105-149,1.2-149,104.4-149Z"/>
  </g>
</svg>