<?xml version="1.0" encoding="UTF-8"?>
<svg id="For_Sheets" xmlns="http://www.w3.org/2000/svg" version="1.1" viewBox="0 0 1728 3456">
  <!-- Generator: Adobe Illustrator 29.1.0, SVG Export Plug-In . SVG Version: 2.1.0 Build 142)  -->
  <defs>
    <style>
      .st0 {
        fill: #bed73d;
      }

      .st1 {
        fill: #231f20;
      }

      .st2 {
        fill: #fff;
      }
    </style>
  </defs>
  <g>
    <rect class="st2" x="-.1" y="-.1" width="1728.2" height="3456.2" rx="108.1" ry="108.1"/>
    <path class="st1" d="M1620,0c59.4,0,108,48.6,108,108v3240c0,59.4-48.6,108-108,108H108c-59.4,0-108-48.6-108-108V108C0,48.6,48.6,0,108,0h1512M1620-.2H108C79.2-.2,52.1,11,31.5,31.5,11,52.1-.2,79.2-.2,108v3240c0,28.8,11.3,55.9,31.8,76.5,20.5,20.5,47.7,31.8,76.5,31.8h1512c28.8,0,55.9-11.3,76.5-31.8s31.8-47.7,31.8-76.5V108c0-28.8-11.3-55.9-31.8-76.5S1648.8-.2,1620-.2h0Z"/>
  </g>
  <g>
    <rect class="st2" x="-.1" y="-.1" width="1728.2" height="3456.2" rx="108.1" ry="108.1"/>
    <path class="st1" d="M1620,0c59.4,0,108,48.6,108,108v3240c0,59.4-48.6,108-108,108H108c-59.4,0-108-48.6-108-108V108C0,48.6,48.6,0,108,0h1512M1620-.2H108C79.2-.2,52.1,11,31.5,31.5,11,52.1-.2,79.2-.2,108v3240c0,28.8,11.3,55.9,31.8,76.5,20.5,20.5,47.7,31.8,76.5,31.8h1512c28.8,0,55.9-11.3,76.5-31.8s31.8-47.7,31.8-76.5V108c0-28.8-11.3-55.9-31.8-76.5S1648.8-.2,1620-.2h0Z"/>
  </g>
  <rect class="st1" x="-837" y="891" width="3402" height="1674" rx="81" ry="81" transform="translate(2592 864) rotate(90)"/>
  <rect class="st2" x="-792" y="936" width="3312" height="1584" rx="36" ry="36" transform="translate(2592 864) rotate(90)"/>
  <path class="st1" d="M1620,0c59.4,0,108,48.6,108,108v3240c0,59.4-48.6,108-108,108H108c-59.4,0-108-48.6-108-108V108C0,48.6,48.6,0,108,0h1512M1620-.2H108C79.2-.2,52.1,11,31.5,31.5,11,52.1-.2,79.2-.2,108v3240c0,28.8,11.3,55.9,31.8,76.5,20.5,20.5,47.7,31.8,76.5,31.8h1512c28.8,0,55.9-11.3,76.5-31.8s31.8-47.7,31.8-76.5V108c0-28.8-11.3-55.9-31.8-76.5S1648.8-.2,1620-.2h0Z"/>
  <g>
    <path class="st2" d="M1728,598.5V108c0-59.4-48.6-108-108-108H108C48.6,0,0,48.6,0,108v490.5h1728Z"/>
    <path class="st0" d="M1728,598.5V108c0-59.4-48.6-108-108-108H108C48.6,0,0,48.6,0,108v490.5h1728"/>
    <path class="st1" d="M1701,598.5V108c0-44.7-36.3-81-81-81H108c-44.7,0-81,36.3-81,81v490.5h1674Z"/>
    <path class="st0" d="M1656,598.5V108c0-19.9-16.1-36-36-36H108c-19.9,0-36,16.1-36,36v490.5h1584Z"/>
  </g>
  <rect class="st1" x="27" y="576" width="1674" height="45"/>
  <g>
    <path class="st1" d="M130.5,400.3l43.5-16.2c12.1,27.3,34.3,42.4,61.6,42.4s44.5-18.2,44.5-42.4c0-38.5-44.5-44.5-81.9-59.6-17.2-7.1-55.6-24.3-55.6-71.7s38.4-77.8,89.9-77.8,67.7,23.3,81.9,58.6l-40.4,12.1c-4.5-11.4-21-25.3-42.4-25.3-41.1,0-44.6,21.9-44.6,29.1,0,26.9,23.2,32.3,61,44.1,38.4,12.1,78.6,29.8,78.6,91.5s-50.4,87.8-91,87.8-85.9-29.3-105.1-72.8Z"/>
    <path class="st1" d="M369.8,323.5c0-40.5,8.1-148.5,106.1-148.5s70.2,17,90,58.6l-42.4,18.2c-14.7-21.2-22.1-30.3-47.5-30.3-60.3,0-59.6,84-59.6,102.1s-1.1,103.1,61.6,103.1,34.6-13.3,44.5-33.4l43.4,16.2c-16.2,40.1-43.4,63.6-86.9,63.6-103.6,0-109.1-114.5-109.1-149.5Z"/>
    <path class="st1" d="M779.8,342.7h-105.2v125.3h-45.4V180h45.4v116.2h105.1v-116.2h45.5v288h-45.5v-125.3Z"/>
    <path class="st1" d="M1093.2,324c0,10.3,2.2,149-102.3,149s-102.3-138.7-102.3-149-2.2-149,102.3-149,102.3,138.7,102.3,149ZM991.4,426.6c31,0,56.2-29.4,56.2-102.6s-25.2-102.6-56.2-102.6-56.2,29.4-56.2,102.6,25.2,102.6,56.2,102.6Z"/>
    <path class="st1" d="M1355.4,324c0,10.3,2.2,149-102.3,149s-102.3-138.7-102.3-149-2.2-149,102.3-149,102.3,138.7,102.3,149ZM1253.6,426.6c31,0,56.2-29.4,56.2-102.6s-25.2-102.6-56.2-102.6-56.2,29.4-56.2,102.6,25.2,102.6,56.2,102.6Z"/>
    <path class="st1" d="M1418.8,180h45.4v245.6h133.2v42.4h-178.6V180Z"/>
  </g>
  <g>
    <path class="st1" d="M379.8,1137.6c-20.3,12.3-46.5,19.5-73,19.5-49.7,0-87.3-18.4-119.8-56.3l41.6-32.8c21.3,25.6,44.6,36.9,77.1,36.9s62.9-17.2,62.9-37.9-29.2-31.2-109.8-53.9c-40.5-11.4-58.7-42.2-58.7-73.2,0-48.2,40.6-80.9,99.5-80.9s78.2,14.3,107.6,45l-38.6,34.8c-18.3-19.5-41.6-28.7-69-28.7s-46.7,12.8-46.7,29.4c0,31.9,39.2,24.9,110.8,50.1,50.6,17.9,56.6,61.1,56.6,79.3,0,29.7-13.2,52.3-40.6,68.7Z"/>
    <path class="st1" d="M530.6,1038.8v113.2h-52.6v-288h140.9c60.7,0,92.5,46.2,92.5,87.4s-28.5,87.4-90.3,87.4h-90.6ZM530.6,915.6v71.7h87c25.2,0,42.4-14.1,42.4-35.4s-16.8-36.4-42.5-36.4h-86.9Z"/>
    <path class="st1" d="M760.4,864h210.9v51.6h-158.2v53.5h86.2v52.6h-86.2v78.8h163.3v51.6h-216v-288Z"/>
    <path class="st1" d="M1034,864h210.9v51.6h-158.2v53.5h86.2v52.6h-86.2v78.8h163.3v51.6h-216v-288Z"/>
    <path class="st1" d="M1307.6,1152v-288h95.2c91.7,0,138.2,69.5,138.2,143.5s-51.3,144.5-137.9,144.5h-95.5ZM1400.4,915.6h-40.3v184.9h39.9c46.1,0,89.5-30.5,89.5-93s-36.4-91.9-89.1-91.9Z"/>
  </g>
  <g>
    <path class="st1" d="M336.9,1296h51.7v243.5h164.3v44.5h-216v-288Z"/>
    <path class="st1" d="M601.8,1296h51.8v288h-51.8v-288Z"/>
    <path class="st1" d="M948.7,1408.2l-85.2,175.8-84.2-175.8v175.8h-50.7v-288h50.7l84.2,170.8,85.2-170.8h50.7v288h-50.7v-175.8Z"/>
    <path class="st1" d="M1074.3,1296h51.8v288h-51.8v-288Z"/>
    <path class="st1" d="M1308.3,1584h-50.5v-237.5h-82.8v-50.5h216v50.5h-82.8v237.5Z"/>
  </g>
  <g>
    <path class="st1" d="M792,2319.1v128.9H208.4c0-185,102.2-322.5,253.1-394.4,83.2-39.5,201-40.5,201-123.5s-50.6-83.4-141.9-83.4-162.4,22.7-223.3,78.3l-88.8-98.5c83.7-73.3,187.7-111.1,304.6-111.1,170,0,279,83.3,279,214.7s-49,151.6-119.5,184.4c-98.2,45.5-219.6,34.7-306.7,204.5h426.2Z"/>
    <path class="st1" d="M914.4,2086.7c0-189.2,91.2-371.2,303.8-371.2s301.3,185.6,301.3,368.8-84,376.3-301.3,376.3-303.8-184.7-303.8-373.9ZM1218.3,1844.2c-129.1,0-174.7,133.9-174.7,240,0,159.2,65.8,247.5,174.7,247.5s172.2-110.3,172.2-245-63.3-242.5-172.2-242.5Z"/>
  </g>
  <g>
    <path class="st1" d="M663.4,2844l-28.5-115.6-27.9,115.6h-25.4l-26.6-180h29.1l13.9,94.7,22.8-94.7h27.9l23.4,94.7,14-94.7h29.1l-26.6,180h-25.3Z"/>
    <path class="st1" d="M836.5,2765.7h-65.7v78.3h-28.4v-180h28.4v72.6h65.7v-72.6h28.4v180h-28.4v-78.3Z"/>
    <path class="st1" d="M908.1,2664h106v28.4h-77.6v44.2h52.4v29h-52.4v49.3h83.3v29h-111.6v-180Z"/>
    <path class="st1" d="M1078.8,2722.1v121.9h-28.4v-180h28.4l65.7,115v-115h28.4v180h-25.3l-68.9-121.9Z"/>
  </g>
  <g>
    <path class="st1" d="M340.3,3060.6h52.4v29h-52.4v78.3h-28.4v-180h111.6v28.4h-83.2v44.2Z"/>
    <path class="st1" d="M450.6,2988h28.4v153.5h83.2v26.5h-111.6v-180Z"/>
    <path class="st1" d="M677.8,3117.5h-56.5l-17.8,50.5h-30.5l62.3-180h28.6l62.2,180h-30.5l-17.8-50.5ZM631.5,3088.4h36.2l-17.8-50.5-18.4,50.5Z"/>
    <path class="st1" d="M740.5,3125.7l27.2-10.1c7.6,17.1,21.5,26.5,38.5,26.5s27.8-11.4,27.8-26.5c0-24.1-27.8-27.8-51.2-37.3-10.7-4.4-34.7-15.2-34.7-44.8s24-48.6,56.2-48.6,42.3,14.5,51.2,36.6l-25.3,7.6c-2.8-7.1-13.1-15.8-26.5-15.8-25.7,0-27.9,13.7-27.9,18.2,0,16.8,14.5,20.2,38.1,27.6,24,7.6,49.1,18.6,49.1,57.2s-31.5,54.9-56.9,54.9-53.7-18.3-65.7-45.5Z"/>
    <path class="st1" d="M987.8,3089.7h-65.7v78.3h-28.4v-180h28.4v72.6h65.7v-72.6h28.4v180h-28.4v-78.3Z"/>
    <path class="st1" d="M1059.4,2988h28.8v180h-28.8v-180Z"/>
    <path class="st1" d="M1159.8,3046.1v121.9h-28.4v-180h28.4l65.7,115v-115h28.4v180h-25.3l-68.9-121.9Z"/>
    <path class="st1" d="M1358.8,2984.9c28.8,0,45.1,10.9,57.3,39.8l-27.2,10.7c-7.6-15.8-15.1-21.5-29-21.5-39.6,0-37.3,60.2-37.3,64.4,0,6.8-1.5,63.8,33.5,63.8s31.6-11.4,31.6-27.8v-7.6h-32.8v-28.4h61.2v36c0,32.8-24,56.8-56.9,56.8s-65.7,5.4-65.7-93.1.8-93.1,65.2-93.1Z"/>
  </g>
</svg>