<?xml version="1.0" encoding="UTF-8" standalone="no"?>
<!-- Created with Inkscape (http://www.inkscape.org/) -->

<svg
   version="1.1"
   id="svg1"
   width="2304.6667"
   height="2880.6667"
   viewBox="0 0 2304.6667 2880.6667"
   sodipodi:docname="tmpi5iwvksw.pdf"
   xmlns:inkscape="http://www.inkscape.org/namespaces/inkscape"
   xmlns:sodipodi="http://sodipodi.sourceforge.net/DTD/sodipodi-0.dtd"
   xmlns="http://www.w3.org/2000/svg"
   xmlns:svg="http://www.w3.org/2000/svg">
  <defs
     id="defs1" />
  <sodipodi:namedview
     id="namedview1"
     pagecolor="#ffffff"
     bordercolor="#000000"
     borderopacity="0.25"
     inkscape:showpageshadow="2"
     inkscape:pageopacity="0.0"
     inkscape:pagecheckerboard="0"
     inkscape:deskcolor="#d1d1d1">
    <inkscape:page
       x="0"
       y="0"
       inkscape:label="1"
       id="page1"
       width="2304.6667"
       height="2880.6667"
       margin="0"
       bleed="0" />
  </sodipodi:namedview>
  <g
     id="g1"
     inkscape:groupmode="layer"
     inkscape:label="1">
    <g
       id="group-R5">
      <path
         id="path2"
         d="M 1082.5,1.20313 C 486.301,1.20313 1.25,486.301 1.25,1082.5 v 19440 c 0,596.2 485.051,1081.3 1081.25,1081.3 h 15120 c 596.2,0 1081.3,-485.1 1081.3,-1081.3 V 1082.5 C 17283.8,486.301 16798.7,1.20313 16202.5,1.20313 h -15120"
         style="fill:#ffffff;fill-opacity:1;fill-rule:nonzero;stroke:none"
         transform="matrix(0.13333333,0,0,-0.13333333,0,2880.6667)" />
      <path
         id="path3"
         d="m 16202.5,21605 h -15120 c -287.953,0 -559.465,-112.9 -764.52,-318 C 112.93,21082 0,20810.5 0,20522.5 V 1082.5 C 0,794.5 112.93,523 317.98,318 523.035,112.902 794.547,0 1082.5,0 h 15120 c 288,0 559.5,112.902 764.5,318 205.1,205 318,476.5 318,764.5 v 19440 c 0,288 -112.9,559.5 -318,764.5 -205,205.1 -476.5,318 -764.5,318 z m 0,-2.5 c 594,0 1080,-486 1080,-1080 v -19440 c 0,-594 -486,-1080 -1080,-1080 h -15120 c -594,0 -1080,486 -1080,1080 v 19440 c 0,594 486,1080 1080,1080 h 15120"
         style="fill:#231f20;fill-opacity:1;fill-rule:nonzero;stroke:none"
         transform="matrix(0.13333333,0,0,-0.13333333,0,2880.6667)" />
      <path
         id="path4"
         d="m 1082.5,272.5 c -446.637,0 -810,363.402 -810,810 v 19440 c 0,446.6 363.363,810 810,810 h 15120 c 446.6,0 810,-363.4 810,-810 v -19440 c 0,-446.598 -363.4,-810 -810,-810 h -15120"
         style="fill:#231f20;fill-opacity:1;fill-rule:nonzero;stroke:none"
         transform="matrix(0.13333333,0,0,-0.13333333,0,2880.6667)" />
      <path
         id="path5"
         d="m 1082.5,722.5 c -198.5,0 -360,161.5 -360,360 v 19440 c 0,198.5 161.5,360 360,360 h 15120 c 198.5,0 360,-161.5 360,-360 v -19440 c 0,-198.5 -161.5,-360 -360,-360 h -15120"
         style="fill:#ffffff;fill-opacity:1;fill-rule:nonzero;stroke:none"
         transform="matrix(0.13333333,0,0,-0.13333333,0,2880.6667)" />
      <path
         id="path6"
         d="m 5732.62,17282.5 h 1357.87 v -404.3 h -942.45 v -727.5 h 597.58 v -394.2 h -597.58 v -950.1 h 1054.05 v -403.9 H 5732.62 v 2880"
         style="fill:#231f20;fill-opacity:1;fill-rule:nonzero;stroke:none"
         transform="matrix(0.13333333,0,0,-0.13333333,0,2880.6667)" />
      <path
         id="path7"
         d="m 8105.01,16332.5 v -1930 h -413.26 v 2880 h 413.26 l 786.57,-1728 v 1728 h 413.62 v -2880 h -312.46 l -887.73,1930"
         style="fill:#231f20;fill-opacity:1;fill-rule:nonzero;stroke:none"
         transform="matrix(0.13333333,0,0,-0.13333333,0,2880.6667)" />
      <path
         id="path8"
         d="m 10675.1,16878.2 h -322.9 v -2071.4 h 287.3 c 336.9,0 509.3,147.2 509.3,1020.6 0,1011.9 -252.3,1050.8 -473.7,1050.8 z m -736.18,-2475.7 v 2880 h 821.88 c 175.6,0 791.6,-8.6 791.6,-1434.9 0,-1305 -568.8,-1445.1 -757.4,-1445.1 h -856.08"
         style="fill:#231f20;fill-opacity:1;fill-rule:nonzero;stroke:none"
         transform="matrix(0.13333333,0,0,-0.13333333,0,2880.6667)" />
      <path
         id="path9"
         d="m 3274.5,11193.5 c 314.99,-197.7 787.29,-474.5 787.29,-1043 0,-466.1 -355.31,-838.4 -801.69,-838.4 -507.22,0 -811.76,429.1 -811.76,899.3 h 406.06 c 0,-245.2 121.68,-495.4 405.7,-495.4 223.19,0 405.7,202 405.7,434.5 0,626.1 -1075.27,590.1 -1075.27,1394.7 0,414.3 324.71,747.3 740.49,747.3 406.06,0 720.69,-313.2 730.77,-747.7 H 3665.8 c -10.08,202 -152.27,333.4 -334.78,333.4 -192.95,0 -344.87,-141.1 -344.87,-333 0,-187.2 99.36,-233.3 288.35,-351.7"
         style="fill:#231f20;fill-opacity:1;fill-rule:nonzero;stroke:none"
         transform="matrix(0.13333333,0,0,-0.13333333,0,2880.6667)" />
      <path
         id="path10"
         d="m 5691.16,11474.6 c -39.96,283 -151.91,414.4 -344.86,414.4 -334.79,0 -456.83,-262.8 -456.83,-1010.2 0,-828.7 142.2,-1162 497.51,-1162 243.7,0 304.18,202.3 304.18,414.3 h 416.14 c -10.07,-474.8 -314.26,-818.6 -720.32,-818.6 -618.82,0 -893.13,495 -893.13,1556.2 0,929.2 294.11,1423.8 862.53,1423.8 527.73,0 736.88,-481.3 750.92,-817.9 h -416.14"
         style="fill:#231f20;fill-opacity:1;fill-rule:nonzero;stroke:none"
         transform="matrix(0.13333333,0,0,-0.13333333,0,2880.6667)" />
      <path
         id="path11"
         d="M 7883.56,10666.1 H 7096.64 V 9362.5 h -413.27 v 2880 h 413.27 v -1172.2 h 786.56 v 1172.2 h 413.62 v -2880 h -413.26 v 1303.6"
         style="fill:#231f20;fill-opacity:1;fill-rule:nonzero;stroke:none"
         transform="matrix(0.13333333,0,0,-0.13333333,0,2880.6667)" />
      <path
         id="path12"
         d="m 9722.87,11888.6 c -82.07,0 -453.22,16.9 -453.22,-1082.1 0,-1107 371.15,-1090.1 453.22,-1090.1 82.08,0 452.83,-16.9 452.83,1090.1 0,1099 -370.75,1082.1 -452.83,1082.1 z m -849.92,-1080 c 0,1508.1 699.45,1483.9 854.6,1483.9 155.15,0 845.25,23.1 845.25,-1485 0,-1518.8 -690.1,-1495 -845.25,-1495 -155.15,0 -854.6,-23.8 -854.6,1496.1"
         style="fill:#231f20;fill-opacity:1;fill-rule:nonzero;stroke:none"
         transform="matrix(0.13333333,0,0,-0.13333333,0,2880.6667)" />
      <path
         id="path13"
         d="m 11941.2,11888.6 c -82.1,0 -453.2,16.9 -453.2,-1082.1 0,-1107 371.1,-1090.1 453.2,-1090.1 82.1,0 452.9,-16.9 452.9,1090.1 0,1099 -370.8,1082.1 -452.9,1082.1 z m -849.9,-1080 c 0,1508.1 699.4,1483.9 854.6,1483.9 155.1,0 845.2,23.1 845.2,-1485 0,-1518.8 -690.1,-1495 -845.2,-1495 -155.2,0 -854.6,-23.8 -854.6,1496.1"
         style="fill:#231f20;fill-opacity:1;fill-rule:nonzero;stroke:none"
         transform="matrix(0.13333333,0,0,-0.13333333,0,2880.6667)" />
      <path
         id="path14"
         d="m 13367.2,12242.5 h 415.4 V 9746.6 h 1054.1 v -384.1 h -1469.5 v 2880"
         style="fill:#231f20;fill-opacity:1;fill-rule:nonzero;stroke:none"
         transform="matrix(0.13333333,0,0,-0.13333333,0,2880.6667)" />
      <path
         id="path15"
         d="m 4623.46,4765.7 1089.31,2034 h -976.28 v 402.8 H 6236.55 V 6940.4 L 5055.08,4715.3 H 6236.91 V 4322.5 H 4623.46 v 443.2"
         style="fill:#231f20;fill-opacity:1;fill-rule:nonzero;stroke:none"
         transform="matrix(0.13333333,0,0,-0.13333333,0,2880.6667)" />
      <path
         id="path16"
         d="m 7518.9,6848.6 c -82.07,0 -453.22,16.9 -453.22,-1082.1 0,-1107 371.15,-1090.1 453.22,-1090.1 82.08,0 452.86,-16.9 452.86,1090.1 0,1099 -370.78,1082.1 -452.86,1082.1 z m -849.92,-1080 c 0,1508.1 699.45,1483.9 854.6,1483.9 155.15,0 845.25,23.1 845.25,-1485 0,-1518.8 -690.1,-1495 -845.25,-1495 -155.15,0 -854.6,-23.8 -854.6,1496.1"
         style="fill:#231f20;fill-opacity:1;fill-rule:nonzero;stroke:none"
         transform="matrix(0.13333333,0,0,-0.13333333,0,2880.6667)" />
      <path
         id="path17"
         d="m 9358.17,6252.5 v -1930 h -413.26 v 2880 h 413.26 l 786.53,-1728 v 1728 h 413.7 v -2880 h -312.5 l -887.73,1930"
         style="fill:#231f20;fill-opacity:1;fill-rule:nonzero;stroke:none"
         transform="matrix(0.13333333,0,0,-0.13333333,0,2880.6667)" />
      <path
         id="path18"
         d="m 11192.1,7202.5 h 1357.8 v -404.3 h -942.4 v -727.5 h 597.6 v -394.2 h -597.6 v -950.1 h 1054 v -403.9 h -1469.4 v 2880"
         style="fill:#231f20;fill-opacity:1;fill-rule:nonzero;stroke:none"
         transform="matrix(0.13333333,0,0,-0.13333333,0,2880.6667)" />
    </g>
  </g>
</svg>
