<?xml version="1.0" encoding="UTF-8" standalone="no"?>
<!-- Created with Inkscape (http://www.inkscape.org/) -->

<svg
   version="1.1"
   id="svg1"
   width="3456.6667"
   height="4608.6665"
   viewBox="0 0 3456.6667 4608.6665"
   sodipodi:docname="tmppzb9vl7o.pdf"
   xmlns:inkscape="http://www.inkscape.org/namespaces/inkscape"
   xmlns:sodipodi="http://sodipodi.sourceforge.net/DTD/sodipodi-0.dtd"
   xmlns="http://www.w3.org/2000/svg"
   xmlns:svg="http://www.w3.org/2000/svg">
  <defs
     id="defs1" />
  <sodipodi:namedview
     id="namedview1"
     pagecolor="#ffffff"
     bordercolor="#000000"
     borderopacity="0.25"
     inkscape:showpageshadow="2"
     inkscape:pageopacity="0.0"
     inkscape:pagecheckerboard="0"
     inkscape:deskcolor="#d1d1d1">
    <inkscape:page
       x="0"
       y="0"
       inkscape:label="1"
       id="page1"
       width="3456.6667"
       height="4608.6665"
       margin="0"
       bleed="0" />
  </sodipodi:namedview>
  <g
     id="g1"
     inkscape:groupmode="layer"
     inkscape:label="1">
    <g
       id="group-R5">
      <path
         id="path2"
         d="M 1622.5,1.20313 C 1191.24,1.20313 784.602,170.398 477.488,477.5 170.387,784.602 1.25,1191.2 1.25,1622.5 v 31320 c 0,431.3 169.137,837.9 476.238,1145 307.114,307.1 713.752,476.3 1145.012,476.3 h 22680 c 431.3,0 837.9,-169.2 1145,-476.3 307.1,-307.1 476.3,-713.7 476.3,-1145 v -31320 c 0,-431.3 -169.2,-837.898 -476.3,-1145 C 25140.4,170.398 24733.8,1.20313 24302.5,1.20313 h -22680"
         style="fill:#ffffff;fill-opacity:1;fill-rule:nonzero;stroke:none"
         transform="matrix(0.13333333,0,0,-0.13333333,0,4608.6667)" />
      <path
         id="path3"
         d="m 24302.5,34565 h -22680 c -218.07,0 -430.03,-43.1 -629.992,-128 -193.031,-82 -366.61,-199.3 -515.899,-348.6 C 327.313,33939.1 210.035,33765.5 128.027,33572.5 43.0742,33372.5 0,33160.6 0,32942.5 v -31320 c 0,-218.1 43.0742,-430 128.027,-630 C 210.035,799.5 327.313,625.902 476.609,476.598 625.898,327.301 799.477,210 992.508,128 1192.47,43.1016 1404.43,0 1622.5,0 h 22680 c 218.1,0 430,43.1016 630,128 193,82 366.6,199.301 515.9,348.598 149.3,149.304 266.6,322.902 348.6,515.902 84.9,200 128,411.9 128,630 v 31320 c 0,218.1 -43.1,430 -128,630 -82,193 -199.3,366.6 -348.6,515.9 -149.3,149.3 -322.9,266.6 -515.9,348.6 -200,84.9 -411.9,128 -630,128 z m 0,-2.5 c 891,0 1620,-729 1620,-1620 v -31320 c 0,-891 -729,-1620 -1620,-1620 h -22680 c -891,0 -1620,729 -1620,1620 v 31320 c 0,891 729,1620 1620,1620 h 22680"
         style="fill:#231f20;fill-opacity:1;fill-rule:nonzero;stroke:none"
         transform="matrix(0.13333333,0,0,-0.13333333,0,4608.6667)" />
      <path
         id="path4"
         d="m 1622.5,452.5 c -310.72,0 -604.04,122.199 -825.922,344.098 C 574.695,1018.5 452.5,1311.8 452.5,1622.5 v 31320 c 0,310.7 122.195,604.1 344.078,825.9 221.872,221.9 515.192,344.1 825.922,344.1 h 22680 c 310.7,0 604,-122.2 825.9,-344.1 221.9,-221.9 344.1,-515.2 344.1,-825.9 v -31320 c 0,-310.7 -122.2,-604 -344.1,-825.902 C 24906.5,574.699 24613.2,452.5 24302.5,452.5 h -22680"
         style="fill:#231f20;fill-opacity:1;fill-rule:nonzero;stroke:none"
         transform="matrix(0.13333333,0,0,-0.13333333,0,4608.6667)" />
      <path
         id="path5"
         d="m 1622.5,1082.5 c -144.51,0 -276.07,55.2 -380.45,159.5 -104.37,104.4 -159.55,236 -159.55,380.5 v 31320 c 0,144.5 55.17,276.1 159.55,380.4 104.38,104.4 235.93,159.6 380.45,159.6 h 22680 c 144.5,0 276.1,-55.2 380.5,-159.6 104.3,-104.3 159.5,-235.9 159.5,-380.4 v -31320 c 0,-144.5 -55.2,-276.1 -159.5,-380.5 -104.4,-104.3 -236,-159.5 -380.5,-159.5 h -22680"
         style="fill:#ffffff;fill-opacity:1;fill-rule:nonzero;stroke:none"
         transform="matrix(0.13333333,0,0,-0.13333333,0,4608.6667)" />
      <path
         id="path6"
         d="m 8597.68,27362.5 h 2036.92 v -606.4 H 9220.84 v -1091.3 h 896.36 v -591.4 h -896.36 v -1425 H 10802 v -605.9 H 8597.68 v 4320"
         style="fill:#231f20;fill-opacity:1;fill-rule:nonzero;stroke:none"
         transform="matrix(0.13333333,0,0,-0.13333333,0,4608.6667)" />
      <path
         id="path7"
         d="m 12156.4,25937.4 v -2894.9 h -619.9 v 4320 h 619.9 l 1179.9,-2592 v 2592 h 620.5 v -4320 h -468.7 l -1331.7,2894.9"
         style="fill:#231f20;fill-opacity:1;fill-rule:nonzero;stroke:none"
         transform="matrix(0.13333333,0,0,-0.13333333,0,4608.6667)" />
      <path
         id="path8"
         d="m 16011.7,26756.1 h -484.4 v -3107.2 h 430.9 c 505.5,0 764.1,220.9 764.1,1530.9 0,1518 -378.5,1576.3 -710.6,1576.3 z m -1104.3,-3713.6 v 4320 h 1232.8 c 263.5,0 1187.5,-13 1187.5,-2152.4 0,-1957.5 -853.2,-2167.6 -1136.2,-2167.6 h -1284.1"
         style="fill:#231f20;fill-opacity:1;fill-rule:nonzero;stroke:none"
         transform="matrix(0.13333333,0,0,-0.13333333,0,4608.6667)" />
      <path
         id="path9"
         d="m 4910.5,17869 c 472.48,-296.5 1180.94,-711.8 1180.94,-1564.4 0,-699.3 -532.97,-1257.7 -1202.53,-1257.7 -760.83,0 -1217.65,643.7 -1217.65,1348.9 h 609.09 c 0,-367.7 182.51,-743 608.56,-743 334.77,0 608.54,303 608.54,651.8 0,939 -1612.91,885 -1612.91,2091.9 0,621.6 487.07,1121.1 1110.74,1121.1 609.09,0 1081.04,-469.8 1096.16,-1121.6 h -593.99 c -15.12,302.9 -228.4,500 -502.17,500 -289.43,0 -517.3,-211.6 -517.3,-499.5 0,-280.8 149.03,-349.9 432.52,-527.5"
         style="fill:#231f20;fill-opacity:1;fill-rule:nonzero;stroke:none"
         transform="matrix(0.13333333,0,0,-0.13333333,0,4608.6667)" />
      <path
         id="path10"
         d="m 8535.5,18290.7 c -59.94,424.4 -227.88,621.5 -517.3,621.5 -502.18,0 -685.24,-394.2 -685.24,-1515.2 0,-1243.1 213.29,-1743.1 746.26,-1743.1 365.55,0 456.28,303.5 456.28,621.5 h 624.21 c -15.12,-712.2 -471.4,-1227.9 -1080.49,-1227.9 -928.23,0 -1339.69,742.5 -1339.69,2334.4 0,1393.7 441.16,2135.7 1293.79,2135.7 791.6,0 1105.32,-722 1126.39,-1226.9 H 8535.5"
         style="fill:#231f20;fill-opacity:1;fill-rule:nonzero;stroke:none"
         transform="matrix(0.13333333,0,0,-0.13333333,0,4608.6667)" />
      <path
         id="path11"
         d="m 11824.1,17077.9 h -1180.4 v -1955.4 h -619.9 v 4320 h 619.9 v -1758.2 h 1179.8 v 1758.2 h 620.5 v -4320 h -619.9 v 1955.4"
         style="fill:#231f20;fill-opacity:1;fill-rule:nonzero;stroke:none"
         transform="matrix(0.13333333,0,0,-0.13333333,0,4608.6667)" />
      <path
         id="path12"
         d="m 14583.1,18911.7 c -123.2,0 -679.9,25.4 -679.9,-1623.2 0,-1660.5 556.7,-1635.2 679.9,-1635.2 123.1,0 679.2,-25.3 679.2,1635.2 0,1648.6 -556.1,1623.2 -679.2,1623.2 z m -1274.9,-1620 c 0,2262 1049.2,2225.9 1281.9,2225.9 232.7,0 1267.8,34.5 1267.8,-2227.5 0,-2278.3 -1035.1,-2242.6 -1267.8,-2242.6 -232.7,0 -1281.9,-35.7 -1281.9,2244.2"
         style="fill:#231f20;fill-opacity:1;fill-rule:nonzero;stroke:none"
         transform="matrix(0.13333333,0,0,-0.13333333,0,4608.6667)" />
      <path
         id="path13"
         d="m 17910.5,18911.7 c -123.1,0 -679.8,25.4 -679.8,-1623.2 0,-1660.5 556.7,-1635.2 679.8,-1635.2 123.2,0 679.3,-25.3 679.3,1635.2 0,1648.6 -556.1,1623.2 -679.3,1623.2 z m -1274.8,-1620 c 0,2262 1049.1,2225.9 1281.9,2225.9 232.7,0 1267.8,34.5 1267.8,-2227.5 0,-2278.3 -1035.1,-2242.6 -1267.8,-2242.6 -232.8,0 -1281.9,-35.7 -1281.9,2244.2"
         style="fill:#231f20;fill-opacity:1;fill-rule:nonzero;stroke:none"
         transform="matrix(0.13333333,0,0,-0.13333333,0,4608.6667)" />
      <path
         id="path14"
         d="m 20049.5,19442.5 h 623.2 v -3743.8 h 1581 v -576.2 h -2204.2 v 4320"
         style="fill:#231f20;fill-opacity:1;fill-rule:nonzero;stroke:none"
         transform="matrix(0.13333333,0,0,-0.13333333,0,4608.6667)" />
      <path
         id="path15"
         d="M 6933.94,7867.3 8567.9,10918.2 H 7103.49 v 604.3 h 2250.09 v -393.1 L 7581.37,7791.7 H 9354.12 V 7202.5 H 6933.94 v 664.8"
         style="fill:#231f20;fill-opacity:1;fill-rule:nonzero;stroke:none"
         transform="matrix(0.13333333,0,0,-0.13333333,0,4608.6667)" />
      <path
         id="path16"
         d="m 11277.1,10991.7 c -123.1,0 -679.8,25.4 -679.8,-1623.3 0,-1660.4 556.7,-1635.1 679.8,-1635.1 123.1,0 679.3,-25.3 679.3,1635.1 0,1648.7 -556.2,1623.3 -679.3,1623.3 z m -1274.9,-1620 c 0,2262 1049.2,2225.9 1281.9,2225.9 232.8,0 1267.9,34.5 1267.9,-2227.5 0,-2278.3 -1035.1,-2242.6 -1267.9,-2242.6 -232.7,0 -1281.9,-35.7 -1281.9,2244.2"
         style="fill:#231f20;fill-opacity:1;fill-rule:nonzero;stroke:none"
         transform="matrix(0.13333333,0,0,-0.13333333,0,4608.6667)" />
      <path
         id="path17"
         d="M 14036,10097.4 V 7202.5 h -619.9 v 4320 h 619.9 l 1179.9,-2592 v 2592 h 620.4 v -4320 h -468.7 L 14036,10097.4"
         style="fill:#231f20;fill-opacity:1;fill-rule:nonzero;stroke:none"
         transform="matrix(0.13333333,0,0,-0.13333333,0,4608.6667)" />
      <path
         id="path18"
         d="m 16786.9,11522.5 h 2036.8 v -606.4 H 17410 V 9824.7 h 896.4 V 9233.5 H 17410 V 7808.4 h 1581.1 v -605.9 h -2204.2 v 4320"
         style="fill:#231f20;fill-opacity:1;fill-rule:nonzero;stroke:none"
         transform="matrix(0.13333333,0,0,-0.13333333,0,4608.6667)" />
    </g>
  </g>
</svg>
