<?xml version="1.0" encoding="UTF-8"?>
<svg id="For_Sheets" xmlns="http://www.w3.org/2000/svg" version="1.1" viewBox="0 0 1728 864">
  <!-- Generator: Adobe Illustrator 29.1.0, SVG Export Plug-In . SVG Version: 2.1.0 Build 142)  -->
  <defs>
    <style>
      .st0 {
        fill: #231f20;
      }

      .st1 {
        fill: #ffd046;
      }
    </style>
  </defs>
  <g>
    <rect class="st1" x="-.1" y="-.1" width="1728.2" height="864.2" rx="108.1" ry="108.1"/>
    <path class="st0" d="M1620,0c59.4,0,108,48.6,108,108v648c0,59.4-48.6,108-108,108H108c-59.4,0-108-48.6-108-108V108C0,48.6,48.6,0,108,0h1512M1620-.2H108C79.2-.2,52.1,11,31.5,31.5,11,52.1-.2,79.2-.2,108v648c0,28.8,11.3,55.9,31.8,76.5,20.5,20.5,47.7,31.8,76.5,31.8h1512c28.8,0,55.9-11.3,76.5-31.8,20.5-20.5,31.8-47.7,31.8-76.5V108c0-28.8-11.3-55.9-31.8-76.5-20.5-20.5-47.7-31.8-76.5-31.8h0Z"/>
  </g>
  <rect class="st0" x="459" y="-405" width="810" height="1674" rx="81" ry="81" transform="translate(1296 -432) rotate(90)"/>
  <rect class="st1" x="504" y="-360" width="720" height="1584" rx="36" ry="36" transform="translate(1296 -432) rotate(90)"/>
  <g>
    <rect class="st0" x="584.5" y="317.2" width="557.1" height="229.5"/>
    <path class="st0" d="M1052.3,175c-1-3.6-1.5-7.2-1.5-10.7,0-21.1,17.1-38.3,38.3-38.3,7.5,0,15,2.2,21.6,6.7l437.4,299.3-437.4,299.3c-6.6,4.5-14.1,6.7-21.6,6.7-21.1,0-38.3-17.1-38.3-38.3,0-3.5.5-7.1,1.5-10.7l75-257-75-257Z"/>
  </g>
  <path class="st0" d="M675.7,689c1,3.6,1.5,7.2,1.5,10.7,0,21.1-17.1,38.3-38.3,38.3-7.5,0-15-2.2-21.6-6.7L180,432l437.4-299.3c6.6-4.5,14.1-6.7,21.6-6.7,21.1,0,38.3,17.1,38.3,38.3,0,3.5-.5,7.1-1.5,10.7l-75,257,75,257Z"/>
</svg>