<?xml version="1.0" encoding="UTF-8" standalone="no"?>
<!-- Created with Inkscape (http://www.inkscape.org/) -->

<svg
   version="1.1"
   id="svg1"
   width="2304.6667"
   height="1152.6667"
   viewBox="0 0 2304.6667 1152.6667"
   sodipodi:docname="tmpbm2u37p8.pdf"
   xmlns:inkscape="http://www.inkscape.org/namespaces/inkscape"
   xmlns:sodipodi="http://sodipodi.sourceforge.net/DTD/sodipodi-0.dtd"
   xmlns="http://www.w3.org/2000/svg"
   xmlns:svg="http://www.w3.org/2000/svg">
  <defs
     id="defs1" />
  <sodipodi:namedview
     id="namedview1"
     pagecolor="#ffffff"
     bordercolor="#000000"
     borderopacity="0.25"
     inkscape:showpageshadow="2"
     inkscape:pageopacity="0.0"
     inkscape:pagecheckerboard="0"
     inkscape:deskcolor="#d1d1d1">
    <inkscape:page
       x="0"
       y="0"
       inkscape:label="1"
       id="page1"
       width="2304.6667"
       height="1152.6667"
       margin="0"
       bleed="0" />
  </sodipodi:namedview>
  <g
     id="g1"
     inkscape:groupmode="layer"
     inkscape:label="1">
    <g
       id="group-R5">
      <path
         id="path2"
         d="M 1082.5,1.25 C 486.293,1.25 1.25,486.289 1.25,1082.5 v 6480 c 0,596.21 485.043,1081.25 1081.25,1081.25 h 15120 c 596.2,0 1081.3,-485.04 1081.3,-1081.25 v -6480 C 17283.8,486.289 16798.7,1.25 16202.5,1.25 h -15120"
         style="fill:#fccc2d;fill-opacity:1;fill-rule:nonzero;stroke:none"
         transform="matrix(0.13333333,0,0,-0.13333333,0,1152.6667)" />
      <path
         id="path3"
         d="M 16202.5,8645 H 1082.5 C 794.547,8645 523.035,8532.07 317.984,8327.02 112.93,8121.96 0,7850.45 0,7562.5 v -6480 C 0,794.551 112.93,523.039 317.984,317.98 523.035,112.93 794.547,0 1082.5,0 h 15120 c 288,0 559.5,112.93 764.5,317.98 205.1,205.059 318,476.571 318,764.52 v 6480 c 0,287.95 -112.9,559.46 -318,764.52 -205,205.05 -476.5,317.98 -764.5,317.98 z m 0,-2.5 c 594,0 1080,-486 1080,-1080 v -6480 c 0,-594 -486,-1080 -1080,-1080 h -15120 c -594,0 -1080,486 -1080,1080 v 6480 c 0,594 486,1080 1080,1080 h 15120"
         style="fill:#231f20;fill-opacity:1;fill-rule:nonzero;stroke:none"
         transform="matrix(0.13333333,0,0,-0.13333333,0,1152.6667)" />
      <path
         id="path4"
         d="m 17012.5,1082.5 v 6480 c 0,447.35 -362.6,810 -810,810 h -15120 c -447.352,0 -810,-362.65 -810,-810 v -6480 c 0,-447.348 362.648,-810 810,-810 h 15120 c 447.4,0 810,362.652 810,810"
         style="fill:#231f20;fill-opacity:1;fill-rule:nonzero;stroke:none"
         transform="matrix(0.13333333,0,0,-0.13333333,0,1152.6667)" />
      <path
         id="path5"
         d="m 16562.5,1082.5 v 6480 c 0,198.82 -161.2,360 -360,360 h -15120 c -198.82,0 -360,-161.18 -360,-360 v -6480 c 0,-198.82 161.18,-360 360,-360 h 15120 c 198.8,0 360,161.18 360,360"
         style="fill:#fccc2d;fill-opacity:1;fill-rule:nonzero;stroke:none"
         transform="matrix(0.13333333,0,0,-0.13333333,0,1152.6667)" />
      <path
         id="path6"
         d="M 5866.54,3175 H 15482.5 V 5470 H 5866.54 V 3175"
         style="fill:#231f20;fill-opacity:1;fill-rule:nonzero;stroke:none"
         transform="matrix(0.13333333,0,0,-0.13333333,0,1152.6667)" />
      <path
         id="path7"
         d="m 6759.67,6892.89 c 10.41,35.69 15.33,71.69 15.35,107.09 0,211.25 -171.3,382.52 -382.55,382.52 -74.53,0.06 -149.86,-21.58 -216.01,-66.85 L 1802.5,4322.5 6176.46,1329.35 c 66.15,-45.27 141.48,-66.92 216.01,-66.85 211.25,0 382.55,171.27 382.55,382.52 -0.02,35.4 -4.94,71.4 -15.35,107.09 l -749.7,2570.39 749.7,2570.39"
         style="fill:#231f20;fill-opacity:1;fill-rule:nonzero;stroke:none"
         transform="matrix(0.13333333,0,0,-0.13333333,0,1152.6667)" />
    </g>
  </g>
</svg>
