<?xml version="1.0" standalone="no"?>
<svg width="3456px" height="1728px" viewBox="0 -936 3456 1728 " xmlns="http://www.w3.org/2000/svg" xmlns:xlink="http://www.w3.org/1999/xlink">
<title>generated by pstoedit</title>
<!-- generated by pstoedit version:4.02 -->
<g xml:space='preserve'>
<clipPath id="clippath1"> 	<path d="
	M 0 -936.5 
	L 0 792 
	L 3456.5 792 
	L 3456.5 -936.5 
	Z 
	" style="clip-rule:nonzero"/>
</clipPath>
<g style="clip-path:url(#clippath1)"> 
<g fill="#95e8ff" fill-rule="nonzero" stroke-width="0" stroke-linejoin="miter" stroke-linecap="butt" stroke-miterlimit="10" >
	<path d="
	M 3456.25 656.75 
	C 3456.25 731.309 3395.81 791.75 3321.25 791.75 
	L 135.25 791.75 
	C 60.6914 791.75 0.25 731.309 0.25 656.75 
	L 0.25 -801.25 
	C 0.25 -875.81 60.6914 -936.25 135.25 -936.25 
	L 3321.25 -936.25 
	C 3395.81 -936.25 3456.25 -875.81 3456.25 -801.25 
	Z 
	"/>
</g>
<g stroke="#7f7f7f" fill="none" stroke-width="0.5" stroke-linejoin="miter" stroke-linecap="butt" stroke-miterlimit="4" >
	<path d="
	M 3456.25 656.75 
	C 3456.25 731.309 3395.81 791.75 3321.25 791.75 
	L 135.25 791.75 
	C 60.6914 791.75 0.25 731.309 0.25 656.75 
	L 0.25 -801.25 
	C 0.25 -875.81 60.6914 -936.25 135.25 -936.25 
	L 3321.25 -936.25 
	C 3395.81 -936.25 3456.25 -875.81 3456.25 -801.25 
	Z 
	"/>
</g>
<g fill="#7f7f7f" fill-rule="nonzero" stroke-width="0" stroke-linejoin="miter" stroke-linecap="butt" stroke-miterlimit="4" >
	<path d="
	M 135.25 746.75 
	C 85.625 746.75 45.25 706.379 45.25 656.75 
	L 45.25 -801.25 
	C 45.25 -850.88 85.625 -891.25 135.25 -891.25 
	L 3321.25 -891.25 
	C 3370.88 -891.25 3411.25 -850.88 3411.25 -801.25 
	L 3411.25 656.75 
	C 3411.25 706.379 3370.88 746.75 3321.25 746.75 
	Z 
	"/>
</g>
<g fill="#95e8ff" fill-rule="nonzero" stroke-width="0" stroke-linejoin="miter" stroke-linecap="butt" stroke-miterlimit="4" >
	<path d="
	M 135.25 692.75 
	C 115.398 692.75 99.25 676.602 99.25 656.75 
	L 99.25 -801.25 
	C 99.25 -821.1 115.398 -837.25 135.25 -837.25 
	L 3321.25 -837.25 
	C 3341.1 -837.25 3357.25 -821.1 3357.25 -801.25 
	L 3357.25 656.75 
	C 3357.25 676.602 3341.1 692.75 3321.25 692.75 
	Z 
	"/>
</g>
<g fill="#7f7f7f" fill-rule="nonzero" stroke-width="0" stroke-linejoin="miter" stroke-linecap="butt" stroke-miterlimit="4" >
	<path d="
	M 433.41 132.191 
	C 425.469 109.461 411.852 99.23 391.434 99.23 
	L 352.859 99.23 
	L 352.859 332.281 
	L 391.434 332.281 
	C 418.66 332.281 433.41 310.68 437.949 285.672 
	C 440.215 265.199 442.484 242.469 442.484 217.461 
	C 442.484 181.078 439.082 145.828 433.41 132.191 
	Z 
	M 441.348 362.969 
	C 430.008 373.199 414.121 377.75 395.973 377.75 
	L 306.344 377.75 
	L 306.344 53.75 
	L 389.164 53.75 
	C 416.391 53.75 430.008 57.16 441.348 66.262 
	C 460.637 79.898 474.25 104.91 479.926 137.879 
	C 484.461 161.75 487.867 190.172 487.867 215.18 
	C 487.867 290.211 473.117 337.961 441.348 362.969 
	Z 
	"/>
</g>
<g fill="#7f7f7f" fill-rule="nonzero" stroke-width="0" stroke-linejoin="miter" stroke-linecap="butt" stroke-miterlimit="4" >
	<path d="
	M 802.227 377.75 
	L 802.227 53.75 
	L 955.004 53.75 
	L 955.004 99.23 
	L 848.973 99.23 
	L 848.973 181.078 
	L 916.242 181.078 
	L 916.242 225.41 
	L 848.973 225.41 
	L 848.973 332.281 
	L 967.547 332.281 
	L 967.547 377.75 
	Z 
	"/>
</g>
<g fill="#7f7f7f" fill-rule="nonzero" stroke-width="0" stroke-linejoin="miter" stroke-linecap="butt" stroke-miterlimit="4" >
	<path d="
	M 682.457 134.469 
	C 674.441 106.051 661.844 93.539 642.379 93.539 
	C 621.766 93.539 609.168 106.051 601.152 133.328 
	C 593.137 158.34 590.848 179.941 590.848 216.32 
	C 590.848 251.559 594.281 272.031 601.152 298.172 
	C 609.168 325.461 621.766 337.961 642.379 337.961 
	C 661.844 337.961 674.441 325.461 682.457 298.172 
	C 690.477 272.031 692.766 252.699 692.766 215.18 
	C 692.766 178.801 689.328 158.34 682.457 134.469 
	Z 
	M 719.102 327.73 
	C 703.07 366.379 679.023 383.441 642.379 383.441 
	C 603.441 383.441 580.543 366.379 564.508 327.73 
	C 550.766 295.898 546.184 265.199 546.184 215.18 
	C 546.184 166.301 550.766 133.328 564.508 102.641 
	C 581.684 63.98 604.59 48.062 642.379 48.062 
	C 680.168 48.062 703.07 63.98 719.102 103.77 
	C 732.848 135.602 737.426 166.301 737.426 215.18 
	C 737.426 265.199 732.848 297.031 719.102 327.73 
	Z 
	"/>
</g>
<g fill="#7f7f7f" fill-rule="nonzero" stroke-width="0" stroke-linejoin="miter" stroke-linecap="butt" stroke-miterlimit="4" >
	<path d="
	M 1098.68 228.121 
	C 1084.67 219.039 1071.06 209.93 1062.37 203.82 
	C 1036.25 185.43 1022.41 160.621 1022.41 132.191 
	C 1022.41 85.578 1058.94 48.066 1105.75 48.066 
	C 1151.42 48.066 1186.81 83.309 1187.95 132.191 
	L 1143.42 132.191 
	C 1142.28 109.461 1126.3 94.68 1105.75 94.68 
	C 1084.06 94.68 1066.93 110.59 1066.93 132.191 
	C 1066.93 148.109 1073.78 157.199 1097.76 170.852 
	C 1160.55 207.23 1187.95 242.469 1187.95 289.078 
	C 1187.95 341.371 1147.99 383.441 1097.76 383.441 
	C 1040.68 383.441 1006.43 335.691 1006.43 282.262 
	L 1052.09 282.262 
	C 1052.09 309.539 1065.79 337.961 1097.76 337.961 
	C 1122.87 337.961 1143.42 315.219 1143.42 289.078 
	C 1143.42 268.77 1135.03 251.672 1098.68 228.121 
	Z 
	"/>
</g>
<g fill="#7f7f7f" fill-rule="nonzero" stroke-width="0" stroke-linejoin="miter" stroke-linecap="butt" stroke-miterlimit="4" >
	<path d="
	M 1568.3 377.75 
	L 1468.46 160.621 
	L 1468.46 377.75 
	L 1421.95 377.75 
	L 1421.95 53.75 
	L 1468.46 53.75 
	L 1556.95 248.148 
	L 1556.95 53.75 
	L 1603.47 53.75 
	L 1603.47 377.75 
	Z 
	"/>
</g>
<g fill="#7f7f7f" fill-rule="nonzero" stroke-width="0" stroke-linejoin="miter" stroke-linecap="butt" stroke-miterlimit="4" >
	<path d="
	M 1804.54 134.469 
	C 1796.53 106.051 1783.93 93.539 1764.46 93.539 
	C 1743.85 93.539 1731.25 106.051 1723.24 133.328 
	C 1715.22 158.34 1712.93 179.941 1712.93 216.32 
	C 1712.93 251.559 1716.37 272.031 1723.24 298.172 
	C 1731.25 325.461 1743.85 337.961 1764.46 337.961 
	C 1783.93 337.961 1796.53 325.461 1804.54 298.172 
	C 1812.56 272.031 1814.85 252.699 1814.85 215.18 
	C 1814.85 178.801 1811.41 158.34 1804.54 134.469 
	Z 
	M 1841.19 327.73 
	C 1825.16 366.379 1801.11 383.441 1764.46 383.441 
	C 1725.53 383.441 1702.63 366.379 1686.59 327.73 
	C 1672.85 295.898 1668.27 265.199 1668.27 215.18 
	C 1668.27 166.301 1672.85 133.328 1686.59 102.641 
	C 1703.77 63.98 1726.67 48.062 1764.46 48.062 
	C 1802.25 48.062 1825.16 63.98 1841.19 103.77 
	C 1854.93 135.602 1859.51 166.301 1859.51 215.18 
	C 1859.51 265.199 1854.93 297.031 1841.19 327.73 
	Z 
	"/>
</g>
<g fill="#7f7f7f" fill-rule="nonzero" stroke-width="0" stroke-linejoin="miter" stroke-linecap="butt" stroke-miterlimit="4" >
	<path d="
	M 2004.43 96.949 
	L 2004.43 377.75 
	L 1957.68 377.75 
	L 1957.68 96.949 
	L 1898.39 96.949 
	L 1898.39 53.75 
	L 2063.71 53.75 
	L 2063.71 96.949 
	Z 
	"/>
</g>
<g fill="#7f7f7f" fill-rule="nonzero" stroke-width="0" stroke-linejoin="miter" stroke-linecap="butt" stroke-miterlimit="4" >
	<path d="
	M 2848.87 134.469 
	C 2840.85 106.051 2828.25 93.539 2808.79 93.539 
	C 2788.18 93.539 2775.58 106.051 2767.56 133.328 
	C 2759.55 158.34 2757.26 179.941 2757.26 216.32 
	C 2757.26 251.559 2760.69 272.031 2767.56 298.172 
	C 2775.58 325.461 2788.18 337.961 2808.79 337.961 
	C 2828.25 337.961 2840.85 325.461 2848.87 298.172 
	C 2856.88 272.031 2859.18 252.699 2859.18 215.18 
	C 2859.18 178.801 2855.74 158.34 2848.87 134.469 
	Z 
	M 2885.51 327.73 
	C 2869.48 366.379 2845.43 383.441 2808.79 383.441 
	C 2769.85 383.441 2746.95 366.379 2730.92 327.73 
	C 2717.18 295.898 2712.59 265.199 2712.59 215.18 
	C 2712.59 166.301 2717.18 133.328 2730.92 102.641 
	C 2748.09 63.98 2771 48.062 2808.79 48.062 
	C 2846.58 48.062 2869.48 63.98 2885.51 103.77 
	C 2899.25 135.602 2903.84 166.301 2903.84 215.18 
	C 2903.84 265.199 2899.25 297.031 2885.51 327.73 
	Z 
	"/>
</g>
<g fill="#7f7f7f" fill-rule="nonzero" stroke-width="0" stroke-linejoin="miter" stroke-linecap="butt" stroke-miterlimit="4" >
	<path d="
	M 3062.8 99.23 
	L 3015.15 99.23 
	L 3015.15 191.309 
	L 3062.8 191.309 
	C 3090.03 191.309 3104.78 174.262 3104.78 144.699 
	C 3104.78 117.422 3087.76 99.23 3062.8 99.23 
	Z 
	M 3065.07 235.648 
	L 3015.15 235.648 
	L 3015.15 377.75 
	L 2968.64 377.75 
	L 2968.64 53.75 
	L 3065.07 53.75 
	C 3116.12 53.75 3150.16 90.129 3150.16 144.699 
	C 3150.16 203.82 3119.52 235.648 3065.07 235.648 
	Z 
	"/>
</g>
<g fill="#7f7f7f" fill-rule="nonzero" stroke-width="0" stroke-linejoin="miter" stroke-linecap="butt" stroke-miterlimit="4" >
	<path d="
	M 2389.97 228.121 
	C 2375.95 219.039 2362.34 209.93 2353.65 203.82 
	C 2327.53 185.43 2313.7 160.621 2313.7 132.191 
	C 2313.7 85.578 2350.23 48.066 2397.04 48.066 
	C 2442.7 48.066 2478.09 83.309 2479.23 132.191 
	L 2434.71 132.191 
	C 2433.57 109.461 2417.59 94.68 2397.04 94.68 
	C 2375.34 94.68 2358.22 110.59 2358.22 132.191 
	C 2358.22 148.109 2365.07 157.199 2389.04 170.852 
	C 2451.83 207.23 2479.23 242.469 2479.23 289.078 
	C 2479.23 341.371 2439.28 383.441 2389.04 383.441 
	C 2331.96 383.441 2297.71 335.691 2297.71 282.262 
	L 2343.38 282.262 
	C 2343.38 309.539 2357.08 337.961 2389.04 337.961 
	C 2414.16 337.961 2434.71 315.219 2434.71 289.078 
	C 2434.71 268.77 2426.32 251.672 2389.97 228.121 
	Z 
	"/>
</g>
<g fill="#7f7f7f" fill-rule="nonzero" stroke-width="0" stroke-linejoin="miter" stroke-linecap="butt" stroke-miterlimit="4" >
	<path d="
	M 2614.43 96.949 
	L 2614.43 377.75 
	L 2567.68 377.75 
	L 2567.68 96.949 
	L 2508.39 96.949 
	L 2508.39 53.75 
	L 2673.71 53.75 
	L 2673.71 96.949 
	Z 
	"/>
</g>
<g fill="#7f7f7f" fill-rule="nonzero" stroke-width="0" stroke-linejoin="miter" stroke-linecap="butt" stroke-miterlimit="4" >
	<path d="
	M 1587.02 -480.18 
	L 1587.02 -397.2 
	L 1634.48 -397.2 
	L 1634.48 -353.99 
	L 1587.02 -353.99 
	L 1587.02 -198.25 
	L 1546.32 -198.25 
	L 1546.32 -522.25 
	L 1669.52 -522.25 
	L 1669.52 -480.18 
	Z 
	"/>
</g>
<g fill="#7f7f7f" fill-rule="nonzero" stroke-width="0" stroke-linejoin="miter" stroke-linecap="butt" stroke-miterlimit="4" >
	<path d="
	M 2187.75 -198.246 
	L 2187.75 -390.38 
	L 2150.24 -268.73 
	L 2110.74 -390.38 
	L 2110.74 -198.246 
	L 2069.83 -198.246 
	L 2069.83 -522.25 
	L 2110.74 -522.25 
	L 2150.24 -407.43 
	L 2187.75 -522.25 
	L 2228.66 -522.25 
	L 2228.66 -198.246 
	Z 
	"/>
</g>
<g fill="#7f7f7f" fill-rule="nonzero" stroke-width="0" stroke-linejoin="miter" stroke-linecap="butt" stroke-miterlimit="4" >
	<path d="
	M 1949.12 -484.73 
	C 1911.6 -484.73 1916.71 -383.55 1916.71 -360.81 
	C 1916.71 -339.21 1911.6 -234.63 1949.12 -234.63 
	C 1985.5 -234.63 1980.39 -339.21 1980.39 -360.81 
	C 1980.39 -386.96 1979.81 -484.73 1949.12 -484.73 
	Z 
	M 1949.12 -192.563 
	C 1868.4 -192.563 1874.65 -307.38 1874.65 -360.81 
	C 1874.65 -416.52 1869.54 -526.8 1949.12 -526.8 
	C 2028.7 -526.8 2023.59 -415.38 2023.59 -360.81 
	C 2023.59 -307.38 2028.7 -192.563 1949.12 -192.563 
	Z 
	"/>
</g>
<g fill="#7f7f7f" fill-rule="nonzero" stroke-width="0" stroke-linejoin="miter" stroke-linecap="butt" stroke-miterlimit="4" >
	<path d="
	M 1764.43 -480.18 
	L 1744.51 -480.18 
	L 1744.51 -391.51 
	L 1771.26 -391.51 
	C 1794.02 -391.51 1800.84 -401.74 1800.84 -432.44 
	C 1800.84 -468.82 1792.88 -480.18 1764.43 -480.18 
	Z 
	M 1808.81 -359.68 
	L 1841.81 -198.246 
	L 1799.71 -198.246 
	L 1763.29 -349.45 
	L 1744.51 -349.45 
	L 1744.51 -198.246 
	L 1703.54 -198.246 
	L 1703.54 -522.25 
	L 1766.7 -522.25 
	C 1816.77 -522.25 1842.95 -491.55 1842.95 -431.3 
	C 1842.95 -394.92 1832.7 -374.46 1808.81 -359.68 
	Z 
	"/>
</g>
<g fill="#7f7f7f" fill-rule="nonzero" stroke-width="0" stroke-linejoin="miter" stroke-linecap="butt" stroke-miterlimit="4" >
	<path d="
	M 666.652 -411.97 
	L 648.465 -326.71 
	L 683.703 -326.71 
	Z 
	M 710.98 -198.25 
	L 692.797 -284.64 
	L 639.375 -284.64 
	L 621.188 -198.25 
	L 579.133 -198.25 
	L 645.055 -522.25 
	L 687.113 -522.25 
	L 754.172 -198.25 
	Z 
	"/>
</g>
<g fill="#7f7f7f" fill-rule="nonzero" stroke-width="0" stroke-linejoin="miter" stroke-linecap="butt" stroke-miterlimit="4" >
	<path d="
	M 1325.75 -231.22 
	C 1318.67 -207.715 1297.19 -192.563 1268.62 -192.563 
	C 1235.49 -192.563 1214.92 -206.203 1204.64 -235.77 
	C 1195.49 -263.05 1190.92 -307.39 1190.92 -359.68 
	C 1190.92 -389.24 1194.35 -432.44 1198.92 -457.45 
	C 1208.06 -507.47 1227.49 -526.8 1266.34 -526.8 
	C 1302.9 -526.8 1326.9 -504.06 1330.32 -464.27 
	L 1288.05 -464.27 
	C 1286.9 -477.91 1278.9 -484.73 1267.48 -484.73 
	C 1252.62 -484.73 1244.63 -474.5 1240.06 -452.9 
	C 1234.34 -426.75 1233.2 -402.88 1233.2 -359.68 
	C 1233.2 -314.2 1234.34 -294.88 1240.06 -267.6 
	C 1244.63 -245.99 1252.62 -234.63 1266.34 -234.63 
	C 1281.19 -234.63 1288.05 -245.99 1288.05 -274.41 
	L 1330.32 -274.41 
	C 1330.32 -249.4 1329.18 -242.58 1325.75 -231.22 
	Z 
	"/>
</g>
<g fill="#7f7f7f" fill-rule="nonzero" stroke-width="0" stroke-linejoin="miter" stroke-linecap="butt" stroke-miterlimit="4" >
	<path d="
	M 828.887 -480.18 
	L 828.887 -397.2 
	L 876.355 -397.2 
	L 876.355 -353.99 
	L 828.887 -353.99 
	L 828.887 -198.25 
	L 788.191 -198.25 
	L 788.191 -522.25 
	L 911.395 -522.25 
	L 911.395 -480.18 
	Z 
	"/>
</g>
<g fill="#7f7f7f" fill-rule="nonzero" stroke-width="0" stroke-linejoin="miter" stroke-linecap="butt" stroke-miterlimit="4" >
	<path d="
	M 986.105 -480.18 
	L 986.105 -397.2 
	L 1033.57 -397.2 
	L 1033.57 -353.99 
	L 986.105 -353.99 
	L 986.105 -198.25 
	L 945.414 -198.25 
	L 945.414 -522.25 
	L 1068.61 -522.25 
	L 1068.61 -480.18 
	Z 
	"/>
</g>
<g fill="#7f7f7f" fill-rule="nonzero" stroke-width="0" stroke-linejoin="miter" stroke-linecap="butt" stroke-miterlimit="4" >
	<path d="
	M 1102.63 -198.25 
	L 1102.63 -522.25 
	L 1144.75 -522.25 
	L 1144.75 -198.25 
	Z 
	"/>
</g>
<g fill="#7f7f7f" fill-rule="nonzero" stroke-width="0" stroke-linejoin="miter" stroke-linecap="butt" stroke-miterlimit="4" >
	<path d="
	M 481.176 -480.18 
	L 461.258 -480.18 
	L 461.258 -391.51 
	L 488 -391.51 
	C 510.762 -391.51 517.59 -401.74 517.59 -432.44 
	C 517.59 -468.82 509.621 -480.18 481.176 -480.18 
	Z 
	M 525.555 -359.68 
	L 558.551 -198.246 
	L 516.453 -198.246 
	L 480.039 -349.45 
	L 461.258 -349.45 
	L 461.258 -198.246 
	L 420.289 -198.246 
	L 420.289 -522.25 
	L 483.453 -522.25 
	C 533.52 -522.25 559.691 -491.55 559.691 -431.3 
	C 559.691 -394.92 549.449 -374.46 525.555 -359.68 
	Z 
	"/>
</g>
<g fill="#7f7f7f" fill-rule="nonzero" stroke-width="0" stroke-linejoin="miter" stroke-linecap="butt" stroke-miterlimit="4" >
	<path d="
	M 343.973 -480.18 
	L 343.973 -198.246 
	L 303.094 -198.246 
	L 303.094 -480.18 
	L 263.066 -480.18 
	L 263.066 -522.25 
	L 386.27 -522.25 
	L 386.27 -480.18 
	Z 
	"/>
</g>
<g fill="#7f7f7f" fill-rule="nonzero" stroke-width="0" stroke-linejoin="miter" stroke-linecap="butt" stroke-miterlimit="4" >
	<path d="
	M 2846.07 -230.08 
	C 2838.62 -207.531 2817.5 -192.563 2787.79 -192.563 
	C 2754.66 -192.563 2735.23 -205.07 2724.95 -235.77 
	C 2714.67 -265.32 2711.24 -294.88 2711.24 -360.82 
	C 2711.24 -425.62 2714.67 -454.04 2726.09 -484.73 
	C 2736.37 -514.29 2755.8 -526.8 2787.79 -526.8 
	C 2824.36 -526.8 2846.07 -504.06 2850.64 -464.27 
	L 2809.5 -464.27 
	C 2807.22 -477.91 2800.36 -484.73 2788.94 -484.73 
	C 2774.08 -484.73 2763.8 -474.5 2760.37 -452.9 
	C 2755.8 -426.75 2753.51 -405.15 2753.51 -360.82 
	C 2753.51 -316.48 2755.8 -294.88 2759.23 -267.6 
	C 2763.8 -245.99 2771.79 -234.63 2786.65 -234.63 
	C 2801.5 -234.63 2809.5 -248.27 2809.5 -269.87 
	L 2809.5 -313.07 
	L 2790.08 -313.07 
	L 2790.08 -355.13 
	L 2850.64 -355.13 
	L 2850.64 -272.14 
	C 2850.64 -257.36 2849.35 -240.01 2846.07 -230.08 
	Z 
	"/>
</g>
<g fill="#7f7f7f" fill-rule="nonzero" stroke-width="0" stroke-linejoin="miter" stroke-linecap="butt" stroke-miterlimit="4" >
	<path d="
	M 2995.41 -198.25 
	L 2995.41 -349.45 
	L 2937.61 -349.45 
	L 2937.61 -198.25 
	L 2896.81 -198.25 
	L 2896.81 -522.25 
	L 2937.61 -522.25 
	L 2937.61 -391.51 
	L 2995.41 -391.51 
	L 2995.41 -522.25 
	L 3036.21 -522.25 
	L 3036.21 -198.25 
	Z 
	"/>
</g>
<g fill="#7f7f7f" fill-rule="nonzero" stroke-width="0" stroke-linejoin="miter" stroke-linecap="butt" stroke-miterlimit="4" >
	<path d="
	M 2622.94 -198.25 
	L 2622.94 -522.25 
	L 2665.07 -522.25 
	L 2665.07 -198.25 
	Z 
	"/>
</g>
<g fill="#7f7f7f" fill-rule="nonzero" stroke-width="0" stroke-linejoin="miter" stroke-linecap="butt" stroke-miterlimit="4" >
	<path d="
	M 2505.55 -480.18 
	L 2485.63 -480.18 
	L 2485.63 -391.51 
	L 2512.38 -391.51 
	C 2535.14 -391.51 2541.96 -401.74 2541.96 -432.44 
	C 2541.96 -468.82 2534 -480.18 2505.55 -480.18 
	Z 
	M 2549.93 -359.68 
	L 2582.93 -198.246 
	L 2540.82 -198.246 
	L 2504.41 -349.45 
	L 2485.63 -349.45 
	L 2485.63 -198.246 
	L 2444.66 -198.246 
	L 2444.66 -522.25 
	L 2507.82 -522.25 
	C 2557.89 -522.25 2584.07 -491.55 2584.07 -431.3 
	C 2584.07 -394.92 2573.82 -374.46 2549.93 -359.68 
	Z 
	"/>
</g>
<g fill="#7f7f7f" fill-rule="nonzero" stroke-width="0" stroke-linejoin="miter" stroke-linecap="butt" stroke-miterlimit="4" >
	<path d="
	M 3151.14 -480.18 
	L 3151.14 -198.246 
	L 3110.26 -198.246 
	L 3110.26 -480.18 
	L 3070.23 -480.18 
	L 3070.23 -522.25 
	L 3193.43 -522.25 
	L 3193.43 -480.18 
	Z 
	"/>
</g>
</g >
</g>
</svg>
