<?xml version="1.0" encoding="UTF-8" standalone="no"?>
<!-- Created with Inkscape (http://www.inkscape.org/) -->

<svg
   version="1.1"
   id="svg1"
   width="3456.6667"
   height="1728.6667"
   viewBox="0 0 3456.6667 1728.6667"
   sodipodi:docname="tmpdtirq851.pdf"
   xmlns:inkscape="http://www.inkscape.org/namespaces/inkscape"
   xmlns:sodipodi="http://sodipodi.sourceforge.net/DTD/sodipodi-0.dtd"
   xmlns="http://www.w3.org/2000/svg"
   xmlns:svg="http://www.w3.org/2000/svg">
  <defs
     id="defs1" />
  <sodipodi:namedview
     id="namedview1"
     pagecolor="#ffffff"
     bordercolor="#000000"
     borderopacity="0.25"
     inkscape:showpageshadow="2"
     inkscape:pageopacity="0.0"
     inkscape:pagecheckerboard="0"
     inkscape:deskcolor="#d1d1d1">
    <inkscape:page
       x="0"
       y="0"
       inkscape:label="1"
       id="page1"
       width="3456.6667"
       height="1728.6667"
       margin="0"
       bleed="0" />
  </sodipodi:namedview>
  <g
     id="g1"
     inkscape:groupmode="layer"
     inkscape:label="1">
    <g
       id="group-R5">
      <path
         id="path2"
         d="M 25922.5,1082.5 C 25922.5,486 25439,2.5 24842.5,2.5 H 1082.5 C 486.031,2.5 2.5,486 2.5,1082.5 v 10800 c 0,596.5 483.531,1080 1080,1080 h 23760 c 596.5,0 1080,-483.5 1080,-1080 v -10800"
         style="fill:#fccc2d;fill-opacity:1;fill-rule:nonzero;stroke:none"
         transform="matrix(0.13333333,0,0,-0.13333333,0,1728.6667)" />
      <path
         id="path3"
         d="M 25922.5,1082.5 C 25922.5,486 25439,2.5 24842.5,2.5 H 1082.5 C 486.031,2.5 2.5,486 2.5,1082.5 v 10800 c 0,596.5 483.531,1080 1080,1080 h 23760 c 596.5,0 1080,-483.5 1080,-1080 z"
         style="fill:none;stroke:#231f20;stroke-width:5;stroke-linecap:butt;stroke-linejoin:miter;stroke-miterlimit:4;stroke-dasharray:none;stroke-opacity:1"
         transform="matrix(0.13333333,0,0,-0.13333333,0,1728.6667)" />
      <path
         id="path4"
         d="m 1082.5,272.5 c -446.637,0 -810,363.398 -810,810 v 10800 c 0,446.6 363.363,810 810,810 h 23760 c 446.6,0 810,-363.4 810,-810 v -10800 c 0,-446.602 -363.4,-810 -810,-810 h -23760"
         style="fill:#231f20;fill-opacity:1;fill-rule:nonzero;stroke:none"
         transform="matrix(0.13333333,0,0,-0.13333333,0,1728.6667)" />
      <path
         id="path5"
         d="m 1082.5,722.5 c -198.508,0 -360,161.5 -360,360 v 10800 c 0,198.5 161.492,360 360,360 h 23760 c 198.5,0 360,-161.5 360,-360 v -10800 c 0,-198.5 -161.5,-360 -360,-360 h -23760"
         style="fill:#fccc2d;fill-opacity:1;fill-rule:nonzero;stroke:none"
         transform="matrix(0.13333333,0,0,-0.13333333,0,1728.6667)" />
      <path
         id="path6"
         d="m 2911.52,4792.39 c -61.77,176.87 -167.65,256.42 -326.49,256.42 h -300.01 v -1812.6 h 300.01 c 211.78,0 326.49,167.97 361.79,362.51 17.64,159.16 35.28,335.99 35.28,530.54 0,282.93 -26.47,557.04 -70.58,663.13 z m 61.75,-1794.93 C 2885.04,2917.9 2761.51,2882.5 2620.34,2882.5 h -697.11 v 2520 h 644.15 c 211.79,0 317.66,-26.51 405.89,-97.27 150.02,-106.09 255.91,-300.61 300.04,-557.04 35.29,-185.67 61.75,-406.73 61.75,-601.26 0,-583.57 -114.71,-954.96 -361.79,-1149.47"
         style="fill:#231f20;fill-opacity:1;fill-rule:nonzero;stroke:none"
         transform="matrix(0.13333333,0,0,-0.13333333,0,1728.6667)" />
      <path
         id="path7"
         d="m 5780.09,2882.5 v 2520 h 1188.29 v -353.69 h -824.71 v -636.62 h 523.21 v -344.84 h -523.21 v -831.14 h 922.25 V 2882.5 H 5780.09"
         style="fill:#231f20;fill-opacity:1;fill-rule:nonzero;stroke:none"
         transform="matrix(0.13333333,0,0,-0.13333333,0,1728.6667)" />
      <path
         id="path8"
         d="m 4848.56,4774.71 c -62.34,221.05 -160.31,318.34 -311.72,318.34 -160.33,0 -258.31,-97.29 -320.65,-309.5 -62.36,-194.5 -80.16,-362.51 -80.16,-645.46 0,-274.12 26.71,-433.28 80.16,-636.63 62.34,-212.2 160.32,-309.47 320.65,-309.47 151.41,0 249.38,97.27 311.72,309.47 62.35,203.35 80.18,353.69 80.18,645.47 0,282.94 -26.74,442.12 -80.18,627.78 z m 285.01,-1503.14 c -124.69,-300.64 -311.72,-433.27 -596.73,-433.27 -302.84,0 -480.97,132.63 -605.66,433.27 -106.9,247.57 -142.52,486.31 -142.52,875.36 0,380.23 35.62,636.62 142.52,875.37 133.6,300.62 311.74,424.44 605.66,424.44 293.91,0 472.04,-123.82 596.73,-433.29 106.9,-247.57 142.52,-486.29 142.52,-866.52 0,-389.05 -35.62,-636.62 -142.52,-875.36"
         style="fill:#231f20;fill-opacity:1;fill-rule:nonzero;stroke:none"
         transform="matrix(0.13333333,0,0,-0.13333333,0,1728.6667)" />
      <path
         id="path9"
         d="m 8085.88,4046.27 c -109.02,70.62 -214.87,141.52 -282.47,189.08 -203.16,142.99 -310.78,335.98 -310.78,557.04 0,362.54 284.15,654.33 648.2,654.33 355.18,0 630.44,-274.11 639.33,-654.33 h -346.31 c -8.87,176.87 -133.19,291.79 -293.02,291.79 -168.71,0 -301.9,-123.78 -301.9,-291.79 0,-123.78 53.28,-194.51 239.76,-300.62 488.36,-282.96 701.47,-557.06 701.47,-919.58 0,-406.75 -310.79,-733.89 -701.47,-733.89 -443.99,0 -710.36,371.37 -710.36,786.93 h 355.17 c 0,-212.2 106.55,-433.26 355.19,-433.26 195.33,0 355.16,176.84 355.16,380.22 0,157.91 -65.25,290.92 -347.97,474.08"
         style="fill:#231f20;fill-opacity:1;fill-rule:nonzero;stroke:none"
         transform="matrix(0.13333333,0,0,-0.13333333,0,1728.6667)" />
      <path
         id="path10"
         d="m 11718.5,2882.5 -776.6,1688.83 V 2882.5 h -361.7 v 2520.02 h 361.7 l 688.3,-1512.01 V 5402.52 H 11992 V 2882.5 h -273.5"
         style="fill:#231f20;fill-opacity:1;fill-rule:nonzero;stroke:none"
         transform="matrix(0.13333333,0,0,-0.13333333,0,1728.6667)" />
      <path
         id="path11"
         d="m 13555.9,4774.71 c -62.4,221.05 -160.3,318.34 -311.7,318.34 -160.3,0 -258.3,-97.29 -320.7,-309.5 -62.3,-194.5 -80.2,-362.51 -80.2,-645.46 0,-274.12 26.8,-433.28 80.2,-636.63 62.4,-212.2 160.4,-309.47 320.7,-309.47 151.4,0 249.3,97.27 311.7,309.47 62.3,203.35 80.2,353.69 80.2,645.47 0,282.94 -26.8,442.12 -80.2,627.78 z m 285,-1503.14 c -124.7,-300.64 -311.7,-433.27 -596.7,-433.27 -302.9,0 -481,132.63 -605.7,433.27 -106.9,247.57 -142.5,486.31 -142.5,875.36 0,380.23 35.6,636.62 142.5,875.37 133.6,300.62 311.7,424.44 605.7,424.44 293.9,0 472,-123.82 596.7,-433.29 106.9,-247.57 142.5,-486.29 142.5,-866.52 0,-389.05 -35.6,-636.62 -142.5,-875.36"
         style="fill:#231f20;fill-opacity:1;fill-rule:nonzero;stroke:none"
         transform="matrix(0.13333333,0,0,-0.13333333,0,1728.6667)" />
      <path
         id="path12"
         d="M 15110.5,5066.49 V 2882.5 H 14747 v 2183.99 h -461.2 v 336.03 h 1285.9 v -336.03 h -461.2"
         style="fill:#231f20;fill-opacity:1;fill-rule:nonzero;stroke:none"
         transform="matrix(0.13333333,0,0,-0.13333333,0,1728.6667)" />
      <path
         id="path13"
         d="m 21658.4,4774.71 c -62.3,221.05 -160.3,318.34 -311.7,318.34 -160.3,0 -258.3,-97.29 -320.7,-309.5 -62.3,-194.5 -80.1,-362.51 -80.1,-645.46 0,-274.12 26.7,-433.28 80.1,-636.63 62.4,-212.2 160.4,-309.47 320.7,-309.47 151.4,0 249.4,97.27 311.7,309.47 62.4,203.35 80.2,353.69 80.2,645.47 0,282.94 -26.8,442.12 -80.2,627.78 z m 285,-1503.14 c -124.7,-300.64 -311.7,-433.27 -596.7,-433.27 -302.9,0 -481,132.63 -605.7,433.27 -106.8,247.57 -142.5,486.31 -142.5,875.36 0,380.23 35.7,636.62 142.5,875.37 133.6,300.62 311.7,424.44 605.7,424.44 293.9,0 472,-123.82 596.7,-433.29 106.9,-247.57 142.5,-486.29 142.5,-866.52 0,-389.05 -35.6,-636.62 -142.5,-875.36"
         style="fill:#231f20;fill-opacity:1;fill-rule:nonzero;stroke:none"
         transform="matrix(0.13333333,0,0,-0.13333333,0,1728.6667)" />
      <path
         id="path14"
         d="m 23322.3,5048.81 h -370.6 v -716.22 h 370.6 c 211.8,0 326.5,132.64 326.5,362.54 0,212.2 -132.3,353.68 -326.5,353.68 z m 17.7,-1061.06 h -388.3 V 2882.5 H 22590 v 2520 h 750 c 397.1,0 661.8,-282.96 661.8,-707.37 0,-459.78 -238.3,-707.38 -661.8,-707.38"
         style="fill:#231f20;fill-opacity:1;fill-rule:nonzero;stroke:none"
         transform="matrix(0.13333333,0,0,-0.13333333,0,1728.6667)" />
      <path
         id="path15"
         d="m 18089.2,4046.27 c -109,70.62 -214.9,141.52 -282.5,189.08 -203.1,142.99 -310.7,335.98 -310.7,557.04 0,362.54 284.1,654.33 648.2,654.33 355.1,0 630.4,-274.11 639.3,-654.33 h -346.3 c -8.9,176.87 -133.2,291.79 -293,291.79 -168.7,0 -301.9,-123.78 -301.9,-291.79 0,-123.78 53.3,-194.51 239.7,-300.62 488.4,-282.96 701.5,-557.06 701.5,-919.58 0,-406.75 -310.8,-733.89 -701.5,-733.89 -444,0 -710.3,371.37 -710.3,786.93 h 355.1 c 0,-212.2 106.6,-433.26 355.2,-433.26 195.4,0 355.2,176.84 355.2,380.22 0,157.91 -65.3,290.92 -348,474.08"
         style="fill:#231f20;fill-opacity:1;fill-rule:nonzero;stroke:none"
         transform="matrix(0.13333333,0,0,-0.13333333,0,1728.6667)" />
      <path
         id="path16"
         d="M 19835,5066.49 V 2882.5 h -363.6 v 2183.99 h -461.1 v 336.03 h 1285.8 V 5066.49 H 19835"
         style="fill:#231f20;fill-opacity:1;fill-rule:nonzero;stroke:none"
         transform="matrix(0.13333333,0,0,-0.13333333,0,1728.6667)" />
      <path
         id="path17"
         d="m 18551.6,9224.81 -141.4,-663.15 h 274 z m 344.8,-1662.32 -141.5,672.02 h -415.5 L 18198,7562.49 h -327.1 l 512.7,2520.01 h 327.1 l 521.6,-2520.01 h -335.9"
         style="fill:#231f20;fill-opacity:1;fill-rule:nonzero;stroke:none"
         transform="matrix(0.13333333,0,0,-0.13333333,0,1728.6667)" />
      <path
         id="path18"
         d="m 24062.3,7818.91 c -55.2,-182.79 -222.2,-300.63 -444.4,-300.63 -257.7,0 -417.7,106.11 -497.7,336 -71.1,212.21 -106.6,557.05 -106.6,963.8 0,229.89 26.6,565.89 62.2,760.42 71.1,389.06 222.2,539.4 524.3,539.4 284.4,0 471,-176.88 497.7,-486.35 H 23769 c -8.9,106.11 -71.1,159.17 -160,159.17 -115.5,0 -177.7,-79.59 -213.3,-247.59 -44.4,-203.37 -53.3,-389.04 -53.3,-725.05 0,-353.69 8.9,-504 53.3,-716.22 35.6,-167.98 97.8,-256.43 204.4,-256.43 115.6,0 168.9,88.45 168.9,309.49 h 328.8 c 0,-194.52 -8.9,-247.57 -35.5,-336.01"
         style="fill:#231f20;fill-opacity:1;fill-rule:nonzero;stroke:none"
         transform="matrix(0.13333333,0,0,-0.13333333,0,1728.6667)" />
      <path
         id="path19"
         d="m 19901.6,9755.34 v -645.47 h 369.2 v -335.99 h -369.2 V 7562.49 h -316.5 v 2520.01 h 958.3 v -327.16 h -641.8"
         style="fill:#231f20;fill-opacity:1;fill-rule:nonzero;stroke:none"
         transform="matrix(0.13333333,0,0,-0.13333333,0,1728.6667)" />
      <path
         id="path20"
         d="m 21212.7,9755.34 v -645.47 h 369.2 v -335.99 h -369.2 V 7562.49 h -316.5 v 2520.01 h 958.2 v -327.16 h -641.7"
         style="fill:#231f20;fill-opacity:1;fill-rule:nonzero;stroke:none"
         transform="matrix(0.13333333,0,0,-0.13333333,0,1728.6667)" />
      <path
         id="path21"
         d="m 22207.2,7562.49 v 2520.01 h 327.6 V 7562.49 h -327.6"
         style="fill:#231f20;fill-opacity:1;fill-rule:nonzero;stroke:none"
         transform="matrix(0.13333333,0,0,-0.13333333,0,1728.6667)" />
      <path
         id="path22"
         d="m 17058.6,9755.33 h -154.9 v -689.68 h 208 c 177,0 230.1,79.58 230.1,318.32 0,282.94 -61.9,371.36 -283.2,371.36 z m 345.2,-937.26 256.6,-1255.58 H 17333 l -283.3,1175.99 h -146 V 7562.49 h -318.6 v 2520.01 h 491.2 c 389.4,0 593,-238.75 593,-707.38 0,-282.94 -79.7,-442.11 -265.5,-557.05"
         style="fill:#231f20;fill-opacity:1;fill-rule:nonzero;stroke:none"
         transform="matrix(0.13333333,0,0,-0.13333333,0,1728.6667)" />
      <path
         id="path23"
         d="M 15903.3,9755.33 V 7562.49 h -318 V 9755.33 H 15274 v 327.17 h 958.3 v -327.17 h -329"
         style="fill:#231f20;fill-opacity:1;fill-rule:nonzero;stroke:none"
         transform="matrix(0.13333333,0,0,-0.13333333,0,1728.6667)" />
      <path
         id="path24"
         d="m 6077.53,7818.91 c -55.11,-182.8 -222.18,-300.63 -444.36,-300.63 -257.72,0 -417.69,106.1 -497.66,336 -71.11,212.21 -106.65,557.05 -106.65,963.79 0,229.9 26.67,565.9 62.22,760.43 71.09,389.05 222.16,539.4 524.33,539.4 284.38,0 471.02,-176.88 497.67,-486.35 h -328.83 c -8.89,106.1 -71.09,159.16 -159.96,159.16 -115.52,0 -177.74,-79.58 -213.29,-247.59 -44.44,-203.36 -53.33,-389.04 -53.33,-725.05 0,-353.69 8.89,-503.99 53.33,-716.21 35.55,-167.99 97.77,-256.43 204.41,-256.43 115.52,0 168.84,88.44 168.84,309.48 h 328.83 c 0,-194.52 -8.88,-247.57 -35.55,-336"
         style="fill:#231f20;fill-opacity:1;fill-rule:nonzero;stroke:none"
         transform="matrix(0.13333333,0,0,-0.13333333,0,1728.6667)" />
      <path
         id="path25"
         d="m 13438.5,7810.07 c -58,-175.38 -222.2,-291.79 -453.3,-291.79 -257.7,0 -408.8,97.25 -488.8,336 -79.9,229.89 -106.6,459.8 -106.6,972.63 0,504.01 26.7,725.07 115.5,963.8 80,229.89 231.1,327.19 479.9,327.19 284.4,0 453.3,-176.88 488.8,-486.35 h -319.9 c -17.8,106.1 -71.1,159.16 -160,159.16 -115.5,0 -195.5,-79.58 -222.2,-247.59 -35.5,-203.36 -53.3,-371.36 -53.3,-716.21 0,-344.83 17.8,-512.83 44.4,-725.05 35.6,-167.99 97.8,-256.43 213.3,-256.43 115.6,0 177.8,106.12 177.8,274.11 v 336.01 H 13003 v 327.16 h 471 v -645.48 c 0,-114.95 -10,-249.96 -35.5,-327.16"
         style="fill:#231f20;fill-opacity:1;fill-rule:nonzero;stroke:none"
         transform="matrix(0.13333333,0,0,-0.13333333,0,1728.6667)" />
      <path
         id="path26"
         d="m 9944.78,7562.49 v 2520.01 h 327.62 V 7562.49 h -327.62"
         style="fill:#231f20;fill-opacity:1;fill-rule:nonzero;stroke:none"
         transform="matrix(0.13333333,0,0,-0.13333333,0,1728.6667)" />
      <path
         id="path27"
         d="m 9072.16,7562.49 v 1494.32 l -291.8,-946.11 -307.2,946.11 V 7562.49 h -318.22 v 2520.01 h 318.22 l 307.2,-893.06 291.8,893.06 h 318.22 V 7562.49 h -318.22"
         style="fill:#231f20;fill-opacity:1;fill-rule:nonzero;stroke:none"
         transform="matrix(0.13333333,0,0,-0.13333333,0,1728.6667)" />
      <path
         id="path28"
         d="M 4276.79,7562.49 3783.16,9056.81 V 7562.49 h -317.33 v 2520.01 h 317.33 l 449.57,-1255.59 v 1255.59 h 317.33 V 7562.49 h -273.27"
         style="fill:#231f20;fill-opacity:1;fill-rule:nonzero;stroke:none"
         transform="matrix(0.13333333,0,0,-0.13333333,0,1728.6667)" />
      <path
         id="path29"
         d="m 11637.7,7562.49 -493.6,1494.32 V 7562.49 h -317.3 v 2520.01 h 317.3 l 449.6,-1255.59 V 10082.5 H 11911 V 7562.49 h -273.3"
         style="fill:#231f20;fill-opacity:1;fill-rule:nonzero;stroke:none"
         transform="matrix(0.13333333,0,0,-0.13333333,0,1728.6667)" />
      <path
         id="path30"
         d="m 2407.28,9790.7 c -291.8,0 -252.06,-786.94 -252.06,-963.79 0,-168 -39.74,-981.48 252.06,-981.48 282.96,0 243.22,813.48 243.22,981.48 0,203.38 -4.48,963.79 -243.22,963.79 z m 0,-2272.42 c -627.81,0 -579.22,893.05 -579.22,1308.63 0,433.26 -39.74,1290.99 579.22,1290.99 618.96,0 579.2,-866.57 579.2,-1290.99 0,-415.58 39.76,-1308.63 -579.2,-1308.63"
         style="fill:#231f20;fill-opacity:1;fill-rule:nonzero;stroke:none"
         transform="matrix(0.13333333,0,0,-0.13333333,0,1728.6667)" />
      <path
         id="path31"
         d="m 7096.39,9790.7 c -291.79,0 -252.05,-786.94 -252.05,-963.79 0,-168 -39.74,-981.48 252.05,-981.48 282.95,0 243.2,813.48 243.2,981.48 0,203.38 -4.46,963.79 -243.2,963.79 z m 0,-2272.42 c -627.82,0 -579.23,893.05 -579.23,1308.63 0,433.26 -39.74,1290.99 579.23,1290.99 618.97,0 579.2,-866.57 579.2,-1290.99 0,-415.58 39.77,-1308.63 -579.2,-1308.63"
         style="fill:#231f20;fill-opacity:1;fill-rule:nonzero;stroke:none"
         transform="matrix(0.13333333,0,0,-0.13333333,0,1728.6667)" />
    </g>
  </g>
</svg>
