<?xml version="1.0" standalone="no"?>
<svg width="2592px" height="1296px" viewBox="0 -504 2592 1296 " xmlns="http://www.w3.org/2000/svg" xmlns:xlink="http://www.w3.org/1999/xlink">
<title>generated by pstoedit</title>
<!-- generated by pstoedit version:4.02 -->
<g xml:space='preserve'>
<clipPath id="clippath1"> 	<path d="
	M 0 -504.5 
	L 0 792 
	L 2592.5 792 
	L 2592.5 -504.5 
	Z 
	" style="clip-rule:nonzero"/>
</clipPath>
<g style="clip-path:url(#clippath1)"> 
<g fill="#95e8ff" fill-rule="nonzero" stroke-width="0" stroke-linejoin="miter" stroke-linecap="butt" stroke-miterlimit="10" >
	<path d="
	M 2592.25 683.75 
	C 2592.25 743.398 2543.9 791.75 2484.25 791.75 
	L 108.25 791.75 
	C 48.6016 791.75 0.25 743.398 0.25 683.75 
	L 0.25 -396.25 
	C 0.25 -455.89 48.6016 -504.25 108.25 -504.25 
	L 2484.25 -504.25 
	C 2543.9 -504.25 2592.25 -455.89 2592.25 -396.25 
	Z 
	"/>
</g>
<g stroke="#7f7f7f" fill="none" stroke-width="0.5" stroke-linejoin="miter" stroke-linecap="butt" stroke-miterlimit="4" >
	<path d="
	M 2592.25 683.75 
	C 2592.25 743.398 2543.9 791.75 2484.25 791.75 
	L 108.25 791.75 
	C 48.6016 791.75 0.25 743.398 0.25 683.75 
	L 0.25 -396.25 
	C 0.25 -455.89 48.6016 -504.25 108.25 -504.25 
	L 2484.25 -504.25 
	C 2543.9 -504.25 2592.25 -455.89 2592.25 -396.25 
	Z 
	"/>
</g>
<g fill="#7f7f7f" fill-rule="nonzero" stroke-width="0" stroke-linejoin="miter" stroke-linecap="butt" stroke-miterlimit="4" >
	<path d="
	M 108.25 764.75 
	C 63.5859 764.75 27.25 728.41 27.25 683.75 
	L 27.25 -396.25 
	C 27.25 -440.91 63.5859 -477.25 108.25 -477.25 
	L 2484.25 -477.25 
	C 2528.91 -477.25 2565.25 -440.91 2565.25 -396.25 
	L 2565.25 683.75 
	C 2565.25 728.41 2528.91 764.75 2484.25 764.75 
	Z 
	"/>
</g>
<g fill="#95e8ff" fill-rule="nonzero" stroke-width="0" stroke-linejoin="miter" stroke-linecap="butt" stroke-miterlimit="4" >
	<path d="
	M 108.25 719.75 
	C 88.3984 719.75 72.25 703.602 72.25 683.75 
	L 72.25 -396.25 
	C 72.25 -416.1 88.3984 -432.25 108.25 -432.25 
	L 2484.25 -432.25 
	C 2504.1 -432.25 2520.25 -416.1 2520.25 -396.25 
	L 2520.25 683.75 
	C 2520.25 703.602 2504.1 719.75 2484.25 719.75 
	Z 
	"/>
</g>
<g fill="#7f7f7f" fill-rule="nonzero" stroke-width="0" stroke-linejoin="miter" stroke-linecap="butt" stroke-miterlimit="4" >
	<path d="
	M 291.152 312.762 
	C 284.977 295.074 274.387 287.117 258.504 287.117 
	L 228.504 287.117 
	L 228.504 468.379 
	L 258.504 468.379 
	C 279.68 468.379 291.152 451.582 294.684 432.129 
	C 296.445 416.211 298.211 398.527 298.211 379.074 
	C 298.211 350.781 295.563 323.371 291.152 312.762 
	Z 
	M 297.328 492.254 
	C 288.504 500.211 276.152 503.75 262.035 503.75 
	L 192.324 503.75 
	L 192.324 251.75 
	L 256.738 251.75 
	C 277.918 251.75 288.504 254.402 297.328 261.477 
	C 312.328 272.086 322.918 291.539 327.332 317.18 
	C 330.859 335.746 333.508 357.855 333.508 377.309 
	C 333.508 435.664 322.035 472.805 297.328 492.254 
	Z 
	"/>
</g>
<g fill="#7f7f7f" fill-rule="nonzero" stroke-width="0" stroke-linejoin="miter" stroke-linecap="butt" stroke-miterlimit="4" >
	<path d="
	M 578.008 503.75 
	L 578.008 251.75 
	L 696.84 251.75 
	L 696.84 287.117 
	L 614.367 287.117 
	L 614.367 350.781 
	L 666.688 350.781 
	L 666.688 385.266 
	L 614.367 385.266 
	L 614.367 468.379 
	L 706.594 468.379 
	L 706.594 503.75 
	Z 
	"/>
</g>
<g fill="#7f7f7f" fill-rule="nonzero" stroke-width="0" stroke-linejoin="miter" stroke-linecap="butt" stroke-miterlimit="4" >
	<path d="
	M 484.855 314.527 
	C 478.621 292.426 468.824 282.695 453.684 282.695 
	C 437.652 282.695 427.852 292.426 421.617 313.645 
	C 415.383 333.094 413.602 349.895 413.602 378.191 
	C 413.602 405.602 416.273 421.52 421.617 441.855 
	C 427.852 463.074 437.652 472.801 453.684 472.801 
	C 468.824 472.801 478.621 463.074 484.855 441.855 
	C 491.09 421.52 492.875 406.484 492.875 377.309 
	C 492.875 349.012 490.199 333.094 484.855 314.527 
	Z 
	M 513.355 464.844 
	C 500.887 494.906 482.184 508.172 453.684 508.172 
	C 423.398 508.172 405.586 494.906 393.117 464.844 
	C 382.43 440.086 378.867 416.211 378.867 377.309 
	C 378.867 339.285 382.43 313.645 393.117 289.77 
	C 406.477 259.707 424.293 247.324 453.684 247.324 
	C 483.074 247.324 500.887 259.707 513.355 290.656 
	C 524.047 315.41 527.609 339.285 527.609 377.309 
	C 527.609 416.211 524.047 440.969 513.355 464.844 
	Z 
	"/>
</g>
<g fill="#7f7f7f" fill-rule="nonzero" stroke-width="0" stroke-linejoin="miter" stroke-linecap="butt" stroke-miterlimit="4" >
	<path d="
	M 808.59 387.371 
	C 797.688 380.312 787.102 373.223 780.34 368.465 
	C 760.023 354.168 749.262 334.867 749.262 312.762 
	C 749.262 276.508 777.68 247.328 814.082 247.328 
	C 849.602 247.328 877.129 274.738 878.016 312.762 
	L 843.387 312.762 
	C 842.496 295.074 830.066 283.582 814.082 283.582 
	C 797.211 283.582 783.895 295.961 783.895 312.762 
	C 783.895 325.141 789.223 332.211 807.867 342.824 
	C 856.703 371.117 878.016 398.527 878.016 434.781 
	C 878.016 475.457 846.938 508.172 807.867 508.172 
	C 763.469 508.172 736.832 471.031 736.832 429.477 
	L 772.352 429.477 
	C 772.352 450.695 783.004 472.805 807.867 472.805 
	C 827.402 472.805 843.387 455.117 843.387 434.781 
	C 843.387 418.988 836.859 405.687 808.59 387.371 
	Z 
	"/>
</g>
<g fill="#7f7f7f" fill-rule="nonzero" stroke-width="0" stroke-linejoin="miter" stroke-linecap="butt" stroke-miterlimit="4" >
	<path d="
	M 1171.85 503.75 
	L 1094.19 334.867 
	L 1094.19 503.75 
	L 1058.02 503.75 
	L 1058.02 251.746 
	L 1094.19 251.746 
	L 1163.02 402.949 
	L 1163.02 251.746 
	L 1199.2 251.746 
	L 1199.2 503.75 
	Z 
	"/>
</g>
<g fill="#7f7f7f" fill-rule="nonzero" stroke-width="0" stroke-linejoin="miter" stroke-linecap="butt" stroke-miterlimit="4" >
	<path d="
	M 1355.59 314.527 
	C 1349.35 292.426 1339.56 282.695 1324.42 282.695 
	C 1308.39 282.695 1298.59 292.426 1292.35 313.645 
	C 1286.12 333.094 1284.33 349.895 1284.33 378.191 
	C 1284.33 405.602 1287.01 421.52 1292.35 441.855 
	C 1298.59 463.074 1308.39 472.801 1324.42 472.801 
	C 1339.56 472.801 1349.35 463.074 1355.59 441.855 
	C 1361.82 421.52 1363.61 406.484 1363.61 377.309 
	C 1363.61 349.012 1360.93 333.094 1355.59 314.527 
	Z 
	M 1384.09 464.844 
	C 1371.62 494.906 1352.92 508.172 1324.42 508.172 
	C 1294.13 508.172 1276.32 494.906 1263.85 464.844 
	C 1253.16 440.086 1249.6 416.211 1249.6 377.309 
	C 1249.6 339.285 1253.16 313.645 1263.85 289.77 
	C 1277.21 259.707 1295.02 247.324 1324.42 247.324 
	C 1353.81 247.324 1371.62 259.707 1384.09 290.656 
	C 1394.78 315.41 1398.34 339.285 1398.34 377.309 
	C 1398.34 416.211 1394.78 440.969 1384.09 464.844 
	Z 
	"/>
</g>
<g fill="#7f7f7f" fill-rule="nonzero" stroke-width="0" stroke-linejoin="miter" stroke-linecap="butt" stroke-miterlimit="4" >
	<path d="
	M 1511.05 285.352 
	L 1511.05 503.75 
	L 1474.7 503.75 
	L 1474.7 285.352 
	L 1428.58 285.352 
	L 1428.58 251.746 
	L 1557.17 251.746 
	L 1557.17 285.352 
	Z 
	"/>
</g>
<g fill="#7f7f7f" fill-rule="nonzero" stroke-width="0" stroke-linejoin="miter" stroke-linecap="butt" stroke-miterlimit="4" >
	<path d="
	M 2165.84 314.527 
	C 2159.61 292.426 2149.81 282.695 2134.67 282.695 
	C 2118.64 282.695 2108.84 292.426 2102.6 313.645 
	C 2096.37 333.094 2094.59 349.895 2094.59 378.191 
	C 2094.59 405.602 2097.26 421.52 2102.6 441.855 
	C 2108.84 463.074 2118.64 472.801 2134.67 472.801 
	C 2149.81 472.801 2159.61 463.074 2165.84 441.855 
	C 2172.08 421.52 2173.86 406.484 2173.86 377.309 
	C 2173.86 349.012 2171.18 333.094 2165.84 314.527 
	Z 
	M 2194.34 464.844 
	C 2181.87 494.906 2163.17 508.172 2134.67 508.172 
	C 2104.38 508.172 2086.57 494.906 2074.1 464.844 
	C 2063.42 440.086 2059.85 416.211 2059.85 377.309 
	C 2059.85 339.285 2063.42 313.645 2074.1 289.77 
	C 2087.46 259.707 2105.27 247.324 2134.67 247.324 
	C 2164.06 247.324 2181.87 259.707 2194.34 290.656 
	C 2205.03 315.41 2208.59 339.285 2208.59 377.309 
	C 2208.59 416.211 2205.03 440.969 2194.34 464.844 
	Z 
	"/>
</g>
<g fill="#7f7f7f" fill-rule="nonzero" stroke-width="0" stroke-linejoin="miter" stroke-linecap="butt" stroke-miterlimit="4" >
	<path d="
	M 2332.23 287.117 
	L 2295.17 287.117 
	L 2295.17 358.742 
	L 2332.23 358.742 
	C 2353.41 358.742 2364.88 345.477 2364.88 322.488 
	C 2364.88 301.266 2351.65 287.117 2332.23 287.117 
	Z 
	M 2334 393.227 
	L 2295.17 393.227 
	L 2295.17 503.75 
	L 2259 503.75 
	L 2259 251.75 
	L 2334 251.75 
	C 2373.71 251.75 2400.18 280.047 2400.18 322.488 
	C 2400.18 368.465 2376.35 393.227 2334 393.227 
	Z 
	"/>
</g>
<g fill="#7f7f7f" fill-rule="nonzero" stroke-width="0" stroke-linejoin="miter" stroke-linecap="butt" stroke-miterlimit="4" >
	<path d="
	M 1808.92 387.371 
	C 1798.02 380.312 1787.43 373.223 1780.67 368.465 
	C 1760.36 354.168 1749.6 334.867 1749.6 312.762 
	C 1749.6 276.508 1778.01 247.328 1814.42 247.328 
	C 1849.93 247.328 1877.46 274.738 1878.35 312.762 
	L 1843.72 312.762 
	C 1842.83 295.074 1830.4 283.582 1814.42 283.582 
	C 1797.55 283.582 1784.23 295.961 1784.23 312.762 
	C 1784.23 325.141 1789.56 332.211 1808.2 342.824 
	C 1857.04 371.117 1878.35 398.527 1878.35 434.781 
	C 1878.35 475.457 1847.27 508.172 1808.2 508.172 
	C 1763.8 508.172 1737.17 471.031 1737.17 429.477 
	L 1772.68 429.477 
	C 1772.68 450.695 1783.34 472.805 1808.2 472.805 
	C 1827.74 472.805 1843.72 455.117 1843.72 434.781 
	C 1843.72 418.988 1837.19 405.687 1808.92 387.371 
	Z 
	"/>
</g>
<g fill="#7f7f7f" fill-rule="nonzero" stroke-width="0" stroke-linejoin="miter" stroke-linecap="butt" stroke-miterlimit="4" >
	<path d="
	M 1983.5 285.352 
	L 1983.5 503.75 
	L 1947.14 503.75 
	L 1947.14 285.352 
	L 1901.03 285.352 
	L 1901.03 251.746 
	L 2029.61 251.746 
	L 2029.61 285.352 
	Z 
	"/>
</g>
<g fill="#7f7f7f" fill-rule="nonzero" stroke-width="0" stroke-linejoin="miter" stroke-linecap="butt" stroke-miterlimit="4" >
	<path d="
	M 1855.16 -130.48 
	L 1841.02 -64.164 
	L 1868.42 -64.164 
	Z 
	M 1889.64 35.75 
	L 1875.49 -31.449 
	L 1833.94 -31.449 
	L 1819.8 35.75 
	L 1787.09 35.75 
	L 1838.36 -216.25 
	L 1871.07 -216.25 
	L 1923.23 35.75 
	Z 
	"/>
</g>
<g fill="#7f7f7f" fill-rule="nonzero" stroke-width="0" stroke-linejoin="miter" stroke-linecap="butt" stroke-miterlimit="4" >
	<path d="
	M 2406.23 10.109 
	C 2400.71 28.387 2384.01 40.172 2361.79 40.172 
	C 2336.02 40.172 2320.02 29.562 2312.02 6.57001 
	C 2304.91 -14.648 2301.36 -49.133 2301.36 -89.809 
	C 2301.36 -112.797 2304.02 -146.398 2307.58 -165.852 
	C 2314.69 -204.758 2329.8 -219.79 2360.01 -219.79 
	C 2388.45 -219.79 2407.11 -202.102 2409.78 -171.156 
	L 2376.9 -171.156 
	C 2376.01 -181.766 2369.79 -187.07 2360.9 -187.07 
	C 2349.35 -187.07 2343.13 -179.113 2339.57 -162.313 
	C 2335.13 -141.977 2334.24 -123.41 2334.24 -89.809 
	C 2334.24 -54.438 2335.13 -39.406 2339.57 -18.188 
	C 2343.13 -1.38702 2349.35 7.45697 2360.01 7.45697 
	C 2371.57 7.45697 2376.9 -1.38702 2376.9 -23.492 
	L 2409.78 -23.492 
	C 2409.78 -4.039 2408.89 1.26599 2406.23 10.109 
	Z 
	"/>
</g>
<g fill="#7f7f7f" fill-rule="nonzero" stroke-width="0" stroke-linejoin="miter" stroke-linecap="butt" stroke-miterlimit="4" >
	<path d="
	M 1990.16 -183.535 
	L 1990.16 -118.988 
	L 2027.08 -118.988 
	L 2027.08 -85.387 
	L 1990.16 -85.387 
	L 1990.16 35.75 
	L 1958.51 35.75 
	L 1958.51 -216.25 
	L 2054.34 -216.25 
	L 2054.34 -183.535 
	Z 
	"/>
</g>
<g fill="#7f7f7f" fill-rule="nonzero" stroke-width="0" stroke-linejoin="miter" stroke-linecap="butt" stroke-miterlimit="4" >
	<path d="
	M 2121.27 -183.535 
	L 2121.27 -118.988 
	L 2158.19 -118.988 
	L 2158.19 -85.387 
	L 2121.27 -85.387 
	L 2121.27 35.75 
	L 2089.62 35.75 
	L 2089.62 -216.25 
	L 2185.44 -216.25 
	L 2185.44 -183.535 
	Z 
	"/>
</g>
<g fill="#7f7f7f" fill-rule="nonzero" stroke-width="0" stroke-linejoin="miter" stroke-linecap="butt" stroke-miterlimit="4" >
	<path d="
	M 2220.72 35.75 
	L 2220.72 -216.25 
	L 2253.48 -216.25 
	L 2253.48 35.75 
	Z 
	"/>
</g>
<g fill="#7f7f7f" fill-rule="nonzero" stroke-width="0" stroke-linejoin="miter" stroke-linecap="butt" stroke-miterlimit="4" >
	<path d="
	M 1705.86 -183.531 
	L 1690.37 -183.531 
	L 1690.37 -114.566 
	L 1711.17 -114.566 
	C 1728.87 -114.566 1734.18 -122.523 1734.18 -146.398 
	C 1734.18 -174.691 1727.99 -183.531 1705.86 -183.531 
	Z 
	M 1740.38 -89.809 
	L 1766.04 35.75 
	L 1733.3 35.75 
	L 1704.97 -81.848 
	L 1690.37 -81.848 
	L 1690.37 35.75 
	L 1658.51 35.75 
	L 1658.51 -216.25 
	L 1707.63 -216.25 
	C 1746.57 -216.25 1766.93 -192.375 1766.93 -145.512 
	C 1766.93 -117.219 1758.96 -101.301 1740.38 -89.809 
	Z 
	"/>
</g>
<g fill="#7f7f7f" fill-rule="nonzero" stroke-width="0" stroke-linejoin="miter" stroke-linecap="butt" stroke-miterlimit="4" >
	<path d="
	M 1590.33 -183.531 
	L 1590.33 35.75 
	L 1558.53 35.75 
	L 1558.53 -183.531 
	L 1527.4 -183.531 
	L 1527.4 -216.25 
	L 1623.23 -216.25 
	L 1623.23 -183.531 
	Z 
	"/>
</g>
<g fill="#7f7f7f" fill-rule="nonzero" stroke-width="0" stroke-linejoin="miter" stroke-linecap="butt" stroke-miterlimit="4" >
	<path d="
	M 607.754 10.109 
	C 602.242 28.391 585.535 40.172 563.316 40.172 
	C 537.547 40.172 521.547 29.562 513.551 6.57001 
	C 506.441 -14.648 502.887 -49.133 502.887 -89.809 
	C 502.887 -112.797 505.555 -146.398 509.109 -165.852 
	C 516.219 -204.754 531.324 -219.79 561.543 -219.79 
	C 589.98 -219.79 608.645 -202.102 611.309 -171.156 
	L 578.426 -171.156 
	C 577.535 -181.766 571.316 -187.07 562.43 -187.07 
	C 550.879 -187.07 544.656 -179.113 541.102 -162.313 
	C 536.656 -141.977 535.766 -123.406 535.766 -89.809 
	C 535.766 -54.438 536.656 -39.406 541.102 -18.188 
	C 544.656 -1.38702 550.879 7.45697 561.543 7.45697 
	C 573.094 7.45697 578.426 -1.38702 578.426 -23.492 
	L 611.309 -23.492 
	C 611.309 -4.039 610.422 1.26599 607.754 10.109 
	Z 
	"/>
</g>
<g fill="#7f7f7f" fill-rule="nonzero" stroke-width="0" stroke-linejoin="miter" stroke-linecap="butt" stroke-miterlimit="4" >
	<path d="
	M 1343.85 10.992 
	C 1338.05 28.531 1321.63 40.172 1298.52 40.172 
	C 1272.75 40.172 1257.64 30.445 1249.64 6.57001 
	C 1241.65 -16.418 1238.98 -39.406 1238.98 -90.691 
	C 1238.98 -141.094 1241.65 -163.199 1250.53 -187.07 
	C 1258.53 -210.06 1273.64 -219.79 1298.52 -219.79 
	C 1326.96 -219.79 1343.85 -202.102 1347.4 -171.156 
	L 1315.41 -171.156 
	C 1313.63 -181.766 1308.3 -187.07 1299.41 -187.07 
	C 1287.86 -187.07 1279.86 -179.113 1277.19 -162.313 
	C 1273.64 -141.977 1271.86 -125.176 1271.86 -90.691 
	C 1271.86 -56.207 1273.64 -39.406 1276.3 -18.188 
	C 1279.86 -1.38702 1286.08 7.45697 1297.63 7.45697 
	C 1309.19 7.45697 1315.41 -3.15601 1315.41 -19.953 
	L 1315.41 -53.555 
	L 1300.3 -53.555 
	L 1300.3 -86.27 
	L 1347.4 -86.27 
	L 1347.4 -21.723 
	C 1347.4 -10.227 1346.4 3.27301 1343.85 10.992 
	Z 
	"/>
</g>
<g fill="#7f7f7f" fill-rule="nonzero" stroke-width="0" stroke-linejoin="miter" stroke-linecap="butt" stroke-miterlimit="4" >
	<path d="
	M 994.477 35.75 
	L 994.477 -216.25 
	L 1027.24 -216.25 
	L 1027.24 35.75 
	Z 
	"/>
</g>
<g fill="#7f7f7f" fill-rule="nonzero" stroke-width="0" stroke-linejoin="miter" stroke-linecap="butt" stroke-miterlimit="4" >
	<path d="
	M 907.215 35.75 
	L 907.215 -113.68 
	L 878.035 -19.07 
	L 847.316 -113.68 
	L 847.316 35.75 
	L 815.492 35.75 
	L 815.492 -216.25 
	L 847.316 -216.25 
	L 878.035 -126.945 
	L 907.215 -216.25 
	L 939.039 -216.25 
	L 939.039 35.75 
	Z 
	"/>
</g>
<g fill="#7f7f7f" fill-rule="nonzero" stroke-width="0" stroke-linejoin="miter" stroke-linecap="butt" stroke-miterlimit="4" >
	<path d="
	M 427.68 35.75 
	L 378.316 -113.68 
	L 378.316 35.75 
	L 346.582 35.75 
	L 346.582 -216.25 
	L 378.316 -216.25 
	L 423.273 -90.691 
	L 423.273 -216.25 
	L 455.008 -216.25 
	L 455.008 35.75 
	Z 
	"/>
</g>
<g fill="#7f7f7f" fill-rule="nonzero" stroke-width="0" stroke-linejoin="miter" stroke-linecap="butt" stroke-miterlimit="4" >
	<path d="
	M 1163.77 35.75 
	L 1114.41 -113.68 
	L 1114.41 35.75 
	L 1082.68 35.75 
	L 1082.68 -216.25 
	L 1114.41 -216.25 
	L 1159.37 -90.691 
	L 1159.37 -216.25 
	L 1191.1 -216.25 
	L 1191.1 35.75 
	Z 
	"/>
</g>
<g fill="#7f7f7f" fill-rule="nonzero" stroke-width="0" stroke-linejoin="miter" stroke-linecap="butt" stroke-miterlimit="4" >
	<path d="
	M 240.727 -187.07 
	C 211.547 -187.07 215.523 -108.375 215.523 -90.691 
	C 215.523 -73.891 211.547 7.45697 240.727 7.45697 
	C 269.023 7.45697 265.051 -73.891 265.051 -90.691 
	C 265.051 -111.027 264.602 -187.07 240.727 -187.07 
	Z 
	M 240.727 40.172 
	C 177.945 40.172 182.805 -49.133 182.805 -90.691 
	C 182.805 -134.016 178.832 -219.79 240.727 -219.79 
	C 302.625 -219.79 298.648 -133.133 298.648 -90.691 
	C 298.648 -49.133 302.625 40.172 240.727 40.172 
	Z 
	"/>
</g>
<g fill="#7f7f7f" fill-rule="nonzero" stroke-width="0" stroke-linejoin="miter" stroke-linecap="butt" stroke-miterlimit="4" >
	<path d="
	M 709.641 -187.07 
	C 680.461 -187.07 684.434 -108.375 684.434 -90.691 
	C 684.434 -73.891 680.461 7.45697 709.641 7.45697 
	C 737.934 7.45697 733.961 -73.891 733.961 -90.691 
	C 733.961 -111.027 733.512 -187.07 709.641 -187.07 
	Z 
	M 709.641 40.172 
	C 646.855 40.172 651.715 -49.133 651.715 -90.691 
	C 651.715 -134.016 647.742 -219.79 709.641 -219.79 
	C 771.535 -219.79 767.559 -133.133 767.559 -90.691 
	C 767.559 -49.133 771.535 40.172 709.641 40.172 
	Z 
	"/>
</g>
</g >
</g>
</svg>
