<?xml version="1.0" standalone="no"?>
<svg width="1728px" height="864px" viewBox="0 -72 1728 864 " xmlns="http://www.w3.org/2000/svg" xmlns:xlink="http://www.w3.org/1999/xlink">
<title>generated by pstoedit</title>
<!-- generated by pstoedit version:4.02 -->
<g xml:space='preserve'>
<clipPath id="clippath1"> 	<path d="
	M 0 -72.5 
	L 0 792 
	L 1728.5 792 
	L 1728.5 -72.5 
	Z 
	" style="clip-rule:nonzero"/>
</clipPath>
<g style="clip-path:url(#clippath1)"> 
<g fill="#95e8ff" fill-rule="nonzero" stroke-width="0" stroke-linejoin="miter" stroke-linecap="butt" stroke-miterlimit="10" >
	<path d="
	M 1728.25 683.75 
	C 1728.25 743.395 1679.9 791.75 1620.25 791.75 
	L 108.25 791.75 
	C 48.6016 791.75 0.25 743.395 0.25 683.75 
	L 0.25 35.75 
	C 0.25 -23.898 48.6016 -72.25 108.25 -72.25 
	L 1620.25 -72.25 
	C 1679.9 -72.25 1728.25 -23.898 1728.25 35.75 
	Z 
	"/>
</g>
<g stroke="#7f7f7f" fill="none" stroke-width="0.5" stroke-linejoin="miter" stroke-linecap="butt" stroke-miterlimit="4" >
	<path d="
	M 1728.25 683.75 
	C 1728.25 743.395 1679.9 791.75 1620.25 791.75 
	L 108.25 791.75 
	C 48.6016 791.75 0.25 743.395 0.25 683.75 
	L 0.25 35.75 
	C 0.25 -23.898 48.6016 -72.25 108.25 -72.25 
	L 1620.25 -72.25 
	C 1679.9 -72.25 1728.25 -23.898 1728.25 35.75 
	Z 
	"/>
</g>
<g fill="#7f7f7f" fill-rule="nonzero" stroke-width="0" stroke-linejoin="miter" stroke-linecap="butt" stroke-miterlimit="4" >
	<path d="
	M 108.25 764.75 
	C 63.5859 764.75 27.25 728.414 27.25 683.75 
	L 27.25 35.75 
	C 27.25 -8.914 63.5859 -45.25 108.25 -45.25 
	L 1620.25 -45.25 
	C 1664.91 -45.25 1701.25 -8.914 1701.25 35.75 
	L 1701.25 683.75 
	C 1701.25 728.414 1664.91 764.75 1620.25 764.75 
	Z 
	"/>
</g>
<g fill="#95e8ff" fill-rule="nonzero" stroke-width="0" stroke-linejoin="miter" stroke-linecap="butt" stroke-miterlimit="4" >
	<path d="
	M 108.25 719.75 
	C 88.3984 719.75 72.25 703.602 72.25 683.75 
	L 72.25 35.75 
	C 72.25 15.898 88.3984 -0.25 108.25 -0.25 
	L 1620.25 -0.25 
	C 1640.1 -0.25 1656.25 15.898 1656.25 35.75 
	L 1656.25 683.75 
	C 1656.25 703.602 1640.1 719.75 1620.25 719.75 
	Z 
	"/>
</g>
<g fill="#7f7f7f" fill-rule="nonzero" stroke-width="0" stroke-linejoin="miter" stroke-linecap="butt" stroke-miterlimit="4" >
	<path d="
	M 216.828 461.973 
	C 212.859 450.602 206.051 445.484 195.84 445.484 
	L 176.555 445.484 
	L 176.555 562.012 
	L 195.84 562.012 
	C 209.453 562.012 216.828 551.215 219.098 538.707 
	C 220.234 528.477 221.367 517.105 221.367 504.602 
	C 221.367 486.41 219.664 468.793 216.828 461.973 
	Z 
	M 220.801 577.359 
	C 215.129 582.477 207.188 584.75 198.109 584.75 
	L 153.297 584.75 
	L 153.297 422.75 
	L 194.707 422.75 
	C 208.32 422.75 215.129 424.453 220.801 429.004 
	C 230.441 435.82 237.25 448.328 240.086 464.812 
	C 242.355 476.75 244.059 490.961 244.059 503.465 
	C 244.059 540.98 236.684 564.855 220.801 577.359 
	Z 
	"/>
</g>
<g fill="#7f7f7f" fill-rule="nonzero" stroke-width="0" stroke-linejoin="miter" stroke-linecap="butt" stroke-miterlimit="4" >
	<path d="
	M 401.238 584.75 
	L 401.238 422.75 
	L 477.629 422.75 
	L 477.629 445.484 
	L 424.609 445.484 
	L 424.609 486.41 
	L 458.246 486.41 
	L 458.246 508.582 
	L 424.609 508.582 
	L 424.609 562.012 
	L 483.898 562.012 
	L 483.898 584.75 
	Z 
	"/>
</g>
<g fill="#7f7f7f" fill-rule="nonzero" stroke-width="0" stroke-linejoin="miter" stroke-linecap="butt" stroke-miterlimit="4" >
	<path d="
	M 784.273 584.75 
	L 734.355 476.184 
	L 734.355 584.75 
	L 711.098 584.75 
	L 711.098 422.75 
	L 734.355 422.75 
	L 778.602 519.949 
	L 778.602 422.75 
	L 801.859 422.75 
	L 801.859 584.75 
	Z 
	"/>
</g>
<g fill="#7f7f7f" fill-rule="nonzero" stroke-width="0" stroke-linejoin="miter" stroke-linecap="butt" stroke-miterlimit="4" >
	<path d="
	M 341.355 463.105 
	C 337.348 448.895 331.047 442.645 321.313 442.645 
	C 311.008 442.645 304.711 448.895 300.699 462.539 
	C 296.691 475.043 295.547 485.844 295.547 504.031 
	C 295.547 521.652 297.266 531.887 300.699 544.961 
	C 304.711 558.602 311.008 564.855 321.313 564.855 
	C 331.047 564.855 337.348 558.602 341.355 544.961 
	C 345.363 531.887 346.508 522.223 346.508 503.465 
	C 346.508 485.273 344.789 475.043 341.355 463.105 
	Z 
	M 359.676 559.738 
	C 351.66 579.062 339.637 587.594 321.313 587.594 
	C 301.848 587.594 290.395 579.062 282.379 559.738 
	C 275.508 543.82 273.219 528.477 273.219 503.465 
	C 273.219 479.023 275.508 462.539 282.379 447.191 
	C 290.969 427.863 302.418 419.906 321.313 419.906 
	C 340.211 419.906 351.66 427.863 359.676 447.762 
	C 366.547 463.676 368.84 479.023 368.84 503.465 
	C 368.84 528.477 366.547 544.391 359.676 559.738 
	Z 
	"/>
</g>
<g fill="#7f7f7f" fill-rule="nonzero" stroke-width="0" stroke-linejoin="miter" stroke-linecap="butt" stroke-miterlimit="4" >
	<path d="
	M 902.395 463.105 
	C 898.391 448.895 892.09 442.645 882.355 442.645 
	C 872.051 442.645 865.754 448.895 861.742 462.539 
	C 857.734 475.043 856.59 485.844 856.59 504.031 
	C 856.59 521.652 858.309 531.887 861.742 544.961 
	C 865.754 558.602 872.051 564.855 882.355 564.855 
	C 892.09 564.855 898.391 558.602 902.395 544.961 
	C 906.402 531.887 907.551 522.223 907.551 503.465 
	C 907.551 485.273 905.832 475.043 902.395 463.105 
	Z 
	M 920.719 559.738 
	C 912.703 579.062 900.68 587.594 882.355 587.594 
	C 862.891 587.594 851.438 579.062 843.422 559.738 
	C 836.551 543.82 834.262 528.477 834.262 503.465 
	C 834.262 479.023 836.551 462.539 843.422 447.191 
	C 852.012 427.863 863.461 419.906 882.355 419.906 
	C 901.254 419.906 912.703 427.863 920.719 447.762 
	C 927.59 463.676 929.883 479.023 929.883 503.465 
	C 929.883 528.477 927.59 544.391 920.719 559.738 
	Z 
	"/>
</g>
<g fill="#7f7f7f" fill-rule="nonzero" stroke-width="0" stroke-linejoin="miter" stroke-linecap="butt" stroke-miterlimit="4" >
	<path d="
	M 1424.56 463.105 
	C 1420.55 448.895 1414.25 442.645 1404.52 442.645 
	C 1394.21 442.645 1387.91 448.895 1383.91 462.539 
	C 1379.9 475.043 1378.75 485.844 1378.75 504.031 
	C 1378.75 521.652 1380.47 531.887 1383.91 544.961 
	C 1387.91 558.602 1394.21 564.855 1404.52 564.855 
	C 1414.25 564.855 1420.55 558.602 1424.56 544.961 
	C 1428.57 531.887 1429.71 522.223 1429.71 503.465 
	C 1429.71 485.273 1427.99 475.043 1424.56 463.105 
	Z 
	M 1442.88 559.738 
	C 1434.87 579.062 1422.84 587.594 1404.52 587.594 
	C 1385.05 587.594 1373.6 579.062 1365.58 559.738 
	C 1358.71 543.82 1356.42 528.477 1356.42 503.465 
	C 1356.42 479.023 1358.71 462.539 1365.58 447.191 
	C 1374.17 427.863 1385.62 419.906 1404.52 419.906 
	C 1423.41 419.906 1434.87 427.863 1442.88 447.762 
	C 1449.75 463.676 1452.04 479.023 1452.04 503.465 
	C 1452.04 528.477 1449.75 544.391 1442.88 559.738 
	Z 
	"/>
</g>
<g fill="#7f7f7f" fill-rule="nonzero" stroke-width="0" stroke-linejoin="miter" stroke-linecap="butt" stroke-miterlimit="4" >
	<path d="
	M 1531.53 445.484 
	L 1507.7 445.484 
	L 1507.7 491.527 
	L 1531.53 491.527 
	C 1545.14 491.527 1552.51 483.004 1552.51 468.223 
	C 1552.51 454.582 1544 445.484 1531.53 445.484 
	Z 
	M 1532.66 513.695 
	L 1507.7 513.695 
	L 1507.7 584.75 
	L 1484.44 584.75 
	L 1484.44 422.75 
	L 1532.66 422.75 
	C 1558.19 422.75 1575.2 440.937 1575.2 468.223 
	C 1575.2 497.781 1559.89 513.695 1532.66 513.695 
	Z 
	"/>
</g>
<g fill="#7f7f7f" fill-rule="nonzero" stroke-width="0" stroke-linejoin="miter" stroke-linecap="butt" stroke-miterlimit="4" >
	<path d="
	M 549.469 509.937 
	C 542.457 505.395 535.652 500.84 531.309 497.781 
	C 518.246 488.59 511.328 476.184 511.328 461.973 
	C 511.328 438.664 529.598 419.906 553 419.906 
	C 575.832 419.906 593.527 437.527 594.098 461.973 
	L 571.836 461.973 
	C 571.266 450.602 563.273 443.215 553 443.215 
	C 542.152 443.215 533.594 451.172 533.594 461.973 
	C 533.594 469.93 537.016 474.477 549.004 481.297 
	C 580.398 499.484 594.098 517.105 594.098 540.414 
	C 594.098 566.562 574.121 587.594 549.004 587.594 
	C 520.465 587.594 503.34 563.719 503.34 537.004 
	L 526.172 537.004 
	C 526.172 550.645 533.02 564.855 549.004 564.855 
	C 561.563 564.855 571.836 553.484 571.836 540.414 
	C 571.836 530.262 567.641 521.711 549.469 509.937 
	Z 
	"/>
</g>
<g fill="#7f7f7f" fill-rule="nonzero" stroke-width="0" stroke-linejoin="miter" stroke-linecap="butt" stroke-miterlimit="4" >
	<path d="
	M 1195.11 509.937 
	C 1188.1 505.395 1181.3 500.84 1176.95 497.781 
	C 1163.89 488.59 1156.97 476.184 1156.97 461.973 
	C 1156.97 438.664 1175.24 419.906 1198.64 419.906 
	C 1221.47 419.906 1239.17 437.527 1239.74 461.973 
	L 1217.48 461.973 
	C 1216.91 450.602 1208.92 443.215 1198.64 443.215 
	C 1187.8 443.215 1179.23 451.172 1179.23 461.973 
	C 1179.23 469.93 1182.66 474.477 1194.65 481.297 
	C 1226.04 499.484 1239.74 517.105 1239.74 540.414 
	C 1239.74 566.562 1219.76 587.594 1194.65 587.594 
	C 1166.11 587.594 1148.98 563.719 1148.98 537.004 
	L 1171.81 537.004 
	C 1171.81 550.645 1178.66 564.855 1194.65 564.855 
	C 1207.21 564.855 1217.48 553.484 1217.48 540.414 
	C 1217.48 530.262 1213.29 521.711 1195.11 509.937 
	Z 
	"/>
</g>
<g fill="#7f7f7f" fill-rule="nonzero" stroke-width="0" stroke-linejoin="miter" stroke-linecap="butt" stroke-miterlimit="4" >
	<path d="
	M 1002.34 444.352 
	L 1002.34 584.75 
	L 978.965 584.75 
	L 978.965 444.352 
	L 949.32 444.352 
	L 949.32 422.75 
	L 1031.98 422.75 
	L 1031.98 444.352 
	Z 
	"/>
</g>
<g fill="#7f7f7f" fill-rule="nonzero" stroke-width="0" stroke-linejoin="miter" stroke-linecap="butt" stroke-miterlimit="4" >
	<path d="
	M 1307.34 444.352 
	L 1307.34 584.75 
	L 1283.96 584.75 
	L 1283.96 444.352 
	L 1254.32 444.352 
	L 1254.32 422.75 
	L 1336.98 422.75 
	L 1336.98 444.352 
	Z 
	"/>
</g>
<g fill="#7f7f7f" fill-rule="nonzero" stroke-width="0" stroke-linejoin="miter" stroke-linecap="butt" stroke-miterlimit="4" >
	<path d="
	M 333.449 189.887 
	L 324.355 232.52 
	L 341.977 232.52 
	Z 
	M 355.613 296.75 
	L 346.523 253.551 
	L 319.813 253.551 
	L 310.719 296.75 
	L 289.691 296.75 
	L 322.652 134.75 
	L 343.68 134.75 
	L 377.211 296.75 
	Z 
	"/>
</g>
<g fill="#7f7f7f" fill-rule="nonzero" stroke-width="0" stroke-linejoin="miter" stroke-linecap="butt" stroke-miterlimit="4" >
	<path d="
	M 663 280.266 
	C 659.457 292.016 648.719 299.59 634.438 299.59 
	C 617.867 299.59 607.586 292.77 602.441 277.992 
	C 597.871 264.348 595.586 242.18 595.586 216.035 
	C 595.586 201.254 597.301 179.656 599.586 167.148 
	C 604.156 142.141 613.867 132.477 633.293 132.477 
	C 651.574 132.477 663.574 143.844 665.285 163.738 
	L 644.148 163.738 
	C 643.578 156.918 639.578 153.508 633.863 153.508 
	C 626.438 153.508 622.438 158.625 620.152 169.422 
	C 617.297 182.496 616.727 194.434 616.727 216.035 
	C 616.727 238.77 617.297 248.434 620.152 262.074 
	C 622.438 272.875 626.438 278.559 633.293 278.559 
	C 640.719 278.559 644.148 272.875 644.148 258.664 
	L 665.285 258.664 
	C 665.285 271.172 664.715 274.582 663 280.266 
	Z 
	"/>
</g>
<g fill="#7f7f7f" fill-rule="nonzero" stroke-width="0" stroke-linejoin="miter" stroke-linecap="butt" stroke-miterlimit="4" >
	<path d="
	M 414.566 155.781 
	L 414.566 197.277 
	L 438.301 197.277 
	L 438.301 218.875 
	L 414.566 218.875 
	L 414.566 296.75 
	L 394.223 296.75 
	L 394.223 134.75 
	L 455.82 134.75 
	L 455.82 155.781 
	Z 
	"/>
</g>
<g fill="#7f7f7f" fill-rule="nonzero" stroke-width="0" stroke-linejoin="miter" stroke-linecap="butt" stroke-miterlimit="4" >
	<path d="
	M 493.18 155.781 
	L 493.18 197.277 
	L 516.91 197.277 
	L 516.91 218.875 
	L 493.18 218.875 
	L 493.18 296.75 
	L 472.832 296.75 
	L 472.832 134.75 
	L 534.434 134.75 
	L 534.434 155.781 
	Z 
	"/>
</g>
<g fill="#7f7f7f" fill-rule="nonzero" stroke-width="0" stroke-linejoin="miter" stroke-linecap="butt" stroke-miterlimit="4" >
	<path d="
	M 793.633 155.781 
	L 793.633 197.277 
	L 817.367 197.277 
	L 817.367 218.875 
	L 793.633 218.875 
	L 793.633 296.75 
	L 773.285 296.75 
	L 773.285 134.75 
	L 834.887 134.75 
	L 834.887 155.781 
	Z 
	"/>
</g>
<g fill="#7f7f7f" fill-rule="nonzero" stroke-width="0" stroke-linejoin="miter" stroke-linecap="butt" stroke-miterlimit="4" >
	<path d="
	M 1423.16 280.832 
	C 1419.43 292.109 1408.88 299.59 1394.02 299.59 
	C 1377.45 299.59 1367.74 293.34 1362.6 277.992 
	C 1357.46 263.211 1355.74 248.434 1355.74 215.465 
	C 1355.74 183.066 1357.46 168.855 1363.17 153.508 
	C 1368.31 138.73 1378.02 132.477 1394.02 132.477 
	C 1412.3 132.477 1423.16 143.844 1425.44 163.738 
	L 1404.88 163.738 
	C 1403.73 156.918 1400.31 153.508 1394.59 153.508 
	C 1387.17 153.508 1382.02 158.625 1380.31 169.422 
	C 1378.02 182.496 1376.88 193.297 1376.88 215.465 
	C 1376.88 237.633 1378.02 248.434 1379.74 262.074 
	C 1382.02 272.875 1386.02 278.559 1393.45 278.559 
	C 1400.88 278.559 1404.88 271.738 1404.88 260.937 
	L 1404.88 239.34 
	L 1395.16 239.34 
	L 1395.16 218.309 
	L 1425.44 218.309 
	L 1425.44 259.801 
	C 1425.44 267.191 1424.8 275.871 1423.16 280.832 
	Z 
	"/>
</g>
<g fill="#7f7f7f" fill-rule="nonzero" stroke-width="0" stroke-linejoin="miter" stroke-linecap="butt" stroke-miterlimit="4" >
	<path d="
	M 1497.83 296.75 
	L 1497.83 221.148 
	L 1468.93 221.148 
	L 1468.93 296.75 
	L 1448.53 296.75 
	L 1448.53 134.75 
	L 1468.93 134.75 
	L 1468.93 200.117 
	L 1497.83 200.117 
	L 1497.83 134.75 
	L 1518.23 134.75 
	L 1518.23 296.75 
	Z 
	"/>
</g>
<g fill="#7f7f7f" fill-rule="nonzero" stroke-width="0" stroke-linejoin="miter" stroke-linecap="butt" stroke-miterlimit="4" >
	<path d="
	M 551.441 296.75 
	L 551.441 134.75 
	L 572.504 134.75 
	L 572.504 296.75 
	Z 
	"/>
</g>
<g fill="#7f7f7f" fill-rule="nonzero" stroke-width="0" stroke-linejoin="miter" stroke-linecap="butt" stroke-miterlimit="4" >
	<path d="
	M 1311.6 296.75 
	L 1311.6 134.75 
	L 1332.66 134.75 
	L 1332.66 296.75 
	Z 
	"/>
</g>
<g fill="#7f7f7f" fill-rule="nonzero" stroke-width="0" stroke-linejoin="miter" stroke-linecap="butt" stroke-miterlimit="4" >
	<path d="
	M 1094 296.75 
	L 1094 200.687 
	L 1075.24 261.508 
	L 1055.49 200.687 
	L 1055.49 296.75 
	L 1035.04 296.75 
	L 1035.04 134.75 
	L 1055.49 134.75 
	L 1075.24 192.16 
	L 1094 134.75 
	L 1114.46 134.75 
	L 1114.46 296.75 
	Z 
	"/>
</g>
<g fill="#7f7f7f" fill-rule="nonzero" stroke-width="0" stroke-linejoin="miter" stroke-linecap="butt" stroke-miterlimit="4" >
	<path d="
	M 974.684 153.508 
	C 955.926 153.508 958.48 204.098 958.48 215.465 
	C 958.48 226.266 955.926 278.562 974.684 278.562 
	C 992.875 278.562 990.316 226.266 990.316 215.465 
	C 990.316 202.391 990.031 153.508 974.684 153.508 
	Z 
	M 974.684 299.594 
	C 934.324 299.594 937.449 242.184 937.449 215.465 
	C 937.449 187.613 934.895 132.477 974.684 132.477 
	C 1014.47 132.477 1011.92 188.184 1011.92 215.465 
	C 1011.92 242.184 1014.47 299.594 974.684 299.594 
	Z 
	"/>
</g>
<g fill="#7f7f7f" fill-rule="nonzero" stroke-width="0" stroke-linejoin="miter" stroke-linecap="butt" stroke-miterlimit="4" >
	<path d="
	M 240.715 155.781 
	L 230.754 155.781 
	L 230.754 200.117 
	L 244.125 200.117 
	C 255.504 200.117 258.918 195.004 258.918 179.656 
	C 258.918 161.465 254.938 155.781 240.715 155.781 
	Z 
	M 262.902 216.035 
	L 279.402 296.75 
	L 258.352 296.75 
	L 240.145 221.148 
	L 230.754 221.148 
	L 230.754 296.75 
	L 210.27 296.75 
	L 210.27 134.75 
	L 241.852 134.75 
	C 266.887 134.75 279.973 150.098 279.973 180.223 
	C 279.973 198.414 274.852 208.645 262.902 216.035 
	Z 
	"/>
</g>
<g fill="#7f7f7f" fill-rule="nonzero" stroke-width="0" stroke-linejoin="miter" stroke-linecap="butt" stroke-miterlimit="4" >
	<path d="
	M 882.34 155.781 
	L 872.379 155.781 
	L 872.379 200.117 
	L 885.754 200.117 
	C 897.133 200.117 900.547 195.004 900.547 179.656 
	C 900.547 161.465 896.563 155.781 882.34 155.781 
	Z 
	M 904.527 216.035 
	L 921.027 296.75 
	L 899.977 296.75 
	L 881.77 221.148 
	L 872.379 221.148 
	L 872.379 296.75 
	L 851.895 296.75 
	L 851.895 134.75 
	L 883.477 134.75 
	C 908.512 134.75 921.598 150.098 921.598 180.223 
	C 921.598 198.414 916.477 208.645 904.527 216.035 
	Z 
	"/>
</g>
<g fill="#7f7f7f" fill-rule="nonzero" stroke-width="0" stroke-linejoin="miter" stroke-linecap="butt" stroke-miterlimit="4" >
	<path d="
	M 1252.9 155.781 
	L 1242.94 155.781 
	L 1242.94 200.117 
	L 1256.31 200.117 
	C 1267.69 200.117 1271.11 195.004 1271.11 179.656 
	C 1271.11 161.465 1267.12 155.781 1252.9 155.781 
	Z 
	M 1275.09 216.035 
	L 1291.59 296.75 
	L 1270.54 296.75 
	L 1252.33 221.148 
	L 1242.94 221.148 
	L 1242.94 296.75 
	L 1222.46 296.75 
	L 1222.46 134.75 
	L 1254.04 134.75 
	C 1279.07 134.75 1292.16 150.098 1292.16 180.223 
	C 1292.16 198.414 1287.04 208.645 1275.09 216.035 
	Z 
	"/>
</g>
<g fill="#7f7f7f" fill-rule="nonzero" stroke-width="0" stroke-linejoin="miter" stroke-linecap="butt" stroke-miterlimit="4" >
	<path d="
	M 172.109 155.781 
	L 172.109 296.75 
	L 151.672 296.75 
	L 151.672 155.781 
	L 131.66 155.781 
	L 131.66 134.75 
	L 193.262 134.75 
	L 193.262 155.781 
	Z 
	"/>
</g>
<g fill="#7f7f7f" fill-rule="nonzero" stroke-width="0" stroke-linejoin="miter" stroke-linecap="butt" stroke-miterlimit="4" >
	<path d="
	M 1575.69 155.781 
	L 1575.69 296.75 
	L 1555.25 296.75 
	L 1555.25 155.781 
	L 1535.24 155.781 
	L 1535.24 134.75 
	L 1596.84 134.75 
	L 1596.84 155.781 
	Z 
	"/>
</g>
</g >
</g>
</svg>
