<?xml version="1.0" encoding="UTF-8" standalone="no"?>
<!-- Created with Inkscape (http://www.inkscape.org/) -->

<svg
   version="1.1"
   id="svg1"
   width="4608.6665"
   height="2304.6667"
   viewBox="0 0 4608.6665 2304.6667"
   sodipodi:docname="tmp816y2csl.pdf"
   xmlns:inkscape="http://www.inkscape.org/namespaces/inkscape"
   xmlns:sodipodi="http://sodipodi.sourceforge.net/DTD/sodipodi-0.dtd"
   xmlns="http://www.w3.org/2000/svg"
   xmlns:svg="http://www.w3.org/2000/svg">
  <defs
     id="defs1" />
  <sodipodi:namedview
     id="namedview1"
     pagecolor="#ffffff"
     bordercolor="#000000"
     borderopacity="0.25"
     inkscape:showpageshadow="2"
     inkscape:pageopacity="0.0"
     inkscape:pagecheckerboard="0"
     inkscape:deskcolor="#d1d1d1">
    <inkscape:page
       x="0"
       y="0"
       inkscape:label="1"
       id="page1"
       width="4608.6665"
       height="2304.6667"
       margin="0"
       bleed="0" />
  </sodipodi:namedview>
  <g
     id="g1"
     inkscape:groupmode="layer"
     inkscape:label="1">
    <g
       id="group-R5">
      <path
         id="path2"
         d="m 34562.5,1352.5 c 0,-745.602 -604.4,-1350 -1350,-1350 H 1352.5 C 606.914,2.5 2.5,606.898 2.5,1352.5 v 14580 c 0,745.6 604.414,1350 1350,1350 h 31860 c 745.6,0 1350,-604.4 1350,-1350 v -14580"
         style="fill:#fccc2d;fill-opacity:1;fill-rule:nonzero;stroke:none"
         transform="matrix(0.13333333,0,0,-0.13333333,0,2304.6667)" />
      <path
         id="path3"
         d="m 34562.5,1352.5 c 0,-745.602 -604.4,-1350 -1350,-1350 H 1352.5 C 606.914,2.5 2.5,606.898 2.5,1352.5 v 14580 c 0,745.6 604.414,1350 1350,1350 h 31860 c 745.6,0 1350,-604.4 1350,-1350 z"
         style="fill:none;stroke:#231f20;stroke-width:5;stroke-linecap:butt;stroke-linejoin:miter;stroke-miterlimit:4;stroke-dasharray:none;stroke-opacity:1"
         transform="matrix(0.13333333,0,0,-0.13333333,0,2304.6667)" />
      <path
         id="path4"
         d="m 1352.5,452.5 c -496.262,0 -900,403.699 -900,900 v 14580 c 0,496.3 403.738,900 900,900 h 31860 c 496.3,0 900,-403.7 900,-900 v -14580 c 0,-496.301 -403.7,-900 -900,-900 h -31860"
         style="fill:#231f20;fill-opacity:1;fill-rule:nonzero;stroke:none"
         transform="matrix(0.13333333,0,0,-0.13333333,0,2304.6667)" />
      <path
         id="path5"
         d="m 1352.5,992.5 c -198.51,0 -360,161.5 -360,360 v 14580 c 0,198.5 161.49,360 360,360 h 31860 c 198.5,0 360,-161.5 360,-360 v -14580 c 0,-198.5 -161.5,-360 -360,-360 h -31860"
         style="fill:#fccc2d;fill-opacity:1;fill-rule:nonzero;stroke:none"
         transform="matrix(0.13333333,0,0,-0.13333333,0,2304.6667)" />
      <path
         id="path6"
         d="M 16716.6,12721.9 V 11892 h 474.7 v -432 h -474.7 V 9902.49 h -406.9 v 3240.01 h 1232 v -420.6 h -825.1"
         style="fill:#231f20;fill-opacity:1;fill-rule:nonzero;stroke:none"
         transform="matrix(0.13333333,0,0,-0.13333333,0,2304.6667)" />
      <path
         id="path7"
         d="m 23096.6,9902.49 v 1921.31 l -375.2,-1216.5 -394.9,1216.5 V 9902.49 h -409.2 v 3240.01 h 409.2 l 394.9,-1148.2 375.2,1148.2 h 409.1 V 9902.49 h -409.1"
         style="fill:#231f20;fill-opacity:1;fill-rule:nonzero;stroke:none"
         transform="matrix(0.13333333,0,0,-0.13333333,0,2304.6667)" />
      <path
         id="path8"
         d="m 20556.4,12767.3 c -375.2,0 -324.1,-1011.7 -324.1,-1239.1 0,-216 -51.1,-1261.9 324.1,-1261.9 363.8,0 312.7,1045.9 312.7,1261.9 0,261.5 -5.8,1239.1 -312.7,1239.1 z m 0,-2921.65 c -807.2,0 -744.7,1148.25 -744.7,1682.55 0,557 -51.1,1659.8 744.7,1659.8 795.8,0 744.7,-1114.1 744.7,-1659.8 0,-534.3 51.1,-1682.55 -744.7,-1682.55"
         style="fill:#231f20;fill-opacity:1;fill-rule:nonzero;stroke:none"
         transform="matrix(0.13333333,0,0,-0.13333333,0,2304.6667)" />
      <path
         id="path9"
         d="M 18604.1,12721.9 H 18405 v -886.8 h 267.4 c 227.6,0 295.9,102.3 295.9,409.3 0,363.8 -79.7,477.5 -364.2,477.5 z m 443.8,-1205.1 330,-1614.31 h -421 l -364.1,1512.01 H 18405 V 9902.49 h -409.7 v 3240.01 h 631.6 c 500.7,0 762.4,-306.9 762.4,-909.5 0,-363.8 -102.4,-568.4 -341.4,-716.2"
         style="fill:#231f20;fill-opacity:1;fill-rule:nonzero;stroke:none"
         transform="matrix(0.13333333,0,0,-0.13333333,0,2304.6667)" />
      <path
         id="path10"
         d="m 7018.85,12039.8 -181.86,-852.7 h 352.37 z m 443.29,-2137.31 -181.87,864.01 h -534.21 l -181.85,-864.01 h -420.56 l 659.24,3240.01 h 420.56 l 670.61,-3240.01 h -431.92"
         style="fill:#231f20;fill-opacity:1;fill-rule:nonzero;stroke:none"
         transform="matrix(0.13333333,0,0,-0.13333333,0,2304.6667)" />
      <path
         id="path11"
         d="m 14104,10232.2 c -70.9,-235.04 -285.7,-386.55 -571.3,-386.55 -331.4,0 -537.1,136.43 -639.9,432.05 -91.4,272.8 -137.1,716.2 -137.1,1239.1 0,295.6 34.3,727.6 80,977.7 91.4,500.2 285.6,693.5 674.1,693.5 365.7,0 605.6,-227.4 639.9,-625.3 h -422.8 c -11.4,136.4 -91.4,204.7 -205.6,204.7 -148.6,0 -228.6,-102.4 -274.3,-318.4 -57.1,-261.4 -68.6,-500.2 -68.6,-932.2 0,-454.7 11.5,-648 68.6,-920.8 45.7,-216 125.7,-329.7 262.8,-329.7 148.6,0 217.1,113.7 217.1,397.9 h 422.8 c 0,-250.1 -11.4,-318.3 -45.7,-432"
         style="fill:#231f20;fill-opacity:1;fill-rule:nonzero;stroke:none"
         transform="matrix(0.13333333,0,0,-0.13333333,0,2304.6667)" />
      <path
         id="path12"
         d="M 8754.57,12721.9 V 11892 h 474.72 v -432 H 8754.57 V 9902.49 h -406.9 v 3240.01 h 1232.01 v -420.6 h -825.11"
         style="fill:#231f20;fill-opacity:1;fill-rule:nonzero;stroke:none"
         transform="matrix(0.13333333,0,0,-0.13333333,0,2304.6667)" />
      <path
         id="path13"
         d="M 10440.2,12721.9 V 11892 h 474.7 v -432 h -474.7 V 9902.49 h -406.9 v 3240.01 h 1232 v -420.6 h -825.1"
         style="fill:#231f20;fill-opacity:1;fill-rule:nonzero;stroke:none"
         transform="matrix(0.13333333,0,0,-0.13333333,0,2304.6667)" />
      <path
         id="path14"
         d="m 11718.9,9902.49 v 3240.01 h 421.2 V 9902.49 h -421.2"
         style="fill:#231f20;fill-opacity:1;fill-rule:nonzero;stroke:none"
         transform="matrix(0.13333333,0,0,-0.13333333,0,2304.6667)" />
      <path
         id="path15"
         d="m 5099.28,12721.9 h -199.2 v -886.8 h 267.47 c 227.59,0 295.86,102.3 295.86,409.3 0,363.8 -79.66,477.5 -364.13,477.5 z m 443.79,-1205.1 329.99,-1614.31 H 5452.03 L 5087.89,11414.5 H 4900.08 V 9902.49 h -409.65 v 3240.01 h 631.6 c 500.68,0 762.4,-306.9 762.4,-909.5 0,-363.8 -102.4,-568.4 -341.36,-716.2"
         style="fill:#231f20;fill-opacity:1;fill-rule:nonzero;stroke:none"
         transform="matrix(0.13333333,0,0,-0.13333333,0,2304.6667)" />
      <path
         id="path16"
         d="M 3613.86,12721.9 V 9902.49 h -408.8 V 12721.9 H 2804.8 v 420.6 h 1232.03 v -420.6 h -422.97"
         style="fill:#231f20;fill-opacity:1;fill-rule:nonzero;stroke:none"
         transform="matrix(0.13333333,0,0,-0.13333333,0,2304.6667)" />
      <path
         id="path17"
         d="m 27351.4,9902.49 v 3240.01 h 1186.8 v -420.6 h -779.9 V 11892 h 519.9 v -432 h -519.9 v -1136.9 h 825.1 v -420.61 h -1232"
         style="fill:#231f20;fill-opacity:1;fill-rule:nonzero;stroke:none"
         transform="matrix(0.13333333,0,0,-0.13333333,0,2304.6667)" />
      <path
         id="path18"
         d="M 29508.7,12721.9 V 11892 h 474.7 v -432 h -474.7 V 9902.49 h -406.9 v 3240.01 h 1232 v -420.6 h -825.1"
         style="fill:#231f20;fill-opacity:1;fill-rule:nonzero;stroke:none"
         transform="matrix(0.13333333,0,0,-0.13333333,0,2304.6667)" />
      <path
         id="path19"
         d="m 25665.7,9902.49 v 3240.01 h 407 v -2864.8 h 825.1 v -375.21 h -1232.1"
         style="fill:#231f20;fill-opacity:1;fill-rule:nonzero;stroke:none"
         transform="matrix(0.13333333,0,0,-0.13333333,0,2304.6667)" />
      <path
         id="path20"
         d="M 31337.2,12721.9 V 9902.49 h -408.8 v 2819.41 h -400.2 v 420.6 h 1232 v -420.6 h -423"
         style="fill:#231f20;fill-opacity:1;fill-rule:nonzero;stroke:none"
         transform="matrix(0.13333333,0,0,-0.13333333,0,2304.6667)" />
      <path
         id="path21"
         d="m 4334.08,6598.1 c -79.4,227.4 -215.54,329.7 -419.75,329.7 H 3528.59 V 4597.3 h 385.74 c 272.27,0 419.75,215.9 465.14,466.1 22.69,204.6 45.37,432 45.37,682.1 0,363.8 -34.03,716.2 -90.76,852.6 z M 4413.5,4290.3 C 4300.06,4188 4141.22,4142.5 3959.71,4142.5 h -896.27 v 3240 h 828.19 c 272.29,0 408.43,-34.08 521.87,-125 192.87,-136.4 329.01,-386.6 385.74,-716.3 45.38,-238.7 79.41,-522.9 79.41,-773 0,-750.3 -147.49,-1227.8 -465.15,-1477.9"
         style="fill:#231f20;fill-opacity:1;fill-rule:nonzero;stroke:none"
         transform="matrix(0.13333333,0,0,-0.13333333,0,2304.6667)" />
      <path
         id="path22"
         d="m 8022.26,4142.5 v 3240 H 9550.05 V 6927.8 H 8489.72 v -818.5 h 672.69 V 5665.9 H 8489.72 V 4597.3 H 9675.47 V 4142.5 H 8022.26"
         style="fill:#231f20;fill-opacity:1;fill-rule:nonzero;stroke:none"
         transform="matrix(0.13333333,0,0,-0.13333333,0,2304.6667)" />
      <path
         id="path23"
         d="m 15683,4142.5 -998.4,2171.4 V 4142.5 h -465.1 v 3240.02 h 465.1 l 884.9,-1944.02 v 1944.02 h 465.2 V 4142.5 H 15683"
         style="fill:#231f20;fill-opacity:1;fill-rule:nonzero;stroke:none"
         transform="matrix(0.13333333,0,0,-0.13333333,0,2304.6667)" />
      <path
         id="path24"
         d="m 6824.57,6575.4 c -80.16,284.2 -206.11,409.2 -400.78,409.2 -206.13,0 -332.11,-125 -412.27,-397.9 -80.16,-250.1 -103.05,-466.1 -103.05,-829.9 0,-352.4 34.34,-557 103.05,-818.5 80.16,-272.8 206.14,-397.9 412.27,-397.9 194.67,0 320.62,125.1 400.78,397.9 80.18,261.5 103.09,454.7 103.09,829.9 0,363.8 -34.38,568.4 -103.09,807.2 z m 366.45,-1932.7 c -160.32,-386.5 -400.79,-557 -767.23,-557 -389.37,0 -618.39,170.5 -778.71,557 -137.43,318.4 -183.23,625.3 -183.23,1125.5 0,488.9 45.8,818.5 183.23,1125.5 171.77,386.5 400.8,545.67 778.71,545.67 377.89,0 606.91,-159.17 767.23,-557.07 137.44,-318.3 183.24,-625.2 183.24,-1114.1 0,-500.2 -45.8,-818.5 -183.24,-1125.5"
         style="fill:#231f20;fill-opacity:1;fill-rule:nonzero;stroke:none"
         transform="matrix(0.13333333,0,0,-0.13333333,0,2304.6667)" />
      <path
         id="path25"
         d="m 18045.4,6575.4 c -80.1,284.2 -206.1,409.2 -400.8,409.2 -206.1,0 -332.1,-125 -412.2,-397.9 -80.2,-250.1 -103.1,-466.1 -103.1,-829.9 0,-352.4 34.4,-557 103.1,-818.5 80.1,-272.8 206.1,-397.9 412.2,-397.9 194.7,0 320.7,125.1 400.8,397.9 80.2,261.5 103.1,454.7 103.1,829.9 0,363.8 -34.4,568.4 -103.1,807.2 z m 366.5,-1932.7 c -160.3,-386.5 -400.8,-557 -767.3,-557 -389.3,0 -618.3,170.5 -778.7,557 -137.4,318.4 -183.2,625.3 -183.2,1125.5 0,488.9 45.8,818.5 183.2,1125.5 171.8,386.5 400.8,545.67 778.7,545.67 377.9,0 607,-159.17 767.3,-557.07 137.4,-318.3 183.2,-625.2 183.2,-1114.1 0,-500.2 -45.8,-818.5 -183.2,-1125.5"
         style="fill:#231f20;fill-opacity:1;fill-rule:nonzero;stroke:none"
         transform="matrix(0.13333333,0,0,-0.13333333,0,2304.6667)" />
      <path
         id="path26"
         d="m 28488.7,6575.4 c -80.2,284.2 -206.2,409.2 -400.8,409.2 -206.1,0 -332.1,-125 -412.3,-397.9 -80.1,-250.1 -103,-466.1 -103,-829.9 0,-352.4 34.3,-557 103,-818.5 80.2,-272.8 206.2,-397.9 412.3,-397.9 194.6,0 320.6,125.1 400.8,397.9 80.1,261.5 103.1,454.7 103.1,829.9 0,363.8 -34.4,568.4 -103.1,807.2 z m 366.4,-1932.7 c -160.3,-386.5 -400.8,-557 -767.2,-557 -389.4,0 -618.4,170.5 -778.7,557 -137.4,318.4 -183.3,625.3 -183.3,1125.5 0,488.9 45.9,818.5 183.3,1125.5 171.7,386.5 400.8,545.67 778.7,545.67 377.9,0 606.9,-159.17 767.2,-557.07 137.4,-318.3 183.3,-625.2 183.3,-1114.1 0,-500.2 -45.9,-818.5 -183.3,-1125.5"
         style="fill:#231f20;fill-opacity:1;fill-rule:nonzero;stroke:none"
         transform="matrix(0.13333333,0,0,-0.13333333,0,2304.6667)" />
      <path
         id="path27"
         d="m 30628,6927.8 h -476.5 v -920.9 h 476.5 c 272.3,0 419.8,170.6 419.8,466.1 0,272.9 -170.2,454.8 -419.8,454.8 z m 22.7,-1364.2 h -499.2 V 4142.5 h -465.1 v 3240 h 964.3 c 510.5,0 850.9,-363.8 850.9,-909.5 0,-591.1 -306.4,-909.4 -850.9,-909.4"
         style="fill:#231f20;fill-opacity:1;fill-rule:nonzero;stroke:none"
         transform="matrix(0.13333333,0,0,-0.13333333,0,2304.6667)" />
      <path
         id="path28"
         d="m 10986.8,5638.8 c -140.1,90.8 -276.2,181.9 -363.1,243.1 -261.2,183.8 -399.6,432 -399.6,716.2 0,466.1 365.3,841.26 833.4,841.26 456.7,0 810.6,-352.46 822,-841.26 h -445.3 c -11.4,227.4 -171.2,375.1 -376.7,375.1 -216.9,0 -388.2,-159.1 -388.2,-375.1 0,-159.2 68.5,-250.1 308.3,-386.5 627.9,-363.8 901.9,-716.2 901.9,-1182.4 0,-522.9 -399.6,-943.5 -901.9,-943.5 -570.8,0 -913.3,477.4 -913.3,1011.8 h 456.6 c 0,-272.9 137,-557.1 456.7,-557.1 251.1,0 456.6,227.4 456.6,488.8 0,203.1 -83.9,374.1 -447.4,609.6"
         style="fill:#231f20;fill-opacity:1;fill-rule:nonzero;stroke:none"
         transform="matrix(0.13333333,0,0,-0.13333333,0,2304.6667)" />
      <path
         id="path29"
         d="m 23899.7,5638.8 c -140.2,90.8 -276.3,181.9 -363.2,243.1 -261.2,183.8 -399.5,432 -399.5,716.2 0,466.1 365.3,841.26 833.4,841.26 456.6,0 810.5,-352.46 821.9,-841.26 h -445.2 c -11.4,227.4 -171.2,375.1 -376.7,375.1 -217,0 -388.2,-159.1 -388.2,-375.1 0,-159.2 68.5,-250.1 308.2,-386.5 627.9,-363.8 901.9,-716.2 901.9,-1182.4 0,-522.9 -399.5,-943.5 -901.9,-943.5 -570.8,0 -913.3,477.4 -913.3,1011.8 h 456.7 c 0,-272.9 137,-557.1 456.6,-557.1 251.2,0 456.7,227.4 456.7,488.8 0,203.1 -83.9,374.1 -447.4,609.6"
         style="fill:#231f20;fill-opacity:1;fill-rule:nonzero;stroke:none"
         transform="matrix(0.13333333,0,0,-0.13333333,0,2304.6667)" />
      <path
         id="path30"
         d="m 20044.3,6950.5 v -2808 h -467.5 v 2808 h -592.9 v 432.02 h 1653.2 V 6950.5 h -592.8"
         style="fill:#231f20;fill-opacity:1;fill-rule:nonzero;stroke:none"
         transform="matrix(0.13333333,0,0,-0.13333333,0,2304.6667)" />
      <path
         id="path31"
         d="m 26144.3,6950.5 v -2808 h -467.5 v 2808 h -592.9 v 432.02 h 1653.2 V 6950.5 h -592.8"
         style="fill:#231f20;fill-opacity:1;fill-rule:nonzero;stroke:none"
         transform="matrix(0.13333333,0,0,-0.13333333,0,2304.6667)" />
    </g>
  </g>
</svg>
