<?xml version="1.0" standalone="no"?>
<svg width="1728px" height="864px" viewBox="0 -72 1728 864 " xmlns="http://www.w3.org/2000/svg" xmlns:xlink="http://www.w3.org/1999/xlink">
<title>generated by pstoedit</title>
<!-- generated by pstoedit version:4.02 -->
<g xml:space='preserve'>
<clipPath id="clippath1"> 	<path d="
	M 0 -72.5 
	L 0 792 
	L 1728.5 792 
	L 1728.5 -72.5 
	Z 
	" style="clip-rule:nonzero"/>
</clipPath>
<g style="clip-path:url(#clippath1)"> 
<g fill="#95e8ff" fill-rule="nonzero" stroke-width="0" stroke-linejoin="miter" stroke-linecap="butt" stroke-miterlimit="10" >
	<path d="
	M 1728.25 683.75 
	C 1728.25 743.395 1679.9 791.75 1620.25 791.75 
	L 108.25 791.75 
	C 48.6016 791.75 0.25 743.395 0.25 683.75 
	L 0.25 35.75 
	C 0.25 -23.898 48.6016 -72.25 108.25 -72.25 
	L 1620.25 -72.25 
	C 1679.9 -72.25 1728.25 -23.898 1728.25 35.75 
	Z 
	"/>
</g>
<g stroke="#7f7f7f" fill="none" stroke-width="0.5" stroke-linejoin="miter" stroke-linecap="butt" stroke-miterlimit="4" >
	<path d="
	M 1728.25 683.75 
	C 1728.25 743.395 1679.9 791.75 1620.25 791.75 
	L 108.25 791.75 
	C 48.6016 791.75 0.25 743.395 0.25 683.75 
	L 0.25 35.75 
	C 0.25 -23.898 48.6016 -72.25 108.25 -72.25 
	L 1620.25 -72.25 
	C 1679.9 -72.25 1728.25 -23.898 1728.25 35.75 
	Z 
	"/>
</g>
<g fill="#7f7f7f" fill-rule="nonzero" stroke-width="0" stroke-linejoin="miter" stroke-linecap="butt" stroke-miterlimit="4" >
	<path d="
	M 108.25 764.75 
	C 63.5859 764.75 27.25 728.414 27.25 683.75 
	L 27.25 35.75 
	C 27.25 -8.914 63.5859 -45.25 108.25 -45.25 
	L 1620.25 -45.25 
	C 1664.91 -45.25 1701.25 -8.914 1701.25 35.75 
	L 1701.25 683.75 
	C 1701.25 728.414 1664.91 764.75 1620.25 764.75 
	Z 
	"/>
</g>
<g fill="#95e8ff" fill-rule="nonzero" stroke-width="0" stroke-linejoin="miter" stroke-linecap="butt" stroke-miterlimit="4" >
	<path d="
	M 108.25 719.75 
	C 88.3984 719.75 72.25 703.602 72.25 683.75 
	L 72.25 35.75 
	C 72.25 15.898 88.3984 -0.25 108.25 -0.25 
	L 1620.25 -0.25 
	C 1640.1 -0.25 1656.25 15.898 1656.25 35.75 
	L 1656.25 683.75 
	C 1656.25 703.602 1640.1 719.75 1620.25 719.75 
	Z 
	"/>
</g>
<g fill="#7f7f7f" fill-rule="nonzero" stroke-width="0" stroke-linejoin="miter" stroke-linecap="butt" stroke-miterlimit="4" >
	<path d="
	M 216.828 461.973 
	C 212.859 450.602 206.051 445.484 195.84 445.484 
	L 176.555 445.484 
	L 176.555 562.012 
	L 195.84 562.012 
	C 209.453 562.012 216.828 551.215 219.098 538.707 
	C 220.234 528.477 221.367 517.105 221.367 504.602 
	C 221.367 486.41 219.664 468.793 216.828 461.973 
	Z 
	M 220.801 577.359 
	C 215.129 582.477 207.188 584.75 198.109 584.75 
	L 153.297 584.75 
	L 153.297 422.75 
	L 194.707 422.75 
	C 208.32 422.75 215.129 424.453 220.801 429.004 
	C 230.441 435.82 237.25 448.328 240.086 464.812 
	C 242.355 476.75 244.059 490.961 244.059 503.465 
	C 244.059 540.98 236.684 564.855 220.801 577.359 
	Z 
	"/>
</g>
<g fill="#7f7f7f" fill-rule="nonzero" stroke-width="0" stroke-linejoin="miter" stroke-linecap="butt" stroke-miterlimit="4" >
	<path d="
	M 401.238 584.75 
	L 401.238 422.75 
	L 477.629 422.75 
	L 477.629 445.484 
	L 424.609 445.484 
	L 424.609 486.41 
	L 458.246 486.41 
	L 458.246 508.582 
	L 424.609 508.582 
	L 424.609 562.012 
	L 483.898 562.012 
	L 483.898 584.75 
	Z 
	"/>
</g>
<g fill="#7f7f7f" fill-rule="nonzero" stroke-width="0" stroke-linejoin="miter" stroke-linecap="butt" stroke-miterlimit="4" >
	<path d="
	M 784.273 584.75 
	L 734.355 476.184 
	L 734.355 584.75 
	L 711.098 584.75 
	L 711.098 422.75 
	L 734.355 422.75 
	L 778.602 519.949 
	L 778.602 422.75 
	L 801.859 422.75 
	L 801.859 584.75 
	Z 
	"/>
</g>
<g fill="#7f7f7f" fill-rule="nonzero" stroke-width="0" stroke-linejoin="miter" stroke-linecap="butt" stroke-miterlimit="4" >
	<path d="
	M 341.355 463.105 
	C 337.348 448.895 331.047 442.645 321.313 442.645 
	C 311.008 442.645 304.711 448.895 300.699 462.539 
	C 296.691 475.043 295.547 485.844 295.547 504.031 
	C 295.547 521.652 297.266 531.887 300.699 544.961 
	C 304.711 558.602 311.008 564.855 321.313 564.855 
	C 331.047 564.855 337.348 558.602 341.355 544.961 
	C 345.363 531.887 346.508 522.223 346.508 503.465 
	C 346.508 485.273 344.789 475.043 341.355 463.105 
	Z 
	M 359.676 559.738 
	C 351.66 579.062 339.637 587.594 321.313 587.594 
	C 301.848 587.594 290.395 579.062 282.379 559.738 
	C 275.508 543.82 273.219 528.477 273.219 503.465 
	C 273.219 479.023 275.508 462.539 282.379 447.191 
	C 290.969 427.863 302.418 419.906 321.313 419.906 
	C 340.211 419.906 351.66 427.863 359.676 447.762 
	C 366.547 463.676 368.84 479.023 368.84 503.465 
	C 368.84 528.477 366.547 544.391 359.676 559.738 
	Z 
	"/>
</g>
<g fill="#7f7f7f" fill-rule="nonzero" stroke-width="0" stroke-linejoin="miter" stroke-linecap="butt" stroke-miterlimit="4" >
	<path d="
	M 902.395 463.105 
	C 898.391 448.895 892.09 442.645 882.355 442.645 
	C 872.051 442.645 865.754 448.895 861.742 462.539 
	C 857.734 475.043 856.59 485.844 856.59 504.031 
	C 856.59 521.652 858.309 531.887 861.742 544.961 
	C 865.754 558.602 872.051 564.855 882.355 564.855 
	C 892.09 564.855 898.391 558.602 902.395 544.961 
	C 906.402 531.887 907.551 522.223 907.551 503.465 
	C 907.551 485.273 905.832 475.043 902.395 463.105 
	Z 
	M 920.719 559.738 
	C 912.703 579.062 900.68 587.594 882.355 587.594 
	C 862.891 587.594 851.438 579.062 843.422 559.738 
	C 836.551 543.82 834.262 528.477 834.262 503.465 
	C 834.262 479.023 836.551 462.539 843.422 447.191 
	C 852.012 427.863 863.461 419.906 882.355 419.906 
	C 901.254 419.906 912.703 427.863 920.719 447.762 
	C 927.59 463.676 929.883 479.023 929.883 503.465 
	C 929.883 528.477 927.59 544.391 920.719 559.738 
	Z 
	"/>
</g>
<g fill="#7f7f7f" fill-rule="nonzero" stroke-width="0" stroke-linejoin="miter" stroke-linecap="butt" stroke-miterlimit="4" >
	<path d="
	M 1424.56 463.105 
	C 1420.55 448.895 1414.25 442.645 1404.52 442.645 
	C 1394.21 442.645 1387.91 448.895 1383.91 462.539 
	C 1379.9 475.043 1378.75 485.844 1378.75 504.031 
	C 1378.75 521.652 1380.47 531.887 1383.91 544.961 
	C 1387.91 558.602 1394.21 564.855 1404.52 564.855 
	C 1414.25 564.855 1420.55 558.602 1424.56 544.961 
	C 1428.57 531.887 1429.71 522.223 1429.71 503.465 
	C 1429.71 485.273 1427.99 475.043 1424.56 463.105 
	Z 
	M 1442.88 559.738 
	C 1434.87 579.062 1422.84 587.594 1404.52 587.594 
	C 1385.05 587.594 1373.6 579.062 1365.58 559.738 
	C 1358.71 543.82 1356.42 528.477 1356.42 503.465 
	C 1356.42 479.023 1358.71 462.539 1365.58 447.191 
	C 1374.17 427.863 1385.62 419.906 1404.52 419.906 
	C 1423.41 419.906 1434.87 427.863 1442.88 447.762 
	C 1449.75 463.676 1452.04 479.023 1452.04 503.465 
	C 1452.04 528.477 1449.75 544.391 1442.88 559.738 
	Z 
	"/>
</g>
<g fill="#7f7f7f" fill-rule="nonzero" stroke-width="0" stroke-linejoin="miter" stroke-linecap="butt" stroke-miterlimit="4" >
	<path d="
	M 1531.53 445.484 
	L 1507.7 445.484 
	L 1507.7 491.527 
	L 1531.53 491.527 
	C 1545.14 491.527 1552.51 483.004 1552.51 468.223 
	C 1552.51 454.582 1544 445.484 1531.53 445.484 
	Z 
	M 1532.66 513.695 
	L 1507.7 513.695 
	L 1507.7 584.75 
	L 1484.44 584.75 
	L 1484.44 422.75 
	L 1532.66 422.75 
	C 1558.19 422.75 1575.2 440.937 1575.2 468.223 
	C 1575.2 497.781 1559.89 513.695 1532.66 513.695 
	Z 
	"/>
</g>
<g fill="#7f7f7f" fill-rule="nonzero" stroke-width="0" stroke-linejoin="miter" stroke-linecap="butt" stroke-miterlimit="4" >
	<path d="
	M 549.469 509.937 
	C 542.457 505.395 535.652 500.84 531.309 497.781 
	C 518.246 488.59 511.328 476.184 511.328 461.973 
	C 511.328 438.664 529.598 419.906 553 419.906 
	C 575.832 419.906 593.527 437.527 594.098 461.973 
	L 571.836 461.973 
	C 571.266 450.602 563.273 443.215 553 443.215 
	C 542.152 443.215 533.594 451.172 533.594 461.973 
	C 533.594 469.93 537.016 474.477 549.004 481.297 
	C 580.398 499.484 594.098 517.105 594.098 540.414 
	C 594.098 566.562 574.121 587.594 549.004 587.594 
	C 520.465 587.594 503.34 563.719 503.34 537.004 
	L 526.172 537.004 
	C 526.172 550.645 533.02 564.855 549.004 564.855 
	C 561.563 564.855 571.836 553.484 571.836 540.414 
	C 571.836 530.262 567.641 521.711 549.469 509.937 
	Z 
	"/>
</g>
<g fill="#7f7f7f" fill-rule="nonzero" stroke-width="0" stroke-linejoin="miter" stroke-linecap="butt" stroke-miterlimit="4" >
	<path d="
	M 1195.11 509.937 
	C 1188.1 505.395 1181.3 500.84 1176.95 497.781 
	C 1163.89 488.59 1156.97 476.184 1156.97 461.973 
	C 1156.97 438.664 1175.24 419.906 1198.64 419.906 
	C 1221.47 419.906 1239.17 437.527 1239.74 461.973 
	L 1217.48 461.973 
	C 1216.91 450.602 1208.92 443.215 1198.64 443.215 
	C 1187.8 443.215 1179.23 451.172 1179.23 461.973 
	C 1179.23 469.93 1182.66 474.477 1194.65 481.297 
	C 1226.04 499.484 1239.74 517.105 1239.74 540.414 
	C 1239.74 566.562 1219.76 587.594 1194.65 587.594 
	C 1166.11 587.594 1148.98 563.719 1148.98 537.004 
	L 1171.81 537.004 
	C 1171.81 550.645 1178.66 564.855 1194.65 564.855 
	C 1207.21 564.855 1217.48 553.484 1217.48 540.414 
	C 1217.48 530.262 1213.29 521.711 1195.11 509.937 
	Z 
	"/>
</g>
<g fill="#7f7f7f" fill-rule="nonzero" stroke-width="0" stroke-linejoin="miter" stroke-linecap="butt" stroke-miterlimit="4" >
	<path d="
	M 1002.34 444.352 
	L 1002.34 584.75 
	L 978.965 584.75 
	L 978.965 444.352 
	L 949.32 444.352 
	L 949.32 422.75 
	L 1031.98 422.75 
	L 1031.98 444.352 
	Z 
	"/>
</g>
<g fill="#7f7f7f" fill-rule="nonzero" stroke-width="0" stroke-linejoin="miter" stroke-linecap="butt" stroke-miterlimit="4" >
	<path d="
	M 1307.34 444.352 
	L 1307.34 584.75 
	L 1283.96 584.75 
	L 1283.96 444.352 
	L 1254.32 444.352 
	L 1254.32 422.75 
	L 1336.98 422.75 
	L 1336.98 444.352 
	Z 
	"/>
</g>
<g fill="#7f7f7f" fill-rule="nonzero" stroke-width="0" stroke-linejoin="miter" stroke-linecap="butt" stroke-miterlimit="4" >
	<path d="
	M 1219.69 189.887 
	L 1210.6 232.52 
	L 1228.22 232.52 
	Z 
	M 1241.86 296.75 
	L 1232.76 253.551 
	L 1206.05 253.551 
	L 1196.96 296.75 
	L 1175.93 296.75 
	L 1208.89 134.75 
	L 1229.92 134.75 
	L 1263.45 296.75 
	Z 
	"/>
</g>
<g fill="#7f7f7f" fill-rule="nonzero" stroke-width="0" stroke-linejoin="miter" stroke-linecap="butt" stroke-miterlimit="4" >
	<path d="
	M 1573.95 280.266 
	C 1570.41 292.016 1559.67 299.594 1545.38 299.594 
	C 1528.81 299.594 1518.53 292.77 1513.39 277.992 
	C 1508.82 264.352 1506.53 242.184 1506.53 216.035 
	C 1506.53 201.254 1508.25 179.656 1510.53 167.148 
	C 1515.1 142.141 1524.82 132.477 1544.24 132.477 
	C 1562.52 132.477 1574.52 143.844 1576.23 163.738 
	L 1555.1 163.738 
	C 1554.52 156.918 1550.53 153.508 1544.81 153.508 
	C 1537.38 153.508 1533.38 158.625 1531.1 169.422 
	C 1528.24 182.496 1527.67 194.434 1527.67 216.035 
	C 1527.67 238.77 1528.24 248.434 1531.1 262.078 
	C 1533.38 272.875 1537.38 278.562 1544.24 278.562 
	C 1551.67 278.562 1555.1 272.875 1555.1 258.664 
	L 1576.23 258.664 
	C 1576.23 271.172 1575.66 274.582 1573.95 280.266 
	Z 
	"/>
</g>
<g fill="#7f7f7f" fill-rule="nonzero" stroke-width="0" stroke-linejoin="miter" stroke-linecap="butt" stroke-miterlimit="4" >
	<path d="
	M 1306.48 155.781 
	L 1306.48 197.277 
	L 1330.21 197.277 
	L 1330.21 218.875 
	L 1306.48 218.875 
	L 1306.48 296.75 
	L 1286.13 296.75 
	L 1286.13 134.75 
	L 1347.73 134.75 
	L 1347.73 155.781 
	Z 
	"/>
</g>
<g fill="#7f7f7f" fill-rule="nonzero" stroke-width="0" stroke-linejoin="miter" stroke-linecap="butt" stroke-miterlimit="4" >
	<path d="
	M 1390.76 155.781 
	L 1390.76 197.277 
	L 1414.49 197.277 
	L 1414.49 218.875 
	L 1390.76 218.875 
	L 1390.76 296.75 
	L 1370.41 296.75 
	L 1370.41 134.75 
	L 1432.01 134.75 
	L 1432.01 155.781 
	Z 
	"/>
</g>
<g fill="#7f7f7f" fill-rule="nonzero" stroke-width="0" stroke-linejoin="miter" stroke-linecap="butt" stroke-miterlimit="4" >
	<path d="
	M 1454.69 296.75 
	L 1454.69 134.75 
	L 1475.75 134.75 
	L 1475.75 296.75 
	Z 
	"/>
</g>
<g fill="#7f7f7f" fill-rule="nonzero" stroke-width="0" stroke-linejoin="miter" stroke-linecap="butt" stroke-miterlimit="4" >
	<path d="
	M 1123.71 155.781 
	L 1113.75 155.781 
	L 1113.75 200.117 
	L 1127.13 200.117 
	C 1138.51 200.117 1141.92 195.004 1141.92 179.656 
	C 1141.92 161.465 1137.94 155.781 1123.71 155.781 
	Z 
	M 1145.9 216.035 
	L 1162.4 296.75 
	L 1141.35 296.75 
	L 1123.14 221.152 
	L 1113.75 221.152 
	L 1113.75 296.75 
	L 1093.27 296.75 
	L 1093.27 134.75 
	L 1124.85 134.75 
	C 1149.89 134.75 1162.97 150.098 1162.97 180.223 
	C 1162.97 198.414 1157.85 208.645 1145.9 216.035 
	Z 
	"/>
</g>
<g fill="#7f7f7f" fill-rule="nonzero" stroke-width="0" stroke-linejoin="miter" stroke-linecap="butt" stroke-miterlimit="4" >
	<path d="
	M 1049.44 155.781 
	L 1049.44 296.75 
	L 1029 296.75 
	L 1029 155.781 
	L 1008.99 155.781 
	L 1008.99 134.75 
	L 1070.59 134.75 
	L 1070.59 155.781 
	Z 
	"/>
</g>
<g fill="#7f7f7f" fill-rule="nonzero" stroke-width="0" stroke-linejoin="miter" stroke-linecap="butt" stroke-miterlimit="4" >
	<path d="
	M 425.504 280.266 
	C 421.961 292.02 411.219 299.594 396.938 299.594 
	C 380.367 299.594 370.086 292.77 364.941 277.992 
	C 360.371 264.352 358.086 242.184 358.086 216.035 
	C 358.086 201.254 359.801 179.656 362.086 167.148 
	C 366.656 142.141 376.367 132.477 395.793 132.477 
	C 414.074 132.477 426.074 143.844 427.785 163.738 
	L 406.648 163.738 
	C 406.078 156.918 402.078 153.508 396.363 153.508 
	C 388.938 153.508 384.938 158.625 382.652 169.426 
	C 379.797 182.496 379.227 194.434 379.227 216.035 
	C 379.227 238.77 379.797 248.434 382.652 262.078 
	C 384.938 272.875 388.938 278.562 395.793 278.562 
	C 403.223 278.562 406.648 272.875 406.648 258.664 
	L 427.785 258.664 
	C 427.785 271.172 427.219 274.582 425.504 280.266 
	Z 
	"/>
</g>
<g fill="#7f7f7f" fill-rule="nonzero" stroke-width="0" stroke-linejoin="miter" stroke-linecap="butt" stroke-miterlimit="4" >
	<path d="
	M 898.703 280.836 
	C 894.98 292.109 884.422 299.594 869.566 299.594 
	C 853 299.594 843.285 293.34 838.145 277.992 
	C 833.004 263.215 831.289 248.434 831.289 215.465 
	C 831.289 183.066 833.004 168.855 838.719 153.508 
	C 843.859 138.73 853.57 132.477 869.566 132.477 
	C 887.852 132.477 898.703 143.844 900.988 163.738 
	L 880.422 163.738 
	C 879.281 156.918 875.852 153.508 870.141 153.508 
	C 862.715 153.508 857.57 158.625 855.855 169.426 
	C 853.57 182.496 852.43 193.297 852.43 215.465 
	C 852.43 237.633 853.57 248.434 855.285 262.078 
	C 857.57 272.875 861.57 278.562 868.996 278.562 
	C 876.426 278.562 880.422 271.738 880.422 260.941 
	L 880.422 239.34 
	L 870.711 239.34 
	L 870.711 218.309 
	L 900.988 218.309 
	L 900.988 259.805 
	C 900.988 267.191 900.348 275.871 898.703 280.836 
	Z 
	"/>
</g>
<g fill="#7f7f7f" fill-rule="nonzero" stroke-width="0" stroke-linejoin="miter" stroke-linecap="butt" stroke-miterlimit="4" >
	<path d="
	M 674.109 296.75 
	L 674.109 134.75 
	L 695.172 134.75 
	L 695.172 296.75 
	Z 
	"/>
</g>
<g fill="#7f7f7f" fill-rule="nonzero" stroke-width="0" stroke-linejoin="miter" stroke-linecap="butt" stroke-miterlimit="4" >
	<path d="
	M 618.016 296.75 
	L 618.016 200.687 
	L 599.254 261.508 
	L 579.508 200.687 
	L 579.508 296.75 
	L 559.051 296.75 
	L 559.051 134.75 
	L 579.508 134.75 
	L 599.254 192.16 
	L 618.016 134.75 
	L 638.473 134.75 
	L 638.473 296.75 
	Z 
	"/>
</g>
<g fill="#7f7f7f" fill-rule="nonzero" stroke-width="0" stroke-linejoin="miter" stroke-linecap="butt" stroke-miterlimit="4" >
	<path d="
	M 309.738 296.75 
	L 278.008 200.687 
	L 278.008 296.75 
	L 257.605 296.75 
	L 257.605 134.75 
	L 278.008 134.75 
	L 306.906 215.465 
	L 306.906 134.75 
	L 327.309 134.75 
	L 327.309 296.75 
	Z 
	"/>
</g>
<g fill="#7f7f7f" fill-rule="nonzero" stroke-width="0" stroke-linejoin="miter" stroke-linecap="butt" stroke-miterlimit="4" >
	<path d="
	M 782.941 296.75 
	L 751.211 200.687 
	L 751.211 296.75 
	L 730.809 296.75 
	L 730.809 134.75 
	L 751.211 134.75 
	L 780.109 215.465 
	L 780.109 134.75 
	L 800.512 134.75 
	L 800.512 296.75 
	Z 
	"/>
</g>
<g fill="#7f7f7f" fill-rule="nonzero" stroke-width="0" stroke-linejoin="miter" stroke-linecap="butt" stroke-miterlimit="4" >
	<path d="
	M 189.559 153.508 
	C 170.801 153.508 173.355 204.098 173.355 215.465 
	C 173.355 226.266 170.801 278.562 189.559 278.562 
	C 207.746 278.562 205.191 226.266 205.191 215.465 
	C 205.191 202.391 204.906 153.508 189.559 153.508 
	Z 
	M 189.559 299.594 
	C 149.199 299.594 152.32 242.184 152.32 215.465 
	C 152.32 187.613 149.766 132.477 189.559 132.477 
	C 229.348 132.477 226.793 188.184 226.793 215.465 
	C 226.793 242.184 229.348 299.594 189.559 299.594 
	Z 
	"/>
</g>
<g fill="#7f7f7f" fill-rule="nonzero" stroke-width="0" stroke-linejoin="miter" stroke-linecap="butt" stroke-miterlimit="4" >
	<path d="
	M 491 153.508 
	C 472.242 153.508 474.797 204.098 474.797 215.465 
	C 474.797 226.266 472.242 278.562 491 278.562 
	C 509.188 278.562 506.637 226.266 506.637 215.465 
	C 506.637 202.391 506.348 153.508 491 153.508 
	Z 
	M 491 299.594 
	C 450.641 299.594 453.766 242.184 453.766 215.465 
	C 453.766 187.613 451.211 132.477 491 132.477 
	C 530.793 132.477 528.234 188.184 528.234 215.465 
	C 528.234 242.184 530.793 299.594 491 299.594 
	Z 
	"/>
</g>
</g >
</g>
</svg>
