<?xml version="1.0" standalone="no"?>
<svg width="2592px" height="1296px" viewBox="0 -504 2592 1296 " xmlns="http://www.w3.org/2000/svg" xmlns:xlink="http://www.w3.org/1999/xlink">
<title>generated by pstoedit</title>
<!-- generated by pstoedit version:4.02 -->
<g xml:space='preserve'>
<clipPath id="clippath1"> 	<path d="
	M 0 -504.5 
	L 0 792 
	L 2592.5 792 
	L 2592.5 -504.5 
	Z 
	" style="clip-rule:nonzero"/>
</clipPath>
<g style="clip-path:url(#clippath1)"> 
<g fill="#95e8ff" fill-rule="nonzero" stroke-width="0" stroke-linejoin="miter" stroke-linecap="butt" stroke-miterlimit="10" >
	<path d="
	M 2592.25 683.75 
	C 2592.25 743.398 2543.9 791.75 2484.25 791.75 
	L 108.25 791.75 
	C 48.6016 791.75 0.25 743.398 0.25 683.75 
	L 0.25 -396.25 
	C 0.25 -455.89 48.6016 -504.25 108.25 -504.25 
	L 2484.25 -504.25 
	C 2543.9 -504.25 2592.25 -455.89 2592.25 -396.25 
	Z 
	"/>
</g>
<g stroke="#7f7f7f" fill="none" stroke-width="0.5" stroke-linejoin="miter" stroke-linecap="butt" stroke-miterlimit="4" >
	<path d="
	M 2592.25 683.75 
	C 2592.25 743.398 2543.9 791.75 2484.25 791.75 
	L 108.25 791.75 
	C 48.6016 791.75 0.25 743.398 0.25 683.75 
	L 0.25 -396.25 
	C 0.25 -455.89 48.6016 -504.25 108.25 -504.25 
	L 2484.25 -504.25 
	C 2543.9 -504.25 2592.25 -455.89 2592.25 -396.25 
	Z 
	"/>
</g>
<g fill="#7f7f7f" fill-rule="nonzero" stroke-width="0" stroke-linejoin="miter" stroke-linecap="butt" stroke-miterlimit="4" >
	<path d="
	M 108.25 764.75 
	C 63.5859 764.75 27.25 728.41 27.25 683.75 
	L 27.25 -396.25 
	C 27.25 -440.91 63.5859 -477.25 108.25 -477.25 
	L 2484.25 -477.25 
	C 2528.91 -477.25 2565.25 -440.91 2565.25 -396.25 
	L 2565.25 683.75 
	C 2565.25 728.41 2528.91 764.75 2484.25 764.75 
	Z 
	"/>
</g>
<g fill="#95e8ff" fill-rule="nonzero" stroke-width="0" stroke-linejoin="miter" stroke-linecap="butt" stroke-miterlimit="4" >
	<path d="
	M 108.25 719.75 
	C 88.3984 719.75 72.25 703.602 72.25 683.75 
	L 72.25 -396.25 
	C 72.25 -416.1 88.3984 -432.25 108.25 -432.25 
	L 2484.25 -432.25 
	C 2504.1 -432.25 2520.25 -416.1 2520.25 -396.25 
	L 2520.25 683.75 
	C 2520.25 703.602 2504.1 719.75 2484.25 719.75 
	Z 
	"/>
</g>
<g fill="#7f7f7f" fill-rule="nonzero" stroke-width="0" stroke-linejoin="miter" stroke-linecap="butt" stroke-miterlimit="4" >
	<path d="
	M 291.152 312.758 
	C 284.977 295.074 274.387 287.117 258.504 287.117 
	L 228.504 287.117 
	L 228.504 468.379 
	L 258.504 468.379 
	C 279.68 468.379 291.152 451.578 294.684 432.129 
	C 296.445 416.211 298.211 398.527 298.211 379.074 
	C 298.211 350.777 295.563 323.367 291.152 312.758 
	Z 
	M 297.328 492.254 
	C 288.504 500.211 276.148 503.75 262.031 503.75 
	L 192.324 503.75 
	L 192.324 251.746 
	L 256.738 251.746 
	C 277.914 251.746 288.504 254.398 297.328 261.477 
	C 312.328 272.086 322.918 291.535 327.328 317.18 
	C 330.859 335.746 333.508 357.852 333.508 377.305 
	C 333.508 435.66 322.035 472.801 297.328 492.254 
	Z 
	"/>
</g>
<g fill="#7f7f7f" fill-rule="nonzero" stroke-width="0" stroke-linejoin="miter" stroke-linecap="butt" stroke-miterlimit="4" >
	<path d="
	M 578.008 503.75 
	L 578.008 251.746 
	L 696.836 251.746 
	L 696.836 287.117 
	L 614.367 287.117 
	L 614.367 350.777 
	L 666.688 350.777 
	L 666.688 385.266 
	L 614.367 385.266 
	L 614.367 468.379 
	L 706.594 468.379 
	L 706.594 503.75 
	Z 
	"/>
</g>
<g fill="#7f7f7f" fill-rule="nonzero" stroke-width="0" stroke-linejoin="miter" stroke-linecap="butt" stroke-miterlimit="4" >
	<path d="
	M 484.855 314.527 
	C 478.621 292.422 468.824 282.691 453.684 282.691 
	C 437.652 282.691 427.852 292.422 421.617 313.645 
	C 415.383 333.094 413.605 349.895 413.605 378.187 
	C 413.605 405.602 416.273 421.52 421.617 441.852 
	C 427.852 463.074 437.652 472.801 453.684 472.801 
	C 468.824 472.801 478.621 463.074 484.855 441.852 
	C 491.094 421.52 492.871 406.484 492.871 377.305 
	C 492.871 349.012 490.199 333.094 484.855 314.527 
	Z 
	M 513.355 464.844 
	C 500.887 494.902 482.184 508.172 453.684 508.172 
	C 423.398 508.172 405.586 494.902 393.117 464.844 
	C 382.43 440.086 378.867 416.211 378.867 377.305 
	C 378.867 339.281 382.43 313.645 393.117 289.77 
	C 406.477 259.703 424.289 247.324 453.684 247.324 
	C 483.074 247.324 500.887 259.703 513.355 290.652 
	C 524.047 315.41 527.609 339.281 527.609 377.305 
	C 527.609 416.211 524.047 440.969 513.355 464.844 
	Z 
	"/>
</g>
<g fill="#7f7f7f" fill-rule="nonzero" stroke-width="0" stroke-linejoin="miter" stroke-linecap="butt" stroke-miterlimit="4" >
	<path d="
	M 808.59 387.371 
	C 797.688 380.309 787.102 373.223 780.34 368.465 
	C 760.023 354.164 749.262 334.863 749.262 312.758 
	C 749.262 276.508 777.68 247.324 814.082 247.324 
	C 849.602 247.324 877.129 274.734 878.016 312.758 
	L 843.387 312.758 
	C 842.496 295.074 830.066 283.578 814.082 283.578 
	C 797.211 283.578 783.895 295.961 783.895 312.758 
	C 783.895 325.141 789.223 332.211 807.867 342.82 
	C 856.703 371.117 878.016 398.527 878.016 434.777 
	C 878.016 475.453 846.938 508.172 807.867 508.172 
	C 763.469 508.172 736.832 471.031 736.832 429.477 
	L 772.352 429.477 
	C 772.352 450.695 783.004 472.801 807.867 472.801 
	C 827.402 472.801 843.387 455.117 843.387 434.777 
	C 843.387 418.988 836.859 405.687 808.59 387.371 
	Z 
	"/>
</g>
<g fill="#7f7f7f" fill-rule="nonzero" stroke-width="0" stroke-linejoin="miter" stroke-linecap="butt" stroke-miterlimit="4" >
	<path d="
	M 1171.84 503.75 
	L 1094.19 334.863 
	L 1094.19 503.75 
	L 1058.02 503.75 
	L 1058.02 251.746 
	L 1094.19 251.746 
	L 1163.02 402.945 
	L 1163.02 251.746 
	L 1199.2 251.746 
	L 1199.2 503.75 
	Z 
	"/>
</g>
<g fill="#7f7f7f" fill-rule="nonzero" stroke-width="0" stroke-linejoin="miter" stroke-linecap="butt" stroke-miterlimit="4" >
	<path d="
	M 1355.59 314.527 
	C 1349.35 292.422 1339.56 282.691 1324.42 282.691 
	C 1308.38 282.691 1298.59 292.422 1292.35 313.645 
	C 1286.11 333.094 1284.33 349.895 1284.33 378.187 
	C 1284.33 405.602 1287.01 421.52 1292.35 441.852 
	C 1298.59 463.074 1308.38 472.801 1324.42 472.801 
	C 1339.56 472.801 1349.35 463.074 1355.59 441.852 
	C 1361.82 421.52 1363.61 406.484 1363.61 377.305 
	C 1363.61 349.012 1360.93 333.094 1355.59 314.527 
	Z 
	M 1384.09 464.844 
	C 1371.62 494.902 1352.92 508.172 1324.42 508.172 
	C 1294.13 508.172 1276.32 494.902 1263.85 464.844 
	C 1253.16 440.086 1249.6 416.211 1249.6 377.305 
	C 1249.6 339.281 1253.16 313.645 1263.85 289.77 
	C 1277.21 259.703 1295.02 247.324 1324.42 247.324 
	C 1353.81 247.324 1371.62 259.703 1384.09 290.652 
	C 1394.78 315.41 1398.34 339.281 1398.34 377.305 
	C 1398.34 416.211 1394.78 440.969 1384.09 464.844 
	Z 
	"/>
</g>
<g fill="#7f7f7f" fill-rule="nonzero" stroke-width="0" stroke-linejoin="miter" stroke-linecap="butt" stroke-miterlimit="4" >
	<path d="
	M 1511.05 285.348 
	L 1511.05 503.75 
	L 1474.7 503.75 
	L 1474.7 285.348 
	L 1428.58 285.348 
	L 1428.58 251.746 
	L 1557.16 251.746 
	L 1557.16 285.348 
	Z 
	"/>
</g>
<g fill="#7f7f7f" fill-rule="nonzero" stroke-width="0" stroke-linejoin="miter" stroke-linecap="butt" stroke-miterlimit="4" >
	<path d="
	M 2165.84 314.527 
	C 2159.61 292.422 2149.81 282.691 2134.67 282.691 
	C 2118.64 282.691 2108.84 292.422 2102.6 313.645 
	C 2096.37 333.094 2094.59 349.895 2094.59 378.187 
	C 2094.59 405.602 2097.26 421.52 2102.6 441.852 
	C 2108.84 463.074 2118.64 472.801 2134.67 472.801 
	C 2149.81 472.801 2159.61 463.074 2165.84 441.852 
	C 2172.08 421.52 2173.86 406.484 2173.86 377.305 
	C 2173.86 349.012 2171.19 333.094 2165.84 314.527 
	Z 
	M 2194.34 464.844 
	C 2181.87 494.902 2163.17 508.172 2134.67 508.172 
	C 2104.38 508.172 2086.57 494.902 2074.1 464.844 
	C 2063.42 440.086 2059.85 416.211 2059.85 377.305 
	C 2059.85 339.281 2063.42 313.645 2074.1 289.77 
	C 2087.46 259.703 2105.27 247.324 2134.67 247.324 
	C 2164.06 247.324 2181.87 259.703 2194.34 290.652 
	C 2205.03 315.41 2208.59 339.281 2208.59 377.305 
	C 2208.59 416.211 2205.03 440.969 2194.34 464.844 
	Z 
	"/>
</g>
<g fill="#7f7f7f" fill-rule="nonzero" stroke-width="0" stroke-linejoin="miter" stroke-linecap="butt" stroke-miterlimit="4" >
	<path d="
	M 2332.23 287.117 
	L 2295.17 287.117 
	L 2295.17 358.738 
	L 2332.23 358.738 
	C 2353.41 358.738 2364.88 345.477 2364.88 322.484 
	C 2364.88 301.266 2351.65 287.117 2332.23 287.117 
	Z 
	M 2334 393.223 
	L 2295.17 393.223 
	L 2295.17 503.75 
	L 2259 503.75 
	L 2259 251.746 
	L 2334 251.746 
	C 2373.71 251.746 2400.18 280.043 2400.18 322.484 
	C 2400.18 368.465 2376.35 393.223 2334 393.223 
	Z 
	"/>
</g>
<g fill="#7f7f7f" fill-rule="nonzero" stroke-width="0" stroke-linejoin="miter" stroke-linecap="butt" stroke-miterlimit="4" >
	<path d="
	M 1808.92 387.371 
	C 1798.02 380.309 1787.43 373.223 1780.67 368.465 
	C 1760.36 354.164 1749.6 334.863 1749.6 312.758 
	C 1749.6 276.508 1778.01 247.324 1814.42 247.324 
	C 1849.93 247.324 1877.46 274.734 1878.35 312.758 
	L 1843.72 312.758 
	C 1842.83 295.074 1830.4 283.578 1814.42 283.578 
	C 1797.54 283.578 1784.23 295.961 1784.23 312.758 
	C 1784.23 325.141 1789.55 332.211 1808.2 342.82 
	C 1857.04 371.117 1878.35 398.527 1878.35 434.777 
	C 1878.35 475.453 1847.27 508.172 1808.2 508.172 
	C 1763.8 508.172 1737.16 471.031 1737.16 429.477 
	L 1772.68 429.477 
	C 1772.68 450.695 1783.34 472.801 1808.2 472.801 
	C 1827.74 472.801 1843.72 455.117 1843.72 434.777 
	C 1843.72 418.988 1837.19 405.687 1808.92 387.371 
	Z 
	"/>
</g>
<g fill="#7f7f7f" fill-rule="nonzero" stroke-width="0" stroke-linejoin="miter" stroke-linecap="butt" stroke-miterlimit="4" >
	<path d="
	M 1983.5 285.348 
	L 1983.5 503.75 
	L 1947.14 503.75 
	L 1947.14 285.348 
	L 1901.03 285.348 
	L 1901.03 251.746 
	L 2029.61 251.746 
	L 2029.61 285.348 
	Z 
	"/>
</g>
<g fill="#7f7f7f" fill-rule="nonzero" stroke-width="0" stroke-linejoin="miter" stroke-linecap="butt" stroke-miterlimit="4" >
	<path d="
	M 1186.4 -183.535 
	L 1186.4 -118.984 
	L 1223.32 -118.984 
	L 1223.32 -85.387 
	L 1186.4 -85.387 
	L 1186.4 35.75 
	L 1154.75 35.75 
	L 1154.75 -216.25 
	L 1250.57 -216.25 
	L 1250.57 -183.535 
	Z 
	"/>
</g>
<g fill="#7f7f7f" fill-rule="nonzero" stroke-width="0" stroke-linejoin="miter" stroke-linecap="butt" stroke-miterlimit="4" >
	<path d="
	M 1653.64 35.75 
	L 1653.64 -113.684 
	L 1624.46 -19.07 
	L 1593.74 -113.684 
	L 1593.74 35.75 
	L 1561.92 35.75 
	L 1561.92 -216.25 
	L 1593.74 -216.25 
	L 1624.46 -126.945 
	L 1653.64 -216.25 
	L 1685.46 -216.25 
	L 1685.46 35.75 
	Z 
	"/>
</g>
<g fill="#7f7f7f" fill-rule="nonzero" stroke-width="0" stroke-linejoin="miter" stroke-linecap="butt" stroke-miterlimit="4" >
	<path d="
	M 1468.04 -187.07 
	C 1438.86 -187.07 1442.83 -108.379 1442.83 -90.691 
	C 1442.83 -73.891 1438.86 7.45697 1468.04 7.45697 
	C 1496.33 7.45697 1492.36 -73.891 1492.36 -90.691 
	C 1492.36 -111.027 1491.91 -187.07 1468.04 -187.07 
	Z 
	M 1468.04 40.172 
	C 1405.26 40.172 1410.12 -49.133 1410.12 -90.691 
	C 1410.12 -134.02 1406.14 -219.79 1468.04 -219.79 
	C 1529.93 -219.79 1525.96 -133.133 1525.96 -90.691 
	C 1525.96 -49.133 1529.93 40.172 1468.04 40.172 
	Z 
	"/>
</g>
<g fill="#7f7f7f" fill-rule="nonzero" stroke-width="0" stroke-linejoin="miter" stroke-linecap="butt" stroke-miterlimit="4" >
	<path d="
	M 1324.39 -183.535 
	L 1308.9 -183.535 
	L 1308.9 -114.566 
	L 1329.7 -114.566 
	C 1347.4 -114.566 1352.71 -122.523 1352.71 -146.398 
	C 1352.71 -174.691 1346.51 -183.535 1324.39 -183.535 
	Z 
	M 1358.91 -89.809 
	L 1384.57 35.75 
	L 1351.83 35.75 
	L 1323.5 -81.852 
	L 1308.9 -81.852 
	L 1308.9 35.75 
	L 1277.03 35.75 
	L 1277.03 -216.25 
	L 1326.16 -216.25 
	C 1365.1 -216.25 1385.46 -192.375 1385.46 -145.512 
	C 1385.46 -117.219 1377.49 -101.301 1358.91 -89.809 
	Z 
	"/>
</g>
<g fill="#7f7f7f" fill-rule="nonzero" stroke-width="0" stroke-linejoin="miter" stroke-linecap="butt" stroke-miterlimit="4" >
	<path d="
	M 458.563 -130.48 
	L 444.418 -64.164 
	L 471.824 -64.164 
	Z 
	M 493.039 35.75 
	L 478.895 -31.449 
	L 437.348 -31.449 
	L 423.199 35.75 
	L 390.492 35.75 
	L 441.766 -216.25 
	L 474.477 -216.25 
	L 526.633 35.75 
	Z 
	"/>
</g>
<g fill="#7f7f7f" fill-rule="nonzero" stroke-width="0" stroke-linejoin="miter" stroke-linecap="butt" stroke-miterlimit="4" >
	<path d="
	M 971.195 10.105 
	C 965.684 28.387 948.98 40.172 926.762 40.172 
	C 900.988 40.172 884.992 29.562 876.992 6.57001 
	C 869.887 -14.652 866.328 -49.137 866.328 -89.809 
	C 866.328 -112.797 868.996 -146.398 872.551 -165.852 
	C 879.66 -204.758 894.77 -219.79 924.984 -219.79 
	C 953.422 -219.79 972.086 -202.102 974.754 -171.156 
	L 941.871 -171.156 
	C 940.98 -181.766 934.758 -187.07 925.871 -187.07 
	C 914.32 -187.07 908.098 -179.113 904.543 -162.313 
	C 900.102 -141.977 899.211 -123.41 899.211 -89.809 
	C 899.211 -54.438 900.102 -39.41 904.543 -18.188 
	C 908.098 -1.38702 914.32 7.453 924.984 7.453 
	C 936.535 7.453 941.871 -1.38702 941.871 -23.492 
	L 974.754 -23.492 
	C 974.754 -4.039 973.863 1.26599 971.195 10.105 
	Z 
	"/>
</g>
<g fill="#7f7f7f" fill-rule="nonzero" stroke-width="0" stroke-linejoin="miter" stroke-linecap="butt" stroke-miterlimit="4" >
	<path d="
	M 584.742 -183.535 
	L 584.742 -118.984 
	L 621.664 -118.984 
	L 621.664 -85.387 
	L 584.742 -85.387 
	L 584.742 35.75 
	L 553.094 35.75 
	L 553.094 -216.25 
	L 648.918 -216.25 
	L 648.918 -183.535 
	Z 
	"/>
</g>
<g fill="#7f7f7f" fill-rule="nonzero" stroke-width="0" stroke-linejoin="miter" stroke-linecap="butt" stroke-miterlimit="4" >
	<path d="
	M 707.027 -183.535 
	L 707.027 -118.984 
	L 743.945 -118.984 
	L 743.945 -85.387 
	L 707.027 -85.387 
	L 707.027 35.75 
	L 675.379 35.75 
	L 675.379 -216.25 
	L 771.199 -216.25 
	L 771.199 -183.535 
	Z 
	"/>
</g>
<g fill="#7f7f7f" fill-rule="nonzero" stroke-width="0" stroke-linejoin="miter" stroke-linecap="butt" stroke-miterlimit="4" >
	<path d="
	M 797.66 35.75 
	L 797.66 -216.25 
	L 830.422 -216.25 
	L 830.422 35.75 
	Z 
	"/>
</g>
<g fill="#7f7f7f" fill-rule="nonzero" stroke-width="0" stroke-linejoin="miter" stroke-linecap="butt" stroke-miterlimit="4" >
	<path d="
	M 314.305 -183.535 
	L 298.813 -183.535 
	L 298.813 -114.566 
	L 319.613 -114.566 
	C 337.313 -114.566 342.625 -122.523 342.625 -146.398 
	C 342.625 -174.691 336.43 -183.535 314.305 -183.535 
	Z 
	M 348.82 -89.809 
	L 374.484 35.75 
	L 341.738 35.75 
	L 313.418 -81.852 
	L 298.813 -81.852 
	L 298.813 35.75 
	L 266.949 35.75 
	L 266.949 -216.25 
	L 316.074 -216.25 
	C 355.016 -216.25 375.371 -192.375 375.371 -145.512 
	C 375.371 -117.219 367.406 -101.301 348.82 -89.809 
	Z 
	"/>
</g>
<g fill="#7f7f7f" fill-rule="nonzero" stroke-width="0" stroke-linejoin="miter" stroke-linecap="butt" stroke-miterlimit="4" >
	<path d="
	M 207.59 -183.535 
	L 207.59 35.75 
	L 175.797 35.75 
	L 175.797 -183.535 
	L 144.664 -183.535 
	L 144.664 -216.25 
	L 240.488 -216.25 
	L 240.488 -183.535 
	Z 
	"/>
</g>
<g fill="#7f7f7f" fill-rule="nonzero" stroke-width="0" stroke-linejoin="miter" stroke-linecap="butt" stroke-miterlimit="4" >
	<path d="
	M 2177.66 10.992 
	C 2171.87 28.531 2155.45 40.172 2132.34 40.172 
	C 2106.57 40.172 2091.46 30.445 2083.46 6.57001 
	C 2075.46 -16.422 2072.79 -39.41 2072.79 -90.691 
	C 2072.79 -141.094 2075.46 -163.199 2084.35 -187.07 
	C 2092.35 -210.06 2107.46 -219.79 2132.34 -219.79 
	C 2160.78 -219.79 2177.66 -202.102 2181.22 -171.156 
	L 2149.22 -171.156 
	C 2147.45 -181.766 2142.12 -187.07 2133.23 -187.07 
	C 2121.67 -187.07 2113.68 -179.113 2111.01 -162.313 
	C 2107.46 -141.977 2105.68 -125.176 2105.68 -90.691 
	C 2105.68 -56.207 2107.46 -39.41 2110.12 -18.188 
	C 2113.68 -1.38702 2119.9 7.453 2131.45 7.453 
	C 2143 7.453 2149.22 -3.15198 2149.22 -19.957 
	L 2149.22 -53.555 
	L 2134.12 -53.555 
	L 2134.12 -86.27 
	L 2181.22 -86.27 
	L 2181.22 -21.727 
	C 2181.22 -10.227 2180.21 3.27002 2177.66 10.992 
	Z 
	"/>
</g>
<g fill="#7f7f7f" fill-rule="nonzero" stroke-width="0" stroke-linejoin="miter" stroke-linecap="butt" stroke-miterlimit="4" >
	<path d="
	M 2293.82 35.75 
	L 2293.82 -81.852 
	L 2248.86 -81.852 
	L 2248.86 35.75 
	L 2217.13 35.75 
	L 2217.13 -216.25 
	L 2248.86 -216.25 
	L 2248.86 -114.566 
	L 2293.82 -114.566 
	L 2293.82 -216.25 
	L 2325.55 -216.25 
	L 2325.55 35.75 
	Z 
	"/>
</g>
<g fill="#7f7f7f" fill-rule="nonzero" stroke-width="0" stroke-linejoin="miter" stroke-linecap="butt" stroke-miterlimit="4" >
	<path d="
	M 2004.12 35.75 
	L 2004.12 -216.25 
	L 2036.88 -216.25 
	L 2036.88 35.75 
	Z 
	"/>
</g>
<g fill="#7f7f7f" fill-rule="nonzero" stroke-width="0" stroke-linejoin="miter" stroke-linecap="butt" stroke-miterlimit="4" >
	<path d="
	M 1912.82 -183.535 
	L 1897.32 -183.535 
	L 1897.32 -114.566 
	L 1918.13 -114.566 
	C 1935.83 -114.566 1941.14 -122.523 1941.14 -146.398 
	C 1941.14 -174.691 1934.94 -183.535 1912.82 -183.535 
	Z 
	M 1947.33 -89.809 
	L 1973 35.75 
	L 1940.25 35.75 
	L 1911.93 -81.852 
	L 1897.32 -81.852 
	L 1897.32 35.75 
	L 1865.46 35.75 
	L 1865.46 -216.25 
	L 1914.59 -216.25 
	C 1953.53 -216.25 1973.88 -192.375 1973.88 -145.512 
	C 1973.88 -117.219 1965.92 -101.301 1947.33 -89.809 
	Z 
	"/>
</g>
<g fill="#7f7f7f" fill-rule="nonzero" stroke-width="0" stroke-linejoin="miter" stroke-linecap="butt" stroke-miterlimit="4" >
	<path d="
	M 2414.94 -183.535 
	L 2414.94 35.75 
	L 2383.14 35.75 
	L 2383.14 -183.535 
	L 2352.01 -183.535 
	L 2352.01 -216.25 
	L 2447.84 -216.25 
	L 2447.84 -183.535 
	Z 
	"/>
</g>
</g >
</g>
</svg>
