<?xml version="1.0" standalone="no"?>
<svg width="2592px" height="1296px" viewBox="0 -504 2592 1296 " xmlns="http://www.w3.org/2000/svg" xmlns:xlink="http://www.w3.org/1999/xlink">
<title>generated by pstoedit</title>
<!-- generated by pstoedit version:4.02 -->
<g xml:space='preserve'>
<clipPath id="clippath1"> 	<path d="
	M 0 -504.5 
	L 0 792 
	L 2592.5 792 
	L 2592.5 -504.5 
	Z 
	" style="clip-rule:nonzero"/>
</clipPath>
<g style="clip-path:url(#clippath1)"> 
<g fill="#95e8ff" fill-rule="nonzero" stroke-width="0" stroke-linejoin="miter" stroke-linecap="butt" stroke-miterlimit="10" >
	<path d="
	M 2592.25 683.75 
	C 2592.25 743.398 2543.9 791.75 2484.25 791.75 
	L 108.25 791.75 
	C 48.6016 791.75 0.25 743.398 0.25 683.75 
	L 0.25 -396.25 
	C 0.25 -455.89 48.6016 -504.25 108.25 -504.25 
	L 2484.25 -504.25 
	C 2543.9 -504.25 2592.25 -455.89 2592.25 -396.25 
	Z 
	"/>
</g>
<g stroke="#7f7f7f" fill="none" stroke-width="0.5" stroke-linejoin="miter" stroke-linecap="butt" stroke-miterlimit="4" >
	<path d="
	M 2592.25 683.75 
	C 2592.25 743.398 2543.9 791.75 2484.25 791.75 
	L 108.25 791.75 
	C 48.6016 791.75 0.25 743.398 0.25 683.75 
	L 0.25 -396.25 
	C 0.25 -455.89 48.6016 -504.25 108.25 -504.25 
	L 2484.25 -504.25 
	C 2543.9 -504.25 2592.25 -455.89 2592.25 -396.25 
	Z 
	"/>
</g>
<g fill="#7f7f7f" fill-rule="nonzero" stroke-width="0" stroke-linejoin="miter" stroke-linecap="butt" stroke-miterlimit="4" >
	<path d="
	M 108.25 764.75 
	C 63.5859 764.75 27.25 728.41 27.25 683.75 
	L 27.25 -396.25 
	C 27.25 -440.91 63.5859 -477.25 108.25 -477.25 
	L 2484.25 -477.25 
	C 2528.91 -477.25 2565.25 -440.91 2565.25 -396.25 
	L 2565.25 683.75 
	C 2565.25 728.41 2528.91 764.75 2484.25 764.75 
	Z 
	"/>
</g>
<g fill="#95e8ff" fill-rule="nonzero" stroke-width="0" stroke-linejoin="miter" stroke-linecap="butt" stroke-miterlimit="4" >
	<path d="
	M 108.25 719.75 
	C 88.3984 719.75 72.25 703.602 72.25 683.75 
	L 72.25 -396.25 
	C 72.25 -416.1 88.3984 -432.25 108.25 -432.25 
	L 2484.25 -432.25 
	C 2504.1 -432.25 2520.25 -416.1 2520.25 -396.25 
	L 2520.25 683.75 
	C 2520.25 703.602 2504.1 719.75 2484.25 719.75 
	Z 
	"/>
</g>
<g fill="#7f7f7f" fill-rule="nonzero" stroke-width="0" stroke-linejoin="miter" stroke-linecap="butt" stroke-miterlimit="4" >
	<path d="
	M 1252.24 -183.535 
	L 1252.24 -118.988 
	L 1289.16 -118.988 
	L 1289.16 -85.387 
	L 1252.24 -85.387 
	L 1252.24 35.75 
	L 1220.59 35.75 
	L 1220.59 -216.25 
	L 1316.41 -216.25 
	L 1316.41 -183.535 
	Z 
	"/>
</g>
<g fill="#7f7f7f" fill-rule="nonzero" stroke-width="0" stroke-linejoin="miter" stroke-linecap="butt" stroke-miterlimit="4" >
	<path d="
	M 1748.46 35.75 
	L 1748.46 -113.684 
	L 1719.28 -19.07 
	L 1688.56 -113.684 
	L 1688.56 35.75 
	L 1656.74 35.75 
	L 1656.74 -216.25 
	L 1688.56 -216.25 
	L 1719.28 -126.945 
	L 1748.46 -216.25 
	L 1780.28 -216.25 
	L 1780.28 35.75 
	Z 
	"/>
</g>
<g fill="#7f7f7f" fill-rule="nonzero" stroke-width="0" stroke-linejoin="miter" stroke-linecap="butt" stroke-miterlimit="4" >
	<path d="
	M 1550.88 -187.07 
	C 1521.71 -187.07 1525.68 -108.379 1525.68 -90.691 
	C 1525.68 -73.891 1521.71 7.45697 1550.88 7.45697 
	C 1579.18 7.45697 1575.21 -73.891 1575.21 -90.691 
	C 1575.21 -111.027 1574.76 -187.07 1550.88 -187.07 
	Z 
	M 1550.88 40.172 
	C 1488.1 40.172 1492.96 -49.133 1492.96 -90.691 
	C 1492.96 -134.02 1488.99 -219.79 1550.88 -219.79 
	C 1612.78 -219.79 1608.81 -133.133 1608.81 -90.691 
	C 1608.81 -49.133 1612.78 40.172 1550.88 40.172 
	Z 
	"/>
</g>
<g fill="#7f7f7f" fill-rule="nonzero" stroke-width="0" stroke-linejoin="miter" stroke-linecap="butt" stroke-miterlimit="4" >
	<path d="
	M 1399.04 -183.535 
	L 1383.55 -183.535 
	L 1383.55 -114.566 
	L 1404.36 -114.566 
	C 1422.06 -114.566 1427.37 -122.523 1427.37 -146.398 
	C 1427.37 -174.691 1421.17 -183.535 1399.04 -183.535 
	Z 
	M 1433.56 -89.809 
	L 1459.23 35.75 
	L 1426.48 35.75 
	L 1398.16 -81.848 
	L 1383.55 -81.848 
	L 1383.55 35.75 
	L 1351.69 35.75 
	L 1351.69 -216.25 
	L 1400.82 -216.25 
	C 1439.76 -216.25 1460.11 -192.375 1460.11 -145.512 
	C 1460.11 -117.219 1452.15 -101.301 1433.56 -89.809 
	Z 
	"/>
</g>
<g fill="#7f7f7f" fill-rule="nonzero" stroke-width="0" stroke-linejoin="miter" stroke-linecap="butt" stroke-miterlimit="4" >
	<path d="
	M 485.965 -130.48 
	L 471.82 -64.164 
	L 499.227 -64.164 
	Z 
	M 520.445 35.75 
	L 506.301 -31.449 
	L 464.75 -31.449 
	L 450.605 35.75 
	L 417.895 35.75 
	L 469.168 -216.25 
	L 501.879 -216.25 
	L 554.039 35.75 
	Z 
	"/>
</g>
<g fill="#7f7f7f" fill-rule="nonzero" stroke-width="0" stroke-linejoin="miter" stroke-linecap="butt" stroke-miterlimit="4" >
	<path d="
	M 1037.03 10.109 
	C 1031.52 28.387 1014.81 40.172 992.598 40.172 
	C 966.824 40.172 950.828 29.559 942.828 6.57001 
	C 935.719 -14.648 932.164 -49.133 932.164 -89.809 
	C 932.164 -112.797 934.832 -146.398 938.387 -165.852 
	C 945.496 -204.758 960.605 -219.79 990.82 -219.79 
	C 1019.26 -219.79 1037.92 -202.102 1040.59 -171.156 
	L 1007.71 -171.156 
	C 1006.82 -181.766 1000.6 -187.07 991.711 -187.07 
	C 980.156 -187.07 973.934 -179.113 970.379 -162.313 
	C 965.938 -141.977 965.047 -123.41 965.047 -89.809 
	C 965.047 -54.441 965.938 -39.406 970.379 -18.188 
	C 973.934 -1.38702 980.156 7.45697 990.82 7.45697 
	C 1002.37 7.45697 1007.71 -1.38702 1007.71 -23.492 
	L 1040.59 -23.492 
	C 1040.59 -4.039 1039.7 1.26599 1037.03 10.109 
	Z 
	"/>
</g>
<g fill="#7f7f7f" fill-rule="nonzero" stroke-width="0" stroke-linejoin="miter" stroke-linecap="butt" stroke-miterlimit="4" >
	<path d="
	M 620.969 -183.535 
	L 620.969 -118.988 
	L 657.891 -118.988 
	L 657.891 -85.387 
	L 620.969 -85.387 
	L 620.969 35.75 
	L 589.32 35.75 
	L 589.32 -216.25 
	L 685.141 -216.25 
	L 685.141 -183.535 
	Z 
	"/>
</g>
<g fill="#7f7f7f" fill-rule="nonzero" stroke-width="0" stroke-linejoin="miter" stroke-linecap="butt" stroke-miterlimit="4" >
	<path d="
	M 752.07 -183.535 
	L 752.07 -118.988 
	L 788.992 -118.988 
	L 788.992 -85.387 
	L 752.07 -85.387 
	L 752.07 35.75 
	L 720.422 35.75 
	L 720.422 -216.25 
	L 816.246 -216.25 
	L 816.246 -183.535 
	Z 
	"/>
</g>
<g fill="#7f7f7f" fill-rule="nonzero" stroke-width="0" stroke-linejoin="miter" stroke-linecap="butt" stroke-miterlimit="4" >
	<path d="
	M 851.523 35.75 
	L 851.523 -216.25 
	L 884.285 -216.25 
	L 884.285 35.75 
	Z 
	"/>
</g>
<g fill="#7f7f7f" fill-rule="nonzero" stroke-width="0" stroke-linejoin="miter" stroke-linecap="butt" stroke-miterlimit="4" >
	<path d="
	M 336.664 -183.535 
	L 321.172 -183.535 
	L 321.172 -114.566 
	L 341.977 -114.566 
	C 359.676 -114.566 364.988 -122.523 364.988 -146.398 
	C 364.988 -174.691 358.793 -183.535 336.664 -183.535 
	Z 
	M 371.184 -89.809 
	L 396.848 35.75 
	L 364.102 35.75 
	L 335.781 -81.848 
	L 321.172 -81.848 
	L 321.172 35.75 
	L 289.313 35.75 
	L 289.313 -216.25 
	L 338.438 -216.25 
	C 377.379 -216.25 397.734 -192.375 397.734 -145.512 
	C 397.734 -117.219 389.77 -101.301 371.184 -89.809 
	Z 
	"/>
</g>
<g fill="#7f7f7f" fill-rule="nonzero" stroke-width="0" stroke-linejoin="miter" stroke-linecap="butt" stroke-miterlimit="4" >
	<path d="
	M 221.133 -183.535 
	L 221.133 35.75 
	L 189.336 35.75 
	L 189.336 -183.535 
	L 158.207 -183.535 
	L 158.207 -216.25 
	L 254.031 -216.25 
	L 254.031 -183.535 
	Z 
	"/>
</g>
<g fill="#7f7f7f" fill-rule="nonzero" stroke-width="0" stroke-linejoin="miter" stroke-linecap="butt" stroke-miterlimit="4" >
	<path d="
	M 2091.38 35.75 
	L 2091.38 -216.25 
	L 2183.69 -216.25 
	L 2183.69 -183.535 
	L 2123.03 -183.535 
	L 2123.03 -118.988 
	L 2163.47 -118.988 
	L 2163.47 -85.387 
	L 2123.03 -85.387 
	L 2123.03 3.03497 
	L 2187.21 3.03497 
	L 2187.21 35.75 
	Z 
	"/>
</g>
<g fill="#7f7f7f" fill-rule="nonzero" stroke-width="0" stroke-linejoin="miter" stroke-linecap="butt" stroke-miterlimit="4" >
	<path d="
	M 2259.18 -183.535 
	L 2259.18 -118.988 
	L 2296.1 -118.988 
	L 2296.1 -85.387 
	L 2259.18 -85.387 
	L 2259.18 35.75 
	L 2227.53 35.75 
	L 2227.53 -216.25 
	L 2323.35 -216.25 
	L 2323.35 -183.535 
	Z 
	"/>
</g>
<g fill="#7f7f7f" fill-rule="nonzero" stroke-width="0" stroke-linejoin="miter" stroke-linecap="butt" stroke-miterlimit="4" >
	<path d="
	M 1960.28 35.75 
	L 1960.28 -216.25 
	L 1991.93 -216.25 
	L 1991.93 6.57001 
	L 2056.11 6.57001 
	L 2056.11 35.75 
	Z 
	"/>
</g>
<g fill="#7f7f7f" fill-rule="nonzero" stroke-width="0" stroke-linejoin="miter" stroke-linecap="butt" stroke-miterlimit="4" >
	<path d="
	M 2401.4 -183.535 
	L 2401.4 35.75 
	L 2369.6 35.75 
	L 2369.6 -183.535 
	L 2338.47 -183.535 
	L 2338.47 -216.25 
	L 2434.29 -216.25 
	L 2434.29 -183.535 
	Z 
	"/>
</g>
<g fill="#7f7f7f" fill-rule="nonzero" stroke-width="0" stroke-linejoin="miter" stroke-linecap="butt" stroke-miterlimit="4" >
	<path d="
	M 291.152 312.762 
	C 284.977 295.074 274.387 287.117 258.504 287.117 
	L 228.504 287.117 
	L 228.504 468.379 
	L 258.504 468.379 
	C 279.68 468.379 291.152 451.582 294.684 432.129 
	C 296.445 416.211 298.211 398.527 298.211 379.074 
	C 298.211 350.781 295.563 323.367 291.152 312.762 
	Z 
	M 297.328 492.254 
	C 288.504 500.211 276.152 503.75 262.035 503.75 
	L 192.324 503.75 
	L 192.324 251.75 
	L 256.738 251.75 
	C 277.918 251.75 288.504 254.402 297.328 261.477 
	C 312.328 272.086 322.918 291.539 327.332 317.18 
	C 330.859 335.746 333.508 357.852 333.508 377.309 
	C 333.508 435.664 322.035 472.805 297.328 492.254 
	Z 
	"/>
</g>
<g fill="#7f7f7f" fill-rule="nonzero" stroke-width="0" stroke-linejoin="miter" stroke-linecap="butt" stroke-miterlimit="4" >
	<path d="
	M 578.008 503.75 
	L 578.008 251.75 
	L 696.84 251.75 
	L 696.84 287.117 
	L 614.367 287.117 
	L 614.367 350.781 
	L 666.688 350.781 
	L 666.688 385.266 
	L 614.367 385.266 
	L 614.367 468.379 
	L 706.594 468.379 
	L 706.594 503.75 
	Z 
	"/>
</g>
<g fill="#7f7f7f" fill-rule="nonzero" stroke-width="0" stroke-linejoin="miter" stroke-linecap="butt" stroke-miterlimit="4" >
	<path d="
	M 484.855 314.527 
	C 478.621 292.422 468.824 282.695 453.684 282.695 
	C 437.652 282.695 427.852 292.422 421.617 313.645 
	C 415.383 333.094 413.602 349.895 413.602 378.191 
	C 413.602 405.602 416.273 421.52 421.617 441.852 
	C 427.852 463.074 437.652 472.801 453.684 472.801 
	C 468.824 472.801 478.621 463.074 484.855 441.852 
	C 491.09 421.52 492.875 406.484 492.875 377.309 
	C 492.875 349.012 490.199 333.094 484.855 314.527 
	Z 
	M 513.355 464.844 
	C 500.887 494.906 482.184 508.172 453.684 508.172 
	C 423.398 508.172 405.586 494.906 393.117 464.844 
	C 382.43 440.086 378.867 416.211 378.867 377.309 
	C 378.867 339.285 382.43 313.645 393.117 289.77 
	C 406.477 259.707 424.293 247.324 453.684 247.324 
	C 483.074 247.324 500.887 259.707 513.355 290.652 
	C 524.047 315.41 527.609 339.285 527.609 377.309 
	C 527.609 416.211 524.047 440.969 513.355 464.844 
	Z 
	"/>
</g>
<g fill="#7f7f7f" fill-rule="nonzero" stroke-width="0" stroke-linejoin="miter" stroke-linecap="butt" stroke-miterlimit="4" >
	<path d="
	M 808.59 387.371 
	C 797.688 380.312 787.102 373.223 780.34 368.465 
	C 760.023 354.164 749.262 334.867 749.262 312.762 
	C 749.262 276.508 777.68 247.328 814.082 247.328 
	C 849.602 247.328 877.129 274.738 878.016 312.762 
	L 843.387 312.762 
	C 842.496 295.074 830.066 283.582 814.082 283.582 
	C 797.211 283.582 783.895 295.961 783.895 312.762 
	C 783.895 325.141 789.223 332.211 807.867 342.824 
	C 856.703 371.117 878.016 398.527 878.016 434.781 
	C 878.016 475.453 846.938 508.172 807.867 508.172 
	C 763.469 508.172 736.832 471.031 736.832 429.477 
	L 772.352 429.477 
	C 772.352 450.695 783.004 472.805 807.867 472.805 
	C 827.402 472.805 843.387 455.117 843.387 434.781 
	C 843.387 418.988 836.859 405.687 808.59 387.371 
	Z 
	"/>
</g>
<g fill="#7f7f7f" fill-rule="nonzero" stroke-width="0" stroke-linejoin="miter" stroke-linecap="butt" stroke-miterlimit="4" >
	<path d="
	M 1171.85 503.75 
	L 1094.19 334.867 
	L 1094.19 503.75 
	L 1058.02 503.75 
	L 1058.02 251.746 
	L 1094.19 251.746 
	L 1163.02 402.949 
	L 1163.02 251.746 
	L 1199.2 251.746 
	L 1199.2 503.75 
	Z 
	"/>
</g>
<g fill="#7f7f7f" fill-rule="nonzero" stroke-width="0" stroke-linejoin="miter" stroke-linecap="butt" stroke-miterlimit="4" >
	<path d="
	M 1355.59 314.527 
	C 1349.35 292.422 1339.56 282.695 1324.42 282.695 
	C 1308.39 282.695 1298.59 292.422 1292.35 313.645 
	C 1286.12 333.094 1284.33 349.895 1284.33 378.191 
	C 1284.33 405.602 1287.01 421.52 1292.35 441.852 
	C 1298.59 463.074 1308.39 472.801 1324.42 472.801 
	C 1339.56 472.801 1349.35 463.074 1355.59 441.852 
	C 1361.82 421.52 1363.61 406.484 1363.61 377.309 
	C 1363.61 349.012 1360.93 333.094 1355.59 314.527 
	Z 
	M 1384.09 464.844 
	C 1371.62 494.906 1352.92 508.172 1324.42 508.172 
	C 1294.13 508.172 1276.32 494.906 1263.85 464.844 
	C 1253.16 440.086 1249.6 416.211 1249.6 377.309 
	C 1249.6 339.285 1253.16 313.645 1263.85 289.77 
	C 1277.21 259.707 1295.02 247.324 1324.42 247.324 
	C 1353.81 247.324 1371.62 259.707 1384.09 290.652 
	C 1394.78 315.41 1398.34 339.285 1398.34 377.309 
	C 1398.34 416.211 1394.78 440.969 1384.09 464.844 
	Z 
	"/>
</g>
<g fill="#7f7f7f" fill-rule="nonzero" stroke-width="0" stroke-linejoin="miter" stroke-linecap="butt" stroke-miterlimit="4" >
	<path d="
	M 1511.05 285.352 
	L 1511.05 503.75 
	L 1474.7 503.75 
	L 1474.7 285.352 
	L 1428.58 285.352 
	L 1428.58 251.746 
	L 1557.17 251.746 
	L 1557.17 285.352 
	Z 
	"/>
</g>
<g fill="#7f7f7f" fill-rule="nonzero" stroke-width="0" stroke-linejoin="miter" stroke-linecap="butt" stroke-miterlimit="4" >
	<path d="
	M 2165.84 314.527 
	C 2159.61 292.422 2149.81 282.695 2134.67 282.695 
	C 2118.64 282.695 2108.84 292.422 2102.6 313.645 
	C 2096.37 333.094 2094.59 349.895 2094.59 378.191 
	C 2094.59 405.602 2097.26 421.52 2102.6 441.852 
	C 2108.84 463.074 2118.64 472.801 2134.67 472.801 
	C 2149.81 472.801 2159.61 463.074 2165.84 441.852 
	C 2172.08 421.52 2173.86 406.484 2173.86 377.309 
	C 2173.86 349.012 2171.18 333.094 2165.84 314.527 
	Z 
	M 2194.34 464.844 
	C 2181.87 494.906 2163.17 508.172 2134.67 508.172 
	C 2104.38 508.172 2086.57 494.906 2074.1 464.844 
	C 2063.42 440.086 2059.85 416.211 2059.85 377.309 
	C 2059.85 339.285 2063.42 313.645 2074.1 289.77 
	C 2087.46 259.707 2105.27 247.324 2134.67 247.324 
	C 2164.06 247.324 2181.87 259.707 2194.34 290.652 
	C 2205.03 315.41 2208.59 339.285 2208.59 377.309 
	C 2208.59 416.211 2205.03 440.969 2194.34 464.844 
	Z 
	"/>
</g>
<g fill="#7f7f7f" fill-rule="nonzero" stroke-width="0" stroke-linejoin="miter" stroke-linecap="butt" stroke-miterlimit="4" >
	<path d="
	M 2332.23 287.117 
	L 2295.17 287.117 
	L 2295.17 358.738 
	L 2332.23 358.738 
	C 2353.41 358.738 2364.88 345.477 2364.88 322.488 
	C 2364.88 301.266 2351.65 287.117 2332.23 287.117 
	Z 
	M 2334 393.223 
	L 2295.17 393.223 
	L 2295.17 503.75 
	L 2259 503.75 
	L 2259 251.75 
	L 2334 251.75 
	C 2373.71 251.75 2400.18 280.047 2400.18 322.488 
	C 2400.18 368.465 2376.35 393.223 2334 393.223 
	Z 
	"/>
</g>
<g fill="#7f7f7f" fill-rule="nonzero" stroke-width="0" stroke-linejoin="miter" stroke-linecap="butt" stroke-miterlimit="4" >
	<path d="
	M 1808.92 387.371 
	C 1798.02 380.312 1787.43 373.223 1780.67 368.465 
	C 1760.36 354.164 1749.6 334.867 1749.6 312.762 
	C 1749.6 276.508 1778.01 247.328 1814.42 247.328 
	C 1849.93 247.328 1877.46 274.738 1878.35 312.762 
	L 1843.72 312.762 
	C 1842.83 295.074 1830.4 283.582 1814.42 283.582 
	C 1797.55 283.582 1784.23 295.961 1784.23 312.762 
	C 1784.23 325.141 1789.56 332.211 1808.2 342.824 
	C 1857.04 371.117 1878.35 398.527 1878.35 434.781 
	C 1878.35 475.453 1847.27 508.172 1808.2 508.172 
	C 1763.8 508.172 1737.17 471.031 1737.17 429.477 
	L 1772.68 429.477 
	C 1772.68 450.695 1783.34 472.805 1808.2 472.805 
	C 1827.74 472.805 1843.72 455.117 1843.72 434.781 
	C 1843.72 418.988 1837.19 405.687 1808.92 387.371 
	Z 
	"/>
</g>
<g fill="#7f7f7f" fill-rule="nonzero" stroke-width="0" stroke-linejoin="miter" stroke-linecap="butt" stroke-miterlimit="4" >
	<path d="
	M 1983.5 285.352 
	L 1983.5 503.75 
	L 1947.14 503.75 
	L 1947.14 285.352 
	L 1901.03 285.352 
	L 1901.03 251.746 
	L 2029.61 251.746 
	L 2029.61 285.352 
	Z 
	"/>
</g>
</g >
</g>
</svg>
