<?xml version="1.0" encoding="UTF-8" standalone="no"?>
<!-- Created with Inkscape (http://www.inkscape.org/) -->

<svg
   version="1.1"
   id="svg1"
   width="2304.6667"
   height="1152.6667"
   viewBox="0 0 2304.6667 1152.6667"
   sodipodi:docname="tmpltdz_uf_.pdf"
   xmlns:inkscape="http://www.inkscape.org/namespaces/inkscape"
   xmlns:sodipodi="http://sodipodi.sourceforge.net/DTD/sodipodi-0.dtd"
   xmlns="http://www.w3.org/2000/svg"
   xmlns:svg="http://www.w3.org/2000/svg">
  <defs
     id="defs1" />
  <sodipodi:namedview
     id="namedview1"
     pagecolor="#ffffff"
     bordercolor="#000000"
     borderopacity="0.25"
     inkscape:showpageshadow="2"
     inkscape:pageopacity="0.0"
     inkscape:pagecheckerboard="0"
     inkscape:deskcolor="#d1d1d1">
    <inkscape:page
       x="0"
       y="0"
       inkscape:label="1"
       id="page1"
       width="2304.6667"
       height="1152.6667"
       margin="0"
       bleed="0" />
  </sodipodi:namedview>
  <g
     id="g1"
     inkscape:groupmode="layer"
     inkscape:label="1">
    <g
       id="group-R5">
      <path
         id="path2"
         d="m 17282.5,1082.5 c 0,-596.461 -483.5,-1080 -1080,-1080 H 1082.5 C 486.031,2.5 2.5,486.039 2.5,1082.5 v 6480 c 0,596.47 483.531,1080 1080,1080 h 15120 c 596.5,0 1080,-483.53 1080,-1080 v -6480"
         style="fill:#fccc2d;fill-opacity:1;fill-rule:nonzero;stroke:none"
         transform="matrix(0.13333333,0,0,-0.13333333,0,1152.6667)" />
      <path
         id="path3"
         d="m 17282.5,1082.5 c 0,-596.461 -483.5,-1080 -1080,-1080 H 1082.5 C 486.031,2.5 2.5,486.039 2.5,1082.5 v 6480 c 0,596.47 483.531,1080 1080,1080 h 15120 c 596.5,0 1080,-483.53 1080,-1080 z"
         style="fill:none;stroke:#231f20;stroke-width:5;stroke-linecap:butt;stroke-linejoin:miter;stroke-miterlimit:4;stroke-dasharray:none;stroke-opacity:1"
         transform="matrix(0.13333333,0,0,-0.13333333,0,1152.6667)" />
      <path
         id="path4"
         d="m 1082.5,272.5 c -446.637,0 -810,363.371 -810,810 v 6480 c 0,446.64 363.363,810 810,810 h 15120 c 446.6,0 810,-363.36 810,-810 v -6480 c 0,-446.629 -363.4,-810 -810,-810 h -15120"
         style="fill:#231f20;fill-opacity:1;fill-rule:nonzero;stroke:none"
         transform="matrix(0.13333333,0,0,-0.13333333,0,1152.6667)" />
      <path
         id="path5"
         d="m 1082.5,722.5 c -198.508,0 -360,161.488 -360,360 v 6480 c 0,198.51 161.492,360 360,360 h 15120 c 198.5,0 360,-161.49 360,-360 v -6480 c 0,-198.512 -161.5,-360 -360,-360 h -15120"
         style="fill:#fccc2d;fill-opacity:1;fill-rule:nonzero;stroke:none"
         transform="matrix(0.13333333,0,0,-0.13333333,0,1152.6667)" />
      <path
         id="path6"
         d="m 2168.29,3300.29 c -39.7,113.69 -107.77,164.85 -209.88,164.85 H 1765.55 V 2299.88 h 192.86 c 136.14,0 209.88,107.99 232.58,233.05 11.34,102.32 22.68,216 22.68,341.05 0,181.9 -17.01,358.11 -45.38,426.31 z M 2208,2146.41 c -56.72,-51.17 -136.14,-73.91 -226.9,-73.91 h -448.13 v 1620 h 414.1 c 136.14,0 204.21,-17.04 260.93,-62.52 96.43,-68.2 164.5,-193.26 192.87,-358.11 22.69,-119.36 39.71,-261.46 39.71,-386.52 0,-375.15 -73.75,-613.9 -232.58,-738.94"
         style="fill:#231f20;fill-opacity:1;fill-rule:nonzero;stroke:none"
         transform="matrix(0.13333333,0,0,-0.13333333,0,1152.6667)" />
      <path
         id="path7"
         d="m 4012.38,2072.5 v 1620 h 763.89 v -227.36 h -530.16 v -409.26 h 336.35 v -221.69 h -336.35 v -534.31 h 592.87 V 2072.5 h -826.6"
         style="fill:#231f20;fill-opacity:1;fill-rule:nonzero;stroke:none"
         transform="matrix(0.13333333,0,0,-0.13333333,0,1152.6667)" />
      <path
         id="path8"
         d="M 7842.75,2072.5 7343.57,3158.18 V 2072.5 h -232.58 v 1620.01 h 232.58 l 442.45,-972 v 972 h 232.57 V 2072.5 h -175.84"
         style="fill:#231f20;fill-opacity:1;fill-rule:nonzero;stroke:none"
         transform="matrix(0.13333333,0,0,-0.13333333,0,1152.6667)" />
      <path
         id="path9"
         d="m 3413.54,3288.93 c -40.08,142.11 -103.06,204.63 -200.4,204.63 -103.06,0 -166.05,-62.52 -206.13,-198.95 -40.08,-125.04 -51.53,-233.05 -51.53,-414.94 0,-176.21 17.18,-278.54 51.53,-409.26 40.08,-136.43 103.07,-198.95 206.13,-198.95 97.34,0 160.32,62.52 200.4,198.95 40.08,130.72 51.54,227.36 51.54,414.94 0,181.9 -17.19,284.22 -51.54,403.58 z m 183.22,-966.31 c -80.16,-193.26 -200.39,-278.54 -383.62,-278.54 -194.68,0 -309.19,85.28 -389.35,278.54 -68.72,159.16 -91.62,312.63 -91.62,562.73 0,244.43 22.9,409.26 91.62,562.74 85.88,193.26 200.4,272.85 389.35,272.85 188.95,0 303.46,-79.59 383.62,-278.54 68.72,-159.16 91.62,-312.62 91.62,-557.05 0,-250.1 -22.9,-409.26 -91.62,-562.73"
         style="fill:#231f20;fill-opacity:1;fill-rule:nonzero;stroke:none"
         transform="matrix(0.13333333,0,0,-0.13333333,0,1152.6667)" />
      <path
         id="path10"
         d="m 9023.96,3288.93 c -40.07,142.11 -103.06,204.63 -200.39,204.63 -103.06,0 -166.05,-62.52 -206.13,-198.95 -40.1,-125.04 -51.54,-233.05 -51.54,-414.94 0,-176.21 17.19,-278.54 51.54,-409.26 40.08,-136.43 103.07,-198.95 206.13,-198.95 97.33,0 160.32,62.52 200.39,198.95 40.08,130.72 51.55,227.36 51.55,414.94 0,181.9 -17.19,284.22 -51.55,403.58 z m 183.23,-966.31 c -80.16,-193.26 -200.39,-278.54 -383.62,-278.54 -194.68,0 -309.19,85.28 -389.35,278.54 -68.73,159.16 -91.62,312.63 -91.62,562.73 0,244.43 22.89,409.26 91.62,562.74 85.88,193.26 200.39,272.85 389.35,272.85 188.95,0 303.46,-79.59 383.62,-278.54 68.71,-159.16 91.62,-312.62 91.62,-557.05 0,-250.1 -22.91,-409.26 -91.62,-562.73"
         style="fill:#231f20;fill-opacity:1;fill-rule:nonzero;stroke:none"
         transform="matrix(0.13333333,0,0,-0.13333333,0,1152.6667)" />
      <path
         id="path11"
         d="m 14245.6,3288.93 c -40.1,142.11 -103.1,204.63 -200.4,204.63 -103.1,0 -166.1,-62.52 -206.1,-198.95 -40.1,-125.04 -51.6,-233.05 -51.6,-414.94 0,-176.21 17.2,-278.54 51.6,-409.26 40,-136.43 103,-198.95 206.1,-198.95 97.3,0 160.3,62.52 200.4,198.95 40.1,130.72 51.5,227.36 51.5,414.94 0,181.9 -17.2,284.22 -51.5,403.58 z m 183.2,-966.31 c -80.1,-193.26 -200.4,-278.54 -383.6,-278.54 -194.7,0 -309.2,85.28 -389.4,278.54 -68.7,159.16 -91.6,312.63 -91.6,562.73 0,244.43 22.9,409.26 91.6,562.74 85.9,193.26 200.4,272.85 389.4,272.85 188.9,0 303.5,-79.59 383.6,-278.54 68.7,-159.16 91.6,-312.62 91.6,-557.05 0,-250.1 -22.9,-409.26 -91.6,-562.73"
         style="fill:#231f20;fill-opacity:1;fill-rule:nonzero;stroke:none"
         transform="matrix(0.13333333,0,0,-0.13333333,0,1152.6667)" />
      <path
         id="path12"
         d="M 15315.3,3465.14 H 15077 v -460.43 h 238.3 c 136.1,0 209.8,85.27 209.8,233.05 0,136.42 -85.1,227.38 -209.8,227.38 z m 11.3,-682.11 H 15077 V 2072.5 h -232.6 v 1620 h 482.2 c 255.3,0 425.4,-181.89 425.4,-454.74 0,-295.57 -153.1,-454.73 -425.4,-454.73"
         style="fill:#231f20;fill-opacity:1;fill-rule:nonzero;stroke:none"
         transform="matrix(0.13333333,0,0,-0.13333333,0,1152.6667)" />
      <path
         id="path13"
         d="m 5494.67,2820.64 c -70.09,45.4 -138.14,90.97 -181.58,121.55 -130.61,91.93 -199.79,215.99 -199.79,358.1 0,233.06 182.66,420.64 416.7,420.64 228.33,0 405.28,-176.21 410.99,-420.64 h -222.63 c -5.7,113.69 -85.61,187.58 -188.36,187.58 -108.46,0 -194.08,-79.58 -194.08,-187.58 0,-79.58 34.25,-125.05 154.12,-193.26 313.95,-181.89 450.95,-358.1 450.95,-591.16 0,-261.48 -199.79,-471.79 -450.95,-471.79 -285.41,0 -456.66,238.74 -456.66,505.9 h 228.33 c 0,-136.43 68.5,-278.53 228.33,-278.53 125.58,0 228.32,113.69 228.32,244.42 0,101.51 -41.94,187.02 -223.69,304.77"
         style="fill:#231f20;fill-opacity:1;fill-rule:nonzero;stroke:none"
         transform="matrix(0.13333333,0,0,-0.13333333,0,1152.6667)" />
      <path
         id="path14"
         d="m 11951.1,2820.64 c -70.1,45.4 -138.1,90.97 -181.6,121.55 -130.6,91.93 -199.8,215.99 -199.8,358.1 0,233.06 182.7,420.64 416.7,420.64 228.3,0 405.3,-176.21 411,-420.64 h -222.6 c -5.7,113.69 -85.6,187.58 -188.4,187.58 -108.4,0 -194.1,-79.58 -194.1,-187.58 0,-79.58 34.3,-125.05 154.2,-193.26 313.9,-181.89 450.9,-358.1 450.9,-591.16 0,-261.48 -199.8,-471.79 -450.9,-471.79 -285.4,0 -456.7,238.74 -456.7,505.9 h 228.3 c 0,-136.43 68.5,-278.53 228.4,-278.53 125.6,0 228.3,113.69 228.3,244.42 0,101.51 -41.9,187.02 -223.7,304.77"
         style="fill:#231f20;fill-opacity:1;fill-rule:nonzero;stroke:none"
         transform="matrix(0.13333333,0,0,-0.13333333,0,1152.6667)" />
      <path
         id="path15"
         d="m 10023.4,3476.5 v -1404 h -233.75 v 1404 H 9493.2 v 216.01 h 826.6 V 3476.5 h -296.4"
         style="fill:#231f20;fill-opacity:1;fill-rule:nonzero;stroke:none"
         transform="matrix(0.13333333,0,0,-0.13333333,0,1152.6667)" />
      <path
         id="path16"
         d="m 13073.4,3476.5 v -1404 h -233.8 v 1404 h -296.4 v 216.01 h 826.6 V 3476.5 h -296.4"
         style="fill:#231f20;fill-opacity:1;fill-rule:nonzero;stroke:none"
         transform="matrix(0.13333333,0,0,-0.13333333,0,1152.6667)" />
      <path
         id="path17"
         d="m 3334.51,6021.13 -90.94,-426.31 h 176.19 z m 221.64,-1068.63 -90.93,432 h -267.1 l -90.93,-432 H 2896.9 l 329.62,1620 h 210.29 l 335.3,-1620 h -215.96"
         style="fill:#231f20;fill-opacity:1;fill-rule:nonzero;stroke:none"
         transform="matrix(0.13333333,0,0,-0.13333333,0,1152.6667)" />
      <path
         id="path18"
         d="m 6630.01,5117.35 c -35.43,-117.52 -142.82,-193.26 -285.64,-193.26 -165.69,0 -268.53,68.2 -319.95,215.99 -45.7,136.43 -68.55,358.11 -68.55,619.58 0,147.79 17.14,363.79 39.99,488.85 45.7,250.1 142.83,346.73 337.08,346.73 182.81,0 302.79,-113.69 319.93,-312.63 h -211.39 c -5.71,68.21 -45.71,102.32 -102.84,102.32 -74.26,0 -114.26,-51.17 -137.11,-159.16 -28.56,-130.74 -34.27,-250.11 -34.27,-466.11 0,-227.37 5.71,-323.99 34.27,-460.42 22.85,-108 62.85,-164.84 131.41,-164.84 74.26,0 108.54,56.84 108.54,198.94 h 211.39 c 0,-125.05 -5.71,-159.16 -22.86,-215.99"
         style="fill:#231f20;fill-opacity:1;fill-rule:nonzero;stroke:none"
         transform="matrix(0.13333333,0,0,-0.13333333,0,1152.6667)" />
      <path
         id="path19"
         d="m 4145.67,6362.19 v -414.95 h 237.35 v -216 H 4145.67 V 4952.5 h -203.45 v 1620 h 615.99 v -210.31 h -412.54"
         style="fill:#231f20;fill-opacity:1;fill-rule:nonzero;stroke:none"
         transform="matrix(0.13333333,0,0,-0.13333333,0,1152.6667)" />
      <path
         id="path20"
         d="m 4931.78,6362.19 v -414.95 h 237.34 v -216 H 4931.78 V 4952.5 h -203.46 v 1620 h 616 v -210.31 h -412.54"
         style="fill:#231f20;fill-opacity:1;fill-rule:nonzero;stroke:none"
         transform="matrix(0.13333333,0,0,-0.13333333,0,1152.6667)" />
      <path
         id="path21"
         d="m 7936.33,6362.19 v -414.95 h 237.34 v -216 H 7936.33 V 4952.5 h -203.46 v 1620 h 616 v -210.31 h -412.54"
         style="fill:#231f20;fill-opacity:1;fill-rule:nonzero;stroke:none"
         transform="matrix(0.13333333,0,0,-0.13333333,0,1152.6667)" />
      <path
         id="path22"
         d="m 14231.6,5111.67 c -37.3,-112.76 -142.8,-187.58 -291.4,-187.58 -165.7,0 -262.8,62.52 -314.2,215.99 -51.4,147.8 -68.6,295.59 -68.6,625.26 0,324.01 17.2,466.12 74.3,619.59 51.4,147.78 148.5,210.31 308.5,210.31 182.8,0 291.4,-113.69 314.2,-312.63 h -205.6 c -11.5,68.21 -45.7,102.32 -102.9,102.32 -74.2,0 -125.7,-51.17 -142.8,-159.16 -22.9,-130.74 -34.3,-238.74 -34.3,-460.43 0,-221.68 11.4,-329.67 28.6,-466.1 22.8,-108 62.8,-164.84 137.1,-164.84 74.3,0 114.3,68.2 114.3,176.21 v 216 h -97.2 v 210.31 h 302.8 v -414.94 c 0,-73.91 -6.4,-160.69 -22.8,-210.31"
         style="fill:#231f20;fill-opacity:1;fill-rule:nonzero;stroke:none"
         transform="matrix(0.13333333,0,0,-0.13333333,0,1152.6667)" />
      <path
         id="path23"
         d="m 14978.3,4952.5 v 756 h -289 v -756 h -204 v 1620 h 204 v -653.68 h 289 v 653.68 h 204 v -1620 h -204"
         style="fill:#231f20;fill-opacity:1;fill-rule:nonzero;stroke:none"
         transform="matrix(0.13333333,0,0,-0.13333333,0,1152.6667)" />
      <path
         id="path24"
         d="m 5514.41,4952.5 v 1620 h 210.61 v -1620 h -210.61"
         style="fill:#231f20;fill-opacity:1;fill-rule:nonzero;stroke:none"
         transform="matrix(0.13333333,0,0,-0.13333333,0,1152.6667)" />
      <path
         id="path25"
         d="m 13116,4952.5 v 1620 h 210.6 v -1620 H 13116"
         style="fill:#231f20;fill-opacity:1;fill-rule:nonzero;stroke:none"
         transform="matrix(0.13333333,0,0,-0.13333333,0,1152.6667)" />
      <path
         id="path26"
         d="m 10940,4952.5 v 960.63 l -187.6,-608.21 -197.5,608.21 V 4952.5 h -204.5 v 1620 h 204.5 l 197.5,-574.11 187.6,574.11 h 204.6 v -1620 H 10940"
         style="fill:#231f20;fill-opacity:1;fill-rule:nonzero;stroke:none"
         transform="matrix(0.13333333,0,0,-0.13333333,0,1152.6667)" />
      <path
         id="path27"
         d="m 9746.84,6384.92 c -187.58,0 -162.04,-505.89 -162.04,-619.58 0,-108 -25.54,-630.95 162.04,-630.95 181.9,0 156.34,522.95 156.34,630.95 0,130.74 -2.87,619.58 -156.34,619.58 z m 0,-1460.84 c -403.59,0 -372.35,574.1 -372.35,841.26 0,278.53 -25.56,829.9 372.35,829.9 397.86,0 372.36,-557.06 372.36,-829.9 0,-267.16 25.5,-841.26 -372.36,-841.26"
         style="fill:#231f20;fill-opacity:1;fill-rule:nonzero;stroke:none"
         transform="matrix(0.13333333,0,0,-0.13333333,0,1152.6667)" />
      <path
         id="path28"
         d="m 2407.13,6362.18 h -99.6 v -443.37 h 133.73 c 113.79,0 147.93,51.16 147.93,204.64 0,181.89 -39.82,238.73 -182.06,238.73 z m 221.89,-602.53 164.99,-807.15 h -210.5 l -182.07,756 h -93.91 v -756 h -204.82 v 1620 h 315.8 c 250.34,0 381.2,-153.48 381.2,-454.74 0,-181.9 -51.21,-284.22 -170.69,-358.11"
         style="fill:#231f20;fill-opacity:1;fill-rule:nonzero;stroke:none"
         transform="matrix(0.13333333,0,0,-0.13333333,0,1152.6667)" />
      <path
         id="path29"
         d="m 8823.39,6362.18 h -99.6 v -443.37 h 133.74 c 113.79,0 147.93,51.16 147.93,204.64 0,181.89 -39.83,238.73 -182.07,238.73 z m 221.89,-602.53 165,-807.15 h -210.51 l -182.07,756 h -93.91 v -756 h -204.83 v 1620 h 315.81 c 250.34,0 381.2,-153.48 381.2,-454.74 0,-181.9 -51.21,-284.22 -170.69,-358.11"
         style="fill:#231f20;fill-opacity:1;fill-rule:nonzero;stroke:none"
         transform="matrix(0.13333333,0,0,-0.13333333,0,1152.6667)" />
      <path
         id="path30"
         d="m 12529,6362.18 h -99.6 v -443.37 h 133.7 c 113.8,0 148,51.16 148,204.64 0,181.89 -39.9,238.73 -182.1,238.73 z m 221.9,-602.53 165,-807.15 h -210.5 l -182.1,756 h -93.9 v -756 h -204.8 v 1620 h 315.8 c 250.3,0 381.2,-153.48 381.2,-454.74 0,-181.9 -51.2,-284.22 -170.7,-358.11"
         style="fill:#231f20;fill-opacity:1;fill-rule:nonzero;stroke:none"
         transform="matrix(0.13333333,0,0,-0.13333333,0,1152.6667)" />
      <path
         id="path31"
         d="M 1721.11,6362.18 V 4952.5 h -204.39 v 1409.68 h -200.13 v 210.32 h 616.01 v -210.32 h -211.49"
         style="fill:#231f20;fill-opacity:1;fill-rule:nonzero;stroke:none"
         transform="matrix(0.13333333,0,0,-0.13333333,0,1152.6667)" />
      <path
         id="path32"
         d="M 15756.9,6362.18 V 4952.5 h -204.4 v 1409.68 h -200.1 v 210.32 h 616 v -210.32 h -211.5"
         style="fill:#231f20;fill-opacity:1;fill-rule:nonzero;stroke:none"
         transform="matrix(0.13333333,0,0,-0.13333333,0,1152.6667)" />
    </g>
  </g>
</svg>
