<?xml version="1.0" standalone="no"?>
<svg width="1728px" height="864px" viewBox="0 -72 1728 864 " xmlns="http://www.w3.org/2000/svg" xmlns:xlink="http://www.w3.org/1999/xlink">
<title>generated by pstoedit</title>
<!-- generated by pstoedit version:4.02 -->
<g xml:space='preserve'>
<clipPath id="clippath1"> 	<path d="
	M 0 -72.5 
	L 0 792 
	L 1728.5 792 
	L 1728.5 -72.5 
	Z 
	" style="clip-rule:nonzero"/>
</clipPath>
<g style="clip-path:url(#clippath1)"> 
<g fill="#95e8ff" fill-rule="nonzero" stroke-width="0" stroke-linejoin="miter" stroke-linecap="butt" stroke-miterlimit="10" >
	<path d="
	M 1728.25 683.75 
	C 1728.25 743.395 1679.9 791.75 1620.25 791.75 
	L 108.25 791.75 
	C 48.6016 791.75 0.25 743.395 0.25 683.75 
	L 0.25 35.75 
	C 0.25 -23.898 48.6016 -72.25 108.25 -72.25 
	L 1620.25 -72.25 
	C 1679.9 -72.25 1728.25 -23.898 1728.25 35.75 
	Z 
	"/>
</g>
<g stroke="#7f7f7f" fill="none" stroke-width="0.5" stroke-linejoin="miter" stroke-linecap="butt" stroke-miterlimit="4" >
	<path d="
	M 1728.25 683.75 
	C 1728.25 743.395 1679.9 791.75 1620.25 791.75 
	L 108.25 791.75 
	C 48.6016 791.75 0.25 743.395 0.25 683.75 
	L 0.25 35.75 
	C 0.25 -23.898 48.6016 -72.25 108.25 -72.25 
	L 1620.25 -72.25 
	C 1679.9 -72.25 1728.25 -23.898 1728.25 35.75 
	Z 
	"/>
</g>
<g fill="#7f7f7f" fill-rule="nonzero" stroke-width="0" stroke-linejoin="miter" stroke-linecap="butt" stroke-miterlimit="4" >
	<path d="
	M 108.25 764.75 
	C 63.5859 764.75 27.25 728.414 27.25 683.75 
	L 27.25 35.75 
	C 27.25 -8.914 63.5859 -45.25 108.25 -45.25 
	L 1620.25 -45.25 
	C 1664.91 -45.25 1701.25 -8.914 1701.25 35.75 
	L 1701.25 683.75 
	C 1701.25 728.414 1664.91 764.75 1620.25 764.75 
	Z 
	"/>
</g>
<g fill="#95e8ff" fill-rule="nonzero" stroke-width="0" stroke-linejoin="miter" stroke-linecap="butt" stroke-miterlimit="4" >
	<path d="
	M 108.25 719.75 
	C 88.3984 719.75 72.25 703.602 72.25 683.75 
	L 72.25 35.75 
	C 72.25 15.898 88.3984 -0.25 108.25 -0.25 
	L 1620.25 -0.25 
	C 1640.1 -0.25 1656.25 15.898 1656.25 35.75 
	L 1656.25 683.75 
	C 1656.25 703.602 1640.1 719.75 1620.25 719.75 
	Z 
	"/>
</g>
<g fill="#7f7f7f" fill-rule="nonzero" stroke-width="0" stroke-linejoin="miter" stroke-linecap="butt" stroke-miterlimit="4" >
	<path d="
	M 835.957 155.781 
	L 835.957 197.277 
	L 859.691 197.277 
	L 859.691 218.875 
	L 835.957 218.875 
	L 835.957 296.75 
	L 815.609 296.75 
	L 815.609 134.75 
	L 877.211 134.75 
	L 877.211 155.781 
	Z 
	"/>
</g>
<g fill="#7f7f7f" fill-rule="nonzero" stroke-width="0" stroke-linejoin="miter" stroke-linecap="butt" stroke-miterlimit="4" >
	<path d="
	M 1154.96 296.75 
	L 1154.96 200.687 
	L 1136.2 261.508 
	L 1116.45 200.687 
	L 1116.45 296.75 
	L 1095.99 296.75 
	L 1095.99 134.75 
	L 1116.45 134.75 
	L 1136.2 192.16 
	L 1154.96 134.75 
	L 1175.41 134.75 
	L 1175.41 296.75 
	Z 
	"/>
</g>
<g fill="#7f7f7f" fill-rule="nonzero" stroke-width="0" stroke-linejoin="miter" stroke-linecap="butt" stroke-miterlimit="4" >
	<path d="
	M 1027.94 153.508 
	C 1009.19 153.508 1011.74 204.098 1011.74 215.465 
	C 1011.74 226.266 1009.19 278.562 1027.94 278.562 
	C 1046.13 278.562 1043.58 226.266 1043.58 215.465 
	C 1043.58 202.391 1043.29 153.508 1027.94 153.508 
	Z 
	M 1027.94 299.594 
	C 987.586 299.594 990.711 242.184 990.711 215.465 
	C 990.711 187.613 988.152 132.477 1027.94 132.477 
	C 1067.73 132.477 1065.18 188.184 1065.18 215.465 
	C 1065.18 242.184 1067.73 299.594 1027.94 299.594 
	Z 
	"/>
</g>
<g fill="#7f7f7f" fill-rule="nonzero" stroke-width="0" stroke-linejoin="miter" stroke-linecap="butt" stroke-miterlimit="4" >
	<path d="
	M 930.332 155.781 
	L 920.371 155.781 
	L 920.371 200.117 
	L 933.746 200.117 
	C 945.125 200.117 948.539 195.004 948.539 179.656 
	C 948.539 161.465 944.559 155.781 930.332 155.781 
	Z 
	M 952.52 216.035 
	L 969.02 296.75 
	L 947.973 296.75 
	L 929.766 221.152 
	L 920.371 221.152 
	L 920.371 296.75 
	L 899.891 296.75 
	L 899.891 134.75 
	L 931.473 134.75 
	C 956.504 134.75 969.59 150.098 969.59 180.223 
	C 969.59 198.414 964.473 208.645 952.52 216.035 
	Z 
	"/>
</g>
<g fill="#7f7f7f" fill-rule="nonzero" stroke-width="0" stroke-linejoin="miter" stroke-linecap="butt" stroke-miterlimit="4" >
	<path d="
	M 351.066 189.887 
	L 341.977 232.52 
	L 359.594 232.52 
	Z 
	M 373.23 296.75 
	L 364.141 253.551 
	L 337.43 253.551 
	L 328.336 296.75 
	L 307.309 296.75 
	L 340.27 134.75 
	L 361.297 134.75 
	L 394.828 296.75 
	Z 
	"/>
</g>
<g fill="#7f7f7f" fill-rule="nonzero" stroke-width="0" stroke-linejoin="miter" stroke-linecap="butt" stroke-miterlimit="4" >
	<path d="
	M 705.324 280.266 
	C 701.781 292.016 691.043 299.594 676.758 299.594 
	C 660.191 299.594 649.906 292.77 644.766 277.992 
	C 640.195 264.352 637.91 242.184 637.91 216.035 
	C 637.91 201.254 639.625 179.656 641.91 167.148 
	C 646.48 142.141 656.191 132.477 675.617 132.477 
	C 693.898 132.477 705.895 143.844 707.609 163.738 
	L 686.473 163.738 
	C 685.898 156.918 681.902 153.508 676.188 153.508 
	C 668.762 153.508 664.762 158.625 662.477 169.422 
	C 659.621 182.496 659.047 194.434 659.047 216.035 
	C 659.047 238.77 659.621 248.434 662.477 262.078 
	C 664.762 272.875 668.762 278.562 675.617 278.562 
	C 683.043 278.562 686.473 272.875 686.473 258.664 
	L 707.609 258.664 
	C 707.609 271.172 707.039 274.582 705.324 280.266 
	Z 
	"/>
</g>
<g fill="#7f7f7f" fill-rule="nonzero" stroke-width="0" stroke-linejoin="miter" stroke-linecap="butt" stroke-miterlimit="4" >
	<path d="
	M 437.855 155.781 
	L 437.855 197.277 
	L 461.59 197.277 
	L 461.59 218.875 
	L 437.855 218.875 
	L 437.855 296.75 
	L 417.508 296.75 
	L 417.508 134.75 
	L 479.109 134.75 
	L 479.109 155.781 
	Z 
	"/>
</g>
<g fill="#7f7f7f" fill-rule="nonzero" stroke-width="0" stroke-linejoin="miter" stroke-linecap="butt" stroke-miterlimit="4" >
	<path d="
	M 522.133 155.781 
	L 522.133 197.277 
	L 545.871 197.277 
	L 545.871 218.875 
	L 522.133 218.875 
	L 522.133 296.75 
	L 501.789 296.75 
	L 501.789 134.75 
	L 563.391 134.75 
	L 563.391 155.781 
	Z 
	"/>
</g>
<g fill="#7f7f7f" fill-rule="nonzero" stroke-width="0" stroke-linejoin="miter" stroke-linecap="butt" stroke-miterlimit="4" >
	<path d="
	M 586.07 296.75 
	L 586.07 134.75 
	L 607.129 134.75 
	L 607.129 296.75 
	Z 
	"/>
</g>
<g fill="#7f7f7f" fill-rule="nonzero" stroke-width="0" stroke-linejoin="miter" stroke-linecap="butt" stroke-miterlimit="4" >
	<path d="
	M 255.09 155.781 
	L 245.129 155.781 
	L 245.129 200.117 
	L 258.504 200.117 
	C 269.883 200.117 273.297 195.004 273.297 179.656 
	C 273.297 161.465 269.313 155.781 255.09 155.781 
	Z 
	M 277.277 216.035 
	L 293.777 296.75 
	L 272.727 296.75 
	L 254.52 221.152 
	L 245.129 221.152 
	L 245.129 296.75 
	L 224.645 296.75 
	L 224.645 134.75 
	L 256.227 134.75 
	C 281.262 134.75 294.348 150.098 294.348 180.223 
	C 294.348 198.414 289.227 208.645 277.277 216.035 
	Z 
	"/>
</g>
<g fill="#7f7f7f" fill-rule="nonzero" stroke-width="0" stroke-linejoin="miter" stroke-linecap="butt" stroke-miterlimit="4" >
	<path d="
	M 180.816 155.781 
	L 180.816 296.75 
	L 160.379 296.75 
	L 160.379 155.781 
	L 140.363 155.781 
	L 140.363 134.75 
	L 201.965 134.75 
	L 201.965 155.781 
	Z 
	"/>
</g>
<g fill="#7f7f7f" fill-rule="nonzero" stroke-width="0" stroke-linejoin="miter" stroke-linecap="butt" stroke-miterlimit="4" >
	<path d="
	M 1367.69 296.75 
	L 1367.69 134.75 
	L 1427.03 134.75 
	L 1427.03 155.781 
	L 1388.04 155.781 
	L 1388.04 197.277 
	L 1414.04 197.277 
	L 1414.04 218.875 
	L 1388.04 218.875 
	L 1388.04 275.719 
	L 1429.29 275.719 
	L 1429.29 296.75 
	Z 
	"/>
</g>
<g fill="#7f7f7f" fill-rule="nonzero" stroke-width="0" stroke-linejoin="miter" stroke-linecap="butt" stroke-miterlimit="4" >
	<path d="
	M 1475.56 155.781 
	L 1475.56 197.277 
	L 1499.29 197.277 
	L 1499.29 218.875 
	L 1475.56 218.875 
	L 1475.56 296.75 
	L 1455.21 296.75 
	L 1455.21 134.75 
	L 1516.81 134.75 
	L 1516.81 155.781 
	Z 
	"/>
</g>
<g fill="#7f7f7f" fill-rule="nonzero" stroke-width="0" stroke-linejoin="miter" stroke-linecap="butt" stroke-miterlimit="4" >
	<path d="
	M 1283.41 296.75 
	L 1283.41 134.75 
	L 1303.76 134.75 
	L 1303.76 277.992 
	L 1345.01 277.992 
	L 1345.01 296.75 
	Z 
	"/>
</g>
<g fill="#7f7f7f" fill-rule="nonzero" stroke-width="0" stroke-linejoin="miter" stroke-linecap="butt" stroke-miterlimit="4" >
	<path d="
	M 1566.99 155.781 
	L 1566.99 296.75 
	L 1546.55 296.75 
	L 1546.55 155.781 
	L 1526.53 155.781 
	L 1526.53 134.75 
	L 1588.13 134.75 
	L 1588.13 155.781 
	Z 
	"/>
</g>
<g fill="#7f7f7f" fill-rule="nonzero" stroke-width="0" stroke-linejoin="miter" stroke-linecap="butt" stroke-miterlimit="4" >
	<path d="
	M 216.828 461.973 
	C 212.859 450.602 206.051 445.484 195.84 445.484 
	L 176.555 445.484 
	L 176.555 562.012 
	L 195.84 562.012 
	C 209.453 562.012 216.828 551.215 219.098 538.707 
	C 220.234 528.477 221.367 517.105 221.367 504.602 
	C 221.367 486.41 219.664 468.793 216.828 461.973 
	Z 
	M 220.801 577.359 
	C 215.129 582.477 207.188 584.75 198.109 584.75 
	L 153.297 584.75 
	L 153.297 422.75 
	L 194.707 422.75 
	C 208.32 422.75 215.129 424.453 220.801 429.004 
	C 230.441 435.82 237.25 448.328 240.086 464.812 
	C 242.355 476.75 244.059 490.961 244.059 503.465 
	C 244.059 540.98 236.684 564.855 220.801 577.359 
	Z 
	"/>
</g>
<g fill="#7f7f7f" fill-rule="nonzero" stroke-width="0" stroke-linejoin="miter" stroke-linecap="butt" stroke-miterlimit="4" >
	<path d="
	M 401.238 584.75 
	L 401.238 422.75 
	L 477.629 422.75 
	L 477.629 445.484 
	L 424.609 445.484 
	L 424.609 486.41 
	L 458.246 486.41 
	L 458.246 508.582 
	L 424.609 508.582 
	L 424.609 562.012 
	L 483.898 562.012 
	L 483.898 584.75 
	Z 
	"/>
</g>
<g fill="#7f7f7f" fill-rule="nonzero" stroke-width="0" stroke-linejoin="miter" stroke-linecap="butt" stroke-miterlimit="4" >
	<path d="
	M 784.273 584.75 
	L 734.355 476.184 
	L 734.355 584.75 
	L 711.098 584.75 
	L 711.098 422.75 
	L 734.355 422.75 
	L 778.602 519.949 
	L 778.602 422.75 
	L 801.859 422.75 
	L 801.859 584.75 
	Z 
	"/>
</g>
<g fill="#7f7f7f" fill-rule="nonzero" stroke-width="0" stroke-linejoin="miter" stroke-linecap="butt" stroke-miterlimit="4" >
	<path d="
	M 341.355 463.105 
	C 337.348 448.895 331.047 442.645 321.313 442.645 
	C 311.008 442.645 304.711 448.895 300.699 462.539 
	C 296.691 475.043 295.547 485.844 295.547 504.031 
	C 295.547 521.652 297.266 531.887 300.699 544.961 
	C 304.711 558.602 311.008 564.855 321.313 564.855 
	C 331.047 564.855 337.348 558.602 341.355 544.961 
	C 345.363 531.887 346.508 522.223 346.508 503.465 
	C 346.508 485.273 344.789 475.043 341.355 463.105 
	Z 
	M 359.676 559.738 
	C 351.66 579.062 339.637 587.594 321.313 587.594 
	C 301.848 587.594 290.395 579.062 282.379 559.738 
	C 275.508 543.82 273.219 528.477 273.219 503.465 
	C 273.219 479.023 275.508 462.539 282.379 447.191 
	C 290.969 427.863 302.418 419.906 321.313 419.906 
	C 340.211 419.906 351.66 427.863 359.676 447.762 
	C 366.547 463.676 368.84 479.023 368.84 503.465 
	C 368.84 528.477 366.547 544.391 359.676 559.738 
	Z 
	"/>
</g>
<g fill="#7f7f7f" fill-rule="nonzero" stroke-width="0" stroke-linejoin="miter" stroke-linecap="butt" stroke-miterlimit="4" >
	<path d="
	M 902.395 463.105 
	C 898.391 448.895 892.09 442.645 882.355 442.645 
	C 872.051 442.645 865.754 448.895 861.742 462.539 
	C 857.734 475.043 856.59 485.844 856.59 504.031 
	C 856.59 521.652 858.309 531.887 861.742 544.961 
	C 865.754 558.602 872.051 564.855 882.355 564.855 
	C 892.09 564.855 898.391 558.602 902.395 544.961 
	C 906.402 531.887 907.551 522.223 907.551 503.465 
	C 907.551 485.273 905.832 475.043 902.395 463.105 
	Z 
	M 920.719 559.738 
	C 912.703 579.062 900.68 587.594 882.355 587.594 
	C 862.891 587.594 851.438 579.062 843.422 559.738 
	C 836.551 543.82 834.262 528.477 834.262 503.465 
	C 834.262 479.023 836.551 462.539 843.422 447.191 
	C 852.012 427.863 863.461 419.906 882.355 419.906 
	C 901.254 419.906 912.703 427.863 920.719 447.762 
	C 927.59 463.676 929.883 479.023 929.883 503.465 
	C 929.883 528.477 927.59 544.391 920.719 559.738 
	Z 
	"/>
</g>
<g fill="#7f7f7f" fill-rule="nonzero" stroke-width="0" stroke-linejoin="miter" stroke-linecap="butt" stroke-miterlimit="4" >
	<path d="
	M 1424.56 463.105 
	C 1420.55 448.895 1414.25 442.645 1404.52 442.645 
	C 1394.21 442.645 1387.91 448.895 1383.91 462.539 
	C 1379.9 475.043 1378.75 485.844 1378.75 504.031 
	C 1378.75 521.652 1380.47 531.887 1383.91 544.961 
	C 1387.91 558.602 1394.21 564.855 1404.52 564.855 
	C 1414.25 564.855 1420.55 558.602 1424.56 544.961 
	C 1428.57 531.887 1429.71 522.223 1429.71 503.465 
	C 1429.71 485.273 1427.99 475.043 1424.56 463.105 
	Z 
	M 1442.88 559.738 
	C 1434.87 579.062 1422.84 587.594 1404.52 587.594 
	C 1385.05 587.594 1373.6 579.062 1365.58 559.738 
	C 1358.71 543.82 1356.42 528.477 1356.42 503.465 
	C 1356.42 479.023 1358.71 462.539 1365.58 447.191 
	C 1374.17 427.863 1385.62 419.906 1404.52 419.906 
	C 1423.41 419.906 1434.87 427.863 1442.88 447.762 
	C 1449.75 463.676 1452.04 479.023 1452.04 503.465 
	C 1452.04 528.477 1449.75 544.391 1442.88 559.738 
	Z 
	"/>
</g>
<g fill="#7f7f7f" fill-rule="nonzero" stroke-width="0" stroke-linejoin="miter" stroke-linecap="butt" stroke-miterlimit="4" >
	<path d="
	M 1531.53 445.484 
	L 1507.7 445.484 
	L 1507.7 491.527 
	L 1531.53 491.527 
	C 1545.14 491.527 1552.51 483.004 1552.51 468.223 
	C 1552.51 454.582 1544 445.484 1531.53 445.484 
	Z 
	M 1532.66 513.695 
	L 1507.7 513.695 
	L 1507.7 584.75 
	L 1484.44 584.75 
	L 1484.44 422.75 
	L 1532.66 422.75 
	C 1558.19 422.75 1575.2 440.937 1575.2 468.223 
	C 1575.2 497.781 1559.89 513.695 1532.66 513.695 
	Z 
	"/>
</g>
<g fill="#7f7f7f" fill-rule="nonzero" stroke-width="0" stroke-linejoin="miter" stroke-linecap="butt" stroke-miterlimit="4" >
	<path d="
	M 549.469 509.937 
	C 542.457 505.395 535.652 500.84 531.309 497.781 
	C 518.246 488.59 511.328 476.184 511.328 461.973 
	C 511.328 438.664 529.598 419.906 553 419.906 
	C 575.832 419.906 593.527 437.527 594.098 461.973 
	L 571.836 461.973 
	C 571.266 450.602 563.273 443.215 553 443.215 
	C 542.152 443.215 533.594 451.172 533.594 461.973 
	C 533.594 469.93 537.016 474.477 549.004 481.297 
	C 580.398 499.484 594.098 517.105 594.098 540.414 
	C 594.098 566.562 574.121 587.594 549.004 587.594 
	C 520.465 587.594 503.34 563.719 503.34 537.004 
	L 526.172 537.004 
	C 526.172 550.645 533.02 564.855 549.004 564.855 
	C 561.563 564.855 571.836 553.484 571.836 540.414 
	C 571.836 530.262 567.641 521.711 549.469 509.937 
	Z 
	"/>
</g>
<g fill="#7f7f7f" fill-rule="nonzero" stroke-width="0" stroke-linejoin="miter" stroke-linecap="butt" stroke-miterlimit="4" >
	<path d="
	M 1195.11 509.937 
	C 1188.1 505.395 1181.3 500.84 1176.95 497.781 
	C 1163.89 488.59 1156.97 476.184 1156.97 461.973 
	C 1156.97 438.664 1175.24 419.906 1198.64 419.906 
	C 1221.47 419.906 1239.17 437.527 1239.74 461.973 
	L 1217.48 461.973 
	C 1216.91 450.602 1208.92 443.215 1198.64 443.215 
	C 1187.8 443.215 1179.23 451.172 1179.23 461.973 
	C 1179.23 469.93 1182.66 474.477 1194.65 481.297 
	C 1226.04 499.484 1239.74 517.105 1239.74 540.414 
	C 1239.74 566.562 1219.76 587.594 1194.65 587.594 
	C 1166.11 587.594 1148.98 563.719 1148.98 537.004 
	L 1171.81 537.004 
	C 1171.81 550.645 1178.66 564.855 1194.65 564.855 
	C 1207.21 564.855 1217.48 553.484 1217.48 540.414 
	C 1217.48 530.262 1213.29 521.711 1195.11 509.937 
	Z 
	"/>
</g>
<g fill="#7f7f7f" fill-rule="nonzero" stroke-width="0" stroke-linejoin="miter" stroke-linecap="butt" stroke-miterlimit="4" >
	<path d="
	M 1002.34 444.352 
	L 1002.34 584.75 
	L 978.965 584.75 
	L 978.965 444.352 
	L 949.32 444.352 
	L 949.32 422.75 
	L 1031.98 422.75 
	L 1031.98 444.352 
	Z 
	"/>
</g>
<g fill="#7f7f7f" fill-rule="nonzero" stroke-width="0" stroke-linejoin="miter" stroke-linecap="butt" stroke-miterlimit="4" >
	<path d="
	M 1307.34 444.352 
	L 1307.34 584.75 
	L 1283.96 584.75 
	L 1283.96 444.352 
	L 1254.32 444.352 
	L 1254.32 422.75 
	L 1336.98 422.75 
	L 1336.98 444.352 
	Z 
	"/>
</g>
</g >
</g>
</svg>
