<?xml version="1.0" standalone="no"?>
<svg width="1728px" height="1296px" viewBox="0 -504 1728 1296 " xmlns="http://www.w3.org/2000/svg" xmlns:xlink="http://www.w3.org/1999/xlink">
<title>generated by pstoedit</title>
<!-- generated by pstoedit version:4.02 -->
<g xml:space='preserve'>
<clipPath id="clippath1"> 	<path d="
	M 0 -504 
	L 0 792 
	L 1728 792 
	L 1728 -504 
	Z 
	" style="clip-rule:nonzero"/>
</clipPath>
<g style="clip-path:url(#clippath1)"> 
<g fill="#95e8ff" fill-rule="nonzero" stroke-width="0" stroke-linejoin="miter" stroke-linecap="butt" stroke-miterlimit="10" >
	<path d="
	M 1728 684 
	C 1728 743.648 1679.65 792 1620 792 
	L 108 792 
	C 48.3516 792 0 743.648 0 684 
	L 0 -396 
	C 0 -455.65 48.3516 -504 108 -504 
	L 1620 -504 
	C 1679.65 -504 1728 -455.65 1728 -396 
	Z 
	"/>
</g>
<g fill="#7f7f7f" fill-rule="nonzero" stroke-width="0" stroke-linejoin="miter" stroke-linecap="butt" stroke-miterlimit="10" >
	<path d="
	M 108 765 
	C 63.3359 765 27 728.66 27 684 
	L 27 -396 
	C 27 -440.66 63.3359 -477 108 -477 
	L 1620 -477 
	C 1664.66 -477 1701 -440.66 1701 -396 
	L 1701 684 
	C 1701 728.66 1664.66 765 1620 765 
	Z 
	"/>
</g>
<g fill="#95e8ff" fill-rule="nonzero" stroke-width="0" stroke-linejoin="miter" stroke-linecap="butt" stroke-miterlimit="10" >
	<path d="
	M 108 720 
	C 88.1484 720 72 703.852 72 684 
	L 72 -396 
	C 72 -415.85 88.1484 -432 108 -432 
	L 1620 -432 
	C 1639.85 -432 1656 -415.85 1656 -396 
	L 1656 684 
	C 1656 703.852 1639.85 720 1620 720 
	Z 
	"/>
</g>
<g fill="#7f7f7f" fill-rule="nonzero" stroke-width="0" stroke-linejoin="miter" stroke-linecap="butt" stroke-miterlimit="10" >
	<path d="
	M 1178.35 -154.988 
	C 1172.17 -172.676 1161.58 -180.633 1145.7 -180.633 
	L 1115.7 -180.633 
	L 1115.7 0.632996 
	L 1145.7 0.632996 
	C 1166.88 0.632996 1178.35 -16.168 1181.88 -35.621 
	C 1183.64 -51.535 1185.41 -69.223 1185.41 -88.672 
	C 1185.41 -116.969 1182.76 -144.379 1178.35 -154.988 
	Z 
	M 1184.53 24.504 
	C 1175.7 32.465 1163.35 36 1149.23 36 
	L 1079.52 36 
	L 1079.52 -216 
	L 1143.94 -216 
	C 1165.12 -216 1175.7 -213.35 1184.53 -206.273 
	C 1199.53 -195.664 1210.12 -176.211 1214.53 -150.57 
	C 1218.06 -132 1220.71 -109.895 1220.71 -90.441 
	C 1220.71 -32.082 1209.23 5.05499 1184.53 24.504 
	Z 
	"/>
</g>
<g fill="#7f7f7f" fill-rule="nonzero" stroke-width="0" stroke-linejoin="miter" stroke-linecap="butt" stroke-miterlimit="10" >
	<path d="
	M 1271.11 36 
	L 1271.11 -216 
	L 1389.93 -216 
	L 1389.93 -180.633 
	L 1307.46 -180.633 
	L 1307.46 -116.969 
	L 1359.78 -116.969 
	L 1359.78 -82.484 
	L 1307.46 -82.484 
	L 1307.46 0.632996 
	L 1399.69 0.632996 
	L 1399.69 36 
	Z 
	"/>
</g>
<g fill="#7f7f7f" fill-rule="nonzero" stroke-width="0" stroke-linejoin="miter" stroke-linecap="butt" stroke-miterlimit="10" >
	<path d="
	M 433.313 36 
	L 433.313 -78.063 
	L 364.488 -78.063 
	L 364.488 36 
	L 328.309 36 
	L 328.309 -216 
	L 364.488 -216 
	L 364.488 -113.43 
	L 433.313 -113.43 
	L 433.313 -216 
	L 469.492 -216 
	L 469.492 36 
	Z 
	"/>
</g>
<g fill="#7f7f7f" fill-rule="nonzero" stroke-width="0" stroke-linejoin="miter" stroke-linecap="butt" stroke-miterlimit="10" >
	<path d="
	M 915.656 36 
	L 915.656 -216 
	L 952.02 -216 
	L 952.02 2.40198 
	L 1044.24 2.40198 
	L 1044.24 36 
	Z 
	"/>
</g>
<g fill="#7f7f7f" fill-rule="nonzero" stroke-width="0" stroke-linejoin="miter" stroke-linecap="butt" stroke-miterlimit="10" >
	<path d="
	M 625.883 -153.223 
	C 619.648 -175.324 609.852 -185.055 594.711 -185.055 
	C 578.676 -185.055 568.879 -175.324 562.645 -154.105 
	C 556.41 -134.652 554.629 -117.852 554.629 -89.559 
	C 554.629 -62.148 557.301 -46.23 562.645 -25.895 
	C 568.879 -4.672 578.676 5.05499 594.711 5.05499 
	C 609.852 5.05499 619.648 -4.672 625.883 -25.895 
	C 632.117 -46.23 633.898 -61.262 633.898 -90.441 
	C 633.898 -118.734 631.227 -134.652 625.883 -153.223 
	Z 
	M 654.383 -2.90601 
	C 641.914 27.16 623.211 40.422 594.711 40.422 
	C 564.426 40.422 546.613 27.16 534.145 -2.90601 
	C 523.453 -27.664 519.895 -51.535 519.895 -90.441 
	C 519.895 -128.465 523.453 -154.105 534.145 -177.98 
	C 547.504 -208.04 565.316 -220.42 594.711 -220.42 
	C 624.102 -220.42 641.914 -208.04 654.383 -177.094 
	C 665.074 -152.336 668.637 -128.465 668.637 -90.441 
	C 668.637 -51.535 665.074 -26.777 654.383 -2.90601 
	Z 
	"/>
</g>
<g fill="#7f7f7f" fill-rule="nonzero" stroke-width="0" stroke-linejoin="miter" stroke-linecap="butt" stroke-miterlimit="10" >
	<path d="
	M 1515.77 -180.633 
	L 1478.71 -180.633 
	L 1478.71 -116.969 
	L 1515.77 -116.969 
	C 1536.95 -116.969 1548.42 -128.465 1548.42 -148.801 
	C 1548.42 -168.254 1535.18 -180.633 1515.77 -180.633 
	Z 
	M 1546.65 36 
	L 1513.12 -82.484 
	L 1478.71 -82.484 
	L 1478.71 36 
	L 1442.53 36 
	L 1442.53 -216 
	L 1517.53 -216 
	C 1557.24 -216 1583.71 -189.473 1583.71 -148.801 
	C 1583.71 -118.738 1571.36 -96.633 1547.54 -87.789 
	L 1583.71 36 
	Z 
	"/>
</g>
<g fill="#7f7f7f" fill-rule="nonzero" stroke-width="0" stroke-linejoin="miter" stroke-linecap="butt" stroke-miterlimit="10" >
	<path d="
	M 216.043 -80.379 
	C 205.141 -87.441 194.555 -94.527 187.797 -99.285 
	C 167.48 -113.586 156.719 -132.883 156.719 -154.988 
	C 156.719 -191.242 185.133 -220.42 221.539 -220.42 
	C 257.055 -220.42 284.582 -193.012 285.469 -154.988 
	L 250.84 -154.988 
	C 249.953 -172.676 237.52 -184.168 221.539 -184.168 
	C 204.668 -184.168 191.348 -171.789 191.348 -154.988 
	C 191.348 -142.609 196.676 -135.535 215.32 -124.926 
	C 264.16 -96.633 285.469 -69.223 285.469 -32.969 
	C 285.469 7.70697 254.391 40.422 215.32 40.422 
	C 170.926 40.422 144.285 3.28497 144.285 -38.273 
	L 179.805 -38.273 
	C 179.805 -17.055 190.461 5.05499 215.32 5.05499 
	C 234.855 5.05499 250.84 -12.633 250.84 -32.969 
	C 250.84 -48.758 244.313 -62.059 216.043 -80.379 
	Z 
	"/>
</g>
<g fill="#7f7f7f" fill-rule="nonzero" stroke-width="0" stroke-linejoin="miter" stroke-linecap="butt" stroke-miterlimit="10" >
	<path d="
	M 850.512 5.05499 
	C 838.156 25.391 814.336 40.422 790.512 40.422 
	C 765.801 40.422 741.094 26.273 728.742 5.05499 
	C 721.684 -8.211 719.035 -18.82 719.035 -39.156 
	L 719.035 -216 
	L 755.215 -216 
	L 755.215 -34.738 
	C 755.215 -10.863 769.332 5.05499 790.512 5.05499 
	C 809.922 5.05499 824.043 -10.863 824.043 -34.738 
	L 824.043 -216 
	L 860.219 -216 
	L 860.219 -39.156 
	C 860.219 -18.82 857.57 -8.211 850.512 5.05499 
	Z 
	"/>
</g>
<g fill="#7f7f7f" fill-rule="nonzero" stroke-width="0" stroke-linejoin="miter" stroke-linecap="butt" stroke-miterlimit="10" >
	<path d="
	M 244.59 313.012 
	C 238.41 295.324 227.824 287.367 211.941 287.367 
	L 181.938 287.367 
	L 181.938 468.633 
	L 211.941 468.633 
	C 233.117 468.633 244.59 451.832 248.117 432.379 
	C 249.883 416.465 251.648 398.777 251.648 379.324 
	C 251.648 351.031 249 323.621 244.59 313.012 
	Z 
	M 250.766 492.508 
	C 241.941 500.461 229.59 504 215.469 504 
	L 145.762 504 
	L 145.762 252 
	L 210.176 252 
	C 231.352 252 241.941 254.652 250.766 261.727 
	C 265.766 272.336 276.355 291.789 280.766 317.434 
	C 284.297 336 286.945 358.105 286.945 377.559 
	C 286.945 435.918 275.473 473.055 250.766 492.508 
	Z 
	"/>
</g>
<g fill="#7f7f7f" fill-rule="nonzero" stroke-width="0" stroke-linejoin="miter" stroke-linecap="butt" stroke-miterlimit="10" >
	<path d="
	M 1326.15 287.367 
	L 1326.15 351.031 
	L 1376.7 351.031 
	L 1376.7 385.516 
	L 1326.15 385.516 
	L 1326.15 504 
	L 1289.79 504 
	L 1289.79 252 
	L 1418.38 252 
	L 1418.38 287.367 
	Z 
	"/>
</g>
<g fill="#7f7f7f" fill-rule="nonzero" stroke-width="0" stroke-linejoin="miter" stroke-linecap="butt" stroke-miterlimit="10" >
	<path d="
	M 1490.01 287.367 
	L 1490.01 351.031 
	L 1540.56 351.031 
	L 1540.56 385.516 
	L 1490.01 385.516 
	L 1490.01 504 
	L 1453.66 504 
	L 1453.66 252 
	L 1582.24 252 
	L 1582.24 287.367 
	Z 
	"/>
</g>
<g fill="#7f7f7f" fill-rule="nonzero" stroke-width="0" stroke-linejoin="miter" stroke-linecap="butt" stroke-miterlimit="10" >
	<path d="
	M 622.316 314.777 
	C 616.082 292.676 606.285 282.945 591.145 282.945 
	C 575.113 282.945 565.316 292.676 559.082 313.895 
	C 552.844 333.348 551.066 350.148 551.066 378.441 
	C 551.066 405.855 553.738 421.77 559.082 442.105 
	C 565.316 463.324 575.113 473.055 591.145 473.055 
	C 606.285 473.055 616.082 463.324 622.316 442.105 
	C 628.555 421.77 630.336 406.734 630.336 377.559 
	C 630.336 349.266 627.66 333.348 622.316 314.777 
	Z 
	M 650.82 465.098 
	C 638.352 495.156 619.645 508.422 591.145 508.422 
	C 560.859 508.422 543.047 495.156 530.578 465.098 
	C 519.891 440.34 516.328 416.465 516.328 377.559 
	C 516.328 339.535 519.891 313.895 530.578 290.02 
	C 543.938 259.957 561.754 247.578 591.145 247.578 
	C 620.539 247.578 638.352 259.957 650.82 290.902 
	C 661.508 315.664 665.07 339.535 665.07 377.559 
	C 665.07 416.465 661.508 441.223 650.82 465.098 
	Z 
	"/>
</g>
<g fill="#7f7f7f" fill-rule="nonzero" stroke-width="0" stroke-linejoin="miter" stroke-linecap="butt" stroke-miterlimit="10" >
	<path d="
	M 1196.64 314.777 
	C 1190.41 292.676 1180.61 282.945 1165.47 282.945 
	C 1149.44 282.945 1139.64 292.676 1133.41 313.895 
	C 1127.17 333.348 1125.39 350.148 1125.39 378.441 
	C 1125.39 405.855 1128.06 421.77 1133.41 442.105 
	C 1139.64 463.324 1149.44 473.055 1165.47 473.055 
	C 1180.61 473.055 1190.41 463.324 1196.64 442.105 
	C 1202.88 421.77 1204.66 406.734 1204.66 377.559 
	C 1204.66 349.266 1201.99 333.348 1196.64 314.777 
	Z 
	M 1225.14 465.098 
	C 1212.67 495.156 1193.97 508.422 1165.47 508.422 
	C 1135.18 508.422 1117.37 495.156 1104.9 465.098 
	C 1094.21 440.34 1090.65 416.465 1090.65 377.559 
	C 1090.65 339.535 1094.21 313.895 1104.9 290.02 
	C 1118.26 259.957 1136.08 247.578 1165.47 247.578 
	C 1194.86 247.578 1212.67 259.957 1225.14 290.902 
	C 1235.83 315.664 1239.4 339.535 1239.4 377.559 
	C 1239.4 416.465 1235.83 441.223 1225.14 465.098 
	Z 
	"/>
</g>
<g fill="#7f7f7f" fill-rule="nonzero" stroke-width="0" stroke-linejoin="miter" stroke-linecap="butt" stroke-miterlimit="10" >
	<path d="
	M 788.707 287.367 
	L 751.648 287.367 
	L 751.648 358.988 
	L 788.707 358.988 
	C 809.887 358.988 821.355 345.727 821.355 322.734 
	C 821.355 301.516 808.121 287.367 788.707 287.367 
	Z 
	M 790.473 393.477 
	L 751.648 393.477 
	L 751.648 504 
	L 715.469 504 
	L 715.469 252 
	L 790.473 252 
	C 830.18 252 856.652 280.297 856.652 322.734 
	C 856.652 368.719 832.828 393.477 790.473 393.477 
	Z 
	"/>
</g>
<g fill="#7f7f7f" fill-rule="nonzero" stroke-width="0" stroke-linejoin="miter" stroke-linecap="butt" stroke-miterlimit="10" >
	<path d="
	M 410.582 287.367 
	L 373.523 287.367 
	L 373.523 351.031 
	L 410.582 351.031 
	C 431.762 351.031 443.23 339.535 443.23 319.199 
	C 443.23 299.746 429.996 287.367 410.582 287.367 
	Z 
	M 441.469 504 
	L 407.938 385.516 
	L 373.523 385.516 
	L 373.523 504 
	L 337.344 504 
	L 337.344 252 
	L 412.348 252 
	C 452.055 252 478.527 278.527 478.527 319.199 
	C 478.527 349.266 466.176 371.367 442.352 380.211 
	L 478.527 504 
	Z 
	"/>
</g>
<g fill="#7f7f7f" fill-rule="nonzero" stroke-width="0" stroke-linejoin="miter" stroke-linecap="butt" stroke-miterlimit="10" >
	<path d="
	M 910.652 400.547 
	L 910.652 366.945 
	L 1036.65 366.945 
	L 1036.65 400.547 
	Z 
	"/>
</g>
</g >
</g>
</svg>
