<?xml version="1.0" encoding="UTF-8" standalone="no"?>
<!-- Created with Inkscape (http://www.inkscape.org/) -->

<svg
   version="1.1"
   id="svg1"
   width="2304"
   height="1728"
   viewBox="0 0 2304 1728"
   sodipodi:docname="tmpnawj0unb.pdf"
   xmlns:inkscape="http://www.inkscape.org/namespaces/inkscape"
   xmlns:sodipodi="http://sodipodi.sourceforge.net/DTD/sodipodi-0.dtd"
   xmlns="http://www.w3.org/2000/svg"
   xmlns:svg="http://www.w3.org/2000/svg">
  <defs
     id="defs1" />
  <sodipodi:namedview
     id="namedview1"
     pagecolor="#ffffff"
     bordercolor="#000000"
     borderopacity="0.25"
     inkscape:showpageshadow="2"
     inkscape:pageopacity="0.0"
     inkscape:pagecheckerboard="0"
     inkscape:deskcolor="#d1d1d1">
    <inkscape:page
       x="0"
       y="0"
       inkscape:label="1"
       id="page1"
       width="2304"
       height="1728"
       margin="0"
       bleed="0" />
  </sodipodi:namedview>
  <g
     id="g1"
     inkscape:groupmode="layer"
     inkscape:label="1">
    <g
       id="group-R5">
      <path
         id="path2"
         d="M 17280,1080 C 17280,483.5 16796.5,0 16200,0 H 1080 C 483.531,0 0,483.5 0,1080 v 10800 c 0,596.5 483.531,1080 1080,1080 h 15120 c 596.5,0 1080,-483.5 1080,-1080 V 1080"
         style="fill:#fccc2d;fill-opacity:1;fill-rule:nonzero;stroke:none"
         transform="matrix(0.13333333,0,0,-0.13333333,0,1728)" />
      <path
         id="path3"
         d="m 1080,270 c -446.637,0 -810,363.398 -810,810 v 10800 c 0,446.6 363.363,810 810,810 h 15120 c 446.6,0 810,-363.4 810,-810 V 1080 c 0,-446.602 -363.4,-810 -810,-810 H 1080"
         style="fill:#231f20;fill-opacity:1;fill-rule:nonzero;stroke:none"
         transform="matrix(0.13333333,0,0,-0.13333333,0,1728)" />
      <path
         id="path4"
         d="m 1080,720 c -198.508,0 -360,161.5 -360,360 v 10800 c 0,198.5 161.492,360 360,360 h 15120 c 198.5,0 360,-161.5 360,-360 V 1080 c 0,-198.5 -161.5,-360 -360,-360 H 1080"
         style="fill:#fccc2d;fill-opacity:1;fill-rule:nonzero;stroke:none"
         transform="matrix(0.13333333,0,0,-0.13333333,0,1728)" />
      <path
         id="path5"
         d="M 12227.4,7559.99 V 10440 h 454.1 V 7984.4 h 1332.2 v -424.41 h -1786.3"
         style="fill:#231f20;fill-opacity:1;fill-rule:nonzero;stroke:none"
         transform="matrix(0.13333333,0,0,-0.13333333,0,1728)" />
      <path
         id="path6"
         d="M 6573.66,10035.8 V 7560 h -456.69 v 2475.8 h -659.74 v 404.2 h 1786.31 v -404.2 h -669.88"
         style="fill:#231f20;fill-opacity:1;fill-rule:nonzero;stroke:none"
         transform="matrix(0.13333333,0,0,-0.13333333,0,1728)" />
      <path
         id="path7"
         d="m 4943.88,7731.78 c -161.69,-141.47 -384.03,-222.31 -626.57,-222.31 -495.18,0 -859,293.04 -1051.02,727.58 l 434.56,161.68 c 121.28,-272.84 343.59,-424.42 616.46,-424.42 262.76,0 444.66,181.9 444.66,424.42 0,384 -444.66,444.62 -818.59,596.21 -171.79,70.74 -555.81,242.52 -555.81,717.48 0,565.88 384.02,778.08 899.43,778.08 404.22,0 677.09,-232.4 818.57,-586.09 l -404.22,-121.25 c 0,0 -101.07,242.54 -424.47,252.64 -212.22,10.1 -464.88,-70.75 -444.65,-333.5 40.43,-535.57 1394.62,-181.89 1394.62,-1313.67 0,-262.74 -101.07,-495.16 -282.97,-656.85"
         style="fill:#231f20;fill-opacity:1;fill-rule:nonzero;stroke:none"
         transform="matrix(0.13333333,0,0,-0.13333333,0,1728)" />
      <path
         id="path8"
         d="M 7675.54,7559.99 V 10440 H 9371.03 V 9985.26 H 8129.68 v -707.37 h 837.67 V 8813.04 H 8129.68 V 8024.83 H 9461.87 V 7559.99 H 7675.54"
         style="fill:#231f20;fill-opacity:1;fill-rule:nonzero;stroke:none"
         transform="matrix(0.13333333,0,0,-0.13333333,0,1728)" />
      <path
         id="path9"
         d="M 9951.46,7559.99 V 10440 h 1695.44 v -454.74 h -1241.3 v -707.37 h 837.7 v -464.85 h -837.7 v -788.21 h 1332.2 V 7559.99 H 9951.46"
         style="fill:#231f20;fill-opacity:1;fill-rule:nonzero;stroke:none"
         transform="matrix(0.13333333,0,0,-0.13333333,0,1728)" />
      <path
         id="path10"
         d="m 12824.9,2520 -730,1364.21 -304.1,-373.89 V 2520 h -456.2 v 2880.01 h 456.2 v -1141.9 l 912.4,1141.9 h 588 l -892.1,-1121.69 953,-1758.32 h -527.2"
         style="fill:#231f20;fill-opacity:1;fill-rule:nonzero;stroke:none"
         transform="matrix(0.13333333,0,0,-0.13333333,0,1728)" />
      <path
         id="path11"
         d="m 5191.19,4824.01 c -70.73,70.75 -171.79,121.27 -293.07,121.27 H 4382.71 V 2984.84 h 454.78 c 151.6,0 242.54,30.32 323.38,111.16 171.82,171.79 262.75,485.07 262.75,869.08 0,383.98 -90.93,707.35 -232.43,858.93 z M 5383.21,2681.7 c -111.17,-101.1 -262.75,-151.6 -414.34,-161.7 -30.32,0 -90.97,0 -161.69,0 h -879.23 v 2880.01 h 929.74 c 293.08,0 404.25,-30.31 555.84,-151.58 303.19,-262.74 474.98,-717.47 474.98,-1283.35 0,-576.02 -181.91,-1030.78 -505.3,-1283.38"
         style="fill:#231f20;fill-opacity:1;fill-rule:nonzero;stroke:none"
         transform="matrix(0.13333333,0,0,-0.13333333,0,1728)" />
      <path
         id="path12"
         d="M 6522.1,2520 V 5400.01 H 8217.59 V 4945.27 H 6976.24 v -707.38 h 837.68 V 3773.05 H 6976.24 V 2984.84 H 8308.43 V 2520 H 6522.1"
         style="fill:#231f20;fill-opacity:1;fill-rule:nonzero;stroke:none"
         transform="matrix(0.13333333,0,0,-0.13333333,0,1728)" />
      <path
         id="path13"
         d="m 9831.87,2469.5 c -424.45,0 -697.31,161.7 -879.21,515.34 -131.38,252.63 -212.23,616.43 -212.23,980.22 0,454.73 121.27,909.47 323.39,1162.11 171.8,212.2 414.34,323.36 737.73,323.36 434.55,0 707.45,-181.9 899.45,-586.11 l -424.5,-181.89 c -161.7,242.53 -252.6,303.16 -474.95,303.16 -232.43,0 -384.02,-101.05 -485.08,-353.69 -70.74,-171.79 -111.17,-424.42 -111.17,-666.94 0,-313.26 70.74,-626.53 181.92,-808.43 101.05,-151.57 232.43,-222.33 434.55,-222.33 192.03,0 333.53,101.07 444.63,333.49 L 10701,3106.1 c -171.8,-424.4 -454.8,-636.6 -869.13,-636.6"
         style="fill:#231f20;fill-opacity:1;fill-rule:nonzero;stroke:none"
         transform="matrix(0.13333333,0,0,-0.13333333,0,1728)" />
    </g>
  </g>
</svg>
