<?xml version="1.0" encoding="UTF-8" standalone="no"?>
<!-- Created with Inkscape (http://www.inkscape.org/) -->

<svg
   version="1.1"
   id="svg1"
   width="2880"
   height="2304"
   viewBox="0 0 2880 2304"
   sodipodi:docname="tmp2f3z96bh.pdf"
   xmlns:inkscape="http://www.inkscape.org/namespaces/inkscape"
   xmlns:sodipodi="http://sodipodi.sourceforge.net/DTD/sodipodi-0.dtd"
   xmlns="http://www.w3.org/2000/svg"
   xmlns:svg="http://www.w3.org/2000/svg">
  <defs
     id="defs1" />
  <sodipodi:namedview
     id="namedview1"
     pagecolor="#ffffff"
     bordercolor="#000000"
     borderopacity="0.25"
     inkscape:showpageshadow="2"
     inkscape:pageopacity="0.0"
     inkscape:pagecheckerboard="0"
     inkscape:deskcolor="#d1d1d1">
    <inkscape:page
       x="0"
       y="0"
       inkscape:label="1"
       id="page1"
       width="2880"
       height="2304"
       margin="0"
       bleed="0" />
  </sodipodi:namedview>
  <g
     id="g1"
     inkscape:groupmode="layer"
     inkscape:label="1">
    <g
       id="group-R5">
      <path
         id="path2"
         d="M 21600,1080 C 21600,483.5 21116.5,0 20520,0 H 1080 C 483.531,0 0,483.5 0,1080 v 15120 c 0,596.5 483.531,1080 1080,1080 h 19440 c 596.5,0 1080,-483.5 1080,-1080 V 1080"
         style="fill:#fccc2d;fill-opacity:1;fill-rule:nonzero;stroke:none"
         transform="matrix(0.13333333,0,0,-0.13333333,0,2304)" />
      <path
         id="path3"
         d="m 1080,270 c -446.637,0 -810,363.402 -810,810 v 15120 c 0,446.6 363.363,810 810,810 h 19440 c 446.6,0 810,-363.4 810,-810 V 1080 c 0,-446.598 -363.4,-810 -810,-810 H 1080"
         style="fill:#231f20;fill-opacity:1;fill-rule:nonzero;stroke:none"
         transform="matrix(0.13333333,0,0,-0.13333333,0,2304)" />
      <path
         id="path4"
         d="m 1080,720 c -198.5,0 -360,161.5 -360,360 v 15120 c 0,198.5 161.5,360 360,360 h 19440 c 198.5,0 360,-161.5 360,-360 V 1080 c 0,-198.5 -161.5,-360 -360,-360 H 1080"
         style="fill:#fccc2d;fill-opacity:1;fill-rule:nonzero;stroke:none"
         transform="matrix(0.13333333,0,0,-0.13333333,0,2304)" />
      <path
         id="path5"
         d="M 17607.3,9899.98 15955,12825.5 V 9899.98 h -682.2 V 14220 h 682.2 l 1576.5,-2758.7 V 14220 h 682.2 V 9899.98 h -606.4"
         style="fill:#231f20;fill-opacity:1;fill-rule:nonzero;stroke:none"
         transform="matrix(0.13333333,0,0,-0.13333333,0,2304)" />
      <path
         id="path6"
         d="M 6594.65,9900 H 5986.48 L 5302.23,12673.9 4633.16,9900 h -608.2 l -638.61,4320 h 699.43 l 334.51,-2273.7 547.39,2273.7 h 669.06 l 562.58,-2273.7 334.55,2273.7 H 7233.3 L 6594.65,9900"
         style="fill:#231f20;fill-opacity:1;fill-rule:nonzero;stroke:none"
         transform="matrix(0.13333333,0,0,-0.13333333,0,2304)" />
      <path
         id="path7"
         d="M 10140,9899.98 V 11779.6 H 8563.46 V 9899.98 H 7881.31 V 14220 h 682.15 V 12476.9 H 10140 V 14220 h 682.2 V 9899.98 H 10140"
         style="fill:#231f20;fill-opacity:1;fill-rule:nonzero;stroke:none"
         transform="matrix(0.13333333,0,0,-0.13333333,0,2304)" />
      <path
         id="path8"
         d="M 11858.9,9899.98 V 14220 h 2543.2 v -682.1 h -1862 v -1061.1 h 1256.5 v -697.2 h -1256.5 v -1182.3 h 1998.3 v -697.32 h -2679.5"
         style="fill:#231f20;fill-opacity:1;fill-rule:nonzero;stroke:none"
         transform="matrix(0.13333333,0,0,-0.13333333,0,2304)" />
      <path
         id="path9"
         d="M 14894.9,6773.7 V 3060 h -685 v 3713.7 h -989.6 v 606.28 h 2679.4 V 6773.7 h -1004.8"
         style="fill:#231f20;fill-opacity:1;fill-rule:nonzero;stroke:none"
         transform="matrix(0.13333333,0,0,-0.13333333,0,2304)" />
      <path
         id="path10"
         d="M 8908.56,3060 H 8300.39 L 7616.13,5833.9 6947.08,3060 h -608.2 l -638.62,4319.98 h 699.44 l 334.51,-2273.68 547.38,2273.68 h 669.05 l 562.59,-2273.68 334.54,2273.68 h 699.44 L 8908.56,3060"
         style="fill:#231f20;fill-opacity:1;fill-rule:nonzero;stroke:none"
         transform="matrix(0.13333333,0,0,-0.13333333,0,2304)" />
      <path
         id="path11"
         d="m 10195.2,3060 v 4319.98 h 2543.2 V 6697.9 h -1862 V 5636.8 h 1256.5 V 4939.5 H 10876.4 V 3757.2 h 1998.3 V 3060 h -2679.5"
         style="fill:#231f20;fill-opacity:1;fill-rule:nonzero;stroke:none"
         transform="matrix(0.13333333,0,0,-0.13333333,0,2304)" />
    </g>
  </g>
</svg>
