<?xml version="1.0" encoding="UTF-8" standalone="no"?>
<!-- Created with Inkscape (http://www.inkscape.org/) -->

<svg
   version="1.1"
   id="svg1"
   width="2304.6667"
   height="1152.6667"
   viewBox="0 0 2304.6667 1152.6667"
   sodipodi:docname="tmp_xh13pzk.pdf"
   xmlns:inkscape="http://www.inkscape.org/namespaces/inkscape"
   xmlns:sodipodi="http://sodipodi.sourceforge.net/DTD/sodipodi-0.dtd"
   xmlns="http://www.w3.org/2000/svg"
   xmlns:svg="http://www.w3.org/2000/svg">
  <defs
     id="defs1" />
  <sodipodi:namedview
     id="namedview1"
     pagecolor="#ffffff"
     bordercolor="#000000"
     borderopacity="0.25"
     inkscape:showpageshadow="2"
     inkscape:pageopacity="0.0"
     inkscape:pagecheckerboard="0"
     inkscape:deskcolor="#d1d1d1">
    <inkscape:page
       x="0"
       y="0"
       inkscape:label="1"
       id="page1"
       width="2304.6667"
       height="1152.6667"
       margin="0"
       bleed="0" />
  </sodipodi:namedview>
  <g
     id="g1"
     inkscape:groupmode="layer"
     inkscape:label="1">
    <g
       id="group-R5">
      <path
         id="path2"
         d="m 17282.5,1082.5 c 0,-596.461 -483.5,-1080 -1080,-1080 H 1082.5 C 486.031,2.5 2.5,486.039 2.5,1082.5 v 6480 c 0,596.47 483.531,1080 1080,1080 h 15120 c 596.5,0 1080,-483.53 1080,-1080 v -6480"
         style="fill:#fccc2d;fill-opacity:1;fill-rule:nonzero;stroke:none"
         transform="matrix(0.13333333,0,0,-0.13333333,0,1152.6667)" />
      <path
         id="path3"
         d="m 17282.5,1082.5 c 0,-596.461 -483.5,-1080 -1080,-1080 H 1082.5 C 486.031,2.5 2.5,486.039 2.5,1082.5 v 6480 c 0,596.47 483.531,1080 1080,1080 h 15120 c 596.5,0 1080,-483.53 1080,-1080 z"
         style="fill:none;stroke:#231f20;stroke-width:5;stroke-linecap:butt;stroke-linejoin:miter;stroke-miterlimit:4;stroke-dasharray:none;stroke-opacity:1"
         transform="matrix(0.13333333,0,0,-0.13333333,0,1152.6667)" />
      <path
         id="path4"
         d="m 1082.5,272.5 c -446.637,0 -810,363.371 -810,810 v 6480 c 0,446.64 363.363,810 810,810 h 15120 c 446.6,0 810,-363.36 810,-810 v -6480 c 0,-446.629 -363.4,-810 -810,-810 h -15120"
         style="fill:#231f20;fill-opacity:1;fill-rule:nonzero;stroke:none"
         transform="matrix(0.13333333,0,0,-0.13333333,0,1152.6667)" />
      <path
         id="path5"
         d="m 1082.5,722.5 c -198.508,0 -360,161.488 -360,360 v 6480 c 0,198.51 161.492,360 360,360 h 15120 c 198.5,0 360,-161.49 360,-360 v -6480 c 0,-198.512 -161.5,-360 -360,-360 h -15120"
         style="fill:#fccc2d;fill-opacity:1;fill-rule:nonzero;stroke:none"
         transform="matrix(0.13333333,0,0,-0.13333333,0,1152.6667)" />
      <path
         id="path6"
         d="m 7494.64,2086.7 c -1136.8,0 -1834.04,894.32 -1834.04,2243.36 0,1364.22 697.24,2228.23 1834.04,2228.23 697.24,0 1333.86,-348.64 1667.33,-954.96 l -682.1,-363.78 c -121.26,181.9 -181.88,242.52 -303.15,318.31 -166.73,136.42 -454.73,227.37 -682.08,227.37 -788.18,0 -1045.86,-773.05 -1045.86,-1440 0,-939.8 394.09,-1485.48 1045.86,-1485.48 394.09,0 606.3,136.42 985.23,545.68 l 682.1,-363.79 C 8843.67,2435.33 8191.88,2086.7 7494.64,2086.7"
         style="fill:#231f20;fill-opacity:1;fill-rule:nonzero;stroke:none"
         transform="matrix(0.13333333,0,0,-0.13333333,0,1152.6667)" />
      <path
         id="path7"
         d="M 10155.6,2162.48 V 6482.5 h 3163.9 v -773.06 h -2372.9 v -803.38 h 1292.9 v -788.2 H 10946.6 V 2935.55 h 2449 v -773.07 h -3240"
         style="fill:#231f20;fill-opacity:1;fill-rule:nonzero;stroke:none"
         transform="matrix(0.13333333,0,0,-0.13333333,0,1152.6667)" />
      <path
         id="path8"
         d="M 3889.41,2162.48 V 6482.5 h 777.6 V 2162.48 h -777.6"
         style="fill:#231f20;fill-opacity:1;fill-rule:nonzero;stroke:none"
         transform="matrix(0.13333333,0,0,-0.13333333,0,1152.6667)" />
    </g>
  </g>
</svg>
