<?xml version="1.0" standalone="no"?>
<svg width="1728px" height="1296px" viewBox="0 -504 1728 1296 " xmlns="http://www.w3.org/2000/svg" xmlns:xlink="http://www.w3.org/1999/xlink">
<title>generated by pstoedit</title>
<!-- generated by pstoedit version:4.02 -->
<g xml:space='preserve'>
<clipPath id="clippath1"> 	<path d="
	M 0 -504 
	L 0 792 
	L 1728 792 
	L 1728 -504 
	Z 
	" style="clip-rule:nonzero"/>
</clipPath>
<g style="clip-path:url(#clippath1)"> 
<g fill="#95e8ff" fill-rule="nonzero" stroke-width="0" stroke-linejoin="miter" stroke-linecap="butt" stroke-miterlimit="10" >
	<path d="
	M 1728 684 
	C 1728 743.648 1679.65 792 1620 792 
	L 108 792 
	C 48.3516 792 0 743.648 0 684 
	L 0 -396 
	C 0 -455.65 48.3516 -504 108 -504 
	L 1620 -504 
	C 1679.65 -504 1728 -455.65 1728 -396 
	Z 
	"/>
</g>
<g fill="#7f7f7f" fill-rule="nonzero" stroke-width="0" stroke-linejoin="miter" stroke-linecap="butt" stroke-miterlimit="10" >
	<path d="
	M 108 765 
	C 63.3359 765 27 728.66 27 684 
	L 27 -396 
	C 27 -440.66 63.3359 -477 108 -477 
	L 1620 -477 
	C 1664.66 -477 1701 -440.66 1701 -396 
	L 1701 684 
	C 1701 728.66 1664.66 765 1620 765 
	Z 
	"/>
</g>
<g fill="#95e8ff" fill-rule="nonzero" stroke-width="0" stroke-linejoin="miter" stroke-linecap="butt" stroke-miterlimit="10" >
	<path d="
	M 108 720 
	C 88.1484 720 72 703.852 72 684 
	L 72 -396 
	C 72 -415.85 88.1484 -432 108 -432 
	L 1620 -432 
	C 1639.85 -432 1656 -415.85 1656 -396 
	L 1656 684 
	C 1656 703.852 1639.85 720 1620 720 
	Z 
	"/>
</g>
<g fill="#7f7f7f" fill-rule="nonzero" stroke-width="0" stroke-linejoin="miter" stroke-linecap="butt" stroke-miterlimit="10" >
	<path d="
	M 724.91 315.664 
	C 715.797 300.508 704.652 294.445 687.434 293.434 
	C 665.145 292.422 650.965 303.539 640.836 328.801 
	C 633.742 345.98 629.691 372.254 629.691 396.508 
	C 629.691 426.824 635.77 458.148 646.91 476.34 
	C 656.027 491.496 668.184 498.57 686.418 498.57 
	C 707.691 498.57 720.859 487.453 730.988 462.191 
	C 737.066 447.035 742.133 418.738 742.133 396.508 
	C 742.133 364.172 736.055 334.867 724.91 315.664 
	Z 
	M 756.313 512.719 
	C 740.105 534.949 716.809 545.059 686.418 545.059 
	C 645.898 545.059 620.57 528.891 603.352 493.52 
	C 591.195 469.266 583.094 430.867 583.094 396.508 
	C 583.094 349.012 595.246 306.57 614.496 279.285 
	C 631.719 257.055 655.016 246.949 688.441 246.949 
	C 724.91 246.949 750.234 263.117 768.473 298.488 
	C 780.625 323.75 787.719 360.129 787.719 396.508 
	C 787.719 441.98 776.574 487.453 756.313 512.719 
	Z 
	"/>
</g>
<g fill="#7f7f7f" fill-rule="nonzero" stroke-width="0" stroke-linejoin="miter" stroke-linecap="butt" stroke-miterlimit="10" >
	<path d="
	M 851.074 540 
	L 851.074 252 
	L 897.156 252 
	L 897.156 540 
	Z 
	"/>
</g>
<g fill="#7f7f7f" fill-rule="nonzero" stroke-width="0" stroke-linejoin="miter" stroke-linecap="butt" stroke-miterlimit="10" >
	<path d="
	M 966.273 540 
	L 966.273 252 
	L 1011.69 252 
	L 1011.69 497.559 
	L 1144.91 497.559 
	L 1144.91 540 
	Z 
	"/>
</g>
<g fill="#7f7f7f" fill-rule="nonzero" stroke-width="0" stroke-linejoin="miter" stroke-linecap="butt" stroke-miterlimit="10" >
	<path d="
	M 1278.07 18.824 
	C 1261.9 32.973 1239.67 41.055 1215.42 41.055 
	C 1165.9 41.055 1129.51 11.75 1110.31 -31.703 
	L 1153.77 -47.871 
	C 1165.9 -20.59 1188.13 -5.42999 1215.42 -5.42999 
	C 1241.69 -5.42999 1259.88 -23.617 1259.88 -47.871 
	C 1259.88 -86.27 1215.42 -92.332 1178.02 -107.492 
	C 1160.84 -114.566 1122.44 -131.742 1122.44 -179.238 
	C 1122.44 -235.83 1160.84 -257.05 1212.38 -257.05 
	C 1252.81 -257.05 1280.09 -233.81 1294.24 -198.438 
	L 1253.82 -186.313 
	C 1253.82 -186.313 1243.71 -210.57 1211.37 -211.57 
	C 1190.15 -212.59 1164.88 -204.504 1166.91 -178.23 
	C 1170.95 -124.672 1306.37 -160.039 1306.37 -46.859 
	C 1306.37 -20.59 1296.26 2.65198 1278.07 18.824 
	Z 
	"/>
</g>
<g fill="#7f7f7f" fill-rule="nonzero" stroke-width="0" stroke-linejoin="miter" stroke-linecap="butt" stroke-miterlimit="10" >
	<path d="
	M 1502.93 18.824 
	C 1486.76 32.973 1464.53 41.055 1440.27 41.055 
	C 1390.75 41.055 1354.37 11.75 1335.17 -31.703 
	L 1378.62 -47.871 
	C 1390.75 -20.59 1412.98 -5.42999 1440.27 -5.42999 
	C 1466.55 -5.42999 1484.74 -23.617 1484.74 -47.871 
	C 1484.74 -86.27 1440.27 -92.332 1402.88 -107.492 
	C 1385.7 -114.566 1347.3 -131.742 1347.3 -179.238 
	C 1347.3 -235.83 1385.7 -257.05 1437.24 -257.05 
	C 1477.66 -257.05 1504.95 -233.81 1519.1 -198.438 
	L 1478.67 -186.313 
	C 1478.67 -186.313 1468.57 -210.57 1436.23 -211.57 
	C 1415 -212.59 1389.74 -204.504 1391.76 -178.23 
	C 1395.8 -124.672 1531.22 -160.039 1531.22 -46.859 
	C 1531.22 -20.59 1521.12 2.65198 1502.93 18.824 
	Z 
	"/>
</g>
<g fill="#7f7f7f" fill-rule="nonzero" stroke-width="0" stroke-linejoin="miter" stroke-linecap="butt" stroke-miterlimit="10" >
	<path d="
	M 548.723 36.004 
	L 502.234 -59.996 
	L 455.75 36.004 
	L 404.207 36.004 
	L 475.961 -112.547 
	L 409.262 -252 
	L 460.801 -252 
	L 502.234 -166.102 
	L 543.672 -252 
	L 595.211 -252 
	L 527.5 -112.547 
	L 600.266 36.004 
	Z 
	"/>
</g>
<g fill="#7f7f7f" fill-rule="nonzero" stroke-width="0" stroke-linejoin="miter" stroke-linecap="butt" stroke-miterlimit="10" >
	<path d="
	M 196.777 36.004 
	L 196.777 -252 
	L 366.324 -252 
	L 366.324 -206.523 
	L 242.191 -206.523 
	L 242.191 -135.785 
	L 325.957 -135.785 
	L 325.957 -89.305 
	L 242.191 -89.305 
	L 242.191 -10.48 
	L 375.41 -10.48 
	L 375.41 36.004 
	Z 
	"/>
</g>
<g fill="#7f7f7f" fill-rule="nonzero" stroke-width="0" stroke-linejoin="miter" stroke-linecap="butt" stroke-miterlimit="10" >
	<path d="
	M 902.879 36.004 
	L 902.879 -252 
	L 1072.43 -252 
	L 1072.43 -206.523 
	L 948.293 -206.523 
	L 948.293 -135.785 
	L 1032.06 -135.785 
	L 1032.06 -89.305 
	L 948.293 -89.305 
	L 948.293 -10.48 
	L 1081.51 -10.48 
	L 1081.51 36.004 
	Z 
	"/>
</g>
<g fill="#7f7f7f" fill-rule="nonzero" stroke-width="0" stroke-linejoin="miter" stroke-linecap="butt" stroke-miterlimit="10" >
	<path d="
	M 752.605 41.055 
	C 710.164 41.055 682.875 24.887 664.688 -10.48 
	C 651.547 -35.742 643.465 -72.125 643.465 -108.504 
	C 643.465 -153.977 655.59 -199.449 675.801 -224.71 
	C 692.98 -245.93 717.238 -257.05 749.574 -257.05 
	C 793.031 -257.05 820.316 -238.86 839.52 -198.438 
	L 797.074 -180.25 
	C 780.902 -204.504 771.809 -210.57 749.574 -210.57 
	C 726.332 -210.57 711.172 -200.461 701.066 -175.195 
	C 693.992 -158.02 689.949 -132.754 689.949 -108.504 
	C 689.949 -77.176 697.023 -45.852 708.141 -27.66 
	C 718.246 -12.504 731.387 -5.42999 751.598 -5.42999 
	C 770.797 -5.42999 784.945 -15.535 796.063 -38.773 
	L 839.52 -22.605 
	C 822.34 19.836 794.043 41.055 752.605 41.055 
	Z 
	"/>
</g>
</g >
</g>
</svg>
