<?xml version="1.0" standalone="no"?>
<svg width="2160px" height="1728px" viewBox="0 -936 2160 1728 " xmlns="http://www.w3.org/2000/svg" xmlns:xlink="http://www.w3.org/1999/xlink">
<title>generated by pstoedit</title>
<!-- generated by pstoedit version:4.02 -->
<g xml:space='preserve'>
<clipPath id="clippath1"> 	<path d="
	M 0 -936 
	L 0 792 
	L 2160 792 
	L 2160 -936 
	Z 
	" style="clip-rule:nonzero"/>
</clipPath>
<g style="clip-path:url(#clippath1)"> 
<g fill="#95e8ff" fill-rule="nonzero" stroke-width="0" stroke-linejoin="miter" stroke-linecap="butt" stroke-miterlimit="10" >
	<path d="
	M 2160 684 
	C 2160 743.648 2111.65 792 2052 792 
	L 108 792 
	C 48.3516 792 0 743.648 0 684 
	L 0 -828 
	C 0 -887.65 48.3516 -936 108 -936 
	L 2052 -936 
	C 2111.65 -936 2160 -887.65 2160 -828 
	Z 
	"/>
</g>
<g fill="#7f7f7f" fill-rule="nonzero" stroke-width="0" stroke-linejoin="miter" stroke-linecap="butt" stroke-miterlimit="10" >
	<path d="
	M 108 765 
	C 63.3359 765 27 728.66 27 684 
	L 27 -828 
	C 27 -872.66 63.3359 -909 108 -909 
	L 2052 -909 
	C 2096.66 -909 2133 -872.66 2133 -828 
	L 2133 684 
	C 2133 728.66 2096.66 765 2052 765 
	Z 
	"/>
</g>
<g fill="#95e8ff" fill-rule="nonzero" stroke-width="0" stroke-linejoin="miter" stroke-linecap="butt" stroke-miterlimit="10" >
	<path d="
	M 108 720 
	C 88.1484 720 72 703.852 72 684 
	L 72 -828 
	C 72 -847.85 88.1484 -864 108 -864 
	L 2052 -864 
	C 2071.85 -864 2088 -847.85 2088 -828 
	L 2088 684 
	C 2088 703.852 2071.85 720 2052 720 
	Z 
	"/>
</g>
<g fill="#7f7f7f" fill-rule="nonzero" stroke-width="0" stroke-linejoin="miter" stroke-linecap="butt" stroke-miterlimit="10" >
	<path d="
	M 1439.26 -434.27 
	C 1432.2 -454.48 1420.1 -463.58 1401.95 -463.58 
	L 1367.66 -463.58 
	L 1367.66 -256.42 
	L 1401.95 -256.42 
	C 1426.15 -256.42 1439.26 -275.62 1443.29 -297.85 
	C 1445.31 -316.04 1447.33 -336.25 1447.33 -358.48 
	C 1447.33 -390.82 1444.3 -422.15 1439.26 -434.27 
	Z 
	M 1446.32 -229.14 
	C 1436.23 -220.04 1422.11 -216 1405.98 -216 
	L 1326.31 -216 
	L 1326.31 -504 
	L 1399.93 -504 
	C 1424.13 -504 1436.23 -500.97 1446.32 -492.88 
	C 1463.46 -480.76 1475.56 -458.52 1480.6 -429.22 
	C 1484.64 -408 1487.66 -382.73 1487.66 -360.5 
	C 1487.66 -293.81 1474.55 -251.37 1446.32 -229.14 
	Z 
	"/>
</g>
<g fill="#7f7f7f" fill-rule="nonzero" stroke-width="0" stroke-linejoin="miter" stroke-linecap="butt" stroke-miterlimit="10" >
	<path d="
	M 1545.26 -216 
	L 1545.26 -504 
	L 1681.07 -504 
	L 1681.07 -463.58 
	L 1586.82 -463.58 
	L 1586.82 -390.82 
	L 1646.61 -390.82 
	L 1646.61 -351.41 
	L 1586.82 -351.41 
	L 1586.82 -256.42 
	L 1692.21 -256.42 
	L 1692.21 -216 
	Z 
	"/>
</g>
<g fill="#7f7f7f" fill-rule="nonzero" stroke-width="0" stroke-linejoin="miter" stroke-linecap="butt" stroke-miterlimit="10" >
	<path d="
	M 587.789 -216 
	L 587.789 -346.36 
	L 509.133 -346.36 
	L 509.133 -216 
	L 467.781 -216 
	L 467.781 -504 
	L 509.133 -504 
	L 509.133 -386.78 
	L 587.789 -386.78 
	L 587.789 -504 
	L 629.133 -504 
	L 629.133 -216 
	Z 
	"/>
</g>
<g fill="#7f7f7f" fill-rule="nonzero" stroke-width="0" stroke-linejoin="miter" stroke-linecap="butt" stroke-miterlimit="10" >
	<path d="
	M 1139.04 -216 
	L 1139.04 -504 
	L 1180.59 -504 
	L 1180.59 -254.4 
	L 1285.99 -254.4 
	L 1285.99 -216 
	Z 
	"/>
</g>
<g fill="#7f7f7f" fill-rule="nonzero" stroke-width="0" stroke-linejoin="miter" stroke-linecap="butt" stroke-miterlimit="10" >
	<path d="
	M 807.867 -432.25 
	C 800.742 -457.52 789.543 -468.63 772.238 -468.63 
	C 753.918 -468.63 742.719 -457.52 735.594 -433.26 
	C 728.469 -411.03 726.434 -391.83 726.434 -359.49 
	C 726.434 -328.17 729.488 -309.98 735.594 -286.73 
	C 742.719 -262.48 753.918 -251.37 772.238 -251.37 
	C 789.543 -251.37 800.742 -262.48 807.867 -286.73 
	C 814.992 -309.98 817.027 -327.16 817.027 -360.5 
	C 817.027 -392.84 813.973 -411.03 807.867 -432.25 
	Z 
	M 840.438 -260.46 
	C 826.188 -226.11 804.813 -210.95 772.238 -210.95 
	C 737.629 -210.95 717.273 -226.11 703.02 -260.46 
	C 690.805 -288.76 686.734 -316.04 686.734 -360.5 
	C 686.734 -403.96 690.805 -433.26 703.02 -460.55 
	C 718.289 -494.91 738.648 -509.05 772.238 -509.05 
	C 805.832 -509.05 826.188 -494.91 840.438 -459.54 
	C 852.656 -431.24 856.727 -403.96 856.727 -360.5 
	C 856.727 -316.04 852.656 -287.75 840.438 -260.46 
	Z 
	"/>
</g>
<g fill="#7f7f7f" fill-rule="nonzero" stroke-width="0" stroke-linejoin="miter" stroke-linecap="butt" stroke-miterlimit="10" >
	<path d="
	M 1824.88 -463.58 
	L 1782.52 -463.58 
	L 1782.52 -390.82 
	L 1824.88 -390.82 
	C 1849.08 -390.82 1862.19 -403.96 1862.19 -427.2 
	C 1862.19 -449.43 1847.06 -463.58 1824.88 -463.58 
	Z 
	M 1860.17 -216 
	L 1821.85 -351.41 
	L 1782.52 -351.41 
	L 1782.52 -216 
	L 1741.18 -216 
	L 1741.18 -504 
	L 1826.89 -504 
	C 1872.28 -504 1902.53 -473.68 1902.53 -427.2 
	C 1902.53 -392.84 1888.41 -367.58 1861.18 -357.47 
	L 1902.53 -216 
	Z 
	"/>
</g>
<g fill="#7f7f7f" fill-rule="nonzero" stroke-width="0" stroke-linejoin="miter" stroke-linecap="butt" stroke-miterlimit="10" >
	<path d="
	M 339.477 -349 
	C 327.02 -357.07 314.918 -365.18 307.195 -370.61 
	C 283.977 -386.95 271.68 -409.01 271.68 -434.27 
	C 271.68 -475.7 304.148 -509.05 345.758 -509.05 
	C 386.352 -509.05 417.809 -477.73 418.82 -434.27 
	L 379.246 -434.27 
	C 378.23 -454.48 364.023 -467.62 345.758 -467.62 
	C 326.477 -467.62 311.254 -453.47 311.254 -434.27 
	C 311.254 -420.13 317.344 -412.04 338.652 -399.91 
	C 394.469 -367.58 418.82 -336.25 418.82 -294.82 
	C 418.82 -248.34 383.305 -210.95 338.652 -210.95 
	C 287.914 -210.95 257.473 -253.39 257.473 -300.88 
	L 298.063 -300.88 
	C 298.063 -276.63 310.238 -251.37 338.652 -251.37 
	C 360.98 -251.37 379.246 -271.58 379.246 -294.82 
	C 379.246 -312.87 371.789 -328.07 339.477 -349 
	Z 
	"/>
</g>
<g fill="#7f7f7f" fill-rule="nonzero" stroke-width="0" stroke-linejoin="miter" stroke-linecap="butt" stroke-miterlimit="10" >
	<path d="
	M 1064.59 -251.37 
	C 1050.47 -228.13 1023.24 -210.95 996.012 -210.95 
	C 967.773 -210.95 939.535 -227.12 925.418 -251.37 
	C 917.352 -266.52 914.324 -278.65 914.324 -301.89 
	L 914.324 -504 
	L 955.672 -504 
	L 955.672 -296.84 
	C 955.672 -269.56 971.809 -251.37 996.012 -251.37 
	C 1018.2 -251.37 1034.33 -269.56 1034.33 -296.84 
	L 1034.33 -504 
	L 1075.68 -504 
	L 1075.68 -301.89 
	C 1075.68 -278.65 1072.65 -266.52 1064.59 -251.37 
	Z 
	"/>
</g>
<g fill="#7f7f7f" fill-rule="nonzero" stroke-width="0" stroke-linejoin="miter" stroke-linecap="butt" stroke-miterlimit="10" >
	<path d="
	M 1618.46 112.422 
	L 1618.46 185.18 
	L 1676.23 185.18 
	L 1676.23 224.59 
	L 1618.46 224.59 
	L 1618.46 360 
	L 1576.91 360 
	L 1576.91 72 
	L 1723.86 72 
	L 1723.86 112.422 
	Z 
	"/>
</g>
<g fill="#7f7f7f" fill-rule="nonzero" stroke-width="0" stroke-linejoin="miter" stroke-linecap="butt" stroke-miterlimit="10" >
	<path d="
	M 1805.73 112.422 
	L 1805.73 185.18 
	L 1863.5 185.18 
	L 1863.5 224.59 
	L 1805.73 224.59 
	L 1805.73 360 
	L 1764.18 360 
	L 1764.18 72 
	L 1911.13 72 
	L 1911.13 112.422 
	Z 
	"/>
</g>
<g fill="#7f7f7f" fill-rule="nonzero" stroke-width="0" stroke-linejoin="miter" stroke-linecap="butt" stroke-miterlimit="10" >
	<path d="
	M 1470.45 143.75 
	C 1463.32 118.48 1452.13 107.371 1434.82 107.371 
	C 1416.5 107.371 1405.3 118.48 1398.18 142.738 
	C 1391.05 164.969 1389.02 184.172 1389.02 216.5 
	C 1389.02 247.828 1392.07 266.02 1398.18 289.262 
	C 1405.3 313.512 1416.5 324.629 1434.82 324.629 
	C 1452.13 324.629 1463.32 313.512 1470.45 289.262 
	C 1477.57 266.02 1479.61 248.84 1479.61 215.5 
	C 1479.61 183.16 1476.55 164.969 1470.45 143.75 
	Z 
	M 1503.02 315.539 
	C 1488.77 349.891 1467.39 365.051 1434.82 365.051 
	C 1400.21 365.051 1379.85 349.891 1365.6 315.539 
	C 1353.39 287.238 1349.32 259.961 1349.32 215.5 
	C 1349.32 172.039 1353.39 142.738 1365.6 115.449 
	C 1380.87 81.09 1401.23 66.949 1434.82 66.949 
	C 1468.41 66.949 1488.77 81.09 1503.02 116.461 
	C 1515.24 144.762 1519.31 172.039 1519.31 215.5 
	C 1519.31 259.961 1515.24 288.25 1503.02 315.539 
	Z 
	"/>
</g>
<g fill="#7f7f7f" fill-rule="nonzero" stroke-width="0" stroke-linejoin="miter" stroke-linecap="butt" stroke-miterlimit="10" >
	<path d="
	M 361.816 141.719 
	C 354.758 121.512 342.652 112.422 324.504 112.422 
	L 290.215 112.422 
	L 290.215 319.578 
	L 324.504 319.578 
	C 348.707 319.578 361.816 300.379 365.848 278.148 
	C 367.863 259.961 369.883 239.75 369.883 217.512 
	C 369.883 185.18 366.855 153.852 361.816 141.719 
	Z 
	M 368.871 346.859 
	C 358.789 355.961 344.672 360 328.535 360 
	L 248.867 360 
	L 248.867 72 
	L 322.484 72 
	C 346.688 72 358.789 75.031 368.871 83.109 
	C 386.02 95.238 398.121 117.469 403.16 146.781 
	C 407.195 168 410.223 193.262 410.223 215.5 
	C 410.223 282.191 397.109 324.629 368.871 346.859 
	Z 
	"/>
</g>
<g fill="#7f7f7f" fill-rule="nonzero" stroke-width="0" stroke-linejoin="miter" stroke-linecap="butt" stroke-miterlimit="10" >
	<path d="
	M 793.508 143.75 
	C 786.383 118.48 775.184 107.371 757.879 107.371 
	C 739.555 107.371 728.359 118.48 721.234 142.738 
	C 714.109 164.969 712.074 184.172 712.074 216.5 
	C 712.074 247.828 715.129 266.02 721.234 289.262 
	C 728.359 313.512 739.555 324.629 757.879 324.629 
	C 775.184 324.629 786.383 313.512 793.508 289.262 
	C 800.633 266.02 802.668 248.84 802.668 215.5 
	C 802.668 183.16 799.613 164.969 793.508 143.75 
	Z 
	M 826.078 315.539 
	C 811.828 349.891 790.453 365.051 757.879 365.051 
	C 723.27 365.051 702.91 349.891 688.66 315.539 
	C 676.445 287.238 672.375 259.961 672.375 215.5 
	C 672.375 172.039 676.445 142.738 688.66 115.449 
	C 703.93 81.09 724.289 66.949 757.879 66.949 
	C 791.473 66.949 811.828 81.09 826.078 116.461 
	C 838.297 144.762 842.367 172.039 842.367 215.5 
	C 842.367 259.961 838.297 288.25 826.078 315.539 
	Z 
	"/>
</g>
<g fill="#7f7f7f" fill-rule="nonzero" stroke-width="0" stroke-linejoin="miter" stroke-linecap="butt" stroke-miterlimit="10" >
	<path d="
	M 983.668 112.422 
	L 941.313 112.422 
	L 941.313 194.27 
	L 983.668 194.27 
	C 1007.87 194.27 1020.98 179.109 1020.98 152.84 
	C 1020.98 128.59 1005.85 112.422 983.668 112.422 
	Z 
	M 985.684 233.68 
	L 941.313 233.68 
	L 941.313 360 
	L 899.965 360 
	L 899.965 72 
	L 985.684 72 
	C 1031.06 72 1061.32 104.34 1061.32 152.84 
	C 1061.32 205.391 1034.09 233.68 985.684 233.68 
	Z 
	"/>
</g>
<g fill="#7f7f7f" fill-rule="nonzero" stroke-width="0" stroke-linejoin="miter" stroke-linecap="butt" stroke-miterlimit="10" >
	<path d="
	M 551.523 112.422 
	L 509.168 112.422 
	L 509.168 185.18 
	L 551.523 185.18 
	C 575.727 185.18 588.836 172.039 588.836 148.801 
	C 588.836 126.57 573.711 112.422 551.523 112.422 
	Z 
	M 586.816 360 
	L 548.496 224.59 
	L 509.168 224.59 
	L 509.168 360 
	L 467.82 360 
	L 467.82 72 
	L 553.539 72 
	C 598.922 72 629.176 102.32 629.176 148.801 
	C 629.176 183.16 615.055 208.422 587.828 218.531 
	L 629.176 360 
	Z 
	"/>
</g>
<g fill="#7f7f7f" fill-rule="nonzero" stroke-width="0" stroke-linejoin="miter" stroke-linecap="butt" stroke-miterlimit="10" >
	<path d="
	M 1133.32 241.77 
	L 1133.32 203.371 
	L 1277.32 203.371 
	L 1277.32 241.77 
	Z 
	"/>
</g>
</g >
</g>
</svg>
