<?xml version="1.0" standalone="no"?>
<svg width="2160px" height="1728px" viewBox="0 -936 2160 1728 " xmlns="http://www.w3.org/2000/svg" xmlns:xlink="http://www.w3.org/1999/xlink">
<title>generated by pstoedit</title>
<!-- generated by pstoedit version:4.02 -->
<g xml:space='preserve'>
<clipPath id="clippath1"> 	<path d="
	M 0 -936 
	L 0 792 
	L 2160 792 
	L 2160 -936 
	Z 
	" style="clip-rule:nonzero"/>
</clipPath>
<g style="clip-path:url(#clippath1)"> 
<g fill="#95e8ff" fill-rule="nonzero" stroke-width="0" stroke-linejoin="miter" stroke-linecap="butt" stroke-miterlimit="10" >
	<path d="
	M 2160 684 
	C 2160 743.648 2111.65 792 2052 792 
	L 108 792 
	C 48.3516 792 0 743.648 0 684 
	L 0 -828 
	C 0 -887.65 48.3516 -936 108 -936 
	L 2052 -936 
	C 2111.65 -936 2160 -887.65 2160 -828 
	Z 
	"/>
</g>
<g fill="#7f7f7f" fill-rule="nonzero" stroke-width="0" stroke-linejoin="miter" stroke-linecap="butt" stroke-miterlimit="10" >
	<path d="
	M 108 765 
	C 63.3359 765 27 728.66 27 684 
	L 27 -828 
	C 27 -872.66 63.3359 -909 108 -909 
	L 2052 -909 
	C 2096.66 -909 2133 -872.66 2133 -828 
	L 2133 684 
	C 2133 728.66 2096.66 765 2052 765 
	Z 
	"/>
</g>
<g fill="#95e8ff" fill-rule="nonzero" stroke-width="0" stroke-linejoin="miter" stroke-linecap="butt" stroke-miterlimit="10" >
	<path d="
	M 108 720 
	C 88.1484 720 72 703.852 72 684 
	L 72 -828 
	C 72 -847.85 88.1484 -864 108 -864 
	L 2052 -864 
	C 2071.85 -864 2088 -847.85 2088 -828 
	L 2088 684 
	C 2088 703.852 2071.85 720 2052 720 
	Z 
	"/>
</g>
<g fill="#7f7f7f" fill-rule="nonzero" stroke-width="0" stroke-linejoin="miter" stroke-linecap="butt" stroke-miterlimit="10" >
	<path d="
	M 906.141 151.578 
	C 894.742 132.629 880.816 125.051 859.289 123.789 
	C 831.43 122.531 813.703 136.422 801.043 168 
	C 792.18 189.469 787.113 222.32 787.113 252.629 
	C 787.113 290.531 794.711 329.691 808.637 352.422 
	C 820.035 371.371 835.23 380.211 858.023 380.211 
	C 884.613 380.211 901.074 366.32 913.738 334.738 
	C 921.336 315.789 927.668 280.422 927.668 252.629 
	C 927.668 212.211 920.066 175.578 906.141 151.578 
	Z 
	M 945.395 397.898 
	C 925.133 425.691 896.008 438.32 858.023 438.32 
	C 807.371 438.32 775.715 418.109 754.188 373.898 
	C 738.996 343.578 728.867 295.578 728.867 252.629 
	C 728.867 193.262 744.059 140.211 768.121 106.109 
	C 789.645 78.32 818.77 65.691 860.555 65.691 
	C 906.141 65.691 937.797 85.898 960.59 130.109 
	C 975.781 161.691 984.645 207.16 984.645 252.629 
	C 984.645 309.469 970.719 366.32 945.395 397.898 
	Z 
	"/>
</g>
<g fill="#7f7f7f" fill-rule="nonzero" stroke-width="0" stroke-linejoin="miter" stroke-linecap="butt" stroke-miterlimit="10" >
	<path d="
	M 1063.84 432 
	L 1063.84 72 
	L 1121.44 72 
	L 1121.44 432 
	Z 
	"/>
</g>
<g fill="#7f7f7f" fill-rule="nonzero" stroke-width="0" stroke-linejoin="miter" stroke-linecap="butt" stroke-miterlimit="10" >
	<path d="
	M 1207.84 432 
	L 1207.84 72 
	L 1264.61 72 
	L 1264.61 378.949 
	L 1431.13 378.949 
	L 1431.13 432 
	Z 
	"/>
</g>
<g fill="#7f7f7f" fill-rule="nonzero" stroke-width="0" stroke-linejoin="miter" stroke-linecap="butt" stroke-miterlimit="10" >
	<path d="
	M 1597.59 -237.47 
	C 1577.38 -219.79 1549.59 -209.68 1519.27 -209.68 
	C 1457.37 -209.68 1411.89 -246.31 1387.89 -300.63 
	L 1442.21 -320.84 
	C 1457.37 -286.74 1485.16 -267.79 1519.27 -267.79 
	C 1552.11 -267.79 1574.85 -290.53 1574.85 -320.84 
	C 1574.85 -368.84 1519.27 -376.42 1472.53 -395.37 
	C 1451.05 -404.21 1403.05 -425.68 1403.05 -485.05 
	C 1403.05 -555.79 1451.05 -582.31 1515.48 -582.31 
	C 1566.01 -582.31 1600.12 -553.26 1617.8 -509.05 
	L 1567.27 -493.89 
	C 1567.27 -493.89 1554.64 -524.21 1514.21 -525.47 
	C 1487.69 -526.73 1456.1 -516.63 1458.63 -483.79 
	C 1463.69 -416.84 1632.96 -461.05 1632.96 -319.58 
	C 1632.96 -286.74 1620.33 -257.68 1597.59 -237.47 
	Z 
	"/>
</g>
<g fill="#7f7f7f" fill-rule="nonzero" stroke-width="0" stroke-linejoin="miter" stroke-linecap="butt" stroke-miterlimit="10" >
	<path d="
	M 1878.66 -237.47 
	C 1858.45 -219.79 1830.66 -209.68 1800.34 -209.68 
	C 1738.44 -209.68 1692.96 -246.31 1668.96 -300.63 
	L 1723.28 -320.84 
	C 1738.44 -286.74 1766.23 -267.79 1800.34 -267.79 
	C 1833.18 -267.79 1855.92 -290.53 1855.92 -320.84 
	C 1855.92 -368.84 1800.34 -376.42 1753.6 -395.37 
	C 1732.12 -404.21 1684.12 -425.68 1684.12 -485.05 
	C 1684.12 -555.79 1732.12 -582.31 1796.55 -582.31 
	C 1847.08 -582.31 1881.19 -553.26 1898.87 -509.05 
	L 1848.34 -493.89 
	C 1848.34 -493.89 1835.71 -524.21 1795.29 -525.47 
	C 1768.76 -526.73 1737.17 -516.63 1739.7 -483.79 
	C 1744.75 -416.84 1914.03 -461.05 1914.03 -319.58 
	C 1914.03 -286.74 1901.39 -257.68 1878.66 -237.47 
	Z 
	"/>
</g>
<g fill="#7f7f7f" fill-rule="nonzero" stroke-width="0" stroke-linejoin="miter" stroke-linecap="butt" stroke-miterlimit="10" >
	<path d="
	M 685.902 -216 
	L 627.793 -336 
	L 569.688 -216 
	L 505.262 -216 
	L 594.949 -401.68 
	L 511.574 -576 
	L 576.004 -576 
	L 627.793 -468.63 
	L 679.59 -576 
	L 744.016 -576 
	L 659.375 -401.68 
	L 750.332 -216 
	Z 
	"/>
</g>
<g fill="#7f7f7f" fill-rule="nonzero" stroke-width="0" stroke-linejoin="miter" stroke-linecap="butt" stroke-miterlimit="10" >
	<path d="
	M 245.973 -216 
	L 245.973 -576 
	L 457.906 -576 
	L 457.906 -519.16 
	L 302.738 -519.16 
	L 302.738 -430.73 
	L 407.445 -430.73 
	L 407.445 -372.63 
	L 302.738 -372.63 
	L 302.738 -274.11 
	L 469.262 -274.11 
	L 469.262 -216 
	Z 
	"/>
</g>
<g fill="#7f7f7f" fill-rule="nonzero" stroke-width="0" stroke-linejoin="miter" stroke-linecap="butt" stroke-miterlimit="10" >
	<path d="
	M 1128.6 -216 
	L 1128.6 -576 
	L 1340.53 -576 
	L 1340.53 -519.16 
	L 1185.37 -519.16 
	L 1185.37 -430.73 
	L 1290.07 -430.73 
	L 1290.07 -372.63 
	L 1185.37 -372.63 
	L 1185.37 -274.11 
	L 1351.89 -274.11 
	L 1351.89 -216 
	Z 
	"/>
</g>
<g fill="#7f7f7f" fill-rule="nonzero" stroke-width="0" stroke-linejoin="miter" stroke-linecap="butt" stroke-miterlimit="10" >
	<path d="
	M 940.758 -209.68 
	C 887.703 -209.68 853.594 -229.89 830.855 -274.11 
	C 814.434 -305.68 804.328 -351.16 804.328 -396.63 
	C 804.328 -453.47 819.488 -510.32 844.754 -541.89 
	C 866.227 -568.42 896.547 -582.31 936.969 -582.31 
	C 991.289 -582.31 1025.4 -559.58 1049.4 -509.05 
	L 996.344 -486.32 
	C 976.129 -516.63 964.762 -524.21 936.969 -524.21 
	C 907.914 -524.21 888.965 -511.58 876.336 -480 
	C 867.492 -458.52 862.438 -426.95 862.438 -396.63 
	C 862.438 -357.47 871.281 -318.31 885.176 -295.58 
	C 897.809 -276.63 914.23 -267.79 939.496 -267.79 
	C 963.496 -267.79 981.184 -280.42 995.078 -309.47 
	L 1049.4 -289.26 
	C 1027.92 -236.21 992.555 -209.68 940.758 -209.68 
	Z 
	"/>
</g>
</g >
</g>
</svg>
