<?xml version="1.0" standalone="no"?>
<svg width="2592px" height="2160px" viewBox="0 -1368 2592 2160 " xmlns="http://www.w3.org/2000/svg" xmlns:xlink="http://www.w3.org/1999/xlink">
<title>generated by pstoedit</title>
<!-- generated by pstoedit version:4.02 -->
<g xml:space='preserve'>
<clipPath id="clippath1"> 	<path d="
	M 0 -1368.5 
	L 0 792 
	L 2592.5 792 
	L 2592.5 -1368.5 
	Z 
	" style="clip-rule:nonzero"/>
</clipPath>
<g style="clip-path:url(#clippath1)"> 
<g fill="#95e8ff" fill-rule="nonzero" stroke-width="0" stroke-linejoin="miter" stroke-linecap="butt" stroke-miterlimit="10" >
	<path d="
	M 2592.25 656.75 
	C 2592.25 731.309 2531.81 791.75 2457.25 791.75 
	L 135.25 791.75 
	C 60.6914 791.75 0.25 731.309 0.25 656.75 
	L 0.25 -1233.25 
	C 0.25 -1307.81 60.6914 -1368.25 135.25 -1368.25 
	L 2457.25 -1368.25 
	C 2531.81 -1368.25 2592.25 -1307.81 2592.25 -1233.25 
	Z 
	"/>
</g>
<g stroke="#7f7f7f" fill="none" stroke-width="0.5" stroke-linejoin="miter" stroke-linecap="butt" stroke-miterlimit="4" >
	<path d="
	M 2592.25 656.75 
	C 2592.25 731.309 2531.81 791.75 2457.25 791.75 
	L 135.25 791.75 
	C 60.6914 791.75 0.25 731.309 0.25 656.75 
	L 0.25 -1233.25 
	C 0.25 -1307.81 60.6914 -1368.25 135.25 -1368.25 
	L 2457.25 -1368.25 
	C 2531.81 -1368.25 2592.25 -1307.81 2592.25 -1233.25 
	Z 
	"/>
</g>
<g fill="#7f7f7f" fill-rule="nonzero" stroke-width="0" stroke-linejoin="miter" stroke-linecap="butt" stroke-miterlimit="4" >
	<path d="
	M 2502.25 656.75 
	C 2502.25 681.559 2482.06 701.75 2457.25 701.75 
	L 135.25 701.75 
	C 110.438 701.75 90.25 681.559 90.25 656.75 
	L 90.25 -1233.25 
	C 90.25 -1258.06 110.438 -1278.25 135.25 -1278.25 
	L 2457.25 -1278.25 
	C 2482.06 -1278.25 2502.25 -1258.06 2502.25 -1233.25 
	Z 
	M 2457.25 -1332.25 
	L 135.25 -1332.25 
	C 80.6602 -1332.25 36.25 -1287.84 36.25 -1233.25 
	L 36.25 656.75 
	C 36.25 711.34 80.6602 755.75 135.25 755.75 
	L 2457.25 755.75 
	C 2511.84 755.75 2556.25 711.34 2556.25 656.75 
	L 2556.25 -1233.25 
	C 2556.25 -1287.84 2511.84 -1332.25 2457.25 -1332.25 
	Z 
	"/>
</g>
<g fill="#7f7f7f" fill-rule="evenodd" stroke-width="0" stroke-linejoin="miter" stroke-linecap="butt" stroke-miterlimit="4" >
	<path d="
	M 1520.67 -797.34 
	C 1493.82 -798.27 1473.14 -816.52 1458.63 -852.11 
	C 1449.05 -880.05 1440.88 -908.93 1408.63 -921.73 
	C 1384.24 -926.67 1370.66 -937.81 1380.85 -962.57 
	C 1404.15 -1013 1441.5 -1043.32 1499.38 -1044.25 
	C 1577.47 -1037.14 1619.76 -995.36 1626.24 -918.94 
	C 1625.62 -853.65 1590.43 -813.12 1520.67 -797.34 
	Z 
	"/>
</g>
<g fill="#7f7f7f" fill-rule="evenodd" stroke-width="0" stroke-linejoin="miter" stroke-linecap="butt" stroke-miterlimit="4" >
	<path d="
	M 410.418 121.16 
	C 410.418 -19.102 524.539 -133.5 664.461 -133.5 
	C 707.492 -133.5 748.082 -122.672 783.66 -103.59 
	L 691.977 36.172 
	C 683.305 33.328 674.055 31.801 664.461 31.801 
	C 615.359 31.801 575.316 71.941 575.316 121.16 
	C 575.316 170.371 615.359 210.512 664.461 210.512 
	C 713.559 210.512 753.605 170.371 753.605 121.16 
	C 753.605 97.531 744.371 75.988 729.344 59.988 
	L 819.289 -80.48 
	C 879.559 -33.852 918.508 39.23 918.508 121.16 
	C 918.508 261.41 804.383 375.809 664.461 375.809 
	C 524.539 375.809 410.418 261.41 410.418 121.16 
	Z 
	M 1045.62 -410.25 
	C 1073.54 -450.49 1101.47 -490.73 1129.4 -530.97 
	C 1139.13 -539.16 1148.53 -544.32 1155.58 -528.34 
	C 1175.07 -506.1 1193.73 -499.74 1210.55 -528.34 
	C 1219.25 -549.27 1240.77 -549.96 1268.15 -541.46 
	C 1338.83 -521.34 1409.52 -501.23 1480.2 -481.11 
	C 1487.19 -480.71 1494.17 -481.32 1501.14 -488.98 
	C 1522.09 -502.98 1543.04 -516.97 1563.97 -530.97 
	C 1599.76 -475.86 1635.54 -420.75 1671.32 -365.64 
	C 1668.7 -375.45 1427.84 -324.69 1427.84 -318.4 
	C 1406.76 -313.26 1391.18 -315.48 1378.1 -321.03 
	C 1333.6 -345.52 1289.09 -370.02 1244.59 -394.51 
	C 1175.43 -435.29 1109.44 -436.36 1045.62 -410.25 
	Z 
	M 1099.67 -213.02 
	C 1160.99 -211.95 1222.32 -210.88 1283.64 -209.8 
	C 1290.77 -211.59 1297.9 -209.09 1305.04 -202.301 
	C 1313.23 -189.441 1321.43 -176.559 1329.63 -163.699 
	C 1332.84 -156.199 1330.35 -151.551 1322.15 -149.762 
	C 1292.55 -150.48 1262.96 -151.191 1233.37 -151.91 
	C 1195.58 -151.551 1179.18 -136.898 1184.17 -107.949 
	C 1188.44 -63.629 1192.72 -19.309 1197 25 
	C 1195.58 35.371 1189.87 35.719 1179.88 26.07 
	C 1148.51 -46.121 1117.14 -118.309 1085.76 -190.512 
	C 1084.31 -199.531 1076.78 -210.09 1099.67 -213.02 
	Z 
	M 1423.76 45.379 
	L 1429.11 -5.02002 
	L 1462.27 48.59 
	Z 
	M 1731.35 -130.641 
	L 1753.06 -96.172 
	C 1674.04 -31.961 1629.93 69.102 1636.58 170.711 
	C 1629.62 171.781 1622.66 172.84 1615.7 173.898 
	C 1613.38 44.352 1647.35 -60.309 1731.35 -130.641 
	Z 
	M 1805.89 -20.648 
	L 1867.27 71.328 
	C 1850.84 89.871 1840.25 113.719 1838.44 139.922 
	C 1801.32 145.578 1764.2 151.25 1727.16 156.82 
	C 1724.38 91.09 1755.68 21.5 1805.89 -20.648 
	Z 
	M 1737.68 217.961 
	C 1774.92 212.281 1812.89 206.449 1850.85 200.621 
	C 1870.02 237.969 1908.87 263.609 1953.51 263.609 
	C 2017.05 263.609 2068.87 211.672 2068.87 147.98 
	C 2068.87 84.289 2017.05 32.34 1953.51 32.34 
	C 1940.41 32.34 1927.82 34.551 1916.07 38.609 
	L 1853.84 -51.852 
	C 1883.52 -65.922 1918.68 -74.73 1952.09 -74.73 
	C 2076.02 -74.73 2177.11 26.602 2177.11 150.828 
	C 2177.11 275.059 2076.02 376.539 1952.09 376.391 
	C 1852.25 376.27 1765.53 306.422 1737.68 217.961 
	Z 
	M 324.25 121.73 
	C 324.25 308.609 476.301 461.02 662.73 461.02 
	C 849.156 461.02 1001.21 308.609 1001.21 121.73 
	C 1001.21 11.82 948.594 -86.148 867.336 -148.23 
	C 884.688 -172.488 873.09 -153.539 926.535 -231.69 
	C 1003.33 -170.422 1043.74 -94.809 1049.23 1.19897 
	C 1051.13 34.371 1080.62 63.648 1083.16 48.301 
	C 1098.44 -43.762 1069.52 -139.219 957.859 -239.54 
	C 958.734 -280.54 973.523 -293.62 1002.24 -278.79 
	C 1073.6 -115.68 1144.95 47.422 1216.3 210.539 
	C 1222.39 225.359 1235.44 233.211 1255.46 234.09 
	C 1375.54 234.961 1495.62 235.828 1615.7 236.699 
	C 1625.81 235.148 1635.91 233.602 1646.15 232.109 
	C 1681.95 367.23 1805.67 467.57 1952.09 467.75 
	C 2126.22 467.98 2268.25 325.391 2268.25 150.828 
	C 2268.25 -23.719 2126.22 -166.09 1952.09 -166.09 
	C 1900.22 -166.09 1848.34 -152.48 1802.04 -128.801 
	L 1777.83 -163.059 
	C 1782.83 -165.961 1787.95 -168.789 1793.22 -171.5 
	C 1927.22 -237.8 2054.26 -241.29 2174.35 -181.969 
	C 2187.39 -188.961 2200.45 -195.93 2213.5 -202.91 
	C 2156.07 -243.9 2084.72 -270.94 1999.45 -284.03 
	C 1997.7 -300.6 1995.96 -317.17 1994.22 -333.74 
	C 1989.71 -350.32 1980.14 -356.42 1965.5 -352.06 
	C 1929.83 -343.34 1894.15 -334.62 1858.48 -325.9 
	C 1852.46 -517.16 1815.95 -694.68 1670.52 -823.07 
	C 1655.84 -833.22 1644.53 -833.22 1636.59 -823.07 
	C 1608.74 -803.89 1580.9 -784.7 1553.05 -765.51 
	C 1528.17 -746.31 1521.07 -727.13 1516.5 -707.94 
	C 1498.23 -666.94 1479.96 -625.95 1461.68 -584.95 
	C 1368.58 -598.91 1275.47 -605.88 1182.36 -605.88 
	C 1136.18 -603.32 1114.45 -582.36 1096.22 -558.78 
	C 1033.57 -468.07 970.914 -377.36 908.262 -286.64 
	C 809.938 -353.81 685.492 -379.18 550.629 -320.66 
	C 525.211 -309.63 546.617 -277.74 579.344 -289.26 
	C 685.551 -326.64 784.703 -325.9 887.383 -260.48 
	C 832.766 -178.691 849.383 -203.25 829.508 -173.32 
	C 780.234 -201.461 723.301 -217.56 662.73 -217.56 
	C 476.301 -217.56 324.25 -65.141 324.25 121.73 
	Z 
	"/>
</g>
<g fill="#7f7f7f" fill-rule="evenodd" stroke-width="0" stroke-linejoin="miter" stroke-linecap="butt" stroke-miterlimit="4" >
	<path d="
	M 941.449 -368.94 
	C 933.363 -364.1 926.02 -363.77 919.434 -367.93 
	C 905.938 -390.88 900.445 -414.71 900.414 -439.16 
	C 898.07 -462.94 901.805 -486.11 914.426 -508.38 
	C 920.441 -517.96 929.449 -519.3 941.449 -512.39 
	C 969.59 -496.41 981.277 -472.17 985.484 -444.18 
	C 983.121 -406.02 969.234 -380.1 941.449 -368.94 
	Z 
	"/>
</g>
</g >
</g>
</svg>
