<?xml version="1.0" standalone="no"?>
<svg width="2160px" height="1728px" viewBox="0 -936 2160 1728 " xmlns="http://www.w3.org/2000/svg" xmlns:xlink="http://www.w3.org/1999/xlink">
<title>generated by pstoedit</title>
<!-- generated by pstoedit version:4.02 -->
<g xml:space='preserve'>
<clipPath id="clippath1"> 	<path d="
	M 0 -936.5 
	L 0 792 
	L 2160.5 792 
	L 2160.5 -936.5 
	Z 
	" style="clip-rule:nonzero"/>
</clipPath>
<g style="clip-path:url(#clippath1)"> 
<g fill="#95e8ff" fill-rule="nonzero" stroke-width="0" stroke-linejoin="miter" stroke-linecap="butt" stroke-miterlimit="10" >
	<path d="
	M 2160.25 683.75 
	C 2160.25 743.398 2111.9 791.75 2052.25 791.75 
	L 108.25 791.75 
	C 48.6016 791.75 0.25 743.398 0.25 683.75 
	L 0.25 -828.25 
	C 0.25 -887.9 48.6016 -936.25 108.25 -936.25 
	L 2052.25 -936.25 
	C 2111.9 -936.25 2160.25 -887.9 2160.25 -828.25 
	Z 
	"/>
</g>
<g stroke="#7f7f7f" fill="none" stroke-width="0.5" stroke-linejoin="miter" stroke-linecap="butt" stroke-miterlimit="4" >
	<path d="
	M 2160.25 683.75 
	C 2160.25 743.398 2111.9 791.75 2052.25 791.75 
	L 108.25 791.75 
	C 48.6016 791.75 0.25 743.398 0.25 683.75 
	L 0.25 -828.25 
	C 0.25 -887.9 48.6016 -936.25 108.25 -936.25 
	L 2052.25 -936.25 
	C 2111.9 -936.25 2160.25 -887.9 2160.25 -828.25 
	Z 
	"/>
</g>
<g fill="#7f7f7f" fill-rule="nonzero" stroke-width="0" stroke-linejoin="miter" stroke-linecap="butt" stroke-miterlimit="4" >
	<path d="
	M 2088.25 683.75 
	C 2088.25 703.602 2072.1 719.75 2052.25 719.75 
	L 108.25 719.75 
	C 88.3984 719.75 72.25 703.602 72.25 683.75 
	L 72.25 -828.25 
	C 72.25 -848.1 88.3984 -864.25 108.25 -864.25 
	L 2052.25 -864.25 
	C 2072.1 -864.25 2088.25 -848.1 2088.25 -828.25 
	Z 
	M 2052.25 -909.25 
	L 108.25 -909.25 
	C 63.5859 -909.25 27.25 -872.91 27.25 -828.25 
	L 27.25 683.75 
	C 27.25 728.41 63.5859 764.75 108.25 764.75 
	L 2052.25 764.75 
	C 2096.91 764.75 2133.25 728.41 2133.25 683.75 
	L 2133.25 -828.25 
	C 2133.25 -872.91 2096.91 -909.25 2052.25 -909.25 
	Z 
	"/>
</g>
<g fill="#7f7f7f" fill-rule="evenodd" stroke-width="0" stroke-linejoin="miter" stroke-linecap="butt" stroke-miterlimit="4" >
	<path d="
	M 1267.27 -496.49 
	C 1244.89 -497.27 1227.66 -512.48 1215.57 -542.13 
	C 1207.58 -565.42 1200.78 -589.48 1173.9 -600.14 
	C 1153.58 -604.27 1142.25 -613.55 1150.75 -634.18 
	C 1170.17 -676.2 1201.29 -701.48 1249.52 -702.25 
	C 1314.6 -696.32 1349.84 -661.51 1355.24 -597.82 
	C 1354.73 -543.42 1325.4 -509.64 1267.27 -496.49 
	Z 
	"/>
</g>
<g fill="#7f7f7f" fill-rule="evenodd" stroke-width="0" stroke-linejoin="miter" stroke-linecap="butt" stroke-miterlimit="4" >
	<path d="
	M 342.055 268.922 
	C 342.055 152.039 437.156 56.707 553.762 56.707 
	C 589.617 56.707 623.441 65.738 653.09 81.629 
	L 576.691 198.102 
	C 569.461 195.738 561.754 194.449 553.762 194.449 
	C 512.84 194.449 479.473 227.91 479.473 268.922 
	C 479.473 309.93 512.84 343.379 553.762 343.379 
	C 594.672 343.379 628.047 309.93 628.047 268.922 
	C 628.047 249.23 620.352 231.289 607.828 217.949 
	L 682.781 100.891 
	C 733.008 139.75 765.465 200.648 765.465 268.922 
	C 765.465 385.801 670.363 481.129 553.762 481.129 
	C 437.156 481.129 342.055 385.801 342.055 268.922 
	Z 
	M 871.395 -173.918 
	C 894.664 -207.449 917.938 -240.98 941.207 -274.51 
	C 949.32 -281.34 957.148 -285.64 963.023 -272.33 
	C 979.27 -253.79 994.816 -248.49 1008.83 -272.33 
	C 1016.08 -289.77 1034.02 -290.34 1056.83 -283.26 
	C 1115.74 -266.49 1174.64 -249.73 1233.54 -232.96 
	C 1239.37 -232.63 1245.18 -233.14 1251 -239.52 
	C 1268.45 -251.19 1285.9 -262.85 1303.35 -274.51 
	C 1333.18 -228.59 1362.99 -182.664 1392.8 -136.742 
	C 1390.63 -144.91 1189.91 -102.617 1189.91 -97.375 
	C 1172.34 -93.094 1159.36 -94.938 1148.46 -99.563 
	C 1111.37 -119.98 1074.29 -140.387 1037.2 -160.801 
	C 979.566 -194.781 924.574 -195.672 871.395 -173.918 
	Z 
	M 916.434 -9.55902 
	C 967.535 -8.664 1018.64 -7.77301 1069.74 -6.87903 
	C 1075.68 -8.367 1081.62 -6.289 1087.57 -0.629028 
	C 1094.4 10.094 1101.24 20.82 1108.07 31.543 
	C 1110.74 37.793 1108.66 41.668 1101.83 43.156 
	C 1077.17 42.559 1052.51 41.965 1027.85 41.367 
	C 996.355 41.664 982.688 53.879 986.848 78 
	C 990.41 114.93 993.977 151.859 997.543 188.789 
	C 996.355 197.43 991.602 197.73 983.277 189.691 
	C 957.137 129.531 930.988 69.371 904.84 9.19897 
	C 903.633 1.67999 897.359 -7.117 916.434 -9.55902 
	Z 
	M 1186.51 205.77 
	L 1190.97 163.781 
	L 1218.6 208.449 
	Z 
	M 1442.83 59.09 
	L 1460.93 87.809 
	C 1395.08 141.328 1358.31 225.539 1363.86 310.219 
	C 1358.06 311.102 1352.26 311.988 1346.46 312.879 
	C 1344.52 204.922 1372.83 117.699 1442.83 59.09 
	Z 
	M 1504.95 150.75 
	L 1556.1 227.398 
	C 1542.41 242.852 1533.58 262.73 1532.07 284.559 
	C 1501.14 289.281 1470.21 294 1439.34 298.641 
	C 1437.03 243.859 1463.11 185.871 1504.95 150.75 
	Z 
	M 1448.11 349.59 
	C 1479.14 344.852 1510.78 340 1542.42 335.141 
	C 1558.39 366.262 1590.77 387.629 1627.97 387.629 
	C 1680.92 387.629 1724.1 344.34 1724.1 291.27 
	C 1724.1 238.191 1680.92 194.91 1627.97 194.91 
	C 1617.05 194.91 1606.55 196.75 1596.77 200.129 
	L 1544.9 124.75 
	C 1569.64 113.031 1598.95 105.68 1626.78 105.68 
	C 1730.06 105.68 1814.3 190.121 1814.3 293.648 
	C 1814.3 397.18 1730.06 481.738 1626.78 481.621 
	C 1543.59 481.512 1471.32 423.309 1448.11 349.59 
	Z 
	M 270.25 269.398 
	C 270.25 425.129 396.957 552.141 552.316 552.141 
	C 707.672 552.141 834.383 425.129 834.383 269.398 
	C 834.383 177.809 790.535 96.16 722.82 44.434 
	C 737.281 24.215 727.617 40.008 772.152 -25.117 
	C 836.152 25.941 869.824 88.949 874.398 168.961 
	C 875.98 196.602 900.559 221 902.676 208.211 
	C 915.402 131.488 891.305 51.941 798.258 -31.66 
	C 798.984 -65.82 811.313 -76.727 835.242 -64.367 
	C 894.703 71.551 954.164 207.48 1013.62 343.398 
	C 1018.7 355.762 1029.58 362.301 1046.25 363.031 
	C 1146.32 363.762 1246.39 364.48 1346.46 365.211 
	C 1354.88 363.922 1363.3 362.629 1371.83 361.379 
	C 1401.67 473.98 1504.77 557.602 1626.78 557.75 
	C 1771.89 557.941 1890.25 439.121 1890.25 293.648 
	C 1890.25 148.191 1771.89 29.547 1626.78 29.547 
	C 1583.55 29.547 1540.32 40.891 1501.74 60.621 
	L 1481.57 32.074 
	C 1485.74 29.66 1490 27.305 1494.39 25.035 
	C 1606.06 -30.207 1711.93 -33.117 1812 16.312 
	C 1822.87 10.496 1833.75 4.68402 1844.62 -1.133 
	C 1796.76 -35.297 1737.3 -57.828 1666.25 -68.73 
	C 1664.79 -82.539 1663.34 -96.352 1661.89 -110.16 
	C 1658.13 -123.973 1650.16 -129.059 1637.96 -125.426 
	C 1608.23 -118.156 1578.5 -110.887 1548.77 -103.621 
	C 1543.76 -263.01 1513.33 -410.94 1392.15 -517.94 
	C 1379.9 -526.39 1370.48 -526.39 1363.86 -517.94 
	C 1340.66 -501.95 1317.46 -485.95 1294.25 -469.96 
	C 1273.52 -453.97 1267.6 -437.98 1263.79 -421.99 
	C 1248.57 -387.82 1233.34 -353.66 1218.11 -319.5 
	C 1140.52 -331.13 1062.93 -336.94 985.344 -336.95 
	C 946.855 -334.8 928.75 -317.34 913.559 -297.69 
	C 861.348 -222.1 809.137 -146.504 756.926 -70.91 
	C 674.988 -126.883 571.285 -148.027 458.898 -99.258 
	C 437.719 -90.066 455.555 -63.492 482.828 -73.094 
	C 571.332 -104.238 653.961 -103.621 739.527 -49.105 
	C 694.012 19.051 707.859 -1.414 691.297 23.52 
	C 650.238 0.0739746 602.793 -13.344 552.316 -13.344 
	C 396.957 -13.344 270.25 113.68 270.25 269.398 
	Z 
	"/>
</g>
<g fill="#7f7f7f" fill-rule="evenodd" stroke-width="0" stroke-linejoin="miter" stroke-linecap="butt" stroke-miterlimit="4" >
	<path d="
	M 784.582 -139.488 
	C 777.844 -135.457 771.727 -135.184 766.234 -138.648 
	C 754.992 -157.773 750.41 -177.637 750.387 -198.008 
	C 748.434 -217.82 751.547 -237.13 762.063 -255.69 
	C 767.074 -263.68 774.582 -264.79 784.582 -259.04 
	C 808.035 -245.71 817.773 -225.52 821.277 -202.188 
	C 819.309 -170.391 807.738 -148.789 784.582 -139.488 
	Z 
	"/>
</g>
</g >
</g>
</svg>
