<?xml version="1.0" standalone="no"?>
<svg width="2592px" height="2160px" viewBox="0 -1368 2592 2160 " xmlns="http://www.w3.org/2000/svg" xmlns:xlink="http://www.w3.org/1999/xlink">
<title>generated by pstoedit</title>
<!-- generated by pstoedit version:4.02 -->
<g xml:space='preserve'>
<clipPath id="clippath1"> 	<path d="
	M 0 -1368 
	L 0 792 
	L 2592 792 
	L 2592 -1368 
	Z 
	" style="clip-rule:nonzero"/>
</clipPath>
<g style="clip-path:url(#clippath1)"> 
<g fill="#95e8ff" fill-rule="nonzero" stroke-width="0" stroke-linejoin="miter" stroke-linecap="butt" stroke-miterlimit="10" >
	<path d="
	M 2592 657 
	C 2592 731.559 2531.56 792 2457 792 
	L 135 792 
	C 60.4414 792 0 731.559 0 657 
	L 0 -1233 
	C 0 -1307.56 60.4414 -1368 135 -1368 
	L 2457 -1368 
	C 2531.56 -1368 2592 -1307.56 2592 -1233 
	Z 
	"/>
</g>
<g fill="#7f7f7f" fill-rule="nonzero" stroke-width="0" stroke-linejoin="miter" stroke-linecap="butt" stroke-miterlimit="10" >
	<path d="
	M 135 756 
	C 80.4102 756 36 711.59 36 657 
	L 36 -1233 
	C 36 -1287.59 80.4102 -1332 135 -1332 
	L 2457 -1332 
	C 2511.59 -1332 2556 -1287.59 2556 -1233 
	L 2556 657 
	C 2556 711.59 2511.59 756 2457 756 
	Z 
	"/>
</g>
<g fill="#95e8ff" fill-rule="nonzero" stroke-width="0" stroke-linejoin="miter" stroke-linecap="butt" stroke-miterlimit="10" >
	<path d="
	M 135 702 
	C 110.188 702 90 681.809 90 657 
	L 90 -1233 
	C 90 -1257.81 110.188 -1278 135 -1278 
	L 2457 -1278 
	C 2481.81 -1278 2502 -1257.81 2502 -1233 
	L 2502 657 
	C 2502 681.809 2481.81 702 2457 702 
	Z 
	"/>
</g>
<g fill="#7f7f7f" fill-rule="nonzero" stroke-width="0" stroke-linejoin="miter" stroke-linecap="butt" stroke-miterlimit="10" >
	<path d="
	M 1923.79 -449.99 
	L 1923.79 -954 
	L 2003.27 -954 
	L 2003.27 -524.27 
	L 2236.4 -524.27 
	L 2236.4 -449.99 
	Z 
	"/>
</g>
<g fill="#7f7f7f" fill-rule="nonzero" stroke-width="0" stroke-linejoin="miter" stroke-linecap="butt" stroke-miterlimit="10" >
	<path d="
	M 934.391 -883.26 
	L 934.391 -450 
	L 854.469 -450 
	L 854.469 -883.26 
	L 739.016 -883.26 
	L 739.016 -954 
	L 1051.62 -954 
	L 1051.62 -883.26 
	Z 
	"/>
</g>
<g fill="#7f7f7f" fill-rule="nonzero" stroke-width="0" stroke-linejoin="miter" stroke-linecap="butt" stroke-miterlimit="10" >
	<path d="
	M 649.18 -480.06 
	C 620.883 -455.3 581.977 -441.15 539.531 -441.15 
	C 452.871 -441.15 389.203 -492.44 355.602 -568.48 
	L 431.648 -596.77 
	C 452.871 -549.03 491.777 -522.5 539.531 -522.5 
	C 585.512 -522.5 617.344 -554.33 617.344 -596.77 
	C 617.344 -663.97 539.531 -674.58 474.09 -701.11 
	C 444.027 -713.49 376.824 -743.55 376.824 -826.67 
	C 376.824 -925.7 444.027 -962.84 534.227 -962.84 
	C 604.965 -962.84 652.715 -922.16 677.473 -860.27 
	L 606.734 -839.05 
	C 606.734 -839.05 589.051 -881.49 532.453 -883.26 
	C 495.316 -885.03 451.102 -870.88 454.641 -824.9 
	C 461.715 -731.18 698.699 -793.07 698.699 -595.01 
	C 698.699 -549.03 681.012 -508.36 649.18 -480.06 
	Z 
	"/>
</g>
<g fill="#7f7f7f" fill-rule="nonzero" stroke-width="0" stroke-linejoin="miter" stroke-linecap="butt" stroke-miterlimit="10" >
	<path d="
	M 1127.22 -449.99 
	L 1127.22 -954 
	L 1423.93 -954 
	L 1423.93 -874.42 
	L 1206.69 -874.42 
	L 1206.69 -750.63 
	L 1353.29 -750.63 
	L 1353.29 -669.28 
	L 1206.69 -669.28 
	L 1206.69 -531.34 
	L 1439.83 -531.34 
	L 1439.83 -449.99 
	Z 
	"/>
</g>
<g fill="#7f7f7f" fill-rule="nonzero" stroke-width="0" stroke-linejoin="miter" stroke-linecap="butt" stroke-miterlimit="10" >
	<path d="
	M 1525.5 -449.99 
	L 1525.5 -954 
	L 1822.21 -954 
	L 1822.21 -874.42 
	L 1604.98 -874.42 
	L 1604.98 -750.63 
	L 1751.57 -750.63 
	L 1751.57 -669.28 
	L 1604.98 -669.28 
	L 1604.98 -531.34 
	L 1838.11 -531.34 
	L 1838.11 -449.99 
	Z 
	"/>
</g>
<g fill="#7f7f7f" fill-rule="nonzero" stroke-width="0" stroke-linejoin="miter" stroke-linecap="butt" stroke-miterlimit="10" >
	<path d="
	M 2028.35 378 
	L 1900.62 139.262 
	L 1847.39 204.691 
	L 1847.39 378 
	L 1767.55 378 
	L 1767.55 -126 
	L 1847.39 -126 
	L 1847.39 73.828 
	L 2007.06 -126 
	L 2109.96 -126 
	L 1953.84 70.289 
	L 2120.61 378 
	Z 
	"/>
</g>
<g fill="#7f7f7f" fill-rule="nonzero" stroke-width="0" stroke-linejoin="miter" stroke-linecap="butt" stroke-miterlimit="10" >
	<path d="
	M 692.457 -25.199 
	C 680.078 -37.578 662.395 -46.43 641.168 -46.43 
	L 550.973 -46.43 
	L 550.973 296.648 
	L 630.559 296.648 
	C 657.09 296.648 673.004 291.352 687.152 277.199 
	C 717.219 247.141 733.133 192.309 733.133 125.109 
	C 733.133 57.91 717.219 1.32001 692.457 -25.199 
	Z 
	M 726.063 349.711 
	C 706.605 367.391 680.078 376.23 653.551 378 
	C 648.246 378 637.633 378 625.254 378 
	L 471.391 378 
	L 471.391 -126 
	L 634.094 -126 
	C 685.383 -126 704.84 -120.699 731.367 -99.48 
	C 784.426 -53.5 814.488 26.078 814.488 125.109 
	C 814.488 225.91 782.656 305.488 726.063 349.711 
	Z 
	"/>
</g>
<g fill="#7f7f7f" fill-rule="nonzero" stroke-width="0" stroke-linejoin="miter" stroke-linecap="butt" stroke-miterlimit="10" >
	<path d="
	M 925.367 378 
	L 925.367 -126 
	L 1222.08 -126 
	L 1222.08 -46.422 
	L 1004.84 -46.422 
	L 1004.84 77.371 
	L 1151.44 77.371 
	L 1151.44 158.719 
	L 1004.84 158.719 
	L 1004.84 296.648 
	L 1237.97 296.648 
	L 1237.97 378 
	Z 
	"/>
</g>
<g fill="#7f7f7f" fill-rule="nonzero" stroke-width="0" stroke-linejoin="miter" stroke-linecap="butt" stroke-miterlimit="10" >
	<path d="
	M 1504.58 386.84 
	C 1430.3 386.84 1382.55 358.539 1350.71 296.648 
	C 1327.72 252.441 1313.58 188.781 1313.58 125.109 
	C 1313.58 45.531 1334.8 -34.039 1370.17 -78.25 
	C 1400.23 -115.391 1442.68 -134.84 1499.27 -134.84 
	C 1575.32 -134.84 1623.07 -103.012 1656.67 -32.281 
	L 1582.39 -0.440979 
	C 1554.1 -42.891 1538.18 -53.5 1499.27 -53.5 
	C 1458.6 -53.5 1432.07 -35.809 1414.38 8.39801 
	C 1402 38.461 1394.93 82.672 1394.93 125.109 
	C 1394.93 179.941 1407.31 234.762 1426.76 266.59 
	C 1444.45 293.109 1467.44 305.488 1502.81 305.488 
	C 1536.41 305.488 1561.17 287.809 1580.63 247.141 
	L 1656.67 275.43 
	C 1626.61 349.711 1577.09 386.84 1504.58 386.84 
	Z 
	"/>
</g>
</g >
</g>
</svg>
