<?xml version="1.0" encoding="UTF-8" standalone="no"?>
<!-- Created with Inkscape (http://www.inkscape.org/) -->

<svg
   version="1.1"
   id="svg1"
   width="2304"
   height="1728"
   viewBox="0 0 2304 1728"
   sodipodi:docname="tmpm8h0z351.pdf"
   xmlns:inkscape="http://www.inkscape.org/namespaces/inkscape"
   xmlns:sodipodi="http://sodipodi.sourceforge.net/DTD/sodipodi-0.dtd"
   xmlns="http://www.w3.org/2000/svg"
   xmlns:svg="http://www.w3.org/2000/svg">
  <defs
     id="defs1" />
  <sodipodi:namedview
     id="namedview1"
     pagecolor="#ffffff"
     bordercolor="#000000"
     borderopacity="0.25"
     inkscape:showpageshadow="2"
     inkscape:pageopacity="0.0"
     inkscape:pagecheckerboard="0"
     inkscape:deskcolor="#d1d1d1">
    <inkscape:page
       x="0"
       y="0"
       inkscape:label="1"
       id="page1"
       width="2304"
       height="1728"
       margin="0"
       bleed="0" />
  </sodipodi:namedview>
  <g
     id="g1"
     inkscape:groupmode="layer"
     inkscape:label="1">
    <g
       id="group-R5">
      <path
         id="path2"
         d="M 17280,1080 C 17280,483.5 16796.5,0 16200,0 H 1080 C 483.531,0 0,483.5 0,1080 v 10800 c 0,596.5 483.531,1080 1080,1080 h 15120 c 596.5,0 1080,-483.5 1080,-1080 V 1080"
         style="fill:#fccc2d;fill-opacity:1;fill-rule:nonzero;stroke:none"
         transform="matrix(0.13333333,0,0,-0.13333333,0,1728)" />
      <path
         id="path3"
         d="m 1080,270 c -446.637,0 -810,363.398 -810,810 v 10800 c 0,446.6 363.363,810 810,810 h 15120 c 446.6,0 810,-363.4 810,-810 V 1080 c 0,-446.602 -363.4,-810 -810,-810 H 1080"
         style="fill:#231f20;fill-opacity:1;fill-rule:nonzero;stroke:none"
         transform="matrix(0.13333333,0,0,-0.13333333,0,1728)" />
      <path
         id="path4"
         d="m 1080,720 c -198.508,0 -360,161.5 -360,360 v 10800 c 0,198.5 161.492,360 360,360 h 15120 c 198.5,0 360,-161.5 360,-360 V 1080 c 0,-198.5 -161.5,-360 -360,-360 H 1080"
         style="fill:#fccc2d;fill-opacity:1;fill-rule:nonzero;stroke:none"
         transform="matrix(0.13333333,0,0,-0.13333333,0,1728)" />
      <path
         id="path5"
         d="m 7249.12,4763.35 c -91.17,151.58 -202.6,212.21 -374.8,222.32 -222.87,10.1 -364.69,-101.05 -465.98,-353.67 -70.92,-171.79 -111.43,-434.53 -111.43,-677.07 0,-303.16 60.77,-616.42 172.19,-798.32 91.19,-151.56 212.74,-222.31 395.08,-222.31 212.73,0 344.41,111.16 445.72,363.8 60.78,151.56 111.43,434.53 111.43,656.83 0,323.36 -60.78,616.41 -172.21,808.42 z M 7563.14,2792.8 c -162.09,-222.3 -395.07,-323.4 -698.96,-323.4 -405.2,0 -658.46,161.7 -830.66,515.41 -121.55,242.54 -202.58,626.53 -202.58,970.12 0,474.96 121.54,899.36 314.02,1172.23 172.21,222.3 405.2,323.36 739.47,323.36 364.69,0 617.93,-161.7 800.28,-515.39 121.54,-252.62 192.46,-616.41 192.46,-980.2 0,-454.72 -111.43,-909.47 -314.03,-1162.13"
         style="fill:#231f20;fill-opacity:1;fill-rule:nonzero;stroke:none"
         transform="matrix(0.13333333,0,0,-0.13333333,0,1728)" />
      <path
         id="path6"
         d="m 8510.75,2520 v 2879.99 h 460.8 V 2520 h -460.8"
         style="fill:#231f20;fill-opacity:1;fill-rule:nonzero;stroke:none"
         transform="matrix(0.13333333,0,0,-0.13333333,0,1728)" />
      <path
         id="path7"
         d="m 9662.74,2520 v 2880.01 h 454.16 V 2944.4 h 1332.2 V 2520 H 9662.74"
         style="fill:#231f20;fill-opacity:1;fill-rule:nonzero;stroke:none"
         transform="matrix(0.13333333,0,0,-0.13333333,0,1728)" />
      <path
         id="path8"
         d="m 12780.7,7731.77 c -161.7,-141.48 -384,-222.32 -626.5,-222.32 -495.2,0 -859.1,293.05 -1051.1,727.58 l 434.6,161.68 c 121.3,-272.83 343.6,-424.41 616.5,-424.41 262.7,0 444.6,181.89 444.6,424.41 0,384 -444.6,444.62 -818.6,596.21 -171.8,70.74 -555.8,242.52 -555.8,717.48 0,565.9 384,778.1 899.4,778.1 404.3,0 677.1,-232.4 818.6,-586.11 l -404.2,-121.25 c 0,0 -101.1,242.56 -424.5,252.66 -212.2,10.1 -464.9,-70.76 -444.6,-333.51 40.4,-535.57 1394.6,-181.9 1394.6,-1313.68 0,-262.73 -101.1,-495.15 -283,-656.84"
         style="fill:#231f20;fill-opacity:1;fill-rule:nonzero;stroke:none"
         transform="matrix(0.13333333,0,0,-0.13333333,0,1728)" />
      <path
         id="path9"
         d="m 15029.3,7731.77 c -161.7,-141.48 -384,-222.32 -626.6,-222.32 -495.2,0 -859,293.05 -1051,727.58 l 434.5,161.68 c 121.3,-272.83 343.6,-424.41 616.5,-424.41 262.8,0 444.7,181.89 444.7,424.41 0,384 -444.7,444.62 -818.6,596.21 -171.8,70.74 -555.8,242.52 -555.8,717.48 0,565.9 384,778.1 899.4,778.1 404.2,0 677.1,-232.4 818.6,-586.11 l -404.3,-121.25 c 0,0 -101,242.56 -424.4,252.66 -212.3,10.1 -464.9,-70.76 -444.7,-333.51 40.4,-535.57 1394.6,-181.9 1394.6,-1313.68 0,-262.73 -101,-495.15 -282.9,-656.84"
         style="fill:#231f20;fill-opacity:1;fill-rule:nonzero;stroke:none"
         transform="matrix(0.13333333,0,0,-0.13333333,0,1728)" />
      <path
         id="path10"
         d="m 5487.24,7559.98 -464.89,960 -464.86,-960 H 4042.08 L 4759.6,9045.46 4092.61,10440 h 515.41 l 414.33,-858.97 414.36,858.97 h 515.41 L 5275.01,9045.46 6002.65,7559.98 h -515.41"
         style="fill:#231f20;fill-opacity:1;fill-rule:nonzero;stroke:none"
         transform="matrix(0.13333333,0,0,-0.13333333,0,1728)" />
      <path
         id="path11"
         d="M 1967.76,7559.98 V 10440 H 3663.25 V 9985.25 H 2421.9 v -707.38 h 837.68 V 8813.03 H 2421.9 V 8024.82 H 3754.09 V 7559.98 H 1967.76"
         style="fill:#231f20;fill-opacity:1;fill-rule:nonzero;stroke:none"
         transform="matrix(0.13333333,0,0,-0.13333333,0,1728)" />
      <path
         id="path12"
         d="M 9028.78,7559.98 V 10440 H 10724.3 V 9985.25 H 9482.92 v -707.38 h 837.68 V 8813.03 H 9482.92 V 8024.82 H 10815.1 V 7559.98 H 9028.78"
         style="fill:#231f20;fill-opacity:1;fill-rule:nonzero;stroke:none"
         transform="matrix(0.13333333,0,0,-0.13333333,0,1728)" />
      <path
         id="path13"
         d="m 7526.06,7509.44 c -424.43,0 -697.3,161.69 -879.19,515.38 -131.39,252.62 -212.23,616.43 -212.23,980.21 0,454.74 121.26,909.48 323.38,1162.07 171.79,212.3 414.35,323.4 737.73,323.4 434.56,0 707.42,-181.9 899.44,-586.11 L 7970.73,9722.5 c -161.7,242.53 -252.64,303.2 -474.98,303.2 -232.43,0 -384.02,-101.09 -485.08,-353.73 -70.74,-171.78 -111.17,-424.42 -111.17,-666.94 0,-313.26 70.74,-626.53 181.92,-808.43 101.05,-151.57 232.44,-222.31 434.55,-222.31 192.01,0 333.49,101.06 444.66,333.46 l 434.56,-161.68 c -171.8,-424.41 -454.77,-636.63 -869.13,-636.63"
         style="fill:#231f20;fill-opacity:1;fill-rule:nonzero;stroke:none"
         transform="matrix(0.13333333,0,0,-0.13333333,0,1728)" />
    </g>
  </g>
</svg>
