<?xml version="1.0" standalone="no"?>
<svg width="1728px" height="1296px" viewBox="0 -504 1728 1296 " xmlns="http://www.w3.org/2000/svg" xmlns:xlink="http://www.w3.org/1999/xlink">
<title>generated by pstoedit</title>
<!-- generated by pstoedit version:4.02 -->
<g xml:space='preserve'>
<clipPath id="clippath1"> 	<path d="
	M 0 -504 
	L 0 792 
	L 1728 792 
	L 1728 -504 
	Z 
	" style="clip-rule:nonzero"/>
</clipPath>
<g style="clip-path:url(#clippath1)"> 
<g fill="#95e8ff" fill-rule="nonzero" stroke-width="0" stroke-linejoin="miter" stroke-linecap="butt" stroke-miterlimit="10" >
	<path d="
	M 1728 684 
	C 1728 743.648 1679.65 792 1620 792 
	L 108 792 
	C 48.3516 792 0 743.648 0 684 
	L 0 -396 
	C 0 -455.65 48.3516 -504 108 -504 
	L 1620 -504 
	C 1679.65 -504 1728 -455.65 1728 -396 
	Z 
	"/>
</g>
<g fill="#7f7f7f" fill-rule="nonzero" stroke-width="0" stroke-linejoin="miter" stroke-linecap="butt" stroke-miterlimit="10" >
	<path d="
	M 108 765 
	C 63.3359 765 27 728.66 27 684 
	L 27 -396 
	C 27 -440.66 63.3359 -477 108 -477 
	L 1620 -477 
	C 1664.66 -477 1701 -440.66 1701 -396 
	L 1701 684 
	C 1701 728.66 1664.66 765 1620 765 
	Z 
	"/>
</g>
<g fill="#95e8ff" fill-rule="nonzero" stroke-width="0" stroke-linejoin="miter" stroke-linecap="butt" stroke-miterlimit="10" >
	<path d="
	M 108 720 
	C 88.1484 720 72 703.852 72 684 
	L 72 -396 
	C 72 -415.85 88.1484 -432 108 -432 
	L 1620 -432 
	C 1639.85 -432 1656 -415.85 1656 -396 
	L 1656 684 
	C 1656 703.852 1639.85 720 1620 720 
	Z 
	"/>
</g>
<g fill="#7f7f7f" fill-rule="nonzero" stroke-width="0" stroke-linejoin="miter" stroke-linecap="butt" stroke-miterlimit="10" >
	<path d="
	M 1222.74 36 
	L 1222.74 -252 
	L 1268.15 -252 
	L 1268.15 -6.44098 
	L 1401.37 -6.44098 
	L 1401.37 36 
	Z 
	"/>
</g>
<g fill="#7f7f7f" fill-rule="nonzero" stroke-width="0" stroke-linejoin="miter" stroke-linecap="butt" stroke-miterlimit="10" >
	<path d="
	M 657.367 -211.58 
	L 657.367 36 
	L 611.695 36 
	L 611.695 -211.58 
	L 545.723 -211.58 
	L 545.723 -252 
	L 724.355 -252 
	L 724.355 -211.58 
	Z 
	"/>
</g>
<g fill="#7f7f7f" fill-rule="nonzero" stroke-width="0" stroke-linejoin="miter" stroke-linecap="butt" stroke-miterlimit="10" >
	<path d="
	M 494.387 18.82 
	C 478.219 32.969 455.984 41.055 431.73 41.055 
	C 382.215 41.055 345.832 11.75 326.629 -31.703 
	L 370.086 -47.871 
	C 382.215 -20.59 404.445 -5.42999 431.73 -5.42999 
	C 458.008 -5.42999 476.195 -23.621 476.195 -47.871 
	C 476.195 -86.273 431.73 -92.336 394.34 -107.492 
	C 377.16 -114.566 338.758 -131.746 338.758 -179.242 
	C 338.758 -235.83 377.16 -257.05 428.699 -257.05 
	C 469.121 -257.05 496.41 -233.81 510.559 -198.441 
	L 470.137 -186.316 
	C 470.137 -186.316 460.027 -210.57 427.688 -211.58 
	C 406.465 -212.59 381.199 -204.504 383.223 -178.23 
	C 387.266 -124.672 522.684 -160.039 522.684 -46.863 
	C 522.684 -20.59 512.578 2.65198 494.387 18.82 
	Z 
	"/>
</g>
<g fill="#7f7f7f" fill-rule="nonzero" stroke-width="0" stroke-linejoin="miter" stroke-linecap="butt" stroke-miterlimit="10" >
	<path d="
	M 767.555 36 
	L 767.555 -252 
	L 937.102 -252 
	L 937.102 -206.527 
	L 812.969 -206.527 
	L 812.969 -135.789 
	L 896.734 -135.789 
	L 896.734 -89.305 
	L 812.969 -89.305 
	L 812.969 -10.484 
	L 946.188 -10.484 
	L 946.188 36 
	Z 
	"/>
</g>
<g fill="#7f7f7f" fill-rule="nonzero" stroke-width="0" stroke-linejoin="miter" stroke-linecap="butt" stroke-miterlimit="10" >
	<path d="
	M 995.145 36 
	L 995.145 -252 
	L 1164.69 -252 
	L 1164.69 -206.527 
	L 1040.56 -206.527 
	L 1040.56 -135.789 
	L 1124.33 -135.789 
	L 1124.33 -89.305 
	L 1040.56 -89.305 
	L 1040.56 -10.484 
	L 1173.78 -10.484 
	L 1173.78 36 
	Z 
	"/>
</g>
<g fill="#7f7f7f" fill-rule="nonzero" stroke-width="0" stroke-linejoin="miter" stroke-linecap="butt" stroke-miterlimit="10" >
	<path d="
	M 1282.49 540 
	L 1209.49 403.578 
	L 1179.08 440.969 
	L 1179.08 540 
	L 1133.46 540 
	L 1133.46 252 
	L 1179.08 252 
	L 1179.08 366.187 
	L 1270.32 252 
	L 1329.12 252 
	L 1239.91 364.168 
	L 1335.21 540 
	Z 
	"/>
</g>
<g fill="#7f7f7f" fill-rule="nonzero" stroke-width="0" stroke-linejoin="miter" stroke-linecap="butt" stroke-miterlimit="10" >
	<path d="
	M 519.117 309.598 
	C 512.047 302.523 501.941 297.473 489.813 297.473 
	L 438.27 297.473 
	L 438.27 493.516 
	L 483.75 493.516 
	C 498.91 493.516 508.004 490.484 516.086 482.398 
	C 533.27 465.223 542.363 433.895 542.363 395.492 
	C 542.363 357.094 533.27 324.758 519.117 309.598 
	Z 
	M 538.32 523.828 
	C 527.203 533.941 512.047 538.988 496.887 540 
	C 493.855 540 487.789 540 480.719 540 
	L 392.797 540 
	L 392.797 252 
	L 485.77 252 
	C 515.078 252 526.195 255.031 541.352 267.156 
	C 571.672 293.43 588.852 338.902 588.852 395.492 
	C 588.852 453.094 570.66 498.57 538.32 523.828 
	Z 
	"/>
</g>
<g fill="#7f7f7f" fill-rule="nonzero" stroke-width="0" stroke-linejoin="miter" stroke-linecap="butt" stroke-miterlimit="10" >
	<path d="
	M 652.211 540 
	L 652.211 252 
	L 821.758 252 
	L 821.758 297.473 
	L 697.625 297.473 
	L 697.625 368.211 
	L 781.391 368.211 
	L 781.391 414.695 
	L 697.625 414.695 
	L 697.625 493.516 
	L 830.844 493.516 
	L 830.844 540 
	Z 
	"/>
</g>
<g fill="#7f7f7f" fill-rule="nonzero" stroke-width="0" stroke-linejoin="miter" stroke-linecap="butt" stroke-miterlimit="10" >
	<path d="
	M 983.188 545.051 
	C 940.742 545.051 913.457 528.879 895.266 493.516 
	C 882.129 468.254 874.043 431.871 874.043 395.492 
	C 874.043 350.02 886.172 304.547 906.383 279.281 
	C 923.563 258.062 947.816 246.945 980.156 246.945 
	C 1023.61 246.945 1050.9 265.137 1070.1 305.559 
	L 1027.65 323.746 
	C 1011.48 299.492 1002.39 293.43 980.156 293.43 
	C 956.91 293.43 941.754 303.535 931.648 328.801 
	C 924.574 345.98 920.531 371.242 920.531 395.492 
	C 920.531 426.82 927.605 458.148 938.723 476.336 
	C 948.828 491.492 961.965 498.57 982.176 498.57 
	C 1001.38 498.57 1015.53 488.465 1026.64 465.223 
	L 1070.1 481.391 
	C 1052.92 523.828 1024.62 545.051 983.188 545.051 
	Z 
	"/>
</g>
</g >
</g>
</svg>
