<?xml version="1.0" encoding="UTF-8" standalone="no"?>
<!-- Created with Inkscape (http://www.inkscape.org/) -->

<svg
   version="1.1"
   id="svg1"
   width="3456"
   height="2880"
   viewBox="0 0 3456 2880"
   sodipodi:docname="tmpq4wgqe0a.pdf"
   xmlns:inkscape="http://www.inkscape.org/namespaces/inkscape"
   xmlns:sodipodi="http://sodipodi.sourceforge.net/DTD/sodipodi-0.dtd"
   xmlns="http://www.w3.org/2000/svg"
   xmlns:svg="http://www.w3.org/2000/svg">
  <defs
     id="defs1" />
  <sodipodi:namedview
     id="namedview1"
     pagecolor="#ffffff"
     bordercolor="#000000"
     borderopacity="0.25"
     inkscape:showpageshadow="2"
     inkscape:pageopacity="0.0"
     inkscape:pagecheckerboard="0"
     inkscape:deskcolor="#d1d1d1">
    <inkscape:page
       x="0"
       y="0"
       inkscape:label="1"
       id="page1"
       width="3456"
       height="2880"
       margin="0"
       bleed="0" />
  </sodipodi:namedview>
  <g
     id="g1"
     inkscape:groupmode="layer"
     inkscape:label="1">
    <g
       id="group-R5">
      <path
         id="path2"
         d="M 25920,1350 C 25920,604.398 25315.6,0 24570,0 H 1350 C 604.414,0 0,604.398 0,1350 v 18900 c 0,745.6 604.414,1350 1350,1350 h 23220 c 745.6,0 1350,-604.4 1350,-1350 V 1350"
         style="fill:#fccc2d;fill-opacity:1;fill-rule:nonzero;stroke:none"
         transform="matrix(0.13333333,0,0,-0.13333333,0,2880)" />
      <path
         id="path3"
         d="m 1350,360 c -545.891,0 -990,444.102 -990,990 v 18900 c 0,545.9 444.109,990 990,990 h 23220 c 545.9,0 990,-444.1 990,-990 V 1350 c 0,-545.898 -444.1,-990 -990,-990 H 1350"
         style="fill:#231f20;fill-opacity:1;fill-rule:nonzero;stroke:none"
         transform="matrix(0.13333333,0,0,-0.13333333,0,2880)" />
      <path
         id="path4"
         d="m 1350,900 c -248.13,0 -450,201.9 -450,450 v 18900 c 0,248.1 201.87,450 450,450 h 23220 c 248.1,0 450,-201.9 450,-450 V 1350 c 0,-248.1 -201.9,-450 -450,-450 H 1350"
         style="fill:#fccc2d;fill-opacity:1;fill-rule:nonzero;stroke:none"
         transform="matrix(0.13333333,0,0,-0.13333333,0,2880)" />
      <path
         id="path5"
         d="m 20901.9,12420 -1927.8,3413.1 V 12420 h -795.8 v 5040 h 795.8 l 1839.3,-3218.5 V 17460 h 795.9 v -5040 h -707.4"
         style="fill:#231f20;fill-opacity:1;fill-rule:nonzero;stroke:none"
         transform="matrix(0.13333333,0,0,-0.13333333,0,2880)" />
      <path
         id="path6"
         d="m 8053.75,12420 h -709.52 l -798.3,3236.2 -780.57,-3236.2 h -709.57 l -745.05,5040 h 816 l 390.27,-2652.7 638.61,2652.7 h 780.58 l 656.33,-2652.7 390.32,2652.7 h 816 l -745.1,-5040"
         style="fill:#231f20;fill-opacity:1;fill-rule:nonzero;stroke:none"
         transform="matrix(0.13333333,0,0,-0.13333333,0,2880)" />
      <path
         id="path7"
         d="m 12190,12420 v 2192.9 H 10350.7 V 12420 h -795.84 v 5040 h 795.84 V 15426.3 H 12190 V 17460 h 795.9 V 12420 H 12190"
         style="fill:#231f20;fill-opacity:1;fill-rule:nonzero;stroke:none"
         transform="matrix(0.13333333,0,0,-0.13333333,0,2880)" />
      <path
         id="path8"
         d="m 14195.4,12420 v 5040 h 2967.1 v -795.8 h -2172.3 v -1237.9 h 1465.9 v -813.5 h -1465.9 v -1379.4 h 2331.3 V 12420 h -3126.1"
         style="fill:#231f20;fill-opacity:1;fill-rule:nonzero;stroke:none"
         transform="matrix(0.13333333,0,0,-0.13333333,0,2880)" />
      <path
         id="path9"
         d="M 17737.4,8472.6 V 4140 h -799.2 V 8472.6 H 15783.7 V 9180 h 3126 v -707.4 h -1172.3"
         style="fill:#231f20;fill-opacity:1;fill-rule:nonzero;stroke:none"
         transform="matrix(0.13333333,0,0,-0.13333333,0,2880)" />
      <path
         id="path10"
         d="m 10753.3,4140 h -709.5 L 9245.49,7376.2 8464.93,4140 h -709.57 l -745.05,5040 h 816.01 L 8216.58,6527.3 8855.2,9180 h 780.55 l 656.35,-2652.7 390.3,2652.7 h 816 l -745.1,-5040"
         style="fill:#231f20;fill-opacity:1;fill-rule:nonzero;stroke:none"
         transform="matrix(0.13333333,0,0,-0.13333333,0,2880)" />
      <path
         id="path11"
         d="m 12254.4,4140 v 5040 h 2967.1 V 8384.2 H 13049.1 V 7146.3 h 1466 v -813.5 h -1466 V 4953.4 h 2331.4 V 4140 h -3126.1"
         style="fill:#231f20;fill-opacity:1;fill-rule:nonzero;stroke:none"
         transform="matrix(0.13333333,0,0,-0.13333333,0,2880)" />
    </g>
  </g>
</svg>
