<?xml version="1.0" encoding="UTF-8" standalone="no"?>
<!-- Created with Inkscape (http://www.inkscape.org/) -->

<svg
   version="1.1"
   id="svg1"
   width="3456.6667"
   height="2880.6667"
   viewBox="0 0 3456.6667 2880.6667"
   sodipodi:docname="tmp_pru9lzk.pdf"
   xmlns:inkscape="http://www.inkscape.org/namespaces/inkscape"
   xmlns:sodipodi="http://sodipodi.sourceforge.net/DTD/sodipodi-0.dtd"
   xmlns="http://www.w3.org/2000/svg"
   xmlns:svg="http://www.w3.org/2000/svg">
  <defs
     id="defs1" />
  <sodipodi:namedview
     id="namedview1"
     pagecolor="#ffffff"
     bordercolor="#000000"
     borderopacity="0.25"
     inkscape:showpageshadow="2"
     inkscape:pageopacity="0.0"
     inkscape:pagecheckerboard="0"
     inkscape:deskcolor="#d1d1d1">
    <inkscape:page
       x="0"
       y="0"
       inkscape:label="1"
       id="page1"
       width="3456.6667"
       height="2880.6667"
       margin="0"
       bleed="0" />
  </sodipodi:namedview>
  <g
     id="g1"
     inkscape:groupmode="layer"
     inkscape:label="1">
    <g
       id="group-R5">
      <path
         id="path2"
         d="m 25922.5,1352.5 c 0,-745.602 -604.4,-1350 -1350,-1350 H 1352.5 C 606.914,2.5 2.5,606.898 2.5,1352.5 v 18900 c 0,745.6 604.414,1350 1350,1350 h 23220 c 745.6,0 1350,-604.4 1350,-1350 v -18900"
         style="fill:#fccc2d;fill-opacity:1;fill-rule:nonzero;stroke:none"
         transform="matrix(0.13333333,0,0,-0.13333333,0,2880.6667)" />
      <path
         id="path3"
         d="m 25922.5,1352.5 c 0,-745.602 -604.4,-1350 -1350,-1350 H 1352.5 C 606.914,2.5 2.5,606.898 2.5,1352.5 v 18900 c 0,745.6 604.414,1350 1350,1350 h 23220 c 745.6,0 1350,-604.4 1350,-1350 z"
         style="fill:none;stroke:#231f20;stroke-width:5;stroke-linecap:butt;stroke-linejoin:miter;stroke-miterlimit:4;stroke-dasharray:none;stroke-opacity:1"
         transform="matrix(0.13333333,0,0,-0.13333333,0,2880.6667)" />
      <path
         id="path4"
         d="m 25022.5,1352.5 c 0,-248.1 -201.9,-450 -450,-450 h -23220 c -248.13,0 -450,201.9 -450,450 v 18900 c 0,248.1 201.87,450 450,450 h 23220 c 248.1,0 450,-201.9 450,-450 z m -450,19890 h -23220 c -545.891,0 -990,-444.1 -990,-990 v -18900 c 0,-545.898 444.109,-990 990,-990 h 23220 c 545.9,0 990,444.102 990,990 v 18900 c 0,545.9 -444.1,990 -990,990"
         style="fill:#231f20;fill-opacity:1;fill-rule:nonzero;stroke:none"
         transform="matrix(0.13333333,0,0,-0.13333333,0,2880.6667)" />
      <path
         id="path5"
         d="m 15206.7,15893.4 c -268.5,9.3 -475.3,191.8 -620.4,547.7 -95.8,279.4 -177.5,568.3 -500,696.2 -243.9,49.4 -379.7,160.8 -277.8,408.4 233,504.3 606.5,807.5 1185.3,816.8 780.9,-71.1 1203.8,-488.9 1268.6,-1253.1 -6.2,-652.9 -358.1,-1058.2 -1055.7,-1216"
         style="fill:#231f20;fill-opacity:1;fill-rule:evenodd;stroke:none"
         transform="matrix(0.13333333,0,0,-0.13333333,0,2880.6667)" />
      <path
         id="path6"
         d="m 4104.17,6708.4 c 0,1402.6 1141.21,2546.6 2540.45,2546.6 430.3,0 836.2,-108.3 1191.97,-299.1 L 6919.78,7558.3 c -86.75,28.4 -179.22,43.7 -275.16,43.7 -491.02,0 -891.46,-401.4 -891.46,-893.6 0,-492.1 400.44,-893.5 891.46,-893.5 490.95,0 891.43,401.4 891.43,893.5 0,236.3 -92.32,451.7 -242.63,611.7 l 899.48,1404.7 c 602.69,-466.3 992.16,-1197.1 992.16,-2016.4 0,-1402.5 -1141.22,-2546.5 -2540.44,-2546.5 -1399.24,0 -2540.45,1144 -2540.45,2546.5 z m 6352.03,5314.1 c 279.2,402.4 558.5,804.8 837.8,1207.2 97.3,81.9 191.3,133.5 261.8,-26.3 194.9,-222.4 381.5,-286 549.7,0 87,209.3 302.2,216.2 576,131.2 706.8,-201.2 1413.7,-402.3 2120.5,-603.5 69.9,-4 139.7,2.1 209.4,78.7 209.5,140 419,279.9 628.3,419.9 357.9,-551.1 715.7,-1102.2 1073.5,-1653.3 -26.2,98 -2434.8,-409.5 -2434.8,-472.4 -210.8,-51.4 -366.6,-29.2 -497.4,26.3 -445,244.9 -890.1,489.9 -1335.1,734.8 -691.6,407.8 -1351.5,418.5 -1989.7,157.4 z m 540.5,-1972.3 c 613.2,-10.7 1226.5,-21.4 1839.7,-32.2 71.3,17.9 142.6,-7.1 214,-75 81.9,-128.6 163.9,-257.4 245.9,-386 32.1,-75 7.2,-121.5 -74.8,-139.4 -296,7.2 -591.9,14.3 -887.8,21.5 -377.9,-3.6 -541.9,-150.1 -492,-439.6 42.7,-443.2 85.5,-886.4 128.3,-1329.5 -14.2,-103.7 -71.3,-107.2 -171.2,-10.7 -313.7,721.9 -627.4,1443.8 -941.2,2165.8 -14.5,90.2 -89.8,195.8 139.1,225.1 z m 3240.9,-2584 53.5,504 331.6,-536.1 z m 3075.9,1760.2 217.1,-344.7 C 16740.4,8239.6 16299.3,7229 16365.8,6212.9 c -69.6,-10.7 -139.2,-21.3 -208.8,-31.9 -23.2,1295.5 316.5,2342.1 1156.5,3045.4 z m 745.4,-1099.9 613.8,-919.8 c -164.3,-185.4 -270.2,-423.9 -288.3,-685.9 -371.2,-56.6 -742.4,-113.3 -1112.8,-169 -27.8,657.3 285.2,1353.2 787.3,1774.7 z m -682.1,-2386.1 c 372.4,56.8 752.1,115.1 1131.7,173.4 191.7,-373.5 580.2,-629.9 1026.6,-629.9 635.4,0 1153.6,519.4 1153.6,1156.3 0,636.9 -518.2,1156.4 -1153.6,1156.4 -131,0 -256.9,-22.1 -374.4,-62.7 l -622.3,904.6 c 296.8,140.7 648.4,228.8 982.5,228.8 1239.3,0 2250.2,-1013.3 2250.2,-2255.6 0,-1242.3 -1010.9,-2257.1 -2250.2,-2255.6 -998.4,1.2 -1865.6,699.7 -2144.1,1584.3 z M 3242.5,6702.7 c 0,-1868.8 1520.49,-3392.9 3384.79,-3392.9 1864.26,0 3384.81,1524.1 3384.81,3392.9 0,1099.1 -526.17,2078.8 -1338.74,2699.6 173.51,242.6 57.54,53.1 591.99,834.6 767.95,-612.7 1172.05,-1368.8 1226.95,-2328.9 19,-331.7 313.9,-624.5 339.3,-471 152.8,920.6 -136.4,1875.2 -1253,2878.4 8.73,410 156.65,540.8 443.8,392.5 713.6,-1631.1 1427.1,-3262.1 2140.6,-4893.3 60.9,-148.2 191.4,-226.7 391.6,-235.5 1200.8,-8.7 2401.6,-17.4 3602.4,-26.1 101.1,15.5 202.1,31 304.5,45.9 358,-1351.2 1595.2,-2354.6 3059.4,-2356.4 1741.3,-2.3 3161.6,1423.6 3161.6,3169.2 0,1745.5 -1420.3,3169.2 -3161.6,3169.2 -518.7,0 -1037.5,-136.1 -1500.5,-372.9 l -242.1,342.6 c 50,29 101.2,57.3 153.9,84.4 1340,663 2610.4,697.9 3811.3,104.7 130.4,69.9 261,139.6 391.5,209.4 -574.3,409.9 -1287.8,680.3 -2140.5,811.2 -17.5,165.7 -34.9,331.4 -52.3,497.1 -45.1,165.8 -140.8,226.8 -287.2,183.2 -356.7,-87.2 -713.5,-174.4 -1070.2,-261.6 -60.2,1912.6 -425.3,3687.8 -1879.6,4971.7 -146.8,101.5 -259.9,101.5 -339.3,0 -278.5,-191.8 -556.9,-383.8 -835.4,-575.6 -248.8,-192 -319.8,-383.8 -365.5,-575.7 -182.7,-410 -365.4,-820 -548.2,-1229.9 -931,139.6 -1862.1,209.3 -2793.2,209.3 -461.8,-25.6 -679.1,-235.2 -861.4,-471 -626.5,-907.1 -1253.07,-1814.3 -1879.58,-2721.4 -983.24,671.7 -2227.69,925.4 -3576.34,340.2 -254.18,-110.3 -40.12,-429.2 287.15,-314 1062.06,373.8 2053.6,366.4 3080.4,-287.8 -546.19,-817.9 -380.02,-572.3 -578.76,-871.6 -492.71,281.4 -1062.06,442.4 -1667.78,442.4 -1864.3,0 -3384.79,-1524.2 -3384.79,-3392.9"
         style="fill:#231f20;fill-opacity:1;fill-rule:evenodd;stroke:none"
         transform="matrix(0.13333333,0,0,-0.13333333,0,2880.6667)" />
      <path
         id="path7"
         d="m 9414.49,11609.4 c -80.86,-48.4 -154.29,-51.7 -220.16,-10.1 -134.94,229.5 -189.89,467.8 -190.18,712.3 -23.43,237.8 13.9,469.5 140.09,692.2 60.17,95.9 150.24,109.2 270.25,40.2 281.42,-159.9 398.28,-402.3 440.34,-682.3 -23.62,-381.5 -162.48,-640.7 -440.34,-752.3"
         style="fill:#231f20;fill-opacity:1;fill-rule:evenodd;stroke:none"
         transform="matrix(0.13333333,0,0,-0.13333333,0,2880.6667)" />
    </g>
  </g>
</svg>
