<?xml version="1.0" encoding="UTF-8" standalone="no"?>
<!-- Created with Inkscape (http://www.inkscape.org/) -->

<svg
   version="1.1"
   id="svg1"
   width="12672.667"
   height="6912.6665"
   viewBox="0 0 12672.667 6912.6665"
   sodipodi:docname="tmp8a6qcte7.pdf"
   xmlns:inkscape="http://www.inkscape.org/namespaces/inkscape"
   xmlns:sodipodi="http://sodipodi.sourceforge.net/DTD/sodipodi-0.dtd"
   xmlns="http://www.w3.org/2000/svg"
   xmlns:svg="http://www.w3.org/2000/svg">
  <defs
     id="defs1" />
  <sodipodi:namedview
     id="namedview1"
     pagecolor="#ffffff"
     bordercolor="#000000"
     borderopacity="0.25"
     inkscape:showpageshadow="2"
     inkscape:pageopacity="0.0"
     inkscape:pagecheckerboard="0"
     inkscape:deskcolor="#d1d1d1">
    <inkscape:page
       x="0"
       y="0"
       inkscape:label="1"
       id="page1"
       width="12672.667"
       height="6912.6665"
       margin="0"
       bleed="0" />
  </sodipodi:namedview>
  <g
     id="g1"
     inkscape:groupmode="layer"
     inkscape:label="1">
    <g
       id="group-R5">
      <path
         id="path2"
         d="m 95042.5,2162.5 c 0,-1192.898 -967.1,-2160 -2160,-2160 H 2162.5 C 969.566,2.5 2.5,969.602 2.5,2162.5 v 47520 c 0,1192.9 967.066,2160 2160,2160 h 90720 c 1192.9,0 2160,-967.1 2160,-2160 v -47520"
         style="fill:#fccc2d;fill-opacity:1;fill-rule:nonzero;stroke:none"
         transform="matrix(0.13333333,0,0,-0.13333333,0,6912.6667)" />
      <path
         id="path3"
         d="m 95042.5,2162.5 c 0,-1192.898 -967.1,-2160 -2160,-2160 H 2162.5 C 969.566,2.5 2.5,969.602 2.5,2162.5 v 47520 c 0,1192.9 967.066,2160 2160,2160 h 90720 c 1192.9,0 2160,-967.1 2160,-2160 z"
         style="fill:none;stroke:#231f20;stroke-width:5;stroke-linecap:butt;stroke-linejoin:miter;stroke-miterlimit:4;stroke-dasharray:none;stroke-opacity:1"
         transform="matrix(0.13333333,0,0,-0.13333333,0,6912.6667)" />
      <path
         id="path4"
         d="m 93602.5,2162.5 c 0,-397 -323,-720 -720,-720 h -90720 c -397.01,0 -720,323 -720,720 v 47520 c 0,397 322.99,720 720,720 h 90720 c 397,0 720,-323 720,-720 z m -720,49140 h -90720 c -893.27,0 -1620,-726.7 -1620,-1620 v -47520 c 0,-893.3 726.73,-1620 1620,-1620 h 90720 c 893.3,0 1620,726.7 1620,1620 v 47520 c 0,893.3 -726.7,1620 -1620,1620"
         style="fill:#231f20;fill-opacity:1;fill-rule:nonzero;stroke:none"
         transform="matrix(0.13333333,0,0,-0.13333333,0,6912.6667)" />
      <path
         id="path5"
         d="m 29759.7,12645.2 -1057.6,-2416.8 h 2024.6 z m 2477.9,-6162.9 -815.9,2024.1 H 28007.1 L 27191.3,6482.3 H 25348 l 3475,8640.1 h 1782.8 l 3475,-8640.1 h -1843.2"
         style="fill:#231f20;fill-opacity:1;fill-rule:nonzero;stroke:none"
         transform="matrix(0.13333333,0,0,-0.13333333,0,6912.6667)" />
      <path
         id="path6"
         d="M 56818.1,12645.2 55760.4,10228.4 H 57785 Z M 59295.9,6482.3 58480,8506.4 h -3414.6 l -815.8,-2024.1 h -1843.3 l 3475,8640.1 h 1782.9 l 3475,-8640.1 h -1843.3"
         style="fill:#231f20;fill-opacity:1;fill-rule:nonzero;stroke:none"
         transform="matrix(0.13333333,0,0,-0.13333333,0,6912.6667)" />
      <path
         id="path7"
         d="m 65495.4,13400.4 h -1096 V 8204.3 h 1096 c 1552.8,0 2496.7,966.7 2496.7,2598 0,1631.4 -943.9,2598.1 -2496.7,2598.1 z m -91.3,-6918.1 h -2709.8 v 8640.1 h 2709.8 c 2618.4,0 4293,-1722 4293,-4320.1 0,-2628.2 -1705,-4320 -4293,-4320"
         style="fill:#231f20;fill-opacity:1;fill-rule:nonzero;stroke:none"
         transform="matrix(0.13333333,0,0,-0.13333333,0,6912.6667)" />
      <path
         id="path8"
         d="m 45058,6482.3 v 8640.1 h 6277.2 v -1722 H 46748 v -1419.8 h 2595.4 v -1722 H 46748 V 8204.3 h 4707.9 v -1722 H 45058"
         style="fill:#231f20;fill-opacity:1;fill-rule:nonzero;stroke:none"
         transform="matrix(0.13333333,0,0,-0.13333333,0,6912.6667)" />
      <path
         id="path9"
         d="m 40933.8,6482.3 v 3776.3 H 37341.1 V 6482.3 H 35636 v 8640 h 1705.1 v -3141.7 h 3592.7 v 3141.7 h 1705 v -8640 h -1705"
         style="fill:#231f20;fill-opacity:1;fill-rule:nonzero;stroke:none"
         transform="matrix(0.13333333,0,0,-0.13333333,0,6912.6667)" />
      <path
         id="path10"
         d="m 64983.9,42885.4 -1057.6,-2416.9 h 2024.6 z m 2477.9,-6162.9 -815.9,2024.1 h -3414.6 l -815.9,-2024.1 h -1843.2 l 3475,8640.1 H 65830 l 3475.1,-8640.1 h -1843.3"
         style="fill:#231f20;fill-opacity:1;fill-rule:nonzero;stroke:none"
         transform="matrix(0.13333333,0,0,-0.13333333,0,6912.6667)" />
      <path
         id="path11"
         d="m 80282.1,36722.5 v 8640.1 h 6277.3 v -1722 h -4587.3 v -1419.8 h 2595.4 v -1722 h -2595.4 v -2054.3 h 4708 v -1722 h -6398"
         style="fill:#231f20;fill-opacity:1;fill-rule:nonzero;stroke:none"
         transform="matrix(0.13333333,0,0,-0.13333333,0,6912.6667)" />
      <path
         id="path12"
         d="m 53655.8,36722.5 v 8640.1 h 1690.1 v -7008.8 h 4707.9 v -1631.3 h -6398"
         style="fill:#231f20;fill-opacity:1;fill-rule:nonzero;stroke:none"
         transform="matrix(0.13333333,0,0,-0.13333333,0,6912.6667)" />
      <path
         id="path13"
         d="m 76371.1,36722.5 -3805.9,5528.4 v -5528.4 h -1705 v 8640.1 h 1705 L 76158,40075.8 v 5286.8 h 1704.9 v -8640.1 h -1491.8"
         style="fill:#231f20;fill-opacity:1;fill-rule:nonzero;stroke:none"
         transform="matrix(0.13333333,0,0,-0.13333333,0,6912.6667)" />
      <path
         id="path14"
         d="m 24530.5,36571.4 c -2516.1,0 -3546.8,2235.6 -3546.8,4471.1 0,2235.6 1030.7,4440.9 3546.8,4440.9 1485.5,0 2576.8,-845.9 3122.5,-2144.9 l -1606.7,-604.2 c -272.8,664.6 -818.5,1027.1 -1515.8,1027.1 -1485.3,0 -1788.5,-1510.5 -1788.5,-2718.9 0,-1238.6 303.2,-2749.1 1788.5,-2749.1 667,0 1212.7,362.5 1515.8,1027.2 h -1030.7 v 1721.9 h 2970.8 c -121.2,-2175.1 -788.1,-4471.1 -3455.9,-4471.1"
         style="fill:#231f20;fill-opacity:1;fill-rule:nonzero;stroke:none"
         transform="matrix(0.13333333,0,0,-0.13333333,0,6912.6667)" />
      <path
         id="path15"
         d="m 35357.8,36722.5 v 3776.2 H 31765 v -3776.2 h -1705 v 8640 h 1705 v -3141.8 h 3592.8 v 3141.8 h 1704.9 v -8640 h -1704.9"
         style="fill:#231f20;fill-opacity:1;fill-rule:nonzero;stroke:none"
         transform="matrix(0.13333333,0,0,-0.13333333,0,6912.6667)" />
      <path
         id="path16"
         d="m 17182.1,36722.5 v 8640.1 h 1728 v -8640.1 h -1728"
         style="fill:#231f20;fill-opacity:1;fill-rule:nonzero;stroke:none"
         transform="matrix(0.13333333,0,0,-0.13333333,0,6912.6667)" />
      <path
         id="path17"
         d="M 12451,43640.6 H 10066.3 V 41676.9 H 12451 c 638,0 1093.8,392.8 1093.8,997 0,543.8 -455.8,966.7 -1093.8,966.7 z m 1093.8,-6918.1 -1185,3232.5 H 10066.3 V 36722.5 H 8364.96 v 8640.1 h 3934.14 c 729.2,0 1093.8,-90.7 1579.8,-362.5 850.8,-483.4 1367.3,-1359.5 1367.3,-2326.2 0,-936.5 -455.8,-1782.4 -1245.7,-2296 l 1367.2,-3655.4 h -1822.9"
         style="fill:#231f20;fill-opacity:1;fill-rule:nonzero;stroke:none"
         transform="matrix(0.13333333,0,0,-0.13333333,0,6912.6667)" />
      <path
         id="path18"
         d="m 42661.9,43640.6 v -6918.1 h -1659.8 v 6918.1 h -2384.2 v 1722 h 6397.9 v -1722 h -2353.9"
         style="fill:#231f20;fill-opacity:1;fill-rule:nonzero;stroke:none"
         transform="matrix(0.13333333,0,0,-0.13333333,0,6912.6667)" />
      <path
         id="path19"
         d="m 12687.1,21602.4 v 8640.1 h 6277.2 v -1722 h -4587.2 v -1419.8 h 2595.4 v -1722 H 14377.1 V 23324.4 H 19085 v -1722 h -6397.9"
         style="fill:#231f20;fill-opacity:1;fill-rule:nonzero;stroke:none"
         transform="matrix(0.13333333,0,0,-0.13333333,0,6912.6667)" />
      <path
         id="path20"
         d="m 29630.1,21602.4 v 8640.1 h 1728 v -8640.1 h -1728"
         style="fill:#231f20;fill-opacity:1;fill-rule:nonzero;stroke:none"
         transform="matrix(0.13333333,0,0,-0.13333333,0,6912.6667)" />
      <path
         id="path21"
         d="m 36957.3,28520.5 v -6918.1 h -1659.9 v 6918.1 h -2384.1 v 1722 h 6397.9 v -1722 h -2353.9"
         style="fill:#231f20;fill-opacity:1;fill-rule:nonzero;stroke:none"
         transform="matrix(0.13333333,0,0,-0.13333333,0,6912.6667)" />
      <path
         id="path22"
         d="m 25792,21602.4 -1721.7,2900.2 -1782.2,-2900.2 h -1993.5 l 2718.5,4561.7 -2476.8,4078.4 H 22560 l 1510.3,-2447 1449.8,2447 h 2054 l -2446.7,-4108.6 2688.3,-4531.5 H 25792"
         style="fill:#231f20;fill-opacity:1;fill-rule:nonzero;stroke:none"
         transform="matrix(0.13333333,0,0,-0.13333333,0,6912.6667)" />
      <path
         id="path23"
         d="m 66708.7,21602.4 v 8640.1 h 1690 v -7008.8 h 4707.9 v -1631.3 h -6397.9"
         style="fill:#231f20;fill-opacity:1;fill-rule:nonzero;stroke:none"
         transform="matrix(0.13333333,0,0,-0.13333333,0,6912.6667)" />
      <path
         id="path24"
         d="m 62797.6,21602.4 -3805.8,5528.4 v -5528.4 h -1705 v 8640.1 h 1705 l 3592.7,-5286.8 v 5286.8 h 1705 v -8640.1 h -1491.9"
         style="fill:#231f20;fill-opacity:1;fill-rule:nonzero;stroke:none"
         transform="matrix(0.13333333,0,0,-0.13333333,0,6912.6667)" />
      <path
         id="path25"
         d="m 51597.4,28641.4 c -1245.8,0 -1914.2,-906.4 -1914.2,-2719 0,-1752.1 698.8,-2749.1 1914.2,-2749.1 1185,0 1914.2,1087.6 1914.2,2779.4 0,1873 -698.9,2688.7 -1914.2,2688.7 z m 0,-7190.1 c -2613.1,0 -3646.2,2205.4 -3646.2,4471.1 0,2719 1397.7,4440.9 3646.2,4440.9 2096.5,0 3615.7,-1782.4 3615.7,-4440.9 0,-2749.1 -1428.1,-4471.1 -3615.7,-4471.1"
         style="fill:#231f20;fill-opacity:1;fill-rule:nonzero;stroke:none"
         transform="matrix(0.13333333,0,0,-0.13333333,0,6912.6667)" />
      <path
         id="path26"
         d="m 78882.9,25106.8 v -3504.4 h -1722.4 v 3504.4 L 73625,30242.5 h 2054.8 l 2387.2,-3323.1 2236.1,3323.1 h 2054.8 l -3475,-5135.7"
         style="fill:#231f20;fill-opacity:1;fill-rule:nonzero;stroke:none"
         transform="matrix(0.13333333,0,0,-0.13333333,0,6912.6667)" />
    </g>
  </g>
</svg>
