<?xml version="1.0" encoding="UTF-8" standalone="no"?>
<!-- Created with Inkscape (http://www.inkscape.org/) -->

<svg
   version="1.1"
   id="svg1"
   width="12672.667"
   height="1440.6667"
   viewBox="0 0 12672.667 1440.6667"
   sodipodi:docname="tmpde61uq6j.pdf"
   xmlns:inkscape="http://www.inkscape.org/namespaces/inkscape"
   xmlns:sodipodi="http://sodipodi.sourceforge.net/DTD/sodipodi-0.dtd"
   xmlns="http://www.w3.org/2000/svg"
   xmlns:svg="http://www.w3.org/2000/svg">
  <defs
     id="defs1" />
  <sodipodi:namedview
     id="namedview1"
     pagecolor="#ffffff"
     bordercolor="#000000"
     borderopacity="0.25"
     inkscape:showpageshadow="2"
     inkscape:pageopacity="0.0"
     inkscape:pagecheckerboard="0"
     inkscape:deskcolor="#d1d1d1">
    <inkscape:page
       x="0"
       y="0"
       inkscape:label="1"
       id="page1"
       width="12672.667"
       height="1440.6667"
       margin="0"
       bleed="0" />
  </sodipodi:namedview>
  <g
     id="g1"
     inkscape:groupmode="layer"
     inkscape:label="1">
    <g
       id="group-R5">
      <path
         id="path2"
         d="M 95042.5,1082.5 C 95042.5,486 94559,2.5 93962.5,2.5 H 1082.5 C 486.023,2.5 2.5,486 2.5,1082.5 v 8640 c 0,596.5 483.523,1080 1080,1080 h 92880 c 596.5,0 1080,-483.5 1080,-1080 v -8640"
         style="fill:#fccc2d;fill-opacity:1;fill-rule:nonzero;stroke:none"
         transform="matrix(0.13333333,0,0,-0.13333333,0,1440.6667)" />
      <path
         id="path3"
         d="M 95042.5,1082.5 C 95042.5,486 94559,2.5 93962.5,2.5 H 1082.5 C 486.023,2.5 2.5,486 2.5,1082.5 v 8640 c 0,596.5 483.523,1080 1080,1080 h 92880 c 596.5,0 1080,-483.5 1080,-1080 z"
         style="fill:none;stroke:#231f20;stroke-width:5;stroke-linecap:butt;stroke-linejoin:miter;stroke-miterlimit:4;stroke-dasharray:none;stroke-opacity:1"
         transform="matrix(0.13333333,0,0,-0.13333333,0,1440.6667)" />
      <path
         id="path4"
         d="m 94322.5,1082.5 c 0,-198.5 -161.5,-360 -360,-360 h -92880 c -198.496,0 -360,161.5 -360,360 v 8640 c 0,198.5 161.504,360 360,360 h 92880 c 198.5,0 360,-161.5 360,-360 z m -360,9450 h -92880 c -446.633,0 -810,-363.4 -810,-810 v -8640 c 0,-446.598 363.367,-810 810,-810 h 92880 c 446.7,0 810,363.402 810,810 v 8640 c 0,446.6 -363.3,810 -810,810"
         style="fill:#231f20;fill-opacity:1;fill-rule:nonzero;stroke:none"
         transform="matrix(0.13333333,0,0,-0.13333333,0,1440.6667)" />
      <path
         id="path5"
         d="m 28654.4,6486.29 -606.1,-1455.17 h 1212.3 z m 1363.8,-3243.8 -424.3,1015.59 h -1879 L 27290.6,3242.49 H 26442 l 1818.4,4320.01 h 788 l 1803.3,-4320.01 h -833.5"
         style="fill:#231f20;fill-opacity:1;fill-rule:nonzero;stroke:none"
         transform="matrix(0.13333333,0,0,-0.13333333,0,1440.6667)" />
      <path
         id="path6"
         d="m 42604.8,6486.29 -606.2,-1455.17 h 1212.3 z m 1363.8,-3243.8 -424.3,1015.59 h -1879 L 41241,3242.49 h -848.6 l 1818.4,4320.01 h 788 L 44802,3242.49 h -833.4"
         style="fill:#231f20;fill-opacity:1;fill-rule:nonzero;stroke:none"
         transform="matrix(0.13333333,0,0,-0.13333333,0,1440.6667)" />
      <path
         id="path7"
         d="m 47776.8,6622.71 c -196.8,106.1 -423.9,166.74 -650.9,166.74 h -655.5 v -2773.9 h 655.5 c 227,0 439,60.63 620.6,166.74 454.2,242.52 666.1,636.63 666.1,1227.79 0,575.99 -211.9,970.1 -635.8,1212.63 z m 363.3,-3122.53 C 47837.4,3333.44 47474,3242.49 47125.9,3242.49 H 45683.3 V 7562.5 h 1442.6 c 363.3,0 711.5,-90.95 1029.4,-272.85 666,-378.94 1029.3,-1030.72 1029.3,-1879.57 0,-864.01 -363.3,-1530.95 -1044.5,-1909.9"
         style="fill:#231f20;fill-opacity:1;fill-rule:nonzero;stroke:none"
         transform="matrix(0.13333333,0,0,-0.13333333,0,1440.6667)" />
      <path
         id="path8"
         d="M 36582.1,3242.49 V 7562.5 h 3164 v -773.05 h -2373 v -803.38 h 1293 v -788.2 h -1293 V 4015.55 h 2449 v -773.06 h -3240"
         style="fill:#231f20;fill-opacity:1;fill-rule:nonzero;stroke:none"
         transform="matrix(0.13333333,0,0,-0.13333333,0,1440.6667)" />
      <path
         id="path9"
         d="M 34457.9,3242.49 V 5122.08 H 32509.3 V 3242.49 h -776.4 V 7562.5 h 776.4 V 5895.13 h 1948.6 V 7562.5 h 776.4 V 3242.49 h -776.4"
         style="fill:#231f20;fill-opacity:1;fill-rule:nonzero;stroke:none"
         transform="matrix(0.13333333,0,0,-0.13333333,0,1440.6667)" />
      <path
         id="path10"
         d="m 15635.6,6865.24 c -653.2,0 -1048.2,-545.68 -1048.2,-1455.16 0,-924.64 395,-1470.32 1048.2,-1470.32 820.4,0 1017.9,803.37 1017.9,1470.32 0,909.48 -364.6,1455.16 -1017.9,1455.16 z m 0,-3698.54 c -1276.1,0 -1838.2,1152.01 -1838.2,2243.38 0,1379.37 698.8,2228.22 1838.2,2228.22 1063.5,0 1792.7,-894.32 1792.7,-2213.06 0,-1349.06 -698.8,-2258.54 -1792.7,-2258.54"
         style="fill:#231f20;fill-opacity:1;fill-rule:nonzero;stroke:none"
         transform="matrix(0.13333333,0,0,-0.13333333,0,1440.6667)" />
      <path
         id="path11"
         d="M 20713.1,6789.45 H 19408.5 V 5713.24 h 1304.6 c 378.8,0 636.3,212.22 636.3,530.53 0,333.47 -257.5,545.68 -636.3,545.68 z m 742.3,-1682.54 c -242.3,-136.41 -439.3,-166.72 -772.6,-166.72 h -1274.3 v -1697.7 h -787.8 v 4320.02 h 2062.1 c 333.3,0 530.3,-45.47 772.6,-181.89 409.1,-227.38 666.6,-651.8 666.6,-1136.85 0,-454.75 -257.5,-909.48 -666.6,-1136.86"
         style="fill:#231f20;fill-opacity:1;fill-rule:nonzero;stroke:none"
         transform="matrix(0.13333333,0,0,-0.13333333,0,1440.6667)" />
      <path
         id="path12"
         d="m 7370.64,5181.06 c -192.28,53.08 -675.8,169.14 -838.94,264.79 -325.2,190.65 -573.77,502.43 -573.77,964.65 0,712.42 608.93,1197.48 1491.87,1197.48 639.38,0 1172.2,-212.22 1613.68,-666.94 l -578.5,-515.39 c -274,288.01 -624.15,424.43 -1035.18,424.43 -441.47,0 -700.27,-166.74 -700.27,-439.58 0,-242.52 152.24,-348.63 685.05,-469.89 578.49,-121.26 959.08,-242.52 1202.64,-363.8 380.59,-197.05 624.16,-606.31 624.16,-1076.2 0,-439.59 -197.9,-773.06 -608.94,-1015.58 -304.46,-181.91 -700.26,-288.01 -1096.06,-288.01 -745.95,0 -1309.21,272.84 -1796.36,833.69 l 624.15,485.05 c 319.7,-378.95 669.83,-545.69 1156.98,-545.69 548.03,0 943.83,242.53 943.83,560.84 0,405.49 -441.04,464.32 -1114.34,650.15"
         style="fill:#231f20;fill-opacity:1;fill-rule:nonzero;stroke:none"
         transform="matrix(0.13333333,0,0,-0.13333333,0,1440.6667)" />
      <path
         id="path13"
         d="M 11830.1,6804.6 V 3242.48 h -757 V 6804.6 H 9831.61 v 757.9 h 3239.99 v -757.9 h -1241.5"
         style="fill:#231f20;fill-opacity:1;fill-rule:nonzero;stroke:none"
         transform="matrix(0.13333333,0,0,-0.13333333,0,1440.6667)" />
      <path
         id="path14"
         d="m 81923.7,3242.49 v 4320.02 h 775.8 V 3909.45 h 2464.2 v -666.96 h -3240"
         style="fill:#231f20;fill-opacity:1;fill-rule:nonzero;stroke:none"
         transform="matrix(0.13333333,0,0,-0.13333333,0,1440.6667)" />
      <path
         id="path15"
         d="m 86045,3242.49 v 4320.02 h 775.8 V 3909.45 H 89285 v -666.96 h -3240"
         style="fill:#231f20;fill-opacity:1;fill-rule:nonzero;stroke:none"
         transform="matrix(0.13333333,0,0,-0.13333333,0,1440.6667)" />
      <path
         id="path16"
         d="m 78938.7,6865.24 c -653.3,0 -1048.3,-545.68 -1048.3,-1455.16 0,-924.64 395,-1470.32 1048.3,-1470.32 820.4,0 1017.9,803.37 1017.9,1470.32 0,909.48 -364.6,1455.16 -1017.9,1455.16 z m 0,-3698.54 c -1276.2,0 -1838.3,1152.01 -1838.3,2243.38 0,1379.37 698.9,2228.22 1838.3,2228.22 1063.5,0 1792.7,-894.32 1792.7,-2213.06 0,-1349.06 -698.9,-2258.54 -1792.7,-2258.54"
         style="fill:#231f20;fill-opacity:1;fill-rule:nonzero;stroke:none"
         transform="matrix(0.13333333,0,0,-0.13333333,0,1440.6667)" />
      <path
         id="path17"
         d="M 75133.2,6804.6 V 3242.48 h -757.1 V 6804.6 h -1241.4 v 757.9 h 3240 v -757.9 h -1241.5"
         style="fill:#231f20;fill-opacity:1;fill-rule:nonzero;stroke:none"
         transform="matrix(0.13333333,0,0,-0.13333333,0,1440.6667)" />
      <path
         id="path18"
         d="M 61793.1,6486.29 61187,5031.12 h 1212.2 z m 1363.8,-3243.8 -424.3,1015.59 h -1879 l -424.3,-1015.59 h -848.6 l 1818.4,4320.01 h 788 l 1803.2,-4320.01 h -833.4"
         style="fill:#231f20;fill-opacity:1;fill-rule:nonzero;stroke:none"
         transform="matrix(0.13333333,0,0,-0.13333333,0,1440.6667)" />
      <path
         id="path19"
         d="M 57757.1,6789.45 H 56452.4 V 5713.24 h 1304.7 c 378.7,0 636.2,212.22 636.2,530.53 0,333.47 -257.5,545.68 -636.2,545.68 z m 742.3,-1682.54 c -242.4,-136.41 -439.3,-166.72 -772.6,-166.72 h -1274.4 v -1697.7 h -787.8 v 4320.02 h 2062.2 c 333.3,0 530.2,-45.47 772.6,-181.89 409.1,-227.38 666.6,-651.8 666.6,-1136.85 0,-454.75 -257.5,-909.48 -666.6,-1136.86"
         style="fill:#231f20;fill-opacity:1;fill-rule:nonzero;stroke:none"
         transform="matrix(0.13333333,0,0,-0.13333333,0,1440.6667)" />
      <path
         id="path20"
         d="M 66996.2,5000.81 V 3242.48 h -772.8 V 5000.81 L 64405,7562.5 h 954.7 L 66617.4,5804.18 67860,7562.5 h 954.7 L 66996.2,5000.81"
         style="fill:#231f20;fill-opacity:1;fill-rule:nonzero;stroke:none"
         transform="matrix(0.13333333,0,0,-0.13333333,0,1440.6667)" />
      <path
         id="path21"
         d="m 51344.6,4985.62 v 773.06 h 2160 v -773.06 h -2160"
         style="fill:#231f20;fill-opacity:1;fill-rule:nonzero;stroke:none"
         transform="matrix(0.13333333,0,0,-0.13333333,0,1440.6667)" />
      <path
         id="path22"
         d="m 39331.8,9021.32 h -143.5 v 51.81 h 349.3 v -51.81 h -144.2 v -420.04 h -61.6 v 420.04"
         style="fill:#bf2519;fill-opacity:1;fill-rule:nonzero;stroke:none"
         transform="matrix(0.13333333,0,0,-0.13333333,0,1440.6667)" />
      <path
         id="path23"
         d="m 39651,9073.13 v -197.42 h 228.2 v 197.42 h 61.6 v -471.85 h -61.6 V 8822.5 H 39651 v -221.22 h -61.6 v 471.85 h 61.6"
         style="fill:#bf2519;fill-opacity:1;fill-rule:nonzero;stroke:none"
         transform="matrix(0.13333333,0,0,-0.13333333,0,1440.6667)" />
      <path
         id="path24"
         d="m 40107.4,9073.13 v -471.85 h -61.6 v 471.85 h 61.6"
         style="fill:#bf2519;fill-opacity:1;fill-rule:nonzero;stroke:none"
         transform="matrix(0.13333333,0,0,-0.13333333,0,1440.6667)" />
      <path
         id="path25"
         d="m 40206.1,8675.49 c 27.3,-17.51 66.5,-30.81 108.5,-30.81 62.3,0 98.7,32.2 98.7,80.51 0,43.41 -25.2,69.31 -88.9,93.11 -77,28 -124.6,68.61 -124.6,134.41 0,73.52 60.9,128.12 152.6,128.12 47.6,0 83.3,-11.2 103.6,-23.11 l -16.8,-49.7 c -14.7,9.1 -46.2,22.4 -88.9,22.4 -64.4,0 -88.9,-38.5 -88.9,-70.7 0,-44.11 28.7,-65.81 93.8,-91.01 79.8,-31.51 119.7,-69.31 119.7,-138.62 0,-72.8 -53.2,-136.51 -164.5,-136.51 -45.5,0 -95.2,14 -120.4,30.8 l 16.1,51.11"
         style="fill:#bf2519;fill-opacity:1;fill-rule:nonzero;stroke:none"
         transform="matrix(0.13333333,0,0,-0.13333333,0,1440.6667)" />
      <path
         id="path26"
         d="m 40768.2,8648.89 c 15.4,-2.81 37.8,-2.81 61.6,-2.81 130.2,-0.69 200.9,72.81 200.9,200.22 0.7,112.72 -62.3,182.03 -191.1,182.03 -31.5,0 -55.3,-2.81 -71.4,-6.31 z m -61.6,417.94 c 37.8,5.6 81.9,9.8 130.2,9.8 87.5,0 149.8,-19.6 191.1,-58.1 42.7,-38.51 67.2,-93.82 67.2,-170.13 0,-77 -24.5,-140.01 -67.9,-183.41 -44.8,-44.11 -117.6,-67.91 -209.3,-67.91 -44.1,0 -79.8,1.4 -111.3,5.6 v 464.15"
         style="fill:#bf2519;fill-opacity:1;fill-rule:nonzero;stroke:none"
         transform="matrix(0.13333333,0,0,-0.13333333,0,1440.6667)" />
      <path
         id="path27"
         d="m 41234.4,8851.9 h 62.3 c 65.1,0 106.4,35.71 106.4,89.61 0,60.91 -44.1,87.51 -108.5,87.51 -29.4,0 -49.7,-2.79 -60.2,-5.6 z m -60.9,214.23 c 30.8,6.3 75.6,10.5 116.9,10.5 65.1,0 107.8,-12.6 137.2,-39.2 23.1,-20.31 37.1,-52.51 37.1,-89.61 0,-61.61 -39.9,-102.92 -88.9,-119.71 V 8826 c 35.7,-12.6 57.4,-46.2 69.3,-95.21 15.4,-65.8 26.6,-111.31 35.7,-129.51 h -63 c -7.7,13.3 -18.2,53.91 -30.8,112.71 -14,65.11 -39.9,89.61 -95.2,91.71 h -57.4 v -204.42 h -60.9 v 464.85"
         style="fill:#bf2519;fill-opacity:1;fill-rule:nonzero;stroke:none"
         transform="matrix(0.13333333,0,0,-0.13333333,0,1440.6667)" />
      <path
         id="path28"
         d="m 41784.5,8797.3 -46.9,135.82 c -9.8,30.8 -16.8,58.8 -23.8,86.1 h -2.1 c -6.3,-27.3 -14,-56.7 -23.1,-85.41 l -46.2,-136.51 z m -154.7,-47.6 -49,-148.42 h -63 l 160.3,471.85 h 73.5 l 161,-471.85 h -65.1 l -50.4,148.42 h -167.3"
         style="fill:#bf2519;fill-opacity:1;fill-rule:nonzero;stroke:none"
         transform="matrix(0.13333333,0,0,-0.13333333,0,1440.6667)" />
      <path
         id="path29"
         d="m 42021.1,8601.28 -119.7,471.85 h 64.4 l 56,-238.73 c 14,-59.5 26.6,-117.61 35,-163.11 h 1.4 c 7.7,46.9 22.4,102.91 38.5,163.81 l 63,238.03 h 63.7 l 57.4,-239.43 c 13.3,-56.7 25.9,-112.01 32.9,-161.71 h 1.4 c 9.8,51.8 23.2,104.31 37.9,163.11 l 62.3,238.03 h 62.3 l -133.7,-471.85 h -63.8 l -59.5,245.02 c -14.7,60.91 -24.5,107.12 -30.8,154.72 h -1.4 c -7.7,-47.6 -18.9,-93.11 -36.4,-154.01 l -67.2,-245.73 h -63.7"
         style="fill:#bf2519;fill-opacity:1;fill-rule:nonzero;stroke:none"
         transform="matrix(0.13333333,0,0,-0.13333333,0,1440.6667)" />
      <path
         id="path30"
         d="m 42597.2,9073.13 v -471.85 h -61.6 v 471.85 h 61.6"
         style="fill:#bf2519;fill-opacity:1;fill-rule:nonzero;stroke:none"
         transform="matrix(0.13333333,0,0,-0.13333333,0,1440.6667)" />
      <path
         id="path31"
         d="m 42703.6,8601.28 v 471.85 h 67.2 l 150.5,-238.73 c 34.3,-55.3 62.3,-104.31 84,-153.31 l 2.1,0.7 c -5.6,63 -7,120.41 -7,193.22 v 198.12 h 57.4 v -471.85 h -61.6 l -149.8,239.42 c -32.9,52.51 -64.4,106.41 -87.5,157.52 l -2.1,-0.7 c 3.5,-59.51 4.2,-116.21 4.2,-194.62 v -201.62 h -57.4"
         style="fill:#bf2519;fill-opacity:1;fill-rule:nonzero;stroke:none"
         transform="matrix(0.13333333,0,0,-0.13333333,0,1440.6667)" />
      <path
         id="path32"
         d="m 43524,8622.28 c -27.3,-10.5 -81.9,-25.9 -145.6,-25.9 -71.4,0 -130.2,18.2 -176.4,62.31 -40.6,39.2 -65.8,102.21 -65.8,175.71 0,140.72 97.3,243.63 255.5,243.63 54.6,0 98,-11.9 118.3,-21.7 l -15.4,-49.71 c -25.2,11.91 -56.7,20.3 -104.3,20.3 -114.8,0 -189.7,-71.4 -189.7,-189.72 0,-119.71 71.4,-190.42 182,-190.42 39.9,0 67.2,5.6 81.2,12.6 v 140.72 h -95.2 v 49.01 h 155.4 v -226.83"
         style="fill:#bf2519;fill-opacity:1;fill-rule:nonzero;stroke:none"
         transform="matrix(0.13333333,0,0,-0.13333333,0,1440.6667)" />
      <path
         id="path33"
         d="m 43825.7,9073.13 v -471.85 h -61.6 v 471.85 h 61.6"
         style="fill:#bf2519;fill-opacity:1;fill-rule:nonzero;stroke:none"
         transform="matrix(0.13333333,0,0,-0.13333333,0,1440.6667)" />
      <path
         id="path34"
         d="m 43924.4,8675.49 c 27.3,-17.51 66.5,-30.81 108.5,-30.81 62.3,0 98.7,32.2 98.7,80.51 0,43.41 -25.2,69.31 -88.9,93.11 -77,28 -124.6,68.61 -124.6,134.41 0,73.52 60.9,128.12 152.6,128.12 47.6,0 83.3,-11.2 103.6,-23.11 l -16.8,-49.7 c -14.7,9.1 -46.2,22.4 -88.9,22.4 -64.4,0 -88.9,-38.5 -88.9,-70.7 0,-44.11 28.7,-65.81 93.8,-91.01 79.8,-31.51 119.7,-69.31 119.7,-138.62 0,-72.8 -53.2,-136.51 -164.5,-136.51 -45.5,0 -95.2,14 -120.4,30.8 l 16.1,51.11"
         style="fill:#bf2519;fill-opacity:1;fill-rule:nonzero;stroke:none"
         transform="matrix(0.13333333,0,0,-0.13333333,0,1440.6667)" />
      <path
         id="path35"
         d="m 44417.9,8675.49 c 27.3,-17.51 66.5,-30.81 108.5,-30.81 62.3,0 98.7,32.2 98.7,80.51 0,43.41 -25.2,69.31 -88.9,93.11 -77,28 -124.6,68.61 -124.6,134.41 0,73.52 60.9,128.12 152.6,128.12 47.6,0 83.3,-11.2 103.6,-23.11 l -16.8,-49.7 c -14.7,9.1 -46.2,22.4 -88.9,22.4 -64.4,0 -88.9,-38.5 -88.9,-70.7 0,-44.11 28.7,-65.81 93.8,-91.01 79.8,-31.51 119.7,-69.31 119.7,-138.62 0,-72.8 -53.2,-136.51 -164.5,-136.51 -45.5,0 -95.2,14 -120.4,30.8 l 16.1,51.11"
         style="fill:#bf2519;fill-opacity:1;fill-rule:nonzero;stroke:none"
         transform="matrix(0.13333333,0,0,-0.13333333,0,1440.6667)" />
      <path
         id="path36"
         d="m 45099.7,8615.98 c -21.7,-11.2 -67.2,-22.4 -124.6,-22.4 -133,0 -232.4,84.01 -232.4,239.42 0,148.42 100.1,247.83 246.4,247.83 58.1,0 95.9,-12.6 112,-21 l -15.4,-49.71 c -22.4,11.2 -55.3,19.61 -94.5,19.61 -110.6,0 -184.1,-70.71 -184.1,-194.63 0,-116.21 66.5,-189.71 180.6,-189.71 37.8,0 75.6,7.7 100.1,19.6 l 11.9,-49.01"
         style="fill:#bf2519;fill-opacity:1;fill-rule:nonzero;stroke:none"
         transform="matrix(0.13333333,0,0,-0.13333333,0,1440.6667)" />
      <path
         id="path37"
         d="m 45410.4,8797.3 -46.9,135.82 c -9.8,30.8 -16.8,58.8 -23.8,86.1 h -2.1 c -6.3,-27.3 -14,-56.7 -23.1,-85.41 l -46.2,-136.51 z m -154.7,-47.6 -49,-148.42 h -63 l 160.3,471.85 h 73.5 l 161,-471.85 h -65.1 l -50.4,148.42 h -167.3"
         style="fill:#bf2519;fill-opacity:1;fill-rule:nonzero;stroke:none"
         transform="matrix(0.13333333,0,0,-0.13333333,0,1440.6667)" />
      <path
         id="path38"
         d="m 45607.1,9073.13 h 61.6 v -420.75 h 201.6 v -51.1 h -263.2 v 471.85"
         style="fill:#bf2519;fill-opacity:1;fill-rule:nonzero;stroke:none"
         transform="matrix(0.13333333,0,0,-0.13333333,0,1440.6667)" />
      <path
         id="path39"
         d="m 46181.8,8822.5 h -182.7 v -170.12 h 204.4 v -51.1 h -266 v 471.85 h 255.5 v -51.11 h -193.9 v -149.11 h 182.7 v -50.41"
         style="fill:#bf2519;fill-opacity:1;fill-rule:nonzero;stroke:none"
         transform="matrix(0.13333333,0,0,-0.13333333,0,1440.6667)" />
      <path
         id="path40"
         d="m 46343.5,8648.89 c 15.4,-2.81 37.8,-2.81 61.6,-2.81 130.2,-0.69 200.9,72.81 200.9,200.22 0.7,112.72 -62.3,182.03 -191.1,182.03 -31.5,0 -55.3,-2.81 -71.4,-6.31 z m -61.6,417.94 c 37.8,5.6 81.9,9.8 130.2,9.8 87.5,0 149.8,-19.6 191.1,-58.1 42.7,-38.51 67.2,-93.82 67.2,-170.13 0,-77 -24.5,-140.01 -67.9,-183.41 -44.8,-44.11 -117.6,-67.91 -209.3,-67.91 -44.1,0 -79.8,1.4 -111.3,5.6 v 464.15"
         style="fill:#bf2519;fill-opacity:1;fill-rule:nonzero;stroke:none"
         transform="matrix(0.13333333,0,0,-0.13333333,0,1440.6667)" />
      <path
         id="path41"
         d="m 46958.2,9021.32 h -143.5 v 51.81 h 349.4 v -51.81 h -144.3 v -420.04 h -61.6 v 420.04"
         style="fill:#bf2519;fill-opacity:1;fill-rule:nonzero;stroke:none"
         transform="matrix(0.13333333,0,0,-0.13333333,0,1440.6667)" />
      <path
         id="path42"
         d="m 47384.6,8643.28 c 96.7,0 151.3,88.91 151.3,196.03 0,93.81 -49,191.81 -150.6,191.81 -101.5,0 -151.9,-94.5 -151.9,-196.72 0,-99.4 54.6,-191.12 150.5,-191.12 z m -2.8,-49.7 c -125.3,0 -212.1,96.61 -212.1,239.42 0,149.82 92.4,247.83 218.4,247.83 129.6,0 212.9,-98.71 212.9,-238.73 0,-161.71 -98.7,-248.52 -218.5,-248.52 h -0.7"
         style="fill:#bf2519;fill-opacity:1;fill-rule:nonzero;stroke:none"
         transform="matrix(0.13333333,0,0,-0.13333333,0,1440.6667)" />
      <path
         id="path43"
         d="m 48078.3,9004.52 h -173.6 l -17.5,-115.51 c 10.5,1.4 20.3,2.8 37.1,2.8 35.7,0 70,-7.7 98,-24.51 35.7,-19.59 65.1,-59.5 65.1,-118.31 0,-88.9 -70.7,-155.41 -169.4,-155.41 -49.7,0 -91,14 -113.4,28 l 15.4,46.91 c 18.9,-11.2 56,-25.21 98,-25.21 57.4,0 107.8,37.81 107.1,99.42 0,60.2 -39.9,101.5 -130.2,101.5 -26.6,0 -46.9,-2.1 -63.7,-4.89 l 29.4,217.02 h 217.7 v -51.81"
         style="fill:#bf2519;fill-opacity:1;fill-rule:nonzero;stroke:none"
         transform="matrix(0.13333333,0,0,-0.13333333,0,1440.6667)" />
      <path
         id="path44"
         d="m 48313.5,8641.18 c 62.3,0 92.4,73.51 92.4,189.72 0,112.02 -28,185.52 -92.4,185.52 -56,0 -92.4,-71.41 -92.4,-185.52 -1.4,-118.31 35,-189.72 91.7,-189.72 z m -2.8,-47.6 c -88.9,0 -149.8,83.3 -151.2,233.82 0,153.32 66.5,236.63 158.9,236.63 95.2,0 150.5,-85.41 150.5,-230.33 0,-154.71 -58.1,-240.12 -157.5,-240.12 h -0.7"
         style="fill:#bf2519;fill-opacity:1;fill-rule:nonzero;stroke:none"
         transform="matrix(0.13333333,0,0,-0.13333333,0,1440.6667)" />
      <path
         id="path45"
         d="m 48919,8838.6 c -37.8,0 -58.8,-45.5 -58.8,-102.91 -1.4,-57.4 21,-102.21 59.5,-102.21 40.6,0 58.8,43.4 58.8,103.61 0,55.31 -16.1,101.51 -58.8,101.51 z m 2.8,37.11 c 63,0 104.3,-49.01 104.3,-135.82 0,-95.91 -49.7,-143.51 -108.5,-143.51 -57.4,0 -105.7,46.2 -106.4,137.21 0,91.01 49,142.12 109.9,142.12 z m -305.9,-282.83 268.1,471.85 h 39.2 l -268.1,-471.85 z m 6.3,434.04 c -37.8,0 -58.8,-45.5 -58.8,-102.91 -1.4,-57.4 21,-102.21 59.5,-102.21 40.6,0 58.8,43.41 58.8,103.62 0,55.3 -16.1,101.5 -58.8,101.5 z m 2.8,37.11 c 63,0 104.3,-49.01 104.3,-135.82 0,-95.91 -49.7,-143.51 -108.5,-143.51 -57.4,0 -105.7,46.2 -106.4,137.21 0,91.01 49,142.12 109.9,142.12 h 0.7"
         style="fill:#bf2519;fill-opacity:1;fill-rule:nonzero;stroke:none"
         transform="matrix(0.13333333,0,0,-0.13333333,0,1440.6667)" />
      <path
         id="path46"
         d="m 49436.3,8643.28 c 96.6,0 151.2,88.91 151.2,196.03 0,93.81 -49,191.81 -150.5,191.81 -101.5,0 -151.9,-94.5 -151.9,-196.72 0,-99.4 54.6,-191.12 150.5,-191.12 z m -2.8,-49.7 c -125.3,0 -212.1,96.61 -212.1,239.42 0,149.82 92.4,247.83 218.4,247.83 129.5,0 212.8,-98.71 212.8,-238.73 0,-161.71 -98.7,-248.52 -218.4,-248.52 h -0.7"
         style="fill:#bf2519;fill-opacity:1;fill-rule:nonzero;stroke:none"
         transform="matrix(0.13333333,0,0,-0.13333333,0,1440.6667)" />
      <path
         id="path47"
         d="m 49731,9073.13 h 254.1 v -51.11 h -192.5 v -156.81 h 177.8 v -50.41 h -177.8 v -213.52 h -61.6 v 471.85"
         style="fill:#bf2519;fill-opacity:1;fill-rule:nonzero;stroke:none"
         transform="matrix(0.13333333,0,0,-0.13333333,0,1440.6667)" />
      <path
         id="path48"
         d="m 50282,9021.32 h -143.5 v 51.81 h 349.4 v -51.81 h -144.3 v -420.04 h -61.6 v 420.04"
         style="fill:#bf2519;fill-opacity:1;fill-rule:nonzero;stroke:none"
         transform="matrix(0.13333333,0,0,-0.13333333,0,1440.6667)" />
      <path
         id="path49"
         d="m 50601.2,9073.13 v -197.42 h 228.2 v 197.42 h 61.7 v -471.85 h -61.7 v 221.22 h -228.2 v -221.22 h -61.6 v 471.85 h 61.6"
         style="fill:#bf2519;fill-opacity:1;fill-rule:nonzero;stroke:none"
         transform="matrix(0.13333333,0,0,-0.13333333,0,1440.6667)" />
      <path
         id="path50"
         d="m 51240.3,8822.5 h -182.7 v -170.12 h 204.4 v -51.1 h -266 v 471.85 h 255.5 v -51.11 h -193.9 v -149.11 h 182.7 v -50.41"
         style="fill:#bf2519;fill-opacity:1;fill-rule:nonzero;stroke:none"
         transform="matrix(0.13333333,0,0,-0.13333333,0,1440.6667)" />
      <path
         id="path51"
         d="m 51488.8,9073.13 h 254.1 v -51.11 h -192.5 v -156.81 h 177.8 v -50.41 h -177.8 v -213.52 h -61.6 v 471.85"
         style="fill:#bf2519;fill-opacity:1;fill-rule:nonzero;stroke:none"
         transform="matrix(0.13333333,0,0,-0.13333333,0,1440.6667)" />
      <path
         id="path52"
         d="M 51891.3,9073.13 V 8793.1 c 0,-105.01 46.9,-149.82 109.9,-149.82 69.3,0 114.8,46.21 114.8,149.82 v 280.03 h 61.6 V 8797.3 c 0,-144.92 -76.3,-203.72 -178.5,-203.72 -96.6,0 -169.4,54.6 -169.4,201.62 v 277.93 h 61.6"
         style="fill:#bf2519;fill-opacity:1;fill-rule:nonzero;stroke:none"
         transform="matrix(0.13333333,0,0,-0.13333333,0,1440.6667)" />
      <path
         id="path53"
         d="m 52282.6,9073.13 h 61.6 v -420.75 h 201.6 v -51.1 h -263.2 v 471.85"
         style="fill:#bf2519;fill-opacity:1;fill-rule:nonzero;stroke:none"
         transform="matrix(0.13333333,0,0,-0.13333333,0,1440.6667)" />
      <path
         id="path54"
         d="m 52613,9073.13 h 61.6 v -420.75 h 201.6 v -51.1 H 52613 v 471.85"
         style="fill:#bf2519;fill-opacity:1;fill-rule:nonzero;stroke:none"
         transform="matrix(0.13333333,0,0,-0.13333333,0,1440.6667)" />
      <path
         id="path55"
         d="m 53084.8,8675.49 c 27.3,-17.51 66.5,-30.81 108.5,-30.81 62.3,0 98.7,32.2 98.7,80.51 0,43.41 -25.2,69.31 -88.9,93.11 -77,28 -124.6,68.61 -124.6,134.41 0,73.52 60.9,128.12 152.6,128.12 47.6,0 83.3,-11.2 103.6,-23.11 l -16.8,-49.7 c -14.7,9.1 -46.2,22.4 -88.9,22.4 -64.4,0 -88.9,-38.5 -88.9,-70.7 0,-44.11 28.7,-65.81 93.8,-91.01 79.8,-31.51 119.7,-69.31 119.7,-138.62 0,-72.8 -53.2,-136.51 -164.5,-136.51 -45.5,0 -95.2,14 -120.4,30.8 l 16.1,51.11"
         style="fill:#bf2519;fill-opacity:1;fill-rule:nonzero;stroke:none"
         transform="matrix(0.13333333,0,0,-0.13333333,0,1440.6667)" />
      <path
         id="path56"
         d="m 53498.5,9073.13 v -471.85 h -61.6 v 471.85 h 61.6"
         style="fill:#bf2519;fill-opacity:1;fill-rule:nonzero;stroke:none"
         transform="matrix(0.13333333,0,0,-0.13333333,0,1440.6667)" />
      <path
         id="path57"
         d="m 53964.7,8622.28 c -27.3,-10.5 -81.9,-25.9 -145.6,-25.9 -71.4,0 -130.2,18.2 -176.4,62.31 -40.6,39.2 -65.8,102.21 -65.8,175.71 0,140.72 97.3,243.63 255.5,243.63 54.6,0 98,-11.9 118.3,-21.7 l -15.4,-49.71 c -25.2,11.91 -56.7,20.3 -104.3,20.3 -114.8,0 -189.7,-71.4 -189.7,-189.72 0,-119.71 71.4,-190.42 182,-190.42 39.9,0 67.2,5.6 81.2,12.6 v 140.72 h -95.2 v 49.01 h 155.4 v -226.83"
         style="fill:#bf2519;fill-opacity:1;fill-rule:nonzero;stroke:none"
         transform="matrix(0.13333333,0,0,-0.13333333,0,1440.6667)" />
      <path
         id="path58"
         d="m 54057.1,8601.28 v 471.85 h 67.2 l 150.5,-238.73 c 34.3,-55.3 62.3,-104.31 84,-153.31 l 2.1,0.7 c -5.6,63 -7,120.41 -7,193.22 v 198.12 h 57.4 v -471.85 h -61.6 l -149.8,239.42 c -32.9,52.51 -64.4,106.41 -87.5,157.52 l -2.1,-0.7 c 3.5,-59.51 4.2,-116.21 4.2,-194.62 v -201.62 h -57.4"
         style="fill:#bf2519;fill-opacity:1;fill-rule:nonzero;stroke:none"
         transform="matrix(0.13333333,0,0,-0.13333333,0,1440.6667)" />
      <path
         id="path59"
         d="m 54658.3,8675.49 c 27.3,-17.51 66.6,-30.81 108.5,-30.81 62.4,0 98.8,32.2 98.8,80.51 0,43.41 -25.2,69.31 -88.9,93.11 -77.1,28 -124.7,68.61 -124.7,134.41 0,73.52 60.9,128.12 152.7,128.12 47.6,0 83.3,-11.2 103.6,-23.11 l -16.8,-49.7 c -14.7,9.1 -46.2,22.4 -88.9,22.4 -64.4,0 -89,-38.5 -89,-70.7 0,-44.11 28.8,-65.81 93.9,-91.01 79.8,-31.51 119.7,-69.31 119.7,-138.62 0,-72.8 -53.2,-136.51 -164.6,-136.51 -45.5,0 -95.2,14 -120.4,30.8 l 16.1,51.11"
         style="fill:#bf2519;fill-opacity:1;fill-rule:nonzero;stroke:none"
         transform="matrix(0.13333333,0,0,-0.13333333,0,1440.6667)" />
      <path
         id="path60"
         d="m 55072,9073.13 v -471.85 h -61.6 v 471.85 h 61.6"
         style="fill:#bf2519;fill-opacity:1;fill-rule:nonzero;stroke:none"
         transform="matrix(0.13333333,0,0,-0.13333333,0,1440.6667)" />
      <path
         id="path61"
         d="m 55146.2,8636.98 261.9,382.94 v 2.1 h -239.5 v 51.11 h 318.6 v -37.1 l -260.5,-381.55 v -2.1 h 264 v -51.1 h -344.5 v 35.7"
         style="fill:#bf2519;fill-opacity:1;fill-rule:nonzero;stroke:none"
         transform="matrix(0.13333333,0,0,-0.13333333,0,1440.6667)" />
      <path
         id="path62"
         d="m 55809.2,8822.5 h -182.8 v -170.12 h 204.5 v -51.1 h -266.1 v 471.85 h 255.6 v -51.11 h -194 v -149.11 h 182.8 v -50.41"
         style="fill:#bf2519;fill-opacity:1;fill-rule:nonzero;stroke:none"
         transform="matrix(0.13333333,0,0,-0.13333333,0,1440.6667)" />
    </g>
  </g>
</svg>
