<?xml version="1.0" encoding="UTF-8" standalone="no"?>
<!-- Created with Inkscape (http://www.inkscape.org/) -->

<svg
   version="1.1"
   id="svg1"
   width="2880.6667"
   height="2304.6667"
   viewBox="0 0 2880.6667 2304.6667"
   sodipodi:docname="tmppu9e4iwd.pdf"
   xmlns:inkscape="http://www.inkscape.org/namespaces/inkscape"
   xmlns:sodipodi="http://sodipodi.sourceforge.net/DTD/sodipodi-0.dtd"
   xmlns="http://www.w3.org/2000/svg"
   xmlns:svg="http://www.w3.org/2000/svg">
  <defs
     id="defs1" />
  <sodipodi:namedview
     id="namedview1"
     pagecolor="#ffffff"
     bordercolor="#000000"
     borderopacity="0.25"
     inkscape:showpageshadow="2"
     inkscape:pageopacity="0.0"
     inkscape:pagecheckerboard="0"
     inkscape:deskcolor="#d1d1d1">
    <inkscape:page
       x="0"
       y="0"
       inkscape:label="1"
       id="page1"
       width="2880.6667"
       height="2304.6667"
       margin="0"
       bleed="0" />
  </sodipodi:namedview>
  <g
     id="g1"
     inkscape:groupmode="layer"
     inkscape:label="1">
    <g
       id="group-R5">
      <path
         id="path2"
         d="M 21602.5,1082.5 C 21602.5,486 21119,2.5 20522.5,2.5 H 1082.5 C 486.031,2.5 2.5,486 2.5,1082.5 v 15120 c 0,596.5 483.531,1080 1080,1080 h 19440 c 596.5,0 1080,-483.5 1080,-1080 v -15120"
         style="fill:#fccc2d;fill-opacity:1;fill-rule:nonzero;stroke:none"
         transform="matrix(0.13333333,0,0,-0.13333333,0,2304.6667)" />
      <path
         id="path3"
         d="M 21602.5,1082.5 C 21602.5,486 21119,2.5 20522.5,2.5 H 1082.5 C 486.031,2.5 2.5,486 2.5,1082.5 v 15120 c 0,596.5 483.531,1080 1080,1080 h 19440 c 596.5,0 1080,-483.5 1080,-1080 z"
         style="fill:none;stroke:#231f20;stroke-width:5;stroke-linecap:butt;stroke-linejoin:miter;stroke-miterlimit:4;stroke-dasharray:none;stroke-opacity:1"
         transform="matrix(0.13333333,0,0,-0.13333333,0,2304.6667)" />
      <path
         id="path4"
         d="m 1082.5,272.5 c -446.637,0 -810,363.402 -810,810 v 15120 c 0,446.6 363.363,810 810,810 h 19440 c 446.6,0 810,-363.4 810,-810 v -15120 c 0,-446.598 -363.4,-810 -810,-810 h -19440"
         style="fill:#231f20;fill-opacity:1;fill-rule:nonzero;stroke:none"
         transform="matrix(0.13333333,0,0,-0.13333333,0,2304.6667)" />
      <path
         id="path5"
         d="m 1082.5,722.5 c -198.5,0 -360,161.5 -360,360 v 15120 c 0,198.5 161.5,360 360,360 h 19440 c 198.5,0 360,-161.5 360,-360 v -15120 c 0,-198.5 -161.5,-360 -360,-360 h -19440"
         style="fill:#fccc2d;fill-opacity:1;fill-rule:nonzero;stroke:none"
         transform="matrix(0.13333333,0,0,-0.13333333,0,2304.6667)" />
      <path
         id="path6"
         d="m 13523.9,10082.5 v 3600 h 576 v -3600 h -576"
         style="fill:#231f20;fill-opacity:1;fill-rule:nonzero;stroke:none"
         transform="matrix(0.13333333,0,0,-0.13333333,0,2304.6667)" />
      <path
         id="path7"
         d="m 14963.9,10082.5 v 3600 h 567.7 V 10613 h 1665.2 v -530.5 h -2232.9"
         style="fill:#231f20;fill-opacity:1;fill-rule:nonzero;stroke:none"
         transform="matrix(0.13333333,0,0,-0.13333333,0,2304.6667)" />
      <path
         id="path8"
         d="m 5806.04,13177.2 v -3094.7 h -570.85 v 3094.7 H 4410.5 v 505.3 h 2232.9 v -505.3 h -837.36"
         style="fill:#231f20;fill-opacity:1;fill-rule:nonzero;stroke:none"
         transform="matrix(0.13333333,0,0,-0.13333333,0,2304.6667)" />
      <path
         id="path9"
         d="m 8762.43,13050.9 c -88.41,50.5 -138.94,63.2 -328.43,63.2 h -682.15 v -884.2 H 8434 c 176.87,0 240.02,12.6 328.43,63.1 138.99,75.8 227.41,227.4 227.41,378.9 0,151.6 -88.42,303.2 -227.41,379 z M 9015.09,10082.5 8434,11648.8 H 7751.85 V 10082.5 H 7183.4 v 3600 h 1187.43 c 277.93,0 467.41,-25.3 644.26,-113.7 315.82,-151.6 543.2,-530.5 543.2,-896.9 0,-378.9 -227.38,-757.8 -555.82,-909.4 l 631.64,-1680 h -619.02"
         style="fill:#231f20;fill-opacity:1;fill-rule:nonzero;stroke:none"
         transform="matrix(0.13333333,0,0,-0.13333333,0,2304.6667)" />
      <path
         id="path10"
         d="m 11459.4,12684.6 -368.5,-1010.5 h 724.2 z m 914.7,-2602.1 -355.7,1010.5 h -1130.8 l -355.7,-1010.5 h -609.79 l 1244.99,3600 h 571.8 l 1245,-3600 h -609.8"
         style="fill:#231f20;fill-opacity:1;fill-rule:nonzero;stroke:none"
         transform="matrix(0.13333333,0,0,-0.13333333,0,2304.6667)" />
      <path
         id="path11"
         d="M 13422.7,3602.5 12045.8,6040.4 V 3602.5 h -568.5 v 3600 h 568.5 l 1313.7,-2299 v 2299 h 568.5 v -3600 h -505.3"
         style="fill:#231f20;fill-opacity:1;fill-rule:nonzero;stroke:none"
         transform="matrix(0.13333333,0,0,-0.13333333,0,2304.6667)" />
      <path
         id="path12"
         d="m 10037.3,3602.5 v 3600 h 576 v -3600 h -576"
         style="fill:#231f20;fill-opacity:1;fill-rule:nonzero;stroke:none"
         transform="matrix(0.13333333,0,0,-0.13333333,0,2304.6667)" />
      <path
         id="path13"
         d="m 6243.04,3602.5 -581.11,1200 -581.07,-1200 h -644.27 l 896.91,1856.8 -833.74,1743.2 h 644.25 l 517.92,-1073.7 517.95,1073.7 h 644.26 L 5977.75,5459.3 6887.3,3602.5 h -644.26"
         style="fill:#231f20;fill-opacity:1;fill-rule:nonzero;stroke:none"
         transform="matrix(0.13333333,0,0,-0.13333333,0,2304.6667)" />
      <path
         id="path14"
         d="m 16033.8,3539.3 c -543.2,0 -859,202.1 -1073.8,656.9 -151.5,315.7 -240,757.9 -240,1200 0,581 164.2,1149.4 404.3,1465.2 214.7,265.3 517.9,404.2 922.1,404.2 555.9,0 884.3,-227.3 1124.3,-795.8 l -543.2,-214.7 c -151.6,315.8 -303.1,429.5 -581.1,429.5 -290.5,0 -480,-126.3 -606.3,-442.1 -88.4,-214.8 -139,-543.2 -139,-846.3 0,-379 63.2,-757.9 176.9,-985.3 113.7,-202.1 277.9,-290.5 492.6,-290.5 366.4,0 631.7,227.3 631.7,555.8 v 151.5 h -656.9 v 568.5 h 1225.3 v -720 c 0,-656.9 -480,-1136.9 -1136.9,-1136.9"
         style="fill:#231f20;fill-opacity:1;fill-rule:nonzero;stroke:none"
         transform="matrix(0.13333333,0,0,-0.13333333,0,2304.6667)" />
      <path
         id="path15"
         d="m 7337.3,5093 v 568.4 h 1800 V 5093 h -1800"
         style="fill:#231f20;fill-opacity:1;fill-rule:nonzero;stroke:none"
         transform="matrix(0.13333333,0,0,-0.13333333,0,2304.6667)" />
    </g>
  </g>
</svg>
