<?xml version="1.0" standalone="no"?>
<svg width="1297px" height="865px" viewBox="0 -73 1297 865 " xmlns="http://www.w3.org/2000/svg" xmlns:xlink="http://www.w3.org/1999/xlink">
<title>generated by pstoedit</title>
<!-- generated by pstoedit version:4.02 -->
<g xml:space='preserve'>
<clipPath id="clippath1"> 	<path d="
	M 0 -73 
	L 0 792 
	L 1297 792 
	L 1297 -73 
	Z 
	" style="clip-rule:nonzero"/>
</clipPath>
<g style="clip-path:url(#clippath1)"> 
<g fill="#95e8ff" fill-rule="nonzero" stroke-width="0" stroke-linejoin="miter" stroke-linecap="butt" stroke-miterlimit="10" >
	<path d="
	M 1296.5 683.5 
	C 1296.5 743.145 1248.15 791.5 1188.5 791.5 
	L 108.5 791.5 
	C 48.8516 791.5 0.5 743.145 0.5 683.5 
	L 0.5 35.5 
	C 0.5 -24.148 48.8516 -72.5 108.5 -72.5 
	L 1188.5 -72.5 
	C 1248.15 -72.5 1296.5 -24.148 1296.5 35.5 
	Z 
	"/>
</g>
<g stroke="#7f7f7f" fill="none" stroke-width="1" stroke-linejoin="miter" stroke-linecap="butt" stroke-miterlimit="4" >
	<path d="
	M 1296.5 683.5 
	C 1296.5 743.145 1248.15 791.5 1188.5 791.5 
	L 108.5 791.5 
	C 48.8516 791.5 0.5 743.145 0.5 683.5 
	L 0.5 35.5 
	C 0.5 -24.148 48.8516 -72.5 108.5 -72.5 
	L 1188.5 -72.5 
	C 1248.15 -72.5 1296.5 -24.148 1296.5 35.5 
	Z 
	"/>
</g>
<g fill="#7f7f7f" fill-rule="nonzero" stroke-width="0" stroke-linejoin="miter" stroke-linecap="butt" stroke-miterlimit="4" >
	<path d="
	M 108.5 764.5 
	C 63.8359 764.5 27.5 728.164 27.5 683.5 
	L 27.5 35.5 
	C 27.5 -9.164 63.8359 -45.5 108.5 -45.5 
	L 1188.5 -45.5 
	C 1233.16 -45.5 1269.5 -9.164 1269.5 35.5 
	L 1269.5 683.5 
	C 1269.5 728.164 1233.16 764.5 1188.5 764.5 
	Z 
	"/>
</g>
<g fill="#95e8ff" fill-rule="nonzero" stroke-width="0" stroke-linejoin="miter" stroke-linecap="butt" stroke-miterlimit="4" >
	<path d="
	M 108.5 737.5 
	C 78.7227 737.5 54.5 713.273 54.5 683.5 
	L 54.5 35.5 
	C 54.5 5.72302 78.7227 -18.5 108.5 -18.5 
	L 1188.5 -18.5 
	C 1218.28 -18.5 1242.5 5.72302 1242.5 35.5 
	L 1242.5 683.5 
	C 1242.5 713.273 1218.28 737.5 1188.5 737.5 
	Z 
	"/>
</g>
<g fill="#7f7f7f" fill-rule="nonzero" stroke-width="0" stroke-linejoin="miter" stroke-linecap="butt" stroke-miterlimit="4" >
	<path d="
	M 784.512 287.5 
	L 784.512 107.5 
	L 813.313 107.5 
	L 813.313 287.5 
	Z 
	"/>
</g>
<g fill="#7f7f7f" fill-rule="nonzero" stroke-width="0" stroke-linejoin="miter" stroke-linecap="butt" stroke-miterlimit="4" >
	<path d="
	M 856.512 287.5 
	L 856.512 107.5 
	L 884.895 107.5 
	L 884.895 260.977 
	L 968.156 260.977 
	L 968.156 287.5 
	Z 
	"/>
</g>
<g fill="#7f7f7f" fill-rule="nonzero" stroke-width="0" stroke-linejoin="miter" stroke-linecap="butt" stroke-miterlimit="4" >
	<path d="
	M 398.621 132.766 
	L 398.621 287.5 
	L 370.078 287.5 
	L 370.078 132.766 
	L 328.844 132.766 
	L 328.844 107.5 
	L 440.488 107.5 
	L 440.488 132.766 
	Z 
	"/>
</g>
<g fill="#7f7f7f" fill-rule="nonzero" stroke-width="0" stroke-linejoin="miter" stroke-linecap="butt" stroke-miterlimit="4" >
	<path d="
	M 546.438 139.078 
	C 542.02 136.555 539.492 135.922 530.02 135.922 
	L 495.91 135.922 
	L 495.91 180.133 
	L 530.02 180.133 
	C 538.859 180.133 542.02 179.5 546.438 176.977 
	C 553.391 173.184 557.809 165.605 557.809 158.027 
	C 557.809 150.449 553.391 142.867 546.438 139.078 
	Z 
	M 559.07 287.5 
	L 530.02 209.184 
	L 495.91 209.184 
	L 495.91 287.5 
	L 467.488 287.5 
	L 467.488 107.5 
	L 526.859 107.5 
	C 540.758 107.5 550.23 108.766 559.07 113.184 
	C 574.863 120.766 586.23 139.711 586.23 158.027 
	C 586.23 176.977 574.863 195.922 558.441 203.5 
	L 590.023 287.5 
	Z 
	"/>
</g>
<g fill="#7f7f7f" fill-rule="nonzero" stroke-width="0" stroke-linejoin="miter" stroke-linecap="butt" stroke-miterlimit="4" >
	<path d="
	M 681.285 157.395 
	L 662.863 207.922 
	L 699.07 207.922 
	Z 
	M 727.02 287.5 
	L 709.234 236.977 
	L 652.699 236.977 
	L 634.914 287.5 
	L 604.422 287.5 
	L 666.676 107.5 
	L 695.262 107.5 
	L 757.512 287.5 
	Z 
	"/>
</g>
<g fill="#7f7f7f" fill-rule="nonzero" stroke-width="0" stroke-linejoin="miter" stroke-linecap="butt" stroke-miterlimit="4" >
	<path d="
	M 781.703 611.504 
	L 712.855 489.605 
	L 712.855 611.504 
	L 684.434 611.504 
	L 684.434 431.504 
	L 712.855 431.504 
	L 778.543 546.449 
	L 778.543 431.504 
	L 806.969 431.504 
	L 806.969 611.504 
	Z 
	"/>
</g>
<g fill="#7f7f7f" fill-rule="nonzero" stroke-width="0" stroke-linejoin="miter" stroke-linecap="butt" stroke-miterlimit="4" >
	<path d="
	M 612.434 611.504 
	L 612.434 431.504 
	L 641.23 431.504 
	L 641.23 611.504 
	Z 
	"/>
</g>
<g fill="#7f7f7f" fill-rule="nonzero" stroke-width="0" stroke-linejoin="miter" stroke-linecap="butt" stroke-miterlimit="4" >
	<path d="
	M 418.219 611.504 
	L 389.164 551.504 
	L 360.109 611.504 
	L 327.895 611.504 
	L 372.742 518.656 
	L 331.055 431.5 
	L 363.27 431.5 
	L 389.164 485.187 
	L 415.063 431.5 
	L 447.273 431.5 
	L 404.953 518.656 
	L 450.434 611.504 
	Z 
	"/>
</g>
<g fill="#7f7f7f" fill-rule="nonzero" stroke-width="0" stroke-linejoin="miter" stroke-linecap="butt" stroke-miterlimit="4" >
	<path d="
	M 912.258 614.66 
	C 885.098 614.66 869.309 604.555 858.57 581.816 
	C 850.988 566.027 846.57 543.922 846.57 521.816 
	C 846.57 492.766 854.777 464.344 866.781 448.555 
	C 877.52 435.289 892.68 428.344 912.891 428.344 
	C 940.684 428.344 957.105 439.715 969.105 468.133 
	L 941.945 478.867 
	C 934.363 463.078 926.785 457.395 912.891 457.395 
	C 898.363 457.395 888.887 463.715 882.57 479.504 
	C 878.148 490.238 875.621 506.656 875.621 521.816 
	C 875.621 540.766 878.781 559.715 884.465 571.078 
	C 890.148 581.187 898.363 585.605 909.102 585.605 
	C 927.418 585.605 940.684 574.238 940.684 557.816 
	L 940.684 550.238 
	L 907.836 550.238 
	L 907.836 521.816 
	L 969.105 521.816 
	L 969.105 557.816 
	C 969.105 590.66 945.102 614.66 912.258 614.66 
	Z 
	"/>
</g>
<g fill="#7f7f7f" fill-rule="nonzero" stroke-width="0" stroke-linejoin="miter" stroke-linecap="butt" stroke-miterlimit="4" >
	<path d="
	M 477.434 536.977 
	L 477.434 508.555 
	L 567.434 508.555 
	L 567.434 536.977 
	Z 
	"/>
</g>
</g >
</g>
</svg>
