<?xml version="1.0" standalone="no"?>
<svg width="3456px" height="4320px" viewBox="0 -3528 3456 4320 " xmlns="http://www.w3.org/2000/svg" xmlns:xlink="http://www.w3.org/1999/xlink">
<title>generated by pstoedit</title>
<!-- generated by pstoedit version:4.02 -->
<g xml:space='preserve'>
<clipPath id="clippath1"> 	<path d="
	M 0 -3528.5 
	L 0 792 
	L 3456.5 792 
	L 3456.5 -3528.5 
	Z 
	" style="clip-rule:nonzero"/>
</clipPath>
<g style="clip-path:url(#clippath1)"> 
<g fill="#95e8ff" fill-rule="nonzero" stroke-width="0" stroke-linejoin="miter" stroke-linecap="butt" stroke-miterlimit="10" >
	<path d="
	M 3456.25 575.75 
	C 3456.25 695.039 3359.54 791.75 3240.25 791.75 
	L 216.25 791.75 
	C 96.957 791.75 0.25 695.039 0.25 575.75 
	L 0.25 -3312.25 
	C 0.25 -3431.54 96.957 -3528.25 216.25 -3528.25 
	L 3240.25 -3528.25 
	C 3359.54 -3528.25 3456.25 -3431.54 3456.25 -3312.25 
	Z 
	"/>
</g>
<g stroke="#7f7f7f" fill="none" stroke-width="0.5" stroke-linejoin="miter" stroke-linecap="butt" stroke-miterlimit="4" >
	<path d="
	M 3456.25 575.75 
	C 3456.25 695.039 3359.54 791.75 3240.25 791.75 
	L 216.25 791.75 
	C 96.957 791.75 0.25 695.039 0.25 575.75 
	L 0.25 -3312.25 
	C 0.25 -3431.54 96.957 -3528.25 216.25 -3528.25 
	L 3240.25 -3528.25 
	C 3359.54 -3528.25 3456.25 -3431.54 3456.25 -3312.25 
	Z 
	"/>
</g>
<g fill="#7f7f7f" fill-rule="nonzero" stroke-width="0" stroke-linejoin="miter" stroke-linecap="butt" stroke-miterlimit="4" >
	<path d="
	M 3312.25 -2088.25 
	L 144.25 -2088.25 
	L 144.25 -3312.25 
	C 144.25 -3351.95 176.551 -3384.25 216.25 -3384.25 
	L 3240.25 -3384.25 
	C 3279.95 -3384.25 3312.25 -3351.95 3312.25 -3312.25 
	Z 
	M 3312.25 575.75 
	C 3312.25 615.449 3279.95 647.75 3240.25 647.75 
	L 216.25 647.75 
	C 176.551 647.75 144.25 615.449 144.25 575.75 
	L 144.25 -1998.25 
	L 3312.25 -1998.25 
	Z 
	M 3240.25 -3474.25 
	L 216.25 -3474.25 
	C 126.922 -3474.25 54.25 -3401.58 54.25 -3312.25 
	L 54.25 575.75 
	C 54.25 665.082 126.922 737.75 216.25 737.75 
	L 3240.25 737.75 
	C 3329.58 737.75 3402.25 665.082 3402.25 575.75 
	L 3402.25 -3312.25 
	C 3402.25 -3401.58 3329.58 -3474.25 3240.25 -3474.25 
	Z 
	"/>
</g>
<g fill="#7f7f7f" fill-rule="nonzero" stroke-width="0" stroke-linejoin="miter" stroke-linecap="butt" stroke-miterlimit="4" >
	<path d="
	M 1721.07 -2448.25 
	L 1591.15 -2652.38 
	L 1463.26 -2448.25 
	L 1341.46 -2448.25 
	L 1530.25 -2751.41 
	L 1357.71 -3024.25 
	L 1481.54 -3024.25 
	L 1591.15 -2848.42 
	L 1700.77 -3024.25 
	L 1824.6 -3024.25 
	L 1654.08 -2751.41 
	L 1842.87 -2448.25 
	Z 
	"/>
</g>
<g fill="#7f7f7f" fill-rule="nonzero" stroke-width="0" stroke-linejoin="miter" stroke-linecap="butt" stroke-miterlimit="4" >
	<path d="
	M 828.25 -2448.25 
	L 828.25 -3024.25 
	L 1250.11 -3024.25 
	L 1250.11 -2921.18 
	L 933.719 -2921.18 
	L 933.719 -2814.06 
	L 1106.11 -2814.06 
	L 1106.11 -2708.96 
	L 933.719 -2708.96 
	L 933.719 -2551.32 
	L 1260.25 -2551.32 
	L 1260.25 -2448.25 
	Z 
	"/>
</g>
<g fill="#7f7f7f" fill-rule="nonzero" stroke-width="0" stroke-linejoin="miter" stroke-linecap="butt" stroke-miterlimit="4" >
	<path d="
	M 1957.5 -2448.25 
	L 1957.5 -3024.25 
	L 2061.18 -3024.25 
	L 2061.18 -2448.25 
	Z 
	"/>
</g>
<g fill="#7f7f7f" fill-rule="nonzero" stroke-width="0" stroke-linejoin="miter" stroke-linecap="butt" stroke-miterlimit="4" >
	<path d="
	M 2425.56 -2923.2 
	L 2425.56 -2448.25 
	L 2324.63 -2448.25 
	L 2324.63 -2923.2 
	L 2159.1 -2923.2 
	L 2159.1 -3024.25 
	L 2591.1 -3024.25 
	L 2591.1 -2923.2 
	Z 
	"/>
</g>
<g fill="#7f7f7f" fill-rule="nonzero" stroke-width="0" stroke-linejoin="miter" stroke-linecap="butt" stroke-miterlimit="4" >
	<path d="
	M 713.918 -432.24 
	C 713.918 -569.68 742.336 -670.73 807.281 -783.91 
	C 908.773 -953.68 1054.92 -1058.77 1266.02 -1115.36 
	C 1395.92 -1151.74 1440.57 -1192.16 1440.57 -1260.88 
	C 1440.57 -1345.76 1359.38 -1394.27 1213.24 -1394.27 
	C 1063.04 -1394.27 953.43 -1357.89 856.004 -1268.96 
	L 713.918 -1426.6 
	C 847.883 -1543.83 1014.32 -1604.46 1201.06 -1604.46 
	C 1473.05 -1604.46 1647.61 -1471.07 1647.61 -1260.88 
	C 1647.61 -1163.87 1607.01 -1074.94 1529.88 -1010.27 
	C 1493.35 -981.97 1440.57 -953.68 1359.38 -929.42 
	C 1205.12 -884.96 1160.47 -864.75 1091.46 -804.12 
	C 1038.68 -759.65 1006.21 -715.19 965.605 -638.39 
	L 1647.61 -638.39 
	L 1647.61 -432.24 
	Z 
	"/>
</g>
<g fill="#7f7f7f" fill-rule="nonzero" stroke-width="0" stroke-linejoin="miter" stroke-linecap="butt" stroke-miterlimit="4" >
	<path d="
	M 2255.44 -412.03 
	C 2097.12 -412.03 1955.04 -452.46 1808.89 -541.38 
	L 1918.5 -715.19 
	C 2019.99 -654.56 2137.72 -622.22 2255.44 -622.22 
	C 2430 -622.22 2535.55 -699.03 2535.55 -828.37 
	C 2535.55 -889 2507.14 -949.63 2462.47 -986.01 
	C 2421.88 -1018.35 2360.99 -1034.52 2275.74 -1034.52 
	C 2198.61 -1034.52 2137.72 -1022.39 2052.47 -990.06 
	L 1845.43 -1042.6 
	L 1881.97 -1584.25 
	L 2653.28 -1584.25 
	L 2649.22 -1382.14 
	L 2076.82 -1382.14 
	L 2064.65 -1216.42 
	C 2158.01 -1236.62 2214.84 -1244.71 2287.92 -1244.71 
	C 2551.79 -1244.71 2742.58 -1066.86 2742.58 -828.37 
	C 2742.58 -585.85 2539.61 -412.03 2255.44 -412.03 
	Z 
	"/>
</g>
<g fill="#7f7f7f" fill-rule="nonzero" stroke-width="0" stroke-linejoin="miter" stroke-linecap="butt" stroke-miterlimit="4" >
	<path d="
	M 2389.66 359.75 
	L 2389.66 171.789 
	L 2194.8 171.789 
	L 2194.8 359.75 
	L 2117.16 359.75 
	L 2117.16 -72.25 
	L 2194.8 -72.25 
	L 2194.8 94.488 
	L 2389.66 94.488 
	L 2389.66 -72.25 
	L 2467.29 -72.25 
	L 2467.29 359.75 
	Z 
	"/>
</g>
<g fill="#7f7f7f" fill-rule="nonzero" stroke-width="0" stroke-linejoin="miter" stroke-linecap="butt" stroke-miterlimit="4" >
	<path d="
	M 1319.42 359.75 
	L 1319.42 96 
	L 1191.59 359.75 
	L 1065.29 96 
	L 1065.29 359.75 
	L 989.207 359.75 
	L 989.207 -72.25 
	L 1065.29 -72.25 
	L 1191.59 183.922 
	L 1319.42 -72.25 
	L 1395.5 -72.25 
	L 1395.5 359.75 
	Z 
	"/>
</g>
<g fill="#7f7f7f" fill-rule="nonzero" stroke-width="0" stroke-linejoin="miter" stroke-linecap="butt" stroke-miterlimit="4" >
	<path d="
	M 1829.39 5.05103 
	L 1698.93 5.05103 
	L 1698.93 112.68 
	L 1829.39 112.68 
	C 1867.26 112.68 1893.01 91.449 1893.01 59.621 
	C 1893.01 26.281 1867.26 5.05103 1829.39 5.05103 
	Z 
	M 1903.62 173.309 
	C 1879.38 186.949 1859.69 189.98 1826.36 189.98 
	L 1698.93 189.98 
	L 1698.93 359.75 
	L 1620.14 359.75 
	L 1620.14 -72.25 
	L 1826.36 -72.25 
	C 1859.69 -72.25 1879.38 -67.699 1903.62 -54.059 
	C 1944.53 -31.32 1970.28 11.121 1970.28 59.621 
	C 1970.28 105.102 1944.53 150.57 1903.62 173.309 
	Z 
	"/>
</g>
</g >
</g>
</svg>
