<?xml version="1.0" encoding="UTF-8" standalone="no"?>
<!-- Created with Inkscape (http://www.inkscape.org/) -->

<svg
   version="1.1"
   id="svg1"
   width="2304.6667"
   height="2880.6667"
   viewBox="0 0 2304.6667 2880.6667"
   sodipodi:docname="tmpprqvsue7.pdf"
   xmlns:inkscape="http://www.inkscape.org/namespaces/inkscape"
   xmlns:sodipodi="http://sodipodi.sourceforge.net/DTD/sodipodi-0.dtd"
   xmlns="http://www.w3.org/2000/svg"
   xmlns:svg="http://www.w3.org/2000/svg">
  <defs
     id="defs1" />
  <sodipodi:namedview
     id="namedview1"
     pagecolor="#ffffff"
     bordercolor="#000000"
     borderopacity="0.25"
     inkscape:showpageshadow="2"
     inkscape:pageopacity="0.0"
     inkscape:pagecheckerboard="0"
     inkscape:deskcolor="#d1d1d1">
    <inkscape:page
       x="0"
       y="0"
       inkscape:label="1"
       id="page1"
       width="2304.6667"
       height="2880.6667"
       margin="0"
       bleed="0" />
  </sodipodi:namedview>
  <g
     id="g1"
     inkscape:groupmode="layer"
     inkscape:label="1">
    <g
       id="group-R5">
      <path
         id="path2"
         d="M 17282.5,1082.5 C 17282.5,486 16799,2.5 16202.5,2.5 H 1082.5 C 486.031,2.5 2.5,486 2.5,1082.5 v 19440 c 0,596.5 483.531,1080 1080,1080 h 15120 c 596.5,0 1080,-483.5 1080,-1080 v -19440"
         style="fill:#fccc2d;fill-opacity:1;fill-rule:nonzero;stroke:none"
         transform="matrix(0.13333333,0,0,-0.13333333,0,2880.6667)" />
      <path
         id="path3"
         d="M 17282.5,1082.5 C 17282.5,486 16799,2.5 16202.5,2.5 H 1082.5 C 486.031,2.5 2.5,486 2.5,1082.5 v 19440 c 0,596.5 483.531,1080 1080,1080 h 15120 c 596.5,0 1080,-483.5 1080,-1080 z"
         style="fill:none;stroke:#231f20;stroke-width:5;stroke-linecap:butt;stroke-linejoin:miter;stroke-miterlimit:4;stroke-dasharray:none;stroke-opacity:1"
         transform="matrix(0.13333333,0,0,-0.13333333,0,2880.6667)" />
      <path
         id="path4"
         d="M 16562.5,14402.5 H 722.5 v 6120 c 0,198.5 161.492,360 360,360 h 15120 c 198.5,0 360,-161.5 360,-360 z m 0,-13320 c 0,-198.5 -161.5,-360 -360,-360 h -15120 c -198.508,0 -360,161.5 -360,360 v 12870 h 15840 z m -360,20250 h -15120 c -446.637,0 -810,-363.4 -810,-810 v -19440 c 0,-446.598 363.363,-810 810,-810 h 15120 c 446.6,0 810,363.402 810,810 v 19440 c 0,446.6 -363.4,810 -810,810"
         style="fill:#231f20;fill-opacity:1;fill-rule:nonzero;stroke:none"
         transform="matrix(0.13333333,0,0,-0.13333333,0,2880.6667)" />
      <path
         id="path5"
         d="m 4412.5,16202.5 v 2880 h 2109.31 v -515.4 H 4939.83 v -535.6 h 861.97 v -525.4 h -861.97 v -788.2 h 1632.68 v -515.4 H 4412.5"
         style="fill:#231f20;fill-opacity:1;fill-rule:nonzero;stroke:none"
         transform="matrix(0.13333333,0,0,-0.13333333,0,2880.6667)" />
      <path
         id="path6"
         d="m 10058.8,16202.5 v 2880 h 518.3 v -2880 h -518.3"
         style="fill:#231f20;fill-opacity:1;fill-rule:nonzero;stroke:none"
         transform="matrix(0.13333333,0,0,-0.13333333,0,2880.6667)" />
      <path
         id="path7"
         d="m 12399.1,18577.2 v -2374.7 h -504.7 v 2374.7 h -827.7 v 505.3 h 2160 v -505.3 h -827.6"
         style="fill:#231f20;fill-opacity:1;fill-rule:nonzero;stroke:none"
         transform="matrix(0.13333333,0,0,-0.13333333,0,2880.6667)" />
      <path
         id="path8"
         d="m 8873.74,16202.5 -649.6,1020.6 -639.46,-1020.6 h -608.99 l 943.95,1515.8 -862.75,1364.2 h 619.15 l 548.1,-879.2 548.1,879.2 h 619.15 l -852.61,-1364.2 943.95,-1515.8 h -608.99"
         style="fill:#231f20;fill-opacity:1;fill-rule:nonzero;stroke:none"
         transform="matrix(0.13333333,0,0,-0.13333333,0,2880.6667)" />
      <path
         id="path9"
         d="m 3570.83,6122.5 c 0,687.1 142.09,1192.4 466.84,1758.3 507.46,848.8 1238.18,1374.3 2293.67,1657.3 649.51,181.9 872.77,384 872.77,727.5 0,424.5 -405.94,667 -1136.66,667 -751.01,0 -1299.06,-181.9 -1786.19,-626.5 l -710.43,788.2 c 669.82,586.1 1502.03,889.3 2435.72,889.3 1359.94,0 2232.76,-667 2232.76,-1718 0,-485 -202.99,-929.6 -588.64,-1253 -182.69,-141.5 -446.56,-283 -852.5,-404.2 C 6026.87,8386.1 5803.58,8285 5458.53,7981.9 5194.66,7759.5 5032.28,7537.2 4829.29,7153.2 H 8239.31 V 6122.5 H 3570.83"
         style="fill:#231f20;fill-opacity:1;fill-rule:nonzero;stroke:none"
         transform="matrix(0.13333333,0,0,-0.13333333,0,2880.6667)" />
      <path
         id="path10"
         d="m 11278.5,6021.4 c -791.7,0 -1502.06,202.1 -2232.81,646.8 l 548.05,869 c 507.46,-303.1 1096.06,-464.8 1684.76,-464.8 872.7,0 1400.5,384 1400.5,1030.7 0,303.2 -142.1,606.3 -365.4,788.2 -202.9,161.7 -507.4,242.5 -933.6,242.5 -385.7,0 -690.2,-60.6 -1116.4,-222.3 l -1035.21,262.8 182.69,2708.2 h 3856.52 l -20.3,-1010.5 h -2862 l -60.8,-828.7 c 466.8,101.1 751,141.5 1116.3,141.5 1319.4,0 2273.4,-889.3 2273.4,-2081.7 0,-1212.6 -1014.9,-2081.7 -2435.7,-2081.7"
         style="fill:#231f20;fill-opacity:1;fill-rule:nonzero;stroke:none"
         transform="matrix(0.13333333,0,0,-0.13333333,0,2880.6667)" />
      <path
         id="path11"
         d="m 11949.5,2162.5 v 939.8 h -974.3 V 2162.5 H 10587 v 2160 h 388.2 v -833.7 h 974.3 v 833.7 h 388.2 v -2160 h -388.2"
         style="fill:#231f20;fill-opacity:1;fill-rule:nonzero;stroke:none"
         transform="matrix(0.13333333,0,0,-0.13333333,0,2880.6667)" />
      <path
         id="path12"
         d="M 6598.33,2162.5 V 3481.2 L 5959.21,2162.5 5327.71,3481.2 V 2162.5 h -380.43 v 2160 h 380.43 l 631.5,-1280.9 639.12,1280.9 h 380.42 v -2160 h -380.42"
         style="fill:#231f20;fill-opacity:1;fill-rule:nonzero;stroke:none"
         transform="matrix(0.13333333,0,0,-0.13333333,0,2880.6667)" />
      <path
         id="path13"
         d="m 9148.18,3936 h -652.31 v -538.1 h 652.31 c 189.38,0 318.14,106.1 318.14,265.2 0,166.8 -128.76,272.9 -318.14,272.9 z m 371.17,-841.3 c -121.2,-68.2 -219.67,-83.4 -386.32,-83.4 h -637.16 v -848.8 h -393.91 v 2160 h 1031.07 c 166.65,0 265.12,-22.8 386.32,-91 204.53,-113.6 333.3,-325.9 333.3,-568.4 0,-227.4 -128.77,-454.7 -333.3,-568.4"
         style="fill:#231f20;fill-opacity:1;fill-rule:nonzero;stroke:none"
         transform="matrix(0.13333333,0,0,-0.13333333,0,2880.6667)" />
    </g>
  </g>
</svg>
