<?xml version="1.0" standalone="no"?>
<svg width="1728px" height="864px" viewBox="0 -72 1728 864 " xmlns="http://www.w3.org/2000/svg" xmlns:xlink="http://www.w3.org/1999/xlink">
<title>generated by pstoedit</title>
<!-- generated by pstoedit version:4.02 -->
<g xml:space='preserve'>
<clipPath id="clippath1"> 	<path d="
	M 0 -72.5 
	L 0 792 
	L 1728.5 792 
	L 1728.5 -72.5 
	Z 
	" style="clip-rule:nonzero"/>
</clipPath>
<g style="clip-path:url(#clippath1)"> 
<g fill="#95e8ff" fill-rule="nonzero" stroke-width="0" stroke-linejoin="miter" stroke-linecap="butt" stroke-miterlimit="10" >
	<path d="
	M 1728.25 683.75 
	C 1728.25 743.395 1679.9 791.75 1620.25 791.75 
	L 108.25 791.75 
	C 48.6016 791.75 0.25 743.395 0.25 683.75 
	L 0.25 35.75 
	C 0.25 -23.898 48.6016 -72.25 108.25 -72.25 
	L 1620.25 -72.25 
	C 1679.9 -72.25 1728.25 -23.898 1728.25 35.75 
	Z 
	"/>
</g>
<g stroke="#7f7f7f" fill="none" stroke-width="0.5" stroke-linejoin="miter" stroke-linecap="butt" stroke-miterlimit="4" >
	<path d="
	M 1728.25 683.75 
	C 1728.25 743.395 1679.9 791.75 1620.25 791.75 
	L 108.25 791.75 
	C 48.6016 791.75 0.25 743.395 0.25 683.75 
	L 0.25 35.75 
	C 0.25 -23.898 48.6016 -72.25 108.25 -72.25 
	L 1620.25 -72.25 
	C 1679.9 -72.25 1728.25 -23.898 1728.25 35.75 
	Z 
	"/>
</g>
<g fill="#7f7f7f" fill-rule="nonzero" stroke-width="0" stroke-linejoin="miter" stroke-linecap="butt" stroke-miterlimit="4" >
	<path d="
	M 108.25 764.75 
	C 63.5859 764.75 27.25 728.414 27.25 683.75 
	L 27.25 35.75 
	C 27.25 -8.914 63.5859 -45.25 108.25 -45.25 
	L 1620.25 -45.25 
	C 1664.91 -45.25 1701.25 -8.914 1701.25 35.75 
	L 1701.25 683.75 
	C 1701.25 728.414 1664.91 764.75 1620.25 764.75 
	Z 
	"/>
</g>
<g fill="#95e8ff" fill-rule="nonzero" stroke-width="0" stroke-linejoin="miter" stroke-linecap="butt" stroke-miterlimit="4" >
	<path d="
	M 108.25 719.75 
	C 88.3984 719.75 72.25 703.602 72.25 683.75 
	L 72.25 35.75 
	C 72.25 15.898 88.3984 -0.25 108.25 -0.25 
	L 1620.25 -0.25 
	C 1640.1 -0.25 1656.25 15.898 1656.25 35.75 
	L 1656.25 683.75 
	C 1656.25 703.602 1640.1 719.75 1620.25 719.75 
	Z 
	"/>
</g>
<g fill="#7f7f7f" fill-rule="nonzero" stroke-width="0" stroke-linejoin="miter" stroke-linecap="butt" stroke-miterlimit="4" >
	<path d="
	M 711.207 539.75 
	L 711.207 179.75 
	L 974.867 179.75 
	L 974.867 244.172 
	L 777.121 244.172 
	L 777.121 311.117 
	L 884.867 311.117 
	L 884.867 376.801 
	L 777.121 376.801 
	L 777.121 475.328 
	L 981.207 475.328 
	L 981.207 539.75 
	Z 
	"/>
</g>
<g fill="#7f7f7f" fill-rule="nonzero" stroke-width="0" stroke-linejoin="miter" stroke-linecap="butt" stroke-miterlimit="4" >
	<path d="
	M 561.789 539.75 
	L 389.254 292.172 
	L 389.254 539.75 
	L 325.824 539.75 
	L 325.824 179.746 
	L 389.254 179.746 
	L 555.441 417.223 
	L 555.441 179.746 
	L 617.605 179.746 
	L 617.605 539.75 
	Z 
	"/>
</g>
<g fill="#7f7f7f" fill-rule="nonzero" stroke-width="0" stroke-linejoin="miter" stroke-linecap="butt" stroke-miterlimit="4" >
	<path d="
	M 1338.19 539.75 
	L 1269.91 539.75 
	L 1211.74 298.488 
	L 1154.84 539.75 
	L 1086.56 539.75 
	L 1020.8 179.75 
	L 1087.82 179.75 
	L 1127.02 412.172 
	L 1180.13 179.75 
	L 1244.62 179.75 
	L 1300.25 412.172 
	L 1336.92 179.75 
	L 1402.67 179.75 
	Z 
	"/>
</g>
</g >
</g>
</svg>
