<?xml version="1.0" encoding="UTF-8" standalone="no"?>
<!-- Created with Inkscape (http://www.inkscape.org/) -->

<svg
   version="1.1"
   id="svg1"
   width="2304.6667"
   height="1152.6667"
   viewBox="0 0 2304.6667 1152.6667"
   sodipodi:docname="tmpeu8bp4ck.pdf"
   xmlns:inkscape="http://www.inkscape.org/namespaces/inkscape"
   xmlns:sodipodi="http://sodipodi.sourceforge.net/DTD/sodipodi-0.dtd"
   xmlns="http://www.w3.org/2000/svg"
   xmlns:svg="http://www.w3.org/2000/svg">
  <defs
     id="defs1" />
  <sodipodi:namedview
     id="namedview1"
     pagecolor="#ffffff"
     bordercolor="#000000"
     borderopacity="0.25"
     inkscape:showpageshadow="2"
     inkscape:pageopacity="0.0"
     inkscape:pagecheckerboard="0"
     inkscape:deskcolor="#d1d1d1">
    <inkscape:page
       x="0"
       y="0"
       inkscape:label="1"
       id="page1"
       width="2304.6667"
       height="1152.6667"
       margin="0"
       bleed="0" />
  </sodipodi:namedview>
  <g
     id="g1"
     inkscape:groupmode="layer"
     inkscape:label="1">
    <g
       id="group-R5">
      <path
         id="path2"
         d="m 17282.5,1082.5 c 0,-596.461 -483.5,-1080 -1080,-1080 H 1082.5 C 486.031,2.5 2.5,486.039 2.5,1082.5 v 6480 c 0,596.47 483.531,1080 1080,1080 h 15120 c 596.5,0 1080,-483.53 1080,-1080 v -6480"
         style="fill:#fccc2d;fill-opacity:1;fill-rule:nonzero;stroke:none"
         transform="matrix(0.13333333,0,0,-0.13333333,0,1152.6667)" />
      <path
         id="path3"
         d="m 17282.5,1082.5 c 0,-596.461 -483.5,-1080 -1080,-1080 H 1082.5 C 486.031,2.5 2.5,486.039 2.5,1082.5 v 6480 c 0,596.47 483.531,1080 1080,1080 h 15120 c 596.5,0 1080,-483.53 1080,-1080 z"
         style="fill:none;stroke:#231f20;stroke-width:5;stroke-linecap:butt;stroke-linejoin:miter;stroke-miterlimit:4;stroke-dasharray:none;stroke-opacity:1"
         transform="matrix(0.13333333,0,0,-0.13333333,0,1152.6667)" />
      <path
         id="path4"
         d="m 1082.5,272.5 c -446.637,0 -810,363.371 -810,810 v 6480 c 0,446.64 363.363,810 810,810 h 15120 c 446.6,0 810,-363.36 810,-810 v -6480 c 0,-446.629 -363.4,-810 -810,-810 h -15120"
         style="fill:#231f20;fill-opacity:1;fill-rule:nonzero;stroke:none"
         transform="matrix(0.13333333,0,0,-0.13333333,0,1152.6667)" />
      <path
         id="path5"
         d="m 1082.5,722.5 c -198.508,0 -360,161.488 -360,360 v 6480 c 0,198.51 161.492,360 360,360 h 15120 c 198.5,0 360,-161.49 360,-360 v -6480 c 0,-198.512 -161.5,-360 -360,-360 h -15120"
         style="fill:#fccc2d;fill-opacity:1;fill-rule:nonzero;stroke:none"
         transform="matrix(0.13333333,0,0,-0.13333333,0,1152.6667)" />
      <path
         id="path6"
         d="M 3844.84,2882.5 2743.28,4832.81 V 2882.5 h -454.76 v 2880 h 454.76 L 3794.3,3923.34 V 5762.5 h 454.76 v -2880 h -404.22"
         style="fill:#231f20;fill-opacity:1;fill-rule:nonzero;stroke:none"
         transform="matrix(0.13333333,0,0,-0.13333333,0,1152.6667)" />
      <path
         id="path7"
         d="m 6300.88,5122.32 c -91.17,151.59 -202.6,212.21 -374.81,222.32 -222.87,10.11 -364.68,-101.05 -465.97,-353.68 -70.92,-171.8 -111.43,-434.53 -111.43,-677.05 0,-303.17 60.76,-616.43 172.19,-798.32 91.19,-151.59 212.73,-222.33 395.08,-222.33 212.73,0 344.41,111.17 445.72,363.79 60.78,151.58 111.43,434.53 111.43,656.86 0,323.36 -60.79,616.4 -172.21,808.41 z M 6614.9,3151.8 c -162.09,-222.33 -395.08,-323.38 -698.96,-323.38 -405.2,0 -658.46,161.7 -830.67,515.37 -121.54,242.54 -202.57,626.52 -202.57,970.12 0,474.94 121.54,899.35 314.02,1172.2 172.21,222.33 405.19,323.37 739.47,323.37 364.69,0 617.93,-161.69 800.27,-515.37 121.55,-252.63 192.47,-616.42 192.47,-980.2 0,-454.75 -111.43,-909.48 -314.03,-1162.11"
         style="fill:#231f20;fill-opacity:1;fill-rule:nonzero;stroke:none"
         transform="matrix(0.13333333,0,0,-0.13333333,0,1152.6667)" />
      <path
         id="path8"
         d="m 9521.6,2882.5 v 2880 h 460.8 v -2880 h -460.8"
         style="fill:#231f20;fill-opacity:1;fill-rule:nonzero;stroke:none"
         transform="matrix(0.13333333,0,0,-0.13333333,0,1152.6667)" />
      <path
         id="path9"
         d="M 8419.74,5358.29 V 2882.5 H 7963.05 V 5358.29 H 7303.3 v 404.22 h 1786.31 v -404.22 h -669.87"
         style="fill:#231f20;fill-opacity:1;fill-rule:nonzero;stroke:none"
         transform="matrix(0.13333333,0,0,-0.13333333,0,1152.6667)" />
      <path
         id="path10"
         d="m 13210.2,2882.5 v 2880 h 1695.4 v -454.74 h -1241.3 v -707.37 h 837.7 v -464.84 h -837.7 v -788.21 h 1332.2 V 2882.5 h -1786.3"
         style="fill:#231f20;fill-opacity:1;fill-rule:nonzero;stroke:none"
         transform="matrix(0.13333333,0,0,-0.13333333,0,1152.6667)" />
      <path
         id="path11"
         d="m 11707.4,2831.95 c -424.4,0 -697.3,161.7 -879.2,515.39 -131.3,252.62 -212.2,616.43 -212.2,980.21 0,454.74 121.3,909.48 323.4,1162.11 171.8,212.21 414.4,323.36 737.7,323.36 434.6,0 707.5,-181.9 899.5,-586.11 l -424.5,-181.89 c -161.7,242.53 -252.6,303.16 -475,303.16 -232.4,0 -384,-101.05 -485,-353.69 -70.8,-171.78 -111.2,-424.42 -111.2,-666.94 0,-313.27 70.7,-626.53 181.9,-808.43 101,-151.56 232.4,-222.32 434.5,-222.32 192.1,0 333.5,101.07 444.7,333.47 l 434.6,-161.68 c -171.8,-424.41 -454.8,-636.64 -869.2,-636.64"
         style="fill:#231f20;fill-opacity:1;fill-rule:nonzero;stroke:none"
         transform="matrix(0.13333333,0,0,-0.13333333,0,1152.6667)" />
    </g>
  </g>
</svg>
