<?xml version="1.0" standalone="no"?>
<svg width="9504px" height="1080px" viewBox="0 -288 9504 1080 " xmlns="http://www.w3.org/2000/svg" xmlns:xlink="http://www.w3.org/1999/xlink">
<title>generated by pstoedit</title>
<!-- generated by pstoedit version:4.02 -->
<g xml:space='preserve'>
<clipPath id="clippath1"> 	<path d="
	M 0 -288.5 
	L 0 792 
	L 9504.5 792 
	L 9504.5 -288.5 
	Z 
	" style="clip-rule:nonzero"/>
</clipPath>
<g style="clip-path:url(#clippath1)"> 
<g fill="#95e8ff" fill-rule="nonzero" stroke-width="0" stroke-linejoin="miter" stroke-linecap="butt" stroke-miterlimit="10" >
	<path d="
	M 9504.25 683.75 
	C 9504.25 743.398 9455.9 791.75 9396.25 791.75 
	L 108.25 791.75 
	C 48.6016 791.75 0.25 743.398 0.25 683.75 
	L 0.25 -180.25 
	C 0.25 -239.9 48.6016 -288.25 108.25 -288.25 
	L 9396.25 -288.25 
	C 9455.9 -288.25 9504.25 -239.9 9504.25 -180.25 
	Z 
	"/>
</g>
<g stroke="#7f7f7f" fill="none" stroke-width="0.5" stroke-linejoin="miter" stroke-linecap="butt" stroke-miterlimit="4" >
	<path d="
	M 9504.25 683.75 
	C 9504.25 743.398 9455.9 791.75 9396.25 791.75 
	L 108.25 791.75 
	C 48.6016 791.75 0.25 743.398 0.25 683.75 
	L 0.25 -180.25 
	C 0.25 -239.9 48.6016 -288.25 108.25 -288.25 
	L 9396.25 -288.25 
	C 9455.9 -288.25 9504.25 -239.9 9504.25 -180.25 
	Z 
	"/>
</g>
<g fill="#7f7f7f" fill-rule="nonzero" stroke-width="0" stroke-linejoin="miter" stroke-linecap="butt" stroke-miterlimit="4" >
	<path d="
	M 9432.25 683.75 
	C 9432.25 703.602 9416.1 719.75 9396.25 719.75 
	L 108.25 719.75 
	C 88.4023 719.75 72.25 703.602 72.25 683.75 
	L 72.25 -180.25 
	C 72.25 -200.102 88.4023 -216.25 108.25 -216.25 
	L 9396.25 -216.25 
	C 9416.1 -216.25 9432.25 -200.102 9432.25 -180.25 
	Z 
	M 9396.25 -261.25 
	L 108.25 -261.25 
	C 63.5859 -261.25 27.25 -224.91 27.25 -180.25 
	L 27.25 683.75 
	C 27.25 728.41 63.5859 764.75 108.25 764.75 
	L 9396.25 764.75 
	C 9440.92 764.75 9477.25 728.41 9477.25 683.75 
	L 9477.25 -180.25 
	C 9477.25 -224.91 9440.92 -261.25 9396.25 -261.25 
	Z 
	"/>
</g>
<g fill="#7f7f7f" fill-rule="nonzero" stroke-width="0" stroke-linejoin="miter" stroke-linecap="butt" stroke-miterlimit="4" >
	<path d="
	M 1133.93 143.371 
	L 1073.32 288.887 
	L 1194.54 288.887 
	Z 
	M 1270.31 467.75 
	L 1227.88 366.191 
	L 1039.98 366.191 
	L 997.551 467.75 
	L 912.691 467.75 
	L 1094.53 35.75 
	L 1173.33 35.75 
	L 1353.65 467.75 
	Z 
	"/>
</g>
<g fill="#7f7f7f" fill-rule="nonzero" stroke-width="0" stroke-linejoin="miter" stroke-linecap="butt" stroke-miterlimit="4" >
	<path d="
	M 4574.51 276.762 
	L 4451.2 276.762 
	L 4451.2 390.445 
	L 4574.51 390.445 
	C 4615.61 390.445 4644.53 367.711 4644.53 335.879 
	C 4644.53 302.531 4614.09 276.762 4574.51 276.762 
	Z 
	M 4574.51 113.055 
	L 4451.2 113.055 
	L 4451.2 199.457 
	L 4574.51 199.457 
	C 4608 199.457 4630.83 181.266 4630.83 155.496 
	C 4630.83 129.73 4609.52 113.055 4574.51 113.055 
	Z 
	M 4656.71 449.562 
	C 4635.4 461.687 4612.56 467.75 4589.73 467.75 
	L 4568.42 467.75 
	L 4372.04 467.75 
	L 4372.04 35.75 
	L 4574.51 35.75 
	C 4612.56 35.75 4626.26 38.781 4649.1 50.906 
	C 4685.63 72.129 4708.47 108.508 4708.47 149.434 
	C 4708.47 184.297 4694.77 214.613 4665.84 238.867 
	C 4703.9 266.148 4722.17 299.496 4722.17 340.426 
	C 4722.17 384.383 4696.29 428.34 4656.71 449.562 
	Z 
	"/>
</g>
<g fill="#7f7f7f" fill-rule="nonzero" stroke-width="0" stroke-linejoin="miter" stroke-linecap="butt" stroke-miterlimit="4" >
	<path d="
	M 2573.84 467.75 
	L 2573.84 35.75 
	L 2890.23 35.75 
	L 2890.23 113.055 
	L 2652.94 113.055 
	L 2652.94 193.395 
	L 2782.23 193.395 
	L 2782.23 272.215 
	L 2652.94 272.215 
	L 2652.94 390.445 
	L 2897.84 390.445 
	L 2897.84 467.75 
	Z 
	"/>
</g>
<g fill="#7f7f7f" fill-rule="nonzero" stroke-width="0" stroke-linejoin="miter" stroke-linecap="butt" stroke-miterlimit="4" >
	<path d="
	M 4825.85 467.75 
	L 4825.85 35.75 
	L 5142.25 35.75 
	L 5142.25 113.055 
	L 4904.95 113.055 
	L 4904.95 193.395 
	L 5034.25 193.395 
	L 5034.25 272.215 
	L 4904.95 272.215 
	L 4904.95 390.445 
	L 5149.85 390.445 
	L 5149.85 467.75 
	Z 
	"/>
</g>
<g fill="#7f7f7f" fill-rule="nonzero" stroke-width="0" stroke-linejoin="miter" stroke-linecap="butt" stroke-miterlimit="4" >
	<path d="
	M 6586.25 467.75 
	L 6586.25 35.75 
	L 6902.65 35.75 
	L 6902.65 113.055 
	L 6665.35 113.055 
	L 6665.35 193.395 
	L 6794.65 193.395 
	L 6794.65 272.215 
	L 6665.35 272.215 
	L 6665.35 390.445 
	L 6910.25 390.445 
	L 6910.25 467.75 
	Z 
	"/>
</g>
<g fill="#7f7f7f" fill-rule="nonzero" stroke-width="0" stroke-linejoin="miter" stroke-linecap="butt" stroke-miterlimit="4" >
	<path d="
	M 5332.63 113.055 
	L 5332.63 200.973 
	L 5468.01 200.973 
	L 5468.01 279.793 
	L 5332.63 279.793 
	L 5332.63 467.75 
	L 5253.53 467.75 
	L 5253.53 35.75 
	L 5577.53 35.75 
	L 5577.53 113.055 
	Z 
	"/>
</g>
<g fill="#7f7f7f" fill-rule="nonzero" stroke-width="0" stroke-linejoin="miter" stroke-linecap="butt" stroke-miterlimit="4" >
	<path d="
	M 3450.15 467.75 
	L 3450.15 35.75 
	L 3527.91 35.75 
	L 3527.91 467.75 
	Z 
	"/>
</g>
<g fill="#7f7f7f" fill-rule="nonzero" stroke-width="0" stroke-linejoin="miter" stroke-linecap="butt" stroke-miterlimit="4" >
	<path d="
	M 547.219 467.75 
	L 547.219 35.75 
	L 624.793 35.75 
	L 624.793 401.055 
	L 871.219 401.055 
	L 871.219 467.75 
	Z 
	"/>
</g>
<g fill="#7f7f7f" fill-rule="nonzero" stroke-width="0" stroke-linejoin="miter" stroke-linecap="butt" stroke-miterlimit="4" >
	<path d="
	M 8221.16 467.75 
	L 8221.16 35.75 
	L 8298.73 35.75 
	L 8298.73 401.055 
	L 8545.16 401.055 
	L 8545.16 467.75 
	Z 
	"/>
</g>
<g fill="#7f7f7f" fill-rule="nonzero" stroke-width="0" stroke-linejoin="miter" stroke-linecap="butt" stroke-miterlimit="4" >
	<path d="
	M 8633.29 467.75 
	L 8633.29 35.75 
	L 8710.86 35.75 
	L 8710.86 401.055 
	L 8957.29 401.055 
	L 8957.29 467.75 
	Z 
	"/>
</g>
<g fill="#7f7f7f" fill-rule="nonzero" stroke-width="0" stroke-linejoin="miter" stroke-linecap="butt" stroke-miterlimit="4" >
	<path d="
	M 5833.93 105.477 
	C 5768.61 105.477 5729.11 160.047 5729.11 250.992 
	C 5729.11 343.457 5768.61 398.023 5833.93 398.023 
	C 5915.97 398.023 5935.72 317.687 5935.72 250.992 
	C 5935.72 160.047 5899.26 105.477 5833.93 105.477 
	Z 
	M 5833.93 475.328 
	C 5706.32 475.328 5650.11 360.129 5650.11 250.992 
	C 5650.11 113.055 5719.99 28.172 5833.93 28.172 
	C 5940.28 28.172 6013.2 117.602 6013.2 249.477 
	C 6013.2 384.383 5943.32 475.328 5833.93 475.328 
	Z 
	"/>
</g>
<g fill="#7f7f7f" fill-rule="nonzero" stroke-width="0" stroke-linejoin="miter" stroke-linecap="butt" stroke-miterlimit="4" >
	<path d="
	M 7922.66 105.477 
	C 7857.33 105.477 7817.83 160.047 7817.83 250.992 
	C 7817.83 343.457 7857.33 398.023 7922.66 398.023 
	C 8004.7 398.023 8024.45 317.687 8024.45 250.992 
	C 8024.45 160.047 7987.98 105.477 7922.66 105.477 
	Z 
	M 7922.66 475.328 
	C 7795.04 475.328 7738.83 360.129 7738.83 250.992 
	C 7738.83 113.055 7808.71 28.172 7922.66 28.172 
	C 8029 28.172 8101.93 117.602 8101.93 249.477 
	C 8101.93 384.383 8032.04 475.328 7922.66 475.328 
	Z 
	"/>
</g>
<g fill="#7f7f7f" fill-rule="nonzero" stroke-width="0" stroke-linejoin="miter" stroke-linecap="butt" stroke-miterlimit="4" >
	<path d="
	M 6334.1 113.055 
	L 6209.7 113.055 
	L 6209.7 220.68 
	L 6334.1 220.68 
	C 6371.98 220.68 6396.22 199.457 6396.22 167.625 
	C 6396.22 134.277 6371.98 113.055 6334.1 113.055 
	Z 
	M 6396.22 467.75 
	L 6326.53 297.984 
	L 6209.7 297.984 
	L 6209.7 467.75 
	L 6132.44 467.75 
	L 6132.44 35.75 
	L 6332.59 35.75 
	C 6364.4 35.75 6384.1 40.297 6406.82 53.941 
	C 6447.73 76.676 6473.48 119.117 6473.48 167.625 
	C 6473.48 216.129 6447.73 258.57 6403.79 282.824 
	L 6482.57 467.75 
	Z 
	"/>
</g>
<g fill="#7f7f7f" fill-rule="nonzero" stroke-width="0" stroke-linejoin="miter" stroke-linecap="butt" stroke-miterlimit="4" >
	<path d="
	M 1571.74 273.895 
	C 1552.51 268.586 1504.16 256.98 1487.85 247.414 
	C 1455.33 228.352 1430.47 197.172 1430.47 150.949 
	C 1430.47 79.707 1491.36 31.203 1579.66 31.203 
	C 1643.59 31.203 1696.88 52.426 1741.02 97.898 
	L 1683.17 149.434 
	C 1655.77 120.637 1620.76 106.992 1579.66 106.992 
	C 1535.51 106.992 1509.63 123.668 1509.63 150.949 
	C 1509.63 175.203 1524.85 185.812 1578.13 197.941 
	C 1635.98 210.066 1674.04 222.191 1698.4 234.32 
	C 1736.46 254.023 1760.81 294.949 1760.81 341.941 
	C 1760.81 385.898 1741.02 419.246 1699.92 443.496 
	C 1669.47 461.687 1629.89 472.297 1590.31 472.297 
	C 1515.72 472.297 1459.39 445.016 1410.68 388.93 
	L 1473.09 340.426 
	C 1505.06 378.32 1540.08 394.992 1588.79 394.992 
	C 1643.59 394.992 1683.17 370.738 1683.17 338.91 
	C 1683.17 298.359 1639.07 292.477 1571.74 273.895 
	Z 
	"/>
</g>
<g fill="#7f7f7f" fill-rule="nonzero" stroke-width="0" stroke-linejoin="miter" stroke-linecap="butt" stroke-miterlimit="4" >
	<path d="
	M 2017.69 111.539 
	L 2017.69 467.754 
	L 1941.99 467.754 
	L 1941.99 111.539 
	L 1817.84 111.539 
	L 1817.84 35.75 
	L 2141.84 35.75 
	L 2141.84 111.539 
	Z 
	"/>
</g>
<g fill="#7f7f7f" fill-rule="nonzero" stroke-width="0" stroke-linejoin="miter" stroke-linecap="butt" stroke-miterlimit="4" >
	<path d="
	M 7542.1 111.539 
	L 7542.1 467.754 
	L 7466.4 467.754 
	L 7466.4 111.539 
	L 7342.25 111.539 
	L 7342.25 35.75 
	L 7666.25 35.75 
	L 7666.25 111.539 
	Z 
	"/>
</g>
<g fill="#7f7f7f" fill-rule="nonzero" stroke-width="0" stroke-linejoin="miter" stroke-linecap="butt" stroke-miterlimit="4" >
	<path d="
	M 3815.88 111.539 
	L 3815.88 467.754 
	L 3740.18 467.754 
	L 3740.18 111.539 
	L 3616.04 111.539 
	L 3616.04 35.75 
	L 3940.04 35.75 
	L 3940.04 111.539 
	Z 
	"/>
</g>
<g fill="#7f7f7f" fill-rule="nonzero" stroke-width="0" stroke-linejoin="miter" stroke-linecap="butt" stroke-miterlimit="4" >
	<path d="
	M 3255.12 467.754 
	L 3157.68 314.656 
	L 3061.76 467.754 
	L 2970.41 467.754 
	L 3112 240.383 
	L 2982.59 35.75 
	L 3075.46 35.75 
	L 3157.68 167.625 
	L 3239.89 35.75 
	L 3332.76 35.75 
	L 3204.87 240.383 
	L 3346.47 467.754 
	Z 
	"/>
</g>
<g fill="#7f88e1" fill-rule="nonzero" stroke-width="0" stroke-linejoin="miter" stroke-linecap="butt" stroke-miterlimit="4" >
	<path d="
	M 3933.18 -124.762 
	L 3918.83 -124.762 
	L 3918.83 -129.941 
	L 3953.76 -129.941 
	L 3953.76 -124.762 
	L 3939.34 -124.762 
	L 3939.34 -82.758 
	L 3933.18 -82.758 
	Z 
	"/>
</g>
<g fill="#7f88e1" fill-rule="nonzero" stroke-width="0" stroke-linejoin="miter" stroke-linecap="butt" stroke-miterlimit="4" >
	<path d="
	M 3965.1 -129.941 
	L 3965.1 -110.199 
	L 3987.92 -110.199 
	L 3987.92 -129.941 
	L 3994.08 -129.941 
	L 3994.08 -82.758 
	L 3987.92 -82.758 
	L 3987.92 -104.879 
	L 3965.1 -104.879 
	L 3965.1 -82.758 
	L 3958.94 -82.758 
	L 3958.94 -129.941 
	Z 
	"/>
</g>
<g fill="#7f88e1" fill-rule="nonzero" stroke-width="0" stroke-linejoin="miter" stroke-linecap="butt" stroke-miterlimit="4" >
	<path d="
	M 4010.74 -129.941 
	L 4010.74 -82.758 
	L 4004.58 -82.758 
	L 4004.58 -129.941 
	Z 
	"/>
</g>
<g fill="#7f88e1" fill-rule="nonzero" stroke-width="0" stroke-linejoin="miter" stroke-linecap="butt" stroke-miterlimit="4" >
	<path d="
	M 4020.61 -90.18 
	C 4023.34 -88.43 4027.26 -87.098 4031.46 -87.098 
	C 4037.69 -87.098 4041.33 -90.316 4041.33 -95.148 
	C 4041.33 -99.488 4038.81 -102.078 4032.44 -104.461 
	C 4024.74 -107.262 4019.98 -111.32 4019.98 -117.902 
	C 4019.98 -125.254 4026.07 -130.715 4035.24 -130.715 
	C 4040 -130.715 4043.57 -129.594 4045.6 -128.402 
	L 4043.92 -123.434 
	C 4042.45 -124.344 4039.3 -125.672 4035.03 -125.672 
	C 4028.59 -125.672 4026.14 -121.82 4026.14 -118.602 
	C 4026.14 -114.191 4029.01 -112.02 4035.52 -109.5 
	C 4043.5 -106.352 4047.49 -102.57 4047.49 -95.641 
	C 4047.49 -88.359 4042.17 -81.988 4031.04 -81.988 
	C 4026.49 -81.988 4021.52 -83.387 4019 -85.066 
	Z 
	"/>
</g>
<g fill="#7f88e1" fill-rule="nonzero" stroke-width="0" stroke-linejoin="miter" stroke-linecap="butt" stroke-miterlimit="4" >
	<path d="
	M 4076.82 -87.52 
	C 4078.36 -87.238 4080.6 -87.238 4082.98 -87.238 
	C 4096 -87.168 4103.07 -94.52 4103.07 -107.262 
	C 4103.14 -118.531 4096.84 -125.461 4083.96 -125.461 
	C 4080.81 -125.461 4078.43 -125.184 4076.82 -124.832 
	Z 
	M 4070.66 -129.313 
	C 4074.44 -129.871 4078.85 -130.293 4083.68 -130.293 
	C 4092.43 -130.293 4098.66 -128.332 4102.79 -124.48 
	C 4107.06 -120.633 4109.51 -115.102 4109.51 -107.469 
	C 4109.51 -99.77 4107.06 -93.469 4102.72 -89.129 
	C 4098.24 -84.719 4090.96 -82.34 4081.79 -82.34 
	C 4077.38 -82.34 4073.81 -82.477 4070.66 -82.898 
	Z 
	"/>
</g>
<g fill="#7f88e1" fill-rule="nonzero" stroke-width="0" stroke-linejoin="miter" stroke-linecap="butt" stroke-miterlimit="4" >
	<path d="
	M 4123.44 -107.82 
	L 4129.67 -107.82 
	C 4136.18 -107.82 4140.31 -111.391 4140.31 -116.781 
	C 4140.31 -122.871 4135.9 -125.531 4129.46 -125.531 
	C 4126.52 -125.531 4124.49 -125.254 4123.44 -124.973 
	Z 
	M 4117.35 -129.242 
	C 4120.43 -129.871 4124.91 -130.293 4129.04 -130.293 
	C 4135.55 -130.293 4139.82 -129.031 4142.76 -126.371 
	C 4145.07 -124.344 4146.47 -121.121 4146.47 -117.41 
	C 4146.47 -111.25 4142.48 -107.121 4137.58 -105.441 
	L 4137.58 -105.23 
	C 4141.15 -103.969 4143.32 -100.609 4144.51 -95.711 
	C 4146.05 -89.129 4147.17 -84.578 4148.08 -82.758 
	L 4141.78 -82.758 
	C 4141.01 -84.09 4139.96 -88.148 4138.7 -94.027 
	C 4137.3 -100.539 4134.71 -102.988 4129.18 -103.199 
	L 4123.44 -103.199 
	L 4123.44 -82.758 
	L 4117.35 -82.758 
	Z 
	"/>
</g>
<g fill="#7f88e1" fill-rule="nonzero" stroke-width="0" stroke-linejoin="miter" stroke-linecap="butt" stroke-miterlimit="4" >
	<path d="
	M 4178.45 -102.359 
	L 4173.76 -115.941 
	C 4172.78 -119.02 4172.08 -121.82 4171.38 -124.551 
	L 4171.17 -124.551 
	C 4170.54 -121.82 4169.77 -118.883 4168.86 -116.012 
	L 4164.24 -102.359 
	Z 
	M 4162.98 -97.602 
	L 4158.08 -82.758 
	L 4151.78 -82.758 
	L 4167.81 -129.941 
	L 4175.16 -129.941 
	L 4191.26 -82.758 
	L 4184.75 -82.758 
	L 4179.71 -97.602 
	Z 
	"/>
</g>
<g fill="#7f88e1" fill-rule="nonzero" stroke-width="0" stroke-linejoin="miter" stroke-linecap="butt" stroke-miterlimit="4" >
	<path d="
	M 4202.11 -82.758 
	L 4190.14 -129.941 
	L 4196.58 -129.941 
	L 4202.18 -106.07 
	C 4203.58 -100.121 4204.84 -94.309 4205.68 -89.758 
	L 4205.82 -89.758 
	C 4206.59 -94.449 4208.06 -100.051 4209.67 -106.141 
	L 4215.97 -129.941 
	L 4222.34 -129.941 
	L 4228.08 -106 
	C 4229.41 -100.328 4230.67 -94.801 4231.37 -89.828 
	L 4231.51 -89.828 
	C 4232.49 -95.008 4233.83 -100.262 4235.3 -106.141 
	L 4241.53 -129.941 
	L 4247.76 -129.941 
	L 4234.39 -82.758 
	L 4228.01 -82.758 
	L 4222.06 -107.262 
	C 4220.59 -113.352 4219.61 -117.973 4218.98 -122.73 
	L 4218.84 -122.73 
	C 4218.07 -117.973 4216.95 -113.422 4215.2 -107.332 
	L 4208.48 -82.758 
	Z 
	"/>
</g>
<g fill="#7f88e1" fill-rule="nonzero" stroke-width="0" stroke-linejoin="miter" stroke-linecap="butt" stroke-miterlimit="4" >
	<path d="
	M 4259.72 -129.941 
	L 4259.72 -82.758 
	L 4253.56 -82.758 
	L 4253.56 -129.941 
	Z 
	"/>
</g>
<g fill="#7f88e1" fill-rule="nonzero" stroke-width="0" stroke-linejoin="miter" stroke-linecap="butt" stroke-miterlimit="4" >
	<path d="
	M 4270.36 -82.758 
	L 4270.36 -129.941 
	L 4277.08 -129.941 
	L 4292.13 -106.07 
	C 4295.56 -100.539 4298.36 -95.641 4300.53 -90.738 
	L 4300.74 -90.809 
	C 4300.18 -97.109 4300.04 -102.852 4300.04 -110.133 
	L 4300.04 -129.941 
	L 4305.78 -129.941 
	L 4305.78 -82.758 
	L 4299.62 -82.758 
	L 4284.64 -106.699 
	C 4281.35 -111.949 4278.2 -117.34 4275.89 -122.453 
	L 4275.68 -122.383 
	C 4276.03 -116.43 4276.1 -110.762 4276.1 -102.922 
	L 4276.1 -82.758 
	Z 
	"/>
</g>
<g fill="#7f88e1" fill-rule="nonzero" stroke-width="0" stroke-linejoin="miter" stroke-linecap="butt" stroke-miterlimit="4" >
	<path d="
	M 4352.4 -84.859 
	C 4349.67 -83.809 4344.21 -82.27 4337.84 -82.27 
	C 4330.7 -82.27 4324.82 -84.09 4320.2 -88.5 
	C 4316.14 -92.418 4313.62 -98.719 4313.62 -106.07 
	C 4313.62 -120.141 4323.35 -130.434 4339.17 -130.434 
	C 4344.63 -130.434 4348.97 -129.242 4351 -128.262 
	L 4349.46 -123.293 
	C 4346.94 -124.48 4343.79 -125.32 4339.03 -125.32 
	C 4327.55 -125.32 4320.06 -118.184 4320.06 -106.352 
	C 4320.06 -94.379 4327.2 -87.309 4338.26 -87.309 
	C 4342.25 -87.309 4344.98 -87.867 4346.38 -88.566 
	L 4346.38 -102.641 
	L 4336.86 -102.641 
	L 4336.86 -107.539 
	L 4352.4 -107.539 
	Z 
	"/>
</g>
<g fill="#7f88e1" fill-rule="nonzero" stroke-width="0" stroke-linejoin="miter" stroke-linecap="butt" stroke-miterlimit="4" >
	<path d="
	M 4382.57 -129.941 
	L 4382.57 -82.758 
	L 4376.41 -82.758 
	L 4376.41 -129.941 
	Z 
	"/>
</g>
<g fill="#7f88e1" fill-rule="nonzero" stroke-width="0" stroke-linejoin="miter" stroke-linecap="butt" stroke-miterlimit="4" >
	<path d="
	M 4392.44 -90.18 
	C 4395.17 -88.43 4399.09 -87.098 4403.29 -87.098 
	C 4409.52 -87.098 4413.16 -90.316 4413.16 -95.148 
	C 4413.16 -99.488 4410.64 -102.078 4404.27 -104.461 
	C 4396.57 -107.262 4391.81 -111.32 4391.81 -117.902 
	C 4391.81 -125.254 4397.9 -130.715 4407.07 -130.715 
	C 4411.83 -130.715 4415.4 -129.594 4417.43 -128.402 
	L 4415.75 -123.434 
	C 4414.28 -124.344 4411.13 -125.672 4406.86 -125.672 
	C 4400.42 -125.672 4397.97 -121.82 4397.97 -118.602 
	C 4397.97 -114.191 4400.84 -112.02 4407.35 -109.5 
	C 4415.33 -106.352 4419.32 -102.57 4419.32 -95.641 
	C 4419.32 -88.359 4414 -81.988 4402.87 -81.988 
	C 4398.32 -81.988 4393.35 -83.387 4390.83 -85.066 
	Z 
	"/>
</g>
<g fill="#7f88e1" fill-rule="nonzero" stroke-width="0" stroke-linejoin="miter" stroke-linecap="butt" stroke-miterlimit="4" >
	<path d="
	M 4441.79 -90.18 
	C 4444.52 -88.43 4448.44 -87.098 4452.64 -87.098 
	C 4458.87 -87.098 4462.51 -90.316 4462.51 -95.148 
	C 4462.51 -99.488 4459.99 -102.078 4453.62 -104.461 
	C 4445.92 -107.262 4441.16 -111.32 4441.16 -117.902 
	C 4441.16 -125.254 4447.25 -130.715 4456.42 -130.715 
	C 4461.18 -130.715 4464.75 -129.594 4466.78 -128.402 
	L 4465.1 -123.434 
	C 4463.63 -124.344 4460.48 -125.672 4456.21 -125.672 
	C 4449.77 -125.672 4447.32 -121.82 4447.32 -118.602 
	C 4447.32 -114.191 4450.19 -112.02 4456.7 -109.5 
	C 4464.68 -106.352 4468.67 -102.57 4468.67 -95.641 
	C 4468.67 -88.359 4463.35 -81.988 4452.22 -81.988 
	C 4447.67 -81.988 4442.7 -83.387 4440.18 -85.066 
	Z 
	"/>
</g>
<g fill="#7f88e1" fill-rule="nonzero" stroke-width="0" stroke-linejoin="miter" stroke-linecap="butt" stroke-miterlimit="4" >
	<path d="
	M 4509.97 -84.227 
	C 4507.8 -83.109 4503.25 -81.988 4497.51 -81.988 
	C 4484.21 -81.988 4474.27 -90.391 4474.27 -105.93 
	C 4474.27 -120.773 4484.28 -130.715 4498.91 -130.715 
	C 4504.72 -130.715 4508.5 -129.453 4510.11 -128.613 
	L 4508.57 -123.641 
	C 4506.33 -124.762 4503.04 -125.602 4499.12 -125.602 
	C 4488.06 -125.602 4480.71 -118.531 4480.71 -106.141 
	C 4480.71 -94.52 4487.36 -87.168 4498.77 -87.168 
	C 4502.55 -87.168 4506.33 -87.938 4508.78 -89.129 
	Z 
	"/>
</g>
<g fill="#7f88e1" fill-rule="nonzero" stroke-width="0" stroke-linejoin="miter" stroke-linecap="butt" stroke-miterlimit="4" >
	<path d="
	M 4541.04 -102.359 
	L 4536.35 -115.941 
	C 4535.37 -119.02 4534.67 -121.82 4533.97 -124.551 
	L 4533.76 -124.551 
	C 4533.13 -121.82 4532.36 -118.883 4531.45 -116.012 
	L 4526.83 -102.359 
	Z 
	M 4525.57 -97.602 
	L 4520.67 -82.758 
	L 4514.37 -82.758 
	L 4530.4 -129.941 
	L 4537.75 -129.941 
	L 4553.85 -82.758 
	L 4547.34 -82.758 
	L 4542.3 -97.602 
	Z 
	"/>
</g>
<g fill="#7f88e1" fill-rule="nonzero" stroke-width="0" stroke-linejoin="miter" stroke-linecap="butt" stroke-miterlimit="4" >
	<path d="
	M 4560.71 -129.941 
	L 4566.87 -129.941 
	L 4566.87 -87.867 
	L 4587.03 -87.867 
	L 4587.03 -82.758 
	L 4560.71 -82.758 
	Z 
	"/>
</g>
<g fill="#7f88e1" fill-rule="nonzero" stroke-width="0" stroke-linejoin="miter" stroke-linecap="butt" stroke-miterlimit="4" >
	<path d="
	M 4618.18 -104.879 
	L 4599.91 -104.879 
	L 4599.91 -87.867 
	L 4620.35 -87.867 
	L 4620.35 -82.758 
	L 4593.75 -82.758 
	L 4593.75 -129.941 
	L 4619.3 -129.941 
	L 4619.3 -124.832 
	L 4599.91 -124.832 
	L 4599.91 -109.922 
	L 4618.18 -109.922 
	Z 
	"/>
</g>
<g fill="#7f88e1" fill-rule="nonzero" stroke-width="0" stroke-linejoin="miter" stroke-linecap="butt" stroke-miterlimit="4" >
	<path d="
	M 4634.35 -87.52 
	C 4635.89 -87.238 4638.13 -87.238 4640.51 -87.238 
	C 4653.53 -87.168 4660.6 -94.52 4660.6 -107.262 
	C 4660.67 -118.531 4654.37 -125.461 4641.49 -125.461 
	C 4638.34 -125.461 4635.96 -125.184 4634.35 -124.832 
	Z 
	M 4628.19 -129.313 
	C 4631.97 -129.871 4636.38 -130.293 4641.21 -130.293 
	C 4649.96 -130.293 4656.19 -128.332 4660.32 -124.48 
	C 4664.59 -120.633 4667.04 -115.102 4667.04 -107.469 
	C 4667.04 -99.77 4664.59 -93.469 4660.25 -89.129 
	C 4655.77 -84.719 4648.49 -82.34 4639.32 -82.34 
	C 4634.91 -82.34 4631.34 -82.477 4628.19 -82.898 
	Z 
	"/>
</g>
<g fill="#7f88e1" fill-rule="nonzero" stroke-width="0" stroke-linejoin="miter" stroke-linecap="butt" stroke-miterlimit="4" >
	<path d="
	M 4695.82 -124.762 
	L 4681.47 -124.762 
	L 4681.47 -129.941 
	L 4716.41 -129.941 
	L 4716.41 -124.762 
	L 4701.98 -124.762 
	L 4701.98 -82.758 
	L 4695.82 -82.758 
	Z 
	"/>
</g>
<g fill="#7f88e1" fill-rule="nonzero" stroke-width="0" stroke-linejoin="miter" stroke-linecap="butt" stroke-miterlimit="4" >
	<path d="
	M 4738.46 -86.957 
	C 4748.13 -86.957 4753.59 -95.848 4753.59 -106.563 
	C 4753.59 -115.941 4748.69 -125.742 4738.53 -125.742 
	C 4728.38 -125.742 4723.34 -116.293 4723.34 -106.07 
	C 4723.34 -96.129 4728.8 -86.957 4738.39 -86.957 
	Z 
	M 4738.18 -81.988 
	C 4725.65 -81.988 4716.97 -91.648 4716.97 -105.93 
	C 4716.97 -120.91 4726.21 -130.715 4738.81 -130.715 
	C 4751.77 -130.715 4760.1 -120.844 4760.1 -106.84 
	C 4760.1 -90.668 4750.23 -81.988 4738.25 -81.988 
	Z 
	"/>
</g>
<g fill="#7f88e1" fill-rule="nonzero" stroke-width="0" stroke-linejoin="miter" stroke-linecap="butt" stroke-miterlimit="4" >
	<path d="
	M 4807.83 -123.082 
	L 4790.47 -123.082 
	L 4788.72 -111.531 
	C 4789.77 -111.672 4790.75 -111.813 4792.43 -111.813 
	C 4796 -111.813 4799.43 -111.039 4802.23 -109.359 
	C 4805.8 -107.398 4808.74 -103.41 4808.74 -97.527 
	C 4808.74 -88.641 4801.67 -81.988 4791.8 -81.988 
	C 4786.83 -81.988 4782.7 -83.387 4780.46 -84.789 
	L 4782 -89.48 
	C 4783.89 -88.359 4787.6 -86.957 4791.8 -86.957 
	C 4797.54 -86.957 4802.58 -90.738 4802.51 -96.898 
	C 4802.51 -102.922 4798.52 -107.051 4789.49 -107.051 
	C 4786.83 -107.051 4784.8 -106.84 4783.12 -106.563 
	L 4786.06 -128.262 
	L 4807.83 -128.262 
	Z 
	"/>
</g>
<g fill="#7f88e1" fill-rule="nonzero" stroke-width="0" stroke-linejoin="miter" stroke-linecap="butt" stroke-miterlimit="4" >
	<path d="
	M 4831.35 -86.746 
	C 4837.58 -86.746 4840.59 -94.098 4840.59 -105.719 
	C 4840.59 -116.922 4837.79 -124.273 4831.35 -124.273 
	C 4825.75 -124.273 4822.11 -117.133 4822.11 -105.719 
	C 4821.97 -93.891 4825.61 -86.746 4831.28 -86.746 
	Z 
	M 4831.07 -81.988 
	C 4822.18 -81.988 4816.09 -90.316 4815.95 -105.371 
	C 4815.95 -120.703 4822.6 -129.031 4831.84 -129.031 
	C 4841.36 -129.031 4846.89 -120.492 4846.89 -106 
	C 4846.89 -90.527 4841.08 -81.988 4831.14 -81.988 
	Z 
	"/>
</g>
<g fill="#7f88e1" fill-rule="nonzero" stroke-width="0" stroke-linejoin="miter" stroke-linecap="butt" stroke-miterlimit="4" >
	<path d="
	M 4891.9 -106.488 
	C 4888.12 -106.488 4886.02 -101.941 4886.02 -96.199 
	C 4885.88 -90.457 4888.12 -85.977 4891.97 -85.977 
	C 4896.03 -85.977 4897.85 -90.316 4897.85 -96.34 
	C 4897.85 -101.871 4896.24 -106.488 4891.97 -106.488 
	Z 
	M 4892.18 -110.199 
	C 4898.48 -110.199 4902.61 -105.301 4902.61 -96.617 
	C 4902.61 -87.027 4897.64 -82.27 4891.76 -82.27 
	C 4886.02 -82.27 4881.19 -86.887 4881.12 -95.988 
	C 4881.12 -105.09 4886.02 -110.199 4892.11 -110.199 
	Z 
	M 4861.59 -81.918 
	L 4888.4 -129.102 
	L 4892.32 -129.102 
	L 4865.51 -81.918 
	Z 
	M 4862.22 -125.32 
	C 4858.44 -125.32 4856.34 -120.773 4856.34 -115.031 
	C 4856.2 -109.289 4858.44 -104.809 4862.29 -104.809 
	C 4866.35 -104.809 4868.17 -109.148 4868.17 -115.172 
	C 4868.17 -120.703 4866.56 -125.32 4862.29 -125.32 
	Z 
	M 4862.5 -129.031 
	C 4868.8 -129.031 4872.93 -124.133 4872.93 -115.449 
	C 4872.93 -105.859 4867.96 -101.102 4862.08 -101.102 
	C 4856.34 -101.102 4851.51 -105.719 4851.44 -114.82 
	C 4851.44 -123.922 4856.34 -129.031 4862.43 -129.031 
	Z 
	"/>
</g>
<g fill="#7f88e1" fill-rule="nonzero" stroke-width="0" stroke-linejoin="miter" stroke-linecap="butt" stroke-miterlimit="4" >
	<path d="
	M 4943.63 -86.957 
	C 4953.29 -86.957 4958.75 -95.848 4958.75 -106.563 
	C 4958.75 -115.941 4953.85 -125.742 4943.7 -125.742 
	C 4933.55 -125.742 4928.51 -116.293 4928.51 -106.07 
	C 4928.51 -96.129 4933.97 -86.957 4943.56 -86.957 
	Z 
	M 4943.35 -81.988 
	C 4930.82 -81.988 4922.14 -91.648 4922.14 -105.93 
	C 4922.14 -120.91 4931.38 -130.715 4943.98 -130.715 
	C 4956.93 -130.715 4965.26 -120.844 4965.26 -106.84 
	C 4965.26 -90.668 4955.39 -81.988 4943.42 -81.988 
	Z 
	"/>
</g>
<g fill="#7f88e1" fill-rule="nonzero" stroke-width="0" stroke-linejoin="miter" stroke-linecap="butt" stroke-miterlimit="4" >
	<path d="
	M 4973.1 -129.941 
	L 4998.51 -129.941 
	L 4998.51 -124.832 
	L 4979.26 -124.832 
	L 4979.26 -109.148 
	L 4997.04 -109.148 
	L 4997.04 -104.109 
	L 4979.26 -104.109 
	L 4979.26 -82.758 
	L 4973.1 -82.758 
	Z 
	"/>
</g>
<g fill="#7f88e1" fill-rule="nonzero" stroke-width="0" stroke-linejoin="miter" stroke-linecap="butt" stroke-miterlimit="4" >
	<path d="
	M 5028.2 -124.762 
	L 5013.85 -124.762 
	L 5013.85 -129.941 
	L 5048.79 -129.941 
	L 5048.79 -124.762 
	L 5034.36 -124.762 
	L 5034.36 -82.758 
	L 5028.2 -82.758 
	Z 
	"/>
</g>
<g fill="#7f88e1" fill-rule="nonzero" stroke-width="0" stroke-linejoin="miter" stroke-linecap="butt" stroke-miterlimit="4" >
	<path d="
	M 5060.12 -129.941 
	L 5060.12 -110.199 
	L 5082.94 -110.199 
	L 5082.94 -129.941 
	L 5089.11 -129.941 
	L 5089.11 -82.758 
	L 5082.94 -82.758 
	L 5082.94 -104.879 
	L 5060.12 -104.879 
	L 5060.12 -82.758 
	L 5053.96 -82.758 
	L 5053.96 -129.941 
	Z 
	"/>
</g>
<g fill="#7f88e1" fill-rule="nonzero" stroke-width="0" stroke-linejoin="miter" stroke-linecap="butt" stroke-miterlimit="4" >
	<path d="
	M 5124.03 -104.879 
	L 5105.76 -104.879 
	L 5105.76 -87.867 
	L 5126.2 -87.867 
	L 5126.2 -82.758 
	L 5099.6 -82.758 
	L 5099.6 -129.941 
	L 5125.15 -129.941 
	L 5125.15 -124.832 
	L 5105.76 -124.832 
	L 5105.76 -109.922 
	L 5124.03 -109.922 
	Z 
	"/>
</g>
<g fill="#7f88e1" fill-rule="nonzero" stroke-width="0" stroke-linejoin="miter" stroke-linecap="butt" stroke-miterlimit="4" >
	<path d="
	M 5148.88 -129.941 
	L 5174.29 -129.941 
	L 5174.29 -124.832 
	L 5155.04 -124.832 
	L 5155.04 -109.148 
	L 5172.82 -109.148 
	L 5172.82 -104.109 
	L 5155.04 -104.109 
	L 5155.04 -82.758 
	L 5148.88 -82.758 
	Z 
	"/>
</g>
<g fill="#7f88e1" fill-rule="nonzero" stroke-width="0" stroke-linejoin="miter" stroke-linecap="butt" stroke-miterlimit="4" >
	<path d="
	M 5189.13 -129.941 
	L 5189.13 -101.941 
	C 5189.13 -91.438 5193.82 -86.957 5200.12 -86.957 
	C 5207.05 -86.957 5211.6 -91.578 5211.6 -101.941 
	L 5211.6 -129.941 
	L 5217.76 -129.941 
	L 5217.76 -102.359 
	C 5217.76 -87.867 5210.13 -81.988 5199.91 -81.988 
	C 5190.25 -81.988 5182.97 -87.449 5182.97 -102.148 
	L 5182.97 -129.941 
	Z 
	"/>
</g>
<g fill="#7f88e1" fill-rule="nonzero" stroke-width="0" stroke-linejoin="miter" stroke-linecap="butt" stroke-miterlimit="4" >
	<path d="
	M 5228.26 -129.941 
	L 5234.42 -129.941 
	L 5234.42 -87.867 
	L 5254.58 -87.867 
	L 5254.58 -82.758 
	L 5228.26 -82.758 
	Z 
	"/>
</g>
<g fill="#7f88e1" fill-rule="nonzero" stroke-width="0" stroke-linejoin="miter" stroke-linecap="butt" stroke-miterlimit="4" >
	<path d="
	M 5261.3 -129.941 
	L 5267.46 -129.941 
	L 5267.46 -87.867 
	L 5287.62 -87.867 
	L 5287.62 -82.758 
	L 5261.3 -82.758 
	Z 
	"/>
</g>
<g fill="#7f88e1" fill-rule="nonzero" stroke-width="0" stroke-linejoin="miter" stroke-linecap="butt" stroke-miterlimit="4" >
	<path d="
	M 5308.48 -90.18 
	C 5311.21 -88.43 5315.13 -87.098 5319.33 -87.098 
	C 5325.56 -87.098 5329.2 -90.316 5329.2 -95.148 
	C 5329.2 -99.488 5326.68 -102.078 5320.31 -104.461 
	C 5312.61 -107.262 5307.85 -111.32 5307.85 -117.902 
	C 5307.85 -125.254 5313.94 -130.715 5323.11 -130.715 
	C 5327.87 -130.715 5331.44 -129.594 5333.47 -128.402 
	L 5331.79 -123.434 
	C 5330.32 -124.344 5327.17 -125.672 5322.9 -125.672 
	C 5316.46 -125.672 5314.01 -121.82 5314.01 -118.602 
	C 5314.01 -114.191 5316.88 -112.02 5323.39 -109.5 
	C 5331.37 -106.352 5335.36 -102.57 5335.36 -95.641 
	C 5335.36 -88.359 5330.04 -81.988 5318.91 -81.988 
	C 5314.36 -81.988 5309.39 -83.387 5306.87 -85.066 
	Z 
	"/>
</g>
<g fill="#7f88e1" fill-rule="nonzero" stroke-width="0" stroke-linejoin="miter" stroke-linecap="butt" stroke-miterlimit="4" >
	<path d="
	M 5349.85 -129.941 
	L 5349.85 -82.758 
	L 5343.69 -82.758 
	L 5343.69 -129.941 
	Z 
	"/>
</g>
<g fill="#7f88e1" fill-rule="nonzero" stroke-width="0" stroke-linejoin="miter" stroke-linecap="butt" stroke-miterlimit="4" >
	<path d="
	M 5396.47 -84.859 
	C 5393.74 -83.809 5388.28 -82.27 5381.91 -82.27 
	C 5374.77 -82.27 5368.89 -84.09 5364.27 -88.5 
	C 5360.21 -92.418 5357.69 -98.719 5357.69 -106.07 
	C 5357.69 -120.141 5367.42 -130.434 5383.24 -130.434 
	C 5388.7 -130.434 5393.04 -129.242 5395.07 -128.262 
	L 5393.53 -123.293 
	C 5391.01 -124.48 5387.86 -125.32 5383.1 -125.32 
	C 5371.62 -125.32 5364.13 -118.184 5364.13 -106.352 
	C 5364.13 -94.379 5371.27 -87.309 5382.33 -87.309 
	C 5386.32 -87.309 5389.05 -87.867 5390.45 -88.566 
	L 5390.45 -102.641 
	L 5380.93 -102.641 
	L 5380.93 -107.539 
	L 5396.47 -107.539 
	Z 
	"/>
</g>
<g fill="#7f88e1" fill-rule="nonzero" stroke-width="0" stroke-linejoin="miter" stroke-linecap="butt" stroke-miterlimit="4" >
	<path d="
	M 5405.71 -82.758 
	L 5405.71 -129.941 
	L 5412.43 -129.941 
	L 5427.48 -106.07 
	C 5430.91 -100.539 5433.71 -95.641 5435.88 -90.738 
	L 5436.09 -90.809 
	C 5435.53 -97.109 5435.39 -102.852 5435.39 -110.133 
	L 5435.39 -129.941 
	L 5441.13 -129.941 
	L 5441.13 -82.758 
	L 5434.97 -82.758 
	L 5419.99 -106.699 
	C 5416.7 -111.949 5413.55 -117.34 5411.24 -122.453 
	L 5411.03 -122.383 
	C 5411.38 -116.43 5411.45 -110.762 5411.45 -102.922 
	L 5411.45 -82.758 
	Z 
	"/>
</g>
<g fill="#7f88e1" fill-rule="nonzero" stroke-width="0" stroke-linejoin="miter" stroke-linecap="butt" stroke-miterlimit="4" >
	<path d="
	M 5465.83 -90.18 
	C 5468.56 -88.43 5472.49 -87.098 5476.68 -87.098 
	C 5482.92 -87.098 5486.56 -90.316 5486.56 -95.148 
	C 5486.56 -99.488 5484.04 -102.078 5477.67 -104.461 
	C 5469.96 -107.262 5465.2 -111.32 5465.2 -117.902 
	C 5465.2 -125.254 5471.29 -130.715 5480.47 -130.715 
	C 5485.23 -130.715 5488.8 -129.594 5490.83 -128.402 
	L 5489.15 -123.434 
	C 5487.68 -124.344 5484.53 -125.672 5480.26 -125.672 
	C 5473.82 -125.672 5471.36 -121.82 5471.36 -118.602 
	C 5471.36 -114.191 5474.24 -112.02 5480.75 -109.5 
	C 5488.73 -106.352 5492.72 -102.57 5492.72 -95.641 
	C 5492.72 -88.359 5487.4 -81.988 5476.26 -81.988 
	C 5471.71 -81.988 5466.74 -83.387 5464.22 -85.066 
	Z 
	"/>
</g>
<g fill="#7f88e1" fill-rule="nonzero" stroke-width="0" stroke-linejoin="miter" stroke-linecap="butt" stroke-miterlimit="4" >
	<path d="
	M 5507.2 -129.941 
	L 5507.2 -82.758 
	L 5501.04 -82.758 
	L 5501.04 -129.941 
	Z 
	"/>
</g>
<g fill="#7f88e1" fill-rule="nonzero" stroke-width="0" stroke-linejoin="miter" stroke-linecap="butt" stroke-miterlimit="4" >
	<path d="
	M 5514.62 -86.328 
	L 5540.81 -124.621 
	L 5540.81 -124.832 
	L 5516.86 -124.832 
	L 5516.86 -129.941 
	L 5548.72 -129.941 
	L 5548.72 -126.23 
	L 5522.67 -88.078 
	L 5522.67 -87.867 
	L 5549.07 -87.867 
	L 5549.07 -82.758 
	L 5514.62 -82.758 
	Z 
	"/>
</g>
<g fill="#7f88e1" fill-rule="nonzero" stroke-width="0" stroke-linejoin="miter" stroke-linecap="butt" stroke-miterlimit="4" >
	<path d="
	M 5580.92 -104.879 
	L 5562.64 -104.879 
	L 5562.64 -87.867 
	L 5583.09 -87.867 
	L 5583.09 -82.758 
	L 5556.48 -82.758 
	L 5556.48 -129.941 
	L 5582.04 -129.941 
	L 5582.04 -124.832 
	L 5562.64 -124.832 
	L 5562.64 -109.922 
	L 5580.92 -109.922 
	Z 
	"/>
</g>
</g >
</g>
</svg>
