<?xml version="1.0" encoding="UTF-8" standalone="no"?>
<!-- Created with Inkscape (http://www.inkscape.org/) -->

<svg
   version="1.1"
   id="svg1"
   width="12672.667"
   height="1440.6667"
   viewBox="0 0 12672.667 1440.6667"
   sodipodi:docname="tmp_ojy41c9.pdf"
   xmlns:inkscape="http://www.inkscape.org/namespaces/inkscape"
   xmlns:sodipodi="http://sodipodi.sourceforge.net/DTD/sodipodi-0.dtd"
   xmlns="http://www.w3.org/2000/svg"
   xmlns:svg="http://www.w3.org/2000/svg">
  <defs
     id="defs1" />
  <sodipodi:namedview
     id="namedview1"
     pagecolor="#ffffff"
     bordercolor="#000000"
     borderopacity="0.25"
     inkscape:showpageshadow="2"
     inkscape:pageopacity="0.0"
     inkscape:pagecheckerboard="0"
     inkscape:deskcolor="#d1d1d1">
    <inkscape:page
       x="0"
       y="0"
       inkscape:label="1"
       id="page1"
       width="12672.667"
       height="1440.6667"
       margin="0"
       bleed="0" />
  </sodipodi:namedview>
  <g
     id="g1"
     inkscape:groupmode="layer"
     inkscape:label="1">
    <g
       id="group-R5">
      <path
         id="path2"
         d="M 95042.5,1082.5 C 95042.5,486 94559,2.5 93962.5,2.5 H 1082.5 C 486.023,2.5 2.5,486 2.5,1082.5 v 8640 c 0,596.5 483.523,1080 1080,1080 h 92880 c 596.5,0 1080,-483.5 1080,-1080 v -8640"
         style="fill:#fccc2d;fill-opacity:1;fill-rule:nonzero;stroke:none"
         transform="matrix(0.13333333,0,0,-0.13333333,0,1440.6667)" />
      <path
         id="path3"
         d="M 95042.5,1082.5 C 95042.5,486 94559,2.5 93962.5,2.5 H 1082.5 C 486.023,2.5 2.5,486 2.5,1082.5 v 8640 c 0,596.5 483.523,1080 1080,1080 h 92880 c 596.5,0 1080,-483.5 1080,-1080 z"
         style="fill:none;stroke:#231f20;stroke-width:5;stroke-linecap:butt;stroke-linejoin:miter;stroke-miterlimit:4;stroke-dasharray:none;stroke-opacity:1"
         transform="matrix(0.13333333,0,0,-0.13333333,0,1440.6667)" />
      <path
         id="path4"
         d="m 94322.5,1082.5 c 0,-198.5 -161.5,-360 -360,-360 h -92880 c -198.496,0 -360,161.5 -360,360 v 8640 c 0,198.5 161.504,360 360,360 h 92880 c 198.5,0 360,-161.5 360,-360 z m -360,9450 h -92880 c -446.633,0 -810,-363.4 -810,-810 v -8640 c 0,-446.598 363.367,-810 810,-810 h 92880 c 446.7,0 810,363.402 810,810 v 8640 c 0,446.6 -363.3,810 -810,810"
         style="fill:#231f20;fill-opacity:1;fill-rule:nonzero;stroke:none"
         transform="matrix(0.13333333,0,0,-0.13333333,0,1440.6667)" />
      <path
         id="path5"
         d="m 11339.3,6486.28 -606.1,-1455.16 h 1212.2 z m 1363.8,-3243.79 -424.3,1015.58 h -1879 L 9975.49,3242.49 H 9126.9 l 1818.4,4320.01 h 788 l 1803.2,-4320.01 h -833.4"
         style="fill:#231f20;fill-opacity:1;fill-rule:nonzero;stroke:none"
         transform="matrix(0.13333333,0,0,-0.13333333,0,1440.6667)" />
      <path
         id="path6"
         d="M 45745.1,5152.38 H 44512 V 4015.55 h 1233.1 c 411,0 700.2,227.36 700.2,545.68 0,333.47 -304.4,591.15 -700.2,591.15 z m 0,1637.06 H 44512 v -864 h 1233.1 c 334.9,0 563.2,181.89 563.2,439.58 0,257.69 -213.1,424.42 -563.2,424.42 z m 822,-3365.06 c -213.1,-121.26 -441.5,-181.89 -669.8,-181.89 h -213.1 -1963.8 V 7562.5 h 2024.7 c 380.5,0 517.5,-30.32 745.9,-151.58 365.3,-212.21 593.7,-576.01 593.7,-985.27 0,-348.63 -137,-651.79 -426.3,-894.31 380.6,-272.84 563.3,-606.32 563.3,-1015.59 0,-439.58 -258.8,-879.15 -654.6,-1091.37"
         style="fill:#231f20;fill-opacity:1;fill-rule:nonzero;stroke:none"
         transform="matrix(0.13333333,0,0,-0.13333333,0,1440.6667)" />
      <path
         id="path7"
         d="M 25738.4,3242.49 V 7562.5 h 3163.9 v -773.06 h -2372.9 v -803.37 h 1292.9 V 5197.86 H 26529.4 V 4015.55 h 2449 v -773.06 h -3240"
         style="fill:#231f20;fill-opacity:1;fill-rule:nonzero;stroke:none"
         transform="matrix(0.13333333,0,0,-0.13333333,0,1440.6667)" />
      <path
         id="path8"
         d="M 48258.5,3242.49 V 7562.5 h 3164 v -773.06 h -2373 v -803.37 h 1293 v -788.21 h -1293 V 4015.55 h 2449 v -773.06 h -3240"
         style="fill:#231f20;fill-opacity:1;fill-rule:nonzero;stroke:none"
         transform="matrix(0.13333333,0,0,-0.13333333,0,1440.6667)" />
      <path
         id="path9"
         d="M 65862.5,3242.49 V 7562.5 h 3164 v -773.06 h -2373 v -803.37 h 1293 v -788.21 h -1293 V 4015.55 h 2449 v -773.06 h -3240"
         style="fill:#231f20;fill-opacity:1;fill-rule:nonzero;stroke:none"
         transform="matrix(0.13333333,0,0,-0.13333333,0,1440.6667)" />
      <path
         id="path10"
         d="m 53326.3,6789.44 v -879.16 h 1353.8 V 5122.07 H 53326.3 V 3242.49 h -791 V 7562.5 h 3240 v -773.06 h -2449"
         style="fill:#231f20;fill-opacity:1;fill-rule:nonzero;stroke:none"
         transform="matrix(0.13333333,0,0,-0.13333333,0,1440.6667)" />
      <path
         id="path11"
         d="M 34501.5,3242.49 V 7562.5 h 777.6 V 3242.49 h -777.6"
         style="fill:#231f20;fill-opacity:1;fill-rule:nonzero;stroke:none"
         transform="matrix(0.13333333,0,0,-0.13333333,0,1440.6667)" />
      <path
         id="path12"
         d="M 5472.17,3242.49 V 7562.5 h 775.76 V 3909.44 h 2464.24 v -666.95 h -3240"
         style="fill:#231f20;fill-opacity:1;fill-rule:nonzero;stroke:none"
         transform="matrix(0.13333333,0,0,-0.13333333,0,1440.6667)" />
      <path
         id="path13"
         d="M 82211.6,3242.49 V 7562.5 h 775.7 V 3909.44 h 2464.3 v -666.95 h -3240"
         style="fill:#231f20;fill-opacity:1;fill-rule:nonzero;stroke:none"
         transform="matrix(0.13333333,0,0,-0.13333333,0,1440.6667)" />
      <path
         id="path14"
         d="M 86332.9,3242.49 V 7562.5 h 775.7 V 3909.44 h 2464.3 v -666.95 h -3240"
         style="fill:#231f20;fill-opacity:1;fill-rule:nonzero;stroke:none"
         transform="matrix(0.13333333,0,0,-0.13333333,0,1440.6667)" />
      <path
         id="path15"
         d="m 58339.3,6865.23 c -653.2,0 -1048.2,-545.68 -1048.2,-1455.15 0,-924.64 395,-1470.32 1048.2,-1470.32 820.4,0 1017.9,803.37 1017.9,1470.32 0,909.47 -364.6,1455.15 -1017.9,1455.15 z m 0,-3698.53 c -1276.1,0 -1838.2,1152.01 -1838.2,2243.38 0,1379.36 698.8,2228.21 1838.2,2228.21 1063.5,0 1792.7,-894.32 1792.7,-2213.06 0,-1349.06 -698.8,-2258.53 -1792.7,-2258.53"
         style="fill:#231f20;fill-opacity:1;fill-rule:nonzero;stroke:none"
         transform="matrix(0.13333333,0,0,-0.13333333,0,1440.6667)" />
      <path
         id="path16"
         d="m 79226.6,6865.23 c -653.3,0 -1048.3,-545.68 -1048.3,-1455.15 0,-924.64 395,-1470.32 1048.3,-1470.32 820.4,0 1017.9,803.37 1017.9,1470.32 0,909.47 -364.7,1455.15 -1017.9,1455.15 z m 0,-3698.53 c -1276.2,0 -1838.3,1152.01 -1838.3,2243.38 0,1379.36 698.8,2228.21 1838.3,2228.21 1063.4,0 1792.7,-894.32 1792.7,-2213.06 0,-1349.06 -698.9,-2258.53 -1792.7,-2258.53"
         style="fill:#231f20;fill-opacity:1;fill-rule:nonzero;stroke:none"
         transform="matrix(0.13333333,0,0,-0.13333333,0,1440.6667)" />
      <path
         id="path17"
         d="M 63341,6789.44 H 62097 V 5713.22 h 1244 c 378.8,0 621.2,212.22 621.2,530.54 0,333.48 -242.4,545.68 -621.2,545.68 z m 621.2,-3546.95 -696.9,1697.68 H 62097 V 3242.49 h -772.6 V 7562.5 h 2001.5 c 318.1,0 515.1,-45.47 742.3,-181.9 409.1,-227.36 666.6,-651.78 666.6,-1136.84 0,-485.05 -257.5,-909.47 -696.9,-1152.01 l 787.8,-1849.26 h -863.5"
         style="fill:#231f20;fill-opacity:1;fill-rule:nonzero;stroke:none"
         transform="matrix(0.13333333,0,0,-0.13333333,0,1440.6667)" />
      <path
         id="path18"
         d="m 15717.4,5181.06 c -192.3,53.07 -675.8,169.14 -838.9,264.79 -325.2,190.64 -573.8,502.42 -573.8,964.64 0,712.43 608.9,1197.48 1491.9,1197.48 639.3,0 1172.2,-212.21 1613.6,-666.94 l -578.5,-515.38 c -274,288 -624.1,424.43 -1035.1,424.43 -441.5,0 -700.3,-166.75 -700.3,-439.59 0,-242.52 152.2,-348.63 685,-469.89 578.5,-121.26 959.1,-242.52 1202.7,-363.79 380.6,-197.05 624.1,-606.32 624.1,-1076.21 0,-439.58 -197.9,-773.06 -608.9,-1015.58 -304.5,-181.9 -700.3,-288 -1096.1,-288 -745.9,0 -1309.2,272.84 -1796.3,833.68 l 624.1,485.06 c 319.7,-378.95 669.9,-545.7 1157,-545.7 548,0 943.8,242.54 943.8,560.85 0,405.48 -441,464.32 -1114.3,650.15"
         style="fill:#231f20;fill-opacity:1;fill-rule:nonzero;stroke:none"
         transform="matrix(0.13333333,0,0,-0.13333333,0,1440.6667)" />
      <path
         id="path19"
         d="M 20176.9,6804.6 V 3242.48 h -757 V 6804.6 h -1241.5 v 757.9 h 3240 v -757.9 h -1241.5"
         style="fill:#231f20;fill-opacity:1;fill-rule:nonzero;stroke:none"
         transform="matrix(0.13333333,0,0,-0.13333333,0,1440.6667)" />
      <path
         id="path20"
         d="M 75421,6804.6 V 3242.48 h -757 V 6804.6 h -1241.5 v 757.9 h 3240 V 6804.6 H 75421"
         style="fill:#231f20;fill-opacity:1;fill-rule:nonzero;stroke:none"
         transform="matrix(0.13333333,0,0,-0.13333333,0,1440.6667)" />
      <path
         id="path21"
         d="M 38158.8,6804.6 V 3242.48 h -757 V 6804.6 h -1241.4 v 757.9 h 3240 v -757.9 h -1241.6"
         style="fill:#231f20;fill-opacity:1;fill-rule:nonzero;stroke:none"
         transform="matrix(0.13333333,0,0,-0.13333333,0,1440.6667)" />
      <path
         id="path22"
         d="m 32551.2,3242.48 -974.4,1530.96 -959.2,-1530.96 h -913.5 L 31120,5516.17 29825.9,7562.5 h 928.7 l 822.2,-1318.75 822.1,1318.75 h 928.7 l -1278.9,-2046.33 1416,-2273.69 h -913.5"
         style="fill:#231f20;fill-opacity:1;fill-rule:nonzero;stroke:none"
         transform="matrix(0.13333333,0,0,-0.13333333,0,1440.6667)" />
      <path
         id="path23"
         d="m 39331.8,9167.62 h -143.5 v 51.81 h 349.3 v -51.81 h -144.2 v -420.04 h -61.6 v 420.04"
         style="fill:#bf2519;fill-opacity:1;fill-rule:nonzero;stroke:none"
         transform="matrix(0.13333333,0,0,-0.13333333,0,1440.6667)" />
      <path
         id="path24"
         d="m 39651,9219.43 v -197.42 h 228.2 v 197.42 h 61.6 v -471.85 h -61.6 V 8968.8 H 39651 v -221.22 h -61.6 v 471.85 h 61.6"
         style="fill:#bf2519;fill-opacity:1;fill-rule:nonzero;stroke:none"
         transform="matrix(0.13333333,0,0,-0.13333333,0,1440.6667)" />
      <path
         id="path25"
         d="m 40107.4,9219.43 v -471.85 h -61.6 v 471.85 h 61.6"
         style="fill:#bf2519;fill-opacity:1;fill-rule:nonzero;stroke:none"
         transform="matrix(0.13333333,0,0,-0.13333333,0,1440.6667)" />
      <path
         id="path26"
         d="m 40206.1,8821.79 c 27.3,-17.51 66.5,-30.81 108.5,-30.81 62.3,0 98.7,32.2 98.7,80.51 0,43.41 -25.2,69.31 -88.9,93.11 -77,28 -124.6,68.61 -124.6,134.41 0,73.51 60.9,128.12 152.6,128.12 47.6,0 83.3,-11.2 103.6,-23.11 l -16.8,-49.7 c -14.7,9.1 -46.2,22.4 -88.9,22.4 -64.4,0 -88.9,-38.5 -88.9,-70.7 0,-44.11 28.7,-65.81 93.8,-91.02 79.8,-31.5 119.7,-69.3 119.7,-138.61 0,-72.81 -53.2,-136.51 -164.5,-136.51 -45.5,0 -95.2,14 -120.4,30.8 l 16.1,51.11"
         style="fill:#bf2519;fill-opacity:1;fill-rule:nonzero;stroke:none"
         transform="matrix(0.13333333,0,0,-0.13333333,0,1440.6667)" />
      <path
         id="path27"
         d="m 40768.2,8795.19 c 15.4,-2.81 37.8,-2.81 61.6,-2.81 130.2,-0.7 200.9,72.81 200.9,200.22 0.7,112.72 -62.3,182.02 -191.1,182.02 -31.5,0 -55.3,-2.8 -71.4,-6.3 z m -61.6,417.93 c 37.8,5.61 81.9,9.81 130.2,9.81 87.5,0 149.8,-19.6 191.1,-58.11 42.7,-38.5 67.2,-93.81 67.2,-170.12 0,-77 -24.5,-140.01 -67.9,-183.42 -44.8,-44.1 -117.6,-67.9 -209.3,-67.9 -44.1,0 -79.8,1.4 -111.3,5.6 v 464.14"
         style="fill:#bf2519;fill-opacity:1;fill-rule:nonzero;stroke:none"
         transform="matrix(0.13333333,0,0,-0.13333333,0,1440.6667)" />
      <path
         id="path28"
         d="m 41234.4,8998.2 h 62.3 c 65.1,0 106.4,35.71 106.4,89.61 0,60.91 -44.1,87.51 -108.5,87.51 -29.4,0 -49.7,-2.8 -60.2,-5.6 z m -60.9,214.23 c 30.8,6.3 75.6,10.5 116.9,10.5 65.1,0 107.8,-12.6 137.2,-39.2 23.1,-20.31 37.1,-52.51 37.1,-89.61 0,-61.61 -39.9,-102.92 -88.9,-119.72 v -2.1 c 35.7,-12.6 57.4,-46.2 69.3,-95.21 15.4,-65.81 26.6,-111.31 35.7,-129.51 h -63 c -7.7,13.3 -18.2,53.9 -30.8,112.71 -14,65.11 -39.9,89.61 -95.2,91.71 h -57.4 v -204.42 h -60.9 v 464.85"
         style="fill:#bf2519;fill-opacity:1;fill-rule:nonzero;stroke:none"
         transform="matrix(0.13333333,0,0,-0.13333333,0,1440.6667)" />
      <path
         id="path29"
         d="m 41784.5,8943.6 -46.9,135.81 c -9.8,30.8 -16.8,58.81 -23.8,86.11 h -2.1 c -6.3,-27.3 -14,-56.7 -23.1,-85.41 l -46.2,-136.51 z m -154.7,-47.6 -49,-148.42 h -63 l 160.3,471.85 h 73.5 l 161,-471.85 h -65.1 l -50.4,148.42 h -167.3"
         style="fill:#bf2519;fill-opacity:1;fill-rule:nonzero;stroke:none"
         transform="matrix(0.13333333,0,0,-0.13333333,0,1440.6667)" />
      <path
         id="path30"
         d="m 42021.1,8747.58 -119.7,471.85 h 64.4 l 56,-238.73 c 14,-59.5 26.6,-117.61 35,-163.11 h 1.4 c 7.7,46.9 22.4,102.91 38.5,163.81 l 63,238.03 h 63.7 l 57.4,-239.43 c 13.3,-56.7 25.9,-112.01 32.9,-161.71 h 1.4 c 9.8,51.8 23.2,104.31 37.9,163.11 l 62.3,238.03 h 62.3 l -133.7,-471.85 h -63.8 l -59.5,245.02 c -14.7,60.91 -24.5,107.12 -30.8,154.72 h -1.4 c -7.7,-47.6 -18.9,-93.11 -36.4,-154.01 l -67.2,-245.73 h -63.7"
         style="fill:#bf2519;fill-opacity:1;fill-rule:nonzero;stroke:none"
         transform="matrix(0.13333333,0,0,-0.13333333,0,1440.6667)" />
      <path
         id="path31"
         d="m 42597.2,9219.43 v -471.85 h -61.6 v 471.85 h 61.6"
         style="fill:#bf2519;fill-opacity:1;fill-rule:nonzero;stroke:none"
         transform="matrix(0.13333333,0,0,-0.13333333,0,1440.6667)" />
      <path
         id="path32"
         d="m 42703.6,8747.58 v 471.85 h 67.2 l 150.5,-238.73 c 34.3,-55.3 62.3,-104.31 84,-153.31 l 2.1,0.7 c -5.6,63 -7,120.41 -7,193.22 v 198.12 h 57.4 v -471.85 h -61.6 L 42846.4,8987 c -32.9,52.51 -64.4,106.41 -87.5,157.52 l -2.1,-0.7 c 3.5,-59.51 4.2,-116.21 4.2,-194.62 v -201.62 h -57.4"
         style="fill:#bf2519;fill-opacity:1;fill-rule:nonzero;stroke:none"
         transform="matrix(0.13333333,0,0,-0.13333333,0,1440.6667)" />
      <path
         id="path33"
         d="m 43524,8768.58 c -27.3,-10.5 -81.9,-25.9 -145.6,-25.9 -71.4,0 -130.2,18.2 -176.4,62.31 -40.6,39.2 -65.8,102.21 -65.8,175.71 0,140.72 97.3,243.63 255.5,243.63 54.6,0 98,-11.9 118.3,-21.7 l -15.4,-49.71 c -25.2,11.9 -56.7,20.3 -104.3,20.3 -114.8,0 -189.7,-71.4 -189.7,-189.72 0,-119.71 71.4,-190.42 182,-190.42 39.9,0 67.2,5.6 81.2,12.6 v 140.72 h -95.2 v 49.01 h 155.4 v -226.83"
         style="fill:#bf2519;fill-opacity:1;fill-rule:nonzero;stroke:none"
         transform="matrix(0.13333333,0,0,-0.13333333,0,1440.6667)" />
      <path
         id="path34"
         d="m 43825.7,9219.43 v -471.85 h -61.6 v 471.85 h 61.6"
         style="fill:#bf2519;fill-opacity:1;fill-rule:nonzero;stroke:none"
         transform="matrix(0.13333333,0,0,-0.13333333,0,1440.6667)" />
      <path
         id="path35"
         d="m 43924.4,8821.79 c 27.3,-17.51 66.5,-30.81 108.5,-30.81 62.3,0 98.7,32.2 98.7,80.51 0,43.41 -25.2,69.31 -88.9,93.11 -77,28 -124.6,68.61 -124.6,134.41 0,73.51 60.9,128.12 152.6,128.12 47.6,0 83.3,-11.2 103.6,-23.11 l -16.8,-49.7 c -14.7,9.1 -46.2,22.4 -88.9,22.4 -64.4,0 -88.9,-38.5 -88.9,-70.7 0,-44.11 28.7,-65.81 93.8,-91.02 79.8,-31.5 119.7,-69.3 119.7,-138.61 0,-72.81 -53.2,-136.51 -164.5,-136.51 -45.5,0 -95.2,14 -120.4,30.8 l 16.1,51.11"
         style="fill:#bf2519;fill-opacity:1;fill-rule:nonzero;stroke:none"
         transform="matrix(0.13333333,0,0,-0.13333333,0,1440.6667)" />
      <path
         id="path36"
         d="m 44417.9,8821.79 c 27.3,-17.51 66.5,-30.81 108.5,-30.81 62.3,0 98.7,32.2 98.7,80.51 0,43.41 -25.2,69.31 -88.9,93.11 -77,28 -124.6,68.61 -124.6,134.41 0,73.51 60.9,128.12 152.6,128.12 47.6,0 83.3,-11.2 103.6,-23.11 l -16.8,-49.7 c -14.7,9.1 -46.2,22.4 -88.9,22.4 -64.4,0 -88.9,-38.5 -88.9,-70.7 0,-44.11 28.7,-65.81 93.8,-91.02 79.8,-31.5 119.7,-69.3 119.7,-138.61 0,-72.81 -53.2,-136.51 -164.5,-136.51 -45.5,0 -95.2,14 -120.4,30.8 l 16.1,51.11"
         style="fill:#bf2519;fill-opacity:1;fill-rule:nonzero;stroke:none"
         transform="matrix(0.13333333,0,0,-0.13333333,0,1440.6667)" />
      <path
         id="path37"
         d="m 45099.7,8762.28 c -21.7,-11.2 -67.2,-22.4 -124.6,-22.4 -133,0 -232.4,84.01 -232.4,239.42 0,148.42 100.1,247.83 246.4,247.83 58.1,0 95.9,-12.6 112,-21 l -15.4,-49.71 c -22.4,11.2 -55.3,19.61 -94.5,19.61 -110.6,0 -184.1,-70.71 -184.1,-194.63 0,-116.21 66.5,-189.72 180.6,-189.72 37.8,0 75.6,7.7 100.1,19.6 l 11.9,-49"
         style="fill:#bf2519;fill-opacity:1;fill-rule:nonzero;stroke:none"
         transform="matrix(0.13333333,0,0,-0.13333333,0,1440.6667)" />
      <path
         id="path38"
         d="m 45410.4,8943.6 -46.9,135.81 c -9.8,30.8 -16.8,58.81 -23.8,86.11 h -2.1 c -6.3,-27.3 -14,-56.7 -23.1,-85.41 l -46.2,-136.51 z m -154.7,-47.6 -49,-148.42 h -63 l 160.3,471.85 h 73.5 l 161,-471.85 h -65.1 L 45423,8896 h -167.3"
         style="fill:#bf2519;fill-opacity:1;fill-rule:nonzero;stroke:none"
         transform="matrix(0.13333333,0,0,-0.13333333,0,1440.6667)" />
      <path
         id="path39"
         d="m 45607.1,9219.43 h 61.6 v -420.75 h 201.6 v -51.1 h -263.2 v 471.85"
         style="fill:#bf2519;fill-opacity:1;fill-rule:nonzero;stroke:none"
         transform="matrix(0.13333333,0,0,-0.13333333,0,1440.6667)" />
      <path
         id="path40"
         d="m 46181.8,8968.8 h -182.7 v -170.12 h 204.4 v -51.1 h -266 v 471.85 h 255.5 v -51.11 h -193.9 v -149.11 h 182.7 v -50.41"
         style="fill:#bf2519;fill-opacity:1;fill-rule:nonzero;stroke:none"
         transform="matrix(0.13333333,0,0,-0.13333333,0,1440.6667)" />
      <path
         id="path41"
         d="m 46343.5,8795.19 c 15.4,-2.81 37.8,-2.81 61.6,-2.81 130.2,-0.7 200.9,72.81 200.9,200.22 0.7,112.72 -62.3,182.02 -191.1,182.02 -31.5,0 -55.3,-2.8 -71.4,-6.3 z m -61.6,417.93 c 37.8,5.61 81.9,9.81 130.2,9.81 87.5,0 149.8,-19.6 191.1,-58.11 42.7,-38.5 67.2,-93.81 67.2,-170.12 0,-77 -24.5,-140.01 -67.9,-183.42 -44.8,-44.1 -117.6,-67.9 -209.3,-67.9 -44.1,0 -79.8,1.4 -111.3,5.6 v 464.14"
         style="fill:#bf2519;fill-opacity:1;fill-rule:nonzero;stroke:none"
         transform="matrix(0.13333333,0,0,-0.13333333,0,1440.6667)" />
      <path
         id="path42"
         d="m 46958.2,9167.62 h -143.5 v 51.81 h 349.4 v -51.81 h -144.3 v -420.04 h -61.6 v 420.04"
         style="fill:#bf2519;fill-opacity:1;fill-rule:nonzero;stroke:none"
         transform="matrix(0.13333333,0,0,-0.13333333,0,1440.6667)" />
      <path
         id="path43"
         d="m 47384.6,8789.58 c 96.7,0 151.3,88.91 151.3,196.03 0,93.8 -49,191.81 -150.6,191.81 -101.5,0 -151.9,-94.5 -151.9,-196.72 0,-99.41 54.6,-191.12 150.5,-191.12 z m -2.8,-49.7 c -125.3,0 -212.1,96.61 -212.1,239.42 0,149.82 92.4,247.83 218.4,247.83 129.6,0 212.9,-98.71 212.9,-238.73 0,-161.72 -98.7,-248.52 -218.5,-248.52 h -0.7"
         style="fill:#bf2519;fill-opacity:1;fill-rule:nonzero;stroke:none"
         transform="matrix(0.13333333,0,0,-0.13333333,0,1440.6667)" />
      <path
         id="path44"
         d="m 48078.3,9150.82 h -173.6 l -17.5,-115.51 c 10.5,1.4 20.3,2.8 37.1,2.8 35.7,0 70,-7.7 98,-24.51 35.7,-19.6 65.1,-59.5 65.1,-118.31 0,-88.9 -70.7,-155.41 -169.4,-155.41 -49.7,0 -91,14 -113.4,28 l 15.4,46.91 c 18.9,-11.21 56,-25.21 98,-25.21 57.4,0 107.8,37.81 107.1,99.41 0,60.21 -39.9,101.51 -130.2,101.51 -26.6,0 -46.9,-2.1 -63.7,-4.89 l 29.4,217.02 h 217.7 v -51.81"
         style="fill:#bf2519;fill-opacity:1;fill-rule:nonzero;stroke:none"
         transform="matrix(0.13333333,0,0,-0.13333333,0,1440.6667)" />
      <path
         id="path45"
         d="m 48313.5,8787.48 c 62.3,0 92.4,73.51 92.4,189.72 0,112.01 -28,185.52 -92.4,185.52 -56,0 -92.4,-71.41 -92.4,-185.52 -1.4,-118.31 35,-189.72 91.7,-189.72 z m -2.8,-47.6 c -88.9,0 -149.8,83.3 -151.2,233.82 0,153.32 66.5,236.63 158.9,236.63 95.2,0 150.5,-85.41 150.5,-230.33 0,-154.71 -58.1,-240.12 -157.5,-240.12 h -0.7"
         style="fill:#bf2519;fill-opacity:1;fill-rule:nonzero;stroke:none"
         transform="matrix(0.13333333,0,0,-0.13333333,0,1440.6667)" />
      <path
         id="path46"
         d="m 48919,8984.9 c -37.8,0 -58.8,-45.5 -58.8,-102.91 -1.4,-57.41 21,-102.21 59.5,-102.21 40.6,0 58.8,43.4 58.8,103.61 0,55.31 -16.1,101.51 -58.8,101.51 z m 2.8,37.11 c 63,0 104.3,-49.01 104.3,-135.82 0,-95.91 -49.7,-143.51 -108.5,-143.51 -57.4,0 -105.7,46.2 -106.4,137.21 0,91.01 49,142.12 109.9,142.12 z m -305.9,-282.83 268.1,471.85 h 39.2 l -268.1,-471.85 z m 6.3,434.04 c -37.8,0 -58.8,-45.5 -58.8,-102.91 -1.4,-57.4 21,-102.21 59.5,-102.21 40.6,0 58.8,43.4 58.8,103.61 0,55.31 -16.1,101.51 -58.8,101.51 z m 2.8,37.11 c 63,0 104.3,-49.01 104.3,-135.82 0,-95.91 -49.7,-143.51 -108.5,-143.51 -57.4,0 -105.7,46.2 -106.4,137.21 0,91.01 49,142.12 109.9,142.12 h 0.7"
         style="fill:#bf2519;fill-opacity:1;fill-rule:nonzero;stroke:none"
         transform="matrix(0.13333333,0,0,-0.13333333,0,1440.6667)" />
      <path
         id="path47"
         d="m 49436.3,8789.58 c 96.6,0 151.2,88.91 151.2,196.03 0,93.8 -49,191.81 -150.5,191.81 -101.5,0 -151.9,-94.5 -151.9,-196.72 0,-99.41 54.6,-191.12 150.5,-191.12 z m -2.8,-49.7 c -125.3,0 -212.1,96.61 -212.1,239.42 0,149.82 92.4,247.83 218.4,247.83 129.5,0 212.8,-98.71 212.8,-238.73 0,-161.72 -98.7,-248.52 -218.4,-248.52 h -0.7"
         style="fill:#bf2519;fill-opacity:1;fill-rule:nonzero;stroke:none"
         transform="matrix(0.13333333,0,0,-0.13333333,0,1440.6667)" />
      <path
         id="path48"
         d="m 49731,9219.43 h 254.1 v -51.11 h -192.5 V 9011.5 h 177.8 v -50.4 h -177.8 v -213.52 h -61.6 v 471.85"
         style="fill:#bf2519;fill-opacity:1;fill-rule:nonzero;stroke:none"
         transform="matrix(0.13333333,0,0,-0.13333333,0,1440.6667)" />
      <path
         id="path49"
         d="m 50282,9167.62 h -143.5 v 51.81 h 349.4 v -51.81 h -144.3 v -420.04 h -61.6 v 420.04"
         style="fill:#bf2519;fill-opacity:1;fill-rule:nonzero;stroke:none"
         transform="matrix(0.13333333,0,0,-0.13333333,0,1440.6667)" />
      <path
         id="path50"
         d="m 50601.2,9219.43 v -197.42 h 228.2 v 197.42 h 61.7 v -471.85 h -61.7 v 221.22 h -228.2 v -221.22 h -61.6 v 471.85 h 61.6"
         style="fill:#bf2519;fill-opacity:1;fill-rule:nonzero;stroke:none"
         transform="matrix(0.13333333,0,0,-0.13333333,0,1440.6667)" />
      <path
         id="path51"
         d="m 51240.3,8968.8 h -182.7 v -170.12 h 204.4 v -51.1 h -266 v 471.85 h 255.5 v -51.11 h -193.9 v -149.11 h 182.7 v -50.41"
         style="fill:#bf2519;fill-opacity:1;fill-rule:nonzero;stroke:none"
         transform="matrix(0.13333333,0,0,-0.13333333,0,1440.6667)" />
      <path
         id="path52"
         d="m 51488.8,9219.43 h 254.1 v -51.11 h -192.5 V 9011.5 h 177.8 v -50.4 h -177.8 v -213.52 h -61.6 v 471.85"
         style="fill:#bf2519;fill-opacity:1;fill-rule:nonzero;stroke:none"
         transform="matrix(0.13333333,0,0,-0.13333333,0,1440.6667)" />
      <path
         id="path53"
         d="M 51891.3,9219.43 V 8939.4 c 0,-105.02 46.9,-149.82 109.9,-149.82 69.3,0 114.8,46.21 114.8,149.82 v 280.03 h 61.6 V 8943.6 c 0,-144.92 -76.3,-203.72 -178.5,-203.72 -96.6,0 -169.4,54.6 -169.4,201.62 v 277.93 h 61.6"
         style="fill:#bf2519;fill-opacity:1;fill-rule:nonzero;stroke:none"
         transform="matrix(0.13333333,0,0,-0.13333333,0,1440.6667)" />
      <path
         id="path54"
         d="m 52282.6,9219.43 h 61.6 v -420.75 h 201.6 v -51.1 h -263.2 v 471.85"
         style="fill:#bf2519;fill-opacity:1;fill-rule:nonzero;stroke:none"
         transform="matrix(0.13333333,0,0,-0.13333333,0,1440.6667)" />
      <path
         id="path55"
         d="m 52613,9219.43 h 61.6 v -420.75 h 201.6 v -51.1 H 52613 v 471.85"
         style="fill:#bf2519;fill-opacity:1;fill-rule:nonzero;stroke:none"
         transform="matrix(0.13333333,0,0,-0.13333333,0,1440.6667)" />
      <path
         id="path56"
         d="m 53084.8,8821.79 c 27.3,-17.51 66.5,-30.81 108.5,-30.81 62.3,0 98.7,32.2 98.7,80.51 0,43.41 -25.2,69.31 -88.9,93.11 -77,28 -124.6,68.61 -124.6,134.41 0,73.51 60.9,128.12 152.6,128.12 47.6,0 83.3,-11.2 103.6,-23.11 l -16.8,-49.7 c -14.7,9.1 -46.2,22.4 -88.9,22.4 -64.4,0 -88.9,-38.5 -88.9,-70.7 0,-44.11 28.7,-65.81 93.8,-91.02 79.8,-31.5 119.7,-69.3 119.7,-138.61 0,-72.81 -53.2,-136.51 -164.5,-136.51 -45.5,0 -95.2,14 -120.4,30.8 l 16.1,51.11"
         style="fill:#bf2519;fill-opacity:1;fill-rule:nonzero;stroke:none"
         transform="matrix(0.13333333,0,0,-0.13333333,0,1440.6667)" />
      <path
         id="path57"
         d="m 53498.5,9219.43 v -471.85 h -61.6 v 471.85 h 61.6"
         style="fill:#bf2519;fill-opacity:1;fill-rule:nonzero;stroke:none"
         transform="matrix(0.13333333,0,0,-0.13333333,0,1440.6667)" />
      <path
         id="path58"
         d="m 53964.7,8768.58 c -27.3,-10.5 -81.9,-25.9 -145.6,-25.9 -71.4,0 -130.2,18.2 -176.4,62.31 -40.6,39.2 -65.8,102.21 -65.8,175.71 0,140.72 97.3,243.63 255.5,243.63 54.6,0 98,-11.9 118.3,-21.7 l -15.4,-49.71 c -25.2,11.9 -56.7,20.3 -104.3,20.3 -114.8,0 -189.7,-71.4 -189.7,-189.72 0,-119.71 71.4,-190.42 182,-190.42 39.9,0 67.2,5.6 81.2,12.6 v 140.72 h -95.2 v 49.01 h 155.4 v -226.83"
         style="fill:#bf2519;fill-opacity:1;fill-rule:nonzero;stroke:none"
         transform="matrix(0.13333333,0,0,-0.13333333,0,1440.6667)" />
      <path
         id="path59"
         d="m 54057.1,8747.58 v 471.85 h 67.2 l 150.5,-238.73 c 34.3,-55.3 62.3,-104.31 84,-153.31 l 2.1,0.7 c -5.6,63 -7,120.41 -7,193.22 v 198.12 h 57.4 v -471.85 h -61.6 L 54199.9,8987 c -32.9,52.51 -64.4,106.41 -87.5,157.52 l -2.1,-0.7 c 3.5,-59.51 4.2,-116.21 4.2,-194.62 v -201.62 h -57.4"
         style="fill:#bf2519;fill-opacity:1;fill-rule:nonzero;stroke:none"
         transform="matrix(0.13333333,0,0,-0.13333333,0,1440.6667)" />
      <path
         id="path60"
         d="m 54658.3,8821.79 c 27.3,-17.51 66.6,-30.81 108.5,-30.81 62.4,0 98.8,32.2 98.8,80.51 0,43.41 -25.2,69.31 -88.9,93.11 -77.1,28 -124.7,68.61 -124.7,134.41 0,73.51 60.9,128.12 152.7,128.12 47.6,0 83.3,-11.2 103.6,-23.11 l -16.8,-49.7 c -14.7,9.1 -46.2,22.4 -88.9,22.4 -64.4,0 -89,-38.5 -89,-70.7 0,-44.11 28.8,-65.81 93.9,-91.02 79.8,-31.5 119.7,-69.3 119.7,-138.61 0,-72.81 -53.2,-136.51 -164.6,-136.51 -45.5,0 -95.2,14 -120.4,30.8 l 16.1,51.11"
         style="fill:#bf2519;fill-opacity:1;fill-rule:nonzero;stroke:none"
         transform="matrix(0.13333333,0,0,-0.13333333,0,1440.6667)" />
      <path
         id="path61"
         d="m 55072,9219.43 v -471.85 h -61.6 v 471.85 h 61.6"
         style="fill:#bf2519;fill-opacity:1;fill-rule:nonzero;stroke:none"
         transform="matrix(0.13333333,0,0,-0.13333333,0,1440.6667)" />
      <path
         id="path62"
         d="m 55146.2,8783.28 261.9,382.94 v 2.1 h -239.5 v 51.11 h 318.6 v -37.11 l -260.5,-381.54 v -2.1 h 264 v -51.1 h -344.5 v 35.7"
         style="fill:#bf2519;fill-opacity:1;fill-rule:nonzero;stroke:none"
         transform="matrix(0.13333333,0,0,-0.13333333,0,1440.6667)" />
      <path
         id="path63"
         d="m 55809.2,8968.8 h -182.8 v -170.12 h 204.5 v -51.1 h -266.1 v 471.85 h 255.6 v -51.11 h -194 v -149.11 h 182.8 v -50.41"
         style="fill:#bf2519;fill-opacity:1;fill-rule:nonzero;stroke:none"
         transform="matrix(0.13333333,0,0,-0.13333333,0,1440.6667)" />
    </g>
  </g>
</svg>
