<?xml version="1.0" standalone="no"?>
<svg width="1728px" height="864px" viewBox="0 -72 1728 864 " xmlns="http://www.w3.org/2000/svg" xmlns:xlink="http://www.w3.org/1999/xlink">
<title>generated by pstoedit</title>
<!-- generated by pstoedit version:4.02 -->
<g xml:space='preserve'>
<clipPath id="clippath1"> 	<path d="
	M 0 -72.5 
	L 0 792 
	L 1728.5 792 
	L 1728.5 -72.5 
	Z 
	" style="clip-rule:nonzero"/>
</clipPath>
<g style="clip-path:url(#clippath1)"> 
<g fill="#95e8ff" fill-rule="nonzero" stroke-width="0" stroke-linejoin="miter" stroke-linecap="butt" stroke-miterlimit="10" >
	<path d="
	M 1728.25 683.75 
	C 1728.25 743.395 1679.9 791.75 1620.25 791.75 
	L 108.25 791.75 
	C 48.6016 791.75 0.25 743.395 0.25 683.75 
	L 0.25 35.75 
	C 0.25 -23.898 48.6016 -72.25 108.25 -72.25 
	L 1620.25 -72.25 
	C 1679.9 -72.25 1728.25 -23.898 1728.25 35.75 
	Z 
	"/>
</g>
<g stroke="#7f7f7f" fill="none" stroke-width="0.5" stroke-linejoin="miter" stroke-linecap="butt" stroke-miterlimit="4" >
	<path d="
	M 1728.25 683.75 
	C 1728.25 743.395 1679.9 791.75 1620.25 791.75 
	L 108.25 791.75 
	C 48.6016 791.75 0.25 743.395 0.25 683.75 
	L 0.25 35.75 
	C 0.25 -23.898 48.6016 -72.25 108.25 -72.25 
	L 1620.25 -72.25 
	C 1679.9 -72.25 1728.25 -23.898 1728.25 35.75 
	Z 
	"/>
</g>
<g fill="#7f7f7f" fill-rule="nonzero" stroke-width="0" stroke-linejoin="miter" stroke-linecap="butt" stroke-miterlimit="4" >
	<path d="
	M 108.25 764.75 
	C 63.5859 764.75 27.25 728.414 27.25 683.75 
	L 27.25 35.75 
	C 27.25 -8.914 63.5859 -45.25 108.25 -45.25 
	L 1620.25 -45.25 
	C 1664.91 -45.25 1701.25 -8.914 1701.25 35.75 
	L 1701.25 683.75 
	C 1701.25 728.414 1664.91 764.75 1620.25 764.75 
	Z 
	"/>
</g>
<g fill="#95e8ff" fill-rule="nonzero" stroke-width="0" stroke-linejoin="miter" stroke-linecap="butt" stroke-miterlimit="4" >
	<path d="
	M 108.25 719.75 
	C 88.3984 719.75 72.25 703.602 72.25 683.75 
	L 72.25 35.75 
	C 72.25 15.898 88.3984 -0.25 108.25 -0.25 
	L 1620.25 -0.25 
	C 1640.1 -0.25 1656.25 15.898 1656.25 35.75 
	L 1656.25 683.75 
	C 1656.25 703.602 1640.1 719.75 1620.25 719.75 
	Z 
	"/>
</g>
<g fill="#7f7f7f" fill-rule="nonzero" stroke-width="0" stroke-linejoin="miter" stroke-linecap="butt" stroke-miterlimit="4" >
	<path d="
	M 384.484 503.75 
	L 274.328 308.719 
	L 274.328 503.75 
	L 228.852 503.75 
	L 228.852 215.75 
	L 274.328 215.75 
	L 379.43 399.664 
	L 379.43 215.75 
	L 424.906 215.75 
	L 424.906 503.75 
	Z 
	"/>
</g>
<g fill="#7f7f7f" fill-rule="nonzero" stroke-width="0" stroke-linejoin="miter" stroke-linecap="butt" stroke-miterlimit="4" >
	<path d="
	M 630.09 279.77 
	C 620.973 264.609 609.828 258.547 592.605 257.535 
	C 570.32 256.523 556.141 267.641 546.012 292.902 
	C 538.918 310.086 534.867 336.355 534.867 360.609 
	C 534.867 390.926 540.941 422.254 552.086 440.441 
	C 561.203 455.602 573.359 462.676 591.594 462.676 
	C 612.867 462.676 626.035 451.559 636.168 426.297 
	C 642.242 411.137 647.309 382.844 647.309 360.609 
	C 647.309 328.273 641.23 298.969 630.09 279.77 
	Z 
	M 661.488 476.82 
	C 645.281 499.055 621.98 509.156 591.594 509.156 
	C 551.074 509.156 525.746 492.988 508.527 457.621 
	C 496.371 433.367 488.27 394.969 488.27 360.609 
	C 488.27 313.113 500.426 270.676 519.672 243.391 
	C 536.895 221.156 560.191 211.051 593.617 211.051 
	C 630.09 211.051 655.41 227.223 673.645 262.59 
	C 685.801 287.852 692.895 324.23 692.895 360.609 
	C 692.895 406.086 681.75 451.559 661.488 476.82 
	Z 
	"/>
</g>
<g fill="#7f7f7f" fill-rule="nonzero" stroke-width="0" stroke-linejoin="miter" stroke-linecap="butt" stroke-miterlimit="4" >
	<path d="
	M 952.16 503.75 
	L 952.16 215.75 
	L 998.238 215.75 
	L 998.238 503.75 
	Z 
	"/>
</g>
<g fill="#7f7f7f" fill-rule="nonzero" stroke-width="0" stroke-linejoin="miter" stroke-linecap="butt" stroke-miterlimit="4" >
	<path d="
	M 841.973 256.172 
	L 841.973 503.75 
	L 796.305 503.75 
	L 796.305 256.172 
	L 730.328 256.172 
	L 730.328 215.75 
	L 908.961 215.75 
	L 908.961 256.172 
	Z 
	"/>
</g>
<g fill="#7f7f7f" fill-rule="nonzero" stroke-width="0" stroke-linejoin="miter" stroke-linecap="butt" stroke-miterlimit="4" >
	<path d="
	M 1321.02 503.75 
	L 1321.02 215.75 
	L 1490.56 215.75 
	L 1490.56 261.223 
	L 1366.43 261.223 
	L 1366.43 331.961 
	L 1450.2 331.961 
	L 1450.2 378.445 
	L 1366.43 378.445 
	L 1366.43 457.266 
	L 1499.65 457.266 
	L 1499.65 503.75 
	Z 
	"/>
</g>
<g fill="#7f7f7f" fill-rule="nonzero" stroke-width="0" stroke-linejoin="miter" stroke-linecap="butt" stroke-miterlimit="4" >
	<path d="
	M 1170.74 508.805 
	C 1128.3 508.805 1101.01 492.637 1082.82 457.266 
	C 1069.69 432.004 1061.6 395.621 1061.6 359.246 
	C 1061.6 313.77 1073.73 268.297 1093.94 243.035 
	C 1111.12 221.812 1135.38 210.699 1167.71 210.699 
	C 1211.17 210.699 1238.46 228.887 1257.66 269.309 
	L 1215.21 287.496 
	C 1199.04 263.246 1189.95 257.184 1167.71 257.184 
	C 1144.47 257.184 1129.31 267.285 1119.21 292.551 
	C 1112.13 309.73 1108.09 334.992 1108.09 359.246 
	C 1108.09 390.57 1115.16 421.898 1126.28 440.09 
	C 1136.38 455.242 1149.52 462.32 1169.73 462.32 
	C 1188.94 462.32 1203.08 452.215 1214.2 428.973 
	L 1257.66 445.141 
	C 1240.48 487.582 1212.18 508.805 1170.74 508.805 
	Z 
	"/>
</g>
</g >
</g>
</svg>
