<?xml version="1.0" standalone="no"?>
<svg width="1728px" height="1296px" viewBox="0 -504 1728 1296 " xmlns="http://www.w3.org/2000/svg" xmlns:xlink="http://www.w3.org/1999/xlink">
<title>generated by pstoedit</title>
<!-- generated by pstoedit version:4.02 -->
<g xml:space='preserve'>
<clipPath id="clippath1"> 	<path d="
	M 0 -504.5 
	L 0 792 
	L 1728.5 792 
	L 1728.5 -504.5 
	Z 
	" style="clip-rule:nonzero"/>
</clipPath>
<g style="clip-path:url(#clippath1)"> 
<g fill="#95e8ff" fill-rule="nonzero" stroke-width="0" stroke-linejoin="miter" stroke-linecap="butt" stroke-miterlimit="10" >
	<path d="
	M 1728.25 683.75 
	C 1728.25 743.398 1679.9 791.75 1620.25 791.75 
	L 108.25 791.75 
	C 48.6016 791.75 0.25 743.398 0.25 683.75 
	L 0.25 -396.25 
	C 0.25 -455.9 48.6016 -504.25 108.25 -504.25 
	L 1620.25 -504.25 
	C 1679.9 -504.25 1728.25 -455.9 1728.25 -396.25 
	Z 
	"/>
</g>
<g stroke="#7f7f7f" fill="none" stroke-width="0.5" stroke-linejoin="miter" stroke-linecap="butt" stroke-miterlimit="4" >
	<path d="
	M 1728.25 683.75 
	C 1728.25 743.398 1679.9 791.75 1620.25 791.75 
	L 108.25 791.75 
	C 48.6016 791.75 0.25 743.398 0.25 683.75 
	L 0.25 -396.25 
	C 0.25 -455.9 48.6016 -504.25 108.25 -504.25 
	L 1620.25 -504.25 
	C 1679.9 -504.25 1728.25 -455.9 1728.25 -396.25 
	Z 
	"/>
</g>
<g fill="#7f7f7f" fill-rule="nonzero" stroke-width="0" stroke-linejoin="miter" stroke-linecap="butt" stroke-miterlimit="4" >
	<path d="
	M 108.25 764.75 
	C 63.5859 764.75 27.25 728.41 27.25 683.75 
	L 27.25 -396.25 
	C 27.25 -440.91 63.5859 -477.25 108.25 -477.25 
	L 1620.25 -477.25 
	C 1664.91 -477.25 1701.25 -440.91 1701.25 -396.25 
	L 1701.25 683.75 
	C 1701.25 728.41 1664.91 764.75 1620.25 764.75 
	Z 
	"/>
</g>
<g fill="#95e8ff" fill-rule="nonzero" stroke-width="0" stroke-linejoin="miter" stroke-linecap="butt" stroke-miterlimit="4" >
	<path d="
	M 108.25 719.75 
	C 88.3984 719.75 72.25 703.602 72.25 683.75 
	L 72.25 -396.25 
	C 72.25 -416.1 88.3984 -432.25 108.25 -432.25 
	L 1620.25 -432.25 
	C 1640.1 -432.25 1656.25 -416.1 1656.25 -396.25 
	L 1656.25 683.75 
	C 1656.25 703.602 1640.1 719.75 1620.25 719.75 
	Z 
	"/>
</g>
<g fill="#7f7f7f" fill-rule="nonzero" stroke-width="0" stroke-linejoin="miter" stroke-linecap="butt" stroke-miterlimit="4" >
	<path d="
	M 1284.62 -252.25 
	L 1330.7 -252.25 
	L 1330.7 35.75 
	L 1284.62 35.75 
	Z 
	"/>
</g>
<g fill="#7f7f7f" fill-rule="nonzero" stroke-width="0" stroke-linejoin="miter" stroke-linecap="butt" stroke-miterlimit="4" >
	<path d="
	M 262.699 -211.83 
	L 262.699 35.75 
	L 217.031 35.75 
	L 217.031 -211.83 
	L 151.055 -211.83 
	L 151.055 -252.25 
	L 329.688 -252.25 
	L 329.688 -211.83 
	Z 
	"/>
</g>
<g fill="#7f7f7f" fill-rule="nonzero" stroke-width="0" stroke-linejoin="miter" stroke-linecap="butt" stroke-miterlimit="4" >
	<path d="
	M 490.57 -201.723 
	C 483.496 -205.766 479.453 -206.777 464.297 -206.777 
	L 409.723 -206.777 
	L 409.723 -136.039 
	L 464.297 -136.039 
	C 478.445 -136.039 483.496 -137.051 490.57 -141.09 
	C 501.688 -147.156 508.762 -159.281 508.762 -171.406 
	C 508.762 -183.535 501.688 -195.66 490.57 -201.723 
	M 510.781 35.75 
	L 464.297 -89.555 
	L 409.723 -89.555 
	L 409.723 35.75 
	L 364.246 35.75 
	L 364.246 -252.25 
	L 459.242 -252.25 
	C 481.477 -252.25 496.633 -250.23 510.781 -243.16 
	C 536.047 -231.03 554.238 -200.715 554.238 -171.406 
	C 554.238 -141.09 536.047 -110.777 509.773 -98.648 
	L 560.305 35.75 
	Z 
	"/>
</g>
<g fill="#7f7f7f" fill-rule="nonzero" stroke-width="0" stroke-linejoin="miter" stroke-linecap="butt" stroke-miterlimit="4" >
	<path d="
	M 701.715 -172.418 
	L 672.242 -91.574 
	L 730.176 -91.574 
	Z 
	M 774.895 35.75 
	L 746.438 -45.09 
	L 655.98 -45.09 
	L 627.523 35.75 
	L 578.734 35.75 
	L 678.34 -252.25 
	L 724.074 -252.25 
	L 823.68 35.75 
	Z 
	"/>
</g>
<g fill="#7f7f7f" fill-rule="nonzero" stroke-width="0" stroke-linejoin="miter" stroke-linecap="butt" stroke-miterlimit="4" >
	<path d="
	M 1490.53 40.805 
	C 1448.09 40.805 1420.8 24.637 1402.61 -10.734 
	C 1389.47 -35.996 1381.39 -72.375 1381.39 -108.754 
	C 1381.39 -154.227 1393.52 -199.703 1413.73 -224.96 
	C 1430.91 -246.19 1455.16 -257.3 1487.5 -257.3 
	C 1530.96 -257.3 1558.24 -239.11 1577.44 -198.691 
	L 1535 -180.504 
	C 1518.83 -204.754 1509.74 -210.82 1487.5 -210.82 
	C 1464.26 -210.82 1449.1 -200.715 1438.99 -175.449 
	C 1431.92 -158.27 1427.88 -133.008 1427.88 -108.754 
	C 1427.88 -77.43 1434.95 -46.102 1446.07 -27.91 
	C 1456.17 -12.754 1469.31 -5.67999 1489.52 -5.67999 
	C 1508.72 -5.67999 1522.87 -15.785 1533.99 -39.027 
	L 1577.44 -22.859 
	C 1560.26 19.582 1531.97 40.805 1490.53 40.805 
	"/>
</g>
<g fill="#7f7f7f" fill-rule="nonzero" stroke-width="0" stroke-linejoin="miter" stroke-linecap="butt" stroke-miterlimit="4" >
	<path d="
	M 903.652 -206.777 
	L 903.652 -136.039 
	L 987.418 -136.039 
	L 987.418 -89.555 
	L 903.652 -89.555 
	L 903.652 35.75 
	L 858.238 35.75 
	L 858.238 -252.25 
	L 1036.87 -252.25 
	L 1036.87 -206.777 
	Z 
	"/>
</g>
<g fill="#7f7f7f" fill-rule="nonzero" stroke-width="0" stroke-linejoin="miter" stroke-linecap="butt" stroke-miterlimit="4" >
	<path d="
	M 1116.85 -206.777 
	L 1116.85 -136.039 
	L 1200.61 -136.039 
	L 1200.61 -89.555 
	L 1116.85 -89.555 
	L 1116.85 35.75 
	L 1071.43 35.75 
	L 1071.43 -252.25 
	L 1250.06 -252.25 
	L 1250.06 -206.777 
	Z 
	"/>
</g>
<g fill="#7f7f7f" fill-rule="nonzero" stroke-width="0" stroke-linejoin="miter" stroke-linecap="butt" stroke-miterlimit="4" >
	<path d="
	M 486.789 251.75 
	L 532.871 251.75 
	L 532.871 539.75 
	L 486.789 539.75 
	Z 
	"/>
</g>
<g fill="#7f7f7f" fill-rule="nonzero" stroke-width="0" stroke-linejoin="miter" stroke-linecap="butt" stroke-miterlimit="4" >
	<path d="
	M 1100.66 539.75 
	L 1100.66 251.746 
	L 1146.08 251.746 
	L 1146.08 497.309 
	L 1279.3 497.309 
	L 1279.3 539.75 
	Z 
	"/>
</g>
<g fill="#7f7f7f" fill-rule="nonzero" stroke-width="0" stroke-linejoin="miter" stroke-linecap="butt" stroke-miterlimit="4" >
	<path d="
	M 728.313 302.277 
	C 721.238 298.234 717.195 297.223 702.039 297.223 
	L 647.465 297.223 
	L 647.465 367.961 
	L 702.039 367.961 
	C 716.188 367.961 721.238 366.949 728.313 362.91 
	C 739.43 356.844 746.504 344.719 746.504 332.594 
	C 746.504 320.465 739.43 308.34 728.313 302.277 
	M 748.523 539.75 
	L 702.039 414.441 
	L 647.465 414.441 
	L 647.465 539.75 
	L 601.988 539.75 
	L 601.988 251.75 
	L 696.984 251.75 
	C 719.219 251.75 734.379 253.77 748.523 260.844 
	C 773.793 272.973 791.98 303.285 791.98 332.594 
	C 791.98 362.91 773.793 393.223 747.516 405.352 
	L 798.047 539.75 
	Z 
	"/>
</g>
<g fill="#7f7f7f" fill-rule="nonzero" stroke-width="0" stroke-linejoin="miter" stroke-linecap="butt" stroke-miterlimit="4" >
	<path d="
	M 1322.49 539.75 
	L 1322.49 251.75 
	L 1492.04 251.75 
	L 1492.04 297.223 
	L 1367.91 297.223 
	L 1367.91 367.961 
	L 1451.67 367.961 
	L 1451.67 414.445 
	L 1367.91 414.445 
	L 1367.91 493.266 
	L 1501.13 493.266 
	L 1501.13 539.75 
	Z 
	"/>
</g>
<g fill="#7f7f7f" fill-rule="nonzero" stroke-width="0" stroke-linejoin="miter" stroke-linecap="butt" stroke-miterlimit="4" >
	<path d="
	M 950.391 544.801 
	C 907.941 544.801 880.656 528.629 862.469 493.266 
	C 849.332 468.004 841.246 431.621 841.246 395.242 
	C 841.246 349.77 853.371 304.297 873.586 279.031 
	C 890.766 257.812 915.02 246.695 947.355 246.695 
	C 990.813 246.695 1018.1 264.887 1037.3 305.309 
	L 994.855 323.496 
	C 978.688 299.242 969.59 293.18 947.355 293.18 
	C 924.113 293.18 908.953 303.285 898.852 328.551 
	C 891.773 345.73 887.73 370.992 887.73 395.242 
	C 887.73 426.57 894.809 457.898 905.926 476.086 
	C 916.027 491.242 929.168 498.32 949.379 498.32 
	C 968.578 498.32 982.73 488.215 993.848 464.973 
	L 1037.3 481.141 
	C 1020.12 523.578 991.824 544.801 950.391 544.801 
	"/>
</g>
<g fill="#7f7f7f" fill-rule="nonzero" stroke-width="0" stroke-linejoin="miter" stroke-linecap="butt" stroke-miterlimit="4" >
	<path d="
	M 336.52 544.801 
	C 294.074 544.801 266.789 528.629 248.598 493.266 
	C 235.461 468.004 227.375 431.621 227.375 395.242 
	C 227.375 349.77 239.5 304.297 259.715 279.031 
	C 276.895 257.812 301.148 246.695 333.488 246.695 
	C 376.941 246.695 404.23 264.887 423.43 305.309 
	L 380.984 323.496 
	C 364.816 299.242 355.719 293.18 333.488 293.18 
	C 310.242 293.18 295.086 303.285 284.98 328.551 
	C 277.906 345.73 273.863 370.992 273.863 395.242 
	C 273.863 426.57 280.938 457.898 292.055 476.086 
	C 302.16 491.242 315.297 498.32 335.508 498.32 
	C 354.711 498.32 368.859 488.215 379.977 464.973 
	L 423.43 481.141 
	C 406.25 523.578 377.953 544.801 336.52 544.801 
	"/>
</g>
</g >
</g>
</svg>
