<?xml version="1.0" standalone="no"?>
<svg width="2592px" height="1728px" viewBox="0 -936 2592 1728 " xmlns="http://www.w3.org/2000/svg" xmlns:xlink="http://www.w3.org/1999/xlink">
<title>generated by pstoedit</title>
<!-- generated by pstoedit version:4.02 -->
<g xml:space='preserve'>
<clipPath id="clippath1"> 	<path d="
	M 0 -936.5 
	L 0 792 
	L 2592.5 792 
	L 2592.5 -936.5 
	Z 
	" style="clip-rule:nonzero"/>
</clipPath>
<g style="clip-path:url(#clippath1)"> 
<g fill="#95e8ff" fill-rule="nonzero" stroke-width="0" stroke-linejoin="miter" stroke-linecap="butt" stroke-miterlimit="10" >
	<path d="
	M 2592.25 656.75 
	C 2592.25 731.309 2531.81 791.75 2457.25 791.75 
	L 135.25 791.75 
	C 60.6914 791.75 0.25 731.309 0.25 656.75 
	L 0.25 -801.25 
	C 0.25 -875.81 60.6914 -936.25 135.25 -936.25 
	L 2457.25 -936.25 
	C 2531.81 -936.25 2592.25 -875.81 2592.25 -801.25 
	Z 
	"/>
</g>
<g stroke="#7f7f7f" fill="none" stroke-width="0.5" stroke-linejoin="miter" stroke-linecap="butt" stroke-miterlimit="4" >
	<path d="
	M 2592.25 656.75 
	C 2592.25 731.309 2531.81 791.75 2457.25 791.75 
	L 135.25 791.75 
	C 60.6914 791.75 0.25 731.309 0.25 656.75 
	L 0.25 -801.25 
	C 0.25 -875.81 60.6914 -936.25 135.25 -936.25 
	L 2457.25 -936.25 
	C 2531.81 -936.25 2592.25 -875.81 2592.25 -801.25 
	Z 
	"/>
</g>
<g fill="#7f7f7f" fill-rule="nonzero" stroke-width="0" stroke-linejoin="miter" stroke-linecap="butt" stroke-miterlimit="4" >
	<path d="
	M 2520.25 656.75 
	C 2520.25 691.488 2491.99 719.75 2457.25 719.75 
	L 135.25 719.75 
	C 100.512 719.75 72.25 691.488 72.25 656.75 
	L 72.25 -801.25 
	C 72.25 -835.99 100.512 -864.25 135.25 -864.25 
	L 2457.25 -864.25 
	C 2491.99 -864.25 2520.25 -835.99 2520.25 -801.25 
	Z 
	M 2457.25 -909.25 
	L 135.25 -909.25 
	C 75.6992 -909.25 27.25 -860.8 27.25 -801.25 
	L 27.25 656.75 
	C 27.25 716.301 75.6992 764.75 135.25 764.75 
	L 2457.25 764.75 
	C 2516.8 764.75 2565.25 716.301 2565.25 656.75 
	L 2565.25 -801.25 
	C 2565.25 -860.8 2516.8 -909.25 2457.25 -909.25 
	Z 
	"/>
</g>
<g fill="#7f7f7f" fill-rule="nonzero" stroke-width="0" stroke-linejoin="miter" stroke-linecap="butt" stroke-miterlimit="4" >
	<path d="
	M 1356.02 -440.23 
	C 1346.91 -455.39 1335.77 -461.45 1318.54 -462.46 
	C 1296.26 -463.47 1282.07 -452.36 1271.95 -427.09 
	C 1264.85 -409.91 1260.8 -383.64 1260.8 -359.39 
	C 1260.8 -329.07 1266.88 -297.75 1278.02 -279.56 
	C 1287.14 -264.4 1299.3 -257.32 1317.53 -257.32 
	C 1338.81 -257.32 1351.97 -268.44 1362.1 -293.7 
	C 1368.18 -308.86 1373.25 -337.16 1373.25 -359.39 
	C 1373.25 -391.73 1367.17 -421.03 1356.02 -440.23 
	Z 
	M 1387.43 -243.18 
	C 1371.22 -220.95 1347.92 -210.84 1317.53 -210.84 
	C 1277.01 -210.84 1251.68 -227.01 1234.46 -262.38 
	C 1222.31 -286.63 1214.2 -325.03 1214.2 -359.39 
	C 1214.2 -406.88 1226.36 -449.32 1245.61 -476.61 
	C 1262.83 -498.84 1286.13 -508.95 1319.56 -508.95 
	C 1356.02 -508.95 1381.35 -492.78 1399.58 -457.41 
	C 1411.74 -432.15 1418.83 -395.77 1418.83 -359.39 
	C 1418.83 -313.91 1407.69 -268.44 1387.43 -243.18 
	Z 
	"/>
</g>
<g fill="#7f7f7f" fill-rule="nonzero" stroke-width="0" stroke-linejoin="miter" stroke-linecap="butt" stroke-miterlimit="4" >
	<path d="
	M 1814.16 -440.23 
	C 1805.04 -455.39 1793.9 -461.45 1776.68 -462.46 
	C 1754.39 -463.47 1740.21 -452.36 1730.08 -427.09 
	C 1722.99 -409.91 1718.94 -383.64 1718.94 -359.39 
	C 1718.94 -329.07 1725.01 -297.75 1736.16 -279.56 
	C 1745.28 -264.4 1757.43 -257.32 1775.67 -257.32 
	C 1796.94 -257.32 1810.1 -268.44 1820.24 -293.7 
	C 1826.32 -308.86 1831.38 -337.16 1831.38 -359.39 
	C 1831.38 -391.73 1825.3 -421.03 1814.16 -440.23 
	Z 
	M 1845.56 -243.18 
	C 1829.35 -220.95 1806.05 -210.84 1775.67 -210.84 
	C 1735.14 -210.84 1709.82 -227.01 1692.6 -262.38 
	C 1680.44 -286.63 1672.34 -325.03 1672.34 -359.39 
	C 1672.34 -406.88 1684.5 -449.32 1703.74 -476.61 
	C 1720.96 -498.84 1744.26 -508.95 1777.69 -508.95 
	C 1814.16 -508.95 1839.48 -492.78 1857.72 -457.41 
	C 1869.87 -432.15 1876.96 -395.77 1876.96 -359.39 
	C 1876.96 -313.91 1865.82 -268.44 1845.56 -243.18 
	Z 
	"/>
</g>
<g fill="#7f7f7f" fill-rule="nonzero" stroke-width="0" stroke-linejoin="miter" stroke-linecap="butt" stroke-miterlimit="4" >
	<path d="
	M 847.922 -453.72 
	C 839.84 -457.77 834.785 -458.78 820.637 -458.78 
	L 761.012 -458.78 
	L 761.012 -388.04 
	L 820.637 -388.04 
	C 834.785 -388.04 839.84 -389.05 847.922 -393.09 
	C 858.027 -398.14 865.105 -411.28 865.105 -423.41 
	C 865.105 -435.54 858.027 -447.66 847.922 -453.72 
	Z 
	M 867.125 -351.66 
	C 853.984 -345.6 836.809 -341.55 814.57 -341.55 
	L 761.012 -341.55 
	L 761.012 -216.25 
	L 715.535 -216.25 
	L 715.535 -504.25 
	L 814.57 -504.25 
	C 837.816 -504.25 852.977 -502.23 867.125 -495.16 
	C 892.391 -483.03 911.59 -452.71 911.59 -423.41 
	C 911.59 -393.09 892.391 -362.77 867.125 -351.66 
	Z 
	"/>
</g>
<g fill="#7f7f7f" fill-rule="nonzero" stroke-width="0" stroke-linejoin="miter" stroke-linecap="butt" stroke-miterlimit="4" >
	<path d="
	M 1567.91 -463.83 
	L 1567.91 -216.25 
	L 1522.24 -216.25 
	L 1522.24 -463.83 
	L 1456.27 -463.83 
	L 1456.27 -504.25 
	L 1634.9 -504.25 
	L 1634.9 -463.83 
	Z 
	"/>
</g>
<g fill="#7f7f7f" fill-rule="nonzero" stroke-width="0" stroke-linejoin="miter" stroke-linecap="butt" stroke-miterlimit="4" >
	<path d="
	M 1105.37 -216.25 
	L 1105.37 -341.55 
	L 1000.27 -341.55 
	L 1000.27 -216.25 
	L 954.789 -216.25 
	L 954.789 -504.25 
	L 1000.27 -504.25 
	L 1000.27 -388.04 
	L 1105.37 -388.04 
	L 1105.37 -504.25 
	L 1150.85 -504.25 
	L 1150.85 -216.25 
	Z 
	"/>
</g>
<g fill="#7f7f7f" fill-rule="nonzero" stroke-width="0" stroke-linejoin="miter" stroke-linecap="butt" stroke-miterlimit="4" >
	<path d="
	M 729.906 359.75 
	L 619.75 164.719 
	L 619.75 359.75 
	L 574.273 359.75 
	L 574.273 71.75 
	L 619.75 71.75 
	L 724.852 255.672 
	L 724.852 71.75 
	L 770.328 71.75 
	L 770.328 359.75 
	Z 
	"/>
</g>
<g fill="#7f7f7f" fill-rule="nonzero" stroke-width="0" stroke-linejoin="miter" stroke-linecap="butt" stroke-miterlimit="4" >
	<path d="
	M 1197.34 135.77 
	C 1188.22 120.609 1177.08 114.551 1159.86 113.539 
	C 1137.57 112.531 1123.39 123.641 1113.26 148.91 
	C 1106.17 166.09 1102.12 192.359 1102.12 216.609 
	C 1102.12 246.93 1108.2 278.262 1119.34 296.441 
	C 1128.46 311.602 1140.61 318.68 1158.85 318.68 
	C 1180.12 318.68 1193.29 307.559 1203.42 282.301 
	C 1209.5 267.141 1214.56 238.84 1214.56 216.609 
	C 1214.56 184.281 1208.48 154.969 1197.34 135.77 
	Z 
	M 1228.74 332.82 
	C 1212.53 355.051 1189.23 365.16 1158.85 365.16 
	C 1118.33 365.16 1093 348.988 1075.78 313.621 
	C 1063.63 289.371 1055.52 250.969 1055.52 216.609 
	C 1055.52 169.121 1067.68 126.68 1086.92 99.391 
	C 1104.14 77.16 1127.44 67.051 1160.87 67.051 
	C 1197.34 67.051 1222.66 83.219 1240.9 118.59 
	C 1253.05 143.852 1260.14 180.23 1260.14 216.609 
	C 1260.14 262.09 1249 307.559 1228.74 332.82 
	Z 
	"/>
</g>
<g fill="#7f7f7f" fill-rule="nonzero" stroke-width="0" stroke-linejoin="miter" stroke-linecap="butt" stroke-miterlimit="4" >
	<path d="
	M 2176.09 129.352 
	C 2169.02 122.281 2158.91 117.219 2146.78 117.219 
	L 2095.24 117.219 
	L 2095.24 313.27 
	L 2140.72 313.27 
	C 2155.88 313.27 2164.97 310.238 2173.06 302.148 
	C 2190.24 284.969 2199.33 253.648 2199.33 215.238 
	C 2199.33 176.852 2190.24 144.512 2176.09 129.352 
	Z 
	M 2195.29 343.59 
	C 2184.18 353.691 2169.02 358.738 2153.86 359.75 
	C 2150.83 359.75 2144.76 359.75 2137.69 359.75 
	L 2049.77 359.75 
	L 2049.77 71.75 
	L 2142.74 71.75 
	C 2172.05 71.75 2183.17 74.781 2198.32 86.91 
	C 2228.64 113.191 2245.82 158.66 2245.82 215.238 
	C 2245.82 272.852 2227.63 318.32 2195.29 343.59 
	Z 
	"/>
</g>
<g fill="#7f7f7f" fill-rule="nonzero" stroke-width="0" stroke-linejoin="miter" stroke-linecap="butt" stroke-miterlimit="4" >
	<path d="
	M 346.676 359.75 
	L 346.676 71.75 
	L 516.227 71.75 
	L 516.227 117.23 
	L 392.09 117.23 
	L 392.09 187.961 
	L 475.859 187.961 
	L 475.859 234.449 
	L 392.09 234.449 
	L 392.09 313.27 
	L 525.309 313.27 
	L 525.309 359.75 
	Z 
	"/>
</g>
<g fill="#7f7f7f" fill-rule="nonzero" stroke-width="0" stroke-linejoin="miter" stroke-linecap="butt" stroke-miterlimit="4" >
	<path d="
	M 1822.17 359.75 
	L 1822.17 71.75 
	L 1991.72 71.75 
	L 1991.72 117.23 
	L 1867.59 117.23 
	L 1867.59 187.961 
	L 1951.36 187.961 
	L 1951.36 234.449 
	L 1867.59 234.449 
	L 1867.59 313.27 
	L 2000.81 313.27 
	L 2000.81 359.75 
	Z 
	"/>
</g>
<g fill="#7f7f7f" fill-rule="nonzero" stroke-width="0" stroke-linejoin="miter" stroke-linecap="butt" stroke-miterlimit="4" >
	<path d="
	M 1671.9 364.809 
	C 1629.46 364.809 1602.17 348.641 1583.98 313.27 
	C 1570.84 288.012 1562.76 251.629 1562.76 215.25 
	C 1562.76 169.77 1574.89 124.301 1595.1 99.039 
	C 1612.28 77.809 1636.53 66.699 1668.87 66.699 
	C 1712.33 66.699 1739.61 84.891 1758.81 125.309 
	L 1716.37 143.5 
	C 1700.2 119.25 1691.11 113.191 1668.87 113.191 
	C 1645.63 113.191 1630.47 123.289 1620.36 148.551 
	C 1613.29 165.73 1609.25 190.988 1609.25 215.25 
	C 1609.25 246.57 1616.32 277.898 1627.44 296.09 
	C 1637.54 311.25 1650.68 318.32 1670.89 318.32 
	C 1690.09 318.32 1704.24 308.219 1715.36 284.969 
	L 1758.81 301.141 
	C 1741.63 343.59 1713.34 364.809 1671.9 364.809 
	Z 
	"/>
</g>
<g fill="#7f7f7f" fill-rule="nonzero" stroke-width="0" stroke-linejoin="miter" stroke-linecap="butt" stroke-miterlimit="4" >
	<path d="
	M 884.863 117.23 
	L 884.863 187.961 
	L 968.629 187.961 
	L 968.629 234.449 
	L 884.863 234.449 
	L 884.863 359.75 
	L 839.449 359.75 
	L 839.449 71.75 
	L 1018.08 71.75 
	L 1018.08 117.23 
	Z 
	"/>
</g>
<g fill="#7f7f7f" fill-rule="nonzero" stroke-width="0" stroke-linejoin="miter" stroke-linecap="butt" stroke-miterlimit="4" >
	<path d="
	M 1449.82 122.281 
	C 1442.75 118.23 1438.71 117.23 1423.55 117.23 
	L 1368.98 117.23 
	L 1368.98 187.961 
	L 1423.55 187.961 
	C 1437.7 187.961 1442.75 186.949 1449.82 182.91 
	C 1460.94 176.852 1468.02 164.719 1468.02 152.59 
	C 1468.02 140.469 1460.94 128.34 1449.82 122.281 
	Z 
	M 1470.04 359.75 
	L 1423.55 234.449 
	L 1368.98 234.449 
	L 1368.98 359.75 
	L 1323.5 359.75 
	L 1323.5 71.75 
	L 1418.5 71.75 
	C 1440.73 71.75 1455.89 73.77 1470.04 80.852 
	C 1495.3 92.969 1513.49 123.289 1513.49 152.59 
	C 1513.49 182.91 1495.3 213.23 1469.03 225.352 
	L 1519.56 359.75 
	Z 
	"/>
</g>
</g >
</g>
</svg>
