<?xml version="1.0" standalone="no"?>
<svg width="1728px" height="1296px" viewBox="0 -504 1728 1296 " xmlns="http://www.w3.org/2000/svg" xmlns:xlink="http://www.w3.org/1999/xlink">
<title>generated by pstoedit</title>
<!-- generated by pstoedit version:4.02 -->
<g xml:space='preserve'>
<clipPath id="clippath1"> 	<path d="
	M 0 -504.5 
	L 0 792 
	L 1728.5 792 
	L 1728.5 -504.5 
	Z 
	" style="clip-rule:nonzero"/>
</clipPath>
<g style="clip-path:url(#clippath1)"> 
<g fill="#95e8ff" fill-rule="nonzero" stroke-width="0" stroke-linejoin="miter" stroke-linecap="butt" stroke-miterlimit="10" >
	<path d="
	M 1728.25 683.75 
	C 1728.25 743.398 1679.9 791.75 1620.25 791.75 
	L 108.25 791.75 
	C 48.6016 791.75 0.25 743.398 0.25 683.75 
	L 0.25 -396.25 
	C 0.25 -455.9 48.6016 -504.25 108.25 -504.25 
	L 1620.25 -504.25 
	C 1679.9 -504.25 1728.25 -455.9 1728.25 -396.25 
	Z 
	"/>
</g>
<g stroke="#7f7f7f" fill="none" stroke-width="0.5" stroke-linejoin="miter" stroke-linecap="butt" stroke-miterlimit="4" >
	<path d="
	M 1728.25 683.75 
	C 1728.25 743.398 1679.9 791.75 1620.25 791.75 
	L 108.25 791.75 
	C 48.6016 791.75 0.25 743.398 0.25 683.75 
	L 0.25 -396.25 
	C 0.25 -455.9 48.6016 -504.25 108.25 -504.25 
	L 1620.25 -504.25 
	C 1679.9 -504.25 1728.25 -455.9 1728.25 -396.25 
	Z 
	"/>
</g>
<g fill="#7f7f7f" fill-rule="nonzero" stroke-width="0" stroke-linejoin="miter" stroke-linecap="butt" stroke-miterlimit="4" >
	<path d="
	M 1656.25 683.75 
	C 1656.25 703.602 1640.1 719.75 1620.25 719.75 
	L 108.25 719.75 
	C 88.3984 719.75 72.25 703.602 72.25 683.75 
	L 72.25 -396.25 
	C 72.25 -416.1 88.3984 -432.25 108.25 -432.25 
	L 1620.25 -432.25 
	C 1640.1 -432.25 1656.25 -416.1 1656.25 -396.25 
	Z 
	M 1620.25 -477.25 
	L 108.25 -477.25 
	C 63.5859 -477.25 27.25 -440.91 27.25 -396.25 
	L 27.25 683.75 
	C 27.25 728.41 63.5859 764.75 108.25 764.75 
	L 1620.25 764.75 
	C 1664.91 764.75 1701.25 728.41 1701.25 683.75 
	L 1701.25 -396.25 
	C 1701.25 -440.91 1664.91 -477.25 1620.25 -477.25 
	Z 
	"/>
</g>
<g fill="#7f7f7f" fill-rule="nonzero" stroke-width="0" stroke-linejoin="miter" stroke-linecap="butt" stroke-miterlimit="4" >
	<path d="
	M 909.078 -132.234 
	C 902.242 -143.605 893.887 -148.152 880.973 -148.91 
	C 864.254 -149.668 853.617 -141.332 846.02 -122.383 
	C 840.703 -109.5 837.664 -89.793 837.664 -71.605 
	C 837.664 -48.867 842.223 -25.371 850.578 -11.73 
	C 857.418 -0.362976 866.535 4.94501 880.211 4.94501 
	C 896.168 4.94501 906.043 -3.39502 913.641 -22.34 
	C 918.195 -33.711 921.996 -54.93 921.996 -71.605 
	C 921.996 -95.855 917.438 -117.836 909.078 -132.234 
	Z 
	M 932.633 15.555 
	C 920.477 32.227 903.004 39.809 880.211 39.809 
	C 849.82 39.809 830.824 27.68 817.91 1.15198 
	C 808.793 -17.035 802.715 -45.836 802.715 -71.605 
	C 802.715 -107.227 811.832 -139.055 826.27 -159.52 
	C 839.184 -176.195 856.656 -183.773 881.73 -183.773 
	C 909.078 -183.773 928.074 -171.645 941.75 -145.121 
	C 950.863 -126.172 956.188 -98.891 956.188 -71.605 
	C 956.188 -37.5 947.828 -3.39502 932.633 15.555 
	Z 
	"/>
</g>
<g fill="#7f7f7f" fill-rule="nonzero" stroke-width="0" stroke-linejoin="miter" stroke-linecap="butt" stroke-miterlimit="4" >
	<path d="
	M 1252.68 -132.234 
	C 1245.84 -143.605 1237.49 -148.152 1224.57 -148.91 
	C 1207.86 -149.668 1197.22 -141.332 1189.62 -122.383 
	C 1184.3 -109.5 1181.27 -89.793 1181.27 -71.605 
	C 1181.27 -48.867 1185.82 -25.371 1194.18 -11.73 
	C 1201.02 -0.362976 1210.13 4.94501 1223.81 4.94501 
	C 1239.77 4.94501 1249.64 -3.39502 1257.24 -22.34 
	C 1261.8 -33.711 1265.6 -54.93 1265.6 -71.605 
	C 1265.6 -95.855 1261.04 -117.836 1252.68 -132.234 
	Z 
	M 1276.23 15.555 
	C 1264.08 32.227 1246.6 39.809 1223.81 39.809 
	C 1193.42 39.809 1174.43 27.68 1161.51 1.15198 
	C 1152.39 -17.035 1146.32 -45.836 1146.32 -71.605 
	C 1146.32 -107.227 1155.43 -139.055 1169.87 -159.52 
	C 1182.79 -176.195 1200.26 -183.773 1225.33 -183.773 
	C 1252.68 -183.773 1271.67 -171.645 1285.35 -145.121 
	C 1294.46 -126.172 1299.79 -98.891 1299.79 -71.605 
	C 1299.79 -37.5 1291.43 -3.39502 1276.23 15.555 
	Z 
	"/>
</g>
<g fill="#7f7f7f" fill-rule="nonzero" stroke-width="0" stroke-linejoin="miter" stroke-linecap="butt" stroke-miterlimit="4" >
	<path d="
	M 528.004 -142.355 
	C 521.941 -145.387 518.152 -146.145 507.539 -146.145 
	L 462.82 -146.145 
	L 462.82 -93.09 
	L 507.539 -93.09 
	C 518.152 -93.09 521.941 -93.852 528.004 -96.879 
	C 535.586 -100.672 540.891 -110.523 540.891 -119.617 
	C 540.891 -128.715 535.586 -137.809 528.004 -142.355 
	Z 
	M 542.406 -65.809 
	C 532.555 -61.262 519.668 -58.227 502.992 -58.227 
	L 462.82 -58.227 
	L 462.82 35.75 
	L 428.715 35.75 
	L 428.715 -180.25 
	L 502.992 -180.25 
	C 520.426 -180.25 531.793 -178.734 542.406 -173.43 
	C 561.355 -164.332 575.758 -141.598 575.758 -119.617 
	C 575.758 -96.879 561.355 -74.145 542.406 -65.809 
	Z 
	"/>
</g>
<g fill="#7f7f7f" fill-rule="nonzero" stroke-width="0" stroke-linejoin="miter" stroke-linecap="butt" stroke-miterlimit="4" >
	<path d="
	M 1068 -149.934 
	L 1068 35.75 
	L 1033.74 35.75 
	L 1033.74 -149.934 
	L 984.262 -149.934 
	L 984.262 -180.25 
	L 1118.24 -180.25 
	L 1118.24 -149.934 
	Z 
	"/>
</g>
<g fill="#7f7f7f" fill-rule="nonzero" stroke-width="0" stroke-linejoin="miter" stroke-linecap="butt" stroke-miterlimit="4" >
	<path d="
	M 721.09 35.75 
	L 721.09 -58.23 
	L 642.262 -58.23 
	L 642.262 35.75 
	L 608.152 35.75 
	L 608.152 -180.25 
	L 642.262 -180.25 
	L 642.262 -93.094 
	L 721.09 -93.094 
	L 721.09 -180.25 
	L 755.195 -180.25 
	L 755.195 35.75 
	Z 
	"/>
</g>
<g fill="#7f7f7f" fill-rule="nonzero" stroke-width="0" stroke-linejoin="miter" stroke-linecap="butt" stroke-miterlimit="4" >
	<path d="
	M 439.492 467.754 
	L 356.875 321.48 
	L 356.875 467.754 
	L 322.766 467.754 
	L 322.766 251.754 
	L 356.875 251.754 
	L 435.699 389.687 
	L 435.699 251.754 
	L 469.809 251.754 
	L 469.809 467.754 
	Z 
	"/>
</g>
<g fill="#7f7f7f" fill-rule="nonzero" stroke-width="0" stroke-linejoin="miter" stroke-linecap="butt" stroke-miterlimit="4" >
	<path d="
	M 790.066 299.766 
	C 783.23 288.395 774.875 283.852 761.957 283.094 
	C 745.242 282.336 734.605 290.672 727.008 309.617 
	C 721.691 322.504 718.652 342.207 718.652 360.395 
	C 718.652 383.133 723.211 406.629 731.566 420.27 
	C 738.406 431.641 747.523 436.945 761.199 436.945 
	C 777.152 436.945 787.027 428.605 794.625 409.66 
	C 799.184 398.293 802.984 377.07 802.984 360.395 
	C 802.984 336.145 798.426 314.168 790.066 299.766 
	Z 
	M 813.621 447.555 
	C 801.465 464.23 783.988 471.809 761.199 471.809 
	C 730.809 471.809 711.813 459.68 698.898 433.152 
	C 689.781 414.965 683.703 386.168 683.703 360.395 
	C 683.703 324.773 692.82 292.945 707.258 272.48 
	C 720.172 255.809 737.645 248.23 762.715 248.23 
	C 790.066 248.23 809.063 260.355 822.738 286.883 
	C 831.852 305.828 837.172 333.109 837.172 360.395 
	C 837.172 394.504 828.816 428.605 813.621 447.555 
	Z 
	"/>
</g>
<g fill="#7f7f7f" fill-rule="nonzero" stroke-width="0" stroke-linejoin="miter" stroke-linecap="butt" stroke-miterlimit="4" >
	<path d="
	M 1524.13 294.949 
	C 1518.83 289.645 1511.25 285.855 1502.15 285.855 
	L 1463.49 285.855 
	L 1463.49 432.891 
	L 1497.6 432.891 
	C 1508.97 432.891 1515.79 430.613 1521.86 424.555 
	C 1534.74 411.668 1541.56 388.172 1541.56 359.371 
	C 1541.56 330.57 1534.74 306.32 1524.13 294.949 
	Z 
	M 1538.53 455.629 
	C 1530.2 463.203 1518.83 466.992 1507.46 467.754 
	C 1505.18 467.754 1500.63 467.754 1495.33 467.754 
	L 1429.39 467.754 
	L 1429.39 251.754 
	L 1499.12 251.754 
	C 1521.1 251.754 1529.44 254.023 1540.81 263.121 
	C 1563.54 282.824 1576.43 316.934 1576.43 359.371 
	C 1576.43 402.57 1562.79 436.68 1538.53 455.629 
	Z 
	"/>
</g>
<g fill="#7f7f7f" fill-rule="nonzero" stroke-width="0" stroke-linejoin="miter" stroke-linecap="butt" stroke-miterlimit="4" >
	<path d="
	M 152.07 467.754 
	L 152.07 251.754 
	L 279.23 251.754 
	L 279.23 285.855 
	L 186.133 285.855 
	L 186.133 338.91 
	L 248.957 338.91 
	L 248.957 373.773 
	L 186.133 373.773 
	L 186.133 432.891 
	L 286.047 432.891 
	L 286.047 467.754 
	Z 
	"/>
</g>
<g fill="#7f7f7f" fill-rule="nonzero" stroke-width="0" stroke-linejoin="miter" stroke-linecap="butt" stroke-miterlimit="4" >
	<path d="
	M 1258.69 467.754 
	L 1258.69 251.754 
	L 1385.86 251.754 
	L 1385.86 285.855 
	L 1292.75 285.855 
	L 1292.75 338.91 
	L 1355.58 338.91 
	L 1355.58 373.773 
	L 1292.75 373.773 
	L 1292.75 432.891 
	L 1392.67 432.891 
	L 1392.67 467.754 
	Z 
	"/>
</g>
<g fill="#7f7f7f" fill-rule="nonzero" stroke-width="0" stroke-linejoin="miter" stroke-linecap="butt" stroke-miterlimit="4" >
	<path d="
	M 1145.99 471.543 
	C 1114.16 471.543 1093.69 459.418 1080.05 432.891 
	C 1070.2 413.941 1064.13 386.656 1064.13 359.371 
	C 1064.13 325.27 1073.23 291.16 1088.39 272.215 
	C 1101.27 256.301 1119.46 247.965 1143.72 247.965 
	C 1176.31 247.965 1196.77 261.605 1211.17 291.922 
	L 1179.34 305.562 
	C 1167.21 287.371 1160.39 282.824 1143.72 282.824 
	C 1126.28 282.824 1114.91 290.402 1107.33 309.352 
	C 1102.03 322.234 1099 341.184 1099 359.371 
	C 1099 382.867 1104.3 406.363 1112.64 420.008 
	C 1120.22 431.371 1130.07 436.68 1145.23 436.68 
	C 1159.63 436.68 1170.24 429.102 1178.58 411.668 
	L 1211.17 423.797 
	C 1198.29 455.629 1177.07 471.543 1145.99 471.543 
	Z 
	"/>
</g>
<g fill="#7f7f7f" fill-rule="nonzero" stroke-width="0" stroke-linejoin="miter" stroke-linecap="butt" stroke-miterlimit="4" >
	<path d="
	M 555.711 285.855 
	L 555.711 338.91 
	L 618.535 338.91 
	L 618.535 373.773 
	L 555.711 373.773 
	L 555.711 467.754 
	L 521.648 467.754 
	L 521.648 251.754 
	L 655.625 251.754 
	L 655.625 285.855 
	Z 
	"/>
</g>
<g fill="#7f7f7f" fill-rule="nonzero" stroke-width="0" stroke-linejoin="miter" stroke-linecap="butt" stroke-miterlimit="4" >
	<path d="
	M 979.43 289.645 
	C 974.125 286.613 971.094 285.855 959.727 285.855 
	L 918.797 285.855 
	L 918.797 338.906 
	L 959.727 338.906 
	C 970.336 338.906 974.125 338.152 979.43 335.121 
	C 987.77 330.57 993.074 321.477 993.074 312.383 
	C 993.074 303.289 987.77 294.191 979.43 289.645 
	Z 
	M 994.59 467.754 
	L 959.727 373.77 
	L 918.797 373.77 
	L 918.797 467.754 
	L 884.688 467.754 
	L 884.688 251.75 
	L 955.934 251.75 
	C 972.609 251.75 983.98 253.27 994.59 258.57 
	C 1013.54 267.668 1027.18 290.402 1027.18 312.383 
	C 1027.18 335.121 1013.54 357.855 993.832 366.949 
	L 1031.73 467.754 
	Z 
	"/>
</g>
</g >
</g>
</svg>
