<?xml version="1.0" encoding="UTF-8" standalone="no"?>
<!-- Created with Inkscape (http://www.inkscape.org/) -->

<svg
   version="1.1"
   id="svg1"
   width="2304.6667"
   height="1728.6667"
   viewBox="0 0 2304.6667 1728.6667"
   sodipodi:docname="tmpznivzfj7.pdf"
   xmlns:inkscape="http://www.inkscape.org/namespaces/inkscape"
   xmlns:sodipodi="http://sodipodi.sourceforge.net/DTD/sodipodi-0.dtd"
   xmlns="http://www.w3.org/2000/svg"
   xmlns:svg="http://www.w3.org/2000/svg">
  <defs
     id="defs1" />
  <sodipodi:namedview
     id="namedview1"
     pagecolor="#ffffff"
     bordercolor="#000000"
     borderopacity="0.25"
     inkscape:showpageshadow="2"
     inkscape:pageopacity="0.0"
     inkscape:pagecheckerboard="0"
     inkscape:deskcolor="#d1d1d1">
    <inkscape:page
       x="0"
       y="0"
       inkscape:label="1"
       id="page1"
       width="2304.6667"
       height="1728.6667"
       margin="0"
       bleed="0" />
  </sodipodi:namedview>
  <g
     id="g1"
     inkscape:groupmode="layer"
     inkscape:label="1">
    <g
       id="group-R5">
      <path
         id="path2"
         d="M 17282.5,1082.5 C 17282.5,486 16799,2.5 16202.5,2.5 H 1082.5 C 486.031,2.5 2.5,486 2.5,1082.5 v 10800 c 0,596.5 483.531,1080 1080,1080 h 15120 c 596.5,0 1080,-483.5 1080,-1080 v -10800"
         style="fill:#fccc2d;fill-opacity:1;fill-rule:nonzero;stroke:none"
         transform="matrix(0.13333333,0,0,-0.13333333,0,1728.6667)" />
      <path
         id="path3"
         d="M 17282.5,1082.5 C 17282.5,486 16799,2.5 16202.5,2.5 H 1082.5 C 486.031,2.5 2.5,486 2.5,1082.5 v 10800 c 0,596.5 483.531,1080 1080,1080 h 15120 c 596.5,0 1080,-483.5 1080,-1080 z"
         style="fill:none;stroke:#231f20;stroke-width:5;stroke-linecap:butt;stroke-linejoin:miter;stroke-miterlimit:4;stroke-dasharray:none;stroke-opacity:1"
         transform="matrix(0.13333333,0,0,-0.13333333,0,1728.6667)" />
      <path
         id="path4"
         d="m 16562.5,1082.5 c 0,-198.5 -161.5,-360 -360,-360 h -15120 c -198.508,0 -360,161.5 -360,360 v 10800 c 0,198.5 161.492,360 360,360 h 15120 c 198.5,0 360,-161.5 360,-360 z m -360,11610 h -15120 c -446.637,0 -810,-363.4 -810,-810 v -10800 c 0,-446.602 363.363,-810 810,-810 h 15120 c 446.6,0 810,363.398 810,810 v 10800 c 0,446.6 -363.4,810 -810,810"
         style="fill:#231f20;fill-opacity:1;fill-rule:nonzero;stroke:none"
         transform="matrix(0.13333333,0,0,-0.13333333,0,1728.6667)" />
      <path
         id="path5"
         d="m 9090.8,9242.36 c -68.38,113.68 -151.93,159.15 -281.09,166.74 -167.16,7.57 -273.53,-75.79 -349.5,-265.27 -53.19,-128.84 -83.56,-325.9 -83.56,-507.79 0,-227.37 45.57,-462.31 129.14,-598.74 68.39,-113.68 159.56,-166.74 296.32,-166.74 159.55,0 258.3,83.38 334.28,272.84 45.58,113.69 83.57,325.9 83.57,492.64 0,242.52 -45.58,462.31 -129.16,606.32 z m 235.53,-1477.9 c -121.56,-166.74 -296.31,-242.53 -524.22,-242.53 -303.92,0 -493.86,121.27 -623.02,386.53 -91.15,181.9 -151.93,469.89 -151.93,727.58 0,356.21 91.16,674.52 235.53,879.16 129.15,166.74 303.88,242.53 554.6,242.53 273.51,0 463.45,-121.27 600.21,-386.53 91.15,-189.47 144.36,-462.31 144.36,-735.16 0,-341.05 -83.58,-682.1 -235.53,-871.58"
         style="fill:#231f20;fill-opacity:1;fill-rule:nonzero;stroke:none"
         transform="matrix(0.13333333,0,0,-0.13333333,0,1728.6667)" />
      <path
         id="path6"
         d="m 12526.8,9242.36 c -68.4,113.68 -151.9,159.15 -281.1,166.74 -167.1,7.57 -273.5,-75.79 -349.5,-265.27 -53.2,-128.84 -83.5,-325.9 -83.5,-507.79 0,-227.37 45.5,-462.31 129.1,-598.74 68.4,-113.68 159.5,-166.74 296.3,-166.74 159.6,0 258.3,83.38 334.3,272.84 45.6,113.69 83.6,325.9 83.6,492.64 0,242.52 -45.6,462.31 -129.2,606.32 z m 235.5,-1477.9 c -121.5,-166.74 -296.3,-242.53 -524.2,-242.53 -303.9,0 -493.8,121.27 -623,386.53 -91.2,181.9 -151.9,469.89 -151.9,727.58 0,356.21 91.1,674.52 235.5,879.16 129.2,166.74 303.9,242.53 554.6,242.53 273.5,0 463.4,-121.27 600.2,-386.53 91.1,-189.47 144.4,-462.31 144.4,-735.16 0,-341.05 -83.6,-682.1 -235.6,-871.58"
         style="fill:#231f20;fill-opacity:1;fill-rule:nonzero;stroke:none"
         transform="matrix(0.13333333,0,0,-0.13333333,0,1728.6667)" />
      <path
         id="path7"
         d="m 5280.04,9343.55 c -60.63,30.31 -98.52,37.9 -204.63,37.9 h -447.19 v -530.54 h 447.19 c 106.11,0 144,7.59 204.63,37.89 75.8,37.9 128.87,136.42 128.87,227.38 0,90.95 -53.07,181.89 -128.87,227.37 z m 144.02,-765.48 c -98.53,-45.47 -227.38,-75.79 -394.14,-75.79 h -401.7 v -939.79 h -341.07 v 2160 h 742.77 c 174.34,0 288.02,-15.16 394.14,-68.2 189.48,-90.96 333.5,-318.33 333.5,-538.11 0,-227.38 -144.02,-454.75 -333.5,-538.11"
         style="fill:#231f20;fill-opacity:1;fill-rule:nonzero;stroke:none"
         transform="matrix(0.13333333,0,0,-0.13333333,0,1728.6667)" />
      <path
         id="path8"
         d="M 10680,9419.34 V 7562.49 h -342.6 V 9419.34 H 9842.62 V 9722.5 H 11182.4 V 9419.34 H 10680"
         style="fill:#231f20;fill-opacity:1;fill-rule:nonzero;stroke:none"
         transform="matrix(0.13333333,0,0,-0.13333333,0,1728.6667)" />
      <path
         id="path9"
         d="m 7210.9,7562.49 v 939.8 h -788.28 v -939.8 h -341.08 v 2160 h 341.08 v -871.57 h 788.28 v 871.57 h 341.07 v -2160 H 7210.9"
         style="fill:#231f20;fill-opacity:1;fill-rule:nonzero;stroke:none"
         transform="matrix(0.13333333,0,0,-0.13333333,0,1728.6667)" />
      <path
         id="path10"
         d="M 4394.91,3242.48 3568.74,4705.21 V 3242.48 h -341.08 v 2160 h 341.08 L 4357,4023.11 v 1379.37 h 341.07 v -2160 h -303.16"
         style="fill:#231f20;fill-opacity:1;fill-rule:nonzero;stroke:none"
         transform="matrix(0.13333333,0,0,-0.13333333,0,1728.6667)" />
      <path
         id="path11"
         d="m 7900.68,4922.34 c -68.38,113.7 -151.94,159.16 -281.1,166.74 -167.15,7.58 -273.52,-75.78 -349.49,-265.25 -53.19,-128.85 -83.56,-325.9 -83.56,-507.79 0,-227.37 45.56,-462.33 129.14,-598.74 68.39,-113.69 159.55,-166.75 296.31,-166.75 159.55,0 258.3,83.38 334.28,272.85 45.59,113.69 83.57,325.9 83.57,492.64 0,242.51 -45.59,462.3 -129.15,606.3 z M 8136.2,3444.45 c -121.57,-166.74 -296.31,-242.54 -524.22,-242.54 -303.91,0 -493.85,121.29 -623.01,386.55 -91.15,181.89 -151.93,469.88 -151.93,727.58 0,356.21 91.16,674.51 235.52,879.16 129.15,166.73 303.89,242.51 554.6,242.51 273.52,0 463.45,-121.26 600.21,-386.52 91.15,-189.47 144.34,-462.3 144.34,-735.15 0,-341.06 -83.56,-682.11 -235.51,-871.59"
         style="fill:#231f20;fill-opacity:1;fill-rule:nonzero;stroke:none"
         transform="matrix(0.13333333,0,0,-0.13333333,0,1728.6667)" />
      <path
         id="path12"
         d="m 15241.3,4970.49 c -53,53.05 -128.8,90.96 -219.8,90.96 h -386.6 V 3591.11 h 341.1 c 113.7,0 181.9,22.74 242.6,83.36 128.8,128.85 197,363.81 197,651.82 0,287.99 -68.2,530.51 -174.3,644.2 z m 144,-1606.76 c -83.3,-75.78 -197,-113.67 -310.7,-121.25 -22.8,0 -68.3,0 -121.3,0 h -659.4 v 2160 h 697.3 c 219.8,0 303.2,-22.73 416.9,-113.69 227.3,-197.05 356.2,-538.11 356.2,-962.5 0,-432.01 -136.4,-773.09 -379,-962.56"
         style="fill:#231f20;fill-opacity:1;fill-rule:nonzero;stroke:none"
         transform="matrix(0.13333333,0,0,-0.13333333,0,1728.6667)" />
      <path
         id="path13"
         d="m 1520.7,3242.48 v 2160 H 2792.32 V 5061.43 H 1861.31 V 4530.9 h 628.26 v -348.63 h -628.26 v -591.16 h 999.14 V 3242.48 H 1520.7"
         style="fill:#231f20;fill-opacity:1;fill-rule:nonzero;stroke:none"
         transform="matrix(0.13333333,0,0,-0.13333333,0,1728.6667)" />
      <path
         id="path14"
         d="m 12586.9,3242.48 v 2160 h 1271.7 v -341.05 h -931.1 V 4530.9 h 628.3 v -348.63 h -628.3 v -591.16 h 999.2 v -348.63 h -1339.8"
         style="fill:#231f20;fill-opacity:1;fill-rule:nonzero;stroke:none"
         transform="matrix(0.13333333,0,0,-0.13333333,0,1728.6667)" />
      <path
         id="path15"
         d="m 11459.9,3204.57 c -318.3,0 -523,121.27 -659.4,386.54 -98.5,189.48 -159.2,462.33 -159.2,735.16 0,341.05 91,682.11 242.6,871.58 128.8,159.16 310.7,242.52 553.3,242.52 325.9,0 530.5,-136.42 674.5,-439.57 l -318.3,-136.43 c -121.3,181.9 -189.5,227.37 -356.2,227.37 -174.4,0 -288.1,-75.78 -363.9,-265.26 -53,-128.84 -83.3,-318.32 -83.3,-500.21 0,-234.94 53,-469.9 136.4,-606.33 75.8,-113.67 174.3,-166.74 325.9,-166.74 144,0 250.1,75.8 333.5,250.12 l 325.9,-121.27 c -128.8,-318.32 -341,-477.48 -651.8,-477.48"
         style="fill:#231f20;fill-opacity:1;fill-rule:nonzero;stroke:none"
         transform="matrix(0.13333333,0,0,-0.13333333,0,1728.6667)" />
      <path
         id="path16"
         d="M 5557.1,5061.43 V 4530.9 h 628.24 V 4182.27 H 5557.1 v -939.79 h -340.61 v 2160 H 6556.24 V 5061.43 H 5557.1"
         style="fill:#231f20;fill-opacity:1;fill-rule:nonzero;stroke:none"
         transform="matrix(0.13333333,0,0,-0.13333333,0,1728.6667)" />
      <path
         id="path17"
         d="m 9794.31,5023.54 c -53.05,30.33 -83.36,37.89 -197.05,37.89 h -409.3 v -530.51 h 409.3 c 106.11,0 144,7.56 197.05,37.87 83.4,45.49 136.44,136.44 136.44,227.38 0,90.94 -53.04,181.9 -136.44,227.37 z m 151.6,-1781.06 -348.65,939.81 h -409.3 V 3242.48 H 8846.89 V 5402.5 h 712.46 c 166.75,0 280.44,-15.18 386.56,-68.22 189.49,-90.96 325.89,-318.32 325.89,-538.11 0,-227.38 -136.4,-454.74 -333.47,-545.68 l 378.97,-1008.01 h -371.39"
         style="fill:#231f20;fill-opacity:1;fill-rule:nonzero;stroke:none"
         transform="matrix(0.13333333,0,0,-0.13333333,0,1728.6667)" />
    </g>
  </g>
</svg>
