<?xml version="1.0" encoding="UTF-8" standalone="no"?>
<!-- Created with Inkscape (http://www.inkscape.org/) -->

<svg
   version="1.1"
   id="svg1"
   width="13824.667"
   height="4608.6665"
   viewBox="0 0 13824.667 4608.6665"
   sodipodi:docname="tmp9rvn417p.pdf"
   xmlns:inkscape="http://www.inkscape.org/namespaces/inkscape"
   xmlns:sodipodi="http://sodipodi.sourceforge.net/DTD/sodipodi-0.dtd"
   xmlns="http://www.w3.org/2000/svg"
   xmlns:svg="http://www.w3.org/2000/svg">
  <defs
     id="defs1" />
  <sodipodi:namedview
     id="namedview1"
     pagecolor="#ffffff"
     bordercolor="#000000"
     borderopacity="0.25"
     inkscape:showpageshadow="2"
     inkscape:pageopacity="0.0"
     inkscape:pagecheckerboard="0"
     inkscape:deskcolor="#d1d1d1">
    <inkscape:page
       x="0"
       y="0"
       inkscape:label="1"
       id="page1"
       width="13824.667"
       height="4608.6665"
       margin="0"
       bleed="0" />
  </sodipodi:namedview>
  <g
     id="g1"
     inkscape:groupmode="layer"
     inkscape:label="1">
    <g
       id="group-R5">
      <path
         id="path2"
         d="m 103682,2162.5 c 0,-1192.898 -967,-2160 -2160,-2160 H 2162.5 C 969.566,2.5 2.5,969.602 2.5,2162.5 v 30240 c 0,1192.9 967.066,2160 2160,2160 H 101522 c 1193,0 2160,-967.1 2160,-2160 v -30240"
         style="fill:#fccc2d;fill-opacity:1;fill-rule:nonzero;stroke:none"
         transform="matrix(0.13333333,0,0,-0.13333333,0,4608.6667)" />
      <path
         id="path3"
         d="m 103682,2162.5 c 0,-1192.898 -967,-2160 -2160,-2160 H 2162.5 C 969.566,2.5 2.5,969.602 2.5,2162.5 v 30240 c 0,1192.9 967.066,2160 2160,2160 H 101522 c 1193,0 2160,-967.1 2160,-2160 z"
         style="fill:none;stroke:#231f20;stroke-width:5;stroke-linecap:butt;stroke-linejoin:miter;stroke-miterlimit:4;stroke-dasharray:none;stroke-opacity:1"
         transform="matrix(0.13333333,0,0,-0.13333333,0,4608.6667)" />
      <path
         id="path4"
         d="m 102242,2162.5 c 0,-397 -323,-720 -720,-720 H 2162.5 c -397.01,0 -720,323 -720,720 v 30240 c 0,397 322.99,720 720,720 H 101522 c 397,0 720,-323 720,-720 z m -720,31860 H 2162.5 c -893.27,0 -1620,-726.7 -1620,-1620 v -30240 c 0,-893.3 726.73,-1620 1620,-1620 H 101522 c 893,0 1620,726.7 1620,1620 v 30240 c 0,893.3 -727,1620 -1620,1620"
         style="fill:#231f20;fill-opacity:1;fill-rule:nonzero;stroke:none"
         transform="matrix(0.13333333,0,0,-0.13333333,0,4608.6667)" />
      <path
         id="path5"
         d="m 48143.5,25928.8 -1010.2,-2425.3 h 2020.5 z m 2273.1,-5406.3 -707.2,1692.6 h -3131.7 l -707.2,-1692.6 h -1414.3 l 3030.7,7200 h 1313.3 l 3005.4,-7200 h -1389"
         style="fill:#231f20;fill-opacity:1;fill-rule:nonzero;stroke:none"
         transform="matrix(0.13333333,0,0,-0.13333333,0,4608.6667)" />
      <path
         id="path6"
         d="m 84967.8,26156.2 c -328,176.8 -706.4,277.9 -1084.9,277.9 h -1092.4 v -4623.2 h 1092.4 c 378.5,0 731.7,101.1 1034.4,277.9 756.9,404.2 1110.2,1061 1110.2,2046.3 0,960 -353.3,1616.8 -1059.7,2021.1 z m 605.5,-5204.2 c -504.6,-277.9 -1110.1,-429.5 -1690.4,-429.5 h -2404.3 v 7200 h 2404.3 c 605.5,0 1185.8,-151.6 1715.7,-454.8 1110.1,-631.5 1715.6,-1717.8 1715.6,-3132.6 0,-1440 -605.5,-2551.6 -1740.9,-3183.1"
         style="fill:#231f20;fill-opacity:1;fill-rule:nonzero;stroke:none"
         transform="matrix(0.13333333,0,0,-0.13333333,0,4608.6667)" />
      <path
         id="path7"
         d="m 23210.8,20522.5 v 7200 h 5273.3 v -1288.4 h -3955 v -1339 H 26684 v -1313.7 h -2154.9 v -1970.5 h 4081.7 v -1288.4 h -5400"
         style="fill:#231f20;fill-opacity:1;fill-rule:nonzero;stroke:none"
         transform="matrix(0.13333333,0,0,-0.13333333,0,4608.6667)" />
      <path
         id="path8"
         d="m 66931,20522.5 v 7200 h 5273.3 v -1288.4 h -3955 v -1339 h 2154.9 V 23781.4 H 68249.3 V 21810.9 H 72331 v -1288.4 h -5400"
         style="fill:#231f20;fill-opacity:1;fill-rule:nonzero;stroke:none"
         transform="matrix(0.13333333,0,0,-0.13333333,0,4608.6667)" />
      <path
         id="path9"
         d="m 30050.8,20522.5 v 7200 h 5273.3 v -1288.4 h -3955 v -1339 H 33524 v -1313.7 h -2154.9 v -1970.5 h 4081.7 v -1288.4 h -5400"
         style="fill:#231f20;fill-opacity:1;fill-rule:nonzero;stroke:none"
         transform="matrix(0.13333333,0,0,-0.13333333,0,4608.6667)" />
      <path
         id="path10"
         d="m 10629.5,26434.1 v -1465.3 h 2256.4 V 23655.1 H 10629.5 V 20522.5 H 9311.21 v 7200 h 5399.99 v -1288.4 h -4081.7"
         style="fill:#231f20;fill-opacity:1;fill-rule:nonzero;stroke:none"
         transform="matrix(0.13333333,0,0,-0.13333333,0,4608.6667)" />
      <path
         id="path11"
         d="m 78490.2,20522.5 -3450.6,4951.6 V 20522.5 H 73771 v 7200 h 1268.6 L 78363.3,22973 v 4749.5 h 1243.3 v -7200 h -1116.4"
         style="fill:#231f20;fill-opacity:1;fill-rule:nonzero;stroke:none"
         transform="matrix(0.13333333,0,0,-0.13333333,0,4608.6667)" />
      <path
         id="path12"
         d="m 19296.3,26434.1 h -2073.4 v -1793.7 h 2073.4 c 631.3,0 1035.3,353.7 1035.3,884.2 0,555.8 -404,909.5 -1035.3,909.5 z m 1035.3,-5911.6 -1161.5,2829.4 h -1947.2 v -2829.4 h -1287.7 v 7200 h 3335.9 c 530.2,0 858.5,-75.8 1237.2,-303.2 681.8,-378.9 1111,-1086.3 1111,-1894.7 0,-808.4 -429.2,-1515.8 -1161.5,-1920 l 1313,-3082.1 h -1439.2"
         style="fill:#231f20;fill-opacity:1;fill-rule:nonzero;stroke:none"
         transform="matrix(0.13333333,0,0,-0.13333333,0,4608.6667)" />
      <path
         id="path13"
         d="m 91222.6,23753.4 c -320.5,88.5 -1126.4,281.9 -1398.3,441.3 -542,317.8 -956.3,837.4 -956.3,1607.8 0,1187.4 1014.9,1995.8 2486.5,1995.8 1065.6,0 1953.7,-353.7 2689.4,-1111.6 l -964.1,-858.9 c -456.7,480 -1040.3,707.3 -1725.3,707.3 -735.8,0 -1167.1,-277.9 -1167.1,-732.6 0,-404.2 253.7,-581.1 1141.7,-783.2 964.2,-202.1 1598.5,-404.2 2004.4,-606.3 634.3,-328.4 1040.3,-1010.5 1040.3,-1793.7 0,-732.6 -329.9,-1288.4 -1014.9,-1692.6 -507.5,-303.2 -1167.1,-480 -1826.8,-480 -1243.2,0 -2182,454.7 -2993.9,1389.5 l 1040.2,808.4 c 532.9,-631.6 1116.4,-909.5 1928.4,-909.5 913.3,0 1573,404.2 1573,934.7 0,675.8 -735.1,773.9 -1857.2,1083.6"
         style="fill:#231f20;fill-opacity:1;fill-rule:nonzero;stroke:none"
         transform="matrix(0.13333333,0,0,-0.13333333,0,4608.6667)" />
      <path
         id="path14"
         d="m 42590.4,20522.5 h -1365.6 l -1163.3,4825.2 -1138,-4825.2 h -1365.7 l -1315,7200 h 1340.3 l 784,-4648.4 1062.1,4648.4 H 40719 l 1112.7,-4648.4 733.4,4648.4 h 1315.1 l -1289.8,-7200"
         style="fill:#231f20;fill-opacity:1;fill-rule:nonzero;stroke:none"
         transform="matrix(0.13333333,0,0,-0.13333333,0,4608.6667)" />
      <path
         id="path15"
         d="M 56700.3,23453 V 20522.5 H 55412.2 V 23453 l -3030.6,4269.5 h 1591.1 l 2096.2,-2930.6 2070.9,2930.6 H 59731 L 56700.3,23453"
         style="fill:#231f20;fill-opacity:1;fill-rule:nonzero;stroke:none"
         transform="matrix(0.13333333,0,0,-0.13333333,0,4608.6667)" />
      <path
         id="path16"
         d="m 63256.3,7202.5 v 7200 h 5273.3 v -1288.4 h -3955 v -1339 h 2154.9 V 10461.4 H 64574.6 V 8490.9 h 4081.7 V 7202.5 h -5400"
         style="fill:#231f20;fill-opacity:1;fill-rule:nonzero;stroke:none"
         transform="matrix(0.13333333,0,0,-0.13333333,0,4608.6667)" />
      <path
         id="path17"
         d="m 53464.3,7202.5 v 7200 h 1296 v -7200 h -1296"
         style="fill:#231f20;fill-opacity:1;fill-rule:nonzero;stroke:none"
         transform="matrix(0.13333333,0,0,-0.13333333,0,4608.6667)" />
      <path
         id="path18"
         d="m 56632.3,7202.5 v 7200 h 1292.9 V 8314.1 h 4107.1 V 7202.5 h -5400"
         style="fill:#231f20;fill-opacity:1;fill-rule:nonzero;stroke:none"
         transform="matrix(0.13333333,0,0,-0.13333333,0,4608.6667)" />
      <path
         id="path19"
         d="m 50324.2,7202.5 v 4395.8 l -2130.4,-4395.8 -2105,4395.8 V 7202.5 h -1268.1 v 7200 h 1268.1 l 2105,-4269.5 2130.4,4269.5 h 1268.1 v -7200 h -1268.1"
         style="fill:#231f20;fill-opacity:1;fill-rule:nonzero;stroke:none"
         transform="matrix(0.13333333,0,0,-0.13333333,0,4608.6667)" />
      <path
         id="path20"
         d="m 36113.7,6482.5 30.1,6457.2 h -1085 l -30.1,1243 c 663,151.5 1024.7,394.1 1356.3,939.8 h 1235.6 v -8640 h -1506.9"
         style="fill:#231f20;fill-opacity:1;fill-rule:nonzero;stroke:none"
         transform="matrix(0.13333333,0,0,-0.13333333,0,4608.6667)" />
    </g>
  </g>
</svg>
