<?xml version="1.0" standalone="no"?>
<svg width="10368px" height="3456px" viewBox="0 -2664 10368 3456 " xmlns="http://www.w3.org/2000/svg" xmlns:xlink="http://www.w3.org/1999/xlink">
<title>generated by pstoedit</title>
<!-- generated by pstoedit version:4.02 -->
<g xml:space='preserve'>
<clipPath id="clippath1"> 	<path d="
	M 0 -2664.5 
	L 0 792 
	L 10368.5 792 
	L 10368.5 -2664.5 
	Z 
	" style="clip-rule:nonzero"/>
</clipPath>
<g style="clip-path:url(#clippath1)"> 
<g fill="#95e8ff" fill-rule="nonzero" stroke-width="0" stroke-linejoin="miter" stroke-linecap="butt" stroke-miterlimit="10" >
	<path d="
	M 10368.2 575.75 
	C 10368.2 695.039 10271.5 791.75 10152.2 791.75 
	L 216.25 791.75 
	C 96.957 791.75 0.25 695.039 0.25 575.75 
	L 0.25 -2448.25 
	C 0.25 -2567.54 96.957 -2664.25 216.25 -2664.25 
	L 10152.2 -2664.25 
	C 10271.5 -2664.25 10368.2 -2567.54 10368.2 -2448.25 
	Z 
	"/>
</g>
<g stroke="#7f7f7f" fill="none" stroke-width="0.5" stroke-linejoin="miter" stroke-linecap="butt" stroke-miterlimit="4" >
	<path d="
	M 10368.2 575.75 
	C 10368.2 695.039 10271.5 791.75 10152.2 791.75 
	L 216.25 791.75 
	C 96.957 791.75 0.25 695.039 0.25 575.75 
	L 0.25 -2448.25 
	C 0.25 -2567.54 96.957 -2664.25 216.25 -2664.25 
	L 10152.2 -2664.25 
	C 10271.5 -2664.25 10368.2 -2567.54 10368.2 -2448.25 
	Z 
	"/>
</g>
<g fill="#7f7f7f" fill-rule="nonzero" stroke-width="0" stroke-linejoin="miter" stroke-linecap="butt" stroke-miterlimit="4" >
	<path d="
	M 10224.2 575.75 
	C 10224.2 615.449 10191.9 647.75 10152.2 647.75 
	L 216.25 647.75 
	C 176.551 647.75 144.25 615.449 144.25 575.75 
	L 144.25 -2448.25 
	C 144.25 -2487.95 176.551 -2520.25 216.25 -2520.25 
	L 10152.2 -2520.25 
	C 10191.9 -2520.25 10224.2 -2487.95 10224.2 -2448.25 
	Z 
	M 10152.2 -2610.25 
	L 216.25 -2610.25 
	C 126.922 -2610.25 54.25 -2537.58 54.25 -2448.25 
	L 54.25 575.75 
	C 54.25 665.082 126.922 737.75 216.25 737.75 
	L 10152.2 737.75 
	C 10241.5 737.75 10314.2 665.082 10314.2 575.75 
	L 10314.2 -2448.25 
	C 10314.2 -2537.58 10241.5 -2610.25 10152.2 -2610.25 
	Z 
	"/>
</g>
<g fill="#7f7f7f" fill-rule="nonzero" stroke-width="0" stroke-linejoin="miter" stroke-linecap="butt" stroke-miterlimit="4" >
	<path d="
	M 8307.08 -1260.25 
	L 8031.69 -1747.83 
	L 8031.69 -1260.25 
	L 7917.99 -1260.25 
	L 7917.99 -1980.25 
	L 8031.69 -1980.25 
	L 8294.44 -1520.46 
	L 8294.44 -1980.25 
	L 8408.13 -1980.25 
	L 8408.13 -1260.25 
	Z 
	"/>
</g>
<g fill="#7f7f7f" fill-rule="nonzero" stroke-width="0" stroke-linejoin="miter" stroke-linecap="butt" stroke-miterlimit="4" >
	<path d="
	M 2161.37 -1853.94 
	C 2141.16 -1864.04 2128.52 -1866.57 2093.15 -1866.57 
	L 1944.09 -1866.57 
	L 1944.09 -1689.72 
	L 2093.15 -1689.72 
	C 2128.52 -1689.72 2141.16 -1692.25 2161.37 -1702.36 
	C 2186.63 -1714.98 2204.32 -1747.83 2204.32 -1778.14 
	C 2204.32 -1808.46 2186.63 -1838.77 2161.37 -1853.94 
	Z 
	M 2209.37 -1598.77 
	C 2176.53 -1583.62 2133.58 -1573.51 2077.99 -1573.51 
	L 1944.09 -1573.51 
	L 1944.09 -1260.25 
	L 1830.4 -1260.25 
	L 1830.4 -1980.25 
	L 2077.99 -1980.25 
	C 2136.1 -1980.25 2174 -1975.2 2209.37 -1957.52 
	C 2272.53 -1927.2 2320.54 -1851.41 2320.54 -1778.14 
	C 2320.54 -1702.36 2272.53 -1626.56 2209.37 -1598.77 
	Z 
	"/>
</g>
<g fill="#7f7f7f" fill-rule="nonzero" stroke-width="0" stroke-linejoin="miter" stroke-linecap="butt" stroke-miterlimit="4" >
	<path d="
	M 2744.34 -1853.93 
	C 2726.66 -1864.04 2716.55 -1866.56 2678.65 -1866.56 
	L 2542.22 -1866.56 
	L 2542.22 -1689.72 
	L 2678.65 -1689.72 
	C 2714.03 -1689.72 2726.66 -1692.25 2744.34 -1702.35 
	C 2772.13 -1717.51 2789.82 -1747.83 2789.82 -1778.14 
	C 2789.82 -1808.46 2772.13 -1838.77 2744.34 -1853.93 
	Z 
	M 2794.87 -1260.25 
	L 2678.65 -1573.51 
	L 2542.22 -1573.51 
	L 2542.22 -1260.25 
	L 2428.53 -1260.25 
	L 2428.53 -1980.25 
	L 2666.02 -1980.25 
	C 2721.6 -1980.25 2759.5 -1975.2 2794.87 -1957.51 
	C 2858.03 -1927.19 2903.51 -1851.41 2903.51 -1778.14 
	C 2903.51 -1702.35 2858.03 -1626.56 2792.35 -1596.25 
	L 2918.67 -1260.25 
	Z 
	"/>
</g>
<g fill="#7f7f7f" fill-rule="nonzero" stroke-width="0" stroke-linejoin="miter" stroke-linecap="butt" stroke-miterlimit="4" >
	<path d="
	M 5204.25 -1260.25 
	L 5102.89 -1260.25 
	L 4988.84 -1722.57 
	L 4877.33 -1260.25 
	L 4775.97 -1260.25 
	L 4669.53 -1980.25 
	L 4786.1 -1980.25 
	L 4841.86 -1601.3 
	L 4933.09 -1980.25 
	L 5044.6 -1980.25 
	L 5138.36 -1601.3 
	L 5194.12 -1980.25 
	L 5310.69 -1980.25 
	Z 
	"/>
</g>
<g fill="#7f7f7f" fill-rule="nonzero" stroke-width="0" stroke-linejoin="miter" stroke-linecap="butt" stroke-miterlimit="4" >
	<path d="
	M 3979.05 -1303.19 
	C 3938.63 -1267.83 3883.05 -1247.62 3822.41 -1247.62 
	C 3698.61 -1247.62 3607.66 -1320.88 3559.65 -1429.51 
	L 3668.29 -1469.93 
	C 3698.61 -1401.72 3754.19 -1363.83 3822.41 -1363.83 
	C 3888.1 -1363.83 3933.57 -1409.3 3933.57 -1469.93 
	C 3933.57 -1565.93 3822.41 -1581.09 3728.93 -1618.98 
	C 3685.98 -1636.67 3589.97 -1679.61 3589.97 -1798.35 
	C 3589.97 -1939.82 3685.98 -1992.88 3814.83 -1992.88 
	C 3915.89 -1992.88 3984.11 -1934.77 4019.47 -1846.35 
	L 3918.42 -1816.04 
	C 3918.42 -1816.04 3893.15 -1876.67 3812.3 -1879.19 
	C 3759.25 -1881.72 3696.08 -1861.51 3701.14 -1795.82 
	C 3711.24 -1661.93 4049.79 -1750.35 4049.79 -1467.41 
	C 4049.79 -1401.72 4024.53 -1343.62 3979.05 -1303.19 
	Z 
	"/>
</g>
<g fill="#7f7f7f" fill-rule="nonzero" stroke-width="0" stroke-linejoin="miter" stroke-linecap="butt" stroke-miterlimit="4" >
	<path d="
	M 9598.48 -1303.2 
	C 9558.05 -1267.83 9502.47 -1247.62 9441.84 -1247.62 
	C 9318.04 -1247.62 9227.09 -1320.88 9179.08 -1429.51 
	L 9287.72 -1469.93 
	C 9318.04 -1401.72 9373.62 -1363.83 9441.84 -1363.83 
	C 9507.53 -1363.83 9553 -1409.3 9553 -1469.93 
	C 9553 -1565.93 9441.84 -1581.09 9348.35 -1618.98 
	C 9305.41 -1636.67 9209.4 -1679.61 9209.4 -1798.36 
	C 9209.4 -1939.83 9305.41 -1992.88 9434.26 -1992.88 
	C 9535.31 -1992.88 9603.53 -1934.77 9638.9 -1846.35 
	L 9537.84 -1816.04 
	C 9537.84 -1816.04 9512.58 -1876.67 9431.73 -1879.2 
	C 9378.67 -1881.72 9315.51 -1861.52 9320.56 -1795.82 
	C 9330.67 -1661.93 9669.22 -1750.35 9669.22 -1467.41 
	C 9669.22 -1401.72 9643.95 -1343.62 9598.48 -1303.2 
	Z 
	"/>
</g>
<g fill="#7f7f7f" fill-rule="nonzero" stroke-width="0" stroke-linejoin="miter" stroke-linecap="butt" stroke-miterlimit="4" >
	<path d="
	M 4541.19 -1303.2 
	C 4500.77 -1267.83 4445.19 -1247.62 4384.55 -1247.62 
	C 4260.75 -1247.62 4169.8 -1320.88 4121.79 -1429.51 
	L 4230.43 -1469.93 
	C 4260.75 -1401.72 4316.33 -1363.83 4384.55 -1363.83 
	C 4450.24 -1363.83 4495.71 -1409.3 4495.71 -1469.93 
	C 4495.71 -1565.93 4384.55 -1581.09 4291.06 -1618.98 
	C 4248.12 -1636.67 4152.11 -1679.61 4152.11 -1798.36 
	C 4152.11 -1939.83 4248.12 -1992.88 4376.97 -1992.88 
	C 4478.03 -1992.88 4546.25 -1934.77 4581.61 -1846.35 
	L 4480.56 -1816.04 
	C 4480.56 -1816.04 4455.29 -1876.67 4374.44 -1879.2 
	C 4321.39 -1881.72 4258.22 -1861.52 4263.28 -1795.82 
	C 4273.38 -1661.93 4611.94 -1750.35 4611.94 -1467.41 
	C 4611.94 -1401.72 4586.67 -1343.62 4541.19 -1303.2 
	Z 
	"/>
</g>
<g fill="#7f7f7f" fill-rule="nonzero" stroke-width="0" stroke-linejoin="miter" stroke-linecap="butt" stroke-miterlimit="4" >
	<path d="
	M 1579.15 -1260.25 
	L 1462.93 -1500.25 
	L 1346.71 -1260.25 
	L 1217.86 -1260.25 
	L 1397.24 -1631.62 
	L 1230.49 -1980.25 
	L 1359.34 -1980.25 
	L 1462.93 -1765.51 
	L 1566.52 -1980.25 
	L 1695.37 -1980.25 
	L 1526.09 -1631.62 
	L 1708 -1260.25 
	Z 
	"/>
</g>
<g fill="#7f7f7f" fill-rule="nonzero" stroke-width="0" stroke-linejoin="miter" stroke-linecap="butt" stroke-miterlimit="4" >
	<path d="
	M 6377.63 -1573.51 
	L 6377.63 -1260.25 
	L 6263.37 -1260.25 
	L 6263.37 -1573.51 
	L 6009.45 -1980.25 
	L 6146.56 -1980.25 
	L 6319.23 -1702.36 
	L 6494.43 -1980.25 
	L 6629.01 -1980.25 
	Z 
	"/>
</g>
<g fill="#7f7f7f" fill-rule="nonzero" stroke-width="0" stroke-linejoin="miter" stroke-linecap="butt" stroke-miterlimit="4" >
	<path d="
	M 8896.75 -1836.25 
	C 8879.06 -1853.94 8853.8 -1866.57 8823.48 -1866.57 
	L 8694.63 -1866.57 
	L 8694.63 -1376.46 
	L 8808.32 -1376.46 
	C 8846.22 -1376.46 8868.96 -1384.04 8889.17 -1404.25 
	C 8932.12 -1447.19 8954.85 -1525.52 8954.85 -1621.52 
	C 8954.85 -1717.51 8932.12 -1798.36 8896.75 -1836.25 
	Z 
	M 8944.75 -1300.67 
	C 8916.96 -1275.4 8879.06 -1262.77 8841.17 -1260.25 
	C 8833.59 -1260.25 8818.42 -1260.25 8800.74 -1260.25 
	L 8580.94 -1260.25 
	L 8580.94 -1980.25 
	L 8813.37 -1980.25 
	C 8886.64 -1980.25 8914.44 -1972.67 8952.33 -1942.36 
	C 9028.13 -1876.67 9071.08 -1762.98 9071.08 -1621.52 
	C 9071.08 -1477.51 9025.6 -1363.82 8944.75 -1300.67 
	Z 
	"/>
</g>
<g fill="#7f7f7f" fill-rule="nonzero" stroke-width="0" stroke-linejoin="miter" stroke-linecap="butt" stroke-miterlimit="4" >
	<path d="
	M 699.281 -1260.25 
	L 699.281 -1980.25 
	L 1123.15 -1980.25 
	L 1123.15 -1866.57 
	L 812.816 -1866.57 
	L 812.816 -1689.72 
	L 1022.23 -1689.72 
	L 1022.23 -1573.51 
	L 812.816 -1573.51 
	L 812.816 -1376.46 
	L 1145.86 -1376.46 
	L 1145.86 -1260.25 
	Z 
	"/>
</g>
<g fill="#7f7f7f" fill-rule="nonzero" stroke-width="0" stroke-linejoin="miter" stroke-linecap="butt" stroke-miterlimit="4" >
	<path d="
	M 7349.01 -1260.25 
	L 7349.01 -1980.25 
	L 7772.88 -1980.25 
	L 7772.88 -1866.57 
	L 7462.54 -1866.57 
	L 7462.54 -1689.72 
	L 7671.96 -1689.72 
	L 7671.96 -1573.51 
	L 7462.54 -1573.51 
	L 7462.54 -1376.46 
	L 7795.59 -1376.46 
	L 7795.59 -1260.25 
	Z 
	"/>
</g>
<g fill="#7f7f7f" fill-rule="nonzero" stroke-width="0" stroke-linejoin="miter" stroke-linecap="butt" stroke-miterlimit="4" >
	<path d="
	M 3041.07 -1260.25 
	L 3041.07 -1980.25 
	L 3464.94 -1980.25 
	L 3464.94 -1866.57 
	L 3154.6 -1866.57 
	L 3154.6 -1689.72 
	L 3364.02 -1689.72 
	L 3364.02 -1573.51 
	L 3154.6 -1573.51 
	L 3154.6 -1376.46 
	L 3487.65 -1376.46 
	L 3487.65 -1260.25 
	Z 
	"/>
</g>
<g fill="#7f7f7f" fill-rule="nonzero" stroke-width="0" stroke-linejoin="miter" stroke-linecap="butt" stroke-miterlimit="4" >
	<path d="
	M 5661.34 -1780.67 
	L 5587.65 -1578.56 
	L 5732.49 -1578.56 
	Z 
	M 5844.29 -1260.25 
	L 5773.14 -1462.35 
	L 5547 -1462.35 
	L 5475.86 -1260.25 
	L 5353.89 -1260.25 
	L 5602.9 -1980.25 
	L 5717.24 -1980.25 
	L 5966.25 -1260.25 
	Z 
	"/>
</g>
<g fill="#7f7f7f" fill-rule="nonzero" stroke-width="0" stroke-linejoin="miter" stroke-linecap="butt" stroke-miterlimit="4" >
	<path d="
	M 5375.05 71.75 
	L 5375.05 -648.25 
	L 5490.25 -648.25 
	L 5490.25 71.75 
	Z 
	"/>
</g>
<g fill="#7f7f7f" fill-rule="nonzero" stroke-width="0" stroke-linejoin="miter" stroke-linecap="butt" stroke-miterlimit="4" >
	<path d="
	M 5663.05 71.75 
	L 5663.05 -648.25 
	L 5776.59 -648.25 
	L 5776.59 -34.352 
	L 6109.63 -34.352 
	L 6109.63 71.75 
	Z 
	"/>
</g>
<g fill="#7f7f7f" fill-rule="nonzero" stroke-width="0" stroke-linejoin="miter" stroke-linecap="butt" stroke-miterlimit="4" >
	<path d="
	M 5088.33 71.75 
	L 5088.33 -345.09 
	L 4921.26 71.75 
	L 4754.2 -345.09 
	L 4754.2 71.75 
	L 4640.29 71.75 
	L 4640.29 -648.25 
	L 4754.2 -648.25 
	L 4921.26 -244.04 
	L 5088.33 -648.25 
	L 5202.24 -648.25 
	L 5202.24 71.75 
	Z 
	"/>
</g>
<g fill="#7f7f7f" fill-rule="nonzero" stroke-width="0" stroke-linejoin="miter" stroke-linecap="butt" stroke-miterlimit="4" >
	<path d="
	M 6217.63 71.75 
	L 6217.63 -648.25 
	L 6641.5 -648.25 
	L 6641.5 -534.56 
	L 6331.16 -534.56 
	L 6331.16 -357.72 
	L 6540.58 -357.72 
	L 6540.58 -241.51 
	L 6331.16 -241.51 
	L 6331.16 -44.461 
	L 6664.21 -44.461 
	L 6664.21 71.75 
	Z 
	"/>
</g>
<g fill="#7f7f7f" fill-rule="nonzero" stroke-width="0" stroke-linejoin="miter" stroke-linecap="butt" stroke-miterlimit="4" >
	<path d="
	M 3782.29 143.75 
	L 3782.29 -556.54 
	L 3704.29 -556.54 
	L 3704.29 -665.68 
	L 3713.29 -665.68 
	C 3749.29 -665.68 3788.29 -686.9 3812.29 -720.25 
	L 3920.29 -720.25 
	L 3920.29 143.75 
	Z 
	"/>
</g>
</g >
</g>
</svg>
