<?xml version="1.0" encoding="UTF-8" standalone="no"?>
<!-- Created with Inkscape (http://www.inkscape.org/) -->

<svg
   version="1.1"
   id="svg1"
   width="8640.667"
   height="4608.6665"
   viewBox="0 0 8640.667 4608.6665"
   sodipodi:docname="tmprxca90_h.pdf"
   xmlns:inkscape="http://www.inkscape.org/namespaces/inkscape"
   xmlns:sodipodi="http://sodipodi.sourceforge.net/DTD/sodipodi-0.dtd"
   xmlns="http://www.w3.org/2000/svg"
   xmlns:svg="http://www.w3.org/2000/svg">
  <defs
     id="defs1" />
  <sodipodi:namedview
     id="namedview1"
     pagecolor="#ffffff"
     bordercolor="#000000"
     borderopacity="0.25"
     inkscape:showpageshadow="2"
     inkscape:pageopacity="0.0"
     inkscape:pagecheckerboard="0"
     inkscape:deskcolor="#d1d1d1">
    <inkscape:page
       x="0"
       y="0"
       inkscape:label="1"
       id="page1"
       width="8640.667"
       height="4608.6665"
       margin="0"
       bleed="0" />
  </sodipodi:namedview>
  <g
     id="g1"
     inkscape:groupmode="layer"
     inkscape:label="1">
    <g
       id="group-R5">
      <path
         id="path2"
         d="m 64802.5,2162.5 c 0,-1192.898 -967.1,-2160 -2160,-2160 H 2162.5 C 969.566,2.5 2.5,969.602 2.5,2162.5 v 30240 c 0,1192.9 967.066,2160 2160,2160 h 60480 c 1192.9,0 2160,-967.1 2160,-2160 v -30240"
         style="fill:#fccc2d;fill-opacity:1;fill-rule:nonzero;stroke:none"
         transform="matrix(0.13333333,0,0,-0.13333333,0,4608.6667)" />
      <path
         id="path3"
         d="m 64802.5,2162.5 c 0,-1192.898 -967.1,-2160 -2160,-2160 H 2162.5 C 969.566,2.5 2.5,969.602 2.5,2162.5 v 30240 c 0,1192.9 967.066,2160 2160,2160 h 60480 c 1192.9,0 2160,-967.1 2160,-2160 z"
         style="fill:none;stroke:#231f20;stroke-width:5;stroke-linecap:butt;stroke-linejoin:miter;stroke-miterlimit:4;stroke-dasharray:none;stroke-opacity:1"
         transform="matrix(0.13333333,0,0,-0.13333333,0,4608.6667)" />
      <path
         id="path4"
         d="m 63362.5,2162.5 c 0,-397 -323,-720 -720,-720 h -60480 c -397.01,0 -720,323 -720,720 v 30240 c 0,397 322.99,720 720,720 h 60480 c 397,0 720,-323 720,-720 z m -720,31860 h -60480 c -893.27,0 -1620,-726.7 -1620,-1620 v -30240 c 0,-893.3 726.73,-1620 1620,-1620 h 60480 c 893.3,0 1620,726.7 1620,1620 v 30240 c 0,893.3 -726.7,1620 -1620,1620"
         style="fill:#231f20;fill-opacity:1;fill-rule:nonzero;stroke:none"
         transform="matrix(0.13333333,0,0,-0.13333333,0,4608.6667)" />
      <path
         id="path5"
         d="m 48255.8,7562.5 v 6480 h 1036.8 v -6480 h -1036.8"
         style="fill:#231f20;fill-opacity:1;fill-rule:nonzero;stroke:none"
         transform="matrix(0.13333333,0,0,-0.13333333,0,4608.6667)" />
      <path
         id="path6"
         d="m 14553.6,7562.5 v 3751.6 L 13050,7562.5 11546.4,11314.1 V 7562.5 h -1025.2 v 6480 h 1025.2 l 1503.6,-3637.9 1503.6,3637.9 h 1025.2 v -6480 h -1025.2"
         style="fill:#231f20;fill-opacity:1;fill-rule:nonzero;stroke:none"
         transform="matrix(0.13333333,0,0,-0.13333333,0,4608.6667)" />
      <path
         id="path7"
         d="m 21249.8,8540.2 c -341.1,-636.7 -1114.2,-1091.4 -1910.1,-1091.4 -795.8,0 -1568.9,454.7 -1910,1091.4 -181.9,386.5 -295.6,841.2 -295.6,1341.4 v 4160.9 h 1023.2 V 9881.6 c 0,-841.2 477.5,-1386.9 1182.4,-1386.9 704.9,0 1182.4,545.7 1182.4,1386.9 v 4160.9 h 1023.3 V 9881.6 c 0,-500.2 -113.7,-954.9 -295.6,-1341.4"
         style="fill:#231f20;fill-opacity:1;fill-rule:nonzero;stroke:none"
         transform="matrix(0.13333333,0,0,-0.13333333,0,4608.6667)" />
      <path
         id="path8"
         d="M 30088.6,13133 V 7562.5 H 29061 V 13133 h -1484.4 v 909.5 h 4019.2 V 13133 h -1507.2"
         style="fill:#231f20;fill-opacity:1;fill-rule:nonzero;stroke:none"
         transform="matrix(0.13333333,0,0,-0.13333333,0,4608.6667)" />
      <path
         id="path9"
         d="M 52776.6,13133 V 7562.5 H 51749 V 13133 h -1484.4 v 909.5 h 4019.2 V 13133 h -1507.2"
         style="fill:#231f20;fill-opacity:1;fill-rule:nonzero;stroke:none"
         transform="matrix(0.13333333,0,0,-0.13333333,0,4608.6667)" />
      <path
         id="path10"
         d="m 26421.5,7949 c -363.8,-318.3 -864,-500.2 -1409.7,-500.2 -1114.2,0 -1932.8,659.4 -2364.8,1637 l 977.7,363.8 c 272.9,-613.8 773.1,-954.9 1387.1,-954.9 591.2,0 1000.5,409.3 1000.5,954.9 0,864 -1000.5,1000.4 -1841.9,1341.5 -386.5,159.2 -1250.6,545.7 -1250.6,1614.3 0,1273.3 864.1,1750.8 2023.8,1750.8 909.5,0 1523.4,-523 1841.8,-1318.8 l -909.5,-272.8 c 0,0 -227.4,545.7 -955.1,568.4 -477.5,22.7 -1046,-159.1 -1000.5,-750.3 91,-1205.1 3137.9,-409.3 3137.9,-2955.8 0,-591.1 -227.4,-1114.1 -636.7,-1477.9"
         style="fill:#231f20;fill-opacity:1;fill-rule:nonzero;stroke:none"
         transform="matrix(0.13333333,0,0,-0.13333333,0,4608.6667)" />
      <path
         id="path11"
         d="m 45994.6,7562.5 -1046,2160 -1045.9,-2160 H 42743 l 1614.4,3342.3 -1500.7,3137.7 h 1159.7 l 932.2,-1932.7 932.3,1932.7 h 1159.7 l -1523.5,-3137.7 1637.2,-3342.3 h -1159.7"
         style="fill:#231f20;fill-opacity:1;fill-rule:nonzero;stroke:none"
         transform="matrix(0.13333333,0,0,-0.13333333,0,4608.6667)" />
      <path
         id="path12"
         d="m 38075.8,7562.5 v 6480 h 3814.8 v -1023.2 h -2793 v -1591.6 h 1884.8 V 10381.8 H 39097.6 V 8608.4 H 42095 V 7562.5 h -4019.2"
         style="fill:#231f20;fill-opacity:1;fill-rule:nonzero;stroke:none"
         transform="matrix(0.13333333,0,0,-0.13333333,0,4608.6667)" />
      <path
         id="path13"
         d="m 11268.8,20522.5 v 6480.1 h 1021.8 V 21477.4 H 15288 v -954.9 h -4019.2"
         style="fill:#231f20;fill-opacity:1;fill-rule:nonzero;stroke:none"
         transform="matrix(0.13333333,0,0,-0.13333333,0,4608.6667)" />
      <path
         id="path14"
         d="m 16260,20522.5 v 6480.1 h 1021.9 v -5525.2 h 2997.4 v -954.9 H 16260"
         style="fill:#231f20;fill-opacity:1;fill-rule:nonzero;stroke:none"
         transform="matrix(0.13333333,0,0,-0.13333333,0,4608.6667)" />
      <path
         id="path15"
         d="M 29271.2,26093 V 20522.5 H 28243.7 V 26093 h -1484.4 v 909.5 h 4019.2 V 26093 h -1507.3"
         style="fill:#231f20;fill-opacity:1;fill-rule:nonzero;stroke:none"
         transform="matrix(0.13333333,0,0,-0.13333333,0,4608.6667)" />
      <path
         id="path16"
         d="m 34592.7,25865.7 c -159.1,90.9 -250.1,113.6 -591.1,113.6 h -1227.9 v -1591.5 h 1227.9 c 318.3,0 432,22.7 591.1,113.6 250.2,136.5 409.4,409.3 409.4,682.1 0,272.9 -159.2,545.7 -409.4,682.2 z m 454.8,-5343.2 -1045.9,2819.4 h -1227.9 v -2819.4 h -1023.2 v 6480 h 2137.4 c 500.2,0 841.3,-45.5 1159.6,-204.6 568.5,-272.9 977.8,-955 977.8,-1614.4 0,-682.1 -409.3,-1364.2 -1000.5,-1637 l 1137,-3024 h -1114.3"
         style="fill:#231f20;fill-opacity:1;fill-rule:nonzero;stroke:none"
         transform="matrix(0.13333333,0,0,-0.13333333,0,4608.6667)" />
      <path
         id="path17"
         d="m 7552.62,25206.3 -663.17,-1819 h 1303.48 z m 1646.52,-4683.8 -640.31,1818.9 H 6523.55 L 5883.24,20522.5 H 4785.57 l 2241.08,6480 h 1029.07 l 2241.08,-6480 H 9199.14"
         style="fill:#231f20;fill-opacity:1;fill-rule:nonzero;stroke:none"
         transform="matrix(0.13333333,0,0,-0.13333333,0,4608.6667)" />
      <path
         id="path18"
         d="m 39447.2,25206.3 -663.2,-1819 h 1303.5 z m 1646.5,-4683.8 -640.3,1818.9 h -2035.3 l -640.3,-1818.9 h -1097.7 l 2241.1,6480 h 1029.1 l 2241.1,-6480 h -1097.7"
         style="fill:#231f20;fill-opacity:1;fill-rule:nonzero;stroke:none"
         transform="matrix(0.13333333,0,0,-0.13333333,0,4608.6667)" />
      <path
         id="path19"
         d="m 44185.2,25979.4 v -1591.7 h 1884.7 v -1045.9 h -1884.7 v -2819.3 h -1021.9 v 6480 h 4019.3 v -1023.1 h -2997.4"
         style="fill:#231f20;fill-opacity:1;fill-rule:nonzero;stroke:none"
         transform="matrix(0.13333333,0,0,-0.13333333,0,4608.6667)" />
      <path
         id="path20"
         d="m 49176.4,25979.4 v -1591.7 h 1884.7 v -1045.9 h -1884.7 v -2819.3 h -1021.8 v 6480 h 4019.2 v -1023.1 h -2997.4"
         style="fill:#231f20;fill-opacity:1;fill-rule:nonzero;stroke:none"
         transform="matrix(0.13333333,0,0,-0.13333333,0,4608.6667)" />
      <path
         id="path21"
         d="m 53145.8,20522.5 v 6480 h 1036.8 v -6480 h -1036.8"
         style="fill:#231f20;fill-opacity:1;fill-rule:nonzero;stroke:none"
         transform="matrix(0.13333333,0,0,-0.13333333,0,4608.6667)" />
      <path
         id="path22"
         d="m 58063.9,20408.8 c -955,0 -1568.9,363.8 -1978.2,1159.6 -295.6,568.4 -477.5,1386.9 -477.5,2205.5 0,1023.1 272.9,2046.3 727.6,2614.7 386.5,477.5 932.3,727.6 1659.9,727.6 977.8,0 1591.7,-409.3 2023.7,-1318.8 l -955,-409.2 c -363.8,545.7 -568.4,682.1 -1068.7,682.1 -522.9,0 -864.1,-227.4 -1091.4,-795.8 -159.2,-386.5 -250.2,-955 -250.2,-1500.6 0,-704.9 159.2,-1409.7 409.3,-1819 227.4,-341 523,-500.2 977.8,-500.2 432,0 750.3,227.4 1000.5,750.3 l 977.7,-363.8 c -386.5,-954.9 -1023.2,-1432.4 -1955.5,-1432.4"
         style="fill:#231f20;fill-opacity:1;fill-rule:nonzero;stroke:none"
         transform="matrix(0.13333333,0,0,-0.13333333,0,4608.6667)" />
    </g>
  </g>
</svg>
