<?xml version="1.0" encoding="UTF-8" standalone="no"?>
<!-- Created with Inkscape (http://www.inkscape.org/) -->

<svg
   version="1.1"
   id="svg1"
   width="13824.667"
   height="4608.6665"
   viewBox="0 0 13824.667 4608.6665"
   sodipodi:docname="tmp6rnwqwor.pdf"
   xmlns:inkscape="http://www.inkscape.org/namespaces/inkscape"
   xmlns:sodipodi="http://sodipodi.sourceforge.net/DTD/sodipodi-0.dtd"
   xmlns="http://www.w3.org/2000/svg"
   xmlns:svg="http://www.w3.org/2000/svg">
  <defs
     id="defs1" />
  <sodipodi:namedview
     id="namedview1"
     pagecolor="#ffffff"
     bordercolor="#000000"
     borderopacity="0.25"
     inkscape:showpageshadow="2"
     inkscape:pageopacity="0.0"
     inkscape:pagecheckerboard="0"
     inkscape:deskcolor="#d1d1d1">
    <inkscape:page
       x="0"
       y="0"
       inkscape:label="1"
       id="page1"
       width="13824.667"
       height="4608.6665"
       margin="0"
       bleed="0" />
  </sodipodi:namedview>
  <g
     id="g1"
     inkscape:groupmode="layer"
     inkscape:label="1">
    <g
       id="group-R5">
      <path
         id="path2"
         d="m 103682,2162.5 c 0,-1192.898 -967,-2160 -2160,-2160 H 2162.5 C 969.566,2.5 2.5,969.602 2.5,2162.5 v 30240 c 0,1192.9 967.066,2160 2160,2160 H 101522 c 1193,0 2160,-967.1 2160,-2160 v -30240"
         style="fill:#fccc2d;fill-opacity:1;fill-rule:nonzero;stroke:none"
         transform="matrix(0.13333333,0,0,-0.13333333,0,4608.6667)" />
      <path
         id="path3"
         d="m 103682,2162.5 c 0,-1192.898 -967,-2160 -2160,-2160 H 2162.5 C 969.566,2.5 2.5,969.602 2.5,2162.5 v 30240 c 0,1192.9 967.066,2160 2160,2160 H 101522 c 1193,0 2160,-967.1 2160,-2160 z"
         style="fill:none;stroke:#231f20;stroke-width:5;stroke-linecap:butt;stroke-linejoin:miter;stroke-miterlimit:4;stroke-dasharray:none;stroke-opacity:1"
         transform="matrix(0.13333333,0,0,-0.13333333,0,4608.6667)" />
      <path
         id="path4"
         d="m 102242,2162.5 c 0,-397 -323,-720 -720,-720 H 2162.5 c -397.01,0 -720,323 -720,720 v 30240 c 0,397 322.99,720 720,720 H 101522 c 397,0 720,-323 720,-720 z m -720,31860 H 2162.5 c -893.27,0 -1620,-726.7 -1620,-1620 v -30240 c 0,-893.3 726.73,-1620 1620,-1620 H 101522 c 893,0 1620,726.7 1620,1620 v 30240 c 0,893.3 -727,1620 -1620,1620"
         style="fill:#231f20;fill-opacity:1;fill-rule:nonzero;stroke:none"
         transform="matrix(0.13333333,0,0,-0.13333333,0,4608.6667)" />
      <path
         id="path5"
         d="m 83070.8,20522.5 -2753.9,4875.8 v -4875.8 h -1137 v 7200 h 1137 l 2627.5,-4597.9 v 4597.9 h 1136.9 v -7200 h -1010.5"
         style="fill:#231f20;fill-opacity:1;fill-rule:nonzero;stroke:none"
         transform="matrix(0.13333333,0,0,-0.13333333,0,4608.6667)" />
      <path
         id="path6"
         d="m 21613.7,26459.4 c -202.1,101 -328.5,126.3 -682.2,126.3 h -1490.6 v -1768.5 h 1490.6 c 353.7,0 480.1,25.3 682.2,126.3 252.6,126.4 429.5,454.8 429.5,757.9 0,303.2 -176.9,606.3 -429.5,758 z m 480,-2551.7 c -328.4,-151.5 -757.9,-252.6 -1313.8,-252.6 h -1339 V 20522.5 H 18304 v 7200 h 2475.9 c 581.1,0 960.1,-50.6 1313.8,-227.3 631.6,-303.2 1111.7,-1061.1 1111.7,-1793.8 0,-757.9 -480.1,-1515.8 -1111.7,-1793.7"
         style="fill:#231f20;fill-opacity:1;fill-rule:nonzero;stroke:none"
         transform="matrix(0.13333333,0,0,-0.13333333,0,4608.6667)" />
      <path
         id="path7"
         d="m 27443.4,26459.3 c -176.8,101.1 -277.9,126.3 -656.9,126.3 h -1364.3 v -1768.4 h 1364.3 c 353.8,0 480.1,25.3 656.9,126.3 277.9,151.6 454.8,454.8 454.8,757.9 0,303.2 -176.9,606.4 -454.8,757.9 z m 505.3,-5936.8 -1162.2,3132.6 h -1364.3 v -3132.6 h -1136.9 v 7200 h 2374.9 c 555.8,0 934.8,-50.5 1288.5,-227.4 631.6,-303.2 1086.4,-1061 1086.4,-1793.7 0,-757.9 -454.8,-1515.8 -1111.6,-1818.9 l 1263.2,-3360 h -1238"
         style="fill:#231f20;fill-opacity:1;fill-rule:nonzero;stroke:none"
         transform="matrix(0.13333333,0,0,-0.13333333,0,4608.6667)" />
      <path
         id="path8"
         d="m 52042.5,20522.5 h -1013.6 l -1140.5,4623.2 -1115.1,-4623.2 h -1013.6 l -1064.4,7200 H 47861 l 557.6,-3789.5 912.3,3789.5 H 50446 l 937.6,-3789.5 557.6,3789.5 h 1165.7 l -1064.4,-7200"
         style="fill:#231f20;fill-opacity:1;fill-rule:nonzero;stroke:none"
         transform="matrix(0.13333333,0,0,-0.13333333,0,4608.6667)" />
      <path
         id="path9"
         d="m 39790.5,20951.9 c -404.2,-353.6 -960,-555.7 -1566.4,-555.7 -1238,0 -2147.5,732.6 -2627.6,1818.9 l 1086.4,404.2 c 303.2,-682.1 859,-1061 1541.2,-1061 656.9,0 1111.6,454.7 1111.6,1061 0,960 -1111.6,1111.6 -2046.4,1490.5 -429.5,176.9 -1389.6,606.3 -1389.6,1793.7 0,1414.7 960.1,1945.3 2248.6,1945.3 1010.6,0 1692.8,-581.1 2046.4,-1465.3 l -1010.5,-303.1 c 0,0 -252.7,606.3 -1061.2,631.5 -530.5,25.3 -1162.2,-176.8 -1111.6,-833.7 101,-1338.9 3486.5,-454.7 3486.5,-3284.1 0,-656.9 -252.6,-1237.9 -707.4,-1642.2"
         style="fill:#231f20;fill-opacity:1;fill-rule:nonzero;stroke:none"
         transform="matrix(0.13333333,0,0,-0.13333333,0,4608.6667)" />
      <path
         id="path10"
         d="m 95984.8,20952 c -404.3,-353.7 -960.1,-555.8 -1566.4,-555.8 -1238,0 -2147.5,732.6 -2627.6,1818.9 l 1086.4,404.2 c 303.2,-682.1 859,-1061 1541.2,-1061 656.9,0 1111.6,454.7 1111.6,1061 0,960 -1111.6,1111.6 -2046.5,1490.5 -429.4,176.9 -1389.5,606.3 -1389.5,1793.7 0,1414.8 960.1,1945.3 2248.6,1945.3 1010.5,0 1692.7,-581 2046.4,-1465.3 l -1010.6,-303.1 c 0,0 -252.6,606.3 -1061.1,631.5 -530.6,25.3 -1162.2,-176.8 -1111.7,-833.6 101.1,-1339 3486.6,-454.8 3486.6,-3284.2 0,-656.9 -252.7,-1237.9 -707.4,-1642.1"
         style="fill:#231f20;fill-opacity:1;fill-rule:nonzero;stroke:none"
         transform="matrix(0.13333333,0,0,-0.13333333,0,4608.6667)" />
      <path
         id="path11"
         d="m 45411.9,20952 c -404.2,-353.7 -960,-555.8 -1566.4,-555.8 -1238,0 -2147.5,732.6 -2627.6,1818.9 l 1086.4,404.2 c 303.2,-682.1 859,-1061 1541.2,-1061 656.9,0 1111.6,454.7 1111.6,1061 0,960 -1111.6,1111.6 -2046.5,1490.5 -429.4,176.9 -1389.5,606.3 -1389.5,1793.7 0,1414.8 960.1,1945.3 2248.6,1945.3 1010.6,0 1692.8,-581 2046.4,-1465.3 l -1010.5,-303.1 c 0,0 -252.7,606.3 -1061.2,631.5 -530.5,25.3 -1162.2,-176.8 -1111.6,-833.6 101,-1339 3486.6,-454.8 3486.6,-3284.2 0,-656.9 -252.7,-1237.9 -707.5,-1642.1"
         style="fill:#231f20;fill-opacity:1;fill-rule:nonzero;stroke:none"
         transform="matrix(0.13333333,0,0,-0.13333333,0,4608.6667)" />
      <path
         id="path12"
         d="m 15791.5,20522.5 -1162.2,2400 -1162.2,-2400 h -1288.5 l 1793.8,3713.7 -1667.5,3486.3 h 1288.5 l 1035.9,-2147.4 1035.9,2147.4 h 1288.5 L 15260.9,24236.2 17080,20522.5 h -1288.5"
         style="fill:#231f20;fill-opacity:1;fill-rule:nonzero;stroke:none"
         transform="matrix(0.13333333,0,0,-0.13333333,0,4608.6667)" />
      <path
         id="path13"
         d="m 63776.3,23655.1 v -3132.6 h -1142.6 v 3132.6 l -2539.2,4067.4 h 1371.1 l 1726.7,-2779 1752,2779 h 1345.8 l -2513.8,-4067.4"
         style="fill:#231f20;fill-opacity:1;fill-rule:nonzero;stroke:none"
         transform="matrix(0.13333333,0,0,-0.13333333,0,4608.6667)" />
      <path
         id="path14"
         d="m 88967.5,26282.5 c -176.9,176.9 -429.5,303.2 -732.7,303.2 h -1288.5 v -4901.1 h 1136.9 c 379,0 606.4,75.8 808.5,277.9 429.5,429.4 656.8,1212.7 656.8,2172.7 0,959.9 -227.3,1768.3 -581,2147.3 z m 480,-5355.8 c -277.9,-252.7 -656.9,-379 -1035.8,-404.2 -75.8,0 -227.5,0 -404.3,0 h -2198 v 7200 h 2324.3 c 732.7,0 1010.7,-75.8 1389.6,-379 758,-656.8 1187.5,-1793.7 1187.5,-3208.3 0,-1440.1 -454.8,-2577 -1263.3,-3208.5"
         style="fill:#231f20;fill-opacity:1;fill-rule:nonzero;stroke:none"
         transform="matrix(0.13333333,0,0,-0.13333333,0,4608.6667)" />
      <path
         id="path15"
         d="m 6992.81,20522.5 v 7200 H 11231.5 V 26585.7 H 8128.16 V 24817.2 H 10222.3 V 23655.1 H 8128.16 V 21684.6 H 11458.6 V 20522.5 H 6992.81"
         style="fill:#231f20;fill-opacity:1;fill-rule:nonzero;stroke:none"
         transform="matrix(0.13333333,0,0,-0.13333333,0,4608.6667)" />
      <path
         id="path16"
         d="m 73490.1,20522.5 v 7200 h 4238.7 v -1136.8 h -3103.4 v -1768.5 h 2094.2 v -1162.1 h -2094.2 v -1970.5 h 3330.5 v -1162.1 h -4465.8"
         style="fill:#231f20;fill-opacity:1;fill-rule:nonzero;stroke:none"
         transform="matrix(0.13333333,0,0,-0.13333333,0,4608.6667)" />
      <path
         id="path17"
         d="m 30410.7,20522.5 v 7200 h 4238.7 V 26585.7 H 31546 v -1768.5 h 2094.2 V 23655.1 H 31546 v -1970.5 h 3330.5 v -1162.1 h -4465.8"
         style="fill:#231f20;fill-opacity:1;fill-rule:nonzero;stroke:none"
         transform="matrix(0.13333333,0,0,-0.13333333,0,4608.6667)" />
      <path
         id="path18"
         d="m 56613.4,25726.7 -736.9,-2021.1 h 1448.4 z m 1829.5,-5204.2 -711.5,2021 H 55470 l -711.4,-2021 h -1219.7 l 2490.1,7200 h 1143.4 l 2490.1,-7200 h -1219.6"
         style="fill:#231f20;fill-opacity:1;fill-rule:nonzero;stroke:none"
         transform="matrix(0.13333333,0,0,-0.13333333,0,4608.6667)" />
      <path
         id="path19"
         d="m 53750.5,7202.5 v 7200 h 1152 v -7200 h -1152"
         style="fill:#231f20;fill-opacity:1;fill-rule:nonzero;stroke:none"
         transform="matrix(0.13333333,0,0,-0.13333333,0,4608.6667)" />
      <path
         id="path20"
         d="m 56630.5,7202.5 v 7200 h 1135.4 v -6139 h 3330.4 v -1061 h -4465.8"
         style="fill:#231f20;fill-opacity:1;fill-rule:nonzero;stroke:none"
         transform="matrix(0.13333333,0,0,-0.13333333,0,4608.6667)" />
      <path
         id="path21"
         d="m 50883.3,7202.5 v 4168.4 L 49212.6,7202.5 47542,11370.9 V 7202.5 h -1139.1 v 7200 H 47542 l 1670.6,-4042.1 1670.7,4042.1 h 1139.1 v -7200 h -1139.1"
         style="fill:#231f20;fill-opacity:1;fill-rule:nonzero;stroke:none"
         transform="matrix(0.13333333,0,0,-0.13333333,0,4608.6667)" />
      <path
         id="path22"
         d="m 62176.3,7202.5 v 7200 H 66415 v -1136.9 h -3103.4 v -1768.4 h 2094.2 V 10335.1 H 63311.6 V 8364.6 h 3330.5 V 7202.5 h -4465.8"
         style="fill:#231f20;fill-opacity:1;fill-rule:nonzero;stroke:none"
         transform="matrix(0.13333333,0,0,-0.13333333,0,4608.6667)" />
      <path
         id="path23"
         d="m 37822.9,6482.5 v 7002.9 h -780 v 1091.4 h 90 c 360,0 750,212.2 990,545.7 h 1080 v -8640 h -1380"
         style="fill:#231f20;fill-opacity:1;fill-rule:nonzero;stroke:none"
         transform="matrix(0.13333333,0,0,-0.13333333,0,4608.6667)" />
    </g>
  </g>
</svg>
