<?xml version="1.0" encoding="UTF-8" standalone="no"?>
<!-- Created with Inkscape (http://www.inkscape.org/) -->

<svg
   version="1.1"
   id="svg1"
   width="4187.8667"
   height="3703.3066"
   viewBox="0 0 4187.8667 3703.3066"
   sodipodi:docname="tmpy82_1esl.pdf"
   xmlns:inkscape="http://www.inkscape.org/namespaces/inkscape"
   xmlns:sodipodi="http://sodipodi.sourceforge.net/DTD/sodipodi-0.dtd"
   xmlns="http://www.w3.org/2000/svg"
   xmlns:svg="http://www.w3.org/2000/svg">
  <defs
     id="defs1" />
  <sodipodi:namedview
     id="namedview1"
     pagecolor="#ffffff"
     bordercolor="#000000"
     borderopacity="0.25"
     inkscape:showpageshadow="2"
     inkscape:pageopacity="0.0"
     inkscape:pagecheckerboard="0"
     inkscape:deskcolor="#d1d1d1">
    <inkscape:page
       x="0"
       y="0"
       inkscape:label="1"
       id="page1"
       width="4187.8667"
       height="3703.3066"
       margin="0"
       bleed="0" />
  </sodipodi:namedview>
  <g
     id="g1"
     inkscape:groupmode="layer"
     inkscape:label="1">
    <g
       id="group-R5">
      <path
         id="path2"
         d="m 15704.5,1.19922 c -781.3,0 -1481,404.00378 -1871.7,1080.60078 L 294.023,24531.7 c -390.6636,676.6 -390.6636,1484.6 0,2161.2 390.668,676.7 1090.367,1080.7 1871.707,1080.7 H 29243.3 c 781.3,0 1481,-404 1871.7,-1080.7 390.7,-676.6 390.7,-1484.6 0,-2161.2 L 17576.2,1081.8 C 17185.5,405.203 16485.8,1.19922 15704.5,1.19922"
         style="fill:#ffffff;fill-opacity:1;fill-rule:nonzero;stroke:none"
         transform="matrix(0.13333333,0,0,-0.13333333,0,3703.3067)" />
      <path
         id="path3"
         d="M 29243.3,27774.8 H 2165.72 c -202.91,0 -402.27,-27 -592.54,-80.2 -182.43,-51.1 -357.19,-126.4 -519.42,-223.9 C 741.082,27282.8 477.992,27014.1 292.941,26693.6 107.891,26373 6.70703,26010.8 0.324219,25646.1 -2.98438,25456.9 19.1641,25267.8 66.1641,25084.3 115.191,24892.9 191.484,24706.8 292.941,24531.1 L 13831.7,1081.2 c 101.5,-175.696 224.5,-334.899 365.8,-472.997 135.4,-132.5 288,-246.203 453.6,-337.902 C 14970.1,93.4023 15334.4,0 15704.5,0 c 370.1,0 734.4,93.4023 1053.4,270.301 165.6,91.699 318.2,205.402 453.6,337.902 141.3,138.098 264.3,297.301 365.8,472.997 l 13538.8,23449.9 c 101.4,175.7 177.7,361.8 226.7,553.2 47,183.5 69.2,372.6 65.9,561.8 -6.4,364.7 -107.6,726.9 -292.6,1047.5 -185.1,320.5 -448.2,589.2 -760.8,777.1 -162.3,97.5 -337,172.8 -519.5,223.9 -190.2,53.2 -389.6,80.2 -592.5,80.2 z m 0,-2.5 c 1662.8,0 2702,-1800 1870.6,-3240 L 17575.1,1082.5 C 17159.4,362.5 16432,2.5 15704.5,2.5 c -727.5,0 -1454.9,360 -1870.6,1080 L 295.105,24532.3 c -831.382,1440 207.852,3240 1870.615,3240 H 29243.3"
         style="fill:#231f20;fill-opacity:1;fill-rule:nonzero;stroke:none"
         transform="matrix(0.13333333,0,0,-0.13333333,0,3703.3067)" />
      <path
         id="path4"
         d="m 16951.6,1442.5 13538.8,23449.8 c 554.2,960 -138.6,2160 -1247.1,2160 H 2165.73 c -1108.51,0 -1801.332,-1200 -1247.074,-2160 L 14457.4,1442.5 c 554.3,-960 1939.9,-960 2494.2,0"
         style="fill:#bf2519;fill-opacity:1;fill-rule:nonzero;stroke:none"
         transform="matrix(0.13333333,0,0,-0.13333333,0,3703.3067)" />
      <path
         id="path5"
         d="m 16951.6,10082.5 6056.3,10489.8 c 554.2,960 -138.6,2160 -1247.1,2160 H 9648.2 c -1108.52,0 -1801.34,-1200 -1247.08,-2160 L 14457.4,10082.5 c 554.3,-960 1939.9,-960 2494.2,0"
         style="fill:#ffffff;fill-opacity:1;fill-rule:nonzero;stroke:none"
         transform="matrix(0.13333333,0,0,-0.13333333,0,3703.3067)" />
      <path
         id="path6"
         d="m 12329.8,17872.3 h -415.4 v 1303.6 l -709.2,1576.4 h 435.6 l 486.4,-1040.8 476.2,1040.8 h 445.7 l -719.3,-1576.4 v -1303.6"
         style="fill:#bf2519;fill-opacity:1;fill-rule:nonzero;stroke:none"
         transform="matrix(0.13333333,0,0,-0.13333333,0,3703.3067)" />
      <path
         id="path7"
         d="m 13452.4,20752.3 h 403.2 v -2880 h -403.2 v 2880"
         style="fill:#bf2519;fill-opacity:1;fill-rule:nonzero;stroke:none"
         transform="matrix(0.13333333,0,0,-0.13333333,0,3703.3067)" />
      <path
         id="path8"
         d="m 14489.2,20752.3 h 1357.9 V 20348 h -942.5 v -727.5 h 597.6 v -394.2 h -597.6 v -950.1 h 1054.1 v -403.9 h -1469.5 v 2880"
         style="fill:#bf2519;fill-opacity:1;fill-rule:nonzero;stroke:none"
         transform="matrix(0.13333333,0,0,-0.13333333,0,3703.3067)" />
      <path
         id="path9"
         d="m 16448.3,20752.3 h 415.4 v -2495.9 h 1054.1 v -384.1 h -1469.5 v 2880"
         style="fill:#bf2519;fill-opacity:1;fill-rule:nonzero;stroke:none"
         transform="matrix(0.13333333,0,0,-0.13333333,0,3703.3067)" />
      <path
         id="path10"
         d="m 19057.2,20348 h -322.9 v -2071.4 h 287.3 c 336.9,0 509.4,147.2 509.4,1020.6 0,1011.9 -252.4,1050.8 -473.8,1050.8 z M 18321,17872.3 v 2880 h 821.9 c 175.7,0 791.6,-8.6 791.6,-1435 0,-1305 -568.8,-1445 -757.4,-1445 H 18321"
         style="fill:#bf2519;fill-opacity:1;fill-rule:nonzero;stroke:none"
         transform="matrix(0.13333333,0,0,-0.13333333,0,3703.3067)" />
    </g>
  </g>
</svg>
