<?xml version="1.0" encoding="UTF-8"?>
<svg id="For_Sheets" xmlns="http://www.w3.org/2000/svg" version="1.1" viewBox="0 0 3140.9 2777.5">
  <!-- Generator: Adobe Illustrator 29.1.0, SVG Export Plug-In . SVG Version: 2.1.0 Build 142)  -->
  <defs>
    <style>
      .st0 {
        fill: #231f20;
      }

      .st1 {
        fill: #fff;
      }

      .st2 {
        fill: #bf311a;
      }
    </style>
  </defs>
  <g>
    <g>
      <path class="st1" d="M1570.5,2777.4c-78.1,0-148.1-40.4-187.2-108.1L29.4,324.3c-39.1-67.7-39.1-148.5,0-216.1C68.5,40.5,138.4.1,216.6.1h2707.8c78.1,0,148.1,40.4,187.2,108.1s39.1,148.5,0,216.1l-1353.9,2345c-39.1,67.7-109,108.1-187.2,108.1Z"/>
      <path class="st0" d="M2924.3.2c166.3,0,270.2,180,187.1,324l-1353.9,2345c-41.6,72-114.3,108-187.1,108s-145.5-36-187.1-108L29.5,324.2C-53.6,180.2,50.3.2,216.6.2h2707.8M2924.3,0H216.6c-20.3,0-40.2,2.7-59.3,8-18.2,5.1-35.7,12.6-51.9,22.4-31.3,18.8-57.6,45.7-76.1,77.7C10.8,140.2.7,176.4,0,212.9c-.3,18.9,1.9,37.8,6.6,56.2,4.9,19.1,12.5,37.8,22.7,55.3l1353.9,2345c10.1,17.6,22.5,33.5,36.6,47.3,13.5,13.2,28.8,24.6,45.4,33.8,31.9,17.7,68.3,27,105.3,27s73.4-9.3,105.3-27c16.6-9.2,31.8-20.5,45.4-33.8,14.1-13.8,26.4-29.7,36.6-47.3L3111.6,324.4c10.1-17.6,17.8-36.2,22.7-55.3,4.7-18.4,6.9-37.3,6.6-56.2-.6-36.5-10.8-72.7-29.3-104.7-18.5-32.1-44.8-58.9-76.1-77.7-16.2-9.7-33.7-17.3-51.9-22.4-19-5.3-39-8-59.3-8h0Z"/>
    </g>
    <path class="st2" d="M1695.2,2633.2L3049,288.3c55.4-96-13.9-216-124.7-216H216.6c-110.9,0-180.1,120-124.7,216l1353.9,2345c55.4,96,194,96,249.4,0Z"/>
    <path class="st1" d="M1695.2,1769.2l605.6-1049c55.4-96-13.9-216-124.7-216H964.8c-110.9,0-180.1,120-124.7,216l605.6,1049c55.4,96,194,96,249.4,0Z"/>
  </g>
  <g>
    <path class="st2" d="M1233,990.2h-41.5v-130.4l-70.9-157.6h43.6l48.6,104.1,47.6-104.1h44.6l-71.9,157.6v130.4Z"/>
    <path class="st2" d="M1345.2,702.3h40.3v288h-40.3v-288Z"/>
    <path class="st2" d="M1448.9,702.3h135.8v40.4h-94.2v72.8h59.8v39.4h-59.8v95h105.4v40.4h-146.9v-288Z"/>
    <path class="st2" d="M1644.8,702.3h41.5v249.6h105.4v38.4h-146.9v-288Z"/>
    <path class="st2" d="M1832.1,990.2v-288h82.2c17.6,0,79.2.9,79.2,143.5s-56.9,144.5-75.7,144.5h-85.6ZM1905.7,742.7h-32.3v207.1h28.7c33.7,0,50.9-14.7,50.9-102.1s-25.2-105.1-47.4-105.1Z"/>
  </g>
</svg>