<?xml version="1.0" encoding="UTF-8"?>
<svg id="For_Sheets" xmlns="http://www.w3.org/2000/svg" version="1.1" viewBox="0 0 2902 2902">
  <!-- Generator: Adobe Illustrator 29.1.0, SVG Export Plug-In . SVG Version: 2.1.0 Build 142)  -->
  <defs>
    <style>
      .st0 {
        fill: #fff;
        fill-rule: evenodd;
      }

      .st1 {
        fill: #231f20;
      }
    </style>
  </defs>
  <g>
    <polygon class="st0" points="1451 1909.4 458.2 2902.1 -.2 2443.8 992.6 1451 -.2 458.2 458.2 -.2 1451 992.6 2443.8 -.2 2902.1 458.2 1909.4 1451 2902.1 2443.8 2443.8 2902.1 1451 1909.4"/>
    <path class="st1" d="M2443.8,0l458.2,458.2-992.8,992.8,992.8,992.8-458.2,458.2-992.8-992.8-992.8,992.8L0,2443.8l992.8-992.8L0,458.2,458.2,0l992.8,992.8L2443.8,0M2443.8-.4l-.2.2-992.6,992.6L458.4-.2l-.2-.2-.2.2L-.2,458l-.2.2.2.2,992.6,992.6L-.2,2443.6l-.2.2.2.2,458.2,458.2.2.2.2-.2,992.6-992.6,992.6,992.6.2.2.2-.2,458.2-458.2.2-.2-.2-.2-992.6-992.6,992.6-992.6.2-.2-.2-.2L2443.9-.2l-.2-.2h0Z"/>
  </g>
  <g>
    <path class="st1" d="M331.5,367.8l-121.9,121.9-44.2-44.2L445.5,165.5l101.3,101.3c64.2,64.2,32.1,134.8,4.8,162.1-10.4,10.4-55.2,47.5-113.6,26.6l-81.9,180.6-48.2-48.2,76.7-167.1-53.1-53.1ZM432.3,378.2c35.1,35.1,66,15.3,75,6.3s25.3-43.5-4.1-72.9l-57.8-57.8-68.8,68.8,55.6,55.6Z"/>
    <path class="st1" d="M666,788.8l-87.9-87.9-106.3,50.9-47.4-47.4,376.9-183.2,44.5,44.5-183.2,376.8-47.4-47.4,50.9-106.3ZM639.1,671.5l56.3,56.3,50.9-106.3-107.2,49.9Z"/>
    <path class="st1" d="M1030.4,750.3l44.8,44.8-280,280-44.8-44.8,280-280Z"/>
    <path class="st1" d="M1188.2,908.2l44.2,44.2-238.7,238.7,129.5,129.5-41.3,41.3-173.7-173.7,280-280Z"/>
    <path class="st1" d="M1706.1,1742.4l-121.9,121.9-44.2-44.2,280-280,101.3,101.3c64.2,64.2,32.1,134.8,4.8,162.1-10.4,10.4-55.2,47.5-113.6,26.6l-81.9,180.6-48.2-48.2,76.7-167.1-53.1-53.1ZM1806.9,1752.9c35.1,35.1,66,15.3,75,6.3,12.2-12.2,25.3-43.5-4.1-72.9l-57.8-57.8-68.8,68.8,55.6,55.6Z"/>
    <path class="st1" d="M2103.9,2103.8c-10,10-142.8,147-244.4,45.4-101.6-101.6,35.4-234.3,45.4-244.4,10-10,142.7-147,244.3-45.4,101.6,101.6-35.4,234.3-45.4,244.3ZM1905.1,2104.6c30.2,30.2,83.3,26.1,154.4-45.1,71.2-71.2,75.3-124.3,45.1-154.4-30.2-30.2-83.2-26.1-154.4,45.1-71.2,71.2-75.3,124.3-45.1,154.4Z"/>
    <path class="st1" d="M2235.2,2358l-87.9-87.9-106.3,50.9-47.4-47.4,376.9-183.2,44.5,44.5-183.2,376.8-47.4-47.4,50.9-106.3ZM2208.3,2240.7l56.3,56.3,50.9-106.3-107.2,49.9Z"/>
    <path class="st1" d="M2265.9,2545.9l280-280,101,101c70.7,70.7-3.5,182.7-44.1,223.3-105,105-200.3,92.3-235.7,56.9l-101.2-101.2ZM2596,2404.4l-50.1-50.1-190.6,190.6,47,47c40.7,40.7,103.5,4.8,156.2-48,25.1-25.1,81.4-95.7,37.5-139.5Z"/>
  </g>
  <g>
    <path class="st1" d="M305,2596c-39.4-39.4-136.5-152.3-41.2-247.5,40.6-40.6,84.8-51.7,144.5-30.5l-23.6,58.9c-34.9-6.3-50.9-8-75.6,16.7-58.6,58.6,23.7,139.6,41.3,157.2,17.4,17.4,99.2,101.3,160.2,40.3,21.4-21.4,20.8-46.6,10.8-75.7l58-26.5c23.2,54.7,19.6,104.1-22.7,146.4-100.8,100.8-217.4-5.2-251.5-39.3Z"/>
    <path class="st1" d="M699.1,2239.1l121.9,121.9-44.2,44.2-280-280,101.3-101.3c64.2-64.2,134.8-32.1,162.1-4.8,10.4,10.4,47.5,55.2,26.6,113.6l180.6,81.9-48.2,48.2-167.1-76.7-53.1,53.1ZM709.6,2138.4c35.1-35.1,15.3-66,6.3-75-12.2-12.2-43.5-25.3-72.9,4.1l-57.8,57.8,68.8,68.8,55.6-55.6Z"/>
    <path class="st1" d="M1147.4,1754.5c10,10,147,142.8,45.4,244.4-101.6,101.6-234.3-35.4-244.4-45.4-10-10-147-142.7-45.4-244.3s234.3,35.4,244.3,45.4ZM1148.2,1953.3c30.2-30.2,26.1-83.3-45.1-154.4-71.2-71.2-124.3-75.3-154.4-45.1-30.2,30.2-26.1,83.2,45.1,154.4,71.2,71.2,124.3,75.3,154.4,45.1Z"/>
    <path class="st1" d="M1342.7,1707.6l26.5-58c38.3,14.7,74.7,7.9,101.2-18.7,25.6-25.6,25.6-60.9,2-84.5-37.5-37.5-86.5,0-137.6,21.6-23.6,9.8-77.6,30.5-123.8-15.7-55.1-55.1-38.3-112.9,11.8-163,39.3-39.3,88.4-43.2,136.6-22.6l-27.5,51.1c-15.5-6.7-45-4.2-65.8,16.7-39.9,39.9-22,64.6-15,71.6,26.2,26.2,53.9,8.8,102.2-16.4,49.1-25.6,105.4-47.5,165.4,12.6,60.4,60.4,36.4,134.4-3,173.9-48.2,48.2-112,55-172.9,31.4Z"/>
    <path class="st1" d="M1640.4,1409.9l26.5-58c38.3,14.7,74.7,7.9,101.2-18.7,25.6-25.6,25.6-60.9,2-84.5-37.5-37.5-86.5,0-137.6,21.6-23.6,9.8-77.6,30.5-123.8-15.7-55.1-55.1-38.3-112.9,11.8-163,39.3-39.3,88.4-43.2,136.6-22.6l-27.5,51.1c-15.5-6.7-45-4.2-65.8,16.7-39.9,39.9-22,64.6-15,71.6,26.2,26.2,53.9,8.8,102.2-16.4,49.1-25.6,105.4-47.5,165.4,12.6,60.4,60.4,36.4,134.4-3,173.9-48.2,48.2-112,55-172.9,31.4Z"/>
    <path class="st1" d="M1743.5,878.4l44.8-44.8,280,280-44.8,44.8-280-280Z"/>
    <path class="st1" d="M2069.2,733.6l189.6,189.6-44.2,44.2-280-280,44.2-44.2,281,76.6-178.8-178.8,44.2-44.2,280,280-39.3,39.3-296.7-82.5Z"/>
    <path class="st1" d="M2362.5,249.6c44.9-44.9,87.2-53.1,151-27.2l-25.6,58.9c-36.4-12.8-56.9-9.8-78.6,11.8-61.5,61.5,35.7,151.7,42.2,158.2,10.5,10.5,96.9,101.6,151.3,47.1,28.5-28.5,31.5-66.8,5.9-92.4l-11.8-11.8-51.1,51.1-44.2-44.2,95.3-95.3,56,56c51.1,51.1,51.1,125.7,0,176.9-10.2,10.2-93.8,110.5-247-42.8-21.5-21.5-143.7-146.1-43.4-246.4Z"/>
  </g>
</svg>