<?xml version="1.0" encoding="UTF-8"?>
<svg id="For_Sheets" xmlns="http://www.w3.org/2000/svg" version="1.1" viewBox="0 0 3456 3456">
  <!-- Generator: Adobe Illustrator 29.1.0, SVG Export Plug-In . SVG Version: 2.1.0 Build 142)  -->
  <defs>
    <style>
      .st0 {
        fill: #231f20;
      }

      .st1 {
        fill: #fff;
      }

      .st2 {
        fill: #bf311a;
      }
    </style>
  </defs>
  <g>
    <polygon class="st1" points="1012.2 3456.1 0 2443.8 -.1 1012.2 1012.2 0 2443.8 -.1 3456.1 1012.2 3456.1 2443.8 2443.8 3456.1 1012.2 3456.1"/>
    <path class="st0" d="M2443.8,0l1012.2,1012.2v1431.5l-1012.2,1012.2H1012.2L0,2443.8V1012.2L1012.2,0h1431.5M2443.9-.2H1012.1C1012.1-.2-.2,1012.1-.2,1012.1h0v1431.7H-.2c0,.1,0,.2,0,.2l1012.2,1012.2h0c0,0,.1,0,.1,0h1431.7c0,0,1012.2-1012.3,1012.2-1012.3h0V1012.2h0c0-.1,0-.2,0-.2L2443.9-.2h0Z"/>
  </g>
  <polygon class="st2" points="1049.5 3366 90 2406.5 90 1049.5 1049.5 90 2406.5 90 3366 1049.5 3366 2406.5 2406.5 3366 1049.5 3366"/>
  <g>
    <path class="st1" d="M1391.6,2304h-166.2v-998.3h-210.8v-153.6h587.8v153.6h-210.8v998.3Z"/>
    <path class="st1" d="M1685.4,1725.5c0-603.2,279.8-593.6,341.8-593.6s338.1-9.2,338.1,594-276,598-338.1,598-341.8,9.5-341.8-598.5ZM2025.3,1293.6c-32.8,0-181.3-6.8-181.3,432.9s148.5,436,181.3,436,181.1,6.8,181.1-436-148.3-432.9-181.1-432.9Z"/>
    <path class="st1" d="M2668.9,1798.7v505.3h-165.3v-1152h342.9c181.6,0,302.5,129.9,302.5,323.4s-109,323.3-302.5,323.3h-177.5ZM2668.9,1641h169.3c96.8,0,149.3-60.5,149.3-165.6s-61.1-161.7-149.2-161.7h-169.5v327.3Z"/>
    <path class="st1" d="M794,1988.6c-.1-245.4-430.1-243.8-430.1-556s129.9-300.8,296.2-300.8,288.3,125.1,292.3,299.1h-158.5c-4-80.8-60.9-133.3-133.9-133.3s-138,56.4-138,133.2,31.4,89,101.1,132.6c159,93,329.2,212.7,329.2,425.5s-142.1,335.5-320.7,335.5-324.6-171.6-324.6-360h162.6c0,98.1,48.5,198.3,162.1,198.3h0c89.3-.1,162.3-81.1,162.3-174.1Z"/>
  </g>
</svg>