<?xml version="1.0" encoding="UTF-8" standalone="no"?>
<!-- Created with Inkscape (http://www.inkscape.org/) -->

<svg
   version="1.1"
   id="svg1"
   width="1728.6667"
   height="1728.6667"
   viewBox="0 0 1728.6667 1728.6667"
   sodipodi:docname="tmpdu34ww3r.pdf"
   xmlns:inkscape="http://www.inkscape.org/namespaces/inkscape"
   xmlns:sodipodi="http://sodipodi.sourceforge.net/DTD/sodipodi-0.dtd"
   xmlns="http://www.w3.org/2000/svg"
   xmlns:svg="http://www.w3.org/2000/svg">
  <defs
     id="defs1" />
  <sodipodi:namedview
     id="namedview1"
     pagecolor="#ffffff"
     bordercolor="#000000"
     borderopacity="0.25"
     inkscape:showpageshadow="2"
     inkscape:pageopacity="0.0"
     inkscape:pagecheckerboard="0"
     inkscape:deskcolor="#d1d1d1">
    <inkscape:page
       x="0"
       y="0"
       inkscape:label="1"
       id="page1"
       width="1728.6667"
       height="1728.6667"
       margin="0"
       bleed="0" />
  </sodipodi:namedview>
  <g
     id="g1"
     inkscape:groupmode="layer"
     inkscape:label="1">
    <g
       id="group-R5">
      <path
         id="path2"
         d="M 3798.4,1.19922 1.61719,3797.52 1.25,9166.6 l 3796.26,3796.8 5369.09,0.4 3796.8,-3796.31 0.4,-5369.09 L 9167.12,1.19922 H 3798.4"
         style="fill:#ffffff;fill-opacity:1;fill-rule:nonzero;stroke:none"
         transform="matrix(0.13333333,0,0,-0.13333333,0,1728.6667)" />
      <path
         id="path3"
         d="M 9167.64,12965 H 3797.36 l -0.73,-0.7 L 0.730469,9168.37 0,9167.64 v -1.04 -5368.2 -1.04 L 0.730469,3796.63 3796.63,0.699219 3797.36,0 h 1.04 5368.2 1.04 l 0.73,0.699219 3795.93,3795.930781 0.7,0.73 v 1.04 5368.2 1.04 l -0.7,0.73 -3795.93,3795.93 -0.73,0.7 z m -1.04,-2.5 3795.9,-3795.9 V 3798.4 L 9166.6,2.5 H 3798.4 L 2.5,3798.4 v 5368.2 l 3795.9,3795.9 h 5368.2"
         style="fill:#231f20;fill-opacity:1;fill-rule:nonzero;stroke:none"
         transform="matrix(0.13333333,0,0,-0.13333333,0,1728.6667)" />
      <path
         id="path4"
         d="M 3910.23,272.5 272.5,3910.23 V 9054.77 L 3910.23,12692.5 H 9054.77 L 12692.5,9054.77 V 3910.23 L 9054.77,272.5 H 3910.23"
         style="fill:#bf2519;fill-opacity:1;fill-rule:nonzero;stroke:none"
         transform="matrix(0.13333333,0,0,-0.13333333,0,1728.6667)" />
      <path
         id="path5"
         d="m 5221.08,4322.52 h -623.13 v 3743.8 h -790.53 v 576.18 h 2204.19 v -576.18 h -790.53 v -3743.8"
         style="fill:#ffffff;fill-opacity:1;fill-rule:nonzero;stroke:none"
         transform="matrix(0.13333333,0,0,-0.13333333,0,1728.6667)" />
      <path
         id="path6"
         d="m 7597.61,8111.68 c -123.12,0 -679.84,25.38 -679.84,-1623.23 0,-1660.49 556.72,-1635.11 679.84,-1635.11 123.11,0 679.3,-25.38 679.3,1635.11 0,1648.61 -556.19,1623.23 -679.3,1623.23 z M 6322.71,6491.69 c 0,2262.05 1049.18,2225.87 1281.92,2225.87 232.73,0 1267.87,34.56 1267.87,-2227.49 0,-2278.25 -1035.14,-2242.61 -1267.87,-2242.61 -232.74,0 -1281.92,-35.64 -1281.92,2244.23"
         style="fill:#ffffff;fill-opacity:1;fill-rule:nonzero;stroke:none"
         transform="matrix(0.13333333,0,0,-0.13333333,0,1728.6667)" />
      <path
         id="path7"
         d="m 10010.9,6808.67 h 635 c 362.9,0 560,226.8 560,621 0,363.95 -229,606.41 -559.4,606.41 h -635.6 z m 0,-591.3 V 4322.52 H 9391.03 V 8642.5 h 1285.67 c 680.9,0 1134.5,-487.08 1134.5,-1212.83 0,-788.4 -408.7,-1212.3 -1134.5,-1212.3 h -665.8"
         style="fill:#ffffff;fill-opacity:1;fill-rule:nonzero;stroke:none"
         transform="matrix(0.13333333,0,0,-0.13333333,0,1728.6667)" />
      <path
         id="path8"
         d="m 2980.02,5505.11 c -0.54,920.16 -1612.98,914.22 -1612.98,2084.94 0,621.53 487.08,1128.05 1110.78,1128.05 623.7,0 1081.07,-469.26 1096.19,-1121.58 h -594.53 c -15.12,302.94 -228.42,500.04 -502.2,500.04 -289.44,0 -517.32,-211.68 -517.32,-499.49 0,-243.54 117.72,-333.73 379.08,-497.34 596.16,-348.84 1234.43,-797.58 1234.43,-1595.69 0,-699.3 -532.97,-1258.2 -1202.57,-1258.2 -760.85,0 -1217.15,643.68 -1217.15,1349.99 h 609.65 c 0,-367.73 181.98,-743.57 608.04,-743.57 v 0.54 c 334.8,0 608.58,303.48 608.58,652.31"
         style="fill:#ffffff;fill-opacity:1;fill-rule:nonzero;stroke:none"
         transform="matrix(0.13333333,0,0,-0.13333333,0,1728.6667)" />
    </g>
  </g>
</svg>
